<?xml version="1.0" encoding="UTF-8" standalone="no"?>
<!DOCTYPE svg PUBLIC "-//W3C//DTD SVG 1.1//EN"
 "http://www.w3.org/Graphics/SVG/1.1/DTD/svg11.dtd">
<!-- Generated by graphviz version 12.2.1 (0)
 -->
<!-- Title: src/bot_library/commands/resources/AddResourcesCommand.cpp Pages: 1 -->
<svg width="1562pt" height="376pt"
 viewBox="0.00 0.00 1562.12 376.00" xmlns="http://www.w3.org/2000/svg" xmlns:xlink="http://www.w3.org/1999/xlink">
<g id="graph0" class="graph" transform="scale(1 1) rotate(0) translate(4 372)">
<title>src/bot_library/commands/resources/AddResourcesCommand.cpp</title>
<!-- Node1 -->
<g id="Node000001" class="node">
<title>Node1</title>
<g id="a_Node000001"><a xlink:title=" ">
<polygon fill="#999999" stroke="#666666" points="1094.62,-368 901.62,-368 901.62,-336 1094.62,-336 1094.62,-368"/>
<text text-anchor="start" x="909.62" y="-354.5" font-family="Helvetica,sans-Serif" font-size="10.00">src/bot_library/commands</text>
<text text-anchor="middle" x="998.12" y="-342.5" font-family="Helvetica,sans-Serif" font-size="10.00">/resources/AddResourcesCommand.cpp</text>
</a>
</g>
</g>
<!-- Node2 -->
<g id="Node000002" class="node">
<title>Node2</title>
<g id="a_Node000002"><a xlink:href="AddResourcesCommand_8hpp.html" target="_top" xlink:title=" ">
<polygon fill="white" stroke="#666666" points="1013.25,-300 869,-300 869,-280 1013.25,-280 1013.25,-300"/>
<text text-anchor="middle" x="941.12" y="-286.5" font-family="Helvetica,sans-Serif" font-size="10.00">AddResourcesCommand.hpp</text>
</a>
</g>
</g>
<!-- Node1&#45;&gt;Node2 -->
<g id="edge1_Node000001_Node000002" class="edge">
<title>Node1&#45;&gt;Node2</title>
<g id="a_edge1_Node000001_Node000002"><a xlink:title=" ">
<path fill="none" stroke="#63b8ff" d="M983.45,-335.55C975.61,-327.3 965.94,-317.12 957.82,-308.57"/>
<polygon fill="#63b8ff" stroke="#63b8ff" points="960.53,-306.34 951.11,-301.51 955.46,-311.17 960.53,-306.34"/>
</a>
</g>
</g>
<!-- Node4 -->
<g id="Node000004" class="node">
<title>Node4</title>
<g id="a_Node000004"><a xlink:href="Core_8hpp.html" target="_top" xlink:title=" ">
<polygon fill="white" stroke="#666666" points="788,-188 732.25,-188 732.25,-168 788,-168 788,-188"/>
<text text-anchor="middle" x="760.12" y="-174.5" font-family="Helvetica,sans-Serif" font-size="10.00">Core.hpp</text>
</a>
</g>
</g>
<!-- Node1&#45;&gt;Node4 -->
<g id="edge51_Node000001_Node000004" class="edge">
<title>Node1&#45;&gt;Node4</title>
<g id="a_edge51_Node000001_Node000004"><a xlink:title=" ">
<path fill="none" stroke="#63b8ff" d="M935.64,-335.58C910.7,-327.53 882.62,-315.96 860.12,-300 820.47,-271.86 787.52,-224.17 771.18,-197.85"/>
<polygon fill="#63b8ff" stroke="#63b8ff" points="774.36,-196.34 766.19,-189.59 768.37,-199.96 774.36,-196.34"/>
</a>
</g>
</g>
<!-- Node19 -->
<g id="Node000019" class="node">
<title>Node19</title>
<g id="a_Node000019"><a xlink:title=" ">
<polygon fill="#e0e0e0" stroke="#999999" points="1542.5,-76 1459.75,-76 1459.75,-56 1542.5,-56 1542.5,-76"/>
<text text-anchor="middle" x="1501.12" y="-62.5" font-family="Helvetica,sans-Serif" font-size="10.00">appcommand.h</text>
</a>
</g>
</g>
<!-- Node1&#45;&gt;Node19 -->
<g id="edge48_Node000001_Node000019" class="edge">
<title>Node1&#45;&gt;Node19</title>
<g id="a_edge48_Node000001_Node000019"><a xlink:title=" ">
<path fill="none" stroke="#63b8ff" d="M1094.97,-350.41C1254.27,-346.8 1554.12,-327.69 1554.12,-235 1554.12,-235 1554.12,-235 1554.12,-177 1554.12,-141.84 1531.88,-106.07 1516.21,-85.23"/>
<polygon fill="#63b8ff" stroke="#63b8ff" points="1519.04,-83.17 1510.11,-77.46 1513.53,-87.49 1519.04,-83.17"/>
</a>
</g>
</g>
<!-- Node26 -->
<g id="Node000026" class="node">
<title>Node26</title>
<g id="a_Node000026"><a xlink:title=" ">
<polygon fill="#e0e0e0" stroke="#999999" points="1081.38,-300 1030.88,-300 1030.88,-280 1081.38,-280 1081.38,-300"/>
<text text-anchor="middle" x="1056.12" y="-286.5" font-family="Helvetica,sans-Serif" font-size="10.00">colors.h</text>
</a>
</g>
</g>
<!-- Node1&#45;&gt;Node26 -->
<g id="edge49_Node000001_Node000026" class="edge">
<title>Node1&#45;&gt;Node26</title>
<g id="a_edge49_Node000001_Node000026"><a xlink:title=" ">
<path fill="none" stroke="#63b8ff" d="M1013.06,-335.55C1021.03,-327.3 1030.88,-317.12 1039.14,-308.57"/>
<polygon fill="#63b8ff" stroke="#63b8ff" points="1041.54,-311.12 1045.98,-301.5 1036.51,-306.25 1041.54,-311.12"/>
</a>
</g>
</g>
<!-- Node27 -->
<g id="Node000027" class="node">
<title>Node27</title>
<g id="a_Node000027"><a xlink:title=" ">
<polygon fill="#e0e0e0" stroke="#999999" points="1168.75,-300 1099.5,-300 1099.5,-280 1168.75,-280 1168.75,-300"/>
<text text-anchor="middle" x="1134.12" y="-286.5" font-family="Helvetica,sans-Serif" font-size="10.00">dispatcher.h</text>
</a>
</g>
</g>
<!-- Node1&#45;&gt;Node27 -->
<g id="edge50_Node000001_Node000027" class="edge">
<title>Node1&#45;&gt;Node27</title>
<g id="a_edge50_Node000001_Node000027"><a xlink:title=" ">
<path fill="none" stroke="#63b8ff" d="M1033.15,-335.55C1054.5,-326.13 1081.57,-314.19 1102.3,-305.04"/>
<polygon fill="#63b8ff" stroke="#63b8ff" points="1103.68,-308.26 1111.42,-301.02 1100.85,-301.85 1103.68,-308.26"/>
</a>
</g>
</g>
<!-- Node28 -->
<g id="Node000028" class="node">
<title>Node28</title>
<g id="a_Node000028"><a xlink:href="ResourceRepository_8hpp.html" target="_top" xlink:title=" ">
<polygon fill="white" stroke="#666666" points="212.75,-188 89.5,-188 89.5,-168 212.75,-168 212.75,-188"/>
<text text-anchor="middle" x="151.12" y="-174.5" font-family="Helvetica,sans-Serif" font-size="10.00">ResourceRepository.hpp</text>
</a>
</g>
</g>
<!-- Node1&#45;&gt;Node28 -->
<g id="edge52_Node000001_Node000028" class="edge">
<title>Node1&#45;&gt;Node28</title>
<g id="a_edge52_Node000001_Node000028"><a xlink:title=" ">
<path fill="none" stroke="#63b8ff" d="M921.84,-335.51C754.4,-301.51 357.78,-220.97 208.92,-190.74"/>
<polygon fill="#63b8ff" stroke="#63b8ff" points="209.77,-187.34 199.28,-188.78 208.38,-194.2 209.77,-187.34"/>
</a>
</g>
</g>
<!-- Node3 -->
<g id="Node000003" class="node">
<title>Node3</title>
<g id="a_Node000003"><a xlink:href="Bot_8hpp.html" target="_top" xlink:title=" ">
<polygon fill="white" stroke="#666666" points="971,-244 921.25,-244 921.25,-224 971,-224 971,-244"/>
<text text-anchor="middle" x="946.12" y="-230.5" font-family="Helvetica,sans-Serif" font-size="10.00">Bot.hpp</text>
</a>
</g>
</g>
<!-- Node2&#45;&gt;Node3 -->
<g id="edge2_Node000002_Node000003" class="edge">
<title>Node2&#45;&gt;Node3</title>
<g id="a_edge2_Node000002_Node000003"><a xlink:title=" ">
<path fill="none" stroke="#63b8ff" d="M942,-279.59C942.61,-273.01 943.44,-263.96 944.21,-255.73"/>
<polygon fill="#63b8ff" stroke="#63b8ff" points="947.69,-256.09 945.12,-245.81 940.72,-255.44 947.69,-256.09"/>
</a>
</g>
</g>
<!-- Node3&#45;&gt;Node4 -->
<g id="edge3_Node000003_Node000004" class="edge">
<title>Node3&#45;&gt;Node4</title>
<g id="a_edge3_Node000003_Node000004"><a xlink:title=" ">
<path fill="none" stroke="#63b8ff" d="M921.04,-225.72C889.77,-216.64 835.97,-201.02 799.26,-190.36"/>
<polygon fill="#63b8ff" stroke="#63b8ff" points="800.49,-187.07 789.91,-187.65 798.54,-193.8 800.49,-187.07"/>
</a>
</g>
</g>
<!-- Node10 -->
<g id="Node000010" class="node">
<title>Node10</title>
<g id="a_Node000010"><a xlink:title=" ">
<polygon fill="#e0e0e0" stroke="#999999" points="360.12,-76 320.12,-76 320.12,-56 360.12,-56 360.12,-76"/>
<text text-anchor="middle" x="340.12" y="-62.5" font-family="Helvetica,sans-Serif" font-size="10.00">string</text>
</a>
</g>
</g>
<!-- Node3&#45;&gt;Node10 -->
<g id="edge46_Node000003_Node000010" class="edge">
<title>Node3&#45;&gt;Node10</title>
<g id="a_edge46_Node000003_Node000010"><a xlink:title=" ">
<path fill="none" stroke="#63b8ff" d="M921.05,-232.32C819.35,-229.04 439.13,-211.54 356.12,-132 344.31,-120.68 340.65,-102.16 339.75,-87.77"/>
<polygon fill="#63b8ff" stroke="#63b8ff" points="343.26,-87.93 339.56,-78 336.26,-88.06 343.26,-87.93"/>
</a>
</g>
</g>
<!-- Node12 -->
<g id="Node000012" class="node">
<title>Node12</title>
<g id="a_Node000012"><a xlink:title=" ">
<polygon fill="#e0e0e0" stroke="#999999" points="1415.62,-76 1372.62,-76 1372.62,-56 1415.62,-56 1415.62,-76"/>
<text text-anchor="middle" x="1394.12" y="-62.5" font-family="Helvetica,sans-Serif" font-size="10.00">vector</text>
</a>
</g>
</g>
<!-- Node3&#45;&gt;Node12 -->
<g id="edge47_Node000003_Node000012" class="edge">
<title>Node3&#45;&gt;Node12</title>
<g id="a_edge47_Node000003_Node000012"><a xlink:title=" ">
<path fill="none" stroke="#63b8ff" d="M971.48,-232.21C1067.46,-228.63 1406.43,-210.54 1471.12,-132 1488.88,-110.45 1454.56,-90.5 1426.2,-78.54"/>
<polygon fill="#63b8ff" stroke="#63b8ff" points="1427.74,-75.38 1417.15,-74.92 1425.14,-81.88 1427.74,-75.38"/>
</a>
</g>
</g>
<!-- Node14 -->
<g id="Node000014" class="node">
<title>Node14</title>
<g id="a_Node000014"><a xlink:href="IButtonCommand_8hpp.html" target="_top" xlink:title=" ">
<polygon fill="white" stroke="#666666" points="499.75,-132 388.5,-132 388.5,-112 499.75,-112 499.75,-132"/>
<text text-anchor="middle" x="444.12" y="-118.5" font-family="Helvetica,sans-Serif" font-size="10.00">IButtonCommand.hpp</text>
</a>
</g>
</g>
<!-- Node3&#45;&gt;Node14 -->
<g id="edge35_Node000003_Node000014" class="edge">
<title>Node3&#45;&gt;Node14</title>
<g id="a_edge35_Node000003_Node000014"><a xlink:title=" ">
<path fill="none" stroke="#63b8ff" d="M920.99,-228.18C879.65,-220.2 794.72,-203.56 723.12,-188 642.65,-170.51 549.55,-148.45 493.83,-135.05"/>
<polygon fill="#63b8ff" stroke="#63b8ff" points="494.87,-131.7 484.33,-132.76 493.23,-138.51 494.87,-131.7"/>
</a>
</g>
</g>
<!-- Node17 -->
<g id="Node000017" class="node">
<title>Node17</title>
<g id="a_Node000017"><a xlink:href="IFormCommand_8hpp.html" target="_top" xlink:title=" ">
<polygon fill="white" stroke="#666666" points="808.75,-132 703.5,-132 703.5,-112 808.75,-112 808.75,-132"/>
<text text-anchor="middle" x="756.12" y="-118.5" font-family="Helvetica,sans-Serif" font-size="10.00">IFormCommand.hpp</text>
</a>
</g>
</g>
<!-- Node3&#45;&gt;Node17 -->
<g id="edge36_Node000003_Node000017" class="edge">
<title>Node3&#45;&gt;Node17</title>
<g id="a_edge36_Node000003_Node000017"><a xlink:title=" ">
<path fill="none" stroke="#63b8ff" d="M940.29,-223.65C931.07,-209.62 911.85,-183.17 889.12,-168 866.53,-152.92 838.41,-142.44 813.85,-135.42"/>
<polygon fill="#63b8ff" stroke="#63b8ff" points="814.88,-132.07 804.31,-132.82 813.04,-138.82 814.88,-132.07"/>
</a>
</g>
</g>
<!-- Node18 -->
<g id="Node000018" class="node">
<title>Node18</title>
<g id="a_Node000018"><a xlink:href="IGlobalSlashCommand_8hpp.html" target="_top" xlink:title=" ">
<polygon fill="white" stroke="#666666" points="1461.75,-132 1326.5,-132 1326.5,-112 1461.75,-112 1461.75,-132"/>
<text text-anchor="middle" x="1394.12" y="-118.5" font-family="Helvetica,sans-Serif" font-size="10.00">IGlobalSlashCommand.hpp</text>
</a>
</g>
</g>
<!-- Node3&#45;&gt;Node18 -->
<g id="edge37_Node000003_Node000018" class="edge">
<title>Node3&#45;&gt;Node18</title>
<g id="a_edge37_Node000003_Node000018"><a xlink:title=" ">
<path fill="none" stroke="#63b8ff" d="M971.5,-226.77C1043.35,-209.13 1249.22,-158.58 1344.56,-135.17"/>
<polygon fill="#63b8ff" stroke="#63b8ff" points="1345.28,-138.6 1354.16,-132.81 1343.61,-131.8 1345.28,-138.6"/>
</a>
</g>
</g>
<!-- Node20 -->
<g id="Node000020" class="node">
<title>Node20</title>
<g id="a_Node000020"><a xlink:href="IMemberCommand_8hpp.html" target="_top" xlink:title=" ">
<polygon fill="white" stroke="#666666" points="945.12,-132 827.12,-132 827.12,-112 945.12,-112 945.12,-132"/>
<text text-anchor="middle" x="886.12" y="-118.5" font-family="Helvetica,sans-Serif" font-size="10.00">IMemberCommand.hpp</text>
</a>
</g>
</g>
<!-- Node3&#45;&gt;Node20 -->
<g id="edge38_Node000003_Node000020" class="edge">
<title>Node3&#45;&gt;Node20</title>
<g id="a_edge38_Node000003_Node000020"><a xlink:title=" ">
<path fill="none" stroke="#63b8ff" d="M943.73,-223.77C940.15,-210.79 932.66,-186.64 922.12,-168 916.74,-158.46 909.37,-148.85 902.71,-140.98"/>
<polygon fill="#63b8ff" stroke="#63b8ff" points="905.35,-138.67 896.11,-133.49 900.09,-143.3 905.35,-138.67"/>
</a>
</g>
</g>
<!-- Node21 -->
<g id="Node000021" class="node">
<title>Node21</title>
<g id="a_Node000021"><a xlink:href="IMessageCommand_8hpp.html" target="_top" xlink:title=" ">
<polygon fill="white" stroke="#666666" points="1085.38,-132 962.88,-132 962.88,-112 1085.38,-112 1085.38,-132"/>
<text text-anchor="middle" x="1024.12" y="-118.5" font-family="Helvetica,sans-Serif" font-size="10.00">IMessageCommand.hpp</text>
</a>
</g>
</g>
<!-- Node3&#45;&gt;Node21 -->
<g id="edge39_Node000003_Node000021" class="edge">
<title>Node3&#45;&gt;Node21</title>
<g id="a_edge39_Node000003_Node000021"><a xlink:title=" ">
<path fill="none" stroke="#63b8ff" d="M952.78,-223.62C965.61,-205.52 994.02,-165.45 1010.86,-141.7"/>
<polygon fill="#63b8ff" stroke="#63b8ff" points="1013.69,-143.77 1016.62,-133.59 1007.98,-139.72 1013.69,-143.77"/>
</a>
</g>
</g>
<!-- Node22 -->
<g id="Node000022" class="node">
<title>Node22</title>
<g id="a_Node000022"><a xlink:href="IReactionCommand_8hpp.html" target="_top" xlink:title=" ">
<polygon fill="white" stroke="#666666" points="1225,-132 1103.25,-132 1103.25,-112 1225,-112 1225,-132"/>
<text text-anchor="middle" x="1164.12" y="-118.5" font-family="Helvetica,sans-Serif" font-size="10.00">IReactionCommand.hpp</text>
</a>
</g>
</g>
<!-- Node3&#45;&gt;Node22 -->
<g id="edge40_Node000003_Node000022" class="edge">
<title>Node3&#45;&gt;Node22</title>
<g id="a_edge40_Node000003_Node000022"><a xlink:title=" ">
<path fill="none" stroke="#63b8ff" d="M964.71,-223.62C1002.84,-204.38 1090.13,-160.34 1135.52,-137.43"/>
<polygon fill="#63b8ff" stroke="#63b8ff" points="1136.88,-140.67 1144.23,-133.04 1133.73,-134.42 1136.88,-140.67"/>
</a>
</g>
</g>
<!-- Node23 -->
<g id="Node000023" class="node">
<title>Node23</title>
<g id="a_Node000023"><a xlink:href="IReady_8hpp.html" target="_top" xlink:title=" ">
<polygon fill="white" stroke="#666666" points="1308.88,-132 1243.38,-132 1243.38,-112 1308.88,-112 1308.88,-132"/>
<text text-anchor="middle" x="1276.12" y="-118.5" font-family="Helvetica,sans-Serif" font-size="10.00">IReady.hpp</text>
</a>
</g>
</g>
<!-- Node3&#45;&gt;Node23 -->
<g id="edge41_Node000003_Node000023" class="edge">
<title>Node3&#45;&gt;Node23</title>
<g id="a_edge41_Node000003_Node000023"><a xlink:title=" ">
<path fill="none" stroke="#63b8ff" d="M971.47,-224.55C1028.8,-205.44 1168.75,-158.79 1237.17,-135.98"/>
<polygon fill="#63b8ff" stroke="#63b8ff" points="1238.09,-139.37 1246.47,-132.88 1235.88,-132.73 1238.09,-139.37"/>
</a>
</g>
</g>
<!-- Node24 -->
<g id="Node000024" class="node">
<title>Node24</title>
<g id="a_Node000024"><a xlink:title=" ">
<polygon fill="#e0e0e0" stroke="#999999" points="1526.5,-188 1491.75,-188 1491.75,-168 1526.5,-168 1526.5,-188"/>
<text text-anchor="middle" x="1509.12" y="-174.5" font-family="Helvetica,sans-Serif" font-size="10.00">map</text>
</a>
</g>
</g>
<!-- Node3&#45;&gt;Node24 -->
<g id="edge44_Node000003_Node000024" class="edge">
<title>Node3&#45;&gt;Node24</title>
<g id="a_edge44_Node000003_Node000024"><a xlink:title=" ">
<path fill="none" stroke="#63b8ff" d="M971.29,-232.64C1047.99,-231.15 1285.37,-223.77 1478.12,-188 1478.95,-187.85 1479.79,-187.68 1480.63,-187.5"/>
<polygon fill="#63b8ff" stroke="#63b8ff" points="1481.25,-190.96 1490.1,-185.12 1479.55,-184.17 1481.25,-190.96"/>
</a>
</g>
</g>
<!-- Node25 -->
<g id="Node000025" class="node">
<title>Node25</title>
<g id="a_Node000025"><a xlink:title=" ">
<polygon fill="#e0e0e0" stroke="#999999" points="879.75,-188 828.5,-188 828.5,-168 879.75,-168 879.75,-188"/>
<text text-anchor="middle" x="854.12" y="-174.5" font-family="Helvetica,sans-Serif" font-size="10.00">memory</text>
</a>
</g>
</g>
<!-- Node3&#45;&gt;Node25 -->
<g id="edge45_Node000003_Node000025" class="edge">
<title>Node3&#45;&gt;Node25</title>
<g id="a_edge45_Node000003_Node000025"><a xlink:title=" ">
<path fill="none" stroke="#63b8ff" d="M930.1,-223.59C916.33,-215.51 896.22,-203.71 880.15,-194.27"/>
<polygon fill="#63b8ff" stroke="#63b8ff" points="881.98,-191.29 871.58,-189.25 878.43,-197.33 881.98,-191.29"/>
</a>
</g>
</g>
<!-- Node5 -->
<g id="Node000005" class="node">
<title>Node5</title>
<g id="a_Node000005"><a xlink:title=" ">
<polygon fill="#e0e0e0" stroke="#999999" points="576.5,-132 517.75,-132 517.75,-112 576.5,-112 576.5,-132"/>
<text text-anchor="middle" x="547.12" y="-118.5" font-family="Helvetica,sans-Serif" font-size="10.00">dpp/dpp.h</text>
</a>
</g>
</g>
<!-- Node4&#45;&gt;Node5 -->
<g id="edge4_Node000004_Node000005" class="edge">
<title>Node4&#45;&gt;Node5</title>
<g id="a_edge4_Node000004_Node000005"><a xlink:title=" ">
<path fill="none" stroke="#63b8ff" d="M731.84,-169.83C694.94,-160.47 630.11,-144.04 587.9,-133.34"/>
<polygon fill="#63b8ff" stroke="#63b8ff" points="588.92,-129.99 578.37,-130.92 587.2,-136.77 588.92,-129.99"/>
</a>
</g>
</g>
<!-- Node6 -->
<g id="Node000006" class="node">
<title>Node6</title>
<g id="a_Node000006"><a xlink:title=" ">
<polygon fill="#e0e0e0" stroke="#999999" points="685.62,-132 594.62,-132 594.62,-112 685.62,-112 685.62,-132"/>
<text text-anchor="middle" x="640.12" y="-118.5" font-family="Helvetica,sans-Serif" font-size="10.00">dpp/misc&#45;enum.h</text>
</a>
</g>
</g>
<!-- Node4&#45;&gt;Node6 -->
<g id="edge5_Node000004_Node000006" class="edge">
<title>Node4&#45;&gt;Node6</title>
<g id="a_edge5_Node000004_Node000006"><a xlink:title=" ">
<path fill="none" stroke="#63b8ff" d="M739.22,-167.59C720.5,-159.17 692.77,-146.69 671.4,-137.07"/>
<polygon fill="#63b8ff" stroke="#63b8ff" points="673.13,-134.01 662.57,-133.1 670.25,-140.4 673.13,-134.01"/>
</a>
</g>
</g>
<!-- Node7 -->
<g id="Node000007" class="node">
<title>Node7</title>
<g id="a_Node000007"><a xlink:href="Database_8hpp.html" target="_top" xlink:title=" ">
<polygon fill="white" stroke="#666666" points="294.5,-132 217.75,-132 217.75,-112 294.5,-112 294.5,-132"/>
<text text-anchor="middle" x="256.12" y="-118.5" font-family="Helvetica,sans-Serif" font-size="10.00">Database.hpp</text>
</a>
</g>
</g>
<!-- Node4&#45;&gt;Node7 -->
<g id="edge6_Node000004_Node000007" class="edge">
<title>Node4&#45;&gt;Node7</title>
<g id="a_edge6_Node000004_Node000007"><a xlink:title=" ">
<path fill="none" stroke="#63b8ff" d="M731.95,-173.98C649.92,-165.19 410.51,-139.54 305.95,-128.34"/>
<polygon fill="#63b8ff" stroke="#63b8ff" points="306.6,-124.89 296.28,-127.3 305.85,-131.85 306.6,-124.89"/>
</a>
</g>
</g>
<!-- Node4&#45;&gt;Node10 -->
<g id="edge34_Node000004_Node000010" class="edge">
<title>Node4&#45;&gt;Node10</title>
<g id="a_edge34_Node000004_Node000010"><a xlink:title=" ">
<path fill="none" stroke="#63b8ff" d="M731.94,-176.82C654.01,-175.86 437.5,-169.75 379.12,-132 363.08,-121.63 352.69,-102.11 346.7,-87.16"/>
<polygon fill="#63b8ff" stroke="#63b8ff" points="350.02,-86.05 343.33,-77.84 343.44,-88.43 350.02,-86.05"/>
</a>
</g>
</g>
<!-- Node4&#45;&gt;Node14 -->
<g id="edge14_Node000004_Node000014" class="edge">
<title>Node4&#45;&gt;Node14</title>
<g id="a_edge14_Node000004_Node000014"><a xlink:title=" ">
<path fill="none" stroke="#63b8ff" d="M731.8,-172.16C682.37,-163.71 579.08,-146.06 510.68,-134.37"/>
<polygon fill="#63b8ff" stroke="#63b8ff" points="511.53,-130.97 501.08,-132.73 510.35,-137.87 511.53,-130.97"/>
</a>
</g>
</g>
<!-- Node4&#45;&gt;Node17 -->
<g id="edge17_Node000004_Node000017" class="edge">
<title>Node4&#45;&gt;Node17</title>
<g id="a_edge17_Node000004_Node000017"><a xlink:title=" ">
<path fill="none" stroke="#63b8ff" d="M759.43,-167.59C758.94,-161.01 758.27,-151.96 757.66,-143.73"/>
<polygon fill="#63b8ff" stroke="#63b8ff" points="761.15,-143.52 756.93,-133.81 754.17,-144.04 761.15,-143.52"/>
</a>
</g>
</g>
<!-- Node4&#45;&gt;Node18 -->
<g id="edge20_Node000004_Node000018" class="edge">
<title>Node4&#45;&gt;Node18</title>
<g id="a_edge20_Node000004_Node000018"><a xlink:title=" ">
<path fill="none" stroke="#63b8ff" d="M788.27,-172.24C798.02,-170.72 809.03,-169.13 819.12,-168 1036.43,-143.63 1094.85,-152.76 1314.9,-132.27"/>
<polygon fill="#63b8ff" stroke="#63b8ff" points="1315.05,-135.77 1324.68,-131.34 1314.4,-128.8 1315.05,-135.77"/>
</a>
</g>
</g>
<!-- Node4&#45;&gt;Node20 -->
<g id="edge25_Node000004_Node000020" class="edge">
<title>Node4&#45;&gt;Node20</title>
<g id="a_edge25_Node000004_Node000020"><a xlink:title=" ">
<path fill="none" stroke="#63b8ff" d="M782.07,-167.59C801.83,-159.13 831.12,-146.58 853.59,-136.94"/>
<polygon fill="#63b8ff" stroke="#63b8ff" points="854.8,-140.23 862.62,-133.08 852.04,-133.8 854.8,-140.23"/>
</a>
</g>
</g>
<!-- Node4&#45;&gt;Node21 -->
<g id="edge28_Node000004_Node000021" class="edge">
<title>Node4&#45;&gt;Node21</title>
<g id="a_edge28_Node000004_Node000021"><a xlink:title=" ">
<path fill="none" stroke="#63b8ff" d="M788.38,-171.22C830.81,-162.54 911.89,-145.96 966.98,-134.69"/>
<polygon fill="#63b8ff" stroke="#63b8ff" points="967.4,-138.18 976.5,-132.74 966,-131.32 967.4,-138.18"/>
</a>
</g>
</g>
<!-- Node4&#45;&gt;Node22 -->
<g id="edge31_Node000004_Node000022" class="edge">
<title>Node4&#45;&gt;Node22</title>
<g id="a_edge31_Node000004_Node000022"><a xlink:title=" ">
<path fill="none" stroke="#63b8ff" d="M788.32,-172.57C798.07,-171.07 809.07,-169.42 819.12,-168 845.43,-164.28 998.49,-144.42 1091.68,-132.36"/>
<polygon fill="#63b8ff" stroke="#63b8ff" points="1092.04,-135.85 1101.51,-131.09 1091.15,-128.9 1092.04,-135.85"/>
</a>
</g>
</g>
<!-- Node8 -->
<g id="Node000008" class="node">
<title>Node8</title>
<g id="a_Node000008"><a xlink:title=" ">
<polygon fill="#e0e0e0" stroke="#999999" points="69.25,-76 21,-76 21,-56 69.25,-56 69.25,-76"/>
<text text-anchor="middle" x="45.12" y="-62.5" font-family="Helvetica,sans-Serif" font-size="10.00">cstddef</text>
</a>
</g>
</g>
<!-- Node7&#45;&gt;Node8 -->
<g id="edge7_Node000007_Node000008" class="edge">
<title>Node7&#45;&gt;Node8</title>
<g id="a_edge7_Node000007_Node000008"><a xlink:title=" ">
<path fill="none" stroke="#63b8ff" d="M219.37,-111.59C180.25,-101.58 118.8,-85.86 80.3,-76"/>
<polygon fill="#63b8ff" stroke="#63b8ff" points="81.63,-72.73 71.08,-73.64 79.9,-79.51 81.63,-72.73"/>
</a>
</g>
</g>
<!-- Node9 -->
<g id="Node000009" class="node">
<title>Node9</title>
<g id="a_Node000009"><a xlink:title=" ">
<polygon fill="#e0e0e0" stroke="#999999" points="216.62,-20 155.62,-20 155.62,0 216.62,0 216.62,-20"/>
<text text-anchor="middle" x="186.12" y="-6.5" font-family="Helvetica,sans-Serif" font-size="10.00">pqxx/pqxx</text>
</a>
</g>
</g>
<!-- Node7&#45;&gt;Node9 -->
<g id="edge8_Node000007_Node000009" class="edge">
<title>Node7&#45;&gt;Node9</title>
<g id="a_edge8_Node000007_Node000009"><a xlink:title=" ">
<path fill="none" stroke="#63b8ff" d="M250.16,-111.62C238.69,-93.6 213.37,-53.81 198.23,-30.02"/>
<polygon fill="#63b8ff" stroke="#63b8ff" points="201.21,-28.19 192.89,-21.63 195.31,-31.95 201.21,-28.19"/>
</a>
</g>
</g>
<!-- Node7&#45;&gt;Node10 -->
<g id="edge9_Node000007_Node000010" class="edge">
<title>Node7&#45;&gt;Node10</title>
<g id="a_edge9_Node000007_Node000010"><a xlink:title=" ">
<path fill="none" stroke="#63b8ff" d="M270.76,-111.59C283.21,-103.59 301.34,-91.93 315.95,-82.54"/>
<polygon fill="#63b8ff" stroke="#63b8ff" points="317.59,-85.65 324.11,-77.3 313.8,-79.76 317.59,-85.65"/>
</a>
</g>
</g>
<!-- Node11 -->
<g id="Node000011" class="node">
<title>Node11</title>
<g id="a_Node000011"><a xlink:title=" ">
<polygon fill="#e0e0e0" stroke="#999999" points="301.75,-76 256.5,-76 256.5,-56 301.75,-56 301.75,-76"/>
<text text-anchor="middle" x="279.12" y="-62.5" font-family="Helvetica,sans-Serif" font-size="10.00">variant</text>
</a>
</g>
</g>
<!-- Node7&#45;&gt;Node11 -->
<g id="edge10_Node000007_Node000011" class="edge">
<title>Node7&#45;&gt;Node11</title>
<g id="a_edge10_Node000007_Node000011"><a xlink:title=" ">
<path fill="none" stroke="#63b8ff" d="M260.13,-111.59C263.03,-104.78 267.06,-95.32 270.67,-86.86"/>
<polygon fill="#63b8ff" stroke="#63b8ff" points="273.87,-88.26 274.57,-77.69 267.43,-85.52 273.87,-88.26"/>
</a>
</g>
</g>
<!-- Node7&#45;&gt;Node12 -->
<g id="edge11_Node000007_Node000012" class="edge">
<title>Node7&#45;&gt;Node12</title>
<g id="a_edge11_Node000007_Node000012"><a xlink:title=" ">
<path fill="none" stroke="#63b8ff" d="M294.88,-117.88C319.09,-116 350.91,-113.66 379.12,-112 765.07,-89.33 1234.17,-72.49 1361.13,-68.12"/>
<polygon fill="#63b8ff" stroke="#63b8ff" points="1360.94,-71.63 1370.82,-67.79 1360.7,-64.63 1360.94,-71.63"/>
</a>
</g>
</g>
<!-- Node13 -->
<g id="Node000013" class="node">
<title>Node13</title>
<g id="a_Node000013"><a xlink:href="RowDTOAdapter_8hpp.html" target="_top" xlink:title=" ">
<polygon fill="white" stroke="#666666" points="200,-76 90.25,-76 90.25,-56 200,-56 200,-76"/>
<text text-anchor="middle" x="145.12" y="-62.5" font-family="Helvetica,sans-Serif" font-size="10.00">RowDTOAdapter.hpp</text>
</a>
</g>
</g>
<!-- Node7&#45;&gt;Node13 -->
<g id="edge12_Node000007_Node000013" class="edge">
<title>Node7&#45;&gt;Node13</title>
<g id="a_edge12_Node000007_Node000013"><a xlink:title=" ">
<path fill="none" stroke="#63b8ff" d="M236.79,-111.59C219.71,-103.28 194.52,-91.03 174.87,-81.47"/>
<polygon fill="#63b8ff" stroke="#63b8ff" points="176.5,-78.37 165.97,-77.14 173.43,-84.66 176.5,-78.37"/>
</a>
</g>
</g>
<!-- Node13&#45;&gt;Node9 -->
<g id="edge13_Node000013_Node000009" class="edge">
<title>Node13&#45;&gt;Node9</title>
<g id="a_edge13_Node000013_Node000009"><a xlink:title=" ">
<path fill="none" stroke="#63b8ff" d="M152.27,-55.59C157.73,-48.39 165.45,-38.23 172.13,-29.43"/>
<polygon fill="#63b8ff" stroke="#63b8ff" points="174.89,-31.58 178.15,-21.5 169.32,-27.35 174.89,-31.58"/>
</a>
</g>
</g>
<!-- Node15 -->
<g id="Node000015" class="node">
<title>Node15</title>
<g id="a_Node000015"><a xlink:title=" ">
<polygon fill="#e0e0e0" stroke="#999999" points="1109.25,-76 1037,-76 1037,-56 1109.25,-56 1109.25,-76"/>
<text text-anchor="middle" x="1073.12" y="-62.5" font-family="Helvetica,sans-Serif" font-size="10.00">dpp/cluster.h</text>
</a>
</g>
</g>
<!-- Node14&#45;&gt;Node15 -->
<g id="edge15_Node000014_Node000015" class="edge">
<title>Node14&#45;&gt;Node15</title>
<g id="a_edge15_Node000014_Node000015"><a xlink:title=" ">
<path fill="none" stroke="#63b8ff" d="M500.12,-113C503.16,-112.64 506.18,-112.31 509.12,-112 735.4,-88.51 796.98,-106.15 1025.48,-76.18"/>
<polygon fill="#63b8ff" stroke="#63b8ff" points="1025.89,-79.66 1035.34,-74.87 1024.97,-72.72 1025.89,-79.66"/>
</a>
</g>
</g>
<!-- Node16 -->
<g id="Node000016" class="node">
<title>Node16</title>
<g id="a_Node000016"><a xlink:title=" ">
<polygon fill="#e0e0e0" stroke="#999999" points="1019.12,-76 931.12,-76 931.12,-56 1019.12,-56 1019.12,-76"/>
<text text-anchor="middle" x="975.12" y="-62.5" font-family="Helvetica,sans-Serif" font-size="10.00">dpp/dispatcher.h</text>
</a>
</g>
</g>
<!-- Node14&#45;&gt;Node16 -->
<g id="edge16_Node000014_Node000016" class="edge">
<title>Node14&#45;&gt;Node16</title>
<g id="a_edge16_Node000014_Node000016"><a xlink:title=" ">
<path fill="none" stroke="#63b8ff" d="M500.13,-113.1C503.17,-112.71 506.18,-112.35 509.12,-112 657.07,-94.62 832.02,-79.06 919.48,-71.62"/>
<polygon fill="#63b8ff" stroke="#63b8ff" points="919.55,-75.13 929.22,-70.8 918.96,-68.16 919.55,-75.13"/>
</a>
</g>
</g>
<!-- Node17&#45;&gt;Node15 -->
<g id="edge18_Node000017_Node000015" class="edge">
<title>Node17&#45;&gt;Node15</title>
<g id="a_edge18_Node000017_Node000015"><a xlink:title=" ">
<path fill="none" stroke="#63b8ff" d="M809.12,-112.77C861.65,-104.49 944.68,-91.08 1025.87,-76.36"/>
<polygon fill="#63b8ff" stroke="#63b8ff" points="1026.1,-79.88 1035.31,-74.65 1024.84,-72.99 1026.1,-79.88"/>
</a>
</g>
</g>
<!-- Node17&#45;&gt;Node16 -->
<g id="edge19_Node000017_Node000016" class="edge">
<title>Node17&#45;&gt;Node16</title>
<g id="a_edge19_Node000017_Node000016"><a xlink:title=" ">
<path fill="none" stroke="#63b8ff" d="M794.52,-111.53C831,-102.54 886.02,-88.97 925.74,-79.18"/>
<polygon fill="#63b8ff" stroke="#63b8ff" points="926.43,-82.61 935.3,-76.82 924.75,-75.82 926.43,-82.61"/>
</a>
</g>
</g>
<!-- Node18&#45;&gt;Node12 -->
<g id="edge24_Node000018_Node000012" class="edge">
<title>Node18&#45;&gt;Node12</title>
<g id="a_edge24_Node000018_Node000012"><a xlink:title=" ">
<path fill="none" stroke="#63b8ff" d="M1394.12,-111.59C1394.12,-105.01 1394.12,-95.96 1394.12,-87.73"/>
<polygon fill="#63b8ff" stroke="#63b8ff" points="1397.63,-87.81 1394.13,-77.81 1390.63,-87.81 1397.63,-87.81"/>
</a>
</g>
</g>
<!-- Node18&#45;&gt;Node15 -->
<g id="edge22_Node000018_Node000015" class="edge">
<title>Node18&#45;&gt;Node15</title>
<g id="a_edge22_Node000018_Node000015"><a xlink:title=" ">
<path fill="none" stroke="#63b8ff" d="M1337.84,-111.53C1276.15,-101.15 1178.25,-84.69 1120.39,-74.95"/>
<polygon fill="#63b8ff" stroke="#63b8ff" points="1121.31,-71.56 1110.86,-73.35 1120.14,-78.46 1121.31,-71.56"/>
</a>
</g>
</g>
<!-- Node18&#45;&gt;Node16 -->
<g id="edge23_Node000018_Node000016" class="edge">
<title>Node18&#45;&gt;Node16</title>
<g id="a_edge23_Node000018_Node000016"><a xlink:title=" ">
<path fill="none" stroke="#63b8ff" d="M1326.08,-112.8C1235.99,-101.93 1083.18,-83.4 1030.49,-76.23"/>
<polygon fill="#63b8ff" stroke="#63b8ff" points="1031.24,-72.8 1020.85,-74.88 1030.26,-79.73 1031.24,-72.8"/>
</a>
</g>
</g>
<!-- Node18&#45;&gt;Node19 -->
<g id="edge21_Node000018_Node000019" class="edge">
<title>Node18&#45;&gt;Node19</title>
<g id="a_edge21_Node000018_Node000019"><a xlink:title=" ">
<path fill="none" stroke="#63b8ff" d="M1412.76,-111.59C1429.16,-103.32 1453.28,-91.14 1472.19,-81.6"/>
<polygon fill="#63b8ff" stroke="#63b8ff" points="1473.64,-84.79 1480.99,-77.16 1470.49,-78.54 1473.64,-84.79"/>
</a>
</g>
</g>
<!-- Node20&#45;&gt;Node15 -->
<g id="edge26_Node000020_Node000015" class="edge">
<title>Node20&#45;&gt;Node15</title>
<g id="a_edge26_Node000020_Node000015"><a xlink:title=" ">
<path fill="none" stroke="#63b8ff" d="M918.7,-111.59C949.35,-102.74 995.47,-89.43 1029.33,-79.65"/>
<polygon fill="#63b8ff" stroke="#63b8ff" points="1030.21,-83.04 1038.84,-76.9 1028.27,-76.31 1030.21,-83.04"/>
</a>
</g>
</g>
<!-- Node20&#45;&gt;Node16 -->
<g id="edge27_Node000020_Node000016" class="edge">
<title>Node20&#45;&gt;Node16</title>
<g id="a_edge27_Node000020_Node000016"><a xlink:title=" ">
<path fill="none" stroke="#63b8ff" d="M901.63,-111.59C914.95,-103.51 934.4,-91.71 949.95,-82.27"/>
<polygon fill="#63b8ff" stroke="#63b8ff" points="951.47,-85.44 958.21,-77.26 947.84,-79.46 951.47,-85.44"/>
</a>
</g>
</g>
<!-- Node21&#45;&gt;Node15 -->
<g id="edge29_Node000021_Node000015" class="edge">
<title>Node21&#45;&gt;Node15</title>
<g id="a_edge29_Node000021_Node000015"><a xlink:title=" ">
<path fill="none" stroke="#63b8ff" d="M1032.66,-111.59C1039.41,-104.16 1049.01,-93.58 1057.17,-84.58"/>
<polygon fill="#63b8ff" stroke="#63b8ff" points="1059.54,-87.18 1063.67,-77.42 1054.36,-82.47 1059.54,-87.18"/>
</a>
</g>
</g>
<!-- Node21&#45;&gt;Node16 -->
<g id="edge30_Node000021_Node000016" class="edge">
<title>Node21&#45;&gt;Node16</title>
<g id="a_edge30_Node000021_Node000016"><a xlink:title=" ">
<path fill="none" stroke="#63b8ff" d="M1015.59,-111.59C1008.84,-104.16 999.24,-93.58 991.08,-84.58"/>
<polygon fill="#63b8ff" stroke="#63b8ff" points="993.89,-82.47 984.58,-77.42 988.71,-87.18 993.89,-82.47"/>
</a>
</g>
</g>
<!-- Node22&#45;&gt;Node15 -->
<g id="edge32_Node000022_Node000015" class="edge">
<title>Node22&#45;&gt;Node15</title>
<g id="a_edge32_Node000022_Node000015"><a xlink:title=" ">
<path fill="none" stroke="#63b8ff" d="M1148.27,-111.59C1134.66,-103.51 1114.76,-91.71 1098.86,-82.27"/>
<polygon fill="#63b8ff" stroke="#63b8ff" points="1100.79,-79.35 1090.4,-77.25 1097.22,-85.37 1100.79,-79.35"/>
</a>
</g>
</g>
<!-- Node22&#45;&gt;Node16 -->
<g id="edge33_Node000022_Node000016" class="edge">
<title>Node22&#45;&gt;Node16</title>
<g id="a_edge33_Node000022_Node000016"><a xlink:title=" ">
<path fill="none" stroke="#63b8ff" d="M1131.2,-111.59C1100.09,-102.71 1053.21,-89.31 1018.95,-79.52"/>
<polygon fill="#63b8ff" stroke="#63b8ff" points="1020.34,-76.28 1009.76,-76.9 1018.41,-83.01 1020.34,-76.28"/>
</a>
</g>
</g>
<!-- Node23&#45;&gt;Node15 -->
<g id="edge42_Node000023_Node000015" class="edge">
<title>Node23&#45;&gt;Node15</title>
<g id="a_edge42_Node000023_Node000015"><a xlink:title=" ">
<path fill="none" stroke="#63b8ff" d="M1243.06,-112.2C1209.42,-103.25 1157,-89.31 1119.28,-79.28"/>
<polygon fill="#63b8ff" stroke="#63b8ff" points="1120.59,-76.01 1110.03,-76.82 1118.79,-82.77 1120.59,-76.01"/>
</a>
</g>
</g>
<!-- Node23&#45;&gt;Node16 -->
<g id="edge43_Node000023_Node000016" class="edge">
<title>Node23&#45;&gt;Node16</title>
<g id="a_edge43_Node000023_Node000016"><a xlink:title=" ">
<path fill="none" stroke="#63b8ff" d="M1243.13,-113.8C1240.09,-113.18 1237.05,-112.57 1234.12,-112 1214.55,-108.2 1100.99,-88.62 1030.89,-76.57"/>
<polygon fill="#63b8ff" stroke="#63b8ff" points="1031.55,-73.13 1021.11,-74.89 1030.37,-80.03 1031.55,-73.13"/>
</a>
</g>
</g>
<!-- Node29 -->
<g id="Node000029" class="node">
<title>Node29</title>
<g id="a_Node000029"><a xlink:href="IRepository_8hpp.html" target="_top" xlink:title=" ">
<polygon fill="white" stroke="#666666" points="84.25,-132 0,-132 0,-112 84.25,-112 84.25,-132"/>
<text text-anchor="middle" x="42.12" y="-118.5" font-family="Helvetica,sans-Serif" font-size="10.00">IRepository.hpp</text>
</a>
</g>
</g>
<!-- Node28&#45;&gt;Node29 -->
<g id="edge53_Node000028_Node000029" class="edge">
<title>Node28&#45;&gt;Node29</title>
<g id="a_edge53_Node000028_Node000029"><a xlink:title=" ">
<path fill="none" stroke="#63b8ff" d="M132.14,-167.59C115.36,-159.28 90.63,-147.03 71.34,-137.47"/>
<polygon fill="#63b8ff" stroke="#63b8ff" points="73.13,-134.45 62.62,-133.15 70.02,-140.73 73.13,-134.45"/>
</a>
</g>
</g>
<!-- Node30 -->
<g id="Node000030" class="node">
<title>Node30</title>
<g id="a_Node000030"><a xlink:href="ResourceDTO_8hpp.html" target="_top" xlink:title=" ">
<polygon fill="white" stroke="#666666" points="200,-132 102.25,-132 102.25,-112 200,-112 200,-132"/>
<text text-anchor="middle" x="151.12" y="-118.5" font-family="Helvetica,sans-Serif" font-size="10.00">ResourceDTO.hpp</text>
</a>
</g>
</g>
<!-- Node28&#45;&gt;Node30 -->
<g id="edge55_Node000028_Node000030" class="edge">
<title>Node28&#45;&gt;Node30</title>
<g id="a_edge55_Node000028_Node000030"><a xlink:title=" ">
<path fill="none" stroke="#63b8ff" d="M151.12,-167.59C151.12,-161.01 151.12,-151.96 151.12,-143.73"/>
<polygon fill="#63b8ff" stroke="#63b8ff" points="154.63,-143.81 151.13,-133.81 147.63,-143.81 154.63,-143.81"/>
</a>
</g>
</g>
<!-- Node29&#45;&gt;Node8 -->
<g id="edge54_Node000029_Node000008" class="edge">
<title>Node29&#45;&gt;Node8</title>
<g id="a_edge54_Node000029_Node000008"><a xlink:title=" ">
<path fill="none" stroke="#63b8ff" d="M42.65,-111.59C43.01,-105.01 43.52,-95.96 43.97,-87.73"/>
<polygon fill="#63b8ff" stroke="#63b8ff" points="47.46,-87.99 44.52,-77.81 40.48,-87.6 47.46,-87.99"/>
</a>
</g>
</g>
<!-- Node30&#45;&gt;Node10 -->
<g id="edge57_Node000030_Node000010" class="edge">
<title>Node30&#45;&gt;Node10</title>
<g id="a_edge57_Node000030_Node000010"><a xlink:title=" ">
<path fill="none" stroke="#63b8ff" d="M185.85,-111.52C216.02,-103.22 261.18,-90.65 308.98,-76.58"/>
<polygon fill="#63b8ff" stroke="#63b8ff" points="309.82,-79.98 318.41,-73.79 307.83,-73.27 309.82,-79.98"/>
</a>
</g>
</g>
<!-- Node30&#45;&gt;Node13 -->
<g id="edge56_Node000030_Node000013" class="edge">
<title>Node30&#45;&gt;Node13</title>
<g id="a_edge56_Node000030_Node000013"><a xlink:title=" ">
<path fill="none" stroke="#63b8ff" d="M150.08,-111.59C149.35,-105.01 148.34,-95.96 147.43,-87.73"/>
<polygon fill="#63b8ff" stroke="#63b8ff" points="150.91,-87.35 146.33,-77.8 143.95,-88.13 150.91,-87.35"/>
</a>
</g>
</g>
</g>
</svg>
