<?xml version="1.0" encoding="UTF-8" standalone="no"?>
<!DOCTYPE svg PUBLIC "-//W3C//DTD SVG 1.1//EN"
 "http://www.w3.org/Graphics/SVG/1.1/DTD/svg11.dtd">
<!-- Generated by graphviz version 14.1.5 (0)
 -->
<!-- Title: src/bot_library/restapi/include/AuthUtils.hpp Pages: 1 -->
<svg width="496pt" height="176pt"
 viewBox="0.00 0.00 496.00 176.00" xmlns="http://www.w3.org/2000/svg" xmlns:xlink="http://www.w3.org/1999/xlink">
<g id="graph0" class="graph" transform="scale(1 1) rotate(0) translate(4 172)">
<title>src/bot_library/restapi/include/AuthUtils.hpp</title>
<!-- Node1 -->
<g id="Node000001" class="node">
<title>Node1</title>
<g id="a_Node000001"><a xlink:title=" ">
<polygon fill="#999999" stroke="#666666" points="246.88,-168 134.88,-168 134.88,-136 246.88,-136 246.88,-168"/>
<text xml:space="preserve" text-anchor="start" x="142.88" y="-154.5" font-family="Helvetica,sans-Serif" font-size="10.00">src/bot_library/restapi</text>
<text xml:space="preserve" text-anchor="middle" x="190.88" y="-142.5" font-family="Helvetica,sans-Serif" font-size="10.00">/include/AuthUtils.hpp</text>
</a>
</g>
</g>
<!-- Node2 -->
<g id="Node000002" class="node">
<title>Node2</title>
<g id="a_Node000002"><a xlink:href="UserManager_8cpp.html" target="_top" xlink:title=" ">
<polygon fill="white" stroke="#666666" points="109.75,-100 0,-100 0,-68 109.75,-68 109.75,-100"/>
<text xml:space="preserve" text-anchor="start" x="8" y="-86.5" font-family="Helvetica,sans-Serif" font-size="10.00">src/bot_library/restapi</text>
<text xml:space="preserve" text-anchor="middle" x="54.88" y="-74.5" font-family="Helvetica,sans-Serif" font-size="10.00">/UserManager.cpp</text>
</a>
</g>
</g>
<!-- Node1&#45;&gt;Node2 -->
<g id="edge1_Node000001_Node000002" class="edge">
<title>Node1&#45;&gt;Node2</title>
<g id="a_edge1_Node000001_Node000002"><a xlink:title=" ">
<path fill="none" stroke="#63b8ff" d="M148.85,-130.61C128.76,-120.86 105.11,-109.38 86.56,-100.38"/>
<polygon fill="#63b8ff" stroke="#63b8ff" points="147.1,-133.65 157.63,-134.87 150.16,-127.35 147.1,-133.65"/>
</a>
</g>
</g>
<!-- Node3 -->
<g id="Node000003" class="node">
<title>Node3</title>
<g id="a_Node000003"><a xlink:href="AuthHandler_8hpp.html" target="_top" xlink:title=" ">
<polygon fill="white" stroke="#666666" points="253.62,-100 128.12,-100 128.12,-68 253.62,-68 253.62,-100"/>
<text xml:space="preserve" text-anchor="start" x="136.12" y="-86.5" font-family="Helvetica,sans-Serif" font-size="10.00">src/bot_library/restapi</text>
<text xml:space="preserve" text-anchor="middle" x="190.88" y="-74.5" font-family="Helvetica,sans-Serif" font-size="10.00">/include/AuthHandler.hpp</text>
</a>
</g>
</g>
<!-- Node1&#45;&gt;Node3 -->
<g id="edge2_Node000001_Node000003" class="edge">
<title>Node1&#45;&gt;Node3</title>
<g id="a_edge2_Node000001_Node000003"><a xlink:title=" ">
<path fill="none" stroke="#63b8ff" d="M190.88,-124.31C190.88,-116.12 190.88,-107.38 190.88,-100.22"/>
<polygon fill="#63b8ff" stroke="#63b8ff" points="187.38,-124.18 190.88,-134.18 194.38,-124.18 187.38,-124.18"/>
</a>
</g>
</g>
<!-- Node6 -->
<g id="Node000006" class="node">
<title>Node6</title>
<g id="a_Node000006"><a xlink:href="NotFoundHandler_8hpp.html" target="_top" xlink:title=" ">
<polygon fill="white" stroke="#666666" points="419.88,-100 271.88,-100 271.88,-68 419.88,-68 419.88,-100"/>
<text xml:space="preserve" text-anchor="start" x="279.88" y="-86.5" font-family="Helvetica,sans-Serif" font-size="10.00">src/bot_library/restapi</text>
<text xml:space="preserve" text-anchor="middle" x="345.88" y="-74.5" font-family="Helvetica,sans-Serif" font-size="10.00">/include/NotFoundHandler.hpp</text>
</a>
</g>
</g>
<!-- Node1&#45;&gt;Node6 -->
<g id="edge5_Node000001_Node000006" class="edge">
<title>Node1&#45;&gt;Node6</title>
<g id="a_edge5_Node000001_Node000006"><a xlink:title=" ">
<path fill="none" stroke="#63b8ff" d="M237.78,-131.03C260.79,-121.23 288.09,-109.61 309.49,-100.49"/>
<polygon fill="#63b8ff" stroke="#63b8ff" points="236.44,-127.79 228.61,-134.93 239.18,-134.24 236.44,-127.79"/>
</a>
</g>
</g>
<!-- Node4 -->
<g id="Node000004" class="node">
<title>Node4</title>
<g id="a_Node000004"><a xlink:href="AuthHandler_8cpp.html" target="_top" xlink:title=" ">
<polygon fill="white" stroke="#666666" points="161.75,-32 52,-32 52,0 161.75,0 161.75,-32"/>
<text xml:space="preserve" text-anchor="start" x="60" y="-18.5" font-family="Helvetica,sans-Serif" font-size="10.00">src/bot_library/restapi</text>
<text xml:space="preserve" text-anchor="middle" x="106.88" y="-6.5" font-family="Helvetica,sans-Serif" font-size="10.00">/AuthHandler.cpp</text>
</a>
</g>
</g>
<!-- Node3&#45;&gt;Node4 -->
<g id="edge3_Node000003_Node000004" class="edge">
<title>Node3&#45;&gt;Node4</title>
<g id="a_edge3_Node000003_Node000004"><a xlink:title=" ">
<path fill="none" stroke="#63b8ff" d="M162.36,-60.6C150.58,-51.34 137.21,-40.83 126.54,-32.45"/>
<polygon fill="#63b8ff" stroke="#63b8ff" points="160.18,-63.33 170.2,-66.76 164.5,-57.83 160.18,-63.33"/>
</a>
</g>
</g>
<!-- Node5 -->
<g id="Node000005" class="node">
<title>Node5</title>
<g id="a_Node000005"><a xlink:href="RestApiRequestHandlerFactory_8cpp.html" target="_top" xlink:title=" ">
<polygon fill="white" stroke="#666666" points="355.75,-32 180,-32 180,0 355.75,0 355.75,-32"/>
<text xml:space="preserve" text-anchor="start" x="188" y="-18.5" font-family="Helvetica,sans-Serif" font-size="10.00">src/bot_library/restapi</text>
<text xml:space="preserve" text-anchor="middle" x="267.88" y="-6.5" font-family="Helvetica,sans-Serif" font-size="10.00">/RestApiRequestHandlerFactory.cpp</text>
</a>
</g>
</g>
<!-- Node3&#45;&gt;Node5 -->
<g id="edge4_Node000003_Node000005" class="edge">
<title>Node3&#45;&gt;Node5</title>
<g id="a_edge4_Node000003_Node000005"><a xlink:title=" ">
<path fill="none" stroke="#63b8ff" d="M217.33,-60.32C228.06,-51.13 240.17,-40.75 249.85,-32.45"/>
<polygon fill="#63b8ff" stroke="#63b8ff" points="215.2,-57.54 209.88,-66.71 219.75,-62.86 215.2,-57.54"/>
</a>
</g>
</g>
<!-- Node6&#45;&gt;Node5 -->
<g id="edge7_Node000006_Node000005" class="edge">
<title>Node6&#45;&gt;Node5</title>
<g id="a_edge7_Node000006_Node000005"><a xlink:title=" ">
<path fill="none" stroke="#63b8ff" d="M319.07,-60.32C308.21,-51.13 295.94,-40.75 286.14,-32.45"/>
<polygon fill="#63b8ff" stroke="#63b8ff" points="316.73,-62.93 326.63,-66.71 321.26,-57.58 316.73,-62.93"/>
</a>
</g>
</g>
<!-- Node7 -->
<g id="Node000007" class="node">
<title>Node7</title>
<g id="a_Node000007"><a xlink:href="NotFoundHandler_8cpp.html" target="_top" xlink:title=" ">
<polygon fill="white" stroke="#666666" points="488,-32 373.75,-32 373.75,0 488,0 488,-32"/>
<text xml:space="preserve" text-anchor="start" x="381.75" y="-18.5" font-family="Helvetica,sans-Serif" font-size="10.00">src/bot_library/restapi</text>
<text xml:space="preserve" text-anchor="middle" x="430.88" y="-6.5" font-family="Helvetica,sans-Serif" font-size="10.00">/NotFoundHandler.cpp</text>
</a>
</g>
</g>
<!-- Node6&#45;&gt;Node7 -->
<g id="edge6_Node000006_Node000007" class="edge">
<title>Node6&#45;&gt;Node7</title>
<g id="a_edge6_Node000006_Node000007"><a xlink:title=" ">
<path fill="none" stroke="#63b8ff" d="M374.37,-60.87C386.38,-51.55 400.08,-40.91 410.97,-32.45"/>
<polygon fill="#63b8ff" stroke="#63b8ff" points="372.54,-57.87 366.78,-66.76 376.83,-63.4 372.54,-57.87"/>
</a>
</g>
</g>
</g>
</svg>
