<?xml version="1.0" encoding="UTF-8" standalone="no"?>
<!DOCTYPE svg PUBLIC "-//W3C//DTD SVG 1.1//EN"
 "http://www.w3.org/Graphics/SVG/1.1/DTD/svg11.dtd">
<!-- Generated by graphviz version 12.2.1 (0)
 -->
<!-- Title: src/bot_library/restapi/AuthHandler.cpp Pages: 1 -->
<svg width="1657pt" height="264pt"
 viewBox="0.00 0.00 1656.75 264.00" xmlns="http://www.w3.org/2000/svg" xmlns:xlink="http://www.w3.org/1999/xlink">
<g id="graph0" class="graph" transform="scale(1 1) rotate(0) translate(4 260)">
<title>src/bot_library/restapi/AuthHandler.cpp</title>
<!-- Node1 -->
<g id="Node000001" class="node">
<title>Node1</title>
<g id="a_Node000001"><a xlink:title=" ">
<polygon fill="#999999" stroke="#666666" points="800.62,-256 690.88,-256 690.88,-224 800.62,-224 800.62,-256"/>
<text text-anchor="start" x="698.88" y="-242.5" font-family="Helvetica,sans-Serif" font-size="10.00">src/bot_library/restapi</text>
<text text-anchor="middle" x="745.75" y="-230.5" font-family="Helvetica,sans-Serif" font-size="10.00">/AuthHandler.cpp</text>
</a>
</g>
</g>
<!-- Node2 -->
<g id="Node000002" class="node">
<title>Node2</title>
<g id="a_Node000002"><a xlink:title=" ">
<polygon fill="#e0e0e0" stroke="#999999" points="692.88,-132 584.62,-132 584.62,-112 692.88,-112 692.88,-132"/>
<text text-anchor="middle" x="638.75" y="-118.5" font-family="Helvetica,sans-Serif" font-size="10.00">Poco/JSON/Object.h</text>
</a>
</g>
</g>
<!-- Node1&#45;&gt;Node2 -->
<g id="edge1_Node000001_Node000002" class="edge">
<title>Node1&#45;&gt;Node2</title>
<g id="a_edge1_Node000001_Node000002"><a xlink:title=" ">
<path fill="none" stroke="#63b8ff" d="M690.53,-227.77C668.68,-220.32 645.71,-208.07 632.75,-188 624.19,-174.75 626.72,-156.68 630.8,-142.96"/>
<polygon fill="#63b8ff" stroke="#63b8ff" points="634.05,-144.28 634.05,-133.68 627.44,-141.96 634.05,-144.28"/>
</a>
</g>
</g>
<!-- Node3 -->
<g id="Node000003" class="node">
<title>Node3</title>
<g id="a_Node000003"><a xlink:title=" ">
<polygon fill="#e0e0e0" stroke="#999999" points="528.88,-132 420.62,-132 420.62,-112 528.88,-112 528.88,-132"/>
<text text-anchor="middle" x="474.75" y="-118.5" font-family="Helvetica,sans-Serif" font-size="10.00">Poco/JSON/Parser.h</text>
</a>
</g>
</g>
<!-- Node1&#45;&gt;Node3 -->
<g id="edge2_Node000001_Node000003" class="edge">
<title>Node1&#45;&gt;Node3</title>
<g id="a_edge2_Node000001_Node000003"><a xlink:title=" ">
<path fill="none" stroke="#63b8ff" d="M690.42,-232.58C629.61,-224.59 536.8,-209.34 508.75,-188 494.18,-176.91 485.25,-157.78 480.22,-143.14"/>
<polygon fill="#63b8ff" stroke="#63b8ff" points="483.59,-142.16 477.32,-133.61 476.89,-144.2 483.59,-142.16"/>
</a>
</g>
</g>
<!-- Node4 -->
<g id="Node000004" class="node">
<title>Node4</title>
<g id="a_Node000004"><a xlink:href="AuthHandler_8hpp.html" target="_top" xlink:title=" ">
<polygon fill="white" stroke="#666666" points="326.12,-188 237.38,-188 237.38,-168 326.12,-168 326.12,-188"/>
<text text-anchor="middle" x="281.75" y="-174.5" font-family="Helvetica,sans-Serif" font-size="10.00">AuthHandler.hpp</text>
</a>
</g>
</g>
<!-- Node1&#45;&gt;Node4 -->
<g id="edge3_Node000001_Node000004" class="edge">
<title>Node1&#45;&gt;Node4</title>
<g id="a_edge3_Node000001_Node000004"><a xlink:title=" ">
<path fill="none" stroke="#63b8ff" d="M690.7,-231.88C601.7,-220.37 427.16,-197.8 337.63,-186.23"/>
<polygon fill="#63b8ff" stroke="#63b8ff" points="338.23,-182.77 327.86,-184.96 337.33,-189.72 338.23,-182.77"/>
</a>
</g>
</g>
<!-- Node9 -->
<g id="Node000009" class="node">
<title>Node9</title>
<g id="a_Node000009"><a xlink:title=" ">
<polygon fill="#e0e0e0" stroke="#999999" points="447.75,-76 287.75,-76 287.75,-56 447.75,-56 447.75,-76"/>
<text text-anchor="middle" x="367.75" y="-62.5" font-family="Helvetica,sans-Serif" font-size="10.00">Poco/Net/HTTPServerRequest.h</text>
</a>
</g>
</g>
<!-- Node1&#45;&gt;Node9 -->
<g id="edge27_Node000001_Node000009" class="edge">
<title>Node1&#45;&gt;Node9</title>
<g id="a_edge27_Node000001_Node000009"><a xlink:title=" ">
<path fill="none" stroke="#63b8ff" d="M690.55,-235.12C636.83,-229.74 553.87,-217.14 487.75,-188 449.36,-171.08 440.82,-162.25 411.75,-132 398.34,-118.04 386.27,-99.57 378.17,-85.88"/>
<polygon fill="#63b8ff" stroke="#63b8ff" points="381.34,-84.37 373.34,-77.42 375.26,-87.84 381.34,-84.37"/>
</a>
</g>
</g>
<!-- Node10 -->
<g id="Node000010" class="node">
<title>Node10</title>
<g id="a_Node000010"><a xlink:href="JWTUtils_8hpp.html" target="_top" xlink:title=" ">
<polygon fill="white" stroke="#666666" points="717.75,-188 641.75,-188 641.75,-168 717.75,-168 717.75,-188"/>
<text text-anchor="middle" x="679.75" y="-174.5" font-family="Helvetica,sans-Serif" font-size="10.00">JWTUtils.hpp</text>
</a>
</g>
</g>
<!-- Node1&#45;&gt;Node10 -->
<g id="edge9_Node000001_Node000010" class="edge">
<title>Node1&#45;&gt;Node10</title>
<g id="a_edge9_Node000001_Node000010"><a xlink:title=" ">
<path fill="none" stroke="#63b8ff" d="M728.75,-223.55C719.49,-215.13 708.01,-204.69 698.49,-196.04"/>
<polygon fill="#63b8ff" stroke="#63b8ff" points="700.97,-193.56 691.22,-189.43 696.26,-198.74 700.97,-193.56"/>
</a>
</g>
</g>
<!-- Node12 -->
<g id="Node000012" class="node">
<title>Node12</title>
<g id="a_Node000012"><a xlink:href="Secrets_8hpp.html" target="_top" xlink:title=" ">
<polygon fill="white" stroke="#666666" points="586,-188 517.5,-188 517.5,-168 586,-168 586,-188"/>
<text text-anchor="middle" x="551.75" y="-174.5" font-family="Helvetica,sans-Serif" font-size="10.00">Secrets.hpp</text>
</a>
</g>
</g>
<!-- Node1&#45;&gt;Node12 -->
<g id="edge12_Node000001_Node000012" class="edge">
<title>Node1&#45;&gt;Node12</title>
<g id="a_edge12_Node000001_Node000012"><a xlink:title=" ">
<path fill="none" stroke="#63b8ff" d="M695.79,-223.55C664.03,-213.73 623.4,-201.16 593.39,-191.88"/>
<polygon fill="#63b8ff" stroke="#63b8ff" points="594.49,-188.55 583.9,-188.94 592.42,-195.24 594.49,-188.55"/>
</a>
</g>
</g>
<!-- Node13 -->
<g id="Node000013" class="node">
<title>Node13</title>
<g id="a_Node000013"><a xlink:href="WebUserDTO_8hpp.html" target="_top" xlink:title=" ">
<polygon fill="white" stroke="#666666" points="844.88,-132 748.62,-132 748.62,-112 844.88,-112 844.88,-132"/>
<text text-anchor="middle" x="796.75" y="-118.5" font-family="Helvetica,sans-Serif" font-size="10.00">WebUserDTO.hpp</text>
</a>
</g>
</g>
<!-- Node1&#45;&gt;Node13 -->
<g id="edge16_Node000001_Node000013" class="edge">
<title>Node1&#45;&gt;Node13</title>
<g id="a_edge16_Node000001_Node000013"><a xlink:title=" ">
<path fill="none" stroke="#63b8ff" d="M748.2,-223.77C750.94,-209.01 756.17,-186.24 764.75,-168 769.17,-158.61 775.58,-149.11 781.5,-141.28"/>
<polygon fill="#63b8ff" stroke="#63b8ff" points="784.14,-143.57 787.61,-133.56 778.66,-139.23 784.14,-143.57"/>
</a>
</g>
</g>
<!-- Node16 -->
<g id="Node000016" class="node">
<title>Node16</title>
<g id="a_Node000016"><a xlink:href="WebUserRepository_8hpp.html" target="_top" xlink:title=" ">
<polygon fill="white" stroke="#666666" points="895.62,-188 773.88,-188 773.88,-168 895.62,-168 895.62,-188"/>
<text text-anchor="middle" x="834.75" y="-174.5" font-family="Helvetica,sans-Serif" font-size="10.00">WebUserRepository.hpp</text>
</a>
</g>
</g>
<!-- Node1&#45;&gt;Node16 -->
<g id="edge20_Node000001_Node000016" class="edge">
<title>Node1&#45;&gt;Node16</title>
<g id="a_edge20_Node000001_Node000016"><a xlink:title=" ">
<path fill="none" stroke="#63b8ff" d="M768.67,-223.55C781.8,-214.69 798.25,-203.61 811.44,-194.71"/>
<polygon fill="#63b8ff" stroke="#63b8ff" points="813.2,-197.75 819.54,-189.25 809.29,-191.94 813.2,-197.75"/>
</a>
</g>
</g>
<!-- Node19 -->
<g id="Node000019" class="node">
<title>Node19</title>
<g id="a_Node000019"><a xlink:title=" ">
<polygon fill="#e0e0e0" stroke="#999999" points="1045.5,-188 914,-188 914,-168 1045.5,-168 1045.5,-188"/>
<text text-anchor="middle" x="979.75" y="-174.5" font-family="Helvetica,sans-Serif" font-size="10.00">Poco/HexBinaryEncoder.h</text>
</a>
</g>
</g>
<!-- Node1&#45;&gt;Node19 -->
<g id="edge24_Node000001_Node000019" class="edge">
<title>Node1&#45;&gt;Node19</title>
<g id="a_edge24_Node000001_Node000019"><a xlink:title=" ">
<path fill="none" stroke="#63b8ff" d="M800.91,-224.86C840.75,-214.64 894.03,-200.98 932.04,-191.23"/>
<polygon fill="#63b8ff" stroke="#63b8ff" points="932.54,-194.72 941.36,-188.84 930.81,-187.94 932.54,-194.72"/>
</a>
</g>
</g>
<!-- Node20 -->
<g id="Node000020" class="node">
<title>Node20</title>
<g id="a_Node000020"><a xlink:title=" ">
<polygon fill="#e0e0e0" stroke="#999999" points="1181.75,-188 1063.75,-188 1063.75,-168 1181.75,-168 1181.75,-188"/>
<text text-anchor="middle" x="1122.75" y="-174.5" font-family="Helvetica,sans-Serif" font-size="10.00">Poco/Net/HTMLForm.h</text>
</a>
</g>
</g>
<!-- Node1&#45;&gt;Node20 -->
<g id="edge25_Node000001_Node000020" class="edge">
<title>Node1&#45;&gt;Node20</title>
<g id="a_edge25_Node000001_Node000020"><a xlink:title=" ">
<path fill="none" stroke="#63b8ff" d="M800.97,-230.21C867.46,-219.63 979.25,-201.84 1052.01,-190.26"/>
<polygon fill="#63b8ff" stroke="#63b8ff" points="1052.51,-193.72 1061.84,-188.69 1051.41,-186.81 1052.51,-193.72"/>
</a>
</g>
</g>
<!-- Node21 -->
<g id="Node000021" class="node">
<title>Node21</title>
<g id="a_Node000021"><a xlink:title=" ">
<polygon fill="#e0e0e0" stroke="#999999" points="1339.25,-188 1200.25,-188 1200.25,-168 1339.25,-168 1339.25,-188"/>
<text text-anchor="middle" x="1269.75" y="-174.5" font-family="Helvetica,sans-Serif" font-size="10.00">Poco/Net/HTTPResponse.h</text>
</a>
</g>
</g>
<!-- Node1&#45;&gt;Node21 -->
<g id="edge26_Node000001_Node000021" class="edge">
<title>Node1&#45;&gt;Node21</title>
<g id="a_edge26_Node000001_Node000021"><a xlink:title=" ">
<path fill="none" stroke="#63b8ff" d="M800.84,-232.69C893.59,-222.07 1081.35,-200.57 1189.01,-188.24"/>
<polygon fill="#63b8ff" stroke="#63b8ff" points="1189.1,-191.76 1198.63,-187.14 1188.3,-184.8 1189.1,-191.76"/>
</a>
</g>
</g>
<!-- Node22 -->
<g id="Node000022" class="node">
<title>Node22</title>
<g id="a_Node000022"><a xlink:title=" ">
<polygon fill="#e0e0e0" stroke="#999999" points="1524.5,-188 1357,-188 1357,-168 1524.5,-168 1524.5,-188"/>
<text text-anchor="middle" x="1440.75" y="-174.5" font-family="Helvetica,sans-Serif" font-size="10.00">Poco/Net/HTTPServerResponse.h</text>
</a>
</g>
</g>
<!-- Node1&#45;&gt;Node22 -->
<g id="edge28_Node000001_Node000022" class="edge">
<title>Node1&#45;&gt;Node22</title>
<g id="a_edge28_Node000001_Node000022"><a xlink:title=" ">
<path fill="none" stroke="#63b8ff" d="M801.06,-234.57C905.34,-226.15 1138.46,-207.1 1345.15,-188.32"/>
<polygon fill="#63b8ff" stroke="#63b8ff" points="1345.38,-191.81 1355.02,-187.42 1344.74,-184.84 1345.38,-191.81"/>
</a>
</g>
</g>
<!-- Node23 -->
<g id="Node000023" class="node">
<title>Node23</title>
<g id="a_Node000023"><a xlink:title=" ">
<polygon fill="#e0e0e0" stroke="#999999" points="1648.75,-188 1542.75,-188 1542.75,-168 1648.75,-168 1648.75,-188"/>
<text text-anchor="middle" x="1595.75" y="-174.5" font-family="Helvetica,sans-Serif" font-size="10.00">Poco/SHA2Engine.h</text>
</a>
</g>
</g>
<!-- Node1&#45;&gt;Node23 -->
<g id="edge29_Node000001_Node000023" class="edge">
<title>Node1&#45;&gt;Node23</title>
<g id="a_edge29_Node000001_Node000023"><a xlink:title=" ">
<path fill="none" stroke="#63b8ff" d="M800.81,-236.94C927.7,-231.88 1250.69,-217.14 1531.13,-188.19"/>
<polygon fill="#63b8ff" stroke="#63b8ff" points="1531.26,-191.7 1540.84,-187.18 1530.54,-184.74 1531.26,-191.7"/>
</a>
</g>
</g>
<!-- Node5 -->
<g id="Node000005" class="node">
<title>Node5</title>
<g id="a_Node000005"><a xlink:title=" ">
<polygon fill="#e0e0e0" stroke="#999999" points="364.38,-132 199.12,-132 199.12,-112 364.38,-112 364.38,-132"/>
<text text-anchor="middle" x="281.75" y="-118.5" font-family="Helvetica,sans-Serif" font-size="10.00">Poco/Net/HTTPRequestHandler.h</text>
</a>
</g>
</g>
<!-- Node4&#45;&gt;Node5 -->
<g id="edge4_Node000004_Node000005" class="edge">
<title>Node4&#45;&gt;Node5</title>
<g id="a_edge4_Node000004_Node000005"><a xlink:title=" ">
<path fill="none" stroke="#63b8ff" d="M281.75,-167.59C281.75,-161.01 281.75,-151.96 281.75,-143.73"/>
<polygon fill="#63b8ff" stroke="#63b8ff" points="285.25,-143.81 281.75,-133.81 278.25,-143.81 285.25,-143.81"/>
</a>
</g>
</g>
<!-- Node6 -->
<g id="Node000006" class="node">
<title>Node6</title>
<g id="a_Node000006"><a xlink:href="AuthUtils_8hpp.html" target="_top" xlink:title=" ">
<polygon fill="white" stroke="#666666" points="181.38,-132 106.12,-132 106.12,-112 181.38,-112 181.38,-132"/>
<text text-anchor="middle" x="143.75" y="-118.5" font-family="Helvetica,sans-Serif" font-size="10.00">AuthUtils.hpp</text>
</a>
</g>
</g>
<!-- Node4&#45;&gt;Node6 -->
<g id="edge5_Node000004_Node000006" class="edge">
<title>Node4&#45;&gt;Node6</title>
<g id="a_edge5_Node000004_Node000006"><a xlink:title=" ">
<path fill="none" stroke="#63b8ff" d="M257.71,-167.59C235.78,-159.01 203.12,-146.23 178.38,-136.55"/>
<polygon fill="#63b8ff" stroke="#63b8ff" points="179.97,-133.42 169.38,-133.03 177.42,-139.93 179.97,-133.42"/>
</a>
</g>
</g>
<!-- Node7 -->
<g id="Node000007" class="node">
<title>Node7</title>
<g id="a_Node000007"><a xlink:title=" ">
<polygon fill="#e0e0e0" stroke="#999999" points="101.5,-76 0,-76 0,-56 101.5,-56 101.5,-76"/>
<text text-anchor="middle" x="50.75" y="-62.5" font-family="Helvetica,sans-Serif" font-size="10.00">Poco/JWT/Signer.h</text>
</a>
</g>
</g>
<!-- Node6&#45;&gt;Node7 -->
<g id="edge6_Node000006_Node000007" class="edge">
<title>Node6&#45;&gt;Node7</title>
<g id="a_edge6_Node000006_Node000007"><a xlink:title=" ">
<path fill="none" stroke="#63b8ff" d="M127.55,-111.59C113.5,-103.44 92.92,-91.48 76.59,-82"/>
<polygon fill="#63b8ff" stroke="#63b8ff" points="78.79,-79.23 68.38,-77.24 75.28,-85.29 78.79,-79.23"/>
</a>
</g>
</g>
<!-- Node8 -->
<g id="Node000008" class="node">
<title>Node8</title>
<g id="a_Node000008"><a xlink:title=" ">
<polygon fill="#e0e0e0" stroke="#999999" points="219.75,-76 119.75,-76 119.75,-56 219.75,-56 219.75,-76"/>
<text text-anchor="middle" x="169.75" y="-62.5" font-family="Helvetica,sans-Serif" font-size="10.00">Poco/JWT/Token.h</text>
</a>
</g>
</g>
<!-- Node6&#45;&gt;Node8 -->
<g id="edge7_Node000006_Node000008" class="edge">
<title>Node6&#45;&gt;Node8</title>
<g id="a_edge7_Node000006_Node000008"><a xlink:title=" ">
<path fill="none" stroke="#63b8ff" d="M148.28,-111.59C151.6,-104.7 156.22,-95.1 160.33,-86.57"/>
<polygon fill="#63b8ff" stroke="#63b8ff" points="163.43,-88.19 164.62,-77.66 157.12,-85.15 163.43,-88.19"/>
</a>
</g>
</g>
<!-- Node6&#45;&gt;Node9 -->
<g id="edge8_Node000006_Node000009" class="edge">
<title>Node6&#45;&gt;Node9</title>
<g id="a_edge8_Node000006_Node000009"><a xlink:title=" ">
<path fill="none" stroke="#63b8ff" d="M181.75,-111.84C219.06,-102.85 276.2,-89.07 317.3,-79.16"/>
<polygon fill="#63b8ff" stroke="#63b8ff" points="318.06,-82.58 326.96,-76.83 316.42,-75.77 318.06,-82.58"/>
</a>
</g>
</g>
<!-- Node10&#45;&gt;Node2 -->
<g id="edge10_Node000010_Node000002" class="edge">
<title>Node10&#45;&gt;Node2</title>
<g id="a_edge10_Node000010_Node000002"><a xlink:title=" ">
<path fill="none" stroke="#63b8ff" d="M672.61,-167.59C667.14,-160.39 659.43,-150.23 652.74,-141.43"/>
<polygon fill="#63b8ff" stroke="#63b8ff" points="655.56,-139.35 646.73,-133.5 649.98,-143.58 655.56,-139.35"/>
</a>
</g>
</g>
<!-- Node11 -->
<g id="Node000011" class="node">
<title>Node11</title>
<g id="a_Node000011"><a xlink:title=" ">
<polygon fill="#e0e0e0" stroke="#999999" points="728.75,-76 688.75,-76 688.75,-56 728.75,-56 728.75,-76"/>
<text text-anchor="middle" x="708.75" y="-62.5" font-family="Helvetica,sans-Serif" font-size="10.00">string</text>
</a>
</g>
</g>
<!-- Node10&#45;&gt;Node11 -->
<g id="edge11_Node000010_Node000011" class="edge">
<title>Node10&#45;&gt;Node11</title>
<g id="a_edge11_Node000010_Node000011"><a xlink:title=" ">
<path fill="none" stroke="#63b8ff" d="M685.48,-167.73C690.64,-158.89 697.99,-145.03 701.75,-132 705.9,-117.61 707.64,-100.77 708.34,-87.85"/>
<polygon fill="#63b8ff" stroke="#63b8ff" points="711.83,-88.09 708.69,-77.97 704.84,-87.83 711.83,-88.09"/>
</a>
</g>
</g>
<!-- Node12&#45;&gt;Node2 -->
<g id="edge13_Node000012_Node000002" class="edge">
<title>Node12&#45;&gt;Node2</title>
<g id="a_edge13_Node000012_Node000002"><a xlink:title=" ">
<path fill="none" stroke="#63b8ff" d="M566.9,-167.59C579.8,-159.59 598.58,-147.93 613.71,-138.54"/>
<polygon fill="#63b8ff" stroke="#63b8ff" points="615.54,-141.53 622.19,-133.28 611.85,-135.58 615.54,-141.53"/>
</a>
</g>
</g>
<!-- Node12&#45;&gt;Node3 -->
<g id="edge14_Node000012_Node000003" class="edge">
<title>Node12&#45;&gt;Node3</title>
<g id="a_edge14_Node000012_Node000003"><a xlink:title=" ">
<path fill="none" stroke="#63b8ff" d="M538.34,-167.59C527.14,-159.74 510.94,-148.38 497.69,-139.09"/>
<polygon fill="#63b8ff" stroke="#63b8ff" points="499.7,-136.22 489.51,-133.35 495.68,-141.96 499.7,-136.22"/>
</a>
</g>
</g>
<!-- Node12&#45;&gt;Node11 -->
<g id="edge15_Node000012_Node000011" class="edge">
<title>Node12&#45;&gt;Node11</title>
<g id="a_edge15_Node000012_Node000011"><a xlink:title=" ">
<path fill="none" stroke="#63b8ff" d="M552.67,-167.67C554.55,-153.68 560.06,-127.27 575.75,-112 603.36,-85.14 647.56,-74.29 677.35,-69.93"/>
<polygon fill="#63b8ff" stroke="#63b8ff" points="677.41,-73.45 686.88,-68.7 676.51,-66.5 677.41,-73.45"/>
</a>
</g>
</g>
<!-- Node13&#45;&gt;Node11 -->
<g id="edge19_Node000013_Node000011" class="edge">
<title>Node13&#45;&gt;Node11</title>
<g id="a_edge19_Node000013_Node000011"><a xlink:title=" ">
<path fill="none" stroke="#63b8ff" d="M781.42,-111.59C768.25,-103.51 749.02,-91.71 733.64,-82.27"/>
<polygon fill="#63b8ff" stroke="#63b8ff" points="735.84,-79.52 725.49,-77.27 732.18,-85.48 735.84,-79.52"/>
</a>
</g>
</g>
<!-- Node14 -->
<g id="Node000014" class="node">
<title>Node14</title>
<g id="a_Node000014"><a xlink:href="RowDTOAdapter_8hpp.html" target="_top" xlink:title=" ">
<polygon fill="white" stroke="#666666" points="856.62,-76 746.88,-76 746.88,-56 856.62,-56 856.62,-76"/>
<text text-anchor="middle" x="801.75" y="-62.5" font-family="Helvetica,sans-Serif" font-size="10.00">RowDTOAdapter.hpp</text>
</a>
</g>
</g>
<!-- Node13&#45;&gt;Node14 -->
<g id="edge17_Node000013_Node000014" class="edge">
<title>Node13&#45;&gt;Node14</title>
<g id="a_edge17_Node000013_Node000014"><a xlink:title=" ">
<path fill="none" stroke="#63b8ff" d="M797.62,-111.59C798.23,-105.01 799.07,-95.96 799.83,-87.73"/>
<polygon fill="#63b8ff" stroke="#63b8ff" points="803.31,-88.09 800.75,-77.81 796.34,-87.44 803.31,-88.09"/>
</a>
</g>
</g>
<!-- Node15 -->
<g id="Node000015" class="node">
<title>Node15</title>
<g id="a_Node000015"><a xlink:title=" ">
<polygon fill="#e0e0e0" stroke="#999999" points="832.25,-20 771.25,-20 771.25,0 832.25,0 832.25,-20"/>
<text text-anchor="middle" x="801.75" y="-6.5" font-family="Helvetica,sans-Serif" font-size="10.00">pqxx/pqxx</text>
</a>
</g>
</g>
<!-- Node14&#45;&gt;Node15 -->
<g id="edge18_Node000014_Node000015" class="edge">
<title>Node14&#45;&gt;Node15</title>
<g id="a_edge18_Node000014_Node000015"><a xlink:title=" ">
<path fill="none" stroke="#63b8ff" d="M801.75,-55.59C801.75,-49.01 801.75,-39.96 801.75,-31.73"/>
<polygon fill="#63b8ff" stroke="#63b8ff" points="805.25,-31.81 801.75,-21.81 798.25,-31.81 805.25,-31.81"/>
</a>
</g>
</g>
<!-- Node16&#45;&gt;Node13 -->
<g id="edge23_Node000016_Node000013" class="edge">
<title>Node16&#45;&gt;Node13</title>
<g id="a_edge23_Node000016_Node000013"><a xlink:title=" ">
<path fill="none" stroke="#63b8ff" d="M828.13,-167.59C823.06,-160.39 815.91,-150.23 809.72,-141.43"/>
<polygon fill="#63b8ff" stroke="#63b8ff" points="812.78,-139.7 804.16,-133.54 807.06,-143.73 812.78,-139.7"/>
</a>
</g>
</g>
<!-- Node17 -->
<g id="Node000017" class="node">
<title>Node17</title>
<g id="a_Node000017"><a xlink:href="IRepository_8hpp.html" target="_top" xlink:title=" ">
<polygon fill="white" stroke="#666666" points="946.88,-132 862.62,-132 862.62,-112 946.88,-112 946.88,-132"/>
<text text-anchor="middle" x="904.75" y="-118.5" font-family="Helvetica,sans-Serif" font-size="10.00">IRepository.hpp</text>
</a>
</g>
</g>
<!-- Node16&#45;&gt;Node17 -->
<g id="edge21_Node000016_Node000017" class="edge">
<title>Node16&#45;&gt;Node17</title>
<g id="a_edge21_Node000016_Node000017"><a xlink:title=" ">
<path fill="none" stroke="#63b8ff" d="M846.94,-167.59C857.08,-159.77 871.74,-148.46 883.76,-139.19"/>
<polygon fill="#63b8ff" stroke="#63b8ff" points="885.72,-142.1 891.5,-133.22 881.44,-136.56 885.72,-142.1"/>
</a>
</g>
</g>
<!-- Node18 -->
<g id="Node000018" class="node">
<title>Node18</title>
<g id="a_Node000018"><a xlink:title=" ">
<polygon fill="#e0e0e0" stroke="#999999" points="928.88,-76 880.62,-76 880.62,-56 928.88,-56 928.88,-76"/>
<text text-anchor="middle" x="904.75" y="-62.5" font-family="Helvetica,sans-Serif" font-size="10.00">cstddef</text>
</a>
</g>
</g>
<!-- Node17&#45;&gt;Node18 -->
<g id="edge22_Node000017_Node000018" class="edge">
<title>Node17&#45;&gt;Node18</title>
<g id="a_edge22_Node000017_Node000018"><a xlink:title=" ">
<path fill="none" stroke="#63b8ff" d="M904.75,-111.59C904.75,-105.01 904.75,-95.96 904.75,-87.73"/>
<polygon fill="#63b8ff" stroke="#63b8ff" points="908.25,-87.81 904.75,-77.81 901.25,-87.81 908.25,-87.81"/>
</a>
</g>
</g>
</g>
</svg>
