<?xml version="1.0" encoding="UTF-8" standalone="no"?>
<!DOCTYPE svg PUBLIC "-//W3C//DTD SVG 1.1//EN"
 "http://www.w3.org/Graphics/SVG/1.1/DTD/svg11.dtd">
<!-- Generated by graphviz version 12.2.1 (0)
 -->
<!-- Title: src/bot_library/restapi/include/AuthHandler.hpp Pages: 1 -->
<svg width="457pt" height="152pt"
 viewBox="0.00 0.00 456.62 152.00" xmlns="http://www.w3.org/2000/svg" xmlns:xlink="http://www.w3.org/1999/xlink">
<g id="graph0" class="graph" transform="scale(1 1) rotate(0) translate(4 148)">
<title>src/bot_library/restapi/include/AuthHandler.hpp</title>
<!-- Node1 -->
<g id="Node000001" class="node">
<title>Node1</title>
<g id="a_Node000001"><a xlink:title=" ">
<polygon fill="#999999" stroke="#666666" points="214.38,-144 88.88,-144 88.88,-112 214.38,-112 214.38,-144"/>
<text text-anchor="start" x="96.88" y="-130.5" font-family="Helvetica,sans-Serif" font-size="10.00">src/bot_library/restapi</text>
<text text-anchor="middle" x="151.62" y="-118.5" font-family="Helvetica,sans-Serif" font-size="10.00">/include/AuthHandler.hpp</text>
</a>
</g>
</g>
<!-- Node2 -->
<g id="Node000002" class="node">
<title>Node2</title>
<g id="a_Node000002"><a xlink:title=" ">
<polygon fill="#e0e0e0" stroke="#999999" points="165.25,-76 0,-76 0,-56 165.25,-56 165.25,-76"/>
<text text-anchor="middle" x="82.62" y="-62.5" font-family="Helvetica,sans-Serif" font-size="10.00">Poco/Net/HTTPRequestHandler.h</text>
</a>
</g>
</g>
<!-- Node1&#45;&gt;Node2 -->
<g id="edge1_Node000001_Node000002" class="edge">
<title>Node1&#45;&gt;Node2</title>
<g id="a_edge1_Node000001_Node000002"><a xlink:title=" ">
<path fill="none" stroke="#63b8ff" d="M133.86,-111.55C124.07,-103.04 111.92,-92.48 101.91,-83.77"/>
<polygon fill="#63b8ff" stroke="#63b8ff" points="104.43,-81.32 94.59,-77.4 99.84,-86.6 104.43,-81.32"/>
</a>
</g>
</g>
<!-- Node3 -->
<g id="Node000003" class="node">
<title>Node3</title>
<g id="a_Node000003"><a xlink:href="AuthUtils_8hpp.html" target="_top" xlink:title=" ">
<polygon fill="white" stroke="#666666" points="258.25,-76 183,-76 183,-56 258.25,-56 258.25,-76"/>
<text text-anchor="middle" x="220.62" y="-62.5" font-family="Helvetica,sans-Serif" font-size="10.00">AuthUtils.hpp</text>
</a>
</g>
</g>
<!-- Node1&#45;&gt;Node3 -->
<g id="edge2_Node000001_Node000003" class="edge">
<title>Node1&#45;&gt;Node3</title>
<g id="a_edge2_Node000001_Node000003"><a xlink:title=" ">
<path fill="none" stroke="#63b8ff" d="M169.39,-111.55C179.18,-103.04 191.33,-92.48 201.34,-83.77"/>
<polygon fill="#63b8ff" stroke="#63b8ff" points="203.41,-86.6 208.66,-77.4 198.82,-81.32 203.41,-86.6"/>
</a>
</g>
</g>
<!-- Node4 -->
<g id="Node000004" class="node">
<title>Node4</title>
<g id="a_Node000004"><a xlink:title=" ">
<polygon fill="#e0e0e0" stroke="#999999" points="152.38,-20 50.88,-20 50.88,0 152.38,0 152.38,-20"/>
<text text-anchor="middle" x="101.62" y="-6.5" font-family="Helvetica,sans-Serif" font-size="10.00">Poco/JWT/Signer.h</text>
</a>
</g>
</g>
<!-- Node3&#45;&gt;Node4 -->
<g id="edge3_Node000003_Node000004" class="edge">
<title>Node3&#45;&gt;Node4</title>
<g id="a_edge3_Node000003_Node000004"><a xlink:title=" ">
<path fill="none" stroke="#63b8ff" d="M199.9,-55.59C181.41,-47.21 154.08,-34.8 132.93,-25.21"/>
<polygon fill="#63b8ff" stroke="#63b8ff" points="134.45,-22.05 123.89,-21.1 131.55,-28.42 134.45,-22.05"/>
</a>
</g>
</g>
<!-- Node5 -->
<g id="Node000005" class="node">
<title>Node5</title>
<g id="a_Node000005"><a xlink:title=" ">
<polygon fill="#e0e0e0" stroke="#999999" points="270.62,-20 170.62,-20 170.62,0 270.62,0 270.62,-20"/>
<text text-anchor="middle" x="220.62" y="-6.5" font-family="Helvetica,sans-Serif" font-size="10.00">Poco/JWT/Token.h</text>
</a>
</g>
</g>
<!-- Node3&#45;&gt;Node5 -->
<g id="edge4_Node000003_Node000005" class="edge">
<title>Node3&#45;&gt;Node5</title>
<g id="a_edge4_Node000003_Node000005"><a xlink:title=" ">
<path fill="none" stroke="#63b8ff" d="M220.62,-55.59C220.62,-49.01 220.62,-39.96 220.62,-31.73"/>
<polygon fill="#63b8ff" stroke="#63b8ff" points="224.13,-31.81 220.63,-21.81 217.13,-31.81 224.13,-31.81"/>
</a>
</g>
</g>
<!-- Node6 -->
<g id="Node000006" class="node">
<title>Node6</title>
<g id="a_Node000006"><a xlink:title=" ">
<polygon fill="#e0e0e0" stroke="#999999" points="448.62,-20 288.62,-20 288.62,0 448.62,0 448.62,-20"/>
<text text-anchor="middle" x="368.62" y="-6.5" font-family="Helvetica,sans-Serif" font-size="10.00">Poco/Net/HTTPServerRequest.h</text>
</a>
</g>
</g>
<!-- Node3&#45;&gt;Node6 -->
<g id="edge5_Node000003_Node000006" class="edge">
<title>Node3&#45;&gt;Node6</title>
<g id="a_edge5_Node000003_Node000006"><a xlink:title=" ">
<path fill="none" stroke="#63b8ff" d="M246.4,-55.59C270.03,-46.97 305.27,-34.12 331.84,-24.42"/>
<polygon fill="#63b8ff" stroke="#63b8ff" points="333.03,-27.71 341.22,-21 330.63,-21.14 333.03,-27.71"/>
</a>
</g>
</g>
</g>
</svg>
