<?xml version="1.0" encoding="UTF-8" standalone="no"?>
<!DOCTYPE svg PUBLIC "-//W3C//DTD SVG 1.1//EN"
 "http://www.w3.org/Graphics/SVG/1.1/DTD/svg11.dtd">
<!-- Generated by graphviz version 12.2.1 (0)
 -->
<!-- Title: src/bot_library/restapi/include/AuthUtils.hpp Pages: 1 -->
<svg width="406pt" height="96pt"
 viewBox="0.00 0.00 405.75 96.00" xmlns="http://www.w3.org/2000/svg" xmlns:xlink="http://www.w3.org/1999/xlink">
<g id="graph0" class="graph" transform="scale(1 1) rotate(0) translate(4 92)">
<title>src/bot_library/restapi/include/AuthUtils.hpp</title>
<!-- Node1 -->
<g id="Node000001" class="node">
<title>Node1</title>
<g id="a_Node000001"><a xlink:title=" ">
<polygon fill="#999999" stroke="#666666" points="225.75,-88 113.75,-88 113.75,-56 225.75,-56 225.75,-88"/>
<text text-anchor="start" x="121.75" y="-74.5" font-family="Helvetica,sans-Serif" font-size="10.00">src/bot_library/restapi</text>
<text text-anchor="middle" x="169.75" y="-62.5" font-family="Helvetica,sans-Serif" font-size="10.00">/include/AuthUtils.hpp</text>
</a>
</g>
</g>
<!-- Node2 -->
<g id="Node000002" class="node">
<title>Node2</title>
<g id="a_Node000002"><a xlink:title=" ">
<polygon fill="#e0e0e0" stroke="#999999" points="101.5,-20 0,-20 0,0 101.5,0 101.5,-20"/>
<text text-anchor="middle" x="50.75" y="-6.5" font-family="Helvetica,sans-Serif" font-size="10.00">Poco/JWT/Signer.h</text>
</a>
</g>
</g>
<!-- Node1&#45;&gt;Node2 -->
<g id="edge1_Node000001_Node000002" class="edge">
<title>Node1&#45;&gt;Node2</title>
<g id="a_edge1_Node000001_Node000002"><a xlink:title=" ">
<path fill="none" stroke="#63b8ff" d="M139.1,-55.55C120.77,-46.3 97.61,-34.63 79.6,-25.55"/>
<polygon fill="#63b8ff" stroke="#63b8ff" points="81.27,-22.47 70.76,-21.09 78.11,-28.72 81.27,-22.47"/>
</a>
</g>
</g>
<!-- Node3 -->
<g id="Node000003" class="node">
<title>Node3</title>
<g id="a_Node000003"><a xlink:title=" ">
<polygon fill="#e0e0e0" stroke="#999999" points="219.75,-20 119.75,-20 119.75,0 219.75,0 219.75,-20"/>
<text text-anchor="middle" x="169.75" y="-6.5" font-family="Helvetica,sans-Serif" font-size="10.00">Poco/JWT/Token.h</text>
</a>
</g>
</g>
<!-- Node1&#45;&gt;Node3 -->
<g id="edge2_Node000001_Node000003" class="edge">
<title>Node1&#45;&gt;Node3</title>
<g id="a_edge2_Node000001_Node000003"><a xlink:title=" ">
<path fill="none" stroke="#63b8ff" d="M169.75,-55.55C169.75,-48.34 169.75,-39.66 169.75,-31.88"/>
<polygon fill="#63b8ff" stroke="#63b8ff" points="173.25,-31.92 169.75,-21.92 166.25,-31.92 173.25,-31.92"/>
</a>
</g>
</g>
<!-- Node4 -->
<g id="Node000004" class="node">
<title>Node4</title>
<g id="a_Node000004"><a xlink:title=" ">
<polygon fill="#e0e0e0" stroke="#999999" points="397.75,-20 237.75,-20 237.75,0 397.75,0 397.75,-20"/>
<text text-anchor="middle" x="317.75" y="-6.5" font-family="Helvetica,sans-Serif" font-size="10.00">Poco/Net/HTTPServerRequest.h</text>
</a>
</g>
</g>
<!-- Node1&#45;&gt;Node4 -->
<g id="edge3_Node000001_Node000004" class="edge">
<title>Node1&#45;&gt;Node4</title>
<g id="a_edge3_Node000001_Node000004"><a xlink:title=" ">
<path fill="none" stroke="#63b8ff" d="M207.86,-55.55C231.42,-46 261.37,-33.86 284.05,-24.66"/>
<polygon fill="#63b8ff" stroke="#63b8ff" points="285.19,-27.98 293.14,-20.98 282.56,-21.49 285.19,-27.98"/>
</a>
</g>
</g>
</g>
</svg>
