<?xml version="1.0" encoding="UTF-8" standalone="no"?>
<!DOCTYPE svg PUBLIC "-//W3C//DTD SVG 1.1//EN"
 "http://www.w3.org/Graphics/SVG/1.1/DTD/svg11.dtd">
<!-- Generated by graphviz version 12.2.1 (0)
 -->
<!-- Title: src/bot_library/commands/auth/UserDTO.hpp Pages: 1 -->
<svg width="364pt" height="176pt"
 viewBox="0.00 0.00 364.12 176.00" xmlns="http://www.w3.org/2000/svg" xmlns:xlink="http://www.w3.org/1999/xlink">
<g id="graph0" class="graph" transform="scale(1 1) rotate(0) translate(4 172)">
<title>src/bot_library/commands/auth/UserDTO.hpp</title>
<!-- Node1 -->
<g id="Node000001" class="node">
<title>Node1</title>
<g id="a_Node000001"><a xlink:title=" ">
<polygon fill="#999999" stroke="#666666" points="236.12,-168 107.62,-168 107.62,-136 236.12,-136 236.12,-168"/>
<text text-anchor="start" x="115.62" y="-154.5" font-family="Helvetica,sans-Serif" font-size="10.00">src/bot_library/commands</text>
<text text-anchor="middle" x="171.88" y="-142.5" font-family="Helvetica,sans-Serif" font-size="10.00">/auth/UserDTO.hpp</text>
</a>
</g>
</g>
<!-- Node2 -->
<g id="Node000002" class="node">
<title>Node2</title>
<g id="a_Node000002"><a xlink:href="auth_2ChallengeBadgeCommand_8cpp.html" target="_top" xlink:title=" ">
<polygon fill="white" stroke="#666666" points="175.75,-32 0,-32 0,0 175.75,0 175.75,-32"/>
<text text-anchor="start" x="8" y="-18.5" font-family="Helvetica,sans-Serif" font-size="10.00">src/bot_library/commands</text>
<text text-anchor="middle" x="87.88" y="-6.5" font-family="Helvetica,sans-Serif" font-size="10.00">/auth/ChallengeBadgeCommand.cpp</text>
</a>
</g>
</g>
<!-- Node1&#45;&gt;Node2 -->
<g id="edge1_Node000001_Node000002" class="edge">
<title>Node1&#45;&gt;Node2</title>
<g id="a_edge1_Node000001_Node000002"><a xlink:title=" ">
<path fill="none" stroke="#63b8ff" d="M96.47,-142.7C69.7,-135.7 42.2,-122.99 25.88,-100 17.64,-88.4 19.8,-80.86 25.88,-68 32.96,-53 46.85,-40.93 59.7,-32.3"/>
<polygon fill="#63b8ff" stroke="#63b8ff" points="95.45,-146.06 105.98,-144.93 97.05,-139.24 95.45,-146.06"/>
</a>
</g>
</g>
<!-- Node3 -->
<g id="Node000003" class="node">
<title>Node3</title>
<g id="a_Node000003"><a xlink:href="auth_2UserDTO_8cpp.html" target="_top" xlink:title=" ">
<polygon fill="white" stroke="#666666" points="163.12,-100 34.62,-100 34.62,-68 163.12,-68 163.12,-100"/>
<text text-anchor="start" x="42.62" y="-86.5" font-family="Helvetica,sans-Serif" font-size="10.00">src/bot_library/commands</text>
<text text-anchor="middle" x="98.88" y="-74.5" font-family="Helvetica,sans-Serif" font-size="10.00">/auth/UserDTO.cpp</text>
</a>
</g>
</g>
<!-- Node1&#45;&gt;Node3 -->
<g id="edge2_Node000001_Node000003" class="edge">
<title>Node1&#45;&gt;Node3</title>
<g id="a_edge2_Node000001_Node000003"><a xlink:title=" ">
<path fill="none" stroke="#63b8ff" d="M146.49,-128.05C136.39,-118.92 125.05,-108.67 115.97,-100.45"/>
<polygon fill="#63b8ff" stroke="#63b8ff" points="144.06,-130.57 153.82,-134.68 148.75,-125.37 144.06,-130.57"/>
</a>
</g>
</g>
<!-- Node4 -->
<g id="Node000004" class="node">
<title>Node4</title>
<g id="a_Node000004"><a xlink:href="auth_2UserRepository_8cpp.html" target="_top" xlink:title=" ">
<polygon fill="white" stroke="#666666" points="356.12,-32 227.62,-32 227.62,0 356.12,0 356.12,-32"/>
<text text-anchor="start" x="235.62" y="-18.5" font-family="Helvetica,sans-Serif" font-size="10.00">src/bot_library/commands</text>
<text text-anchor="middle" x="291.88" y="-6.5" font-family="Helvetica,sans-Serif" font-size="10.00">/auth/UserRepository.cpp</text>
</a>
</g>
</g>
<!-- Node1&#45;&gt;Node4 -->
<g id="edge3_Node000001_Node000004" class="edge">
<title>Node1&#45;&gt;Node4</title>
<g id="a_edge3_Node000001_Node000004"><a xlink:title=" ">
<path fill="none" stroke="#63b8ff" d="M247.45,-142.92C274.5,-135.96 302.36,-123.21 318.88,-100 333.63,-79.26 317.39,-49.99 304.48,-32.33"/>
<polygon fill="#63b8ff" stroke="#63b8ff" points="246.78,-139.48 237.82,-145.14 248.35,-146.3 246.78,-139.48"/>
</a>
</g>
</g>
<!-- Node5 -->
<g id="Node000005" class="node">
<title>Node5</title>
<g id="a_Node000005"><a xlink:href="auth_2UserRepository_8hpp.html" target="_top" xlink:title=" ">
<polygon fill="white" stroke="#666666" points="310.12,-100 181.62,-100 181.62,-68 310.12,-68 310.12,-100"/>
<text text-anchor="start" x="189.62" y="-86.5" font-family="Helvetica,sans-Serif" font-size="10.00">src/bot_library/commands</text>
<text text-anchor="middle" x="245.88" y="-74.5" font-family="Helvetica,sans-Serif" font-size="10.00">/auth/UserRepository.hpp</text>
</a>
</g>
</g>
<!-- Node1&#45;&gt;Node5 -->
<g id="edge4_Node000001_Node000005" class="edge">
<title>Node1&#45;&gt;Node5</title>
<g id="a_edge4_Node000001_Node000005"><a xlink:title=" ">
<path fill="none" stroke="#63b8ff" d="M197.61,-128.05C207.84,-118.92 219.34,-108.67 228.55,-100.45"/>
<polygon fill="#63b8ff" stroke="#63b8ff" points="195.3,-125.42 190.17,-134.68 199.96,-130.64 195.3,-125.42"/>
</a>
</g>
</g>
<!-- Node5&#45;&gt;Node2 -->
<g id="edge5_Node000005_Node000002" class="edge">
<title>Node5&#45;&gt;Node2</title>
<g id="a_edge5_Node000005_Node000002"><a xlink:title=" ">
<path fill="none" stroke="#63b8ff" d="M198.38,-63.16C174.85,-53.33 146.88,-41.65 124.96,-32.49"/>
<polygon fill="#63b8ff" stroke="#63b8ff" points="196.86,-66.32 207.43,-66.94 199.56,-59.86 196.86,-66.32"/>
</a>
</g>
</g>
<!-- Node5&#45;&gt;Node4 -->
<g id="edge6_Node000005_Node000004" class="edge">
<title>Node5&#45;&gt;Node4</title>
<g id="a_edge6_Node000005_Node000004"><a xlink:title=" ">
<path fill="none" stroke="#63b8ff" d="M263.09,-58.3C269.19,-49.55 275.87,-39.96 281.26,-32.22"/>
<polygon fill="#63b8ff" stroke="#63b8ff" points="260.26,-56.25 257.41,-66.45 266,-60.25 260.26,-56.25"/>
</a>
</g>
</g>
</g>
</svg>
