<?xml version="1.0" encoding="UTF-8" standalone="no"?>
<!DOCTYPE svg PUBLIC "-//W3C//DTD SVG 1.1//EN"
 "http://www.w3.org/Graphics/SVG/1.1/DTD/svg11.dtd">
<!-- Generated by graphviz version 12.2.1 (0)
 -->
<!-- Title: src/bot_library/restapi/include/AuthUtils.hpp Pages: 1 -->
<svg width="680pt" height="96pt"
 viewBox="0.00 0.00 679.75 96.00" xmlns="http://www.w3.org/2000/svg" xmlns:xlink="http://www.w3.org/1999/xlink">
<g id="graph0" class="graph" transform="scale(1 1) rotate(0) translate(4 92)">
<title>src/bot_library/restapi/include/AuthUtils.hpp</title>
<!-- Node1 -->
<g id="Node000001" class="node">
<title>Node1</title>
<g id="a_Node000001"><a xlink:title=" ">
<polygon fill="#999999" stroke="#666666" points="375.75,-88 263.75,-88 263.75,-56 375.75,-56 375.75,-88"/>
<text text-anchor="start" x="271.75" y="-74.5" font-family="Helvetica,sans-Serif" font-size="10.00">src/bot_library/restapi</text>
<text text-anchor="middle" x="319.75" y="-62.5" font-family="Helvetica,sans-Serif" font-size="10.00">/include/AuthUtils.hpp</text>
</a>
</g>
</g>
<!-- Node2 -->
<g id="Node000002" class="node">
<title>Node2</title>
<g id="a_Node000002"><a xlink:title=" ">
<polygon fill="#e0e0e0" stroke="#999999" points="131.5,-20 0,-20 0,0 131.5,0 131.5,-20"/>
<text text-anchor="middle" x="65.75" y="-6.5" font-family="Helvetica,sans-Serif" font-size="10.00">Poco/HexBinaryEncoder.h</text>
</a>
</g>
</g>
<!-- Node1&#45;&gt;Node2 -->
<g id="edge1_Node000001_Node000002" class="edge">
<title>Node1&#45;&gt;Node2</title>
<g id="a_edge1_Node000001_Node000002"><a xlink:title=" ">
<path fill="none" stroke="#63b8ff" d="M263.38,-57.68C219.6,-47.34 159.4,-33.12 116.98,-23.1"/>
<polygon fill="#63b8ff" stroke="#63b8ff" points="117.8,-19.7 107.26,-20.81 116.19,-26.51 117.8,-19.7"/>
</a>
</g>
</g>
<!-- Node3 -->
<g id="Node000003" class="node">
<title>Node3</title>
<g id="a_Node000003"><a xlink:title=" ">
<polygon fill="#e0e0e0" stroke="#999999" points="251.5,-20 150,-20 150,0 251.5,0 251.5,-20"/>
<text text-anchor="middle" x="200.75" y="-6.5" font-family="Helvetica,sans-Serif" font-size="10.00">Poco/JWT/Signer.h</text>
</a>
</g>
</g>
<!-- Node1&#45;&gt;Node3 -->
<g id="edge2_Node000001_Node000003" class="edge">
<title>Node1&#45;&gt;Node3</title>
<g id="a_edge2_Node000001_Node000003"><a xlink:title=" ">
<path fill="none" stroke="#63b8ff" d="M289.1,-55.55C270.77,-46.3 247.61,-34.63 229.6,-25.55"/>
<polygon fill="#63b8ff" stroke="#63b8ff" points="231.27,-22.47 220.76,-21.09 228.11,-28.72 231.27,-22.47"/>
</a>
</g>
</g>
<!-- Node4 -->
<g id="Node000004" class="node">
<title>Node4</title>
<g id="a_Node000004"><a xlink:title=" ">
<polygon fill="#e0e0e0" stroke="#999999" points="369.75,-20 269.75,-20 269.75,0 369.75,0 369.75,-20"/>
<text text-anchor="middle" x="319.75" y="-6.5" font-family="Helvetica,sans-Serif" font-size="10.00">Poco/JWT/Token.h</text>
</a>
</g>
</g>
<!-- Node1&#45;&gt;Node4 -->
<g id="edge3_Node000001_Node000004" class="edge">
<title>Node1&#45;&gt;Node4</title>
<g id="a_edge3_Node000001_Node000004"><a xlink:title=" ">
<path fill="none" stroke="#63b8ff" d="M319.75,-55.55C319.75,-48.34 319.75,-39.66 319.75,-31.88"/>
<polygon fill="#63b8ff" stroke="#63b8ff" points="323.25,-31.92 319.75,-21.92 316.25,-31.92 323.25,-31.92"/>
</a>
</g>
</g>
<!-- Node5 -->
<g id="Node000005" class="node">
<title>Node5</title>
<g id="a_Node000005"><a xlink:title=" ">
<polygon fill="#e0e0e0" stroke="#999999" points="547.75,-20 387.75,-20 387.75,0 547.75,0 547.75,-20"/>
<text text-anchor="middle" x="467.75" y="-6.5" font-family="Helvetica,sans-Serif" font-size="10.00">Poco/Net/HTTPServerRequest.h</text>
</a>
</g>
</g>
<!-- Node1&#45;&gt;Node5 -->
<g id="edge4_Node000001_Node000005" class="edge">
<title>Node1&#45;&gt;Node5</title>
<g id="a_edge4_Node000001_Node000005"><a xlink:title=" ">
<path fill="none" stroke="#63b8ff" d="M357.86,-55.55C381.42,-46 411.37,-33.86 434.05,-24.66"/>
<polygon fill="#63b8ff" stroke="#63b8ff" points="435.19,-27.98 443.14,-20.98 432.56,-21.49 435.19,-27.98"/>
</a>
</g>
</g>
<!-- Node6 -->
<g id="Node000006" class="node">
<title>Node6</title>
<g id="a_Node000006"><a xlink:title=" ">
<polygon fill="#e0e0e0" stroke="#999999" points="671.75,-20 565.75,-20 565.75,0 671.75,0 671.75,-20"/>
<text text-anchor="middle" x="618.75" y="-6.5" font-family="Helvetica,sans-Serif" font-size="10.00">Poco/SHA2Engine.h</text>
</a>
</g>
</g>
<!-- Node1&#45;&gt;Node6 -->
<g id="edge5_Node000001_Node000006" class="edge">
<title>Node1&#45;&gt;Node6</title>
<g id="a_edge5_Node000001_Node000006"><a xlink:title=" ">
<path fill="none" stroke="#63b8ff" d="M375.99,-59.71C428.74,-49.13 507.28,-33.37 560.63,-22.66"/>
<polygon fill="#63b8ff" stroke="#63b8ff" points="561.01,-26.16 570.13,-20.76 559.64,-19.29 561.01,-26.16"/>
</a>
</g>
</g>
</g>
</svg>
