<?xml version="1.0" encoding="UTF-8" standalone="no"?>
<!DOCTYPE svg PUBLIC "-//W3C//DTD SVG 1.1//EN"
 "http://www.w3.org/Graphics/SVG/1.1/DTD/svg11.dtd">
<!-- Generated by graphviz version 16.1.0 (0)
 -->
<!-- Title: src/bot_library/restapi/AuthHandler.cpp Pages: 1 -->
<svg width="1352pt" height="320pt"
 viewBox="0.00 0.00 1352.00 320.00" xmlns="http://www.w3.org/2000/svg" xmlns:xlink="http://www.w3.org/1999/xlink">
<g id="graph0" class="graph" transform="scale(1 1) rotate(0) translate(4 316)">
<title>src/bot_library/restapi/AuthHandler.cpp</title>
<!-- Node1 -->
<g id="Node000001" class="node">
<title>Node1</title>
<g id="a_Node000001"><a xlink:title=" ">
<polygon fill="#999999" stroke="#666666" points="558.58,-312 448.83,-312 448.83,-280 558.58,-280 558.58,-312"/>
<text xml:space="preserve" text-anchor="start" x="456.83" y="-298.5" font-family="Helvetica,sans-Serif" font-size="10.00">src/bot_library/restapi</text>
<text xml:space="preserve" text-anchor="middle" x="503.71" y="-286.5" font-family="Helvetica,sans-Serif" font-size="10.00">/AuthHandler.cpp</text>
</a>
</g>
</g>
<!-- Node2 -->
<g id="Node000002" class="node">
<title>Node2</title>
<g id="a_Node000002"><a xlink:title=" ">
<polygon fill="#e0e0e0" stroke="#999999" points="121.83,-188 13.58,-188 13.58,-168 121.83,-168 121.83,-188"/>
<text xml:space="preserve" text-anchor="middle" x="67.71" y="-174.5" font-family="Helvetica,sans-Serif" font-size="10.00">Poco/JSON/Object.h</text>
</a>
</g>
</g>
<!-- Node1&#45;&gt;Node2 -->
<g id="edge1_Node000001_Node000002" class="edge">
<title>Node1&#45;&gt;Node2</title>
<g id="a_edge1_Node000001_Node000002"><a xlink:title=" ">
<path fill="none" stroke="#63b8ff" d="M448.36,-295.93C376.37,-295.19 248.09,-287.13 148.71,-244 123.26,-232.96 99.15,-211.72 83.96,-196.52"/>
<polygon fill="#63b8ff" stroke="#63b8ff" points="86.62,-194.24 77.15,-189.49 81.59,-199.11 86.62,-194.24"/>
</a>
</g>
</g>
<!-- Node3 -->
<g id="Node000003" class="node">
<title>Node3</title>
<g id="a_Node000003"><a xlink:title=" ">
<polygon fill="#e0e0e0" stroke="#999999" points="323.83,-188 215.58,-188 215.58,-168 323.83,-168 323.83,-188"/>
<text xml:space="preserve" text-anchor="middle" x="269.71" y="-174.5" font-family="Helvetica,sans-Serif" font-size="10.00">Poco/JSON/Parser.h</text>
</a>
</g>
</g>
<!-- Node1&#45;&gt;Node3 -->
<g id="edge2_Node000001_Node000003" class="edge">
<title>Node1&#45;&gt;Node3</title>
<g id="a_edge2_Node000001_Node000003"><a xlink:title=" ">
<path fill="none" stroke="#63b8ff" d="M472.63,-279.6C427.15,-257.05 343.06,-215.36 298.76,-193.4"/>
<polygon fill="#63b8ff" stroke="#63b8ff" points="300.52,-190.37 290.01,-189.07 297.41,-196.64 300.52,-190.37"/>
</a>
</g>
</g>
<!-- Node4 -->
<g id="Node000004" class="node">
<title>Node4</title>
<g id="a_Node000004"><a xlink:href="AuthHandler_8hpp.html" target="_top" xlink:title=" ">
<polygon fill="white" stroke="#666666" points="740.08,-244 651.33,-244 651.33,-224 740.08,-224 740.08,-244"/>
<text xml:space="preserve" text-anchor="middle" x="695.71" y="-230.5" font-family="Helvetica,sans-Serif" font-size="10.00">AuthHandler.hpp</text>
</a>
</g>
</g>
<!-- Node1&#45;&gt;Node4 -->
<g id="edge3_Node000001_Node000004" class="edge">
<title>Node1&#45;&gt;Node4</title>
<g id="a_edge3_Node000001_Node000004"><a xlink:title=" ">
<path fill="none" stroke="#63b8ff" d="M553.15,-279.55C584.58,-269.73 624.79,-257.16 654.49,-247.88"/>
<polygon fill="#63b8ff" stroke="#63b8ff" points="655.37,-251.27 663.87,-244.95 653.28,-244.59 655.37,-251.27"/>
</a>
</g>
</g>
<!-- Node10 -->
<g id="Node000010" class="node">
<title>Node10</title>
<g id="a_Node000010"><a xlink:title=" ">
<polygon fill="#e0e0e0" stroke="#999999" points="965.71,-132 805.71,-132 805.71,-112 965.71,-112 965.71,-132"/>
<text xml:space="preserve" text-anchor="middle" x="885.71" y="-118.5" font-family="Helvetica,sans-Serif" font-size="10.00">Poco/Net/HTTPServerRequest.h</text>
</a>
</g>
</g>
<!-- Node1&#45;&gt;Node10 -->
<g id="edge31_Node000001_Node000010" class="edge">
<title>Node1&#45;&gt;Node10</title>
<g id="a_edge31_Node000001_Node000010"><a xlink:title=" ">
<path fill="none" stroke="#63b8ff" d="M558.75,-289.57C662.94,-278.02 882.44,-247.07 925.71,-188 937.29,-172.18 922.12,-152.94 907.26,-139.51"/>
<polygon fill="#63b8ff" stroke="#63b8ff" points="909.8,-137.08 899.9,-133.32 905.3,-142.44 909.8,-137.08"/>
</a>
</g>
</g>
<!-- Node11 -->
<g id="Node000011" class="node">
<title>Node11</title>
<g id="a_Node000011"><a xlink:href="JWTUtils_8hpp.html" target="_top" xlink:title=" ">
<polygon fill="white" stroke="#666666" points="101.71,-244 25.71,-244 25.71,-224 101.71,-224 101.71,-244"/>
<text xml:space="preserve" text-anchor="middle" x="63.71" y="-230.5" font-family="Helvetica,sans-Serif" font-size="10.00">JWTUtils.hpp</text>
</a>
</g>
</g>
<!-- Node1&#45;&gt;Node11 -->
<g id="edge10_Node000001_Node000011" class="edge">
<title>Node1&#45;&gt;Node11</title>
<g id="a_edge10_Node000001_Node000011"><a xlink:title=" ">
<path fill="none" stroke="#63b8ff" d="M448.35,-288.44C372.98,-279.35 233.92,-261.99 115.71,-244 114.87,-243.87 114.03,-243.74 113.19,-243.61"/>
<polygon fill="#63b8ff" stroke="#63b8ff" points="113.94,-240.19 103.51,-242.05 112.82,-247.1 113.94,-240.19"/>
</a>
</g>
</g>
<!-- Node12 -->
<g id="Node000012" class="node">
<title>Node12</title>
<g id="a_Node000012"><a xlink:href="Secrets_8hpp.html" target="_top" xlink:title=" ">
<polygon fill="white" stroke="#666666" points="225.96,-244 157.46,-244 157.46,-224 225.96,-224 225.96,-244"/>
<text xml:space="preserve" text-anchor="middle" x="191.71" y="-230.5" font-family="Helvetica,sans-Serif" font-size="10.00">Secrets.hpp</text>
</a>
</g>
</g>
<!-- Node1&#45;&gt;Node12 -->
<g id="edge13_Node000001_Node000012" class="edge">
<title>Node1&#45;&gt;Node12</title>
<g id="a_edge13_Node000001_Node000012"><a xlink:title=" ">
<path fill="none" stroke="#63b8ff" d="M448.64,-284.41C388.58,-272.86 293.53,-254.58 237.42,-243.79"/>
<polygon fill="#63b8ff" stroke="#63b8ff" points="238.38,-240.41 227.89,-241.96 237.05,-247.28 238.38,-240.41"/>
</a>
</g>
</g>
<!-- Node13 -->
<g id="Node000013" class="node">
<title>Node13</title>
<g id="a_Node000013"><a xlink:href="WebUserDTO_8hpp.html" target="_top" xlink:title=" ">
<polygon fill="white" stroke="#666666" points="437.83,-188 341.58,-188 341.58,-168 437.83,-168 437.83,-188"/>
<text xml:space="preserve" text-anchor="middle" x="389.71" y="-174.5" font-family="Helvetica,sans-Serif" font-size="10.00">WebUserDTO.hpp</text>
</a>
</g>
</g>
<!-- Node1&#45;&gt;Node13 -->
<g id="edge18_Node000001_Node000013" class="edge">
<title>Node1&#45;&gt;Node13</title>
<g id="a_edge18_Node000001_Node000013"><a xlink:title=" ">
<path fill="none" stroke="#63b8ff" d="M478.4,-279.66C464.3,-270.39 446.97,-257.73 433.71,-244 420.26,-230.08 408.19,-211.6 400.11,-197.9"/>
<polygon fill="#63b8ff" stroke="#63b8ff" points="403.27,-196.39 395.28,-189.44 397.19,-199.86 403.27,-196.39"/>
</a>
</g>
</g>
<!-- Node17 -->
<g id="Node000017" class="node">
<title>Node17</title>
<g id="a_Node000017"><a xlink:href="WebUserRepository_8hpp.html" target="_top" xlink:title=" ">
<polygon fill="white" stroke="#666666" points="564.58,-244 442.83,-244 442.83,-224 564.58,-224 564.58,-244"/>
<text xml:space="preserve" text-anchor="middle" x="503.71" y="-230.5" font-family="Helvetica,sans-Serif" font-size="10.00">WebUserRepository.hpp</text>
</a>
</g>
</g>
<!-- Node1&#45;&gt;Node17 -->
<g id="edge23_Node000001_Node000017" class="edge">
<title>Node1&#45;&gt;Node17</title>
<g id="a_edge23_Node000001_Node000017"><a xlink:title=" ">
<path fill="none" stroke="#63b8ff" d="M503.71,-279.55C503.71,-272.34 503.71,-263.66 503.71,-255.88"/>
<polygon fill="#63b8ff" stroke="#63b8ff" points="507.21,-255.92 503.71,-245.92 500.21,-255.92 507.21,-255.92"/>
</a>
</g>
</g>
<!-- Node20 -->
<g id="Node000020" class="node">
<title>Node20</title>
<g id="a_Node000020"><a xlink:title=" ">
<polygon fill="#e0e0e0" stroke="#999999" points="1001.71,-244 883.71,-244 883.71,-224 1001.71,-224 1001.71,-244"/>
<text xml:space="preserve" text-anchor="middle" x="942.71" y="-230.5" font-family="Helvetica,sans-Serif" font-size="10.00">Poco/Net/HTMLForm.h</text>
</a>
</g>
</g>
<!-- Node1&#45;&gt;Node20 -->
<g id="edge29_Node000001_Node000020" class="edge">
<title>Node1&#45;&gt;Node20</title>
<g id="a_edge29_Node000001_Node000020"><a xlink:title=" ">
<path fill="none" stroke="#63b8ff" d="M558.86,-287.46C638.2,-276.62 784.57,-256.61 871.84,-244.69"/>
<polygon fill="#63b8ff" stroke="#63b8ff" points="872.29,-248.16 881.72,-243.33 871.34,-241.22 872.29,-248.16"/>
</a>
</g>
</g>
<!-- Node21 -->
<g id="Node000021" class="node">
<title>Node21</title>
<g id="a_Node000021"><a xlink:title=" ">
<polygon fill="#e0e0e0" stroke="#999999" points="1159.21,-244 1020.21,-244 1020.21,-224 1159.21,-224 1159.21,-244"/>
<text xml:space="preserve" text-anchor="middle" x="1089.71" y="-230.5" font-family="Helvetica,sans-Serif" font-size="10.00">Poco/Net/HTTPResponse.h</text>
</a>
</g>
</g>
<!-- Node1&#45;&gt;Node21 -->
<g id="edge30_Node000001_Node000021" class="edge">
<title>Node1&#45;&gt;Node21</title>
<g id="a_edge30_Node000001_Node000021"><a xlink:title=" ">
<path fill="none" stroke="#63b8ff" d="M558.87,-289.69C650.03,-280.87 838.13,-262.43 1008.71,-244.2"/>
<polygon fill="#63b8ff" stroke="#63b8ff" points="1008.85,-247.71 1018.42,-243.16 1008.1,-240.75 1008.85,-247.71"/>
</a>
</g>
</g>
<!-- Node22 -->
<g id="Node000022" class="node">
<title>Node22</title>
<g id="a_Node000022"><a xlink:title=" ">
<polygon fill="#e0e0e0" stroke="#999999" points="1344.46,-244 1176.96,-244 1176.96,-224 1344.46,-224 1344.46,-244"/>
<text xml:space="preserve" text-anchor="middle" x="1260.71" y="-230.5" font-family="Helvetica,sans-Serif" font-size="10.00">Poco/Net/HTTPServerResponse.h</text>
</a>
</g>
</g>
<!-- Node1&#45;&gt;Node22 -->
<g id="edge32_Node000001_Node000022" class="edge">
<title>Node1&#45;&gt;Node22</title>
<g id="a_edge32_Node000001_Node000022"><a xlink:title=" ">
<path fill="none" stroke="#63b8ff" d="M558.91,-291.16C671.08,-283.27 933.96,-264.35 1165.15,-244.3"/>
<polygon fill="#63b8ff" stroke="#63b8ff" points="1165.32,-247.8 1174.98,-243.44 1164.71,-240.82 1165.32,-247.8"/>
</a>
</g>
</g>
<!-- Node5 -->
<g id="Node000005" class="node">
<title>Node5</title>
<g id="a_Node000005"><a xlink:title=" ">
<polygon fill="#e0e0e0" stroke="#999999" points="916.33,-188 751.08,-188 751.08,-168 916.33,-168 916.33,-188"/>
<text xml:space="preserve" text-anchor="middle" x="833.71" y="-174.5" font-family="Helvetica,sans-Serif" font-size="10.00">Poco/Net/HTTPRequestHandler.h</text>
</a>
</g>
</g>
<!-- Node4&#45;&gt;Node5 -->
<g id="edge4_Node000004_Node000005" class="edge">
<title>Node4&#45;&gt;Node5</title>
<g id="a_edge4_Node000004_Node000005"><a xlink:title=" ">
<path fill="none" stroke="#63b8ff" d="M719.74,-223.59C741.67,-215.01 774.33,-202.23 799.08,-192.55"/>
<polygon fill="#63b8ff" stroke="#63b8ff" points="800.03,-195.93 808.07,-189.03 797.48,-189.42 800.03,-195.93"/>
</a>
</g>
</g>
<!-- Node6 -->
<g id="Node000006" class="node">
<title>Node6</title>
<g id="a_Node000006"><a xlink:href="AuthUtils_8hpp.html" target="_top" xlink:title=" ">
<polygon fill="white" stroke="#666666" points="733.33,-188 658.08,-188 658.08,-168 733.33,-168 733.33,-188"/>
<text xml:space="preserve" text-anchor="middle" x="695.71" y="-174.5" font-family="Helvetica,sans-Serif" font-size="10.00">AuthUtils.hpp</text>
</a>
</g>
</g>
<!-- Node4&#45;&gt;Node6 -->
<g id="edge5_Node000004_Node000006" class="edge">
<title>Node4&#45;&gt;Node6</title>
<g id="a_edge5_Node000004_Node000006"><a xlink:title=" ">
<path fill="none" stroke="#63b8ff" d="M695.71,-223.59C695.71,-217.01 695.71,-207.96 695.71,-199.73"/>
<polygon fill="#63b8ff" stroke="#63b8ff" points="699.21,-199.81 695.71,-189.81 692.21,-199.81 699.21,-199.81"/>
</a>
</g>
</g>
<!-- Node7 -->
<g id="Node000007" class="node">
<title>Node7</title>
<g id="a_Node000007"><a xlink:title=" ">
<polygon fill="#e0e0e0" stroke="#999999" points="586.83,-132 538.58,-132 538.58,-112 586.83,-112 586.83,-132"/>
<text xml:space="preserve" text-anchor="middle" x="562.71" y="-118.5" font-family="Helvetica,sans-Serif" font-size="10.00">cstddef</text>
</a>
</g>
</g>
<!-- Node6&#45;&gt;Node7 -->
<g id="edge6_Node000006_Node000007" class="edge">
<title>Node6&#45;&gt;Node7</title>
<g id="a_edge6_Node000006_Node000007"><a xlink:title=" ">
<path fill="none" stroke="#63b8ff" d="M672.54,-167.59C651.5,-159.05 620.21,-146.35 596.4,-136.68"/>
<polygon fill="#63b8ff" stroke="#63b8ff" points="598.04,-133.57 587.46,-133.05 595.4,-140.05 598.04,-133.57"/>
</a>
</g>
</g>
<!-- Node8 -->
<g id="Node000008" class="node">
<title>Node8</title>
<g id="a_Node000008"><a xlink:title=" ">
<polygon fill="#e0e0e0" stroke="#999999" points="243.71,-132 203.71,-132 203.71,-112 243.71,-112 243.71,-132"/>
<text xml:space="preserve" text-anchor="middle" x="223.71" y="-118.5" font-family="Helvetica,sans-Serif" font-size="10.00">string</text>
</a>
</g>
</g>
<!-- Node6&#45;&gt;Node8 -->
<g id="edge7_Node000006_Node000008" class="edge">
<title>Node6&#45;&gt;Node8</title>
<g id="a_edge7_Node000006_Node000008"><a xlink:title=" ">
<path fill="none" stroke="#63b8ff" d="M657.79,-169.46C654.72,-168.93 651.66,-168.44 648.71,-168 572.54,-156.7 340.54,-134.14 255.44,-126.01"/>
<polygon fill="#63b8ff" stroke="#63b8ff" points="255.78,-122.53 245.49,-125.06 255.11,-129.5 255.78,-122.53"/>
</a>
</g>
</g>
<!-- Node9 -->
<g id="Node000009" class="node">
<title>Node9</title>
<g id="a_Node000009"><a xlink:title=" ">
<polygon fill="#e0e0e0" stroke="#999999" points="728.46,-132 662.96,-132 662.96,-112 728.46,-112 728.46,-132"/>
<text xml:space="preserve" text-anchor="middle" x="695.71" y="-118.5" font-family="Helvetica,sans-Serif" font-size="10.00">string_view</text>
</a>
</g>
</g>
<!-- Node6&#45;&gt;Node9 -->
<g id="edge8_Node000006_Node000009" class="edge">
<title>Node6&#45;&gt;Node9</title>
<g id="a_edge8_Node000006_Node000009"><a xlink:title=" ">
<path fill="none" stroke="#63b8ff" d="M695.71,-167.59C695.71,-161.01 695.71,-151.96 695.71,-143.73"/>
<polygon fill="#63b8ff" stroke="#63b8ff" points="699.21,-143.81 695.71,-133.81 692.21,-143.81 699.21,-143.81"/>
</a>
</g>
</g>
<!-- Node6&#45;&gt;Node10 -->
<g id="edge9_Node000006_Node000010" class="edge">
<title>Node6&#45;&gt;Node10</title>
<g id="a_edge9_Node000006_Node000010"><a xlink:title=" ">
<path fill="none" stroke="#63b8ff" d="M728.8,-167.59C760.08,-158.71 807.21,-145.31 841.65,-135.52"/>
<polygon fill="#63b8ff" stroke="#63b8ff" points="842.23,-138.99 850.9,-132.89 840.32,-132.26 842.23,-138.99"/>
</a>
</g>
</g>
<!-- Node11&#45;&gt;Node2 -->
<g id="edge11_Node000011_Node000002" class="edge">
<title>Node11&#45;&gt;Node2</title>
<g id="a_edge11_Node000011_Node000002"><a xlink:title=" ">
<path fill="none" stroke="#63b8ff" d="M64.4,-223.59C64.89,-217.01 65.56,-207.96 66.17,-199.73"/>
<polygon fill="#63b8ff" stroke="#63b8ff" points="69.66,-200.04 66.9,-189.81 62.68,-199.52 69.66,-200.04"/>
</a>
</g>
</g>
<!-- Node11&#45;&gt;Node8 -->
<g id="edge12_Node000011_Node000008" class="edge">
<title>Node11&#45;&gt;Node8</title>
<g id="a_edge12_Node000011_Node000008"><a xlink:title=" ">
<path fill="none" stroke="#63b8ff" d="M44.26,-223.59C21.23,-211.19 -12.05,-188.55 4.71,-168 27.97,-139.47 136.96,-128.52 191.89,-124.75"/>
<polygon fill="#63b8ff" stroke="#63b8ff" points="192.1,-128.25 201.86,-124.11 191.65,-121.26 192.1,-128.25"/>
</a>
</g>
</g>
<!-- Node12&#45;&gt;Node2 -->
<g id="edge14_Node000012_Node000002" class="edge">
<title>Node12&#45;&gt;Node2</title>
<g id="a_edge14_Node000012_Node000002"><a xlink:title=" ">
<path fill="none" stroke="#63b8ff" d="M170.11,-223.59C150.76,-215.17 122.1,-202.69 100.02,-193.07"/>
<polygon fill="#63b8ff" stroke="#63b8ff" points="101.43,-189.87 90.86,-189.08 98.63,-196.29 101.43,-189.87"/>
</a>
</g>
</g>
<!-- Node12&#45;&gt;Node3 -->
<g id="edge15_Node000012_Node000003" class="edge">
<title>Node12&#45;&gt;Node3</title>
<g id="a_edge15_Node000012_Node000003"><a xlink:title=" ">
<path fill="none" stroke="#63b8ff" d="M205.29,-223.59C216.74,-215.67 233.37,-204.16 246.86,-194.82"/>
<polygon fill="#63b8ff" stroke="#63b8ff" points="248.54,-197.91 254.77,-189.34 244.55,-192.16 248.54,-197.91"/>
</a>
</g>
</g>
<!-- Node12&#45;&gt;Node7 -->
<g id="edge16_Node000012_Node000007" class="edge">
<title>Node12&#45;&gt;Node7</title>
<g id="a_edge16_Node000012_Node000007"><a xlink:title=" ">
<path fill="none" stroke="#63b8ff" d="M190.85,-223.86C190.06,-209.62 190.9,-182.29 206.71,-168 218.53,-157.32 438.84,-134.97 526.84,-126.42"/>
<polygon fill="#63b8ff" stroke="#63b8ff" points="526.98,-129.93 536.59,-125.48 526.3,-122.96 526.98,-129.93"/>
</a>
</g>
</g>
<!-- Node12&#45;&gt;Node8 -->
<g id="edge17_Node000012_Node000008" class="edge">
<title>Node12&#45;&gt;Node8</title>
<g id="a_edge17_Node000012_Node000008"><a xlink:title=" ">
<path fill="none" stroke="#63b8ff" d="M185.35,-223.88C177.24,-211.03 165.23,-187.04 173.71,-168 178.84,-156.48 188.54,-146.67 198.04,-139.18"/>
<polygon fill="#63b8ff" stroke="#63b8ff" points="200.02,-142.07 206.07,-133.37 195.92,-136.39 200.02,-142.07"/>
</a>
</g>
</g>
<!-- Node13&#45;&gt;Node8 -->
<g id="edge22_Node000013_Node000008" class="edge">
<title>Node13&#45;&gt;Node8</title>
<g id="a_edge22_Node000013_Node000008"><a xlink:title=" ">
<path fill="none" stroke="#63b8ff" d="M360.79,-167.59C331.14,-157.95 285.17,-143 254.76,-133.1"/>
<polygon fill="#63b8ff" stroke="#63b8ff" points="255.97,-129.81 245.38,-130.05 253.8,-136.47 255.97,-129.81"/>
</a>
</g>
</g>
<!-- Node14 -->
<g id="Node000014" class="node">
<title>Node14</title>
<g id="a_Node000014"><a xlink:href="RowDTOAdapter_8hpp.html" target="_top" xlink:title=" ">
<polygon fill="white" stroke="#666666" points="444.58,-132 334.83,-132 334.83,-112 444.58,-112 444.58,-132"/>
<text xml:space="preserve" text-anchor="middle" x="389.71" y="-118.5" font-family="Helvetica,sans-Serif" font-size="10.00">RowDTOAdapter.hpp</text>
</a>
</g>
</g>
<!-- Node13&#45;&gt;Node14 -->
<g id="edge19_Node000013_Node000014" class="edge">
<title>Node13&#45;&gt;Node14</title>
<g id="a_edge19_Node000013_Node000014"><a xlink:title=" ">
<path fill="none" stroke="#63b8ff" d="M389.71,-167.59C389.71,-161.01 389.71,-151.96 389.71,-143.73"/>
<polygon fill="#63b8ff" stroke="#63b8ff" points="393.21,-143.81 389.71,-133.81 386.21,-143.81 393.21,-143.81"/>
</a>
</g>
</g>
<!-- Node15 -->
<g id="Node000015" class="node">
<title>Node15</title>
<g id="a_Node000015"><a xlink:href="DatabaseBackend_8hpp.html" target="_top" xlink:title=" ">
<polygon fill="white" stroke="#666666" points="447.21,-76 332.21,-76 332.21,-56 447.21,-56 447.21,-76"/>
<text xml:space="preserve" text-anchor="middle" x="389.71" y="-62.5" font-family="Helvetica,sans-Serif" font-size="10.00">DatabaseBackend.hpp</text>
</a>
</g>
</g>
<!-- Node14&#45;&gt;Node15 -->
<g id="edge20_Node000014_Node000015" class="edge">
<title>Node14&#45;&gt;Node15</title>
<g id="a_edge20_Node000014_Node000015"><a xlink:title=" ">
<path fill="none" stroke="#63b8ff" d="M389.71,-111.59C389.71,-105.01 389.71,-95.96 389.71,-87.73"/>
<polygon fill="#63b8ff" stroke="#63b8ff" points="393.21,-87.81 389.71,-77.81 386.21,-87.81 393.21,-87.81"/>
</a>
</g>
</g>
<!-- Node16 -->
<g id="Node000016" class="node">
<title>Node16</title>
<g id="a_Node000016"><a xlink:title=" ">
<polygon fill="#e0e0e0" stroke="#999999" points="420.21,-20 359.21,-20 359.21,0 420.21,0 420.21,-20"/>
<text xml:space="preserve" text-anchor="middle" x="389.71" y="-6.5" font-family="Helvetica,sans-Serif" font-size="10.00">pqxx/pqxx</text>
</a>
</g>
</g>
<!-- Node15&#45;&gt;Node16 -->
<g id="edge21_Node000015_Node000016" class="edge">
<title>Node15&#45;&gt;Node16</title>
<g id="a_edge21_Node000015_Node000016"><a xlink:title=" ">
<path fill="none" stroke="#63b8ff" d="M389.71,-55.59C389.71,-49.01 389.71,-39.96 389.71,-31.73"/>
<polygon fill="#63b8ff" stroke="#63b8ff" points="393.21,-31.81 389.71,-21.81 386.21,-31.81 393.21,-31.81"/>
</a>
</g>
</g>
<!-- Node17&#45;&gt;Node7 -->
<g id="edge26_Node000017_Node000007" class="edge">
<title>Node17&#45;&gt;Node7</title>
<g id="a_edge26_Node000017_Node000007"><a xlink:title=" ">
<path fill="none" stroke="#63b8ff" d="M508.74,-223.62C518.36,-205.68 539.55,-166.17 552.33,-142.35"/>
<polygon fill="#63b8ff" stroke="#63b8ff" points="555.33,-144.16 556.97,-133.69 549.16,-140.85 555.33,-144.16"/>
</a>
</g>
</g>
<!-- Node17&#45;&gt;Node13 -->
<g id="edge28_Node000017_Node000013" class="edge">
<title>Node17&#45;&gt;Node13</title>
<g id="a_edge28_Node000017_Node000013"><a xlink:title=" ">
<path fill="none" stroke="#63b8ff" d="M483.85,-223.59C466.22,-215.24 440.2,-202.92 419.98,-193.34"/>
<polygon fill="#63b8ff" stroke="#63b8ff" points="421.62,-190.25 411.09,-189.13 418.62,-196.57 421.62,-190.25"/>
</a>
</g>
</g>
<!-- Node18 -->
<g id="Node000018" class="node">
<title>Node18</title>
<g id="a_Node000018"><a xlink:href="IRepository_8hpp.html" target="_top" xlink:title=" ">
<polygon fill="white" stroke="#666666" points="639.83,-188 555.58,-188 555.58,-168 639.83,-168 639.83,-188"/>
<text xml:space="preserve" text-anchor="middle" x="597.71" y="-174.5" font-family="Helvetica,sans-Serif" font-size="10.00">IRepository.hpp</text>
</a>
</g>
</g>
<!-- Node17&#45;&gt;Node18 -->
<g id="edge24_Node000017_Node000018" class="edge">
<title>Node17&#45;&gt;Node18</title>
<g id="a_edge24_Node000017_Node000018"><a xlink:title=" ">
<path fill="none" stroke="#63b8ff" d="M520.08,-223.59C534.28,-215.44 555.09,-203.48 571.59,-194"/>
<polygon fill="#63b8ff" stroke="#63b8ff" points="572.96,-197.25 579.89,-189.23 569.48,-191.18 572.96,-197.25"/>
</a>
</g>
</g>
<!-- Node19 -->
<g id="Node000019" class="node">
<title>Node19</title>
<g id="a_Node000019"><a xlink:title=" ">
<polygon fill="#e0e0e0" stroke="#999999" points="499.21,-188 456.21,-188 456.21,-168 499.21,-168 499.21,-188"/>
<text xml:space="preserve" text-anchor="middle" x="477.71" y="-174.5" font-family="Helvetica,sans-Serif" font-size="10.00">vector</text>
</a>
</g>
</g>
<!-- Node17&#45;&gt;Node19 -->
<g id="edge27_Node000017_Node000019" class="edge">
<title>Node17&#45;&gt;Node19</title>
<g id="a_edge27_Node000017_Node000019"><a xlink:title=" ">
<path fill="none" stroke="#63b8ff" d="M499.18,-223.59C495.86,-216.7 491.24,-207.1 487.13,-198.57"/>
<polygon fill="#63b8ff" stroke="#63b8ff" points="490.33,-197.15 482.84,-189.66 484.02,-200.19 490.33,-197.15"/>
</a>
</g>
</g>
<!-- Node18&#45;&gt;Node7 -->
<g id="edge25_Node000018_Node000007" class="edge">
<title>Node18&#45;&gt;Node7</title>
<g id="a_edge25_Node000018_Node000007"><a xlink:title=" ">
<path fill="none" stroke="#63b8ff" d="M591.61,-167.59C586.99,-160.47 580.5,-150.45 574.84,-141.72"/>
<polygon fill="#63b8ff" stroke="#63b8ff" points="577.93,-140.06 569.56,-133.57 572.06,-143.86 577.93,-140.06"/>
</a>
</g>
</g>
</g>
</svg>
