<?xml version="1.0" encoding="UTF-8" standalone="no"?>
<!DOCTYPE svg PUBLIC "-//W3C//DTD SVG 1.1//EN"
 "http://www.w3.org/Graphics/SVG/1.1/DTD/svg11.dtd">
<!-- Generated by graphviz version 14.1.5 (0)
 -->
<!-- Title: src/bot_library/commands/portal/BlacklistCommand.cpp Pages: 1 -->
<svg width="1708pt" height="488pt"
 viewBox="0.00 0.00 1708.00 488.00" xmlns="http://www.w3.org/2000/svg" xmlns:xlink="http://www.w3.org/1999/xlink">
<g id="graph0" class="graph" transform="scale(1 1) rotate(0) translate(4 484)">
<title>src/bot_library/commands/portal/BlacklistCommand.cpp</title>
<!-- Node1 -->
<g id="Node000001" class="node">
<title>Node1</title>
<g id="a_Node000001"><a xlink:title=" ">
<polygon fill="#999999" stroke="#666666" points="1403.38,-480 1256.12,-480 1256.12,-448 1403.38,-448 1403.38,-480"/>
<text xml:space="preserve" text-anchor="start" x="1264.12" y="-466.5" font-family="Helvetica,sans-Serif" font-size="10.00">src/bot_library/commands</text>
<text xml:space="preserve" text-anchor="middle" x="1329.75" y="-454.5" font-family="Helvetica,sans-Serif" font-size="10.00">/portal/BlacklistCommand.cpp</text>
</a>
</g>
</g>
<!-- Node2 -->
<g id="Node000002" class="node">
<title>Node2</title>
<g id="a_Node000002"><a xlink:href="BlacklistCommand_8hpp.html" target="_top" xlink:title=" ">
<polygon fill="white" stroke="#666666" points="751.38,-412 634.12,-412 634.12,-392 751.38,-392 751.38,-412"/>
<text xml:space="preserve" text-anchor="middle" x="692.75" y="-398.5" font-family="Helvetica,sans-Serif" font-size="10.00">BlacklistCommand.hpp</text>
</a>
</g>
</g>
<!-- Node1&#45;&gt;Node2 -->
<g id="edge1_Node000001_Node000002" class="edge">
<title>Node1&#45;&gt;Node2</title>
<g id="a_edge1_Node000001_Node000002"><a xlink:title=" ">
<path fill="none" stroke="#63b8ff" d="M1255.74,-456.03C1131.88,-444.36 884.26,-421.04 762.97,-409.61"/>
<polygon fill="#63b8ff" stroke="#63b8ff" points="763.43,-406.14 753.14,-408.69 762.77,-413.11 763.43,-406.14"/>
</a>
</g>
</g>
<!-- Node4 -->
<g id="Node000004" class="node">
<title>Node4</title>
<g id="a_Node000004"><a xlink:href="Core_8hpp.html" target="_top" xlink:title=" ">
<polygon fill="white" stroke="#666666" points="793.62,-300 737.88,-300 737.88,-280 793.62,-280 793.62,-300"/>
<text xml:space="preserve" text-anchor="middle" x="765.75" y="-286.5" font-family="Helvetica,sans-Serif" font-size="10.00">Core.hpp</text>
</a>
</g>
</g>
<!-- Node1&#45;&gt;Node4 -->
<g id="edge68_Node000001_Node000004" class="edge">
<title>Node1&#45;&gt;Node4</title>
<g id="a_edge68_Node000001_Node000004"><a xlink:title=" ">
<path fill="none" stroke="#63b8ff" d="M1279.2,-447.58C1168.03,-413.68 904.3,-333.25 804.72,-302.89"/>
<polygon fill="#63b8ff" stroke="#63b8ff" points="805.99,-299.61 795.41,-300.04 803.95,-306.31 805.99,-299.61"/>
</a>
</g>
</g>
<!-- Node22 -->
<g id="Node000022" class="node">
<title>Node22</title>
<g id="a_Node000022"><a xlink:title=" ">
<polygon fill="#e0e0e0" stroke="#999999" points="1048.12,-188 965.38,-188 965.38,-168 1048.12,-168 1048.12,-188"/>
<text xml:space="preserve" text-anchor="middle" x="1006.75" y="-174.5" font-family="Helvetica,sans-Serif" font-size="10.00">appcommand.h</text>
</a>
</g>
</g>
<!-- Node1&#45;&gt;Node22 -->
<g id="edge56_Node000001_Node000022" class="edge">
<title>Node1&#45;&gt;Node22</title>
<g id="a_edge56_Node000001_Node000022"><a xlink:title=" ">
<path fill="none" stroke="#63b8ff" d="M1299.84,-447.7C1285.53,-439 1269.27,-426.86 1258.75,-412 1241.36,-387.44 1239.75,-377.1 1239.75,-347 1239.75,-347 1239.75,-347 1239.75,-289 1239.75,-248.59 1123.67,-210.42 1055.38,-191.47"/>
<polygon fill="#63b8ff" stroke="#63b8ff" points="1056.47,-188.14 1045.9,-188.88 1054.63,-194.89 1056.47,-188.14"/>
</a>
</g>
</g>
<!-- Node28 -->
<g id="Node000028" class="node">
<title>Node28</title>
<g id="a_Node000028"><a xlink:title=" ">
<polygon fill="#e0e0e0" stroke="#999999" points="1318,-412 1267.5,-412 1267.5,-392 1318,-392 1318,-412"/>
<text xml:space="preserve" text-anchor="middle" x="1292.75" y="-398.5" font-family="Helvetica,sans-Serif" font-size="10.00">colors.h</text>
</a>
</g>
</g>
<!-- Node1&#45;&gt;Node28 -->
<g id="edge57_Node000001_Node000028" class="edge">
<title>Node1&#45;&gt;Node28</title>
<g id="a_edge57_Node000001_Node000028"><a xlink:title=" ">
<path fill="none" stroke="#63b8ff" d="M1320.22,-447.55C1315.4,-439.74 1309.52,-430.19 1304.43,-421.94"/>
<polygon fill="#63b8ff" stroke="#63b8ff" points="1307.57,-420.37 1299.35,-413.7 1301.62,-424.05 1307.57,-420.37"/>
</a>
</g>
</g>
<!-- Node29 -->
<g id="Node000029" class="node">
<title>Node29</title>
<g id="a_Node000029"><a xlink:title=" ">
<polygon fill="#e0e0e0" stroke="#999999" points="1399.75,-412 1335.75,-412 1335.75,-392 1399.75,-392 1399.75,-412"/>
<text xml:space="preserve" text-anchor="middle" x="1367.75" y="-398.5" font-family="Helvetica,sans-Serif" font-size="10.00">message.h</text>
</a>
</g>
</g>
<!-- Node1&#45;&gt;Node29 -->
<g id="edge58_Node000001_Node000029" class="edge">
<title>Node1&#45;&gt;Node29</title>
<g id="a_edge58_Node000001_Node000029"><a xlink:title=" ">
<path fill="none" stroke="#63b8ff" d="M1339.54,-447.55C1344.48,-439.74 1350.53,-430.19 1355.76,-421.94"/>
<polygon fill="#63b8ff" stroke="#63b8ff" points="1358.59,-424.01 1360.98,-413.69 1352.67,-420.26 1358.59,-424.01"/>
</a>
</g>
</g>
<!-- Node30 -->
<g id="Node000030" class="node">
<title>Node30</title>
<g id="a_Node000030"><a xlink:title=" ">
<polygon fill="#e0e0e0" stroke="#999999" points="1486,-412 1417.5,-412 1417.5,-392 1486,-392 1486,-412"/>
<text xml:space="preserve" text-anchor="middle" x="1451.75" y="-398.5" font-family="Helvetica,sans-Serif" font-size="10.00">snowflake.h</text>
</a>
</g>
</g>
<!-- Node1&#45;&gt;Node30 -->
<g id="edge59_Node000001_Node000030" class="edge">
<title>Node1&#45;&gt;Node30</title>
<g id="a_edge59_Node000001_Node000030"><a xlink:title=" ">
<path fill="none" stroke="#63b8ff" d="M1361.17,-447.55C1380.05,-438.26 1403.93,-426.52 1422.43,-417.42"/>
<polygon fill="#63b8ff" stroke="#63b8ff" points="1423.83,-420.63 1431.26,-413.08 1420.74,-414.35 1423.83,-420.63"/>
</a>
</g>
</g>
<!-- Node31 -->
<g id="Node000031" class="node">
<title>Node31</title>
<g id="a_Node000031"><a xlink:href="BlacklistDTO_8hpp.html" target="_top" xlink:title=" ">
<polygon fill="white" stroke="#666666" points="1597.38,-188 1504.12,-188 1504.12,-168 1597.38,-168 1597.38,-188"/>
<text xml:space="preserve" text-anchor="middle" x="1550.75" y="-174.5" font-family="Helvetica,sans-Serif" font-size="10.00">BlacklistDTO.hpp</text>
</a>
</g>
</g>
<!-- Node1&#45;&gt;Node31 -->
<g id="edge60_Node000001_Node000031" class="edge">
<title>Node1&#45;&gt;Node31</title>
<g id="a_edge60_Node000001_Node000031"><a xlink:title=" ">
<path fill="none" stroke="#63b8ff" d="M1403.59,-455.81C1435.42,-449.13 1470.77,-436.35 1494.75,-412 1515.87,-390.55 1513.75,-377.1 1513.75,-347 1513.75,-347 1513.75,-347 1513.75,-289 1513.75,-255.87 1529.02,-219.91 1539.94,-198.43"/>
<polygon fill="#63b8ff" stroke="#63b8ff" points="1542.98,-200.16 1544.58,-189.69 1536.8,-196.88 1542.98,-200.16"/>
</a>
</g>
</g>
<!-- Node32 -->
<g id="Node000032" class="node">
<title>Node32</title>
<g id="a_Node000032"><a xlink:href="BlacklistRepository_8hpp.html" target="_top" xlink:title=" ">
<polygon fill="white" stroke="#666666" points="1660.12,-244 1541.38,-244 1541.38,-224 1660.12,-224 1660.12,-244"/>
<text xml:space="preserve" text-anchor="middle" x="1600.75" y="-230.5" font-family="Helvetica,sans-Serif" font-size="10.00">BlacklistRepository.hpp</text>
</a>
</g>
</g>
<!-- Node1&#45;&gt;Node32 -->
<g id="edge63_Node000001_Node000032" class="edge">
<title>Node1&#45;&gt;Node32</title>
<g id="a_edge63_Node000001_Node000032"><a xlink:title=" ">
<path fill="none" stroke="#63b8ff" d="M1403.52,-459.8C1444.35,-454.47 1493.6,-441.7 1527.75,-412 1575.54,-370.44 1592.63,-292.69 1598.25,-255.65"/>
<polygon fill="#63b8ff" stroke="#63b8ff" points="1601.7,-256.25 1599.58,-245.87 1594.76,-255.31 1601.7,-256.25"/>
</a>
</g>
</g>
<!-- Node3 -->
<g id="Node000003" class="node">
<title>Node3</title>
<g id="a_Node000003"><a xlink:href="Bot_8hpp.html" target="_top" xlink:title=" ">
<polygon fill="white" stroke="#666666" points="653.62,-356 603.88,-356 603.88,-336 653.62,-336 653.62,-356"/>
<text xml:space="preserve" text-anchor="middle" x="628.75" y="-342.5" font-family="Helvetica,sans-Serif" font-size="10.00">Bot.hpp</text>
</a>
</g>
</g>
<!-- Node2&#45;&gt;Node3 -->
<g id="edge2_Node000002_Node000003" class="edge">
<title>Node2&#45;&gt;Node3</title>
<g id="a_edge2_Node000002_Node000003"><a xlink:title=" ">
<path fill="none" stroke="#63b8ff" d="M681.6,-391.59C672.42,-383.85 659.2,-372.69 648.27,-363.47"/>
<polygon fill="#63b8ff" stroke="#63b8ff" points="650.83,-361.05 640.93,-357.27 646.31,-366.4 650.83,-361.05"/>
</a>
</g>
</g>
<!-- Node24 -->
<g id="Node000024" class="node">
<title>Node24</title>
<g id="a_Node000024"><a xlink:href="IMessageCommand_8hpp.html" target="_top" xlink:title=" ">
<polygon fill="white" stroke="#666666" points="735,-244 612.5,-244 612.5,-224 735,-224 735,-244"/>
<text xml:space="preserve" text-anchor="middle" x="673.75" y="-230.5" font-family="Helvetica,sans-Serif" font-size="10.00">IMessageCommand.hpp</text>
</a>
</g>
</g>
<!-- Node2&#45;&gt;Node24 -->
<g id="edge55_Node000002_Node000024" class="edge">
<title>Node2&#45;&gt;Node24</title>
<g id="a_edge55_Node000002_Node000024"><a xlink:title=" ">
<path fill="none" stroke="#63b8ff" d="M691.67,-391.6C688.68,-365.46 680.22,-291.48 676.08,-255.36"/>
<polygon fill="#63b8ff" stroke="#63b8ff" points="679.6,-255.34 674.99,-245.8 672.65,-256.13 679.6,-255.34"/>
</a>
</g>
</g>
<!-- Node3&#45;&gt;Node4 -->
<g id="edge3_Node000003_Node000004" class="edge">
<title>Node3&#45;&gt;Node4</title>
<g id="a_edge3_Node000003_Node000004"><a xlink:title=" ">
<path fill="none" stroke="#63b8ff" d="M652.61,-335.59C674.29,-327.05 706.52,-314.35 731.04,-304.68"/>
<polygon fill="#63b8ff" stroke="#63b8ff" points="732.27,-307.96 740.29,-301.03 729.71,-301.45 732.27,-307.96"/>
</a>
</g>
</g>
<!-- Node8 -->
<g id="Node000008" class="node">
<title>Node8</title>
<g id="a_Node000008"><a xlink:title=" ">
<polygon fill="#e0e0e0" stroke="#999999" points="1494.75,-132 1454.75,-132 1454.75,-112 1494.75,-112 1494.75,-132"/>
<text xml:space="preserve" text-anchor="middle" x="1474.75" y="-118.5" font-family="Helvetica,sans-Serif" font-size="10.00">string</text>
</a>
</g>
</g>
<!-- Node3&#45;&gt;Node8 -->
<g id="edge53_Node000003_Node000008" class="edge">
<title>Node3&#45;&gt;Node8</title>
<g id="a_edge53_Node000003_Node000008"><a xlink:title=" ">
<path fill="none" stroke="#63b8ff" d="M654.07,-343.6C769.73,-336.89 1248.01,-305.84 1382.75,-244 1417.41,-228.09 1425.39,-218.89 1447.75,-188 1457.63,-174.36 1464.69,-156.57 1469.11,-143.05"/>
<polygon fill="#63b8ff" stroke="#63b8ff" points="1472.45,-144.11 1472,-133.52 1465.75,-142.08 1472.45,-144.11"/>
</a>
</g>
</g>
<!-- Node10 -->
<g id="Node000010" class="node">
<title>Node10</title>
<g id="a_Node000010"><a xlink:title=" ">
<polygon fill="#e0e0e0" stroke="#999999" points="959.25,-132 916.25,-132 916.25,-112 959.25,-112 959.25,-132"/>
<text xml:space="preserve" text-anchor="middle" x="937.75" y="-118.5" font-family="Helvetica,sans-Serif" font-size="10.00">vector</text>
</a>
</g>
</g>
<!-- Node3&#45;&gt;Node10 -->
<g id="edge54_Node000003_Node000010" class="edge">
<title>Node3&#45;&gt;Node10</title>
<g id="a_edge54_Node000003_Node000010"><a xlink:title=" ">
<path fill="none" stroke="#63b8ff" d="M654.02,-343.44C741.57,-337.44 1029.43,-312.72 1083.75,-244 1089.26,-237.03 1089.11,-231.09 1083.75,-224 1048.37,-177.2 998.4,-229.32 956.75,-188 945,-176.35 940.43,-157.85 938.69,-143.57"/>
<polygon fill="#63b8ff" stroke="#63b8ff" points="942.2,-143.57 937.91,-133.89 935.23,-144.13 942.2,-143.57"/>
</a>
</g>
</g>
<!-- Node17 -->
<g id="Node000017" class="node">
<title>Node17</title>
<g id="a_Node000017"><a xlink:href="IButtonCommand_8hpp.html" target="_top" xlink:title=" ">
<polygon fill="white" stroke="#666666" points="594.38,-244 483.12,-244 483.12,-224 594.38,-224 594.38,-244"/>
<text xml:space="preserve" text-anchor="middle" x="538.75" y="-230.5" font-family="Helvetica,sans-Serif" font-size="10.00">IButtonCommand.hpp</text>
</a>
</g>
</g>
<!-- Node3&#45;&gt;Node17 -->
<g id="edge43_Node000003_Node000017" class="edge">
<title>Node3&#45;&gt;Node17</title>
<g id="a_edge43_Node000003_Node000017"><a xlink:title=" ">
<path fill="none" stroke="#63b8ff" d="M624.84,-335.5C619.07,-322.21 607.38,-297.7 592.75,-280 583.7,-269.06 571.72,-258.76 561.34,-250.79"/>
<polygon fill="#63b8ff" stroke="#63b8ff" points="563.73,-248.2 553.61,-245.07 559.57,-253.83 563.73,-248.2"/>
</a>
</g>
</g>
<!-- Node20 -->
<g id="Node000020" class="node">
<title>Node20</title>
<g id="a_Node000020"><a xlink:href="IFormCommand_8hpp.html" target="_top" xlink:title=" ">
<polygon fill="white" stroke="#666666" points="188.38,-244 83.12,-244 83.12,-224 188.38,-224 188.38,-244"/>
<text xml:space="preserve" text-anchor="middle" x="135.75" y="-230.5" font-family="Helvetica,sans-Serif" font-size="10.00">IFormCommand.hpp</text>
</a>
</g>
</g>
<!-- Node3&#45;&gt;Node20 -->
<g id="edge44_Node000003_Node000020" class="edge">
<title>Node3&#45;&gt;Node20</title>
<g id="a_edge44_Node000003_Node000020"><a xlink:title=" ">
<path fill="none" stroke="#63b8ff" d="M603.62,-339.39C526.95,-322.29 294.78,-270.48 189.13,-246.91"/>
<polygon fill="#63b8ff" stroke="#63b8ff" points="190.1,-243.54 179.58,-244.78 188.57,-250.37 190.1,-243.54"/>
</a>
</g>
</g>
<!-- Node21 -->
<g id="Node000021" class="node">
<title>Node21</title>
<g id="a_Node000021"><a xlink:href="IGlobalSlashCommand_8hpp.html" target="_top" xlink:title=" ">
<polygon fill="white" stroke="#666666" points="1074.38,-244 939.12,-244 939.12,-224 1074.38,-224 1074.38,-244"/>
<text xml:space="preserve" text-anchor="middle" x="1006.75" y="-230.5" font-family="Helvetica,sans-Serif" font-size="10.00">IGlobalSlashCommand.hpp</text>
</a>
</g>
</g>
<!-- Node3&#45;&gt;Node21 -->
<g id="edge45_Node000003_Node000021" class="edge">
<title>Node3&#45;&gt;Node21</title>
<g id="a_edge45_Node000003_Node000021"><a xlink:title=" ">
<path fill="none" stroke="#63b8ff" d="M653.94,-338.95C687.88,-330.69 750.13,-315.17 802.75,-300 860.7,-283.29 927.13,-261.65 968.02,-248.04"/>
<polygon fill="#63b8ff" stroke="#63b8ff" points="969.04,-251.4 977.42,-244.91 966.82,-244.76 969.04,-251.4"/>
</a>
</g>
</g>
<!-- Node23 -->
<g id="Node000023" class="node">
<title>Node23</title>
<g id="a_Node000023"><a xlink:href="IMemberCommand_8hpp.html" target="_top" xlink:title=" ">
<polygon fill="white" stroke="#666666" points="324.75,-244 206.75,-244 206.75,-224 324.75,-224 324.75,-244"/>
<text xml:space="preserve" text-anchor="middle" x="265.75" y="-230.5" font-family="Helvetica,sans-Serif" font-size="10.00">IMemberCommand.hpp</text>
</a>
</g>
</g>
<!-- Node3&#45;&gt;Node23 -->
<g id="edge46_Node000003_Node000023" class="edge">
<title>Node3&#45;&gt;Node23</title>
<g id="a_edge46_Node000003_Node000023"><a xlink:title=" ">
<path fill="none" stroke="#63b8ff" d="M613.47,-335.71C583.98,-317.77 522.06,-280.12 521.75,-280 488.63,-267.54 400.01,-253.45 336.32,-244.42"/>
<polygon fill="#63b8ff" stroke="#63b8ff" points="337.03,-240.98 326.64,-243.05 336.05,-247.91 337.03,-240.98"/>
</a>
</g>
</g>
<!-- Node3&#45;&gt;Node24 -->
<g id="edge47_Node000003_Node000024" class="edge">
<title>Node3&#45;&gt;Node24</title>
<g id="a_edge47_Node000003_Node000024"><a xlink:title=" ">
<path fill="none" stroke="#63b8ff" d="M632.59,-335.62C639.86,-317.84 655.8,-278.88 665.57,-255"/>
<polygon fill="#63b8ff" stroke="#63b8ff" points="668.8,-256.34 669.35,-245.76 662.32,-253.69 668.8,-256.34"/>
</a>
</g>
</g>
<!-- Node25 -->
<g id="Node000025" class="node">
<title>Node25</title>
<g id="a_Node000025"><a xlink:href="IReactionCommand_8hpp.html" target="_top" xlink:title=" ">
<polygon fill="white" stroke="#666666" points="464.62,-244 342.88,-244 342.88,-224 464.62,-224 464.62,-244"/>
<text xml:space="preserve" text-anchor="middle" x="403.75" y="-230.5" font-family="Helvetica,sans-Serif" font-size="10.00">IReactionCommand.hpp</text>
</a>
</g>
</g>
<!-- Node3&#45;&gt;Node25 -->
<g id="edge48_Node000003_Node000025" class="edge">
<title>Node3&#45;&gt;Node25</title>
<g id="a_edge48_Node000003_Node000025"><a xlink:title=" ">
<path fill="none" stroke="#63b8ff" d="M620.6,-335.62C607.9,-321.56 581.98,-295.06 554.75,-280 527.28,-264.81 494.09,-254.19 465.83,-247.1"/>
<polygon fill="#63b8ff" stroke="#63b8ff" points="466.88,-243.76 456.34,-244.82 465.24,-250.56 466.88,-243.76"/>
</a>
</g>
</g>
<!-- Node26 -->
<g id="Node000026" class="node">
<title>Node26</title>
<g id="a_Node000026"><a xlink:href="IReady_8hpp.html" target="_top" xlink:title=" ">
<polygon fill="white" stroke="#666666" points="65.5,-244 0,-244 0,-224 65.5,-224 65.5,-244"/>
<text xml:space="preserve" text-anchor="middle" x="32.75" y="-230.5" font-family="Helvetica,sans-Serif" font-size="10.00">IReady.hpp</text>
</a>
</g>
</g>
<!-- Node3&#45;&gt;Node26 -->
<g id="edge49_Node000003_Node000026" class="edge">
<title>Node3&#45;&gt;Node26</title>
<g id="a_edge49_Node000003_Node000026"><a xlink:title=" ">
<path fill="none" stroke="#63b8ff" d="M603.41,-341.66C552.27,-334.81 433.11,-318.26 333.75,-300 221.01,-279.28 191.05,-269.7 76.82,-244.67"/>
<polygon fill="#63b8ff" stroke="#63b8ff" points="77.86,-241.32 67.34,-242.6 76.37,-248.16 77.86,-241.32"/>
</a>
</g>
</g>
<!-- Node27 -->
<g id="Node000027" class="node">
<title>Node27</title>
<g id="a_Node000027"><a xlink:title=" ">
<polygon fill="#e0e0e0" stroke="#999999" points="512.38,-300 461.12,-300 461.12,-280 512.38,-280 512.38,-300"/>
<text xml:space="preserve" text-anchor="middle" x="486.75" y="-286.5" font-family="Helvetica,sans-Serif" font-size="10.00">memory</text>
</a>
</g>
</g>
<!-- Node3&#45;&gt;Node27 -->
<g id="edge52_Node000003_Node000027" class="edge">
<title>Node3&#45;&gt;Node27</title>
<g id="a_edge52_Node000003_Node000027"><a xlink:title=" ">
<path fill="none" stroke="#63b8ff" d="M604.02,-335.59C581.45,-327.01 547.84,-314.23 522.38,-304.55"/>
<polygon fill="#63b8ff" stroke="#63b8ff" points="523.68,-301.3 513.09,-301.02 521.2,-307.84 523.68,-301.3"/>
</a>
</g>
</g>
<!-- Node5 -->
<g id="Node000005" class="node">
<title>Node5</title>
<g id="a_Node000005"><a xlink:title=" ">
<polygon fill="#e0e0e0" stroke="#999999" points="812.12,-244 753.38,-244 753.38,-224 812.12,-224 812.12,-244"/>
<text xml:space="preserve" text-anchor="middle" x="782.75" y="-230.5" font-family="Helvetica,sans-Serif" font-size="10.00">dpp/dpp.h</text>
</a>
</g>
</g>
<!-- Node4&#45;&gt;Node5 -->
<g id="edge4_Node000004_Node000005" class="edge">
<title>Node4&#45;&gt;Node5</title>
<g id="a_edge4_Node000004_Node000005"><a xlink:title=" ">
<path fill="none" stroke="#63b8ff" d="M768.71,-279.59C770.83,-272.86 773.77,-263.53 776.41,-255.15"/>
<polygon fill="#63b8ff" stroke="#63b8ff" points="779.7,-256.33 779.37,-245.74 773.03,-254.23 779.7,-256.33"/>
</a>
</g>
</g>
<!-- Node6 -->
<g id="Node000006" class="node">
<title>Node6</title>
<g id="a_Node000006"><a xlink:title=" ">
<polygon fill="#e0e0e0" stroke="#999999" points="921.25,-244 830.25,-244 830.25,-224 921.25,-224 921.25,-244"/>
<text xml:space="preserve" text-anchor="middle" x="875.75" y="-230.5" font-family="Helvetica,sans-Serif" font-size="10.00">dpp/misc&#45;enum.h</text>
</a>
</g>
</g>
<!-- Node4&#45;&gt;Node6 -->
<g id="edge5_Node000004_Node000006" class="edge">
<title>Node4&#45;&gt;Node6</title>
<g id="a_edge5_Node000004_Node000006"><a xlink:title=" ">
<path fill="none" stroke="#63b8ff" d="M784.91,-279.59C801.84,-271.28 826.8,-259.03 846.27,-249.47"/>
<polygon fill="#63b8ff" stroke="#63b8ff" points="847.65,-252.7 855.08,-245.15 844.56,-246.41 847.65,-252.7"/>
</a>
</g>
</g>
<!-- Node7 -->
<g id="Node000007" class="node">
<title>Node7</title>
<g id="a_Node000007"><a xlink:href="Database_8hpp.html" target="_top" xlink:title=" ">
<polygon fill="white" stroke="#666666" points="1344.12,-244 1267.38,-244 1267.38,-224 1344.12,-224 1344.12,-244"/>
<text xml:space="preserve" text-anchor="middle" x="1305.75" y="-230.5" font-family="Helvetica,sans-Serif" font-size="10.00">Database.hpp</text>
</a>
</g>
</g>
<!-- Node4&#45;&gt;Node7 -->
<g id="edge6_Node000004_Node000007" class="edge">
<title>Node4&#45;&gt;Node7</title>
<g id="a_edge6_Node000004_Node000007"><a xlink:title=" ">
<path fill="none" stroke="#63b8ff" d="M794.02,-286.17C880.9,-277.49 1144.77,-251.1 1255.74,-240"/>
<polygon fill="#63b8ff" stroke="#63b8ff" points="1255.82,-243.51 1265.43,-239.03 1255.13,-236.54 1255.82,-243.51"/>
</a>
</g>
</g>
<!-- Node4&#45;&gt;Node8 -->
<g id="edge42_Node000004_Node000008" class="edge">
<title>Node4&#45;&gt;Node8</title>
<g id="a_edge42_Node000004_Node000008"><a xlink:title=" ">
<path fill="none" stroke="#63b8ff" d="M794.01,-289.38C897,-290.39 1251.43,-290.33 1352.75,-244 1402.07,-221.45 1442.86,-169.92 1462.37,-141.93"/>
<polygon fill="#63b8ff" stroke="#63b8ff" points="1465.22,-143.96 1467.93,-133.72 1459.42,-140.04 1465.22,-143.96"/>
</a>
</g>
</g>
<!-- Node4&#45;&gt;Node17 -->
<g id="edge22_Node000004_Node000017" class="edge">
<title>Node4&#45;&gt;Node17</title>
<g id="a_edge22_Node000004_Node000017"><a xlink:title=" ">
<path fill="none" stroke="#63b8ff" d="M737.46,-282.27C700.54,-273.49 635.26,-257.96 589.63,-247.1"/>
<polygon fill="#63b8ff" stroke="#63b8ff" points="590.5,-243.71 579.96,-244.8 588.88,-250.52 590.5,-243.71"/>
</a>
</g>
</g>
<!-- Node4&#45;&gt;Node20 -->
<g id="edge25_Node000004_Node000020" class="edge">
<title>Node4&#45;&gt;Node20</title>
<g id="a_edge25_Node000004_Node000020"><a xlink:title=" ">
<path fill="none" stroke="#63b8ff" d="M737.62,-287.42C656.21,-282.72 413.18,-267.7 200.22,-244.21"/>
<polygon fill="#63b8ff" stroke="#63b8ff" points="200.65,-240.73 190.32,-243.1 199.88,-247.69 200.65,-240.73"/>
</a>
</g>
</g>
<!-- Node4&#45;&gt;Node21 -->
<g id="edge28_Node000004_Node000021" class="edge">
<title>Node4&#45;&gt;Node21</title>
<g id="a_edge28_Node000004_Node000021"><a xlink:title=" ">
<path fill="none" stroke="#63b8ff" d="M793.87,-282.7C832.92,-273.95 904.32,-257.95 953.59,-246.91"/>
<polygon fill="#63b8ff" stroke="#63b8ff" points="954.21,-250.36 963.2,-244.76 952.68,-243.53 954.21,-250.36"/>
</a>
</g>
</g>
<!-- Node4&#45;&gt;Node23 -->
<g id="edge33_Node000004_Node000023" class="edge">
<title>Node4&#45;&gt;Node23</title>
<g id="a_edge33_Node000004_Node000023"><a xlink:title=" ">
<path fill="none" stroke="#63b8ff" d="M737.41,-286.32C669.95,-279.89 494.26,-262.8 336.41,-244.29"/>
<polygon fill="#63b8ff" stroke="#63b8ff" points="336.92,-240.82 326.58,-243.13 336.1,-247.77 336.92,-240.82"/>
</a>
</g>
</g>
<!-- Node4&#45;&gt;Node24 -->
<g id="edge36_Node000004_Node000024" class="edge">
<title>Node4&#45;&gt;Node24</title>
<g id="a_edge36_Node000004_Node000024"><a xlink:title=" ">
<path fill="none" stroke="#63b8ff" d="M749.72,-279.59C735.96,-271.51 715.85,-259.71 699.77,-250.27"/>
<polygon fill="#63b8ff" stroke="#63b8ff" points="701.6,-247.29 691.21,-245.25 698.06,-253.33 701.6,-247.29"/>
</a>
</g>
</g>
<!-- Node4&#45;&gt;Node25 -->
<g id="edge39_Node000004_Node000025" class="edge">
<title>Node4&#45;&gt;Node25</title>
<g id="a_edge39_Node000004_Node000025"><a xlink:title=" ">
<path fill="none" stroke="#63b8ff" d="M737.65,-284.81C682.04,-276.51 556.41,-257.77 476.1,-245.79"/>
<polygon fill="#63b8ff" stroke="#63b8ff" points="476.98,-242.39 466.57,-244.37 475.95,-249.31 476.98,-242.39"/>
</a>
</g>
</g>
<!-- Node7&#45;&gt;Node8 -->
<g id="edge7_Node000007_Node000008" class="edge">
<title>Node7&#45;&gt;Node8</title>
<g id="a_edge7_Node000007_Node000008"><a xlink:title=" ">
<path fill="none" stroke="#63b8ff" d="M1320.53,-223.56C1334.71,-214.48 1356.73,-200.36 1375.75,-188 1401.59,-171.21 1431.11,-151.8 1451.14,-138.59"/>
<polygon fill="#63b8ff" stroke="#63b8ff" points="1453,-141.56 1459.42,-133.13 1449.14,-135.72 1453,-141.56"/>
</a>
</g>
</g>
<!-- Node9 -->
<g id="Node000009" class="node">
<title>Node9</title>
<g id="a_Node000009"><a xlink:title=" ">
<polygon fill="#e0e0e0" stroke="#999999" points="1016.38,-132 977.12,-132 977.12,-112 1016.38,-112 1016.38,-132"/>
<text xml:space="preserve" text-anchor="middle" x="996.75" y="-118.5" font-family="Helvetica,sans-Serif" font-size="10.00">utility</text>
</a>
</g>
</g>
<!-- Node7&#45;&gt;Node9 -->
<g id="edge8_Node000007_Node000009" class="edge">
<title>Node7&#45;&gt;Node9</title>
<g id="a_edge8_Node000007_Node000009"><a xlink:title=" ">
<path fill="none" stroke="#63b8ff" d="M1276.42,-223.56C1249,-214.65 1206.97,-200.8 1170.75,-188 1120.13,-170.12 1061.76,-148 1027.13,-134.72"/>
<polygon fill="#63b8ff" stroke="#63b8ff" points="1028.76,-131.6 1018.17,-131.28 1026.25,-138.14 1028.76,-131.6"/>
</a>
</g>
</g>
<!-- Node7&#45;&gt;Node10 -->
<g id="edge9_Node000007_Node000010" class="edge">
<title>Node7&#45;&gt;Node10</title>
<g id="a_edge9_Node000007_Node000010"><a xlink:title=" ">
<path fill="none" stroke="#63b8ff" d="M1266.91,-225.58C1216.2,-215.7 1130.28,-198.29 1099.75,-188 1079.78,-181.27 1076.18,-176.18 1056.75,-168 1027.75,-155.79 994.18,-143.24 970.11,-134.5"/>
<polygon fill="#63b8ff" stroke="#63b8ff" points="971.45,-131.27 960.86,-131.17 969.08,-137.85 971.45,-131.27"/>
</a>
</g>
</g>
<!-- Node11 -->
<g id="Node000011" class="node">
<title>Node11</title>
<g id="a_Node000011"><a xlink:href="DatabaseBackend_8hpp.html" target="_top" xlink:title=" ">
<polygon fill="white" stroke="#666666" points="1401.25,-76 1286.25,-76 1286.25,-56 1401.25,-56 1401.25,-76"/>
<text xml:space="preserve" text-anchor="middle" x="1343.75" y="-62.5" font-family="Helvetica,sans-Serif" font-size="10.00">DatabaseBackend.hpp</text>
</a>
</g>
</g>
<!-- Node7&#45;&gt;Node11 -->
<g id="edge10_Node000007_Node000011" class="edge">
<title>Node7&#45;&gt;Node11</title>
<g id="a_edge10_Node000007_Node000011"><a xlink:title=" ">
<path fill="none" stroke="#63b8ff" d="M1316.06,-223.64C1340.99,-200.9 1402.86,-143.73 1407.75,-132 1411.17,-123.8 1411.85,-119.89 1407.75,-112 1401.05,-99.1 1388.76,-89.12 1376.74,-81.87"/>
<polygon fill="#63b8ff" stroke="#63b8ff" points="1378.6,-78.9 1368.15,-77.15 1375.23,-85.04 1378.6,-78.9"/>
</a>
</g>
</g>
<!-- Node13 -->
<g id="Node000013" class="node">
<title>Node13</title>
<g id="a_Node000013"><a xlink:href="DatabaseExecutor_8hpp.html" target="_top" xlink:title=" ">
<polygon fill="white" stroke="#666666" points="1295.62,-188 1179.88,-188 1179.88,-168 1295.62,-168 1295.62,-188"/>
<text xml:space="preserve" text-anchor="middle" x="1237.75" y="-174.5" font-family="Helvetica,sans-Serif" font-size="10.00">DatabaseExecutor.hpp</text>
</a>
</g>
</g>
<!-- Node7&#45;&gt;Node13 -->
<g id="edge12_Node000007_Node000013" class="edge">
<title>Node7&#45;&gt;Node13</title>
<g id="a_edge12_Node000007_Node000013"><a xlink:title=" ">
<path fill="none" stroke="#63b8ff" d="M1293.91,-223.59C1284.06,-215.77 1269.82,-204.46 1258.14,-195.19"/>
<polygon fill="#63b8ff" stroke="#63b8ff" points="1260.65,-192.72 1250.64,-189.24 1256.3,-198.2 1260.65,-192.72"/>
</a>
</g>
</g>
<!-- Node16 -->
<g id="Node000016" class="node">
<title>Node16</title>
<g id="a_Node000016"><a xlink:href="RowDTOAdapter_8hpp.html" target="_top" xlink:title=" ">
<polygon fill="white" stroke="#666666" points="1398.62,-132 1288.88,-132 1288.88,-112 1398.62,-112 1398.62,-132"/>
<text xml:space="preserve" text-anchor="middle" x="1343.75" y="-118.5" font-family="Helvetica,sans-Serif" font-size="10.00">RowDTOAdapter.hpp</text>
</a>
</g>
</g>
<!-- Node7&#45;&gt;Node16 -->
<g id="edge21_Node000007_Node000016" class="edge">
<title>Node7&#45;&gt;Node16</title>
<g id="a_edge21_Node000007_Node000016"><a xlink:title=" ">
<path fill="none" stroke="#63b8ff" d="M1308.99,-223.62C1315.13,-205.84 1328.59,-166.88 1336.84,-143"/>
<polygon fill="#63b8ff" stroke="#63b8ff" points="1340.07,-144.38 1340.02,-133.79 1333.45,-142.09 1340.07,-144.38"/>
</a>
</g>
</g>
<!-- Node12 -->
<g id="Node000012" class="node">
<title>Node12</title>
<g id="a_Node000012"><a xlink:title=" ">
<polygon fill="#e0e0e0" stroke="#999999" points="1374.25,-20 1313.25,-20 1313.25,0 1374.25,0 1374.25,-20"/>
<text xml:space="preserve" text-anchor="middle" x="1343.75" y="-6.5" font-family="Helvetica,sans-Serif" font-size="10.00">pqxx/pqxx</text>
</a>
</g>
</g>
<!-- Node11&#45;&gt;Node12 -->
<g id="edge11_Node000011_Node000012" class="edge">
<title>Node11&#45;&gt;Node12</title>
<g id="a_edge11_Node000011_Node000012"><a xlink:title=" ">
<path fill="none" stroke="#63b8ff" d="M1343.75,-55.59C1343.75,-49.01 1343.75,-39.96 1343.75,-31.73"/>
<polygon fill="#63b8ff" stroke="#63b8ff" points="1347.25,-31.81 1343.75,-21.81 1340.25,-31.81 1347.25,-31.81"/>
</a>
</g>
</g>
<!-- Node13&#45;&gt;Node8 -->
<g id="edge14_Node000013_Node000008" class="edge">
<title>Node13&#45;&gt;Node8</title>
<g id="a_edge14_Node000013_Node000008"><a xlink:title=" ">
<path fill="none" stroke="#63b8ff" d="M1279.3,-167.53C1326.14,-156.86 1401.24,-139.75 1443.41,-130.14"/>
<polygon fill="#63b8ff" stroke="#63b8ff" points="1443.93,-133.61 1452.9,-127.98 1442.37,-126.79 1443.93,-133.61"/>
</a>
</g>
</g>
<!-- Node13&#45;&gt;Node9 -->
<g id="edge15_Node000013_Node000009" class="edge">
<title>Node13&#45;&gt;Node9</title>
<g id="a_edge15_Node000013_Node000009"><a xlink:title=" ">
<path fill="none" stroke="#63b8ff" d="M1185.75,-167.56C1144.94,-159.81 1086.52,-147.95 1027.82,-132.64"/>
<polygon fill="#63b8ff" stroke="#63b8ff" points="1028.89,-129.3 1018.33,-130.13 1027.1,-136.07 1028.89,-129.3"/>
</a>
</g>
</g>
<!-- Node13&#45;&gt;Node10 -->
<g id="edge16_Node000013_Node000010" class="edge">
<title>Node13&#45;&gt;Node10</title>
<g id="a_edge16_Node000013_Node000010"><a xlink:title=" ">
<path fill="none" stroke="#63b8ff" d="M1179.4,-169.45C1126.89,-162.16 1047.49,-149.94 970.47,-132.42"/>
<polygon fill="#63b8ff" stroke="#63b8ff" points="971.63,-129.09 961.09,-130.25 970.05,-135.91 971.63,-129.09"/>
</a>
</g>
</g>
<!-- Node14 -->
<g id="Node000014" class="node">
<title>Node14</title>
<g id="a_Node000014"><a xlink:title=" ">
<polygon fill="#e0e0e0" stroke="#999999" points="1087.5,-132 1034,-132 1034,-112 1087.5,-112 1087.5,-132"/>
<text xml:space="preserve" text-anchor="middle" x="1060.75" y="-118.5" font-family="Helvetica,sans-Serif" font-size="10.00">iostream</text>
</a>
</g>
</g>
<!-- Node13&#45;&gt;Node14 -->
<g id="edge13_Node000013_Node000014" class="edge">
<title>Node13&#45;&gt;Node14</title>
<g id="a_edge13_Node000013_Node000014"><a xlink:title=" ">
<path fill="none" stroke="#63b8ff" d="M1206.92,-167.59C1176.79,-158.4 1130.88,-144.4 1098.57,-134.54"/>
<polygon fill="#63b8ff" stroke="#63b8ff" points="1099.79,-131.25 1089.2,-131.68 1097.74,-137.95 1099.79,-131.25"/>
</a>
</g>
</g>
<!-- Node15 -->
<g id="Node000015" class="node">
<title>Node15</title>
<g id="a_Node000015"><a xlink:href="IDatabaseConnectionProvider_8hpp.html" target="_top" xlink:title=" ">
<polygon fill="white" stroke="#666666" points="1270.38,-132 1105.12,-132 1105.12,-112 1270.38,-112 1270.38,-132"/>
<text xml:space="preserve" text-anchor="middle" x="1187.75" y="-118.5" font-family="Helvetica,sans-Serif" font-size="10.00">IDatabaseConnectionProvider.hpp</text>
</a>
</g>
</g>
<!-- Node13&#45;&gt;Node15 -->
<g id="edge17_Node000013_Node000015" class="edge">
<title>Node13&#45;&gt;Node15</title>
<g id="a_edge17_Node000013_Node000015"><a xlink:title=" ">
<path fill="none" stroke="#63b8ff" d="M1229.04,-167.59C1222.16,-160.16 1212.36,-149.58 1204.03,-140.58"/>
<polygon fill="#63b8ff" stroke="#63b8ff" points="1206.75,-138.37 1197.39,-133.41 1201.61,-143.12 1206.75,-138.37"/>
</a>
</g>
</g>
<!-- Node13&#45;&gt;Node16 -->
<g id="edge19_Node000013_Node000016" class="edge">
<title>Node13&#45;&gt;Node16</title>
<g id="a_edge19_Node000013_Node000016"><a xlink:title=" ">
<path fill="none" stroke="#63b8ff" d="M1256.21,-167.59C1272.45,-159.32 1296.36,-147.14 1315.08,-137.6"/>
<polygon fill="#63b8ff" stroke="#63b8ff" points="1316.47,-140.82 1323.79,-133.17 1313.29,-134.59 1316.47,-140.82"/>
</a>
</g>
</g>
<!-- Node15&#45;&gt;Node11 -->
<g id="edge18_Node000015_Node000011" class="edge">
<title>Node15&#45;&gt;Node11</title>
<g id="a_edge18_Node000015_Node000011"><a xlink:title=" ">
<path fill="none" stroke="#63b8ff" d="M1214.92,-111.59C1240.05,-102.9 1277.63,-89.89 1305.73,-80.16"/>
<polygon fill="#63b8ff" stroke="#63b8ff" points="1306.63,-83.55 1314.93,-76.97 1304.34,-76.94 1306.63,-83.55"/>
</a>
</g>
</g>
<!-- Node16&#45;&gt;Node11 -->
<g id="edge20_Node000016_Node000011" class="edge">
<title>Node16&#45;&gt;Node11</title>
<g id="a_edge20_Node000016_Node000011"><a xlink:title=" ">
<path fill="none" stroke="#63b8ff" d="M1343.75,-111.59C1343.75,-105.01 1343.75,-95.96 1343.75,-87.73"/>
<polygon fill="#63b8ff" stroke="#63b8ff" points="1347.25,-87.81 1343.75,-77.81 1340.25,-87.81 1347.25,-87.81"/>
</a>
</g>
</g>
<!-- Node18 -->
<g id="Node000018" class="node">
<title>Node18</title>
<g id="a_Node000018"><a xlink:title=" ">
<polygon fill="#e0e0e0" stroke="#999999" points="390.88,-188 318.62,-188 318.62,-168 390.88,-168 390.88,-188"/>
<text xml:space="preserve" text-anchor="middle" x="354.75" y="-174.5" font-family="Helvetica,sans-Serif" font-size="10.00">dpp/cluster.h</text>
</a>
</g>
</g>
<!-- Node17&#45;&gt;Node18 -->
<g id="edge23_Node000017_Node000018" class="edge">
<title>Node17&#45;&gt;Node18</title>
<g id="a_edge23_Node000017_Node000018"><a xlink:title=" ">
<path fill="none" stroke="#63b8ff" d="M506.7,-223.59C476.54,-214.74 431.16,-201.43 397.85,-191.65"/>
<polygon fill="#63b8ff" stroke="#63b8ff" points="399.08,-188.36 388.5,-188.91 397.11,-195.08 399.08,-188.36"/>
</a>
</g>
</g>
<!-- Node19 -->
<g id="Node000019" class="node">
<title>Node19</title>
<g id="a_Node000019"><a xlink:title=" ">
<polygon fill="#e0e0e0" stroke="#999999" points="496.75,-188 408.75,-188 408.75,-168 496.75,-168 496.75,-188"/>
<text xml:space="preserve" text-anchor="middle" x="452.75" y="-174.5" font-family="Helvetica,sans-Serif" font-size="10.00">dpp/dispatcher.h</text>
</a>
</g>
</g>
<!-- Node17&#45;&gt;Node19 -->
<g id="edge24_Node000017_Node000019" class="edge">
<title>Node17&#45;&gt;Node19</title>
<g id="a_edge24_Node000017_Node000019"><a xlink:title=" ">
<path fill="none" stroke="#63b8ff" d="M523.77,-223.59C511.02,-215.59 492.46,-203.93 477.51,-194.54"/>
<polygon fill="#63b8ff" stroke="#63b8ff" points="479.46,-191.64 469.13,-189.28 475.74,-197.57 479.46,-191.64"/>
</a>
</g>
</g>
<!-- Node20&#45;&gt;Node18 -->
<g id="edge26_Node000020_Node000018" class="edge">
<title>Node20&#45;&gt;Node18</title>
<g id="a_edge26_Node000020_Node000018"><a xlink:title=" ">
<path fill="none" stroke="#63b8ff" d="M174.15,-223.53C211.18,-214.4 267.34,-200.55 307.19,-190.73"/>
<polygon fill="#63b8ff" stroke="#63b8ff" points="307.88,-194.16 316.75,-188.37 306.2,-187.37 307.88,-194.16"/>
</a>
</g>
</g>
<!-- Node20&#45;&gt;Node19 -->
<g id="edge27_Node000020_Node000019" class="edge">
<title>Node20&#45;&gt;Node19</title>
<g id="a_edge27_Node000020_Node000019"><a xlink:title=" ">
<path fill="none" stroke="#63b8ff" d="M188.81,-223.96C246.64,-214.11 338.75,-198.42 397.45,-188.42"/>
<polygon fill="#63b8ff" stroke="#63b8ff" points="397.96,-191.88 407.24,-186.75 396.79,-184.98 397.96,-191.88"/>
</a>
</g>
</g>
<!-- Node21&#45;&gt;Node10 -->
<g id="edge32_Node000021_Node000010" class="edge">
<title>Node21&#45;&gt;Node10</title>
<g id="a_edge32_Node000021_Node000010"><a xlink:title=" ">
<path fill="none" stroke="#63b8ff" d="M972.03,-223.54C954.27,-216.75 934.23,-205.61 923.75,-188 915.45,-174.05 920.49,-155.81 926.72,-142.21"/>
<polygon fill="#63b8ff" stroke="#63b8ff" points="929.79,-143.9 931.28,-133.41 923.57,-140.68 929.79,-143.9"/>
</a>
</g>
</g>
<!-- Node21&#45;&gt;Node18 -->
<g id="edge30_Node000021_Node000018" class="edge">
<title>Node21&#45;&gt;Node18</title>
<g id="a_edge30_Node000021_Node000018"><a xlink:title=" ">
<path fill="none" stroke="#63b8ff" d="M938.81,-224.78C936.09,-224.51 933.4,-224.25 930.75,-224 698.91,-202.43 636.17,-218.73 402.3,-188.17"/>
<polygon fill="#63b8ff" stroke="#63b8ff" points="402.9,-184.72 392.53,-186.87 401.99,-191.66 402.9,-184.72"/>
</a>
</g>
</g>
<!-- Node21&#45;&gt;Node19 -->
<g id="edge31_Node000021_Node000019" class="edge">
<title>Node21&#45;&gt;Node19</title>
<g id="a_edge31_Node000021_Node000019"><a xlink:title=" ">
<path fill="none" stroke="#63b8ff" d="M938.81,-224.87C936.09,-224.57 933.39,-224.28 930.75,-224 778.05,-207.77 597.58,-191.6 508.39,-183.8"/>
<polygon fill="#63b8ff" stroke="#63b8ff" points="508.71,-180.32 498.45,-182.93 508.1,-187.29 508.71,-180.32"/>
</a>
</g>
</g>
<!-- Node21&#45;&gt;Node22 -->
<g id="edge29_Node000021_Node000022" class="edge">
<title>Node21&#45;&gt;Node22</title>
<g id="a_edge29_Node000021_Node000022"><a xlink:title=" ">
<path fill="none" stroke="#63b8ff" d="M1006.75,-223.59C1006.75,-217.01 1006.75,-207.96 1006.75,-199.73"/>
<polygon fill="#63b8ff" stroke="#63b8ff" points="1010.25,-199.81 1006.75,-189.81 1003.25,-199.81 1010.25,-199.81"/>
</a>
</g>
</g>
<!-- Node23&#45;&gt;Node18 -->
<g id="edge34_Node000023_Node000018" class="edge">
<title>Node23&#45;&gt;Node18</title>
<g id="a_edge34_Node000023_Node000018"><a xlink:title=" ">
<path fill="none" stroke="#63b8ff" d="M281.25,-223.59C294.57,-215.51 314.03,-203.71 329.58,-194.27"/>
<polygon fill="#63b8ff" stroke="#63b8ff" points="331.1,-197.44 337.83,-189.26 327.47,-191.46 331.1,-197.44"/>
</a>
</g>
</g>
<!-- Node23&#45;&gt;Node19 -->
<g id="edge35_Node000023_Node000019" class="edge">
<title>Node23&#45;&gt;Node19</title>
<g id="a_edge35_Node000023_Node000019"><a xlink:title=" ">
<path fill="none" stroke="#63b8ff" d="M298.32,-223.59C328.97,-214.74 375.09,-201.43 408.95,-191.65"/>
<polygon fill="#63b8ff" stroke="#63b8ff" points="409.83,-195.04 418.47,-188.9 407.89,-188.31 409.83,-195.04"/>
</a>
</g>
</g>
<!-- Node24&#45;&gt;Node18 -->
<g id="edge37_Node000024_Node000018" class="edge">
<title>Node24&#45;&gt;Node18</title>
<g id="a_edge37_Node000024_Node000018"><a xlink:title=" ">
<path fill="none" stroke="#63b8ff" d="M612.16,-223.51C559.06,-215.18 480.04,-202.46 402.07,-188.37"/>
<polygon fill="#63b8ff" stroke="#63b8ff" points="403.03,-184.99 392.57,-186.65 401.78,-191.88 403.03,-184.99"/>
</a>
</g>
</g>
<!-- Node24&#45;&gt;Node19 -->
<g id="edge38_Node000024_Node000019" class="edge">
<title>Node24&#45;&gt;Node19</title>
<g id="a_edge38_Node000024_Node000019"><a xlink:title=" ">
<path fill="none" stroke="#63b8ff" d="M635,-223.53C598.19,-214.54 542.67,-200.97 502.58,-191.18"/>
<polygon fill="#63b8ff" stroke="#63b8ff" points="503.47,-187.79 492.92,-188.82 501.81,-194.59 503.47,-187.79"/>
</a>
</g>
</g>
<!-- Node25&#45;&gt;Node18 -->
<g id="edge40_Node000025_Node000018" class="edge">
<title>Node25&#45;&gt;Node18</title>
<g id="a_edge40_Node000025_Node000018"><a xlink:title=" ">
<path fill="none" stroke="#63b8ff" d="M395.21,-223.59C388.47,-216.16 378.86,-205.58 370.71,-196.58"/>
<polygon fill="#63b8ff" stroke="#63b8ff" points="373.52,-194.47 364.2,-189.42 368.33,-199.18 373.52,-194.47"/>
</a>
</g>
</g>
<!-- Node25&#45;&gt;Node19 -->
<g id="edge41_Node000025_Node000019" class="edge">
<title>Node25&#45;&gt;Node19</title>
<g id="a_edge41_Node000025_Node000019"><a xlink:title=" ">
<path fill="none" stroke="#63b8ff" d="M412.29,-223.59C419.03,-216.16 428.64,-205.58 436.79,-196.58"/>
<polygon fill="#63b8ff" stroke="#63b8ff" points="439.17,-199.18 443.3,-189.42 433.98,-194.47 439.17,-199.18"/>
</a>
</g>
</g>
<!-- Node26&#45;&gt;Node18 -->
<g id="edge50_Node000026_Node000018" class="edge">
<title>Node26&#45;&gt;Node18</title>
<g id="a_edge50_Node000026_Node000018"><a xlink:title=" ">
<path fill="none" stroke="#63b8ff" d="M65.83,-225.57C68.51,-225.02 71.17,-224.49 73.75,-224 155.32,-208.53 250.88,-193.98 306.92,-185.81"/>
<polygon fill="#63b8ff" stroke="#63b8ff" points="307.37,-189.28 316.76,-184.38 306.36,-182.35 307.37,-189.28"/>
</a>
</g>
</g>
<!-- Node26&#45;&gt;Node19 -->
<g id="edge51_Node000026_Node000019" class="edge">
<title>Node26&#45;&gt;Node19</title>
<g id="a_edge51_Node000026_Node000019"><a xlink:title=" ">
<path fill="none" stroke="#63b8ff" d="M65.81,-225.43C68.49,-224.91 71.16,-224.43 73.75,-224 214.08,-200.92 253.48,-207.85 397.52,-188.23"/>
<polygon fill="#63b8ff" stroke="#63b8ff" points="397.61,-191.75 407.03,-186.91 396.65,-184.82 397.61,-191.75"/>
</a>
</g>
</g>
<!-- Node31&#45;&gt;Node8 -->
<g id="edge62_Node000031_Node000008" class="edge">
<title>Node31&#45;&gt;Node8</title>
<g id="a_edge62_Node000031_Node000008"><a xlink:title=" ">
<path fill="none" stroke="#63b8ff" d="M1537.51,-167.59C1526.46,-159.74 1510.47,-148.38 1497.39,-139.09"/>
<polygon fill="#63b8ff" stroke="#63b8ff" points="1499.5,-136.3 1489.33,-133.36 1495.45,-142 1499.5,-136.3"/>
</a>
</g>
</g>
<!-- Node31&#45;&gt;Node16 -->
<g id="edge61_Node000031_Node000016" class="edge">
<title>Node31&#45;&gt;Node16</title>
<g id="a_edge61_Node000031_Node000016"><a xlink:title=" ">
<path fill="none" stroke="#63b8ff" d="M1514.69,-167.59C1480.32,-158.63 1428.38,-145.08 1390.77,-135.27"/>
<polygon fill="#63b8ff" stroke="#63b8ff" points="1392.11,-132 1381.55,-132.86 1390.35,-138.77 1392.11,-132"/>
</a>
</g>
</g>
<!-- Node32&#45;&gt;Node10 -->
<g id="edge64_Node000032_Node000010" class="edge">
<title>Node32&#45;&gt;Node10</title>
<g id="a_edge64_Node000032_Node000010"><a xlink:title=" ">
<path fill="none" stroke="#63b8ff" d="M1541.18,-229.88C1457.76,-224.8 1301.67,-212.73 1170.75,-188 1149.78,-184.04 1016.89,-146.1 970.51,-132.76"/>
<polygon fill="#63b8ff" stroke="#63b8ff" points="971.72,-129.47 961.14,-130.06 969.78,-136.19 971.72,-129.47"/>
</a>
</g>
</g>
<!-- Node32&#45;&gt;Node31 -->
<g id="edge65_Node000032_Node000031" class="edge">
<title>Node32&#45;&gt;Node31</title>
<g id="a_edge65_Node000032_Node000031"><a xlink:title=" ">
<path fill="none" stroke="#63b8ff" d="M1592.04,-223.59C1585.16,-216.16 1575.36,-205.58 1567.03,-196.58"/>
<polygon fill="#63b8ff" stroke="#63b8ff" points="1569.75,-194.37 1560.39,-189.41 1564.61,-199.12 1569.75,-194.37"/>
</a>
</g>
</g>
<!-- Node33 -->
<g id="Node000033" class="node">
<title>Node33</title>
<g id="a_Node000033"><a xlink:href="IRepository_8hpp.html" target="_top" xlink:title=" ">
<polygon fill="white" stroke="#666666" points="1699.88,-188 1615.62,-188 1615.62,-168 1699.88,-168 1699.88,-188"/>
<text xml:space="preserve" text-anchor="middle" x="1657.75" y="-174.5" font-family="Helvetica,sans-Serif" font-size="10.00">IRepository.hpp</text>
</a>
</g>
</g>
<!-- Node32&#45;&gt;Node33 -->
<g id="edge66_Node000032_Node000033" class="edge">
<title>Node32&#45;&gt;Node33</title>
<g id="a_edge66_Node000032_Node000033"><a xlink:title=" ">
<path fill="none" stroke="#63b8ff" d="M1610.68,-223.59C1618.69,-216.01 1630.17,-205.13 1639.78,-196.02"/>
<polygon fill="#63b8ff" stroke="#63b8ff" points="1641.98,-198.76 1646.84,-189.34 1637.17,-193.68 1641.98,-198.76"/>
</a>
</g>
</g>
<!-- Node34 -->
<g id="Node000034" class="node">
<title>Node34</title>
<g id="a_Node000034"><a xlink:title=" ">
<polygon fill="#e0e0e0" stroke="#999999" points="1681.88,-132 1633.62,-132 1633.62,-112 1681.88,-112 1681.88,-132"/>
<text xml:space="preserve" text-anchor="middle" x="1657.75" y="-118.5" font-family="Helvetica,sans-Serif" font-size="10.00">cstddef</text>
</a>
</g>
</g>
<!-- Node33&#45;&gt;Node34 -->
<g id="edge67_Node000033_Node000034" class="edge">
<title>Node33&#45;&gt;Node34</title>
<g id="a_edge67_Node000033_Node000034"><a xlink:title=" ">
<path fill="none" stroke="#63b8ff" d="M1657.75,-167.59C1657.75,-161.01 1657.75,-151.96 1657.75,-143.73"/>
<polygon fill="#63b8ff" stroke="#63b8ff" points="1661.25,-143.81 1657.75,-133.81 1654.25,-143.81 1661.25,-143.81"/>
</a>
</g>
</g>
</g>
</svg>
