<?xml version="1.0" encoding="UTF-8" standalone="no"?>
<!DOCTYPE svg PUBLIC "-//W3C//DTD SVG 1.1//EN"
 "http://www.w3.org/Graphics/SVG/1.1/DTD/svg11.dtd">
<!-- Generated by graphviz version 14.1.5 (0)
 -->
<!-- Title: src/bot_library/commands/portal/BlacklistCommand.hpp Pages: 1 -->
<svg width="322pt" height="120pt"
 viewBox="0.00 0.00 322.00 120.00" xmlns="http://www.w3.org/2000/svg" xmlns:xlink="http://www.w3.org/1999/xlink">
<g id="graph0" class="graph" transform="scale(1 1) rotate(0) translate(4 116)">
<title>src/bot_library/commands/portal/BlacklistCommand.hpp</title>
<!-- Node1 -->
<g id="Node000001" class="node">
<title>Node1</title>
<g id="a_Node000001"><a xlink:title=" ">
<polygon fill="#999999" stroke="#666666" points="230.25,-112 83,-112 83,-80 230.25,-80 230.25,-112"/>
<text xml:space="preserve" text-anchor="start" x="91" y="-98.5" font-family="Helvetica,sans-Serif" font-size="10.00">src/bot_library/commands</text>
<text xml:space="preserve" text-anchor="middle" x="156.62" y="-86.5" font-family="Helvetica,sans-Serif" font-size="10.00">/portal/BlacklistCommand.hpp</text>
</a>
</g>
</g>
<!-- Node2 -->
<g id="Node000002" class="node">
<title>Node2</title>
<g id="a_Node000002"><a xlink:href="BlacklistCommand_8cpp.html" target="_top" xlink:title=" ">
<polygon fill="white" stroke="#666666" points="147.25,-38 0,-38 0,-6 147.25,-6 147.25,-38"/>
<text xml:space="preserve" text-anchor="start" x="8" y="-24.5" font-family="Helvetica,sans-Serif" font-size="10.00">src/bot_library/commands</text>
<text xml:space="preserve" text-anchor="middle" x="73.62" y="-12.5" font-family="Helvetica,sans-Serif" font-size="10.00">/portal/BlacklistCommand.cpp</text>
</a>
</g>
</g>
<!-- Node1&#45;&gt;Node2 -->
<g id="edge1_Node000001_Node000002" class="edge">
<title>Node1&#45;&gt;Node2</title>
<g id="a_edge1_Node000001_Node000002"><a xlink:title=" ">
<path fill="none" stroke="#63b8ff" d="M130.65,-72.46C117.92,-61.42 102.91,-48.4 91.49,-38.5"/>
<polygon fill="#63b8ff" stroke="#63b8ff" points="128.03,-74.83 137.88,-78.74 132.62,-69.54 128.03,-74.83"/>
</a>
</g>
</g>
<!-- Node3 -->
<g id="Node000003" class="node">
<title>Node3</title>
<g id="a_Node000003"><a xlink:href="RegisterPortalAndNotificationCommands_8cpp.html" target="_top" xlink:title=" ">
<polygon fill="white" stroke="#666666" points="314.38,-44 164.88,-44 164.88,0 314.38,0 314.38,-44"/>
<text xml:space="preserve" text-anchor="start" x="172.88" y="-30.5" font-family="Helvetica,sans-Serif" font-size="10.00">src/bot_library/commands</text>
<text xml:space="preserve" text-anchor="start" x="172.88" y="-18.5" font-family="Helvetica,sans-Serif" font-size="10.00">/registration/RegisterPortalAnd</text>
<text xml:space="preserve" text-anchor="middle" x="239.62" y="-6.5" font-family="Helvetica,sans-Serif" font-size="10.00">NotificationCommands.cpp</text>
</a>
</g>
</g>
<!-- Node1&#45;&gt;Node3 -->
<g id="edge2_Node000001_Node000003" class="edge">
<title>Node1&#45;&gt;Node3</title>
<g id="a_edge2_Node000001_Node000003"><a xlink:title=" ">
<path fill="none" stroke="#63b8ff" d="M182.85,-72.25C193.17,-63.29 204.97,-53.06 215.12,-44.26"/>
<polygon fill="#63b8ff" stroke="#63b8ff" points="180.63,-69.54 175.37,-78.74 185.22,-74.83 180.63,-69.54"/>
</a>
</g>
</g>
</g>
</svg>
