<?xml version="1.0" encoding="UTF-8" standalone="no"?>
<!DOCTYPE svg PUBLIC "-//W3C//DTD SVG 1.1//EN"
 "http://www.w3.org/Graphics/SVG/1.1/DTD/svg11.dtd">
<!-- Generated by graphviz version 14.1.5 (0)
 -->
<!-- Title: src/bot_library/commands/portal/BlacklistCommand.hpp Pages: 1 -->
<svg width="1278pt" height="432pt"
 viewBox="0.00 0.00 1278.00 432.00" xmlns="http://www.w3.org/2000/svg" xmlns:xlink="http://www.w3.org/1999/xlink">
<g id="graph0" class="graph" transform="scale(1 1) rotate(0) translate(4 428)">
<title>src/bot_library/commands/portal/BlacklistCommand.hpp</title>
<!-- Node1 -->
<g id="Node000001" class="node">
<title>Node1</title>
<g id="a_Node000001"><a xlink:title=" ">
<polygon fill="#999999" stroke="#666666" points="920.62,-424 773.38,-424 773.38,-392 920.62,-392 920.62,-424"/>
<text xml:space="preserve" text-anchor="start" x="781.38" y="-410.5" font-family="Helvetica,sans-Serif" font-size="10.00">src/bot_library/commands</text>
<text xml:space="preserve" text-anchor="middle" x="847" y="-398.5" font-family="Helvetica,sans-Serif" font-size="10.00">/portal/BlacklistCommand.hpp</text>
</a>
</g>
</g>
<!-- Node2 -->
<g id="Node000002" class="node">
<title>Node2</title>
<g id="a_Node000002"><a xlink:href="Bot_8hpp.html" target="_top" xlink:title=" ">
<polygon fill="white" stroke="#666666" points="760.88,-356 711.12,-356 711.12,-336 760.88,-336 760.88,-356"/>
<text xml:space="preserve" text-anchor="middle" x="736" y="-342.5" font-family="Helvetica,sans-Serif" font-size="10.00">Bot.hpp</text>
</a>
</g>
</g>
<!-- Node1&#45;&gt;Node2 -->
<g id="edge1_Node000001_Node000002" class="edge">
<title>Node1&#45;&gt;Node2</title>
<g id="a_edge1_Node000001_Node000002"><a xlink:title=" ">
<path fill="none" stroke="#63b8ff" d="M818.41,-391.55C801.39,-382.35 779.91,-370.74 763.15,-361.68"/>
<polygon fill="#63b8ff" stroke="#63b8ff" points="765.2,-358.8 754.74,-357.13 761.87,-364.96 765.2,-358.8"/>
</a>
</g>
</g>
<!-- Node23 -->
<g id="Node000023" class="node">
<title>Node23</title>
<g id="a_Node000023"><a xlink:href="IMessageCommand_8hpp.html" target="_top" xlink:title=" ">
<polygon fill="white" stroke="#666666" points="1186.25,-244 1063.75,-244 1063.75,-224 1186.25,-224 1186.25,-244"/>
<text xml:space="preserve" text-anchor="middle" x="1125" y="-230.5" font-family="Helvetica,sans-Serif" font-size="10.00">IMessageCommand.hpp</text>
</a>
</g>
</g>
<!-- Node1&#45;&gt;Node23 -->
<g id="edge54_Node000001_Node000023" class="edge">
<title>Node1&#45;&gt;Node23</title>
<g id="a_edge54_Node000001_Node000023"><a xlink:title=" ">
<path fill="none" stroke="#63b8ff" d="M871.67,-391.74C924.37,-359.13 1047.41,-283.01 1100.21,-250.34"/>
<polygon fill="#63b8ff" stroke="#63b8ff" points="1101.84,-253.44 1108.51,-245.21 1098.16,-247.49 1101.84,-253.44"/>
</a>
</g>
</g>
<!-- Node3 -->
<g id="Node000003" class="node">
<title>Node3</title>
<g id="a_Node000003"><a xlink:href="Core_8hpp.html" target="_top" xlink:title=" ">
<polygon fill="white" stroke="#666666" points="614.88,-300 559.12,-300 559.12,-280 614.88,-280 614.88,-300"/>
<text xml:space="preserve" text-anchor="middle" x="587" y="-286.5" font-family="Helvetica,sans-Serif" font-size="10.00">Core.hpp</text>
</a>
</g>
</g>
<!-- Node2&#45;&gt;Node3 -->
<g id="edge2_Node000002_Node000003" class="edge">
<title>Node2&#45;&gt;Node3</title>
<g id="a_edge2_Node000002_Node000003"><a xlink:title=" ">
<path fill="none" stroke="#63b8ff" d="M710.72,-335.84C686.86,-327.19 650.8,-314.12 623.76,-304.32"/>
<polygon fill="#63b8ff" stroke="#63b8ff" points="625.17,-301.11 614.58,-300.99 622.78,-307.69 625.17,-301.11"/>
</a>
</g>
</g>
<!-- Node7 -->
<g id="Node000007" class="node">
<title>Node7</title>
<g id="a_Node000007"><a xlink:title=" ">
<polygon fill="#e0e0e0" stroke="#999999" points="40,-132 0,-132 0,-112 40,-112 40,-132"/>
<text xml:space="preserve" text-anchor="middle" x="20" y="-118.5" font-family="Helvetica,sans-Serif" font-size="10.00">string</text>
</a>
</g>
</g>
<!-- Node2&#45;&gt;Node7 -->
<g id="edge52_Node000002_Node000007" class="edge">
<title>Node2&#45;&gt;Node7</title>
<g id="a_edge52_Node000002_Node000007"><a xlink:title=" ">
<path fill="none" stroke="#63b8ff" d="M710.7,-344.78C612.17,-343.65 254.36,-337.02 148,-300 80.02,-276.34 56.13,-255.46 31,-188 25.67,-173.68 22.9,-156.62 21.48,-143.57"/>
<polygon fill="#63b8ff" stroke="#63b8ff" points="24.97,-143.27 20.59,-133.62 18,-143.89 24.97,-143.27"/>
</a>
</g>
</g>
<!-- Node9 -->
<g id="Node000009" class="node">
<title>Node9</title>
<g id="a_Node000009"><a xlink:title=" ">
<polygon fill="#e0e0e0" stroke="#999999" points="109.5,-132 66.5,-132 66.5,-112 109.5,-112 109.5,-132"/>
<text xml:space="preserve" text-anchor="middle" x="88" y="-118.5" font-family="Helvetica,sans-Serif" font-size="10.00">vector</text>
</a>
</g>
</g>
<!-- Node2&#45;&gt;Node9 -->
<g id="edge53_Node000002_Node000009" class="edge">
<title>Node2&#45;&gt;Node9</title>
<g id="a_edge53_Node000002_Node000009"><a xlink:title=" ">
<path fill="none" stroke="#63b8ff" d="M710.82,-345.11C602.22,-345.01 175.6,-338.52 92,-244 67.6,-216.41 74.73,-169.89 81.66,-143.29"/>
<polygon fill="#63b8ff" stroke="#63b8ff" points="85,-144.33 84.39,-133.76 78.27,-142.4 85,-144.33"/>
</a>
</g>
</g>
<!-- Node16 -->
<g id="Node000016" class="node">
<title>Node16</title>
<g id="a_Node000016"><a xlink:href="IButtonCommand_8hpp.html" target="_top" xlink:title=" ">
<polygon fill="white" stroke="#666666" points="1045.62,-244 934.38,-244 934.38,-224 1045.62,-224 1045.62,-244"/>
<text xml:space="preserve" text-anchor="middle" x="990" y="-230.5" font-family="Helvetica,sans-Serif" font-size="10.00">IButtonCommand.hpp</text>
</a>
</g>
</g>
<!-- Node2&#45;&gt;Node16 -->
<g id="edge42_Node000002_Node000016" class="edge">
<title>Node2&#45;&gt;Node16</title>
<g id="a_edge42_Node000002_Node000016"><a xlink:title=" ">
<path fill="none" stroke="#63b8ff" d="M745.04,-335.54C759.11,-321.37 787.67,-294.73 817,-280 850.14,-263.36 890.03,-252.45 923.16,-245.54"/>
<polygon fill="#63b8ff" stroke="#63b8ff" points="923.51,-249.04 932.63,-243.65 922.14,-242.18 923.51,-249.04"/>
</a>
</g>
</g>
<!-- Node19 -->
<g id="Node000019" class="node">
<title>Node19</title>
<g id="a_Node000019"><a xlink:href="IFormCommand_8hpp.html" target="_top" xlink:title=" ">
<polygon fill="white" stroke="#666666" points="639.62,-244 534.38,-244 534.38,-224 639.62,-224 639.62,-244"/>
<text xml:space="preserve" text-anchor="middle" x="587" y="-230.5" font-family="Helvetica,sans-Serif" font-size="10.00">IFormCommand.hpp</text>
</a>
</g>
</g>
<!-- Node2&#45;&gt;Node19 -->
<g id="edge43_Node000002_Node000019" class="edge">
<title>Node2&#45;&gt;Node19</title>
<g id="a_edge43_Node000002_Node000019"><a xlink:title=" ">
<path fill="none" stroke="#63b8ff" d="M723.3,-335.62C697.79,-316.79 640.08,-274.18 608.55,-250.91"/>
<polygon fill="#63b8ff" stroke="#63b8ff" points="611.01,-248.38 600.89,-245.25 606.86,-254.01 611.01,-248.38"/>
</a>
</g>
</g>
<!-- Node20 -->
<g id="Node000020" class="node">
<title>Node20</title>
<g id="a_Node000020"><a xlink:href="IGlobalSlashCommand_8hpp.html" target="_top" xlink:title=" ">
<polygon fill="white" stroke="#666666" points="330.62,-244 195.38,-244 195.38,-224 330.62,-224 330.62,-244"/>
<text xml:space="preserve" text-anchor="middle" x="263" y="-230.5" font-family="Helvetica,sans-Serif" font-size="10.00">IGlobalSlashCommand.hpp</text>
</a>
</g>
</g>
<!-- Node2&#45;&gt;Node20 -->
<g id="edge44_Node000002_Node000020" class="edge">
<title>Node2&#45;&gt;Node20</title>
<g id="a_edge44_Node000002_Node000020"><a xlink:title=" ">
<path fill="none" stroke="#63b8ff" d="M710.9,-339.16C636.52,-321.86 416.1,-270.61 314.88,-247.07"/>
<polygon fill="#63b8ff" stroke="#63b8ff" points="315.73,-243.67 305.2,-244.81 314.15,-250.49 315.73,-243.67"/>
</a>
</g>
</g>
<!-- Node22 -->
<g id="Node000022" class="node">
<title>Node22</title>
<g id="a_Node000022"><a xlink:href="IMemberCommand_8hpp.html" target="_top" xlink:title=" ">
<polygon fill="white" stroke="#666666" points="776,-244 658,-244 658,-224 776,-224 776,-244"/>
<text xml:space="preserve" text-anchor="middle" x="717" y="-230.5" font-family="Helvetica,sans-Serif" font-size="10.00">IMemberCommand.hpp</text>
</a>
</g>
</g>
<!-- Node2&#45;&gt;Node22 -->
<g id="edge45_Node000002_Node000022" class="edge">
<title>Node2&#45;&gt;Node22</title>
<g id="a_edge45_Node000002_Node000022"><a xlink:title=" ">
<path fill="none" stroke="#63b8ff" d="M734.38,-335.62C731.34,-318.01 724.7,-279.59 720.57,-255.65"/>
<polygon fill="#63b8ff" stroke="#63b8ff" points="724.02,-255.1 718.87,-245.85 717.13,-256.3 724.02,-255.1"/>
</a>
</g>
</g>
<!-- Node2&#45;&gt;Node23 -->
<g id="edge46_Node000002_Node000023" class="edge">
<title>Node2&#45;&gt;Node23</title>
<g id="a_edge46_Node000002_Node000023"><a xlink:title=" ">
<path fill="none" stroke="#63b8ff" d="M752.65,-335.53C768.64,-326.42 793.48,-312.28 815,-300 830.56,-291.12 833.11,-285.99 850,-280 868.79,-273.34 977.34,-256.61 1052.3,-245.53"/>
<polygon fill="#63b8ff" stroke="#63b8ff" points="1052.69,-249.01 1062.07,-244.09 1051.67,-242.09 1052.69,-249.01"/>
</a>
</g>
</g>
<!-- Node24 -->
<g id="Node000024" class="node">
<title>Node24</title>
<g id="a_Node000024"><a xlink:href="IReactionCommand_8hpp.html" target="_top" xlink:title=" ">
<polygon fill="white" stroke="#666666" points="915.88,-244 794.12,-244 794.12,-224 915.88,-224 915.88,-244"/>
<text xml:space="preserve" text-anchor="middle" x="855" y="-230.5" font-family="Helvetica,sans-Serif" font-size="10.00">IReactionCommand.hpp</text>
</a>
</g>
</g>
<!-- Node2&#45;&gt;Node24 -->
<g id="edge47_Node000002_Node000024" class="edge">
<title>Node2&#45;&gt;Node24</title>
<g id="a_edge47_Node000002_Node000024"><a xlink:title=" ">
<path fill="none" stroke="#63b8ff" d="M740.45,-335.65C747.26,-322.1 761.35,-296.79 779,-280 791.96,-267.67 808.9,-257.23 823.49,-249.52"/>
<polygon fill="#63b8ff" stroke="#63b8ff" points="824.92,-252.72 832.26,-245.08 821.76,-246.47 824.92,-252.72"/>
</a>
</g>
</g>
<!-- Node25 -->
<g id="Node000025" class="node">
<title>Node25</title>
<g id="a_Node000025"><a xlink:href="IReady_8hpp.html" target="_top" xlink:title=" ">
<polygon fill="white" stroke="#666666" points="1269.75,-244 1204.25,-244 1204.25,-224 1269.75,-224 1269.75,-244"/>
<text xml:space="preserve" text-anchor="middle" x="1237" y="-230.5" font-family="Helvetica,sans-Serif" font-size="10.00">IReady.hpp</text>
</a>
</g>
</g>
<!-- Node2&#45;&gt;Node25 -->
<g id="edge48_Node000002_Node000025" class="edge">
<title>Node2&#45;&gt;Node25</title>
<g id="a_edge48_Node000002_Node000025"><a xlink:title=" ">
<path fill="none" stroke="#63b8ff" d="M761.19,-339.47C841.24,-321.89 1090.58,-267.15 1192.7,-244.73"/>
<polygon fill="#63b8ff" stroke="#63b8ff" points="1193.34,-248.17 1202.36,-242.61 1191.84,-241.33 1193.34,-248.17"/>
</a>
</g>
</g>
<!-- Node26 -->
<g id="Node000026" class="node">
<title>Node26</title>
<g id="a_Node000026"><a xlink:title=" ">
<polygon fill="#e0e0e0" stroke="#999999" points="910.62,-300 859.38,-300 859.38,-280 910.62,-280 910.62,-300"/>
<text xml:space="preserve" text-anchor="middle" x="885" y="-286.5" font-family="Helvetica,sans-Serif" font-size="10.00">memory</text>
</a>
</g>
</g>
<!-- Node2&#45;&gt;Node26 -->
<g id="edge51_Node000002_Node000026" class="edge">
<title>Node2&#45;&gt;Node26</title>
<g id="a_edge51_Node000002_Node000026"><a xlink:title=" ">
<path fill="none" stroke="#63b8ff" d="M761.28,-335.84C785.21,-327.17 821.42,-314.04 848.49,-304.23"/>
<polygon fill="#63b8ff" stroke="#63b8ff" points="849.47,-307.6 857.68,-300.9 847.08,-301.02 849.47,-307.6"/>
</a>
</g>
</g>
<!-- Node4 -->
<g id="Node000004" class="node">
<title>Node4</title>
<g id="a_Node000004"><a xlink:title=" ">
<polygon fill="#e0e0e0" stroke="#999999" points="407.38,-244 348.62,-244 348.62,-224 407.38,-224 407.38,-244"/>
<text xml:space="preserve" text-anchor="middle" x="378" y="-230.5" font-family="Helvetica,sans-Serif" font-size="10.00">dpp/dpp.h</text>
</a>
</g>
</g>
<!-- Node3&#45;&gt;Node4 -->
<g id="edge3_Node000003_Node000004" class="edge">
<title>Node3&#45;&gt;Node4</title>
<g id="a_edge3_Node000003_Node000004"><a xlink:title=" ">
<path fill="none" stroke="#63b8ff" d="M558.81,-281.72C522.76,-272.4 460.06,-256.2 418.79,-245.54"/>
<polygon fill="#63b8ff" stroke="#63b8ff" points="419.78,-242.18 409.23,-243.07 418.03,-248.96 419.78,-242.18"/>
</a>
</g>
</g>
<!-- Node5 -->
<g id="Node000005" class="node">
<title>Node5</title>
<g id="a_Node000005"><a xlink:title=" ">
<polygon fill="#e0e0e0" stroke="#999999" points="516.5,-244 425.5,-244 425.5,-224 516.5,-224 516.5,-244"/>
<text xml:space="preserve" text-anchor="middle" x="471" y="-230.5" font-family="Helvetica,sans-Serif" font-size="10.00">dpp/misc&#45;enum.h</text>
</a>
</g>
</g>
<!-- Node3&#45;&gt;Node5 -->
<g id="edge4_Node000003_Node000005" class="edge">
<title>Node3&#45;&gt;Node5</title>
<g id="a_edge4_Node000003_Node000005"><a xlink:title=" ">
<path fill="none" stroke="#63b8ff" d="M566.79,-279.59C548.77,-271.21 522.13,-258.8 501.52,-249.21"/>
<polygon fill="#63b8ff" stroke="#63b8ff" points="503.28,-246.17 492.74,-245.12 500.32,-252.51 503.28,-246.17"/>
</a>
</g>
</g>
<!-- Node6 -->
<g id="Node000006" class="node">
<title>Node6</title>
<g id="a_Node000006"><a xlink:href="Database_8hpp.html" target="_top" xlink:title=" ">
<polygon fill="white" stroke="#666666" points="177.38,-244 100.62,-244 100.62,-224 177.38,-224 177.38,-244"/>
<text xml:space="preserve" text-anchor="middle" x="139" y="-230.5" font-family="Helvetica,sans-Serif" font-size="10.00">Database.hpp</text>
</a>
</g>
</g>
<!-- Node3&#45;&gt;Node6 -->
<g id="edge5_Node000003_Node000006" class="edge">
<title>Node3&#45;&gt;Node6</title>
<g id="a_edge5_Node000003_Node000006"><a xlink:title=" ">
<path fill="none" stroke="#63b8ff" d="M558.7,-286.58C494.69,-280.96 333.68,-265.9 188.96,-244.35"/>
<polygon fill="#63b8ff" stroke="#63b8ff" points="189.59,-240.91 179.18,-242.88 188.55,-247.83 189.59,-240.91"/>
</a>
</g>
</g>
<!-- Node3&#45;&gt;Node7 -->
<g id="edge41_Node000003_Node000007" class="edge">
<title>Node3&#45;&gt;Node7</title>
<g id="a_edge41_Node000003_Node000007"><a xlink:title=" ">
<path fill="none" stroke="#63b8ff" d="M558.79,-287.92C459.73,-283.94 131.6,-268.96 92,-244 55.07,-220.73 34.63,-171.05 25.64,-143.12"/>
<polygon fill="#63b8ff" stroke="#63b8ff" points="29.06,-142.33 22.82,-133.76 22.35,-144.35 29.06,-142.33"/>
</a>
</g>
</g>
<!-- Node3&#45;&gt;Node16 -->
<g id="edge21_Node000003_Node000016" class="edge">
<title>Node3&#45;&gt;Node16</title>
<g id="a_edge21_Node000003_Node000016"><a xlink:title=" ">
<path fill="none" stroke="#63b8ff" d="M615.05,-285.32C671.22,-277.93 801.8,-260.7 922.69,-244.31"/>
<polygon fill="#63b8ff" stroke="#63b8ff" points="923.04,-247.79 932.48,-242.98 922.1,-240.86 923.04,-247.79"/>
</a>
</g>
</g>
<!-- Node3&#45;&gt;Node19 -->
<g id="edge24_Node000003_Node000019" class="edge">
<title>Node3&#45;&gt;Node19</title>
<g id="a_edge24_Node000003_Node000019"><a xlink:title=" ">
<path fill="none" stroke="#63b8ff" d="M587,-279.59C587,-273.01 587,-263.96 587,-255.73"/>
<polygon fill="#63b8ff" stroke="#63b8ff" points="590.5,-255.81 587,-245.81 583.5,-255.81 590.5,-255.81"/>
</a>
</g>
</g>
<!-- Node3&#45;&gt;Node20 -->
<g id="edge27_Node000003_Node000020" class="edge">
<title>Node3&#45;&gt;Node20</title>
<g id="a_edge27_Node000003_Node000020"><a xlink:title=" ">
<path fill="none" stroke="#63b8ff" d="M558.81,-284.3C508.4,-275.9 401.46,-258.08 330.92,-246.32"/>
<polygon fill="#63b8ff" stroke="#63b8ff" points="331.86,-242.93 321.42,-244.74 330.71,-249.83 331.86,-242.93"/>
</a>
</g>
</g>
<!-- Node3&#45;&gt;Node22 -->
<g id="edge32_Node000003_Node000022" class="edge">
<title>Node3&#45;&gt;Node22</title>
<g id="a_edge32_Node000003_Node000022"><a xlink:title=" ">
<path fill="none" stroke="#63b8ff" d="M609.64,-279.59C630.12,-271.09 660.52,-258.46 683.75,-248.81"/>
<polygon fill="#63b8ff" stroke="#63b8ff" points="684.89,-252.13 692.78,-245.06 682.2,-245.66 684.89,-252.13"/>
</a>
</g>
</g>
<!-- Node3&#45;&gt;Node23 -->
<g id="edge35_Node000003_Node000023" class="edge">
<title>Node3&#45;&gt;Node23</title>
<g id="a_edge35_Node000003_Node000023"><a xlink:title=" ">
<path fill="none" stroke="#63b8ff" d="M615.26,-286.6C686.59,-280.48 879.96,-263.45 1052.24,-244.28"/>
<polygon fill="#63b8ff" stroke="#63b8ff" points="1052.5,-247.77 1062.05,-243.18 1051.72,-240.82 1052.5,-247.77"/>
</a>
</g>
</g>
<!-- Node3&#45;&gt;Node24 -->
<g id="edge38_Node000003_Node000024" class="edge">
<title>Node3&#45;&gt;Node24</title>
<g id="a_edge38_Node000003_Node000024"><a xlink:title=" ">
<path fill="none" stroke="#63b8ff" d="M615.17,-283.32C658.05,-274.68 740.6,-258.05 796.74,-246.74"/>
<polygon fill="#63b8ff" stroke="#63b8ff" points="797.35,-250.19 806.47,-244.78 795.97,-243.32 797.35,-250.19"/>
</a>
</g>
</g>
<!-- Node6&#45;&gt;Node7 -->
<g id="edge6_Node000006_Node000007" class="edge">
<title>Node6&#45;&gt;Node7</title>
<g id="a_edge6_Node000006_Node000007"><a xlink:title=" ">
<path fill="none" stroke="#63b8ff" d="M128.85,-223.62C108.83,-205.11 63.97,-163.65 38.53,-140.13"/>
<polygon fill="#63b8ff" stroke="#63b8ff" points="40.95,-137.6 31.23,-133.38 36.2,-142.74 40.95,-137.6"/>
</a>
</g>
</g>
<!-- Node8 -->
<g id="Node000008" class="node">
<title>Node8</title>
<g id="a_Node000008"><a xlink:title=" ">
<polygon fill="#e0e0e0" stroke="#999999" points="166.62,-132 127.38,-132 127.38,-112 166.62,-112 166.62,-132"/>
<text xml:space="preserve" text-anchor="middle" x="147" y="-118.5" font-family="Helvetica,sans-Serif" font-size="10.00">utility</text>
</a>
</g>
</g>
<!-- Node6&#45;&gt;Node8 -->
<g id="edge7_Node000006_Node000008" class="edge">
<title>Node6&#45;&gt;Node8</title>
<g id="a_edge7_Node000006_Node000008"><a xlink:title=" ">
<path fill="none" stroke="#63b8ff" d="M139.68,-223.62C140.96,-206.01 143.76,-167.59 145.5,-143.65"/>
<polygon fill="#63b8ff" stroke="#63b8ff" points="148.98,-144.09 146.21,-133.86 141.99,-143.58 148.98,-144.09"/>
</a>
</g>
</g>
<!-- Node6&#45;&gt;Node9 -->
<g id="edge8_Node000006_Node000009" class="edge">
<title>Node6&#45;&gt;Node9</title>
<g id="a_edge8_Node000006_Node000009"><a xlink:title=" ">
<path fill="none" stroke="#63b8ff" d="M134.65,-223.62C126.37,-205.76 108.18,-166.53 97.12,-142.67"/>
<polygon fill="#63b8ff" stroke="#63b8ff" points="100.36,-141.33 92.97,-133.73 94,-144.27 100.36,-141.33"/>
</a>
</g>
</g>
<!-- Node10 -->
<g id="Node000010" class="node">
<title>Node10</title>
<g id="a_Node000010"><a xlink:href="DatabaseBackend_8hpp.html" target="_top" xlink:title=" ">
<polygon fill="white" stroke="#666666" points="551.5,-76 436.5,-76 436.5,-56 551.5,-56 551.5,-76"/>
<text xml:space="preserve" text-anchor="middle" x="494" y="-62.5" font-family="Helvetica,sans-Serif" font-size="10.00">DatabaseBackend.hpp</text>
</a>
</g>
</g>
<!-- Node6&#45;&gt;Node10 -->
<g id="edge9_Node000006_Node000010" class="edge">
<title>Node6&#45;&gt;Node10</title>
<g id="a_edge9_Node000006_Node000010"><a xlink:title=" ">
<path fill="none" stroke="#63b8ff" d="M177.73,-225.57C180.53,-225.03 183.31,-224.51 186,-224 353.37,-192.45 457.25,-269.32 558,-132 571.97,-112.95 547.94,-94.04 525.44,-81.56"/>
<polygon fill="#63b8ff" stroke="#63b8ff" points="527.18,-78.52 516.7,-77.01 523.95,-84.73 527.18,-78.52"/>
</a>
</g>
</g>
<!-- Node12 -->
<g id="Node000012" class="node">
<title>Node12</title>
<g id="a_Node000012"><a xlink:href="DatabaseExecutor_8hpp.html" target="_top" xlink:title=" ">
<polygon fill="white" stroke="#666666" points="330.88,-188 215.12,-188 215.12,-168 330.88,-168 330.88,-188"/>
<text xml:space="preserve" text-anchor="middle" x="273" y="-174.5" font-family="Helvetica,sans-Serif" font-size="10.00">DatabaseExecutor.hpp</text>
</a>
</g>
</g>
<!-- Node6&#45;&gt;Node12 -->
<g id="edge11_Node000006_Node000012" class="edge">
<title>Node6&#45;&gt;Node12</title>
<g id="a_edge11_Node000006_Node000012"><a xlink:title=" ">
<path fill="none" stroke="#63b8ff" d="M162.34,-223.59C183.54,-215.05 215.07,-202.35 239.05,-192.68"/>
<polygon fill="#63b8ff" stroke="#63b8ff" points="240.11,-196.03 248.07,-189.05 237.49,-189.54 240.11,-196.03"/>
</a>
</g>
</g>
<!-- Node15 -->
<g id="Node000015" class="node">
<title>Node15</title>
<g id="a_Node000015"><a xlink:href="RowDTOAdapter_8hpp.html" target="_top" xlink:title=" ">
<polygon fill="white" stroke="#666666" points="548.88,-132 439.12,-132 439.12,-112 548.88,-112 548.88,-132"/>
<text xml:space="preserve" text-anchor="middle" x="494" y="-118.5" font-family="Helvetica,sans-Serif" font-size="10.00">RowDTOAdapter.hpp</text>
</a>
</g>
</g>
<!-- Node6&#45;&gt;Node15 -->
<g id="edge20_Node000006_Node000015" class="edge">
<title>Node6&#45;&gt;Node15</title>
<g id="a_edge20_Node000006_Node000015"><a xlink:title=" ">
<path fill="none" stroke="#63b8ff" d="M177.68,-225.2C227.21,-215.07 310.2,-197.54 340,-188 384.55,-173.74 434.06,-151.66 464.62,-137.27"/>
<polygon fill="#63b8ff" stroke="#63b8ff" points="466.08,-140.45 473.61,-132.99 463.07,-134.13 466.08,-140.45"/>
</a>
</g>
</g>
<!-- Node11 -->
<g id="Node000011" class="node">
<title>Node11</title>
<g id="a_Node000011"><a xlink:title=" ">
<polygon fill="#e0e0e0" stroke="#999999" points="524.5,-20 463.5,-20 463.5,0 524.5,0 524.5,-20"/>
<text xml:space="preserve" text-anchor="middle" x="494" y="-6.5" font-family="Helvetica,sans-Serif" font-size="10.00">pqxx/pqxx</text>
</a>
</g>
</g>
<!-- Node10&#45;&gt;Node11 -->
<g id="edge10_Node000010_Node000011" class="edge">
<title>Node10&#45;&gt;Node11</title>
<g id="a_edge10_Node000010_Node000011"><a xlink:title=" ">
<path fill="none" stroke="#63b8ff" d="M494,-55.59C494,-49.01 494,-39.96 494,-31.73"/>
<polygon fill="#63b8ff" stroke="#63b8ff" points="497.5,-31.81 494,-21.81 490.5,-31.81 497.5,-31.81"/>
</a>
</g>
</g>
<!-- Node12&#45;&gt;Node7 -->
<g id="edge13_Node000012_Node000007" class="edge">
<title>Node12&#45;&gt;Node7</title>
<g id="a_edge13_Node000012_Node000007"><a xlink:title=" ">
<path fill="none" stroke="#63b8ff" d="M225.95,-167.52C182.34,-158.65 115.69,-144.87 58,-132 55.87,-131.52 53.67,-131.03 51.45,-130.52"/>
<polygon fill="#63b8ff" stroke="#63b8ff" points="52.5,-127.17 41.96,-128.3 50.9,-133.98 52.5,-127.17"/>
</a>
</g>
</g>
<!-- Node12&#45;&gt;Node8 -->
<g id="edge14_Node000012_Node000008" class="edge">
<title>Node12&#45;&gt;Node8</title>
<g id="a_edge14_Node000012_Node000008"><a xlink:title=" ">
<path fill="none" stroke="#63b8ff" d="M251.05,-167.59C230.69,-158.87 200.2,-145.8 177.48,-136.06"/>
<polygon fill="#63b8ff" stroke="#63b8ff" points="179,-132.9 168.43,-132.18 176.24,-139.34 179,-132.9"/>
</a>
</g>
</g>
<!-- Node12&#45;&gt;Node9 -->
<g id="edge15_Node000012_Node000009" class="edge">
<title>Node12&#45;&gt;Node9</title>
<g id="a_edge15_Node000012_Node000009"><a xlink:title=" ">
<path fill="none" stroke="#63b8ff" d="M240.02,-167.52C210.89,-159.12 166.99,-146.42 120.78,-132.81"/>
<polygon fill="#63b8ff" stroke="#63b8ff" points="121.98,-129.51 111.4,-130.04 120,-136.22 121.98,-129.51"/>
</a>
</g>
</g>
<!-- Node13 -->
<g id="Node000013" class="node">
<title>Node13</title>
<g id="a_Node000013"><a xlink:title=" ">
<polygon fill="#e0e0e0" stroke="#999999" points="237.75,-132 184.25,-132 184.25,-112 237.75,-112 237.75,-132"/>
<text xml:space="preserve" text-anchor="middle" x="211" y="-118.5" font-family="Helvetica,sans-Serif" font-size="10.00">iostream</text>
</a>
</g>
</g>
<!-- Node12&#45;&gt;Node13 -->
<g id="edge12_Node000012_Node000013" class="edge">
<title>Node12&#45;&gt;Node13</title>
<g id="a_edge12_Node000012_Node000013"><a xlink:title=" ">
<path fill="none" stroke="#63b8ff" d="M262.2,-167.59C253.4,-159.93 240.75,-148.91 230.23,-139.75"/>
<polygon fill="#63b8ff" stroke="#63b8ff" points="232.66,-137.22 222.82,-133.29 228.06,-142.5 232.66,-137.22"/>
</a>
</g>
</g>
<!-- Node14 -->
<g id="Node000014" class="node">
<title>Node14</title>
<g id="a_Node000014"><a xlink:href="IDatabaseConnectionProvider_8hpp.html" target="_top" xlink:title=" ">
<polygon fill="white" stroke="#666666" points="420.62,-132 255.38,-132 255.38,-112 420.62,-112 420.62,-132"/>
<text xml:space="preserve" text-anchor="middle" x="338" y="-118.5" font-family="Helvetica,sans-Serif" font-size="10.00">IDatabaseConnectionProvider.hpp</text>
</a>
</g>
</g>
<!-- Node12&#45;&gt;Node14 -->
<g id="edge16_Node000012_Node000014" class="edge">
<title>Node12&#45;&gt;Node14</title>
<g id="a_edge16_Node000012_Node000014"><a xlink:title=" ">
<path fill="none" stroke="#63b8ff" d="M284.32,-167.59C293.64,-159.85 307.08,-148.69 318.18,-139.47"/>
<polygon fill="#63b8ff" stroke="#63b8ff" points="320.19,-142.35 325.64,-133.27 315.71,-136.96 320.19,-142.35"/>
</a>
</g>
</g>
<!-- Node12&#45;&gt;Node15 -->
<g id="edge18_Node000012_Node000015" class="edge">
<title>Node12&#45;&gt;Node15</title>
<g id="a_edge18_Node000012_Node000015"><a xlink:title=" ">
<path fill="none" stroke="#63b8ff" d="M311.75,-167.53C348.56,-158.54 404.08,-144.97 444.17,-135.18"/>
<polygon fill="#63b8ff" stroke="#63b8ff" points="444.94,-138.59 453.83,-132.82 443.28,-131.79 444.94,-138.59"/>
</a>
</g>
</g>
<!-- Node14&#45;&gt;Node10 -->
<g id="edge17_Node000014_Node000010" class="edge">
<title>Node14&#45;&gt;Node10</title>
<g id="a_edge17_Node000014_Node000010"><a xlink:title=" ">
<path fill="none" stroke="#63b8ff" d="M365.17,-111.59C390.3,-102.9 427.88,-89.89 455.98,-80.16"/>
<polygon fill="#63b8ff" stroke="#63b8ff" points="456.88,-83.55 465.18,-76.97 454.59,-76.94 456.88,-83.55"/>
</a>
</g>
</g>
<!-- Node15&#45;&gt;Node10 -->
<g id="edge19_Node000015_Node000010" class="edge">
<title>Node15&#45;&gt;Node10</title>
<g id="a_edge19_Node000015_Node000010"><a xlink:title=" ">
<path fill="none" stroke="#63b8ff" d="M494,-111.59C494,-105.01 494,-95.96 494,-87.73"/>
<polygon fill="#63b8ff" stroke="#63b8ff" points="497.5,-87.81 494,-77.81 490.5,-87.81 497.5,-87.81"/>
</a>
</g>
</g>
<!-- Node17 -->
<g id="Node000017" class="node">
<title>Node17</title>
<g id="a_Node000017"><a xlink:title=" ">
<polygon fill="#e0e0e0" stroke="#999999" points="842.12,-188 769.88,-188 769.88,-168 842.12,-168 842.12,-188"/>
<text xml:space="preserve" text-anchor="middle" x="806" y="-174.5" font-family="Helvetica,sans-Serif" font-size="10.00">dpp/cluster.h</text>
</a>
</g>
</g>
<!-- Node16&#45;&gt;Node17 -->
<g id="edge22_Node000016_Node000017" class="edge">
<title>Node16&#45;&gt;Node17</title>
<g id="a_edge22_Node000016_Node000017"><a xlink:title=" ">
<path fill="none" stroke="#63b8ff" d="M957.95,-223.59C927.79,-214.74 882.41,-201.43 849.1,-191.65"/>
<polygon fill="#63b8ff" stroke="#63b8ff" points="850.33,-188.36 839.75,-188.91 848.36,-195.08 850.33,-188.36"/>
</a>
</g>
</g>
<!-- Node18 -->
<g id="Node000018" class="node">
<title>Node18</title>
<g id="a_Node000018"><a xlink:title=" ">
<polygon fill="#e0e0e0" stroke="#999999" points="948,-188 860,-188 860,-168 948,-168 948,-188"/>
<text xml:space="preserve" text-anchor="middle" x="904" y="-174.5" font-family="Helvetica,sans-Serif" font-size="10.00">dpp/dispatcher.h</text>
</a>
</g>
</g>
<!-- Node16&#45;&gt;Node18 -->
<g id="edge23_Node000016_Node000018" class="edge">
<title>Node16&#45;&gt;Node18</title>
<g id="a_edge23_Node000016_Node000018"><a xlink:title=" ">
<path fill="none" stroke="#63b8ff" d="M975.02,-223.59C962.27,-215.59 943.71,-203.93 928.76,-194.54"/>
<polygon fill="#63b8ff" stroke="#63b8ff" points="930.71,-191.64 920.38,-189.28 926.99,-197.57 930.71,-191.64"/>
</a>
</g>
</g>
<!-- Node19&#45;&gt;Node17 -->
<g id="edge25_Node000019_Node000017" class="edge">
<title>Node19&#45;&gt;Node17</title>
<g id="a_edge25_Node000019_Node000017"><a xlink:title=" ">
<path fill="none" stroke="#63b8ff" d="M625.4,-223.53C662.43,-214.4 718.59,-200.55 758.44,-190.73"/>
<polygon fill="#63b8ff" stroke="#63b8ff" points="759.13,-194.16 768,-188.37 757.45,-187.37 759.13,-194.16"/>
</a>
</g>
</g>
<!-- Node19&#45;&gt;Node18 -->
<g id="edge26_Node000019_Node000018" class="edge">
<title>Node19&#45;&gt;Node18</title>
<g id="a_edge26_Node000019_Node000018"><a xlink:title=" ">
<path fill="none" stroke="#63b8ff" d="M640.06,-223.96C697.89,-214.11 790,-198.42 848.7,-188.42"/>
<polygon fill="#63b8ff" stroke="#63b8ff" points="849.21,-191.88 858.49,-186.75 848.04,-184.98 849.21,-191.88"/>
</a>
</g>
</g>
<!-- Node20&#45;&gt;Node9 -->
<g id="edge31_Node000020_Node000009" class="edge">
<title>Node20&#45;&gt;Node9</title>
<g id="a_edge31_Node000020_Node000009"><a xlink:title=" ">
<path fill="none" stroke="#63b8ff" d="M248.08,-223.62C217.86,-204.63 149.17,-161.45 112.36,-138.31"/>
<polygon fill="#63b8ff" stroke="#63b8ff" points="114.49,-135.52 104.16,-133.16 110.77,-141.45 114.49,-135.52"/>
</a>
</g>
</g>
<!-- Node20&#45;&gt;Node17 -->
<g id="edge29_Node000020_Node000017" class="edge">
<title>Node20&#45;&gt;Node17</title>
<g id="a_edge29_Node000020_Node000017"><a xlink:title=" ">
<path fill="none" stroke="#63b8ff" d="M331.01,-224.98C334.05,-224.64 337.06,-224.31 340,-224 492.64,-207.71 673.7,-190.96 758.16,-183.3"/>
<polygon fill="#63b8ff" stroke="#63b8ff" points="758.27,-186.8 767.92,-182.42 757.64,-179.83 758.27,-186.8"/>
</a>
</g>
</g>
<!-- Node20&#45;&gt;Node18 -->
<g id="edge30_Node000020_Node000018" class="edge">
<title>Node20&#45;&gt;Node18</title>
<g id="a_edge30_Node000020_Node000018"><a xlink:title=" ">
<path fill="none" stroke="#63b8ff" d="M331,-224.88C334.04,-224.57 337.05,-224.28 340,-224 563.03,-203.12 623.02,-214.7 848.31,-188.21"/>
<polygon fill="#63b8ff" stroke="#63b8ff" points="848.49,-191.71 858.01,-187.06 847.67,-184.76 848.49,-191.71"/>
</a>
</g>
</g>
<!-- Node21 -->
<g id="Node000021" class="node">
<title>Node21</title>
<g id="a_Node000021"><a xlink:title=" ">
<polygon fill="#e0e0e0" stroke="#999999" points="687.38,-188 604.62,-188 604.62,-168 687.38,-168 687.38,-188"/>
<text xml:space="preserve" text-anchor="middle" x="646" y="-174.5" font-family="Helvetica,sans-Serif" font-size="10.00">appcommand.h</text>
</a>
</g>
</g>
<!-- Node20&#45;&gt;Node21 -->
<g id="edge28_Node000020_Node000021" class="edge">
<title>Node20&#45;&gt;Node21</title>
<g id="a_edge28_Node000020_Node000021"><a xlink:title=" ">
<path fill="none" stroke="#63b8ff" d="M330.92,-224.2C397.3,-215.48 501.19,-201.51 591,-188 591.67,-187.9 592.35,-187.8 593.03,-187.69"/>
<polygon fill="#63b8ff" stroke="#63b8ff" points="593.44,-191.17 602.78,-186.18 592.36,-184.26 593.44,-191.17"/>
</a>
</g>
</g>
<!-- Node22&#45;&gt;Node17 -->
<g id="edge33_Node000022_Node000017" class="edge">
<title>Node22&#45;&gt;Node17</title>
<g id="a_edge33_Node000022_Node000017"><a xlink:title=" ">
<path fill="none" stroke="#63b8ff" d="M732.5,-223.59C745.82,-215.51 765.28,-203.71 780.83,-194.27"/>
<polygon fill="#63b8ff" stroke="#63b8ff" points="782.35,-197.44 789.08,-189.26 778.72,-191.46 782.35,-197.44"/>
</a>
</g>
</g>
<!-- Node22&#45;&gt;Node18 -->
<g id="edge34_Node000022_Node000018" class="edge">
<title>Node22&#45;&gt;Node18</title>
<g id="a_edge34_Node000022_Node000018"><a xlink:title=" ">
<path fill="none" stroke="#63b8ff" d="M749.57,-223.59C780.22,-214.74 826.34,-201.43 860.2,-191.65"/>
<polygon fill="#63b8ff" stroke="#63b8ff" points="861.08,-195.04 869.72,-188.9 859.14,-188.31 861.08,-195.04"/>
</a>
</g>
</g>
<!-- Node23&#45;&gt;Node17 -->
<g id="edge36_Node000023_Node000017" class="edge">
<title>Node23&#45;&gt;Node17</title>
<g id="a_edge36_Node000023_Node000017"><a xlink:title=" ">
<path fill="none" stroke="#63b8ff" d="M1063.41,-223.51C1010.31,-215.18 931.29,-202.46 853.32,-188.37"/>
<polygon fill="#63b8ff" stroke="#63b8ff" points="854.28,-184.99 843.82,-186.65 853.03,-191.88 854.28,-184.99"/>
</a>
</g>
</g>
<!-- Node23&#45;&gt;Node18 -->
<g id="edge37_Node000023_Node000018" class="edge">
<title>Node23&#45;&gt;Node18</title>
<g id="a_edge37_Node000023_Node000018"><a xlink:title=" ">
<path fill="none" stroke="#63b8ff" d="M1086.25,-223.53C1049.44,-214.54 993.92,-200.97 953.83,-191.18"/>
<polygon fill="#63b8ff" stroke="#63b8ff" points="954.72,-187.79 944.17,-188.82 953.06,-194.59 954.72,-187.79"/>
</a>
</g>
</g>
<!-- Node24&#45;&gt;Node17 -->
<g id="edge39_Node000024_Node000017" class="edge">
<title>Node24&#45;&gt;Node17</title>
<g id="a_edge39_Node000024_Node000017"><a xlink:title=" ">
<path fill="none" stroke="#63b8ff" d="M846.46,-223.59C839.72,-216.16 830.11,-205.58 821.96,-196.58"/>
<polygon fill="#63b8ff" stroke="#63b8ff" points="824.77,-194.47 815.45,-189.42 819.58,-199.18 824.77,-194.47"/>
</a>
</g>
</g>
<!-- Node24&#45;&gt;Node18 -->
<g id="edge40_Node000024_Node000018" class="edge">
<title>Node24&#45;&gt;Node18</title>
<g id="a_edge40_Node000024_Node000018"><a xlink:title=" ">
<path fill="none" stroke="#63b8ff" d="M863.54,-223.59C870.28,-216.16 879.89,-205.58 888.04,-196.58"/>
<polygon fill="#63b8ff" stroke="#63b8ff" points="890.42,-199.18 894.55,-189.42 885.23,-194.47 890.42,-199.18"/>
</a>
</g>
</g>
<!-- Node25&#45;&gt;Node17 -->
<g id="edge49_Node000025_Node000017" class="edge">
<title>Node25&#45;&gt;Node17</title>
<g id="a_edge49_Node000025_Node000017"><a xlink:title=" ">
<path fill="none" stroke="#63b8ff" d="M1204.05,-225.59C1201,-225.01 1197.95,-224.47 1195,-224 1046.74,-200.43 1004.92,-210.59 853.4,-188.23"/>
<polygon fill="#63b8ff" stroke="#63b8ff" points="854.2,-184.81 843.79,-186.79 853.16,-191.73 854.2,-184.81"/>
</a>
</g>
</g>
<!-- Node25&#45;&gt;Node18 -->
<g id="edge50_Node000025_Node000018" class="edge">
<title>Node25&#45;&gt;Node18</title>
<g id="a_edge50_Node000025_Node000018"><a xlink:title=" ">
<path fill="none" stroke="#63b8ff" d="M1204.02,-225.75C1200.98,-225.13 1197.93,-224.54 1195,-224 1113.23,-208.93 1017.89,-194.84 959.24,-186.57"/>
<polygon fill="#63b8ff" stroke="#63b8ff" points="959.9,-183.13 949.51,-185.21 958.93,-190.06 959.9,-183.13"/>
</a>
</g>
</g>
</g>
</svg>
