<?xml version="1.0" encoding="UTF-8" standalone="no"?>
<!DOCTYPE svg PUBLIC "-//W3C//DTD SVG 1.1//EN"
 "http://www.w3.org/Graphics/SVG/1.1/DTD/svg11.dtd">
<!-- Generated by graphviz version 13.0.1 (0)
 -->
<!-- Title: src/bot_library/commands/portal/BlacklistCommand.hpp Pages: 1 -->
<svg width="1328pt" height="376pt"
 viewBox="0.00 0.00 1328.00 376.00" xmlns="http://www.w3.org/2000/svg" xmlns:xlink="http://www.w3.org/1999/xlink">
<g id="graph0" class="graph" transform="scale(1 1) rotate(0) translate(4 372)">
<title>src/bot_library/commands/portal/BlacklistCommand.hpp</title>
<!-- Node1 -->
<g id="Node000001" class="node">
<title>Node1</title>
<g id="a_Node000001"><a xlink:title=" ">
<polygon fill="#999999" stroke="#666666" points="985.62,-368 838.38,-368 838.38,-336 985.62,-336 985.62,-368"/>
<text xml:space="preserve" text-anchor="start" x="846.38" y="-354.5" font-family="Helvetica,sans-Serif" font-size="10.00">src/bot_library/commands</text>
<text xml:space="preserve" text-anchor="middle" x="912" y="-342.5" font-family="Helvetica,sans-Serif" font-size="10.00">/portal/BlacklistCommand.hpp</text>
</a>
</g>
</g>
<!-- Node2 -->
<g id="Node000002" class="node">
<title>Node2</title>
<g id="a_Node000002"><a xlink:href="Bot_8hpp.html" target="_top" xlink:title=" ">
<polygon fill="white" stroke="#666666" points="825.88,-300 776.12,-300 776.12,-280 825.88,-280 825.88,-300"/>
<text xml:space="preserve" text-anchor="middle" x="801" y="-286.5" font-family="Helvetica,sans-Serif" font-size="10.00">Bot.hpp</text>
</a>
</g>
</g>
<!-- Node1&#45;&gt;Node2 -->
<g id="edge1_Node000001_Node000002" class="edge">
<title>Node1&#45;&gt;Node2</title>
<g id="a_edge1_Node000001_Node000002"><a xlink:title=" ">
<path fill="none" stroke="#63b8ff" d="M883.41,-335.55C866.39,-326.35 844.91,-314.74 828.15,-305.68"/>
<polygon fill="#63b8ff" stroke="#63b8ff" points="830.2,-302.8 819.74,-301.13 826.87,-308.96 830.2,-302.8"/>
</a>
</g>
</g>
<!-- Node20 -->
<g id="Node000020" class="node">
<title>Node20</title>
<g id="a_Node000020"><a xlink:href="IMessageCommand_8hpp.html" target="_top" xlink:title=" ">
<polygon fill="white" stroke="#666666" points="1236.25,-188 1113.75,-188 1113.75,-168 1236.25,-168 1236.25,-188"/>
<text xml:space="preserve" text-anchor="middle" x="1175" y="-174.5" font-family="Helvetica,sans-Serif" font-size="10.00">IMessageCommand.hpp</text>
</a>
</g>
</g>
<!-- Node1&#45;&gt;Node20 -->
<g id="edge46_Node000001_Node000020" class="edge">
<title>Node1&#45;&gt;Node20</title>
<g id="a_edge46_Node000001_Node000020"><a xlink:title=" ">
<path fill="none" stroke="#63b8ff" d="M935.34,-335.74C985.09,-303.2 1101.11,-227.32 1151.23,-194.54"/>
<polygon fill="#63b8ff" stroke="#63b8ff" points="1152.89,-197.64 1159.35,-189.24 1149.06,-191.78 1152.89,-197.64"/>
</a>
</g>
</g>
<!-- Node3 -->
<g id="Node000003" class="node">
<title>Node3</title>
<g id="a_Node000003"><a xlink:href="Core_8hpp.html" target="_top" xlink:title=" ">
<polygon fill="white" stroke="#666666" points="671.88,-244 616.12,-244 616.12,-224 671.88,-224 671.88,-244"/>
<text xml:space="preserve" text-anchor="middle" x="644" y="-230.5" font-family="Helvetica,sans-Serif" font-size="10.00">Core.hpp</text>
</a>
</g>
</g>
<!-- Node2&#45;&gt;Node3 -->
<g id="edge2_Node000002_Node000003" class="edge">
<title>Node2&#45;&gt;Node3</title>
<g id="a_edge2_Node000002_Node000003"><a xlink:title=" ">
<path fill="none" stroke="#63b8ff" d="M775.78,-280.32C750.49,-271.63 711.24,-258.13 682.14,-248.12"/>
<polygon fill="#63b8ff" stroke="#63b8ff" points="683.57,-244.91 672.97,-244.96 681.29,-251.53 683.57,-244.91"/>
</a>
</g>
</g>
<!-- Node8 -->
<g id="Node000008" class="node">
<title>Node8</title>
<g id="a_Node000008"><a xlink:title=" ">
<polygon fill="#e0e0e0" stroke="#999999" points="40,-132 0,-132 0,-112 40,-112 40,-132"/>
<text xml:space="preserve" text-anchor="middle" x="20" y="-118.5" font-family="Helvetica,sans-Serif" font-size="10.00">string</text>
</a>
</g>
</g>
<!-- Node2&#45;&gt;Node8 -->
<g id="edge44_Node000002_Node000008" class="edge">
<title>Node2&#45;&gt;Node8</title>
<g id="a_edge44_Node000002_Node000008"><a xlink:title=" ">
<path fill="none" stroke="#63b8ff" d="M775.79,-288.14C701.05,-285.31 474.32,-274.62 289,-244 185.62,-226.92 144.69,-249.69 60,-188 44.45,-176.67 33.67,-157.29 27.25,-142.63"/>
<polygon fill="#63b8ff" stroke="#63b8ff" points="30.58,-141.5 23.6,-133.53 24.08,-144.11 30.58,-141.5"/>
</a>
</g>
</g>
<!-- Node9 -->
<g id="Node000009" class="node">
<title>Node9</title>
<g id="a_Node000009"><a xlink:title=" ">
<polygon fill="#e0e0e0" stroke="#999999" points="338.5,-132 295.5,-132 295.5,-112 338.5,-112 338.5,-132"/>
<text xml:space="preserve" text-anchor="middle" x="317" y="-118.5" font-family="Helvetica,sans-Serif" font-size="10.00">vector</text>
</a>
</g>
</g>
<!-- Node2&#45;&gt;Node9 -->
<g id="edge45_Node000002_Node000009" class="edge">
<title>Node2&#45;&gt;Node9</title>
<g id="a_edge45_Node000002_Node000009"><a xlink:title=" ">
<path fill="none" stroke="#63b8ff" d="M775.77,-288.63C675.26,-286.57 305.52,-273.23 236,-188 217.58,-165.41 254.72,-145.44 284.59,-133.78"/>
<polygon fill="#63b8ff" stroke="#63b8ff" points="285.57,-137.15 293.74,-130.39 283.14,-130.58 285.57,-137.15"/>
</a>
</g>
</g>
<!-- Node13 -->
<g id="Node000013" class="node">
<title>Node13</title>
<g id="a_Node000013"><a xlink:href="IButtonCommand_8hpp.html" target="_top" xlink:title=" ">
<polygon fill="white" stroke="#666666" points="972.62,-188 861.38,-188 861.38,-168 972.62,-168 972.62,-188"/>
<text xml:space="preserve" text-anchor="middle" x="917" y="-174.5" font-family="Helvetica,sans-Serif" font-size="10.00">IButtonCommand.hpp</text>
</a>
</g>
</g>
<!-- Node2&#45;&gt;Node13 -->
<g id="edge34_Node000002_Node000013" class="edge">
<title>Node2&#45;&gt;Node13</title>
<g id="a_edge34_Node000002_Node000013"><a xlink:title=" ">
<path fill="none" stroke="#63b8ff" d="M805.49,-279.7C812.35,-266.2 826.5,-240.94 844,-224 856.44,-211.95 872.65,-201.56 886.64,-193.81"/>
<polygon fill="#63b8ff" stroke="#63b8ff" points="888.27,-196.9 895.46,-189.12 884.99,-190.72 888.27,-196.9"/>
</a>
</g>
</g>
<!-- Node16 -->
<g id="Node000016" class="node">
<title>Node16</title>
<g id="a_Node000016"><a xlink:href="IFormCommand_8hpp.html" target="_top" xlink:title=" ">
<polygon fill="white" stroke="#666666" points="1095.62,-188 990.38,-188 990.38,-168 1095.62,-168 1095.62,-188"/>
<text xml:space="preserve" text-anchor="middle" x="1043" y="-174.5" font-family="Helvetica,sans-Serif" font-size="10.00">IFormCommand.hpp</text>
</a>
</g>
</g>
<!-- Node2&#45;&gt;Node16 -->
<g id="edge35_Node000002_Node000016" class="edge">
<title>Node2&#45;&gt;Node16</title>
<g id="a_edge35_Node000002_Node000016"><a xlink:title=" ">
<path fill="none" stroke="#63b8ff" d="M809.38,-279.55C822.44,-265.39 849.06,-238.76 877,-224 908.65,-207.28 947.05,-196.35 978.95,-189.46"/>
<polygon fill="#63b8ff" stroke="#63b8ff" points="979.37,-192.94 988.45,-187.49 977.95,-186.09 979.37,-192.94"/>
</a>
</g>
</g>
<!-- Node17 -->
<g id="Node000017" class="node">
<title>Node17</title>
<g id="a_Node000017"><a xlink:href="IGlobalSlashCommand_8hpp.html" target="_top" xlink:title=" ">
<polygon fill="white" stroke="#666666" points="380.62,-188 245.38,-188 245.38,-168 380.62,-168 380.62,-188"/>
<text xml:space="preserve" text-anchor="middle" x="313" y="-174.5" font-family="Helvetica,sans-Serif" font-size="10.00">IGlobalSlashCommand.hpp</text>
</a>
</g>
</g>
<!-- Node2&#45;&gt;Node17 -->
<g id="edge36_Node000002_Node000017" class="edge">
<title>Node2&#45;&gt;Node17</title>
<g id="a_edge36_Node000002_Node000017"><a xlink:title=" ">
<path fill="none" stroke="#63b8ff" d="M775.79,-283.32C699.6,-266.14 470.57,-214.52 366.05,-190.96"/>
<polygon fill="#63b8ff" stroke="#63b8ff" points="366.83,-187.55 356.31,-188.76 365.29,-194.38 366.83,-187.55"/>
</a>
</g>
</g>
<!-- Node19 -->
<g id="Node000019" class="node">
<title>Node19</title>
<g id="a_Node000019"><a xlink:href="IMemberCommand_8hpp.html" target="_top" xlink:title=" ">
<polygon fill="white" stroke="#666666" points="703,-188 585,-188 585,-168 703,-168 703,-188"/>
<text xml:space="preserve" text-anchor="middle" x="644" y="-174.5" font-family="Helvetica,sans-Serif" font-size="10.00">IMemberCommand.hpp</text>
</a>
</g>
</g>
<!-- Node2&#45;&gt;Node19 -->
<g id="edge37_Node000002_Node000019" class="edge">
<title>Node2&#45;&gt;Node19</title>
<g id="a_edge37_Node000002_Node000019"><a xlink:title=" ">
<path fill="none" stroke="#63b8ff" d="M787.61,-279.62C760.73,-260.79 699.93,-218.18 666.71,-194.91"/>
<polygon fill="#63b8ff" stroke="#63b8ff" points="668.79,-192.09 658.59,-189.22 664.77,-197.83 668.79,-192.09"/>
</a>
</g>
</g>
<!-- Node2&#45;&gt;Node20 -->
<g id="edge38_Node000002_Node000020" class="edge">
<title>Node2&#45;&gt;Node20</title>
<g id="a_edge38_Node000002_Node000020"><a xlink:title=" ">
<path fill="none" stroke="#63b8ff" d="M826.12,-281.61C888.87,-263.15 1053.09,-214.86 1131.76,-191.72"/>
<polygon fill="#63b8ff" stroke="#63b8ff" points="1132.67,-195.1 1141.27,-188.92 1130.69,-188.38 1132.67,-195.1"/>
</a>
</g>
</g>
<!-- Node21 -->
<g id="Node000021" class="node">
<title>Node21</title>
<g id="a_Node000021"><a xlink:href="IReactionCommand_8hpp.html" target="_top" xlink:title=" ">
<polygon fill="white" stroke="#666666" points="842.88,-188 721.12,-188 721.12,-168 842.88,-168 842.88,-188"/>
<text xml:space="preserve" text-anchor="middle" x="782" y="-174.5" font-family="Helvetica,sans-Serif" font-size="10.00">IReactionCommand.hpp</text>
</a>
</g>
</g>
<!-- Node2&#45;&gt;Node21 -->
<g id="edge39_Node000002_Node000021" class="edge">
<title>Node2&#45;&gt;Node21</title>
<g id="a_edge39_Node000002_Node000021"><a xlink:title=" ">
<path fill="none" stroke="#63b8ff" d="M799.38,-279.62C796.34,-262.01 789.7,-223.59 785.57,-199.65"/>
<polygon fill="#63b8ff" stroke="#63b8ff" points="789.02,-199.1 783.87,-189.85 782.13,-200.3 789.02,-199.1"/>
</a>
</g>
</g>
<!-- Node22 -->
<g id="Node000022" class="node">
<title>Node22</title>
<g id="a_Node000022"><a xlink:href="IReady_8hpp.html" target="_top" xlink:title=" ">
<polygon fill="white" stroke="#666666" points="1319.75,-188 1254.25,-188 1254.25,-168 1319.75,-168 1319.75,-188"/>
<text xml:space="preserve" text-anchor="middle" x="1287" y="-174.5" font-family="Helvetica,sans-Serif" font-size="10.00">IReady.hpp</text>
</a>
</g>
</g>
<!-- Node2&#45;&gt;Node22 -->
<g id="edge40_Node000002_Node000022" class="edge">
<title>Node2&#45;&gt;Node22</title>
<g id="a_edge40_Node000002_Node000022"><a xlink:title=" ">
<path fill="none" stroke="#63b8ff" d="M826.08,-283.42C864.12,-274.95 938.69,-258.31 1002,-244 1087.44,-224.69 1187.23,-201.87 1243.18,-189.05"/>
<polygon fill="#63b8ff" stroke="#63b8ff" points="1243.66,-192.53 1252.62,-186.89 1242.09,-185.71 1243.66,-192.53"/>
</a>
</g>
</g>
<!-- Node23 -->
<g id="Node000023" class="node">
<title>Node23</title>
<g id="a_Node000023"><a xlink:title=" ">
<polygon fill="#e0e0e0" stroke="#999999" points="937.62,-244 886.38,-244 886.38,-224 937.62,-224 937.62,-244"/>
<text xml:space="preserve" text-anchor="middle" x="912" y="-230.5" font-family="Helvetica,sans-Serif" font-size="10.00">memory</text>
</a>
</g>
</g>
<!-- Node2&#45;&gt;Node23 -->
<g id="edge43_Node000002_Node000023" class="edge">
<title>Node2&#45;&gt;Node23</title>
<g id="a_edge43_Node000002_Node000023"><a xlink:title=" ">
<path fill="none" stroke="#63b8ff" d="M820.33,-279.59C837.42,-271.28 862.6,-259.03 882.25,-249.47"/>
<polygon fill="#63b8ff" stroke="#63b8ff" points="883.69,-252.66 891.15,-245.14 880.63,-246.37 883.69,-252.66"/>
</a>
</g>
</g>
<!-- Node4 -->
<g id="Node000004" class="node">
<title>Node4</title>
<g id="a_Node000004"><a xlink:title=" ">
<polygon fill="#e0e0e0" stroke="#999999" points="457.38,-188 398.62,-188 398.62,-168 457.38,-168 457.38,-188"/>
<text xml:space="preserve" text-anchor="middle" x="428" y="-174.5" font-family="Helvetica,sans-Serif" font-size="10.00">dpp/dpp.h</text>
</a>
</g>
</g>
<!-- Node3&#45;&gt;Node4 -->
<g id="edge3_Node000003_Node000004" class="edge">
<title>Node3&#45;&gt;Node4</title>
<g id="a_edge3_Node000003_Node000004"><a xlink:title=" ">
<path fill="none" stroke="#63b8ff" d="M615.76,-225.94C578.18,-216.55 511.49,-199.87 468.54,-189.13"/>
<polygon fill="#63b8ff" stroke="#63b8ff" points="469.65,-185.8 459.1,-186.77 467.95,-192.6 469.65,-185.8"/>
</a>
</g>
</g>
<!-- Node5 -->
<g id="Node000005" class="node">
<title>Node5</title>
<g id="a_Node000005"><a xlink:title=" ">
<polygon fill="#e0e0e0" stroke="#999999" points="566.5,-188 475.5,-188 475.5,-168 566.5,-168 566.5,-188"/>
<text xml:space="preserve" text-anchor="middle" x="521" y="-174.5" font-family="Helvetica,sans-Serif" font-size="10.00">dpp/misc&#45;enum.h</text>
</a>
</g>
</g>
<!-- Node3&#45;&gt;Node5 -->
<g id="edge4_Node000003_Node000005" class="edge">
<title>Node3&#45;&gt;Node5</title>
<g id="a_edge4_Node000003_Node000005"><a xlink:title=" ">
<path fill="none" stroke="#63b8ff" d="M622.58,-223.59C603.38,-215.17 574.96,-202.69 553.06,-193.07"/>
<polygon fill="#63b8ff" stroke="#63b8ff" points="554.54,-189.9 543.98,-189.09 551.73,-196.31 554.54,-189.9"/>
</a>
</g>
</g>
<!-- Node6 -->
<g id="Node000006" class="node">
<title>Node6</title>
<g id="a_Node000006"><a xlink:href="Database_8hpp.html" target="_top" xlink:title=" ">
<polygon fill="white" stroke="#666666" points="182.38,-188 105.62,-188 105.62,-168 182.38,-168 182.38,-188"/>
<text xml:space="preserve" text-anchor="middle" x="144" y="-174.5" font-family="Helvetica,sans-Serif" font-size="10.00">Database.hpp</text>
</a>
</g>
</g>
<!-- Node3&#45;&gt;Node6 -->
<g id="edge5_Node000003_Node000006" class="edge">
<title>Node3&#45;&gt;Node6</title>
<g id="a_edge5_Node000003_Node000006"><a xlink:title=" ">
<path fill="none" stroke="#63b8ff" d="M615.69,-229.94C534.13,-221.13 297.91,-195.62 194.02,-184.4"/>
<polygon fill="#63b8ff" stroke="#63b8ff" points="194.44,-180.93 184.12,-183.33 193.69,-187.89 194.44,-180.93"/>
</a>
</g>
</g>
<!-- Node3&#45;&gt;Node8 -->
<g id="edge33_Node000003_Node000008" class="edge">
<title>Node3&#45;&gt;Node8</title>
<g id="a_edge33_Node000003_Node000008"><a xlink:title=" ">
<path fill="none" stroke="#63b8ff" d="M615.76,-232.93C517.64,-232.33 192.34,-227.37 97,-188 71.86,-177.62 48.85,-155.87 34.66,-140.39"/>
<polygon fill="#63b8ff" stroke="#63b8ff" points="37.62,-138.45 28.38,-133.27 32.37,-143.08 37.62,-138.45"/>
</a>
</g>
</g>
<!-- Node3&#45;&gt;Node13 -->
<g id="edge13_Node000003_Node000013" class="edge">
<title>Node3&#45;&gt;Node13</title>
<g id="a_edge13_Node000003_Node000013"><a xlink:title=" ">
<path fill="none" stroke="#63b8ff" d="M672.19,-227.42C715.8,-218.8 800.6,-202.02 858.02,-190.67"/>
<polygon fill="#63b8ff" stroke="#63b8ff" points="858.5,-194.14 867.63,-188.77 857.14,-187.27 858.5,-194.14"/>
</a>
</g>
</g>
<!-- Node3&#45;&gt;Node16 -->
<g id="edge16_Node000003_Node000016" class="edge">
<title>Node3&#45;&gt;Node16</title>
<g id="a_edge16_Node000003_Node000016"><a xlink:title=" ">
<path fill="none" stroke="#63b8ff" d="M672.06,-229.4C728.26,-222.16 858.87,-205.19 978.9,-188.42"/>
<polygon fill="#63b8ff" stroke="#63b8ff" points="979.19,-191.91 988.61,-187.06 978.22,-184.98 979.19,-191.91"/>
</a>
</g>
</g>
<!-- Node3&#45;&gt;Node17 -->
<g id="edge19_Node000003_Node000017" class="edge">
<title>Node3&#45;&gt;Node17</title>
<g id="a_edge19_Node000003_Node000017"><a xlink:title=" ">
<path fill="none" stroke="#63b8ff" d="M615.78,-228.4C564.51,-220.03 454.69,-202.12 382.37,-190.32"/>
<polygon fill="#63b8ff" stroke="#63b8ff" points="383.02,-186.88 372.59,-188.72 381.9,-193.79 383.02,-186.88"/>
</a>
</g>
</g>
<!-- Node3&#45;&gt;Node19 -->
<g id="edge24_Node000003_Node000019" class="edge">
<title>Node3&#45;&gt;Node19</title>
<g id="a_edge24_Node000003_Node000019"><a xlink:title=" ">
<path fill="none" stroke="#63b8ff" d="M644,-223.59C644,-217.01 644,-207.96 644,-199.73"/>
<polygon fill="#63b8ff" stroke="#63b8ff" points="647.5,-199.81 644,-189.81 640.5,-199.81 647.5,-199.81"/>
</a>
</g>
</g>
<!-- Node3&#45;&gt;Node20 -->
<g id="edge27_Node000003_Node000020" class="edge">
<title>Node3&#45;&gt;Node20</title>
<g id="a_edge27_Node000003_Node000020"><a xlink:title=" ">
<path fill="none" stroke="#63b8ff" d="M672.36,-230.54C743.01,-224.33 932.8,-207.27 1102.17,-188.29"/>
<polygon fill="#63b8ff" stroke="#63b8ff" points="1102.5,-191.78 1112.05,-187.18 1101.72,-184.82 1102.5,-191.78"/>
</a>
</g>
</g>
<!-- Node3&#45;&gt;Node21 -->
<g id="edge30_Node000003_Node000021" class="edge">
<title>Node3&#45;&gt;Node21</title>
<g id="a_edge30_Node000003_Node000021"><a xlink:title=" ">
<path fill="none" stroke="#63b8ff" d="M668.04,-223.59C689.97,-215.01 722.63,-202.23 747.37,-192.55"/>
<polygon fill="#63b8ff" stroke="#63b8ff" points="748.33,-195.93 756.37,-189.03 745.78,-189.42 748.33,-195.93"/>
</a>
</g>
</g>
<!-- Node7 -->
<g id="Node000007" class="node">
<title>Node7</title>
<g id="a_Node000007"><a xlink:title=" ">
<polygon fill="#e0e0e0" stroke="#999999" points="111.75,-132 58.25,-132 58.25,-112 111.75,-112 111.75,-132"/>
<text xml:space="preserve" text-anchor="middle" x="85" y="-118.5" font-family="Helvetica,sans-Serif" font-size="10.00">iostream</text>
</a>
</g>
</g>
<!-- Node6&#45;&gt;Node7 -->
<g id="edge6_Node000006_Node000007" class="edge">
<title>Node6&#45;&gt;Node7</title>
<g id="a_edge6_Node000006_Node000007"><a xlink:title=" ">
<path fill="none" stroke="#63b8ff" d="M133.72,-167.59C125.43,-160.01 113.55,-149.13 103.6,-140.02"/>
<polygon fill="#63b8ff" stroke="#63b8ff" points="106.02,-137.49 96.28,-133.32 101.29,-142.65 106.02,-137.49"/>
</a>
</g>
</g>
<!-- Node6&#45;&gt;Node8 -->
<g id="edge7_Node000006_Node000008" class="edge">
<title>Node6&#45;&gt;Node8</title>
<g id="a_edge7_Node000006_Node000008"><a xlink:title=" ">
<path fill="none" stroke="#63b8ff" d="M122.4,-167.59C102.48,-158.92 72.72,-145.96 50.4,-136.24"/>
<polygon fill="#63b8ff" stroke="#63b8ff" points="52.07,-133.15 41.51,-132.37 49.28,-139.57 52.07,-133.15"/>
</a>
</g>
</g>
<!-- Node6&#45;&gt;Node9 -->
<g id="edge8_Node000006_Node000009" class="edge">
<title>Node6&#45;&gt;Node9</title>
<g id="a_edge8_Node000006_Node000009"><a xlink:title=" ">
<path fill="none" stroke="#63b8ff" d="M174.13,-167.59C204.91,-157.99 252.56,-143.11 284.26,-133.22"/>
<polygon fill="#63b8ff" stroke="#63b8ff" points="285.2,-136.59 293.7,-130.27 283.12,-129.91 285.2,-136.59"/>
</a>
</g>
</g>
<!-- Node10 -->
<g id="Node000010" class="node">
<title>Node10</title>
<g id="a_Node000010"><a xlink:href="DatabaseBackend_8hpp.html" target="_top" xlink:title=" ">
<polygon fill="white" stroke="#666666" points="238.5,-76 123.5,-76 123.5,-56 238.5,-56 238.5,-76"/>
<text xml:space="preserve" text-anchor="middle" x="181" y="-62.5" font-family="Helvetica,sans-Serif" font-size="10.00">DatabaseBackend.hpp</text>
</a>
</g>
</g>
<!-- Node6&#45;&gt;Node10 -->
<g id="edge9_Node000006_Node000010" class="edge">
<title>Node6&#45;&gt;Node10</title>
<g id="a_edge9_Node000006_Node000010"><a xlink:title=" ">
<path fill="none" stroke="#63b8ff" d="M145.48,-167.55C147.65,-154.73 152.19,-131.21 159,-112 162.08,-103.31 166.38,-94.1 170.37,-86.29"/>
<polygon fill="#63b8ff" stroke="#63b8ff" points="173.32,-88.19 174.92,-77.72 167.14,-84.91 173.32,-88.19"/>
</a>
</g>
</g>
<!-- Node12 -->
<g id="Node000012" class="node">
<title>Node12</title>
<g id="a_Node000012"><a xlink:href="RowDTOAdapter_8hpp.html" target="_top" xlink:title=" ">
<polygon fill="white" stroke="#666666" points="277.88,-132 168.12,-132 168.12,-112 277.88,-112 277.88,-132"/>
<text xml:space="preserve" text-anchor="middle" x="223" y="-118.5" font-family="Helvetica,sans-Serif" font-size="10.00">RowDTOAdapter.hpp</text>
</a>
</g>
</g>
<!-- Node6&#45;&gt;Node12 -->
<g id="edge11_Node000006_Node000012" class="edge">
<title>Node6&#45;&gt;Node12</title>
<g id="a_edge11_Node000006_Node000012"><a xlink:title=" ">
<path fill="none" stroke="#63b8ff" d="M157.76,-167.59C169.36,-159.67 186.2,-148.16 199.86,-138.82"/>
<polygon fill="#63b8ff" stroke="#63b8ff" points="201.6,-141.87 207.88,-133.33 197.65,-136.09 201.6,-141.87"/>
</a>
</g>
</g>
<!-- Node11 -->
<g id="Node000011" class="node">
<title>Node11</title>
<g id="a_Node000011"><a xlink:title=" ">
<polygon fill="#e0e0e0" stroke="#999999" points="211.5,-20 150.5,-20 150.5,0 211.5,0 211.5,-20"/>
<text xml:space="preserve" text-anchor="middle" x="181" y="-6.5" font-family="Helvetica,sans-Serif" font-size="10.00">pqxx/pqxx</text>
</a>
</g>
</g>
<!-- Node10&#45;&gt;Node11 -->
<g id="edge10_Node000010_Node000011" class="edge">
<title>Node10&#45;&gt;Node11</title>
<g id="a_edge10_Node000010_Node000011"><a xlink:title=" ">
<path fill="none" stroke="#63b8ff" d="M181,-55.59C181,-49.01 181,-39.96 181,-31.73"/>
<polygon fill="#63b8ff" stroke="#63b8ff" points="184.5,-31.81 181,-21.81 177.5,-31.81 184.5,-31.81"/>
</a>
</g>
</g>
<!-- Node12&#45;&gt;Node10 -->
<g id="edge12_Node000012_Node000010" class="edge">
<title>Node12&#45;&gt;Node10</title>
<g id="a_edge12_Node000012_Node000010"><a xlink:title=" ">
<path fill="none" stroke="#63b8ff" d="M215.68,-111.59C210.02,-104.32 202.01,-94.02 195.11,-85.15"/>
<polygon fill="#63b8ff" stroke="#63b8ff" points="198.06,-83.24 189.16,-77.49 192.54,-87.54 198.06,-83.24"/>
</a>
</g>
</g>
<!-- Node14 -->
<g id="Node000014" class="node">
<title>Node14</title>
<g id="a_Node000014"><a xlink:title=" ">
<polygon fill="#e0e0e0" stroke="#999999" points="904.12,-132 831.88,-132 831.88,-112 904.12,-112 904.12,-132"/>
<text xml:space="preserve" text-anchor="middle" x="868" y="-118.5" font-family="Helvetica,sans-Serif" font-size="10.00">dpp/cluster.h</text>
</a>
</g>
</g>
<!-- Node13&#45;&gt;Node14 -->
<g id="edge14_Node000013_Node000014" class="edge">
<title>Node13&#45;&gt;Node14</title>
<g id="a_edge14_Node000013_Node000014"><a xlink:title=" ">
<path fill="none" stroke="#63b8ff" d="M908.46,-167.59C901.72,-160.16 892.11,-149.58 883.96,-140.58"/>
<polygon fill="#63b8ff" stroke="#63b8ff" points="886.77,-138.47 877.45,-133.42 881.58,-143.18 886.77,-138.47"/>
</a>
</g>
</g>
<!-- Node15 -->
<g id="Node000015" class="node">
<title>Node15</title>
<g id="a_Node000015"><a xlink:title=" ">
<polygon fill="#e0e0e0" stroke="#999999" points="1010,-132 922,-132 922,-112 1010,-112 1010,-132"/>
<text xml:space="preserve" text-anchor="middle" x="966" y="-118.5" font-family="Helvetica,sans-Serif" font-size="10.00">dpp/dispatcher.h</text>
</a>
</g>
</g>
<!-- Node13&#45;&gt;Node15 -->
<g id="edge15_Node000013_Node000015" class="edge">
<title>Node13&#45;&gt;Node15</title>
<g id="a_edge15_Node000013_Node000015"><a xlink:title=" ">
<path fill="none" stroke="#63b8ff" d="M925.54,-167.59C932.28,-160.16 941.89,-149.58 950.04,-140.58"/>
<polygon fill="#63b8ff" stroke="#63b8ff" points="952.42,-143.18 956.55,-133.42 947.23,-138.47 952.42,-143.18"/>
</a>
</g>
</g>
<!-- Node16&#45;&gt;Node14 -->
<g id="edge17_Node000016_Node000014" class="edge">
<title>Node16&#45;&gt;Node14</title>
<g id="a_edge17_Node000016_Node000014"><a xlink:title=" ">
<path fill="none" stroke="#63b8ff" d="M1012.52,-167.59C983.96,-158.78 941.05,-145.54 909.4,-135.78"/>
<polygon fill="#63b8ff" stroke="#63b8ff" points="910.75,-132.53 900.17,-132.93 908.69,-139.22 910.75,-132.53"/>
</a>
</g>
</g>
<!-- Node16&#45;&gt;Node15 -->
<g id="edge18_Node000016_Node000015" class="edge">
<title>Node16&#45;&gt;Node15</title>
<g id="a_edge18_Node000016_Node000015"><a xlink:title=" ">
<path fill="none" stroke="#63b8ff" d="M1029.59,-167.59C1018.39,-159.74 1002.19,-148.38 988.94,-139.09"/>
<polygon fill="#63b8ff" stroke="#63b8ff" points="990.95,-136.22 980.76,-133.35 986.93,-141.96 990.95,-136.22"/>
</a>
</g>
</g>
<!-- Node17&#45;&gt;Node9 -->
<g id="edge23_Node000017_Node000009" class="edge">
<title>Node17&#45;&gt;Node9</title>
<g id="a_edge23_Node000017_Node000009"><a xlink:title=" ">
<path fill="none" stroke="#63b8ff" d="M313.7,-167.59C314.18,-161.01 314.85,-151.96 315.46,-143.73"/>
<polygon fill="#63b8ff" stroke="#63b8ff" points="318.95,-144.04 316.2,-133.81 311.97,-143.52 318.95,-144.04"/>
</a>
</g>
</g>
<!-- Node17&#45;&gt;Node14 -->
<g id="edge21_Node000017_Node000014" class="edge">
<title>Node17&#45;&gt;Node14</title>
<g id="a_edge21_Node000017_Node000014"><a xlink:title=" ">
<path fill="none" stroke="#63b8ff" d="M381.01,-168.97C384.05,-168.63 387.06,-168.31 390,-168 547.31,-151.4 734.07,-134.68 820.17,-127.14"/>
<polygon fill="#63b8ff" stroke="#63b8ff" points="820.23,-130.65 829.88,-126.3 819.62,-123.68 820.23,-130.65"/>
</a>
</g>
</g>
<!-- Node17&#45;&gt;Node15 -->
<g id="edge22_Node000017_Node000015" class="edge">
<title>Node17&#45;&gt;Node15</title>
<g id="a_edge22_Node000017_Node000015"><a xlink:title=" ">
<path fill="none" stroke="#63b8ff" d="M381,-168.87C384.04,-168.57 387.05,-168.27 390,-168 618.37,-146.81 679.73,-159.14 910.4,-132.2"/>
<polygon fill="#63b8ff" stroke="#63b8ff" points="910.49,-135.71 920.01,-131.06 909.67,-128.76 910.49,-135.71"/>
</a>
</g>
</g>
<!-- Node18 -->
<g id="Node000018" class="node">
<title>Node18</title>
<g id="a_Node000018"><a xlink:title=" ">
<polygon fill="#e0e0e0" stroke="#999999" points="439.38,-132 356.62,-132 356.62,-112 439.38,-112 439.38,-132"/>
<text xml:space="preserve" text-anchor="middle" x="398" y="-118.5" font-family="Helvetica,sans-Serif" font-size="10.00">appcommand.h</text>
</a>
</g>
</g>
<!-- Node17&#45;&gt;Node18 -->
<g id="edge20_Node000017_Node000018" class="edge">
<title>Node17&#45;&gt;Node18</title>
<g id="a_edge20_Node000017_Node000018"><a xlink:title=" ">
<path fill="none" stroke="#63b8ff" d="M327.81,-167.59C340.4,-159.59 358.75,-147.93 373.53,-138.54"/>
<polygon fill="#63b8ff" stroke="#63b8ff" points="375.24,-141.61 381.8,-133.29 371.48,-135.7 375.24,-141.61"/>
</a>
</g>
</g>
<!-- Node19&#45;&gt;Node14 -->
<g id="edge25_Node000019_Node000014" class="edge">
<title>Node19&#45;&gt;Node14</title>
<g id="a_edge25_Node000019_Node000014"><a xlink:title=" ">
<path fill="none" stroke="#63b8ff" d="M683.27,-167.53C721.58,-158.3 779.88,-144.24 820.72,-134.4"/>
<polygon fill="#63b8ff" stroke="#63b8ff" points="821.37,-137.84 830.27,-132.1 819.73,-131.04 821.37,-137.84"/>
</a>
</g>
</g>
<!-- Node19&#45;&gt;Node15 -->
<g id="edge26_Node000019_Node000015" class="edge">
<title>Node19&#45;&gt;Node15</title>
<g id="a_edge26_Node000019_Node000015"><a xlink:title=" ">
<path fill="none" stroke="#63b8ff" d="M700.94,-167.52C752.95,-158.84 832.29,-145.59 910.7,-132.38"/>
<polygon fill="#63b8ff" stroke="#63b8ff" points="910.98,-135.89 920.26,-130.77 909.82,-128.98 910.98,-135.89"/>
</a>
</g>
</g>
<!-- Node20&#45;&gt;Node14 -->
<g id="edge28_Node000020_Node000014" class="edge">
<title>Node20&#45;&gt;Node14</title>
<g id="a_edge28_Node000020_Node000014"><a xlink:title=" ">
<path fill="none" stroke="#63b8ff" d="M1117.16,-167.53C1066.51,-159.13 990.63,-146.3 915.42,-132.41"/>
<polygon fill="#63b8ff" stroke="#63b8ff" points="916.29,-129.01 905.82,-130.63 915.02,-135.9 916.29,-129.01"/>
</a>
</g>
</g>
<!-- Node20&#45;&gt;Node15 -->
<g id="edge29_Node000020_Node000015" class="edge">
<title>Node20&#45;&gt;Node15</title>
<g id="a_edge29_Node000020_Node000015"><a xlink:title=" ">
<path fill="none" stroke="#63b8ff" d="M1138.59,-167.59C1103.89,-158.63 1051.45,-145.08 1013.48,-135.27"/>
<polygon fill="#63b8ff" stroke="#63b8ff" points="1014.71,-131.97 1004.15,-132.86 1012.96,-138.75 1014.71,-131.97"/>
</a>
</g>
</g>
<!-- Node21&#45;&gt;Node14 -->
<g id="edge31_Node000021_Node000014" class="edge">
<title>Node21&#45;&gt;Node14</title>
<g id="a_edge31_Node000021_Node000014"><a xlink:title=" ">
<path fill="none" stroke="#63b8ff" d="M796.98,-167.59C809.73,-159.59 828.29,-147.93 843.24,-138.54"/>
<polygon fill="#63b8ff" stroke="#63b8ff" points="845.01,-141.57 851.62,-133.28 841.29,-135.64 845.01,-141.57"/>
</a>
</g>
</g>
<!-- Node21&#45;&gt;Node15 -->
<g id="edge32_Node000021_Node000015" class="edge">
<title>Node21&#45;&gt;Node15</title>
<g id="a_edge32_Node000021_Node000015"><a xlink:title=" ">
<path fill="none" stroke="#63b8ff" d="M814.05,-167.59C844.21,-158.74 889.59,-145.43 922.9,-135.65"/>
<polygon fill="#63b8ff" stroke="#63b8ff" points="923.64,-139.08 932.25,-132.91 921.67,-132.36 923.64,-139.08"/>
</a>
</g>
</g>
<!-- Node22&#45;&gt;Node14 -->
<g id="edge41_Node000022_Node000014" class="edge">
<title>Node22&#45;&gt;Node14</title>
<g id="a_edge41_Node000022_Node000014"><a xlink:title=" ">
<path fill="none" stroke="#63b8ff" d="M1254.05,-169.6C1251,-169.02 1247.94,-168.47 1245,-168 1102.04,-145 1061.65,-154.1 915.48,-132.25"/>
<polygon fill="#63b8ff" stroke="#63b8ff" points="916.21,-128.82 905.8,-130.78 915.16,-135.74 916.21,-128.82"/>
</a>
</g>
</g>
<!-- Node22&#45;&gt;Node15 -->
<g id="edge42_Node000022_Node000015" class="edge">
<title>Node22&#45;&gt;Node15</title>
<g id="a_edge42_Node000022_Node000015"><a xlink:title=" ">
<path fill="none" stroke="#63b8ff" d="M1254.02,-169.77C1250.97,-169.15 1247.93,-168.55 1245,-168 1167.63,-153.48 1077.65,-139.48 1021.26,-131.06"/>
<polygon fill="#63b8ff" stroke="#63b8ff" points="1022,-127.63 1011.59,-129.62 1020.97,-134.56 1022,-127.63"/>
</a>
</g>
</g>
</g>
</svg>
