<?xml version="1.0" encoding="UTF-8" standalone="no"?>
<!DOCTYPE svg PUBLIC "-//W3C//DTD SVG 1.1//EN"
 "http://www.w3.org/Graphics/SVG/1.1/DTD/svg11.dtd">
<!-- Generated by graphviz version 13.0.1 (0)
 -->
<!-- Title: src/bot_library/commands/portal/repositories/BlacklistRepository.cpp Pages: 1 -->
<svg width="423pt" height="332pt"
 viewBox="0.00 0.00 423.00 332.00" xmlns="http://www.w3.org/2000/svg" xmlns:xlink="http://www.w3.org/1999/xlink">
<g id="graph0" class="graph" transform="scale(1 1) rotate(0) translate(4 328)">
<title>src/bot_library/commands/portal/repositories/BlacklistRepository.cpp</title>
<!-- Node1 -->
<g id="Node000001" class="node">
<title>Node1</title>
<g id="a_Node000001"><a xlink:title=" ">
<polygon fill="#999999" stroke="#666666" points="264.5,-324 127.75,-324 127.75,-280 264.5,-280 264.5,-324"/>
<text xml:space="preserve" text-anchor="start" x="135.75" y="-310.5" font-family="Helvetica,sans-Serif" font-size="10.00">src/bot_library/commands</text>
<text xml:space="preserve" text-anchor="start" x="135.75" y="-298.5" font-family="Helvetica,sans-Serif" font-size="10.00">/portal/repositories/Blacklist</text>
<text xml:space="preserve" text-anchor="middle" x="196.12" y="-286.5" font-family="Helvetica,sans-Serif" font-size="10.00">Repository.cpp</text>
</a>
</g>
</g>
<!-- Node2 -->
<g id="Node000002" class="node">
<title>Node2</title>
<g id="a_Node000002"><a xlink:href="BlacklistRepository_8hpp.html" target="_top" xlink:title=" ">
<polygon fill="white" stroke="#666666" points="168.5,-244 49.75,-244 49.75,-224 168.5,-224 168.5,-244"/>
<text xml:space="preserve" text-anchor="middle" x="109.12" y="-230.5" font-family="Helvetica,sans-Serif" font-size="10.00">BlacklistRepository.hpp</text>
</a>
</g>
</g>
<!-- Node1&#45;&gt;Node2 -->
<g id="edge1_Node000001_Node000002" class="edge">
<title>Node1&#45;&gt;Node2</title>
<g id="a_edge1_Node000001_Node000002"><a xlink:title=" ">
<path fill="none" stroke="#63b8ff" d="M168.12,-279.75C155.98,-270.54 141.99,-259.93 130.68,-251.35"/>
<polygon fill="#63b8ff" stroke="#63b8ff" points="132.83,-248.59 122.75,-245.33 128.6,-254.17 132.83,-248.59"/>
</a>
</g>
</g>
<!-- Node3 -->
<g id="Node000003" class="node">
<title>Node3</title>
<g id="a_Node000003"><a xlink:href="BlacklistDTO_8hpp.html" target="_top" xlink:title=" ">
<polygon fill="white" stroke="#666666" points="226.75,-188 133.5,-188 133.5,-168 226.75,-168 226.75,-188"/>
<text xml:space="preserve" text-anchor="middle" x="180.12" y="-174.5" font-family="Helvetica,sans-Serif" font-size="10.00">BlacklistDTO.hpp</text>
</a>
</g>
</g>
<!-- Node1&#45;&gt;Node3 -->
<g id="edge17_Node000001_Node000003" class="edge">
<title>Node1&#45;&gt;Node3</title>
<g id="a_edge17_Node000001_Node000003"><a xlink:title=" ">
<path fill="none" stroke="#63b8ff" d="M193.34,-279.75C190.38,-257.16 185.72,-221.69 182.8,-199.42"/>
<polygon fill="#63b8ff" stroke="#63b8ff" points="186.31,-199.26 181.54,-189.8 179.37,-200.17 186.31,-199.26"/>
</a>
</g>
</g>
<!-- Node9 -->
<g id="Node000009" class="node">
<title>Node9</title>
<g id="a_Node000009"><a xlink:title=" ">
<polygon fill="#e0e0e0" stroke="#999999" points="48.25,-132 0,-132 0,-112 48.25,-112 48.25,-132"/>
<text xml:space="preserve" text-anchor="middle" x="24.12" y="-118.5" font-family="Helvetica,sans-Serif" font-size="10.00">cstddef</text>
</a>
</g>
</g>
<!-- Node1&#45;&gt;Node9 -->
<g id="edge15_Node000001_Node000009" class="edge">
<title>Node1&#45;&gt;Node9</title>
<g id="a_edge15_Node000001_Node000009"><a xlink:title=" ">
<path fill="none" stroke="#63b8ff" d="M127.42,-289.55C97.47,-281.39 64.04,-267.51 41.12,-244 15.17,-217.38 16.79,-170.5 20.39,-143.58"/>
<polygon fill="#63b8ff" stroke="#63b8ff" points="23.8,-144.37 21.91,-133.94 16.89,-143.27 23.8,-144.37"/>
</a>
</g>
</g>
<!-- Node10 -->
<g id="Node000010" class="node">
<title>Node10</title>
<g id="a_Node000010"><a xlink:href="Database_8hpp.html" target="_top" xlink:title=" ">
<polygon fill="white" stroke="#666666" points="321.5,-188 244.75,-188 244.75,-168 321.5,-168 321.5,-188"/>
<text xml:space="preserve" text-anchor="middle" x="283.12" y="-174.5" font-family="Helvetica,sans-Serif" font-size="10.00">Database.hpp</text>
</a>
</g>
</g>
<!-- Node1&#45;&gt;Node10 -->
<g id="edge9_Node000001_Node000010" class="edge">
<title>Node1&#45;&gt;Node10</title>
<g id="a_edge9_Node000001_Node000010"><a xlink:title=" ">
<path fill="none" stroke="#63b8ff" d="M211.28,-279.75C227.84,-256.53 254.1,-219.7 269.87,-197.59"/>
<polygon fill="#63b8ff" stroke="#63b8ff" points="272.66,-199.71 275.61,-189.53 266.96,-195.64 272.66,-199.71"/>
</a>
</g>
</g>
<!-- Node12 -->
<g id="Node000012" class="node">
<title>Node12</title>
<g id="a_Node000012"><a xlink:title=" ">
<polygon fill="#e0e0e0" stroke="#999999" points="414.62,-132 371.62,-132 371.62,-112 414.62,-112 414.62,-132"/>
<text xml:space="preserve" text-anchor="middle" x="393.12" y="-118.5" font-family="Helvetica,sans-Serif" font-size="10.00">vector</text>
</a>
</g>
</g>
<!-- Node1&#45;&gt;Node12 -->
<g id="edge16_Node000001_Node000012" class="edge">
<title>Node1&#45;&gt;Node12</title>
<g id="a_edge16_Node000001_Node000012"><a xlink:title=" ">
<path fill="none" stroke="#63b8ff" d="M222.99,-279.67C250.54,-257.5 294.3,-221.43 330.12,-188 346.74,-172.49 364.69,-153.76 377.16,-140.4"/>
<polygon fill="#63b8ff" stroke="#63b8ff" points="379.58,-142.94 383.81,-133.22 374.45,-138.18 379.58,-142.94"/>
</a>
</g>
</g>
<!-- Node2&#45;&gt;Node3 -->
<g id="edge2_Node000002_Node000003" class="edge">
<title>Node2&#45;&gt;Node3</title>
<g id="a_edge2_Node000002_Node000003"><a xlink:title=" ">
<path fill="none" stroke="#63b8ff" d="M121.49,-223.59C131.77,-215.77 146.64,-204.46 158.84,-195.19"/>
<polygon fill="#63b8ff" stroke="#63b8ff" points="160.85,-198.05 166.69,-189.21 156.62,-192.48 160.85,-198.05"/>
</a>
</g>
</g>
<!-- Node8 -->
<g id="Node000008" class="node">
<title>Node8</title>
<g id="a_Node000008"><a xlink:href="IRepository_8hpp.html" target="_top" xlink:title=" ">
<polygon fill="white" stroke="#666666" points="115.25,-188 31,-188 31,-168 115.25,-168 115.25,-188"/>
<text xml:space="preserve" text-anchor="middle" x="73.12" y="-174.5" font-family="Helvetica,sans-Serif" font-size="10.00">IRepository.hpp</text>
</a>
</g>
</g>
<!-- Node2&#45;&gt;Node8 -->
<g id="edge7_Node000002_Node000008" class="edge">
<title>Node2&#45;&gt;Node8</title>
<g id="a_edge7_Node000002_Node000008"><a xlink:title=" ">
<path fill="none" stroke="#63b8ff" d="M102.85,-223.59C98.11,-216.47 91.43,-206.45 85.6,-197.72"/>
<polygon fill="#63b8ff" stroke="#63b8ff" points="88.62,-195.94 80.16,-189.56 82.8,-199.82 88.62,-195.94"/>
</a>
</g>
</g>
<!-- Node4 -->
<g id="Node000004" class="node">
<title>Node4</title>
<g id="a_Node000004"><a xlink:href="RowDTOAdapter_8hpp.html" target="_top" xlink:title=" ">
<polygon fill="white" stroke="#666666" points="186,-132 76.25,-132 76.25,-112 186,-112 186,-132"/>
<text xml:space="preserve" text-anchor="middle" x="131.12" y="-118.5" font-family="Helvetica,sans-Serif" font-size="10.00">RowDTOAdapter.hpp</text>
</a>
</g>
</g>
<!-- Node3&#45;&gt;Node4 -->
<g id="edge3_Node000003_Node000004" class="edge">
<title>Node3&#45;&gt;Node4</title>
<g id="a_edge3_Node000003_Node000004"><a xlink:title=" ">
<path fill="none" stroke="#63b8ff" d="M171.59,-167.59C164.84,-160.16 155.24,-149.58 147.08,-140.58"/>
<polygon fill="#63b8ff" stroke="#63b8ff" points="149.89,-138.47 140.58,-133.42 144.71,-143.18 149.89,-138.47"/>
</a>
</g>
</g>
<!-- Node7 -->
<g id="Node000007" class="node">
<title>Node7</title>
<g id="a_Node000007"><a xlink:title=" ">
<polygon fill="#e0e0e0" stroke="#999999" points="244.12,-132 204.12,-132 204.12,-112 244.12,-112 244.12,-132"/>
<text xml:space="preserve" text-anchor="middle" x="224.12" y="-118.5" font-family="Helvetica,sans-Serif" font-size="10.00">string</text>
</a>
</g>
</g>
<!-- Node3&#45;&gt;Node7 -->
<g id="edge6_Node000003_Node000007" class="edge">
<title>Node3&#45;&gt;Node7</title>
<g id="a_edge6_Node000003_Node000007"><a xlink:title=" ">
<path fill="none" stroke="#63b8ff" d="M187.79,-167.59C193.72,-160.32 202.11,-150.02 209.34,-141.15"/>
<polygon fill="#63b8ff" stroke="#63b8ff" points="211.99,-143.43 215.59,-133.47 206.56,-139.01 211.99,-143.43"/>
</a>
</g>
</g>
<!-- Node5 -->
<g id="Node000005" class="node">
<title>Node5</title>
<g id="a_Node000005"><a xlink:href="DatabaseBackend_8hpp.html" target="_top" xlink:title=" ">
<polygon fill="white" stroke="#666666" points="258.62,-76 143.62,-76 143.62,-56 258.62,-56 258.62,-76"/>
<text xml:space="preserve" text-anchor="middle" x="201.12" y="-62.5" font-family="Helvetica,sans-Serif" font-size="10.00">DatabaseBackend.hpp</text>
</a>
</g>
</g>
<!-- Node4&#45;&gt;Node5 -->
<g id="edge4_Node000004_Node000005" class="edge">
<title>Node4&#45;&gt;Node5</title>
<g id="a_edge4_Node000004_Node000005"><a xlink:title=" ">
<path fill="none" stroke="#63b8ff" d="M143.32,-111.59C153.46,-103.77 168.12,-92.46 180.14,-83.19"/>
<polygon fill="#63b8ff" stroke="#63b8ff" points="182.09,-86.1 187.87,-77.22 177.82,-80.56 182.09,-86.1"/>
</a>
</g>
</g>
<!-- Node6 -->
<g id="Node000006" class="node">
<title>Node6</title>
<g id="a_Node000006"><a xlink:title=" ">
<polygon fill="#e0e0e0" stroke="#999999" points="231.62,-20 170.62,-20 170.62,0 231.62,0 231.62,-20"/>
<text xml:space="preserve" text-anchor="middle" x="201.12" y="-6.5" font-family="Helvetica,sans-Serif" font-size="10.00">pqxx/pqxx</text>
</a>
</g>
</g>
<!-- Node5&#45;&gt;Node6 -->
<g id="edge5_Node000005_Node000006" class="edge">
<title>Node5&#45;&gt;Node6</title>
<g id="a_edge5_Node000005_Node000006"><a xlink:title=" ">
<path fill="none" stroke="#63b8ff" d="M201.12,-55.59C201.12,-49.01 201.12,-39.96 201.12,-31.73"/>
<polygon fill="#63b8ff" stroke="#63b8ff" points="204.63,-31.81 201.13,-21.81 197.63,-31.81 204.63,-31.81"/>
</a>
</g>
</g>
<!-- Node8&#45;&gt;Node9 -->
<g id="edge8_Node000008_Node000009" class="edge">
<title>Node8&#45;&gt;Node9</title>
<g id="a_edge8_Node000008_Node000009"><a xlink:title=" ">
<path fill="none" stroke="#63b8ff" d="M64.59,-167.59C57.84,-160.16 48.24,-149.58 40.08,-140.58"/>
<polygon fill="#63b8ff" stroke="#63b8ff" points="42.89,-138.47 33.58,-133.42 37.71,-143.18 42.89,-138.47"/>
</a>
</g>
</g>
<!-- Node10&#45;&gt;Node4 -->
<g id="edge14_Node000010_Node000004" class="edge">
<title>Node10&#45;&gt;Node4</title>
<g id="a_edge14_Node000010_Node000004"><a xlink:title=" ">
<path fill="none" stroke="#63b8ff" d="M256.65,-167.59C232.28,-158.94 195.87,-146 168.54,-136.29"/>
<polygon fill="#63b8ff" stroke="#63b8ff" points="169.83,-133.04 159.23,-132.99 167.49,-139.63 169.83,-133.04"/>
</a>
</g>
</g>
<!-- Node10&#45;&gt;Node5 -->
<g id="edge13_Node000010_Node000005" class="edge">
<title>Node10&#45;&gt;Node5</title>
<g id="a_edge13_Node000010_Node000005"><a xlink:title=" ">
<path fill="none" stroke="#63b8ff" d="M280.32,-167.94C275.94,-154.75 266.57,-129.88 253.12,-112 244.97,-101.15 233.8,-91.07 223.91,-83.21"/>
<polygon fill="#63b8ff" stroke="#63b8ff" points="226.23,-80.58 216.16,-77.31 222,-86.15 226.23,-80.58"/>
</a>
</g>
</g>
<!-- Node10&#45;&gt;Node7 -->
<g id="edge11_Node000010_Node000007" class="edge">
<title>Node10&#45;&gt;Node7</title>
<g id="a_edge11_Node000010_Node000007"><a xlink:title=" ">
<path fill="none" stroke="#63b8ff" d="M272.85,-167.59C264.56,-160.01 252.68,-149.13 242.72,-140.02"/>
<polygon fill="#63b8ff" stroke="#63b8ff" points="245.14,-137.49 235.4,-133.32 240.41,-142.65 245.14,-137.49"/>
</a>
</g>
</g>
<!-- Node11 -->
<g id="Node000011" class="node">
<title>Node11</title>
<g id="a_Node000011"><a xlink:title=" ">
<polygon fill="#e0e0e0" stroke="#999999" points="353.88,-132 300.38,-132 300.38,-112 353.88,-112 353.88,-132"/>
<text xml:space="preserve" text-anchor="middle" x="327.12" y="-118.5" font-family="Helvetica,sans-Serif" font-size="10.00">iostream</text>
</a>
</g>
</g>
<!-- Node10&#45;&gt;Node11 -->
<g id="edge10_Node000010_Node000011" class="edge">
<title>Node10&#45;&gt;Node11</title>
<g id="a_edge10_Node000010_Node000011"><a xlink:title=" ">
<path fill="none" stroke="#63b8ff" d="M290.79,-167.59C296.72,-160.32 305.11,-150.02 312.34,-141.15"/>
<polygon fill="#63b8ff" stroke="#63b8ff" points="314.99,-143.43 318.59,-133.47 309.56,-139.01 314.99,-143.43"/>
</a>
</g>
</g>
<!-- Node10&#45;&gt;Node12 -->
<g id="edge12_Node000010_Node000012" class="edge">
<title>Node10&#45;&gt;Node12</title>
<g id="a_edge12_Node000010_Node000012"><a xlink:title=" ">
<path fill="none" stroke="#63b8ff" d="M302.29,-167.59C319.22,-159.28 344.17,-147.03 363.65,-137.47"/>
<polygon fill="#63b8ff" stroke="#63b8ff" points="365.02,-140.7 372.46,-133.15 361.94,-134.41 365.02,-140.7"/>
</a>
</g>
</g>
</g>
</svg>
