<?xml version="1.0" encoding="UTF-8" standalone="no"?>
<!DOCTYPE svg PUBLIC "-//W3C//DTD SVG 1.1//EN"
 "http://www.w3.org/Graphics/SVG/1.1/DTD/svg11.dtd">
<!-- Generated by graphviz version 9.0.0 (0)
 -->
<!-- Title: src/bot.cpp Pages: 1 -->
<svg width="1896pt" height="308pt"
 viewBox="0.00 0.00 1895.62 308.00" xmlns="http://www.w3.org/2000/svg" xmlns:xlink="http://www.w3.org/1999/xlink">
<g id="graph0" class="graph" transform="scale(1 1) rotate(0) translate(4 304)">
<title>src/bot.cpp</title>
<!-- Node1 -->
<g id="Node000001" class="node">
<title>Node1</title>
<g id="a_Node000001"><a xlink:title=" ">
<polygon fill="#999999" stroke="#666666" points="571.38,-300 506.62,-300 506.62,-280 571.38,-280 571.38,-300"/>
<text text-anchor="middle" x="539" y="-286.5" font-family="Helvetica,sans-Serif" font-size="10.00">src/bot.cpp</text>
</a>
</g>
</g>
<!-- Node2 -->
<g id="Node000002" class="node">
<title>Node2</title>
<g id="a_Node000002"><a xlink:href="bot_8hpp.html" target="_top" xlink:title=" ">
<polygon fill="white" stroke="#666666" points="155.12,-244 106.88,-244 106.88,-224 155.12,-224 155.12,-244"/>
<text text-anchor="middle" x="131" y="-230.5" font-family="Helvetica,sans-Serif" font-size="10.00">bot.hpp</text>
</a>
</g>
</g>
<!-- Node1&#45;&gt;Node2 -->
<g id="edge1_Node000001_Node000002" class="edge">
<title>Node1&#45;&gt;Node2</title>
<g id="a_edge1_Node000001_Node000002"><a xlink:title=" ">
<path fill="none" stroke="#63b8ff" d="M506.25,-286.18C441.64,-280.35 293.31,-265.68 170,-244 168.8,-243.79 167.59,-243.57 166.36,-243.33"/>
<polygon fill="#63b8ff" stroke="#63b8ff" points="167.25,-239.94 156.74,-241.32 165.82,-246.79 167.25,-239.94"/>
</a>
</g>
</g>
<!-- Node3 -->
<g id="Node000003" class="node">
<title>Node3</title>
<g id="a_Node000003"><a xlink:title=" ">
<polygon fill="#e0e0e0" stroke="#999999" points="88,-188 0,-188 0,-168 88,-168 88,-188"/>
<text text-anchor="middle" x="44" y="-174.5" font-family="Helvetica,sans-Serif" font-size="10.00">dpp/dispatcher.h</text>
</a>
</g>
</g>
<!-- Node1&#45;&gt;Node3 -->
<g id="edge5_Node000001_Node000003" class="edge">
<title>Node1&#45;&gt;Node3</title>
<g id="a_edge5_Node000001_Node000003"><a xlink:title=" ">
<path fill="none" stroke="#63b8ff" d="M506.4,-288.82C416.81,-287.85 168.8,-281.73 98,-244 78.62,-233.67 63.44,-213.2 54.18,-197.98"/>
<polygon fill="#63b8ff" stroke="#63b8ff" points="57.25,-196.3 49.25,-189.36 51.17,-199.78 57.25,-196.3"/>
</a>
</g>
</g>
<!-- Node6 -->
<g id="Node000006" class="node">
<title>Node6</title>
<g id="a_Node000006"><a xlink:title=" ">
<polygon fill="#e0e0e0" stroke="#999999" points="303.5,-132 212.5,-132 212.5,-112 303.5,-112 303.5,-132"/>
<text text-anchor="middle" x="258" y="-118.5" font-family="Helvetica,sans-Serif" font-size="10.00">dpp/misc&#45;enum.h</text>
</a>
</g>
</g>
<!-- Node1&#45;&gt;Node6 -->
<g id="edge6_Node000001_Node000006" class="edge">
<title>Node1&#45;&gt;Node6</title>
<g id="a_edge6_Node000001_Node000006"><a xlink:title=" ">
<path fill="none" stroke="#63b8ff" d="M507.69,-279.51C483.53,-271.59 449.67,-259.17 422,-244 365.45,-213 306.28,-164.8 276.9,-139.61"/>
<polygon fill="#63b8ff" stroke="#63b8ff" points="279.44,-137.18 269.59,-133.29 274.86,-142.48 279.44,-137.18"/>
</a>
</g>
</g>
<!-- Node7 -->
<g id="Node000007" class="node">
<title>Node7</title>
<g id="a_Node000007"><a xlink:title=" ">
<polygon fill="#e0e0e0" stroke="#999999" points="294.38,-244 211.62,-244 211.62,-224 294.38,-224 294.38,-244"/>
<text text-anchor="middle" x="253" y="-230.5" font-family="Helvetica,sans-Serif" font-size="10.00">dpp/presence.h</text>
</a>
</g>
</g>
<!-- Node1&#45;&gt;Node7 -->
<g id="edge7_Node000001_Node000007" class="edge">
<title>Node1&#45;&gt;Node7</title>
<g id="a_edge7_Node000001_Node000007"><a xlink:title=" ">
<path fill="none" stroke="#63b8ff" d="M506.19,-282.81C457.22,-273.56 364.51,-256.05 305.89,-244.99"/>
<polygon fill="#63b8ff" stroke="#63b8ff" points="306.61,-241.56 296.13,-243.14 305.31,-248.44 306.61,-241.56"/>
</a>
</g>
</g>
<!-- Node8 -->
<g id="Node000008" class="node">
<title>Node8</title>
<g id="a_Node000008"><a xlink:title=" ">
<polygon fill="#e0e0e0" stroke="#999999" points="375.25,-244 312.75,-244 312.75,-224 375.25,-224 375.25,-244"/>
<text text-anchor="middle" x="344" y="-230.5" font-family="Helvetica,sans-Serif" font-size="10.00">fmt/color.h</text>
</a>
</g>
</g>
<!-- Node1&#45;&gt;Node8 -->
<g id="edge8_Node000001_Node000008" class="edge">
<title>Node1&#45;&gt;Node8</title>
<g id="a_edge8_Node000001_Node000008"><a xlink:title=" ">
<path fill="none" stroke="#63b8ff" d="M506.36,-279.96C473.35,-270.82 422.17,-256.65 386.12,-246.66"/>
<polygon fill="#63b8ff" stroke="#63b8ff" points="387.48,-243.41 376.91,-244.11 385.61,-250.16 387.48,-243.41"/>
</a>
</g>
</g>
<!-- Node9 -->
<g id="Node000009" class="node">
<title>Node9</title>
<g id="a_Node000009"><a xlink:title=" ">
<polygon fill="#e0e0e0" stroke="#999999" points="675.12,-132 614.88,-132 614.88,-112 675.12,-112 675.12,-132"/>
<text text-anchor="middle" x="645" y="-118.5" font-family="Helvetica,sans-Serif" font-size="10.00">fmt/core.h</text>
</a>
</g>
</g>
<!-- Node1&#45;&gt;Node9 -->
<g id="edge9_Node000001_Node000009" class="edge">
<title>Node1&#45;&gt;Node9</title>
<g id="a_edge9_Node000001_Node000009"><a xlink:title=" ">
<path fill="none" stroke="#63b8ff" d="M533.95,-279.66C526.27,-266.12 510.59,-240.82 492,-224 464.46,-199.09 406.59,-196.82 430,-168 451.38,-141.68 546.82,-130.21 603.1,-125.66"/>
<polygon fill="#63b8ff" stroke="#63b8ff" points="603.26,-129.16 612.97,-124.91 602.73,-122.18 603.26,-129.16"/>
</a>
</g>
</g>
<!-- Node10 -->
<g id="Node000010" class="node">
<title>Node10</title>
<g id="a_Node000010"><a xlink:title=" ">
<polygon fill="#e0e0e0" stroke="#999999" points="483,-244 431,-244 431,-224 483,-224 483,-244"/>
<text text-anchor="middle" x="457" y="-230.5" font-family="Helvetica,sans-Serif" font-size="10.00">fmt/os.h</text>
</a>
</g>
</g>
<!-- Node1&#45;&gt;Node10 -->
<g id="edge10_Node000001_Node000010" class="edge">
<title>Node1&#45;&gt;Node10</title>
<g id="a_edge10_Node000001_Node000010"><a xlink:title=" ">
<path fill="none" stroke="#63b8ff" d="M524.72,-279.59C512.56,-271.59 494.86,-259.93 480.6,-250.54"/>
<polygon fill="#63b8ff" stroke="#63b8ff" points="482.94,-247.89 472.66,-245.31 479.09,-253.73 482.94,-247.89"/>
</a>
</g>
</g>
<!-- Node11 -->
<g id="Node000011" class="node">
<title>Node11</title>
<g id="a_Node000011"><a xlink:href="ChallengeRoleCommand_8hpp.html" target="_top" xlink:title=" ">
<polygon fill="white" stroke="#666666" points="880.75,-244 737.25,-244 737.25,-224 880.75,-224 880.75,-244"/>
<text text-anchor="middle" x="809" y="-230.5" font-family="Helvetica,sans-Serif" font-size="10.00">ChallengeRoleCommand.hpp</text>
</a>
</g>
</g>
<!-- Node1&#45;&gt;Node11 -->
<g id="edge11_Node000001_Node000011" class="edge">
<title>Node1&#45;&gt;Node11</title>
<g id="a_edge11_Node000001_Node000011"><a xlink:title=" ">
<path fill="none" stroke="#63b8ff" d="M571.84,-282.43C616.18,-273.56 695.95,-257.61 750.64,-246.67"/>
<polygon fill="#63b8ff" stroke="#63b8ff" points="751.3,-250.11 760.42,-244.72 749.93,-243.25 751.3,-250.11"/>
</a>
</g>
</g>
<!-- Node16 -->
<g id="Node000016" class="node">
<title>Node16</title>
<g id="a_Node000016"><a xlink:href="Database_8hpp.html" target="_top" xlink:title=" ">
<polygon fill="white" stroke="#666666" points="1128.75,-132 1009.25,-132 1009.25,-112 1128.75,-112 1128.75,-132"/>
<text text-anchor="middle" x="1069" y="-118.5" font-family="Helvetica,sans-Serif" font-size="10.00">database/Database.hpp</text>
</a>
</g>
</g>
<!-- Node1&#45;&gt;Node16 -->
<g id="edge50_Node000001_Node000016" class="edge">
<title>Node1&#45;&gt;Node16</title>
<g id="a_edge50_Node000001_Node000016"><a xlink:title=" ">
<path fill="none" stroke="#63b8ff" d="M571.78,-288.72C682.4,-287.44 1036.84,-280.51 1071,-244 1096.27,-216.99 1085.84,-169.91 1076.86,-143.14"/>
<polygon fill="#63b8ff" stroke="#63b8ff" points="1080.18,-142.04 1073.48,-133.83 1073.6,-144.42 1080.18,-142.04"/>
</a>
</g>
</g>
<!-- Node21 -->
<g id="Node000021" class="node">
<title>Node21</title>
<g id="a_Node000021"><a xlink:title=" ">
<polygon fill="#e0e0e0" stroke="#999999" points="612,-76 572,-76 572,-56 612,-56 612,-76"/>
<text text-anchor="middle" x="592" y="-62.5" font-family="Helvetica,sans-Serif" font-size="10.00">string</text>
</a>
</g>
</g>
<!-- Node1&#45;&gt;Node21 -->
<g id="edge64_Node000001_Node000021" class="edge">
<title>Node1&#45;&gt;Node21</title>
<g id="a_edge64_Node000001_Node000021"><a xlink:title=" ">
<path fill="none" stroke="#63b8ff" d="M506.25,-289.8C429.64,-290.9 242.24,-288.85 203,-244 164.37,-199.85 163.97,-155.8 203,-112 226.65,-85.46 471.33,-72.25 560.08,-68.3"/>
<polygon fill="#63b8ff" stroke="#63b8ff" points="560.17,-71.8 570.01,-67.87 559.87,-64.81 560.17,-71.8"/>
</a>
</g>
</g>
<!-- Node27 -->
<g id="Node000027" class="node">
<title>Node27</title>
<g id="a_Node000027"><a xlink:href="CommandRegister_8hpp.html" target="_top" xlink:title=" ">
<polygon fill="white" stroke="#666666" points="1290.25,-244 1173.75,-244 1173.75,-224 1290.25,-224 1290.25,-244"/>
<text text-anchor="middle" x="1232" y="-230.5" font-family="Helvetica,sans-Serif" font-size="10.00">CommandRegister.hpp</text>
</a>
</g>
</g>
<!-- Node1&#45;&gt;Node27 -->
<g id="edge34_Node000001_Node000027" class="edge">
<title>Node1&#45;&gt;Node27</title>
<g id="a_edge34_Node000001_Node000027"><a xlink:title=" ">
<path fill="none" stroke="#63b8ff" d="M571.71,-287.23C664.19,-282.1 935.44,-266.16 1160,-244 1160.69,-243.93 1161.37,-243.86 1162.07,-243.79"/>
<polygon fill="#63b8ff" stroke="#63b8ff" points="1162.4,-247.28 1171.97,-242.73 1161.66,-240.32 1162.4,-247.28"/>
</a>
</g>
</g>
<!-- Node28 -->
<g id="Node000028" class="node">
<title>Node28</title>
<g id="a_Node000028"><a xlink:href="Commands_8hpp.html" target="_top" xlink:title=" ">
<polygon fill="white" stroke="#666666" points="1355.5,-188 1270.5,-188 1270.5,-168 1355.5,-168 1355.5,-188"/>
<text text-anchor="middle" x="1313" y="-174.5" font-family="Helvetica,sans-Serif" font-size="10.00">Commands.hpp</text>
</a>
</g>
</g>
<!-- Node1&#45;&gt;Node28 -->
<g id="edge39_Node000001_Node000028" class="edge">
<title>Node1&#45;&gt;Node28</title>
<g id="a_edge39_Node000001_Node000028"><a xlink:title=" ">
<path fill="none" stroke="#63b8ff" d="M571.77,-289.35C710.29,-290.52 1243.19,-291.86 1299,-244 1311.47,-233.31 1314.4,-214.41 1314.55,-199.74"/>
<polygon fill="#63b8ff" stroke="#63b8ff" points="1318.05,-199.63 1314.18,-189.76 1311.05,-199.89 1318.05,-199.63"/>
</a>
</g>
</g>
<!-- Node29 -->
<g id="Node000029" class="node">
<title>Node29</title>
<g id="a_Node000029"><a xlink:href="Core_8cpp.html" target="_top" xlink:title=" ">
<polygon fill="white" stroke="#666666" points="1648.88,-244 1593.12,-244 1593.12,-224 1648.88,-224 1648.88,-244"/>
<text text-anchor="middle" x="1621" y="-230.5" font-family="Helvetica,sans-Serif" font-size="10.00">Core.cpp</text>
</a>
</g>
</g>
<!-- Node1&#45;&gt;Node29 -->
<g id="edge40_Node000001_Node000029" class="edge">
<title>Node1&#45;&gt;Node29</title>
<g id="a_edge40_Node000001_Node000029"><a xlink:title=" ">
<path fill="none" stroke="#63b8ff" d="M571.68,-287.37C729.17,-279.51 1409.37,-245.56 1581.37,-236.98"/>
<polygon fill="#63b8ff" stroke="#63b8ff" points="1581.53,-240.47 1591.35,-236.48 1581.18,-233.48 1581.53,-240.47"/>
</a>
</g>
</g>
<!-- Node37 -->
<g id="Node000037" class="node">
<title>Node37</title>
<g id="a_Node000037"><a xlink:href="resource__man_8hpp.html" target="_top" xlink:title=" ">
<polygon fill="white" stroke="#666666" points="1062.12,-244 965.88,-244 965.88,-224 1062.12,-224 1062.12,-244"/>
<text text-anchor="middle" x="1014" y="-230.5" font-family="Helvetica,sans-Serif" font-size="10.00">resource_man.hpp</text>
</a>
</g>
</g>
<!-- Node1&#45;&gt;Node37 -->
<g id="edge51_Node000001_Node000037" class="edge">
<title>Node1&#45;&gt;Node37</title>
<g id="a_edge51_Node000001_Node000037"><a xlink:title=" ">
<path fill="none" stroke="#63b8ff" d="M571.65,-285.29C650.66,-276.31 853.12,-253.29 954.42,-241.77"/>
<polygon fill="#63b8ff" stroke="#63b8ff" points="954.62,-245.27 964.16,-240.67 953.83,-238.32 954.62,-245.27"/>
</a>
</g>
</g>
<!-- Node38 -->
<g id="Node000038" class="node">
<title>Node38</title>
<g id="a_Node000038"><a xlink:href="roles_8hpp.html" target="_top" xlink:title=" ">
<polygon fill="white" stroke="#666666" points="594.88,-244 539.12,-244 539.12,-224 594.88,-224 594.88,-244"/>
<text text-anchor="middle" x="567" y="-230.5" font-family="Helvetica,sans-Serif" font-size="10.00">roles.hpp</text>
</a>
</g>
</g>
<!-- Node1&#45;&gt;Node38 -->
<g id="edge54_Node000001_Node000038" class="edge">
<title>Node1&#45;&gt;Node38</title>
<g id="a_edge54_Node000001_Node000038"><a xlink:title=" ">
<path fill="none" stroke="#63b8ff" d="M543.88,-279.59C547.49,-272.63 552.54,-262.89 557,-254.29"/>
<polygon fill="#63b8ff" stroke="#63b8ff" points="559.99,-256.13 561.48,-245.64 553.77,-252.91 559.99,-256.13"/>
</a>
</g>
</g>
<!-- Node39 -->
<g id="Node000039" class="node">
<title>Node39</title>
<g id="a_Node000039"><a xlink:href="user__man_8hpp.html" target="_top" xlink:title=" ">
<polygon fill="white" stroke="#666666" points="1213.75,-188 1136.25,-188 1136.25,-168 1213.75,-168 1213.75,-188"/>
<text text-anchor="middle" x="1175" y="-174.5" font-family="Helvetica,sans-Serif" font-size="10.00">user_man.hpp</text>
</a>
</g>
</g>
<!-- Node1&#45;&gt;Node39 -->
<g id="edge65_Node000001_Node000039" class="edge">
<title>Node1&#45;&gt;Node39</title>
<g id="a_edge65_Node000001_Node000039"><a xlink:title=" ">
<path fill="none" stroke="#63b8ff" d="M571.67,-287.98C687.35,-284.14 1073.14,-269.55 1122,-244 1141.31,-233.9 1156.16,-213.39 1165.16,-198.1"/>
<polygon fill="#63b8ff" stroke="#63b8ff" points="1168.17,-199.88 1169.93,-189.43 1162.04,-196.5 1168.17,-199.88"/>
</a>
</g>
</g>
<!-- Node2&#45;&gt;Node3 -->
<g id="edge2_Node000002_Node000003" class="edge">
<title>Node2&#45;&gt;Node3</title>
<g id="a_edge2_Node000002_Node000003"><a xlink:title=" ">
<path fill="none" stroke="#63b8ff" d="M115.85,-223.59C102.95,-215.59 84.17,-203.93 69.04,-194.54"/>
<polygon fill="#63b8ff" stroke="#63b8ff" points="70.9,-191.58 60.56,-189.28 67.21,-197.53 70.9,-191.58"/>
</a>
</g>
</g>
<!-- Node4 -->
<g id="Node000004" class="node">
<title>Node4</title>
<g id="a_Node000004"><a xlink:title=" ">
<polygon fill="#e0e0e0" stroke="#999999" points="1205.38,-132 1146.62,-132 1146.62,-112 1205.38,-112 1205.38,-132"/>
<text text-anchor="middle" x="1176" y="-118.5" font-family="Helvetica,sans-Serif" font-size="10.00">dpp/dpp.h</text>
</a>
</g>
</g>
<!-- Node2&#45;&gt;Node4 -->
<g id="edge3_Node000002_Node000004" class="edge">
<title>Node2&#45;&gt;Node4</title>
<g id="a_edge3_Node000002_Node000004"><a xlink:title=" ">
<path fill="none" stroke="#63b8ff" d="M155.56,-227.12C211.28,-214.04 351.69,-182.56 471,-168 761.95,-132.5 842.14,-173.32 1134.83,-132.21"/>
<polygon fill="#63b8ff" stroke="#63b8ff" points="1135.32,-135.67 1144.73,-130.8 1134.33,-128.74 1135.32,-135.67"/>
</a>
</g>
</g>
<!-- Node5 -->
<g id="Node000005" class="node">
<title>Node5</title>
<g id="a_Node000005"><a xlink:title=" ">
<polygon fill="#e0e0e0" stroke="#999999" points="155.5,-188 106.5,-188 106.5,-168 155.5,-168 155.5,-188"/>
<text text-anchor="middle" x="131" y="-174.5" font-family="Helvetica,sans-Serif" font-size="10.00">fstream</text>
</a>
</g>
</g>
<!-- Node2&#45;&gt;Node5 -->
<g id="edge4_Node000002_Node000005" class="edge">
<title>Node2&#45;&gt;Node5</title>
<g id="a_edge4_Node000002_Node000005"><a xlink:title=" ">
<path fill="none" stroke="#63b8ff" d="M131,-223.59C131,-217.01 131,-207.96 131,-199.73"/>
<polygon fill="#63b8ff" stroke="#63b8ff" points="134.5,-199.81 131,-189.81 127.5,-199.81 134.5,-199.81"/>
</a>
</g>
</g>
<!-- Node11&#45;&gt;Node9 -->
<g id="edge15_Node000011_Node000009" class="edge">
<title>Node11&#45;&gt;Node9</title>
<g id="a_edge15_Node000011_Node000009"><a xlink:title=" ">
<path fill="none" stroke="#63b8ff" d="M843.48,-223.57C877.53,-212.57 921.75,-192.71 901,-168 874.11,-135.97 751.93,-126.73 686.57,-124.07"/>
<polygon fill="#63b8ff" stroke="#63b8ff" points="687.07,-120.59 676.95,-123.72 686.82,-127.58 687.07,-120.59"/>
</a>
</g>
</g>
<!-- Node12 -->
<g id="Node000012" class="node">
<title>Node12</title>
<g id="a_Node000012"><a xlink:title=" ">
<polygon fill="#e0e0e0" stroke="#999999" points="891.62,-188 822.38,-188 822.38,-168 891.62,-168 891.62,-188"/>
<text text-anchor="middle" x="857" y="-174.5" font-family="Helvetica,sans-Serif" font-size="10.00">dpp/colors.h</text>
</a>
</g>
</g>
<!-- Node11&#45;&gt;Node12 -->
<g id="edge12_Node000011_Node000012" class="edge">
<title>Node11&#45;&gt;Node12</title>
<g id="a_edge12_Node000011_Node000012"><a xlink:title=" ">
<path fill="none" stroke="#63b8ff" d="M817.36,-223.59C823.9,-216.24 833.18,-205.8 841.12,-196.87"/>
<polygon fill="#63b8ff" stroke="#63b8ff" points="843.7,-199.23 847.73,-189.43 838.47,-194.58 843.7,-199.23"/>
</a>
</g>
</g>
<!-- Node13 -->
<g id="Node000013" class="node">
<title>Node13</title>
<g id="a_Node000013"><a xlink:title=" ">
<polygon fill="#e0e0e0" stroke="#999999" points="697.38,-188 614.62,-188 614.62,-168 697.38,-168 697.38,-188"/>
<text text-anchor="middle" x="656" y="-174.5" font-family="Helvetica,sans-Serif" font-size="10.00">dpp/message.h</text>
</a>
</g>
</g>
<!-- Node11&#45;&gt;Node13 -->
<g id="edge13_Node000011_Node000013" class="edge">
<title>Node11&#45;&gt;Node13</title>
<g id="a_edge13_Node000011_Node000013"><a xlink:title=" ">
<path fill="none" stroke="#63b8ff" d="M782.35,-223.59C757.82,-214.94 721.17,-202 693.66,-192.29"/>
<polygon fill="#63b8ff" stroke="#63b8ff" points="694.88,-189.01 684.29,-188.98 692.55,-195.61 694.88,-189.01"/>
</a>
</g>
</g>
<!-- Node14 -->
<g id="Node000014" class="node">
<title>Node14</title>
<g id="a_Node000014"><a xlink:title=" ">
<polygon fill="#e0e0e0" stroke="#999999" points="804.38,-188 715.62,-188 715.62,-168 804.38,-168 804.38,-188"/>
<text text-anchor="middle" x="760" y="-174.5" font-family="Helvetica,sans-Serif" font-size="10.00">dpp/restresults.h</text>
</a>
</g>
</g>
<!-- Node11&#45;&gt;Node14 -->
<g id="edge14_Node000011_Node000014" class="edge">
<title>Node11&#45;&gt;Node14</title>
<g id="a_edge14_Node000011_Node000014"><a xlink:title=" ">
<path fill="none" stroke="#63b8ff" d="M800.46,-223.59C793.72,-216.16 784.11,-205.58 775.96,-196.58"/>
<polygon fill="#63b8ff" stroke="#63b8ff" points="778.77,-194.47 769.45,-189.42 773.58,-199.18 778.77,-194.47"/>
</a>
</g>
</g>
<!-- Node15 -->
<g id="Node000015" class="node">
<title>Node15</title>
<g id="a_Node000015"><a xlink:href="Core_8hpp.html" target="_top" xlink:title=" ">
<polygon fill="white" stroke="#666666" points="1041.88,-188 986.12,-188 986.12,-168 1041.88,-168 1041.88,-188"/>
<text text-anchor="middle" x="1014" y="-174.5" font-family="Helvetica,sans-Serif" font-size="10.00">Core.hpp</text>
</a>
</g>
</g>
<!-- Node11&#45;&gt;Node15 -->
<g id="edge16_Node000011_Node000015" class="edge">
<title>Node11&#45;&gt;Node15</title>
<g id="a_edge16_Node000011_Node000015"><a xlink:title=" ">
<path fill="none" stroke="#63b8ff" d="M844.71,-223.59C881.09,-214.01 937.37,-199.19 974.93,-189.29"/>
<polygon fill="#63b8ff" stroke="#63b8ff" points="975.7,-192.71 984.48,-186.78 973.91,-185.94 975.7,-192.71"/>
</a>
</g>
</g>
<!-- Node11&#45;&gt;Node16 -->
<g id="edge30_Node000011_Node000016" class="edge">
<title>Node11&#45;&gt;Node16</title>
<g id="a_edge30_Node000011_Node000016"><a xlink:title=" ">
<path fill="none" stroke="#63b8ff" d="M881.19,-227.94C943.3,-222.12 1026.63,-210.35 1051,-188 1063.28,-176.74 1067.47,-157.91 1068.77,-143.41"/>
<polygon fill="#63b8ff" stroke="#63b8ff" points="1072.26,-143.74 1069.23,-133.59 1065.26,-143.41 1072.26,-143.74"/>
</a>
</g>
</g>
<!-- Node11&#45;&gt;Node21 -->
<g id="edge33_Node000011_Node000021" class="edge">
<title>Node11&#45;&gt;Node21</title>
<g id="a_edge33_Node000011_Node000021"><a xlink:title=" ">
<path fill="none" stroke="#63b8ff" d="M855.61,-223.56C893.74,-213.64 938.33,-195.58 918,-168 882.29,-119.56 698,-84.4 623.4,-71.95"/>
<polygon fill="#63b8ff" stroke="#63b8ff" points="624.34,-68.55 613.9,-70.39 623.2,-75.46 624.34,-68.55"/>
</a>
</g>
</g>
<!-- Node25 -->
<g id="Node000025" class="node">
<title>Node25</title>
<g id="a_Node000025"><a xlink:title=" ">
<polygon fill="#e0e0e0" stroke="#999999" points="520,-188 480,-188 480,-168 520,-168 520,-188"/>
<text text-anchor="middle" x="500" y="-174.5" font-family="Helvetica,sans-Serif" font-size="10.00">stack</text>
</a>
</g>
</g>
<!-- Node11&#45;&gt;Node25 -->
<g id="edge31_Node000011_Node000025" class="edge">
<title>Node11&#45;&gt;Node25</title>
<g id="a_edge31_Node000011_Node000025"><a xlink:title=" ">
<path fill="none" stroke="#63b8ff" d="M736.81,-224.26C682.61,-217.04 606.42,-205.51 531.53,-188.33"/>
<polygon fill="#63b8ff" stroke="#63b8ff" points="532.5,-184.96 521.97,-186.1 530.91,-191.78 532.5,-184.96"/>
</a>
</g>
</g>
<!-- Node26 -->
<g id="Node000026" class="node">
<title>Node26</title>
<g id="a_Node000026"><a xlink:title=" ">
<polygon fill="#e0e0e0" stroke="#999999" points="596.38,-188 537.62,-188 537.62,-168 596.38,-168 596.38,-188"/>
<text text-anchor="middle" x="567" y="-174.5" font-family="Helvetica,sans-Serif" font-size="10.00">stdexcept</text>
</a>
</g>
</g>
<!-- Node11&#45;&gt;Node26 -->
<g id="edge32_Node000011_Node000026" class="edge">
<title>Node11&#45;&gt;Node26</title>
<g id="a_edge32_Node000011_Node000026"><a xlink:title=" ">
<path fill="none" stroke="#63b8ff" d="M765.81,-223.54C727.03,-215.02 668.23,-202.04 607.72,-188.37"/>
<polygon fill="#63b8ff" stroke="#63b8ff" points="608.81,-185.03 598.28,-186.24 607.26,-191.86 608.81,-185.03"/>
</a>
</g>
</g>
<!-- Node15&#45;&gt;Node4 -->
<g id="edge17_Node000015_Node000004" class="edge">
<title>Node15&#45;&gt;Node4</title>
<g id="a_edge17_Node000015_Node000004"><a xlink:title=" ">
<path fill="none" stroke="#63b8ff" d="M1042.22,-167.59C1068.42,-158.86 1107.68,-145.77 1136.9,-136.03"/>
<polygon fill="#63b8ff" stroke="#63b8ff" points="1137.75,-139.44 1146.13,-132.96 1135.53,-132.8 1137.75,-139.44"/>
</a>
</g>
</g>
<!-- Node15&#45;&gt;Node6 -->
<g id="edge18_Node000015_Node000006" class="edge">
<title>Node15&#45;&gt;Node6</title>
<g id="a_edge18_Node000015_Node000006"><a xlink:title=" ">
<path fill="none" stroke="#63b8ff" d="M985.68,-174.67C962.83,-172.81 929.85,-170.16 901,-168 684.63,-151.81 427.17,-134.33 314.98,-126.8"/>
<polygon fill="#63b8ff" stroke="#63b8ff" points="315.34,-123.32 305.13,-126.14 314.87,-130.3 315.34,-123.32"/>
</a>
</g>
</g>
<!-- Node15&#45;&gt;Node9 -->
<g id="edge19_Node000015_Node000009" class="edge">
<title>Node15&#45;&gt;Node9</title>
<g id="a_edge19_Node000015_Node000009"><a xlink:title=" ">
<path fill="none" stroke="#63b8ff" d="M985.66,-172.85C920.97,-163.39 762.2,-140.15 686.48,-129.07"/>
<polygon fill="#63b8ff" stroke="#63b8ff" points="687.4,-125.67 676.99,-127.68 686.38,-132.59 687.4,-125.67"/>
</a>
</g>
</g>
<!-- Node15&#45;&gt;Node16 -->
<g id="edge20_Node000015_Node000016" class="edge">
<title>Node15&#45;&gt;Node16</title>
<g id="a_edge20_Node000015_Node000016"><a xlink:title=" ">
<path fill="none" stroke="#63b8ff" d="M1023.58,-167.59C1031.23,-160.08 1042.16,-149.35 1051.38,-140.3"/>
<polygon fill="#63b8ff" stroke="#63b8ff" points="1053.77,-142.86 1058.45,-133.36 1048.86,-137.87 1053.77,-142.86"/>
</a>
</g>
</g>
<!-- Node17 -->
<g id="Node000017" class="node">
<title>Node17</title>
<g id="a_Node000017"><a xlink:title=" ">
<polygon fill="#e0e0e0" stroke="#999999" points="1181.12,-76 1132.88,-76 1132.88,-56 1181.12,-56 1181.12,-76"/>
<text text-anchor="middle" x="1157" y="-62.5" font-family="Helvetica,sans-Serif" font-size="10.00">cstddef</text>
</a>
</g>
</g>
<!-- Node16&#45;&gt;Node17 -->
<g id="edge21_Node000016_Node000017" class="edge">
<title>Node16&#45;&gt;Node17</title>
<g id="a_edge21_Node000016_Node000017"><a xlink:title=" ">
<path fill="none" stroke="#63b8ff" d="M1084.33,-111.59C1097.5,-103.51 1116.73,-91.71 1132.11,-82.27"/>
<polygon fill="#63b8ff" stroke="#63b8ff" points="1133.57,-85.48 1140.26,-77.27 1129.91,-79.52 1133.57,-85.48"/>
</a>
</g>
</g>
<!-- Node18 -->
<g id="Node000018" class="node">
<title>Node18</title>
<g id="a_Node000018"><a xlink:title=" ">
<polygon fill="#e0e0e0" stroke="#999999" points="1320.75,-76 1267.25,-76 1267.25,-56 1320.75,-56 1320.75,-76"/>
<text text-anchor="middle" x="1294" y="-62.5" font-family="Helvetica,sans-Serif" font-size="10.00">iostream</text>
</a>
</g>
</g>
<!-- Node16&#45;&gt;Node18 -->
<g id="edge22_Node000016_Node000018" class="edge">
<title>Node16&#45;&gt;Node18</title>
<g id="a_edge22_Node000016_Node000018"><a xlink:title=" ">
<path fill="none" stroke="#63b8ff" d="M1109.22,-111.56C1145.18,-103.09 1199.62,-90.2 1255.97,-76.48"/>
<polygon fill="#63b8ff" stroke="#63b8ff" points="1256.53,-79.94 1265.41,-74.17 1254.87,-73.14 1256.53,-79.94"/>
</a>
</g>
</g>
<!-- Node19 -->
<g id="Node000019" class="node">
<title>Node19</title>
<g id="a_Node000019"><a xlink:title=" ">
<polygon fill="#e0e0e0" stroke="#999999" points="1248.88,-76 1199.12,-76 1199.12,-56 1248.88,-56 1248.88,-76"/>
<text text-anchor="middle" x="1224" y="-62.5" font-family="Helvetica,sans-Serif" font-size="10.00">optional</text>
</a>
</g>
</g>
<!-- Node16&#45;&gt;Node19 -->
<g id="edge23_Node000016_Node000019" class="edge">
<title>Node16&#45;&gt;Node19</title>
<g id="a_edge23_Node000016_Node000019"><a xlink:title=" ">
<path fill="none" stroke="#63b8ff" d="M1096,-111.59C1121.57,-102.68 1160.14,-89.25 1188.26,-79.45"/>
<polygon fill="#63b8ff" stroke="#63b8ff" points="1189.13,-82.86 1197.42,-76.26 1186.82,-76.25 1189.13,-82.86"/>
</a>
</g>
</g>
<!-- Node20 -->
<g id="Node000020" class="node">
<title>Node20</title>
<g id="a_Node000020"><a xlink:title=" ">
<polygon fill="#e0e0e0" stroke="#999999" points="1010.5,-20 949.5,-20 949.5,0 1010.5,0 1010.5,-20"/>
<text text-anchor="middle" x="980" y="-6.5" font-family="Helvetica,sans-Serif" font-size="10.00">pqxx/pqxx</text>
</a>
</g>
</g>
<!-- Node16&#45;&gt;Node20 -->
<g id="edge24_Node000016_Node000020" class="edge">
<title>Node16&#45;&gt;Node20</title>
<g id="a_edge24_Node000016_Node000020"><a xlink:title=" ">
<path fill="none" stroke="#63b8ff" d="M1008.84,-119.17C977,-114.75 940.38,-103.44 920,-76 906.33,-57.59 929.03,-38.53 950.32,-25.86"/>
<polygon fill="#63b8ff" stroke="#63b8ff" points="951.83,-29.02 958.85,-21.08 948.42,-22.91 951.83,-29.02"/>
</a>
</g>
</g>
<!-- Node16&#45;&gt;Node21 -->
<g id="edge25_Node000016_Node000021" class="edge">
<title>Node16&#45;&gt;Node21</title>
<g id="a_edge25_Node000016_Node000021"><a xlink:title=" ">
<path fill="none" stroke="#63b8ff" d="M1009.07,-114.22C906.73,-102.63 701.75,-79.42 623.42,-70.56"/>
<polygon fill="#63b8ff" stroke="#63b8ff" points="624.22,-67.13 613.89,-69.48 623.43,-74.08 624.22,-67.13"/>
</a>
</g>
</g>
<!-- Node22 -->
<g id="Node000022" class="node">
<title>Node22</title>
<g id="a_Node000022"><a xlink:title=" ">
<polygon fill="#e0e0e0" stroke="#999999" points="987,-76 929,-76 929,-56 987,-56 987,-76"/>
<text text-anchor="middle" x="958" y="-62.5" font-family="Helvetica,sans-Serif" font-size="10.00">typeindex</text>
</a>
</g>
</g>
<!-- Node16&#45;&gt;Node22 -->
<g id="edge26_Node000016_Node000022" class="edge">
<title>Node16&#45;&gt;Node22</title>
<g id="a_edge26_Node000016_Node000022"><a xlink:title=" ">
<path fill="none" stroke="#63b8ff" d="M1049.67,-111.59C1032.58,-103.28 1007.4,-91.03 987.75,-81.47"/>
<polygon fill="#63b8ff" stroke="#63b8ff" points="989.37,-78.37 978.85,-77.14 986.31,-84.66 989.37,-78.37"/>
</a>
</g>
</g>
<!-- Node23 -->
<g id="Node000023" class="node">
<title>Node23</title>
<g id="a_Node000023"><a xlink:title=" ">
<polygon fill="#e0e0e0" stroke="#999999" points="1381.5,-76 1338.5,-76 1338.5,-56 1381.5,-56 1381.5,-76"/>
<text text-anchor="middle" x="1360" y="-62.5" font-family="Helvetica,sans-Serif" font-size="10.00">vector</text>
</a>
</g>
</g>
<!-- Node16&#45;&gt;Node23 -->
<g id="edge27_Node000016_Node000023" class="edge">
<title>Node16&#45;&gt;Node23</title>
<g id="a_edge27_Node000016_Node000023"><a xlink:title=" ">
<path fill="none" stroke="#63b8ff" d="M1129.02,-112.76C1179.59,-105.34 1254.04,-93.31 1326.92,-76.52"/>
<polygon fill="#63b8ff" stroke="#63b8ff" points="1327.71,-79.93 1336.65,-74.24 1326.12,-73.11 1327.71,-79.93"/>
</a>
</g>
</g>
<!-- Node24 -->
<g id="Node000024" class="node">
<title>Node24</title>
<g id="a_Node000024"><a xlink:href="RowDTOAdapter_8hpp.html" target="_top" xlink:title=" ">
<polygon fill="white" stroke="#666666" points="1114.88,-76 1005.12,-76 1005.12,-56 1114.88,-56 1114.88,-76"/>
<text text-anchor="middle" x="1060" y="-62.5" font-family="Helvetica,sans-Serif" font-size="10.00">RowDTOAdapter.hpp</text>
</a>
</g>
</g>
<!-- Node16&#45;&gt;Node24 -->
<g id="edge28_Node000016_Node000024" class="edge">
<title>Node16&#45;&gt;Node24</title>
<g id="a_edge28_Node000016_Node000024"><a xlink:title=" ">
<path fill="none" stroke="#63b8ff" d="M1067.43,-111.59C1066.32,-104.93 1064.79,-95.75 1063.41,-87.44"/>
<polygon fill="#63b8ff" stroke="#63b8ff" points="1066.89,-87.08 1061.8,-77.79 1059.99,-88.23 1066.89,-87.08"/>
</a>
</g>
</g>
<!-- Node24&#45;&gt;Node20 -->
<g id="edge29_Node000024_Node000020" class="edge">
<title>Node24&#45;&gt;Node20</title>
<g id="a_edge29_Node000024_Node000020"><a xlink:title=" ">
<path fill="none" stroke="#63b8ff" d="M1046.07,-55.59C1034.32,-47.67 1017.27,-36.16 1003.43,-26.82"/>
<polygon fill="#63b8ff" stroke="#63b8ff" points="1005.54,-24.02 995.3,-21.33 1001.63,-29.82 1005.54,-24.02"/>
</a>
</g>
</g>
<!-- Node27&#45;&gt;Node28 -->
<g id="edge35_Node000027_Node000028" class="edge">
<title>Node27&#45;&gt;Node28</title>
<g id="a_edge35_Node000027_Node000028"><a xlink:title=" ">
<path fill="none" stroke="#63b8ff" d="M1246.11,-223.59C1258,-215.67 1275.27,-204.16 1289.28,-194.82"/>
<polygon fill="#63b8ff" stroke="#63b8ff" points="1291.14,-197.78 1297.52,-189.32 1287.26,-191.95 1291.14,-197.78"/>
</a>
</g>
</g>
<!-- Node28&#45;&gt;Node4 -->
<g id="edge36_Node000028_Node000004" class="edge">
<title>Node28&#45;&gt;Node4</title>
<g id="a_edge36_Node000028_Node000004"><a xlink:title=" ">
<path fill="none" stroke="#63b8ff" d="M1289.14,-167.59C1267.46,-159.05 1235.23,-146.35 1210.71,-136.68"/>
<polygon fill="#63b8ff" stroke="#63b8ff" points="1212.04,-133.45 1201.46,-133.03 1209.48,-139.96 1212.04,-133.45"/>
</a>
</g>
</g>
<!-- Node28&#45;&gt;Node18 -->
<g id="edge37_Node000028_Node000018" class="edge">
<title>Node28&#45;&gt;Node18</title>
<g id="a_edge37_Node000028_Node000018"><a xlink:title=" ">
<path fill="none" stroke="#63b8ff" d="M1311.38,-167.62C1308.34,-150.01 1301.7,-111.59 1297.57,-87.65"/>
<polygon fill="#63b8ff" stroke="#63b8ff" points="1301.02,-87.1 1295.87,-77.85 1294.13,-88.3 1301.02,-87.1"/>
</a>
</g>
</g>
<!-- Node28&#45;&gt;Node23 -->
<g id="edge38_Node000028_Node000023" class="edge">
<title>Node28&#45;&gt;Node23</title>
<g id="a_edge38_Node000028_Node000023"><a xlink:title=" ">
<path fill="none" stroke="#63b8ff" d="M1317.01,-167.62C1324.64,-149.76 1341.4,-110.53 1351.6,-86.67"/>
<polygon fill="#63b8ff" stroke="#63b8ff" points="1354.7,-88.32 1355.41,-77.75 1348.26,-85.57 1354.7,-88.32"/>
</a>
</g>
</g>
<!-- Node29&#45;&gt;Node15 -->
<g id="edge41_Node000029_Node000015" class="edge">
<title>Node29&#45;&gt;Node15</title>
<g id="a_edge41_Node000029_Node000015"><a xlink:title=" ">
<path fill="none" stroke="#63b8ff" d="M1592.94,-230.5C1494.87,-221.78 1167.21,-192.63 1053.37,-182.5"/>
<polygon fill="#63b8ff" stroke="#63b8ff" points="1053.89,-179.03 1043.62,-181.63 1053.27,-186.01 1053.89,-179.03"/>
</a>
</g>
</g>
<!-- Node29&#45;&gt;Node23 -->
<g id="edge49_Node000029_Node000023" class="edge">
<title>Node29&#45;&gt;Node23</title>
<g id="a_edge49_Node000029_Node000023"><a xlink:title=" ">
<path fill="none" stroke="#63b8ff" d="M1649.13,-228.25C1690.24,-220.07 1759.25,-200.97 1734,-168 1692.01,-113.16 1476.64,-81.3 1393.14,-70.85"/>
<polygon fill="#63b8ff" stroke="#63b8ff" points="1393.67,-67.39 1383.31,-69.65 1392.81,-74.34 1393.67,-67.39"/>
</a>
</g>
</g>
<!-- Node30 -->
<g id="Node000030" class="node">
<title>Node30</title>
<g id="a_Node000030"><a xlink:title=" ">
<polygon fill="#e0e0e0" stroke="#999999" points="1468.75,-188 1373.25,-188 1373.25,-168 1468.75,-168 1468.75,-188"/>
<text text-anchor="middle" x="1421" y="-174.5" font-family="Helvetica,sans-Serif" font-size="10.00">dpp/permissions.h</text>
</a>
</g>
</g>
<!-- Node29&#45;&gt;Node30 -->
<g id="edge42_Node000029_Node000030" class="edge">
<title>Node29&#45;&gt;Node30</title>
<g id="a_edge42_Node000029_Node000030"><a xlink:title=" ">
<path fill="none" stroke="#63b8ff" d="M1592.77,-225.38C1560.13,-216.57 1505.95,-201.94 1467.16,-191.46"/>
<polygon fill="#63b8ff" stroke="#63b8ff" points="1468.18,-188.11 1457.62,-188.89 1466.36,-194.87 1468.18,-188.11"/>
</a>
</g>
</g>
<!-- Node31 -->
<g id="Node000031" class="node">
<title>Node31</title>
<g id="a_Node000031"><a xlink:title=" ">
<polygon fill="#e0e0e0" stroke="#999999" points="1551.38,-188 1486.62,-188 1486.62,-168 1551.38,-168 1551.38,-188"/>
<text text-anchor="middle" x="1519" y="-174.5" font-family="Helvetica,sans-Serif" font-size="10.00">dpp/timer.h</text>
</a>
</g>
</g>
<!-- Node29&#45;&gt;Node31 -->
<g id="edge43_Node000029_Node000031" class="edge">
<title>Node29&#45;&gt;Node31</title>
<g id="a_edge43_Node000029_Node000031"><a xlink:title=" ">
<path fill="none" stroke="#63b8ff" d="M1603.23,-223.59C1587.68,-215.36 1564.82,-203.26 1546.84,-193.74"/>
<polygon fill="#63b8ff" stroke="#63b8ff" points="1548.72,-190.77 1538.24,-189.19 1545.44,-196.96 1548.72,-190.77"/>
</a>
</g>
</g>
<!-- Node32 -->
<g id="Node000032" class="node">
<title>Node32</title>
<g id="a_Node000032"><a xlink:title=" ">
<polygon fill="#e0e0e0" stroke="#999999" points="1614.62,-188 1569.38,-188 1569.38,-168 1614.62,-168 1614.62,-188"/>
<text text-anchor="middle" x="1592" y="-174.5" font-family="Helvetica,sans-Serif" font-size="10.00">chrono</text>
</a>
</g>
</g>
<!-- Node29&#45;&gt;Node32 -->
<g id="edge44_Node000029_Node000032" class="edge">
<title>Node29&#45;&gt;Node32</title>
<g id="a_edge44_Node000029_Node000032"><a xlink:title=" ">
<path fill="none" stroke="#63b8ff" d="M1615.95,-223.59C1612.21,-216.63 1606.98,-206.89 1602.36,-198.29"/>
<polygon fill="#63b8ff" stroke="#63b8ff" points="1605.52,-196.79 1597.71,-189.63 1599.36,-200.1 1605.52,-196.79"/>
</a>
</g>
</g>
<!-- Node33 -->
<g id="Node000033" class="node">
<title>Node33</title>
<g id="a_Node000033"><a xlink:title=" ">
<polygon fill="#e0e0e0" stroke="#999999" points="1667.38,-188 1632.62,-188 1632.62,-168 1667.38,-168 1667.38,-188"/>
<text text-anchor="middle" x="1650" y="-174.5" font-family="Helvetica,sans-Serif" font-size="10.00">ratio</text>
</a>
</g>
</g>
<!-- Node29&#45;&gt;Node33 -->
<g id="edge45_Node000029_Node000033" class="edge">
<title>Node29&#45;&gt;Node33</title>
<g id="a_edge45_Node000029_Node000033"><a xlink:title=" ">
<path fill="none" stroke="#63b8ff" d="M1626.05,-223.59C1629.79,-216.63 1635.02,-206.89 1639.64,-198.29"/>
<polygon fill="#63b8ff" stroke="#63b8ff" points="1642.64,-200.1 1644.29,-189.63 1636.48,-196.79 1642.64,-200.1"/>
</a>
</g>
</g>
<!-- Node34 -->
<g id="Node000034" class="node">
<title>Node34</title>
<g id="a_Node000034"><a xlink:title=" ">
<polygon fill="#e0e0e0" stroke="#999999" points="1725,-188 1685,-188 1685,-168 1725,-168 1725,-188"/>
<text text-anchor="middle" x="1705" y="-174.5" font-family="Helvetica,sans-Serif" font-size="10.00">regex</text>
</a>
</g>
</g>
<!-- Node29&#45;&gt;Node34 -->
<g id="edge46_Node000029_Node000034" class="edge">
<title>Node29&#45;&gt;Node34</title>
<g id="a_edge46_Node000029_Node000034"><a xlink:title=" ">
<path fill="none" stroke="#63b8ff" d="M1635.63,-223.59C1648.08,-215.59 1666.22,-203.93 1680.82,-194.54"/>
<polygon fill="#63b8ff" stroke="#63b8ff" points="1682.46,-197.65 1688.98,-189.3 1678.68,-191.76 1682.46,-197.65"/>
</a>
</g>
</g>
<!-- Node35 -->
<g id="Node000035" class="node">
<title>Node35</title>
<g id="a_Node000035"><a xlink:title=" ">
<polygon fill="#e0e0e0" stroke="#999999" points="1824.5,-188 1781.5,-188 1781.5,-168 1824.5,-168 1824.5,-188"/>
<text text-anchor="middle" x="1803" y="-174.5" font-family="Helvetica,sans-Serif" font-size="10.00">thread</text>
</a>
</g>
</g>
<!-- Node29&#45;&gt;Node35 -->
<g id="edge47_Node000029_Node000035" class="edge">
<title>Node29&#45;&gt;Node35</title>
<g id="a_edge47_Node000029_Node000035"><a xlink:title=" ">
<path fill="none" stroke="#63b8ff" d="M1649.04,-224.68C1681.74,-214.98 1735.71,-198.97 1770.29,-188.71"/>
<polygon fill="#63b8ff" stroke="#63b8ff" points="1771.17,-192.09 1779.76,-185.89 1769.18,-185.38 1771.17,-192.09"/>
</a>
</g>
</g>
<!-- Node36 -->
<g id="Node000036" class="node">
<title>Node36</title>
<g id="a_Node000036"><a xlink:title=" ">
<polygon fill="#e0e0e0" stroke="#999999" points="1887.62,-188 1842.38,-188 1842.38,-168 1887.62,-168 1887.62,-188"/>
<text text-anchor="middle" x="1865" y="-174.5" font-family="Helvetica,sans-Serif" font-size="10.00">variant</text>
</a>
</g>
</g>
<!-- Node29&#45;&gt;Node36 -->
<g id="edge48_Node000029_Node000036" class="edge">
<title>Node29&#45;&gt;Node36</title>
<g id="a_edge48_Node000029_Node000036"><a xlink:title=" ">
<path fill="none" stroke="#63b8ff" d="M1649.06,-227.76C1687.95,-220.35 1760.64,-205.98 1831.19,-188.58"/>
<polygon fill="#63b8ff" stroke="#63b8ff" points="1831.7,-192.06 1840.56,-186.24 1830.01,-185.26 1831.7,-192.06"/>
</a>
</g>
</g>
<!-- Node37&#45;&gt;Node4 -->
<g id="edge52_Node000037_Node000004" class="edge">
<title>Node37&#45;&gt;Node4</title>
<g id="a_edge52_Node000037_Node000004"><a xlink:title=" ">
<path fill="none" stroke="#63b8ff" d="M1062.2,-229.49C1117.52,-224.33 1203.18,-212.54 1223,-188 1236.11,-171.76 1217.76,-152.26 1200.3,-138.88"/>
<polygon fill="#63b8ff" stroke="#63b8ff" points="1202.8,-136.37 1192.64,-133.37 1198.72,-142.05 1202.8,-136.37"/>
</a>
</g>
</g>
<!-- Node37&#45;&gt;Node15 -->
<g id="edge53_Node000037_Node000015" class="edge">
<title>Node37&#45;&gt;Node15</title>
<g id="a_edge53_Node000037_Node000015"><a xlink:title=" ">
<path fill="none" stroke="#63b8ff" d="M1014,-223.59C1014,-217.01 1014,-207.96 1014,-199.73"/>
<polygon fill="#63b8ff" stroke="#63b8ff" points="1017.5,-199.81 1014,-189.81 1010.5,-199.81 1017.5,-199.81"/>
</a>
</g>
</g>
<!-- Node38&#45;&gt;Node9 -->
<g id="edge58_Node000038_Node000009" class="edge">
<title>Node38&#45;&gt;Node9</title>
<g id="a_edge58_Node000038_Node000009"><a xlink:title=" ">
<path fill="none" stroke="#63b8ff" d="M538.86,-227.15C504.62,-219.4 449.88,-204.73 438,-188 432.85,-180.75 432.42,-174.92 438,-168 458.37,-142.72 549.09,-130.91 603.44,-126.01"/>
<polygon fill="#63b8ff" stroke="#63b8ff" points="603.61,-129.51 613.27,-125.17 603.01,-122.53 603.61,-129.51"/>
</a>
</g>
</g>
<!-- Node38&#45;&gt;Node12 -->
<g id="edge55_Node000038_Node000012" class="edge">
<title>Node38&#45;&gt;Node12</title>
<g id="a_edge55_Node000038_Node000012"><a xlink:title=" ">
<path fill="none" stroke="#63b8ff" d="M595.07,-228.06C638.87,-220.31 726.39,-204.66 810.86,-188.38"/>
<polygon fill="#63b8ff" stroke="#63b8ff" points="811.31,-191.86 820.46,-186.53 809.98,-184.99 811.31,-191.86"/>
</a>
</g>
</g>
<!-- Node38&#45;&gt;Node13 -->
<g id="edge56_Node000038_Node000013" class="edge">
<title>Node38&#45;&gt;Node13</title>
<g id="a_edge56_Node000038_Node000013"><a xlink:title=" ">
<path fill="none" stroke="#63b8ff" d="M582.5,-223.59C595.82,-215.51 615.28,-203.71 630.83,-194.27"/>
<polygon fill="#63b8ff" stroke="#63b8ff" points="632.35,-197.44 639.08,-189.26 628.72,-191.46 632.35,-197.44"/>
</a>
</g>
</g>
<!-- Node38&#45;&gt;Node14 -->
<g id="edge57_Node000038_Node000014" class="edge">
<title>Node38&#45;&gt;Node14</title>
<g id="a_edge57_Node000038_Node000014"><a xlink:title=" ">
<path fill="none" stroke="#63b8ff" d="M595.06,-225.15C626.52,-216.35 677.96,-201.95 715.04,-191.58"/>
<polygon fill="#63b8ff" stroke="#63b8ff" points="715.9,-194.97 724.59,-188.91 714.02,-188.23 715.9,-194.97"/>
</a>
</g>
</g>
<!-- Node38&#45;&gt;Node15 -->
<g id="edge59_Node000038_Node000015" class="edge">
<title>Node38&#45;&gt;Node15</title>
<g id="a_edge59_Node000038_Node000015"><a xlink:title=" ">
<path fill="none" stroke="#63b8ff" d="M595.3,-229.58C672.35,-220.27 886.01,-194.46 974.66,-183.75"/>
<polygon fill="#63b8ff" stroke="#63b8ff" points="974.81,-187.26 984.32,-182.59 973.97,-180.31 974.81,-187.26"/>
</a>
</g>
</g>
<!-- Node38&#45;&gt;Node16 -->
<g id="edge60_Node000038_Node000016" class="edge">
<title>Node38&#45;&gt;Node16</title>
<g id="a_edge60_Node000038_Node000016"><a xlink:title=" ">
<path fill="none" stroke="#63b8ff" d="M538.91,-225.89C502.56,-215.43 446.64,-194.27 471,-168 506.15,-130.11 846.58,-123.92 997.54,-123.06"/>
<polygon fill="#63b8ff" stroke="#63b8ff" points="997.45,-126.56 1007.43,-123.01 997.41,-119.56 997.45,-126.56"/>
</a>
</g>
</g>
<!-- Node38&#45;&gt;Node21 -->
<g id="edge63_Node000038_Node000021" class="edge">
<title>Node38&#45;&gt;Node21</title>
<g id="a_edge63_Node000038_Node000021"><a xlink:title=" ">
<path fill="none" stroke="#63b8ff" d="M538.8,-230.91C492.04,-226.2 405.86,-211.51 430,-168 457.89,-117.75 522.31,-89.24 560.99,-76.07"/>
<polygon fill="#63b8ff" stroke="#63b8ff" points="561.76,-79.5 570.19,-73.08 559.6,-72.84 561.76,-79.5"/>
</a>
</g>
</g>
<!-- Node38&#45;&gt;Node25 -->
<g id="edge61_Node000038_Node000025" class="edge">
<title>Node38&#45;&gt;Node25</title>
<g id="a_edge61_Node000038_Node000025"><a xlink:title=" ">
<path fill="none" stroke="#63b8ff" d="M555.33,-223.59C545.72,-215.85 531.87,-204.69 520.43,-195.47"/>
<polygon fill="#63b8ff" stroke="#63b8ff" points="522.7,-192.8 512.72,-189.25 518.3,-198.25 522.7,-192.8"/>
</a>
</g>
</g>
<!-- Node38&#45;&gt;Node26 -->
<g id="edge62_Node000038_Node000026" class="edge">
<title>Node38&#45;&gt;Node26</title>
<g id="a_edge62_Node000038_Node000026"><a xlink:title=" ">
<path fill="none" stroke="#63b8ff" d="M567,-223.59C567,-217.01 567,-207.96 567,-199.73"/>
<polygon fill="#63b8ff" stroke="#63b8ff" points="570.5,-199.81 567,-189.81 563.5,-199.81 570.5,-199.81"/>
</a>
</g>
</g>
<!-- Node39&#45;&gt;Node4 -->
<g id="edge66_Node000039_Node000004" class="edge">
<title>Node39&#45;&gt;Node4</title>
<g id="a_edge66_Node000039_Node000004"><a xlink:title=" ">
<path fill="none" stroke="#63b8ff" d="M1175.17,-167.59C1175.3,-161.01 1175.46,-151.96 1175.62,-143.73"/>
<polygon fill="#63b8ff" stroke="#63b8ff" points="1179.11,-143.87 1175.8,-133.81 1172.12,-143.75 1179.11,-143.87"/>
</a>
</g>
</g>
<!-- Node39&#45;&gt;Node16 -->
<g id="edge67_Node000039_Node000016" class="edge">
<title>Node39&#45;&gt;Node16</title>
<g id="a_edge67_Node000039_Node000016"><a xlink:title=" ">
<path fill="none" stroke="#63b8ff" d="M1156.54,-167.59C1140.3,-159.32 1116.39,-147.14 1097.67,-137.6"/>
<polygon fill="#63b8ff" stroke="#63b8ff" points="1099.46,-134.59 1088.96,-133.17 1096.28,-140.82 1099.46,-134.59"/>
</a>
</g>
</g>
</g>
</svg>
