<?xml version="1.0" encoding="UTF-8" standalone="no"?>
<!DOCTYPE svg PUBLIC "-//W3C//DTD SVG 1.1//EN"
 "http://www.w3.org/Graphics/SVG/1.1/DTD/svg11.dtd">
<!-- Generated by graphviz version 9.0.0 (0)
 -->
<!-- Title: src/bot_library/bot/include/Bot.hpp Pages: 1 -->
<svg width="3071pt" height="200pt"
 viewBox="0.00 0.00 3071.38 200.00" xmlns="http://www.w3.org/2000/svg" xmlns:xlink="http://www.w3.org/1999/xlink">
<g id="graph0" class="graph" transform="scale(1 1) rotate(0) translate(4 196)">
<title>src/bot_library/bot/include/Bot.hpp</title>
<!-- Node1 -->
<g id="Node000001" class="node">
<title>Node1</title>
<g id="a_Node000001"><a xlink:title=" ">
<polygon fill="#999999" stroke="#666666" points="1592.38,-192 1498.38,-192 1498.38,-160 1592.38,-160 1592.38,-192"/>
<text text-anchor="start" x="1506.38" y="-178.5" font-family="Helvetica,sans-Serif" font-size="10.00">src/bot_library/bot</text>
<text text-anchor="middle" x="1545.38" y="-166.5" font-family="Helvetica,sans-Serif" font-size="10.00">/include/Bot.hpp</text>
</a>
</g>
</g>
<!-- Node2 -->
<g id="Node000002" class="node">
<title>Node2</title>
<g id="a_Node000002"><a xlink:href="BotLibrary_8cpp.html" target="_top" xlink:title=" ">
<polygon fill="white" stroke="#666666" points="142.75,-32 0,-32 0,-12 142.75,-12 142.75,-32"/>
<text text-anchor="middle" x="71.38" y="-18.5" font-family="Helvetica,sans-Serif" font-size="10.00">src/bot_library/BotLibrary.cpp</text>
</a>
</g>
</g>
<!-- Node1&#45;&gt;Node2 -->
<g id="edge1_Node000001_Node000002" class="edge">
<title>Node1&#45;&gt;Node2</title>
<g id="a_edge1_Node000001_Node000002"><a xlink:title=" ">
<path fill="none" stroke="#63b8ff" d="M1486.8,-174.6C1246.67,-172.73 344.47,-163.13 223.38,-124 162.78,-104.42 103.63,-53.32 81.02,-32.27"/>
<polygon fill="#63b8ff" stroke="#63b8ff" points="1486.52,-178.1 1496.55,-174.68 1486.58,-171.1 1486.52,-178.1"/>
</a>
</g>
</g>
<!-- Node3 -->
<g id="Node000003" class="node">
<title>Node3</title>
<g id="a_Node000003"><a xlink:href="Bot_8cpp.html" target="_top" xlink:title=" ">
<polygon fill="white" stroke="#666666" points="2869.38,-118 2775.38,-118 2775.38,-86 2869.38,-86 2869.38,-118"/>
<text text-anchor="start" x="2783.38" y="-104.5" font-family="Helvetica,sans-Serif" font-size="10.00">src/bot_library/bot</text>
<text text-anchor="middle" x="2822.38" y="-92.5" font-family="Helvetica,sans-Serif" font-size="10.00">/Bot.cpp</text>
</a>
</g>
</g>
<!-- Node1&#45;&gt;Node3 -->
<g id="edge2_Node000001_Node000003" class="edge">
<title>Node1&#45;&gt;Node3</title>
<g id="a_edge2_Node000001_Node000003"><a xlink:title=" ">
<path fill="none" stroke="#63b8ff" d="M1604.18,-175C1816.1,-174.62 2540.12,-169.93 2766.38,-124 2772.89,-122.68 2779.64,-120.7 2786.11,-118.49"/>
<polygon fill="#63b8ff" stroke="#63b8ff" points="1604.22,-171.5 1594.23,-175.02 1604.23,-178.5 1604.22,-171.5"/>
</a>
</g>
</g>
<!-- Node4 -->
<g id="Node000004" class="node">
<title>Node4</title>
<g id="a_Node000004"><a xlink:href="ChallengeBadgeCommand_8hpp.html" target="_top" xlink:title=" ">
<polygon fill="white" stroke="#666666" points="544.38,-124 378.38,-124 378.38,-80 544.38,-80 544.38,-124"/>
<text text-anchor="start" x="386.38" y="-110.5" font-family="Helvetica,sans-Serif" font-size="10.00">src/bot_library/commands</text>
<text text-anchor="start" x="386.38" y="-98.5" font-family="Helvetica,sans-Serif" font-size="10.00">/challenge_badge/ChallengeBadge</text>
<text text-anchor="middle" x="461.38" y="-86.5" font-family="Helvetica,sans-Serif" font-size="10.00">Command.hpp</text>
</a>
</g>
</g>
<!-- Node1&#45;&gt;Node4 -->
<g id="edge3_Node000001_Node000004" class="edge">
<title>Node1&#45;&gt;Node4</title>
<g id="a_edge3_Node000001_Node000004"><a xlink:title=" ">
<path fill="none" stroke="#63b8ff" d="M1486.65,-175.51C1332.7,-176.09 905.06,-172.8 553.38,-124 550.45,-123.59 547.49,-123.14 544.5,-122.65"/>
<polygon fill="#63b8ff" stroke="#63b8ff" points="1486.62,-179.01 1496.6,-175.47 1486.58,-172.01 1486.62,-179.01"/>
</a>
</g>
</g>
<!-- Node7 -->
<g id="Node000007" class="node">
<title>Node7</title>
<g id="a_Node000007"><a xlink:href="ChallengeRoleCommand_8hpp.html" target="_top" xlink:title=" ">
<polygon fill="white" stroke="#666666" points="774.25,-118 562.5,-118 562.5,-86 774.25,-86 774.25,-118"/>
<text text-anchor="start" x="570.5" y="-104.5" font-family="Helvetica,sans-Serif" font-size="10.00">src/bot_library/commands</text>
<text text-anchor="middle" x="668.38" y="-92.5" font-family="Helvetica,sans-Serif" font-size="10.00">/challenge_role/ChallengeRoleCommand.hpp</text>
</a>
</g>
</g>
<!-- Node1&#45;&gt;Node7 -->
<g id="edge6_Node000001_Node000007" class="edge">
<title>Node1&#45;&gt;Node7</title>
<g id="a_edge6_Node000001_Node000007"><a xlink:title=" ">
<path fill="none" stroke="#63b8ff" d="M1486.48,-173.34C1358.23,-169.23 1044.3,-156.45 783.38,-124 771.39,-122.51 758.77,-120.58 746.44,-118.49"/>
<polygon fill="#63b8ff" stroke="#63b8ff" points="1486.32,-176.84 1496.42,-173.65 1486.54,-169.84 1486.32,-176.84"/>
</a>
</g>
</g>
<!-- Node10 -->
<g id="Node000010" class="node">
<title>Node10</title>
<g id="a_Node000010"><a xlink:href="CleanUp_8hpp.html" target="_top" xlink:title=" ">
<polygon fill="white" stroke="#666666" points="920.62,-118 792.12,-118 792.12,-86 920.62,-86 920.62,-118"/>
<text text-anchor="start" x="800.12" y="-104.5" font-family="Helvetica,sans-Serif" font-size="10.00">src/bot_library/commands</text>
<text text-anchor="middle" x="856.38" y="-92.5" font-family="Helvetica,sans-Serif" font-size="10.00">/clean_up/CleanUp.hpp</text>
</a>
</g>
</g>
<!-- Node1&#45;&gt;Node10 -->
<g id="edge10_Node000001_Node000010" class="edge">
<title>Node1&#45;&gt;Node10</title>
<g id="a_edge10_Node000001_Node000010"><a xlink:title=" ">
<path fill="none" stroke="#63b8ff" d="M1486.41,-173.9C1376.29,-171.01 1132.26,-160.66 930.38,-124 922.36,-122.54 913.96,-120.59 905.82,-118.46"/>
<polygon fill="#63b8ff" stroke="#63b8ff" points="1486.31,-177.4 1496.39,-174.15 1486.48,-170.4 1486.31,-177.4"/>
</a>
</g>
</g>
<!-- Node12 -->
<g id="Node000012" class="node">
<title>Node12</title>
<g id="a_Node000012"><a xlink:href="FlipCommand_8hpp.html" target="_top" xlink:title=" ">
<polygon fill="white" stroke="#666666" points="1067.62,-118 939.12,-118 939.12,-86 1067.62,-86 1067.62,-118"/>
<text text-anchor="start" x="947.12" y="-104.5" font-family="Helvetica,sans-Serif" font-size="10.00">src/bot_library/commands</text>
<text text-anchor="middle" x="1003.38" y="-92.5" font-family="Helvetica,sans-Serif" font-size="10.00">/flip/FlipCommand.hpp</text>
</a>
</g>
</g>
<!-- Node1&#45;&gt;Node12 -->
<g id="edge13_Node000001_Node000012" class="edge">
<title>Node1&#45;&gt;Node12</title>
<g id="a_edge13_Node000001_Node000012"><a xlink:title=" ">
<path fill="none" stroke="#63b8ff" d="M1486.67,-171.78C1397.55,-166.17 1223.05,-152.4 1077.38,-124 1069.64,-122.49 1061.54,-120.56 1053.66,-118.49"/>
<polygon fill="#63b8ff" stroke="#63b8ff" points="1486.45,-175.27 1496.64,-172.39 1486.88,-168.28 1486.45,-175.27"/>
</a>
</g>
</g>
<!-- Node14 -->
<g id="Node000014" class="node">
<title>Node14</title>
<g id="a_Node000014"><a xlink:href="HelpCommand_8hpp.html" target="_top" xlink:title=" ">
<polygon fill="white" stroke="#666666" points="1214.62,-118 1086.12,-118 1086.12,-86 1214.62,-86 1214.62,-118"/>
<text text-anchor="start" x="1094.12" y="-104.5" font-family="Helvetica,sans-Serif" font-size="10.00">src/bot_library/commands</text>
<text text-anchor="middle" x="1150.38" y="-92.5" font-family="Helvetica,sans-Serif" font-size="10.00">/help/HelpCommand.hpp</text>
</a>
</g>
</g>
<!-- Node1&#45;&gt;Node14 -->
<g id="edge16_Node000001_Node000014" class="edge">
<title>Node1&#45;&gt;Node14</title>
<g id="a_edge16_Node000001_Node000014"><a xlink:title=" ">
<path fill="none" stroke="#63b8ff" d="M1486.9,-167.94C1422.07,-159.6 1314.59,-144.26 1223.38,-124 1216.17,-122.4 1208.62,-120.49 1201.22,-118.49"/>
<polygon fill="#63b8ff" stroke="#63b8ff" points="1486.24,-171.38 1496.6,-169.17 1487.13,-164.44 1486.24,-171.38"/>
</a>
</g>
</g>
<!-- Node16 -->
<g id="Node000016" class="node">
<title>Node16</title>
<g id="a_Node000016"><a xlink:href="Commands_8hpp.html" target="_top" xlink:title=" ">
<polygon fill="white" stroke="#666666" points="360.62,-118 232.12,-118 232.12,-86 360.62,-86 360.62,-118"/>
<text text-anchor="start" x="240.12" y="-104.5" font-family="Helvetica,sans-Serif" font-size="10.00">src/bot_library/commands</text>
<text text-anchor="middle" x="296.38" y="-92.5" font-family="Helvetica,sans-Serif" font-size="10.00">/include/Commands.hpp</text>
</a>
</g>
</g>
<!-- Node1&#45;&gt;Node16 -->
<g id="edge19_Node000001_Node000016" class="edge">
<title>Node1&#45;&gt;Node16</title>
<g id="a_edge19_Node000001_Node000016"><a xlink:title=" ">
<path fill="none" stroke="#63b8ff" d="M1486.45,-174.29C1279.7,-171.5 588,-159.67 369.38,-124 361.05,-122.64 352.32,-120.65 343.91,-118.43"/>
<polygon fill="#63b8ff" stroke="#63b8ff" points="1486.38,-177.79 1496.42,-174.42 1486.47,-170.79 1486.38,-177.79"/>
</a>
</g>
</g>
<!-- Node17 -->
<g id="Node000017" class="node">
<title>Node17</title>
<g id="a_Node000017"><a xlink:href="InitDatabase_8hpp.html" target="_top" xlink:title=" ">
<polygon fill="white" stroke="#666666" points="3052.38,-118 2898.38,-118 2898.38,-86 3052.38,-86 3052.38,-118"/>
<text text-anchor="start" x="2906.38" y="-104.5" font-family="Helvetica,sans-Serif" font-size="10.00">src/bot_library/commands</text>
<text text-anchor="middle" x="2975.38" y="-92.5" font-family="Helvetica,sans-Serif" font-size="10.00">/init_database/InitDatabase.hpp</text>
</a>
</g>
</g>
<!-- Node1&#45;&gt;Node17 -->
<g id="edge22_Node000001_Node000017" class="edge">
<title>Node1&#45;&gt;Node17</title>
<g id="a_edge22_Node000001_Node000017"><a xlink:title=" ">
<path fill="none" stroke="#63b8ff" d="M1604.1,-174.12C1827.75,-170.56 2626.41,-155.85 2878.38,-124 2889.14,-122.64 2900.49,-120.68 2911.47,-118.49"/>
<polygon fill="#63b8ff" stroke="#63b8ff" points="1604.11,-170.62 1594.16,-174.28 1604.22,-177.62 1604.11,-170.62"/>
</a>
</g>
</g>
<!-- Node19 -->
<g id="Node000019" class="node">
<title>Node19</title>
<g id="a_Node000019"><a xlink:href="InviteCommand_8hpp.html" target="_top" xlink:title=" ">
<polygon fill="white" stroke="#666666" points="1365.88,-118 1232.88,-118 1232.88,-86 1365.88,-86 1365.88,-118"/>
<text text-anchor="start" x="1240.88" y="-104.5" font-family="Helvetica,sans-Serif" font-size="10.00">src/bot_library/commands</text>
<text text-anchor="middle" x="1299.38" y="-92.5" font-family="Helvetica,sans-Serif" font-size="10.00">/invite/InviteCommand.hpp</text>
</a>
</g>
</g>
<!-- Node1&#45;&gt;Node19 -->
<g id="edge24_Node000001_Node000019" class="edge">
<title>Node1&#45;&gt;Node19</title>
<g id="a_edge24_Node000001_Node000019"><a xlink:title=" ">
<path fill="none" stroke="#63b8ff" d="M1487.05,-157.93C1446.12,-145.95 1391.86,-130.07 1352.2,-118.46"/>
<polygon fill="#63b8ff" stroke="#63b8ff" points="1485.91,-161.24 1496.49,-160.69 1487.88,-154.52 1485.91,-161.24"/>
</a>
</g>
</g>
<!-- Node21 -->
<g id="Node000021" class="node">
<title>Node21</title>
<g id="a_Node000021"><a xlink:href="MemberCommand_8hpp.html" target="_top" xlink:title=" ">
<polygon fill="white" stroke="#666666" points="1540.5,-118 1384.25,-118 1384.25,-86 1540.5,-86 1540.5,-118"/>
<text text-anchor="start" x="1392.25" y="-104.5" font-family="Helvetica,sans-Serif" font-size="10.00">src/bot_library/commands</text>
<text text-anchor="middle" x="1462.38" y="-92.5" font-family="Helvetica,sans-Serif" font-size="10.00">/member/MemberCommand.hpp</text>
</a>
</g>
</g>
<!-- Node1&#45;&gt;Node21 -->
<g id="edge27_Node000001_Node000021" class="edge">
<title>Node1&#45;&gt;Node21</title>
<g id="a_edge27_Node000001_Node000021"><a xlink:title=" ">
<path fill="none" stroke="#63b8ff" d="M1519.4,-152.46C1506.67,-141.42 1491.66,-128.4 1480.24,-118.5"/>
<polygon fill="#63b8ff" stroke="#63b8ff" points="1516.78,-154.83 1526.63,-158.74 1521.37,-149.54 1516.78,-154.83"/>
</a>
</g>
</g>
<!-- Node23 -->
<g id="Node000023" class="node">
<title>Node23</title>
<g id="a_Node000023"><a xlink:href="ProfileCommand_8hpp.html" target="_top" xlink:title=" ">
<polygon fill="white" stroke="#666666" points="1698.25,-118 1558.5,-118 1558.5,-86 1698.25,-86 1698.25,-118"/>
<text text-anchor="start" x="1566.5" y="-104.5" font-family="Helvetica,sans-Serif" font-size="10.00">src/bot_library/commands</text>
<text text-anchor="middle" x="1628.38" y="-92.5" font-family="Helvetica,sans-Serif" font-size="10.00">/profile/ProfileCommand.hpp</text>
</a>
</g>
</g>
<!-- Node1&#45;&gt;Node23 -->
<g id="edge30_Node000001_Node000023" class="edge">
<title>Node1&#45;&gt;Node23</title>
<g id="a_edge30_Node000001_Node000023"><a xlink:title=" ">
<path fill="none" stroke="#63b8ff" d="M1571.35,-152.46C1584.08,-141.42 1599.09,-128.4 1610.51,-118.5"/>
<polygon fill="#63b8ff" stroke="#63b8ff" points="1569.38,-149.54 1564.12,-158.74 1573.97,-154.83 1569.38,-149.54"/>
</a>
</g>
</g>
<!-- Node25 -->
<g id="Node000025" class="node">
<title>Node25</title>
<g id="a_Node000025"><a xlink:href="ReactionRoles_8hpp.html" target="_top" xlink:title=" ">
<polygon fill="white" stroke="#666666" points="1882.38,-118 1716.38,-118 1716.38,-86 1882.38,-86 1882.38,-118"/>
<text text-anchor="start" x="1724.38" y="-104.5" font-family="Helvetica,sans-Serif" font-size="10.00">src/bot_library/commands</text>
<text text-anchor="middle" x="1799.38" y="-92.5" font-family="Helvetica,sans-Serif" font-size="10.00">/reaction_roles/ReactionRoles.hpp</text>
</a>
</g>
</g>
<!-- Node1&#45;&gt;Node25 -->
<g id="edge33_Node000001_Node000025" class="edge">
<title>Node1&#45;&gt;Node25</title>
<g id="a_edge33_Node000001_Node000025"><a xlink:title=" ">
<path fill="none" stroke="#63b8ff" d="M1603.88,-158.42C1646.41,-146.36 1703.56,-130.16 1745.08,-118.39"/>
<polygon fill="#63b8ff" stroke="#63b8ff" points="1602.98,-155.03 1594.31,-161.13 1604.88,-161.77 1602.98,-155.03"/>
</a>
</g>
</g>
<!-- Node27 -->
<g id="Node000027" class="node">
<title>Node27</title>
<g id="a_Node000027"><a xlink:href="ResourcesCommand_8hpp.html" target="_top" xlink:title=" ">
<polygon fill="white" stroke="#666666" points="2076.25,-118 1900.5,-118 1900.5,-86 2076.25,-86 2076.25,-118"/>
<text text-anchor="start" x="1908.5" y="-104.5" font-family="Helvetica,sans-Serif" font-size="10.00">src/bot_library/commands</text>
<text text-anchor="middle" x="1988.38" y="-92.5" font-family="Helvetica,sans-Serif" font-size="10.00">/resources/ResourcesCommand.hpp</text>
</a>
</g>
</g>
<!-- Node1&#45;&gt;Node27 -->
<g id="edge36_Node000001_Node000027" class="edge">
<title>Node1&#45;&gt;Node27</title>
<g id="a_edge36_Node000001_Node000027"><a xlink:title=" ">
<path fill="none" stroke="#63b8ff" d="M1603.88,-167.59C1672.84,-158.58 1790.79,-142.28 1891.38,-124 1900.53,-122.34 1910.14,-120.44 1919.6,-118.48"/>
<polygon fill="#63b8ff" stroke="#63b8ff" points="1603.8,-164.07 1594.33,-168.83 1604.7,-171.01 1603.8,-164.07"/>
</a>
</g>
</g>
<!-- Node29 -->
<g id="Node000029" class="node">
<title>Node29</title>
<g id="a_Node000029"><a xlink:href="RollCommand_8hpp.html" target="_top" xlink:title=" ">
<polygon fill="white" stroke="#666666" points="2222.62,-118 2094.12,-118 2094.12,-86 2222.62,-86 2222.62,-118"/>
<text text-anchor="start" x="2102.12" y="-104.5" font-family="Helvetica,sans-Serif" font-size="10.00">src/bot_library/commands</text>
<text text-anchor="middle" x="2158.38" y="-92.5" font-family="Helvetica,sans-Serif" font-size="10.00">/roll/RollCommand.hpp</text>
</a>
</g>
</g>
<!-- Node1&#45;&gt;Node29 -->
<g id="edge39_Node000001_Node000029" class="edge">
<title>Node1&#45;&gt;Node29</title>
<g id="a_edge39_Node000001_Node000029"><a xlink:title=" ">
<path fill="none" stroke="#63b8ff" d="M1604.06,-173.03C1703.77,-168.89 1912.27,-156.78 2085.38,-124 2093.15,-122.53 2101.29,-120.59 2109.2,-118.49"/>
<polygon fill="#63b8ff" stroke="#63b8ff" points="1604.1,-169.52 1594.25,-173.42 1604.38,-176.52 1604.1,-169.52"/>
</a>
</g>
</g>
<!-- Node31 -->
<g id="Node000031" class="node">
<title>Node31</title>
<g id="a_Node000031"><a xlink:href="ServerDetails_8hpp.html" target="_top" xlink:title=" ">
<polygon fill="white" stroke="#666666" points="2401.75,-118 2241,-118 2241,-86 2401.75,-86 2401.75,-118"/>
<text text-anchor="start" x="2249" y="-104.5" font-family="Helvetica,sans-Serif" font-size="10.00">src/bot_library/commands</text>
<text text-anchor="middle" x="2321.38" y="-92.5" font-family="Helvetica,sans-Serif" font-size="10.00">/server_details/ServerDetails.hpp</text>
</a>
</g>
</g>
<!-- Node1&#45;&gt;Node31 -->
<g id="edge42_Node000001_Node000031" class="edge">
<title>Node1&#45;&gt;Node31</title>
<g id="a_edge42_Node000001_Node000031"><a xlink:title=" ">
<path fill="none" stroke="#63b8ff" d="M1604,-173.7C1722.93,-170.39 2000.88,-159.24 2231.38,-124 2241.05,-122.52 2251.22,-120.55 2261.11,-118.42"/>
<polygon fill="#63b8ff" stroke="#63b8ff" points="1604.07,-170.2 1594.16,-173.97 1604.25,-177.2 1604.07,-170.2"/>
</a>
</g>
</g>
<!-- Node33 -->
<g id="Node000033" class="node">
<title>Node33</title>
<g id="a_Node000033"><a xlink:href="SetChannelCommand_8hpp.html" target="_top" xlink:title=" ">
<polygon fill="white" stroke="#666666" points="2609,-118 2419.75,-118 2419.75,-86 2609,-86 2609,-118"/>
<text text-anchor="start" x="2427.75" y="-104.5" font-family="Helvetica,sans-Serif" font-size="10.00">src/bot_library/commands</text>
<text text-anchor="middle" x="2514.38" y="-92.5" font-family="Helvetica,sans-Serif" font-size="10.00">/set_channel/SetChannelCommand.hpp</text>
</a>
</g>
</g>
<!-- Node1&#45;&gt;Node33 -->
<g id="edge45_Node000001_Node000033" class="edge">
<title>Node1&#45;&gt;Node33</title>
<g id="a_edge45_Node000001_Node000033"><a xlink:title=" ">
<path fill="none" stroke="#63b8ff" d="M1603.73,-174.38C1743.55,-172.28 2108.56,-163.17 2410.38,-124 2421.52,-122.55 2433.26,-120.6 2444.67,-118.47"/>
<polygon fill="#63b8ff" stroke="#63b8ff" points="1603.94,-170.88 1593.99,-174.52 1604.04,-177.88 1603.94,-170.88"/>
</a>
</g>
</g>
<!-- Node35 -->
<g id="Node000035" class="node">
<title>Node35</title>
<g id="a_Node000035"><a xlink:href="SetStatus_8hpp.html" target="_top" xlink:title=" ">
<polygon fill="white" stroke="#666666" points="2757.38,-118 2627.38,-118 2627.38,-86 2757.38,-86 2757.38,-118"/>
<text text-anchor="start" x="2635.38" y="-104.5" font-family="Helvetica,sans-Serif" font-size="10.00">src/bot_library/commands</text>
<text text-anchor="middle" x="2692.38" y="-92.5" font-family="Helvetica,sans-Serif" font-size="10.00">/set_status/SetStatus.hpp</text>
</a>
</g>
</g>
<!-- Node1&#45;&gt;Node35 -->
<g id="edge48_Node000001_Node000035" class="edge">
<title>Node1&#45;&gt;Node35</title>
<g id="a_edge48_Node000001_Node000035"><a xlink:title=" ">
<path fill="none" stroke="#63b8ff" d="M1603.95,-173.98C1798.27,-170.33 2420.53,-156.33 2618.38,-124 2626.68,-122.64 2635.38,-120.68 2643.77,-118.5"/>
<polygon fill="#63b8ff" stroke="#63b8ff" points="1604.03,-170.48 1594.09,-174.16 1604.16,-177.48 1604.03,-170.48"/>
</a>
</g>
</g>
<!-- Node5 -->
<g id="Node000005" class="node">
<title>Node5</title>
<g id="a_Node000005"><a xlink:href="Commands_8cpp.html" target="_top" xlink:title=" ">
<polygon fill="white" stroke="#666666" points="1674.62,-38 1546.12,-38 1546.12,-6 1674.62,-6 1674.62,-38"/>
<text text-anchor="start" x="1554.12" y="-24.5" font-family="Helvetica,sans-Serif" font-size="10.00">src/bot_library/commands</text>
<text text-anchor="middle" x="1610.38" y="-12.5" font-family="Helvetica,sans-Serif" font-size="10.00">/Commands.cpp</text>
</a>
</g>
</g>
<!-- Node4&#45;&gt;Node5 -->
<g id="edge4_Node000004_Node000005" class="edge">
<title>Node4&#45;&gt;Node5</title>
<g id="a_edge4_Node000004_Node000005"><a xlink:title=" ">
<path fill="none" stroke="#63b8ff" d="M555.77,-79.83C989.32,-24.58 1108.92,-112.41 1537.38,-44 1545.71,-42.67 1554.44,-40.69 1562.85,-38.47"/>
<polygon fill="#63b8ff" stroke="#63b8ff" points="555.46,-76.34 545.99,-81.1 556.36,-83.28 555.46,-76.34"/>
</a>
</g>
</g>
<!-- Node6 -->
<g id="Node000006" class="node">
<title>Node6</title>
<g id="a_Node000006"><a xlink:href="ChallengeBadgeCommand_8cpp.html" target="_top" xlink:title=" ">
<polygon fill="white" stroke="#666666" points="326.38,-44 160.38,-44 160.38,0 326.38,0 326.38,-44"/>
<text text-anchor="start" x="168.38" y="-30.5" font-family="Helvetica,sans-Serif" font-size="10.00">src/bot_library/commands</text>
<text text-anchor="start" x="168.38" y="-18.5" font-family="Helvetica,sans-Serif" font-size="10.00">/challenge_badge/ChallengeBadge</text>
<text text-anchor="middle" x="243.38" y="-6.5" font-family="Helvetica,sans-Serif" font-size="10.00">Command.cpp</text>
</a>
</g>
</g>
<!-- Node4&#45;&gt;Node6 -->
<g id="edge5_Node000004_Node000006" class="edge">
<title>Node4&#45;&gt;Node6</title>
<g id="a_edge5_Node000004_Node000006"><a xlink:title=" ">
<path fill="none" stroke="#63b8ff" d="M390.87,-75.78C362.55,-65.64 330.24,-54.08 303.1,-44.37"/>
<polygon fill="#63b8ff" stroke="#63b8ff" points="389.5,-79 400.09,-79.07 391.86,-72.41 389.5,-79"/>
</a>
</g>
</g>
<!-- Node7&#45;&gt;Node5 -->
<g id="edge7_Node000007_Node000005" class="edge">
<title>Node7&#45;&gt;Node5</title>
<g id="a_edge7_Node000007_Node000005"><a xlink:title=" ">
<path fill="none" stroke="#63b8ff" d="M756.27,-83.71C765.4,-82.29 774.56,-81.01 783.38,-80 1116.68,-41.78 1206.38,-98.74 1537.38,-44 1545.57,-42.64 1554.16,-40.68 1562.44,-38.5"/>
<polygon fill="#63b8ff" stroke="#63b8ff" points="755.98,-80.21 746.67,-85.27 757.1,-87.12 755.98,-80.21"/>
</a>
</g>
</g>
<!-- Node8 -->
<g id="Node000008" class="node">
<title>Node8</title>
<g id="a_Node000008"><a xlink:href="ChallengeRoleCommand_8cpp.html" target="_top" xlink:title=" ">
<polygon fill="white" stroke="#666666" points="556.25,-38 344.5,-38 344.5,-6 556.25,-6 556.25,-38"/>
<text text-anchor="start" x="352.5" y="-24.5" font-family="Helvetica,sans-Serif" font-size="10.00">src/bot_library/commands</text>
<text text-anchor="middle" x="450.38" y="-12.5" font-family="Helvetica,sans-Serif" font-size="10.00">/challenge_role/ChallengeRoleCommand.cpp</text>
</a>
</g>
</g>
<!-- Node7&#45;&gt;Node8 -->
<g id="edge8_Node000007_Node000008" class="edge">
<title>Node7&#45;&gt;Node8</title>
<g id="a_edge8_Node000007_Node000008"><a xlink:title=" ">
<path fill="none" stroke="#63b8ff" d="M614.61,-81.76C577.25,-68.39 528.12,-50.82 493.36,-38.38"/>
<polygon fill="#63b8ff" stroke="#63b8ff" points="613.29,-85.01 623.88,-85.08 615.64,-78.42 613.29,-85.01"/>
</a>
</g>
</g>
<!-- Node9 -->
<g id="Node000009" class="node">
<title>Node9</title>
<g id="a_Node000009"><a xlink:href="ChallengeRoleDTO_8cpp.html" target="_top" xlink:title=" ">
<polygon fill="white" stroke="#666666" points="762.25,-38 574.5,-38 574.5,-6 762.25,-6 762.25,-38"/>
<text text-anchor="start" x="582.5" y="-24.5" font-family="Helvetica,sans-Serif" font-size="10.00">src/bot_library/commands</text>
<text text-anchor="middle" x="668.38" y="-12.5" font-family="Helvetica,sans-Serif" font-size="10.00">/challenge_role/ChallengeRoleDTO.cpp</text>
</a>
</g>
</g>
<!-- Node7&#45;&gt;Node9 -->
<g id="edge9_Node000007_Node000009" class="edge">
<title>Node7&#45;&gt;Node9</title>
<g id="a_edge9_Node000007_Node000009"><a xlink:title=" ">
<path fill="none" stroke="#63b8ff" d="M668.38,-74.37C668.38,-62.37 668.38,-48.63 668.38,-38.38"/>
<polygon fill="#63b8ff" stroke="#63b8ff" points="664.88,-74.08 668.38,-84.08 671.88,-74.08 664.88,-74.08"/>
</a>
</g>
</g>
<!-- Node10&#45;&gt;Node5 -->
<g id="edge11_Node000010_Node000005" class="edge">
<title>Node10&#45;&gt;Node5</title>
<g id="a_edge11_Node000010_Node000005"><a xlink:title=" ">
<path fill="none" stroke="#63b8ff" d="M916.12,-82.86C920.92,-81.76 925.71,-80.79 930.38,-80 1196.83,-34.84 1271,-89.63 1537.38,-44 1545.56,-42.6 1554.14,-40.61 1562.43,-38.42"/>
<polygon fill="#63b8ff" stroke="#63b8ff" points="915.34,-79.44 906.46,-85.23 917.01,-86.24 915.34,-79.44"/>
</a>
</g>
</g>
<!-- Node11 -->
<g id="Node000011" class="node">
<title>Node11</title>
<g id="a_Node000011"><a xlink:href="CleanUp_8cpp.html" target="_top" xlink:title=" ">
<polygon fill="white" stroke="#666666" points="908.62,-38 780.12,-38 780.12,-6 908.62,-6 908.62,-38"/>
<text text-anchor="start" x="788.12" y="-24.5" font-family="Helvetica,sans-Serif" font-size="10.00">src/bot_library/commands</text>
<text text-anchor="middle" x="844.38" y="-12.5" font-family="Helvetica,sans-Serif" font-size="10.00">/clean_up/CleanUp.cpp</text>
</a>
</g>
</g>
<!-- Node10&#45;&gt;Node11 -->
<g id="edge12_Node000010_Node000011" class="edge">
<title>Node10&#45;&gt;Node11</title>
<g id="a_edge12_Node000010_Node000011"><a xlink:title=" ">
<path fill="none" stroke="#63b8ff" d="M852.28,-74.37C850.43,-62.37 848.32,-48.63 846.74,-38.38"/>
<polygon fill="#63b8ff" stroke="#63b8ff" points="848.79,-74.74 853.77,-84.09 855.71,-73.68 848.79,-74.74"/>
</a>
</g>
</g>
<!-- Node12&#45;&gt;Node5 -->
<g id="edge14_Node000012_Node000005" class="edge">
<title>Node12&#45;&gt;Node5</title>
<g id="a_edge14_Node000012_Node000005"><a xlink:title=" ">
<path fill="none" stroke="#63b8ff" d="M1063.98,-82.76C1068.49,-81.72 1072.99,-80.79 1077.38,-80 1279.23,-43.83 1335.59,-80.53 1537.38,-44 1545.29,-42.57 1553.58,-40.62 1561.61,-38.5"/>
<polygon fill="#63b8ff" stroke="#63b8ff" points="1063.16,-79.36 1054.28,-85.15 1064.83,-86.16 1063.16,-79.36"/>
</a>
</g>
</g>
<!-- Node13 -->
<g id="Node000013" class="node">
<title>Node13</title>
<g id="a_Node000013"><a xlink:href="FlipCommand_8cpp.html" target="_top" xlink:title=" ">
<polygon fill="white" stroke="#666666" points="1055.62,-38 927.12,-38 927.12,-6 1055.62,-6 1055.62,-38"/>
<text text-anchor="start" x="935.12" y="-24.5" font-family="Helvetica,sans-Serif" font-size="10.00">src/bot_library/commands</text>
<text text-anchor="middle" x="991.38" y="-12.5" font-family="Helvetica,sans-Serif" font-size="10.00">/flip/FlipCommand.cpp</text>
</a>
</g>
</g>
<!-- Node12&#45;&gt;Node13 -->
<g id="edge15_Node000012_Node000013" class="edge">
<title>Node12&#45;&gt;Node13</title>
<g id="a_edge15_Node000012_Node000013"><a xlink:title=" ">
<path fill="none" stroke="#63b8ff" d="M999.28,-74.37C997.43,-62.37 995.32,-48.63 993.74,-38.38"/>
<polygon fill="#63b8ff" stroke="#63b8ff" points="995.79,-74.74 1000.77,-84.09 1002.71,-73.68 995.79,-74.74"/>
</a>
</g>
</g>
<!-- Node14&#45;&gt;Node5 -->
<g id="edge17_Node000014_Node000005" class="edge">
<title>Node14&#45;&gt;Node5</title>
<g id="a_edge17_Node000014_Node000005"><a xlink:title=" ">
<path fill="none" stroke="#63b8ff" d="M1211,-82.74C1215.17,-81.74 1219.32,-80.81 1223.38,-80 1361.12,-52.49 1399.63,-71.51 1537.38,-44 1545,-42.48 1553,-40.54 1560.78,-38.46"/>
<polygon fill="#63b8ff" stroke="#63b8ff" points="1210.27,-79.31 1201.44,-85.17 1212,-86.09 1210.27,-79.31"/>
</a>
</g>
</g>
<!-- Node15 -->
<g id="Node000015" class="node">
<title>Node15</title>
<g id="a_Node000015"><a xlink:href="HelpCommand_8cpp.html" target="_top" xlink:title=" ">
<polygon fill="white" stroke="#666666" points="1202.62,-38 1074.12,-38 1074.12,-6 1202.62,-6 1202.62,-38"/>
<text text-anchor="start" x="1082.12" y="-24.5" font-family="Helvetica,sans-Serif" font-size="10.00">src/bot_library/commands</text>
<text text-anchor="middle" x="1138.38" y="-12.5" font-family="Helvetica,sans-Serif" font-size="10.00">/help/HelpCommand.cpp</text>
</a>
</g>
</g>
<!-- Node14&#45;&gt;Node15 -->
<g id="edge18_Node000014_Node000015" class="edge">
<title>Node14&#45;&gt;Node15</title>
<g id="a_edge18_Node000014_Node000015"><a xlink:title=" ">
<path fill="none" stroke="#63b8ff" d="M1146.28,-74.37C1144.43,-62.37 1142.32,-48.63 1140.74,-38.38"/>
<polygon fill="#63b8ff" stroke="#63b8ff" points="1142.79,-74.74 1147.77,-84.09 1149.71,-73.68 1142.79,-74.74"/>
</a>
</g>
</g>
<!-- Node16&#45;&gt;Node2 -->
<g id="edge20_Node000016_Node000002" class="edge">
<title>Node16&#45;&gt;Node2</title>
<g id="a_edge20_Node000016_Node000002"><a xlink:title=" ">
<path fill="none" stroke="#63b8ff" d="M241.11,-81.84C195.93,-66.18 133.95,-44.69 98.75,-32.49"/>
<polygon fill="#63b8ff" stroke="#63b8ff" points="239.9,-85.13 250.49,-85.09 242.19,-78.51 239.9,-85.13"/>
</a>
</g>
</g>
<!-- Node16&#45;&gt;Node5 -->
<g id="edge21_Node000016_Node000005" class="edge">
<title>Node16&#45;&gt;Node5</title>
<g id="a_edge21_Node000016_Node000005"><a xlink:title=" ">
<path fill="none" stroke="#63b8ff" d="M354.43,-82.9C359.45,-81.76 364.48,-80.77 369.38,-80 882.47,0.41 1024.28,-124.41 1537.38,-44 1545.84,-42.67 1554.72,-40.67 1563.25,-38.41"/>
<polygon fill="#63b8ff" stroke="#63b8ff" points="353.85,-79.44 344.97,-85.23 355.52,-86.24 353.85,-79.44"/>
</a>
</g>
</g>
<!-- Node18 -->
<g id="Node000018" class="node">
<title>Node18</title>
<g id="a_Node000018"><a xlink:href="InitDatabase_8cpp.html" target="_top" xlink:title=" ">
<polygon fill="white" stroke="#666666" points="3063.38,-38 2909.38,-38 2909.38,-6 3063.38,-6 3063.38,-38"/>
<text text-anchor="start" x="2917.38" y="-24.5" font-family="Helvetica,sans-Serif" font-size="10.00">src/bot_library/commands</text>
<text text-anchor="middle" x="2986.38" y="-12.5" font-family="Helvetica,sans-Serif" font-size="10.00">/init_database/InitDatabase.cpp</text>
</a>
</g>
</g>
<!-- Node17&#45;&gt;Node18 -->
<g id="edge23_Node000017_Node000018" class="edge">
<title>Node17&#45;&gt;Node18</title>
<g id="a_edge23_Node000017_Node000018"><a xlink:title=" ">
<path fill="none" stroke="#63b8ff" d="M2979.13,-74.37C2980.82,-62.37 2982.76,-48.63 2984.21,-38.38"/>
<polygon fill="#63b8ff" stroke="#63b8ff" points="2975.69,-73.7 2977.76,-84.09 2982.62,-74.68 2975.69,-73.7"/>
</a>
</g>
</g>
<!-- Node19&#45;&gt;Node5 -->
<g id="edge25_Node000019_Node000005" class="edge">
<title>Node19&#45;&gt;Node5</title>
<g id="a_edge25_Node000019_Node000005"><a xlink:title=" ">
<path fill="none" stroke="#63b8ff" d="M1365.15,-82.6C1368.61,-81.71 1372.03,-80.83 1375.38,-80 1446.94,-62.17 1465.9,-62.2 1537.38,-44 1544.15,-42.27 1551.25,-40.36 1558.24,-38.42"/>
<polygon fill="#63b8ff" stroke="#63b8ff" points="1364.32,-79.2 1355.55,-85.14 1366.11,-85.97 1364.32,-79.2"/>
</a>
</g>
</g>
<!-- Node20 -->
<g id="Node000020" class="node">
<title>Node20</title>
<g id="a_Node000020"><a xlink:href="InviteCommand_8cpp.html" target="_top" xlink:title=" ">
<polygon fill="white" stroke="#666666" points="1353.88,-38 1220.88,-38 1220.88,-6 1353.88,-6 1353.88,-38"/>
<text text-anchor="start" x="1228.88" y="-24.5" font-family="Helvetica,sans-Serif" font-size="10.00">src/bot_library/commands</text>
<text text-anchor="middle" x="1287.38" y="-12.5" font-family="Helvetica,sans-Serif" font-size="10.00">/invite/InviteCommand.cpp</text>
</a>
</g>
</g>
<!-- Node19&#45;&gt;Node20 -->
<g id="edge26_Node000019_Node000020" class="edge">
<title>Node19&#45;&gt;Node20</title>
<g id="a_edge26_Node000019_Node000020"><a xlink:title=" ">
<path fill="none" stroke="#63b8ff" d="M1295.28,-74.37C1293.43,-62.37 1291.32,-48.63 1289.74,-38.38"/>
<polygon fill="#63b8ff" stroke="#63b8ff" points="1291.79,-74.74 1296.77,-84.09 1298.71,-73.68 1291.79,-74.74"/>
</a>
</g>
</g>
<!-- Node21&#45;&gt;Node5 -->
<g id="edge28_Node000021_Node000005" class="edge">
<title>Node21&#45;&gt;Node5</title>
<g id="a_edge28_Node000021_Node000005"><a xlink:title=" ">
<path fill="none" stroke="#63b8ff" d="M1501.52,-80.37C1526.52,-67.19 1558.41,-50.39 1581.2,-38.38"/>
<polygon fill="#63b8ff" stroke="#63b8ff" points="1500.17,-77.13 1492.95,-84.88 1503.43,-83.32 1500.17,-77.13"/>
</a>
</g>
</g>
<!-- Node22 -->
<g id="Node000022" class="node">
<title>Node22</title>
<g id="a_Node000022"><a xlink:href="MemberCommand_8cpp.html" target="_top" xlink:title=" ">
<polygon fill="white" stroke="#666666" points="1528.5,-38 1372.25,-38 1372.25,-6 1528.5,-6 1528.5,-38"/>
<text text-anchor="start" x="1380.25" y="-24.5" font-family="Helvetica,sans-Serif" font-size="10.00">src/bot_library/commands</text>
<text text-anchor="middle" x="1450.38" y="-12.5" font-family="Helvetica,sans-Serif" font-size="10.00">/member/MemberCommand.cpp</text>
</a>
</g>
</g>
<!-- Node21&#45;&gt;Node22 -->
<g id="edge29_Node000021_Node000022" class="edge">
<title>Node21&#45;&gt;Node22</title>
<g id="a_edge29_Node000021_Node000022"><a xlink:title=" ">
<path fill="none" stroke="#63b8ff" d="M1458.28,-74.37C1456.43,-62.37 1454.32,-48.63 1452.74,-38.38"/>
<polygon fill="#63b8ff" stroke="#63b8ff" points="1454.79,-74.74 1459.77,-84.09 1461.71,-73.68 1454.79,-74.74"/>
</a>
</g>
</g>
<!-- Node23&#45;&gt;Node5 -->
<g id="edge31_Node000023_Node000005" class="edge">
<title>Node23&#45;&gt;Node5</title>
<g id="a_edge31_Node000023_Node000005"><a xlink:title=" ">
<path fill="none" stroke="#63b8ff" d="M1622.31,-74.74C1619.53,-62.65 1616.31,-48.73 1613.92,-38.38"/>
<polygon fill="#63b8ff" stroke="#63b8ff" points="1618.82,-75.16 1624.48,-84.11 1625.64,-73.58 1618.82,-75.16"/>
</a>
</g>
</g>
<!-- Node24 -->
<g id="Node000024" class="node">
<title>Node24</title>
<g id="a_Node000024"><a xlink:href="ProfileCommand_8cpp.html" target="_top" xlink:title=" ">
<polygon fill="white" stroke="#666666" points="1832.25,-38 1692.5,-38 1692.5,-6 1832.25,-6 1832.25,-38"/>
<text text-anchor="start" x="1700.5" y="-24.5" font-family="Helvetica,sans-Serif" font-size="10.00">src/bot_library/commands</text>
<text text-anchor="middle" x="1762.38" y="-12.5" font-family="Helvetica,sans-Serif" font-size="10.00">/profile/ProfileCommand.cpp</text>
</a>
</g>
</g>
<!-- Node23&#45;&gt;Node24 -->
<g id="edge32_Node000023_Node000024" class="edge">
<title>Node23&#45;&gt;Node24</title>
<g id="a_edge32_Node000023_Node000024"><a xlink:title=" ">
<path fill="none" stroke="#63b8ff" d="M1664.72,-79.84C1687.22,-66.75 1715.6,-50.23 1735.96,-38.38"/>
<polygon fill="#63b8ff" stroke="#63b8ff" points="1663.04,-76.77 1656.16,-84.83 1666.56,-82.82 1663.04,-76.77"/>
</a>
</g>
</g>
<!-- Node25&#45;&gt;Node5 -->
<g id="edge34_Node000025_Node000005" class="edge">
<title>Node25&#45;&gt;Node5</title>
<g id="a_edge34_Node000025_Node000005"><a xlink:title=" ">
<path fill="none" stroke="#63b8ff" d="M1751.51,-81.24C1719.27,-67.94 1677.39,-50.66 1647.64,-38.38"/>
<polygon fill="#63b8ff" stroke="#63b8ff" points="1750.06,-84.43 1760.64,-85.01 1752.73,-77.96 1750.06,-84.43"/>
</a>
</g>
</g>
<!-- Node26 -->
<g id="Node000026" class="node">
<title>Node26</title>
<g id="a_Node000026"><a xlink:href="ReactionRoles_8cpp.html" target="_top" xlink:title=" ">
<polygon fill="white" stroke="#666666" points="2016.38,-38 1850.38,-38 1850.38,-6 2016.38,-6 2016.38,-38"/>
<text text-anchor="start" x="1858.38" y="-24.5" font-family="Helvetica,sans-Serif" font-size="10.00">src/bot_library/commands</text>
<text text-anchor="middle" x="1933.38" y="-12.5" font-family="Helvetica,sans-Serif" font-size="10.00">/reaction_roles/ReactionRoles.cpp</text>
</a>
</g>
</g>
<!-- Node25&#45;&gt;Node26 -->
<g id="edge35_Node000025_Node000026" class="edge">
<title>Node25&#45;&gt;Node26</title>
<g id="a_edge35_Node000025_Node000026"><a xlink:title=" ">
<path fill="none" stroke="#63b8ff" d="M1835.72,-79.84C1858.22,-66.75 1886.6,-50.23 1906.96,-38.38"/>
<polygon fill="#63b8ff" stroke="#63b8ff" points="1834.04,-76.77 1827.16,-84.83 1837.56,-82.82 1834.04,-76.77"/>
</a>
</g>
</g>
<!-- Node27&#45;&gt;Node5 -->
<g id="edge37_Node000027_Node000005" class="edge">
<title>Node27&#45;&gt;Node5</title>
<g id="a_edge37_Node000027_Node000005"><a xlink:title=" ">
<path fill="none" stroke="#63b8ff" d="M1907.38,-83.2C1901.97,-82.09 1896.6,-81.02 1891.38,-80 1799.29,-62.07 1774.81,-65 1683.38,-44 1676.18,-42.35 1668.64,-40.41 1661.24,-38.4"/>
<polygon fill="#63b8ff" stroke="#63b8ff" points="1906.53,-86.6 1917.03,-85.2 1907.95,-79.74 1906.53,-86.6"/>
</a>
</g>
</g>
<!-- Node28 -->
<g id="Node000028" class="node">
<title>Node28</title>
<g id="a_Node000028"><a xlink:href="ResourcesCommand_8cpp.html" target="_top" xlink:title=" ">
<polygon fill="white" stroke="#666666" points="2210.25,-38 2034.5,-38 2034.5,-6 2210.25,-6 2210.25,-38"/>
<text text-anchor="start" x="2042.5" y="-24.5" font-family="Helvetica,sans-Serif" font-size="10.00">src/bot_library/commands</text>
<text text-anchor="middle" x="2122.38" y="-12.5" font-family="Helvetica,sans-Serif" font-size="10.00">/resources/ResourcesCommand.cpp</text>
</a>
</g>
</g>
<!-- Node27&#45;&gt;Node28 -->
<g id="edge38_Node000027_Node000028" class="edge">
<title>Node27&#45;&gt;Node28</title>
<g id="a_edge38_Node000027_Node000028"><a xlink:title=" ">
<path fill="none" stroke="#63b8ff" d="M2024.72,-79.84C2047.22,-66.75 2075.6,-50.23 2095.96,-38.38"/>
<polygon fill="#63b8ff" stroke="#63b8ff" points="2023.04,-76.77 2016.16,-84.83 2026.56,-82.82 2023.04,-76.77"/>
</a>
</g>
</g>
<!-- Node29&#45;&gt;Node5 -->
<g id="edge40_Node000029_Node000005" class="edge">
<title>Node29&#45;&gt;Node5</title>
<g id="a_edge40_Node000029_Node000005"><a xlink:title=" ">
<path fill="none" stroke="#63b8ff" d="M2098.58,-82.81C2094.14,-81.76 2089.7,-80.81 2085.38,-80 1909.04,-47.05 1859.71,-76.95 1683.38,-44 1675.47,-42.52 1667.18,-40.56 1659.15,-38.42"/>
<polygon fill="#63b8ff" stroke="#63b8ff" points="2097.58,-86.17 2108.13,-85.21 2099.29,-79.38 2097.58,-86.17"/>
</a>
</g>
</g>
<!-- Node30 -->
<g id="Node000030" class="node">
<title>Node30</title>
<g id="a_Node000030"><a xlink:href="RollCommand_8cpp.html" target="_top" xlink:title=" ">
<polygon fill="white" stroke="#666666" points="2356.62,-38 2228.12,-38 2228.12,-6 2356.62,-6 2356.62,-38"/>
<text text-anchor="start" x="2236.12" y="-24.5" font-family="Helvetica,sans-Serif" font-size="10.00">src/bot_library/commands</text>
<text text-anchor="middle" x="2292.38" y="-12.5" font-family="Helvetica,sans-Serif" font-size="10.00">/roll/RollCommand.cpp</text>
</a>
</g>
</g>
<!-- Node29&#45;&gt;Node30 -->
<g id="edge41_Node000029_Node000030" class="edge">
<title>Node29&#45;&gt;Node30</title>
<g id="a_edge41_Node000029_Node000030"><a xlink:title=" ">
<path fill="none" stroke="#63b8ff" d="M2194.72,-79.84C2217.22,-66.75 2245.6,-50.23 2265.96,-38.38"/>
<polygon fill="#63b8ff" stroke="#63b8ff" points="2193.04,-76.77 2186.16,-84.83 2196.56,-82.82 2193.04,-76.77"/>
</a>
</g>
</g>
<!-- Node31&#45;&gt;Node5 -->
<g id="edge43_Node000031_Node000005" class="edge">
<title>Node31&#45;&gt;Node5</title>
<g id="a_edge43_Node000031_Node000005"><a xlink:title=" ">
<path fill="none" stroke="#63b8ff" d="M2249.92,-83.21C2243.67,-82 2237.43,-80.9 2231.38,-80 1989.94,-44.15 1923.82,-85.98 1683.38,-44 1675.32,-42.59 1666.89,-40.64 1658.73,-38.48"/>
<polygon fill="#63b8ff" stroke="#63b8ff" points="2249.14,-86.62 2259.64,-85.21 2250.55,-79.77 2249.14,-86.62"/>
</a>
</g>
</g>
<!-- Node32 -->
<g id="Node000032" class="node">
<title>Node32</title>
<g id="a_Node000032"><a xlink:href="ServerDetails_8cpp.html" target="_top" xlink:title=" ">
<polygon fill="white" stroke="#666666" points="2535.75,-38 2375,-38 2375,-6 2535.75,-6 2535.75,-38"/>
<text text-anchor="start" x="2383" y="-24.5" font-family="Helvetica,sans-Serif" font-size="10.00">src/bot_library/commands</text>
<text text-anchor="middle" x="2455.38" y="-12.5" font-family="Helvetica,sans-Serif" font-size="10.00">/server_details/ServerDetails.cpp</text>
</a>
</g>
</g>
<!-- Node31&#45;&gt;Node32 -->
<g id="edge44_Node000031_Node000032" class="edge">
<title>Node31&#45;&gt;Node32</title>
<g id="a_edge44_Node000031_Node000032"><a xlink:title=" ">
<path fill="none" stroke="#63b8ff" d="M2357.72,-79.84C2380.22,-66.75 2408.6,-50.23 2428.96,-38.38"/>
<polygon fill="#63b8ff" stroke="#63b8ff" points="2356.04,-76.77 2349.16,-84.83 2359.56,-82.82 2356.04,-76.77"/>
</a>
</g>
</g>
<!-- Node33&#45;&gt;Node5 -->
<g id="edge46_Node000033_Node000005" class="edge">
<title>Node33&#45;&gt;Node5</title>
<g id="a_edge46_Node000033_Node000005"><a xlink:title=" ">
<path fill="none" stroke="#63b8ff" d="M2434.03,-83.54C2426.06,-82.18 2418.08,-80.96 2410.38,-80 2089.37,-39.87 2002.5,-97.07 1683.38,-44 1675.18,-42.64 1666.6,-40.67 1658.31,-38.49"/>
<polygon fill="#63b8ff" stroke="#63b8ff" points="2433.29,-86.96 2443.75,-85.27 2434.53,-80.07 2433.29,-86.96"/>
</a>
</g>
</g>
<!-- Node34 -->
<g id="Node000034" class="node">
<title>Node34</title>
<g id="a_Node000034"><a xlink:href="SetChannelCommand_8cpp.html" target="_top" xlink:title=" ">
<polygon fill="white" stroke="#666666" points="2743,-38 2553.75,-38 2553.75,-6 2743,-6 2743,-38"/>
<text text-anchor="start" x="2561.75" y="-24.5" font-family="Helvetica,sans-Serif" font-size="10.00">src/bot_library/commands</text>
<text text-anchor="middle" x="2648.38" y="-12.5" font-family="Helvetica,sans-Serif" font-size="10.00">/set_channel/SetChannelCommand.cpp</text>
</a>
</g>
</g>
<!-- Node33&#45;&gt;Node34 -->
<g id="edge47_Node000033_Node000034" class="edge">
<title>Node33&#45;&gt;Node34</title>
<g id="a_edge47_Node000033_Node000034"><a xlink:title=" ">
<path fill="none" stroke="#63b8ff" d="M2550.72,-79.84C2573.22,-66.75 2601.6,-50.23 2621.96,-38.38"/>
<polygon fill="#63b8ff" stroke="#63b8ff" points="2549.04,-76.77 2542.16,-84.83 2552.56,-82.82 2549.04,-76.77"/>
</a>
</g>
</g>
<!-- Node35&#45;&gt;Node5 -->
<g id="edge49_Node000035_Node000005" class="edge">
<title>Node35&#45;&gt;Node5</title>
<g id="a_edge49_Node000035_Node000005"><a xlink:title=" ">
<path fill="none" stroke="#63b8ff" d="M2633.28,-82.89C2628.27,-81.76 2623.26,-80.78 2618.38,-80 2207.66,-14.77 2093.97,-109.97 1683.38,-44 1675.04,-42.66 1666.31,-40.68 1657.91,-38.46"/>
<polygon fill="#63b8ff" stroke="#63b8ff" points="2632.17,-86.22 2642.71,-85.19 2633.82,-79.42 2632.17,-86.22"/>
</a>
</g>
</g>
<!-- Node36 -->
<g id="Node000036" class="node">
<title>Node36</title>
<g id="a_Node000036"><a xlink:href="SetStatus_8cpp.html" target="_top" xlink:title=" ">
<polygon fill="white" stroke="#666666" points="2891.38,-38 2761.38,-38 2761.38,-6 2891.38,-6 2891.38,-38"/>
<text text-anchor="start" x="2769.38" y="-24.5" font-family="Helvetica,sans-Serif" font-size="10.00">src/bot_library/commands</text>
<text text-anchor="middle" x="2826.38" y="-12.5" font-family="Helvetica,sans-Serif" font-size="10.00">/set_status/SetStatus.cpp</text>
</a>
</g>
</g>
<!-- Node35&#45;&gt;Node36 -->
<g id="edge50_Node000035_Node000036" class="edge">
<title>Node35&#45;&gt;Node36</title>
<g id="a_edge50_Node000035_Node000036"><a xlink:title=" ">
<path fill="none" stroke="#63b8ff" d="M2728.72,-79.84C2751.22,-66.75 2779.6,-50.23 2799.96,-38.38"/>
<polygon fill="#63b8ff" stroke="#63b8ff" points="2727.04,-76.77 2720.16,-84.83 2730.56,-82.82 2727.04,-76.77"/>
</a>
</g>
</g>
</g>
</svg>
