<?xml version="1.0" encoding="UTF-8" standalone="no"?>
<!DOCTYPE svg PUBLIC "-//W3C//DTD SVG 1.1//EN"
 "http://www.w3.org/Graphics/SVG/1.1/DTD/svg11.dtd">
<!-- Generated by graphviz version 9.0.0 (0)
 -->
<!-- Title: src/bot.cpp Pages: 1 -->
<svg width="2063pt" height="252pt"
 viewBox="0.00 0.00 2062.81 252.00" xmlns="http://www.w3.org/2000/svg" xmlns:xlink="http://www.w3.org/1999/xlink">
<g id="graph0" class="graph" transform="scale(1 1) rotate(0) translate(4 248)">
<title>src/bot.cpp</title>
<!-- Node1 -->
<g id="Node000001" class="node">
<title>Node1</title>
<g id="a_Node000001"><a xlink:title=" ">
<polygon fill="#999999" stroke="#666666" points="690.19,-244 625.44,-244 625.44,-224 690.19,-224 690.19,-244"/>
<text text-anchor="middle" x="657.81" y="-230.5" font-family="Helvetica,sans-Serif" font-size="10.00">src/bot.cpp</text>
</a>
</g>
</g>
<!-- Node2 -->
<g id="Node000002" class="node">
<title>Node2</title>
<g id="a_Node000002"><a xlink:href="bot_8hpp.html" target="_top" xlink:title=" ">
<polygon fill="white" stroke="#666666" points="153.94,-188 105.69,-188 105.69,-168 153.94,-168 153.94,-188"/>
<text text-anchor="middle" x="129.81" y="-174.5" font-family="Helvetica,sans-Serif" font-size="10.00">bot.hpp</text>
</a>
</g>
</g>
<!-- Node1&#45;&gt;Node2 -->
<g id="edge1_Node000001_Node000002" class="edge">
<title>Node1&#45;&gt;Node2</title>
<g id="a_edge1_Node000001_Node000002"><a xlink:title=" ">
<path fill="none" stroke="#63b8ff" d="M625.18,-229.66C531.62,-220.09 262.9,-192.61 165.56,-182.66"/>
<polygon fill="#63b8ff" stroke="#63b8ff" points="166.11,-179.19 155.81,-181.66 165.4,-186.16 166.11,-179.19"/>
</a>
</g>
</g>
<!-- Node4 -->
<g id="Node000004" class="node">
<title>Node4</title>
<g id="a_Node000004"><a xlink:title=" ">
<polygon fill="#e0e0e0" stroke="#999999" points="636.81,-20 548.81,-20 548.81,0 636.81,0 636.81,-20"/>
<text text-anchor="middle" x="592.81" y="-6.5" font-family="Helvetica,sans-Serif" font-size="10.00">dpp/dispatcher.h</text>
</a>
</g>
</g>
<!-- Node1&#45;&gt;Node4 -->
<g id="edge6_Node000001_Node000004" class="edge">
<title>Node1&#45;&gt;Node4</title>
<g id="a_edge6_Node000001_Node000004"><a xlink:title=" ">
<path fill="none" stroke="#63b8ff" d="M625.13,-232.36C520.71,-230 196.15,-220.2 96.81,-188 51.27,-173.24 28.26,-173.73 4.81,-132 -48.77,-36.66 380.7,-16.32 537.2,-12.08"/>
<polygon fill="#63b8ff" stroke="#63b8ff" points="537.01,-15.59 546.91,-11.83 536.83,-8.59 537.01,-15.59"/>
</a>
</g>
</g>
<!-- Node7 -->
<g id="Node000007" class="node">
<title>Node7</title>
<g id="a_Node000007"><a xlink:title=" ">
<polygon fill="#e0e0e0" stroke="#999999" points="510.31,-132 419.31,-132 419.31,-112 510.31,-112 510.31,-132"/>
<text text-anchor="middle" x="464.81" y="-118.5" font-family="Helvetica,sans-Serif" font-size="10.00">dpp/misc&#45;enum.h</text>
</a>
</g>
</g>
<!-- Node1&#45;&gt;Node7 -->
<g id="edge7_Node000001_Node000007" class="edge">
<title>Node1&#45;&gt;Node7</title>
<g id="a_edge7_Node000001_Node000007"><a xlink:title=" ">
<path fill="none" stroke="#63b8ff" d="M625.16,-231.45C568.34,-228 455.03,-217.5 430.81,-188 418.76,-173.33 432.27,-153.71 445.66,-139.87"/>
<polygon fill="#63b8ff" stroke="#63b8ff" points="447.87,-142.6 452.66,-133.15 443.02,-137.55 447.87,-142.6"/>
</a>
</g>
</g>
<!-- Node8 -->
<g id="Node000008" class="node">
<title>Node8</title>
<g id="a_Node000008"><a xlink:title=" ">
<polygon fill="#e0e0e0" stroke="#999999" points="522.19,-188 439.44,-188 439.44,-168 522.19,-168 522.19,-188"/>
<text text-anchor="middle" x="480.81" y="-174.5" font-family="Helvetica,sans-Serif" font-size="10.00">dpp/presence.h</text>
</a>
</g>
</g>
<!-- Node1&#45;&gt;Node8 -->
<g id="edge8_Node000001_Node000008" class="edge">
<title>Node1&#45;&gt;Node8</title>
<g id="a_edge8_Node000001_Node000008"><a xlink:title=" ">
<path fill="none" stroke="#63b8ff" d="M626.98,-223.59C598.1,-214.78 554.7,-201.54 522.69,-191.78"/>
<polygon fill="#63b8ff" stroke="#63b8ff" points="523.92,-188.49 513.33,-188.92 521.87,-195.19 523.92,-188.49"/>
</a>
</g>
</g>
<!-- Node9 -->
<g id="Node000009" class="node">
<title>Node9</title>
<g id="a_Node000009"><a xlink:title=" ">
<polygon fill="#e0e0e0" stroke="#999999" points="603.06,-188 540.56,-188 540.56,-168 603.06,-168 603.06,-188"/>
<text text-anchor="middle" x="571.81" y="-174.5" font-family="Helvetica,sans-Serif" font-size="10.00">fmt/color.h</text>
</a>
</g>
</g>
<!-- Node1&#45;&gt;Node9 -->
<g id="edge9_Node000001_Node000009" class="edge">
<title>Node1&#45;&gt;Node9</title>
<g id="a_edge9_Node000001_Node000009"><a xlink:title=" ">
<path fill="none" stroke="#63b8ff" d="M642.83,-223.59C630.08,-215.59 611.52,-203.93 596.57,-194.54"/>
<polygon fill="#63b8ff" stroke="#63b8ff" points="598.52,-191.64 588.19,-189.28 594.8,-197.57 598.52,-191.64"/>
</a>
</g>
</g>
<!-- Node10 -->
<g id="Node000010" class="node">
<title>Node10</title>
<g id="a_Node000010"><a xlink:title=" ">
<polygon fill="#e0e0e0" stroke="#999999" points="646.94,-132 586.69,-132 586.69,-112 646.94,-112 646.94,-132"/>
<text text-anchor="middle" x="616.81" y="-118.5" font-family="Helvetica,sans-Serif" font-size="10.00">fmt/core.h</text>
</a>
</g>
</g>
<!-- Node1&#45;&gt;Node10 -->
<g id="edge10_Node000001_Node000010" class="edge">
<title>Node1&#45;&gt;Node10</title>
<g id="a_edge10_Node000001_Node000010"><a xlink:title=" ">
<path fill="none" stroke="#63b8ff" d="M654.32,-223.62C647.69,-205.84 633.17,-166.88 624.26,-143"/>
<polygon fill="#63b8ff" stroke="#63b8ff" points="627.6,-141.92 620.83,-133.77 621.04,-144.37 627.6,-141.92"/>
</a>
</g>
</g>
<!-- Node11 -->
<g id="Node000011" class="node">
<title>Node11</title>
<g id="a_Node000011"><a xlink:title=" ">
<polygon fill="#e0e0e0" stroke="#999999" points="710.81,-188 658.81,-188 658.81,-168 710.81,-168 710.81,-188"/>
<text text-anchor="middle" x="684.81" y="-174.5" font-family="Helvetica,sans-Serif" font-size="10.00">fmt/os.h</text>
</a>
</g>
</g>
<!-- Node1&#45;&gt;Node11 -->
<g id="edge11_Node000001_Node000011" class="edge">
<title>Node1&#45;&gt;Node11</title>
<g id="a_edge11_Node000001_Node000011"><a xlink:title=" ">
<path fill="none" stroke="#63b8ff" d="M662.51,-223.59C665.96,-216.7 670.76,-207.1 675.02,-198.57"/>
<polygon fill="#63b8ff" stroke="#63b8ff" points="678.14,-200.16 679.48,-189.65 671.88,-197.03 678.14,-200.16"/>
</a>
</g>
</g>
<!-- Node12 -->
<g id="Node000012" class="node">
<title>Node12</title>
<g id="a_Node000012"><a xlink:href="Bot_8hpp.html" target="_top" xlink:title=" ">
<polygon fill="white" stroke="#666666" points="991.69,-132 941.94,-132 941.94,-112 991.69,-112 991.69,-132"/>
<text text-anchor="middle" x="966.81" y="-118.5" font-family="Helvetica,sans-Serif" font-size="10.00">Bot.hpp</text>
</a>
</g>
</g>
<!-- Node1&#45;&gt;Node12 -->
<g id="edge12_Node000001_Node000012" class="edge">
<title>Node1&#45;&gt;Node12</title>
<g id="a_edge12_Node000001_Node000012"><a xlink:title=" ">
<path fill="none" stroke="#63b8ff" d="M687.64,-223.51C715.27,-214.63 757.46,-200.84 793.81,-188 841.99,-170.98 897.18,-149.98 932.01,-136.54"/>
<polygon fill="#63b8ff" stroke="#63b8ff" points="933.09,-139.87 941.16,-133 930.57,-133.35 933.09,-139.87"/>
</a>
</g>
</g>
<!-- Node15 -->
<g id="Node000015" class="node">
<title>Node15</title>
<g id="a_Node000015"><a xlink:title=" ">
<polygon fill="#e0e0e0" stroke="#999999" points="1606.81,-76 1566.81,-76 1566.81,-56 1606.81,-56 1606.81,-76"/>
<text text-anchor="middle" x="1586.81" y="-62.5" font-family="Helvetica,sans-Serif" font-size="10.00">string</text>
</a>
</g>
</g>
<!-- Node1&#45;&gt;Node15 -->
<g id="edge61_Node000001_Node000015" class="edge">
<title>Node1&#45;&gt;Node15</title>
<g id="a_edge61_Node000001_Node000015"><a xlink:title=" ">
<path fill="none" stroke="#63b8ff" d="M690.58,-229.62C751.78,-223.11 887.5,-207.71 1000.81,-188 1042.04,-180.83 1051.84,-176.51 1092.81,-168 1295.46,-125.93 1351.63,-127.66 1555.52,-76.37"/>
<polygon fill="#63b8ff" stroke="#63b8ff" points="1556.3,-79.79 1565.14,-73.94 1554.59,-73 1556.3,-79.79"/>
</a>
</g>
</g>
<!-- Node24 -->
<g id="Node000024" class="node">
<title>Node24</title>
<g id="a_Node000024"><a xlink:href="CommandRegister_8hpp.html" target="_top" xlink:title=" ">
<polygon fill="white" stroke="#666666" points="992.06,-188 875.56,-188 875.56,-168 992.06,-168 992.06,-188"/>
<text text-anchor="middle" x="933.81" y="-174.5" font-family="Helvetica,sans-Serif" font-size="10.00">CommandRegister.hpp</text>
</a>
</g>
</g>
<!-- Node1&#45;&gt;Node24 -->
<g id="edge38_Node000001_Node000024" class="edge">
<title>Node1&#45;&gt;Node24</title>
<g id="a_edge38_Node000001_Node000024"><a xlink:title=" ">
<path fill="none" stroke="#63b8ff" d="M690.56,-226.59C735.71,-217.76 817.87,-201.68 874.11,-190.68"/>
<polygon fill="#63b8ff" stroke="#63b8ff" points="874.72,-194.13 883.86,-188.77 873.37,-187.26 874.72,-194.13"/>
</a>
</g>
</g>
<!-- Node25 -->
<g id="Node000025" class="node">
<title>Node25</title>
<g id="a_Node000025"><a xlink:href="Core_8hpp.html" target="_top" xlink:title=" ">
<polygon fill="white" stroke="#666666" points="784.69,-188 728.94,-188 728.94,-168 784.69,-168 784.69,-188"/>
<text text-anchor="middle" x="756.81" y="-174.5" font-family="Helvetica,sans-Serif" font-size="10.00">Core.hpp</text>
</a>
</g>
</g>
<!-- Node1&#45;&gt;Node25 -->
<g id="edge40_Node000001_Node000025" class="edge">
<title>Node1&#45;&gt;Node25</title>
<g id="a_edge40_Node000001_Node000025"><a xlink:title=" ">
<path fill="none" stroke="#63b8ff" d="M675.06,-223.59C690.15,-215.36 712.34,-203.26 729.79,-193.74"/>
<polygon fill="#63b8ff" stroke="#63b8ff" points="731,-197.07 738.1,-189.2 727.65,-190.92 731,-197.07"/>
</a>
</g>
</g>
<!-- Node26 -->
<g id="Node000026" class="node">
<title>Node26</title>
<g id="a_Node000026"><a xlink:href="Database_8hpp.html" target="_top" xlink:title=" ">
<polygon fill="white" stroke="#666666" points="1787.56,-132 1668.06,-132 1668.06,-112 1787.56,-112 1787.56,-132"/>
<text text-anchor="middle" x="1727.81" y="-118.5" font-family="Helvetica,sans-Serif" font-size="10.00">database/Database.hpp</text>
</a>
</g>
</g>
<!-- Node1&#45;&gt;Node26 -->
<g id="edge60_Node000001_Node000026" class="edge">
<title>Node1&#45;&gt;Node26</title>
<g id="a_edge60_Node000001_Node000026"><a xlink:title=" ">
<path fill="none" stroke="#63b8ff" d="M690.42,-229.65C838.21,-214.45 1447.08,-151.86 1656.6,-130.32"/>
<polygon fill="#63b8ff" stroke="#63b8ff" points="1656.66,-133.83 1666.24,-129.33 1655.94,-126.87 1656.66,-133.83"/>
</a>
</g>
</g>
<!-- Node3 -->
<g id="Node000003" class="node">
<title>Node3</title>
<g id="a_Node000003"><a xlink:title=" ">
<polygon fill="#e0e0e0" stroke="#999999" points="772.94,-20 700.69,-20 700.69,0 772.94,0 772.94,-20"/>
<text text-anchor="middle" x="736.81" y="-6.5" font-family="Helvetica,sans-Serif" font-size="10.00">dpp/cluster.h</text>
</a>
</g>
</g>
<!-- Node2&#45;&gt;Node3 -->
<g id="edge2_Node000002_Node000003" class="edge">
<title>Node2&#45;&gt;Node3</title>
<g id="a_edge2_Node000002_Node000003"><a xlink:title=" ">
<path fill="none" stroke="#63b8ff" d="M127.89,-167.69C123.78,-144.77 116.88,-85.37 148.81,-56 189.56,-18.52 590.65,-24.73 645.81,-20 659.9,-18.79 675.2,-17.34 689.16,-15.95"/>
<polygon fill="#63b8ff" stroke="#63b8ff" points="689.41,-19.44 699.01,-14.96 688.71,-12.48 689.41,-19.44"/>
</a>
</g>
</g>
<!-- Node2&#45;&gt;Node4 -->
<g id="edge3_Node000002_Node000004" class="edge">
<title>Node2&#45;&gt;Node4</title>
<g id="a_edge3_Node000002_Node000004"><a xlink:title=" ">
<path fill="none" stroke="#63b8ff" d="M124.54,-167.67C112.65,-145.23 86.92,-87.75 115.81,-56 143.71,-25.34 417.44,-15.14 537.19,-12.13"/>
<polygon fill="#63b8ff" stroke="#63b8ff" points="537.2,-15.63 547.12,-11.89 537.03,-8.63 537.2,-15.63"/>
</a>
</g>
</g>
<!-- Node5 -->
<g id="Node000005" class="node">
<title>Node5</title>
<g id="a_Node000005"><a xlink:title=" ">
<polygon fill="#e0e0e0" stroke="#999999" points="280.19,-132 221.44,-132 221.44,-112 280.19,-112 280.19,-132"/>
<text text-anchor="middle" x="250.81" y="-118.5" font-family="Helvetica,sans-Serif" font-size="10.00">dpp/dpp.h</text>
</a>
</g>
</g>
<!-- Node2&#45;&gt;Node5 -->
<g id="edge4_Node000002_Node000005" class="edge">
<title>Node2&#45;&gt;Node5</title>
<g id="a_edge4_Node000002_Node000005"><a xlink:title=" ">
<path fill="none" stroke="#63b8ff" d="M150.89,-167.59C169.77,-159.17 197.73,-146.69 219.27,-137.07"/>
<polygon fill="#63b8ff" stroke="#63b8ff" points="220.48,-140.37 228.19,-133.1 217.63,-133.98 220.48,-140.37"/>
</a>
</g>
</g>
<!-- Node6 -->
<g id="Node000006" class="node">
<title>Node6</title>
<g id="a_Node000006"><a xlink:title=" ">
<polygon fill="#e0e0e0" stroke="#999999" points="63.31,-132 14.31,-132 14.31,-112 63.31,-112 63.31,-132"/>
<text text-anchor="middle" x="38.81" y="-118.5" font-family="Helvetica,sans-Serif" font-size="10.00">fstream</text>
</a>
</g>
</g>
<!-- Node2&#45;&gt;Node6 -->
<g id="edge5_Node000002_Node000006" class="edge">
<title>Node2&#45;&gt;Node6</title>
<g id="a_edge5_Node000002_Node000006"><a xlink:title=" ">
<path fill="none" stroke="#63b8ff" d="M113.96,-167.59C100.34,-159.51 80.45,-147.71 64.55,-138.27"/>
<polygon fill="#63b8ff" stroke="#63b8ff" points="66.47,-135.35 56.09,-133.25 62.9,-141.37 66.47,-135.35"/>
</a>
</g>
</g>
<!-- Node13 -->
<g id="Node000013" class="node">
<title>Node13</title>
<g id="a_Node000013"><a xlink:title=" ">
<polygon fill="#e0e0e0" stroke="#999999" points="1487.19,-76 1452.44,-76 1452.44,-56 1487.19,-56 1487.19,-76"/>
<text text-anchor="middle" x="1469.81" y="-62.5" font-family="Helvetica,sans-Serif" font-size="10.00">map</text>
</a>
</g>
</g>
<!-- Node12&#45;&gt;Node13 -->
<g id="edge13_Node000012_Node000013" class="edge">
<title>Node12&#45;&gt;Node13</title>
<g id="a_edge13_Node000012_Node000013"><a xlink:title=" ">
<path fill="none" stroke="#63b8ff" d="M991.95,-115.44C998.4,-114.17 1005.34,-112.91 1011.81,-112 1198.95,-85.58 1253.25,-114.67 1440.99,-76.12"/>
<polygon fill="#63b8ff" stroke="#63b8ff" points="1441.52,-79.58 1450.59,-74.11 1440.09,-72.73 1441.52,-79.58"/>
</a>
</g>
</g>
<!-- Node14 -->
<g id="Node000014" class="node">
<title>Node14</title>
<g id="a_Node000014"><a xlink:title=" ">
<polygon fill="#e0e0e0" stroke="#999999" points="1305.44,-76 1254.19,-76 1254.19,-56 1305.44,-56 1305.44,-76"/>
<text text-anchor="middle" x="1279.81" y="-62.5" font-family="Helvetica,sans-Serif" font-size="10.00">memory</text>
</a>
</g>
</g>
<!-- Node12&#45;&gt;Node14 -->
<g id="edge14_Node000012_Node000014" class="edge">
<title>Node12&#45;&gt;Node14</title>
<g id="a_edge14_Node000012_Node000014"><a xlink:title=" ">
<path fill="none" stroke="#63b8ff" d="M992,-115.76C998.45,-114.47 1005.38,-113.14 1011.81,-112 1111.89,-94.3 1140.85,-97.26 1242.79,-76.46"/>
<polygon fill="#63b8ff" stroke="#63b8ff" points="1243.32,-79.93 1252.41,-74.47 1241.91,-73.07 1243.32,-79.93"/>
</a>
</g>
</g>
<!-- Node12&#45;&gt;Node15 -->
<g id="edge15_Node000012_Node000015" class="edge">
<title>Node12&#45;&gt;Node15</title>
<g id="a_edge15_Node000012_Node000015"><a xlink:title=" ">
<path fill="none" stroke="#63b8ff" d="M991.94,-115.37C998.39,-114.09 1005.33,-112.86 1011.81,-112 1249.25,-80.57 1316.66,-119.14 1555.24,-76.04"/>
<polygon fill="#63b8ff" stroke="#63b8ff" points="1555.68,-79.52 1564.88,-74.27 1554.41,-72.64 1555.68,-79.52"/>
</a>
</g>
</g>
<!-- Node16 -->
<g id="Node000016" class="node">
<title>Node16</title>
<g id="a_Node000016"><a xlink:title=" ">
<polygon fill="#e0e0e0" stroke="#999999" points="1548.31,-76 1505.31,-76 1505.31,-56 1548.31,-56 1548.31,-76"/>
<text text-anchor="middle" x="1526.81" y="-62.5" font-family="Helvetica,sans-Serif" font-size="10.00">vector</text>
</a>
</g>
</g>
<!-- Node12&#45;&gt;Node16 -->
<g id="edge16_Node000012_Node000016" class="edge">
<title>Node12&#45;&gt;Node16</title>
<g id="a_edge16_Node000012_Node000016"><a xlink:title=" ">
<path fill="none" stroke="#63b8ff" d="M991.95,-115.4C998.39,-114.13 1005.34,-112.88 1011.81,-112 1221.88,-83.29 1281.5,-113.22 1493.72,-75.97"/>
<polygon fill="#63b8ff" stroke="#63b8ff" points="1494.21,-79.44 1503.44,-74.23 1492.98,-72.55 1494.21,-79.44"/>
</a>
</g>
</g>
<!-- Node17 -->
<g id="Node000017" class="node">
<title>Node17</title>
<g id="a_Node000017"><a xlink:href="IButtonCommand_8hpp.html" target="_top" xlink:title=" ">
<polygon fill="white" stroke="#666666" points="315.31,-76 158.31,-76 158.31,-56 315.31,-56 315.31,-76"/>
<text text-anchor="middle" x="236.81" y="-62.5" font-family="Helvetica,sans-Serif" font-size="10.00">interfaces/IButtonCommand.hpp</text>
</a>
</g>
</g>
<!-- Node12&#45;&gt;Node17 -->
<g id="edge17_Node000012_Node000017" class="edge">
<title>Node12&#45;&gt;Node17</title>
<g id="a_edge17_Node000012_Node000017"><a xlink:title=" ">
<path fill="none" stroke="#63b8ff" d="M941.66,-119.54C856.78,-114.55 572.84,-97.36 326.84,-76.24"/>
<polygon fill="#63b8ff" stroke="#63b8ff" points="327.29,-72.76 317.03,-75.39 326.69,-79.74 327.29,-72.76"/>
</a>
</g>
</g>
<!-- Node18 -->
<g id="Node000018" class="node">
<title>Node18</title>
<g id="a_Node000018"><a xlink:href="IFormCommand_8hpp.html" target="_top" xlink:title=" ">
<polygon fill="white" stroke="#666666" points="484.31,-76 333.31,-76 333.31,-56 484.31,-56 484.31,-76"/>
<text text-anchor="middle" x="408.81" y="-62.5" font-family="Helvetica,sans-Serif" font-size="10.00">interfaces/IFormCommand.hpp</text>
</a>
</g>
</g>
<!-- Node12&#45;&gt;Node18 -->
<g id="edge20_Node000012_Node000018" class="edge">
<title>Node12&#45;&gt;Node18</title>
<g id="a_edge20_Node000012_Node000018"><a xlink:title=" ">
<path fill="none" stroke="#63b8ff" d="M941.62,-118.72C872.35,-112.41 672.9,-94.12 495.73,-76.28"/>
<polygon fill="#63b8ff" stroke="#63b8ff" points="496.17,-72.81 485.87,-75.29 495.47,-79.78 496.17,-72.81"/>
</a>
</g>
</g>
<!-- Node19 -->
<g id="Node000019" class="node">
<title>Node19</title>
<g id="a_Node000019"><a xlink:href="IGlobalSlashCommand_8hpp.html" target="_top" xlink:title=" ">
<polygon fill="white" stroke="#666666" points="683.31,-76 502.31,-76 502.31,-56 683.31,-56 683.31,-76"/>
<text text-anchor="middle" x="592.81" y="-62.5" font-family="Helvetica,sans-Serif" font-size="10.00">interfaces/IGlobalSlashCommand.hpp</text>
</a>
</g>
</g>
<!-- Node12&#45;&gt;Node19 -->
<g id="edge23_Node000012_Node000019" class="edge">
<title>Node12&#45;&gt;Node19</title>
<g id="a_edge23_Node000012_Node000019"><a xlink:title=" ">
<path fill="none" stroke="#63b8ff" d="M941.69,-117.37C886.83,-109.45 754.43,-90.34 669.43,-78.06"/>
<polygon fill="#63b8ff" stroke="#63b8ff" points="670.17,-74.63 659.77,-76.67 669.17,-81.56 670.17,-74.63"/>
</a>
</g>
</g>
<!-- Node20 -->
<g id="Node000020" class="node">
<title>Node20</title>
<g id="a_Node000020"><a xlink:href="IMemberCommand_8hpp.html" target="_top" xlink:title=" ">
<polygon fill="white" stroke="#666666" points="864.69,-76 700.94,-76 700.94,-56 864.69,-56 864.69,-76"/>
<text text-anchor="middle" x="782.81" y="-62.5" font-family="Helvetica,sans-Serif" font-size="10.00">interfaces/IMemberCommand.hpp</text>
</a>
</g>
</g>
<!-- Node12&#45;&gt;Node20 -->
<g id="edge26_Node000012_Node000020" class="edge">
<title>Node12&#45;&gt;Node20</title>
<g id="a_edge26_Node000012_Node000020"><a xlink:title=" ">
<path fill="none" stroke="#63b8ff" d="M941.61,-113.6C911.82,-104.86 861.75,-90.17 825.79,-79.61"/>
<polygon fill="#63b8ff" stroke="#63b8ff" points="827.16,-76.37 816.58,-76.91 825.19,-83.08 827.16,-76.37"/>
</a>
</g>
</g>
<!-- Node21 -->
<g id="Node000021" class="node">
<title>Node21</title>
<g id="a_Node000021"><a xlink:href="IMessageCommand_8hpp.html" target="_top" xlink:title=" ">
<polygon fill="white" stroke="#666666" points="1050.94,-76 882.69,-76 882.69,-56 1050.94,-56 1050.94,-76"/>
<text text-anchor="middle" x="966.81" y="-62.5" font-family="Helvetica,sans-Serif" font-size="10.00">interfaces/IMessageCommand.hpp</text>
</a>
</g>
</g>
<!-- Node12&#45;&gt;Node21 -->
<g id="edge29_Node000012_Node000021" class="edge">
<title>Node12&#45;&gt;Node21</title>
<g id="a_edge29_Node000012_Node000021"><a xlink:title=" ">
<path fill="none" stroke="#63b8ff" d="M966.81,-111.59C966.81,-105.01 966.81,-95.96 966.81,-87.73"/>
<polygon fill="#63b8ff" stroke="#63b8ff" points="970.31,-87.81 966.81,-77.81 963.31,-87.81 970.31,-87.81"/>
</a>
</g>
</g>
<!-- Node22 -->
<g id="Node000022" class="node">
<title>Node22</title>
<g id="a_Node000022"><a xlink:href="IReactionCommand_8hpp.html" target="_top" xlink:title=" ">
<polygon fill="white" stroke="#666666" points="1236.56,-76 1069.06,-76 1069.06,-56 1236.56,-56 1236.56,-76"/>
<text text-anchor="middle" x="1152.81" y="-62.5" font-family="Helvetica,sans-Serif" font-size="10.00">interfaces/IReactionCommand.hpp</text>
</a>
</g>
</g>
<!-- Node12&#45;&gt;Node22 -->
<g id="edge32_Node000012_Node000022" class="edge">
<title>Node12&#45;&gt;Node22</title>
<g id="a_edge32_Node000012_Node000022"><a xlink:title=" ">
<path fill="none" stroke="#63b8ff" d="M991.9,-113.72C1022,-104.98 1072.98,-90.18 1109.5,-79.58"/>
<polygon fill="#63b8ff" stroke="#63b8ff" points="1110.24,-83 1118.87,-76.85 1108.29,-76.28 1110.24,-83"/>
</a>
</g>
</g>
<!-- Node23 -->
<g id="Node000023" class="node">
<title>Node23</title>
<g id="a_Node000023"><a xlink:href="IReady_8hpp.html" target="_top" xlink:title=" ">
<polygon fill="white" stroke="#666666" points="1434.44,-76 1323.19,-76 1323.19,-56 1434.44,-56 1434.44,-76"/>
<text text-anchor="middle" x="1378.81" y="-62.5" font-family="Helvetica,sans-Serif" font-size="10.00">interfaces/IReady.hpp</text>
</a>
</g>
</g>
<!-- Node12&#45;&gt;Node23 -->
<g id="edge35_Node000012_Node000023" class="edge">
<title>Node12&#45;&gt;Node23</title>
<g id="a_edge35_Node000012_Node000023"><a xlink:title=" ">
<path fill="none" stroke="#63b8ff" d="M991.98,-115.6C998.42,-114.32 1005.36,-113.03 1011.81,-112 1142.21,-91.25 1178.43,-93.31 1311.91,-76.35"/>
<polygon fill="#63b8ff" stroke="#63b8ff" points="1312,-79.86 1321.47,-75.12 1311.11,-72.92 1312,-79.86"/>
</a>
</g>
</g>
<!-- Node17&#45;&gt;Node3 -->
<g id="edge18_Node000017_Node000003" class="edge">
<title>Node17&#45;&gt;Node3</title>
<g id="a_edge18_Node000017_Node000003"><a xlink:title=" ">
<path fill="none" stroke="#63b8ff" d="M315.76,-56.47C420.74,-45.14 603.01,-25.45 689.13,-16.15"/>
<polygon fill="#63b8ff" stroke="#63b8ff" points="689.31,-19.65 698.88,-15.1 688.56,-12.69 689.31,-19.65"/>
</a>
</g>
</g>
<!-- Node17&#45;&gt;Node4 -->
<g id="edge19_Node000017_Node000004" class="edge">
<title>Node17&#45;&gt;Node4</title>
<g id="a_edge19_Node000017_Node000004"><a xlink:title=" ">
<path fill="none" stroke="#63b8ff" d="M299.23,-55.53C366.57,-45.32 472.81,-29.2 537.33,-19.42"/>
<polygon fill="#63b8ff" stroke="#63b8ff" points="537.63,-22.91 546.99,-17.95 536.58,-15.99 537.63,-22.91"/>
</a>
</g>
</g>
<!-- Node18&#45;&gt;Node3 -->
<g id="edge21_Node000018_Node000003" class="edge">
<title>Node18&#45;&gt;Node3</title>
<g id="a_edge21_Node000018_Node000003"><a xlink:title=" ">
<path fill="none" stroke="#63b8ff" d="M466.32,-55.53C529.53,-45.12 629.94,-28.6 689,-18.87"/>
<polygon fill="#63b8ff" stroke="#63b8ff" points="689.45,-22.34 698.75,-17.27 688.31,-15.44 689.45,-22.34"/>
</a>
</g>
</g>
<!-- Node18&#45;&gt;Node4 -->
<g id="edge22_Node000018_Node000004" class="edge">
<title>Node18&#45;&gt;Node4</title>
<g id="a_edge22_Node000018_Node000004"><a xlink:title=" ">
<path fill="none" stroke="#63b8ff" d="M440.86,-55.59C471.02,-46.74 516.4,-33.43 549.71,-23.65"/>
<polygon fill="#63b8ff" stroke="#63b8ff" points="550.45,-27.08 559.06,-20.91 548.48,-20.36 550.45,-27.08"/>
</a>
</g>
</g>
<!-- Node19&#45;&gt;Node3 -->
<g id="edge24_Node000019_Node000003" class="edge">
<title>Node19&#45;&gt;Node3</title>
<g id="a_edge24_Node000019_Node000003"><a xlink:title=" ">
<path fill="none" stroke="#63b8ff" d="M617.89,-55.59C640.88,-46.97 675.16,-34.12 701.02,-24.42"/>
<polygon fill="#63b8ff" stroke="#63b8ff" points="701.98,-27.8 710.12,-21.01 699.52,-21.25 701.98,-27.8"/>
</a>
</g>
</g>
<!-- Node19&#45;&gt;Node4 -->
<g id="edge25_Node000019_Node000004" class="edge">
<title>Node19&#45;&gt;Node4</title>
<g id="a_edge25_Node000019_Node000004"><a xlink:title=" ">
<path fill="none" stroke="#63b8ff" d="M592.81,-55.59C592.81,-49.01 592.81,-39.96 592.81,-31.73"/>
<polygon fill="#63b8ff" stroke="#63b8ff" points="596.31,-31.81 592.81,-21.81 589.31,-31.81 596.31,-31.81"/>
</a>
</g>
</g>
<!-- Node20&#45;&gt;Node3 -->
<g id="edge27_Node000020_Node000003" class="edge">
<title>Node20&#45;&gt;Node3</title>
<g id="a_edge27_Node000020_Node000003"><a xlink:title=" ">
<path fill="none" stroke="#63b8ff" d="M774.8,-55.59C768.53,-48.24 759.64,-37.8 752.03,-28.87"/>
<polygon fill="#63b8ff" stroke="#63b8ff" points="754.86,-26.79 745.71,-21.45 749.53,-31.33 754.86,-26.79"/>
</a>
</g>
</g>
<!-- Node20&#45;&gt;Node4 -->
<g id="edge28_Node000020_Node000004" class="edge">
<title>Node20&#45;&gt;Node4</title>
<g id="a_edge28_Node000020_Node000004"><a xlink:title=" ">
<path fill="none" stroke="#63b8ff" d="M749.72,-55.59C718.44,-46.71 671.31,-33.31 636.87,-23.52"/>
<polygon fill="#63b8ff" stroke="#63b8ff" points="638.2,-20.26 627.62,-20.89 636.28,-26.99 638.2,-20.26"/>
</a>
</g>
</g>
<!-- Node21&#45;&gt;Node3 -->
<g id="edge30_Node000021_Node000003" class="edge">
<title>Node21&#45;&gt;Node3</title>
<g id="a_edge30_Node000021_Node000003"><a xlink:title=" ">
<path fill="none" stroke="#63b8ff" d="M926.48,-55.53C886.83,-46.22 826.31,-32.01 784.34,-22.16"/>
<polygon fill="#63b8ff" stroke="#63b8ff" points="785.3,-18.79 774.77,-19.91 783.7,-25.6 785.3,-18.79"/>
</a>
</g>
</g>
<!-- Node21&#45;&gt;Node4 -->
<g id="edge31_Node000021_Node000004" class="edge">
<title>Node21&#45;&gt;Node4</title>
<g id="a_edge31_Node000021_Node000004"><a xlink:title=" ">
<path fill="none" stroke="#63b8ff" d="M901.24,-55.53C829.55,-45.18 715.91,-28.77 648.42,-19.03"/>
<polygon fill="#63b8ff" stroke="#63b8ff" points="649.08,-15.59 638.69,-17.62 648.08,-22.52 649.08,-15.59"/>
</a>
</g>
</g>
<!-- Node22&#45;&gt;Node3 -->
<g id="edge33_Node000022_Node000003" class="edge">
<title>Node22&#45;&gt;Node3</title>
<g id="a_edge33_Node000022_Node000003"><a xlink:title=" ">
<path fill="none" stroke="#63b8ff" d="M1079.87,-55.53C994.83,-44.49 856.7,-26.56 784.39,-17.18"/>
<polygon fill="#63b8ff" stroke="#63b8ff" points="785.24,-13.76 774.87,-15.94 784.34,-20.7 785.24,-13.76"/>
</a>
</g>
</g>
<!-- Node22&#45;&gt;Node4 -->
<g id="edge34_Node000022_Node000004" class="edge">
<title>Node22&#45;&gt;Node4</title>
<g id="a_edge34_Node000022_Node000004"><a xlink:title=" ">
<path fill="none" stroke="#63b8ff" d="M1068.66,-56.85C1065.67,-56.57 1062.72,-56.28 1059.81,-56 911.22,-41.65 736.04,-24.78 648.49,-16.36"/>
<polygon fill="#63b8ff" stroke="#63b8ff" points="649.04,-12.89 638.75,-15.42 648.37,-19.86 649.04,-12.89"/>
</a>
</g>
</g>
<!-- Node23&#45;&gt;Node3 -->
<g id="edge36_Node000023_Node000003" class="edge">
<title>Node23&#45;&gt;Node3</title>
<g id="a_edge36_Node000023_Node000003"><a xlink:title=" ">
<path fill="none" stroke="#63b8ff" d="M1322.99,-56.94C1320.23,-56.61 1317.49,-56.29 1314.81,-56 1118.67,-34.59 884,-19.58 784.81,-13.73"/>
<polygon fill="#63b8ff" stroke="#63b8ff" points="785.1,-10.24 774.91,-13.15 784.69,-17.23 785.1,-10.24"/>
</a>
</g>
</g>
<!-- Node23&#45;&gt;Node4 -->
<g id="edge37_Node000023_Node000004" class="edge">
<title>Node23&#45;&gt;Node4</title>
<g id="a_edge37_Node000023_Node000004"><a xlink:title=" ">
<path fill="none" stroke="#63b8ff" d="M1323,-56.88C1320.23,-56.56 1317.49,-56.27 1314.81,-56 1038.81,-28.67 968.4,-40.56 691.81,-20 677.69,-18.95 662.45,-17.65 648.25,-16.36"/>
<polygon fill="#63b8ff" stroke="#63b8ff" points="648.92,-12.91 638.65,-15.48 648.28,-19.88 648.92,-12.91"/>
</a>
</g>
</g>
<!-- Node24&#45;&gt;Node12 -->
<g id="edge39_Node000024_Node000012" class="edge">
<title>Node24&#45;&gt;Node12</title>
<g id="a_edge39_Node000024_Node000012"><a xlink:title=" ">
<path fill="none" stroke="#63b8ff" d="M939.56,-167.59C943.87,-160.55 949.9,-150.67 955.2,-142"/>
<polygon fill="#63b8ff" stroke="#63b8ff" points="958.11,-143.95 960.34,-133.59 952.14,-140.3 958.11,-143.95"/>
</a>
</g>
</g>
<!-- Node25&#45;&gt;Node5 -->
<g id="edge41_Node000025_Node000005" class="edge">
<title>Node25&#45;&gt;Node5</title>
<g id="a_edge41_Node000025_Node000005"><a xlink:title=" ">
<path fill="none" stroke="#63b8ff" d="M728.62,-169.7C725.65,-169.07 722.68,-168.48 719.81,-168 562.98,-141.54 373.83,-129.32 291.92,-124.97"/>
<polygon fill="#63b8ff" stroke="#63b8ff" points="292.31,-121.48 282.15,-124.46 291.95,-128.47 292.31,-121.48"/>
</a>
</g>
</g>
<!-- Node25&#45;&gt;Node7 -->
<g id="edge42_Node000025_Node000007" class="edge">
<title>Node25&#45;&gt;Node7</title>
<g id="a_edge42_Node000025_Node000007"><a xlink:title=" ">
<path fill="none" stroke="#63b8ff" d="M728.57,-169.93C725.62,-169.25 722.66,-168.6 719.81,-168 652.11,-153.81 573.68,-140.42 521.87,-132"/>
<polygon fill="#63b8ff" stroke="#63b8ff" points="522.51,-128.55 512.08,-130.41 521.39,-135.47 522.51,-128.55"/>
</a>
</g>
</g>
<!-- Node25&#45;&gt;Node10 -->
<g id="edge43_Node000025_Node000010" class="edge">
<title>Node25&#45;&gt;Node10</title>
<g id="a_edge43_Node000025_Node000010"><a xlink:title=" ">
<path fill="none" stroke="#63b8ff" d="M732.42,-167.59C710.18,-159.01 677.04,-146.23 651.94,-136.55"/>
<polygon fill="#63b8ff" stroke="#63b8ff" points="653.39,-133.36 642.8,-133.02 650.87,-139.89 653.39,-133.36"/>
</a>
</g>
</g>
<!-- Node25&#45;&gt;Node17 -->
<g id="edge54_Node000025_Node000017" class="edge">
<title>Node25&#45;&gt;Node17</title>
<g id="a_edge54_Node000025_Node000017"><a xlink:title=" ">
<path fill="none" stroke="#63b8ff" d="M742.75,-167.71C716.12,-150.14 660.58,-113.68 655.81,-112 651.95,-110.64 448.83,-89.2 326.85,-76.41"/>
<polygon fill="#63b8ff" stroke="#63b8ff" points="327.49,-72.96 317.18,-75.4 326.76,-79.92 327.49,-72.96"/>
</a>
</g>
</g>
<!-- Node25&#45;&gt;Node18 -->
<g id="edge55_Node000025_Node000018" class="edge">
<title>Node25&#45;&gt;Node18</title>
<g id="a_edge55_Node000025_Node000018"><a xlink:title=" ">
<path fill="none" stroke="#63b8ff" d="M750.09,-167.64C739.08,-153.1 715.72,-125.37 688.81,-112 671.42,-103.36 569.15,-88.28 493.21,-77.98"/>
<polygon fill="#63b8ff" stroke="#63b8ff" points="494.09,-74.57 483.71,-76.7 493.15,-81.5 494.09,-74.57"/>
</a>
</g>
</g>
<!-- Node25&#45;&gt;Node19 -->
<g id="edge56_Node000025_Node000019" class="edge">
<title>Node25&#45;&gt;Node19</title>
<g id="a_edge56_Node000025_Node000019"><a xlink:title=" ">
<path fill="none" stroke="#63b8ff" d="M754.96,-167.63C751.71,-153.59 743.65,-127.1 726.81,-112 709.46,-96.44 686.55,-86.23 664.58,-79.55"/>
<polygon fill="#63b8ff" stroke="#63b8ff" points="665.6,-76.19 655.02,-76.86 663.7,-82.93 665.6,-76.19"/>
</a>
</g>
</g>
<!-- Node25&#45;&gt;Node20 -->
<g id="edge57_Node000025_Node000020" class="edge">
<title>Node25&#45;&gt;Node20</title>
<g id="a_edge57_Node000025_Node000020"><a xlink:title=" ">
<path fill="none" stroke="#63b8ff" d="M759.03,-167.62C763.21,-149.92 772.35,-111.24 778.01,-87.32"/>
<polygon fill="#63b8ff" stroke="#63b8ff" points="781.36,-88.36 780.25,-77.83 774.55,-86.75 781.36,-88.36"/>
</a>
</g>
</g>
<!-- Node25&#45;&gt;Node21 -->
<g id="edge58_Node000025_Node000021" class="edge">
<title>Node25&#45;&gt;Node21</title>
<g id="a_edge58_Node000025_Node000021"><a xlink:title=" ">
<path fill="none" stroke="#63b8ff" d="M774.72,-167.62C811.37,-148.42 895.18,-104.52 938.98,-81.58"/>
<polygon fill="#63b8ff" stroke="#63b8ff" points="940.38,-84.8 947.61,-77.06 937.13,-78.6 940.38,-84.8"/>
</a>
</g>
</g>
<!-- Node25&#45;&gt;Node22 -->
<g id="edge59_Node000025_Node000022" class="edge">
<title>Node25&#45;&gt;Node22</title>
<g id="a_edge59_Node000025_Node000022"><a xlink:title=" ">
<path fill="none" stroke="#63b8ff" d="M781.84,-167.51C826.77,-150.53 917.81,-116.28 932.81,-112 982.47,-97.84 1039.65,-86.28 1083.26,-78.43"/>
<polygon fill="#63b8ff" stroke="#63b8ff" points="1083.6,-81.92 1092.84,-76.73 1082.38,-75.03 1083.6,-81.92"/>
</a>
</g>
</g>
<!-- Node25&#45;&gt;Node26 -->
<g id="edge44_Node000025_Node000026" class="edge">
<title>Node25&#45;&gt;Node26</title>
<g id="a_edge44_Node000025_Node000026"><a xlink:title=" ">
<path fill="none" stroke="#63b8ff" d="M784.83,-174.48C807.05,-172.54 838.9,-169.87 866.81,-168 1159.74,-148.37 1509.23,-132.4 1656.65,-126.01"/>
<polygon fill="#63b8ff" stroke="#63b8ff" points="1656.4,-129.52 1666.24,-125.6 1656.1,-122.53 1656.4,-129.52"/>
</a>
</g>
</g>
<!-- Node26&#45;&gt;Node15 -->
<g id="edge49_Node000026_Node000015" class="edge">
<title>Node26&#45;&gt;Node15</title>
<g id="a_edge49_Node000026_Node000015"><a xlink:title=" ">
<path fill="none" stroke="#63b8ff" d="M1703.25,-111.59C1679.47,-102.49 1643.34,-88.65 1617.64,-78.81"/>
<polygon fill="#63b8ff" stroke="#63b8ff" points="1618.99,-75.58 1608.4,-75.27 1616.48,-82.11 1618.99,-75.58"/>
</a>
</g>
</g>
<!-- Node26&#45;&gt;Node16 -->
<g id="edge51_Node000026_Node000016" class="edge">
<title>Node26&#45;&gt;Node16</title>
<g id="a_edge51_Node000026_Node000016"><a xlink:title=" ">
<path fill="none" stroke="#63b8ff" d="M1690.93,-111.51C1658.74,-103.16 1610.5,-90.51 1559.69,-76.47"/>
<polygon fill="#63b8ff" stroke="#63b8ff" points="1560.84,-73.16 1550.27,-73.86 1558.97,-79.91 1560.84,-73.16"/>
</a>
</g>
</g>
<!-- Node27 -->
<g id="Node000027" class="node">
<title>Node27</title>
<g id="a_Node000027"><a xlink:title=" ">
<polygon fill="#e0e0e0" stroke="#999999" points="1800.94,-76 1752.69,-76 1752.69,-56 1800.94,-56 1800.94,-76"/>
<text text-anchor="middle" x="1776.81" y="-62.5" font-family="Helvetica,sans-Serif" font-size="10.00">cstddef</text>
</a>
</g>
</g>
<!-- Node26&#45;&gt;Node27 -->
<g id="edge45_Node000026_Node000027" class="edge">
<title>Node26&#45;&gt;Node27</title>
<g id="a_edge45_Node000026_Node000027"><a xlink:title=" ">
<path fill="none" stroke="#63b8ff" d="M1736.35,-111.59C1743.09,-104.16 1752.7,-93.58 1760.86,-84.58"/>
<polygon fill="#63b8ff" stroke="#63b8ff" points="1763.23,-87.18 1767.36,-77.42 1758.04,-82.47 1763.23,-87.18"/>
</a>
</g>
</g>
<!-- Node28 -->
<g id="Node000028" class="node">
<title>Node28</title>
<g id="a_Node000028"><a xlink:title=" ">
<polygon fill="#e0e0e0" stroke="#999999" points="1872.56,-76 1819.06,-76 1819.06,-56 1872.56,-56 1872.56,-76"/>
<text text-anchor="middle" x="1845.81" y="-62.5" font-family="Helvetica,sans-Serif" font-size="10.00">iostream</text>
</a>
</g>
</g>
<!-- Node26&#45;&gt;Node28 -->
<g id="edge46_Node000026_Node000028" class="edge">
<title>Node26&#45;&gt;Node28</title>
<g id="a_edge46_Node000026_Node000028"><a xlink:title=" ">
<path fill="none" stroke="#63b8ff" d="M1748.36,-111.59C1766.7,-103.21 1793.8,-90.8 1814.77,-81.21"/>
<polygon fill="#63b8ff" stroke="#63b8ff" points="1816.08,-84.45 1823.72,-77.11 1813.17,-78.09 1816.08,-84.45"/>
</a>
</g>
</g>
<!-- Node29 -->
<g id="Node000029" class="node">
<title>Node29</title>
<g id="a_Node000029"><a xlink:title=" ">
<polygon fill="#e0e0e0" stroke="#999999" points="1940.69,-76 1890.94,-76 1890.94,-56 1940.69,-56 1940.69,-76"/>
<text text-anchor="middle" x="1915.81" y="-62.5" font-family="Helvetica,sans-Serif" font-size="10.00">optional</text>
</a>
</g>
</g>
<!-- Node26&#45;&gt;Node29 -->
<g id="edge47_Node000026_Node000029" class="edge">
<title>Node26&#45;&gt;Node29</title>
<g id="a_edge47_Node000026_Node000029"><a xlink:title=" ">
<path fill="none" stroke="#63b8ff" d="M1760.56,-111.59C1793.83,-102.04 1845.23,-87.27 1879.67,-77.38"/>
<polygon fill="#63b8ff" stroke="#63b8ff" points="1880.55,-80.77 1889.2,-74.64 1878.62,-74.04 1880.55,-80.77"/>
</a>
</g>
</g>
<!-- Node30 -->
<g id="Node000030" class="node">
<title>Node30</title>
<g id="a_Node000030"><a xlink:title=" ">
<polygon fill="#e0e0e0" stroke="#999999" points="1854.31,-20 1793.31,-20 1793.31,0 1854.31,0 1854.31,-20"/>
<text text-anchor="middle" x="1823.81" y="-6.5" font-family="Helvetica,sans-Serif" font-size="10.00">pqxx/pqxx</text>
</a>
</g>
</g>
<!-- Node26&#45;&gt;Node30 -->
<g id="edge48_Node000026_Node000030" class="edge">
<title>Node26&#45;&gt;Node30</title>
<g id="a_edge48_Node000026_Node000030"><a xlink:title=" ">
<path fill="none" stroke="#63b8ff" d="M1788.01,-117.18C1846.62,-112.06 1929.71,-100.58 1949.81,-76 1976.31,-43.59 1911.98,-25.55 1865.81,-17.1"/>
<polygon fill="#63b8ff" stroke="#63b8ff" points="1866.48,-13.66 1856.03,-15.41 1865.28,-20.56 1866.48,-13.66"/>
</a>
</g>
</g>
<!-- Node31 -->
<g id="Node000031" class="node">
<title>Node31</title>
<g id="a_Node000031"><a xlink:title=" ">
<polygon fill="#e0e0e0" stroke="#999999" points="2054.81,-76 1996.81,-76 1996.81,-56 2054.81,-56 2054.81,-76"/>
<text text-anchor="middle" x="2025.81" y="-62.5" font-family="Helvetica,sans-Serif" font-size="10.00">typeindex</text>
</a>
</g>
</g>
<!-- Node26&#45;&gt;Node31 -->
<g id="edge50_Node000026_Node000031" class="edge">
<title>Node26&#45;&gt;Node31</title>
<g id="a_edge50_Node000026_Node000031"><a xlink:title=" ">
<path fill="none" stroke="#63b8ff" d="M1784.62,-111.5C1836.36,-102.73 1914.83,-89.11 1982.81,-76 1983.79,-75.81 1984.79,-75.62 1985.79,-75.42"/>
<polygon fill="#63b8ff" stroke="#63b8ff" points="1986.1,-78.93 1995.21,-73.52 1984.71,-72.07 1986.1,-78.93"/>
</a>
</g>
</g>
<!-- Node32 -->
<g id="Node000032" class="node">
<title>Node32</title>
<g id="a_Node000032"><a xlink:href="RowDTOAdapter_8hpp.html" target="_top" xlink:title=" ">
<polygon fill="white" stroke="#666666" points="1734.69,-76 1624.94,-76 1624.94,-56 1734.69,-56 1734.69,-76"/>
<text text-anchor="middle" x="1679.81" y="-62.5" font-family="Helvetica,sans-Serif" font-size="10.00">RowDTOAdapter.hpp</text>
</a>
</g>
</g>
<!-- Node26&#45;&gt;Node32 -->
<g id="edge52_Node000026_Node000032" class="edge">
<title>Node26&#45;&gt;Node32</title>
<g id="a_edge52_Node000026_Node000032"><a xlink:title=" ">
<path fill="none" stroke="#63b8ff" d="M1719.45,-111.59C1712.91,-104.24 1703.63,-93.8 1695.69,-84.87"/>
<polygon fill="#63b8ff" stroke="#63b8ff" points="1698.34,-82.58 1689.08,-77.43 1693.11,-87.23 1698.34,-82.58"/>
</a>
</g>
</g>
<!-- Node32&#45;&gt;Node30 -->
<g id="edge53_Node000032_Node000030" class="edge">
<title>Node32&#45;&gt;Node30</title>
<g id="a_edge53_Node000032_Node000030"><a xlink:title=" ">
<path fill="none" stroke="#63b8ff" d="M1704.89,-55.59C1727.88,-46.97 1762.16,-34.12 1788.02,-24.42"/>
<polygon fill="#63b8ff" stroke="#63b8ff" points="1788.98,-27.8 1797.12,-21.01 1786.52,-21.25 1788.98,-27.8"/>
</a>
</g>
</g>
</g>
</svg>
