<?xml version="1.0" encoding="UTF-8" standalone="no"?>
<!DOCTYPE svg PUBLIC "-//W3C//DTD SVG 1.1//EN"
 "http://www.w3.org/Graphics/SVG/1.1/DTD/svg11.dtd">
<!-- Generated by graphviz version 10.0.1 (0)
 -->
<!-- Title: src/bot_library/bot/include/Bot.hpp Pages: 1 -->
<svg width="3221pt" height="200pt"
 viewBox="0.00 0.00 3221.38 200.00" xmlns="http://www.w3.org/2000/svg" xmlns:xlink="http://www.w3.org/1999/xlink">
<g id="graph0" class="graph" transform="scale(1 1) rotate(0) translate(4 196)">
<title>src/bot_library/bot/include/Bot.hpp</title>
<!-- Node1 -->
<g id="Node000001" class="node">
<title>Node1</title>
<g id="a_Node000001"><a xlink:title=" ">
<polygon fill="#999999" stroke="#666666" points="1663.38,-192 1569.38,-192 1569.38,-160 1663.38,-160 1663.38,-192"/>
<text text-anchor="start" x="1577.38" y="-178.5" font-family="Helvetica,sans-Serif" font-size="10.00">src/bot_library/bot</text>
<text text-anchor="middle" x="1616.38" y="-166.5" font-family="Helvetica,sans-Serif" font-size="10.00">/include/Bot.hpp</text>
</a>
</g>
</g>
<!-- Node2 -->
<g id="Node000002" class="node">
<title>Node2</title>
<g id="a_Node000002"><a xlink:href="BotLibrary_8cpp.html" target="_top" xlink:title=" ">
<polygon fill="white" stroke="#666666" points="142.75,-32 0,-32 0,-12 142.75,-12 142.75,-32"/>
<text text-anchor="middle" x="71.38" y="-18.5" font-family="Helvetica,sans-Serif" font-size="10.00">src/bot_library/BotLibrary.cpp</text>
</a>
</g>
</g>
<!-- Node1&#45;&gt;Node2 -->
<g id="edge1_Node000001_Node000002" class="edge">
<title>Node1&#45;&gt;Node2</title>
<g id="a_edge1_Node000001_Node000002"><a xlink:title=" ">
<path fill="none" stroke="#63b8ff" d="M1557.81,-174.88C1308.2,-174.07 339.92,-168.12 211.38,-124 154.4,-104.44 100.59,-53.33 80.09,-32.27"/>
<polygon fill="#63b8ff" stroke="#63b8ff" points="1557.63,-178.37 1567.64,-174.91 1557.65,-171.37 1557.63,-178.37"/>
</a>
</g>
</g>
<!-- Node3 -->
<g id="Node000003" class="node">
<title>Node3</title>
<g id="a_Node000003"><a xlink:href="Bot_8cpp.html" target="_top" xlink:title=" ">
<polygon fill="white" stroke="#666666" points="3007.38,-118 2913.38,-118 2913.38,-86 3007.38,-86 3007.38,-118"/>
<text text-anchor="start" x="2921.38" y="-104.5" font-family="Helvetica,sans-Serif" font-size="10.00">src/bot_library/bot</text>
<text text-anchor="middle" x="2960.38" y="-92.5" font-family="Helvetica,sans-Serif" font-size="10.00">/Bot.cpp</text>
</a>
</g>
</g>
<!-- Node1&#45;&gt;Node3 -->
<g id="edge2_Node000001_Node000003" class="edge">
<title>Node1&#45;&gt;Node3</title>
<g id="a_edge2_Node000001_Node000003"><a xlink:title=" ">
<path fill="none" stroke="#63b8ff" d="M1674.76,-175.15C1893.52,-175.33 2664.35,-172.45 2904.38,-124 2910.89,-122.69 2917.65,-120.72 2924.12,-118.5"/>
<polygon fill="#63b8ff" stroke="#63b8ff" points="1675.07,-171.65 1665.06,-175.14 1675.06,-178.65 1675.07,-171.65"/>
</a>
</g>
</g>
<!-- Node4 -->
<g id="Node000004" class="node">
<title>Node4</title>
<g id="a_Node000004"><a xlink:href="ChallengeBadgeCommand_8hpp.html" target="_top" xlink:title=" ">
<polygon fill="white" stroke="#666666" points="532.38,-124 366.38,-124 366.38,-80 532.38,-80 532.38,-124"/>
<text text-anchor="start" x="374.38" y="-110.5" font-family="Helvetica,sans-Serif" font-size="10.00">src/bot_library/commands</text>
<text text-anchor="start" x="374.38" y="-98.5" font-family="Helvetica,sans-Serif" font-size="10.00">/challenge_badge/ChallengeBadge</text>
<text text-anchor="middle" x="449.38" y="-86.5" font-family="Helvetica,sans-Serif" font-size="10.00">Command.hpp</text>
</a>
</g>
</g>
<!-- Node1&#45;&gt;Node4 -->
<g id="edge3_Node000001_Node000004" class="edge">
<title>Node1&#45;&gt;Node4</title>
<g id="a_edge3_Node000001_Node000004"><a xlink:title=" ">
<path fill="none" stroke="#63b8ff" d="M1557.75,-173.59C1363.26,-168.69 740.36,-151.21 541.38,-124 538.45,-123.6 535.49,-123.15 532.5,-122.67"/>
<polygon fill="#63b8ff" stroke="#63b8ff" points="1557.53,-177.08 1567.62,-173.83 1557.71,-170.09 1557.53,-177.08"/>
</a>
</g>
</g>
<!-- Node7 -->
<g id="Node000007" class="node">
<title>Node7</title>
<g id="a_Node000007"><a xlink:href="ChallengeRoleCommand_8hpp.html" target="_top" xlink:title=" ">
<polygon fill="white" stroke="#666666" points="762.25,-118 550.5,-118 550.5,-86 762.25,-86 762.25,-118"/>
<text text-anchor="start" x="558.5" y="-104.5" font-family="Helvetica,sans-Serif" font-size="10.00">src/bot_library/commands</text>
<text text-anchor="middle" x="656.38" y="-92.5" font-family="Helvetica,sans-Serif" font-size="10.00">/challenge_role/ChallengeRoleCommand.hpp</text>
</a>
</g>
</g>
<!-- Node1&#45;&gt;Node7 -->
<g id="edge6_Node000001_Node000007" class="edge">
<title>Node1&#45;&gt;Node7</title>
<g id="a_edge6_Node000001_Node000007"><a xlink:title=" ">
<path fill="none" stroke="#63b8ff" d="M1557.52,-173.88C1419.64,-170.73 1065.2,-159.56 771.38,-124 759.19,-122.52 746.33,-120.57 733.82,-118.45"/>
<polygon fill="#63b8ff" stroke="#63b8ff" points="1557.43,-177.38 1567.5,-174.1 1557.58,-170.38 1557.43,-177.38"/>
</a>
</g>
</g>
<!-- Node10 -->
<g id="Node000010" class="node">
<title>Node10</title>
<g id="a_Node000010"><a xlink:href="CleanUp_8hpp.html" target="_top" xlink:title=" ">
<polygon fill="white" stroke="#666666" points="908.62,-118 780.12,-118 780.12,-86 908.62,-86 908.62,-118"/>
<text text-anchor="start" x="788.12" y="-104.5" font-family="Helvetica,sans-Serif" font-size="10.00">src/bot_library/commands</text>
<text text-anchor="middle" x="844.38" y="-92.5" font-family="Helvetica,sans-Serif" font-size="10.00">/clean_up/CleanUp.hpp</text>
</a>
</g>
</g>
<!-- Node1&#45;&gt;Node10 -->
<g id="edge10_Node000001_Node000010" class="edge">
<title>Node1&#45;&gt;Node10</title>
<g id="a_edge10_Node000001_Node000010"><a xlink:title=" ">
<path fill="none" stroke="#63b8ff" d="M1557.84,-174.73C1437.26,-173.3 1152.81,-165.38 918.38,-124 910.22,-122.56 901.68,-120.59 893.41,-118.42"/>
<polygon fill="#63b8ff" stroke="#63b8ff" points="1557.44,-178.23 1567.48,-174.83 1557.51,-171.23 1557.44,-178.23"/>
</a>
</g>
</g>
<!-- Node12 -->
<g id="Node000012" class="node">
<title>Node12</title>
<g id="a_Node000012"><a xlink:href="FlipCommand_8hpp.html" target="_top" xlink:title=" ">
<polygon fill="white" stroke="#666666" points="1055.62,-118 927.12,-118 927.12,-86 1055.62,-86 1055.62,-118"/>
<text text-anchor="start" x="935.12" y="-104.5" font-family="Helvetica,sans-Serif" font-size="10.00">src/bot_library/commands</text>
<text text-anchor="middle" x="991.38" y="-92.5" font-family="Helvetica,sans-Serif" font-size="10.00">/flip/FlipCommand.hpp</text>
</a>
</g>
</g>
<!-- Node1&#45;&gt;Node12 -->
<g id="edge13_Node000001_Node000012" class="edge">
<title>Node1&#45;&gt;Node12</title>
<g id="a_edge13_Node000001_Node000012"><a xlink:title=" ">
<path fill="none" stroke="#63b8ff" d="M1557.68,-173.11C1456.43,-169.07 1242.75,-157.08 1065.38,-124 1057.5,-122.53 1049.25,-120.6 1041.23,-118.5"/>
<polygon fill="#63b8ff" stroke="#63b8ff" points="1557.53,-176.61 1567.65,-173.5 1557.8,-169.62 1557.53,-176.61"/>
</a>
</g>
</g>
<!-- Node14 -->
<g id="Node000014" class="node">
<title>Node14</title>
<g id="a_Node000014"><a xlink:href="HelpCommand_8hpp.html" target="_top" xlink:title=" ">
<polygon fill="white" stroke="#666666" points="1202.62,-118 1074.12,-118 1074.12,-86 1202.62,-86 1202.62,-118"/>
<text text-anchor="start" x="1082.12" y="-104.5" font-family="Helvetica,sans-Serif" font-size="10.00">src/bot_library/commands</text>
<text text-anchor="middle" x="1138.38" y="-92.5" font-family="Helvetica,sans-Serif" font-size="10.00">/help/HelpCommand.hpp</text>
</a>
</g>
</g>
<!-- Node1&#45;&gt;Node14 -->
<g id="edge16_Node000001_Node000014" class="edge">
<title>Node1&#45;&gt;Node14</title>
<g id="a_edge16_Node000001_Node000014"><a xlink:title=" ">
<path fill="none" stroke="#63b8ff" d="M1557.71,-170.48C1478.52,-163.73 1333.28,-149.05 1211.38,-124 1203.88,-122.46 1196.04,-120.54 1188.39,-118.49"/>
<polygon fill="#63b8ff" stroke="#63b8ff" points="1557.14,-173.95 1567.4,-171.29 1557.73,-166.97 1557.14,-173.95"/>
</a>
</g>
</g>
<!-- Node16 -->
<g id="Node000016" class="node">
<title>Node16</title>
<g id="a_Node000016"><a xlink:href="Commands_8hpp.html" target="_top" xlink:title=" ">
<polygon fill="white" stroke="#666666" points="348.62,-118 220.12,-118 220.12,-86 348.62,-86 348.62,-118"/>
<text text-anchor="start" x="228.12" y="-104.5" font-family="Helvetica,sans-Serif" font-size="10.00">src/bot_library/commands</text>
<text text-anchor="middle" x="284.38" y="-92.5" font-family="Helvetica,sans-Serif" font-size="10.00">/include/Commands.hpp</text>
</a>
</g>
</g>
<!-- Node1&#45;&gt;Node16 -->
<g id="edge19_Node000001_Node000016" class="edge">
<title>Node1&#45;&gt;Node16</title>
<g id="a_edge19_Node000001_Node000016"><a xlink:title=" ">
<path fill="none" stroke="#63b8ff" d="M1557.65,-174.49C1341.84,-172.3 593.02,-162.1 357.38,-124 349.04,-122.65 340.31,-120.67 331.91,-118.45"/>
<polygon fill="#63b8ff" stroke="#63b8ff" points="1557.46,-177.98 1567.5,-174.58 1557.53,-170.98 1557.46,-177.98"/>
</a>
</g>
</g>
<!-- Node17 -->
<g id="Node000017" class="node">
<title>Node17</title>
<g id="a_Node000017"><a xlink:href="InitDatabase_8hpp.html" target="_top" xlink:title=" ">
<polygon fill="white" stroke="#666666" points="3196.38,-118 3042.38,-118 3042.38,-86 3196.38,-86 3196.38,-118"/>
<text text-anchor="start" x="3050.38" y="-104.5" font-family="Helvetica,sans-Serif" font-size="10.00">src/bot_library/commands</text>
<text text-anchor="middle" x="3119.38" y="-92.5" font-family="Helvetica,sans-Serif" font-size="10.00">/init_database/InitDatabase.hpp</text>
</a>
</g>
</g>
<!-- Node1&#45;&gt;Node17 -->
<g id="edge22_Node000001_Node000017" class="edge">
<title>Node1&#45;&gt;Node17</title>
<g id="a_edge22_Node000001_Node000017"><a xlink:title=" ">
<path fill="none" stroke="#63b8ff" d="M1675.34,-174.15C1906.41,-170.6 2750.51,-155.73 3016.38,-124 3027.79,-122.64 3039.83,-120.67 3051.48,-118.49"/>
<polygon fill="#63b8ff" stroke="#63b8ff" points="1675.31,-170.65 1665.37,-174.3 1675.42,-177.65 1675.31,-170.65"/>
</a>
</g>
</g>
<!-- Node19 -->
<g id="Node000019" class="node">
<title>Node19</title>
<g id="a_Node000019"><a xlink:href="InviteCommand_8hpp.html" target="_top" xlink:title=" ">
<polygon fill="white" stroke="#666666" points="1353.88,-118 1220.88,-118 1220.88,-86 1353.88,-86 1353.88,-118"/>
<text text-anchor="start" x="1228.88" y="-104.5" font-family="Helvetica,sans-Serif" font-size="10.00">src/bot_library/commands</text>
<text text-anchor="middle" x="1287.38" y="-92.5" font-family="Helvetica,sans-Serif" font-size="10.00">/invite/InviteCommand.hpp</text>
</a>
</g>
</g>
<!-- Node1&#45;&gt;Node19 -->
<g id="edge24_Node000001_Node000019" class="edge">
<title>Node1&#45;&gt;Node19</title>
<g id="a_edge24_Node000001_Node000019"><a xlink:title=" ">
<path fill="none" stroke="#63b8ff" d="M1557.84,-164.42C1506.4,-154.82 1429.62,-139.81 1363.38,-124 1356.32,-122.32 1348.93,-120.43 1341.64,-118.5"/>
<polygon fill="#63b8ff" stroke="#63b8ff" points="1557.1,-167.84 1567.57,-166.22 1558.38,-160.96 1557.1,-167.84"/>
</a>
</g>
</g>
<!-- Node21 -->
<g id="Node000021" class="node">
<title>Node21</title>
<g id="a_Node000021"><a xlink:href="MemberCommand_8hpp.html" target="_top" xlink:title=" ">
<polygon fill="white" stroke="#666666" points="1528.5,-118 1372.25,-118 1372.25,-86 1528.5,-86 1528.5,-118"/>
<text text-anchor="start" x="1380.25" y="-104.5" font-family="Helvetica,sans-Serif" font-size="10.00">src/bot_library/commands</text>
<text text-anchor="middle" x="1450.38" y="-92.5" font-family="Helvetica,sans-Serif" font-size="10.00">/member/MemberCommand.hpp</text>
</a>
</g>
</g>
<!-- Node1&#45;&gt;Node21 -->
<g id="edge27_Node000001_Node000021" class="edge">
<title>Node1&#45;&gt;Node21</title>
<g id="a_edge27_Node000001_Node000021"><a xlink:title=" ">
<path fill="none" stroke="#63b8ff" d="M1570.51,-155.11C1543.8,-143.52 1510.64,-129.14 1485.93,-118.42"/>
<polygon fill="#63b8ff" stroke="#63b8ff" points="1568.81,-158.18 1579.38,-158.95 1571.59,-151.76 1568.81,-158.18"/>
</a>
</g>
</g>
<!-- Node23 -->
<g id="Node000023" class="node">
<title>Node23</title>
<g id="a_Node000023"><a xlink:href="ProfileCommand_8hpp.html" target="_top" xlink:title=" ">
<polygon fill="white" stroke="#666666" points="1686.25,-118 1546.5,-118 1546.5,-86 1686.25,-86 1686.25,-118"/>
<text text-anchor="start" x="1554.5" y="-104.5" font-family="Helvetica,sans-Serif" font-size="10.00">src/bot_library/commands</text>
<text text-anchor="middle" x="1616.38" y="-92.5" font-family="Helvetica,sans-Serif" font-size="10.00">/profile/ProfileCommand.hpp</text>
</a>
</g>
</g>
<!-- Node1&#45;&gt;Node23 -->
<g id="edge30_Node000001_Node000023" class="edge">
<title>Node1&#45;&gt;Node23</title>
<g id="a_edge30_Node000001_Node000023"><a xlink:title=" ">
<path fill="none" stroke="#63b8ff" d="M1616.38,-148.49C1616.38,-138.3 1616.38,-127.03 1616.38,-118.25"/>
<polygon fill="#63b8ff" stroke="#63b8ff" points="1612.88,-148.22 1616.38,-158.22 1619.88,-148.22 1612.88,-148.22"/>
</a>
</g>
</g>
<!-- Node25 -->
<g id="Node000025" class="node">
<title>Node25</title>
<g id="a_Node000025"><a xlink:href="ReactionRoles_8hpp.html" target="_top" xlink:title=" ">
<polygon fill="white" stroke="#666666" points="1870.38,-118 1704.38,-118 1704.38,-86 1870.38,-86 1870.38,-118"/>
<text text-anchor="start" x="1712.38" y="-104.5" font-family="Helvetica,sans-Serif" font-size="10.00">src/bot_library/commands</text>
<text text-anchor="middle" x="1787.38" y="-92.5" font-family="Helvetica,sans-Serif" font-size="10.00">/reaction_roles/ReactionRoles.hpp</text>
</a>
</g>
</g>
<!-- Node1&#45;&gt;Node25 -->
<g id="edge33_Node000001_Node000025" class="edge">
<title>Node1&#45;&gt;Node25</title>
<g id="a_edge33_Node000001_Node000025"><a xlink:title=" ">
<path fill="none" stroke="#63b8ff" d="M1663.63,-155.11C1691.13,-143.52 1725.29,-129.14 1750.75,-118.42"/>
<polygon fill="#63b8ff" stroke="#63b8ff" points="1662.31,-151.86 1654.45,-158.97 1665.03,-158.31 1662.31,-151.86"/>
</a>
</g>
</g>
<!-- Node27 -->
<g id="Node000027" class="node">
<title>Node27</title>
<g id="a_Node000027"><a xlink:href="ResourcesCommand_8hpp.html" target="_top" xlink:title=" ">
<polygon fill="white" stroke="#666666" points="2064.25,-118 1888.5,-118 1888.5,-86 2064.25,-86 2064.25,-118"/>
<text text-anchor="start" x="1896.5" y="-104.5" font-family="Helvetica,sans-Serif" font-size="10.00">src/bot_library/commands</text>
<text text-anchor="middle" x="1976.38" y="-92.5" font-family="Helvetica,sans-Serif" font-size="10.00">/resources/ResourcesCommand.hpp</text>
</a>
</g>
</g>
<!-- Node1&#45;&gt;Node27 -->
<g id="edge36_Node000001_Node000027" class="edge">
<title>Node1&#45;&gt;Node27</title>
<g id="a_edge36_Node000001_Node000027"><a xlink:title=" ">
<path fill="none" stroke="#63b8ff" d="M1674.75,-164.06C1728.09,-153.97 1809.13,-138.41 1879.38,-124 1887.9,-122.25 1896.83,-120.37 1905.69,-118.49"/>
<polygon fill="#63b8ff" stroke="#63b8ff" points="1674.13,-160.61 1664.96,-165.91 1675.43,-167.49 1674.13,-160.61"/>
</a>
</g>
</g>
<!-- Node29 -->
<g id="Node000029" class="node">
<title>Node29</title>
<g id="a_Node000029"><a xlink:href="RollCommand_8hpp.html" target="_top" xlink:title=" ">
<polygon fill="white" stroke="#666666" points="2210.62,-118 2082.12,-118 2082.12,-86 2210.62,-86 2210.62,-118"/>
<text text-anchor="start" x="2090.12" y="-104.5" font-family="Helvetica,sans-Serif" font-size="10.00">src/bot_library/commands</text>
<text text-anchor="middle" x="2146.38" y="-92.5" font-family="Helvetica,sans-Serif" font-size="10.00">/roll/RollCommand.hpp</text>
</a>
</g>
</g>
<!-- Node1&#45;&gt;Node29 -->
<g id="edge39_Node000001_Node000029" class="edge">
<title>Node1&#45;&gt;Node29</title>
<g id="a_edge39_Node000001_Node000029"><a xlink:title=" ">
<path fill="none" stroke="#63b8ff" d="M1675.09,-171.63C1762.55,-165.9 1931.92,-152.03 2073.38,-124 2081.01,-122.49 2089,-120.56 2096.78,-118.48"/>
<polygon fill="#63b8ff" stroke="#63b8ff" points="1675.08,-168.12 1665.33,-172.26 1675.53,-175.11 1675.08,-168.12"/>
</a>
</g>
</g>
<!-- Node31 -->
<g id="Node000031" class="node">
<title>Node31</title>
<g id="a_Node000031"><a xlink:href="ServerDetails_8hpp.html" target="_top" xlink:title=" ">
<polygon fill="white" stroke="#666666" points="2389.75,-118 2229,-118 2229,-86 2389.75,-86 2389.75,-118"/>
<text text-anchor="start" x="2237" y="-104.5" font-family="Helvetica,sans-Serif" font-size="10.00">src/bot_library/commands</text>
<text text-anchor="middle" x="2309.38" y="-92.5" font-family="Helvetica,sans-Serif" font-size="10.00">/server_details/ServerDetails.hpp</text>
</a>
</g>
</g>
<!-- Node1&#45;&gt;Node31 -->
<g id="edge42_Node000001_Node000031" class="edge">
<title>Node1&#45;&gt;Node31</title>
<g id="a_edge42_Node000001_Node000031"><a xlink:title=" ">
<path fill="none" stroke="#63b8ff" d="M1674.86,-172.87C1782.96,-168.31 2021.13,-155.34 2219.38,-124 2228.88,-122.5 2238.88,-120.54 2248.61,-118.44"/>
<polygon fill="#63b8ff" stroke="#63b8ff" points="1674.93,-169.36 1665.08,-173.27 1675.21,-176.36 1674.93,-169.36"/>
</a>
</g>
</g>
<!-- Node33 -->
<g id="Node000033" class="node">
<title>Node33</title>
<g id="a_Node000033"><a xlink:href="SetChannelCommand_8hpp.html" target="_top" xlink:title=" ">
<polygon fill="white" stroke="#666666" points="2597,-118 2407.75,-118 2407.75,-86 2597,-86 2597,-118"/>
<text text-anchor="start" x="2415.75" y="-104.5" font-family="Helvetica,sans-Serif" font-size="10.00">src/bot_library/commands</text>
<text text-anchor="middle" x="2502.38" y="-92.5" font-family="Helvetica,sans-Serif" font-size="10.00">/set_channel/SetChannelCommand.hpp</text>
</a>
</g>
</g>
<!-- Node1&#45;&gt;Node33 -->
<g id="edge45_Node000001_Node000033" class="edge">
<title>Node1&#45;&gt;Node33</title>
<g id="a_edge45_Node000001_Node000033"><a xlink:title=" ">
<path fill="none" stroke="#63b8ff" d="M1675.03,-173.86C1805.56,-170.73 2129.67,-159.73 2398.38,-124 2409.42,-122.53 2421.06,-120.58 2432.38,-118.47"/>
<polygon fill="#63b8ff" stroke="#63b8ff" points="1675.18,-170.35 1665.26,-174.09 1675.34,-177.35 1675.18,-170.35"/>
</a>
</g>
</g>
<!-- Node35 -->
<g id="Node000035" class="node">
<title>Node35</title>
<g id="a_Node000035"><a xlink:href="SetStatus_8hpp.html" target="_top" xlink:title=" ">
<polygon fill="white" stroke="#666666" points="2745.38,-118 2615.38,-118 2615.38,-86 2745.38,-86 2745.38,-118"/>
<text text-anchor="start" x="2623.38" y="-104.5" font-family="Helvetica,sans-Serif" font-size="10.00">src/bot_library/commands</text>
<text text-anchor="middle" x="2680.38" y="-92.5" font-family="Helvetica,sans-Serif" font-size="10.00">/set_status/SetStatus.hpp</text>
</a>
</g>
</g>
<!-- Node1&#45;&gt;Node35 -->
<g id="edge48_Node000001_Node000035" class="edge">
<title>Node1&#45;&gt;Node35</title>
<g id="a_edge48_Node000001_Node000035"><a xlink:title=" ">
<path fill="none" stroke="#63b8ff" d="M1675.02,-173.71C1859.33,-169.38 2425.39,-153.95 2606.38,-124 2614.68,-122.63 2623.37,-120.66 2631.77,-118.47"/>
<polygon fill="#63b8ff" stroke="#63b8ff" points="1675.12,-170.21 1665.21,-173.94 1675.29,-177.2 1675.12,-170.21"/>
</a>
</g>
</g>
<!-- Node37 -->
<g id="Node000037" class="node">
<title>Node37</title>
<g id="a_Node000037"><a xlink:href="TextsCommand_8hpp.html" target="_top" xlink:title=" ">
<polygon fill="white" stroke="#666666" points="2895.12,-118 2763.62,-118 2763.62,-86 2895.12,-86 2895.12,-118"/>
<text text-anchor="start" x="2771.62" y="-104.5" font-family="Helvetica,sans-Serif" font-size="10.00">src/bot_library/commands</text>
<text text-anchor="middle" x="2829.38" y="-92.5" font-family="Helvetica,sans-Serif" font-size="10.00">/texts/TextsCommand.hpp</text>
</a>
</g>
</g>
<!-- Node1&#45;&gt;Node37 -->
<g id="edge51_Node000001_Node000037" class="edge">
<title>Node1&#45;&gt;Node37</title>
<g id="a_edge51_Node000001_Node000037"><a xlink:title=" ">
<path fill="none" stroke="#63b8ff" d="M1675.09,-174.14C1877.21,-170.89 2543.3,-157.82 2754.38,-124 2762.92,-122.63 2771.88,-120.63 2780.51,-118.41"/>
<polygon fill="#63b8ff" stroke="#63b8ff" points="1675.31,-170.63 1665.37,-174.29 1675.42,-177.63 1675.31,-170.63"/>
</a>
</g>
</g>
<!-- Node5 -->
<g id="Node000005" class="node">
<title>Node5</title>
<g id="a_Node000005"><a xlink:href="Commands_8cpp.html" target="_top" xlink:title=" ">
<polygon fill="white" stroke="#666666" points="1674.62,-38 1546.12,-38 1546.12,-6 1674.62,-6 1674.62,-38"/>
<text text-anchor="start" x="1554.12" y="-24.5" font-family="Helvetica,sans-Serif" font-size="10.00">src/bot_library/commands</text>
<text text-anchor="middle" x="1610.38" y="-12.5" font-family="Helvetica,sans-Serif" font-size="10.00">/Commands.cpp</text>
</a>
</g>
</g>
<!-- Node4&#45;&gt;Node5 -->
<g id="edge4_Node000004_Node000005" class="edge">
<title>Node4&#45;&gt;Node5</title>
<g id="a_edge4_Node000004_Node000005"><a xlink:title=" ">
<path fill="none" stroke="#63b8ff" d="M543.91,-79.81C982.64,-24.01 1103.68,-113.15 1537.38,-44 1545.71,-42.67 1554.44,-40.69 1562.85,-38.48"/>
<polygon fill="#63b8ff" stroke="#63b8ff" points="543.46,-76.34 533.99,-81.1 544.36,-83.29 543.46,-76.34"/>
</a>
</g>
</g>
<!-- Node6 -->
<g id="Node000006" class="node">
<title>Node6</title>
<g id="a_Node000006"><a xlink:href="ChallengeBadgeCommand_8cpp.html" target="_top" xlink:title=" ">
<polygon fill="white" stroke="#666666" points="326.38,-44 160.38,-44 160.38,0 326.38,0 326.38,-44"/>
<text text-anchor="start" x="168.38" y="-30.5" font-family="Helvetica,sans-Serif" font-size="10.00">src/bot_library/commands</text>
<text text-anchor="start" x="168.38" y="-18.5" font-family="Helvetica,sans-Serif" font-size="10.00">/challenge_badge/ChallengeBadge</text>
<text text-anchor="middle" x="243.38" y="-6.5" font-family="Helvetica,sans-Serif" font-size="10.00">Command.cpp</text>
</a>
</g>
</g>
<!-- Node4&#45;&gt;Node6 -->
<g id="edge5_Node000004_Node000006" class="edge">
<title>Node4&#45;&gt;Node6</title>
<g id="a_edge5_Node000004_Node000006"><a xlink:title=" ">
<path fill="none" stroke="#63b8ff" d="M382.05,-75.51C355.45,-65.44 325.23,-54 299.81,-44.37"/>
<polygon fill="#63b8ff" stroke="#63b8ff" points="380.81,-78.78 391.4,-79.05 383.28,-72.23 380.81,-78.78"/>
</a>
</g>
</g>
<!-- Node7&#45;&gt;Node5 -->
<g id="edge7_Node000007_Node000005" class="edge">
<title>Node7&#45;&gt;Node5</title>
<g id="a_edge7_Node000007_Node000005"><a xlink:title=" ">
<path fill="none" stroke="#63b8ff" d="M744.27,-83.71C753.4,-82.28 762.56,-81.01 771.38,-80 1109.99,-41.3 1201.1,-99.49 1537.38,-44 1545.7,-42.63 1554.43,-40.63 1562.83,-38.4"/>
<polygon fill="#63b8ff" stroke="#63b8ff" points="743.98,-80.21 734.67,-85.27 745.1,-87.12 743.98,-80.21"/>
</a>
</g>
</g>
<!-- Node8 -->
<g id="Node000008" class="node">
<title>Node8</title>
<g id="a_Node000008"><a xlink:href="ChallengeRoleCommand_8cpp.html" target="_top" xlink:title=" ">
<polygon fill="white" stroke="#666666" points="762.25,-38 550.5,-38 550.5,-6 762.25,-6 762.25,-38"/>
<text text-anchor="start" x="558.5" y="-24.5" font-family="Helvetica,sans-Serif" font-size="10.00">src/bot_library/commands</text>
<text text-anchor="middle" x="656.38" y="-12.5" font-family="Helvetica,sans-Serif" font-size="10.00">/challenge_role/ChallengeRoleCommand.cpp</text>
</a>
</g>
</g>
<!-- Node7&#45;&gt;Node8 -->
<g id="edge8_Node000007_Node000008" class="edge">
<title>Node7&#45;&gt;Node8</title>
<g id="a_edge8_Node000007_Node000008"><a xlink:title=" ">
<path fill="none" stroke="#63b8ff" d="M656.38,-74.37C656.38,-62.37 656.38,-48.63 656.38,-38.38"/>
<polygon fill="#63b8ff" stroke="#63b8ff" points="652.88,-74.08 656.38,-84.08 659.88,-74.08 652.88,-74.08"/>
</a>
</g>
</g>
<!-- Node9 -->
<g id="Node000009" class="node">
<title>Node9</title>
<g id="a_Node000009"><a xlink:href="ChallengeRoleDTO_8cpp.html" target="_top" xlink:title=" ">
<polygon fill="white" stroke="#666666" points="532.25,-38 344.5,-38 344.5,-6 532.25,-6 532.25,-38"/>
<text text-anchor="start" x="352.5" y="-24.5" font-family="Helvetica,sans-Serif" font-size="10.00">src/bot_library/commands</text>
<text text-anchor="middle" x="438.38" y="-12.5" font-family="Helvetica,sans-Serif" font-size="10.00">/challenge_role/ChallengeRoleDTO.cpp</text>
</a>
</g>
</g>
<!-- Node7&#45;&gt;Node9 -->
<g id="edge9_Node000007_Node000009" class="edge">
<title>Node7&#45;&gt;Node9</title>
<g id="a_edge9_Node000007_Node000009"><a xlink:title=" ">
<path fill="none" stroke="#63b8ff" d="M602.61,-81.76C565.25,-68.39 516.12,-50.82 481.36,-38.38"/>
<polygon fill="#63b8ff" stroke="#63b8ff" points="601.29,-85.01 611.88,-85.08 603.64,-78.42 601.29,-85.01"/>
</a>
</g>
</g>
<!-- Node10&#45;&gt;Node5 -->
<g id="edge11_Node000010_Node000005" class="edge">
<title>Node10&#45;&gt;Node5</title>
<g id="a_edge11_Node000010_Node000005"><a xlink:title=" ">
<path fill="none" stroke="#63b8ff" d="M904.12,-82.85C908.92,-81.76 913.71,-80.79 918.38,-80 1190.1,-34.11 1265.73,-90.38 1537.38,-44 1545.56,-42.6 1554.14,-40.62 1562.43,-38.43"/>
<polygon fill="#63b8ff" stroke="#63b8ff" points="903.34,-79.44 894.46,-85.22 905.01,-86.24 903.34,-79.44"/>
</a>
</g>
</g>
<!-- Node11 -->
<g id="Node000011" class="node">
<title>Node11</title>
<g id="a_Node000011"><a xlink:href="CleanUp_8cpp.html" target="_top" xlink:title=" ">
<polygon fill="white" stroke="#666666" points="908.62,-38 780.12,-38 780.12,-6 908.62,-6 908.62,-38"/>
<text text-anchor="start" x="788.12" y="-24.5" font-family="Helvetica,sans-Serif" font-size="10.00">src/bot_library/commands</text>
<text text-anchor="middle" x="844.38" y="-12.5" font-family="Helvetica,sans-Serif" font-size="10.00">/clean_up/CleanUp.cpp</text>
</a>
</g>
</g>
<!-- Node10&#45;&gt;Node11 -->
<g id="edge12_Node000010_Node000011" class="edge">
<title>Node10&#45;&gt;Node11</title>
<g id="a_edge12_Node000010_Node000011"><a xlink:title=" ">
<path fill="none" stroke="#63b8ff" d="M844.38,-74.37C844.38,-62.37 844.38,-48.63 844.38,-38.38"/>
<polygon fill="#63b8ff" stroke="#63b8ff" points="840.88,-74.08 844.38,-84.08 847.88,-74.08 840.88,-74.08"/>
</a>
</g>
</g>
<!-- Node12&#45;&gt;Node5 -->
<g id="edge14_Node000012_Node000005" class="edge">
<title>Node12&#45;&gt;Node5</title>
<g id="a_edge14_Node000012_Node000005"><a xlink:title=" ">
<path fill="none" stroke="#63b8ff" d="M1051.37,-82.89C1056.08,-81.8 1060.79,-80.82 1065.38,-80 1272.5,-43.1 1330.32,-81.28 1537.38,-44 1545.42,-42.55 1553.85,-40.57 1562.01,-38.41"/>
<polygon fill="#63b8ff" stroke="#63b8ff" points="1050.75,-79.44 1041.88,-85.24 1052.43,-86.23 1050.75,-79.44"/>
</a>
</g>
</g>
<!-- Node13 -->
<g id="Node000013" class="node">
<title>Node13</title>
<g id="a_Node000013"><a xlink:href="FlipCommand_8cpp.html" target="_top" xlink:title=" ">
<polygon fill="white" stroke="#666666" points="1055.62,-38 927.12,-38 927.12,-6 1055.62,-6 1055.62,-38"/>
<text text-anchor="start" x="935.12" y="-24.5" font-family="Helvetica,sans-Serif" font-size="10.00">src/bot_library/commands</text>
<text text-anchor="middle" x="991.38" y="-12.5" font-family="Helvetica,sans-Serif" font-size="10.00">/flip/FlipCommand.cpp</text>
</a>
</g>
</g>
<!-- Node12&#45;&gt;Node13 -->
<g id="edge15_Node000012_Node000013" class="edge">
<title>Node12&#45;&gt;Node13</title>
<g id="a_edge15_Node000012_Node000013"><a xlink:title=" ">
<path fill="none" stroke="#63b8ff" d="M991.38,-74.37C991.38,-62.37 991.38,-48.63 991.38,-38.38"/>
<polygon fill="#63b8ff" stroke="#63b8ff" points="987.88,-74.08 991.38,-84.08 994.88,-74.08 987.88,-74.08"/>
</a>
</g>
</g>
<!-- Node14&#45;&gt;Node5 -->
<g id="edge17_Node000014_Node000005" class="edge">
<title>Node14&#45;&gt;Node5</title>
<g id="a_edge17_Node000014_Node000005"><a xlink:title=" ">
<path fill="none" stroke="#63b8ff" d="M1198.99,-82.72C1203.16,-81.72 1207.32,-80.8 1211.38,-80 1354.38,-51.75 1394.37,-72.25 1537.38,-44 1545.01,-42.49 1553,-40.56 1560.78,-38.49"/>
<polygon fill="#63b8ff" stroke="#63b8ff" points="1198.27,-79.29 1189.44,-85.14 1199.99,-86.08 1198.27,-79.29"/>
</a>
</g>
</g>
<!-- Node15 -->
<g id="Node000015" class="node">
<title>Node15</title>
<g id="a_Node000015"><a xlink:href="HelpCommand_8cpp.html" target="_top" xlink:title=" ">
<polygon fill="white" stroke="#666666" points="1202.62,-38 1074.12,-38 1074.12,-6 1202.62,-6 1202.62,-38"/>
<text text-anchor="start" x="1082.12" y="-24.5" font-family="Helvetica,sans-Serif" font-size="10.00">src/bot_library/commands</text>
<text text-anchor="middle" x="1138.38" y="-12.5" font-family="Helvetica,sans-Serif" font-size="10.00">/help/HelpCommand.cpp</text>
</a>
</g>
</g>
<!-- Node14&#45;&gt;Node15 -->
<g id="edge18_Node000014_Node000015" class="edge">
<title>Node14&#45;&gt;Node15</title>
<g id="a_edge18_Node000014_Node000015"><a xlink:title=" ">
<path fill="none" stroke="#63b8ff" d="M1138.38,-74.37C1138.38,-62.37 1138.38,-48.63 1138.38,-38.38"/>
<polygon fill="#63b8ff" stroke="#63b8ff" points="1134.88,-74.08 1138.38,-84.08 1141.88,-74.08 1134.88,-74.08"/>
</a>
</g>
</g>
<!-- Node16&#45;&gt;Node2 -->
<g id="edge20_Node000016_Node000002" class="edge">
<title>Node16&#45;&gt;Node2</title>
<g id="a_edge20_Node000016_Node000002"><a xlink:title=" ">
<path fill="none" stroke="#63b8ff" d="M231.52,-81.64C188.79,-66 130.47,-44.64 97.29,-32.49"/>
<polygon fill="#63b8ff" stroke="#63b8ff" points="230.28,-84.92 240.87,-85.07 232.69,-78.34 230.28,-84.92"/>
</a>
</g>
</g>
<!-- Node16&#45;&gt;Node5 -->
<g id="edge21_Node000016_Node000005" class="edge">
<title>Node16&#45;&gt;Node5</title>
<g id="a_edge21_Node000016_Node000005"><a xlink:title=" ">
<path fill="none" stroke="#63b8ff" d="M342.43,-82.9C347.45,-81.76 352.48,-80.77 357.38,-80 875.75,1.16 1019,-125.16 1537.38,-44 1545.84,-42.67 1554.72,-40.67 1563.25,-38.41"/>
<polygon fill="#63b8ff" stroke="#63b8ff" points="341.85,-79.44 332.97,-85.23 343.52,-86.23 341.85,-79.44"/>
</a>
</g>
</g>
<!-- Node18 -->
<g id="Node000018" class="node">
<title>Node18</title>
<g id="a_Node000018"><a xlink:href="InitDatabase_8cpp.html" target="_top" xlink:title=" ">
<polygon fill="white" stroke="#666666" points="3213.38,-38 3059.38,-38 3059.38,-6 3213.38,-6 3213.38,-38"/>
<text text-anchor="start" x="3067.38" y="-24.5" font-family="Helvetica,sans-Serif" font-size="10.00">src/bot_library/commands</text>
<text text-anchor="middle" x="3136.38" y="-12.5" font-family="Helvetica,sans-Serif" font-size="10.00">/init_database/InitDatabase.cpp</text>
</a>
</g>
</g>
<!-- Node17&#45;&gt;Node18 -->
<g id="edge23_Node000017_Node000018" class="edge">
<title>Node17&#45;&gt;Node18</title>
<g id="a_edge23_Node000017_Node000018"><a xlink:title=" ">
<path fill="none" stroke="#63b8ff" d="M3125.18,-74.37C3127.79,-62.37 3130.79,-48.63 3133.02,-38.38"/>
<polygon fill="#63b8ff" stroke="#63b8ff" points="3121.77,-73.59 3123.06,-84.11 3128.61,-75.09 3121.77,-73.59"/>
</a>
</g>
</g>
<!-- Node19&#45;&gt;Node5 -->
<g id="edge25_Node000019_Node000005" class="edge">
<title>Node19&#45;&gt;Node5</title>
<g id="a_edge25_Node000019_Node000005"><a xlink:title=" ">
<path fill="none" stroke="#63b8ff" d="M1352.6,-82.68C1356.24,-81.75 1359.85,-80.85 1363.38,-80 1440.14,-61.47 1460.71,-62.93 1537.38,-44 1544.29,-42.29 1551.53,-40.37 1558.66,-38.4"/>
<polygon fill="#63b8ff" stroke="#63b8ff" points="1351.9,-79.24 1343.11,-85.16 1353.67,-86.02 1351.9,-79.24"/>
</a>
</g>
</g>
<!-- Node20 -->
<g id="Node000020" class="node">
<title>Node20</title>
<g id="a_Node000020"><a xlink:href="InviteCommand_8cpp.html" target="_top" xlink:title=" ">
<polygon fill="white" stroke="#666666" points="1353.88,-38 1220.88,-38 1220.88,-6 1353.88,-6 1353.88,-38"/>
<text text-anchor="start" x="1228.88" y="-24.5" font-family="Helvetica,sans-Serif" font-size="10.00">src/bot_library/commands</text>
<text text-anchor="middle" x="1287.38" y="-12.5" font-family="Helvetica,sans-Serif" font-size="10.00">/invite/InviteCommand.cpp</text>
</a>
</g>
</g>
<!-- Node19&#45;&gt;Node20 -->
<g id="edge26_Node000019_Node000020" class="edge">
<title>Node19&#45;&gt;Node20</title>
<g id="a_edge26_Node000019_Node000020"><a xlink:title=" ">
<path fill="none" stroke="#63b8ff" d="M1287.38,-74.37C1287.38,-62.37 1287.38,-48.63 1287.38,-38.38"/>
<polygon fill="#63b8ff" stroke="#63b8ff" points="1283.88,-74.08 1287.38,-84.08 1290.88,-74.08 1283.88,-74.08"/>
</a>
</g>
</g>
<!-- Node21&#45;&gt;Node5 -->
<g id="edge28_Node000021_Node000005" class="edge">
<title>Node21&#45;&gt;Node5</title>
<g id="a_edge28_Node000021_Node000005"><a xlink:title=" ">
<path fill="none" stroke="#63b8ff" d="M1492.33,-80.55C1519.42,-67.34 1554.08,-50.44 1578.83,-38.38"/>
<polygon fill="#63b8ff" stroke="#63b8ff" points="1490.8,-77.4 1483.35,-84.93 1493.87,-83.69 1490.8,-77.4"/>
</a>
</g>
</g>
<!-- Node22 -->
<g id="Node000022" class="node">
<title>Node22</title>
<g id="a_Node000022"><a xlink:href="MemberCommand_8cpp.html" target="_top" xlink:title=" ">
<polygon fill="white" stroke="#666666" points="1528.5,-38 1372.25,-38 1372.25,-6 1528.5,-6 1528.5,-38"/>
<text text-anchor="start" x="1380.25" y="-24.5" font-family="Helvetica,sans-Serif" font-size="10.00">src/bot_library/commands</text>
<text text-anchor="middle" x="1450.38" y="-12.5" font-family="Helvetica,sans-Serif" font-size="10.00">/member/MemberCommand.cpp</text>
</a>
</g>
</g>
<!-- Node21&#45;&gt;Node22 -->
<g id="edge29_Node000021_Node000022" class="edge">
<title>Node21&#45;&gt;Node22</title>
<g id="a_edge29_Node000021_Node000022"><a xlink:title=" ">
<path fill="none" stroke="#63b8ff" d="M1450.38,-74.37C1450.38,-62.37 1450.38,-48.63 1450.38,-38.38"/>
<polygon fill="#63b8ff" stroke="#63b8ff" points="1446.88,-74.08 1450.38,-84.08 1453.88,-74.08 1446.88,-74.08"/>
</a>
</g>
</g>
<!-- Node23&#45;&gt;Node5 -->
<g id="edge31_Node000023_Node000005" class="edge">
<title>Node23&#45;&gt;Node5</title>
<g id="a_edge31_Node000023_Node000005"><a xlink:title=" ">
<path fill="none" stroke="#63b8ff" d="M1614.33,-74.37C1613.4,-62.37 1612.35,-48.63 1611.56,-38.38"/>
<polygon fill="#63b8ff" stroke="#63b8ff" points="1610.82,-74.38 1615.07,-84.08 1617.8,-73.84 1610.82,-74.38"/>
</a>
</g>
</g>
<!-- Node24 -->
<g id="Node000024" class="node">
<title>Node24</title>
<g id="a_Node000024"><a xlink:href="ProfileCommand_8cpp.html" target="_top" xlink:title=" ">
<polygon fill="white" stroke="#666666" points="1832.25,-38 1692.5,-38 1692.5,-6 1832.25,-6 1832.25,-38"/>
<text text-anchor="start" x="1700.5" y="-24.5" font-family="Helvetica,sans-Serif" font-size="10.00">src/bot_library/commands</text>
<text text-anchor="middle" x="1762.38" y="-12.5" font-family="Helvetica,sans-Serif" font-size="10.00">/profile/ProfileCommand.cpp</text>
</a>
</g>
</g>
<!-- Node23&#45;&gt;Node24 -->
<g id="edge32_Node000023_Node000024" class="edge">
<title>Node23&#45;&gt;Node24</title>
<g id="a_edge32_Node000023_Node000024"><a xlink:title=" ">
<path fill="none" stroke="#63b8ff" d="M1655.32,-80.2C1679.93,-67.04 1711.21,-50.33 1733.59,-38.38"/>
<polygon fill="#63b8ff" stroke="#63b8ff" points="1653.73,-77.08 1646.55,-84.88 1657.02,-83.25 1653.73,-77.08"/>
</a>
</g>
</g>
<!-- Node25&#45;&gt;Node5 -->
<g id="edge34_Node000025_Node000005" class="edge">
<title>Node25&#45;&gt;Node5</title>
<g id="a_edge34_Node000025_Node000005"><a xlink:title=" ">
<path fill="none" stroke="#63b8ff" d="M1742.15,-81.07C1712.02,-67.79 1673.01,-50.6 1645.27,-38.38"/>
<polygon fill="#63b8ff" stroke="#63b8ff" points="1740.46,-84.15 1751.02,-84.98 1743.28,-77.74 1740.46,-84.15"/>
</a>
</g>
</g>
<!-- Node26 -->
<g id="Node000026" class="node">
<title>Node26</title>
<g id="a_Node000026"><a xlink:href="ReactionRoles_8cpp.html" target="_top" xlink:title=" ">
<polygon fill="white" stroke="#666666" points="2016.38,-38 1850.38,-38 1850.38,-6 2016.38,-6 2016.38,-38"/>
<text text-anchor="start" x="1858.38" y="-24.5" font-family="Helvetica,sans-Serif" font-size="10.00">src/bot_library/commands</text>
<text text-anchor="middle" x="1933.38" y="-12.5" font-family="Helvetica,sans-Serif" font-size="10.00">/reaction_roles/ReactionRoles.cpp</text>
</a>
</g>
</g>
<!-- Node25&#45;&gt;Node26 -->
<g id="edge35_Node000025_Node000026" class="edge">
<title>Node25&#45;&gt;Node26</title>
<g id="a_edge35_Node000025_Node000026"><a xlink:title=" ">
<path fill="none" stroke="#63b8ff" d="M1826.32,-80.2C1850.93,-67.04 1882.21,-50.33 1904.59,-38.38"/>
<polygon fill="#63b8ff" stroke="#63b8ff" points="1824.73,-77.08 1817.55,-84.88 1828.02,-83.25 1824.73,-77.08"/>
</a>
</g>
</g>
<!-- Node27&#45;&gt;Node5 -->
<g id="edge37_Node000027_Node000005" class="edge">
<title>Node27&#45;&gt;Node5</title>
<g id="a_edge37_Node000027_Node000005"><a xlink:title=" ">
<path fill="none" stroke="#63b8ff" d="M1895.21,-83.23C1889.86,-82.12 1884.54,-81.03 1879.38,-80 1792.53,-62.63 1769.59,-64.27 1683.38,-44 1676.31,-42.34 1668.92,-40.42 1661.66,-38.44"/>
<polygon fill="#63b8ff" stroke="#63b8ff" points="1894.24,-86.6 1904.75,-85.23 1895.68,-79.75 1894.24,-86.6"/>
</a>
</g>
</g>
<!-- Node28 -->
<g id="Node000028" class="node">
<title>Node28</title>
<g id="a_Node000028"><a xlink:href="ResourcesCommand_8cpp.html" target="_top" xlink:title=" ">
<polygon fill="white" stroke="#666666" points="2210.25,-38 2034.5,-38 2034.5,-6 2210.25,-6 2210.25,-38"/>
<text text-anchor="start" x="2042.5" y="-24.5" font-family="Helvetica,sans-Serif" font-size="10.00">src/bot_library/commands</text>
<text text-anchor="middle" x="2122.38" y="-12.5" font-family="Helvetica,sans-Serif" font-size="10.00">/resources/ResourcesCommand.cpp</text>
</a>
</g>
</g>
<!-- Node27&#45;&gt;Node28 -->
<g id="edge38_Node000027_Node000028" class="edge">
<title>Node27&#45;&gt;Node28</title>
<g id="a_edge38_Node000027_Node000028"><a xlink:title=" ">
<path fill="none" stroke="#63b8ff" d="M2015.32,-80.2C2039.93,-67.04 2071.21,-50.33 2093.59,-38.38"/>
<polygon fill="#63b8ff" stroke="#63b8ff" points="2013.73,-77.08 2006.55,-84.88 2017.02,-83.25 2013.73,-77.08"/>
</a>
</g>
</g>
<!-- Node29&#45;&gt;Node5 -->
<g id="edge40_Node000029_Node000005" class="edge">
<title>Node29&#45;&gt;Node5</title>
<g id="a_edge40_Node000029_Node000005"><a xlink:title=" ">
<path fill="none" stroke="#63b8ff" d="M2086.58,-82.82C2082.13,-81.77 2077.7,-80.81 2073.38,-80 1902.31,-47.8 1854.44,-76.2 1683.38,-44 1675.47,-42.51 1667.19,-40.54 1659.16,-38.4"/>
<polygon fill="#63b8ff" stroke="#63b8ff" points="2085.58,-86.18 2096.13,-85.23 2087.29,-79.39 2085.58,-86.18"/>
</a>
</g>
</g>
<!-- Node30 -->
<g id="Node000030" class="node">
<title>Node30</title>
<g id="a_Node000030"><a xlink:href="RollCommand_8cpp.html" target="_top" xlink:title=" ">
<polygon fill="white" stroke="#666666" points="2356.62,-38 2228.12,-38 2228.12,-6 2356.62,-6 2356.62,-38"/>
<text text-anchor="start" x="2236.12" y="-24.5" font-family="Helvetica,sans-Serif" font-size="10.00">src/bot_library/commands</text>
<text text-anchor="middle" x="2292.38" y="-12.5" font-family="Helvetica,sans-Serif" font-size="10.00">/roll/RollCommand.cpp</text>
</a>
</g>
</g>
<!-- Node29&#45;&gt;Node30 -->
<g id="edge41_Node000029_Node000030" class="edge">
<title>Node29&#45;&gt;Node30</title>
<g id="a_edge41_Node000029_Node000030"><a xlink:title=" ">
<path fill="none" stroke="#63b8ff" d="M2185.32,-80.2C2209.93,-67.04 2241.21,-50.33 2263.59,-38.38"/>
<polygon fill="#63b8ff" stroke="#63b8ff" points="2183.73,-77.08 2176.55,-84.88 2187.02,-83.25 2183.73,-77.08"/>
</a>
</g>
</g>
<!-- Node31&#45;&gt;Node5 -->
<g id="edge43_Node000031_Node000005" class="edge">
<title>Node31&#45;&gt;Node5</title>
<g id="a_edge43_Node000031_Node000005"><a xlink:title=" ">
<path fill="none" stroke="#63b8ff" d="M2237.92,-83.22C2231.67,-82 2225.43,-80.9 2219.38,-80 1983.23,-44.76 1918.55,-85.24 1683.38,-44 1675.32,-42.59 1666.89,-40.63 1658.73,-38.47"/>
<polygon fill="#63b8ff" stroke="#63b8ff" points="2237.14,-86.63 2247.64,-85.22 2238.55,-79.78 2237.14,-86.63"/>
</a>
</g>
</g>
<!-- Node32 -->
<g id="Node000032" class="node">
<title>Node32</title>
<g id="a_Node000032"><a xlink:href="ServerDetails_8cpp.html" target="_top" xlink:title=" ">
<polygon fill="white" stroke="#666666" points="2535.75,-38 2375,-38 2375,-6 2535.75,-6 2535.75,-38"/>
<text text-anchor="start" x="2383" y="-24.5" font-family="Helvetica,sans-Serif" font-size="10.00">src/bot_library/commands</text>
<text text-anchor="middle" x="2455.38" y="-12.5" font-family="Helvetica,sans-Serif" font-size="10.00">/server_details/ServerDetails.cpp</text>
</a>
</g>
</g>
<!-- Node31&#45;&gt;Node32 -->
<g id="edge44_Node000031_Node000032" class="edge">
<title>Node31&#45;&gt;Node32</title>
<g id="a_edge44_Node000031_Node000032"><a xlink:title=" ">
<path fill="none" stroke="#63b8ff" d="M2348.32,-80.2C2372.93,-67.04 2404.21,-50.33 2426.59,-38.38"/>
<polygon fill="#63b8ff" stroke="#63b8ff" points="2346.73,-77.08 2339.55,-84.88 2350.02,-83.25 2346.73,-77.08"/>
</a>
</g>
</g>
<!-- Node33&#45;&gt;Node5 -->
<g id="edge46_Node000033_Node000005" class="edge">
<title>Node33&#45;&gt;Node5</title>
<g id="a_edge46_Node000033_Node000005"><a xlink:title=" ">
<path fill="none" stroke="#63b8ff" d="M2422.03,-83.54C2414.06,-82.18 2406.08,-80.97 2398.38,-80 2082.67,-40.4 1997.22,-96.33 1683.38,-44 1675.18,-42.63 1666.6,-40.67 1658.31,-38.48"/>
<polygon fill="#63b8ff" stroke="#63b8ff" points="2421.29,-86.97 2431.75,-85.28 2422.53,-80.08 2421.29,-86.97"/>
</a>
</g>
</g>
<!-- Node34 -->
<g id="Node000034" class="node">
<title>Node34</title>
<g id="a_Node000034"><a xlink:href="SetChannelCommand_8cpp.html" target="_top" xlink:title=" ">
<polygon fill="white" stroke="#666666" points="2743,-38 2553.75,-38 2553.75,-6 2743,-6 2743,-38"/>
<text text-anchor="start" x="2561.75" y="-24.5" font-family="Helvetica,sans-Serif" font-size="10.00">src/bot_library/commands</text>
<text text-anchor="middle" x="2648.38" y="-12.5" font-family="Helvetica,sans-Serif" font-size="10.00">/set_channel/SetChannelCommand.cpp</text>
</a>
</g>
</g>
<!-- Node33&#45;&gt;Node34 -->
<g id="edge47_Node000033_Node000034" class="edge">
<title>Node33&#45;&gt;Node34</title>
<g id="a_edge47_Node000033_Node000034"><a xlink:title=" ">
<path fill="none" stroke="#63b8ff" d="M2541.32,-80.2C2565.93,-67.04 2597.21,-50.33 2619.59,-38.38"/>
<polygon fill="#63b8ff" stroke="#63b8ff" points="2539.73,-77.08 2532.55,-84.88 2543.02,-83.25 2539.73,-77.08"/>
</a>
</g>
</g>
<!-- Node35&#45;&gt;Node5 -->
<g id="edge49_Node000035_Node000005" class="edge">
<title>Node35&#45;&gt;Node5</title>
<g id="a_edge49_Node000035_Node000005"><a xlink:title=" ">
<path fill="none" stroke="#63b8ff" d="M2621.28,-82.89C2616.27,-81.77 2611.25,-80.78 2606.38,-80 2200.94,-15.51 2088.7,-109.22 1683.38,-44 1675.04,-42.66 1666.31,-40.68 1657.91,-38.46"/>
<polygon fill="#63b8ff" stroke="#63b8ff" points="2620.17,-86.22 2630.71,-85.19 2621.82,-79.42 2620.17,-86.22"/>
</a>
</g>
</g>
<!-- Node36 -->
<g id="Node000036" class="node">
<title>Node36</title>
<g id="a_Node000036"><a xlink:href="SetStatus_8cpp.html" target="_top" xlink:title=" ">
<polygon fill="white" stroke="#666666" points="2891.38,-38 2761.38,-38 2761.38,-6 2891.38,-6 2891.38,-38"/>
<text text-anchor="start" x="2769.38" y="-24.5" font-family="Helvetica,sans-Serif" font-size="10.00">src/bot_library/commands</text>
<text text-anchor="middle" x="2826.38" y="-12.5" font-family="Helvetica,sans-Serif" font-size="10.00">/set_status/SetStatus.cpp</text>
</a>
</g>
</g>
<!-- Node35&#45;&gt;Node36 -->
<g id="edge50_Node000035_Node000036" class="edge">
<title>Node35&#45;&gt;Node36</title>
<g id="a_edge50_Node000035_Node000036"><a xlink:title=" ">
<path fill="none" stroke="#63b8ff" d="M2719.32,-80.2C2743.93,-67.04 2775.21,-50.33 2797.59,-38.38"/>
<polygon fill="#63b8ff" stroke="#63b8ff" points="2717.73,-77.08 2710.55,-84.88 2721.02,-83.25 2717.73,-77.08"/>
</a>
</g>
</g>
<!-- Node37&#45;&gt;Node5 -->
<g id="edge52_Node000037_Node000005" class="edge">
<title>Node37&#45;&gt;Node5</title>
<g id="a_edge52_Node000037_Node000005"><a xlink:title=" ">
<path fill="none" stroke="#63b8ff" d="M2769.48,-82.87C2764.4,-81.75 2759.32,-80.76 2754.38,-80 2283.69,-7.27 2153.8,-118.4 1683.38,-44 1675.04,-42.68 1666.31,-40.71 1657.9,-38.49"/>
<polygon fill="#63b8ff" stroke="#63b8ff" points="2768.51,-86.23 2779.05,-85.16 2770.14,-79.43 2768.51,-86.23"/>
</a>
</g>
</g>
<!-- Node38 -->
<g id="Node000038" class="node">
<title>Node38</title>
<g id="a_Node000038"><a xlink:href="TextsCommand_8cpp.html" target="_top" xlink:title=" ">
<polygon fill="white" stroke="#666666" points="3041.12,-38 2909.62,-38 2909.62,-6 3041.12,-6 3041.12,-38"/>
<text text-anchor="start" x="2917.62" y="-24.5" font-family="Helvetica,sans-Serif" font-size="10.00">src/bot_library/commands</text>
<text text-anchor="middle" x="2975.38" y="-12.5" font-family="Helvetica,sans-Serif" font-size="10.00">/texts/TextsCommand.cpp</text>
</a>
</g>
</g>
<!-- Node37&#45;&gt;Node38 -->
<g id="edge53_Node000037_Node000038" class="edge">
<title>Node37&#45;&gt;Node38</title>
<g id="a_edge53_Node000037_Node000038"><a xlink:title=" ">
<path fill="none" stroke="#63b8ff" d="M2868.32,-80.2C2892.93,-67.04 2924.21,-50.33 2946.59,-38.38"/>
<polygon fill="#63b8ff" stroke="#63b8ff" points="2866.73,-77.08 2859.55,-84.88 2870.02,-83.25 2866.73,-77.08"/>
</a>
</g>
</g>
</g>
</svg>
