<?xml version="1.0" encoding="UTF-8" standalone="no"?>
<!DOCTYPE svg PUBLIC "-//W3C//DTD SVG 1.1//EN"
 "http://www.w3.org/Graphics/SVG/1.1/DTD/svg11.dtd">
<!-- Generated by graphviz version 9.0.0 (0)
 -->
<!-- Title: src/bot_library/bot/include/Bot.hpp Pages: 1 -->
<svg width="3245pt" height="200pt"
 viewBox="0.00 0.00 3245.38 200.00" xmlns="http://www.w3.org/2000/svg" xmlns:xlink="http://www.w3.org/1999/xlink">
<g id="graph0" class="graph" transform="scale(1 1) rotate(0) translate(4 196)">
<title>src/bot_library/bot/include/Bot.hpp</title>
<!-- Node1 -->
<g id="Node000001" class="node">
<title>Node1</title>
<g id="a_Node000001"><a xlink:title=" ">
<polygon fill="#999999" stroke="#666666" points="1574.38,-192 1480.38,-192 1480.38,-160 1574.38,-160 1574.38,-192"/>
<text text-anchor="start" x="1488.38" y="-178.5" font-family="Helvetica,sans-Serif" font-size="10.00">src/bot_library/bot</text>
<text text-anchor="middle" x="1527.38" y="-166.5" font-family="Helvetica,sans-Serif" font-size="10.00">/include/Bot.hpp</text>
</a>
</g>
</g>
<!-- Node2 -->
<g id="Node000002" class="node">
<title>Node2</title>
<g id="a_Node000002"><a xlink:href="BotLibrary_8cpp.html" target="_top" xlink:title=" ">
<polygon fill="white" stroke="#666666" points="142.75,-32 0,-32 0,-12 142.75,-12 142.75,-32"/>
<text text-anchor="middle" x="71.38" y="-18.5" font-family="Helvetica,sans-Serif" font-size="10.00">src/bot_library/BotLibrary.cpp</text>
</a>
</g>
</g>
<!-- Node1&#45;&gt;Node2 -->
<g id="edge1_Node000001_Node000002" class="edge">
<title>Node1&#45;&gt;Node2</title>
<g id="a_edge1_Node000001_Node000002"><a xlink:title=" ">
<path fill="none" stroke="#63b8ff" d="M1468.7,-174.51C1231.09,-172.29 347.44,-161.54 228.38,-124 166.25,-104.41 104.89,-53.32 81.4,-32.27"/>
<polygon fill="#63b8ff" stroke="#63b8ff" points="1468.62,-178.01 1478.66,-174.6 1468.69,-171.01 1468.62,-178.01"/>
</a>
</g>
</g>
<!-- Node3 -->
<g id="Node000003" class="node">
<title>Node3</title>
<g id="a_Node000003"><a xlink:href="Bot_8cpp.html" target="_top" xlink:title=" ">
<polygon fill="white" stroke="#666666" points="2680.38,-118 2586.38,-118 2586.38,-86 2680.38,-86 2680.38,-118"/>
<text text-anchor="start" x="2594.38" y="-104.5" font-family="Helvetica,sans-Serif" font-size="10.00">src/bot_library/bot</text>
<text text-anchor="middle" x="2633.38" y="-92.5" font-family="Helvetica,sans-Serif" font-size="10.00">/Bot.cpp</text>
</a>
</g>
</g>
<!-- Node1&#45;&gt;Node3 -->
<g id="edge2_Node000001_Node000003" class="edge">
<title>Node1&#45;&gt;Node3</title>
<g id="a_edge2_Node000001_Node000003"><a xlink:title=" ">
<path fill="none" stroke="#63b8ff" d="M1586.07,-174.54C1778.01,-172.64 2385.67,-163.59 2577.38,-124 2583.88,-122.66 2590.64,-120.67 2597.11,-118.45"/>
<polygon fill="#63b8ff" stroke="#63b8ff" points="1586.05,-171.03 1576.08,-174.63 1586.12,-178.03 1586.05,-171.03"/>
</a>
</g>
</g>
<!-- Node4 -->
<g id="Node000004" class="node">
<title>Node4</title>
<g id="a_Node000004"><a xlink:href="ChallengeBadgeCommand_8hpp.html" target="_top" xlink:title=" ">
<polygon fill="white" stroke="#666666" points="2881.38,-124 2715.38,-124 2715.38,-80 2881.38,-80 2881.38,-124"/>
<text text-anchor="start" x="2723.38" y="-110.5" font-family="Helvetica,sans-Serif" font-size="10.00">src/bot_library/commands</text>
<text text-anchor="start" x="2723.38" y="-98.5" font-family="Helvetica,sans-Serif" font-size="10.00">/challenge_badge/ChallengeBadge</text>
<text text-anchor="middle" x="2798.38" y="-86.5" font-family="Helvetica,sans-Serif" font-size="10.00">Command.hpp</text>
</a>
</g>
</g>
<!-- Node1&#45;&gt;Node4 -->
<g id="edge3_Node000001_Node000004" class="edge">
<title>Node1&#45;&gt;Node4</title>
<g id="a_edge3_Node000001_Node000004"><a xlink:title=" ">
<path fill="none" stroke="#63b8ff" d="M1586.09,-175.45C1756.97,-176.12 2268.58,-173.5 2689.38,-124 2697.7,-123.02 2706.34,-121.77 2714.96,-120.36"/>
<polygon fill="#63b8ff" stroke="#63b8ff" points="1586.15,-171.95 1576.13,-175.41 1586.11,-178.95 1586.15,-171.95"/>
</a>
</g>
</g>
<!-- Node7 -->
<g id="Node000007" class="node">
<title>Node7</title>
<g id="a_Node000007"><a xlink:href="ChallengeRoleCommand_8hpp.html" target="_top" xlink:title=" ">
<polygon fill="white" stroke="#666666" points="595.25,-118 383.5,-118 383.5,-86 595.25,-86 595.25,-118"/>
<text text-anchor="start" x="391.5" y="-104.5" font-family="Helvetica,sans-Serif" font-size="10.00">src/bot_library/commands</text>
<text text-anchor="middle" x="489.38" y="-92.5" font-family="Helvetica,sans-Serif" font-size="10.00">/challenge_role/ChallengeRoleCommand.hpp</text>
</a>
</g>
</g>
<!-- Node1&#45;&gt;Node7 -->
<g id="edge6_Node000001_Node000007" class="edge">
<title>Node1&#45;&gt;Node7</title>
<g id="a_edge6_Node000001_Node000007"><a xlink:title=" ">
<path fill="none" stroke="#63b8ff" d="M1468.79,-174.31C1322.48,-172.03 929.46,-162.51 604.38,-124 592.08,-122.54 579.12,-120.59 566.5,-118.46"/>
<polygon fill="#63b8ff" stroke="#63b8ff" points="1468.56,-177.81 1478.61,-174.46 1468.67,-170.81 1468.56,-177.81"/>
</a>
</g>
</g>
<!-- Node11 -->
<g id="Node000011" class="node">
<title>Node11</title>
<g id="a_Node000011"><a xlink:href="CleanUp_8hpp.html" target="_top" xlink:title=" ">
<polygon fill="white" stroke="#666666" points="741.62,-118 613.12,-118 613.12,-86 741.62,-86 741.62,-118"/>
<text text-anchor="start" x="621.12" y="-104.5" font-family="Helvetica,sans-Serif" font-size="10.00">src/bot_library/commands</text>
<text text-anchor="middle" x="677.38" y="-92.5" font-family="Helvetica,sans-Serif" font-size="10.00">/clean_up/CleanUp.hpp</text>
</a>
</g>
</g>
<!-- Node1&#45;&gt;Node11 -->
<g id="edge10_Node000001_Node000011" class="edge">
<title>Node1&#45;&gt;Node11</title>
<g id="a_edge10_Node000001_Node000011"><a xlink:title=" ">
<path fill="none" stroke="#63b8ff" d="M1468.93,-175.34C1338.95,-175.2 1016.44,-169.79 751.38,-124 743.22,-122.59 734.67,-120.63 726.4,-118.47"/>
<polygon fill="#63b8ff" stroke="#63b8ff" points="1468.66,-178.84 1478.66,-175.34 1468.66,-171.84 1468.66,-178.84"/>
</a>
</g>
</g>
<!-- Node13 -->
<g id="Node000013" class="node">
<title>Node13</title>
<g id="a_Node000013"><a xlink:href="FlipCommand_8hpp.html" target="_top" xlink:title=" ">
<polygon fill="white" stroke="#666666" points="888.62,-118 760.12,-118 760.12,-86 888.62,-86 888.62,-118"/>
<text text-anchor="start" x="768.12" y="-104.5" font-family="Helvetica,sans-Serif" font-size="10.00">src/bot_library/commands</text>
<text text-anchor="middle" x="824.38" y="-92.5" font-family="Helvetica,sans-Serif" font-size="10.00">/flip/FlipCommand.hpp</text>
</a>
</g>
</g>
<!-- Node1&#45;&gt;Node13 -->
<g id="edge13_Node000001_Node000013" class="edge">
<title>Node1&#45;&gt;Node13</title>
<g id="a_edge13_Node000001_Node000013"><a xlink:title=" ">
<path fill="none" stroke="#63b8ff" d="M1468.68,-174.06C1356.84,-171.43 1105.85,-161.48 898.38,-124 890.36,-122.55 881.96,-120.6 873.82,-118.47"/>
<polygon fill="#63b8ff" stroke="#63b8ff" points="1468.43,-177.56 1478.51,-174.28 1468.59,-170.56 1468.43,-177.56"/>
</a>
</g>
</g>
<!-- Node15 -->
<g id="Node000015" class="node">
<title>Node15</title>
<g id="a_Node000015"><a xlink:href="HelpCommand_8hpp.html" target="_top" xlink:title=" ">
<polygon fill="white" stroke="#666666" points="1035.62,-118 907.12,-118 907.12,-86 1035.62,-86 1035.62,-118"/>
<text text-anchor="start" x="915.12" y="-104.5" font-family="Helvetica,sans-Serif" font-size="10.00">src/bot_library/commands</text>
<text text-anchor="middle" x="971.38" y="-92.5" font-family="Helvetica,sans-Serif" font-size="10.00">/help/HelpCommand.hpp</text>
</a>
</g>
</g>
<!-- Node1&#45;&gt;Node15 -->
<g id="edge16_Node000001_Node000015" class="edge">
<title>Node1&#45;&gt;Node15</title>
<g id="a_edge16_Node000001_Node000015"><a xlink:title=" ">
<path fill="none" stroke="#63b8ff" d="M1468.78,-172.12C1377.42,-166.9 1195.77,-153.53 1044.38,-124 1036.61,-122.49 1028.47,-120.53 1020.57,-118.42"/>
<polygon fill="#63b8ff" stroke="#63b8ff" points="1468.31,-175.6 1478.49,-172.67 1468.7,-168.61 1468.31,-175.6"/>
</a>
</g>
</g>
<!-- Node17 -->
<g id="Node000017" class="node">
<title>Node17</title>
<g id="a_Node000017"><a xlink:href="Commands_8hpp.html" target="_top" xlink:title=" ">
<polygon fill="white" stroke="#666666" points="365.62,-118 237.12,-118 237.12,-86 365.62,-86 365.62,-118"/>
<text text-anchor="start" x="245.12" y="-104.5" font-family="Helvetica,sans-Serif" font-size="10.00">src/bot_library/commands</text>
<text text-anchor="middle" x="301.38" y="-92.5" font-family="Helvetica,sans-Serif" font-size="10.00">/include/Commands.hpp</text>
</a>
</g>
</g>
<!-- Node1&#45;&gt;Node17 -->
<g id="edge19_Node000001_Node000017" class="edge">
<title>Node1&#45;&gt;Node17</title>
<g id="a_edge19_Node000001_Node000017"><a xlink:title=" ">
<path fill="none" stroke="#63b8ff" d="M1468.57,-174.23C1264.6,-171.27 588.35,-159.01 374.38,-124 366.05,-122.64 357.32,-120.64 348.91,-118.42"/>
<polygon fill="#63b8ff" stroke="#63b8ff" points="1468.34,-177.73 1478.39,-174.37 1468.44,-170.73 1468.34,-177.73"/>
</a>
</g>
</g>
<!-- Node18 -->
<g id="Node000018" class="node">
<title>Node18</title>
<g id="a_Node000018"><a xlink:href="InitDatabase_8hpp.html" target="_top" xlink:title=" ">
<polygon fill="white" stroke="#666666" points="3145.38,-118 2991.38,-118 2991.38,-86 3145.38,-86 3145.38,-118"/>
<text text-anchor="start" x="2999.38" y="-104.5" font-family="Helvetica,sans-Serif" font-size="10.00">src/bot_library/commands</text>
<text text-anchor="middle" x="3068.38" y="-92.5" font-family="Helvetica,sans-Serif" font-size="10.00">/init_database/InitDatabase.hpp</text>
</a>
</g>
</g>
<!-- Node1&#45;&gt;Node18 -->
<g id="edge22_Node000001_Node000018" class="edge">
<title>Node1&#45;&gt;Node18</title>
<g id="a_edge22_Node000001_Node000018"><a xlink:title=" ">
<path fill="none" stroke="#63b8ff" d="M1586.17,-174.48C1775.54,-172.45 2386.55,-163.08 2890.38,-124 2923.42,-121.44 2959.77,-117.37 2990.97,-113.5"/>
<polygon fill="#63b8ff" stroke="#63b8ff" points="1586.31,-170.98 1576.35,-174.58 1586.38,-177.98 1586.31,-170.98"/>
</a>
</g>
</g>
<!-- Node20 -->
<g id="Node000020" class="node">
<title>Node20</title>
<g id="a_Node000020"><a xlink:href="InviteCommand_8hpp.html" target="_top" xlink:title=" ">
<polygon fill="white" stroke="#666666" points="1186.88,-118 1053.88,-118 1053.88,-86 1186.88,-86 1186.88,-118"/>
<text text-anchor="start" x="1061.88" y="-104.5" font-family="Helvetica,sans-Serif" font-size="10.00">src/bot_library/commands</text>
<text text-anchor="middle" x="1120.38" y="-92.5" font-family="Helvetica,sans-Serif" font-size="10.00">/invite/InviteCommand.hpp</text>
</a>
</g>
</g>
<!-- Node1&#45;&gt;Node20 -->
<g id="edge24_Node000001_Node000020" class="edge">
<title>Node1&#45;&gt;Node20</title>
<g id="a_edge24_Node000001_Node000020"><a xlink:title=" ">
<path fill="none" stroke="#63b8ff" d="M1468.85,-168.08C1402.41,-159.74 1290.96,-144.28 1196.38,-124 1188.88,-122.39 1181.03,-120.48 1173.33,-118.48"/>
<polygon fill="#63b8ff" stroke="#63b8ff" points="1468.06,-171.51 1478.42,-169.27 1468.92,-164.56 1468.06,-171.51"/>
</a>
</g>
</g>
<!-- Node22 -->
<g id="Node000022" class="node">
<title>Node22</title>
<g id="a_Node000022"><a xlink:href="MemberCommand_8hpp.html" target="_top" xlink:title=" ">
<polygon fill="white" stroke="#666666" points="1361.5,-118 1205.25,-118 1205.25,-86 1361.5,-86 1361.5,-118"/>
<text text-anchor="start" x="1213.25" y="-104.5" font-family="Helvetica,sans-Serif" font-size="10.00">src/bot_library/commands</text>
<text text-anchor="middle" x="1283.38" y="-92.5" font-family="Helvetica,sans-Serif" font-size="10.00">/member/MemberCommand.hpp</text>
</a>
</g>
</g>
<!-- Node1&#45;&gt;Node22 -->
<g id="edge27_Node000001_Node000022" class="edge">
<title>Node1&#45;&gt;Node22</title>
<g id="a_edge27_Node000001_Node000022"><a xlink:title=" ">
<path fill="none" stroke="#63b8ff" d="M1469.23,-157.84C1428.63,-145.86 1374.89,-130.01 1335.65,-118.43"/>
<polygon fill="#63b8ff" stroke="#63b8ff" points="1468.01,-161.13 1478.59,-160.6 1469.99,-154.42 1468.01,-161.13"/>
</a>
</g>
</g>
<!-- Node24 -->
<g id="Node000024" class="node">
<title>Node24</title>
<g id="a_Node000024"><a xlink:href="PongCommand_8hpp.html" target="_top" xlink:title=" ">
<polygon fill="white" stroke="#666666" points="1509,-118 1379.75,-118 1379.75,-86 1509,-86 1509,-118"/>
<text text-anchor="start" x="1387.75" y="-104.5" font-family="Helvetica,sans-Serif" font-size="10.00">src/bot_library/commands</text>
<text text-anchor="middle" x="1444.38" y="-92.5" font-family="Helvetica,sans-Serif" font-size="10.00">/pong/PongCommand.hpp</text>
</a>
</g>
</g>
<!-- Node1&#45;&gt;Node24 -->
<g id="edge30_Node000001_Node000024" class="edge">
<title>Node1&#45;&gt;Node24</title>
<g id="a_edge30_Node000001_Node000024"><a xlink:title=" ">
<path fill="none" stroke="#63b8ff" d="M1501.4,-152.46C1488.67,-141.42 1473.66,-128.4 1462.24,-118.5"/>
<polygon fill="#63b8ff" stroke="#63b8ff" points="1498.78,-154.83 1508.63,-158.74 1503.37,-149.54 1498.78,-154.83"/>
</a>
</g>
</g>
<!-- Node26 -->
<g id="Node000026" class="node">
<title>Node26</title>
<g id="a_Node000026"><a xlink:href="ReactionRoles_8hpp.html" target="_top" xlink:title=" ">
<polygon fill="white" stroke="#666666" points="1693.38,-118 1527.38,-118 1527.38,-86 1693.38,-86 1693.38,-118"/>
<text text-anchor="start" x="1535.38" y="-104.5" font-family="Helvetica,sans-Serif" font-size="10.00">src/bot_library/commands</text>
<text text-anchor="middle" x="1610.38" y="-92.5" font-family="Helvetica,sans-Serif" font-size="10.00">/reaction_roles/ReactionRoles.hpp</text>
</a>
</g>
</g>
<!-- Node1&#45;&gt;Node26 -->
<g id="edge33_Node000001_Node000026" class="edge">
<title>Node1&#45;&gt;Node26</title>
<g id="a_edge33_Node000001_Node000026"><a xlink:title=" ">
<path fill="none" stroke="#63b8ff" d="M1553.35,-152.46C1566.08,-141.42 1581.09,-128.4 1592.51,-118.5"/>
<polygon fill="#63b8ff" stroke="#63b8ff" points="1551.38,-149.54 1546.12,-158.74 1555.97,-154.83 1551.38,-149.54"/>
</a>
</g>
</g>
<!-- Node28 -->
<g id="Node000028" class="node">
<title>Node28</title>
<g id="a_Node000028"><a xlink:href="ResourcesCommand_8hpp.html" target="_top" xlink:title=" ">
<polygon fill="white" stroke="#666666" points="1887.25,-118 1711.5,-118 1711.5,-86 1887.25,-86 1887.25,-118"/>
<text text-anchor="start" x="1719.5" y="-104.5" font-family="Helvetica,sans-Serif" font-size="10.00">src/bot_library/commands</text>
<text text-anchor="middle" x="1799.38" y="-92.5" font-family="Helvetica,sans-Serif" font-size="10.00">/resources/ResourcesCommand.hpp</text>
</a>
</g>
</g>
<!-- Node1&#45;&gt;Node28 -->
<g id="edge36_Node000001_Node000028" class="edge">
<title>Node1&#45;&gt;Node28</title>
<g id="a_edge36_Node000001_Node000028"><a xlink:title=" ">
<path fill="none" stroke="#63b8ff" d="M1585.73,-159.55C1631.65,-147.4 1695.32,-130.54 1741.19,-118.4"/>
<polygon fill="#63b8ff" stroke="#63b8ff" points="1584.99,-156.13 1576.22,-162.07 1586.78,-162.9 1584.99,-156.13"/>
</a>
</g>
</g>
<!-- Node30 -->
<g id="Node000030" class="node">
<title>Node30</title>
<g id="a_Node000030"><a xlink:href="RollCommand_8hpp.html" target="_top" xlink:title=" ">
<polygon fill="white" stroke="#666666" points="2033.62,-118 1905.12,-118 1905.12,-86 2033.62,-86 2033.62,-118"/>
<text text-anchor="start" x="1913.12" y="-104.5" font-family="Helvetica,sans-Serif" font-size="10.00">src/bot_library/commands</text>
<text text-anchor="middle" x="1969.38" y="-92.5" font-family="Helvetica,sans-Serif" font-size="10.00">/roll/RollCommand.hpp</text>
</a>
</g>
</g>
<!-- Node1&#45;&gt;Node30 -->
<g id="edge39_Node000001_Node000030" class="edge">
<title>Node1&#45;&gt;Node30</title>
<g id="a_edge39_Node000001_Node000030"><a xlink:title=" ">
<path fill="none" stroke="#63b8ff" d="M1585.89,-169.52C1659.03,-162.07 1787.83,-146.99 1896.38,-124 1903.86,-122.42 1911.7,-120.47 1919.35,-118.41"/>
<polygon fill="#63b8ff" stroke="#63b8ff" points="1585.74,-166.02 1576.14,-170.5 1586.44,-172.98 1585.74,-166.02"/>
</a>
</g>
</g>
<!-- Node32 -->
<g id="Node000032" class="node">
<title>Node32</title>
<g id="a_Node000032"><a xlink:href="ServerDetails_8hpp.html" target="_top" xlink:title=" ">
<polygon fill="white" stroke="#666666" points="2212.75,-118 2052,-118 2052,-86 2212.75,-86 2212.75,-118"/>
<text text-anchor="start" x="2060" y="-104.5" font-family="Helvetica,sans-Serif" font-size="10.00">src/bot_library/commands</text>
<text text-anchor="middle" x="2132.38" y="-92.5" font-family="Helvetica,sans-Serif" font-size="10.00">/server_details/ServerDetails.hpp</text>
</a>
</g>
</g>
<!-- Node1&#45;&gt;Node32 -->
<g id="edge42_Node000001_Node000032" class="edge">
<title>Node1&#45;&gt;Node32</title>
<g id="a_edge42_Node000001_Node000032"><a xlink:title=" ">
<path fill="none" stroke="#63b8ff" d="M1586.35,-171.67C1682.39,-165.69 1878.36,-151.14 2042.38,-124 2051.71,-122.45 2061.53,-120.51 2071.1,-118.42"/>
<polygon fill="#63b8ff" stroke="#63b8ff" points="1586.14,-168.18 1576.37,-172.28 1586.57,-175.16 1586.14,-168.18"/>
</a>
</g>
</g>
<!-- Node34 -->
<g id="Node000034" class="node">
<title>Node34</title>
<g id="a_Node000034"><a xlink:href="SetChannelCommand_8hpp.html" target="_top" xlink:title=" ">
<polygon fill="white" stroke="#666666" points="2420,-118 2230.75,-118 2230.75,-86 2420,-86 2420,-118"/>
<text text-anchor="start" x="2238.75" y="-104.5" font-family="Helvetica,sans-Serif" font-size="10.00">src/bot_library/commands</text>
<text text-anchor="middle" x="2325.38" y="-92.5" font-family="Helvetica,sans-Serif" font-size="10.00">/set_channel/SetChannelCommand.hpp</text>
</a>
</g>
</g>
<!-- Node1&#45;&gt;Node34 -->
<g id="edge45_Node000001_Node000034" class="edge">
<title>Node1&#45;&gt;Node34</title>
<g id="a_edge45_Node000001_Node000034"><a xlink:title=" ">
<path fill="none" stroke="#63b8ff" d="M1586.15,-173.18C1706.07,-168.91 1987.39,-156.09 2221.38,-124 2232.23,-122.51 2243.66,-120.58 2254.81,-118.49"/>
<polygon fill="#63b8ff" stroke="#63b8ff" points="1586.1,-169.68 1576.23,-173.52 1586.34,-176.67 1586.1,-169.68"/>
</a>
</g>
</g>
<!-- Node36 -->
<g id="Node000036" class="node">
<title>Node36</title>
<g id="a_Node000036"><a xlink:href="SetStatus_8hpp.html" target="_top" xlink:title=" ">
<polygon fill="white" stroke="#666666" points="2568.38,-118 2438.38,-118 2438.38,-86 2568.38,-86 2568.38,-118"/>
<text text-anchor="start" x="2446.38" y="-104.5" font-family="Helvetica,sans-Serif" font-size="10.00">src/bot_library/commands</text>
<text text-anchor="middle" x="2503.38" y="-92.5" font-family="Helvetica,sans-Serif" font-size="10.00">/set_status/SetStatus.hpp</text>
</a>
</g>
</g>
<!-- Node1&#45;&gt;Node36 -->
<g id="edge48_Node000001_Node000036" class="edge">
<title>Node1&#45;&gt;Node36</title>
<g id="a_edge48_Node000001_Node000036"><a xlink:title=" ">
<path fill="none" stroke="#63b8ff" d="M1586,-173.37C1759.12,-168.29 2266.17,-151.43 2429.38,-124 2437.67,-122.61 2446.37,-120.63 2454.76,-118.43"/>
<polygon fill="#63b8ff" stroke="#63b8ff" points="1586.01,-169.87 1576.11,-173.66 1586.21,-176.87 1586.01,-169.87"/>
</a>
</g>
</g>
<!-- Node5 -->
<g id="Node000005" class="node">
<title>Node5</title>
<g id="a_Node000005"><a xlink:href="ChallengeBadgeCommand_8cpp.html" target="_top" xlink:title=" ">
<polygon fill="white" stroke="#666666" points="3065.38,-44 2899.38,-44 2899.38,0 3065.38,0 3065.38,-44"/>
<text text-anchor="start" x="2907.38" y="-30.5" font-family="Helvetica,sans-Serif" font-size="10.00">src/bot_library/commands</text>
<text text-anchor="start" x="2907.38" y="-18.5" font-family="Helvetica,sans-Serif" font-size="10.00">/challenge_badge/ChallengeBadge</text>
<text text-anchor="middle" x="2982.38" y="-6.5" font-family="Helvetica,sans-Serif" font-size="10.00">Command.cpp</text>
</a>
</g>
</g>
<!-- Node4&#45;&gt;Node5 -->
<g id="edge4_Node000004_Node000005" class="edge">
<title>Node4&#45;&gt;Node5</title>
<g id="a_edge4_Node000004_Node000005"><a xlink:title=" ">
<path fill="none" stroke="#63b8ff" d="M2859.23,-75.2C2882.76,-65.23 2909.38,-53.94 2931.84,-44.42"/>
<polygon fill="#63b8ff" stroke="#63b8ff" points="2857.89,-71.97 2850.05,-79.1 2860.62,-78.41 2857.89,-71.97"/>
</a>
</g>
</g>
<!-- Node6 -->
<g id="Node000006" class="node">
<title>Node6</title>
<g id="a_Node000006"><a xlink:href="ChallengeBadgeDTO_8cpp.html" target="_top" xlink:title=" ">
<polygon fill="white" stroke="#666666" points="2881.38,-44 2715.38,-44 2715.38,0 2881.38,0 2881.38,-44"/>
<text text-anchor="start" x="2723.38" y="-30.5" font-family="Helvetica,sans-Serif" font-size="10.00">src/bot_library/commands</text>
<text text-anchor="start" x="2723.38" y="-18.5" font-family="Helvetica,sans-Serif" font-size="10.00">/challenge_badge/ChallengeBadge</text>
<text text-anchor="middle" x="2798.38" y="-6.5" font-family="Helvetica,sans-Serif" font-size="10.00">DTO.cpp</text>
</a>
</g>
</g>
<!-- Node4&#45;&gt;Node6 -->
<g id="edge5_Node000004_Node000006" class="edge">
<title>Node4&#45;&gt;Node6</title>
<g id="a_edge5_Node000004_Node000006"><a xlink:title=" ">
<path fill="none" stroke="#63b8ff" d="M2798.38,-68.25C2798.38,-60.15 2798.38,-51.68 2798.38,-44.29"/>
<polygon fill="#63b8ff" stroke="#63b8ff" points="2794.88,-68.17 2798.38,-78.17 2801.88,-68.17 2794.88,-68.17"/>
</a>
</g>
</g>
<!-- Node8 -->
<g id="Node000008" class="node">
<title>Node8</title>
<g id="a_Node000008"><a xlink:href="Commands_8cpp.html" target="_top" xlink:title=" ">
<polygon fill="white" stroke="#666666" points="1490.62,-38 1362.12,-38 1362.12,-6 1490.62,-6 1490.62,-38"/>
<text text-anchor="start" x="1370.12" y="-24.5" font-family="Helvetica,sans-Serif" font-size="10.00">src/bot_library/commands</text>
<text text-anchor="middle" x="1426.38" y="-12.5" font-family="Helvetica,sans-Serif" font-size="10.00">/Commands.cpp</text>
</a>
</g>
</g>
<!-- Node7&#45;&gt;Node8 -->
<g id="edge7_Node000007_Node000008" class="edge">
<title>Node7&#45;&gt;Node8</title>
<g id="a_edge7_Node000007_Node000008"><a xlink:title=" ">
<path fill="none" stroke="#63b8ff" d="M577.27,-83.72C586.4,-82.29 595.56,-81.01 604.38,-80 935.47,-41.98 1024.58,-98.43 1353.38,-44 1361.57,-42.64 1370.15,-40.68 1378.44,-38.5"/>
<polygon fill="#63b8ff" stroke="#63b8ff" points="576.98,-80.22 567.67,-85.28 578.11,-87.13 576.98,-80.22"/>
</a>
</g>
</g>
<!-- Node9 -->
<g id="Node000009" class="node">
<title>Node9</title>
<g id="a_Node000009"><a xlink:href="ChallengeRoleCommand_8cpp.html" target="_top" xlink:title=" ">
<polygon fill="white" stroke="#666666" points="578.25,-38 366.5,-38 366.5,-6 578.25,-6 578.25,-38"/>
<text text-anchor="start" x="374.5" y="-24.5" font-family="Helvetica,sans-Serif" font-size="10.00">src/bot_library/commands</text>
<text text-anchor="middle" x="472.38" y="-12.5" font-family="Helvetica,sans-Serif" font-size="10.00">/challenge_role/ChallengeRoleCommand.cpp</text>
</a>
</g>
</g>
<!-- Node7&#45;&gt;Node9 -->
<g id="edge8_Node000007_Node000009" class="edge">
<title>Node7&#45;&gt;Node9</title>
<g id="a_edge8_Node000007_Node000009"><a xlink:title=" ">
<path fill="none" stroke="#63b8ff" d="M483.57,-74.37C480.96,-62.37 477.96,-48.63 475.73,-38.38"/>
<polygon fill="#63b8ff" stroke="#63b8ff" points="480.14,-75.09 485.69,-84.11 486.98,-73.59 480.14,-75.09"/>
</a>
</g>
</g>
<!-- Node10 -->
<g id="Node000010" class="node">
<title>Node10</title>
<g id="a_Node000010"><a xlink:href="ChallengeRoleDTO_8cpp.html" target="_top" xlink:title=" ">
<polygon fill="white" stroke="#666666" points="348.25,-38 160.5,-38 160.5,-6 348.25,-6 348.25,-38"/>
<text text-anchor="start" x="168.5" y="-24.5" font-family="Helvetica,sans-Serif" font-size="10.00">src/bot_library/commands</text>
<text text-anchor="middle" x="254.38" y="-12.5" font-family="Helvetica,sans-Serif" font-size="10.00">/challenge_role/ChallengeRoleDTO.cpp</text>
</a>
</g>
</g>
<!-- Node7&#45;&gt;Node10 -->
<g id="edge9_Node000007_Node000010" class="edge">
<title>Node7&#45;&gt;Node10</title>
<g id="a_edge9_Node000007_Node000010"><a xlink:title=" ">
<path fill="none" stroke="#63b8ff" d="M432.19,-82.02C391.82,-68.62 338.42,-50.9 300.71,-38.38"/>
<polygon fill="#63b8ff" stroke="#63b8ff" points="430.92,-85.28 441.51,-85.11 433.12,-78.64 430.92,-85.28"/>
</a>
</g>
</g>
<!-- Node11&#45;&gt;Node8 -->
<g id="edge11_Node000011_Node000008" class="edge">
<title>Node11&#45;&gt;Node8</title>
<g id="a_edge11_Node000011_Node000008"><a xlink:title=" ">
<path fill="none" stroke="#63b8ff" d="M737.12,-82.86C741.92,-81.77 746.71,-80.79 751.38,-80 1015.63,-35.15 1089.2,-89.33 1353.38,-44 1361.56,-42.6 1370.14,-40.61 1378.42,-38.41"/>
<polygon fill="#63b8ff" stroke="#63b8ff" points="736.34,-79.45 727.46,-85.23 738.01,-86.25 736.34,-79.45"/>
</a>
</g>
</g>
<!-- Node12 -->
<g id="Node000012" class="node">
<title>Node12</title>
<g id="a_Node000012"><a xlink:href="CleanUp_8cpp.html" target="_top" xlink:title=" ">
<polygon fill="white" stroke="#666666" points="724.62,-38 596.12,-38 596.12,-6 724.62,-6 724.62,-38"/>
<text text-anchor="start" x="604.12" y="-24.5" font-family="Helvetica,sans-Serif" font-size="10.00">src/bot_library/commands</text>
<text text-anchor="middle" x="660.38" y="-12.5" font-family="Helvetica,sans-Serif" font-size="10.00">/clean_up/CleanUp.cpp</text>
</a>
</g>
</g>
<!-- Node11&#45;&gt;Node12 -->
<g id="edge12_Node000011_Node000012" class="edge">
<title>Node11&#45;&gt;Node12</title>
<g id="a_edge12_Node000011_Node000012"><a xlink:title=" ">
<path fill="none" stroke="#63b8ff" d="M671.57,-74.37C668.96,-62.37 665.96,-48.63 663.73,-38.38"/>
<polygon fill="#63b8ff" stroke="#63b8ff" points="668.14,-75.09 673.69,-84.11 674.98,-73.59 668.14,-75.09"/>
</a>
</g>
</g>
<!-- Node13&#45;&gt;Node8 -->
<g id="edge14_Node000013_Node000008" class="edge">
<title>Node13&#45;&gt;Node8</title>
<g id="a_edge14_Node000013_Node000008"><a xlink:title=" ">
<path fill="none" stroke="#63b8ff" d="M884.98,-82.76C889.49,-81.73 893.99,-80.79 898.38,-80 1098.03,-44.14 1153.78,-80.22 1353.38,-44 1361.29,-42.56 1369.58,-40.62 1377.61,-38.49"/>
<polygon fill="#63b8ff" stroke="#63b8ff" points="884.16,-79.36 875.29,-85.15 885.83,-86.16 884.16,-79.36"/>
</a>
</g>
</g>
<!-- Node14 -->
<g id="Node000014" class="node">
<title>Node14</title>
<g id="a_Node000014"><a xlink:href="FlipCommand_8cpp.html" target="_top" xlink:title=" ">
<polygon fill="white" stroke="#666666" points="871.62,-38 743.12,-38 743.12,-6 871.62,-6 871.62,-38"/>
<text text-anchor="start" x="751.12" y="-24.5" font-family="Helvetica,sans-Serif" font-size="10.00">src/bot_library/commands</text>
<text text-anchor="middle" x="807.38" y="-12.5" font-family="Helvetica,sans-Serif" font-size="10.00">/flip/FlipCommand.cpp</text>
</a>
</g>
</g>
<!-- Node13&#45;&gt;Node14 -->
<g id="edge15_Node000013_Node000014" class="edge">
<title>Node13&#45;&gt;Node14</title>
<g id="a_edge15_Node000013_Node000014"><a xlink:title=" ">
<path fill="none" stroke="#63b8ff" d="M818.57,-74.37C815.96,-62.37 812.96,-48.63 810.73,-38.38"/>
<polygon fill="#63b8ff" stroke="#63b8ff" points="815.14,-75.09 820.69,-84.11 821.98,-73.59 815.14,-75.09"/>
</a>
</g>
</g>
<!-- Node15&#45;&gt;Node8 -->
<g id="edge17_Node000015_Node000008" class="edge">
<title>Node15&#45;&gt;Node8</title>
<g id="a_edge17_Node000015_Node000008"><a xlink:title=" ">
<path fill="none" stroke="#63b8ff" d="M1032,-82.75C1036.17,-81.74 1040.32,-80.81 1044.38,-80 1179.93,-52.8 1217.82,-71.2 1353.38,-44 1361,-42.47 1368.99,-40.53 1376.77,-38.45"/>
<polygon fill="#63b8ff" stroke="#63b8ff" points="1031.27,-79.32 1022.44,-85.18 1033,-86.1 1031.27,-79.32"/>
</a>
</g>
</g>
<!-- Node16 -->
<g id="Node000016" class="node">
<title>Node16</title>
<g id="a_Node000016"><a xlink:href="HelpCommand_8cpp.html" target="_top" xlink:title=" ">
<polygon fill="white" stroke="#666666" points="1018.62,-38 890.12,-38 890.12,-6 1018.62,-6 1018.62,-38"/>
<text text-anchor="start" x="898.12" y="-24.5" font-family="Helvetica,sans-Serif" font-size="10.00">src/bot_library/commands</text>
<text text-anchor="middle" x="954.38" y="-12.5" font-family="Helvetica,sans-Serif" font-size="10.00">/help/HelpCommand.cpp</text>
</a>
</g>
</g>
<!-- Node15&#45;&gt;Node16 -->
<g id="edge18_Node000015_Node000016" class="edge">
<title>Node15&#45;&gt;Node16</title>
<g id="a_edge18_Node000015_Node000016"><a xlink:title=" ">
<path fill="none" stroke="#63b8ff" d="M965.57,-74.37C962.96,-62.37 959.96,-48.63 957.73,-38.38"/>
<polygon fill="#63b8ff" stroke="#63b8ff" points="962.14,-75.09 967.69,-84.11 968.98,-73.59 962.14,-75.09"/>
</a>
</g>
</g>
<!-- Node17&#45;&gt;Node2 -->
<g id="edge20_Node000017_Node000002" class="edge">
<title>Node17&#45;&gt;Node2</title>
<g id="a_edge20_Node000017_Node000002"><a xlink:title=" ">
<path fill="none" stroke="#63b8ff" d="M245.18,-81.94C198.96,-66.27 135.42,-44.72 99.35,-32.49"/>
<polygon fill="#63b8ff" stroke="#63b8ff" points="243.91,-85.21 254.5,-85.1 246.15,-78.58 243.91,-85.21"/>
</a>
</g>
</g>
<!-- Node17&#45;&gt;Node8 -->
<g id="edge21_Node000017_Node000008" class="edge">
<title>Node17&#45;&gt;Node8</title>
<g id="a_edge21_Node000017_Node000008"><a xlink:title=" ">
<path fill="none" stroke="#63b8ff" d="M360.06,-82.79C364.87,-81.7 369.69,-80.75 374.38,-80 804.33,-11.31 923.42,-112.69 1353.38,-44 1361.71,-42.67 1370.44,-40.69 1378.85,-38.47"/>
<polygon fill="#63b8ff" stroke="#63b8ff" points="359.25,-79.38 350.37,-85.17 360.92,-86.18 359.25,-79.38"/>
</a>
</g>
</g>
<!-- Node19 -->
<g id="Node000019" class="node">
<title>Node19</title>
<g id="a_Node000019"><a xlink:href="InitDatabase_8cpp.html" target="_top" xlink:title=" ">
<polygon fill="white" stroke="#666666" points="3237.38,-38 3083.38,-38 3083.38,-6 3237.38,-6 3237.38,-38"/>
<text text-anchor="start" x="3091.38" y="-24.5" font-family="Helvetica,sans-Serif" font-size="10.00">src/bot_library/commands</text>
<text text-anchor="middle" x="3160.38" y="-12.5" font-family="Helvetica,sans-Serif" font-size="10.00">/init_database/InitDatabase.cpp</text>
</a>
</g>
</g>
<!-- Node18&#45;&gt;Node19 -->
<g id="edge23_Node000018_Node000019" class="edge">
<title>Node18&#45;&gt;Node19</title>
<g id="a_edge23_Node000018_Node000019"><a xlink:title=" ">
<path fill="none" stroke="#63b8ff" d="M3095.02,-78.41C3110.17,-65.56 3128.76,-49.8 3142.24,-38.38"/>
<polygon fill="#63b8ff" stroke="#63b8ff" points="3093.07,-75.47 3087.71,-84.61 3097.6,-80.81 3093.07,-75.47"/>
</a>
</g>
</g>
<!-- Node20&#45;&gt;Node8 -->
<g id="edge25_Node000020_Node000008" class="edge">
<title>Node20&#45;&gt;Node8</title>
<g id="a_edge25_Node000020_Node000008"><a xlink:title=" ">
<path fill="none" stroke="#63b8ff" d="M1186.16,-82.63C1189.61,-81.73 1193.03,-80.84 1196.38,-80 1265.78,-62.46 1284.06,-61.9 1353.38,-44 1360.01,-42.29 1366.97,-40.4 1373.84,-38.49"/>
<polygon fill="#63b8ff" stroke="#63b8ff" points="1185.32,-79.23 1176.56,-85.18 1187.12,-86 1185.32,-79.23"/>
</a>
</g>
</g>
<!-- Node21 -->
<g id="Node000021" class="node">
<title>Node21</title>
<g id="a_Node000021"><a xlink:href="InviteCommand_8cpp.html" target="_top" xlink:title=" ">
<polygon fill="white" stroke="#666666" points="1169.88,-38 1036.88,-38 1036.88,-6 1169.88,-6 1169.88,-38"/>
<text text-anchor="start" x="1044.88" y="-24.5" font-family="Helvetica,sans-Serif" font-size="10.00">src/bot_library/commands</text>
<text text-anchor="middle" x="1103.38" y="-12.5" font-family="Helvetica,sans-Serif" font-size="10.00">/invite/InviteCommand.cpp</text>
</a>
</g>
</g>
<!-- Node20&#45;&gt;Node21 -->
<g id="edge26_Node000020_Node000021" class="edge">
<title>Node20&#45;&gt;Node21</title>
<g id="a_edge26_Node000020_Node000021"><a xlink:title=" ">
<path fill="none" stroke="#63b8ff" d="M1114.57,-74.37C1111.96,-62.37 1108.96,-48.63 1106.73,-38.38"/>
<polygon fill="#63b8ff" stroke="#63b8ff" points="1111.14,-75.09 1116.69,-84.11 1117.98,-73.59 1111.14,-75.09"/>
</a>
</g>
</g>
<!-- Node22&#45;&gt;Node8 -->
<g id="edge28_Node000022_Node000008" class="edge">
<title>Node22&#45;&gt;Node8</title>
<g id="a_edge28_Node000022_Node000008"><a xlink:title=" ">
<path fill="none" stroke="#63b8ff" d="M1321.52,-80.2C1345.63,-67.04 1376.26,-50.33 1398.18,-38.38"/>
<polygon fill="#63b8ff" stroke="#63b8ff" points="1320.06,-77 1312.96,-84.86 1323.41,-83.15 1320.06,-77"/>
</a>
</g>
</g>
<!-- Node23 -->
<g id="Node000023" class="node">
<title>Node23</title>
<g id="a_Node000023"><a xlink:href="MemberCommand_8cpp.html" target="_top" xlink:title=" ">
<polygon fill="white" stroke="#666666" points="1344.5,-38 1188.25,-38 1188.25,-6 1344.5,-6 1344.5,-38"/>
<text text-anchor="start" x="1196.25" y="-24.5" font-family="Helvetica,sans-Serif" font-size="10.00">src/bot_library/commands</text>
<text text-anchor="middle" x="1266.38" y="-12.5" font-family="Helvetica,sans-Serif" font-size="10.00">/member/MemberCommand.cpp</text>
</a>
</g>
</g>
<!-- Node22&#45;&gt;Node23 -->
<g id="edge29_Node000022_Node000023" class="edge">
<title>Node22&#45;&gt;Node23</title>
<g id="a_edge29_Node000022_Node000023"><a xlink:title=" ">
<path fill="none" stroke="#63b8ff" d="M1277.57,-74.37C1274.96,-62.37 1271.96,-48.63 1269.73,-38.38"/>
<polygon fill="#63b8ff" stroke="#63b8ff" points="1274.14,-75.09 1279.69,-84.11 1280.98,-73.59 1274.14,-75.09"/>
</a>
</g>
</g>
<!-- Node24&#45;&gt;Node8 -->
<g id="edge31_Node000024_Node000008" class="edge">
<title>Node24&#45;&gt;Node8</title>
<g id="a_edge31_Node000024_Node000008"><a xlink:title=" ">
<path fill="none" stroke="#63b8ff" d="M1438.31,-74.74C1435.53,-62.65 1432.31,-48.73 1429.92,-38.38"/>
<polygon fill="#63b8ff" stroke="#63b8ff" points="1434.82,-75.16 1440.48,-84.11 1441.64,-73.58 1434.82,-75.16"/>
</a>
</g>
</g>
<!-- Node25 -->
<g id="Node000025" class="node">
<title>Node25</title>
<g id="a_Node000025"><a xlink:href="PongCommand_8cpp.html" target="_top" xlink:title=" ">
<polygon fill="white" stroke="#666666" points="1638,-38 1508.75,-38 1508.75,-6 1638,-6 1638,-38"/>
<text text-anchor="start" x="1516.75" y="-24.5" font-family="Helvetica,sans-Serif" font-size="10.00">src/bot_library/commands</text>
<text text-anchor="middle" x="1573.38" y="-12.5" font-family="Helvetica,sans-Serif" font-size="10.00">/pong/PongCommand.cpp</text>
</a>
</g>
</g>
<!-- Node24&#45;&gt;Node25 -->
<g id="edge32_Node000024_Node000025" class="edge">
<title>Node24&#45;&gt;Node25</title>
<g id="a_edge32_Node000024_Node000025"><a xlink:title=" ">
<path fill="none" stroke="#63b8ff" d="M1479.66,-79.67C1501.27,-66.6 1528.43,-50.17 1547.94,-38.38"/>
<polygon fill="#63b8ff" stroke="#63b8ff" points="1477.9,-76.64 1471.16,-84.81 1481.52,-82.63 1477.9,-76.64"/>
</a>
</g>
</g>
<!-- Node26&#45;&gt;Node8 -->
<g id="edge34_Node000026_Node000008" class="edge">
<title>Node26&#45;&gt;Node8</title>
<g id="a_edge34_Node000026_Node000008"><a xlink:title=" ">
<path fill="none" stroke="#63b8ff" d="M1563.77,-81.24C1532.39,-67.94 1491.61,-50.66 1462.65,-38.38"/>
<polygon fill="#63b8ff" stroke="#63b8ff" points="1562.06,-84.32 1572.63,-85 1564.79,-77.87 1562.06,-84.32"/>
</a>
</g>
</g>
<!-- Node27 -->
<g id="Node000027" class="node">
<title>Node27</title>
<g id="a_Node000027"><a xlink:href="ReactionRoles_8cpp.html" target="_top" xlink:title=" ">
<polygon fill="white" stroke="#666666" points="1822.38,-38 1656.38,-38 1656.38,-6 1822.38,-6 1822.38,-38"/>
<text text-anchor="start" x="1664.38" y="-24.5" font-family="Helvetica,sans-Serif" font-size="10.00">src/bot_library/commands</text>
<text text-anchor="middle" x="1739.38" y="-12.5" font-family="Helvetica,sans-Serif" font-size="10.00">/reaction_roles/ReactionRoles.cpp</text>
</a>
</g>
</g>
<!-- Node26&#45;&gt;Node27 -->
<g id="edge35_Node000026_Node000027" class="edge">
<title>Node26&#45;&gt;Node27</title>
<g id="a_edge35_Node000026_Node000027"><a xlink:title=" ">
<path fill="none" stroke="#63b8ff" d="M1645.66,-79.67C1667.27,-66.6 1694.43,-50.17 1713.94,-38.38"/>
<polygon fill="#63b8ff" stroke="#63b8ff" points="1643.9,-76.64 1637.16,-84.81 1647.52,-82.63 1643.9,-76.64"/>
</a>
</g>
</g>
<!-- Node28&#45;&gt;Node8 -->
<g id="edge37_Node000028_Node000008" class="edge">
<title>Node28&#45;&gt;Node8</title>
<g id="a_edge37_Node000028_Node000008"><a xlink:title=" ">
<path fill="none" stroke="#63b8ff" d="M1718.38,-83.23C1712.97,-82.11 1707.59,-81.03 1702.38,-80 1612.47,-62.3 1588.64,-64.69 1499.38,-44 1492.31,-42.36 1484.91,-40.46 1477.65,-38.48"/>
<polygon fill="#63b8ff" stroke="#63b8ff" points="1717.52,-86.62 1728.02,-85.24 1718.95,-79.77 1717.52,-86.62"/>
</a>
</g>
</g>
<!-- Node29 -->
<g id="Node000029" class="node">
<title>Node29</title>
<g id="a_Node000029"><a xlink:href="ResourcesCommand_8cpp.html" target="_top" xlink:title=" ">
<polygon fill="white" stroke="#666666" points="2016.25,-38 1840.5,-38 1840.5,-6 2016.25,-6 2016.25,-38"/>
<text text-anchor="start" x="1848.5" y="-24.5" font-family="Helvetica,sans-Serif" font-size="10.00">src/bot_library/commands</text>
<text text-anchor="middle" x="1928.38" y="-12.5" font-family="Helvetica,sans-Serif" font-size="10.00">/resources/ResourcesCommand.cpp</text>
</a>
</g>
</g>
<!-- Node28&#45;&gt;Node29 -->
<g id="edge38_Node000028_Node000029" class="edge">
<title>Node28&#45;&gt;Node29</title>
<g id="a_edge38_Node000028_Node000029"><a xlink:title=" ">
<path fill="none" stroke="#63b8ff" d="M1834.66,-79.67C1856.27,-66.6 1883.43,-50.17 1902.94,-38.38"/>
<polygon fill="#63b8ff" stroke="#63b8ff" points="1832.9,-76.64 1826.16,-84.81 1836.52,-82.63 1832.9,-76.64"/>
</a>
</g>
</g>
<!-- Node30&#45;&gt;Node8 -->
<g id="edge40_Node000030_Node000008" class="edge">
<title>Node30&#45;&gt;Node8</title>
<g id="a_edge40_Node000030_Node000008"><a xlink:title=" ">
<path fill="none" stroke="#63b8ff" d="M1909.58,-82.82C1905.14,-81.77 1900.7,-80.81 1896.38,-80 1722.24,-47.36 1673.51,-76.64 1499.38,-44 1491.47,-42.52 1483.18,-40.55 1475.15,-38.41"/>
<polygon fill="#63b8ff" stroke="#63b8ff" points="1908.58,-86.17 1919.13,-85.22 1910.29,-79.38 1908.58,-86.17"/>
</a>
</g>
</g>
<!-- Node31 -->
<g id="Node000031" class="node">
<title>Node31</title>
<g id="a_Node000031"><a xlink:href="RollCommand_8cpp.html" target="_top" xlink:title=" ">
<polygon fill="white" stroke="#666666" points="2162.62,-38 2034.12,-38 2034.12,-6 2162.62,-6 2162.62,-38"/>
<text text-anchor="start" x="2042.12" y="-24.5" font-family="Helvetica,sans-Serif" font-size="10.00">src/bot_library/commands</text>
<text text-anchor="middle" x="2098.38" y="-12.5" font-family="Helvetica,sans-Serif" font-size="10.00">/roll/RollCommand.cpp</text>
</a>
</g>
</g>
<!-- Node30&#45;&gt;Node31 -->
<g id="edge41_Node000030_Node000031" class="edge">
<title>Node30&#45;&gt;Node31</title>
<g id="a_edge41_Node000030_Node000031"><a xlink:title=" ">
<path fill="none" stroke="#63b8ff" d="M2004.66,-79.67C2026.27,-66.6 2053.43,-50.17 2072.94,-38.38"/>
<polygon fill="#63b8ff" stroke="#63b8ff" points="2002.9,-76.64 1996.16,-84.81 2006.52,-82.63 2002.9,-76.64"/>
</a>
</g>
</g>
<!-- Node32&#45;&gt;Node8 -->
<g id="edge43_Node000032_Node000008" class="edge">
<title>Node32&#45;&gt;Node8</title>
<g id="a_edge43_Node000032_Node000008"><a xlink:title=" ">
<path fill="none" stroke="#63b8ff" d="M2060.92,-83.21C2054.67,-82 2048.43,-80.9 2042.38,-80 1803.15,-44.4 1737.62,-85.67 1499.38,-44 1491.32,-42.59 1482.89,-40.63 1474.73,-38.47"/>
<polygon fill="#63b8ff" stroke="#63b8ff" points="2060.14,-86.63 2070.64,-85.21 2061.55,-79.77 2060.14,-86.63"/>
</a>
</g>
</g>
<!-- Node33 -->
<g id="Node000033" class="node">
<title>Node33</title>
<g id="a_Node000033"><a xlink:href="ServerDetails_8cpp.html" target="_top" xlink:title=" ">
<polygon fill="white" stroke="#666666" points="2341.75,-38 2181,-38 2181,-6 2341.75,-6 2341.75,-38"/>
<text text-anchor="start" x="2189" y="-24.5" font-family="Helvetica,sans-Serif" font-size="10.00">src/bot_library/commands</text>
<text text-anchor="middle" x="2261.38" y="-12.5" font-family="Helvetica,sans-Serif" font-size="10.00">/server_details/ServerDetails.cpp</text>
</a>
</g>
</g>
<!-- Node32&#45;&gt;Node33 -->
<g id="edge44_Node000032_Node000033" class="edge">
<title>Node32&#45;&gt;Node33</title>
<g id="a_edge44_Node000032_Node000033"><a xlink:title=" ">
<path fill="none" stroke="#63b8ff" d="M2167.66,-79.67C2189.27,-66.6 2216.43,-50.17 2235.94,-38.38"/>
<polygon fill="#63b8ff" stroke="#63b8ff" points="2165.9,-76.64 2159.16,-84.81 2169.52,-82.63 2165.9,-76.64"/>
</a>
</g>
</g>
<!-- Node34&#45;&gt;Node8 -->
<g id="edge46_Node000034_Node000008" class="edge">
<title>Node34&#45;&gt;Node8</title>
<g id="a_edge46_Node000034_Node000008"><a xlink:title=" ">
<path fill="none" stroke="#63b8ff" d="M2245.03,-83.54C2237.06,-82.18 2229.08,-80.96 2221.38,-80 1902.58,-40.09 1816.3,-96.76 1499.38,-44 1491.18,-42.64 1482.6,-40.67 1474.31,-38.48"/>
<polygon fill="#63b8ff" stroke="#63b8ff" points="2244.29,-86.96 2254.75,-85.28 2245.53,-80.07 2244.29,-86.96"/>
</a>
</g>
</g>
<!-- Node35 -->
<g id="Node000035" class="node">
<title>Node35</title>
<g id="a_Node000035"><a xlink:href="SetChannelCommand_8cpp.html" target="_top" xlink:title=" ">
<polygon fill="white" stroke="#666666" points="2549,-38 2359.75,-38 2359.75,-6 2549,-6 2549,-38"/>
<text text-anchor="start" x="2367.75" y="-24.5" font-family="Helvetica,sans-Serif" font-size="10.00">src/bot_library/commands</text>
<text text-anchor="middle" x="2454.38" y="-12.5" font-family="Helvetica,sans-Serif" font-size="10.00">/set_channel/SetChannelCommand.cpp</text>
</a>
</g>
</g>
<!-- Node34&#45;&gt;Node35 -->
<g id="edge47_Node000034_Node000035" class="edge">
<title>Node34&#45;&gt;Node35</title>
<g id="a_edge47_Node000034_Node000035"><a xlink:title=" ">
<path fill="none" stroke="#63b8ff" d="M2360.66,-79.67C2382.27,-66.6 2409.43,-50.17 2428.94,-38.38"/>
<polygon fill="#63b8ff" stroke="#63b8ff" points="2358.9,-76.64 2352.16,-84.81 2362.52,-82.63 2358.9,-76.64"/>
</a>
</g>
</g>
<!-- Node36&#45;&gt;Node8 -->
<g id="edge49_Node000036_Node000008" class="edge">
<title>Node36&#45;&gt;Node8</title>
<g id="a_edge49_Node000036_Node000008"><a xlink:title=" ">
<path fill="none" stroke="#63b8ff" d="M2444.28,-82.89C2439.27,-81.77 2434.25,-80.78 2429.38,-80 2020.86,-15.08 1907.77,-109.66 1499.38,-44 1491.04,-42.66 1482.31,-40.68 1473.91,-38.46"/>
<polygon fill="#63b8ff" stroke="#63b8ff" points="2443.17,-86.22 2453.71,-85.19 2444.82,-79.42 2443.17,-86.22"/>
</a>
</g>
</g>
<!-- Node37 -->
<g id="Node000037" class="node">
<title>Node37</title>
<g id="a_Node000037"><a xlink:href="SetStatus_8cpp.html" target="_top" xlink:title=" ">
<polygon fill="white" stroke="#666666" points="2697.38,-38 2567.38,-38 2567.38,-6 2697.38,-6 2697.38,-38"/>
<text text-anchor="start" x="2575.38" y="-24.5" font-family="Helvetica,sans-Serif" font-size="10.00">src/bot_library/commands</text>
<text text-anchor="middle" x="2632.38" y="-12.5" font-family="Helvetica,sans-Serif" font-size="10.00">/set_status/SetStatus.cpp</text>
</a>
</g>
</g>
<!-- Node36&#45;&gt;Node37 -->
<g id="edge50_Node000036_Node000037" class="edge">
<title>Node36&#45;&gt;Node37</title>
<g id="a_edge50_Node000036_Node000037"><a xlink:title=" ">
<path fill="none" stroke="#63b8ff" d="M2538.66,-79.67C2560.27,-66.6 2587.43,-50.17 2606.94,-38.38"/>
<polygon fill="#63b8ff" stroke="#63b8ff" points="2536.9,-76.64 2530.16,-84.81 2540.52,-82.63 2536.9,-76.64"/>
</a>
</g>
</g>
</g>
</svg>
