<?xml version="1.0" encoding="UTF-8" standalone="no"?>
<!DOCTYPE svg PUBLIC "-//W3C//DTD SVG 1.1//EN"
 "http://www.w3.org/Graphics/SVG/1.1/DTD/svg11.dtd">
<!-- Generated by graphviz version 9.0.0 (0)
 -->
<!-- Title: src/bot_library/bot/include/Bot.hpp Pages: 1 -->
<svg width="1137pt" height="152pt"
 viewBox="0.00 0.00 1137.38 152.00" xmlns="http://www.w3.org/2000/svg" xmlns:xlink="http://www.w3.org/1999/xlink">
<g id="graph0" class="graph" transform="scale(1 1) rotate(0) translate(4 148)">
<title>src/bot_library/bot/include/Bot.hpp</title>
<!-- Node1 -->
<g id="Node000001" class="node">
<title>Node1</title>
<g id="a_Node000001"><a xlink:title=" ">
<polygon fill="#999999" stroke="#666666" points="490.38,-144 396.38,-144 396.38,-112 490.38,-112 490.38,-144"/>
<text text-anchor="start" x="404.38" y="-130.5" font-family="Helvetica,sans-Serif" font-size="10.00">src/bot_library/bot</text>
<text text-anchor="middle" x="443.38" y="-118.5" font-family="Helvetica,sans-Serif" font-size="10.00">/include/Bot.hpp</text>
</a>
</g>
</g>
<!-- Node2 -->
<g id="Node000002" class="node">
<title>Node2</title>
<g id="a_Node000002"><a xlink:title=" ">
<polygon fill="#e0e0e0" stroke="#999999" points="34.75,-76 0,-76 0,-56 34.75,-56 34.75,-76"/>
<text text-anchor="middle" x="17.38" y="-62.5" font-family="Helvetica,sans-Serif" font-size="10.00">map</text>
</a>
</g>
</g>
<!-- Node1&#45;&gt;Node2 -->
<g id="edge1_Node000001_Node000002" class="edge">
<title>Node1&#45;&gt;Node2</title>
<g id="a_edge1_Node000001_Node000002"><a xlink:title=" ">
<path fill="none" stroke="#63b8ff" d="M396.01,-124.14C322.63,-119.01 177.04,-106.1 46.14,-76.25"/>
<polygon fill="#63b8ff" stroke="#63b8ff" points="47.14,-72.89 36.61,-74.03 45.56,-79.71 47.14,-72.89"/>
</a>
</g>
</g>
<!-- Node3 -->
<g id="Node000003" class="node">
<title>Node3</title>
<g id="a_Node000003"><a xlink:title=" ">
<polygon fill="#e0e0e0" stroke="#999999" points="104,-76 52.75,-76 52.75,-56 104,-56 104,-76"/>
<text text-anchor="middle" x="78.38" y="-62.5" font-family="Helvetica,sans-Serif" font-size="10.00">memory</text>
</a>
</g>
</g>
<!-- Node1&#45;&gt;Node3 -->
<g id="edge2_Node000001_Node000003" class="edge">
<title>Node1&#45;&gt;Node3</title>
<g id="a_edge2_Node000001_Node000003"><a xlink:title=" ">
<path fill="none" stroke="#63b8ff" d="M396.12,-121.18C334.02,-113.21 221.36,-97.63 115.51,-76.26"/>
<polygon fill="#63b8ff" stroke="#63b8ff" points="116.28,-72.85 105.79,-74.27 114.88,-79.7 116.28,-72.85"/>
</a>
</g>
</g>
<!-- Node4 -->
<g id="Node000004" class="node">
<title>Node4</title>
<g id="a_Node000004"><a xlink:title=" ">
<polygon fill="#e0e0e0" stroke="#999999" points="162.38,-76 122.38,-76 122.38,-56 162.38,-56 162.38,-76"/>
<text text-anchor="middle" x="142.38" y="-62.5" font-family="Helvetica,sans-Serif" font-size="10.00">string</text>
</a>
</g>
</g>
<!-- Node1&#45;&gt;Node4 -->
<g id="edge3_Node000001_Node000004" class="edge">
<title>Node1&#45;&gt;Node4</title>
<g id="a_edge3_Node000001_Node000004"><a xlink:title=" ">
<path fill="none" stroke="#63b8ff" d="M396.33,-119.88C344.11,-111.59 257.17,-96.69 173.55,-76.31"/>
<polygon fill="#63b8ff" stroke="#63b8ff" points="174.59,-72.96 164.04,-73.96 172.91,-79.76 174.59,-72.96"/>
</a>
</g>
</g>
<!-- Node5 -->
<g id="Node000005" class="node">
<title>Node5</title>
<g id="a_Node000005"><a xlink:title=" ">
<polygon fill="#e0e0e0" stroke="#999999" points="223.88,-76 180.88,-76 180.88,-56 223.88,-56 223.88,-76"/>
<text text-anchor="middle" x="202.38" y="-62.5" font-family="Helvetica,sans-Serif" font-size="10.00">vector</text>
</a>
</g>
</g>
<!-- Node1&#45;&gt;Node5 -->
<g id="edge4_Node000001_Node000005" class="edge">
<title>Node1&#45;&gt;Node5</title>
<g id="a_edge4_Node000001_Node000005"><a xlink:title=" ">
<path fill="none" stroke="#63b8ff" d="M396.1,-116.15C355.86,-106.77 296.25,-92.55 235.34,-76.44"/>
<polygon fill="#63b8ff" stroke="#63b8ff" points="236.38,-73.09 225.82,-73.9 234.58,-79.86 236.38,-73.09"/>
</a>
</g>
</g>
<!-- Node6 -->
<g id="Node000006" class="node">
<title>Node6</title>
<g id="a_Node000006"><a xlink:href="IButtonCommand_8hpp.html" target="_top" xlink:title=" ">
<polygon fill="white" stroke="#666666" points="717,-76 605.75,-76 605.75,-56 717,-56 717,-76"/>
<text text-anchor="middle" x="661.38" y="-62.5" font-family="Helvetica,sans-Serif" font-size="10.00">IButtonCommand.hpp</text>
</a>
</g>
</g>
<!-- Node1&#45;&gt;Node6 -->
<g id="edge5_Node000001_Node000006" class="edge">
<title>Node1&#45;&gt;Node6</title>
<g id="a_edge5_Node000001_Node000006"><a xlink:title=" ">
<path fill="none" stroke="#63b8ff" d="M490.68,-113.98C527.9,-103.74 579.44,-89.55 616.12,-79.45"/>
<polygon fill="#63b8ff" stroke="#63b8ff" points="616.83,-82.89 625.54,-76.86 614.97,-76.14 616.83,-82.89"/>
</a>
</g>
</g>
<!-- Node9 -->
<g id="Node000009" class="node">
<title>Node9</title>
<g id="a_Node000009"><a xlink:href="IFormCommand_8hpp.html" target="_top" xlink:title=" ">
<polygon fill="white" stroke="#666666" points="840,-76 734.75,-76 734.75,-56 840,-56 840,-76"/>
<text text-anchor="middle" x="787.38" y="-62.5" font-family="Helvetica,sans-Serif" font-size="10.00">IFormCommand.hpp</text>
</a>
</g>
</g>
<!-- Node1&#45;&gt;Node9 -->
<g id="edge8_Node000001_Node000009" class="edge">
<title>Node1&#45;&gt;Node9</title>
<g id="a_edge8_Node000001_Node000009"><a xlink:title=" ">
<path fill="none" stroke="#63b8ff" d="M490.85,-118.72C551.22,-108.19 655.71,-89.97 723.16,-78.2"/>
<polygon fill="#63b8ff" stroke="#63b8ff" points="723.73,-81.65 732.98,-76.49 722.53,-74.76 723.73,-81.65"/>
</a>
</g>
</g>
<!-- Node10 -->
<g id="Node000010" class="node">
<title>Node10</title>
<g id="a_Node000010"><a xlink:href="IGlobalSlashCommand_8hpp.html" target="_top" xlink:title=" ">
<polygon fill="white" stroke="#666666" points="993,-76 857.75,-76 857.75,-56 993,-56 993,-76"/>
<text text-anchor="middle" x="925.38" y="-62.5" font-family="Helvetica,sans-Serif" font-size="10.00">IGlobalSlashCommand.hpp</text>
</a>
</g>
</g>
<!-- Node1&#45;&gt;Node10 -->
<g id="edge11_Node000001_Node000010" class="edge">
<title>Node1&#45;&gt;Node10</title>
<g id="a_edge11_Node000001_Node000010"><a xlink:title=" ">
<path fill="none" stroke="#63b8ff" d="M490.47,-121.14C573.04,-110.86 744.75,-89.48 845.96,-76.89"/>
<polygon fill="#63b8ff" stroke="#63b8ff" points="846.35,-80.36 855.84,-75.66 845.48,-73.42 846.35,-80.36"/>
</a>
</g>
</g>
<!-- Node11 -->
<g id="Node000011" class="node">
<title>Node11</title>
<g id="a_Node000011"><a xlink:href="IMemberCommand_8hpp.html" target="_top" xlink:title=" ">
<polygon fill="white" stroke="#666666" points="1129.38,-76 1011.38,-76 1011.38,-56 1129.38,-56 1129.38,-76"/>
<text text-anchor="middle" x="1070.38" y="-62.5" font-family="Helvetica,sans-Serif" font-size="10.00">IMemberCommand.hpp</text>
</a>
</g>
</g>
<!-- Node1&#45;&gt;Node11 -->
<g id="edge14_Node000001_Node000011" class="edge">
<title>Node1&#45;&gt;Node11</title>
<g id="a_edge14_Node000001_Node000011"><a xlink:title=" ">
<path fill="none" stroke="#63b8ff" d="M490.56,-123.35C585.04,-115.89 804.47,-97.86 999.71,-76.26"/>
<polygon fill="#63b8ff" stroke="#63b8ff" points="1000,-79.75 1009.55,-75.16 999.22,-72.79 1000,-79.75"/>
</a>
</g>
</g>
<!-- Node12 -->
<g id="Node000012" class="node">
<title>Node12</title>
<g id="a_Node000012"><a xlink:href="IMessageCommand_8hpp.html" target="_top" xlink:title=" ">
<polygon fill="white" stroke="#666666" points="364.62,-76 242.12,-76 242.12,-56 364.62,-56 364.62,-76"/>
<text text-anchor="middle" x="303.38" y="-62.5" font-family="Helvetica,sans-Serif" font-size="10.00">IMessageCommand.hpp</text>
</a>
</g>
</g>
<!-- Node1&#45;&gt;Node12 -->
<g id="edge17_Node000001_Node000012" class="edge">
<title>Node1&#45;&gt;Node12</title>
<g id="a_edge17_Node000001_Node000012"><a xlink:title=" ">
<path fill="none" stroke="#63b8ff" d="M407.32,-111.55C385.24,-102.09 357.22,-90.08 335.84,-80.91"/>
<polygon fill="#63b8ff" stroke="#63b8ff" points="337.29,-77.73 326.72,-77 334.53,-84.16 337.29,-77.73"/>
</a>
</g>
</g>
<!-- Node13 -->
<g id="Node000013" class="node">
<title>Node13</title>
<g id="a_Node000013"><a xlink:href="IReactionCommand_8hpp.html" target="_top" xlink:title=" ">
<polygon fill="white" stroke="#666666" points="504.25,-76 382.5,-76 382.5,-56 504.25,-56 504.25,-76"/>
<text text-anchor="middle" x="443.38" y="-62.5" font-family="Helvetica,sans-Serif" font-size="10.00">IReactionCommand.hpp</text>
</a>
</g>
</g>
<!-- Node1&#45;&gt;Node13 -->
<g id="edge20_Node000001_Node000013" class="edge">
<title>Node1&#45;&gt;Node13</title>
<g id="a_edge20_Node000001_Node000013"><a xlink:title=" ">
<path fill="none" stroke="#63b8ff" d="M443.38,-111.55C443.38,-104.34 443.38,-95.66 443.38,-87.88"/>
<polygon fill="#63b8ff" stroke="#63b8ff" points="446.88,-87.92 443.38,-77.92 439.88,-87.92 446.88,-87.92"/>
</a>
</g>
</g>
<!-- Node14 -->
<g id="Node000014" class="node">
<title>Node14</title>
<g id="a_Node000014"><a xlink:href="IReady_8hpp.html" target="_top" xlink:title=" ">
<polygon fill="white" stroke="#666666" points="588.12,-76 522.62,-76 522.62,-56 588.12,-56 588.12,-76"/>
<text text-anchor="middle" x="555.38" y="-62.5" font-family="Helvetica,sans-Serif" font-size="10.00">IReady.hpp</text>
</a>
</g>
</g>
<!-- Node1&#45;&gt;Node14 -->
<g id="edge23_Node000001_Node000014" class="edge">
<title>Node1&#45;&gt;Node14</title>
<g id="a_edge23_Node000001_Node000014"><a xlink:title=" ">
<path fill="none" stroke="#63b8ff" d="M472.22,-111.55C489.39,-102.35 511.07,-90.74 527.98,-81.68"/>
<polygon fill="#63b8ff" stroke="#63b8ff" points="529.32,-84.93 536.48,-77.12 526.01,-78.76 529.32,-84.93"/>
</a>
</g>
</g>
<!-- Node7 -->
<g id="Node000007" class="node">
<title>Node7</title>
<g id="a_Node000007"><a xlink:title=" ">
<polygon fill="#e0e0e0" stroke="#999999" points="648.5,-20 576.25,-20 576.25,0 648.5,0 648.5,-20"/>
<text text-anchor="middle" x="612.38" y="-6.5" font-family="Helvetica,sans-Serif" font-size="10.00">dpp/cluster.h</text>
</a>
</g>
</g>
<!-- Node6&#45;&gt;Node7 -->
<g id="edge6_Node000006_Node000007" class="edge">
<title>Node6&#45;&gt;Node7</title>
<g id="a_edge6_Node000006_Node000007"><a xlink:title=" ">
<path fill="none" stroke="#63b8ff" d="M652.84,-55.59C646.09,-48.16 636.49,-37.58 628.33,-28.58"/>
<polygon fill="#63b8ff" stroke="#63b8ff" points="631.14,-26.47 621.83,-21.42 625.96,-31.18 631.14,-26.47"/>
</a>
</g>
</g>
<!-- Node8 -->
<g id="Node000008" class="node">
<title>Node8</title>
<g id="a_Node000008"><a xlink:title=" ">
<polygon fill="#e0e0e0" stroke="#999999" points="754.38,-20 666.38,-20 666.38,0 754.38,0 754.38,-20"/>
<text text-anchor="middle" x="710.38" y="-6.5" font-family="Helvetica,sans-Serif" font-size="10.00">dpp/dispatcher.h</text>
</a>
</g>
</g>
<!-- Node6&#45;&gt;Node8 -->
<g id="edge7_Node000006_Node000008" class="edge">
<title>Node6&#45;&gt;Node8</title>
<g id="a_edge7_Node000006_Node000008"><a xlink:title=" ">
<path fill="none" stroke="#63b8ff" d="M669.91,-55.59C676.66,-48.16 686.26,-37.58 694.42,-28.58"/>
<polygon fill="#63b8ff" stroke="#63b8ff" points="696.79,-31.18 700.92,-21.42 691.61,-26.47 696.79,-31.18"/>
</a>
</g>
</g>
<!-- Node9&#45;&gt;Node7 -->
<g id="edge9_Node000009_Node000007" class="edge">
<title>Node9&#45;&gt;Node7</title>
<g id="a_edge9_Node000009_Node000007"><a xlink:title=" ">
<path fill="none" stroke="#63b8ff" d="M756.89,-55.59C728.34,-46.78 685.43,-33.54 653.78,-23.78"/>
<polygon fill="#63b8ff" stroke="#63b8ff" points="655.13,-20.53 644.54,-20.93 653.07,-27.22 655.13,-20.53"/>
</a>
</g>
</g>
<!-- Node9&#45;&gt;Node8 -->
<g id="edge10_Node000009_Node000008" class="edge">
<title>Node9&#45;&gt;Node8</title>
<g id="a_edge10_Node000009_Node000008"><a xlink:title=" ">
<path fill="none" stroke="#63b8ff" d="M773.96,-55.59C762.77,-47.74 746.56,-36.38 733.32,-27.09"/>
<polygon fill="#63b8ff" stroke="#63b8ff" points="735.33,-24.22 725.13,-21.35 731.31,-29.96 735.33,-24.22"/>
</a>
</g>
</g>
<!-- Node10&#45;&gt;Node7 -->
<g id="edge12_Node000010_Node000007" class="edge">
<title>Node10&#45;&gt;Node7</title>
<g id="a_edge12_Node000010_Node000007"><a xlink:title=" ">
<path fill="none" stroke="#63b8ff" d="M865.67,-55.52C813.85,-47.17 736.5,-34.41 659.99,-20.44"/>
<polygon fill="#63b8ff" stroke="#63b8ff" points="660.66,-17 650.19,-18.64 659.4,-23.89 660.66,-17"/>
</a>
</g>
</g>
<!-- Node10&#45;&gt;Node8 -->
<g id="edge13_Node000010_Node000008" class="edge">
<title>Node10&#45;&gt;Node8</title>
<g id="a_edge13_Node000010_Node000008"><a xlink:title=" ">
<path fill="none" stroke="#63b8ff" d="M887.92,-55.59C852.23,-46.63 798.28,-33.08 759.22,-23.27"/>
<polygon fill="#63b8ff" stroke="#63b8ff" points="760.14,-19.89 749.59,-20.85 758.43,-26.68 760.14,-19.89"/>
</a>
</g>
</g>
<!-- Node11&#45;&gt;Node7 -->
<g id="edge15_Node000011_Node000007" class="edge">
<title>Node11&#45;&gt;Node7</title>
<g id="a_edge15_Node000011_Node000007"><a xlink:title=" ">
<path fill="none" stroke="#63b8ff" d="M1011.05,-57.05C1008.12,-56.69 1005.21,-56.34 1002.38,-56 852.87,-38.31 811.71,-42.91 659.8,-20.24"/>
<polygon fill="#63b8ff" stroke="#63b8ff" points="660.58,-16.82 650.17,-18.79 659.54,-23.74 660.58,-16.82"/>
</a>
</g>
</g>
<!-- Node11&#45;&gt;Node8 -->
<g id="edge16_Node000011_Node000008" class="edge">
<title>Node11&#45;&gt;Node8</title>
<g id="a_edge16_Node000011_Node000008"><a xlink:title=" ">
<path fill="none" stroke="#63b8ff" d="M1010.93,-56.08C942.87,-45.87 832.26,-29.28 765.89,-19.33"/>
<polygon fill="#63b8ff" stroke="#63b8ff" points="766.74,-15.92 756.33,-17.89 765.7,-22.84 766.74,-15.92"/>
</a>
</g>
</g>
<!-- Node12&#45;&gt;Node7 -->
<g id="edge18_Node000012_Node000007" class="edge">
<title>Node12&#45;&gt;Node7</title>
<g id="a_edge18_Node000012_Node000007"><a xlink:title=" ">
<path fill="none" stroke="#63b8ff" d="M357.55,-55.53C416.33,-45.26 509.25,-29.02 565.15,-19.25"/>
<polygon fill="#63b8ff" stroke="#63b8ff" points="565.42,-22.76 574.67,-17.59 564.21,-15.86 565.42,-22.76"/>
</a>
</g>
</g>
<!-- Node12&#45;&gt;Node8 -->
<g id="edge19_Node000012_Node000008" class="edge">
<title>Node12&#45;&gt;Node8</title>
<g id="a_edge19_Node000012_Node000008"><a xlink:title=" ">
<path fill="none" stroke="#63b8ff" d="M364.83,-57.09C367.72,-56.72 370.58,-56.36 373.38,-56 496.01,-40.34 529.63,-38.74 654.95,-20.31"/>
<polygon fill="#63b8ff" stroke="#63b8ff" points="655.27,-23.8 664.65,-18.87 654.25,-16.87 655.27,-23.8"/>
</a>
</g>
</g>
<!-- Node13&#45;&gt;Node7 -->
<g id="edge21_Node000013_Node000007" class="edge">
<title>Node13&#45;&gt;Node7</title>
<g id="a_edge21_Node000013_Node000007"><a xlink:title=" ">
<path fill="none" stroke="#63b8ff" d="M472.81,-55.59C500.27,-46.82 541.47,-33.66 571.99,-23.9"/>
<polygon fill="#63b8ff" stroke="#63b8ff" points="572.81,-27.32 581.27,-20.94 570.68,-20.65 572.81,-27.32"/>
</a>
</g>
</g>
<!-- Node13&#45;&gt;Node8 -->
<g id="edge22_Node000013_Node000008" class="edge">
<title>Node13&#45;&gt;Node8</title>
<g id="a_edge22_Node000013_Node000008"><a xlink:title=" ">
<path fill="none" stroke="#63b8ff" d="M490.19,-55.53C536.16,-46.24 606.28,-32.05 655,-22.2"/>
<polygon fill="#63b8ff" stroke="#63b8ff" points="655.69,-25.63 664.79,-20.22 654.3,-18.77 655.69,-25.63"/>
</a>
</g>
</g>
<!-- Node14&#45;&gt;Node7 -->
<g id="edge24_Node000014_Node000007" class="edge">
<title>Node14&#45;&gt;Node7</title>
<g id="a_edge24_Node000014_Node000007"><a xlink:title=" ">
<path fill="none" stroke="#63b8ff" d="M565.3,-55.59C573.31,-48.01 584.79,-37.13 594.41,-28.02"/>
<polygon fill="#63b8ff" stroke="#63b8ff" points="596.61,-30.76 601.46,-21.34 591.79,-25.68 596.61,-30.76"/>
</a>
</g>
</g>
<!-- Node14&#45;&gt;Node8 -->
<g id="edge25_Node000014_Node000008" class="edge">
<title>Node14&#45;&gt;Node8</title>
<g id="a_edge25_Node000014_Node000008"><a xlink:title=" ">
<path fill="none" stroke="#63b8ff" d="M582.37,-55.59C607.34,-46.9 644.68,-33.89 672.6,-24.16"/>
<polygon fill="#63b8ff" stroke="#63b8ff" points="673.44,-27.57 681.74,-20.98 671.14,-20.96 673.44,-27.57"/>
</a>
</g>
</g>
</g>
</svg>
