<?xml version="1.0" encoding="UTF-8" standalone="no"?>
<!DOCTYPE svg PUBLIC "-//W3C//DTD SVG 1.1//EN"
 "http://www.w3.org/Graphics/SVG/1.1/DTD/svg11.dtd">
<!-- Generated by graphviz version 10.0.1 (0)
 -->
<!-- Title: src/bot_library/bot/Bot.cpp Pages: 1 -->
<svg width="1524pt" height="320pt"
 viewBox="0.00 0.00 1524.28 320.00" xmlns="http://www.w3.org/2000/svg" xmlns:xlink="http://www.w3.org/1999/xlink">
<g id="graph0" class="graph" transform="scale(1 1) rotate(0) translate(4 316)">
<title>src/bot_library/bot/Bot.cpp</title>
<!-- Node1 -->
<g id="Node000001" class="node">
<title>Node1</title>
<g id="a_Node000001"><a xlink:title=" ">
<polygon fill="#999999" stroke="#666666" points="1313.78,-312 1219.78,-312 1219.78,-280 1313.78,-280 1313.78,-312"/>
<text text-anchor="start" x="1227.78" y="-298.5" font-family="Helvetica,sans-Serif" font-size="10.00">src/bot_library/bot</text>
<text text-anchor="middle" x="1266.78" y="-286.5" font-family="Helvetica,sans-Serif" font-size="10.00">/Bot.cpp</text>
</a>
</g>
</g>
<!-- Node2 -->
<g id="Node000002" class="node">
<title>Node2</title>
<g id="a_Node000002"><a xlink:href="Bot_8hpp.html" target="_top" xlink:title=" ">
<polygon fill="white" stroke="#666666" points="757.66,-244 707.91,-244 707.91,-224 757.66,-224 757.66,-244"/>
<text text-anchor="middle" x="732.78" y="-230.5" font-family="Helvetica,sans-Serif" font-size="10.00">Bot.hpp</text>
</a>
</g>
</g>
<!-- Node1&#45;&gt;Node2 -->
<g id="edge1_Node000001_Node000002" class="edge">
<title>Node1&#45;&gt;Node2</title>
<g id="a_edge1_Node000001_Node000002"><a xlink:title=" ">
<path fill="none" stroke="#63b8ff" d="M1219.39,-289.68C1114.26,-277.86 863.36,-249.67 769.26,-239.1"/>
<polygon fill="#63b8ff" stroke="#63b8ff" points="769.9,-235.65 759.58,-238.01 769.12,-242.61 769.9,-235.65"/>
</a>
</g>
</g>
<!-- Node14 -->
<g id="Node000014" class="node">
<title>Node14</title>
<g id="a_Node000014"><a xlink:title=" ">
<polygon fill="#e0e0e0" stroke="#999999" points="411.91,-76 339.66,-76 339.66,-56 411.91,-56 411.91,-76"/>
<text text-anchor="middle" x="375.78" y="-62.5" font-family="Helvetica,sans-Serif" font-size="10.00">dpp/cluster.h</text>
</a>
</g>
</g>
<!-- Node1&#45;&gt;Node14 -->
<g id="edge48_Node000001_Node000014" class="edge">
<title>Node1&#45;&gt;Node14</title>
<g id="a_edge48_Node000001_Node000014"><a xlink:title=" ">
<path fill="none" stroke="#63b8ff" d="M1219.54,-292.69C999.53,-281.42 82.74,-228.86 4.78,-132 -36.66,-80.52 218.64,-69.81 327.91,-67.58"/>
<polygon fill="#63b8ff" stroke="#63b8ff" points="327.81,-71.09 337.74,-67.4 327.68,-64.09 327.81,-71.09"/>
</a>
</g>
</g>
<!-- Node15 -->
<g id="Node000015" class="node">
<title>Node15</title>
<g id="a_Node000015"><a xlink:title=" ">
<polygon fill="#e0e0e0" stroke="#999999" points="535.78,-76 447.78,-76 447.78,-56 535.78,-56 535.78,-76"/>
<text text-anchor="middle" x="491.78" y="-62.5" font-family="Helvetica,sans-Serif" font-size="10.00">dpp/dispatcher.h</text>
</a>
</g>
</g>
<!-- Node1&#45;&gt;Node15 -->
<g id="edge49_Node000001_Node000015" class="edge">
<title>Node1&#45;&gt;Node15</title>
<g id="a_edge49_Node000001_Node000015"><a xlink:title=" ">
<path fill="none" stroke="#63b8ff" d="M1266.27,-279.7C1264.6,-253.62 1257.64,-200.24 1228.78,-168 1207.53,-144.26 1127.75,-119.5 1096.78,-112 993.32,-86.93 676.01,-73.39 547.1,-68.81"/>
<polygon fill="#63b8ff" stroke="#63b8ff" points="547.58,-65.32 537.46,-68.47 547.33,-72.32 547.58,-65.32"/>
</a>
</g>
</g>
<!-- Node18 -->
<g id="Node000018" class="node">
<title>Node18</title>
<g id="a_Node000018"><a xlink:title=" ">
<polygon fill="#e0e0e0" stroke="#999999" points="1371.16,-76 1288.41,-76 1288.41,-56 1371.16,-56 1371.16,-76"/>
<text text-anchor="middle" x="1329.78" y="-62.5" font-family="Helvetica,sans-Serif" font-size="10.00">appcommand.h</text>
</a>
</g>
</g>
<!-- Node1&#45;&gt;Node18 -->
<g id="edge47_Node000001_Node000018" class="edge">
<title>Node1&#45;&gt;Node18</title>
<g id="a_edge47_Node000001_Node000018"><a xlink:title=" ">
<path fill="none" stroke="#63b8ff" d="M1271.01,-279.69C1282.06,-239.71 1311.76,-132.21 1324.19,-87.22"/>
<polygon fill="#63b8ff" stroke="#63b8ff" points="1327.52,-88.33 1326.81,-77.76 1320.77,-86.47 1327.52,-88.33"/>
</a>
</g>
</g>
<!-- Node24 -->
<g id="Node000024" class="node">
<title>Node24</title>
<g id="a_Node000024"><a xlink:title=" ">
<polygon fill="#e0e0e0" stroke="#999999" points="1219.41,-188 1168.16,-188 1168.16,-168 1219.41,-168 1219.41,-188"/>
<text text-anchor="middle" x="1193.78" y="-174.5" font-family="Helvetica,sans-Serif" font-size="10.00">memory</text>
</a>
</g>
</g>
<!-- Node1&#45;&gt;Node24 -->
<g id="edge53_Node000001_Node000024" class="edge">
<title>Node1&#45;&gt;Node24</title>
<g id="a_edge53_Node000001_Node000024"><a xlink:title=" ">
<path fill="none" stroke="#63b8ff" d="M1256.87,-279.88C1250.27,-269.76 1241.44,-256.13 1233.78,-244 1224.06,-228.59 1213.24,-210.98 1205.31,-197.98"/>
<polygon fill="#63b8ff" stroke="#63b8ff" points="1208.39,-196.31 1200.2,-189.59 1202.41,-199.95 1208.39,-196.31"/>
</a>
</g>
</g>
<!-- Node25 -->
<g id="Node000025" class="node">
<title>Node25</title>
<g id="a_Node000025"><a xlink:title=" ">
<polygon fill="#e0e0e0" stroke="#999999" points="1377.78,-244 1313.78,-244 1313.78,-224 1377.78,-224 1377.78,-244"/>
<text text-anchor="middle" x="1345.78" y="-230.5" font-family="Helvetica,sans-Serif" font-size="10.00">dpp/once.h</text>
</a>
</g>
</g>
<!-- Node1&#45;&gt;Node25 -->
<g id="edge50_Node000001_Node000025" class="edge">
<title>Node1&#45;&gt;Node25</title>
<g id="a_edge50_Node000001_Node000025"><a xlink:title=" ">
<path fill="none" stroke="#63b8ff" d="M1287.12,-279.55C1298.55,-270.87 1312.81,-260.04 1324.4,-251.24"/>
<polygon fill="#63b8ff" stroke="#63b8ff" points="1326.34,-254.16 1332.19,-245.32 1322.11,-248.58 1326.34,-254.16"/>
</a>
</g>
</g>
<!-- Node26 -->
<g id="Node000026" class="node">
<title>Node26</title>
<g id="a_Node000026"><a xlink:title=" ">
<polygon fill="#e0e0e0" stroke="#999999" points="1449.53,-244 1396.03,-244 1396.03,-224 1449.53,-224 1449.53,-244"/>
<text text-anchor="middle" x="1422.78" y="-230.5" font-family="Helvetica,sans-Serif" font-size="10.00">intents.h</text>
</a>
</g>
</g>
<!-- Node1&#45;&gt;Node26 -->
<g id="edge51_Node000001_Node000026" class="edge">
<title>Node1&#45;&gt;Node26</title>
<g id="a_edge51_Node000001_Node000026"><a xlink:title=" ">
<path fill="none" stroke="#63b8ff" d="M1306.95,-279.55C1331.89,-269.96 1363.64,-257.75 1387.59,-248.54"/>
<polygon fill="#63b8ff" stroke="#63b8ff" points="1388.83,-251.81 1396.91,-244.95 1386.32,-245.27 1388.83,-251.81"/>
</a>
</g>
</g>
<!-- Node27 -->
<g id="Node000027" class="node">
<title>Node27</title>
<g id="a_Node000027"><a xlink:title=" ">
<polygon fill="#e0e0e0" stroke="#999999" points="1516.28,-244 1467.28,-244 1467.28,-224 1516.28,-224 1516.28,-244"/>
<text text-anchor="middle" x="1491.78" y="-230.5" font-family="Helvetica,sans-Serif" font-size="10.00">fstream</text>
</a>
</g>
</g>
<!-- Node1&#45;&gt;Node27 -->
<g id="edge52_Node000001_Node000027" class="edge">
<title>Node1&#45;&gt;Node27</title>
<g id="a_edge52_Node000001_Node000027"><a xlink:title=" ">
<path fill="none" stroke="#63b8ff" d="M1314.15,-282.51C1350.51,-272.9 1402.28,-259.18 1455.83,-244.78"/>
<polygon fill="#63b8ff" stroke="#63b8ff" points="1456.71,-248.17 1465.46,-242.19 1454.89,-241.41 1456.71,-248.17"/>
</a>
</g>
</g>
<!-- Node3 -->
<g id="Node000003" class="node">
<title>Node3</title>
<g id="a_Node000003"><a xlink:href="Core_8hpp.html" target="_top" xlink:title=" ">
<polygon fill="white" stroke="#666666" points="823.66,-188 767.91,-188 767.91,-168 823.66,-168 823.66,-188"/>
<text text-anchor="middle" x="795.78" y="-174.5" font-family="Helvetica,sans-Serif" font-size="10.00">Core.hpp</text>
</a>
</g>
</g>
<!-- Node2&#45;&gt;Node3 -->
<g id="edge2_Node000002_Node000003" class="edge">
<title>Node2&#45;&gt;Node3</title>
<g id="a_edge2_Node000002_Node000003"><a xlink:title=" ">
<path fill="none" stroke="#63b8ff" d="M743.75,-223.59C752.7,-215.93 765.55,-204.91 776.24,-195.75"/>
<polygon fill="#63b8ff" stroke="#63b8ff" points="778.47,-198.45 783.78,-189.28 773.91,-193.13 778.47,-198.45"/>
</a>
</g>
</g>
<!-- Node9 -->
<g id="Node000009" class="node">
<title>Node9</title>
<g id="a_Node000009"><a xlink:title=" ">
<polygon fill="#e0e0e0" stroke="#999999" points="1428.78,-76 1388.78,-76 1388.78,-56 1428.78,-56 1428.78,-76"/>
<text text-anchor="middle" x="1408.78" y="-62.5" font-family="Helvetica,sans-Serif" font-size="10.00">string</text>
</a>
</g>
</g>
<!-- Node2&#45;&gt;Node9 -->
<g id="edge45_Node000002_Node000009" class="edge">
<title>Node2&#45;&gt;Node9</title>
<g id="a_edge45_Node000002_Node000009"><a xlink:title=" ">
<path fill="none" stroke="#63b8ff" d="M757.84,-229.5C808.41,-222.37 926.27,-205.33 1024.78,-188 1087.92,-176.89 1248.33,-155.99 1307.78,-132 1338.05,-119.78 1369.07,-98.2 1388.6,-83.28"/>
<polygon fill="#63b8ff" stroke="#63b8ff" points="1390.54,-86.2 1396.27,-77.29 1386.23,-80.69 1390.54,-86.2"/>
</a>
</g>
</g>
<!-- Node11 -->
<g id="Node000011" class="node">
<title>Node11</title>
<g id="a_Node000011"><a xlink:title=" ">
<polygon fill="#e0e0e0" stroke="#999999" points="975.28,-76 932.28,-76 932.28,-56 975.28,-56 975.28,-76"/>
<text text-anchor="middle" x="953.78" y="-62.5" font-family="Helvetica,sans-Serif" font-size="10.00">vector</text>
</a>
</g>
</g>
<!-- Node2&#45;&gt;Node11 -->
<g id="edge46_Node000002_Node000011" class="edge">
<title>Node2&#45;&gt;Node11</title>
<g id="a_edge46_Node000002_Node000011"><a xlink:title=" ">
<path fill="none" stroke="#63b8ff" d="M758.15,-229.91C833.74,-220.13 1054.81,-187.21 1096.78,-132 1102.16,-124.92 1102.04,-119.17 1096.78,-112 1095.93,-110.84 1028.41,-89.93 986.46,-77.03"/>
<polygon fill="#63b8ff" stroke="#63b8ff" points="987.67,-73.74 977.09,-74.14 985.62,-80.43 987.67,-73.74"/>
</a>
</g>
</g>
<!-- Node13 -->
<g id="Node000013" class="node">
<title>Node13</title>
<g id="a_Node000013"><a xlink:href="IButtonCommand_8hpp.html" target="_top" xlink:title=" ">
<polygon fill="white" stroke="#666666" points="489.41,-132 378.16,-132 378.16,-112 489.41,-112 489.41,-132"/>
<text text-anchor="middle" x="433.78" y="-118.5" font-family="Helvetica,sans-Serif" font-size="10.00">IButtonCommand.hpp</text>
</a>
</g>
</g>
<!-- Node2&#45;&gt;Node13 -->
<g id="edge34_Node000002_Node000013" class="edge">
<title>Node2&#45;&gt;Node13</title>
<g id="a_edge34_Node000002_Node000013"><a xlink:title=" ">
<path fill="none" stroke="#63b8ff" d="M707.55,-223.72C654.53,-204.21 531.41,-158.92 469.99,-136.32"/>
<polygon fill="#63b8ff" stroke="#63b8ff" points="471.28,-133.07 460.69,-132.9 468.86,-139.64 471.28,-133.07"/>
</a>
</g>
</g>
<!-- Node16 -->
<g id="Node000016" class="node">
<title>Node16</title>
<g id="a_Node000016"><a xlink:href="IFormCommand_8hpp.html" target="_top" xlink:title=" ">
<polygon fill="white" stroke="#666666" points="612.41,-132 507.16,-132 507.16,-112 612.41,-112 612.41,-132"/>
<text text-anchor="middle" x="559.78" y="-118.5" font-family="Helvetica,sans-Serif" font-size="10.00">IFormCommand.hpp</text>
</a>
</g>
</g>
<!-- Node2&#45;&gt;Node16 -->
<g id="edge35_Node000002_Node000016" class="edge">
<title>Node2&#45;&gt;Node16</title>
<g id="a_edge35_Node000002_Node000016"><a xlink:title=" ">
<path fill="none" stroke="#63b8ff" d="M718.03,-223.62C688.15,-204.63 620.25,-161.45 583.86,-138.31"/>
<polygon fill="#63b8ff" stroke="#63b8ff" points="586.09,-135.58 575.77,-133.17 582.33,-141.49 586.09,-135.58"/>
</a>
</g>
</g>
<!-- Node17 -->
<g id="Node000017" class="node">
<title>Node17</title>
<g id="a_Node000017"><a xlink:href="IGlobalSlashCommand_8hpp.html" target="_top" xlink:title=" ">
<polygon fill="white" stroke="#666666" points="1087.41,-132 952.16,-132 952.16,-112 1087.41,-112 1087.41,-132"/>
<text text-anchor="middle" x="1019.78" y="-118.5" font-family="Helvetica,sans-Serif" font-size="10.00">IGlobalSlashCommand.hpp</text>
</a>
</g>
</g>
<!-- Node2&#45;&gt;Node17 -->
<g id="edge36_Node000002_Node000017" class="edge">
<title>Node2&#45;&gt;Node17</title>
<g id="a_edge36_Node000002_Node000017"><a xlink:title=" ">
<path fill="none" stroke="#63b8ff" d="M757.5,-223.53C808.46,-203.99 925.39,-159.18 984.37,-136.57"/>
<polygon fill="#63b8ff" stroke="#63b8ff" points="985.52,-139.88 993.61,-133.03 983.02,-133.34 985.52,-139.88"/>
</a>
</g>
</g>
<!-- Node19 -->
<g id="Node000019" class="node">
<title>Node19</title>
<g id="a_Node000019"><a xlink:href="IMemberCommand_8hpp.html" target="_top" xlink:title=" ">
<polygon fill="white" stroke="#666666" points="748.78,-132 630.78,-132 630.78,-112 748.78,-112 748.78,-132"/>
<text text-anchor="middle" x="689.78" y="-118.5" font-family="Helvetica,sans-Serif" font-size="10.00">IMemberCommand.hpp</text>
</a>
</g>
</g>
<!-- Node2&#45;&gt;Node19 -->
<g id="edge37_Node000002_Node000019" class="edge">
<title>Node2&#45;&gt;Node19</title>
<g id="a_edge37_Node000002_Node000019"><a xlink:title=" ">
<path fill="none" stroke="#63b8ff" d="M726.43,-223.72C720.61,-214.88 712.13,-201.02 706.78,-188 700.8,-173.45 696.4,-156.18 693.58,-143.11"/>
<polygon fill="#63b8ff" stroke="#63b8ff" points="697.06,-142.67 691.65,-133.56 690.2,-144.06 697.06,-142.67"/>
</a>
</g>
</g>
<!-- Node20 -->
<g id="Node000020" class="node">
<title>Node20</title>
<g id="a_Node000020"><a xlink:href="IMessageCommand_8hpp.html" target="_top" xlink:title=" ">
<polygon fill="white" stroke="#666666" points="220.03,-132 97.53,-132 97.53,-112 220.03,-112 220.03,-132"/>
<text text-anchor="middle" x="158.78" y="-118.5" font-family="Helvetica,sans-Serif" font-size="10.00">IMessageCommand.hpp</text>
</a>
</g>
</g>
<!-- Node2&#45;&gt;Node20 -->
<g id="edge38_Node000002_Node000020" class="edge">
<title>Node2&#45;&gt;Node20</title>
<g id="a_edge38_Node000002_Node000020"><a xlink:title=" ">
<path fill="none" stroke="#63b8ff" d="M707.63,-228.93C661.16,-221.34 558.74,-204.33 472.78,-188 381.65,-170.69 276.12,-148.37 213.55,-134.9"/>
<polygon fill="#63b8ff" stroke="#63b8ff" points="214.37,-131.5 203.86,-132.81 212.89,-138.34 214.37,-131.5"/>
</a>
</g>
</g>
<!-- Node21 -->
<g id="Node000021" class="node">
<title>Node21</title>
<g id="a_Node000021"><a xlink:href="IReactionCommand_8hpp.html" target="_top" xlink:title=" ">
<polygon fill="white" stroke="#666666" points="359.66,-132 237.91,-132 237.91,-112 359.66,-112 359.66,-132"/>
<text text-anchor="middle" x="298.78" y="-118.5" font-family="Helvetica,sans-Serif" font-size="10.00">IReactionCommand.hpp</text>
</a>
</g>
</g>
<!-- Node2&#45;&gt;Node21 -->
<g id="edge39_Node000002_Node000021" class="edge">
<title>Node2&#45;&gt;Node21</title>
<g id="a_edge39_Node000002_Node000021"><a xlink:title=" ">
<path fill="none" stroke="#63b8ff" d="M707.43,-226.71C672.58,-218.05 607.9,-201.94 552.78,-188 480.78,-169.79 397.38,-148.39 346.36,-135.26"/>
<polygon fill="#63b8ff" stroke="#63b8ff" points="347.38,-131.91 336.82,-132.81 345.64,-138.69 347.38,-131.91"/>
</a>
</g>
</g>
<!-- Node22 -->
<g id="Node000022" class="node">
<title>Node22</title>
<g id="a_Node000022"><a xlink:href="IReady_8hpp.html" target="_top" xlink:title=" ">
<polygon fill="white" stroke="#666666" points="79.53,-132 14.03,-132 14.03,-112 79.53,-112 79.53,-132"/>
<text text-anchor="middle" x="46.78" y="-118.5" font-family="Helvetica,sans-Serif" font-size="10.00">IReady.hpp</text>
</a>
</g>
</g>
<!-- Node2&#45;&gt;Node22 -->
<g id="edge40_Node000002_Node000022" class="edge">
<title>Node2&#45;&gt;Node22</title>
<g id="a_edge40_Node000002_Node000022"><a xlink:title=" ">
<path fill="none" stroke="#63b8ff" d="M707.45,-230.44C648.66,-224.35 498.44,-208.03 373.78,-188 249.94,-168.1 217.07,-158.52 91.05,-132.45"/>
<polygon fill="#63b8ff" stroke="#63b8ff" points="91.77,-129.03 81.27,-130.43 90.35,-135.88 91.77,-129.03"/>
</a>
</g>
</g>
<!-- Node23 -->
<g id="Node000023" class="node">
<title>Node23</title>
<g id="a_Node000023"><a xlink:title=" ">
<polygon fill="#e0e0e0" stroke="#999999" points="750.16,-188 715.41,-188 715.41,-168 750.16,-168 750.16,-188"/>
<text text-anchor="middle" x="732.78" y="-174.5" font-family="Helvetica,sans-Serif" font-size="10.00">map</text>
</a>
</g>
</g>
<!-- Node2&#45;&gt;Node23 -->
<g id="edge43_Node000002_Node000023" class="edge">
<title>Node2&#45;&gt;Node23</title>
<g id="a_edge43_Node000002_Node000023"><a xlink:title=" ">
<path fill="none" stroke="#63b8ff" d="M732.78,-223.59C732.78,-217.01 732.78,-207.96 732.78,-199.73"/>
<polygon fill="#63b8ff" stroke="#63b8ff" points="736.28,-199.81 732.78,-189.81 729.28,-199.81 736.28,-199.81"/>
</a>
</g>
</g>
<!-- Node2&#45;&gt;Node24 -->
<g id="edge44_Node000002_Node000024" class="edge">
<title>Node2&#45;&gt;Node24</title>
<g id="a_edge44_Node000002_Node000024"><a xlink:title=" ">
<path fill="none" stroke="#63b8ff" d="M758.07,-231.31C823.7,-226.72 1004.75,-212.65 1153.78,-188 1154.79,-187.83 1155.82,-187.65 1156.86,-187.47"/>
<polygon fill="#63b8ff" stroke="#63b8ff" points="1157.43,-190.92 1166.56,-185.54 1156.07,-184.06 1157.43,-190.92"/>
</a>
</g>
</g>
<!-- Node4 -->
<g id="Node000004" class="node">
<title>Node4</title>
<g id="a_Node000004"><a xlink:title=" ">
<polygon fill="#e0e0e0" stroke="#999999" points="825.16,-132 766.41,-132 766.41,-112 825.16,-112 825.16,-132"/>
<text text-anchor="middle" x="795.78" y="-118.5" font-family="Helvetica,sans-Serif" font-size="10.00">dpp/dpp.h</text>
</a>
</g>
</g>
<!-- Node3&#45;&gt;Node4 -->
<g id="edge3_Node000003_Node000004" class="edge">
<title>Node3&#45;&gt;Node4</title>
<g id="a_edge3_Node000003_Node000004"><a xlink:title=" ">
<path fill="none" stroke="#63b8ff" d="M795.78,-167.59C795.78,-161.01 795.78,-151.96 795.78,-143.73"/>
<polygon fill="#63b8ff" stroke="#63b8ff" points="799.28,-143.81 795.78,-133.81 792.28,-143.81 799.28,-143.81"/>
</a>
</g>
</g>
<!-- Node5 -->
<g id="Node000005" class="node">
<title>Node5</title>
<g id="a_Node000005"><a xlink:title=" ">
<polygon fill="#e0e0e0" stroke="#999999" points="934.28,-132 843.28,-132 843.28,-112 934.28,-112 934.28,-132"/>
<text text-anchor="middle" x="888.78" y="-118.5" font-family="Helvetica,sans-Serif" font-size="10.00">dpp/misc&#45;enum.h</text>
</a>
</g>
</g>
<!-- Node3&#45;&gt;Node5 -->
<g id="edge4_Node000003_Node000005" class="edge">
<title>Node3&#45;&gt;Node5</title>
<g id="a_edge4_Node000003_Node000005"><a xlink:title=" ">
<path fill="none" stroke="#63b8ff" d="M811.98,-167.59C826.03,-159.44 846.62,-147.48 862.94,-138"/>
<polygon fill="#63b8ff" stroke="#63b8ff" points="864.26,-141.29 871.15,-133.24 860.74,-135.23 864.26,-141.29"/>
</a>
</g>
</g>
<!-- Node6 -->
<g id="Node000006" class="node">
<title>Node6</title>
<g id="a_Node000006"><a xlink:href="Database_8hpp.html" target="_top" xlink:title=" ">
<polygon fill="white" stroke="#666666" points="1258.16,-132 1181.41,-132 1181.41,-112 1258.16,-112 1258.16,-132"/>
<text text-anchor="middle" x="1219.78" y="-118.5" font-family="Helvetica,sans-Serif" font-size="10.00">Database.hpp</text>
</a>
</g>
</g>
<!-- Node3&#45;&gt;Node6 -->
<g id="edge5_Node000003_Node000006" class="edge">
<title>Node3&#45;&gt;Node6</title>
<g id="a_edge5_Node000003_Node000006"><a xlink:title=" ">
<path fill="none" stroke="#63b8ff" d="M823.93,-173.42C894.54,-164.42 1079.93,-140.81 1169.68,-129.38"/>
<polygon fill="#63b8ff" stroke="#63b8ff" points="1169.93,-132.88 1179.41,-128.14 1169.05,-125.93 1169.93,-132.88"/>
</a>
</g>
</g>
<!-- Node3&#45;&gt;Node9 -->
<g id="edge33_Node000003_Node000009" class="edge">
<title>Node3&#45;&gt;Node9</title>
<g id="a_edge33_Node000003_Node000009"><a xlink:title=" ">
<path fill="none" stroke="#63b8ff" d="M823.96,-177.54C897.96,-178.28 1103.35,-175.87 1266.78,-132 1309.5,-120.53 1355.45,-97.28 1383.15,-81.92"/>
<polygon fill="#63b8ff" stroke="#63b8ff" points="1384.52,-85.17 1391.52,-77.21 1381.09,-79.07 1384.52,-85.17"/>
</a>
</g>
</g>
<!-- Node3&#45;&gt;Node13 -->
<g id="edge13_Node000003_Node000013" class="edge">
<title>Node3&#45;&gt;Node13</title>
<g id="a_edge13_Node000003_Node000013"><a xlink:title=" ">
<path fill="none" stroke="#63b8ff" d="M767.56,-169.82C764.61,-169.17 761.64,-168.54 758.78,-168 647.34,-146.82 615.72,-148.05 500.99,-132.43"/>
<polygon fill="#63b8ff" stroke="#63b8ff" points="501.51,-128.97 491.13,-131.07 500.55,-135.9 501.51,-128.97"/>
</a>
</g>
</g>
<!-- Node3&#45;&gt;Node16 -->
<g id="edge16_Node000003_Node000016" class="edge">
<title>Node3&#45;&gt;Node16</title>
<g id="a_edge16_Node000003_Node000016"><a xlink:title=" ">
<path fill="none" stroke="#63b8ff" d="M767.51,-170.07C764.56,-169.37 761.61,-168.66 758.78,-168 709.71,-156.49 653.71,-143.87 613.65,-134.93"/>
<polygon fill="#63b8ff" stroke="#63b8ff" points="614.53,-131.54 604,-132.79 613,-138.38 614.53,-131.54"/>
</a>
</g>
</g>
<!-- Node3&#45;&gt;Node17 -->
<g id="edge19_Node000003_Node000017" class="edge">
<title>Node3&#45;&gt;Node17</title>
<g id="a_edge19_Node000003_Node000017"><a xlink:title=" ">
<path fill="none" stroke="#63b8ff" d="M824.15,-170.16C860.72,-161.34 924.94,-145.86 969.79,-135.05"/>
<polygon fill="#63b8ff" stroke="#63b8ff" points="970.37,-138.51 979.27,-132.77 968.73,-131.71 970.37,-138.51"/>
</a>
</g>
</g>
<!-- Node3&#45;&gt;Node19 -->
<g id="edge24_Node000003_Node000019" class="edge">
<title>Node3&#45;&gt;Node19</title>
<g id="a_edge24_Node000003_Node000019"><a xlink:title=" ">
<path fill="none" stroke="#63b8ff" d="M777.32,-167.59C761.08,-159.32 737.17,-147.14 718.45,-137.6"/>
<polygon fill="#63b8ff" stroke="#63b8ff" points="720.24,-134.59 709.74,-133.17 717.06,-140.82 720.24,-134.59"/>
</a>
</g>
</g>
<!-- Node3&#45;&gt;Node20 -->
<g id="edge27_Node000003_Node000020" class="edge">
<title>Node3&#45;&gt;Node20</title>
<g id="a_edge27_Node000003_Node000020"><a xlink:title=" ">
<path fill="none" stroke="#63b8ff" d="M767.6,-169.62C764.63,-169 761.65,-168.44 758.78,-168 529.09,-132.53 465.72,-154.36 231.5,-132.2"/>
<polygon fill="#63b8ff" stroke="#63b8ff" points="232.01,-128.73 221.72,-131.26 231.34,-135.7 232.01,-128.73"/>
</a>
</g>
</g>
<!-- Node3&#45;&gt;Node21 -->
<g id="edge30_Node000003_Node000021" class="edge">
<title>Node3&#45;&gt;Node21</title>
<g id="a_edge30_Node000003_Node000021"><a xlink:title=" ">
<path fill="none" stroke="#63b8ff" d="M767.59,-169.69C764.63,-169.06 761.65,-168.48 758.78,-168 590.69,-139.95 543.76,-150.63 371.13,-132.21"/>
<polygon fill="#63b8ff" stroke="#63b8ff" points="371.67,-128.75 361.35,-131.15 370.92,-135.71 371.67,-128.75"/>
</a>
</g>
</g>
<!-- Node7 -->
<g id="Node000007" class="node">
<title>Node7</title>
<g id="a_Node000007"><a xlink:title=" ">
<polygon fill="#e0e0e0" stroke="#999999" points="1104.91,-76 1056.66,-76 1056.66,-56 1104.91,-56 1104.91,-76"/>
<text text-anchor="middle" x="1080.78" y="-62.5" font-family="Helvetica,sans-Serif" font-size="10.00">cstddef</text>
</a>
</g>
</g>
<!-- Node6&#45;&gt;Node7 -->
<g id="edge6_Node000006_Node000007" class="edge">
<title>Node6&#45;&gt;Node7</title>
<g id="a_edge6_Node000006_Node000007"><a xlink:title=" ">
<path fill="none" stroke="#63b8ff" d="M1195.57,-111.59C1173.48,-103.01 1140.58,-90.23 1115.66,-80.55"/>
<polygon fill="#63b8ff" stroke="#63b8ff" points="1117.18,-77.39 1106.59,-77.03 1114.65,-83.91 1117.18,-77.39"/>
</a>
</g>
</g>
<!-- Node8 -->
<g id="Node000008" class="node">
<title>Node8</title>
<g id="a_Node000008"><a xlink:title=" ">
<polygon fill="#e0e0e0" stroke="#999999" points="1249.28,-20 1188.28,-20 1188.28,0 1249.28,0 1249.28,-20"/>
<text text-anchor="middle" x="1218.78" y="-6.5" font-family="Helvetica,sans-Serif" font-size="10.00">pqxx/pqxx</text>
</a>
</g>
</g>
<!-- Node6&#45;&gt;Node8 -->
<g id="edge7_Node000006_Node000008" class="edge">
<title>Node6&#45;&gt;Node8</title>
<g id="a_edge7_Node000006_Node000008"><a xlink:title=" ">
<path fill="none" stroke="#63b8ff" d="M1226.32,-111.9C1234.45,-99.46 1246.69,-76.39 1241.78,-56 1239.63,-47.07 1235.39,-37.92 1231.14,-30.22"/>
<polygon fill="#63b8ff" stroke="#63b8ff" points="1234.23,-28.57 1226.09,-21.78 1228.22,-32.16 1234.23,-28.57"/>
</a>
</g>
</g>
<!-- Node6&#45;&gt;Node9 -->
<g id="edge8_Node000006_Node000009" class="edge">
<title>Node6&#45;&gt;Node9</title>
<g id="a_edge8_Node000006_Node000009"><a xlink:title=" ">
<path fill="none" stroke="#63b8ff" d="M1254.5,-111.52C1284.68,-103.22 1329.84,-90.65 1377.63,-76.58"/>
<polygon fill="#63b8ff" stroke="#63b8ff" points="1378.47,-79.98 1387.07,-73.79 1376.49,-73.27 1378.47,-79.98"/>
</a>
</g>
</g>
<!-- Node10 -->
<g id="Node000010" class="node">
<title>Node10</title>
<g id="a_Node000010"><a xlink:title=" ">
<polygon fill="#e0e0e0" stroke="#999999" points="1038.41,-76 993.16,-76 993.16,-56 1038.41,-56 1038.41,-76"/>
<text text-anchor="middle" x="1015.78" y="-62.5" font-family="Helvetica,sans-Serif" font-size="10.00">variant</text>
</a>
</g>
</g>
<!-- Node6&#45;&gt;Node10 -->
<g id="edge9_Node000006_Node000010" class="edge">
<title>Node6&#45;&gt;Node10</title>
<g id="a_edge9_Node000006_Node000010"><a xlink:title=" ">
<path fill="none" stroke="#63b8ff" d="M1182.82,-111.54C1150.27,-103.16 1101.3,-90.44 1049.85,-76.53"/>
<polygon fill="#63b8ff" stroke="#63b8ff" points="1050.87,-73.18 1040.3,-73.94 1049.03,-79.93 1050.87,-73.18"/>
</a>
</g>
</g>
<!-- Node6&#45;&gt;Node11 -->
<g id="edge10_Node000006_Node000011" class="edge">
<title>Node6&#45;&gt;Node11</title>
<g id="a_edge10_Node000006_Node000011"><a xlink:title=" ">
<path fill="none" stroke="#63b8ff" d="M1181.26,-114.15C1128.6,-104.72 1035.79,-87.78 986.61,-76.46"/>
<polygon fill="#63b8ff" stroke="#63b8ff" points="987.68,-73.11 977.14,-74.2 986.05,-79.92 987.68,-73.11"/>
</a>
</g>
</g>
<!-- Node12 -->
<g id="Node000012" class="node">
<title>Node12</title>
<g id="a_Node000012"><a xlink:href="RowDTOAdapter_8hpp.html" target="_top" xlink:title=" ">
<polygon fill="white" stroke="#666666" points="1232.66,-76 1122.91,-76 1122.91,-56 1232.66,-56 1232.66,-76"/>
<text text-anchor="middle" x="1177.78" y="-62.5" font-family="Helvetica,sans-Serif" font-size="10.00">RowDTOAdapter.hpp</text>
</a>
</g>
</g>
<!-- Node6&#45;&gt;Node12 -->
<g id="edge11_Node000006_Node000012" class="edge">
<title>Node6&#45;&gt;Node12</title>
<g id="a_edge11_Node000006_Node000012"><a xlink:title=" ">
<path fill="none" stroke="#63b8ff" d="M1212.46,-111.59C1206.8,-104.32 1198.79,-94.02 1191.9,-85.15"/>
<polygon fill="#63b8ff" stroke="#63b8ff" points="1194.84,-83.24 1185.94,-77.49 1189.32,-87.54 1194.84,-83.24"/>
</a>
</g>
</g>
<!-- Node12&#45;&gt;Node8 -->
<g id="edge12_Node000012_Node000008" class="edge">
<title>Node12&#45;&gt;Node8</title>
<g id="a_edge12_Node000012_Node000008"><a xlink:title=" ">
<path fill="none" stroke="#63b8ff" d="M1184.92,-55.59C1190.39,-48.39 1198.1,-38.23 1204.79,-29.43"/>
<polygon fill="#63b8ff" stroke="#63b8ff" points="1207.55,-31.58 1210.81,-21.5 1201.97,-27.35 1207.55,-31.58"/>
</a>
</g>
</g>
<!-- Node13&#45;&gt;Node14 -->
<g id="edge14_Node000013_Node000014" class="edge">
<title>Node13&#45;&gt;Node14</title>
<g id="a_edge14_Node000013_Node000014"><a xlink:title=" ">
<path fill="none" stroke="#63b8ff" d="M423.68,-111.59C415.53,-104.01 403.85,-93.13 394.06,-84.02"/>
<polygon fill="#63b8ff" stroke="#63b8ff" points="396.58,-81.58 386.88,-77.33 391.81,-86.71 396.58,-81.58"/>
</a>
</g>
</g>
<!-- Node13&#45;&gt;Node15 -->
<g id="edge15_Node000013_Node000015" class="edge">
<title>Node13&#45;&gt;Node15</title>
<g id="a_edge15_Node000013_Node000015"><a xlink:title=" ">
<path fill="none" stroke="#63b8ff" d="M443.88,-111.59C452.03,-104.01 463.71,-93.13 473.5,-84.02"/>
<polygon fill="#63b8ff" stroke="#63b8ff" points="475.75,-86.71 480.69,-77.33 470.98,-81.58 475.75,-86.71"/>
</a>
</g>
</g>
<!-- Node16&#45;&gt;Node14 -->
<g id="edge17_Node000016_Node000014" class="edge">
<title>Node16&#45;&gt;Node14</title>
<g id="a_edge17_Node000016_Node000014"><a xlink:title=" ">
<path fill="none" stroke="#63b8ff" d="M527.73,-111.59C497.57,-102.74 452.19,-89.43 418.88,-79.65"/>
<polygon fill="#63b8ff" stroke="#63b8ff" points="420.11,-76.36 409.53,-76.91 418.14,-83.08 420.11,-76.36"/>
</a>
</g>
</g>
<!-- Node16&#45;&gt;Node15 -->
<g id="edge18_Node000016_Node000015" class="edge">
<title>Node16&#45;&gt;Node15</title>
<g id="a_edge18_Node000016_Node000015"><a xlink:title=" ">
<path fill="none" stroke="#63b8ff" d="M547.94,-111.59C538.09,-103.77 523.85,-92.46 512.17,-83.19"/>
<polygon fill="#63b8ff" stroke="#63b8ff" points="514.68,-80.72 504.67,-77.24 510.33,-86.2 514.68,-80.72"/>
</a>
</g>
</g>
<!-- Node17&#45;&gt;Node11 -->
<g id="edge23_Node000017_Node000011" class="edge">
<title>Node17&#45;&gt;Node11</title>
<g id="a_edge23_Node000017_Node000011"><a xlink:title=" ">
<path fill="none" stroke="#63b8ff" d="M1008.28,-111.59C998.82,-103.85 985.18,-92.69 973.91,-83.47"/>
<polygon fill="#63b8ff" stroke="#63b8ff" points="976.27,-80.88 966.32,-77.26 971.84,-86.3 976.27,-80.88"/>
</a>
</g>
</g>
<!-- Node17&#45;&gt;Node14 -->
<g id="edge21_Node000017_Node000014" class="edge">
<title>Node17&#45;&gt;Node14</title>
<g id="a_edge21_Node000017_Node000014"><a xlink:title=" ">
<path fill="none" stroke="#63b8ff" d="M951.78,-112.88C948.74,-112.57 945.73,-112.28 942.78,-112 719.2,-90.96 662.08,-99.89 438.78,-76 433.83,-75.47 428.66,-74.85 423.52,-74.18"/>
<polygon fill="#63b8ff" stroke="#63b8ff" points="424.25,-70.75 413.87,-72.88 423.31,-77.69 424.25,-70.75"/>
</a>
</g>
</g>
<!-- Node17&#45;&gt;Node15 -->
<g id="edge22_Node000017_Node000015" class="edge">
<title>Node17&#45;&gt;Node15</title>
<g id="a_edge22_Node000017_Node000015"><a xlink:title=" ">
<path fill="none" stroke="#63b8ff" d="M951.77,-112.99C948.73,-112.65 945.72,-112.32 942.78,-112 800.45,-96.58 632.62,-80.35 547.44,-72.25"/>
<polygon fill="#63b8ff" stroke="#63b8ff" points="547.77,-68.76 537.48,-71.3 547.11,-75.73 547.77,-68.76"/>
</a>
</g>
</g>
<!-- Node17&#45;&gt;Node18 -->
<g id="edge20_Node000017_Node000018" class="edge">
<title>Node17&#45;&gt;Node18</title>
<g id="a_edge20_Node000017_Node000018"><a xlink:title=" ">
<path fill="none" stroke="#63b8ff" d="M1074.13,-111.53C1131.15,-101.6 1220.19,-86.09 1276.72,-76.24"/>
<polygon fill="#63b8ff" stroke="#63b8ff" points="1277.18,-79.72 1286.43,-74.55 1275.98,-72.82 1277.18,-79.72"/>
</a>
</g>
</g>
<!-- Node19&#45;&gt;Node14 -->
<g id="edge25_Node000019_Node000014" class="edge">
<title>Node19&#45;&gt;Node14</title>
<g id="a_edge25_Node000019_Node000014"><a xlink:title=" ">
<path fill="none" stroke="#63b8ff" d="M634.73,-111.53C574.83,-101.23 480.06,-84.93 423.3,-75.17"/>
<polygon fill="#63b8ff" stroke="#63b8ff" points="424.07,-71.75 413.62,-73.51 422.89,-78.65 424.07,-71.75"/>
</a>
</g>
</g>
<!-- Node19&#45;&gt;Node15 -->
<g id="edge26_Node000019_Node000015" class="edge">
<title>Node19&#45;&gt;Node15</title>
<g id="a_edge26_Node000019_Node000015"><a xlink:title=" ">
<path fill="none" stroke="#63b8ff" d="M655.29,-111.59C622.56,-102.67 573.16,-89.19 537.22,-79.39"/>
<polygon fill="#63b8ff" stroke="#63b8ff" points="538.57,-76.13 528,-76.88 536.73,-82.89 538.57,-76.13"/>
</a>
</g>
</g>
<!-- Node20&#45;&gt;Node14 -->
<g id="edge28_Node000020_Node000014" class="edge">
<title>Node20&#45;&gt;Node14</title>
<g id="a_edge28_Node000020_Node000014"><a xlink:title=" ">
<path fill="none" stroke="#63b8ff" d="M196.58,-111.59C233.24,-102.47 288.97,-88.6 328.54,-78.76"/>
<polygon fill="#63b8ff" stroke="#63b8ff" points="329.17,-82.21 338.03,-76.39 327.48,-75.41 329.17,-82.21"/>
</a>
</g>
</g>
<!-- Node20&#45;&gt;Node15 -->
<g id="edge29_Node000020_Node000015" class="edge">
<title>Node20&#45;&gt;Node15</title>
<g id="a_edge29_Node000020_Node000015"><a xlink:title=" ">
<path fill="none" stroke="#63b8ff" d="M217.17,-111.53C278.85,-101.53 375.41,-85.87 436.06,-76.04"/>
<polygon fill="#63b8ff" stroke="#63b8ff" points="436.52,-79.51 445.83,-74.45 435.4,-72.6 436.52,-79.51"/>
</a>
</g>
</g>
<!-- Node21&#45;&gt;Node14 -->
<g id="edge31_Node000021_Node000014" class="edge">
<title>Node21&#45;&gt;Node14</title>
<g id="a_edge31_Node000021_Node000014"><a xlink:title=" ">
<path fill="none" stroke="#63b8ff" d="M312.19,-111.59C323.39,-103.74 339.59,-92.38 352.84,-83.09"/>
<polygon fill="#63b8ff" stroke="#63b8ff" points="354.85,-85.96 361.02,-77.35 350.83,-80.22 354.85,-85.96"/>
</a>
</g>
</g>
<!-- Node21&#45;&gt;Node15 -->
<g id="edge32_Node000021_Node000015" class="edge">
<title>Node21&#45;&gt;Node15</title>
<g id="a_edge32_Node000021_Node000015"><a xlink:title=" ">
<path fill="none" stroke="#63b8ff" d="M332.4,-111.59C364.17,-102.71 412.04,-89.31 447.03,-79.52"/>
<polygon fill="#63b8ff" stroke="#63b8ff" points="447.76,-82.95 456.44,-76.89 445.87,-76.21 447.76,-82.95"/>
</a>
</g>
</g>
<!-- Node22&#45;&gt;Node14 -->
<g id="edge41_Node000022_Node000014" class="edge">
<title>Node22&#45;&gt;Node14</title>
<g id="a_edge41_Node000022_Node000014"><a xlink:title=" ">
<path fill="none" stroke="#63b8ff" d="M79.76,-113.75C82.81,-113.14 85.85,-112.54 88.78,-112 172.75,-96.43 271.21,-81.77 328.25,-73.63"/>
<polygon fill="#63b8ff" stroke="#63b8ff" points="328.52,-77.12 337.93,-72.25 327.53,-70.19 328.52,-77.12"/>
</a>
</g>
</g>
<!-- Node22&#45;&gt;Node15 -->
<g id="edge42_Node000022_Node000015" class="edge">
<title>Node22&#45;&gt;Node15</title>
<g id="a_edge42_Node000022_Node000015"><a xlink:title=" ">
<path fill="none" stroke="#63b8ff" d="M79.73,-113.6C82.79,-113.02 85.84,-112.47 88.78,-112 235.32,-88.42 273.38,-93.33 420.78,-76 425.77,-75.41 430.96,-74.79 436.16,-74.15"/>
<polygon fill="#63b8ff" stroke="#63b8ff" points="436.49,-77.63 445.98,-72.93 435.63,-70.69 436.49,-77.63"/>
</a>
</g>
</g>
</g>
</svg>
