<?xml version="1.0" encoding="UTF-8" standalone="no"?>
<!DOCTYPE svg PUBLIC "-//W3C//DTD SVG 1.1//EN"
 "http://www.w3.org/Graphics/SVG/1.1/DTD/svg11.dtd">
<!-- Generated by graphviz version 10.0.1 (0)
 -->
<!-- Title: src/bot_library/bot/include/Bot.hpp Pages: 1 -->
<svg width="1375pt" height="264pt"
 viewBox="0.00 0.00 1374.75 264.00" xmlns="http://www.w3.org/2000/svg" xmlns:xlink="http://www.w3.org/1999/xlink">
<g id="graph0" class="graph" transform="scale(1 1) rotate(0) translate(4 260)">
<title>src/bot_library/bot/include/Bot.hpp</title>
<!-- Node1 -->
<g id="Node000001" class="node">
<title>Node1</title>
<g id="a_Node000001"><a xlink:title=" ">
<polygon fill="#999999" stroke="#666666" points="887,-256 793,-256 793,-224 887,-224 887,-256"/>
<text text-anchor="start" x="801" y="-242.5" font-family="Helvetica,sans-Serif" font-size="10.00">src/bot_library/bot</text>
<text text-anchor="middle" x="840" y="-230.5" font-family="Helvetica,sans-Serif" font-size="10.00">/include/Bot.hpp</text>
</a>
</g>
</g>
<!-- Node2 -->
<g id="Node000002" class="node">
<title>Node2</title>
<g id="a_Node000002"><a xlink:href="Core_8hpp.html" target="_top" xlink:title=" ">
<polygon fill="white" stroke="#666666" points="720.88,-188 665.12,-188 665.12,-168 720.88,-168 720.88,-188"/>
<text text-anchor="middle" x="693" y="-174.5" font-family="Helvetica,sans-Serif" font-size="10.00">Core.hpp</text>
</a>
</g>
</g>
<!-- Node1&#45;&gt;Node2 -->
<g id="edge1_Node000001_Node000002" class="edge">
<title>Node1&#45;&gt;Node2</title>
<g id="a_edge1_Node000001_Node000002"><a xlink:title=" ">
<path fill="none" stroke="#63b8ff" d="M802.14,-223.55C778.75,-214 749,-201.86 726.47,-192.66"/>
<polygon fill="#63b8ff" stroke="#63b8ff" points="728.03,-189.52 717.45,-188.98 725.39,-196 728.03,-189.52"/>
</a>
</g>
</g>
<!-- Node8 -->
<g id="Node000008" class="node">
<title>Node8</title>
<g id="a_Node000008"><a xlink:title=" ">
<polygon fill="#e0e0e0" stroke="#999999" points="40,-76 0,-76 0,-56 40,-56 40,-76"/>
<text text-anchor="middle" x="20" y="-62.5" font-family="Helvetica,sans-Serif" font-size="10.00">string</text>
</a>
</g>
</g>
<!-- Node1&#45;&gt;Node8 -->
<g id="edge44_Node000001_Node000008" class="edge">
<title>Node1&#45;&gt;Node8</title>
<g id="a_edge44_Node000001_Node000008"><a xlink:title=" ">
<path fill="none" stroke="#63b8ff" d="M792.51,-236.6C646.92,-228.56 209.24,-199.25 86,-132 64.69,-120.37 45.57,-99.86 33.46,-84.98"/>
<polygon fill="#63b8ff" stroke="#63b8ff" points="36.41,-83.08 27.49,-77.36 30.9,-87.39 36.41,-83.08"/>
</a>
</g>
</g>
<!-- Node10 -->
<g id="Node000010" class="node">
<title>Node10</title>
<g id="a_Node000010"><a xlink:title=" ">
<polygon fill="#e0e0e0" stroke="#999999" points="396.5,-76 353.5,-76 353.5,-56 396.5,-56 396.5,-76"/>
<text text-anchor="middle" x="375" y="-62.5" font-family="Helvetica,sans-Serif" font-size="10.00">vector</text>
</a>
</g>
</g>
<!-- Node1&#45;&gt;Node10 -->
<g id="edge45_Node000001_Node000010" class="edge">
<title>Node1&#45;&gt;Node10</title>
<g id="a_edge45_Node000001_Node000010"><a xlink:title=" ">
<path fill="none" stroke="#63b8ff" d="M792.78,-237.39C670.24,-232.12 347.18,-210.85 283,-132 277.39,-125.11 278.29,-119.54 283,-112 289.87,-101 318.79,-87.92 342.39,-78.71"/>
<polygon fill="#63b8ff" stroke="#63b8ff" points="343.58,-82 351.69,-75.18 341.1,-75.46 343.58,-82"/>
</a>
</g>
</g>
<!-- Node12 -->
<g id="Node000012" class="node">
<title>Node12</title>
<g id="a_Node000012"><a xlink:href="IButtonCommand_8hpp.html" target="_top" xlink:title=" ">
<polygon fill="white" stroke="#666666" points="1023.62,-132 912.38,-132 912.38,-112 1023.62,-112 1023.62,-132"/>
<text text-anchor="middle" x="968" y="-118.5" font-family="Helvetica,sans-Serif" font-size="10.00">IButtonCommand.hpp</text>
</a>
</g>
</g>
<!-- Node1&#45;&gt;Node12 -->
<g id="edge33_Node000001_Node000012" class="edge">
<title>Node1&#45;&gt;Node12</title>
<g id="a_edge33_Node000001_Node000012"><a xlink:title=" ">
<path fill="none" stroke="#63b8ff" d="M846.4,-223.5C853.47,-207.9 866.13,-183.93 883,-168 896.94,-154.84 915.48,-144.43 931.69,-136.95"/>
<polygon fill="#63b8ff" stroke="#63b8ff" points="932.79,-140.29 940.54,-133.07 929.98,-133.88 932.79,-140.29"/>
</a>
</g>
</g>
<!-- Node15 -->
<g id="Node000015" class="node">
<title>Node15</title>
<g id="a_Node000015"><a xlink:href="IFormCommand_8hpp.html" target="_top" xlink:title=" ">
<polygon fill="white" stroke="#666666" points="1146.62,-132 1041.38,-132 1041.38,-112 1146.62,-112 1146.62,-132"/>
<text text-anchor="middle" x="1094" y="-118.5" font-family="Helvetica,sans-Serif" font-size="10.00">IFormCommand.hpp</text>
</a>
</g>
</g>
<!-- Node1&#45;&gt;Node15 -->
<g id="edge34_Node000001_Node000015" class="edge">
<title>Node1&#45;&gt;Node15</title>
<g id="a_edge34_Node000001_Node000015"><a xlink:title=" ">
<path fill="none" stroke="#63b8ff" d="M853.36,-223.64C868.28,-207.46 893.9,-182.35 921,-168 941.08,-157.37 994.78,-144.18 1037.08,-134.83"/>
<polygon fill="#63b8ff" stroke="#63b8ff" points="1037.61,-138.3 1046.63,-132.75 1036.11,-131.46 1037.61,-138.3"/>
</a>
</g>
</g>
<!-- Node16 -->
<g id="Node000016" class="node">
<title>Node16</title>
<g id="a_Node000016"><a xlink:href="IGlobalSlashCommand_8hpp.html" target="_top" xlink:title=" ">
<polygon fill="white" stroke="#666666" points="427.62,-132 292.38,-132 292.38,-112 427.62,-112 427.62,-132"/>
<text text-anchor="middle" x="360" y="-118.5" font-family="Helvetica,sans-Serif" font-size="10.00">IGlobalSlashCommand.hpp</text>
</a>
</g>
</g>
<!-- Node1&#45;&gt;Node16 -->
<g id="edge35_Node000001_Node000016" class="edge">
<title>Node1&#45;&gt;Node16</title>
<g id="a_edge35_Node000001_Node000016"><a xlink:title=" ">
<path fill="none" stroke="#63b8ff" d="M792.66,-227.56C701.73,-205.58 503.4,-157.65 410.24,-135.14"/>
<polygon fill="#63b8ff" stroke="#63b8ff" points="411.16,-131.76 400.61,-132.82 409.51,-138.57 411.16,-131.76"/>
</a>
</g>
</g>
<!-- Node18 -->
<g id="Node000018" class="node">
<title>Node18</title>
<g id="a_Node000018"><a xlink:href="IMemberCommand_8hpp.html" target="_top" xlink:title=" ">
<polygon fill="white" stroke="#666666" points="1283,-132 1165,-132 1165,-112 1283,-112 1283,-132"/>
<text text-anchor="middle" x="1224" y="-118.5" font-family="Helvetica,sans-Serif" font-size="10.00">IMemberCommand.hpp</text>
</a>
</g>
</g>
<!-- Node1&#45;&gt;Node18 -->
<g id="edge36_Node000001_Node000018" class="edge">
<title>Node1&#45;&gt;Node18</title>
<g id="a_edge36_Node000001_Node000018"><a xlink:title=" ">
<path fill="none" stroke="#63b8ff" d="M863.26,-223.72C891.99,-205.09 939.47,-175.2 959,-168 977,-161.37 1081.23,-144.69 1153.48,-133.6"/>
<polygon fill="#63b8ff" stroke="#63b8ff" points="1153.93,-137.08 1163.28,-132.1 1152.87,-130.16 1153.93,-137.08"/>
</a>
</g>
</g>
<!-- Node19 -->
<g id="Node000019" class="node">
<title>Node19</title>
<g id="a_Node000019"><a xlink:href="IMessageCommand_8hpp.html" target="_top" xlink:title=" ">
<polygon fill="white" stroke="#666666" points="754.25,-132 631.75,-132 631.75,-112 754.25,-112 754.25,-132"/>
<text text-anchor="middle" x="693" y="-118.5" font-family="Helvetica,sans-Serif" font-size="10.00">IMessageCommand.hpp</text>
</a>
</g>
</g>
<!-- Node1&#45;&gt;Node19 -->
<g id="edge37_Node000001_Node000019" class="edge">
<title>Node1&#45;&gt;Node19</title>
<g id="a_edge37_Node000001_Node000019"><a xlink:title=" ">
<path fill="none" stroke="#63b8ff" d="M820.48,-223.6C792.69,-201.67 741.97,-161.64 713.6,-139.26"/>
<polygon fill="#63b8ff" stroke="#63b8ff" points="716.11,-136.78 706.09,-133.33 711.77,-142.27 716.11,-136.78"/>
</a>
</g>
</g>
<!-- Node20 -->
<g id="Node000020" class="node">
<title>Node20</title>
<g id="a_Node000020"><a xlink:href="IReactionCommand_8hpp.html" target="_top" xlink:title=" ">
<polygon fill="white" stroke="#666666" points="893.88,-132 772.12,-132 772.12,-112 893.88,-112 893.88,-132"/>
<text text-anchor="middle" x="833" y="-118.5" font-family="Helvetica,sans-Serif" font-size="10.00">IReactionCommand.hpp</text>
</a>
</g>
</g>
<!-- Node1&#45;&gt;Node20 -->
<g id="edge38_Node000001_Node000020" class="edge">
<title>Node1&#45;&gt;Node20</title>
<g id="a_edge38_Node000001_Node000020"><a xlink:title=" ">
<path fill="none" stroke="#63b8ff" d="M839.08,-223.84C837.85,-203.32 835.63,-166.63 834.24,-143.62"/>
<polygon fill="#63b8ff" stroke="#63b8ff" points="837.76,-143.72 833.66,-133.95 830.77,-144.14 837.76,-143.72"/>
</a>
</g>
</g>
<!-- Node21 -->
<g id="Node000021" class="node">
<title>Node21</title>
<g id="a_Node000021"><a xlink:href="IReady_8hpp.html" target="_top" xlink:title=" ">
<polygon fill="white" stroke="#666666" points="1366.75,-132 1301.25,-132 1301.25,-112 1366.75,-112 1366.75,-132"/>
<text text-anchor="middle" x="1334" y="-118.5" font-family="Helvetica,sans-Serif" font-size="10.00">IReady.hpp</text>
</a>
</g>
</g>
<!-- Node1&#45;&gt;Node21 -->
<g id="edge39_Node000001_Node000021" class="edge">
<title>Node1&#45;&gt;Node21</title>
<g id="a_edge39_Node000001_Node000021"><a xlink:title=" ">
<path fill="none" stroke="#63b8ff" d="M876.85,-223.53C899.58,-213.77 929.22,-200.66 955,-188 971.78,-179.76 974.18,-173.66 992,-168 1116.62,-128.43 1157.39,-152.73 1290.06,-132.14"/>
<polygon fill="#63b8ff" stroke="#63b8ff" points="1290.23,-135.65 1299.55,-130.6 1289.12,-128.74 1290.23,-135.65"/>
</a>
</g>
</g>
<!-- Node22 -->
<g id="Node000022" class="node">
<title>Node22</title>
<g id="a_Node000022"><a xlink:title=" ">
<polygon fill="#e0e0e0" stroke="#999999" points="1035.38,-188 1000.62,-188 1000.62,-168 1035.38,-168 1035.38,-188"/>
<text text-anchor="middle" x="1018" y="-174.5" font-family="Helvetica,sans-Serif" font-size="10.00">map</text>
</a>
</g>
</g>
<!-- Node1&#45;&gt;Node22 -->
<g id="edge42_Node000001_Node000022" class="edge">
<title>Node1&#45;&gt;Node22</title>
<g id="a_edge42_Node000001_Node000022"><a xlink:title=" ">
<path fill="none" stroke="#63b8ff" d="M885.84,-223.55C918.61,-212.5 961.69,-197.98 989.61,-188.57"/>
<polygon fill="#63b8ff" stroke="#63b8ff" points="990.43,-191.99 998.78,-185.48 988.19,-185.36 990.43,-191.99"/>
</a>
</g>
</g>
<!-- Node23 -->
<g id="Node000023" class="node">
<title>Node23</title>
<g id="a_Node000023"><a xlink:title=" ">
<polygon fill="#e0e0e0" stroke="#999999" points="1104.62,-188 1053.38,-188 1053.38,-168 1104.62,-168 1104.62,-188"/>
<text text-anchor="middle" x="1079" y="-174.5" font-family="Helvetica,sans-Serif" font-size="10.00">memory</text>
</a>
</g>
</g>
<!-- Node1&#45;&gt;Node23 -->
<g id="edge43_Node000001_Node000023" class="edge">
<title>Node1&#45;&gt;Node23</title>
<g id="a_edge43_Node000001_Node000023"><a xlink:title=" ">
<path fill="none" stroke="#63b8ff" d="M887.43,-227.24C926.36,-217.56 983.24,-203.38 1042.02,-188.49"/>
<polygon fill="#63b8ff" stroke="#63b8ff" points="1042.71,-191.93 1051.54,-186.08 1040.99,-185.14 1042.71,-191.93"/>
</a>
</g>
</g>
<!-- Node3 -->
<g id="Node000003" class="node">
<title>Node3</title>
<g id="a_Node000003"><a xlink:title=" ">
<polygon fill="#e0e0e0" stroke="#999999" points="613.38,-132 554.62,-132 554.62,-112 613.38,-112 613.38,-132"/>
<text text-anchor="middle" x="584" y="-118.5" font-family="Helvetica,sans-Serif" font-size="10.00">dpp/dpp.h</text>
</a>
</g>
</g>
<!-- Node2&#45;&gt;Node3 -->
<g id="edge2_Node000002_Node000003" class="edge">
<title>Node2&#45;&gt;Node3</title>
<g id="a_edge2_Node000002_Node000003"><a xlink:title=" ">
<path fill="none" stroke="#63b8ff" d="M674.01,-167.59C657.24,-159.28 632.51,-147.03 613.21,-137.47"/>
<polygon fill="#63b8ff" stroke="#63b8ff" points="615.01,-134.45 604.49,-133.15 611.9,-140.73 615.01,-134.45"/>
</a>
</g>
</g>
<!-- Node4 -->
<g id="Node000004" class="node">
<title>Node4</title>
<g id="a_Node000004"><a xlink:title=" ">
<polygon fill="#e0e0e0" stroke="#999999" points="536.5,-132 445.5,-132 445.5,-112 536.5,-112 536.5,-132"/>
<text text-anchor="middle" x="491" y="-118.5" font-family="Helvetica,sans-Serif" font-size="10.00">dpp/misc&#45;enum.h</text>
</a>
</g>
</g>
<!-- Node2&#45;&gt;Node4 -->
<g id="edge3_Node000002_Node000004" class="edge">
<title>Node2&#45;&gt;Node4</title>
<g id="a_edge3_Node000002_Node000004"><a xlink:title=" ">
<path fill="none" stroke="#63b8ff" d="M664.91,-169.49C631.89,-160.66 576.59,-145.88 537.22,-135.36"/>
<polygon fill="#63b8ff" stroke="#63b8ff" points="538.34,-132.03 527.78,-132.83 536.53,-138.8 538.34,-132.03"/>
</a>
</g>
</g>
<!-- Node5 -->
<g id="Node000005" class="node">
<title>Node5</title>
<g id="a_Node000005"><a xlink:href="Database_8hpp.html" target="_top" xlink:title=" ">
<polygon fill="white" stroke="#666666" points="222.38,-132 145.62,-132 145.62,-112 222.38,-112 222.38,-132"/>
<text text-anchor="middle" x="184" y="-118.5" font-family="Helvetica,sans-Serif" font-size="10.00">Database.hpp</text>
</a>
</g>
</g>
<!-- Node2&#45;&gt;Node5 -->
<g id="edge4_Node000002_Node000005" class="edge">
<title>Node2&#45;&gt;Node5</title>
<g id="a_edge4_Node000002_Node000005"><a xlink:title=" ">
<path fill="none" stroke="#63b8ff" d="M664.91,-174.02C582.35,-165.26 339.65,-139.51 234.04,-128.31"/>
<polygon fill="#63b8ff" stroke="#63b8ff" points="234.58,-124.85 224.26,-127.27 233.84,-131.81 234.58,-124.85"/>
</a>
</g>
</g>
<!-- Node2&#45;&gt;Node8 -->
<g id="edge32_Node000002_Node000008" class="edge">
<title>Node2&#45;&gt;Node8</title>
<g id="a_edge32_Node000002_Node000008"><a xlink:title=" ">
<path fill="none" stroke="#63b8ff" d="M664.88,-176.3C566.38,-173.58 237.45,-162.41 137,-132 101.32,-121.2 64.41,-98.41 41.83,-82.9"/>
<polygon fill="#63b8ff" stroke="#63b8ff" points="43.94,-80.11 33.75,-77.22 39.92,-85.84 43.94,-80.11"/>
</a>
</g>
</g>
<!-- Node2&#45;&gt;Node12 -->
<g id="edge12_Node000002_Node000012" class="edge">
<title>Node2&#45;&gt;Node12</title>
<g id="a_edge12_Node000002_Node000012"><a xlink:title=" ">
<path fill="none" stroke="#63b8ff" d="M721.14,-171.47C764.96,-162.87 850.51,-146.07 908.46,-134.69"/>
<polygon fill="#63b8ff" stroke="#63b8ff" points="909.03,-138.15 918.17,-132.78 907.69,-131.28 909.03,-138.15"/>
</a>
</g>
</g>
<!-- Node2&#45;&gt;Node15 -->
<g id="edge15_Node000002_Node000015" class="edge">
<title>Node2&#45;&gt;Node15</title>
<g id="a_edge15_Node000002_Node000015"><a xlink:title=" ">
<path fill="none" stroke="#63b8ff" d="M721.23,-173.41C777.76,-166.19 909.15,-149.24 1029.84,-132.43"/>
<polygon fill="#63b8ff" stroke="#63b8ff" points="1030.19,-135.91 1039.61,-131.06 1029.22,-128.98 1030.19,-135.91"/>
</a>
</g>
</g>
<!-- Node2&#45;&gt;Node16 -->
<g id="edge18_Node000002_Node000016" class="edge">
<title>Node2&#45;&gt;Node16</title>
<g id="a_edge18_Node000002_Node000016"><a xlink:title=" ">
<path fill="none" stroke="#63b8ff" d="M664.9,-172.44C613.47,-164.1 502.83,-146.16 429.93,-134.34"/>
<polygon fill="#63b8ff" stroke="#63b8ff" points="430.5,-130.89 420.07,-132.74 429.38,-137.8 430.5,-130.89"/>
</a>
</g>
</g>
<!-- Node2&#45;&gt;Node18 -->
<g id="edge23_Node000002_Node000018" class="edge">
<title>Node2&#45;&gt;Node18</title>
<g id="a_edge23_Node000002_Node000018"><a xlink:title=" ">
<path fill="none" stroke="#63b8ff" d="M721.22,-174.6C792.01,-168.51 983.07,-151.62 1153.48,-132.25"/>
<polygon fill="#63b8ff" stroke="#63b8ff" points="1153.64,-135.76 1163.17,-131.15 1152.84,-128.8 1153.64,-135.76"/>
</a>
</g>
</g>
<!-- Node2&#45;&gt;Node19 -->
<g id="edge26_Node000002_Node000019" class="edge">
<title>Node2&#45;&gt;Node19</title>
<g id="a_edge26_Node000002_Node000019"><a xlink:title=" ">
<path fill="none" stroke="#63b8ff" d="M693,-167.59C693,-161.01 693,-151.96 693,-143.73"/>
<polygon fill="#63b8ff" stroke="#63b8ff" points="696.5,-143.81 693,-133.81 689.5,-143.81 696.5,-143.81"/>
</a>
</g>
</g>
<!-- Node2&#45;&gt;Node20 -->
<g id="edge29_Node000002_Node000020" class="edge">
<title>Node2&#45;&gt;Node20</title>
<g id="a_edge29_Node000002_Node000020"><a xlink:title=" ">
<path fill="none" stroke="#63b8ff" d="M717.39,-167.59C739.63,-159.01 772.77,-146.23 797.87,-136.55"/>
<polygon fill="#63b8ff" stroke="#63b8ff" points="798.94,-139.89 807.01,-133.02 796.42,-133.36 798.94,-139.89"/>
</a>
</g>
</g>
<!-- Node6 -->
<g id="Node000006" class="node">
<title>Node6</title>
<g id="a_Node000006"><a xlink:title=" ">
<polygon fill="#e0e0e0" stroke="#999999" points="208.12,-76 159.88,-76 159.88,-56 208.12,-56 208.12,-76"/>
<text text-anchor="middle" x="184" y="-62.5" font-family="Helvetica,sans-Serif" font-size="10.00">cstddef</text>
</a>
</g>
</g>
<!-- Node5&#45;&gt;Node6 -->
<g id="edge5_Node000005_Node000006" class="edge">
<title>Node5&#45;&gt;Node6</title>
<g id="a_edge5_Node000005_Node000006"><a xlink:title=" ">
<path fill="none" stroke="#63b8ff" d="M184,-111.59C184,-105.01 184,-95.96 184,-87.73"/>
<polygon fill="#63b8ff" stroke="#63b8ff" points="187.5,-87.81 184,-77.81 180.5,-87.81 187.5,-87.81"/>
</a>
</g>
</g>
<!-- Node7 -->
<g id="Node000007" class="node">
<title>Node7</title>
<g id="a_Node000007"><a xlink:title=" ">
<polygon fill="#e0e0e0" stroke="#999999" points="204.5,-20 143.5,-20 143.5,0 204.5,0 204.5,-20"/>
<text text-anchor="middle" x="174" y="-6.5" font-family="Helvetica,sans-Serif" font-size="10.00">pqxx/pqxx</text>
</a>
</g>
</g>
<!-- Node5&#45;&gt;Node7 -->
<g id="edge6_Node000005_Node000007" class="edge">
<title>Node5&#45;&gt;Node7</title>
<g id="a_edge6_Node000005_Node000007"><a xlink:title=" ">
<path fill="none" stroke="#63b8ff" d="M145.58,-113.67C124.42,-107.45 99.89,-96.18 87,-76 72,-52.51 103.34,-34.47 132.5,-23.42"/>
<polygon fill="#63b8ff" stroke="#63b8ff" points="133.38,-26.82 141.63,-20.18 131.04,-20.23 133.38,-26.82"/>
</a>
</g>
</g>
<!-- Node5&#45;&gt;Node8 -->
<g id="edge7_Node000005_Node000008" class="edge">
<title>Node5&#45;&gt;Node8</title>
<g id="a_edge7_Node000005_Node000008"><a xlink:title=" ">
<path fill="none" stroke="#63b8ff" d="M155.43,-111.59C126.3,-102 81.23,-87.16 51.19,-77.27"/>
<polygon fill="#63b8ff" stroke="#63b8ff" points="52.5,-74.02 41.91,-74.21 50.31,-80.67 52.5,-74.02"/>
</a>
</g>
</g>
<!-- Node9 -->
<g id="Node000009" class="node">
<title>Node9</title>
<g id="a_Node000009"><a xlink:title=" ">
<polygon fill="#e0e0e0" stroke="#999999" points="141.62,-76 96.38,-76 96.38,-56 141.62,-56 141.62,-76"/>
<text text-anchor="middle" x="119" y="-62.5" font-family="Helvetica,sans-Serif" font-size="10.00">variant</text>
</a>
</g>
</g>
<!-- Node5&#45;&gt;Node9 -->
<g id="edge8_Node000005_Node000009" class="edge">
<title>Node5&#45;&gt;Node9</title>
<g id="a_edge8_Node000005_Node000009"><a xlink:title=" ">
<path fill="none" stroke="#63b8ff" d="M172.68,-111.59C163.36,-103.85 149.92,-92.69 138.82,-83.47"/>
<polygon fill="#63b8ff" stroke="#63b8ff" points="141.29,-80.96 131.36,-77.27 136.81,-86.35 141.29,-80.96"/>
</a>
</g>
</g>
<!-- Node5&#45;&gt;Node10 -->
<g id="edge9_Node000005_Node000010" class="edge">
<title>Node5&#45;&gt;Node10</title>
<g id="a_edge9_Node000005_Node000010"><a xlink:title=" ">
<path fill="none" stroke="#63b8ff" d="M218.6,-111.53C248.95,-103.18 294.53,-90.54 342.21,-76.77"/>
<polygon fill="#63b8ff" stroke="#63b8ff" points="342.97,-80.2 351.61,-74.06 341.03,-73.47 342.97,-80.2"/>
</a>
</g>
</g>
<!-- Node11 -->
<g id="Node000011" class="node">
<title>Node11</title>
<g id="a_Node000011"><a xlink:href="RowDTOAdapter_8hpp.html" target="_top" xlink:title=" ">
<polygon fill="white" stroke="#666666" points="335.88,-76 226.12,-76 226.12,-56 335.88,-56 335.88,-76"/>
<text text-anchor="middle" x="281" y="-62.5" font-family="Helvetica,sans-Serif" font-size="10.00">RowDTOAdapter.hpp</text>
</a>
</g>
</g>
<!-- Node5&#45;&gt;Node11 -->
<g id="edge10_Node000005_Node000011" class="edge">
<title>Node5&#45;&gt;Node11</title>
<g id="a_edge10_Node000005_Node000011"><a xlink:title=" ">
<path fill="none" stroke="#63b8ff" d="M200.9,-111.59C215.55,-103.44 237.02,-91.48 254.05,-82"/>
<polygon fill="#63b8ff" stroke="#63b8ff" points="255.61,-85.14 262.65,-77.22 252.21,-79.02 255.61,-85.14"/>
</a>
</g>
</g>
<!-- Node11&#45;&gt;Node7 -->
<g id="edge11_Node000011_Node000007" class="edge">
<title>Node11&#45;&gt;Node7</title>
<g id="a_edge11_Node000011_Node000007"><a xlink:title=" ">
<path fill="none" stroke="#63b8ff" d="M262.36,-55.59C245.97,-47.32 221.84,-35.14 202.94,-25.6"/>
<polygon fill="#63b8ff" stroke="#63b8ff" points="204.64,-22.54 194.13,-21.16 201.49,-28.79 204.64,-22.54"/>
</a>
</g>
</g>
<!-- Node13 -->
<g id="Node000013" class="node">
<title>Node13</title>
<g id="a_Node000013"><a xlink:title=" ">
<polygon fill="#e0e0e0" stroke="#999999" points="955.12,-76 882.88,-76 882.88,-56 955.12,-56 955.12,-76"/>
<text text-anchor="middle" x="919" y="-62.5" font-family="Helvetica,sans-Serif" font-size="10.00">dpp/cluster.h</text>
</a>
</g>
</g>
<!-- Node12&#45;&gt;Node13 -->
<g id="edge13_Node000012_Node000013" class="edge">
<title>Node12&#45;&gt;Node13</title>
<g id="a_edge13_Node000012_Node000013"><a xlink:title=" ">
<path fill="none" stroke="#63b8ff" d="M959.46,-111.59C952.72,-104.16 943.11,-93.58 934.96,-84.58"/>
<polygon fill="#63b8ff" stroke="#63b8ff" points="937.77,-82.47 928.45,-77.42 932.58,-87.18 937.77,-82.47"/>
</a>
</g>
</g>
<!-- Node14 -->
<g id="Node000014" class="node">
<title>Node14</title>
<g id="a_Node000014"><a xlink:title=" ">
<polygon fill="#e0e0e0" stroke="#999999" points="1061,-76 973,-76 973,-56 1061,-56 1061,-76"/>
<text text-anchor="middle" x="1017" y="-62.5" font-family="Helvetica,sans-Serif" font-size="10.00">dpp/dispatcher.h</text>
</a>
</g>
</g>
<!-- Node12&#45;&gt;Node14 -->
<g id="edge14_Node000012_Node000014" class="edge">
<title>Node12&#45;&gt;Node14</title>
<g id="a_edge14_Node000012_Node000014"><a xlink:title=" ">
<path fill="none" stroke="#63b8ff" d="M976.54,-111.59C983.28,-104.16 992.89,-93.58 1001.04,-84.58"/>
<polygon fill="#63b8ff" stroke="#63b8ff" points="1003.42,-87.18 1007.55,-77.42 998.23,-82.47 1003.42,-87.18"/>
</a>
</g>
</g>
<!-- Node15&#45;&gt;Node13 -->
<g id="edge16_Node000015_Node000013" class="edge">
<title>Node15&#45;&gt;Node13</title>
<g id="a_edge16_Node000015_Node000013"><a xlink:title=" ">
<path fill="none" stroke="#63b8ff" d="M1063.52,-111.59C1034.96,-102.78 992.05,-89.54 960.4,-79.78"/>
<polygon fill="#63b8ff" stroke="#63b8ff" points="961.75,-76.53 951.17,-76.93 959.69,-83.22 961.75,-76.53"/>
</a>
</g>
</g>
<!-- Node15&#45;&gt;Node14 -->
<g id="edge17_Node000015_Node000014" class="edge">
<title>Node15&#45;&gt;Node14</title>
<g id="a_edge17_Node000015_Node000014"><a xlink:title=" ">
<path fill="none" stroke="#63b8ff" d="M1080.59,-111.59C1069.39,-103.74 1053.19,-92.38 1039.94,-83.09"/>
<polygon fill="#63b8ff" stroke="#63b8ff" points="1041.95,-80.22 1031.76,-77.35 1037.93,-85.96 1041.95,-80.22"/>
</a>
</g>
</g>
<!-- Node16&#45;&gt;Node10 -->
<g id="edge22_Node000016_Node000010" class="edge">
<title>Node16&#45;&gt;Node10</title>
<g id="a_edge22_Node000016_Node000010"><a xlink:title=" ">
<path fill="none" stroke="#63b8ff" d="M362.61,-111.59C364.48,-104.86 367.07,-95.53 369.4,-87.15"/>
<polygon fill="#63b8ff" stroke="#63b8ff" points="372.71,-88.33 372.01,-77.76 365.96,-86.46 372.71,-88.33"/>
</a>
</g>
</g>
<!-- Node16&#45;&gt;Node13 -->
<g id="edge20_Node000016_Node000013" class="edge">
<title>Node16&#45;&gt;Node13</title>
<g id="a_edge20_Node000016_Node000013"><a xlink:title=" ">
<path fill="none" stroke="#63b8ff" d="M427.94,-112.87C430.66,-112.57 433.36,-112.28 436,-112 595.34,-95.15 784.61,-78.49 871.32,-71.04"/>
<polygon fill="#63b8ff" stroke="#63b8ff" points="871.44,-74.55 881.11,-70.21 870.84,-67.57 871.44,-74.55"/>
</a>
</g>
</g>
<!-- Node16&#45;&gt;Node14 -->
<g id="edge21_Node000016_Node000014" class="edge">
<title>Node16&#45;&gt;Node14</title>
<g id="a_edge21_Node000016_Node000014"><a xlink:title=" ">
<path fill="none" stroke="#63b8ff" d="M427.94,-112.79C430.66,-112.51 433.35,-112.25 436,-112 666.54,-90.5 728.5,-103.31 961.3,-76.21"/>
<polygon fill="#63b8ff" stroke="#63b8ff" points="961.49,-79.71 971.01,-75.06 960.67,-72.76 961.49,-79.71"/>
</a>
</g>
</g>
<!-- Node17 -->
<g id="Node000017" class="node">
<title>Node17</title>
<g id="a_Node000017"><a xlink:title=" ">
<polygon fill="#e0e0e0" stroke="#999999" points="497.38,-76 414.62,-76 414.62,-56 497.38,-56 497.38,-76"/>
<text text-anchor="middle" x="456" y="-62.5" font-family="Helvetica,sans-Serif" font-size="10.00">appcommand.h</text>
</a>
</g>
</g>
<!-- Node16&#45;&gt;Node17 -->
<g id="edge19_Node000016_Node000017" class="edge">
<title>Node16&#45;&gt;Node17</title>
<g id="a_edge19_Node000016_Node000017"><a xlink:title=" ">
<path fill="none" stroke="#63b8ff" d="M376.72,-111.59C391.22,-103.44 412.47,-91.48 429.32,-82"/>
<polygon fill="#63b8ff" stroke="#63b8ff" points="430.83,-85.17 437.83,-77.22 427.4,-79.07 430.83,-85.17"/>
</a>
</g>
</g>
<!-- Node18&#45;&gt;Node13 -->
<g id="edge24_Node000018_Node000013" class="edge">
<title>Node18&#45;&gt;Node13</title>
<g id="a_edge24_Node000018_Node000013"><a xlink:title=" ">
<path fill="none" stroke="#63b8ff" d="M1166.61,-111.51C1116.34,-103.09 1041.04,-90.25 966.35,-76.4"/>
<polygon fill="#63b8ff" stroke="#63b8ff" points="967.29,-73.02 956.82,-74.63 966.01,-79.9 967.29,-73.02"/>
</a>
</g>
</g>
<!-- Node18&#45;&gt;Node14 -->
<g id="edge25_Node000018_Node000014" class="edge">
<title>Node18&#45;&gt;Node14</title>
<g id="a_edge25_Node000018_Node000014"><a xlink:title=" ">
<path fill="none" stroke="#63b8ff" d="M1187.94,-111.59C1153.57,-102.63 1101.63,-89.08 1064.02,-79.27"/>
<polygon fill="#63b8ff" stroke="#63b8ff" points="1065.36,-76 1054.8,-76.86 1063.6,-82.77 1065.36,-76"/>
</a>
</g>
</g>
<!-- Node19&#45;&gt;Node13 -->
<g id="edge27_Node000019_Node000013" class="edge">
<title>Node19&#45;&gt;Node13</title>
<g id="a_edge27_Node000019_Node000013"><a xlink:title=" ">
<path fill="none" stroke="#63b8ff" d="M732.62,-111.53C771.27,-102.3 830.1,-88.24 871.29,-78.4"/>
<polygon fill="#63b8ff" stroke="#63b8ff" points="872.03,-81.82 880.94,-76.09 870.4,-75.01 872.03,-81.82"/>
</a>
</g>
</g>
<!-- Node19&#45;&gt;Node14 -->
<g id="edge28_Node000019_Node000014" class="edge">
<title>Node19&#45;&gt;Node14</title>
<g id="a_edge28_Node000019_Node000014"><a xlink:title=" ">
<path fill="none" stroke="#63b8ff" d="M750.37,-111.54C802.77,-102.88 882.69,-89.64 961.63,-76.39"/>
<polygon fill="#63b8ff" stroke="#63b8ff" points="961.98,-79.88 971.26,-74.78 960.82,-72.98 961.98,-79.88"/>
</a>
</g>
</g>
<!-- Node20&#45;&gt;Node13 -->
<g id="edge30_Node000020_Node000013" class="edge">
<title>Node20&#45;&gt;Node13</title>
<g id="a_edge30_Node000020_Node000013"><a xlink:title=" ">
<path fill="none" stroke="#63b8ff" d="M847.98,-111.59C860.73,-103.59 879.29,-91.93 894.24,-82.54"/>
<polygon fill="#63b8ff" stroke="#63b8ff" points="896.01,-85.57 902.62,-77.28 892.29,-79.64 896.01,-85.57"/>
</a>
</g>
</g>
<!-- Node20&#45;&gt;Node14 -->
<g id="edge31_Node000020_Node000014" class="edge">
<title>Node20&#45;&gt;Node14</title>
<g id="a_edge31_Node000020_Node000014"><a xlink:title=" ">
<path fill="none" stroke="#63b8ff" d="M865.05,-111.59C895.21,-102.74 940.59,-89.43 973.9,-79.65"/>
<polygon fill="#63b8ff" stroke="#63b8ff" points="974.64,-83.08 983.25,-76.91 972.67,-76.36 974.64,-83.08"/>
</a>
</g>
</g>
<!-- Node21&#45;&gt;Node13 -->
<g id="edge40_Node000021_Node000013" class="edge">
<title>Node21&#45;&gt;Node13</title>
<g id="a_edge40_Node000021_Node000013"><a xlink:title=" ">
<path fill="none" stroke="#63b8ff" d="M1301.04,-113.61C1297.99,-113.02 1294.94,-112.48 1292,-112 1150.76,-89.18 1110.87,-97.94 966.35,-76.23"/>
<polygon fill="#63b8ff" stroke="#63b8ff" points="967.21,-72.82 956.8,-74.77 966.15,-79.74 967.21,-72.82"/>
</a>
</g>
</g>
<!-- Node21&#45;&gt;Node14 -->
<g id="edge41_Node000021_Node000014" class="edge">
<title>Node21&#45;&gt;Node14</title>
<g id="a_edge41_Node000021_Node000014"><a xlink:title=" ">
<path fill="none" stroke="#63b8ff" d="M1301.02,-113.77C1297.97,-113.15 1294.93,-112.55 1292,-112 1216.33,-97.71 1128.44,-83.79 1072.78,-75.31"/>
<polygon fill="#63b8ff" stroke="#63b8ff" points="1073.32,-71.85 1062.91,-73.81 1072.27,-78.77 1073.32,-71.85"/>
</a>
</g>
</g>
</g>
</svg>
