<?xml version="1.0" encoding="UTF-8" standalone="no"?>
<!DOCTYPE svg PUBLIC "-//W3C//DTD SVG 1.1//EN"
 "http://www.w3.org/Graphics/SVG/1.1/DTD/svg11.dtd">
<!-- Generated by graphviz version 10.0.1 (0)
 -->
<!-- Title: src/bot_library/bot/include/Bot.hpp Pages: 1 -->
<svg width="3401pt" height="200pt"
 viewBox="0.00 0.00 3401.38 200.00" xmlns="http://www.w3.org/2000/svg" xmlns:xlink="http://www.w3.org/1999/xlink">
<g id="graph0" class="graph" transform="scale(1 1) rotate(0) translate(4 196)">
<title>src/bot_library/bot/include/Bot.hpp</title>
<!-- Node1 -->
<g id="Node000001" class="node">
<title>Node1</title>
<g id="a_Node000001"><a xlink:title=" ">
<polygon fill="#999999" stroke="#666666" points="1770.38,-192 1676.38,-192 1676.38,-160 1770.38,-160 1770.38,-192"/>
<text text-anchor="start" x="1684.38" y="-178.5" font-family="Helvetica,sans-Serif" font-size="10.00">src/bot_library/bot</text>
<text text-anchor="middle" x="1723.38" y="-166.5" font-family="Helvetica,sans-Serif" font-size="10.00">/include/Bot.hpp</text>
</a>
</g>
</g>
<!-- Node2 -->
<g id="Node000002" class="node">
<title>Node2</title>
<g id="a_Node000002"><a xlink:href="BotLibrary_8cpp.html" target="_top" xlink:title=" ">
<polygon fill="white" stroke="#666666" points="142.75,-32 0,-32 0,-12 142.75,-12 142.75,-32"/>
<text text-anchor="middle" x="71.38" y="-18.5" font-family="Helvetica,sans-Serif" font-size="10.00">src/bot_library/BotLibrary.cpp</text>
</a>
</g>
</g>
<!-- Node1&#45;&gt;Node2 -->
<g id="edge1_Node000001_Node000002" class="edge">
<title>Node1&#45;&gt;Node2</title>
<g id="a_edge1_Node000001_Node000002"><a xlink:title=" ">
<path fill="none" stroke="#63b8ff" d="M1664.78,-174.89C1404.78,-174.17 362.21,-168.51 223.38,-124 162.73,-104.56 103.61,-53.38 81.01,-32.29"/>
<polygon fill="#63b8ff" stroke="#63b8ff" points="1664.68,-178.39 1674.69,-174.92 1664.7,-171.39 1664.68,-178.39"/>
</a>
</g>
</g>
<!-- Node3 -->
<g id="Node000003" class="node">
<title>Node3</title>
<g id="a_Node000003"><a xlink:href="Bot_8cpp.html" target="_top" xlink:title=" ">
<polygon fill="white" stroke="#666666" points="3199.38,-118 3105.38,-118 3105.38,-86 3199.38,-86 3199.38,-118"/>
<text text-anchor="start" x="3113.38" y="-104.5" font-family="Helvetica,sans-Serif" font-size="10.00">src/bot_library/bot</text>
<text text-anchor="middle" x="3152.38" y="-92.5" font-family="Helvetica,sans-Serif" font-size="10.00">/Bot.cpp</text>
</a>
</g>
</g>
<!-- Node1&#45;&gt;Node3 -->
<g id="edge2_Node000001_Node000003" class="edge">
<title>Node1&#45;&gt;Node3</title>
<g id="a_edge2_Node000001_Node000003"><a xlink:title=" ">
<path fill="none" stroke="#63b8ff" d="M1782.16,-175.32C2010.58,-176.18 2839.2,-175.58 3096.38,-124 3102.99,-122.67 3109.86,-120.67 3116.42,-118.41"/>
<polygon fill="#63b8ff" stroke="#63b8ff" points="1782.32,-171.82 1772.31,-175.28 1782.3,-178.82 1782.32,-171.82"/>
</a>
</g>
</g>
<!-- Node4 -->
<g id="Node000004" class="node">
<title>Node4</title>
<g id="a_Node000004"><a xlink:href="ChallengeBadgeCommand_8hpp.html" target="_top" xlink:title=" ">
<polygon fill="white" stroke="#666666" points="544.38,-124 378.38,-124 378.38,-80 544.38,-80 544.38,-124"/>
<text text-anchor="start" x="386.38" y="-110.5" font-family="Helvetica,sans-Serif" font-size="10.00">src/bot_library/commands</text>
<text text-anchor="start" x="386.38" y="-98.5" font-family="Helvetica,sans-Serif" font-size="10.00">/challenge_badge/ChallengeBadge</text>
<text text-anchor="middle" x="461.38" y="-86.5" font-family="Helvetica,sans-Serif" font-size="10.00">Command.hpp</text>
</a>
</g>
</g>
<!-- Node1&#45;&gt;Node4 -->
<g id="edge3_Node000001_Node000004" class="edge">
<title>Node1&#45;&gt;Node4</title>
<g id="a_edge3_Node000001_Node000004"><a xlink:title=" ">
<path fill="none" stroke="#63b8ff" d="M1664.47,-173.84C1458.56,-169.57 771.66,-153.42 553.38,-124 550.45,-123.61 547.49,-123.16 544.5,-122.68"/>
<polygon fill="#63b8ff" stroke="#63b8ff" points="1664.33,-177.34 1674.4,-174.05 1664.47,-170.34 1664.33,-177.34"/>
</a>
</g>
</g>
<!-- Node7 -->
<g id="Node000007" class="node">
<title>Node7</title>
<g id="a_Node000007"><a xlink:href="ChallengeRoleCommand_8hpp.html" target="_top" xlink:title=" ">
<polygon fill="white" stroke="#666666" points="774.25,-118 562.5,-118 562.5,-86 774.25,-86 774.25,-118"/>
<text text-anchor="start" x="570.5" y="-104.5" font-family="Helvetica,sans-Serif" font-size="10.00">src/bot_library/commands</text>
<text text-anchor="middle" x="668.38" y="-92.5" font-family="Helvetica,sans-Serif" font-size="10.00">/challenge_role/ChallengeRoleCommand.hpp</text>
</a>
</g>
</g>
<!-- Node1&#45;&gt;Node7 -->
<g id="edge6_Node000001_Node000007" class="edge">
<title>Node1&#45;&gt;Node7</title>
<g id="a_edge6_Node000001_Node000007"><a xlink:title=" ">
<path fill="none" stroke="#63b8ff" d="M1664.77,-174.39C1516.62,-172.29 1115.24,-163.14 783.38,-124 771.08,-122.55 758.11,-120.6 745.5,-118.47"/>
<polygon fill="#63b8ff" stroke="#63b8ff" points="1664.69,-177.89 1674.73,-174.53 1664.78,-170.89 1664.69,-177.89"/>
</a>
</g>
</g>
<!-- Node10 -->
<g id="Node000010" class="node">
<title>Node10</title>
<g id="a_Node000010"><a xlink:href="CleanUp_8hpp.html" target="_top" xlink:title=" ">
<polygon fill="white" stroke="#666666" points="920.62,-118 792.12,-118 792.12,-86 920.62,-86 920.62,-118"/>
<text text-anchor="start" x="800.12" y="-104.5" font-family="Helvetica,sans-Serif" font-size="10.00">src/bot_library/commands</text>
<text text-anchor="middle" x="856.38" y="-92.5" font-family="Helvetica,sans-Serif" font-size="10.00">/clean_up/CleanUp.hpp</text>
</a>
</g>
</g>
<!-- Node1&#45;&gt;Node10 -->
<g id="edge10_Node000001_Node000010" class="edge">
<title>Node1&#45;&gt;Node10</title>
<g id="a_edge10_Node000001_Node000010"><a xlink:title=" ">
<path fill="none" stroke="#63b8ff" d="M1664.62,-175.46C1532.43,-175.58 1201.92,-170.72 930.38,-124 922.22,-122.6 913.67,-120.64 905.4,-118.48"/>
<polygon fill="#63b8ff" stroke="#63b8ff" points="1664.54,-178.96 1674.53,-175.44 1664.52,-171.96 1664.54,-178.96"/>
</a>
</g>
</g>
<!-- Node12 -->
<g id="Node000012" class="node">
<title>Node12</title>
<g id="a_Node000012"><a xlink:href="FlipCommand_8hpp.html" target="_top" xlink:title=" ">
<polygon fill="white" stroke="#666666" points="1067.62,-118 939.12,-118 939.12,-86 1067.62,-86 1067.62,-118"/>
<text text-anchor="start" x="947.12" y="-104.5" font-family="Helvetica,sans-Serif" font-size="10.00">src/bot_library/commands</text>
<text text-anchor="middle" x="1003.38" y="-92.5" font-family="Helvetica,sans-Serif" font-size="10.00">/flip/FlipCommand.hpp</text>
</a>
</g>
</g>
<!-- Node1&#45;&gt;Node12 -->
<g id="edge13_Node000001_Node000012" class="edge">
<title>Node1&#45;&gt;Node12</title>
<g id="a_edge13_Node000001_Node000012"><a xlink:title=" ">
<path fill="none" stroke="#63b8ff" d="M1664.73,-174.24C1550.69,-171.91 1291.48,-162.44 1077.38,-124 1069.36,-122.56 1060.96,-120.61 1052.82,-118.49"/>
<polygon fill="#63b8ff" stroke="#63b8ff" points="1664.38,-177.73 1674.44,-174.43 1664.51,-170.73 1664.38,-177.73"/>
</a>
</g>
</g>
<!-- Node14 -->
<g id="Node000014" class="node">
<title>Node14</title>
<g id="a_Node000014"><a xlink:href="HelpCommand_8hpp.html" target="_top" xlink:title=" ">
<polygon fill="white" stroke="#666666" points="1214.62,-118 1086.12,-118 1086.12,-86 1214.62,-86 1214.62,-118"/>
<text text-anchor="start" x="1094.12" y="-104.5" font-family="Helvetica,sans-Serif" font-size="10.00">src/bot_library/commands</text>
<text text-anchor="middle" x="1150.38" y="-92.5" font-family="Helvetica,sans-Serif" font-size="10.00">/help/HelpCommand.hpp</text>
</a>
</g>
</g>
<!-- Node1&#45;&gt;Node14 -->
<g id="edge16_Node000001_Node000014" class="edge">
<title>Node1&#45;&gt;Node14</title>
<g id="a_edge16_Node000001_Node000014"><a xlink:title=" ">
<path fill="none" stroke="#63b8ff" d="M1664.86,-172.42C1570.99,-167.52 1381.28,-154.51 1223.38,-124 1215.61,-122.5 1207.47,-120.55 1199.56,-118.44"/>
<polygon fill="#63b8ff" stroke="#63b8ff" points="1664.42,-175.9 1674.58,-172.91 1664.77,-168.91 1664.42,-175.9"/>
</a>
</g>
</g>
<!-- Node16 -->
<g id="Node000016" class="node">
<title>Node16</title>
<g id="a_Node000016"><a xlink:href="Commands_8hpp.html" target="_top" xlink:title=" ">
<polygon fill="white" stroke="#666666" points="360.62,-118 232.12,-118 232.12,-86 360.62,-86 360.62,-118"/>
<text text-anchor="start" x="240.12" y="-104.5" font-family="Helvetica,sans-Serif" font-size="10.00">src/bot_library/commands</text>
<text text-anchor="middle" x="296.38" y="-92.5" font-family="Helvetica,sans-Serif" font-size="10.00">/include/Commands.hpp</text>
</a>
</g>
</g>
<!-- Node1&#45;&gt;Node16 -->
<g id="edge19_Node000001_Node000016" class="edge">
<title>Node1&#45;&gt;Node16</title>
<g id="a_edge19_Node000001_Node000016"><a xlink:title=" ">
<path fill="none" stroke="#63b8ff" d="M1664.75,-174.68C1438.83,-173.15 624.5,-164.88 369.38,-124 361.04,-122.66 352.31,-120.68 343.91,-118.47"/>
<polygon fill="#63b8ff" stroke="#63b8ff" points="1664.46,-178.18 1674.49,-174.74 1664.51,-171.18 1664.46,-178.18"/>
</a>
</g>
</g>
<!-- Node17 -->
<g id="Node000017" class="node">
<title>Node17</title>
<g id="a_Node000017"><a xlink:href="InitDatabase_8hpp.html" target="_top" xlink:title=" ">
<polygon fill="white" stroke="#666666" points="3382.38,-118 3228.38,-118 3228.38,-86 3382.38,-86 3382.38,-118"/>
<text text-anchor="start" x="3236.38" y="-104.5" font-family="Helvetica,sans-Serif" font-size="10.00">src/bot_library/commands</text>
<text text-anchor="middle" x="3305.38" y="-92.5" font-family="Helvetica,sans-Serif" font-size="10.00">/init_database/InitDatabase.hpp</text>
</a>
</g>
</g>
<!-- Node1&#45;&gt;Node17 -->
<g id="edge22_Node000001_Node000017" class="edge">
<title>Node1&#45;&gt;Node17</title>
<g id="a_edge22_Node000001_Node000017"><a xlink:title=" ">
<path fill="none" stroke="#63b8ff" d="M1781.98,-174.39C2021.27,-171.67 2925.03,-159.25 3208.38,-124 3219.23,-122.65 3230.67,-120.68 3241.74,-118.47"/>
<polygon fill="#63b8ff" stroke="#63b8ff" points="1782.23,-170.88 1772.27,-174.5 1782.31,-177.88 1782.23,-170.88"/>
</a>
</g>
</g>
<!-- Node19 -->
<g id="Node000019" class="node">
<title>Node19</title>
<g id="a_Node000019"><a xlink:href="InviteCommand_8hpp.html" target="_top" xlink:title=" ">
<polygon fill="white" stroke="#666666" points="1365.88,-118 1232.88,-118 1232.88,-86 1365.88,-86 1365.88,-118"/>
<text text-anchor="start" x="1240.88" y="-104.5" font-family="Helvetica,sans-Serif" font-size="10.00">src/bot_library/commands</text>
<text text-anchor="middle" x="1299.38" y="-92.5" font-family="Helvetica,sans-Serif" font-size="10.00">/invite/InviteCommand.hpp</text>
</a>
</g>
</g>
<!-- Node1&#45;&gt;Node19 -->
<g id="edge24_Node000001_Node000019" class="edge">
<title>Node1&#45;&gt;Node19</title>
<g id="a_edge24_Node000001_Node000019"><a xlink:title=" ">
<path fill="none" stroke="#63b8ff" d="M1664.92,-168.68C1595.46,-160.65 1476.27,-145.25 1375.38,-124 1367.74,-122.39 1359.74,-120.46 1351.91,-118.43"/>
<polygon fill="#63b8ff" stroke="#63b8ff" points="1664.21,-172.12 1674.54,-169.78 1665.01,-165.17 1664.21,-172.12"/>
</a>
</g>
</g>
<!-- Node21 -->
<g id="Node000021" class="node">
<title>Node21</title>
<g id="a_Node000021"><a xlink:href="MemberCommand_8hpp.html" target="_top" xlink:title=" ">
<polygon fill="white" stroke="#666666" points="1540.5,-118 1384.25,-118 1384.25,-86 1540.5,-86 1540.5,-118"/>
<text text-anchor="start" x="1392.25" y="-104.5" font-family="Helvetica,sans-Serif" font-size="10.00">src/bot_library/commands</text>
<text text-anchor="middle" x="1462.38" y="-92.5" font-family="Helvetica,sans-Serif" font-size="10.00">/member/MemberCommand.hpp</text>
</a>
</g>
</g>
<!-- Node1&#45;&gt;Node21 -->
<g id="edge27_Node000001_Node000021" class="edge">
<title>Node1&#45;&gt;Node21</title>
<g id="a_edge27_Node000001_Node000021"><a xlink:title=" ">
<path fill="none" stroke="#63b8ff" d="M1665.05,-158.91C1621.24,-146.82 1561.59,-130.37 1518.36,-118.44"/>
<polygon fill="#63b8ff" stroke="#63b8ff" points="1664.08,-162.27 1674.65,-161.56 1665.94,-155.53 1664.08,-162.27"/>
</a>
</g>
</g>
<!-- Node23 -->
<g id="Node000023" class="node">
<title>Node23</title>
<g id="a_Node000023"><a xlink:href="ProductsCommand_8hpp.html" target="_top" xlink:title=" ">
<polygon fill="white" stroke="#666666" points="1720.5,-118 1558.25,-118 1558.25,-86 1720.5,-86 1720.5,-118"/>
<text text-anchor="start" x="1566.25" y="-104.5" font-family="Helvetica,sans-Serif" font-size="10.00">src/bot_library/commands</text>
<text text-anchor="middle" x="1639.38" y="-92.5" font-family="Helvetica,sans-Serif" font-size="10.00">/products/ProductsCommand.hpp</text>
</a>
</g>
</g>
<!-- Node1&#45;&gt;Node23 -->
<g id="edge30_Node000001_Node000023" class="edge">
<title>Node1&#45;&gt;Node23</title>
<g id="a_edge30_Node000001_Node000023"><a xlink:title=" ">
<path fill="none" stroke="#63b8ff" d="M1697.08,-152.46C1684.2,-141.42 1669.01,-128.4 1657.45,-118.5"/>
<polygon fill="#63b8ff" stroke="#63b8ff" points="1694.54,-154.9 1704.41,-158.75 1699.1,-149.58 1694.54,-154.9"/>
</a>
</g>
</g>
<!-- Node25 -->
<g id="Node000025" class="node">
<title>Node25</title>
<g id="a_Node000025"><a xlink:href="ProfileCommand_8hpp.html" target="_top" xlink:title=" ">
<polygon fill="white" stroke="#666666" points="1878.25,-118 1738.5,-118 1738.5,-86 1878.25,-86 1878.25,-118"/>
<text text-anchor="start" x="1746.5" y="-104.5" font-family="Helvetica,sans-Serif" font-size="10.00">src/bot_library/commands</text>
<text text-anchor="middle" x="1808.38" y="-92.5" font-family="Helvetica,sans-Serif" font-size="10.00">/profile/ProfileCommand.hpp</text>
</a>
</g>
</g>
<!-- Node1&#45;&gt;Node25 -->
<g id="edge33_Node000001_Node000025" class="edge">
<title>Node1&#45;&gt;Node25</title>
<g id="a_edge33_Node000001_Node000025"><a xlink:title=" ">
<path fill="none" stroke="#63b8ff" d="M1749.98,-152.46C1763.02,-141.42 1778.38,-128.4 1790.08,-118.5"/>
<polygon fill="#63b8ff" stroke="#63b8ff" points="1747.92,-149.62 1742.56,-158.75 1752.45,-154.96 1747.92,-149.62"/>
</a>
</g>
</g>
<!-- Node27 -->
<g id="Node000027" class="node">
<title>Node27</title>
<g id="a_Node000027"><a xlink:href="ReactionRoles_8hpp.html" target="_top" xlink:title=" ">
<polygon fill="white" stroke="#666666" points="2062.38,-118 1896.38,-118 1896.38,-86 2062.38,-86 2062.38,-118"/>
<text text-anchor="start" x="1904.38" y="-104.5" font-family="Helvetica,sans-Serif" font-size="10.00">src/bot_library/commands</text>
<text text-anchor="middle" x="1979.38" y="-92.5" font-family="Helvetica,sans-Serif" font-size="10.00">/reaction_roles/ReactionRoles.hpp</text>
</a>
</g>
</g>
<!-- Node1&#45;&gt;Node27 -->
<g id="edge36_Node000001_Node000027" class="edge">
<title>Node1&#45;&gt;Node27</title>
<g id="a_edge36_Node000001_Node000027"><a xlink:title=" ">
<path fill="none" stroke="#63b8ff" d="M1781.46,-158.66C1824.32,-146.61 1882.28,-130.31 1924.39,-118.46"/>
<polygon fill="#63b8ff" stroke="#63b8ff" points="1780.76,-155.22 1772.08,-161.3 1782.66,-161.96 1780.76,-155.22"/>
</a>
</g>
</g>
<!-- Node29 -->
<g id="Node000029" class="node">
<title>Node29</title>
<g id="a_Node000029"><a xlink:href="ResourcesCommand_8hpp.html" target="_top" xlink:title=" ">
<polygon fill="white" stroke="#666666" points="2256.25,-118 2080.5,-118 2080.5,-86 2256.25,-86 2256.25,-118"/>
<text text-anchor="start" x="2088.5" y="-104.5" font-family="Helvetica,sans-Serif" font-size="10.00">src/bot_library/commands</text>
<text text-anchor="middle" x="2168.38" y="-92.5" font-family="Helvetica,sans-Serif" font-size="10.00">/resources/ResourcesCommand.hpp</text>
</a>
</g>
</g>
<!-- Node1&#45;&gt;Node29 -->
<g id="edge39_Node000001_Node000029" class="edge">
<title>Node1&#45;&gt;Node29</title>
<g id="a_edge39_Node000001_Node000029"><a xlink:title=" ">
<path fill="none" stroke="#63b8ff" d="M1781.93,-167.65C1851.24,-158.66 1970.07,-142.37 2071.38,-124 2080.53,-122.34 2090.14,-120.45 2099.6,-118.49"/>
<polygon fill="#63b8ff" stroke="#63b8ff" points="1781.79,-164.14 1772.32,-168.89 1782.69,-171.08 1781.79,-164.14"/>
</a>
</g>
</g>
<!-- Node31 -->
<g id="Node000031" class="node">
<title>Node31</title>
<g id="a_Node000031"><a xlink:href="RollCommand_8hpp.html" target="_top" xlink:title=" ">
<polygon fill="white" stroke="#666666" points="2402.62,-118 2274.12,-118 2274.12,-86 2402.62,-86 2402.62,-118"/>
<text text-anchor="start" x="2282.12" y="-104.5" font-family="Helvetica,sans-Serif" font-size="10.00">src/bot_library/commands</text>
<text text-anchor="middle" x="2338.38" y="-92.5" font-family="Helvetica,sans-Serif" font-size="10.00">/roll/RollCommand.hpp</text>
</a>
</g>
</g>
<!-- Node1&#45;&gt;Node31 -->
<g id="edge42_Node000001_Node000031" class="edge">
<title>Node1&#45;&gt;Node31</title>
<g id="a_edge42_Node000001_Node000031"><a xlink:title=" ">
<path fill="none" stroke="#63b8ff" d="M1781.89,-173.06C1881.81,-168.96 2091.41,-156.91 2265.38,-124 2273.15,-122.53 2281.29,-120.59 2289.2,-118.49"/>
<polygon fill="#63b8ff" stroke="#63b8ff" points="1781.91,-169.56 1772.06,-173.45 1782.19,-176.55 1781.91,-169.56"/>
</a>
</g>
</g>
<!-- Node33 -->
<g id="Node000033" class="node">
<title>Node33</title>
<g id="a_Node000033"><a xlink:href="ServerDetails_8hpp.html" target="_top" xlink:title=" ">
<polygon fill="white" stroke="#666666" points="2581.75,-118 2421,-118 2421,-86 2581.75,-86 2581.75,-118"/>
<text text-anchor="start" x="2429" y="-104.5" font-family="Helvetica,sans-Serif" font-size="10.00">src/bot_library/commands</text>
<text text-anchor="middle" x="2501.38" y="-92.5" font-family="Helvetica,sans-Serif" font-size="10.00">/server_details/ServerDetails.hpp</text>
</a>
</g>
</g>
<!-- Node1&#45;&gt;Node33 -->
<g id="edge45_Node000001_Node000033" class="edge">
<title>Node1&#45;&gt;Node33</title>
<g id="a_edge45_Node000001_Node000033"><a xlink:title=" ">
<path fill="none" stroke="#63b8ff" d="M1782.17,-173.71C1901.45,-170.43 2180.2,-159.32 2411.38,-124 2421.05,-122.52 2431.22,-120.56 2441.11,-118.42"/>
<polygon fill="#63b8ff" stroke="#63b8ff" points="1782.2,-170.21 1772.3,-173.98 1782.39,-177.21 1782.2,-170.21"/>
</a>
</g>
</g>
<!-- Node35 -->
<g id="Node000035" class="node">
<title>Node35</title>
<g id="a_Node000035"><a xlink:href="SetChannelCommand_8hpp.html" target="_top" xlink:title=" ">
<polygon fill="white" stroke="#666666" points="2789,-118 2599.75,-118 2599.75,-86 2789,-86 2789,-118"/>
<text text-anchor="start" x="2607.75" y="-104.5" font-family="Helvetica,sans-Serif" font-size="10.00">src/bot_library/commands</text>
<text text-anchor="middle" x="2694.38" y="-92.5" font-family="Helvetica,sans-Serif" font-size="10.00">/set_channel/SetChannelCommand.hpp</text>
</a>
</g>
</g>
<!-- Node1&#45;&gt;Node35 -->
<g id="edge48_Node000001_Node000035" class="edge">
<title>Node1&#45;&gt;Node35</title>
<g id="a_edge48_Node000001_Node000035"><a xlink:title=" ">
<path fill="none" stroke="#63b8ff" d="M1781.86,-174.39C1922.01,-172.31 2287.86,-163.24 2590.38,-124 2601.52,-122.55 2613.26,-120.61 2624.67,-118.48"/>
<polygon fill="#63b8ff" stroke="#63b8ff" points="1782.05,-170.89 1772.1,-174.53 1782.15,-177.89 1782.05,-170.89"/>
</a>
</g>
</g>
<!-- Node37 -->
<g id="Node000037" class="node">
<title>Node37</title>
<g id="a_Node000037"><a xlink:href="SetStatus_8hpp.html" target="_top" xlink:title=" ">
<polygon fill="white" stroke="#666666" points="2937.38,-118 2807.38,-118 2807.38,-86 2937.38,-86 2937.38,-118"/>
<text text-anchor="start" x="2815.38" y="-104.5" font-family="Helvetica,sans-Serif" font-size="10.00">src/bot_library/commands</text>
<text text-anchor="middle" x="2872.38" y="-92.5" font-family="Helvetica,sans-Serif" font-size="10.00">/set_status/SetStatus.hpp</text>
</a>
</g>
</g>
<!-- Node1&#45;&gt;Node37 -->
<g id="edge51_Node000001_Node000037" class="edge">
<title>Node1&#45;&gt;Node37</title>
<g id="a_edge51_Node000001_Node000037"><a xlink:title=" ">
<path fill="none" stroke="#63b8ff" d="M1782.06,-173.99C1976.74,-170.34 2600.16,-156.39 2798.38,-124 2806.68,-122.64 2815.38,-120.68 2823.77,-118.5"/>
<polygon fill="#63b8ff" stroke="#63b8ff" points="1782.12,-170.48 1772.18,-174.17 1782.25,-177.48 1782.12,-170.48"/>
</a>
</g>
</g>
<!-- Node39 -->
<g id="Node000039" class="node">
<title>Node39</title>
<g id="a_Node000039"><a xlink:href="TextsCommand_8hpp.html" target="_top" xlink:title=" ">
<polygon fill="white" stroke="#666666" points="3087.12,-118 2955.62,-118 2955.62,-86 3087.12,-86 3087.12,-118"/>
<text text-anchor="start" x="2963.62" y="-104.5" font-family="Helvetica,sans-Serif" font-size="10.00">src/bot_library/commands</text>
<text text-anchor="middle" x="3021.38" y="-92.5" font-family="Helvetica,sans-Serif" font-size="10.00">/texts/TextsCommand.hpp</text>
</a>
</g>
</g>
<!-- Node1&#45;&gt;Node39 -->
<g id="edge54_Node000001_Node000039" class="edge">
<title>Node1&#45;&gt;Node39</title>
<g id="a_edge54_Node000001_Node000039"><a xlink:title=" ">
<path fill="none" stroke="#63b8ff" d="M1782.15,-174.35C1994.01,-171.72 2717.98,-160.24 2946.38,-124 2954.92,-122.64 2963.88,-120.65 2972.52,-118.43"/>
<polygon fill="#63b8ff" stroke="#63b8ff" points="1782.16,-170.85 1772.21,-174.47 1782.25,-177.85 1782.16,-170.85"/>
</a>
</g>
</g>
<!-- Node5 -->
<g id="Node000005" class="node">
<title>Node5</title>
<g id="a_Node000005"><a xlink:href="Commands_8cpp.html" target="_top" xlink:title=" ">
<polygon fill="white" stroke="#666666" points="1854.62,-38 1726.12,-38 1726.12,-6 1854.62,-6 1854.62,-38"/>
<text text-anchor="start" x="1734.12" y="-24.5" font-family="Helvetica,sans-Serif" font-size="10.00">src/bot_library/commands</text>
<text text-anchor="middle" x="1790.38" y="-12.5" font-family="Helvetica,sans-Serif" font-size="10.00">/Commands.cpp</text>
</a>
</g>
</g>
<!-- Node4&#45;&gt;Node5 -->
<g id="edge4_Node000004_Node000005" class="edge">
<title>Node4&#45;&gt;Node5</title>
<g id="a_edge4_Node000004_Node000005"><a xlink:title=" ">
<path fill="none" stroke="#63b8ff" d="M555.9,-79.82C1068.8,-15.7 1209.79,-123.58 1717.38,-44 1725.84,-42.67 1734.72,-40.67 1743.25,-38.41"/>
<polygon fill="#63b8ff" stroke="#63b8ff" points="555.47,-76.35 545.99,-81.08 556.35,-83.29 555.47,-76.35"/>
</a>
</g>
</g>
<!-- Node6 -->
<g id="Node000006" class="node">
<title>Node6</title>
<g id="a_Node000006"><a xlink:href="ChallengeBadgeCommand_8cpp.html" target="_top" xlink:title=" ">
<polygon fill="white" stroke="#666666" points="326.38,-44 160.38,-44 160.38,0 326.38,0 326.38,-44"/>
<text text-anchor="start" x="168.38" y="-30.5" font-family="Helvetica,sans-Serif" font-size="10.00">src/bot_library/commands</text>
<text text-anchor="start" x="168.38" y="-18.5" font-family="Helvetica,sans-Serif" font-size="10.00">/challenge_badge/ChallengeBadge</text>
<text text-anchor="middle" x="243.38" y="-6.5" font-family="Helvetica,sans-Serif" font-size="10.00">Command.cpp</text>
</a>
</g>
</g>
<!-- Node4&#45;&gt;Node6 -->
<g id="edge5_Node000004_Node000006" class="edge">
<title>Node4&#45;&gt;Node6</title>
<g id="a_edge5_Node000004_Node000006"><a xlink:title=" ">
<path fill="none" stroke="#63b8ff" d="M390.87,-75.78C362.55,-65.64 330.24,-54.08 303.1,-44.37"/>
<polygon fill="#63b8ff" stroke="#63b8ff" points="389.5,-79 400.09,-79.07 391.86,-72.41 389.5,-79"/>
</a>
</g>
</g>
<!-- Node7&#45;&gt;Node5 -->
<g id="edge7_Node000007_Node000005" class="edge">
<title>Node7&#45;&gt;Node5</title>
<g id="a_edge7_Node000007_Node000005"><a xlink:title=" ">
<path fill="none" stroke="#63b8ff" d="M755.82,-83.7C765.09,-82.26 774.41,-80.99 783.38,-80 1196.3,-34.57 1307.22,-109.9 1717.38,-44 1725.71,-42.66 1734.44,-40.68 1742.84,-38.46"/>
<polygon fill="#63b8ff" stroke="#63b8ff" points="755.35,-80.23 746.04,-85.28 756.47,-87.14 755.35,-80.23"/>
</a>
</g>
</g>
<!-- Node8 -->
<g id="Node000008" class="node">
<title>Node8</title>
<g id="a_Node000008"><a xlink:href="ChallengeRoleCommand_8cpp.html" target="_top" xlink:title=" ">
<polygon fill="white" stroke="#666666" points="556.25,-38 344.5,-38 344.5,-6 556.25,-6 556.25,-38"/>
<text text-anchor="start" x="352.5" y="-24.5" font-family="Helvetica,sans-Serif" font-size="10.00">src/bot_library/commands</text>
<text text-anchor="middle" x="450.38" y="-12.5" font-family="Helvetica,sans-Serif" font-size="10.00">/challenge_role/ChallengeRoleCommand.cpp</text>
</a>
</g>
</g>
<!-- Node7&#45;&gt;Node8 -->
<g id="edge8_Node000007_Node000008" class="edge">
<title>Node7&#45;&gt;Node8</title>
<g id="a_edge8_Node000007_Node000008"><a xlink:title=" ">
<path fill="none" stroke="#63b8ff" d="M614.61,-81.76C577.25,-68.39 528.12,-50.82 493.36,-38.38"/>
<polygon fill="#63b8ff" stroke="#63b8ff" points="613.29,-85.01 623.88,-85.08 615.64,-78.42 613.29,-85.01"/>
</a>
</g>
</g>
<!-- Node9 -->
<g id="Node000009" class="node">
<title>Node9</title>
<g id="a_Node000009"><a xlink:href="ChallengeRoleDTO_8cpp.html" target="_top" xlink:title=" ">
<polygon fill="white" stroke="#666666" points="762.25,-38 574.5,-38 574.5,-6 762.25,-6 762.25,-38"/>
<text text-anchor="start" x="582.5" y="-24.5" font-family="Helvetica,sans-Serif" font-size="10.00">src/bot_library/commands</text>
<text text-anchor="middle" x="668.38" y="-12.5" font-family="Helvetica,sans-Serif" font-size="10.00">/challenge_role/ChallengeRoleDTO.cpp</text>
</a>
</g>
</g>
<!-- Node7&#45;&gt;Node9 -->
<g id="edge9_Node000007_Node000009" class="edge">
<title>Node7&#45;&gt;Node9</title>
<g id="a_edge9_Node000007_Node000009"><a xlink:title=" ">
<path fill="none" stroke="#63b8ff" d="M668.38,-74.37C668.38,-62.37 668.38,-48.63 668.38,-38.38"/>
<polygon fill="#63b8ff" stroke="#63b8ff" points="664.88,-74.08 668.38,-84.08 671.88,-74.08 664.88,-74.08"/>
</a>
</g>
</g>
<!-- Node10&#45;&gt;Node5 -->
<g id="edge11_Node000010_Node000005" class="edge">
<title>Node10&#45;&gt;Node5</title>
<g id="a_edge11_Node000010_Node000005"><a xlink:title=" ">
<path fill="none" stroke="#63b8ff" d="M915.48,-82.93C920.48,-81.79 925.5,-80.79 930.38,-80 1275.98,-23.83 1371.87,-100.79 1717.38,-44 1725.7,-42.63 1734.43,-40.63 1742.84,-38.41"/>
<polygon fill="#63b8ff" stroke="#63b8ff" points="914.93,-79.46 906.05,-85.24 916.59,-86.26 914.93,-79.46"/>
</a>
</g>
</g>
<!-- Node11 -->
<g id="Node000011" class="node">
<title>Node11</title>
<g id="a_Node000011"><a xlink:href="CleanUp_8cpp.html" target="_top" xlink:title=" ">
<polygon fill="white" stroke="#666666" points="908.62,-38 780.12,-38 780.12,-6 908.62,-6 908.62,-38"/>
<text text-anchor="start" x="788.12" y="-24.5" font-family="Helvetica,sans-Serif" font-size="10.00">src/bot_library/commands</text>
<text text-anchor="middle" x="844.38" y="-12.5" font-family="Helvetica,sans-Serif" font-size="10.00">/clean_up/CleanUp.cpp</text>
</a>
</g>
</g>
<!-- Node10&#45;&gt;Node11 -->
<g id="edge12_Node000010_Node000011" class="edge">
<title>Node10&#45;&gt;Node11</title>
<g id="a_edge12_Node000010_Node000011"><a xlink:title=" ">
<path fill="none" stroke="#63b8ff" d="M852.28,-74.37C850.43,-62.37 848.32,-48.63 846.74,-38.38"/>
<polygon fill="#63b8ff" stroke="#63b8ff" points="848.79,-74.74 853.77,-84.09 855.71,-73.68 848.79,-74.74"/>
</a>
</g>
</g>
<!-- Node12&#45;&gt;Node5 -->
<g id="edge14_Node000012_Node000005" class="edge">
<title>Node12&#45;&gt;Node5</title>
<g id="a_edge14_Node000012_Node000005"><a xlink:title=" ">
<path fill="none" stroke="#63b8ff" d="M1063.12,-82.84C1067.91,-81.75 1072.71,-80.78 1077.38,-80 1358.34,-32.83 1436.5,-91.68 1717.38,-44 1725.57,-42.61 1734.15,-40.63 1742.43,-38.44"/>
<polygon fill="#63b8ff" stroke="#63b8ff" points="1062.34,-79.43 1053.46,-85.21 1064,-86.23 1062.34,-79.43"/>
</a>
</g>
</g>
<!-- Node13 -->
<g id="Node000013" class="node">
<title>Node13</title>
<g id="a_Node000013"><a xlink:href="FlipCommand_8cpp.html" target="_top" xlink:title=" ">
<polygon fill="white" stroke="#666666" points="1055.62,-38 927.12,-38 927.12,-6 1055.62,-6 1055.62,-38"/>
<text text-anchor="start" x="935.12" y="-24.5" font-family="Helvetica,sans-Serif" font-size="10.00">src/bot_library/commands</text>
<text text-anchor="middle" x="991.38" y="-12.5" font-family="Helvetica,sans-Serif" font-size="10.00">/flip/FlipCommand.cpp</text>
</a>
</g>
</g>
<!-- Node12&#45;&gt;Node13 -->
<g id="edge15_Node000012_Node000013" class="edge">
<title>Node12&#45;&gt;Node13</title>
<g id="a_edge15_Node000012_Node000013"><a xlink:title=" ">
<path fill="none" stroke="#63b8ff" d="M999.28,-74.37C997.43,-62.37 995.32,-48.63 993.74,-38.38"/>
<polygon fill="#63b8ff" stroke="#63b8ff" points="995.79,-74.74 1000.77,-84.09 1002.71,-73.68 995.79,-74.74"/>
</a>
</g>
</g>
<!-- Node14&#45;&gt;Node5 -->
<g id="edge17_Node000014_Node000005" class="edge">
<title>Node14&#45;&gt;Node5</title>
<g id="a_edge17_Node000014_Node000005"><a xlink:title=" ">
<path fill="none" stroke="#63b8ff" d="M1209.55,-82.87C1214.2,-81.78 1218.85,-80.81 1223.38,-80 1440.1,-41.36 1500.65,-82.64 1717.38,-44 1725.42,-42.56 1733.86,-40.59 1742.01,-38.43"/>
<polygon fill="#63b8ff" stroke="#63b8ff" points="1209.06,-79.38 1200.2,-85.2 1210.75,-86.18 1209.06,-79.38"/>
</a>
</g>
</g>
<!-- Node15 -->
<g id="Node000015" class="node">
<title>Node15</title>
<g id="a_Node000015"><a xlink:href="HelpCommand_8cpp.html" target="_top" xlink:title=" ">
<polygon fill="white" stroke="#666666" points="1202.62,-38 1074.12,-38 1074.12,-6 1202.62,-6 1202.62,-38"/>
<text text-anchor="start" x="1082.12" y="-24.5" font-family="Helvetica,sans-Serif" font-size="10.00">src/bot_library/commands</text>
<text text-anchor="middle" x="1138.38" y="-12.5" font-family="Helvetica,sans-Serif" font-size="10.00">/help/HelpCommand.cpp</text>
</a>
</g>
</g>
<!-- Node14&#45;&gt;Node15 -->
<g id="edge18_Node000014_Node000015" class="edge">
<title>Node14&#45;&gt;Node15</title>
<g id="a_edge18_Node000014_Node000015"><a xlink:title=" ">
<path fill="none" stroke="#63b8ff" d="M1146.28,-74.37C1144.43,-62.37 1142.32,-48.63 1140.74,-38.38"/>
<polygon fill="#63b8ff" stroke="#63b8ff" points="1142.79,-74.74 1147.77,-84.09 1149.71,-73.68 1142.79,-74.74"/>
</a>
</g>
</g>
<!-- Node16&#45;&gt;Node2 -->
<g id="edge20_Node000016_Node000002" class="edge">
<title>Node16&#45;&gt;Node2</title>
<g id="a_edge20_Node000016_Node000002"><a xlink:title=" ">
<path fill="none" stroke="#63b8ff" d="M241.11,-81.84C195.93,-66.18 133.95,-44.69 98.75,-32.49"/>
<polygon fill="#63b8ff" stroke="#63b8ff" points="239.9,-85.13 250.49,-85.09 242.19,-78.51 239.9,-85.13"/>
</a>
</g>
</g>
<!-- Node16&#45;&gt;Node5 -->
<g id="edge21_Node000016_Node000005" class="edge">
<title>Node16&#45;&gt;Node5</title>
<g id="a_edge21_Node000016_Node000005"><a xlink:title=" ">
<path fill="none" stroke="#63b8ff" d="M354.42,-82.88C359.44,-81.74 364.48,-80.76 369.38,-80 961.66,11.58 1125.09,-135.58 1717.38,-44 1725.85,-42.69 1734.72,-40.69 1743.25,-38.44"/>
<polygon fill="#63b8ff" stroke="#63b8ff" points="353.85,-79.42 344.97,-85.2 355.52,-86.21 353.85,-79.42"/>
</a>
</g>
</g>
<!-- Node18 -->
<g id="Node000018" class="node">
<title>Node18</title>
<g id="a_Node000018"><a xlink:href="InitDatabase_8cpp.html" target="_top" xlink:title=" ">
<polygon fill="white" stroke="#666666" points="3393.38,-38 3239.38,-38 3239.38,-6 3393.38,-6 3393.38,-38"/>
<text text-anchor="start" x="3247.38" y="-24.5" font-family="Helvetica,sans-Serif" font-size="10.00">src/bot_library/commands</text>
<text text-anchor="middle" x="3316.38" y="-12.5" font-family="Helvetica,sans-Serif" font-size="10.00">/init_database/InitDatabase.cpp</text>
</a>
</g>
</g>
<!-- Node17&#45;&gt;Node18 -->
<g id="edge23_Node000017_Node000018" class="edge">
<title>Node17&#45;&gt;Node18</title>
<g id="a_edge23_Node000017_Node000018"><a xlink:title=" ">
<path fill="none" stroke="#63b8ff" d="M3309.13,-74.37C3310.82,-62.37 3312.76,-48.63 3314.21,-38.38"/>
<polygon fill="#63b8ff" stroke="#63b8ff" points="3305.69,-73.7 3307.76,-84.09 3312.62,-74.68 3305.69,-73.7"/>
</a>
</g>
</g>
<!-- Node19&#45;&gt;Node5 -->
<g id="edge25_Node000019_Node000005" class="edge">
<title>Node19&#45;&gt;Node5</title>
<g id="a_edge25_Node000019_Node000005"><a xlink:title=" ">
<path fill="none" stroke="#63b8ff" d="M1362.11,-82.8C1366.58,-81.77 1371.04,-80.82 1375.38,-80 1525.54,-51.55 1567.36,-73.24 1717.38,-44 1725.14,-42.49 1733.28,-40.53 1741.18,-38.42"/>
<polygon fill="#63b8ff" stroke="#63b8ff" points="1361.39,-79.38 1352.5,-85.14 1363.04,-86.18 1361.39,-79.38"/>
</a>
</g>
</g>
<!-- Node20 -->
<g id="Node000020" class="node">
<title>Node20</title>
<g id="a_Node000020"><a xlink:href="InviteCommand_8cpp.html" target="_top" xlink:title=" ">
<polygon fill="white" stroke="#666666" points="1353.88,-38 1220.88,-38 1220.88,-6 1353.88,-6 1353.88,-38"/>
<text text-anchor="start" x="1228.88" y="-24.5" font-family="Helvetica,sans-Serif" font-size="10.00">src/bot_library/commands</text>
<text text-anchor="middle" x="1287.38" y="-12.5" font-family="Helvetica,sans-Serif" font-size="10.00">/invite/InviteCommand.cpp</text>
</a>
</g>
</g>
<!-- Node19&#45;&gt;Node20 -->
<g id="edge26_Node000019_Node000020" class="edge">
<title>Node19&#45;&gt;Node20</title>
<g id="a_edge26_Node000019_Node000020"><a xlink:title=" ">
<path fill="none" stroke="#63b8ff" d="M1295.28,-74.37C1293.43,-62.37 1291.32,-48.63 1289.74,-38.38"/>
<polygon fill="#63b8ff" stroke="#63b8ff" points="1291.79,-74.74 1296.77,-84.09 1298.71,-73.68 1291.79,-74.74"/>
</a>
</g>
</g>
<!-- Node21&#45;&gt;Node5 -->
<g id="edge28_Node000021_Node000005" class="edge">
<title>Node21&#45;&gt;Node5</title>
<g id="a_edge28_Node000021_Node000005"><a xlink:title=" ">
<path fill="none" stroke="#63b8ff" d="M1536.44,-82.99C1540.81,-81.96 1545.15,-80.96 1549.38,-80 1623.83,-63.04 1643.3,-62.57 1717.38,-44 1724.15,-42.3 1731.26,-40.4 1738.26,-38.47"/>
<polygon fill="#63b8ff" stroke="#63b8ff" points="1535.93,-79.51 1527,-85.21 1537.54,-86.32 1535.93,-79.51"/>
</a>
</g>
</g>
<!-- Node22 -->
<g id="Node000022" class="node">
<title>Node22</title>
<g id="a_Node000022"><a xlink:href="MemberCommand_8cpp.html" target="_top" xlink:title=" ">
<polygon fill="white" stroke="#666666" points="1528.5,-38 1372.25,-38 1372.25,-6 1528.5,-6 1528.5,-38"/>
<text text-anchor="start" x="1380.25" y="-24.5" font-family="Helvetica,sans-Serif" font-size="10.00">src/bot_library/commands</text>
<text text-anchor="middle" x="1450.38" y="-12.5" font-family="Helvetica,sans-Serif" font-size="10.00">/member/MemberCommand.cpp</text>
</a>
</g>
</g>
<!-- Node21&#45;&gt;Node22 -->
<g id="edge29_Node000021_Node000022" class="edge">
<title>Node21&#45;&gt;Node22</title>
<g id="a_edge29_Node000021_Node000022"><a xlink:title=" ">
<path fill="none" stroke="#63b8ff" d="M1458.28,-74.37C1456.43,-62.37 1454.32,-48.63 1452.74,-38.38"/>
<polygon fill="#63b8ff" stroke="#63b8ff" points="1454.79,-74.74 1459.77,-84.09 1461.71,-73.68 1454.79,-74.74"/>
</a>
</g>
</g>
<!-- Node23&#45;&gt;Node5 -->
<g id="edge31_Node000023_Node000005" class="edge">
<title>Node23&#45;&gt;Node5</title>
<g id="a_edge31_Node000023_Node000005"><a xlink:title=" ">
<path fill="none" stroke="#63b8ff" d="M1679.31,-80.37C1704.82,-67.19 1737.35,-50.39 1760.6,-38.38"/>
<polygon fill="#63b8ff" stroke="#63b8ff" points="1677.83,-77.2 1670.55,-84.9 1681.04,-83.42 1677.83,-77.2"/>
</a>
</g>
</g>
<!-- Node24 -->
<g id="Node000024" class="node">
<title>Node24</title>
<g id="a_Node000024"><a xlink:href="ProductsCommand_8cpp.html" target="_top" xlink:title=" ">
<polygon fill="white" stroke="#666666" points="1708.5,-38 1546.25,-38 1546.25,-6 1708.5,-6 1708.5,-38"/>
<text text-anchor="start" x="1554.25" y="-24.5" font-family="Helvetica,sans-Serif" font-size="10.00">src/bot_library/commands</text>
<text text-anchor="middle" x="1627.38" y="-12.5" font-family="Helvetica,sans-Serif" font-size="10.00">/products/ProductsCommand.cpp</text>
</a>
</g>
</g>
<!-- Node23&#45;&gt;Node24 -->
<g id="edge32_Node000023_Node000024" class="edge">
<title>Node23&#45;&gt;Node24</title>
<g id="a_edge32_Node000023_Node000024"><a xlink:title=" ">
<path fill="none" stroke="#63b8ff" d="M1635.28,-74.37C1633.43,-62.37 1631.32,-48.63 1629.74,-38.38"/>
<polygon fill="#63b8ff" stroke="#63b8ff" points="1631.79,-74.74 1636.77,-84.09 1638.71,-73.68 1631.79,-74.74"/>
</a>
</g>
</g>
<!-- Node25&#45;&gt;Node5 -->
<g id="edge34_Node000025_Node000005" class="edge">
<title>Node25&#45;&gt;Node5</title>
<g id="a_edge34_Node000025_Node000005"><a xlink:title=" ">
<path fill="none" stroke="#63b8ff" d="M1802.31,-74.74C1799.53,-62.65 1796.31,-48.73 1793.92,-38.38"/>
<polygon fill="#63b8ff" stroke="#63b8ff" points="1798.82,-75.16 1804.48,-84.11 1805.64,-73.58 1798.82,-75.16"/>
</a>
</g>
</g>
<!-- Node26 -->
<g id="Node000026" class="node">
<title>Node26</title>
<g id="a_Node000026"><a xlink:href="ProfileCommand_8cpp.html" target="_top" xlink:title=" ">
<polygon fill="white" stroke="#666666" points="2012.25,-38 1872.5,-38 1872.5,-6 2012.25,-6 2012.25,-38"/>
<text text-anchor="start" x="1880.5" y="-24.5" font-family="Helvetica,sans-Serif" font-size="10.00">src/bot_library/commands</text>
<text text-anchor="middle" x="1942.38" y="-12.5" font-family="Helvetica,sans-Serif" font-size="10.00">/profile/ProfileCommand.cpp</text>
</a>
</g>
</g>
<!-- Node25&#45;&gt;Node26 -->
<g id="edge35_Node000025_Node000026" class="edge">
<title>Node25&#45;&gt;Node26</title>
<g id="a_edge35_Node000025_Node000026"><a xlink:title=" ">
<path fill="none" stroke="#63b8ff" d="M1844.72,-79.84C1867.22,-66.75 1895.6,-50.23 1915.96,-38.38"/>
<polygon fill="#63b8ff" stroke="#63b8ff" points="1843.04,-76.77 1836.16,-84.83 1846.56,-82.82 1843.04,-76.77"/>
</a>
</g>
</g>
<!-- Node27&#45;&gt;Node5 -->
<g id="edge37_Node000027_Node000005" class="edge">
<title>Node27&#45;&gt;Node5</title>
<g id="a_edge37_Node000027_Node000005"><a xlink:title=" ">
<path fill="none" stroke="#63b8ff" d="M1931.51,-81.24C1899.27,-67.94 1857.39,-50.66 1827.64,-38.38"/>
<polygon fill="#63b8ff" stroke="#63b8ff" points="1930.06,-84.43 1940.64,-85.01 1932.73,-77.96 1930.06,-84.43"/>
</a>
</g>
</g>
<!-- Node28 -->
<g id="Node000028" class="node">
<title>Node28</title>
<g id="a_Node000028"><a xlink:href="ReactionRoles_8cpp.html" target="_top" xlink:title=" ">
<polygon fill="white" stroke="#666666" points="2196.38,-38 2030.38,-38 2030.38,-6 2196.38,-6 2196.38,-38"/>
<text text-anchor="start" x="2038.38" y="-24.5" font-family="Helvetica,sans-Serif" font-size="10.00">src/bot_library/commands</text>
<text text-anchor="middle" x="2113.38" y="-12.5" font-family="Helvetica,sans-Serif" font-size="10.00">/reaction_roles/ReactionRoles.cpp</text>
</a>
</g>
</g>
<!-- Node27&#45;&gt;Node28 -->
<g id="edge38_Node000027_Node000028" class="edge">
<title>Node27&#45;&gt;Node28</title>
<g id="a_edge38_Node000027_Node000028"><a xlink:title=" ">
<path fill="none" stroke="#63b8ff" d="M2015.72,-79.84C2038.22,-66.75 2066.6,-50.23 2086.96,-38.38"/>
<polygon fill="#63b8ff" stroke="#63b8ff" points="2014.04,-76.77 2007.16,-84.83 2017.56,-82.82 2014.04,-76.77"/>
</a>
</g>
</g>
<!-- Node29&#45;&gt;Node5 -->
<g id="edge40_Node000029_Node000005" class="edge">
<title>Node29&#45;&gt;Node5</title>
<g id="a_edge40_Node000029_Node000005"><a xlink:title=" ">
<path fill="none" stroke="#63b8ff" d="M2087.38,-83.2C2081.97,-82.09 2076.6,-81.02 2071.38,-80 1979.29,-62.07 1954.81,-65 1863.38,-44 1856.18,-42.35 1848.64,-40.41 1841.24,-38.4"/>
<polygon fill="#63b8ff" stroke="#63b8ff" points="2086.53,-86.6 2097.03,-85.2 2087.95,-79.74 2086.53,-86.6"/>
</a>
</g>
</g>
<!-- Node30 -->
<g id="Node000030" class="node">
<title>Node30</title>
<g id="a_Node000030"><a xlink:href="ResourcesCommand_8cpp.html" target="_top" xlink:title=" ">
<polygon fill="white" stroke="#666666" points="2390.25,-38 2214.5,-38 2214.5,-6 2390.25,-6 2390.25,-38"/>
<text text-anchor="start" x="2222.5" y="-24.5" font-family="Helvetica,sans-Serif" font-size="10.00">src/bot_library/commands</text>
<text text-anchor="middle" x="2302.38" y="-12.5" font-family="Helvetica,sans-Serif" font-size="10.00">/resources/ResourcesCommand.cpp</text>
</a>
</g>
</g>
<!-- Node29&#45;&gt;Node30 -->
<g id="edge41_Node000029_Node000030" class="edge">
<title>Node29&#45;&gt;Node30</title>
<g id="a_edge41_Node000029_Node000030"><a xlink:title=" ">
<path fill="none" stroke="#63b8ff" d="M2204.72,-79.84C2227.22,-66.75 2255.6,-50.23 2275.96,-38.38"/>
<polygon fill="#63b8ff" stroke="#63b8ff" points="2203.04,-76.77 2196.16,-84.83 2206.56,-82.82 2203.04,-76.77"/>
</a>
</g>
</g>
<!-- Node31&#45;&gt;Node5 -->
<g id="edge43_Node000031_Node000005" class="edge">
<title>Node31&#45;&gt;Node5</title>
<g id="a_edge43_Node000031_Node000005"><a xlink:title=" ">
<path fill="none" stroke="#63b8ff" d="M2278.58,-82.81C2274.14,-81.76 2269.7,-80.81 2265.38,-80 2089.04,-47.05 2039.71,-76.95 1863.38,-44 1855.47,-42.52 1847.18,-40.56 1839.15,-38.42"/>
<polygon fill="#63b8ff" stroke="#63b8ff" points="2277.58,-86.17 2288.13,-85.21 2279.29,-79.38 2277.58,-86.17"/>
</a>
</g>
</g>
<!-- Node32 -->
<g id="Node000032" class="node">
<title>Node32</title>
<g id="a_Node000032"><a xlink:href="RollCommand_8cpp.html" target="_top" xlink:title=" ">
<polygon fill="white" stroke="#666666" points="2536.62,-38 2408.12,-38 2408.12,-6 2536.62,-6 2536.62,-38"/>
<text text-anchor="start" x="2416.12" y="-24.5" font-family="Helvetica,sans-Serif" font-size="10.00">src/bot_library/commands</text>
<text text-anchor="middle" x="2472.38" y="-12.5" font-family="Helvetica,sans-Serif" font-size="10.00">/roll/RollCommand.cpp</text>
</a>
</g>
</g>
<!-- Node31&#45;&gt;Node32 -->
<g id="edge44_Node000031_Node000032" class="edge">
<title>Node31&#45;&gt;Node32</title>
<g id="a_edge44_Node000031_Node000032"><a xlink:title=" ">
<path fill="none" stroke="#63b8ff" d="M2374.72,-79.84C2397.22,-66.75 2425.6,-50.23 2445.96,-38.38"/>
<polygon fill="#63b8ff" stroke="#63b8ff" points="2373.04,-76.77 2366.16,-84.83 2376.56,-82.82 2373.04,-76.77"/>
</a>
</g>
</g>
<!-- Node33&#45;&gt;Node5 -->
<g id="edge46_Node000033_Node000005" class="edge">
<title>Node33&#45;&gt;Node5</title>
<g id="a_edge46_Node000033_Node000005"><a xlink:title=" ">
<path fill="none" stroke="#63b8ff" d="M2429.92,-83.21C2423.67,-82 2417.43,-80.9 2411.38,-80 2169.94,-44.15 2103.82,-85.98 1863.38,-44 1855.32,-42.59 1846.89,-40.64 1838.73,-38.48"/>
<polygon fill="#63b8ff" stroke="#63b8ff" points="2429.14,-86.62 2439.64,-85.21 2430.55,-79.77 2429.14,-86.62"/>
</a>
</g>
</g>
<!-- Node34 -->
<g id="Node000034" class="node">
<title>Node34</title>
<g id="a_Node000034"><a xlink:href="ServerDetails_8cpp.html" target="_top" xlink:title=" ">
<polygon fill="white" stroke="#666666" points="2715.75,-38 2555,-38 2555,-6 2715.75,-6 2715.75,-38"/>
<text text-anchor="start" x="2563" y="-24.5" font-family="Helvetica,sans-Serif" font-size="10.00">src/bot_library/commands</text>
<text text-anchor="middle" x="2635.38" y="-12.5" font-family="Helvetica,sans-Serif" font-size="10.00">/server_details/ServerDetails.cpp</text>
</a>
</g>
</g>
<!-- Node33&#45;&gt;Node34 -->
<g id="edge47_Node000033_Node000034" class="edge">
<title>Node33&#45;&gt;Node34</title>
<g id="a_edge47_Node000033_Node000034"><a xlink:title=" ">
<path fill="none" stroke="#63b8ff" d="M2537.72,-79.84C2560.22,-66.75 2588.6,-50.23 2608.96,-38.38"/>
<polygon fill="#63b8ff" stroke="#63b8ff" points="2536.04,-76.77 2529.16,-84.83 2539.56,-82.82 2536.04,-76.77"/>
</a>
</g>
</g>
<!-- Node35&#45;&gt;Node5 -->
<g id="edge49_Node000035_Node000005" class="edge">
<title>Node35&#45;&gt;Node5</title>
<g id="a_edge49_Node000035_Node000005"><a xlink:title=" ">
<path fill="none" stroke="#63b8ff" d="M2614.03,-83.54C2606.06,-82.18 2598.08,-80.96 2590.38,-80 2269.37,-39.87 2182.5,-97.07 1863.38,-44 1855.18,-42.64 1846.6,-40.67 1838.31,-38.49"/>
<polygon fill="#63b8ff" stroke="#63b8ff" points="2613.29,-86.96 2623.75,-85.27 2614.53,-80.07 2613.29,-86.96"/>
</a>
</g>
</g>
<!-- Node36 -->
<g id="Node000036" class="node">
<title>Node36</title>
<g id="a_Node000036"><a xlink:href="SetChannelCommand_8cpp.html" target="_top" xlink:title=" ">
<polygon fill="white" stroke="#666666" points="2923,-38 2733.75,-38 2733.75,-6 2923,-6 2923,-38"/>
<text text-anchor="start" x="2741.75" y="-24.5" font-family="Helvetica,sans-Serif" font-size="10.00">src/bot_library/commands</text>
<text text-anchor="middle" x="2828.38" y="-12.5" font-family="Helvetica,sans-Serif" font-size="10.00">/set_channel/SetChannelCommand.cpp</text>
</a>
</g>
</g>
<!-- Node35&#45;&gt;Node36 -->
<g id="edge50_Node000035_Node000036" class="edge">
<title>Node35&#45;&gt;Node36</title>
<g id="a_edge50_Node000035_Node000036"><a xlink:title=" ">
<path fill="none" stroke="#63b8ff" d="M2730.72,-79.84C2753.22,-66.75 2781.6,-50.23 2801.96,-38.38"/>
<polygon fill="#63b8ff" stroke="#63b8ff" points="2729.04,-76.77 2722.16,-84.83 2732.56,-82.82 2729.04,-76.77"/>
</a>
</g>
</g>
<!-- Node37&#45;&gt;Node5 -->
<g id="edge52_Node000037_Node000005" class="edge">
<title>Node37&#45;&gt;Node5</title>
<g id="a_edge52_Node000037_Node000005"><a xlink:title=" ">
<path fill="none" stroke="#63b8ff" d="M2813.28,-82.89C2808.27,-81.76 2803.26,-80.78 2798.38,-80 2387.66,-14.77 2273.97,-109.97 1863.38,-44 1855.04,-42.66 1846.31,-40.68 1837.91,-38.46"/>
<polygon fill="#63b8ff" stroke="#63b8ff" points="2812.17,-86.22 2822.71,-85.19 2813.82,-79.42 2812.17,-86.22"/>
</a>
</g>
</g>
<!-- Node38 -->
<g id="Node000038" class="node">
<title>Node38</title>
<g id="a_Node000038"><a xlink:href="SetStatus_8cpp.html" target="_top" xlink:title=" ">
<polygon fill="white" stroke="#666666" points="3071.38,-38 2941.38,-38 2941.38,-6 3071.38,-6 3071.38,-38"/>
<text text-anchor="start" x="2949.38" y="-24.5" font-family="Helvetica,sans-Serif" font-size="10.00">src/bot_library/commands</text>
<text text-anchor="middle" x="3006.38" y="-12.5" font-family="Helvetica,sans-Serif" font-size="10.00">/set_status/SetStatus.cpp</text>
</a>
</g>
</g>
<!-- Node37&#45;&gt;Node38 -->
<g id="edge53_Node000037_Node000038" class="edge">
<title>Node37&#45;&gt;Node38</title>
<g id="a_edge53_Node000037_Node000038"><a xlink:title=" ">
<path fill="none" stroke="#63b8ff" d="M2908.72,-79.84C2931.22,-66.75 2959.6,-50.23 2979.96,-38.38"/>
<polygon fill="#63b8ff" stroke="#63b8ff" points="2907.04,-76.77 2900.16,-84.83 2910.56,-82.82 2907.04,-76.77"/>
</a>
</g>
</g>
<!-- Node39&#45;&gt;Node5 -->
<g id="edge55_Node000039_Node000005" class="edge">
<title>Node39&#45;&gt;Node5</title>
<g id="a_edge55_Node000039_Node000005"><a xlink:title=" ">
<path fill="none" stroke="#63b8ff" d="M2961.48,-82.86C2956.4,-81.74 2951.32,-80.76 2946.38,-80 2470.41,-6.55 2339.08,-119.14 1863.38,-44 1855.04,-42.68 1846.31,-40.71 1837.9,-38.5"/>
<polygon fill="#63b8ff" stroke="#63b8ff" points="2960.51,-86.23 2971.05,-85.16 2962.14,-79.42 2960.51,-86.23"/>
</a>
</g>
</g>
<!-- Node40 -->
<g id="Node000040" class="node">
<title>Node40</title>
<g id="a_Node000040"><a xlink:href="TextsCommand_8cpp.html" target="_top" xlink:title=" ">
<polygon fill="white" stroke="#666666" points="3221.12,-38 3089.62,-38 3089.62,-6 3221.12,-6 3221.12,-38"/>
<text text-anchor="start" x="3097.62" y="-24.5" font-family="Helvetica,sans-Serif" font-size="10.00">src/bot_library/commands</text>
<text text-anchor="middle" x="3155.38" y="-12.5" font-family="Helvetica,sans-Serif" font-size="10.00">/texts/TextsCommand.cpp</text>
</a>
</g>
</g>
<!-- Node39&#45;&gt;Node40 -->
<g id="edge56_Node000039_Node000040" class="edge">
<title>Node39&#45;&gt;Node40</title>
<g id="a_edge56_Node000039_Node000040"><a xlink:title=" ">
<path fill="none" stroke="#63b8ff" d="M3057.72,-79.84C3080.22,-66.75 3108.6,-50.23 3128.96,-38.38"/>
<polygon fill="#63b8ff" stroke="#63b8ff" points="3056.04,-76.77 3049.16,-84.83 3059.56,-82.82 3056.04,-76.77"/>
</a>
</g>
</g>
</g>
</svg>
