<?xml version="1.0" encoding="UTF-8" standalone="no"?>
<!DOCTYPE svg PUBLIC "-//W3C//DTD SVG 1.1//EN"
 "http://www.w3.org/Graphics/SVG/1.1/DTD/svg11.dtd">
<!-- Generated by graphviz version 9.0.0 (0)
 -->
<!-- Title: src/bot_library/bot/Bot.cpp Pages: 1 -->
<svg width="1500pt" height="208pt"
 viewBox="0.00 0.00 1500.38 208.00" xmlns="http://www.w3.org/2000/svg" xmlns:xlink="http://www.w3.org/1999/xlink">
<g id="graph0" class="graph" transform="scale(1 1) rotate(0) translate(4 204)">
<title>src/bot_library/bot/Bot.cpp</title>
<!-- Node1 -->
<g id="Node000001" class="node">
<title>Node1</title>
<g id="a_Node000001"><a xlink:title=" ">
<polygon fill="#999999" stroke="#666666" points="1279.38,-200 1185.38,-200 1185.38,-168 1279.38,-168 1279.38,-200"/>
<text text-anchor="start" x="1193.38" y="-186.5" font-family="Helvetica,sans-Serif" font-size="10.00">src/bot_library/bot</text>
<text text-anchor="middle" x="1232.38" y="-174.5" font-family="Helvetica,sans-Serif" font-size="10.00">/Bot.cpp</text>
</a>
</g>
</g>
<!-- Node2 -->
<g id="Node000002" class="node">
<title>Node2</title>
<g id="a_Node000002"><a xlink:href="Bot_8hpp.html" target="_top" xlink:title=" ">
<polygon fill="white" stroke="#666666" points="716.25,-132 666.5,-132 666.5,-112 716.25,-112 716.25,-132"/>
<text text-anchor="middle" x="691.38" y="-118.5" font-family="Helvetica,sans-Serif" font-size="10.00">Bot.hpp</text>
</a>
</g>
</g>
<!-- Node1&#45;&gt;Node2 -->
<g id="edge1_Node000001_Node000002" class="edge">
<title>Node1&#45;&gt;Node2</title>
<g id="a_edge1_Node000001_Node000002"><a xlink:title=" ">
<path fill="none" stroke="#63b8ff" d="M1185.31,-177.78C1079.18,-166.01 823.06,-137.6 727.84,-127.04"/>
<polygon fill="#63b8ff" stroke="#63b8ff" points="728.35,-123.58 718.03,-125.96 727.58,-130.54 728.35,-123.58"/>
</a>
</g>
</g>
<!-- Node8 -->
<g id="Node000008" class="node">
<title>Node8</title>
<g id="a_Node000008"><a xlink:title=" ">
<polygon fill="#e0e0e0" stroke="#999999" points="404.5,-20 332.25,-20 332.25,0 404.5,0 404.5,-20"/>
<text text-anchor="middle" x="368.38" y="-6.5" font-family="Helvetica,sans-Serif" font-size="10.00">dpp/cluster.h</text>
</a>
</g>
</g>
<!-- Node1&#45;&gt;Node8 -->
<g id="edge27_Node000001_Node000008" class="edge">
<title>Node1&#45;&gt;Node8</title>
<g id="a_edge27_Node000001_Node000008"><a xlink:title=" ">
<path fill="none" stroke="#63b8ff" d="M1184.9,-182.56C968.95,-180.06 86.47,-164.47 5.38,-76 -38.29,-28.36 212.69,-15.43 320.73,-12.1"/>
<polygon fill="#63b8ff" stroke="#63b8ff" points="320.55,-15.61 330.44,-11.82 320.34,-8.61 320.55,-15.61"/>
</a>
</g>
</g>
<!-- Node9 -->
<g id="Node000009" class="node">
<title>Node9</title>
<g id="a_Node000009"><a xlink:title=" ">
<polygon fill="#e0e0e0" stroke="#999999" points="527.38,-20 439.38,-20 439.38,0 527.38,0 527.38,-20"/>
<text text-anchor="middle" x="483.38" y="-6.5" font-family="Helvetica,sans-Serif" font-size="10.00">dpp/dispatcher.h</text>
</a>
</g>
</g>
<!-- Node1&#45;&gt;Node9 -->
<g id="edge28_Node000001_Node000009" class="edge">
<title>Node1&#45;&gt;Node9</title>
<g id="a_edge28_Node000001_Node000009"><a xlink:title=" ">
<path fill="none" stroke="#63b8ff" d="M1218.54,-167.58C1210.12,-157.79 1199.47,-144.62 1191.38,-132 1170.98,-100.21 1184.82,-76.92 1153.38,-56 1102.83,-22.37 690.87,-13.67 539.18,-11.6"/>
<polygon fill="#63b8ff" stroke="#63b8ff" points="539.42,-8.1 529.38,-11.47 539.33,-15.1 539.42,-8.1"/>
</a>
</g>
</g>
<!-- Node16 -->
<g id="Node000016" class="node">
<title>Node16</title>
<g id="a_Node000016"><a xlink:title=" ">
<polygon fill="#e0e0e0" stroke="#999999" points="1264.38,-132 1200.38,-132 1200.38,-112 1264.38,-112 1264.38,-132"/>
<text text-anchor="middle" x="1232.38" y="-118.5" font-family="Helvetica,sans-Serif" font-size="10.00">dpp/once.h</text>
</a>
</g>
</g>
<!-- Node1&#45;&gt;Node16 -->
<g id="edge29_Node000001_Node000016" class="edge">
<title>Node1&#45;&gt;Node16</title>
<g id="a_edge29_Node000001_Node000016"><a xlink:title=" ">
<path fill="none" stroke="#63b8ff" d="M1232.38,-167.55C1232.38,-160.34 1232.38,-151.66 1232.38,-143.88"/>
<polygon fill="#63b8ff" stroke="#63b8ff" points="1235.88,-143.92 1232.38,-133.92 1228.88,-143.92 1235.88,-143.92"/>
</a>
</g>
</g>
<!-- Node17 -->
<g id="Node000017" class="node">
<title>Node17</title>
<g id="a_Node000017"><a xlink:title=" ">
<polygon fill="#e0e0e0" stroke="#999999" points="1344.63,-132 1282.13,-132 1282.13,-112 1344.63,-112 1344.63,-132"/>
<text text-anchor="middle" x="1313.38" y="-118.5" font-family="Helvetica,sans-Serif" font-size="10.00">fmt/color.h</text>
</a>
</g>
</g>
<!-- Node1&#45;&gt;Node17 -->
<g id="edge30_Node000001_Node000017" class="edge">
<title>Node1&#45;&gt;Node17</title>
<g id="a_edge30_Node000001_Node000017"><a xlink:title=" ">
<path fill="none" stroke="#63b8ff" d="M1253.24,-167.55C1264.95,-158.87 1279.57,-148.04 1291.45,-139.24"/>
<polygon fill="#63b8ff" stroke="#63b8ff" points="1293.51,-142.07 1299.46,-133.31 1289.34,-136.45 1293.51,-142.07"/>
</a>
</g>
</g>
<!-- Node18 -->
<g id="Node000018" class="node">
<title>Node18</title>
<g id="a_Node000018"><a xlink:title=" ">
<polygon fill="#e0e0e0" stroke="#999999" points="1422.5,-132 1362.25,-132 1362.25,-112 1422.5,-112 1422.5,-132"/>
<text text-anchor="middle" x="1392.38" y="-118.5" font-family="Helvetica,sans-Serif" font-size="10.00">fmt/core.h</text>
</a>
</g>
</g>
<!-- Node1&#45;&gt;Node18 -->
<g id="edge31_Node000001_Node000018" class="edge">
<title>Node1&#45;&gt;Node18</title>
<g id="a_edge31_Node000001_Node000018"><a xlink:title=" ">
<path fill="none" stroke="#63b8ff" d="M1273.58,-167.55C1299.27,-157.91 1332.01,-145.64 1356.61,-136.41"/>
<polygon fill="#63b8ff" stroke="#63b8ff" points="1357.74,-139.73 1365.87,-132.94 1355.28,-133.17 1357.74,-139.73"/>
</a>
</g>
</g>
<!-- Node19 -->
<g id="Node000019" class="node">
<title>Node19</title>
<g id="a_Node000019"><a xlink:title=" ">
<polygon fill="#e0e0e0" stroke="#999999" points="1492.38,-132 1440.38,-132 1440.38,-112 1492.38,-112 1492.38,-132"/>
<text text-anchor="middle" x="1466.38" y="-118.5" font-family="Helvetica,sans-Serif" font-size="10.00">fmt/os.h</text>
</a>
</g>
</g>
<!-- Node1&#45;&gt;Node19 -->
<g id="edge32_Node000001_Node000019" class="edge">
<title>Node1&#45;&gt;Node19</title>
<g id="a_edge32_Node000001_Node000019"><a xlink:title=" ">
<path fill="none" stroke="#63b8ff" d="M1279.82,-170.85C1317.7,-161.15 1372.43,-147.13 1429.04,-132.6"/>
<polygon fill="#63b8ff" stroke="#63b8ff" points="1429.72,-136.04 1438.54,-130.16 1427.98,-129.26 1429.72,-136.04"/>
</a>
</g>
</g>
<!-- Node3 -->
<g id="Node000003" class="node">
<title>Node3</title>
<g id="a_Node000003"><a xlink:title=" ">
<polygon fill="#e0e0e0" stroke="#999999" points="678.75,-76 644,-76 644,-56 678.75,-56 678.75,-76"/>
<text text-anchor="middle" x="661.38" y="-62.5" font-family="Helvetica,sans-Serif" font-size="10.00">map</text>
</a>
</g>
</g>
<!-- Node2&#45;&gt;Node3 -->
<g id="edge2_Node000002_Node000003" class="edge">
<title>Node2&#45;&gt;Node3</title>
<g id="a_edge2_Node000002_Node000003"><a xlink:title=" ">
<path fill="none" stroke="#63b8ff" d="M686.15,-111.59C682.28,-104.63 676.87,-94.89 672.09,-86.29"/>
<polygon fill="#63b8ff" stroke="#63b8ff" points="675.19,-84.66 667.28,-77.62 669.07,-88.06 675.19,-84.66"/>
</a>
</g>
</g>
<!-- Node4 -->
<g id="Node000004" class="node">
<title>Node4</title>
<g id="a_Node000004"><a xlink:title=" ">
<polygon fill="#e0e0e0" stroke="#999999" points="748,-76 696.75,-76 696.75,-56 748,-56 748,-76"/>
<text text-anchor="middle" x="722.38" y="-62.5" font-family="Helvetica,sans-Serif" font-size="10.00">memory</text>
</a>
</g>
</g>
<!-- Node2&#45;&gt;Node4 -->
<g id="edge3_Node000002_Node000004" class="edge">
<title>Node2&#45;&gt;Node4</title>
<g id="a_edge3_Node000002_Node000004"><a xlink:title=" ">
<path fill="none" stroke="#63b8ff" d="M696.78,-111.59C700.82,-104.55 706.49,-94.67 711.47,-86"/>
<polygon fill="#63b8ff" stroke="#63b8ff" points="714.34,-88.03 716.28,-77.61 708.27,-84.54 714.34,-88.03"/>
</a>
</g>
</g>
<!-- Node5 -->
<g id="Node000005" class="node">
<title>Node5</title>
<g id="a_Node000005"><a xlink:title=" ">
<polygon fill="#e0e0e0" stroke="#999999" points="806.38,-76 766.38,-76 766.38,-56 806.38,-56 806.38,-76"/>
<text text-anchor="middle" x="786.38" y="-62.5" font-family="Helvetica,sans-Serif" font-size="10.00">string</text>
</a>
</g>
</g>
<!-- Node2&#45;&gt;Node5 -->
<g id="edge4_Node000002_Node000005" class="edge">
<title>Node2&#45;&gt;Node5</title>
<g id="a_edge4_Node000002_Node000005"><a xlink:title=" ">
<path fill="none" stroke="#63b8ff" d="M707.92,-111.59C722.28,-103.44 743.3,-91.48 759.98,-82"/>
<polygon fill="#63b8ff" stroke="#63b8ff" points="761.42,-85.21 768.38,-77.23 757.96,-79.13 761.42,-85.21"/>
</a>
</g>
</g>
<!-- Node6 -->
<g id="Node000006" class="node">
<title>Node6</title>
<g id="a_Node000006"><a xlink:title=" ">
<polygon fill="#e0e0e0" stroke="#999999" points="867.88,-76 824.88,-76 824.88,-56 867.88,-56 867.88,-76"/>
<text text-anchor="middle" x="846.38" y="-62.5" font-family="Helvetica,sans-Serif" font-size="10.00">vector</text>
</a>
</g>
</g>
<!-- Node2&#45;&gt;Node6 -->
<g id="edge5_Node000002_Node000006" class="edge">
<title>Node2&#45;&gt;Node6</title>
<g id="a_edge5_Node000002_Node000006"><a xlink:title=" ">
<path fill="none" stroke="#63b8ff" d="M716.62,-112.2C743.13,-102.97 784.9,-88.42 813.86,-78.33"/>
<polygon fill="#63b8ff" stroke="#63b8ff" points="814.92,-81.66 823.21,-75.07 812.62,-75.05 814.92,-81.66"/>
</a>
</g>
</g>
<!-- Node7 -->
<g id="Node000007" class="node">
<title>Node7</title>
<g id="a_Node000007"><a xlink:href="IButtonCommand_8hpp.html" target="_top" xlink:title=" ">
<polygon fill="white" stroke="#666666" points="349,-76 237.75,-76 237.75,-56 349,-56 349,-76"/>
<text text-anchor="middle" x="293.38" y="-62.5" font-family="Helvetica,sans-Serif" font-size="10.00">IButtonCommand.hpp</text>
</a>
</g>
</g>
<!-- Node2&#45;&gt;Node7 -->
<g id="edge6_Node000002_Node000007" class="edge">
<title>Node2&#45;&gt;Node7</title>
<g id="a_edge6_Node000002_Node000007"><a xlink:title=" ">
<path fill="none" stroke="#63b8ff" d="M666.31,-117.64C612.5,-110.42 481.64,-92.84 360.69,-76.31"/>
<polygon fill="#63b8ff" stroke="#63b8ff" points="361.28,-72.86 350.89,-74.97 360.33,-79.8 361.28,-72.86"/>
</a>
</g>
</g>
<!-- Node10 -->
<g id="Node000010" class="node">
<title>Node10</title>
<g id="a_Node000010"><a xlink:href="IFormCommand_8hpp.html" target="_top" xlink:title=" ">
<polygon fill="white" stroke="#666666" points="991,-76 885.75,-76 885.75,-56 991,-56 991,-76"/>
<text text-anchor="middle" x="938.38" y="-62.5" font-family="Helvetica,sans-Serif" font-size="10.00">IFormCommand.hpp</text>
</a>
</g>
</g>
<!-- Node2&#45;&gt;Node10 -->
<g id="edge9_Node000002_Node000010" class="edge">
<title>Node2&#45;&gt;Node10</title>
<g id="a_edge9_Node000002_Node000010"><a xlink:title=" ">
<path fill="none" stroke="#63b8ff" d="M716.42,-115.53C755.5,-106.98 831.89,-90.28 884.03,-78.88"/>
<polygon fill="#63b8ff" stroke="#63b8ff" points="884.59,-82.34 893.61,-76.79 883.09,-75.5 884.59,-82.34"/>
</a>
</g>
</g>
<!-- Node11 -->
<g id="Node000011" class="node">
<title>Node11</title>
<g id="a_Node000011"><a xlink:href="IGlobalSlashCommand_8hpp.html" target="_top" xlink:title=" ">
<polygon fill="white" stroke="#666666" points="1144,-76 1008.75,-76 1008.75,-56 1144,-56 1144,-76"/>
<text text-anchor="middle" x="1076.38" y="-62.5" font-family="Helvetica,sans-Serif" font-size="10.00">IGlobalSlashCommand.hpp</text>
</a>
</g>
</g>
<!-- Node2&#45;&gt;Node11 -->
<g id="edge12_Node000002_Node000011" class="edge">
<title>Node2&#45;&gt;Node11</title>
<g id="a_edge12_Node000002_Node000011"><a xlink:title=" ">
<path fill="none" stroke="#63b8ff" d="M716.64,-117.46C772.73,-109.59 909.64,-90.39 997.45,-78.07"/>
<polygon fill="#63b8ff" stroke="#63b8ff" points="997.79,-81.56 1007.21,-76.7 996.82,-74.62 997.79,-81.56"/>
</a>
</g>
</g>
<!-- Node12 -->
<g id="Node000012" class="node">
<title>Node12</title>
<g id="a_Node000012"><a xlink:href="IMemberCommand_8hpp.html" target="_top" xlink:title=" ">
<polygon fill="white" stroke="#666666" points="485.38,-76 367.38,-76 367.38,-56 485.38,-56 485.38,-76"/>
<text text-anchor="middle" x="426.38" y="-62.5" font-family="Helvetica,sans-Serif" font-size="10.00">IMemberCommand.hpp</text>
</a>
</g>
</g>
<!-- Node2&#45;&gt;Node12 -->
<g id="edge15_Node000002_Node000012" class="edge">
<title>Node2&#45;&gt;Node12</title>
<g id="a_edge15_Node000002_Node000012"><a xlink:title=" ">
<path fill="none" stroke="#63b8ff" d="M666.45,-115.92C624.89,-107.45 540.44,-90.24 483.62,-78.66"/>
<polygon fill="#63b8ff" stroke="#63b8ff" points="484.62,-75.3 474.12,-76.73 483.22,-82.16 484.62,-75.3"/>
</a>
</g>
</g>
<!-- Node13 -->
<g id="Node000013" class="node">
<title>Node13</title>
<g id="a_Node000013"><a xlink:href="IMessageCommand_8hpp.html" target="_top" xlink:title=" ">
<polygon fill="white" stroke="#666666" points="625.63,-76 503.13,-76 503.13,-56 625.63,-56 625.63,-76"/>
<text text-anchor="middle" x="564.38" y="-62.5" font-family="Helvetica,sans-Serif" font-size="10.00">IMessageCommand.hpp</text>
</a>
</g>
</g>
<!-- Node2&#45;&gt;Node13 -->
<g id="edge18_Node000002_Node000013" class="edge">
<title>Node2&#45;&gt;Node13</title>
<g id="a_edge18_Node000002_Node000013"><a xlink:title=" ">
<path fill="none" stroke="#63b8ff" d="M669.25,-111.59C649.34,-103.13 619.82,-90.58 597.17,-80.94"/>
<polygon fill="#63b8ff" stroke="#63b8ff" points="598.64,-77.76 588.06,-77.07 595.9,-84.21 598.64,-77.76"/>
</a>
</g>
</g>
<!-- Node14 -->
<g id="Node000014" class="node">
<title>Node14</title>
<g id="a_Node000014"><a xlink:href="IReactionCommand_8hpp.html" target="_top" xlink:title=" ">
<polygon fill="white" stroke="#666666" points="136.25,-76 14.5,-76 14.5,-56 136.25,-56 136.25,-76"/>
<text text-anchor="middle" x="75.38" y="-62.5" font-family="Helvetica,sans-Serif" font-size="10.00">IReactionCommand.hpp</text>
</a>
</g>
</g>
<!-- Node2&#45;&gt;Node14 -->
<g id="edge21_Node000002_Node000014" class="edge">
<title>Node2&#45;&gt;Node14</title>
<g id="a_edge21_Node000002_Node000014"><a xlink:title=" ">
<path fill="none" stroke="#63b8ff" d="M666.03,-119.32C589.58,-114.18 354.38,-97.73 147.81,-76.21"/>
<polygon fill="#63b8ff" stroke="#63b8ff" points="148.26,-72.74 137.95,-75.18 147.53,-79.7 148.26,-72.74"/>
</a>
</g>
</g>
<!-- Node15 -->
<g id="Node000015" class="node">
<title>Node15</title>
<g id="a_Node000015"><a xlink:href="IReady_8hpp.html" target="_top" xlink:title=" ">
<polygon fill="white" stroke="#666666" points="220.13,-76 154.63,-76 154.63,-56 220.13,-56 220.13,-76"/>
<text text-anchor="middle" x="187.38" y="-62.5" font-family="Helvetica,sans-Serif" font-size="10.00">IReady.hpp</text>
</a>
</g>
</g>
<!-- Node2&#45;&gt;Node15 -->
<g id="edge24_Node000002_Node000015" class="edge">
<title>Node2&#45;&gt;Node15</title>
<g id="a_edge24_Node000002_Node000015"><a xlink:title=" ">
<path fill="none" stroke="#63b8ff" d="M666.15,-119.61C597.75,-115.61 402.92,-102.75 231.67,-76.37"/>
<polygon fill="#63b8ff" stroke="#63b8ff" points="232.35,-72.93 221.93,-74.84 231.27,-79.85 232.35,-72.93"/>
</a>
</g>
</g>
<!-- Node7&#45;&gt;Node8 -->
<g id="edge7_Node000007_Node000008" class="edge">
<title>Node7&#45;&gt;Node8</title>
<g id="a_edge7_Node000007_Node000008"><a xlink:title=" ">
<path fill="none" stroke="#63b8ff" d="M306.44,-55.59C317.34,-47.74 333.13,-36.38 346.03,-27.09"/>
<polygon fill="#63b8ff" stroke="#63b8ff" points="347.91,-30.05 353.98,-21.36 343.82,-24.37 347.91,-30.05"/>
</a>
</g>
</g>
<!-- Node7&#45;&gt;Node9 -->
<g id="edge8_Node000007_Node000009" class="edge">
<title>Node7&#45;&gt;Node9</title>
<g id="a_edge8_Node000007_Node000009"><a xlink:title=" ">
<path fill="none" stroke="#63b8ff" d="M326.47,-55.59C357.75,-46.71 404.88,-33.31 439.32,-23.52"/>
<polygon fill="#63b8ff" stroke="#63b8ff" points="439.9,-26.99 448.57,-20.89 437.99,-20.26 439.9,-26.99"/>
</a>
</g>
</g>
<!-- Node10&#45;&gt;Node8 -->
<g id="edge10_Node000010_Node000008" class="edge">
<title>Node10&#45;&gt;Node8</title>
<g id="a_edge10_Node000010_Node000008"><a xlink:title=" ">
<path fill="none" stroke="#63b8ff" d="M885.5,-56.98C882.76,-56.63 880.04,-56.3 877.38,-56 679.35,-33.44 628.43,-42.33 430.38,-20 425.69,-19.47 420.82,-18.87 415.96,-18.22"/>
<polygon fill="#63b8ff" stroke="#63b8ff" points="416.6,-14.78 406.22,-16.88 415.64,-21.71 416.6,-14.78"/>
</a>
</g>
</g>
<!-- Node10&#45;&gt;Node9 -->
<g id="edge11_Node000010_Node000009" class="edge">
<title>Node10&#45;&gt;Node9</title>
<g id="a_edge11_Node000010_Node000009"><a xlink:title=" ">
<path fill="none" stroke="#63b8ff" d="M885.49,-57.09C882.75,-56.71 880.03,-56.35 877.38,-56 756.93,-40.24 615.35,-24.83 538.98,-16.77"/>
<polygon fill="#63b8ff" stroke="#63b8ff" points="539.57,-13.31 529.25,-15.75 538.83,-20.27 539.57,-13.31"/>
</a>
</g>
</g>
<!-- Node11&#45;&gt;Node8 -->
<g id="edge13_Node000011_Node000008" class="edge">
<title>Node11&#45;&gt;Node8</title>
<g id="a_edge13_Node000011_Node000008"><a xlink:title=" ">
<path fill="none" stroke="#63b8ff" d="M1008.44,-56.77C1005.72,-56.5 1003.02,-56.24 1000.38,-56 747.58,-33.07 682.85,-46.25 430.38,-20 425.69,-19.51 420.82,-18.93 415.95,-18.31"/>
<polygon fill="#63b8ff" stroke="#63b8ff" points="416.59,-14.86 406.2,-16.98 415.64,-21.8 416.59,-14.86"/>
</a>
</g>
</g>
<!-- Node11&#45;&gt;Node9 -->
<g id="edge14_Node000011_Node000009" class="edge">
<title>Node11&#45;&gt;Node9</title>
<g id="a_edge14_Node000011_Node000009"><a xlink:title=" ">
<path fill="none" stroke="#63b8ff" d="M1008.43,-56.85C1005.71,-56.56 1003.02,-56.27 1000.38,-56 832.61,-38.77 633.76,-22.68 538.99,-15.27"/>
<polygon fill="#63b8ff" stroke="#63b8ff" points="539.43,-11.79 529.19,-14.51 538.89,-18.77 539.43,-11.79"/>
</a>
</g>
</g>
<!-- Node12&#45;&gt;Node8 -->
<g id="edge16_Node000012_Node000008" class="edge">
<title>Node12&#45;&gt;Node8</title>
<g id="a_edge16_Node000012_Node000008"><a xlink:title=" ">
<path fill="none" stroke="#63b8ff" d="M416.27,-55.59C408.12,-48.01 396.45,-37.13 386.66,-28.02"/>
<polygon fill="#63b8ff" stroke="#63b8ff" points="389.17,-25.58 379.47,-21.33 384.4,-30.71 389.17,-25.58"/>
</a>
</g>
</g>
<!-- Node12&#45;&gt;Node9 -->
<g id="edge17_Node000012_Node000009" class="edge">
<title>Node12&#45;&gt;Node9</title>
<g id="a_edge17_Node000012_Node000009"><a xlink:title=" ">
<path fill="none" stroke="#63b8ff" d="M436.3,-55.59C444.31,-48.01 455.79,-37.13 465.41,-28.02"/>
<polygon fill="#63b8ff" stroke="#63b8ff" points="467.61,-30.76 472.46,-21.34 462.8,-25.68 467.61,-30.76"/>
</a>
</g>
</g>
<!-- Node13&#45;&gt;Node8 -->
<g id="edge19_Node000013_Node000008" class="edge">
<title>Node13&#45;&gt;Node8</title>
<g id="a_edge19_Node000013_Node000008"><a xlink:title=" ">
<path fill="none" stroke="#63b8ff" d="M530.24,-55.59C497.97,-46.71 449.35,-33.31 413.82,-23.52"/>
<polygon fill="#63b8ff" stroke="#63b8ff" points="414.81,-20.16 404.24,-20.88 412.95,-26.91 414.81,-20.16"/>
</a>
</g>
</g>
<!-- Node13&#45;&gt;Node9 -->
<g id="edge20_Node000013_Node000009" class="edge">
<title>Node13&#45;&gt;Node9</title>
<g id="a_edge20_Node000013_Node000009"><a xlink:title=" ">
<path fill="none" stroke="#63b8ff" d="M550.27,-55.59C538.38,-47.67 521.11,-36.16 507.1,-26.82"/>
<polygon fill="#63b8ff" stroke="#63b8ff" points="509.12,-23.95 498.85,-21.32 505.23,-29.78 509.12,-23.95"/>
</a>
</g>
</g>
<!-- Node14&#45;&gt;Node8 -->
<g id="edge22_Node000014_Node000008" class="edge">
<title>Node14&#45;&gt;Node8</title>
<g id="a_edge22_Node000014_Node000008"><a xlink:title=" ">
<path fill="none" stroke="#63b8ff" d="M126.75,-55.53C181.49,-45.44 267.44,-29.6 320.72,-19.78"/>
<polygon fill="#63b8ff" stroke="#63b8ff" points="321.2,-23.25 330.4,-18 319.94,-16.37 321.2,-23.25"/>
</a>
</g>
</g>
<!-- Node14&#45;&gt;Node9 -->
<g id="edge23_Node000014_Node000009" class="edge">
<title>Node14&#45;&gt;Node9</title>
<g id="a_edge23_Node000014_Node000009"><a xlink:title=" ">
<path fill="none" stroke="#63b8ff" d="M136.46,-56.92C215.33,-46.48 351.47,-28.46 427.65,-18.38"/>
<polygon fill="#63b8ff" stroke="#63b8ff" points="427.93,-21.87 437.39,-17.09 427.01,-14.93 427.93,-21.87"/>
</a>
</g>
</g>
<!-- Node15&#45;&gt;Node8 -->
<g id="edge25_Node000015_Node000008" class="edge">
<title>Node15&#45;&gt;Node8</title>
<g id="a_edge25_Node000015_Node000008"><a xlink:title=" ">
<path fill="none" stroke="#63b8ff" d="M218.9,-55.59C248.57,-46.74 293.21,-33.43 325.98,-23.65"/>
<polygon fill="#63b8ff" stroke="#63b8ff" points="326.57,-27.13 335.15,-20.91 324.57,-20.42 326.57,-27.13"/>
</a>
</g>
</g>
<!-- Node15&#45;&gt;Node9 -->
<g id="edge26_Node000015_Node000009" class="edge">
<title>Node15&#45;&gt;Node9</title>
<g id="a_edge26_Node000015_Node000009"><a xlink:title=" ">
<path fill="none" stroke="#63b8ff" d="M220.47,-57.61C223.14,-57.05 225.8,-56.51 228.38,-56 296.84,-42.45 376.06,-28.78 427.8,-20.13"/>
<polygon fill="#63b8ff" stroke="#63b8ff" points="428.27,-23.6 437.56,-18.5 427.12,-16.69 428.27,-23.6"/>
</a>
</g>
</g>
</g>
</svg>
