<?xml version="1.0" encoding="UTF-8" standalone="no"?>
<!DOCTYPE svg PUBLIC "-//W3C//DTD SVG 1.1//EN"
 "http://www.w3.org/Graphics/SVG/1.1/DTD/svg11.dtd">
<!-- Generated by graphviz version 9.0.0 (0)
 -->
<!-- Title: src/bot.cpp Pages: 1 -->
<svg width="2120pt" height="308pt"
 viewBox="0.00 0.00 2120.25 308.00" xmlns="http://www.w3.org/2000/svg" xmlns:xlink="http://www.w3.org/1999/xlink">
<g id="graph0" class="graph" transform="scale(1 1) rotate(0) translate(4 304)">
<title>src/bot.cpp</title>
<!-- Node1 -->
<g id="Node000001" class="node">
<title>Node1</title>
<g id="a_Node000001"><a xlink:title=" ">
<polygon fill="#999999" stroke="#666666" points="1224.62,-300 1159.88,-300 1159.88,-280 1224.62,-280 1224.62,-300"/>
<text text-anchor="middle" x="1192.25" y="-286.5" font-family="Helvetica,sans-Serif" font-size="10.00">src/bot.cpp</text>
</a>
</g>
</g>
<!-- Node2 -->
<g id="Node000002" class="node">
<title>Node2</title>
<g id="a_Node000002"><a xlink:href="bot_8hpp.html" target="_top" xlink:title=" ">
<polygon fill="white" stroke="#666666" points="474.38,-188 426.12,-188 426.12,-168 474.38,-168 474.38,-188"/>
<text text-anchor="middle" x="450.25" y="-174.5" font-family="Helvetica,sans-Serif" font-size="10.00">bot.hpp</text>
</a>
</g>
</g>
<!-- Node1&#45;&gt;Node2 -->
<g id="edge1_Node000001_Node000002" class="edge">
<title>Node1&#45;&gt;Node2</title>
<g id="a_edge1_Node000001_Node000002"><a xlink:title=" ">
<path fill="none" stroke="#63b8ff" d="M1159.6,-288.7C1028.66,-287.25 545.84,-279.53 488.25,-244 471.92,-233.93 461.83,-214.04 456.18,-198.9"/>
<polygon fill="#63b8ff" stroke="#63b8ff" points="459.53,-197.88 453.06,-189.49 452.89,-200.09 459.53,-197.88"/>
</a>
</g>
</g>
<!-- Node4 -->
<g id="Node000004" class="node">
<title>Node4</title>
<g id="a_Node000004"><a xlink:title=" ">
<polygon fill="#e0e0e0" stroke="#999999" points="878.25,-76 790.25,-76 790.25,-56 878.25,-56 878.25,-76"/>
<text text-anchor="middle" x="834.25" y="-62.5" font-family="Helvetica,sans-Serif" font-size="10.00">dpp/dispatcher.h</text>
</a>
</g>
</g>
<!-- Node1&#45;&gt;Node4 -->
<g id="edge6_Node000001_Node000004" class="edge">
<title>Node1&#45;&gt;Node4</title>
<g id="a_edge6_Node000001_Node000004"><a xlink:title=" ">
<path fill="none" stroke="#63b8ff" d="M1159.44,-286.63C1035.23,-276.93 596.67,-235.69 514.25,-132 508.72,-125.04 508.42,-118.71 514.25,-112 547.83,-73.37 696.12,-66.95 778.53,-66.44"/>
<polygon fill="#63b8ff" stroke="#63b8ff" points="778.44,-69.94 788.43,-66.41 778.42,-62.94 778.44,-69.94"/>
</a>
</g>
</g>
<!-- Node7 -->
<g id="Node000007" class="node">
<title>Node7</title>
<g id="a_Node000007"><a xlink:title=" ">
<polygon fill="#e0e0e0" stroke="#999999" points="1826.75,-132 1735.75,-132 1735.75,-112 1826.75,-112 1826.75,-132"/>
<text text-anchor="middle" x="1781.25" y="-118.5" font-family="Helvetica,sans-Serif" font-size="10.00">dpp/misc&#45;enum.h</text>
</a>
</g>
</g>
<!-- Node1&#45;&gt;Node7 -->
<g id="edge7_Node000001_Node000007" class="edge">
<title>Node1&#45;&gt;Node7</title>
<g id="a_edge7_Node000001_Node000007"><a xlink:title=" ">
<path fill="none" stroke="#63b8ff" d="M1225.12,-287.5C1311.93,-283.21 1545.65,-269.57 1618.25,-244 1680.04,-222.24 1738.04,-168.29 1765.17,-140.36"/>
<polygon fill="#63b8ff" stroke="#63b8ff" points="1767.46,-143.04 1771.82,-133.38 1762.39,-138.21 1767.46,-143.04"/>
</a>
</g>
</g>
<!-- Node8 -->
<g id="Node000008" class="node">
<title>Node8</title>
<g id="a_Node000008"><a xlink:title=" ">
<polygon fill="#e0e0e0" stroke="#999999" points="1961.62,-244 1878.88,-244 1878.88,-224 1961.62,-224 1961.62,-244"/>
<text text-anchor="middle" x="1920.25" y="-230.5" font-family="Helvetica,sans-Serif" font-size="10.00">dpp/presence.h</text>
</a>
</g>
</g>
<!-- Node1&#45;&gt;Node8 -->
<g id="edge8_Node000001_Node000008" class="edge">
<title>Node1&#45;&gt;Node8</title>
<g id="a_edge8_Node000001_Node000008"><a xlink:title=" ">
<path fill="none" stroke="#63b8ff" d="M1224.92,-287.92C1322.47,-284.46 1620.07,-272.19 1865.25,-244 1865.93,-243.92 1866.61,-243.84 1867.29,-243.76"/>
<polygon fill="#63b8ff" stroke="#63b8ff" points="1867.62,-247.25 1877.07,-242.45 1866.69,-240.31 1867.62,-247.25"/>
</a>
</g>
</g>
<!-- Node9 -->
<g id="Node000009" class="node">
<title>Node9</title>
<g id="a_Node000009"><a xlink:title=" ">
<polygon fill="#e0e0e0" stroke="#999999" points="2042.5,-244 1980,-244 1980,-224 2042.5,-224 2042.5,-244"/>
<text text-anchor="middle" x="2011.25" y="-230.5" font-family="Helvetica,sans-Serif" font-size="10.00">fmt/color.h</text>
</a>
</g>
</g>
<!-- Node1&#45;&gt;Node9 -->
<g id="edge9_Node000001_Node000009" class="edge">
<title>Node1&#45;&gt;Node9</title>
<g id="a_edge9_Node000001_Node000009"><a xlink:title=" ">
<path fill="none" stroke="#63b8ff" d="M1225.04,-288.96C1331.11,-288.42 1674.56,-283.65 1968.25,-244.02"/>
<polygon fill="#63b8ff" stroke="#63b8ff" points="1968.62,-247.5 1978.06,-242.68 1967.67,-240.57 1968.62,-247.5"/>
</a>
</g>
</g>
<!-- Node10 -->
<g id="Node000010" class="node">
<title>Node10</title>
<g id="a_Node000010"><a xlink:title=" ">
<polygon fill="#e0e0e0" stroke="#999999" points="1717.38,-132 1657.12,-132 1657.12,-112 1717.38,-112 1717.38,-132"/>
<text text-anchor="middle" x="1687.25" y="-118.5" font-family="Helvetica,sans-Serif" font-size="10.00">fmt/core.h</text>
</a>
</g>
</g>
<!-- Node1&#45;&gt;Node10 -->
<g id="edge10_Node000001_Node000010" class="edge">
<title>Node1&#45;&gt;Node10</title>
<g id="a_edge10_Node000001_Node000010"><a xlink:title=" ">
<path fill="none" stroke="#63b8ff" d="M1225,-287.62C1326.18,-282.6 1630.53,-261.53 1688.25,-188 1698.06,-175.5 1696.78,-157.1 1693.64,-143.06"/>
<polygon fill="#63b8ff" stroke="#63b8ff" points="1697.05,-142.28 1691.03,-133.56 1690.3,-144.13 1697.05,-142.28"/>
</a>
</g>
</g>
<!-- Node11 -->
<g id="Node000011" class="node">
<title>Node11</title>
<g id="a_Node000011"><a xlink:title=" ">
<polygon fill="#e0e0e0" stroke="#999999" points="2112.25,-244 2060.25,-244 2060.25,-224 2112.25,-224 2112.25,-244"/>
<text text-anchor="middle" x="2086.25" y="-230.5" font-family="Helvetica,sans-Serif" font-size="10.00">fmt/os.h</text>
</a>
</g>
</g>
<!-- Node1&#45;&gt;Node11 -->
<g id="edge11_Node000001_Node000011" class="edge">
<title>Node1&#45;&gt;Node11</title>
<g id="a_edge11_Node000001_Node000011"><a xlink:title=" ">
<path fill="none" stroke="#63b8ff" d="M1225.01,-288.16C1358.88,-284.58 1865.5,-269.74 2048.66,-244.02"/>
<polygon fill="#63b8ff" stroke="#63b8ff" points="2049.11,-247.49 2058.5,-242.57 2048.09,-240.57 2049.11,-247.49"/>
</a>
</g>
</g>
<!-- Node12 -->
<g id="Node000012" class="node">
<title>Node12</title>
<g id="a_Node000012"><a xlink:href="ChallengeRoleCommand_8hpp.html" target="_top" xlink:title=" ">
<polygon fill="white" stroke="#666666" points="1450,-244 1306.5,-244 1306.5,-224 1450,-224 1450,-244"/>
<text text-anchor="middle" x="1378.25" y="-230.5" font-family="Helvetica,sans-Serif" font-size="10.00">ChallengeRoleCommand.hpp</text>
</a>
</g>
</g>
<!-- Node1&#45;&gt;Node12 -->
<g id="edge12_Node000001_Node000012" class="edge">
<title>Node1&#45;&gt;Node12</title>
<g id="a_edge12_Node000001_Node000012"><a xlink:title=" ">
<path fill="none" stroke="#63b8ff" d="M1224.65,-279.59C1255.13,-270.74 1301.01,-257.43 1334.68,-247.65"/>
<polygon fill="#63b8ff" stroke="#63b8ff" points="1335.52,-251.05 1344.14,-244.9 1333.57,-244.33 1335.52,-251.05"/>
</a>
</g>
</g>
<!-- Node16 -->
<g id="Node000016" class="node">
<title>Node16</title>
<g id="a_Node000016"><a xlink:href="Core_8hpp.html" target="_top" xlink:title=" ">
<polygon fill="white" stroke="#666666" points="1154.12,-188 1098.38,-188 1098.38,-168 1154.12,-168 1154.12,-188"/>
<text text-anchor="middle" x="1126.25" y="-174.5" font-family="Helvetica,sans-Serif" font-size="10.00">Core.hpp</text>
</a>
</g>
</g>
<!-- Node1&#45;&gt;Node16 -->
<g id="edge59_Node000001_Node000016" class="edge">
<title>Node1&#45;&gt;Node16</title>
<g id="a_edge59_Node000001_Node000016"><a xlink:title=" ">
<path fill="none" stroke="#63b8ff" d="M1186.62,-279.62C1175.81,-261.6 1151.94,-221.81 1137.66,-198.02"/>
<polygon fill="#63b8ff" stroke="#63b8ff" points="1140.79,-196.43 1132.64,-189.65 1134.79,-200.03 1140.79,-196.43"/>
</a>
</g>
</g>
<!-- Node17 -->
<g id="Node000017" class="node">
<title>Node17</title>
<g id="a_Node000017"><a xlink:href="Database_8hpp.html" target="_top" xlink:title=" ">
<polygon fill="white" stroke="#666666" points="324,-132 204.5,-132 204.5,-112 324,-112 324,-132"/>
<text text-anchor="middle" x="264.25" y="-118.5" font-family="Helvetica,sans-Serif" font-size="10.00">database/Database.hpp</text>
</a>
</g>
</g>
<!-- Node1&#45;&gt;Node17 -->
<g id="edge60_Node000001_Node000017" class="edge">
<title>Node1&#45;&gt;Node17</title>
<g id="a_edge60_Node000001_Node000017"><a xlink:title=" ">
<path fill="none" stroke="#63b8ff" d="M1159.56,-288.5C1036.4,-286.38 600.61,-276.68 466.25,-244 406.31,-229.42 391.36,-221.01 339.25,-188 317.55,-174.25 295.7,-154.48 281.22,-140.36"/>
<polygon fill="#63b8ff" stroke="#63b8ff" points="283.86,-138.04 274.3,-133.46 278.92,-143 283.86,-138.04"/>
</a>
</g>
</g>
<!-- Node22 -->
<g id="Node000022" class="node">
<title>Node22</title>
<g id="a_Node000022"><a xlink:title=" ">
<polygon fill="#e0e0e0" stroke="#999999" points="1762.25,-76 1722.25,-76 1722.25,-56 1762.25,-56 1762.25,-76"/>
<text text-anchor="middle" x="1742.25" y="-62.5" font-family="Helvetica,sans-Serif" font-size="10.00">string</text>
</a>
</g>
</g>
<!-- Node1&#45;&gt;Node22 -->
<g id="edge74_Node000001_Node000022" class="edge">
<title>Node1&#45;&gt;Node22</title>
<g id="a_edge74_Node000001_Node000022"><a xlink:title=" ">
<path fill="none" stroke="#63b8ff" d="M1224.96,-289.68C1301.23,-290.44 1496.11,-287.56 1651.25,-244 1749.71,-216.35 1803.75,-222.03 1852.25,-132 1870.65,-97.84 1812.56,-80.02 1773.91,-72.15"/>
<polygon fill="#63b8ff" stroke="#63b8ff" points="1774.61,-68.72 1764.13,-70.31 1773.31,-75.6 1774.61,-68.72"/>
</a>
</g>
</g>
<!-- Node34 -->
<g id="Node000034" class="node">
<title>Node34</title>
<g id="a_Node000034"><a xlink:href="CommandRegister_8hpp.html" target="_top" xlink:title=" ">
<polygon fill="white" stroke="#666666" points="116.5,-244 0,-244 0,-224 116.5,-224 116.5,-244"/>
<text text-anchor="middle" x="58.25" y="-230.5" font-family="Helvetica,sans-Serif" font-size="10.00">CommandRegister.hpp</text>
</a>
</g>
</g>
<!-- Node1&#45;&gt;Node34 -->
<g id="edge53_Node000001_Node000034" class="edge">
<title>Node1&#45;&gt;Node34</title>
<g id="a_edge53_Node000001_Node000034"><a xlink:title=" ">
<path fill="none" stroke="#63b8ff" d="M1159.6,-288.59C1029.47,-286.76 535.29,-277.84 130.25,-244 129.56,-243.94 128.87,-243.88 128.18,-243.82"/>
<polygon fill="#63b8ff" stroke="#63b8ff" points="128.55,-240.34 118.26,-242.87 127.88,-247.31 128.55,-240.34"/>
</a>
</g>
</g>
<!-- Node35 -->
<g id="Node000035" class="node">
<title>Node35</title>
<g id="a_Node000035"><a xlink:href="Commands_8hpp.html" target="_top" xlink:title=" ">
<polygon fill="white" stroke="#666666" points="135.75,-188 50.75,-188 50.75,-168 135.75,-168 135.75,-188"/>
<text text-anchor="middle" x="93.25" y="-174.5" font-family="Helvetica,sans-Serif" font-size="10.00">Commands.hpp</text>
</a>
</g>
</g>
<!-- Node1&#45;&gt;Node35 -->
<g id="edge58_Node000001_Node000035" class="edge">
<title>Node1&#45;&gt;Node35</title>
<g id="a_edge58_Node000001_Node000035"><a xlink:title=" ">
<path fill="none" stroke="#63b8ff" d="M1159.5,-288.91C994.35,-288.26 256.93,-283.17 163.25,-244 139.68,-234.15 119.13,-212.62 106.5,-197.03"/>
<polygon fill="#63b8ff" stroke="#63b8ff" points="109.52,-195.21 100.63,-189.45 103.99,-199.5 109.52,-195.21"/>
</a>
</g>
</g>
<!-- Node36 -->
<g id="Node000036" class="node">
<title>Node36</title>
<g id="a_Node000036"><a xlink:href="resource__man_8hpp.html" target="_top" xlink:title=" ">
<polygon fill="white" stroke="#666666" points="268.38,-244 172.12,-244 172.12,-224 268.38,-224 268.38,-244"/>
<text text-anchor="middle" x="220.25" y="-230.5" font-family="Helvetica,sans-Serif" font-size="10.00">resource_man.hpp</text>
</a>
</g>
</g>
<!-- Node1&#45;&gt;Node36 -->
<g id="edge61_Node000001_Node000036" class="edge">
<title>Node1&#45;&gt;Node36</title>
<g id="a_edge61_Node000001_Node000036"><a xlink:title=" ">
<path fill="none" stroke="#63b8ff" d="M1159.52,-288.5C1041.16,-286.46 624.29,-277.21 282.25,-244 281.42,-243.92 280.58,-243.84 279.74,-243.75"/>
<polygon fill="#63b8ff" stroke="#63b8ff" points="280.43,-240.31 270.1,-242.64 279.64,-247.26 280.43,-240.31"/>
</a>
</g>
</g>
<!-- Node37 -->
<g id="Node000037" class="node">
<title>Node37</title>
<g id="a_Node000037"><a xlink:href="roles_8hpp.html" target="_top" xlink:title=" ">
<polygon fill="white" stroke="#666666" points="1268.12,-244 1212.38,-244 1212.38,-224 1268.12,-224 1268.12,-244"/>
<text text-anchor="middle" x="1240.25" y="-230.5" font-family="Helvetica,sans-Serif" font-size="10.00">roles.hpp</text>
</a>
</g>
</g>
<!-- Node1&#45;&gt;Node37 -->
<g id="edge64_Node000001_Node000037" class="edge">
<title>Node1&#45;&gt;Node37</title>
<g id="a_edge64_Node000001_Node000037"><a xlink:title=" ">
<path fill="none" stroke="#63b8ff" d="M1200.61,-279.59C1207.15,-272.24 1216.43,-261.8 1224.37,-252.87"/>
<polygon fill="#63b8ff" stroke="#63b8ff" points="1226.95,-255.23 1230.98,-245.43 1221.72,-250.58 1226.95,-255.23"/>
</a>
</g>
</g>
<!-- Node38 -->
<g id="Node000038" class="node">
<title>Node38</title>
<g id="a_Node000038"><a xlink:href="user__man_8hpp.html" target="_top" xlink:title=" ">
<polygon fill="white" stroke="#666666" points="294,-188 216.5,-188 216.5,-168 294,-168 294,-188"/>
<text text-anchor="middle" x="255.25" y="-174.5" font-family="Helvetica,sans-Serif" font-size="10.00">user_man.hpp</text>
</a>
</g>
</g>
<!-- Node1&#45;&gt;Node38 -->
<g id="edge75_Node000001_Node000038" class="edge">
<title>Node1&#45;&gt;Node38</title>
<g id="a_edge75_Node000001_Node000038"><a xlink:title=" ">
<path fill="none" stroke="#63b8ff" d="M1159.42,-288.69C1009.99,-287.12 397.99,-278.57 320.25,-244 298,-234.1 279.18,-212.92 267.61,-197.41"/>
<polygon fill="#63b8ff" stroke="#63b8ff" points="270.61,-195.58 261.96,-189.45 264.9,-199.63 270.61,-195.58"/>
</a>
</g>
</g>
<!-- Node3 -->
<g id="Node000003" class="node">
<title>Node3</title>
<g id="a_Node000003"><a xlink:title=" ">
<polygon fill="#e0e0e0" stroke="#999999" points="1009.38,-76 937.12,-76 937.12,-56 1009.38,-56 1009.38,-76"/>
<text text-anchor="middle" x="973.25" y="-62.5" font-family="Helvetica,sans-Serif" font-size="10.00">dpp/cluster.h</text>
</a>
</g>
</g>
<!-- Node2&#45;&gt;Node3 -->
<g id="edge2_Node000002_Node000003" class="edge">
<title>Node2&#45;&gt;Node3</title>
<g id="a_edge2_Node000002_Node000003"><a xlink:title=" ">
<path fill="none" stroke="#63b8ff" d="M456.02,-167.92C465.92,-153.24 487.66,-124.67 514.25,-112 589.43,-76.18 804.39,-84.33 887.25,-76 899.72,-74.75 913.19,-73.35 925.7,-72.05"/>
<polygon fill="#63b8ff" stroke="#63b8ff" points="925.77,-75.56 935.35,-71.03 925.03,-68.6 925.77,-75.56"/>
</a>
</g>
</g>
<!-- Node2&#45;&gt;Node4 -->
<g id="edge3_Node000002_Node000004" class="edge">
<title>Node2&#45;&gt;Node4</title>
<g id="a_edge3_Node000002_Node000004"><a xlink:title=" ">
<path fill="none" stroke="#63b8ff" d="M445.39,-167.71C438.84,-153.77 429.5,-127.42 443.25,-112 465.17,-87.41 675.89,-74.34 778.56,-69.38"/>
<polygon fill="#63b8ff" stroke="#63b8ff" points="778.6,-72.88 788.42,-68.91 778.27,-65.89 778.6,-72.88"/>
</a>
</g>
</g>
<!-- Node5 -->
<g id="Node000005" class="node">
<title>Node5</title>
<g id="a_Node000005"><a xlink:title=" ">
<polygon fill="#e0e0e0" stroke="#999999" points="186.62,-132 127.88,-132 127.88,-112 186.62,-112 186.62,-132"/>
<text text-anchor="middle" x="157.25" y="-118.5" font-family="Helvetica,sans-Serif" font-size="10.00">dpp/dpp.h</text>
</a>
</g>
</g>
<!-- Node2&#45;&gt;Node5 -->
<g id="edge4_Node000002_Node000005" class="edge">
<title>Node2&#45;&gt;Node5</title>
<g id="a_edge4_Node000002_Node000005"><a xlink:title=" ">
<path fill="none" stroke="#63b8ff" d="M425.9,-173.18C382.25,-166.24 287.55,-150.72 198.23,-132.53"/>
<polygon fill="#63b8ff" stroke="#63b8ff" points="199.07,-129.13 188.57,-130.54 197.66,-135.98 199.07,-129.13"/>
</a>
</g>
</g>
<!-- Node6 -->
<g id="Node000006" class="node">
<title>Node6</title>
<g id="a_Node000006"><a xlink:title=" ">
<polygon fill="#e0e0e0" stroke="#999999" points="390.75,-132 341.75,-132 341.75,-112 390.75,-112 390.75,-132"/>
<text text-anchor="middle" x="366.25" y="-118.5" font-family="Helvetica,sans-Serif" font-size="10.00">fstream</text>
</a>
</g>
</g>
<!-- Node2&#45;&gt;Node6 -->
<g id="edge5_Node000002_Node000006" class="edge">
<title>Node2&#45;&gt;Node6</title>
<g id="a_edge5_Node000002_Node000006"><a xlink:title=" ">
<path fill="none" stroke="#63b8ff" d="M435.62,-167.59C423.17,-159.59 405.03,-147.93 390.43,-138.54"/>
<polygon fill="#63b8ff" stroke="#63b8ff" points="392.57,-135.76 382.27,-133.3 388.79,-141.65 392.57,-135.76"/>
</a>
</g>
</g>
<!-- Node12&#45;&gt;Node10 -->
<g id="edge16_Node000012_Node000010" class="edge">
<title>Node12&#45;&gt;Node10</title>
<g id="a_edge16_Node000012_Node000010"><a xlink:title=" ">
<path fill="none" stroke="#63b8ff" d="M1450.49,-230.47C1525.65,-226.37 1636.7,-215.68 1668.25,-188 1680.83,-176.97 1685.29,-158.11 1686.78,-143.54"/>
<polygon fill="#63b8ff" stroke="#63b8ff" points="1690.27,-143.85 1687.36,-133.66 1683.28,-143.44 1690.27,-143.85"/>
</a>
</g>
</g>
<!-- Node13 -->
<g id="Node000013" class="node">
<title>Node13</title>
<g id="a_Node000013"><a xlink:title=" ">
<polygon fill="#e0e0e0" stroke="#999999" points="1451.88,-188 1382.62,-188 1382.62,-168 1451.88,-168 1451.88,-188"/>
<text text-anchor="middle" x="1417.25" y="-174.5" font-family="Helvetica,sans-Serif" font-size="10.00">dpp/colors.h</text>
</a>
</g>
</g>
<!-- Node12&#45;&gt;Node13 -->
<g id="edge13_Node000012_Node000013" class="edge">
<title>Node12&#45;&gt;Node13</title>
<g id="a_edge13_Node000012_Node000013"><a xlink:title=" ">
<path fill="none" stroke="#63b8ff" d="M1385.04,-223.59C1390.24,-216.39 1397.58,-206.23 1403.94,-197.43"/>
<polygon fill="#63b8ff" stroke="#63b8ff" points="1406.63,-199.68 1409.65,-189.53 1400.96,-195.58 1406.63,-199.68"/>
</a>
</g>
</g>
<!-- Node14 -->
<g id="Node000014" class="node">
<title>Node14</title>
<g id="a_Node000014"><a xlink:title=" ">
<polygon fill="#e0e0e0" stroke="#999999" points="1552.62,-188 1469.88,-188 1469.88,-168 1552.62,-168 1552.62,-188"/>
<text text-anchor="middle" x="1511.25" y="-174.5" font-family="Helvetica,sans-Serif" font-size="10.00">dpp/message.h</text>
</a>
</g>
</g>
<!-- Node12&#45;&gt;Node14 -->
<g id="edge14_Node000012_Node000014" class="edge">
<title>Node12&#45;&gt;Node14</title>
<g id="a_edge14_Node000012_Node000014"><a xlink:title=" ">
<path fill="none" stroke="#63b8ff" d="M1401.42,-223.59C1422.46,-215.05 1453.75,-202.35 1477.55,-192.68"/>
<polygon fill="#63b8ff" stroke="#63b8ff" points="1478.55,-196.05 1486.5,-189.05 1475.92,-189.57 1478.55,-196.05"/>
</a>
</g>
</g>
<!-- Node15 -->
<g id="Node000015" class="node">
<title>Node15</title>
<g id="a_Node000015"><a xlink:title=" ">
<polygon fill="#e0e0e0" stroke="#999999" points="1659.62,-188 1570.88,-188 1570.88,-168 1659.62,-168 1659.62,-188"/>
<text text-anchor="middle" x="1615.25" y="-174.5" font-family="Helvetica,sans-Serif" font-size="10.00">dpp/restresults.h</text>
</a>
</g>
</g>
<!-- Node12&#45;&gt;Node15 -->
<g id="edge15_Node000012_Node000015" class="edge">
<title>Node12&#45;&gt;Node15</title>
<g id="a_edge15_Node000012_Node000015"><a xlink:title=" ">
<path fill="none" stroke="#63b8ff" d="M1419.8,-223.53C1459.53,-214.48 1519.59,-200.8 1562.64,-190.99"/>
<polygon fill="#63b8ff" stroke="#63b8ff" points="1563.3,-194.43 1572.27,-188.79 1561.74,-187.6 1563.3,-194.43"/>
</a>
</g>
</g>
<!-- Node12&#45;&gt;Node16 -->
<g id="edge17_Node000012_Node000016" class="edge">
<title>Node12&#45;&gt;Node16</title>
<g id="a_edge17_Node000012_Node000016"><a xlink:title=" ">
<path fill="none" stroke="#63b8ff" d="M1334.07,-223.53C1286.41,-213.32 1211.24,-197.21 1165.57,-187.43"/>
<polygon fill="#63b8ff" stroke="#63b8ff" points="1166.34,-184.01 1155.83,-185.34 1164.87,-190.86 1166.34,-184.01"/>
</a>
</g>
</g>
<!-- Node12&#45;&gt;Node17 -->
<g id="edge49_Node000012_Node000017" class="edge">
<title>Node12&#45;&gt;Node17</title>
<g id="a_edge49_Node000012_Node000017"><a xlink:title=" ">
<path fill="none" stroke="#63b8ff" d="M1306.01,-226.15C1296.34,-225.35 1286.56,-224.61 1277.25,-224 1086.38,-211.51 602.21,-236.78 417.25,-188 398.41,-183.03 396,-176.03 378.25,-168 352.88,-156.52 323.65,-145.02 301.14,-136.51"/>
<polygon fill="#63b8ff" stroke="#63b8ff" points="302.37,-133.23 291.78,-133.01 299.91,-139.79 302.37,-133.23"/>
</a>
</g>
</g>
<!-- Node12&#45;&gt;Node22 -->
<g id="edge52_Node000012_Node000022" class="edge">
<title>Node12&#45;&gt;Node22</title>
<g id="a_edge52_Node000012_Node000022"><a xlink:title=" ">
<path fill="none" stroke="#63b8ff" d="M1450.23,-228.63C1567.94,-219.73 1792.92,-194.72 1836.25,-132 1855.4,-104.28 1807.79,-84.74 1773.56,-74.72"/>
<polygon fill="#63b8ff" stroke="#63b8ff" points="1774.61,-71.38 1764.03,-72.09 1772.74,-78.12 1774.61,-71.38"/>
</a>
</g>
</g>
<!-- Node32 -->
<g id="Node000032" class="node">
<title>Node32</title>
<g id="a_Node000032"><a xlink:title=" ">
<polygon fill="#e0e0e0" stroke="#999999" points="1288.25,-188 1248.25,-188 1248.25,-168 1288.25,-168 1288.25,-188"/>
<text text-anchor="middle" x="1268.25" y="-174.5" font-family="Helvetica,sans-Serif" font-size="10.00">stack</text>
</a>
</g>
</g>
<!-- Node12&#45;&gt;Node32 -->
<g id="edge50_Node000012_Node000032" class="edge">
<title>Node12&#45;&gt;Node32</title>
<g id="a_edge50_Node000012_Node000032"><a xlink:title=" ">
<path fill="none" stroke="#63b8ff" d="M1359.09,-223.59C1342.16,-215.28 1317.2,-203.03 1297.73,-193.47"/>
<polygon fill="#63b8ff" stroke="#63b8ff" points="1299.44,-190.41 1288.92,-189.15 1296.35,-196.7 1299.44,-190.41"/>
</a>
</g>
</g>
<!-- Node33 -->
<g id="Node000033" class="node">
<title>Node33</title>
<g id="a_Node000033"><a xlink:title=" ">
<polygon fill="#e0e0e0" stroke="#999999" points="1364.62,-188 1305.88,-188 1305.88,-168 1364.62,-168 1364.62,-188"/>
<text text-anchor="middle" x="1335.25" y="-174.5" font-family="Helvetica,sans-Serif" font-size="10.00">stdexcept</text>
</a>
</g>
</g>
<!-- Node12&#45;&gt;Node33 -->
<g id="edge51_Node000012_Node000033" class="edge">
<title>Node12&#45;&gt;Node33</title>
<g id="a_edge51_Node000012_Node000033"><a xlink:title=" ">
<path fill="none" stroke="#63b8ff" d="M1370.76,-223.59C1364.96,-216.32 1356.76,-206.02 1349.7,-197.15"/>
<polygon fill="#63b8ff" stroke="#63b8ff" points="1352.56,-195.12 1343.6,-189.48 1347.09,-199.49 1352.56,-195.12"/>
</a>
</g>
</g>
<!-- Node16&#45;&gt;Node5 -->
<g id="edge18_Node000016_Node000005" class="edge">
<title>Node16&#45;&gt;Node5</title>
<g id="a_edge18_Node000016_Node000005"><a xlink:title=" ">
<path fill="none" stroke="#63b8ff" d="M1097.9,-176.33C964.56,-173.1 398.26,-158.15 198.25,-132.13"/>
<polygon fill="#63b8ff" stroke="#63b8ff" points="198.9,-128.68 188.52,-130.8 197.96,-135.62 198.9,-128.68"/>
</a>
</g>
</g>
<!-- Node16&#45;&gt;Node7 -->
<g id="edge19_Node000016_Node000007" class="edge">
<title>Node16&#45;&gt;Node7</title>
<g id="a_edge19_Node000016_Node000007"><a xlink:title=" ">
<path fill="none" stroke="#63b8ff" d="M1154.57,-174.7C1177.43,-172.85 1210.41,-170.21 1239.25,-168 1451.95,-151.67 1508.79,-157.35 1724.01,-132.16"/>
<polygon fill="#63b8ff" stroke="#63b8ff" points="1724.35,-135.64 1733.87,-131 1723.53,-128.69 1724.35,-135.64"/>
</a>
</g>
</g>
<!-- Node16&#45;&gt;Node10 -->
<g id="edge20_Node000016_Node000010" class="edge">
<title>Node16&#45;&gt;Node10</title>
<g id="a_edge20_Node000016_Node000010"><a xlink:title=" ">
<path fill="none" stroke="#63b8ff" d="M1154.37,-173.68C1169.7,-171.9 1189.01,-169.74 1206.25,-168 1385.61,-149.92 1430.93,-150.47 1610.25,-132 1621.8,-130.81 1634.3,-129.4 1645.81,-128.06"/>
<polygon fill="#63b8ff" stroke="#63b8ff" points="1645.89,-131.57 1655.41,-126.92 1645.07,-124.62 1645.89,-131.57"/>
</a>
</g>
</g>
<!-- Node16&#45;&gt;Node17 -->
<g id="edge21_Node000016_Node000017" class="edge">
<title>Node16&#45;&gt;Node17</title>
<g id="a_edge21_Node000016_Node000017"><a xlink:title=" ">
<path fill="none" stroke="#63b8ff" d="M1098.06,-176.17C996.57,-173.01 640.07,-160.53 335.56,-132.25"/>
<polygon fill="#63b8ff" stroke="#63b8ff" points="336.08,-128.78 325.8,-131.34 335.43,-135.75 336.08,-128.78"/>
</a>
</g>
</g>
<!-- Node26 -->
<g id="Node000026" class="node">
<title>Node26</title>
<g id="a_Node000026"><a xlink:href="IButtonCommand_8hpp.html" target="_top" xlink:title=" ">
<polygon fill="white" stroke="#666666" points="1051.75,-132 894.75,-132 894.75,-112 1051.75,-112 1051.75,-132"/>
<text text-anchor="middle" x="973.25" y="-118.5" font-family="Helvetica,sans-Serif" font-size="10.00">interfaces/IButtonCommand.hpp</text>
</a>
</g>
</g>
<!-- Node16&#45;&gt;Node26 -->
<g id="edge31_Node000016_Node000026" class="edge">
<title>Node16&#45;&gt;Node26</title>
<g id="a_edge31_Node000016_Node000026"><a xlink:title=" ">
<path fill="none" stroke="#63b8ff" d="M1099.6,-167.59C1075.07,-158.94 1038.42,-146 1010.91,-136.29"/>
<polygon fill="#63b8ff" stroke="#63b8ff" points="1012.13,-133.01 1001.54,-132.98 1009.8,-139.61 1012.13,-133.01"/>
</a>
</g>
</g>
<!-- Node27 -->
<g id="Node000027" class="node">
<title>Node27</title>
<g id="a_Node000027"><a xlink:href="IFormCommand_8hpp.html" target="_top" xlink:title=" ">
<polygon fill="white" stroke="#666666" points="1220.75,-132 1069.75,-132 1069.75,-112 1220.75,-112 1220.75,-132"/>
<text text-anchor="middle" x="1145.25" y="-118.5" font-family="Helvetica,sans-Serif" font-size="10.00">interfaces/IFormCommand.hpp</text>
</a>
</g>
</g>
<!-- Node16&#45;&gt;Node27 -->
<g id="edge34_Node000016_Node000027" class="edge">
<title>Node16&#45;&gt;Node27</title>
<g id="a_edge34_Node000016_Node000027"><a xlink:title=" ">
<path fill="none" stroke="#63b8ff" d="M1129.56,-167.59C1131.93,-160.86 1135.21,-151.53 1138.16,-143.15"/>
<polygon fill="#63b8ff" stroke="#63b8ff" points="1141.46,-144.32 1141.48,-133.73 1134.86,-142 1141.46,-144.32"/>
</a>
</g>
</g>
<!-- Node28 -->
<g id="Node000028" class="node">
<title>Node28</title>
<g id="a_Node000028"><a xlink:href="IGlobalSlashCommand_8hpp.html" target="_top" xlink:title=" ">
<polygon fill="white" stroke="#666666" points="1419.75,-132 1238.75,-132 1238.75,-112 1419.75,-112 1419.75,-132"/>
<text text-anchor="middle" x="1329.25" y="-118.5" font-family="Helvetica,sans-Serif" font-size="10.00">interfaces/IGlobalSlashCommand.hpp</text>
</a>
</g>
</g>
<!-- Node16&#45;&gt;Node28 -->
<g id="edge37_Node000016_Node000028" class="edge">
<title>Node16&#45;&gt;Node28</title>
<g id="a_edge37_Node000016_Node000028"><a xlink:title=" ">
<path fill="none" stroke="#63b8ff" d="M1154.48,-169.49C1187.67,-160.66 1243.23,-145.88 1282.8,-135.36"/>
<polygon fill="#63b8ff" stroke="#63b8ff" points="1283.53,-138.78 1292.3,-132.83 1281.73,-132.02 1283.53,-138.78"/>
</a>
</g>
</g>
<!-- Node29 -->
<g id="Node000029" class="node">
<title>Node29</title>
<g id="a_Node000029"><a xlink:href="IMemberCommand_8hpp.html" target="_top" xlink:title=" ">
<polygon fill="white" stroke="#666666" points="1601.12,-132 1437.38,-132 1437.38,-112 1601.12,-112 1601.12,-132"/>
<text text-anchor="middle" x="1519.25" y="-118.5" font-family="Helvetica,sans-Serif" font-size="10.00">interfaces/IMemberCommand.hpp</text>
</a>
</g>
</g>
<!-- Node16&#45;&gt;Node29 -->
<g id="edge40_Node000016_Node000029" class="edge">
<title>Node16&#45;&gt;Node29</title>
<g id="a_edge40_Node000016_Node000029"><a xlink:title=" ">
<path fill="none" stroke="#63b8ff" d="M1154.2,-170.67C1158.88,-169.71 1163.69,-168.78 1168.25,-168 1255.19,-153.14 1355.01,-140.79 1425.92,-132.82"/>
<polygon fill="#63b8ff" stroke="#63b8ff" points="1425.99,-136.33 1435.54,-131.74 1425.22,-129.37 1425.99,-136.33"/>
</a>
</g>
</g>
<!-- Node30 -->
<g id="Node000030" class="node">
<title>Node30</title>
<g id="a_Node000030"><a xlink:href="IMessageCommand_8hpp.html" target="_top" xlink:title=" ">
<polygon fill="white" stroke="#666666" points="691.38,-132 523.12,-132 523.12,-112 691.38,-112 691.38,-132"/>
<text text-anchor="middle" x="607.25" y="-118.5" font-family="Helvetica,sans-Serif" font-size="10.00">interfaces/IMessageCommand.hpp</text>
</a>
</g>
</g>
<!-- Node16&#45;&gt;Node30 -->
<g id="edge43_Node000016_Node000030" class="edge">
<title>Node16&#45;&gt;Node30</title>
<g id="a_edge43_Node000016_Node000030"><a xlink:title=" ">
<path fill="none" stroke="#63b8ff" d="M1097.98,-174.06C1024.31,-166.39 823.81,-145.53 703.11,-132.97"/>
<polygon fill="#63b8ff" stroke="#63b8ff" points="703.5,-129.5 693.19,-131.94 702.77,-136.46 703.5,-129.5"/>
</a>
</g>
</g>
<!-- Node31 -->
<g id="Node000031" class="node">
<title>Node31</title>
<g id="a_Node000031"><a xlink:href="IReactionCommand_8hpp.html" target="_top" xlink:title=" ">
<polygon fill="white" stroke="#666666" points="877,-132 709.5,-132 709.5,-112 877,-112 877,-132"/>
<text text-anchor="middle" x="793.25" y="-118.5" font-family="Helvetica,sans-Serif" font-size="10.00">interfaces/IReactionCommand.hpp</text>
</a>
</g>
</g>
<!-- Node16&#45;&gt;Node31 -->
<g id="edge46_Node000016_Node000031" class="edge">
<title>Node16&#45;&gt;Node31</title>
<g id="a_edge46_Node000016_Node000031"><a xlink:title=" ">
<path fill="none" stroke="#63b8ff" d="M1098.15,-172.44C1046.72,-164.1 936.08,-146.16 863.18,-134.34"/>
<polygon fill="#63b8ff" stroke="#63b8ff" points="863.75,-130.89 853.32,-132.74 862.63,-137.8 863.75,-130.89"/>
</a>
</g>
</g>
<!-- Node18 -->
<g id="Node000018" class="node">
<title>Node18</title>
<g id="a_Node000018"><a xlink:title=" ">
<polygon fill="#e0e0e0" stroke="#999999" points="390.38,-76 342.12,-76 342.12,-56 390.38,-56 390.38,-76"/>
<text text-anchor="middle" x="366.25" y="-62.5" font-family="Helvetica,sans-Serif" font-size="10.00">cstddef</text>
</a>
</g>
</g>
<!-- Node17&#45;&gt;Node18 -->
<g id="edge22_Node000017_Node000018" class="edge">
<title>Node17&#45;&gt;Node18</title>
<g id="a_edge22_Node000017_Node000018"><a xlink:title=" ">
<path fill="none" stroke="#63b8ff" d="M282.02,-111.59C297.57,-103.36 320.43,-91.26 338.41,-81.74"/>
<polygon fill="#63b8ff" stroke="#63b8ff" points="339.81,-84.96 347.01,-77.19 336.53,-78.77 339.81,-84.96"/>
</a>
</g>
</g>
<!-- Node19 -->
<g id="Node000019" class="node">
<title>Node19</title>
<g id="a_Node000019"><a xlink:title=" ">
<polygon fill="#e0e0e0" stroke="#999999" points="120,-76 66.5,-76 66.5,-56 120,-56 120,-76"/>
<text text-anchor="middle" x="93.25" y="-62.5" font-family="Helvetica,sans-Serif" font-size="10.00">iostream</text>
</a>
</g>
</g>
<!-- Node17&#45;&gt;Node19 -->
<g id="edge23_Node000017_Node000019" class="edge">
<title>Node17&#45;&gt;Node19</title>
<g id="a_edge23_Node000017_Node000019"><a xlink:title=" ">
<path fill="none" stroke="#63b8ff" d="M234.46,-111.59C205.83,-102.55 162.43,-88.85 131.3,-79.02"/>
<polygon fill="#63b8ff" stroke="#63b8ff" points="132.47,-75.72 121.88,-76.04 130.37,-82.39 132.47,-75.72"/>
</a>
</g>
</g>
<!-- Node20 -->
<g id="Node000020" class="node">
<title>Node20</title>
<g id="a_Node000020"><a xlink:title=" ">
<polygon fill="#e0e0e0" stroke="#999999" points="458.12,-76 408.38,-76 408.38,-56 458.12,-56 458.12,-76"/>
<text text-anchor="middle" x="433.25" y="-62.5" font-family="Helvetica,sans-Serif" font-size="10.00">optional</text>
</a>
</g>
</g>
<!-- Node17&#45;&gt;Node20 -->
<g id="edge24_Node000017_Node000020" class="edge">
<title>Node17&#45;&gt;Node20</title>
<g id="a_edge24_Node000017_Node000020"><a xlink:title=" ">
<path fill="none" stroke="#63b8ff" d="M293.69,-111.59C322.49,-102.39 366.42,-88.35 397.28,-78.49"/>
<polygon fill="#63b8ff" stroke="#63b8ff" points="398.1,-81.9 406.56,-75.53 395.97,-75.24 398.1,-81.9"/>
</a>
</g>
</g>
<!-- Node21 -->
<g id="Node000021" class="node">
<title>Node21</title>
<g id="a_Node000021"><a xlink:title=" ">
<polygon fill="#e0e0e0" stroke="#999999" points="369.75,-20 308.75,-20 308.75,0 369.75,0 369.75,-20"/>
<text text-anchor="middle" x="339.25" y="-6.5" font-family="Helvetica,sans-Serif" font-size="10.00">pqxx/pqxx</text>
</a>
</g>
</g>
<!-- Node17&#45;&gt;Node21 -->
<g id="edge25_Node000017_Node000021" class="edge">
<title>Node17&#45;&gt;Node21</title>
<g id="a_edge25_Node000017_Node000021"><a xlink:title=" ">
<path fill="none" stroke="#63b8ff" d="M324.4,-111.56C380.93,-102.07 458.2,-87.28 467.25,-76 493.91,-42.78 427.92,-24.95 381.11,-16.76"/>
<polygon fill="#63b8ff" stroke="#63b8ff" points="381.91,-13.34 371.48,-15.17 380.78,-20.25 381.91,-13.34"/>
</a>
</g>
</g>
<!-- Node17&#45;&gt;Node22 -->
<g id="edge26_Node000017_Node000022" class="edge">
<title>Node17&#45;&gt;Node22</title>
<g id="a_edge26_Node000017_Node000022"><a xlink:title=" ">
<path fill="none" stroke="#63b8ff" d="M324.28,-112.72C326.97,-112.46 329.64,-112.21 332.25,-112 883.03,-66.88 1558.28,-66.34 1710.7,-66.84"/>
<polygon fill="#63b8ff" stroke="#63b8ff" points="1710.39,-70.34 1720.41,-66.88 1710.42,-63.34 1710.39,-70.34"/>
</a>
</g>
</g>
<!-- Node23 -->
<g id="Node000023" class="node">
<title>Node23</title>
<g id="a_Node000023"><a xlink:title=" ">
<polygon fill="#e0e0e0" stroke="#999999" points="324.25,-76 266.25,-76 266.25,-56 324.25,-56 324.25,-76"/>
<text text-anchor="middle" x="295.25" y="-62.5" font-family="Helvetica,sans-Serif" font-size="10.00">typeindex</text>
</a>
</g>
</g>
<!-- Node17&#45;&gt;Node23 -->
<g id="edge27_Node000017_Node000023" class="edge">
<title>Node17&#45;&gt;Node23</title>
<g id="a_edge27_Node000017_Node000023"><a xlink:title=" ">
<path fill="none" stroke="#63b8ff" d="M269.65,-111.59C273.69,-104.55 279.37,-94.67 284.34,-86"/>
<polygon fill="#63b8ff" stroke="#63b8ff" points="287.22,-88.03 289.16,-77.61 281.14,-84.54 287.22,-88.03"/>
</a>
</g>
</g>
<!-- Node24 -->
<g id="Node000024" class="node">
<title>Node24</title>
<g id="a_Node000024"><a xlink:title=" ">
<polygon fill="#e0e0e0" stroke="#999999" points="48.75,-76 5.75,-76 5.75,-56 48.75,-56 48.75,-76"/>
<text text-anchor="middle" x="27.25" y="-62.5" font-family="Helvetica,sans-Serif" font-size="10.00">vector</text>
</a>
</g>
</g>
<!-- Node17&#45;&gt;Node24 -->
<g id="edge28_Node000017_Node000024" class="edge">
<title>Node17&#45;&gt;Node24</title>
<g id="a_edge28_Node000017_Node000024"><a xlink:title=" ">
<path fill="none" stroke="#63b8ff" d="M215.48,-111.51C175.84,-103.54 118.26,-91.41 60.03,-76.58"/>
<polygon fill="#63b8ff" stroke="#63b8ff" points="61.17,-73.26 50.62,-74.16 59.43,-80.04 61.17,-73.26"/>
</a>
</g>
</g>
<!-- Node25 -->
<g id="Node000025" class="node">
<title>Node25</title>
<g id="a_Node000025"><a xlink:href="RowDTOAdapter_8hpp.html" target="_top" xlink:title=" ">
<polygon fill="white" stroke="#666666" points="248.12,-76 138.38,-76 138.38,-56 248.12,-56 248.12,-76"/>
<text text-anchor="middle" x="193.25" y="-62.5" font-family="Helvetica,sans-Serif" font-size="10.00">RowDTOAdapter.hpp</text>
</a>
</g>
</g>
<!-- Node17&#45;&gt;Node25 -->
<g id="edge29_Node000017_Node000025" class="edge">
<title>Node17&#45;&gt;Node25</title>
<g id="a_edge29_Node000017_Node000025"><a xlink:title=" ">
<path fill="none" stroke="#63b8ff" d="M251.88,-111.59C241.6,-103.77 226.73,-92.46 214.54,-83.19"/>
<polygon fill="#63b8ff" stroke="#63b8ff" points="216.76,-80.48 206.68,-77.21 212.52,-86.05 216.76,-80.48"/>
</a>
</g>
</g>
<!-- Node25&#45;&gt;Node21 -->
<g id="edge30_Node000025_Node000021" class="edge">
<title>Node25&#45;&gt;Node21</title>
<g id="a_edge30_Node000025_Node000021"><a xlink:title=" ">
<path fill="none" stroke="#63b8ff" d="M218.68,-55.59C241.99,-46.97 276.75,-34.12 302.97,-24.42"/>
<polygon fill="#63b8ff" stroke="#63b8ff" points="304.04,-27.76 312.2,-21 301.61,-21.19 304.04,-27.76"/>
</a>
</g>
</g>
<!-- Node26&#45;&gt;Node3 -->
<g id="edge32_Node000026_Node000003" class="edge">
<title>Node26&#45;&gt;Node3</title>
<g id="a_edge32_Node000026_Node000003"><a xlink:title=" ">
<path fill="none" stroke="#63b8ff" d="M973.25,-111.59C973.25,-105.01 973.25,-95.96 973.25,-87.73"/>
<polygon fill="#63b8ff" stroke="#63b8ff" points="976.75,-87.81 973.25,-77.81 969.75,-87.81 976.75,-87.81"/>
</a>
</g>
</g>
<!-- Node26&#45;&gt;Node4 -->
<g id="edge33_Node000026_Node000004" class="edge">
<title>Node26&#45;&gt;Node4</title>
<g id="a_edge33_Node000026_Node000004"><a xlink:title=" ">
<path fill="none" stroke="#63b8ff" d="M949.04,-111.59C926.95,-103.01 894.05,-90.23 869.13,-80.55"/>
<polygon fill="#63b8ff" stroke="#63b8ff" points="870.65,-77.39 860.06,-77.03 868.12,-83.91 870.65,-77.39"/>
</a>
</g>
</g>
<!-- Node27&#45;&gt;Node3 -->
<g id="edge35_Node000027_Node000003" class="edge">
<title>Node27&#45;&gt;Node3</title>
<g id="a_edge35_Node000027_Node000003"><a xlink:title=" ">
<path fill="none" stroke="#63b8ff" d="M1115.29,-111.59C1087.34,-102.82 1045.42,-89.66 1014.35,-79.9"/>
<polygon fill="#63b8ff" stroke="#63b8ff" points="1015.48,-76.59 1004.89,-76.93 1013.38,-83.27 1015.48,-76.59"/>
</a>
</g>
</g>
<!-- Node27&#45;&gt;Node4 -->
<g id="edge36_Node000027_Node000004" class="edge">
<title>Node27&#45;&gt;Node4</title>
<g id="a_edge36_Node000027_Node000004"><a xlink:title=" ">
<path fill="none" stroke="#63b8ff" d="M1090.72,-111.53C1034.33,-101.74 946.73,-86.53 889.92,-76.67"/>
<polygon fill="#63b8ff" stroke="#63b8ff" points="890.58,-73.23 880.13,-74.97 889.38,-80.13 890.58,-73.23"/>
</a>
</g>
</g>
<!-- Node28&#45;&gt;Node3 -->
<g id="edge38_Node000028_Node000003" class="edge">
<title>Node28&#45;&gt;Node3</title>
<g id="a_edge38_Node000028_Node000003"><a xlink:title=" ">
<path fill="none" stroke="#63b8ff" d="M1266.83,-111.53C1196.62,-100.88 1084.14,-83.82 1020.73,-74.2"/>
<polygon fill="#63b8ff" stroke="#63b8ff" points="1021.39,-70.76 1010.98,-72.72 1020.34,-77.68 1021.39,-70.76"/>
</a>
</g>
</g>
<!-- Node28&#45;&gt;Node4 -->
<g id="edge39_Node000028_Node000004" class="edge">
<title>Node28&#45;&gt;Node4</title>
<g id="a_edge39_Node000028_Node000004"><a xlink:title=" ">
<path fill="none" stroke="#63b8ff" d="M1242.18,-111.5C1140.6,-100.42 975.67,-82.43 889.96,-73.08"/>
<polygon fill="#63b8ff" stroke="#63b8ff" points="890.48,-69.61 880.16,-72.01 889.72,-76.57 890.48,-69.61"/>
</a>
</g>
</g>
<!-- Node29&#45;&gt;Node3 -->
<g id="edge41_Node000029_Node000003" class="edge">
<title>Node29&#45;&gt;Node3</title>
<g id="a_edge41_Node000029_Node000003"><a xlink:title=" ">
<path fill="none" stroke="#63b8ff" d="M1437.33,-112.8C1434.61,-112.53 1431.91,-112.26 1429.25,-112 1280.27,-97.2 1103.9,-79.84 1020.92,-71.68"/>
<polygon fill="#63b8ff" stroke="#63b8ff" points="1021.4,-68.21 1011.11,-70.72 1020.72,-75.18 1021.4,-68.21"/>
</a>
</g>
</g>
<!-- Node29&#45;&gt;Node4 -->
<g id="edge42_Node000029_Node000004" class="edge">
<title>Node29&#45;&gt;Node4</title>
<g id="a_edge42_Node000029_Node000004"><a xlink:title=" ">
<path fill="none" stroke="#63b8ff" d="M1437.34,-112.71C1434.61,-112.47 1431.91,-112.23 1429.25,-112 1206.83,-92.89 1150.71,-94.64 928.25,-76 915.87,-74.96 902.58,-73.75 890,-72.56"/>
<polygon fill="#63b8ff" stroke="#63b8ff" points="890.5,-69.09 880.21,-71.62 889.83,-76.06 890.5,-69.09"/>
</a>
</g>
</g>
<!-- Node30&#45;&gt;Node3 -->
<g id="edge44_Node000030_Node000003" class="edge">
<title>Node30&#45;&gt;Node3</title>
<g id="a_edge44_Node000030_Node000003"><a xlink:title=" ">
<path fill="none" stroke="#63b8ff" d="M671.42,-111.53C744.14,-100.8 860.96,-83.57 925.88,-73.99"/>
<polygon fill="#63b8ff" stroke="#63b8ff" points="926.11,-77.49 935.49,-72.57 925.09,-70.57 926.11,-77.49"/>
</a>
</g>
</g>
<!-- Node30&#45;&gt;Node4 -->
<g id="edge45_Node000030_Node000004" class="edge">
<title>Node30&#45;&gt;Node4</title>
<g id="a_edge45_Node000030_Node000004"><a xlink:title=" ">
<path fill="none" stroke="#63b8ff" d="M647.05,-111.53C684.94,-102.52 742.14,-88.91 783.33,-79.11"/>
<polygon fill="#63b8ff" stroke="#63b8ff" points="784.1,-82.53 793.02,-76.81 782.48,-75.72 784.1,-82.53"/>
</a>
</g>
</g>
<!-- Node31&#45;&gt;Node3 -->
<g id="edge47_Node000031_Node000003" class="edge">
<title>Node31&#45;&gt;Node3</title>
<g id="a_edge47_Node000031_Node000003"><a xlink:title=" ">
<path fill="none" stroke="#63b8ff" d="M824.6,-111.59C853.98,-102.78 898.11,-89.54 930.66,-79.78"/>
<polygon fill="#63b8ff" stroke="#63b8ff" points="931.63,-83.14 940.2,-76.91 929.62,-76.44 931.63,-83.14"/>
</a>
</g>
</g>
<!-- Node31&#45;&gt;Node4 -->
<g id="edge48_Node000031_Node000004" class="edge">
<title>Node31&#45;&gt;Node4</title>
<g id="a_edge48_Node000031_Node000004"><a xlink:title=" ">
<path fill="none" stroke="#63b8ff" d="M800.39,-111.59C805.86,-104.39 813.57,-94.23 820.26,-85.43"/>
<polygon fill="#63b8ff" stroke="#63b8ff" points="823.02,-87.58 826.27,-77.5 817.44,-83.35 823.02,-87.58"/>
</a>
</g>
</g>
<!-- Node34&#45;&gt;Node35 -->
<g id="edge54_Node000034_Node000035" class="edge">
<title>Node34&#45;&gt;Node35</title>
<g id="a_edge54_Node000034_Node000035"><a xlink:title=" ">
<path fill="none" stroke="#63b8ff" d="M64.35,-223.59C68.96,-216.47 75.46,-206.45 81.12,-197.72"/>
<polygon fill="#63b8ff" stroke="#63b8ff" points="83.9,-199.86 86.4,-189.57 78.02,-196.06 83.9,-199.86"/>
</a>
</g>
</g>
<!-- Node35&#45;&gt;Node5 -->
<g id="edge55_Node000035_Node000005" class="edge">
<title>Node35&#45;&gt;Node5</title>
<g id="a_edge55_Node000035_Node000005"><a xlink:title=" ">
<path fill="none" stroke="#63b8ff" d="M104.4,-167.59C113.58,-159.85 126.8,-148.69 137.73,-139.47"/>
<polygon fill="#63b8ff" stroke="#63b8ff" points="139.69,-142.4 145.07,-133.27 135.17,-137.05 139.69,-142.4"/>
</a>
</g>
</g>
<!-- Node35&#45;&gt;Node19 -->
<g id="edge56_Node000035_Node000019" class="edge">
<title>Node35&#45;&gt;Node19</title>
<g id="a_edge56_Node000035_Node000019"><a xlink:title=" ">
<path fill="none" stroke="#63b8ff" d="M93.25,-167.62C93.25,-150.01 93.25,-111.59 93.25,-87.65"/>
<polygon fill="#63b8ff" stroke="#63b8ff" points="96.75,-87.87 93.25,-77.87 89.75,-87.87 96.75,-87.87"/>
</a>
</g>
</g>
<!-- Node35&#45;&gt;Node24 -->
<g id="edge57_Node000035_Node000024" class="edge">
<title>Node35&#45;&gt;Node24</title>
<g id="a_edge57_Node000035_Node000024"><a xlink:title=" ">
<path fill="none" stroke="#63b8ff" d="M87.62,-167.62C76.81,-149.6 52.94,-109.81 38.66,-86.02"/>
<polygon fill="#63b8ff" stroke="#63b8ff" points="41.79,-84.43 33.64,-77.65 35.79,-88.03 41.79,-84.43"/>
</a>
</g>
</g>
<!-- Node36&#45;&gt;Node5 -->
<g id="edge62_Node000036_Node000005" class="edge">
<title>Node36&#45;&gt;Node5</title>
<g id="a_edge62_Node000036_Node000005"><a xlink:title=" ">
<path fill="none" stroke="#63b8ff" d="M214.88,-223.62C204.56,-205.6 181.77,-165.81 168.15,-142.02"/>
<polygon fill="#63b8ff" stroke="#63b8ff" points="171.37,-140.61 163.36,-133.67 165.29,-144.09 171.37,-140.61"/>
</a>
</g>
</g>
<!-- Node36&#45;&gt;Node16 -->
<g id="edge63_Node000036_Node000016" class="edge">
<title>Node36&#45;&gt;Node16</title>
<g id="a_edge63_Node000036_Node000016"><a xlink:title=" ">
<path fill="none" stroke="#63b8ff" d="M268.64,-230.12C428.94,-220.56 940.72,-190.06 1086.91,-181.34"/>
<polygon fill="#63b8ff" stroke="#63b8ff" points="1086.68,-184.86 1096.46,-180.78 1086.27,-177.88 1086.68,-184.86"/>
</a>
</g>
</g>
<!-- Node37&#45;&gt;Node10 -->
<g id="edge68_Node000037_Node000010" class="edge">
<title>Node37&#45;&gt;Node10</title>
<g id="a_edge68_Node000037_Node000010"><a xlink:title=" ">
<path fill="none" stroke="#63b8ff" d="M1236.57,-223.65C1231.74,-209.61 1225.39,-183.16 1239.25,-168 1269.67,-134.75 1598.66,-138.53 1643.25,-132 1644.09,-131.88 1644.94,-131.75 1645.79,-131.61"/>
<polygon fill="#63b8ff" stroke="#63b8ff" points="1646.29,-135.08 1655.54,-129.91 1645.09,-128.18 1646.29,-135.08"/>
</a>
</g>
</g>
<!-- Node37&#45;&gt;Node13 -->
<g id="edge65_Node000037_Node000013" class="edge">
<title>Node37&#45;&gt;Node13</title>
<g id="a_edge65_Node000037_Node000013"><a xlink:title=" ">
<path fill="none" stroke="#63b8ff" d="M1268.3,-224.44C1297.2,-215.63 1342.57,-201.78 1375.65,-191.69"/>
<polygon fill="#63b8ff" stroke="#63b8ff" points="1376.37,-195.13 1384.91,-188.87 1374.33,-188.44 1376.37,-195.13"/>
</a>
</g>
</g>
<!-- Node37&#45;&gt;Node14 -->
<g id="edge66_Node000037_Node000014" class="edge">
<title>Node37&#45;&gt;Node14</title>
<g id="a_edge66_Node000037_Node000014"><a xlink:title=" ">
<path fill="none" stroke="#63b8ff" d="M1268.48,-227.37C1313.26,-218.45 1401.27,-200.91 1458.12,-189.59"/>
<polygon fill="#63b8ff" stroke="#63b8ff" points="1458.79,-193.02 1467.92,-187.63 1457.42,-186.16 1458.79,-193.02"/>
</a>
</g>
</g>
<!-- Node37&#45;&gt;Node15 -->
<g id="edge67_Node000037_Node000015" class="edge">
<title>Node37&#45;&gt;Node15</title>
<g id="a_edge67_Node000037_Node000015"><a xlink:title=" ">
<path fill="none" stroke="#63b8ff" d="M1268.35,-228.44C1277.56,-226.98 1287.83,-225.39 1297.25,-224 1410.86,-207.29 1442.28,-205.81 1559.27,-188.26"/>
<polygon fill="#63b8ff" stroke="#63b8ff" points="1559.61,-191.75 1568.98,-186.79 1558.57,-184.82 1559.61,-191.75"/>
</a>
</g>
</g>
<!-- Node37&#45;&gt;Node16 -->
<g id="edge69_Node000037_Node000016" class="edge">
<title>Node37&#45;&gt;Node16</title>
<g id="a_edge69_Node000037_Node000016"><a xlink:title=" ">
<path fill="none" stroke="#63b8ff" d="M1220.39,-223.59C1202.76,-215.24 1176.74,-202.92 1156.52,-193.34"/>
<polygon fill="#63b8ff" stroke="#63b8ff" points="1158.17,-190.25 1147.63,-189.13 1155.17,-196.57 1158.17,-190.25"/>
</a>
</g>
</g>
<!-- Node37&#45;&gt;Node17 -->
<g id="edge70_Node000037_Node000017" class="edge">
<title>Node37&#45;&gt;Node17</title>
<g id="a_edge70_Node000037_Node000017"><a xlink:title=" ">
<path fill="none" stroke="#63b8ff" d="M1212.29,-233.18C1083.32,-233.75 545.22,-233.33 384.25,-188 364.85,-182.54 318.25,-155.63 289.16,-138.2"/>
<polygon fill="#63b8ff" stroke="#63b8ff" points="290.98,-135.21 280.61,-133.04 287.37,-141.2 290.98,-135.21"/>
</a>
</g>
</g>
<!-- Node37&#45;&gt;Node22 -->
<g id="edge73_Node000037_Node000022" class="edge">
<title>Node37&#45;&gt;Node22</title>
<g id="a_edge73_Node000037_Node000022"><a xlink:title=" ">
<path fill="none" stroke="#63b8ff" d="M1234.3,-223.72C1226.19,-209.78 1214.19,-183.45 1228.25,-168 1285.64,-104.94 1528.53,-156.32 1610.25,-132 1628.54,-126.56 1631.2,-120.57 1648.25,-112 1669.33,-101.41 1693.33,-89.93 1711.8,-81.22"/>
<polygon fill="#63b8ff" stroke="#63b8ff" points="1713.04,-84.5 1720.6,-77.08 1710.06,-78.17 1713.04,-84.5"/>
</a>
</g>
</g>
<!-- Node37&#45;&gt;Node32 -->
<g id="edge71_Node000037_Node000032" class="edge">
<title>Node37&#45;&gt;Node32</title>
<g id="a_edge71_Node000037_Node000032"><a xlink:title=" ">
<path fill="none" stroke="#63b8ff" d="M1245.13,-223.59C1248.74,-216.63 1253.79,-206.89 1258.25,-198.29"/>
<polygon fill="#63b8ff" stroke="#63b8ff" points="1261.24,-200.13 1262.73,-189.64 1255.02,-196.91 1261.24,-200.13"/>
</a>
</g>
</g>
<!-- Node37&#45;&gt;Node33 -->
<g id="edge72_Node000037_Node000033" class="edge">
<title>Node37&#45;&gt;Node33</title>
<g id="a_edge72_Node000037_Node000033"><a xlink:title=" ">
<path fill="none" stroke="#63b8ff" d="M1256.8,-223.59C1271.15,-215.44 1292.18,-203.48 1308.85,-194"/>
<polygon fill="#63b8ff" stroke="#63b8ff" points="1310.29,-197.21 1317.26,-189.23 1306.83,-191.13 1310.29,-197.21"/>
</a>
</g>
</g>
<!-- Node38&#45;&gt;Node5 -->
<g id="edge76_Node000038_Node000005" class="edge">
<title>Node38&#45;&gt;Node5</title>
<g id="a_edge76_Node000038_Node000005"><a xlink:title=" ">
<path fill="none" stroke="#63b8ff" d="M238.18,-167.59C223.37,-159.44 201.68,-147.48 184.48,-138"/>
<polygon fill="#63b8ff" stroke="#63b8ff" points="186.23,-134.97 175.78,-133.21 182.85,-141.1 186.23,-134.97"/>
</a>
</g>
</g>
<!-- Node38&#45;&gt;Node17 -->
<g id="edge77_Node000038_Node000017" class="edge">
<title>Node38&#45;&gt;Node17</title>
<g id="a_edge77_Node000038_Node000017"><a xlink:title=" ">
<path fill="none" stroke="#63b8ff" d="M256.82,-167.59C257.93,-160.93 259.46,-151.75 260.84,-143.44"/>
<polygon fill="#63b8ff" stroke="#63b8ff" points="264.26,-144.23 262.45,-133.79 257.36,-143.08 264.26,-144.23"/>
</a>
</g>
</g>
</g>
</svg>
