<?xml version="1.0" encoding="UTF-8" standalone="no"?>
<!DOCTYPE svg PUBLIC "-//W3C//DTD SVG 1.1//EN"
 "http://www.w3.org/Graphics/SVG/1.1/DTD/svg11.dtd">
<!-- Generated by graphviz version 14.1.5 (0)
 -->
<!-- Title: src/bot_library/BotLibrary.cpp Pages: 1 -->
<svg width="1516pt" height="476pt"
 viewBox="0.00 0.00 1516.00 476.00" xmlns="http://www.w3.org/2000/svg" xmlns:xlink="http://www.w3.org/1999/xlink">
<g id="graph0" class="graph" transform="scale(1 1) rotate(0) translate(4 472)">
<title>src/bot_library/BotLibrary.cpp</title>
<!-- Node1 -->
<g id="Node000001" class="node">
<title>Node1</title>
<g id="a_Node000001"><a xlink:title=" ">
<polygon fill="#999999" stroke="#666666" points="1344.42,-468 1201.67,-468 1201.67,-448 1344.42,-448 1344.42,-468"/>
<text xml:space="preserve" text-anchor="middle" x="1273.04" y="-454.5" font-family="Helvetica,sans-Serif" font-size="10.00">src/bot_library/BotLibrary.cpp</text>
</a>
</g>
</g>
<!-- Node2 -->
<g id="Node000002" class="node">
<title>Node2</title>
<g id="a_Node000002"><a xlink:href="BotLibrary_8hpp.html" target="_top" xlink:title=" ">
<polygon fill="white" stroke="#666666" points="1410.17,-356 1331.92,-356 1331.92,-336 1410.17,-336 1410.17,-356"/>
<text xml:space="preserve" text-anchor="middle" x="1371.04" y="-342.5" font-family="Helvetica,sans-Serif" font-size="10.00">BotLibrary.hpp</text>
</a>
</g>
</g>
<!-- Node1&#45;&gt;Node2 -->
<g id="edge1_Node000001_Node000002" class="edge">
<title>Node1&#45;&gt;Node2</title>
<g id="a_edge1_Node000001_Node000002"><a xlink:title=" ">
<path fill="none" stroke="#63b8ff" d="M1277.14,-447.88C1283.39,-434.62 1296.25,-409.65 1312.04,-392 1322.01,-380.86 1335.06,-370.58 1346.35,-362.66"/>
<polygon fill="#63b8ff" stroke="#63b8ff" points="1348.12,-365.69 1354.45,-357.2 1344.2,-359.89 1348.12,-365.69"/>
</a>
</g>
</g>
<!-- Node4 -->
<g id="Node000004" class="node">
<title>Node4</title>
<g id="a_Node000004"><a xlink:href="Bot_8hpp.html" target="_top" xlink:title=" ">
<polygon fill="white" stroke="#666666" points="658.92,-356 609.17,-356 609.17,-336 658.92,-336 658.92,-356"/>
<text xml:space="preserve" text-anchor="middle" x="634.04" y="-342.5" font-family="Helvetica,sans-Serif" font-size="10.00">Bot.hpp</text>
</a>
</g>
</g>
<!-- Node1&#45;&gt;Node4 -->
<g id="edge3_Node000001_Node000004" class="edge">
<title>Node1&#45;&gt;Node4</title>
<g id="a_edge3_Node000001_Node000004"><a xlink:title=" ">
<path fill="none" stroke="#63b8ff" d="M1218.01,-447.53C1090.35,-425.55 776.85,-371.58 670.22,-353.23"/>
<polygon fill="#63b8ff" stroke="#63b8ff" points="671.07,-349.82 660.62,-351.57 669.88,-356.72 671.07,-349.82"/>
</a>
</g>
</g>
<!-- Node8 -->
<g id="Node000008" class="node">
<title>Node8</title>
<g id="a_Node000008"><a xlink:href="Database_8hpp.html" target="_top" xlink:title=" ">
<polygon fill="white" stroke="#666666" points="1184.42,-244 1107.67,-244 1107.67,-224 1184.42,-224 1184.42,-244"/>
<text xml:space="preserve" text-anchor="middle" x="1146.04" y="-230.5" font-family="Helvetica,sans-Serif" font-size="10.00">Database.hpp</text>
</a>
</g>
</g>
<!-- Node1&#45;&gt;Node8 -->
<g id="edge58_Node000001_Node000008" class="edge">
<title>Node1&#45;&gt;Node8</title>
<g id="a_edge58_Node000001_Node000008"><a xlink:title=" ">
<path fill="none" stroke="#63b8ff" d="M1267.75,-447.74C1248.67,-414.39 1183.17,-299.9 1156.99,-254.13"/>
<polygon fill="#63b8ff" stroke="#63b8ff" points="1160.12,-252.55 1152.11,-245.61 1154.04,-256.03 1160.12,-252.55"/>
</a>
</g>
</g>
<!-- Node28 -->
<g id="Node000028" class="node">
<title>Node28</title>
<g id="a_Node000028"><a xlink:href="Commands_8hpp.html" target="_top" xlink:title=" ">
<polygon fill="white" stroke="#666666" points="828.54,-412 743.54,-412 743.54,-392 828.54,-392 828.54,-412"/>
<text xml:space="preserve" text-anchor="middle" x="786.04" y="-398.5" font-family="Helvetica,sans-Serif" font-size="10.00">Commands.hpp</text>
</a>
</g>
</g>
<!-- Node1&#45;&gt;Node28 -->
<g id="edge56_Node000001_Node000028" class="edge">
<title>Node1&#45;&gt;Node28</title>
<g id="a_edge56_Node000001_Node000028"><a xlink:title=" ">
<path fill="none" stroke="#63b8ff" d="M1201.19,-449.03C1102.81,-438.12 928.39,-418.78 840.25,-409.01"/>
<polygon fill="#63b8ff" stroke="#63b8ff" points="840.74,-405.54 830.42,-407.92 839.97,-412.5 840.74,-405.54"/>
</a>
</g>
</g>
<!-- Node29 -->
<g id="Node000029" class="node">
<title>Node29</title>
<g id="a_Node000029"><a xlink:href="RestApi_8hpp.html" target="_top" xlink:title=" ">
<polygon fill="white" stroke="#666666" points="1314.04,-356 1244.04,-356 1244.04,-336 1314.04,-336 1314.04,-356"/>
<text xml:space="preserve" text-anchor="middle" x="1279.04" y="-342.5" font-family="Helvetica,sans-Serif" font-size="10.00">RestApi.hpp</text>
</a>
</g>
</g>
<!-- Node1&#45;&gt;Node29 -->
<g id="edge59_Node000001_Node000029" class="edge">
<title>Node1&#45;&gt;Node29</title>
<g id="a_edge59_Node000001_Node000029"><a xlink:title=" ">
<path fill="none" stroke="#63b8ff" d="M1273.56,-447.62C1274.52,-430.01 1276.61,-391.59 1277.92,-367.65"/>
<polygon fill="#63b8ff" stroke="#63b8ff" points="1281.4,-368.04 1278.45,-357.87 1274.41,-367.66 1281.4,-368.04"/>
</a>
</g>
</g>
<!-- Node30 -->
<g id="Node000030" class="node">
<title>Node30</title>
<g id="a_Node000030"><a xlink:title=" ">
<polygon fill="#e0e0e0" stroke="#999999" points="1369.54,-412 1320.54,-412 1320.54,-392 1369.54,-392 1369.54,-412"/>
<text xml:space="preserve" text-anchor="middle" x="1345.04" y="-398.5" font-family="Helvetica,sans-Serif" font-size="10.00">fstream</text>
</a>
</g>
</g>
<!-- Node1&#45;&gt;Node30 -->
<g id="edge61_Node000001_Node000030" class="edge">
<title>Node1&#45;&gt;Node30</title>
<g id="a_edge61_Node000001_Node000030"><a xlink:title=" ">
<path fill="none" stroke="#63b8ff" d="M1285.59,-447.59C1296.01,-439.77 1311.09,-428.46 1323.46,-419.19"/>
<polygon fill="#63b8ff" stroke="#63b8ff" points="1325.54,-422.01 1331.44,-413.21 1321.34,-416.41 1325.54,-422.01"/>
</a>
</g>
</g>
<!-- Node31 -->
<g id="Node000031" class="node">
<title>Node31</title>
<g id="a_Node000031"><a xlink:title=" ">
<polygon fill="#e0e0e0" stroke="#999999" points="1446.42,-412 1387.67,-412 1387.67,-392 1446.42,-392 1446.42,-412"/>
<text xml:space="preserve" text-anchor="middle" x="1417.04" y="-398.5" font-family="Helvetica,sans-Serif" font-size="10.00">stdexcept</text>
</a>
</g>
</g>
<!-- Node1&#45;&gt;Node31 -->
<g id="edge62_Node000001_Node000031" class="edge">
<title>Node1&#45;&gt;Node31</title>
<g id="a_edge62_Node000001_Node000031"><a xlink:title=" ">
<path fill="none" stroke="#63b8ff" d="M1298.13,-447.59C1321.11,-438.97 1355.4,-426.12 1381.26,-416.42"/>
<polygon fill="#63b8ff" stroke="#63b8ff" points="1382.21,-419.8 1390.35,-413.01 1379.76,-413.25 1382.21,-419.8"/>
</a>
</g>
</g>
<!-- Node32 -->
<g id="Node000032" class="node">
<title>Node32</title>
<g id="a_Node000032"><a xlink:title=" ">
<polygon fill="#e0e0e0" stroke="#999999" points="1507.54,-412 1464.54,-412 1464.54,-392 1507.54,-392 1507.54,-412"/>
<text xml:space="preserve" text-anchor="middle" x="1486.04" y="-398.5" font-family="Helvetica,sans-Serif" font-size="10.00">thread</text>
</a>
</g>
</g>
<!-- Node1&#45;&gt;Node32 -->
<g id="edge63_Node000001_Node000032" class="edge">
<title>Node1&#45;&gt;Node32</title>
<g id="a_edge63_Node000001_Node000032"><a xlink:title=" ">
<path fill="none" stroke="#63b8ff" d="M1313.29,-447.54C1347.86,-439.3 1399.31,-426.79 1452.95,-412.48"/>
<polygon fill="#63b8ff" stroke="#63b8ff" points="1453.85,-415.87 1462.6,-409.89 1452.03,-409.1 1453.85,-415.87"/>
</a>
</g>
</g>
<!-- Node3 -->
<g id="Node000003" class="node">
<title>Node3</title>
<g id="a_Node000003"><a xlink:title=" ">
<polygon fill="#e0e0e0" stroke="#999999" points="1243.04,-132 1203.04,-132 1203.04,-112 1243.04,-112 1243.04,-132"/>
<text xml:space="preserve" text-anchor="middle" x="1223.04" y="-118.5" font-family="Helvetica,sans-Serif" font-size="10.00">string</text>
</a>
</g>
</g>
<!-- Node2&#45;&gt;Node3 -->
<g id="edge2_Node000002_Node000003" class="edge">
<title>Node2&#45;&gt;Node3</title>
<g id="a_edge2_Node000002_Node000003"><a xlink:title=" ">
<path fill="none" stroke="#63b8ff" d="M1368.46,-335.6C1360.37,-307.53 1333.31,-222.87 1287.04,-168 1277.06,-156.16 1263.27,-145.93 1251.04,-138.24"/>
<polygon fill="#63b8ff" stroke="#63b8ff" points="1252.94,-135.29 1242.56,-133.16 1249.34,-141.3 1252.94,-135.29"/>
</a>
</g>
</g>
<!-- Node4&#45;&gt;Node3 -->
<g id="edge54_Node000004_Node000003" class="edge">
<title>Node4&#45;&gt;Node3</title>
<g id="a_edge54_Node000004_Node000003"><a xlink:title=" ">
<path fill="none" stroke="#63b8ff" d="M659.34,-343.78C759.39,-338.5 1126.19,-314.57 1214.04,-244 1241.56,-221.9 1242.35,-202.89 1237.04,-168 1235.79,-159.72 1233.3,-150.86 1230.76,-143.22"/>
<polygon fill="#63b8ff" stroke="#63b8ff" points="1234.08,-142.12 1227.42,-133.88 1227.49,-144.48 1234.08,-142.12"/>
</a>
</g>
</g>
<!-- Node5 -->
<g id="Node000005" class="node">
<title>Node5</title>
<g id="a_Node000005"><a xlink:href="Core_8hpp.html" target="_top" xlink:title=" ">
<polygon fill="white" stroke="#666666" points="717.92,-300 662.17,-300 662.17,-280 717.92,-280 717.92,-300"/>
<text xml:space="preserve" text-anchor="middle" x="690.04" y="-286.5" font-family="Helvetica,sans-Serif" font-size="10.00">Core.hpp</text>
</a>
</g>
</g>
<!-- Node4&#45;&gt;Node5 -->
<g id="edge4_Node000004_Node000005" class="edge">
<title>Node4&#45;&gt;Node5</title>
<g id="a_edge4_Node000004_Node000005"><a xlink:title=" ">
<path fill="none" stroke="#63b8ff" d="M643.8,-335.59C651.67,-328.01 662.94,-317.13 672.39,-308.02"/>
<polygon fill="#63b8ff" stroke="#63b8ff" points="674.54,-310.81 679.31,-301.35 669.68,-305.77 674.54,-310.81"/>
</a>
</g>
</g>
<!-- Node10 -->
<g id="Node000010" class="node">
<title>Node10</title>
<g id="a_Node000010"><a xlink:title=" ">
<polygon fill="#e0e0e0" stroke="#999999" points="698.54,-132 655.54,-132 655.54,-112 698.54,-112 698.54,-132"/>
<text xml:space="preserve" text-anchor="middle" x="677.04" y="-118.5" font-family="Helvetica,sans-Serif" font-size="10.00">vector</text>
</a>
</g>
</g>
<!-- Node4&#45;&gt;Node10 -->
<g id="edge55_Node000004_Node000010" class="edge">
<title>Node4&#45;&gt;Node10</title>
<g id="a_edge55_Node000004_Node000010"><a xlink:title=" ">
<path fill="none" stroke="#63b8ff" d="M608.67,-344.41C482.05,-341.02 -72.29,-320.6 8.04,-224 90.18,-125.24 520.3,-121.51 643.84,-122.52"/>
<polygon fill="#63b8ff" stroke="#63b8ff" points="643.58,-126.02 653.62,-122.62 643.65,-119.02 643.58,-126.02"/>
</a>
</g>
</g>
<!-- Node17 -->
<g id="Node000017" class="node">
<title>Node17</title>
<g id="a_Node000017"><a xlink:href="IButtonCommand_8hpp.html" target="_top" xlink:title=" ">
<polygon fill="white" stroke="#666666" points="211.67,-244 100.42,-244 100.42,-224 211.67,-224 211.67,-244"/>
<text xml:space="preserve" text-anchor="middle" x="156.04" y="-230.5" font-family="Helvetica,sans-Serif" font-size="10.00">IButtonCommand.hpp</text>
</a>
</g>
</g>
<!-- Node4&#45;&gt;Node17 -->
<g id="edge44_Node000004_Node000017" class="edge">
<title>Node4&#45;&gt;Node17</title>
<g id="a_edge44_Node000004_Node000017"><a xlink:title=" ">
<path fill="none" stroke="#63b8ff" d="M608.86,-339.91C569.1,-331.82 489.36,-315.36 422.04,-300 345.62,-282.56 257.28,-260.61 204.09,-247.21"/>
<polygon fill="#63b8ff" stroke="#63b8ff" points="204.99,-243.82 194.44,-244.77 203.27,-250.61 204.99,-243.82"/>
</a>
</g>
</g>
<!-- Node20 -->
<g id="Node000020" class="node">
<title>Node20</title>
<g id="a_Node000020"><a xlink:href="IFormCommand_8hpp.html" target="_top" xlink:title=" ">
<polygon fill="white" stroke="#666666" points="334.67,-244 229.42,-244 229.42,-224 334.67,-224 334.67,-244"/>
<text xml:space="preserve" text-anchor="middle" x="282.04" y="-230.5" font-family="Helvetica,sans-Serif" font-size="10.00">IFormCommand.hpp</text>
</a>
</g>
</g>
<!-- Node4&#45;&gt;Node20 -->
<g id="edge45_Node000004_Node000020" class="edge">
<title>Node4&#45;&gt;Node20</title>
<g id="a_edge45_Node000004_Node000020"><a xlink:title=" ">
<path fill="none" stroke="#63b8ff" d="M608.73,-337.09C548.53,-318.28 396.38,-270.73 322.95,-247.78"/>
<polygon fill="#63b8ff" stroke="#63b8ff" points="324.32,-244.54 313.73,-244.9 322.23,-251.22 324.32,-244.54"/>
</a>
</g>
</g>
<!-- Node21 -->
<g id="Node000021" class="node">
<title>Node21</title>
<g id="a_Node000021"><a xlink:href="IGlobalSlashCommand_8hpp.html" target="_top" xlink:title=" ">
<polygon fill="white" stroke="#666666" points="1089.67,-244 954.42,-244 954.42,-224 1089.67,-224 1089.67,-244"/>
<text xml:space="preserve" text-anchor="middle" x="1022.04" y="-230.5" font-family="Helvetica,sans-Serif" font-size="10.00">IGlobalSlashCommand.hpp</text>
</a>
</g>
</g>
<!-- Node4&#45;&gt;Node21 -->
<g id="edge46_Node000004_Node000021" class="edge">
<title>Node4&#45;&gt;Node21</title>
<g id="a_edge46_Node000004_Node000021"><a xlink:title=" ">
<path fill="none" stroke="#63b8ff" d="M659.2,-338.15C691.24,-329.41 748.31,-313.77 797.04,-300 860.35,-282.12 933.51,-260.88 978.78,-247.66"/>
<polygon fill="#63b8ff" stroke="#63b8ff" points="979.59,-251.07 988.21,-244.91 977.63,-244.35 979.59,-251.07"/>
</a>
</g>
</g>
<!-- Node23 -->
<g id="Node000023" class="node">
<title>Node23</title>
<g id="a_Node000023"><a xlink:href="IMemberCommand_8hpp.html" target="_top" xlink:title=" ">
<polygon fill="white" stroke="#666666" points="471.04,-244 353.04,-244 353.04,-224 471.04,-224 471.04,-244"/>
<text xml:space="preserve" text-anchor="middle" x="412.04" y="-230.5" font-family="Helvetica,sans-Serif" font-size="10.00">IMemberCommand.hpp</text>
</a>
</g>
</g>
<!-- Node4&#45;&gt;Node23 -->
<g id="edge47_Node000004_Node000023" class="edge">
<title>Node4&#45;&gt;Node23</title>
<g id="a_edge47_Node000004_Node000023"><a xlink:title=" ">
<path fill="none" stroke="#63b8ff" d="M615.12,-335.62C576.29,-316.38 487.4,-272.34 441.17,-249.43"/>
<polygon fill="#63b8ff" stroke="#63b8ff" points="442.8,-246.33 432.28,-245.03 439.69,-252.6 442.8,-246.33"/>
</a>
</g>
</g>
<!-- Node24 -->
<g id="Node000024" class="node">
<title>Node24</title>
<g id="a_Node000024"><a xlink:href="IMessageCommand_8hpp.html" target="_top" xlink:title=" ">
<polygon fill="white" stroke="#666666" points="611.29,-244 488.79,-244 488.79,-224 611.29,-224 611.29,-244"/>
<text xml:space="preserve" text-anchor="middle" x="550.04" y="-230.5" font-family="Helvetica,sans-Serif" font-size="10.00">IMessageCommand.hpp</text>
</a>
</g>
</g>
<!-- Node4&#45;&gt;Node24 -->
<g id="edge48_Node000004_Node000024" class="edge">
<title>Node4&#45;&gt;Node24</title>
<g id="a_edge48_Node000004_Node000024"><a xlink:title=" ">
<path fill="none" stroke="#63b8ff" d="M626.88,-335.62C613,-317.44 582.19,-277.09 564.08,-253.38"/>
<polygon fill="#63b8ff" stroke="#63b8ff" points="566.96,-251.38 558.11,-245.56 561.39,-255.63 566.96,-251.38"/>
</a>
</g>
</g>
<!-- Node25 -->
<g id="Node000025" class="node">
<title>Node25</title>
<g id="a_Node000025"><a xlink:href="IReactionCommand_8hpp.html" target="_top" xlink:title=" ">
<polygon fill="white" stroke="#666666" points="750.92,-244 629.17,-244 629.17,-224 750.92,-224 750.92,-244"/>
<text xml:space="preserve" text-anchor="middle" x="690.04" y="-230.5" font-family="Helvetica,sans-Serif" font-size="10.00">IReactionCommand.hpp</text>
</a>
</g>
</g>
<!-- Node4&#45;&gt;Node25 -->
<g id="edge49_Node000004_Node000025" class="edge">
<title>Node4&#45;&gt;Node25</title>
<g id="a_edge49_Node000004_Node000025"><a xlink:title=" ">
<path fill="none" stroke="#63b8ff" d="M635.54,-335.73C637.9,-322.7 643.27,-298.5 653.04,-280 658.28,-270.1 665.9,-260.35 672.87,-252.47"/>
<polygon fill="#63b8ff" stroke="#63b8ff" points="675.3,-255 679.54,-245.29 670.17,-250.23 675.3,-255"/>
</a>
</g>
</g>
<!-- Node26 -->
<g id="Node000026" class="node">
<title>Node26</title>
<g id="a_Node000026"><a xlink:href="IReady_8hpp.html" target="_top" xlink:title=" ">
<polygon fill="white" stroke="#666666" points="82.79,-244 17.29,-244 17.29,-224 82.79,-224 82.79,-244"/>
<text xml:space="preserve" text-anchor="middle" x="50.04" y="-230.5" font-family="Helvetica,sans-Serif" font-size="10.00">IReady.hpp</text>
</a>
</g>
</g>
<!-- Node4&#45;&gt;Node26 -->
<g id="edge50_Node000004_Node000026" class="edge">
<title>Node4&#45;&gt;Node26</title>
<g id="a_edge50_Node000004_Node000026"><a xlink:title=" ">
<path fill="none" stroke="#63b8ff" d="M608.91,-341.82C557.61,-335.18 437.23,-318.91 337.04,-300 250.39,-283.64 150.12,-259.79 93.98,-245.99"/>
<polygon fill="#63b8ff" stroke="#63b8ff" points="95.04,-242.65 84.5,-243.65 93.37,-249.45 95.04,-242.65"/>
</a>
</g>
</g>
<!-- Node27 -->
<g id="Node000027" class="node">
<title>Node27</title>
<g id="a_Node000027"><a xlink:title=" ">
<polygon fill="#e0e0e0" stroke="#999999" points="787.67,-300 736.42,-300 736.42,-280 787.67,-280 787.67,-300"/>
<text xml:space="preserve" text-anchor="middle" x="762.04" y="-286.5" font-family="Helvetica,sans-Serif" font-size="10.00">memory</text>
</a>
</g>
</g>
<!-- Node4&#45;&gt;Node27 -->
<g id="edge53_Node000004_Node000027" class="edge">
<title>Node4&#45;&gt;Node27</title>
<g id="a_edge53_Node000004_Node000027"><a xlink:title=" ">
<path fill="none" stroke="#63b8ff" d="M656.34,-335.59C676.41,-327.13 706.16,-314.58 729,-304.94"/>
<polygon fill="#63b8ff" stroke="#63b8ff" points="730.33,-308.18 738.18,-301.07 727.61,-301.73 730.33,-308.18"/>
</a>
</g>
</g>
<!-- Node5&#45;&gt;Node3 -->
<g id="edge43_Node000005_Node000003" class="edge">
<title>Node5&#45;&gt;Node3</title>
<g id="a_edge43_Node000005_Node000003"><a xlink:title=" ">
<path fill="none" stroke="#63b8ff" d="M718.23,-281.65C721.19,-281.02 724.17,-280.46 727.04,-280 778.33,-271.84 1153.41,-277.55 1193.04,-244 1222.14,-219.37 1225.4,-171.37 1224.6,-143.8"/>
<polygon fill="#63b8ff" stroke="#63b8ff" points="1228.1,-143.73 1224.09,-133.93 1221.11,-144.1 1228.1,-143.73"/>
</a>
</g>
</g>
<!-- Node6 -->
<g id="Node000006" class="node">
<title>Node6</title>
<g id="a_Node000006"><a xlink:title=" ">
<polygon fill="#e0e0e0" stroke="#999999" points="827.42,-244 768.67,-244 768.67,-224 827.42,-224 827.42,-244"/>
<text xml:space="preserve" text-anchor="middle" x="798.04" y="-230.5" font-family="Helvetica,sans-Serif" font-size="10.00">dpp/dpp.h</text>
</a>
</g>
</g>
<!-- Node5&#45;&gt;Node6 -->
<g id="edge5_Node000005_Node000006" class="edge">
<title>Node5&#45;&gt;Node6</title>
<g id="a_edge5_Node000005_Node000006"><a xlink:title=" ">
<path fill="none" stroke="#63b8ff" d="M708.86,-279.59C725.4,-271.32 749.76,-259.14 768.84,-249.6"/>
<polygon fill="#63b8ff" stroke="#63b8ff" points="770.35,-252.76 777.73,-245.16 767.22,-246.5 770.35,-252.76"/>
</a>
</g>
</g>
<!-- Node7 -->
<g id="Node000007" class="node">
<title>Node7</title>
<g id="a_Node000007"><a xlink:title=" ">
<polygon fill="#e0e0e0" stroke="#999999" points="936.54,-244 845.54,-244 845.54,-224 936.54,-224 936.54,-244"/>
<text xml:space="preserve" text-anchor="middle" x="891.04" y="-230.5" font-family="Helvetica,sans-Serif" font-size="10.00">dpp/misc&#45;enum.h</text>
</a>
</g>
</g>
<!-- Node5&#45;&gt;Node7 -->
<g id="edge6_Node000005_Node000007" class="edge">
<title>Node5&#45;&gt;Node7</title>
<g id="a_edge6_Node000005_Node000007"><a xlink:title=" ">
<path fill="none" stroke="#63b8ff" d="M718.42,-281.38C751.21,-272.57 805.67,-257.94 844.66,-247.46"/>
<polygon fill="#63b8ff" stroke="#63b8ff" points="845.5,-250.86 854.25,-244.89 843.69,-244.1 845.5,-250.86"/>
</a>
</g>
</g>
<!-- Node5&#45;&gt;Node8 -->
<g id="edge7_Node000005_Node000008" class="edge">
<title>Node5&#45;&gt;Node8</title>
<g id="a_edge7_Node000005_Node000008"><a xlink:title=" ">
<path fill="none" stroke="#63b8ff" d="M718.24,-281.7C721.2,-281.07 724.18,-280.49 727.04,-280 887.31,-252.9 932.69,-267.01 1096.41,-244.25"/>
<polygon fill="#63b8ff" stroke="#63b8ff" points="1096.46,-247.78 1105.87,-242.91 1095.47,-240.85 1096.46,-247.78"/>
</a>
</g>
</g>
<!-- Node5&#45;&gt;Node17 -->
<g id="edge23_Node000005_Node000017" class="edge">
<title>Node5&#45;&gt;Node17</title>
<g id="a_edge23_Node000005_Node000017"><a xlink:title=" ">
<path fill="none" stroke="#63b8ff" d="M661.92,-286.74C590.47,-280.92 395.93,-264.49 223.22,-244.33"/>
<polygon fill="#63b8ff" stroke="#63b8ff" points="223.72,-240.87 213.38,-243.18 222.9,-247.82 223.72,-240.87"/>
</a>
</g>
</g>
<!-- Node5&#45;&gt;Node20 -->
<g id="edge26_Node000005_Node000020" class="edge">
<title>Node5&#45;&gt;Node20</title>
<g id="a_edge26_Node000005_Node000020"><a xlink:title=" ">
<path fill="none" stroke="#63b8ff" d="M661.77,-285.47C604.44,-278.27 470.14,-261.26 346.32,-244.3"/>
<polygon fill="#63b8ff" stroke="#63b8ff" points="347.02,-240.86 336.64,-242.97 346.07,-247.79 347.02,-240.86"/>
</a>
</g>
</g>
<!-- Node5&#45;&gt;Node21 -->
<g id="edge29_Node000005_Node000021" class="edge">
<title>Node5&#45;&gt;Node21</title>
<g id="a_edge29_Node000005_Node000021"><a xlink:title=" ">
<path fill="none" stroke="#63b8ff" d="M718.27,-281.87C721.23,-281.2 724.19,-280.56 727.04,-280 799.74,-265.64 883.29,-253.28 942.88,-245.17"/>
<polygon fill="#63b8ff" stroke="#63b8ff" points="943.15,-248.66 952.59,-243.85 942.21,-241.73 943.15,-248.66"/>
</a>
</g>
</g>
<!-- Node5&#45;&gt;Node23 -->
<g id="edge34_Node000005_Node000023" class="edge">
<title>Node5&#45;&gt;Node23</title>
<g id="a_edge34_Node000005_Node000023"><a xlink:title=" ">
<path fill="none" stroke="#63b8ff" d="M661.86,-283.53C617.51,-274.91 530.45,-258 471.74,-246.6"/>
<polygon fill="#63b8ff" stroke="#63b8ff" points="472.73,-243.22 462.25,-244.75 471.4,-250.09 472.73,-243.22"/>
</a>
</g>
</g>
<!-- Node5&#45;&gt;Node24 -->
<g id="edge37_Node000005_Node000024" class="edge">
<title>Node5&#45;&gt;Node24</title>
<g id="a_edge37_Node000005_Node000024"><a xlink:title=" ">
<path fill="none" stroke="#63b8ff" d="M665.66,-279.59C643.41,-271.01 610.28,-258.23 585.18,-248.55"/>
<polygon fill="#63b8ff" stroke="#63b8ff" points="586.62,-245.36 576.03,-245.02 584.1,-251.89 586.62,-245.36"/>
</a>
</g>
</g>
<!-- Node5&#45;&gt;Node25 -->
<g id="edge40_Node000005_Node000025" class="edge">
<title>Node5&#45;&gt;Node25</title>
<g id="a_edge40_Node000005_Node000025"><a xlink:title=" ">
<path fill="none" stroke="#63b8ff" d="M690.04,-279.59C690.04,-273.01 690.04,-263.96 690.04,-255.73"/>
<polygon fill="#63b8ff" stroke="#63b8ff" points="693.55,-255.81 690.05,-245.81 686.55,-255.81 693.55,-255.81"/>
</a>
</g>
</g>
<!-- Node8&#45;&gt;Node3 -->
<g id="edge8_Node000008_Node000003" class="edge">
<title>Node8&#45;&gt;Node3</title>
<g id="a_edge8_Node000008_Node000003"><a xlink:title=" ">
<path fill="none" stroke="#63b8ff" d="M1152.61,-223.62C1165.28,-205.52 1193.33,-165.45 1209.95,-141.7"/>
<polygon fill="#63b8ff" stroke="#63b8ff" points="1212.76,-143.79 1215.63,-133.59 1207.03,-139.78 1212.76,-143.79"/>
</a>
</g>
</g>
<!-- Node9 -->
<g id="Node000009" class="node">
<title>Node9</title>
<g id="a_Node000009"><a xlink:title=" ">
<polygon fill="#e0e0e0" stroke="#999999" points="1137.67,-132 1098.42,-132 1098.42,-112 1137.67,-112 1137.67,-132"/>
<text xml:space="preserve" text-anchor="middle" x="1118.04" y="-118.5" font-family="Helvetica,sans-Serif" font-size="10.00">utility</text>
</a>
</g>
</g>
<!-- Node8&#45;&gt;Node9 -->
<g id="edge9_Node000008_Node000009" class="edge">
<title>Node8&#45;&gt;Node9</title>
<g id="a_edge9_Node000008_Node000009"><a xlink:title=" ">
<path fill="none" stroke="#63b8ff" d="M1141.22,-223.6C1136.84,-214.68 1130.56,-200.76 1127.04,-188 1123.05,-173.5 1120.79,-156.67 1119.53,-143.77"/>
<polygon fill="#63b8ff" stroke="#63b8ff" points="1123.02,-143.59 1118.7,-133.92 1116.05,-144.18 1123.02,-143.59"/>
</a>
</g>
</g>
<!-- Node8&#45;&gt;Node10 -->
<g id="edge10_Node000008_Node000010" class="edge">
<title>Node8&#45;&gt;Node10</title>
<g id="a_edge10_Node000008_Node000010"><a xlink:title=" ">
<path fill="none" stroke="#63b8ff" d="M1107.32,-225.54C1104.52,-225.01 1101.74,-224.5 1099.04,-224 1008.5,-207.34 981.22,-220.41 895.04,-188 878.99,-181.96 877.93,-174.47 862.04,-168 799.74,-142.64 777.56,-149.39 709.77,-132.54"/>
<polygon fill="#63b8ff" stroke="#63b8ff" points="710.98,-129.23 700.42,-130.13 709.23,-136.01 710.98,-129.23"/>
</a>
</g>
</g>
<!-- Node11 -->
<g id="Node000011" class="node">
<title>Node11</title>
<g id="a_Node000011"><a xlink:href="DatabaseBackend_8hpp.html" target="_top" xlink:title=" ">
<polygon fill="white" stroke="#666666" points="1055.54,-76 940.54,-76 940.54,-56 1055.54,-56 1055.54,-76"/>
<text xml:space="preserve" text-anchor="middle" x="998.04" y="-62.5" font-family="Helvetica,sans-Serif" font-size="10.00">DatabaseBackend.hpp</text>
</a>
</g>
</g>
<!-- Node8&#45;&gt;Node11 -->
<g id="edge11_Node000008_Node000011" class="edge">
<title>Node8&#45;&gt;Node11</title>
<g id="a_edge11_Node000008_Node000011"><a xlink:title=" ">
<path fill="none" stroke="#63b8ff" d="M1149.54,-223.67C1157.1,-201.71 1172.34,-146.07 1147.04,-112 1128.55,-87.09 1096.66,-75.47 1067.13,-70.23"/>
<polygon fill="#63b8ff" stroke="#63b8ff" points="1067.86,-66.81 1057.45,-68.75 1066.8,-73.73 1067.86,-66.81"/>
</a>
</g>
</g>
<!-- Node13 -->
<g id="Node000013" class="node">
<title>Node13</title>
<g id="a_Node000013"><a xlink:href="DatabaseExecutor_8hpp.html" target="_top" xlink:title=" ">
<polygon fill="white" stroke="#666666" points="1062.92,-188 947.17,-188 947.17,-168 1062.92,-168 1062.92,-188"/>
<text xml:space="preserve" text-anchor="middle" x="1005.04" y="-174.5" font-family="Helvetica,sans-Serif" font-size="10.00">DatabaseExecutor.hpp</text>
</a>
</g>
</g>
<!-- Node8&#45;&gt;Node13 -->
<g id="edge13_Node000008_Node000013" class="edge">
<title>Node8&#45;&gt;Node13</title>
<g id="a_edge13_Node000008_Node000013"><a xlink:title=" ">
<path fill="none" stroke="#63b8ff" d="M1121.48,-223.59C1099.08,-215.01 1065.71,-202.23 1040.43,-192.55"/>
<polygon fill="#63b8ff" stroke="#63b8ff" points="1041.8,-189.33 1031.21,-189.02 1039.3,-195.87 1041.8,-189.33"/>
</a>
</g>
</g>
<!-- Node16 -->
<g id="Node000016" class="node">
<title>Node16</title>
<g id="a_Node000016"><a xlink:href="RowDTOAdapter_8hpp.html" target="_top" xlink:title=" ">
<polygon fill="white" stroke="#666666" points="825.92,-132 716.17,-132 716.17,-112 825.92,-112 825.92,-132"/>
<text xml:space="preserve" text-anchor="middle" x="771.04" y="-118.5" font-family="Helvetica,sans-Serif" font-size="10.00">RowDTOAdapter.hpp</text>
</a>
</g>
</g>
<!-- Node8&#45;&gt;Node16 -->
<g id="edge22_Node000008_Node000016" class="edge">
<title>Node8&#45;&gt;Node16</title>
<g id="a_edge22_Node000008_Node000016"><a xlink:title=" ">
<path fill="none" stroke="#63b8ff" d="M1107.49,-225.14C1051.85,-213.73 953.94,-193.34 938.04,-188 918.07,-181.29 914.53,-176.05 895.04,-168 866.96,-156.4 834.68,-144.74 810.1,-136.19"/>
<polygon fill="#63b8ff" stroke="#63b8ff" points="811.41,-132.94 800.82,-132.99 809.13,-139.56 811.41,-132.94"/>
</a>
</g>
</g>
<!-- Node12 -->
<g id="Node000012" class="node">
<title>Node12</title>
<g id="a_Node000012"><a xlink:title=" ">
<polygon fill="#e0e0e0" stroke="#999999" points="1028.54,-20 967.54,-20 967.54,0 1028.54,0 1028.54,-20"/>
<text xml:space="preserve" text-anchor="middle" x="998.04" y="-6.5" font-family="Helvetica,sans-Serif" font-size="10.00">pqxx/pqxx</text>
</a>
</g>
</g>
<!-- Node11&#45;&gt;Node12 -->
<g id="edge12_Node000011_Node000012" class="edge">
<title>Node11&#45;&gt;Node12</title>
<g id="a_edge12_Node000011_Node000012"><a xlink:title=" ">
<path fill="none" stroke="#63b8ff" d="M998.04,-55.59C998.04,-49.01 998.04,-39.96 998.04,-31.73"/>
<polygon fill="#63b8ff" stroke="#63b8ff" points="1001.55,-31.81 998.05,-21.81 994.55,-31.81 1001.55,-31.81"/>
</a>
</g>
</g>
<!-- Node13&#45;&gt;Node3 -->
<g id="edge15_Node000013_Node000003" class="edge">
<title>Node13&#45;&gt;Node3</title>
<g id="a_edge15_Node000013_Node000003"><a xlink:title=" ">
<path fill="none" stroke="#63b8ff" d="M1043.27,-167.53C1085.41,-157.09 1152.42,-140.49 1191.63,-130.78"/>
<polygon fill="#63b8ff" stroke="#63b8ff" points="1192.28,-134.23 1201.14,-128.43 1190.59,-127.43 1192.28,-134.23"/>
</a>
</g>
</g>
<!-- Node13&#45;&gt;Node9 -->
<g id="edge16_Node000013_Node000009" class="edge">
<title>Node13&#45;&gt;Node9</title>
<g id="a_edge16_Node000013_Node000009"><a xlink:title=" ">
<path fill="none" stroke="#63b8ff" d="M1024.73,-167.59C1042.2,-159.24 1068,-146.92 1088.04,-137.34"/>
<polygon fill="#63b8ff" stroke="#63b8ff" points="1089.33,-140.6 1096.84,-133.13 1086.31,-134.29 1089.33,-140.6"/>
</a>
</g>
</g>
<!-- Node13&#45;&gt;Node10 -->
<g id="edge17_Node000013_Node000010" class="edge">
<title>Node13&#45;&gt;Node10</title>
<g id="a_edge17_Node000013_Node000010"><a xlink:title=" ">
<path fill="none" stroke="#63b8ff" d="M946.91,-170.69C888.99,-163.86 797.39,-151.56 710.08,-132.44"/>
<polygon fill="#63b8ff" stroke="#63b8ff" points="710.9,-129.04 700.38,-130.28 709.38,-135.87 710.9,-129.04"/>
</a>
</g>
</g>
<!-- Node14 -->
<g id="Node000014" class="node">
<title>Node14</title>
<g id="a_Node000014"><a xlink:title=" ">
<polygon fill="#e0e0e0" stroke="#999999" points="897.79,-132 844.29,-132 844.29,-112 897.79,-112 897.79,-132"/>
<text xml:space="preserve" text-anchor="middle" x="871.04" y="-118.5" font-family="Helvetica,sans-Serif" font-size="10.00">iostream</text>
</a>
</g>
</g>
<!-- Node13&#45;&gt;Node14 -->
<g id="edge14_Node000013_Node000014" class="edge">
<title>Node13&#45;&gt;Node14</title>
<g id="a_edge14_Node000013_Node000014"><a xlink:title=" ">
<path fill="none" stroke="#63b8ff" d="M981.7,-167.59C960.51,-159.05 928.98,-146.35 904.99,-136.68"/>
<polygon fill="#63b8ff" stroke="#63b8ff" points="906.56,-133.54 895.97,-133.05 903.94,-140.03 906.56,-133.54"/>
</a>
</g>
</g>
<!-- Node15 -->
<g id="Node000015" class="node">
<title>Node15</title>
<g id="a_Node000015"><a xlink:href="IDatabaseConnectionProvider_8hpp.html" target="_top" xlink:title=" ">
<polygon fill="white" stroke="#666666" points="1080.67,-132 915.42,-132 915.42,-112 1080.67,-112 1080.67,-132"/>
<text xml:space="preserve" text-anchor="middle" x="998.04" y="-118.5" font-family="Helvetica,sans-Serif" font-size="10.00">IDatabaseConnectionProvider.hpp</text>
</a>
</g>
</g>
<!-- Node13&#45;&gt;Node15 -->
<g id="edge18_Node000013_Node000015" class="edge">
<title>Node13&#45;&gt;Node15</title>
<g id="a_edge18_Node000013_Node000015"><a xlink:title=" ">
<path fill="none" stroke="#63b8ff" d="M1003.83,-167.59C1002.96,-160.93 1001.77,-151.75 1000.69,-143.44"/>
<polygon fill="#63b8ff" stroke="#63b8ff" points="1004.2,-143.27 999.44,-133.8 997.26,-144.17 1004.2,-143.27"/>
</a>
</g>
</g>
<!-- Node13&#45;&gt;Node16 -->
<g id="edge20_Node000013_Node000016" class="edge">
<title>Node13&#45;&gt;Node16</title>
<g id="a_edge20_Node000013_Node000016"><a xlink:title=" ">
<path fill="none" stroke="#63b8ff" d="M964.02,-167.53C924.79,-158.48 865.5,-144.8 822.99,-134.99"/>
<polygon fill="#63b8ff" stroke="#63b8ff" points="824.03,-131.64 813.5,-132.8 822.46,-138.46 824.03,-131.64"/>
</a>
</g>
</g>
<!-- Node15&#45;&gt;Node11 -->
<g id="edge19_Node000015_Node000011" class="edge">
<title>Node15&#45;&gt;Node11</title>
<g id="a_edge19_Node000015_Node000011"><a xlink:title=" ">
<path fill="none" stroke="#63b8ff" d="M998.04,-111.59C998.04,-105.01 998.04,-95.96 998.04,-87.73"/>
<polygon fill="#63b8ff" stroke="#63b8ff" points="1001.55,-87.81 998.05,-77.81 994.55,-87.81 1001.55,-87.81"/>
</a>
</g>
</g>
<!-- Node16&#45;&gt;Node11 -->
<g id="edge21_Node000016_Node000011" class="edge">
<title>Node16&#45;&gt;Node11</title>
<g id="a_edge21_Node000016_Node000011"><a xlink:title=" ">
<path fill="none" stroke="#63b8ff" d="M810.85,-111.53C848.73,-102.52 905.93,-88.91 947.13,-79.11"/>
<polygon fill="#63b8ff" stroke="#63b8ff" points="947.9,-82.53 956.82,-76.81 946.28,-75.72 947.9,-82.53"/>
</a>
</g>
</g>
<!-- Node18 -->
<g id="Node000018" class="node">
<title>Node18</title>
<g id="a_Node000018"><a xlink:title=" ">
<polygon fill="#e0e0e0" stroke="#999999" points="497.17,-188 424.92,-188 424.92,-168 497.17,-168 497.17,-188"/>
<text xml:space="preserve" text-anchor="middle" x="461.04" y="-174.5" font-family="Helvetica,sans-Serif" font-size="10.00">dpp/cluster.h</text>
</a>
</g>
</g>
<!-- Node17&#45;&gt;Node18 -->
<g id="edge24_Node000017_Node000018" class="edge">
<title>Node17&#45;&gt;Node18</title>
<g id="a_edge24_Node000017_Node000018"><a xlink:title=" ">
<path fill="none" stroke="#63b8ff" d="M212.16,-223.72C262.4,-215.32 338.37,-202.37 413.62,-188.42"/>
<polygon fill="#63b8ff" stroke="#63b8ff" points="414.03,-191.9 423.22,-186.63 412.75,-185.02 414.03,-191.9"/>
</a>
</g>
</g>
<!-- Node19 -->
<g id="Node000019" class="node">
<title>Node19</title>
<g id="a_Node000019"><a xlink:title=" ">
<polygon fill="#e0e0e0" stroke="#999999" points="407.04,-188 319.04,-188 319.04,-168 407.04,-168 407.04,-188"/>
<text xml:space="preserve" text-anchor="middle" x="363.04" y="-174.5" font-family="Helvetica,sans-Serif" font-size="10.00">dpp/dispatcher.h</text>
</a>
</g>
</g>
<!-- Node17&#45;&gt;Node19 -->
<g id="edge25_Node000017_Node000019" class="edge">
<title>Node17&#45;&gt;Node19</title>
<g id="a_edge25_Node000017_Node000019"><a xlink:title=" ">
<path fill="none" stroke="#63b8ff" d="M192.1,-223.59C226.47,-214.63 278.41,-201.08 316.02,-191.27"/>
<polygon fill="#63b8ff" stroke="#63b8ff" points="316.45,-194.77 325.24,-188.86 314.68,-188 316.45,-194.77"/>
</a>
</g>
</g>
<!-- Node20&#45;&gt;Node18 -->
<g id="edge27_Node000020_Node000018" class="edge">
<title>Node20&#45;&gt;Node18</title>
<g id="a_edge27_Node000020_Node000018"><a xlink:title=" ">
<path fill="none" stroke="#63b8ff" d="M313.22,-223.59C342.43,-214.78 386.32,-201.54 418.7,-191.78"/>
<polygon fill="#63b8ff" stroke="#63b8ff" points="419.61,-195.16 428.17,-188.92 417.59,-188.45 419.61,-195.16"/>
</a>
</g>
</g>
<!-- Node20&#45;&gt;Node19 -->
<g id="edge28_Node000020_Node000019" class="edge">
<title>Node20&#45;&gt;Node19</title>
<g id="a_edge28_Node000020_Node000019"><a xlink:title=" ">
<path fill="none" stroke="#63b8ff" d="M296.15,-223.59C308.04,-215.67 325.31,-204.16 339.32,-194.82"/>
<polygon fill="#63b8ff" stroke="#63b8ff" points="341.19,-197.78 347.57,-189.32 337.3,-191.95 341.19,-197.78"/>
</a>
</g>
</g>
<!-- Node21&#45;&gt;Node10 -->
<g id="edge33_Node000021_Node000010" class="edge">
<title>Node21&#45;&gt;Node10</title>
<g id="a_edge33_Node000021_Node000010"><a xlink:title=" ">
<path fill="none" stroke="#63b8ff" d="M953.95,-224.95C888.79,-216.59 795.62,-202.68 762.04,-188 735.62,-176.45 709.98,-155 693.9,-139.91"/>
<polygon fill="#63b8ff" stroke="#63b8ff" points="696.71,-137.76 687.09,-133.34 691.85,-142.8 696.71,-137.76"/>
</a>
</g>
</g>
<!-- Node21&#45;&gt;Node18 -->
<g id="edge31_Node000021_Node000018" class="edge">
<title>Node21&#45;&gt;Node18</title>
<g id="a_edge31_Node000021_Node000018"><a xlink:title=" ">
<path fill="none" stroke="#63b8ff" d="M954.03,-224.96C951,-224.63 947.99,-224.31 945.04,-224 785.36,-207.25 595.7,-190.54 508.82,-183.06"/>
<polygon fill="#63b8ff" stroke="#63b8ff" points="509.27,-179.59 499.01,-182.22 508.68,-186.57 509.27,-179.59"/>
</a>
</g>
</g>
<!-- Node21&#45;&gt;Node19 -->
<g id="edge32_Node000021_Node000019" class="edge">
<title>Node21&#45;&gt;Node19</title>
<g id="a_edge32_Node000021_Node000019"><a xlink:title=" ">
<path fill="none" stroke="#63b8ff" d="M954.04,-224.87C951,-224.56 947.99,-224.27 945.04,-224 714.06,-202.65 651.99,-215.35 418.77,-188.21"/>
<polygon fill="#63b8ff" stroke="#63b8ff" points="419.37,-184.76 409.03,-187.06 418.56,-191.71 419.37,-184.76"/>
</a>
</g>
</g>
<!-- Node22 -->
<g id="Node000022" class="node">
<title>Node22</title>
<g id="a_Node000022"><a xlink:title=" ">
<polygon fill="#e0e0e0" stroke="#999999" points="853.42,-188 770.67,-188 770.67,-168 853.42,-168 853.42,-188"/>
<text xml:space="preserve" text-anchor="middle" x="812.04" y="-174.5" font-family="Helvetica,sans-Serif" font-size="10.00">appcommand.h</text>
</a>
</g>
</g>
<!-- Node21&#45;&gt;Node22 -->
<g id="edge30_Node000021_Node000022" class="edge">
<title>Node21&#45;&gt;Node22</title>
<g id="a_edge30_Node000021_Node000022"><a xlink:title=" ">
<path fill="none" stroke="#63b8ff" d="M985.47,-223.59C950.6,-214.63 897.9,-201.08 859.75,-191.27"/>
<polygon fill="#63b8ff" stroke="#63b8ff" points="860.93,-187.96 850.38,-188.86 859.19,-194.74 860.93,-187.96"/>
</a>
</g>
</g>
<!-- Node23&#45;&gt;Node18 -->
<g id="edge35_Node000023_Node000018" class="edge">
<title>Node23&#45;&gt;Node18</title>
<g id="a_edge35_Node000023_Node000018"><a xlink:title=" ">
<path fill="none" stroke="#63b8ff" d="M420.58,-223.59C427.33,-216.16 436.93,-205.58 445.09,-196.58"/>
<polygon fill="#63b8ff" stroke="#63b8ff" points="447.46,-199.18 451.59,-189.42 442.28,-194.47 447.46,-199.18"/>
</a>
</g>
</g>
<!-- Node23&#45;&gt;Node19 -->
<g id="edge36_Node000023_Node000019" class="edge">
<title>Node23&#45;&gt;Node19</title>
<g id="a_edge36_Node000023_Node000019"><a xlink:title=" ">
<path fill="none" stroke="#63b8ff" d="M403.51,-223.59C396.76,-216.16 387.16,-205.58 379,-196.58"/>
<polygon fill="#63b8ff" stroke="#63b8ff" points="381.81,-194.47 372.5,-189.42 376.63,-199.18 381.81,-194.47"/>
</a>
</g>
</g>
<!-- Node24&#45;&gt;Node18 -->
<g id="edge38_Node000024_Node000018" class="edge">
<title>Node24&#45;&gt;Node18</title>
<g id="a_edge38_Node000024_Node000018"><a xlink:title=" ">
<path fill="none" stroke="#63b8ff" d="M534.54,-223.59C521.22,-215.51 501.77,-203.71 486.22,-194.27"/>
<polygon fill="#63b8ff" stroke="#63b8ff" points="488.33,-191.46 477.96,-189.26 484.7,-197.44 488.33,-191.46"/>
</a>
</g>
</g>
<!-- Node24&#45;&gt;Node19 -->
<g id="edge39_Node000024_Node000019" class="edge">
<title>Node24&#45;&gt;Node19</title>
<g id="a_edge39_Node000024_Node000019"><a xlink:title=" ">
<path fill="none" stroke="#63b8ff" d="M517.47,-223.59C486.82,-214.74 440.7,-201.43 406.84,-191.65"/>
<polygon fill="#63b8ff" stroke="#63b8ff" points="407.9,-188.31 397.33,-188.9 405.96,-195.04 407.9,-188.31"/>
</a>
</g>
</g>
<!-- Node25&#45;&gt;Node18 -->
<g id="edge41_Node000025_Node000018" class="edge">
<title>Node25&#45;&gt;Node18</title>
<g id="a_edge41_Node000025_Node000018"><a xlink:title=" ">
<path fill="none" stroke="#63b8ff" d="M649.89,-223.53C610.41,-214.22 550.16,-200.01 508.37,-190.16"/>
<polygon fill="#63b8ff" stroke="#63b8ff" points="509.38,-186.8 498.84,-187.91 507.77,-193.61 509.38,-186.8"/>
</a>
</g>
</g>
<!-- Node25&#45;&gt;Node19 -->
<g id="edge42_Node000025_Node000019" class="edge">
<title>Node25&#45;&gt;Node19</title>
<g id="a_edge42_Node000025_Node000019"><a xlink:title=" ">
<path fill="none" stroke="#63b8ff" d="M631.77,-223.52C578.78,-214.89 498.11,-201.68 418.51,-188.4"/>
<polygon fill="#63b8ff" stroke="#63b8ff" points="419.22,-184.98 408.78,-186.78 418.07,-191.88 419.22,-184.98"/>
</a>
</g>
</g>
<!-- Node26&#45;&gt;Node18 -->
<g id="edge51_Node000026_Node000018" class="edge">
<title>Node26&#45;&gt;Node18</title>
<g id="a_edge51_Node000026_Node000018"><a xlink:title=" ">
<path fill="none" stroke="#63b8ff" d="M83.11,-225.43C85.78,-224.91 88.46,-224.43 91.04,-224 230.94,-200.96 270.52,-209.81 413.79,-188.22"/>
<polygon fill="#63b8ff" stroke="#63b8ff" points="413.89,-191.75 423.25,-186.77 412.83,-184.83 413.89,-191.75"/>
</a>
</g>
</g>
<!-- Node26&#45;&gt;Node19 -->
<g id="edge52_Node000026_Node000019" class="edge">
<title>Node26&#45;&gt;Node19</title>
<g id="a_edge52_Node000026_Node000019"><a xlink:title=" ">
<path fill="none" stroke="#63b8ff" d="M83.13,-225.58C85.81,-225.03 88.47,-224.5 91.04,-224 165.64,-209.65 252.29,-195.8 307.37,-187.34"/>
<polygon fill="#63b8ff" stroke="#63b8ff" points="307.78,-190.82 317.14,-185.85 306.72,-183.9 307.78,-190.82"/>
</a>
</g>
</g>
<!-- Node28&#45;&gt;Node4 -->
<g id="edge57_Node000028_Node000004" class="edge">
<title>Node28&#45;&gt;Node4</title>
<g id="a_edge57_Node000028_Node000004"><a xlink:title=" ">
<path fill="none" stroke="#63b8ff" d="M759.57,-391.59C734.75,-382.78 697.45,-369.53 669.96,-359.76"/>
<polygon fill="#63b8ff" stroke="#63b8ff" points="671.23,-356.5 660.63,-356.45 668.89,-363.09 671.23,-356.5"/>
</a>
</g>
</g>
<!-- Node29&#45;&gt;Node3 -->
<g id="edge60_Node000029_Node000003" class="edge">
<title>Node29&#45;&gt;Node3</title>
<g id="a_edge60_Node000029_Node000003"><a xlink:title=" ">
<path fill="none" stroke="#63b8ff" d="M1280.78,-335.61C1285.38,-308.25 1295.78,-226.85 1269.04,-168 1263.97,-156.83 1254.78,-146.96 1245.94,-139.33"/>
<polygon fill="#63b8ff" stroke="#63b8ff" points="1248.23,-136.68 1238.23,-133.18 1243.86,-142.15 1248.23,-136.68"/>
</a>
</g>
</g>
</g>
</svg>
