<?xml version="1.0" encoding="UTF-8" standalone="no"?>
<!DOCTYPE svg PUBLIC "-//W3C//DTD SVG 1.1//EN"
 "http://www.w3.org/Graphics/SVG/1.1/DTD/svg11.dtd">
<!-- Generated by graphviz version 16.1.0 (0)
 -->
<!-- Title: src/bot_library/BotLibrary.cpp Pages: 1 -->
<svg width="332pt" height="140pt"
 viewBox="0.00 0.00 332.00 140.00" xmlns="http://www.w3.org/2000/svg" xmlns:xlink="http://www.w3.org/1999/xlink">
<g id="graph0" class="graph" transform="scale(1 1) rotate(0) translate(4 136)">
<title>src/bot_library/BotLibrary.cpp</title>
<!-- Node1 -->
<g id="Node000001" class="node">
<title>Node1</title>
<g id="a_Node000001"><a xlink:title=" ">
<polygon fill="#999999" stroke="#666666" points="228.5,-132 85.75,-132 85.75,-112 228.5,-112 228.5,-132"/>
<text xml:space="preserve" text-anchor="middle" x="157.12" y="-118.5" font-family="Helvetica,sans-Serif" font-size="10.00">src/bot_library/BotLibrary.cpp</text>
</a>
</g>
</g>
<!-- Node2 -->
<g id="Node000002" class="node">
<title>Node2</title>
<g id="a_Node000002"><a xlink:href="BotLibrary_8hpp.html" target="_top" xlink:title=" ">
<polygon fill="white" stroke="#666666" points="78.25,-76 0,-76 0,-56 78.25,-56 78.25,-76"/>
<text xml:space="preserve" text-anchor="middle" x="39.12" y="-62.5" font-family="Helvetica,sans-Serif" font-size="10.00">BotLibrary.hpp</text>
</a>
</g>
</g>
<!-- Node1&#45;&gt;Node2 -->
<g id="edge1_Node000001_Node000002" class="edge">
<title>Node1&#45;&gt;Node2</title>
<g id="a_edge1_Node000001_Node000002"><a xlink:title=" ">
<path fill="none" stroke="#63b8ff" d="M136.57,-111.59C118.24,-103.21 91.14,-90.8 70.17,-81.21"/>
<polygon fill="#63b8ff" stroke="#63b8ff" points="71.77,-78.09 61.22,-77.11 68.85,-84.45 71.77,-78.09"/>
</a>
</g>
</g>
<!-- Node4 -->
<g id="Node000004" class="node">
<title>Node4</title>
<g id="a_Node000004"><a xlink:title=" ">
<polygon fill="#e0e0e0" stroke="#999999" points="145.62,-76 96.62,-76 96.62,-56 145.62,-56 145.62,-76"/>
<text xml:space="preserve" text-anchor="middle" x="121.12" y="-62.5" font-family="Helvetica,sans-Serif" font-size="10.00">fstream</text>
</a>
</g>
</g>
<!-- Node1&#45;&gt;Node4 -->
<g id="edge3_Node000001_Node000004" class="edge">
<title>Node1&#45;&gt;Node4</title>
<g id="a_edge3_Node000001_Node000004"><a xlink:title=" ">
<path fill="none" stroke="#63b8ff" d="M150.85,-111.59C146.11,-104.47 139.43,-94.45 133.6,-85.72"/>
<polygon fill="#63b8ff" stroke="#63b8ff" points="136.62,-83.94 128.16,-77.56 130.8,-87.82 136.62,-83.94"/>
</a>
</g>
</g>
<!-- Node5 -->
<g id="Node000005" class="node">
<title>Node5</title>
<g id="a_Node000005"><a xlink:title=" ">
<polygon fill="#e0e0e0" stroke="#999999" points="222.5,-76 163.75,-76 163.75,-56 222.5,-56 222.5,-76"/>
<text xml:space="preserve" text-anchor="middle" x="193.12" y="-62.5" font-family="Helvetica,sans-Serif" font-size="10.00">stdexcept</text>
</a>
</g>
</g>
<!-- Node1&#45;&gt;Node5 -->
<g id="edge4_Node000001_Node000005" class="edge">
<title>Node1&#45;&gt;Node5</title>
<g id="a_edge4_Node000001_Node000005"><a xlink:title=" ">
<path fill="none" stroke="#63b8ff" d="M163.4,-111.59C168.14,-104.47 174.82,-94.45 180.65,-85.72"/>
<polygon fill="#63b8ff" stroke="#63b8ff" points="183.45,-87.82 186.09,-77.56 177.63,-83.94 183.45,-87.82"/>
</a>
</g>
</g>
<!-- Node6 -->
<g id="Node000006" class="node">
<title>Node6</title>
<g id="a_Node000006"><a xlink:href="Application_8hpp.html" target="_top" xlink:title=" ">
<polygon fill="white" stroke="#666666" points="323.5,-76 240.75,-76 240.75,-56 323.5,-56 323.5,-76"/>
<text xml:space="preserve" text-anchor="middle" x="282.12" y="-62.5" font-family="Helvetica,sans-Serif" font-size="10.00">Application.hpp</text>
</a>
</g>
</g>
<!-- Node1&#45;&gt;Node6 -->
<g id="edge5_Node000001_Node000006" class="edge">
<title>Node1&#45;&gt;Node6</title>
<g id="a_edge5_Node000001_Node000006"><a xlink:title=" ">
<path fill="none" stroke="#63b8ff" d="M178.9,-111.59C198.49,-103.13 227.55,-90.58 249.85,-80.94"/>
<polygon fill="#63b8ff" stroke="#63b8ff" points="251,-84.26 258.79,-77.08 248.22,-77.83 251,-84.26"/>
</a>
</g>
</g>
<!-- Node3 -->
<g id="Node000003" class="node">
<title>Node3</title>
<g id="a_Node000003"><a xlink:title=" ">
<polygon fill="#e0e0e0" stroke="#999999" points="59.12,-20 19.12,-20 19.12,0 59.12,0 59.12,-20"/>
<text xml:space="preserve" text-anchor="middle" x="39.12" y="-6.5" font-family="Helvetica,sans-Serif" font-size="10.00">string</text>
</a>
</g>
</g>
<!-- Node2&#45;&gt;Node3 -->
<g id="edge2_Node000002_Node000003" class="edge">
<title>Node2&#45;&gt;Node3</title>
<g id="a_edge2_Node000002_Node000003"><a xlink:title=" ">
<path fill="none" stroke="#63b8ff" d="M39.12,-55.59C39.12,-49.01 39.12,-39.96 39.12,-31.73"/>
<polygon fill="#63b8ff" stroke="#63b8ff" points="42.63,-31.81 39.13,-21.81 35.63,-31.81 42.63,-31.81"/>
</a>
</g>
</g>
</g>
</svg>
