<?xml version="1.0" encoding="UTF-8" standalone="no"?>
<!DOCTYPE svg PUBLIC "-//W3C//DTD SVG 1.1//EN"
 "http://www.w3.org/Graphics/SVG/1.1/DTD/svg11.dtd">
<!-- Generated by graphviz version 9.0.0 (0)
 -->
<!-- Title: src/bot_library/BotLibrary.cpp Pages: 1 -->
<svg width="1476pt" height="364pt"
 viewBox="0.00 0.00 1475.75 364.00" xmlns="http://www.w3.org/2000/svg" xmlns:xlink="http://www.w3.org/1999/xlink">
<g id="graph0" class="graph" transform="scale(1 1) rotate(0) translate(4 360)">
<title>src/bot_library/BotLibrary.cpp</title>
<!-- Node1 -->
<g id="Node000001" class="node">
<title>Node1</title>
<g id="a_Node000001"><a xlink:title=" ">
<polygon fill="#999999" stroke="#666666" points="491.38,-356 348.62,-356 348.62,-336 491.38,-336 491.38,-356"/>
<text text-anchor="middle" x="420" y="-342.5" font-family="Helvetica,sans-Serif" font-size="10.00">src/bot_library/BotLibrary.cpp</text>
</a>
</g>
</g>
<!-- Node2 -->
<g id="Node000002" class="node">
<title>Node2</title>
<g id="a_Node000002"><a xlink:href="BotLibrary_8hpp.html" target="_top" xlink:title=" ">
<polygon fill="white" stroke="#666666" points="82.12,-244 3.88,-244 3.88,-224 82.12,-224 82.12,-244"/>
<text text-anchor="middle" x="43" y="-230.5" font-family="Helvetica,sans-Serif" font-size="10.00">BotLibrary.hpp</text>
</a>
</g>
</g>
<!-- Node1&#45;&gt;Node2 -->
<g id="edge1_Node000001_Node000002" class="edge">
<title>Node1&#45;&gt;Node2</title>
<g id="a_edge1_Node000001_Node000002"><a xlink:title=" ">
<path fill="none" stroke="#63b8ff" d="M348.39,-340.42C268.31,-334.33 144.41,-321.73 103,-300 82.67,-289.33 65.62,-268.96 54.96,-253.85"/>
<polygon fill="#63b8ff" stroke="#63b8ff" points="57.95,-252.03 49.47,-245.67 52.14,-255.93 57.95,-252.03"/>
</a>
</g>
</g>
<!-- Node4 -->
<g id="Node000004" class="node">
<title>Node4</title>
<g id="a_Node000004"><a xlink:href="Bot_8hpp.html" target="_top" xlink:title=" ">
<polygon fill="white" stroke="#666666" points="778.88,-244 729.12,-244 729.12,-224 778.88,-224 778.88,-244"/>
<text text-anchor="middle" x="754" y="-230.5" font-family="Helvetica,sans-Serif" font-size="10.00">Bot.hpp</text>
</a>
</g>
</g>
<!-- Node1&#45;&gt;Node4 -->
<g id="edge3_Node000001_Node000004" class="edge">
<title>Node1&#45;&gt;Node4</title>
<g id="a_edge3_Node000001_Node000004"><a xlink:title=" ">
<path fill="none" stroke="#63b8ff" d="M430,-335.55C445.85,-321.14 478.3,-293.89 511,-280 580.32,-250.56 668.82,-240.33 717.61,-236.82"/>
<polygon fill="#63b8ff" stroke="#63b8ff" points="717.58,-240.33 727.32,-236.18 717.12,-233.34 717.58,-240.33"/>
</a>
</g>
</g>
<!-- Node9 -->
<g id="Node000009" class="node">
<title>Node9</title>
<g id="a_Node000009"><a xlink:href="Database_8hpp.html" target="_top" xlink:title=" ">
<polygon fill="white" stroke="#666666" points="259.38,-132 182.62,-132 182.62,-112 259.38,-112 259.38,-132"/>
<text text-anchor="middle" x="221" y="-118.5" font-family="Helvetica,sans-Serif" font-size="10.00">Database.hpp</text>
</a>
</g>
</g>
<!-- Node1&#45;&gt;Node9 -->
<g id="edge51_Node000001_Node000009" class="edge">
<title>Node1&#45;&gt;Node9</title>
<g id="a_edge51_Node000001_Node000009"><a xlink:title=" ">
<path fill="none" stroke="#63b8ff" d="M407.94,-335.52C397.07,-326.75 380.87,-313.13 368,-300 314.79,-245.7 259.46,-174.32 234.56,-141.26"/>
<polygon fill="#63b8ff" stroke="#63b8ff" points="237.55,-139.41 228.75,-133.5 231.94,-143.6 237.55,-139.41"/>
</a>
</g>
</g>
<!-- Node28 -->
<g id="Node000028" class="node">
<title>Node28</title>
<g id="a_Node000028"><a xlink:href="Commands_8hpp.html" target="_top" xlink:title=" ">
<polygon fill="white" stroke="#666666" points="462.5,-300 377.5,-300 377.5,-280 462.5,-280 462.5,-300"/>
<text text-anchor="middle" x="420" y="-286.5" font-family="Helvetica,sans-Serif" font-size="10.00">Commands.hpp</text>
</a>
</g>
</g>
<!-- Node1&#45;&gt;Node28 -->
<g id="edge49_Node000001_Node000028" class="edge">
<title>Node1&#45;&gt;Node28</title>
<g id="a_edge49_Node000001_Node000028"><a xlink:title=" ">
<path fill="none" stroke="#63b8ff" d="M420,-335.59C420,-329.01 420,-319.96 420,-311.73"/>
<polygon fill="#63b8ff" stroke="#63b8ff" points="423.5,-311.81 420,-301.81 416.5,-311.81 423.5,-311.81"/>
</a>
</g>
</g>
<!-- Node29 -->
<g id="Node000029" class="node">
<title>Node29</title>
<g id="a_Node000029"><a xlink:title=" ">
<polygon fill="#e0e0e0" stroke="#999999" points="568.5,-300 519.5,-300 519.5,-280 568.5,-280 568.5,-300"/>
<text text-anchor="middle" x="544" y="-286.5" font-family="Helvetica,sans-Serif" font-size="10.00">fstream</text>
</a>
</g>
</g>
<!-- Node1&#45;&gt;Node29 -->
<g id="edge52_Node000001_Node000029" class="edge">
<title>Node1&#45;&gt;Node29</title>
<g id="a_edge52_Node000001_Node000029"><a xlink:title=" ">
<path fill="none" stroke="#63b8ff" d="M441.6,-335.59C460.95,-327.17 489.6,-314.69 511.68,-305.07"/>
<polygon fill="#63b8ff" stroke="#63b8ff" points="513.07,-308.29 520.84,-301.08 510.28,-301.87 513.07,-308.29"/>
</a>
</g>
</g>
<!-- Node3 -->
<g id="Node000003" class="node">
<title>Node3</title>
<g id="a_Node000003"><a xlink:title=" ">
<polygon fill="#e0e0e0" stroke="#999999" points="40,-76 0,-76 0,-56 40,-56 40,-76"/>
<text text-anchor="middle" x="20" y="-62.5" font-family="Helvetica,sans-Serif" font-size="10.00">string</text>
</a>
</g>
</g>
<!-- Node2&#45;&gt;Node3 -->
<g id="edge2_Node000002_Node000003" class="edge">
<title>Node2&#45;&gt;Node3</title>
<g id="a_edge2_Node000002_Node000003"><a xlink:title=" ">
<path fill="none" stroke="#63b8ff" d="M41.7,-223.6C38.08,-197.46 27.83,-123.48 22.82,-87.36"/>
<polygon fill="#63b8ff" stroke="#63b8ff" points="26.34,-87.22 21.5,-77.8 19.4,-88.18 26.34,-87.22"/>
</a>
</g>
</g>
<!-- Node4&#45;&gt;Node3 -->
<g id="edge47_Node000004_Node000003" class="edge">
<title>Node4&#45;&gt;Node3</title>
<g id="a_edge47_Node000004_Node000003"><a xlink:title=" ">
<path fill="none" stroke="#63b8ff" d="M728.86,-231.69C666.08,-228.08 497.56,-216.33 360,-188 275.44,-170.59 255.22,-161.27 174,-132 130.48,-116.31 81.44,-94.96 50.63,-81.08"/>
<polygon fill="#63b8ff" stroke="#63b8ff" points="52.08,-77.89 41.53,-76.95 49.19,-84.27 52.08,-77.89"/>
</a>
</g>
</g>
<!-- Node5 -->
<g id="Node000005" class="node">
<title>Node5</title>
<g id="a_Node000005"><a xlink:href="Core_8hpp.html" target="_top" xlink:title=" ">
<polygon fill="white" stroke="#666666" points="688.88,-188 633.12,-188 633.12,-168 688.88,-168 688.88,-188"/>
<text text-anchor="middle" x="661" y="-174.5" font-family="Helvetica,sans-Serif" font-size="10.00">Core.hpp</text>
</a>
</g>
</g>
<!-- Node4&#45;&gt;Node5 -->
<g id="edge4_Node000004_Node000005" class="edge">
<title>Node4&#45;&gt;Node5</title>
<g id="a_edge4_Node000004_Node000005"><a xlink:title=" ">
<path fill="none" stroke="#63b8ff" d="M737.8,-223.59C723.75,-215.44 703.17,-203.48 686.84,-194"/>
<polygon fill="#63b8ff" stroke="#63b8ff" points="689.04,-191.23 678.63,-189.24 685.53,-197.29 689.04,-191.23"/>
</a>
</g>
</g>
<!-- Node15 -->
<g id="Node000015" class="node">
<title>Node15</title>
<g id="a_Node000015"><a xlink:title=" ">
<polygon fill="#e0e0e0" stroke="#999999" points="549.5,-76 506.5,-76 506.5,-56 549.5,-56 549.5,-76"/>
<text text-anchor="middle" x="528" y="-62.5" font-family="Helvetica,sans-Serif" font-size="10.00">vector</text>
</a>
</g>
</g>
<!-- Node4&#45;&gt;Node15 -->
<g id="edge48_Node000004_Node000015" class="edge">
<title>Node4&#45;&gt;Node15</title>
<g id="a_edge48_Node000004_Node000015"><a xlink:title=" ">
<path fill="none" stroke="#63b8ff" d="M728.77,-231.38C642.08,-225.22 358.83,-200.12 306,-132 269.15,-84.49 265.02,-129.96 494.93,-76.29"/>
<polygon fill="#63b8ff" stroke="#63b8ff" points="495.66,-79.71 504.58,-74 494.04,-72.9 495.66,-79.71"/>
</a>
</g>
</g>
<!-- Node17 -->
<g id="Node000017" class="node">
<title>Node17</title>
<g id="a_Node000017"><a xlink:href="IButtonCommand_8hpp.html" target="_top" xlink:title=" ">
<polygon fill="white" stroke="#666666" points="426.62,-132 315.38,-132 315.38,-112 426.62,-112 426.62,-132"/>
<text text-anchor="middle" x="371" y="-118.5" font-family="Helvetica,sans-Serif" font-size="10.00">IButtonCommand.hpp</text>
</a>
</g>
</g>
<!-- Node4&#45;&gt;Node17 -->
<g id="edge36_Node000004_Node000017" class="edge">
<title>Node4&#45;&gt;Node17</title>
<g id="a_edge36_Node000004_Node000017"><a xlink:title=" ">
<path fill="none" stroke="#63b8ff" d="M728.87,-225.78C664.9,-207.41 495.25,-158.68 414.67,-135.54"/>
<polygon fill="#63b8ff" stroke="#63b8ff" points="415.95,-132.27 405.37,-132.87 414.01,-139 415.95,-132.27"/>
</a>
</g>
</g>
<!-- Node20 -->
<g id="Node000020" class="node">
<title>Node20</title>
<g id="a_Node000020"><a xlink:href="IFormCommand_8hpp.html" target="_top" xlink:title=" ">
<polygon fill="white" stroke="#666666" points="814.62,-132 709.38,-132 709.38,-112 814.62,-112 814.62,-132"/>
<text text-anchor="middle" x="762" y="-118.5" font-family="Helvetica,sans-Serif" font-size="10.00">IFormCommand.hpp</text>
</a>
</g>
</g>
<!-- Node4&#45;&gt;Node20 -->
<g id="edge37_Node000004_Node000020" class="edge">
<title>Node4&#45;&gt;Node20</title>
<g id="a_edge37_Node000004_Node000020"><a xlink:title=" ">
<path fill="none" stroke="#63b8ff" d="M778.1,-223.6C793.11,-216.33 811.19,-204.68 820,-188 830.23,-168.64 810.34,-150.39 791.13,-138.19"/>
<polygon fill="#63b8ff" stroke="#63b8ff" points="793,-135.23 782.61,-133.15 789.44,-141.25 793,-135.23"/>
</a>
</g>
</g>
<!-- Node21 -->
<g id="Node000021" class="node">
<title>Node21</title>
<g id="a_Node000021"><a xlink:href="IGlobalSlashCommand_8hpp.html" target="_top" xlink:title=" ">
<polygon fill="white" stroke="#666666" points="967.62,-132 832.38,-132 832.38,-112 967.62,-112 967.62,-132"/>
<text text-anchor="middle" x="900" y="-118.5" font-family="Helvetica,sans-Serif" font-size="10.00">IGlobalSlashCommand.hpp</text>
</a>
</g>
</g>
<!-- Node4&#45;&gt;Node21 -->
<g id="edge38_Node000004_Node000021" class="edge">
<title>Node4&#45;&gt;Node21</title>
<g id="a_edge38_Node000004_Node000021"><a xlink:title=" ">
<path fill="none" stroke="#63b8ff" d="M774.59,-223.55C791.56,-215.31 815.86,-202.43 835,-188 853.63,-173.94 872.19,-154.73 884.68,-140.85"/>
<polygon fill="#63b8ff" stroke="#63b8ff" points="887.3,-143.17 891.28,-133.35 882.04,-138.54 887.3,-143.17"/>
</a>
</g>
</g>
<!-- Node22 -->
<g id="Node000022" class="node">
<title>Node22</title>
<g id="a_Node000022"><a xlink:href="IMemberCommand_8hpp.html" target="_top" xlink:title=" ">
<polygon fill="white" stroke="#666666" points="1104,-132 986,-132 986,-112 1104,-112 1104,-132"/>
<text text-anchor="middle" x="1045" y="-118.5" font-family="Helvetica,sans-Serif" font-size="10.00">IMemberCommand.hpp</text>
</a>
</g>
</g>
<!-- Node4&#45;&gt;Node22 -->
<g id="edge39_Node000004_Node000022" class="edge">
<title>Node4&#45;&gt;Node22</title>
<g id="a_edge39_Node000004_Node000022"><a xlink:title=" ">
<path fill="none" stroke="#63b8ff" d="M779.06,-223.53C830.85,-203.95 949.78,-158.99 1009.47,-136.43"/>
<polygon fill="#63b8ff" stroke="#63b8ff" points="1010.36,-139.83 1018.48,-133.03 1007.89,-133.29 1010.36,-139.83"/>
</a>
</g>
</g>
<!-- Node23 -->
<g id="Node000023" class="node">
<title>Node23</title>
<g id="a_Node000023"><a xlink:href="IMessageCommand_8hpp.html" target="_top" xlink:title=" ">
<polygon fill="white" stroke="#666666" points="1244.25,-132 1121.75,-132 1121.75,-112 1244.25,-112 1244.25,-132"/>
<text text-anchor="middle" x="1183" y="-118.5" font-family="Helvetica,sans-Serif" font-size="10.00">IMessageCommand.hpp</text>
</a>
</g>
</g>
<!-- Node4&#45;&gt;Node23 -->
<g id="edge40_Node000004_Node000023" class="edge">
<title>Node4&#45;&gt;Node23</title>
<g id="a_edge40_Node000004_Node000023"><a xlink:title=" ">
<path fill="none" stroke="#63b8ff" d="M779.23,-226.53C848.73,-208.71 1043.8,-158.69 1134.95,-135.32"/>
<polygon fill="#63b8ff" stroke="#63b8ff" points="1135.77,-138.72 1144.59,-132.85 1134.03,-131.94 1135.77,-138.72"/>
</a>
</g>
</g>
<!-- Node24 -->
<g id="Node000024" class="node">
<title>Node24</title>
<g id="a_Node000024"><a xlink:href="IReactionCommand_8hpp.html" target="_top" xlink:title=" ">
<polygon fill="white" stroke="#666666" points="1383.88,-132 1262.12,-132 1262.12,-112 1383.88,-112 1383.88,-132"/>
<text text-anchor="middle" x="1323" y="-118.5" font-family="Helvetica,sans-Serif" font-size="10.00">IReactionCommand.hpp</text>
</a>
</g>
</g>
<!-- Node4&#45;&gt;Node24 -->
<g id="edge41_Node000004_Node000024" class="edge">
<title>Node4&#45;&gt;Node24</title>
<g id="a_edge41_Node000004_Node000024"><a xlink:title=" ">
<path fill="none" stroke="#63b8ff" d="M779.18,-228.13C863.86,-211.76 1139.87,-158.4 1262.89,-134.62"/>
<polygon fill="#63b8ff" stroke="#63b8ff" points="1263.31,-138.1 1272.47,-132.77 1261.98,-131.23 1263.31,-138.1"/>
</a>
</g>
</g>
<!-- Node25 -->
<g id="Node000025" class="node">
<title>Node25</title>
<g id="a_Node000025"><a xlink:href="IReady_8hpp.html" target="_top" xlink:title=" ">
<polygon fill="white" stroke="#666666" points="1467.75,-132 1402.25,-132 1402.25,-112 1467.75,-112 1467.75,-132"/>
<text text-anchor="middle" x="1435" y="-118.5" font-family="Helvetica,sans-Serif" font-size="10.00">IReady.hpp</text>
</a>
</g>
</g>
<!-- Node4&#45;&gt;Node25 -->
<g id="edge42_Node000004_Node000025" class="edge">
<title>Node4&#45;&gt;Node25</title>
<g id="a_edge42_Node000004_Node000025"><a xlink:title=" ">
<path fill="none" stroke="#63b8ff" d="M779.36,-229.55C864.31,-217.89 1146.73,-178.16 1390.79,-132.34"/>
<polygon fill="#63b8ff" stroke="#63b8ff" points="1391.35,-135.8 1400.53,-130.51 1390.05,-128.92 1391.35,-135.8"/>
</a>
</g>
</g>
<!-- Node26 -->
<g id="Node000026" class="node">
<title>Node26</title>
<g id="a_Node000026"><a xlink:title=" ">
<polygon fill="#e0e0e0" stroke="#999999" points="741.38,-188 706.62,-188 706.62,-168 741.38,-168 741.38,-188"/>
<text text-anchor="middle" x="724" y="-174.5" font-family="Helvetica,sans-Serif" font-size="10.00">map</text>
</a>
</g>
</g>
<!-- Node4&#45;&gt;Node26 -->
<g id="edge45_Node000004_Node000026" class="edge">
<title>Node4&#45;&gt;Node26</title>
<g id="a_edge45_Node000004_Node000026"><a xlink:title=" ">
<path fill="none" stroke="#63b8ff" d="M748.77,-223.59C744.9,-216.63 739.49,-206.89 734.72,-198.29"/>
<polygon fill="#63b8ff" stroke="#63b8ff" points="737.82,-196.66 729.9,-189.62 731.7,-200.06 737.82,-196.66"/>
</a>
</g>
</g>
<!-- Node27 -->
<g id="Node000027" class="node">
<title>Node27</title>
<g id="a_Node000027"><a xlink:title=" ">
<polygon fill="#e0e0e0" stroke="#999999" points="810.62,-188 759.38,-188 759.38,-168 810.62,-168 810.62,-188"/>
<text text-anchor="middle" x="785" y="-174.5" font-family="Helvetica,sans-Serif" font-size="10.00">memory</text>
</a>
</g>
</g>
<!-- Node4&#45;&gt;Node27 -->
<g id="edge46_Node000004_Node000027" class="edge">
<title>Node4&#45;&gt;Node27</title>
<g id="a_edge46_Node000004_Node000027"><a xlink:title=" ">
<path fill="none" stroke="#63b8ff" d="M759.4,-223.59C763.44,-216.55 769.12,-206.67 774.09,-198"/>
<polygon fill="#63b8ff" stroke="#63b8ff" points="776.97,-200.03 778.91,-189.61 770.89,-196.54 776.97,-200.03"/>
</a>
</g>
</g>
<!-- Node6 -->
<g id="Node000006" class="node">
<title>Node6</title>
<g id="a_Node000006"><a xlink:title=" ">
<polygon fill="#e0e0e0" stroke="#999999" points="503.38,-132 444.62,-132 444.62,-112 503.38,-112 503.38,-132"/>
<text text-anchor="middle" x="474" y="-118.5" font-family="Helvetica,sans-Serif" font-size="10.00">dpp/dpp.h</text>
</a>
</g>
</g>
<!-- Node5&#45;&gt;Node6 -->
<g id="edge5_Node000005_Node000006" class="edge">
<title>Node5&#45;&gt;Node6</title>
<g id="a_edge5_Node000005_Node000006"><a xlink:title=" ">
<path fill="none" stroke="#63b8ff" d="M633,-168.92C601.65,-159.86 550.56,-145.11 514.77,-134.77"/>
<polygon fill="#63b8ff" stroke="#63b8ff" points="515.77,-131.42 505.19,-132.01 513.83,-138.14 515.77,-131.42"/>
</a>
</g>
</g>
<!-- Node7 -->
<g id="Node000007" class="node">
<title>Node7</title>
<g id="a_Node000007"><a xlink:title=" ">
<polygon fill="#e0e0e0" stroke="#999999" points="612.5,-132 521.5,-132 521.5,-112 612.5,-112 612.5,-132"/>
<text text-anchor="middle" x="567" y="-118.5" font-family="Helvetica,sans-Serif" font-size="10.00">dpp/misc&#45;enum.h</text>
</a>
</g>
</g>
<!-- Node5&#45;&gt;Node7 -->
<g id="edge6_Node000005_Node000007" class="edge">
<title>Node5&#45;&gt;Node7</title>
<g id="a_edge6_Node000005_Node000007"><a xlink:title=" ">
<path fill="none" stroke="#63b8ff" d="M644.63,-167.59C630.43,-159.44 609.62,-147.48 593.12,-138"/>
<polygon fill="#63b8ff" stroke="#63b8ff" points="595.23,-135.18 584.81,-133.23 591.74,-141.25 595.23,-135.18"/>
</a>
</g>
</g>
<!-- Node8 -->
<g id="Node000008" class="node">
<title>Node8</title>
<g id="a_Node000008"><a xlink:title=" ">
<polygon fill="#e0e0e0" stroke="#999999" points="691.12,-132 630.88,-132 630.88,-112 691.12,-112 691.12,-132"/>
<text text-anchor="middle" x="661" y="-118.5" font-family="Helvetica,sans-Serif" font-size="10.00">fmt/core.h</text>
</a>
</g>
</g>
<!-- Node5&#45;&gt;Node8 -->
<g id="edge7_Node000005_Node000008" class="edge">
<title>Node5&#45;&gt;Node8</title>
<g id="a_edge7_Node000005_Node000008"><a xlink:title=" ">
<path fill="none" stroke="#63b8ff" d="M661,-167.59C661,-161.01 661,-151.96 661,-143.73"/>
<polygon fill="#63b8ff" stroke="#63b8ff" points="664.5,-143.81 661,-133.81 657.5,-143.81 664.5,-143.81"/>
</a>
</g>
</g>
<!-- Node5&#45;&gt;Node9 -->
<g id="edge8_Node000005_Node000009" class="edge">
<title>Node5&#45;&gt;Node9</title>
<g id="a_edge8_Node000005_Node000009"><a xlink:title=" ">
<path fill="none" stroke="#63b8ff" d="M632.81,-173.54C559.78,-164.58 363.7,-140.51 270.94,-129.13"/>
<polygon fill="#63b8ff" stroke="#63b8ff" points="271.48,-125.67 261.13,-127.92 270.62,-132.62 271.48,-125.67"/>
</a>
</g>
</g>
<!-- Node5&#45;&gt;Node17 -->
<g id="edge18_Node000005_Node000017" class="edge">
<title>Node5&#45;&gt;Node17</title>
<g id="a_edge18_Node000005_Node000017"><a xlink:title=" ">
<path fill="none" stroke="#63b8ff" d="M632.67,-171.72C586.71,-163.17 494.86,-146.06 433.15,-134.57"/>
<polygon fill="#63b8ff" stroke="#63b8ff" points="433.96,-131.16 423.48,-132.77 432.67,-138.04 433.96,-131.16"/>
</a>
</g>
</g>
<!-- Node5&#45;&gt;Node20 -->
<g id="edge21_Node000005_Node000020" class="edge">
<title>Node5&#45;&gt;Node20</title>
<g id="a_edge21_Node000005_Node000020"><a xlink:title=" ">
<path fill="none" stroke="#63b8ff" d="M678.59,-167.59C693.92,-159.4 716.42,-147.37 734.19,-137.87"/>
<polygon fill="#63b8ff" stroke="#63b8ff" points="735.77,-140.99 742.94,-133.19 732.47,-134.82 735.77,-140.99"/>
</a>
</g>
</g>
<!-- Node5&#45;&gt;Node21 -->
<g id="edge24_Node000005_Node000021" class="edge">
<title>Node5&#45;&gt;Node21</title>
<g id="a_edge24_Node000005_Node000021"><a xlink:title=" ">
<path fill="none" stroke="#63b8ff" d="M689.27,-170.06C692.21,-169.36 695.17,-168.66 698,-168 747.74,-156.41 804.51,-143.82 845.18,-134.91"/>
<polygon fill="#63b8ff" stroke="#63b8ff" points="845.71,-138.38 854.73,-132.82 844.21,-131.54 845.71,-138.38"/>
</a>
</g>
</g>
<!-- Node5&#45;&gt;Node22 -->
<g id="edge27_Node000005_Node000022" class="edge">
<title>Node5&#45;&gt;Node22</title>
<g id="a_edge27_Node000005_Node000022"><a xlink:title=" ">
<path fill="none" stroke="#63b8ff" d="M689.21,-169.8C692.17,-169.14 695.14,-168.53 698,-168 817.33,-145.86 851.07,-148.05 974.26,-132.34"/>
<polygon fill="#63b8ff" stroke="#63b8ff" points="974.69,-135.81 984.16,-131.06 973.8,-128.87 974.69,-135.81"/>
</a>
</g>
</g>
<!-- Node5&#45;&gt;Node23 -->
<g id="edge30_Node000005_Node000023" class="edge">
<title>Node5&#45;&gt;Node23</title>
<g id="a_edge30_Node000005_Node000023"><a xlink:title=" ">
<path fill="none" stroke="#63b8ff" d="M689.19,-169.67C692.15,-169.05 695.13,-168.47 698,-168 877.04,-138.63 926.94,-151.27 1110.16,-132.25"/>
<polygon fill="#63b8ff" stroke="#63b8ff" points="1110.48,-135.74 1120.05,-131.21 1109.74,-128.78 1110.48,-135.74"/>
</a>
</g>
</g>
<!-- Node5&#45;&gt;Node24 -->
<g id="edge33_Node000005_Node000024" class="edge">
<title>Node5&#45;&gt;Node24</title>
<g id="a_edge33_Node000005_Node000024"><a xlink:title=" ">
<path fill="none" stroke="#63b8ff" d="M689.18,-169.61C692.14,-168.99 695.12,-168.44 698,-168 938.65,-131.21 1004.96,-155.03 1250.49,-132.17"/>
<polygon fill="#63b8ff" stroke="#63b8ff" points="1250.81,-135.65 1260.44,-131.22 1250.15,-128.69 1250.81,-135.65"/>
</a>
</g>
</g>
<!-- Node9&#45;&gt;Node3 -->
<g id="edge13_Node000009_Node000003" class="edge">
<title>Node9&#45;&gt;Node3</title>
<g id="a_edge13_Node000009_Node000003"><a xlink:title=" ">
<path fill="none" stroke="#63b8ff" d="M182.95,-111.57C150.33,-103.37 101.83,-90.9 51.1,-76.51"/>
<polygon fill="#63b8ff" stroke="#63b8ff" points="52.28,-73.21 41.7,-73.83 50.36,-79.94 52.28,-73.21"/>
</a>
</g>
</g>
<!-- Node10 -->
<g id="Node000010" class="node">
<title>Node10</title>
<g id="a_Node000010"><a xlink:title=" ">
<polygon fill="#e0e0e0" stroke="#999999" points="106.12,-76 57.88,-76 57.88,-56 106.12,-56 106.12,-76"/>
<text text-anchor="middle" x="82" y="-62.5" font-family="Helvetica,sans-Serif" font-size="10.00">cstddef</text>
</a>
</g>
</g>
<!-- Node9&#45;&gt;Node10 -->
<g id="edge9_Node000009_Node000010" class="edge">
<title>Node9&#45;&gt;Node10</title>
<g id="a_edge9_Node000009_Node000010"><a xlink:title=" ">
<path fill="none" stroke="#63b8ff" d="M196.79,-111.59C174.7,-103.01 141.8,-90.23 116.88,-80.55"/>
<polygon fill="#63b8ff" stroke="#63b8ff" points="118.4,-77.39 107.81,-77.03 115.87,-83.91 118.4,-77.39"/>
</a>
</g>
</g>
<!-- Node11 -->
<g id="Node000011" class="node">
<title>Node11</title>
<g id="a_Node000011"><a xlink:title=" ">
<polygon fill="#e0e0e0" stroke="#999999" points="177.75,-76 124.25,-76 124.25,-56 177.75,-56 177.75,-76"/>
<text text-anchor="middle" x="151" y="-62.5" font-family="Helvetica,sans-Serif" font-size="10.00">iostream</text>
</a>
</g>
</g>
<!-- Node9&#45;&gt;Node11 -->
<g id="edge10_Node000009_Node000011" class="edge">
<title>Node9&#45;&gt;Node11</title>
<g id="a_edge10_Node000009_Node000011"><a xlink:title=" ">
<path fill="none" stroke="#63b8ff" d="M208.81,-111.59C198.67,-103.77 184.01,-92.46 171.99,-83.19"/>
<polygon fill="#63b8ff" stroke="#63b8ff" points="174.31,-80.56 164.25,-77.22 170.03,-86.1 174.31,-80.56"/>
</a>
</g>
</g>
<!-- Node12 -->
<g id="Node000012" class="node">
<title>Node12</title>
<g id="a_Node000012"><a xlink:title=" ">
<polygon fill="#e0e0e0" stroke="#999999" points="245.88,-76 196.12,-76 196.12,-56 245.88,-56 245.88,-76"/>
<text text-anchor="middle" x="221" y="-62.5" font-family="Helvetica,sans-Serif" font-size="10.00">optional</text>
</a>
</g>
</g>
<!-- Node9&#45;&gt;Node12 -->
<g id="edge11_Node000009_Node000012" class="edge">
<title>Node9&#45;&gt;Node12</title>
<g id="a_edge11_Node000009_Node000012"><a xlink:title=" ">
<path fill="none" stroke="#63b8ff" d="M221,-111.59C221,-105.01 221,-95.96 221,-87.73"/>
<polygon fill="#63b8ff" stroke="#63b8ff" points="224.5,-87.81 221,-77.81 217.5,-87.81 224.5,-87.81"/>
</a>
</g>
</g>
<!-- Node13 -->
<g id="Node000013" class="node">
<title>Node13</title>
<g id="a_Node000013"><a xlink:title=" ">
<polygon fill="#e0e0e0" stroke="#999999" points="345.5,-20 284.5,-20 284.5,0 345.5,0 345.5,-20"/>
<text text-anchor="middle" x="315" y="-6.5" font-family="Helvetica,sans-Serif" font-size="10.00">pqxx/pqxx</text>
</a>
</g>
</g>
<!-- Node9&#45;&gt;Node13 -->
<g id="edge12_Node000009_Node000013" class="edge">
<title>Node9&#45;&gt;Node13</title>
<g id="a_edge12_Node000009_Node000013"><a xlink:title=" ">
<path fill="none" stroke="#63b8ff" d="M229.01,-111.62C244.62,-93.36 279.34,-52.73 299.56,-29.07"/>
<polygon fill="#63b8ff" stroke="#63b8ff" points="302.19,-31.38 306.02,-21.51 296.87,-26.83 302.19,-31.38"/>
</a>
</g>
</g>
<!-- Node14 -->
<g id="Node000014" class="node">
<title>Node14</title>
<g id="a_Node000014"><a xlink:title=" ">
<polygon fill="#e0e0e0" stroke="#999999" points="488,-76 430,-76 430,-56 488,-56 488,-76"/>
<text text-anchor="middle" x="459" y="-62.5" font-family="Helvetica,sans-Serif" font-size="10.00">typeindex</text>
</a>
</g>
</g>
<!-- Node9&#45;&gt;Node14 -->
<g id="edge14_Node000009_Node000014" class="edge">
<title>Node9&#45;&gt;Node14</title>
<g id="a_edge14_Node000009_Node000014"><a xlink:title=" ">
<path fill="none" stroke="#63b8ff" d="M259.74,-112.42C297.77,-103.96 357.72,-90.56 418.58,-76.54"/>
<polygon fill="#63b8ff" stroke="#63b8ff" points="419.12,-80.01 428.07,-74.35 417.54,-73.19 419.12,-80.01"/>
</a>
</g>
</g>
<!-- Node9&#45;&gt;Node15 -->
<g id="edge15_Node000009_Node000015" class="edge">
<title>Node9&#45;&gt;Node15</title>
<g id="a_edge15_Node000009_Node000015"><a xlink:title=" ">
<path fill="none" stroke="#63b8ff" d="M259.61,-114.26C264.12,-113.49 268.66,-112.72 273,-112 368.96,-95.99 396.69,-97.93 495.03,-76.2"/>
<polygon fill="#63b8ff" stroke="#63b8ff" points="495.6,-79.66 504.59,-74.06 494.07,-72.83 495.6,-79.66"/>
</a>
</g>
</g>
<!-- Node16 -->
<g id="Node000016" class="node">
<title>Node16</title>
<g id="a_Node000016"><a xlink:href="RowDTOAdapter_8hpp.html" target="_top" xlink:title=" ">
<polygon fill="white" stroke="#666666" points="411.88,-76 302.12,-76 302.12,-56 411.88,-56 411.88,-76"/>
<text text-anchor="middle" x="357" y="-62.5" font-family="Helvetica,sans-Serif" font-size="10.00">RowDTOAdapter.hpp</text>
</a>
</g>
</g>
<!-- Node9&#45;&gt;Node16 -->
<g id="edge16_Node000009_Node000016" class="edge">
<title>Node9&#45;&gt;Node16</title>
<g id="a_edge16_Node000009_Node000016"><a xlink:title=" ">
<path fill="none" stroke="#63b8ff" d="M244.69,-111.59C266.2,-103.05 298.2,-90.35 322.54,-80.68"/>
<polygon fill="#63b8ff" stroke="#63b8ff" points="323.72,-83.98 331.72,-77.04 321.13,-77.48 323.72,-83.98"/>
</a>
</g>
</g>
<!-- Node16&#45;&gt;Node13 -->
<g id="edge17_Node000016_Node000013" class="edge">
<title>Node16&#45;&gt;Node13</title>
<g id="a_edge17_Node000016_Node000013"><a xlink:title=" ">
<path fill="none" stroke="#63b8ff" d="M349.68,-55.59C344.02,-48.32 336.01,-38.02 329.11,-29.15"/>
<polygon fill="#63b8ff" stroke="#63b8ff" points="332.06,-27.24 323.16,-21.49 326.54,-31.54 332.06,-27.24"/>
</a>
</g>
</g>
<!-- Node18 -->
<g id="Node000018" class="node">
<title>Node18</title>
<g id="a_Node000018"><a xlink:title=" ">
<polygon fill="#e0e0e0" stroke="#999999" points="1032.12,-76 959.88,-76 959.88,-56 1032.12,-56 1032.12,-76"/>
<text text-anchor="middle" x="996" y="-62.5" font-family="Helvetica,sans-Serif" font-size="10.00">dpp/cluster.h</text>
</a>
</g>
</g>
<!-- Node17&#45;&gt;Node18 -->
<g id="edge19_Node000017_Node000018" class="edge">
<title>Node17&#45;&gt;Node18</title>
<g id="a_edge19_Node000017_Node000018"><a xlink:title=" ">
<path fill="none" stroke="#63b8ff" d="M426.99,-113.04C430.04,-112.67 433.06,-112.32 436,-112 625.18,-91.32 851.28,-76.02 948.14,-69.92"/>
<polygon fill="#63b8ff" stroke="#63b8ff" points="948.3,-73.41 958.06,-69.3 947.86,-66.43 948.3,-73.41"/>
</a>
</g>
</g>
<!-- Node19 -->
<g id="Node000019" class="node">
<title>Node19</title>
<g id="a_Node000019"><a xlink:title=" ">
<polygon fill="#e0e0e0" stroke="#999999" points="1138,-76 1050,-76 1050,-56 1138,-56 1138,-76"/>
<text text-anchor="middle" x="1094" y="-62.5" font-family="Helvetica,sans-Serif" font-size="10.00">dpp/dispatcher.h</text>
</a>
</g>
</g>
<!-- Node17&#45;&gt;Node19 -->
<g id="edge20_Node000017_Node000019" class="edge">
<title>Node17&#45;&gt;Node19</title>
<g id="a_edge20_Node000017_Node000019"><a xlink:title=" ">
<path fill="none" stroke="#63b8ff" d="M426.99,-112.97C430.03,-112.62 433.05,-112.29 436,-112 700.39,-85.87 771.45,-106.03 1038.31,-76.18"/>
<polygon fill="#63b8ff" stroke="#63b8ff" points="1038.47,-79.69 1048.01,-75.09 1037.68,-72.73 1038.47,-79.69"/>
</a>
</g>
</g>
<!-- Node20&#45;&gt;Node18 -->
<g id="edge22_Node000020_Node000018" class="edge">
<title>Node20&#45;&gt;Node18</title>
<g id="a_edge22_Node000020_Node000018"><a xlink:title=" ">
<path fill="none" stroke="#63b8ff" d="M803.03,-111.53C843.7,-102.15 905.94,-87.78 948.68,-77.92"/>
<polygon fill="#63b8ff" stroke="#63b8ff" points="949.21,-81.39 958.16,-75.73 947.63,-74.57 949.21,-81.39"/>
</a>
</g>
</g>
<!-- Node20&#45;&gt;Node19 -->
<g id="edge23_Node000020_Node000019" class="edge">
<title>Node20&#45;&gt;Node19</title>
<g id="a_edge23_Node000020_Node000019"><a xlink:title=" ">
<path fill="none" stroke="#63b8ff" d="M814.99,-112.59C868.71,-104.03 954.57,-90.27 1038.47,-76.41"/>
<polygon fill="#63b8ff" stroke="#63b8ff" points="1038.97,-79.87 1048.26,-74.79 1037.83,-72.97 1038.97,-79.87"/>
</a>
</g>
</g>
<!-- Node21&#45;&gt;Node18 -->
<g id="edge25_Node000021_Node000018" class="edge">
<title>Node21&#45;&gt;Node18</title>
<g id="a_edge25_Node000021_Node000018"><a xlink:title=" ">
<path fill="none" stroke="#63b8ff" d="M916.72,-111.59C931.22,-103.44 952.47,-91.48 969.32,-82"/>
<polygon fill="#63b8ff" stroke="#63b8ff" points="970.83,-85.17 977.83,-77.22 967.4,-79.07 970.83,-85.17"/>
</a>
</g>
</g>
<!-- Node21&#45;&gt;Node19 -->
<g id="edge26_Node000021_Node000019" class="edge">
<title>Node21&#45;&gt;Node19</title>
<g id="a_edge26_Node000021_Node000019"><a xlink:title=" ">
<path fill="none" stroke="#63b8ff" d="M933.79,-111.59C965.73,-102.71 1013.85,-89.31 1049.02,-79.52"/>
<polygon fill="#63b8ff" stroke="#63b8ff" points="1049.79,-82.94 1058.49,-76.89 1047.91,-76.2 1049.79,-82.94"/>
</a>
</g>
</g>
<!-- Node22&#45;&gt;Node18 -->
<g id="edge28_Node000022_Node000018" class="edge">
<title>Node22&#45;&gt;Node18</title>
<g id="a_edge28_Node000022_Node000018"><a xlink:title=" ">
<path fill="none" stroke="#63b8ff" d="M1036.46,-111.59C1029.72,-104.16 1020.11,-93.58 1011.96,-84.58"/>
<polygon fill="#63b8ff" stroke="#63b8ff" points="1014.77,-82.47 1005.45,-77.42 1009.58,-87.18 1014.77,-82.47"/>
</a>
</g>
</g>
<!-- Node22&#45;&gt;Node19 -->
<g id="edge29_Node000022_Node000019" class="edge">
<title>Node22&#45;&gt;Node19</title>
<g id="a_edge29_Node000022_Node000019"><a xlink:title=" ">
<path fill="none" stroke="#63b8ff" d="M1053.54,-111.59C1060.28,-104.16 1069.89,-93.58 1078.04,-84.58"/>
<polygon fill="#63b8ff" stroke="#63b8ff" points="1080.42,-87.18 1084.55,-77.42 1075.23,-82.47 1080.42,-87.18"/>
</a>
</g>
</g>
<!-- Node23&#45;&gt;Node18 -->
<g id="edge31_Node000023_Node000018" class="edge">
<title>Node23&#45;&gt;Node18</title>
<g id="a_edge31_Node000023_Node000018"><a xlink:title=" ">
<path fill="none" stroke="#63b8ff" d="M1150.43,-111.59C1119.78,-102.74 1073.66,-89.43 1039.8,-79.65"/>
<polygon fill="#63b8ff" stroke="#63b8ff" points="1040.86,-76.31 1030.28,-76.9 1038.92,-83.04 1040.86,-76.31"/>
</a>
</g>
</g>
<!-- Node23&#45;&gt;Node19 -->
<g id="edge32_Node000023_Node000019" class="edge">
<title>Node23&#45;&gt;Node19</title>
<g id="a_edge32_Node000023_Node000019"><a xlink:title=" ">
<path fill="none" stroke="#63b8ff" d="M1167.5,-111.59C1154.18,-103.51 1134.72,-91.71 1119.17,-82.27"/>
<polygon fill="#63b8ff" stroke="#63b8ff" points="1121.28,-79.46 1110.92,-77.26 1117.65,-85.44 1121.28,-79.46"/>
</a>
</g>
</g>
<!-- Node24&#45;&gt;Node18 -->
<g id="edge34_Node000024_Node000018" class="edge">
<title>Node24&#45;&gt;Node18</title>
<g id="a_edge34_Node000024_Node000018"><a xlink:title=" ">
<path fill="none" stroke="#63b8ff" d="M1261.82,-111.94C1207.08,-103.68 1124.36,-90.8 1043.24,-76.35"/>
<polygon fill="#63b8ff" stroke="#63b8ff" points="1044.28,-72.98 1033.82,-74.66 1043.04,-79.87 1044.28,-72.98"/>
</a>
</g>
</g>
<!-- Node24&#45;&gt;Node19 -->
<g id="edge35_Node000024_Node000019" class="edge">
<title>Node24&#45;&gt;Node19</title>
<g id="a_edge35_Node000024_Node000019"><a xlink:title=" ">
<path fill="none" stroke="#63b8ff" d="M1282.85,-111.53C1244.54,-102.5 1186.68,-88.85 1145.1,-79.05"/>
<polygon fill="#63b8ff" stroke="#63b8ff" points="1146.11,-75.69 1135.58,-76.8 1144.51,-82.51 1146.11,-75.69"/>
</a>
</g>
</g>
<!-- Node25&#45;&gt;Node18 -->
<g id="edge43_Node000025_Node000018" class="edge">
<title>Node25&#45;&gt;Node18</title>
<g id="a_edge43_Node000025_Node000018"><a xlink:title=" ">
<path fill="none" stroke="#63b8ff" d="M1402.05,-113.58C1399,-113 1395.95,-112.46 1393,-112 1241.3,-88.06 1198.49,-98.91 1043.64,-76.26"/>
<polygon fill="#63b8ff" stroke="#63b8ff" points="1044.2,-72.8 1033.79,-74.79 1043.17,-79.73 1044.2,-72.8"/>
</a>
</g>
</g>
<!-- Node25&#45;&gt;Node19 -->
<g id="edge44_Node000025_Node000019" class="edge">
<title>Node25&#45;&gt;Node19</title>
<g id="a_edge44_Node000025_Node000019"><a xlink:title=" ">
<path fill="none" stroke="#63b8ff" d="M1402.02,-113.73C1398.98,-113.12 1395.93,-112.53 1393,-112 1308.46,-96.6 1209.78,-82.49 1149.61,-74.32"/>
<polygon fill="#63b8ff" stroke="#63b8ff" points="1150.35,-70.89 1139.97,-73.02 1149.41,-77.83 1150.35,-70.89"/>
</a>
</g>
</g>
<!-- Node28&#45;&gt;Node4 -->
<g id="edge50_Node000028_Node000004" class="edge">
<title>Node28&#45;&gt;Node4</title>
<g id="a_edge50_Node000028_Node000004"><a xlink:title=" ">
<path fill="none" stroke="#63b8ff" d="M462.98,-282.05C529.35,-271.32 655.61,-250.91 717.69,-240.87"/>
<polygon fill="#63b8ff" stroke="#63b8ff" points="718.05,-244.36 727.36,-239.31 716.93,-237.45 718.05,-244.36"/>
</a>
</g>
</g>
</g>
</svg>
