<?xml version="1.0" encoding="UTF-8" standalone="no"?>
<!DOCTYPE svg PUBLIC "-//W3C//DTD SVG 1.1//EN"
 "http://www.w3.org/Graphics/SVG/1.1/DTD/svg11.dtd">
<!-- Generated by graphviz version 9.0.0 (0)
 -->
<!-- Title: src/bot_library/BotLibrary.cpp Pages: 1 -->
<svg width="1136pt" height="252pt"
 viewBox="0.00 0.00 1135.50 252.00" xmlns="http://www.w3.org/2000/svg" xmlns:xlink="http://www.w3.org/1999/xlink">
<g id="graph0" class="graph" transform="scale(1 1) rotate(0) translate(4 248)">
<title>src/bot_library/BotLibrary.cpp</title>
<!-- Node1 -->
<g id="Node000001" class="node">
<title>Node1</title>
<g id="a_Node000001"><a xlink:title=" ">
<polygon fill="#999999" stroke="#666666" points="575.38,-244 432.62,-244 432.62,-224 575.38,-224 575.38,-244"/>
<text text-anchor="middle" x="504" y="-230.5" font-family="Helvetica,sans-Serif" font-size="10.00">src/bot_library/BotLibrary.cpp</text>
</a>
</g>
</g>
<!-- Node2 -->
<g id="Node000002" class="node">
<title>Node2</title>
<g id="a_Node000002"><a xlink:href="BotLibrary_8hpp.html" target="_top" xlink:title=" ">
<polygon fill="white" stroke="#666666" points="209.12,-132 130.88,-132 130.88,-112 209.12,-112 209.12,-132"/>
<text text-anchor="middle" x="170" y="-118.5" font-family="Helvetica,sans-Serif" font-size="10.00">BotLibrary.hpp</text>
</a>
</g>
</g>
<!-- Node1&#45;&gt;Node2 -->
<g id="edge1_Node000001_Node000002" class="edge">
<title>Node1&#45;&gt;Node2</title>
<g id="a_edge1_Node000001_Node000002"><a xlink:title=" ">
<path fill="none" stroke="#63b8ff" d="M475.23,-223.53C415.43,-203.83 277.59,-158.43 209.51,-136.01"/>
<polygon fill="#63b8ff" stroke="#63b8ff" points="210.85,-132.77 200.25,-132.96 208.66,-139.42 210.85,-132.77"/>
</a>
</g>
</g>
<!-- Node4 -->
<g id="Node000004" class="node">
<title>Node4</title>
<g id="a_Node000004"><a xlink:href="Bot_8hpp.html" target="_top" xlink:title=" ">
<polygon fill="white" stroke="#666666" points="564.88,-132 515.12,-132 515.12,-112 564.88,-112 564.88,-132"/>
<text text-anchor="middle" x="540" y="-118.5" font-family="Helvetica,sans-Serif" font-size="10.00">Bot.hpp</text>
</a>
</g>
</g>
<!-- Node1&#45;&gt;Node4 -->
<g id="edge3_Node000001_Node000004" class="edge">
<title>Node1&#45;&gt;Node4</title>
<g id="a_edge3_Node000001_Node000004"><a xlink:title=" ">
<path fill="none" stroke="#63b8ff" d="M498.05,-223.81C490.5,-210.89 479.4,-186.81 488,-168 493.38,-156.23 503.52,-146.36 513.43,-138.9"/>
<polygon fill="#63b8ff" stroke="#63b8ff" points="515.22,-141.91 521.45,-133.35 511.24,-136.16 515.22,-141.91"/>
</a>
</g>
</g>
<!-- Node17 -->
<g id="Node000017" class="node">
<title>Node17</title>
<g id="a_Node000017"><a xlink:href="Commands_8hpp.html" target="_top" xlink:title=" ">
<polygon fill="white" stroke="#666666" points="582.5,-188 497.5,-188 497.5,-168 582.5,-168 582.5,-188"/>
<text text-anchor="middle" x="540" y="-174.5" font-family="Helvetica,sans-Serif" font-size="10.00">Commands.hpp</text>
</a>
</g>
</g>
<!-- Node1&#45;&gt;Node17 -->
<g id="edge29_Node000001_Node000017" class="edge">
<title>Node1&#45;&gt;Node17</title>
<g id="a_edge29_Node000001_Node000017"><a xlink:title=" ">
<path fill="none" stroke="#63b8ff" d="M510.27,-223.59C515.02,-216.47 521.7,-206.45 527.52,-197.72"/>
<polygon fill="#63b8ff" stroke="#63b8ff" points="530.33,-199.82 532.96,-189.56 524.5,-195.94 530.33,-199.82"/>
</a>
</g>
</g>
<!-- Node18 -->
<g id="Node000018" class="node">
<title>Node18</title>
<g id="a_Node000018"><a xlink:title=" ">
<polygon fill="#e0e0e0" stroke="#999999" points="649.5,-188 600.5,-188 600.5,-168 649.5,-168 649.5,-188"/>
<text text-anchor="middle" x="625" y="-174.5" font-family="Helvetica,sans-Serif" font-size="10.00">fstream</text>
</a>
</g>
</g>
<!-- Node1&#45;&gt;Node18 -->
<g id="edge31_Node000001_Node000018" class="edge">
<title>Node1&#45;&gt;Node18</title>
<g id="a_edge31_Node000001_Node000018"><a xlink:title=" ">
<path fill="none" stroke="#63b8ff" d="M525.08,-223.59C543.96,-215.17 571.92,-202.69 593.46,-193.07"/>
<polygon fill="#63b8ff" stroke="#63b8ff" points="594.67,-196.37 602.38,-189.1 591.82,-189.98 594.67,-196.37"/>
</a>
</g>
</g>
<!-- Node3 -->
<g id="Node000003" class="node">
<title>Node3</title>
<g id="a_Node000003"><a xlink:title=" ">
<polygon fill="#e0e0e0" stroke="#999999" points="40,-76 0,-76 0,-56 40,-56 40,-76"/>
<text text-anchor="middle" x="20" y="-62.5" font-family="Helvetica,sans-Serif" font-size="10.00">string</text>
</a>
</g>
</g>
<!-- Node2&#45;&gt;Node3 -->
<g id="edge2_Node000002_Node000003" class="edge">
<title>Node2&#45;&gt;Node3</title>
<g id="a_edge2_Node000002_Node000003"><a xlink:title=" ">
<path fill="none" stroke="#63b8ff" d="M143.87,-111.59C117.9,-102.25 78.09,-87.91 50.65,-78.03"/>
<polygon fill="#63b8ff" stroke="#63b8ff" points="52.09,-74.83 41.5,-74.74 49.72,-81.42 52.09,-74.83"/>
</a>
</g>
</g>
<!-- Node4&#45;&gt;Node3 -->
<g id="edge6_Node000004_Node000003" class="edge">
<title>Node4&#45;&gt;Node3</title>
<g id="a_edge6_Node000004_Node000003"><a xlink:title=" ">
<path fill="none" stroke="#63b8ff" d="M514.7,-120.54C443.19,-118.87 233.52,-111.27 51.57,-76.12"/>
<polygon fill="#63b8ff" stroke="#63b8ff" points="52.43,-72.72 41.94,-74.22 51.08,-79.59 52.43,-72.72"/>
</a>
</g>
</g>
<!-- Node5 -->
<g id="Node000005" class="node">
<title>Node5</title>
<g id="a_Node000005"><a xlink:title=" ">
<polygon fill="#e0e0e0" stroke="#999999" points="997.38,-76 962.62,-76 962.62,-56 997.38,-56 997.38,-76"/>
<text text-anchor="middle" x="980" y="-62.5" font-family="Helvetica,sans-Serif" font-size="10.00">map</text>
</a>
</g>
</g>
<!-- Node4&#45;&gt;Node5 -->
<g id="edge4_Node000004_Node000005" class="edge">
<title>Node4&#45;&gt;Node5</title>
<g id="a_edge4_Node000004_Node000005"><a xlink:title=" ">
<path fill="none" stroke="#63b8ff" d="M565.05,-120.24C628.51,-117.89 800.7,-108.96 951.44,-76.14"/>
<polygon fill="#63b8ff" stroke="#63b8ff" points="951.77,-79.65 960.77,-74.06 950.25,-72.82 951.77,-79.65"/>
</a>
</g>
</g>
<!-- Node6 -->
<g id="Node000006" class="node">
<title>Node6</title>
<g id="a_Node000006"><a xlink:title=" ">
<polygon fill="#e0e0e0" stroke="#999999" points="1066.62,-76 1015.38,-76 1015.38,-56 1066.62,-56 1066.62,-76"/>
<text text-anchor="middle" x="1041" y="-62.5" font-family="Helvetica,sans-Serif" font-size="10.00">memory</text>
</a>
</g>
</g>
<!-- Node4&#45;&gt;Node6 -->
<g id="edge5_Node000004_Node000006" class="edge">
<title>Node4&#45;&gt;Node6</title>
<g id="a_edge5_Node000004_Node000006"><a xlink:title=" ">
<path fill="none" stroke="#63b8ff" d="M565.19,-119.95C633.96,-116.78 830.79,-105.78 1003.99,-76.07"/>
<polygon fill="#63b8ff" stroke="#63b8ff" points="1004.36,-79.56 1013.61,-74.4 1003.16,-72.67 1004.36,-79.56"/>
</a>
</g>
</g>
<!-- Node7 -->
<g id="Node000007" class="node">
<title>Node7</title>
<g id="a_Node000007"><a xlink:title=" ">
<polygon fill="#e0e0e0" stroke="#999999" points="1127.5,-76 1084.5,-76 1084.5,-56 1127.5,-56 1127.5,-76"/>
<text text-anchor="middle" x="1106" y="-62.5" font-family="Helvetica,sans-Serif" font-size="10.00">vector</text>
</a>
</g>
</g>
<!-- Node4&#45;&gt;Node7 -->
<g id="edge7_Node000004_Node000007" class="edge">
<title>Node4&#45;&gt;Node7</title>
<g id="a_edge7_Node000004_Node000007"><a xlink:title=" ">
<path fill="none" stroke="#63b8ff" d="M565.37,-120.73C641.25,-119.54 873.14,-113.08 1072.88,-76.24"/>
<polygon fill="#63b8ff" stroke="#63b8ff" points="1073.51,-79.69 1082.69,-74.4 1072.21,-72.81 1073.51,-79.69"/>
</a>
</g>
</g>
<!-- Node8 -->
<g id="Node000008" class="node">
<title>Node8</title>
<g id="a_Node000008"><a xlink:href="IButtonCommand_8hpp.html" target="_top" xlink:title=" ">
<polygon fill="white" stroke="#666666" points="532.62,-76 421.38,-76 421.38,-56 532.62,-56 532.62,-76"/>
<text text-anchor="middle" x="477" y="-62.5" font-family="Helvetica,sans-Serif" font-size="10.00">IButtonCommand.hpp</text>
</a>
</g>
</g>
<!-- Node4&#45;&gt;Node8 -->
<g id="edge8_Node000004_Node000008" class="edge">
<title>Node4&#45;&gt;Node8</title>
<g id="a_edge8_Node000004_Node000008"><a xlink:title=" ">
<path fill="none" stroke="#63b8ff" d="M529.03,-111.59C520.08,-103.93 507.23,-92.91 496.54,-83.75"/>
<polygon fill="#63b8ff" stroke="#63b8ff" points="498.87,-81.13 489,-77.28 494.31,-86.45 498.87,-81.13"/>
</a>
</g>
</g>
<!-- Node11 -->
<g id="Node000011" class="node">
<title>Node11</title>
<g id="a_Node000011"><a xlink:href="IFormCommand_8hpp.html" target="_top" xlink:title=" ">
<polygon fill="white" stroke="#666666" points="655.62,-76 550.38,-76 550.38,-56 655.62,-56 655.62,-76"/>
<text text-anchor="middle" x="603" y="-62.5" font-family="Helvetica,sans-Serif" font-size="10.00">IFormCommand.hpp</text>
</a>
</g>
</g>
<!-- Node4&#45;&gt;Node11 -->
<g id="edge11_Node000004_Node000011" class="edge">
<title>Node4&#45;&gt;Node11</title>
<g id="a_edge11_Node000004_Node000011"><a xlink:title=" ">
<path fill="none" stroke="#63b8ff" d="M550.97,-111.59C559.92,-103.93 572.77,-92.91 583.46,-83.75"/>
<polygon fill="#63b8ff" stroke="#63b8ff" points="585.69,-86.45 591,-77.28 581.13,-81.13 585.69,-86.45"/>
</a>
</g>
</g>
<!-- Node12 -->
<g id="Node000012" class="node">
<title>Node12</title>
<g id="a_Node000012"><a xlink:href="IGlobalSlashCommand_8hpp.html" target="_top" xlink:title=" ">
<polygon fill="white" stroke="#666666" points="808.62,-76 673.38,-76 673.38,-56 808.62,-56 808.62,-76"/>
<text text-anchor="middle" x="741" y="-62.5" font-family="Helvetica,sans-Serif" font-size="10.00">IGlobalSlashCommand.hpp</text>
</a>
</g>
</g>
<!-- Node4&#45;&gt;Node12 -->
<g id="edge14_Node000004_Node000012" class="edge">
<title>Node4&#45;&gt;Node12</title>
<g id="a_edge14_Node000004_Node000012"><a xlink:title=" ">
<path fill="none" stroke="#63b8ff" d="M565.05,-114.27C597.47,-105.56 654.57,-90.22 694.91,-79.38"/>
<polygon fill="#63b8ff" stroke="#63b8ff" points="695.6,-82.82 704.35,-76.85 693.79,-76.06 695.6,-82.82"/>
</a>
</g>
</g>
<!-- Node13 -->
<g id="Node000013" class="node">
<title>Node13</title>
<g id="a_Node000013"><a xlink:href="IMemberCommand_8hpp.html" target="_top" xlink:title=" ">
<polygon fill="white" stroke="#666666" points="945,-76 827,-76 827,-56 945,-56 945,-76"/>
<text text-anchor="middle" x="886" y="-62.5" font-family="Helvetica,sans-Serif" font-size="10.00">IMemberCommand.hpp</text>
</a>
</g>
</g>
<!-- Node4&#45;&gt;Node13 -->
<g id="edge17_Node000004_Node000013" class="edge">
<title>Node4&#45;&gt;Node13</title>
<g id="a_edge17_Node000004_Node000013"><a xlink:title=" ">
<path fill="none" stroke="#63b8ff" d="M565.16,-117.07C617.11,-108.97 737.86,-90.12 815.51,-78"/>
<polygon fill="#63b8ff" stroke="#63b8ff" points="815.81,-81.5 825.15,-76.5 814.73,-74.58 815.81,-81.5"/>
</a>
</g>
</g>
<!-- Node14 -->
<g id="Node000014" class="node">
<title>Node14</title>
<g id="a_Node000014"><a xlink:href="IMessageCommand_8hpp.html" target="_top" xlink:title=" ">
<polygon fill="white" stroke="#666666" points="180.25,-76 57.75,-76 57.75,-56 180.25,-56 180.25,-76"/>
<text text-anchor="middle" x="119" y="-62.5" font-family="Helvetica,sans-Serif" font-size="10.00">IMessageCommand.hpp</text>
</a>
</g>
</g>
<!-- Node4&#45;&gt;Node14 -->
<g id="edge20_Node000004_Node000014" class="edge">
<title>Node4&#45;&gt;Node14</title>
<g id="a_edge20_Node000004_Node000014"><a xlink:title=" ">
<path fill="none" stroke="#63b8ff" d="M514.89,-117.78C458.91,-110.61 319.38,-92.74 191.6,-76.33"/>
<polygon fill="#63b8ff" stroke="#63b8ff" points="192.33,-72.9 181.96,-75.1 191.43,-79.84 192.33,-72.9"/>
</a>
</g>
</g>
<!-- Node15 -->
<g id="Node000015" class="node">
<title>Node15</title>
<g id="a_Node000015"><a xlink:href="IReactionCommand_8hpp.html" target="_top" xlink:title=" ">
<polygon fill="white" stroke="#666666" points="319.88,-76 198.12,-76 198.12,-56 319.88,-56 319.88,-76"/>
<text text-anchor="middle" x="259" y="-62.5" font-family="Helvetica,sans-Serif" font-size="10.00">IReactionCommand.hpp</text>
</a>
</g>
</g>
<!-- Node4&#45;&gt;Node15 -->
<g id="edge23_Node000004_Node000015" class="edge">
<title>Node4&#45;&gt;Node15</title>
<g id="a_edge23_Node000004_Node000015"><a xlink:title=" ">
<path fill="none" stroke="#63b8ff" d="M515.06,-116.21C471.5,-107.84 380.39,-90.33 319.44,-78.61"/>
<polygon fill="#63b8ff" stroke="#63b8ff" points="320.4,-75.23 309.91,-76.78 319.07,-82.11 320.4,-75.23"/>
</a>
</g>
</g>
<!-- Node16 -->
<g id="Node000016" class="node">
<title>Node16</title>
<g id="a_Node000016"><a xlink:href="IReady_8hpp.html" target="_top" xlink:title=" ">
<polygon fill="white" stroke="#666666" points="403.75,-76 338.25,-76 338.25,-56 403.75,-56 403.75,-76"/>
<text text-anchor="middle" x="371" y="-62.5" font-family="Helvetica,sans-Serif" font-size="10.00">IReady.hpp</text>
</a>
</g>
</g>
<!-- Node4&#45;&gt;Node16 -->
<g id="edge26_Node000004_Node000016" class="edge">
<title>Node4&#45;&gt;Node16</title>
<g id="a_edge26_Node000004_Node000016"><a xlink:title=" ">
<path fill="none" stroke="#63b8ff" d="M514.7,-112.92C487.35,-104.18 443.38,-90.13 411.27,-79.87"/>
<polygon fill="#63b8ff" stroke="#63b8ff" points="412.49,-76.58 401.9,-76.87 410.36,-83.25 412.49,-76.58"/>
</a>
</g>
</g>
<!-- Node9 -->
<g id="Node000009" class="node">
<title>Node9</title>
<g id="a_Node000009"><a xlink:title=" ">
<polygon fill="#e0e0e0" stroke="#999999" points="464.12,-20 391.88,-20 391.88,0 464.12,0 464.12,-20"/>
<text text-anchor="middle" x="428" y="-6.5" font-family="Helvetica,sans-Serif" font-size="10.00">dpp/cluster.h</text>
</a>
</g>
</g>
<!-- Node8&#45;&gt;Node9 -->
<g id="edge9_Node000008_Node000009" class="edge">
<title>Node8&#45;&gt;Node9</title>
<g id="a_edge9_Node000008_Node000009"><a xlink:title=" ">
<path fill="none" stroke="#63b8ff" d="M468.46,-55.59C461.72,-48.16 452.11,-37.58 443.96,-28.58"/>
<polygon fill="#63b8ff" stroke="#63b8ff" points="446.77,-26.47 437.45,-21.42 441.58,-31.18 446.77,-26.47"/>
</a>
</g>
</g>
<!-- Node10 -->
<g id="Node000010" class="node">
<title>Node10</title>
<g id="a_Node000010"><a xlink:title=" ">
<polygon fill="#e0e0e0" stroke="#999999" points="570,-20 482,-20 482,0 570,0 570,-20"/>
<text text-anchor="middle" x="526" y="-6.5" font-family="Helvetica,sans-Serif" font-size="10.00">dpp/dispatcher.h</text>
</a>
</g>
</g>
<!-- Node8&#45;&gt;Node10 -->
<g id="edge10_Node000008_Node000010" class="edge">
<title>Node8&#45;&gt;Node10</title>
<g id="a_edge10_Node000008_Node000010"><a xlink:title=" ">
<path fill="none" stroke="#63b8ff" d="M485.54,-55.59C492.28,-48.16 501.89,-37.58 510.04,-28.58"/>
<polygon fill="#63b8ff" stroke="#63b8ff" points="512.42,-31.18 516.55,-21.42 507.23,-26.47 512.42,-31.18"/>
</a>
</g>
</g>
<!-- Node11&#45;&gt;Node9 -->
<g id="edge12_Node000011_Node000009" class="edge">
<title>Node11&#45;&gt;Node9</title>
<g id="a_edge12_Node000011_Node000009"><a xlink:title=" ">
<path fill="none" stroke="#63b8ff" d="M572.52,-55.59C543.96,-46.78 501.05,-33.54 469.4,-23.78"/>
<polygon fill="#63b8ff" stroke="#63b8ff" points="470.75,-20.53 460.17,-20.93 468.69,-27.22 470.75,-20.53"/>
</a>
</g>
</g>
<!-- Node11&#45;&gt;Node10 -->
<g id="edge13_Node000011_Node000010" class="edge">
<title>Node11&#45;&gt;Node10</title>
<g id="a_edge13_Node000011_Node000010"><a xlink:title=" ">
<path fill="none" stroke="#63b8ff" d="M589.59,-55.59C578.39,-47.74 562.19,-36.38 548.94,-27.09"/>
<polygon fill="#63b8ff" stroke="#63b8ff" points="550.95,-24.22 540.76,-21.35 546.93,-29.96 550.95,-24.22"/>
</a>
</g>
</g>
<!-- Node12&#45;&gt;Node9 -->
<g id="edge15_Node000012_Node000009" class="edge">
<title>Node12&#45;&gt;Node9</title>
<g id="a_edge15_Node000012_Node000009"><a xlink:title=" ">
<path fill="none" stroke="#63b8ff" d="M681.3,-55.52C629.47,-47.17 552.13,-34.41 475.61,-20.44"/>
<polygon fill="#63b8ff" stroke="#63b8ff" points="476.29,-17 465.82,-18.64 475.02,-23.89 476.29,-17"/>
</a>
</g>
</g>
<!-- Node12&#45;&gt;Node10 -->
<g id="edge16_Node000012_Node000010" class="edge">
<title>Node12&#45;&gt;Node10</title>
<g id="a_edge16_Node000012_Node000010"><a xlink:title=" ">
<path fill="none" stroke="#63b8ff" d="M703.55,-55.59C667.85,-46.63 613.9,-33.08 574.84,-23.27"/>
<polygon fill="#63b8ff" stroke="#63b8ff" points="575.76,-19.89 565.21,-20.85 574.06,-26.68 575.76,-19.89"/>
</a>
</g>
</g>
<!-- Node13&#45;&gt;Node9 -->
<g id="edge18_Node000013_Node000009" class="edge">
<title>Node13&#45;&gt;Node9</title>
<g id="a_edge18_Node000013_Node000009"><a xlink:title=" ">
<path fill="none" stroke="#63b8ff" d="M826.67,-57.05C823.74,-56.69 820.84,-56.34 818,-56 668.49,-38.31 627.33,-42.91 475.43,-20.24"/>
<polygon fill="#63b8ff" stroke="#63b8ff" points="476.2,-16.82 465.79,-18.79 475.16,-23.74 476.2,-16.82"/>
</a>
</g>
</g>
<!-- Node13&#45;&gt;Node10 -->
<g id="edge19_Node000013_Node000010" class="edge">
<title>Node13&#45;&gt;Node10</title>
<g id="a_edge19_Node000013_Node000010"><a xlink:title=" ">
<path fill="none" stroke="#63b8ff" d="M826.55,-56.08C758.5,-45.87 647.89,-29.28 581.52,-19.33"/>
<polygon fill="#63b8ff" stroke="#63b8ff" points="582.37,-15.92 571.96,-17.89 581.33,-22.84 582.37,-15.92"/>
</a>
</g>
</g>
<!-- Node14&#45;&gt;Node9 -->
<g id="edge21_Node000014_Node000009" class="edge">
<title>Node14&#45;&gt;Node9</title>
<g id="a_edge21_Node000014_Node000009"><a xlink:title=" ">
<path fill="none" stroke="#63b8ff" d="M173.18,-55.53C231.96,-45.26 324.87,-29.02 380.78,-19.25"/>
<polygon fill="#63b8ff" stroke="#63b8ff" points="381.04,-22.76 390.29,-17.59 379.84,-15.86 381.04,-22.76"/>
</a>
</g>
</g>
<!-- Node14&#45;&gt;Node10 -->
<g id="edge22_Node000014_Node000010" class="edge">
<title>Node14&#45;&gt;Node10</title>
<g id="a_edge22_Node000014_Node000010"><a xlink:title=" ">
<path fill="none" stroke="#63b8ff" d="M180.46,-57.09C183.35,-56.72 186.2,-56.36 189,-56 311.63,-40.34 345.26,-38.74 470.58,-20.31"/>
<polygon fill="#63b8ff" stroke="#63b8ff" points="470.9,-23.8 480.28,-18.87 469.87,-16.87 470.9,-23.8"/>
</a>
</g>
</g>
<!-- Node15&#45;&gt;Node9 -->
<g id="edge24_Node000015_Node000009" class="edge">
<title>Node15&#45;&gt;Node9</title>
<g id="a_edge24_Node000015_Node000009"><a xlink:title=" ">
<path fill="none" stroke="#63b8ff" d="M288.44,-55.59C315.9,-46.82 357.09,-33.66 387.62,-23.9"/>
<polygon fill="#63b8ff" stroke="#63b8ff" points="388.43,-27.32 396.89,-20.94 386.3,-20.65 388.43,-27.32"/>
</a>
</g>
</g>
<!-- Node15&#45;&gt;Node10 -->
<g id="edge25_Node000015_Node000010" class="edge">
<title>Node15&#45;&gt;Node10</title>
<g id="a_edge25_Node000015_Node000010"><a xlink:title=" ">
<path fill="none" stroke="#63b8ff" d="M305.81,-55.53C351.78,-46.24 421.91,-32.05 470.62,-22.2"/>
<polygon fill="#63b8ff" stroke="#63b8ff" points="471.31,-25.63 480.42,-20.22 469.92,-18.77 471.31,-25.63"/>
</a>
</g>
</g>
<!-- Node16&#45;&gt;Node9 -->
<g id="edge27_Node000016_Node000009" class="edge">
<title>Node16&#45;&gt;Node9</title>
<g id="a_edge27_Node000016_Node000009"><a xlink:title=" ">
<path fill="none" stroke="#63b8ff" d="M380.93,-55.59C388.94,-48.01 400.42,-37.13 410.03,-28.02"/>
<polygon fill="#63b8ff" stroke="#63b8ff" points="412.23,-30.76 417.09,-21.34 407.42,-25.68 412.23,-30.76"/>
</a>
</g>
</g>
<!-- Node16&#45;&gt;Node10 -->
<g id="edge28_Node000016_Node000010" class="edge">
<title>Node16&#45;&gt;Node10</title>
<g id="a_edge28_Node000016_Node000010"><a xlink:title=" ">
<path fill="none" stroke="#63b8ff" d="M398,-55.59C422.96,-46.9 460.3,-33.89 488.22,-24.16"/>
<polygon fill="#63b8ff" stroke="#63b8ff" points="489.07,-27.57 497.36,-20.98 486.77,-20.96 489.07,-27.57"/>
</a>
</g>
</g>
<!-- Node17&#45;&gt;Node4 -->
<g id="edge30_Node000017_Node000004" class="edge">
<title>Node17&#45;&gt;Node4</title>
<g id="a_edge30_Node000017_Node000004"><a xlink:title=" ">
<path fill="none" stroke="#63b8ff" d="M540,-167.59C540,-161.01 540,-151.96 540,-143.73"/>
<polygon fill="#63b8ff" stroke="#63b8ff" points="543.5,-143.81 540,-133.81 536.5,-143.81 543.5,-143.81"/>
</a>
</g>
</g>
</g>
</svg>
