<?xml version="1.0" encoding="UTF-8" standalone="no"?>
<!DOCTYPE svg PUBLIC "-//W3C//DTD SVG 1.1//EN"
 "http://www.w3.org/Graphics/SVG/1.1/DTD/svg11.dtd">
<!-- Generated by graphviz version 14.1.5 (0)
 -->
<!-- Title: src/bot_library/bot/BotSlashCommandRegistrar.cpp Pages: 1 -->
<svg width="1597pt" height="488pt"
 viewBox="0.00 0.00 1597.00 488.00" xmlns="http://www.w3.org/2000/svg" xmlns:xlink="http://www.w3.org/1999/xlink">
<g id="graph0" class="graph" transform="scale(1 1) rotate(0) translate(4 484)">
<title>src/bot_library/bot/BotSlashCommandRegistrar.cpp</title>
<!-- Node1 -->
<g id="Node000001" class="node">
<title>Node1</title>
<g id="a_Node000001"><a xlink:title=" ">
<polygon fill="#999999" stroke="#666666" points="1378.1,-480 1215.85,-480 1215.85,-448 1378.1,-448 1378.1,-480"/>
<text xml:space="preserve" text-anchor="start" x="1223.85" y="-466.5" font-family="Helvetica,sans-Serif" font-size="10.00">src/bot_library/bot</text>
<text xml:space="preserve" text-anchor="middle" x="1296.98" y="-454.5" font-family="Helvetica,sans-Serif" font-size="10.00">/BotSlashCommandRegistrar.cpp</text>
</a>
</g>
</g>
<!-- Node2 -->
<g id="Node000002" class="node">
<title>Node2</title>
<g id="a_Node000002"><a xlink:href="BotSlashCommandRegistrar_8hpp.html" target="_top" xlink:title=" ">
<polygon fill="white" stroke="#666666" points="960.6,-412 801.35,-412 801.35,-392 960.6,-392 960.6,-412"/>
<text xml:space="preserve" text-anchor="middle" x="880.98" y="-398.5" font-family="Helvetica,sans-Serif" font-size="10.00">BotSlashCommandRegistrar.hpp</text>
</a>
</g>
</g>
<!-- Node1&#45;&gt;Node2 -->
<g id="edge1_Node000001_Node000002" class="edge">
<title>Node1&#45;&gt;Node2</title>
<g id="a_edge1_Node000001_Node000002"><a xlink:title=" ">
<path fill="none" stroke="#63b8ff" d="M1215.78,-451.29C1141,-440.5 1030.86,-424.62 957.57,-414.05"/>
<polygon fill="#63b8ff" stroke="#63b8ff" points="958.48,-410.64 948.08,-412.68 957.48,-417.57 958.48,-410.64"/>
</a>
</g>
</g>
<!-- Node8 -->
<g id="Node000008" class="node">
<title>Node8</title>
<g id="a_Node000008"><a xlink:title=" ">
<polygon fill="#e0e0e0" stroke="#999999" points="1516.98,-132 1476.98,-132 1476.98,-112 1516.98,-112 1516.98,-132"/>
<text xml:space="preserve" text-anchor="middle" x="1496.98" y="-118.5" font-family="Helvetica,sans-Serif" font-size="10.00">string</text>
</a>
</g>
</g>
<!-- Node1&#45;&gt;Node8 -->
<g id="edge59_Node000001_Node000008" class="edge">
<title>Node1&#45;&gt;Node8</title>
<g id="a_edge59_Node000001_Node000008"><a xlink:title=" ">
<path fill="none" stroke="#63b8ff" d="M1337.6,-447.64C1376.72,-429.9 1429.98,-396.63 1429.98,-347 1429.98,-347 1429.98,-347 1429.98,-233 1429.98,-195.8 1458.28,-160.49 1478.09,-140.33"/>
<polygon fill="#63b8ff" stroke="#63b8ff" points="1480.41,-142.96 1485.13,-133.47 1475.52,-137.94 1480.41,-142.96"/>
</a>
</g>
</g>
<!-- Node18 -->
<g id="Node000018" class="node">
<title>Node18</title>
<g id="a_Node000018"><a xlink:title=" ">
<polygon fill="#e0e0e0" stroke="#999999" points="413.1,-188 340.85,-188 340.85,-168 413.1,-168 413.1,-188"/>
<text xml:space="preserve" text-anchor="middle" x="376.98" y="-174.5" font-family="Helvetica,sans-Serif" font-size="10.00">dpp/cluster.h</text>
</a>
</g>
</g>
<!-- Node1&#45;&gt;Node18 -->
<g id="edge55_Node000001_Node000018" class="edge">
<title>Node1&#45;&gt;Node18</title>
<g id="a_edge55_Node000001_Node000018"><a xlink:title=" ">
<path fill="none" stroke="#63b8ff" d="M1215.41,-459.99C931.11,-448.97 0.98,-408.24 0.98,-347 0.98,-347 0.98,-347 0.98,-289 0.98,-258.9 -2.93,-243.53 19.98,-224 65.54,-185.16 243.03,-179.25 329.33,-178.74"/>
<polygon fill="#63b8ff" stroke="#63b8ff" points="329.13,-182.24 339.12,-178.7 329.11,-175.24 329.13,-182.24"/>
</a>
</g>
</g>
<!-- Node19 -->
<g id="Node000019" class="node">
<title>Node19</title>
<g id="a_Node000019"><a xlink:title=" ">
<polygon fill="#e0e0e0" stroke="#999999" points="568.98,-188 480.98,-188 480.98,-168 568.98,-168 568.98,-188"/>
<text xml:space="preserve" text-anchor="middle" x="524.98" y="-174.5" font-family="Helvetica,sans-Serif" font-size="10.00">dpp/dispatcher.h</text>
</a>
</g>
</g>
<!-- Node1&#45;&gt;Node19 -->
<g id="edge56_Node000001_Node000019" class="edge">
<title>Node1&#45;&gt;Node19</title>
<g id="a_edge56_Node000001_Node000019"><a xlink:title=" ">
<path fill="none" stroke="#63b8ff" d="M1290.6,-447.69C1271.32,-403.61 1208.98,-276.28 1111.98,-224 1065.91,-199.18 717.93,-185.27 580.53,-180.7"/>
<polygon fill="#63b8ff" stroke="#63b8ff" points="580.69,-177.21 570.58,-180.38 580.46,-184.2 580.69,-177.21"/>
</a>
</g>
</g>
<!-- Node28 -->
<g id="Node000028" class="node">
<title>Node28</title>
<g id="a_Node000028"><a xlink:title=" ">
<polygon fill="#e0e0e0" stroke="#999999" points="1521.98,-412 1457.98,-412 1457.98,-392 1521.98,-392 1521.98,-412"/>
<text xml:space="preserve" text-anchor="middle" x="1489.98" y="-398.5" font-family="Helvetica,sans-Serif" font-size="10.00">dpp/once.h</text>
</a>
</g>
</g>
<!-- Node1&#45;&gt;Node28 -->
<g id="edge57_Node000001_Node000028" class="edge">
<title>Node1&#45;&gt;Node28</title>
<g id="a_edge57_Node000001_Node000028"><a xlink:title=" ">
<path fill="none" stroke="#63b8ff" d="M1346.68,-447.55C1378.27,-437.73 1418.69,-425.16 1448.55,-415.88"/>
<polygon fill="#63b8ff" stroke="#63b8ff" points="1449.47,-419.26 1457.98,-412.95 1447.4,-412.57 1449.47,-419.26"/>
</a>
</g>
</g>
<!-- Node29 -->
<g id="Node000029" class="node">
<title>Node29</title>
<g id="a_Node000029"><a xlink:title=" ">
<polygon fill="#e0e0e0" stroke="#999999" points="1589.48,-412 1540.48,-412 1540.48,-392 1589.48,-392 1589.48,-412"/>
<text xml:space="preserve" text-anchor="middle" x="1564.98" y="-398.5" font-family="Helvetica,sans-Serif" font-size="10.00">fstream</text>
</a>
</g>
</g>
<!-- Node1&#45;&gt;Node29 -->
<g id="edge58_Node000001_Node000029" class="edge">
<title>Node1&#45;&gt;Node29</title>
<g id="a_edge58_Node000001_Node000029"><a xlink:title=" ">
<path fill="none" stroke="#63b8ff" d="M1371.99,-447.53C1415.3,-438.4 1471.04,-426.29 1529.23,-412.34"/>
<polygon fill="#63b8ff" stroke="#63b8ff" points="1529.75,-415.81 1538.65,-410.07 1528.11,-409.01 1529.75,-415.81"/>
</a>
</g>
</g>
<!-- Node3 -->
<g id="Node000003" class="node">
<title>Node3</title>
<g id="a_Node000003"><a xlink:href="Bot_8hpp.html" target="_top" xlink:title=" ">
<polygon fill="white" stroke="#666666" points="743.85,-356 694.1,-356 694.1,-336 743.85,-336 743.85,-356"/>
<text xml:space="preserve" text-anchor="middle" x="718.98" y="-342.5" font-family="Helvetica,sans-Serif" font-size="10.00">Bot.hpp</text>
</a>
</g>
</g>
<!-- Node2&#45;&gt;Node3 -->
<g id="edge2_Node000002_Node000003" class="edge">
<title>Node2&#45;&gt;Node3</title>
<g id="a_edge2_Node000002_Node000003"><a xlink:title=" ">
<path fill="none" stroke="#63b8ff" d="M852.76,-391.59C825.59,-382.54 784.39,-368.8 754.89,-358.97"/>
<polygon fill="#63b8ff" stroke="#63b8ff" points="756.24,-355.73 745.65,-355.89 754.03,-362.37 756.24,-355.73"/>
</a>
</g>
</g>
<!-- Node4 -->
<g id="Node000004" class="node">
<title>Node4</title>
<g id="a_Node000004"><a xlink:href="Core_8hpp.html" target="_top" xlink:title=" ">
<polygon fill="white" stroke="#666666" points="845.85,-300 790.1,-300 790.1,-280 845.85,-280 845.85,-300"/>
<text xml:space="preserve" text-anchor="middle" x="817.98" y="-286.5" font-family="Helvetica,sans-Serif" font-size="10.00">Core.hpp</text>
</a>
</g>
</g>
<!-- Node3&#45;&gt;Node4 -->
<g id="edge3_Node000003_Node000004" class="edge">
<title>Node3&#45;&gt;Node4</title>
<g id="a_edge3_Node000003_Node000004"><a xlink:title=" ">
<path fill="none" stroke="#63b8ff" d="M736.22,-335.59C751.32,-327.36 773.5,-315.26 790.96,-305.74"/>
<polygon fill="#63b8ff" stroke="#63b8ff" points="792.17,-309.07 799.27,-301.2 788.81,-302.92 792.17,-309.07"/>
</a>
</g>
</g>
<!-- Node3&#45;&gt;Node8 -->
<g id="edge53_Node000003_Node000008" class="edge">
<title>Node3&#45;&gt;Node8</title>
<g id="a_edge53_Node000003_Node000008"><a xlink:title=" ">
<path fill="none" stroke="#63b8ff" d="M744.23,-345.05C828.6,-344.35 1106.93,-334.85 1311.98,-244 1364.32,-220.81 1367.75,-198.85 1415.98,-168 1432.93,-157.15 1452.66,-146.16 1468.41,-137.75"/>
<polygon fill="#63b8ff" stroke="#63b8ff" points="1470.04,-140.85 1477.25,-133.09 1466.77,-134.66 1470.04,-140.85"/>
</a>
</g>
</g>
<!-- Node10 -->
<g id="Node000010" class="node">
<title>Node10</title>
<g id="a_Node000010"><a xlink:title=" ">
<polygon fill="#e0e0e0" stroke="#999999" points="980.48,-132 937.48,-132 937.48,-112 980.48,-112 980.48,-132"/>
<text xml:space="preserve" text-anchor="middle" x="958.98" y="-118.5" font-family="Helvetica,sans-Serif" font-size="10.00">vector</text>
</a>
</g>
</g>
<!-- Node3&#45;&gt;Node10 -->
<g id="edge54_Node000003_Node000010" class="edge">
<title>Node3&#45;&gt;Node10</title>
<g id="a_edge54_Node000003_Node000010"><a xlink:title=" ">
<path fill="none" stroke="#63b8ff" d="M744.35,-342.46C823.93,-333.93 1066.04,-303.43 1111.98,-244 1117.41,-236.97 1117.22,-231.18 1111.98,-224 1080.87,-181.45 1040.49,-220.47 998.98,-188 983.99,-176.28 973.23,-157.25 966.67,-142.81"/>
<polygon fill="#63b8ff" stroke="#63b8ff" points="970,-141.69 962.9,-133.82 963.54,-144.4 970,-141.69"/>
</a>
</g>
</g>
<!-- Node17 -->
<g id="Node000017" class="node">
<title>Node17</title>
<g id="a_Node000017"><a xlink:href="IButtonCommand_8hpp.html" target="_top" xlink:title=" ">
<polygon fill="white" stroke="#666666" points="517.6,-244 406.35,-244 406.35,-224 517.6,-224 517.6,-244"/>
<text xml:space="preserve" text-anchor="middle" x="461.98" y="-230.5" font-family="Helvetica,sans-Serif" font-size="10.00">IButtonCommand.hpp</text>
</a>
</g>
</g>
<!-- Node3&#45;&gt;Node17 -->
<g id="edge43_Node000003_Node000017" class="edge">
<title>Node3&#45;&gt;Node17</title>
<g id="a_edge43_Node000003_Node000017"><a xlink:title=" ">
<path fill="none" stroke="#63b8ff" d="M697.06,-335.62C651.73,-316.22 547.47,-271.59 494.35,-248.86"/>
<polygon fill="#63b8ff" stroke="#63b8ff" points="495.79,-245.67 485.22,-244.95 493.04,-252.1 495.79,-245.67"/>
</a>
</g>
</g>
<!-- Node20 -->
<g id="Node000020" class="node">
<title>Node20</title>
<g id="a_Node000020"><a xlink:href="IFormCommand_8hpp.html" target="_top" xlink:title=" ">
<polygon fill="white" stroke="#666666" points="640.6,-244 535.35,-244 535.35,-224 640.6,-224 640.6,-244"/>
<text xml:space="preserve" text-anchor="middle" x="587.98" y="-230.5" font-family="Helvetica,sans-Serif" font-size="10.00">IFormCommand.hpp</text>
</a>
</g>
</g>
<!-- Node3&#45;&gt;Node20 -->
<g id="edge44_Node000003_Node000020" class="edge">
<title>Node3&#45;&gt;Node20</title>
<g id="a_edge44_Node000003_Node000020"><a xlink:title=" ">
<path fill="none" stroke="#63b8ff" d="M707.81,-335.62C685.57,-316.95 635.51,-274.92 607.65,-251.52"/>
<polygon fill="#63b8ff" stroke="#63b8ff" points="610.19,-249.08 600.28,-245.33 605.68,-254.44 610.19,-249.08"/>
</a>
</g>
</g>
<!-- Node21 -->
<g id="Node000021" class="node">
<title>Node21</title>
<g id="a_Node000021"><a xlink:href="IGlobalSlashCommand_8hpp.html" target="_top" xlink:title=" ">
<polygon fill="white" stroke="#666666" points="164.6,-244 29.35,-244 29.35,-224 164.6,-224 164.6,-244"/>
<text xml:space="preserve" text-anchor="middle" x="96.98" y="-230.5" font-family="Helvetica,sans-Serif" font-size="10.00">IGlobalSlashCommand.hpp</text>
</a>
</g>
</g>
<!-- Node3&#45;&gt;Node21 -->
<g id="edge45_Node000003_Node000021" class="edge">
<title>Node3&#45;&gt;Node21</title>
<g id="a_edge45_Node000003_Node000021"><a xlink:title=" ">
<path fill="none" stroke="#63b8ff" d="M693.9,-342.12C639.71,-335.76 507.68,-319.51 397.98,-300 309.22,-284.22 206.78,-261.02 147.21,-247.03"/>
<polygon fill="#63b8ff" stroke="#63b8ff" points="148.25,-243.68 137.71,-244.79 146.64,-250.49 148.25,-243.68"/>
</a>
</g>
</g>
<!-- Node23 -->
<g id="Node000023" class="node">
<title>Node23</title>
<g id="a_Node000023"><a xlink:href="IMemberCommand_8hpp.html" target="_top" xlink:title=" ">
<polygon fill="white" stroke="#666666" points="776.98,-244 658.98,-244 658.98,-224 776.98,-224 776.98,-244"/>
<text xml:space="preserve" text-anchor="middle" x="717.98" y="-230.5" font-family="Helvetica,sans-Serif" font-size="10.00">IMemberCommand.hpp</text>
</a>
</g>
</g>
<!-- Node3&#45;&gt;Node23 -->
<g id="edge46_Node000003_Node000023" class="edge">
<title>Node3&#45;&gt;Node23</title>
<g id="a_edge46_Node000003_Node000023"><a xlink:title=" ">
<path fill="none" stroke="#63b8ff" d="M716.84,-335.76C714.87,-326.7 712.08,-312.49 710.98,-300 709.66,-285.08 711.56,-268.26 713.71,-255.47"/>
<polygon fill="#63b8ff" stroke="#63b8ff" points="717.14,-256.21 715.56,-245.73 710.26,-254.91 717.14,-256.21"/>
</a>
</g>
</g>
<!-- Node24 -->
<g id="Node000024" class="node">
<title>Node24</title>
<g id="a_Node000024"><a xlink:href="IMessageCommand_8hpp.html" target="_top" xlink:title=" ">
<polygon fill="white" stroke="#666666" points="1103.23,-244 980.73,-244 980.73,-224 1103.23,-224 1103.23,-244"/>
<text xml:space="preserve" text-anchor="middle" x="1041.98" y="-230.5" font-family="Helvetica,sans-Serif" font-size="10.00">IMessageCommand.hpp</text>
</a>
</g>
</g>
<!-- Node3&#45;&gt;Node24 -->
<g id="edge47_Node000003_Node000024" class="edge">
<title>Node3&#45;&gt;Node24</title>
<g id="a_edge47_Node000003_Node000024"><a xlink:title=" ">
<path fill="none" stroke="#63b8ff" d="M744.33,-336.74C771.67,-327.8 816.47,-313.06 854.98,-300 906.97,-282.36 966.88,-261.43 1004.59,-248.18"/>
<polygon fill="#63b8ff" stroke="#63b8ff" points="1005.38,-251.61 1013.65,-244.99 1003.06,-245.01 1005.38,-251.61"/>
</a>
</g>
</g>
<!-- Node25 -->
<g id="Node000025" class="node">
<title>Node25</title>
<g id="a_Node000025"><a xlink:href="IReactionCommand_8hpp.html" target="_top" xlink:title=" ">
<polygon fill="white" stroke="#666666" points="387.85,-244 266.1,-244 266.1,-224 387.85,-224 387.85,-244"/>
<text xml:space="preserve" text-anchor="middle" x="326.98" y="-230.5" font-family="Helvetica,sans-Serif" font-size="10.00">IReactionCommand.hpp</text>
</a>
</g>
</g>
<!-- Node3&#45;&gt;Node25 -->
<g id="edge48_Node000003_Node000025" class="edge">
<title>Node3&#45;&gt;Node25</title>
<g id="a_edge48_Node000003_Node000025"><a xlink:title=" ">
<path fill="none" stroke="#63b8ff" d="M693.86,-337.95C628.9,-319.72 454.66,-270.83 371.86,-247.6"/>
<polygon fill="#63b8ff" stroke="#63b8ff" points="372.84,-244.23 362.27,-244.9 370.95,-250.97 372.84,-244.23"/>
</a>
</g>
</g>
<!-- Node26 -->
<g id="Node000026" class="node">
<title>Node26</title>
<g id="a_Node000026"><a xlink:href="IReady_8hpp.html" target="_top" xlink:title=" ">
<polygon fill="white" stroke="#666666" points="247.73,-244 182.23,-244 182.23,-224 247.73,-224 247.73,-244"/>
<text xml:space="preserve" text-anchor="middle" x="214.98" y="-230.5" font-family="Helvetica,sans-Serif" font-size="10.00">IReady.hpp</text>
</a>
</g>
</g>
<!-- Node3&#45;&gt;Node26 -->
<g id="edge49_Node000003_Node000026" class="edge">
<title>Node3&#45;&gt;Node26</title>
<g id="a_edge49_Node000003_Node000026"><a xlink:title=" ">
<path fill="none" stroke="#63b8ff" d="M693.86,-340.6C650.78,-332.96 560.1,-316.48 483.98,-300 404.35,-282.77 312.2,-259.85 259.04,-246.33"/>
<polygon fill="#63b8ff" stroke="#63b8ff" points="260.01,-242.97 249.46,-243.89 258.28,-249.75 260.01,-242.97"/>
</a>
</g>
</g>
<!-- Node27 -->
<g id="Node000027" class="node">
<title>Node27</title>
<g id="a_Node000027"><a xlink:title=" ">
<polygon fill="#e0e0e0" stroke="#999999" points="771.6,-300 720.35,-300 720.35,-280 771.6,-280 771.6,-300"/>
<text xml:space="preserve" text-anchor="middle" x="745.98" y="-286.5" font-family="Helvetica,sans-Serif" font-size="10.00">memory</text>
</a>
</g>
</g>
<!-- Node3&#45;&gt;Node27 -->
<g id="edge52_Node000003_Node000027" class="edge">
<title>Node3&#45;&gt;Node27</title>
<g id="a_edge52_Node000003_Node000027"><a xlink:title=" ">
<path fill="none" stroke="#63b8ff" d="M723.68,-335.59C727.13,-328.7 731.93,-319.1 736.19,-310.57"/>
<polygon fill="#63b8ff" stroke="#63b8ff" points="739.31,-312.16 740.65,-301.65 733.05,-309.03 739.31,-312.16"/>
</a>
</g>
</g>
<!-- Node5 -->
<g id="Node000005" class="node">
<title>Node5</title>
<g id="a_Node000005"><a xlink:title=" ">
<polygon fill="#e0e0e0" stroke="#999999" points="853.35,-244 794.6,-244 794.6,-224 853.35,-224 853.35,-244"/>
<text xml:space="preserve" text-anchor="middle" x="823.98" y="-230.5" font-family="Helvetica,sans-Serif" font-size="10.00">dpp/dpp.h</text>
</a>
</g>
</g>
<!-- Node4&#45;&gt;Node5 -->
<g id="edge4_Node000004_Node000005" class="edge">
<title>Node4&#45;&gt;Node5</title>
<g id="a_edge4_Node000004_Node000005"><a xlink:title=" ">
<path fill="none" stroke="#63b8ff" d="M819.02,-279.59C819.75,-273.01 820.76,-263.96 821.67,-255.73"/>
<polygon fill="#63b8ff" stroke="#63b8ff" points="825.15,-256.13 822.78,-245.8 818.19,-255.35 825.15,-256.13"/>
</a>
</g>
</g>
<!-- Node6 -->
<g id="Node000006" class="node">
<title>Node6</title>
<g id="a_Node000006"><a xlink:title=" ">
<polygon fill="#e0e0e0" stroke="#999999" points="962.48,-244 871.48,-244 871.48,-224 962.48,-224 962.48,-244"/>
<text xml:space="preserve" text-anchor="middle" x="916.98" y="-230.5" font-family="Helvetica,sans-Serif" font-size="10.00">dpp/misc&#45;enum.h</text>
</a>
</g>
</g>
<!-- Node4&#45;&gt;Node6 -->
<g id="edge5_Node000004_Node000006" class="edge">
<title>Node4&#45;&gt;Node6</title>
<g id="a_edge5_Node000004_Node000006"><a xlink:title=" ">
<path fill="none" stroke="#63b8ff" d="M835.22,-279.59C850.32,-271.36 872.5,-259.26 889.96,-249.74"/>
<polygon fill="#63b8ff" stroke="#63b8ff" points="891.17,-253.07 898.27,-245.2 887.81,-246.92 891.17,-253.07"/>
</a>
</g>
</g>
<!-- Node7 -->
<g id="Node000007" class="node">
<title>Node7</title>
<g id="a_Node000007"><a xlink:href="Database_8hpp.html" target="_top" xlink:title=" ">
<polygon fill="white" stroke="#666666" points="1273.35,-244 1196.6,-244 1196.6,-224 1273.35,-224 1273.35,-244"/>
<text xml:space="preserve" text-anchor="middle" x="1234.98" y="-230.5" font-family="Helvetica,sans-Serif" font-size="10.00">Database.hpp</text>
</a>
</g>
</g>
<!-- Node4&#45;&gt;Node7 -->
<g id="edge6_Node000004_Node000007" class="edge">
<title>Node4&#45;&gt;Node7</title>
<g id="a_edge6_Node000004_Node000007"><a xlink:title=" ">
<path fill="none" stroke="#63b8ff" d="M846.31,-285.33C916.05,-276.3 1096.72,-252.9 1184.98,-241.47"/>
<polygon fill="#63b8ff" stroke="#63b8ff" points="1185.32,-244.96 1194.79,-240.2 1184.42,-238.02 1185.32,-244.96"/>
</a>
</g>
</g>
<!-- Node4&#45;&gt;Node8 -->
<g id="edge42_Node000004_Node000008" class="edge">
<title>Node4&#45;&gt;Node8</title>
<g id="a_edge42_Node000004_Node000008"><a xlink:title=" ">
<path fill="none" stroke="#63b8ff" d="M846.09,-288.35C933.9,-285.98 1202.03,-276.22 1281.98,-244 1332.45,-223.66 1330.63,-194.83 1377.98,-168 1393.4,-159.26 1436.26,-143.79 1466.09,-133.47"/>
<polygon fill="#63b8ff" stroke="#63b8ff" points="1467.05,-136.84 1475.37,-130.28 1464.77,-130.22 1467.05,-136.84"/>
</a>
</g>
</g>
<!-- Node4&#45;&gt;Node17 -->
<g id="edge22_Node000004_Node000017" class="edge">
<title>Node4&#45;&gt;Node17</title>
<g id="a_edge22_Node000004_Node000017"><a xlink:title=" ">
<path fill="none" stroke="#63b8ff" d="M789.76,-281.83C786.8,-281.17 783.83,-280.55 780.98,-280 779.43,-279.7 622.36,-257.58 529.23,-244.47"/>
<polygon fill="#63b8ff" stroke="#63b8ff" points="529.82,-241.01 519.43,-243.09 528.84,-247.95 529.82,-241.01"/>
</a>
</g>
</g>
<!-- Node4&#45;&gt;Node20 -->
<g id="edge25_Node000004_Node000020" class="edge">
<title>Node4&#45;&gt;Node20</title>
<g id="a_edge25_Node000004_Node000020"><a xlink:title=" ">
<path fill="none" stroke="#63b8ff" d="M789.7,-282.09C786.76,-281.38 783.81,-280.67 780.98,-280 733.3,-268.64 678.93,-255.99 640.07,-247.01"/>
<polygon fill="#63b8ff" stroke="#63b8ff" points="641.05,-243.64 630.52,-244.8 639.47,-250.46 641.05,-243.64"/>
</a>
</g>
</g>
<!-- Node4&#45;&gt;Node21 -->
<g id="edge28_Node000004_Node000021" class="edge">
<title>Node4&#45;&gt;Node21</title>
<g id="a_edge28_Node000004_Node000021"><a xlink:title=" ">
<path fill="none" stroke="#63b8ff" d="M789.8,-281.59C786.83,-280.98 783.85,-280.43 780.98,-280 516.94,-240.4 444.58,-267.17 176.18,-244.23"/>
<polygon fill="#63b8ff" stroke="#63b8ff" points="176.68,-240.76 166.42,-243.38 176.07,-247.73 176.68,-240.76"/>
</a>
</g>
</g>
<!-- Node4&#45;&gt;Node23 -->
<g id="edge33_Node000004_Node000023" class="edge">
<title>Node4&#45;&gt;Node23</title>
<g id="a_edge33_Node000004_Node000023"><a xlink:title=" ">
<path fill="none" stroke="#63b8ff" d="M800.56,-279.59C785.31,-271.36 762.9,-259.26 745.27,-249.74"/>
<polygon fill="#63b8ff" stroke="#63b8ff" points="747.32,-246.87 736.86,-245.2 744,-253.03 747.32,-246.87"/>
</a>
</g>
</g>
<!-- Node4&#45;&gt;Node24 -->
<g id="edge36_Node000004_Node000024" class="edge">
<title>Node4&#45;&gt;Node24</title>
<g id="a_edge36_Node000004_Node000024"><a xlink:title=" ">
<path fill="none" stroke="#63b8ff" d="M846.35,-282.16C882.92,-273.34 947.14,-257.86 991.98,-247.05"/>
<polygon fill="#63b8ff" stroke="#63b8ff" points="992.57,-250.51 1001.47,-244.77 990.93,-243.71 992.57,-250.51"/>
</a>
</g>
</g>
<!-- Node4&#45;&gt;Node25 -->
<g id="edge39_Node000004_Node000025" class="edge">
<title>Node4&#45;&gt;Node25</title>
<g id="a_edge39_Node000004_Node000025"><a xlink:title=" ">
<path fill="none" stroke="#63b8ff" d="M789.78,-281.7C786.82,-281.06 783.85,-280.48 780.98,-280 615.55,-252.28 569.32,-262.47 399.42,-244.22"/>
<polygon fill="#63b8ff" stroke="#63b8ff" points="399.87,-240.75 389.55,-243.14 399.11,-247.71 399.87,-240.75"/>
</a>
</g>
</g>
<!-- Node7&#45;&gt;Node8 -->
<g id="edge7_Node000007_Node000008" class="edge">
<title>Node7&#45;&gt;Node8</title>
<g id="a_edge7_Node000007_Node000008"><a xlink:title=" ">
<path fill="none" stroke="#63b8ff" d="M1248.98,-223.65C1273.04,-207.7 1321.43,-176.15 1339.98,-168 1390.9,-145.61 1409.16,-148.32 1465.7,-132.54"/>
<polygon fill="#63b8ff" stroke="#63b8ff" points="1466.62,-135.91 1475.26,-129.78 1464.68,-129.19 1466.62,-135.91"/>
</a>
</g>
</g>
<!-- Node9 -->
<g id="Node000009" class="node">
<title>Node9</title>
<g id="a_Node000009"><a xlink:title=" ">
<polygon fill="#e0e0e0" stroke="#999999" points="1458.6,-132 1419.35,-132 1419.35,-112 1458.6,-112 1458.6,-132"/>
<text xml:space="preserve" text-anchor="middle" x="1438.98" y="-118.5" font-family="Helvetica,sans-Serif" font-size="10.00">utility</text>
</a>
</g>
</g>
<!-- Node7&#45;&gt;Node9 -->
<g id="edge8_Node000007_Node000009" class="edge">
<title>Node7&#45;&gt;Node9</title>
<g id="a_edge8_Node000007_Node000009"><a xlink:title=" ">
<path fill="none" stroke="#63b8ff" d="M1242.21,-223.67C1253.52,-209.68 1276.74,-183.26 1301.98,-168 1304.34,-166.57 1368.56,-145.72 1408.22,-132.91"/>
<polygon fill="#63b8ff" stroke="#63b8ff" points="1409.05,-136.32 1417.49,-129.92 1406.9,-129.66 1409.05,-136.32"/>
</a>
</g>
</g>
<!-- Node7&#45;&gt;Node10 -->
<g id="edge9_Node000007_Node000010" class="edge">
<title>Node7&#45;&gt;Node10</title>
<g id="a_edge9_Node000007_Node000010"><a xlink:title=" ">
<path fill="none" stroke="#63b8ff" d="M1196.46,-225.61C1141.5,-214.9 1045.57,-195.52 1030.98,-188 1008.17,-176.25 987,-155.46 973.6,-140.55"/>
<polygon fill="#63b8ff" stroke="#63b8ff" points="976.51,-138.56 967.31,-133.31 971.23,-143.15 976.51,-138.56"/>
</a>
</g>
</g>
<!-- Node11 -->
<g id="Node000011" class="node">
<title>Node11</title>
<g id="a_Node000011"><a xlink:href="DatabaseBackend_8hpp.html" target="_top" xlink:title=" ">
<polygon fill="white" stroke="#666666" points="1149.48,-76 1034.48,-76 1034.48,-56 1149.48,-56 1149.48,-76"/>
<text xml:space="preserve" text-anchor="middle" x="1091.98" y="-62.5" font-family="Helvetica,sans-Serif" font-size="10.00">DatabaseBackend.hpp</text>
</a>
</g>
</g>
<!-- Node7&#45;&gt;Node11 -->
<g id="edge10_Node000007_Node000011" class="edge">
<title>Node7&#45;&gt;Node11</title>
<g id="a_edge10_Node000007_Node000011"><a xlink:title=" ">
<path fill="none" stroke="#63b8ff" d="M1199.36,-223.58C1172.8,-215.85 1136.08,-203.64 1105.98,-188 1068.11,-168.33 1047.46,-169.97 1027.98,-132 1017.54,-111.66 1039.23,-93.59 1060.13,-81.69"/>
<polygon fill="#63b8ff" stroke="#63b8ff" points="1061.65,-84.85 1068.84,-77.08 1058.37,-78.67 1061.65,-84.85"/>
</a>
</g>
</g>
<!-- Node13 -->
<g id="Node000013" class="node">
<title>Node13</title>
<g id="a_Node000013"><a xlink:href="DatabaseExecutor_8hpp.html" target="_top" xlink:title=" ">
<polygon fill="white" stroke="#666666" points="1249.85,-188 1134.1,-188 1134.1,-168 1249.85,-168 1249.85,-188"/>
<text xml:space="preserve" text-anchor="middle" x="1191.98" y="-174.5" font-family="Helvetica,sans-Serif" font-size="10.00">DatabaseExecutor.hpp</text>
</a>
</g>
</g>
<!-- Node7&#45;&gt;Node13 -->
<g id="edge12_Node000007_Node000013" class="edge">
<title>Node7&#45;&gt;Node13</title>
<g id="a_edge12_Node000007_Node000013"><a xlink:title=" ">
<path fill="none" stroke="#63b8ff" d="M1227.49,-223.59C1221.69,-216.32 1213.49,-206.02 1206.43,-197.15"/>
<polygon fill="#63b8ff" stroke="#63b8ff" points="1209.29,-195.12 1200.32,-189.48 1203.81,-199.49 1209.29,-195.12"/>
</a>
</g>
</g>
<!-- Node16 -->
<g id="Node000016" class="node">
<title>Node16</title>
<g id="a_Node000016"><a xlink:href="RowDTOAdapter_8hpp.html" target="_top" xlink:title=" ">
<polygon fill="white" stroke="#666666" points="1146.85,-132 1037.1,-132 1037.1,-112 1146.85,-112 1146.85,-132"/>
<text xml:space="preserve" text-anchor="middle" x="1091.98" y="-118.5" font-family="Helvetica,sans-Serif" font-size="10.00">RowDTOAdapter.hpp</text>
</a>
</g>
</g>
<!-- Node7&#45;&gt;Node16 -->
<g id="edge21_Node000007_Node000016" class="edge">
<title>Node7&#45;&gt;Node16</title>
<g id="a_edge21_Node000007_Node000016"><a xlink:title=" ">
<path fill="none" stroke="#63b8ff" d="M1196.13,-224.39C1173.19,-217.67 1144.85,-206.32 1124.98,-188 1111.74,-175.8 1103.03,-157.1 1097.9,-142.89"/>
<polygon fill="#63b8ff" stroke="#63b8ff" points="1101.32,-142.09 1094.88,-133.68 1094.67,-144.27 1101.32,-142.09"/>
</a>
</g>
</g>
<!-- Node12 -->
<g id="Node000012" class="node">
<title>Node12</title>
<g id="a_Node000012"><a xlink:title=" ">
<polygon fill="#e0e0e0" stroke="#999999" points="1122.48,-20 1061.48,-20 1061.48,0 1122.48,0 1122.48,-20"/>
<text xml:space="preserve" text-anchor="middle" x="1091.98" y="-6.5" font-family="Helvetica,sans-Serif" font-size="10.00">pqxx/pqxx</text>
</a>
</g>
</g>
<!-- Node11&#45;&gt;Node12 -->
<g id="edge11_Node000011_Node000012" class="edge">
<title>Node11&#45;&gt;Node12</title>
<g id="a_edge11_Node000011_Node000012"><a xlink:title=" ">
<path fill="none" stroke="#63b8ff" d="M1091.98,-55.59C1091.98,-49.01 1091.98,-39.96 1091.98,-31.73"/>
<polygon fill="#63b8ff" stroke="#63b8ff" points="1095.48,-31.81 1091.98,-21.81 1088.48,-31.81 1095.48,-31.81"/>
</a>
</g>
</g>
<!-- Node13&#45;&gt;Node8 -->
<g id="edge14_Node000013_Node000008" class="edge">
<title>Node13&#45;&gt;Node8</title>
<g id="a_edge14_Node000013_Node000008"><a xlink:title=" ">
<path fill="none" stroke="#63b8ff" d="M1250.33,-169.89C1303.98,-162.81 1385.9,-150.65 1465.3,-132.37"/>
<polygon fill="#63b8ff" stroke="#63b8ff" points="1466.07,-135.78 1475,-130.09 1464.47,-128.97 1466.07,-135.78"/>
</a>
</g>
</g>
<!-- Node13&#45;&gt;Node9 -->
<g id="edge15_Node000013_Node000009" class="edge">
<title>Node13&#45;&gt;Node9</title>
<g id="a_edge15_Node000013_Node000009"><a xlink:title=" ">
<path fill="none" stroke="#63b8ff" d="M1246.35,-167.52C1288.38,-159.82 1348.17,-148.02 1408.08,-132.57"/>
<polygon fill="#63b8ff" stroke="#63b8ff" points="1408.61,-136.05 1417.4,-130.14 1406.84,-129.28 1408.61,-136.05"/>
</a>
</g>
</g>
<!-- Node13&#45;&gt;Node10 -->
<g id="edge16_Node000013_Node000010" class="edge">
<title>Node13&#45;&gt;Node10</title>
<g id="a_edge16_Node000013_Node000010"><a xlink:title=" ">
<path fill="none" stroke="#63b8ff" d="M1151.12,-167.53C1105.89,-157.05 1033.84,-140.35 992.01,-130.66"/>
<polygon fill="#63b8ff" stroke="#63b8ff" points="992.82,-127.25 982.29,-128.4 991.24,-134.07 992.82,-127.25"/>
</a>
</g>
</g>
<!-- Node14 -->
<g id="Node000014" class="node">
<title>Node14</title>
<g id="a_Node000014"><a xlink:title=" ">
<polygon fill="#e0e0e0" stroke="#999999" points="1218.73,-132 1165.23,-132 1165.23,-112 1218.73,-112 1218.73,-132"/>
<text xml:space="preserve" text-anchor="middle" x="1191.98" y="-118.5" font-family="Helvetica,sans-Serif" font-size="10.00">iostream</text>
</a>
</g>
</g>
<!-- Node13&#45;&gt;Node14 -->
<g id="edge13_Node000013_Node000014" class="edge">
<title>Node13&#45;&gt;Node14</title>
<g id="a_edge13_Node000013_Node000014"><a xlink:title=" ">
<path fill="none" stroke="#63b8ff" d="M1191.98,-167.59C1191.98,-161.01 1191.98,-151.96 1191.98,-143.73"/>
<polygon fill="#63b8ff" stroke="#63b8ff" points="1195.48,-143.81 1191.98,-133.81 1188.48,-143.81 1195.48,-143.81"/>
</a>
</g>
</g>
<!-- Node15 -->
<g id="Node000015" class="node">
<title>Node15</title>
<g id="a_Node000015"><a xlink:href="IDatabaseConnectionProvider_8hpp.html" target="_top" xlink:title=" ">
<polygon fill="white" stroke="#666666" points="1401.6,-132 1236.35,-132 1236.35,-112 1401.6,-112 1401.6,-132"/>
<text xml:space="preserve" text-anchor="middle" x="1318.98" y="-118.5" font-family="Helvetica,sans-Serif" font-size="10.00">IDatabaseConnectionProvider.hpp</text>
</a>
</g>
</g>
<!-- Node13&#45;&gt;Node15 -->
<g id="edge17_Node000013_Node000015" class="edge">
<title>Node13&#45;&gt;Node15</title>
<g id="a_edge17_Node000013_Node000015"><a xlink:title=" ">
<path fill="none" stroke="#63b8ff" d="M1214.1,-167.59C1234.01,-159.13 1263.53,-146.58 1286.18,-136.94"/>
<polygon fill="#63b8ff" stroke="#63b8ff" points="1287.46,-140.21 1295.29,-133.07 1284.72,-133.76 1287.46,-140.21"/>
</a>
</g>
</g>
<!-- Node13&#45;&gt;Node16 -->
<g id="edge19_Node000013_Node000016" class="edge">
<title>Node13&#45;&gt;Node16</title>
<g id="a_edge19_Node000013_Node000016"><a xlink:title=" ">
<path fill="none" stroke="#63b8ff" d="M1174.56,-167.59C1159.31,-159.36 1136.9,-147.26 1119.27,-137.74"/>
<polygon fill="#63b8ff" stroke="#63b8ff" points="1121.32,-134.87 1110.86,-133.2 1118,-141.03 1121.32,-134.87"/>
</a>
</g>
</g>
<!-- Node15&#45;&gt;Node11 -->
<g id="edge18_Node000015_Node000011" class="edge">
<title>Node15&#45;&gt;Node11</title>
<g id="a_edge18_Node000015_Node000011"><a xlink:title=" ">
<path fill="none" stroke="#63b8ff" d="M1279.18,-111.53C1241.29,-102.52 1184.09,-88.91 1142.9,-79.11"/>
<polygon fill="#63b8ff" stroke="#63b8ff" points="1143.74,-75.72 1133.2,-76.81 1142.12,-82.53 1143.74,-75.72"/>
</a>
</g>
</g>
<!-- Node16&#45;&gt;Node11 -->
<g id="edge20_Node000016_Node000011" class="edge">
<title>Node16&#45;&gt;Node11</title>
<g id="a_edge20_Node000016_Node000011"><a xlink:title=" ">
<path fill="none" stroke="#63b8ff" d="M1091.98,-111.59C1091.98,-105.01 1091.98,-95.96 1091.98,-87.73"/>
<polygon fill="#63b8ff" stroke="#63b8ff" points="1095.48,-87.81 1091.98,-77.81 1088.48,-87.81 1095.48,-87.81"/>
</a>
</g>
</g>
<!-- Node17&#45;&gt;Node18 -->
<g id="edge23_Node000017_Node000018" class="edge">
<title>Node17&#45;&gt;Node18</title>
<g id="a_edge23_Node000017_Node000018"><a xlink:title=" ">
<path fill="none" stroke="#63b8ff" d="M447.17,-223.59C434.57,-215.59 416.22,-203.93 401.44,-194.54"/>
<polygon fill="#63b8ff" stroke="#63b8ff" points="403.49,-191.7 393.18,-189.29 399.74,-197.61 403.49,-191.7"/>
</a>
</g>
</g>
<!-- Node17&#45;&gt;Node19 -->
<g id="edge24_Node000017_Node000019" class="edge">
<title>Node17&#45;&gt;Node19</title>
<g id="a_edge24_Node000017_Node000019"><a xlink:title=" ">
<path fill="none" stroke="#63b8ff" d="M472.95,-223.59C481.89,-215.93 494.75,-204.91 505.44,-195.75"/>
<polygon fill="#63b8ff" stroke="#63b8ff" points="507.66,-198.45 512.98,-189.28 503.11,-193.13 507.66,-198.45"/>
</a>
</g>
</g>
<!-- Node20&#45;&gt;Node18 -->
<g id="edge26_Node000020_Node000018" class="edge">
<title>Node20&#45;&gt;Node18</title>
<g id="a_edge26_Node000020_Node000018"><a xlink:title=" ">
<path fill="none" stroke="#63b8ff" d="M551.22,-223.59C515.97,-214.57 462.59,-200.91 424.21,-191.09"/>
<polygon fill="#63b8ff" stroke="#63b8ff" points="425.33,-187.76 414.77,-188.67 423.59,-194.54 425.33,-187.76"/>
</a>
</g>
</g>
<!-- Node20&#45;&gt;Node19 -->
<g id="edge27_Node000020_Node000019" class="edge">
<title>Node20&#45;&gt;Node19</title>
<g id="a_edge27_Node000020_Node000019"><a xlink:title=" ">
<path fill="none" stroke="#63b8ff" d="M577,-223.59C568.06,-215.93 555.21,-204.91 544.51,-195.75"/>
<polygon fill="#63b8ff" stroke="#63b8ff" points="546.84,-193.13 536.97,-189.28 542.29,-198.45 546.84,-193.13"/>
</a>
</g>
</g>
<!-- Node21&#45;&gt;Node10 -->
<g id="edge32_Node000021_Node000010" class="edge">
<title>Node21&#45;&gt;Node10</title>
<g id="a_edge32_Node000021_Node000010"><a xlink:title=" ">
<path fill="none" stroke="#63b8ff" d="M124.07,-223.61C167.4,-209.02 255.22,-181.23 331.98,-168 556.58,-129.27 832.01,-123.78 925.86,-123.08"/>
<polygon fill="#63b8ff" stroke="#63b8ff" points="925.64,-126.58 935.62,-123.02 925.6,-119.58 925.64,-126.58"/>
</a>
</g>
</g>
<!-- Node21&#45;&gt;Node18 -->
<g id="edge30_Node000021_Node000018" class="edge">
<title>Node21&#45;&gt;Node18</title>
<g id="a_edge30_Node000021_Node000018"><a xlink:title=" ">
<path fill="none" stroke="#63b8ff" d="M146.07,-223.53C197.69,-213.58 278.35,-198.02 329.39,-188.18"/>
<polygon fill="#63b8ff" stroke="#63b8ff" points="329.8,-191.66 338.96,-186.33 328.47,-184.79 329.8,-191.66"/>
</a>
</g>
</g>
<!-- Node21&#45;&gt;Node19 -->
<g id="edge31_Node000021_Node000019" class="edge">
<title>Node21&#45;&gt;Node19</title>
<g id="a_edge31_Node000021_Node000019"><a xlink:title=" ">
<path fill="none" stroke="#63b8ff" d="M164.79,-224.44C249.16,-213.8 391.57,-195.83 469.66,-185.98"/>
<polygon fill="#63b8ff" stroke="#63b8ff" points="469.71,-189.5 479.2,-184.78 468.84,-182.56 469.71,-189.5"/>
</a>
</g>
</g>
<!-- Node22 -->
<g id="Node000022" class="node">
<title>Node22</title>
<g id="a_Node000022"><a xlink:title=" ">
<polygon fill="#e0e0e0" stroke="#999999" points="138.35,-188 55.6,-188 55.6,-168 138.35,-168 138.35,-188"/>
<text xml:space="preserve" text-anchor="middle" x="96.98" y="-174.5" font-family="Helvetica,sans-Serif" font-size="10.00">appcommand.h</text>
</a>
</g>
</g>
<!-- Node21&#45;&gt;Node22 -->
<g id="edge29_Node000021_Node000022" class="edge">
<title>Node21&#45;&gt;Node22</title>
<g id="a_edge29_Node000021_Node000022"><a xlink:title=" ">
<path fill="none" stroke="#63b8ff" d="M96.98,-223.59C96.98,-217.01 96.98,-207.96 96.98,-199.73"/>
<polygon fill="#63b8ff" stroke="#63b8ff" points="100.48,-199.81 96.98,-189.81 93.48,-199.81 100.48,-199.81"/>
</a>
</g>
</g>
<!-- Node23&#45;&gt;Node18 -->
<g id="edge34_Node000023_Node000018" class="edge">
<title>Node23&#45;&gt;Node18</title>
<g id="a_edge34_Node000023_Node000018"><a xlink:title=" ">
<path fill="none" stroke="#63b8ff" d="M658.58,-223.59C592.07,-213.06 485.62,-196.2 424.42,-186.51"/>
<polygon fill="#63b8ff" stroke="#63b8ff" points="425.1,-183.08 414.67,-184.97 424,-189.99 425.1,-183.08"/>
</a>
</g>
</g>
<!-- Node23&#45;&gt;Node19 -->
<g id="edge35_Node000023_Node000019" class="edge">
<title>Node23&#45;&gt;Node19</title>
<g id="a_edge35_Node000023_Node000019"><a xlink:title=" ">
<path fill="none" stroke="#63b8ff" d="M684.36,-223.59C652.59,-214.71 604.71,-201.31 569.73,-191.52"/>
<polygon fill="#63b8ff" stroke="#63b8ff" points="570.89,-188.21 560.31,-188.89 569,-194.95 570.89,-188.21"/>
</a>
</g>
</g>
<!-- Node24&#45;&gt;Node18 -->
<g id="edge37_Node000024_Node000018" class="edge">
<title>Node24&#45;&gt;Node18</title>
<g id="a_edge37_Node000024_Node000018"><a xlink:title=" ">
<path fill="none" stroke="#63b8ff" d="M980.54,-224.9C977.65,-224.58 974.78,-224.28 971.98,-224 750.29,-201.79 694,-206.51 471.98,-188 456.58,-186.72 439.8,-185.17 424.69,-183.73"/>
<polygon fill="#63b8ff" stroke="#63b8ff" points="425.3,-180.27 415.01,-182.8 424.62,-187.24 425.3,-180.27"/>
</a>
</g>
</g>
<!-- Node24&#45;&gt;Node19 -->
<g id="edge38_Node000024_Node000019" class="edge">
<title>Node24&#45;&gt;Node19</title>
<g id="a_edge38_Node000024_Node000019"><a xlink:title=" ">
<path fill="none" stroke="#63b8ff" d="M980.53,-225C977.64,-224.66 974.78,-224.32 971.98,-224 831.36,-207.89 665.49,-192.01 580.83,-184.12"/>
<polygon fill="#63b8ff" stroke="#63b8ff" points="581.22,-180.65 570.94,-183.21 580.57,-187.62 581.22,-180.65"/>
</a>
</g>
</g>
<!-- Node25&#45;&gt;Node18 -->
<g id="edge40_Node000025_Node000018" class="edge">
<title>Node25&#45;&gt;Node18</title>
<g id="a_edge40_Node000025_Node000018"><a xlink:title=" ">
<path fill="none" stroke="#63b8ff" d="M335.69,-223.59C342.57,-216.16 352.37,-205.58 360.7,-196.58"/>
<polygon fill="#63b8ff" stroke="#63b8ff" points="363.11,-199.12 367.34,-189.41 357.98,-194.37 363.11,-199.12"/>
</a>
</g>
</g>
<!-- Node25&#45;&gt;Node19 -->
<g id="edge41_Node000025_Node000019" class="edge">
<title>Node25&#45;&gt;Node19</title>
<g id="a_edge41_Node000025_Node000019"><a xlink:title=" ">
<path fill="none" stroke="#63b8ff" d="M361.47,-223.59C394.2,-214.67 443.6,-201.19 479.53,-191.39"/>
<polygon fill="#63b8ff" stroke="#63b8ff" points="480.03,-194.89 488.76,-188.88 478.19,-188.13 480.03,-194.89"/>
</a>
</g>
</g>
<!-- Node26&#45;&gt;Node18 -->
<g id="edge50_Node000026_Node000018" class="edge">
<title>Node26&#45;&gt;Node18</title>
<g id="a_edge50_Node000026_Node000018"><a xlink:title=" ">
<path fill="none" stroke="#63b8ff" d="M243.19,-223.59C269.4,-214.86 308.66,-201.77 337.88,-192.03"/>
<polygon fill="#63b8ff" stroke="#63b8ff" points="338.72,-195.44 347.1,-188.96 336.51,-188.8 338.72,-195.44"/>
</a>
</g>
</g>
<!-- Node26&#45;&gt;Node19 -->
<g id="edge51_Node000026_Node000019" class="edge">
<title>Node26&#45;&gt;Node19</title>
<g id="a_edge51_Node000026_Node000019"><a xlink:title=" ">
<path fill="none" stroke="#63b8ff" d="M247.96,-225.79C251.01,-225.16 254.05,-224.56 256.98,-224 330.31,-209.99 415.38,-196.11 469.66,-187.55"/>
<polygon fill="#63b8ff" stroke="#63b8ff" points="469.93,-191.05 479.27,-186.04 468.85,-184.13 469.93,-191.05"/>
</a>
</g>
</g>
</g>
</svg>
