<?xml version="1.0" encoding="UTF-8" standalone="no"?>
<!DOCTYPE svg PUBLIC "-//W3C//DTD SVG 1.1//EN"
 "http://www.w3.org/Graphics/SVG/1.1/DTD/svg11.dtd">
<!-- Generated by graphviz version 14.1.5 (0)
 -->
<!-- Title: src/bot_library/bot/include/BotSlashCommandRegistrar.hpp Pages: 1 -->
<svg width="326pt" height="108pt"
 viewBox="0.00 0.00 326.00 108.00" xmlns="http://www.w3.org/2000/svg" xmlns:xlink="http://www.w3.org/1999/xlink">
<g id="graph0" class="graph" transform="scale(1 1) rotate(0) translate(4 104)">
<title>src/bot_library/bot/include/BotSlashCommandRegistrar.hpp</title>
<!-- Node1 -->
<g id="Node000001" class="node">
<title>Node1</title>
<g id="a_Node000001"><a xlink:title=" ">
<polygon fill="#999999" stroke="#666666" points="250.75,-100 54.75,-100 54.75,-68 250.75,-68 250.75,-100"/>
<text xml:space="preserve" text-anchor="start" x="62.75" y="-86.5" font-family="Helvetica,sans-Serif" font-size="10.00">src/bot_library/bot</text>
<text xml:space="preserve" text-anchor="middle" x="152.75" y="-74.5" font-family="Helvetica,sans-Serif" font-size="10.00">/include/BotSlashCommandRegistrar.hpp</text>
</a>
</g>
</g>
<!-- Node2 -->
<g id="Node000002" class="node">
<title>Node2</title>
<g id="a_Node000002"><a xlink:href="BotEventSubscriptions_8cpp.html" target="_top" xlink:title=" ">
<polygon fill="white" stroke="#666666" points="137.5,-32 0,-32 0,0 137.5,0 137.5,-32"/>
<text xml:space="preserve" text-anchor="start" x="8" y="-18.5" font-family="Helvetica,sans-Serif" font-size="10.00">src/bot_library/bot</text>
<text xml:space="preserve" text-anchor="middle" x="68.75" y="-6.5" font-family="Helvetica,sans-Serif" font-size="10.00">/BotEventSubscriptions.cpp</text>
</a>
</g>
</g>
<!-- Node1&#45;&gt;Node2 -->
<g id="edge1_Node000001_Node000002" class="edge">
<title>Node1&#45;&gt;Node2</title>
<g id="a_edge1_Node000001_Node000002"><a xlink:title=" ">
<path fill="none" stroke="#63b8ff" d="M124.24,-60.6C112.45,-51.34 99.08,-40.83 88.42,-32.45"/>
<polygon fill="#63b8ff" stroke="#63b8ff" points="122.05,-63.33 132.08,-66.76 126.38,-57.83 122.05,-63.33"/>
</a>
</g>
</g>
<!-- Node3 -->
<g id="Node000003" class="node">
<title>Node3</title>
<g id="a_Node000003"><a xlink:href="BotSlashCommandRegistrar_8cpp.html" target="_top" xlink:title=" ">
<polygon fill="white" stroke="#666666" points="317.88,-32 155.62,-32 155.62,0 317.88,0 317.88,-32"/>
<text xml:space="preserve" text-anchor="start" x="163.62" y="-18.5" font-family="Helvetica,sans-Serif" font-size="10.00">src/bot_library/bot</text>
<text xml:space="preserve" text-anchor="middle" x="236.75" y="-6.5" font-family="Helvetica,sans-Serif" font-size="10.00">/BotSlashCommandRegistrar.cpp</text>
</a>
</g>
</g>
<!-- Node1&#45;&gt;Node3 -->
<g id="edge2_Node000001_Node000003" class="edge">
<title>Node1&#45;&gt;Node3</title>
<g id="a_edge2_Node000001_Node000003"><a xlink:title=" ">
<path fill="none" stroke="#63b8ff" d="M181.26,-60.6C193.05,-51.34 206.42,-40.83 217.08,-32.45"/>
<polygon fill="#63b8ff" stroke="#63b8ff" points="179.12,-57.83 173.42,-66.76 183.45,-63.33 179.12,-57.83"/>
</a>
</g>
</g>
</g>
</svg>
