<?xml version="1.0" encoding="UTF-8" standalone="no"?>
<!DOCTYPE svg PUBLIC "-//W3C//DTD SVG 1.1//EN"
 "http://www.w3.org/Graphics/SVG/1.1/DTD/svg11.dtd">
<!-- Generated by graphviz version 9.0.0 (0)
 -->
<!-- Title: src/bot_library/commands/challenge_role/ChallengeRoleDTO.cpp Pages: 1 -->
<svg width="1653pt" height="320pt"
 viewBox="0.00 0.00 1652.79 320.00" xmlns="http://www.w3.org/2000/svg" xmlns:xlink="http://www.w3.org/1999/xlink">
<g id="graph0" class="graph" transform="scale(1 1) rotate(0) translate(4 316)">
<title>src/bot_library/commands/challenge_role/ChallengeRoleDTO.cpp</title>
<!-- Node1 -->
<g id="Node000001" class="node">
<title>Node1</title>
<g id="a_Node000001"><a xlink:title=" ">
<polygon fill="#999999" stroke="#666666" points="428.54,-312 240.79,-312 240.79,-280 428.54,-280 428.54,-312"/>
<text text-anchor="start" x="248.79" y="-298.5" font-family="Helvetica,sans-Serif" font-size="10.00">src/bot_library/commands</text>
<text text-anchor="middle" x="334.67" y="-286.5" font-family="Helvetica,sans-Serif" font-size="10.00">/challenge_role/ChallengeRoleDTO.cpp</text>
</a>
</g>
</g>
<!-- Node2 -->
<g id="Node000002" class="node">
<title>Node2</title>
<g id="a_Node000002"><a xlink:href="ChallengeRoleDTO_8hpp.html" target="_top" xlink:title=" ">
<polygon fill="white" stroke="#666666" points="475.42,-132 355.92,-132 355.92,-112 475.42,-112 475.42,-132"/>
<text text-anchor="middle" x="415.67" y="-118.5" font-family="Helvetica,sans-Serif" font-size="10.00">ChallengeRoleDTO.hpp</text>
</a>
</g>
</g>
<!-- Node1&#45;&gt;Node2 -->
<g id="edge1_Node000001_Node000002" class="edge">
<title>Node1&#45;&gt;Node2</title>
<g id="a_edge1_Node000001_Node000002"><a xlink:title=" ">
<path fill="none" stroke="#63b8ff" d="M303.55,-279.58C260.24,-256.08 190.65,-209.65 223.67,-168 238.78,-148.94 296.28,-137.17 344.45,-130.48"/>
<polygon fill="#63b8ff" stroke="#63b8ff" points="344.87,-133.95 354.32,-129.16 343.95,-127.01 344.87,-133.95"/>
</a>
</g>
</g>
<!-- Node6 -->
<g id="Node000006" class="node">
<title>Node6</title>
<g id="a_Node000006"><a xlink:href="ChallengeRoleCommand_8hpp.html" target="_top" xlink:title=" ">
<polygon fill="white" stroke="#666666" points="573.42,-244 429.92,-244 429.92,-224 573.42,-224 573.42,-244"/>
<text text-anchor="middle" x="501.67" y="-230.5" font-family="Helvetica,sans-Serif" font-size="10.00">ChallengeRoleCommand.hpp</text>
</a>
</g>
</g>
<!-- Node1&#45;&gt;Node6 -->
<g id="edge5_Node000001_Node000006" class="edge">
<title>Node1&#45;&gt;Node6</title>
<g id="a_edge5_Node000001_Node000006"><a xlink:title=" ">
<path fill="none" stroke="#63b8ff" d="M377.67,-279.55C404.61,-269.87 438.97,-257.53 464.68,-248.29"/>
<polygon fill="#63b8ff" stroke="#63b8ff" points="465.83,-251.59 474.06,-244.92 463.46,-245.01 465.83,-251.59"/>
</a>
</g>
</g>
<!-- Node3 -->
<g id="Node000003" class="node">
<title>Node3</title>
<g id="a_Node000003"><a xlink:href="RowDTOAdapter_8hpp.html" target="_top" xlink:title=" ">
<polygon fill="white" stroke="#666666" points="470.54,-76 360.79,-76 360.79,-56 470.54,-56 470.54,-76"/>
<text text-anchor="middle" x="415.67" y="-62.5" font-family="Helvetica,sans-Serif" font-size="10.00">RowDTOAdapter.hpp</text>
</a>
</g>
</g>
<!-- Node2&#45;&gt;Node3 -->
<g id="edge2_Node000002_Node000003" class="edge">
<title>Node2&#45;&gt;Node3</title>
<g id="a_edge2_Node000002_Node000003"><a xlink:title=" ">
<path fill="none" stroke="#63b8ff" d="M415.67,-111.59C415.67,-105.01 415.67,-95.96 415.67,-87.73"/>
<polygon fill="#63b8ff" stroke="#63b8ff" points="419.17,-87.81 415.67,-77.81 412.17,-87.81 419.17,-87.81"/>
</a>
</g>
</g>
<!-- Node5 -->
<g id="Node000005" class="node">
<title>Node5</title>
<g id="a_Node000005"><a xlink:title=" ">
<polygon fill="#e0e0e0" stroke="#999999" points="528.67,-76 488.67,-76 488.67,-56 528.67,-56 528.67,-76"/>
<text text-anchor="middle" x="508.67" y="-62.5" font-family="Helvetica,sans-Serif" font-size="10.00">string</text>
</a>
</g>
</g>
<!-- Node2&#45;&gt;Node5 -->
<g id="edge4_Node000002_Node000005" class="edge">
<title>Node2&#45;&gt;Node5</title>
<g id="a_edge4_Node000002_Node000005"><a xlink:title=" ">
<path fill="none" stroke="#63b8ff" d="M431.86,-111.59C445.91,-103.44 466.5,-91.48 482.82,-82"/>
<polygon fill="#63b8ff" stroke="#63b8ff" points="484.14,-85.29 491.03,-77.24 480.63,-79.23 484.14,-85.29"/>
</a>
</g>
</g>
<!-- Node4 -->
<g id="Node000004" class="node">
<title>Node4</title>
<g id="a_Node000004"><a xlink:title=" ">
<polygon fill="#e0e0e0" stroke="#999999" points="233.17,-20 172.17,-20 172.17,0 233.17,0 233.17,-20"/>
<text text-anchor="middle" x="202.67" y="-6.5" font-family="Helvetica,sans-Serif" font-size="10.00">pqxx/pqxx</text>
</a>
</g>
</g>
<!-- Node3&#45;&gt;Node4 -->
<g id="edge3_Node000003_Node000004" class="edge">
<title>Node3&#45;&gt;Node4</title>
<g id="a_edge3_Node000003_Node000004"><a xlink:title=" ">
<path fill="none" stroke="#63b8ff" d="M378.56,-55.59C341.14,-46.11 283.46,-31.48 244.44,-21.59"/>
<polygon fill="#63b8ff" stroke="#63b8ff" points="245.49,-18.25 234.94,-19.18 243.77,-25.03 245.49,-18.25"/>
</a>
</g>
</g>
<!-- Node6&#45;&gt;Node5 -->
<g id="edge45_Node000006_Node000005" class="edge">
<title>Node6&#45;&gt;Node5</title>
<g id="a_edge45_Node000006_Node000005"><a xlink:title=" ">
<path fill="none" stroke="#63b8ff" d="M506.35,-223.63C510.52,-214.72 516.33,-200.82 518.67,-188 525.05,-153.04 518.69,-111.64 513.6,-87.45"/>
<polygon fill="#63b8ff" stroke="#63b8ff" points="517.07,-86.96 511.46,-77.97 510.25,-88.5 517.07,-86.96"/>
</a>
</g>
</g>
<!-- Node7 -->
<g id="Node000007" class="node">
<title>Node7</title>
<g id="a_Node000007"><a xlink:title=" ">
<polygon fill="#e0e0e0" stroke="#999999" points="302.29,-188 233.04,-188 233.04,-168 302.29,-168 302.29,-188"/>
<text text-anchor="middle" x="267.67" y="-174.5" font-family="Helvetica,sans-Serif" font-size="10.00">dpp/colors.h</text>
</a>
</g>
</g>
<!-- Node6&#45;&gt;Node7 -->
<g id="edge6_Node000006_Node000007" class="edge">
<title>Node6&#45;&gt;Node7</title>
<g id="a_edge6_Node000006_Node000007"><a xlink:title=" ">
<path fill="none" stroke="#63b8ff" d="M460.64,-223.53C419.58,-214.06 356.52,-199.5 313.75,-189.64"/>
<polygon fill="#63b8ff" stroke="#63b8ff" points="314.54,-186.23 304.01,-187.39 312.97,-193.05 314.54,-186.23"/>
</a>
</g>
</g>
<!-- Node8 -->
<g id="Node000008" class="node">
<title>Node8</title>
<g id="a_Node000008"><a xlink:title=" ">
<polygon fill="#e0e0e0" stroke="#999999" points="403.04,-188 320.29,-188 320.29,-168 403.04,-168 403.04,-188"/>
<text text-anchor="middle" x="361.67" y="-174.5" font-family="Helvetica,sans-Serif" font-size="10.00">dpp/message.h</text>
</a>
</g>
</g>
<!-- Node6&#45;&gt;Node8 -->
<g id="edge7_Node000006_Node000008" class="edge">
<title>Node6&#45;&gt;Node8</title>
<g id="a_edge7_Node000006_Node000008"><a xlink:title=" ">
<path fill="none" stroke="#63b8ff" d="M477.28,-223.59C455.03,-215.01 421.9,-202.23 396.8,-192.55"/>
<polygon fill="#63b8ff" stroke="#63b8ff" points="398.24,-189.36 387.65,-189.02 395.72,-195.89 398.24,-189.36"/>
</a>
</g>
</g>
<!-- Node9 -->
<g id="Node000009" class="node">
<title>Node9</title>
<g id="a_Node000009"><a xlink:title=" ">
<polygon fill="#e0e0e0" stroke="#999999" points="510.04,-188 421.29,-188 421.29,-168 510.04,-168 510.04,-188"/>
<text text-anchor="middle" x="465.67" y="-174.5" font-family="Helvetica,sans-Serif" font-size="10.00">dpp/restresults.h</text>
</a>
</g>
</g>
<!-- Node6&#45;&gt;Node9 -->
<g id="edge8_Node000006_Node000009" class="edge">
<title>Node6&#45;&gt;Node9</title>
<g id="a_edge8_Node000006_Node000009"><a xlink:title=" ">
<path fill="none" stroke="#63b8ff" d="M495.39,-223.59C490.65,-216.47 483.97,-206.45 478.14,-197.72"/>
<polygon fill="#63b8ff" stroke="#63b8ff" points="481.16,-195.94 472.7,-189.56 475.34,-199.82 481.16,-195.94"/>
</a>
</g>
</g>
<!-- Node10 -->
<g id="Node000010" class="node">
<title>Node10</title>
<g id="a_Node000010"><a xlink:title=" ">
<polygon fill="#e0e0e0" stroke="#999999" points="1644.79,-132 1584.54,-132 1584.54,-112 1644.79,-112 1644.79,-132"/>
<text text-anchor="middle" x="1614.67" y="-118.5" font-family="Helvetica,sans-Serif" font-size="10.00">fmt/core.h</text>
</a>
</g>
</g>
<!-- Node6&#45;&gt;Node10 -->
<g id="edge9_Node000006_Node000010" class="edge">
<title>Node6&#45;&gt;Node10</title>
<g id="a_edge9_Node000006_Node000010"><a xlink:title=" ">
<path fill="none" stroke="#63b8ff" d="M573.73,-229.54C745.48,-220.58 1192.44,-193.07 1572.85,-132.27"/>
<polygon fill="#63b8ff" stroke="#63b8ff" points="1573.27,-135.75 1582.59,-130.7 1572.16,-128.84 1573.27,-135.75"/>
</a>
</g>
</g>
<!-- Node11 -->
<g id="Node000011" class="node">
<title>Node11</title>
<g id="a_Node000011"><a xlink:href="Core_8hpp.html" target="_top" xlink:title=" ">
<polygon fill="white" stroke="#666666" points="939.54,-188 883.79,-188 883.79,-168 939.54,-168 939.54,-188"/>
<text text-anchor="middle" x="911.67" y="-174.5" font-family="Helvetica,sans-Serif" font-size="10.00">Core.hpp</text>
</a>
</g>
</g>
<!-- Node6&#45;&gt;Node11 -->
<g id="edge10_Node000006_Node000011" class="edge">
<title>Node6&#45;&gt;Node11</title>
<g id="a_edge10_Node000006_Node000011"><a xlink:title=" ">
<path fill="none" stroke="#63b8ff" d="M573.55,-223.53C660.39,-212.09 803.38,-193.26 872.22,-184.2"/>
<polygon fill="#63b8ff" stroke="#63b8ff" points="872.44,-187.7 881.89,-182.92 871.52,-180.76 872.44,-187.7"/>
</a>
</g>
</g>
<!-- Node14 -->
<g id="Node000014" class="node">
<title>Node14</title>
<g id="a_Node000014"><a xlink:href="Database_8hpp.html" target="_top" xlink:title=" ">
<polygon fill="white" stroke="#666666" points="262.04,-132 185.29,-132 185.29,-112 262.04,-112 262.04,-132"/>
<text text-anchor="middle" x="223.67" y="-118.5" font-family="Helvetica,sans-Serif" font-size="10.00">Database.hpp</text>
</a>
</g>
</g>
<!-- Node6&#45;&gt;Node14 -->
<g id="edge42_Node000006_Node000014" class="edge">
<title>Node6&#45;&gt;Node14</title>
<g id="a_edge42_Node000006_Node000014"><a xlink:title=" ">
<path fill="none" stroke="#63b8ff" d="M429.49,-231.56C356.11,-228.38 249.61,-218.48 223.67,-188 213.37,-175.9 214.4,-157.46 217.41,-143.3"/>
<polygon fill="#63b8ff" stroke="#63b8ff" points="220.77,-144.26 219.94,-133.7 214.01,-142.47 220.77,-144.26"/>
</a>
</g>
</g>
<!-- Node28 -->
<g id="Node000028" class="node">
<title>Node28</title>
<g id="a_Node000028"><a xlink:title=" ">
<polygon fill="#e0e0e0" stroke="#999999" points="605.67,-188 565.67,-188 565.67,-168 605.67,-168 605.67,-188"/>
<text text-anchor="middle" x="585.67" y="-174.5" font-family="Helvetica,sans-Serif" font-size="10.00">stack</text>
</a>
</g>
</g>
<!-- Node6&#45;&gt;Node28 -->
<g id="edge43_Node000006_Node000028" class="edge">
<title>Node6&#45;&gt;Node28</title>
<g id="a_edge43_Node000006_Node000028"><a xlink:title=" ">
<path fill="none" stroke="#63b8ff" d="M516.3,-223.59C528.75,-215.59 546.88,-203.93 561.49,-194.54"/>
<polygon fill="#63b8ff" stroke="#63b8ff" points="563.13,-197.65 569.65,-189.3 559.34,-191.76 563.13,-197.65"/>
</a>
</g>
</g>
<!-- Node29 -->
<g id="Node000029" class="node">
<title>Node29</title>
<g id="a_Node000029"><a xlink:title=" ">
<polygon fill="#e0e0e0" stroke="#999999" points="682.04,-188 623.29,-188 623.29,-168 682.04,-168 682.04,-188"/>
<text text-anchor="middle" x="652.67" y="-174.5" font-family="Helvetica,sans-Serif" font-size="10.00">stdexcept</text>
</a>
</g>
</g>
<!-- Node6&#45;&gt;Node29 -->
<g id="edge44_Node000006_Node000029" class="edge">
<title>Node6&#45;&gt;Node29</title>
<g id="a_edge44_Node000006_Node000029"><a xlink:title=" ">
<path fill="none" stroke="#63b8ff" d="M527.97,-223.59C552.18,-214.94 588.34,-202 615.5,-192.29"/>
<polygon fill="#63b8ff" stroke="#63b8ff" points="616.5,-195.65 624.73,-188.99 614.14,-189.06 616.5,-195.65"/>
</a>
</g>
</g>
<!-- Node11&#45;&gt;Node5 -->
<g id="edge41_Node000011_Node000005" class="edge">
<title>Node11&#45;&gt;Node5</title>
<g id="a_edge41_Node000011_Node000005"><a xlink:title=" ">
<path fill="none" stroke="#63b8ff" d="M883.52,-175.88C811.21,-172.61 620.71,-161.37 565.67,-132 545.87,-121.44 529.75,-101.04 519.77,-85.9"/>
<polygon fill="#63b8ff" stroke="#63b8ff" points="522.94,-84.36 514.67,-77.73 517,-88.07 522.94,-84.36"/>
</a>
</g>
</g>
<!-- Node11&#45;&gt;Node10 -->
<g id="edge13_Node000011_Node000010" class="edge">
<title>Node11&#45;&gt;Node10</title>
<g id="a_edge13_Node000011_Node000010"><a xlink:title=" ">
<path fill="none" stroke="#63b8ff" d="M939.99,-176.69C1030.76,-175.35 1322.64,-168.44 1572.96,-132.18"/>
<polygon fill="#63b8ff" stroke="#63b8ff" points="1573.21,-135.68 1582.6,-130.76 1572.2,-128.75 1573.21,-135.68"/>
</a>
</g>
</g>
<!-- Node12 -->
<g id="Node000012" class="node">
<title>Node12</title>
<g id="a_Node000012"><a xlink:title=" ">
<polygon fill="#e0e0e0" stroke="#999999" points="787.04,-132 728.29,-132 728.29,-112 787.04,-112 787.04,-132"/>
<text text-anchor="middle" x="757.67" y="-118.5" font-family="Helvetica,sans-Serif" font-size="10.00">dpp/dpp.h</text>
</a>
</g>
</g>
<!-- Node11&#45;&gt;Node12 -->
<g id="edge11_Node000011_Node000012" class="edge">
<title>Node11&#45;&gt;Node12</title>
<g id="a_edge11_Node000011_Node000012"><a xlink:title=" ">
<path fill="none" stroke="#63b8ff" d="M884.84,-167.59C860.04,-158.9 822.94,-145.89 795.2,-136.16"/>
<polygon fill="#63b8ff" stroke="#63b8ff" points="796.72,-132.99 786.13,-132.98 794.41,-139.59 796.72,-132.99"/>
</a>
</g>
</g>
<!-- Node13 -->
<g id="Node000013" class="node">
<title>Node13</title>
<g id="a_Node000013"><a xlink:title=" ">
<polygon fill="#e0e0e0" stroke="#999999" points="896.17,-132 805.17,-132 805.17,-112 896.17,-112 896.17,-132"/>
<text text-anchor="middle" x="850.67" y="-118.5" font-family="Helvetica,sans-Serif" font-size="10.00">dpp/misc&#45;enum.h</text>
</a>
</g>
</g>
<!-- Node11&#45;&gt;Node13 -->
<g id="edge12_Node000011_Node000013" class="edge">
<title>Node11&#45;&gt;Node13</title>
<g id="a_edge12_Node000011_Node000013"><a xlink:title=" ">
<path fill="none" stroke="#63b8ff" d="M901.04,-167.59C892.38,-159.93 879.94,-148.91 869.58,-139.75"/>
<polygon fill="#63b8ff" stroke="#63b8ff" points="872.11,-137.31 862.3,-133.3 867.47,-142.55 872.11,-137.31"/>
</a>
</g>
</g>
<!-- Node11&#45;&gt;Node14 -->
<g id="edge14_Node000011_Node000014" class="edge">
<title>Node11&#45;&gt;Node14</title>
<g id="a_edge14_Node000011_Node000014"><a xlink:title=" ">
<path fill="none" stroke="#63b8ff" d="M883.41,-174.78C778.25,-166.53 408.65,-137.52 273.57,-126.92"/>
<polygon fill="#63b8ff" stroke="#63b8ff" points="274.13,-123.45 263.88,-126.16 273.58,-130.43 274.13,-123.45"/>
</a>
</g>
</g>
<!-- Node20 -->
<g id="Node000020" class="node">
<title>Node20</title>
<g id="a_Node000020"><a xlink:href="IButtonCommand_8hpp.html" target="_top" xlink:title=" ">
<polygon fill="white" stroke="#666666" points="1162.29,-132 1051.04,-132 1051.04,-112 1162.29,-112 1162.29,-132"/>
<text text-anchor="middle" x="1106.67" y="-118.5" font-family="Helvetica,sans-Serif" font-size="10.00">IButtonCommand.hpp</text>
</a>
</g>
</g>
<!-- Node11&#45;&gt;Node20 -->
<g id="edge23_Node000011_Node000020" class="edge">
<title>Node11&#45;&gt;Node20</title>
<g id="a_edge23_Node000011_Node000020"><a xlink:title=" ">
<path fill="none" stroke="#63b8ff" d="M940.02,-169.15C971.94,-160.31 1024.23,-145.83 1061.72,-135.45"/>
<polygon fill="#63b8ff" stroke="#63b8ff" points="1062.2,-138.95 1070.9,-132.9 1060.33,-132.2 1062.2,-138.95"/>
</a>
</g>
</g>
<!-- Node23 -->
<g id="Node000023" class="node">
<title>Node23</title>
<g id="a_Node000023"><a xlink:href="IFormCommand_8hpp.html" target="_top" xlink:title=" ">
<polygon fill="white" stroke="#666666" points="1566.29,-132 1461.04,-132 1461.04,-112 1566.29,-112 1566.29,-132"/>
<text text-anchor="middle" x="1513.67" y="-118.5" font-family="Helvetica,sans-Serif" font-size="10.00">IFormCommand.hpp</text>
</a>
</g>
</g>
<!-- Node11&#45;&gt;Node23 -->
<g id="edge26_Node000011_Node000023" class="edge">
<title>Node11&#45;&gt;Node23</title>
<g id="a_edge26_Node000011_Node000023"><a xlink:title=" ">
<path fill="none" stroke="#63b8ff" d="M939.83,-175.26C1018.53,-170.27 1247.6,-154.88 1449.19,-132.21"/>
<polygon fill="#63b8ff" stroke="#63b8ff" points="1449.55,-135.7 1459.09,-131.09 1448.76,-128.74 1449.55,-135.7"/>
</a>
</g>
</g>
<!-- Node24 -->
<g id="Node000024" class="node">
<title>Node24</title>
<g id="a_Node000024"><a xlink:href="IGlobalSlashCommand_8hpp.html" target="_top" xlink:title=" ">
<polygon fill="white" stroke="#666666" points="710.29,-132 575.04,-132 575.04,-112 710.29,-112 710.29,-132"/>
<text text-anchor="middle" x="642.67" y="-118.5" font-family="Helvetica,sans-Serif" font-size="10.00">IGlobalSlashCommand.hpp</text>
</a>
</g>
</g>
<!-- Node11&#45;&gt;Node24 -->
<g id="edge29_Node000011_Node000024" class="edge">
<title>Node11&#45;&gt;Node24</title>
<g id="a_edge29_Node000011_Node000024"><a xlink:title=" ">
<path fill="none" stroke="#63b8ff" d="M883.39,-171.32C840.35,-162.68 757.49,-146.05 701.14,-134.74"/>
<polygon fill="#63b8ff" stroke="#63b8ff" points="701.87,-131.31 691.37,-132.78 700.49,-138.18 701.87,-131.31"/>
</a>
</g>
</g>
<!-- Node25 -->
<g id="Node000025" class="node">
<title>Node25</title>
<g id="a_Node000025"><a xlink:href="IMemberCommand_8hpp.html" target="_top" xlink:title=" ">
<polygon fill="white" stroke="#666666" points="1032.67,-132 914.67,-132 914.67,-112 1032.67,-112 1032.67,-132"/>
<text text-anchor="middle" x="973.67" y="-118.5" font-family="Helvetica,sans-Serif" font-size="10.00">IMemberCommand.hpp</text>
</a>
</g>
</g>
<!-- Node11&#45;&gt;Node25 -->
<g id="edge32_Node000011_Node000025" class="edge">
<title>Node11&#45;&gt;Node25</title>
<g id="a_edge32_Node000011_Node000025"><a xlink:title=" ">
<path fill="none" stroke="#63b8ff" d="M922.47,-167.59C931.27,-159.93 943.92,-148.91 954.44,-139.75"/>
<polygon fill="#63b8ff" stroke="#63b8ff" points="956.61,-142.5 961.85,-133.29 952.01,-137.22 956.61,-142.5"/>
</a>
</g>
</g>
<!-- Node26 -->
<g id="Node000026" class="node">
<title>Node26</title>
<g id="a_Node000026"><a xlink:href="IMessageCommand_8hpp.html" target="_top" xlink:title=" ">
<polygon fill="white" stroke="#666666" points="1302.92,-132 1180.42,-132 1180.42,-112 1302.92,-112 1302.92,-132"/>
<text text-anchor="middle" x="1241.67" y="-118.5" font-family="Helvetica,sans-Serif" font-size="10.00">IMessageCommand.hpp</text>
</a>
</g>
</g>
<!-- Node11&#45;&gt;Node26 -->
<g id="edge35_Node000011_Node000026" class="edge">
<title>Node11&#45;&gt;Node26</title>
<g id="a_edge35_Node000011_Node000026"><a xlink:title=" ">
<path fill="none" stroke="#63b8ff" d="M939.8,-172.4C990.92,-164.03 1100.4,-146.12 1172.51,-134.32"/>
<polygon fill="#63b8ff" stroke="#63b8ff" points="1172.95,-137.79 1182.25,-132.72 1171.82,-130.88 1172.95,-137.79"/>
</a>
</g>
</g>
<!-- Node27 -->
<g id="Node000027" class="node">
<title>Node27</title>
<g id="a_Node000027"><a xlink:href="IReactionCommand_8hpp.html" target="_top" xlink:title=" ">
<polygon fill="white" stroke="#666666" points="1442.54,-132 1320.79,-132 1320.79,-112 1442.54,-112 1442.54,-132"/>
<text text-anchor="middle" x="1381.67" y="-118.5" font-family="Helvetica,sans-Serif" font-size="10.00">IReactionCommand.hpp</text>
</a>
</g>
</g>
<!-- Node11&#45;&gt;Node27 -->
<g id="edge38_Node000011_Node000027" class="edge">
<title>Node11&#45;&gt;Node27</title>
<g id="a_edge38_Node000011_Node000027"><a xlink:title=" ">
<path fill="none" stroke="#63b8ff" d="M939.81,-173.99C1003.5,-167.14 1163.79,-149.72 1309.25,-132.27"/>
<polygon fill="#63b8ff" stroke="#63b8ff" points="1309.58,-135.76 1319.09,-131.09 1308.74,-128.81 1309.58,-135.76"/>
</a>
</g>
</g>
<!-- Node14&#45;&gt;Node3 -->
<g id="edge22_Node000014_Node000003" class="edge">
<title>Node14&#45;&gt;Node3</title>
<g id="a_edge22_Node000014_Node000003"><a xlink:title=" ">
<path fill="none" stroke="#63b8ff" d="M257.11,-111.59C288.71,-102.71 336.34,-89.31 371.15,-79.52"/>
<polygon fill="#63b8ff" stroke="#63b8ff" points="371.82,-82.97 380.5,-76.89 369.93,-76.23 371.82,-82.97"/>
</a>
</g>
</g>
<!-- Node14&#45;&gt;Node4 -->
<g id="edge18_Node000014_Node000004" class="edge">
<title>Node14&#45;&gt;Node4</title>
<g id="a_edge18_Node000014_Node000004"><a xlink:title=" ">
<path fill="none" stroke="#63b8ff" d="M185.18,-118.61C129.44,-114.25 30.49,-102.86 8.67,-76 -33.57,-24.01 91.7,-13.34 160.61,-11.33"/>
<polygon fill="#63b8ff" stroke="#63b8ff" points="160.53,-14.83 170.45,-11.1 160.37,-7.84 160.53,-14.83"/>
</a>
</g>
</g>
<!-- Node14&#45;&gt;Node5 -->
<g id="edge19_Node000014_Node000005" class="edge">
<title>Node14&#45;&gt;Node5</title>
<g id="a_edge19_Node000014_Node000005"><a xlink:title=" ">
<path fill="none" stroke="#63b8ff" d="M262.15,-115.79C310.35,-108.93 395.62,-95.67 477.47,-76.27"/>
<polygon fill="#63b8ff" stroke="#63b8ff" points="478.1,-79.72 487,-73.98 476.46,-72.92 478.1,-79.72"/>
</a>
</g>
</g>
<!-- Node15 -->
<g id="Node000015" class="node">
<title>Node15</title>
<g id="a_Node000015"><a xlink:title=" ">
<polygon fill="#e0e0e0" stroke="#999999" points="65.79,-76 17.54,-76 17.54,-56 65.79,-56 65.79,-76"/>
<text text-anchor="middle" x="41.67" y="-62.5" font-family="Helvetica,sans-Serif" font-size="10.00">cstddef</text>
</a>
</g>
</g>
<!-- Node14&#45;&gt;Node15 -->
<g id="edge15_Node000014_Node000015" class="edge">
<title>Node14&#45;&gt;Node15</title>
<g id="a_edge15_Node000014_Node000015"><a xlink:title=" ">
<path fill="none" stroke="#63b8ff" d="M191.96,-111.59C159.76,-102.04 109.99,-87.27 76.65,-77.38"/>
<polygon fill="#63b8ff" stroke="#63b8ff" points="78.06,-74.15 67.47,-74.66 76.06,-80.86 78.06,-74.15"/>
</a>
</g>
</g>
<!-- Node16 -->
<g id="Node000016" class="node">
<title>Node16</title>
<g id="a_Node000016"><a xlink:title=" ">
<polygon fill="#e0e0e0" stroke="#999999" points="137.42,-76 83.92,-76 83.92,-56 137.42,-56 137.42,-76"/>
<text text-anchor="middle" x="110.67" y="-62.5" font-family="Helvetica,sans-Serif" font-size="10.00">iostream</text>
</a>
</g>
</g>
<!-- Node14&#45;&gt;Node16 -->
<g id="edge16_Node000014_Node000016" class="edge">
<title>Node14&#45;&gt;Node16</title>
<g id="a_edge16_Node000014_Node000016"><a xlink:title=" ">
<path fill="none" stroke="#63b8ff" d="M203.98,-111.59C186.51,-103.24 160.71,-90.92 140.67,-81.34"/>
<polygon fill="#63b8ff" stroke="#63b8ff" points="142.4,-78.29 131.87,-77.13 139.38,-84.6 142.4,-78.29"/>
</a>
</g>
</g>
<!-- Node17 -->
<g id="Node000017" class="node">
<title>Node17</title>
<g id="a_Node000017"><a xlink:title=" ">
<polygon fill="#e0e0e0" stroke="#999999" points="205.54,-76 155.79,-76 155.79,-56 205.54,-56 205.54,-76"/>
<text text-anchor="middle" x="180.67" y="-62.5" font-family="Helvetica,sans-Serif" font-size="10.00">optional</text>
</a>
</g>
</g>
<!-- Node14&#45;&gt;Node17 -->
<g id="edge17_Node000014_Node000017" class="edge">
<title>Node14&#45;&gt;Node17</title>
<g id="a_edge17_Node000014_Node000017"><a xlink:title=" ">
<path fill="none" stroke="#63b8ff" d="M216.18,-111.59C210.38,-104.32 202.18,-94.02 195.12,-85.15"/>
<polygon fill="#63b8ff" stroke="#63b8ff" points="197.98,-83.12 189.01,-77.48 192.5,-87.49 197.98,-83.12"/>
</a>
</g>
</g>
<!-- Node18 -->
<g id="Node000018" class="node">
<title>Node18</title>
<g id="a_Node000018"><a xlink:title=" ">
<polygon fill="#e0e0e0" stroke="#999999" points="281.67,-76 223.67,-76 223.67,-56 281.67,-56 281.67,-76"/>
<text text-anchor="middle" x="252.67" y="-62.5" font-family="Helvetica,sans-Serif" font-size="10.00">typeindex</text>
</a>
</g>
</g>
<!-- Node14&#45;&gt;Node18 -->
<g id="edge20_Node000014_Node000018" class="edge">
<title>Node14&#45;&gt;Node18</title>
<g id="a_edge20_Node000014_Node000018"><a xlink:title=" ">
<path fill="none" stroke="#63b8ff" d="M228.72,-111.59C232.46,-104.63 237.69,-94.89 242.31,-86.29"/>
<polygon fill="#63b8ff" stroke="#63b8ff" points="245.31,-88.1 246.96,-77.63 239.14,-84.79 245.31,-88.1"/>
</a>
</g>
</g>
<!-- Node19 -->
<g id="Node000019" class="node">
<title>Node19</title>
<g id="a_Node000019"><a xlink:title=" ">
<polygon fill="#e0e0e0" stroke="#999999" points="343.17,-76 300.17,-76 300.17,-56 343.17,-56 343.17,-76"/>
<text text-anchor="middle" x="321.67" y="-62.5" font-family="Helvetica,sans-Serif" font-size="10.00">vector</text>
</a>
</g>
</g>
<!-- Node14&#45;&gt;Node19 -->
<g id="edge21_Node000014_Node000019" class="edge">
<title>Node14&#45;&gt;Node19</title>
<g id="a_edge21_Node000014_Node000019"><a xlink:title=" ">
<path fill="none" stroke="#63b8ff" d="M240.74,-111.59C255.54,-103.44 277.23,-91.48 294.43,-82"/>
<polygon fill="#63b8ff" stroke="#63b8ff" points="296.07,-85.1 303.14,-77.21 292.69,-78.97 296.07,-85.1"/>
</a>
</g>
</g>
<!-- Node21 -->
<g id="Node000021" class="node">
<title>Node21</title>
<g id="a_Node000021"><a xlink:title=" ">
<polygon fill="#e0e0e0" stroke="#999999" points="1267.79,-76 1195.54,-76 1195.54,-56 1267.79,-56 1267.79,-76"/>
<text text-anchor="middle" x="1231.67" y="-62.5" font-family="Helvetica,sans-Serif" font-size="10.00">dpp/cluster.h</text>
</a>
</g>
</g>
<!-- Node20&#45;&gt;Node21 -->
<g id="edge24_Node000020_Node000021" class="edge">
<title>Node20&#45;&gt;Node21</title>
<g id="a_edge24_Node000020_Node000021"><a xlink:title=" ">
<path fill="none" stroke="#63b8ff" d="M1128.44,-111.59C1148.04,-103.13 1177.09,-90.58 1199.39,-80.94"/>
<polygon fill="#63b8ff" stroke="#63b8ff" points="1200.54,-84.26 1208.33,-77.08 1197.76,-77.83 1200.54,-84.26"/>
</a>
</g>
</g>
<!-- Node22 -->
<g id="Node000022" class="node">
<title>Node22</title>
<g id="a_Node000022"><a xlink:title=" ">
<polygon fill="#e0e0e0" stroke="#999999" points="1159.67,-76 1071.67,-76 1071.67,-56 1159.67,-56 1159.67,-76"/>
<text text-anchor="middle" x="1115.67" y="-62.5" font-family="Helvetica,sans-Serif" font-size="10.00">dpp/dispatcher.h</text>
</a>
</g>
</g>
<!-- Node20&#45;&gt;Node22 -->
<g id="edge25_Node000020_Node000022" class="edge">
<title>Node20&#45;&gt;Node22</title>
<g id="a_edge25_Node000020_Node000022"><a xlink:title=" ">
<path fill="none" stroke="#63b8ff" d="M1108.23,-111.59C1109.34,-104.93 1110.87,-95.75 1112.26,-87.44"/>
<polygon fill="#63b8ff" stroke="#63b8ff" points="1115.68,-88.23 1113.87,-77.79 1108.77,-87.08 1115.68,-88.23"/>
</a>
</g>
</g>
<!-- Node23&#45;&gt;Node21 -->
<g id="edge27_Node000023_Node000021" class="edge">
<title>Node23&#45;&gt;Node21</title>
<g id="a_edge27_Node000023_Node000021"><a xlink:title=" ">
<path fill="none" stroke="#63b8ff" d="M1464.22,-111.53C1412.09,-101.55 1330.53,-85.93 1279.15,-76.09"/>
<polygon fill="#63b8ff" stroke="#63b8ff" points="1280,-72.69 1269.52,-74.25 1278.69,-79.57 1280,-72.69"/>
</a>
</g>
</g>
<!-- Node23&#45;&gt;Node22 -->
<g id="edge28_Node000023_Node000022" class="edge">
<title>Node23&#45;&gt;Node22</title>
<g id="a_edge28_Node000023_Node000022"><a xlink:title=" ">
<path fill="none" stroke="#63b8ff" d="M1460.57,-113.25C1457.56,-112.83 1454.57,-112.41 1451.67,-112 1352.9,-98.22 1237.67,-82.97 1171.05,-74.23"/>
<polygon fill="#63b8ff" stroke="#63b8ff" points="1171.86,-70.8 1161.49,-72.97 1170.95,-77.74 1171.86,-70.8"/>
</a>
</g>
</g>
<!-- Node24&#45;&gt;Node21 -->
<g id="edge30_Node000024_Node000021" class="edge">
<title>Node24&#45;&gt;Node21</title>
<g id="a_edge30_Node000024_Node000021"><a xlink:title=" ">
<path fill="none" stroke="#63b8ff" d="M710.67,-112.92C713.71,-112.6 716.72,-112.29 719.67,-112 918.9,-92.38 969.7,-98.17 1168.67,-76 1173.62,-75.45 1178.78,-74.81 1183.92,-74.14"/>
<polygon fill="#63b8ff" stroke="#63b8ff" points="1184.13,-77.64 1193.57,-72.82 1183.19,-70.71 1184.13,-77.64"/>
</a>
</g>
</g>
<!-- Node24&#45;&gt;Node22 -->
<g id="edge31_Node000024_Node000022" class="edge">
<title>Node24&#45;&gt;Node22</title>
<g id="a_edge31_Node000024_Node000022"><a xlink:title=" ">
<path fill="none" stroke="#63b8ff" d="M710.68,-113.04C713.72,-112.69 716.72,-112.34 719.67,-112 841.11,-98 983.54,-81.89 1060.15,-73.25"/>
<polygon fill="#63b8ff" stroke="#63b8ff" points="1060.37,-76.75 1069.91,-72.15 1059.58,-69.79 1060.37,-76.75"/>
</a>
</g>
</g>
<!-- Node25&#45;&gt;Node21 -->
<g id="edge33_Node000025_Node000021" class="edge">
<title>Node25&#45;&gt;Node21</title>
<g id="a_edge33_Node000025_Node000021"><a xlink:title=" ">
<path fill="none" stroke="#63b8ff" d="M1018.9,-111.53C1065.23,-101.84 1136.95,-86.82 1184.11,-76.95"/>
<polygon fill="#63b8ff" stroke="#63b8ff" points="1184.69,-80.41 1193.76,-74.93 1183.26,-73.56 1184.69,-80.41"/>
</a>
</g>
</g>
<!-- Node25&#45;&gt;Node22 -->
<g id="edge34_Node000025_Node000022" class="edge">
<title>Node25&#45;&gt;Node22</title>
<g id="a_edge34_Node000025_Node000022"><a xlink:title=" ">
<path fill="none" stroke="#63b8ff" d="M998.4,-111.59C1020.97,-103.01 1054.57,-90.23 1080.03,-80.55"/>
<polygon fill="#63b8ff" stroke="#63b8ff" points="1081.22,-83.84 1089.32,-77.02 1078.73,-77.3 1081.22,-83.84"/>
</a>
</g>
</g>
<!-- Node26&#45;&gt;Node21 -->
<g id="edge36_Node000026_Node000021" class="edge">
<title>Node26&#45;&gt;Node21</title>
<g id="a_edge36_Node000026_Node000021"><a xlink:title=" ">
<path fill="none" stroke="#63b8ff" d="M1239.92,-111.59C1238.69,-104.93 1236.99,-95.75 1235.45,-87.44"/>
<polygon fill="#63b8ff" stroke="#63b8ff" points="1238.93,-86.98 1233.66,-77.79 1232.04,-88.26 1238.93,-86.98"/>
</a>
</g>
</g>
<!-- Node26&#45;&gt;Node22 -->
<g id="edge37_Node000026_Node000022" class="edge">
<title>Node26&#45;&gt;Node22</title>
<g id="a_edge37_Node000026_Node000022"><a xlink:title=" ">
<path fill="none" stroke="#63b8ff" d="M1219.72,-111.59C1199.96,-103.13 1170.67,-90.58 1148.2,-80.94"/>
<polygon fill="#63b8ff" stroke="#63b8ff" points="1149.75,-77.8 1139.18,-77.08 1146.99,-84.23 1149.75,-77.8"/>
</a>
</g>
</g>
<!-- Node27&#45;&gt;Node21 -->
<g id="edge39_Node000027_Node000021" class="edge">
<title>Node27&#45;&gt;Node21</title>
<g id="a_edge39_Node000027_Node000021"><a xlink:title=" ">
<path fill="none" stroke="#63b8ff" d="M1355.54,-111.59C1331.49,-102.94 1295.56,-90 1268.58,-80.29"/>
<polygon fill="#63b8ff" stroke="#63b8ff" points="1270.02,-77.09 1259.42,-76.99 1267.64,-83.67 1270.02,-77.09"/>
</a>
</g>
</g>
<!-- Node27&#45;&gt;Node22 -->
<g id="edge40_Node000027_Node000022" class="edge">
<title>Node27&#45;&gt;Node22</title>
<g id="a_edge40_Node000027_Node000022"><a xlink:title=" ">
<path fill="none" stroke="#63b8ff" d="M1335.03,-111.53C1289.37,-102.26 1219.79,-88.14 1171.27,-78.29"/>
<polygon fill="#63b8ff" stroke="#63b8ff" points="1172.01,-74.87 1161.52,-76.31 1170.62,-81.73 1172.01,-74.87"/>
</a>
</g>
</g>
</g>
</svg>
