<?xml version="1.0" encoding="UTF-8" standalone="no"?>
<!DOCTYPE svg PUBLIC "-//W3C//DTD SVG 1.1//EN"
 "http://www.w3.org/Graphics/SVG/1.1/DTD/svg11.dtd">
<!-- Generated by graphviz version 10.0.1 (0)
 -->
<!-- Title: src/bot_library/commands/challenge_role/ChallengeRoleCommand.cpp Pages: 1 -->
<svg width="1606pt" height="376pt"
 viewBox="0.00 0.00 1606.38 376.00" xmlns="http://www.w3.org/2000/svg" xmlns:xlink="http://www.w3.org/1999/xlink">
<g id="graph0" class="graph" transform="scale(1 1) rotate(0) translate(4 372)">
<title>src/bot_library/commands/challenge_role/ChallengeRoleCommand.cpp</title>
<!-- Node1 -->
<g id="Node000001" class="node">
<title>Node1</title>
<g id="a_Node000001"><a xlink:title=" ">
<polygon fill="#999999" stroke="#666666" points="583.5,-368 371.75,-368 371.75,-336 583.5,-336 583.5,-368"/>
<text text-anchor="start" x="379.75" y="-354.5" font-family="Helvetica,sans-Serif" font-size="10.00">src/bot_library/commands</text>
<text text-anchor="middle" x="477.62" y="-342.5" font-family="Helvetica,sans-Serif" font-size="10.00">/challenge_role/ChallengeRoleCommand.cpp</text>
</a>
</g>
</g>
<!-- Node2 -->
<g id="Node000002" class="node">
<title>Node2</title>
<g id="a_Node000002"><a xlink:href="ChallengeRoleCommand_8hpp.html" target="_top" xlink:title=" ">
<polygon fill="white" stroke="#666666" points="668.38,-300 524.88,-300 524.88,-280 668.38,-280 668.38,-300"/>
<text text-anchor="middle" x="596.62" y="-286.5" font-family="Helvetica,sans-Serif" font-size="10.00">ChallengeRoleCommand.hpp</text>
</a>
</g>
</g>
<!-- Node1&#45;&gt;Node2 -->
<g id="edge1_Node000001_Node000002" class="edge">
<title>Node1&#45;&gt;Node2</title>
<g id="a_edge1_Node000001_Node000002"><a xlink:title=" ">
<path fill="none" stroke="#63b8ff" d="M508.27,-335.55C526.61,-326.3 549.76,-314.63 567.77,-305.55"/>
<polygon fill="#63b8ff" stroke="#63b8ff" points="569.26,-308.72 576.61,-301.09 566.11,-302.47 569.26,-308.72"/>
</a>
</g>
</g>
<!-- Node4 -->
<g id="Node000004" class="node">
<title>Node4</title>
<g id="a_Node000004"><a xlink:href="Core_8hpp.html" target="_top" xlink:title=" ">
<polygon fill="white" stroke="#666666" points="862.5,-188 806.75,-188 806.75,-168 862.5,-168 862.5,-188"/>
<text text-anchor="middle" x="834.62" y="-174.5" font-family="Helvetica,sans-Serif" font-size="10.00">Core.hpp</text>
</a>
</g>
</g>
<!-- Node1&#45;&gt;Node4 -->
<g id="edge51_Node000001_Node000004" class="edge">
<title>Node1&#45;&gt;Node4</title>
<g id="a_edge51_Node000001_Node000004"><a xlink:title=" ">
<path fill="none" stroke="#63b8ff" d="M482.14,-335.61C491.17,-307.85 514.33,-249.91 556.62,-224 595.95,-199.91 728.31,-186.88 795.21,-181.7"/>
<polygon fill="#63b8ff" stroke="#63b8ff" points="795.3,-185.2 805.01,-180.96 794.78,-178.22 795.3,-185.2"/>
</a>
</g>
</g>
<!-- Node11 -->
<g id="Node000011" class="node">
<title>Node11</title>
<g id="a_Node000011"><a xlink:title=" ">
<polygon fill="#e0e0e0" stroke="#999999" points="45.25,-76 0,-76 0,-56 45.25,-56 45.25,-76"/>
<text text-anchor="middle" x="22.62" y="-62.5" font-family="Helvetica,sans-Serif" font-size="10.00">variant</text>
</a>
</g>
</g>
<!-- Node1&#45;&gt;Node11 -->
<g id="edge52_Node000001_Node000011" class="edge">
<title>Node1&#45;&gt;Node11</title>
<g id="a_edge52_Node000001_Node000011"><a xlink:title=" ">
<path fill="none" stroke="#63b8ff" d="M371.43,-345.84C233.35,-336.18 9.62,-309.08 9.62,-235 9.62,-235 9.62,-235 9.62,-177 9.62,-145.65 14.9,-109.63 18.73,-87.59"/>
<polygon fill="#63b8ff" stroke="#63b8ff" points="22.15,-88.33 20.49,-77.86 15.26,-87.08 22.15,-88.33"/>
</a>
</g>
</g>
<!-- Node14 -->
<g id="Node000014" class="node">
<title>Node14</title>
<g id="a_Node000014"><a xlink:href="IButtonCommand_8hpp.html" target="_top" xlink:title=" ">
<polygon fill="white" stroke="#666666" points="1392.25,-132 1281,-132 1281,-112 1392.25,-112 1392.25,-132"/>
<text text-anchor="middle" x="1336.62" y="-118.5" font-family="Helvetica,sans-Serif" font-size="10.00">IButtonCommand.hpp</text>
</a>
</g>
</g>
<!-- Node1&#45;&gt;Node14 -->
<g id="edge60_Node000001_Node000014" class="edge">
<title>Node1&#45;&gt;Node14</title>
<g id="a_edge60_Node000001_Node000014"><a xlink:title=" ">
<path fill="none" stroke="#63b8ff" d="M575.75,-335.55C713.2,-312.26 969.66,-262.77 1178.62,-188 1223.09,-172.09 1273.37,-150.82 1305.02,-137.02"/>
<polygon fill="#63b8ff" stroke="#63b8ff" points="1306.26,-140.3 1314.02,-133.08 1303.45,-133.89 1306.26,-140.3"/>
</a>
</g>
</g>
<!-- Node17 -->
<g id="Node000017" class="node">
<title>Node17</title>
<g id="a_Node000017"><a xlink:href="IFormCommand_8hpp.html" target="_top" xlink:title=" ">
<polygon fill="white" stroke="#666666" points="1515.25,-132 1410,-132 1410,-112 1515.25,-112 1515.25,-132"/>
<text text-anchor="middle" x="1462.62" y="-118.5" font-family="Helvetica,sans-Serif" font-size="10.00">IFormCommand.hpp</text>
</a>
</g>
</g>
<!-- Node1&#45;&gt;Node17 -->
<g id="edge61_Node000001_Node000017" class="edge">
<title>Node1&#45;&gt;Node17</title>
<g id="a_edge61_Node000001_Node000017"><a xlink:title=" ">
<path fill="none" stroke="#63b8ff" d="M583.95,-338.29C653.11,-329.32 745.08,-316.06 825.62,-300 1055.95,-254.07 1325.03,-168.49 1423.77,-135.98"/>
<polygon fill="#63b8ff" stroke="#63b8ff" points="1424.58,-139.4 1432.98,-132.94 1422.39,-132.75 1424.58,-139.4"/>
</a>
</g>
</g>
<!-- Node18 -->
<g id="Node000018" class="node">
<title>Node18</title>
<g id="a_Node000018"><a xlink:href="IGlobalSlashCommand_8hpp.html" target="_top" xlink:title=" ">
<polygon fill="white" stroke="#666666" points="660.25,-132 525,-132 525,-112 660.25,-112 660.25,-132"/>
<text text-anchor="middle" x="592.62" y="-118.5" font-family="Helvetica,sans-Serif" font-size="10.00">IGlobalSlashCommand.hpp</text>
</a>
</g>
</g>
<!-- Node1&#45;&gt;Node18 -->
<g id="edge62_Node000001_Node000018" class="edge">
<title>Node1&#45;&gt;Node18</title>
<g id="a_edge62_Node000001_Node000018"><a xlink:title=" ">
<path fill="none" stroke="#63b8ff" d="M479.27,-335.57C481.2,-320.87 485.15,-298.31 492.62,-280 514.92,-225.4 556.24,-168.87 578.14,-140.9"/>
<polygon fill="#63b8ff" stroke="#63b8ff" points="580.59,-143.44 584.07,-133.43 575.11,-139.09 580.59,-143.44"/>
</a>
</g>
</g>
<!-- Node28 -->
<g id="Node000028" class="node">
<title>Node28</title>
<g id="a_Node000028"><a xlink:href="ChallengeRoleDTO_8hpp.html" target="_top" xlink:title=" ">
<polygon fill="white" stroke="#666666" points="354.38,-132 234.88,-132 234.88,-112 354.38,-112 354.38,-132"/>
<text text-anchor="middle" x="294.62" y="-118.5" font-family="Helvetica,sans-Serif" font-size="10.00">ChallengeRoleDTO.hpp</text>
</a>
</g>
</g>
<!-- Node1&#45;&gt;Node28 -->
<g id="edge53_Node000001_Node000028" class="edge">
<title>Node1&#45;&gt;Node28</title>
<g id="a_edge53_Node000001_Node000028"><a xlink:title=" ">
<path fill="none" stroke="#63b8ff" d="M465.33,-335.69C432.77,-295.11 344.37,-184.98 309.27,-141.25"/>
<polygon fill="#63b8ff" stroke="#63b8ff" points="312.03,-139.09 303.04,-133.48 306.57,-143.47 312.03,-139.09"/>
</a>
</g>
</g>
<!-- Node29 -->
<g id="Node000029" class="node">
<title>Node29</title>
<g id="a_Node000029"><a xlink:href="ChallengeRoleRepository_8hpp.html" target="_top" xlink:title=" ">
<polygon fill="white" stroke="#666666" points="316.12,-188 171.12,-188 171.12,-168 316.12,-168 316.12,-188"/>
<text text-anchor="middle" x="243.62" y="-174.5" font-family="Helvetica,sans-Serif" font-size="10.00">ChallengeRoleRepository.hpp</text>
</a>
</g>
</g>
<!-- Node1&#45;&gt;Node29 -->
<g id="edge56_Node000001_Node000029" class="edge">
<title>Node1&#45;&gt;Node29</title>
<g id="a_edge56_Node000001_Node000029"><a xlink:title=" ">
<path fill="none" stroke="#63b8ff" d="M405.64,-335.6C380.26,-327.8 352.61,-316.39 330.62,-300 293.95,-272.65 266.43,-225.35 252.92,-198.71"/>
<polygon fill="#63b8ff" stroke="#63b8ff" points="256.06,-197.18 248.52,-189.73 249.77,-200.25 256.06,-197.18"/>
</a>
</g>
</g>
<!-- Node3 -->
<g id="Node000003" class="node">
<title>Node3</title>
<g id="a_Node000003"><a xlink:href="Bot_8hpp.html" target="_top" xlink:title=" ">
<polygon fill="white" stroke="#666666" points="986.5,-244 936.75,-244 936.75,-224 986.5,-224 986.5,-244"/>
<text text-anchor="middle" x="961.62" y="-230.5" font-family="Helvetica,sans-Serif" font-size="10.00">Bot.hpp</text>
</a>
</g>
</g>
<!-- Node2&#45;&gt;Node3 -->
<g id="edge2_Node000002_Node000003" class="edge">
<title>Node2&#45;&gt;Node3</title>
<g id="a_edge2_Node000002_Node000003"><a xlink:title=" ">
<path fill="none" stroke="#63b8ff" d="M660.62,-279.53C737.45,-268.17 863.65,-249.5 925.36,-240.37"/>
<polygon fill="#63b8ff" stroke="#63b8ff" points="925.58,-243.87 934.96,-238.95 924.55,-236.95 925.58,-243.87"/>
</a>
</g>
</g>
<!-- Node10 -->
<g id="Node000010" class="node">
<title>Node10</title>
<g id="a_Node000010"><a xlink:title=" ">
<polygon fill="#e0e0e0" stroke="#999999" points="402.62,-76 362.62,-76 362.62,-56 402.62,-56 402.62,-76"/>
<text text-anchor="middle" x="382.62" y="-62.5" font-family="Helvetica,sans-Serif" font-size="10.00">string</text>
</a>
</g>
</g>
<!-- Node2&#45;&gt;Node10 -->
<g id="edge50_Node000002_Node000010" class="edge">
<title>Node2&#45;&gt;Node10</title>
<g id="a_edge50_Node000002_Node000010"><a xlink:title=" ">
<path fill="none" stroke="#63b8ff" d="M587.05,-279.58C562.53,-255.4 495.61,-189.02 441.62,-132 426.79,-116.33 410.31,-98.1 398.55,-84.94"/>
<polygon fill="#63b8ff" stroke="#63b8ff" points="401.18,-82.64 391.91,-77.5 395.95,-87.29 401.18,-82.64"/>
</a>
</g>
</g>
<!-- Node26 -->
<g id="Node000026" class="node">
<title>Node26</title>
<g id="a_Node000026"><a xlink:title=" ">
<polygon fill="#e0e0e0" stroke="#999999" points="681.62,-244 641.62,-244 641.62,-224 681.62,-224 681.62,-244"/>
<text text-anchor="middle" x="661.62" y="-230.5" font-family="Helvetica,sans-Serif" font-size="10.00">stack</text>
</a>
</g>
</g>
<!-- Node2&#45;&gt;Node26 -->
<g id="edge48_Node000002_Node000026" class="edge">
<title>Node2&#45;&gt;Node26</title>
<g id="a_edge48_Node000002_Node000026"><a xlink:title=" ">
<path fill="none" stroke="#63b8ff" d="M607.95,-279.59C617.27,-271.85 630.7,-260.69 641.8,-251.47"/>
<polygon fill="#63b8ff" stroke="#63b8ff" points="643.81,-254.35 649.27,-245.27 639.34,-248.96 643.81,-254.35"/>
</a>
</g>
</g>
<!-- Node27 -->
<g id="Node000027" class="node">
<title>Node27</title>
<g id="a_Node000027"><a xlink:title=" ">
<polygon fill="#e0e0e0" stroke="#999999" points="624,-244 565.25,-244 565.25,-224 624,-224 624,-244"/>
<text text-anchor="middle" x="594.62" y="-230.5" font-family="Helvetica,sans-Serif" font-size="10.00">stdexcept</text>
</a>
</g>
</g>
<!-- Node2&#45;&gt;Node27 -->
<g id="edge49_Node000002_Node000027" class="edge">
<title>Node2&#45;&gt;Node27</title>
<g id="a_edge49_Node000002_Node000027"><a xlink:title=" ">
<path fill="none" stroke="#63b8ff" d="M596.28,-279.59C596.03,-273.01 595.7,-263.96 595.39,-255.73"/>
<polygon fill="#63b8ff" stroke="#63b8ff" points="598.89,-255.67 595.03,-245.81 591.9,-255.93 598.89,-255.67"/>
</a>
</g>
</g>
<!-- Node3&#45;&gt;Node4 -->
<g id="edge3_Node000003_Node000004" class="edge">
<title>Node3&#45;&gt;Node4</title>
<g id="a_edge3_Node000003_Node000004"><a xlink:title=" ">
<path fill="none" stroke="#63b8ff" d="M939.5,-223.59C919.59,-215.13 890.07,-202.58 867.42,-192.94"/>
<polygon fill="#63b8ff" stroke="#63b8ff" points="868.88,-189.76 858.31,-189.07 866.15,-196.21 868.88,-189.76"/>
</a>
</g>
</g>
<!-- Node3&#45;&gt;Node10 -->
<g id="edge46_Node000003_Node000010" class="edge">
<title>Node3&#45;&gt;Node10</title>
<g id="a_edge46_Node000003_Node000010"><a xlink:title=" ">
<path fill="none" stroke="#63b8ff" d="M936.63,-233.2C875.82,-233.01 716,-228.35 590.62,-188 516.11,-164.02 439.24,-110.31 403.38,-83.25"/>
<polygon fill="#63b8ff" stroke="#63b8ff" points="405.66,-80.59 395.6,-77.29 401.41,-86.15 405.66,-80.59"/>
</a>
</g>
</g>
<!-- Node12 -->
<g id="Node000012" class="node">
<title>Node12</title>
<g id="a_Node000012"><a xlink:title=" ">
<polygon fill="#e0e0e0" stroke="#999999" points="480.12,-76 437.12,-76 437.12,-56 480.12,-56 480.12,-76"/>
<text text-anchor="middle" x="458.62" y="-62.5" font-family="Helvetica,sans-Serif" font-size="10.00">vector</text>
</a>
</g>
</g>
<!-- Node3&#45;&gt;Node12 -->
<g id="edge47_Node000003_Node000012" class="edge">
<title>Node3&#45;&gt;Node12</title>
<g id="a_edge47_Node000003_Node000012"><a xlink:title=" ">
<path fill="none" stroke="#63b8ff" d="M936.32,-232.85C864.74,-231.31 656.84,-219.13 515.62,-132 496.53,-120.22 480.3,-100.03 470.1,-85.27"/>
<polygon fill="#63b8ff" stroke="#63b8ff" points="473.3,-83.77 464.87,-77.35 467.46,-87.63 473.3,-83.77"/>
</a>
</g>
</g>
<!-- Node3&#45;&gt;Node14 -->
<g id="edge35_Node000003_Node000014" class="edge">
<title>Node3&#45;&gt;Node14</title>
<g id="a_edge35_Node000003_Node000014"><a xlink:title=" ">
<path fill="none" stroke="#63b8ff" d="M974.8,-223.51C998.73,-206.34 1047.72,-171.56 1056.62,-168 1066.48,-164.07 1190.03,-145.03 1269.69,-133.01"/>
<polygon fill="#63b8ff" stroke="#63b8ff" points="1269.76,-136.54 1279.12,-131.58 1268.71,-129.61 1269.76,-136.54"/>
</a>
</g>
</g>
<!-- Node3&#45;&gt;Node17 -->
<g id="edge36_Node000003_Node000017" class="edge">
<title>Node3&#45;&gt;Node17</title>
<g id="a_edge36_Node000003_Node000017"><a xlink:title=" ">
<path fill="none" stroke="#63b8ff" d="M986.72,-227.97C1027.17,-219.82 1109.27,-203.13 1178.62,-188 1260.23,-170.2 1354.72,-148.32 1411.52,-135.03"/>
<polygon fill="#63b8ff" stroke="#63b8ff" points="1412.29,-138.44 1421.23,-132.75 1410.7,-131.63 1412.29,-138.44"/>
</a>
</g>
</g>
<!-- Node3&#45;&gt;Node18 -->
<g id="edge37_Node000003_Node000018" class="edge">
<title>Node3&#45;&gt;Node18</title>
<g id="a_edge37_Node000003_Node000018"><a xlink:title=" ">
<path fill="none" stroke="#63b8ff" d="M936.25,-226.37C903.95,-217.85 846.47,-202.44 797.62,-188 739.7,-170.88 673.11,-149.43 631.95,-135.97"/>
<polygon fill="#63b8ff" stroke="#63b8ff" points="633.07,-132.66 622.48,-132.87 630.89,-139.31 633.07,-132.66"/>
</a>
</g>
</g>
<!-- Node20 -->
<g id="Node000020" class="node">
<title>Node20</title>
<g id="a_Node000020"><a xlink:href="IMemberCommand_8hpp.html" target="_top" xlink:title=" ">
<polygon fill="white" stroke="#666666" points="982.62,-132 864.62,-132 864.62,-112 982.62,-112 982.62,-132"/>
<text text-anchor="middle" x="923.62" y="-118.5" font-family="Helvetica,sans-Serif" font-size="10.00">IMemberCommand.hpp</text>
</a>
</g>
</g>
<!-- Node3&#45;&gt;Node20 -->
<g id="edge38_Node000003_Node000020" class="edge">
<title>Node3&#45;&gt;Node20</title>
<g id="a_edge38_Node000003_Node000020"><a xlink:title=" ">
<path fill="none" stroke="#63b8ff" d="M958.39,-223.62C952.24,-205.84 938.78,-166.88 930.53,-143"/>
<polygon fill="#63b8ff" stroke="#63b8ff" points="933.92,-142.09 927.35,-133.79 927.31,-144.38 933.92,-142.09"/>
</a>
</g>
</g>
<!-- Node21 -->
<g id="Node000021" class="node">
<title>Node21</title>
<g id="a_Node000021"><a xlink:href="IMessageCommand_8hpp.html" target="_top" xlink:title=" ">
<polygon fill="white" stroke="#666666" points="1122.88,-132 1000.38,-132 1000.38,-112 1122.88,-112 1122.88,-132"/>
<text text-anchor="middle" x="1061.62" y="-118.5" font-family="Helvetica,sans-Serif" font-size="10.00">IMessageCommand.hpp</text>
</a>
</g>
</g>
<!-- Node3&#45;&gt;Node21 -->
<g id="edge39_Node000003_Node000021" class="edge">
<title>Node3&#45;&gt;Node21</title>
<g id="a_edge39_Node000003_Node000021"><a xlink:title=" ">
<path fill="none" stroke="#63b8ff" d="M963.05,-223.61C965.53,-210.01 971.76,-184.63 985.62,-168 996.61,-154.83 1012.5,-144.57 1026.92,-137.2"/>
<polygon fill="#63b8ff" stroke="#63b8ff" points="1028.19,-140.48 1035.7,-133 1025.17,-134.16 1028.19,-140.48"/>
</a>
</g>
</g>
<!-- Node22 -->
<g id="Node000022" class="node">
<title>Node22</title>
<g id="a_Node000022"><a xlink:href="IReactionCommand_8hpp.html" target="_top" xlink:title=" ">
<polygon fill="white" stroke="#666666" points="1262.5,-132 1140.75,-132 1140.75,-112 1262.5,-112 1262.5,-132"/>
<text text-anchor="middle" x="1201.62" y="-118.5" font-family="Helvetica,sans-Serif" font-size="10.00">IReactionCommand.hpp</text>
</a>
</g>
</g>
<!-- Node3&#45;&gt;Node22 -->
<g id="edge40_Node000003_Node000022" class="edge">
<title>Node3&#45;&gt;Node22</title>
<g id="a_edge40_Node000003_Node000022"><a xlink:title=" ">
<path fill="none" stroke="#63b8ff" d="M967.7,-223.9C977.66,-209.72 998.84,-182.46 1023.62,-168 1043.38,-156.47 1096.92,-143.73 1140.16,-134.75"/>
<polygon fill="#63b8ff" stroke="#63b8ff" points="1140.61,-138.23 1149.71,-132.8 1139.21,-131.37 1140.61,-138.23"/>
</a>
</g>
</g>
<!-- Node23 -->
<g id="Node000023" class="node">
<title>Node23</title>
<g id="a_Node000023"><a xlink:href="IReady_8hpp.html" target="_top" xlink:title=" ">
<polygon fill="white" stroke="#666666" points="1598.38,-132 1532.88,-132 1532.88,-112 1598.38,-112 1598.38,-132"/>
<text text-anchor="middle" x="1565.62" y="-118.5" font-family="Helvetica,sans-Serif" font-size="10.00">IReady.hpp</text>
</a>
</g>
</g>
<!-- Node3&#45;&gt;Node23 -->
<g id="edge41_Node000003_Node000023" class="edge">
<title>Node3&#45;&gt;Node23</title>
<g id="a_edge41_Node000003_Node000023"><a xlink:title=" ">
<path fill="none" stroke="#63b8ff" d="M986.88,-229.07C1035.11,-221.52 1143.6,-204.29 1234.62,-188 1360.31,-165.51 1394.23,-158.88 1521.56,-132.61"/>
<polygon fill="#63b8ff" stroke="#63b8ff" points="1521.95,-136.1 1531.04,-130.65 1520.54,-129.24 1521.95,-136.1"/>
</a>
</g>
</g>
<!-- Node24 -->
<g id="Node000024" class="node">
<title>Node24</title>
<g id="a_Node000024"><a xlink:title=" ">
<polygon fill="#e0e0e0" stroke="#999999" points="1100,-188 1065.25,-188 1065.25,-168 1100,-168 1100,-188"/>
<text text-anchor="middle" x="1082.62" y="-174.5" font-family="Helvetica,sans-Serif" font-size="10.00">map</text>
</a>
</g>
</g>
<!-- Node3&#45;&gt;Node24 -->
<g id="edge44_Node000003_Node000024" class="edge">
<title>Node3&#45;&gt;Node24</title>
<g id="a_edge44_Node000003_Node000024"><a xlink:title=" ">
<path fill="none" stroke="#63b8ff" d="M982.7,-223.59C1002.63,-214.7 1032.66,-201.3 1054.6,-191.51"/>
<polygon fill="#63b8ff" stroke="#63b8ff" points="1055.85,-194.78 1063.55,-187.51 1052.99,-188.39 1055.85,-194.78"/>
</a>
</g>
</g>
<!-- Node25 -->
<g id="Node000025" class="node">
<title>Node25</title>
<g id="a_Node000025"><a xlink:title=" ">
<polygon fill="#e0e0e0" stroke="#999999" points="1169.25,-188 1118,-188 1118,-168 1169.25,-168 1169.25,-188"/>
<text text-anchor="middle" x="1143.62" y="-174.5" font-family="Helvetica,sans-Serif" font-size="10.00">memory</text>
</a>
</g>
</g>
<!-- Node3&#45;&gt;Node25 -->
<g id="edge45_Node000003_Node000025" class="edge">
<title>Node3&#45;&gt;Node25</title>
<g id="a_edge45_Node000003_Node000025"><a xlink:title=" ">
<path fill="none" stroke="#63b8ff" d="M986.93,-225.49C1018.04,-216.26 1071.09,-200.52 1106.74,-189.94"/>
<polygon fill="#63b8ff" stroke="#63b8ff" points="1107.61,-193.34 1116.2,-187.14 1105.62,-186.63 1107.61,-193.34"/>
</a>
</g>
</g>
<!-- Node5 -->
<g id="Node000005" class="node">
<title>Node5</title>
<g id="a_Node000005"><a xlink:title=" ">
<polygon fill="#e0e0e0" stroke="#999999" points="737,-132 678.25,-132 678.25,-112 737,-112 737,-132"/>
<text text-anchor="middle" x="707.62" y="-118.5" font-family="Helvetica,sans-Serif" font-size="10.00">dpp/dpp.h</text>
</a>
</g>
</g>
<!-- Node4&#45;&gt;Node5 -->
<g id="edge4_Node000004_Node000005" class="edge">
<title>Node4&#45;&gt;Node5</title>
<g id="a_edge4_Node000004_Node000005"><a xlink:title=" ">
<path fill="none" stroke="#63b8ff" d="M812.5,-167.59C792.59,-159.13 763.07,-146.58 740.42,-136.94"/>
<polygon fill="#63b8ff" stroke="#63b8ff" points="741.88,-133.76 731.31,-133.07 739.15,-140.21 741.88,-133.76"/>
</a>
</g>
</g>
<!-- Node6 -->
<g id="Node000006" class="node">
<title>Node6</title>
<g id="a_Node000006"><a xlink:title=" ">
<polygon fill="#e0e0e0" stroke="#999999" points="846.12,-132 755.12,-132 755.12,-112 846.12,-112 846.12,-132"/>
<text text-anchor="middle" x="800.62" y="-118.5" font-family="Helvetica,sans-Serif" font-size="10.00">dpp/misc&#45;enum.h</text>
</a>
</g>
</g>
<!-- Node4&#45;&gt;Node6 -->
<g id="edge5_Node000004_Node000006" class="edge">
<title>Node4&#45;&gt;Node6</title>
<g id="a_edge5_Node000004_Node000006"><a xlink:title=" ">
<path fill="none" stroke="#63b8ff" d="M828.7,-167.59C824.27,-160.55 818.05,-150.67 812.59,-142"/>
<polygon fill="#63b8ff" stroke="#63b8ff" points="815.58,-140.18 807.29,-133.58 809.65,-143.91 815.58,-140.18"/>
</a>
</g>
</g>
<!-- Node7 -->
<g id="Node000007" class="node">
<title>Node7</title>
<g id="a_Node000007"><a xlink:href="Database_8hpp.html" target="_top" xlink:title=" ">
<polygon fill="white" stroke="#666666" points="217,-132 140.25,-132 140.25,-112 217,-112 217,-132"/>
<text text-anchor="middle" x="178.62" y="-118.5" font-family="Helvetica,sans-Serif" font-size="10.00">Database.hpp</text>
</a>
</g>
</g>
<!-- Node4&#45;&gt;Node7 -->
<g id="edge6_Node000004_Node000007" class="edge">
<title>Node4&#45;&gt;Node7</title>
<g id="a_edge6_Node000004_Node000007"><a xlink:title=" ">
<path fill="none" stroke="#63b8ff" d="M806.28,-176.07C720.63,-173.01 456.87,-161.8 228.49,-132.24"/>
<polygon fill="#63b8ff" stroke="#63b8ff" points="229.17,-128.8 218.8,-130.97 228.26,-135.74 229.17,-128.8"/>
</a>
</g>
</g>
<!-- Node4&#45;&gt;Node10 -->
<g id="edge34_Node000004_Node000010" class="edge">
<title>Node4&#45;&gt;Node10</title>
<g id="a_edge34_Node000004_Node000010"><a xlink:title=" ">
<path fill="none" stroke="#63b8ff" d="M806.68,-176C750.41,-173.34 619.9,-163.96 515.62,-132 476.1,-119.89 433.74,-97.34 407.71,-82.25"/>
<polygon fill="#63b8ff" stroke="#63b8ff" points="409.63,-79.31 399.24,-77.25 406.07,-85.34 409.63,-79.31"/>
</a>
</g>
</g>
<!-- Node4&#45;&gt;Node14 -->
<g id="edge14_Node000004_Node000014" class="edge">
<title>Node4&#45;&gt;Node14</title>
<g id="a_edge14_Node000004_Node000014"><a xlink:title=" ">
<path fill="none" stroke="#63b8ff" d="M862.78,-174.44C930.72,-168.21 1109.27,-151.37 1269.6,-132.21"/>
<polygon fill="#63b8ff" stroke="#63b8ff" points="1269.61,-135.73 1279.12,-131.06 1268.77,-128.78 1269.61,-135.73"/>
</a>
</g>
</g>
<!-- Node4&#45;&gt;Node17 -->
<g id="edge17_Node000004_Node000017" class="edge">
<title>Node4&#45;&gt;Node17</title>
<g id="a_edge17_Node000004_Node000017"><a xlink:title=" ">
<path fill="none" stroke="#63b8ff" d="M862.71,-175.44C943.99,-170.79 1186.6,-155.91 1398.41,-132.3"/>
<polygon fill="#63b8ff" stroke="#63b8ff" points="1398.7,-135.79 1408.25,-131.19 1397.92,-128.83 1398.7,-135.79"/>
</a>
</g>
</g>
<!-- Node4&#45;&gt;Node18 -->
<g id="edge20_Node000004_Node000018" class="edge">
<title>Node4&#45;&gt;Node18</title>
<g id="a_edge20_Node000004_Node000018"><a xlink:title=" ">
<path fill="none" stroke="#63b8ff" d="M806.39,-170.7C767.18,-161.95 695.48,-145.95 646,-134.91"/>
<polygon fill="#63b8ff" stroke="#63b8ff" points="646.87,-131.52 636.35,-132.76 645.35,-138.35 646.87,-131.52"/>
</a>
</g>
</g>
<!-- Node4&#45;&gt;Node20 -->
<g id="edge25_Node000004_Node000020" class="edge">
<title>Node4&#45;&gt;Node20</title>
<g id="a_edge25_Node000004_Node000020"><a xlink:title=" ">
<path fill="none" stroke="#63b8ff" d="M850.13,-167.59C863.45,-159.51 882.9,-147.71 898.45,-138.27"/>
<polygon fill="#63b8ff" stroke="#63b8ff" points="899.97,-141.44 906.71,-133.26 896.34,-135.46 899.97,-141.44"/>
</a>
</g>
</g>
<!-- Node4&#45;&gt;Node21 -->
<g id="edge28_Node000004_Node000021" class="edge">
<title>Node4&#45;&gt;Node21</title>
<g id="a_edge28_Node000004_Node000021"><a xlink:title=" ">
<path fill="none" stroke="#63b8ff" d="M862.92,-170.27C899.84,-161.49 965.12,-145.96 1010.74,-135.1"/>
<polygon fill="#63b8ff" stroke="#63b8ff" points="1011.5,-138.52 1020.42,-132.8 1009.88,-131.71 1011.5,-138.52"/>
</a>
</g>
</g>
<!-- Node4&#45;&gt;Node22 -->
<g id="edge31_Node000004_Node000022" class="edge">
<title>Node4&#45;&gt;Node22</title>
<g id="a_edge31_Node000004_Node000022"><a xlink:title=" ">
<path fill="none" stroke="#63b8ff" d="M862.81,-172.85C919.24,-164.55 1047.64,-145.66 1129.17,-133.66"/>
<polygon fill="#63b8ff" stroke="#63b8ff" points="1129.47,-137.15 1138.86,-132.24 1128.45,-130.23 1129.47,-137.15"/>
</a>
</g>
</g>
<!-- Node8 -->
<g id="Node000008" class="node">
<title>Node8</title>
<g id="a_Node000008"><a xlink:title=" ">
<polygon fill="#e0e0e0" stroke="#999999" points="137.75,-76 89.5,-76 89.5,-56 137.75,-56 137.75,-76"/>
<text text-anchor="middle" x="113.62" y="-62.5" font-family="Helvetica,sans-Serif" font-size="10.00">cstddef</text>
</a>
</g>
</g>
<!-- Node7&#45;&gt;Node8 -->
<g id="edge7_Node000007_Node000008" class="edge">
<title>Node7&#45;&gt;Node8</title>
<g id="a_edge7_Node000007_Node000008"><a xlink:title=" ">
<path fill="none" stroke="#63b8ff" d="M167.3,-111.59C157.98,-103.85 144.55,-92.69 133.45,-83.47"/>
<polygon fill="#63b8ff" stroke="#63b8ff" points="135.91,-80.96 125.98,-77.27 131.44,-86.35 135.91,-80.96"/>
</a>
</g>
</g>
<!-- Node9 -->
<g id="Node000009" class="node">
<title>Node9</title>
<g id="a_Node000009"><a xlink:title=" ">
<polygon fill="#e0e0e0" stroke="#999999" points="250.12,-20 189.12,-20 189.12,0 250.12,0 250.12,-20"/>
<text text-anchor="middle" x="219.62" y="-6.5" font-family="Helvetica,sans-Serif" font-size="10.00">pqxx/pqxx</text>
</a>
</g>
</g>
<!-- Node7&#45;&gt;Node9 -->
<g id="edge8_Node000007_Node000009" class="edge">
<title>Node7&#45;&gt;Node9</title>
<g id="a_edge8_Node000007_Node000009"><a xlink:title=" ">
<path fill="none" stroke="#63b8ff" d="M180.84,-111.58C183.97,-98.78 190.15,-75.3 197.62,-56 200.92,-47.5 205.2,-38.42 209.11,-30.65"/>
<polygon fill="#63b8ff" stroke="#63b8ff" points="212.22,-32.27 213.72,-21.79 206,-29.05 212.22,-32.27"/>
</a>
</g>
</g>
<!-- Node7&#45;&gt;Node10 -->
<g id="edge9_Node000007_Node000010" class="edge">
<title>Node7&#45;&gt;Node10</title>
<g id="a_edge9_Node000007_Node000010"><a xlink:title=" ">
<path fill="none" stroke="#63b8ff" d="M214.16,-111.59C252.89,-101.34 314.27,-85.09 351.27,-75.3"/>
<polygon fill="#63b8ff" stroke="#63b8ff" points="352.13,-78.69 360.9,-72.75 350.34,-71.93 352.13,-78.69"/>
</a>
</g>
</g>
<!-- Node7&#45;&gt;Node11 -->
<g id="edge10_Node000007_Node000011" class="edge">
<title>Node7&#45;&gt;Node11</title>
<g id="a_edge10_Node000007_Node000011"><a xlink:title=" ">
<path fill="none" stroke="#63b8ff" d="M151.45,-111.59C124.94,-102.42 84.56,-88.44 56.08,-78.58"/>
<polygon fill="#63b8ff" stroke="#63b8ff" points="57.46,-75.35 46.86,-75.39 55.17,-81.97 57.46,-75.35"/>
</a>
</g>
</g>
<!-- Node7&#45;&gt;Node12 -->
<g id="edge11_Node000007_Node000012" class="edge">
<title>Node7&#45;&gt;Node12</title>
<g id="a_edge11_Node000007_Node000012"><a xlink:title=" ">
<path fill="none" stroke="#63b8ff" d="M217.26,-113.55C272.66,-102.87 373.68,-83.38 425.71,-73.35"/>
<polygon fill="#63b8ff" stroke="#63b8ff" points="426.29,-76.8 435.45,-71.47 424.97,-69.93 426.29,-76.8"/>
</a>
</g>
</g>
<!-- Node13 -->
<g id="Node000013" class="node">
<title>Node13</title>
<g id="a_Node000013"><a xlink:href="RowDTOAdapter_8hpp.html" target="_top" xlink:title=" ">
<polygon fill="white" stroke="#666666" points="316.5,-76 206.75,-76 206.75,-56 316.5,-56 316.5,-76"/>
<text text-anchor="middle" x="261.62" y="-62.5" font-family="Helvetica,sans-Serif" font-size="10.00">RowDTOAdapter.hpp</text>
</a>
</g>
</g>
<!-- Node7&#45;&gt;Node13 -->
<g id="edge12_Node000007_Node000013" class="edge">
<title>Node7&#45;&gt;Node13</title>
<g id="a_edge12_Node000007_Node000013"><a xlink:title=" ">
<path fill="none" stroke="#63b8ff" d="M193.08,-111.59C205.38,-103.59 223.3,-91.93 237.73,-82.54"/>
<polygon fill="#63b8ff" stroke="#63b8ff" points="239.31,-85.69 245.79,-77.3 235.5,-79.82 239.31,-85.69"/>
</a>
</g>
</g>
<!-- Node13&#45;&gt;Node9 -->
<g id="edge13_Node000013_Node000009" class="edge">
<title>Node13&#45;&gt;Node9</title>
<g id="a_edge13_Node000013_Node000009"><a xlink:title=" ">
<path fill="none" stroke="#63b8ff" d="M254.31,-55.59C248.65,-48.32 240.64,-38.02 233.74,-29.15"/>
<polygon fill="#63b8ff" stroke="#63b8ff" points="236.69,-27.24 227.79,-21.49 231.16,-31.54 236.69,-27.24"/>
</a>
</g>
</g>
<!-- Node15 -->
<g id="Node000015" class="node">
<title>Node15</title>
<g id="a_Node000015"><a xlink:title=" ">
<polygon fill="#e0e0e0" stroke="#999999" points="1188.75,-76 1116.5,-76 1116.5,-56 1188.75,-56 1188.75,-76"/>
<text text-anchor="middle" x="1152.62" y="-62.5" font-family="Helvetica,sans-Serif" font-size="10.00">dpp/cluster.h</text>
</a>
</g>
</g>
<!-- Node14&#45;&gt;Node15 -->
<g id="edge15_Node000014_Node000015" class="edge">
<title>Node14&#45;&gt;Node15</title>
<g id="a_edge15_Node000014_Node000015"><a xlink:title=" ">
<path fill="none" stroke="#63b8ff" d="M1304.57,-111.59C1274.42,-102.74 1229.04,-89.43 1195.72,-79.65"/>
<polygon fill="#63b8ff" stroke="#63b8ff" points="1196.96,-76.36 1186.38,-76.91 1194.99,-83.08 1196.96,-76.36"/>
</a>
</g>
</g>
<!-- Node16 -->
<g id="Node000016" class="node">
<title>Node16</title>
<g id="a_Node000016"><a xlink:title=" ">
<polygon fill="#e0e0e0" stroke="#999999" points="1294.62,-76 1206.62,-76 1206.62,-56 1294.62,-56 1294.62,-76"/>
<text text-anchor="middle" x="1250.62" y="-62.5" font-family="Helvetica,sans-Serif" font-size="10.00">dpp/dispatcher.h</text>
</a>
</g>
</g>
<!-- Node14&#45;&gt;Node16 -->
<g id="edge16_Node000014_Node000016" class="edge">
<title>Node14&#45;&gt;Node16</title>
<g id="a_edge16_Node000014_Node000016"><a xlink:title=" ">
<path fill="none" stroke="#63b8ff" d="M1321.64,-111.59C1308.9,-103.59 1290.33,-91.93 1275.38,-82.54"/>
<polygon fill="#63b8ff" stroke="#63b8ff" points="1277.33,-79.64 1267,-77.28 1273.61,-85.57 1277.33,-79.64"/>
</a>
</g>
</g>
<!-- Node17&#45;&gt;Node15 -->
<g id="edge18_Node000017_Node000015" class="edge">
<title>Node17&#45;&gt;Node15</title>
<g id="a_edge18_Node000017_Node000015"><a xlink:title=" ">
<path fill="none" stroke="#63b8ff" d="M1409.5,-112.45C1358.35,-104.11 1278.51,-90.81 1200.02,-76.4"/>
<polygon fill="#63b8ff" stroke="#63b8ff" points="1200.91,-73.01 1190.45,-74.64 1199.64,-79.89 1200.91,-73.01"/>
</a>
</g>
</g>
<!-- Node17&#45;&gt;Node16 -->
<g id="edge19_Node000017_Node000016" class="edge">
<title>Node17&#45;&gt;Node16</title>
<g id="a_edge19_Node000017_Node000016"><a xlink:title=" ">
<path fill="none" stroke="#63b8ff" d="M1425.7,-111.59C1390.5,-102.63 1337.3,-89.08 1298.79,-79.27"/>
<polygon fill="#63b8ff" stroke="#63b8ff" points="1299.86,-75.93 1289.31,-76.85 1298.13,-82.71 1299.86,-75.93"/>
</a>
</g>
</g>
<!-- Node18&#45;&gt;Node12 -->
<g id="edge24_Node000018_Node000012" class="edge">
<title>Node18&#45;&gt;Node12</title>
<g id="a_edge24_Node000018_Node000012"><a xlink:title=" ">
<path fill="none" stroke="#63b8ff" d="M569.28,-111.59C547.57,-102.84 515.01,-89.72 490.82,-79.97"/>
<polygon fill="#63b8ff" stroke="#63b8ff" points="492.36,-76.82 481.77,-76.33 489.74,-83.31 492.36,-76.82"/>
</a>
</g>
</g>
<!-- Node18&#45;&gt;Node15 -->
<g id="edge22_Node000018_Node000015" class="edge">
<title>Node18&#45;&gt;Node15</title>
<g id="a_edge22_Node000018_Node000015"><a xlink:title=" ">
<path fill="none" stroke="#63b8ff" d="M660.64,-112.96C663.67,-112.63 666.68,-112.31 669.62,-112 828.98,-95.27 1018.24,-78.55 1104.95,-71.07"/>
<polygon fill="#63b8ff" stroke="#63b8ff" points="1105.07,-74.57 1114.73,-70.23 1104.47,-67.6 1105.07,-74.57"/>
</a>
</g>
</g>
<!-- Node18&#45;&gt;Node16 -->
<g id="edge23_Node000018_Node000016" class="edge">
<title>Node18&#45;&gt;Node16</title>
<g id="a_edge23_Node000018_Node000016"><a xlink:title=" ">
<path fill="none" stroke="#63b8ff" d="M660.63,-112.87C663.67,-112.56 666.68,-112.27 669.62,-112 900.18,-90.68 962.13,-103.31 1194.92,-76.21"/>
<polygon fill="#63b8ff" stroke="#63b8ff" points="1195.11,-79.71 1204.64,-75.06 1194.29,-72.76 1195.11,-79.71"/>
</a>
</g>
</g>
<!-- Node19 -->
<g id="Node000019" class="node">
<title>Node19</title>
<g id="a_Node000019"><a xlink:title=" ">
<polygon fill="#e0e0e0" stroke="#999999" points="634,-76 551.25,-76 551.25,-56 634,-56 634,-76"/>
<text text-anchor="middle" x="592.62" y="-62.5" font-family="Helvetica,sans-Serif" font-size="10.00">appcommand.h</text>
</a>
</g>
</g>
<!-- Node18&#45;&gt;Node19 -->
<g id="edge21_Node000018_Node000019" class="edge">
<title>Node18&#45;&gt;Node19</title>
<g id="a_edge21_Node000018_Node000019"><a xlink:title=" ">
<path fill="none" stroke="#63b8ff" d="M592.62,-111.59C592.62,-105.01 592.62,-95.96 592.62,-87.73"/>
<polygon fill="#63b8ff" stroke="#63b8ff" points="596.13,-87.81 592.63,-77.81 589.13,-87.81 596.13,-87.81"/>
</a>
</g>
</g>
<!-- Node20&#45;&gt;Node15 -->
<g id="edge26_Node000020_Node000015" class="edge">
<title>Node20&#45;&gt;Node15</title>
<g id="a_edge26_Node000020_Node000015"><a xlink:title=" ">
<path fill="none" stroke="#63b8ff" d="M963.78,-111.53C1003.26,-102.22 1063.51,-88.01 1105.3,-78.16"/>
<polygon fill="#63b8ff" stroke="#63b8ff" points="1105.9,-81.61 1114.83,-75.91 1104.29,-74.8 1105.9,-81.61"/>
</a>
</g>
</g>
<!-- Node20&#45;&gt;Node16 -->
<g id="edge27_Node000020_Node000016" class="edge">
<title>Node20&#45;&gt;Node16</title>
<g id="a_edge27_Node000020_Node000016"><a xlink:title=" ">
<path fill="none" stroke="#63b8ff" d="M981.9,-111.52C1034.89,-102.89 1115.56,-89.68 1195.16,-76.4"/>
<polygon fill="#63b8ff" stroke="#63b8ff" points="1195.6,-79.88 1204.89,-74.78 1194.45,-72.98 1195.6,-79.88"/>
</a>
</g>
</g>
<!-- Node21&#45;&gt;Node15 -->
<g id="edge29_Node000021_Node000015" class="edge">
<title>Node21&#45;&gt;Node15</title>
<g id="a_edge29_Node000021_Node000015"><a xlink:title=" ">
<path fill="none" stroke="#63b8ff" d="M1077.48,-111.59C1091.09,-103.51 1110.99,-91.71 1126.89,-82.27"/>
<polygon fill="#63b8ff" stroke="#63b8ff" points="1128.53,-85.37 1135.35,-77.25 1124.96,-79.35 1128.53,-85.37"/>
</a>
</g>
</g>
<!-- Node21&#45;&gt;Node16 -->
<g id="edge30_Node000021_Node000016" class="edge">
<title>Node21&#45;&gt;Node16</title>
<g id="a_edge30_Node000021_Node000016"><a xlink:title=" ">
<path fill="none" stroke="#63b8ff" d="M1094.55,-111.59C1125.66,-102.71 1172.54,-89.31 1206.8,-79.52"/>
<polygon fill="#63b8ff" stroke="#63b8ff" points="1207.34,-83.01 1215.99,-76.9 1205.41,-76.28 1207.34,-83.01"/>
</a>
</g>
</g>
<!-- Node22&#45;&gt;Node15 -->
<g id="edge32_Node000022_Node000015" class="edge">
<title>Node22&#45;&gt;Node15</title>
<g id="a_edge32_Node000022_Node000015"><a xlink:title=" ">
<path fill="none" stroke="#63b8ff" d="M1193.09,-111.59C1186.34,-104.16 1176.74,-93.58 1168.58,-84.58"/>
<polygon fill="#63b8ff" stroke="#63b8ff" points="1171.39,-82.47 1162.08,-77.42 1166.21,-87.18 1171.39,-82.47"/>
</a>
</g>
</g>
<!-- Node22&#45;&gt;Node16 -->
<g id="edge33_Node000022_Node000016" class="edge">
<title>Node22&#45;&gt;Node16</title>
<g id="a_edge33_Node000022_Node000016"><a xlink:title=" ">
<path fill="none" stroke="#63b8ff" d="M1210.16,-111.59C1216.91,-104.16 1226.51,-93.58 1234.67,-84.58"/>
<polygon fill="#63b8ff" stroke="#63b8ff" points="1237.04,-87.18 1241.17,-77.42 1231.86,-82.47 1237.04,-87.18"/>
</a>
</g>
</g>
<!-- Node23&#45;&gt;Node15 -->
<g id="edge42_Node000023_Node000015" class="edge">
<title>Node23&#45;&gt;Node15</title>
<g id="a_edge42_Node000023_Node000015"><a xlink:title=" ">
<path fill="none" stroke="#63b8ff" d="M1532.57,-113.43C1529.89,-112.91 1527.21,-112.43 1524.62,-112 1383.87,-88.87 1344.05,-97.89 1199.94,-76.23"/>
<polygon fill="#63b8ff" stroke="#63b8ff" points="1200.84,-72.82 1190.42,-74.77 1199.78,-79.74 1200.84,-72.82"/>
</a>
</g>
</g>
<!-- Node23&#45;&gt;Node16 -->
<g id="edge43_Node000023_Node000016" class="edge">
<title>Node23&#45;&gt;Node16</title>
<g id="a_edge43_Node000023_Node000016"><a xlink:title=" ">
<path fill="none" stroke="#63b8ff" d="M1532.54,-113.58C1529.86,-113.03 1527.2,-112.49 1524.62,-112 1449.26,-97.55 1361.69,-83.67 1306.22,-75.24"/>
<polygon fill="#63b8ff" stroke="#63b8ff" points="1306.8,-71.79 1296.38,-73.75 1305.75,-78.71 1306.8,-71.79"/>
</a>
</g>
</g>
<!-- Node28&#45;&gt;Node10 -->
<g id="edge55_Node000028_Node000010" class="edge">
<title>Node28&#45;&gt;Node10</title>
<g id="a_edge55_Node000028_Node000010"><a xlink:title=" ">
<path fill="none" stroke="#63b8ff" d="M309.95,-111.59C323.12,-103.51 342.36,-91.71 357.73,-82.27"/>
<polygon fill="#63b8ff" stroke="#63b8ff" points="359.19,-85.48 365.89,-77.27 355.53,-79.52 359.19,-85.48"/>
</a>
</g>
</g>
<!-- Node28&#45;&gt;Node13 -->
<g id="edge54_Node000028_Node000013" class="edge">
<title>Node28&#45;&gt;Node13</title>
<g id="a_edge54_Node000028_Node000013"><a xlink:title=" ">
<path fill="none" stroke="#63b8ff" d="M288.88,-111.59C284.57,-104.55 278.53,-94.67 273.24,-86"/>
<polygon fill="#63b8ff" stroke="#63b8ff" points="276.3,-84.3 268.1,-77.59 270.32,-87.95 276.3,-84.3"/>
</a>
</g>
</g>
<!-- Node29&#45;&gt;Node28 -->
<g id="edge59_Node000029_Node000028" class="edge">
<title>Node29&#45;&gt;Node28</title>
<g id="a_edge59_Node000029_Node000028"><a xlink:title=" ">
<path fill="none" stroke="#63b8ff" d="M252.51,-167.59C259.53,-160.16 269.53,-149.58 278.02,-140.58"/>
<polygon fill="#63b8ff" stroke="#63b8ff" points="280.48,-143.07 284.8,-133.4 275.39,-138.27 280.48,-143.07"/>
</a>
</g>
</g>
<!-- Node30 -->
<g id="Node000030" class="node">
<title>Node30</title>
<g id="a_Node000030"><a xlink:href="IRepository_8hpp.html" target="_top" xlink:title=" ">
<polygon fill="white" stroke="#666666" points="121.75,-132 37.5,-132 37.5,-112 121.75,-112 121.75,-132"/>
<text text-anchor="middle" x="79.62" y="-118.5" font-family="Helvetica,sans-Serif" font-size="10.00">IRepository.hpp</text>
</a>
</g>
</g>
<!-- Node29&#45;&gt;Node30 -->
<g id="edge57_Node000029_Node000030" class="edge">
<title>Node29&#45;&gt;Node30</title>
<g id="a_edge57_Node000029_Node000030"><a xlink:title=" ">
<path fill="none" stroke="#63b8ff" d="M215.06,-167.59C188.53,-158.86 148.79,-145.77 119.21,-136.03"/>
<polygon fill="#63b8ff" stroke="#63b8ff" points="120.45,-132.76 109.85,-132.95 118.26,-139.4 120.45,-132.76"/>
</a>
</g>
</g>
<!-- Node30&#45;&gt;Node8 -->
<g id="edge58_Node000030_Node000008" class="edge">
<title>Node30&#45;&gt;Node8</title>
<g id="a_edge58_Node000030_Node000008"><a xlink:title=" ">
<path fill="none" stroke="#63b8ff" d="M85.55,-111.59C89.98,-104.55 96.2,-94.67 101.66,-86"/>
<polygon fill="#63b8ff" stroke="#63b8ff" points="104.6,-87.91 106.96,-77.58 98.67,-84.18 104.6,-87.91"/>
</a>
</g>
</g>
</g>
</svg>
