<?xml version="1.0" encoding="UTF-8" standalone="no"?>
<!DOCTYPE svg PUBLIC "-//W3C//DTD SVG 1.1//EN"
 "http://www.w3.org/Graphics/SVG/1.1/DTD/svg11.dtd">
<!-- Generated by graphviz version 9.0.0 (0)
 -->
<!-- Title: src/bot_library/commands/challenge_role/ChallengeRoleCommand.hpp Pages: 1 -->
<svg width="1542pt" height="320pt"
 viewBox="0.00 0.00 1542.12 320.00" xmlns="http://www.w3.org/2000/svg" xmlns:xlink="http://www.w3.org/1999/xlink">
<g id="graph0" class="graph" transform="scale(1 1) rotate(0) translate(4 316)">
<title>src/bot_library/commands/challenge_role/ChallengeRoleCommand.hpp</title>
<!-- Node1 -->
<g id="Node000001" class="node">
<title>Node1</title>
<g id="a_Node000001"><a xlink:title=" ">
<polygon fill="#999999" stroke="#666666" points="1519.62,-312 1307.88,-312 1307.88,-280 1519.62,-280 1519.62,-312"/>
<text text-anchor="start" x="1315.88" y="-298.5" font-family="Helvetica,sans-Serif" font-size="10.00">src/bot_library/commands</text>
<text text-anchor="middle" x="1413.75" y="-286.5" font-family="Helvetica,sans-Serif" font-size="10.00">/challenge_role/ChallengeRoleCommand.hpp</text>
</a>
</g>
</g>
<!-- Node2 -->
<g id="Node000002" class="node">
<title>Node2</title>
<g id="a_Node000002"><a xlink:href="Bot_8hpp.html" target="_top" xlink:title=" ">
<polygon fill="white" stroke="#666666" points="837.62,-244 787.88,-244 787.88,-224 837.62,-224 837.62,-244"/>
<text text-anchor="middle" x="812.75" y="-230.5" font-family="Helvetica,sans-Serif" font-size="10.00">Bot.hpp</text>
</a>
</g>
</g>
<!-- Node1&#45;&gt;Node2 -->
<g id="edge1_Node000001_Node000002" class="edge">
<title>Node1&#45;&gt;Node2</title>
<g id="a_edge1_Node000001_Node000002"><a xlink:title=" ">
<path fill="none" stroke="#63b8ff" d="M1307.69,-284.41C1170.6,-270.73 938.91,-247.59 849.49,-238.67"/>
<polygon fill="#63b8ff" stroke="#63b8ff" points="849.88,-235.19 839.59,-237.68 849.19,-242.16 849.88,-235.19"/>
</a>
</g>
</g>
<!-- Node10 -->
<g id="Node000010" class="node">
<title>Node10</title>
<g id="a_Node000010"><a xlink:title=" ">
<polygon fill="#e0e0e0" stroke="#999999" points="1396.75,-76 1356.75,-76 1356.75,-56 1396.75,-56 1396.75,-76"/>
<text text-anchor="middle" x="1376.75" y="-62.5" font-family="Helvetica,sans-Serif" font-size="10.00">string</text>
</a>
</g>
</g>
<!-- Node1&#45;&gt;Node10 -->
<g id="edge49_Node000001_Node000010" class="edge">
<title>Node1&#45;&gt;Node10</title>
<g id="a_edge49_Node000001_Node000010"><a xlink:title=" ">
<path fill="none" stroke="#63b8ff" d="M1411.26,-279.69C1404.79,-239.8 1387.41,-132.67 1380.08,-87.51"/>
<polygon fill="#63b8ff" stroke="#63b8ff" points="1383.56,-87.11 1378.5,-77.8 1376.65,-88.23 1383.56,-87.11"/>
</a>
</g>
</g>
<!-- Node25 -->
<g id="Node000025" class="node">
<title>Node25</title>
<g id="a_Node000025"><a xlink:title=" ">
<polygon fill="#e0e0e0" stroke="#999999" points="1457.75,-244 1417.75,-244 1417.75,-224 1457.75,-224 1457.75,-244"/>
<text text-anchor="middle" x="1437.75" y="-230.5" font-family="Helvetica,sans-Serif" font-size="10.00">stack</text>
</a>
</g>
</g>
<!-- Node1&#45;&gt;Node25 -->
<g id="edge47_Node000001_Node000025" class="edge">
<title>Node1&#45;&gt;Node25</title>
<g id="a_edge47_Node000001_Node000025"><a xlink:title=" ">
<path fill="none" stroke="#63b8ff" d="M1419.93,-279.55C1422.92,-272.08 1426.54,-263.03 1429.73,-255.04"/>
<polygon fill="#63b8ff" stroke="#63b8ff" points="1432.96,-256.4 1433.42,-245.81 1426.46,-253.8 1432.96,-256.4"/>
</a>
</g>
</g>
<!-- Node26 -->
<g id="Node000026" class="node">
<title>Node26</title>
<g id="a_Node000026"><a xlink:title=" ">
<polygon fill="#e0e0e0" stroke="#999999" points="1534.12,-244 1475.38,-244 1475.38,-224 1534.12,-224 1534.12,-244"/>
<text text-anchor="middle" x="1504.75" y="-230.5" font-family="Helvetica,sans-Serif" font-size="10.00">stdexcept</text>
</a>
</g>
</g>
<!-- Node1&#45;&gt;Node26 -->
<g id="edge48_Node000001_Node000026" class="edge">
<title>Node1&#45;&gt;Node26</title>
<g id="a_edge48_Node000001_Node000026"><a xlink:title=" ">
<path fill="none" stroke="#63b8ff" d="M1437.18,-279.55C1450.61,-270.69 1467.43,-259.61 1480.92,-250.71"/>
<polygon fill="#63b8ff" stroke="#63b8ff" points="1482.8,-253.67 1489.22,-245.24 1478.94,-247.82 1482.8,-253.67"/>
</a>
</g>
</g>
<!-- Node3 -->
<g id="Node000003" class="node">
<title>Node3</title>
<g id="a_Node000003"><a xlink:href="Core_8hpp.html" target="_top" xlink:title=" ">
<polygon fill="white" stroke="#666666" points="784.62,-188 728.88,-188 728.88,-168 784.62,-168 784.62,-188"/>
<text text-anchor="middle" x="756.75" y="-174.5" font-family="Helvetica,sans-Serif" font-size="10.00">Core.hpp</text>
</a>
</g>
</g>
<!-- Node2&#45;&gt;Node3 -->
<g id="edge2_Node000002_Node000003" class="edge">
<title>Node2&#45;&gt;Node3</title>
<g id="a_edge2_Node000002_Node000003"><a xlink:title=" ">
<path fill="none" stroke="#63b8ff" d="M803,-223.59C795.13,-216.01 783.85,-205.13 774.4,-196.02"/>
<polygon fill="#63b8ff" stroke="#63b8ff" points="777.11,-193.77 767.48,-189.35 772.25,-198.81 777.11,-193.77"/>
</a>
</g>
</g>
<!-- Node2&#45;&gt;Node10 -->
<g id="edge45_Node000002_Node000010" class="edge">
<title>Node2&#45;&gt;Node10</title>
<g id="a_edge45_Node000002_Node000010"><a xlink:title=" ">
<path fill="none" stroke="#63b8ff" d="M838.11,-230.48C929.74,-221.01 1242.56,-185.35 1325.75,-132 1343.63,-120.54 1357.89,-100.59 1366.73,-85.81"/>
<polygon fill="#63b8ff" stroke="#63b8ff" points="1369.57,-87.9 1371.44,-77.47 1363.48,-84.45 1369.57,-87.9"/>
</a>
</g>
</g>
<!-- Node11 -->
<g id="Node000011" class="node">
<title>Node11</title>
<g id="a_Node000011"><a xlink:title=" ">
<polygon fill="#e0e0e0" stroke="#999999" points="1107.25,-76 1064.25,-76 1064.25,-56 1107.25,-56 1107.25,-76"/>
<text text-anchor="middle" x="1085.75" y="-62.5" font-family="Helvetica,sans-Serif" font-size="10.00">vector</text>
</a>
</g>
</g>
<!-- Node2&#45;&gt;Node11 -->
<g id="edge46_Node000002_Node000011" class="edge">
<title>Node2&#45;&gt;Node11</title>
<g id="a_edge46_Node000002_Node000011"><a xlink:title=" ">
<path fill="none" stroke="#63b8ff" d="M838.02,-229.71C911.72,-219.53 1123.64,-185.96 1162.75,-132 1178.97,-109.62 1145.83,-90.1 1118.08,-78.44"/>
<polygon fill="#63b8ff" stroke="#63b8ff" points="1119.44,-75.21 1108.85,-74.78 1116.86,-81.72 1119.44,-75.21"/>
</a>
</g>
</g>
<!-- Node13 -->
<g id="Node000013" class="node">
<title>Node13</title>
<g id="a_Node000013"><a xlink:href="IButtonCommand_8hpp.html" target="_top" xlink:title=" ">
<polygon fill="white" stroke="#666666" points="335.38,-132 224.12,-132 224.12,-112 335.38,-112 335.38,-132"/>
<text text-anchor="middle" x="279.75" y="-118.5" font-family="Helvetica,sans-Serif" font-size="10.00">IButtonCommand.hpp</text>
</a>
</g>
</g>
<!-- Node2&#45;&gt;Node13 -->
<g id="edge34_Node000002_Node000013" class="edge">
<title>Node2&#45;&gt;Node13</title>
<g id="a_edge34_Node000002_Node000013"><a xlink:title=" ">
<path fill="none" stroke="#63b8ff" d="M787.69,-228.52C744.25,-220.69 652.2,-203.85 574.75,-188 489.32,-170.52 390.41,-148.32 331.57,-134.91"/>
<polygon fill="#63b8ff" stroke="#63b8ff" points="332.71,-131.58 322.18,-132.77 331.16,-138.41 332.71,-131.58"/>
</a>
</g>
</g>
<!-- Node16 -->
<g id="Node000016" class="node">
<title>Node16</title>
<g id="a_Node000016"><a xlink:href="IFormCommand_8hpp.html" target="_top" xlink:title=" ">
<polygon fill="white" stroke="#666666" points="599.38,-132 494.12,-132 494.12,-112 599.38,-112 599.38,-132"/>
<text text-anchor="middle" x="546.75" y="-118.5" font-family="Helvetica,sans-Serif" font-size="10.00">IFormCommand.hpp</text>
</a>
</g>
</g>
<!-- Node2&#45;&gt;Node16 -->
<g id="edge35_Node000002_Node000016" class="edge">
<title>Node2&#45;&gt;Node16</title>
<g id="a_edge35_Node000002_Node000016"><a xlink:title=" ">
<path fill="none" stroke="#63b8ff" d="M790.07,-223.62C743.06,-204.18 634.78,-159.4 579.91,-136.71"/>
<polygon fill="#63b8ff" stroke="#63b8ff" points="581.35,-133.52 570.77,-132.93 578.67,-139.99 581.35,-133.52"/>
</a>
</g>
</g>
<!-- Node17 -->
<g id="Node000017" class="node">
<title>Node17</title>
<g id="a_Node000017"><a xlink:href="IGlobalSlashCommand_8hpp.html" target="_top" xlink:title=" ">
<polygon fill="white" stroke="#666666" points="1153.38,-132 1018.12,-132 1018.12,-112 1153.38,-112 1153.38,-132"/>
<text text-anchor="middle" x="1085.75" y="-118.5" font-family="Helvetica,sans-Serif" font-size="10.00">IGlobalSlashCommand.hpp</text>
</a>
</g>
</g>
<!-- Node2&#45;&gt;Node17 -->
<g id="edge36_Node000002_Node000017" class="edge">
<title>Node2&#45;&gt;Node17</title>
<g id="a_edge36_Node000002_Node000017"><a xlink:title=" ">
<path fill="none" stroke="#63b8ff" d="M818.08,-223.77C826.89,-209.41 845.9,-181.92 869.75,-168 892.83,-154.53 954.9,-142.38 1006.62,-134.11"/>
<polygon fill="#63b8ff" stroke="#63b8ff" points="1006.98,-137.59 1016.32,-132.59 1005.9,-130.68 1006.98,-137.59"/>
</a>
</g>
</g>
<!-- Node19 -->
<g id="Node000019" class="node">
<title>Node19</title>
<g id="a_Node000019"><a xlink:href="IMemberCommand_8hpp.html" target="_top" xlink:title=" ">
<polygon fill="white" stroke="#666666" points="999.75,-132 881.75,-132 881.75,-112 999.75,-112 999.75,-132"/>
<text text-anchor="middle" x="940.75" y="-118.5" font-family="Helvetica,sans-Serif" font-size="10.00">IMemberCommand.hpp</text>
</a>
</g>
</g>
<!-- Node2&#45;&gt;Node19 -->
<g id="edge37_Node000002_Node000019" class="edge">
<title>Node2&#45;&gt;Node19</title>
<g id="a_edge37_Node000002_Node000019"><a xlink:title=" ">
<path fill="none" stroke="#63b8ff" d="M813.83,-223.83C815.92,-210.04 821.7,-183.9 836.75,-168 850.77,-153.19 870.49,-143 888.99,-136.11"/>
<polygon fill="#63b8ff" stroke="#63b8ff" points="889.94,-139.48 898.26,-132.92 887.66,-132.86 889.94,-139.48"/>
</a>
</g>
</g>
<!-- Node20 -->
<g id="Node000020" class="node">
<title>Node20</title>
<g id="a_Node000020"><a xlink:href="IMessageCommand_8hpp.html" target="_top" xlink:title=" ">
<polygon fill="white" stroke="#666666" points="206,-132 83.5,-132 83.5,-112 206,-112 206,-132"/>
<text text-anchor="middle" x="144.75" y="-118.5" font-family="Helvetica,sans-Serif" font-size="10.00">IMessageCommand.hpp</text>
</a>
</g>
</g>
<!-- Node2&#45;&gt;Node20 -->
<g id="edge38_Node000002_Node000020" class="edge">
<title>Node2&#45;&gt;Node20</title>
<g id="a_edge38_Node000002_Node000020"><a xlink:title=" ">
<path fill="none" stroke="#63b8ff" d="M787.77,-230.08C732.47,-223.52 595.63,-206.71 481.75,-188 382.4,-171.68 267.38,-148.58 200.66,-134.77"/>
<polygon fill="#63b8ff" stroke="#63b8ff" points="201.56,-131.38 191.06,-132.78 200.14,-138.24 201.56,-131.38"/>
</a>
</g>
</g>
<!-- Node21 -->
<g id="Node000021" class="node">
<title>Node21</title>
<g id="a_Node000021"><a xlink:href="IReactionCommand_8hpp.html" target="_top" xlink:title=" ">
<polygon fill="white" stroke="#666666" points="475.62,-132 353.88,-132 353.88,-112 475.62,-112 475.62,-132"/>
<text text-anchor="middle" x="414.75" y="-118.5" font-family="Helvetica,sans-Serif" font-size="10.00">IReactionCommand.hpp</text>
</a>
</g>
</g>
<!-- Node2&#45;&gt;Node21 -->
<g id="edge39_Node000002_Node000021" class="edge">
<title>Node2&#45;&gt;Node21</title>
<g id="a_edge39_Node000002_Node000021"><a xlink:title=" ">
<path fill="none" stroke="#63b8ff" d="M787.55,-226.04C721.71,-207.84 543.85,-158.68 459.85,-135.46"/>
<polygon fill="#63b8ff" stroke="#63b8ff" points="460.91,-132.13 450.34,-132.84 459.05,-138.87 460.91,-132.13"/>
</a>
</g>
</g>
<!-- Node22 -->
<g id="Node000022" class="node">
<title>Node22</title>
<g id="a_Node000022"><a xlink:href="IReady_8hpp.html" target="_top" xlink:title=" ">
<polygon fill="white" stroke="#666666" points="65.5,-132 0,-132 0,-112 65.5,-112 65.5,-132"/>
<text text-anchor="middle" x="32.75" y="-118.5" font-family="Helvetica,sans-Serif" font-size="10.00">IReady.hpp</text>
</a>
</g>
</g>
<!-- Node2&#45;&gt;Node22 -->
<g id="edge40_Node000002_Node000022" class="edge">
<title>Node2&#45;&gt;Node22</title>
<g id="a_edge40_Node000002_Node000022"><a xlink:title=" ">
<path fill="none" stroke="#63b8ff" d="M787.51,-231.24C719.38,-226.33 526.15,-211.28 366.75,-188 239.57,-169.43 206.06,-158.88 76.88,-132.41"/>
<polygon fill="#63b8ff" stroke="#63b8ff" points="77.73,-129.01 67.23,-130.44 76.33,-135.87 77.73,-129.01"/>
</a>
</g>
</g>
<!-- Node23 -->
<g id="Node000023" class="node">
<title>Node23</title>
<g id="a_Node000023"><a xlink:title=" ">
<polygon fill="#e0e0e0" stroke="#999999" points="913.12,-188 878.38,-188 878.38,-168 913.12,-168 913.12,-188"/>
<text text-anchor="middle" x="895.75" y="-174.5" font-family="Helvetica,sans-Serif" font-size="10.00">map</text>
</a>
</g>
</g>
<!-- Node2&#45;&gt;Node23 -->
<g id="edge43_Node000002_Node000023" class="edge">
<title>Node2&#45;&gt;Node23</title>
<g id="a_edge43_Node000002_Node000023"><a xlink:title=" ">
<path fill="none" stroke="#63b8ff" d="M827.21,-223.59C839.51,-215.59 857.43,-203.93 871.86,-194.54"/>
<polygon fill="#63b8ff" stroke="#63b8ff" points="873.44,-197.69 879.91,-189.3 869.62,-191.82 873.44,-197.69"/>
</a>
</g>
</g>
<!-- Node24 -->
<g id="Node000024" class="node">
<title>Node24</title>
<g id="a_Node000024"><a xlink:title=" ">
<polygon fill="#e0e0e0" stroke="#999999" points="982.38,-188 931.12,-188 931.12,-168 982.38,-168 982.38,-188"/>
<text text-anchor="middle" x="956.75" y="-174.5" font-family="Helvetica,sans-Serif" font-size="10.00">memory</text>
</a>
</g>
</g>
<!-- Node2&#45;&gt;Node24 -->
<g id="edge44_Node000002_Node000024" class="edge">
<title>Node2&#45;&gt;Node24</title>
<g id="a_edge44_Node000002_Node000024"><a xlink:title=" ">
<path fill="none" stroke="#63b8ff" d="M837.83,-223.59C860.82,-214.97 895.1,-202.12 920.96,-192.42"/>
<polygon fill="#63b8ff" stroke="#63b8ff" points="921.92,-195.8 930.05,-189.01 919.46,-189.25 921.92,-195.8"/>
</a>
</g>
</g>
<!-- Node4 -->
<g id="Node000004" class="node">
<title>Node4</title>
<g id="a_Node000004"><a xlink:title=" ">
<polygon fill="#e0e0e0" stroke="#999999" points="864.12,-132 805.38,-132 805.38,-112 864.12,-112 864.12,-132"/>
<text text-anchor="middle" x="834.75" y="-118.5" font-family="Helvetica,sans-Serif" font-size="10.00">dpp/dpp.h</text>
</a>
</g>
</g>
<!-- Node3&#45;&gt;Node4 -->
<g id="edge3_Node000003_Node000004" class="edge">
<title>Node3&#45;&gt;Node4</title>
<g id="a_edge3_Node000003_Node000004"><a xlink:title=" ">
<path fill="none" stroke="#63b8ff" d="M770.34,-167.59C781.79,-159.67 798.41,-148.16 811.91,-138.82"/>
<polygon fill="#63b8ff" stroke="#63b8ff" points="813.58,-141.91 819.81,-133.34 809.6,-136.16 813.58,-141.91"/>
</a>
</g>
</g>
<!-- Node5 -->
<g id="Node000005" class="node">
<title>Node5</title>
<g id="a_Node000005"><a xlink:title=" ">
<polygon fill="#e0e0e0" stroke="#999999" points="708.25,-132 617.25,-132 617.25,-112 708.25,-112 708.25,-132"/>
<text text-anchor="middle" x="662.75" y="-118.5" font-family="Helvetica,sans-Serif" font-size="10.00">dpp/misc&#45;enum.h</text>
</a>
</g>
</g>
<!-- Node3&#45;&gt;Node5 -->
<g id="edge4_Node000003_Node000005" class="edge">
<title>Node3&#45;&gt;Node5</title>
<g id="a_edge4_Node000003_Node000005"><a xlink:title=" ">
<path fill="none" stroke="#63b8ff" d="M740.38,-167.59C726.18,-159.44 705.37,-147.48 688.87,-138"/>
<polygon fill="#63b8ff" stroke="#63b8ff" points="690.98,-135.18 680.56,-133.23 687.49,-141.25 690.98,-135.18"/>
</a>
</g>
</g>
<!-- Node6 -->
<g id="Node000006" class="node">
<title>Node6</title>
<g id="a_Node000006"><a xlink:title=" ">
<polygon fill="#e0e0e0" stroke="#999999" points="786.88,-132 726.62,-132 726.62,-112 786.88,-112 786.88,-132"/>
<text text-anchor="middle" x="756.75" y="-118.5" font-family="Helvetica,sans-Serif" font-size="10.00">fmt/core.h</text>
</a>
</g>
</g>
<!-- Node3&#45;&gt;Node6 -->
<g id="edge5_Node000003_Node000006" class="edge">
<title>Node3&#45;&gt;Node6</title>
<g id="a_edge5_Node000003_Node000006"><a xlink:title=" ">
<path fill="none" stroke="#63b8ff" d="M756.75,-167.59C756.75,-161.01 756.75,-151.96 756.75,-143.73"/>
<polygon fill="#63b8ff" stroke="#63b8ff" points="760.25,-143.81 756.75,-133.81 753.25,-143.81 760.25,-143.81"/>
</a>
</g>
</g>
<!-- Node7 -->
<g id="Node000007" class="node">
<title>Node7</title>
<g id="a_Node000007"><a xlink:href="Database_8hpp.html" target="_top" xlink:title=" ">
<polygon fill="white" stroke="#666666" points="1286.12,-132 1209.38,-132 1209.38,-112 1286.12,-112 1286.12,-132"/>
<text text-anchor="middle" x="1247.75" y="-118.5" font-family="Helvetica,sans-Serif" font-size="10.00">Database.hpp</text>
</a>
</g>
</g>
<!-- Node3&#45;&gt;Node7 -->
<g id="edge6_Node000003_Node000007" class="edge">
<title>Node3&#45;&gt;Node7</title>
<g id="a_edge6_Node000003_Node000007"><a xlink:title=" ">
<path fill="none" stroke="#63b8ff" d="M784.91,-173.9C865.16,-165.08 1095.79,-139.71 1197.98,-128.47"/>
<polygon fill="#63b8ff" stroke="#63b8ff" points="1198.15,-131.98 1207.71,-127.4 1197.38,-125.02 1198.15,-131.98"/>
</a>
</g>
</g>
<!-- Node3&#45;&gt;Node10 -->
<g id="edge33_Node000003_Node000010" class="edge">
<title>Node3&#45;&gt;Node10</title>
<g id="a_edge33_Node000003_Node000010"><a xlink:title=" ">
<path fill="none" stroke="#63b8ff" d="M784.94,-174.75C894.84,-165.97 1288.75,-134.37 1294.75,-132 1321.01,-121.61 1345.62,-99.86 1360.9,-84.39"/>
<polygon fill="#63b8ff" stroke="#63b8ff" points="1363.35,-86.88 1367.71,-77.23 1358.28,-82.06 1363.35,-86.88"/>
</a>
</g>
</g>
<!-- Node3&#45;&gt;Node13 -->
<g id="edge13_Node000003_Node000013" class="edge">
<title>Node3&#45;&gt;Node13</title>
<g id="a_edge13_Node000003_Node000013"><a xlink:title=" ">
<path fill="none" stroke="#63b8ff" d="M728.49,-174.2C663.32,-167.67 497.19,-150.69 347,-132.25"/>
<polygon fill="#63b8ff" stroke="#63b8ff" points="347.61,-128.8 337.26,-131.04 346.75,-135.74 347.61,-128.8"/>
</a>
</g>
</g>
<!-- Node3&#45;&gt;Node16 -->
<g id="edge16_Node000003_Node000016" class="edge">
<title>Node3&#45;&gt;Node16</title>
<g id="a_edge16_Node000003_Node000016"><a xlink:title=" ">
<path fill="none" stroke="#63b8ff" d="M728.43,-169.72C694.07,-160.88 635.64,-145.86 594.33,-135.23"/>
<polygon fill="#63b8ff" stroke="#63b8ff" points="595.45,-131.91 584.89,-132.81 593.71,-138.69 595.45,-131.91"/>
</a>
</g>
</g>
<!-- Node3&#45;&gt;Node17 -->
<g id="edge19_Node000003_Node000017" class="edge">
<title>Node3&#45;&gt;Node17</title>
<g id="a_edge19_Node000003_Node000017"><a xlink:title=" ">
<path fill="none" stroke="#63b8ff" d="M785.09,-172.35C836.2,-163.96 945.19,-146.07 1016.95,-134.29"/>
<polygon fill="#63b8ff" stroke="#63b8ff" points="1017.33,-137.78 1026.63,-132.7 1016.2,-130.87 1017.33,-137.78"/>
</a>
</g>
</g>
<!-- Node3&#45;&gt;Node19 -->
<g id="edge24_Node000003_Node000019" class="edge">
<title>Node3&#45;&gt;Node19</title>
<g id="a_edge24_Node000003_Node000019"><a xlink:title=" ">
<path fill="none" stroke="#63b8ff" d="M785.1,-168.68C815.21,-159.84 863.15,-145.77 897.88,-135.58"/>
<polygon fill="#63b8ff" stroke="#63b8ff" points="898.59,-139.02 907.2,-132.85 896.62,-132.3 898.59,-139.02"/>
</a>
</g>
</g>
<!-- Node3&#45;&gt;Node20 -->
<g id="edge27_Node000003_Node000020" class="edge">
<title>Node3&#45;&gt;Node20</title>
<g id="a_edge27_Node000003_Node000020"><a xlink:title=" ">
<path fill="none" stroke="#63b8ff" d="M728.5,-175.1C649.55,-169.72 419.74,-153.37 217.62,-132.26"/>
<polygon fill="#63b8ff" stroke="#63b8ff" points="218.01,-128.78 207.7,-131.22 217.28,-135.74 218.01,-128.78"/>
</a>
</g>
</g>
<!-- Node3&#45;&gt;Node21 -->
<g id="edge30_Node000003_Node000021" class="edge">
<title>Node3&#45;&gt;Node21</title>
<g id="a_edge30_Node000003_Node000021"><a xlink:title=" ">
<path fill="none" stroke="#63b8ff" d="M728.47,-172.54C675.8,-164.22 561.22,-146.13 486.08,-134.26"/>
<polygon fill="#63b8ff" stroke="#63b8ff" points="486.76,-130.83 476.33,-132.72 485.66,-137.74 486.76,-130.83"/>
</a>
</g>
</g>
<!-- Node8 -->
<g id="Node000008" class="node">
<title>Node8</title>
<g id="a_Node000008"><a xlink:title=" ">
<polygon fill="#e0e0e0" stroke="#999999" points="1300.88,-76 1252.62,-76 1252.62,-56 1300.88,-56 1300.88,-76"/>
<text text-anchor="middle" x="1276.75" y="-62.5" font-family="Helvetica,sans-Serif" font-size="10.00">cstddef</text>
</a>
</g>
</g>
<!-- Node7&#45;&gt;Node8 -->
<g id="edge7_Node000007_Node000008" class="edge">
<title>Node7&#45;&gt;Node8</title>
<g id="a_edge7_Node000007_Node000008"><a xlink:title=" ">
<path fill="none" stroke="#63b8ff" d="M1252.8,-111.59C1256.54,-104.63 1261.77,-94.89 1266.39,-86.29"/>
<polygon fill="#63b8ff" stroke="#63b8ff" points="1269.39,-88.1 1271.04,-77.63 1263.23,-84.79 1269.39,-88.1"/>
</a>
</g>
</g>
<!-- Node9 -->
<g id="Node000009" class="node">
<title>Node9</title>
<g id="a_Node000009"><a xlink:title=" ">
<polygon fill="#e0e0e0" stroke="#999999" points="1284.25,-20 1223.25,-20 1223.25,0 1284.25,0 1284.25,-20"/>
<text text-anchor="middle" x="1253.75" y="-6.5" font-family="Helvetica,sans-Serif" font-size="10.00">pqxx/pqxx</text>
</a>
</g>
</g>
<!-- Node7&#45;&gt;Node9 -->
<g id="edge8_Node000007_Node000009" class="edge">
<title>Node7&#45;&gt;Node9</title>
<g id="a_edge8_Node000007_Node000009"><a xlink:title=" ">
<path fill="none" stroke="#63b8ff" d="M1269.81,-111.55C1284.05,-104.15 1301.41,-92.35 1309.75,-76 1319.5,-56.88 1300.53,-38.69 1282.08,-26.44"/>
<polygon fill="#63b8ff" stroke="#63b8ff" points="1283.99,-23.51 1273.65,-21.23 1280.32,-29.46 1283.99,-23.51"/>
</a>
</g>
</g>
<!-- Node7&#45;&gt;Node10 -->
<g id="edge9_Node000007_Node000010" class="edge">
<title>Node7&#45;&gt;Node10</title>
<g id="a_edge9_Node000007_Node000010"><a xlink:title=" ">
<path fill="none" stroke="#63b8ff" d="M1270.22,-111.59C1291.28,-102.78 1322.94,-89.53 1346.27,-79.76"/>
<polygon fill="#63b8ff" stroke="#63b8ff" points="1347.39,-83.09 1355.26,-76 1344.68,-76.63 1347.39,-83.09"/>
</a>
</g>
</g>
<!-- Node7&#45;&gt;Node11 -->
<g id="edge10_Node000007_Node000011" class="edge">
<title>Node7&#45;&gt;Node11</title>
<g id="a_edge10_Node000007_Node000011"><a xlink:title=" ">
<path fill="none" stroke="#63b8ff" d="M1219.53,-111.59C1191.24,-102.16 1147.72,-87.66 1118.06,-77.77"/>
<polygon fill="#63b8ff" stroke="#63b8ff" points="1119.46,-74.55 1108.87,-74.71 1117.25,-81.19 1119.46,-74.55"/>
</a>
</g>
</g>
<!-- Node12 -->
<g id="Node000012" class="node">
<title>Node12</title>
<g id="a_Node000012"><a xlink:href="RowDTOAdapter_8hpp.html" target="_top" xlink:title=" ">
<polygon fill="white" stroke="#666666" points="1234.62,-76 1124.88,-76 1124.88,-56 1234.62,-56 1234.62,-76"/>
<text text-anchor="middle" x="1179.75" y="-62.5" font-family="Helvetica,sans-Serif" font-size="10.00">RowDTOAdapter.hpp</text>
</a>
</g>
</g>
<!-- Node7&#45;&gt;Node12 -->
<g id="edge11_Node000007_Node000012" class="edge">
<title>Node7&#45;&gt;Node12</title>
<g id="a_edge11_Node000007_Node000012"><a xlink:title=" ">
<path fill="none" stroke="#63b8ff" d="M1235.91,-111.59C1226.06,-103.77 1211.82,-92.46 1200.14,-83.19"/>
<polygon fill="#63b8ff" stroke="#63b8ff" points="1202.65,-80.72 1192.64,-77.24 1198.3,-86.2 1202.65,-80.72"/>
</a>
</g>
</g>
<!-- Node12&#45;&gt;Node9 -->
<g id="edge12_Node000012_Node000009" class="edge">
<title>Node12&#45;&gt;Node9</title>
<g id="a_edge12_Node000012_Node000009"><a xlink:title=" ">
<path fill="none" stroke="#63b8ff" d="M1192.64,-55.59C1203.46,-47.7 1219.16,-36.24 1231.94,-26.92"/>
<polygon fill="#63b8ff" stroke="#63b8ff" points="1233.77,-29.91 1239.79,-21.19 1229.64,-24.26 1233.77,-29.91"/>
</a>
</g>
</g>
<!-- Node14 -->
<g id="Node000014" class="node">
<title>Node14</title>
<g id="a_Node000014"><a xlink:title=" ">
<polygon fill="#e0e0e0" stroke="#999999" points="499.88,-76 427.62,-76 427.62,-56 499.88,-56 499.88,-76"/>
<text text-anchor="middle" x="463.75" y="-62.5" font-family="Helvetica,sans-Serif" font-size="10.00">dpp/cluster.h</text>
</a>
</g>
</g>
<!-- Node13&#45;&gt;Node14 -->
<g id="edge14_Node000013_Node000014" class="edge">
<title>Node13&#45;&gt;Node14</title>
<g id="a_edge14_Node000013_Node000014"><a xlink:title=" ">
<path fill="none" stroke="#63b8ff" d="M311.8,-111.59C341.96,-102.74 387.34,-89.43 420.65,-79.65"/>
<polygon fill="#63b8ff" stroke="#63b8ff" points="421.39,-83.08 430,-76.91 419.42,-76.36 421.39,-83.08"/>
</a>
</g>
</g>
<!-- Node15 -->
<g id="Node000015" class="node">
<title>Node15</title>
<g id="a_Node000015"><a xlink:title=" ">
<polygon fill="#e0e0e0" stroke="#999999" points="409.75,-76 321.75,-76 321.75,-56 409.75,-56 409.75,-76"/>
<text text-anchor="middle" x="365.75" y="-62.5" font-family="Helvetica,sans-Serif" font-size="10.00">dpp/dispatcher.h</text>
</a>
</g>
</g>
<!-- Node13&#45;&gt;Node15 -->
<g id="edge15_Node000013_Node000015" class="edge">
<title>Node13&#45;&gt;Node15</title>
<g id="a_edge15_Node000013_Node000015"><a xlink:title=" ">
<path fill="none" stroke="#63b8ff" d="M294.73,-111.59C307.48,-103.59 326.04,-91.93 340.99,-82.54"/>
<polygon fill="#63b8ff" stroke="#63b8ff" points="342.76,-85.57 349.37,-77.28 339.04,-79.64 342.76,-85.57"/>
</a>
</g>
</g>
<!-- Node16&#45;&gt;Node14 -->
<g id="edge17_Node000016_Node000014" class="edge">
<title>Node16&#45;&gt;Node14</title>
<g id="a_edge17_Node000016_Node000014"><a xlink:title=" ">
<path fill="none" stroke="#63b8ff" d="M532.29,-111.59C519.99,-103.59 502.07,-91.93 487.64,-82.54"/>
<polygon fill="#63b8ff" stroke="#63b8ff" points="489.88,-79.82 479.59,-77.3 486.06,-85.69 489.88,-79.82"/>
</a>
</g>
</g>
<!-- Node16&#45;&gt;Node15 -->
<g id="edge18_Node000016_Node000015" class="edge">
<title>Node16&#45;&gt;Node15</title>
<g id="a_edge18_Node000016_Node000015"><a xlink:title=" ">
<path fill="none" stroke="#63b8ff" d="M515.22,-111.59C485.56,-102.74 440.92,-89.43 408.14,-79.65"/>
<polygon fill="#63b8ff" stroke="#63b8ff" points="409.56,-76.42 398.97,-76.91 407.56,-83.13 409.56,-76.42"/>
</a>
</g>
</g>
<!-- Node17&#45;&gt;Node11 -->
<g id="edge23_Node000017_Node000011" class="edge">
<title>Node17&#45;&gt;Node11</title>
<g id="a_edge23_Node000017_Node000011"><a xlink:title=" ">
<path fill="none" stroke="#63b8ff" d="M1085.75,-111.59C1085.75,-105.01 1085.75,-95.96 1085.75,-87.73"/>
<polygon fill="#63b8ff" stroke="#63b8ff" points="1089.25,-87.81 1085.75,-77.81 1082.25,-87.81 1089.25,-87.81"/>
</a>
</g>
</g>
<!-- Node17&#45;&gt;Node14 -->
<g id="edge21_Node000017_Node000014" class="edge">
<title>Node17&#45;&gt;Node14</title>
<g id="a_edge21_Node000017_Node000014"><a xlink:title=" ">
<path fill="none" stroke="#63b8ff" d="M1017.74,-112.92C1014.71,-112.6 1011.7,-112.29 1008.75,-112 825.1,-93.69 606.11,-77.24 511.34,-70.38"/>
<polygon fill="#63b8ff" stroke="#63b8ff" points="511.88,-66.91 501.65,-69.68 511.38,-73.89 511.88,-66.91"/>
</a>
</g>
</g>
<!-- Node17&#45;&gt;Node15 -->
<g id="edge22_Node000017_Node000015" class="edge">
<title>Node17&#45;&gt;Node15</title>
<g id="a_edge22_Node000017_Node000015"><a xlink:title=" ">
<path fill="none" stroke="#63b8ff" d="M1017.75,-112.85C1014.71,-112.55 1011.7,-112.26 1008.75,-112 750.78,-89.07 681.68,-105.55 421.56,-76.2"/>
<polygon fill="#63b8ff" stroke="#63b8ff" points="422.07,-72.74 411.74,-75.08 421.28,-79.69 422.07,-72.74"/>
</a>
</g>
</g>
<!-- Node18 -->
<g id="Node000018" class="node">
<title>Node18</title>
<g id="a_Node000018"><a xlink:title=" ">
<polygon fill="#e0e0e0" stroke="#999999" points="1046.12,-76 963.38,-76 963.38,-56 1046.12,-56 1046.12,-76"/>
<text text-anchor="middle" x="1004.75" y="-62.5" font-family="Helvetica,sans-Serif" font-size="10.00">appcommand.h</text>
</a>
</g>
</g>
<!-- Node17&#45;&gt;Node18 -->
<g id="edge20_Node000017_Node000018" class="edge">
<title>Node17&#45;&gt;Node18</title>
<g id="a_edge20_Node000017_Node000018"><a xlink:title=" ">
<path fill="none" stroke="#63b8ff" d="M1071.64,-111.59C1059.75,-103.67 1042.48,-92.16 1028.47,-82.82"/>
<polygon fill="#63b8ff" stroke="#63b8ff" points="1030.49,-79.95 1020.23,-77.32 1026.61,-85.78 1030.49,-79.95"/>
</a>
</g>
</g>
<!-- Node19&#45;&gt;Node14 -->
<g id="edge25_Node000019_Node000014" class="edge">
<title>Node19&#45;&gt;Node14</title>
<g id="a_edge25_Node000019_Node000014"><a xlink:title=" ">
<path fill="none" stroke="#63b8ff" d="M881.42,-113.07C878.49,-112.7 875.59,-112.34 872.75,-112 742.06,-96.16 587.58,-79.81 511.28,-71.89"/>
<polygon fill="#63b8ff" stroke="#63b8ff" points="511.98,-68.44 501.67,-70.89 511.26,-75.4 511.98,-68.44"/>
</a>
</g>
</g>
<!-- Node19&#45;&gt;Node15 -->
<g id="edge26_Node000019_Node000015" class="edge">
<title>Node19&#45;&gt;Node15</title>
<g id="a_edge26_Node000019_Node000015"><a xlink:title=" ">
<path fill="none" stroke="#63b8ff" d="M881.43,-112.96C878.5,-112.62 875.59,-112.3 872.75,-112 675.1,-91.1 621.54,-100.61 421.44,-76.23"/>
<polygon fill="#63b8ff" stroke="#63b8ff" points="422.1,-72.79 411.74,-75.04 421.24,-79.73 422.1,-72.79"/>
</a>
</g>
</g>
<!-- Node20&#45;&gt;Node14 -->
<g id="edge28_Node000020_Node000014" class="edge">
<title>Node20&#45;&gt;Node14</title>
<g id="a_edge28_Node000020_Node000014"><a xlink:title=" ">
<path fill="none" stroke="#63b8ff" d="M206.34,-111.51C259.44,-103.18 338.46,-90.46 416.43,-76.37"/>
<polygon fill="#63b8ff" stroke="#63b8ff" points="416.72,-79.88 425.93,-74.65 415.47,-72.99 416.72,-79.88"/>
</a>
</g>
</g>
<!-- Node20&#45;&gt;Node15 -->
<g id="edge29_Node000020_Node000015" class="edge">
<title>Node20&#45;&gt;Node15</title>
<g id="a_edge29_Node000020_Node000015"><a xlink:title=" ">
<path fill="none" stroke="#63b8ff" d="M183.5,-111.53C220.31,-102.54 275.83,-88.97 315.92,-79.18"/>
<polygon fill="#63b8ff" stroke="#63b8ff" points="316.69,-82.59 325.58,-76.82 315.03,-75.79 316.69,-82.59"/>
</a>
</g>
</g>
<!-- Node21&#45;&gt;Node14 -->
<g id="edge31_Node000021_Node000014" class="edge">
<title>Node21&#45;&gt;Node14</title>
<g id="a_edge31_Node000021_Node000014"><a xlink:title=" ">
<path fill="none" stroke="#63b8ff" d="M423.29,-111.59C430.03,-104.16 439.64,-93.58 447.79,-84.58"/>
<polygon fill="#63b8ff" stroke="#63b8ff" points="450.17,-87.18 454.3,-77.42 444.98,-82.47 450.17,-87.18"/>
</a>
</g>
</g>
<!-- Node21&#45;&gt;Node15 -->
<g id="edge32_Node000021_Node000015" class="edge">
<title>Node21&#45;&gt;Node15</title>
<g id="a_edge32_Node000021_Node000015"><a xlink:title=" ">
<path fill="none" stroke="#63b8ff" d="M406.21,-111.59C399.47,-104.16 389.86,-93.58 381.71,-84.58"/>
<polygon fill="#63b8ff" stroke="#63b8ff" points="384.52,-82.47 375.2,-77.42 379.33,-87.18 384.52,-82.47"/>
</a>
</g>
</g>
<!-- Node22&#45;&gt;Node14 -->
<g id="edge41_Node000022_Node000014" class="edge">
<title>Node22&#45;&gt;Node14</title>
<g id="a_edge41_Node000022_Node000014"><a xlink:title=" ">
<path fill="none" stroke="#63b8ff" d="M65.7,-113.59C68.75,-113.01 71.8,-112.47 74.75,-112 223.01,-88.43 264.83,-98.59 416.35,-76.23"/>
<polygon fill="#63b8ff" stroke="#63b8ff" points="416.59,-79.73 425.96,-74.79 415.55,-72.81 416.59,-79.73"/>
</a>
</g>
</g>
<!-- Node22&#45;&gt;Node15 -->
<g id="edge42_Node000022_Node000015" class="edge">
<title>Node22&#45;&gt;Node15</title>
<g id="a_edge42_Node000022_Node000015"><a xlink:title=" ">
<path fill="none" stroke="#63b8ff" d="M65.73,-113.75C68.77,-113.13 71.82,-112.54 74.75,-112 156.52,-96.93 251.86,-82.84 310.51,-74.57"/>
<polygon fill="#63b8ff" stroke="#63b8ff" points="310.82,-78.06 320.24,-73.21 309.85,-71.13 310.82,-78.06"/>
</a>
</g>
</g>
</g>
</svg>
