<?xml version="1.0" encoding="UTF-8" standalone="no"?>
<!DOCTYPE svg PUBLIC "-//W3C//DTD SVG 1.1//EN"
 "http://www.w3.org/Graphics/SVG/1.1/DTD/svg11.dtd">
<!-- Generated by graphviz version 14.1.5 (0)
 -->
<!-- Title: src/bot_library/commands/challenge_role/ChallengeRoleCommand.cpp Pages: 1 -->
<svg width="1550pt" height="488pt"
 viewBox="0.00 0.00 1550.00 488.00" xmlns="http://www.w3.org/2000/svg" xmlns:xlink="http://www.w3.org/1999/xlink">
<g id="graph0" class="graph" transform="scale(1 1) rotate(0) translate(4 484)">
<title>src/bot_library/commands/challenge_role/ChallengeRoleCommand.cpp</title>
<!-- Node1 -->
<g id="Node000001" class="node">
<title>Node1</title>
<g id="a_Node000001"><a xlink:title=" ">
<polygon fill="#999999" stroke="#666666" points="989.83,-480 778.08,-480 778.08,-448 989.83,-448 989.83,-480"/>
<text xml:space="preserve" text-anchor="start" x="786.08" y="-466.5" font-family="Helvetica,sans-Serif" font-size="10.00">src/bot_library/commands</text>
<text xml:space="preserve" text-anchor="middle" x="883.95" y="-454.5" font-family="Helvetica,sans-Serif" font-size="10.00">/challenge_role/ChallengeRoleCommand.cpp</text>
</a>
</g>
</g>
<!-- Node2 -->
<g id="Node000002" class="node">
<title>Node2</title>
<g id="a_Node000002"><a xlink:href="ChallengeRoleCommand_8hpp.html" target="_top" xlink:title=" ">
<polygon fill="white" stroke="#666666" points="705.7,-412 562.2,-412 562.2,-392 705.7,-392 705.7,-412"/>
<text xml:space="preserve" text-anchor="middle" x="633.95" y="-398.5" font-family="Helvetica,sans-Serif" font-size="10.00">ChallengeRoleCommand.hpp</text>
</a>
</g>
</g>
<!-- Node1&#45;&gt;Node2 -->
<g id="edge1_Node000001_Node000002" class="edge">
<title>Node1&#45;&gt;Node2</title>
<g id="a_edge1_Node000001_Node000002"><a xlink:title=" ">
<path fill="none" stroke="#63b8ff" d="M819.57,-447.55C777.57,-437.47 723.51,-424.49 684.58,-415.15"/>
<polygon fill="#63b8ff" stroke="#63b8ff" points="685.53,-411.78 674.99,-412.85 683.9,-418.59 685.53,-411.78"/>
</a>
</g>
</g>
<!-- Node4 -->
<g id="Node000004" class="node">
<title>Node4</title>
<g id="a_Node000004"><a xlink:href="Core_8hpp.html" target="_top" xlink:title=" ">
<polygon fill="white" stroke="#666666" points="855.83,-300 800.08,-300 800.08,-280 855.83,-280 855.83,-300"/>
<text xml:space="preserve" text-anchor="middle" x="827.95" y="-286.5" font-family="Helvetica,sans-Serif" font-size="10.00">Core.hpp</text>
</a>
</g>
</g>
<!-- Node1&#45;&gt;Node4 -->
<g id="edge59_Node000001_Node000004" class="edge">
<title>Node1&#45;&gt;Node4</title>
<g id="a_edge59_Node000001_Node000004"><a xlink:title=" ">
<path fill="none" stroke="#63b8ff" d="M878.98,-447.74C868.83,-416.55 845.72,-345.56 834.42,-310.85"/>
<polygon fill="#63b8ff" stroke="#63b8ff" points="837.84,-310.07 831.42,-301.65 831.19,-312.24 837.84,-310.07"/>
</a>
</g>
</g>
<!-- Node17 -->
<g id="Node000017" class="node">
<title>Node17</title>
<g id="a_Node000017"><a xlink:href="IButtonCommand_8hpp.html" target="_top" xlink:title=" ">
<polygon fill="white" stroke="#666666" points="127.58,-244 16.33,-244 16.33,-224 127.58,-224 127.58,-244"/>
<text xml:space="preserve" text-anchor="middle" x="71.95" y="-230.5" font-family="Helvetica,sans-Serif" font-size="10.00">IButtonCommand.hpp</text>
</a>
</g>
</g>
<!-- Node1&#45;&gt;Node17 -->
<g id="edge68_Node000001_Node000017" class="edge">
<title>Node1&#45;&gt;Node17</title>
<g id="a_edge68_Node000001_Node000017"><a xlink:title=" ">
<path fill="none" stroke="#63b8ff" d="M777.85,-451.8C712.41,-443.62 627.1,-430.68 552.95,-412 408.46,-375.61 376.51,-352.2 236.95,-300 191.23,-282.9 138.84,-262.04 105.59,-248.64"/>
<polygon fill="#63b8ff" stroke="#63b8ff" points="107.07,-245.47 96.49,-244.97 104.45,-251.96 107.07,-245.47"/>
</a>
</g>
</g>
<!-- Node20 -->
<g id="Node000020" class="node">
<title>Node20</title>
<g id="a_Node000020"><a xlink:href="IFormCommand_8hpp.html" target="_top" xlink:title=" ">
<polygon fill="white" stroke="#666666" points="750.58,-244 645.33,-244 645.33,-224 750.58,-224 750.58,-244"/>
<text xml:space="preserve" text-anchor="middle" x="697.95" y="-230.5" font-family="Helvetica,sans-Serif" font-size="10.00">IFormCommand.hpp</text>
</a>
</g>
</g>
<!-- Node1&#45;&gt;Node20 -->
<g id="edge69_Node000001_Node000020" class="edge">
<title>Node1&#45;&gt;Node20</title>
<g id="a_edge69_Node000001_Node000020"><a xlink:title=" ">
<path fill="none" stroke="#63b8ff" d="M871.46,-447.69C838.29,-407.03 748.13,-296.51 712.62,-252.97"/>
<polygon fill="#63b8ff" stroke="#63b8ff" points="715.53,-251.01 706.5,-245.48 710.11,-255.44 715.53,-251.01"/>
</a>
</g>
</g>
<!-- Node21 -->
<g id="Node000021" class="node">
<title>Node21</title>
<g id="a_Node000021"><a xlink:href="IGlobalSlashCommand_8hpp.html" target="_top" xlink:title=" ">
<polygon fill="white" stroke="#666666" points="903.58,-244 768.33,-244 768.33,-224 903.58,-224 903.58,-244"/>
<text xml:space="preserve" text-anchor="middle" x="835.95" y="-230.5" font-family="Helvetica,sans-Serif" font-size="10.00">IGlobalSlashCommand.hpp</text>
</a>
</g>
</g>
<!-- Node1&#45;&gt;Node21 -->
<g id="edge70_Node000001_Node000021" class="edge">
<title>Node1&#45;&gt;Node21</title>
<g id="a_edge70_Node000001_Node000021"><a xlink:title=" ">
<path fill="none" stroke="#63b8ff" d="M884.72,-447.78C885.82,-415.73 885.82,-339.37 864.95,-280 861.65,-270.61 856.04,-261.2 850.63,-253.44"/>
<polygon fill="#63b8ff" stroke="#63b8ff" points="853.52,-251.46 844.74,-245.52 847.9,-255.63 853.52,-251.46"/>
</a>
</g>
</g>
<!-- Node22 -->
<g id="Node000022" class="node">
<title>Node22</title>
<g id="a_Node000022"><a xlink:title=" ">
<polygon fill="#e0e0e0" stroke="#999999" points="877.33,-188 794.58,-188 794.58,-168 877.33,-168 877.33,-188"/>
<text xml:space="preserve" text-anchor="middle" x="835.95" y="-174.5" font-family="Helvetica,sans-Serif" font-size="10.00">appcommand.h</text>
</a>
</g>
</g>
<!-- Node1&#45;&gt;Node22 -->
<g id="edge58_Node000001_Node000022" class="edge">
<title>Node1&#45;&gt;Node22</title>
<g id="a_edge58_Node000001_Node000022"><a xlink:title=" ">
<path fill="none" stroke="#63b8ff" d="M983.56,-447.57C1080.39,-429.68 1212.95,-396.21 1212.95,-347 1212.95,-347 1212.95,-347 1212.95,-289 1212.95,-258.9 1216.86,-243.52 1193.95,-224 1188.19,-219.09 986.93,-195.93 888.75,-184.88"/>
<polygon fill="#63b8ff" stroke="#63b8ff" points="889.43,-181.44 879.1,-183.8 888.65,-188.4 889.43,-181.44"/>
</a>
</g>
</g>
<!-- Node30 -->
<g id="Node000030" class="node">
<title>Node30</title>
<g id="a_Node000030"><a xlink:title=" ">
<polygon fill="#e0e0e0" stroke="#999999" points="1286.58,-412 1241.33,-412 1241.33,-392 1286.58,-392 1286.58,-412"/>
<text xml:space="preserve" text-anchor="middle" x="1263.95" y="-398.5" font-family="Helvetica,sans-Serif" font-size="10.00">variant</text>
</a>
</g>
</g>
<!-- Node1&#45;&gt;Node30 -->
<g id="edge60_Node000001_Node000030" class="edge">
<title>Node1&#45;&gt;Node30</title>
<g id="a_edge60_Node000001_Node000030"><a xlink:title=" ">
<path fill="none" stroke="#63b8ff" d="M990.22,-449.74C1058.19,-440.63 1148.08,-427.42 1226.95,-412 1227.95,-411.81 1228.95,-411.6 1229.97,-411.39"/>
<polygon fill="#63b8ff" stroke="#63b8ff" points="1230.46,-414.87 1239.45,-409.27 1228.93,-408.04 1230.46,-414.87"/>
</a>
</g>
</g>
<!-- Node31 -->
<g id="Node000031" class="node">
<title>Node31</title>
<g id="a_Node000031"><a xlink:href="ChallengeRoleDTO_8hpp.html" target="_top" xlink:title=" ">
<polygon fill="white" stroke="#666666" points="1471.7,-300 1352.2,-300 1352.2,-280 1471.7,-280 1471.7,-300"/>
<text xml:space="preserve" text-anchor="middle" x="1411.95" y="-286.5" font-family="Helvetica,sans-Serif" font-size="10.00">ChallengeRoleDTO.hpp</text>
</a>
</g>
</g>
<!-- Node1&#45;&gt;Node31 -->
<g id="edge61_Node000001_Node000031" class="edge">
<title>Node1&#45;&gt;Node31</title>
<g id="a_edge61_Node000001_Node000031"><a xlink:title=" ">
<path fill="none" stroke="#63b8ff" d="M990.14,-457.92C1094.04,-451.52 1244.01,-438.05 1295.95,-412 1343.24,-388.29 1381.86,-337.24 1400.28,-309.64"/>
<polygon fill="#63b8ff" stroke="#63b8ff" points="1403,-311.87 1405.5,-301.58 1397.13,-308.07 1403,-311.87"/>
</a>
</g>
</g>
<!-- Node32 -->
<g id="Node000032" class="node">
<title>Node32</title>
<g id="a_Node000032"><a xlink:href="ChallengeRoleRepository_8hpp.html" target="_top" xlink:title=" ">
<polygon fill="white" stroke="#666666" points="1488.45,-412 1343.45,-412 1343.45,-392 1488.45,-392 1488.45,-412"/>
<text xml:space="preserve" text-anchor="middle" x="1415.95" y="-398.5" font-family="Helvetica,sans-Serif" font-size="10.00">ChallengeRoleRepository.hpp</text>
</a>
</g>
</g>
<!-- Node1&#45;&gt;Node32 -->
<g id="edge64_Node000001_Node000032" class="edge">
<title>Node1&#45;&gt;Node32</title>
<g id="a_edge64_Node000001_Node000032"><a xlink:title=" ">
<path fill="none" stroke="#63b8ff" d="M990.01,-451.04C1090.55,-439.7 1239.57,-422.89 1332.07,-412.46"/>
<polygon fill="#63b8ff" stroke="#63b8ff" points="1332.29,-415.96 1341.84,-411.36 1331.51,-409 1332.29,-415.96"/>
</a>
</g>
</g>
<!-- Node3 -->
<g id="Node000003" class="node">
<title>Node3</title>
<g id="a_Node000003"><a xlink:href="Bot_8hpp.html" target="_top" xlink:title=" ">
<polygon fill="white" stroke="#666666" points="544.83,-356 495.08,-356 495.08,-336 544.83,-336 544.83,-356"/>
<text xml:space="preserve" text-anchor="middle" x="519.95" y="-342.5" font-family="Helvetica,sans-Serif" font-size="10.00">Bot.hpp</text>
</a>
</g>
</g>
<!-- Node2&#45;&gt;Node3 -->
<g id="edge2_Node000002_Node000003" class="edge">
<title>Node2&#45;&gt;Node3</title>
<g id="a_edge2_Node000002_Node000003"><a xlink:title=" ">
<path fill="none" stroke="#63b8ff" d="M614.1,-391.59C596.47,-383.24 570.44,-370.92 550.22,-361.34"/>
<polygon fill="#63b8ff" stroke="#63b8ff" points="551.87,-358.25 541.33,-357.13 548.87,-364.57 551.87,-358.25"/>
</a>
</g>
</g>
<!-- Node8 -->
<g id="Node000008" class="node">
<title>Node8</title>
<g id="a_Node000008"><a xlink:title=" ">
<polygon fill="#e0e0e0" stroke="#999999" points="1327.95,-132 1287.95,-132 1287.95,-112 1327.95,-112 1327.95,-132"/>
<text xml:space="preserve" text-anchor="middle" x="1307.95" y="-118.5" font-family="Helvetica,sans-Serif" font-size="10.00">string</text>
</a>
</g>
</g>
<!-- Node2&#45;&gt;Node8 -->
<g id="edge57_Node000002_Node000008" class="edge">
<title>Node2&#45;&gt;Node8</title>
<g id="a_edge57_Node000002_Node000008"><a xlink:title=" ">
<path fill="none" stroke="#63b8ff" d="M705.94,-399.39C829.19,-393.27 1083.67,-365.61 1252.95,-244 1280.05,-224.53 1289.87,-218.7 1302.95,-188 1308.94,-173.95 1310,-156.66 1309.67,-143.45"/>
<polygon fill="#63b8ff" stroke="#63b8ff" points="1313.19,-143.56 1309.13,-133.78 1306.2,-143.96 1313.19,-143.56"/>
</a>
</g>
</g>
<!-- Node28 -->
<g id="Node000028" class="node">
<title>Node28</title>
<g id="a_Node000028"><a xlink:title=" ">
<polygon fill="#e0e0e0" stroke="#999999" points="620.95,-356 580.95,-356 580.95,-336 620.95,-336 620.95,-356"/>
<text xml:space="preserve" text-anchor="middle" x="600.95" y="-342.5" font-family="Helvetica,sans-Serif" font-size="10.00">stack</text>
</a>
</g>
</g>
<!-- Node2&#45;&gt;Node28 -->
<g id="edge55_Node000002_Node000028" class="edge">
<title>Node2&#45;&gt;Node28</title>
<g id="a_edge55_Node000002_Node000028"><a xlink:title=" ">
<path fill="none" stroke="#63b8ff" d="M628.21,-391.59C623.9,-384.55 617.86,-374.67 612.56,-366"/>
<polygon fill="#63b8ff" stroke="#63b8ff" points="615.63,-364.3 607.42,-357.59 609.65,-367.95 615.63,-364.3"/>
</a>
</g>
</g>
<!-- Node29 -->
<g id="Node000029" class="node">
<title>Node29</title>
<g id="a_Node000029"><a xlink:title=" ">
<polygon fill="#e0e0e0" stroke="#999999" points="697.33,-356 638.58,-356 638.58,-336 697.33,-336 697.33,-356"/>
<text xml:space="preserve" text-anchor="middle" x="667.95" y="-342.5" font-family="Helvetica,sans-Serif" font-size="10.00">stdexcept</text>
</a>
</g>
</g>
<!-- Node2&#45;&gt;Node29 -->
<g id="edge56_Node000002_Node000029" class="edge">
<title>Node2&#45;&gt;Node29</title>
<g id="a_edge56_Node000002_Node000029"><a xlink:title=" ">
<path fill="none" stroke="#63b8ff" d="M639.88,-391.59C644.31,-384.55 650.53,-374.67 655.99,-366"/>
<polygon fill="#63b8ff" stroke="#63b8ff" points="658.93,-367.91 661.29,-357.58 653,-364.18 658.93,-367.91"/>
</a>
</g>
</g>
<!-- Node3&#45;&gt;Node4 -->
<g id="edge3_Node000003_Node000004" class="edge">
<title>Node3&#45;&gt;Node4</title>
<g id="a_edge3_Node000003_Node000004"><a xlink:title=" ">
<path fill="none" stroke="#63b8ff" d="M545.08,-340.63C553.61,-339.15 563.19,-337.49 571.95,-336 667.03,-319.78 691.22,-318.11 785.95,-300 786.95,-299.81 787.95,-299.62 788.97,-299.42"/>
<polygon fill="#63b8ff" stroke="#63b8ff" points="789.39,-302.9 798.49,-297.48 787.99,-296.04 789.39,-302.9"/>
</a>
</g>
</g>
<!-- Node3&#45;&gt;Node8 -->
<g id="edge53_Node000003_Node000008" class="edge">
<title>Node3&#45;&gt;Node8</title>
<g id="a_edge53_Node000003_Node000008"><a xlink:title=" ">
<path fill="none" stroke="#63b8ff" d="M545.3,-340.36C553.76,-338.87 563.25,-337.29 571.95,-336 861.02,-293.25 959.7,-370.82 1222.95,-244 1256.11,-228.03 1263.45,-218.56 1283.95,-188 1293.09,-174.39 1299.3,-156.85 1303.11,-143.42"/>
<polygon fill="#63b8ff" stroke="#63b8ff" points="1306.44,-144.5 1305.57,-133.94 1299.67,-142.74 1306.44,-144.5"/>
</a>
</g>
</g>
<!-- Node10 -->
<g id="Node000010" class="node">
<title>Node10</title>
<g id="a_Node000010"><a xlink:title=" ">
<polygon fill="#e0e0e0" stroke="#999999" points="707.45,-132 664.45,-132 664.45,-112 707.45,-112 707.45,-132"/>
<text xml:space="preserve" text-anchor="middle" x="685.95" y="-118.5" font-family="Helvetica,sans-Serif" font-size="10.00">vector</text>
</a>
</g>
</g>
<!-- Node3&#45;&gt;Node10 -->
<g id="edge54_Node000003_Node000010" class="edge">
<title>Node3&#45;&gt;Node10</title>
<g id="a_edge54_Node000003_Node000010"><a xlink:title=" ">
<path fill="none" stroke="#63b8ff" d="M494.82,-343.48C383.25,-336.27 -58.91,-302.52 6.95,-224 90.81,-124.04 527.94,-121.19 652.69,-122.45"/>
<polygon fill="#63b8ff" stroke="#63b8ff" points="652.53,-125.95 662.57,-122.57 652.61,-118.95 652.53,-125.95"/>
</a>
</g>
</g>
<!-- Node3&#45;&gt;Node17 -->
<g id="edge43_Node000003_Node000017" class="edge">
<title>Node3&#45;&gt;Node17</title>
<g id="a_edge43_Node000003_Node000017"><a xlink:title=" ">
<path fill="none" stroke="#63b8ff" d="M494.81,-339.91C455.92,-331.94 378.87,-315.8 313.95,-300 244.49,-283.1 164.49,-261.11 116.11,-247.53"/>
<polygon fill="#63b8ff" stroke="#63b8ff" points="117.13,-244.19 106.56,-244.85 115.23,-250.92 117.13,-244.19"/>
</a>
</g>
</g>
<!-- Node3&#45;&gt;Node20 -->
<g id="edge44_Node000003_Node000020" class="edge">
<title>Node3&#45;&gt;Node20</title>
<g id="a_edge44_Node000003_Node000020"><a xlink:title=" ">
<path fill="none" stroke="#63b8ff" d="M535.13,-335.62C565.87,-316.63 635.74,-273.45 673.18,-250.31"/>
<polygon fill="#63b8ff" stroke="#63b8ff" points="674.86,-253.38 681.53,-245.15 671.18,-247.43 674.86,-253.38"/>
</a>
</g>
</g>
<!-- Node3&#45;&gt;Node21 -->
<g id="edge45_Node000003_Node000021" class="edge">
<title>Node3&#45;&gt;Node21</title>
<g id="a_edge45_Node000003_Node000021"><a xlink:title=" ">
<path fill="none" stroke="#63b8ff" d="M545.28,-336.18C600.66,-316.91 732.78,-270.92 798.09,-248.18"/>
<polygon fill="#63b8ff" stroke="#63b8ff" points="799,-251.57 807.29,-244.98 796.7,-244.96 799,-251.57"/>
</a>
</g>
</g>
<!-- Node23 -->
<g id="Node000023" class="node">
<title>Node23</title>
<g id="a_Node000023"><a xlink:href="IMemberCommand_8hpp.html" target="_top" xlink:title=" ">
<polygon fill="white" stroke="#666666" points="346.95,-244 228.95,-244 228.95,-224 346.95,-224 346.95,-244"/>
<text xml:space="preserve" text-anchor="middle" x="287.95" y="-230.5" font-family="Helvetica,sans-Serif" font-size="10.00">IMemberCommand.hpp</text>
</a>
</g>
</g>
<!-- Node3&#45;&gt;Node23 -->
<g id="edge46_Node000003_Node000023" class="edge">
<title>Node3&#45;&gt;Node23</title>
<g id="a_edge46_Node000003_Node000023"><a xlink:title=" ">
<path fill="none" stroke="#63b8ff" d="M500.17,-335.62C459.51,-316.34 366.31,-272.15 318.09,-249.29"/>
<polygon fill="#63b8ff" stroke="#63b8ff" points="319.59,-246.12 309.05,-245 316.59,-252.45 319.59,-246.12"/>
</a>
</g>
</g>
<!-- Node24 -->
<g id="Node000024" class="node">
<title>Node24</title>
<g id="a_Node000024"><a xlink:href="IMessageCommand_8hpp.html" target="_top" xlink:title=" ">
<polygon fill="white" stroke="#666666" points="487.2,-244 364.7,-244 364.7,-224 487.2,-224 487.2,-244"/>
<text xml:space="preserve" text-anchor="middle" x="425.95" y="-230.5" font-family="Helvetica,sans-Serif" font-size="10.00">IMessageCommand.hpp</text>
</a>
</g>
</g>
<!-- Node3&#45;&gt;Node24 -->
<g id="edge47_Node000003_Node000024" class="edge">
<title>Node3&#45;&gt;Node24</title>
<g id="a_edge47_Node000003_Node000024"><a xlink:title=" ">
<path fill="none" stroke="#63b8ff" d="M510.45,-335.6C501.54,-326.66 487.99,-312.74 476.95,-300 463.78,-284.8 449.73,-266.74 439.72,-253.52"/>
<polygon fill="#63b8ff" stroke="#63b8ff" points="442.65,-251.59 433.85,-245.7 437.05,-255.79 442.65,-251.59"/>
</a>
</g>
</g>
<!-- Node25 -->
<g id="Node000025" class="node">
<title>Node25</title>
<g id="a_Node000025"><a xlink:href="IReactionCommand_8hpp.html" target="_top" xlink:title=" ">
<polygon fill="white" stroke="#666666" points="626.83,-244 505.08,-244 505.08,-224 626.83,-224 626.83,-244"/>
<text xml:space="preserve" text-anchor="middle" x="565.95" y="-230.5" font-family="Helvetica,sans-Serif" font-size="10.00">IReactionCommand.hpp</text>
</a>
</g>
</g>
<!-- Node3&#45;&gt;Node25 -->
<g id="edge48_Node000003_Node000025" class="edge">
<title>Node3&#45;&gt;Node25</title>
<g id="a_edge48_Node000003_Node000025"><a xlink:title=" ">
<path fill="none" stroke="#63b8ff" d="M526.49,-335.73C532.48,-326.88 541.26,-313.02 546.95,-300 553.31,-285.47 558.24,-268.21 561.49,-255.12"/>
<polygon fill="#63b8ff" stroke="#63b8ff" points="564.85,-256.09 563.73,-245.56 558.04,-254.5 564.85,-256.09"/>
</a>
</g>
</g>
<!-- Node26 -->
<g id="Node000026" class="node">
<title>Node26</title>
<g id="a_Node000026"><a xlink:href="IReady_8hpp.html" target="_top" xlink:title=" ">
<polygon fill="white" stroke="#666666" points="210.7,-244 145.2,-244 145.2,-224 210.7,-224 210.7,-244"/>
<text xml:space="preserve" text-anchor="middle" x="177.95" y="-230.5" font-family="Helvetica,sans-Serif" font-size="10.00">IReady.hpp</text>
</a>
</g>
</g>
<!-- Node3&#45;&gt;Node26 -->
<g id="edge49_Node000003_Node000026" class="edge">
<title>Node3&#45;&gt;Node26</title>
<g id="a_edge49_Node000003_Node000026"><a xlink:title=" ">
<path fill="none" stroke="#63b8ff" d="M494.73,-336.98C466.51,-328 419.44,-313.01 378.95,-300 322.94,-282 258.2,-261.04 217.66,-247.89"/>
<polygon fill="#63b8ff" stroke="#63b8ff" points="218.93,-244.62 208.34,-244.87 216.77,-251.28 218.93,-244.62"/>
</a>
</g>
</g>
<!-- Node27 -->
<g id="Node000027" class="node">
<title>Node27</title>
<g id="a_Node000027"><a xlink:title=" ">
<polygon fill="#e0e0e0" stroke="#999999" points="537.58,-300 486.33,-300 486.33,-280 537.58,-280 537.58,-300"/>
<text xml:space="preserve" text-anchor="middle" x="511.95" y="-286.5" font-family="Helvetica,sans-Serif" font-size="10.00">memory</text>
</a>
</g>
</g>
<!-- Node3&#45;&gt;Node27 -->
<g id="edge52_Node000003_Node000027" class="edge">
<title>Node3&#45;&gt;Node27</title>
<g id="a_edge52_Node000003_Node000027"><a xlink:title=" ">
<path fill="none" stroke="#63b8ff" d="M518.56,-335.59C517.57,-328.93 516.21,-319.75 514.98,-311.44"/>
<polygon fill="#63b8ff" stroke="#63b8ff" points="518.48,-311.17 513.55,-301.8 511.56,-312.2 518.48,-311.17"/>
</a>
</g>
</g>
<!-- Node5 -->
<g id="Node000005" class="node">
<title>Node5</title>
<g id="a_Node000005"><a xlink:title=" ">
<polygon fill="#e0e0e0" stroke="#999999" points="1075.33,-244 1016.58,-244 1016.58,-224 1075.33,-224 1075.33,-244"/>
<text xml:space="preserve" text-anchor="middle" x="1045.95" y="-230.5" font-family="Helvetica,sans-Serif" font-size="10.00">dpp/dpp.h</text>
</a>
</g>
</g>
<!-- Node4&#45;&gt;Node5 -->
<g id="edge4_Node000004_Node000005" class="edge">
<title>Node4&#45;&gt;Node5</title>
<g id="a_edge4_Node000004_Node000005"><a xlink:title=" ">
<path fill="none" stroke="#63b8ff" d="M856.01,-282.05C893.9,-272.66 961.71,-255.87 1005.22,-245.09"/>
<polygon fill="#63b8ff" stroke="#63b8ff" points="1005.93,-248.52 1014.8,-242.72 1004.25,-241.73 1005.93,-248.52"/>
</a>
</g>
</g>
<!-- Node6 -->
<g id="Node000006" class="node">
<title>Node6</title>
<g id="a_Node000006"><a xlink:title=" ">
<polygon fill="#e0e0e0" stroke="#999999" points="1184.45,-244 1093.45,-244 1093.45,-224 1184.45,-224 1184.45,-244"/>
<text xml:space="preserve" text-anchor="middle" x="1138.95" y="-230.5" font-family="Helvetica,sans-Serif" font-size="10.00">dpp/misc&#45;enum.h</text>
</a>
</g>
</g>
<!-- Node4&#45;&gt;Node6 -->
<g id="edge5_Node000004_Node000006" class="edge">
<title>Node4&#45;&gt;Node6</title>
<g id="a_edge5_Node000004_Node000006"><a xlink:title=" ">
<path fill="none" stroke="#63b8ff" d="M856.1,-284.11C906.99,-275.28 1015.19,-256.49 1082.03,-244.88"/>
<polygon fill="#63b8ff" stroke="#63b8ff" points="1082.45,-248.36 1091.71,-243.2 1081.26,-241.47 1082.45,-248.36"/>
</a>
</g>
</g>
<!-- Node7 -->
<g id="Node000007" class="node">
<title>Node7</title>
<g id="a_Node000007"><a xlink:href="Database_8hpp.html" target="_top" xlink:title=" ">
<polygon fill="white" stroke="#666666" points="998.33,-244 921.58,-244 921.58,-224 998.33,-224 998.33,-244"/>
<text xml:space="preserve" text-anchor="middle" x="959.95" y="-230.5" font-family="Helvetica,sans-Serif" font-size="10.00">Database.hpp</text>
</a>
</g>
</g>
<!-- Node4&#45;&gt;Node7 -->
<g id="edge6_Node000004_Node000007" class="edge">
<title>Node4&#45;&gt;Node7</title>
<g id="a_edge6_Node000004_Node000007"><a xlink:title=" ">
<path fill="none" stroke="#63b8ff" d="M850.95,-279.59C871.73,-271.09 902.6,-258.46 926.19,-248.81"/>
<polygon fill="#63b8ff" stroke="#63b8ff" points="927.45,-252.08 935.38,-245.05 924.8,-245.6 927.45,-252.08"/>
</a>
</g>
</g>
<!-- Node4&#45;&gt;Node8 -->
<g id="edge42_Node000004_Node000008" class="edge">
<title>Node4&#45;&gt;Node8</title>
<g id="a_edge42_Node000004_Node000008"><a xlink:title=" ">
<path fill="none" stroke="#63b8ff" d="M856.28,-287.99C931.53,-284.91 1134.77,-273.97 1193.95,-244 1240.55,-220.4 1278.24,-169.7 1296.33,-142.01"/>
<polygon fill="#63b8ff" stroke="#63b8ff" points="1299.26,-143.91 1301.66,-133.59 1293.35,-140.16 1299.26,-143.91"/>
</a>
</g>
</g>
<!-- Node4&#45;&gt;Node17 -->
<g id="edge22_Node000004_Node000017" class="edge">
<title>Node4&#45;&gt;Node17</title>
<g id="a_edge22_Node000004_Node000017"><a xlink:title=" ">
<path fill="none" stroke="#63b8ff" d="M799.88,-287.93C707.13,-284.23 401.95,-270.8 139.07,-244.25"/>
<polygon fill="#63b8ff" stroke="#63b8ff" points="139.58,-240.79 129.28,-243.25 138.87,-247.75 139.58,-240.79"/>
</a>
</g>
</g>
<!-- Node4&#45;&gt;Node20 -->
<g id="edge25_Node000004_Node000020" class="edge">
<title>Node4&#45;&gt;Node20</title>
<g id="a_edge25_Node000004_Node000020"><a xlink:title=" ">
<path fill="none" stroke="#63b8ff" d="M805.31,-279.59C784.84,-271.09 754.43,-258.46 731.2,-248.81"/>
<polygon fill="#63b8ff" stroke="#63b8ff" points="732.75,-245.66 722.17,-245.06 730.06,-252.13 732.75,-245.66"/>
</a>
</g>
</g>
<!-- Node4&#45;&gt;Node21 -->
<g id="edge28_Node000004_Node000021" class="edge">
<title>Node4&#45;&gt;Node21</title>
<g id="a_edge28_Node000004_Node000021"><a xlink:title=" ">
<path fill="none" stroke="#63b8ff" d="M829.35,-279.59C830.33,-272.93 831.69,-263.75 832.93,-255.44"/>
<polygon fill="#63b8ff" stroke="#63b8ff" points="836.35,-256.2 834.35,-245.8 829.43,-255.17 836.35,-256.2"/>
</a>
</g>
</g>
<!-- Node4&#45;&gt;Node23 -->
<g id="edge33_Node000004_Node000023" class="edge">
<title>Node4&#45;&gt;Node23</title>
<g id="a_edge33_Node000004_Node000023"><a xlink:title=" ">
<path fill="none" stroke="#63b8ff" d="M799.72,-286.67C727.99,-280.68 532.66,-263.87 358.7,-244.28"/>
<polygon fill="#63b8ff" stroke="#63b8ff" points="359.11,-240.8 348.78,-243.15 358.32,-247.76 359.11,-240.8"/>
</a>
</g>
</g>
<!-- Node4&#45;&gt;Node24 -->
<g id="edge36_Node000004_Node000024" class="edge">
<title>Node4&#45;&gt;Node24</title>
<g id="a_edge36_Node000004_Node000024"><a xlink:title=" ">
<path fill="none" stroke="#63b8ff" d="M799.69,-285.2C737.81,-276.89 588.75,-256.87 498.69,-244.77"/>
<polygon fill="#63b8ff" stroke="#63b8ff" points="499.34,-241.33 488.96,-243.46 498.41,-248.26 499.34,-241.33"/>
</a>
</g>
</g>
<!-- Node4&#45;&gt;Node25 -->
<g id="edge39_Node000004_Node000025" class="edge">
<title>Node4&#45;&gt;Node25</title>
<g id="a_edge39_Node000004_Node000025"><a xlink:title=" ">
<path fill="none" stroke="#63b8ff" d="M799.67,-283.17C757.54,-274.49 677.44,-257.98 622.88,-246.73"/>
<polygon fill="#63b8ff" stroke="#63b8ff" points="623.63,-243.31 613.13,-244.72 622.22,-250.17 623.63,-243.31"/>
</a>
</g>
</g>
<!-- Node7&#45;&gt;Node8 -->
<g id="edge7_Node000007_Node000008" class="edge">
<title>Node7&#45;&gt;Node8</title>
<g id="a_edge7_Node000007_Node000008"><a xlink:title=" ">
<path fill="none" stroke="#63b8ff" d="M998.7,-225.7C1061.65,-213.81 1180.03,-191.23 1188.95,-188 1224.08,-175.3 1261.39,-153.36 1284.67,-138.53"/>
<polygon fill="#63b8ff" stroke="#63b8ff" points="1286.57,-141.47 1293.06,-133.09 1282.76,-135.6 1286.57,-141.47"/>
</a>
</g>
</g>
<!-- Node9 -->
<g id="Node000009" class="node">
<title>Node9</title>
<g id="a_Node000009"><a xlink:title=" ">
<polygon fill="#e0e0e0" stroke="#999999" points="764.58,-132 725.33,-132 725.33,-112 764.58,-112 764.58,-132"/>
<text xml:space="preserve" text-anchor="middle" x="744.95" y="-118.5" font-family="Helvetica,sans-Serif" font-size="10.00">utility</text>
</a>
</g>
</g>
<!-- Node7&#45;&gt;Node9 -->
<g id="edge8_Node000007_Node000009" class="edge">
<title>Node7&#45;&gt;Node9</title>
<g id="a_edge8_Node000007_Node000009"><a xlink:title=" ">
<path fill="none" stroke="#63b8ff" d="M951.77,-223.69C939.02,-209.71 913.04,-183.32 885.95,-168 843.03,-143.73 825.46,-147.42 775.62,-132.71"/>
<polygon fill="#63b8ff" stroke="#63b8ff" points="776.87,-129.44 766.28,-129.84 774.81,-136.13 776.87,-129.44"/>
</a>
</g>
</g>
<!-- Node7&#45;&gt;Node10 -->
<g id="edge9_Node000007_Node000010" class="edge">
<title>Node7&#45;&gt;Node10</title>
<g id="a_edge9_Node000007_Node000010"><a xlink:title=" ">
<path fill="none" stroke="#63b8ff" d="M921.3,-224.53C877.78,-214.74 810.01,-198.59 785.95,-188 756.58,-175.07 726.12,-153.97 706.66,-139.33"/>
<polygon fill="#63b8ff" stroke="#63b8ff" points="708.81,-136.58 698.74,-133.27 704.55,-142.13 708.81,-136.58"/>
</a>
</g>
</g>
<!-- Node11 -->
<g id="Node000011" class="node">
<title>Node11</title>
<g id="a_Node000011"><a xlink:href="DatabaseBackend_8hpp.html" target="_top" xlink:title=" ">
<polygon fill="white" stroke="#666666" points="1149.45,-76 1034.45,-76 1034.45,-56 1149.45,-56 1149.45,-76"/>
<text xml:space="preserve" text-anchor="middle" x="1091.95" y="-62.5" font-family="Helvetica,sans-Serif" font-size="10.00">DatabaseBackend.hpp</text>
</a>
</g>
</g>
<!-- Node7&#45;&gt;Node11 -->
<g id="edge10_Node000007_Node000011" class="edge">
<title>Node7&#45;&gt;Node11</title>
<g id="a_edge10_Node000007_Node000011"><a xlink:title=" ">
<path fill="none" stroke="#63b8ff" d="M991.78,-223.54C1016.34,-215.63 1050.77,-203.22 1078.95,-188 1116.19,-167.89 1136.75,-169.71 1155.95,-132 1166.33,-111.63 1144.65,-93.56 1123.76,-81.68"/>
<polygon fill="#63b8ff" stroke="#63b8ff" points="1125.53,-78.65 1115.06,-77.07 1122.26,-84.84 1125.53,-78.65"/>
</a>
</g>
</g>
<!-- Node13 -->
<g id="Node000013" class="node">
<title>Node13</title>
<g id="a_Node000013"><a xlink:href="DatabaseExecutor_8hpp.html" target="_top" xlink:title=" ">
<polygon fill="white" stroke="#666666" points="1048.83,-188 933.08,-188 933.08,-168 1048.83,-168 1048.83,-188"/>
<text xml:space="preserve" text-anchor="middle" x="990.95" y="-174.5" font-family="Helvetica,sans-Serif" font-size="10.00">DatabaseExecutor.hpp</text>
</a>
</g>
</g>
<!-- Node7&#45;&gt;Node13 -->
<g id="edge12_Node000007_Node000013" class="edge">
<title>Node7&#45;&gt;Node13</title>
<g id="a_edge12_Node000007_Node000013"><a xlink:title=" ">
<path fill="none" stroke="#63b8ff" d="M965.35,-223.59C969.4,-216.55 975.07,-206.67 980.05,-198"/>
<polygon fill="#63b8ff" stroke="#63b8ff" points="982.92,-200.03 984.86,-189.61 976.85,-196.54 982.92,-200.03"/>
</a>
</g>
</g>
<!-- Node16 -->
<g id="Node000016" class="node">
<title>Node16</title>
<g id="a_Node000016"><a xlink:href="RowDTOAdapter_8hpp.html" target="_top" xlink:title=" ">
<polygon fill="white" stroke="#666666" points="1146.83,-132 1037.08,-132 1037.08,-112 1146.83,-112 1146.83,-132"/>
<text xml:space="preserve" text-anchor="middle" x="1091.95" y="-118.5" font-family="Helvetica,sans-Serif" font-size="10.00">RowDTOAdapter.hpp</text>
</a>
</g>
</g>
<!-- Node7&#45;&gt;Node16 -->
<g id="edge21_Node000007_Node000016" class="edge">
<title>Node7&#45;&gt;Node16</title>
<g id="a_edge21_Node000007_Node000016"><a xlink:title=" ">
<path fill="none" stroke="#63b8ff" d="M994.05,-223.53C1014.54,-216.45 1040.03,-205.02 1057.95,-188 1071.08,-175.53 1080.12,-156.86 1085.55,-142.72"/>
<polygon fill="#63b8ff" stroke="#63b8ff" points="1088.75,-144.17 1088.78,-133.58 1082.15,-141.84 1088.75,-144.17"/>
</a>
</g>
</g>
<!-- Node12 -->
<g id="Node000012" class="node">
<title>Node12</title>
<g id="a_Node000012"><a xlink:title=" ">
<polygon fill="#e0e0e0" stroke="#999999" points="1122.45,-20 1061.45,-20 1061.45,0 1122.45,0 1122.45,-20"/>
<text xml:space="preserve" text-anchor="middle" x="1091.95" y="-6.5" font-family="Helvetica,sans-Serif" font-size="10.00">pqxx/pqxx</text>
</a>
</g>
</g>
<!-- Node11&#45;&gt;Node12 -->
<g id="edge11_Node000011_Node000012" class="edge">
<title>Node11&#45;&gt;Node12</title>
<g id="a_edge11_Node000011_Node000012"><a xlink:title=" ">
<path fill="none" stroke="#63b8ff" d="M1091.95,-55.59C1091.95,-49.01 1091.95,-39.96 1091.95,-31.73"/>
<polygon fill="#63b8ff" stroke="#63b8ff" points="1095.45,-31.81 1091.95,-21.81 1088.45,-31.81 1095.45,-31.81"/>
</a>
</g>
</g>
<!-- Node13&#45;&gt;Node8 -->
<g id="edge14_Node000013_Node000008" class="edge">
<title>Node13&#45;&gt;Node8</title>
<g id="a_edge14_Node000013_Node000008"><a xlink:title=" ">
<path fill="none" stroke="#63b8ff" d="M1046.53,-167.53C1113.23,-156.17 1222.75,-137.51 1276.38,-128.38"/>
<polygon fill="#63b8ff" stroke="#63b8ff" points="1276.78,-131.86 1286.05,-126.73 1275.6,-124.96 1276.78,-131.86"/>
</a>
</g>
</g>
<!-- Node13&#45;&gt;Node9 -->
<g id="edge15_Node000013_Node000009" class="edge">
<title>Node13&#45;&gt;Node9</title>
<g id="a_edge15_Node000013_Node000009"><a xlink:title=" ">
<path fill="none" stroke="#63b8ff" d="M936.83,-167.5C895.08,-159.8 835.72,-148.03 776.18,-132.66"/>
<polygon fill="#63b8ff" stroke="#63b8ff" points="777.09,-129.28 766.53,-130.13 775.32,-136.05 777.09,-129.28"/>
</a>
</g>
</g>
<!-- Node13&#45;&gt;Node10 -->
<g id="edge16_Node000013_Node000010" class="edge">
<title>Node13&#45;&gt;Node10</title>
<g id="a_edge16_Node000013_Node000010"><a xlink:title=" ">
<path fill="none" stroke="#63b8ff" d="M932.59,-169.68C879.14,-162.48 797.69,-150.24 718.91,-132.46"/>
<polygon fill="#63b8ff" stroke="#63b8ff" points="719.83,-129.08 709.3,-130.25 718.26,-135.9 719.83,-129.08"/>
</a>
</g>
</g>
<!-- Node14 -->
<g id="Node000014" class="node">
<title>Node14</title>
<g id="a_Node000014"><a xlink:title=" ">
<polygon fill="#e0e0e0" stroke="#999999" points="1018.7,-132 965.2,-132 965.2,-112 1018.7,-112 1018.7,-132"/>
<text xml:space="preserve" text-anchor="middle" x="991.95" y="-118.5" font-family="Helvetica,sans-Serif" font-size="10.00">iostream</text>
</a>
</g>
</g>
<!-- Node13&#45;&gt;Node14 -->
<g id="edge13_Node000013_Node000014" class="edge">
<title>Node13&#45;&gt;Node14</title>
<g id="a_edge13_Node000013_Node000014"><a xlink:title=" ">
<path fill="none" stroke="#63b8ff" d="M991.13,-167.59C991.25,-161.01 991.42,-151.96 991.57,-143.73"/>
<polygon fill="#63b8ff" stroke="#63b8ff" points="995.07,-143.87 991.75,-133.81 988.07,-143.75 995.07,-143.87"/>
</a>
</g>
</g>
<!-- Node15 -->
<g id="Node000015" class="node">
<title>Node15</title>
<g id="a_Node000015"><a xlink:href="IDatabaseConnectionProvider_8hpp.html" target="_top" xlink:title=" ">
<polygon fill="white" stroke="#666666" points="947.58,-132 782.33,-132 782.33,-112 947.58,-112 947.58,-132"/>
<text xml:space="preserve" text-anchor="middle" x="864.95" y="-118.5" font-family="Helvetica,sans-Serif" font-size="10.00">IDatabaseConnectionProvider.hpp</text>
</a>
</g>
</g>
<!-- Node13&#45;&gt;Node15 -->
<g id="edge17_Node000013_Node000015" class="edge">
<title>Node13&#45;&gt;Node15</title>
<g id="a_edge17_Node000013_Node000015"><a xlink:title=" ">
<path fill="none" stroke="#63b8ff" d="M969.01,-167.59C949.25,-159.13 919.96,-146.58 897.49,-136.94"/>
<polygon fill="#63b8ff" stroke="#63b8ff" points="899.03,-133.8 888.46,-133.08 896.28,-140.23 899.03,-133.8"/>
</a>
</g>
</g>
<!-- Node13&#45;&gt;Node16 -->
<g id="edge19_Node000013_Node000016" class="edge">
<title>Node13&#45;&gt;Node16</title>
<g id="a_edge19_Node000013_Node000016"><a xlink:title=" ">
<path fill="none" stroke="#63b8ff" d="M1008.55,-167.59C1023.88,-159.4 1046.37,-147.37 1064.14,-137.87"/>
<polygon fill="#63b8ff" stroke="#63b8ff" points="1065.72,-140.99 1072.89,-133.19 1062.42,-134.82 1065.72,-140.99"/>
</a>
</g>
</g>
<!-- Node15&#45;&gt;Node11 -->
<g id="edge18_Node000015_Node000011" class="edge">
<title>Node15&#45;&gt;Node11</title>
<g id="a_edge18_Node000015_Node000011"><a xlink:title=" ">
<path fill="none" stroke="#63b8ff" d="M904.75,-111.53C942.64,-102.52 999.84,-88.91 1041.03,-79.11"/>
<polygon fill="#63b8ff" stroke="#63b8ff" points="1041.81,-82.53 1050.73,-76.81 1040.19,-75.72 1041.81,-82.53"/>
</a>
</g>
</g>
<!-- Node16&#45;&gt;Node11 -->
<g id="edge20_Node000016_Node000011" class="edge">
<title>Node16&#45;&gt;Node11</title>
<g id="a_edge20_Node000016_Node000011"><a xlink:title=" ">
<path fill="none" stroke="#63b8ff" d="M1091.95,-111.59C1091.95,-105.01 1091.95,-95.96 1091.95,-87.73"/>
<polygon fill="#63b8ff" stroke="#63b8ff" points="1095.45,-87.81 1091.95,-77.81 1088.45,-87.81 1095.45,-87.81"/>
</a>
</g>
</g>
<!-- Node18 -->
<g id="Node000018" class="node">
<title>Node18</title>
<g id="a_Node000018"><a xlink:title=" ">
<polygon fill="#e0e0e0" stroke="#999999" points="511.08,-188 438.83,-188 438.83,-168 511.08,-168 511.08,-188"/>
<text xml:space="preserve" text-anchor="middle" x="474.95" y="-174.5" font-family="Helvetica,sans-Serif" font-size="10.00">dpp/cluster.h</text>
</a>
</g>
</g>
<!-- Node17&#45;&gt;Node18 -->
<g id="edge23_Node000017_Node000018" class="edge">
<title>Node17&#45;&gt;Node18</title>
<g id="a_edge23_Node000017_Node000018"><a xlink:title=" ">
<path fill="none" stroke="#63b8ff" d="M127.79,-225.09C130.55,-224.72 133.28,-224.35 135.95,-224 262.9,-207.3 298.08,-208.82 427.5,-188.29"/>
<polygon fill="#63b8ff" stroke="#63b8ff" points="427.83,-191.78 437.15,-186.75 426.72,-184.87 427.83,-191.78"/>
</a>
</g>
</g>
<!-- Node19 -->
<g id="Node000019" class="node">
<title>Node19</title>
<g id="a_Node000019"><a xlink:title=" ">
<polygon fill="#e0e0e0" stroke="#999999" points="420.95,-188 332.95,-188 332.95,-168 420.95,-168 420.95,-188"/>
<text xml:space="preserve" text-anchor="middle" x="376.95" y="-174.5" font-family="Helvetica,sans-Serif" font-size="10.00">dpp/dispatcher.h</text>
</a>
</g>
</g>
<!-- Node17&#45;&gt;Node19 -->
<g id="edge24_Node000017_Node000019" class="edge">
<title>Node17&#45;&gt;Node19</title>
<g id="a_edge24_Node000017_Node000019"><a xlink:title=" ">
<path fill="none" stroke="#63b8ff" d="M125.43,-223.53C180.41,-213.8 265.65,-198.71 321.39,-188.84"/>
<polygon fill="#63b8ff" stroke="#63b8ff" points="321.74,-192.33 330.98,-187.14 320.52,-185.44 321.74,-192.33"/>
</a>
</g>
</g>
<!-- Node20&#45;&gt;Node18 -->
<g id="edge26_Node000020_Node000018" class="edge">
<title>Node20&#45;&gt;Node18</title>
<g id="a_edge26_Node000020_Node000018"><a xlink:title=" ">
<path fill="none" stroke="#63b8ff" d="M658.85,-223.53C620.83,-214.33 563.02,-200.33 522.39,-190.49"/>
<polygon fill="#63b8ff" stroke="#63b8ff" points="523.43,-187.14 512.89,-188.19 521.78,-193.94 523.43,-187.14"/>
</a>
</g>
</g>
<!-- Node20&#45;&gt;Node19 -->
<g id="edge27_Node000020_Node000019" class="edge">
<title>Node20&#45;&gt;Node19</title>
<g id="a_edge27_Node000020_Node000019"><a xlink:title=" ">
<path fill="none" stroke="#63b8ff" d="M645.06,-224.15C593.43,-215.5 512.31,-201.9 432.46,-188.42"/>
<polygon fill="#63b8ff" stroke="#63b8ff" points="433.13,-184.99 422.69,-186.77 431.97,-191.89 433.13,-184.99"/>
</a>
</g>
</g>
<!-- Node21&#45;&gt;Node10 -->
<g id="edge32_Node000021_Node000010" class="edge">
<title>Node21&#45;&gt;Node10</title>
<g id="a_edge32_Node000021_Node000010"><a xlink:title=" ">
<path fill="none" stroke="#63b8ff" d="M802.04,-223.56C780.37,-216.33 752.58,-204.73 731.95,-188 716.38,-175.37 703.69,-156.19 695.61,-141.93"/>
<polygon fill="#63b8ff" stroke="#63b8ff" points="698.9,-140.66 691.08,-133.51 692.74,-143.98 698.9,-140.66"/>
</a>
</g>
</g>
<!-- Node21&#45;&gt;Node18 -->
<g id="edge30_Node000021_Node000018" class="edge">
<title>Node21&#45;&gt;Node18</title>
<g id="a_edge30_Node000021_Node000018"><a xlink:title=" ">
<path fill="none" stroke="#63b8ff" d="M772.66,-223.53C701.27,-212.85 586.79,-195.73 522.59,-186.13"/>
<polygon fill="#63b8ff" stroke="#63b8ff" points="523.11,-182.66 512.7,-184.65 522.07,-189.59 523.11,-182.66"/>
</a>
</g>
</g>
<!-- Node21&#45;&gt;Node19 -->
<g id="edge31_Node000021_Node000019" class="edge">
<title>Node21&#45;&gt;Node19</title>
<g id="a_edge31_Node000021_Node000019"><a xlink:title=" ">
<path fill="none" stroke="#63b8ff" d="M768,-224.92C765.29,-224.61 762.59,-224.3 759.95,-224 616.94,-207.73 577.96,-208.32 432.31,-188.26"/>
<polygon fill="#63b8ff" stroke="#63b8ff" points="433.05,-184.83 422.67,-186.92 432.09,-191.76 433.05,-184.83"/>
</a>
</g>
</g>
<!-- Node21&#45;&gt;Node22 -->
<g id="edge29_Node000021_Node000022" class="edge">
<title>Node21&#45;&gt;Node22</title>
<g id="a_edge29_Node000021_Node000022"><a xlink:title=" ">
<path fill="none" stroke="#63b8ff" d="M835.95,-223.59C835.95,-217.01 835.95,-207.96 835.95,-199.73"/>
<polygon fill="#63b8ff" stroke="#63b8ff" points="839.45,-199.81 835.95,-189.81 832.45,-199.81 839.45,-199.81"/>
</a>
</g>
</g>
<!-- Node23&#45;&gt;Node18 -->
<g id="edge34_Node000023_Node000018" class="edge">
<title>Node23&#45;&gt;Node18</title>
<g id="a_edge34_Node000023_Node000018"><a xlink:title=" ">
<path fill="none" stroke="#63b8ff" d="M320.53,-223.59C351.17,-214.74 397.29,-201.43 431.15,-191.65"/>
<polygon fill="#63b8ff" stroke="#63b8ff" points="432.04,-195.04 440.67,-188.9 430.09,-188.31 432.04,-195.04"/>
</a>
</g>
</g>
<!-- Node23&#45;&gt;Node19 -->
<g id="edge35_Node000023_Node000019" class="edge">
<title>Node23&#45;&gt;Node19</title>
<g id="a_edge35_Node000023_Node000019"><a xlink:title=" ">
<path fill="none" stroke="#63b8ff" d="M303.46,-223.59C316.77,-215.51 336.23,-203.71 351.78,-194.27"/>
<polygon fill="#63b8ff" stroke="#63b8ff" points="353.3,-197.44 360.04,-189.26 349.67,-191.46 353.3,-197.44"/>
</a>
</g>
</g>
<!-- Node24&#45;&gt;Node18 -->
<g id="edge37_Node000024_Node000018" class="edge">
<title>Node24&#45;&gt;Node18</title>
<g id="a_edge37_Node000024_Node000018"><a xlink:title=" ">
<path fill="none" stroke="#63b8ff" d="M434.49,-223.59C441.23,-216.16 450.84,-205.58 459,-196.58"/>
<polygon fill="#63b8ff" stroke="#63b8ff" points="461.37,-199.18 465.5,-189.42 456.19,-194.47 461.37,-199.18"/>
</a>
</g>
</g>
<!-- Node24&#45;&gt;Node19 -->
<g id="edge38_Node000024_Node000019" class="edge">
<title>Node24&#45;&gt;Node19</title>
<g id="a_edge38_Node000024_Node000019"><a xlink:title=" ">
<path fill="none" stroke="#63b8ff" d="M417.42,-223.59C410.67,-216.16 401.07,-205.58 392.91,-196.58"/>
<polygon fill="#63b8ff" stroke="#63b8ff" points="395.72,-194.47 386.41,-189.42 390.54,-199.18 395.72,-194.47"/>
</a>
</g>
</g>
<!-- Node25&#45;&gt;Node18 -->
<g id="edge40_Node000025_Node000018" class="edge">
<title>Node25&#45;&gt;Node18</title>
<g id="a_edge40_Node000025_Node000018"><a xlink:title=" ">
<path fill="none" stroke="#63b8ff" d="M550.1,-223.59C536.48,-215.51 516.59,-203.71 500.69,-194.27"/>
<polygon fill="#63b8ff" stroke="#63b8ff" points="502.62,-191.35 492.23,-189.25 499.04,-197.37 502.62,-191.35"/>
</a>
</g>
</g>
<!-- Node25&#45;&gt;Node19 -->
<g id="edge41_Node000025_Node000019" class="edge">
<title>Node25&#45;&gt;Node19</title>
<g id="a_edge41_Node000025_Node000019"><a xlink:title=" ">
<path fill="none" stroke="#63b8ff" d="M533.03,-223.59C501.92,-214.71 455.04,-201.31 420.78,-191.52"/>
<polygon fill="#63b8ff" stroke="#63b8ff" points="422.16,-188.28 411.59,-188.9 420.24,-195.01 422.16,-188.28"/>
</a>
</g>
</g>
<!-- Node26&#45;&gt;Node18 -->
<g id="edge50_Node000026_Node000018" class="edge">
<title>Node26&#45;&gt;Node18</title>
<g id="a_edge50_Node000026_Node000018"><a xlink:title=" ">
<path fill="none" stroke="#63b8ff" d="M210.94,-225.8C213.99,-225.17 217.02,-224.56 219.95,-224 309.39,-206.76 334.93,-205.37 427.32,-188.44"/>
<polygon fill="#63b8ff" stroke="#63b8ff" points="427.93,-191.89 437.13,-186.63 426.66,-185 427.93,-191.89"/>
</a>
</g>
</g>
<!-- Node26&#45;&gt;Node19 -->
<g id="edge51_Node000026_Node000019" class="edge">
<title>Node26&#45;&gt;Node19</title>
<g id="a_edge51_Node000026_Node000019"><a xlink:title=" ">
<path fill="none" stroke="#63b8ff" d="M210.81,-224.08C243.63,-215.18 294.34,-201.42 331.11,-191.44"/>
<polygon fill="#63b8ff" stroke="#63b8ff" points="331.84,-194.87 340.57,-188.87 330.01,-188.11 331.84,-194.87"/>
</a>
</g>
</g>
<!-- Node31&#45;&gt;Node8 -->
<g id="edge63_Node000031_Node000008" class="edge">
<title>Node31&#45;&gt;Node8</title>
<g id="a_edge63_Node000031_Node000008"><a xlink:title=" ">
<path fill="none" stroke="#63b8ff" d="M1411.64,-279.52C1410.47,-257.72 1404.95,-203.21 1378.95,-168 1368.63,-154.02 1352.54,-143.31 1338.29,-135.85"/>
<polygon fill="#63b8ff" stroke="#63b8ff" points="1340.23,-132.9 1329.71,-131.66 1337.16,-139.19 1340.23,-132.9"/>
</a>
</g>
</g>
<!-- Node31&#45;&gt;Node16 -->
<g id="edge62_Node000031_Node000016" class="edge">
<title>Node31&#45;&gt;Node16</title>
<g id="a_edge62_Node000031_Node000016"><a xlink:title=" ">
<path fill="none" stroke="#63b8ff" d="M1393.83,-279.6C1340.59,-251.98 1184.35,-170.93 1120.07,-137.59"/>
<polygon fill="#63b8ff" stroke="#63b8ff" points="1121.71,-134.49 1111.22,-132.99 1118.48,-140.71 1121.71,-134.49"/>
</a>
</g>
</g>
<!-- Node32&#45;&gt;Node31 -->
<g id="edge67_Node000032_Node000031" class="edge">
<title>Node32&#45;&gt;Node31</title>
<g id="a_edge67_Node000032_Node000031"><a xlink:title=" ">
<path fill="none" stroke="#63b8ff" d="M1415.61,-391.62C1414.97,-374.01 1413.57,-335.59 1412.7,-311.65"/>
<polygon fill="#63b8ff" stroke="#63b8ff" points="1416.21,-311.73 1412.35,-301.87 1409.21,-311.99 1416.21,-311.73"/>
</a>
</g>
</g>
<!-- Node33 -->
<g id="Node000033" class="node">
<title>Node33</title>
<g id="a_Node000033"><a xlink:href="IRepository_8hpp.html" target="_top" xlink:title=" ">
<polygon fill="white" stroke="#666666" points="1542.08,-356 1457.83,-356 1457.83,-336 1542.08,-336 1542.08,-356"/>
<text xml:space="preserve" text-anchor="middle" x="1499.95" y="-342.5" font-family="Helvetica,sans-Serif" font-size="10.00">IRepository.hpp</text>
</a>
</g>
</g>
<!-- Node32&#45;&gt;Node33 -->
<g id="edge65_Node000032_Node000033" class="edge">
<title>Node32&#45;&gt;Node33</title>
<g id="a_edge65_Node000032_Node000033"><a xlink:title=" ">
<path fill="none" stroke="#63b8ff" d="M1430.58,-391.59C1443.04,-383.59 1461.17,-371.93 1475.77,-362.54"/>
<polygon fill="#63b8ff" stroke="#63b8ff" points="1477.42,-365.65 1483.93,-357.3 1473.63,-359.76 1477.42,-365.65"/>
</a>
</g>
</g>
<!-- Node34 -->
<g id="Node000034" class="node">
<title>Node34</title>
<g id="a_Node000034"><a xlink:title=" ">
<polygon fill="#e0e0e0" stroke="#999999" points="1538.08,-300 1489.83,-300 1489.83,-280 1538.08,-280 1538.08,-300"/>
<text xml:space="preserve" text-anchor="middle" x="1513.95" y="-286.5" font-family="Helvetica,sans-Serif" font-size="10.00">cstddef</text>
</a>
</g>
</g>
<!-- Node33&#45;&gt;Node34 -->
<g id="edge66_Node000033_Node000034" class="edge">
<title>Node33&#45;&gt;Node34</title>
<g id="a_edge66_Node000033_Node000034"><a xlink:title=" ">
<path fill="none" stroke="#63b8ff" d="M1502.39,-335.59C1504.12,-328.93 1506.5,-319.75 1508.65,-311.44"/>
<polygon fill="#63b8ff" stroke="#63b8ff" points="1512.04,-312.32 1511.16,-301.76 1505.27,-310.56 1512.04,-312.32"/>
</a>
</g>
</g>
</g>
</svg>
