<?xml version="1.0" encoding="UTF-8" standalone="no"?>
<!DOCTYPE svg PUBLIC "-//W3C//DTD SVG 1.1//EN"
 "http://www.w3.org/Graphics/SVG/1.1/DTD/svg11.dtd">
<!-- Generated by graphviz version 13.0.1 (0)
 -->
<!-- Title: src/bot_library/commands/challenge_role/ChallengeRoleCommand.cpp Pages: 1 -->
<svg width="1556pt" height="432pt"
 viewBox="0.00 0.00 1556.00 432.00" xmlns="http://www.w3.org/2000/svg" xmlns:xlink="http://www.w3.org/1999/xlink">
<g id="graph0" class="graph" transform="scale(1 1) rotate(0) translate(4 428)">
<title>src/bot_library/commands/challenge_role/ChallengeRoleCommand.cpp</title>
<!-- Node1 -->
<g id="Node000001" class="node">
<title>Node1</title>
<g id="a_Node000001"><a xlink:title=" ">
<polygon fill="#999999" stroke="#666666" points="1340.5,-424 1128.75,-424 1128.75,-392 1340.5,-392 1340.5,-424"/>
<text xml:space="preserve" text-anchor="start" x="1136.75" y="-410.5" font-family="Helvetica,sans-Serif" font-size="10.00">src/bot_library/commands</text>
<text xml:space="preserve" text-anchor="middle" x="1234.62" y="-398.5" font-family="Helvetica,sans-Serif" font-size="10.00">/challenge_role/ChallengeRoleCommand.cpp</text>
</a>
</g>
</g>
<!-- Node2 -->
<g id="Node000002" class="node">
<title>Node2</title>
<g id="a_Node000002"><a xlink:href="ChallengeRoleCommand_8hpp.html" target="_top" xlink:title=" ">
<polygon fill="white" stroke="#666666" points="779.38,-356 635.88,-356 635.88,-336 779.38,-336 779.38,-356"/>
<text xml:space="preserve" text-anchor="middle" x="707.62" y="-342.5" font-family="Helvetica,sans-Serif" font-size="10.00">ChallengeRoleCommand.hpp</text>
</a>
</g>
</g>
<!-- Node1&#45;&gt;Node2 -->
<g id="edge1_Node000001_Node000002" class="edge">
<title>Node1&#45;&gt;Node2</title>
<g id="a_edge1_Node000001_Node000002"><a xlink:title=" ">
<path fill="none" stroke="#63b8ff" d="M1128.3,-394.89C1028.82,-383.57 882.25,-366.88 790.98,-356.49"/>
<polygon fill="#63b8ff" stroke="#63b8ff" points="791.42,-353.02 781.09,-355.36 790.63,-359.97 791.42,-353.02"/>
</a>
</g>
</g>
<!-- Node4 -->
<g id="Node000004" class="node">
<title>Node4</title>
<g id="a_Node000004"><a xlink:href="Core_8hpp.html" target="_top" xlink:title=" ">
<polygon fill="white" stroke="#666666" points="844.5,-244 788.75,-244 788.75,-224 844.5,-224 844.5,-244"/>
<text xml:space="preserve" text-anchor="middle" x="816.62" y="-230.5" font-family="Helvetica,sans-Serif" font-size="10.00">Core.hpp</text>
</a>
</g>
</g>
<!-- Node1&#45;&gt;Node4 -->
<g id="edge51_Node000001_Node000004" class="edge">
<title>Node1&#45;&gt;Node4</title>
<g id="a_edge51_Node000001_Node000004"><a xlink:title=" ">
<path fill="none" stroke="#63b8ff" d="M1197.16,-391.58C1116.37,-358.34 926.86,-280.36 849.94,-248.71"/>
<polygon fill="#63b8ff" stroke="#63b8ff" points="851.42,-245.53 840.84,-244.96 848.75,-252.01 851.42,-245.53"/>
</a>
</g>
</g>
<!-- Node14 -->
<g id="Node000014" class="node">
<title>Node14</title>
<g id="a_Node000014"><a xlink:href="IButtonCommand_8hpp.html" target="_top" xlink:title=" ">
<polygon fill="white" stroke="#666666" points="111.25,-188 0,-188 0,-168 111.25,-168 111.25,-188"/>
<text xml:space="preserve" text-anchor="middle" x="55.62" y="-174.5" font-family="Helvetica,sans-Serif" font-size="10.00">IButtonCommand.hpp</text>
</a>
</g>
</g>
<!-- Node1&#45;&gt;Node14 -->
<g id="edge60_Node000001_Node000014" class="edge">
<title>Node1&#45;&gt;Node14</title>
<g id="a_edge60_Node000001_Node000014"><a xlink:title=" ">
<path fill="none" stroke="#63b8ff" d="M1128.54,-407.79C993.35,-406.81 753.15,-398.4 552.62,-356 369.84,-317.35 162.82,-227.93 86.22,-193.17"/>
<polygon fill="#63b8ff" stroke="#63b8ff" points="87.81,-190.05 77.26,-189.08 84.9,-196.42 87.81,-190.05"/>
</a>
</g>
</g>
<!-- Node17 -->
<g id="Node000017" class="node">
<title>Node17</title>
<g id="a_Node000017"><a xlink:href="IFormCommand_8hpp.html" target="_top" xlink:title=" ">
<polygon fill="white" stroke="#666666" points="234.25,-188 129,-188 129,-168 234.25,-168 234.25,-188"/>
<text xml:space="preserve" text-anchor="middle" x="181.62" y="-174.5" font-family="Helvetica,sans-Serif" font-size="10.00">IFormCommand.hpp</text>
</a>
</g>
</g>
<!-- Node1&#45;&gt;Node17 -->
<g id="edge61_Node000001_Node000017" class="edge">
<title>Node1&#45;&gt;Node17</title>
<g id="a_edge61_Node000001_Node000017"><a xlink:title=" ">
<path fill="none" stroke="#63b8ff" d="M1128.52,-407.5C1006.02,-405.92 799.2,-396.61 626.62,-356 462.22,-317.31 278.54,-228.58 209.69,-193.58"/>
<polygon fill="#63b8ff" stroke="#63b8ff" points="211.49,-190.57 200.99,-189.13 208.3,-196.8 211.49,-190.57"/>
</a>
</g>
</g>
<!-- Node18 -->
<g id="Node000018" class="node">
<title>Node18</title>
<g id="a_Node000018"><a xlink:href="IGlobalSlashCommand_8hpp.html" target="_top" xlink:title=" ">
<polygon fill="white" stroke="#666666" points="887.25,-188 752,-188 752,-168 887.25,-168 887.25,-188"/>
<text xml:space="preserve" text-anchor="middle" x="819.62" y="-174.5" font-family="Helvetica,sans-Serif" font-size="10.00">IGlobalSlashCommand.hpp</text>
</a>
</g>
</g>
<!-- Node1&#45;&gt;Node18 -->
<g id="edge62_Node000001_Node000018" class="edge">
<title>Node1&#45;&gt;Node18</title>
<g id="a_edge62_Node000001_Node000018"><a xlink:title=" ">
<path fill="none" stroke="#63b8ff" d="M1206.43,-391.51C1130.27,-349.67 921.15,-234.78 846.52,-193.78"/>
<polygon fill="#63b8ff" stroke="#63b8ff" points="848.3,-190.76 837.85,-189.01 844.93,-196.89 848.3,-190.76"/>
</a>
</g>
</g>
<!-- Node19 -->
<g id="Node000019" class="node">
<title>Node19</title>
<g id="a_Node000019"><a xlink:title=" ">
<polygon fill="#e0e0e0" stroke="#999999" points="1223,-132 1140.25,-132 1140.25,-112 1223,-112 1223,-132"/>
<text xml:space="preserve" text-anchor="middle" x="1181.62" y="-118.5" font-family="Helvetica,sans-Serif" font-size="10.00">appcommand.h</text>
</a>
</g>
</g>
<!-- Node1&#45;&gt;Node19 -->
<g id="edge50_Node000001_Node000019" class="edge">
<title>Node1&#45;&gt;Node19</title>
<g id="a_edge50_Node000001_Node000019"><a xlink:title=" ">
<path fill="none" stroke="#63b8ff" d="M1243.06,-391.76C1254.25,-370.07 1272.62,-328.72 1272.62,-291 1272.62,-291 1272.62,-291 1272.62,-233 1272.62,-191.5 1233.7,-157.23 1206.76,-138.49"/>
<polygon fill="#63b8ff" stroke="#63b8ff" points="1209,-135.77 1198.74,-133.14 1205.12,-141.59 1209,-135.77"/>
</a>
</g>
</g>
<!-- Node27 -->
<g id="Node000027" class="node">
<title>Node27</title>
<g id="a_Node000027"><a xlink:title=" ">
<polygon fill="#e0e0e0" stroke="#999999" points="1346.25,-356 1301,-356 1301,-336 1346.25,-336 1346.25,-356"/>
<text xml:space="preserve" text-anchor="middle" x="1323.62" y="-342.5" font-family="Helvetica,sans-Serif" font-size="10.00">variant</text>
</a>
</g>
</g>
<!-- Node1&#45;&gt;Node27 -->
<g id="edge52_Node000001_Node000027" class="edge">
<title>Node1&#45;&gt;Node27</title>
<g id="a_edge52_Node000001_Node000027"><a xlink:title=" ">
<path fill="none" stroke="#63b8ff" d="M1257.54,-391.55C1270.68,-382.69 1287.12,-371.61 1300.32,-362.71"/>
<polygon fill="#63b8ff" stroke="#63b8ff" points="1302.08,-365.75 1308.41,-357.25 1298.17,-359.94 1302.08,-365.75"/>
</a>
</g>
</g>
<!-- Node28 -->
<g id="Node000028" class="node">
<title>Node28</title>
<g id="a_Node000028"><a xlink:href="ChallengeRoleDTO_8hpp.html" target="_top" xlink:title=" ">
<polygon fill="white" stroke="#666666" points="1446.38,-244 1326.88,-244 1326.88,-224 1446.38,-224 1446.38,-244"/>
<text xml:space="preserve" text-anchor="middle" x="1386.62" y="-230.5" font-family="Helvetica,sans-Serif" font-size="10.00">ChallengeRoleDTO.hpp</text>
</a>
</g>
</g>
<!-- Node1&#45;&gt;Node28 -->
<g id="edge53_Node000001_Node000028" class="edge">
<title>Node1&#45;&gt;Node28</title>
<g id="a_edge53_Node000001_Node000028"><a xlink:title=" ">
<path fill="none" stroke="#63b8ff" d="M1300.6,-391.56C1320.75,-383.89 1341.34,-372.58 1355.62,-356 1380.2,-327.49 1385.7,-282 1386.7,-255.68"/>
<polygon fill="#63b8ff" stroke="#63b8ff" points="1390.19,-256.02 1386.86,-245.96 1383.19,-255.9 1390.19,-256.02"/>
</a>
</g>
</g>
<!-- Node29 -->
<g id="Node000029" class="node">
<title>Node29</title>
<g id="a_Node000029"><a xlink:href="ChallengeRoleRepository_8hpp.html" target="_top" xlink:title=" ">
<polygon fill="white" stroke="#666666" points="1548.12,-356 1403.12,-356 1403.12,-336 1548.12,-336 1548.12,-356"/>
<text xml:space="preserve" text-anchor="middle" x="1475.62" y="-342.5" font-family="Helvetica,sans-Serif" font-size="10.00">ChallengeRoleRepository.hpp</text>
</a>
</g>
</g>
<!-- Node1&#45;&gt;Node29 -->
<g id="edge56_Node000001_Node000029" class="edge">
<title>Node1&#45;&gt;Node29</title>
<g id="a_edge56_Node000001_Node000029"><a xlink:title=" ">
<path fill="none" stroke="#63b8ff" d="M1296.69,-391.55C1337.01,-381.51 1388.84,-368.61 1426.34,-359.27"/>
<polygon fill="#63b8ff" stroke="#63b8ff" points="1427.15,-362.67 1436.01,-356.86 1425.46,-355.88 1427.15,-362.67"/>
</a>
</g>
</g>
<!-- Node3 -->
<g id="Node000003" class="node">
<title>Node3</title>
<g id="a_Node000003"><a xlink:href="Bot_8hpp.html" target="_top" xlink:title=" ">
<polygon fill="white" stroke="#666666" points="732.5,-300 682.75,-300 682.75,-280 732.5,-280 732.5,-300"/>
<text xml:space="preserve" text-anchor="middle" x="707.62" y="-286.5" font-family="Helvetica,sans-Serif" font-size="10.00">Bot.hpp</text>
</a>
</g>
</g>
<!-- Node2&#45;&gt;Node3 -->
<g id="edge2_Node000002_Node000003" class="edge">
<title>Node2&#45;&gt;Node3</title>
<g id="a_edge2_Node000002_Node000003"><a xlink:title=" ">
<path fill="none" stroke="#63b8ff" d="M707.62,-335.59C707.62,-329.01 707.62,-319.96 707.62,-311.73"/>
<polygon fill="#63b8ff" stroke="#63b8ff" points="711.13,-311.81 707.63,-301.81 704.13,-311.81 711.13,-311.81"/>
</a>
</g>
</g>
<!-- Node9 -->
<g id="Node000009" class="node">
<title>Node9</title>
<g id="a_Node000009"><a xlink:title=" ">
<polygon fill="#e0e0e0" stroke="#999999" points="1292.62,-132 1252.62,-132 1252.62,-112 1292.62,-112 1292.62,-132"/>
<text xml:space="preserve" text-anchor="middle" x="1272.62" y="-118.5" font-family="Helvetica,sans-Serif" font-size="10.00">string</text>
</a>
</g>
</g>
<!-- Node2&#45;&gt;Node9 -->
<g id="edge49_Node000002_Node000009" class="edge">
<title>Node2&#45;&gt;Node9</title>
<g id="a_edge49_Node000002_Node000009"><a xlink:title=" ">
<path fill="none" stroke="#63b8ff" d="M761.06,-335.52C842.74,-320.33 1003.06,-287.73 1134.62,-244 1193.94,-224.28 1225.83,-237.78 1263.62,-188 1273.12,-175.5 1275,-157.62 1274.71,-143.77"/>
<polygon fill="#63b8ff" stroke="#63b8ff" points="1278.22,-143.74 1274.09,-133.98 1271.23,-144.18 1278.22,-143.74"/>
</a>
</g>
</g>
<!-- Node25 -->
<g id="Node000025" class="node">
<title>Node25</title>
<g id="a_Node000025"><a xlink:title=" ">
<polygon fill="#e0e0e0" stroke="#999999" points="588.62,-300 548.62,-300 548.62,-280 588.62,-280 588.62,-300"/>
<text xml:space="preserve" text-anchor="middle" x="568.62" y="-286.5" font-family="Helvetica,sans-Serif" font-size="10.00">stack</text>
</a>
</g>
</g>
<!-- Node2&#45;&gt;Node25 -->
<g id="edge47_Node000002_Node000025" class="edge">
<title>Node2&#45;&gt;Node25</title>
<g id="a_edge47_Node000002_Node000025"><a xlink:title=" ">
<path fill="none" stroke="#63b8ff" d="M683.41,-335.59C660.11,-326.54 624.76,-312.81 599.45,-302.98"/>
<polygon fill="#63b8ff" stroke="#63b8ff" points="600.95,-299.8 590.36,-299.44 598.41,-306.33 600.95,-299.8"/>
</a>
</g>
</g>
<!-- Node26 -->
<g id="Node000026" class="node">
<title>Node26</title>
<g id="a_Node000026"><a xlink:title=" ">
<polygon fill="#e0e0e0" stroke="#999999" points="665,-300 606.25,-300 606.25,-280 665,-280 665,-300"/>
<text xml:space="preserve" text-anchor="middle" x="635.62" y="-286.5" font-family="Helvetica,sans-Serif" font-size="10.00">stdexcept</text>
</a>
</g>
</g>
<!-- Node2&#45;&gt;Node26 -->
<g id="edge48_Node000002_Node000026" class="edge">
<title>Node2&#45;&gt;Node26</title>
<g id="a_edge48_Node000002_Node000026"><a xlink:title=" ">
<path fill="none" stroke="#63b8ff" d="M695.08,-335.59C684.66,-327.77 669.58,-316.46 657.21,-307.19"/>
<polygon fill="#63b8ff" stroke="#63b8ff" points="659.33,-304.41 649.23,-301.21 655.13,-310.01 659.33,-304.41"/>
</a>
</g>
</g>
<!-- Node3&#45;&gt;Node4 -->
<g id="edge3_Node000003_Node000004" class="edge">
<title>Node3&#45;&gt;Node4</title>
<g id="a_edge3_Node000003_Node000004"><a xlink:title=" ">
<path fill="none" stroke="#63b8ff" d="M726.61,-279.59C743.39,-271.28 768.12,-259.03 787.41,-249.47"/>
<polygon fill="#63b8ff" stroke="#63b8ff" points="788.73,-252.73 796.13,-245.15 785.62,-246.45 788.73,-252.73"/>
</a>
</g>
</g>
<!-- Node3&#45;&gt;Node9 -->
<g id="edge45_Node000003_Node000009" class="edge">
<title>Node3&#45;&gt;Node9</title>
<g id="a_edge45_Node000003_Node000009"><a xlink:title=" ">
<path fill="none" stroke="#63b8ff" d="M732.74,-287.23C827.17,-280.14 1159.78,-251.05 1241.62,-188 1255.86,-177.03 1263.89,-157.89 1268.18,-143.21"/>
<polygon fill="#63b8ff" stroke="#63b8ff" points="1271.54,-144.22 1270.6,-133.67 1264.75,-142.5 1271.54,-144.22"/>
</a>
</g>
</g>
<!-- Node10 -->
<g id="Node000010" class="node">
<title>Node10</title>
<g id="a_Node000010"><a xlink:title=" ">
<polygon fill="#e0e0e0" stroke="#999999" points="937.12,-132 894.12,-132 894.12,-112 937.12,-112 937.12,-132"/>
<text xml:space="preserve" text-anchor="middle" x="915.62" y="-118.5" font-family="Helvetica,sans-Serif" font-size="10.00">vector</text>
</a>
</g>
</g>
<!-- Node3&#45;&gt;Node10 -->
<g id="edge46_Node000003_Node000010" class="edge">
<title>Node3&#45;&gt;Node10</title>
<g id="a_edge46_Node000003_Node000010"><a xlink:title=" ">
<path fill="none" stroke="#63b8ff" d="M732.91,-285.97C763.75,-281.27 816.38,-269.89 853.62,-244 879.39,-226.09 882.42,-215.98 896.62,-188 903.8,-173.86 908.69,-156.57 911.71,-143.38"/>
<polygon fill="#63b8ff" stroke="#63b8ff" points="915.11,-144.21 913.74,-133.71 908.26,-142.78 915.11,-144.21"/>
</a>
</g>
</g>
<!-- Node3&#45;&gt;Node14 -->
<g id="edge35_Node000003_Node000014" class="edge">
<title>Node3&#45;&gt;Node14</title>
<g id="a_edge35_Node000003_Node000014"><a xlink:title=" ">
<path fill="none" stroke="#63b8ff" d="M682.46,-281.96C679.49,-281.24 676.5,-280.57 673.62,-280 554.87,-256.46 523.17,-263.12 403.62,-244 300.86,-227.56 181.8,-204.43 112.95,-190.66"/>
<polygon fill="#63b8ff" stroke="#63b8ff" points="113.91,-187.28 103.41,-188.74 112.53,-194.14 113.91,-187.28"/>
</a>
</g>
</g>
<!-- Node3&#45;&gt;Node17 -->
<g id="edge36_Node000003_Node000017" class="edge">
<title>Node3&#45;&gt;Node17</title>
<g id="a_edge36_Node000003_Node000017"><a xlink:title=" ">
<path fill="none" stroke="#63b8ff" d="M682.41,-282.16C679.46,-281.41 676.48,-280.67 673.62,-280 631.63,-270.14 360.63,-215.18 239.72,-190.73"/>
<polygon fill="#63b8ff" stroke="#63b8ff" points="240.48,-187.32 229.98,-188.77 239.09,-194.18 240.48,-187.32"/>
</a>
</g>
</g>
<!-- Node3&#45;&gt;Node18 -->
<g id="edge37_Node000003_Node000018" class="edge">
<title>Node3&#45;&gt;Node18</title>
<g id="a_edge37_Node000003_Node000018"><a xlink:title=" ">
<path fill="none" stroke="#63b8ff" d="M717.17,-279.62C736.02,-261.11 778.24,-219.65 802.18,-196.13"/>
<polygon fill="#63b8ff" stroke="#63b8ff" points="804.34,-198.92 809.02,-189.42 799.43,-193.93 804.34,-198.92"/>
</a>
</g>
</g>
<!-- Node20 -->
<g id="Node000020" class="node">
<title>Node20</title>
<g id="a_Node000020"><a xlink:href="IMemberCommand_8hpp.html" target="_top" xlink:title=" ">
<polygon fill="white" stroke="#666666" points="453.62,-188 335.62,-188 335.62,-168 453.62,-168 453.62,-188"/>
<text xml:space="preserve" text-anchor="middle" x="394.62" y="-174.5" font-family="Helvetica,sans-Serif" font-size="10.00">IMemberCommand.hpp</text>
</a>
</g>
</g>
<!-- Node3&#45;&gt;Node20 -->
<g id="edge38_Node000003_Node000020" class="edge">
<title>Node3&#45;&gt;Node20</title>
<g id="a_edge38_Node000003_Node000020"><a xlink:title=" ">
<path fill="none" stroke="#63b8ff" d="M694.38,-279.51C671.6,-263.34 625.71,-231.48 607.62,-224 581.72,-213.28 514.3,-199.87 462.18,-190.49"/>
<polygon fill="#63b8ff" stroke="#63b8ff" points="462.93,-187.07 452.47,-188.76 461.7,-193.96 462.93,-187.07"/>
</a>
</g>
</g>
<!-- Node21 -->
<g id="Node000021" class="node">
<title>Node21</title>
<g id="a_Node000021"><a xlink:href="IMessageCommand_8hpp.html" target="_top" xlink:title=" ">
<polygon fill="white" stroke="#666666" points="593.88,-188 471.38,-188 471.38,-168 593.88,-168 593.88,-188"/>
<text xml:space="preserve" text-anchor="middle" x="532.62" y="-174.5" font-family="Helvetica,sans-Serif" font-size="10.00">IMessageCommand.hpp</text>
</a>
</g>
</g>
<!-- Node3&#45;&gt;Node21 -->
<g id="edge39_Node000003_Node000021" class="edge">
<title>Node3&#45;&gt;Node21</title>
<g id="a_edge39_Node000003_Node000021"><a xlink:title=" ">
<path fill="none" stroke="#63b8ff" d="M700.97,-279.83C690.56,-266.04 669.15,-239.89 645.62,-224 625.06,-210.11 599.56,-199.49 578,-192.07"/>
<polygon fill="#63b8ff" stroke="#63b8ff" points="579.16,-188.76 568.56,-188.95 576.96,-195.41 579.16,-188.76"/>
</a>
</g>
</g>
<!-- Node22 -->
<g id="Node000022" class="node">
<title>Node22</title>
<g id="a_Node000022"><a xlink:href="IReactionCommand_8hpp.html" target="_top" xlink:title=" ">
<polygon fill="white" stroke="#666666" points="733.5,-188 611.75,-188 611.75,-168 733.5,-168 733.5,-188"/>
<text xml:space="preserve" text-anchor="middle" x="672.62" y="-174.5" font-family="Helvetica,sans-Serif" font-size="10.00">IReactionCommand.hpp</text>
</a>
</g>
</g>
<!-- Node3&#45;&gt;Node22 -->
<g id="edge40_Node000003_Node000022" class="edge">
<title>Node3&#45;&gt;Node22</title>
<g id="a_edge40_Node000003_Node000022"><a xlink:title=" ">
<path fill="none" stroke="#63b8ff" d="M704.64,-279.62C699.01,-261.92 686.7,-223.24 679.09,-199.32"/>
<polygon fill="#63b8ff" stroke="#63b8ff" points="682.43,-198.27 676.06,-189.8 675.76,-200.39 682.43,-198.27"/>
</a>
</g>
</g>
<!-- Node23 -->
<g id="Node000023" class="node">
<title>Node23</title>
<g id="a_Node000023"><a xlink:href="IReady_8hpp.html" target="_top" xlink:title=" ">
<polygon fill="white" stroke="#666666" points="317.38,-188 251.88,-188 251.88,-168 317.38,-168 317.38,-188"/>
<text xml:space="preserve" text-anchor="middle" x="284.62" y="-174.5" font-family="Helvetica,sans-Serif" font-size="10.00">IReady.hpp</text>
</a>
</g>
</g>
<!-- Node3&#45;&gt;Node23 -->
<g id="edge41_Node000003_Node000023" class="edge">
<title>Node3&#45;&gt;Node23</title>
<g id="a_edge41_Node000003_Node000023"><a xlink:title=" ">
<path fill="none" stroke="#63b8ff" d="M684.61,-279.59C664.09,-270.98 633.41,-257.55 607.62,-244 592.44,-236.02 590.77,-229.79 574.62,-224 473.17,-187.6 438.49,-206.37 328.81,-188.22"/>
<polygon fill="#63b8ff" stroke="#63b8ff" points="329.54,-184.8 319.09,-186.54 328.35,-191.69 329.54,-184.8"/>
</a>
</g>
</g>
<!-- Node24 -->
<g id="Node000024" class="node">
<title>Node24</title>
<g id="a_Node000024"><a xlink:title=" ">
<polygon fill="#e0e0e0" stroke="#999999" points="565.25,-244 514,-244 514,-224 565.25,-224 565.25,-244"/>
<text xml:space="preserve" text-anchor="middle" x="539.62" y="-230.5" font-family="Helvetica,sans-Serif" font-size="10.00">memory</text>
</a>
</g>
</g>
<!-- Node3&#45;&gt;Node24 -->
<g id="edge44_Node000003_Node000024" class="edge">
<title>Node3&#45;&gt;Node24</title>
<g id="a_edge44_Node000003_Node000024"><a xlink:title=" ">
<path fill="none" stroke="#63b8ff" d="M682.47,-280.92C654.31,-271.86 608.4,-257.11 576.25,-246.77"/>
<polygon fill="#63b8ff" stroke="#63b8ff" points="577.53,-243.51 566.94,-243.78 575.39,-250.17 577.53,-243.51"/>
</a>
</g>
</g>
<!-- Node5 -->
<g id="Node000005" class="node">
<title>Node5</title>
<g id="a_Node000005"><a xlink:title=" ">
<polygon fill="#e0e0e0" stroke="#999999" points="1097,-188 1038.25,-188 1038.25,-168 1097,-168 1097,-188"/>
<text xml:space="preserve" text-anchor="middle" x="1067.62" y="-174.5" font-family="Helvetica,sans-Serif" font-size="10.00">dpp/dpp.h</text>
</a>
</g>
</g>
<!-- Node4&#45;&gt;Node5 -->
<g id="edge4_Node000004_Node000005" class="edge">
<title>Node4&#45;&gt;Node5</title>
<g id="a_edge4_Node000004_Node000005"><a xlink:title=" ">
<path fill="none" stroke="#63b8ff" d="M844.78,-227.19C883.44,-219.17 955.39,-204.13 1026.83,-188.37"/>
<polygon fill="#63b8ff" stroke="#63b8ff" points="1027.34,-191.84 1036.35,-186.26 1025.83,-185 1027.34,-191.84"/>
</a>
</g>
</g>
<!-- Node6 -->
<g id="Node000006" class="node">
<title>Node6</title>
<g id="a_Node000006"><a xlink:title=" ">
<polygon fill="#e0e0e0" stroke="#999999" points="1206.12,-188 1115.12,-188 1115.12,-168 1206.12,-168 1206.12,-188"/>
<text xml:space="preserve" text-anchor="middle" x="1160.62" y="-174.5" font-family="Helvetica,sans-Serif" font-size="10.00">dpp/misc&#45;enum.h</text>
</a>
</g>
</g>
<!-- Node4&#45;&gt;Node6 -->
<g id="edge5_Node000004_Node000006" class="edge">
<title>Node4&#45;&gt;Node6</title>
<g id="a_edge5_Node000004_Node000006"><a xlink:title=" ">
<path fill="none" stroke="#63b8ff" d="M844.94,-228.67C894.89,-221 1002.21,-204.47 1103.65,-188.31"/>
<polygon fill="#63b8ff" stroke="#63b8ff" points="1103.89,-191.81 1113.22,-186.78 1102.79,-184.9 1103.89,-191.81"/>
</a>
</g>
</g>
<!-- Node7 -->
<g id="Node000007" class="node">
<title>Node7</title>
<g id="a_Node000007"><a xlink:href="Database_8hpp.html" target="_top" xlink:title=" ">
<polygon fill="white" stroke="#666666" points="1020,-188 943.25,-188 943.25,-168 1020,-168 1020,-188"/>
<text xml:space="preserve" text-anchor="middle" x="981.62" y="-174.5" font-family="Helvetica,sans-Serif" font-size="10.00">Database.hpp</text>
</a>
</g>
</g>
<!-- Node4&#45;&gt;Node7 -->
<g id="edge6_Node000004_Node000007" class="edge">
<title>Node4&#45;&gt;Node7</title>
<g id="a_edge6_Node000004_Node000007"><a xlink:title=" ">
<path fill="none" stroke="#63b8ff" d="M844.99,-223.72C871.71,-214.97 911.98,-201.79 941.89,-192"/>
<polygon fill="#63b8ff" stroke="#63b8ff" points="942.95,-195.34 951.36,-188.9 940.77,-188.69 942.95,-195.34"/>
</a>
</g>
</g>
<!-- Node4&#45;&gt;Node9 -->
<g id="edge34_Node000004_Node000009" class="edge">
<title>Node4&#45;&gt;Node9</title>
<g id="a_edge34_Node000004_Node000009"><a xlink:title=" ">
<path fill="none" stroke="#63b8ff" d="M844.93,-232.43C924.9,-230.42 1150.91,-221.82 1215.62,-188 1235.51,-177.61 1251.61,-157.18 1261.56,-141.99"/>
<polygon fill="#63b8ff" stroke="#63b8ff" points="1264.36,-144.13 1266.65,-133.78 1258.41,-140.44 1264.36,-144.13"/>
</a>
</g>
</g>
<!-- Node4&#45;&gt;Node14 -->
<g id="edge14_Node000004_Node000014" class="edge">
<title>Node4&#45;&gt;Node14</title>
<g id="a_edge14_Node000004_Node000014"><a xlink:title=" ">
<path fill="none" stroke="#63b8ff" d="M788.34,-231.94C694.93,-228.27 387.55,-214.92 122.82,-188.26"/>
<polygon fill="#63b8ff" stroke="#63b8ff" points="123.25,-184.78 112.95,-187.25 122.54,-191.75 123.25,-184.78"/>
</a>
</g>
</g>
<!-- Node4&#45;&gt;Node17 -->
<g id="edge17_Node000004_Node000017" class="edge">
<title>Node4&#45;&gt;Node17</title>
<g id="a_edge17_Node000004_Node000017"><a xlink:title=" ">
<path fill="none" stroke="#63b8ff" d="M788.49,-231.48C706.47,-226.89 460.32,-212.11 245.66,-188.28"/>
<polygon fill="#63b8ff" stroke="#63b8ff" points="246.33,-184.83 236,-187.19 245.55,-191.79 246.33,-184.83"/>
</a>
</g>
</g>
<!-- Node4&#45;&gt;Node18 -->
<g id="edge20_Node000004_Node000018" class="edge">
<title>Node4&#45;&gt;Node18</title>
<g id="a_edge20_Node000004_Node000018"><a xlink:title=" ">
<path fill="none" stroke="#63b8ff" d="M817.15,-223.59C817.51,-217.01 818.02,-207.96 818.47,-199.73"/>
<polygon fill="#63b8ff" stroke="#63b8ff" points="821.96,-199.99 819.02,-189.81 814.98,-199.6 821.96,-199.99"/>
</a>
</g>
</g>
<!-- Node4&#45;&gt;Node20 -->
<g id="edge25_Node000004_Node000020" class="edge">
<title>Node4&#45;&gt;Node20</title>
<g id="a_edge25_Node000004_Node000020"><a xlink:title=" ">
<path fill="none" stroke="#63b8ff" d="M788.63,-229.49C730.47,-222.19 592.1,-204.77 465.04,-188.31"/>
<polygon fill="#63b8ff" stroke="#63b8ff" points="465.83,-184.88 455.46,-187.07 464.93,-191.82 465.83,-184.88"/>
</a>
</g>
</g>
<!-- Node4&#45;&gt;Node21 -->
<g id="edge28_Node000004_Node000021" class="edge">
<title>Node4&#45;&gt;Node21</title>
<g id="a_edge28_Node000004_Node000021"><a xlink:title=" ">
<path fill="none" stroke="#63b8ff" d="M788.36,-227.62C743.21,-219.04 653.81,-202.04 593.61,-190.6"/>
<polygon fill="#63b8ff" stroke="#63b8ff" points="594.32,-187.17 583.84,-188.74 593.01,-194.04 594.32,-187.17"/>
</a>
</g>
</g>
<!-- Node4&#45;&gt;Node22 -->
<g id="edge31_Node000004_Node000022" class="edge">
<title>Node4&#45;&gt;Node22</title>
<g id="a_edge31_Node000004_Node000022"><a xlink:title=" ">
<path fill="none" stroke="#63b8ff" d="M791.54,-223.59C768.56,-214.97 734.27,-202.12 708.41,-192.42"/>
<polygon fill="#63b8ff" stroke="#63b8ff" points="709.91,-189.25 699.32,-189.01 707.46,-195.8 709.91,-189.25"/>
</a>
</g>
</g>
<!-- Node8 -->
<g id="Node000008" class="node">
<title>Node8</title>
<g id="a_Node000008"><a xlink:title=" ">
<polygon fill="#e0e0e0" stroke="#999999" points="1008.38,-132 954.88,-132 954.88,-112 1008.38,-112 1008.38,-132"/>
<text xml:space="preserve" text-anchor="middle" x="981.62" y="-118.5" font-family="Helvetica,sans-Serif" font-size="10.00">iostream</text>
</a>
</g>
</g>
<!-- Node7&#45;&gt;Node8 -->
<g id="edge7_Node000007_Node000008" class="edge">
<title>Node7&#45;&gt;Node8</title>
<g id="a_edge7_Node000007_Node000008"><a xlink:title=" ">
<path fill="none" stroke="#63b8ff" d="M981.62,-167.59C981.62,-161.01 981.62,-151.96 981.62,-143.73"/>
<polygon fill="#63b8ff" stroke="#63b8ff" points="985.13,-143.81 981.63,-133.81 978.13,-143.81 985.13,-143.81"/>
</a>
</g>
</g>
<!-- Node7&#45;&gt;Node9 -->
<g id="edge8_Node000007_Node000009" class="edge">
<title>Node7&#45;&gt;Node9</title>
<g id="a_edge8_Node000007_Node000009"><a xlink:title=" ">
<path fill="none" stroke="#63b8ff" d="M1020.39,-169.7C1023.52,-169.12 1026.62,-168.55 1029.62,-168 1119.33,-151.6 1142.18,-149.78 1231.62,-132 1234.67,-131.39 1237.84,-130.74 1241,-130.07"/>
<polygon fill="#63b8ff" stroke="#63b8ff" points="1241.71,-133.5 1250.74,-127.97 1240.23,-126.66 1241.71,-133.5"/>
</a>
</g>
</g>
<!-- Node7&#45;&gt;Node10 -->
<g id="edge9_Node000007_Node000010" class="edge">
<title>Node7&#45;&gt;Node10</title>
<g id="a_edge9_Node000007_Node000010"><a xlink:title=" ">
<path fill="none" stroke="#63b8ff" d="M970.13,-167.59C960.66,-159.85 947.02,-148.69 935.75,-139.47"/>
<polygon fill="#63b8ff" stroke="#63b8ff" points="938.12,-136.88 928.16,-133.26 933.68,-142.3 938.12,-136.88"/>
</a>
</g>
</g>
<!-- Node11 -->
<g id="Node000011" class="node">
<title>Node11</title>
<g id="a_Node000011"><a xlink:href="DatabaseBackend_8hpp.html" target="_top" xlink:title=" ">
<polygon fill="white" stroke="#666666" points="1284.12,-76 1169.12,-76 1169.12,-56 1284.12,-56 1284.12,-76"/>
<text xml:space="preserve" text-anchor="middle" x="1226.62" y="-62.5" font-family="Helvetica,sans-Serif" font-size="10.00">DatabaseBackend.hpp</text>
</a>
</g>
</g>
<!-- Node7&#45;&gt;Node11 -->
<g id="edge10_Node000007_Node000011" class="edge">
<title>Node7&#45;&gt;Node11</title>
<g id="a_edge10_Node000007_Node000011"><a xlink:title=" ">
<path fill="none" stroke="#63b8ff" d="M1002.51,-167.62C1045.64,-148.26 1144.71,-103.78 1195.44,-81"/>
<polygon fill="#63b8ff" stroke="#63b8ff" points="1196.72,-84.26 1204.41,-76.97 1193.85,-77.88 1196.72,-84.26"/>
</a>
</g>
</g>
<!-- Node13 -->
<g id="Node000013" class="node">
<title>Node13</title>
<g id="a_Node000013"><a xlink:href="RowDTOAdapter_8hpp.html" target="_top" xlink:title=" ">
<polygon fill="white" stroke="#666666" points="1420.5,-132 1310.75,-132 1310.75,-112 1420.5,-112 1420.5,-132"/>
<text xml:space="preserve" text-anchor="middle" x="1365.62" y="-118.5" font-family="Helvetica,sans-Serif" font-size="10.00">RowDTOAdapter.hpp</text>
</a>
</g>
</g>
<!-- Node7&#45;&gt;Node13 -->
<g id="edge12_Node000007_Node000013" class="edge">
<title>Node7&#45;&gt;Node13</title>
<g id="a_edge12_Node000007_Node000013"><a xlink:title=" ">
<path fill="none" stroke="#63b8ff" d="M1020.37,-169.55C1023.5,-169.01 1026.61,-168.48 1029.62,-168 1146.51,-149.32 1178.92,-148.52 1299.32,-132.3"/>
<polygon fill="#63b8ff" stroke="#63b8ff" points="1299.53,-135.8 1308.97,-130.99 1298.59,-128.86 1299.53,-135.8"/>
</a>
</g>
</g>
<!-- Node12 -->
<g id="Node000012" class="node">
<title>Node12</title>
<g id="a_Node000012"><a xlink:title=" ">
<polygon fill="#e0e0e0" stroke="#999999" points="1257.12,-20 1196.12,-20 1196.12,0 1257.12,0 1257.12,-20"/>
<text xml:space="preserve" text-anchor="middle" x="1226.62" y="-6.5" font-family="Helvetica,sans-Serif" font-size="10.00">pqxx/pqxx</text>
</a>
</g>
</g>
<!-- Node11&#45;&gt;Node12 -->
<g id="edge11_Node000011_Node000012" class="edge">
<title>Node11&#45;&gt;Node12</title>
<g id="a_edge11_Node000011_Node000012"><a xlink:title=" ">
<path fill="none" stroke="#63b8ff" d="M1226.62,-55.59C1226.62,-49.01 1226.62,-39.96 1226.62,-31.73"/>
<polygon fill="#63b8ff" stroke="#63b8ff" points="1230.13,-31.81 1226.63,-21.81 1223.13,-31.81 1230.13,-31.81"/>
</a>
</g>
</g>
<!-- Node13&#45;&gt;Node11 -->
<g id="edge13_Node000013_Node000011" class="edge">
<title>Node13&#45;&gt;Node11</title>
<g id="a_edge13_Node000013_Node000011"><a xlink:title=" ">
<path fill="none" stroke="#63b8ff" d="M1341.41,-111.59C1319.32,-103.01 1286.43,-90.23 1261.5,-80.55"/>
<polygon fill="#63b8ff" stroke="#63b8ff" points="1263.03,-77.39 1252.44,-77.03 1260.49,-83.91 1263.03,-77.39"/>
</a>
</g>
</g>
<!-- Node15 -->
<g id="Node000015" class="node">
<title>Node15</title>
<g id="a_Node000015"><a xlink:title=" ">
<polygon fill="#e0e0e0" stroke="#999999" points="381.75,-132 309.5,-132 309.5,-112 381.75,-112 381.75,-132"/>
<text xml:space="preserve" text-anchor="middle" x="345.62" y="-118.5" font-family="Helvetica,sans-Serif" font-size="10.00">dpp/cluster.h</text>
</a>
</g>
</g>
<!-- Node14&#45;&gt;Node15 -->
<g id="edge15_Node000014_Node000015" class="edge">
<title>Node14&#45;&gt;Node15</title>
<g id="a_edge15_Node000014_Node000015"><a xlink:title=" ">
<path fill="none" stroke="#63b8ff" d="M106.47,-167.53C160.5,-157.47 245.25,-141.69 298.01,-131.87"/>
<polygon fill="#63b8ff" stroke="#63b8ff" points="298.41,-135.35 307.6,-130.08 297.13,-128.47 298.41,-135.35"/>
</a>
</g>
</g>
<!-- Node16 -->
<g id="Node000016" class="node">
<title>Node16</title>
<g id="a_Node000016"><a xlink:title=" ">
<polygon fill="#e0e0e0" stroke="#999999" points="487.62,-132 399.62,-132 399.62,-112 487.62,-112 487.62,-132"/>
<text xml:space="preserve" text-anchor="middle" x="443.62" y="-118.5" font-family="Helvetica,sans-Serif" font-size="10.00">dpp/dispatcher.h</text>
</a>
</g>
</g>
<!-- Node14&#45;&gt;Node16 -->
<g id="edge16_Node000014_Node000016" class="edge">
<title>Node14&#45;&gt;Node16</title>
<g id="a_edge16_Node000014_Node000016"><a xlink:title=" ">
<path fill="none" stroke="#63b8ff" d="M111.47,-169.12C114.23,-168.74 116.96,-168.36 119.62,-168 236.48,-152.02 268.63,-150.27 388.32,-132.3"/>
<polygon fill="#63b8ff" stroke="#63b8ff" points="388.54,-135.81 397.9,-130.86 387.49,-128.89 388.54,-135.81"/>
</a>
</g>
</g>
<!-- Node17&#45;&gt;Node15 -->
<g id="edge18_Node000017_Node000015" class="edge">
<title>Node17&#45;&gt;Node15</title>
<g id="a_edge18_Node000017_Node000015"><a xlink:title=" ">
<path fill="none" stroke="#63b8ff" d="M210.19,-167.59C236.72,-158.86 276.46,-145.77 306.04,-136.03"/>
<polygon fill="#63b8ff" stroke="#63b8ff" points="306.99,-139.4 315.4,-132.95 304.8,-132.76 306.99,-139.4"/>
</a>
</g>
</g>
<!-- Node17&#45;&gt;Node16 -->
<g id="edge19_Node000017_Node000016" class="edge">
<title>Node17&#45;&gt;Node16</title>
<g id="a_edge19_Node000017_Node000016"><a xlink:title=" ">
<path fill="none" stroke="#63b8ff" d="M227.56,-167.53C272.4,-158.29 340.66,-144.22 388.42,-134.38"/>
<polygon fill="#63b8ff" stroke="#63b8ff" points="388.92,-137.85 398.01,-132.4 387.51,-130.99 388.92,-137.85"/>
</a>
</g>
</g>
<!-- Node18&#45;&gt;Node10 -->
<g id="edge24_Node000018_Node000010" class="edge">
<title>Node18&#45;&gt;Node10</title>
<g id="a_edge24_Node000018_Node000010"><a xlink:title=" ">
<path fill="none" stroke="#63b8ff" d="M836.35,-167.59C850.85,-159.44 872.1,-147.48 888.95,-138"/>
<polygon fill="#63b8ff" stroke="#63b8ff" points="890.45,-141.17 897.45,-133.22 887.02,-135.07 890.45,-141.17"/>
</a>
</g>
</g>
<!-- Node18&#45;&gt;Node15 -->
<g id="edge22_Node000018_Node000015" class="edge">
<title>Node18&#45;&gt;Node15</title>
<g id="a_edge22_Node000018_Node000015"><a xlink:title=" ">
<path fill="none" stroke="#63b8ff" d="M751.61,-169C748.57,-168.66 745.57,-168.32 742.62,-168 589.96,-151.27 548.07,-155.24 393.27,-132.27"/>
<polygon fill="#63b8ff" stroke="#63b8ff" points="393.83,-128.82 383.42,-130.79 392.79,-135.74 393.83,-128.82"/>
</a>
</g>
</g>
<!-- Node18&#45;&gt;Node16 -->
<g id="edge23_Node000018_Node000016" class="edge">
<title>Node18&#45;&gt;Node16</title>
<g id="a_edge23_Node000018_Node000016"><a xlink:title=" ">
<path fill="none" stroke="#63b8ff" d="M753.7,-167.53C681.53,-157.17 567.07,-140.73 499.25,-130.99"/>
<polygon fill="#63b8ff" stroke="#63b8ff" points="499.86,-127.54 489.47,-129.58 498.87,-134.47 499.86,-127.54"/>
</a>
</g>
</g>
<!-- Node18&#45;&gt;Node19 -->
<g id="edge21_Node000018_Node000019" class="edge">
<title>Node18&#45;&gt;Node19</title>
<g id="a_edge21_Node000018_Node000019"><a xlink:title=" ">
<path fill="none" stroke="#63b8ff" d="M883.09,-167.53C952.82,-157.13 1063.54,-140.62 1128.74,-130.89"/>
<polygon fill="#63b8ff" stroke="#63b8ff" points="1129.1,-134.37 1138.48,-129.44 1128.07,-127.45 1129.1,-134.37"/>
</a>
</g>
</g>
<!-- Node20&#45;&gt;Node15 -->
<g id="edge26_Node000020_Node000015" class="edge">
<title>Node20&#45;&gt;Node15</title>
<g id="a_edge26_Node000020_Node000015"><a xlink:title=" ">
<path fill="none" stroke="#63b8ff" d="M386.09,-167.59C379.34,-160.16 369.74,-149.58 361.58,-140.58"/>
<polygon fill="#63b8ff" stroke="#63b8ff" points="364.39,-138.47 355.08,-133.42 359.21,-143.18 364.39,-138.47"/>
</a>
</g>
</g>
<!-- Node20&#45;&gt;Node16 -->
<g id="edge27_Node000020_Node000016" class="edge">
<title>Node20&#45;&gt;Node16</title>
<g id="a_edge27_Node000020_Node000016"><a xlink:title=" ">
<path fill="none" stroke="#63b8ff" d="M403.16,-167.59C409.91,-160.16 419.51,-149.58 427.67,-140.58"/>
<polygon fill="#63b8ff" stroke="#63b8ff" points="430.04,-143.18 434.17,-133.42 424.86,-138.47 430.04,-143.18"/>
</a>
</g>
</g>
<!-- Node21&#45;&gt;Node15 -->
<g id="edge29_Node000021_Node000015" class="edge">
<title>Node21&#45;&gt;Node15</title>
<g id="a_edge29_Node000021_Node000015"><a xlink:title=" ">
<path fill="none" stroke="#63b8ff" d="M500.05,-167.59C469.4,-158.74 423.28,-145.43 389.42,-135.65"/>
<polygon fill="#63b8ff" stroke="#63b8ff" points="390.48,-132.31 379.91,-132.9 388.54,-139.04 390.48,-132.31"/>
</a>
</g>
</g>
<!-- Node21&#45;&gt;Node16 -->
<g id="edge30_Node000021_Node000016" class="edge">
<title>Node21&#45;&gt;Node16</title>
<g id="a_edge30_Node000021_Node000016"><a xlink:title=" ">
<path fill="none" stroke="#63b8ff" d="M517.12,-167.59C503.8,-159.51 484.35,-147.71 468.8,-138.27"/>
<polygon fill="#63b8ff" stroke="#63b8ff" points="470.91,-135.46 460.54,-133.26 467.28,-141.44 470.91,-135.46"/>
</a>
</g>
</g>
<!-- Node22&#45;&gt;Node15 -->
<g id="edge32_Node000022_Node000015" class="edge">
<title>Node22&#45;&gt;Node15</title>
<g id="a_edge32_Node000022_Node000015"><a xlink:title=" ">
<path fill="none" stroke="#63b8ff" d="M611.45,-167.94C556.71,-159.68 473.99,-146.8 392.87,-132.35"/>
<polygon fill="#63b8ff" stroke="#63b8ff" points="393.9,-128.98 383.44,-130.66 392.67,-135.87 393.9,-128.98"/>
</a>
</g>
</g>
<!-- Node22&#45;&gt;Node16 -->
<g id="edge33_Node000022_Node000016" class="edge">
<title>Node22&#45;&gt;Node16</title>
<g id="a_edge33_Node000022_Node000016"><a xlink:title=" ">
<path fill="none" stroke="#63b8ff" d="M632.47,-167.53C594.17,-158.5 536.3,-144.85 494.73,-135.05"/>
<polygon fill="#63b8ff" stroke="#63b8ff" points="495.74,-131.69 485.2,-132.8 494.13,-138.51 495.74,-131.69"/>
</a>
</g>
</g>
<!-- Node23&#45;&gt;Node15 -->
<g id="edge42_Node000023_Node000015" class="edge">
<title>Node23&#45;&gt;Node15</title>
<g id="a_edge42_Node000023_Node000015"><a xlink:title=" ">
<path fill="none" stroke="#63b8ff" d="M295.25,-167.59C303.91,-159.93 316.36,-148.91 326.71,-139.75"/>
<polygon fill="#63b8ff" stroke="#63b8ff" points="328.82,-142.55 333.99,-133.3 324.18,-137.31 328.82,-142.55"/>
</a>
</g>
</g>
<!-- Node23&#45;&gt;Node16 -->
<g id="edge43_Node000023_Node000016" class="edge">
<title>Node23&#45;&gt;Node16</title>
<g id="a_edge43_Node000023_Node000016"><a xlink:title=" ">
<path fill="none" stroke="#63b8ff" d="M312.32,-167.59C337.93,-158.9 376.23,-145.89 404.87,-136.16"/>
<polygon fill="#63b8ff" stroke="#63b8ff" points="405.94,-139.5 414.28,-132.97 403.69,-132.87 405.94,-139.5"/>
</a>
</g>
</g>
<!-- Node28&#45;&gt;Node9 -->
<g id="edge55_Node000028_Node000009" class="edge">
<title>Node28&#45;&gt;Node9</title>
<g id="a_edge55_Node000028_Node000009"><a xlink:title=" ">
<path fill="none" stroke="#63b8ff" d="M1385.43,-223.93C1383.2,-210.28 1377.23,-184.31 1362.62,-168 1354.11,-158.49 1326,-145.18 1303.44,-135.5"/>
<polygon fill="#63b8ff" stroke="#63b8ff" points="1304.89,-132.32 1294.31,-131.67 1302.17,-138.77 1304.89,-132.32"/>
</a>
</g>
</g>
<!-- Node28&#45;&gt;Node13 -->
<g id="edge54_Node000028_Node000013" class="edge">
<title>Node28&#45;&gt;Node13</title>
<g id="a_edge54_Node000028_Node000013"><a xlink:title=" ">
<path fill="none" stroke="#63b8ff" d="M1391.8,-223.55C1398.13,-210.73 1407.22,-187.22 1400.62,-168 1397.15,-157.88 1390.38,-148.29 1383.7,-140.58"/>
<polygon fill="#63b8ff" stroke="#63b8ff" points="1386.27,-138.2 1376.88,-133.3 1381.17,-142.99 1386.27,-138.2"/>
</a>
</g>
</g>
<!-- Node29&#45;&gt;Node28 -->
<g id="edge59_Node000029_Node000028" class="edge">
<title>Node29&#45;&gt;Node28</title>
<g id="a_edge59_Node000029_Node000028"><a xlink:title=" ">
<path fill="none" stroke="#63b8ff" d="M1466.81,-335.54C1458.55,-326.57 1445.96,-312.61 1435.62,-300 1423.07,-284.67 1409.56,-266.63 1399.92,-253.44"/>
<polygon fill="#63b8ff" stroke="#63b8ff" points="1402.97,-251.7 1394.26,-245.66 1397.31,-255.81 1402.97,-251.7"/>
</a>
</g>
</g>
<!-- Node30 -->
<g id="Node000030" class="node">
<title>Node30</title>
<g id="a_Node000030"><a xlink:href="IRepository_8hpp.html" target="_top" xlink:title=" ">
<polygon fill="white" stroke="#666666" points="1528.75,-300 1444.5,-300 1444.5,-280 1528.75,-280 1528.75,-300"/>
<text xml:space="preserve" text-anchor="middle" x="1486.62" y="-286.5" font-family="Helvetica,sans-Serif" font-size="10.00">IRepository.hpp</text>
</a>
</g>
</g>
<!-- Node29&#45;&gt;Node30 -->
<g id="edge57_Node000029_Node000030" class="edge">
<title>Node29&#45;&gt;Node30</title>
<g id="a_edge57_Node000029_Node000030"><a xlink:title=" ">
<path fill="none" stroke="#63b8ff" d="M1477.54,-335.59C1478.9,-328.93 1480.77,-319.75 1482.46,-311.44"/>
<polygon fill="#63b8ff" stroke="#63b8ff" points="1485.86,-312.28 1484.43,-301.78 1479,-310.88 1485.86,-312.28"/>
</a>
</g>
</g>
<!-- Node31 -->
<g id="Node000031" class="node">
<title>Node31</title>
<g id="a_Node000031"><a xlink:title=" ">
<polygon fill="#e0e0e0" stroke="#999999" points="1512.75,-244 1464.5,-244 1464.5,-224 1512.75,-224 1512.75,-244"/>
<text xml:space="preserve" text-anchor="middle" x="1488.62" y="-230.5" font-family="Helvetica,sans-Serif" font-size="10.00">cstddef</text>
</a>
</g>
</g>
<!-- Node30&#45;&gt;Node31 -->
<g id="edge58_Node000030_Node000031" class="edge">
<title>Node30&#45;&gt;Node31</title>
<g id="a_edge58_Node000030_Node000031"><a xlink:title=" ">
<path fill="none" stroke="#63b8ff" d="M1486.97,-279.59C1487.22,-273.01 1487.55,-263.96 1487.86,-255.73"/>
<polygon fill="#63b8ff" stroke="#63b8ff" points="1491.35,-255.93 1488.22,-245.81 1484.36,-255.67 1491.35,-255.93"/>
</a>
</g>
</g>
</g>
</svg>
