<?xml version="1.0" encoding="UTF-8" standalone="no"?>
<!DOCTYPE svg PUBLIC "-//W3C//DTD SVG 1.1//EN"
 "http://www.w3.org/Graphics/SVG/1.1/DTD/svg11.dtd">
<!-- Generated by graphviz version 12.2.1 (0)
 -->
<!-- Title: src/bot_library/commands/challenge_role/ChallengeRoleCommand.cpp Pages: 1 -->
<svg width="1653pt" height="376pt"
 viewBox="0.00 0.00 1653.25 376.00" xmlns="http://www.w3.org/2000/svg" xmlns:xlink="http://www.w3.org/1999/xlink">
<g id="graph0" class="graph" transform="scale(1 1) rotate(0) translate(4 372)">
<title>src/bot_library/commands/challenge_role/ChallengeRoleCommand.cpp</title>
<!-- Node1 -->
<g id="Node000001" class="node">
<title>Node1</title>
<g id="a_Node000001"><a xlink:title=" ">
<polygon fill="#999999" stroke="#666666" points="1282.5,-368 1070.75,-368 1070.75,-336 1282.5,-336 1282.5,-368"/>
<text text-anchor="start" x="1078.75" y="-354.5" font-family="Helvetica,sans-Serif" font-size="10.00">src/bot_library/commands</text>
<text text-anchor="middle" x="1176.62" y="-342.5" font-family="Helvetica,sans-Serif" font-size="10.00">/challenge_role/ChallengeRoleCommand.cpp</text>
</a>
</g>
</g>
<!-- Node2 -->
<g id="Node000002" class="node">
<title>Node2</title>
<g id="a_Node000002"><a xlink:href="ChallengeRoleCommand_8hpp.html" target="_top" xlink:title=" ">
<polygon fill="white" stroke="#666666" points="756.38,-300 612.88,-300 612.88,-280 756.38,-280 756.38,-300"/>
<text text-anchor="middle" x="684.62" y="-286.5" font-family="Helvetica,sans-Serif" font-size="10.00">ChallengeRoleCommand.hpp</text>
</a>
</g>
</g>
<!-- Node1&#45;&gt;Node2 -->
<g id="edge1_Node000001_Node000002" class="edge">
<title>Node1&#45;&gt;Node2</title>
<g id="a_edge1_Node000001_Node000002"><a xlink:title=" ">
<path fill="none" stroke="#63b8ff" d="M1070.47,-338.05C979.86,-327 851.35,-311.33 767.98,-301.17"/>
<polygon fill="#63b8ff" stroke="#63b8ff" points="768.63,-297.72 758.28,-299.98 767.79,-304.67 768.63,-297.72"/>
</a>
</g>
</g>
<!-- Node4 -->
<g id="Node000004" class="node">
<title>Node4</title>
<g id="a_Node000004"><a xlink:href="Core_8hpp.html" target="_top" xlink:title=" ">
<polygon fill="white" stroke="#666666" points="801.5,-188 745.75,-188 745.75,-168 801.5,-168 801.5,-188"/>
<text text-anchor="middle" x="773.62" y="-174.5" font-family="Helvetica,sans-Serif" font-size="10.00">Core.hpp</text>
</a>
</g>
</g>
<!-- Node1&#45;&gt;Node4 -->
<g id="edge53_Node000001_Node000004" class="edge">
<title>Node1&#45;&gt;Node4</title>
<g id="a_edge53_Node000001_Node000004"><a xlink:title=" ">
<path fill="none" stroke="#63b8ff" d="M1140.51,-335.58C1062.77,-302.41 880.65,-224.68 806.21,-192.91"/>
<polygon fill="#63b8ff" stroke="#63b8ff" points="807.58,-189.69 797.01,-188.98 804.84,-196.13 807.58,-189.69"/>
</a>
</g>
</g>
<!-- Node12 -->
<g id="Node000012" class="node">
<title>Node12</title>
<g id="a_Node000012"><a xlink:title=" ">
<polygon fill="#e0e0e0" stroke="#999999" points="1645.25,-76 1600,-76 1600,-56 1645.25,-56 1645.25,-76"/>
<text text-anchor="middle" x="1622.62" y="-62.5" font-family="Helvetica,sans-Serif" font-size="10.00">variant</text>
</a>
</g>
</g>
<!-- Node1&#45;&gt;Node12 -->
<g id="edge54_Node000001_Node000012" class="edge">
<title>Node1&#45;&gt;Node12</title>
<g id="a_edge54_Node000001_Node000012"><a xlink:title=" ">
<path fill="none" stroke="#63b8ff" d="M1282.75,-344.69C1415.51,-333.83 1625.62,-305.5 1625.62,-235 1625.62,-235 1625.62,-235 1625.62,-177 1625.62,-145.86 1624.41,-109.78 1623.52,-87.67"/>
<polygon fill="#63b8ff" stroke="#63b8ff" points="1627.03,-87.77 1623.12,-77.93 1620.04,-88.06 1627.03,-87.77"/>
</a>
</g>
</g>
<!-- Node15 -->
<g id="Node000015" class="node">
<title>Node15</title>
<g id="a_Node000015"><a xlink:href="IButtonCommand_8hpp.html" target="_top" xlink:title=" ">
<polygon fill="white" stroke="#666666" points="111.25,-132 0,-132 0,-112 111.25,-112 111.25,-132"/>
<text text-anchor="middle" x="55.62" y="-118.5" font-family="Helvetica,sans-Serif" font-size="10.00">IButtonCommand.hpp</text>
</a>
</g>
</g>
<!-- Node1&#45;&gt;Node15 -->
<g id="edge62_Node000001_Node000015" class="edge">
<title>Node1&#45;&gt;Node15</title>
<g id="a_edge62_Node000001_Node000015"><a xlink:title=" ">
<path fill="none" stroke="#63b8ff" d="M1070.53,-351.02C943.94,-349.08 726.55,-339.52 544.62,-300 364.67,-260.91 161.05,-171.75 85.71,-137.12"/>
<polygon fill="#63b8ff" stroke="#63b8ff" points="87.47,-134.07 76.92,-133.05 84.53,-140.43 87.47,-134.07"/>
</a>
</g>
</g>
<!-- Node18 -->
<g id="Node000018" class="node">
<title>Node18</title>
<g id="a_Node000018"><a xlink:href="IFormCommand_8hpp.html" target="_top" xlink:title=" ">
<polygon fill="white" stroke="#666666" points="317.25,-132 212,-132 212,-112 317.25,-112 317.25,-132"/>
<text text-anchor="middle" x="264.62" y="-118.5" font-family="Helvetica,sans-Serif" font-size="10.00">IFormCommand.hpp</text>
</a>
</g>
</g>
<!-- Node1&#45;&gt;Node18 -->
<g id="edge63_Node000001_Node000018" class="edge">
<title>Node1&#45;&gt;Node18</title>
<g id="a_edge63_Node000001_Node000018"><a xlink:title=" ">
<path fill="none" stroke="#63b8ff" d="M1070.54,-346.51C929.55,-339.7 688.39,-324.83 603.62,-300 475.5,-262.46 339.49,-174.68 287.04,-138.75"/>
<polygon fill="#63b8ff" stroke="#63b8ff" points="289.15,-135.96 278.93,-133.15 285.17,-141.72 289.15,-135.96"/>
</a>
</g>
</g>
<!-- Node19 -->
<g id="Node000019" class="node">
<title>Node19</title>
<g id="a_Node000019"><a xlink:href="IGlobalSlashCommand_8hpp.html" target="_top" xlink:title=" ">
<polygon fill="white" stroke="#666666" points="1072.25,-132 937,-132 937,-112 1072.25,-112 1072.25,-132"/>
<text text-anchor="middle" x="1004.62" y="-118.5" font-family="Helvetica,sans-Serif" font-size="10.00">IGlobalSlashCommand.hpp</text>
</a>
</g>
</g>
<!-- Node1&#45;&gt;Node19 -->
<g id="edge64_Node000001_Node000019" class="edge">
<title>Node1&#45;&gt;Node19</title>
<g id="a_edge64_Node000001_Node000019"><a xlink:title=" ">
<path fill="none" stroke="#63b8ff" d="M1165.07,-335.69C1134.47,-295.11 1051.38,-184.98 1018.39,-141.25"/>
<polygon fill="#63b8ff" stroke="#63b8ff" points="1021.37,-139.39 1012.56,-133.51 1015.78,-143.6 1021.37,-139.39"/>
</a>
</g>
</g>
<!-- Node20 -->
<g id="Node000020" class="node">
<title>Node20</title>
<g id="a_Node000020"><a xlink:title=" ">
<polygon fill="#e0e0e0" stroke="#999999" points="1054,-76 971.25,-76 971.25,-56 1054,-56 1054,-76"/>
<text text-anchor="middle" x="1012.62" y="-62.5" font-family="Helvetica,sans-Serif" font-size="10.00">appcommand.h</text>
</a>
</g>
</g>
<!-- Node1&#45;&gt;Node20 -->
<g id="edge52_Node000001_Node000020" class="edge">
<title>Node1&#45;&gt;Node20</title>
<g id="a_edge52_Node000001_Node000020"><a xlink:title=" ">
<path fill="none" stroke="#63b8ff" d="M1173.89,-335.65C1166.01,-295.11 1140,-183.37 1081.62,-112 1071.48,-99.6 1057,-89.43 1043.92,-81.92"/>
<polygon fill="#63b8ff" stroke="#63b8ff" points="1045.63,-78.87 1035.17,-77.19 1042.3,-85.02 1045.63,-78.87"/>
</a>
</g>
</g>
<!-- Node29 -->
<g id="Node000029" class="node">
<title>Node29</title>
<g id="a_Node000029"><a xlink:href="ChallengeRoleDTO_8hpp.html" target="_top" xlink:title=" ">
<polygon fill="white" stroke="#666666" points="1400.38,-132 1280.88,-132 1280.88,-112 1400.38,-112 1400.38,-132"/>
<text text-anchor="middle" x="1340.62" y="-118.5" font-family="Helvetica,sans-Serif" font-size="10.00">ChallengeRoleDTO.hpp</text>
</a>
</g>
</g>
<!-- Node1&#45;&gt;Node29 -->
<g id="edge55_Node000001_Node000029" class="edge">
<title>Node1&#45;&gt;Node29</title>
<g id="a_edge55_Node000001_Node000029"><a xlink:title=" ">
<path fill="none" stroke="#63b8ff" d="M1194.06,-335.86C1204.69,-326.18 1218.19,-313.03 1228.62,-300 1271.81,-246.1 1273.24,-226.07 1310.62,-168 1316.21,-159.33 1322.52,-149.81 1327.92,-141.77"/>
<polygon fill="#63b8ff" stroke="#63b8ff" points="1330.8,-143.75 1333.49,-133.51 1325,-139.84 1330.8,-143.75"/>
</a>
</g>
</g>
<!-- Node30 -->
<g id="Node000030" class="node">
<title>Node30</title>
<g id="a_Node000030"><a xlink:href="ChallengeRoleRepository_8hpp.html" target="_top" xlink:title=" ">
<polygon fill="white" stroke="#666666" points="1464.12,-188 1319.12,-188 1319.12,-168 1464.12,-168 1464.12,-188"/>
<text text-anchor="middle" x="1391.62" y="-174.5" font-family="Helvetica,sans-Serif" font-size="10.00">ChallengeRoleRepository.hpp</text>
</a>
</g>
</g>
<!-- Node1&#45;&gt;Node30 -->
<g id="edge58_Node000001_Node000030" class="edge">
<title>Node1&#45;&gt;Node30</title>
<g id="a_edge58_Node000001_Node000030"><a xlink:title=" ">
<path fill="none" stroke="#63b8ff" d="M1235.09,-335.52C1258.31,-327.47 1284.27,-315.91 1304.62,-300 1340.68,-271.83 1368.43,-224.84 1382.15,-198.48"/>
<polygon fill="#63b8ff" stroke="#63b8ff" points="1385.25,-200.11 1386.62,-189.6 1379,-196.96 1385.25,-200.11"/>
</a>
</g>
</g>
<!-- Node3 -->
<g id="Node000003" class="node">
<title>Node3</title>
<g id="a_Node000003"><a xlink:href="Bot_8hpp.html" target="_top" xlink:title=" ">
<polygon fill="white" stroke="#666666" points="709.5,-244 659.75,-244 659.75,-224 709.5,-224 709.5,-244"/>
<text text-anchor="middle" x="684.62" y="-230.5" font-family="Helvetica,sans-Serif" font-size="10.00">Bot.hpp</text>
</a>
</g>
</g>
<!-- Node2&#45;&gt;Node3 -->
<g id="edge2_Node000002_Node000003" class="edge">
<title>Node2&#45;&gt;Node3</title>
<g id="a_edge2_Node000002_Node000003"><a xlink:title=" ">
<path fill="none" stroke="#63b8ff" d="M684.62,-279.59C684.62,-273.01 684.62,-263.96 684.62,-255.73"/>
<polygon fill="#63b8ff" stroke="#63b8ff" points="688.13,-255.81 684.63,-245.81 681.13,-255.81 688.13,-255.81"/>
</a>
</g>
</g>
<!-- Node11 -->
<g id="Node000011" class="node">
<title>Node11</title>
<g id="a_Node000011"><a xlink:title=" ">
<polygon fill="#e0e0e0" stroke="#999999" points="1272.62,-76 1232.62,-76 1232.62,-56 1272.62,-56 1272.62,-76"/>
<text text-anchor="middle" x="1252.62" y="-62.5" font-family="Helvetica,sans-Serif" font-size="10.00">string</text>
</a>
</g>
</g>
<!-- Node2&#45;&gt;Node11 -->
<g id="edge51_Node000002_Node000011" class="edge">
<title>Node2&#45;&gt;Node11</title>
<g id="a_edge51_Node000002_Node000011"><a xlink:title=" ">
<path fill="none" stroke="#63b8ff" d="M733.86,-279.51C823.29,-260.84 1016.49,-213.89 1160.62,-132 1186.31,-117.41 1213.71,-97.41 1231.86,-83.46"/>
<polygon fill="#63b8ff" stroke="#63b8ff" points="1233.99,-86.24 1239.73,-77.34 1229.69,-80.72 1233.99,-86.24"/>
</a>
</g>
</g>
<!-- Node27 -->
<g id="Node000027" class="node">
<title>Node27</title>
<g id="a_Node000027"><a xlink:title=" ">
<polygon fill="#e0e0e0" stroke="#999999" points="565.62,-244 525.62,-244 525.62,-224 565.62,-224 565.62,-244"/>
<text text-anchor="middle" x="545.62" y="-230.5" font-family="Helvetica,sans-Serif" font-size="10.00">stack</text>
</a>
</g>
</g>
<!-- Node2&#45;&gt;Node27 -->
<g id="edge49_Node000002_Node000027" class="edge">
<title>Node2&#45;&gt;Node27</title>
<g id="a_edge49_Node000002_Node000027"><a xlink:title=" ">
<path fill="none" stroke="#63b8ff" d="M660.41,-279.59C637.11,-270.54 601.76,-256.81 576.45,-246.98"/>
<polygon fill="#63b8ff" stroke="#63b8ff" points="577.95,-243.8 567.36,-243.44 575.41,-250.33 577.95,-243.8"/>
</a>
</g>
</g>
<!-- Node28 -->
<g id="Node000028" class="node">
<title>Node28</title>
<g id="a_Node000028"><a xlink:title=" ">
<polygon fill="#e0e0e0" stroke="#999999" points="642,-244 583.25,-244 583.25,-224 642,-224 642,-244"/>
<text text-anchor="middle" x="612.62" y="-230.5" font-family="Helvetica,sans-Serif" font-size="10.00">stdexcept</text>
</a>
</g>
</g>
<!-- Node2&#45;&gt;Node28 -->
<g id="edge50_Node000002_Node000028" class="edge">
<title>Node2&#45;&gt;Node28</title>
<g id="a_edge50_Node000002_Node000028"><a xlink:title=" ">
<path fill="none" stroke="#63b8ff" d="M672.08,-279.59C661.66,-271.77 646.58,-260.46 634.21,-251.19"/>
<polygon fill="#63b8ff" stroke="#63b8ff" points="636.33,-248.41 626.23,-245.21 632.13,-254.01 636.33,-248.41"/>
</a>
</g>
</g>
<!-- Node3&#45;&gt;Node4 -->
<g id="edge3_Node000003_Node000004" class="edge">
<title>Node3&#45;&gt;Node4</title>
<g id="a_edge3_Node000003_Node000004"><a xlink:title=" ">
<path fill="none" stroke="#63b8ff" d="M700.13,-223.59C713.45,-215.51 732.9,-203.71 748.45,-194.27"/>
<polygon fill="#63b8ff" stroke="#63b8ff" points="749.97,-197.44 756.71,-189.26 746.34,-191.46 749.97,-197.44"/>
</a>
</g>
</g>
<!-- Node3&#45;&gt;Node11 -->
<g id="edge47_Node000003_Node000011" class="edge">
<title>Node3&#45;&gt;Node11</title>
<g id="a_edge47_Node000003_Node000011"><a xlink:title=" ">
<path fill="none" stroke="#63b8ff" d="M709.64,-231.4C762.4,-227.57 888.63,-216.04 990.62,-188 1053.65,-170.67 1067.3,-159.45 1126.62,-132 1161.42,-115.9 1200.51,-95.33 1225.8,-81.69"/>
<polygon fill="#63b8ff" stroke="#63b8ff" points="1227.28,-84.87 1234.4,-77.02 1223.95,-78.71 1227.28,-84.87"/>
</a>
</g>
</g>
<!-- Node13 -->
<g id="Node000013" class="node">
<title>Node13</title>
<g id="a_Node000013"><a xlink:title=" ">
<polygon fill="#e0e0e0" stroke="#999999" points="1122.12,-76 1079.12,-76 1079.12,-56 1122.12,-56 1122.12,-76"/>
<text text-anchor="middle" x="1100.62" y="-62.5" font-family="Helvetica,sans-Serif" font-size="10.00">vector</text>
</a>
</g>
</g>
<!-- Node3&#45;&gt;Node13 -->
<g id="edge48_Node000003_Node000013" class="edge">
<title>Node3&#45;&gt;Node13</title>
<g id="a_edge48_Node000003_Node000013"><a xlink:title=" ">
<path fill="none" stroke="#63b8ff" d="M709.85,-229.86C788.49,-219.59 1027.13,-184.61 1081.62,-132 1093.53,-120.51 1098.09,-102 1099.78,-87.67"/>
<polygon fill="#63b8ff" stroke="#63b8ff" points="1103.25,-88.18 1100.52,-77.94 1096.27,-87.64 1103.25,-88.18"/>
</a>
</g>
</g>
<!-- Node3&#45;&gt;Node15 -->
<g id="edge36_Node000003_Node000015" class="edge">
<title>Node3&#45;&gt;Node15</title>
<g id="a_edge36_Node000003_Node000015"><a xlink:title=" ">
<path fill="none" stroke="#63b8ff" d="M659.45,-226.01C656.48,-225.28 653.5,-224.59 650.62,-224 545,-202.17 517.02,-205.72 410.62,-188 306.85,-170.72 186.49,-148.15 115.94,-134.66"/>
<polygon fill="#63b8ff" stroke="#63b8ff" points="116.6,-131.22 106.12,-132.77 115.29,-138.09 116.6,-131.22"/>
</a>
</g>
</g>
<!-- Node3&#45;&gt;Node18 -->
<g id="edge37_Node000003_Node000018" class="edge">
<title>Node3&#45;&gt;Node18</title>
<g id="a_edge37_Node000003_Node000018"><a xlink:title=" ">
<path fill="none" stroke="#63b8ff" d="M668.02,-223.73C636.59,-206.21 571.04,-169.82 565.62,-168 562.82,-167.06 416.15,-145.34 328.61,-132.43"/>
<polygon fill="#63b8ff" stroke="#63b8ff" points="329.36,-129 318.95,-131 328.34,-135.92 329.36,-129"/>
</a>
</g>
</g>
<!-- Node3&#45;&gt;Node19 -->
<g id="edge38_Node000003_Node000019" class="edge">
<title>Node3&#45;&gt;Node19</title>
<g id="a_edge38_Node000003_Node000019"><a xlink:title=" ">
<path fill="none" stroke="#63b8ff" d="M709.73,-224.37C765.59,-205.17 900.38,-158.83 966.61,-136.07"/>
<polygon fill="#63b8ff" stroke="#63b8ff" points="967.63,-139.42 975.95,-132.86 965.36,-132.8 967.63,-139.42"/>
</a>
</g>
</g>
<!-- Node21 -->
<g id="Node000021" class="node">
<title>Node21</title>
<g id="a_Node000021"><a xlink:href="IMemberCommand_8hpp.html" target="_top" xlink:title=" ">
<polygon fill="white" stroke="#666666" points="733.62,-132 615.62,-132 615.62,-112 733.62,-112 733.62,-132"/>
<text text-anchor="middle" x="674.62" y="-118.5" font-family="Helvetica,sans-Serif" font-size="10.00">IMemberCommand.hpp</text>
</a>
</g>
</g>
<!-- Node3&#45;&gt;Node21 -->
<g id="edge39_Node000003_Node000021" class="edge">
<title>Node3&#45;&gt;Node21</title>
<g id="a_edge39_Node000003_Node000021"><a xlink:title=" ">
<path fill="none" stroke="#63b8ff" d="M684.01,-223.73C683.15,-211.12 681.49,-187.83 679.62,-168 678.87,-159.98 677.92,-151.17 677.05,-143.49"/>
<polygon fill="#63b8ff" stroke="#63b8ff" points="680.56,-143.33 675.93,-133.8 673.6,-144.14 680.56,-143.33"/>
</a>
</g>
</g>
<!-- Node22 -->
<g id="Node000022" class="node">
<title>Node22</title>
<g id="a_Node000022"><a xlink:href="IMessageCommand_8hpp.html" target="_top" xlink:title=" ">
<polygon fill="white" stroke="#666666" points="457.88,-132 335.38,-132 335.38,-112 457.88,-112 457.88,-132"/>
<text text-anchor="middle" x="396.62" y="-118.5" font-family="Helvetica,sans-Serif" font-size="10.00">IMessageCommand.hpp</text>
</a>
</g>
</g>
<!-- Node3&#45;&gt;Node22 -->
<g id="edge40_Node000003_Node000022" class="edge">
<title>Node3&#45;&gt;Node22</title>
<g id="a_edge40_Node000003_Node000022"><a xlink:title=" ">
<path fill="none" stroke="#63b8ff" d="M676.11,-223.86C662.31,-209.61 633.57,-182.29 603.62,-168 579.48,-156.48 515.91,-143.52 465.54,-134.48"/>
<polygon fill="#63b8ff" stroke="#63b8ff" points="466.31,-131.06 455.85,-132.76 465.08,-137.95 466.31,-131.06"/>
</a>
</g>
</g>
<!-- Node23 -->
<g id="Node000023" class="node">
<title>Node23</title>
<g id="a_Node000023"><a xlink:href="IReactionCommand_8hpp.html" target="_top" xlink:title=" ">
<polygon fill="white" stroke="#666666" points="597.5,-132 475.75,-132 475.75,-112 597.5,-112 597.5,-132"/>
<text text-anchor="middle" x="536.62" y="-118.5" font-family="Helvetica,sans-Serif" font-size="10.00">IReactionCommand.hpp</text>
</a>
</g>
</g>
<!-- Node3&#45;&gt;Node23 -->
<g id="edge41_Node000003_Node000023" class="edge">
<title>Node3&#45;&gt;Node23</title>
<g id="a_edge41_Node000003_Node000023"><a xlink:title=" ">
<path fill="none" stroke="#63b8ff" d="M680.66,-223.8C674.29,-209.98 660.53,-183.78 641.62,-168 624.62,-153.8 602.46,-143.43 582.89,-136.24"/>
<polygon fill="#63b8ff" stroke="#63b8ff" points="584.05,-132.94 573.46,-132.97 581.76,-139.55 584.05,-132.94"/>
</a>
</g>
</g>
<!-- Node24 -->
<g id="Node000024" class="node">
<title>Node24</title>
<g id="a_Node000024"><a xlink:href="IReady_8hpp.html" target="_top" xlink:title=" ">
<polygon fill="white" stroke="#666666" points="194.38,-132 128.88,-132 128.88,-112 194.38,-112 194.38,-132"/>
<text text-anchor="middle" x="161.62" y="-118.5" font-family="Helvetica,sans-Serif" font-size="10.00">IReady.hpp</text>
</a>
</g>
</g>
<!-- Node3&#45;&gt;Node24 -->
<g id="edge42_Node000003_Node000024" class="edge">
<title>Node3&#45;&gt;Node24</title>
<g id="a_edge42_Node000003_Node000024"><a xlink:title=" ">
<path fill="none" stroke="#63b8ff" d="M659.45,-224.98C634.98,-216.84 597,-203.28 565.62,-188 550.21,-180.49 548.87,-173.5 532.62,-168 396.31,-121.8 350.46,-154.18 205.74,-132.32"/>
<polygon fill="#63b8ff" stroke="#63b8ff" points="206.6,-128.91 196.18,-130.81 205.51,-135.83 206.6,-128.91"/>
</a>
</g>
</g>
<!-- Node25 -->
<g id="Node000025" class="node">
<title>Node25</title>
<g id="a_Node000025"><a xlink:title=" ">
<polygon fill="#e0e0e0" stroke="#999999" points="454,-188 419.25,-188 419.25,-168 454,-168 454,-188"/>
<text text-anchor="middle" x="436.62" y="-174.5" font-family="Helvetica,sans-Serif" font-size="10.00">map</text>
</a>
</g>
</g>
<!-- Node3&#45;&gt;Node25 -->
<g id="edge45_Node000003_Node000025" class="edge">
<title>Node3&#45;&gt;Node25</title>
<g id="a_edge45_Node000003_Node000025"><a xlink:title=" ">
<path fill="none" stroke="#63b8ff" d="M659.42,-226.12C656.46,-225.37 653.48,-224.65 650.62,-224 571.08,-205.88 546.79,-209.61 465.21,-188.4"/>
<polygon fill="#63b8ff" stroke="#63b8ff" points="466.45,-185.11 455.89,-185.93 464.65,-191.87 466.45,-185.11"/>
</a>
</g>
</g>
<!-- Node26 -->
<g id="Node000026" class="node">
<title>Node26</title>
<g id="a_Node000026"><a xlink:title=" ">
<polygon fill="#e0e0e0" stroke="#999999" points="523.25,-188 472,-188 472,-168 523.25,-168 523.25,-188"/>
<text text-anchor="middle" x="497.62" y="-174.5" font-family="Helvetica,sans-Serif" font-size="10.00">memory</text>
</a>
</g>
</g>
<!-- Node3&#45;&gt;Node26 -->
<g id="edge46_Node000003_Node000026" class="edge">
<title>Node3&#45;&gt;Node26</title>
<g id="a_edge46_Node000003_Node000026"><a xlink:title=" ">
<path fill="none" stroke="#63b8ff" d="M659.41,-225.72C627.24,-216.43 571.38,-200.3 534.45,-189.63"/>
<polygon fill="#63b8ff" stroke="#63b8ff" points="535.68,-186.35 525.1,-186.93 533.74,-193.07 535.68,-186.35"/>
</a>
</g>
</g>
<!-- Node5 -->
<g id="Node000005" class="node">
<title>Node5</title>
<g id="a_Node000005"><a xlink:title=" ">
<polygon fill="#e0e0e0" stroke="#999999" points="810,-132 751.25,-132 751.25,-112 810,-112 810,-132"/>
<text text-anchor="middle" x="780.62" y="-118.5" font-family="Helvetica,sans-Serif" font-size="10.00">dpp/dpp.h</text>
</a>
</g>
</g>
<!-- Node4&#45;&gt;Node5 -->
<g id="edge4_Node000004_Node000005" class="edge">
<title>Node4&#45;&gt;Node5</title>
<g id="a_edge4_Node000004_Node000005"><a xlink:title=" ">
<path fill="none" stroke="#63b8ff" d="M774.84,-167.59C775.71,-160.93 776.9,-151.75 777.98,-143.44"/>
<polygon fill="#63b8ff" stroke="#63b8ff" points="781.41,-144.17 779.23,-133.8 774.47,-143.27 781.41,-144.17"/>
</a>
</g>
</g>
<!-- Node6 -->
<g id="Node000006" class="node">
<title>Node6</title>
<g id="a_Node000006"><a xlink:title=" ">
<polygon fill="#e0e0e0" stroke="#999999" points="919.12,-132 828.12,-132 828.12,-112 919.12,-112 919.12,-132"/>
<text text-anchor="middle" x="873.62" y="-118.5" font-family="Helvetica,sans-Serif" font-size="10.00">dpp/misc&#45;enum.h</text>
</a>
</g>
</g>
<!-- Node4&#45;&gt;Node6 -->
<g id="edge5_Node000004_Node000006" class="edge">
<title>Node4&#45;&gt;Node6</title>
<g id="a_edge5_Node000004_Node000006"><a xlink:title=" ">
<path fill="none" stroke="#63b8ff" d="M791.04,-167.59C806.29,-159.36 828.7,-147.26 846.33,-137.74"/>
<polygon fill="#63b8ff" stroke="#63b8ff" points="847.6,-141.03 854.74,-133.2 844.28,-134.87 847.6,-141.03"/>
</a>
</g>
</g>
<!-- Node7 -->
<g id="Node000007" class="node">
<title>Node7</title>
<g id="a_Node000007"><a xlink:href="Database_8hpp.html" target="_top" xlink:title=" ">
<polygon fill="white" stroke="#666666" points="1495,-132 1418.25,-132 1418.25,-112 1495,-112 1495,-132"/>
<text text-anchor="middle" x="1456.62" y="-118.5" font-family="Helvetica,sans-Serif" font-size="10.00">Database.hpp</text>
</a>
</g>
</g>
<!-- Node4&#45;&gt;Node7 -->
<g id="edge6_Node000004_Node000007" class="edge">
<title>Node4&#45;&gt;Node7</title>
<g id="a_edge6_Node000004_Node000007"><a xlink:title=" ">
<path fill="none" stroke="#63b8ff" d="M801.96,-176.19C890.07,-173.43 1167.26,-162.85 1406.59,-132.25"/>
<polygon fill="#63b8ff" stroke="#63b8ff" points="1406.99,-135.73 1416.45,-130.98 1406.09,-128.79 1406.99,-135.73"/>
</a>
</g>
</g>
<!-- Node4&#45;&gt;Node11 -->
<g id="edge35_Node000004_Node000011" class="edge">
<title>Node4&#45;&gt;Node11</title>
<g id="a_edge35_Node000004_Node000011"><a xlink:title=" ">
<path fill="none" stroke="#63b8ff" d="M801.64,-174.96C856.24,-170.55 980.42,-158.29 1081.62,-132 1132.25,-118.85 1188.5,-95.72 1222.19,-80.89"/>
<polygon fill="#63b8ff" stroke="#63b8ff" points="1223.21,-84.27 1230.92,-77.01 1220.36,-77.88 1223.21,-84.27"/>
</a>
</g>
</g>
<!-- Node4&#45;&gt;Node15 -->
<g id="edge15_Node000004_Node000015" class="edge">
<title>Node4&#45;&gt;Node15</title>
<g id="a_edge15_Node000004_Node000015"><a xlink:title=" ">
<path fill="none" stroke="#63b8ff" d="M745.52,-175.78C656.12,-171.75 370.13,-157.71 122.82,-132.27"/>
<polygon fill="#63b8ff" stroke="#63b8ff" points="123.26,-128.8 112.95,-131.24 122.53,-135.76 123.26,-128.8"/>
</a>
</g>
</g>
<!-- Node4&#45;&gt;Node18 -->
<g id="edge18_Node000004_Node000018" class="edge">
<title>Node4&#45;&gt;Node18</title>
<g id="a_edge18_Node000004_Node000018"><a xlink:title=" ">
<path fill="none" stroke="#63b8ff" d="M745.34,-174.59C676.22,-168.6 493.03,-152.16 328.98,-132.24"/>
<polygon fill="#63b8ff" stroke="#63b8ff" points="329.56,-128.78 319.21,-131.04 328.71,-135.73 329.56,-128.78"/>
</a>
</g>
</g>
<!-- Node4&#45;&gt;Node19 -->
<g id="edge21_Node000004_Node000019" class="edge">
<title>Node4&#45;&gt;Node19</title>
<g id="a_edge21_Node000004_Node000019"><a xlink:title=" ">
<path fill="none" stroke="#63b8ff" d="M801.95,-170.38C839.46,-161.61 906.29,-145.99 952.91,-135.09"/>
<polygon fill="#63b8ff" stroke="#63b8ff" points="953.59,-138.52 962.53,-132.84 952,-131.71 953.59,-138.52"/>
</a>
</g>
</g>
<!-- Node4&#45;&gt;Node21 -->
<g id="edge26_Node000004_Node000021" class="edge">
<title>Node4&#45;&gt;Node21</title>
<g id="a_edge26_Node000004_Node000021"><a xlink:title=" ">
<path fill="none" stroke="#63b8ff" d="M756.38,-167.59C741.28,-159.36 719.1,-147.26 701.64,-137.74"/>
<polygon fill="#63b8ff" stroke="#63b8ff" points="703.79,-134.92 693.33,-133.2 700.44,-141.07 703.79,-134.92"/>
</a>
</g>
</g>
<!-- Node4&#45;&gt;Node22 -->
<g id="edge29_Node000004_Node000022" class="edge">
<title>Node4&#45;&gt;Node22</title>
<g id="a_edge29_Node000004_Node000022"><a xlink:title=" ">
<path fill="none" stroke="#63b8ff" d="M745.29,-172.94C687.25,-164.63 553.27,-145.44 469.32,-133.41"/>
<polygon fill="#63b8ff" stroke="#63b8ff" points="469.97,-129.97 459.57,-132.02 468.97,-136.9 469.97,-129.97"/>
</a>
</g>
</g>
<!-- Node4&#45;&gt;Node23 -->
<g id="edge32_Node000004_Node000023" class="edge">
<title>Node4&#45;&gt;Node23</title>
<g id="a_edge32_Node000004_Node000023"><a xlink:title=" ">
<path fill="none" stroke="#63b8ff" d="M745.51,-170.59C707.14,-161.85 637.65,-146.02 589.41,-135.03"/>
<polygon fill="#63b8ff" stroke="#63b8ff" points="590.25,-131.63 579.72,-132.82 588.69,-138.45 590.25,-131.63"/>
</a>
</g>
</g>
<!-- Node8 -->
<g id="Node000008" class="node">
<title>Node8</title>
<g id="a_Node000008"><a xlink:title=" ">
<polygon fill="#e0e0e0" stroke="#999999" points="1578.75,-76 1530.5,-76 1530.5,-56 1578.75,-56 1578.75,-76"/>
<text text-anchor="middle" x="1554.62" y="-62.5" font-family="Helvetica,sans-Serif" font-size="10.00">cstddef</text>
</a>
</g>
</g>
<!-- Node7&#45;&gt;Node8 -->
<g id="edge7_Node000007_Node000008" class="edge">
<title>Node7&#45;&gt;Node8</title>
<g id="a_edge7_Node000007_Node000008"><a xlink:title=" ">
<path fill="none" stroke="#63b8ff" d="M1473.7,-111.59C1488.5,-103.44 1510.19,-91.48 1527.39,-82"/>
<polygon fill="#63b8ff" stroke="#63b8ff" points="1529.03,-85.1 1536.1,-77.21 1525.65,-78.97 1529.03,-85.1"/>
</a>
</g>
</g>
<!-- Node9 -->
<g id="Node000009" class="node">
<title>Node9</title>
<g id="a_Node000009"><a xlink:title=" ">
<polygon fill="#e0e0e0" stroke="#999999" points="1473.38,-76 1419.88,-76 1419.88,-56 1473.38,-56 1473.38,-76"/>
<text text-anchor="middle" x="1446.62" y="-62.5" font-family="Helvetica,sans-Serif" font-size="10.00">iostream</text>
</a>
</g>
</g>
<!-- Node7&#45;&gt;Node9 -->
<g id="edge8_Node000007_Node000009" class="edge">
<title>Node7&#45;&gt;Node9</title>
<g id="a_edge8_Node000007_Node000009"><a xlink:title=" ">
<path fill="none" stroke="#63b8ff" d="M1454.88,-111.59C1453.65,-104.93 1451.95,-95.75 1450.41,-87.44"/>
<polygon fill="#63b8ff" stroke="#63b8ff" points="1453.88,-86.98 1448.62,-77.79 1447,-88.26 1453.88,-86.98"/>
</a>
</g>
</g>
<!-- Node10 -->
<g id="Node000010" class="node">
<title>Node10</title>
<g id="a_Node000010"><a xlink:title=" ">
<polygon fill="#e0e0e0" stroke="#999999" points="1454.12,-20 1393.12,-20 1393.12,0 1454.12,0 1454.12,-20"/>
<text text-anchor="middle" x="1423.62" y="-6.5" font-family="Helvetica,sans-Serif" font-size="10.00">pqxx/pqxx</text>
</a>
</g>
</g>
<!-- Node7&#45;&gt;Node10 -->
<g id="edge9_Node000007_Node000010" class="edge">
<title>Node7&#45;&gt;Node10</title>
<g id="a_edge9_Node000007_Node000010"><a xlink:title=" ">
<path fill="none" stroke="#63b8ff" d="M1465.44,-111.54C1476.27,-98.7 1492.11,-75.17 1482.62,-56 1476.44,-43.5 1464.93,-33.52 1453.71,-26.17"/>
<polygon fill="#63b8ff" stroke="#63b8ff" points="1455.74,-23.31 1445.36,-21.17 1452.14,-29.31 1455.74,-23.31"/>
</a>
</g>
</g>
<!-- Node7&#45;&gt;Node11 -->
<g id="edge10_Node000007_Node000011" class="edge">
<title>Node7&#45;&gt;Node11</title>
<g id="a_edge10_Node000007_Node000011"><a xlink:title=" ">
<path fill="none" stroke="#63b8ff" d="M1418.15,-111.5C1385.1,-103.24 1335.91,-90.71 1283.75,-76.23"/>
<polygon fill="#63b8ff" stroke="#63b8ff" points="1284.96,-72.93 1274.39,-73.61 1283.08,-79.67 1284.96,-72.93"/>
</a>
</g>
</g>
<!-- Node7&#45;&gt;Node12 -->
<g id="edge11_Node000007_Node000012" class="edge">
<title>Node7&#45;&gt;Node12</title>
<g id="a_edge11_Node000007_Node000012"><a xlink:title=" ">
<path fill="none" stroke="#63b8ff" d="M1485.54,-111.59C1514.29,-102.24 1558.36,-87.9 1588.74,-78.02"/>
<polygon fill="#63b8ff" stroke="#63b8ff" points="1589.78,-81.36 1598.21,-74.94 1587.62,-74.71 1589.78,-81.36"/>
</a>
</g>
</g>
<!-- Node7&#45;&gt;Node13 -->
<g id="edge12_Node000007_Node000013" class="edge">
<title>Node7&#45;&gt;Node13</title>
<g id="a_edge12_Node000007_Node000013"><a xlink:title=" ">
<path fill="none" stroke="#63b8ff" d="M1417.92,-113.45C1415.12,-112.94 1412.33,-112.46 1409.62,-112 1309.31,-95.1 1190.03,-78.8 1133.49,-71.3"/>
<polygon fill="#63b8ff" stroke="#63b8ff" points="1134.28,-67.87 1123.91,-70.03 1133.36,-74.81 1134.28,-67.87"/>
</a>
</g>
</g>
<!-- Node14 -->
<g id="Node000014" class="node">
<title>Node14</title>
<g id="a_Node000014"><a xlink:href="RowDTOAdapter_8hpp.html" target="_top" xlink:title=" ">
<polygon fill="white" stroke="#666666" points="1401.5,-76 1291.75,-76 1291.75,-56 1401.5,-56 1401.5,-76"/>
<text text-anchor="middle" x="1346.62" y="-62.5" font-family="Helvetica,sans-Serif" font-size="10.00">RowDTOAdapter.hpp</text>
</a>
</g>
</g>
<!-- Node7&#45;&gt;Node14 -->
<g id="edge13_Node000007_Node000014" class="edge">
<title>Node7&#45;&gt;Node14</title>
<g id="a_edge13_Node000007_Node000014"><a xlink:title=" ">
<path fill="none" stroke="#63b8ff" d="M1437.46,-111.59C1420.53,-103.28 1395.58,-91.03 1376.1,-81.47"/>
<polygon fill="#63b8ff" stroke="#63b8ff" points="1377.81,-78.41 1367.29,-77.15 1374.73,-84.7 1377.81,-78.41"/>
</a>
</g>
</g>
<!-- Node14&#45;&gt;Node10 -->
<g id="edge14_Node000014_Node000010" class="edge">
<title>Node14&#45;&gt;Node10</title>
<g id="a_edge14_Node000014_Node000010"><a xlink:title=" ">
<path fill="none" stroke="#63b8ff" d="M1360.04,-55.59C1371.23,-47.74 1387.44,-36.38 1400.68,-27.09"/>
<polygon fill="#63b8ff" stroke="#63b8ff" points="1402.69,-29.96 1408.87,-21.35 1398.67,-24.22 1402.69,-29.96"/>
</a>
</g>
</g>
<!-- Node16 -->
<g id="Node000016" class="node">
<title>Node16</title>
<g id="a_Node000016"><a xlink:title=" ">
<polygon fill="#e0e0e0" stroke="#999999" points="383.75,-76 311.5,-76 311.5,-56 383.75,-56 383.75,-76"/>
<text text-anchor="middle" x="347.62" y="-62.5" font-family="Helvetica,sans-Serif" font-size="10.00">dpp/cluster.h</text>
</a>
</g>
</g>
<!-- Node15&#45;&gt;Node16 -->
<g id="edge16_Node000015_Node000016" class="edge">
<title>Node15&#45;&gt;Node16</title>
<g id="a_edge16_Node000015_Node000016"><a xlink:title=" ">
<path fill="none" stroke="#63b8ff" d="M106.82,-111.53C161.37,-101.44 247.04,-85.6 300.13,-75.78"/>
<polygon fill="#63b8ff" stroke="#63b8ff" points="300.58,-79.26 309.78,-74 299.31,-72.38 300.58,-79.26"/>
</a>
</g>
</g>
<!-- Node17 -->
<g id="Node000017" class="node">
<title>Node17</title>
<g id="a_Node000017"><a xlink:title=" ">
<polygon fill="#e0e0e0" stroke="#999999" points="489.62,-76 401.62,-76 401.62,-56 489.62,-56 489.62,-76"/>
<text text-anchor="middle" x="445.62" y="-62.5" font-family="Helvetica,sans-Serif" font-size="10.00">dpp/dispatcher.h</text>
</a>
</g>
</g>
<!-- Node15&#45;&gt;Node17 -->
<g id="edge17_Node000015_Node000017" class="edge">
<title>Node15&#45;&gt;Node17</title>
<g id="a_edge17_Node000015_Node000017"><a xlink:title=" ">
<path fill="none" stroke="#63b8ff" d="M111.47,-113.12C114.23,-112.74 116.96,-112.36 119.62,-112 237.34,-95.96 269.73,-94.33 390.24,-76.31"/>
<polygon fill="#63b8ff" stroke="#63b8ff" points="390.53,-79.81 399.9,-74.86 389.49,-72.89 390.53,-79.81"/>
</a>
</g>
</g>
<!-- Node18&#45;&gt;Node16 -->
<g id="edge19_Node000018_Node000016" class="edge">
<title>Node18&#45;&gt;Node16</title>
<g id="a_edge19_Node000018_Node000016"><a xlink:title=" ">
<path fill="none" stroke="#63b8ff" d="M279.08,-111.59C291.38,-103.59 309.3,-91.93 323.73,-82.54"/>
<polygon fill="#63b8ff" stroke="#63b8ff" points="325.31,-85.69 331.79,-77.3 321.5,-79.82 325.31,-85.69"/>
</a>
</g>
</g>
<!-- Node18&#45;&gt;Node17 -->
<g id="edge20_Node000018_Node000017" class="edge">
<title>Node18&#45;&gt;Node17</title>
<g id="a_edge20_Node000018_Node000017"><a xlink:title=" ">
<path fill="none" stroke="#63b8ff" d="M296.15,-111.59C325.82,-102.74 370.46,-89.43 403.23,-79.65"/>
<polygon fill="#63b8ff" stroke="#63b8ff" points="403.82,-83.13 412.4,-76.91 401.82,-76.42 403.82,-83.13"/>
</a>
</g>
</g>
<!-- Node19&#45;&gt;Node13 -->
<g id="edge25_Node000019_Node000013" class="edge">
<title>Node19&#45;&gt;Node13</title>
<g id="a_edge25_Node000019_Node000013"><a xlink:title=" ">
<path fill="none" stroke="#63b8ff" d="M1021.35,-111.59C1035.85,-103.44 1057.1,-91.48 1073.95,-82"/>
<polygon fill="#63b8ff" stroke="#63b8ff" points="1075.45,-85.17 1082.45,-77.22 1072.02,-79.07 1075.45,-85.17"/>
</a>
</g>
</g>
<!-- Node19&#45;&gt;Node16 -->
<g id="edge23_Node000019_Node000016" class="edge">
<title>Node19&#45;&gt;Node16</title>
<g id="a_edge23_Node000019_Node000016"><a xlink:title=" ">
<path fill="none" stroke="#63b8ff" d="M936.69,-112.78C933.97,-112.51 931.27,-112.25 928.62,-112 694.6,-90.3 631.27,-106.94 395.28,-76.18"/>
<polygon fill="#63b8ff" stroke="#63b8ff" points="395.78,-72.72 385.41,-74.88 394.86,-79.66 395.78,-72.72"/>
</a>
</g>
</g>
<!-- Node19&#45;&gt;Node17 -->
<g id="edge24_Node000019_Node000017" class="edge">
<title>Node19&#45;&gt;Node17</title>
<g id="a_edge24_Node000019_Node000017"><a xlink:title=" ">
<path fill="none" stroke="#63b8ff" d="M936.68,-112.87C933.96,-112.57 931.27,-112.28 928.62,-112 773.98,-95.64 591.13,-79.47 501.22,-71.73"/>
<polygon fill="#63b8ff" stroke="#63b8ff" points="501.72,-68.26 491.45,-70.89 501.12,-75.23 501.72,-68.26"/>
</a>
</g>
</g>
<!-- Node19&#45;&gt;Node20 -->
<g id="edge22_Node000019_Node000020" class="edge">
<title>Node19&#45;&gt;Node20</title>
<g id="a_edge22_Node000019_Node000020"><a xlink:title=" ">
<path fill="none" stroke="#63b8ff" d="M1006.02,-111.59C1007.01,-104.93 1008.37,-95.75 1009.6,-87.44"/>
<polygon fill="#63b8ff" stroke="#63b8ff" points="1013.02,-88.2 1011.03,-77.8 1006.1,-87.17 1013.02,-88.2"/>
</a>
</g>
</g>
<!-- Node21&#45;&gt;Node16 -->
<g id="edge27_Node000021_Node000016" class="edge">
<title>Node21&#45;&gt;Node16</title>
<g id="a_edge27_Node000021_Node000016"><a xlink:title=" ">
<path fill="none" stroke="#63b8ff" d="M615.37,-112.23C560.74,-104 477.11,-91 395.23,-76.41"/>
<polygon fill="#63b8ff" stroke="#63b8ff" points="395.9,-72.98 385.44,-74.66 394.67,-79.87 395.9,-72.98"/>
</a>
</g>
</g>
<!-- Node21&#45;&gt;Node17 -->
<g id="edge28_Node000021_Node000017" class="edge">
<title>Node21&#45;&gt;Node17</title>
<g id="a_edge28_Node000021_Node000017"><a xlink:title=" ">
<path fill="none" stroke="#63b8ff" d="M634.47,-111.53C596.17,-102.5 538.3,-88.85 496.73,-79.05"/>
<polygon fill="#63b8ff" stroke="#63b8ff" points="497.74,-75.69 487.2,-76.8 496.13,-82.51 497.74,-75.69"/>
</a>
</g>
</g>
<!-- Node22&#45;&gt;Node16 -->
<g id="edge30_Node000022_Node000016" class="edge">
<title>Node22&#45;&gt;Node16</title>
<g id="a_edge30_Node000022_Node000016"><a xlink:title=" ">
<path fill="none" stroke="#63b8ff" d="M388.09,-111.59C381.34,-104.16 371.74,-93.58 363.58,-84.58"/>
<polygon fill="#63b8ff" stroke="#63b8ff" points="366.39,-82.47 357.08,-77.42 361.21,-87.18 366.39,-82.47"/>
</a>
</g>
</g>
<!-- Node22&#45;&gt;Node17 -->
<g id="edge31_Node000022_Node000017" class="edge">
<title>Node22&#45;&gt;Node17</title>
<g id="a_edge31_Node000022_Node000017"><a xlink:title=" ">
<path fill="none" stroke="#63b8ff" d="M405.16,-111.59C411.91,-104.16 421.51,-93.58 429.67,-84.58"/>
<polygon fill="#63b8ff" stroke="#63b8ff" points="432.04,-87.18 436.17,-77.42 426.86,-82.47 432.04,-87.18"/>
</a>
</g>
</g>
<!-- Node23&#45;&gt;Node16 -->
<g id="edge33_Node000023_Node000016" class="edge">
<title>Node23&#45;&gt;Node16</title>
<g id="a_edge33_Node000023_Node000016"><a xlink:title=" ">
<path fill="none" stroke="#63b8ff" d="M503.7,-111.59C472.59,-102.71 425.71,-89.31 391.45,-79.52"/>
<polygon fill="#63b8ff" stroke="#63b8ff" points="392.84,-76.28 382.26,-76.9 390.91,-83.01 392.84,-76.28"/>
</a>
</g>
</g>
<!-- Node23&#45;&gt;Node17 -->
<g id="edge34_Node000023_Node000017" class="edge">
<title>Node23&#45;&gt;Node17</title>
<g id="a_edge34_Node000023_Node000017"><a xlink:title=" ">
<path fill="none" stroke="#63b8ff" d="M520.77,-111.59C507.16,-103.51 487.26,-91.71 471.36,-82.27"/>
<polygon fill="#63b8ff" stroke="#63b8ff" points="473.29,-79.35 462.9,-77.25 469.72,-85.37 473.29,-79.35"/>
</a>
</g>
</g>
<!-- Node24&#45;&gt;Node16 -->
<g id="edge43_Node000024_Node000016" class="edge">
<title>Node24&#45;&gt;Node16</title>
<g id="a_edge43_Node000024_Node000016"><a xlink:title=" ">
<path fill="none" stroke="#63b8ff" d="M194.02,-111.59C224.51,-102.74 270.38,-89.43 304.06,-79.65"/>
<polygon fill="#63b8ff" stroke="#63b8ff" points="304.89,-83.05 313.52,-76.9 302.94,-76.33 304.89,-83.05"/>
</a>
</g>
</g>
<!-- Node24&#45;&gt;Node17 -->
<g id="edge44_Node000024_Node000017" class="edge">
<title>Node24&#45;&gt;Node17</title>
<g id="a_edge44_Node000024_Node000017"><a xlink:title=" ">
<path fill="none" stroke="#63b8ff" d="M194.72,-113.64C197.39,-113.07 200.05,-112.52 202.62,-112 266.8,-99.02 340.82,-85.52 390.14,-76.74"/>
<polygon fill="#63b8ff" stroke="#63b8ff" points="390.47,-80.23 399.71,-75.04 389.25,-73.34 390.47,-80.23"/>
</a>
</g>
</g>
<!-- Node29&#45;&gt;Node11 -->
<g id="edge57_Node000029_Node000011" class="edge">
<title>Node29&#45;&gt;Node11</title>
<g id="a_edge57_Node000029_Node000011"><a xlink:title=" ">
<path fill="none" stroke="#63b8ff" d="M1325.3,-111.59C1312.13,-103.51 1292.89,-91.71 1277.52,-82.27"/>
<polygon fill="#63b8ff" stroke="#63b8ff" points="1279.72,-79.52 1269.36,-77.27 1276.06,-85.48 1279.72,-79.52"/>
</a>
</g>
</g>
<!-- Node29&#45;&gt;Node14 -->
<g id="edge56_Node000029_Node000014" class="edge">
<title>Node29&#45;&gt;Node14</title>
<g id="a_edge56_Node000029_Node000014"><a xlink:title=" ">
<path fill="none" stroke="#63b8ff" d="M1341.67,-111.59C1342.4,-105.01 1343.41,-95.96 1344.32,-87.73"/>
<polygon fill="#63b8ff" stroke="#63b8ff" points="1347.8,-88.13 1345.42,-77.8 1340.84,-87.35 1347.8,-88.13"/>
</a>
</g>
</g>
<!-- Node30&#45;&gt;Node29 -->
<g id="edge61_Node000030_Node000029" class="edge">
<title>Node30&#45;&gt;Node29</title>
<g id="a_edge61_Node000030_Node000029"><a xlink:title=" ">
<path fill="none" stroke="#63b8ff" d="M1382.74,-167.59C1375.72,-160.16 1365.72,-149.58 1357.23,-140.58"/>
<polygon fill="#63b8ff" stroke="#63b8ff" points="1359.86,-138.27 1350.45,-133.4 1354.77,-143.07 1359.86,-138.27"/>
</a>
</g>
</g>
<!-- Node31 -->
<g id="Node000031" class="node">
<title>Node31</title>
<g id="a_Node000031"><a xlink:href="IRepository_8hpp.html" target="_top" xlink:title=" ">
<polygon fill="white" stroke="#666666" points="1597.75,-132 1513.5,-132 1513.5,-112 1597.75,-112 1597.75,-132"/>
<text text-anchor="middle" x="1555.62" y="-118.5" font-family="Helvetica,sans-Serif" font-size="10.00">IRepository.hpp</text>
</a>
</g>
</g>
<!-- Node30&#45;&gt;Node31 -->
<g id="edge59_Node000030_Node000031" class="edge">
<title>Node30&#45;&gt;Node31</title>
<g id="a_edge59_Node000030_Node000031"><a xlink:title=" ">
<path fill="none" stroke="#63b8ff" d="M1420.19,-167.59C1446.72,-158.86 1486.46,-145.77 1516.04,-136.03"/>
<polygon fill="#63b8ff" stroke="#63b8ff" points="1516.99,-139.4 1525.4,-132.95 1514.8,-132.76 1516.99,-139.4"/>
</a>
</g>
</g>
<!-- Node31&#45;&gt;Node8 -->
<g id="edge60_Node000031_Node000008" class="edge">
<title>Node31&#45;&gt;Node8</title>
<g id="a_edge60_Node000031_Node000008"><a xlink:title=" ">
<path fill="none" stroke="#63b8ff" d="M1555.45,-111.59C1555.33,-105.01 1555.16,-95.96 1555.01,-87.73"/>
<polygon fill="#63b8ff" stroke="#63b8ff" points="1558.51,-87.75 1554.83,-77.81 1551.51,-87.87 1558.51,-87.75"/>
</a>
</g>
</g>
</g>
</svg>
