<?xml version="1.0" encoding="UTF-8" standalone="no"?>
<!DOCTYPE svg PUBLIC "-//W3C//DTD SVG 1.1//EN"
 "http://www.w3.org/Graphics/SVG/1.1/DTD/svg11.dtd">
<!-- Generated by graphviz version 12.2.1 (0)
 -->
<!-- Title: src/bot_library/commands/challenge_role/ChallengeRoleRepository.cpp Pages: 1 -->
<svg width="484pt" height="264pt"
 viewBox="0.00 0.00 483.68 264.00" xmlns="http://www.w3.org/2000/svg" xmlns:xlink="http://www.w3.org/1999/xlink">
<g id="graph0" class="graph" transform="scale(1 1) rotate(0) translate(4 260)">
<title>src/bot_library/commands/challenge_role/ChallengeRoleRepository.cpp</title>
<!-- Node1 -->
<g id="Node000001" class="node">
<title>Node1</title>
<g id="a_Node000001"><a xlink:title=" ">
<polygon fill="#999999" stroke="#666666" points="311.81,-256 98.56,-256 98.56,-224 311.81,-224 311.81,-256"/>
<text text-anchor="start" x="106.56" y="-242.5" font-family="Helvetica,sans-Serif" font-size="10.00">src/bot_library/commands</text>
<text text-anchor="middle" x="205.18" y="-230.5" font-family="Helvetica,sans-Serif" font-size="10.00">/challenge_role/ChallengeRoleRepository.cpp</text>
</a>
</g>
</g>
<!-- Node2 -->
<g id="Node000002" class="node">
<title>Node2</title>
<g id="a_Node000002"><a xlink:href="ChallengeRoleRepository_8hpp.html" target="_top" xlink:title=" ">
<polygon fill="white" stroke="#666666" points="176.68,-188 31.68,-188 31.68,-168 176.68,-168 176.68,-188"/>
<text text-anchor="middle" x="104.18" y="-174.5" font-family="Helvetica,sans-Serif" font-size="10.00">ChallengeRoleRepository.hpp</text>
</a>
</g>
</g>
<!-- Node1&#45;&gt;Node2 -->
<g id="edge1_Node000001_Node000002" class="edge">
<title>Node1&#45;&gt;Node2</title>
<g id="a_edge1_Node000001_Node000002"><a xlink:title=" ">
<path fill="none" stroke="#63b8ff" d="M179.17,-223.55C163.98,-214.52 144.88,-203.17 129.76,-194.19"/>
<polygon fill="#63b8ff" stroke="#63b8ff" points="131.71,-191.28 121.32,-189.18 128.13,-197.3 131.71,-191.28"/>
</a>
</g>
</g>
<!-- Node4 -->
<g id="Node000004" class="node">
<title>Node4</title>
<g id="a_Node000004"><a xlink:title=" ">
<polygon fill="#e0e0e0" stroke="#999999" points="55.31,-76 7.06,-76 7.06,-56 55.31,-56 55.31,-76"/>
<text text-anchor="middle" x="31.18" y="-62.5" font-family="Helvetica,sans-Serif" font-size="10.00">cstddef</text>
</a>
</g>
</g>
<!-- Node1&#45;&gt;Node4 -->
<g id="edge16_Node000001_Node000004" class="edge">
<title>Node1&#45;&gt;Node4</title>
<g id="a_edge16_Node000001_Node000004"><a xlink:title=" ">
<path fill="none" stroke="#63b8ff" d="M98.37,-227.43C71.04,-219.89 43.63,-207.69 23.18,-188 -1.82,-163.92 -3.81,-145.53 5.18,-112 7.66,-102.77 12.53,-93.48 17.4,-85.76"/>
<polygon fill="#63b8ff" stroke="#63b8ff" points="20.22,-87.83 22.95,-77.6 14.43,-83.9 20.22,-87.83"/>
</a>
</g>
</g>
<!-- Node5 -->
<g id="Node000005" class="node">
<title>Node5</title>
<g id="a_Node000005"><a xlink:href="ChallengeRoleDTO_8hpp.html" target="_top" xlink:title=" ">
<polygon fill="white" stroke="#666666" points="235.93,-132 116.43,-132 116.43,-112 235.93,-112 235.93,-132"/>
<text text-anchor="middle" x="176.18" y="-118.5" font-family="Helvetica,sans-Serif" font-size="10.00">ChallengeRoleDTO.hpp</text>
</a>
</g>
</g>
<!-- Node1&#45;&gt;Node5 -->
<g id="edge18_Node000001_Node000005" class="edge">
<title>Node1&#45;&gt;Node5</title>
<g id="a_edge18_Node000001_Node000005"><a xlink:title=" ">
<path fill="none" stroke="#63b8ff" d="M201.39,-223.84C196.24,-203.22 187.01,-166.29 181.26,-143.31"/>
<polygon fill="#63b8ff" stroke="#63b8ff" points="184.73,-142.76 178.91,-133.91 177.94,-144.46 184.73,-142.76"/>
</a>
</g>
</g>
<!-- Node9 -->
<g id="Node000009" class="node">
<title>Node9</title>
<g id="a_Node000009"><a xlink:href="Database_8hpp.html" target="_top" xlink:title=" ">
<polygon fill="white" stroke="#666666" points="330.56,-132 253.81,-132 253.81,-112 330.56,-112 330.56,-132"/>
<text text-anchor="middle" x="292.18" y="-118.5" font-family="Helvetica,sans-Serif" font-size="10.00">Database.hpp</text>
</a>
</g>
</g>
<!-- Node1&#45;&gt;Node9 -->
<g id="edge8_Node000001_Node000009" class="edge">
<title>Node1&#45;&gt;Node9</title>
<g id="a_edge8_Node000001_Node000009"><a xlink:title=" ">
<path fill="none" stroke="#63b8ff" d="M216.56,-223.84C232.45,-202.65 261.25,-164.24 278.36,-141.43"/>
<polygon fill="#63b8ff" stroke="#63b8ff" points="281,-143.75 284.2,-133.65 275.4,-139.55 281,-143.75"/>
</a>
</g>
</g>
<!-- Node12 -->
<g id="Node000012" class="node">
<title>Node12</title>
<g id="a_Node000012"><a xlink:title=" ">
<polygon fill="#e0e0e0" stroke="#999999" points="475.68,-76 432.68,-76 432.68,-56 475.68,-56 475.68,-76"/>
<text text-anchor="middle" x="454.18" y="-62.5" font-family="Helvetica,sans-Serif" font-size="10.00">vector</text>
</a>
</g>
</g>
<!-- Node1&#45;&gt;Node12 -->
<g id="edge17_Node000001_Node000012" class="edge">
<title>Node1&#45;&gt;Node12</title>
<g id="a_edge17_Node000001_Node000012"><a xlink:title=" ">
<path fill="none" stroke="#63b8ff" d="M227.28,-223.74C274.28,-191.27 383.77,-115.64 431.39,-82.75"/>
<polygon fill="#63b8ff" stroke="#63b8ff" points="433.08,-85.83 439.32,-77.27 429.1,-80.07 433.08,-85.83"/>
</a>
</g>
</g>
<!-- Node3 -->
<g id="Node000003" class="node">
<title>Node3</title>
<g id="a_Node000003"><a xlink:href="IRepository_8hpp.html" target="_top" xlink:title=" ">
<polygon fill="white" stroke="#666666" points="98.31,-132 14.06,-132 14.06,-112 98.31,-112 98.31,-132"/>
<text text-anchor="middle" x="56.18" y="-118.5" font-family="Helvetica,sans-Serif" font-size="10.00">IRepository.hpp</text>
</a>
</g>
</g>
<!-- Node2&#45;&gt;Node3 -->
<g id="edge2_Node000002_Node000003" class="edge">
<title>Node2&#45;&gt;Node3</title>
<g id="a_edge2_Node000002_Node000003"><a xlink:title=" ">
<path fill="none" stroke="#63b8ff" d="M95.82,-167.59C89.28,-160.24 80,-149.8 72.06,-140.87"/>
<polygon fill="#63b8ff" stroke="#63b8ff" points="74.71,-138.58 65.45,-133.43 69.48,-143.23 74.71,-138.58"/>
</a>
</g>
</g>
<!-- Node2&#45;&gt;Node5 -->
<g id="edge4_Node000002_Node000005" class="edge">
<title>Node2&#45;&gt;Node5</title>
<g id="a_edge4_Node000002_Node000005"><a xlink:title=" ">
<path fill="none" stroke="#63b8ff" d="M116.73,-167.59C127.15,-159.77 142.23,-148.46 154.59,-139.19"/>
<polygon fill="#63b8ff" stroke="#63b8ff" points="156.68,-142.01 162.58,-133.21 152.48,-136.41 156.68,-142.01"/>
</a>
</g>
</g>
<!-- Node3&#45;&gt;Node4 -->
<g id="edge3_Node000003_Node000004" class="edge">
<title>Node3&#45;&gt;Node4</title>
<g id="a_edge3_Node000003_Node000004"><a xlink:title=" ">
<path fill="none" stroke="#63b8ff" d="M51.83,-111.59C48.64,-104.7 44.19,-95.1 40.25,-86.57"/>
<polygon fill="#63b8ff" stroke="#63b8ff" points="43.5,-85.28 36.12,-77.67 37.15,-88.22 43.5,-85.28"/>
</a>
</g>
</g>
<!-- Node6 -->
<g id="Node000006" class="node">
<title>Node6</title>
<g id="a_Node000006"><a xlink:href="RowDTOAdapter_8hpp.html" target="_top" xlink:title=" ">
<polygon fill="white" stroke="#666666" points="241.06,-76 131.31,-76 131.31,-56 241.06,-56 241.06,-76"/>
<text text-anchor="middle" x="186.18" y="-62.5" font-family="Helvetica,sans-Serif" font-size="10.00">RowDTOAdapter.hpp</text>
</a>
</g>
</g>
<!-- Node5&#45;&gt;Node6 -->
<g id="edge5_Node000005_Node000006" class="edge">
<title>Node5&#45;&gt;Node6</title>
<g id="a_edge5_Node000005_Node000006"><a xlink:title=" ">
<path fill="none" stroke="#63b8ff" d="M177.93,-111.59C179.16,-104.93 180.86,-95.75 182.4,-87.44"/>
<polygon fill="#63b8ff" stroke="#63b8ff" points="185.81,-88.26 184.19,-77.79 178.92,-86.98 185.81,-88.26"/>
</a>
</g>
</g>
<!-- Node8 -->
<g id="Node000008" class="node">
<title>Node8</title>
<g id="a_Node000008"><a xlink:title=" ">
<polygon fill="#e0e0e0" stroke="#999999" points="113.18,-76 73.18,-76 73.18,-56 113.18,-56 113.18,-76"/>
<text text-anchor="middle" x="93.18" y="-62.5" font-family="Helvetica,sans-Serif" font-size="10.00">string</text>
</a>
</g>
</g>
<!-- Node5&#45;&gt;Node8 -->
<g id="edge7_Node000005_Node000008" class="edge">
<title>Node5&#45;&gt;Node8</title>
<g id="a_edge7_Node000005_Node000008"><a xlink:title=" ">
<path fill="none" stroke="#63b8ff" d="M161.73,-111.59C149.42,-103.59 131.51,-91.93 117.08,-82.54"/>
<polygon fill="#63b8ff" stroke="#63b8ff" points="119.31,-79.82 109.02,-77.3 115.5,-85.69 119.31,-79.82"/>
</a>
</g>
</g>
<!-- Node7 -->
<g id="Node000007" class="node">
<title>Node7</title>
<g id="a_Node000007"><a xlink:title=" ">
<polygon fill="#e0e0e0" stroke="#999999" points="325.68,-20 264.68,-20 264.68,0 325.68,0 325.68,-20"/>
<text text-anchor="middle" x="295.18" y="-6.5" font-family="Helvetica,sans-Serif" font-size="10.00">pqxx/pqxx</text>
</a>
</g>
</g>
<!-- Node6&#45;&gt;Node7 -->
<g id="edge6_Node000006_Node000007" class="edge">
<title>Node6&#45;&gt;Node7</title>
<g id="a_edge6_Node000006_Node000007"><a xlink:title=" ">
<path fill="none" stroke="#63b8ff" d="M205.17,-55.59C221.95,-47.28 246.68,-35.03 265.97,-25.47"/>
<polygon fill="#63b8ff" stroke="#63b8ff" points="267.29,-28.73 274.69,-21.15 264.18,-22.45 267.29,-28.73"/>
</a>
</g>
</g>
<!-- Node9&#45;&gt;Node4 -->
<g id="edge9_Node000009_Node000004" class="edge">
<title>Node9&#45;&gt;Node4</title>
<g id="a_edge9_Node000009_Node000004"><a xlink:title=" ">
<path fill="none" stroke="#63b8ff" d="M253.49,-113.52C199.67,-103.09 105.19,-84.71 66.75,-76.38"/>
<polygon fill="#63b8ff" stroke="#63b8ff" points="67.64,-72.99 57.12,-74.21 66.11,-79.82 67.64,-72.99"/>
</a>
</g>
</g>
<!-- Node9&#45;&gt;Node6 -->
<g id="edge15_Node000009_Node000006" class="edge">
<title>Node9&#45;&gt;Node6</title>
<g id="a_edge15_Node000009_Node000006"><a xlink:title=" ">
<path fill="none" stroke="#63b8ff" d="M273.72,-111.59C257.48,-103.32 233.58,-91.14 214.85,-81.6"/>
<polygon fill="#63b8ff" stroke="#63b8ff" points="216.64,-78.59 206.14,-77.17 213.46,-84.82 216.64,-78.59"/>
</a>
</g>
</g>
<!-- Node9&#45;&gt;Node7 -->
<g id="edge11_Node000009_Node000007" class="edge">
<title>Node9&#45;&gt;Node7</title>
<g id="a_edge11_Node000009_Node000007"><a xlink:title=" ">
<path fill="none" stroke="#63b8ff" d="M330.96,-112.63C350.82,-106.17 373.27,-95 385.18,-76 400.53,-51.53 367.08,-33.44 336.7,-22.64"/>
<polygon fill="#63b8ff" stroke="#63b8ff" points="338.19,-19.45 327.6,-19.61 335.98,-26.09 338.19,-19.45"/>
</a>
</g>
</g>
<!-- Node9&#45;&gt;Node8 -->
<g id="edge12_Node000009_Node000008" class="edge">
<title>Node9&#45;&gt;Node8</title>
<g id="a_edge12_Node000009_Node000008"><a xlink:title=" ">
<path fill="none" stroke="#63b8ff" d="M254.58,-111.53C222.41,-103.32 174.62,-90.88 124.5,-76.58"/>
<polygon fill="#63b8ff" stroke="#63b8ff" points="125.46,-73.22 114.89,-73.82 123.53,-79.94 125.46,-73.22"/>
</a>
</g>
</g>
<!-- Node10 -->
<g id="Node000010" class="node">
<title>Node10</title>
<g id="a_Node000010"><a xlink:title=" ">
<polygon fill="#e0e0e0" stroke="#999999" points="375.93,-76 322.43,-76 322.43,-56 375.93,-56 375.93,-76"/>
<text text-anchor="middle" x="349.18" y="-62.5" font-family="Helvetica,sans-Serif" font-size="10.00">iostream</text>
</a>
</g>
</g>
<!-- Node9&#45;&gt;Node10 -->
<g id="edge10_Node000009_Node000010" class="edge">
<title>Node9&#45;&gt;Node10</title>
<g id="a_edge10_Node000009_Node000010"><a xlink:title=" ">
<path fill="none" stroke="#63b8ff" d="M302.11,-111.59C310.12,-104.01 321.6,-93.13 331.21,-84.02"/>
<polygon fill="#63b8ff" stroke="#63b8ff" points="333.42,-86.76 338.27,-77.34 328.6,-81.68 333.42,-86.76"/>
</a>
</g>
</g>
<!-- Node11 -->
<g id="Node000011" class="node">
<title>Node11</title>
<g id="a_Node000011"><a xlink:title=" ">
<polygon fill="#e0e0e0" stroke="#999999" points="304.81,-76 259.56,-76 259.56,-56 304.81,-56 304.81,-76"/>
<text text-anchor="middle" x="282.18" y="-62.5" font-family="Helvetica,sans-Serif" font-size="10.00">variant</text>
</a>
</g>
</g>
<!-- Node9&#45;&gt;Node11 -->
<g id="edge13_Node000009_Node000011" class="edge">
<title>Node9&#45;&gt;Node11</title>
<g id="a_edge13_Node000009_Node000011"><a xlink:title=" ">
<path fill="none" stroke="#63b8ff" d="M290.44,-111.59C289.21,-104.93 287.51,-95.75 285.97,-87.44"/>
<polygon fill="#63b8ff" stroke="#63b8ff" points="289.44,-86.98 284.18,-77.79 282.56,-88.26 289.44,-86.98"/>
</a>
</g>
</g>
<!-- Node9&#45;&gt;Node12 -->
<g id="edge14_Node000009_Node000012" class="edge">
<title>Node9&#45;&gt;Node12</title>
<g id="a_edge14_Node000009_Node000012"><a xlink:title=" ">
<path fill="none" stroke="#63b8ff" d="M320.4,-111.59C348.7,-102.16 392.21,-87.66 421.87,-77.77"/>
<polygon fill="#63b8ff" stroke="#63b8ff" points="422.69,-81.19 431.07,-74.71 420.47,-74.55 422.69,-81.19"/>
</a>
</g>
</g>
</g>
</svg>
