<?xml version="1.0" encoding="UTF-8" standalone="no"?>
<!DOCTYPE svg PUBLIC "-//W3C//DTD SVG 1.1//EN"
 "http://www.w3.org/Graphics/SVG/1.1/DTD/svg11.dtd">
<!-- Generated by graphviz version 13.0.1 (0)
 -->
<!-- Title: src/bot_library/commands/challenge_role/ChallengeRoleCommand.hpp Pages: 1 -->
<svg width="1331pt" height="376pt"
 viewBox="0.00 0.00 1331.00 376.00" xmlns="http://www.w3.org/2000/svg" xmlns:xlink="http://www.w3.org/1999/xlink">
<g id="graph0" class="graph" transform="scale(1 1) rotate(0) translate(4 372)">
<title>src/bot_library/commands/challenge_role/ChallengeRoleCommand.hpp</title>
<!-- Node1 -->
<g id="Node000001" class="node">
<title>Node1</title>
<g id="a_Node000001"><a xlink:title=" ">
<polygon fill="#999999" stroke="#666666" points="811.88,-368 600.12,-368 600.12,-336 811.88,-336 811.88,-368"/>
<text xml:space="preserve" text-anchor="start" x="608.12" y="-354.5" font-family="Helvetica,sans-Serif" font-size="10.00">src/bot_library/commands</text>
<text xml:space="preserve" text-anchor="middle" x="706" y="-342.5" font-family="Helvetica,sans-Serif" font-size="10.00">/challenge_role/ChallengeRoleCommand.hpp</text>
</a>
</g>
</g>
<!-- Node2 -->
<g id="Node000002" class="node">
<title>Node2</title>
<g id="a_Node000002"><a xlink:href="Bot_8hpp.html" target="_top" xlink:title=" ">
<polygon fill="white" stroke="#666666" points="699.88,-300 650.12,-300 650.12,-280 699.88,-280 699.88,-300"/>
<text xml:space="preserve" text-anchor="middle" x="675" y="-286.5" font-family="Helvetica,sans-Serif" font-size="10.00">Bot.hpp</text>
</a>
</g>
</g>
<!-- Node1&#45;&gt;Node2 -->
<g id="edge1_Node000001_Node000002" class="edge">
<title>Node1&#45;&gt;Node2</title>
<g id="a_edge1_Node000001_Node000002"><a xlink:title=" ">
<path fill="none" stroke="#63b8ff" d="M698.02,-335.55C694.07,-327.91 689.27,-318.61 685.07,-310.49"/>
<polygon fill="#63b8ff" stroke="#63b8ff" points="688.26,-309.03 680.56,-301.75 682.04,-312.24 688.26,-309.03"/>
</a>
</g>
</g>
<!-- Node8 -->
<g id="Node000008" class="node">
<title>Node8</title>
<g id="a_Node000008"><a xlink:title=" ">
<polygon fill="#e0e0e0" stroke="#999999" points="40,-132 0,-132 0,-112 40,-112 40,-132"/>
<text xml:space="preserve" text-anchor="middle" x="20" y="-118.5" font-family="Helvetica,sans-Serif" font-size="10.00">string</text>
</a>
</g>
</g>
<!-- Node1&#45;&gt;Node8 -->
<g id="edge48_Node000001_Node000008" class="edge">
<title>Node1&#45;&gt;Node8</title>
<g id="a_edge48_Node000001_Node000008"><a xlink:title=" ">
<path fill="none" stroke="#63b8ff" d="M599.81,-338.29C488.28,-323.09 308.77,-293.29 160,-244 105.28,-225.87 81.54,-230.87 43,-188 31.74,-175.47 25.9,-157.07 22.94,-143.04"/>
<polygon fill="#63b8ff" stroke="#63b8ff" points="26.45,-142.82 21.27,-133.58 19.56,-144.04 26.45,-142.82"/>
</a>
</g>
</g>
<!-- Node24 -->
<g id="Node000024" class="node">
<title>Node24</title>
<g id="a_Node000024"><a xlink:title=" ">
<polygon fill="#e0e0e0" stroke="#999999" points="758,-300 718,-300 718,-280 758,-280 758,-300"/>
<text xml:space="preserve" text-anchor="middle" x="738" y="-286.5" font-family="Helvetica,sans-Serif" font-size="10.00">stack</text>
</a>
</g>
</g>
<!-- Node1&#45;&gt;Node24 -->
<g id="edge46_Node000001_Node000024" class="edge">
<title>Node1&#45;&gt;Node24</title>
<g id="a_edge46_Node000001_Node000024"><a xlink:title=" ">
<path fill="none" stroke="#63b8ff" d="M714.24,-335.55C718.31,-327.91 723.27,-318.61 727.61,-310.49"/>
<polygon fill="#63b8ff" stroke="#63b8ff" points="730.65,-312.21 732.27,-301.74 724.48,-308.92 730.65,-312.21"/>
</a>
</g>
</g>
<!-- Node25 -->
<g id="Node000025" class="node">
<title>Node25</title>
<g id="a_Node000025"><a xlink:title=" ">
<polygon fill="#e0e0e0" stroke="#999999" points="834.38,-300 775.62,-300 775.62,-280 834.38,-280 834.38,-300"/>
<text xml:space="preserve" text-anchor="middle" x="805" y="-286.5" font-family="Helvetica,sans-Serif" font-size="10.00">stdexcept</text>
</a>
</g>
</g>
<!-- Node1&#45;&gt;Node25 -->
<g id="edge47_Node000001_Node000025" class="edge">
<title>Node1&#45;&gt;Node25</title>
<g id="a_edge47_Node000001_Node000025"><a xlink:title=" ">
<path fill="none" stroke="#63b8ff" d="M731.49,-335.55C746.39,-326.52 765.11,-315.17 779.93,-306.19"/>
<polygon fill="#63b8ff" stroke="#63b8ff" points="781.44,-309.37 788.18,-301.19 777.82,-303.38 781.44,-309.37"/>
</a>
</g>
</g>
<!-- Node3 -->
<g id="Node000003" class="node">
<title>Node3</title>
<g id="a_Node000003"><a xlink:href="Core_8hpp.html" target="_top" xlink:title=" ">
<polygon fill="white" stroke="#666666" points="619.88,-244 564.12,-244 564.12,-224 619.88,-224 619.88,-244"/>
<text xml:space="preserve" text-anchor="middle" x="592" y="-230.5" font-family="Helvetica,sans-Serif" font-size="10.00">Core.hpp</text>
</a>
</g>
</g>
<!-- Node2&#45;&gt;Node3 -->
<g id="edge2_Node000002_Node000003" class="edge">
<title>Node2&#45;&gt;Node3</title>
<g id="a_edge2_Node000002_Node000003"><a xlink:title=" ">
<path fill="none" stroke="#63b8ff" d="M660.54,-279.59C648.24,-271.59 630.32,-259.93 615.89,-250.54"/>
<polygon fill="#63b8ff" stroke="#63b8ff" points="618.13,-247.82 607.84,-245.3 614.31,-253.69 618.13,-247.82"/>
</a>
</g>
</g>
<!-- Node2&#45;&gt;Node8 -->
<g id="edge44_Node000002_Node000008" class="edge">
<title>Node2&#45;&gt;Node8</title>
<g id="a_edge44_Node000002_Node000008"><a xlink:title=" ">
<path fill="none" stroke="#63b8ff" d="M649.86,-287.57C547.82,-281.35 165.27,-253.98 67,-188 50.05,-176.62 37.1,-156.95 29.12,-142.22"/>
<polygon fill="#63b8ff" stroke="#63b8ff" points="32.34,-140.83 24.7,-133.49 26.1,-144 32.34,-140.83"/>
</a>
</g>
</g>
<!-- Node9 -->
<g id="Node000009" class="node">
<title>Node9</title>
<g id="a_Node000009"><a xlink:title=" ">
<polygon fill="#e0e0e0" stroke="#999999" points="338.5,-132 295.5,-132 295.5,-112 338.5,-112 338.5,-132"/>
<text xml:space="preserve" text-anchor="middle" x="317" y="-118.5" font-family="Helvetica,sans-Serif" font-size="10.00">vector</text>
</a>
</g>
</g>
<!-- Node2&#45;&gt;Node9 -->
<g id="edge45_Node000002_Node000009" class="edge">
<title>Node2&#45;&gt;Node9</title>
<g id="a_edge45_Node000002_Node000009"><a xlink:title=" ">
<path fill="none" stroke="#63b8ff" d="M649.63,-287.17C564.47,-280.44 291.27,-253.96 240,-188 222.96,-166.08 256.65,-146.35 284.71,-134.53"/>
<polygon fill="#63b8ff" stroke="#63b8ff" points="285.68,-137.91 293.67,-130.95 283.09,-131.41 285.68,-137.91"/>
</a>
</g>
</g>
<!-- Node13 -->
<g id="Node000013" class="node">
<title>Node13</title>
<g id="a_Node000013"><a xlink:href="IButtonCommand_8hpp.html" target="_top" xlink:title=" ">
<polygon fill="white" stroke="#666666" points="699.62,-188 588.38,-188 588.38,-168 699.62,-168 699.62,-188"/>
<text xml:space="preserve" text-anchor="middle" x="644" y="-174.5" font-family="Helvetica,sans-Serif" font-size="10.00">IButtonCommand.hpp</text>
</a>
</g>
</g>
<!-- Node2&#45;&gt;Node13 -->
<g id="edge34_Node000002_Node000013" class="edge">
<title>Node2&#45;&gt;Node13</title>
<g id="a_edge34_Node000002_Node000013"><a xlink:title=" ">
<path fill="none" stroke="#63b8ff" d="M672.36,-279.62C667.37,-261.92 656.47,-223.24 649.73,-199.32"/>
<polygon fill="#63b8ff" stroke="#63b8ff" points="653.13,-198.49 647.05,-189.81 646.39,-200.39 653.13,-198.49"/>
</a>
</g>
</g>
<!-- Node16 -->
<g id="Node000016" class="node">
<title>Node16</title>
<g id="a_Node000016"><a xlink:href="IFormCommand_8hpp.html" target="_top" xlink:title=" ">
<polygon fill="white" stroke="#666666" points="822.62,-188 717.38,-188 717.38,-168 822.62,-168 822.62,-188"/>
<text xml:space="preserve" text-anchor="middle" x="770" y="-174.5" font-family="Helvetica,sans-Serif" font-size="10.00">IFormCommand.hpp</text>
</a>
</g>
</g>
<!-- Node2&#45;&gt;Node16 -->
<g id="edge35_Node000002_Node000016" class="edge">
<title>Node2&#45;&gt;Node16</title>
<g id="a_edge35_Node000002_Node000016"><a xlink:title=" ">
<path fill="none" stroke="#63b8ff" d="M692.25,-279.56C705.75,-271.5 724.31,-258.87 737,-244 748.44,-230.6 757.19,-212.55 762.8,-198.87"/>
<polygon fill="#63b8ff" stroke="#63b8ff" points="766.04,-200.21 766.37,-189.62 759.51,-197.69 766.04,-200.21"/>
</a>
</g>
</g>
<!-- Node17 -->
<g id="Node000017" class="node">
<title>Node17</title>
<g id="a_Node000017"><a xlink:href="IGlobalSlashCommand_8hpp.html" target="_top" xlink:title=" ">
<polygon fill="white" stroke="#666666" points="384.62,-188 249.38,-188 249.38,-168 384.62,-168 384.62,-188"/>
<text xml:space="preserve" text-anchor="middle" x="317" y="-174.5" font-family="Helvetica,sans-Serif" font-size="10.00">IGlobalSlashCommand.hpp</text>
</a>
</g>
</g>
<!-- Node2&#45;&gt;Node17 -->
<g id="edge36_Node000002_Node000017" class="edge">
<title>Node2&#45;&gt;Node17</title>
<g id="a_edge36_Node000002_Node000017"><a xlink:title=" ">
<path fill="none" stroke="#63b8ff" d="M649.83,-281.27C589.04,-262.59 433.77,-214.88 358.78,-191.84"/>
<polygon fill="#63b8ff" stroke="#63b8ff" points="359.92,-188.53 349.33,-188.93 357.86,-195.22 359.92,-188.53"/>
</a>
</g>
</g>
<!-- Node19 -->
<g id="Node000019" class="node">
<title>Node19</title>
<g id="a_Node000019"><a xlink:href="IMemberCommand_8hpp.html" target="_top" xlink:title=" ">
<polygon fill="white" stroke="#666666" points="959,-188 841,-188 841,-168 959,-168 959,-188"/>
<text xml:space="preserve" text-anchor="middle" x="900" y="-174.5" font-family="Helvetica,sans-Serif" font-size="10.00">IMemberCommand.hpp</text>
</a>
</g>
</g>
<!-- Node2&#45;&gt;Node19 -->
<g id="edge37_Node000002_Node000019" class="edge">
<title>Node2&#45;&gt;Node19</title>
<g id="a_edge37_Node000002_Node000019"><a xlink:title=" ">
<path fill="none" stroke="#63b8ff" d="M694.18,-279.62C733.62,-260.34 824.01,-216.15 870.78,-193.29"/>
<polygon fill="#63b8ff" stroke="#63b8ff" points="872.06,-196.56 879.51,-189.02 868.98,-190.27 872.06,-196.56"/>
</a>
</g>
</g>
<!-- Node20 -->
<g id="Node000020" class="node">
<title>Node20</title>
<g id="a_Node000020"><a xlink:href="IMessageCommand_8hpp.html" target="_top" xlink:title=" ">
<polygon fill="white" stroke="#666666" points="1099.25,-188 976.75,-188 976.75,-168 1099.25,-168 1099.25,-188"/>
<text xml:space="preserve" text-anchor="middle" x="1038" y="-174.5" font-family="Helvetica,sans-Serif" font-size="10.00">IMessageCommand.hpp</text>
</a>
</g>
</g>
<!-- Node2&#45;&gt;Node20 -->
<g id="edge38_Node000002_Node000020" class="edge">
<title>Node2&#45;&gt;Node20</title>
<g id="a_edge38_Node000002_Node000020"><a xlink:title=" ">
<path fill="none" stroke="#63b8ff" d="M700.24,-281.35C761.84,-262.68 920.4,-214.64 996.3,-191.64"/>
<polygon fill="#63b8ff" stroke="#63b8ff" points="996.87,-195.12 1005.43,-188.87 994.84,-188.42 996.87,-195.12"/>
</a>
</g>
</g>
<!-- Node21 -->
<g id="Node000021" class="node">
<title>Node21</title>
<g id="a_Node000021"><a xlink:href="IReactionCommand_8hpp.html" target="_top" xlink:title=" ">
<polygon fill="white" stroke="#666666" points="1238.88,-188 1117.12,-188 1117.12,-168 1238.88,-168 1238.88,-188"/>
<text xml:space="preserve" text-anchor="middle" x="1178" y="-174.5" font-family="Helvetica,sans-Serif" font-size="10.00">IReactionCommand.hpp</text>
</a>
</g>
</g>
<!-- Node2&#45;&gt;Node21 -->
<g id="edge39_Node000002_Node000021" class="edge">
<title>Node2&#45;&gt;Node21</title>
<g id="a_edge39_Node000002_Node000021"><a xlink:title=" ">
<path fill="none" stroke="#63b8ff" d="M700.22,-282.18C703.17,-281.43 706.15,-280.68 709,-280 749.02,-270.4 1006.86,-215.41 1122.28,-190.85"/>
<polygon fill="#63b8ff" stroke="#63b8ff" points="1122.79,-194.32 1131.84,-188.81 1121.33,-187.47 1122.79,-194.32"/>
</a>
</g>
</g>
<!-- Node22 -->
<g id="Node000022" class="node">
<title>Node22</title>
<g id="a_Node000022"><a xlink:href="IReady_8hpp.html" target="_top" xlink:title=" ">
<polygon fill="white" stroke="#666666" points="1322.75,-188 1257.25,-188 1257.25,-168 1322.75,-168 1322.75,-188"/>
<text xml:space="preserve" text-anchor="middle" x="1290" y="-174.5" font-family="Helvetica,sans-Serif" font-size="10.00">IReady.hpp</text>
</a>
</g>
</g>
<!-- Node2&#45;&gt;Node22 -->
<g id="edge40_Node000002_Node000022" class="edge">
<title>Node2&#45;&gt;Node22</title>
<g id="a_edge40_Node000002_Node000022"><a xlink:title=" ">
<path fill="none" stroke="#63b8ff" d="M700.18,-282.03C703.14,-281.3 706.13,-280.6 709,-280 809.38,-258.85 835.84,-261.09 937,-244 1071.97,-221.2 1108.38,-215.45 1246.04,-188.34"/>
<polygon fill="#63b8ff" stroke="#63b8ff" points="1246.39,-191.84 1255.52,-186.47 1245.03,-184.97 1246.39,-191.84"/>
</a>
</g>
</g>
<!-- Node23 -->
<g id="Node000023" class="node">
<title>Node23</title>
<g id="a_Node000023"><a xlink:title=" ">
<polygon fill="#e0e0e0" stroke="#999999" points="727.62,-244 676.38,-244 676.38,-224 727.62,-224 727.62,-244"/>
<text xml:space="preserve" text-anchor="middle" x="702" y="-230.5" font-family="Helvetica,sans-Serif" font-size="10.00">memory</text>
</a>
</g>
</g>
<!-- Node2&#45;&gt;Node23 -->
<g id="edge43_Node000002_Node000023" class="edge">
<title>Node2&#45;&gt;Node23</title>
<g id="a_edge43_Node000002_Node000023"><a xlink:title=" ">
<path fill="none" stroke="#63b8ff" d="M679.7,-279.59C683.15,-272.7 687.95,-263.1 692.21,-254.57"/>
<polygon fill="#63b8ff" stroke="#63b8ff" points="695.33,-256.16 696.67,-245.65 689.07,-253.03 695.33,-256.16"/>
</a>
</g>
</g>
<!-- Node4 -->
<g id="Node000004" class="node">
<title>Node4</title>
<g id="a_Node000004"><a xlink:title=" ">
<polygon fill="#e0e0e0" stroke="#999999" points="570.38,-188 511.62,-188 511.62,-168 570.38,-168 570.38,-188"/>
<text xml:space="preserve" text-anchor="middle" x="541" y="-174.5" font-family="Helvetica,sans-Serif" font-size="10.00">dpp/dpp.h</text>
</a>
</g>
</g>
<!-- Node3&#45;&gt;Node4 -->
<g id="edge3_Node000003_Node000004" class="edge">
<title>Node3&#45;&gt;Node4</title>
<g id="a_edge3_Node000003_Node000004"><a xlink:title=" ">
<path fill="none" stroke="#63b8ff" d="M583.12,-223.59C576.1,-216.16 566.1,-205.58 557.61,-196.58"/>
<polygon fill="#63b8ff" stroke="#63b8ff" points="560.23,-194.27 550.82,-189.4 555.14,-199.07 560.23,-194.27"/>
</a>
</g>
</g>
<!-- Node5 -->
<g id="Node000005" class="node">
<title>Node5</title>
<g id="a_Node000005"><a xlink:title=" ">
<polygon fill="#e0e0e0" stroke="#999999" points="493.5,-188 402.5,-188 402.5,-168 493.5,-168 493.5,-188"/>
<text xml:space="preserve" text-anchor="middle" x="448" y="-174.5" font-family="Helvetica,sans-Serif" font-size="10.00">dpp/misc&#45;enum.h</text>
</a>
</g>
</g>
<!-- Node3&#45;&gt;Node5 -->
<g id="edge4_Node000003_Node000005" class="edge">
<title>Node3&#45;&gt;Node5</title>
<g id="a_edge4_Node000003_Node000005"><a xlink:title=" ">
<path fill="none" stroke="#63b8ff" d="M566.92,-223.59C543.93,-214.97 509.65,-202.12 483.79,-192.42"/>
<polygon fill="#63b8ff" stroke="#63b8ff" points="485.29,-189.25 474.7,-189.01 482.83,-195.8 485.29,-189.25"/>
</a>
</g>
</g>
<!-- Node6 -->
<g id="Node000006" class="node">
<title>Node6</title>
<g id="a_Node000006"><a xlink:href="Database_8hpp.html" target="_top" xlink:title=" ">
<polygon fill="white" stroke="#666666" points="193.38,-188 116.62,-188 116.62,-168 193.38,-168 193.38,-188"/>
<text xml:space="preserve" text-anchor="middle" x="155" y="-174.5" font-family="Helvetica,sans-Serif" font-size="10.00">Database.hpp</text>
</a>
</g>
</g>
<!-- Node3&#45;&gt;Node6 -->
<g id="edge5_Node000003_Node000006" class="edge">
<title>Node3&#45;&gt;Node6</title>
<g id="a_edge5_Node000003_Node000006"><a xlink:title=" ">
<path fill="none" stroke="#63b8ff" d="M563.66,-229.5C490.93,-220.51 296.92,-196.54 204.84,-185.16"/>
<polygon fill="#63b8ff" stroke="#63b8ff" points="205.46,-181.71 195.1,-183.96 204.6,-188.66 205.46,-181.71"/>
</a>
</g>
</g>
<!-- Node3&#45;&gt;Node8 -->
<g id="edge33_Node000003_Node000008" class="edge">
<title>Node3&#45;&gt;Node8</title>
<g id="a_edge33_Node000003_Node000008"><a xlink:title=" ">
<path fill="none" stroke="#63b8ff" d="M563.69,-232.35C473.24,-229.98 192.27,-220.15 108,-188 80.15,-177.38 53.37,-155.35 36.82,-139.89"/>
<polygon fill="#63b8ff" stroke="#63b8ff" points="39.45,-137.57 29.83,-133.15 34.6,-142.61 39.45,-137.57"/>
</a>
</g>
</g>
<!-- Node3&#45;&gt;Node13 -->
<g id="edge13_Node000003_Node000013" class="edge">
<title>Node3&#45;&gt;Node13</title>
<g id="a_edge13_Node000003_Node000013"><a xlink:title=" ">
<path fill="none" stroke="#63b8ff" d="M601.06,-223.59C608.22,-216.16 618.41,-205.58 627.07,-196.58"/>
<polygon fill="#63b8ff" stroke="#63b8ff" points="629.58,-199.02 634,-189.39 624.54,-194.16 629.58,-199.02"/>
</a>
</g>
</g>
<!-- Node3&#45;&gt;Node16 -->
<g id="edge16_Node000003_Node000016" class="edge">
<title>Node3&#45;&gt;Node16</title>
<g id="a_edge16_Node000003_Node000016"><a xlink:title=" ">
<path fill="none" stroke="#63b8ff" d="M620.2,-224.44C649.27,-215.63 694.9,-201.78 728.17,-191.69"/>
<polygon fill="#63b8ff" stroke="#63b8ff" points="728.93,-195.12 737.49,-188.86 726.9,-188.42 728.93,-195.12"/>
</a>
</g>
</g>
<!-- Node3&#45;&gt;Node17 -->
<g id="edge19_Node000003_Node000017" class="edge">
<title>Node3&#45;&gt;Node17</title>
<g id="a_edge19_Node000003_Node000017"><a xlink:title=" ">
<path fill="none" stroke="#63b8ff" d="M563.86,-227.47C520.04,-218.87 434.49,-202.07 376.54,-190.69"/>
<polygon fill="#63b8ff" stroke="#63b8ff" points="377.31,-187.28 366.83,-188.78 375.97,-194.15 377.31,-187.28"/>
</a>
</g>
</g>
<!-- Node3&#45;&gt;Node19 -->
<g id="edge24_Node000003_Node000019" class="edge">
<title>Node3&#45;&gt;Node19</title>
<g id="a_edge24_Node000003_Node000019"><a xlink:title=" ">
<path fill="none" stroke="#63b8ff" d="M620.15,-228.06C668.44,-219.6 768.28,-202.09 834.71,-190.45"/>
<polygon fill="#63b8ff" stroke="#63b8ff" points="835.15,-193.92 844.39,-188.75 833.94,-187.03 835.15,-193.92"/>
</a>
</g>
</g>
<!-- Node3&#45;&gt;Node20 -->
<g id="edge27_Node000003_Node000020" class="edge">
<title>Node3&#45;&gt;Node20</title>
<g id="a_edge27_Node000003_Node000020"><a xlink:title=" ">
<path fill="none" stroke="#63b8ff" d="M620.14,-229.62C634.21,-227.93 651.5,-225.86 667,-224 797.25,-208.4 832.46,-204.78 965.51,-188.3"/>
<polygon fill="#63b8ff" stroke="#63b8ff" points="965.55,-191.82 975.04,-187.12 964.69,-184.88 965.55,-191.82"/>
</a>
</g>
</g>
<!-- Node3&#45;&gt;Node21 -->
<g id="edge30_Node000003_Node000021" class="edge">
<title>Node3&#45;&gt;Node21</title>
<g id="a_edge30_Node000003_Node000021"><a xlink:title=" ">
<path fill="none" stroke="#63b8ff" d="M620.11,-229.37C634.17,-227.62 651.47,-225.56 667,-224 859.03,-204.65 910.53,-208.39 1105.71,-188.19"/>
<polygon fill="#63b8ff" stroke="#63b8ff" points="1105.85,-191.7 1115.43,-187.18 1105.12,-184.73 1105.85,-191.7"/>
</a>
</g>
</g>
<!-- Node7 -->
<g id="Node000007" class="node">
<title>Node7</title>
<g id="a_Node000007"><a xlink:title=" ">
<polygon fill="#e0e0e0" stroke="#999999" points="111.75,-132 58.25,-132 58.25,-112 111.75,-112 111.75,-132"/>
<text xml:space="preserve" text-anchor="middle" x="85" y="-118.5" font-family="Helvetica,sans-Serif" font-size="10.00">iostream</text>
</a>
</g>
</g>
<!-- Node6&#45;&gt;Node7 -->
<g id="edge6_Node000006_Node000007" class="edge">
<title>Node6&#45;&gt;Node7</title>
<g id="a_edge6_Node000006_Node000007"><a xlink:title=" ">
<path fill="none" stroke="#63b8ff" d="M142.81,-167.59C132.67,-159.77 118.01,-148.46 105.99,-139.19"/>
<polygon fill="#63b8ff" stroke="#63b8ff" points="108.31,-136.56 98.25,-133.22 104.03,-142.1 108.31,-136.56"/>
</a>
</g>
</g>
<!-- Node6&#45;&gt;Node8 -->
<g id="edge7_Node000006_Node000008" class="edge">
<title>Node6&#45;&gt;Node8</title>
<g id="a_edge7_Node000006_Node000008"><a xlink:title=" ">
<path fill="none" stroke="#63b8ff" d="M131.48,-167.59C109.08,-158.63 75.22,-145.09 50.7,-135.28"/>
<polygon fill="#63b8ff" stroke="#63b8ff" points="52.16,-132.09 41.57,-131.63 49.56,-138.59 52.16,-132.09"/>
</a>
</g>
</g>
<!-- Node6&#45;&gt;Node9 -->
<g id="edge8_Node000006_Node000009" class="edge">
<title>Node6&#45;&gt;Node9</title>
<g id="a_edge8_Node000006_Node000009"><a xlink:title=" ">
<path fill="none" stroke="#63b8ff" d="M183.22,-167.59C211.51,-158.16 255.03,-143.66 284.69,-133.77"/>
<polygon fill="#63b8ff" stroke="#63b8ff" points="285.5,-137.19 293.88,-130.71 283.29,-130.55 285.5,-137.19"/>
</a>
</g>
</g>
<!-- Node10 -->
<g id="Node000010" class="node">
<title>Node10</title>
<g id="a_Node000010"><a xlink:href="DatabaseBackend_8hpp.html" target="_top" xlink:title=" ">
<polygon fill="white" stroke="#666666" points="238.5,-76 123.5,-76 123.5,-56 238.5,-56 238.5,-76"/>
<text xml:space="preserve" text-anchor="middle" x="181" y="-62.5" font-family="Helvetica,sans-Serif" font-size="10.00">DatabaseBackend.hpp</text>
</a>
</g>
</g>
<!-- Node6&#45;&gt;Node10 -->
<g id="edge9_Node000006_Node000010" class="edge">
<title>Node6&#45;&gt;Node10</title>
<g id="a_edge9_Node000006_Node000010"><a xlink:title=" ">
<path fill="none" stroke="#63b8ff" d="M154.44,-167.56C153.94,-154.75 153.92,-131.24 159,-112 161.35,-103.08 165.53,-93.83 169.62,-86.06"/>
<polygon fill="#63b8ff" stroke="#63b8ff" points="172.55,-87.98 174.4,-77.55 166.45,-84.56 172.55,-87.98"/>
</a>
</g>
</g>
<!-- Node12 -->
<g id="Node000012" class="node">
<title>Node12</title>
<g id="a_Node000012"><a xlink:href="RowDTOAdapter_8hpp.html" target="_top" xlink:title=" ">
<polygon fill="white" stroke="#666666" points="277.88,-132 168.12,-132 168.12,-112 277.88,-112 277.88,-132"/>
<text xml:space="preserve" text-anchor="middle" x="223" y="-118.5" font-family="Helvetica,sans-Serif" font-size="10.00">RowDTOAdapter.hpp</text>
</a>
</g>
</g>
<!-- Node6&#45;&gt;Node12 -->
<g id="edge11_Node000006_Node000012" class="edge">
<title>Node6&#45;&gt;Node12</title>
<g id="a_edge11_Node000006_Node000012"><a xlink:title=" ">
<path fill="none" stroke="#63b8ff" d="M166.84,-167.59C176.69,-159.77 190.93,-148.46 202.61,-139.19"/>
<polygon fill="#63b8ff" stroke="#63b8ff" points="204.45,-142.2 210.11,-133.24 200.1,-136.72 204.45,-142.2"/>
</a>
</g>
</g>
<!-- Node11 -->
<g id="Node000011" class="node">
<title>Node11</title>
<g id="a_Node000011"><a xlink:title=" ">
<polygon fill="#e0e0e0" stroke="#999999" points="211.5,-20 150.5,-20 150.5,0 211.5,0 211.5,-20"/>
<text xml:space="preserve" text-anchor="middle" x="181" y="-6.5" font-family="Helvetica,sans-Serif" font-size="10.00">pqxx/pqxx</text>
</a>
</g>
</g>
<!-- Node10&#45;&gt;Node11 -->
<g id="edge10_Node000010_Node000011" class="edge">
<title>Node10&#45;&gt;Node11</title>
<g id="a_edge10_Node000010_Node000011"><a xlink:title=" ">
<path fill="none" stroke="#63b8ff" d="M181,-55.59C181,-49.01 181,-39.96 181,-31.73"/>
<polygon fill="#63b8ff" stroke="#63b8ff" points="184.5,-31.81 181,-21.81 177.5,-31.81 184.5,-31.81"/>
</a>
</g>
</g>
<!-- Node12&#45;&gt;Node10 -->
<g id="edge12_Node000012_Node000010" class="edge">
<title>Node12&#45;&gt;Node10</title>
<g id="a_edge12_Node000012_Node000010"><a xlink:title=" ">
<path fill="none" stroke="#63b8ff" d="M215.68,-111.59C210.02,-104.32 202.01,-94.02 195.11,-85.15"/>
<polygon fill="#63b8ff" stroke="#63b8ff" points="198.06,-83.24 189.16,-77.49 192.54,-87.54 198.06,-83.24"/>
</a>
</g>
</g>
<!-- Node14 -->
<g id="Node000014" class="node">
<title>Node14</title>
<g id="a_Node000014"><a xlink:title=" ">
<polygon fill="#e0e0e0" stroke="#999999" points="887.12,-132 814.88,-132 814.88,-112 887.12,-112 887.12,-132"/>
<text xml:space="preserve" text-anchor="middle" x="851" y="-118.5" font-family="Helvetica,sans-Serif" font-size="10.00">dpp/cluster.h</text>
</a>
</g>
</g>
<!-- Node13&#45;&gt;Node14 -->
<g id="edge14_Node000013_Node000014" class="edge">
<title>Node13&#45;&gt;Node14</title>
<g id="a_edge14_Node000013_Node000014"><a xlink:title=" ">
<path fill="none" stroke="#63b8ff" d="M680.06,-167.59C714.43,-158.63 766.37,-145.08 803.98,-135.27"/>
<polygon fill="#63b8ff" stroke="#63b8ff" points="804.4,-138.77 813.2,-132.86 802.64,-132 804.4,-138.77"/>
</a>
</g>
</g>
<!-- Node15 -->
<g id="Node000015" class="node">
<title>Node15</title>
<g id="a_Node000015"><a xlink:title=" ">
<polygon fill="#e0e0e0" stroke="#999999" points="993,-132 905,-132 905,-112 993,-112 993,-132"/>
<text xml:space="preserve" text-anchor="middle" x="949" y="-118.5" font-family="Helvetica,sans-Serif" font-size="10.00">dpp/dispatcher.h</text>
</a>
</g>
</g>
<!-- Node13&#45;&gt;Node15 -->
<g id="edge15_Node000013_Node000015" class="edge">
<title>Node13&#45;&gt;Node15</title>
<g id="a_edge15_Node000013_Node000015"><a xlink:title=" ">
<path fill="none" stroke="#63b8ff" d="M697.48,-167.53C752.46,-157.8 837.7,-142.71 893.43,-132.84"/>
<polygon fill="#63b8ff" stroke="#63b8ff" points="893.79,-136.33 903.02,-131.14 892.57,-129.44 893.79,-136.33"/>
</a>
</g>
</g>
<!-- Node16&#45;&gt;Node14 -->
<g id="edge17_Node000016_Node000014" class="edge">
<title>Node16&#45;&gt;Node14</title>
<g id="a_edge17_Node000016_Node000014"><a xlink:title=" ">
<path fill="none" stroke="#63b8ff" d="M784.11,-167.59C796,-159.67 813.27,-148.16 827.28,-138.82"/>
<polygon fill="#63b8ff" stroke="#63b8ff" points="829.14,-141.78 835.52,-133.32 825.26,-135.95 829.14,-141.78"/>
</a>
</g>
</g>
<!-- Node16&#45;&gt;Node15 -->
<g id="edge18_Node000016_Node000015" class="edge">
<title>Node16&#45;&gt;Node15</title>
<g id="a_edge18_Node000016_Node000015"><a xlink:title=" ">
<path fill="none" stroke="#63b8ff" d="M801.18,-167.59C830.39,-158.78 874.28,-145.54 906.65,-135.78"/>
<polygon fill="#63b8ff" stroke="#63b8ff" points="907.57,-139.16 916.13,-132.92 905.54,-132.45 907.57,-139.16"/>
</a>
</g>
</g>
<!-- Node17&#45;&gt;Node9 -->
<g id="edge23_Node000017_Node000009" class="edge">
<title>Node17&#45;&gt;Node9</title>
<g id="a_edge23_Node000017_Node000009"><a xlink:title=" ">
<path fill="none" stroke="#63b8ff" d="M317,-167.59C317,-161.01 317,-151.96 317,-143.73"/>
<polygon fill="#63b8ff" stroke="#63b8ff" points="320.5,-143.81 317,-133.81 313.5,-143.81 320.5,-143.81"/>
</a>
</g>
</g>
<!-- Node17&#45;&gt;Node14 -->
<g id="edge21_Node000017_Node000014" class="edge">
<title>Node17&#45;&gt;Node14</title>
<g id="a_edge21_Node000017_Node000014"><a xlink:title=" ">
<path fill="none" stroke="#63b8ff" d="M385.01,-168.98C388.05,-168.65 391.06,-168.32 394,-168 543.18,-151.94 720,-135.17 803.2,-127.42"/>
<polygon fill="#63b8ff" stroke="#63b8ff" points="803.41,-130.91 813.04,-126.5 802.76,-123.94 803.41,-130.91"/>
</a>
</g>
</g>
<!-- Node17&#45;&gt;Node15 -->
<g id="edge22_Node000017_Node000015" class="edge">
<title>Node17&#45;&gt;Node15</title>
<g id="a_edge22_Node000017_Node000015"><a xlink:title=" ">
<path fill="none" stroke="#63b8ff" d="M385,-168.88C388.04,-168.57 391.05,-168.28 394,-168 613,-147.36 671.98,-158.37 893.17,-132.23"/>
<polygon fill="#63b8ff" stroke="#63b8ff" points="893.5,-135.72 903.01,-131.05 892.66,-128.77 893.5,-135.72"/>
</a>
</g>
</g>
<!-- Node18 -->
<g id="Node000018" class="node">
<title>Node18</title>
<g id="a_Node000018"><a xlink:title=" ">
<polygon fill="#e0e0e0" stroke="#999999" points="439.38,-132 356.62,-132 356.62,-112 439.38,-112 439.38,-132"/>
<text xml:space="preserve" text-anchor="middle" x="398" y="-118.5" font-family="Helvetica,sans-Serif" font-size="10.00">appcommand.h</text>
</a>
</g>
</g>
<!-- Node17&#45;&gt;Node18 -->
<g id="edge20_Node000017_Node000018" class="edge">
<title>Node17&#45;&gt;Node18</title>
<g id="a_edge20_Node000017_Node000018"><a xlink:title=" ">
<path fill="none" stroke="#63b8ff" d="M331.11,-167.59C343,-159.67 360.27,-148.16 374.28,-138.82"/>
<polygon fill="#63b8ff" stroke="#63b8ff" points="376.14,-141.78 382.52,-133.32 372.26,-135.95 376.14,-141.78"/>
</a>
</g>
</g>
<!-- Node19&#45;&gt;Node14 -->
<g id="edge25_Node000019_Node000014" class="edge">
<title>Node19&#45;&gt;Node14</title>
<g id="a_edge25_Node000019_Node000014"><a xlink:title=" ">
<path fill="none" stroke="#63b8ff" d="M891.46,-167.59C884.72,-160.16 875.11,-149.58 866.96,-140.58"/>
<polygon fill="#63b8ff" stroke="#63b8ff" points="869.77,-138.47 860.45,-133.42 864.58,-143.18 869.77,-138.47"/>
</a>
</g>
</g>
<!-- Node19&#45;&gt;Node15 -->
<g id="edge26_Node000019_Node000015" class="edge">
<title>Node19&#45;&gt;Node15</title>
<g id="a_edge26_Node000019_Node000015"><a xlink:title=" ">
<path fill="none" stroke="#63b8ff" d="M908.54,-167.59C915.28,-160.16 924.89,-149.58 933.04,-140.58"/>
<polygon fill="#63b8ff" stroke="#63b8ff" points="935.42,-143.18 939.55,-133.42 930.23,-138.47 935.42,-143.18"/>
</a>
</g>
</g>
<!-- Node20&#45;&gt;Node14 -->
<g id="edge28_Node000020_Node000014" class="edge">
<title>Node20&#45;&gt;Node14</title>
<g id="a_edge28_Node000020_Node000014"><a xlink:title=" ">
<path fill="none" stroke="#63b8ff" d="M1005.43,-167.59C974.78,-158.74 928.66,-145.43 894.8,-135.65"/>
<polygon fill="#63b8ff" stroke="#63b8ff" points="895.86,-132.31 885.28,-132.9 893.92,-139.04 895.86,-132.31"/>
</a>
</g>
</g>
<!-- Node20&#45;&gt;Node15 -->
<g id="edge29_Node000020_Node000015" class="edge">
<title>Node20&#45;&gt;Node15</title>
<g id="a_edge29_Node000020_Node000015"><a xlink:title=" ">
<path fill="none" stroke="#63b8ff" d="M1022.5,-167.59C1009.18,-159.51 989.72,-147.71 974.17,-138.27"/>
<polygon fill="#63b8ff" stroke="#63b8ff" points="976.28,-135.46 965.92,-133.26 972.65,-141.44 976.28,-135.46"/>
</a>
</g>
</g>
<!-- Node21&#45;&gt;Node14 -->
<g id="edge31_Node000021_Node000014" class="edge">
<title>Node21&#45;&gt;Node14</title>
<g id="a_edge31_Node000021_Node000014"><a xlink:title=" ">
<path fill="none" stroke="#63b8ff" d="M1116.82,-167.94C1062.08,-159.68 979.36,-146.8 898.24,-132.35"/>
<polygon fill="#63b8ff" stroke="#63b8ff" points="899.28,-128.98 888.82,-130.66 898.04,-135.87 899.28,-128.98"/>
</a>
</g>
</g>
<!-- Node21&#45;&gt;Node15 -->
<g id="edge32_Node000021_Node000015" class="edge">
<title>Node21&#45;&gt;Node15</title>
<g id="a_edge32_Node000021_Node000015"><a xlink:title=" ">
<path fill="none" stroke="#63b8ff" d="M1137.85,-167.53C1099.54,-158.5 1041.68,-144.85 1000.1,-135.05"/>
<polygon fill="#63b8ff" stroke="#63b8ff" points="1001.11,-131.69 990.58,-132.8 999.51,-138.51 1001.11,-131.69"/>
</a>
</g>
</g>
<!-- Node22&#45;&gt;Node14 -->
<g id="edge41_Node000022_Node000014" class="edge">
<title>Node22&#45;&gt;Node14</title>
<g id="a_edge41_Node000022_Node000014"><a xlink:title=" ">
<path fill="none" stroke="#63b8ff" d="M1257.05,-169.58C1254,-169 1250.95,-168.46 1248,-168 1096.3,-144.06 1053.49,-154.91 898.64,-132.26"/>
<polygon fill="#63b8ff" stroke="#63b8ff" points="899.2,-128.8 888.79,-130.79 898.17,-135.73 899.2,-128.8"/>
</a>
</g>
</g>
<!-- Node22&#45;&gt;Node15 -->
<g id="edge42_Node000022_Node000015" class="edge">
<title>Node22&#45;&gt;Node15</title>
<g id="a_edge42_Node000022_Node000015"><a xlink:title=" ">
<path fill="none" stroke="#63b8ff" d="M1257.02,-169.73C1253.98,-169.12 1250.93,-168.53 1248,-168 1163.46,-152.6 1064.78,-138.49 1004.61,-130.32"/>
<polygon fill="#63b8ff" stroke="#63b8ff" points="1005.35,-126.89 994.97,-129.02 1004.41,-133.83 1005.35,-126.89"/>
</a>
</g>
</g>
</g>
</svg>
