<?xml version="1.0" encoding="UTF-8" standalone="no"?>
<!DOCTYPE svg PUBLIC "-//W3C//DTD SVG 1.1//EN"
 "http://www.w3.org/Graphics/SVG/1.1/DTD/svg11.dtd">
<!-- Generated by graphviz version 12.2.1 (0)
 -->
<!-- Title: IGlobalSlashCommand Pages: 1 -->
<svg width="2488pt" height="300pt"
 viewBox="0.00 0.00 2487.88 300.00" xmlns="http://www.w3.org/2000/svg" xmlns:xlink="http://www.w3.org/1999/xlink">
<g id="graph0" class="graph" transform="scale(1 1) rotate(0) translate(4 296)">
<title>IGlobalSlashCommand</title>
<!-- Node1 -->
<g id="Node000001" class="node">
<title>Node1</title>
<g id="a_Node000001"><a xlink:title=" ">
<polygon fill="#999999" stroke="none" points="1284.38,-292 1171.12,-292 1171.12,-208 1284.38,-208 1284.38,-292"/>
<text text-anchor="start" x="1177.5" y="-278.5" font-family="Helvetica,sans-Serif" font-size="10.00">IGlobalSlashCommand</text>
<text text-anchor="start" x="1175.12" y="-262.5" font-family="Helvetica,sans-Serif" font-size="10.00">+</text>
<text text-anchor="start" x="1185.12" y="-262.5" font-family="Helvetica,sans-Serif" font-size="10.00">command_name</text>
<text text-anchor="start" x="1175.12" y="-246.5" font-family="Helvetica,sans-Serif" font-size="10.00">+</text>
<text text-anchor="start" x="1185.12" y="-246.5" font-family="Helvetica,sans-Serif" font-size="10.00">command_description</text>
<text text-anchor="start" x="1175.12" y="-230.5" font-family="Helvetica,sans-Serif" font-size="10.00">+</text>
<text text-anchor="start" x="1185.12" y="-230.5" font-family="Helvetica,sans-Serif" font-size="10.00">command_options</text>
<text text-anchor="start" x="1175.12" y="-214.5" font-family="Helvetica,sans-Serif" font-size="10.00">+</text>
<text text-anchor="start" x="1185.12" y="-214.5" font-family="Helvetica,sans-Serif" font-size="10.00">on_slashcommand()</text>
<polygon fill="#666666" stroke="#666666" points="1171.12,-274 1171.12,-274 1284.38,-274 1284.38,-274 1171.12,-274"/>
<polygon fill="#666666" stroke="#666666" points="1171.12,-226 1171.12,-226 1183.12,-226 1183.12,-226 1171.12,-226"/>
<polygon fill="#666666" stroke="#666666" points="1183.12,-226 1183.12,-226 1284.38,-226 1284.38,-226 1183.12,-226"/>
<polygon fill="none" stroke="#666666" points="1171.12,-208 1171.12,-292 1284.38,-292 1284.38,-208 1171.12,-208"/>
</a>
</g>
</g>
<!-- Node2 -->
<g id="Node000002" class="node">
<title>Node2</title>
<g id="a_Node000002"><a xlink:href="classAddResourcesCommand.html" target="_top" xlink:title=" ">
<polygon fill="white" stroke="none" points="133.5,-120 0,-120 0,-52 133.5,-52 133.5,-120"/>
<text text-anchor="start" x="12" y="-106.5" font-family="Helvetica,sans-Serif" font-size="10.00">AddResourcesCommand</text>
<text text-anchor="start" x="65.25" y="-90.5" font-family="Helvetica,sans-Serif" font-size="10.00"> </text>
<text text-anchor="start" x="4" y="-74.5" font-family="Helvetica,sans-Serif" font-size="10.00">+</text>
<text text-anchor="start" x="14" y="-74.5" font-family="Helvetica,sans-Serif" font-size="10.00">AddResourcesCommand()</text>
<text text-anchor="start" x="4" y="-58.5" font-family="Helvetica,sans-Serif" font-size="10.00">+</text>
<text text-anchor="start" x="14" y="-58.5" font-family="Helvetica,sans-Serif" font-size="10.00">on_slashcommand()</text>
<polygon fill="#666666" stroke="#666666" points="0,-102 0,-102 133.5,-102 133.5,-102 0,-102"/>
<polygon fill="#666666" stroke="#666666" points="0,-86 0,-86 133.5,-86 133.5,-86 0,-86"/>
<polygon fill="none" stroke="#666666" points="0,-52 0,-120 133.5,-120 133.5,-52 0,-52"/>
</a>
</g>
</g>
<!-- Node1&#45;&gt;Node2 -->
<g id="edge1_Node000001_Node000002" class="edge">
<title>Node1&#45;&gt;Node2</title>
<g id="a_edge1_Node000001_Node000002"><a xlink:title=" ">
<path fill="none" stroke="#63b8ff" d="M1160.22,-247.15C937.31,-240.63 233.88,-216.7 142.75,-172 119.47,-160.58 100.11,-138.59 86.76,-119.84"/>
<polygon fill="none" stroke="#63b8ff" points="1159.8,-250.64 1169.9,-247.43 1160,-243.64 1159.8,-250.64"/>
</a>
</g>
</g>
<!-- Node3 -->
<g id="Node000003" class="node">
<title>Node3</title>
<g id="a_Node000003"><a xlink:href="classBlacklistCommand.html" target="_top" xlink:title=" ">
<polygon fill="white" stroke="none" points="258,-120 151.5,-120 151.5,-52 258,-52 258,-120"/>
<text text-anchor="start" x="163.5" y="-106.5" font-family="Helvetica,sans-Serif" font-size="10.00">BlacklistCommand</text>
<text text-anchor="start" x="203.25" y="-90.5" font-family="Helvetica,sans-Serif" font-size="10.00"> </text>
<text text-anchor="start" x="155.5" y="-74.5" font-family="Helvetica,sans-Serif" font-size="10.00">+</text>
<text text-anchor="start" x="165.5" y="-74.5" font-family="Helvetica,sans-Serif" font-size="10.00">BlacklistCommand()</text>
<text text-anchor="start" x="155.5" y="-58.5" font-family="Helvetica,sans-Serif" font-size="10.00">+</text>
<text text-anchor="start" x="165.5" y="-58.5" font-family="Helvetica,sans-Serif" font-size="10.00">on_slashcommand()</text>
<polygon fill="#666666" stroke="#666666" points="151.5,-102 151.5,-102 258,-102 258,-102 151.5,-102"/>
<polygon fill="#666666" stroke="#666666" points="151.5,-86 151.5,-86 258,-86 258,-86 151.5,-86"/>
<polygon fill="none" stroke="#666666" points="151.5,-52 151.5,-120 258,-120 258,-52 151.5,-52"/>
</a>
</g>
</g>
<!-- Node1&#45;&gt;Node3 -->
<g id="edge2_Node000001_Node000003" class="edge">
<title>Node1&#45;&gt;Node3</title>
<g id="a_edge2_Node000001_Node000003"><a xlink:title=" ">
<path fill="none" stroke="#63b8ff" d="M1159.9,-246.82C953.77,-239.75 344.24,-215.38 266.75,-172 245.87,-160.31 230.12,-138.33 219.73,-119.65"/>
<polygon fill="none" stroke="#63b8ff" points="1159.52,-250.31 1169.64,-247.15 1159.76,-243.31 1159.52,-250.31"/>
</a>
</g>
</g>
<!-- Node4 -->
<g id="Node000004" class="node">
<title>Node4</title>
<g id="a_Node000004"><a xlink:href="classChallengeBadgeCommand.html" target="_top" xlink:title=" ">
<polygon fill="white" stroke="none" points="415.88,-136 275.62,-136 275.62,-36 415.88,-36 415.88,-136"/>
<text text-anchor="start" x="287.62" y="-122.5" font-family="Helvetica,sans-Serif" font-size="10.00">ChallengeBadgeCommand</text>
<text text-anchor="start" x="344.25" y="-106.5" font-family="Helvetica,sans-Serif" font-size="10.00"> </text>
<text text-anchor="start" x="279.62" y="-90.5" font-family="Helvetica,sans-Serif" font-size="10.00">+</text>
<text text-anchor="start" x="289.62" y="-90.5" font-family="Helvetica,sans-Serif" font-size="10.00">ChallengeBadgeCommand()</text>
<text text-anchor="start" x="279.62" y="-74.5" font-family="Helvetica,sans-Serif" font-size="10.00">+</text>
<text text-anchor="start" x="289.62" y="-74.5" font-family="Helvetica,sans-Serif" font-size="10.00">on_slashcommand()</text>
<text text-anchor="start" x="279.62" y="-58.5" font-family="Helvetica,sans-Serif" font-size="10.00">+</text>
<text text-anchor="start" x="289.62" y="-58.5" font-family="Helvetica,sans-Serif" font-size="10.00">on_button_click()</text>
<text text-anchor="start" x="279.62" y="-42.5" font-family="Helvetica,sans-Serif" font-size="10.00">+</text>
<text text-anchor="start" x="289.62" y="-42.5" font-family="Helvetica,sans-Serif" font-size="10.00">on_form_submit()</text>
<polygon fill="#666666" stroke="#666666" points="275.62,-118 275.62,-118 415.88,-118 415.88,-118 275.62,-118"/>
<polygon fill="#666666" stroke="#666666" points="275.62,-102 275.62,-102 415.88,-102 415.88,-102 275.62,-102"/>
<polygon fill="none" stroke="#666666" points="275.62,-36 275.62,-136 415.88,-136 415.88,-36 275.62,-36"/>
</a>
</g>
</g>
<!-- Node1&#45;&gt;Node4 -->
<g id="edge3_Node000001_Node000004" class="edge">
<title>Node1&#45;&gt;Node4</title>
<g id="a_edge3_Node000001_Node000004"><a xlink:title=" ">
<path fill="none" stroke="#63b8ff" d="M1159.81,-248.56C990.54,-246.5 554.38,-235.04 425.75,-172 408.64,-163.62 393.32,-149.93 380.76,-135.96"/>
<polygon fill="none" stroke="#63b8ff" points="1159.74,-252.06 1169.78,-248.67 1159.82,-245.06 1159.74,-252.06"/>
</a>
</g>
</g>
<!-- Node5 -->
<g id="Node000005" class="node">
<title>Node5</title>
<g id="a_Node000005"><a xlink:href="classChallengeRoleCommand.html" target="_top" xlink:title=" ">
<polygon fill="white" stroke="none" points="567.12,-136 434.38,-136 434.38,-36 567.12,-36 567.12,-136"/>
<text text-anchor="start" x="446.38" y="-122.5" font-family="Helvetica,sans-Serif" font-size="10.00">ChallengeRoleCommand</text>
<text text-anchor="start" x="499.25" y="-106.5" font-family="Helvetica,sans-Serif" font-size="10.00"> </text>
<text text-anchor="start" x="438.38" y="-90.5" font-family="Helvetica,sans-Serif" font-size="10.00">+</text>
<text text-anchor="start" x="448.38" y="-90.5" font-family="Helvetica,sans-Serif" font-size="10.00">ChallengeRoleCommand()</text>
<text text-anchor="start" x="438.38" y="-74.5" font-family="Helvetica,sans-Serif" font-size="10.00">+</text>
<text text-anchor="start" x="448.38" y="-74.5" font-family="Helvetica,sans-Serif" font-size="10.00">on_slashcommand()</text>
<text text-anchor="start" x="438.38" y="-58.5" font-family="Helvetica,sans-Serif" font-size="10.00">+</text>
<text text-anchor="start" x="448.38" y="-58.5" font-family="Helvetica,sans-Serif" font-size="10.00">on_button_click()</text>
<text text-anchor="start" x="438.38" y="-42.5" font-family="Helvetica,sans-Serif" font-size="10.00">+</text>
<text text-anchor="start" x="448.38" y="-42.5" font-family="Helvetica,sans-Serif" font-size="10.00">on_form_submit()</text>
<polygon fill="#666666" stroke="#666666" points="434.38,-118 434.38,-118 567.12,-118 567.12,-118 434.38,-118"/>
<polygon fill="#666666" stroke="#666666" points="434.38,-102 434.38,-102 567.12,-102 567.12,-102 434.38,-102"/>
<polygon fill="none" stroke="#666666" points="434.38,-36 434.38,-136 567.12,-136 567.12,-36 434.38,-36"/>
</a>
</g>
</g>
<!-- Node1&#45;&gt;Node5 -->
<g id="edge4_Node000001_Node000005" class="edge">
<title>Node1&#45;&gt;Node5</title>
<g id="a_edge4_Node000001_Node000005"><a xlink:title=" ">
<path fill="none" stroke="#63b8ff" d="M1159.82,-247.07C1014,-241.95 676.14,-224.61 575.75,-172 559.36,-163.41 544.9,-149.67 533.15,-135.72"/>
<polygon fill="none" stroke="#63b8ff" points="1159.61,-250.56 1169.72,-247.4 1159.84,-243.57 1159.61,-250.56"/>
</a>
</g>
</g>
<!-- Node6 -->
<g id="Node000006" class="node">
<title>Node6</title>
<g id="a_Node000006"><a xlink:href="classFlipCommand.html" target="_top" xlink:title=" ">
<polygon fill="white" stroke="none" points="690.62,-120 584.88,-120 584.88,-52 690.62,-52 690.62,-120"/>
<text text-anchor="start" x="607.38" y="-106.5" font-family="Helvetica,sans-Serif" font-size="10.00">FlipCommand</text>
<text text-anchor="start" x="636.25" y="-90.5" font-family="Helvetica,sans-Serif" font-size="10.00"> </text>
<text text-anchor="start" x="588.88" y="-74.5" font-family="Helvetica,sans-Serif" font-size="10.00">+</text>
<text text-anchor="start" x="598.88" y="-74.5" font-family="Helvetica,sans-Serif" font-size="10.00">FlipCommand()</text>
<text text-anchor="start" x="588.88" y="-58.5" font-family="Helvetica,sans-Serif" font-size="10.00">+</text>
<text text-anchor="start" x="598.88" y="-58.5" font-family="Helvetica,sans-Serif" font-size="10.00">on_slashcommand()</text>
<polygon fill="#666666" stroke="#666666" points="584.88,-102 584.88,-102 690.62,-102 690.62,-102 584.88,-102"/>
<polygon fill="#666666" stroke="#666666" points="584.88,-86 584.88,-86 690.62,-86 690.62,-86 584.88,-86"/>
<polygon fill="none" stroke="#666666" points="584.88,-52 584.88,-120 690.62,-120 690.62,-52 584.88,-52"/>
</a>
</g>
</g>
<!-- Node1&#45;&gt;Node6 -->
<g id="edge5_Node000001_Node000006" class="edge">
<title>Node1&#45;&gt;Node6</title>
<g id="a_edge5_Node000001_Node000006"><a xlink:title=" ">
<path fill="none" stroke="#63b8ff" d="M1160.01,-245.61C1035.5,-238.33 776,-217.99 699.75,-172 679.42,-159.74 663.75,-138.01 653.25,-119.59"/>
<polygon fill="none" stroke="#63b8ff" points="1159.57,-249.09 1169.76,-246.17 1159.97,-242.1 1159.57,-249.09"/>
</a>
</g>
</g>
<!-- Node7 -->
<g id="Node000007" class="node">
<title>Node7</title>
<g id="a_Node000007"><a xlink:href="classGetResourcesCommand.html" target="_top" xlink:title=" ">
<polygon fill="white" stroke="none" points="840.75,-120 708.75,-120 708.75,-52 840.75,-52 840.75,-120"/>
<text text-anchor="start" x="720.75" y="-106.5" font-family="Helvetica,sans-Serif" font-size="10.00">GetResourcesCommand</text>
<text text-anchor="start" x="773.25" y="-90.5" font-family="Helvetica,sans-Serif" font-size="10.00"> </text>
<text text-anchor="start" x="712.75" y="-74.5" font-family="Helvetica,sans-Serif" font-size="10.00">+</text>
<text text-anchor="start" x="722.75" y="-74.5" font-family="Helvetica,sans-Serif" font-size="10.00">GetResourcesCommand()</text>
<text text-anchor="start" x="712.75" y="-58.5" font-family="Helvetica,sans-Serif" font-size="10.00">+</text>
<text text-anchor="start" x="722.75" y="-58.5" font-family="Helvetica,sans-Serif" font-size="10.00">on_slashcommand()</text>
<polygon fill="#666666" stroke="#666666" points="708.75,-102 708.75,-102 840.75,-102 840.75,-102 708.75,-102"/>
<polygon fill="#666666" stroke="#666666" points="708.75,-86 708.75,-86 840.75,-86 840.75,-86 708.75,-86"/>
<polygon fill="none" stroke="#666666" points="708.75,-52 708.75,-120 840.75,-120 840.75,-52 708.75,-52"/>
</a>
</g>
</g>
<!-- Node1&#45;&gt;Node7 -->
<g id="edge6_Node000001_Node000007" class="edge">
<title>Node1&#45;&gt;Node7</title>
<g id="a_edge6_Node000001_Node000007"><a xlink:title=" ">
<path fill="none" stroke="#63b8ff" d="M1159.98,-247.98C1080.61,-244.02 947.55,-228.57 849.75,-172 827.77,-159.29 808.9,-137.8 795.58,-119.62"/>
<polygon fill="none" stroke="#63b8ff" points="1159.63,-251.47 1169.78,-248.42 1159.95,-244.47 1159.63,-251.47"/>
</a>
</g>
</g>
<!-- Node8 -->
<g id="Node000008" class="node">
<title>Node8</title>
<g id="a_Node000008"><a xlink:href="classHelpCommand.html" target="_top" xlink:title=" ">
<polygon fill="white" stroke="none" points="964.62,-120 858.88,-120 858.88,-52 964.62,-52 964.62,-120"/>
<text text-anchor="start" x="879.12" y="-106.5" font-family="Helvetica,sans-Serif" font-size="10.00">HelpCommand</text>
<text text-anchor="start" x="910.25" y="-90.5" font-family="Helvetica,sans-Serif" font-size="10.00"> </text>
<text text-anchor="start" x="862.88" y="-74.5" font-family="Helvetica,sans-Serif" font-size="10.00">+</text>
<text text-anchor="start" x="872.88" y="-74.5" font-family="Helvetica,sans-Serif" font-size="10.00">HelpCommand()</text>
<text text-anchor="start" x="862.88" y="-58.5" font-family="Helvetica,sans-Serif" font-size="10.00">+</text>
<text text-anchor="start" x="872.88" y="-58.5" font-family="Helvetica,sans-Serif" font-size="10.00">on_slashcommand()</text>
<polygon fill="#666666" stroke="#666666" points="858.88,-102 858.88,-102 964.62,-102 964.62,-102 858.88,-102"/>
<polygon fill="#666666" stroke="#666666" points="858.88,-86 858.88,-86 964.62,-86 964.62,-86 858.88,-86"/>
<polygon fill="none" stroke="#666666" points="858.88,-52 858.88,-120 964.62,-120 964.62,-52 858.88,-52"/>
</a>
</g>
</g>
<!-- Node1&#45;&gt;Node8 -->
<g id="edge7_Node000001_Node000008" class="edge">
<title>Node1&#45;&gt;Node8</title>
<g id="a_edge7_Node000001_Node000008"><a xlink:title=" ">
<path fill="none" stroke="#63b8ff" d="M1159.93,-240.53C1105.53,-231.04 1029.34,-211.48 973.75,-172 954.84,-158.57 939.43,-137.55 928.71,-119.77"/>
<polygon fill="none" stroke="#63b8ff" points="1159.26,-243.96 1169.7,-242.15 1160.41,-237.06 1159.26,-243.96"/>
</a>
</g>
</g>
<!-- Node9 -->
<g id="Node000009" class="node">
<title>Node9</title>
<g id="a_Node000009"><a xlink:href="classInviteCommand.html" target="_top" xlink:title=" ">
<polygon fill="white" stroke="none" points="1088.62,-120 982.88,-120 982.88,-52 1088.62,-52 1088.62,-120"/>
<text text-anchor="start" x="1001.25" y="-106.5" font-family="Helvetica,sans-Serif" font-size="10.00">InviteCommand</text>
<text text-anchor="start" x="1034.25" y="-90.5" font-family="Helvetica,sans-Serif" font-size="10.00"> </text>
<text text-anchor="start" x="986.88" y="-74.5" font-family="Helvetica,sans-Serif" font-size="10.00">+</text>
<text text-anchor="start" x="996.88" y="-74.5" font-family="Helvetica,sans-Serif" font-size="10.00">InviteCommand()</text>
<text text-anchor="start" x="986.88" y="-58.5" font-family="Helvetica,sans-Serif" font-size="10.00">+</text>
<text text-anchor="start" x="996.88" y="-58.5" font-family="Helvetica,sans-Serif" font-size="10.00">on_slashcommand()</text>
<polygon fill="#666666" stroke="#666666" points="982.88,-102 982.88,-102 1088.62,-102 1088.62,-102 982.88,-102"/>
<polygon fill="#666666" stroke="#666666" points="982.88,-86 982.88,-86 1088.62,-86 1088.62,-86 982.88,-86"/>
<polygon fill="none" stroke="#666666" points="982.88,-52 982.88,-120 1088.62,-120 1088.62,-52 982.88,-52"/>
</a>
</g>
</g>
<!-- Node1&#45;&gt;Node9 -->
<g id="edge8_Node000001_Node000009" class="edge">
<title>Node1&#45;&gt;Node9</title>
<g id="a_edge8_Node000001_Node000009"><a xlink:title=" ">
<path fill="none" stroke="#63b8ff" d="M1161.47,-216.64C1139.86,-204.35 1116.6,-189.14 1097.75,-172 1081.12,-156.89 1066.16,-136.68 1055.1,-119.75"/>
<polygon fill="none" stroke="#63b8ff" points="1159.5,-219.55 1169.94,-221.34 1162.9,-213.43 1159.5,-219.55"/>
</a>
</g>
</g>
<!-- Node10 -->
<g id="Node000010" class="node">
<title>Node10</title>
<g id="a_Node000010"><a xlink:href="classLearnCPPCommand.html" target="_top" xlink:title=" ">
<polygon fill="white" stroke="none" points="1220.75,-120 1106.75,-120 1106.75,-52 1220.75,-52 1220.75,-120"/>
<text text-anchor="start" x="1118.75" y="-106.5" font-family="Helvetica,sans-Serif" font-size="10.00">LearnCPPCommand</text>
<text text-anchor="start" x="1162.25" y="-90.5" font-family="Helvetica,sans-Serif" font-size="10.00"> </text>
<text text-anchor="start" x="1110.75" y="-74.5" font-family="Helvetica,sans-Serif" font-size="10.00">+</text>
<text text-anchor="start" x="1120.75" y="-74.5" font-family="Helvetica,sans-Serif" font-size="10.00">LearnCPPCommand()</text>
<text text-anchor="start" x="1110.75" y="-58.5" font-family="Helvetica,sans-Serif" font-size="10.00">+</text>
<text text-anchor="start" x="1120.75" y="-58.5" font-family="Helvetica,sans-Serif" font-size="10.00">on_slashcommand()</text>
<polygon fill="#666666" stroke="#666666" points="1106.75,-102 1106.75,-102 1220.75,-102 1220.75,-102 1106.75,-102"/>
<polygon fill="#666666" stroke="#666666" points="1106.75,-86 1106.75,-86 1220.75,-86 1220.75,-86 1106.75,-86"/>
<polygon fill="none" stroke="#666666" points="1106.75,-52 1106.75,-120 1220.75,-120 1220.75,-52 1106.75,-52"/>
</a>
</g>
</g>
<!-- Node1&#45;&gt;Node10 -->
<g id="edge9_Node000001_Node000010" class="edge">
<title>Node1&#45;&gt;Node10</title>
<g id="a_edge9_Node000001_Node000010"><a xlink:title=" ">
<path fill="none" stroke="#63b8ff" d="M1207.42,-197.55C1197.39,-172.15 1185.58,-142.26 1176.78,-119.97"/>
<polygon fill="none" stroke="#63b8ff" points="1204.11,-198.7 1211.04,-206.71 1210.62,-196.13 1204.11,-198.7"/>
</a>
</g>
</g>
<!-- Node11 -->
<g id="Node000011" class="node">
<title>Node11</title>
<g id="a_Node000011"><a xlink:href="classProfileCommand.html" target="_top" xlink:title=" ">
<polygon fill="white" stroke="none" points="1344.62,-120 1238.88,-120 1238.88,-52 1344.62,-52 1344.62,-120"/>
<text text-anchor="start" x="1255.38" y="-106.5" font-family="Helvetica,sans-Serif" font-size="10.00">ProfileCommand</text>
<text text-anchor="start" x="1290.25" y="-90.5" font-family="Helvetica,sans-Serif" font-size="10.00"> </text>
<text text-anchor="start" x="1242.88" y="-74.5" font-family="Helvetica,sans-Serif" font-size="10.00">+</text>
<text text-anchor="start" x="1252.88" y="-74.5" font-family="Helvetica,sans-Serif" font-size="10.00">ProfileCommand()</text>
<text text-anchor="start" x="1242.88" y="-58.5" font-family="Helvetica,sans-Serif" font-size="10.00">+</text>
<text text-anchor="start" x="1252.88" y="-58.5" font-family="Helvetica,sans-Serif" font-size="10.00">on_slashcommand()</text>
<polygon fill="#666666" stroke="#666666" points="1238.88,-102 1238.88,-102 1344.62,-102 1344.62,-102 1238.88,-102"/>
<polygon fill="#666666" stroke="#666666" points="1238.88,-86 1238.88,-86 1344.62,-86 1344.62,-86 1238.88,-86"/>
<polygon fill="none" stroke="#666666" points="1238.88,-52 1238.88,-120 1344.62,-120 1344.62,-52 1238.88,-52"/>
</a>
</g>
</g>
<!-- Node1&#45;&gt;Node11 -->
<g id="edge10_Node000001_Node000011" class="edge">
<title>Node1&#45;&gt;Node11</title>
<g id="a_edge10_Node000001_Node000011"><a xlink:title=" ">
<path fill="none" stroke="#63b8ff" d="M1248.08,-197.55C1258.11,-172.15 1269.92,-142.26 1278.72,-119.97"/>
<polygon fill="none" stroke="#63b8ff" points="1244.88,-196.13 1244.46,-206.71 1251.39,-198.7 1244.88,-196.13"/>
</a>
</g>
</g>
<!-- Node12 -->
<g id="Node000012" class="node">
<title>Node12</title>
<g id="a_Node000012"><a xlink:href="classReactionRoles.html" target="_top" xlink:title=" ">
<polygon fill="white" stroke="none" points="1476.38,-148 1363.12,-148 1363.12,-24 1476.38,-24 1476.38,-148"/>
<text text-anchor="start" x="1387.5" y="-134.5" font-family="Helvetica,sans-Serif" font-size="10.00">ReactionRoles</text>
<text text-anchor="start" x="1418.25" y="-118.5" font-family="Helvetica,sans-Serif" font-size="10.00"> </text>
<text text-anchor="start" x="1367.12" y="-102.5" font-family="Helvetica,sans-Serif" font-size="10.00">+</text>
<text text-anchor="start" x="1377.12" y="-102.5" font-family="Helvetica,sans-Serif" font-size="10.00">ReactionRoles()</text>
<text text-anchor="start" x="1367.12" y="-86.5" font-family="Helvetica,sans-Serif" font-size="10.00">+</text>
<text text-anchor="start" x="1377.12" y="-86.5" font-family="Helvetica,sans-Serif" font-size="10.00">on_slashcommand()</text>
<text text-anchor="start" x="1367.12" y="-70.5" font-family="Helvetica,sans-Serif" font-size="10.00">+</text>
<text text-anchor="start" x="1377.12" y="-70.5" font-family="Helvetica,sans-Serif" font-size="10.00">on_message_reaction</text>
<text text-anchor="start" x="1377.12" y="-58.5" font-family="Helvetica,sans-Serif" font-size="10.00">_add()</text>
<text text-anchor="start" x="1367.12" y="-42.5" font-family="Helvetica,sans-Serif" font-size="10.00">+</text>
<text text-anchor="start" x="1377.12" y="-42.5" font-family="Helvetica,sans-Serif" font-size="10.00">on_message_reaction</text>
<text text-anchor="start" x="1377.12" y="-30.5" font-family="Helvetica,sans-Serif" font-size="10.00">_remove()</text>
<polygon fill="#666666" stroke="#666666" points="1363.12,-130 1363.12,-130 1476.38,-130 1476.38,-130 1363.12,-130"/>
<polygon fill="#666666" stroke="#666666" points="1363.12,-114 1363.12,-114 1476.38,-114 1476.38,-114 1363.12,-114"/>
<polygon fill="none" stroke="#666666" points="1363.12,-24 1363.12,-148 1476.38,-148 1476.38,-24 1363.12,-24"/>
</a>
</g>
</g>
<!-- Node1&#45;&gt;Node12 -->
<g id="edge11_Node000001_Node000012" class="edge">
<title>Node1&#45;&gt;Node12</title>
<g id="a_edge11_Node000001_Node000012"><a xlink:title=" ">
<path fill="none" stroke="#63b8ff" d="M1293.89,-214.69C1314.18,-202.61 1335.85,-188.01 1353.75,-172 1361.83,-164.78 1369.63,-156.46 1376.88,-147.93"/>
<polygon fill="none" stroke="#63b8ff" points="1292.25,-211.59 1285.38,-219.65 1295.78,-217.64 1292.25,-211.59"/>
</a>
</g>
</g>
<!-- Node13 -->
<g id="Node000013" class="node">
<title>Node13</title>
<g id="a_Node000013"><a xlink:href="classReminderCommand.html" target="_top" xlink:title=" ">
<polygon fill="white" stroke="none" points="1605.25,-120 1494.25,-120 1494.25,-52 1605.25,-52 1605.25,-120"/>
<text text-anchor="start" x="1506.25" y="-106.5" font-family="Helvetica,sans-Serif" font-size="10.00">ReminderCommand</text>
<text text-anchor="start" x="1548.25" y="-90.5" font-family="Helvetica,sans-Serif" font-size="10.00"> </text>
<text text-anchor="start" x="1498.25" y="-74.5" font-family="Helvetica,sans-Serif" font-size="10.00">+</text>
<text text-anchor="start" x="1508.25" y="-74.5" font-family="Helvetica,sans-Serif" font-size="10.00">ReminderCommand()</text>
<text text-anchor="start" x="1498.25" y="-58.5" font-family="Helvetica,sans-Serif" font-size="10.00">+</text>
<text text-anchor="start" x="1508.25" y="-58.5" font-family="Helvetica,sans-Serif" font-size="10.00">on_slashcommand()</text>
<polygon fill="#666666" stroke="#666666" points="1494.25,-102 1494.25,-102 1605.25,-102 1605.25,-102 1494.25,-102"/>
<polygon fill="#666666" stroke="#666666" points="1494.25,-86 1494.25,-86 1605.25,-86 1605.25,-86 1494.25,-86"/>
<polygon fill="none" stroke="#666666" points="1494.25,-52 1494.25,-120 1605.25,-120 1605.25,-52 1494.25,-52"/>
</a>
</g>
</g>
<!-- Node1&#45;&gt;Node13 -->
<g id="edge12_Node000001_Node000013" class="edge">
<title>Node1&#45;&gt;Node13</title>
<g id="a_edge12_Node000001_Node000013"><a xlink:title=" ">
<path fill="none" stroke="#63b8ff" d="M1295.34,-240.73C1350.57,-231.33 1428.58,-211.77 1485.75,-172 1505.01,-158.6 1520.91,-137.58 1532.05,-119.79"/>
<polygon fill="none" stroke="#63b8ff" points="1295.06,-237.23 1285.76,-242.29 1296.19,-244.14 1295.06,-237.23"/>
</a>
</g>
</g>
<!-- Node14 -->
<g id="Node000014" class="node">
<title>Node14</title>
<g id="a_Node000014"><a xlink:href="classRemoveNotificationCommand.html" target="_top" xlink:title=" ">
<polygon fill="white" stroke="none" points="1778.38,-120 1623.12,-120 1623.12,-52 1778.38,-52 1778.38,-120"/>
<text text-anchor="start" x="1635.12" y="-106.5" font-family="Helvetica,sans-Serif" font-size="10.00">RemoveNotificationCommand</text>
<text text-anchor="start" x="1699.25" y="-90.5" font-family="Helvetica,sans-Serif" font-size="10.00"> </text>
<text text-anchor="start" x="1627.12" y="-74.5" font-family="Helvetica,sans-Serif" font-size="10.00">+</text>
<text text-anchor="start" x="1637.12" y="-74.5" font-family="Helvetica,sans-Serif" font-size="10.00">RemoveNotificationCommand()</text>
<text text-anchor="start" x="1627.12" y="-58.5" font-family="Helvetica,sans-Serif" font-size="10.00">+</text>
<text text-anchor="start" x="1637.12" y="-58.5" font-family="Helvetica,sans-Serif" font-size="10.00">on_slashcommand()</text>
<polygon fill="#666666" stroke="#666666" points="1623.12,-102 1623.12,-102 1778.38,-102 1778.38,-102 1623.12,-102"/>
<polygon fill="#666666" stroke="#666666" points="1623.12,-86 1623.12,-86 1778.38,-86 1778.38,-86 1623.12,-86"/>
<polygon fill="none" stroke="#666666" points="1623.12,-52 1623.12,-120 1778.38,-120 1778.38,-52 1623.12,-52"/>
</a>
</g>
</g>
<!-- Node1&#45;&gt;Node14 -->
<g id="edge13_Node000001_Node000014" class="edge">
<title>Node1&#45;&gt;Node14</title>
<g id="a_edge13_Node000001_Node000014"><a xlink:title=" ">
<path fill="none" stroke="#63b8ff" d="M1295.77,-247.19C1376.3,-242.48 1512.38,-226.34 1614.75,-172 1638.67,-159.3 1660.32,-137.82 1675.91,-119.63"/>
<polygon fill="none" stroke="#63b8ff" points="1295.61,-243.69 1285.81,-247.72 1295.99,-250.68 1295.61,-243.69"/>
</a>
</g>
</g>
<!-- Node15 -->
<g id="Node000015" class="node">
<title>Node15</title>
<g id="a_Node000015"><a xlink:href="classRemovePortalCommand.html" target="_top" xlink:title=" ">
<polygon fill="white" stroke="none" points="1927.38,-120 1796.12,-120 1796.12,-52 1927.38,-52 1927.38,-120"/>
<text text-anchor="start" x="1808.12" y="-106.5" font-family="Helvetica,sans-Serif" font-size="10.00">RemovePortalCommand</text>
<text text-anchor="start" x="1860.25" y="-90.5" font-family="Helvetica,sans-Serif" font-size="10.00"> </text>
<text text-anchor="start" x="1800.12" y="-74.5" font-family="Helvetica,sans-Serif" font-size="10.00">+</text>
<text text-anchor="start" x="1810.12" y="-74.5" font-family="Helvetica,sans-Serif" font-size="10.00">RemovePortalCommand()</text>
<text text-anchor="start" x="1800.12" y="-58.5" font-family="Helvetica,sans-Serif" font-size="10.00">+</text>
<text text-anchor="start" x="1810.12" y="-58.5" font-family="Helvetica,sans-Serif" font-size="10.00">on_slashcommand()</text>
<polygon fill="#666666" stroke="#666666" points="1796.12,-102 1796.12,-102 1927.38,-102 1927.38,-102 1796.12,-102"/>
<polygon fill="#666666" stroke="#666666" points="1796.12,-86 1796.12,-86 1927.38,-86 1927.38,-86 1796.12,-86"/>
<polygon fill="none" stroke="#666666" points="1796.12,-52 1796.12,-120 1927.38,-120 1927.38,-52 1796.12,-52"/>
</a>
</g>
</g>
<!-- Node1&#45;&gt;Node15 -->
<g id="edge14_Node000001_Node000015" class="edge">
<title>Node1&#45;&gt;Node15</title>
<g id="a_edge14_Node000001_Node000015"><a xlink:title=" ">
<path fill="none" stroke="#63b8ff" d="M1295.36,-245.62C1425.19,-238.18 1703.95,-217.3 1787.75,-172 1810.13,-159.9 1828.86,-138.17 1841.88,-119.71"/>
<polygon fill="none" stroke="#63b8ff" points="1295.32,-242.12 1285.53,-246.17 1295.72,-249.11 1295.32,-242.12"/>
</a>
</g>
</g>
<!-- Node16 -->
<g id="Node000016" class="node">
<title>Node16</title>
<g id="a_Node000016"><a xlink:href="classRollCommand.html" target="_top" xlink:title=" ">
<polygon fill="white" stroke="none" points="2051.62,-120 1945.88,-120 1945.88,-52 2051.62,-52 2051.62,-120"/>
<text text-anchor="start" x="1967.62" y="-106.5" font-family="Helvetica,sans-Serif" font-size="10.00">RollCommand</text>
<text text-anchor="start" x="1997.25" y="-90.5" font-family="Helvetica,sans-Serif" font-size="10.00"> </text>
<text text-anchor="start" x="1949.88" y="-74.5" font-family="Helvetica,sans-Serif" font-size="10.00">+</text>
<text text-anchor="start" x="1959.88" y="-74.5" font-family="Helvetica,sans-Serif" font-size="10.00">RollCommand()</text>
<text text-anchor="start" x="1949.88" y="-58.5" font-family="Helvetica,sans-Serif" font-size="10.00">+</text>
<text text-anchor="start" x="1959.88" y="-58.5" font-family="Helvetica,sans-Serif" font-size="10.00">on_slashcommand()</text>
<polygon fill="#666666" stroke="#666666" points="1945.88,-102 1945.88,-102 2051.62,-102 2051.62,-102 1945.88,-102"/>
<polygon fill="#666666" stroke="#666666" points="1945.88,-86 1945.88,-86 2051.62,-86 2051.62,-86 1945.88,-86"/>
<polygon fill="none" stroke="#666666" points="1945.88,-52 1945.88,-120 2051.62,-120 2051.62,-52 1945.88,-52"/>
</a>
</g>
</g>
<!-- Node1&#45;&gt;Node16 -->
<g id="edge15_Node000001_Node000016" class="edge">
<title>Node1&#45;&gt;Node16</title>
<g id="a_edge15_Node000001_Node000016"><a xlink:title=" ">
<path fill="none" stroke="#63b8ff" d="M1295.6,-248.51C1451.22,-246.31 1828.73,-234.48 1936.75,-172 1957.3,-160.11 1972.97,-138.38 1983.41,-119.86"/>
<polygon fill="none" stroke="#63b8ff" points="1295.81,-245.01 1285.86,-248.64 1295.9,-252.01 1295.81,-245.01"/>
</a>
</g>
</g>
<!-- Node17 -->
<g id="Node000017" class="node">
<title>Node17</title>
<g id="a_Node000017"><a xlink:href="classServerDetails.html" target="_top" xlink:title=" ">
<polygon fill="white" stroke="none" points="2175.62,-120 2069.88,-120 2069.88,-52 2175.62,-52 2175.62,-120"/>
<text text-anchor="start" x="2093.12" y="-106.5" font-family="Helvetica,sans-Serif" font-size="10.00">ServerDetails</text>
<text text-anchor="start" x="2121.25" y="-90.5" font-family="Helvetica,sans-Serif" font-size="10.00"> </text>
<text text-anchor="start" x="2073.88" y="-74.5" font-family="Helvetica,sans-Serif" font-size="10.00">+</text>
<text text-anchor="start" x="2083.88" y="-74.5" font-family="Helvetica,sans-Serif" font-size="10.00">ServerDetails()</text>
<text text-anchor="start" x="2073.88" y="-58.5" font-family="Helvetica,sans-Serif" font-size="10.00">+</text>
<text text-anchor="start" x="2083.88" y="-58.5" font-family="Helvetica,sans-Serif" font-size="10.00">on_slashcommand()</text>
<polygon fill="#666666" stroke="#666666" points="2069.88,-102 2069.88,-102 2175.62,-102 2175.62,-102 2069.88,-102"/>
<polygon fill="#666666" stroke="#666666" points="2069.88,-86 2069.88,-86 2175.62,-86 2175.62,-86 2069.88,-86"/>
<polygon fill="none" stroke="#666666" points="2069.88,-52 2069.88,-120 2175.62,-120 2175.62,-52 2069.88,-52"/>
</a>
</g>
</g>
<!-- Node1&#45;&gt;Node17 -->
<g id="edge16_Node000001_Node000017" class="edge">
<title>Node1&#45;&gt;Node17</title>
<g id="a_edge16_Node000001_Node000017"><a xlink:title=" ">
<path fill="none" stroke="#63b8ff" d="M1295.48,-249.79C1470.02,-250.72 1930.59,-245.9 2060.75,-172 2081.4,-160.28 2097.06,-138.54 2107.48,-119.98"/>
<polygon fill="none" stroke="#63b8ff" points="1295.69,-246.29 1285.67,-249.73 1295.64,-253.29 1295.69,-246.29"/>
</a>
</g>
</g>
<!-- Node18 -->
<g id="Node000018" class="node">
<title>Node18</title>
<g id="a_Node000018"><a xlink:href="classSetNotificationCommand.html" target="_top" xlink:title=" ">
<polygon fill="white" stroke="none" points="2327.5,-128 2194,-128 2194,-44 2327.5,-44 2327.5,-128"/>
<text text-anchor="start" x="2206" y="-114.5" font-family="Helvetica,sans-Serif" font-size="10.00">SetNotificationCommand</text>
<text text-anchor="start" x="2259.25" y="-98.5" font-family="Helvetica,sans-Serif" font-size="10.00"> </text>
<text text-anchor="start" x="2198" y="-82.5" font-family="Helvetica,sans-Serif" font-size="10.00">+</text>
<text text-anchor="start" x="2208" y="-82.5" font-family="Helvetica,sans-Serif" font-size="10.00">SetNotificationCommand()</text>
<text text-anchor="start" x="2198" y="-66.5" font-family="Helvetica,sans-Serif" font-size="10.00">+</text>
<text text-anchor="start" x="2208" y="-66.5" font-family="Helvetica,sans-Serif" font-size="10.00">on_slashcommand()</text>
<text text-anchor="start" x="2198" y="-50.5" font-family="Helvetica,sans-Serif" font-size="10.00">+</text>
<text text-anchor="start" x="2208" y="-50.5" font-family="Helvetica,sans-Serif" font-size="10.00">on_ready()</text>
<polygon fill="#666666" stroke="#666666" points="2194,-110 2194,-110 2327.5,-110 2327.5,-110 2194,-110"/>
<polygon fill="#666666" stroke="#666666" points="2194,-94 2194,-94 2327.5,-94 2327.5,-94 2194,-94"/>
<polygon fill="none" stroke="#666666" points="2194,-44 2194,-128 2327.5,-128 2327.5,-44 2194,-44"/>
</a>
</g>
</g>
<!-- Node1&#45;&gt;Node18 -->
<g id="edge17_Node000001_Node000018" class="edge">
<title>Node1&#45;&gt;Node18</title>
<g id="a_edge17_Node000001_Node000018"><a xlink:title=" ">
<path fill="none" stroke="#63b8ff" d="M1295.8,-246.44C1501.19,-238.31 2105.62,-211.28 2184.75,-172 2204.79,-162.05 2221.94,-144.33 2234.86,-127.63"/>
<polygon fill="none" stroke="#63b8ff" points="1295.67,-242.94 1285.81,-246.83 1295.94,-249.94 1295.67,-242.94"/>
</a>
</g>
</g>
<!-- Node19 -->
<g id="Node000019" class="node">
<title>Node19</title>
<g id="a_Node000019"><a xlink:href="classSetPortalCommand.html" target="_top" xlink:title=" ">
<polygon fill="white" stroke="none" points="2479.88,-172 2345.62,-172 2345.62,0 2479.88,0 2479.88,-172"/>
<text text-anchor="start" x="2370" y="-158.5" font-family="Helvetica,sans-Serif" font-size="10.00">SetPortalCommand</text>
<text text-anchor="start" x="2411.25" y="-142.5" font-family="Helvetica,sans-Serif" font-size="10.00"> </text>
<text text-anchor="start" x="2349.62" y="-126.5" font-family="Helvetica,sans-Serif" font-size="10.00">+</text>
<text text-anchor="start" x="2359.62" y="-126.5" font-family="Helvetica,sans-Serif" font-size="10.00">SetPortalCommand()</text>
<text text-anchor="start" x="2349.62" y="-110.5" font-family="Helvetica,sans-Serif" font-size="10.00">+</text>
<text text-anchor="start" x="2359.62" y="-110.5" font-family="Helvetica,sans-Serif" font-size="10.00">on_slashcommand()</text>
<text text-anchor="start" x="2349.62" y="-94.5" font-family="Helvetica,sans-Serif" font-size="10.00">+</text>
<text text-anchor="start" x="2359.62" y="-94.5" font-family="Helvetica,sans-Serif" font-size="10.00">on_message_create()</text>
<text text-anchor="start" x="2349.62" y="-78.5" font-family="Helvetica,sans-Serif" font-size="10.00">+</text>
<text text-anchor="start" x="2359.62" y="-78.5" font-family="Helvetica,sans-Serif" font-size="10.00">on_message_delete()</text>
<text text-anchor="start" x="2349.62" y="-62.5" font-family="Helvetica,sans-Serif" font-size="10.00">+</text>
<text text-anchor="start" x="2359.62" y="-62.5" font-family="Helvetica,sans-Serif" font-size="10.00">on_message_delete_bulk()</text>
<text text-anchor="start" x="2349.62" y="-46.5" font-family="Helvetica,sans-Serif" font-size="10.00">+</text>
<text text-anchor="start" x="2359.62" y="-46.5" font-family="Helvetica,sans-Serif" font-size="10.00">on_message_reaction</text>
<text text-anchor="start" x="2359.62" y="-34.5" font-family="Helvetica,sans-Serif" font-size="10.00">_add()</text>
<text text-anchor="start" x="2349.62" y="-18.5" font-family="Helvetica,sans-Serif" font-size="10.00">+</text>
<text text-anchor="start" x="2359.62" y="-18.5" font-family="Helvetica,sans-Serif" font-size="10.00">on_message_reaction</text>
<text text-anchor="start" x="2359.62" y="-6.5" font-family="Helvetica,sans-Serif" font-size="10.00">_remove()</text>
<polygon fill="#666666" stroke="#666666" points="2345.62,-154 2345.62,-154 2479.88,-154 2479.88,-154 2345.62,-154"/>
<polygon fill="#666666" stroke="#666666" points="2345.62,-138 2345.62,-138 2479.88,-138 2479.88,-138 2345.62,-138"/>
<polygon fill="none" stroke="#666666" points="2345.62,0 2345.62,-172 2479.88,-172 2479.88,0 2345.62,0"/>
</a>
</g>
</g>
<!-- Node1&#45;&gt;Node19 -->
<g id="edge18_Node000001_Node000019" class="edge">
<title>Node1&#45;&gt;Node19</title>
<g id="a_edge18_Node000001_Node000019"><a xlink:title=" ">
<path fill="none" stroke="#63b8ff" d="M1295.6,-247.25C1522.14,-241 2243.42,-217.7 2336.75,-172 2339.86,-170.48 2342.9,-168.76 2345.87,-166.9"/>
<polygon fill="none" stroke="#63b8ff" points="1295.65,-243.75 1285.75,-247.52 1295.85,-250.75 1295.65,-243.75"/>
</a>
</g>
</g>
</g>
</svg>
