<?xml version="1.0" encoding="UTF-8" standalone="no"?>
<!DOCTYPE svg PUBLIC "-//W3C//DTD SVG 1.1//EN"
 "http://www.w3.org/Graphics/SVG/1.1/DTD/svg11.dtd">
<!-- Generated by graphviz version 13.0.1 (0)
 -->
<!-- Title: Bot Pages: 1 -->
<svg width="1071pt" height="294pt"
 viewBox="0.00 0.00 1071.00 294.00" xmlns="http://www.w3.org/2000/svg" xmlns:xlink="http://www.w3.org/1999/xlink">
<g id="graph0" class="graph" transform="scale(1 1) rotate(0) translate(4 290)">
<title>Bot</title>
<!-- Node1 -->
<g id="Node000001" class="node">
<title>Node1</title>
<g id="a_Node000001"><a xlink:title=" ">
<polygon fill="#999999" stroke="none" points="548.75,-180 416,-180 416,0 548.75,0 548.75,-180"/>
<text xml:space="preserve" text-anchor="start" x="474.88" y="-166.5" font-family="Helvetica,sans-Serif" font-size="10.00">Bot</text>
<text xml:space="preserve" text-anchor="start" x="480.88" y="-150.5" font-family="Helvetica,sans-Serif" font-size="10.00"> </text>
<text xml:space="preserve" text-anchor="start" x="420" y="-134.5" font-family="Helvetica,sans-Serif" font-size="10.00">+</text>
<text xml:space="preserve" text-anchor="start" x="430" y="-134.5" font-family="Helvetica,sans-Serif" font-size="10.00">init()</text>
<text xml:space="preserve" text-anchor="start" x="420" y="-118.5" font-family="Helvetica,sans-Serif" font-size="10.00">+</text>
<text xml:space="preserve" text-anchor="start" x="430" y="-118.5" font-family="Helvetica,sans-Serif" font-size="10.00">add_slash_command()</text>
<text xml:space="preserve" text-anchor="start" x="420" y="-102.5" font-family="Helvetica,sans-Serif" font-size="10.00">+</text>
<text xml:space="preserve" text-anchor="start" x="430" y="-102.5" font-family="Helvetica,sans-Serif" font-size="10.00">add_button_command()</text>
<text xml:space="preserve" text-anchor="start" x="420" y="-86.5" font-family="Helvetica,sans-Serif" font-size="10.00">+</text>
<text xml:space="preserve" text-anchor="start" x="430" y="-86.5" font-family="Helvetica,sans-Serif" font-size="10.00">add_form_command()</text>
<text xml:space="preserve" text-anchor="start" x="420" y="-70.5" font-family="Helvetica,sans-Serif" font-size="10.00">+</text>
<text xml:space="preserve" text-anchor="start" x="430" y="-70.5" font-family="Helvetica,sans-Serif" font-size="10.00">add_member_command()</text>
<text xml:space="preserve" text-anchor="start" x="420" y="-54.5" font-family="Helvetica,sans-Serif" font-size="10.00">+</text>
<text xml:space="preserve" text-anchor="start" x="430" y="-54.5" font-family="Helvetica,sans-Serif" font-size="10.00">add_message_command()</text>
<text xml:space="preserve" text-anchor="start" x="420" y="-38.5" font-family="Helvetica,sans-Serif" font-size="10.00">+</text>
<text xml:space="preserve" text-anchor="start" x="430" y="-38.5" font-family="Helvetica,sans-Serif" font-size="10.00">add_reaction_command()</text>
<text xml:space="preserve" text-anchor="start" x="420" y="-22.5" font-family="Helvetica,sans-Serif" font-size="10.00">+</text>
<text xml:space="preserve" text-anchor="start" x="430" y="-22.5" font-family="Helvetica,sans-Serif" font-size="10.00">add_ready_command()</text>
<text xml:space="preserve" text-anchor="start" x="420" y="-6.5" font-family="Helvetica,sans-Serif" font-size="10.00">+</text>
<text xml:space="preserve" text-anchor="start" x="430" y="-6.5" font-family="Helvetica,sans-Serif" font-size="10.00">run()</text>
<polygon fill="#666666" stroke="#666666" points="416,-162 416,-162 548.75,-162 548.75,-162 416,-162"/>
<polygon fill="#666666" stroke="#666666" points="416,-146 416,-146 548.75,-146 548.75,-146 416,-146"/>
<polygon fill="none" stroke="#666666" points="416,0 416,-180 548.75,-180 548.75,0 416,0"/>
</a>
</g>
</g>
<!-- Node2 -->
<g id="Node000002" class="node">
<title>Node2</title>
<g id="a_Node000002"><a xlink:title=" ">
<polygon fill="white" stroke="none" points="56.75,-286 0,-286 0,-234 56.75,-234 56.75,-286"/>
<text xml:space="preserve" text-anchor="start" x="4" y="-272.5" font-family="Helvetica,sans-Serif" font-size="10.00">static ctx_t</text>
<text xml:space="preserve" text-anchor="start" x="26.88" y="-256.5" font-family="Helvetica,sans-Serif" font-size="10.00"> </text>
<text xml:space="preserve" text-anchor="start" x="26.88" y="-240.5" font-family="Helvetica,sans-Serif" font-size="10.00"> </text>
<polygon fill="#666666" stroke="#666666" points="0,-268 0,-268 56.75,-268 56.75,-268 0,-268"/>
<polygon fill="#666666" stroke="#666666" points="0,-252 0,-252 56.75,-252 56.75,-252 0,-252"/>
<polygon fill="none" stroke="#666666" points="0,-234 0,-286 56.75,-286 56.75,-234 0,-234"/>
</a>
</g>
</g>
<!-- Node2&#45;&gt;Node1 -->
<g id="edge1_Node000001_Node000002" class="edge">
<title>Node2&#45;&gt;Node1</title>
<g id="a_edge1_Node000001_Node000002"><a xlink:title=" ">
<path fill="none" stroke="#63b8ff" d="M56.62,-238.87C59.52,-237.13 62.47,-235.47 65.38,-234 108.1,-212.43 121.65,-213.69 166.88,-198 247.6,-170 340.22,-138.68 404.13,-117.2"/>
<polygon fill="none" stroke="#63b8ff" points="403.88,-117.28 408.3,-111.58 415.26,-113.46 410.85,-119.16 403.88,-117.28"/>
</a>
</g>
<text xml:space="preserve" text-anchor="start" x="169.88" y="-203.5" font-family="Helvetica,sans-Serif" font-size="10.00" fill="grey">+ctx</text>
</g>
<!-- Node3 -->
<g id="Node000003" class="node">
<title>Node3</title>
<g id="a_Node000003"><a xlink:title=" ">
<polygon fill="white" stroke="none" points="198.12,-286 74.62,-286 74.62,-234 198.12,-234 198.12,-286"/>
<text xml:space="preserve" text-anchor="start" x="78.62" y="-272.5" font-family="Helvetica,sans-Serif" font-size="10.00">static button_commands_t</text>
<text xml:space="preserve" text-anchor="start" x="134.88" y="-256.5" font-family="Helvetica,sans-Serif" font-size="10.00"> </text>
<text xml:space="preserve" text-anchor="start" x="134.88" y="-240.5" font-family="Helvetica,sans-Serif" font-size="10.00"> </text>
<polygon fill="#666666" stroke="#666666" points="74.62,-268 74.62,-268 198.12,-268 198.12,-268 74.62,-268"/>
<polygon fill="#666666" stroke="#666666" points="74.62,-252 74.62,-252 198.12,-252 198.12,-252 74.62,-252"/>
<polygon fill="none" stroke="#666666" points="74.62,-234 74.62,-286 198.12,-286 198.12,-234 74.62,-234"/>
</a>
</g>
</g>
<!-- Node3&#45;&gt;Node1 -->
<g id="edge2_Node000001_Node000003" class="edge">
<title>Node3&#45;&gt;Node1</title>
<g id="a_edge2_Node000001_Node000003"><a xlink:title=" ">
<path fill="none" stroke="#63b8ff" d="M168.63,-234.09C184.77,-222.28 204.91,-208.5 224.12,-198 282.18,-166.27 351.64,-138 403.89,-118.49"/>
<polygon fill="none" stroke="#63b8ff" points="404.01,-118.44 408.25,-112.61 415.26,-114.28 411.02,-120.12 404.01,-118.44"/>
</a>
</g>
<text xml:space="preserve" text-anchor="start" x="227.12" y="-203.5" font-family="Helvetica,sans-Serif" font-size="10.00" fill="grey">+button_commands</text>
</g>
<!-- Node4 -->
<g id="Node000004" class="node">
<title>Node4</title>
<g id="a_Node000004"><a xlink:title=" ">
<polygon fill="white" stroke="none" points="332.38,-286 216.38,-286 216.38,-234 332.38,-234 332.38,-286"/>
<text xml:space="preserve" text-anchor="start" x="220.38" y="-272.5" font-family="Helvetica,sans-Serif" font-size="10.00">static form_commands_t</text>
<text xml:space="preserve" text-anchor="start" x="272.88" y="-256.5" font-family="Helvetica,sans-Serif" font-size="10.00"> </text>
<text xml:space="preserve" text-anchor="start" x="272.88" y="-240.5" font-family="Helvetica,sans-Serif" font-size="10.00"> </text>
<polygon fill="#666666" stroke="#666666" points="216.38,-268 216.38,-268 332.38,-268 332.38,-268 216.38,-268"/>
<polygon fill="#666666" stroke="#666666" points="216.38,-252 216.38,-252 332.38,-252 332.38,-252 216.38,-252"/>
<polygon fill="none" stroke="#666666" points="216.38,-234 216.38,-286 332.38,-286 332.38,-234 216.38,-234"/>
</a>
</g>
</g>
<!-- Node4&#45;&gt;Node1 -->
<g id="edge3_Node000001_Node000004" class="edge">
<title>Node4&#45;&gt;Node1</title>
<g id="a_edge3_Node000001_Node000004"><a xlink:title=" ">
<path fill="none" stroke="#63b8ff" d="M300.28,-234.06C312.31,-222.76 326.94,-209.42 340.62,-198 361.28,-180.77 384.31,-162.86 405.71,-146.73"/>
<polygon fill="none" stroke="#63b8ff" points="405.74,-146.71 408.14,-139.91 415.34,-139.51 412.94,-146.31 405.74,-146.71"/>
</a>
</g>
<text xml:space="preserve" text-anchor="start" x="343.62" y="-203.5" font-family="Helvetica,sans-Serif" font-size="10.00" fill="grey">+form_commands</text>
</g>
<!-- Node5 -->
<g id="Node000005" class="node">
<title>Node5</title>
<g id="a_Node000005"><a xlink:title=" ">
<polygon fill="white" stroke="none" points="470.25,-286 350.5,-286 350.5,-234 470.25,-234 470.25,-286"/>
<text xml:space="preserve" text-anchor="start" x="354.5" y="-272.5" font-family="Helvetica,sans-Serif" font-size="10.00">static slash_commands_t</text>
<text xml:space="preserve" text-anchor="start" x="408.88" y="-256.5" font-family="Helvetica,sans-Serif" font-size="10.00"> </text>
<text xml:space="preserve" text-anchor="start" x="408.88" y="-240.5" font-family="Helvetica,sans-Serif" font-size="10.00"> </text>
<polygon fill="#666666" stroke="#666666" points="350.5,-268 350.5,-268 470.25,-268 470.25,-268 350.5,-268"/>
<polygon fill="#666666" stroke="#666666" points="350.5,-252 350.5,-252 470.25,-252 470.25,-252 350.5,-252"/>
<polygon fill="none" stroke="#666666" points="350.5,-234 350.5,-286 470.25,-286 470.25,-234 350.5,-234"/>
</a>
</g>
</g>
<!-- Node5&#45;&gt;Node1 -->
<g id="edge4_Node000001_Node000005" class="edge">
<title>Node5&#45;&gt;Node1</title>
<g id="a_edge4_Node000001_Node000005"><a xlink:title=" ">
<path fill="none" stroke="#63b8ff" d="M421,-234.21C426.07,-222.39 432.5,-207.38 439.28,-191.55"/>
<polygon fill="none" stroke="#63b8ff" points="439.19,-191.77 437.87,-184.68 443.91,-180.74 445.23,-187.83 439.19,-191.77"/>
</a>
</g>
<text xml:space="preserve" text-anchor="start" x="438.72" y="-203.5" font-family="Helvetica,sans-Serif" font-size="10.00" fill="grey">+slash_commands</text>
</g>
<!-- Node6 -->
<g id="Node000006" class="node">
<title>Node6</title>
<g id="a_Node000006"><a xlink:title=" ">
<polygon fill="white" stroke="none" points="620.25,-286 488.5,-286 488.5,-234 620.25,-234 620.25,-286"/>
<text xml:space="preserve" text-anchor="start" x="492.5" y="-272.5" font-family="Helvetica,sans-Serif" font-size="10.00">static member_commands_t</text>
<text xml:space="preserve" text-anchor="start" x="552.88" y="-256.5" font-family="Helvetica,sans-Serif" font-size="10.00"> </text>
<text xml:space="preserve" text-anchor="start" x="552.88" y="-240.5" font-family="Helvetica,sans-Serif" font-size="10.00"> </text>
<polygon fill="#666666" stroke="#666666" points="488.5,-268 488.5,-268 620.25,-268 620.25,-268 488.5,-268"/>
<polygon fill="#666666" stroke="#666666" points="488.5,-252 488.5,-252 620.25,-252 620.25,-252 488.5,-252"/>
<polygon fill="none" stroke="#666666" points="488.5,-234 488.5,-286 620.25,-286 620.25,-234 488.5,-234"/>
</a>
</g>
</g>
<!-- Node6&#45;&gt;Node1 -->
<g id="edge5_Node000001_Node000006" class="edge">
<title>Node6&#45;&gt;Node1</title>
<g id="a_edge5_Node000001_Node000006"><a xlink:title=" ">
<path fill="none" stroke="#63b8ff" d="M543.77,-234.06C539.06,-223.01 533.45,-209.85 528.38,-198 527.46,-195.86 526.53,-193.7 525.6,-191.52"/>
<polygon fill="none" stroke="#63b8ff" points="525.63,-191.6 519.59,-187.66 520.91,-180.57 526.95,-184.51 525.63,-191.6"/>
</a>
</g>
<text xml:space="preserve" text-anchor="start" x="538.53" y="-203.5" font-family="Helvetica,sans-Serif" font-size="10.00" fill="grey">+member_commands</text>
</g>
<!-- Node7 -->
<g id="Node000007" class="node">
<title>Node7</title>
<g id="a_Node000007"><a xlink:title=" ">
<polygon fill="white" stroke="none" points="774.5,-286 638.25,-286 638.25,-234 774.5,-234 774.5,-286"/>
<text xml:space="preserve" text-anchor="start" x="642.25" y="-272.5" font-family="Helvetica,sans-Serif" font-size="10.00">static message_commands_t</text>
<text xml:space="preserve" text-anchor="start" x="704.88" y="-256.5" font-family="Helvetica,sans-Serif" font-size="10.00"> </text>
<text xml:space="preserve" text-anchor="start" x="704.88" y="-240.5" font-family="Helvetica,sans-Serif" font-size="10.00"> </text>
<polygon fill="#666666" stroke="#666666" points="638.25,-268 638.25,-268 774.5,-268 774.5,-268 638.25,-268"/>
<polygon fill="#666666" stroke="#666666" points="638.25,-252 638.25,-252 774.5,-252 774.5,-252 638.25,-252"/>
<polygon fill="none" stroke="#666666" points="638.25,-234 638.25,-286 774.5,-286 774.5,-234 638.25,-234"/>
</a>
</g>
</g>
<!-- Node7&#45;&gt;Node1 -->
<g id="edge6_Node000001_Node000007" class="edge">
<title>Node7&#45;&gt;Node1</title>
<g id="a_edge6_Node000001_Node000007"><a xlink:title=" ">
<path fill="none" stroke="#63b8ff" d="M681.16,-234.02C669.18,-222.59 654.43,-209.15 640.38,-198 614.83,-177.73 585.57,-157.23 559.22,-139.67"/>
<polygon fill="none" stroke="#63b8ff" points="559.28,-139.71 552.07,-139.73 549.27,-133.09 556.48,-133.06 559.28,-139.71"/>
</a>
</g>
<text xml:space="preserve" text-anchor="start" x="664.12" y="-203.5" font-family="Helvetica,sans-Serif" font-size="10.00" fill="grey">+message_commands</text>
</g>
<!-- Node8 -->
<g id="Node000008" class="node">
<title>Node8</title>
<g id="a_Node000008"><a xlink:title=" ">
<polygon fill="white" stroke="none" points="923.88,-286 792.88,-286 792.88,-234 923.88,-234 923.88,-286"/>
<text xml:space="preserve" text-anchor="start" x="796.88" y="-272.5" font-family="Helvetica,sans-Serif" font-size="10.00">static reaction_commands_t</text>
<text xml:space="preserve" text-anchor="start" x="856.88" y="-256.5" font-family="Helvetica,sans-Serif" font-size="10.00"> </text>
<text xml:space="preserve" text-anchor="start" x="856.88" y="-240.5" font-family="Helvetica,sans-Serif" font-size="10.00"> </text>
<polygon fill="#666666" stroke="#666666" points="792.88,-268 792.88,-268 923.88,-268 923.88,-268 792.88,-268"/>
<polygon fill="#666666" stroke="#666666" points="792.88,-252 792.88,-252 923.88,-252 923.88,-252 792.88,-252"/>
<polygon fill="none" stroke="#666666" points="792.88,-234 792.88,-286 923.88,-286 923.88,-234 792.88,-234"/>
</a>
</g>
</g>
<!-- Node8&#45;&gt;Node1 -->
<g id="edge7_Node000001_Node000008" class="edge">
<title>Node8&#45;&gt;Node1</title>
<g id="a_edge7_Node000001_Node000008"><a xlink:title=" ">
<path fill="none" stroke="#63b8ff" d="M826.59,-234.08C810.38,-222.13 789.99,-208.23 770.38,-198 702.5,-162.58 620.19,-133.24 560.98,-114.3"/>
<polygon fill="none" stroke="#63b8ff" points="561.01,-114.31 554.08,-116.31 549.57,-110.69 556.5,-108.69 561.01,-114.31"/>
</a>
</g>
<text xml:space="preserve" text-anchor="start" x="801.22" y="-203.5" font-family="Helvetica,sans-Serif" font-size="10.00" fill="grey">+reaction_commands</text>
</g>
<!-- Node9 -->
<g id="Node000009" class="node">
<title>Node9</title>
<g id="a_Node000009"><a xlink:title=" ">
<polygon fill="white" stroke="none" points="1062.62,-286 942.12,-286 942.12,-234 1062.62,-234 1062.62,-286"/>
<text xml:space="preserve" text-anchor="start" x="946.12" y="-272.5" font-family="Helvetica,sans-Serif" font-size="10.00">static ready_commands_t</text>
<text xml:space="preserve" text-anchor="start" x="1000.88" y="-256.5" font-family="Helvetica,sans-Serif" font-size="10.00"> </text>
<text xml:space="preserve" text-anchor="start" x="1000.88" y="-240.5" font-family="Helvetica,sans-Serif" font-size="10.00"> </text>
<polygon fill="#666666" stroke="#666666" points="942.12,-268 942.12,-268 1062.62,-268 1062.62,-268 942.12,-268"/>
<polygon fill="#666666" stroke="#666666" points="942.12,-252 942.12,-252 1062.62,-252 1062.62,-252 942.12,-252"/>
<polygon fill="none" stroke="#666666" points="942.12,-234 942.12,-286 1062.62,-286 1062.62,-234 942.12,-234"/>
</a>
</g>
</g>
<!-- Node9&#45;&gt;Node1 -->
<g id="edge8_Node000001_Node000009" class="edge">
<title>Node9&#45;&gt;Node1</title>
<g id="a_edge8_Node000001_Node000009"><a xlink:title=" ">
<path fill="none" stroke="#63b8ff" d="M967.66,-234.27C949.02,-221.93 925.24,-207.63 902.38,-198 788.43,-150.01 647.72,-119.55 561.56,-103.88"/>
<polygon fill="none" stroke="#63b8ff" points="561.43,-103.85 554.82,-106.73 549.62,-101.74 556.23,-98.86 561.43,-103.85"/>
</a>
</g>
<text xml:space="preserve" text-anchor="start" x="939.84" y="-203.5" font-family="Helvetica,sans-Serif" font-size="10.00" fill="grey">+ready_commands</text>
</g>
</g>
</svg>
