<?xml version="1.0" encoding="UTF-8" standalone="no"?>
<!DOCTYPE svg PUBLIC "-//W3C//DTD SVG 1.1//EN"
 "http://www.w3.org/Graphics/SVG/1.1/DTD/svg11.dtd">
<!-- Generated by graphviz version 9.0.0 (0)
 -->
<!-- Title: UserDTO Pages: 1 -->
<svg width="195pt" height="204pt"
 viewBox="0.00 0.00 195.00 204.00" xmlns="http://www.w3.org/2000/svg" xmlns:xlink="http://www.w3.org/1999/xlink">
<g id="graph0" class="graph" transform="scale(1 1) rotate(0) translate(4 200)">
<title>UserDTO</title>
<!-- Node1 -->
<g id="Node000001" class="node">
<title>Node1</title>
<g id="a_Node000001"><a xlink:title=" ">
<polygon fill="#999999" stroke="none" points="112,-84 46,-84 46,0 112,0 112,-84"/>
<text text-anchor="start" x="58" y="-70.5" font-family="Helvetica,sans-Serif" font-size="10.00">UserDTO</text>
<text text-anchor="start" x="77.5" y="-54.5" font-family="Helvetica,sans-Serif" font-size="10.00"> </text>
<text text-anchor="start" x="50" y="-38.5" font-family="Helvetica,sans-Serif" font-size="10.00">+</text>
<text text-anchor="start" x="60" y="-38.5" font-family="Helvetica,sans-Serif" font-size="10.00">UserDTO()</text>
<text text-anchor="start" x="50" y="-22.5" font-family="Helvetica,sans-Serif" font-size="10.00">+</text>
<text text-anchor="start" x="60" y="-22.5" font-family="Helvetica,sans-Serif" font-size="10.00">UserDTO()</text>
<text text-anchor="start" x="50" y="-6.5" font-family="Helvetica,sans-Serif" font-size="10.00">+</text>
<text text-anchor="start" x="60" y="-6.5" font-family="Helvetica,sans-Serif" font-size="10.00">UserDTO()</text>
<polygon fill="#666666" stroke="#666666" points="46,-66 46,-66 112,-66 112,-66 46,-66"/>
<polygon fill="#666666" stroke="#666666" points="46,-50 46,-50 112,-50 112,-50 46,-50"/>
<polygon fill="none" stroke="#666666" points="46,0 46,-84 112,-84 112,0 46,0"/>
</a>
</g>
</g>
<!-- Node2 -->
<g id="Node000002" class="node">
<title>Node2</title>
<g id="a_Node000002"><a xlink:title=" ">
<polygon fill="white" stroke="none" points="36,-196 0,-196 0,-144 36,-144 36,-196"/>
<text text-anchor="start" x="4.88" y="-182.5" font-family="Helvetica,sans-Serif" font-size="10.00">size_t</text>
<text text-anchor="start" x="16.5" y="-166.5" font-family="Helvetica,sans-Serif" font-size="10.00"> </text>
<text text-anchor="start" x="16.5" y="-150.5" font-family="Helvetica,sans-Serif" font-size="10.00"> </text>
<polygon fill="#666666" stroke="#666666" points="0,-178 0,-178 36,-178 36,-178 0,-178"/>
<polygon fill="#666666" stroke="#666666" points="0,-162 0,-162 36,-162 36,-162 0,-162"/>
<polygon fill="none" stroke="#666666" points="0,-144 0,-196 36,-196 36,-144 0,-144"/>
</a>
</g>
</g>
<!-- Node2&#45;&gt;Node1 -->
<g id="edge1_Node000001_Node000002" class="edge">
<title>Node2&#45;&gt;Node1</title>
<g id="a_edge1_Node000001_Node000002"><a xlink:title=" ">
<path fill="none" stroke="#63b8ff" d="M23.17,-144.1C26.37,-131.16 31.1,-115.32 37.5,-102 38.64,-99.62 39.88,-97.23 41.19,-94.85"/>
<polygon fill="none" stroke="#63b8ff" points="41.14,-94.94 40.77,-87.73 47.27,-84.62 47.64,-91.82 41.14,-94.94"/>
</a>
</g>
<text text-anchor="middle" x="55.75" y="-116.5" font-family="Helvetica,sans-Serif" font-size="10.00" fill="grey"> +exp</text>
<text text-anchor="middle" x="55.75" y="-104.5" font-family="Helvetica,sans-Serif" font-size="10.00" fill="grey">+user_id</text>
</g>
<!-- Node3 -->
<g id="Node000003" class="node">
<title>Node3</title>
<g id="a_Node000003"><a xlink:title=" ">
<polygon fill="white" stroke="none" points="96,-196 62,-196 62,-144 96,-144 96,-196"/>
<text text-anchor="start" x="67" y="-182.5" font-family="Helvetica,sans-Serif" font-size="10.00">string</text>
<text text-anchor="start" x="77.5" y="-166.5" font-family="Helvetica,sans-Serif" font-size="10.00"> </text>
<text text-anchor="start" x="77.5" y="-150.5" font-family="Helvetica,sans-Serif" font-size="10.00"> </text>
<polygon fill="#666666" stroke="#666666" points="62,-178 62,-178 96,-178 96,-178 62,-178"/>
<polygon fill="#666666" stroke="#666666" points="62,-162 62,-162 96,-162 96,-162 62,-162"/>
<polygon fill="none" stroke="#666666" points="62,-144 62,-196 96,-196 96,-144 62,-144"/>
</a>
</g>
</g>
<!-- Node3&#45;&gt;Node1 -->
<g id="edge2_Node000001_Node000003" class="edge">
<title>Node3&#45;&gt;Node1</title>
<g id="a_edge2_Node000001_Node000003"><a xlink:title=" ">
<path fill="none" stroke="#63b8ff" d="M79,-144.11C79,-130.52 79,-113.16 79,-96.66"/>
<polygon fill="none" stroke="#63b8ff" points="79,-96.61 75,-90.61 79,-84.61 83,-90.61 79,-96.61"/>
</a>
</g>
<text text-anchor="middle" x="94" y="-110.5" font-family="Helvetica,sans-Serif" font-size="10.00" fill="grey"> +color</text>
</g>
<!-- Node4 -->
<g id="Node000004" class="node">
<title>Node4</title>
<g id="a_Node000004"><a xlink:title=" ">
<polygon fill="white" stroke="none" points="146,-196 118,-196 118,-144 146,-144 146,-196"/>
<text text-anchor="start" x="123" y="-182.5" font-family="Helvetica,sans-Serif" font-size="10.00">bool</text>
<text text-anchor="start" x="130.5" y="-166.5" font-family="Helvetica,sans-Serif" font-size="10.00"> </text>
<text text-anchor="start" x="130.5" y="-150.5" font-family="Helvetica,sans-Serif" font-size="10.00"> </text>
<polygon fill="#666666" stroke="#666666" points="118,-178 118,-178 146,-178 146,-178 118,-178"/>
<polygon fill="#666666" stroke="#666666" points="118,-162 118,-162 146,-162 146,-162 118,-162"/>
<polygon fill="none" stroke="#666666" points="118,-144 118,-196 146,-196 146,-144 118,-144"/>
</a>
</g>
</g>
<!-- Node4&#45;&gt;Node1 -->
<g id="edge3_Node000001_Node000004" class="edge">
<title>Node4&#45;&gt;Node1</title>
<g id="a_edge3_Node000001_Node000004"><a xlink:title=" ">
<path fill="none" stroke="#63b8ff" d="M124.92,-144.14C121.01,-131.36 115.78,-115.64 110,-102 109.09,-99.86 108.14,-97.68 107.14,-95.5"/>
<polygon fill="none" stroke="#63b8ff" points="107.13,-95.48 100.94,-91.79 101.96,-84.65 108.16,-88.34 107.13,-95.48"/>
</a>
</g>
<text text-anchor="middle" x="152.5" y="-110.5" font-family="Helvetica,sans-Serif" font-size="10.00" fill="grey"> +is_subscribed</text>
</g>
</g>
</svg>
