<?xml version="1.0" encoding="UTF-8" standalone="no"?>
<!DOCTYPE svg PUBLIC "-//W3C//DTD SVG 1.1//EN"
 "http://www.w3.org/Graphics/SVG/1.1/DTD/svg11.dtd">
<!-- Generated by graphviz version 12.2.1 (0)
 -->
<!-- Title: IGlobalSlashCommand Pages: 1 -->
<svg width="2359pt" height="300pt"
 viewBox="0.00 0.00 2358.88 300.00" xmlns="http://www.w3.org/2000/svg" xmlns:xlink="http://www.w3.org/1999/xlink">
<g id="graph0" class="graph" transform="scale(1 1) rotate(0) translate(4 296)">
<title>IGlobalSlashCommand</title>
<!-- Node1 -->
<g id="Node000001" class="node">
<title>Node1</title>
<g id="a_Node000001"><a xlink:title=" ">
<polygon fill="#999999" stroke="none" points="1220.38,-292 1107.12,-292 1107.12,-208 1220.38,-208 1220.38,-292"/>
<text text-anchor="start" x="1113.5" y="-278.5" font-family="Helvetica,sans-Serif" font-size="10.00">IGlobalSlashCommand</text>
<text text-anchor="start" x="1111.12" y="-262.5" font-family="Helvetica,sans-Serif" font-size="10.00">+</text>
<text text-anchor="start" x="1121.12" y="-262.5" font-family="Helvetica,sans-Serif" font-size="10.00">command_name</text>
<text text-anchor="start" x="1111.12" y="-246.5" font-family="Helvetica,sans-Serif" font-size="10.00">+</text>
<text text-anchor="start" x="1121.12" y="-246.5" font-family="Helvetica,sans-Serif" font-size="10.00">command_description</text>
<text text-anchor="start" x="1111.12" y="-230.5" font-family="Helvetica,sans-Serif" font-size="10.00">+</text>
<text text-anchor="start" x="1121.12" y="-230.5" font-family="Helvetica,sans-Serif" font-size="10.00">command_options</text>
<text text-anchor="start" x="1111.12" y="-214.5" font-family="Helvetica,sans-Serif" font-size="10.00">+</text>
<text text-anchor="start" x="1121.12" y="-214.5" font-family="Helvetica,sans-Serif" font-size="10.00">on_slashcommand()</text>
<polygon fill="#666666" stroke="#666666" points="1107.12,-274 1107.12,-274 1220.38,-274 1220.38,-274 1107.12,-274"/>
<polygon fill="#666666" stroke="#666666" points="1107.12,-226 1107.12,-226 1119.12,-226 1119.12,-226 1107.12,-226"/>
<polygon fill="#666666" stroke="#666666" points="1119.12,-226 1119.12,-226 1220.38,-226 1220.38,-226 1119.12,-226"/>
<polygon fill="none" stroke="#666666" points="1107.12,-208 1107.12,-292 1220.38,-292 1220.38,-208 1107.12,-208"/>
</a>
</g>
</g>
<!-- Node2 -->
<g id="Node000002" class="node">
<title>Node2</title>
<g id="a_Node000002"><a xlink:href="classAddResourcesCommand.html" target="_top" xlink:title=" ">
<polygon fill="white" stroke="none" points="133.5,-120 0,-120 0,-52 133.5,-52 133.5,-120"/>
<text text-anchor="start" x="12" y="-106.5" font-family="Helvetica,sans-Serif" font-size="10.00">AddResourcesCommand</text>
<text text-anchor="start" x="65.25" y="-90.5" font-family="Helvetica,sans-Serif" font-size="10.00"> </text>
<text text-anchor="start" x="4" y="-74.5" font-family="Helvetica,sans-Serif" font-size="10.00">+</text>
<text text-anchor="start" x="14" y="-74.5" font-family="Helvetica,sans-Serif" font-size="10.00">AddResourcesCommand()</text>
<text text-anchor="start" x="4" y="-58.5" font-family="Helvetica,sans-Serif" font-size="10.00">+</text>
<text text-anchor="start" x="14" y="-58.5" font-family="Helvetica,sans-Serif" font-size="10.00">on_slashcommand()</text>
<polygon fill="#666666" stroke="#666666" points="0,-102 0,-102 133.5,-102 133.5,-102 0,-102"/>
<polygon fill="#666666" stroke="#666666" points="0,-86 0,-86 133.5,-86 133.5,-86 0,-86"/>
<polygon fill="none" stroke="#666666" points="0,-52 0,-120 133.5,-120 133.5,-52 0,-52"/>
</a>
</g>
</g>
<!-- Node1&#45;&gt;Node2 -->
<g id="edge1_Node000001_Node000002" class="edge">
<title>Node1&#45;&gt;Node2</title>
<g id="a_edge1_Node000001_Node000002"><a xlink:title=" ">
<path fill="none" stroke="#63b8ff" d="M1095.92,-246.82C881.57,-239.51 227.87,-213.99 142.75,-172 119.49,-160.53 100.14,-138.54 86.78,-119.8"/>
<polygon fill="none" stroke="#63b8ff" points="1095.68,-250.31 1105.79,-247.15 1095.91,-243.31 1095.68,-250.31"/>
</a>
</g>
</g>
<!-- Node3 -->
<g id="Node000003" class="node">
<title>Node3</title>
<g id="a_Node000003"><a xlink:href="classBlacklistCommand.html" target="_top" xlink:title=" ">
<polygon fill="white" stroke="none" points="258,-120 151.5,-120 151.5,-52 258,-52 258,-120"/>
<text text-anchor="start" x="163.5" y="-106.5" font-family="Helvetica,sans-Serif" font-size="10.00">BlacklistCommand</text>
<text text-anchor="start" x="203.25" y="-90.5" font-family="Helvetica,sans-Serif" font-size="10.00"> </text>
<text text-anchor="start" x="155.5" y="-74.5" font-family="Helvetica,sans-Serif" font-size="10.00">+</text>
<text text-anchor="start" x="165.5" y="-74.5" font-family="Helvetica,sans-Serif" font-size="10.00">BlacklistCommand()</text>
<text text-anchor="start" x="155.5" y="-58.5" font-family="Helvetica,sans-Serif" font-size="10.00">+</text>
<text text-anchor="start" x="165.5" y="-58.5" font-family="Helvetica,sans-Serif" font-size="10.00">on_slashcommand()</text>
<polygon fill="#666666" stroke="#666666" points="151.5,-102 151.5,-102 258,-102 258,-102 151.5,-102"/>
<polygon fill="#666666" stroke="#666666" points="151.5,-86 151.5,-86 258,-86 258,-86 151.5,-86"/>
<polygon fill="none" stroke="#666666" points="151.5,-52 151.5,-120 258,-120 258,-52 151.5,-52"/>
</a>
</g>
</g>
<!-- Node1&#45;&gt;Node3 -->
<g id="edge2_Node000001_Node000003" class="edge">
<title>Node1&#45;&gt;Node3</title>
<g id="a_edge2_Node000001_Node000003"><a xlink:title=" ">
<path fill="none" stroke="#63b8ff" d="M1096.11,-246.41C899.65,-238.46 338.47,-212.41 266.75,-172 245.9,-160.25 230.16,-138.27 219.75,-119.6"/>
<polygon fill="none" stroke="#63b8ff" points="1095.76,-249.9 1105.89,-246.81 1096.04,-242.91 1095.76,-249.9"/>
</a>
</g>
</g>
<!-- Node4 -->
<g id="Node000004" class="node">
<title>Node4</title>
<g id="a_Node000004"><a xlink:href="classChallengeBadgeCommand.html" target="_top" xlink:title=" ">
<polygon fill="white" stroke="none" points="415.88,-136 275.62,-136 275.62,-36 415.88,-36 415.88,-136"/>
<text text-anchor="start" x="287.62" y="-122.5" font-family="Helvetica,sans-Serif" font-size="10.00">ChallengeBadgeCommand</text>
<text text-anchor="start" x="344.25" y="-106.5" font-family="Helvetica,sans-Serif" font-size="10.00"> </text>
<text text-anchor="start" x="279.62" y="-90.5" font-family="Helvetica,sans-Serif" font-size="10.00">+</text>
<text text-anchor="start" x="289.62" y="-90.5" font-family="Helvetica,sans-Serif" font-size="10.00">ChallengeBadgeCommand()</text>
<text text-anchor="start" x="279.62" y="-74.5" font-family="Helvetica,sans-Serif" font-size="10.00">+</text>
<text text-anchor="start" x="289.62" y="-74.5" font-family="Helvetica,sans-Serif" font-size="10.00">on_slashcommand()</text>
<text text-anchor="start" x="279.62" y="-58.5" font-family="Helvetica,sans-Serif" font-size="10.00">+</text>
<text text-anchor="start" x="289.62" y="-58.5" font-family="Helvetica,sans-Serif" font-size="10.00">on_button_click()</text>
<text text-anchor="start" x="279.62" y="-42.5" font-family="Helvetica,sans-Serif" font-size="10.00">+</text>
<text text-anchor="start" x="289.62" y="-42.5" font-family="Helvetica,sans-Serif" font-size="10.00">on_form_submit()</text>
<polygon fill="#666666" stroke="#666666" points="275.62,-118 275.62,-118 415.88,-118 415.88,-118 275.62,-118"/>
<polygon fill="#666666" stroke="#666666" points="275.62,-102 275.62,-102 415.88,-102 415.88,-102 275.62,-102"/>
<polygon fill="none" stroke="#666666" points="275.62,-36 275.62,-136 415.88,-136 415.88,-36 275.62,-36"/>
</a>
</g>
</g>
<!-- Node1&#45;&gt;Node4 -->
<g id="edge3_Node000001_Node000004" class="edge">
<title>Node1&#45;&gt;Node4</title>
<g id="a_edge3_Node000001_Node000004"><a xlink:title=" ">
<path fill="none" stroke="#63b8ff" d="M1096.16,-247.91C936.91,-244.39 542.71,-229.92 425.75,-172 408.68,-163.55 393.36,-149.84 380.81,-135.88"/>
<polygon fill="none" stroke="#63b8ff" points="1095.63,-251.4 1105.7,-248.11 1095.78,-244.4 1095.63,-251.4"/>
</a>
</g>
</g>
<!-- Node5 -->
<g id="Node000005" class="node">
<title>Node5</title>
<g id="a_Node000005"><a xlink:href="classChallengeRoleCommand.html" target="_top" xlink:title=" ">
<polygon fill="white" stroke="none" points="567.12,-136 434.38,-136 434.38,-36 567.12,-36 567.12,-136"/>
<text text-anchor="start" x="446.38" y="-122.5" font-family="Helvetica,sans-Serif" font-size="10.00">ChallengeRoleCommand</text>
<text text-anchor="start" x="499.25" y="-106.5" font-family="Helvetica,sans-Serif" font-size="10.00"> </text>
<text text-anchor="start" x="438.38" y="-90.5" font-family="Helvetica,sans-Serif" font-size="10.00">+</text>
<text text-anchor="start" x="448.38" y="-90.5" font-family="Helvetica,sans-Serif" font-size="10.00">ChallengeRoleCommand()</text>
<text text-anchor="start" x="438.38" y="-74.5" font-family="Helvetica,sans-Serif" font-size="10.00">+</text>
<text text-anchor="start" x="448.38" y="-74.5" font-family="Helvetica,sans-Serif" font-size="10.00">on_slashcommand()</text>
<text text-anchor="start" x="438.38" y="-58.5" font-family="Helvetica,sans-Serif" font-size="10.00">+</text>
<text text-anchor="start" x="448.38" y="-58.5" font-family="Helvetica,sans-Serif" font-size="10.00">on_button_click()</text>
<text text-anchor="start" x="438.38" y="-42.5" font-family="Helvetica,sans-Serif" font-size="10.00">+</text>
<text text-anchor="start" x="448.38" y="-42.5" font-family="Helvetica,sans-Serif" font-size="10.00">on_form_submit()</text>
<polygon fill="#666666" stroke="#666666" points="434.38,-118 434.38,-118 567.12,-118 567.12,-118 434.38,-118"/>
<polygon fill="#666666" stroke="#666666" points="434.38,-102 434.38,-102 567.12,-102 567.12,-102 434.38,-102"/>
<polygon fill="none" stroke="#666666" points="434.38,-36 434.38,-136 567.12,-136 567.12,-36 434.38,-36"/>
</a>
</g>
</g>
<!-- Node1&#45;&gt;Node5 -->
<g id="edge4_Node000001_Node000005" class="edge">
<title>Node1&#45;&gt;Node5</title>
<g id="a_edge4_Node000001_Node000005"><a xlink:title=" ">
<path fill="none" stroke="#63b8ff" d="M1096.24,-246.08C961.55,-239.31 664.73,-219.35 575.75,-172 559.42,-163.31 544.97,-149.54 533.22,-135.6"/>
<polygon fill="none" stroke="#63b8ff" points="1095.93,-249.57 1106.09,-246.57 1096.27,-242.58 1095.93,-249.57"/>
</a>
</g>
</g>
<!-- Node6 -->
<g id="Node000006" class="node">
<title>Node6</title>
<g id="a_Node000006"><a xlink:href="classFlipCommand.html" target="_top" xlink:title=" ">
<polygon fill="white" stroke="none" points="690.62,-120 584.88,-120 584.88,-52 690.62,-52 690.62,-120"/>
<text text-anchor="start" x="607.38" y="-106.5" font-family="Helvetica,sans-Serif" font-size="10.00">FlipCommand</text>
<text text-anchor="start" x="636.25" y="-90.5" font-family="Helvetica,sans-Serif" font-size="10.00"> </text>
<text text-anchor="start" x="588.88" y="-74.5" font-family="Helvetica,sans-Serif" font-size="10.00">+</text>
<text text-anchor="start" x="598.88" y="-74.5" font-family="Helvetica,sans-Serif" font-size="10.00">FlipCommand()</text>
<text text-anchor="start" x="588.88" y="-58.5" font-family="Helvetica,sans-Serif" font-size="10.00">+</text>
<text text-anchor="start" x="598.88" y="-58.5" font-family="Helvetica,sans-Serif" font-size="10.00">on_slashcommand()</text>
<polygon fill="#666666" stroke="#666666" points="584.88,-102 584.88,-102 690.62,-102 690.62,-102 584.88,-102"/>
<polygon fill="#666666" stroke="#666666" points="584.88,-86 584.88,-86 690.62,-86 690.62,-86 584.88,-86"/>
<polygon fill="none" stroke="#666666" points="584.88,-52 584.88,-120 690.62,-120 690.62,-52 584.88,-52"/>
</a>
</g>
</g>
<!-- Node1&#45;&gt;Node6 -->
<g id="edge5_Node000001_Node000006" class="edge">
<title>Node1&#45;&gt;Node6</title>
<g id="a_edge5_Node000001_Node000006"><a xlink:title=" ">
<path fill="none" stroke="#63b8ff" d="M1095.97,-244.05C983.67,-234.82 764.93,-212.19 699.75,-172 679.69,-159.63 664.11,-138.15 653.58,-119.87"/>
<polygon fill="none" stroke="#63b8ff" points="1095.39,-247.51 1105.64,-244.83 1095.95,-240.54 1095.39,-247.51"/>
</a>
</g>
</g>
<!-- Node7 -->
<g id="Node000007" class="node">
<title>Node7</title>
<g id="a_Node000007"><a xlink:href="classGetResourcesCommand.html" target="_top" xlink:title=" ">
<polygon fill="white" stroke="none" points="840.75,-120 708.75,-120 708.75,-52 840.75,-52 840.75,-120"/>
<text text-anchor="start" x="720.75" y="-106.5" font-family="Helvetica,sans-Serif" font-size="10.00">GetResourcesCommand</text>
<text text-anchor="start" x="773.25" y="-90.5" font-family="Helvetica,sans-Serif" font-size="10.00"> </text>
<text text-anchor="start" x="712.75" y="-74.5" font-family="Helvetica,sans-Serif" font-size="10.00">+</text>
<text text-anchor="start" x="722.75" y="-74.5" font-family="Helvetica,sans-Serif" font-size="10.00">GetResourcesCommand()</text>
<text text-anchor="start" x="712.75" y="-58.5" font-family="Helvetica,sans-Serif" font-size="10.00">+</text>
<text text-anchor="start" x="722.75" y="-58.5" font-family="Helvetica,sans-Serif" font-size="10.00">on_slashcommand()</text>
<polygon fill="#666666" stroke="#666666" points="708.75,-102 708.75,-102 840.75,-102 840.75,-102 708.75,-102"/>
<polygon fill="#666666" stroke="#666666" points="708.75,-86 708.75,-86 840.75,-86 840.75,-86 708.75,-86"/>
<polygon fill="none" stroke="#666666" points="708.75,-52 708.75,-120 840.75,-120 840.75,-52 708.75,-52"/>
</a>
</g>
</g>
<!-- Node1&#45;&gt;Node7 -->
<g id="edge6_Node000001_Node000007" class="edge">
<title>Node1&#45;&gt;Node7</title>
<g id="a_edge6_Node000001_Node000007"><a xlink:title=" ">
<path fill="none" stroke="#63b8ff" d="M1095.92,-244.15C1029.11,-236.78 926.24,-218.28 849.75,-172 828.2,-158.96 809.45,-137.71 796.09,-119.72"/>
<polygon fill="none" stroke="#63b8ff" points="1095.32,-247.61 1105.63,-245.17 1096.05,-240.65 1095.32,-247.61"/>
</a>
</g>
</g>
<!-- Node8 -->
<g id="Node000008" class="node">
<title>Node8</title>
<g id="a_Node000008"><a xlink:href="classHelpCommand.html" target="_top" xlink:title=" ">
<polygon fill="white" stroke="none" points="964.62,-120 858.88,-120 858.88,-52 964.62,-52 964.62,-120"/>
<text text-anchor="start" x="879.12" y="-106.5" font-family="Helvetica,sans-Serif" font-size="10.00">HelpCommand</text>
<text text-anchor="start" x="910.25" y="-90.5" font-family="Helvetica,sans-Serif" font-size="10.00"> </text>
<text text-anchor="start" x="862.88" y="-74.5" font-family="Helvetica,sans-Serif" font-size="10.00">+</text>
<text text-anchor="start" x="872.88" y="-74.5" font-family="Helvetica,sans-Serif" font-size="10.00">HelpCommand()</text>
<text text-anchor="start" x="862.88" y="-58.5" font-family="Helvetica,sans-Serif" font-size="10.00">+</text>
<text text-anchor="start" x="872.88" y="-58.5" font-family="Helvetica,sans-Serif" font-size="10.00">on_slashcommand()</text>
<polygon fill="#666666" stroke="#666666" points="858.88,-102 858.88,-102 964.62,-102 964.62,-102 858.88,-102"/>
<polygon fill="#666666" stroke="#666666" points="858.88,-86 858.88,-86 964.62,-86 964.62,-86 858.88,-86"/>
<polygon fill="none" stroke="#666666" points="858.88,-52 858.88,-120 964.62,-120 964.62,-52 858.88,-52"/>
</a>
</g>
</g>
<!-- Node1&#45;&gt;Node8 -->
<g id="edge7_Node000001_Node000008" class="edge">
<title>Node1&#45;&gt;Node8</title>
<g id="a_edge7_Node000001_Node000008"><a xlink:title=" ">
<path fill="none" stroke="#63b8ff" d="M1096.89,-231.91C1058.16,-219.69 1010.04,-200.33 973.75,-172 955.75,-157.95 940.55,-137.36 929.7,-119.96"/>
<polygon fill="none" stroke="#63b8ff" points="1095.51,-235.15 1106.1,-234.72 1097.56,-228.45 1095.51,-235.15"/>
</a>
</g>
</g>
<!-- Node9 -->
<g id="Node000009" class="node">
<title>Node9</title>
<g id="a_Node000009"><a xlink:href="classInviteCommand.html" target="_top" xlink:title=" ">
<polygon fill="white" stroke="none" points="1088.62,-120 982.88,-120 982.88,-52 1088.62,-52 1088.62,-120"/>
<text text-anchor="start" x="1001.25" y="-106.5" font-family="Helvetica,sans-Serif" font-size="10.00">InviteCommand</text>
<text text-anchor="start" x="1034.25" y="-90.5" font-family="Helvetica,sans-Serif" font-size="10.00"> </text>
<text text-anchor="start" x="986.88" y="-74.5" font-family="Helvetica,sans-Serif" font-size="10.00">+</text>
<text text-anchor="start" x="996.88" y="-74.5" font-family="Helvetica,sans-Serif" font-size="10.00">InviteCommand()</text>
<text text-anchor="start" x="986.88" y="-58.5" font-family="Helvetica,sans-Serif" font-size="10.00">+</text>
<text text-anchor="start" x="996.88" y="-58.5" font-family="Helvetica,sans-Serif" font-size="10.00">on_slashcommand()</text>
<polygon fill="#666666" stroke="#666666" points="982.88,-102 982.88,-102 1088.62,-102 1088.62,-102 982.88,-102"/>
<polygon fill="#666666" stroke="#666666" points="982.88,-86 982.88,-86 1088.62,-86 1088.62,-86 982.88,-86"/>
<polygon fill="none" stroke="#666666" points="982.88,-52 982.88,-120 1088.62,-120 1088.62,-52 982.88,-52"/>
</a>
</g>
</g>
<!-- Node1&#45;&gt;Node9 -->
<g id="edge8_Node000001_Node000009" class="edge">
<title>Node1&#45;&gt;Node9</title>
<g id="a_edge8_Node000001_Node000009"><a xlink:title=" ">
<path fill="none" stroke="#63b8ff" d="M1120.54,-199.74C1112.82,-190.62 1104.95,-181.1 1097.75,-172 1084.38,-155.1 1070.16,-135.72 1058.72,-119.74"/>
<polygon fill="none" stroke="#63b8ff" points="1117.73,-201.85 1126.88,-207.19 1123.06,-197.31 1117.73,-201.85"/>
</a>
</g>
</g>
<!-- Node10 -->
<g id="Node000010" class="node">
<title>Node10</title>
<g id="a_Node000010"><a xlink:href="classLearnCPPCommand.html" target="_top" xlink:title=" ">
<polygon fill="white" stroke="none" points="1220.75,-120 1106.75,-120 1106.75,-52 1220.75,-52 1220.75,-120"/>
<text text-anchor="start" x="1118.75" y="-106.5" font-family="Helvetica,sans-Serif" font-size="10.00">LearnCPPCommand</text>
<text text-anchor="start" x="1162.25" y="-90.5" font-family="Helvetica,sans-Serif" font-size="10.00"> </text>
<text text-anchor="start" x="1110.75" y="-74.5" font-family="Helvetica,sans-Serif" font-size="10.00">+</text>
<text text-anchor="start" x="1120.75" y="-74.5" font-family="Helvetica,sans-Serif" font-size="10.00">LearnCPPCommand()</text>
<text text-anchor="start" x="1110.75" y="-58.5" font-family="Helvetica,sans-Serif" font-size="10.00">+</text>
<text text-anchor="start" x="1120.75" y="-58.5" font-family="Helvetica,sans-Serif" font-size="10.00">on_slashcommand()</text>
<polygon fill="#666666" stroke="#666666" points="1106.75,-102 1106.75,-102 1220.75,-102 1220.75,-102 1106.75,-102"/>
<polygon fill="#666666" stroke="#666666" points="1106.75,-86 1106.75,-86 1220.75,-86 1220.75,-86 1106.75,-86"/>
<polygon fill="none" stroke="#666666" points="1106.75,-52 1106.75,-120 1220.75,-120 1220.75,-52 1106.75,-52"/>
</a>
</g>
</g>
<!-- Node1&#45;&gt;Node10 -->
<g id="edge9_Node000001_Node000010" class="edge">
<title>Node1&#45;&gt;Node10</title>
<g id="a_edge9_Node000001_Node000010"><a xlink:title=" ">
<path fill="none" stroke="#63b8ff" d="M1163.75,-196.87C1163.75,-171.62 1163.75,-142.06 1163.75,-119.97"/>
<polygon fill="none" stroke="#63b8ff" points="1160.25,-196.61 1163.75,-206.61 1167.25,-196.61 1160.25,-196.61"/>
</a>
</g>
</g>
<!-- Node11 -->
<g id="Node000011" class="node">
<title>Node11</title>
<g id="a_Node000011"><a xlink:href="classProfileCommand.html" target="_top" xlink:title=" ">
<polygon fill="white" stroke="none" points="1344.62,-120 1238.88,-120 1238.88,-52 1344.62,-52 1344.62,-120"/>
<text text-anchor="start" x="1255.38" y="-106.5" font-family="Helvetica,sans-Serif" font-size="10.00">ProfileCommand</text>
<text text-anchor="start" x="1290.25" y="-90.5" font-family="Helvetica,sans-Serif" font-size="10.00"> </text>
<text text-anchor="start" x="1242.88" y="-74.5" font-family="Helvetica,sans-Serif" font-size="10.00">+</text>
<text text-anchor="start" x="1252.88" y="-74.5" font-family="Helvetica,sans-Serif" font-size="10.00">ProfileCommand()</text>
<text text-anchor="start" x="1242.88" y="-58.5" font-family="Helvetica,sans-Serif" font-size="10.00">+</text>
<text text-anchor="start" x="1252.88" y="-58.5" font-family="Helvetica,sans-Serif" font-size="10.00">on_slashcommand()</text>
<polygon fill="#666666" stroke="#666666" points="1238.88,-102 1238.88,-102 1344.62,-102 1344.62,-102 1238.88,-102"/>
<polygon fill="#666666" stroke="#666666" points="1238.88,-86 1238.88,-86 1344.62,-86 1344.62,-86 1238.88,-86"/>
<polygon fill="none" stroke="#666666" points="1238.88,-52 1238.88,-120 1344.62,-120 1344.62,-52 1238.88,-52"/>
</a>
</g>
</g>
<!-- Node1&#45;&gt;Node11 -->
<g id="edge10_Node000001_Node000011" class="edge">
<title>Node1&#45;&gt;Node11</title>
<g id="a_edge10_Node000001_Node000011"><a xlink:title=" ">
<path fill="none" stroke="#63b8ff" d="M1206.96,-199.74C1214.68,-190.62 1222.55,-181.1 1229.75,-172 1243.12,-155.1 1257.34,-135.72 1268.78,-119.74"/>
<polygon fill="none" stroke="#63b8ff" points="1204.44,-197.31 1200.62,-207.19 1209.77,-201.85 1204.44,-197.31"/>
</a>
</g>
</g>
<!-- Node12 -->
<g id="Node000012" class="node">
<title>Node12</title>
<g id="a_Node000012"><a xlink:href="classReactionRoles.html" target="_top" xlink:title=" ">
<polygon fill="white" stroke="none" points="1476.38,-148 1363.12,-148 1363.12,-24 1476.38,-24 1476.38,-148"/>
<text text-anchor="start" x="1387.5" y="-134.5" font-family="Helvetica,sans-Serif" font-size="10.00">ReactionRoles</text>
<text text-anchor="start" x="1418.25" y="-118.5" font-family="Helvetica,sans-Serif" font-size="10.00"> </text>
<text text-anchor="start" x="1367.12" y="-102.5" font-family="Helvetica,sans-Serif" font-size="10.00">+</text>
<text text-anchor="start" x="1377.12" y="-102.5" font-family="Helvetica,sans-Serif" font-size="10.00">ReactionRoles()</text>
<text text-anchor="start" x="1367.12" y="-86.5" font-family="Helvetica,sans-Serif" font-size="10.00">+</text>
<text text-anchor="start" x="1377.12" y="-86.5" font-family="Helvetica,sans-Serif" font-size="10.00">on_slashcommand()</text>
<text text-anchor="start" x="1367.12" y="-70.5" font-family="Helvetica,sans-Serif" font-size="10.00">+</text>
<text text-anchor="start" x="1377.12" y="-70.5" font-family="Helvetica,sans-Serif" font-size="10.00">on_message_reaction</text>
<text text-anchor="start" x="1377.12" y="-58.5" font-family="Helvetica,sans-Serif" font-size="10.00">_add()</text>
<text text-anchor="start" x="1367.12" y="-42.5" font-family="Helvetica,sans-Serif" font-size="10.00">+</text>
<text text-anchor="start" x="1377.12" y="-42.5" font-family="Helvetica,sans-Serif" font-size="10.00">on_message_reaction</text>
<text text-anchor="start" x="1377.12" y="-30.5" font-family="Helvetica,sans-Serif" font-size="10.00">_remove()</text>
<polygon fill="#666666" stroke="#666666" points="1363.12,-130 1363.12,-130 1476.38,-130 1476.38,-130 1363.12,-130"/>
<polygon fill="#666666" stroke="#666666" points="1363.12,-114 1363.12,-114 1476.38,-114 1476.38,-114 1363.12,-114"/>
<polygon fill="none" stroke="#666666" points="1363.12,-24 1363.12,-148 1476.38,-148 1476.38,-24 1363.12,-24"/>
</a>
</g>
</g>
<!-- Node1&#45;&gt;Node12 -->
<g id="edge11_Node000001_Node000012" class="edge">
<title>Node1&#45;&gt;Node12</title>
<g id="a_edge11_Node000001_Node000012"><a xlink:title=" ">
<path fill="none" stroke="#63b8ff" d="M1230.71,-231.37C1269.27,-219.01 1317.17,-199.68 1353.75,-172 1362.84,-165.12 1371.34,-156.7 1379.03,-147.85"/>
<polygon fill="none" stroke="#63b8ff" points="1230.05,-227.91 1221.55,-234.23 1232.13,-234.6 1230.05,-227.91"/>
</a>
</g>
</g>
<!-- Node13 -->
<g id="Node000013" class="node">
<title>Node13</title>
<g id="a_Node000013"><a xlink:href="classRemoveNotificationCommand.html" target="_top" xlink:title=" ">
<polygon fill="white" stroke="none" points="1649.38,-120 1494.12,-120 1494.12,-52 1649.38,-52 1649.38,-120"/>
<text text-anchor="start" x="1506.12" y="-106.5" font-family="Helvetica,sans-Serif" font-size="10.00">RemoveNotificationCommand</text>
<text text-anchor="start" x="1570.25" y="-90.5" font-family="Helvetica,sans-Serif" font-size="10.00"> </text>
<text text-anchor="start" x="1498.12" y="-74.5" font-family="Helvetica,sans-Serif" font-size="10.00">+</text>
<text text-anchor="start" x="1508.12" y="-74.5" font-family="Helvetica,sans-Serif" font-size="10.00">RemoveNotificationCommand()</text>
<text text-anchor="start" x="1498.12" y="-58.5" font-family="Helvetica,sans-Serif" font-size="10.00">+</text>
<text text-anchor="start" x="1508.12" y="-58.5" font-family="Helvetica,sans-Serif" font-size="10.00">on_slashcommand()</text>
<polygon fill="#666666" stroke="#666666" points="1494.12,-102 1494.12,-102 1649.38,-102 1649.38,-102 1494.12,-102"/>
<polygon fill="#666666" stroke="#666666" points="1494.12,-86 1494.12,-86 1649.38,-86 1649.38,-86 1494.12,-86"/>
<polygon fill="none" stroke="#666666" points="1494.12,-52 1494.12,-120 1649.38,-120 1649.38,-52 1494.12,-52"/>
</a>
</g>
</g>
<!-- Node1&#45;&gt;Node13 -->
<g id="edge12_Node000001_Node000013" class="edge">
<title>Node1&#45;&gt;Node13</title>
<g id="a_edge12_Node000001_Node000013"><a xlink:title=" ">
<path fill="none" stroke="#63b8ff" d="M1231.73,-243.48C1299.68,-235.58 1405.36,-216.66 1485.75,-172 1509.24,-158.95 1530.74,-137.7 1546.37,-119.71"/>
<polygon fill="none" stroke="#63b8ff" points="1231.38,-240 1221.83,-244.58 1232.15,-246.95 1231.38,-240"/>
</a>
</g>
</g>
<!-- Node14 -->
<g id="Node000014" class="node">
<title>Node14</title>
<g id="a_Node000014"><a xlink:href="classRemovePortalCommand.html" target="_top" xlink:title=" ">
<polygon fill="white" stroke="none" points="1798.38,-120 1667.12,-120 1667.12,-52 1798.38,-52 1798.38,-120"/>
<text text-anchor="start" x="1679.12" y="-106.5" font-family="Helvetica,sans-Serif" font-size="10.00">RemovePortalCommand</text>
<text text-anchor="start" x="1731.25" y="-90.5" font-family="Helvetica,sans-Serif" font-size="10.00"> </text>
<text text-anchor="start" x="1671.12" y="-74.5" font-family="Helvetica,sans-Serif" font-size="10.00">+</text>
<text text-anchor="start" x="1681.12" y="-74.5" font-family="Helvetica,sans-Serif" font-size="10.00">RemovePortalCommand()</text>
<text text-anchor="start" x="1671.12" y="-58.5" font-family="Helvetica,sans-Serif" font-size="10.00">+</text>
<text text-anchor="start" x="1681.12" y="-58.5" font-family="Helvetica,sans-Serif" font-size="10.00">on_slashcommand()</text>
<polygon fill="#666666" stroke="#666666" points="1667.12,-102 1667.12,-102 1798.38,-102 1798.38,-102 1667.12,-102"/>
<polygon fill="#666666" stroke="#666666" points="1667.12,-86 1667.12,-86 1798.38,-86 1798.38,-86 1667.12,-86"/>
<polygon fill="none" stroke="#666666" points="1667.12,-52 1667.12,-120 1798.38,-120 1798.38,-52 1667.12,-52"/>
</a>
</g>
</g>
<!-- Node1&#45;&gt;Node14 -->
<g id="edge13_Node000001_Node000014" class="edge">
<title>Node1&#45;&gt;Node14</title>
<g id="a_edge13_Node000001_Node000014"><a xlink:title=" ">
<path fill="none" stroke="#63b8ff" d="M1231.65,-244.2C1349.58,-234.93 1586.54,-211.86 1658.75,-172 1680.85,-159.8 1699.46,-138.31 1712.5,-120"/>
<polygon fill="none" stroke="#63b8ff" points="1231.49,-240.7 1221.79,-244.96 1232.03,-247.68 1231.49,-240.7"/>
</a>
</g>
</g>
<!-- Node15 -->
<g id="Node000015" class="node">
<title>Node15</title>
<g id="a_Node000015"><a xlink:href="classRollCommand.html" target="_top" xlink:title=" ">
<polygon fill="white" stroke="none" points="1922.62,-120 1816.88,-120 1816.88,-52 1922.62,-52 1922.62,-120"/>
<text text-anchor="start" x="1838.62" y="-106.5" font-family="Helvetica,sans-Serif" font-size="10.00">RollCommand</text>
<text text-anchor="start" x="1868.25" y="-90.5" font-family="Helvetica,sans-Serif" font-size="10.00"> </text>
<text text-anchor="start" x="1820.88" y="-74.5" font-family="Helvetica,sans-Serif" font-size="10.00">+</text>
<text text-anchor="start" x="1830.88" y="-74.5" font-family="Helvetica,sans-Serif" font-size="10.00">RollCommand()</text>
<text text-anchor="start" x="1820.88" y="-58.5" font-family="Helvetica,sans-Serif" font-size="10.00">+</text>
<text text-anchor="start" x="1830.88" y="-58.5" font-family="Helvetica,sans-Serif" font-size="10.00">on_slashcommand()</text>
<polygon fill="#666666" stroke="#666666" points="1816.88,-102 1816.88,-102 1922.62,-102 1922.62,-102 1816.88,-102"/>
<polygon fill="#666666" stroke="#666666" points="1816.88,-86 1816.88,-86 1922.62,-86 1922.62,-86 1816.88,-86"/>
<polygon fill="none" stroke="#666666" points="1816.88,-52 1816.88,-120 1922.62,-120 1922.62,-52 1816.88,-52"/>
</a>
</g>
</g>
<!-- Node1&#45;&gt;Node15 -->
<g id="edge14_Node000001_Node000015" class="edge">
<title>Node1&#45;&gt;Node15</title>
<g id="a_edge14_Node000001_Node000015"><a xlink:title=" ">
<path fill="none" stroke="#63b8ff" d="M1231.5,-247.65C1376.42,-243.7 1711.2,-228.55 1807.75,-172 1828.24,-160 1843.91,-138.27 1854.37,-119.78"/>
<polygon fill="none" stroke="#63b8ff" points="1231.57,-244.15 1221.66,-247.91 1231.75,-251.15 1231.57,-244.15"/>
</a>
</g>
</g>
<!-- Node16 -->
<g id="Node000016" class="node">
<title>Node16</title>
<g id="a_Node000016"><a xlink:href="classServerDetails.html" target="_top" xlink:title=" ">
<polygon fill="white" stroke="none" points="2046.62,-120 1940.88,-120 1940.88,-52 2046.62,-52 2046.62,-120"/>
<text text-anchor="start" x="1964.12" y="-106.5" font-family="Helvetica,sans-Serif" font-size="10.00">ServerDetails</text>
<text text-anchor="start" x="1992.25" y="-90.5" font-family="Helvetica,sans-Serif" font-size="10.00"> </text>
<text text-anchor="start" x="1944.88" y="-74.5" font-family="Helvetica,sans-Serif" font-size="10.00">+</text>
<text text-anchor="start" x="1954.88" y="-74.5" font-family="Helvetica,sans-Serif" font-size="10.00">ServerDetails()</text>
<text text-anchor="start" x="1944.88" y="-58.5" font-family="Helvetica,sans-Serif" font-size="10.00">+</text>
<text text-anchor="start" x="1954.88" y="-58.5" font-family="Helvetica,sans-Serif" font-size="10.00">on_slashcommand()</text>
<polygon fill="#666666" stroke="#666666" points="1940.88,-102 1940.88,-102 2046.62,-102 2046.62,-102 1940.88,-102"/>
<polygon fill="#666666" stroke="#666666" points="1940.88,-86 1940.88,-86 2046.62,-86 2046.62,-86 1940.88,-86"/>
<polygon fill="none" stroke="#666666" points="1940.88,-52 1940.88,-120 2046.62,-120 2046.62,-52 1940.88,-52"/>
</a>
</g>
</g>
<!-- Node1&#45;&gt;Node16 -->
<g id="edge15_Node000001_Node000016" class="edge">
<title>Node1&#45;&gt;Node16</title>
<g id="a_edge15_Node000001_Node000016"><a xlink:title=" ">
<path fill="none" stroke="#63b8ff" d="M1231.61,-249.17C1396.47,-248.49 1813.24,-239.9 1931.75,-172 1952.35,-160.2 1968.02,-138.46 1978.45,-119.93"/>
<polygon fill="none" stroke="#63b8ff" points="1231.68,-245.67 1221.69,-249.2 1231.7,-252.67 1231.68,-245.67"/>
</a>
</g>
</g>
<!-- Node17 -->
<g id="Node000017" class="node">
<title>Node17</title>
<g id="a_Node000017"><a xlink:href="classSetNotificationCommand.html" target="_top" xlink:title=" ">
<polygon fill="white" stroke="none" points="2198.5,-128 2065,-128 2065,-44 2198.5,-44 2198.5,-128"/>
<text text-anchor="start" x="2077" y="-114.5" font-family="Helvetica,sans-Serif" font-size="10.00">SetNotificationCommand</text>
<text text-anchor="start" x="2130.25" y="-98.5" font-family="Helvetica,sans-Serif" font-size="10.00"> </text>
<text text-anchor="start" x="2069" y="-82.5" font-family="Helvetica,sans-Serif" font-size="10.00">+</text>
<text text-anchor="start" x="2079" y="-82.5" font-family="Helvetica,sans-Serif" font-size="10.00">SetNotificationCommand()</text>
<text text-anchor="start" x="2069" y="-66.5" font-family="Helvetica,sans-Serif" font-size="10.00">+</text>
<text text-anchor="start" x="2079" y="-66.5" font-family="Helvetica,sans-Serif" font-size="10.00">on_slashcommand()</text>
<text text-anchor="start" x="2069" y="-50.5" font-family="Helvetica,sans-Serif" font-size="10.00">+</text>
<text text-anchor="start" x="2079" y="-50.5" font-family="Helvetica,sans-Serif" font-size="10.00">on_ready()</text>
<polygon fill="#666666" stroke="#666666" points="2065,-110 2065,-110 2198.5,-110 2198.5,-110 2065,-110"/>
<polygon fill="#666666" stroke="#666666" points="2065,-94 2065,-94 2198.5,-94 2198.5,-94 2065,-94"/>
<polygon fill="none" stroke="#666666" points="2065,-44 2065,-128 2198.5,-128 2198.5,-44 2065,-44"/>
</a>
</g>
</g>
<!-- Node1&#45;&gt;Node17 -->
<g id="edge16_Node000001_Node000017" class="edge">
<title>Node1&#45;&gt;Node17</title>
<g id="a_edge16_Node000001_Node000017"><a xlink:title=" ">
<path fill="none" stroke="#63b8ff" d="M1231.36,-249.52C1413.66,-249.93 1911.31,-244.23 2055.75,-172 2075.76,-162 2092.91,-144.26 2105.83,-127.57"/>
<polygon fill="none" stroke="#63b8ff" points="1231.6,-246.02 1221.59,-249.49 1231.58,-253.02 1231.6,-246.02"/>
</a>
</g>
</g>
<!-- Node18 -->
<g id="Node000018" class="node">
<title>Node18</title>
<g id="a_Node000018"><a xlink:href="classSetPortalCommand.html" target="_top" xlink:title=" ">
<polygon fill="white" stroke="none" points="2350.88,-172 2216.62,-172 2216.62,0 2350.88,0 2350.88,-172"/>
<text text-anchor="start" x="2241" y="-158.5" font-family="Helvetica,sans-Serif" font-size="10.00">SetPortalCommand</text>
<text text-anchor="start" x="2282.25" y="-142.5" font-family="Helvetica,sans-Serif" font-size="10.00"> </text>
<text text-anchor="start" x="2220.62" y="-126.5" font-family="Helvetica,sans-Serif" font-size="10.00">+</text>
<text text-anchor="start" x="2230.62" y="-126.5" font-family="Helvetica,sans-Serif" font-size="10.00">SetPortalCommand()</text>
<text text-anchor="start" x="2220.62" y="-110.5" font-family="Helvetica,sans-Serif" font-size="10.00">+</text>
<text text-anchor="start" x="2230.62" y="-110.5" font-family="Helvetica,sans-Serif" font-size="10.00">on_slashcommand()</text>
<text text-anchor="start" x="2220.62" y="-94.5" font-family="Helvetica,sans-Serif" font-size="10.00">+</text>
<text text-anchor="start" x="2230.62" y="-94.5" font-family="Helvetica,sans-Serif" font-size="10.00">on_message_create()</text>
<text text-anchor="start" x="2220.62" y="-78.5" font-family="Helvetica,sans-Serif" font-size="10.00">+</text>
<text text-anchor="start" x="2230.62" y="-78.5" font-family="Helvetica,sans-Serif" font-size="10.00">on_message_delete()</text>
<text text-anchor="start" x="2220.62" y="-62.5" font-family="Helvetica,sans-Serif" font-size="10.00">+</text>
<text text-anchor="start" x="2230.62" y="-62.5" font-family="Helvetica,sans-Serif" font-size="10.00">on_message_delete_bulk()</text>
<text text-anchor="start" x="2220.62" y="-46.5" font-family="Helvetica,sans-Serif" font-size="10.00">+</text>
<text text-anchor="start" x="2230.62" y="-46.5" font-family="Helvetica,sans-Serif" font-size="10.00">on_message_reaction</text>
<text text-anchor="start" x="2230.62" y="-34.5" font-family="Helvetica,sans-Serif" font-size="10.00">_add()</text>
<text text-anchor="start" x="2220.62" y="-18.5" font-family="Helvetica,sans-Serif" font-size="10.00">+</text>
<text text-anchor="start" x="2230.62" y="-18.5" font-family="Helvetica,sans-Serif" font-size="10.00">on_message_reaction</text>
<text text-anchor="start" x="2230.62" y="-6.5" font-family="Helvetica,sans-Serif" font-size="10.00">_remove()</text>
<polygon fill="#666666" stroke="#666666" points="2216.62,-154 2216.62,-154 2350.88,-154 2350.88,-154 2216.62,-154"/>
<polygon fill="#666666" stroke="#666666" points="2216.62,-138 2216.62,-138 2350.88,-138 2350.88,-138 2216.62,-138"/>
<polygon fill="none" stroke="#666666" points="2216.62,0 2216.62,-172 2350.88,-172 2350.88,0 2216.62,0"/>
</a>
</g>
</g>
<!-- Node1&#45;&gt;Node18 -->
<g id="edge17_Node000001_Node000018" class="edge">
<title>Node1&#45;&gt;Node18</title>
<g id="a_edge17_Node000001_Node000018"><a xlink:title=" ">
<path fill="none" stroke="#63b8ff" d="M1231.28,-246.95C1448.53,-239.94 2120.45,-214.98 2207.75,-172 2210.86,-170.47 2213.9,-168.75 2216.86,-166.88"/>
<polygon fill="none" stroke="#63b8ff" points="1231.45,-243.44 1221.57,-247.26 1231.68,-250.44 1231.45,-243.44"/>
</a>
</g>
</g>
</g>
</svg>
