<?xml version="1.0" encoding="UTF-8" standalone="no"?>
<!DOCTYPE svg PUBLIC "-//W3C//DTD SVG 1.1//EN"
 "http://www.w3.org/Graphics/SVG/1.1/DTD/svg11.dtd">
<!-- Generated by graphviz version 12.1.2 (0)
 -->
<!-- Title: IRepository&lt; DTO &gt; Pages: 1 -->
<svg width="1536pt" height="421pt"
 viewBox="0.00 0.00 1535.50 421.00" xmlns="http://www.w3.org/2000/svg" xmlns:xlink="http://www.w3.org/1999/xlink">
<g id="graph0" class="graph" transform="scale(1 1) rotate(0) translate(4 417)">
<title>IRepository&lt; DTO &gt;</title>
<!-- Node1 -->
<g id="Node000001" class="node">
<title>Node1</title>
<g id="a_Node000001"><a xlink:title=" ">
<polygon fill="#999999" stroke="none" points="819.5,-413 720.5,-413 720.5,-313 819.5,-313 819.5,-413"/>
<text text-anchor="start" x="725.38" y="-399.5" font-family="Helvetica,sans-Serif" font-size="10.00">IRepository&lt; DTO &gt;</text>
<text text-anchor="start" x="768.5" y="-383.5" font-family="Helvetica,sans-Serif" font-size="10.00"> </text>
<text text-anchor="start" x="735" y="-367.5" font-family="Helvetica,sans-Serif" font-size="10.00">+</text>
<text text-anchor="start" x="755.5" y="-367.5" font-family="Helvetica,sans-Serif" font-size="10.00">create()</text>
<text text-anchor="start" x="735" y="-351.5" font-family="Helvetica,sans-Serif" font-size="10.00">+</text>
<text text-anchor="start" x="755.5" y="-351.5" font-family="Helvetica,sans-Serif" font-size="10.00">remove()</text>
<text text-anchor="start" x="735" y="-335.5" font-family="Helvetica,sans-Serif" font-size="10.00">+</text>
<text text-anchor="start" x="755.5" y="-335.5" font-family="Helvetica,sans-Serif" font-size="10.00">get()</text>
<text text-anchor="start" x="735" y="-319.5" font-family="Helvetica,sans-Serif" font-size="10.00">+</text>
<text text-anchor="start" x="755.5" y="-319.5" font-family="Helvetica,sans-Serif" font-size="10.00">update()</text>
<polygon fill="#666666" stroke="#666666" points="720.5,-395 720.5,-395 819.5,-395 819.5,-395 720.5,-395"/>
<polygon fill="#666666" stroke="#666666" points="720.5,-379 720.5,-379 819.5,-379 819.5,-379 720.5,-379"/>
<polygon fill="none" stroke="#666666" points="720.5,-313 720.5,-413 819.5,-413 819.5,-313 720.5,-313"/>
</a>
</g>
</g>
<!-- Node2 -->
<g id="Node000002" class="node">
<title>Node2</title>
<g id="a_Node000002"><a xlink:href="classIRepository.html" target="_top" xlink:title=" ">
<polygon fill="white" stroke="none" points="136,-259 0,-259 0,-159 136,-159 136,-259"/>
<text text-anchor="start" x="4.62" y="-245.5" font-family="Helvetica,sans-Serif" font-size="10.00">IRepository&lt; BlacklistDTO &gt;</text>
<text text-anchor="start" x="66.5" y="-229.5" font-family="Helvetica,sans-Serif" font-size="10.00"> </text>
<text text-anchor="start" x="24" y="-213.5" font-family="Helvetica,sans-Serif" font-size="10.00">+</text>
<text text-anchor="start" x="54" y="-213.5" font-family="Helvetica,sans-Serif" font-size="10.00">create()</text>
<text text-anchor="start" x="24" y="-197.5" font-family="Helvetica,sans-Serif" font-size="10.00">+</text>
<text text-anchor="start" x="54" y="-197.5" font-family="Helvetica,sans-Serif" font-size="10.00">remove()</text>
<text text-anchor="start" x="24" y="-181.5" font-family="Helvetica,sans-Serif" font-size="10.00">+</text>
<text text-anchor="start" x="54" y="-181.5" font-family="Helvetica,sans-Serif" font-size="10.00">get()</text>
<text text-anchor="start" x="24" y="-165.5" font-family="Helvetica,sans-Serif" font-size="10.00">+</text>
<text text-anchor="start" x="54" y="-165.5" font-family="Helvetica,sans-Serif" font-size="10.00">update()</text>
<polygon fill="#666666" stroke="#666666" points="0,-241 0,-241 136,-241 136,-241 0,-241"/>
<polygon fill="#666666" stroke="#666666" points="0,-225 0,-225 136,-225 136,-225 0,-225"/>
<polygon fill="none" stroke="#666666" points="0,-159 0,-259 136,-259 136,-159 0,-159"/>
</a>
</g>
</g>
<!-- Node1&#45;&gt;Node2 -->
<g id="edge1_Node000001_Node000002" class="edge">
<title>Node1&#45;&gt;Node2</title>
<g id="a_edge1_Node000001_Node000002"><a xlink:title=" ">
<path fill="none" stroke="orange" d="M709.32,-357.86C610.28,-350.32 408.12,-331.63 240.5,-295 197.04,-285.5 184.82,-284.84 145,-265 141.18,-263.09 137.34,-261.01 133.52,-258.8"/>
<polygon fill="orange" stroke="orange" points="708.85,-361.34 719.08,-358.59 709.37,-354.36 708.85,-361.34"/>
</a>
</g>
<text text-anchor="middle" x="280.25" y="-285.5" font-family="Helvetica,sans-Serif" font-size="10.00" fill="grey"> &lt; BlacklistDTO &gt;</text>
</g>
<!-- Node4 -->
<g id="Node000004" class="node">
<title>Node4</title>
<g id="a_Node000004"><a xlink:href="classIRepository.html" target="_top" xlink:title=" ">
<polygon fill="white" stroke="none" points="294,-265 154,-265 154,-153 294,-153 294,-265"/>
<text text-anchor="start" x="158.75" y="-251.5" font-family="Helvetica,sans-Serif" font-size="10.00">IRepository&lt; ChallengeBadge</text>
<text text-anchor="start" x="209" y="-239.5" font-family="Helvetica,sans-Serif" font-size="10.00">DTO &gt;</text>
<text text-anchor="start" x="222.5" y="-223.5" font-family="Helvetica,sans-Serif" font-size="10.00"> </text>
<text text-anchor="start" x="179" y="-207.5" font-family="Helvetica,sans-Serif" font-size="10.00">+</text>
<text text-anchor="start" x="210" y="-207.5" font-family="Helvetica,sans-Serif" font-size="10.00">create()</text>
<text text-anchor="start" x="179" y="-191.5" font-family="Helvetica,sans-Serif" font-size="10.00">+</text>
<text text-anchor="start" x="210" y="-191.5" font-family="Helvetica,sans-Serif" font-size="10.00">remove()</text>
<text text-anchor="start" x="179" y="-175.5" font-family="Helvetica,sans-Serif" font-size="10.00">+</text>
<text text-anchor="start" x="210" y="-175.5" font-family="Helvetica,sans-Serif" font-size="10.00">get()</text>
<text text-anchor="start" x="179" y="-159.5" font-family="Helvetica,sans-Serif" font-size="10.00">+</text>
<text text-anchor="start" x="210" y="-159.5" font-family="Helvetica,sans-Serif" font-size="10.00">update()</text>
<polygon fill="#666666" stroke="#666666" points="154,-235 154,-235 294,-235 294,-235 154,-235"/>
<polygon fill="#666666" stroke="#666666" points="154,-219 154,-219 294,-219 294,-219 154,-219"/>
<polygon fill="none" stroke="#666666" points="154,-153 154,-265 294,-265 294,-153 154,-153"/>
</a>
</g>
</g>
<!-- Node1&#45;&gt;Node4 -->
<g id="edge3_Node000001_Node000004" class="edge">
<title>Node1&#45;&gt;Node4</title>
<g id="a_edge3_Node000001_Node000004"><a xlink:title=" ">
<path fill="none" stroke="orange" d="M709.29,-360.91C624.83,-357.53 468.45,-344.44 345.75,-295 326.86,-287.39 308.04,-276.38 291.03,-264.8"/>
<polygon fill="orange" stroke="orange" points="709.08,-364.41 719.2,-361.27 709.34,-357.41 709.08,-364.41"/>
</a>
</g>
<text text-anchor="middle" x="402.38" y="-285.5" font-family="Helvetica,sans-Serif" font-size="10.00" fill="grey"> &lt; ChallengeBadgeDTO &gt;</text>
</g>
<!-- Node6 -->
<g id="Node000006" class="node">
<title>Node6</title>
<g id="a_Node000006"><a xlink:href="classIRepository.html" target="_top" xlink:title=" ">
<polygon fill="white" stroke="none" points="445.5,-265 312.5,-265 312.5,-153 445.5,-153 445.5,-265"/>
<text text-anchor="start" x="317.5" y="-251.5" font-family="Helvetica,sans-Serif" font-size="10.00">IRepository&lt; ChallengeRole</text>
<text text-anchor="start" x="364" y="-239.5" font-family="Helvetica,sans-Serif" font-size="10.00">DTO &gt;</text>
<text text-anchor="start" x="377.5" y="-223.5" font-family="Helvetica,sans-Serif" font-size="10.00"> </text>
<text text-anchor="start" x="335.5" y="-207.5" font-family="Helvetica,sans-Serif" font-size="10.00">+</text>
<text text-anchor="start" x="364.5" y="-207.5" font-family="Helvetica,sans-Serif" font-size="10.00">create()</text>
<text text-anchor="start" x="335.5" y="-191.5" font-family="Helvetica,sans-Serif" font-size="10.00">+</text>
<text text-anchor="start" x="364.5" y="-191.5" font-family="Helvetica,sans-Serif" font-size="10.00">remove()</text>
<text text-anchor="start" x="335.5" y="-175.5" font-family="Helvetica,sans-Serif" font-size="10.00">+</text>
<text text-anchor="start" x="364.5" y="-175.5" font-family="Helvetica,sans-Serif" font-size="10.00">get()</text>
<text text-anchor="start" x="335.5" y="-159.5" font-family="Helvetica,sans-Serif" font-size="10.00">+</text>
<text text-anchor="start" x="364.5" y="-159.5" font-family="Helvetica,sans-Serif" font-size="10.00">update()</text>
<polygon fill="#666666" stroke="#666666" points="312.5,-235 312.5,-235 445.5,-235 445.5,-235 312.5,-235"/>
<polygon fill="#666666" stroke="#666666" points="312.5,-219 312.5,-219 445.5,-219 445.5,-219 312.5,-219"/>
<polygon fill="none" stroke="#666666" points="312.5,-153 312.5,-265 445.5,-265 445.5,-153 312.5,-153"/>
</a>
</g>
</g>
<!-- Node1&#45;&gt;Node6 -->
<g id="edge5_Node000001_Node000006" class="edge">
<title>Node1&#45;&gt;Node6</title>
<g id="a_edge5_Node000001_Node000006"><a xlink:title=" ">
<path fill="none" stroke="orange" d="M709.4,-356.06C649.22,-348.32 555.59,-331.22 482.25,-295 466.22,-287.08 450.49,-276.24 436.34,-264.94"/>
<polygon fill="orange" stroke="orange" points="708.75,-359.5 719.1,-357.25 709.61,-352.56 708.75,-359.5"/>
</a>
</g>
<text text-anchor="middle" x="535.12" y="-285.5" font-family="Helvetica,sans-Serif" font-size="10.00" fill="grey"> &lt; ChallengeRoleDTO &gt;</text>
</g>
<!-- Node8 -->
<g id="Node000008" class="node">
<title>Node8</title>
<g id="a_Node000008"><a xlink:href="classIRepository.html" target="_top" xlink:title=" ">
<polygon fill="white" stroke="none" points="608,-265 464,-265 464,-153 608,-153 608,-265"/>
<text text-anchor="start" x="468.88" y="-251.5" font-family="Helvetica,sans-Serif" font-size="10.00">IRepository&lt; GoodbyeChannel</text>
<text text-anchor="start" x="521" y="-239.5" font-family="Helvetica,sans-Serif" font-size="10.00">DTO &gt;</text>
<text text-anchor="start" x="534.5" y="-223.5" font-family="Helvetica,sans-Serif" font-size="10.00"> </text>
<text text-anchor="start" x="490" y="-207.5" font-family="Helvetica,sans-Serif" font-size="10.00">+</text>
<text text-anchor="start" x="522" y="-207.5" font-family="Helvetica,sans-Serif" font-size="10.00">create()</text>
<text text-anchor="start" x="490" y="-191.5" font-family="Helvetica,sans-Serif" font-size="10.00">+</text>
<text text-anchor="start" x="522" y="-191.5" font-family="Helvetica,sans-Serif" font-size="10.00">remove()</text>
<text text-anchor="start" x="490" y="-175.5" font-family="Helvetica,sans-Serif" font-size="10.00">+</text>
<text text-anchor="start" x="522" y="-175.5" font-family="Helvetica,sans-Serif" font-size="10.00">get()</text>
<text text-anchor="start" x="490" y="-159.5" font-family="Helvetica,sans-Serif" font-size="10.00">+</text>
<text text-anchor="start" x="522" y="-159.5" font-family="Helvetica,sans-Serif" font-size="10.00">update()</text>
<polygon fill="#666666" stroke="#666666" points="464,-235 464,-235 608,-235 608,-235 464,-235"/>
<polygon fill="#666666" stroke="#666666" points="464,-219 464,-219 608,-219 608,-219 464,-219"/>
<polygon fill="none" stroke="#666666" points="464,-153 464,-265 608,-265 608,-153 464,-153"/>
</a>
</g>
</g>
<!-- Node1&#45;&gt;Node8 -->
<g id="edge7_Node000001_Node000008" class="edge">
<title>Node1&#45;&gt;Node8</title>
<g id="a_edge7_Node000001_Node000008"><a xlink:title=" ">
<path fill="none" stroke="orange" d="M710.05,-345.44C677.28,-334.52 637.15,-317.94 606,-295 594.46,-286.5 583.67,-275.68 574.18,-264.64"/>
<polygon fill="orange" stroke="orange" points="708.82,-348.72 719.41,-348.46 710.97,-342.06 708.82,-348.72"/>
</a>
</g>
<text text-anchor="middle" x="664.5" y="-285.5" font-family="Helvetica,sans-Serif" font-size="10.00" fill="grey"> &lt; GoodbyeChannelDTO &gt;</text>
</g>
<!-- Node10 -->
<g id="Node000010" class="node">
<title>Node10</title>
<g id="a_Node000010"><a xlink:href="classIRepository.html" target="_top" xlink:title=" ">
<polygon fill="white" stroke="none" points="777.5,-259 626.5,-259 626.5,-159 777.5,-159 777.5,-259"/>
<text text-anchor="start" x="631.5" y="-245.5" font-family="Helvetica,sans-Serif" font-size="10.00">IRepository&lt; LogChannelDTO &gt;</text>
<text text-anchor="start" x="700.5" y="-229.5" font-family="Helvetica,sans-Serif" font-size="10.00"> </text>
<text text-anchor="start" x="654" y="-213.5" font-family="Helvetica,sans-Serif" font-size="10.00">+</text>
<text text-anchor="start" x="687.5" y="-213.5" font-family="Helvetica,sans-Serif" font-size="10.00">create()</text>
<text text-anchor="start" x="654" y="-197.5" font-family="Helvetica,sans-Serif" font-size="10.00">+</text>
<text text-anchor="start" x="687.5" y="-197.5" font-family="Helvetica,sans-Serif" font-size="10.00">remove()</text>
<text text-anchor="start" x="654" y="-181.5" font-family="Helvetica,sans-Serif" font-size="10.00">+</text>
<text text-anchor="start" x="687.5" y="-181.5" font-family="Helvetica,sans-Serif" font-size="10.00">get()</text>
<text text-anchor="start" x="654" y="-165.5" font-family="Helvetica,sans-Serif" font-size="10.00">+</text>
<text text-anchor="start" x="687.5" y="-165.5" font-family="Helvetica,sans-Serif" font-size="10.00">update()</text>
<polygon fill="#666666" stroke="#666666" points="626.5,-241 626.5,-241 777.5,-241 777.5,-241 626.5,-241"/>
<polygon fill="#666666" stroke="#666666" points="626.5,-225 626.5,-225 777.5,-225 777.5,-225 626.5,-225"/>
<polygon fill="none" stroke="#666666" points="626.5,-159 626.5,-259 777.5,-259 777.5,-159 626.5,-159"/>
</a>
</g>
</g>
<!-- Node1&#45;&gt;Node10 -->
<g id="edge9_Node000001_Node000010" class="edge">
<title>Node1&#45;&gt;Node10</title>
<g id="a_edge9_Node000001_Node000010"><a xlink:title=" ">
<path fill="none" stroke="orange" d="M735.99,-302.89C734.69,-300.24 733.44,-297.6 732.25,-295 726.99,-283.45 722.03,-270.71 717.71,-258.67"/>
<polygon fill="orange" stroke="orange" points="732.85,-304.43 740.5,-311.75 739.08,-301.25 732.85,-304.43"/>
</a>
</g>
<text text-anchor="middle" x="779.12" y="-285.5" font-family="Helvetica,sans-Serif" font-size="10.00" fill="grey"> &lt; LogChannelDTO &gt;</text>
</g>
<!-- Node12 -->
<g id="Node000012" class="node">
<title>Node12</title>
<g id="a_Node000012"><a xlink:href="classIRepository.html" target="_top" xlink:title=" ">
<polygon fill="white" stroke="none" points="920,-259 796,-259 796,-159 920,-159 920,-259"/>
<text text-anchor="start" x="800.62" y="-245.5" font-family="Helvetica,sans-Serif" font-size="10.00">IRepository&lt; PortalDTO &gt;</text>
<text text-anchor="start" x="856.5" y="-229.5" font-family="Helvetica,sans-Serif" font-size="10.00"> </text>
<text text-anchor="start" x="817" y="-213.5" font-family="Helvetica,sans-Serif" font-size="10.00">+</text>
<text text-anchor="start" x="844" y="-213.5" font-family="Helvetica,sans-Serif" font-size="10.00">create()</text>
<text text-anchor="start" x="817" y="-197.5" font-family="Helvetica,sans-Serif" font-size="10.00">+</text>
<text text-anchor="start" x="844" y="-197.5" font-family="Helvetica,sans-Serif" font-size="10.00">remove()</text>
<text text-anchor="start" x="817" y="-181.5" font-family="Helvetica,sans-Serif" font-size="10.00">+</text>
<text text-anchor="start" x="844" y="-181.5" font-family="Helvetica,sans-Serif" font-size="10.00">get()</text>
<text text-anchor="start" x="817" y="-165.5" font-family="Helvetica,sans-Serif" font-size="10.00">+</text>
<text text-anchor="start" x="844" y="-165.5" font-family="Helvetica,sans-Serif" font-size="10.00">update()</text>
<polygon fill="#666666" stroke="#666666" points="796,-241 796,-241 920,-241 920,-241 796,-241"/>
<polygon fill="#666666" stroke="#666666" points="796,-225 796,-225 920,-225 920,-225 796,-225"/>
<polygon fill="none" stroke="#666666" points="796,-159 796,-259 920,-259 920,-159 796,-159"/>
</a>
</g>
</g>
<!-- Node1&#45;&gt;Node12 -->
<g id="edge11_Node000001_Node000012" class="edge">
<title>Node1&#45;&gt;Node12</title>
<g id="a_edge11_Node000001_Node000012"><a xlink:title=" ">
<path fill="none" stroke="orange" d="M820.42,-303.92C822.39,-300.96 824.26,-297.98 826,-295 832.52,-283.83 838.14,-271.1 842.78,-258.95"/>
<polygon fill="orange" stroke="orange" points="817.62,-301.82 814.72,-312.01 823.34,-305.85 817.62,-301.82"/>
</a>
</g>
<text text-anchor="middle" x="865.59" y="-285.5" font-family="Helvetica,sans-Serif" font-size="10.00" fill="grey"> &lt; PortalDTO &gt;</text>
</g>
<!-- Node14 -->
<g id="Node000014" class="node">
<title>Node14</title>
<g id="a_Node000014"><a xlink:href="classIRepository.html" target="_top" xlink:title=" ">
<polygon fill="white" stroke="none" points="1066,-265 938,-265 938,-153 1066,-153 1066,-265"/>
<text text-anchor="start" x="942.75" y="-251.5" font-family="Helvetica,sans-Serif" font-size="10.00">IRepository&lt; ReactionRole</text>
<text text-anchor="start" x="987" y="-239.5" font-family="Helvetica,sans-Serif" font-size="10.00">DTO &gt;</text>
<text text-anchor="start" x="1000.5" y="-223.5" font-family="Helvetica,sans-Serif" font-size="10.00"> </text>
<text text-anchor="start" x="960" y="-207.5" font-family="Helvetica,sans-Serif" font-size="10.00">+</text>
<text text-anchor="start" x="988" y="-207.5" font-family="Helvetica,sans-Serif" font-size="10.00">create()</text>
<text text-anchor="start" x="960" y="-191.5" font-family="Helvetica,sans-Serif" font-size="10.00">+</text>
<text text-anchor="start" x="988" y="-191.5" font-family="Helvetica,sans-Serif" font-size="10.00">remove()</text>
<text text-anchor="start" x="960" y="-175.5" font-family="Helvetica,sans-Serif" font-size="10.00">+</text>
<text text-anchor="start" x="988" y="-175.5" font-family="Helvetica,sans-Serif" font-size="10.00">get()</text>
<text text-anchor="start" x="960" y="-159.5" font-family="Helvetica,sans-Serif" font-size="10.00">+</text>
<text text-anchor="start" x="988" y="-159.5" font-family="Helvetica,sans-Serif" font-size="10.00">update()</text>
<polygon fill="#666666" stroke="#666666" points="938,-235 938,-235 1066,-235 1066,-235 938,-235"/>
<polygon fill="#666666" stroke="#666666" points="938,-219 938,-219 1066,-219 1066,-219 938,-219"/>
<polygon fill="none" stroke="#666666" points="938,-153 938,-265 1066,-265 1066,-153 938,-153"/>
</a>
</g>
</g>
<!-- Node1&#45;&gt;Node14 -->
<g id="edge13_Node000001_Node000014" class="edge">
<title>Node1&#45;&gt;Node14</title>
<g id="a_edge13_Node000001_Node000014"><a xlink:title=" ">
<path fill="none" stroke="orange" d="M829.52,-335.83C853.12,-324.49 880.05,-310.3 903,-295 916.48,-286.01 930.15,-275.42 942.85,-264.81"/>
<polygon fill="orange" stroke="orange" points="828.2,-332.59 820.65,-340.03 831.19,-338.92 828.2,-332.59"/>
</a>
</g>
<text text-anchor="middle" x="968.12" y="-285.5" font-family="Helvetica,sans-Serif" font-size="10.00" fill="grey"> &lt; ReactionRoleDTO &gt;</text>
</g>
<!-- Node16 -->
<g id="Node000016" class="node">
<title>Node16</title>
<g id="a_Node000016"><a xlink:href="classIRepository.html" target="_top" xlink:title=" ">
<polygon fill="white" stroke="none" points="1225.5,-259 1084.5,-259 1084.5,-159 1225.5,-159 1225.5,-259"/>
<text text-anchor="start" x="1089.38" y="-245.5" font-family="Helvetica,sans-Serif" font-size="10.00">IRepository&lt; ResourceDTO &gt;</text>
<text text-anchor="start" x="1153.5" y="-229.5" font-family="Helvetica,sans-Serif" font-size="10.00"> </text>
<text text-anchor="start" x="1109.5" y="-213.5" font-family="Helvetica,sans-Serif" font-size="10.00">+</text>
<text text-anchor="start" x="1140.5" y="-213.5" font-family="Helvetica,sans-Serif" font-size="10.00">create()</text>
<text text-anchor="start" x="1109.5" y="-197.5" font-family="Helvetica,sans-Serif" font-size="10.00">+</text>
<text text-anchor="start" x="1140.5" y="-197.5" font-family="Helvetica,sans-Serif" font-size="10.00">remove()</text>
<text text-anchor="start" x="1109.5" y="-181.5" font-family="Helvetica,sans-Serif" font-size="10.00">+</text>
<text text-anchor="start" x="1140.5" y="-181.5" font-family="Helvetica,sans-Serif" font-size="10.00">get()</text>
<text text-anchor="start" x="1109.5" y="-165.5" font-family="Helvetica,sans-Serif" font-size="10.00">+</text>
<text text-anchor="start" x="1140.5" y="-165.5" font-family="Helvetica,sans-Serif" font-size="10.00">update()</text>
<polygon fill="#666666" stroke="#666666" points="1084.5,-241 1084.5,-241 1225.5,-241 1225.5,-241 1084.5,-241"/>
<polygon fill="#666666" stroke="#666666" points="1084.5,-225 1084.5,-225 1225.5,-225 1225.5,-225 1084.5,-225"/>
<polygon fill="none" stroke="#666666" points="1084.5,-159 1084.5,-259 1225.5,-259 1225.5,-159 1084.5,-159"/>
</a>
</g>
</g>
<!-- Node1&#45;&gt;Node16 -->
<g id="edge15_Node000001_Node000016" class="edge">
<title>Node1&#45;&gt;Node16</title>
<g id="a_edge15_Node000001_Node000016"><a xlink:title=" ">
<path fill="none" stroke="orange" d="M830.35,-350.72C882.55,-339.86 959.4,-321.22 1023,-295 1047.67,-284.83 1052.43,-279.24 1075,-265 1078.14,-263.02 1081.32,-260.98 1084.53,-258.89"/>
<polygon fill="orange" stroke="orange" points="829.86,-347.24 820.76,-352.68 831.26,-354.1 829.86,-347.24"/>
</a>
</g>
<text text-anchor="middle" x="1089.21" y="-285.5" font-family="Helvetica,sans-Serif" font-size="10.00" fill="grey"> &lt; ResourceDTO &gt;</text>
</g>
<!-- Node18 -->
<g id="Node000018" class="node">
<title>Node18</title>
<g id="a_Node000018"><a xlink:href="classIRepository.html" target="_top" xlink:title=" ">
<polygon fill="white" stroke="none" points="1364,-259 1244,-259 1244,-159 1364,-159 1364,-259"/>
<text text-anchor="start" x="1248.88" y="-245.5" font-family="Helvetica,sans-Serif" font-size="10.00">IRepository&lt; UserDTO &gt;</text>
<text text-anchor="start" x="1302.5" y="-229.5" font-family="Helvetica,sans-Serif" font-size="10.00"> </text>
<text text-anchor="start" x="1264" y="-213.5" font-family="Helvetica,sans-Serif" font-size="10.00">+</text>
<text text-anchor="start" x="1290" y="-213.5" font-family="Helvetica,sans-Serif" font-size="10.00">create()</text>
<text text-anchor="start" x="1264" y="-197.5" font-family="Helvetica,sans-Serif" font-size="10.00">+</text>
<text text-anchor="start" x="1290" y="-197.5" font-family="Helvetica,sans-Serif" font-size="10.00">remove()</text>
<text text-anchor="start" x="1264" y="-181.5" font-family="Helvetica,sans-Serif" font-size="10.00">+</text>
<text text-anchor="start" x="1290" y="-181.5" font-family="Helvetica,sans-Serif" font-size="10.00">get()</text>
<text text-anchor="start" x="1264" y="-165.5" font-family="Helvetica,sans-Serif" font-size="10.00">+</text>
<text text-anchor="start" x="1290" y="-165.5" font-family="Helvetica,sans-Serif" font-size="10.00">update()</text>
<polygon fill="#666666" stroke="#666666" points="1244,-241 1244,-241 1364,-241 1364,-241 1244,-241"/>
<polygon fill="#666666" stroke="#666666" points="1244,-225 1244,-225 1364,-225 1364,-225 1244,-225"/>
<polygon fill="none" stroke="#666666" points="1244,-159 1244,-259 1364,-259 1364,-159 1244,-159"/>
</a>
</g>
</g>
<!-- Node1&#45;&gt;Node18 -->
<g id="edge17_Node000001_Node000018" class="edge">
<title>Node1&#45;&gt;Node18</title>
<g id="a_edge17_Node000001_Node000018"><a xlink:title=" ">
<path fill="none" stroke="orange" d="M830.82,-359.82C923.16,-354.26 1102.05,-334.59 1235,-265 1238.53,-263.15 1242.05,-261.11 1245.54,-258.94"/>
<polygon fill="orange" stroke="orange" points="830.75,-356.31 820.96,-360.37 831.14,-363.3 830.75,-356.31"/>
</a>
</g>
<text text-anchor="middle" x="1220.05" y="-285.5" font-family="Helvetica,sans-Serif" font-size="10.00" fill="grey"> &lt; UserDTO &gt;</text>
</g>
<!-- Node20 -->
<g id="Node000020" class="node">
<title>Node20</title>
<g id="a_Node000020"><a xlink:href="classIRepository.html" target="_top" xlink:title=" ">
<polygon fill="white" stroke="none" points="1527.5,-265 1382.5,-265 1382.5,-153 1527.5,-153 1527.5,-265"/>
<text text-anchor="start" x="1387.12" y="-251.5" font-family="Helvetica,sans-Serif" font-size="10.00">IRepository&lt; WelcomeChannel</text>
<text text-anchor="start" x="1440" y="-239.5" font-family="Helvetica,sans-Serif" font-size="10.00">DTO &gt;</text>
<text text-anchor="start" x="1453.5" y="-223.5" font-family="Helvetica,sans-Serif" font-size="10.00"> </text>
<text text-anchor="start" x="1408.5" y="-207.5" font-family="Helvetica,sans-Serif" font-size="10.00">+</text>
<text text-anchor="start" x="1440.5" y="-207.5" font-family="Helvetica,sans-Serif" font-size="10.00">create()</text>
<text text-anchor="start" x="1408.5" y="-191.5" font-family="Helvetica,sans-Serif" font-size="10.00">+</text>
<text text-anchor="start" x="1440.5" y="-191.5" font-family="Helvetica,sans-Serif" font-size="10.00">remove()</text>
<text text-anchor="start" x="1408.5" y="-175.5" font-family="Helvetica,sans-Serif" font-size="10.00">+</text>
<text text-anchor="start" x="1440.5" y="-175.5" font-family="Helvetica,sans-Serif" font-size="10.00">get()</text>
<text text-anchor="start" x="1408.5" y="-159.5" font-family="Helvetica,sans-Serif" font-size="10.00">+</text>
<text text-anchor="start" x="1440.5" y="-159.5" font-family="Helvetica,sans-Serif" font-size="10.00">update()</text>
<polygon fill="#666666" stroke="#666666" points="1382.5,-235 1382.5,-235 1527.5,-235 1527.5,-235 1382.5,-235"/>
<polygon fill="#666666" stroke="#666666" points="1382.5,-219 1382.5,-219 1527.5,-219 1527.5,-219 1382.5,-219"/>
<polygon fill="none" stroke="#666666" points="1382.5,-153 1382.5,-265 1527.5,-265 1527.5,-153 1382.5,-153"/>
</a>
</g>
</g>
<!-- Node1&#45;&gt;Node20 -->
<g id="edge19_Node000001_Node000020" class="edge">
<title>Node1&#45;&gt;Node20</title>
<g id="a_edge19_Node000001_Node000020"><a xlink:title=" ">
<path fill="none" stroke="orange" d="M830.64,-355.89C922.97,-346.08 1104.12,-324.84 1256,-295 1308.68,-284.65 1324,-286.93 1373,-265 1376.29,-263.53 1379.58,-261.93 1382.87,-260.23"/>
<polygon fill="orange" stroke="orange" points="830.37,-352.4 820.79,-356.93 831.1,-359.36 830.37,-352.4"/>
</a>
</g>
<text text-anchor="middle" x="1381.08" y="-285.5" font-family="Helvetica,sans-Serif" font-size="10.00" fill="grey"> &lt; WelcomeChannelDTO &gt;</text>
</g>
<!-- Node3 -->
<g id="Node000003" class="node">
<title>Node3</title>
<g id="a_Node000003"><a xlink:href="classBlacklistRepository.html" target="_top" xlink:title=" ">
<polygon fill="white" stroke="none" points="115,-116 21,-116 21,0 115,0 115,-116"/>
<text text-anchor="start" x="25.62" y="-102.5" font-family="Helvetica,sans-Serif" font-size="10.00">BlacklistRepository</text>
<text text-anchor="start" x="66.5" y="-86.5" font-family="Helvetica,sans-Serif" font-size="10.00"> </text>
<text text-anchor="start" x="34.5" y="-70.5" font-family="Helvetica,sans-Serif" font-size="10.00">+</text>
<text text-anchor="start" x="54" y="-70.5" font-family="Helvetica,sans-Serif" font-size="10.00">create()</text>
<text text-anchor="start" x="34.5" y="-54.5" font-family="Helvetica,sans-Serif" font-size="10.00">+</text>
<text text-anchor="start" x="54" y="-54.5" font-family="Helvetica,sans-Serif" font-size="10.00">remove()</text>
<text text-anchor="start" x="34.5" y="-38.5" font-family="Helvetica,sans-Serif" font-size="10.00">+</text>
<text text-anchor="start" x="54" y="-38.5" font-family="Helvetica,sans-Serif" font-size="10.00">get()</text>
<text text-anchor="start" x="34.5" y="-22.5" font-family="Helvetica,sans-Serif" font-size="10.00">+</text>
<text text-anchor="start" x="54" y="-22.5" font-family="Helvetica,sans-Serif" font-size="10.00">update()</text>
<text text-anchor="start" x="34.5" y="-6.5" font-family="Helvetica,sans-Serif" font-size="10.00">+</text>
<text text-anchor="start" x="54" y="-6.5" font-family="Helvetica,sans-Serif" font-size="10.00">getAll()</text>
<polygon fill="#666666" stroke="#666666" points="21,-98 21,-98 115,-98 115,-98 21,-98"/>
<polygon fill="#666666" stroke="#666666" points="21,-82 21,-82 115,-82 115,-82 21,-82"/>
<polygon fill="none" stroke="#666666" points="21,0 21,-116 115,-116 115,0 21,0"/>
</a>
</g>
</g>
<!-- Node2&#45;&gt;Node3 -->
<g id="edge2_Node000002_Node000003" class="edge">
<title>Node2&#45;&gt;Node3</title>
<g id="a_edge2_Node000002_Node000003"><a xlink:title=" ">
<path fill="none" stroke="#63b8ff" d="M68,-147.94C68,-137.38 68,-126.4 68,-115.93"/>
<polygon fill="none" stroke="#63b8ff" points="64.5,-147.7 68,-157.7 71.5,-147.7 64.5,-147.7"/>
</a>
</g>
</g>
<!-- Node5 -->
<g id="Node000005" class="node">
<title>Node5</title>
<g id="a_Node000005"><a xlink:href="classChallengeBadgeRepository.html" target="_top" xlink:title=" ">
<polygon fill="white" stroke="none" points="288,-108 160,-108 160,-8 288,-8 288,-108"/>
<text text-anchor="start" x="164.75" y="-94.5" font-family="Helvetica,sans-Serif" font-size="10.00">ChallengeBadgeRepository</text>
<text text-anchor="start" x="222.5" y="-78.5" font-family="Helvetica,sans-Serif" font-size="10.00"> </text>
<text text-anchor="start" x="182" y="-62.5" font-family="Helvetica,sans-Serif" font-size="10.00">+</text>
<text text-anchor="start" x="210" y="-62.5" font-family="Helvetica,sans-Serif" font-size="10.00">create()</text>
<text text-anchor="start" x="182" y="-46.5" font-family="Helvetica,sans-Serif" font-size="10.00">+</text>
<text text-anchor="start" x="210" y="-46.5" font-family="Helvetica,sans-Serif" font-size="10.00">remove()</text>
<text text-anchor="start" x="182" y="-30.5" font-family="Helvetica,sans-Serif" font-size="10.00">+</text>
<text text-anchor="start" x="210" y="-30.5" font-family="Helvetica,sans-Serif" font-size="10.00">get()</text>
<text text-anchor="start" x="182" y="-14.5" font-family="Helvetica,sans-Serif" font-size="10.00">+</text>
<text text-anchor="start" x="210" y="-14.5" font-family="Helvetica,sans-Serif" font-size="10.00">update()</text>
<polygon fill="#666666" stroke="#666666" points="160,-90 160,-90 288,-90 288,-90 160,-90"/>
<polygon fill="#666666" stroke="#666666" points="160,-74 160,-74 288,-74 288,-74 160,-74"/>
<polygon fill="none" stroke="#666666" points="160,-8 160,-108 288,-108 288,-8 160,-8"/>
</a>
</g>
</g>
<!-- Node4&#45;&gt;Node5 -->
<g id="edge4_Node000004_Node000005" class="edge">
<title>Node4&#45;&gt;Node5</title>
<g id="a_edge4_Node000004_Node000005"><a xlink:title=" ">
<path fill="none" stroke="#63b8ff" d="M224,-141.98C224,-130.46 224,-118.66 224,-107.72"/>
<polygon fill="none" stroke="#63b8ff" points="220.5,-141.85 224,-151.85 227.5,-141.85 220.5,-141.85"/>
</a>
</g>
</g>
<!-- Node7 -->
<g id="Node000007" class="node">
<title>Node7</title>
<g id="a_Node000007"><a xlink:href="classChallengeRoleRepository.html" target="_top" xlink:title=" ">
<polygon fill="white" stroke="none" points="439.5,-108 318.5,-108 318.5,-8 439.5,-8 439.5,-108"/>
<text text-anchor="start" x="323.5" y="-94.5" font-family="Helvetica,sans-Serif" font-size="10.00">ChallengeRoleRepository</text>
<text text-anchor="start" x="377.5" y="-78.5" font-family="Helvetica,sans-Serif" font-size="10.00"> </text>
<text text-anchor="start" x="338.5" y="-62.5" font-family="Helvetica,sans-Serif" font-size="10.00">+</text>
<text text-anchor="start" x="364.5" y="-62.5" font-family="Helvetica,sans-Serif" font-size="10.00">create()</text>
<text text-anchor="start" x="338.5" y="-46.5" font-family="Helvetica,sans-Serif" font-size="10.00">+</text>
<text text-anchor="start" x="364.5" y="-46.5" font-family="Helvetica,sans-Serif" font-size="10.00">remove()</text>
<text text-anchor="start" x="338.5" y="-30.5" font-family="Helvetica,sans-Serif" font-size="10.00">+</text>
<text text-anchor="start" x="364.5" y="-30.5" font-family="Helvetica,sans-Serif" font-size="10.00">get()</text>
<text text-anchor="start" x="338.5" y="-14.5" font-family="Helvetica,sans-Serif" font-size="10.00">+</text>
<text text-anchor="start" x="364.5" y="-14.5" font-family="Helvetica,sans-Serif" font-size="10.00">update()</text>
<polygon fill="#666666" stroke="#666666" points="318.5,-90 318.5,-90 439.5,-90 439.5,-90 318.5,-90"/>
<polygon fill="#666666" stroke="#666666" points="318.5,-74 318.5,-74 439.5,-74 439.5,-74 318.5,-74"/>
<polygon fill="none" stroke="#666666" points="318.5,-8 318.5,-108 439.5,-108 439.5,-8 318.5,-8"/>
</a>
</g>
</g>
<!-- Node6&#45;&gt;Node7 -->
<g id="edge6_Node000006_Node000007" class="edge">
<title>Node6&#45;&gt;Node7</title>
<g id="a_edge6_Node000006_Node000007"><a xlink:title=" ">
<path fill="none" stroke="#63b8ff" d="M379,-141.98C379,-130.46 379,-118.66 379,-107.72"/>
<polygon fill="none" stroke="#63b8ff" points="375.5,-141.85 379,-151.85 382.5,-141.85 375.5,-141.85"/>
</a>
</g>
</g>
<!-- Node9 -->
<g id="Node000009" class="node">
<title>Node9</title>
<g id="a_Node000009"><a xlink:href="classGoodbyeChannelRepository.html" target="_top" xlink:title=" ">
<polygon fill="white" stroke="none" points="602,-108 470,-108 470,-8 602,-8 602,-108"/>
<text text-anchor="start" x="474.88" y="-94.5" font-family="Helvetica,sans-Serif" font-size="10.00">GoodbyeChannelRepository</text>
<text text-anchor="start" x="534.5" y="-78.5" font-family="Helvetica,sans-Serif" font-size="10.00"> </text>
<text text-anchor="start" x="493" y="-62.5" font-family="Helvetica,sans-Serif" font-size="10.00">+</text>
<text text-anchor="start" x="522" y="-62.5" font-family="Helvetica,sans-Serif" font-size="10.00">create()</text>
<text text-anchor="start" x="493" y="-46.5" font-family="Helvetica,sans-Serif" font-size="10.00">+</text>
<text text-anchor="start" x="522" y="-46.5" font-family="Helvetica,sans-Serif" font-size="10.00">remove()</text>
<text text-anchor="start" x="493" y="-30.5" font-family="Helvetica,sans-Serif" font-size="10.00">+</text>
<text text-anchor="start" x="522" y="-30.5" font-family="Helvetica,sans-Serif" font-size="10.00">get()</text>
<text text-anchor="start" x="493" y="-14.5" font-family="Helvetica,sans-Serif" font-size="10.00">+</text>
<text text-anchor="start" x="522" y="-14.5" font-family="Helvetica,sans-Serif" font-size="10.00">update()</text>
<polygon fill="#666666" stroke="#666666" points="470,-90 470,-90 602,-90 602,-90 470,-90"/>
<polygon fill="#666666" stroke="#666666" points="470,-74 470,-74 602,-74 602,-74 470,-74"/>
<polygon fill="none" stroke="#666666" points="470,-8 470,-108 602,-108 602,-8 470,-8"/>
</a>
</g>
</g>
<!-- Node8&#45;&gt;Node9 -->
<g id="edge8_Node000008_Node000009" class="edge">
<title>Node8&#45;&gt;Node9</title>
<g id="a_edge8_Node000008_Node000009"><a xlink:title=" ">
<path fill="none" stroke="#63b8ff" d="M536,-141.98C536,-130.46 536,-118.66 536,-107.72"/>
<polygon fill="none" stroke="#63b8ff" points="532.5,-141.85 536,-151.85 539.5,-141.85 532.5,-141.85"/>
</a>
</g>
</g>
<!-- Node11 -->
<g id="Node000011" class="node">
<title>Node11</title>
<g id="a_Node000011"><a xlink:href="classLogChannelRepository.html" target="_top" xlink:title=" ">
<polygon fill="white" stroke="none" points="756.5,-108 647.5,-108 647.5,-8 756.5,-8 756.5,-108"/>
<text text-anchor="start" x="652.5" y="-94.5" font-family="Helvetica,sans-Serif" font-size="10.00">LogChannelRepository</text>
<text text-anchor="start" x="700.5" y="-78.5" font-family="Helvetica,sans-Serif" font-size="10.00"> </text>
<text text-anchor="start" x="664.5" y="-62.5" font-family="Helvetica,sans-Serif" font-size="10.00">+</text>
<text text-anchor="start" x="687.5" y="-62.5" font-family="Helvetica,sans-Serif" font-size="10.00">create()</text>
<text text-anchor="start" x="664.5" y="-46.5" font-family="Helvetica,sans-Serif" font-size="10.00">+</text>
<text text-anchor="start" x="687.5" y="-46.5" font-family="Helvetica,sans-Serif" font-size="10.00">remove()</text>
<text text-anchor="start" x="664.5" y="-30.5" font-family="Helvetica,sans-Serif" font-size="10.00">+</text>
<text text-anchor="start" x="687.5" y="-30.5" font-family="Helvetica,sans-Serif" font-size="10.00">get()</text>
<text text-anchor="start" x="664.5" y="-14.5" font-family="Helvetica,sans-Serif" font-size="10.00">+</text>
<text text-anchor="start" x="687.5" y="-14.5" font-family="Helvetica,sans-Serif" font-size="10.00">update()</text>
<polygon fill="#666666" stroke="#666666" points="647.5,-90 647.5,-90 756.5,-90 756.5,-90 647.5,-90"/>
<polygon fill="#666666" stroke="#666666" points="647.5,-74 647.5,-74 756.5,-74 756.5,-74 647.5,-74"/>
<polygon fill="none" stroke="#666666" points="647.5,-8 647.5,-108 756.5,-108 756.5,-8 647.5,-8"/>
</a>
</g>
</g>
<!-- Node10&#45;&gt;Node11 -->
<g id="edge10_Node000010_Node000011" class="edge">
<title>Node10&#45;&gt;Node11</title>
<g id="a_edge10_Node000010_Node000011"><a xlink:title=" ">
<path fill="none" stroke="#63b8ff" d="M702,-147.77C702,-134.52 702,-120.64 702,-107.9"/>
<polygon fill="none" stroke="#63b8ff" points="698.5,-147.7 702,-157.7 705.5,-147.7 698.5,-147.7"/>
</a>
</g>
</g>
<!-- Node13 -->
<g id="Node000013" class="node">
<title>Node13</title>
<g id="a_Node000013"><a xlink:href="classPortalRepository.html" target="_top" xlink:title=" ">
<polygon fill="white" stroke="none" points="899,-116 817,-116 817,0 899,0 899,-116"/>
<text text-anchor="start" x="821.62" y="-102.5" font-family="Helvetica,sans-Serif" font-size="10.00">PortalRepository</text>
<text text-anchor="start" x="856.5" y="-86.5" font-family="Helvetica,sans-Serif" font-size="10.00"> </text>
<text text-anchor="start" x="827.5" y="-70.5" font-family="Helvetica,sans-Serif" font-size="10.00">+</text>
<text text-anchor="start" x="844" y="-70.5" font-family="Helvetica,sans-Serif" font-size="10.00">create()</text>
<text text-anchor="start" x="827.5" y="-54.5" font-family="Helvetica,sans-Serif" font-size="10.00">+</text>
<text text-anchor="start" x="844" y="-54.5" font-family="Helvetica,sans-Serif" font-size="10.00">remove()</text>
<text text-anchor="start" x="827.5" y="-38.5" font-family="Helvetica,sans-Serif" font-size="10.00">+</text>
<text text-anchor="start" x="844" y="-38.5" font-family="Helvetica,sans-Serif" font-size="10.00">get()</text>
<text text-anchor="start" x="827.5" y="-22.5" font-family="Helvetica,sans-Serif" font-size="10.00">+</text>
<text text-anchor="start" x="844" y="-22.5" font-family="Helvetica,sans-Serif" font-size="10.00">update()</text>
<text text-anchor="start" x="827.5" y="-6.5" font-family="Helvetica,sans-Serif" font-size="10.00">+</text>
<text text-anchor="start" x="844" y="-6.5" font-family="Helvetica,sans-Serif" font-size="10.00">getAll()</text>
<polygon fill="#666666" stroke="#666666" points="817,-98 817,-98 899,-98 899,-98 817,-98"/>
<polygon fill="#666666" stroke="#666666" points="817,-82 817,-82 899,-82 899,-82 817,-82"/>
<polygon fill="none" stroke="#666666" points="817,0 817,-116 899,-116 899,0 817,0"/>
</a>
</g>
</g>
<!-- Node12&#45;&gt;Node13 -->
<g id="edge12_Node000012_Node000013" class="edge">
<title>Node12&#45;&gt;Node13</title>
<g id="a_edge12_Node000012_Node000013"><a xlink:title=" ">
<path fill="none" stroke="#63b8ff" d="M858,-147.94C858,-137.38 858,-126.4 858,-115.93"/>
<polygon fill="none" stroke="#63b8ff" points="854.5,-147.7 858,-157.7 861.5,-147.7 854.5,-147.7"/>
</a>
</g>
</g>
<!-- Node15 -->
<g id="Node000015" class="node">
<title>Node15</title>
<g id="a_Node000015"><a xlink:href="classReactionRoleRepository.html" target="_top" xlink:title=" ">
<polygon fill="white" stroke="none" points="1060,-116 944,-116 944,0 1060,0 1060,-116"/>
<text text-anchor="start" x="948.75" y="-102.5" font-family="Helvetica,sans-Serif" font-size="10.00">ReactionRoleRepository</text>
<text text-anchor="start" x="1000.5" y="-86.5" font-family="Helvetica,sans-Serif" font-size="10.00"> </text>
<text text-anchor="start" x="963" y="-70.5" font-family="Helvetica,sans-Serif" font-size="10.00">+</text>
<text text-anchor="start" x="988" y="-70.5" font-family="Helvetica,sans-Serif" font-size="10.00">create()</text>
<text text-anchor="start" x="963" y="-54.5" font-family="Helvetica,sans-Serif" font-size="10.00">+</text>
<text text-anchor="start" x="988" y="-54.5" font-family="Helvetica,sans-Serif" font-size="10.00">remove()</text>
<text text-anchor="start" x="963" y="-38.5" font-family="Helvetica,sans-Serif" font-size="10.00">+</text>
<text text-anchor="start" x="988" y="-38.5" font-family="Helvetica,sans-Serif" font-size="10.00">get()</text>
<text text-anchor="start" x="963" y="-22.5" font-family="Helvetica,sans-Serif" font-size="10.00">+</text>
<text text-anchor="start" x="988" y="-22.5" font-family="Helvetica,sans-Serif" font-size="10.00">get()</text>
<text text-anchor="start" x="963" y="-6.5" font-family="Helvetica,sans-Serif" font-size="10.00">+</text>
<text text-anchor="start" x="988" y="-6.5" font-family="Helvetica,sans-Serif" font-size="10.00">update()</text>
<polygon fill="#666666" stroke="#666666" points="944,-98 944,-98 1060,-98 1060,-98 944,-98"/>
<polygon fill="#666666" stroke="#666666" points="944,-82 944,-82 1060,-82 1060,-82 944,-82"/>
<polygon fill="none" stroke="#666666" points="944,0 944,-116 1060,-116 1060,0 944,0"/>
</a>
</g>
</g>
<!-- Node14&#45;&gt;Node15 -->
<g id="edge14_Node000014_Node000015" class="edge">
<title>Node14&#45;&gt;Node15</title>
<g id="a_edge14_Node000014_Node000015"><a xlink:title=" ">
<path fill="none" stroke="#63b8ff" d="M1002,-142.03C1002,-133.31 1002,-124.43 1002,-115.88"/>
<polygon fill="none" stroke="#63b8ff" points="998.5,-141.85 1002,-151.85 1005.5,-141.85 998.5,-141.85"/>
</a>
</g>
</g>
<!-- Node17 -->
<g id="Node000017" class="node">
<title>Node17</title>
<g id="a_Node000017"><a xlink:href="classResourceRepository.html" target="_top" xlink:title=" ">
<polygon fill="white" stroke="none" points="1204.5,-108 1105.5,-108 1105.5,-8 1204.5,-8 1204.5,-108"/>
<text text-anchor="start" x="1110.38" y="-94.5" font-family="Helvetica,sans-Serif" font-size="10.00">ResourceRepository</text>
<text text-anchor="start" x="1153.5" y="-78.5" font-family="Helvetica,sans-Serif" font-size="10.00"> </text>
<text text-anchor="start" x="1120" y="-62.5" font-family="Helvetica,sans-Serif" font-size="10.00">+</text>
<text text-anchor="start" x="1140.5" y="-62.5" font-family="Helvetica,sans-Serif" font-size="10.00">create()</text>
<text text-anchor="start" x="1120" y="-46.5" font-family="Helvetica,sans-Serif" font-size="10.00">+</text>
<text text-anchor="start" x="1140.5" y="-46.5" font-family="Helvetica,sans-Serif" font-size="10.00">remove()</text>
<text text-anchor="start" x="1120" y="-30.5" font-family="Helvetica,sans-Serif" font-size="10.00">+</text>
<text text-anchor="start" x="1140.5" y="-30.5" font-family="Helvetica,sans-Serif" font-size="10.00">get()</text>
<text text-anchor="start" x="1120" y="-14.5" font-family="Helvetica,sans-Serif" font-size="10.00">+</text>
<text text-anchor="start" x="1140.5" y="-14.5" font-family="Helvetica,sans-Serif" font-size="10.00">update()</text>
<polygon fill="#666666" stroke="#666666" points="1105.5,-90 1105.5,-90 1204.5,-90 1204.5,-90 1105.5,-90"/>
<polygon fill="#666666" stroke="#666666" points="1105.5,-74 1105.5,-74 1204.5,-74 1204.5,-74 1105.5,-74"/>
<polygon fill="none" stroke="#666666" points="1105.5,-8 1105.5,-108 1204.5,-108 1204.5,-8 1105.5,-8"/>
</a>
</g>
</g>
<!-- Node16&#45;&gt;Node17 -->
<g id="edge16_Node000016_Node000017" class="edge">
<title>Node16&#45;&gt;Node17</title>
<g id="a_edge16_Node000016_Node000017"><a xlink:title=" ">
<path fill="none" stroke="#63b8ff" d="M1155,-147.77C1155,-134.52 1155,-120.64 1155,-107.9"/>
<polygon fill="none" stroke="#63b8ff" points="1151.5,-147.7 1155,-157.7 1158.5,-147.7 1151.5,-147.7"/>
</a>
</g>
</g>
<!-- Node19 -->
<g id="Node000019" class="node">
<title>Node19</title>
<g id="a_Node000019"><a xlink:href="classUserRepository.html" target="_top" xlink:title=" ">
<polygon fill="white" stroke="none" points="1343,-108 1265,-108 1265,-8 1343,-8 1343,-108"/>
<text text-anchor="start" x="1269.88" y="-94.5" font-family="Helvetica,sans-Serif" font-size="10.00">UserRepository</text>
<text text-anchor="start" x="1302.5" y="-78.5" font-family="Helvetica,sans-Serif" font-size="10.00"> </text>
<text text-anchor="start" x="1274.5" y="-62.5" font-family="Helvetica,sans-Serif" font-size="10.00">+</text>
<text text-anchor="start" x="1290" y="-62.5" font-family="Helvetica,sans-Serif" font-size="10.00">create()</text>
<text text-anchor="start" x="1274.5" y="-46.5" font-family="Helvetica,sans-Serif" font-size="10.00">+</text>
<text text-anchor="start" x="1290" y="-46.5" font-family="Helvetica,sans-Serif" font-size="10.00">remove()</text>
<text text-anchor="start" x="1274.5" y="-30.5" font-family="Helvetica,sans-Serif" font-size="10.00">+</text>
<text text-anchor="start" x="1290" y="-30.5" font-family="Helvetica,sans-Serif" font-size="10.00">get()</text>
<text text-anchor="start" x="1274.5" y="-14.5" font-family="Helvetica,sans-Serif" font-size="10.00">+</text>
<text text-anchor="start" x="1290" y="-14.5" font-family="Helvetica,sans-Serif" font-size="10.00">update()</text>
<polygon fill="#666666" stroke="#666666" points="1265,-90 1265,-90 1343,-90 1343,-90 1265,-90"/>
<polygon fill="#666666" stroke="#666666" points="1265,-74 1265,-74 1343,-74 1343,-74 1265,-74"/>
<polygon fill="none" stroke="#666666" points="1265,-8 1265,-108 1343,-108 1343,-8 1265,-8"/>
</a>
</g>
</g>
<!-- Node18&#45;&gt;Node19 -->
<g id="edge18_Node000018_Node000019" class="edge">
<title>Node18&#45;&gt;Node19</title>
<g id="a_edge18_Node000018_Node000019"><a xlink:title=" ">
<path fill="none" stroke="#63b8ff" d="M1304,-147.77C1304,-134.52 1304,-120.64 1304,-107.9"/>
<polygon fill="none" stroke="#63b8ff" points="1300.5,-147.7 1304,-157.7 1307.5,-147.7 1300.5,-147.7"/>
</a>
</g>
</g>
<!-- Node21 -->
<g id="Node000021" class="node">
<title>Node21</title>
<g id="a_Node000021"><a xlink:href="classWelcomeChannelRepository.html" target="_top" xlink:title=" ">
<polygon fill="white" stroke="none" points="1521.5,-108 1388.5,-108 1388.5,-8 1521.5,-8 1521.5,-108"/>
<text text-anchor="start" x="1393.12" y="-94.5" font-family="Helvetica,sans-Serif" font-size="10.00">WelcomeChannelRepository</text>
<text text-anchor="start" x="1453.5" y="-78.5" font-family="Helvetica,sans-Serif" font-size="10.00"> </text>
<text text-anchor="start" x="1411.5" y="-62.5" font-family="Helvetica,sans-Serif" font-size="10.00">+</text>
<text text-anchor="start" x="1440.5" y="-62.5" font-family="Helvetica,sans-Serif" font-size="10.00">create()</text>
<text text-anchor="start" x="1411.5" y="-46.5" font-family="Helvetica,sans-Serif" font-size="10.00">+</text>
<text text-anchor="start" x="1440.5" y="-46.5" font-family="Helvetica,sans-Serif" font-size="10.00">remove()</text>
<text text-anchor="start" x="1411.5" y="-30.5" font-family="Helvetica,sans-Serif" font-size="10.00">+</text>
<text text-anchor="start" x="1440.5" y="-30.5" font-family="Helvetica,sans-Serif" font-size="10.00">get()</text>
<text text-anchor="start" x="1411.5" y="-14.5" font-family="Helvetica,sans-Serif" font-size="10.00">+</text>
<text text-anchor="start" x="1440.5" y="-14.5" font-family="Helvetica,sans-Serif" font-size="10.00">update()</text>
<polygon fill="#666666" stroke="#666666" points="1388.5,-90 1388.5,-90 1521.5,-90 1521.5,-90 1388.5,-90"/>
<polygon fill="#666666" stroke="#666666" points="1388.5,-74 1388.5,-74 1521.5,-74 1521.5,-74 1388.5,-74"/>
<polygon fill="none" stroke="#666666" points="1388.5,-8 1388.5,-108 1521.5,-108 1521.5,-8 1388.5,-8"/>
</a>
</g>
</g>
<!-- Node20&#45;&gt;Node21 -->
<g id="edge20_Node000020_Node000021" class="edge">
<title>Node20&#45;&gt;Node21</title>
<g id="a_edge20_Node000020_Node000021"><a xlink:title=" ">
<path fill="none" stroke="#63b8ff" d="M1455,-141.98C1455,-130.46 1455,-118.66 1455,-107.72"/>
<polygon fill="none" stroke="#63b8ff" points="1451.5,-141.85 1455,-151.85 1458.5,-141.85 1451.5,-141.85"/>
</a>
</g>
</g>
</g>
</svg>
