<?xml version="1.0" encoding="UTF-8" standalone="no"?>
<!DOCTYPE svg PUBLIC "-//W3C//DTD SVG 1.1//EN"
 "http://www.w3.org/Graphics/SVG/1.1/DTD/svg11.dtd">
<!-- Generated by graphviz version 13.0.1 (0)
 -->
<!-- Title: BugReportCommand Pages: 1 -->
<svg width="255pt" height="315pt"
 viewBox="0.00 0.00 255.00 315.00" xmlns="http://www.w3.org/2000/svg" xmlns:xlink="http://www.w3.org/1999/xlink">
<g id="graph0" class="graph" transform="scale(1 1) rotate(0) translate(4 311)">
<title>BugReportCommand</title>
<!-- Node1 -->
<g id="Node000001" class="node">
<title>Node1</title>
<g id="a_Node000001"><a xlink:title=" ">
<polygon fill="#999999" stroke="none" points="227.75,-84 112.25,-84 112.25,0 227.75,0 227.75,-84"/>
<text xml:space="preserve" text-anchor="start" x="124.25" y="-70.5" font-family="Helvetica,sans-Serif" font-size="10.00">BugReportCommand</text>
<text xml:space="preserve" text-anchor="start" x="168.5" y="-54.5" font-family="Helvetica,sans-Serif" font-size="10.00"> </text>
<text xml:space="preserve" text-anchor="start" x="116.25" y="-38.5" font-family="Helvetica,sans-Serif" font-size="10.00">+</text>
<text xml:space="preserve" text-anchor="start" x="126.25" y="-38.5" font-family="Helvetica,sans-Serif" font-size="10.00">BugReportCommand()</text>
<text xml:space="preserve" text-anchor="start" x="116.25" y="-22.5" font-family="Helvetica,sans-Serif" font-size="10.00">+</text>
<text xml:space="preserve" text-anchor="start" x="126.25" y="-22.5" font-family="Helvetica,sans-Serif" font-size="10.00">on_slashcommand()</text>
<text xml:space="preserve" text-anchor="start" x="116.25" y="-6.5" font-family="Helvetica,sans-Serif" font-size="10.00">+</text>
<text xml:space="preserve" text-anchor="start" x="126.25" y="-6.5" font-family="Helvetica,sans-Serif" font-size="10.00">on_form_submit()</text>
<polygon fill="#666666" stroke="#666666" points="112.25,-66 112.25,-66 227.75,-66 227.75,-66 112.25,-66"/>
<polygon fill="#666666" stroke="#666666" points="112.25,-50 112.25,-50 227.75,-50 227.75,-50 112.25,-50"/>
<polygon fill="none" stroke="#666666" points="112.25,0 112.25,-84 227.75,-84 227.75,0 112.25,0"/>
</a>
</g>
</g>
<!-- Node2 -->
<g id="Node000002" class="node">
<title>Node2</title>
<g id="a_Node000002"><a xlink:href="classIGlobalSlashCommand.html" target="_top" xlink:title=" ">
<polygon fill="white" stroke="none" points="135.25,-173 26.75,-173 26.75,-121 135.25,-121 135.25,-173"/>
<text xml:space="preserve" text-anchor="start" x="30.75" y="-159.5" font-family="Helvetica,sans-Serif" font-size="10.00">IGlobalSlashCommand</text>
<text xml:space="preserve" text-anchor="start" x="79.5" y="-143.5" font-family="Helvetica,sans-Serif" font-size="10.00"> </text>
<text xml:space="preserve" text-anchor="start" x="31.44" y="-127.5" font-family="Helvetica,sans-Serif" font-size="10.00">+</text>
<text xml:space="preserve" text-anchor="start" x="42.12" y="-127.5" font-family="Helvetica,sans-Serif" font-size="10.00">on_slashcommand()</text>
<polygon fill="#666666" stroke="#666666" points="26.75,-155 26.75,-155 135.25,-155 135.25,-155 26.75,-155"/>
<polygon fill="#666666" stroke="#666666" points="26.75,-139 26.75,-139 135.25,-139 135.25,-139 26.75,-139"/>
<polygon fill="none" stroke="#666666" points="26.75,-121 26.75,-173 135.25,-173 135.25,-121 26.75,-121"/>
</a>
</g>
</g>
<!-- Node2&#45;&gt;Node1 -->
<g id="edge1_Node000001_Node000002" class="edge">
<title>Node2&#45;&gt;Node1</title>
<g id="a_edge1_Node000001_Node000002"><a xlink:title=" ">
<path fill="none" stroke="#63b8ff" d="M109.88,-112.57C117.82,-103.39 126.52,-93.32 134.77,-83.77"/>
<polygon fill="none" stroke="#63b8ff" points="107.42,-110.07 103.53,-119.92 112.72,-114.64 107.42,-110.07"/>
</a>
</g>
</g>
<!-- Node3 -->
<g id="Node000003" class="node">
<title>Node3</title>
<g id="a_Node000003"><a xlink:title=" ">
<polygon fill="white" stroke="none" points="32,-301 0,-301 0,-249 32,-249 32,-301"/>
<text xml:space="preserve" text-anchor="start" x="4" y="-287.5" font-family="Helvetica,sans-Serif" font-size="10.00">string</text>
<text xml:space="preserve" text-anchor="start" x="14.5" y="-271.5" font-family="Helvetica,sans-Serif" font-size="10.00"> </text>
<text xml:space="preserve" text-anchor="start" x="14.5" y="-255.5" font-family="Helvetica,sans-Serif" font-size="10.00"> </text>
<polygon fill="#666666" stroke="#666666" points="0,-283 0,-283 32,-283 32,-283 0,-283"/>
<polygon fill="#666666" stroke="#666666" points="0,-267 0,-267 32,-267 32,-267 0,-267"/>
<polygon fill="none" stroke="#666666" points="0,-249 0,-301 32,-301 32,-249 0,-249"/>
</a>
</g>
</g>
<!-- Node3&#45;&gt;Node2 -->
<g id="edge2_Node000002_Node000003" class="edge">
<title>Node3&#45;&gt;Node2</title>
<g id="a_edge2_Node000002_Node000003"><a xlink:title=" ">
<path fill="none" stroke="#63b8ff" d="M10.42,-249.25C7.84,-231.91 7.17,-208.75 16.75,-191 18.51,-187.73 20.65,-184.67 23.05,-181.81"/>
<polygon fill="none" stroke="#63b8ff" points="22.94,-181.91 24.38,-174.84 31.46,-173.46 30.02,-180.52 22.94,-181.91"/>
</a>
</g>
<text xml:space="preserve" text-anchor="start" x="19.75" y="-212.5" font-family="Helvetica,sans-Serif" font-size="10.00" fill="grey">+command_description</text>
<text xml:space="preserve" text-anchor="start" x="19.75" y="-196.5" font-family="Helvetica,sans-Serif" font-size="10.00" fill="grey">+command_name</text>
</g>
<!-- Node4 -->
<g id="Node000004" class="node">
<title>Node4</title>
<g id="a_Node000004"><a xlink:title=" ">
<polygon fill="white" stroke="none" points="200.25,-307 91.75,-307 91.75,-243 200.25,-243 200.25,-307"/>
<text xml:space="preserve" text-anchor="start" x="95.75" y="-293.5" font-family="Helvetica,sans-Serif" font-size="10.00">vector&lt; dpp::command</text>
<text xml:space="preserve" text-anchor="start" x="125.75" y="-281.5" font-family="Helvetica,sans-Serif" font-size="10.00">_option &gt;</text>
<text xml:space="preserve" text-anchor="start" x="144.5" y="-265.5" font-family="Helvetica,sans-Serif" font-size="10.00"> </text>
<text xml:space="preserve" text-anchor="start" x="144.5" y="-249.5" font-family="Helvetica,sans-Serif" font-size="10.00"> </text>
<polygon fill="#666666" stroke="#666666" points="91.75,-277 91.75,-277 200.25,-277 200.25,-277 91.75,-277"/>
<polygon fill="#666666" stroke="#666666" points="91.75,-261 91.75,-261 200.25,-261 200.25,-261 91.75,-261"/>
<polygon fill="none" stroke="#666666" points="91.75,-243 91.75,-307 200.25,-307 200.25,-243 91.75,-243"/>
</a>
</g>
</g>
<!-- Node4&#45;&gt;Node2 -->
<g id="edge3_Node000002_Node000004" class="edge">
<title>Node4&#45;&gt;Node2</title>
<g id="a_edge3_Node000002_Node000004"><a xlink:title=" ">
<path fill="none" stroke="#63b8ff" d="M141.84,-243.33C138.67,-227 133.22,-207.02 124,-191 122.39,-188.2 120.54,-185.45 118.55,-182.79"/>
<polygon fill="none" stroke="#63b8ff" points="118.59,-182.83 111.67,-180.82 110.86,-173.66 117.78,-175.67 118.59,-182.83"/>
</a>
</g>
<text xml:space="preserve" text-anchor="start" x="140.15" y="-204.5" font-family="Helvetica,sans-Serif" font-size="10.00" fill="grey">+command_options</text>
</g>
<!-- Node5 -->
<g id="Node000005" class="node">
<title>Node5</title>
<g id="a_Node000005"><a xlink:href="classIFormCommand.html" target="_top" xlink:title=" ">
<polygon fill="white" stroke="none" points="246.88,-173 153.12,-173 153.12,-121 246.88,-121 246.88,-173"/>
<text xml:space="preserve" text-anchor="start" x="164.75" y="-159.5" font-family="Helvetica,sans-Serif" font-size="10.00">IFormCommand</text>
<text xml:space="preserve" text-anchor="start" x="198.5" y="-143.5" font-family="Helvetica,sans-Serif" font-size="10.00"> </text>
<text xml:space="preserve" text-anchor="start" x="157.12" y="-127.5" font-family="Helvetica,sans-Serif" font-size="10.00">+</text>
<text xml:space="preserve" text-anchor="start" x="167.12" y="-127.5" font-family="Helvetica,sans-Serif" font-size="10.00">on_form_submit()</text>
<polygon fill="#666666" stroke="#666666" points="153.12,-155 153.12,-155 246.88,-155 246.88,-155 153.12,-155"/>
<polygon fill="#666666" stroke="#666666" points="153.12,-139 153.12,-139 246.88,-139 246.88,-139 153.12,-139"/>
<polygon fill="none" stroke="#666666" points="153.12,-121 153.12,-173 246.88,-173 246.88,-121 153.12,-121"/>
</a>
</g>
</g>
<!-- Node5&#45;&gt;Node1 -->
<g id="edge4_Node000001_Node000005" class="edge">
<title>Node5&#45;&gt;Node1</title>
<g id="a_edge4_Node000001_Node000005"><a xlink:title=" ">
<path fill="none" stroke="#63b8ff" d="M189.6,-110.28C187.11,-101.73 184.43,-92.54 181.88,-83.77"/>
<polygon fill="none" stroke="#63b8ff" points="186.16,-110.99 192.31,-119.61 192.88,-109.03 186.16,-110.99"/>
</a>
</g>
</g>
</g>
</svg>
