<?xml version="1.0" encoding="UTF-8" standalone="no"?>
<!DOCTYPE svg PUBLIC "-//W3C//DTD SVG 1.1//EN"
 "http://www.w3.org/Graphics/SVG/1.1/DTD/svg11.dtd">
<!-- Generated by graphviz version 13.0.1 (0)
 -->
<!-- Title: ResourceRepository Pages: 1 -->
<svg width="165pt" height="415pt"
 viewBox="0.00 0.00 165.00 415.00" xmlns="http://www.w3.org/2000/svg" xmlns:xlink="http://www.w3.org/1999/xlink">
<g id="graph0" class="graph" transform="scale(1 1) rotate(0) translate(4 411)">
<title>ResourceRepository</title>
<!-- Node1 -->
<g id="Node000001" class="node">
<title>Node1</title>
<g id="a_Node000001"><a xlink:title=" ">
<polygon fill="#999999" stroke="none" points="118.25,-116 21,-116 21,0 118.25,0 118.25,-116"/>
<text xml:space="preserve" text-anchor="start" x="25" y="-102.5" font-family="Helvetica,sans-Serif" font-size="10.00">ResourceRepository</text>
<text xml:space="preserve" text-anchor="start" x="68.12" y="-86.5" font-family="Helvetica,sans-Serif" font-size="10.00"> </text>
<text xml:space="preserve" text-anchor="start" x="35.25" y="-70.5" font-family="Helvetica,sans-Serif" font-size="10.00">+</text>
<text xml:space="preserve" text-anchor="start" x="55.5" y="-70.5" font-family="Helvetica,sans-Serif" font-size="10.00">create()</text>
<text xml:space="preserve" text-anchor="start" x="35.25" y="-54.5" font-family="Helvetica,sans-Serif" font-size="10.00">+</text>
<text xml:space="preserve" text-anchor="start" x="55.5" y="-54.5" font-family="Helvetica,sans-Serif" font-size="10.00">remove()</text>
<text xml:space="preserve" text-anchor="start" x="35.25" y="-38.5" font-family="Helvetica,sans-Serif" font-size="10.00">+</text>
<text xml:space="preserve" text-anchor="start" x="55.5" y="-38.5" font-family="Helvetica,sans-Serif" font-size="10.00">get()</text>
<text xml:space="preserve" text-anchor="start" x="35.25" y="-22.5" font-family="Helvetica,sans-Serif" font-size="10.00">+</text>
<text xml:space="preserve" text-anchor="start" x="55.5" y="-22.5" font-family="Helvetica,sans-Serif" font-size="10.00">get()</text>
<text xml:space="preserve" text-anchor="start" x="35.25" y="-6.5" font-family="Helvetica,sans-Serif" font-size="10.00">+</text>
<text xml:space="preserve" text-anchor="start" x="55.5" y="-6.5" font-family="Helvetica,sans-Serif" font-size="10.00">update()</text>
<polygon fill="#666666" stroke="#666666" points="21,-98 21,-98 118.25,-98 118.25,-98 21,-98"/>
<polygon fill="#666666" stroke="#666666" points="21,-82 21,-82 118.25,-82 118.25,-82 21,-82"/>
<polygon fill="none" stroke="#666666" points="21,0 21,-116 118.25,-116 118.25,0 21,0"/>
</a>
</g>
</g>
<!-- Node2 -->
<g id="Node000002" class="node">
<title>Node2</title>
<g id="a_Node000002"><a xlink:href="classIRepository.html" target="_top" xlink:title=" ">
<polygon fill="white" stroke="none" points="139.25,-253 0,-253 0,-153 139.25,-153 139.25,-253"/>
<text xml:space="preserve" text-anchor="start" x="4" y="-239.5" font-family="Helvetica,sans-Serif" font-size="10.00">IRepository&lt; ResourceDTO &gt;</text>
<text xml:space="preserve" text-anchor="start" x="68.12" y="-223.5" font-family="Helvetica,sans-Serif" font-size="10.00"> </text>
<text xml:space="preserve" text-anchor="start" x="24.75" y="-207.5" font-family="Helvetica,sans-Serif" font-size="10.00">+</text>
<text xml:space="preserve" text-anchor="start" x="55.5" y="-207.5" font-family="Helvetica,sans-Serif" font-size="10.00">create()</text>
<text xml:space="preserve" text-anchor="start" x="24.75" y="-191.5" font-family="Helvetica,sans-Serif" font-size="10.00">+</text>
<text xml:space="preserve" text-anchor="start" x="55.5" y="-191.5" font-family="Helvetica,sans-Serif" font-size="10.00">remove()</text>
<text xml:space="preserve" text-anchor="start" x="24.75" y="-175.5" font-family="Helvetica,sans-Serif" font-size="10.00">+</text>
<text xml:space="preserve" text-anchor="start" x="55.5" y="-175.5" font-family="Helvetica,sans-Serif" font-size="10.00">get()</text>
<text xml:space="preserve" text-anchor="start" x="24.75" y="-159.5" font-family="Helvetica,sans-Serif" font-size="10.00">+</text>
<text xml:space="preserve" text-anchor="start" x="55.5" y="-159.5" font-family="Helvetica,sans-Serif" font-size="10.00">update()</text>
<polygon fill="#666666" stroke="#666666" points="0,-235 0,-235 139.25,-235 139.25,-235 0,-235"/>
<polygon fill="#666666" stroke="#666666" points="0,-219 0,-219 139.25,-219 139.25,-219 0,-219"/>
<polygon fill="none" stroke="#666666" points="0,-153 0,-253 139.25,-253 139.25,-153 0,-153"/>
</a>
</g>
</g>
<!-- Node2&#45;&gt;Node1 -->
<g id="edge1_Node000001_Node000002" class="edge">
<title>Node2&#45;&gt;Node1</title>
<g id="a_edge1_Node000001_Node000002"><a xlink:title=" ">
<path fill="none" stroke="#63b8ff" d="M69.62,-141.73C69.62,-133.2 69.62,-124.44 69.62,-115.97"/>
<polygon fill="none" stroke="#63b8ff" points="66.13,-141.67 69.63,-151.67 73.13,-141.67 66.13,-141.67"/>
</a>
</g>
</g>
<!-- Node3 -->
<g id="Node000003" class="node">
<title>Node3</title>
<g id="a_Node000003"><a xlink:href="classIRepository.html" target="_top" xlink:title=" ">
<polygon fill="white" stroke="none" points="118.25,-407 21,-407 21,-307 118.25,-307 118.25,-407"/>
<text xml:space="preserve" text-anchor="start" x="25" y="-393.5" font-family="Helvetica,sans-Serif" font-size="10.00">IRepository&lt; DTO &gt;</text>
<text xml:space="preserve" text-anchor="start" x="68.12" y="-377.5" font-family="Helvetica,sans-Serif" font-size="10.00"> </text>
<text xml:space="preserve" text-anchor="start" x="35.25" y="-361.5" font-family="Helvetica,sans-Serif" font-size="10.00">+</text>
<text xml:space="preserve" text-anchor="start" x="55.5" y="-361.5" font-family="Helvetica,sans-Serif" font-size="10.00">create()</text>
<text xml:space="preserve" text-anchor="start" x="35.25" y="-345.5" font-family="Helvetica,sans-Serif" font-size="10.00">+</text>
<text xml:space="preserve" text-anchor="start" x="55.5" y="-345.5" font-family="Helvetica,sans-Serif" font-size="10.00">remove()</text>
<text xml:space="preserve" text-anchor="start" x="35.25" y="-329.5" font-family="Helvetica,sans-Serif" font-size="10.00">+</text>
<text xml:space="preserve" text-anchor="start" x="55.5" y="-329.5" font-family="Helvetica,sans-Serif" font-size="10.00">get()</text>
<text xml:space="preserve" text-anchor="start" x="35.25" y="-313.5" font-family="Helvetica,sans-Serif" font-size="10.00">+</text>
<text xml:space="preserve" text-anchor="start" x="55.5" y="-313.5" font-family="Helvetica,sans-Serif" font-size="10.00">update()</text>
<polygon fill="#666666" stroke="#666666" points="21,-389 21,-389 118.25,-389 118.25,-389 21,-389"/>
<polygon fill="#666666" stroke="#666666" points="21,-373 21,-373 118.25,-373 118.25,-373 21,-373"/>
<polygon fill="none" stroke="#666666" points="21,-307 21,-407 118.25,-407 118.25,-307 21,-307"/>
</a>
</g>
</g>
<!-- Node3&#45;&gt;Node2 -->
<g id="edge2_Node000002_Node000003" class="edge">
<title>Node3&#45;&gt;Node2</title>
<g id="a_edge2_Node000002_Node000003"><a xlink:title=" ">
<path fill="none" stroke="orange" d="M69.62,-295.84C69.62,-281.57 69.62,-266.53 69.62,-252.84"/>
<polygon fill="orange" stroke="orange" points="66.13,-295.56 69.63,-305.56 73.13,-295.56 66.13,-295.56"/>
</a>
</g>
<text xml:space="preserve" text-anchor="start" x="72.62" y="-276.5" font-family="Helvetica,sans-Serif" font-size="10.00" fill="grey">&lt; ResourceDTO &gt;</text>
</g>
</g>
</svg>
