<?xml version="1.0" encoding="UTF-8" standalone="no"?>
<!DOCTYPE svg PUBLIC "-//W3C//DTD SVG 1.1//EN"
 "http://www.w3.org/Graphics/SVG/1.1/DTD/svg11.dtd">
<!-- Generated by graphviz version 12.1.2 (0)
 -->
<!-- Title: IReady Pages: 1 -->
<svg width="305pt" height="180pt"
 viewBox="0.00 0.00 305.00 180.00" xmlns="http://www.w3.org/2000/svg" xmlns:xlink="http://www.w3.org/1999/xlink">
<g id="graph0" class="graph" transform="scale(1 1) rotate(0) translate(4 176)">
<title>IReady</title>
<!-- Node1 -->
<g id="Node000001" class="node">
<title>Node1</title>
<g id="a_Node000001"><a xlink:title=" ">
<polygon fill="#999999" stroke="none" points="181,-172 118,-172 118,-120 181,-120 181,-172"/>
<text text-anchor="start" x="133.75" y="-158.5" font-family="Helvetica,sans-Serif" font-size="10.00">IReady</text>
<text text-anchor="start" x="148" y="-142.5" font-family="Helvetica,sans-Serif" font-size="10.00"> </text>
<text text-anchor="start" x="122" y="-126.5" font-family="Helvetica,sans-Serif" font-size="10.00">+</text>
<text text-anchor="start" x="132" y="-126.5" font-family="Helvetica,sans-Serif" font-size="10.00">on_ready()</text>
<polygon fill="#666666" stroke="#666666" points="118,-154 118,-154 181,-154 181,-154 118,-154"/>
<polygon fill="#666666" stroke="#666666" points="118,-138 118,-138 181,-138 181,-138 118,-138"/>
<polygon fill="none" stroke="#666666" points="118,-120 118,-172 181,-172 181,-120 118,-120"/>
</a>
</g>
</g>
<!-- Node2 -->
<g id="Node000002" class="node">
<title>Node2</title>
<g id="a_Node000002"><a xlink:href="classInitDatabase.html" target="_top" xlink:title=" ">
<polygon fill="white" stroke="none" points="65,-68 0,-68 0,-16 65,-16 65,-68"/>
<text text-anchor="start" x="4.75" y="-54.5" font-family="Helvetica,sans-Serif" font-size="10.00">InitDatabase</text>
<text text-anchor="start" x="31" y="-38.5" font-family="Helvetica,sans-Serif" font-size="10.00"> </text>
<text text-anchor="start" x="4.5" y="-22.5" font-family="Helvetica,sans-Serif" font-size="10.00">+</text>
<text text-anchor="start" x="15" y="-22.5" font-family="Helvetica,sans-Serif" font-size="10.00">on_ready()</text>
<polygon fill="#666666" stroke="#666666" points="0,-50 0,-50 65,-50 65,-50 0,-50"/>
<polygon fill="#666666" stroke="#666666" points="0,-34 0,-34 65,-34 65,-34 0,-34"/>
<polygon fill="none" stroke="#666666" points="0,-16 0,-68 65,-68 65,-16 0,-16"/>
</a>
</g>
</g>
<!-- Node1&#45;&gt;Node2 -->
<g id="edge1_Node000001_Node000002" class="edge">
<title>Node1&#45;&gt;Node2</title>
<g id="a_edge1_Node000001_Node000002"><a xlink:title=" ">
<path fill="none" stroke="#63b8ff" d="M109.4,-114.15C97.61,-104.73 84.84,-94.17 73.5,-84 67.8,-78.89 61.88,-73.2 56.36,-67.73"/>
<polygon fill="none" stroke="#63b8ff" points="106.98,-116.7 116.99,-120.17 111.32,-111.22 106.98,-116.7"/>
</a>
</g>
</g>
<!-- Node3 -->
<g id="Node000003" class="node">
<title>Node3</title>
<g id="a_Node000003"><a xlink:href="classSetNotificationCommand.html" target="_top" xlink:title=" ">
<polygon fill="white" stroke="none" points="216,-84 83,-84 83,0 216,0 216,-84"/>
<text text-anchor="start" x="94.75" y="-70.5" font-family="Helvetica,sans-Serif" font-size="10.00">SetNotificationCommand</text>
<text text-anchor="start" x="148" y="-54.5" font-family="Helvetica,sans-Serif" font-size="10.00"> </text>
<text text-anchor="start" x="87" y="-38.5" font-family="Helvetica,sans-Serif" font-size="10.00">+</text>
<text text-anchor="start" x="97" y="-38.5" font-family="Helvetica,sans-Serif" font-size="10.00">SetNotificationCommand()</text>
<text text-anchor="start" x="87" y="-22.5" font-family="Helvetica,sans-Serif" font-size="10.00">+</text>
<text text-anchor="start" x="97" y="-22.5" font-family="Helvetica,sans-Serif" font-size="10.00">on_slashcommand()</text>
<text text-anchor="start" x="87" y="-6.5" font-family="Helvetica,sans-Serif" font-size="10.00">+</text>
<text text-anchor="start" x="97" y="-6.5" font-family="Helvetica,sans-Serif" font-size="10.00">on_ready()</text>
<polygon fill="#666666" stroke="#666666" points="83,-66 83,-66 216,-66 216,-66 83,-66"/>
<polygon fill="#666666" stroke="#666666" points="83,-50 83,-50 216,-50 216,-50 83,-50"/>
<polygon fill="none" stroke="#666666" points="83,0 83,-84 216,-84 216,0 83,0"/>
</a>
</g>
</g>
<!-- Node1&#45;&gt;Node3 -->
<g id="edge2_Node000001_Node000003" class="edge">
<title>Node1&#45;&gt;Node3</title>
<g id="a_edge2_Node000001_Node000003"><a xlink:title=" ">
<path fill="none" stroke="#63b8ff" d="M149.5,-108.77C149.5,-100.75 149.5,-92.19 149.5,-83.99"/>
<polygon fill="none" stroke="#63b8ff" points="146,-108.53 149.5,-118.53 153,-108.53 146,-108.53"/>
</a>
</g>
</g>
<!-- Node4 -->
<g id="Node000004" class="node">
<title>Node4</title>
<g id="a_Node000004"><a xlink:href="classSetStatus.html" target="_top" xlink:title=" ">
<polygon fill="white" stroke="none" points="297,-68 234,-68 234,-16 297,-16 297,-68"/>
<text text-anchor="start" x="243.75" y="-54.5" font-family="Helvetica,sans-Serif" font-size="10.00">SetStatus</text>
<text text-anchor="start" x="264" y="-38.5" font-family="Helvetica,sans-Serif" font-size="10.00"> </text>
<text text-anchor="start" x="238" y="-22.5" font-family="Helvetica,sans-Serif" font-size="10.00">+</text>
<text text-anchor="start" x="248" y="-22.5" font-family="Helvetica,sans-Serif" font-size="10.00">on_ready()</text>
<polygon fill="#666666" stroke="#666666" points="234,-50 234,-50 297,-50 297,-50 234,-50"/>
<polygon fill="#666666" stroke="#666666" points="234,-34 234,-34 297,-34 297,-34 234,-34"/>
<polygon fill="none" stroke="#666666" points="234,-16 234,-68 297,-68 297,-16 234,-16"/>
</a>
</g>
</g>
<!-- Node1&#45;&gt;Node4 -->
<g id="edge3_Node000001_Node000004" class="edge">
<title>Node1&#45;&gt;Node4</title>
<g id="a_edge3_Node000001_Node000004"><a xlink:title=" ">
<path fill="none" stroke="#63b8ff" d="M189.68,-114.24C201.47,-104.82 214.22,-94.24 225.5,-84 231.1,-78.92 236.9,-73.24 242.28,-67.77"/>
<polygon fill="none" stroke="#63b8ff" points="187.76,-111.3 182.08,-120.25 192.1,-116.79 187.76,-111.3"/>
</a>
</g>
</g>
</g>
</svg>
