<?xml version="1.0" encoding="UTF-8" standalone="no"?>
<!DOCTYPE svg PUBLIC "-//W3C//DTD SVG 1.1//EN"
 "http://www.w3.org/Graphics/SVG/1.1/DTD/svg11.dtd">
<!-- Generated by graphviz version 9.0.0 (0)
 -->
<!-- Title: IRepository&lt; DTO &gt; Pages: 1 -->
<svg width="636pt" height="405pt"
 viewBox="0.00 0.00 636.00 405.00" xmlns="http://www.w3.org/2000/svg" xmlns:xlink="http://www.w3.org/1999/xlink">
<g id="graph0" class="graph" transform="scale(1 1) rotate(0) translate(4 401)">
<title>IRepository&lt; DTO &gt;</title>
<!-- Node1 -->
<g id="Node000001" class="node">
<title>Node1</title>
<g id="a_Node000001"><a xlink:title=" ">
<polygon fill="#999999" stroke="none" points="349,-397 250,-397 250,-297 349,-297 349,-397"/>
<text text-anchor="start" x="254.88" y="-383.5" font-family="Helvetica,sans-Serif" font-size="10.00">IRepository&lt; DTO &gt;</text>
<text text-anchor="start" x="298" y="-367.5" font-family="Helvetica,sans-Serif" font-size="10.00"> </text>
<text text-anchor="start" x="264.5" y="-351.5" font-family="Helvetica,sans-Serif" font-size="10.00">+</text>
<text text-anchor="start" x="285" y="-351.5" font-family="Helvetica,sans-Serif" font-size="10.00">create()</text>
<text text-anchor="start" x="264.5" y="-335.5" font-family="Helvetica,sans-Serif" font-size="10.00">+</text>
<text text-anchor="start" x="285" y="-335.5" font-family="Helvetica,sans-Serif" font-size="10.00">remove()</text>
<text text-anchor="start" x="264.5" y="-319.5" font-family="Helvetica,sans-Serif" font-size="10.00">+</text>
<text text-anchor="start" x="285" y="-319.5" font-family="Helvetica,sans-Serif" font-size="10.00">get()</text>
<text text-anchor="start" x="264.5" y="-303.5" font-family="Helvetica,sans-Serif" font-size="10.00">+</text>
<text text-anchor="start" x="285" y="-303.5" font-family="Helvetica,sans-Serif" font-size="10.00">update()</text>
<polygon fill="#666666" stroke="#666666" points="250,-379 250,-379 349,-379 349,-379 250,-379"/>
<polygon fill="#666666" stroke="#666666" points="250,-363 250,-363 349,-363 349,-363 250,-363"/>
<polygon fill="none" stroke="#666666" points="250,-297 250,-397 349,-397 349,-297 250,-297"/>
</a>
</g>
</g>
<!-- Node2 -->
<g id="Node000002" class="node">
<title>Node2</title>
<g id="a_Node000002"><a xlink:href="classIRepository.html" target="_top" xlink:title=" ">
<polygon fill="white" stroke="none" points="133,-249 0,-249 0,-137 133,-137 133,-249"/>
<text text-anchor="start" x="5" y="-235.5" font-family="Helvetica,sans-Serif" font-size="10.00">IRepository&lt; ChallengeRole</text>
<text text-anchor="start" x="51.5" y="-223.5" font-family="Helvetica,sans-Serif" font-size="10.00">DTO &gt;</text>
<text text-anchor="start" x="65" y="-207.5" font-family="Helvetica,sans-Serif" font-size="10.00"> </text>
<text text-anchor="start" x="23" y="-191.5" font-family="Helvetica,sans-Serif" font-size="10.00">+</text>
<text text-anchor="start" x="52" y="-191.5" font-family="Helvetica,sans-Serif" font-size="10.00">create()</text>
<text text-anchor="start" x="23" y="-175.5" font-family="Helvetica,sans-Serif" font-size="10.00">+</text>
<text text-anchor="start" x="52" y="-175.5" font-family="Helvetica,sans-Serif" font-size="10.00">remove()</text>
<text text-anchor="start" x="23" y="-159.5" font-family="Helvetica,sans-Serif" font-size="10.00">+</text>
<text text-anchor="start" x="52" y="-159.5" font-family="Helvetica,sans-Serif" font-size="10.00">get()</text>
<text text-anchor="start" x="23" y="-143.5" font-family="Helvetica,sans-Serif" font-size="10.00">+</text>
<text text-anchor="start" x="52" y="-143.5" font-family="Helvetica,sans-Serif" font-size="10.00">update()</text>
<polygon fill="#666666" stroke="#666666" points="0,-219 0,-219 133,-219 133,-219 0,-219"/>
<polygon fill="#666666" stroke="#666666" points="0,-203 0,-203 133,-203 133,-203 0,-203"/>
<polygon fill="none" stroke="#666666" points="0,-137 0,-249 133,-249 133,-137 0,-137"/>
</a>
</g>
</g>
<!-- Node1&#45;&gt;Node2 -->
<g id="edge1_Node000001_Node000002" class="edge">
<title>Node1&#45;&gt;Node2</title>
<g id="a_edge1_Node000001_Node000002"><a xlink:title=" ">
<path fill="none" stroke="orange" d="M239.24,-331.14C204.77,-320.56 162.1,-303.77 129.75,-279 118.8,-270.61 108.83,-259.84 100.22,-248.81"/>
<polygon fill="orange" stroke="orange" points="238.09,-334.44 248.67,-333.93 240.08,-327.73 238.09,-334.44"/>
</a>
</g>
<text text-anchor="middle" x="183.38" y="-269.5" font-family="Helvetica,sans-Serif" font-size="10.00" fill="grey"> &lt; ChallengeRoleDTO &gt;</text>
</g>
<!-- Node4 -->
<g id="Node000004" class="node">
<title>Node4</title>
<g id="a_Node000004"><a xlink:href="classIRepository.html" target="_top" xlink:title=" ">
<polygon fill="white" stroke="none" points="295.5,-249 151.5,-249 151.5,-137 295.5,-137 295.5,-249"/>
<text text-anchor="start" x="156.38" y="-235.5" font-family="Helvetica,sans-Serif" font-size="10.00">IRepository&lt; GoodbyeChannel</text>
<text text-anchor="start" x="208.5" y="-223.5" font-family="Helvetica,sans-Serif" font-size="10.00">DTO &gt;</text>
<text text-anchor="start" x="222" y="-207.5" font-family="Helvetica,sans-Serif" font-size="10.00"> </text>
<text text-anchor="start" x="177.5" y="-191.5" font-family="Helvetica,sans-Serif" font-size="10.00">+</text>
<text text-anchor="start" x="209.5" y="-191.5" font-family="Helvetica,sans-Serif" font-size="10.00">create()</text>
<text text-anchor="start" x="177.5" y="-175.5" font-family="Helvetica,sans-Serif" font-size="10.00">+</text>
<text text-anchor="start" x="209.5" y="-175.5" font-family="Helvetica,sans-Serif" font-size="10.00">remove()</text>
<text text-anchor="start" x="177.5" y="-159.5" font-family="Helvetica,sans-Serif" font-size="10.00">+</text>
<text text-anchor="start" x="209.5" y="-159.5" font-family="Helvetica,sans-Serif" font-size="10.00">get()</text>
<text text-anchor="start" x="177.5" y="-143.5" font-family="Helvetica,sans-Serif" font-size="10.00">+</text>
<text text-anchor="start" x="209.5" y="-143.5" font-family="Helvetica,sans-Serif" font-size="10.00">update()</text>
<polygon fill="#666666" stroke="#666666" points="151.5,-219 151.5,-219 295.5,-219 295.5,-219 151.5,-219"/>
<polygon fill="#666666" stroke="#666666" points="151.5,-203 151.5,-203 295.5,-203 295.5,-203 151.5,-203"/>
<polygon fill="none" stroke="#666666" points="151.5,-137 151.5,-249 295.5,-249 295.5,-137 151.5,-137"/>
</a>
</g>
</g>
<!-- Node1&#45;&gt;Node4 -->
<g id="edge3_Node000001_Node000004" class="edge">
<title>Node1&#45;&gt;Node4</title>
<g id="a_edge3_Node000001_Node000004"><a xlink:title=" ">
<path fill="none" stroke="orange" d="M248.3,-287.7C246.57,-284.83 244.96,-281.92 243.5,-279 238.82,-269.64 235.21,-259.16 232.44,-248.83"/>
<polygon fill="orange" stroke="orange" points="245.35,-289.58 253.74,-296.04 251.21,-285.75 245.35,-289.58"/>
</a>
</g>
<text text-anchor="middle" x="302" y="-269.5" font-family="Helvetica,sans-Serif" font-size="10.00" fill="grey"> &lt; GoodbyeChannelDTO &gt;</text>
</g>
<!-- Node6 -->
<g id="Node000006" class="node">
<title>Node6</title>
<g id="a_Node000006"><a xlink:href="classIRepository.html" target="_top" xlink:title=" ">
<polygon fill="white" stroke="none" points="465,-243 314,-243 314,-143 465,-143 465,-243"/>
<text text-anchor="start" x="319" y="-229.5" font-family="Helvetica,sans-Serif" font-size="10.00">IRepository&lt; LogChannelDTO &gt;</text>
<text text-anchor="start" x="388" y="-213.5" font-family="Helvetica,sans-Serif" font-size="10.00"> </text>
<text text-anchor="start" x="341.5" y="-197.5" font-family="Helvetica,sans-Serif" font-size="10.00">+</text>
<text text-anchor="start" x="375" y="-197.5" font-family="Helvetica,sans-Serif" font-size="10.00">create()</text>
<text text-anchor="start" x="341.5" y="-181.5" font-family="Helvetica,sans-Serif" font-size="10.00">+</text>
<text text-anchor="start" x="375" y="-181.5" font-family="Helvetica,sans-Serif" font-size="10.00">remove()</text>
<text text-anchor="start" x="341.5" y="-165.5" font-family="Helvetica,sans-Serif" font-size="10.00">+</text>
<text text-anchor="start" x="375" y="-165.5" font-family="Helvetica,sans-Serif" font-size="10.00">get()</text>
<text text-anchor="start" x="341.5" y="-149.5" font-family="Helvetica,sans-Serif" font-size="10.00">+</text>
<text text-anchor="start" x="375" y="-149.5" font-family="Helvetica,sans-Serif" font-size="10.00">update()</text>
<polygon fill="#666666" stroke="#666666" points="314,-225 314,-225 465,-225 465,-225 314,-225"/>
<polygon fill="#666666" stroke="#666666" points="314,-209 314,-209 465,-209 465,-209 314,-209"/>
<polygon fill="none" stroke="#666666" points="314,-143 314,-243 465,-243 465,-143 314,-143"/>
</a>
</g>
</g>
<!-- Node1&#45;&gt;Node6 -->
<g id="edge5_Node000001_Node000006" class="edge">
<title>Node1&#45;&gt;Node6</title>
<g id="a_edge5_Node000001_Node000006"><a xlink:title=" ">
<path fill="none" stroke="orange" d="M354.54,-288.27C356.66,-285.21 358.66,-282.11 360.5,-279 367.08,-267.86 372.45,-255.01 376.69,-242.72"/>
<polygon fill="orange" stroke="orange" points="351.9,-285.95 348.77,-296.07 357.53,-290.11 351.9,-285.95"/>
</a>
</g>
<text text-anchor="middle" x="413.38" y="-269.5" font-family="Helvetica,sans-Serif" font-size="10.00" fill="grey"> &lt; LogChannelDTO &gt;</text>
</g>
<!-- Node8 -->
<g id="Node000008" class="node">
<title>Node8</title>
<g id="a_Node000008"><a xlink:href="classIRepository.html" target="_top" xlink:title=" ">
<polygon fill="white" stroke="none" points="628,-249 483,-249 483,-137 628,-137 628,-249"/>
<text text-anchor="start" x="487.62" y="-235.5" font-family="Helvetica,sans-Serif" font-size="10.00">IRepository&lt; WelcomeChannel</text>
<text text-anchor="start" x="540.5" y="-223.5" font-family="Helvetica,sans-Serif" font-size="10.00">DTO &gt;</text>
<text text-anchor="start" x="554" y="-207.5" font-family="Helvetica,sans-Serif" font-size="10.00"> </text>
<text text-anchor="start" x="509" y="-191.5" font-family="Helvetica,sans-Serif" font-size="10.00">+</text>
<text text-anchor="start" x="541" y="-191.5" font-family="Helvetica,sans-Serif" font-size="10.00">create()</text>
<text text-anchor="start" x="509" y="-175.5" font-family="Helvetica,sans-Serif" font-size="10.00">+</text>
<text text-anchor="start" x="541" y="-175.5" font-family="Helvetica,sans-Serif" font-size="10.00">remove()</text>
<text text-anchor="start" x="509" y="-159.5" font-family="Helvetica,sans-Serif" font-size="10.00">+</text>
<text text-anchor="start" x="541" y="-159.5" font-family="Helvetica,sans-Serif" font-size="10.00">get()</text>
<text text-anchor="start" x="509" y="-143.5" font-family="Helvetica,sans-Serif" font-size="10.00">+</text>
<text text-anchor="start" x="541" y="-143.5" font-family="Helvetica,sans-Serif" font-size="10.00">update()</text>
<polygon fill="#666666" stroke="#666666" points="483,-219 483,-219 628,-219 628,-219 483,-219"/>
<polygon fill="#666666" stroke="#666666" points="483,-203 483,-203 628,-203 628,-203 483,-203"/>
<polygon fill="none" stroke="#666666" points="483,-137 483,-249 628,-249 628,-137 483,-137"/>
</a>
</g>
</g>
<!-- Node1&#45;&gt;Node8 -->
<g id="edge7_Node000001_Node000008" class="edge">
<title>Node1&#45;&gt;Node8</title>
<g id="a_edge7_Node000001_Node000008"><a xlink:title=" ">
<path fill="none" stroke="orange" d="M359.41,-327.64C391.91,-316.24 431.96,-299.79 464.5,-279 477.98,-270.39 491.27,-259.65 503.36,-248.74"/>
<polygon fill="orange" stroke="orange" points="358.45,-324.26 350.13,-330.82 360.72,-330.88 358.45,-324.26"/>
</a>
</g>
<text text-anchor="middle" x="540.75" y="-269.5" font-family="Helvetica,sans-Serif" font-size="10.00" fill="grey"> &lt; WelcomeChannelDTO &gt;</text>
</g>
<!-- Node3 -->
<g id="Node000003" class="node">
<title>Node3</title>
<g id="a_Node000003"><a xlink:href="classChallengeRoleRepository.html" target="_top" xlink:title=" ">
<polygon fill="white" stroke="none" points="127,-100 6,-100 6,0 127,0 127,-100"/>
<text text-anchor="start" x="11" y="-86.5" font-family="Helvetica,sans-Serif" font-size="10.00">ChallengeRoleRepository</text>
<text text-anchor="start" x="65" y="-70.5" font-family="Helvetica,sans-Serif" font-size="10.00"> </text>
<text text-anchor="start" x="26" y="-54.5" font-family="Helvetica,sans-Serif" font-size="10.00">+</text>
<text text-anchor="start" x="52" y="-54.5" font-family="Helvetica,sans-Serif" font-size="10.00">create()</text>
<text text-anchor="start" x="26" y="-38.5" font-family="Helvetica,sans-Serif" font-size="10.00">+</text>
<text text-anchor="start" x="52" y="-38.5" font-family="Helvetica,sans-Serif" font-size="10.00">remove()</text>
<text text-anchor="start" x="26" y="-22.5" font-family="Helvetica,sans-Serif" font-size="10.00">+</text>
<text text-anchor="start" x="52" y="-22.5" font-family="Helvetica,sans-Serif" font-size="10.00">get()</text>
<text text-anchor="start" x="26" y="-6.5" font-family="Helvetica,sans-Serif" font-size="10.00">+</text>
<text text-anchor="start" x="52" y="-6.5" font-family="Helvetica,sans-Serif" font-size="10.00">update()</text>
<polygon fill="#666666" stroke="#666666" points="6,-82 6,-82 127,-82 127,-82 6,-82"/>
<polygon fill="#666666" stroke="#666666" points="6,-66 6,-66 127,-66 127,-66 6,-66"/>
<polygon fill="none" stroke="#666666" points="6,0 6,-100 127,-100 127,0 6,0"/>
</a>
</g>
</g>
<!-- Node2&#45;&gt;Node3 -->
<g id="edge2_Node000002_Node000003" class="edge">
<title>Node2&#45;&gt;Node3</title>
<g id="a_edge2_Node000002_Node000003"><a xlink:title=" ">
<path fill="none" stroke="#63b8ff" d="M66.5,-125.63C66.5,-116.85 66.5,-107.98 66.5,-99.57"/>
<polygon fill="none" stroke="#63b8ff" points="63,-125.57 66.5,-135.57 70,-125.57 63,-125.57"/>
</a>
</g>
</g>
<!-- Node5 -->
<g id="Node000005" class="node">
<title>Node5</title>
<g id="a_Node000005"><a xlink:href="classGoodbyeChannelRepository.html" target="_top" xlink:title=" ">
<polygon fill="white" stroke="none" points="289.5,-100 157.5,-100 157.5,0 289.5,0 289.5,-100"/>
<text text-anchor="start" x="162.38" y="-86.5" font-family="Helvetica,sans-Serif" font-size="10.00">GoodbyeChannelRepository</text>
<text text-anchor="start" x="222" y="-70.5" font-family="Helvetica,sans-Serif" font-size="10.00"> </text>
<text text-anchor="start" x="180.5" y="-54.5" font-family="Helvetica,sans-Serif" font-size="10.00">+</text>
<text text-anchor="start" x="209.5" y="-54.5" font-family="Helvetica,sans-Serif" font-size="10.00">create()</text>
<text text-anchor="start" x="180.5" y="-38.5" font-family="Helvetica,sans-Serif" font-size="10.00">+</text>
<text text-anchor="start" x="209.5" y="-38.5" font-family="Helvetica,sans-Serif" font-size="10.00">remove()</text>
<text text-anchor="start" x="180.5" y="-22.5" font-family="Helvetica,sans-Serif" font-size="10.00">+</text>
<text text-anchor="start" x="209.5" y="-22.5" font-family="Helvetica,sans-Serif" font-size="10.00">get()</text>
<text text-anchor="start" x="180.5" y="-6.5" font-family="Helvetica,sans-Serif" font-size="10.00">+</text>
<text text-anchor="start" x="209.5" y="-6.5" font-family="Helvetica,sans-Serif" font-size="10.00">update()</text>
<polygon fill="#666666" stroke="#666666" points="157.5,-82 157.5,-82 289.5,-82 289.5,-82 157.5,-82"/>
<polygon fill="#666666" stroke="#666666" points="157.5,-66 157.5,-66 289.5,-66 289.5,-66 157.5,-66"/>
<polygon fill="none" stroke="#666666" points="157.5,0 157.5,-100 289.5,-100 289.5,0 157.5,0"/>
</a>
</g>
</g>
<!-- Node4&#45;&gt;Node5 -->
<g id="edge4_Node000004_Node000005" class="edge">
<title>Node4&#45;&gt;Node5</title>
<g id="a_edge4_Node000004_Node000005"><a xlink:title=" ">
<path fill="none" stroke="#63b8ff" d="M223.5,-125.63C223.5,-116.85 223.5,-107.98 223.5,-99.57"/>
<polygon fill="none" stroke="#63b8ff" points="220,-125.57 223.5,-135.57 227,-125.57 220,-125.57"/>
</a>
</g>
</g>
<!-- Node7 -->
<g id="Node000007" class="node">
<title>Node7</title>
<g id="a_Node000007"><a xlink:href="classLogChannelRepository.html" target="_top" xlink:title=" ">
<polygon fill="white" stroke="none" points="444,-100 335,-100 335,0 444,0 444,-100"/>
<text text-anchor="start" x="340" y="-86.5" font-family="Helvetica,sans-Serif" font-size="10.00">LogChannelRepository</text>
<text text-anchor="start" x="388" y="-70.5" font-family="Helvetica,sans-Serif" font-size="10.00"> </text>
<text text-anchor="start" x="352" y="-54.5" font-family="Helvetica,sans-Serif" font-size="10.00">+</text>
<text text-anchor="start" x="375" y="-54.5" font-family="Helvetica,sans-Serif" font-size="10.00">create()</text>
<text text-anchor="start" x="352" y="-38.5" font-family="Helvetica,sans-Serif" font-size="10.00">+</text>
<text text-anchor="start" x="375" y="-38.5" font-family="Helvetica,sans-Serif" font-size="10.00">remove()</text>
<text text-anchor="start" x="352" y="-22.5" font-family="Helvetica,sans-Serif" font-size="10.00">+</text>
<text text-anchor="start" x="375" y="-22.5" font-family="Helvetica,sans-Serif" font-size="10.00">get()</text>
<text text-anchor="start" x="352" y="-6.5" font-family="Helvetica,sans-Serif" font-size="10.00">+</text>
<text text-anchor="start" x="375" y="-6.5" font-family="Helvetica,sans-Serif" font-size="10.00">update()</text>
<polygon fill="#666666" stroke="#666666" points="335,-82 335,-82 444,-82 444,-82 335,-82"/>
<polygon fill="#666666" stroke="#666666" points="335,-66 335,-66 444,-66 444,-66 335,-66"/>
<polygon fill="none" stroke="#666666" points="335,0 335,-100 444,-100 444,0 335,0"/>
</a>
</g>
</g>
<!-- Node6&#45;&gt;Node7 -->
<g id="edge6_Node000006_Node000007" class="edge">
<title>Node6&#45;&gt;Node7</title>
<g id="a_edge6_Node000006_Node000007"><a xlink:title=" ">
<path fill="none" stroke="#63b8ff" d="M389.5,-131.71C389.5,-121.07 389.5,-110.11 389.5,-99.83"/>
<polygon fill="none" stroke="#63b8ff" points="386,-131.57 389.5,-141.57 393,-131.57 386,-131.57"/>
</a>
</g>
</g>
<!-- Node9 -->
<g id="Node000009" class="node">
<title>Node9</title>
<g id="a_Node000009"><a xlink:href="classWelcomeChannelRepository.html" target="_top" xlink:title=" ">
<polygon fill="white" stroke="none" points="622,-100 489,-100 489,0 622,0 622,-100"/>
<text text-anchor="start" x="493.62" y="-86.5" font-family="Helvetica,sans-Serif" font-size="10.00">WelcomeChannelRepository</text>
<text text-anchor="start" x="554" y="-70.5" font-family="Helvetica,sans-Serif" font-size="10.00"> </text>
<text text-anchor="start" x="512" y="-54.5" font-family="Helvetica,sans-Serif" font-size="10.00">+</text>
<text text-anchor="start" x="541" y="-54.5" font-family="Helvetica,sans-Serif" font-size="10.00">create()</text>
<text text-anchor="start" x="512" y="-38.5" font-family="Helvetica,sans-Serif" font-size="10.00">+</text>
<text text-anchor="start" x="541" y="-38.5" font-family="Helvetica,sans-Serif" font-size="10.00">remove()</text>
<text text-anchor="start" x="512" y="-22.5" font-family="Helvetica,sans-Serif" font-size="10.00">+</text>
<text text-anchor="start" x="541" y="-22.5" font-family="Helvetica,sans-Serif" font-size="10.00">get()</text>
<text text-anchor="start" x="512" y="-6.5" font-family="Helvetica,sans-Serif" font-size="10.00">+</text>
<text text-anchor="start" x="541" y="-6.5" font-family="Helvetica,sans-Serif" font-size="10.00">update()</text>
<polygon fill="#666666" stroke="#666666" points="489,-82 489,-82 622,-82 622,-82 489,-82"/>
<polygon fill="#666666" stroke="#666666" points="489,-66 489,-66 622,-66 622,-66 489,-66"/>
<polygon fill="none" stroke="#666666" points="489,0 489,-100 622,-100 622,0 489,0"/>
</a>
</g>
</g>
<!-- Node8&#45;&gt;Node9 -->
<g id="edge8_Node000008_Node000009" class="edge">
<title>Node8&#45;&gt;Node9</title>
<g id="a_edge8_Node000008_Node000009"><a xlink:title=" ">
<path fill="none" stroke="#63b8ff" d="M555.5,-125.63C555.5,-116.85 555.5,-107.98 555.5,-99.57"/>
<polygon fill="none" stroke="#63b8ff" points="552,-125.57 555.5,-135.57 559,-125.57 552,-125.57"/>
</a>
</g>
</g>
</g>
</svg>
