<?xml version="1.0" encoding="UTF-8" standalone="no"?>
<!DOCTYPE svg PUBLIC "-//W3C//DTD SVG 1.1//EN"
 "http://www.w3.org/Graphics/SVG/1.1/DTD/svg11.dtd">
<!-- Generated by graphviz version 14.1.5 (0)
 -->
<!-- Title: ReactionRoleRepository Pages: 1 -->
<svg width="498pt" height="589pt"
 viewBox="0.00 0.00 498.00 589.00" xmlns="http://www.w3.org/2000/svg" xmlns:xlink="http://www.w3.org/1999/xlink">
<g id="graph0" class="graph" transform="scale(1 1) rotate(0) translate(4 585)">
<title>ReactionRoleRepository</title>
<!-- Node1 -->
<g id="Node000001" class="node">
<title>Node1</title>
<g id="a_Node000001"><a xlink:title=" ">
<polygon fill="#999999" stroke="none" points="248.12,-148 117.62,-148 117.62,0 248.12,0 248.12,-148"/>
<text xml:space="preserve" text-anchor="start" x="129.62" y="-134.25" font-family="Helvetica,sans-Serif" font-size="10.00">ReactionRoleRepository</text>
<text xml:space="preserve" text-anchor="start" x="181.38" y="-118.25" font-family="Helvetica,sans-Serif" font-size="10.00"> </text>
<text xml:space="preserve" text-anchor="start" x="121.62" y="-102.25" font-family="Helvetica,sans-Serif" font-size="10.00">+</text>
<text xml:space="preserve" text-anchor="start" x="131.62" y="-102.25" font-family="Helvetica,sans-Serif" font-size="10.00">ReactionRoleRepository()</text>
<text xml:space="preserve" text-anchor="start" x="121.62" y="-86.25" font-family="Helvetica,sans-Serif" font-size="10.00">+</text>
<text xml:space="preserve" text-anchor="start" x="131.62" y="-86.25" font-family="Helvetica,sans-Serif" font-size="10.00">ReactionRoleRepository()</text>
<text xml:space="preserve" text-anchor="start" x="121.62" y="-70.25" font-family="Helvetica,sans-Serif" font-size="10.00">+</text>
<text xml:space="preserve" text-anchor="start" x="131.62" y="-70.25" font-family="Helvetica,sans-Serif" font-size="10.00">create()</text>
<text xml:space="preserve" text-anchor="start" x="121.62" y="-54.25" font-family="Helvetica,sans-Serif" font-size="10.00">+</text>
<text xml:space="preserve" text-anchor="start" x="131.62" y="-54.25" font-family="Helvetica,sans-Serif" font-size="10.00">remove()</text>
<text xml:space="preserve" text-anchor="start" x="121.62" y="-38.25" font-family="Helvetica,sans-Serif" font-size="10.00">+</text>
<text xml:space="preserve" text-anchor="start" x="131.62" y="-38.25" font-family="Helvetica,sans-Serif" font-size="10.00">get()</text>
<text xml:space="preserve" text-anchor="start" x="121.62" y="-22.25" font-family="Helvetica,sans-Serif" font-size="10.00">+</text>
<text xml:space="preserve" text-anchor="start" x="131.62" y="-22.25" font-family="Helvetica,sans-Serif" font-size="10.00">get()</text>
<text xml:space="preserve" text-anchor="start" x="121.62" y="-6.25" font-family="Helvetica,sans-Serif" font-size="10.00">+</text>
<text xml:space="preserve" text-anchor="start" x="131.62" y="-6.25" font-family="Helvetica,sans-Serif" font-size="10.00">update()</text>
<polygon fill="#666666" stroke="#666666" points="117.62,-130 117.62,-130 248.12,-130 248.12,-130 117.62,-130"/>
<polygon fill="#666666" stroke="#666666" points="117.62,-114 117.62,-114 248.12,-114 248.12,-114 117.62,-114"/>
<polygon fill="none" stroke="#666666" points="117.62,0 117.62,-148 248.12,-148 248.12,0 117.62,0"/>
</a>
</g>
</g>
<!-- Node2 -->
<g id="Node000002" class="node">
<title>Node2</title>
<g id="a_Node000002"><a xlink:href="classIRepository.html" target="_top" xlink:title=" ">
<polygon fill="white" stroke="none" points="246.12,-249 119.62,-249 119.62,-185 246.12,-185 246.12,-249"/>
<text xml:space="preserve" text-anchor="start" x="123.62" y="-235.25" font-family="Helvetica,sans-Serif" font-size="10.00">IRepository&lt; ReactionRole</text>
<text xml:space="preserve" text-anchor="start" x="167.88" y="-223.25" font-family="Helvetica,sans-Serif" font-size="10.00">DTO &gt;</text>
<text xml:space="preserve" text-anchor="start" x="181.38" y="-207.25" font-family="Helvetica,sans-Serif" font-size="10.00"> </text>
<text xml:space="preserve" text-anchor="start" x="181.38" y="-191.25" font-family="Helvetica,sans-Serif" font-size="10.00"> </text>
<polygon fill="#666666" stroke="#666666" points="119.62,-219 119.62,-219 246.12,-219 246.12,-219 119.62,-219"/>
<polygon fill="#666666" stroke="#666666" points="119.62,-203 119.62,-203 246.12,-203 246.12,-203 119.62,-203"/>
<polygon fill="none" stroke="#666666" points="119.62,-185 119.62,-249 246.12,-249 246.12,-185 119.62,-185"/>
</a>
</g>
</g>
<!-- Node2&#45;&gt;Node1 -->
<g id="edge1_Node000001_Node000002" class="edge">
<title>Node2&#45;&gt;Node1</title>
<g id="a_edge1_Node000001_Node000002"><a xlink:title=" ">
<path fill="none" stroke="#63b8ff" d="M182.88,-173.56C182.88,-165.38 182.88,-156.59 182.88,-147.76"/>
<polygon fill="none" stroke="#63b8ff" points="179.38,-173.54 182.88,-183.54 186.38,-173.54 179.38,-173.54"/>
</a>
</g>
</g>
<!-- Node3 -->
<g id="Node000003" class="node">
<title>Node3</title>
<g id="a_Node000003"><a xlink:href="classIRepositoryReader.html" target="_top" xlink:title=" ">
<polygon fill="white" stroke="none" points="111.75,-399 0,-399 0,-319 111.75,-319 111.75,-399"/>
<text xml:space="preserve" text-anchor="start" x="9.75" y="-385.25" font-family="Helvetica,sans-Serif" font-size="10.00">IRepositoryReader&lt;</text>
<text xml:space="preserve" text-anchor="start" x="9.75" y="-373.25" font-family="Helvetica,sans-Serif" font-size="10.00"> ReactionRoleDTO &gt;</text>
<text xml:space="preserve" text-anchor="start" x="54.38" y="-357.25" font-family="Helvetica,sans-Serif" font-size="10.00"> </text>
<text xml:space="preserve" text-anchor="start" x="4" y="-341.25" font-family="Helvetica,sans-Serif" font-size="10.00">+</text>
<text xml:space="preserve" text-anchor="start" x="14" y="-341.25" font-family="Helvetica,sans-Serif" font-size="10.00">~IRepositoryReader()</text>
<text xml:space="preserve" text-anchor="start" x="4" y="-325.25" font-family="Helvetica,sans-Serif" font-size="10.00">+</text>
<text xml:space="preserve" text-anchor="start" x="14" y="-325.25" font-family="Helvetica,sans-Serif" font-size="10.00">get()</text>
<polygon fill="#666666" stroke="#666666" points="0,-369 0,-369 111.75,-369 111.75,-369 0,-369"/>
<polygon fill="#666666" stroke="#666666" points="0,-353 0,-353 111.75,-353 111.75,-353 0,-353"/>
<polygon fill="none" stroke="#666666" points="0,-319 0,-399 111.75,-399 111.75,-319 0,-319"/>
</a>
</g>
</g>
<!-- Node3&#45;&gt;Node2 -->
<g id="edge2_Node000002_Node000003" class="edge">
<title>Node3&#45;&gt;Node2</title>
<g id="a_edge2_Node000002_Node000003"><a xlink:title=" ">
<path fill="none" stroke="#63b8ff" d="M98.75,-310.74C117.29,-290.3 138.46,-266.96 154.92,-248.81"/>
<polygon fill="none" stroke="#63b8ff" points="96.4,-308.12 92.27,-317.88 101.58,-312.83 96.4,-308.12"/>
</a>
</g>
</g>
<!-- Node4 -->
<g id="Node000004" class="node">
<title>Node4</title>
<g id="a_Node000004"><a xlink:href="classIRepositoryReader.html" target="_top" xlink:title=" ">
<polygon fill="white" stroke="none" points="111.75,-565 0,-565 0,-485 111.75,-485 111.75,-565"/>
<text xml:space="preserve" text-anchor="start" x="12" y="-551.25" font-family="Helvetica,sans-Serif" font-size="10.00">IRepositoryReader&lt;</text>
<text xml:space="preserve" text-anchor="start" x="39.38" y="-539.25" font-family="Helvetica,sans-Serif" font-size="10.00"> DTO &gt;</text>
<text xml:space="preserve" text-anchor="start" x="54.38" y="-523.25" font-family="Helvetica,sans-Serif" font-size="10.00"> </text>
<text xml:space="preserve" text-anchor="start" x="4" y="-507.25" font-family="Helvetica,sans-Serif" font-size="10.00">+</text>
<text xml:space="preserve" text-anchor="start" x="14" y="-507.25" font-family="Helvetica,sans-Serif" font-size="10.00">~IRepositoryReader()</text>
<text xml:space="preserve" text-anchor="start" x="4" y="-491.25" font-family="Helvetica,sans-Serif" font-size="10.00">+</text>
<text xml:space="preserve" text-anchor="start" x="14" y="-491.25" font-family="Helvetica,sans-Serif" font-size="10.00">get()</text>
<polygon fill="#666666" stroke="#666666" points="0,-535 0,-535 111.75,-535 111.75,-535 0,-535"/>
<polygon fill="#666666" stroke="#666666" points="0,-519 0,-519 111.75,-519 111.75,-519 0,-519"/>
<polygon fill="none" stroke="#666666" points="0,-485 0,-565 111.75,-565 111.75,-485 0,-485"/>
</a>
</g>
</g>
<!-- Node4&#45;&gt;Node3 -->
<g id="edge3_Node000003_Node000004" class="edge">
<title>Node4&#45;&gt;Node3</title>
<g id="a_edge3_Node000003_Node000004"><a xlink:title=" ">
<path fill="none" stroke="orange" d="M55.88,-473.71C55.88,-449.64 55.88,-421.26 55.88,-398.87"/>
<polygon fill="orange" stroke="orange" points="52.38,-473.62 55.88,-483.62 59.38,-473.62 52.38,-473.62"/>
</a>
</g>
<text xml:space="preserve" text-anchor="start" x="58.88" y="-438.25" font-family="Helvetica,sans-Serif" font-size="10.00" fill="grey">&lt; ReactionRoleDTO &gt;</text>
</g>
<!-- Node5 -->
<g id="Node000005" class="node">
<title>Node5</title>
<g id="a_Node000005"><a xlink:href="classIRepositoryWriter.html" target="_top" xlink:title=" ">
<polygon fill="white" stroke="none" points="235.75,-415 130,-415 130,-303 235.75,-303 235.75,-415"/>
<text xml:space="preserve" text-anchor="start" x="136.75" y="-401.25" font-family="Helvetica,sans-Serif" font-size="10.00">IRepositoryWriter&lt;</text>
<text xml:space="preserve" text-anchor="start" x="136.75" y="-389.25" font-family="Helvetica,sans-Serif" font-size="10.00"> ReactionRoleDTO &gt;</text>
<text xml:space="preserve" text-anchor="start" x="181.38" y="-373.25" font-family="Helvetica,sans-Serif" font-size="10.00"> </text>
<text xml:space="preserve" text-anchor="start" x="134" y="-357.25" font-family="Helvetica,sans-Serif" font-size="10.00">+</text>
<text xml:space="preserve" text-anchor="start" x="144" y="-357.25" font-family="Helvetica,sans-Serif" font-size="10.00">~IRepositoryWriter()</text>
<text xml:space="preserve" text-anchor="start" x="134" y="-341.25" font-family="Helvetica,sans-Serif" font-size="10.00">+</text>
<text xml:space="preserve" text-anchor="start" x="144" y="-341.25" font-family="Helvetica,sans-Serif" font-size="10.00">create()</text>
<text xml:space="preserve" text-anchor="start" x="134" y="-325.25" font-family="Helvetica,sans-Serif" font-size="10.00">+</text>
<text xml:space="preserve" text-anchor="start" x="144" y="-325.25" font-family="Helvetica,sans-Serif" font-size="10.00">remove()</text>
<text xml:space="preserve" text-anchor="start" x="134" y="-309.25" font-family="Helvetica,sans-Serif" font-size="10.00">+</text>
<text xml:space="preserve" text-anchor="start" x="144" y="-309.25" font-family="Helvetica,sans-Serif" font-size="10.00">update()</text>
<polygon fill="#666666" stroke="#666666" points="130,-385 130,-385 235.75,-385 235.75,-385 130,-385"/>
<polygon fill="#666666" stroke="#666666" points="130,-369 130,-369 235.75,-369 235.75,-369 130,-369"/>
<polygon fill="none" stroke="#666666" points="130,-303 130,-415 235.75,-415 235.75,-303 130,-303"/>
</a>
</g>
</g>
<!-- Node5&#45;&gt;Node2 -->
<g id="edge4_Node000002_Node000005" class="edge">
<title>Node5&#45;&gt;Node2</title>
<g id="a_edge4_Node000002_Node000005"><a xlink:title=" ">
<path fill="none" stroke="#63b8ff" d="M182.88,-291.73C182.88,-276.79 182.88,-261.62 182.88,-248.95"/>
<polygon fill="none" stroke="#63b8ff" points="179.38,-291.56 182.88,-301.56 186.38,-291.56 179.38,-291.56"/>
</a>
</g>
</g>
<!-- Node6 -->
<g id="Node000006" class="node">
<title>Node6</title>
<g id="a_Node000006"><a xlink:href="classIRepositoryWriter.html" target="_top" xlink:title=" ">
<polygon fill="white" stroke="none" points="235.75,-581 130,-581 130,-469 235.75,-469 235.75,-581"/>
<text xml:space="preserve" text-anchor="start" x="142" y="-567.25" font-family="Helvetica,sans-Serif" font-size="10.00">IRepositoryWriter&lt;</text>
<text xml:space="preserve" text-anchor="start" x="166.38" y="-555.25" font-family="Helvetica,sans-Serif" font-size="10.00"> DTO &gt;</text>
<text xml:space="preserve" text-anchor="start" x="181.38" y="-539.25" font-family="Helvetica,sans-Serif" font-size="10.00"> </text>
<text xml:space="preserve" text-anchor="start" x="134" y="-523.25" font-family="Helvetica,sans-Serif" font-size="10.00">+</text>
<text xml:space="preserve" text-anchor="start" x="144" y="-523.25" font-family="Helvetica,sans-Serif" font-size="10.00">~IRepositoryWriter()</text>
<text xml:space="preserve" text-anchor="start" x="134" y="-507.25" font-family="Helvetica,sans-Serif" font-size="10.00">+</text>
<text xml:space="preserve" text-anchor="start" x="144" y="-507.25" font-family="Helvetica,sans-Serif" font-size="10.00">create()</text>
<text xml:space="preserve" text-anchor="start" x="134" y="-491.25" font-family="Helvetica,sans-Serif" font-size="10.00">+</text>
<text xml:space="preserve" text-anchor="start" x="144" y="-491.25" font-family="Helvetica,sans-Serif" font-size="10.00">remove()</text>
<text xml:space="preserve" text-anchor="start" x="134" y="-475.25" font-family="Helvetica,sans-Serif" font-size="10.00">+</text>
<text xml:space="preserve" text-anchor="start" x="144" y="-475.25" font-family="Helvetica,sans-Serif" font-size="10.00">update()</text>
<polygon fill="#666666" stroke="#666666" points="130,-551 130,-551 235.75,-551 235.75,-551 130,-551"/>
<polygon fill="#666666" stroke="#666666" points="130,-535 130,-535 235.75,-535 235.75,-535 130,-535"/>
<polygon fill="none" stroke="#666666" points="130,-469 130,-581 235.75,-581 235.75,-469 130,-469"/>
</a>
</g>
</g>
<!-- Node6&#45;&gt;Node5 -->
<g id="edge5_Node000005_Node000006" class="edge">
<title>Node6&#45;&gt;Node5</title>
<g id="a_edge5_Node000005_Node000006"><a xlink:title=" ">
<path fill="none" stroke="orange" d="M182.88,-458.09C182.88,-443.77 182.88,-428.77 182.88,-414.93"/>
<polygon fill="orange" stroke="orange" points="179.38,-457.88 182.88,-467.88 186.38,-457.88 179.38,-457.88"/>
</a>
</g>
<text xml:space="preserve" text-anchor="start" x="185.88" y="-438.25" font-family="Helvetica,sans-Serif" font-size="10.00" fill="grey">&lt; ReactionRoleDTO &gt;</text>
</g>
<!-- Node7 -->
<g id="Node000007" class="node">
<title>Node7</title>
<g id="a_Node000007"><a xlink:href="classIRepository.html" target="_top" xlink:title=" ">
<polygon fill="white" stroke="none" points="358.5,-385 261.25,-385 261.25,-333 358.5,-333 358.5,-385"/>
<text xml:space="preserve" text-anchor="start" x="265.25" y="-371.25" font-family="Helvetica,sans-Serif" font-size="10.00">IRepository&lt; DTO &gt;</text>
<text xml:space="preserve" text-anchor="start" x="308.38" y="-355.25" font-family="Helvetica,sans-Serif" font-size="10.00"> </text>
<text xml:space="preserve" text-anchor="start" x="308.38" y="-339.25" font-family="Helvetica,sans-Serif" font-size="10.00"> </text>
<polygon fill="#666666" stroke="#666666" points="261.25,-367 261.25,-367 358.5,-367 358.5,-367 261.25,-367"/>
<polygon fill="#666666" stroke="#666666" points="261.25,-351 261.25,-351 358.5,-351 358.5,-351 261.25,-351"/>
<polygon fill="none" stroke="#666666" points="261.25,-333 261.25,-385 358.5,-385 358.5,-333 261.25,-333"/>
</a>
</g>
</g>
<!-- Node7&#45;&gt;Node2 -->
<g id="edge6_Node000002_Node000007" class="edge">
<title>Node7&#45;&gt;Node2</title>
<g id="a_edge6_Node000002_Node000007"><a xlink:title=" ">
<path fill="none" stroke="orange" d="M279.81,-324.86C258.91,-301.82 231.25,-271.33 210.83,-248.82"/>
<polygon fill="orange" stroke="orange" points="277.13,-327.12 286.45,-332.17 282.32,-322.41 277.13,-327.12"/>
</a>
</g>
<text xml:space="preserve" text-anchor="start" x="245.57" y="-272.25" font-family="Helvetica,sans-Serif" font-size="10.00" fill="grey">&lt; ReactionRoleDTO &gt;</text>
</g>
<!-- Node8 -->
<g id="Node000008" class="node">
<title>Node8</title>
<g id="a_Node000008"><a xlink:href="classIRepositoryReader.html" target="_top" xlink:title=" ">
<polygon fill="white" stroke="none" points="365.75,-565 254,-565 254,-485 365.75,-485 365.75,-565"/>
<text xml:space="preserve" text-anchor="start" x="266" y="-551.25" font-family="Helvetica,sans-Serif" font-size="10.00">IRepositoryReader&lt;</text>
<text xml:space="preserve" text-anchor="start" x="293.38" y="-539.25" font-family="Helvetica,sans-Serif" font-size="10.00"> DTO &gt;</text>
<text xml:space="preserve" text-anchor="start" x="308.38" y="-523.25" font-family="Helvetica,sans-Serif" font-size="10.00"> </text>
<text xml:space="preserve" text-anchor="start" x="258" y="-507.25" font-family="Helvetica,sans-Serif" font-size="10.00">+</text>
<text xml:space="preserve" text-anchor="start" x="268" y="-507.25" font-family="Helvetica,sans-Serif" font-size="10.00">~IRepositoryReader()</text>
<text xml:space="preserve" text-anchor="start" x="258" y="-491.25" font-family="Helvetica,sans-Serif" font-size="10.00">+</text>
<text xml:space="preserve" text-anchor="start" x="268" y="-491.25" font-family="Helvetica,sans-Serif" font-size="10.00">get()</text>
<polygon fill="#666666" stroke="#666666" points="254,-535 254,-535 365.75,-535 365.75,-535 254,-535"/>
<polygon fill="#666666" stroke="#666666" points="254,-519 254,-519 365.75,-519 365.75,-519 254,-519"/>
<polygon fill="none" stroke="#666666" points="254,-485 254,-565 365.75,-565 365.75,-485 254,-485"/>
</a>
</g>
</g>
<!-- Node8&#45;&gt;Node7 -->
<g id="edge7_Node000007_Node000008" class="edge">
<title>Node8&#45;&gt;Node7</title>
<g id="a_edge7_Node000007_Node000008"><a xlink:title=" ">
<path fill="none" stroke="#63b8ff" d="M309.88,-473.78C309.88,-444.3 309.88,-408.33 309.88,-384.83"/>
<polygon fill="none" stroke="#63b8ff" points="306.38,-473.62 309.88,-483.62 313.38,-473.62 306.38,-473.62"/>
</a>
</g>
</g>
<!-- Node9 -->
<g id="Node000009" class="node">
<title>Node9</title>
<g id="a_Node000009"><a xlink:href="classIRepositoryWriter.html" target="_top" xlink:title=" ">
<polygon fill="white" stroke="none" points="489.75,-581 384,-581 384,-469 489.75,-469 489.75,-581"/>
<text xml:space="preserve" text-anchor="start" x="396" y="-567.25" font-family="Helvetica,sans-Serif" font-size="10.00">IRepositoryWriter&lt;</text>
<text xml:space="preserve" text-anchor="start" x="420.38" y="-555.25" font-family="Helvetica,sans-Serif" font-size="10.00"> DTO &gt;</text>
<text xml:space="preserve" text-anchor="start" x="435.38" y="-539.25" font-family="Helvetica,sans-Serif" font-size="10.00"> </text>
<text xml:space="preserve" text-anchor="start" x="388" y="-523.25" font-family="Helvetica,sans-Serif" font-size="10.00">+</text>
<text xml:space="preserve" text-anchor="start" x="398" y="-523.25" font-family="Helvetica,sans-Serif" font-size="10.00">~IRepositoryWriter()</text>
<text xml:space="preserve" text-anchor="start" x="388" y="-507.25" font-family="Helvetica,sans-Serif" font-size="10.00">+</text>
<text xml:space="preserve" text-anchor="start" x="398" y="-507.25" font-family="Helvetica,sans-Serif" font-size="10.00">create()</text>
<text xml:space="preserve" text-anchor="start" x="388" y="-491.25" font-family="Helvetica,sans-Serif" font-size="10.00">+</text>
<text xml:space="preserve" text-anchor="start" x="398" y="-491.25" font-family="Helvetica,sans-Serif" font-size="10.00">remove()</text>
<text xml:space="preserve" text-anchor="start" x="388" y="-475.25" font-family="Helvetica,sans-Serif" font-size="10.00">+</text>
<text xml:space="preserve" text-anchor="start" x="398" y="-475.25" font-family="Helvetica,sans-Serif" font-size="10.00">update()</text>
<polygon fill="#666666" stroke="#666666" points="384,-551 384,-551 489.75,-551 489.75,-551 384,-551"/>
<polygon fill="#666666" stroke="#666666" points="384,-535 384,-535 489.75,-535 489.75,-535 384,-535"/>
<polygon fill="none" stroke="#666666" points="384,-469 384,-581 489.75,-581 489.75,-469 384,-469"/>
</a>
</g>
</g>
<!-- Node9&#45;&gt;Node7 -->
<g id="edge8_Node000007_Node000009" class="edge">
<title>Node9&#45;&gt;Node7</title>
<g id="a_edge8_Node000007_Node000009"><a xlink:title=" ">
<path fill="none" stroke="#63b8ff" d="M387.71,-460.51C367.14,-433.95 344.46,-404.67 328.92,-384.59"/>
<polygon fill="none" stroke="#63b8ff" points="384.77,-462.43 393.66,-468.19 390.3,-458.14 384.77,-462.43"/>
</a>
</g>
</g>
</g>
</svg>
