<?xml version="1.0" encoding="UTF-8" standalone="no"?>
<!DOCTYPE svg PUBLIC "-//W3C//DTD SVG 1.1//EN"
 "http://www.w3.org/Graphics/SVG/1.1/DTD/svg11.dtd">
<!-- Generated by graphviz version 14.1.5 (0)
 -->
<!-- Title: IRepositoryWriter&lt; DTO &gt; Pages: 1 -->
<svg width="114pt" height="120pt"
 viewBox="0.00 0.00 114.00 120.00" xmlns="http://www.w3.org/2000/svg" xmlns:xlink="http://www.w3.org/1999/xlink">
<g id="graph0" class="graph" transform="scale(1 1) rotate(0) translate(4 116)">
<title>IRepositoryWriter&lt; DTO &gt;</title>
<!-- Node1 -->
<g id="Node000001" class="node">
<title>Node1</title>
<g id="a_Node000001"><a xlink:title=" ">
<polygon fill="#999999" stroke="none" points="105.75,-112 0,-112 0,0 105.75,0 105.75,-112"/>
<text xml:space="preserve" text-anchor="start" x="12" y="-98.25" font-family="Helvetica,sans-Serif" font-size="10.00">IRepositoryWriter&lt;</text>
<text xml:space="preserve" text-anchor="start" x="36.38" y="-86.25" font-family="Helvetica,sans-Serif" font-size="10.00"> DTO &gt;</text>
<text xml:space="preserve" text-anchor="start" x="51.38" y="-70.25" font-family="Helvetica,sans-Serif" font-size="10.00"> </text>
<text xml:space="preserve" text-anchor="start" x="4" y="-54.25" font-family="Helvetica,sans-Serif" font-size="10.00">+</text>
<text xml:space="preserve" text-anchor="start" x="14" y="-54.25" font-family="Helvetica,sans-Serif" font-size="10.00">~IRepositoryWriter()</text>
<text xml:space="preserve" text-anchor="start" x="4" y="-38.25" font-family="Helvetica,sans-Serif" font-size="10.00">+</text>
<text xml:space="preserve" text-anchor="start" x="14" y="-38.25" font-family="Helvetica,sans-Serif" font-size="10.00">create()</text>
<text xml:space="preserve" text-anchor="start" x="4" y="-22.25" font-family="Helvetica,sans-Serif" font-size="10.00">+</text>
<text xml:space="preserve" text-anchor="start" x="14" y="-22.25" font-family="Helvetica,sans-Serif" font-size="10.00">remove()</text>
<text xml:space="preserve" text-anchor="start" x="4" y="-6.25" font-family="Helvetica,sans-Serif" font-size="10.00">+</text>
<text xml:space="preserve" text-anchor="start" x="14" y="-6.25" font-family="Helvetica,sans-Serif" font-size="10.00">update()</text>
<polygon fill="#666666" stroke="#666666" points="0,-82 0,-82 105.75,-82 105.75,-82 0,-82"/>
<polygon fill="#666666" stroke="#666666" points="0,-66 0,-66 105.75,-66 105.75,-66 0,-66"/>
<polygon fill="none" stroke="#666666" points="0,0 0,-112 105.75,-112 105.75,0 0,0"/>
</a>
</g>
</g>
</g>
</svg>
