<?xml version="1.0" encoding="UTF-8" standalone="no"?>
<!DOCTYPE svg PUBLIC "-//W3C//DTD SVG 1.1//EN"
 "http://www.w3.org/Graphics/SVG/1.1/DTD/svg11.dtd">
<!-- Generated by graphviz version 13.0.1 (0)
 -->
<!-- Title: RestApi Pages: 1 -->
<svg width="196pt" height="166pt"
 viewBox="0.00 0.00 196.00 166.00" xmlns="http://www.w3.org/2000/svg" xmlns:xlink="http://www.w3.org/1999/xlink">
<g id="graph0" class="graph" transform="scale(1 1) rotate(0) translate(4 162)">
<title>RestApi</title>
<!-- Node1 -->
<g id="Node000001" class="node">
<title>Node1</title>
<g id="a_Node000001"><a xlink:title=" ">
<polygon fill="#999999" stroke="none" points="117.25,-52 73.75,-52 73.75,0 117.25,0 117.25,-52"/>
<text xml:space="preserve" text-anchor="start" x="77.88" y="-38.5" font-family="Helvetica,sans-Serif" font-size="10.00">RestApi</text>
<text xml:space="preserve" text-anchor="start" x="94" y="-22.5" font-family="Helvetica,sans-Serif" font-size="10.00"> </text>
<text xml:space="preserve" text-anchor="start" x="77.75" y="-6.5" font-family="Helvetica,sans-Serif" font-size="10.00">+</text>
<text xml:space="preserve" text-anchor="start" x="87.75" y="-6.5" font-family="Helvetica,sans-Serif" font-size="10.00">start()</text>
<polygon fill="#666666" stroke="#666666" points="73.75,-34 73.75,-34 117.25,-34 117.25,-34 73.75,-34"/>
<polygon fill="#666666" stroke="#666666" points="73.75,-18 73.75,-18 117.25,-18 117.25,-18 73.75,-18"/>
<polygon fill="none" stroke="#666666" points="73.75,0 73.75,-52 117.25,-52 117.25,0 73.75,0"/>
</a>
</g>
</g>
<!-- Node2 -->
<g id="Node000002" class="node">
<title>Node2</title>
<g id="a_Node000002"><a xlink:title=" ">
<polygon fill="white" stroke="none" points="89,-158 0,-158 0,-106 89,-106 89,-158"/>
<text xml:space="preserve" text-anchor="start" x="4" y="-144.5" font-family="Helvetica,sans-Serif" font-size="10.00">static const ushort</text>
<text xml:space="preserve" text-anchor="start" x="43" y="-128.5" font-family="Helvetica,sans-Serif" font-size="10.00"> </text>
<text xml:space="preserve" text-anchor="start" x="43" y="-112.5" font-family="Helvetica,sans-Serif" font-size="10.00"> </text>
<polygon fill="#666666" stroke="#666666" points="0,-140 0,-140 89,-140 89,-140 0,-140"/>
<polygon fill="#666666" stroke="#666666" points="0,-124 0,-124 89,-124 89,-124 0,-124"/>
<polygon fill="none" stroke="#666666" points="0,-106 0,-158 89,-158 89,-106 0,-106"/>
</a>
</g>
</g>
<!-- Node2&#45;&gt;Node1 -->
<g id="edge1_Node000001_Node000002" class="edge">
<title>Node2&#45;&gt;Node1</title>
<g id="a_edge1_Node000001_Node000002"><a xlink:title=" ">
<path fill="none" stroke="#63b8ff" d="M56.72,-106.09C63.02,-93.23 70.84,-77.29 77.79,-63.11"/>
<polygon fill="none" stroke="#63b8ff" points="77.7,-63.29 76.75,-56.14 82.99,-52.52 83.94,-59.66 77.7,-63.29"/>
</a>
</g>
<text xml:space="preserve" text-anchor="start" x="76.05" y="-75.5" font-family="Helvetica,sans-Serif" font-size="10.00" fill="grey">+port</text>
</g>
<!-- Node3 -->
<g id="Node000003" class="node">
<title>Node3</title>
<g id="a_Node000003"><a xlink:title=" ">
<polygon fill="white" stroke="none" points="187.5,-158 107.5,-158 107.5,-106 187.5,-106 187.5,-158"/>
<text xml:space="preserve" text-anchor="start" x="111.5" y="-144.5" font-family="Helvetica,sans-Serif" font-size="10.00">static const bool</text>
<text xml:space="preserve" text-anchor="start" x="146" y="-128.5" font-family="Helvetica,sans-Serif" font-size="10.00"> </text>
<text xml:space="preserve" text-anchor="start" x="146" y="-112.5" font-family="Helvetica,sans-Serif" font-size="10.00"> </text>
<polygon fill="#666666" stroke="#666666" points="107.5,-140 107.5,-140 187.5,-140 187.5,-140 107.5,-140"/>
<polygon fill="#666666" stroke="#666666" points="107.5,-124 107.5,-124 187.5,-124 187.5,-124 107.5,-124"/>
<polygon fill="none" stroke="#666666" points="107.5,-106 107.5,-158 187.5,-158 187.5,-106 107.5,-106"/>
</a>
</g>
</g>
<!-- Node3&#45;&gt;Node1 -->
<g id="edge2_Node000001_Node000003" class="edge">
<title>Node3&#45;&gt;Node1</title>
<g id="a_edge2_Node000001_Node000003"><a xlink:title=" ">
<path fill="none" stroke="#63b8ff" d="M135.04,-106.09C128.61,-93.23 120.65,-77.29 113.55,-63.11"/>
<polygon fill="none" stroke="#63b8ff" points="113.62,-63.25 107.36,-59.67 108.26,-52.51 114.52,-56.09 113.62,-63.25"/>
</a>
</g>
<text xml:space="preserve" text-anchor="start" x="127.61" y="-75.5" font-family="Helvetica,sans-Serif" font-size="10.00" fill="grey">+ssl_enabled</text>
</g>
</g>
</svg>
