<?xml version="1.0" encoding="UTF-8" standalone="no"?>
<!DOCTYPE svg PUBLIC "-//W3C//DTD SVG 1.1//EN"
 "http://www.w3.org/Graphics/SVG/1.1/DTD/svg11.dtd">
<!-- Generated by graphviz version 12.2.1 (0)
 -->
<!-- Title: LatestEventsRepository Pages: 1 -->
<svg width="121pt" height="140pt"
 viewBox="0.00 0.00 121.00 140.00" xmlns="http://www.w3.org/2000/svg" xmlns:xlink="http://www.w3.org/1999/xlink">
<g id="graph0" class="graph" transform="scale(1 1) rotate(0) translate(4 136)">
<title>LatestEventsRepository</title>
<!-- Node1 -->
<g id="Node000001" class="node">
<title>Node1</title>
<g id="a_Node000001"><a xlink:title=" ">
<polygon fill="#999999" stroke="none" points="113,-132 0,-132 0,0 113,0 113,-132"/>
<text text-anchor="start" x="4" y="-118.5" font-family="Helvetica,sans-Serif" font-size="10.00">LatestEventsRepository</text>
<text text-anchor="start" x="55" y="-102.5" font-family="Helvetica,sans-Serif" font-size="10.00"> </text>
<text text-anchor="start" x="15" y="-86.5" font-family="Helvetica,sans-Serif" font-size="10.00">+</text>
<text text-anchor="start" x="36" y="-86.5" font-family="Helvetica,sans-Serif" font-size="10.00">insert()</text>
<text text-anchor="start" x="15" y="-70.5" font-family="Helvetica,sans-Serif" font-size="10.00">+</text>
<text text-anchor="start" x="36" y="-70.5" font-family="Helvetica,sans-Serif" font-size="10.00">remove()</text>
<text text-anchor="start" x="15" y="-54.5" font-family="Helvetica,sans-Serif" font-size="10.00">+</text>
<text text-anchor="start" x="36" y="-54.5" font-family="Helvetica,sans-Serif" font-size="10.00">exists()</text>
<text text-anchor="start" x="15" y="-38.5" font-family="Helvetica,sans-Serif" font-size="10.00">+</text>
<text text-anchor="start" x="36" y="-38.5" font-family="Helvetica,sans-Serif" font-size="10.00">load()</text>
<text text-anchor="start" x="15" y="-22.5" font-family="Helvetica,sans-Serif" font-size="10.00">+</text>
<text text-anchor="start" x="36" y="-22.5" font-family="Helvetica,sans-Serif" font-size="10.00">set_active()</text>
<text text-anchor="start" x="15" y="-6.5" font-family="Helvetica,sans-Serif" font-size="10.00">+</text>
<text text-anchor="start" x="36" y="-6.5" font-family="Helvetica,sans-Serif" font-size="10.00">is_active()</text>
<polygon fill="#666666" stroke="#666666" points="0,-114 0,-114 113,-114 113,-114 0,-114"/>
<polygon fill="#666666" stroke="#666666" points="0,-98 0,-98 113,-98 113,-98 0,-98"/>
<polygon fill="none" stroke="#666666" points="0,0 0,-132 113,-132 113,0 0,0"/>
</a>
</g>
</g>
</g>
</svg>
