<?xml version="1.0" encoding="UTF-8" standalone="no"?>
<!DOCTYPE svg PUBLIC "-//W3C//DTD SVG 1.1//EN"
 "http://www.w3.org/Graphics/SVG/1.1/DTD/svg11.dtd">
<!-- Generated by graphviz version 12.2.1 (0)
 -->
<!-- Title: NotificationDTO Pages: 1 -->
<svg width="139pt" height="264pt"
 viewBox="0.00 0.00 139.15 264.00" xmlns="http://www.w3.org/2000/svg" xmlns:xlink="http://www.w3.org/1999/xlink">
<g id="graph0" class="graph" transform="scale(1 1) rotate(0) translate(4 260)">
<title>NotificationDTO</title>
<!-- Node1 -->
<g id="Node000001" class="node">
<title>Node1</title>
<g id="a_Node000001"><a xlink:title=" ">
<polygon fill="#999999" stroke="none" points="103.38,-132 8.88,-132 8.88,0 103.38,0 103.38,-132"/>
<text text-anchor="start" x="20.88" y="-118.5" font-family="Helvetica,sans-Serif" font-size="10.00">NotificationDTO</text>
<text text-anchor="start" x="54.62" y="-102.5" font-family="Helvetica,sans-Serif" font-size="10.00"> </text>
<text text-anchor="start" x="12.88" y="-86.5" font-family="Helvetica,sans-Serif" font-size="10.00">+</text>
<text text-anchor="start" x="22.88" y="-86.5" font-family="Helvetica,sans-Serif" font-size="10.00">NotificationDTO()</text>
<text text-anchor="start" x="12.88" y="-70.5" font-family="Helvetica,sans-Serif" font-size="10.00">+</text>
<text text-anchor="start" x="22.88" y="-70.5" font-family="Helvetica,sans-Serif" font-size="10.00">NotificationDTO()</text>
<text text-anchor="start" x="12.88" y="-54.5" font-family="Helvetica,sans-Serif" font-size="10.00">+</text>
<text text-anchor="start" x="22.88" y="-54.5" font-family="Helvetica,sans-Serif" font-size="10.00">NotificationDTO()</text>
<text text-anchor="start" x="12.88" y="-38.5" font-family="Helvetica,sans-Serif" font-size="10.00">+</text>
<text text-anchor="start" x="22.88" y="-38.5" font-family="Helvetica,sans-Serif" font-size="10.00">NotificationDTO()</text>
<text text-anchor="start" x="12.88" y="-22.5" font-family="Helvetica,sans-Serif" font-size="10.00">+</text>
<text text-anchor="start" x="22.88" y="-22.5" font-family="Helvetica,sans-Serif" font-size="10.00">NotificationDTO()</text>
<text text-anchor="start" x="12.88" y="-6.5" font-family="Helvetica,sans-Serif" font-size="10.00">+</text>
<text text-anchor="start" x="22.88" y="-6.5" font-family="Helvetica,sans-Serif" font-size="10.00">NotificationDTO()</text>
<polygon fill="#666666" stroke="#666666" points="8.88,-114 8.88,-114 103.38,-114 103.38,-114 8.88,-114"/>
<polygon fill="#666666" stroke="#666666" points="8.88,-98 8.88,-98 103.38,-98 103.38,-98 8.88,-98"/>
<polygon fill="none" stroke="#666666" points="8.88,0 8.88,-132 103.38,-132 103.38,0 8.88,0"/>
</a>
</g>
</g>
<!-- Node2 -->
<g id="Node000002" class="node">
<title>Node2</title>
<g id="a_Node000002"><a xlink:title=" ">
<polygon fill="white" stroke="none" points="34.25,-256 0,-256 0,-204 34.25,-204 34.25,-256"/>
<text text-anchor="start" x="4" y="-242.5" font-family="Helvetica,sans-Serif" font-size="10.00">size_t</text>
<text text-anchor="start" x="15.62" y="-226.5" font-family="Helvetica,sans-Serif" font-size="10.00"> </text>
<text text-anchor="start" x="15.62" y="-210.5" font-family="Helvetica,sans-Serif" font-size="10.00"> </text>
<polygon fill="#666666" stroke="#666666" points="0,-238 0,-238 34.25,-238 34.25,-238 0,-238"/>
<polygon fill="#666666" stroke="#666666" points="0,-222 0,-222 34.25,-222 34.25,-222 0,-222"/>
<polygon fill="none" stroke="#666666" points="0,-204 0,-256 34.25,-256 34.25,-204 0,-204"/>
</a>
</g>
</g>
<!-- Node2&#45;&gt;Node1 -->
<g id="edge1_Node000001_Node000002" class="edge">
<title>Node2&#45;&gt;Node1</title>
<g id="a_edge1_Node000001_Node000002"><a xlink:title=" ">
<path fill="none" stroke="#63b8ff" d="M15.05,-204.14C14.37,-188.43 14.61,-167.8 18.62,-150 19.07,-148.03 19.56,-146.04 20.1,-144.05"/>
<polygon fill="none" stroke="#63b8ff" points="20.07,-144.16 18.03,-137.25 23.63,-132.7 25.67,-139.62 20.07,-144.16"/>
</a>
</g>
<text text-anchor="middle" x="46.38" y="-176.5" font-family="Helvetica,sans-Serif" font-size="10.00" fill="grey"> +channel_id</text>
<text text-anchor="middle" x="46.38" y="-164.5" font-family="Helvetica,sans-Serif" font-size="10.00" fill="grey">+guild_id</text>
<text text-anchor="middle" x="46.38" y="-152.5" font-family="Helvetica,sans-Serif" font-size="10.00" fill="grey">+timestep</text>
</g>
<!-- Node3 -->
<g id="Node000003" class="node">
<title>Node3</title>
<g id="a_Node000003"><a xlink:title=" ">
<polygon fill="white" stroke="none" points="112.12,-256 80.12,-256 80.12,-204 112.12,-204 112.12,-256"/>
<text text-anchor="start" x="84.12" y="-242.5" font-family="Helvetica,sans-Serif" font-size="10.00">string</text>
<text text-anchor="start" x="94.62" y="-226.5" font-family="Helvetica,sans-Serif" font-size="10.00"> </text>
<text text-anchor="start" x="94.62" y="-210.5" font-family="Helvetica,sans-Serif" font-size="10.00"> </text>
<polygon fill="#666666" stroke="#666666" points="80.12,-238 80.12,-238 112.12,-238 112.12,-238 80.12,-238"/>
<polygon fill="#666666" stroke="#666666" points="80.12,-222 80.12,-222 112.12,-222 112.12,-222 80.12,-222"/>
<polygon fill="none" stroke="#666666" points="80.12,-204 80.12,-256 112.12,-256 112.12,-204 80.12,-204"/>
</a>
</g>
</g>
<!-- Node3&#45;&gt;Node1 -->
<g id="edge2_Node000001_Node000003" class="edge">
<title>Node3&#45;&gt;Node1</title>
<g id="a_edge2_Node000001_Node000003"><a xlink:title=" ">
<path fill="none" stroke="#63b8ff" d="M89.96,-204.04C85.99,-187.94 80.58,-166.05 75.26,-144.49"/>
<polygon fill="none" stroke="#63b8ff" points="75.24,-144.4 69.92,-139.54 72.36,-132.75 77.68,-137.62 75.24,-144.4"/>
</a>
</g>
<text text-anchor="middle" x="108.27" y="-176.5" font-family="Helvetica,sans-Serif" font-size="10.00" fill="grey"> +data</text>
<text text-anchor="middle" x="108.27" y="-164.5" font-family="Helvetica,sans-Serif" font-size="10.00" fill="grey">+message</text>
<text text-anchor="middle" x="108.27" y="-152.5" font-family="Helvetica,sans-Serif" font-size="10.00" fill="grey">+type</text>
</g>
</g>
</svg>
