<?xml version="1.0" encoding="UTF-8" standalone="no"?>
<!DOCTYPE svg PUBLIC "-//W3C//DTD SVG 1.1//EN"
 "http://www.w3.org/Graphics/SVG/1.1/DTD/svg11.dtd">
<!-- Generated by graphviz version 12.2.1 (0)
 -->
<!-- Title: IReady Pages: 1 -->
<svg width="306pt" height="228pt"
 viewBox="0.00 0.00 305.75 228.00" xmlns="http://www.w3.org/2000/svg" xmlns:xlink="http://www.w3.org/1999/xlink">
<g id="graph0" class="graph" transform="scale(1 1) rotate(0) translate(4 224)">
<title>IReady</title>
<!-- Node1 -->
<g id="Node000001" class="node">
<title>Node1</title>
<g id="a_Node000001"><a xlink:title=" ">
<polygon fill="#999999" stroke="none" points="180.75,-220 117,-220 117,-168 180.75,-168 180.75,-220"/>
<text text-anchor="start" x="133.12" y="-206.5" font-family="Helvetica,sans-Serif" font-size="10.00">IReady</text>
<text text-anchor="start" x="147.38" y="-190.5" font-family="Helvetica,sans-Serif" font-size="10.00"> </text>
<text text-anchor="start" x="121" y="-174.5" font-family="Helvetica,sans-Serif" font-size="10.00">+</text>
<text text-anchor="start" x="131" y="-174.5" font-family="Helvetica,sans-Serif" font-size="10.00">on_ready()</text>
<polygon fill="#666666" stroke="#666666" points="117,-202 117,-202 180.75,-202 180.75,-202 117,-202"/>
<polygon fill="#666666" stroke="#666666" points="117,-186 117,-186 180.75,-186 180.75,-186 117,-186"/>
<polygon fill="none" stroke="#666666" points="117,-168 117,-220 180.75,-220 180.75,-168 117,-168"/>
</a>
</g>
</g>
<!-- Node2 -->
<g id="Node000002" class="node">
<title>Node2</title>
<g id="a_Node000002"><a xlink:href="classInitDatabase.html" target="_top" xlink:title=" ">
<polygon fill="white" stroke="none" points="63.75,-92 0,-92 0,-40 63.75,-40 63.75,-92"/>
<text text-anchor="start" x="4.12" y="-78.5" font-family="Helvetica,sans-Serif" font-size="10.00">InitDatabase</text>
<text text-anchor="start" x="30.38" y="-62.5" font-family="Helvetica,sans-Serif" font-size="10.00"> </text>
<text text-anchor="start" x="4" y="-46.5" font-family="Helvetica,sans-Serif" font-size="10.00">+</text>
<text text-anchor="start" x="14" y="-46.5" font-family="Helvetica,sans-Serif" font-size="10.00">on_ready()</text>
<polygon fill="#666666" stroke="#666666" points="0,-74 0,-74 63.75,-74 63.75,-74 0,-74"/>
<polygon fill="#666666" stroke="#666666" points="0,-58 0,-58 63.75,-58 63.75,-58 0,-58"/>
<polygon fill="none" stroke="#666666" points="0,-40 0,-92 63.75,-92 63.75,-40 0,-40"/>
</a>
</g>
</g>
<!-- Node1&#45;&gt;Node2 -->
<g id="edge1_Node000001_Node000002" class="edge">
<title>Node1&#45;&gt;Node2</title>
<g id="a_edge1_Node000001_Node000002"><a xlink:title=" ">
<path fill="none" stroke="#63b8ff" d="M108.2,-164.41C96.09,-154.86 83.29,-143.67 72.88,-132 62.04,-119.86 52.22,-104.52 44.91,-91.8"/>
<polygon fill="none" stroke="#63b8ff" points="106,-167.13 116.07,-170.44 110.26,-161.58 106,-167.13"/>
</a>
</g>
</g>
<!-- Node3 -->
<g id="Node000003" class="node">
<title>Node3</title>
<g id="a_Node000003"><a xlink:href="classSetNotificationCommand.html" target="_top" xlink:title=" ">
<polygon fill="white" stroke="none" points="215.62,-132 82.12,-132 82.12,0 215.62,0 215.62,-132"/>
<text text-anchor="start" x="94.12" y="-118.5" font-family="Helvetica,sans-Serif" font-size="10.00">SetNotificationCommand</text>
<text text-anchor="start" x="147.38" y="-102.5" font-family="Helvetica,sans-Serif" font-size="10.00"> </text>
<text text-anchor="start" x="86.12" y="-86.5" font-family="Helvetica,sans-Serif" font-size="10.00">+</text>
<text text-anchor="start" x="96.12" y="-86.5" font-family="Helvetica,sans-Serif" font-size="10.00">SetNotificationCommand()</text>
<text text-anchor="start" x="86.12" y="-70.5" font-family="Helvetica,sans-Serif" font-size="10.00">+</text>
<text text-anchor="start" x="96.12" y="-70.5" font-family="Helvetica,sans-Serif" font-size="10.00">on_slashcommand()</text>
<text text-anchor="start" x="86.12" y="-54.5" font-family="Helvetica,sans-Serif" font-size="10.00">+</text>
<text text-anchor="start" x="96.12" y="-54.5" font-family="Helvetica,sans-Serif" font-size="10.00">on_ready()</text>
<text text-anchor="start" x="86.12" y="-38.5" font-family="Helvetica,sans-Serif" font-size="10.00">+</text>
<text text-anchor="start" x="96.12" y="-38.5" font-family="Helvetica,sans-Serif" font-size="10.00">SetNotificationCommand()</text>
<text text-anchor="start" x="86.12" y="-22.5" font-family="Helvetica,sans-Serif" font-size="10.00">+</text>
<text text-anchor="start" x="96.12" y="-22.5" font-family="Helvetica,sans-Serif" font-size="10.00">on_slashcommand()</text>
<text text-anchor="start" x="86.12" y="-6.5" font-family="Helvetica,sans-Serif" font-size="10.00">+</text>
<text text-anchor="start" x="96.12" y="-6.5" font-family="Helvetica,sans-Serif" font-size="10.00">on_ready()</text>
<polygon fill="#666666" stroke="#666666" points="82.12,-114 82.12,-114 215.62,-114 215.62,-114 82.12,-114"/>
<polygon fill="#666666" stroke="#666666" points="82.12,-98 82.12,-98 215.62,-98 215.62,-98 82.12,-98"/>
<polygon fill="none" stroke="#666666" points="82.12,0 82.12,-132 215.62,-132 215.62,0 82.12,0"/>
</a>
</g>
</g>
<!-- Node1&#45;&gt;Node3 -->
<g id="edge2_Node000001_Node000003" class="edge">
<title>Node1&#45;&gt;Node3</title>
<g id="a_edge2_Node000001_Node000003"><a xlink:title=" ">
<path fill="none" stroke="#63b8ff" d="M142.7,-156.79C142.34,-148.94 142.15,-140.4 142.13,-131.82"/>
<polygon fill="none" stroke="#63b8ff" points="139.2,-156.82 143.28,-166.6 146.18,-156.41 139.2,-156.82"/>
</a>
</g>
</g>
<!-- Node1&#45;&gt;Node3 -->
<g id="edge3_Node000001_Node000003" class="edge">
<title>Node1&#45;&gt;Node3</title>
<g id="a_edge3_Node000001_Node000003"><a xlink:title=" ">
<path fill="none" stroke="#63b8ff" d="M155.05,-156.79C155.41,-148.94 155.6,-140.4 155.62,-131.82"/>
<polygon fill="none" stroke="#63b8ff" points="151.57,-156.41 154.47,-166.6 158.55,-156.82 151.57,-156.41"/>
</a>
</g>
</g>
<!-- Node4 -->
<g id="Node000004" class="node">
<title>Node4</title>
<g id="a_Node000004"><a xlink:href="classSetStatus.html" target="_top" xlink:title=" ">
<polygon fill="white" stroke="none" points="297.75,-92 234,-92 234,-40 297.75,-40 297.75,-92"/>
<text text-anchor="start" x="244.12" y="-78.5" font-family="Helvetica,sans-Serif" font-size="10.00">SetStatus</text>
<text text-anchor="start" x="264.38" y="-62.5" font-family="Helvetica,sans-Serif" font-size="10.00"> </text>
<text text-anchor="start" x="238" y="-46.5" font-family="Helvetica,sans-Serif" font-size="10.00">+</text>
<text text-anchor="start" x="248" y="-46.5" font-family="Helvetica,sans-Serif" font-size="10.00">on_ready()</text>
<polygon fill="#666666" stroke="#666666" points="234,-74 234,-74 297.75,-74 297.75,-74 234,-74"/>
<polygon fill="#666666" stroke="#666666" points="234,-58 234,-58 297.75,-58 297.75,-58 234,-58"/>
<polygon fill="none" stroke="#666666" points="234,-40 234,-92 297.75,-92 297.75,-40 234,-40"/>
</a>
</g>
</g>
<!-- Node1&#45;&gt;Node4 -->
<g id="edge4_Node000001_Node000004" class="edge">
<title>Node1&#45;&gt;Node4</title>
<g id="a_edge4_Node000001_Node000004"><a xlink:title=" ">
<path fill="none" stroke="#63b8ff" d="M189.55,-164.41C201.66,-154.86 214.46,-143.67 224.88,-132 235.71,-119.86 245.53,-104.52 252.84,-91.8"/>
<polygon fill="none" stroke="#63b8ff" points="187.49,-161.58 181.68,-170.44 191.75,-167.13 187.49,-161.58"/>
</a>
</g>
</g>
</g>
</svg>
