<?xml version="1.0" encoding="UTF-8" standalone="no"?>
<!DOCTYPE svg PUBLIC "-//W3C//DTD SVG 1.1//EN"
 "http://www.w3.org/Graphics/SVG/1.1/DTD/svg11.dtd">
<!-- Generated by graphviz version 10.0.1 (0)
 -->
<!-- Title: BlacklistDTO Pages: 1 -->
<svg width="101pt" height="192pt"
 viewBox="0.00 0.00 100.75 192.00" xmlns="http://www.w3.org/2000/svg" xmlns:xlink="http://www.w3.org/1999/xlink">
<g id="graph0" class="graph" transform="scale(1 1) rotate(0) translate(4 188)">
<title>BlacklistDTO</title>
<!-- Node1 -->
<g id="Node000001" class="node">
<title>Node1</title>
<g id="a_Node000001"><a xlink:title=" ">
<polygon fill="#999999" stroke="none" points="82,-84 0,-84 0,0 82,0 82,-84"/>
<text text-anchor="start" x="11.75" y="-70.5" font-family="Helvetica,sans-Serif" font-size="10.00">BlacklistDTO</text>
<text text-anchor="start" x="39.5" y="-54.5" font-family="Helvetica,sans-Serif" font-size="10.00"> </text>
<text text-anchor="start" x="4" y="-38.5" font-family="Helvetica,sans-Serif" font-size="10.00">+</text>
<text text-anchor="start" x="14" y="-38.5" font-family="Helvetica,sans-Serif" font-size="10.00">BlacklistDTO()</text>
<text text-anchor="start" x="4" y="-22.5" font-family="Helvetica,sans-Serif" font-size="10.00">+</text>
<text text-anchor="start" x="14" y="-22.5" font-family="Helvetica,sans-Serif" font-size="10.00">BlacklistDTO()</text>
<text text-anchor="start" x="4" y="-6.5" font-family="Helvetica,sans-Serif" font-size="10.00">+</text>
<text text-anchor="start" x="14" y="-6.5" font-family="Helvetica,sans-Serif" font-size="10.00">BlacklistDTO()</text>
<polygon fill="#666666" stroke="#666666" points="0,-66 0,-66 82,-66 82,-66 0,-66"/>
<polygon fill="#666666" stroke="#666666" points="0,-50 0,-50 82,-50 82,-50 0,-50"/>
<polygon fill="none" stroke="#666666" points="0,0 0,-84 82,-84 82,0 0,0"/>
</a>
</g>
</g>
<!-- Node2 -->
<g id="Node000002" class="node">
<title>Node2</title>
<g id="a_Node000002"><a xlink:title=" ">
<polygon fill="white" stroke="none" points="58,-184 24,-184 24,-132 58,-132 58,-184"/>
<text text-anchor="start" x="29" y="-170.5" font-family="Helvetica,sans-Serif" font-size="10.00">string</text>
<text text-anchor="start" x="39.5" y="-154.5" font-family="Helvetica,sans-Serif" font-size="10.00"> </text>
<text text-anchor="start" x="39.5" y="-138.5" font-family="Helvetica,sans-Serif" font-size="10.00"> </text>
<polygon fill="#666666" stroke="#666666" points="24,-166 24,-166 58,-166 58,-166 24,-166"/>
<polygon fill="#666666" stroke="#666666" points="24,-150 24,-150 58,-150 58,-150 24,-150"/>
<polygon fill="none" stroke="#666666" points="24,-132 24,-184 58,-184 58,-132 24,-132"/>
</a>
</g>
</g>
<!-- Node2&#45;&gt;Node1 -->
<g id="edge1_Node000001_Node000002" class="edge">
<title>Node2&#45;&gt;Node1</title>
<g id="a_edge1_Node000001_Node000002"><a xlink:title=" ">
<path fill="none" stroke="#63b8ff" d="M41,-132.26C41,-121.77 41,-109.09 41,-96.63"/>
<polygon fill="none" stroke="#63b8ff" points="41,-96.73 37,-90.73 41,-84.73 45,-90.73 41,-96.73"/>
</a>
</g>
<text text-anchor="middle" x="66.88" y="-104.5" font-family="Helvetica,sans-Serif" font-size="10.00" fill="grey"> +username</text>
</g>
</g>
</svg>
