<?xml version="1.0" encoding="UTF-8" standalone="no"?>
<!DOCTYPE svg PUBLIC "-//W3C//DTD SVG 1.1//EN"
 "http://www.w3.org/Graphics/SVG/1.1/DTD/svg11.dtd">
<!-- Generated by graphviz version 13.0.1 (0)
 -->
<!-- Title: SetPortalCommand Pages: 1 -->
<svg width="427pt" height="443pt"
 viewBox="0.00 0.00 427.00 443.00" xmlns="http://www.w3.org/2000/svg" xmlns:xlink="http://www.w3.org/1999/xlink">
<g id="graph0" class="graph" transform="scale(1 1) rotate(0) translate(4 439)">
<title>SetPortalCommand</title>
<!-- Node1 -->
<g id="Node000001" class="node">
<title>Node1</title>
<g id="a_Node000001"><a xlink:title=" ">
<polygon fill="#999999" stroke="none" points="287.12,-172 152.88,-172 152.88,0 287.12,0 287.12,-172"/>
<text xml:space="preserve" text-anchor="start" x="177.25" y="-158.5" font-family="Helvetica,sans-Serif" font-size="10.00">SetPortalCommand</text>
<text xml:space="preserve" text-anchor="start" x="218.5" y="-142.5" font-family="Helvetica,sans-Serif" font-size="10.00"> </text>
<text xml:space="preserve" text-anchor="start" x="156.88" y="-126.5" font-family="Helvetica,sans-Serif" font-size="10.00">+</text>
<text xml:space="preserve" text-anchor="start" x="166.88" y="-126.5" font-family="Helvetica,sans-Serif" font-size="10.00">SetPortalCommand()</text>
<text xml:space="preserve" text-anchor="start" x="156.88" y="-110.5" font-family="Helvetica,sans-Serif" font-size="10.00">+</text>
<text xml:space="preserve" text-anchor="start" x="166.88" y="-110.5" font-family="Helvetica,sans-Serif" font-size="10.00">on_slashcommand()</text>
<text xml:space="preserve" text-anchor="start" x="156.88" y="-94.5" font-family="Helvetica,sans-Serif" font-size="10.00">+</text>
<text xml:space="preserve" text-anchor="start" x="166.88" y="-94.5" font-family="Helvetica,sans-Serif" font-size="10.00">on_message_create()</text>
<text xml:space="preserve" text-anchor="start" x="156.88" y="-78.5" font-family="Helvetica,sans-Serif" font-size="10.00">+</text>
<text xml:space="preserve" text-anchor="start" x="166.88" y="-78.5" font-family="Helvetica,sans-Serif" font-size="10.00">on_message_delete()</text>
<text xml:space="preserve" text-anchor="start" x="156.88" y="-62.5" font-family="Helvetica,sans-Serif" font-size="10.00">+</text>
<text xml:space="preserve" text-anchor="start" x="166.88" y="-62.5" font-family="Helvetica,sans-Serif" font-size="10.00">on_message_delete_bulk()</text>
<text xml:space="preserve" text-anchor="start" x="156.88" y="-46.5" font-family="Helvetica,sans-Serif" font-size="10.00">+</text>
<text xml:space="preserve" text-anchor="start" x="166.88" y="-46.5" font-family="Helvetica,sans-Serif" font-size="10.00">on_message_reaction</text>
<text xml:space="preserve" text-anchor="start" x="166.88" y="-34.5" font-family="Helvetica,sans-Serif" font-size="10.00">_add()</text>
<text xml:space="preserve" text-anchor="start" x="156.88" y="-18.5" font-family="Helvetica,sans-Serif" font-size="10.00">+</text>
<text xml:space="preserve" text-anchor="start" x="166.88" y="-18.5" font-family="Helvetica,sans-Serif" font-size="10.00">on_message_reaction</text>
<text xml:space="preserve" text-anchor="start" x="166.88" y="-6.5" font-family="Helvetica,sans-Serif" font-size="10.00">_remove()</text>
<polygon fill="#666666" stroke="#666666" points="152.88,-154 152.88,-154 287.12,-154 287.12,-154 152.88,-154"/>
<polygon fill="#666666" stroke="#666666" points="152.88,-138 152.88,-138 287.12,-138 287.12,-138 152.88,-138"/>
<polygon fill="none" stroke="#666666" points="152.88,0 152.88,-172 287.12,-172 287.12,0 152.88,0"/>
</a>
</g>
</g>
<!-- Node2 -->
<g id="Node000002" class="node">
<title>Node2</title>
<g id="a_Node000002"><a xlink:href="classIGlobalSlashCommand.html" target="_top" xlink:title=" ">
<polygon fill="white" stroke="none" points="135.25,-281 26.75,-281 26.75,-229 135.25,-229 135.25,-281"/>
<text xml:space="preserve" text-anchor="start" x="30.75" y="-267.5" font-family="Helvetica,sans-Serif" font-size="10.00">IGlobalSlashCommand</text>
<text xml:space="preserve" text-anchor="start" x="79.5" y="-251.5" font-family="Helvetica,sans-Serif" font-size="10.00"> </text>
<text xml:space="preserve" text-anchor="start" x="31.44" y="-235.5" font-family="Helvetica,sans-Serif" font-size="10.00">+</text>
<text xml:space="preserve" text-anchor="start" x="42.12" y="-235.5" font-family="Helvetica,sans-Serif" font-size="10.00">on_slashcommand()</text>
<polygon fill="#666666" stroke="#666666" points="26.75,-263 26.75,-263 135.25,-263 135.25,-263 26.75,-263"/>
<polygon fill="#666666" stroke="#666666" points="26.75,-247 26.75,-247 135.25,-247 135.25,-247 26.75,-247"/>
<polygon fill="none" stroke="#666666" points="26.75,-229 26.75,-281 135.25,-281 135.25,-229 26.75,-229"/>
</a>
</g>
</g>
<!-- Node2&#45;&gt;Node1 -->
<g id="edge1_Node000001_Node000002" class="edge">
<title>Node2&#45;&gt;Node1</title>
<g id="a_edge1_Node000001_Node000002"><a xlink:title=" ">
<path fill="none" stroke="#63b8ff" d="M108.67,-220.76C121.46,-205.38 137.27,-186.4 152.91,-167.6"/>
<polygon fill="none" stroke="#63b8ff" points="106.19,-218.27 102.48,-228.2 111.57,-222.75 106.19,-218.27"/>
</a>
</g>
</g>
<!-- Node3 -->
<g id="Node000003" class="node">
<title>Node3</title>
<g id="a_Node000003"><a xlink:title=" ">
<polygon fill="white" stroke="none" points="32,-429 0,-429 0,-377 32,-377 32,-429"/>
<text xml:space="preserve" text-anchor="start" x="4" y="-415.5" font-family="Helvetica,sans-Serif" font-size="10.00">string</text>
<text xml:space="preserve" text-anchor="start" x="14.5" y="-399.5" font-family="Helvetica,sans-Serif" font-size="10.00"> </text>
<text xml:space="preserve" text-anchor="start" x="14.5" y="-383.5" font-family="Helvetica,sans-Serif" font-size="10.00"> </text>
<polygon fill="#666666" stroke="#666666" points="0,-411 0,-411 32,-411 32,-411 0,-411"/>
<polygon fill="#666666" stroke="#666666" points="0,-395 0,-395 32,-395 32,-395 0,-395"/>
<polygon fill="none" stroke="#666666" points="0,-377 0,-429 32,-429 32,-377 0,-377"/>
</a>
</g>
</g>
<!-- Node3&#45;&gt;Node2 -->
<g id="edge2_Node000002_Node000003" class="edge">
<title>Node3&#45;&gt;Node2</title>
<g id="a_edge2_Node000002_Node000003"><a xlink:title=" ">
<path fill="none" stroke="#63b8ff" d="M11.37,-377.02C9.36,-359.99 8.97,-337.3 16.75,-319 21.37,-308.13 28.88,-298.18 37.15,-289.56"/>
<polygon fill="none" stroke="#63b8ff" points="37.02,-289.68 38.58,-282.64 45.68,-281.37 44.12,-288.41 37.02,-289.68"/>
</a>
</g>
<text xml:space="preserve" text-anchor="start" x="19.75" y="-340.5" font-family="Helvetica,sans-Serif" font-size="10.00" fill="grey">+command_description</text>
<text xml:space="preserve" text-anchor="start" x="19.75" y="-324.5" font-family="Helvetica,sans-Serif" font-size="10.00" fill="grey">+command_name</text>
</g>
<!-- Node4 -->
<g id="Node000004" class="node">
<title>Node4</title>
<g id="a_Node000004"><a xlink:title=" ">
<polygon fill="white" stroke="none" points="200.25,-435 91.75,-435 91.75,-371 200.25,-371 200.25,-435"/>
<text xml:space="preserve" text-anchor="start" x="95.75" y="-421.5" font-family="Helvetica,sans-Serif" font-size="10.00">vector&lt; dpp::command</text>
<text xml:space="preserve" text-anchor="start" x="125.75" y="-409.5" font-family="Helvetica,sans-Serif" font-size="10.00">_option &gt;</text>
<text xml:space="preserve" text-anchor="start" x="144.5" y="-393.5" font-family="Helvetica,sans-Serif" font-size="10.00"> </text>
<text xml:space="preserve" text-anchor="start" x="144.5" y="-377.5" font-family="Helvetica,sans-Serif" font-size="10.00"> </text>
<polygon fill="#666666" stroke="#666666" points="91.75,-405 91.75,-405 200.25,-405 200.25,-405 91.75,-405"/>
<polygon fill="#666666" stroke="#666666" points="91.75,-389 91.75,-389 200.25,-389 200.25,-389 91.75,-389"/>
<polygon fill="none" stroke="#666666" points="91.75,-371 91.75,-435 200.25,-435 200.25,-371 91.75,-371"/>
</a>
</g>
</g>
<!-- Node4&#45;&gt;Node2 -->
<g id="edge3_Node000002_Node000004" class="edge">
<title>Node4&#45;&gt;Node2</title>
<g id="a_edge3_Node000002_Node000004"><a xlink:title=" ">
<path fill="none" stroke="#63b8ff" d="M140.45,-371.18C136.92,-355.16 131.57,-335.54 124,-319 119.7,-309.6 114.03,-300.08 108.21,-291.38"/>
<polygon fill="none" stroke="#63b8ff" points="108.26,-291.45 101.55,-288.82 101.39,-281.61 108.11,-284.24 108.26,-291.45"/>
</a>
</g>
<text xml:space="preserve" text-anchor="start" x="138.75" y="-332.5" font-family="Helvetica,sans-Serif" font-size="10.00" fill="grey">+command_options</text>
</g>
<!-- Node5 -->
<g id="Node000005" class="node">
<title>Node5</title>
<g id="a_Node000005"><a xlink:href="classIMessageCommand.html" target="_top" xlink:title=" ">
<polygon fill="white" stroke="none" points="287.12,-297 152.88,-297 152.88,-213 287.12,-213 287.12,-297"/>
<text xml:space="preserve" text-anchor="start" x="176.12" y="-283.5" font-family="Helvetica,sans-Serif" font-size="10.00">IMessageCommand</text>
<text xml:space="preserve" text-anchor="start" x="218.5" y="-267.5" font-family="Helvetica,sans-Serif" font-size="10.00"> </text>
<text xml:space="preserve" text-anchor="start" x="156.88" y="-251.5" font-family="Helvetica,sans-Serif" font-size="10.00">+</text>
<text xml:space="preserve" text-anchor="start" x="166.88" y="-251.5" font-family="Helvetica,sans-Serif" font-size="10.00">on_message_create()</text>
<text xml:space="preserve" text-anchor="start" x="156.88" y="-235.5" font-family="Helvetica,sans-Serif" font-size="10.00">+</text>
<text xml:space="preserve" text-anchor="start" x="166.88" y="-235.5" font-family="Helvetica,sans-Serif" font-size="10.00">on_message_delete()</text>
<text xml:space="preserve" text-anchor="start" x="156.88" y="-219.5" font-family="Helvetica,sans-Serif" font-size="10.00">+</text>
<text xml:space="preserve" text-anchor="start" x="166.88" y="-219.5" font-family="Helvetica,sans-Serif" font-size="10.00">on_message_delete_bulk()</text>
<polygon fill="#666666" stroke="#666666" points="152.88,-279 152.88,-279 287.12,-279 287.12,-279 152.88,-279"/>
<polygon fill="#666666" stroke="#666666" points="152.88,-263 152.88,-263 287.12,-263 287.12,-263 152.88,-263"/>
<polygon fill="none" stroke="#666666" points="152.88,-213 152.88,-297 287.12,-297 287.12,-213 152.88,-213"/>
</a>
</g>
</g>
<!-- Node5&#45;&gt;Node1 -->
<g id="edge4_Node000001_Node000005" class="edge">
<title>Node5&#45;&gt;Node1</title>
<g id="a_edge4_Node000001_Node000005"><a xlink:title=" ">
<path fill="none" stroke="#63b8ff" d="M220,-201.86C220,-192.32 220,-182.13 220,-171.92"/>
<polygon fill="none" stroke="#63b8ff" points="216.5,-201.63 220,-211.63 223.5,-201.63 216.5,-201.63"/>
</a>
</g>
</g>
<!-- Node6 -->
<g id="Node000006" class="node">
<title>Node6</title>
<g id="a_Node000006"><a xlink:href="classIReactionCommand.html" target="_top" xlink:title=" ">
<polygon fill="white" stroke="none" points="418.62,-301 305.38,-301 305.38,-209 418.62,-209 418.62,-301"/>
<text xml:space="preserve" text-anchor="start" x="318.5" y="-287.5" font-family="Helvetica,sans-Serif" font-size="10.00">IReactionCommand</text>
<text xml:space="preserve" text-anchor="start" x="360.5" y="-271.5" font-family="Helvetica,sans-Serif" font-size="10.00"> </text>
<text xml:space="preserve" text-anchor="start" x="309.38" y="-255.5" font-family="Helvetica,sans-Serif" font-size="10.00">+</text>
<text xml:space="preserve" text-anchor="start" x="319.38" y="-255.5" font-family="Helvetica,sans-Serif" font-size="10.00">on_message_reaction</text>
<text xml:space="preserve" text-anchor="start" x="319.38" y="-243.5" font-family="Helvetica,sans-Serif" font-size="10.00">_add()</text>
<text xml:space="preserve" text-anchor="start" x="309.38" y="-227.5" font-family="Helvetica,sans-Serif" font-size="10.00">+</text>
<text xml:space="preserve" text-anchor="start" x="319.38" y="-227.5" font-family="Helvetica,sans-Serif" font-size="10.00">on_message_reaction</text>
<text xml:space="preserve" text-anchor="start" x="319.38" y="-215.5" font-family="Helvetica,sans-Serif" font-size="10.00">_remove()</text>
<polygon fill="#666666" stroke="#666666" points="305.38,-283 305.38,-283 418.62,-283 418.62,-283 305.38,-283"/>
<polygon fill="#666666" stroke="#666666" points="305.38,-267 305.38,-267 418.62,-267 418.62,-267 305.38,-267"/>
<polygon fill="none" stroke="#666666" points="305.38,-209 305.38,-301 418.62,-301 418.62,-209 305.38,-209"/>
</a>
</g>
</g>
<!-- Node6&#45;&gt;Node1 -->
<g id="edge5_Node000001_Node000006" class="edge">
<title>Node6&#45;&gt;Node1</title>
<g id="a_edge5_Node000001_Node000006"><a xlink:title=" ">
<path fill="none" stroke="#63b8ff" d="M316.54,-200.54C307.1,-189.44 296.97,-177.52 286.94,-165.73"/>
<polygon fill="none" stroke="#63b8ff" points="313.82,-202.74 322.97,-208.09 319.15,-198.21 313.82,-202.74"/>
</a>
</g>
</g>
</g>
</svg>
