<?xml version="1.0" encoding="UTF-8" standalone="no"?>
<!DOCTYPE svg PUBLIC "-//W3C//DTD SVG 1.1//EN"
 "http://www.w3.org/Graphics/SVG/1.1/DTD/svg11.dtd">
<!-- Generated by graphviz version 13.0.1 (0)
 -->
<!-- Title: ChallengeRoleCommand Pages: 1 -->
<svg width="365pt" height="331pt"
 viewBox="0.00 0.00 365.00 331.00" xmlns="http://www.w3.org/2000/svg" xmlns:xlink="http://www.w3.org/1999/xlink">
<g id="graph0" class="graph" transform="scale(1 1) rotate(0) translate(4 327)">
<title>ChallengeRoleCommand</title>
<!-- Node1 -->
<g id="Node000001" class="node">
<title>Node1</title>
<g id="a_Node000001"><a xlink:title=" ">
<polygon fill="#999999" stroke="none" points="265.38,-100 132.62,-100 132.62,0 265.38,0 265.38,-100"/>
<text xml:space="preserve" text-anchor="start" x="144.62" y="-86.5" font-family="Helvetica,sans-Serif" font-size="10.00">ChallengeRoleCommand</text>
<text xml:space="preserve" text-anchor="start" x="197.5" y="-70.5" font-family="Helvetica,sans-Serif" font-size="10.00"> </text>
<text xml:space="preserve" text-anchor="start" x="136.62" y="-54.5" font-family="Helvetica,sans-Serif" font-size="10.00">+</text>
<text xml:space="preserve" text-anchor="start" x="146.62" y="-54.5" font-family="Helvetica,sans-Serif" font-size="10.00">ChallengeRoleCommand()</text>
<text xml:space="preserve" text-anchor="start" x="136.62" y="-38.5" font-family="Helvetica,sans-Serif" font-size="10.00">+</text>
<text xml:space="preserve" text-anchor="start" x="146.62" y="-38.5" font-family="Helvetica,sans-Serif" font-size="10.00">on_slashcommand()</text>
<text xml:space="preserve" text-anchor="start" x="136.62" y="-22.5" font-family="Helvetica,sans-Serif" font-size="10.00">+</text>
<text xml:space="preserve" text-anchor="start" x="146.62" y="-22.5" font-family="Helvetica,sans-Serif" font-size="10.00">on_button_click()</text>
<text xml:space="preserve" text-anchor="start" x="136.62" y="-6.5" font-family="Helvetica,sans-Serif" font-size="10.00">+</text>
<text xml:space="preserve" text-anchor="start" x="146.62" y="-6.5" font-family="Helvetica,sans-Serif" font-size="10.00">on_form_submit()</text>
<polygon fill="#666666" stroke="#666666" points="132.62,-82 132.62,-82 265.38,-82 265.38,-82 132.62,-82"/>
<polygon fill="#666666" stroke="#666666" points="132.62,-66 132.62,-66 265.38,-66 265.38,-66 132.62,-66"/>
<polygon fill="none" stroke="#666666" points="132.62,0 132.62,-100 265.38,-100 265.38,0 132.62,0"/>
</a>
</g>
</g>
<!-- Node2 -->
<g id="Node000002" class="node">
<title>Node2</title>
<g id="a_Node000002"><a xlink:href="classIGlobalSlashCommand.html" target="_top" xlink:title=" ">
<polygon fill="white" stroke="none" points="135.25,-189 26.75,-189 26.75,-137 135.25,-137 135.25,-189"/>
<text xml:space="preserve" text-anchor="start" x="30.75" y="-175.5" font-family="Helvetica,sans-Serif" font-size="10.00">IGlobalSlashCommand</text>
<text xml:space="preserve" text-anchor="start" x="79.5" y="-159.5" font-family="Helvetica,sans-Serif" font-size="10.00"> </text>
<text xml:space="preserve" text-anchor="start" x="31.44" y="-143.5" font-family="Helvetica,sans-Serif" font-size="10.00">+</text>
<text xml:space="preserve" text-anchor="start" x="42.12" y="-143.5" font-family="Helvetica,sans-Serif" font-size="10.00">on_slashcommand()</text>
<polygon fill="#666666" stroke="#666666" points="26.75,-171 26.75,-171 135.25,-171 135.25,-171 26.75,-171"/>
<polygon fill="#666666" stroke="#666666" points="26.75,-155 26.75,-155 135.25,-155 135.25,-155 26.75,-155"/>
<polygon fill="none" stroke="#666666" points="26.75,-137 26.75,-189 135.25,-189 135.25,-137 26.75,-137"/>
</a>
</g>
</g>
<!-- Node2&#45;&gt;Node1 -->
<g id="edge1_Node000001_Node000002" class="edge">
<title>Node2&#45;&gt;Node1</title>
<g id="a_edge1_Node000001_Node000002"><a xlink:title=" ">
<path fill="none" stroke="#63b8ff" d="M115.77,-129.29C125.56,-120.08 136.43,-109.86 146.99,-99.93"/>
<polygon fill="none" stroke="#63b8ff" points="113.47,-126.65 108.58,-136.05 118.27,-131.75 113.47,-126.65"/>
</a>
</g>
</g>
<!-- Node3 -->
<g id="Node000003" class="node">
<title>Node3</title>
<g id="a_Node000003"><a xlink:title=" ">
<polygon fill="white" stroke="none" points="32,-317 0,-317 0,-265 32,-265 32,-317"/>
<text xml:space="preserve" text-anchor="start" x="4" y="-303.5" font-family="Helvetica,sans-Serif" font-size="10.00">string</text>
<text xml:space="preserve" text-anchor="start" x="14.5" y="-287.5" font-family="Helvetica,sans-Serif" font-size="10.00"> </text>
<text xml:space="preserve" text-anchor="start" x="14.5" y="-271.5" font-family="Helvetica,sans-Serif" font-size="10.00"> </text>
<polygon fill="#666666" stroke="#666666" points="0,-299 0,-299 32,-299 32,-299 0,-299"/>
<polygon fill="#666666" stroke="#666666" points="0,-283 0,-283 32,-283 32,-283 0,-283"/>
<polygon fill="none" stroke="#666666" points="0,-265 0,-317 32,-317 32,-265 0,-265"/>
</a>
</g>
</g>
<!-- Node3&#45;&gt;Node2 -->
<g id="edge2_Node000002_Node000003" class="edge">
<title>Node3&#45;&gt;Node2</title>
<g id="a_edge2_Node000002_Node000003"><a xlink:title=" ">
<path fill="none" stroke="#63b8ff" d="M10.42,-265.25C7.84,-247.91 7.17,-224.75 16.75,-207 18.51,-203.73 20.65,-200.67 23.05,-197.81"/>
<polygon fill="none" stroke="#63b8ff" points="22.94,-197.91 24.38,-190.84 31.46,-189.46 30.02,-196.52 22.94,-197.91"/>
</a>
</g>
<text xml:space="preserve" text-anchor="start" x="19.75" y="-228.5" font-family="Helvetica,sans-Serif" font-size="10.00" fill="grey">+command_description</text>
<text xml:space="preserve" text-anchor="start" x="19.75" y="-212.5" font-family="Helvetica,sans-Serif" font-size="10.00" fill="grey">+command_name</text>
</g>
<!-- Node4 -->
<g id="Node000004" class="node">
<title>Node4</title>
<g id="a_Node000004"><a xlink:title=" ">
<polygon fill="white" stroke="none" points="200.25,-323 91.75,-323 91.75,-259 200.25,-259 200.25,-323"/>
<text xml:space="preserve" text-anchor="start" x="95.75" y="-309.5" font-family="Helvetica,sans-Serif" font-size="10.00">vector&lt; dpp::command</text>
<text xml:space="preserve" text-anchor="start" x="125.75" y="-297.5" font-family="Helvetica,sans-Serif" font-size="10.00">_option &gt;</text>
<text xml:space="preserve" text-anchor="start" x="144.5" y="-281.5" font-family="Helvetica,sans-Serif" font-size="10.00"> </text>
<text xml:space="preserve" text-anchor="start" x="144.5" y="-265.5" font-family="Helvetica,sans-Serif" font-size="10.00"> </text>
<polygon fill="#666666" stroke="#666666" points="91.75,-293 91.75,-293 200.25,-293 200.25,-293 91.75,-293"/>
<polygon fill="#666666" stroke="#666666" points="91.75,-277 91.75,-277 200.25,-277 200.25,-277 91.75,-277"/>
<polygon fill="none" stroke="#666666" points="91.75,-259 91.75,-323 200.25,-323 200.25,-259 91.75,-259"/>
</a>
</g>
</g>
<!-- Node4&#45;&gt;Node2 -->
<g id="edge3_Node000002_Node000004" class="edge">
<title>Node4&#45;&gt;Node2</title>
<g id="a_edge3_Node000002_Node000004"><a xlink:title=" ">
<path fill="none" stroke="#63b8ff" d="M141.84,-259.33C138.67,-243 133.22,-223.02 124,-207 122.39,-204.2 120.54,-201.45 118.55,-198.79"/>
<polygon fill="none" stroke="#63b8ff" points="118.59,-198.83 111.67,-196.82 110.86,-189.66 117.78,-191.67 118.59,-198.83"/>
</a>
</g>
<text xml:space="preserve" text-anchor="start" x="140.15" y="-220.5" font-family="Helvetica,sans-Serif" font-size="10.00" fill="grey">+command_options</text>
</g>
<!-- Node5 -->
<g id="Node000005" class="node">
<title>Node5</title>
<g id="a_Node000005"><a xlink:href="classIButtonCommand.html" target="_top" xlink:title=" ">
<polygon fill="white" stroke="none" points="245.12,-189 152.88,-189 152.88,-137 245.12,-137 245.12,-189"/>
<text xml:space="preserve" text-anchor="start" x="160.75" y="-175.5" font-family="Helvetica,sans-Serif" font-size="10.00">IButtonCommand</text>
<text xml:space="preserve" text-anchor="start" x="197.5" y="-159.5" font-family="Helvetica,sans-Serif" font-size="10.00"> </text>
<text xml:space="preserve" text-anchor="start" x="156.88" y="-143.5" font-family="Helvetica,sans-Serif" font-size="10.00">+</text>
<text xml:space="preserve" text-anchor="start" x="166.88" y="-143.5" font-family="Helvetica,sans-Serif" font-size="10.00">on_button_click()</text>
<polygon fill="#666666" stroke="#666666" points="152.88,-171 152.88,-171 245.12,-171 245.12,-171 152.88,-171"/>
<polygon fill="#666666" stroke="#666666" points="152.88,-155 152.88,-155 245.12,-155 245.12,-155 152.88,-155"/>
<polygon fill="none" stroke="#666666" points="152.88,-137 152.88,-189 245.12,-189 245.12,-137 152.88,-137"/>
</a>
</g>
</g>
<!-- Node5&#45;&gt;Node1 -->
<g id="edge4_Node000001_Node000005" class="edge">
<title>Node5&#45;&gt;Node1</title>
<g id="a_edge4_Node000001_Node000005"><a xlink:title=" ">
<path fill="none" stroke="#63b8ff" d="M199,-125.61C199,-117.4 199,-108.56 199,-99.93"/>
<polygon fill="none" stroke="#63b8ff" points="195.5,-125.58 199,-135.58 202.5,-125.58 195.5,-125.58"/>
</a>
</g>
</g>
<!-- Node6 -->
<g id="Node000006" class="node">
<title>Node6</title>
<g id="a_Node000006"><a xlink:href="classIFormCommand.html" target="_top" xlink:title=" ">
<polygon fill="white" stroke="none" points="356.88,-189 263.12,-189 263.12,-137 356.88,-137 356.88,-189"/>
<text xml:space="preserve" text-anchor="start" x="274.75" y="-175.5" font-family="Helvetica,sans-Serif" font-size="10.00">IFormCommand</text>
<text xml:space="preserve" text-anchor="start" x="308.5" y="-159.5" font-family="Helvetica,sans-Serif" font-size="10.00"> </text>
<text xml:space="preserve" text-anchor="start" x="267.12" y="-143.5" font-family="Helvetica,sans-Serif" font-size="10.00">+</text>
<text xml:space="preserve" text-anchor="start" x="277.12" y="-143.5" font-family="Helvetica,sans-Serif" font-size="10.00">on_form_submit()</text>
<polygon fill="#666666" stroke="#666666" points="263.12,-171 263.12,-171 356.88,-171 356.88,-171 263.12,-171"/>
<polygon fill="#666666" stroke="#666666" points="263.12,-155 263.12,-155 356.88,-155 356.88,-155 263.12,-155"/>
<polygon fill="none" stroke="#666666" points="263.12,-137 263.12,-189 356.88,-189 356.88,-137 263.12,-137"/>
</a>
</g>
</g>
<!-- Node6&#45;&gt;Node1 -->
<g id="edge5_Node000001_Node000006" class="edge">
<title>Node6&#45;&gt;Node1</title>
<g id="a_edge5_Node000001_Node000006"><a xlink:title=" ">
<path fill="none" stroke="#63b8ff" d="M277.01,-129.01C267.88,-119.88 257.76,-109.76 247.93,-99.93"/>
<polygon fill="none" stroke="#63b8ff" points="274.47,-131.42 284.02,-136.02 279.42,-126.47 274.47,-131.42"/>
</a>
</g>
</g>
</g>
</svg>
