<?xml version="1.0" encoding="UTF-8" standalone="no"?>
<!DOCTYPE svg PUBLIC "-//W3C//DTD SVG 1.1//EN"
 "http://www.w3.org/Graphics/SVG/1.1/DTD/svg11.dtd">
<!-- Generated by graphviz version 12.2.1 (0)
 -->
<!-- Title: IReady Pages: 1 -->
<svg width="306pt" height="180pt"
 viewBox="0.00 0.00 305.75 180.00" xmlns="http://www.w3.org/2000/svg" xmlns:xlink="http://www.w3.org/1999/xlink">
<g id="graph0" class="graph" transform="scale(1 1) rotate(0) translate(4 176)">
<title>IReady</title>
<!-- Node1 -->
<g id="Node000001" class="node">
<title>Node1</title>
<g id="a_Node000001"><a xlink:title=" ">
<polygon fill="#999999" stroke="none" points="180.75,-172 117,-172 117,-120 180.75,-120 180.75,-172"/>
<text text-anchor="start" x="133.12" y="-158.5" font-family="Helvetica,sans-Serif" font-size="10.00">IReady</text>
<text text-anchor="start" x="147.38" y="-142.5" font-family="Helvetica,sans-Serif" font-size="10.00"> </text>
<text text-anchor="start" x="121" y="-126.5" font-family="Helvetica,sans-Serif" font-size="10.00">+</text>
<text text-anchor="start" x="131" y="-126.5" font-family="Helvetica,sans-Serif" font-size="10.00">on_ready()</text>
<polygon fill="#666666" stroke="#666666" points="117,-154 117,-154 180.75,-154 180.75,-154 117,-154"/>
<polygon fill="#666666" stroke="#666666" points="117,-138 117,-138 180.75,-138 180.75,-138 117,-138"/>
<polygon fill="none" stroke="#666666" points="117,-120 117,-172 180.75,-172 180.75,-120 117,-120"/>
</a>
</g>
</g>
<!-- Node2 -->
<g id="Node000002" class="node">
<title>Node2</title>
<g id="a_Node000002"><a xlink:href="classInitDatabase.html" target="_top" xlink:title=" ">
<polygon fill="white" stroke="none" points="63.75,-68 0,-68 0,-16 63.75,-16 63.75,-68"/>
<text text-anchor="start" x="4.12" y="-54.5" font-family="Helvetica,sans-Serif" font-size="10.00">InitDatabase</text>
<text text-anchor="start" x="30.38" y="-38.5" font-family="Helvetica,sans-Serif" font-size="10.00"> </text>
<text text-anchor="start" x="4" y="-22.5" font-family="Helvetica,sans-Serif" font-size="10.00">+</text>
<text text-anchor="start" x="14" y="-22.5" font-family="Helvetica,sans-Serif" font-size="10.00">on_ready()</text>
<polygon fill="#666666" stroke="#666666" points="0,-50 0,-50 63.75,-50 63.75,-50 0,-50"/>
<polygon fill="#666666" stroke="#666666" points="0,-34 0,-34 63.75,-34 63.75,-34 0,-34"/>
<polygon fill="none" stroke="#666666" points="0,-16 0,-68 63.75,-68 63.75,-16 0,-16"/>
</a>
</g>
</g>
<!-- Node1&#45;&gt;Node2 -->
<g id="edge1_Node000001_Node000002" class="edge">
<title>Node1&#45;&gt;Node2</title>
<g id="a_edge1_Node000001_Node000002"><a xlink:title=" ">
<path fill="none" stroke="#63b8ff" d="M108.46,-113.9C96.76,-104.55 84.12,-94.08 72.88,-84 67.18,-78.89 61.25,-73.2 55.73,-67.73"/>
<polygon fill="none" stroke="#63b8ff" points="105.98,-116.41 115.99,-119.88 110.33,-110.92 105.98,-116.41"/>
</a>
</g>
</g>
<!-- Node3 -->
<g id="Node000003" class="node">
<title>Node3</title>
<g id="a_Node000003"><a xlink:href="classSetNotificationCommand.html" target="_top" xlink:title=" ">
<polygon fill="white" stroke="none" points="215.62,-84 82.12,-84 82.12,0 215.62,0 215.62,-84"/>
<text text-anchor="start" x="94.12" y="-70.5" font-family="Helvetica,sans-Serif" font-size="10.00">SetNotificationCommand</text>
<text text-anchor="start" x="147.38" y="-54.5" font-family="Helvetica,sans-Serif" font-size="10.00"> </text>
<text text-anchor="start" x="86.12" y="-38.5" font-family="Helvetica,sans-Serif" font-size="10.00">+</text>
<text text-anchor="start" x="96.12" y="-38.5" font-family="Helvetica,sans-Serif" font-size="10.00">SetNotificationCommand()</text>
<text text-anchor="start" x="86.12" y="-22.5" font-family="Helvetica,sans-Serif" font-size="10.00">+</text>
<text text-anchor="start" x="96.12" y="-22.5" font-family="Helvetica,sans-Serif" font-size="10.00">on_slashcommand()</text>
<text text-anchor="start" x="86.12" y="-6.5" font-family="Helvetica,sans-Serif" font-size="10.00">+</text>
<text text-anchor="start" x="96.12" y="-6.5" font-family="Helvetica,sans-Serif" font-size="10.00">on_ready()</text>
<polygon fill="#666666" stroke="#666666" points="82.12,-66 82.12,-66 215.62,-66 215.62,-66 82.12,-66"/>
<polygon fill="#666666" stroke="#666666" points="82.12,-50 82.12,-50 215.62,-50 215.62,-50 82.12,-50"/>
<polygon fill="none" stroke="#666666" points="82.12,0 82.12,-84 215.62,-84 215.62,0 82.12,0"/>
</a>
</g>
</g>
<!-- Node1&#45;&gt;Node3 -->
<g id="edge2_Node000001_Node000003" class="edge">
<title>Node1&#45;&gt;Node3</title>
<g id="a_edge2_Node000001_Node000003"><a xlink:title=" ">
<path fill="none" stroke="#63b8ff" d="M148.88,-108.77C148.88,-100.75 148.88,-92.19 148.88,-83.99"/>
<polygon fill="none" stroke="#63b8ff" points="145.38,-108.53 148.88,-118.53 152.38,-108.53 145.38,-108.53"/>
</a>
</g>
</g>
<!-- Node4 -->
<g id="Node000004" class="node">
<title>Node4</title>
<g id="a_Node000004"><a xlink:href="classSetStatus.html" target="_top" xlink:title=" ">
<polygon fill="white" stroke="none" points="297.75,-68 234,-68 234,-16 297.75,-16 297.75,-68"/>
<text text-anchor="start" x="244.12" y="-54.5" font-family="Helvetica,sans-Serif" font-size="10.00">SetStatus</text>
<text text-anchor="start" x="264.38" y="-38.5" font-family="Helvetica,sans-Serif" font-size="10.00"> </text>
<text text-anchor="start" x="238" y="-22.5" font-family="Helvetica,sans-Serif" font-size="10.00">+</text>
<text text-anchor="start" x="248" y="-22.5" font-family="Helvetica,sans-Serif" font-size="10.00">on_ready()</text>
<polygon fill="#666666" stroke="#666666" points="234,-50 234,-50 297.75,-50 297.75,-50 234,-50"/>
<polygon fill="#666666" stroke="#666666" points="234,-34 234,-34 297.75,-34 297.75,-34 234,-34"/>
<polygon fill="none" stroke="#666666" points="234,-16 234,-68 297.75,-68 297.75,-16 234,-16"/>
</a>
</g>
</g>
<!-- Node1&#45;&gt;Node4 -->
<g id="edge3_Node000001_Node000004" class="edge">
<title>Node1&#45;&gt;Node4</title>
<g id="a_edge3_Node000001_Node000004"><a xlink:title=" ">
<path fill="none" stroke="#63b8ff" d="M189.29,-113.9C200.99,-104.55 213.63,-94.08 224.88,-84 230.57,-78.89 236.5,-73.2 242.02,-67.73"/>
<polygon fill="none" stroke="#63b8ff" points="187.42,-110.92 181.76,-119.88 191.77,-116.41 187.42,-110.92"/>
</a>
</g>
</g>
</g>
</svg>
