<?xml version="1.0" encoding="UTF-8" standalone="no"?>
<!DOCTYPE svg PUBLIC "-//W3C//DTD SVG 1.1//EN"
 "http://www.w3.org/Graphics/SVG/1.1/DTD/svg11.dtd">
<!-- Generated by graphviz version 9.0.0 (0)
 -->
<!-- Title: IReactionCommand Pages: 1 -->
<svg width="121pt" height="100pt"
 viewBox="0.00 0.00 121.00 100.00" xmlns="http://www.w3.org/2000/svg" xmlns:xlink="http://www.w3.org/1999/xlink">
<g id="graph0" class="graph" transform="scale(1 1) rotate(0) translate(4 96)">
<title>IReactionCommand</title>
<!-- Node1 -->
<g id="Node000001" class="node">
<title>Node1</title>
<g id="a_Node000001"><a xlink:title=" ">
<polygon fill="#999999" stroke="none" points="113,-92 0,-92 0,0 113,0 113,-92"/>
<text text-anchor="start" x="13" y="-78.5" font-family="Helvetica,sans-Serif" font-size="10.00">IReactionCommand</text>
<text text-anchor="start" x="55" y="-62.5" font-family="Helvetica,sans-Serif" font-size="10.00"> </text>
<text text-anchor="start" x="4" y="-46.5" font-family="Helvetica,sans-Serif" font-size="10.00">+</text>
<text text-anchor="start" x="14" y="-46.5" font-family="Helvetica,sans-Serif" font-size="10.00">on_message_reaction</text>
<text text-anchor="start" x="14" y="-34.5" font-family="Helvetica,sans-Serif" font-size="10.00">_add()</text>
<text text-anchor="start" x="4" y="-18.5" font-family="Helvetica,sans-Serif" font-size="10.00">+</text>
<text text-anchor="start" x="14" y="-18.5" font-family="Helvetica,sans-Serif" font-size="10.00">on_message_reaction</text>
<text text-anchor="start" x="14" y="-6.5" font-family="Helvetica,sans-Serif" font-size="10.00">_remove()</text>
<polygon fill="#666666" stroke="#666666" points="0,-74 0,-74 113,-74 113,-74 0,-74"/>
<polygon fill="#666666" stroke="#666666" points="0,-58 0,-58 113,-58 113,-58 0,-58"/>
<polygon fill="none" stroke="#666666" points="0,0 0,-92 113,-92 113,0 0,0"/>
</a>
</g>
</g>
</g>
</svg>
