<?xml version="1.0" encoding="UTF-8" standalone="no"?>
<!DOCTYPE svg PUBLIC "-//W3C//DTD SVG 1.1//EN"
 "http://www.w3.org/Graphics/SVG/1.1/DTD/svg11.dtd">
<!-- Generated by graphviz version 12.2.1 (0)
 -->
<!-- Title: NotificationDTO Pages: 1 -->
<svg width="138pt" height="216pt"
 viewBox="0.00 0.00 137.72 216.00" xmlns="http://www.w3.org/2000/svg" xmlns:xlink="http://www.w3.org/1999/xlink">
<g id="graph0" class="graph" transform="scale(1 1) rotate(0) translate(4 212)">
<title>NotificationDTO</title>
<!-- Node1 -->
<g id="Node000001" class="node">
<title>Node1</title>
<g id="a_Node000001"><a xlink:title=" ">
<polygon fill="#999999" stroke="none" points="103.38,-84 8.88,-84 8.88,0 103.38,0 103.38,-84"/>
<text text-anchor="start" x="20.88" y="-70.5" font-family="Helvetica,sans-Serif" font-size="10.00">NotificationDTO</text>
<text text-anchor="start" x="54.62" y="-54.5" font-family="Helvetica,sans-Serif" font-size="10.00"> </text>
<text text-anchor="start" x="12.88" y="-38.5" font-family="Helvetica,sans-Serif" font-size="10.00">+</text>
<text text-anchor="start" x="22.88" y="-38.5" font-family="Helvetica,sans-Serif" font-size="10.00">NotificationDTO()</text>
<text text-anchor="start" x="12.88" y="-22.5" font-family="Helvetica,sans-Serif" font-size="10.00">+</text>
<text text-anchor="start" x="22.88" y="-22.5" font-family="Helvetica,sans-Serif" font-size="10.00">NotificationDTO()</text>
<text text-anchor="start" x="12.88" y="-6.5" font-family="Helvetica,sans-Serif" font-size="10.00">+</text>
<text text-anchor="start" x="22.88" y="-6.5" font-family="Helvetica,sans-Serif" font-size="10.00">NotificationDTO()</text>
<polygon fill="#666666" stroke="#666666" points="8.88,-66 8.88,-66 103.38,-66 103.38,-66 8.88,-66"/>
<polygon fill="#666666" stroke="#666666" points="8.88,-50 8.88,-50 103.38,-50 103.38,-50 8.88,-50"/>
<polygon fill="none" stroke="#666666" points="8.88,0 8.88,-84 103.38,-84 103.38,0 8.88,0"/>
</a>
</g>
</g>
<!-- Node2 -->
<g id="Node000002" class="node">
<title>Node2</title>
<g id="a_Node000002"><a xlink:title=" ">
<polygon fill="white" stroke="none" points="34.25,-208 0,-208 0,-156 34.25,-156 34.25,-208"/>
<text text-anchor="start" x="4" y="-194.5" font-family="Helvetica,sans-Serif" font-size="10.00">size_t</text>
<text text-anchor="start" x="15.62" y="-178.5" font-family="Helvetica,sans-Serif" font-size="10.00"> </text>
<text text-anchor="start" x="15.62" y="-162.5" font-family="Helvetica,sans-Serif" font-size="10.00"> </text>
<polygon fill="#666666" stroke="#666666" points="0,-190 0,-190 34.25,-190 34.25,-190 0,-190"/>
<polygon fill="#666666" stroke="#666666" points="0,-174 0,-174 34.25,-174 34.25,-174 0,-174"/>
<polygon fill="none" stroke="#666666" points="0,-156 0,-208 34.25,-208 34.25,-156 0,-156"/>
</a>
</g>
</g>
<!-- Node2&#45;&gt;Node1 -->
<g id="edge1_Node000001_Node000002" class="edge">
<title>Node2&#45;&gt;Node1</title>
<g id="a_edge1_Node000001_Node000002"><a xlink:title=" ">
<path fill="none" stroke="#63b8ff" d="M14.21,-156.27C13.16,-140.42 13.32,-119.6 18.62,-102 19.26,-99.88 20,-97.77 20.82,-95.67"/>
<polygon fill="none" stroke="#63b8ff" points="20.87,-95.55 19.76,-88.43 25.9,-84.66 27.02,-91.78 20.87,-95.55"/>
</a>
</g>
<text text-anchor="middle" x="46.38" y="-128.5" font-family="Helvetica,sans-Serif" font-size="10.00" fill="grey"> +channel_id</text>
<text text-anchor="middle" x="46.38" y="-116.5" font-family="Helvetica,sans-Serif" font-size="10.00" fill="grey">+guild_id</text>
<text text-anchor="middle" x="46.38" y="-104.5" font-family="Helvetica,sans-Serif" font-size="10.00" fill="grey">+timestep</text>
</g>
<!-- Node3 -->
<g id="Node000003" class="node">
<title>Node3</title>
<g id="a_Node000003"><a xlink:title=" ">
<polygon fill="white" stroke="none" points="112.12,-208 80.12,-208 80.12,-156 112.12,-156 112.12,-208"/>
<text text-anchor="start" x="84.12" y="-194.5" font-family="Helvetica,sans-Serif" font-size="10.00">string</text>
<text text-anchor="start" x="94.62" y="-178.5" font-family="Helvetica,sans-Serif" font-size="10.00"> </text>
<text text-anchor="start" x="94.62" y="-162.5" font-family="Helvetica,sans-Serif" font-size="10.00"> </text>
<polygon fill="#666666" stroke="#666666" points="80.12,-190 80.12,-190 112.12,-190 112.12,-190 80.12,-190"/>
<polygon fill="#666666" stroke="#666666" points="80.12,-174 80.12,-174 112.12,-174 112.12,-174 80.12,-174"/>
<polygon fill="none" stroke="#666666" points="80.12,-156 80.12,-208 112.12,-208 112.12,-156 80.12,-156"/>
</a>
</g>
</g>
<!-- Node3&#45;&gt;Node1 -->
<g id="edge2_Node000001_Node000003" class="edge">
<title>Node3&#45;&gt;Node1</title>
<g id="a_edge2_Node000001_Node000003"><a xlink:title=" ">
<path fill="none" stroke="#63b8ff" d="M89.34,-156.05C85.07,-140.48 79.39,-120.04 74.12,-102 73.56,-100.08 72.99,-98.12 72.4,-96.14"/>
<polygon fill="none" stroke="#63b8ff" points="72.44,-96.27 66.89,-91.66 69,-84.77 74.56,-89.37 72.44,-96.27"/>
</a>
</g>
<text text-anchor="middle" x="106.85" y="-128.5" font-family="Helvetica,sans-Serif" font-size="10.00" fill="grey"> +data</text>
<text text-anchor="middle" x="106.85" y="-116.5" font-family="Helvetica,sans-Serif" font-size="10.00" fill="grey">+message</text>
<text text-anchor="middle" x="106.85" y="-104.5" font-family="Helvetica,sans-Serif" font-size="10.00" fill="grey">+type</text>
</g>
</g>
</svg>
