<?xml version="1.0" encoding="UTF-8" standalone="no"?>
<!DOCTYPE svg PUBLIC "-//W3C//DTD SVG 1.1//EN"
 "http://www.w3.org/Graphics/SVG/1.1/DTD/svg11.dtd">
<!-- Generated by graphviz version 12.2.1 (0)
 -->
<!-- Title: BugReportCommand Pages: 1 -->
<svg width="253pt" height="305pt"
 viewBox="0.00 0.00 252.88 305.00" xmlns="http://www.w3.org/2000/svg" xmlns:xlink="http://www.w3.org/1999/xlink">
<g id="graph0" class="graph" transform="scale(1 1) rotate(0) translate(4 301)">
<title>BugReportCommand</title>
<!-- Node1 -->
<g id="Node000001" class="node">
<title>Node1</title>
<g id="a_Node000001"><a xlink:title=" ">
<polygon fill="#999999" stroke="none" points="225.75,-84 110.25,-84 110.25,0 225.75,0 225.75,-84"/>
<text text-anchor="start" x="122.25" y="-70.5" font-family="Helvetica,sans-Serif" font-size="10.00">BugReportCommand</text>
<text text-anchor="start" x="166.5" y="-54.5" font-family="Helvetica,sans-Serif" font-size="10.00"> </text>
<text text-anchor="start" x="114.25" y="-38.5" font-family="Helvetica,sans-Serif" font-size="10.00">+</text>
<text text-anchor="start" x="124.25" y="-38.5" font-family="Helvetica,sans-Serif" font-size="10.00">BugReportCommand()</text>
<text text-anchor="start" x="114.25" y="-22.5" font-family="Helvetica,sans-Serif" font-size="10.00">+</text>
<text text-anchor="start" x="124.25" y="-22.5" font-family="Helvetica,sans-Serif" font-size="10.00">on_slashcommand()</text>
<text text-anchor="start" x="114.25" y="-6.5" font-family="Helvetica,sans-Serif" font-size="10.00">+</text>
<text text-anchor="start" x="124.25" y="-6.5" font-family="Helvetica,sans-Serif" font-size="10.00">on_form_submit()</text>
<polygon fill="#666666" stroke="#666666" points="110.25,-66 110.25,-66 225.75,-66 225.75,-66 110.25,-66"/>
<polygon fill="#666666" stroke="#666666" points="110.25,-50 110.25,-50 225.75,-50 225.75,-50 110.25,-50"/>
<polygon fill="none" stroke="#666666" points="110.25,0 110.25,-84 225.75,-84 225.75,0 110.25,0"/>
</a>
</g>
</g>
<!-- Node2 -->
<g id="Node000002" class="node">
<title>Node2</title>
<g id="a_Node000002"><a xlink:href="classIGlobalSlashCommand.html" target="_top" xlink:title=" ">
<polygon fill="white" stroke="none" points="133.25,-173 24.75,-173 24.75,-121 133.25,-121 133.25,-173"/>
<text text-anchor="start" x="28.75" y="-159.5" font-family="Helvetica,sans-Serif" font-size="10.00">IGlobalSlashCommand</text>
<text text-anchor="start" x="77.5" y="-143.5" font-family="Helvetica,sans-Serif" font-size="10.00"> </text>
<text text-anchor="start" x="29.44" y="-127.5" font-family="Helvetica,sans-Serif" font-size="10.00">+</text>
<text text-anchor="start" x="40.12" y="-127.5" font-family="Helvetica,sans-Serif" font-size="10.00">on_slashcommand()</text>
<polygon fill="#666666" stroke="#666666" points="24.75,-155 24.75,-155 133.25,-155 133.25,-155 24.75,-155"/>
<polygon fill="#666666" stroke="#666666" points="24.75,-139 24.75,-139 133.25,-139 133.25,-139 24.75,-139"/>
<polygon fill="none" stroke="#666666" points="24.75,-121 24.75,-173 133.25,-173 133.25,-121 24.75,-121"/>
</a>
</g>
</g>
<!-- Node2&#45;&gt;Node1 -->
<g id="edge1_Node000001_Node000002" class="edge">
<title>Node2&#45;&gt;Node1</title>
<g id="a_edge1_Node000001_Node000002"><a xlink:title=" ">
<path fill="none" stroke="#63b8ff" d="M107.88,-112.57C115.82,-103.39 124.52,-93.32 132.77,-83.77"/>
<polygon fill="none" stroke="#63b8ff" points="105.42,-110.07 101.53,-119.92 110.72,-114.64 105.42,-110.07"/>
</a>
</g>
</g>
<!-- Node3 -->
<g id="Node000003" class="node">
<title>Node3</title>
<g id="a_Node000003"><a xlink:title=" ">
<polygon fill="white" stroke="none" points="32,-291 0,-291 0,-239 32,-239 32,-291"/>
<text text-anchor="start" x="4" y="-277.5" font-family="Helvetica,sans-Serif" font-size="10.00">string</text>
<text text-anchor="start" x="14.5" y="-261.5" font-family="Helvetica,sans-Serif" font-size="10.00"> </text>
<text text-anchor="start" x="14.5" y="-245.5" font-family="Helvetica,sans-Serif" font-size="10.00"> </text>
<polygon fill="#666666" stroke="#666666" points="0,-273 0,-273 32,-273 32,-273 0,-273"/>
<polygon fill="#666666" stroke="#666666" points="0,-257 0,-257 32,-257 32,-257 0,-257"/>
<polygon fill="none" stroke="#666666" points="0,-239 0,-291 32,-291 32,-239 0,-239"/>
</a>
</g>
</g>
<!-- Node3&#45;&gt;Node2 -->
<g id="edge2_Node000002_Node000003" class="edge">
<title>Node3&#45;&gt;Node2</title>
<g id="a_edge2_Node000002_Node000003"><a xlink:title=" ">
<path fill="none" stroke="#63b8ff" d="M10.79,-239.27C8.95,-224.43 8.96,-205.66 16.75,-191 18.48,-187.74 20.59,-184.67 22.96,-181.8"/>
<polygon fill="none" stroke="#63b8ff" points="22.82,-181.94 24.21,-174.86 31.27,-173.42 29.89,-180.5 22.82,-181.94"/>
</a>
</g>
<text text-anchor="middle" x="68.88" y="-205.5" font-family="Helvetica,sans-Serif" font-size="10.00" fill="grey"> +command_description</text>
<text text-anchor="middle" x="68.88" y="-193.5" font-family="Helvetica,sans-Serif" font-size="10.00" fill="grey">+command_name</text>
</g>
<!-- Node4 -->
<g id="Node000004" class="node">
<title>Node4</title>
<g id="a_Node000004"><a xlink:title=" ">
<polygon fill="white" stroke="none" points="197.25,-297 88.75,-297 88.75,-233 197.25,-233 197.25,-297"/>
<text text-anchor="start" x="92.75" y="-283.5" font-family="Helvetica,sans-Serif" font-size="10.00">vector&lt; dpp::command</text>
<text text-anchor="start" x="122.75" y="-271.5" font-family="Helvetica,sans-Serif" font-size="10.00">_option &gt;</text>
<text text-anchor="start" x="141.5" y="-255.5" font-family="Helvetica,sans-Serif" font-size="10.00"> </text>
<text text-anchor="start" x="141.5" y="-239.5" font-family="Helvetica,sans-Serif" font-size="10.00"> </text>
<polygon fill="#666666" stroke="#666666" points="88.75,-267 88.75,-267 197.25,-267 197.25,-267 88.75,-267"/>
<polygon fill="#666666" stroke="#666666" points="88.75,-251 88.75,-251 197.25,-251 197.25,-251 88.75,-251"/>
<polygon fill="none" stroke="#666666" points="88.75,-233 88.75,-297 197.25,-297 197.25,-233 88.75,-233"/>
</a>
</g>
</g>
<!-- Node4&#45;&gt;Node2 -->
<g id="edge3_Node000002_Node000004" class="edge">
<title>Node4&#45;&gt;Node2</title>
<g id="a_edge3_Node000002_Node000004"><a xlink:title=" ">
<path fill="none" stroke="#63b8ff" d="M137.19,-233.17C133.78,-219.61 128.6,-203.88 121,-191 119.27,-188.07 117.3,-185.18 115.18,-182.39"/>
<polygon fill="none" stroke="#63b8ff" points="115.3,-182.54 108.38,-180.53 107.56,-173.37 114.49,-175.37 115.3,-182.54"/>
</a>
</g>
<text text-anchor="middle" x="175.61" y="-199.5" font-family="Helvetica,sans-Serif" font-size="10.00" fill="grey"> +command_options</text>
</g>
<!-- Node5 -->
<g id="Node000005" class="node">
<title>Node5</title>
<g id="a_Node000005"><a xlink:href="classIFormCommand.html" target="_top" xlink:title=" ">
<polygon fill="white" stroke="none" points="244.88,-173 151.12,-173 151.12,-121 244.88,-121 244.88,-173"/>
<text text-anchor="start" x="162.75" y="-159.5" font-family="Helvetica,sans-Serif" font-size="10.00">IFormCommand</text>
<text text-anchor="start" x="196.5" y="-143.5" font-family="Helvetica,sans-Serif" font-size="10.00"> </text>
<text text-anchor="start" x="155.12" y="-127.5" font-family="Helvetica,sans-Serif" font-size="10.00">+</text>
<text text-anchor="start" x="165.12" y="-127.5" font-family="Helvetica,sans-Serif" font-size="10.00">on_form_submit()</text>
<polygon fill="#666666" stroke="#666666" points="151.12,-155 151.12,-155 244.88,-155 244.88,-155 151.12,-155"/>
<polygon fill="#666666" stroke="#666666" points="151.12,-139 151.12,-139 244.88,-139 244.88,-139 151.12,-139"/>
<polygon fill="none" stroke="#666666" points="151.12,-121 151.12,-173 244.88,-173 244.88,-121 151.12,-121"/>
</a>
</g>
</g>
<!-- Node5&#45;&gt;Node1 -->
<g id="edge4_Node000001_Node000005" class="edge">
<title>Node5&#45;&gt;Node1</title>
<g id="a_edge4_Node000001_Node000005"><a xlink:title=" ">
<path fill="none" stroke="#63b8ff" d="M187.6,-110.28C185.11,-101.73 182.43,-92.54 179.88,-83.77"/>
<polygon fill="none" stroke="#63b8ff" points="184.16,-110.99 190.31,-119.61 190.88,-109.03 184.16,-110.99"/>
</a>
</g>
</g>
</g>
</svg>
