<?xml version="1.0" encoding="UTF-8" standalone="no"?>
<!DOCTYPE svg PUBLIC "-//W3C//DTD SVG 1.1//EN"
 "http://www.w3.org/Graphics/SVG/1.1/DTD/svg11.dtd">
<!-- Generated by graphviz version 13.0.1 (0)
 -->
<!-- Title: NotificationDTO Pages: 1 -->
<svg width="149pt" height="230pt"
 viewBox="0.00 0.00 149.00 230.00" xmlns="http://www.w3.org/2000/svg" xmlns:xlink="http://www.w3.org/1999/xlink">
<g id="graph0" class="graph" transform="scale(1 1) rotate(0) translate(4 226)">
<title>NotificationDTO</title>
<!-- Node1 -->
<g id="Node000001" class="node">
<title>Node1</title>
<g id="a_Node000001"><a xlink:title=" ">
<polygon fill="#999999" stroke="none" points="105.38,-84 10.88,-84 10.88,0 105.38,0 105.38,-84"/>
<text xml:space="preserve" text-anchor="start" x="22.88" y="-70.5" font-family="Helvetica,sans-Serif" font-size="10.00">NotificationDTO</text>
<text xml:space="preserve" text-anchor="start" x="56.62" y="-54.5" font-family="Helvetica,sans-Serif" font-size="10.00"> </text>
<text xml:space="preserve" text-anchor="start" x="14.88" y="-38.5" font-family="Helvetica,sans-Serif" font-size="10.00">+</text>
<text xml:space="preserve" text-anchor="start" x="24.88" y="-38.5" font-family="Helvetica,sans-Serif" font-size="10.00">NotificationDTO()</text>
<text xml:space="preserve" text-anchor="start" x="14.88" y="-22.5" font-family="Helvetica,sans-Serif" font-size="10.00">+</text>
<text xml:space="preserve" text-anchor="start" x="24.88" y="-22.5" font-family="Helvetica,sans-Serif" font-size="10.00">NotificationDTO()</text>
<text xml:space="preserve" text-anchor="start" x="14.88" y="-6.5" font-family="Helvetica,sans-Serif" font-size="10.00">+</text>
<text xml:space="preserve" text-anchor="start" x="24.88" y="-6.5" font-family="Helvetica,sans-Serif" font-size="10.00">NotificationDTO()</text>
<polygon fill="#666666" stroke="#666666" points="10.88,-66 10.88,-66 105.38,-66 105.38,-66 10.88,-66"/>
<polygon fill="#666666" stroke="#666666" points="10.88,-50 10.88,-50 105.38,-50 105.38,-50 10.88,-50"/>
<polygon fill="none" stroke="#666666" points="10.88,0 10.88,-84 105.38,-84 105.38,0 10.88,0"/>
</a>
</g>
</g>
<!-- Node2 -->
<g id="Node000002" class="node">
<title>Node2</title>
<g id="a_Node000002"><a xlink:title=" ">
<polygon fill="white" stroke="none" points="34.25,-222 0,-222 0,-170 34.25,-170 34.25,-222"/>
<text xml:space="preserve" text-anchor="start" x="4" y="-208.5" font-family="Helvetica,sans-Serif" font-size="10.00">size_t</text>
<text xml:space="preserve" text-anchor="start" x="15.62" y="-192.5" font-family="Helvetica,sans-Serif" font-size="10.00"> </text>
<text xml:space="preserve" text-anchor="start" x="15.62" y="-176.5" font-family="Helvetica,sans-Serif" font-size="10.00"> </text>
<polygon fill="#666666" stroke="#666666" points="0,-204 0,-204 34.25,-204 34.25,-204 0,-204"/>
<polygon fill="#666666" stroke="#666666" points="0,-188 0,-188 34.25,-188 34.25,-188 0,-188"/>
<polygon fill="none" stroke="#666666" points="0,-170 0,-222 34.25,-222 34.25,-170 0,-170"/>
</a>
</g>
</g>
<!-- Node2&#45;&gt;Node1 -->
<g id="edge1_Node000001_Node000002" class="edge">
<title>Node2&#45;&gt;Node1</title>
<g id="a_edge1_Node000001_Node000002"><a xlink:title=" ">
<path fill="none" stroke="#63b8ff" d="M13.79,-170.31C12.08,-151.22 11.64,-124.35 18.62,-102 19.33,-99.76 20.14,-97.53 21.05,-95.31"/>
<polygon fill="none" stroke="#63b8ff" points="21.05,-95.31 20.07,-88.16 26.29,-84.51 27.27,-91.65 21.05,-95.31"/>
</a>
</g>
<text xml:space="preserve" text-anchor="start" x="21.62" y="-139.5" font-family="Helvetica,sans-Serif" font-size="10.00" fill="grey">+channel_id</text>
<text xml:space="preserve" text-anchor="start" x="21.62" y="-123.5" font-family="Helvetica,sans-Serif" font-size="10.00" fill="grey">+guild_id</text>
<text xml:space="preserve" text-anchor="start" x="21.62" y="-107.5" font-family="Helvetica,sans-Serif" font-size="10.00" fill="grey">+timestep</text>
</g>
<!-- Node3 -->
<g id="Node000003" class="node">
<title>Node3</title>
<g id="a_Node000003"><a xlink:title=" ">
<polygon fill="white" stroke="none" points="115.12,-222 83.12,-222 83.12,-170 115.12,-170 115.12,-222"/>
<text xml:space="preserve" text-anchor="start" x="87.12" y="-208.5" font-family="Helvetica,sans-Serif" font-size="10.00">string</text>
<text xml:space="preserve" text-anchor="start" x="97.62" y="-192.5" font-family="Helvetica,sans-Serif" font-size="10.00"> </text>
<text xml:space="preserve" text-anchor="start" x="97.62" y="-176.5" font-family="Helvetica,sans-Serif" font-size="10.00"> </text>
<polygon fill="#666666" stroke="#666666" points="83.12,-204 83.12,-204 115.12,-204 115.12,-204 83.12,-204"/>
<polygon fill="#666666" stroke="#666666" points="83.12,-188 83.12,-188 115.12,-188 115.12,-188 83.12,-188"/>
<polygon fill="none" stroke="#666666" points="83.12,-170 83.12,-222 115.12,-222 115.12,-170 83.12,-170"/>
</a>
</g>
</g>
<!-- Node3&#45;&gt;Node1 -->
<g id="edge2_Node000001_Node000003" class="edge">
<title>Node3&#45;&gt;Node1</title>
<g id="a_edge2_Node000001_Node000003"><a xlink:title=" ">
<path fill="none" stroke="#63b8ff" d="M93.86,-170.39C89.7,-151.56 83.54,-125.01 77.12,-102 76.58,-100.06 76.02,-98.09 75.44,-96.1"/>
<polygon fill="none" stroke="#63b8ff" points="75.46,-96.17 69.9,-91.58 71.99,-84.68 77.56,-89.27 75.46,-96.17"/>
</a>
</g>
<text xml:space="preserve" text-anchor="start" x="92.24" y="-139.5" font-family="Helvetica,sans-Serif" font-size="10.00" fill="grey">+data</text>
<text xml:space="preserve" text-anchor="start" x="92.24" y="-123.5" font-family="Helvetica,sans-Serif" font-size="10.00" fill="grey">+message</text>
<text xml:space="preserve" text-anchor="start" x="92.24" y="-107.5" font-family="Helvetica,sans-Serif" font-size="10.00" fill="grey">+type</text>
</g>
</g>
</svg>
