<?xml version="1.0" encoding="UTF-8" standalone="no"?>
<!DOCTYPE svg PUBLIC "-//W3C//DTD SVG 1.1//EN"
 "http://www.w3.org/Graphics/SVG/1.1/DTD/svg11.dtd">
<!-- Generated by graphviz version 14.1.5 (0)
 -->
<!-- Title: IDatabaseConnectionProvider Pages: 1 -->
<svg width="169pt" height="108pt"
 viewBox="0.00 0.00 169.00 108.00" xmlns="http://www.w3.org/2000/svg" xmlns:xlink="http://www.w3.org/1999/xlink">
<g id="graph0" class="graph" transform="scale(1 1) rotate(0) translate(4 104)">
<title>IDatabaseConnectionProvider</title>
<!-- Node1 -->
<g id="Node000001" class="node">
<title>Node1</title>
<g id="a_Node000001"><a xlink:title=" ">
<polygon fill="#999999" stroke="none" points="160.5,-100 0,-100 0,0 160.5,0 160.5,-100"/>
<text xml:space="preserve" text-anchor="start" x="15" y="-86.25" font-family="Helvetica,sans-Serif" font-size="10.00">IDatabaseConnectionProvider</text>
<text xml:space="preserve" text-anchor="start" x="78.75" y="-70.25" font-family="Helvetica,sans-Serif" font-size="10.00"> </text>
<text xml:space="preserve" text-anchor="start" x="4" y="-54.25" font-family="Helvetica,sans-Serif" font-size="10.00">+</text>
<text xml:space="preserve" text-anchor="start" x="14" y="-54.25" font-family="Helvetica,sans-Serif" font-size="10.00">~IDatabaseConnectionProvider()</text>
<text xml:space="preserve" text-anchor="start" x="4" y="-38.25" font-family="Helvetica,sans-Serif" font-size="10.00">+</text>
<text xml:space="preserve" text-anchor="start" x="14" y="-38.25" font-family="Helvetica,sans-Serif" font-size="10.00">hasConnection()</text>
<text xml:space="preserve" text-anchor="start" x="4" y="-22.25" font-family="Helvetica,sans-Serif" font-size="10.00">+</text>
<text xml:space="preserve" text-anchor="start" x="14" y="-22.25" font-family="Helvetica,sans-Serif" font-size="10.00">reconnect()</text>
<text xml:space="preserve" text-anchor="start" x="4" y="-6.25" font-family="Helvetica,sans-Serif" font-size="10.00">+</text>
<text xml:space="preserve" text-anchor="start" x="14" y="-6.25" font-family="Helvetica,sans-Serif" font-size="10.00">getConnection()</text>
<polygon fill="#666666" stroke="#666666" points="0,-82 0,-82 160.5,-82 160.5,-82 0,-82"/>
<polygon fill="#666666" stroke="#666666" points="0,-66 0,-66 160.5,-66 160.5,-66 0,-66"/>
<polygon fill="none" stroke="#666666" points="0,0 0,-100 160.5,-100 160.5,0 0,0"/>
</a>
</g>
</g>
</g>
</svg>
