<?xml version="1.0" encoding="UTF-8" standalone="no"?>
<!DOCTYPE svg PUBLIC "-//W3C//DTD SVG 1.1//EN"
 "http://www.w3.org/Graphics/SVG/1.1/DTD/svg11.dtd">
<!-- Generated by graphviz version 12.2.1 (0)
 -->
<!-- Title: SetNotificationCommand Pages: 1 -->
<svg width="204pt" height="260pt"
 viewBox="0.00 0.00 203.50 260.00" xmlns="http://www.w3.org/2000/svg" xmlns:xlink="http://www.w3.org/1999/xlink">
<g id="graph0" class="graph" transform="scale(1 1) rotate(0) translate(4 256)">
<title>SetNotificationCommand</title>
<!-- Node1 -->
<g id="Node000001" class="node">
<title>Node1</title>
<g id="a_Node000001"><a xlink:title=" ">
<polygon fill="#999999" stroke="none" points="176.38,-132 42.88,-132 42.88,0 176.38,0 176.38,-132"/>
<text text-anchor="start" x="54.88" y="-118.5" font-family="Helvetica,sans-Serif" font-size="10.00">SetNotificationCommand</text>
<text text-anchor="start" x="108.12" y="-102.5" font-family="Helvetica,sans-Serif" font-size="10.00"> </text>
<text text-anchor="start" x="46.88" y="-86.5" font-family="Helvetica,sans-Serif" font-size="10.00">+</text>
<text text-anchor="start" x="56.88" y="-86.5" font-family="Helvetica,sans-Serif" font-size="10.00">SetNotificationCommand()</text>
<text text-anchor="start" x="46.88" y="-70.5" font-family="Helvetica,sans-Serif" font-size="10.00">+</text>
<text text-anchor="start" x="56.88" y="-70.5" font-family="Helvetica,sans-Serif" font-size="10.00">on_slashcommand()</text>
<text text-anchor="start" x="46.88" y="-54.5" font-family="Helvetica,sans-Serif" font-size="10.00">+</text>
<text text-anchor="start" x="56.88" y="-54.5" font-family="Helvetica,sans-Serif" font-size="10.00">on_ready()</text>
<text text-anchor="start" x="46.88" y="-38.5" font-family="Helvetica,sans-Serif" font-size="10.00">+</text>
<text text-anchor="start" x="56.88" y="-38.5" font-family="Helvetica,sans-Serif" font-size="10.00">SetNotificationCommand()</text>
<text text-anchor="start" x="46.88" y="-22.5" font-family="Helvetica,sans-Serif" font-size="10.00">+</text>
<text text-anchor="start" x="56.88" y="-22.5" font-family="Helvetica,sans-Serif" font-size="10.00">on_slashcommand()</text>
<text text-anchor="start" x="46.88" y="-6.5" font-family="Helvetica,sans-Serif" font-size="10.00">+</text>
<text text-anchor="start" x="56.88" y="-6.5" font-family="Helvetica,sans-Serif" font-size="10.00">on_ready()</text>
<polygon fill="#666666" stroke="#666666" points="42.88,-114 42.88,-114 176.38,-114 176.38,-114 42.88,-114"/>
<polygon fill="#666666" stroke="#666666" points="42.88,-98 42.88,-98 176.38,-98 176.38,-98 42.88,-98"/>
<polygon fill="none" stroke="#666666" points="42.88,0 42.88,-132 176.38,-132 176.38,0 42.88,0"/>
</a>
</g>
</g>
<!-- Node2 -->
<g id="Node000002" class="node">
<title>Node2</title>
<g id="a_Node000002"><a xlink:href="classIGlobalSlashCommand.html" target="_top" xlink:title=" ">
<polygon fill="white" stroke="none" points="113.25,-252 0,-252 0,-168 113.25,-168 113.25,-252"/>
<text text-anchor="start" x="6.38" y="-238.5" font-family="Helvetica,sans-Serif" font-size="10.00">IGlobalSlashCommand</text>
<text text-anchor="start" x="4" y="-222.5" font-family="Helvetica,sans-Serif" font-size="10.00">+</text>
<text text-anchor="start" x="14" y="-222.5" font-family="Helvetica,sans-Serif" font-size="10.00">command_name</text>
<text text-anchor="start" x="4" y="-206.5" font-family="Helvetica,sans-Serif" font-size="10.00">+</text>
<text text-anchor="start" x="14" y="-206.5" font-family="Helvetica,sans-Serif" font-size="10.00">command_description</text>
<text text-anchor="start" x="4" y="-190.5" font-family="Helvetica,sans-Serif" font-size="10.00">+</text>
<text text-anchor="start" x="14" y="-190.5" font-family="Helvetica,sans-Serif" font-size="10.00">command_options</text>
<text text-anchor="start" x="4" y="-174.5" font-family="Helvetica,sans-Serif" font-size="10.00">+</text>
<text text-anchor="start" x="14" y="-174.5" font-family="Helvetica,sans-Serif" font-size="10.00">on_slashcommand()</text>
<polygon fill="#666666" stroke="#666666" points="0,-234 0,-234 113.25,-234 113.25,-234 0,-234"/>
<polygon fill="#666666" stroke="#666666" points="0,-186 0,-186 12,-186 12,-186 0,-186"/>
<polygon fill="#666666" stroke="#666666" points="12,-186 12,-186 113.25,-186 113.25,-186 12,-186"/>
<polygon fill="none" stroke="#666666" points="0,-168 0,-252 113.25,-252 113.25,-168 0,-168"/>
</a>
</g>
</g>
<!-- Node2&#45;&gt;Node1 -->
<g id="edge1_Node000001_Node000002" class="edge">
<title>Node2&#45;&gt;Node1</title>
<g id="a_edge1_Node000001_Node000002"><a xlink:title=" ">
<path fill="none" stroke="#63b8ff" d="M69.3,-157.58C72.22,-149.22 75.42,-140.46 78.7,-131.82"/>
<polygon fill="none" stroke="#63b8ff" points="66.05,-156.28 66.13,-166.88 72.67,-158.54 66.05,-156.28"/>
</a>
</g>
</g>
<!-- Node2&#45;&gt;Node1 -->
<g id="edge3_Node000001_Node000002" class="edge">
<title>Node2&#45;&gt;Node1</title>
<g id="a_edge3_Node000001_Node000002"><a xlink:title=" ">
<path fill="none" stroke="#63b8ff" d="M82.22,-157.86C85.58,-149.41 88.96,-140.56 92.16,-131.82"/>
<polygon fill="none" stroke="#63b8ff" points="79.07,-156.32 78.55,-166.91 85.55,-158.96 79.07,-156.32"/>
</a>
</g>
</g>
<!-- Node3 -->
<g id="Node000003" class="node">
<title>Node3</title>
<g id="a_Node000003"><a xlink:href="classIReady.html" target="_top" xlink:title=" ">
<polygon fill="white" stroke="none" points="195.5,-236 131.75,-236 131.75,-184 195.5,-184 195.5,-236"/>
<text text-anchor="start" x="147.88" y="-222.5" font-family="Helvetica,sans-Serif" font-size="10.00">IReady</text>
<text text-anchor="start" x="162.12" y="-206.5" font-family="Helvetica,sans-Serif" font-size="10.00"> </text>
<text text-anchor="start" x="135.75" y="-190.5" font-family="Helvetica,sans-Serif" font-size="10.00">+</text>
<text text-anchor="start" x="145.75" y="-190.5" font-family="Helvetica,sans-Serif" font-size="10.00">on_ready()</text>
<polygon fill="#666666" stroke="#666666" points="131.75,-218 131.75,-218 195.5,-218 195.5,-218 131.75,-218"/>
<polygon fill="#666666" stroke="#666666" points="131.75,-202 131.75,-202 195.5,-202 195.5,-202 131.75,-202"/>
<polygon fill="none" stroke="#666666" points="131.75,-184 131.75,-236 195.5,-236 195.5,-184 131.75,-184"/>
</a>
</g>
</g>
<!-- Node3&#45;&gt;Node1 -->
<g id="edge2_Node000001_Node000003" class="edge">
<title>Node3&#45;&gt;Node1</title>
<g id="a_edge2_Node000001_Node000003"><a xlink:title=" ">
<path fill="none" stroke="#63b8ff" d="M144.43,-174.06C138.9,-161.25 132.95,-146.3 127.51,-131.72"/>
<polygon fill="none" stroke="#63b8ff" points="141.09,-175.16 148.34,-182.88 147.49,-172.32 141.09,-175.16"/>
</a>
</g>
</g>
<!-- Node3&#45;&gt;Node1 -->
<g id="edge4_Node000001_Node000003" class="edge">
<title>Node3&#45;&gt;Node1</title>
<g id="a_edge4_Node000001_Node000003"><a xlink:title=" ">
<path fill="none" stroke="#63b8ff" d="M156.12,-173.67C151.92,-160.95 146.56,-146.16 140.96,-131.72"/>
<polygon fill="none" stroke="#63b8ff" points="152.66,-174.35 159.03,-182.82 159.33,-172.23 152.66,-174.35"/>
</a>
</g>
</g>
</g>
</svg>
