<?xml version="1.0" encoding="UTF-8" standalone="no"?>
<!DOCTYPE svg PUBLIC "-//W3C//DTD SVG 1.1//EN"
 "http://www.w3.org/Graphics/SVG/1.1/DTD/svg11.dtd">
<!-- Generated by graphviz version 10.0.1 (0)
 -->
<!-- Title: IGlobalSlashCommand Pages: 1 -->
<svg width="2134pt" height="252pt"
 viewBox="0.00 0.00 2133.50 252.00" xmlns="http://www.w3.org/2000/svg" xmlns:xlink="http://www.w3.org/1999/xlink">
<g id="graph0" class="graph" transform="scale(1 1) rotate(0) translate(4 248)">
<title>IGlobalSlashCommand</title>
<!-- Node1 -->
<g id="Node000001" class="node">
<title>Node1</title>
<g id="a_Node000001"><a xlink:title=" ">
<polygon fill="#999999" stroke="none" points="1099.5,-244 986.5,-244 986.5,-160 1099.5,-160 1099.5,-244"/>
<text text-anchor="start" x="992.75" y="-230.5" font-family="Helvetica,sans-Serif" font-size="10.00">IGlobalSlashCommand</text>
<text text-anchor="start" x="990.5" y="-214.5" font-family="Helvetica,sans-Serif" font-size="10.00">+</text>
<text text-anchor="start" x="1000.5" y="-214.5" font-family="Helvetica,sans-Serif" font-size="10.00">command_name</text>
<text text-anchor="start" x="990.5" y="-198.5" font-family="Helvetica,sans-Serif" font-size="10.00">+</text>
<text text-anchor="start" x="1000.5" y="-198.5" font-family="Helvetica,sans-Serif" font-size="10.00">command_description</text>
<text text-anchor="start" x="990.5" y="-182.5" font-family="Helvetica,sans-Serif" font-size="10.00">+</text>
<text text-anchor="start" x="1000.5" y="-182.5" font-family="Helvetica,sans-Serif" font-size="10.00">command_options</text>
<text text-anchor="start" x="990.5" y="-166.5" font-family="Helvetica,sans-Serif" font-size="10.00">+</text>
<text text-anchor="start" x="1000.5" y="-166.5" font-family="Helvetica,sans-Serif" font-size="10.00">on_slashcommand()</text>
<polygon fill="#666666" stroke="#666666" points="986.5,-226 986.5,-226 1099.5,-226 1099.5,-226 986.5,-226"/>
<polygon fill="#666666" stroke="#666666" points="986.5,-178 986.5,-178 998.5,-178 998.5,-178 986.5,-178"/>
<polygon fill="#666666" stroke="#666666" points="998.5,-178 998.5,-178 1099.5,-178 1099.5,-178 998.5,-178"/>
<polygon fill="none" stroke="#666666" points="986.5,-160 986.5,-244 1099.5,-244 1099.5,-160 986.5,-160"/>
</a>
</g>
</g>
<!-- Node2 -->
<g id="Node000002" class="node">
<title>Node2</title>
<g id="a_Node000002"><a xlink:href="classChallengeBadgeCommand.html" target="_top" xlink:title=" ">
<polygon fill="white" stroke="none" points="140,-112 0,-112 0,-12 140,-12 140,-112"/>
<text text-anchor="start" x="11.88" y="-98.5" font-family="Helvetica,sans-Serif" font-size="10.00">ChallengeBadgeCommand</text>
<text text-anchor="start" x="68.5" y="-82.5" font-family="Helvetica,sans-Serif" font-size="10.00"> </text>
<text text-anchor="start" x="4" y="-66.5" font-family="Helvetica,sans-Serif" font-size="10.00">+</text>
<text text-anchor="start" x="14" y="-66.5" font-family="Helvetica,sans-Serif" font-size="10.00">ChallengeBadgeCommand()</text>
<text text-anchor="start" x="4" y="-50.5" font-family="Helvetica,sans-Serif" font-size="10.00">+</text>
<text text-anchor="start" x="14" y="-50.5" font-family="Helvetica,sans-Serif" font-size="10.00">on_slashcommand()</text>
<text text-anchor="start" x="4" y="-34.5" font-family="Helvetica,sans-Serif" font-size="10.00">+</text>
<text text-anchor="start" x="14" y="-34.5" font-family="Helvetica,sans-Serif" font-size="10.00">on_button_click()</text>
<text text-anchor="start" x="4" y="-18.5" font-family="Helvetica,sans-Serif" font-size="10.00">+</text>
<text text-anchor="start" x="14" y="-18.5" font-family="Helvetica,sans-Serif" font-size="10.00">on_form_submit()</text>
<polygon fill="#666666" stroke="#666666" points="0,-94 0,-94 140,-94 140,-94 0,-94"/>
<polygon fill="#666666" stroke="#666666" points="0,-78 0,-78 140,-78 140,-78 0,-78"/>
<polygon fill="none" stroke="#666666" points="0,-12 0,-112 140,-112 140,-12 0,-12"/>
</a>
</g>
</g>
<!-- Node1&#45;&gt;Node2 -->
<g id="edge1_Node000001_Node000002" class="edge">
<title>Node1&#45;&gt;Node2</title>
<g id="a_edge1_Node000001_Node000002"><a xlink:title=" ">
<path fill="none" stroke="#63b8ff" d="M975.29,-200.08C793.73,-196.84 299.64,-182.72 149,-124 140.93,-120.85 133,-116.61 125.46,-111.81"/>
<polygon fill="none" stroke="#63b8ff" points="975.22,-203.58 985.27,-200.25 975.34,-196.58 975.22,-203.58"/>
</a>
</g>
</g>
<!-- Node3 -->
<g id="Node000003" class="node">
<title>Node3</title>
<g id="a_Node000003"><a xlink:href="classChallengeRoleCommand.html" target="_top" xlink:title=" ">
<polygon fill="white" stroke="none" points="290,-112 158,-112 158,-12 290,-12 290,-112"/>
<text text-anchor="start" x="169.62" y="-98.5" font-family="Helvetica,sans-Serif" font-size="10.00">ChallengeRoleCommand</text>
<text text-anchor="start" x="222.5" y="-82.5" font-family="Helvetica,sans-Serif" font-size="10.00"> </text>
<text text-anchor="start" x="162" y="-66.5" font-family="Helvetica,sans-Serif" font-size="10.00">+</text>
<text text-anchor="start" x="172" y="-66.5" font-family="Helvetica,sans-Serif" font-size="10.00">ChallengeRoleCommand()</text>
<text text-anchor="start" x="162" y="-50.5" font-family="Helvetica,sans-Serif" font-size="10.00">+</text>
<text text-anchor="start" x="172" y="-50.5" font-family="Helvetica,sans-Serif" font-size="10.00">on_slashcommand()</text>
<text text-anchor="start" x="162" y="-34.5" font-family="Helvetica,sans-Serif" font-size="10.00">+</text>
<text text-anchor="start" x="172" y="-34.5" font-family="Helvetica,sans-Serif" font-size="10.00">on_button_click()</text>
<text text-anchor="start" x="162" y="-18.5" font-family="Helvetica,sans-Serif" font-size="10.00">+</text>
<text text-anchor="start" x="172" y="-18.5" font-family="Helvetica,sans-Serif" font-size="10.00">on_form_submit()</text>
<polygon fill="#666666" stroke="#666666" points="158,-94 158,-94 290,-94 290,-94 158,-94"/>
<polygon fill="#666666" stroke="#666666" points="158,-78 158,-78 290,-78 290,-78 158,-78"/>
<polygon fill="none" stroke="#666666" points="158,-12 158,-112 290,-112 290,-12 158,-12"/>
</a>
</g>
</g>
<!-- Node1&#45;&gt;Node3 -->
<g id="edge2_Node000001_Node000003" class="edge">
<title>Node1&#45;&gt;Node3</title>
<g id="a_edge2_Node000001_Node000003"><a xlink:title=" ">
<path fill="none" stroke="#63b8ff" d="M975.62,-198.94C816.3,-193.27 420.61,-174.41 299,-124 291.4,-120.85 283.97,-116.67 276.91,-111.97"/>
<polygon fill="none" stroke="#63b8ff" points="975.05,-202.42 985.17,-199.27 975.3,-195.42 975.05,-202.42"/>
</a>
</g>
</g>
<!-- Node4 -->
<g id="Node000004" class="node">
<title>Node4</title>
<g id="a_Node000004"><a xlink:href="classFlipCommand.html" target="_top" xlink:title=" ">
<polygon fill="white" stroke="none" points="413.5,-96 308.5,-96 308.5,-28 413.5,-28 413.5,-96"/>
<text text-anchor="start" x="330.62" y="-82.5" font-family="Helvetica,sans-Serif" font-size="10.00">FlipCommand</text>
<text text-anchor="start" x="359.5" y="-66.5" font-family="Helvetica,sans-Serif" font-size="10.00"> </text>
<text text-anchor="start" x="312.5" y="-50.5" font-family="Helvetica,sans-Serif" font-size="10.00">+</text>
<text text-anchor="start" x="322.5" y="-50.5" font-family="Helvetica,sans-Serif" font-size="10.00">FlipCommand()</text>
<text text-anchor="start" x="312.5" y="-34.5" font-family="Helvetica,sans-Serif" font-size="10.00">+</text>
<text text-anchor="start" x="322.5" y="-34.5" font-family="Helvetica,sans-Serif" font-size="10.00">on_slashcommand()</text>
<polygon fill="#666666" stroke="#666666" points="308.5,-78 308.5,-78 413.5,-78 413.5,-78 308.5,-78"/>
<polygon fill="#666666" stroke="#666666" points="308.5,-62 308.5,-62 413.5,-62 413.5,-62 308.5,-62"/>
<polygon fill="none" stroke="#666666" points="308.5,-28 308.5,-96 413.5,-96 413.5,-28 308.5,-28"/>
</a>
</g>
</g>
<!-- Node1&#45;&gt;Node4 -->
<g id="edge3_Node000001_Node000004" class="edge">
<title>Node1&#45;&gt;Node4</title>
<g id="a_edge3_Node000001_Node000004"><a xlink:title=" ">
<path fill="none" stroke="#63b8ff" d="M975.53,-198.15C835.5,-191.34 518.37,-171.07 422,-124 408.41,-117.36 396.05,-106.47 386.06,-95.71"/>
<polygon fill="none" stroke="#63b8ff" points="975.24,-201.64 985.4,-198.62 975.58,-194.64 975.24,-201.64"/>
</a>
</g>
</g>
<!-- Node5 -->
<g id="Node000005" class="node">
<title>Node5</title>
<g id="a_Node000005"><a xlink:href="classHelpCommand.html" target="_top" xlink:title=" ">
<polygon fill="white" stroke="none" points="536.5,-96 431.5,-96 431.5,-28 536.5,-28 536.5,-96"/>
<text text-anchor="start" x="451.38" y="-82.5" font-family="Helvetica,sans-Serif" font-size="10.00">HelpCommand</text>
<text text-anchor="start" x="482.5" y="-66.5" font-family="Helvetica,sans-Serif" font-size="10.00"> </text>
<text text-anchor="start" x="435.5" y="-50.5" font-family="Helvetica,sans-Serif" font-size="10.00">+</text>
<text text-anchor="start" x="445.5" y="-50.5" font-family="Helvetica,sans-Serif" font-size="10.00">HelpCommand()</text>
<text text-anchor="start" x="435.5" y="-34.5" font-family="Helvetica,sans-Serif" font-size="10.00">+</text>
<text text-anchor="start" x="445.5" y="-34.5" font-family="Helvetica,sans-Serif" font-size="10.00">on_slashcommand()</text>
<polygon fill="#666666" stroke="#666666" points="431.5,-78 431.5,-78 536.5,-78 536.5,-78 431.5,-78"/>
<polygon fill="#666666" stroke="#666666" points="431.5,-62 431.5,-62 536.5,-62 536.5,-62 431.5,-62"/>
<polygon fill="none" stroke="#666666" points="431.5,-28 431.5,-96 536.5,-96 536.5,-28 431.5,-28"/>
</a>
</g>
</g>
<!-- Node1&#45;&gt;Node5 -->
<g id="edge4_Node000001_Node000005" class="edge">
<title>Node1&#45;&gt;Node5</title>
<g id="a_edge4_Node000001_Node000005"><a xlink:title=" ">
<path fill="none" stroke="#63b8ff" d="M975.41,-195.77C857.35,-185.78 619.09,-161.58 545,-124 531.64,-117.23 519.41,-106.44 509.47,-95.8"/>
<polygon fill="none" stroke="#63b8ff" points="975.03,-199.25 985.28,-196.59 975.61,-192.27 975.03,-199.25"/>
</a>
</g>
</g>
<!-- Node6 -->
<g id="Node000006" class="node">
<title>Node6</title>
<g id="a_Node000006"><a xlink:href="classInviteCommand.html" target="_top" xlink:title=" ">
<polygon fill="white" stroke="none" points="659.5,-96 554.5,-96 554.5,-28 659.5,-28 659.5,-96"/>
<text text-anchor="start" x="572.5" y="-82.5" font-family="Helvetica,sans-Serif" font-size="10.00">InviteCommand</text>
<text text-anchor="start" x="605.5" y="-66.5" font-family="Helvetica,sans-Serif" font-size="10.00"> </text>
<text text-anchor="start" x="558.5" y="-50.5" font-family="Helvetica,sans-Serif" font-size="10.00">+</text>
<text text-anchor="start" x="568.5" y="-50.5" font-family="Helvetica,sans-Serif" font-size="10.00">InviteCommand()</text>
<text text-anchor="start" x="558.5" y="-34.5" font-family="Helvetica,sans-Serif" font-size="10.00">+</text>
<text text-anchor="start" x="568.5" y="-34.5" font-family="Helvetica,sans-Serif" font-size="10.00">on_slashcommand()</text>
<polygon fill="#666666" stroke="#666666" points="554.5,-78 554.5,-78 659.5,-78 659.5,-78 554.5,-78"/>
<polygon fill="#666666" stroke="#666666" points="554.5,-62 554.5,-62 659.5,-62 659.5,-62 554.5,-62"/>
<polygon fill="none" stroke="#666666" points="554.5,-28 554.5,-96 659.5,-96 659.5,-28 554.5,-28"/>
</a>
</g>
</g>
<!-- Node1&#45;&gt;Node6 -->
<g id="edge5_Node000001_Node000006" class="edge">
<title>Node1&#45;&gt;Node6</title>
<g id="a_edge5_Node000001_Node000006"><a xlink:title=" ">
<path fill="none" stroke="#63b8ff" d="M975.36,-198.72C897.07,-193.55 766.3,-176.93 668,-124 654.95,-116.97 642.86,-106.25 632.96,-95.76"/>
<polygon fill="none" stroke="#63b8ff" points="974.82,-202.2 985.01,-199.31 975.25,-195.21 974.82,-202.2"/>
</a>
</g>
</g>
<!-- Node7 -->
<g id="Node000007" class="node">
<title>Node7</title>
<g id="a_Node000007"><a xlink:href="classMemberCommand.html" target="_top" xlink:title=" ">
<polygon fill="white" stroke="none" points="782.5,-96 677.5,-96 677.5,-28 782.5,-28 782.5,-96"/>
<text text-anchor="start" x="689.88" y="-82.5" font-family="Helvetica,sans-Serif" font-size="10.00">MemberCommand</text>
<text text-anchor="start" x="728.5" y="-66.5" font-family="Helvetica,sans-Serif" font-size="10.00"> </text>
<text text-anchor="start" x="681.5" y="-50.5" font-family="Helvetica,sans-Serif" font-size="10.00">+</text>
<text text-anchor="start" x="691.5" y="-50.5" font-family="Helvetica,sans-Serif" font-size="10.00">MemberCommand()</text>
<text text-anchor="start" x="681.5" y="-34.5" font-family="Helvetica,sans-Serif" font-size="10.00">+</text>
<text text-anchor="start" x="691.5" y="-34.5" font-family="Helvetica,sans-Serif" font-size="10.00">on_slashcommand()</text>
<polygon fill="#666666" stroke="#666666" points="677.5,-78 677.5,-78 782.5,-78 782.5,-78 677.5,-78"/>
<polygon fill="#666666" stroke="#666666" points="677.5,-62 677.5,-62 782.5,-62 782.5,-62 677.5,-62"/>
<polygon fill="none" stroke="#666666" points="677.5,-28 677.5,-96 782.5,-96 782.5,-28 677.5,-28"/>
</a>
</g>
</g>
<!-- Node1&#45;&gt;Node7 -->
<g id="edge6_Node000001_Node000007" class="edge">
<title>Node1&#45;&gt;Node7</title>
<g id="a_edge6_Node000001_Node000007"><a xlink:title=" ">
<path fill="none" stroke="#63b8ff" d="M975.5,-189.45C922.8,-178.33 849.18,-158.08 792,-124 779.42,-116.5 767.47,-105.93 757.48,-95.69"/>
<polygon fill="none" stroke="#63b8ff" points="974.77,-192.87 985.26,-191.44 976.17,-186.01 974.77,-192.87"/>
</a>
</g>
</g>
<!-- Node8 -->
<g id="Node000008" class="node">
<title>Node8</title>
<g id="a_Node000008"><a xlink:href="classProductsCommand.html" target="_top" xlink:title=" ">
<polygon fill="white" stroke="none" points="909,-96 801,-96 801,-28 909,-28 909,-96"/>
<text text-anchor="start" x="813" y="-82.5" font-family="Helvetica,sans-Serif" font-size="10.00">ProductsCommand</text>
<text text-anchor="start" x="853.5" y="-66.5" font-family="Helvetica,sans-Serif" font-size="10.00"> </text>
<text text-anchor="start" x="805" y="-50.5" font-family="Helvetica,sans-Serif" font-size="10.00">+</text>
<text text-anchor="start" x="815" y="-50.5" font-family="Helvetica,sans-Serif" font-size="10.00">ProductsCommand()</text>
<text text-anchor="start" x="805" y="-34.5" font-family="Helvetica,sans-Serif" font-size="10.00">+</text>
<text text-anchor="start" x="815" y="-34.5" font-family="Helvetica,sans-Serif" font-size="10.00">on_slashcommand()</text>
<polygon fill="#666666" stroke="#666666" points="801,-78 801,-78 909,-78 909,-78 801,-78"/>
<polygon fill="#666666" stroke="#666666" points="801,-62 801,-62 909,-62 909,-62 801,-62"/>
<polygon fill="none" stroke="#666666" points="801,-28 801,-96 909,-96 909,-28 801,-28"/>
</a>
</g>
</g>
<!-- Node1&#45;&gt;Node8 -->
<g id="edge7_Node000001_Node000008" class="edge">
<title>Node1&#45;&gt;Node8</title>
<g id="a_edge7_Node000001_Node000008"><a xlink:title=" ">
<path fill="none" stroke="#63b8ff" d="M976.77,-163.88C957.25,-151.98 936.25,-138.18 918,-124 907.06,-115.5 895.94,-105.33 886.15,-95.76"/>
<polygon fill="none" stroke="#63b8ff" points="974.85,-166.81 985.22,-168.97 978.46,-160.81 974.85,-166.81"/>
</a>
</g>
</g>
<!-- Node9 -->
<g id="Node000009" class="node">
<title>Node9</title>
<g id="a_Node000009"><a xlink:href="classProfileCommand.html" target="_top" xlink:title=" ">
<polygon fill="white" stroke="none" points="1032.5,-96 927.5,-96 927.5,-28 1032.5,-28 1032.5,-96"/>
<text text-anchor="start" x="943.62" y="-82.5" font-family="Helvetica,sans-Serif" font-size="10.00">ProfileCommand</text>
<text text-anchor="start" x="978.5" y="-66.5" font-family="Helvetica,sans-Serif" font-size="10.00"> </text>
<text text-anchor="start" x="931.5" y="-50.5" font-family="Helvetica,sans-Serif" font-size="10.00">+</text>
<text text-anchor="start" x="941.5" y="-50.5" font-family="Helvetica,sans-Serif" font-size="10.00">ProfileCommand()</text>
<text text-anchor="start" x="931.5" y="-34.5" font-family="Helvetica,sans-Serif" font-size="10.00">+</text>
<text text-anchor="start" x="941.5" y="-34.5" font-family="Helvetica,sans-Serif" font-size="10.00">on_slashcommand()</text>
<polygon fill="#666666" stroke="#666666" points="927.5,-78 927.5,-78 1032.5,-78 1032.5,-78 927.5,-78"/>
<polygon fill="#666666" stroke="#666666" points="927.5,-62 927.5,-62 1032.5,-62 1032.5,-62 927.5,-62"/>
<polygon fill="none" stroke="#666666" points="927.5,-28 927.5,-96 1032.5,-96 1032.5,-28 927.5,-28"/>
</a>
</g>
</g>
<!-- Node1&#45;&gt;Node9 -->
<g id="edge8_Node000001_Node000009" class="edge">
<title>Node1&#45;&gt;Node9</title>
<g id="a_edge8_Node000001_Node000009"><a xlink:title=" ">
<path fill="none" stroke="#63b8ff" d="M1019.7,-149.96C1011.46,-131.91 1002.42,-112.1 995.05,-95.96"/>
<polygon fill="none" stroke="#63b8ff" points="1016.47,-151.32 1023.81,-158.96 1022.84,-148.41 1016.47,-151.32"/>
</a>
</g>
</g>
<!-- Node10 -->
<g id="Node000010" class="node">
<title>Node10</title>
<g id="a_Node000010"><a xlink:href="classReactionRoles.html" target="_top" xlink:title=" ">
<polygon fill="white" stroke="none" points="1163.5,-124 1050.5,-124 1050.5,0 1163.5,0 1163.5,-124"/>
<text text-anchor="start" x="1074.75" y="-110.5" font-family="Helvetica,sans-Serif" font-size="10.00">ReactionRoles</text>
<text text-anchor="start" x="1105.5" y="-94.5" font-family="Helvetica,sans-Serif" font-size="10.00"> </text>
<text text-anchor="start" x="1054.5" y="-78.5" font-family="Helvetica,sans-Serif" font-size="10.00">+</text>
<text text-anchor="start" x="1064.5" y="-78.5" font-family="Helvetica,sans-Serif" font-size="10.00">ReactionRoles()</text>
<text text-anchor="start" x="1054.5" y="-62.5" font-family="Helvetica,sans-Serif" font-size="10.00">+</text>
<text text-anchor="start" x="1064.5" y="-62.5" font-family="Helvetica,sans-Serif" font-size="10.00">on_slashcommand()</text>
<text text-anchor="start" x="1054.5" y="-46.5" font-family="Helvetica,sans-Serif" font-size="10.00">+</text>
<text text-anchor="start" x="1064.5" y="-46.5" font-family="Helvetica,sans-Serif" font-size="10.00">on_message_reaction</text>
<text text-anchor="start" x="1064.5" y="-34.5" font-family="Helvetica,sans-Serif" font-size="10.00">_add()</text>
<text text-anchor="start" x="1054.5" y="-18.5" font-family="Helvetica,sans-Serif" font-size="10.00">+</text>
<text text-anchor="start" x="1064.5" y="-18.5" font-family="Helvetica,sans-Serif" font-size="10.00">on_message_reaction</text>
<text text-anchor="start" x="1064.5" y="-6.5" font-family="Helvetica,sans-Serif" font-size="10.00">_remove()</text>
<polygon fill="#666666" stroke="#666666" points="1050.5,-106 1050.5,-106 1163.5,-106 1163.5,-106 1050.5,-106"/>
<polygon fill="#666666" stroke="#666666" points="1050.5,-90 1050.5,-90 1163.5,-90 1163.5,-90 1050.5,-90"/>
<polygon fill="none" stroke="#666666" points="1050.5,0 1050.5,-124 1163.5,-124 1163.5,0 1050.5,0"/>
</a>
</g>
</g>
<!-- Node1&#45;&gt;Node10 -->
<g id="edge9_Node000001_Node000010" class="edge">
<title>Node1&#45;&gt;Node10</title>
<g id="a_edge9_Node000001_Node000010"><a xlink:title=" ">
<path fill="none" stroke="#63b8ff" d="M1066.59,-150.14C1070.56,-141.58 1074.72,-132.61 1078.79,-123.83"/>
<polygon fill="none" stroke="#63b8ff" points="1063.52,-148.42 1062.49,-158.97 1069.88,-151.37 1063.52,-148.42"/>
</a>
</g>
</g>
<!-- Node11 -->
<g id="Node000011" class="node">
<title>Node11</title>
<g id="a_Node000011"><a xlink:href="classRemovePortalCommand.html" target="_top" xlink:title=" ">
<polygon fill="white" stroke="none" points="1312.5,-96 1181.5,-96 1181.5,-28 1312.5,-28 1312.5,-96"/>
<text text-anchor="start" x="1193.38" y="-82.5" font-family="Helvetica,sans-Serif" font-size="10.00">RemovePortalCommand</text>
<text text-anchor="start" x="1245.5" y="-66.5" font-family="Helvetica,sans-Serif" font-size="10.00"> </text>
<text text-anchor="start" x="1185.5" y="-50.5" font-family="Helvetica,sans-Serif" font-size="10.00">+</text>
<text text-anchor="start" x="1195.5" y="-50.5" font-family="Helvetica,sans-Serif" font-size="10.00">RemovePortalCommand()</text>
<text text-anchor="start" x="1185.5" y="-34.5" font-family="Helvetica,sans-Serif" font-size="10.00">+</text>
<text text-anchor="start" x="1195.5" y="-34.5" font-family="Helvetica,sans-Serif" font-size="10.00">on_slashcommand()</text>
<polygon fill="#666666" stroke="#666666" points="1181.5,-78 1181.5,-78 1312.5,-78 1312.5,-78 1181.5,-78"/>
<polygon fill="#666666" stroke="#666666" points="1181.5,-62 1181.5,-62 1312.5,-62 1312.5,-62 1181.5,-62"/>
<polygon fill="none" stroke="#666666" points="1181.5,-28 1181.5,-96 1312.5,-96 1312.5,-28 1181.5,-28"/>
</a>
</g>
</g>
<!-- Node1&#45;&gt;Node11 -->
<g id="edge10_Node000001_Node000011" class="edge">
<title>Node1&#45;&gt;Node11</title>
<g id="a_edge10_Node000001_Node000011"><a xlink:title=" ">
<path fill="none" stroke="#63b8ff" d="M1108.98,-164.58C1129.88,-152.34 1152.8,-138.18 1173,-124 1185.26,-115.39 1198.05,-105.3 1209.48,-95.82"/>
<polygon fill="none" stroke="#63b8ff" points="1107.42,-161.44 1100.53,-169.48 1110.93,-167.49 1107.42,-161.44"/>
</a>
</g>
</g>
<!-- Node12 -->
<g id="Node000012" class="node">
<title>Node12</title>
<g id="a_Node000012"><a xlink:href="classResourcesCommand.html" target="_top" xlink:title=" ">
<polygon fill="white" stroke="none" points="1447,-96 1331,-96 1331,-28 1447,-28 1447,-96"/>
<text text-anchor="start" x="1342.88" y="-82.5" font-family="Helvetica,sans-Serif" font-size="10.00">ResourcesCommand</text>
<text text-anchor="start" x="1387.5" y="-66.5" font-family="Helvetica,sans-Serif" font-size="10.00"> </text>
<text text-anchor="start" x="1335" y="-50.5" font-family="Helvetica,sans-Serif" font-size="10.00">+</text>
<text text-anchor="start" x="1345" y="-50.5" font-family="Helvetica,sans-Serif" font-size="10.00">ResourcesCommand()</text>
<text text-anchor="start" x="1335" y="-34.5" font-family="Helvetica,sans-Serif" font-size="10.00">+</text>
<text text-anchor="start" x="1345" y="-34.5" font-family="Helvetica,sans-Serif" font-size="10.00">on_slashcommand()</text>
<polygon fill="#666666" stroke="#666666" points="1331,-78 1331,-78 1447,-78 1447,-78 1331,-78"/>
<polygon fill="#666666" stroke="#666666" points="1331,-62 1331,-62 1447,-62 1447,-62 1331,-62"/>
<polygon fill="none" stroke="#666666" points="1331,-28 1331,-96 1447,-96 1447,-28 1331,-28"/>
</a>
</g>
</g>
<!-- Node1&#45;&gt;Node12 -->
<g id="edge11_Node000001_Node000012" class="edge">
<title>Node1&#45;&gt;Node12</title>
<g id="a_edge11_Node000001_Node000012"><a xlink:title=" ">
<path fill="none" stroke="#63b8ff" d="M1110.39,-191.5C1169.08,-181.16 1255.03,-160.93 1322,-124 1335.36,-116.63 1348.22,-106.09 1359.03,-95.84"/>
<polygon fill="none" stroke="#63b8ff" points="1110.15,-187.99 1100.88,-193.12 1111.33,-194.89 1110.15,-187.99"/>
</a>
</g>
</g>
<!-- Node13 -->
<g id="Node000013" class="node">
<title>Node13</title>
<g id="a_Node000013"><a xlink:href="classRollCommand.html" target="_top" xlink:title=" ">
<polygon fill="white" stroke="none" points="1570.5,-96 1465.5,-96 1465.5,-28 1570.5,-28 1570.5,-96"/>
<text text-anchor="start" x="1486.88" y="-82.5" font-family="Helvetica,sans-Serif" font-size="10.00">RollCommand</text>
<text text-anchor="start" x="1516.5" y="-66.5" font-family="Helvetica,sans-Serif" font-size="10.00"> </text>
<text text-anchor="start" x="1469.5" y="-50.5" font-family="Helvetica,sans-Serif" font-size="10.00">+</text>
<text text-anchor="start" x="1479.5" y="-50.5" font-family="Helvetica,sans-Serif" font-size="10.00">RollCommand()</text>
<text text-anchor="start" x="1469.5" y="-34.5" font-family="Helvetica,sans-Serif" font-size="10.00">+</text>
<text text-anchor="start" x="1479.5" y="-34.5" font-family="Helvetica,sans-Serif" font-size="10.00">on_slashcommand()</text>
<polygon fill="#666666" stroke="#666666" points="1465.5,-78 1465.5,-78 1570.5,-78 1570.5,-78 1465.5,-78"/>
<polygon fill="#666666" stroke="#666666" points="1465.5,-62 1465.5,-62 1570.5,-62 1570.5,-62 1465.5,-62"/>
<polygon fill="none" stroke="#666666" points="1465.5,-28 1465.5,-96 1570.5,-96 1570.5,-28 1465.5,-28"/>
</a>
</g>
</g>
<!-- Node1&#45;&gt;Node13 -->
<g id="edge12_Node000001_Node000013" class="edge">
<title>Node1&#45;&gt;Node13</title>
<g id="a_edge12_Node000001_Node000013"><a xlink:title=" ">
<path fill="none" stroke="#63b8ff" d="M1110.8,-200.33C1196,-196.89 1344.56,-182.13 1456,-124 1469.25,-117.09 1481.53,-106.4 1491.6,-95.89"/>
<polygon fill="none" stroke="#63b8ff" points="1110.85,-196.83 1100.98,-200.68 1111.1,-203.82 1110.85,-196.83"/>
</a>
</g>
</g>
<!-- Node14 -->
<g id="Node000014" class="node">
<title>Node14</title>
<g id="a_Node000014"><a xlink:href="classServerDetails.html" target="_top" xlink:title=" ">
<polygon fill="white" stroke="none" points="1693.5,-96 1588.5,-96 1588.5,-28 1693.5,-28 1693.5,-96"/>
<text text-anchor="start" x="1611.38" y="-82.5" font-family="Helvetica,sans-Serif" font-size="10.00">ServerDetails</text>
<text text-anchor="start" x="1639.5" y="-66.5" font-family="Helvetica,sans-Serif" font-size="10.00"> </text>
<text text-anchor="start" x="1592.5" y="-50.5" font-family="Helvetica,sans-Serif" font-size="10.00">+</text>
<text text-anchor="start" x="1602.5" y="-50.5" font-family="Helvetica,sans-Serif" font-size="10.00">ServerDetails()</text>
<text text-anchor="start" x="1592.5" y="-34.5" font-family="Helvetica,sans-Serif" font-size="10.00">+</text>
<text text-anchor="start" x="1602.5" y="-34.5" font-family="Helvetica,sans-Serif" font-size="10.00">on_slashcommand()</text>
<polygon fill="#666666" stroke="#666666" points="1588.5,-78 1588.5,-78 1693.5,-78 1693.5,-78 1588.5,-78"/>
<polygon fill="#666666" stroke="#666666" points="1588.5,-62 1588.5,-62 1693.5,-62 1693.5,-62 1588.5,-62"/>
<polygon fill="none" stroke="#666666" points="1588.5,-28 1588.5,-96 1693.5,-96 1693.5,-28 1588.5,-28"/>
</a>
</g>
</g>
<!-- Node1&#45;&gt;Node14 -->
<g id="edge13_Node000001_Node000014" class="edge">
<title>Node1&#45;&gt;Node14</title>
<g id="a_edge13_Node000001_Node000014"><a xlink:title=" ">
<path fill="none" stroke="#63b8ff" d="M1110.78,-196.62C1236.17,-187.66 1498.93,-164.56 1580,-124 1593.39,-117.3 1605.63,-106.52 1615.57,-95.88"/>
<polygon fill="none" stroke="#63b8ff" points="1110.69,-193.12 1100.96,-197.32 1111.18,-200.1 1110.69,-193.12"/>
</a>
</g>
</g>
<!-- Node15 -->
<g id="Node000015" class="node">
<title>Node15</title>
<g id="a_Node000015"><a xlink:href="classSetChannelCommand.html" target="_top" xlink:title=" ">
<polygon fill="white" stroke="none" points="1850,-112 1712,-112 1712,-12 1850,-12 1850,-112"/>
<text text-anchor="start" x="1733" y="-98.5" font-family="Helvetica,sans-Serif" font-size="10.00">SetChannelCommand</text>
<text text-anchor="start" x="1779.5" y="-82.5" font-family="Helvetica,sans-Serif" font-size="10.00"> </text>
<text text-anchor="start" x="1716" y="-66.5" font-family="Helvetica,sans-Serif" font-size="10.00">+</text>
<text text-anchor="start" x="1726" y="-66.5" font-family="Helvetica,sans-Serif" font-size="10.00">SetChannelCommand()</text>
<text text-anchor="start" x="1716" y="-50.5" font-family="Helvetica,sans-Serif" font-size="10.00">+</text>
<text text-anchor="start" x="1726" y="-50.5" font-family="Helvetica,sans-Serif" font-size="10.00">on_slashcommand()</text>
<text text-anchor="start" x="1716" y="-34.5" font-family="Helvetica,sans-Serif" font-size="10.00">+</text>
<text text-anchor="start" x="1726" y="-34.5" font-family="Helvetica,sans-Serif" font-size="10.00">on_guild_member_add()</text>
<text text-anchor="start" x="1716" y="-18.5" font-family="Helvetica,sans-Serif" font-size="10.00">+</text>
<text text-anchor="start" x="1726" y="-18.5" font-family="Helvetica,sans-Serif" font-size="10.00">on_guild_member_remove()</text>
<polygon fill="#666666" stroke="#666666" points="1712,-94 1712,-94 1850,-94 1850,-94 1712,-94"/>
<polygon fill="#666666" stroke="#666666" points="1712,-78 1712,-78 1850,-78 1850,-78 1712,-78"/>
<polygon fill="none" stroke="#666666" points="1712,-12 1712,-112 1850,-112 1850,-12 1712,-12"/>
</a>
</g>
</g>
<!-- Node1&#45;&gt;Node15 -->
<g id="edge14_Node000001_Node000015" class="edge">
<title>Node1&#45;&gt;Node15</title>
<g id="a_edge14_Node000001_Node000015"><a xlink:title=" ">
<path fill="none" stroke="#63b8ff" d="M1110.83,-197.74C1256.96,-189.95 1596.84,-167.63 1703,-124 1710.79,-120.8 1718.46,-116.59 1725.76,-111.87"/>
<polygon fill="none" stroke="#63b8ff" points="1110.71,-194.24 1100.9,-198.26 1111.07,-201.23 1110.71,-194.24"/>
</a>
</g>
</g>
<!-- Node16 -->
<g id="Node000016" class="node">
<title>Node16</title>
<g id="a_Node000016"><a xlink:href="classSetPortalCommand.html" target="_top" xlink:title=" ">
<polygon fill="white" stroke="none" points="2002,-120 1868,-120 1868,-4 2002,-4 2002,-120"/>
<text text-anchor="start" x="1892.25" y="-106.5" font-family="Helvetica,sans-Serif" font-size="10.00">SetPortalCommand</text>
<text text-anchor="start" x="1933.5" y="-90.5" font-family="Helvetica,sans-Serif" font-size="10.00"> </text>
<text text-anchor="start" x="1872" y="-74.5" font-family="Helvetica,sans-Serif" font-size="10.00">+</text>
<text text-anchor="start" x="1882" y="-74.5" font-family="Helvetica,sans-Serif" font-size="10.00">SetPortalCommand()</text>
<text text-anchor="start" x="1872" y="-58.5" font-family="Helvetica,sans-Serif" font-size="10.00">+</text>
<text text-anchor="start" x="1882" y="-58.5" font-family="Helvetica,sans-Serif" font-size="10.00">on_slashcommand()</text>
<text text-anchor="start" x="1872" y="-42.5" font-family="Helvetica,sans-Serif" font-size="10.00">+</text>
<text text-anchor="start" x="1882" y="-42.5" font-family="Helvetica,sans-Serif" font-size="10.00">on_message_create()</text>
<text text-anchor="start" x="1872" y="-26.5" font-family="Helvetica,sans-Serif" font-size="10.00">+</text>
<text text-anchor="start" x="1882" y="-26.5" font-family="Helvetica,sans-Serif" font-size="10.00">on_message_delete()</text>
<text text-anchor="start" x="1872" y="-10.5" font-family="Helvetica,sans-Serif" font-size="10.00">+</text>
<text text-anchor="start" x="1882" y="-10.5" font-family="Helvetica,sans-Serif" font-size="10.00">on_message_delete_bulk()</text>
<polygon fill="#666666" stroke="#666666" points="1868,-102 1868,-102 2002,-102 2002,-102 1868,-102"/>
<polygon fill="#666666" stroke="#666666" points="1868,-86 1868,-86 2002,-86 2002,-86 1868,-86"/>
<polygon fill="none" stroke="#666666" points="1868,-4 1868,-120 2002,-120 2002,-4 1868,-4"/>
</a>
</g>
</g>
<!-- Node1&#45;&gt;Node16 -->
<g id="edge15_Node000001_Node000016" class="edge">
<title>Node1&#45;&gt;Node16</title>
<g id="a_edge15_Node000001_Node000016"><a xlink:title=" ">
<path fill="none" stroke="#63b8ff" d="M1110.76,-199.59C1281.19,-195.24 1723.73,-178.85 1859,-124 1862.14,-122.73 1865.25,-121.28 1868.31,-119.7"/>
<polygon fill="none" stroke="#63b8ff" points="1110.87,-196.08 1100.96,-199.83 1111.04,-203.08 1110.87,-196.08"/>
</a>
</g>
</g>
<!-- Node17 -->
<g id="Node000017" class="node">
<title>Node17</title>
<g id="a_Node000017"><a xlink:href="classTextsCommand.html" target="_top" xlink:title=" ">
<polygon fill="white" stroke="none" points="2125.5,-96 2020.5,-96 2020.5,-28 2125.5,-28 2125.5,-96"/>
<text text-anchor="start" x="2038.5" y="-82.5" font-family="Helvetica,sans-Serif" font-size="10.00">TextsCommand</text>
<text text-anchor="start" x="2071.5" y="-66.5" font-family="Helvetica,sans-Serif" font-size="10.00"> </text>
<text text-anchor="start" x="2024.5" y="-50.5" font-family="Helvetica,sans-Serif" font-size="10.00">+</text>
<text text-anchor="start" x="2034.5" y="-50.5" font-family="Helvetica,sans-Serif" font-size="10.00">TextsCommand()</text>
<text text-anchor="start" x="2024.5" y="-34.5" font-family="Helvetica,sans-Serif" font-size="10.00">+</text>
<text text-anchor="start" x="2034.5" y="-34.5" font-family="Helvetica,sans-Serif" font-size="10.00">on_slashcommand()</text>
<polygon fill="#666666" stroke="#666666" points="2020.5,-78 2020.5,-78 2125.5,-78 2125.5,-78 2020.5,-78"/>
<polygon fill="#666666" stroke="#666666" points="2020.5,-62 2020.5,-62 2125.5,-62 2125.5,-62 2020.5,-62"/>
<polygon fill="none" stroke="#666666" points="2020.5,-28 2020.5,-96 2125.5,-96 2125.5,-28 2020.5,-28"/>
</a>
</g>
</g>
<!-- Node1&#45;&gt;Node17 -->
<g id="edge16_Node000001_Node000017" class="edge">
<title>Node1&#45;&gt;Node17</title>
<g id="a_edge16_Node000001_Node000017"><a xlink:title=" ">
<path fill="none" stroke="#63b8ff" d="M1110.71,-201.56C1303.24,-202.22 1850.19,-197.42 2011,-124 2025.01,-117.6 2037.7,-106.62 2047.9,-95.72"/>
<polygon fill="none" stroke="#63b8ff" points="1110.89,-198.06 1100.88,-201.52 1110.86,-205.06 1110.89,-198.06"/>
</a>
</g>
</g>
</g>
</svg>
