<?xml version="1.0" encoding="UTF-8" standalone="no"?>
<!DOCTYPE svg PUBLIC "-//W3C//DTD SVG 1.1//EN"
 "http://www.w3.org/Graphics/SVG/1.1/DTD/svg11.dtd">
<!-- Generated by graphviz version 9.0.0 (0)
 -->
<!-- Title: WelcomeChannelDTO Pages: 1 -->
<svg width="129pt" height="252pt"
 viewBox="0.00 0.00 129.00 252.00" xmlns="http://www.w3.org/2000/svg" xmlns:xlink="http://www.w3.org/1999/xlink">
<g id="graph0" class="graph" transform="scale(1 1) rotate(0) translate(4 248)">
<title>WelcomeChannelDTO</title>
<!-- Node1 -->
<g id="Node000001" class="node">
<title>Node1</title>
<g id="a_Node000001"><a xlink:title=" ">
<polygon fill="#999999" stroke="none" points="121,-132 0,-132 0,0 121,0 121,-132"/>
<text text-anchor="start" x="11.75" y="-118.5" font-family="Helvetica,sans-Serif" font-size="10.00">WelcomeChannelDTO</text>
<text text-anchor="start" x="59" y="-102.5" font-family="Helvetica,sans-Serif" font-size="10.00"> </text>
<text text-anchor="start" x="4" y="-86.5" font-family="Helvetica,sans-Serif" font-size="10.00">+</text>
<text text-anchor="start" x="14" y="-86.5" font-family="Helvetica,sans-Serif" font-size="10.00">WelcomeChannelDTO()</text>
<text text-anchor="start" x="4" y="-70.5" font-family="Helvetica,sans-Serif" font-size="10.00">+</text>
<text text-anchor="start" x="14" y="-70.5" font-family="Helvetica,sans-Serif" font-size="10.00">WelcomeChannelDTO()</text>
<text text-anchor="start" x="4" y="-54.5" font-family="Helvetica,sans-Serif" font-size="10.00">+</text>
<text text-anchor="start" x="14" y="-54.5" font-family="Helvetica,sans-Serif" font-size="10.00">WelcomeChannelDTO()</text>
<text text-anchor="start" x="4" y="-38.5" font-family="Helvetica,sans-Serif" font-size="10.00">+</text>
<text text-anchor="start" x="14" y="-38.5" font-family="Helvetica,sans-Serif" font-size="10.00">WelcomeChannelDTO()</text>
<text text-anchor="start" x="4" y="-22.5" font-family="Helvetica,sans-Serif" font-size="10.00">+</text>
<text text-anchor="start" x="14" y="-22.5" font-family="Helvetica,sans-Serif" font-size="10.00">WelcomeChannelDTO()</text>
<text text-anchor="start" x="4" y="-6.5" font-family="Helvetica,sans-Serif" font-size="10.00">+</text>
<text text-anchor="start" x="14" y="-6.5" font-family="Helvetica,sans-Serif" font-size="10.00">WelcomeChannelDTO()</text>
<polygon fill="#666666" stroke="#666666" points="0,-114 0,-114 121,-114 121,-114 0,-114"/>
<polygon fill="#666666" stroke="#666666" points="0,-98 0,-98 121,-98 121,-98 0,-98"/>
<polygon fill="none" stroke="#666666" points="0,0 0,-132 121,-132 121,0 0,0"/>
</a>
</g>
</g>
<!-- Node2 -->
<g id="Node000002" class="node">
<title>Node2</title>
<g id="a_Node000002"><a xlink:title=" ">
<polygon fill="white" stroke="none" points="78.5,-244 42.5,-244 42.5,-192 78.5,-192 78.5,-244"/>
<text text-anchor="start" x="47.38" y="-230.5" font-family="Helvetica,sans-Serif" font-size="10.00">size_t</text>
<text text-anchor="start" x="59" y="-214.5" font-family="Helvetica,sans-Serif" font-size="10.00"> </text>
<text text-anchor="start" x="59" y="-198.5" font-family="Helvetica,sans-Serif" font-size="10.00"> </text>
<polygon fill="#666666" stroke="#666666" points="42.5,-226 42.5,-226 78.5,-226 78.5,-226 42.5,-226"/>
<polygon fill="#666666" stroke="#666666" points="42.5,-210 42.5,-210 78.5,-210 78.5,-210 42.5,-210"/>
<polygon fill="none" stroke="#666666" points="42.5,-192 42.5,-244 78.5,-244 78.5,-192 42.5,-192"/>
</a>
</g>
</g>
<!-- Node2&#45;&gt;Node1 -->
<g id="edge1_Node000001_Node000002" class="edge">
<title>Node2&#45;&gt;Node1</title>
<g id="a_edge1_Node000001_Node000002"><a xlink:title=" ">
<path fill="none" stroke="#63b8ff" d="M60.5,-192.23C60.5,-179.04 60.5,-162.01 60.5,-144.78"/>
<polygon fill="none" stroke="#63b8ff" points="60.5,-144.84 56.5,-138.84 60.5,-132.84 64.5,-138.84 60.5,-144.84"/>
</a>
</g>
<text text-anchor="middle" x="88.25" y="-164.5" font-family="Helvetica,sans-Serif" font-size="10.00" fill="grey"> +channel_id</text>
<text text-anchor="middle" x="88.25" y="-152.5" font-family="Helvetica,sans-Serif" font-size="10.00" fill="grey">+guild_id</text>
</g>
</g>
</svg>
