<?xml version="1.0" encoding="UTF-8" standalone="no"?>
<!DOCTYPE svg PUBLIC "-//W3C//DTD SVG 1.1//EN"
 "http://www.w3.org/Graphics/SVG/1.1/DTD/svg11.dtd">
<!-- Generated by graphviz version 9.0.0 (0)
 -->
<!-- Title: UserDTO Pages: 1 -->
<svg width="157pt" height="216pt"
 viewBox="0.00 0.00 157.00 216.00" xmlns="http://www.w3.org/2000/svg" xmlns:xlink="http://www.w3.org/1999/xlink">
<g id="graph0" class="graph" transform="scale(1 1) rotate(0) translate(4 212)">
<title>UserDTO</title>
<!-- Node1 -->
<g id="Node000001" class="node">
<title>Node1</title>
<g id="a_Node000001"><a xlink:title=" ">
<polygon fill="#999999" stroke="none" points="95,-84 29,-84 29,0 95,0 95,-84"/>
<text text-anchor="start" x="41" y="-70.5" font-family="Helvetica,sans-Serif" font-size="10.00">UserDTO</text>
<text text-anchor="start" x="60.5" y="-54.5" font-family="Helvetica,sans-Serif" font-size="10.00"> </text>
<text text-anchor="start" x="33" y="-38.5" font-family="Helvetica,sans-Serif" font-size="10.00">+</text>
<text text-anchor="start" x="43" y="-38.5" font-family="Helvetica,sans-Serif" font-size="10.00">UserDTO()</text>
<text text-anchor="start" x="33" y="-22.5" font-family="Helvetica,sans-Serif" font-size="10.00">+</text>
<text text-anchor="start" x="43" y="-22.5" font-family="Helvetica,sans-Serif" font-size="10.00">UserDTO()</text>
<text text-anchor="start" x="33" y="-6.5" font-family="Helvetica,sans-Serif" font-size="10.00">+</text>
<text text-anchor="start" x="43" y="-6.5" font-family="Helvetica,sans-Serif" font-size="10.00">UserDTO()</text>
<polygon fill="#666666" stroke="#666666" points="29,-66 29,-66 95,-66 95,-66 29,-66"/>
<polygon fill="#666666" stroke="#666666" points="29,-50 29,-50 95,-50 95,-50 29,-50"/>
<polygon fill="none" stroke="#666666" points="29,0 29,-84 95,-84 95,0 29,0"/>
</a>
</g>
</g>
<!-- Node2 -->
<g id="Node000002" class="node">
<title>Node2</title>
<g id="a_Node000002"><a xlink:title=" ">
<polygon fill="white" stroke="none" points="36,-208 0,-208 0,-156 36,-156 36,-208"/>
<text text-anchor="start" x="4.88" y="-194.5" font-family="Helvetica,sans-Serif" font-size="10.00">size_t</text>
<text text-anchor="start" x="16.5" y="-178.5" font-family="Helvetica,sans-Serif" font-size="10.00"> </text>
<text text-anchor="start" x="16.5" y="-162.5" font-family="Helvetica,sans-Serif" font-size="10.00"> </text>
<polygon fill="#666666" stroke="#666666" points="0,-190 0,-190 36,-190 36,-190 0,-190"/>
<polygon fill="#666666" stroke="#666666" points="0,-174 0,-174 36,-174 36,-174 0,-174"/>
<polygon fill="none" stroke="#666666" points="0,-156 0,-208 36,-208 36,-156 0,-156"/>
</a>
</g>
</g>
<!-- Node2&#45;&gt;Node1 -->
<g id="edge1_Node000001_Node000002" class="edge">
<title>Node2&#45;&gt;Node1</title>
<g id="a_edge1_Node000001_Node000002"><a xlink:title=" ">
<path fill="none" stroke="#63b8ff" d="M14.51,-156.16C13.19,-140.27 13.2,-119.44 19,-102 20.09,-98.73 21.43,-95.49 22.96,-92.31"/>
<polygon fill="none" stroke="#63b8ff" points="22.92,-92.38 22.35,-85.19 28.76,-81.89 29.34,-89.08 22.92,-92.38"/>
</a>
</g>
<text text-anchor="middle" x="52" y="-128.5" font-family="Helvetica,sans-Serif" font-size="10.00" fill="grey"> +exp</text>
<text text-anchor="middle" x="52" y="-116.5" font-family="Helvetica,sans-Serif" font-size="10.00" fill="grey">+is_subscribed</text>
<text text-anchor="middle" x="52" y="-104.5" font-family="Helvetica,sans-Serif" font-size="10.00" fill="grey">+user_id</text>
</g>
<!-- Node3 -->
<g id="Node000003" class="node">
<title>Node3</title>
<g id="a_Node000003"><a xlink:title=" ">
<polygon fill="white" stroke="none" points="124,-208 90,-208 90,-156 124,-156 124,-208"/>
<text text-anchor="start" x="95" y="-194.5" font-family="Helvetica,sans-Serif" font-size="10.00">string</text>
<text text-anchor="start" x="105.5" y="-178.5" font-family="Helvetica,sans-Serif" font-size="10.00"> </text>
<text text-anchor="start" x="105.5" y="-162.5" font-family="Helvetica,sans-Serif" font-size="10.00"> </text>
<polygon fill="#666666" stroke="#666666" points="90,-190 90,-190 124,-190 124,-190 90,-190"/>
<polygon fill="#666666" stroke="#666666" points="90,-174 90,-174 124,-174 124,-174 90,-174"/>
<polygon fill="none" stroke="#666666" points="90,-156 90,-208 124,-208 124,-156 90,-156"/>
</a>
</g>
</g>
<!-- Node3&#45;&gt;Node1 -->
<g id="edge2_Node000001_Node000003" class="edge">
<title>Node3&#45;&gt;Node1</title>
<g id="a_edge2_Node000001_Node000003"><a xlink:title=" ">
<path fill="none" stroke="#63b8ff" d="M100.79,-156.25C96.69,-140.59 90.99,-119.96 85,-102 84.32,-99.96 83.61,-97.88 82.87,-95.79"/>
<polygon fill="none" stroke="#63b8ff" points="82.91,-95.87 77.1,-91.6 78.8,-84.6 84.61,-88.87 82.91,-95.87"/>
</a>
</g>
<text text-anchor="middle" x="122" y="-122.5" font-family="Helvetica,sans-Serif" font-size="10.00" fill="grey"> +color</text>
<text text-anchor="middle" x="122" y="-110.5" font-family="Helvetica,sans-Serif" font-size="10.00" fill="grey">+user_name</text>
</g>
</g>
</svg>
