<?xml version="1.0" encoding="UTF-8" standalone="no"?>
<!DOCTYPE svg PUBLIC "-//W3C//DTD SVG 1.1//EN"
 "http://www.w3.org/Graphics/SVG/1.1/DTD/svg11.dtd">
<!-- Generated by graphviz version 13.0.1 (0)
 -->
<!-- Title: UserDTO Pages: 1 -->
<svg width="171pt" height="230pt"
 viewBox="0.00 0.00 171.00 230.00" xmlns="http://www.w3.org/2000/svg" xmlns:xlink="http://www.w3.org/1999/xlink">
<g id="graph0" class="graph" transform="scale(1 1) rotate(0) translate(4 226)">
<title>UserDTO</title>
<!-- Node1 -->
<g id="Node000001" class="node">
<title>Node1</title>
<g id="a_Node000001"><a xlink:title=" ">
<polygon fill="#999999" stroke="none" points="97.12,-84 31.12,-84 31.12,0 97.12,0 97.12,-84"/>
<text xml:space="preserve" text-anchor="start" x="43.12" y="-70.5" font-family="Helvetica,sans-Serif" font-size="10.00">UserDTO</text>
<text xml:space="preserve" text-anchor="start" x="62.62" y="-54.5" font-family="Helvetica,sans-Serif" font-size="10.00"> </text>
<text xml:space="preserve" text-anchor="start" x="35.12" y="-38.5" font-family="Helvetica,sans-Serif" font-size="10.00">+</text>
<text xml:space="preserve" text-anchor="start" x="45.12" y="-38.5" font-family="Helvetica,sans-Serif" font-size="10.00">UserDTO()</text>
<text xml:space="preserve" text-anchor="start" x="35.12" y="-22.5" font-family="Helvetica,sans-Serif" font-size="10.00">+</text>
<text xml:space="preserve" text-anchor="start" x="45.12" y="-22.5" font-family="Helvetica,sans-Serif" font-size="10.00">UserDTO()</text>
<text xml:space="preserve" text-anchor="start" x="35.12" y="-6.5" font-family="Helvetica,sans-Serif" font-size="10.00">+</text>
<text xml:space="preserve" text-anchor="start" x="45.12" y="-6.5" font-family="Helvetica,sans-Serif" font-size="10.00">UserDTO()</text>
<polygon fill="#666666" stroke="#666666" points="31.12,-66 31.12,-66 97.12,-66 97.12,-66 31.12,-66"/>
<polygon fill="#666666" stroke="#666666" points="31.12,-50 31.12,-50 97.12,-50 97.12,-50 31.12,-50"/>
<polygon fill="none" stroke="#666666" points="31.12,0 31.12,-84 97.12,-84 97.12,0 31.12,0"/>
</a>
</g>
</g>
<!-- Node2 -->
<g id="Node000002" class="node">
<title>Node2</title>
<g id="a_Node000002"><a xlink:title=" ">
<polygon fill="white" stroke="none" points="34.25,-222 0,-222 0,-170 34.25,-170 34.25,-222"/>
<text xml:space="preserve" text-anchor="start" x="4" y="-208.5" font-family="Helvetica,sans-Serif" font-size="10.00">size_t</text>
<text xml:space="preserve" text-anchor="start" x="15.62" y="-192.5" font-family="Helvetica,sans-Serif" font-size="10.00"> </text>
<text xml:space="preserve" text-anchor="start" x="15.62" y="-176.5" font-family="Helvetica,sans-Serif" font-size="10.00"> </text>
<polygon fill="#666666" stroke="#666666" points="0,-204 0,-204 34.25,-204 34.25,-204 0,-204"/>
<polygon fill="#666666" stroke="#666666" points="0,-188 0,-188 34.25,-188 34.25,-188 0,-188"/>
<polygon fill="none" stroke="#666666" points="0,-170 0,-222 34.25,-222 34.25,-170 0,-170"/>
</a>
</g>
</g>
<!-- Node2&#45;&gt;Node1 -->
<g id="edge1_Node000001_Node000002" class="edge">
<title>Node2&#45;&gt;Node1</title>
<g id="a_edge1_Node000001_Node000002"><a xlink:title=" ">
<path fill="none" stroke="#63b8ff" d="M13.17,-170.17C11.1,-151 10.39,-124.1 18.12,-102 19.77,-97.31 21.95,-92.7 24.47,-88.25"/>
<polygon fill="none" stroke="#63b8ff" points="24.34,-88.44 24.22,-81.23 30.83,-78.35 30.95,-85.56 24.34,-88.44"/>
</a>
</g>
<text xml:space="preserve" text-anchor="start" x="21.12" y="-139.5" font-family="Helvetica,sans-Serif" font-size="10.00" fill="grey">+exp</text>
<text xml:space="preserve" text-anchor="start" x="21.12" y="-123.5" font-family="Helvetica,sans-Serif" font-size="10.00" fill="grey">+is_subscribed</text>
<text xml:space="preserve" text-anchor="start" x="21.12" y="-107.5" font-family="Helvetica,sans-Serif" font-size="10.00" fill="grey">+user_id</text>
</g>
<!-- Node3 -->
<g id="Node000003" class="node">
<title>Node3</title>
<g id="a_Node000003"><a xlink:title=" ">
<polygon fill="white" stroke="none" points="128.12,-222 96.12,-222 96.12,-170 128.12,-170 128.12,-222"/>
<text xml:space="preserve" text-anchor="start" x="100.12" y="-208.5" font-family="Helvetica,sans-Serif" font-size="10.00">string</text>
<text xml:space="preserve" text-anchor="start" x="110.62" y="-192.5" font-family="Helvetica,sans-Serif" font-size="10.00"> </text>
<text xml:space="preserve" text-anchor="start" x="110.62" y="-176.5" font-family="Helvetica,sans-Serif" font-size="10.00"> </text>
<polygon fill="#666666" stroke="#666666" points="96.12,-204 96.12,-204 128.12,-204 128.12,-204 96.12,-204"/>
<polygon fill="#666666" stroke="#666666" points="96.12,-188 96.12,-188 128.12,-188 128.12,-188 96.12,-188"/>
<polygon fill="none" stroke="#666666" points="96.12,-170 96.12,-222 128.12,-222 128.12,-170 96.12,-170"/>
</a>
</g>
</g>
<!-- Node3&#45;&gt;Node1 -->
<g id="edge2_Node000001_Node000003" class="edge">
<title>Node3&#45;&gt;Node1</title>
<g id="a_edge2_Node000001_Node000003"><a xlink:title=" ">
<path fill="none" stroke="#63b8ff" d="M107.54,-170.18C103.74,-151.25 97.72,-124.65 90.12,-102 89.44,-99.96 88.71,-97.89 87.95,-95.81"/>
<polygon fill="none" stroke="#63b8ff" points="87.98,-95.9 82.07,-91.77 83.61,-84.72 89.52,-88.86 87.98,-95.9"/>
</a>
</g>
<text xml:space="preserve" text-anchor="start" x="106.16" y="-131.5" font-family="Helvetica,sans-Serif" font-size="10.00" fill="grey">+color</text>
<text xml:space="preserve" text-anchor="start" x="106.16" y="-115.5" font-family="Helvetica,sans-Serif" font-size="10.00" fill="grey">+user_name</text>
</g>
</g>
</svg>
