<?xml version="1.0" encoding="UTF-8" standalone="no"?>
<!DOCTYPE svg PUBLIC "-//W3C//DTD SVG 1.1//EN"
 "http://www.w3.org/Graphics/SVG/1.1/DTD/svg11.dtd">
<!-- Generated by graphviz version 14.1.5 (0)
 -->
<!-- Title: IRepository&lt; DTO &gt; Pages: 1 -->
<svg width="244pt" height="208pt"
 viewBox="0.00 0.00 244.00 208.00" xmlns="http://www.w3.org/2000/svg" xmlns:xlink="http://www.w3.org/1999/xlink">
<g id="graph0" class="graph" transform="scale(1 1) rotate(0) translate(4 204)">
<title>IRepository&lt; DTO &gt;</title>
<!-- Node1 -->
<g id="Node000001" class="node">
<title>Node1</title>
<g id="a_Node000001"><a xlink:title=" ">
<polygon fill="#999999" stroke="none" points="167.5,-52 70.25,-52 70.25,0 167.5,0 167.5,-52"/>
<text xml:space="preserve" text-anchor="start" x="74.25" y="-38.25" font-family="Helvetica,sans-Serif" font-size="10.00">IRepository&lt; DTO &gt;</text>
<text xml:space="preserve" text-anchor="start" x="117.38" y="-22.25" font-family="Helvetica,sans-Serif" font-size="10.00"> </text>
<text xml:space="preserve" text-anchor="start" x="117.38" y="-6.25" font-family="Helvetica,sans-Serif" font-size="10.00"> </text>
<polygon fill="#666666" stroke="#666666" points="70.25,-34 70.25,-34 167.5,-34 167.5,-34 70.25,-34"/>
<polygon fill="#666666" stroke="#666666" points="70.25,-18 70.25,-18 167.5,-18 167.5,-18 70.25,-18"/>
<polygon fill="none" stroke="#666666" points="70.25,0 70.25,-52 167.5,-52 167.5,0 70.25,0"/>
</a>
</g>
</g>
<!-- Node2 -->
<g id="Node000002" class="node">
<title>Node2</title>
<g id="a_Node000002"><a xlink:href="classIRepositoryReader.html" target="_top" xlink:title=" ">
<polygon fill="white" stroke="none" points="111.75,-184 0,-184 0,-104 111.75,-104 111.75,-184"/>
<text xml:space="preserve" text-anchor="start" x="12" y="-170.25" font-family="Helvetica,sans-Serif" font-size="10.00">IRepositoryReader&lt;</text>
<text xml:space="preserve" text-anchor="start" x="39.38" y="-158.25" font-family="Helvetica,sans-Serif" font-size="10.00"> DTO &gt;</text>
<text xml:space="preserve" text-anchor="start" x="54.38" y="-142.25" font-family="Helvetica,sans-Serif" font-size="10.00"> </text>
<text xml:space="preserve" text-anchor="start" x="4" y="-126.25" font-family="Helvetica,sans-Serif" font-size="10.00">+</text>
<text xml:space="preserve" text-anchor="start" x="14" y="-126.25" font-family="Helvetica,sans-Serif" font-size="10.00">~IRepositoryReader()</text>
<text xml:space="preserve" text-anchor="start" x="4" y="-110.25" font-family="Helvetica,sans-Serif" font-size="10.00">+</text>
<text xml:space="preserve" text-anchor="start" x="14" y="-110.25" font-family="Helvetica,sans-Serif" font-size="10.00">get()</text>
<polygon fill="#666666" stroke="#666666" points="0,-154 0,-154 111.75,-154 111.75,-154 0,-154"/>
<polygon fill="#666666" stroke="#666666" points="0,-138 0,-138 111.75,-138 111.75,-138 0,-138"/>
<polygon fill="none" stroke="#666666" points="0,-104 0,-184 111.75,-184 111.75,-104 0,-104"/>
</a>
</g>
</g>
<!-- Node2&#45;&gt;Node1 -->
<g id="edge1_Node000001_Node000002" class="edge">
<title>Node2&#45;&gt;Node1</title>
<g id="a_edge1_Node000001_Node000002"><a xlink:title=" ">
<path fill="none" stroke="#63b8ff" d="M82.42,-94.13C90.33,-79.55 98.68,-64.18 105.39,-51.84"/>
<polygon fill="none" stroke="#63b8ff" points="79.45,-92.26 77.75,-102.72 85.6,-95.6 79.45,-92.26"/>
</a>
</g>
</g>
<!-- Node3 -->
<g id="Node000003" class="node">
<title>Node3</title>
<g id="a_Node000003"><a xlink:href="classIRepositoryWriter.html" target="_top" xlink:title=" ">
<polygon fill="white" stroke="none" points="235.75,-200 130,-200 130,-88 235.75,-88 235.75,-200"/>
<text xml:space="preserve" text-anchor="start" x="142" y="-186.25" font-family="Helvetica,sans-Serif" font-size="10.00">IRepositoryWriter&lt;</text>
<text xml:space="preserve" text-anchor="start" x="166.38" y="-174.25" font-family="Helvetica,sans-Serif" font-size="10.00"> DTO &gt;</text>
<text xml:space="preserve" text-anchor="start" x="181.38" y="-158.25" font-family="Helvetica,sans-Serif" font-size="10.00"> </text>
<text xml:space="preserve" text-anchor="start" x="134" y="-142.25" font-family="Helvetica,sans-Serif" font-size="10.00">+</text>
<text xml:space="preserve" text-anchor="start" x="144" y="-142.25" font-family="Helvetica,sans-Serif" font-size="10.00">~IRepositoryWriter()</text>
<text xml:space="preserve" text-anchor="start" x="134" y="-126.25" font-family="Helvetica,sans-Serif" font-size="10.00">+</text>
<text xml:space="preserve" text-anchor="start" x="144" y="-126.25" font-family="Helvetica,sans-Serif" font-size="10.00">create()</text>
<text xml:space="preserve" text-anchor="start" x="134" y="-110.25" font-family="Helvetica,sans-Serif" font-size="10.00">+</text>
<text xml:space="preserve" text-anchor="start" x="144" y="-110.25" font-family="Helvetica,sans-Serif" font-size="10.00">remove()</text>
<text xml:space="preserve" text-anchor="start" x="134" y="-94.25" font-family="Helvetica,sans-Serif" font-size="10.00">+</text>
<text xml:space="preserve" text-anchor="start" x="144" y="-94.25" font-family="Helvetica,sans-Serif" font-size="10.00">update()</text>
<polygon fill="#666666" stroke="#666666" points="130,-170 130,-170 235.75,-170 235.75,-170 130,-170"/>
<polygon fill="#666666" stroke="#666666" points="130,-154 130,-154 235.75,-154 235.75,-154 130,-154"/>
<polygon fill="none" stroke="#666666" points="130,-88 130,-200 235.75,-200 235.75,-88 130,-88"/>
</a>
</g>
</g>
<!-- Node3&#45;&gt;Node1 -->
<g id="edge2_Node000001_Node000003" class="edge">
<title>Node3&#45;&gt;Node1</title>
<g id="a_edge2_Node000001_Node000003"><a xlink:title=" ">
<path fill="none" stroke="#63b8ff" d="M147,-77.98C141.91,-68.74 136.94,-59.74 132.64,-51.94"/>
<polygon fill="none" stroke="#63b8ff" points="143.94,-79.67 151.83,-86.73 150.06,-76.29 143.94,-79.67"/>
</a>
</g>
</g>
</g>
</svg>
