<?xml version="1.0" encoding="UTF-8" standalone="no"?>
<!DOCTYPE svg PUBLIC "-//W3C//DTD SVG 1.1//EN"
 "http://www.w3.org/Graphics/SVG/1.1/DTD/svg11.dtd">
<!-- Generated by graphviz version 12.2.1 (0)
 -->
<!-- Title: IGlobalSlashCommand Pages: 1 -->
<svg width="2736pt" height="300pt"
 viewBox="0.00 0.00 2735.62 300.00" xmlns="http://www.w3.org/2000/svg" xmlns:xlink="http://www.w3.org/1999/xlink">
<g id="graph0" class="graph" transform="scale(1 1) rotate(0) translate(4 296)">
<title>IGlobalSlashCommand</title>
<!-- Node1 -->
<g id="Node000001" class="node">
<title>Node1</title>
<g id="a_Node000001"><a xlink:title=" ">
<polygon fill="#999999" stroke="none" points="1408.38,-292 1295.12,-292 1295.12,-208 1408.38,-208 1408.38,-292"/>
<text text-anchor="start" x="1301.5" y="-278.5" font-family="Helvetica,sans-Serif" font-size="10.00">IGlobalSlashCommand</text>
<text text-anchor="start" x="1299.12" y="-262.5" font-family="Helvetica,sans-Serif" font-size="10.00">+</text>
<text text-anchor="start" x="1309.12" y="-262.5" font-family="Helvetica,sans-Serif" font-size="10.00">command_name</text>
<text text-anchor="start" x="1299.12" y="-246.5" font-family="Helvetica,sans-Serif" font-size="10.00">+</text>
<text text-anchor="start" x="1309.12" y="-246.5" font-family="Helvetica,sans-Serif" font-size="10.00">command_description</text>
<text text-anchor="start" x="1299.12" y="-230.5" font-family="Helvetica,sans-Serif" font-size="10.00">+</text>
<text text-anchor="start" x="1309.12" y="-230.5" font-family="Helvetica,sans-Serif" font-size="10.00">command_options</text>
<text text-anchor="start" x="1299.12" y="-214.5" font-family="Helvetica,sans-Serif" font-size="10.00">+</text>
<text text-anchor="start" x="1309.12" y="-214.5" font-family="Helvetica,sans-Serif" font-size="10.00">on_slashcommand()</text>
<polygon fill="#666666" stroke="#666666" points="1295.12,-274 1295.12,-274 1408.38,-274 1408.38,-274 1295.12,-274"/>
<polygon fill="#666666" stroke="#666666" points="1295.12,-226 1295.12,-226 1307.12,-226 1307.12,-226 1295.12,-226"/>
<polygon fill="#666666" stroke="#666666" points="1307.12,-226 1307.12,-226 1408.38,-226 1408.38,-226 1307.12,-226"/>
<polygon fill="none" stroke="#666666" points="1295.12,-208 1295.12,-292 1408.38,-292 1408.38,-208 1295.12,-208"/>
</a>
</g>
</g>
<!-- Node2 -->
<g id="Node000002" class="node">
<title>Node2</title>
<g id="a_Node000002"><a xlink:href="classAddResourcesCommand.html" target="_top" xlink:title=" ">
<polygon fill="white" stroke="none" points="133.5,-120 0,-120 0,-52 133.5,-52 133.5,-120"/>
<text text-anchor="start" x="12" y="-106.5" font-family="Helvetica,sans-Serif" font-size="10.00">AddResourcesCommand</text>
<text text-anchor="start" x="65.25" y="-90.5" font-family="Helvetica,sans-Serif" font-size="10.00"> </text>
<text text-anchor="start" x="4" y="-74.5" font-family="Helvetica,sans-Serif" font-size="10.00">+</text>
<text text-anchor="start" x="14" y="-74.5" font-family="Helvetica,sans-Serif" font-size="10.00">AddResourcesCommand()</text>
<text text-anchor="start" x="4" y="-58.5" font-family="Helvetica,sans-Serif" font-size="10.00">+</text>
<text text-anchor="start" x="14" y="-58.5" font-family="Helvetica,sans-Serif" font-size="10.00">on_slashcommand()</text>
<polygon fill="#666666" stroke="#666666" points="0,-102 0,-102 133.5,-102 133.5,-102 0,-102"/>
<polygon fill="#666666" stroke="#666666" points="0,-86 0,-86 133.5,-86 133.5,-86 0,-86"/>
<polygon fill="none" stroke="#666666" points="0,-52 0,-120 133.5,-120 133.5,-52 0,-52"/>
</a>
</g>
</g>
<!-- Node1&#45;&gt;Node2 -->
<g id="edge1_Node000001_Node000002" class="edge">
<title>Node1&#45;&gt;Node2</title>
<g id="a_edge1_Node000001_Node000002"><a xlink:title=" ">
<path fill="none" stroke="#63b8ff" d="M1283.91,-247.67C1044.13,-242.56 245.46,-221.92 142.75,-172 119.43,-160.66 100.07,-138.67 86.73,-119.9"/>
<polygon fill="none" stroke="#63b8ff" points="1283.65,-251.16 1293.72,-247.88 1283.8,-244.17 1283.65,-251.16"/>
</a>
</g>
</g>
<!-- Node3 -->
<g id="Node000003" class="node">
<title>Node3</title>
<g id="a_Node000003"><a xlink:href="classBlacklistCommand.html" target="_top" xlink:title=" ">
<polygon fill="white" stroke="none" points="258,-120 151.5,-120 151.5,-52 258,-52 258,-120"/>
<text text-anchor="start" x="163.5" y="-106.5" font-family="Helvetica,sans-Serif" font-size="10.00">BlacklistCommand</text>
<text text-anchor="start" x="203.25" y="-90.5" font-family="Helvetica,sans-Serif" font-size="10.00"> </text>
<text text-anchor="start" x="155.5" y="-74.5" font-family="Helvetica,sans-Serif" font-size="10.00">+</text>
<text text-anchor="start" x="165.5" y="-74.5" font-family="Helvetica,sans-Serif" font-size="10.00">BlacklistCommand()</text>
<text text-anchor="start" x="155.5" y="-58.5" font-family="Helvetica,sans-Serif" font-size="10.00">+</text>
<text text-anchor="start" x="165.5" y="-58.5" font-family="Helvetica,sans-Serif" font-size="10.00">on_slashcommand()</text>
<polygon fill="#666666" stroke="#666666" points="151.5,-102 151.5,-102 258,-102 258,-102 151.5,-102"/>
<polygon fill="#666666" stroke="#666666" points="151.5,-86 151.5,-86 258,-86 258,-86 151.5,-86"/>
<polygon fill="none" stroke="#666666" points="151.5,-52 151.5,-120 258,-120 258,-52 151.5,-52"/>
</a>
</g>
</g>
<!-- Node1&#45;&gt;Node3 -->
<g id="edge2_Node000001_Node000003" class="edge">
<title>Node1&#45;&gt;Node3</title>
<g id="a_edge2_Node000001_Node000003"><a xlink:title=" ">
<path fill="none" stroke="#63b8ff" d="M1284.04,-247.49C1060.56,-242.06 355.55,-221.17 266.75,-172 245.82,-160.41 230.07,-138.42 219.69,-119.72"/>
<polygon fill="none" stroke="#63b8ff" points="1283.66,-250.98 1293.74,-247.73 1283.83,-243.99 1283.66,-250.98"/>
</a>
</g>
</g>
<!-- Node4 -->
<g id="Node000004" class="node">
<title>Node4</title>
<g id="a_Node000004"><a xlink:href="classChallengeBadgeCommand.html" target="_top" xlink:title=" ">
<polygon fill="white" stroke="none" points="415.88,-136 275.62,-136 275.62,-36 415.88,-36 415.88,-136"/>
<text text-anchor="start" x="287.62" y="-122.5" font-family="Helvetica,sans-Serif" font-size="10.00">ChallengeBadgeCommand</text>
<text text-anchor="start" x="344.25" y="-106.5" font-family="Helvetica,sans-Serif" font-size="10.00"> </text>
<text text-anchor="start" x="279.62" y="-90.5" font-family="Helvetica,sans-Serif" font-size="10.00">+</text>
<text text-anchor="start" x="289.62" y="-90.5" font-family="Helvetica,sans-Serif" font-size="10.00">ChallengeBadgeCommand()</text>
<text text-anchor="start" x="279.62" y="-74.5" font-family="Helvetica,sans-Serif" font-size="10.00">+</text>
<text text-anchor="start" x="289.62" y="-74.5" font-family="Helvetica,sans-Serif" font-size="10.00">on_slashcommand()</text>
<text text-anchor="start" x="279.62" y="-58.5" font-family="Helvetica,sans-Serif" font-size="10.00">+</text>
<text text-anchor="start" x="289.62" y="-58.5" font-family="Helvetica,sans-Serif" font-size="10.00">on_button_click()</text>
<text text-anchor="start" x="279.62" y="-42.5" font-family="Helvetica,sans-Serif" font-size="10.00">+</text>
<text text-anchor="start" x="289.62" y="-42.5" font-family="Helvetica,sans-Serif" font-size="10.00">on_form_submit()</text>
<polygon fill="#666666" stroke="#666666" points="275.62,-118 275.62,-118 415.88,-118 415.88,-118 275.62,-118"/>
<polygon fill="#666666" stroke="#666666" points="275.62,-102 275.62,-102 415.88,-102 415.88,-102 275.62,-102"/>
<polygon fill="none" stroke="#666666" points="275.62,-36 275.62,-136 415.88,-136 415.88,-36 275.62,-36"/>
</a>
</g>
</g>
<!-- Node1&#45;&gt;Node4 -->
<g id="edge3_Node000001_Node000004" class="edge">
<title>Node1&#45;&gt;Node4</title>
<g id="a_edge3_Node000001_Node000004"><a xlink:title=" ">
<path fill="none" stroke="#63b8ff" d="M1283.94,-249.57C1096.87,-250.19 577.33,-245.09 425.75,-172 408.41,-163.64 392.92,-149.78 380.3,-135.65"/>
<polygon fill="none" stroke="#63b8ff" points="1283.75,-253.08 1293.73,-249.53 1283.72,-246.08 1283.75,-253.08"/>
</a>
</g>
</g>
<!-- Node5 -->
<g id="Node000005" class="node">
<title>Node5</title>
<g id="a_Node000005"><a xlink:href="classChallengeRoleCommand.html" target="_top" xlink:title=" ">
<polygon fill="white" stroke="none" points="567.12,-136 434.38,-136 434.38,-36 567.12,-36 567.12,-136"/>
<text text-anchor="start" x="446.38" y="-122.5" font-family="Helvetica,sans-Serif" font-size="10.00">ChallengeRoleCommand</text>
<text text-anchor="start" x="499.25" y="-106.5" font-family="Helvetica,sans-Serif" font-size="10.00"> </text>
<text text-anchor="start" x="438.38" y="-90.5" font-family="Helvetica,sans-Serif" font-size="10.00">+</text>
<text text-anchor="start" x="448.38" y="-90.5" font-family="Helvetica,sans-Serif" font-size="10.00">ChallengeRoleCommand()</text>
<text text-anchor="start" x="438.38" y="-74.5" font-family="Helvetica,sans-Serif" font-size="10.00">+</text>
<text text-anchor="start" x="448.38" y="-74.5" font-family="Helvetica,sans-Serif" font-size="10.00">on_slashcommand()</text>
<text text-anchor="start" x="438.38" y="-58.5" font-family="Helvetica,sans-Serif" font-size="10.00">+</text>
<text text-anchor="start" x="448.38" y="-58.5" font-family="Helvetica,sans-Serif" font-size="10.00">on_button_click()</text>
<text text-anchor="start" x="438.38" y="-42.5" font-family="Helvetica,sans-Serif" font-size="10.00">+</text>
<text text-anchor="start" x="448.38" y="-42.5" font-family="Helvetica,sans-Serif" font-size="10.00">on_form_submit()</text>
<polygon fill="#666666" stroke="#666666" points="434.38,-118 434.38,-118 567.12,-118 567.12,-118 434.38,-118"/>
<polygon fill="#666666" stroke="#666666" points="434.38,-102 434.38,-102 567.12,-102 567.12,-102 434.38,-102"/>
<polygon fill="none" stroke="#666666" points="434.38,-36 434.38,-136 567.12,-136 567.12,-36 434.38,-36"/>
</a>
</g>
</g>
<!-- Node1&#45;&gt;Node5 -->
<g id="edge4_Node000001_Node000005" class="edge">
<title>Node1&#45;&gt;Node5</title>
<g id="a_edge4_Node000001_Node000005"><a xlink:title=" ">
<path fill="none" stroke="#63b8ff" d="M1283.87,-248.55C1118.36,-246.47 698.64,-234.95 575.75,-172 559.28,-163.57 544.8,-149.87 533.06,-135.9"/>
<polygon fill="none" stroke="#63b8ff" points="1283.78,-252.05 1293.82,-248.67 1283.87,-245.05 1283.78,-252.05"/>
</a>
</g>
</g>
<!-- Node6 -->
<g id="Node000006" class="node">
<title>Node6</title>
<g id="a_Node000006"><a xlink:href="classClearCommand.html" target="_top" xlink:title=" ">
<polygon fill="white" stroke="none" points="690.62,-120 584.88,-120 584.88,-52 690.62,-52 690.62,-120"/>
<text text-anchor="start" x="603.62" y="-106.5" font-family="Helvetica,sans-Serif" font-size="10.00">ClearCommand</text>
<text text-anchor="start" x="636.25" y="-90.5" font-family="Helvetica,sans-Serif" font-size="10.00"> </text>
<text text-anchor="start" x="588.88" y="-74.5" font-family="Helvetica,sans-Serif" font-size="10.00">+</text>
<text text-anchor="start" x="598.88" y="-74.5" font-family="Helvetica,sans-Serif" font-size="10.00">ClearCommand()</text>
<text text-anchor="start" x="588.88" y="-58.5" font-family="Helvetica,sans-Serif" font-size="10.00">+</text>
<text text-anchor="start" x="598.88" y="-58.5" font-family="Helvetica,sans-Serif" font-size="10.00">on_slashcommand()</text>
<polygon fill="#666666" stroke="#666666" points="584.88,-102 584.88,-102 690.62,-102 690.62,-102 584.88,-102"/>
<polygon fill="#666666" stroke="#666666" points="584.88,-86 584.88,-86 690.62,-86 690.62,-86 584.88,-86"/>
<polygon fill="none" stroke="#666666" points="584.88,-52 584.88,-120 690.62,-120 690.62,-52 584.88,-52"/>
</a>
</g>
</g>
<!-- Node1&#45;&gt;Node6 -->
<g id="edge5_Node000001_Node000006" class="edge">
<title>Node1&#45;&gt;Node6</title>
<g id="a_edge5_Node000001_Node000006"><a xlink:title=" ">
<path fill="none" stroke="#63b8ff" d="M1283.7,-247.76C1137.28,-244.02 797.65,-229.24 699.75,-172 679.25,-160.01 663.58,-138.28 653.13,-119.79"/>
<polygon fill="none" stroke="#63b8ff" points="1283.57,-251.26 1293.65,-248 1283.74,-244.26 1283.57,-251.26"/>
</a>
</g>
</g>
<!-- Node7 -->
<g id="Node000007" class="node">
<title>Node7</title>
<g id="a_Node000007"><a xlink:href="classFlipCommand.html" target="_top" xlink:title=" ">
<polygon fill="white" stroke="none" points="814.62,-120 708.88,-120 708.88,-52 814.62,-52 814.62,-120"/>
<text text-anchor="start" x="731.38" y="-106.5" font-family="Helvetica,sans-Serif" font-size="10.00">FlipCommand</text>
<text text-anchor="start" x="760.25" y="-90.5" font-family="Helvetica,sans-Serif" font-size="10.00"> </text>
<text text-anchor="start" x="712.88" y="-74.5" font-family="Helvetica,sans-Serif" font-size="10.00">+</text>
<text text-anchor="start" x="722.88" y="-74.5" font-family="Helvetica,sans-Serif" font-size="10.00">FlipCommand()</text>
<text text-anchor="start" x="712.88" y="-58.5" font-family="Helvetica,sans-Serif" font-size="10.00">+</text>
<text text-anchor="start" x="722.88" y="-58.5" font-family="Helvetica,sans-Serif" font-size="10.00">on_slashcommand()</text>
<polygon fill="#666666" stroke="#666666" points="708.88,-102 708.88,-102 814.62,-102 814.62,-102 708.88,-102"/>
<polygon fill="#666666" stroke="#666666" points="708.88,-86 708.88,-86 814.62,-86 814.62,-86 708.88,-86"/>
<polygon fill="none" stroke="#666666" points="708.88,-52 708.88,-120 814.62,-120 814.62,-52 708.88,-52"/>
</a>
</g>
</g>
<!-- Node1&#45;&gt;Node7 -->
<g id="edge6_Node000001_Node000007" class="edge">
<title>Node1&#45;&gt;Node7</title>
<g id="a_edge6_Node000001_Node000007"><a xlink:title=" ">
<path fill="none" stroke="#63b8ff" d="M1284.01,-245.61C1159.5,-238.33 900,-217.99 823.75,-172 803.42,-159.74 787.75,-138.01 777.25,-119.59"/>
<polygon fill="none" stroke="#63b8ff" points="1283.57,-249.09 1293.76,-246.17 1283.97,-242.1 1283.57,-249.09"/>
</a>
</g>
</g>
<!-- Node8 -->
<g id="Node000008" class="node">
<title>Node8</title>
<g id="a_Node000008"><a xlink:href="classGetResourcesCommand.html" target="_top" xlink:title=" ">
<polygon fill="white" stroke="none" points="964.75,-120 832.75,-120 832.75,-52 964.75,-52 964.75,-120"/>
<text text-anchor="start" x="844.75" y="-106.5" font-family="Helvetica,sans-Serif" font-size="10.00">GetResourcesCommand</text>
<text text-anchor="start" x="897.25" y="-90.5" font-family="Helvetica,sans-Serif" font-size="10.00"> </text>
<text text-anchor="start" x="836.75" y="-74.5" font-family="Helvetica,sans-Serif" font-size="10.00">+</text>
<text text-anchor="start" x="846.75" y="-74.5" font-family="Helvetica,sans-Serif" font-size="10.00">GetResourcesCommand()</text>
<text text-anchor="start" x="836.75" y="-58.5" font-family="Helvetica,sans-Serif" font-size="10.00">+</text>
<text text-anchor="start" x="846.75" y="-58.5" font-family="Helvetica,sans-Serif" font-size="10.00">on_slashcommand()</text>
<polygon fill="#666666" stroke="#666666" points="832.75,-102 832.75,-102 964.75,-102 964.75,-102 832.75,-102"/>
<polygon fill="#666666" stroke="#666666" points="832.75,-86 832.75,-86 964.75,-86 964.75,-86 832.75,-86"/>
<polygon fill="none" stroke="#666666" points="832.75,-52 832.75,-120 964.75,-120 964.75,-52 832.75,-52"/>
</a>
</g>
</g>
<!-- Node1&#45;&gt;Node8 -->
<g id="edge7_Node000001_Node000008" class="edge">
<title>Node1&#45;&gt;Node8</title>
<g id="a_edge7_Node000001_Node000008"><a xlink:title=" ">
<path fill="none" stroke="#63b8ff" d="M1283.98,-247.98C1204.61,-244.02 1071.55,-228.57 973.75,-172 951.77,-159.29 932.9,-137.8 919.58,-119.62"/>
<polygon fill="none" stroke="#63b8ff" points="1283.63,-251.47 1293.78,-248.42 1283.95,-244.47 1283.63,-251.47"/>
</a>
</g>
</g>
<!-- Node9 -->
<g id="Node000009" class="node">
<title>Node9</title>
<g id="a_Node000009"><a xlink:href="classHelpCommand.html" target="_top" xlink:title=" ">
<polygon fill="white" stroke="none" points="1088.62,-120 982.88,-120 982.88,-52 1088.62,-52 1088.62,-120"/>
<text text-anchor="start" x="1003.12" y="-106.5" font-family="Helvetica,sans-Serif" font-size="10.00">HelpCommand</text>
<text text-anchor="start" x="1034.25" y="-90.5" font-family="Helvetica,sans-Serif" font-size="10.00"> </text>
<text text-anchor="start" x="986.88" y="-74.5" font-family="Helvetica,sans-Serif" font-size="10.00">+</text>
<text text-anchor="start" x="996.88" y="-74.5" font-family="Helvetica,sans-Serif" font-size="10.00">HelpCommand()</text>
<text text-anchor="start" x="986.88" y="-58.5" font-family="Helvetica,sans-Serif" font-size="10.00">+</text>
<text text-anchor="start" x="996.88" y="-58.5" font-family="Helvetica,sans-Serif" font-size="10.00">on_slashcommand()</text>
<polygon fill="#666666" stroke="#666666" points="982.88,-102 982.88,-102 1088.62,-102 1088.62,-102 982.88,-102"/>
<polygon fill="#666666" stroke="#666666" points="982.88,-86 982.88,-86 1088.62,-86 1088.62,-86 982.88,-86"/>
<polygon fill="none" stroke="#666666" points="982.88,-52 982.88,-120 1088.62,-120 1088.62,-52 982.88,-52"/>
</a>
</g>
</g>
<!-- Node1&#45;&gt;Node9 -->
<g id="edge8_Node000001_Node000009" class="edge">
<title>Node1&#45;&gt;Node9</title>
<g id="a_edge8_Node000001_Node000009"><a xlink:title=" ">
<path fill="none" stroke="#63b8ff" d="M1283.93,-240.53C1229.53,-231.04 1153.34,-211.48 1097.75,-172 1078.84,-158.57 1063.43,-137.55 1052.71,-119.77"/>
<polygon fill="none" stroke="#63b8ff" points="1283.26,-243.96 1293.7,-242.15 1284.41,-237.06 1283.26,-243.96"/>
</a>
</g>
</g>
<!-- Node10 -->
<g id="Node000010" class="node">
<title>Node10</title>
<g id="a_Node000010"><a xlink:href="classInviteCommand.html" target="_top" xlink:title=" ">
<polygon fill="white" stroke="none" points="1212.62,-120 1106.88,-120 1106.88,-52 1212.62,-52 1212.62,-120"/>
<text text-anchor="start" x="1125.25" y="-106.5" font-family="Helvetica,sans-Serif" font-size="10.00">InviteCommand</text>
<text text-anchor="start" x="1158.25" y="-90.5" font-family="Helvetica,sans-Serif" font-size="10.00"> </text>
<text text-anchor="start" x="1110.88" y="-74.5" font-family="Helvetica,sans-Serif" font-size="10.00">+</text>
<text text-anchor="start" x="1120.88" y="-74.5" font-family="Helvetica,sans-Serif" font-size="10.00">InviteCommand()</text>
<text text-anchor="start" x="1110.88" y="-58.5" font-family="Helvetica,sans-Serif" font-size="10.00">+</text>
<text text-anchor="start" x="1120.88" y="-58.5" font-family="Helvetica,sans-Serif" font-size="10.00">on_slashcommand()</text>
<polygon fill="#666666" stroke="#666666" points="1106.88,-102 1106.88,-102 1212.62,-102 1212.62,-102 1106.88,-102"/>
<polygon fill="#666666" stroke="#666666" points="1106.88,-86 1106.88,-86 1212.62,-86 1212.62,-86 1106.88,-86"/>
<polygon fill="none" stroke="#666666" points="1106.88,-52 1106.88,-120 1212.62,-120 1212.62,-52 1106.88,-52"/>
</a>
</g>
</g>
<!-- Node1&#45;&gt;Node10 -->
<g id="edge9_Node000001_Node000010" class="edge">
<title>Node1&#45;&gt;Node10</title>
<g id="a_edge9_Node000001_Node000010"><a xlink:title=" ">
<path fill="none" stroke="#63b8ff" d="M1285.47,-216.64C1263.86,-204.35 1240.6,-189.14 1221.75,-172 1205.12,-156.89 1190.16,-136.68 1179.1,-119.75"/>
<polygon fill="none" stroke="#63b8ff" points="1283.5,-219.55 1293.94,-221.34 1286.9,-213.43 1283.5,-219.55"/>
</a>
</g>
</g>
<!-- Node11 -->
<g id="Node000011" class="node">
<title>Node11</title>
<g id="a_Node000011"><a xlink:href="classLearnCPPCommand.html" target="_top" xlink:title=" ">
<polygon fill="white" stroke="none" points="1344.75,-120 1230.75,-120 1230.75,-52 1344.75,-52 1344.75,-120"/>
<text text-anchor="start" x="1242.75" y="-106.5" font-family="Helvetica,sans-Serif" font-size="10.00">LearnCPPCommand</text>
<text text-anchor="start" x="1286.25" y="-90.5" font-family="Helvetica,sans-Serif" font-size="10.00"> </text>
<text text-anchor="start" x="1234.75" y="-74.5" font-family="Helvetica,sans-Serif" font-size="10.00">+</text>
<text text-anchor="start" x="1244.75" y="-74.5" font-family="Helvetica,sans-Serif" font-size="10.00">LearnCPPCommand()</text>
<text text-anchor="start" x="1234.75" y="-58.5" font-family="Helvetica,sans-Serif" font-size="10.00">+</text>
<text text-anchor="start" x="1244.75" y="-58.5" font-family="Helvetica,sans-Serif" font-size="10.00">on_slashcommand()</text>
<polygon fill="#666666" stroke="#666666" points="1230.75,-102 1230.75,-102 1344.75,-102 1344.75,-102 1230.75,-102"/>
<polygon fill="#666666" stroke="#666666" points="1230.75,-86 1230.75,-86 1344.75,-86 1344.75,-86 1230.75,-86"/>
<polygon fill="none" stroke="#666666" points="1230.75,-52 1230.75,-120 1344.75,-120 1344.75,-52 1230.75,-52"/>
</a>
</g>
</g>
<!-- Node1&#45;&gt;Node11 -->
<g id="edge10_Node000001_Node000011" class="edge">
<title>Node1&#45;&gt;Node11</title>
<g id="a_edge10_Node000001_Node000011"><a xlink:title=" ">
<path fill="none" stroke="#63b8ff" d="M1331.42,-197.55C1321.39,-172.15 1309.58,-142.26 1300.78,-119.97"/>
<polygon fill="none" stroke="#63b8ff" points="1328.11,-198.7 1335.04,-206.71 1334.62,-196.13 1328.11,-198.7"/>
</a>
</g>
</g>
<!-- Node12 -->
<g id="Node000012" class="node">
<title>Node12</title>
<g id="a_Node000012"><a xlink:href="classProfileCommand.html" target="_top" xlink:title=" ">
<polygon fill="white" stroke="none" points="1468.62,-120 1362.88,-120 1362.88,-52 1468.62,-52 1468.62,-120"/>
<text text-anchor="start" x="1379.38" y="-106.5" font-family="Helvetica,sans-Serif" font-size="10.00">ProfileCommand</text>
<text text-anchor="start" x="1414.25" y="-90.5" font-family="Helvetica,sans-Serif" font-size="10.00"> </text>
<text text-anchor="start" x="1366.88" y="-74.5" font-family="Helvetica,sans-Serif" font-size="10.00">+</text>
<text text-anchor="start" x="1376.88" y="-74.5" font-family="Helvetica,sans-Serif" font-size="10.00">ProfileCommand()</text>
<text text-anchor="start" x="1366.88" y="-58.5" font-family="Helvetica,sans-Serif" font-size="10.00">+</text>
<text text-anchor="start" x="1376.88" y="-58.5" font-family="Helvetica,sans-Serif" font-size="10.00">on_slashcommand()</text>
<polygon fill="#666666" stroke="#666666" points="1362.88,-102 1362.88,-102 1468.62,-102 1468.62,-102 1362.88,-102"/>
<polygon fill="#666666" stroke="#666666" points="1362.88,-86 1362.88,-86 1468.62,-86 1468.62,-86 1362.88,-86"/>
<polygon fill="none" stroke="#666666" points="1362.88,-52 1362.88,-120 1468.62,-120 1468.62,-52 1362.88,-52"/>
</a>
</g>
</g>
<!-- Node1&#45;&gt;Node12 -->
<g id="edge11_Node000001_Node000012" class="edge">
<title>Node1&#45;&gt;Node12</title>
<g id="a_edge11_Node000001_Node000012"><a xlink:title=" ">
<path fill="none" stroke="#63b8ff" d="M1372.08,-197.55C1382.11,-172.15 1393.92,-142.26 1402.72,-119.97"/>
<polygon fill="none" stroke="#63b8ff" points="1368.88,-196.13 1368.46,-206.71 1375.39,-198.7 1368.88,-196.13"/>
</a>
</g>
</g>
<!-- Node13 -->
<g id="Node000013" class="node">
<title>Node13</title>
<g id="a_Node000013"><a xlink:href="classReactionRoles.html" target="_top" xlink:title=" ">
<polygon fill="white" stroke="none" points="1600.38,-148 1487.12,-148 1487.12,-24 1600.38,-24 1600.38,-148"/>
<text text-anchor="start" x="1511.5" y="-134.5" font-family="Helvetica,sans-Serif" font-size="10.00">ReactionRoles</text>
<text text-anchor="start" x="1542.25" y="-118.5" font-family="Helvetica,sans-Serif" font-size="10.00"> </text>
<text text-anchor="start" x="1491.12" y="-102.5" font-family="Helvetica,sans-Serif" font-size="10.00">+</text>
<text text-anchor="start" x="1501.12" y="-102.5" font-family="Helvetica,sans-Serif" font-size="10.00">ReactionRoles()</text>
<text text-anchor="start" x="1491.12" y="-86.5" font-family="Helvetica,sans-Serif" font-size="10.00">+</text>
<text text-anchor="start" x="1501.12" y="-86.5" font-family="Helvetica,sans-Serif" font-size="10.00">on_slashcommand()</text>
<text text-anchor="start" x="1491.12" y="-70.5" font-family="Helvetica,sans-Serif" font-size="10.00">+</text>
<text text-anchor="start" x="1501.12" y="-70.5" font-family="Helvetica,sans-Serif" font-size="10.00">on_message_reaction</text>
<text text-anchor="start" x="1501.12" y="-58.5" font-family="Helvetica,sans-Serif" font-size="10.00">_add()</text>
<text text-anchor="start" x="1491.12" y="-42.5" font-family="Helvetica,sans-Serif" font-size="10.00">+</text>
<text text-anchor="start" x="1501.12" y="-42.5" font-family="Helvetica,sans-Serif" font-size="10.00">on_message_reaction</text>
<text text-anchor="start" x="1501.12" y="-30.5" font-family="Helvetica,sans-Serif" font-size="10.00">_remove()</text>
<polygon fill="#666666" stroke="#666666" points="1487.12,-130 1487.12,-130 1600.38,-130 1600.38,-130 1487.12,-130"/>
<polygon fill="#666666" stroke="#666666" points="1487.12,-114 1487.12,-114 1600.38,-114 1600.38,-114 1487.12,-114"/>
<polygon fill="none" stroke="#666666" points="1487.12,-24 1487.12,-148 1600.38,-148 1600.38,-24 1487.12,-24"/>
</a>
</g>
</g>
<!-- Node1&#45;&gt;Node13 -->
<g id="edge12_Node000001_Node000013" class="edge">
<title>Node1&#45;&gt;Node13</title>
<g id="a_edge12_Node000001_Node000013"><a xlink:title=" ">
<path fill="none" stroke="#63b8ff" d="M1417.89,-214.69C1438.18,-202.61 1459.85,-188.01 1477.75,-172 1485.83,-164.78 1493.63,-156.46 1500.88,-147.93"/>
<polygon fill="none" stroke="#63b8ff" points="1416.25,-211.59 1409.38,-219.65 1419.78,-217.64 1416.25,-211.59"/>
</a>
</g>
</g>
<!-- Node14 -->
<g id="Node000014" class="node">
<title>Node14</title>
<g id="a_Node000014"><a xlink:href="classReminderCommand.html" target="_top" xlink:title=" ">
<polygon fill="white" stroke="none" points="1729.25,-120 1618.25,-120 1618.25,-52 1729.25,-52 1729.25,-120"/>
<text text-anchor="start" x="1630.25" y="-106.5" font-family="Helvetica,sans-Serif" font-size="10.00">ReminderCommand</text>
<text text-anchor="start" x="1672.25" y="-90.5" font-family="Helvetica,sans-Serif" font-size="10.00"> </text>
<text text-anchor="start" x="1622.25" y="-74.5" font-family="Helvetica,sans-Serif" font-size="10.00">+</text>
<text text-anchor="start" x="1632.25" y="-74.5" font-family="Helvetica,sans-Serif" font-size="10.00">ReminderCommand()</text>
<text text-anchor="start" x="1622.25" y="-58.5" font-family="Helvetica,sans-Serif" font-size="10.00">+</text>
<text text-anchor="start" x="1632.25" y="-58.5" font-family="Helvetica,sans-Serif" font-size="10.00">on_slashcommand()</text>
<polygon fill="#666666" stroke="#666666" points="1618.25,-102 1618.25,-102 1729.25,-102 1729.25,-102 1618.25,-102"/>
<polygon fill="#666666" stroke="#666666" points="1618.25,-86 1618.25,-86 1729.25,-86 1729.25,-86 1618.25,-86"/>
<polygon fill="none" stroke="#666666" points="1618.25,-52 1618.25,-120 1729.25,-120 1729.25,-52 1618.25,-52"/>
</a>
</g>
</g>
<!-- Node1&#45;&gt;Node14 -->
<g id="edge13_Node000001_Node000014" class="edge">
<title>Node1&#45;&gt;Node14</title>
<g id="a_edge13_Node000001_Node000014"><a xlink:title=" ">
<path fill="none" stroke="#63b8ff" d="M1419.34,-240.73C1474.57,-231.33 1552.58,-211.77 1609.75,-172 1629.01,-158.6 1644.91,-137.58 1656.05,-119.79"/>
<polygon fill="none" stroke="#63b8ff" points="1419.06,-237.23 1409.76,-242.29 1420.19,-244.14 1419.06,-237.23"/>
</a>
</g>
</g>
<!-- Node15 -->
<g id="Node000015" class="node">
<title>Node15</title>
<g id="a_Node000015"><a xlink:href="classRemoveNotificationCommand.html" target="_top" xlink:title=" ">
<polygon fill="white" stroke="none" points="1902.38,-120 1747.12,-120 1747.12,-52 1902.38,-52 1902.38,-120"/>
<text text-anchor="start" x="1759.12" y="-106.5" font-family="Helvetica,sans-Serif" font-size="10.00">RemoveNotificationCommand</text>
<text text-anchor="start" x="1823.25" y="-90.5" font-family="Helvetica,sans-Serif" font-size="10.00"> </text>
<text text-anchor="start" x="1751.12" y="-74.5" font-family="Helvetica,sans-Serif" font-size="10.00">+</text>
<text text-anchor="start" x="1761.12" y="-74.5" font-family="Helvetica,sans-Serif" font-size="10.00">RemoveNotificationCommand()</text>
<text text-anchor="start" x="1751.12" y="-58.5" font-family="Helvetica,sans-Serif" font-size="10.00">+</text>
<text text-anchor="start" x="1761.12" y="-58.5" font-family="Helvetica,sans-Serif" font-size="10.00">on_slashcommand()</text>
<polygon fill="#666666" stroke="#666666" points="1747.12,-102 1747.12,-102 1902.38,-102 1902.38,-102 1747.12,-102"/>
<polygon fill="#666666" stroke="#666666" points="1747.12,-86 1747.12,-86 1902.38,-86 1902.38,-86 1747.12,-86"/>
<polygon fill="none" stroke="#666666" points="1747.12,-52 1747.12,-120 1902.38,-120 1902.38,-52 1747.12,-52"/>
</a>
</g>
</g>
<!-- Node1&#45;&gt;Node15 -->
<g id="edge14_Node000001_Node000015" class="edge">
<title>Node1&#45;&gt;Node15</title>
<g id="a_edge14_Node000001_Node000015"><a xlink:title=" ">
<path fill="none" stroke="#63b8ff" d="M1419.77,-247.19C1500.3,-242.48 1636.38,-226.34 1738.75,-172 1762.67,-159.3 1784.32,-137.82 1799.91,-119.63"/>
<polygon fill="none" stroke="#63b8ff" points="1419.61,-243.69 1409.81,-247.72 1419.99,-250.68 1419.61,-243.69"/>
</a>
</g>
</g>
<!-- Node16 -->
<g id="Node000016" class="node">
<title>Node16</title>
<g id="a_Node000016"><a xlink:href="classRemovePortalCommand.html" target="_top" xlink:title=" ">
<polygon fill="white" stroke="none" points="2051.38,-120 1920.12,-120 1920.12,-52 2051.38,-52 2051.38,-120"/>
<text text-anchor="start" x="1932.12" y="-106.5" font-family="Helvetica,sans-Serif" font-size="10.00">RemovePortalCommand</text>
<text text-anchor="start" x="1984.25" y="-90.5" font-family="Helvetica,sans-Serif" font-size="10.00"> </text>
<text text-anchor="start" x="1924.12" y="-74.5" font-family="Helvetica,sans-Serif" font-size="10.00">+</text>
<text text-anchor="start" x="1934.12" y="-74.5" font-family="Helvetica,sans-Serif" font-size="10.00">RemovePortalCommand()</text>
<text text-anchor="start" x="1924.12" y="-58.5" font-family="Helvetica,sans-Serif" font-size="10.00">+</text>
<text text-anchor="start" x="1934.12" y="-58.5" font-family="Helvetica,sans-Serif" font-size="10.00">on_slashcommand()</text>
<polygon fill="#666666" stroke="#666666" points="1920.12,-102 1920.12,-102 2051.38,-102 2051.38,-102 1920.12,-102"/>
<polygon fill="#666666" stroke="#666666" points="1920.12,-86 1920.12,-86 2051.38,-86 2051.38,-86 1920.12,-86"/>
<polygon fill="none" stroke="#666666" points="1920.12,-52 1920.12,-120 2051.38,-120 2051.38,-52 1920.12,-52"/>
</a>
</g>
</g>
<!-- Node1&#45;&gt;Node16 -->
<g id="edge15_Node000001_Node000016" class="edge">
<title>Node1&#45;&gt;Node16</title>
<g id="a_edge15_Node000001_Node000016"><a xlink:title=" ">
<path fill="none" stroke="#63b8ff" d="M1419.36,-245.62C1549.19,-238.18 1827.95,-217.3 1911.75,-172 1934.13,-159.9 1952.86,-138.17 1965.88,-119.71"/>
<polygon fill="none" stroke="#63b8ff" points="1419.32,-242.12 1409.53,-246.17 1419.72,-249.11 1419.32,-242.12"/>
</a>
</g>
</g>
<!-- Node17 -->
<g id="Node000017" class="node">
<title>Node17</title>
<g id="a_Node000017"><a xlink:href="classRollCommand.html" target="_top" xlink:title=" ">
<polygon fill="white" stroke="none" points="2175.62,-120 2069.88,-120 2069.88,-52 2175.62,-52 2175.62,-120"/>
<text text-anchor="start" x="2091.62" y="-106.5" font-family="Helvetica,sans-Serif" font-size="10.00">RollCommand</text>
<text text-anchor="start" x="2121.25" y="-90.5" font-family="Helvetica,sans-Serif" font-size="10.00"> </text>
<text text-anchor="start" x="2073.88" y="-74.5" font-family="Helvetica,sans-Serif" font-size="10.00">+</text>
<text text-anchor="start" x="2083.88" y="-74.5" font-family="Helvetica,sans-Serif" font-size="10.00">RollCommand()</text>
<text text-anchor="start" x="2073.88" y="-58.5" font-family="Helvetica,sans-Serif" font-size="10.00">+</text>
<text text-anchor="start" x="2083.88" y="-58.5" font-family="Helvetica,sans-Serif" font-size="10.00">on_slashcommand()</text>
<polygon fill="#666666" stroke="#666666" points="2069.88,-102 2069.88,-102 2175.62,-102 2175.62,-102 2069.88,-102"/>
<polygon fill="#666666" stroke="#666666" points="2069.88,-86 2069.88,-86 2175.62,-86 2175.62,-86 2069.88,-86"/>
<polygon fill="none" stroke="#666666" points="2069.88,-52 2069.88,-120 2175.62,-120 2175.62,-52 2069.88,-52"/>
</a>
</g>
</g>
<!-- Node1&#45;&gt;Node17 -->
<g id="edge16_Node000001_Node000017" class="edge">
<title>Node1&#45;&gt;Node17</title>
<g id="a_edge16_Node000001_Node000017"><a xlink:title=" ">
<path fill="none" stroke="#63b8ff" d="M1419.6,-248.51C1575.22,-246.31 1952.73,-234.48 2060.75,-172 2081.3,-160.11 2096.97,-138.38 2107.41,-119.86"/>
<polygon fill="none" stroke="#63b8ff" points="1419.81,-245.01 1409.86,-248.64 1419.9,-252.01 1419.81,-245.01"/>
</a>
</g>
</g>
<!-- Node18 -->
<g id="Node000018" class="node">
<title>Node18</title>
<g id="a_Node000018"><a xlink:href="classServerDetails.html" target="_top" xlink:title=" ">
<polygon fill="white" stroke="none" points="2299.62,-120 2193.88,-120 2193.88,-52 2299.62,-52 2299.62,-120"/>
<text text-anchor="start" x="2217.12" y="-106.5" font-family="Helvetica,sans-Serif" font-size="10.00">ServerDetails</text>
<text text-anchor="start" x="2245.25" y="-90.5" font-family="Helvetica,sans-Serif" font-size="10.00"> </text>
<text text-anchor="start" x="2197.88" y="-74.5" font-family="Helvetica,sans-Serif" font-size="10.00">+</text>
<text text-anchor="start" x="2207.88" y="-74.5" font-family="Helvetica,sans-Serif" font-size="10.00">ServerDetails()</text>
<text text-anchor="start" x="2197.88" y="-58.5" font-family="Helvetica,sans-Serif" font-size="10.00">+</text>
<text text-anchor="start" x="2207.88" y="-58.5" font-family="Helvetica,sans-Serif" font-size="10.00">on_slashcommand()</text>
<polygon fill="#666666" stroke="#666666" points="2193.88,-102 2193.88,-102 2299.62,-102 2299.62,-102 2193.88,-102"/>
<polygon fill="#666666" stroke="#666666" points="2193.88,-86 2193.88,-86 2299.62,-86 2299.62,-86 2193.88,-86"/>
<polygon fill="none" stroke="#666666" points="2193.88,-52 2193.88,-120 2299.62,-120 2299.62,-52 2193.88,-52"/>
</a>
</g>
</g>
<!-- Node1&#45;&gt;Node18 -->
<g id="edge17_Node000001_Node000018" class="edge">
<title>Node1&#45;&gt;Node18</title>
<g id="a_edge17_Node000001_Node000018"><a xlink:title=" ">
<path fill="none" stroke="#63b8ff" d="M1419.48,-249.79C1594.02,-250.72 2054.59,-245.9 2184.75,-172 2205.4,-160.28 2221.06,-138.54 2231.48,-119.98"/>
<polygon fill="none" stroke="#63b8ff" points="1419.69,-246.29 1409.67,-249.73 1419.64,-253.29 1419.69,-246.29"/>
</a>
</g>
</g>
<!-- Node19 -->
<g id="Node000019" class="node">
<title>Node19</title>
<g id="a_Node000019"><a xlink:href="classSetNotificationCommand.html" target="_top" xlink:title=" ">
<polygon fill="white" stroke="none" points="2451.5,-128 2318,-128 2318,-44 2451.5,-44 2451.5,-128"/>
<text text-anchor="start" x="2330" y="-114.5" font-family="Helvetica,sans-Serif" font-size="10.00">SetNotificationCommand</text>
<text text-anchor="start" x="2383.25" y="-98.5" font-family="Helvetica,sans-Serif" font-size="10.00"> </text>
<text text-anchor="start" x="2322" y="-82.5" font-family="Helvetica,sans-Serif" font-size="10.00">+</text>
<text text-anchor="start" x="2332" y="-82.5" font-family="Helvetica,sans-Serif" font-size="10.00">SetNotificationCommand()</text>
<text text-anchor="start" x="2322" y="-66.5" font-family="Helvetica,sans-Serif" font-size="10.00">+</text>
<text text-anchor="start" x="2332" y="-66.5" font-family="Helvetica,sans-Serif" font-size="10.00">on_slashcommand()</text>
<text text-anchor="start" x="2322" y="-50.5" font-family="Helvetica,sans-Serif" font-size="10.00">+</text>
<text text-anchor="start" x="2332" y="-50.5" font-family="Helvetica,sans-Serif" font-size="10.00">on_ready()</text>
<polygon fill="#666666" stroke="#666666" points="2318,-110 2318,-110 2451.5,-110 2451.5,-110 2318,-110"/>
<polygon fill="#666666" stroke="#666666" points="2318,-94 2318,-94 2451.5,-94 2451.5,-94 2318,-94"/>
<polygon fill="none" stroke="#666666" points="2318,-44 2318,-128 2451.5,-128 2451.5,-44 2318,-44"/>
</a>
</g>
</g>
<!-- Node1&#45;&gt;Node19 -->
<g id="edge18_Node000001_Node000019" class="edge">
<title>Node1&#45;&gt;Node19</title>
<g id="a_edge18_Node000001_Node000019"><a xlink:title=" ">
<path fill="none" stroke="#63b8ff" d="M1419.8,-246.44C1625.19,-238.31 2229.62,-211.28 2308.75,-172 2328.79,-162.05 2345.94,-144.33 2358.86,-127.63"/>
<polygon fill="none" stroke="#63b8ff" points="1419.67,-242.94 1409.81,-246.83 1419.94,-249.94 1419.67,-242.94"/>
</a>
</g>
</g>
<!-- Node20 -->
<g id="Node000020" class="node">
<title>Node20</title>
<g id="a_Node000020"><a xlink:href="classSetPortalCommand.html" target="_top" xlink:title=" ">
<polygon fill="white" stroke="none" points="2603.88,-172 2469.62,-172 2469.62,0 2603.88,0 2603.88,-172"/>
<text text-anchor="start" x="2494" y="-158.5" font-family="Helvetica,sans-Serif" font-size="10.00">SetPortalCommand</text>
<text text-anchor="start" x="2535.25" y="-142.5" font-family="Helvetica,sans-Serif" font-size="10.00"> </text>
<text text-anchor="start" x="2473.62" y="-126.5" font-family="Helvetica,sans-Serif" font-size="10.00">+</text>
<text text-anchor="start" x="2483.62" y="-126.5" font-family="Helvetica,sans-Serif" font-size="10.00">SetPortalCommand()</text>
<text text-anchor="start" x="2473.62" y="-110.5" font-family="Helvetica,sans-Serif" font-size="10.00">+</text>
<text text-anchor="start" x="2483.62" y="-110.5" font-family="Helvetica,sans-Serif" font-size="10.00">on_slashcommand()</text>
<text text-anchor="start" x="2473.62" y="-94.5" font-family="Helvetica,sans-Serif" font-size="10.00">+</text>
<text text-anchor="start" x="2483.62" y="-94.5" font-family="Helvetica,sans-Serif" font-size="10.00">on_message_create()</text>
<text text-anchor="start" x="2473.62" y="-78.5" font-family="Helvetica,sans-Serif" font-size="10.00">+</text>
<text text-anchor="start" x="2483.62" y="-78.5" font-family="Helvetica,sans-Serif" font-size="10.00">on_message_delete()</text>
<text text-anchor="start" x="2473.62" y="-62.5" font-family="Helvetica,sans-Serif" font-size="10.00">+</text>
<text text-anchor="start" x="2483.62" y="-62.5" font-family="Helvetica,sans-Serif" font-size="10.00">on_message_delete_bulk()</text>
<text text-anchor="start" x="2473.62" y="-46.5" font-family="Helvetica,sans-Serif" font-size="10.00">+</text>
<text text-anchor="start" x="2483.62" y="-46.5" font-family="Helvetica,sans-Serif" font-size="10.00">on_message_reaction</text>
<text text-anchor="start" x="2483.62" y="-34.5" font-family="Helvetica,sans-Serif" font-size="10.00">_add()</text>
<text text-anchor="start" x="2473.62" y="-18.5" font-family="Helvetica,sans-Serif" font-size="10.00">+</text>
<text text-anchor="start" x="2483.62" y="-18.5" font-family="Helvetica,sans-Serif" font-size="10.00">on_message_reaction</text>
<text text-anchor="start" x="2483.62" y="-6.5" font-family="Helvetica,sans-Serif" font-size="10.00">_remove()</text>
<polygon fill="#666666" stroke="#666666" points="2469.62,-154 2469.62,-154 2603.88,-154 2603.88,-154 2469.62,-154"/>
<polygon fill="#666666" stroke="#666666" points="2469.62,-138 2469.62,-138 2603.88,-138 2603.88,-138 2469.62,-138"/>
<polygon fill="none" stroke="#666666" points="2469.62,0 2469.62,-172 2603.88,-172 2603.88,0 2469.62,0"/>
</a>
</g>
</g>
<!-- Node1&#45;&gt;Node20 -->
<g id="edge19_Node000001_Node000020" class="edge">
<title>Node1&#45;&gt;Node20</title>
<g id="a_edge19_Node000001_Node000020"><a xlink:title=" ">
<path fill="none" stroke="#63b8ff" d="M1419.6,-247.25C1646.14,-241 2367.42,-217.7 2460.75,-172 2463.86,-170.48 2466.9,-168.76 2469.87,-166.9"/>
<polygon fill="none" stroke="#63b8ff" points="1419.65,-243.75 1409.75,-247.52 1419.85,-250.75 1419.65,-243.75"/>
</a>
</g>
</g>
<!-- Node21 -->
<g id="Node000021" class="node">
<title>Node21</title>
<g id="a_Node000021"><a xlink:href="classWarnCommand.html" target="_top" xlink:title=" ">
<polygon fill="white" stroke="none" points="2727.62,-120 2621.88,-120 2621.88,-52 2727.62,-52 2727.62,-120"/>
<text text-anchor="start" x="2641" y="-106.5" font-family="Helvetica,sans-Serif" font-size="10.00">WarnCommand</text>
<text text-anchor="start" x="2673.25" y="-90.5" font-family="Helvetica,sans-Serif" font-size="10.00"> </text>
<text text-anchor="start" x="2625.88" y="-74.5" font-family="Helvetica,sans-Serif" font-size="10.00">+</text>
<text text-anchor="start" x="2635.88" y="-74.5" font-family="Helvetica,sans-Serif" font-size="10.00">WarnCommand()</text>
<text text-anchor="start" x="2625.88" y="-58.5" font-family="Helvetica,sans-Serif" font-size="10.00">+</text>
<text text-anchor="start" x="2635.88" y="-58.5" font-family="Helvetica,sans-Serif" font-size="10.00">on_slashcommand()</text>
<polygon fill="#666666" stroke="#666666" points="2621.88,-102 2621.88,-102 2727.62,-102 2727.62,-102 2621.88,-102"/>
<polygon fill="#666666" stroke="#666666" points="2621.88,-86 2621.88,-86 2727.62,-86 2727.62,-86 2621.88,-86"/>
<polygon fill="none" stroke="#666666" points="2621.88,-52 2621.88,-120 2727.62,-120 2727.62,-52 2621.88,-52"/>
</a>
</g>
</g>
<!-- Node1&#45;&gt;Node21 -->
<g id="edge20_Node000001_Node000021" class="edge">
<title>Node1&#45;&gt;Node21</title>
<g id="a_edge20_Node000001_Node000021"><a xlink:title=" ">
<path fill="none" stroke="#63b8ff" d="M1419.37,-248.21C1665.94,-244.9 2507.82,-229.43 2612.75,-172 2633.74,-160.51 2649.48,-138.52 2659.85,-119.79"/>
<polygon fill="none" stroke="#63b8ff" points="1419.55,-244.71 1409.6,-248.34 1419.65,-251.71 1419.55,-244.71"/>
</a>
</g>
</g>
</g>
</svg>
