<?xml version="1.0" encoding="UTF-8" standalone="no"?>
<!DOCTYPE svg PUBLIC "-//W3C//DTD SVG 1.1//EN"
 "http://www.w3.org/Graphics/SVG/1.1/DTD/svg11.dtd">
<!-- Generated by graphviz version 12.2.1 (0)
 -->
<!-- Title: IRepository&lt; DTO &gt; Pages: 1 -->
<svg width="1319pt" height="421pt"
 viewBox="0.00 0.00 1319.25 421.00" xmlns="http://www.w3.org/2000/svg" xmlns:xlink="http://www.w3.org/1999/xlink">
<g id="graph0" class="graph" transform="scale(1 1) rotate(0) translate(4 417)">
<title>IRepository&lt; DTO &gt;</title>
<!-- Node1 -->
<g id="Node000001" class="node">
<title>Node1</title>
<g id="a_Node000001"><a xlink:title=" ">
<polygon fill="#999999" stroke="none" points="704,-413 606.75,-413 606.75,-313 704,-313 704,-413"/>
<text text-anchor="start" x="610.75" y="-399.5" font-family="Helvetica,sans-Serif" font-size="10.00">IRepository&lt; DTO &gt;</text>
<text text-anchor="start" x="653.88" y="-383.5" font-family="Helvetica,sans-Serif" font-size="10.00"> </text>
<text text-anchor="start" x="621" y="-367.5" font-family="Helvetica,sans-Serif" font-size="10.00">+</text>
<text text-anchor="start" x="641.25" y="-367.5" font-family="Helvetica,sans-Serif" font-size="10.00">create()</text>
<text text-anchor="start" x="621" y="-351.5" font-family="Helvetica,sans-Serif" font-size="10.00">+</text>
<text text-anchor="start" x="641.25" y="-351.5" font-family="Helvetica,sans-Serif" font-size="10.00">remove()</text>
<text text-anchor="start" x="621" y="-335.5" font-family="Helvetica,sans-Serif" font-size="10.00">+</text>
<text text-anchor="start" x="641.25" y="-335.5" font-family="Helvetica,sans-Serif" font-size="10.00">get()</text>
<text text-anchor="start" x="621" y="-319.5" font-family="Helvetica,sans-Serif" font-size="10.00">+</text>
<text text-anchor="start" x="641.25" y="-319.5" font-family="Helvetica,sans-Serif" font-size="10.00">update()</text>
<polygon fill="#666666" stroke="#666666" points="606.75,-395 606.75,-395 704,-395 704,-395 606.75,-395"/>
<polygon fill="#666666" stroke="#666666" points="606.75,-379 606.75,-379 704,-379 704,-379 606.75,-379"/>
<polygon fill="none" stroke="#666666" points="606.75,-313 606.75,-413 704,-413 704,-313 606.75,-313"/>
</a>
</g>
</g>
<!-- Node2 -->
<g id="Node000002" class="node">
<title>Node2</title>
<g id="a_Node000002"><a xlink:href="classIRepository.html" target="_top" xlink:title=" ">
<polygon fill="white" stroke="none" points="134.75,-259 0,-259 0,-159 134.75,-159 134.75,-259"/>
<text text-anchor="start" x="4" y="-245.5" font-family="Helvetica,sans-Serif" font-size="10.00">IRepository&lt; BlacklistDTO &gt;</text>
<text text-anchor="start" x="65.88" y="-229.5" font-family="Helvetica,sans-Serif" font-size="10.00"> </text>
<text text-anchor="start" x="23.62" y="-213.5" font-family="Helvetica,sans-Serif" font-size="10.00">+</text>
<text text-anchor="start" x="53.25" y="-213.5" font-family="Helvetica,sans-Serif" font-size="10.00">create()</text>
<text text-anchor="start" x="23.62" y="-197.5" font-family="Helvetica,sans-Serif" font-size="10.00">+</text>
<text text-anchor="start" x="53.25" y="-197.5" font-family="Helvetica,sans-Serif" font-size="10.00">remove()</text>
<text text-anchor="start" x="23.62" y="-181.5" font-family="Helvetica,sans-Serif" font-size="10.00">+</text>
<text text-anchor="start" x="53.25" y="-181.5" font-family="Helvetica,sans-Serif" font-size="10.00">get()</text>
<text text-anchor="start" x="23.62" y="-165.5" font-family="Helvetica,sans-Serif" font-size="10.00">+</text>
<text text-anchor="start" x="53.25" y="-165.5" font-family="Helvetica,sans-Serif" font-size="10.00">update()</text>
<polygon fill="#666666" stroke="#666666" points="0,-241 0,-241 134.75,-241 134.75,-241 0,-241"/>
<polygon fill="#666666" stroke="#666666" points="0,-225 0,-225 134.75,-225 134.75,-225 0,-225"/>
<polygon fill="none" stroke="#666666" points="0,-159 0,-259 134.75,-259 134.75,-159 0,-159"/>
</a>
</g>
</g>
<!-- Node1&#45;&gt;Node2 -->
<g id="edge1_Node000001_Node000002" class="edge">
<title>Node1&#45;&gt;Node2</title>
<g id="a_edge1_Node000001_Node000002"><a xlink:title=" ">
<path fill="none" stroke="orange" d="M595.49,-358.07C509.23,-351.26 345.69,-334.07 211.88,-295 180.36,-285.8 172.88,-281.29 144.38,-265 140.95,-263.04 137.49,-260.97 134.04,-258.82"/>
<polygon fill="orange" stroke="orange" points="595.13,-361.55 605.37,-358.83 595.67,-354.57 595.13,-361.55"/>
</a>
</g>
<text text-anchor="middle" x="251.62" y="-285.5" font-family="Helvetica,sans-Serif" font-size="10.00" fill="grey"> &lt; BlacklistDTO &gt;</text>
</g>
<!-- Node4 -->
<g id="Node000004" class="node">
<title>Node4</title>
<g id="a_Node000004"><a xlink:href="classIRepository.html" target="_top" xlink:title=" ">
<polygon fill="white" stroke="none" points="291.62,-265 153.12,-265 153.12,-153 291.62,-153 291.62,-265"/>
<text text-anchor="start" x="157.12" y="-251.5" font-family="Helvetica,sans-Serif" font-size="10.00">IRepository&lt; ChallengeBadge</text>
<text text-anchor="start" x="207.38" y="-239.5" font-family="Helvetica,sans-Serif" font-size="10.00">DTO &gt;</text>
<text text-anchor="start" x="220.88" y="-223.5" font-family="Helvetica,sans-Serif" font-size="10.00"> </text>
<text text-anchor="start" x="177.69" y="-207.5" font-family="Helvetica,sans-Serif" font-size="10.00">+</text>
<text text-anchor="start" x="208.25" y="-207.5" font-family="Helvetica,sans-Serif" font-size="10.00">create()</text>
<text text-anchor="start" x="177.69" y="-191.5" font-family="Helvetica,sans-Serif" font-size="10.00">+</text>
<text text-anchor="start" x="208.25" y="-191.5" font-family="Helvetica,sans-Serif" font-size="10.00">remove()</text>
<text text-anchor="start" x="177.69" y="-175.5" font-family="Helvetica,sans-Serif" font-size="10.00">+</text>
<text text-anchor="start" x="208.25" y="-175.5" font-family="Helvetica,sans-Serif" font-size="10.00">get()</text>
<text text-anchor="start" x="177.69" y="-159.5" font-family="Helvetica,sans-Serif" font-size="10.00">+</text>
<text text-anchor="start" x="208.25" y="-159.5" font-family="Helvetica,sans-Serif" font-size="10.00">update()</text>
<polygon fill="#666666" stroke="#666666" points="153.12,-235 153.12,-235 291.62,-235 291.62,-235 153.12,-235"/>
<polygon fill="#666666" stroke="#666666" points="153.12,-219 153.12,-219 291.62,-219 291.62,-219 153.12,-219"/>
<polygon fill="none" stroke="#666666" points="153.12,-153 153.12,-265 291.62,-265 291.62,-153 153.12,-153"/>
</a>
</g>
</g>
<!-- Node1&#45;&gt;Node4 -->
<g id="edge3_Node000001_Node000004" class="edge">
<title>Node1&#45;&gt;Node4</title>
<g id="a_edge3_Node000001_Node000004"><a xlink:title=" ">
<path fill="none" stroke="orange" d="M595.41,-360.34C524.18,-356.18 403.53,-342.06 312.12,-295 297.05,-287.24 282.73,-276.17 270.14,-264.58"/>
<polygon fill="orange" stroke="orange" points="595.15,-363.84 605.32,-360.87 595.52,-356.85 595.15,-363.84"/>
</a>
</g>
<text text-anchor="middle" x="368.75" y="-285.5" font-family="Helvetica,sans-Serif" font-size="10.00" fill="grey"> &lt; ChallengeBadgeDTO &gt;</text>
</g>
<!-- Node6 -->
<g id="Node000006" class="node">
<title>Node6</title>
<g id="a_Node000006"><a xlink:href="classIRepository.html" target="_top" xlink:title=" ">
<polygon fill="white" stroke="none" points="440.88,-265 309.88,-265 309.88,-153 440.88,-153 440.88,-265"/>
<text text-anchor="start" x="313.88" y="-251.5" font-family="Helvetica,sans-Serif" font-size="10.00">IRepository&lt; ChallengeRole</text>
<text text-anchor="start" x="360.38" y="-239.5" font-family="Helvetica,sans-Serif" font-size="10.00">DTO &gt;</text>
<text text-anchor="start" x="373.88" y="-223.5" font-family="Helvetica,sans-Serif" font-size="10.00"> </text>
<text text-anchor="start" x="332.56" y="-207.5" font-family="Helvetica,sans-Serif" font-size="10.00">+</text>
<text text-anchor="start" x="361.25" y="-207.5" font-family="Helvetica,sans-Serif" font-size="10.00">create()</text>
<text text-anchor="start" x="332.56" y="-191.5" font-family="Helvetica,sans-Serif" font-size="10.00">+</text>
<text text-anchor="start" x="361.25" y="-191.5" font-family="Helvetica,sans-Serif" font-size="10.00">remove()</text>
<text text-anchor="start" x="332.56" y="-175.5" font-family="Helvetica,sans-Serif" font-size="10.00">+</text>
<text text-anchor="start" x="361.25" y="-175.5" font-family="Helvetica,sans-Serif" font-size="10.00">get()</text>
<text text-anchor="start" x="332.56" y="-159.5" font-family="Helvetica,sans-Serif" font-size="10.00">+</text>
<text text-anchor="start" x="361.25" y="-159.5" font-family="Helvetica,sans-Serif" font-size="10.00">update()</text>
<polygon fill="#666666" stroke="#666666" points="309.88,-235 309.88,-235 440.88,-235 440.88,-235 309.88,-235"/>
<polygon fill="#666666" stroke="#666666" points="309.88,-219 309.88,-219 440.88,-219 440.88,-219 309.88,-219"/>
<polygon fill="none" stroke="#666666" points="309.88,-153 309.88,-265 440.88,-265 440.88,-153 309.88,-153"/>
</a>
</g>
</g>
<!-- Node1&#45;&gt;Node6 -->
<g id="edge5_Node000001_Node000006" class="edge">
<title>Node1&#45;&gt;Node6</title>
<g id="a_edge5_Node000001_Node000006"><a xlink:title=" ">
<path fill="none" stroke="orange" d="M595.9,-353.05C550.75,-344.06 488.78,-326.8 442.62,-295 430.85,-286.89 420.14,-276.1 410.9,-264.94"/>
<polygon fill="orange" stroke="orange" points="595.03,-356.45 605.51,-354.88 596.34,-349.57 595.03,-356.45"/>
</a>
</g>
<text text-anchor="middle" x="495.5" y="-285.5" font-family="Helvetica,sans-Serif" font-size="10.00" fill="grey"> &lt; ChallengeRoleDTO &gt;</text>
</g>
<!-- Node8 -->
<g id="Node000008" class="node">
<title>Node8</title>
<g id="a_Node000008"><a xlink:href="classIRepository.html" target="_top" xlink:title=" ">
<polygon fill="white" stroke="none" points="575.75,-265 459,-265 459,-153 575.75,-153 575.75,-265"/>
<text text-anchor="start" x="463" y="-251.5" font-family="Helvetica,sans-Serif" font-size="10.00">IRepository&lt; Notification</text>
<text text-anchor="start" x="502.38" y="-239.5" font-family="Helvetica,sans-Serif" font-size="10.00">DTO &gt;</text>
<text text-anchor="start" x="515.88" y="-223.5" font-family="Helvetica,sans-Serif" font-size="10.00"> </text>
<text text-anchor="start" x="478.12" y="-207.5" font-family="Helvetica,sans-Serif" font-size="10.00">+</text>
<text text-anchor="start" x="503.25" y="-207.5" font-family="Helvetica,sans-Serif" font-size="10.00">create()</text>
<text text-anchor="start" x="478.12" y="-191.5" font-family="Helvetica,sans-Serif" font-size="10.00">+</text>
<text text-anchor="start" x="503.25" y="-191.5" font-family="Helvetica,sans-Serif" font-size="10.00">remove()</text>
<text text-anchor="start" x="478.12" y="-175.5" font-family="Helvetica,sans-Serif" font-size="10.00">+</text>
<text text-anchor="start" x="503.25" y="-175.5" font-family="Helvetica,sans-Serif" font-size="10.00">get()</text>
<text text-anchor="start" x="478.12" y="-159.5" font-family="Helvetica,sans-Serif" font-size="10.00">+</text>
<text text-anchor="start" x="503.25" y="-159.5" font-family="Helvetica,sans-Serif" font-size="10.00">update()</text>
<polygon fill="#666666" stroke="#666666" points="459,-235 459,-235 575.75,-235 575.75,-235 459,-235"/>
<polygon fill="#666666" stroke="#666666" points="459,-219 459,-219 575.75,-219 575.75,-219 459,-219"/>
<polygon fill="none" stroke="#666666" points="459,-153 459,-265 575.75,-265 575.75,-153 459,-153"/>
</a>
</g>
</g>
<!-- Node1&#45;&gt;Node8 -->
<g id="edge7_Node000001_Node000008" class="edge">
<title>Node1&#45;&gt;Node8</title>
<g id="a_edge7_Node000001_Node000008"><a xlink:title=" ">
<path fill="none" stroke="orange" d="M597.65,-328.39C584.16,-318.77 570.62,-307.47 559.88,-295 552.12,-286 545.37,-275.34 539.66,-264.67"/>
<polygon fill="orange" stroke="orange" points="595.47,-331.14 605.69,-333.92 599.43,-325.37 595.47,-331.14"/>
</a>
</g>
<text text-anchor="middle" x="605.62" y="-285.5" font-family="Helvetica,sans-Serif" font-size="10.00" fill="grey"> &lt; NotificationDTO &gt;</text>
</g>
<!-- Node10 -->
<g id="Node000010" class="node">
<title>Node10</title>
<g id="a_Node000010"><a xlink:href="classIRepository.html" target="_top" xlink:title=" ">
<polygon fill="white" stroke="none" points="716.75,-259 594,-259 594,-159 716.75,-159 716.75,-259"/>
<text text-anchor="start" x="598" y="-245.5" font-family="Helvetica,sans-Serif" font-size="10.00">IRepository&lt; PortalDTO &gt;</text>
<text text-anchor="start" x="653.88" y="-229.5" font-family="Helvetica,sans-Serif" font-size="10.00"> </text>
<text text-anchor="start" x="614.62" y="-213.5" font-family="Helvetica,sans-Serif" font-size="10.00">+</text>
<text text-anchor="start" x="641.25" y="-213.5" font-family="Helvetica,sans-Serif" font-size="10.00">create()</text>
<text text-anchor="start" x="614.62" y="-197.5" font-family="Helvetica,sans-Serif" font-size="10.00">+</text>
<text text-anchor="start" x="641.25" y="-197.5" font-family="Helvetica,sans-Serif" font-size="10.00">remove()</text>
<text text-anchor="start" x="614.62" y="-181.5" font-family="Helvetica,sans-Serif" font-size="10.00">+</text>
<text text-anchor="start" x="641.25" y="-181.5" font-family="Helvetica,sans-Serif" font-size="10.00">get()</text>
<text text-anchor="start" x="614.62" y="-165.5" font-family="Helvetica,sans-Serif" font-size="10.00">+</text>
<text text-anchor="start" x="641.25" y="-165.5" font-family="Helvetica,sans-Serif" font-size="10.00">update()</text>
<polygon fill="#666666" stroke="#666666" points="594,-241 594,-241 716.75,-241 716.75,-241 594,-241"/>
<polygon fill="#666666" stroke="#666666" points="594,-225 594,-225 716.75,-225 716.75,-225 594,-225"/>
<polygon fill="none" stroke="#666666" points="594,-159 594,-259 716.75,-259 716.75,-159 594,-159"/>
</a>
</g>
</g>
<!-- Node1&#45;&gt;Node10 -->
<g id="edge9_Node000001_Node000010" class="edge">
<title>Node1&#45;&gt;Node10</title>
<g id="a_edge9_Node000001_Node000010"><a xlink:title=" ">
<path fill="none" stroke="orange" d="M655.38,-301.84C655.38,-287.57 655.38,-272.53 655.38,-258.84"/>
<polygon fill="orange" stroke="orange" points="651.88,-301.56 655.38,-311.56 658.88,-301.56 651.88,-301.56"/>
</a>
</g>
<text text-anchor="middle" x="689.12" y="-285.5" font-family="Helvetica,sans-Serif" font-size="10.00" fill="grey"> &lt; PortalDTO &gt;</text>
</g>
<!-- Node12 -->
<g id="Node000012" class="node">
<title>Node12</title>
<g id="a_Node000012"><a xlink:href="classIRepository.html" target="_top" xlink:title=" ">
<polygon fill="white" stroke="none" points="861.62,-265 735.12,-265 735.12,-153 861.62,-153 861.62,-265"/>
<text text-anchor="start" x="739.12" y="-251.5" font-family="Helvetica,sans-Serif" font-size="10.00">IRepository&lt; ReactionRole</text>
<text text-anchor="start" x="783.38" y="-239.5" font-family="Helvetica,sans-Serif" font-size="10.00">DTO &gt;</text>
<text text-anchor="start" x="796.88" y="-223.5" font-family="Helvetica,sans-Serif" font-size="10.00"> </text>
<text text-anchor="start" x="756.69" y="-207.5" font-family="Helvetica,sans-Serif" font-size="10.00">+</text>
<text text-anchor="start" x="784.25" y="-207.5" font-family="Helvetica,sans-Serif" font-size="10.00">create()</text>
<text text-anchor="start" x="756.69" y="-191.5" font-family="Helvetica,sans-Serif" font-size="10.00">+</text>
<text text-anchor="start" x="784.25" y="-191.5" font-family="Helvetica,sans-Serif" font-size="10.00">remove()</text>
<text text-anchor="start" x="756.69" y="-175.5" font-family="Helvetica,sans-Serif" font-size="10.00">+</text>
<text text-anchor="start" x="784.25" y="-175.5" font-family="Helvetica,sans-Serif" font-size="10.00">get()</text>
<text text-anchor="start" x="756.69" y="-159.5" font-family="Helvetica,sans-Serif" font-size="10.00">+</text>
<text text-anchor="start" x="784.25" y="-159.5" font-family="Helvetica,sans-Serif" font-size="10.00">update()</text>
<polygon fill="#666666" stroke="#666666" points="735.12,-235 735.12,-235 861.62,-235 861.62,-235 735.12,-235"/>
<polygon fill="#666666" stroke="#666666" points="735.12,-219 735.12,-219 861.62,-219 861.62,-219 735.12,-219"/>
<polygon fill="none" stroke="#666666" points="735.12,-153 735.12,-265 861.62,-265 861.62,-153 735.12,-153"/>
</a>
</g>
</g>
<!-- Node1&#45;&gt;Node12 -->
<g id="edge11_Node000001_Node000012" class="edge">
<title>Node1&#45;&gt;Node12</title>
<g id="a_edge11_Node000001_Node000012"><a xlink:title=" ">
<path fill="none" stroke="orange" d="M711.74,-309.92C716.76,-304.95 721.71,-299.92 726.38,-295 735.42,-285.45 744.74,-274.98 753.55,-264.75"/>
<polygon fill="orange" stroke="orange" points="709.61,-307.11 704.91,-316.6 714.5,-312.11 709.61,-307.11"/>
</a>
</g>
<text text-anchor="middle" x="787.29" y="-285.5" font-family="Helvetica,sans-Serif" font-size="10.00" fill="grey"> &lt; ReactionRoleDTO &gt;</text>
</g>
<!-- Node14 -->
<g id="Node000014" class="node">
<title>Node14</title>
<g id="a_Node000014"><a xlink:href="classIRepository.html" target="_top" xlink:title=" ">
<polygon fill="white" stroke="none" points="1019,-259 879.75,-259 879.75,-159 1019,-159 1019,-259"/>
<text text-anchor="start" x="883.75" y="-245.5" font-family="Helvetica,sans-Serif" font-size="10.00">IRepository&lt; ResourceDTO &gt;</text>
<text text-anchor="start" x="947.88" y="-229.5" font-family="Helvetica,sans-Serif" font-size="10.00"> </text>
<text text-anchor="start" x="904.5" y="-213.5" font-family="Helvetica,sans-Serif" font-size="10.00">+</text>
<text text-anchor="start" x="935.25" y="-213.5" font-family="Helvetica,sans-Serif" font-size="10.00">create()</text>
<text text-anchor="start" x="904.5" y="-197.5" font-family="Helvetica,sans-Serif" font-size="10.00">+</text>
<text text-anchor="start" x="935.25" y="-197.5" font-family="Helvetica,sans-Serif" font-size="10.00">remove()</text>
<text text-anchor="start" x="904.5" y="-181.5" font-family="Helvetica,sans-Serif" font-size="10.00">+</text>
<text text-anchor="start" x="935.25" y="-181.5" font-family="Helvetica,sans-Serif" font-size="10.00">get()</text>
<text text-anchor="start" x="904.5" y="-165.5" font-family="Helvetica,sans-Serif" font-size="10.00">+</text>
<text text-anchor="start" x="935.25" y="-165.5" font-family="Helvetica,sans-Serif" font-size="10.00">update()</text>
<polygon fill="#666666" stroke="#666666" points="879.75,-241 879.75,-241 1019,-241 1019,-241 879.75,-241"/>
<polygon fill="#666666" stroke="#666666" points="879.75,-225 879.75,-225 1019,-225 1019,-225 879.75,-225"/>
<polygon fill="none" stroke="#666666" points="879.75,-159 879.75,-259 1019,-259 1019,-159 879.75,-159"/>
</a>
</g>
</g>
<!-- Node1&#45;&gt;Node14 -->
<g id="edge13_Node000001_Node000014" class="edge">
<title>Node1&#45;&gt;Node14</title>
<g id="a_edge13_Node000001_Node000014"><a xlink:title=" ">
<path fill="none" stroke="orange" d="M714.58,-346.22C752.47,-334.83 801.92,-317.51 842.38,-295 860.52,-284.91 878.76,-271.78 894.91,-258.88"/>
<polygon fill="orange" stroke="orange" points="713.78,-342.81 705.17,-348.99 715.75,-349.53 713.78,-342.81"/>
</a>
</g>
<text text-anchor="middle" x="903.42" y="-285.5" font-family="Helvetica,sans-Serif" font-size="10.00" fill="grey"> &lt; ResourceDTO &gt;</text>
</g>
<!-- Node16 -->
<g id="Node000016" class="node">
<title>Node16</title>
<g id="a_Node000016"><a xlink:href="classIRepository.html" target="_top" xlink:title=" ">
<polygon fill="white" stroke="none" points="1155.5,-259 1037.25,-259 1037.25,-159 1155.5,-159 1155.5,-259"/>
<text text-anchor="start" x="1041.25" y="-245.5" font-family="Helvetica,sans-Serif" font-size="10.00">IRepository&lt; UserDTO &gt;</text>
<text text-anchor="start" x="1094.88" y="-229.5" font-family="Helvetica,sans-Serif" font-size="10.00"> </text>
<text text-anchor="start" x="1056.75" y="-213.5" font-family="Helvetica,sans-Serif" font-size="10.00">+</text>
<text text-anchor="start" x="1082.25" y="-213.5" font-family="Helvetica,sans-Serif" font-size="10.00">create()</text>
<text text-anchor="start" x="1056.75" y="-197.5" font-family="Helvetica,sans-Serif" font-size="10.00">+</text>
<text text-anchor="start" x="1082.25" y="-197.5" font-family="Helvetica,sans-Serif" font-size="10.00">remove()</text>
<text text-anchor="start" x="1056.75" y="-181.5" font-family="Helvetica,sans-Serif" font-size="10.00">+</text>
<text text-anchor="start" x="1082.25" y="-181.5" font-family="Helvetica,sans-Serif" font-size="10.00">get()</text>
<text text-anchor="start" x="1056.75" y="-165.5" font-family="Helvetica,sans-Serif" font-size="10.00">+</text>
<text text-anchor="start" x="1082.25" y="-165.5" font-family="Helvetica,sans-Serif" font-size="10.00">update()</text>
<polygon fill="#666666" stroke="#666666" points="1037.25,-241 1037.25,-241 1155.5,-241 1155.5,-241 1037.25,-241"/>
<polygon fill="#666666" stroke="#666666" points="1037.25,-225 1037.25,-225 1155.5,-225 1155.5,-225 1037.25,-225"/>
<polygon fill="none" stroke="#666666" points="1037.25,-159 1037.25,-259 1155.5,-259 1155.5,-159 1037.25,-159"/>
</a>
</g>
</g>
<!-- Node1&#45;&gt;Node16 -->
<g id="edge15_Node000001_Node000016" class="edge">
<title>Node1&#45;&gt;Node16</title>
<g id="a_edge15_Node000001_Node000016"><a xlink:title=" ">
<path fill="none" stroke="orange" d="M715.14,-356.31C792.03,-346.86 927.67,-322.86 1028.38,-265 1031.67,-263.11 1034.96,-261.06 1038.23,-258.91"/>
<polygon fill="orange" stroke="orange" points="714.8,-352.82 705.28,-357.47 715.62,-359.77 714.8,-352.82"/>
</a>
</g>
<text text-anchor="middle" x="1022.93" y="-285.5" font-family="Helvetica,sans-Serif" font-size="10.00" fill="grey"> &lt; UserDTO &gt;</text>
</g>
<!-- Node18 -->
<g id="Node000018" class="node">
<title>Node18</title>
<g id="a_Node000018"><a xlink:href="classIRepository.html" target="_top" xlink:title=" ">
<polygon fill="white" stroke="none" points="1311.25,-259 1173.5,-259 1173.5,-159 1311.25,-159 1311.25,-259"/>
<text text-anchor="start" x="1177.5" y="-245.5" font-family="Helvetica,sans-Serif" font-size="10.00">IRepository&lt; WebUserDTO &gt;</text>
<text text-anchor="start" x="1240.88" y="-229.5" font-family="Helvetica,sans-Serif" font-size="10.00"> </text>
<text text-anchor="start" x="1197.88" y="-213.5" font-family="Helvetica,sans-Serif" font-size="10.00">+</text>
<text text-anchor="start" x="1228.25" y="-213.5" font-family="Helvetica,sans-Serif" font-size="10.00">create()</text>
<text text-anchor="start" x="1197.88" y="-197.5" font-family="Helvetica,sans-Serif" font-size="10.00">+</text>
<text text-anchor="start" x="1228.25" y="-197.5" font-family="Helvetica,sans-Serif" font-size="10.00">remove()</text>
<text text-anchor="start" x="1197.88" y="-181.5" font-family="Helvetica,sans-Serif" font-size="10.00">+</text>
<text text-anchor="start" x="1228.25" y="-181.5" font-family="Helvetica,sans-Serif" font-size="10.00">get()</text>
<text text-anchor="start" x="1197.88" y="-165.5" font-family="Helvetica,sans-Serif" font-size="10.00">+</text>
<text text-anchor="start" x="1228.25" y="-165.5" font-family="Helvetica,sans-Serif" font-size="10.00">update()</text>
<polygon fill="#666666" stroke="#666666" points="1173.5,-241 1173.5,-241 1311.25,-241 1311.25,-241 1173.5,-241"/>
<polygon fill="#666666" stroke="#666666" points="1173.5,-225 1173.5,-225 1311.25,-225 1311.25,-225 1173.5,-225"/>
<polygon fill="none" stroke="#666666" points="1173.5,-159 1173.5,-259 1311.25,-259 1311.25,-159 1173.5,-159"/>
</a>
</g>
</g>
<!-- Node1&#45;&gt;Node18 -->
<g id="edge17_Node000001_Node000018" class="edge">
<title>Node1&#45;&gt;Node18</title>
<g id="a_edge17_Node000001_Node000018"><a xlink:title=" ">
<path fill="none" stroke="orange" d="M715.33,-360.34C813.73,-355.53 1013.59,-336.91 1164.38,-265 1168.26,-263.15 1172.17,-261.1 1176.04,-258.92"/>
<polygon fill="orange" stroke="orange" points="715.19,-356.84 705.36,-360.79 715.51,-363.84 715.19,-356.84"/>
</a>
</g>
<text text-anchor="middle" x="1154.15" y="-285.5" font-family="Helvetica,sans-Serif" font-size="10.00" fill="grey"> &lt; WebUserDTO &gt;</text>
</g>
<!-- Node3 -->
<g id="Node000003" class="node">
<title>Node3</title>
<g id="a_Node000003"><a xlink:href="classBlacklistRepository.html" target="_top" xlink:title=" ">
<polygon fill="white" stroke="none" points="113.75,-116 21,-116 21,0 113.75,0 113.75,-116"/>
<text text-anchor="start" x="25" y="-102.5" font-family="Helvetica,sans-Serif" font-size="10.00">BlacklistRepository</text>
<text text-anchor="start" x="65.88" y="-86.5" font-family="Helvetica,sans-Serif" font-size="10.00"> </text>
<text text-anchor="start" x="34.12" y="-70.5" font-family="Helvetica,sans-Serif" font-size="10.00">+</text>
<text text-anchor="start" x="53.25" y="-70.5" font-family="Helvetica,sans-Serif" font-size="10.00">create()</text>
<text text-anchor="start" x="34.12" y="-54.5" font-family="Helvetica,sans-Serif" font-size="10.00">+</text>
<text text-anchor="start" x="53.25" y="-54.5" font-family="Helvetica,sans-Serif" font-size="10.00">remove()</text>
<text text-anchor="start" x="34.12" y="-38.5" font-family="Helvetica,sans-Serif" font-size="10.00">+</text>
<text text-anchor="start" x="53.25" y="-38.5" font-family="Helvetica,sans-Serif" font-size="10.00">get()</text>
<text text-anchor="start" x="34.12" y="-22.5" font-family="Helvetica,sans-Serif" font-size="10.00">+</text>
<text text-anchor="start" x="53.25" y="-22.5" font-family="Helvetica,sans-Serif" font-size="10.00">update()</text>
<text text-anchor="start" x="34.12" y="-6.5" font-family="Helvetica,sans-Serif" font-size="10.00">+</text>
<text text-anchor="start" x="53.25" y="-6.5" font-family="Helvetica,sans-Serif" font-size="10.00">getAll()</text>
<polygon fill="#666666" stroke="#666666" points="21,-98 21,-98 113.75,-98 113.75,-98 21,-98"/>
<polygon fill="#666666" stroke="#666666" points="21,-82 21,-82 113.75,-82 113.75,-82 21,-82"/>
<polygon fill="none" stroke="#666666" points="21,0 21,-116 113.75,-116 113.75,0 21,0"/>
</a>
</g>
</g>
<!-- Node2&#45;&gt;Node3 -->
<g id="edge2_Node000002_Node000003" class="edge">
<title>Node2&#45;&gt;Node3</title>
<g id="a_edge2_Node000002_Node000003"><a xlink:title=" ">
<path fill="none" stroke="#63b8ff" d="M67.38,-147.94C67.38,-137.38 67.38,-126.4 67.38,-115.93"/>
<polygon fill="none" stroke="#63b8ff" points="63.88,-147.7 67.38,-157.7 70.88,-147.7 63.88,-147.7"/>
</a>
</g>
</g>
<!-- Node5 -->
<g id="Node000005" class="node">
<title>Node5</title>
<g id="a_Node000005"><a xlink:href="classChallengeBadgeRepository.html" target="_top" xlink:title=" ">
<polygon fill="white" stroke="none" points="285.62,-108 159.12,-108 159.12,-8 285.62,-8 285.62,-108"/>
<text text-anchor="start" x="163.12" y="-94.5" font-family="Helvetica,sans-Serif" font-size="10.00">ChallengeBadgeRepository</text>
<text text-anchor="start" x="220.88" y="-78.5" font-family="Helvetica,sans-Serif" font-size="10.00"> </text>
<text text-anchor="start" x="180.69" y="-62.5" font-family="Helvetica,sans-Serif" font-size="10.00">+</text>
<text text-anchor="start" x="208.25" y="-62.5" font-family="Helvetica,sans-Serif" font-size="10.00">create()</text>
<text text-anchor="start" x="180.69" y="-46.5" font-family="Helvetica,sans-Serif" font-size="10.00">+</text>
<text text-anchor="start" x="208.25" y="-46.5" font-family="Helvetica,sans-Serif" font-size="10.00">remove()</text>
<text text-anchor="start" x="180.69" y="-30.5" font-family="Helvetica,sans-Serif" font-size="10.00">+</text>
<text text-anchor="start" x="208.25" y="-30.5" font-family="Helvetica,sans-Serif" font-size="10.00">get()</text>
<text text-anchor="start" x="180.69" y="-14.5" font-family="Helvetica,sans-Serif" font-size="10.00">+</text>
<text text-anchor="start" x="208.25" y="-14.5" font-family="Helvetica,sans-Serif" font-size="10.00">update()</text>
<polygon fill="#666666" stroke="#666666" points="159.12,-90 159.12,-90 285.62,-90 285.62,-90 159.12,-90"/>
<polygon fill="#666666" stroke="#666666" points="159.12,-74 159.12,-74 285.62,-74 285.62,-74 159.12,-74"/>
<polygon fill="none" stroke="#666666" points="159.12,-8 159.12,-108 285.62,-108 285.62,-8 159.12,-8"/>
</a>
</g>
</g>
<!-- Node4&#45;&gt;Node5 -->
<g id="edge4_Node000004_Node000005" class="edge">
<title>Node4&#45;&gt;Node5</title>
<g id="a_edge4_Node000004_Node000005"><a xlink:title=" ">
<path fill="none" stroke="#63b8ff" d="M222.38,-141.98C222.38,-130.46 222.38,-118.66 222.38,-107.72"/>
<polygon fill="none" stroke="#63b8ff" points="218.88,-141.85 222.38,-151.85 225.88,-141.85 218.88,-141.85"/>
</a>
</g>
</g>
<!-- Node7 -->
<g id="Node000007" class="node">
<title>Node7</title>
<g id="a_Node000007"><a xlink:href="classChallengeRoleRepository.html" target="_top" xlink:title=" ">
<polygon fill="white" stroke="none" points="434.88,-108 315.88,-108 315.88,-8 434.88,-8 434.88,-108"/>
<text text-anchor="start" x="319.88" y="-94.5" font-family="Helvetica,sans-Serif" font-size="10.00">ChallengeRoleRepository</text>
<text text-anchor="start" x="373.88" y="-78.5" font-family="Helvetica,sans-Serif" font-size="10.00"> </text>
<text text-anchor="start" x="335.56" y="-62.5" font-family="Helvetica,sans-Serif" font-size="10.00">+</text>
<text text-anchor="start" x="361.25" y="-62.5" font-family="Helvetica,sans-Serif" font-size="10.00">create()</text>
<text text-anchor="start" x="335.56" y="-46.5" font-family="Helvetica,sans-Serif" font-size="10.00">+</text>
<text text-anchor="start" x="361.25" y="-46.5" font-family="Helvetica,sans-Serif" font-size="10.00">remove()</text>
<text text-anchor="start" x="335.56" y="-30.5" font-family="Helvetica,sans-Serif" font-size="10.00">+</text>
<text text-anchor="start" x="361.25" y="-30.5" font-family="Helvetica,sans-Serif" font-size="10.00">get()</text>
<text text-anchor="start" x="335.56" y="-14.5" font-family="Helvetica,sans-Serif" font-size="10.00">+</text>
<text text-anchor="start" x="361.25" y="-14.5" font-family="Helvetica,sans-Serif" font-size="10.00">update()</text>
<polygon fill="#666666" stroke="#666666" points="315.88,-90 315.88,-90 434.88,-90 434.88,-90 315.88,-90"/>
<polygon fill="#666666" stroke="#666666" points="315.88,-74 315.88,-74 434.88,-74 434.88,-74 315.88,-74"/>
<polygon fill="none" stroke="#666666" points="315.88,-8 315.88,-108 434.88,-108 434.88,-8 315.88,-8"/>
</a>
</g>
</g>
<!-- Node6&#45;&gt;Node7 -->
<g id="edge6_Node000006_Node000007" class="edge">
<title>Node6&#45;&gt;Node7</title>
<g id="a_edge6_Node000006_Node000007"><a xlink:title=" ">
<path fill="none" stroke="#63b8ff" d="M375.38,-141.98C375.38,-130.46 375.38,-118.66 375.38,-107.72"/>
<polygon fill="none" stroke="#63b8ff" points="371.88,-141.85 375.38,-151.85 378.88,-141.85 371.88,-141.85"/>
</a>
</g>
</g>
<!-- Node9 -->
<g id="Node000009" class="node">
<title>Node9</title>
<g id="a_Node000009"><a xlink:href="classNotificationRepository.html" target="_top" xlink:title=" ">
<polygon fill="white" stroke="none" points="569.75,-116 465,-116 465,0 569.75,0 569.75,-116"/>
<text text-anchor="start" x="469" y="-102.5" font-family="Helvetica,sans-Serif" font-size="10.00">NotificationRepository</text>
<text text-anchor="start" x="515.88" y="-86.5" font-family="Helvetica,sans-Serif" font-size="10.00"> </text>
<text text-anchor="start" x="481.12" y="-70.5" font-family="Helvetica,sans-Serif" font-size="10.00">+</text>
<text text-anchor="start" x="503.25" y="-70.5" font-family="Helvetica,sans-Serif" font-size="10.00">create()</text>
<text text-anchor="start" x="481.12" y="-54.5" font-family="Helvetica,sans-Serif" font-size="10.00">+</text>
<text text-anchor="start" x="503.25" y="-54.5" font-family="Helvetica,sans-Serif" font-size="10.00">remove()</text>
<text text-anchor="start" x="481.12" y="-38.5" font-family="Helvetica,sans-Serif" font-size="10.00">+</text>
<text text-anchor="start" x="503.25" y="-38.5" font-family="Helvetica,sans-Serif" font-size="10.00">get()</text>
<text text-anchor="start" x="481.12" y="-22.5" font-family="Helvetica,sans-Serif" font-size="10.00">+</text>
<text text-anchor="start" x="503.25" y="-22.5" font-family="Helvetica,sans-Serif" font-size="10.00">update()</text>
<text text-anchor="start" x="481.12" y="-6.5" font-family="Helvetica,sans-Serif" font-size="10.00">+</text>
<text text-anchor="start" x="503.25" y="-6.5" font-family="Helvetica,sans-Serif" font-size="10.00">getAll()</text>
<polygon fill="#666666" stroke="#666666" points="465,-98 465,-98 569.75,-98 569.75,-98 465,-98"/>
<polygon fill="#666666" stroke="#666666" points="465,-82 465,-82 569.75,-82 569.75,-82 465,-82"/>
<polygon fill="none" stroke="#666666" points="465,0 465,-116 569.75,-116 569.75,0 465,0"/>
</a>
</g>
</g>
<!-- Node8&#45;&gt;Node9 -->
<g id="edge8_Node000008_Node000009" class="edge">
<title>Node8&#45;&gt;Node9</title>
<g id="a_edge8_Node000008_Node000009"><a xlink:title=" ">
<path fill="none" stroke="#63b8ff" d="M517.38,-142.03C517.38,-133.31 517.38,-124.43 517.38,-115.88"/>
<polygon fill="none" stroke="#63b8ff" points="513.88,-141.85 517.38,-151.85 520.88,-141.85 513.88,-141.85"/>
</a>
</g>
</g>
<!-- Node11 -->
<g id="Node000011" class="node">
<title>Node11</title>
<g id="a_Node000011"><a xlink:href="classPortalRepository.html" target="_top" xlink:title=" ">
<polygon fill="white" stroke="none" points="695.75,-116 615,-116 615,0 695.75,0 695.75,-116"/>
<text text-anchor="start" x="619" y="-102.5" font-family="Helvetica,sans-Serif" font-size="10.00">PortalRepository</text>
<text text-anchor="start" x="653.88" y="-86.5" font-family="Helvetica,sans-Serif" font-size="10.00"> </text>
<text text-anchor="start" x="625.12" y="-70.5" font-family="Helvetica,sans-Serif" font-size="10.00">+</text>
<text text-anchor="start" x="641.25" y="-70.5" font-family="Helvetica,sans-Serif" font-size="10.00">create()</text>
<text text-anchor="start" x="625.12" y="-54.5" font-family="Helvetica,sans-Serif" font-size="10.00">+</text>
<text text-anchor="start" x="641.25" y="-54.5" font-family="Helvetica,sans-Serif" font-size="10.00">remove()</text>
<text text-anchor="start" x="625.12" y="-38.5" font-family="Helvetica,sans-Serif" font-size="10.00">+</text>
<text text-anchor="start" x="641.25" y="-38.5" font-family="Helvetica,sans-Serif" font-size="10.00">get()</text>
<text text-anchor="start" x="625.12" y="-22.5" font-family="Helvetica,sans-Serif" font-size="10.00">+</text>
<text text-anchor="start" x="641.25" y="-22.5" font-family="Helvetica,sans-Serif" font-size="10.00">update()</text>
<text text-anchor="start" x="625.12" y="-6.5" font-family="Helvetica,sans-Serif" font-size="10.00">+</text>
<text text-anchor="start" x="641.25" y="-6.5" font-family="Helvetica,sans-Serif" font-size="10.00">getAll()</text>
<polygon fill="#666666" stroke="#666666" points="615,-98 615,-98 695.75,-98 695.75,-98 615,-98"/>
<polygon fill="#666666" stroke="#666666" points="615,-82 615,-82 695.75,-82 695.75,-82 615,-82"/>
<polygon fill="none" stroke="#666666" points="615,0 615,-116 695.75,-116 695.75,0 615,0"/>
</a>
</g>
</g>
<!-- Node10&#45;&gt;Node11 -->
<g id="edge10_Node000010_Node000011" class="edge">
<title>Node10&#45;&gt;Node11</title>
<g id="a_edge10_Node000010_Node000011"><a xlink:title=" ">
<path fill="none" stroke="#63b8ff" d="M655.38,-147.94C655.38,-137.38 655.38,-126.4 655.38,-115.93"/>
<polygon fill="none" stroke="#63b8ff" points="651.88,-147.7 655.38,-157.7 658.88,-147.7 651.88,-147.7"/>
</a>
</g>
</g>
<!-- Node13 -->
<g id="Node000013" class="node">
<title>Node13</title>
<g id="a_Node000013"><a xlink:href="classReactionRoleRepository.html" target="_top" xlink:title=" ">
<polygon fill="white" stroke="none" points="855.62,-116 741.12,-116 741.12,0 855.62,0 855.62,-116"/>
<text text-anchor="start" x="745.12" y="-102.5" font-family="Helvetica,sans-Serif" font-size="10.00">ReactionRoleRepository</text>
<text text-anchor="start" x="796.88" y="-86.5" font-family="Helvetica,sans-Serif" font-size="10.00"> </text>
<text text-anchor="start" x="759.69" y="-70.5" font-family="Helvetica,sans-Serif" font-size="10.00">+</text>
<text text-anchor="start" x="784.25" y="-70.5" font-family="Helvetica,sans-Serif" font-size="10.00">create()</text>
<text text-anchor="start" x="759.69" y="-54.5" font-family="Helvetica,sans-Serif" font-size="10.00">+</text>
<text text-anchor="start" x="784.25" y="-54.5" font-family="Helvetica,sans-Serif" font-size="10.00">remove()</text>
<text text-anchor="start" x="759.69" y="-38.5" font-family="Helvetica,sans-Serif" font-size="10.00">+</text>
<text text-anchor="start" x="784.25" y="-38.5" font-family="Helvetica,sans-Serif" font-size="10.00">get()</text>
<text text-anchor="start" x="759.69" y="-22.5" font-family="Helvetica,sans-Serif" font-size="10.00">+</text>
<text text-anchor="start" x="784.25" y="-22.5" font-family="Helvetica,sans-Serif" font-size="10.00">get()</text>
<text text-anchor="start" x="759.69" y="-6.5" font-family="Helvetica,sans-Serif" font-size="10.00">+</text>
<text text-anchor="start" x="784.25" y="-6.5" font-family="Helvetica,sans-Serif" font-size="10.00">update()</text>
<polygon fill="#666666" stroke="#666666" points="741.12,-98 741.12,-98 855.62,-98 855.62,-98 741.12,-98"/>
<polygon fill="#666666" stroke="#666666" points="741.12,-82 741.12,-82 855.62,-82 855.62,-82 741.12,-82"/>
<polygon fill="none" stroke="#666666" points="741.12,0 741.12,-116 855.62,-116 855.62,0 741.12,0"/>
</a>
</g>
</g>
<!-- Node12&#45;&gt;Node13 -->
<g id="edge12_Node000012_Node000013" class="edge">
<title>Node12&#45;&gt;Node13</title>
<g id="a_edge12_Node000012_Node000013"><a xlink:title=" ">
<path fill="none" stroke="#63b8ff" d="M798.38,-142.03C798.38,-133.31 798.38,-124.43 798.38,-115.88"/>
<polygon fill="none" stroke="#63b8ff" points="794.88,-141.85 798.38,-151.85 801.88,-141.85 794.88,-141.85"/>
</a>
</g>
</g>
<!-- Node15 -->
<g id="Node000015" class="node">
<title>Node15</title>
<g id="a_Node000015"><a xlink:href="classResourceRepository.html" target="_top" xlink:title=" ">
<polygon fill="white" stroke="none" points="998,-116 900.75,-116 900.75,0 998,0 998,-116"/>
<text text-anchor="start" x="904.75" y="-102.5" font-family="Helvetica,sans-Serif" font-size="10.00">ResourceRepository</text>
<text text-anchor="start" x="947.88" y="-86.5" font-family="Helvetica,sans-Serif" font-size="10.00"> </text>
<text text-anchor="start" x="915" y="-70.5" font-family="Helvetica,sans-Serif" font-size="10.00">+</text>
<text text-anchor="start" x="935.25" y="-70.5" font-family="Helvetica,sans-Serif" font-size="10.00">create()</text>
<text text-anchor="start" x="915" y="-54.5" font-family="Helvetica,sans-Serif" font-size="10.00">+</text>
<text text-anchor="start" x="935.25" y="-54.5" font-family="Helvetica,sans-Serif" font-size="10.00">remove()</text>
<text text-anchor="start" x="915" y="-38.5" font-family="Helvetica,sans-Serif" font-size="10.00">+</text>
<text text-anchor="start" x="935.25" y="-38.5" font-family="Helvetica,sans-Serif" font-size="10.00">get()</text>
<text text-anchor="start" x="915" y="-22.5" font-family="Helvetica,sans-Serif" font-size="10.00">+</text>
<text text-anchor="start" x="935.25" y="-22.5" font-family="Helvetica,sans-Serif" font-size="10.00">get()</text>
<text text-anchor="start" x="915" y="-6.5" font-family="Helvetica,sans-Serif" font-size="10.00">+</text>
<text text-anchor="start" x="935.25" y="-6.5" font-family="Helvetica,sans-Serif" font-size="10.00">update()</text>
<polygon fill="#666666" stroke="#666666" points="900.75,-98 900.75,-98 998,-98 998,-98 900.75,-98"/>
<polygon fill="#666666" stroke="#666666" points="900.75,-82 900.75,-82 998,-82 998,-82 900.75,-82"/>
<polygon fill="none" stroke="#666666" points="900.75,0 900.75,-116 998,-116 998,0 900.75,0"/>
</a>
</g>
</g>
<!-- Node14&#45;&gt;Node15 -->
<g id="edge14_Node000014_Node000015" class="edge">
<title>Node14&#45;&gt;Node15</title>
<g id="a_edge14_Node000014_Node000015"><a xlink:title=" ">
<path fill="none" stroke="#63b8ff" d="M949.38,-147.94C949.38,-137.38 949.38,-126.4 949.38,-115.93"/>
<polygon fill="none" stroke="#63b8ff" points="945.88,-147.7 949.38,-157.7 952.88,-147.7 945.88,-147.7"/>
</a>
</g>
</g>
<!-- Node17 -->
<g id="Node000017" class="node">
<title>Node17</title>
<g id="a_Node000017"><a xlink:href="classUserRepository.html" target="_top" xlink:title=" ">
<polygon fill="white" stroke="none" points="1134.5,-108 1058.25,-108 1058.25,-8 1134.5,-8 1134.5,-108"/>
<text text-anchor="start" x="1062.25" y="-94.5" font-family="Helvetica,sans-Serif" font-size="10.00">UserRepository</text>
<text text-anchor="start" x="1094.88" y="-78.5" font-family="Helvetica,sans-Serif" font-size="10.00"> </text>
<text text-anchor="start" x="1067.25" y="-62.5" font-family="Helvetica,sans-Serif" font-size="10.00">+</text>
<text text-anchor="start" x="1082.25" y="-62.5" font-family="Helvetica,sans-Serif" font-size="10.00">create()</text>
<text text-anchor="start" x="1067.25" y="-46.5" font-family="Helvetica,sans-Serif" font-size="10.00">+</text>
<text text-anchor="start" x="1082.25" y="-46.5" font-family="Helvetica,sans-Serif" font-size="10.00">remove()</text>
<text text-anchor="start" x="1067.25" y="-30.5" font-family="Helvetica,sans-Serif" font-size="10.00">+</text>
<text text-anchor="start" x="1082.25" y="-30.5" font-family="Helvetica,sans-Serif" font-size="10.00">get()</text>
<text text-anchor="start" x="1067.25" y="-14.5" font-family="Helvetica,sans-Serif" font-size="10.00">+</text>
<text text-anchor="start" x="1082.25" y="-14.5" font-family="Helvetica,sans-Serif" font-size="10.00">update()</text>
<polygon fill="#666666" stroke="#666666" points="1058.25,-90 1058.25,-90 1134.5,-90 1134.5,-90 1058.25,-90"/>
<polygon fill="#666666" stroke="#666666" points="1058.25,-74 1058.25,-74 1134.5,-74 1134.5,-74 1058.25,-74"/>
<polygon fill="none" stroke="#666666" points="1058.25,-8 1058.25,-108 1134.5,-108 1134.5,-8 1058.25,-8"/>
</a>
</g>
</g>
<!-- Node16&#45;&gt;Node17 -->
<g id="edge16_Node000016_Node000017" class="edge">
<title>Node16&#45;&gt;Node17</title>
<g id="a_edge16_Node000016_Node000017"><a xlink:title=" ">
<path fill="none" stroke="#63b8ff" d="M1096.38,-147.77C1096.38,-134.52 1096.38,-120.64 1096.38,-107.9"/>
<polygon fill="none" stroke="#63b8ff" points="1092.88,-147.7 1096.38,-157.7 1099.88,-147.7 1092.88,-147.7"/>
</a>
</g>
</g>
<!-- Node19 -->
<g id="Node000019" class="node">
<title>Node19</title>
<g id="a_Node000019"><a xlink:href="classWebUserRepository.html" target="_top" xlink:title=" ">
<polygon fill="white" stroke="none" points="1290.25,-116 1194.5,-116 1194.5,0 1290.25,0 1290.25,-116"/>
<text text-anchor="start" x="1198.5" y="-102.5" font-family="Helvetica,sans-Serif" font-size="10.00">WebUserRepository</text>
<text text-anchor="start" x="1240.88" y="-86.5" font-family="Helvetica,sans-Serif" font-size="10.00"> </text>
<text text-anchor="start" x="1208.38" y="-70.5" font-family="Helvetica,sans-Serif" font-size="10.00">+</text>
<text text-anchor="start" x="1228.25" y="-70.5" font-family="Helvetica,sans-Serif" font-size="10.00">create()</text>
<text text-anchor="start" x="1208.38" y="-54.5" font-family="Helvetica,sans-Serif" font-size="10.00">+</text>
<text text-anchor="start" x="1228.25" y="-54.5" font-family="Helvetica,sans-Serif" font-size="10.00">remove()</text>
<text text-anchor="start" x="1208.38" y="-38.5" font-family="Helvetica,sans-Serif" font-size="10.00">+</text>
<text text-anchor="start" x="1228.25" y="-38.5" font-family="Helvetica,sans-Serif" font-size="10.00">get()</text>
<text text-anchor="start" x="1208.38" y="-22.5" font-family="Helvetica,sans-Serif" font-size="10.00">+</text>
<text text-anchor="start" x="1228.25" y="-22.5" font-family="Helvetica,sans-Serif" font-size="10.00">get()</text>
<text text-anchor="start" x="1208.38" y="-6.5" font-family="Helvetica,sans-Serif" font-size="10.00">+</text>
<text text-anchor="start" x="1228.25" y="-6.5" font-family="Helvetica,sans-Serif" font-size="10.00">update()</text>
<polygon fill="#666666" stroke="#666666" points="1194.5,-98 1194.5,-98 1290.25,-98 1290.25,-98 1194.5,-98"/>
<polygon fill="#666666" stroke="#666666" points="1194.5,-82 1194.5,-82 1290.25,-82 1290.25,-82 1194.5,-82"/>
<polygon fill="none" stroke="#666666" points="1194.5,0 1194.5,-116 1290.25,-116 1290.25,0 1194.5,0"/>
</a>
</g>
</g>
<!-- Node18&#45;&gt;Node19 -->
<g id="edge18_Node000018_Node000019" class="edge">
<title>Node18&#45;&gt;Node19</title>
<g id="a_edge18_Node000018_Node000019"><a xlink:title=" ">
<path fill="none" stroke="#63b8ff" d="M1242.38,-147.94C1242.38,-137.38 1242.38,-126.4 1242.38,-115.93"/>
<polygon fill="none" stroke="#63b8ff" points="1238.88,-147.7 1242.38,-157.7 1245.88,-147.7 1238.88,-147.7"/>
</a>
</g>
</g>
</g>
</svg>
