<?xml version="1.0" encoding="UTF-8" standalone="no"?>
<!DOCTYPE svg PUBLIC "-//W3C//DTD SVG 1.1//EN"
 "http://www.w3.org/Graphics/SVG/1.1/DTD/svg11.dtd">
<!-- Generated by graphviz version 9.0.0 (0)
 -->
<!-- Title: IGlobalSlashCommand Pages: 1 -->
<svg width="1301pt" height="292pt"
 viewBox="0.00 0.00 1301.00 292.00" xmlns="http://www.w3.org/2000/svg" xmlns:xlink="http://www.w3.org/1999/xlink">
<g id="graph0" class="graph" transform="scale(1 1) rotate(0) translate(4 288)">
<title>IGlobalSlashCommand</title>
<!-- Node1 -->
<g id="Node000001" class="node">
<title>Node1</title>
<g id="a_Node000001"><a xlink:title=" ">
<polygon fill="#999999" stroke="none" points="755.5,-284 642.5,-284 642.5,-200 755.5,-200 755.5,-284"/>
<text text-anchor="start" x="648.75" y="-270.5" font-family="Helvetica,sans-Serif" font-size="10.00">IGlobalSlashCommand</text>
<text text-anchor="start" x="646.5" y="-254.5" font-family="Helvetica,sans-Serif" font-size="10.00">+</text>
<text text-anchor="start" x="656.5" y="-254.5" font-family="Helvetica,sans-Serif" font-size="10.00">command_name</text>
<text text-anchor="start" x="646.5" y="-238.5" font-family="Helvetica,sans-Serif" font-size="10.00">+</text>
<text text-anchor="start" x="656.5" y="-238.5" font-family="Helvetica,sans-Serif" font-size="10.00">command_description</text>
<text text-anchor="start" x="646.5" y="-222.5" font-family="Helvetica,sans-Serif" font-size="10.00">+</text>
<text text-anchor="start" x="656.5" y="-222.5" font-family="Helvetica,sans-Serif" font-size="10.00">command_options</text>
<text text-anchor="start" x="646.5" y="-206.5" font-family="Helvetica,sans-Serif" font-size="10.00">+</text>
<text text-anchor="start" x="656.5" y="-206.5" font-family="Helvetica,sans-Serif" font-size="10.00">on_slashcommand()</text>
<polygon fill="#666666" stroke="#666666" points="642.5,-266 642.5,-266 755.5,-266 755.5,-266 642.5,-266"/>
<polygon fill="#666666" stroke="#666666" points="642.5,-218 642.5,-218 654.5,-218 654.5,-218 642.5,-218"/>
<polygon fill="#666666" stroke="#666666" points="654.5,-218 654.5,-218 755.5,-218 755.5,-218 654.5,-218"/>
<polygon fill="none" stroke="#666666" points="642.5,-200 642.5,-284 755.5,-284 755.5,-200 642.5,-200"/>
</a>
</g>
</g>
<!-- Node2 -->
<g id="Node000002" class="node">
<title>Node2</title>
<g id="a_Node000002"><a xlink:href="classChallengeRoleCommand.html" target="_top" xlink:title=" ">
<polygon fill="white" stroke="none" points="132,-132 0,-132 0,-32 132,-32 132,-132"/>
<text text-anchor="start" x="11.62" y="-118.5" font-family="Helvetica,sans-Serif" font-size="10.00">ChallengeRoleCommand</text>
<text text-anchor="start" x="64.5" y="-102.5" font-family="Helvetica,sans-Serif" font-size="10.00"> </text>
<text text-anchor="start" x="4" y="-86.5" font-family="Helvetica,sans-Serif" font-size="10.00">+</text>
<text text-anchor="start" x="14" y="-86.5" font-family="Helvetica,sans-Serif" font-size="10.00">ChallengeRoleCommand()</text>
<text text-anchor="start" x="4" y="-70.5" font-family="Helvetica,sans-Serif" font-size="10.00">+</text>
<text text-anchor="start" x="14" y="-70.5" font-family="Helvetica,sans-Serif" font-size="10.00">on_slashcommand()</text>
<text text-anchor="start" x="4" y="-54.5" font-family="Helvetica,sans-Serif" font-size="10.00">+</text>
<text text-anchor="start" x="14" y="-54.5" font-family="Helvetica,sans-Serif" font-size="10.00">on_button_click()</text>
<text text-anchor="start" x="4" y="-38.5" font-family="Helvetica,sans-Serif" font-size="10.00">+</text>
<text text-anchor="start" x="14" y="-38.5" font-family="Helvetica,sans-Serif" font-size="10.00">on_form_submit()</text>
<polygon fill="#666666" stroke="#666666" points="0,-114 0,-114 132,-114 132,-114 0,-114"/>
<polygon fill="#666666" stroke="#666666" points="0,-98 0,-98 132,-98 132,-98 0,-98"/>
<polygon fill="none" stroke="#666666" points="0,-32 0,-132 132,-132 132,-32 0,-32"/>
</a>
</g>
</g>
<!-- Node1&#45;&gt;Node2 -->
<g id="edge1_Node000001_Node000002" class="edge">
<title>Node1&#45;&gt;Node2</title>
<g id="a_edge1_Node000001_Node000002"><a xlink:title=" ">
<path fill="none" stroke="#63b8ff" d="M631.26,-237.34C501.9,-229.43 225.07,-207.82 141,-164 126.04,-156.2 112.51,-144.2 101.18,-131.8"/>
<polygon fill="none" stroke="#63b8ff" points="630.86,-240.82 641.05,-237.93 631.28,-233.84 630.86,-240.82"/>
</a>
</g>
</g>
<!-- Node3 -->
<g id="Node000003" class="node">
<title>Node3</title>
<g id="a_Node000003"><a xlink:href="classFlipCommand.html" target="_top" xlink:title=" ">
<polygon fill="white" stroke="none" points="255.5,-116 150.5,-116 150.5,-48 255.5,-48 255.5,-116"/>
<text text-anchor="start" x="172.62" y="-102.5" font-family="Helvetica,sans-Serif" font-size="10.00">FlipCommand</text>
<text text-anchor="start" x="201.5" y="-86.5" font-family="Helvetica,sans-Serif" font-size="10.00"> </text>
<text text-anchor="start" x="154.5" y="-70.5" font-family="Helvetica,sans-Serif" font-size="10.00">+</text>
<text text-anchor="start" x="164.5" y="-70.5" font-family="Helvetica,sans-Serif" font-size="10.00">FlipCommand()</text>
<text text-anchor="start" x="154.5" y="-54.5" font-family="Helvetica,sans-Serif" font-size="10.00">+</text>
<text text-anchor="start" x="164.5" y="-54.5" font-family="Helvetica,sans-Serif" font-size="10.00">on_slashcommand()</text>
<polygon fill="#666666" stroke="#666666" points="150.5,-98 150.5,-98 255.5,-98 255.5,-98 150.5,-98"/>
<polygon fill="#666666" stroke="#666666" points="150.5,-82 150.5,-82 255.5,-82 255.5,-82 150.5,-82"/>
<polygon fill="none" stroke="#666666" points="150.5,-48 150.5,-116 255.5,-116 255.5,-48 150.5,-48"/>
</a>
</g>
</g>
<!-- Node1&#45;&gt;Node3 -->
<g id="edge2_Node000001_Node000003" class="edge">
<title>Node1&#45;&gt;Node3</title>
<g id="a_edge2_Node000001_Node000003"><a xlink:title=" ">
<path fill="none" stroke="#63b8ff" d="M631.56,-235.12C525.25,-224.85 324.55,-201.15 264,-164 245.24,-152.49 230.26,-132.91 219.84,-115.88"/>
<polygon fill="none" stroke="#63b8ff" points="631.01,-238.58 641.29,-236.04 631.67,-231.61 631.01,-238.58"/>
</a>
</g>
</g>
<!-- Node4 -->
<g id="Node000004" class="node">
<title>Node4</title>
<g id="a_Node000004"><a xlink:href="classHelpCommand.html" target="_top" xlink:title=" ">
<polygon fill="white" stroke="none" points="378.5,-116 273.5,-116 273.5,-48 378.5,-48 378.5,-116"/>
<text text-anchor="start" x="293.38" y="-102.5" font-family="Helvetica,sans-Serif" font-size="10.00">HelpCommand</text>
<text text-anchor="start" x="324.5" y="-86.5" font-family="Helvetica,sans-Serif" font-size="10.00"> </text>
<text text-anchor="start" x="277.5" y="-70.5" font-family="Helvetica,sans-Serif" font-size="10.00">+</text>
<text text-anchor="start" x="287.5" y="-70.5" font-family="Helvetica,sans-Serif" font-size="10.00">HelpCommand()</text>
<text text-anchor="start" x="277.5" y="-54.5" font-family="Helvetica,sans-Serif" font-size="10.00">+</text>
<text text-anchor="start" x="287.5" y="-54.5" font-family="Helvetica,sans-Serif" font-size="10.00">on_slashcommand()</text>
<polygon fill="#666666" stroke="#666666" points="273.5,-98 273.5,-98 378.5,-98 378.5,-98 273.5,-98"/>
<polygon fill="#666666" stroke="#666666" points="273.5,-82 273.5,-82 378.5,-82 378.5,-82 273.5,-82"/>
<polygon fill="none" stroke="#666666" points="273.5,-48 273.5,-116 378.5,-116 378.5,-48 273.5,-48"/>
</a>
</g>
</g>
<!-- Node1&#45;&gt;Node4 -->
<g id="edge3_Node000001_Node000004" class="edge">
<title>Node1&#45;&gt;Node4</title>
<g id="a_edge3_Node000001_Node000004"><a xlink:title=" ">
<path fill="none" stroke="#63b8ff" d="M631.4,-237.36C564.43,-230.92 461.38,-213.12 387,-164 368.78,-151.97 353.9,-132.59 343.4,-115.8"/>
<polygon fill="none" stroke="#63b8ff" points="630.87,-240.83 641.14,-238.23 631.5,-233.85 630.87,-240.83"/>
</a>
</g>
</g>
<!-- Node5 -->
<g id="Node000005" class="node">
<title>Node5</title>
<g id="a_Node000005"><a xlink:href="classInviteCommand.html" target="_top" xlink:title=" ">
<polygon fill="white" stroke="none" points="501.5,-116 396.5,-116 396.5,-48 501.5,-48 501.5,-116"/>
<text text-anchor="start" x="414.5" y="-102.5" font-family="Helvetica,sans-Serif" font-size="10.00">InviteCommand</text>
<text text-anchor="start" x="447.5" y="-86.5" font-family="Helvetica,sans-Serif" font-size="10.00"> </text>
<text text-anchor="start" x="400.5" y="-70.5" font-family="Helvetica,sans-Serif" font-size="10.00">+</text>
<text text-anchor="start" x="410.5" y="-70.5" font-family="Helvetica,sans-Serif" font-size="10.00">InviteCommand()</text>
<text text-anchor="start" x="400.5" y="-54.5" font-family="Helvetica,sans-Serif" font-size="10.00">+</text>
<text text-anchor="start" x="410.5" y="-54.5" font-family="Helvetica,sans-Serif" font-size="10.00">on_slashcommand()</text>
<polygon fill="#666666" stroke="#666666" points="396.5,-98 396.5,-98 501.5,-98 501.5,-98 396.5,-98"/>
<polygon fill="#666666" stroke="#666666" points="396.5,-82 396.5,-82 501.5,-82 501.5,-82 396.5,-82"/>
<polygon fill="none" stroke="#666666" points="396.5,-48 396.5,-116 501.5,-116 501.5,-48 396.5,-48"/>
</a>
</g>
</g>
<!-- Node1&#45;&gt;Node5 -->
<g id="edge4_Node000001_Node000005" class="edge">
<title>Node1&#45;&gt;Node5</title>
<g id="a_edge4_Node000001_Node000005"><a xlink:title=" ">
<path fill="none" stroke="#63b8ff" d="M632.24,-223.5C593.84,-211.18 546.18,-191.86 510,-164 493.12,-151.01 478.57,-132.2 467.92,-115.98"/>
<polygon fill="none" stroke="#63b8ff" points="630.78,-226.71 641.37,-226.34 632.86,-220.03 630.78,-226.71"/>
</a>
</g>
</g>
<!-- Node6 -->
<g id="Node000006" class="node">
<title>Node6</title>
<g id="a_Node000006"><a xlink:href="classMemberCommand.html" target="_top" xlink:title=" ">
<polygon fill="white" stroke="none" points="624.5,-116 519.5,-116 519.5,-48 624.5,-48 624.5,-116"/>
<text text-anchor="start" x="531.88" y="-102.5" font-family="Helvetica,sans-Serif" font-size="10.00">MemberCommand</text>
<text text-anchor="start" x="570.5" y="-86.5" font-family="Helvetica,sans-Serif" font-size="10.00"> </text>
<text text-anchor="start" x="523.5" y="-70.5" font-family="Helvetica,sans-Serif" font-size="10.00">+</text>
<text text-anchor="start" x="533.5" y="-70.5" font-family="Helvetica,sans-Serif" font-size="10.00">MemberCommand()</text>
<text text-anchor="start" x="523.5" y="-54.5" font-family="Helvetica,sans-Serif" font-size="10.00">+</text>
<text text-anchor="start" x="533.5" y="-54.5" font-family="Helvetica,sans-Serif" font-size="10.00">on_slashcommand()</text>
<polygon fill="#666666" stroke="#666666" points="519.5,-98 519.5,-98 624.5,-98 624.5,-98 519.5,-98"/>
<polygon fill="#666666" stroke="#666666" points="519.5,-82 519.5,-82 624.5,-82 624.5,-82 519.5,-82"/>
<polygon fill="none" stroke="#666666" points="519.5,-48 519.5,-116 624.5,-116 624.5,-48 519.5,-48"/>
</a>
</g>
</g>
<!-- Node1&#45;&gt;Node6 -->
<g id="edge5_Node000001_Node000006" class="edge">
<title>Node1&#45;&gt;Node6</title>
<g id="a_edge5_Node000001_Node000006"><a xlink:title=" ">
<path fill="none" stroke="#63b8ff" d="M655.9,-191.65C648.18,-182.54 640.27,-173.05 633,-164 620.43,-148.36 606.96,-130.58 595.88,-115.68"/>
<polygon fill="none" stroke="#63b8ff" points="653.1,-193.76 662.25,-199.09 658.42,-189.21 653.1,-193.76"/>
</a>
</g>
</g>
<!-- Node7 -->
<g id="Node000007" class="node">
<title>Node7</title>
<g id="a_Node000007"><a xlink:href="classReactionRoles.html" target="_top" xlink:title=" ">
<polygon fill="white" stroke="none" points="755.5,-144 642.5,-144 642.5,-20 755.5,-20 755.5,-144"/>
<text text-anchor="start" x="666.75" y="-130.5" font-family="Helvetica,sans-Serif" font-size="10.00">ReactionRoles</text>
<text text-anchor="start" x="697.5" y="-114.5" font-family="Helvetica,sans-Serif" font-size="10.00"> </text>
<text text-anchor="start" x="646.5" y="-98.5" font-family="Helvetica,sans-Serif" font-size="10.00">+</text>
<text text-anchor="start" x="656.5" y="-98.5" font-family="Helvetica,sans-Serif" font-size="10.00">ReactionRoles()</text>
<text text-anchor="start" x="646.5" y="-82.5" font-family="Helvetica,sans-Serif" font-size="10.00">+</text>
<text text-anchor="start" x="656.5" y="-82.5" font-family="Helvetica,sans-Serif" font-size="10.00">on_slashcommand()</text>
<text text-anchor="start" x="646.5" y="-66.5" font-family="Helvetica,sans-Serif" font-size="10.00">+</text>
<text text-anchor="start" x="656.5" y="-66.5" font-family="Helvetica,sans-Serif" font-size="10.00">on_message_reaction</text>
<text text-anchor="start" x="656.5" y="-54.5" font-family="Helvetica,sans-Serif" font-size="10.00">_add()</text>
<text text-anchor="start" x="646.5" y="-38.5" font-family="Helvetica,sans-Serif" font-size="10.00">+</text>
<text text-anchor="start" x="656.5" y="-38.5" font-family="Helvetica,sans-Serif" font-size="10.00">on_message_reaction</text>
<text text-anchor="start" x="656.5" y="-26.5" font-family="Helvetica,sans-Serif" font-size="10.00">_remove()</text>
<polygon fill="#666666" stroke="#666666" points="642.5,-126 642.5,-126 755.5,-126 755.5,-126 642.5,-126"/>
<polygon fill="#666666" stroke="#666666" points="642.5,-110 642.5,-110 755.5,-110 755.5,-110 642.5,-110"/>
<polygon fill="none" stroke="#666666" points="642.5,-20 642.5,-144 755.5,-144 755.5,-20 642.5,-20"/>
</a>
</g>
</g>
<!-- Node1&#45;&gt;Node7 -->
<g id="edge6_Node000001_Node000007" class="edge">
<title>Node1&#45;&gt;Node7</title>
<g id="a_edge6_Node000001_Node000007"><a xlink:title=" ">
<path fill="none" stroke="#63b8ff" d="M699,-189.05C699,-174.59 699,-158.75 699,-143.83"/>
<polygon fill="none" stroke="#63b8ff" points="695.5,-188.8 699,-198.8 702.5,-188.8 695.5,-188.8"/>
</a>
</g>
</g>
<!-- Node8 -->
<g id="Node000008" class="node">
<title>Node8</title>
<g id="a_Node000008"><a xlink:href="classResourcesCommand.html" target="_top" xlink:title=" ">
<polygon fill="white" stroke="none" points="890,-116 774,-116 774,-48 890,-48 890,-116"/>
<text text-anchor="start" x="785.88" y="-102.5" font-family="Helvetica,sans-Serif" font-size="10.00">ResourcesCommand</text>
<text text-anchor="start" x="830.5" y="-86.5" font-family="Helvetica,sans-Serif" font-size="10.00"> </text>
<text text-anchor="start" x="778" y="-70.5" font-family="Helvetica,sans-Serif" font-size="10.00">+</text>
<text text-anchor="start" x="788" y="-70.5" font-family="Helvetica,sans-Serif" font-size="10.00">ResourcesCommand()</text>
<text text-anchor="start" x="778" y="-54.5" font-family="Helvetica,sans-Serif" font-size="10.00">+</text>
<text text-anchor="start" x="788" y="-54.5" font-family="Helvetica,sans-Serif" font-size="10.00">on_slashcommand()</text>
<polygon fill="#666666" stroke="#666666" points="774,-98 774,-98 890,-98 890,-98 774,-98"/>
<polygon fill="#666666" stroke="#666666" points="774,-82 774,-82 890,-82 890,-82 774,-82"/>
<polygon fill="none" stroke="#666666" points="774,-48 774,-116 890,-116 890,-48 774,-48"/>
</a>
</g>
</g>
<!-- Node1&#45;&gt;Node8 -->
<g id="edge7_Node000001_Node000008" class="edge">
<title>Node1&#45;&gt;Node8</title>
<g id="a_edge7_Node000001_Node000008"><a xlink:title=" ">
<path fill="none" stroke="#63b8ff" d="M741.49,-191.69C749.34,-182.51 757.44,-172.98 765,-164 778.28,-148.23 792.89,-130.59 805.07,-115.82"/>
<polygon fill="none" stroke="#63b8ff" points="738.9,-189.33 735.06,-199.2 744.22,-193.88 738.9,-189.33"/>
</a>
</g>
</g>
<!-- Node9 -->
<g id="Node000009" class="node">
<title>Node9</title>
<g id="a_Node000009"><a xlink:href="classRollCommand.html" target="_top" xlink:title=" ">
<polygon fill="white" stroke="none" points="1013.5,-116 908.5,-116 908.5,-48 1013.5,-48 1013.5,-116"/>
<text text-anchor="start" x="929.88" y="-102.5" font-family="Helvetica,sans-Serif" font-size="10.00">RollCommand</text>
<text text-anchor="start" x="959.5" y="-86.5" font-family="Helvetica,sans-Serif" font-size="10.00"> </text>
<text text-anchor="start" x="912.5" y="-70.5" font-family="Helvetica,sans-Serif" font-size="10.00">+</text>
<text text-anchor="start" x="922.5" y="-70.5" font-family="Helvetica,sans-Serif" font-size="10.00">RollCommand()</text>
<text text-anchor="start" x="912.5" y="-54.5" font-family="Helvetica,sans-Serif" font-size="10.00">+</text>
<text text-anchor="start" x="922.5" y="-54.5" font-family="Helvetica,sans-Serif" font-size="10.00">on_slashcommand()</text>
<polygon fill="#666666" stroke="#666666" points="908.5,-98 908.5,-98 1013.5,-98 1013.5,-98 908.5,-98"/>
<polygon fill="#666666" stroke="#666666" points="908.5,-82 908.5,-82 1013.5,-82 1013.5,-82 908.5,-82"/>
<polygon fill="none" stroke="#666666" points="908.5,-48 908.5,-116 1013.5,-116 1013.5,-48 908.5,-48"/>
</a>
</g>
</g>
<!-- Node1&#45;&gt;Node9 -->
<g id="edge8_Node000001_Node000009" class="edge">
<title>Node1&#45;&gt;Node9</title>
<g id="a_edge8_Node000001_Node000009"><a xlink:title=" ">
<path fill="none" stroke="#63b8ff" d="M766.3,-225.12C807.45,-213.09 859.57,-193.51 899,-164 916.3,-151.05 931.19,-132.05 942.04,-115.7"/>
<polygon fill="none" stroke="#63b8ff" points="765.4,-221.73 756.73,-227.82 767.31,-228.47 765.4,-221.73"/>
</a>
</g>
</g>
<!-- Node10 -->
<g id="Node000010" class="node">
<title>Node10</title>
<g id="a_Node000010"><a xlink:href="classServerDetails.html" target="_top" xlink:title=" ">
<polygon fill="white" stroke="none" points="1136.5,-116 1031.5,-116 1031.5,-48 1136.5,-48 1136.5,-116"/>
<text text-anchor="start" x="1054.38" y="-102.5" font-family="Helvetica,sans-Serif" font-size="10.00">ServerDetails</text>
<text text-anchor="start" x="1082.5" y="-86.5" font-family="Helvetica,sans-Serif" font-size="10.00"> </text>
<text text-anchor="start" x="1035.5" y="-70.5" font-family="Helvetica,sans-Serif" font-size="10.00">+</text>
<text text-anchor="start" x="1045.5" y="-70.5" font-family="Helvetica,sans-Serif" font-size="10.00">ServerDetails()</text>
<text text-anchor="start" x="1035.5" y="-54.5" font-family="Helvetica,sans-Serif" font-size="10.00">+</text>
<text text-anchor="start" x="1045.5" y="-54.5" font-family="Helvetica,sans-Serif" font-size="10.00">on_slashcommand()</text>
<polygon fill="#666666" stroke="#666666" points="1031.5,-98 1031.5,-98 1136.5,-98 1136.5,-98 1031.5,-98"/>
<polygon fill="#666666" stroke="#666666" points="1031.5,-82 1031.5,-82 1136.5,-82 1136.5,-82 1031.5,-82"/>
<polygon fill="none" stroke="#666666" points="1031.5,-48 1031.5,-116 1136.5,-116 1136.5,-48 1031.5,-48"/>
</a>
</g>
</g>
<!-- Node1&#45;&gt;Node10 -->
<g id="edge9_Node000001_Node000010" class="edge">
<title>Node1&#45;&gt;Node10</title>
<g id="a_edge9_Node000001_Node000010"><a xlink:title=" ">
<path fill="none" stroke="#63b8ff" d="M766.6,-238.19C836.04,-232.44 944.74,-215.2 1023,-164 1041.27,-152.05 1056.15,-132.67 1066.64,-115.87"/>
<polygon fill="none" stroke="#63b8ff" points="766.59,-234.68 756.88,-238.94 767.12,-241.66 766.59,-234.68"/>
</a>
</g>
</g>
<!-- Node11 -->
<g id="Node000011" class="node">
<title>Node11</title>
<g id="a_Node000011"><a xlink:href="classSetChannelCommand.html" target="_top" xlink:title=" ">
<polygon fill="white" stroke="none" points="1293,-164 1155,-164 1155,0 1293,0 1293,-164"/>
<text text-anchor="start" x="1176" y="-150.5" font-family="Helvetica,sans-Serif" font-size="10.00">SetChannelCommand</text>
<text text-anchor="start" x="1222.5" y="-134.5" font-family="Helvetica,sans-Serif" font-size="10.00"> </text>
<text text-anchor="start" x="1159" y="-118.5" font-family="Helvetica,sans-Serif" font-size="10.00">+</text>
<text text-anchor="start" x="1169" y="-118.5" font-family="Helvetica,sans-Serif" font-size="10.00">SetChannelCommand()</text>
<text text-anchor="start" x="1159" y="-102.5" font-family="Helvetica,sans-Serif" font-size="10.00">+</text>
<text text-anchor="start" x="1169" y="-102.5" font-family="Helvetica,sans-Serif" font-size="10.00">on_slashcommand()</text>
<text text-anchor="start" x="1159" y="-86.5" font-family="Helvetica,sans-Serif" font-size="10.00">+</text>
<text text-anchor="start" x="1169" y="-86.5" font-family="Helvetica,sans-Serif" font-size="10.00">on_guild_member_add()</text>
<text text-anchor="start" x="1159" y="-70.5" font-family="Helvetica,sans-Serif" font-size="10.00">+</text>
<text text-anchor="start" x="1169" y="-70.5" font-family="Helvetica,sans-Serif" font-size="10.00">on_guild_member_remove()</text>
<text text-anchor="start" x="1159" y="-54.5" font-family="Helvetica,sans-Serif" font-size="10.00">+</text>
<text text-anchor="start" x="1169" y="-54.5" font-family="Helvetica,sans-Serif" font-size="10.00">SetChannelCommand()</text>
<text text-anchor="start" x="1159" y="-38.5" font-family="Helvetica,sans-Serif" font-size="10.00">+</text>
<text text-anchor="start" x="1169" y="-38.5" font-family="Helvetica,sans-Serif" font-size="10.00">on_slashcommand()</text>
<text text-anchor="start" x="1159" y="-22.5" font-family="Helvetica,sans-Serif" font-size="10.00">+</text>
<text text-anchor="start" x="1169" y="-22.5" font-family="Helvetica,sans-Serif" font-size="10.00">on_guild_member_add()</text>
<text text-anchor="start" x="1159" y="-6.5" font-family="Helvetica,sans-Serif" font-size="10.00">+</text>
<text text-anchor="start" x="1169" y="-6.5" font-family="Helvetica,sans-Serif" font-size="10.00">on_guild_member_remove()</text>
<polygon fill="#666666" stroke="#666666" points="1155,-146 1155,-146 1293,-146 1293,-146 1155,-146"/>
<polygon fill="#666666" stroke="#666666" points="1155,-130 1155,-130 1293,-130 1293,-130 1155,-130"/>
<polygon fill="none" stroke="#666666" points="1155,0 1155,-164 1293,-164 1293,0 1155,0"/>
</a>
</g>
</g>
<!-- Node1&#45;&gt;Node11 -->
<g id="edge10_Node000001_Node000011" class="edge">
<title>Node1&#45;&gt;Node11</title>
<g id="a_edge10_Node000001_Node000011"><a xlink:title=" ">
<path fill="none" stroke="#63b8ff" d="M766.35,-233.99C872.63,-222.55 1073.39,-197.72 1137,-164 1143.38,-160.62 1149.55,-156.52 1155.46,-151.99"/>
<polygon fill="none" stroke="#63b8ff" points="766.2,-230.49 756.63,-235.03 766.94,-237.45 766.2,-230.49"/>
</a>
</g>
</g>
<!-- Node1&#45;&gt;Node11 -->
<g id="edge11_Node000001_Node000011" class="edge">
<title>Node1&#45;&gt;Node11</title>
<g id="a_edge11_Node000001_Node000011"><a xlink:title=" ">
<path fill="none" stroke="#63b8ff" d="M766.57,-235.11C876.56,-224.25 1088.37,-198.97 1154.6,-164.21"/>
<polygon fill="none" stroke="#63b8ff" points="766.4,-231.61 756.79,-236.06 767.08,-238.58 766.4,-231.61"/>
</a>
</g>
</g>
</g>
</svg>
