<?xml version="1.0" encoding="UTF-8" standalone="no"?>
<!DOCTYPE svg PUBLIC "-//W3C//DTD SVG 1.1//EN"
 "http://www.w3.org/Graphics/SVG/1.1/DTD/svg11.dtd">
<!-- Generated by graphviz version 12.2.1 (0)
 -->
<!-- Title: StatusController Pages: 1 -->
<svg width="103pt" height="192pt"
 viewBox="0.00 0.00 102.50 192.00" xmlns="http://www.w3.org/2000/svg" xmlns:xlink="http://www.w3.org/1999/xlink">
<g id="graph0" class="graph" transform="scale(1 1) rotate(0) translate(4 188)">
<title>StatusController</title>
<!-- Node1 -->
<g id="Node000001" class="node">
<title>Node1</title>
<g id="a_Node000001"><a xlink:title=" ">
<polygon fill="#999999" stroke="none" points="94.5,-84 0,-84 0,0 94.5,0 94.5,-84"/>
<text text-anchor="start" x="12" y="-70.5" font-family="Helvetica,sans-Serif" font-size="10.00">StatusController</text>
<text text-anchor="start" x="45.75" y="-54.5" font-family="Helvetica,sans-Serif" font-size="10.00"> </text>
<text text-anchor="start" x="4" y="-38.5" font-family="Helvetica,sans-Serif" font-size="10.00">+</text>
<text text-anchor="start" x="14" y="-38.5" font-family="Helvetica,sans-Serif" font-size="10.00">StatusController()</text>
<text text-anchor="start" x="4" y="-22.5" font-family="Helvetica,sans-Serif" font-size="10.00">+</text>
<text text-anchor="start" x="14" y="-22.5" font-family="Helvetica,sans-Serif" font-size="10.00">ENDPOINT()</text>
<text text-anchor="start" x="4" y="-6.5" font-family="Helvetica,sans-Serif" font-size="10.00">+</text>
<text text-anchor="start" x="14" y="-6.5" font-family="Helvetica,sans-Serif" font-size="10.00">ENDPOINT()</text>
<polygon fill="#666666" stroke="#666666" points="0,-66 0,-66 94.5,-66 94.5,-66 0,-66"/>
<polygon fill="#666666" stroke="#666666" points="0,-50 0,-50 94.5,-50 94.5,-50 0,-50"/>
<polygon fill="none" stroke="#666666" points="0,0 0,-84 94.5,-84 94.5,0 0,0"/>
</a>
</g>
</g>
<!-- Node2 -->
<g id="Node000002" class="node">
<title>Node2</title>
<g id="a_Node000002"><a xlink:title=" ">
<polygon fill="white" stroke="none" points="91.75,-184 2.75,-184 2.75,-120 91.75,-120 91.75,-184"/>
<text text-anchor="start" x="6.75" y="-170.5" font-family="Helvetica,sans-Serif" font-size="10.00">oatpp::web::server</text>
<text text-anchor="start" x="6.75" y="-158.5" font-family="Helvetica,sans-Serif" font-size="10.00">::api::ApiController</text>
<text text-anchor="start" x="45.75" y="-142.5" font-family="Helvetica,sans-Serif" font-size="10.00"> </text>
<text text-anchor="start" x="45.75" y="-126.5" font-family="Helvetica,sans-Serif" font-size="10.00"> </text>
<polygon fill="#666666" stroke="#666666" points="2.75,-154 2.75,-154 91.75,-154 91.75,-154 2.75,-154"/>
<polygon fill="#666666" stroke="#666666" points="2.75,-138 2.75,-138 91.75,-138 91.75,-138 2.75,-138"/>
<polygon fill="none" stroke="#666666" points="2.75,-120 2.75,-184 91.75,-184 91.75,-120 2.75,-120"/>
</a>
</g>
</g>
<!-- Node2&#45;&gt;Node1 -->
<g id="edge1_Node000001_Node000002" class="edge">
<title>Node2&#45;&gt;Node1</title>
<g id="a_edge1_Node000001_Node000002"><a xlink:title=" ">
<path fill="none" stroke="#63b8ff" d="M47.25,-108.72C47.25,-100.47 47.25,-91.83 47.25,-83.63"/>
<polygon fill="none" stroke="#63b8ff" points="43.75,-108.54 47.25,-118.54 50.75,-108.54 43.75,-108.54"/>
</a>
</g>
</g>
</g>
</svg>
