<?xml version="1.0" encoding="UTF-8" standalone="no"?>
<!DOCTYPE svg PUBLIC "-//W3C//DTD SVG 1.1//EN"
 "http://www.w3.org/Graphics/SVG/1.1/DTD/svg11.dtd">
<!-- Generated by graphviz version 12.2.1 (0)
 -->
<!-- Title: StatusHandler Pages: 1 -->
<svg width="163pt" height="148pt"
 viewBox="0.00 0.00 163.00 148.00" xmlns="http://www.w3.org/2000/svg" xmlns:xlink="http://www.w3.org/1999/xlink">
<g id="graph0" class="graph" transform="scale(1 1) rotate(0) translate(4 144)">
<title>StatusHandler</title>
<!-- Node1 -->
<g id="Node000001" class="node">
<title>Node1</title>
<g id="a_Node000001"><a xlink:title=" ">
<polygon fill="#999999" stroke="none" points="122.12,-52 32.88,-52 32.88,0 122.12,0 122.12,-52"/>
<text text-anchor="start" x="46.38" y="-38.5" font-family="Helvetica,sans-Serif" font-size="10.00">StatusHandler</text>
<text text-anchor="start" x="76" y="-22.5" font-family="Helvetica,sans-Serif" font-size="10.00"> </text>
<text text-anchor="start" x="36.88" y="-6.5" font-family="Helvetica,sans-Serif" font-size="10.00">+</text>
<text text-anchor="start" x="46.88" y="-6.5" font-family="Helvetica,sans-Serif" font-size="10.00">handleRequest()</text>
<polygon fill="#666666" stroke="#666666" points="32.88,-34 32.88,-34 122.12,-34 122.12,-34 32.88,-34"/>
<polygon fill="#666666" stroke="#666666" points="32.88,-18 32.88,-18 122.12,-18 122.12,-18 32.88,-18"/>
<polygon fill="none" stroke="#666666" points="32.88,0 32.88,-52 122.12,-52 122.12,0 32.88,0"/>
</a>
</g>
</g>
<!-- Node2 -->
<g id="Node000002" class="node">
<title>Node2</title>
<g id="a_Node000002"><a xlink:title=" ">
<polygon fill="white" stroke="none" points="155,-140 0,-140 0,-88 155,-88 155,-140"/>
<text text-anchor="start" x="4" y="-126.5" font-family="Helvetica,sans-Serif" font-size="10.00">Poco::Net::HTTPRequestHandler</text>
<text text-anchor="start" x="76" y="-110.5" font-family="Helvetica,sans-Serif" font-size="10.00"> </text>
<text text-anchor="start" x="76" y="-94.5" font-family="Helvetica,sans-Serif" font-size="10.00"> </text>
<polygon fill="#666666" stroke="#666666" points="0,-122 0,-122 155,-122 155,-122 0,-122"/>
<polygon fill="#666666" stroke="#666666" points="0,-106 0,-106 155,-106 155,-106 0,-106"/>
<polygon fill="none" stroke="#666666" points="0,-88 0,-140 155,-140 155,-88 0,-88"/>
</a>
</g>
</g>
<!-- Node2&#45;&gt;Node1 -->
<g id="edge1_Node000001_Node000002" class="edge">
<title>Node2&#45;&gt;Node1</title>
<g id="a_edge1_Node000001_Node000002"><a xlink:title=" ">
<path fill="none" stroke="#63b8ff" d="M77.5,-76.66C77.5,-68.29 77.5,-59.57 77.5,-51.82"/>
<polygon fill="none" stroke="#63b8ff" points="74,-76.61 77.5,-86.61 81,-76.61 74,-76.61"/>
</a>
</g>
</g>
</g>
</svg>
