<?xml version="1.0" encoding="UTF-8" standalone="no"?>
<!DOCTYPE svg PUBLIC "-//W3C//DTD SVG 1.1//EN"
 "http://www.w3.org/Graphics/SVG/1.1/DTD/svg11.dtd">
<!-- Generated by graphviz version 14.1.5 (0)
 -->
<!-- Title: WebUserRepository Pages: 1 -->
<svg width="498pt" height="625pt"
 viewBox="0.00 0.00 498.00 625.00" xmlns="http://www.w3.org/2000/svg" xmlns:xlink="http://www.w3.org/1999/xlink">
<g id="graph0" class="graph" transform="scale(1 1) rotate(0) translate(4 621)">
<title>WebUserRepository</title>
<!-- Node1 -->
<g id="Node000001" class="node">
<title>Node1</title>
<g id="a_Node000001"><a xlink:title=" ">
<polygon fill="#999999" stroke="none" points="238.75,-196 127,-196 127,0 238.75,0 238.75,-196"/>
<text xml:space="preserve" text-anchor="start" x="139" y="-182.25" font-family="Helvetica,sans-Serif" font-size="10.00">WebUserRepository</text>
<text xml:space="preserve" text-anchor="start" x="181.38" y="-166.25" font-family="Helvetica,sans-Serif" font-size="10.00"> </text>
<text xml:space="preserve" text-anchor="start" x="131" y="-150.25" font-family="Helvetica,sans-Serif" font-size="10.00">+</text>
<text xml:space="preserve" text-anchor="start" x="141" y="-150.25" font-family="Helvetica,sans-Serif" font-size="10.00">WebUserRepository()</text>
<text xml:space="preserve" text-anchor="start" x="131" y="-134.25" font-family="Helvetica,sans-Serif" font-size="10.00">+</text>
<text xml:space="preserve" text-anchor="start" x="141" y="-134.25" font-family="Helvetica,sans-Serif" font-size="10.00">WebUserRepository()</text>
<text xml:space="preserve" text-anchor="start" x="131" y="-118.25" font-family="Helvetica,sans-Serif" font-size="10.00">+</text>
<text xml:space="preserve" text-anchor="start" x="141" y="-118.25" font-family="Helvetica,sans-Serif" font-size="10.00">create()</text>
<text xml:space="preserve" text-anchor="start" x="131" y="-102.25" font-family="Helvetica,sans-Serif" font-size="10.00">+</text>
<text xml:space="preserve" text-anchor="start" x="141" y="-102.25" font-family="Helvetica,sans-Serif" font-size="10.00">remove()</text>
<text xml:space="preserve" text-anchor="start" x="131" y="-86.25" font-family="Helvetica,sans-Serif" font-size="10.00">+</text>
<text xml:space="preserve" text-anchor="start" x="141" y="-86.25" font-family="Helvetica,sans-Serif" font-size="10.00">get()</text>
<text xml:space="preserve" text-anchor="start" x="131" y="-70.25" font-family="Helvetica,sans-Serif" font-size="10.00">+</text>
<text xml:space="preserve" text-anchor="start" x="141" y="-70.25" font-family="Helvetica,sans-Serif" font-size="10.00">get()</text>
<text xml:space="preserve" text-anchor="start" x="131" y="-54.25" font-family="Helvetica,sans-Serif" font-size="10.00">+</text>
<text xml:space="preserve" text-anchor="start" x="141" y="-54.25" font-family="Helvetica,sans-Serif" font-size="10.00">getAll()</text>
<text xml:space="preserve" text-anchor="start" x="131" y="-38.25" font-family="Helvetica,sans-Serif" font-size="10.00">+</text>
<text xml:space="preserve" text-anchor="start" x="141" y="-38.25" font-family="Helvetica,sans-Serif" font-size="10.00">verify()</text>
<text xml:space="preserve" text-anchor="start" x="131" y="-22.25" font-family="Helvetica,sans-Serif" font-size="10.00">+</text>
<text xml:space="preserve" text-anchor="start" x="141" y="-22.25" font-family="Helvetica,sans-Serif" font-size="10.00">exists()</text>
<text xml:space="preserve" text-anchor="start" x="131" y="-6.25" font-family="Helvetica,sans-Serif" font-size="10.00">+</text>
<text xml:space="preserve" text-anchor="start" x="141" y="-6.25" font-family="Helvetica,sans-Serif" font-size="10.00">update()</text>
<polygon fill="#666666" stroke="#666666" points="127,-178 127,-178 238.75,-178 238.75,-178 127,-178"/>
<polygon fill="#666666" stroke="#666666" points="127,-162 127,-162 238.75,-162 238.75,-162 127,-162"/>
<polygon fill="none" stroke="#666666" points="127,0 127,-196 238.75,-196 238.75,0 127,0"/>
</a>
</g>
</g>
<!-- Node2 -->
<g id="Node000002" class="node">
<title>Node2</title>
<g id="a_Node000002"><a xlink:href="classIRepository.html" target="_top" xlink:title=" ">
<polygon fill="white" stroke="none" points="251.75,-285 114,-285 114,-233 251.75,-233 251.75,-285"/>
<text xml:space="preserve" text-anchor="start" x="118" y="-271.25" font-family="Helvetica,sans-Serif" font-size="10.00">IRepository&lt; WebUserDTO &gt;</text>
<text xml:space="preserve" text-anchor="start" x="181.38" y="-255.25" font-family="Helvetica,sans-Serif" font-size="10.00"> </text>
<text xml:space="preserve" text-anchor="start" x="181.38" y="-239.25" font-family="Helvetica,sans-Serif" font-size="10.00"> </text>
<polygon fill="#666666" stroke="#666666" points="114,-267 114,-267 251.75,-267 251.75,-267 114,-267"/>
<polygon fill="#666666" stroke="#666666" points="114,-251 114,-251 251.75,-251 251.75,-251 114,-251"/>
<polygon fill="none" stroke="#666666" points="114,-233 114,-285 251.75,-285 251.75,-233 114,-233"/>
</a>
</g>
</g>
<!-- Node2&#45;&gt;Node1 -->
<g id="edge1_Node000001_Node000002" class="edge">
<title>Node2&#45;&gt;Node1</title>
<g id="a_edge1_Node000001_Node000002"><a xlink:title=" ">
<path fill="none" stroke="#63b8ff" d="M182.88,-221.73C182.88,-213.73 182.88,-204.89 182.88,-195.73"/>
<polygon fill="none" stroke="#63b8ff" points="179.38,-221.64 182.88,-231.64 186.38,-221.64 179.38,-221.64"/>
</a>
</g>
</g>
<!-- Node3 -->
<g id="Node000003" class="node">
<title>Node3</title>
<g id="a_Node000003"><a xlink:href="classIRepositoryReader.html" target="_top" xlink:title=" ">
<polygon fill="white" stroke="none" points="111.75,-435 0,-435 0,-355 111.75,-355 111.75,-435"/>
<text xml:space="preserve" text-anchor="start" x="12" y="-421.25" font-family="Helvetica,sans-Serif" font-size="10.00">IRepositoryReader&lt;</text>
<text xml:space="preserve" text-anchor="start" x="19.12" y="-409.25" font-family="Helvetica,sans-Serif" font-size="10.00"> WebUserDTO &gt;</text>
<text xml:space="preserve" text-anchor="start" x="54.38" y="-393.25" font-family="Helvetica,sans-Serif" font-size="10.00"> </text>
<text xml:space="preserve" text-anchor="start" x="4" y="-377.25" font-family="Helvetica,sans-Serif" font-size="10.00">+</text>
<text xml:space="preserve" text-anchor="start" x="14" y="-377.25" font-family="Helvetica,sans-Serif" font-size="10.00">~IRepositoryReader()</text>
<text xml:space="preserve" text-anchor="start" x="4" y="-361.25" font-family="Helvetica,sans-Serif" font-size="10.00">+</text>
<text xml:space="preserve" text-anchor="start" x="14" y="-361.25" font-family="Helvetica,sans-Serif" font-size="10.00">get()</text>
<polygon fill="#666666" stroke="#666666" points="0,-405 0,-405 111.75,-405 111.75,-405 0,-405"/>
<polygon fill="#666666" stroke="#666666" points="0,-389 0,-389 111.75,-389 111.75,-389 0,-389"/>
<polygon fill="none" stroke="#666666" points="0,-355 0,-435 111.75,-435 111.75,-355 0,-355"/>
</a>
</g>
</g>
<!-- Node3&#45;&gt;Node2 -->
<g id="edge2_Node000002_Node000003" class="edge">
<title>Node3&#45;&gt;Node2</title>
<g id="a_edge2_Node000002_Node000003"><a xlink:title=" ">
<path fill="none" stroke="#63b8ff" d="M100.37,-347.06C120.27,-326.06 142.91,-302.17 159.43,-284.74"/>
<polygon fill="none" stroke="#63b8ff" points="97.99,-344.48 93.65,-354.14 103.07,-349.29 97.99,-344.48"/>
</a>
</g>
</g>
<!-- Node4 -->
<g id="Node000004" class="node">
<title>Node4</title>
<g id="a_Node000004"><a xlink:href="classIRepositoryReader.html" target="_top" xlink:title=" ">
<polygon fill="white" stroke="none" points="111.75,-601 0,-601 0,-521 111.75,-521 111.75,-601"/>
<text xml:space="preserve" text-anchor="start" x="12" y="-587.25" font-family="Helvetica,sans-Serif" font-size="10.00">IRepositoryReader&lt;</text>
<text xml:space="preserve" text-anchor="start" x="39.38" y="-575.25" font-family="Helvetica,sans-Serif" font-size="10.00"> DTO &gt;</text>
<text xml:space="preserve" text-anchor="start" x="54.38" y="-559.25" font-family="Helvetica,sans-Serif" font-size="10.00"> </text>
<text xml:space="preserve" text-anchor="start" x="4" y="-543.25" font-family="Helvetica,sans-Serif" font-size="10.00">+</text>
<text xml:space="preserve" text-anchor="start" x="14" y="-543.25" font-family="Helvetica,sans-Serif" font-size="10.00">~IRepositoryReader()</text>
<text xml:space="preserve" text-anchor="start" x="4" y="-527.25" font-family="Helvetica,sans-Serif" font-size="10.00">+</text>
<text xml:space="preserve" text-anchor="start" x="14" y="-527.25" font-family="Helvetica,sans-Serif" font-size="10.00">get()</text>
<polygon fill="#666666" stroke="#666666" points="0,-571 0,-571 111.75,-571 111.75,-571 0,-571"/>
<polygon fill="#666666" stroke="#666666" points="0,-555 0,-555 111.75,-555 111.75,-555 0,-555"/>
<polygon fill="none" stroke="#666666" points="0,-521 0,-601 111.75,-601 111.75,-521 0,-521"/>
</a>
</g>
</g>
<!-- Node4&#45;&gt;Node3 -->
<g id="edge3_Node000003_Node000004" class="edge">
<title>Node4&#45;&gt;Node3</title>
<g id="a_edge3_Node000003_Node000004"><a xlink:title=" ">
<path fill="none" stroke="orange" d="M55.88,-509.71C55.88,-485.64 55.88,-457.26 55.88,-434.87"/>
<polygon fill="orange" stroke="orange" points="52.38,-509.62 55.88,-519.62 59.38,-509.62 52.38,-509.62"/>
</a>
</g>
<text xml:space="preserve" text-anchor="start" x="58.88" y="-474.25" font-family="Helvetica,sans-Serif" font-size="10.00" fill="grey">&lt; WebUserDTO &gt;</text>
</g>
<!-- Node5 -->
<g id="Node000005" class="node">
<title>Node5</title>
<g id="a_Node000005"><a xlink:href="classIRepositoryWriter.html" target="_top" xlink:title=" ">
<polygon fill="white" stroke="none" points="235.75,-451 130,-451 130,-339 235.75,-339 235.75,-451"/>
<text xml:space="preserve" text-anchor="start" x="142" y="-437.25" font-family="Helvetica,sans-Serif" font-size="10.00">IRepositoryWriter&lt;</text>
<text xml:space="preserve" text-anchor="start" x="146.12" y="-425.25" font-family="Helvetica,sans-Serif" font-size="10.00"> WebUserDTO &gt;</text>
<text xml:space="preserve" text-anchor="start" x="181.38" y="-409.25" font-family="Helvetica,sans-Serif" font-size="10.00"> </text>
<text xml:space="preserve" text-anchor="start" x="134" y="-393.25" font-family="Helvetica,sans-Serif" font-size="10.00">+</text>
<text xml:space="preserve" text-anchor="start" x="144" y="-393.25" font-family="Helvetica,sans-Serif" font-size="10.00">~IRepositoryWriter()</text>
<text xml:space="preserve" text-anchor="start" x="134" y="-377.25" font-family="Helvetica,sans-Serif" font-size="10.00">+</text>
<text xml:space="preserve" text-anchor="start" x="144" y="-377.25" font-family="Helvetica,sans-Serif" font-size="10.00">create()</text>
<text xml:space="preserve" text-anchor="start" x="134" y="-361.25" font-family="Helvetica,sans-Serif" font-size="10.00">+</text>
<text xml:space="preserve" text-anchor="start" x="144" y="-361.25" font-family="Helvetica,sans-Serif" font-size="10.00">remove()</text>
<text xml:space="preserve" text-anchor="start" x="134" y="-345.25" font-family="Helvetica,sans-Serif" font-size="10.00">+</text>
<text xml:space="preserve" text-anchor="start" x="144" y="-345.25" font-family="Helvetica,sans-Serif" font-size="10.00">update()</text>
<polygon fill="#666666" stroke="#666666" points="130,-421 130,-421 235.75,-421 235.75,-421 130,-421"/>
<polygon fill="#666666" stroke="#666666" points="130,-405 130,-405 235.75,-405 235.75,-405 130,-405"/>
<polygon fill="none" stroke="#666666" points="130,-339 130,-451 235.75,-451 235.75,-339 130,-339"/>
</a>
</g>
</g>
<!-- Node5&#45;&gt;Node2 -->
<g id="edge4_Node000002_Node000005" class="edge">
<title>Node5&#45;&gt;Node2</title>
<g id="a_edge4_Node000002_Node000005"><a xlink:title=" ">
<path fill="none" stroke="#63b8ff" d="M182.88,-328C182.88,-312.65 182.88,-297.23 182.88,-284.97"/>
<polygon fill="none" stroke="#63b8ff" points="179.38,-327.6 182.88,-337.6 186.38,-327.6 179.38,-327.6"/>
</a>
</g>
</g>
<!-- Node6 -->
<g id="Node000006" class="node">
<title>Node6</title>
<g id="a_Node000006"><a xlink:href="classIRepositoryWriter.html" target="_top" xlink:title=" ">
<polygon fill="white" stroke="none" points="235.75,-617 130,-617 130,-505 235.75,-505 235.75,-617"/>
<text xml:space="preserve" text-anchor="start" x="142" y="-603.25" font-family="Helvetica,sans-Serif" font-size="10.00">IRepositoryWriter&lt;</text>
<text xml:space="preserve" text-anchor="start" x="166.38" y="-591.25" font-family="Helvetica,sans-Serif" font-size="10.00"> DTO &gt;</text>
<text xml:space="preserve" text-anchor="start" x="181.38" y="-575.25" font-family="Helvetica,sans-Serif" font-size="10.00"> </text>
<text xml:space="preserve" text-anchor="start" x="134" y="-559.25" font-family="Helvetica,sans-Serif" font-size="10.00">+</text>
<text xml:space="preserve" text-anchor="start" x="144" y="-559.25" font-family="Helvetica,sans-Serif" font-size="10.00">~IRepositoryWriter()</text>
<text xml:space="preserve" text-anchor="start" x="134" y="-543.25" font-family="Helvetica,sans-Serif" font-size="10.00">+</text>
<text xml:space="preserve" text-anchor="start" x="144" y="-543.25" font-family="Helvetica,sans-Serif" font-size="10.00">create()</text>
<text xml:space="preserve" text-anchor="start" x="134" y="-527.25" font-family="Helvetica,sans-Serif" font-size="10.00">+</text>
<text xml:space="preserve" text-anchor="start" x="144" y="-527.25" font-family="Helvetica,sans-Serif" font-size="10.00">remove()</text>
<text xml:space="preserve" text-anchor="start" x="134" y="-511.25" font-family="Helvetica,sans-Serif" font-size="10.00">+</text>
<text xml:space="preserve" text-anchor="start" x="144" y="-511.25" font-family="Helvetica,sans-Serif" font-size="10.00">update()</text>
<polygon fill="#666666" stroke="#666666" points="130,-587 130,-587 235.75,-587 235.75,-587 130,-587"/>
<polygon fill="#666666" stroke="#666666" points="130,-571 130,-571 235.75,-571 235.75,-571 130,-571"/>
<polygon fill="none" stroke="#666666" points="130,-505 130,-617 235.75,-617 235.75,-505 130,-505"/>
</a>
</g>
</g>
<!-- Node6&#45;&gt;Node5 -->
<g id="edge5_Node000005_Node000006" class="edge">
<title>Node6&#45;&gt;Node5</title>
<g id="a_edge5_Node000005_Node000006"><a xlink:title=" ">
<path fill="none" stroke="orange" d="M182.88,-494.09C182.88,-479.77 182.88,-464.77 182.88,-450.93"/>
<polygon fill="orange" stroke="orange" points="179.38,-493.88 182.88,-503.88 186.38,-493.88 179.38,-493.88"/>
</a>
</g>
<text xml:space="preserve" text-anchor="start" x="185.88" y="-474.25" font-family="Helvetica,sans-Serif" font-size="10.00" fill="grey">&lt; WebUserDTO &gt;</text>
</g>
<!-- Node7 -->
<g id="Node000007" class="node">
<title>Node7</title>
<g id="a_Node000007"><a xlink:href="classIRepository.html" target="_top" xlink:title=" ">
<polygon fill="white" stroke="none" points="358.5,-421 261.25,-421 261.25,-369 358.5,-369 358.5,-421"/>
<text xml:space="preserve" text-anchor="start" x="265.25" y="-407.25" font-family="Helvetica,sans-Serif" font-size="10.00">IRepository&lt; DTO &gt;</text>
<text xml:space="preserve" text-anchor="start" x="308.38" y="-391.25" font-family="Helvetica,sans-Serif" font-size="10.00"> </text>
<text xml:space="preserve" text-anchor="start" x="308.38" y="-375.25" font-family="Helvetica,sans-Serif" font-size="10.00"> </text>
<polygon fill="#666666" stroke="#666666" points="261.25,-403 261.25,-403 358.5,-403 358.5,-403 261.25,-403"/>
<polygon fill="#666666" stroke="#666666" points="261.25,-387 261.25,-387 358.5,-387 358.5,-387 261.25,-387"/>
<polygon fill="none" stroke="#666666" points="261.25,-369 261.25,-421 358.5,-421 358.5,-369 261.25,-369"/>
</a>
</g>
</g>
<!-- Node7&#45;&gt;Node2 -->
<g id="edge6_Node000002_Node000007" class="edge">
<title>Node7&#45;&gt;Node2</title>
<g id="a_edge6_Node000002_Node000007"><a xlink:title=" ">
<path fill="none" stroke="orange" d="M278.42,-360.81C256.09,-337.26 226.62,-306.15 206.34,-284.76"/>
<polygon fill="orange" stroke="orange" points="275.82,-363.16 285.24,-368.01 280.91,-358.35 275.82,-363.16"/>
</a>
</g>
<text xml:space="preserve" text-anchor="start" x="241.77" y="-308.25" font-family="Helvetica,sans-Serif" font-size="10.00" fill="grey">&lt; WebUserDTO &gt;</text>
</g>
<!-- Node8 -->
<g id="Node000008" class="node">
<title>Node8</title>
<g id="a_Node000008"><a xlink:href="classIRepositoryReader.html" target="_top" xlink:title=" ">
<polygon fill="white" stroke="none" points="365.75,-601 254,-601 254,-521 365.75,-521 365.75,-601"/>
<text xml:space="preserve" text-anchor="start" x="266" y="-587.25" font-family="Helvetica,sans-Serif" font-size="10.00">IRepositoryReader&lt;</text>
<text xml:space="preserve" text-anchor="start" x="293.38" y="-575.25" font-family="Helvetica,sans-Serif" font-size="10.00"> DTO &gt;</text>
<text xml:space="preserve" text-anchor="start" x="308.38" y="-559.25" font-family="Helvetica,sans-Serif" font-size="10.00"> </text>
<text xml:space="preserve" text-anchor="start" x="258" y="-543.25" font-family="Helvetica,sans-Serif" font-size="10.00">+</text>
<text xml:space="preserve" text-anchor="start" x="268" y="-543.25" font-family="Helvetica,sans-Serif" font-size="10.00">~IRepositoryReader()</text>
<text xml:space="preserve" text-anchor="start" x="258" y="-527.25" font-family="Helvetica,sans-Serif" font-size="10.00">+</text>
<text xml:space="preserve" text-anchor="start" x="268" y="-527.25" font-family="Helvetica,sans-Serif" font-size="10.00">get()</text>
<polygon fill="#666666" stroke="#666666" points="254,-571 254,-571 365.75,-571 365.75,-571 254,-571"/>
<polygon fill="#666666" stroke="#666666" points="254,-555 254,-555 365.75,-555 365.75,-555 254,-555"/>
<polygon fill="none" stroke="#666666" points="254,-521 254,-601 365.75,-601 365.75,-521 254,-521"/>
</a>
</g>
</g>
<!-- Node8&#45;&gt;Node7 -->
<g id="edge7_Node000007_Node000008" class="edge">
<title>Node8&#45;&gt;Node7</title>
<g id="a_edge7_Node000007_Node000008"><a xlink:title=" ">
<path fill="none" stroke="#63b8ff" d="M309.88,-509.78C309.88,-480.3 309.88,-444.33 309.88,-420.83"/>
<polygon fill="none" stroke="#63b8ff" points="306.38,-509.62 309.88,-519.62 313.38,-509.62 306.38,-509.62"/>
</a>
</g>
</g>
<!-- Node9 -->
<g id="Node000009" class="node">
<title>Node9</title>
<g id="a_Node000009"><a xlink:href="classIRepositoryWriter.html" target="_top" xlink:title=" ">
<polygon fill="white" stroke="none" points="489.75,-617 384,-617 384,-505 489.75,-505 489.75,-617"/>
<text xml:space="preserve" text-anchor="start" x="396" y="-603.25" font-family="Helvetica,sans-Serif" font-size="10.00">IRepositoryWriter&lt;</text>
<text xml:space="preserve" text-anchor="start" x="420.38" y="-591.25" font-family="Helvetica,sans-Serif" font-size="10.00"> DTO &gt;</text>
<text xml:space="preserve" text-anchor="start" x="435.38" y="-575.25" font-family="Helvetica,sans-Serif" font-size="10.00"> </text>
<text xml:space="preserve" text-anchor="start" x="388" y="-559.25" font-family="Helvetica,sans-Serif" font-size="10.00">+</text>
<text xml:space="preserve" text-anchor="start" x="398" y="-559.25" font-family="Helvetica,sans-Serif" font-size="10.00">~IRepositoryWriter()</text>
<text xml:space="preserve" text-anchor="start" x="388" y="-543.25" font-family="Helvetica,sans-Serif" font-size="10.00">+</text>
<text xml:space="preserve" text-anchor="start" x="398" y="-543.25" font-family="Helvetica,sans-Serif" font-size="10.00">create()</text>
<text xml:space="preserve" text-anchor="start" x="388" y="-527.25" font-family="Helvetica,sans-Serif" font-size="10.00">+</text>
<text xml:space="preserve" text-anchor="start" x="398" y="-527.25" font-family="Helvetica,sans-Serif" font-size="10.00">remove()</text>
<text xml:space="preserve" text-anchor="start" x="388" y="-511.25" font-family="Helvetica,sans-Serif" font-size="10.00">+</text>
<text xml:space="preserve" text-anchor="start" x="398" y="-511.25" font-family="Helvetica,sans-Serif" font-size="10.00">update()</text>
<polygon fill="#666666" stroke="#666666" points="384,-587 384,-587 489.75,-587 489.75,-587 384,-587"/>
<polygon fill="#666666" stroke="#666666" points="384,-571 384,-571 489.75,-571 489.75,-571 384,-571"/>
<polygon fill="none" stroke="#666666" points="384,-505 384,-617 489.75,-617 489.75,-505 384,-505"/>
</a>
</g>
</g>
<!-- Node9&#45;&gt;Node7 -->
<g id="edge8_Node000007_Node000009" class="edge">
<title>Node9&#45;&gt;Node7</title>
<g id="a_edge8_Node000007_Node000009"><a xlink:title=" ">
<path fill="none" stroke="#63b8ff" d="M387.71,-496.51C367.14,-469.95 344.46,-440.67 328.92,-420.59"/>
<polygon fill="none" stroke="#63b8ff" points="384.77,-498.43 393.66,-504.19 390.3,-494.14 384.77,-498.43"/>
</a>
</g>
</g>
</g>
</svg>
