<?xml version="1.0" encoding="UTF-8" standalone="no"?>
<!DOCTYPE svg PUBLIC "-//W3C//DTD SVG 1.1//EN"
 "http://www.w3.org/Graphics/SVG/1.1/DTD/svg11.dtd">
<!-- Generated by graphviz version 14.1.5 (0)
 -->
<!-- Title: LearnCppTutorialHint Pages: 1 -->
<svg width="142pt" height="228pt"
 viewBox="0.00 0.00 142.00 228.00" xmlns="http://www.w3.org/2000/svg" xmlns:xlink="http://www.w3.org/1999/xlink">
<g id="graph0" class="graph" transform="scale(1 1) rotate(0) translate(4 224)">
<title>LearnCppTutorialHint</title>
<!-- Node1 -->
<g id="Node000001" class="node">
<title>Node1</title>
<g id="a_Node000001"><a xlink:title=" ">
<polygon fill="#999999" stroke="none" points="134.25,-100 0,-100 0,0 134.25,0 134.25,-100"/>
<text xml:space="preserve" text-anchor="start" x="21" y="-86.25" font-family="Helvetica,sans-Serif" font-size="10.00">LearnCppTutorialHint</text>
<text xml:space="preserve" text-anchor="start" x="65.62" y="-70.25" font-family="Helvetica,sans-Serif" font-size="10.00"> </text>
<text xml:space="preserve" text-anchor="start" x="4" y="-54.25" font-family="Helvetica,sans-Serif" font-size="10.00">+</text>
<text xml:space="preserve" text-anchor="start" x="14" y="-54.25" font-family="Helvetica,sans-Serif" font-size="10.00">LearnCppTutorialHint()</text>
<text xml:space="preserve" text-anchor="start" x="4" y="-38.25" font-family="Helvetica,sans-Serif" font-size="10.00">+</text>
<text xml:space="preserve" text-anchor="start" x="14" y="-38.25" font-family="Helvetica,sans-Serif" font-size="10.00">on_message_create()</text>
<text xml:space="preserve" text-anchor="start" x="4" y="-22.25" font-family="Helvetica,sans-Serif" font-size="10.00">+</text>
<text xml:space="preserve" text-anchor="start" x="14" y="-22.25" font-family="Helvetica,sans-Serif" font-size="10.00">on_message_delete()</text>
<text xml:space="preserve" text-anchor="start" x="4" y="-6.25" font-family="Helvetica,sans-Serif" font-size="10.00">+</text>
<text xml:space="preserve" text-anchor="start" x="14" y="-6.25" font-family="Helvetica,sans-Serif" font-size="10.00">on_message_delete_bulk()</text>
<polygon fill="#666666" stroke="#666666" points="0,-82 0,-82 134.25,-82 134.25,-82 0,-82"/>
<polygon fill="#666666" stroke="#666666" points="0,-66 0,-66 134.25,-66 134.25,-66 0,-66"/>
<polygon fill="none" stroke="#666666" points="0,0 0,-100 134.25,-100 134.25,0 0,0"/>
</a>
</g>
</g>
<!-- Node2 -->
<g id="Node000002" class="node">
<title>Node2</title>
<g id="a_Node000002"><a xlink:href="classIMessageCommand.html" target="_top" xlink:title=" ">
<polygon fill="white" stroke="none" points="134.25,-220 0,-220 0,-136 134.25,-136 134.25,-220"/>
<text xml:space="preserve" text-anchor="start" x="23.25" y="-206.25" font-family="Helvetica,sans-Serif" font-size="10.00">IMessageCommand</text>
<text xml:space="preserve" text-anchor="start" x="65.62" y="-190.25" font-family="Helvetica,sans-Serif" font-size="10.00"> </text>
<text xml:space="preserve" text-anchor="start" x="4" y="-174.25" font-family="Helvetica,sans-Serif" font-size="10.00">+</text>
<text xml:space="preserve" text-anchor="start" x="14" y="-174.25" font-family="Helvetica,sans-Serif" font-size="10.00">on_message_create()</text>
<text xml:space="preserve" text-anchor="start" x="4" y="-158.25" font-family="Helvetica,sans-Serif" font-size="10.00">+</text>
<text xml:space="preserve" text-anchor="start" x="14" y="-158.25" font-family="Helvetica,sans-Serif" font-size="10.00">on_message_delete()</text>
<text xml:space="preserve" text-anchor="start" x="4" y="-142.25" font-family="Helvetica,sans-Serif" font-size="10.00">+</text>
<text xml:space="preserve" text-anchor="start" x="14" y="-142.25" font-family="Helvetica,sans-Serif" font-size="10.00">on_message_delete_bulk()</text>
<polygon fill="#666666" stroke="#666666" points="0,-202 0,-202 134.25,-202 134.25,-202 0,-202"/>
<polygon fill="#666666" stroke="#666666" points="0,-186 0,-186 134.25,-186 134.25,-186 0,-186"/>
<polygon fill="none" stroke="#666666" points="0,-136 0,-220 134.25,-220 134.25,-136 0,-136"/>
</a>
</g>
</g>
<!-- Node2&#45;&gt;Node1 -->
<g id="edge1_Node000001_Node000002" class="edge">
<title>Node2&#45;&gt;Node1</title>
<g id="a_edge1_Node000001_Node000002"><a xlink:title=" ">
<path fill="none" stroke="#63b8ff" d="M67.12,-124.61C67.12,-116.33 67.12,-107.8 67.12,-99.61"/>
<polygon fill="none" stroke="#63b8ff" points="63.63,-124.58 67.13,-134.58 70.63,-124.58 63.63,-124.58"/>
</a>
</g>
</g>
</g>
</svg>
