<?xml version="1.0" encoding="UTF-8" standalone="no"?>
<!DOCTYPE svg PUBLIC "-//W3C//DTD SVG 1.1//EN"
 "http://www.w3.org/Graphics/SVG/1.1/DTD/svg11.dtd">
<!-- Generated by graphviz version 9.0.0 (0)
 -->
<!-- Title: IGlobalSlashCommand Pages: 1 -->
<svg width="173pt" height="188pt"
 viewBox="0.00 0.00 173.25 188.00" xmlns="http://www.w3.org/2000/svg" xmlns:xlink="http://www.w3.org/1999/xlink">
<g id="graph0" class="graph" transform="scale(1 1) rotate(0) translate(4 184)">
<title>IGlobalSlashCommand</title>
<!-- Node1 -->
<g id="Node000001" class="node">
<title>Node1</title>
<g id="a_Node000001"><a xlink:title=" ">
<polygon fill="#999999" stroke="none" points="122,-68 0,-68 0,0 122,0 122,-68"/>
<text text-anchor="start" x="10.75" y="-54.5" font-family="Helvetica,sans-Serif" font-size="10.00">IGlobalSlashCommand</text>
<text text-anchor="start" x="59.5" y="-38.5" font-family="Helvetica,sans-Serif" font-size="10.00"> </text>
<text text-anchor="start" x="4" y="-22.5" font-family="Helvetica,sans-Serif" font-size="10.00">+</text>
<text text-anchor="start" x="14" y="-22.5" font-family="Helvetica,sans-Serif" font-size="10.00">create_slashcommand()</text>
<text text-anchor="start" x="4" y="-6.5" font-family="Helvetica,sans-Serif" font-size="10.00">+</text>
<text text-anchor="start" x="14" y="-6.5" font-family="Helvetica,sans-Serif" font-size="10.00">on_slashcommand()</text>
<polygon fill="#666666" stroke="#666666" points="0,-50 0,-50 122,-50 122,-50 0,-50"/>
<polygon fill="#666666" stroke="#666666" points="0,-34 0,-34 122,-34 122,-34 0,-34"/>
<polygon fill="none" stroke="#666666" points="0,0 0,-68 122,-68 122,0 0,0"/>
</a>
</g>
</g>
<!-- Node2 -->
<g id="Node000002" class="node">
<title>Node2</title>
<g id="a_Node000002"><a xlink:title=" ">
<polygon fill="white" stroke="none" points="78,-180 44,-180 44,-128 78,-128 78,-180"/>
<text text-anchor="start" x="49" y="-166.5" font-family="Helvetica,sans-Serif" font-size="10.00">string</text>
<text text-anchor="start" x="59.5" y="-150.5" font-family="Helvetica,sans-Serif" font-size="10.00"> </text>
<text text-anchor="start" x="59.5" y="-134.5" font-family="Helvetica,sans-Serif" font-size="10.00"> </text>
<polygon fill="#666666" stroke="#666666" points="44,-162 44,-162 78,-162 78,-162 44,-162"/>
<polygon fill="#666666" stroke="#666666" points="44,-146 44,-146 78,-146 78,-146 44,-146"/>
<polygon fill="none" stroke="#666666" points="44,-128 44,-180 78,-180 78,-128 44,-128"/>
</a>
</g>
</g>
<!-- Node2&#45;&gt;Node1 -->
<g id="edge1_Node000001_Node000002" class="edge">
<title>Node2&#45;&gt;Node1</title>
<g id="a_edge1_Node000001_Node000002"><a xlink:title=" ">
<path fill="none" stroke="#63b8ff" d="M61,-128.26C61,-114.4 61,-96.67 61,-80.4"/>
<polygon fill="none" stroke="#63b8ff" points="61,-80.67 57,-74.67 61,-68.67 65,-74.67 61,-80.67"/>
</a>
</g>
<text text-anchor="middle" x="113.12" y="-100.5" font-family="Helvetica,sans-Serif" font-size="10.00" fill="grey"> +command_description</text>
<text text-anchor="middle" x="113.12" y="-88.5" font-family="Helvetica,sans-Serif" font-size="10.00" fill="grey">+command_name</text>
</g>
</g>
</svg>
