<?xml version="1.0" encoding="UTF-8" standalone="no"?>
<!DOCTYPE svg PUBLIC "-//W3C//DTD SVG 1.1//EN"
 "http://www.w3.org/Graphics/SVG/1.1/DTD/svg11.dtd">
<!-- Generated by graphviz version 9.0.0 (0)
 -->
<!-- Title: src/bot_library/commands/clean_up/CleanUp.cpp Pages: 1 -->
<svg width="1889pt" height="376pt"
 viewBox="0.00 0.00 1889.25 376.00" xmlns="http://www.w3.org/2000/svg" xmlns:xlink="http://www.w3.org/1999/xlink">
<g id="graph0" class="graph" transform="scale(1 1) rotate(0) translate(4 372)">
<title>src/bot_library/commands/clean_up/CleanUp.cpp</title>
<!-- Node1 -->
<g id="Node000001" class="node">
<title>Node1</title>
<g id="a_Node000001"><a xlink:title=" ">
<polygon fill="#999999" stroke="#666666" points="1550,-368 1421.5,-368 1421.5,-336 1550,-336 1550,-368"/>
<text text-anchor="start" x="1429.5" y="-354.5" font-family="Helvetica,sans-Serif" font-size="10.00">src/bot_library/commands</text>
<text text-anchor="middle" x="1485.75" y="-342.5" font-family="Helvetica,sans-Serif" font-size="10.00">/clean_up/CleanUp.cpp</text>
</a>
</g>
</g>
<!-- Node2 -->
<g id="Node000002" class="node">
<title>Node2</title>
<g id="a_Node000002"><a xlink:href="CleanUp_8hpp.html" target="_top" xlink:title=" ">
<polygon fill="white" stroke="#666666" points="1085.25,-300 1012.25,-300 1012.25,-280 1085.25,-280 1085.25,-300"/>
<text text-anchor="middle" x="1048.75" y="-286.5" font-family="Helvetica,sans-Serif" font-size="10.00">CleanUp.hpp</text>
</a>
</g>
</g>
<!-- Node1&#45;&gt;Node2 -->
<g id="edge1_Node000001_Node000002" class="edge">
<title>Node1&#45;&gt;Node2</title>
<g id="a_edge1_Node000001_Node000002"><a xlink:title=" ">
<path fill="none" stroke="#63b8ff" d="M1421.27,-342.15C1332.68,-329.98 1175.35,-308.38 1096.54,-297.56"/>
<polygon fill="#63b8ff" stroke="#63b8ff" points="1097.38,-294.14 1086.99,-296.25 1096.42,-301.08 1097.38,-294.14"/>
</a>
</g>
</g>
<!-- Node29 -->
<g id="Node000029" class="node">
<title>Node29</title>
<g id="a_Node000029"><a xlink:title=" ">
<polygon fill="#e0e0e0" stroke="#999999" points="1458,-300 1389.5,-300 1389.5,-280 1458,-280 1458,-300"/>
<text text-anchor="middle" x="1423.75" y="-286.5" font-family="Helvetica,sans-Serif" font-size="10.00">snowflake.h</text>
</a>
</g>
</g>
<!-- Node1&#45;&gt;Node29 -->
<g id="edge51_Node000001_Node000029" class="edge">
<title>Node1&#45;&gt;Node29</title>
<g id="a_edge51_Node000001_Node000029"><a xlink:title=" ">
<path fill="none" stroke="#63b8ff" d="M1469.78,-335.55C1461.17,-327.22 1450.52,-316.91 1441.63,-308.3"/>
<polygon fill="#63b8ff" stroke="#63b8ff" points="1444.18,-305.9 1434.56,-301.46 1439.31,-310.93 1444.18,-305.9"/>
</a>
</g>
</g>
<!-- Node30 -->
<g id="Node000030" class="node">
<title>Node30</title>
<g id="a_Node000030"><a xlink:href="ChallengeRoleRepository_8hpp.html" target="_top" xlink:title=" ">
<polygon fill="white" stroke="#666666" points="1526.25,-188 1381.25,-188 1381.25,-168 1526.25,-168 1526.25,-188"/>
<text text-anchor="middle" x="1453.75" y="-174.5" font-family="Helvetica,sans-Serif" font-size="10.00">ChallengeRoleRepository.hpp</text>
</a>
</g>
</g>
<!-- Node1&#45;&gt;Node30 -->
<g id="edge52_Node000001_Node000030" class="edge">
<title>Node1&#45;&gt;Node30</title>
<g id="a_edge52_Node000001_Node000030"><a xlink:title=" ">
<path fill="none" stroke="#63b8ff" d="M1482.91,-335.74C1477.13,-304.69 1464.02,-234.18 1457.53,-199.31"/>
<polygon fill="#63b8ff" stroke="#63b8ff" points="1461.01,-198.89 1455.74,-189.7 1454.13,-200.17 1461.01,-198.89"/>
</a>
</g>
</g>
<!-- Node33 -->
<g id="Node000033" class="node">
<title>Node33</title>
<g id="a_Node000033"><a xlink:href="ChallengeBadgeRepository_8hpp.html" target="_top" xlink:title=" ">
<polygon fill="white" stroke="#666666" points="1697,-188 1544.5,-188 1544.5,-168 1697,-168 1697,-188"/>
<text text-anchor="middle" x="1620.75" y="-174.5" font-family="Helvetica,sans-Serif" font-size="10.00">ChallengeBadgeRepository.hpp</text>
</a>
</g>
</g>
<!-- Node1&#45;&gt;Node33 -->
<g id="edge58_Node000001_Node000033" class="edge">
<title>Node1&#45;&gt;Node33</title>
<g id="a_edge58_Node000001_Node000033"><a xlink:title=" ">
<path fill="none" stroke="#63b8ff" d="M1497.73,-335.74C1522.63,-304.01 1579.88,-231.07 1606.57,-197.06"/>
<polygon fill="#63b8ff" stroke="#63b8ff" points="1609.17,-199.43 1612.59,-189.4 1603.66,-195.11 1609.17,-199.43"/>
</a>
</g>
</g>
<!-- Node35 -->
<g id="Node000035" class="node">
<title>Node35</title>
<g id="a_Node000035"><a xlink:href="ReactionRoleRepository_8hpp.html" target="_top" xlink:title=" ">
<polygon fill="white" stroke="#666666" points="1856,-188 1715.5,-188 1715.5,-168 1856,-168 1856,-188"/>
<text text-anchor="middle" x="1785.75" y="-174.5" font-family="Helvetica,sans-Serif" font-size="10.00">ReactionRoleRepository.hpp</text>
</a>
</g>
</g>
<!-- Node1&#45;&gt;Node35 -->
<g id="edge63_Node000001_Node000035" class="edge">
<title>Node1&#45;&gt;Node35</title>
<g id="a_edge63_Node000001_Node000035"><a xlink:title=" ">
<path fill="none" stroke="#63b8ff" d="M1512.64,-335.58C1569.79,-302.82 1702.75,-226.59 1759.41,-194.1"/>
<polygon fill="#63b8ff" stroke="#63b8ff" points="1761.13,-197.15 1768.06,-189.14 1757.65,-191.08 1761.13,-197.15"/>
</a>
</g>
</g>
<!-- Node3 -->
<g id="Node000003" class="node">
<title>Node3</title>
<g id="a_Node000003"><a xlink:href="Bot_8hpp.html" target="_top" xlink:title=" ">
<polygon fill="white" stroke="#666666" points="755.62,-244 705.88,-244 705.88,-224 755.62,-224 755.62,-244"/>
<text text-anchor="middle" x="730.75" y="-230.5" font-family="Helvetica,sans-Serif" font-size="10.00">Bot.hpp</text>
</a>
</g>
</g>
<!-- Node2&#45;&gt;Node3 -->
<g id="edge2_Node000002_Node000003" class="edge">
<title>Node2&#45;&gt;Node3</title>
<g id="a_edge2_Node000002_Node000003"><a xlink:title=" ">
<path fill="none" stroke="#63b8ff" d="M1011.96,-282.75C950.52,-272.32 827.79,-251.48 766.83,-241.13"/>
<polygon fill="#63b8ff" stroke="#63b8ff" points="767.78,-237.74 757.34,-239.51 766.61,-244.64 767.78,-237.74"/>
</a>
</g>
</g>
<!-- Node4 -->
<g id="Node000004" class="node">
<title>Node4</title>
<g id="a_Node000004"><a xlink:href="Core_8hpp.html" target="_top" xlink:title=" ">
<polygon fill="white" stroke="#666666" points="758.62,-188 702.88,-188 702.88,-168 758.62,-168 758.62,-188"/>
<text text-anchor="middle" x="730.75" y="-174.5" font-family="Helvetica,sans-Serif" font-size="10.00">Core.hpp</text>
</a>
</g>
</g>
<!-- Node3&#45;&gt;Node4 -->
<g id="edge3_Node000003_Node000004" class="edge">
<title>Node3&#45;&gt;Node4</title>
<g id="a_edge3_Node000003_Node000004"><a xlink:title=" ">
<path fill="none" stroke="#63b8ff" d="M730.75,-223.59C730.75,-217.01 730.75,-207.96 730.75,-199.73"/>
<polygon fill="#63b8ff" stroke="#63b8ff" points="734.25,-199.81 730.75,-189.81 727.25,-199.81 734.25,-199.81"/>
</a>
</g>
</g>
<!-- Node13 -->
<g id="Node000013" class="node">
<title>Node13</title>
<g id="a_Node000013"><a xlink:title=" ">
<polygon fill="#e0e0e0" stroke="#999999" points="1495.75,-76 1455.75,-76 1455.75,-56 1495.75,-56 1495.75,-76"/>
<text text-anchor="middle" x="1475.75" y="-62.5" font-family="Helvetica,sans-Serif" font-size="10.00">string</text>
</a>
</g>
</g>
<!-- Node3&#45;&gt;Node13 -->
<g id="edge49_Node000003_Node000013" class="edge">
<title>Node3&#45;&gt;Node13</title>
<g id="a_edge49_Node000003_Node000013"><a xlink:title=" ">
<path fill="none" stroke="#63b8ff" d="M756.11,-231.87C840.28,-227.48 1117.22,-207.79 1330.75,-132 1349.86,-125.22 1353.33,-120.47 1371.75,-112 1396.14,-100.78 1424.08,-88.73 1444.86,-79.93"/>
<polygon fill="#63b8ff" stroke="#63b8ff" points="1446.06,-83.23 1453.91,-76.11 1443.33,-76.78 1446.06,-83.23"/>
</a>
</g>
</g>
<!-- Node15 -->
<g id="Node000015" class="node">
<title>Node15</title>
<g id="a_Node000015"><a xlink:title=" ">
<polygon fill="#e0e0e0" stroke="#999999" points="1117.25,-76 1074.25,-76 1074.25,-56 1117.25,-56 1117.25,-76"/>
<text text-anchor="middle" x="1095.75" y="-62.5" font-family="Helvetica,sans-Serif" font-size="10.00">vector</text>
</a>
</g>
</g>
<!-- Node3&#45;&gt;Node15 -->
<g id="edge50_Node000003_Node000015" class="edge">
<title>Node3&#45;&gt;Node15</title>
<g id="a_edge50_Node000003_Node000015"><a xlink:title=" ">
<path fill="none" stroke="#63b8ff" d="M755.97,-231.12C840.65,-224.26 1112.33,-197.37 1163.75,-132 1179.12,-112.46 1152.16,-93.17 1127.78,-80.74"/>
<polygon fill="#63b8ff" stroke="#63b8ff" points="1129.51,-77.69 1118.98,-76.52 1126.48,-84 1129.51,-77.69"/>
</a>
</g>
</g>
<!-- Node17 -->
<g id="Node000017" class="node">
<title>Node17</title>
<g id="a_Node000017"><a xlink:href="IButtonCommand_8hpp.html" target="_top" xlink:title=" ">
<polygon fill="white" stroke="#666666" points="335.38,-132 224.12,-132 224.12,-112 335.38,-112 335.38,-132"/>
<text text-anchor="middle" x="279.75" y="-118.5" font-family="Helvetica,sans-Serif" font-size="10.00">IButtonCommand.hpp</text>
</a>
</g>
</g>
<!-- Node3&#45;&gt;Node17 -->
<g id="edge38_Node000003_Node000017" class="edge">
<title>Node3&#45;&gt;Node17</title>
<g id="a_edge38_Node000003_Node000017"><a xlink:title=" ">
<path fill="none" stroke="#63b8ff" d="M705.39,-227.14C668.78,-218.66 599.01,-202.39 539.75,-188 465.61,-170 379.78,-148.39 327.65,-135.18"/>
<polygon fill="#63b8ff" stroke="#63b8ff" points="328.76,-131.85 318.21,-132.79 327.04,-138.64 328.76,-131.85"/>
</a>
</g>
</g>
<!-- Node20 -->
<g id="Node000020" class="node">
<title>Node20</title>
<g id="a_Node000020"><a xlink:href="IFormCommand_8hpp.html" target="_top" xlink:title=" ">
<polygon fill="white" stroke="#666666" points="595.38,-132 490.12,-132 490.12,-112 595.38,-112 595.38,-132"/>
<text text-anchor="middle" x="542.75" y="-118.5" font-family="Helvetica,sans-Serif" font-size="10.00">IFormCommand.hpp</text>
</a>
</g>
</g>
<!-- Node3&#45;&gt;Node20 -->
<g id="edge39_Node000003_Node000020" class="edge">
<title>Node3&#45;&gt;Node20</title>
<g id="a_edge39_Node000003_Node000020"><a xlink:title=" ">
<path fill="none" stroke="#63b8ff" d="M714.72,-223.62C682.19,-204.58 608.14,-161.26 568.67,-138.16"/>
<polygon fill="#63b8ff" stroke="#63b8ff" points="570.44,-135.15 560.04,-133.12 566.91,-141.19 570.44,-135.15"/>
</a>
</g>
</g>
<!-- Node21 -->
<g id="Node000021" class="node">
<title>Node21</title>
<g id="a_Node000021"><a xlink:href="IGlobalSlashCommand_8hpp.html" target="_top" xlink:title=" ">
<polygon fill="white" stroke="#666666" points="1154.38,-132 1019.12,-132 1019.12,-112 1154.38,-112 1154.38,-132"/>
<text text-anchor="middle" x="1086.75" y="-118.5" font-family="Helvetica,sans-Serif" font-size="10.00">IGlobalSlashCommand.hpp</text>
</a>
</g>
</g>
<!-- Node3&#45;&gt;Node21 -->
<g id="edge40_Node000003_Node000021" class="edge">
<title>Node3&#45;&gt;Node21</title>
<g id="a_edge40_Node000003_Node000021"><a xlink:title=" ">
<path fill="none" stroke="#63b8ff" d="M755.91,-226.24C787.34,-217.71 842.71,-202.41 889.75,-188 945.34,-170.97 1009.17,-149.57 1048.73,-136.08"/>
<polygon fill="#63b8ff" stroke="#63b8ff" points="1049.7,-139.45 1058.03,-132.9 1047.43,-132.83 1049.7,-139.45"/>
</a>
</g>
</g>
<!-- Node23 -->
<g id="Node000023" class="node">
<title>Node23</title>
<g id="a_Node000023"><a xlink:href="IMemberCommand_8hpp.html" target="_top" xlink:title=" ">
<polygon fill="white" stroke="#666666" points="471.75,-132 353.75,-132 353.75,-112 471.75,-112 471.75,-132"/>
<text text-anchor="middle" x="412.75" y="-118.5" font-family="Helvetica,sans-Serif" font-size="10.00">IMemberCommand.hpp</text>
</a>
</g>
</g>
<!-- Node3&#45;&gt;Node23 -->
<g id="edge41_Node000003_Node000023" class="edge">
<title>Node3&#45;&gt;Node23</title>
<g id="a_edge41_Node000003_Node000023"><a xlink:title=" ">
<path fill="none" stroke="#63b8ff" d="M705.53,-224.28C649.85,-205.01 516.13,-158.76 450.45,-136.04"/>
<polygon fill="#63b8ff" stroke="#63b8ff" points="451.79,-132.8 441.19,-132.84 449.5,-139.41 451.79,-132.8"/>
</a>
</g>
</g>
<!-- Node24 -->
<g id="Node000024" class="node">
<title>Node24</title>
<g id="a_Node000024"><a xlink:href="IMessageCommand_8hpp.html" target="_top" xlink:title=" ">
<polygon fill="white" stroke="#666666" points="736,-132 613.5,-132 613.5,-112 736,-112 736,-132"/>
<text text-anchor="middle" x="674.75" y="-118.5" font-family="Helvetica,sans-Serif" font-size="10.00">IMessageCommand.hpp</text>
</a>
</g>
</g>
<!-- Node3&#45;&gt;Node24 -->
<g id="edge42_Node000003_Node000024" class="edge">
<title>Node3&#45;&gt;Node24</title>
<g id="a_edge42_Node000003_Node000024"><a xlink:title=" ">
<path fill="none" stroke="#63b8ff" d="M721.28,-223.82C712.94,-215.26 701.03,-201.77 693.75,-188 686.34,-173.98 681.46,-156.69 678.51,-143.46"/>
<polygon fill="#63b8ff" stroke="#63b8ff" points="681.96,-142.86 676.54,-133.76 675.1,-144.25 681.96,-142.86"/>
</a>
</g>
</g>
<!-- Node25 -->
<g id="Node000025" class="node">
<title>Node25</title>
<g id="a_Node000025"><a xlink:href="IReactionCommand_8hpp.html" target="_top" xlink:title=" ">
<polygon fill="white" stroke="#666666" points="205.62,-132 83.88,-132 83.88,-112 205.62,-112 205.62,-132"/>
<text text-anchor="middle" x="144.75" y="-118.5" font-family="Helvetica,sans-Serif" font-size="10.00">IReactionCommand.hpp</text>
</a>
</g>
</g>
<!-- Node3&#45;&gt;Node25 -->
<g id="edge43_Node000003_Node000025" class="edge">
<title>Node3&#45;&gt;Node25</title>
<g id="a_edge43_Node000003_Node000025"><a xlink:title=" ">
<path fill="none" stroke="#63b8ff" d="M705.47,-229.19C657.21,-221.84 548.66,-204.92 457.75,-188 366.45,-171 260.77,-148.45 198.52,-134.87"/>
<polygon fill="#63b8ff" stroke="#63b8ff" points="199.42,-131.49 188.9,-132.77 197.92,-138.32 199.42,-131.49"/>
</a>
</g>
</g>
<!-- Node26 -->
<g id="Node000026" class="node">
<title>Node26</title>
<g id="a_Node000026"><a xlink:href="IReady_8hpp.html" target="_top" xlink:title=" ">
<polygon fill="white" stroke="#666666" points="65.5,-132 0,-132 0,-112 65.5,-112 65.5,-132"/>
<text text-anchor="middle" x="32.75" y="-118.5" font-family="Helvetica,sans-Serif" font-size="10.00">IReady.hpp</text>
</a>
</g>
</g>
<!-- Node3&#45;&gt;Node26 -->
<g id="edge44_Node000003_Node000026" class="edge">
<title>Node3&#45;&gt;Node26</title>
<g id="a_edge44_Node000003_Node000026"><a xlink:title=" ">
<path fill="none" stroke="#63b8ff" d="M705.47,-230.58C645.35,-224.68 489.19,-208.54 359.75,-188 235.87,-168.34 203.04,-158.53 77.01,-132.45"/>
<polygon fill="#63b8ff" stroke="#63b8ff" points="77.74,-129.03 67.24,-130.43 76.32,-135.88 77.74,-129.03"/>
</a>
</g>
</g>
<!-- Node27 -->
<g id="Node000027" class="node">
<title>Node27</title>
<g id="a_Node000027"><a xlink:title=" ">
<polygon fill="#e0e0e0" stroke="#999999" points="811.12,-188 776.38,-188 776.38,-168 811.12,-168 811.12,-188"/>
<text text-anchor="middle" x="793.75" y="-174.5" font-family="Helvetica,sans-Serif" font-size="10.00">map</text>
</a>
</g>
</g>
<!-- Node3&#45;&gt;Node27 -->
<g id="edge47_Node000003_Node000027" class="edge">
<title>Node3&#45;&gt;Node27</title>
<g id="a_edge47_Node000003_Node000027"><a xlink:title=" ">
<path fill="none" stroke="#63b8ff" d="M741.72,-223.59C750.67,-215.93 763.52,-204.91 774.21,-195.75"/>
<polygon fill="#63b8ff" stroke="#63b8ff" points="776.44,-198.45 781.75,-189.28 771.88,-193.13 776.44,-198.45"/>
</a>
</g>
</g>
<!-- Node28 -->
<g id="Node000028" class="node">
<title>Node28</title>
<g id="a_Node000028"><a xlink:title=" ">
<polygon fill="#e0e0e0" stroke="#999999" points="880.38,-188 829.12,-188 829.12,-168 880.38,-168 880.38,-188"/>
<text text-anchor="middle" x="854.75" y="-174.5" font-family="Helvetica,sans-Serif" font-size="10.00">memory</text>
</a>
</g>
</g>
<!-- Node3&#45;&gt;Node28 -->
<g id="edge48_Node000003_Node000028" class="edge">
<title>Node3&#45;&gt;Node28</title>
<g id="a_edge48_Node000003_Node000028"><a xlink:title=" ">
<path fill="none" stroke="#63b8ff" d="M752.35,-223.59C771.7,-215.17 800.35,-202.69 822.43,-193.07"/>
<polygon fill="#63b8ff" stroke="#63b8ff" points="823.82,-196.29 831.59,-189.08 821.03,-189.87 823.82,-196.29"/>
</a>
</g>
</g>
<!-- Node5 -->
<g id="Node000005" class="node">
<title>Node5</title>
<g id="a_Node000005"><a xlink:title=" ">
<polygon fill="#e0e0e0" stroke="#999999" points="813.12,-132 754.38,-132 754.38,-112 813.12,-112 813.12,-132"/>
<text text-anchor="middle" x="783.75" y="-118.5" font-family="Helvetica,sans-Serif" font-size="10.00">dpp/dpp.h</text>
</a>
</g>
</g>
<!-- Node4&#45;&gt;Node5 -->
<g id="edge4_Node000004_Node000005" class="edge">
<title>Node4&#45;&gt;Node5</title>
<g id="a_edge4_Node000004_Node000005"><a xlink:title=" ">
<path fill="none" stroke="#63b8ff" d="M739.98,-167.59C747.35,-160.08 757.88,-149.35 766.77,-140.3"/>
<polygon fill="#63b8ff" stroke="#63b8ff" points="769.06,-142.97 773.56,-133.38 764.06,-138.06 769.06,-142.97"/>
</a>
</g>
</g>
<!-- Node6 -->
<g id="Node000006" class="node">
<title>Node6</title>
<g id="a_Node000006"><a xlink:title=" ">
<polygon fill="#e0e0e0" stroke="#999999" points="922.25,-132 831.25,-132 831.25,-112 922.25,-112 922.25,-132"/>
<text text-anchor="middle" x="876.75" y="-118.5" font-family="Helvetica,sans-Serif" font-size="10.00">dpp/misc&#45;enum.h</text>
</a>
</g>
</g>
<!-- Node4&#45;&gt;Node6 -->
<g id="edge5_Node000004_Node000006" class="edge">
<title>Node4&#45;&gt;Node6</title>
<g id="a_edge5_Node000004_Node000006"><a xlink:title=" ">
<path fill="none" stroke="#63b8ff" d="M756.18,-167.59C779.49,-158.97 814.25,-146.12 840.47,-136.42"/>
<polygon fill="#63b8ff" stroke="#63b8ff" points="841.54,-139.76 849.7,-133 839.11,-133.19 841.54,-139.76"/>
</a>
</g>
</g>
<!-- Node7 -->
<g id="Node000007" class="node">
<title>Node7</title>
<g id="a_Node000007"><a xlink:title=" ">
<polygon fill="#e0e0e0" stroke="#999999" points="1000.88,-132 940.62,-132 940.62,-112 1000.88,-112 1000.88,-132"/>
<text text-anchor="middle" x="970.75" y="-118.5" font-family="Helvetica,sans-Serif" font-size="10.00">fmt/core.h</text>
</a>
</g>
</g>
<!-- Node4&#45;&gt;Node7 -->
<g id="edge6_Node000004_Node000007" class="edge">
<title>Node4&#45;&gt;Node7</title>
<g id="a_edge6_Node000004_Node000007"><a xlink:title=" ">
<path fill="none" stroke="#63b8ff" d="M759.02,-170.06C761.96,-169.35 764.92,-168.66 767.75,-168 837.05,-151.97 857.09,-148.68 929.46,-132.49"/>
<polygon fill="#63b8ff" stroke="#63b8ff" points="930.06,-135.95 939.05,-130.34 928.52,-129.12 930.06,-135.95"/>
</a>
</g>
</g>
<!-- Node8 -->
<g id="Node000008" class="node">
<title>Node8</title>
<g id="a_Node000008"><a xlink:href="Database_8hpp.html" target="_top" xlink:title=" ">
<polygon fill="white" stroke="#666666" points="1287.12,-132 1210.38,-132 1210.38,-112 1287.12,-112 1287.12,-132"/>
<text text-anchor="middle" x="1248.75" y="-118.5" font-family="Helvetica,sans-Serif" font-size="10.00">Database.hpp</text>
</a>
</g>
</g>
<!-- Node4&#45;&gt;Node8 -->
<g id="edge7_Node000004_Node000008" class="edge">
<title>Node4&#45;&gt;Node8</title>
<g id="a_edge7_Node000004_Node000008"><a xlink:title=" ">
<path fill="none" stroke="#63b8ff" d="M758.94,-169.69C761.9,-169.06 764.88,-168.48 767.75,-168 942.09,-139.04 987.87,-149.3 1163.75,-132 1175.16,-130.88 1187.42,-129.61 1198.98,-128.39"/>
<polygon fill="#63b8ff" stroke="#63b8ff" points="1199.18,-131.89 1208.75,-127.36 1198.44,-124.93 1199.18,-131.89"/>
</a>
</g>
</g>
<!-- Node4&#45;&gt;Node13 -->
<g id="edge37_Node000004_Node000013" class="edge">
<title>Node4&#45;&gt;Node13</title>
<g id="a_edge37_Node000004_Node000013"><a xlink:title=" ">
<path fill="none" stroke="#63b8ff" d="M758.93,-169.62C761.9,-169 764.88,-168.44 767.75,-168 1000.2,-132.07 1067.95,-190.58 1295.75,-132 1316.16,-126.75 1319.15,-119.75 1338.75,-112 1358.2,-104.31 1410.64,-87.49 1444.7,-76.73"/>
<polygon fill="#63b8ff" stroke="#63b8ff" points="1445.55,-80.13 1454.04,-73.79 1443.45,-73.45 1445.55,-80.13"/>
</a>
</g>
</g>
<!-- Node4&#45;&gt;Node17 -->
<g id="edge17_Node000004_Node000017" class="edge">
<title>Node4&#45;&gt;Node17</title>
<g id="a_edge17_Node000004_Node000017"><a xlink:title=" ">
<path fill="none" stroke="#63b8ff" d="M702.63,-173.93C640.59,-167.12 486.99,-150 347.09,-132.27"/>
<polygon fill="#63b8ff" stroke="#63b8ff" points="347.62,-128.81 337.26,-131.02 346.74,-135.76 347.62,-128.81"/>
</a>
</g>
</g>
<!-- Node4&#45;&gt;Node20 -->
<g id="edge20_Node000004_Node000020" class="edge">
<title>Node4&#45;&gt;Node20</title>
<g id="a_edge20_Node000004_Node000020"><a xlink:title=" ">
<path fill="none" stroke="#63b8ff" d="M702.6,-168.92C671.78,-160.06 621.99,-145.76 586.16,-135.47"/>
<polygon fill="#63b8ff" stroke="#63b8ff" points="587.55,-132.23 576.98,-132.83 585.62,-138.96 587.55,-132.23"/>
</a>
</g>
</g>
<!-- Node4&#45;&gt;Node21 -->
<g id="edge23_Node000004_Node000021" class="edge">
<title>Node4&#45;&gt;Node21</title>
<g id="a_edge23_Node000004_Node000021"><a xlink:title=" ">
<path fill="none" stroke="#63b8ff" d="M758.97,-169.83C761.93,-169.17 764.89,-168.55 767.75,-168 812.25,-159.47 928.21,-143.71 1007.35,-133.29"/>
<polygon fill="#63b8ff" stroke="#63b8ff" points="1007.78,-136.76 1017.24,-131.99 1006.87,-129.82 1007.78,-136.76"/>
</a>
</g>
</g>
<!-- Node4&#45;&gt;Node23 -->
<g id="edge28_Node000004_Node000023" class="edge">
<title>Node4&#45;&gt;Node23</title>
<g id="a_edge28_Node000004_Node000023"><a xlink:title=" ">
<path fill="none" stroke="#63b8ff" d="M702.53,-172.21C652.93,-163.78 548.83,-146.11 479.86,-134.4"/>
<polygon fill="#63b8ff" stroke="#63b8ff" points="480.62,-130.98 470.18,-132.75 479.45,-137.88 480.62,-130.98"/>
</a>
</g>
</g>
<!-- Node4&#45;&gt;Node24 -->
<g id="edge31_Node000004_Node000024" class="edge">
<title>Node4&#45;&gt;Node24</title>
<g id="a_edge31_Node000004_Node000024"><a xlink:title=" ">
<path fill="none" stroke="#63b8ff" d="M721,-167.59C713.13,-160.01 701.85,-149.13 692.4,-140.02"/>
<polygon fill="#63b8ff" stroke="#63b8ff" points="695.11,-137.77 685.48,-133.35 690.25,-142.81 695.11,-137.77"/>
</a>
</g>
</g>
<!-- Node4&#45;&gt;Node25 -->
<g id="edge34_Node000004_Node000025" class="edge">
<title>Node4&#45;&gt;Node25</title>
<g id="a_edge34_Node000004_Node000025"><a xlink:title=" ">
<path fill="none" stroke="#63b8ff" d="M702.46,-174.94C626.11,-169.3 409.19,-152.7 217.25,-132.23"/>
<polygon fill="#63b8ff" stroke="#63b8ff" points="217.64,-128.75 207.32,-131.16 216.89,-135.71 217.64,-128.75"/>
</a>
</g>
</g>
<!-- Node9 -->
<g id="Node000009" class="node">
<title>Node9</title>
<g id="a_Node000009"><a xlink:title=" ">
<polygon fill="#e0e0e0" stroke="#999999" points="1437.88,-76 1389.62,-76 1389.62,-56 1437.88,-56 1437.88,-76"/>
<text text-anchor="middle" x="1413.75" y="-62.5" font-family="Helvetica,sans-Serif" font-size="10.00">cstddef</text>
</a>
</g>
</g>
<!-- Node8&#45;&gt;Node9 -->
<g id="edge8_Node000008_Node000009" class="edge">
<title>Node8&#45;&gt;Node9</title>
<g id="a_edge8_Node000008_Node000009"><a xlink:title=" ">
<path fill="none" stroke="#63b8ff" d="M1277.49,-111.59C1305.57,-102.4 1348.37,-88.4 1378.5,-78.54"/>
<polygon fill="#63b8ff" stroke="#63b8ff" points="1379.51,-81.89 1387.93,-75.45 1377.33,-75.24 1379.51,-81.89"/>
</a>
</g>
</g>
<!-- Node10 -->
<g id="Node000010" class="node">
<title>Node10</title>
<g id="a_Node000010"><a xlink:title=" ">
<polygon fill="#e0e0e0" stroke="#999999" points="1265.5,-76 1212,-76 1212,-56 1265.5,-56 1265.5,-76"/>
<text text-anchor="middle" x="1238.75" y="-62.5" font-family="Helvetica,sans-Serif" font-size="10.00">iostream</text>
</a>
</g>
</g>
<!-- Node8&#45;&gt;Node10 -->
<g id="edge9_Node000008_Node000010" class="edge">
<title>Node8&#45;&gt;Node10</title>
<g id="a_edge9_Node000008_Node000010"><a xlink:title=" ">
<path fill="none" stroke="#63b8ff" d="M1247.01,-111.59C1245.77,-104.93 1244.07,-95.75 1242.54,-87.44"/>
<polygon fill="#63b8ff" stroke="#63b8ff" points="1246.01,-86.98 1240.75,-77.79 1239.13,-88.26 1246.01,-86.98"/>
</a>
</g>
</g>
<!-- Node11 -->
<g id="Node000011" class="node">
<title>Node11</title>
<g id="a_Node000011"><a xlink:title=" ">
<polygon fill="#e0e0e0" stroke="#999999" points="1333.62,-76 1283.88,-76 1283.88,-56 1333.62,-56 1333.62,-76"/>
<text text-anchor="middle" x="1308.75" y="-62.5" font-family="Helvetica,sans-Serif" font-size="10.00">optional</text>
</a>
</g>
</g>
<!-- Node8&#45;&gt;Node11 -->
<g id="edge10_Node000008_Node000011" class="edge">
<title>Node8&#45;&gt;Node11</title>
<g id="a_edge10_Node000008_Node000011"><a xlink:title=" ">
<path fill="none" stroke="#63b8ff" d="M1259.2,-111.59C1267.72,-103.93 1279.96,-92.91 1290.14,-83.75"/>
<polygon fill="#63b8ff" stroke="#63b8ff" points="1292.2,-86.6 1297.29,-77.31 1287.52,-81.4 1292.2,-86.6"/>
</a>
</g>
</g>
<!-- Node12 -->
<g id="Node000012" class="node">
<title>Node12</title>
<g id="a_Node000012"><a xlink:title=" ">
<polygon fill="#e0e0e0" stroke="#999999" points="1495.25,-20 1434.25,-20 1434.25,0 1495.25,0 1495.25,-20"/>
<text text-anchor="middle" x="1464.75" y="-6.5" font-family="Helvetica,sans-Serif" font-size="10.00">pqxx/pqxx</text>
</a>
</g>
</g>
<!-- Node8&#45;&gt;Node12 -->
<g id="edge11_Node000008_Node000012" class="edge">
<title>Node8&#45;&gt;Node12</title>
<g id="a_edge11_Node000008_Node000012"><a xlink:title=" ">
<path fill="none" stroke="#63b8ff" d="M1269.04,-111.59C1288.16,-102.66 1317.56,-88.73 1342.75,-76 1351.98,-71.34 1404.08,-43.49 1437.14,-25.79"/>
<polygon fill="#63b8ff" stroke="#63b8ff" points="1438.63,-28.96 1445.79,-21.16 1435.32,-22.79 1438.63,-28.96"/>
</a>
</g>
</g>
<!-- Node8&#45;&gt;Node13 -->
<g id="edge12_Node000008_Node000013" class="edge">
<title>Node8&#45;&gt;Node13</title>
<g id="a_edge12_Node000008_Node000013"><a xlink:title=" ">
<path fill="none" stroke="#63b8ff" d="M1287.29,-113.16C1325.09,-105.28 1384.55,-92.33 1444.69,-76.4"/>
<polygon fill="#63b8ff" stroke="#63b8ff" points="1445.31,-79.85 1454.06,-73.89 1443.5,-73.09 1445.31,-79.85"/>
</a>
</g>
</g>
<!-- Node14 -->
<g id="Node000014" class="node">
<title>Node14</title>
<g id="a_Node000014"><a xlink:title=" ">
<polygon fill="#e0e0e0" stroke="#999999" points="1193.75,-76 1135.75,-76 1135.75,-56 1193.75,-56 1193.75,-76"/>
<text text-anchor="middle" x="1164.75" y="-62.5" font-family="Helvetica,sans-Serif" font-size="10.00">typeindex</text>
</a>
</g>
</g>
<!-- Node8&#45;&gt;Node14 -->
<g id="edge13_Node000008_Node000014" class="edge">
<title>Node8&#45;&gt;Node14</title>
<g id="a_edge13_Node000008_Node000014"><a xlink:title=" ">
<path fill="none" stroke="#63b8ff" d="M1234.12,-111.59C1221.67,-103.59 1203.53,-91.93 1188.93,-82.54"/>
<polygon fill="#63b8ff" stroke="#63b8ff" points="1191.07,-79.76 1180.77,-77.3 1187.29,-85.65 1191.07,-79.76"/>
</a>
</g>
</g>
<!-- Node8&#45;&gt;Node15 -->
<g id="edge14_Node000008_Node000015" class="edge">
<title>Node8&#45;&gt;Node15</title>
<g id="a_edge14_Node000008_Node000015"><a xlink:title=" ">
<path fill="none" stroke="#63b8ff" d="M1222.1,-111.59C1196.06,-102.4 1156.38,-88.4 1128.45,-78.54"/>
<polygon fill="#63b8ff" stroke="#63b8ff" points="1129.66,-75.26 1119.07,-75.23 1127.33,-81.86 1129.66,-75.26"/>
</a>
</g>
</g>
<!-- Node16 -->
<g id="Node000016" class="node">
<title>Node16</title>
<g id="a_Node000016"><a xlink:href="RowDTOAdapter_8hpp.html" target="_top" xlink:title=" ">
<polygon fill="white" stroke="#666666" points="1623.62,-76 1513.88,-76 1513.88,-56 1623.62,-56 1623.62,-76"/>
<text text-anchor="middle" x="1568.75" y="-62.5" font-family="Helvetica,sans-Serif" font-size="10.00">RowDTOAdapter.hpp</text>
</a>
</g>
</g>
<!-- Node8&#45;&gt;Node16 -->
<g id="edge15_Node000008_Node000016" class="edge">
<title>Node8&#45;&gt;Node16</title>
<g id="a_edge15_Node000008_Node000016"><a xlink:title=" ">
<path fill="none" stroke="#63b8ff" d="M1287.35,-114.49C1340.51,-105.52 1437.05,-89.23 1502.03,-78.26"/>
<polygon fill="#63b8ff" stroke="#63b8ff" points="1502.61,-81.71 1511.89,-76.6 1501.44,-74.81 1502.61,-81.71"/>
</a>
</g>
</g>
<!-- Node16&#45;&gt;Node12 -->
<g id="edge16_Node000016_Node000012" class="edge">
<title>Node16&#45;&gt;Node12</title>
<g id="a_edge16_Node000016_Node000012"><a xlink:title=" ">
<path fill="none" stroke="#63b8ff" d="M1550.63,-55.59C1534.78,-47.36 1511.47,-35.26 1493.13,-25.74"/>
<polygon fill="#63b8ff" stroke="#63b8ff" points="1494.84,-22.68 1484.35,-21.18 1491.61,-28.89 1494.84,-22.68"/>
</a>
</g>
</g>
<!-- Node18 -->
<g id="Node000018" class="node">
<title>Node18</title>
<g id="a_Node000018"><a xlink:title=" ">
<polygon fill="#e0e0e0" stroke="#999999" points="399.88,-76 327.62,-76 327.62,-56 399.88,-56 399.88,-76"/>
<text text-anchor="middle" x="363.75" y="-62.5" font-family="Helvetica,sans-Serif" font-size="10.00">dpp/cluster.h</text>
</a>
</g>
</g>
<!-- Node17&#45;&gt;Node18 -->
<g id="edge18_Node000017_Node000018" class="edge">
<title>Node17&#45;&gt;Node18</title>
<g id="a_edge18_Node000017_Node000018"><a xlink:title=" ">
<path fill="none" stroke="#63b8ff" d="M294.38,-111.59C306.83,-103.59 324.97,-91.93 339.57,-82.54"/>
<polygon fill="#63b8ff" stroke="#63b8ff" points="341.21,-85.65 347.73,-77.3 337.43,-79.76 341.21,-85.65"/>
</a>
</g>
</g>
<!-- Node19 -->
<g id="Node000019" class="node">
<title>Node19</title>
<g id="a_Node000019"><a xlink:title=" ">
<polygon fill="#e0e0e0" stroke="#999999" points="505.75,-76 417.75,-76 417.75,-56 505.75,-56 505.75,-76"/>
<text text-anchor="middle" x="461.75" y="-62.5" font-family="Helvetica,sans-Serif" font-size="10.00">dpp/dispatcher.h</text>
</a>
</g>
</g>
<!-- Node17&#45;&gt;Node19 -->
<g id="edge19_Node000017_Node000019" class="edge">
<title>Node17&#45;&gt;Node19</title>
<g id="a_edge19_Node000017_Node000019"><a xlink:title=" ">
<path fill="none" stroke="#63b8ff" d="M311.45,-111.59C341.28,-102.74 386.17,-89.43 419.12,-79.65"/>
<polygon fill="#63b8ff" stroke="#63b8ff" points="419.76,-83.11 428.35,-76.91 417.77,-76.4 419.76,-83.11"/>
</a>
</g>
</g>
<!-- Node20&#45;&gt;Node18 -->
<g id="edge21_Node000020_Node000018" class="edge">
<title>Node20&#45;&gt;Node18</title>
<g id="a_edge21_Node000020_Node000018"><a xlink:title=" ">
<path fill="none" stroke="#63b8ff" d="M511.57,-111.59C482.36,-102.78 438.47,-89.54 406.1,-79.78"/>
<polygon fill="#63b8ff" stroke="#63b8ff" points="407.21,-76.45 396.62,-76.92 405.18,-83.16 407.21,-76.45"/>
</a>
</g>
</g>
<!-- Node20&#45;&gt;Node19 -->
<g id="edge22_Node000020_Node000019" class="edge">
<title>Node20&#45;&gt;Node19</title>
<g id="a_edge22_Node000020_Node000019"><a xlink:title=" ">
<path fill="none" stroke="#63b8ff" d="M528.64,-111.59C516.75,-103.67 499.48,-92.16 485.47,-82.82"/>
<polygon fill="#63b8ff" stroke="#63b8ff" points="487.49,-79.95 477.23,-77.32 483.61,-85.78 487.49,-79.95"/>
</a>
</g>
</g>
<!-- Node21&#45;&gt;Node15 -->
<g id="edge27_Node000021_Node000015" class="edge">
<title>Node21&#45;&gt;Node15</title>
<g id="a_edge27_Node000021_Node000015"><a xlink:title=" ">
<path fill="none" stroke="#63b8ff" d="M1088.32,-111.59C1089.43,-104.93 1090.96,-95.75 1092.34,-87.44"/>
<polygon fill="#63b8ff" stroke="#63b8ff" points="1095.76,-88.23 1093.95,-77.79 1088.86,-87.08 1095.76,-88.23"/>
</a>
</g>
</g>
<!-- Node21&#45;&gt;Node18 -->
<g id="edge25_Node000021_Node000018" class="edge">
<title>Node21&#45;&gt;Node18</title>
<g id="a_edge25_Node000021_Node000018"><a xlink:title=" ">
<path fill="none" stroke="#63b8ff" d="M1018.75,-112.84C1015.71,-112.54 1012.7,-112.26 1009.75,-112 746.84,-88.78 676.06,-109.73 411.16,-76.13"/>
<polygon fill="#63b8ff" stroke="#63b8ff" points="411.89,-72.7 401.53,-74.89 411,-79.64 411.89,-72.7"/>
</a>
</g>
</g>
<!-- Node21&#45;&gt;Node19 -->
<g id="edge26_Node000021_Node000019" class="edge">
<title>Node21&#45;&gt;Node19</title>
<g id="a_edge26_Node000021_Node000019"><a xlink:title=" ">
<path fill="none" stroke="#63b8ff" d="M1018.74,-112.92C1015.71,-112.6 1012.7,-112.29 1009.75,-112 829.97,-94.12 616.51,-78.08 517.42,-70.93"/>
<polygon fill="#63b8ff" stroke="#63b8ff" points="517.93,-67.46 507.7,-70.24 517.43,-74.44 517.93,-67.46"/>
</a>
</g>
</g>
<!-- Node22 -->
<g id="Node000022" class="node">
<title>Node22</title>
<g id="a_Node000022"><a xlink:title=" ">
<polygon fill="#e0e0e0" stroke="#999999" points="1056.12,-76 973.38,-76 973.38,-56 1056.12,-56 1056.12,-76"/>
<text text-anchor="middle" x="1014.75" y="-62.5" font-family="Helvetica,sans-Serif" font-size="10.00">appcommand.h</text>
</a>
</g>
</g>
<!-- Node21&#45;&gt;Node22 -->
<g id="edge24_Node000021_Node000022" class="edge">
<title>Node21&#45;&gt;Node22</title>
<g id="a_edge24_Node000021_Node000022"><a xlink:title=" ">
<path fill="none" stroke="#63b8ff" d="M1074.21,-111.59C1063.78,-103.77 1048.7,-92.46 1036.34,-83.19"/>
<polygon fill="#63b8ff" stroke="#63b8ff" points="1038.46,-80.41 1028.36,-77.21 1034.26,-86.01 1038.46,-80.41"/>
</a>
</g>
</g>
<!-- Node23&#45;&gt;Node18 -->
<g id="edge29_Node000023_Node000018" class="edge">
<title>Node23&#45;&gt;Node18</title>
<g id="a_edge29_Node000023_Node000018"><a xlink:title=" ">
<path fill="none" stroke="#63b8ff" d="M404.21,-111.59C397.47,-104.16 387.86,-93.58 379.71,-84.58"/>
<polygon fill="#63b8ff" stroke="#63b8ff" points="382.52,-82.47 373.2,-77.42 377.33,-87.18 382.52,-82.47"/>
</a>
</g>
</g>
<!-- Node23&#45;&gt;Node19 -->
<g id="edge30_Node000023_Node000019" class="edge">
<title>Node23&#45;&gt;Node19</title>
<g id="a_edge30_Node000023_Node000019"><a xlink:title=" ">
<path fill="none" stroke="#63b8ff" d="M421.29,-111.59C428.03,-104.16 437.64,-93.58 445.79,-84.58"/>
<polygon fill="#63b8ff" stroke="#63b8ff" points="448.17,-87.18 452.3,-77.42 442.98,-82.47 448.17,-87.18"/>
</a>
</g>
</g>
<!-- Node24&#45;&gt;Node18 -->
<g id="edge32_Node000024_Node000018" class="edge">
<title>Node24&#45;&gt;Node18</title>
<g id="a_edge32_Node000024_Node000018"><a xlink:title=" ">
<path fill="none" stroke="#63b8ff" d="M615.76,-111.54C564.33,-103.17 487.42,-90.38 411.3,-76.43"/>
<polygon fill="#63b8ff" stroke="#63b8ff" points="412.04,-73.01 401.57,-74.64 410.77,-79.89 412.04,-73.01"/>
</a>
</g>
</g>
<!-- Node24&#45;&gt;Node19 -->
<g id="edge33_Node000024_Node000019" class="edge">
<title>Node24&#45;&gt;Node19</title>
<g id="a_edge33_Node000024_Node000019"><a xlink:title=" ">
<path fill="none" stroke="#63b8ff" d="M637.65,-111.59C602.28,-102.63 548.83,-89.08 510.14,-79.27"/>
<polygon fill="#63b8ff" stroke="#63b8ff" points="511.16,-75.92 500.61,-76.85 509.44,-82.7 511.16,-75.92"/>
</a>
</g>
</g>
<!-- Node25&#45;&gt;Node18 -->
<g id="edge35_Node000025_Node000018" class="edge">
<title>Node25&#45;&gt;Node18</title>
<g id="a_edge35_Node000025_Node000018"><a xlink:title=" ">
<path fill="none" stroke="#63b8ff" d="M183.15,-111.53C220.18,-102.4 276.34,-88.55 316.19,-78.73"/>
<polygon fill="#63b8ff" stroke="#63b8ff" points="316.88,-82.16 325.75,-76.37 315.2,-75.37 316.88,-82.16"/>
</a>
</g>
</g>
<!-- Node25&#45;&gt;Node19 -->
<g id="edge36_Node000025_Node000019" class="edge">
<title>Node25&#45;&gt;Node19</title>
<g id="a_edge36_Node000025_Node000019"><a xlink:title=" ">
<path fill="none" stroke="#63b8ff" d="M200.33,-111.53C258.26,-101.66 348.51,-86.29 406.37,-76.43"/>
<polygon fill="#63b8ff" stroke="#63b8ff" points="406.73,-79.92 416,-74.79 405.55,-73.02 406.73,-79.92"/>
</a>
</g>
</g>
<!-- Node26&#45;&gt;Node18 -->
<g id="edge45_Node000026_Node000018" class="edge">
<title>Node26&#45;&gt;Node18</title>
<g id="a_edge45_Node000026_Node000018"><a xlink:title=" ">
<path fill="none" stroke="#63b8ff" d="M65.73,-113.75C68.77,-113.13 71.82,-112.54 74.75,-112 159.3,-96.37 258.44,-81.73 315.88,-73.61"/>
<polygon fill="#63b8ff" stroke="#63b8ff" points="316.23,-77.09 325.64,-72.23 315.25,-70.16 316.23,-77.09"/>
</a>
</g>
</g>
<!-- Node26&#45;&gt;Node19 -->
<g id="edge46_Node000026_Node000019" class="edge">
<title>Node26&#45;&gt;Node19</title>
<g id="a_edge46_Node000026_Node000019"><a xlink:title=" ">
<path fill="none" stroke="#63b8ff" d="M65.7,-113.6C68.75,-113.02 71.8,-112.47 74.75,-112 218.57,-88.9 258.91,-96.13 406.27,-76.26"/>
<polygon fill="#63b8ff" stroke="#63b8ff" points="406.6,-79.75 416.04,-74.92 405.65,-72.81 406.6,-79.75"/>
</a>
</g>
</g>
<!-- Node31 -->
<g id="Node000031" class="node">
<title>Node31</title>
<g id="a_Node000031"><a xlink:href="IRepository_8hpp.html" target="_top" xlink:title=" ">
<polygon fill="white" stroke="#666666" points="1602.88,-132 1518.62,-132 1518.62,-112 1602.88,-112 1602.88,-132"/>
<text text-anchor="middle" x="1560.75" y="-118.5" font-family="Helvetica,sans-Serif" font-size="10.00">IRepository.hpp</text>
</a>
</g>
</g>
<!-- Node30&#45;&gt;Node31 -->
<g id="edge53_Node000030_Node000031" class="edge">
<title>Node30&#45;&gt;Node31</title>
<g id="a_edge53_Node000030_Node000031"><a xlink:title=" ">
<path fill="none" stroke="#63b8ff" d="M1472.39,-167.59C1488.78,-159.32 1512.91,-147.14 1531.81,-137.6"/>
<polygon fill="#63b8ff" stroke="#63b8ff" points="1533.26,-140.79 1540.62,-133.16 1530.11,-134.54 1533.26,-140.79"/>
</a>
</g>
</g>
<!-- Node32 -->
<g id="Node000032" class="node">
<title>Node32</title>
<g id="a_Node000032"><a xlink:href="ChallengeRoleDTO_8hpp.html" target="_top" xlink:title=" ">
<polygon fill="white" stroke="#666666" points="1500.5,-132 1381,-132 1381,-112 1500.5,-112 1500.5,-132"/>
<text text-anchor="middle" x="1440.75" y="-118.5" font-family="Helvetica,sans-Serif" font-size="10.00">ChallengeRoleDTO.hpp</text>
</a>
</g>
</g>
<!-- Node30&#45;&gt;Node32 -->
<g id="edge55_Node000030_Node000032" class="edge">
<title>Node30&#45;&gt;Node32</title>
<g id="a_edge55_Node000030_Node000032"><a xlink:title=" ">
<path fill="none" stroke="#63b8ff" d="M1451.49,-167.59C1449.88,-160.93 1447.67,-151.75 1445.67,-143.44"/>
<polygon fill="#63b8ff" stroke="#63b8ff" points="1449.09,-142.67 1443.34,-133.77 1442.28,-144.31 1449.09,-142.67"/>
</a>
</g>
</g>
<!-- Node31&#45;&gt;Node9 -->
<g id="edge54_Node000031_Node000009" class="edge">
<title>Node31&#45;&gt;Node9</title>
<g id="a_edge54_Node000031_Node000009"><a xlink:title=" ">
<path fill="none" stroke="#63b8ff" d="M1535.14,-111.59C1511.25,-102.82 1475.39,-89.64 1448.83,-79.89"/>
<polygon fill="#63b8ff" stroke="#63b8ff" points="1450.1,-76.62 1439.51,-76.46 1447.69,-83.2 1450.1,-76.62"/>
</a>
</g>
</g>
<!-- Node32&#45;&gt;Node13 -->
<g id="edge57_Node000032_Node000013" class="edge">
<title>Node32&#45;&gt;Node13</title>
<g id="a_edge57_Node000032_Node000013"><a xlink:title=" ">
<path fill="none" stroke="#63b8ff" d="M1446.85,-111.59C1451.46,-104.47 1457.96,-94.45 1463.62,-85.72"/>
<polygon fill="#63b8ff" stroke="#63b8ff" points="1466.4,-87.86 1468.9,-77.57 1460.52,-84.06 1466.4,-87.86"/>
</a>
</g>
</g>
<!-- Node32&#45;&gt;Node16 -->
<g id="edge56_Node000032_Node000016" class="edge">
<title>Node32&#45;&gt;Node16</title>
<g id="a_edge56_Node000032_Node000016"><a xlink:title=" ">
<path fill="none" stroke="#63b8ff" d="M1463.05,-111.59C1483.11,-103.13 1512.87,-90.58 1535.7,-80.94"/>
<polygon fill="#63b8ff" stroke="#63b8ff" points="1537.03,-84.18 1544.89,-77.07 1534.31,-77.73 1537.03,-84.18"/>
</a>
</g>
</g>
<!-- Node33&#45;&gt;Node31 -->
<g id="edge59_Node000033_Node000031" class="edge">
<title>Node33&#45;&gt;Node31</title>
<g id="a_edge59_Node000033_Node000031"><a xlink:title=" ">
<path fill="none" stroke="#63b8ff" d="M1610.3,-167.59C1601.78,-159.93 1589.54,-148.91 1579.36,-139.75"/>
<polygon fill="#63b8ff" stroke="#63b8ff" points="1581.98,-137.4 1572.21,-133.31 1577.3,-142.6 1581.98,-137.4"/>
</a>
</g>
</g>
<!-- Node34 -->
<g id="Node000034" class="node">
<title>Node34</title>
<g id="a_Node000034"><a xlink:href="ChallengeBadgeDTO_8hpp.html" target="_top" xlink:title=" ">
<polygon fill="white" stroke="#666666" points="1748.25,-132 1621.25,-132 1621.25,-112 1748.25,-112 1748.25,-132"/>
<text text-anchor="middle" x="1684.75" y="-118.5" font-family="Helvetica,sans-Serif" font-size="10.00">ChallengeBadgeDTO.hpp</text>
</a>
</g>
</g>
<!-- Node33&#45;&gt;Node34 -->
<g id="edge60_Node000033_Node000034" class="edge">
<title>Node33&#45;&gt;Node34</title>
<g id="a_edge60_Node000033_Node000034"><a xlink:title=" ">
<path fill="none" stroke="#63b8ff" d="M1631.9,-167.59C1641.08,-159.85 1654.3,-148.69 1665.23,-139.47"/>
<polygon fill="#63b8ff" stroke="#63b8ff" points="1667.19,-142.4 1672.57,-133.27 1662.67,-137.05 1667.19,-142.4"/>
</a>
</g>
</g>
<!-- Node34&#45;&gt;Node13 -->
<g id="edge62_Node000034_Node000013" class="edge">
<title>Node34&#45;&gt;Node13</title>
<g id="a_edge62_Node000034_Node000013"><a xlink:title=" ">
<path fill="none" stroke="#63b8ff" d="M1644.19,-111.55C1609.95,-103.41 1559.41,-91.05 1506.87,-76.48"/>
<polygon fill="#63b8ff" stroke="#63b8ff" points="1508.02,-73.17 1497.45,-73.85 1506.13,-79.91 1508.02,-73.17"/>
</a>
</g>
</g>
<!-- Node34&#45;&gt;Node16 -->
<g id="edge61_Node000034_Node000016" class="edge">
<title>Node34&#45;&gt;Node16</title>
<g id="a_edge61_Node000034_Node000016"><a xlink:title=" ">
<path fill="none" stroke="#63b8ff" d="M1664.54,-111.59C1646.52,-103.21 1619.88,-90.8 1599.27,-81.21"/>
<polygon fill="#63b8ff" stroke="#63b8ff" points="1601.03,-78.17 1590.49,-77.12 1598.07,-84.51 1601.03,-78.17"/>
</a>
</g>
</g>
<!-- Node35&#45;&gt;Node31 -->
<g id="edge64_Node000035_Node000031" class="edge">
<title>Node35&#45;&gt;Node31</title>
<g id="a_edge64_Node000035_Node000031"><a xlink:title=" ">
<path fill="none" stroke="#63b8ff" d="M1746.3,-167.53C1708.74,-158.52 1652.05,-144.91 1611.22,-135.11"/>
<polygon fill="#63b8ff" stroke="#63b8ff" points="1612.17,-131.74 1601.63,-132.81 1610.53,-138.55 1612.17,-131.74"/>
</a>
</g>
</g>
<!-- Node36 -->
<g id="Node000036" class="node">
<title>Node36</title>
<g id="a_Node000036"><a xlink:href="ReactionRoleDTO_8hpp.html" target="_top" xlink:title=" ">
<polygon fill="white" stroke="#666666" points="1881.25,-132 1766.25,-132 1766.25,-112 1881.25,-112 1881.25,-132"/>
<text text-anchor="middle" x="1823.75" y="-118.5" font-family="Helvetica,sans-Serif" font-size="10.00">ReactionRoleDTO.hpp</text>
</a>
</g>
</g>
<!-- Node35&#45;&gt;Node36 -->
<g id="edge65_Node000035_Node000036" class="edge">
<title>Node35&#45;&gt;Node36</title>
<g id="a_edge65_Node000035_Node000036"><a xlink:title=" ">
<path fill="none" stroke="#63b8ff" d="M1792.37,-167.59C1797.44,-160.39 1804.59,-150.23 1810.78,-141.43"/>
<polygon fill="#63b8ff" stroke="#63b8ff" points="1813.44,-143.73 1816.34,-133.54 1807.72,-139.7 1813.44,-143.73"/>
</a>
</g>
</g>
<!-- Node36&#45;&gt;Node13 -->
<g id="edge67_Node000036_Node000013" class="edge">
<title>Node36&#45;&gt;Node13</title>
<g id="a_edge67_Node000036_Node000013"><a xlink:title=" ">
<path fill="none" stroke="#63b8ff" d="M1765.94,-113.09C1686.8,-102.23 1550.32,-83.38 1507.3,-75.93"/>
<polygon fill="#63b8ff" stroke="#63b8ff" points="1508.2,-72.54 1497.72,-74.09 1506.88,-79.41 1508.2,-72.54"/>
</a>
</g>
</g>
<!-- Node36&#45;&gt;Node16 -->
<g id="edge66_Node000036_Node000016" class="edge">
<title>Node36&#45;&gt;Node16</title>
<g id="a_edge66_Node000036_Node000016"><a xlink:title=" ">
<path fill="none" stroke="#63b8ff" d="M1779.04,-111.53C1736.02,-102.42 1670.85,-88.62 1624.47,-78.8"/>
<polygon fill="#63b8ff" stroke="#63b8ff" points="1625.4,-75.42 1614.89,-76.77 1623.95,-82.27 1625.4,-75.42"/>
</a>
</g>
</g>
</g>
</svg>
