<?xml version="1.0" encoding="UTF-8" standalone="no"?>
<!DOCTYPE svg PUBLIC "-//W3C//DTD SVG 1.1//EN"
 "http://www.w3.org/Graphics/SVG/1.1/DTD/svg11.dtd">
<!-- Generated by graphviz version 10.0.1 (0)
 -->
<!-- Title: src/bot_library/commands/clean_up/CleanUp.cpp Pages: 1 -->
<svg width="1663pt" height="376pt"
 viewBox="0.00 0.00 1662.50 376.00" xmlns="http://www.w3.org/2000/svg" xmlns:xlink="http://www.w3.org/1999/xlink">
<g id="graph0" class="graph" transform="scale(1 1) rotate(0) translate(4 372)">
<title>src/bot_library/commands/clean_up/CleanUp.cpp</title>
<!-- Node1 -->
<g id="Node000001" class="node">
<title>Node1</title>
<g id="a_Node000001"><a xlink:title=" ">
<polygon fill="#999999" stroke="#666666" points="381,-368 252.5,-368 252.5,-336 381,-336 381,-368"/>
<text text-anchor="start" x="260.5" y="-354.5" font-family="Helvetica,sans-Serif" font-size="10.00">src/bot_library/commands</text>
<text text-anchor="middle" x="316.75" y="-342.5" font-family="Helvetica,sans-Serif" font-size="10.00">/clean_up/CleanUp.cpp</text>
</a>
</g>
</g>
<!-- Node2 -->
<g id="Node000002" class="node">
<title>Node2</title>
<g id="a_Node000002"><a xlink:href="CleanUp_8hpp.html" target="_top" xlink:title=" ">
<polygon fill="white" stroke="#666666" points="386.25,-300 313.25,-300 313.25,-280 386.25,-280 386.25,-300"/>
<text text-anchor="middle" x="349.75" y="-286.5" font-family="Helvetica,sans-Serif" font-size="10.00">CleanUp.hpp</text>
</a>
</g>
</g>
<!-- Node1&#45;&gt;Node2 -->
<g id="edge1_Node000001_Node000002" class="edge">
<title>Node1&#45;&gt;Node2</title>
<g id="a_edge1_Node000001_Node000002"><a xlink:title=" ">
<path fill="none" stroke="#63b8ff" d="M325.25,-335.55C329.45,-327.91 334.56,-318.61 339.03,-310.49"/>
<polygon fill="#63b8ff" stroke="#63b8ff" points="342.09,-312.18 343.85,-301.73 335.96,-308.81 342.09,-312.18"/>
</a>
</g>
</g>
<!-- Node26 -->
<g id="Node000026" class="node">
<title>Node26</title>
<g id="a_Node000026"><a xlink:title=" ">
<polygon fill="#e0e0e0" stroke="#999999" points="473,-300 404.5,-300 404.5,-280 473,-280 473,-300"/>
<text text-anchor="middle" x="438.75" y="-286.5" font-family="Helvetica,sans-Serif" font-size="10.00">snowflake.h</text>
</a>
</g>
</g>
<!-- Node1&#45;&gt;Node26 -->
<g id="edge48_Node000001_Node000026" class="edge">
<title>Node1&#45;&gt;Node26</title>
<g id="a_edge48_Node000001_Node000026"><a xlink:title=" ">
<path fill="none" stroke="#63b8ff" d="M348.17,-335.55C367.05,-326.26 390.93,-314.52 409.43,-305.42"/>
<polygon fill="#63b8ff" stroke="#63b8ff" points="410.83,-308.63 418.26,-301.08 407.74,-302.35 410.83,-308.63"/>
</a>
</g>
</g>
<!-- Node27 -->
<g id="Node000027" class="node">
<title>Node27</title>
<g id="a_Node000027"><a xlink:href="ChallengeRoleRepository_8hpp.html" target="_top" xlink:title=" ">
<polygon fill="white" stroke="#666666" points="196.25,-188 51.25,-188 51.25,-168 196.25,-168 196.25,-188"/>
<text text-anchor="middle" x="123.75" y="-174.5" font-family="Helvetica,sans-Serif" font-size="10.00">ChallengeRoleRepository.hpp</text>
</a>
</g>
</g>
<!-- Node1&#45;&gt;Node27 -->
<g id="edge49_Node000001_Node000027" class="edge">
<title>Node1&#45;&gt;Node27</title>
<g id="a_edge49_Node000001_Node000027"><a xlink:title=" ">
<path fill="none" stroke="#63b8ff" d="M299.62,-335.74C263.56,-303.6 180.06,-229.18 142.57,-195.77"/>
<polygon fill="#63b8ff" stroke="#63b8ff" points="145.01,-193.26 135.21,-189.22 140.35,-198.48 145.01,-193.26"/>
</a>
</g>
</g>
<!-- Node30 -->
<g id="Node000030" class="node">
<title>Node30</title>
<g id="a_Node000030"><a xlink:href="ReactionRoleRepository_8hpp.html" target="_top" xlink:title=" ">
<polygon fill="white" stroke="#666666" points="355,-188 214.5,-188 214.5,-168 355,-168 355,-188"/>
<text text-anchor="middle" x="284.75" y="-174.5" font-family="Helvetica,sans-Serif" font-size="10.00">ReactionRoleRepository.hpp</text>
</a>
</g>
</g>
<!-- Node1&#45;&gt;Node30 -->
<g id="edge55_Node000001_Node000030" class="edge">
<title>Node1&#45;&gt;Node30</title>
<g id="a_edge55_Node000001_Node000030"><a xlink:title=" ">
<path fill="none" stroke="#63b8ff" d="M312.51,-335.91C309.76,-325.81 306.25,-312.17 303.75,-300 296.57,-265.04 290.64,-223.91 287.4,-199.73"/>
<polygon fill="#63b8ff" stroke="#63b8ff" points="290.89,-199.43 286.13,-189.97 283.95,-200.34 290.89,-199.43"/>
</a>
</g>
</g>
<!-- Node3 -->
<g id="Node000003" class="node">
<title>Node3</title>
<g id="a_Node000003"><a xlink:href="Bot_8hpp.html" target="_top" xlink:title=" ">
<polygon fill="white" stroke="#666666" points="1016.62,-244 966.88,-244 966.88,-224 1016.62,-224 1016.62,-244"/>
<text text-anchor="middle" x="991.75" y="-230.5" font-family="Helvetica,sans-Serif" font-size="10.00">Bot.hpp</text>
</a>
</g>
</g>
<!-- Node2&#45;&gt;Node3 -->
<g id="edge2_Node000002_Node000003" class="edge">
<title>Node2&#45;&gt;Node3</title>
<g id="a_edge2_Node000002_Node000003"><a xlink:title=" ">
<path fill="none" stroke="#63b8ff" d="M386.59,-281.39C389.68,-280.88 392.77,-280.4 395.75,-280 606.57,-251.52 861.96,-239.79 955.33,-236.25"/>
<polygon fill="#63b8ff" stroke="#63b8ff" points="955.28,-239.76 965.14,-235.89 955.02,-232.76 955.28,-239.76"/>
</a>
</g>
</g>
<!-- Node4 -->
<g id="Node000004" class="node">
<title>Node4</title>
<g id="a_Node000004"><a xlink:href="Core_8hpp.html" target="_top" xlink:title=" ">
<polygon fill="white" stroke="#666666" points="895.62,-188 839.88,-188 839.88,-168 895.62,-168 895.62,-188"/>
<text text-anchor="middle" x="867.75" y="-174.5" font-family="Helvetica,sans-Serif" font-size="10.00">Core.hpp</text>
</a>
</g>
</g>
<!-- Node3&#45;&gt;Node4 -->
<g id="edge3_Node000003_Node000004" class="edge">
<title>Node3&#45;&gt;Node4</title>
<g id="a_edge3_Node000003_Node000004"><a xlink:title=" ">
<path fill="none" stroke="#63b8ff" d="M970.15,-223.59C950.8,-215.17 922.15,-202.69 900.07,-193.07"/>
<polygon fill="#63b8ff" stroke="#63b8ff" points="901.47,-189.87 890.91,-189.08 898.68,-196.29 901.47,-189.87"/>
</a>
</g>
</g>
<!-- Node10 -->
<g id="Node000010" class="node">
<title>Node10</title>
<g id="a_Node000010"><a xlink:title=" ">
<polygon fill="#e0e0e0" stroke="#999999" points="343.75,-76 303.75,-76 303.75,-56 343.75,-56 343.75,-76"/>
<text text-anchor="middle" x="323.75" y="-62.5" font-family="Helvetica,sans-Serif" font-size="10.00">string</text>
</a>
</g>
</g>
<!-- Node3&#45;&gt;Node10 -->
<g id="edge46_Node000003_Node000010" class="edge">
<title>Node3&#45;&gt;Node10</title>
<g id="a_edge46_Node000003_Node000010"><a xlink:title=" ">
<path fill="none" stroke="#63b8ff" d="M966.52,-230.78C866.62,-221.67 499.32,-185.13 396.75,-132 373.79,-120.11 352.3,-99.34 338.66,-84.48"/>
<polygon fill="#63b8ff" stroke="#63b8ff" points="341.51,-82.41 332.25,-77.26 336.27,-87.06 341.51,-82.41"/>
</a>
</g>
</g>
<!-- Node12 -->
<g id="Node000012" class="node">
<title>Node12</title>
<g id="a_Node000012"><a xlink:title=" ">
<polygon fill="#e0e0e0" stroke="#999999" points="574.25,-76 531.25,-76 531.25,-56 574.25,-56 574.25,-76"/>
<text text-anchor="middle" x="552.75" y="-62.5" font-family="Helvetica,sans-Serif" font-size="10.00">vector</text>
</a>
</g>
</g>
<!-- Node3&#45;&gt;Node12 -->
<g id="edge47_Node000003_Node000012" class="edge">
<title>Node3&#45;&gt;Node12</title>
<g id="a_edge47_Node000003_Node000012"><a xlink:title=" ">
<path fill="none" stroke="#63b8ff" d="M966.44,-230.32C884.56,-221.17 628.88,-188.48 571.75,-132 559.98,-120.36 555.41,-101.87 553.68,-87.58"/>
<polygon fill="#63b8ff" stroke="#63b8ff" points="557.19,-87.58 552.9,-77.89 550.21,-88.14 557.19,-87.58"/>
</a>
</g>
</g>
<!-- Node14 -->
<g id="Node000014" class="node">
<title>Node14</title>
<g id="a_Node000014"><a xlink:href="IButtonCommand_8hpp.html" target="_top" xlink:title=" ">
<polygon fill="white" stroke="#666666" points="1448.38,-132 1337.12,-132 1337.12,-112 1448.38,-112 1448.38,-132"/>
<text text-anchor="middle" x="1392.75" y="-118.5" font-family="Helvetica,sans-Serif" font-size="10.00">IButtonCommand.hpp</text>
</a>
</g>
</g>
<!-- Node3&#45;&gt;Node14 -->
<g id="edge35_Node000003_Node000014" class="edge">
<title>Node3&#45;&gt;Node14</title>
<g id="a_edge35_Node000003_Node000014"><a xlink:title=" ">
<path fill="none" stroke="#63b8ff" d="M1016.83,-226.12C1082.9,-208 1262.41,-158.75 1347.21,-135.49"/>
<polygon fill="#63b8ff" stroke="#63b8ff" points="1348.11,-138.87 1356.83,-132.85 1346.26,-132.12 1348.11,-138.87"/>
</a>
</g>
</g>
<!-- Node17 -->
<g id="Node000017" class="node">
<title>Node17</title>
<g id="a_Node000017"><a xlink:href="IFormCommand_8hpp.html" target="_top" xlink:title=" ">
<polygon fill="white" stroke="#666666" points="1571.38,-132 1466.12,-132 1466.12,-112 1571.38,-112 1571.38,-132"/>
<text text-anchor="middle" x="1518.75" y="-118.5" font-family="Helvetica,sans-Serif" font-size="10.00">IFormCommand.hpp</text>
</a>
</g>
</g>
<!-- Node3&#45;&gt;Node17 -->
<g id="edge36_Node000003_Node000017" class="edge">
<title>Node3&#45;&gt;Node17</title>
<g id="a_edge36_Node000003_Node000017"><a xlink:title=" ">
<path fill="none" stroke="#63b8ff" d="M1016.81,-227.77C1097.01,-211.03 1348.67,-158.5 1462.2,-134.8"/>
<polygon fill="#63b8ff" stroke="#63b8ff" points="1462.84,-138.24 1471.92,-132.78 1461.41,-131.39 1462.84,-138.24"/>
</a>
</g>
</g>
<!-- Node18 -->
<g id="Node000018" class="node">
<title>Node18</title>
<g id="a_Node000018"><a xlink:href="IGlobalSlashCommand_8hpp.html" target="_top" xlink:title=" ">
<polygon fill="white" stroke="#666666" points="716.38,-132 581.12,-132 581.12,-112 716.38,-112 716.38,-132"/>
<text text-anchor="middle" x="648.75" y="-118.5" font-family="Helvetica,sans-Serif" font-size="10.00">IGlobalSlashCommand.hpp</text>
</a>
</g>
</g>
<!-- Node3&#45;&gt;Node18 -->
<g id="edge37_Node000003_Node000018" class="edge">
<title>Node3&#45;&gt;Node18</title>
<g id="a_edge37_Node000003_Node000018"><a xlink:title=" ">
<path fill="none" stroke="#63b8ff" d="M966.49,-226.53C934.65,-218.24 878.32,-203.12 830.75,-188 779.31,-171.65 720.66,-150.18 684.17,-136.49"/>
<polygon fill="#63b8ff" stroke="#63b8ff" points="685.59,-133.28 675,-133.03 683.12,-139.83 685.59,-133.28"/>
</a>
</g>
</g>
<!-- Node20 -->
<g id="Node000020" class="node">
<title>Node20</title>
<g id="a_Node000020"><a xlink:href="IMemberCommand_8hpp.html" target="_top" xlink:title=" ">
<polygon fill="white" stroke="#666666" points="1038.75,-132 920.75,-132 920.75,-112 1038.75,-112 1038.75,-132"/>
<text text-anchor="middle" x="979.75" y="-118.5" font-family="Helvetica,sans-Serif" font-size="10.00">IMemberCommand.hpp</text>
</a>
</g>
</g>
<!-- Node3&#45;&gt;Node20 -->
<g id="edge38_Node000003_Node000020" class="edge">
<title>Node3&#45;&gt;Node20</title>
<g id="a_edge38_Node000003_Node000020"><a xlink:title=" ">
<path fill="none" stroke="#63b8ff" d="M1002.92,-223.58C1016.19,-211.17 1035.51,-188.51 1026.75,-168 1021.94,-156.74 1012.78,-146.95 1003.82,-139.4"/>
<polygon fill="#63b8ff" stroke="#63b8ff" points="1005.99,-136.66 995.94,-133.31 1001.71,-142.19 1005.99,-136.66"/>
</a>
</g>
</g>
<!-- Node21 -->
<g id="Node000021" class="node">
<title>Node21</title>
<g id="a_Node000021"><a xlink:href="IMessageCommand_8hpp.html" target="_top" xlink:title=" ">
<polygon fill="white" stroke="#666666" points="1179,-132 1056.5,-132 1056.5,-112 1179,-112 1179,-132"/>
<text text-anchor="middle" x="1117.75" y="-118.5" font-family="Helvetica,sans-Serif" font-size="10.00">IMessageCommand.hpp</text>
</a>
</g>
</g>
<!-- Node3&#45;&gt;Node21 -->
<g id="edge39_Node000003_Node000021" class="edge">
<title>Node3&#45;&gt;Node21</title>
<g id="a_edge39_Node000003_Node000021"><a xlink:title=" ">
<path fill="none" stroke="#63b8ff" d="M1002.49,-223.62C1023.79,-205.03 1071.61,-163.28 1098.48,-139.82"/>
<polygon fill="#63b8ff" stroke="#63b8ff" points="1100.66,-142.56 1105.89,-133.35 1096.06,-137.29 1100.66,-142.56"/>
</a>
</g>
</g>
<!-- Node22 -->
<g id="Node000022" class="node">
<title>Node22</title>
<g id="a_Node000022"><a xlink:href="IReactionCommand_8hpp.html" target="_top" xlink:title=" ">
<polygon fill="white" stroke="#666666" points="1318.62,-132 1196.88,-132 1196.88,-112 1318.62,-112 1318.62,-132"/>
<text text-anchor="middle" x="1257.75" y="-118.5" font-family="Helvetica,sans-Serif" font-size="10.00">IReactionCommand.hpp</text>
</a>
</g>
</g>
<!-- Node3&#45;&gt;Node22 -->
<g id="edge40_Node000003_Node000022" class="edge">
<title>Node3&#45;&gt;Node22</title>
<g id="a_edge40_Node000003_Node000022"><a xlink:title=" ">
<path fill="none" stroke="#63b8ff" d="M1014.43,-223.62C1061.44,-204.18 1169.72,-159.4 1224.59,-136.71"/>
<polygon fill="#63b8ff" stroke="#63b8ff" points="1225.83,-139.99 1233.73,-132.93 1223.15,-133.52 1225.83,-139.99"/>
</a>
</g>
</g>
<!-- Node23 -->
<g id="Node000023" class="node">
<title>Node23</title>
<g id="a_Node000023"><a xlink:href="IReady_8hpp.html" target="_top" xlink:title=" ">
<polygon fill="white" stroke="#666666" points="1654.5,-132 1589,-132 1589,-112 1654.5,-112 1654.5,-132"/>
<text text-anchor="middle" x="1621.75" y="-118.5" font-family="Helvetica,sans-Serif" font-size="10.00">IReady.hpp</text>
</a>
</g>
</g>
<!-- Node3&#45;&gt;Node23 -->
<g id="edge41_Node000003_Node000023" class="edge">
<title>Node3&#45;&gt;Node23</title>
<g id="a_edge41_Node000003_Node000023"><a xlink:title=" ">
<path fill="none" stroke="#63b8ff" d="M1017.1,-229.16C1097.6,-216.84 1354.79,-176.68 1577.41,-132.61"/>
<polygon fill="#63b8ff" stroke="#63b8ff" points="1578.04,-136.06 1587.17,-130.67 1576.68,-129.19 1578.04,-136.06"/>
</a>
</g>
</g>
<!-- Node24 -->
<g id="Node000024" class="node">
<title>Node24</title>
<g id="a_Node000024"><a xlink:title=" ">
<polygon fill="#e0e0e0" stroke="#999999" points="948.12,-188 913.38,-188 913.38,-168 948.12,-168 948.12,-188"/>
<text text-anchor="middle" x="930.75" y="-174.5" font-family="Helvetica,sans-Serif" font-size="10.00">map</text>
</a>
</g>
</g>
<!-- Node3&#45;&gt;Node24 -->
<g id="edge44_Node000003_Node000024" class="edge">
<title>Node3&#45;&gt;Node24</title>
<g id="a_edge44_Node000003_Node000024"><a xlink:title=" ">
<path fill="none" stroke="#63b8ff" d="M981.12,-223.59C972.47,-215.93 960.02,-204.91 949.67,-195.75"/>
<polygon fill="#63b8ff" stroke="#63b8ff" points="952.19,-193.31 942.39,-189.3 947.55,-198.55 952.19,-193.31"/>
</a>
</g>
</g>
<!-- Node25 -->
<g id="Node000025" class="node">
<title>Node25</title>
<g id="a_Node000025"><a xlink:title=" ">
<polygon fill="#e0e0e0" stroke="#999999" points="1017.38,-188 966.12,-188 966.12,-168 1017.38,-168 1017.38,-188"/>
<text text-anchor="middle" x="991.75" y="-174.5" font-family="Helvetica,sans-Serif" font-size="10.00">memory</text>
</a>
</g>
</g>
<!-- Node3&#45;&gt;Node25 -->
<g id="edge45_Node000003_Node000025" class="edge">
<title>Node3&#45;&gt;Node25</title>
<g id="a_edge45_Node000003_Node000025"><a xlink:title=" ">
<path fill="none" stroke="#63b8ff" d="M991.75,-223.59C991.75,-217.01 991.75,-207.96 991.75,-199.73"/>
<polygon fill="#63b8ff" stroke="#63b8ff" points="995.25,-199.81 991.75,-189.81 988.25,-199.81 995.25,-199.81"/>
</a>
</g>
</g>
<!-- Node5 -->
<g id="Node000005" class="node">
<title>Node5</title>
<g id="a_Node000005"><a xlink:title=" ">
<polygon fill="#e0e0e0" stroke="#999999" points="793.12,-132 734.38,-132 734.38,-112 793.12,-112 793.12,-132"/>
<text text-anchor="middle" x="763.75" y="-118.5" font-family="Helvetica,sans-Serif" font-size="10.00">dpp/dpp.h</text>
</a>
</g>
</g>
<!-- Node4&#45;&gt;Node5 -->
<g id="edge4_Node000004_Node000005" class="edge">
<title>Node4&#45;&gt;Node5</title>
<g id="a_edge4_Node000004_Node000005"><a xlink:title=" ">
<path fill="none" stroke="#63b8ff" d="M849.63,-167.59C833.78,-159.36 810.47,-147.26 792.13,-137.74"/>
<polygon fill="#63b8ff" stroke="#63b8ff" points="793.84,-134.68 783.35,-133.18 790.61,-140.89 793.84,-134.68"/>
</a>
</g>
</g>
<!-- Node6 -->
<g id="Node000006" class="node">
<title>Node6</title>
<g id="a_Node000006"><a xlink:title=" ">
<polygon fill="#e0e0e0" stroke="#999999" points="902.25,-132 811.25,-132 811.25,-112 902.25,-112 902.25,-132"/>
<text text-anchor="middle" x="856.75" y="-118.5" font-family="Helvetica,sans-Serif" font-size="10.00">dpp/misc&#45;enum.h</text>
</a>
</g>
</g>
<!-- Node4&#45;&gt;Node6 -->
<g id="edge5_Node000004_Node000006" class="edge">
<title>Node4&#45;&gt;Node6</title>
<g id="a_edge5_Node000004_Node000006"><a xlink:title=" ">
<path fill="none" stroke="#63b8ff" d="M865.83,-167.59C864.48,-160.93 862.61,-151.75 860.91,-143.44"/>
<polygon fill="#63b8ff" stroke="#63b8ff" points="864.37,-142.88 858.95,-133.78 857.51,-144.28 864.37,-142.88"/>
</a>
</g>
</g>
<!-- Node7 -->
<g id="Node000007" class="node">
<title>Node7</title>
<g id="a_Node000007"><a xlink:href="Database_8hpp.html" target="_top" xlink:title=" ">
<polygon fill="white" stroke="#666666" points="525.12,-132 448.38,-132 448.38,-112 525.12,-112 525.12,-132"/>
<text text-anchor="middle" x="486.75" y="-118.5" font-family="Helvetica,sans-Serif" font-size="10.00">Database.hpp</text>
</a>
</g>
</g>
<!-- Node4&#45;&gt;Node7 -->
<g id="edge6_Node000004_Node000007" class="edge">
<title>Node4&#45;&gt;Node7</title>
<g id="a_edge6_Node000004_Node000007"><a xlink:title=" ">
<path fill="none" stroke="#63b8ff" d="M839.42,-172.99C775.24,-163.89 618,-141.6 536.92,-130.11"/>
<polygon fill="#63b8ff" stroke="#63b8ff" points="537.42,-126.65 527.03,-128.71 536.44,-133.58 537.42,-126.65"/>
</a>
</g>
</g>
<!-- Node4&#45;&gt;Node10 -->
<g id="edge34_Node000004_Node000010" class="edge">
<title>Node4&#45;&gt;Node10</title>
<g id="a_edge34_Node000004_Node000010"><a xlink:title=" ">
<path fill="none" stroke="#63b8ff" d="M839.39,-175.51C756.34,-170.93 514.78,-155.85 439.75,-132 421.14,-126.08 376.45,-99.59 348.29,-82.3"/>
<polygon fill="#63b8ff" stroke="#63b8ff" points="350.37,-79.48 340.03,-77.2 346.7,-85.44 350.37,-79.48"/>
</a>
</g>
</g>
<!-- Node4&#45;&gt;Node14 -->
<g id="edge14_Node000004_Node000014" class="edge">
<title>Node4&#45;&gt;Node14</title>
<g id="a_edge14_Node000004_Node000014"><a xlink:title=" ">
<path fill="none" stroke="#63b8ff" d="M895.94,-169.67C898.9,-169.04 901.88,-168.47 904.75,-168 1087.33,-138.21 1138.26,-152.36 1325.41,-132.19"/>
<polygon fill="#63b8ff" stroke="#63b8ff" points="1325.69,-135.68 1335.25,-131.11 1324.93,-128.72 1325.69,-135.68"/>
</a>
</g>
</g>
<!-- Node4&#45;&gt;Node17 -->
<g id="edge17_Node000004_Node000017" class="edge">
<title>Node4&#45;&gt;Node17</title>
<g id="a_edge17_Node000004_Node000017"><a xlink:title=" ">
<path fill="none" stroke="#63b8ff" d="M895.93,-169.61C898.89,-168.99 901.87,-168.44 904.75,-168 1144.53,-131.32 1210.83,-157.19 1454.52,-132.26"/>
<polygon fill="#63b8ff" stroke="#63b8ff" points="1454.79,-135.75 1464.38,-131.23 1454.07,-128.78 1454.79,-135.75"/>
</a>
</g>
</g>
<!-- Node4&#45;&gt;Node18 -->
<g id="edge20_Node000004_Node000018" class="edge">
<title>Node4&#45;&gt;Node18</title>
<g id="a_edge20_Node000004_Node000018"><a xlink:title=" ">
<path fill="none" stroke="#63b8ff" d="M839.57,-170.05C803.86,-161.25 741.72,-145.92 698.08,-135.16"/>
<polygon fill="#63b8ff" stroke="#63b8ff" points="699.15,-131.82 688.6,-132.83 697.47,-138.62 699.15,-131.82"/>
</a>
</g>
</g>
<!-- Node4&#45;&gt;Node20 -->
<g id="edge25_Node000004_Node000020" class="edge">
<title>Node4&#45;&gt;Node20</title>
<g id="a_edge25_Node000004_Node000020"><a xlink:title=" ">
<path fill="none" stroke="#63b8ff" d="M887.26,-167.59C904.5,-159.28 929.91,-147.03 949.74,-137.47"/>
<polygon fill="#63b8ff" stroke="#63b8ff" points="951.24,-140.63 958.73,-133.14 948.2,-134.33 951.24,-140.63"/>
</a>
</g>
</g>
<!-- Node4&#45;&gt;Node21 -->
<g id="edge28_Node000004_Node000021" class="edge">
<title>Node4&#45;&gt;Node21</title>
<g id="a_edge28_Node000004_Node000021"><a xlink:title=" ">
<path fill="none" stroke="#63b8ff" d="M896.01,-170.03C898.96,-169.33 901.91,-168.64 904.75,-168 957.19,-156.09 1017.14,-143.51 1060.05,-134.7"/>
<polygon fill="#63b8ff" stroke="#63b8ff" points="1060.55,-138.17 1069.64,-132.73 1059.14,-131.31 1060.55,-138.17"/>
</a>
</g>
</g>
<!-- Node4&#45;&gt;Node22 -->
<g id="edge31_Node000004_Node000022" class="edge">
<title>Node4&#45;&gt;Node22</title>
<g id="a_edge31_Node000004_Node000022"><a xlink:title=" ">
<path fill="none" stroke="#63b8ff" d="M895.96,-169.79C898.92,-169.14 901.89,-168.53 904.75,-168 1025.9,-145.63 1060.07,-147.93 1185.47,-132.27"/>
<polygon fill="#63b8ff" stroke="#63b8ff" points="1185.68,-135.77 1195.17,-131.05 1184.81,-128.83 1185.68,-135.77"/>
</a>
</g>
</g>
<!-- Node8 -->
<g id="Node000008" class="node">
<title>Node8</title>
<g id="a_Node000008"><a xlink:title=" ">
<polygon fill="#e0e0e0" stroke="#999999" points="409.88,-76 361.62,-76 361.62,-56 409.88,-56 409.88,-76"/>
<text text-anchor="middle" x="385.75" y="-62.5" font-family="Helvetica,sans-Serif" font-size="10.00">cstddef</text>
</a>
</g>
</g>
<!-- Node7&#45;&gt;Node8 -->
<g id="edge7_Node000007_Node000008" class="edge">
<title>Node7&#45;&gt;Node8</title>
<g id="a_edge7_Node000007_Node000008"><a xlink:title=" ">
<path fill="none" stroke="#63b8ff" d="M469.16,-111.59C453.83,-103.4 431.33,-91.37 413.56,-81.87"/>
<polygon fill="#63b8ff" stroke="#63b8ff" points="415.28,-78.82 404.81,-77.19 411.98,-84.99 415.28,-78.82"/>
</a>
</g>
</g>
<!-- Node9 -->
<g id="Node000009" class="node">
<title>Node9</title>
<g id="a_Node000009"><a xlink:title=" ">
<polygon fill="#e0e0e0" stroke="#999999" points="347.25,-20 286.25,-20 286.25,0 347.25,0 347.25,-20"/>
<text text-anchor="middle" x="316.75" y="-6.5" font-family="Helvetica,sans-Serif" font-size="10.00">pqxx/pqxx</text>
</a>
</g>
</g>
<!-- Node7&#45;&gt;Node9 -->
<g id="edge8_Node000007_Node000009" class="edge">
<title>Node7&#45;&gt;Node9</title>
<g id="a_edge8_Node000007_Node000009"><a xlink:title=" ">
<path fill="none" stroke="#63b8ff" d="M478.79,-111.53C466.88,-97.83 443.19,-72.33 418.75,-56 399.2,-42.93 375.23,-32.13 355.44,-24.39"/>
<polygon fill="#63b8ff" stroke="#63b8ff" points="356.94,-21.22 346.35,-20.95 354.46,-27.76 356.94,-21.22"/>
</a>
</g>
</g>
<!-- Node7&#45;&gt;Node10 -->
<g id="edge9_Node000007_Node000010" class="edge">
<title>Node7&#45;&gt;Node10</title>
<g id="a_edge9_Node000007_Node000010"><a xlink:title=" ">
<path fill="none" stroke="#63b8ff" d="M458.36,-111.59C429.4,-102 384.61,-87.16 354.75,-77.27"/>
<polygon fill="#63b8ff" stroke="#63b8ff" points="356.13,-74.04 345.53,-74.22 353.92,-80.68 356.13,-74.04"/>
</a>
</g>
</g>
<!-- Node11 -->
<g id="Node000011" class="node">
<title>Node11</title>
<g id="a_Node000011"><a xlink:title=" ">
<polygon fill="#e0e0e0" stroke="#999999" points="511.38,-76 466.12,-76 466.12,-56 511.38,-56 511.38,-76"/>
<text text-anchor="middle" x="488.75" y="-62.5" font-family="Helvetica,sans-Serif" font-size="10.00">variant</text>
</a>
</g>
</g>
<!-- Node7&#45;&gt;Node11 -->
<g id="edge10_Node000007_Node000011" class="edge">
<title>Node7&#45;&gt;Node11</title>
<g id="a_edge10_Node000007_Node000011"><a xlink:title=" ">
<path fill="none" stroke="#63b8ff" d="M487.1,-111.59C487.34,-105.01 487.68,-95.96 487.98,-87.73"/>
<polygon fill="#63b8ff" stroke="#63b8ff" points="491.48,-87.93 488.35,-77.81 484.48,-87.67 491.48,-87.93"/>
</a>
</g>
</g>
<!-- Node7&#45;&gt;Node12 -->
<g id="edge11_Node000007_Node000012" class="edge">
<title>Node7&#45;&gt;Node12</title>
<g id="a_edge11_Node000007_Node000012"><a xlink:title=" ">
<path fill="none" stroke="#63b8ff" d="M498.25,-111.59C507.71,-103.85 521.35,-92.69 532.62,-83.47"/>
<polygon fill="#63b8ff" stroke="#63b8ff" points="534.69,-86.3 540.21,-77.26 530.26,-80.88 534.69,-86.3"/>
</a>
</g>
</g>
<!-- Node13 -->
<g id="Node000013" class="node">
<title>Node13</title>
<g id="a_Node000013"><a xlink:href="RowDTOAdapter_8hpp.html" target="_top" xlink:title=" ">
<polygon fill="white" stroke="#666666" points="268.62,-76 158.88,-76 158.88,-56 268.62,-56 268.62,-76"/>
<text text-anchor="middle" x="213.75" y="-62.5" font-family="Helvetica,sans-Serif" font-size="10.00">RowDTOAdapter.hpp</text>
</a>
</g>
</g>
<!-- Node7&#45;&gt;Node13 -->
<g id="edge12_Node000007_Node000013" class="edge">
<title>Node7&#45;&gt;Node13</title>
<g id="a_edge12_Node000007_Node000013"><a xlink:title=" ">
<path fill="none" stroke="#63b8ff" d="M447.93,-113.32C402.26,-104.29 325.95,-89.19 272.91,-78.7"/>
<polygon fill="#63b8ff" stroke="#63b8ff" points="273.6,-75.27 263.11,-76.76 272.24,-82.14 273.6,-75.27"/>
</a>
</g>
</g>
<!-- Node13&#45;&gt;Node9 -->
<g id="edge13_Node000013_Node000009" class="edge">
<title>Node13&#45;&gt;Node9</title>
<g id="a_edge13_Node000013_Node000009"><a xlink:title=" ">
<path fill="none" stroke="#63b8ff" d="M231.69,-55.59C247.4,-47.36 270.48,-35.26 288.64,-25.74"/>
<polygon fill="#63b8ff" stroke="#63b8ff" points="290.1,-28.93 297.33,-21.18 286.85,-22.73 290.1,-28.93"/>
</a>
</g>
</g>
<!-- Node15 -->
<g id="Node000015" class="node">
<title>Node15</title>
<g id="a_Node000015"><a xlink:title=" ">
<polygon fill="#e0e0e0" stroke="#999999" points="1244.88,-76 1172.62,-76 1172.62,-56 1244.88,-56 1244.88,-76"/>
<text text-anchor="middle" x="1208.75" y="-62.5" font-family="Helvetica,sans-Serif" font-size="10.00">dpp/cluster.h</text>
</a>
</g>
</g>
<!-- Node14&#45;&gt;Node15 -->
<g id="edge15_Node000014_Node000015" class="edge">
<title>Node14&#45;&gt;Node15</title>
<g id="a_edge15_Node000014_Node000015"><a xlink:title=" ">
<path fill="none" stroke="#63b8ff" d="M1360.7,-111.59C1330.54,-102.74 1285.16,-89.43 1251.85,-79.65"/>
<polygon fill="#63b8ff" stroke="#63b8ff" points="1253.08,-76.36 1242.5,-76.91 1251.11,-83.08 1253.08,-76.36"/>
</a>
</g>
</g>
<!-- Node16 -->
<g id="Node000016" class="node">
<title>Node16</title>
<g id="a_Node000016"><a xlink:title=" ">
<polygon fill="#e0e0e0" stroke="#999999" points="1350.75,-76 1262.75,-76 1262.75,-56 1350.75,-56 1350.75,-76"/>
<text text-anchor="middle" x="1306.75" y="-62.5" font-family="Helvetica,sans-Serif" font-size="10.00">dpp/dispatcher.h</text>
</a>
</g>
</g>
<!-- Node14&#45;&gt;Node16 -->
<g id="edge16_Node000014_Node000016" class="edge">
<title>Node14&#45;&gt;Node16</title>
<g id="a_edge16_Node000014_Node000016"><a xlink:title=" ">
<path fill="none" stroke="#63b8ff" d="M1377.77,-111.59C1365.02,-103.59 1346.46,-91.93 1331.51,-82.54"/>
<polygon fill="#63b8ff" stroke="#63b8ff" points="1333.46,-79.64 1323.13,-77.28 1329.74,-85.57 1333.46,-79.64"/>
</a>
</g>
</g>
<!-- Node17&#45;&gt;Node15 -->
<g id="edge18_Node000017_Node000015" class="edge">
<title>Node17&#45;&gt;Node15</title>
<g id="a_edge18_Node000017_Node000015"><a xlink:title=" ">
<path fill="none" stroke="#63b8ff" d="M1465.63,-112.45C1414.47,-104.11 1334.63,-90.81 1256.14,-76.4"/>
<polygon fill="#63b8ff" stroke="#63b8ff" points="1257.04,-73.01 1246.57,-74.64 1255.77,-79.89 1257.04,-73.01"/>
</a>
</g>
</g>
<!-- Node17&#45;&gt;Node16 -->
<g id="edge19_Node000017_Node000016" class="edge">
<title>Node17&#45;&gt;Node16</title>
<g id="a_edge19_Node000017_Node000016"><a xlink:title=" ">
<path fill="none" stroke="#63b8ff" d="M1481.82,-111.59C1446.62,-102.63 1393.43,-89.08 1354.91,-79.27"/>
<polygon fill="#63b8ff" stroke="#63b8ff" points="1355.99,-75.93 1345.43,-76.85 1354.26,-82.71 1355.99,-75.93"/>
</a>
</g>
</g>
<!-- Node18&#45;&gt;Node12 -->
<g id="edge24_Node000018_Node000012" class="edge">
<title>Node18&#45;&gt;Node12</title>
<g id="a_edge24_Node000018_Node000012"><a xlink:title=" ">
<path fill="none" stroke="#63b8ff" d="M632.03,-111.59C617.53,-103.44 596.28,-91.48 579.43,-82"/>
<polygon fill="#63b8ff" stroke="#63b8ff" points="581.35,-79.07 570.92,-77.22 577.92,-85.17 581.35,-79.07"/>
</a>
</g>
</g>
<!-- Node18&#45;&gt;Node15 -->
<g id="edge22_Node000018_Node000015" class="edge">
<title>Node18&#45;&gt;Node15</title>
<g id="a_edge22_Node000018_Node000015"><a xlink:title=" ">
<path fill="none" stroke="#63b8ff" d="M716.76,-112.96C719.8,-112.63 722.81,-112.31 725.75,-112 885.1,-95.27 1074.37,-78.55 1161.07,-71.07"/>
<polygon fill="#63b8ff" stroke="#63b8ff" points="1161.2,-74.57 1170.86,-70.23 1160.6,-67.6 1161.2,-74.57"/>
</a>
</g>
</g>
<!-- Node18&#45;&gt;Node16 -->
<g id="edge23_Node000018_Node000016" class="edge">
<title>Node18&#45;&gt;Node16</title>
<g id="a_edge23_Node000018_Node000016"><a xlink:title=" ">
<path fill="none" stroke="#63b8ff" d="M716.75,-112.87C719.79,-112.56 722.8,-112.27 725.75,-112 956.3,-90.68 1018.25,-103.31 1251.05,-76.21"/>
<polygon fill="#63b8ff" stroke="#63b8ff" points="1251.24,-79.71 1260.76,-75.06 1250.42,-72.76 1251.24,-79.71"/>
</a>
</g>
</g>
<!-- Node19 -->
<g id="Node000019" class="node">
<title>Node19</title>
<g id="a_Node000019"><a xlink:title=" ">
<polygon fill="#e0e0e0" stroke="#999999" points="690.12,-76 607.38,-76 607.38,-56 690.12,-56 690.12,-76"/>
<text text-anchor="middle" x="648.75" y="-62.5" font-family="Helvetica,sans-Serif" font-size="10.00">appcommand.h</text>
</a>
</g>
</g>
<!-- Node18&#45;&gt;Node19 -->
<g id="edge21_Node000018_Node000019" class="edge">
<title>Node18&#45;&gt;Node19</title>
<g id="a_edge21_Node000018_Node000019"><a xlink:title=" ">
<path fill="none" stroke="#63b8ff" d="M648.75,-111.59C648.75,-105.01 648.75,-95.96 648.75,-87.73"/>
<polygon fill="#63b8ff" stroke="#63b8ff" points="652.25,-87.81 648.75,-77.81 645.25,-87.81 652.25,-87.81"/>
</a>
</g>
</g>
<!-- Node20&#45;&gt;Node15 -->
<g id="edge26_Node000020_Node000015" class="edge">
<title>Node20&#45;&gt;Node15</title>
<g id="a_edge26_Node000020_Node000015"><a xlink:title=" ">
<path fill="none" stroke="#63b8ff" d="M1019.9,-111.53C1059.38,-102.22 1119.64,-88.01 1161.43,-78.16"/>
<polygon fill="#63b8ff" stroke="#63b8ff" points="1162.02,-81.61 1170.95,-75.91 1160.42,-74.8 1162.02,-81.61"/>
</a>
</g>
</g>
<!-- Node20&#45;&gt;Node16 -->
<g id="edge27_Node000020_Node000016" class="edge">
<title>Node20&#45;&gt;Node16</title>
<g id="a_edge27_Node000020_Node000016"><a xlink:title=" ">
<path fill="none" stroke="#63b8ff" d="M1038.03,-111.52C1091.01,-102.89 1171.69,-89.68 1251.29,-76.4"/>
<polygon fill="#63b8ff" stroke="#63b8ff" points="1251.73,-79.88 1261.01,-74.78 1250.57,-72.98 1251.73,-79.88"/>
</a>
</g>
</g>
<!-- Node21&#45;&gt;Node15 -->
<g id="edge29_Node000021_Node000015" class="edge">
<title>Node21&#45;&gt;Node15</title>
<g id="a_edge29_Node000021_Node000015"><a xlink:title=" ">
<path fill="none" stroke="#63b8ff" d="M1133.6,-111.59C1147.22,-103.51 1167.11,-91.71 1183.01,-82.27"/>
<polygon fill="#63b8ff" stroke="#63b8ff" points="1184.66,-85.37 1191.47,-77.25 1181.09,-79.35 1184.66,-85.37"/>
</a>
</g>
</g>
<!-- Node21&#45;&gt;Node16 -->
<g id="edge30_Node000021_Node000016" class="edge">
<title>Node21&#45;&gt;Node16</title>
<g id="a_edge30_Node000021_Node000016"><a xlink:title=" ">
<path fill="none" stroke="#63b8ff" d="M1150.67,-111.59C1181.78,-102.71 1228.67,-89.31 1262.93,-79.52"/>
<polygon fill="#63b8ff" stroke="#63b8ff" points="1263.46,-83.01 1272.12,-76.9 1261.54,-76.28 1263.46,-83.01"/>
</a>
</g>
</g>
<!-- Node22&#45;&gt;Node15 -->
<g id="edge32_Node000022_Node000015" class="edge">
<title>Node22&#45;&gt;Node15</title>
<g id="a_edge32_Node000022_Node000015"><a xlink:title=" ">
<path fill="none" stroke="#63b8ff" d="M1249.21,-111.59C1242.47,-104.16 1232.86,-93.58 1224.71,-84.58"/>
<polygon fill="#63b8ff" stroke="#63b8ff" points="1227.52,-82.47 1218.2,-77.42 1222.33,-87.18 1227.52,-82.47"/>
</a>
</g>
</g>
<!-- Node22&#45;&gt;Node16 -->
<g id="edge33_Node000022_Node000016" class="edge">
<title>Node22&#45;&gt;Node16</title>
<g id="a_edge33_Node000022_Node000016"><a xlink:title=" ">
<path fill="none" stroke="#63b8ff" d="M1266.29,-111.59C1273.03,-104.16 1282.64,-93.58 1290.79,-84.58"/>
<polygon fill="#63b8ff" stroke="#63b8ff" points="1293.17,-87.18 1297.3,-77.42 1287.98,-82.47 1293.17,-87.18"/>
</a>
</g>
</g>
<!-- Node23&#45;&gt;Node15 -->
<g id="edge42_Node000023_Node000015" class="edge">
<title>Node23&#45;&gt;Node15</title>
<g id="a_edge42_Node000023_Node000015"><a xlink:title=" ">
<path fill="none" stroke="#63b8ff" d="M1588.69,-113.43C1586.01,-112.91 1583.34,-112.43 1580.75,-112 1440,-88.87 1400.17,-97.89 1256.07,-76.23"/>
<polygon fill="#63b8ff" stroke="#63b8ff" points="1256.96,-72.82 1246.55,-74.77 1255.9,-79.74 1256.96,-72.82"/>
</a>
</g>
</g>
<!-- Node23&#45;&gt;Node16 -->
<g id="edge43_Node000023_Node000016" class="edge">
<title>Node23&#45;&gt;Node16</title>
<g id="a_edge43_Node000023_Node000016"><a xlink:title=" ">
<path fill="none" stroke="#63b8ff" d="M1588.66,-113.58C1585.99,-113.03 1583.33,-112.49 1580.75,-112 1505.39,-97.55 1417.81,-83.67 1362.34,-75.24"/>
<polygon fill="#63b8ff" stroke="#63b8ff" points="1362.92,-71.79 1352.51,-73.75 1361.87,-78.71 1362.92,-71.79"/>
</a>
</g>
</g>
<!-- Node28 -->
<g id="Node000028" class="node">
<title>Node28</title>
<g id="a_Node000028"><a xlink:href="IRepository_8hpp.html" target="_top" xlink:title=" ">
<polygon fill="white" stroke="#666666" points="354.88,-132 270.62,-132 270.62,-112 354.88,-112 354.88,-132"/>
<text text-anchor="middle" x="312.75" y="-118.5" font-family="Helvetica,sans-Serif" font-size="10.00">IRepository.hpp</text>
</a>
</g>
</g>
<!-- Node27&#45;&gt;Node28 -->
<g id="edge50_Node000027_Node000028" class="edge">
<title>Node27&#45;&gt;Node28</title>
<g id="a_edge50_Node000027_Node000028"><a xlink:title=" ">
<path fill="none" stroke="#63b8ff" d="M156.67,-167.59C187.78,-158.71 234.67,-145.31 268.93,-135.52"/>
<polygon fill="#63b8ff" stroke="#63b8ff" points="269.46,-139.01 278.12,-132.9 267.54,-132.28 269.46,-139.01"/>
</a>
</g>
</g>
<!-- Node29 -->
<g id="Node000029" class="node">
<title>Node29</title>
<g id="a_Node000029"><a xlink:href="ChallengeRoleDTO_8hpp.html" target="_top" xlink:title=" ">
<polygon fill="white" stroke="#666666" points="119.5,-132 0,-132 0,-112 119.5,-112 119.5,-132"/>
<text text-anchor="middle" x="59.75" y="-118.5" font-family="Helvetica,sans-Serif" font-size="10.00">ChallengeRoleDTO.hpp</text>
</a>
</g>
</g>
<!-- Node27&#45;&gt;Node29 -->
<g id="edge52_Node000027_Node000029" class="edge">
<title>Node27&#45;&gt;Node29</title>
<g id="a_edge52_Node000027_Node000029"><a xlink:title=" ">
<path fill="none" stroke="#63b8ff" d="M112.6,-167.59C103.42,-159.85 90.2,-148.69 79.27,-139.47"/>
<polygon fill="#63b8ff" stroke="#63b8ff" points="81.83,-137.05 71.93,-133.27 77.31,-142.4 81.83,-137.05"/>
</a>
</g>
</g>
<!-- Node28&#45;&gt;Node8 -->
<g id="edge51_Node000028_Node000008" class="edge">
<title>Node28&#45;&gt;Node8</title>
<g id="a_edge51_Node000028_Node000008"><a xlink:title=" ">
<path fill="none" stroke="#63b8ff" d="M325.47,-111.59C336.14,-103.7 351.63,-92.24 364.23,-82.92"/>
<polygon fill="#63b8ff" stroke="#63b8ff" points="366.01,-85.96 371.96,-77.2 361.84,-80.33 366.01,-85.96"/>
</a>
</g>
</g>
<!-- Node29&#45;&gt;Node10 -->
<g id="edge54_Node000029_Node000010" class="edge">
<title>Node29&#45;&gt;Node10</title>
<g id="a_edge54_Node000029_Node000010"><a xlink:title=" ">
<path fill="none" stroke="#63b8ff" d="M106.04,-111.53C159.5,-100.6 246.01,-82.9 292.24,-73.44"/>
<polygon fill="#63b8ff" stroke="#63b8ff" points="292.77,-76.91 301.87,-71.48 291.37,-70.05 292.77,-76.91"/>
</a>
</g>
</g>
<!-- Node29&#45;&gt;Node13 -->
<g id="edge53_Node000029_Node000013" class="edge">
<title>Node29&#45;&gt;Node13</title>
<g id="a_edge53_Node000029_Node000013"><a xlink:title=" ">
<path fill="none" stroke="#63b8ff" d="M86.57,-111.59C111.38,-102.9 148.48,-89.89 176.22,-80.16"/>
<polygon fill="#63b8ff" stroke="#63b8ff" points="177.01,-83.59 185.29,-76.98 174.69,-76.99 177.01,-83.59"/>
</a>
</g>
</g>
<!-- Node30&#45;&gt;Node28 -->
<g id="edge56_Node000030_Node000028" class="edge">
<title>Node30&#45;&gt;Node28</title>
<g id="a_edge56_Node000030_Node000028"><a xlink:title=" ">
<path fill="none" stroke="#63b8ff" d="M289.63,-167.59C293.24,-160.63 298.29,-150.89 302.75,-142.29"/>
<polygon fill="#63b8ff" stroke="#63b8ff" points="305.74,-144.13 307.23,-133.64 299.52,-140.91 305.74,-144.13"/>
</a>
</g>
</g>
<!-- Node31 -->
<g id="Node000031" class="node">
<title>Node31</title>
<g id="a_Node000031"><a xlink:href="ReactionRoleDTO_8hpp.html" target="_top" xlink:title=" ">
<polygon fill="white" stroke="#666666" points="252.25,-132 137.25,-132 137.25,-112 252.25,-112 252.25,-132"/>
<text text-anchor="middle" x="194.75" y="-118.5" font-family="Helvetica,sans-Serif" font-size="10.00">ReactionRoleDTO.hpp</text>
</a>
</g>
</g>
<!-- Node30&#45;&gt;Node31 -->
<g id="edge57_Node000030_Node000031" class="edge">
<title>Node30&#45;&gt;Node31</title>
<g id="a_edge57_Node000030_Node000031"><a xlink:title=" ">
<path fill="none" stroke="#63b8ff" d="M269.07,-167.59C255.61,-159.51 235.93,-147.71 220.21,-138.27"/>
<polygon fill="#63b8ff" stroke="#63b8ff" points="222.22,-135.4 211.85,-133.26 218.62,-141.4 222.22,-135.4"/>
</a>
</g>
</g>
<!-- Node31&#45;&gt;Node10 -->
<g id="edge59_Node000031_Node000010" class="edge">
<title>Node31&#45;&gt;Node10</title>
<g id="a_edge59_Node000031_Node000010"><a xlink:title=" ">
<path fill="none" stroke="#63b8ff" d="M217.22,-111.59C238.28,-102.78 269.94,-89.53 293.27,-79.76"/>
<polygon fill="#63b8ff" stroke="#63b8ff" points="294.39,-83.09 302.26,-76 291.68,-76.63 294.39,-83.09"/>
</a>
</g>
</g>
<!-- Node31&#45;&gt;Node13 -->
<g id="edge58_Node000031_Node000013" class="edge">
<title>Node31&#45;&gt;Node13</title>
<g id="a_edge58_Node000031_Node000013"><a xlink:title=" ">
<path fill="none" stroke="#63b8ff" d="M198.06,-111.59C200.43,-104.86 203.71,-95.53 206.66,-87.15"/>
<polygon fill="#63b8ff" stroke="#63b8ff" points="209.96,-88.32 209.98,-77.73 203.36,-86 209.96,-88.32"/>
</a>
</g>
</g>
</g>
</svg>
