<?xml version="1.0" encoding="UTF-8" standalone="no"?>
<!DOCTYPE svg PUBLIC "-//W3C//DTD SVG 1.1//EN"
 "http://www.w3.org/Graphics/SVG/1.1/DTD/svg11.dtd">
<!-- Generated by graphviz version 9.0.0 (0)
 -->
<!-- Title: src/bot_library/commands/clean_up/CleanUp.cpp Pages: 1 -->
<svg width="1742pt" height="376pt"
 viewBox="0.00 0.00 1741.50 376.00" xmlns="http://www.w3.org/2000/svg" xmlns:xlink="http://www.w3.org/1999/xlink">
<g id="graph0" class="graph" transform="scale(1 1) rotate(0) translate(4 372)">
<title>src/bot_library/commands/clean_up/CleanUp.cpp</title>
<!-- Node1 -->
<g id="Node000001" class="node">
<title>Node1</title>
<g id="a_Node000001"><a xlink:title=" ">
<polygon fill="#999999" stroke="#666666" points="381,-368 252.5,-368 252.5,-336 381,-336 381,-368"/>
<text text-anchor="start" x="260.5" y="-354.5" font-family="Helvetica,sans-Serif" font-size="10.00">src/bot_library/commands</text>
<text text-anchor="middle" x="316.75" y="-342.5" font-family="Helvetica,sans-Serif" font-size="10.00">/clean_up/CleanUp.cpp</text>
</a>
</g>
</g>
<!-- Node2 -->
<g id="Node000002" class="node">
<title>Node2</title>
<g id="a_Node000002"><a xlink:href="CleanUp_8hpp.html" target="_top" xlink:title=" ">
<polygon fill="white" stroke="#666666" points="386.25,-300 313.25,-300 313.25,-280 386.25,-280 386.25,-300"/>
<text text-anchor="middle" x="349.75" y="-286.5" font-family="Helvetica,sans-Serif" font-size="10.00">CleanUp.hpp</text>
</a>
</g>
</g>
<!-- Node1&#45;&gt;Node2 -->
<g id="edge1_Node000001_Node000002" class="edge">
<title>Node1&#45;&gt;Node2</title>
<g id="a_edge1_Node000001_Node000002"><a xlink:title=" ">
<path fill="none" stroke="#63b8ff" d="M325.25,-335.55C329.45,-327.91 334.56,-318.61 339.03,-310.49"/>
<polygon fill="#63b8ff" stroke="#63b8ff" points="342.09,-312.18 343.85,-301.73 335.96,-308.81 342.09,-312.18"/>
</a>
</g>
</g>
<!-- Node29 -->
<g id="Node000029" class="node">
<title>Node29</title>
<g id="a_Node000029"><a xlink:title=" ">
<polygon fill="#e0e0e0" stroke="#999999" points="473,-300 404.5,-300 404.5,-280 473,-280 473,-300"/>
<text text-anchor="middle" x="438.75" y="-286.5" font-family="Helvetica,sans-Serif" font-size="10.00">snowflake.h</text>
</a>
</g>
</g>
<!-- Node1&#45;&gt;Node29 -->
<g id="edge51_Node000001_Node000029" class="edge">
<title>Node1&#45;&gt;Node29</title>
<g id="a_edge51_Node000001_Node000029"><a xlink:title=" ">
<path fill="none" stroke="#63b8ff" d="M348.17,-335.55C367.05,-326.26 390.93,-314.52 409.43,-305.42"/>
<polygon fill="#63b8ff" stroke="#63b8ff" points="410.83,-308.63 418.26,-301.08 407.74,-302.35 410.83,-308.63"/>
</a>
</g>
</g>
<!-- Node30 -->
<g id="Node000030" class="node">
<title>Node30</title>
<g id="a_Node000030"><a xlink:href="ChallengeRoleRepository_8hpp.html" target="_top" xlink:title=" ">
<polygon fill="white" stroke="#666666" points="196.25,-188 51.25,-188 51.25,-168 196.25,-168 196.25,-188"/>
<text text-anchor="middle" x="123.75" y="-174.5" font-family="Helvetica,sans-Serif" font-size="10.00">ChallengeRoleRepository.hpp</text>
</a>
</g>
</g>
<!-- Node1&#45;&gt;Node30 -->
<g id="edge52_Node000001_Node000030" class="edge">
<title>Node1&#45;&gt;Node30</title>
<g id="a_edge52_Node000001_Node000030"><a xlink:title=" ">
<path fill="none" stroke="#63b8ff" d="M299.62,-335.74C263.56,-303.6 180.06,-229.18 142.57,-195.77"/>
<polygon fill="#63b8ff" stroke="#63b8ff" points="145.01,-193.26 135.21,-189.22 140.35,-198.48 145.01,-193.26"/>
</a>
</g>
</g>
<!-- Node33 -->
<g id="Node000033" class="node">
<title>Node33</title>
<g id="a_Node000033"><a xlink:href="ReactionRoleRepository_8hpp.html" target="_top" xlink:title=" ">
<polygon fill="white" stroke="#666666" points="355,-188 214.5,-188 214.5,-168 355,-168 355,-188"/>
<text text-anchor="middle" x="284.75" y="-174.5" font-family="Helvetica,sans-Serif" font-size="10.00">ReactionRoleRepository.hpp</text>
</a>
</g>
</g>
<!-- Node1&#45;&gt;Node33 -->
<g id="edge58_Node000001_Node000033" class="edge">
<title>Node1&#45;&gt;Node33</title>
<g id="a_edge58_Node000001_Node000033"><a xlink:title=" ">
<path fill="none" stroke="#63b8ff" d="M312.51,-335.91C309.76,-325.81 306.25,-312.17 303.75,-300 296.57,-265.04 290.64,-223.91 287.4,-199.73"/>
<polygon fill="#63b8ff" stroke="#63b8ff" points="290.89,-199.43 286.13,-189.97 283.95,-200.34 290.89,-199.43"/>
</a>
</g>
</g>
<!-- Node3 -->
<g id="Node000003" class="node">
<title>Node3</title>
<g id="a_Node000003"><a xlink:href="Bot_8hpp.html" target="_top" xlink:title=" ">
<polygon fill="white" stroke="#666666" points="1023.62,-244 973.88,-244 973.88,-224 1023.62,-224 1023.62,-244"/>
<text text-anchor="middle" x="998.75" y="-230.5" font-family="Helvetica,sans-Serif" font-size="10.00">Bot.hpp</text>
</a>
</g>
</g>
<!-- Node2&#45;&gt;Node3 -->
<g id="edge2_Node000002_Node000003" class="edge">
<title>Node2&#45;&gt;Node3</title>
<g id="a_edge2_Node000002_Node000003"><a xlink:title=" ">
<path fill="none" stroke="#63b8ff" d="M386.59,-281.39C389.68,-280.88 392.77,-280.4 395.75,-280 609.29,-251.25 868.04,-239.67 962.23,-236.21"/>
<polygon fill="#63b8ff" stroke="#63b8ff" points="962.27,-239.71 972.14,-235.86 962.02,-232.72 962.27,-239.71"/>
</a>
</g>
</g>
<!-- Node4 -->
<g id="Node000004" class="node">
<title>Node4</title>
<g id="a_Node000004"><a xlink:href="Core_8hpp.html" target="_top" xlink:title=" ">
<polygon fill="white" stroke="#666666" points="1026.62,-188 970.88,-188 970.88,-168 1026.62,-168 1026.62,-188"/>
<text text-anchor="middle" x="998.75" y="-174.5" font-family="Helvetica,sans-Serif" font-size="10.00">Core.hpp</text>
</a>
</g>
</g>
<!-- Node3&#45;&gt;Node4 -->
<g id="edge3_Node000003_Node000004" class="edge">
<title>Node3&#45;&gt;Node4</title>
<g id="a_edge3_Node000003_Node000004"><a xlink:title=" ">
<path fill="none" stroke="#63b8ff" d="M998.75,-223.59C998.75,-217.01 998.75,-207.96 998.75,-199.73"/>
<polygon fill="#63b8ff" stroke="#63b8ff" points="1002.25,-199.81 998.75,-189.81 995.25,-199.81 1002.25,-199.81"/>
</a>
</g>
</g>
<!-- Node13 -->
<g id="Node000013" class="node">
<title>Node13</title>
<g id="a_Node000013"><a xlink:title=" ">
<polygon fill="#e0e0e0" stroke="#999999" points="279.75,-76 239.75,-76 239.75,-56 279.75,-56 279.75,-76"/>
<text text-anchor="middle" x="259.75" y="-62.5" font-family="Helvetica,sans-Serif" font-size="10.00">string</text>
</a>
</g>
</g>
<!-- Node3&#45;&gt;Node13 -->
<g id="edge49_Node000003_Node000013" class="edge">
<title>Node3&#45;&gt;Node13</title>
<g id="a_edge49_Node000003_Node000013"><a xlink:title=" ">
<path fill="none" stroke="#63b8ff" d="M973.58,-232.74C888.84,-231.04 607.41,-218.8 396.75,-132 380.89,-125.47 378.99,-119.87 363.75,-112 339.75,-99.61 311.57,-87.56 290.6,-79.06"/>
<polygon fill="#63b8ff" stroke="#63b8ff" points="292.05,-75.87 281.47,-75.39 289.45,-82.36 292.05,-75.87"/>
</a>
</g>
</g>
<!-- Node15 -->
<g id="Node000015" class="node">
<title>Node15</title>
<g id="a_Node000015"><a xlink:title=" ">
<polygon fill="#e0e0e0" stroke="#999999" points="660.25,-76 617.25,-76 617.25,-56 660.25,-56 660.25,-76"/>
<text text-anchor="middle" x="638.75" y="-62.5" font-family="Helvetica,sans-Serif" font-size="10.00">vector</text>
</a>
</g>
</g>
<!-- Node3&#45;&gt;Node15 -->
<g id="edge50_Node000003_Node000015" class="edge">
<title>Node3&#45;&gt;Node15</title>
<g id="a_edge50_Node000003_Node000015"><a xlink:title=" ">
<path fill="none" stroke="#63b8ff" d="M973.59,-231.04C889.76,-223.93 622.4,-196.47 571.75,-132 556.51,-112.6 583.09,-93.28 607.14,-80.81"/>
<polygon fill="#63b8ff" stroke="#63b8ff" points="608.37,-84.11 615.81,-76.57 605.29,-77.83 608.37,-84.11"/>
</a>
</g>
</g>
<!-- Node17 -->
<g id="Node000017" class="node">
<title>Node17</title>
<g id="a_Node000017"><a xlink:href="IButtonCommand_8hpp.html" target="_top" xlink:title=" ">
<polygon fill="white" stroke="#666666" points="1110.38,-132 999.12,-132 999.12,-112 1110.38,-112 1110.38,-132"/>
<text text-anchor="middle" x="1054.75" y="-118.5" font-family="Helvetica,sans-Serif" font-size="10.00">IButtonCommand.hpp</text>
</a>
</g>
</g>
<!-- Node3&#45;&gt;Node17 -->
<g id="edge38_Node000003_Node000017" class="edge">
<title>Node3&#45;&gt;Node17</title>
<g id="a_edge38_Node000003_Node000017"><a xlink:title=" ">
<path fill="none" stroke="#63b8ff" d="M1008.22,-223.82C1016.56,-215.26 1028.47,-201.77 1035.75,-188 1043.16,-173.98 1048.04,-156.69 1050.99,-143.46"/>
<polygon fill="#63b8ff" stroke="#63b8ff" points="1054.4,-144.25 1052.96,-133.76 1047.54,-142.86 1054.4,-144.25"/>
</a>
</g>
</g>
<!-- Node20 -->
<g id="Node000020" class="node">
<title>Node20</title>
<g id="a_Node000020"><a xlink:href="IFormCommand_8hpp.html" target="_top" xlink:title=" ">
<polygon fill="white" stroke="#666666" points="1233.38,-132 1128.12,-132 1128.12,-112 1233.38,-112 1233.38,-132"/>
<text text-anchor="middle" x="1180.75" y="-118.5" font-family="Helvetica,sans-Serif" font-size="10.00">IFormCommand.hpp</text>
</a>
</g>
</g>
<!-- Node3&#45;&gt;Node20 -->
<g id="edge39_Node000003_Node000020" class="edge">
<title>Node3&#45;&gt;Node20</title>
<g id="a_edge39_Node000003_Node000020"><a xlink:title=" ">
<path fill="none" stroke="#63b8ff" d="M1014.27,-223.62C1045.83,-204.54 1117.75,-161.08 1155.9,-138.02"/>
<polygon fill="#63b8ff" stroke="#63b8ff" points="1157.23,-141.31 1163.98,-133.14 1153.61,-135.31 1157.23,-141.31"/>
</a>
</g>
</g>
<!-- Node21 -->
<g id="Node000021" class="node">
<title>Node21</title>
<g id="a_Node000021"><a xlink:href="IGlobalSlashCommand_8hpp.html" target="_top" xlink:title=" ">
<polygon fill="white" stroke="#666666" points="716.38,-132 581.12,-132 581.12,-112 716.38,-112 716.38,-132"/>
<text text-anchor="middle" x="648.75" y="-118.5" font-family="Helvetica,sans-Serif" font-size="10.00">IGlobalSlashCommand.hpp</text>
</a>
</g>
</g>
<!-- Node3&#45;&gt;Node21 -->
<g id="edge40_Node000003_Node000021" class="edge">
<title>Node3&#45;&gt;Node21</title>
<g id="a_edge40_Node000003_Node000021"><a xlink:title=" ">
<path fill="none" stroke="#63b8ff" d="M991.1,-223.66C978.64,-209.15 952.46,-181.45 923.75,-168 906.2,-159.78 802.83,-144.21 727.99,-133.72"/>
<polygon fill="#63b8ff" stroke="#63b8ff" points="728.59,-130.27 718.2,-132.36 727.62,-137.2 728.59,-130.27"/>
</a>
</g>
</g>
<!-- Node23 -->
<g id="Node000023" class="node">
<title>Node23</title>
<g id="a_Node000023"><a xlink:href="IMemberCommand_8hpp.html" target="_top" xlink:title=" ">
<polygon fill="white" stroke="#666666" points="1369.75,-132 1251.75,-132 1251.75,-112 1369.75,-112 1369.75,-132"/>
<text text-anchor="middle" x="1310.75" y="-118.5" font-family="Helvetica,sans-Serif" font-size="10.00">IMemberCommand.hpp</text>
</a>
</g>
</g>
<!-- Node3&#45;&gt;Node23 -->
<g id="edge41_Node000003_Node000023" class="edge">
<title>Node3&#45;&gt;Node23</title>
<g id="a_edge41_Node000003_Node000023"><a xlink:title=" ">
<path fill="none" stroke="#63b8ff" d="M1024.02,-224.09C1078.87,-204.75 1209.09,-158.84 1273.44,-136.15"/>
<polygon fill="#63b8ff" stroke="#63b8ff" points="1274.23,-139.59 1282.49,-132.96 1271.9,-132.99 1274.23,-139.59"/>
</a>
</g>
</g>
<!-- Node24 -->
<g id="Node000024" class="node">
<title>Node24</title>
<g id="a_Node000024"><a xlink:href="IMessageCommand_8hpp.html" target="_top" xlink:title=" ">
<polygon fill="white" stroke="#666666" points="1510,-132 1387.5,-132 1387.5,-112 1510,-112 1510,-132"/>
<text text-anchor="middle" x="1448.75" y="-118.5" font-family="Helvetica,sans-Serif" font-size="10.00">IMessageCommand.hpp</text>
</a>
</g>
</g>
<!-- Node3&#45;&gt;Node24 -->
<g id="edge42_Node000003_Node000024" class="edge">
<title>Node3&#45;&gt;Node24</title>
<g id="a_edge42_Node000003_Node000024"><a xlink:title=" ">
<path fill="none" stroke="#63b8ff" d="M1023.91,-226.85C1095.76,-209.29 1302.91,-158.65 1398.86,-135.19"/>
<polygon fill="#63b8ff" stroke="#63b8ff" points="1399.64,-138.61 1408.53,-132.83 1397.98,-131.81 1399.64,-138.61"/>
</a>
</g>
</g>
<!-- Node25 -->
<g id="Node000025" class="node">
<title>Node25</title>
<g id="a_Node000025"><a xlink:href="IReactionCommand_8hpp.html" target="_top" xlink:title=" ">
<polygon fill="white" stroke="#666666" points="1649.62,-132 1527.88,-132 1527.88,-112 1649.62,-112 1649.62,-132"/>
<text text-anchor="middle" x="1588.75" y="-118.5" font-family="Helvetica,sans-Serif" font-size="10.00">IReactionCommand.hpp</text>
</a>
</g>
</g>
<!-- Node3&#45;&gt;Node25 -->
<g id="edge43_Node000003_Node000025" class="edge">
<title>Node3&#45;&gt;Node25</title>
<g id="a_edge43_Node000003_Node000025"><a xlink:title=" ">
<path fill="none" stroke="#63b8ff" d="M1024.1,-228.27C1111.13,-212.05 1399.39,-158.3 1527.02,-134.51"/>
<polygon fill="#63b8ff" stroke="#63b8ff" points="1527.45,-137.99 1536.64,-132.72 1526.17,-131.11 1527.45,-137.99"/>
</a>
</g>
</g>
<!-- Node26 -->
<g id="Node000026" class="node">
<title>Node26</title>
<g id="a_Node000026"><a xlink:href="IReady_8hpp.html" target="_top" xlink:title=" ">
<polygon fill="white" stroke="#666666" points="1733.5,-132 1668,-132 1668,-112 1733.5,-112 1733.5,-132"/>
<text text-anchor="middle" x="1700.75" y="-118.5" font-family="Helvetica,sans-Serif" font-size="10.00">IReady.hpp</text>
</a>
</g>
</g>
<!-- Node3&#45;&gt;Node26 -->
<g id="edge44_Node000003_Node000026" class="edge">
<title>Node3&#45;&gt;Node26</title>
<g id="a_edge44_Node000003_Node000026"><a xlink:title=" ">
<path fill="none" stroke="#63b8ff" d="M1024.03,-229.74C1110.68,-218.44 1403.86,-179.15 1656.53,-132.33"/>
<polygon fill="#63b8ff" stroke="#63b8ff" points="1657.09,-135.79 1666.28,-130.52 1655.81,-128.91 1657.09,-135.79"/>
</a>
</g>
</g>
<!-- Node27 -->
<g id="Node000027" class="node">
<title>Node27</title>
<g id="a_Node000027"><a xlink:title=" ">
<polygon fill="#e0e0e0" stroke="#999999" points="845.12,-188 810.38,-188 810.38,-168 845.12,-168 845.12,-188"/>
<text text-anchor="middle" x="827.75" y="-174.5" font-family="Helvetica,sans-Serif" font-size="10.00">map</text>
</a>
</g>
</g>
<!-- Node3&#45;&gt;Node27 -->
<g id="edge47_Node000003_Node000027" class="edge">
<title>Node3&#45;&gt;Node27</title>
<g id="a_edge47_Node000003_Node000027"><a xlink:title=" ">
<path fill="none" stroke="#63b8ff" d="M973.52,-225.44C946.63,-217.32 902.55,-203.86 856.21,-188.74"/>
<polygon fill="#63b8ff" stroke="#63b8ff" points="857.38,-185.44 846.78,-185.65 855.2,-192.09 857.38,-185.44"/>
</a>
</g>
</g>
<!-- Node28 -->
<g id="Node000028" class="node">
<title>Node28</title>
<g id="a_Node000028"><a xlink:title=" ">
<polygon fill="#e0e0e0" stroke="#999999" points="914.38,-188 863.12,-188 863.12,-168 914.38,-168 914.38,-188"/>
<text text-anchor="middle" x="888.75" y="-174.5" font-family="Helvetica,sans-Serif" font-size="10.00">memory</text>
</a>
</g>
</g>
<!-- Node3&#45;&gt;Node28 -->
<g id="edge48_Node000003_Node000028" class="edge">
<title>Node3&#45;&gt;Node28</title>
<g id="a_edge48_Node000003_Node000028"><a xlink:title=" ">
<path fill="none" stroke="#63b8ff" d="M979.59,-223.59C962.66,-215.28 937.7,-203.03 918.23,-193.47"/>
<polygon fill="#63b8ff" stroke="#63b8ff" points="919.94,-190.41 909.42,-189.15 916.85,-196.7 919.94,-190.41"/>
</a>
</g>
</g>
<!-- Node5 -->
<g id="Node000005" class="node">
<title>Node5</title>
<g id="a_Node000005"><a xlink:title=" ">
<polygon fill="#e0e0e0" stroke="#999999" points="981.12,-132 922.38,-132 922.38,-112 981.12,-112 981.12,-132"/>
<text text-anchor="middle" x="951.75" y="-118.5" font-family="Helvetica,sans-Serif" font-size="10.00">dpp/dpp.h</text>
</a>
</g>
</g>
<!-- Node4&#45;&gt;Node5 -->
<g id="edge4_Node000004_Node000005" class="edge">
<title>Node4&#45;&gt;Node5</title>
<g id="a_edge4_Node000004_Node000005"><a xlink:title=" ">
<path fill="none" stroke="#63b8ff" d="M990.56,-167.59C984.16,-160.24 975.07,-149.8 967.3,-140.87"/>
<polygon fill="#63b8ff" stroke="#63b8ff" points="970.04,-138.69 960.84,-133.44 964.76,-143.28 970.04,-138.69"/>
</a>
</g>
</g>
<!-- Node6 -->
<g id="Node000006" class="node">
<title>Node6</title>
<g id="a_Node000006"><a xlink:title=" ">
<polygon fill="#e0e0e0" stroke="#999999" points="825.25,-132 734.25,-132 734.25,-112 825.25,-112 825.25,-132"/>
<text text-anchor="middle" x="779.75" y="-118.5" font-family="Helvetica,sans-Serif" font-size="10.00">dpp/misc&#45;enum.h</text>
</a>
</g>
</g>
<!-- Node4&#45;&gt;Node6 -->
<g id="edge5_Node000004_Node000006" class="edge">
<title>Node4&#45;&gt;Node6</title>
<g id="a_edge5_Node000004_Node000006"><a xlink:title=" ">
<path fill="none" stroke="#63b8ff" d="M970.57,-170.05C934.86,-161.25 872.72,-145.92 829.08,-135.16"/>
<polygon fill="#63b8ff" stroke="#63b8ff" points="830.15,-131.82 819.6,-132.83 828.47,-138.62 830.15,-131.82"/>
</a>
</g>
</g>
<!-- Node7 -->
<g id="Node000007" class="node">
<title>Node7</title>
<g id="a_Node000007"><a xlink:title=" ">
<polygon fill="#e0e0e0" stroke="#999999" points="903.88,-132 843.62,-132 843.62,-112 903.88,-112 903.88,-132"/>
<text text-anchor="middle" x="873.75" y="-118.5" font-family="Helvetica,sans-Serif" font-size="10.00">fmt/core.h</text>
</a>
</g>
</g>
<!-- Node4&#45;&gt;Node7 -->
<g id="edge6_Node000004_Node000007" class="edge">
<title>Node4&#45;&gt;Node7</title>
<g id="a_edge6_Node000004_Node000007"><a xlink:title=" ">
<path fill="none" stroke="#63b8ff" d="M976.98,-167.59C957.38,-159.13 928.32,-146.58 906.03,-136.94"/>
<polygon fill="#63b8ff" stroke="#63b8ff" points="907.65,-133.83 897.08,-133.08 904.87,-140.26 907.65,-133.83"/>
</a>
</g>
</g>
<!-- Node8 -->
<g id="Node000008" class="node">
<title>Node8</title>
<g id="a_Node000008"><a xlink:href="Database_8hpp.html" target="_top" xlink:title=" ">
<polygon fill="white" stroke="#666666" points="525.12,-132 448.38,-132 448.38,-112 525.12,-112 525.12,-132"/>
<text text-anchor="middle" x="486.75" y="-118.5" font-family="Helvetica,sans-Serif" font-size="10.00">Database.hpp</text>
</a>
</g>
</g>
<!-- Node4&#45;&gt;Node8 -->
<g id="edge7_Node000004_Node000008" class="edge">
<title>Node4&#45;&gt;Node8</title>
<g id="a_edge7_Node000004_Node000008"><a xlink:title=" ">
<path fill="none" stroke="#63b8ff" d="M970.63,-173.51C956.56,-171.79 939.26,-169.72 923.75,-168 767.45,-150.63 728.17,-148.28 571.75,-132 560.35,-130.81 548.09,-129.52 536.52,-128.3"/>
<polygon fill="#63b8ff" stroke="#63b8ff" points="537.07,-124.84 526.76,-127.27 536.33,-131.8 537.07,-124.84"/>
</a>
</g>
</g>
<!-- Node4&#45;&gt;Node13 -->
<g id="edge37_Node000004_Node000013" class="edge">
<title>Node4&#45;&gt;Node13</title>
<g id="a_edge37_Node000004_Node000013"><a xlink:title=" ">
<path fill="none" stroke="#63b8ff" d="M970.65,-173.32C956.58,-171.56 939.28,-169.51 923.75,-168 709.06,-147.14 648.49,-186.37 439.75,-132 419.35,-126.69 416.35,-119.75 396.75,-112 377.3,-104.31 324.86,-87.49 290.8,-76.73"/>
<polygon fill="#63b8ff" stroke="#63b8ff" points="292.05,-73.45 281.46,-73.79 289.95,-80.13 292.05,-73.45"/>
</a>
</g>
</g>
<!-- Node4&#45;&gt;Node17 -->
<g id="edge17_Node000004_Node000017" class="edge">
<title>Node4&#45;&gt;Node17</title>
<g id="a_edge17_Node000004_Node000017"><a xlink:title=" ">
<path fill="none" stroke="#63b8ff" d="M1008.5,-167.59C1016.37,-160.01 1027.65,-149.13 1037.1,-140.02"/>
<polygon fill="#63b8ff" stroke="#63b8ff" points="1039.25,-142.81 1044.02,-133.35 1034.39,-137.77 1039.25,-142.81"/>
</a>
</g>
</g>
<!-- Node4&#45;&gt;Node20 -->
<g id="edge20_Node000004_Node000020" class="edge">
<title>Node4&#45;&gt;Node20</title>
<g id="a_edge20_Node000004_Node000020"><a xlink:title=" ">
<path fill="none" stroke="#63b8ff" d="M1026.79,-168.68C1056.57,-159.84 1104,-145.77 1138.35,-135.58"/>
<polygon fill="#63b8ff" stroke="#63b8ff" points="1138.96,-139.05 1147.55,-132.85 1136.97,-132.34 1138.96,-139.05"/>
</a>
</g>
</g>
<!-- Node4&#45;&gt;Node21 -->
<g id="edge23_Node000004_Node000021" class="edge">
<title>Node4&#45;&gt;Node21</title>
<g id="a_edge23_Node000004_Node000021"><a xlink:title=" ">
<path fill="none" stroke="#63b8ff" d="M970.79,-170.74C966.11,-169.77 961.3,-168.82 956.75,-168 879.39,-154.08 790.52,-141.45 728.18,-133.14"/>
<polygon fill="#63b8ff" stroke="#63b8ff" points="728.73,-129.68 718.36,-131.84 727.81,-136.62 728.73,-129.68"/>
</a>
</g>
</g>
<!-- Node4&#45;&gt;Node23 -->
<g id="edge28_Node000004_Node000023" class="edge">
<title>Node4&#45;&gt;Node23</title>
<g id="a_edge28_Node000004_Node000023"><a xlink:title=" ">
<path fill="none" stroke="#63b8ff" d="M1026.99,-172.11C1075.84,-163.66 1177.35,-146.09 1244.76,-134.42"/>
<polygon fill="#63b8ff" stroke="#63b8ff" points="1245.36,-137.87 1254.61,-132.72 1244.16,-130.97 1245.36,-137.87"/>
</a>
</g>
</g>
<!-- Node4&#45;&gt;Node24 -->
<g id="edge31_Node000004_Node000024" class="edge">
<title>Node4&#45;&gt;Node24</title>
<g id="a_edge31_Node000004_Node000024"><a xlink:title=" ">
<path fill="none" stroke="#63b8ff" d="M1026.89,-173.77C1088.25,-166.69 1238.99,-149.2 1376.18,-132.31"/>
<polygon fill="#63b8ff" stroke="#63b8ff" points="1376.3,-135.82 1385.79,-131.12 1375.44,-128.87 1376.3,-135.82"/>
</a>
</g>
</g>
<!-- Node4&#45;&gt;Node25 -->
<g id="edge34_Node000004_Node000025" class="edge">
<title>Node4&#45;&gt;Node25</title>
<g id="a_edge34_Node000004_Node000025"><a xlink:title=" ">
<path fill="none" stroke="#63b8ff" d="M1026.97,-174.97C1103.7,-169.37 1322.79,-152.79 1516.44,-132.21"/>
<polygon fill="#63b8ff" stroke="#63b8ff" points="1516.61,-135.71 1526.18,-131.16 1515.86,-128.75 1516.61,-135.71"/>
</a>
</g>
</g>
<!-- Node9 -->
<g id="Node000009" class="node">
<title>Node9</title>
<g id="a_Node000009"><a xlink:title=" ">
<polygon fill="#e0e0e0" stroke="#999999" points="345.88,-76 297.62,-76 297.62,-56 345.88,-56 345.88,-76"/>
<text text-anchor="middle" x="321.75" y="-62.5" font-family="Helvetica,sans-Serif" font-size="10.00">cstddef</text>
</a>
</g>
</g>
<!-- Node8&#45;&gt;Node9 -->
<g id="edge8_Node000008_Node000009" class="edge">
<title>Node8&#45;&gt;Node9</title>
<g id="a_edge8_Node000008_Node000009"><a xlink:title=" ">
<path fill="none" stroke="#63b8ff" d="M458.01,-111.59C429.93,-102.4 387.13,-88.4 357,-78.54"/>
<polygon fill="#63b8ff" stroke="#63b8ff" points="358.17,-75.24 347.57,-75.45 355.99,-81.89 358.17,-75.24"/>
</a>
</g>
</g>
<!-- Node10 -->
<g id="Node000010" class="node">
<title>Node10</title>
<g id="a_Node000010"><a xlink:title=" ">
<polygon fill="#e0e0e0" stroke="#999999" points="531.5,-76 478,-76 478,-56 531.5,-56 531.5,-76"/>
<text text-anchor="middle" x="504.75" y="-62.5" font-family="Helvetica,sans-Serif" font-size="10.00">iostream</text>
</a>
</g>
</g>
<!-- Node8&#45;&gt;Node10 -->
<g id="edge9_Node000008_Node000010" class="edge">
<title>Node8&#45;&gt;Node10</title>
<g id="a_edge9_Node000008_Node000010"><a xlink:title=" ">
<path fill="none" stroke="#63b8ff" d="M489.89,-111.59C492.13,-104.86 495.24,-95.53 498.03,-87.15"/>
<polygon fill="#63b8ff" stroke="#63b8ff" points="501.33,-88.33 501.17,-77.73 494.69,-86.11 501.33,-88.33"/>
</a>
</g>
</g>
<!-- Node11 -->
<g id="Node000011" class="node">
<title>Node11</title>
<g id="a_Node000011"><a xlink:title=" ">
<polygon fill="#e0e0e0" stroke="#999999" points="599.62,-76 549.88,-76 549.88,-56 599.62,-56 599.62,-76"/>
<text text-anchor="middle" x="574.75" y="-62.5" font-family="Helvetica,sans-Serif" font-size="10.00">optional</text>
</a>
</g>
</g>
<!-- Node8&#45;&gt;Node11 -->
<g id="edge10_Node000008_Node000011" class="edge">
<title>Node8&#45;&gt;Node11</title>
<g id="a_edge10_Node000008_Node000011"><a xlink:title=" ">
<path fill="none" stroke="#63b8ff" d="M502.08,-111.59C515.25,-103.51 534.48,-91.71 549.86,-82.27"/>
<polygon fill="#63b8ff" stroke="#63b8ff" points="551.32,-85.48 558.01,-77.27 547.66,-79.52 551.32,-85.48"/>
</a>
</g>
</g>
<!-- Node12 -->
<g id="Node000012" class="node">
<title>Node12</title>
<g id="a_Node000012"><a xlink:title=" ">
<polygon fill="#e0e0e0" stroke="#999999" points="300.25,-20 239.25,-20 239.25,0 300.25,0 300.25,-20"/>
<text text-anchor="middle" x="269.75" y="-6.5" font-family="Helvetica,sans-Serif" font-size="10.00">pqxx/pqxx</text>
</a>
</g>
</g>
<!-- Node8&#45;&gt;Node12 -->
<g id="edge11_Node000008_Node000012" class="edge">
<title>Node8&#45;&gt;Node12</title>
<g id="a_edge11_Node000008_Node000012"><a xlink:title=" ">
<path fill="none" stroke="#63b8ff" d="M466.47,-111.57C447.35,-102.62 417.96,-88.69 392.75,-76 388.03,-73.63 332.35,-44.15 297.54,-25.72"/>
<polygon fill="#63b8ff" stroke="#63b8ff" points="299.3,-22.69 288.82,-21.1 296.02,-28.88 299.3,-22.69"/>
</a>
</g>
</g>
<!-- Node8&#45;&gt;Node13 -->
<g id="edge12_Node000008_Node000013" class="edge">
<title>Node8&#45;&gt;Node13</title>
<g id="a_edge12_Node000008_Node000013"><a xlink:title=" ">
<path fill="none" stroke="#63b8ff" d="M448.21,-113.16C410.41,-105.28 350.95,-92.33 290.81,-76.4"/>
<polygon fill="#63b8ff" stroke="#63b8ff" points="292,-73.09 281.44,-73.89 290.19,-79.85 292,-73.09"/>
</a>
</g>
</g>
<!-- Node14 -->
<g id="Node000014" class="node">
<title>Node14</title>
<g id="a_Node000014"><a xlink:title=" ">
<polygon fill="#e0e0e0" stroke="#999999" points="459.75,-76 401.75,-76 401.75,-56 459.75,-56 459.75,-76"/>
<text text-anchor="middle" x="430.75" y="-62.5" font-family="Helvetica,sans-Serif" font-size="10.00">typeindex</text>
</a>
</g>
</g>
<!-- Node8&#45;&gt;Node14 -->
<g id="edge13_Node000008_Node000014" class="edge">
<title>Node8&#45;&gt;Node14</title>
<g id="a_edge13_Node000008_Node000014"><a xlink:title=" ">
<path fill="none" stroke="#63b8ff" d="M477,-111.59C469.13,-104.01 457.85,-93.13 448.4,-84.02"/>
<polygon fill="#63b8ff" stroke="#63b8ff" points="451.11,-81.77 441.48,-77.35 446.25,-86.81 451.11,-81.77"/>
</a>
</g>
</g>
<!-- Node8&#45;&gt;Node15 -->
<g id="edge14_Node000008_Node000015" class="edge">
<title>Node8&#45;&gt;Node15</title>
<g id="a_edge14_Node000008_Node000015"><a xlink:title=" ">
<path fill="none" stroke="#63b8ff" d="M513.23,-111.59C539.09,-102.4 578.51,-88.4 606.26,-78.54"/>
<polygon fill="#63b8ff" stroke="#63b8ff" points="607.32,-81.88 615.58,-75.23 604.98,-75.28 607.32,-81.88"/>
</a>
</g>
</g>
<!-- Node16 -->
<g id="Node000016" class="node">
<title>Node16</title>
<g id="a_Node000016"><a xlink:href="RowDTOAdapter_8hpp.html" target="_top" xlink:title=" ">
<polygon fill="white" stroke="#666666" points="221.62,-76 111.88,-76 111.88,-56 221.62,-56 221.62,-76"/>
<text text-anchor="middle" x="166.75" y="-62.5" font-family="Helvetica,sans-Serif" font-size="10.00">RowDTOAdapter.hpp</text>
</a>
</g>
</g>
<!-- Node8&#45;&gt;Node16 -->
<g id="edge15_Node000008_Node000016" class="edge">
<title>Node8&#45;&gt;Node16</title>
<g id="a_edge15_Node000008_Node000016"><a xlink:title=" ">
<path fill="none" stroke="#63b8ff" d="M448.15,-114.49C394.99,-105.52 298.45,-89.23 233.47,-78.26"/>
<polygon fill="#63b8ff" stroke="#63b8ff" points="234.06,-74.81 223.61,-76.6 232.89,-81.71 234.06,-74.81"/>
</a>
</g>
</g>
<!-- Node16&#45;&gt;Node12 -->
<g id="edge16_Node000016_Node000012" class="edge">
<title>Node16&#45;&gt;Node12</title>
<g id="a_edge16_Node000016_Node000012"><a xlink:title=" ">
<path fill="none" stroke="#63b8ff" d="M184.69,-55.59C200.4,-47.36 223.48,-35.26 241.64,-25.74"/>
<polygon fill="#63b8ff" stroke="#63b8ff" points="243.1,-28.93 250.33,-21.18 239.85,-22.73 243.1,-28.93"/>
</a>
</g>
</g>
<!-- Node18 -->
<g id="Node000018" class="node">
<title>Node18</title>
<g id="a_Node000018"><a xlink:title=" ">
<polygon fill="#e0e0e0" stroke="#999999" points="1297.88,-76 1225.62,-76 1225.62,-56 1297.88,-56 1297.88,-76"/>
<text text-anchor="middle" x="1261.75" y="-62.5" font-family="Helvetica,sans-Serif" font-size="10.00">dpp/cluster.h</text>
</a>
</g>
</g>
<!-- Node17&#45;&gt;Node18 -->
<g id="edge18_Node000017_Node000018" class="edge">
<title>Node17&#45;&gt;Node18</title>
<g id="a_edge18_Node000017_Node000018"><a xlink:title=" ">
<path fill="none" stroke="#63b8ff" d="M1090.81,-111.59C1125.18,-102.63 1177.12,-89.08 1214.73,-79.27"/>
<polygon fill="#63b8ff" stroke="#63b8ff" points="1215.15,-82.77 1223.95,-76.86 1213.39,-76 1215.15,-82.77"/>
</a>
</g>
</g>
<!-- Node19 -->
<g id="Node000019" class="node">
<title>Node19</title>
<g id="a_Node000019"><a xlink:title=" ">
<polygon fill="#e0e0e0" stroke="#999999" points="1403.75,-76 1315.75,-76 1315.75,-56 1403.75,-56 1403.75,-76"/>
<text text-anchor="middle" x="1359.75" y="-62.5" font-family="Helvetica,sans-Serif" font-size="10.00">dpp/dispatcher.h</text>
</a>
</g>
</g>
<!-- Node17&#45;&gt;Node19 -->
<g id="edge19_Node000017_Node000019" class="edge">
<title>Node17&#45;&gt;Node19</title>
<g id="a_edge19_Node000017_Node000019"><a xlink:title=" ">
<path fill="none" stroke="#63b8ff" d="M1108.23,-111.53C1163.21,-101.8 1248.45,-86.71 1304.18,-76.84"/>
<polygon fill="#63b8ff" stroke="#63b8ff" points="1304.54,-80.33 1313.77,-75.14 1303.32,-73.44 1304.54,-80.33"/>
</a>
</g>
</g>
<!-- Node20&#45;&gt;Node18 -->
<g id="edge21_Node000020_Node000018" class="edge">
<title>Node20&#45;&gt;Node18</title>
<g id="a_edge21_Node000020_Node000018"><a xlink:title=" ">
<path fill="none" stroke="#63b8ff" d="M1194.86,-111.59C1206.75,-103.67 1224.02,-92.16 1238.03,-82.82"/>
<polygon fill="#63b8ff" stroke="#63b8ff" points="1239.89,-85.78 1246.27,-77.32 1236.01,-79.95 1239.89,-85.78"/>
</a>
</g>
</g>
<!-- Node20&#45;&gt;Node19 -->
<g id="edge22_Node000020_Node000019" class="edge">
<title>Node20&#45;&gt;Node19</title>
<g id="a_edge22_Node000020_Node000019"><a xlink:title=" ">
<path fill="none" stroke="#63b8ff" d="M1211.93,-111.59C1241.14,-102.78 1285.03,-89.54 1317.4,-79.78"/>
<polygon fill="#63b8ff" stroke="#63b8ff" points="1318.32,-83.16 1326.88,-76.92 1316.29,-76.45 1318.32,-83.16"/>
</a>
</g>
</g>
<!-- Node21&#45;&gt;Node15 -->
<g id="edge27_Node000021_Node000015" class="edge">
<title>Node21&#45;&gt;Node15</title>
<g id="a_edge27_Node000021_Node000015"><a xlink:title=" ">
<path fill="none" stroke="#63b8ff" d="M647.01,-111.59C645.77,-104.93 644.07,-95.75 642.54,-87.44"/>
<polygon fill="#63b8ff" stroke="#63b8ff" points="646.01,-86.98 640.75,-77.79 639.13,-88.26 646.01,-86.98"/>
</a>
</g>
</g>
<!-- Node21&#45;&gt;Node18 -->
<g id="edge25_Node000021_Node000018" class="edge">
<title>Node21&#45;&gt;Node18</title>
<g id="a_edge25_Node000021_Node000018"><a xlink:title=" ">
<path fill="none" stroke="#63b8ff" d="M716.69,-112.84C719.41,-112.55 722.11,-112.27 724.75,-112 905.06,-93.77 1119.97,-77.36 1213.88,-70.46"/>
<polygon fill="#63b8ff" stroke="#63b8ff" points="1214.02,-73.96 1223.74,-69.74 1213.51,-66.98 1214.02,-73.96"/>
</a>
</g>
</g>
<!-- Node21&#45;&gt;Node19 -->
<g id="edge26_Node000021_Node000019" class="edge">
<title>Node21&#45;&gt;Node19</title>
<g id="a_edge26_Node000021_Node000019"><a xlink:title=" ">
<path fill="none" stroke="#63b8ff" d="M716.68,-112.76C719.41,-112.49 722.1,-112.24 724.75,-112 979.21,-89.08 1047.38,-105.26 1304.09,-76.19"/>
<polygon fill="#63b8ff" stroke="#63b8ff" points="1304.23,-79.7 1313.76,-75.08 1303.43,-72.74 1304.23,-79.7"/>
</a>
</g>
</g>
<!-- Node22 -->
<g id="Node000022" class="node">
<title>Node22</title>
<g id="a_Node000022"><a xlink:title=" ">
<polygon fill="#e0e0e0" stroke="#999999" points="761.12,-76 678.38,-76 678.38,-56 761.12,-56 761.12,-76"/>
<text text-anchor="middle" x="719.75" y="-62.5" font-family="Helvetica,sans-Serif" font-size="10.00">appcommand.h</text>
</a>
</g>
</g>
<!-- Node21&#45;&gt;Node22 -->
<g id="edge24_Node000021_Node000022" class="edge">
<title>Node21&#45;&gt;Node22</title>
<g id="a_edge24_Node000021_Node000022"><a xlink:title=" ">
<path fill="none" stroke="#63b8ff" d="M661.12,-111.59C671.4,-103.77 686.27,-92.46 698.46,-83.19"/>
<polygon fill="#63b8ff" stroke="#63b8ff" points="700.48,-86.05 706.32,-77.21 696.24,-80.48 700.48,-86.05"/>
</a>
</g>
</g>
<!-- Node23&#45;&gt;Node18 -->
<g id="edge29_Node000023_Node000018" class="edge">
<title>Node23&#45;&gt;Node18</title>
<g id="a_edge29_Node000023_Node000018"><a xlink:title=" ">
<path fill="none" stroke="#63b8ff" d="M1302.21,-111.59C1295.47,-104.16 1285.86,-93.58 1277.71,-84.58"/>
<polygon fill="#63b8ff" stroke="#63b8ff" points="1280.52,-82.47 1271.2,-77.42 1275.33,-87.18 1280.52,-82.47"/>
</a>
</g>
</g>
<!-- Node23&#45;&gt;Node19 -->
<g id="edge30_Node000023_Node000019" class="edge">
<title>Node23&#45;&gt;Node19</title>
<g id="a_edge30_Node000023_Node000019"><a xlink:title=" ">
<path fill="none" stroke="#63b8ff" d="M1319.29,-111.59C1326.03,-104.16 1335.64,-93.58 1343.79,-84.58"/>
<polygon fill="#63b8ff" stroke="#63b8ff" points="1346.17,-87.18 1350.3,-77.42 1340.98,-82.47 1346.17,-87.18"/>
</a>
</g>
</g>
<!-- Node24&#45;&gt;Node18 -->
<g id="edge32_Node000024_Node000018" class="edge">
<title>Node24&#45;&gt;Node18</title>
<g id="a_edge32_Node000024_Node000018"><a xlink:title=" ">
<path fill="none" stroke="#63b8ff" d="M1416.18,-111.59C1385.53,-102.74 1339.41,-89.43 1305.55,-79.65"/>
<polygon fill="#63b8ff" stroke="#63b8ff" points="1306.61,-76.31 1296.03,-76.9 1304.67,-83.04 1306.61,-76.31"/>
</a>
</g>
</g>
<!-- Node24&#45;&gt;Node19 -->
<g id="edge33_Node000024_Node000019" class="edge">
<title>Node24&#45;&gt;Node19</title>
<g id="a_edge33_Node000024_Node000019"><a xlink:title=" ">
<path fill="none" stroke="#63b8ff" d="M1433.25,-111.59C1419.93,-103.51 1400.47,-91.71 1384.92,-82.27"/>
<polygon fill="#63b8ff" stroke="#63b8ff" points="1387.03,-79.46 1376.67,-77.26 1383.4,-85.44 1387.03,-79.46"/>
</a>
</g>
</g>
<!-- Node25&#45;&gt;Node18 -->
<g id="edge35_Node000025_Node000018" class="edge">
<title>Node25&#45;&gt;Node18</title>
<g id="a_edge35_Node000025_Node000018"><a xlink:title=" ">
<path fill="none" stroke="#63b8ff" d="M1527.57,-111.94C1472.83,-103.68 1390.11,-90.8 1308.99,-76.35"/>
<polygon fill="#63b8ff" stroke="#63b8ff" points="1310.03,-72.98 1299.57,-74.66 1308.79,-79.87 1310.03,-72.98"/>
</a>
</g>
</g>
<!-- Node25&#45;&gt;Node19 -->
<g id="edge36_Node000025_Node000019" class="edge">
<title>Node25&#45;&gt;Node19</title>
<g id="a_edge36_Node000025_Node000019"><a xlink:title=" ">
<path fill="none" stroke="#63b8ff" d="M1548.6,-111.53C1510.29,-102.5 1452.43,-88.85 1410.85,-79.05"/>
<polygon fill="#63b8ff" stroke="#63b8ff" points="1411.86,-75.69 1401.33,-76.8 1410.26,-82.51 1411.86,-75.69"/>
</a>
</g>
</g>
<!-- Node26&#45;&gt;Node18 -->
<g id="edge45_Node000026_Node000018" class="edge">
<title>Node26&#45;&gt;Node18</title>
<g id="a_edge45_Node000026_Node000018"><a xlink:title=" ">
<path fill="none" stroke="#63b8ff" d="M1667.8,-113.58C1664.75,-113 1661.7,-112.46 1658.75,-112 1507.05,-88.06 1464.24,-98.91 1309.39,-76.26"/>
<polygon fill="#63b8ff" stroke="#63b8ff" points="1309.95,-72.8 1299.54,-74.79 1308.92,-79.73 1309.95,-72.8"/>
</a>
</g>
</g>
<!-- Node26&#45;&gt;Node19 -->
<g id="edge46_Node000026_Node000019" class="edge">
<title>Node26&#45;&gt;Node19</title>
<g id="a_edge46_Node000026_Node000019"><a xlink:title=" ">
<path fill="none" stroke="#63b8ff" d="M1667.77,-113.73C1664.73,-113.12 1661.68,-112.53 1658.75,-112 1574.21,-96.6 1475.53,-82.49 1415.36,-74.32"/>
<polygon fill="#63b8ff" stroke="#63b8ff" points="1416.1,-70.89 1405.72,-73.02 1415.16,-77.83 1416.1,-70.89"/>
</a>
</g>
</g>
<!-- Node31 -->
<g id="Node000031" class="node">
<title>Node31</title>
<g id="a_Node000031"><a xlink:href="IRepository_8hpp.html" target="_top" xlink:title=" ">
<polygon fill="white" stroke="#666666" points="354.88,-132 270.62,-132 270.62,-112 354.88,-112 354.88,-132"/>
<text text-anchor="middle" x="312.75" y="-118.5" font-family="Helvetica,sans-Serif" font-size="10.00">IRepository.hpp</text>
</a>
</g>
</g>
<!-- Node30&#45;&gt;Node31 -->
<g id="edge53_Node000030_Node000031" class="edge">
<title>Node30&#45;&gt;Node31</title>
<g id="a_edge53_Node000030_Node000031"><a xlink:title=" ">
<path fill="none" stroke="#63b8ff" d="M156.67,-167.59C187.78,-158.71 234.67,-145.31 268.93,-135.52"/>
<polygon fill="#63b8ff" stroke="#63b8ff" points="269.46,-139.01 278.12,-132.9 267.54,-132.28 269.46,-139.01"/>
</a>
</g>
</g>
<!-- Node32 -->
<g id="Node000032" class="node">
<title>Node32</title>
<g id="a_Node000032"><a xlink:href="ChallengeRoleDTO_8hpp.html" target="_top" xlink:title=" ">
<polygon fill="white" stroke="#666666" points="119.5,-132 0,-132 0,-112 119.5,-112 119.5,-132"/>
<text text-anchor="middle" x="59.75" y="-118.5" font-family="Helvetica,sans-Serif" font-size="10.00">ChallengeRoleDTO.hpp</text>
</a>
</g>
</g>
<!-- Node30&#45;&gt;Node32 -->
<g id="edge55_Node000030_Node000032" class="edge">
<title>Node30&#45;&gt;Node32</title>
<g id="a_edge55_Node000030_Node000032"><a xlink:title=" ">
<path fill="none" stroke="#63b8ff" d="M112.6,-167.59C103.42,-159.85 90.2,-148.69 79.27,-139.47"/>
<polygon fill="#63b8ff" stroke="#63b8ff" points="81.83,-137.05 71.93,-133.27 77.31,-142.4 81.83,-137.05"/>
</a>
</g>
</g>
<!-- Node31&#45;&gt;Node9 -->
<g id="edge54_Node000031_Node000009" class="edge">
<title>Node31&#45;&gt;Node9</title>
<g id="a_edge54_Node000031_Node000009"><a xlink:title=" ">
<path fill="none" stroke="#63b8ff" d="M314.32,-111.59C315.43,-104.93 316.96,-95.75 318.34,-87.44"/>
<polygon fill="#63b8ff" stroke="#63b8ff" points="321.76,-88.23 319.95,-77.79 314.86,-87.08 321.76,-88.23"/>
</a>
</g>
</g>
<!-- Node32&#45;&gt;Node13 -->
<g id="edge57_Node000032_Node000013" class="edge">
<title>Node32&#45;&gt;Node13</title>
<g id="a_edge57_Node000032_Node000013"><a xlink:title=" ">
<path fill="none" stroke="#63b8ff" d="M97.58,-111.55C130.01,-103.34 178.22,-90.86 228.7,-76.5"/>
<polygon fill="#63b8ff" stroke="#63b8ff" points="229.4,-79.94 238.05,-73.82 227.47,-73.21 229.4,-79.94"/>
</a>
</g>
</g>
<!-- Node32&#45;&gt;Node16 -->
<g id="edge56_Node000032_Node000016" class="edge">
<title>Node32&#45;&gt;Node16</title>
<g id="a_edge56_Node000032_Node000016"><a xlink:title=" ">
<path fill="none" stroke="#63b8ff" d="M78.39,-111.59C94.78,-103.32 118.91,-91.14 137.81,-81.6"/>
<polygon fill="#63b8ff" stroke="#63b8ff" points="139.26,-84.79 146.62,-77.16 136.11,-78.54 139.26,-84.79"/>
</a>
</g>
</g>
<!-- Node33&#45;&gt;Node31 -->
<g id="edge59_Node000033_Node000031" class="edge">
<title>Node33&#45;&gt;Node31</title>
<g id="a_edge59_Node000033_Node000031"><a xlink:title=" ">
<path fill="none" stroke="#63b8ff" d="M289.63,-167.59C293.24,-160.63 298.29,-150.89 302.75,-142.29"/>
<polygon fill="#63b8ff" stroke="#63b8ff" points="305.74,-144.13 307.23,-133.64 299.52,-140.91 305.74,-144.13"/>
</a>
</g>
</g>
<!-- Node34 -->
<g id="Node000034" class="node">
<title>Node34</title>
<g id="a_Node000034"><a xlink:href="ReactionRoleDTO_8hpp.html" target="_top" xlink:title=" ">
<polygon fill="white" stroke="#666666" points="252.25,-132 137.25,-132 137.25,-112 252.25,-112 252.25,-132"/>
<text text-anchor="middle" x="194.75" y="-118.5" font-family="Helvetica,sans-Serif" font-size="10.00">ReactionRoleDTO.hpp</text>
</a>
</g>
</g>
<!-- Node33&#45;&gt;Node34 -->
<g id="edge60_Node000033_Node000034" class="edge">
<title>Node33&#45;&gt;Node34</title>
<g id="a_edge60_Node000033_Node000034"><a xlink:title=" ">
<path fill="none" stroke="#63b8ff" d="M269.07,-167.59C255.61,-159.51 235.93,-147.71 220.21,-138.27"/>
<polygon fill="#63b8ff" stroke="#63b8ff" points="222.22,-135.4 211.85,-133.26 218.62,-141.4 222.22,-135.4"/>
</a>
</g>
</g>
<!-- Node34&#45;&gt;Node13 -->
<g id="edge62_Node000034_Node000013" class="edge">
<title>Node34&#45;&gt;Node13</title>
<g id="a_edge62_Node000034_Node000013"><a xlink:title=" ">
<path fill="none" stroke="#63b8ff" d="M206.07,-111.59C215.39,-103.85 228.83,-92.69 239.93,-83.47"/>
<polygon fill="#63b8ff" stroke="#63b8ff" points="241.94,-86.35 247.39,-77.27 237.46,-80.96 241.94,-86.35"/>
</a>
</g>
</g>
<!-- Node34&#45;&gt;Node16 -->
<g id="edge61_Node000034_Node000016" class="edge">
<title>Node34&#45;&gt;Node16</title>
<g id="a_edge61_Node000034_Node000016"><a xlink:title=" ">
<path fill="none" stroke="#63b8ff" d="M189.87,-111.59C186.26,-104.63 181.21,-94.89 176.75,-86.29"/>
<polygon fill="#63b8ff" stroke="#63b8ff" points="179.98,-84.91 172.27,-77.64 173.76,-88.13 179.98,-84.91"/>
</a>
</g>
</g>
</g>
</svg>
