<?xml version="1.0" encoding="UTF-8" standalone="no"?>
<!DOCTYPE svg PUBLIC "-//W3C//DTD SVG 1.1//EN"
 "http://www.w3.org/Graphics/SVG/1.1/DTD/svg11.dtd">
<!-- Generated by graphviz version 12.2.1 (0)
 -->
<!-- Title: src/bot_library/commands/clean_up/CleanUp.cpp Pages: 1 -->
<svg width="1663pt" height="376pt"
 viewBox="0.00 0.00 1663.25 376.00" xmlns="http://www.w3.org/2000/svg" xmlns:xlink="http://www.w3.org/1999/xlink">
<g id="graph0" class="graph" transform="scale(1 1) rotate(0) translate(4 372)">
<title>src/bot_library/commands/clean_up/CleanUp.cpp</title>
<!-- Node1 -->
<g id="Node000001" class="node">
<title>Node1</title>
<g id="a_Node000001"><a xlink:title=" ">
<polygon fill="#999999" stroke="#666666" points="1407,-368 1278.5,-368 1278.5,-336 1407,-336 1407,-368"/>
<text text-anchor="start" x="1286.5" y="-354.5" font-family="Helvetica,sans-Serif" font-size="10.00">src/bot_library/commands</text>
<text text-anchor="middle" x="1342.75" y="-342.5" font-family="Helvetica,sans-Serif" font-size="10.00">/clean_up/CleanUp.cpp</text>
</a>
</g>
</g>
<!-- Node2 -->
<g id="Node000002" class="node">
<title>Node2</title>
<g id="a_Node000002"><a xlink:href="CleanUp_8hpp.html" target="_top" xlink:title=" ">
<polygon fill="white" stroke="#666666" points="1009.25,-300 936.25,-300 936.25,-280 1009.25,-280 1009.25,-300"/>
<text text-anchor="middle" x="972.75" y="-286.5" font-family="Helvetica,sans-Serif" font-size="10.00">CleanUp.hpp</text>
</a>
</g>
</g>
<!-- Node1&#45;&gt;Node2 -->
<g id="edge1_Node000001_Node000002" class="edge">
<title>Node1&#45;&gt;Node2</title>
<g id="a_edge1_Node000001_Node000002"><a xlink:title=" ">
<path fill="none" stroke="#63b8ff" d="M1278.3,-340.55C1204.96,-328.66 1086.84,-309.5 1021.02,-298.83"/>
<polygon fill="#63b8ff" stroke="#63b8ff" points="1021.67,-295.39 1011.24,-297.24 1020.55,-302.3 1021.67,-295.39"/>
</a>
</g>
</g>
<!-- Node27 -->
<g id="Node000027" class="node">
<title>Node27</title>
<g id="a_Node000027"><a xlink:title=" ">
<polygon fill="#e0e0e0" stroke="#999999" points="1346,-300 1277.5,-300 1277.5,-280 1346,-280 1346,-300"/>
<text text-anchor="middle" x="1311.75" y="-286.5" font-family="Helvetica,sans-Serif" font-size="10.00">snowflake.h</text>
</a>
</g>
</g>
<!-- Node1&#45;&gt;Node27 -->
<g id="edge49_Node000001_Node000027" class="edge">
<title>Node1&#45;&gt;Node27</title>
<g id="a_edge49_Node000001_Node000027"><a xlink:title=" ">
<path fill="none" stroke="#63b8ff" d="M1334.77,-335.55C1330.82,-327.91 1326.02,-318.61 1321.82,-310.49"/>
<polygon fill="#63b8ff" stroke="#63b8ff" points="1325.01,-309.03 1317.31,-301.75 1318.79,-312.24 1325.01,-309.03"/>
</a>
</g>
</g>
<!-- Node28 -->
<g id="Node000028" class="node">
<title>Node28</title>
<g id="a_Node000028"><a xlink:href="ChallengeRoleRepository_8hpp.html" target="_top" xlink:title=" ">
<polygon fill="white" stroke="#666666" points="1446.25,-188 1301.25,-188 1301.25,-168 1446.25,-168 1446.25,-188"/>
<text text-anchor="middle" x="1373.75" y="-174.5" font-family="Helvetica,sans-Serif" font-size="10.00">ChallengeRoleRepository.hpp</text>
</a>
</g>
</g>
<!-- Node1&#45;&gt;Node28 -->
<g id="edge50_Node000001_Node000028" class="edge">
<title>Node1&#45;&gt;Node28</title>
<g id="a_edge50_Node000001_Node000028"><a xlink:title=" ">
<path fill="none" stroke="#63b8ff" d="M1346.62,-335.89C1349.13,-325.77 1352.37,-312.14 1354.75,-300 1361.61,-264.98 1367.64,-223.87 1370.98,-199.71"/>
<polygon fill="#63b8ff" stroke="#63b8ff" points="1374.43,-200.34 1372.31,-189.96 1367.49,-199.39 1374.43,-200.34"/>
</a>
</g>
</g>
<!-- Node31 -->
<g id="Node000031" class="node">
<title>Node31</title>
<g id="a_Node000031"><a xlink:href="ReactionRoleRepository_8hpp.html" target="_top" xlink:title=" ">
<polygon fill="white" stroke="#666666" points="1605,-188 1464.5,-188 1464.5,-168 1605,-168 1605,-188"/>
<text text-anchor="middle" x="1534.75" y="-174.5" font-family="Helvetica,sans-Serif" font-size="10.00">ReactionRoleRepository.hpp</text>
</a>
</g>
</g>
<!-- Node1&#45;&gt;Node31 -->
<g id="edge56_Node000001_Node000031" class="edge">
<title>Node1&#45;&gt;Node31</title>
<g id="a_edge56_Node000001_Node000031"><a xlink:title=" ">
<path fill="none" stroke="#63b8ff" d="M1359.79,-335.74C1395.66,-303.6 1478.73,-229.18 1516.03,-195.77"/>
<polygon fill="#63b8ff" stroke="#63b8ff" points="1518.23,-198.5 1523.34,-189.22 1513.56,-193.28 1518.23,-198.5"/>
</a>
</g>
</g>
<!-- Node3 -->
<g id="Node000003" class="node">
<title>Node3</title>
<g id="a_Node000003"><a xlink:href="Bot_8hpp.html" target="_top" xlink:title=" ">
<polygon fill="white" stroke="#666666" points="734.62,-244 684.88,-244 684.88,-224 734.62,-224 734.62,-244"/>
<text text-anchor="middle" x="709.75" y="-230.5" font-family="Helvetica,sans-Serif" font-size="10.00">Bot.hpp</text>
</a>
</g>
</g>
<!-- Node2&#45;&gt;Node3 -->
<g id="edge2_Node000002_Node000003" class="edge">
<title>Node2&#45;&gt;Node3</title>
<g id="a_edge2_Node000002_Node000003"><a xlink:title=" ">
<path fill="none" stroke="#63b8ff" d="M935.9,-281.43C885.65,-271.12 796.15,-252.74 746.14,-242.47"/>
<polygon fill="#63b8ff" stroke="#63b8ff" points="746.89,-239.05 736.39,-240.47 745.48,-245.91 746.89,-239.05"/>
</a>
</g>
</g>
<!-- Node4 -->
<g id="Node000004" class="node">
<title>Node4</title>
<g id="a_Node000004"><a xlink:href="Core_8hpp.html" target="_top" xlink:title=" ">
<polygon fill="white" stroke="#666666" points="737.62,-188 681.88,-188 681.88,-168 737.62,-168 737.62,-188"/>
<text text-anchor="middle" x="709.75" y="-174.5" font-family="Helvetica,sans-Serif" font-size="10.00">Core.hpp</text>
</a>
</g>
</g>
<!-- Node3&#45;&gt;Node4 -->
<g id="edge3_Node000003_Node000004" class="edge">
<title>Node3&#45;&gt;Node4</title>
<g id="a_edge3_Node000003_Node000004"><a xlink:title=" ">
<path fill="none" stroke="#63b8ff" d="M709.75,-223.59C709.75,-217.01 709.75,-207.96 709.75,-199.73"/>
<polygon fill="#63b8ff" stroke="#63b8ff" points="713.25,-199.81 709.75,-189.81 706.25,-199.81 713.25,-199.81"/>
</a>
</g>
</g>
<!-- Node11 -->
<g id="Node000011" class="node">
<title>Node11</title>
<g id="a_Node000011"><a xlink:title=" ">
<polygon fill="#e0e0e0" stroke="#999999" points="1389.75,-76 1349.75,-76 1349.75,-56 1389.75,-56 1389.75,-76"/>
<text text-anchor="middle" x="1369.75" y="-62.5" font-family="Helvetica,sans-Serif" font-size="10.00">string</text>
</a>
</g>
</g>
<!-- Node3&#45;&gt;Node11 -->
<g id="edge47_Node000003_Node000011" class="edge">
<title>Node3&#45;&gt;Node11</title>
<g id="a_edge47_Node000003_Node000011"><a xlink:title=" ">
<path fill="none" stroke="#63b8ff" d="M734.92,-231.54C813.74,-226.29 1061.78,-204.69 1251.75,-132 1261.17,-128.4 1311.47,-100.14 1343.28,-82.08"/>
<polygon fill="#63b8ff" stroke="#63b8ff" points="1345,-85.14 1351.96,-77.15 1341.54,-79.05 1345,-85.14"/>
</a>
</g>
</g>
<!-- Node13 -->
<g id="Node000013" class="node">
<title>Node13</title>
<g id="a_Node000013"><a xlink:title=" ">
<polygon fill="#e0e0e0" stroke="#999999" points="1092.25,-76 1049.25,-76 1049.25,-56 1092.25,-56 1092.25,-76"/>
<text text-anchor="middle" x="1070.75" y="-62.5" font-family="Helvetica,sans-Serif" font-size="10.00">vector</text>
</a>
</g>
</g>
<!-- Node3&#45;&gt;Node13 -->
<g id="edge48_Node000003_Node000013" class="edge">
<title>Node3&#45;&gt;Node13</title>
<g id="a_edge48_Node000003_Node000013"><a xlink:title=" ">
<path fill="none" stroke="#63b8ff" d="M734.98,-230.12C811.83,-220.8 1040.35,-188.67 1083.75,-132 1093.69,-119.02 1088.6,-100.44 1082.09,-86.46"/>
<polygon fill="#63b8ff" stroke="#63b8ff" points="1085.28,-85.01 1077.54,-77.78 1079.08,-88.26 1085.28,-85.01"/>
</a>
</g>
</g>
<!-- Node15 -->
<g id="Node000015" class="node">
<title>Node15</title>
<g id="a_Node000015"><a xlink:href="IButtonCommand_8hpp.html" target="_top" xlink:title=" ">
<polygon fill="white" stroke="#666666" points="335.38,-132 224.12,-132 224.12,-112 335.38,-112 335.38,-132"/>
<text text-anchor="middle" x="279.75" y="-118.5" font-family="Helvetica,sans-Serif" font-size="10.00">IButtonCommand.hpp</text>
</a>
</g>
</g>
<!-- Node3&#45;&gt;Node15 -->
<g id="edge36_Node000003_Node000015" class="edge">
<title>Node3&#45;&gt;Node15</title>
<g id="a_edge36_Node000003_Node000015"><a xlink:title=" ">
<path fill="none" stroke="#63b8ff" d="M684.47,-228.32C644.57,-220.78 564.66,-205.05 497.75,-188 434.91,-171.99 362.99,-149.77 319.5,-135.9"/>
<polygon fill="#63b8ff" stroke="#63b8ff" points="320.84,-132.66 310.25,-132.94 318.71,-139.32 320.84,-132.66"/>
</a>
</g>
</g>
<!-- Node18 -->
<g id="Node000018" class="node">
<title>Node18</title>
<g id="a_Node000018"><a xlink:href="IFormCommand_8hpp.html" target="_top" xlink:title=" ">
<polygon fill="white" stroke="#666666" points="458.38,-132 353.12,-132 353.12,-112 458.38,-112 458.38,-132"/>
<text text-anchor="middle" x="405.75" y="-118.5" font-family="Helvetica,sans-Serif" font-size="10.00">IFormCommand.hpp</text>
</a>
</g>
</g>
<!-- Node3&#45;&gt;Node18 -->
<g id="edge37_Node000003_Node000018" class="edge">
<title>Node3&#45;&gt;Node18</title>
<g id="a_edge37_Node000003_Node000018"><a xlink:title=" ">
<path fill="none" stroke="#63b8ff" d="M684.61,-227.09C652.96,-219.38 597.13,-204.86 550.75,-188 509.37,-172.96 463.22,-151.41 434.34,-137.31"/>
<polygon fill="#63b8ff" stroke="#63b8ff" points="436.04,-134.24 425.52,-132.97 432.95,-140.52 436.04,-134.24"/>
</a>
</g>
</g>
<!-- Node19 -->
<g id="Node000019" class="node">
<title>Node19</title>
<g id="a_Node000019"><a xlink:href="IGlobalSlashCommand_8hpp.html" target="_top" xlink:title=" ">
<polygon fill="white" stroke="#666666" points="1074.38,-132 939.12,-132 939.12,-112 1074.38,-112 1074.38,-132"/>
<text text-anchor="middle" x="1006.75" y="-118.5" font-family="Helvetica,sans-Serif" font-size="10.00">IGlobalSlashCommand.hpp</text>
</a>
</g>
</g>
<!-- Node3&#45;&gt;Node19 -->
<g id="edge38_Node000003_Node000019" class="edge">
<title>Node3&#45;&gt;Node19</title>
<g id="a_edge38_Node000003_Node000019"><a xlink:title=" ">
<path fill="none" stroke="#63b8ff" d="M735.07,-223.62C787.9,-204.06 909.98,-158.84 970.87,-136.29"/>
<polygon fill="#63b8ff" stroke="#63b8ff" points="971.91,-139.64 980.07,-132.88 969.48,-133.07 971.91,-139.64"/>
</a>
</g>
</g>
<!-- Node21 -->
<g id="Node000021" class="node">
<title>Node21</title>
<g id="a_Node000021"><a xlink:href="IMemberCommand_8hpp.html" target="_top" xlink:title=" ">
<polygon fill="white" stroke="#666666" points="780.75,-132 662.75,-132 662.75,-112 780.75,-112 780.75,-132"/>
<text text-anchor="middle" x="721.75" y="-118.5" font-family="Helvetica,sans-Serif" font-size="10.00">IMemberCommand.hpp</text>
</a>
</g>
</g>
<!-- Node3&#45;&gt;Node21 -->
<g id="edge39_Node000003_Node000021" class="edge">
<title>Node3&#45;&gt;Node21</title>
<g id="a_edge39_Node000003_Node000021"><a xlink:title=" ">
<path fill="none" stroke="#63b8ff" d="M720.9,-223.59C729.81,-215.28 741.63,-202.28 746.75,-188 752.41,-172.19 744.58,-154.41 736.22,-141.44"/>
<polygon fill="#63b8ff" stroke="#63b8ff" points="739.18,-139.56 730.53,-133.44 733.47,-143.62 739.18,-139.56"/>
</a>
</g>
</g>
<!-- Node22 -->
<g id="Node000022" class="node">
<title>Node22</title>
<g id="a_Node000022"><a xlink:href="IMessageCommand_8hpp.html" target="_top" xlink:title=" ">
<polygon fill="white" stroke="#666666" points="921,-132 798.5,-132 798.5,-112 921,-112 921,-132"/>
<text text-anchor="middle" x="859.75" y="-118.5" font-family="Helvetica,sans-Serif" font-size="10.00">IMessageCommand.hpp</text>
</a>
</g>
</g>
<!-- Node3&#45;&gt;Node22 -->
<g id="edge40_Node000003_Node000022" class="edge">
<title>Node3&#45;&gt;Node22</title>
<g id="a_edge40_Node000003_Node000022"><a xlink:title=" ">
<path fill="none" stroke="#63b8ff" d="M722.54,-223.62C748.22,-204.79 806.32,-162.18 838.06,-138.91"/>
<polygon fill="#63b8ff" stroke="#63b8ff" points="839.78,-141.99 845.77,-133.25 835.64,-136.34 839.78,-141.99"/>
</a>
</g>
</g>
<!-- Node23 -->
<g id="Node000023" class="node">
<title>Node23</title>
<g id="a_Node000023"><a xlink:href="IReactionCommand_8hpp.html" target="_top" xlink:title=" ">
<polygon fill="white" stroke="#666666" points="205.62,-132 83.88,-132 83.88,-112 205.62,-112 205.62,-132"/>
<text text-anchor="middle" x="144.75" y="-118.5" font-family="Helvetica,sans-Serif" font-size="10.00">IReactionCommand.hpp</text>
</a>
</g>
</g>
<!-- Node3&#45;&gt;Node23 -->
<g id="edge41_Node000003_Node000023" class="edge">
<title>Node3&#45;&gt;Node23</title>
<g id="a_edge41_Node000003_Node000023"><a xlink:title=" ">
<path fill="none" stroke="#63b8ff" d="M684.6,-229.72C634.41,-223.03 518.36,-206.85 421.75,-188 340.5,-172.14 246.93,-149.19 191.98,-135.23"/>
<polygon fill="#63b8ff" stroke="#63b8ff" points="192.88,-131.85 182.33,-132.77 191.15,-138.63 192.88,-131.85"/>
</a>
</g>
</g>
<!-- Node24 -->
<g id="Node000024" class="node">
<title>Node24</title>
<g id="a_Node000024"><a xlink:href="IReady_8hpp.html" target="_top" xlink:title=" ">
<polygon fill="white" stroke="#666666" points="65.5,-132 0,-132 0,-112 65.5,-112 65.5,-132"/>
<text text-anchor="middle" x="32.75" y="-118.5" font-family="Helvetica,sans-Serif" font-size="10.00">IReady.hpp</text>
</a>
</g>
</g>
<!-- Node3&#45;&gt;Node24 -->
<g id="edge42_Node000003_Node000024" class="edge">
<title>Node3&#45;&gt;Node24</title>
<g id="a_edge42_Node000003_Node000024"><a xlink:title=" ">
<path fill="none" stroke="#63b8ff" d="M684.46,-230.93C622.84,-225.7 460.1,-210.71 325.75,-188 236.83,-172.97 134.22,-148.55 77.07,-134.31"/>
<polygon fill="#63b8ff" stroke="#63b8ff" points="77.95,-130.92 67.4,-131.89 76.25,-137.71 77.95,-130.92"/>
</a>
</g>
</g>
<!-- Node25 -->
<g id="Node000025" class="node">
<title>Node25</title>
<g id="a_Node000025"><a xlink:title=" ">
<polygon fill="#e0e0e0" stroke="#999999" points="594.12,-188 559.38,-188 559.38,-168 594.12,-168 594.12,-188"/>
<text text-anchor="middle" x="576.75" y="-174.5" font-family="Helvetica,sans-Serif" font-size="10.00">map</text>
</a>
</g>
</g>
<!-- Node3&#45;&gt;Node25 -->
<g id="edge45_Node000003_Node000025" class="edge">
<title>Node3&#45;&gt;Node25</title>
<g id="a_edge45_Node000003_Node000025"><a xlink:title=" ">
<path fill="none" stroke="#63b8ff" d="M686.58,-223.59C663.87,-214.37 629.2,-200.29 604.9,-190.43"/>
<polygon fill="#63b8ff" stroke="#63b8ff" points="606.53,-187.32 595.95,-186.8 603.9,-193.8 606.53,-187.32"/>
</a>
</g>
</g>
<!-- Node26 -->
<g id="Node000026" class="node">
<title>Node26</title>
<g id="a_Node000026"><a xlink:title=" ">
<polygon fill="#e0e0e0" stroke="#999999" points="663.38,-188 612.12,-188 612.12,-168 663.38,-168 663.38,-188"/>
<text text-anchor="middle" x="637.75" y="-174.5" font-family="Helvetica,sans-Serif" font-size="10.00">memory</text>
</a>
</g>
</g>
<!-- Node3&#45;&gt;Node26 -->
<g id="edge46_Node000003_Node000026" class="edge">
<title>Node3&#45;&gt;Node26</title>
<g id="a_edge46_Node000003_Node000026"><a xlink:title=" ">
<path fill="none" stroke="#63b8ff" d="M697.21,-223.59C686.78,-215.77 671.7,-204.46 659.34,-195.19"/>
<polygon fill="#63b8ff" stroke="#63b8ff" points="661.46,-192.41 651.36,-189.21 657.26,-198.01 661.46,-192.41"/>
</a>
</g>
</g>
<!-- Node5 -->
<g id="Node000005" class="node">
<title>Node5</title>
<g id="a_Node000005"><a xlink:title=" ">
<polygon fill="#e0e0e0" stroke="#999999" points="535.12,-132 476.38,-132 476.38,-112 535.12,-112 535.12,-132"/>
<text text-anchor="middle" x="505.75" y="-118.5" font-family="Helvetica,sans-Serif" font-size="10.00">dpp/dpp.h</text>
</a>
</g>
</g>
<!-- Node4&#45;&gt;Node5 -->
<g id="edge4_Node000004_Node000005" class="edge">
<title>Node4&#45;&gt;Node5</title>
<g id="a_edge4_Node000004_Node000005"><a xlink:title=" ">
<path fill="none" stroke="#63b8ff" d="M681.38,-169.49C646.33,-160.21 586.45,-144.36 546.49,-133.78"/>
<polygon fill="#63b8ff" stroke="#63b8ff" points="547.56,-130.45 536.99,-131.27 545.76,-137.21 547.56,-130.45"/>
</a>
</g>
</g>
<!-- Node6 -->
<g id="Node000006" class="node">
<title>Node6</title>
<g id="a_Node000006"><a xlink:title=" ">
<polygon fill="#e0e0e0" stroke="#999999" points="644.25,-132 553.25,-132 553.25,-112 644.25,-112 644.25,-132"/>
<text text-anchor="middle" x="598.75" y="-118.5" font-family="Helvetica,sans-Serif" font-size="10.00">dpp/misc&#45;enum.h</text>
</a>
</g>
</g>
<!-- Node4&#45;&gt;Node6 -->
<g id="edge5_Node000004_Node000006" class="edge">
<title>Node4&#45;&gt;Node6</title>
<g id="a_edge5_Node000004_Node000006"><a xlink:title=" ">
<path fill="none" stroke="#63b8ff" d="M690.42,-167.59C673.33,-159.28 648.15,-147.03 628.5,-137.47"/>
<polygon fill="#63b8ff" stroke="#63b8ff" points="630.12,-134.37 619.6,-133.14 627.06,-140.66 630.12,-134.37"/>
</a>
</g>
</g>
<!-- Node7 -->
<g id="Node000007" class="node">
<title>Node7</title>
<g id="a_Node000007"><a xlink:href="Database_8hpp.html" target="_top" xlink:title=" ">
<polygon fill="white" stroke="#666666" points="1207.12,-132 1130.38,-132 1130.38,-112 1207.12,-112 1207.12,-132"/>
<text text-anchor="middle" x="1168.75" y="-118.5" font-family="Helvetica,sans-Serif" font-size="10.00">Database.hpp</text>
</a>
</g>
</g>
<!-- Node4&#45;&gt;Node7 -->
<g id="edge6_Node000004_Node000007" class="edge">
<title>Node4&#45;&gt;Node7</title>
<g id="a_edge6_Node000004_Node000007"><a xlink:title=" ">
<path fill="none" stroke="#63b8ff" d="M738.12,-173.66C813.99,-164.74 1022.39,-140.22 1118.72,-128.89"/>
<polygon fill="#63b8ff" stroke="#63b8ff" points="1118.87,-132.39 1128.39,-127.75 1118.05,-125.44 1118.87,-132.39"/>
</a>
</g>
</g>
<!-- Node4&#45;&gt;Node11 -->
<g id="edge35_Node000004_Node000011" class="edge">
<title>Node4&#45;&gt;Node11</title>
<g id="a_edge35_Node000004_Node000011"><a xlink:title=" ">
<path fill="none" stroke="#63b8ff" d="M737.8,-175.78C830.2,-171.57 1124.28,-156.53 1215.75,-132 1236.11,-126.54 1239.42,-120.41 1258.75,-112 1285.67,-100.29 1316.65,-87.82 1339.03,-78.98"/>
<polygon fill="#63b8ff" stroke="#63b8ff" points="1340.14,-82.3 1348.16,-75.38 1337.58,-75.79 1340.14,-82.3"/>
</a>
</g>
</g>
<!-- Node4&#45;&gt;Node15 -->
<g id="edge15_Node000004_Node000015" class="edge">
<title>Node4&#45;&gt;Node15</title>
<g id="a_edge15_Node000004_Node000015"><a xlink:title=" ">
<path fill="none" stroke="#63b8ff" d="M681.55,-169.74C678.59,-169.1 675.61,-168.5 672.75,-168 531.41,-143.18 491.64,-149.89 346.67,-132.32"/>
<polygon fill="#63b8ff" stroke="#63b8ff" points="347.44,-128.89 337.09,-131.14 346.58,-135.84 347.44,-128.89"/>
</a>
</g>
</g>
<!-- Node4&#45;&gt;Node18 -->
<g id="edge18_Node000004_Node000018" class="edge">
<title>Node4&#45;&gt;Node18</title>
<g id="a_edge18_Node000004_Node000018"><a xlink:title=" ">
<path fill="none" stroke="#63b8ff" d="M681.52,-169.91C678.56,-169.24 675.6,-168.59 672.75,-168 603.76,-153.81 524.06,-140.82 469.82,-132.48"/>
<polygon fill="#63b8ff" stroke="#63b8ff" points="470.55,-129.05 460.14,-131 469.5,-135.97 470.55,-129.05"/>
</a>
</g>
</g>
<!-- Node4&#45;&gt;Node19 -->
<g id="edge21_Node000004_Node000019" class="edge">
<title>Node4&#45;&gt;Node19</title>
<g id="a_edge21_Node000004_Node000019"><a xlink:title=" ">
<path fill="none" stroke="#63b8ff" d="M737.96,-171.87C784.88,-163.34 880.08,-146.03 943.65,-134.47"/>
<polygon fill="#63b8ff" stroke="#63b8ff" points="944.03,-137.96 953.25,-132.73 942.78,-131.07 944.03,-137.96"/>
</a>
</g>
</g>
<!-- Node4&#45;&gt;Node21 -->
<g id="edge26_Node000004_Node000021" class="edge">
<title>Node4&#45;&gt;Node21</title>
<g id="a_edge26_Node000004_Node000021"><a xlink:title=" ">
<path fill="none" stroke="#63b8ff" d="M711.84,-167.59C713.32,-160.93 715.36,-151.75 717.21,-143.44"/>
<polygon fill="#63b8ff" stroke="#63b8ff" points="720.6,-144.3 719.36,-133.78 713.77,-142.78 720.6,-144.3"/>
</a>
</g>
</g>
<!-- Node4&#45;&gt;Node22 -->
<g id="edge29_Node000004_Node000022" class="edge">
<title>Node4&#45;&gt;Node22</title>
<g id="a_edge29_Node000004_Node000022"><a xlink:title=" ">
<path fill="none" stroke="#63b8ff" d="M735.88,-167.59C759.93,-158.94 795.85,-146 822.83,-136.29"/>
<polygon fill="#63b8ff" stroke="#63b8ff" points="823.77,-139.67 831.99,-132.99 821.4,-133.09 823.77,-139.67"/>
</a>
</g>
</g>
<!-- Node4&#45;&gt;Node23 -->
<g id="edge32_Node000004_Node000023" class="edge">
<title>Node4&#45;&gt;Node23</title>
<g id="a_edge32_Node000004_Node000023"><a xlink:title=" ">
<path fill="none" stroke="#63b8ff" d="M681.56,-169.65C678.6,-169.03 675.62,-168.46 672.75,-168 474.77,-136.35 419.82,-152.42 217.15,-132.19"/>
<polygon fill="#63b8ff" stroke="#63b8ff" points="217.62,-128.72 207.32,-131.18 216.91,-135.68 217.62,-128.72"/>
</a>
</g>
</g>
<!-- Node8 -->
<g id="Node000008" class="node">
<title>Node8</title>
<g id="a_Node000008"><a xlink:title=" ">
<polygon fill="#e0e0e0" stroke="#999999" points="1331.88,-76 1283.62,-76 1283.62,-56 1331.88,-56 1331.88,-76"/>
<text text-anchor="middle" x="1307.75" y="-62.5" font-family="Helvetica,sans-Serif" font-size="10.00">cstddef</text>
</a>
</g>
</g>
<!-- Node7&#45;&gt;Node8 -->
<g id="edge7_Node000007_Node000008" class="edge">
<title>Node7&#45;&gt;Node8</title>
<g id="a_edge7_Node000007_Node000008"><a xlink:title=" ">
<path fill="none" stroke="#63b8ff" d="M1192.96,-111.59C1215.05,-103.01 1247.95,-90.23 1272.87,-80.55"/>
<polygon fill="#63b8ff" stroke="#63b8ff" points="1273.88,-83.91 1281.94,-77.03 1271.35,-77.39 1273.88,-83.91"/>
</a>
</g>
</g>
<!-- Node9 -->
<g id="Node000009" class="node">
<title>Node9</title>
<g id="a_Node000009"><a xlink:title=" ">
<polygon fill="#e0e0e0" stroke="#999999" points="1265.5,-76 1212,-76 1212,-56 1265.5,-56 1265.5,-76"/>
<text text-anchor="middle" x="1238.75" y="-62.5" font-family="Helvetica,sans-Serif" font-size="10.00">iostream</text>
</a>
</g>
</g>
<!-- Node7&#45;&gt;Node9 -->
<g id="edge8_Node000007_Node000009" class="edge">
<title>Node7&#45;&gt;Node9</title>
<g id="a_edge8_Node000007_Node000009"><a xlink:title=" ">
<path fill="none" stroke="#63b8ff" d="M1180.94,-111.59C1191.08,-103.77 1205.74,-92.46 1217.76,-83.19"/>
<polygon fill="#63b8ff" stroke="#63b8ff" points="1219.72,-86.1 1225.5,-77.22 1215.44,-80.56 1219.72,-86.1"/>
</a>
</g>
</g>
<!-- Node10 -->
<g id="Node000010" class="node">
<title>Node10</title>
<g id="a_Node000010"><a xlink:title=" ">
<polygon fill="#e0e0e0" stroke="#999999" points="1322.25,-20 1261.25,-20 1261.25,0 1322.25,0 1322.25,-20"/>
<text text-anchor="middle" x="1291.75" y="-6.5" font-family="Helvetica,sans-Serif" font-size="10.00">pqxx/pqxx</text>
</a>
</g>
</g>
<!-- Node7&#45;&gt;Node10 -->
<g id="edge9_Node000007_Node000010" class="edge">
<title>Node7&#45;&gt;Node10</title>
<g id="a_edge9_Node000007_Node000010"><a xlink:title=" ">
<path fill="none" stroke="#63b8ff" d="M1159.08,-111.93C1146.18,-98.72 1126.44,-73.82 1139.75,-56 1164.94,-22.27 1214.28,-12.79 1249.93,-10.61"/>
<polygon fill="#63b8ff" stroke="#63b8ff" points="1249.62,-14.13 1259.46,-10.2 1249.32,-7.13 1249.62,-14.13"/>
</a>
</g>
</g>
<!-- Node7&#45;&gt;Node11 -->
<g id="edge10_Node000007_Node000011" class="edge">
<title>Node7&#45;&gt;Node11</title>
<g id="a_edge10_Node000007_Node000011"><a xlink:title=" ">
<path fill="none" stroke="#63b8ff" d="M1206.8,-111.57C1239.42,-103.37 1287.92,-90.9 1338.65,-76.51"/>
<polygon fill="#63b8ff" stroke="#63b8ff" points="1339.39,-79.94 1348.05,-73.83 1337.47,-73.21 1339.39,-79.94"/>
</a>
</g>
</g>
<!-- Node12 -->
<g id="Node000012" class="node">
<title>Node12</title>
<g id="a_Node000012"><a xlink:title=" ">
<polygon fill="#e0e0e0" stroke="#999999" points="1194.38,-76 1149.12,-76 1149.12,-56 1194.38,-56 1194.38,-76"/>
<text text-anchor="middle" x="1171.75" y="-62.5" font-family="Helvetica,sans-Serif" font-size="10.00">variant</text>
</a>
</g>
</g>
<!-- Node7&#45;&gt;Node12 -->
<g id="edge11_Node000007_Node000012" class="edge">
<title>Node7&#45;&gt;Node12</title>
<g id="a_edge11_Node000007_Node000012"><a xlink:title=" ">
<path fill="none" stroke="#63b8ff" d="M1169.27,-111.59C1169.64,-105.01 1170.14,-95.96 1170.6,-87.73"/>
<polygon fill="#63b8ff" stroke="#63b8ff" points="1174.09,-87.99 1171.15,-77.81 1167.1,-87.6 1174.09,-87.99"/>
</a>
</g>
</g>
<!-- Node7&#45;&gt;Node13 -->
<g id="edge12_Node000007_Node000013" class="edge">
<title>Node7&#45;&gt;Node13</title>
<g id="a_edge12_Node000007_Node000013"><a xlink:title=" ">
<path fill="none" stroke="#63b8ff" d="M1151.68,-111.59C1136.87,-103.44 1115.18,-91.48 1097.98,-82"/>
<polygon fill="#63b8ff" stroke="#63b8ff" points="1099.73,-78.97 1089.28,-77.21 1096.35,-85.1 1099.73,-78.97"/>
</a>
</g>
</g>
<!-- Node14 -->
<g id="Node000014" class="node">
<title>Node14</title>
<g id="a_Node000014"><a xlink:href="RowDTOAdapter_8hpp.html" target="_top" xlink:title=" ">
<polygon fill="white" stroke="#666666" points="1517.62,-76 1407.88,-76 1407.88,-56 1517.62,-56 1517.62,-76"/>
<text text-anchor="middle" x="1462.75" y="-62.5" font-family="Helvetica,sans-Serif" font-size="10.00">RowDTOAdapter.hpp</text>
</a>
</g>
</g>
<!-- Node7&#45;&gt;Node14 -->
<g id="edge13_Node000007_Node000014" class="edge">
<title>Node7&#45;&gt;Node14</title>
<g id="a_edge13_Node000007_Node000014"><a xlink:title=" ">
<path fill="none" stroke="#63b8ff" d="M1207.49,-113.88C1256.46,-104.89 1341.4,-89.29 1399.75,-78.57"/>
<polygon fill="#63b8ff" stroke="#63b8ff" points="1400.36,-82.02 1409.56,-76.77 1399.09,-75.13 1400.36,-82.02"/>
</a>
</g>
</g>
<!-- Node14&#45;&gt;Node10 -->
<g id="edge14_Node000014_Node000010" class="edge">
<title>Node14&#45;&gt;Node10</title>
<g id="a_edge14_Node000014_Node000010"><a xlink:title=" ">
<path fill="none" stroke="#63b8ff" d="M1432.96,-55.59C1405.18,-46.82 1363.5,-33.66 1332.61,-23.9"/>
<polygon fill="#63b8ff" stroke="#63b8ff" points="1333.8,-20.61 1323.21,-20.94 1331.69,-27.28 1333.8,-20.61"/>
</a>
</g>
</g>
<!-- Node16 -->
<g id="Node000016" class="node">
<title>Node16</title>
<g id="a_Node000016"><a xlink:title=" ">
<polygon fill="#e0e0e0" stroke="#999999" points="490.88,-76 418.62,-76 418.62,-56 490.88,-56 490.88,-76"/>
<text text-anchor="middle" x="454.75" y="-62.5" font-family="Helvetica,sans-Serif" font-size="10.00">dpp/cluster.h</text>
</a>
</g>
</g>
<!-- Node15&#45;&gt;Node16 -->
<g id="edge16_Node000015_Node000016" class="edge">
<title>Node15&#45;&gt;Node16</title>
<g id="a_edge16_Node000015_Node000016"><a xlink:title=" ">
<path fill="none" stroke="#63b8ff" d="M310.23,-111.59C338.79,-102.78 381.7,-89.54 413.35,-79.78"/>
<polygon fill="#63b8ff" stroke="#63b8ff" points="414.06,-83.22 422.58,-76.93 412,-76.53 414.06,-83.22"/>
</a>
</g>
</g>
<!-- Node17 -->
<g id="Node000017" class="node">
<title>Node17</title>
<g id="a_Node000017"><a xlink:title=" ">
<polygon fill="#e0e0e0" stroke="#999999" points="400.75,-76 312.75,-76 312.75,-56 400.75,-56 400.75,-76"/>
<text text-anchor="middle" x="356.75" y="-62.5" font-family="Helvetica,sans-Serif" font-size="10.00">dpp/dispatcher.h</text>
</a>
</g>
</g>
<!-- Node15&#45;&gt;Node17 -->
<g id="edge17_Node000015_Node000017" class="edge">
<title>Node15&#45;&gt;Node17</title>
<g id="a_edge17_Node000015_Node000017"><a xlink:title=" ">
<path fill="none" stroke="#63b8ff" d="M293.16,-111.59C304.36,-103.74 320.56,-92.38 333.81,-83.09"/>
<polygon fill="#63b8ff" stroke="#63b8ff" points="335.82,-85.96 341.99,-77.35 331.8,-80.22 335.82,-85.96"/>
</a>
</g>
</g>
<!-- Node18&#45;&gt;Node16 -->
<g id="edge19_Node000018_Node000016" class="edge">
<title>Node18&#45;&gt;Node16</title>
<g id="a_edge19_Node000018_Node000016"><a xlink:title=" ">
<path fill="none" stroke="#63b8ff" d="M414.29,-111.59C421.03,-104.16 430.64,-93.58 438.79,-84.58"/>
<polygon fill="#63b8ff" stroke="#63b8ff" points="441.17,-87.18 445.3,-77.42 435.98,-82.47 441.17,-87.18"/>
</a>
</g>
</g>
<!-- Node18&#45;&gt;Node17 -->
<g id="edge20_Node000018_Node000017" class="edge">
<title>Node18&#45;&gt;Node17</title>
<g id="a_edge20_Node000018_Node000017"><a xlink:title=" ">
<path fill="none" stroke="#63b8ff" d="M397.21,-111.59C390.47,-104.16 380.86,-93.58 372.71,-84.58"/>
<polygon fill="#63b8ff" stroke="#63b8ff" points="375.52,-82.47 366.2,-77.42 370.33,-87.18 375.52,-82.47"/>
</a>
</g>
</g>
<!-- Node19&#45;&gt;Node13 -->
<g id="edge25_Node000019_Node000013" class="edge">
<title>Node19&#45;&gt;Node13</title>
<g id="a_edge25_Node000019_Node000013"><a xlink:title=" ">
<path fill="none" stroke="#63b8ff" d="M1017.9,-111.59C1027.08,-103.85 1040.3,-92.69 1051.23,-83.47"/>
<polygon fill="#63b8ff" stroke="#63b8ff" points="1053.19,-86.4 1058.57,-77.27 1048.67,-81.05 1053.19,-86.4"/>
</a>
</g>
</g>
<!-- Node19&#45;&gt;Node16 -->
<g id="edge23_Node000019_Node000016" class="edge">
<title>Node19&#45;&gt;Node16</title>
<g id="a_edge23_Node000019_Node000016"><a xlink:title=" ">
<path fill="none" stroke="#63b8ff" d="M938.74,-112.97C935.7,-112.64 932.69,-112.31 929.75,-112 773.58,-95.48 588.21,-78.75 502.54,-71.18"/>
<polygon fill="#63b8ff" stroke="#63b8ff" points="502.9,-67.7 492.64,-70.31 502.29,-74.67 502.9,-67.7"/>
</a>
</g>
</g>
<!-- Node19&#45;&gt;Node17 -->
<g id="edge24_Node000019_Node000017" class="edge">
<title>Node19&#45;&gt;Node17</title>
<g id="a_edge24_Node000019_Node000017"><a xlink:title=" ">
<path fill="none" stroke="#63b8ff" d="M938.75,-112.88C935.71,-112.57 932.7,-112.27 929.75,-112 702.8,-90.89 641.74,-103.02 412.63,-76.23"/>
<polygon fill="#63b8ff" stroke="#63b8ff" points="413.08,-72.76 402.74,-75.06 412.26,-79.71 413.08,-72.76"/>
</a>
</g>
</g>
<!-- Node20 -->
<g id="Node000020" class="node">
<title>Node20</title>
<g id="a_Node000020"><a xlink:title=" ">
<polygon fill="#e0e0e0" stroke="#999999" points="1031.12,-76 948.38,-76 948.38,-56 1031.12,-56 1031.12,-76"/>
<text text-anchor="middle" x="989.75" y="-62.5" font-family="Helvetica,sans-Serif" font-size="10.00">appcommand.h</text>
</a>
</g>
</g>
<!-- Node19&#45;&gt;Node20 -->
<g id="edge22_Node000019_Node000020" class="edge">
<title>Node19&#45;&gt;Node20</title>
<g id="a_edge22_Node000019_Node000020"><a xlink:title=" ">
<path fill="none" stroke="#63b8ff" d="M1003.79,-111.59C1001.67,-104.86 998.73,-95.53 996.09,-87.15"/>
<polygon fill="#63b8ff" stroke="#63b8ff" points="999.47,-86.23 993.13,-77.74 992.8,-88.33 999.47,-86.23"/>
</a>
</g>
</g>
<!-- Node21&#45;&gt;Node16 -->
<g id="edge27_Node000021_Node000016" class="edge">
<title>Node21&#45;&gt;Node16</title>
<g id="a_edge27_Node000021_Node000016"><a xlink:title=" ">
<path fill="none" stroke="#63b8ff" d="M674.94,-111.53C626.48,-101.73 551.17,-86.5 502.4,-76.64"/>
<polygon fill="#63b8ff" stroke="#63b8ff" points="503.19,-73.23 492.69,-74.67 501.8,-80.09 503.19,-73.23"/>
</a>
</g>
</g>
<!-- Node21&#45;&gt;Node17 -->
<g id="edge28_Node000021_Node000017" class="edge">
<title>Node21&#45;&gt;Node17</title>
<g id="a_edge28_Node000021_Node000017"><a xlink:title=" ">
<path fill="none" stroke="#63b8ff" d="M662.45,-112.9C602.09,-104.55 505.52,-90.91 412.33,-76.37"/>
<polygon fill="#63b8ff" stroke="#63b8ff" points="412.9,-72.92 402.48,-74.83 411.82,-79.84 412.9,-72.92"/>
</a>
</g>
</g>
<!-- Node22&#45;&gt;Node16 -->
<g id="edge30_Node000022_Node000016" class="edge">
<title>Node22&#45;&gt;Node16</title>
<g id="a_edge30_Node000022_Node000016"><a xlink:title=" ">
<path fill="none" stroke="#63b8ff" d="M798.24,-112.8C717.06,-101.97 575.85,-83.15 502.33,-73.34"/>
<polygon fill="#63b8ff" stroke="#63b8ff" points="503,-69.9 492.63,-72.05 502.08,-76.84 503,-69.9"/>
</a>
</g>
</g>
<!-- Node22&#45;&gt;Node17 -->
<g id="edge31_Node000022_Node000017" class="edge">
<title>Node22&#45;&gt;Node17</title>
<g id="a_edge31_Node000022_Node000017"><a xlink:title=" ">
<path fill="none" stroke="#63b8ff" d="M798.3,-112.98C795.41,-112.64 792.55,-112.31 789.75,-112 624.77,-93.58 579.85,-98.01 412.45,-76.27"/>
<polygon fill="#63b8ff" stroke="#63b8ff" points="413.12,-72.83 402.75,-75 412.21,-79.77 413.12,-72.83"/>
</a>
</g>
</g>
<!-- Node23&#45;&gt;Node16 -->
<g id="edge33_Node000023_Node000016" class="edge">
<title>Node23&#45;&gt;Node16</title>
<g id="a_edge33_Node000023_Node000016"><a xlink:title=" ">
<path fill="none" stroke="#63b8ff" d="M203.52,-111.53C254.75,-103.15 331.37,-90.35 407.23,-76.42"/>
<polygon fill="#63b8ff" stroke="#63b8ff" points="407.73,-79.89 416.93,-74.64 406.46,-73.01 407.73,-79.89"/>
</a>
</g>
</g>
<!-- Node23&#45;&gt;Node17 -->
<g id="edge34_Node000023_Node000017" class="edge">
<title>Node23&#45;&gt;Node17</title>
<g id="a_edge34_Node000023_Node000017"><a xlink:title=" ">
<path fill="none" stroke="#63b8ff" d="M181.68,-111.59C216.88,-102.63 270.07,-89.08 308.59,-79.27"/>
<polygon fill="#63b8ff" stroke="#63b8ff" points="309.24,-82.71 318.07,-76.85 307.51,-75.93 309.24,-82.71"/>
</a>
</g>
</g>
<!-- Node24&#45;&gt;Node16 -->
<g id="edge43_Node000024_Node000016" class="edge">
<title>Node24&#45;&gt;Node16</title>
<g id="a_edge43_Node000024_Node000016"><a xlink:title=" ">
<path fill="none" stroke="#63b8ff" d="M65.7,-113.6C68.75,-113.02 71.8,-112.47 74.75,-112 219,-88.86 259.76,-98.22 407.18,-76.26"/>
<polygon fill="#63b8ff" stroke="#63b8ff" points="407.59,-79.74 416.95,-74.78 406.54,-72.82 407.59,-79.74"/>
</a>
</g>
</g>
<!-- Node24&#45;&gt;Node17 -->
<g id="edge44_Node000024_Node000017" class="edge">
<title>Node24&#45;&gt;Node17</title>
<g id="a_edge44_Node000024_Node000017"><a xlink:title=" ">
<path fill="none" stroke="#63b8ff" d="M65.73,-113.76C68.78,-113.14 71.82,-112.55 74.75,-112 153.17,-97.35 244.42,-83.34 301.39,-74.95"/>
<polygon fill="#63b8ff" stroke="#63b8ff" points="301.78,-78.43 311.17,-73.52 300.76,-71.5 301.78,-78.43"/>
</a>
</g>
</g>
<!-- Node29 -->
<g id="Node000029" class="node">
<title>Node29</title>
<g id="a_Node000029"><a xlink:href="IRepository_8hpp.html" target="_top" xlink:title=" ">
<polygon fill="white" stroke="#666666" points="1384.88,-132 1300.62,-132 1300.62,-112 1384.88,-112 1384.88,-132"/>
<text text-anchor="middle" x="1342.75" y="-118.5" font-family="Helvetica,sans-Serif" font-size="10.00">IRepository.hpp</text>
</a>
</g>
</g>
<!-- Node28&#45;&gt;Node29 -->
<g id="edge51_Node000028_Node000029" class="edge">
<title>Node28&#45;&gt;Node29</title>
<g id="a_edge51_Node000028_Node000029"><a xlink:title=" ">
<path fill="none" stroke="#63b8ff" d="M1368.35,-167.59C1364.31,-160.55 1358.63,-150.67 1353.66,-142"/>
<polygon fill="#63b8ff" stroke="#63b8ff" points="1356.86,-140.54 1348.84,-133.61 1350.78,-144.03 1356.86,-140.54"/>
</a>
</g>
</g>
<!-- Node30 -->
<g id="Node000030" class="node">
<title>Node30</title>
<g id="a_Node000030"><a xlink:href="ChallengeRoleDTO_8hpp.html" target="_top" xlink:title=" ">
<polygon fill="white" stroke="#666666" points="1522.5,-132 1403,-132 1403,-112 1522.5,-112 1522.5,-132"/>
<text text-anchor="middle" x="1462.75" y="-118.5" font-family="Helvetica,sans-Serif" font-size="10.00">ChallengeRoleDTO.hpp</text>
</a>
</g>
</g>
<!-- Node28&#45;&gt;Node30 -->
<g id="edge53_Node000028_Node000030" class="edge">
<title>Node28&#45;&gt;Node30</title>
<g id="a_edge53_Node000028_Node000030"><a xlink:title=" ">
<path fill="none" stroke="#63b8ff" d="M1389.25,-167.59C1402.57,-159.51 1422.03,-147.71 1437.58,-138.27"/>
<polygon fill="#63b8ff" stroke="#63b8ff" points="1439.1,-141.44 1445.83,-133.26 1435.47,-135.46 1439.1,-141.44"/>
</a>
</g>
</g>
<!-- Node29&#45;&gt;Node8 -->
<g id="edge52_Node000029_Node000008" class="edge">
<title>Node29&#45;&gt;Node8</title>
<g id="a_edge52_Node000029_Node000008"><a xlink:title=" ">
<path fill="none" stroke="#63b8ff" d="M1336.65,-111.59C1332.04,-104.47 1325.54,-94.45 1319.88,-85.72"/>
<polygon fill="#63b8ff" stroke="#63b8ff" points="1322.98,-84.06 1314.6,-77.57 1317.1,-87.86 1322.98,-84.06"/>
</a>
</g>
</g>
<!-- Node30&#45;&gt;Node11 -->
<g id="edge55_Node000030_Node000011" class="edge">
<title>Node30&#45;&gt;Node11</title>
<g id="a_edge55_Node000030_Node000011"><a xlink:title=" ">
<path fill="none" stroke="#63b8ff" d="M1446.55,-111.59C1432.5,-103.44 1411.92,-91.48 1395.59,-82"/>
<polygon fill="#63b8ff" stroke="#63b8ff" points="1397.79,-79.23 1387.38,-77.24 1394.28,-85.29 1397.79,-79.23"/>
</a>
</g>
</g>
<!-- Node30&#45;&gt;Node14 -->
<g id="edge54_Node000030_Node000014" class="edge">
<title>Node30&#45;&gt;Node14</title>
<g id="a_edge54_Node000030_Node000014"><a xlink:title=" ">
<path fill="none" stroke="#63b8ff" d="M1462.75,-111.59C1462.75,-105.01 1462.75,-95.96 1462.75,-87.73"/>
<polygon fill="#63b8ff" stroke="#63b8ff" points="1466.25,-87.81 1462.75,-77.81 1459.25,-87.81 1466.25,-87.81"/>
</a>
</g>
</g>
<!-- Node31&#45;&gt;Node29 -->
<g id="edge57_Node000031_Node000029" class="edge">
<title>Node31&#45;&gt;Node29</title>
<g id="a_edge57_Node000031_Node000029"><a xlink:title=" ">
<path fill="none" stroke="#63b8ff" d="M1501.31,-167.59C1469.7,-158.71 1422.07,-145.31 1387.27,-135.52"/>
<polygon fill="#63b8ff" stroke="#63b8ff" points="1388.49,-132.23 1377.91,-132.89 1386.59,-138.97 1388.49,-132.23"/>
</a>
</g>
</g>
<!-- Node32 -->
<g id="Node000032" class="node">
<title>Node32</title>
<g id="a_Node000032"><a xlink:href="ReactionRoleDTO_8hpp.html" target="_top" xlink:title=" ">
<polygon fill="white" stroke="#666666" points="1655.25,-132 1540.25,-132 1540.25,-112 1655.25,-112 1655.25,-132"/>
<text text-anchor="middle" x="1597.75" y="-118.5" font-family="Helvetica,sans-Serif" font-size="10.00">ReactionRoleDTO.hpp</text>
</a>
</g>
</g>
<!-- Node31&#45;&gt;Node32 -->
<g id="edge58_Node000031_Node000032" class="edge">
<title>Node31&#45;&gt;Node32</title>
<g id="a_edge58_Node000031_Node000032"><a xlink:title=" ">
<path fill="none" stroke="#63b8ff" d="M1545.72,-167.59C1554.67,-159.93 1567.52,-148.91 1578.21,-139.75"/>
<polygon fill="#63b8ff" stroke="#63b8ff" points="1580.44,-142.45 1585.75,-133.28 1575.88,-137.13 1580.44,-142.45"/>
</a>
</g>
</g>
<!-- Node32&#45;&gt;Node11 -->
<g id="edge60_Node000032_Node000011" class="edge">
<title>Node32&#45;&gt;Node11</title>
<g id="a_edge60_Node000032_Node000011"><a xlink:title=" ">
<path fill="none" stroke="#63b8ff" d="M1551.26,-111.57C1513.22,-103.61 1457.8,-91.46 1400.97,-76.44"/>
<polygon fill="#63b8ff" stroke="#63b8ff" points="1402,-73.09 1391.43,-73.89 1400.19,-79.85 1402,-73.09"/>
</a>
</g>
</g>
<!-- Node32&#45;&gt;Node14 -->
<g id="edge59_Node000032_Node000014" class="edge">
<title>Node32&#45;&gt;Node14</title>
<g id="a_edge59_Node000032_Node000014"><a xlink:title=" ">
<path fill="none" stroke="#63b8ff" d="M1574.23,-111.59C1552.88,-103.05 1521.12,-90.35 1496.95,-80.68"/>
<polygon fill="#63b8ff" stroke="#63b8ff" points="1498.44,-77.51 1487.85,-77.04 1495.84,-84.01 1498.44,-77.51"/>
</a>
</g>
</g>
</g>
</svg>
