<?xml version="1.0" encoding="UTF-8" standalone="no"?>
<!DOCTYPE svg PUBLIC "-//W3C//DTD SVG 1.1//EN"
 "http://www.w3.org/Graphics/SVG/1.1/DTD/svg11.dtd">
<!-- Generated by graphviz version 9.0.0 (0)
 -->
<!-- Title: src/bot_library/commands/Commands.cpp Pages: 1 -->
<svg width="1499pt" height="376pt"
 viewBox="0.00 0.00 1498.62 376.00" xmlns="http://www.w3.org/2000/svg" xmlns:xlink="http://www.w3.org/1999/xlink">
<g id="graph0" class="graph" transform="scale(1 1) rotate(0) translate(4 372)">
<title>src/bot_library/commands/Commands.cpp</title>
<!-- Node1 -->
<g id="Node000001" class="node">
<title>Node1</title>
<g id="a_Node000001"><a xlink:title=" ">
<polygon fill="#999999" stroke="#666666" points="1073.25,-368 944.75,-368 944.75,-336 1073.25,-336 1073.25,-368"/>
<text text-anchor="start" x="952.75" y="-354.5" font-family="Helvetica,sans-Serif" font-size="10.00">src/bot_library/commands</text>
<text text-anchor="middle" x="1009" y="-342.5" font-family="Helvetica,sans-Serif" font-size="10.00">/Commands.cpp</text>
</a>
</g>
</g>
<!-- Node2 -->
<g id="Node000002" class="node">
<title>Node2</title>
<g id="a_Node000002"><a xlink:href="Commands_8hpp.html" target="_top" xlink:title=" ">
<polygon fill="white" stroke="#666666" points="996.5,-300 911.5,-300 911.5,-280 996.5,-280 996.5,-300"/>
<text text-anchor="middle" x="954" y="-286.5" font-family="Helvetica,sans-Serif" font-size="10.00">Commands.hpp</text>
</a>
</g>
</g>
<!-- Node1&#45;&gt;Node2 -->
<g id="edge1_Node000001_Node000002" class="edge">
<title>Node1&#45;&gt;Node2</title>
<g id="a_edge1_Node000001_Node000002"><a xlink:title=" ">
<path fill="none" stroke="#63b8ff" d="M994.84,-335.55C987.36,-327.39 978.14,-317.33 970.36,-308.84"/>
<polygon fill="#63b8ff" stroke="#63b8ff" points="972.98,-306.53 963.65,-301.52 967.82,-311.26 972.98,-306.53"/>
</a>
</g>
</g>
<!-- Node28 -->
<g id="Node000028" class="node">
<title>Node28</title>
<g id="a_Node000028"><a xlink:title=" ">
<polygon fill="#e0e0e0" stroke="#999999" points="1490.62,-188 1439.38,-188 1439.38,-168 1490.62,-168 1490.62,-188"/>
<text text-anchor="middle" x="1465" y="-174.5" font-family="Helvetica,sans-Serif" font-size="10.00">memory</text>
</a>
</g>
</g>
<!-- Node1&#45;&gt;Node28 -->
<g id="edge68_Node000001_Node000028" class="edge">
<title>Node1&#45;&gt;Node28</title>
<g id="a_edge68_Node000001_Node000028"><a xlink:title=" ">
<path fill="none" stroke="#63b8ff" d="M1073.73,-347.35C1172.2,-341.03 1354.48,-326.18 1414,-300 1449.21,-284.51 1463.84,-278.91 1480,-244 1486.77,-229.39 1481.76,-211.47 1475.77,-198.15"/>
<polygon fill="#63b8ff" stroke="#63b8ff" points="1479.06,-196.91 1471.42,-189.57 1472.81,-200.07 1479.06,-196.91"/>
</a>
</g>
</g>
<!-- Node29 -->
<g id="Node000029" class="node">
<title>Node29</title>
<g id="a_Node000029"><a xlink:href="ChallengeRoleCommand_8hpp.html" target="_top" xlink:title=" ">
<polygon fill="white" stroke="#666666" points="1404.75,-300 1261.25,-300 1261.25,-280 1404.75,-280 1404.75,-300"/>
<text text-anchor="middle" x="1333" y="-286.5" font-family="Helvetica,sans-Serif" font-size="10.00">ChallengeRoleCommand.hpp</text>
</a>
</g>
</g>
<!-- Node1&#45;&gt;Node29 -->
<g id="edge51_Node000001_Node000029" class="edge">
<title>Node1&#45;&gt;Node29</title>
<g id="a_edge51_Node000001_Node000029"><a xlink:title=" ">
<path fill="none" stroke="#63b8ff" d="M1073.4,-339.07C1130.63,-328.48 1213.78,-313.08 1270.45,-302.58"/>
<polygon fill="#63b8ff" stroke="#63b8ff" points="1271.08,-306.03 1280.28,-300.76 1269.81,-299.14 1271.08,-306.03"/>
</a>
</g>
</g>
<!-- Node32 -->
<g id="Node000032" class="node">
<title>Node32</title>
<g id="a_Node000032"><a xlink:href="HelpCommand_8hpp.html" target="_top" xlink:title=" ">
<polygon fill="white" stroke="#666666" points="1115,-300 1015,-300 1015,-280 1115,-280 1115,-300"/>
<text text-anchor="middle" x="1065" y="-286.5" font-family="Helvetica,sans-Serif" font-size="10.00">HelpCommand.hpp</text>
</a>
</g>
</g>
<!-- Node1&#45;&gt;Node32 -->
<g id="edge56_Node000001_Node000032" class="edge">
<title>Node1&#45;&gt;Node32</title>
<g id="a_edge56_Node000001_Node000032"><a xlink:title=" ">
<path fill="none" stroke="#63b8ff" d="M1023.42,-335.55C1031.12,-327.3 1040.62,-317.12 1048.6,-308.57"/>
<polygon fill="#63b8ff" stroke="#63b8ff" points="1050.92,-311.21 1055.19,-301.51 1045.8,-306.44 1050.92,-311.21"/>
</a>
</g>
</g>
<!-- Node33 -->
<g id="Node000033" class="node">
<title>Node33</title>
<g id="a_Node000033"><a xlink:href="PongCommand_8hpp.html" target="_top" xlink:title=" ">
<polygon fill="white" stroke="#666666" points="1235.12,-300 1132.88,-300 1132.88,-280 1235.12,-280 1235.12,-300"/>
<text text-anchor="middle" x="1184" y="-286.5" font-family="Helvetica,sans-Serif" font-size="10.00">PongCommand.hpp</text>
</a>
</g>
</g>
<!-- Node1&#45;&gt;Node33 -->
<g id="edge58_Node000001_Node000033" class="edge">
<title>Node1&#45;&gt;Node33</title>
<g id="a_edge58_Node000001_Node000033"><a xlink:title=" ">
<path fill="none" stroke="#63b8ff" d="M1054.07,-335.55C1082.46,-325.81 1118.72,-313.38 1145.72,-304.13"/>
<polygon fill="#63b8ff" stroke="#63b8ff" points="1146.55,-307.54 1154.87,-300.99 1144.28,-300.92 1146.55,-307.54"/>
</a>
</g>
</g>
<!-- Node34 -->
<g id="Node000034" class="node">
<title>Node34</title>
<g id="a_Node000034"><a xlink:href="ReactionRoles_8hpp.html" target="_top" xlink:title=" ">
<polygon fill="white" stroke="#666666" points="802.62,-300 703.38,-300 703.38,-280 802.62,-280 802.62,-300"/>
<text text-anchor="middle" x="753" y="-286.5" font-family="Helvetica,sans-Serif" font-size="10.00">ReactionRoles.hpp</text>
</a>
</g>
</g>
<!-- Node1&#45;&gt;Node34 -->
<g id="edge60_Node000001_Node000034" class="edge">
<title>Node1&#45;&gt;Node34</title>
<g id="a_edge60_Node000001_Node000034"><a xlink:title=" ">
<path fill="none" stroke="#63b8ff" d="M944.4,-335.86C901.03,-325.7 844.67,-312.49 804.36,-303.04"/>
<polygon fill="#63b8ff" stroke="#63b8ff" points="805.19,-299.64 794.66,-300.76 803.6,-306.45 805.19,-299.64"/>
</a>
</g>
</g>
<!-- Node35 -->
<g id="Node000035" class="node">
<title>Node35</title>
<g id="a_Node000035"><a xlink:href="SetChannelCommand_8hpp.html" target="_top" xlink:title=" ">
<polygon fill="white" stroke="#666666" points="667.38,-300 536.62,-300 536.62,-280 667.38,-280 667.38,-300"/>
<text text-anchor="middle" x="602" y="-286.5" font-family="Helvetica,sans-Serif" font-size="10.00">SetChannelCommand.hpp</text>
</a>
</g>
</g>
<!-- Node1&#45;&gt;Node35 -->
<g id="edge62_Node000001_Node000035" class="edge">
<title>Node1&#45;&gt;Node35</title>
<g id="a_edge62_Node000001_Node000035"><a xlink:title=" ">
<path fill="none" stroke="#63b8ff" d="M944.51,-341.49C871.87,-330.78 753.97,-313.4 677.21,-302.09"/>
<polygon fill="#63b8ff" stroke="#63b8ff" points="678.09,-298.68 667.69,-300.68 677.07,-305.6 678.09,-298.68"/>
</a>
</g>
</g>
<!-- Node37 -->
<g id="Node000037" class="node">
<title>Node37</title>
<g id="a_Node000037"><a xlink:href="CleanUp_8hpp.html" target="_top" xlink:title=" ">
<polygon fill="white" stroke="#666666" points="893.5,-300 820.5,-300 820.5,-280 893.5,-280 893.5,-300"/>
<text text-anchor="middle" x="857" y="-286.5" font-family="Helvetica,sans-Serif" font-size="10.00">CleanUp.hpp</text>
</a>
</g>
</g>
<!-- Node1&#45;&gt;Node37 -->
<g id="edge66_Node000001_Node000037" class="edge">
<title>Node1&#45;&gt;Node37</title>
<g id="a_edge66_Node000001_Node000037"><a xlink:title=" ">
<path fill="none" stroke="#63b8ff" d="M969.86,-335.55C945.56,-325.96 914.62,-313.75 891.29,-304.54"/>
<polygon fill="#63b8ff" stroke="#63b8ff" points="892.83,-301.38 882.24,-300.96 890.26,-307.89 892.83,-301.38"/>
</a>
</g>
</g>
<!-- Node3 -->
<g id="Node000003" class="node">
<title>Node3</title>
<g id="a_Node000003"><a xlink:href="Bot_8hpp.html" target="_top" xlink:title=" ">
<polygon fill="white" stroke="#666666" points="962.88,-244 913.12,-244 913.12,-224 962.88,-224 962.88,-244"/>
<text text-anchor="middle" x="938" y="-230.5" font-family="Helvetica,sans-Serif" font-size="10.00">Bot.hpp</text>
</a>
</g>
</g>
<!-- Node2&#45;&gt;Node3 -->
<g id="edge2_Node000002_Node000003" class="edge">
<title>Node2&#45;&gt;Node3</title>
<g id="a_edge2_Node000002_Node000003"><a xlink:title=" ">
<path fill="none" stroke="#63b8ff" d="M951.21,-279.59C949.22,-272.86 946.45,-263.53 943.97,-255.15"/>
<polygon fill="#63b8ff" stroke="#63b8ff" points="947.38,-254.34 941.19,-245.75 940.67,-256.33 947.38,-254.34"/>
</a>
</g>
</g>
<!-- Node4 -->
<g id="Node000004" class="node">
<title>Node4</title>
<g id="a_Node000004"><a xlink:href="Core_8hpp.html" target="_top" xlink:title=" ">
<polygon fill="white" stroke="#666666" points="857.88,-188 802.12,-188 802.12,-168 857.88,-168 857.88,-188"/>
<text text-anchor="middle" x="830" y="-174.5" font-family="Helvetica,sans-Serif" font-size="10.00">Core.hpp</text>
</a>
</g>
</g>
<!-- Node3&#45;&gt;Node4 -->
<g id="edge3_Node000003_Node000004" class="edge">
<title>Node3&#45;&gt;Node4</title>
<g id="a_edge3_Node000003_Node000004"><a xlink:title=" ">
<path fill="none" stroke="#63b8ff" d="M919.19,-223.59C902.64,-215.32 878.29,-203.14 859.21,-193.6"/>
<polygon fill="#63b8ff" stroke="#63b8ff" points="860.82,-190.5 850.31,-189.16 857.69,-196.76 860.82,-190.5"/>
</a>
</g>
</g>
<!-- Node13 -->
<g id="Node000013" class="node">
<title>Node13</title>
<g id="a_Node000013"><a xlink:title=" ">
<polygon fill="#e0e0e0" stroke="#999999" points="1481,-76 1441,-76 1441,-56 1481,-56 1481,-76"/>
<text text-anchor="middle" x="1461" y="-62.5" font-family="Helvetica,sans-Serif" font-size="10.00">string</text>
</a>
</g>
</g>
<!-- Node3&#45;&gt;Node13 -->
<g id="edge49_Node000003_Node000013" class="edge">
<title>Node3&#45;&gt;Node13</title>
<g id="a_edge49_Node000003_Node000013"><a xlink:title=" ">
<path fill="none" stroke="#63b8ff" d="M963.3,-228.49C1026.41,-216.82 1195.35,-182.92 1329,-132 1349.27,-124.28 1400.72,-98.2 1433.08,-81.52"/>
<polygon fill="#63b8ff" stroke="#63b8ff" points="1434.62,-84.66 1441.9,-76.96 1431.41,-78.44 1434.62,-84.66"/>
</a>
</g>
</g>
<!-- Node15 -->
<g id="Node000015" class="node">
<title>Node15</title>
<g id="a_Node000015"><a xlink:title=" ">
<polygon fill="#e0e0e0" stroke="#999999" points="975.5,-76 932.5,-76 932.5,-56 975.5,-56 975.5,-76"/>
<text text-anchor="middle" x="954" y="-62.5" font-family="Helvetica,sans-Serif" font-size="10.00">vector</text>
</a>
</g>
</g>
<!-- Node3&#45;&gt;Node15 -->
<g id="edge50_Node000003_Node000015" class="edge">
<title>Node3&#45;&gt;Node15</title>
<g id="a_edge50_Node000003_Node000015"><a xlink:title=" ">
<path fill="none" stroke="#63b8ff" d="M963.15,-230.33C1011.61,-223.67 1117.09,-201.51 1162,-132 1221.73,-39.55 1285.22,-149.22 986.66,-76.49"/>
<polygon fill="#63b8ff" stroke="#63b8ff" points="987.91,-73.19 977.36,-74.18 986.23,-79.98 987.91,-73.19"/>
</a>
</g>
</g>
<!-- Node17 -->
<g id="Node000017" class="node">
<title>Node17</title>
<g id="a_Node000017"><a xlink:href="IButtonCommand_8hpp.html" target="_top" xlink:title=" ">
<polygon fill="white" stroke="#666666" points="594.62,-132 483.38,-132 483.38,-112 594.62,-112 594.62,-132"/>
<text text-anchor="middle" x="539" y="-118.5" font-family="Helvetica,sans-Serif" font-size="10.00">IButtonCommand.hpp</text>
</a>
</g>
</g>
<!-- Node3&#45;&gt;Node17 -->
<g id="edge38_Node000003_Node000017" class="edge">
<title>Node3&#45;&gt;Node17</title>
<g id="a_edge38_Node000003_Node000017"><a xlink:title=" ">
<path fill="none" stroke="#63b8ff" d="M912.76,-226.28C883.56,-218.25 834.19,-203.89 793,-188 773.34,-180.41 769.99,-174.68 750,-168 702.98,-152.28 648.18,-140.78 606.21,-133.35"/>
<polygon fill="#63b8ff" stroke="#63b8ff" points="606.94,-129.92 596.49,-131.66 605.75,-136.82 606.94,-129.92"/>
</a>
</g>
</g>
<!-- Node20 -->
<g id="Node000020" class="node">
<title>Node20</title>
<g id="a_Node000020"><a xlink:href="IFormCommand_8hpp.html" target="_top" xlink:title=" ">
<polygon fill="white" stroke="#666666" points="324.62,-132 219.38,-132 219.38,-112 324.62,-112 324.62,-132"/>
<text text-anchor="middle" x="272" y="-118.5" font-family="Helvetica,sans-Serif" font-size="10.00">IFormCommand.hpp</text>
</a>
</g>
</g>
<!-- Node3&#45;&gt;Node20 -->
<g id="edge39_Node000003_Node000020" class="edge">
<title>Node3&#45;&gt;Node20</title>
<g id="a_edge39_Node000003_Node000020"><a xlink:title=" ">
<path fill="none" stroke="#63b8ff" d="M912.96,-230.4C870.6,-225.48 782.52,-212.98 712,-188 694.01,-181.63 692.26,-173.55 674,-168 532.02,-124.86 486.88,-149.69 336.12,-132.18"/>
<polygon fill="#63b8ff" stroke="#63b8ff" points="336.93,-128.75 326.58,-131.02 336.09,-135.7 336.93,-128.75"/>
</a>
</g>
</g>
<!-- Node21 -->
<g id="Node000021" class="node">
<title>Node21</title>
<g id="a_Node000021"><a xlink:href="IGlobalSlashCommand_8hpp.html" target="_top" xlink:title=" ">
<polygon fill="white" stroke="#666666" points="1152.62,-132 1017.38,-132 1017.38,-112 1152.62,-112 1152.62,-132"/>
<text text-anchor="middle" x="1085" y="-118.5" font-family="Helvetica,sans-Serif" font-size="10.00">IGlobalSlashCommand.hpp</text>
</a>
</g>
</g>
<!-- Node3&#45;&gt;Node21 -->
<g id="edge40_Node000003_Node000021" class="edge">
<title>Node3&#45;&gt;Node21</title>
<g id="a_edge40_Node000003_Node000021"><a xlink:title=" ">
<path fill="none" stroke="#63b8ff" d="M950.53,-223.62C975.59,-204.87 1032.15,-162.55 1063.34,-139.21"/>
<polygon fill="#63b8ff" stroke="#63b8ff" points="1065.38,-142.06 1071.29,-133.26 1061.18,-136.45 1065.38,-142.06"/>
</a>
</g>
</g>
<!-- Node23 -->
<g id="Node000023" class="node">
<title>Node23</title>
<g id="a_Node000023"><a xlink:href="IMemberCommand_8hpp.html" target="_top" xlink:title=" ">
<polygon fill="white" stroke="#666666" points="118,-132 0,-132 0,-112 118,-112 118,-132"/>
<text text-anchor="middle" x="59" y="-118.5" font-family="Helvetica,sans-Serif" font-size="10.00">IMemberCommand.hpp</text>
</a>
</g>
</g>
<!-- Node3&#45;&gt;Node23 -->
<g id="edge41_Node000003_Node000023" class="edge">
<title>Node3&#45;&gt;Node23</title>
<g id="a_edge41_Node000003_Node000023"><a xlink:title=" ">
<path fill="none" stroke="#63b8ff" d="M912.69,-232.09C859.95,-229.57 735,-220.39 636,-188 617.86,-182.07 616.34,-173.28 598,-168 399.8,-110.93 337.98,-152.27 129.64,-132.19"/>
<polygon fill="#63b8ff" stroke="#63b8ff" points="130.12,-128.72 119.82,-131.2 129.42,-135.68 130.12,-128.72"/>
</a>
</g>
</g>
<!-- Node24 -->
<g id="Node000024" class="node">
<title>Node24</title>
<g id="a_Node000024"><a xlink:href="IMessageCommand_8hpp.html" target="_top" xlink:title=" ">
<polygon fill="white" stroke="#666666" points="465.25,-132 342.75,-132 342.75,-112 465.25,-112 465.25,-132"/>
<text text-anchor="middle" x="404" y="-118.5" font-family="Helvetica,sans-Serif" font-size="10.00">IMessageCommand.hpp</text>
</a>
</g>
</g>
<!-- Node3&#45;&gt;Node24 -->
<g id="edge42_Node000003_Node000024" class="edge">
<title>Node3&#45;&gt;Node24</title>
<g id="a_edge42_Node000003_Node000024"><a xlink:title=" ">
<path fill="none" stroke="#63b8ff" d="M912.77,-229.03C876.13,-222.8 806.39,-209.21 750,-188 732.14,-181.28 730.15,-173.91 712,-168 700.89,-164.38 564.26,-145.12 476.75,-133"/>
<polygon fill="#63b8ff" stroke="#63b8ff" points="477.43,-129.56 467.04,-131.66 476.47,-136.49 477.43,-129.56"/>
</a>
</g>
</g>
<!-- Node25 -->
<g id="Node000025" class="node">
<title>Node25</title>
<g id="a_Node000025"><a xlink:href="IReactionCommand_8hpp.html" target="_top" xlink:title=" ">
<polygon fill="white" stroke="#666666" points="998.88,-132 877.12,-132 877.12,-112 998.88,-112 998.88,-132"/>
<text text-anchor="middle" x="938" y="-118.5" font-family="Helvetica,sans-Serif" font-size="10.00">IReactionCommand.hpp</text>
</a>
</g>
</g>
<!-- Node3&#45;&gt;Node25 -->
<g id="edge43_Node000003_Node000025" class="edge">
<title>Node3&#45;&gt;Node25</title>
<g id="a_edge43_Node000003_Node000025"><a xlink:title=" ">
<path fill="none" stroke="#63b8ff" d="M938,-223.62C938,-206.01 938,-167.59 938,-143.65"/>
<polygon fill="#63b8ff" stroke="#63b8ff" points="941.5,-143.87 938,-133.87 934.5,-143.87 941.5,-143.87"/>
</a>
</g>
</g>
<!-- Node26 -->
<g id="Node000026" class="node">
<title>Node26</title>
<g id="a_Node000026"><a xlink:href="IReady_8hpp.html" target="_top" xlink:title=" ">
<polygon fill="white" stroke="#666666" points="201.75,-132 136.25,-132 136.25,-112 201.75,-112 201.75,-132"/>
<text text-anchor="middle" x="169" y="-118.5" font-family="Helvetica,sans-Serif" font-size="10.00">IReady.hpp</text>
</a>
</g>
</g>
<!-- Node3&#45;&gt;Node26 -->
<g id="edge44_Node000003_Node000026" class="edge">
<title>Node3&#45;&gt;Node26</title>
<g id="a_edge44_Node000003_Node000026"><a xlink:title=" ">
<path fill="none" stroke="#63b8ff" d="M912.98,-231.37C865.33,-227.69 758.77,-216.72 674,-188 655.92,-181.88 654.32,-173.35 636,-168 457.19,-115.73 400.1,-158.68 213.36,-132.31"/>
<polygon fill="#63b8ff" stroke="#63b8ff" points="213.95,-128.85 203.55,-130.87 212.93,-135.78 213.95,-128.85"/>
</a>
</g>
</g>
<!-- Node27 -->
<g id="Node000027" class="node">
<title>Node27</title>
<g id="a_Node000027"><a xlink:title=" ">
<polygon fill="#e0e0e0" stroke="#999999" points="1361.38,-188 1326.62,-188 1326.62,-168 1361.38,-168 1361.38,-188"/>
<text text-anchor="middle" x="1344" y="-174.5" font-family="Helvetica,sans-Serif" font-size="10.00">map</text>
</a>
</g>
</g>
<!-- Node3&#45;&gt;Node27 -->
<g id="edge47_Node000003_Node000027" class="edge">
<title>Node3&#45;&gt;Node27</title>
<g id="a_edge47_Node000003_Node000027"><a xlink:title=" ">
<path fill="none" stroke="#63b8ff" d="M963.24,-231.4C1023.98,-227.24 1182.89,-214.51 1313,-188 1313.82,-187.83 1314.66,-187.65 1315.5,-187.46"/>
<polygon fill="#63b8ff" stroke="#63b8ff" points="1316.15,-190.91 1324.95,-185.02 1314.4,-184.13 1316.15,-190.91"/>
</a>
</g>
</g>
<!-- Node3&#45;&gt;Node28 -->
<g id="edge48_Node000003_Node000028" class="edge">
<title>Node3&#45;&gt;Node28</title>
<g id="a_edge48_Node000003_Node000028"><a xlink:title=" ">
<path fill="none" stroke="#63b8ff" d="M963.06,-230.43C1048.18,-221.71 1326.45,-193.2 1427.72,-182.82"/>
<polygon fill="#63b8ff" stroke="#63b8ff" points="1428.07,-186.3 1437.66,-181.8 1427.35,-179.34 1428.07,-186.3"/>
</a>
</g>
</g>
<!-- Node5 -->
<g id="Node000005" class="node">
<title>Node5</title>
<g id="a_Node000005"><a xlink:title=" ">
<polygon fill="#e0e0e0" stroke="#999999" points="859.38,-132 800.62,-132 800.62,-112 859.38,-112 859.38,-132"/>
<text text-anchor="middle" x="830" y="-118.5" font-family="Helvetica,sans-Serif" font-size="10.00">dpp/dpp.h</text>
</a>
</g>
</g>
<!-- Node4&#45;&gt;Node5 -->
<g id="edge4_Node000004_Node000005" class="edge">
<title>Node4&#45;&gt;Node5</title>
<g id="a_edge4_Node000004_Node000005"><a xlink:title=" ">
<path fill="none" stroke="#63b8ff" d="M830,-167.59C830,-161.01 830,-151.96 830,-143.73"/>
<polygon fill="#63b8ff" stroke="#63b8ff" points="833.5,-143.81 830,-133.81 826.5,-143.81 833.5,-143.81"/>
</a>
</g>
</g>
<!-- Node6 -->
<g id="Node000006" class="node">
<title>Node6</title>
<g id="a_Node000006"><a xlink:title=" ">
<polygon fill="#e0e0e0" stroke="#999999" points="703.5,-132 612.5,-132 612.5,-112 703.5,-112 703.5,-132"/>
<text text-anchor="middle" x="658" y="-118.5" font-family="Helvetica,sans-Serif" font-size="10.00">dpp/misc&#45;enum.h</text>
</a>
</g>
</g>
<!-- Node4&#45;&gt;Node6 -->
<g id="edge5_Node000004_Node000006" class="edge">
<title>Node4&#45;&gt;Node6</title>
<g id="a_edge5_Node000004_Node000006"><a xlink:title=" ">
<path fill="none" stroke="#63b8ff" d="M801.98,-168.2C773.97,-159.41 730.59,-145.79 698.76,-135.8"/>
<polygon fill="#63b8ff" stroke="#63b8ff" points="700.06,-132.54 689.47,-132.88 697.97,-139.22 700.06,-132.54"/>
</a>
</g>
</g>
<!-- Node7 -->
<g id="Node000007" class="node">
<title>Node7</title>
<g id="a_Node000007"><a xlink:title=" ">
<polygon fill="#e0e0e0" stroke="#999999" points="782.12,-132 721.88,-132 721.88,-112 782.12,-112 782.12,-132"/>
<text text-anchor="middle" x="752" y="-118.5" font-family="Helvetica,sans-Serif" font-size="10.00">fmt/core.h</text>
</a>
</g>
</g>
<!-- Node4&#45;&gt;Node7 -->
<g id="edge6_Node000004_Node000007" class="edge">
<title>Node4&#45;&gt;Node7</title>
<g id="a_edge6_Node000004_Node000007"><a xlink:title=" ">
<path fill="none" stroke="#63b8ff" d="M816.41,-167.59C804.96,-159.67 788.34,-148.16 774.84,-138.82"/>
<polygon fill="#63b8ff" stroke="#63b8ff" points="777.15,-136.16 766.94,-133.34 773.17,-141.91 777.15,-136.16"/>
</a>
</g>
</g>
<!-- Node8 -->
<g id="Node000008" class="node">
<title>Node8</title>
<g id="a_Node000008"><a xlink:href="Database_8hpp.html" target="_top" xlink:title=" ">
<polygon fill="white" stroke="#666666" points="1285.38,-132 1208.62,-132 1208.62,-112 1285.38,-112 1285.38,-132"/>
<text text-anchor="middle" x="1247" y="-118.5" font-family="Helvetica,sans-Serif" font-size="10.00">Database.hpp</text>
</a>
</g>
</g>
<!-- Node4&#45;&gt;Node8 -->
<g id="edge7_Node000004_Node000008" class="edge">
<title>Node4&#45;&gt;Node8</title>
<g id="a_edge7_Node000004_Node000008"><a xlink:title=" ">
<path fill="none" stroke="#63b8ff" d="M858.33,-173.33C928.07,-164.3 1108.74,-140.9 1197,-129.47"/>
<polygon fill="#63b8ff" stroke="#63b8ff" points="1197.34,-132.96 1206.81,-128.2 1196.45,-126.02 1197.34,-132.96"/>
</a>
</g>
</g>
<!-- Node4&#45;&gt;Node13 -->
<g id="edge37_Node000004_Node000013" class="edge">
<title>Node4&#45;&gt;Node13</title>
<g id="a_edge37_Node000004_Node000013"><a xlink:title=" ">
<path fill="none" stroke="#63b8ff" d="M858.31,-177.54C931.7,-178.25 1133.53,-175.72 1294,-132 1314.34,-126.46 1317.52,-120.05 1337,-112 1368.2,-99.11 1404.59,-86.14 1429.84,-77.46"/>
<polygon fill="#63b8ff" stroke="#63b8ff" points="1430.84,-80.82 1439.17,-74.28 1428.58,-74.2 1430.84,-80.82"/>
</a>
</g>
</g>
<!-- Node4&#45;&gt;Node17 -->
<g id="edge17_Node000004_Node000017" class="edge">
<title>Node4&#45;&gt;Node17</title>
<g id="a_edge17_Node000004_Node000017"><a xlink:title=" ">
<path fill="none" stroke="#63b8ff" d="M802.01,-170.87C797.34,-169.89 792.54,-168.9 788,-168 726.3,-155.82 655.73,-143.19 605.51,-134.42"/>
<polygon fill="#63b8ff" stroke="#63b8ff" points="606.42,-131.02 595.97,-132.76 605.22,-137.92 606.42,-131.02"/>
</a>
</g>
</g>
<!-- Node4&#45;&gt;Node20 -->
<g id="edge20_Node000004_Node000020" class="edge">
<title>Node4&#45;&gt;Node20</title>
<g id="a_edge20_Node000004_Node000020"><a xlink:title=" ">
<path fill="none" stroke="#63b8ff" d="M801.75,-174.64C713.95,-167.27 445.67,-144.51 336.37,-132.2"/>
<polygon fill="#63b8ff" stroke="#63b8ff" points="336.91,-128.74 326.58,-131.07 336.11,-135.69 336.91,-128.74"/>
</a>
</g>
</g>
<!-- Node4&#45;&gt;Node21 -->
<g id="edge23_Node000004_Node000021" class="edge">
<title>Node4&#45;&gt;Node21</title>
<g id="a_edge23_Node000004_Node000021"><a xlink:title=" ">
<path fill="none" stroke="#63b8ff" d="M858.26,-171.01C899.34,-162.32 976.37,-146 1029.15,-134.83"/>
<polygon fill="#63b8ff" stroke="#63b8ff" points="1029.82,-138.26 1038.87,-132.77 1028.37,-131.42 1029.82,-138.26"/>
</a>
</g>
</g>
<!-- Node4&#45;&gt;Node23 -->
<g id="edge28_Node000004_Node000023" class="edge">
<title>Node4&#45;&gt;Node23</title>
<g id="a_edge28_Node000004_Node000023"><a xlink:title=" ">
<path fill="none" stroke="#63b8ff" d="M801.71,-175.45C690.58,-169.3 282.94,-146.39 129.76,-132.18"/>
<polygon fill="#63b8ff" stroke="#63b8ff" points="130.1,-128.7 119.82,-131.23 129.44,-135.67 130.1,-128.7"/>
</a>
</g>
</g>
<!-- Node4&#45;&gt;Node24 -->
<g id="edge31_Node000004_Node000024" class="edge">
<title>Node4&#45;&gt;Node24</title>
<g id="a_edge31_Node000004_Node000024"><a xlink:title=" ">
<path fill="none" stroke="#63b8ff" d="M801.85,-173.46C743.37,-166.11 604.23,-148.59 476.59,-132.33"/>
<polygon fill="#63b8ff" stroke="#63b8ff" points="477.32,-128.89 466.96,-131.1 476.44,-135.84 477.32,-128.89"/>
</a>
</g>
</g>
<!-- Node4&#45;&gt;Node25 -->
<g id="edge34_Node000004_Node000025" class="edge">
<title>Node4&#45;&gt;Node25</title>
<g id="a_edge34_Node000004_Node000025"><a xlink:title=" ">
<path fill="none" stroke="#63b8ff" d="M848.81,-167.59C865.36,-159.32 889.71,-147.14 908.79,-137.6"/>
<polygon fill="#63b8ff" stroke="#63b8ff" points="910.31,-140.76 917.69,-133.16 907.18,-134.5 910.31,-140.76"/>
</a>
</g>
</g>
<!-- Node9 -->
<g id="Node000009" class="node">
<title>Node9</title>
<g id="a_Node000009"><a xlink:title=" ">
<polygon fill="#e0e0e0" stroke="#999999" points="1351.12,-76 1302.88,-76 1302.88,-56 1351.12,-56 1351.12,-76"/>
<text text-anchor="middle" x="1327" y="-62.5" font-family="Helvetica,sans-Serif" font-size="10.00">cstddef</text>
</a>
</g>
</g>
<!-- Node8&#45;&gt;Node9 -->
<g id="edge8_Node000008_Node000009" class="edge">
<title>Node8&#45;&gt;Node9</title>
<g id="a_edge8_Node000008_Node000009"><a xlink:title=" ">
<path fill="none" stroke="#63b8ff" d="M1260.93,-111.59C1272.68,-103.67 1289.73,-92.16 1303.57,-82.82"/>
<polygon fill="#63b8ff" stroke="#63b8ff" points="1305.37,-85.82 1311.7,-77.33 1301.46,-80.02 1305.37,-85.82"/>
</a>
</g>
</g>
<!-- Node10 -->
<g id="Node000010" class="node">
<title>Node10</title>
<g id="a_Node000010"><a xlink:title=" ">
<polygon fill="#e0e0e0" stroke="#999999" points="1422.75,-76 1369.25,-76 1369.25,-56 1422.75,-56 1422.75,-76"/>
<text text-anchor="middle" x="1396" y="-62.5" font-family="Helvetica,sans-Serif" font-size="10.00">iostream</text>
</a>
</g>
</g>
<!-- Node8&#45;&gt;Node10 -->
<g id="edge9_Node000008_Node000010" class="edge">
<title>Node8&#45;&gt;Node10</title>
<g id="a_edge9_Node000008_Node000010"><a xlink:title=" ">
<path fill="none" stroke="#63b8ff" d="M1272.95,-111.59C1296.84,-102.94 1332.53,-90 1359.33,-80.29"/>
<polygon fill="#63b8ff" stroke="#63b8ff" points="1360.21,-83.69 1368.42,-77 1357.83,-77.11 1360.21,-83.69"/>
</a>
</g>
</g>
<!-- Node11 -->
<g id="Node000011" class="node">
<title>Node11</title>
<g id="a_Node000011"><a xlink:title=" ">
<polygon fill="#e0e0e0" stroke="#999999" points="1042.88,-76 993.12,-76 993.12,-56 1042.88,-56 1042.88,-76"/>
<text text-anchor="middle" x="1018" y="-62.5" font-family="Helvetica,sans-Serif" font-size="10.00">optional</text>
</a>
</g>
</g>
<!-- Node8&#45;&gt;Node11 -->
<g id="edge10_Node000008_Node000011" class="edge">
<title>Node8&#45;&gt;Node11</title>
<g id="a_edge10_Node000008_Node000011"><a xlink:title=" ">
<path fill="none" stroke="#63b8ff" d="M1208.43,-112.48C1171.34,-104.21 1113.42,-91.06 1054.28,-76.51"/>
<polygon fill="#63b8ff" stroke="#63b8ff" points="1055.25,-73.14 1044.7,-74.14 1053.56,-79.94 1055.25,-73.14"/>
</a>
</g>
</g>
<!-- Node12 -->
<g id="Node000012" class="node">
<title>Node12</title>
<g id="a_Node000012"><a xlink:title=" ">
<polygon fill="#e0e0e0" stroke="#999999" points="1225.5,-20 1164.5,-20 1164.5,0 1225.5,0 1225.5,-20"/>
<text text-anchor="middle" x="1195" y="-6.5" font-family="Helvetica,sans-Serif" font-size="10.00">pqxx/pqxx</text>
</a>
</g>
</g>
<!-- Node8&#45;&gt;Node12 -->
<g id="edge11_Node000008_Node000012" class="edge">
<title>Node8&#45;&gt;Node12</title>
<g id="a_edge11_Node000008_Node000012"><a xlink:title=" ">
<path fill="none" stroke="#63b8ff" d="M1251.54,-111.62C1257.22,-98.46 1265.14,-74.1 1256,-56 1249.62,-43.37 1237.84,-33.41 1226.32,-26.11"/>
<polygon fill="#63b8ff" stroke="#63b8ff" points="1228.13,-23.11 1217.72,-21.13 1224.62,-29.17 1228.13,-23.11"/>
</a>
</g>
</g>
<!-- Node8&#45;&gt;Node13 -->
<g id="edge12_Node000008_Node000013" class="edge">
<title>Node8&#45;&gt;Node13</title>
<g id="a_edge12_Node000008_Node000013"><a xlink:title=" ">
<path fill="none" stroke="#63b8ff" d="M1285.8,-112.3C1321.01,-104.25 1374.6,-91.58 1429.72,-76.5"/>
<polygon fill="#63b8ff" stroke="#63b8ff" points="1430.6,-79.89 1439.31,-73.86 1428.74,-73.15 1430.6,-79.89"/>
</a>
</g>
</g>
<!-- Node14 -->
<g id="Node000014" class="node">
<title>Node14</title>
<g id="a_Node000014"><a xlink:title=" ">
<polygon fill="#e0e0e0" stroke="#999999" points="1247,-76 1189,-76 1189,-56 1247,-56 1247,-76"/>
<text text-anchor="middle" x="1218" y="-62.5" font-family="Helvetica,sans-Serif" font-size="10.00">typeindex</text>
</a>
</g>
</g>
<!-- Node8&#45;&gt;Node14 -->
<g id="edge13_Node000008_Node000014" class="edge">
<title>Node8&#45;&gt;Node14</title>
<g id="a_edge13_Node000008_Node000014"><a xlink:title=" ">
<path fill="none" stroke="#63b8ff" d="M1241.95,-111.59C1238.21,-104.63 1232.98,-94.89 1228.36,-86.29"/>
<polygon fill="#63b8ff" stroke="#63b8ff" points="1231.52,-84.79 1223.71,-77.63 1225.36,-88.1 1231.52,-84.79"/>
</a>
</g>
</g>
<!-- Node8&#45;&gt;Node15 -->
<g id="edge14_Node000008_Node000015" class="edge">
<title>Node8&#45;&gt;Node15</title>
<g id="a_edge14_Node000008_Node000015"><a xlink:title=" ">
<path fill="none" stroke="#63b8ff" d="M1208.38,-114.31C1203.87,-113.53 1199.33,-112.74 1195,-112 1104.81,-96.5 1078.6,-97.6 987.06,-76.51"/>
<polygon fill="#63b8ff" stroke="#63b8ff" points="987.88,-73.11 977.35,-74.24 986.29,-79.92 987.88,-73.11"/>
</a>
</g>
</g>
<!-- Node16 -->
<g id="Node000016" class="node">
<title>Node16</title>
<g id="a_Node000016"><a xlink:href="RowDTOAdapter_8hpp.html" target="_top" xlink:title=" ">
<polygon fill="white" stroke="#666666" points="1170.88,-76 1061.12,-76 1061.12,-56 1170.88,-56 1170.88,-76"/>
<text text-anchor="middle" x="1116" y="-62.5" font-family="Helvetica,sans-Serif" font-size="10.00">RowDTOAdapter.hpp</text>
</a>
</g>
</g>
<!-- Node8&#45;&gt;Node16 -->
<g id="edge15_Node000008_Node000016" class="edge">
<title>Node8&#45;&gt;Node16</title>
<g id="a_edge15_Node000008_Node000016"><a xlink:title=" ">
<path fill="none" stroke="#63b8ff" d="M1224.18,-111.59C1203.55,-103.09 1172.92,-90.46 1149.51,-80.81"/>
<polygon fill="#63b8ff" stroke="#63b8ff" points="1150.98,-77.63 1140.4,-77.06 1148.31,-84.1 1150.98,-77.63"/>
</a>
</g>
</g>
<!-- Node16&#45;&gt;Node12 -->
<g id="edge16_Node000016_Node000012" class="edge">
<title>Node16&#45;&gt;Node12</title>
<g id="a_edge16_Node000016_Node000012"><a xlink:title=" ">
<path fill="none" stroke="#63b8ff" d="M1129.76,-55.59C1141.36,-47.67 1158.2,-36.16 1171.86,-26.82"/>
<polygon fill="#63b8ff" stroke="#63b8ff" points="1173.6,-29.87 1179.88,-21.33 1169.65,-24.09 1173.6,-29.87"/>
</a>
</g>
</g>
<!-- Node18 -->
<g id="Node000018" class="node">
<title>Node18</title>
<g id="a_Node000018"><a xlink:title=" ">
<polygon fill="#e0e0e0" stroke="#999999" points="391.12,-76 318.88,-76 318.88,-56 391.12,-56 391.12,-76"/>
<text text-anchor="middle" x="355" y="-62.5" font-family="Helvetica,sans-Serif" font-size="10.00">dpp/cluster.h</text>
</a>
</g>
</g>
<!-- Node17&#45;&gt;Node18 -->
<g id="edge18_Node000017_Node000018" class="edge">
<title>Node17&#45;&gt;Node18</title>
<g id="a_edge18_Node000017_Node000018"><a xlink:title=" ">
<path fill="none" stroke="#63b8ff" d="M506.95,-111.59C476.79,-102.74 431.41,-89.43 398.1,-79.65"/>
<polygon fill="#63b8ff" stroke="#63b8ff" points="399.33,-76.36 388.75,-76.91 397.36,-83.08 399.33,-76.36"/>
</a>
</g>
</g>
<!-- Node19 -->
<g id="Node000019" class="node">
<title>Node19</title>
<g id="a_Node000019"><a xlink:title=" ">
<polygon fill="#e0e0e0" stroke="#999999" points="497,-76 409,-76 409,-56 497,-56 497,-76"/>
<text text-anchor="middle" x="453" y="-62.5" font-family="Helvetica,sans-Serif" font-size="10.00">dpp/dispatcher.h</text>
</a>
</g>
</g>
<!-- Node17&#45;&gt;Node19 -->
<g id="edge19_Node000017_Node000019" class="edge">
<title>Node17&#45;&gt;Node19</title>
<g id="a_edge19_Node000017_Node000019"><a xlink:title=" ">
<path fill="none" stroke="#63b8ff" d="M524.02,-111.59C511.27,-103.59 492.71,-91.93 477.76,-82.54"/>
<polygon fill="#63b8ff" stroke="#63b8ff" points="479.71,-79.64 469.38,-77.28 475.99,-85.57 479.71,-79.64"/>
</a>
</g>
</g>
<!-- Node20&#45;&gt;Node18 -->
<g id="edge21_Node000020_Node000018" class="edge">
<title>Node20&#45;&gt;Node18</title>
<g id="a_edge21_Node000020_Node000018"><a xlink:title=" ">
<path fill="none" stroke="#63b8ff" d="M286.46,-111.59C298.76,-103.59 316.68,-91.93 331.11,-82.54"/>
<polygon fill="#63b8ff" stroke="#63b8ff" points="332.69,-85.69 339.16,-77.3 328.87,-79.82 332.69,-85.69"/>
</a>
</g>
</g>
<!-- Node20&#45;&gt;Node19 -->
<g id="edge22_Node000020_Node000019" class="edge">
<title>Node20&#45;&gt;Node19</title>
<g id="a_edge22_Node000020_Node000019"><a xlink:title=" ">
<path fill="none" stroke="#63b8ff" d="M303.53,-111.59C333.19,-102.74 377.83,-89.43 410.61,-79.65"/>
<polygon fill="#63b8ff" stroke="#63b8ff" points="411.19,-83.13 419.78,-76.91 409.19,-76.42 411.19,-83.13"/>
</a>
</g>
</g>
<!-- Node21&#45;&gt;Node15 -->
<g id="edge27_Node000021_Node000015" class="edge">
<title>Node21&#45;&gt;Node15</title>
<g id="a_edge27_Node000021_Node000015"><a xlink:title=" ">
<path fill="none" stroke="#63b8ff" d="M1062.18,-111.59C1041.17,-102.93 1009.78,-89.99 986.22,-80.28"/>
<polygon fill="#63b8ff" stroke="#63b8ff" points="987.67,-77.09 977.09,-76.52 985,-83.56 987.67,-77.09"/>
</a>
</g>
</g>
<!-- Node21&#45;&gt;Node18 -->
<g id="edge25_Node000021_Node000018" class="edge">
<title>Node21&#45;&gt;Node18</title>
<g id="a_edge25_Node000021_Node000018"><a xlink:title=" ">
<path fill="none" stroke="#63b8ff" d="M1017,-112.84C1013.96,-112.54 1010.95,-112.26 1008,-112 742.03,-88.6 670.42,-110.02 402.53,-76.14"/>
<polygon fill="#63b8ff" stroke="#63b8ff" points="403.14,-72.69 392.78,-74.9 402.25,-79.64 403.14,-72.69"/>
</a>
</g>
</g>
<!-- Node21&#45;&gt;Node19 -->
<g id="edge26_Node000021_Node000019" class="edge">
<title>Node21&#45;&gt;Node19</title>
<g id="a_edge26_Node000021_Node000019"><a xlink:title=" ">
<path fill="none" stroke="#63b8ff" d="M1016.99,-112.92C1013.96,-112.6 1010.95,-112.29 1008,-112 825.47,-93.94 608.64,-77.93 508.61,-70.85"/>
<polygon fill="#63b8ff" stroke="#63b8ff" points="509.02,-67.37 498.8,-70.16 508.53,-74.36 509.02,-67.37"/>
</a>
</g>
</g>
<!-- Node22 -->
<g id="Node000022" class="node">
<title>Node22</title>
<g id="a_Node000022"><a xlink:title=" ">
<polygon fill="#e0e0e0" stroke="#999999" points="914.38,-76 831.62,-76 831.62,-56 914.38,-56 914.38,-76"/>
<text text-anchor="middle" x="873" y="-62.5" font-family="Helvetica,sans-Serif" font-size="10.00">appcommand.h</text>
</a>
</g>
</g>
<!-- Node21&#45;&gt;Node22 -->
<g id="edge24_Node000021_Node000022" class="edge">
<title>Node21&#45;&gt;Node22</title>
<g id="a_edge24_Node000021_Node000022"><a xlink:title=" ">
<path fill="none" stroke="#63b8ff" d="M1048.07,-111.59C1012.87,-102.63 959.68,-89.08 921.16,-79.27"/>
<polygon fill="#63b8ff" stroke="#63b8ff" points="922.24,-75.93 911.68,-76.85 920.51,-82.71 922.24,-75.93"/>
</a>
</g>
</g>
<!-- Node23&#45;&gt;Node18 -->
<g id="edge29_Node000023_Node000018" class="edge">
<title>Node23&#45;&gt;Node18</title>
<g id="a_edge29_Node000023_Node000018"><a xlink:title=" ">
<path fill="none" stroke="#63b8ff" d="M110.9,-111.53C166.35,-101.42 253.52,-85.51 307.31,-75.7"/>
<polygon fill="#63b8ff" stroke="#63b8ff" points="307.88,-79.15 317.09,-73.92 306.63,-72.27 307.88,-79.15"/>
</a>
</g>
</g>
<!-- Node23&#45;&gt;Node19 -->
<g id="edge30_Node000023_Node000019" class="edge">
<title>Node23&#45;&gt;Node19</title>
<g id="a_edge30_Node000023_Node000019"><a xlink:title=" ">
<path fill="none" stroke="#63b8ff" d="M118.34,-113.14C121.27,-112.76 124.17,-112.37 127,-112 244.77,-96.44 277.11,-94.36 397.62,-76.31"/>
<polygon fill="#63b8ff" stroke="#63b8ff" points="397.91,-79.81 407.28,-74.86 396.87,-72.89 397.91,-79.81"/>
</a>
</g>
</g>
<!-- Node24&#45;&gt;Node18 -->
<g id="edge32_Node000024_Node000018" class="edge">
<title>Node24&#45;&gt;Node18</title>
<g id="a_edge32_Node000024_Node000018"><a xlink:title=" ">
<path fill="none" stroke="#63b8ff" d="M395.46,-111.59C388.72,-104.16 379.11,-93.58 370.96,-84.58"/>
<polygon fill="#63b8ff" stroke="#63b8ff" points="373.77,-82.47 364.45,-77.42 368.58,-87.18 373.77,-82.47"/>
</a>
</g>
</g>
<!-- Node24&#45;&gt;Node19 -->
<g id="edge33_Node000024_Node000019" class="edge">
<title>Node24&#45;&gt;Node19</title>
<g id="a_edge33_Node000024_Node000019"><a xlink:title=" ">
<path fill="none" stroke="#63b8ff" d="M412.54,-111.59C419.28,-104.16 428.89,-93.58 437.04,-84.58"/>
<polygon fill="#63b8ff" stroke="#63b8ff" points="439.42,-87.18 443.55,-77.42 434.23,-82.47 439.42,-87.18"/>
</a>
</g>
</g>
<!-- Node25&#45;&gt;Node18 -->
<g id="edge35_Node000025_Node000018" class="edge">
<title>Node25&#45;&gt;Node18</title>
<g id="a_edge35_Node000025_Node000018"><a xlink:title=" ">
<path fill="none" stroke="#63b8ff" d="M876.94,-112.96C873.92,-112.62 870.93,-112.3 868,-112 664.12,-91.07 608.6,-104.03 402.49,-76.18"/>
<polygon fill="#63b8ff" stroke="#63b8ff" points="403.17,-72.74 392.79,-74.85 402.22,-79.68 403.17,-72.74"/>
</a>
</g>
</g>
<!-- Node25&#45;&gt;Node19 -->
<g id="edge36_Node000025_Node000019" class="edge">
<title>Node25&#45;&gt;Node19</title>
<g id="a_edge36_Node000025_Node000019"><a xlink:title=" ">
<path fill="none" stroke="#63b8ff" d="M876.93,-113.08C873.91,-112.71 870.92,-112.35 868,-112 739.39,-96.76 588.1,-80.87 508.47,-72.66"/>
<polygon fill="#63b8ff" stroke="#63b8ff" points="509.07,-69.2 498.76,-71.66 508.35,-76.17 509.07,-69.2"/>
</a>
</g>
</g>
<!-- Node26&#45;&gt;Node18 -->
<g id="edge45_Node000026_Node000018" class="edge">
<title>Node26&#45;&gt;Node18</title>
<g id="a_edge45_Node000026_Node000018"><a xlink:title=" ">
<path fill="none" stroke="#63b8ff" d="M201.4,-111.59C231.88,-102.74 277.76,-89.43 311.43,-79.65"/>
<polygon fill="#63b8ff" stroke="#63b8ff" points="312.27,-83.05 320.89,-76.9 310.32,-76.33 312.27,-83.05"/>
</a>
</g>
</g>
<!-- Node26&#45;&gt;Node19 -->
<g id="edge46_Node000026_Node000019" class="edge">
<title>Node26&#45;&gt;Node19</title>
<g id="a_edge46_Node000026_Node000019"><a xlink:title=" ">
<path fill="none" stroke="#63b8ff" d="M202.1,-113.64C204.77,-113.07 207.43,-112.52 210,-112 274.18,-99.02 348.2,-85.52 397.51,-76.74"/>
<polygon fill="#63b8ff" stroke="#63b8ff" points="397.85,-80.23 407.08,-75.04 396.63,-73.34 397.85,-80.23"/>
</a>
</g>
</g>
<!-- Node29&#45;&gt;Node3 -->
<g id="edge52_Node000029_Node000003" class="edge">
<title>Node29&#45;&gt;Node3</title>
<g id="a_edge52_Node000029_Node000003"><a xlink:title=" ">
<path fill="none" stroke="#63b8ff" d="M1263.74,-279.53C1179.39,-268 1040.03,-248.95 974.37,-239.97"/>
<polygon fill="#63b8ff" stroke="#63b8ff" points="974.87,-236.51 964.49,-238.62 973.93,-243.44 974.87,-236.51"/>
</a>
</g>
</g>
<!-- Node29&#45;&gt;Node13 -->
<g id="edge55_Node000029_Node000013" class="edge">
<title>Node29&#45;&gt;Node13</title>
<g id="a_edge55_Node000029_Node000013"><a xlink:title=" ">
<path fill="none" stroke="#63b8ff" d="M1339.17,-279.8C1345.16,-270.78 1354.43,-256.59 1362,-244 1395.91,-187.58 1433.09,-119.17 1450.68,-86.37"/>
<polygon fill="#63b8ff" stroke="#63b8ff" points="1453.71,-88.13 1455.33,-77.66 1447.53,-84.83 1453.71,-88.13"/>
</a>
</g>
</g>
<!-- Node30 -->
<g id="Node000030" class="node">
<title>Node30</title>
<g id="a_Node000030"><a xlink:title=" ">
<polygon fill="#e0e0e0" stroke="#999999" points="1353,-244 1313,-244 1313,-224 1353,-224 1353,-244"/>
<text text-anchor="middle" x="1333" y="-230.5" font-family="Helvetica,sans-Serif" font-size="10.00">stack</text>
</a>
</g>
</g>
<!-- Node29&#45;&gt;Node30 -->
<g id="edge53_Node000029_Node000030" class="edge">
<title>Node29&#45;&gt;Node30</title>
<g id="a_edge53_Node000029_Node000030"><a xlink:title=" ">
<path fill="none" stroke="#63b8ff" d="M1333,-279.59C1333,-273.01 1333,-263.96 1333,-255.73"/>
<polygon fill="#63b8ff" stroke="#63b8ff" points="1336.5,-255.81 1333,-245.81 1329.5,-255.81 1336.5,-255.81"/>
</a>
</g>
</g>
<!-- Node31 -->
<g id="Node000031" class="node">
<title>Node31</title>
<g id="a_Node000031"><a xlink:title=" ">
<polygon fill="#e0e0e0" stroke="#999999" points="1471.38,-244 1412.62,-244 1412.62,-224 1471.38,-224 1471.38,-244"/>
<text text-anchor="middle" x="1442" y="-230.5" font-family="Helvetica,sans-Serif" font-size="10.00">stdexcept</text>
</a>
</g>
</g>
<!-- Node29&#45;&gt;Node31 -->
<g id="edge54_Node000029_Node000031" class="edge">
<title>Node29&#45;&gt;Node31</title>
<g id="a_edge54_Node000029_Node000031"><a xlink:title=" ">
<path fill="none" stroke="#63b8ff" d="M1351.99,-279.59C1368.76,-271.28 1393.49,-259.03 1412.79,-249.47"/>
<polygon fill="#63b8ff" stroke="#63b8ff" points="1414.1,-252.73 1421.51,-245.15 1410.99,-246.45 1414.1,-252.73"/>
</a>
</g>
</g>
<!-- Node32&#45;&gt;Node3 -->
<g id="edge57_Node000032_Node000003" class="edge">
<title>Node32&#45;&gt;Node3</title>
<g id="a_edge57_Node000032_Node000003"><a xlink:title=" ">
<path fill="none" stroke="#63b8ff" d="M1042.88,-279.59C1022.97,-271.13 993.45,-258.58 970.79,-248.94"/>
<polygon fill="#63b8ff" stroke="#63b8ff" points="972.26,-245.76 961.69,-245.07 969.52,-252.21 972.26,-245.76"/>
</a>
</g>
</g>
<!-- Node33&#45;&gt;Node3 -->
<g id="edge59_Node000033_Node000003" class="edge">
<title>Node33&#45;&gt;Node3</title>
<g id="a_edge59_Node000033_Node000003"><a xlink:title=" ">
<path fill="none" stroke="#63b8ff" d="M1140.87,-279.53C1093.69,-269.18 1018.88,-252.75 974.5,-243.01"/>
<polygon fill="#63b8ff" stroke="#63b8ff" points="975.37,-239.62 964.85,-240.89 973.87,-246.46 975.37,-239.62"/>
</a>
</g>
</g>
<!-- Node34&#45;&gt;Node3 -->
<g id="edge61_Node000034_Node000003" class="edge">
<title>Node34&#45;&gt;Node3</title>
<g id="a_edge61_Node000034_Node000003"><a xlink:title=" ">
<path fill="none" stroke="#63b8ff" d="M785.22,-279.59C817.78,-270.09 867.97,-255.44 901.86,-245.55"/>
<polygon fill="#63b8ff" stroke="#63b8ff" points="902.6,-248.98 911.22,-242.82 900.64,-242.26 902.6,-248.98"/>
</a>
</g>
</g>
<!-- Node35&#45;&gt;Node3 -->
<g id="edge64_Node000035_Node000003" class="edge">
<title>Node35&#45;&gt;Node3</title>
<g id="a_edge64_Node000035_Node000003"><a xlink:title=" ">
<path fill="none" stroke="#63b8ff" d="M660.91,-279.53C730.46,-268.35 843.96,-250.11 901.74,-240.83"/>
<polygon fill="#63b8ff" stroke="#63b8ff" points="902.04,-244.32 911.36,-239.28 900.93,-237.41 902.04,-244.32"/>
</a>
</g>
</g>
<!-- Node35&#45;&gt;Node23 -->
<g id="edge65_Node000035_Node000023" class="edge">
<title>Node35&#45;&gt;Node23</title>
<g id="a_edge65_Node000035_Node000023"><a xlink:title=" ">
<path fill="none" stroke="#63b8ff" d="M599.46,-279.79C595.01,-265.44 584.37,-237.98 565,-224 529.93,-198.69 259.81,-154.09 129.24,-133.71"/>
<polygon fill="#63b8ff" stroke="#63b8ff" points="130.1,-130.3 119.68,-132.22 129.02,-137.21 130.1,-130.3"/>
</a>
</g>
</g>
<!-- Node36 -->
<g id="Node000036" class="node">
<title>Node36</title>
<g id="a_Node000036"><a xlink:title=" ">
<polygon fill="#e0e0e0" stroke="#999999" points="556.25,-244 487.75,-244 487.75,-224 556.25,-224 556.25,-244"/>
<text text-anchor="middle" x="522" y="-230.5" font-family="Helvetica,sans-Serif" font-size="10.00">snowflake.h</text>
</a>
</g>
</g>
<!-- Node35&#45;&gt;Node36 -->
<g id="edge63_Node000035_Node000036" class="edge">
<title>Node35&#45;&gt;Node36</title>
<g id="a_edge63_Node000035_Node000036"><a xlink:title=" ">
<path fill="none" stroke="#63b8ff" d="M588.07,-279.59C576.32,-271.67 559.27,-260.16 545.43,-250.82"/>
<polygon fill="#63b8ff" stroke="#63b8ff" points="547.54,-248.02 537.3,-245.33 543.63,-253.82 547.54,-248.02"/>
</a>
</g>
</g>
<!-- Node37&#45;&gt;Node3 -->
<g id="edge67_Node000037_Node000003" class="edge">
<title>Node37&#45;&gt;Node3</title>
<g id="a_edge67_Node000037_Node000003"><a xlink:title=" ">
<path fill="none" stroke="#63b8ff" d="M871.11,-279.59C883,-271.67 900.27,-260.16 914.28,-250.82"/>
<polygon fill="#63b8ff" stroke="#63b8ff" points="916.14,-253.78 922.52,-245.32 912.26,-247.95 916.14,-253.78"/>
</a>
</g>
</g>
</g>
</svg>
