<?xml version="1.0" encoding="UTF-8" standalone="no"?>
<!DOCTYPE svg PUBLIC "-//W3C//DTD SVG 1.1//EN"
 "http://www.w3.org/Graphics/SVG/1.1/DTD/svg11.dtd">
<!-- Generated by graphviz version 9.0.0 (0)
 -->
<!-- Title: src/commands/CommandRegister.hpp Pages: 1 -->
<svg width="1457pt" height="196pt"
 viewBox="0.00 0.00 1457.25 196.00" xmlns="http://www.w3.org/2000/svg" xmlns:xlink="http://www.w3.org/1999/xlink">
<g id="graph0" class="graph" transform="scale(1 1) rotate(0) translate(4 192)">
<title>src/commands/CommandRegister.hpp</title>
<!-- Node1 -->
<g id="Node000001" class="node">
<title>Node1</title>
<g id="a_Node000001"><a xlink:title=" ">
<polygon fill="#999999" stroke="#666666" points="604.38,-188 420.38,-188 420.38,-168 604.38,-168 604.38,-188"/>
<text text-anchor="middle" x="512.38" y="-174.5" font-family="Helvetica,sans-Serif" font-size="10.00">src/commands/CommandRegister.hpp</text>
</a>
</g>
</g>
<!-- Node2 -->
<g id="Node000002" class="node">
<title>Node2</title>
<g id="a_Node000002"><a xlink:href="Bot_8hpp.html" target="_top" xlink:title=" ">
<polygon fill="white" stroke="#666666" points="537.25,-132 487.5,-132 487.5,-112 537.25,-112 537.25,-132"/>
<text text-anchor="middle" x="512.38" y="-118.5" font-family="Helvetica,sans-Serif" font-size="10.00">Bot.hpp</text>
</a>
</g>
</g>
<!-- Node1&#45;&gt;Node2 -->
<g id="edge1_Node000001_Node000002" class="edge">
<title>Node1&#45;&gt;Node2</title>
<g id="a_edge1_Node000001_Node000002"><a xlink:title=" ">
<path fill="none" stroke="#63b8ff" d="M512.38,-167.59C512.38,-161.01 512.38,-151.96 512.38,-143.73"/>
<polygon fill="#63b8ff" stroke="#63b8ff" points="515.88,-143.81 512.38,-133.81 508.88,-143.81 515.88,-143.81"/>
</a>
</g>
</g>
<!-- Node3 -->
<g id="Node000003" class="node">
<title>Node3</title>
<g id="a_Node000003"><a xlink:title=" ">
<polygon fill="#e0e0e0" stroke="#999999" points="34.75,-76 0,-76 0,-56 34.75,-56 34.75,-76"/>
<text text-anchor="middle" x="17.38" y="-62.5" font-family="Helvetica,sans-Serif" font-size="10.00">map</text>
</a>
</g>
</g>
<!-- Node2&#45;&gt;Node3 -->
<g id="edge2_Node000002_Node000003" class="edge">
<title>Node2&#45;&gt;Node3</title>
<g id="a_edge2_Node000002_Node000003"><a xlink:title=" ">
<path fill="none" stroke="#63b8ff" d="M487.14,-120.68C417.81,-119.35 218.62,-112.59 46.17,-76.15"/>
<polygon fill="#63b8ff" stroke="#63b8ff" points="47.11,-72.77 36.6,-74.08 45.63,-79.61 47.11,-72.77"/>
</a>
</g>
</g>
<!-- Node4 -->
<g id="Node000004" class="node">
<title>Node4</title>
<g id="a_Node000004"><a xlink:title=" ">
<polygon fill="#e0e0e0" stroke="#999999" points="104,-76 52.75,-76 52.75,-56 104,-56 104,-76"/>
<text text-anchor="middle" x="78.38" y="-62.5" font-family="Helvetica,sans-Serif" font-size="10.00">memory</text>
</a>
</g>
</g>
<!-- Node2&#45;&gt;Node4 -->
<g id="edge3_Node000002_Node000004" class="edge">
<title>Node2&#45;&gt;Node4</title>
<g id="a_edge3_Node000002_Node000004"><a xlink:title=" ">
<path fill="none" stroke="#63b8ff" d="M487.45,-119.4C425.94,-115.2 261.85,-102.45 115.25,-76.09"/>
<polygon fill="#63b8ff" stroke="#63b8ff" points="116.23,-72.72 105.77,-74.36 114.98,-79.6 116.23,-72.72"/>
</a>
</g>
</g>
<!-- Node5 -->
<g id="Node000005" class="node">
<title>Node5</title>
<g id="a_Node000005"><a xlink:title=" ">
<polygon fill="#e0e0e0" stroke="#999999" points="162.38,-76 122.38,-76 122.38,-56 162.38,-56 162.38,-76"/>
<text text-anchor="middle" x="142.38" y="-62.5" font-family="Helvetica,sans-Serif" font-size="10.00">string</text>
</a>
</g>
</g>
<!-- Node2&#45;&gt;Node5 -->
<g id="edge4_Node000002_Node000005" class="edge">
<title>Node2&#45;&gt;Node5</title>
<g id="a_edge4_Node000002_Node000005"><a xlink:title=" ">
<path fill="none" stroke="#63b8ff" d="M487.31,-119.16C432.2,-114.8 296.3,-102.36 173.9,-76.23"/>
<polygon fill="#63b8ff" stroke="#63b8ff" points="174.85,-72.86 164.33,-74.15 173.36,-79.7 174.85,-72.86"/>
</a>
</g>
</g>
<!-- Node6 -->
<g id="Node000006" class="node">
<title>Node6</title>
<g id="a_Node000006"><a xlink:title=" ">
<polygon fill="#e0e0e0" stroke="#999999" points="223.88,-76 180.88,-76 180.88,-56 223.88,-56 223.88,-76"/>
<text text-anchor="middle" x="202.38" y="-62.5" font-family="Helvetica,sans-Serif" font-size="10.00">vector</text>
</a>
</g>
</g>
<!-- Node2&#45;&gt;Node6 -->
<g id="edge5_Node000002_Node000006" class="edge">
<title>Node2&#45;&gt;Node6</title>
<g id="a_edge5_Node000002_Node000006"><a xlink:title=" ">
<path fill="none" stroke="#63b8ff" d="M487.17,-117.99C439.78,-112.1 334.01,-97.91 235.36,-76.2"/>
<polygon fill="#63b8ff" stroke="#63b8ff" points="236.3,-72.82 225.78,-74.06 234.78,-79.66 236.3,-72.82"/>
</a>
</g>
</g>
<!-- Node7 -->
<g id="Node000007" class="node">
<title>Node7</title>
<g id="a_Node000007"><a xlink:href="IButtonCommand_8hpp.html" target="_top" xlink:title=" ">
<polygon fill="white" stroke="#666666" points="899.88,-76 742.88,-76 742.88,-56 899.88,-56 899.88,-76"/>
<text text-anchor="middle" x="821.38" y="-62.5" font-family="Helvetica,sans-Serif" font-size="10.00">interfaces/IButtonCommand.hpp</text>
</a>
</g>
</g>
<!-- Node2&#45;&gt;Node7 -->
<g id="edge6_Node000002_Node000007" class="edge">
<title>Node2&#45;&gt;Node7</title>
<g id="a_edge6_Node000002_Node000007"><a xlink:title=" ">
<path fill="none" stroke="#63b8ff" d="M537.66,-116.58C584.97,-108.31 688.22,-90.27 756.25,-78.38"/>
<polygon fill="#63b8ff" stroke="#63b8ff" points="756.52,-81.89 765.77,-76.72 755.32,-74.99 756.52,-81.89"/>
</a>
</g>
</g>
<!-- Node10 -->
<g id="Node000010" class="node">
<title>Node10</title>
<g id="a_Node000010"><a xlink:href="IFormCommand_8hpp.html" target="_top" xlink:title=" ">
<polygon fill="white" stroke="#666666" points="1068.88,-76 917.88,-76 917.88,-56 1068.88,-56 1068.88,-76"/>
<text text-anchor="middle" x="993.38" y="-62.5" font-family="Helvetica,sans-Serif" font-size="10.00">interfaces/IFormCommand.hpp</text>
</a>
</g>
</g>
<!-- Node2&#45;&gt;Node10 -->
<g id="edge9_Node000002_Node000010" class="edge">
<title>Node2&#45;&gt;Node10</title>
<g id="a_edge9_Node000002_Node000010"><a xlink:title=" ">
<path fill="none" stroke="#63b8ff" d="M537.56,-118.17C605.3,-110.57 793.87,-89.4 906.12,-76.8"/>
<polygon fill="#63b8ff" stroke="#63b8ff" points="906.35,-80.29 915.9,-75.7 905.57,-73.34 906.35,-80.29"/>
</a>
</g>
</g>
<!-- Node11 -->
<g id="Node000011" class="node">
<title>Node11</title>
<g id="a_Node000011"><a xlink:href="IGlobalSlashCommand_8hpp.html" target="_top" xlink:title=" ">
<polygon fill="white" stroke="#666666" points="1267.88,-76 1086.88,-76 1086.88,-56 1267.88,-56 1267.88,-76"/>
<text text-anchor="middle" x="1177.38" y="-62.5" font-family="Helvetica,sans-Serif" font-size="10.00">interfaces/IGlobalSlashCommand.hpp</text>
</a>
</g>
</g>
<!-- Node2&#45;&gt;Node11 -->
<g id="edge12_Node000002_Node000011" class="edge">
<title>Node2&#45;&gt;Node11</title>
<g id="a_edge12_Node000002_Node000011"><a xlink:title=" ">
<path fill="none" stroke="#63b8ff" d="M537.49,-119.11C615.5,-113.2 860.83,-94.46 1075.32,-76.25"/>
<polygon fill="#63b8ff" stroke="#63b8ff" points="1075.3,-79.77 1084.97,-75.43 1074.71,-72.79 1075.3,-79.77"/>
</a>
</g>
</g>
<!-- Node12 -->
<g id="Node000012" class="node">
<title>Node12</title>
<g id="a_Node000012"><a xlink:href="IMemberCommand_8hpp.html" target="_top" xlink:title=" ">
<polygon fill="white" stroke="#666666" points="1449.25,-76 1285.5,-76 1285.5,-56 1449.25,-56 1449.25,-76"/>
<text text-anchor="middle" x="1367.38" y="-62.5" font-family="Helvetica,sans-Serif" font-size="10.00">interfaces/IMemberCommand.hpp</text>
</a>
</g>
</g>
<!-- Node2&#45;&gt;Node12 -->
<g id="edge15_Node000002_Node000012" class="edge">
<title>Node2&#45;&gt;Node12</title>
<g id="a_edge15_Node000002_Node000012"><a xlink:title=" ">
<path fill="none" stroke="#63b8ff" d="M537.49,-119.9C632.35,-115.65 978,-99.47 1274.08,-76.23"/>
<polygon fill="#63b8ff" stroke="#63b8ff" points="1274.27,-79.73 1283.96,-75.45 1273.72,-72.75 1274.27,-79.73"/>
</a>
</g>
</g>
<!-- Node13 -->
<g id="Node000013" class="node">
<title>Node13</title>
<g id="a_Node000013"><a xlink:href="IMessageCommand_8hpp.html" target="_top" xlink:title=" ">
<polygon fill="white" stroke="#666666" points="410.5,-76 242.25,-76 242.25,-56 410.5,-56 410.5,-76"/>
<text text-anchor="middle" x="326.38" y="-62.5" font-family="Helvetica,sans-Serif" font-size="10.00">interfaces/IMessageCommand.hpp</text>
</a>
</g>
</g>
<!-- Node2&#45;&gt;Node13 -->
<g id="edge18_Node000002_Node000013" class="edge">
<title>Node2&#45;&gt;Node13</title>
<g id="a_edge18_Node000002_Node000013"><a xlink:title=" ">
<path fill="none" stroke="#63b8ff" d="M487.29,-113.72C457.19,-104.98 406.21,-90.18 369.69,-79.58"/>
<polygon fill="#63b8ff" stroke="#63b8ff" points="370.89,-76.28 360.32,-76.85 368.94,-83 370.89,-76.28"/>
</a>
</g>
</g>
<!-- Node14 -->
<g id="Node000014" class="node">
<title>Node14</title>
<g id="a_Node000014"><a xlink:href="IReactionCommand_8hpp.html" target="_top" xlink:title=" ">
<polygon fill="white" stroke="#666666" points="596.12,-76 428.62,-76 428.62,-56 596.12,-56 596.12,-76"/>
<text text-anchor="middle" x="512.38" y="-62.5" font-family="Helvetica,sans-Serif" font-size="10.00">interfaces/IReactionCommand.hpp</text>
</a>
</g>
</g>
<!-- Node2&#45;&gt;Node14 -->
<g id="edge21_Node000002_Node000014" class="edge">
<title>Node2&#45;&gt;Node14</title>
<g id="a_edge21_Node000002_Node000014"><a xlink:title=" ">
<path fill="none" stroke="#63b8ff" d="M512.38,-111.59C512.38,-105.01 512.38,-95.96 512.38,-87.73"/>
<polygon fill="#63b8ff" stroke="#63b8ff" points="515.88,-87.81 512.38,-77.81 508.88,-87.81 515.88,-87.81"/>
</a>
</g>
</g>
<!-- Node15 -->
<g id="Node000015" class="node">
<title>Node15</title>
<g id="a_Node000015"><a xlink:href="IReady_8hpp.html" target="_top" xlink:title=" ">
<polygon fill="white" stroke="#666666" points="725,-76 613.75,-76 613.75,-56 725,-56 725,-76"/>
<text text-anchor="middle" x="669.38" y="-62.5" font-family="Helvetica,sans-Serif" font-size="10.00">interfaces/IReady.hpp</text>
</a>
</g>
</g>
<!-- Node2&#45;&gt;Node15 -->
<g id="edge24_Node000002_Node000015" class="edge">
<title>Node2&#45;&gt;Node15</title>
<g id="a_edge24_Node000002_Node000015"><a xlink:title=" ">
<path fill="none" stroke="#63b8ff" d="M537.6,-112.32C562.89,-103.63 602.14,-90.13 631.23,-80.12"/>
<polygon fill="#63b8ff" stroke="#63b8ff" points="632.09,-83.53 640.4,-76.96 629.81,-76.91 632.09,-83.53"/>
</a>
</g>
</g>
<!-- Node8 -->
<g id="Node000008" class="node">
<title>Node8</title>
<g id="a_Node000008"><a xlink:title=" ">
<polygon fill="#e0e0e0" stroke="#999999" points="808.5,-20 736.25,-20 736.25,0 808.5,0 808.5,-20"/>
<text text-anchor="middle" x="772.38" y="-6.5" font-family="Helvetica,sans-Serif" font-size="10.00">dpp/cluster.h</text>
</a>
</g>
</g>
<!-- Node7&#45;&gt;Node8 -->
<g id="edge7_Node000007_Node000008" class="edge">
<title>Node7&#45;&gt;Node8</title>
<g id="a_edge7_Node000007_Node000008"><a xlink:title=" ">
<path fill="none" stroke="#63b8ff" d="M812.84,-55.59C806.09,-48.16 796.49,-37.58 788.33,-28.58"/>
<polygon fill="#63b8ff" stroke="#63b8ff" points="791.14,-26.47 781.83,-21.42 785.96,-31.18 791.14,-26.47"/>
</a>
</g>
</g>
<!-- Node9 -->
<g id="Node000009" class="node">
<title>Node9</title>
<g id="a_Node000009"><a xlink:title=" ">
<polygon fill="#e0e0e0" stroke="#999999" points="914.38,-20 826.38,-20 826.38,0 914.38,0 914.38,-20"/>
<text text-anchor="middle" x="870.38" y="-6.5" font-family="Helvetica,sans-Serif" font-size="10.00">dpp/dispatcher.h</text>
</a>
</g>
</g>
<!-- Node7&#45;&gt;Node9 -->
<g id="edge8_Node000007_Node000009" class="edge">
<title>Node7&#45;&gt;Node9</title>
<g id="a_edge8_Node000007_Node000009"><a xlink:title=" ">
<path fill="none" stroke="#63b8ff" d="M829.91,-55.59C836.66,-48.16 846.26,-37.58 854.42,-28.58"/>
<polygon fill="#63b8ff" stroke="#63b8ff" points="856.79,-31.18 860.92,-21.42 851.61,-26.47 856.79,-31.18"/>
</a>
</g>
</g>
<!-- Node10&#45;&gt;Node8 -->
<g id="edge10_Node000010_Node000008" class="edge">
<title>Node10&#45;&gt;Node8</title>
<g id="a_edge10_Node000010_Node000008"><a xlink:title=" ">
<path fill="none" stroke="#63b8ff" d="M954.63,-55.53C917.14,-46.37 860.24,-32.47 820.01,-22.64"/>
<polygon fill="#63b8ff" stroke="#63b8ff" points="820.89,-19.25 810.34,-20.28 819.23,-26.05 820.89,-19.25"/>
</a>
</g>
</g>
<!-- Node10&#45;&gt;Node9 -->
<g id="edge11_Node000010_Node000009" class="edge">
<title>Node10&#45;&gt;Node9</title>
<g id="a_edge11_Node000010_Node000009"><a xlink:title=" ">
<path fill="none" stroke="#63b8ff" d="M971.95,-55.59C952.75,-47.17 924.33,-34.69 902.43,-25.07"/>
<polygon fill="#63b8ff" stroke="#63b8ff" points="903.92,-21.9 893.35,-21.09 901.1,-28.31 903.92,-21.9"/>
</a>
</g>
</g>
<!-- Node11&#45;&gt;Node8 -->
<g id="edge13_Node000011_Node000008" class="edge">
<title>Node11&#45;&gt;Node8</title>
<g id="a_edge13_Node000011_Node000008"><a xlink:title=" ">
<path fill="none" stroke="#63b8ff" d="M1086.87,-55.54C1016.61,-47.77 916.53,-35.76 819.84,-20.3"/>
<polygon fill="#63b8ff" stroke="#63b8ff" points="820.61,-16.88 810.18,-18.74 819.49,-23.79 820.61,-16.88"/>
</a>
</g>
</g>
<!-- Node11&#45;&gt;Node9 -->
<g id="edge14_Node000011_Node000009" class="edge">
<title>Node11&#45;&gt;Node9</title>
<g id="a_edge14_Node000011_Node000009"><a xlink:title=" ">
<path fill="none" stroke="#63b8ff" d="M1123.55,-55.53C1068.04,-45.77 981.91,-30.62 925.82,-20.75"/>
<polygon fill="#63b8ff" stroke="#63b8ff" points="926.62,-17.34 916.16,-19.05 925.41,-24.23 926.62,-17.34"/>
</a>
</g>
</g>
<!-- Node12&#45;&gt;Node8 -->
<g id="edge16_Node000012_Node000008" class="edge">
<title>Node12&#45;&gt;Node8</title>
<g id="a_edge16_Node000012_Node000008"><a xlink:title=" ">
<path fill="none" stroke="#63b8ff" d="M1285.47,-56.73C1282.74,-56.48 1280.03,-56.24 1277.38,-56 1076.81,-38.13 1022.45,-47.79 819.99,-20.2"/>
<polygon fill="#63b8ff" stroke="#63b8ff" points="820.54,-16.75 810.16,-18.85 819.59,-23.68 820.54,-16.75"/>
</a>
</g>
</g>
<!-- Node12&#45;&gt;Node9 -->
<g id="edge17_Node000012_Node000009" class="edge">
<title>Node12&#45;&gt;Node9</title>
<g id="a_edge17_Node000012_Node000009"><a xlink:title=" ">
<path fill="none" stroke="#63b8ff" d="M1285.03,-56.05C1183.38,-45.01 1013.29,-26.53 925.91,-17.03"/>
<polygon fill="#63b8ff" stroke="#63b8ff" points="926.48,-13.57 916.16,-15.97 925.72,-20.53 926.48,-13.57"/>
</a>
</g>
</g>
<!-- Node13&#45;&gt;Node8 -->
<g id="edge19_Node000013_Node000008" class="edge">
<title>Node13&#45;&gt;Node8</title>
<g id="a_edge19_Node000013_Node000008"><a xlink:title=" ">
<path fill="none" stroke="#63b8ff" d="M404.83,-55.5C497.31,-44.3 648.08,-26.05 724.59,-16.79"/>
<polygon fill="#63b8ff" stroke="#63b8ff" points="724.76,-20.29 734.26,-15.61 723.91,-13.34 724.76,-20.29"/>
</a>
</g>
</g>
<!-- Node13&#45;&gt;Node9 -->
<g id="edge20_Node000013_Node000009" class="edge">
<title>Node13&#45;&gt;Node9</title>
<g id="a_edge20_Node000013_Node000009"><a xlink:title=" ">
<path fill="none" stroke="#63b8ff" d="M410.52,-56.83C413.51,-56.55 416.47,-56.27 419.38,-56 592.59,-39.79 639.34,-42.75 814.69,-20.26"/>
<polygon fill="#63b8ff" stroke="#63b8ff" points="814.91,-23.76 824.38,-19.01 814.01,-16.82 814.91,-23.76"/>
</a>
</g>
</g>
<!-- Node14&#45;&gt;Node8 -->
<g id="edge22_Node000014_Node000008" class="edge">
<title>Node14&#45;&gt;Node8</title>
<g id="a_edge22_Node000014_Node000008"><a xlink:title=" ">
<path fill="none" stroke="#63b8ff" d="M557.96,-55.53C604.78,-45.81 677.34,-30.74 724.86,-20.87"/>
<polygon fill="#63b8ff" stroke="#63b8ff" points="725.51,-24.31 734.59,-18.85 724.09,-17.45 725.51,-24.31"/>
</a>
</g>
</g>
<!-- Node14&#45;&gt;Node9 -->
<g id="edge23_Node000014_Node000009" class="edge">
<title>Node14&#45;&gt;Node9</title>
<g id="a_edge23_Node000014_Node000009"><a xlink:title=" ">
<path fill="none" stroke="#63b8ff" d="M579.38,-55.54C638.68,-47.07 727.88,-34.1 814.98,-20.35"/>
<polygon fill="#63b8ff" stroke="#63b8ff" points="815.32,-23.84 824.65,-18.82 814.22,-16.93 815.32,-23.84"/>
</a>
</g>
</g>
<!-- Node15&#45;&gt;Node8 -->
<g id="edge25_Node000015_Node000008" class="edge">
<title>Node15&#45;&gt;Node8</title>
<g id="a_edge25_Node000015_Node000008"><a xlink:title=" ">
<path fill="none" stroke="#63b8ff" d="M687.32,-55.59C703.02,-47.36 726.11,-35.26 744.26,-25.74"/>
<polygon fill="#63b8ff" stroke="#63b8ff" points="745.72,-28.93 752.95,-21.18 742.47,-22.73 745.72,-28.93"/>
</a>
</g>
</g>
<!-- Node15&#45;&gt;Node9 -->
<g id="edge26_Node000015_Node000009" class="edge">
<title>Node15&#45;&gt;Node9</title>
<g id="a_edge26_Node000015_Node000009"><a xlink:title=" ">
<path fill="none" stroke="#63b8ff" d="M704.39,-55.59C737.62,-46.67 787.76,-33.19 824.24,-23.39"/>
<polygon fill="#63b8ff" stroke="#63b8ff" points="824.88,-26.85 833.63,-20.87 823.06,-20.09 824.88,-26.85"/>
</a>
</g>
</g>
</g>
</svg>
