<?xml version="1.0" encoding="UTF-8" standalone="no"?>
<!DOCTYPE svg PUBLIC "-//W3C//DTD SVG 1.1//EN"
 "http://www.w3.org/Graphics/SVG/1.1/DTD/svg11.dtd">
<!-- Generated by graphviz version 9.0.0 (0)
 -->
<!-- Title: src/bot_library/commands/include/Commands.hpp Pages: 1 -->
<svg width="445pt" height="176pt"
 viewBox="0.00 0.00 445.00 176.00" xmlns="http://www.w3.org/2000/svg" xmlns:xlink="http://www.w3.org/1999/xlink">
<g id="graph0" class="graph" transform="scale(1 1) rotate(0) translate(4 172)">
<title>src/bot_library/commands/include/Commands.hpp</title>
<!-- Node1 -->
<g id="Node000001" class="node">
<title>Node1</title>
<g id="a_Node000001"><a xlink:title=" ">
<polygon fill="#999999" stroke="#666666" points="289.62,-168 161.12,-168 161.12,-136 289.62,-136 289.62,-168"/>
<text text-anchor="start" x="169.12" y="-154.5" font-family="Helvetica,sans-Serif" font-size="10.00">src/bot_library/commands</text>
<text text-anchor="middle" x="225.38" y="-142.5" font-family="Helvetica,sans-Serif" font-size="10.00">/include/Commands.hpp</text>
</a>
</g>
</g>
<!-- Node2 -->
<g id="Node000002" class="node">
<title>Node2</title>
<g id="a_Node000002"><a xlink:href="BotLibrary_8cpp.html" target="_top" xlink:title=" ">
<polygon fill="white" stroke="#666666" points="142.75,-94 0,-94 0,-74 142.75,-74 142.75,-94"/>
<text text-anchor="middle" x="71.38" y="-80.5" font-family="Helvetica,sans-Serif" font-size="10.00">src/bot_library/BotLibrary.cpp</text>
</a>
</g>
</g>
<!-- Node1&#45;&gt;Node2 -->
<g id="edge1_Node000001_Node000002" class="edge">
<title>Node1&#45;&gt;Node2</title>
<g id="a_edge1_Node000001_Node000002"><a xlink:title=" ">
<path fill="none" stroke="#63b8ff" d="M178.78,-131.03C150.47,-118.9 115.62,-103.96 93.45,-94.46"/>
<polygon fill="#63b8ff" stroke="#63b8ff" points="177.31,-134.21 187.88,-134.93 180.06,-127.77 177.31,-134.21"/>
</a>
</g>
</g>
<!-- Node3 -->
<g id="Node000003" class="node">
<title>Node3</title>
<g id="a_Node000003"><a xlink:href="Commands_8cpp.html" target="_top" xlink:title=" ">
<polygon fill="white" stroke="#666666" points="289.62,-100 161.12,-100 161.12,-68 289.62,-68 289.62,-100"/>
<text text-anchor="start" x="169.12" y="-86.5" font-family="Helvetica,sans-Serif" font-size="10.00">src/bot_library/commands</text>
<text text-anchor="middle" x="225.38" y="-74.5" font-family="Helvetica,sans-Serif" font-size="10.00">/Commands.cpp</text>
</a>
</g>
</g>
<!-- Node1&#45;&gt;Node3 -->
<g id="edge2_Node000001_Node000003" class="edge">
<title>Node1&#45;&gt;Node3</title>
<g id="a_edge2_Node000001_Node000003"><a xlink:title=" ">
<path fill="none" stroke="#63b8ff" d="M225.38,-124.31C225.38,-116.12 225.38,-107.38 225.38,-100.22"/>
<polygon fill="#63b8ff" stroke="#63b8ff" points="221.88,-124.18 225.38,-134.18 228.88,-124.18 221.88,-124.18"/>
</a>
</g>
</g>
<!-- Node4 -->
<g id="Node000004" class="node">
<title>Node4</title>
<g id="a_Node000004"><a xlink:href="PongCommand_8hpp.html" target="_top" xlink:title=" ">
<polygon fill="white" stroke="#666666" points="437,-100 307.75,-100 307.75,-68 437,-68 437,-100"/>
<text text-anchor="start" x="315.75" y="-86.5" font-family="Helvetica,sans-Serif" font-size="10.00">src/bot_library/commands</text>
<text text-anchor="middle" x="372.38" y="-74.5" font-family="Helvetica,sans-Serif" font-size="10.00">/pong/PongCommand.hpp</text>
</a>
</g>
</g>
<!-- Node1&#45;&gt;Node4 -->
<g id="edge3_Node000001_Node000004" class="edge">
<title>Node1&#45;&gt;Node4</title>
<g id="a_edge3_Node000001_Node000004"><a xlink:title=" ">
<path fill="none" stroke="#63b8ff" d="M270.16,-130.89C291.92,-121.12 317.66,-109.56 337.87,-100.49"/>
<polygon fill="#63b8ff" stroke="#63b8ff" points="268.91,-127.62 261.22,-134.91 271.78,-134 268.91,-127.62"/>
</a>
</g>
</g>
<!-- Node5 -->
<g id="Node000005" class="node">
<title>Node5</title>
<g id="a_Node000005"><a xlink:href="PongCommand_8cpp.html" target="_top" xlink:title=" ">
<polygon fill="white" stroke="#666666" points="437,-32 307.75,-32 307.75,0 437,0 437,-32"/>
<text text-anchor="start" x="315.75" y="-18.5" font-family="Helvetica,sans-Serif" font-size="10.00">src/bot_library/commands</text>
<text text-anchor="middle" x="372.38" y="-6.5" font-family="Helvetica,sans-Serif" font-size="10.00">/pong/PongCommand.cpp</text>
</a>
</g>
</g>
<!-- Node4&#45;&gt;Node5 -->
<g id="edge4_Node000004_Node000005" class="edge">
<title>Node4&#45;&gt;Node5</title>
<g id="a_edge4_Node000004_Node000005"><a xlink:title=" ">
<path fill="none" stroke="#63b8ff" d="M372.38,-56.31C372.38,-48.12 372.38,-39.38 372.38,-32.22"/>
<polygon fill="#63b8ff" stroke="#63b8ff" points="368.88,-56.18 372.38,-66.18 375.88,-56.18 368.88,-56.18"/>
</a>
</g>
</g>
</g>
</svg>
