<?xml version="1.0" encoding="UTF-8" standalone="no"?>
<!DOCTYPE svg PUBLIC "-//W3C//DTD SVG 1.1//EN"
 "http://www.w3.org/Graphics/SVG/1.1/DTD/svg11.dtd">
<!-- Generated by graphviz version 9.0.0 (0)
 -->
<!-- Title: src/bot_library/commands/Commands.cpp Pages: 1 -->
<svg width="1644pt" height="376pt"
 viewBox="0.00 0.00 1644.25 376.00" xmlns="http://www.w3.org/2000/svg" xmlns:xlink="http://www.w3.org/1999/xlink">
<g id="graph0" class="graph" transform="scale(1 1) rotate(0) translate(4 372)">
<title>src/bot_library/commands/Commands.cpp</title>
<!-- Node1 -->
<g id="Node000001" class="node">
<title>Node1</title>
<g id="a_Node000001"><a xlink:title=" ">
<polygon fill="#999999" stroke="#666666" points="1179.75,-368 1051.25,-368 1051.25,-336 1179.75,-336 1179.75,-368"/>
<text text-anchor="start" x="1059.25" y="-354.5" font-family="Helvetica,sans-Serif" font-size="10.00">src/bot_library/commands</text>
<text text-anchor="middle" x="1115.5" y="-342.5" font-family="Helvetica,sans-Serif" font-size="10.00">/Commands.cpp</text>
</a>
</g>
</g>
<!-- Node2 -->
<g id="Node000002" class="node">
<title>Node2</title>
<g id="a_Node000002"><a xlink:href="Commands_8hpp.html" target="_top" xlink:title=" ">
<polygon fill="white" stroke="#666666" points="1103,-300 1018,-300 1018,-280 1103,-280 1103,-300"/>
<text text-anchor="middle" x="1060.5" y="-286.5" font-family="Helvetica,sans-Serif" font-size="10.00">Commands.hpp</text>
</a>
</g>
</g>
<!-- Node1&#45;&gt;Node2 -->
<g id="edge1_Node000001_Node000002" class="edge">
<title>Node1&#45;&gt;Node2</title>
<g id="a_edge1_Node000001_Node000002"><a xlink:title=" ">
<path fill="none" stroke="#63b8ff" d="M1101.34,-335.55C1093.86,-327.39 1084.64,-317.33 1076.86,-308.84"/>
<polygon fill="#63b8ff" stroke="#63b8ff" points="1079.48,-306.53 1070.15,-301.52 1074.32,-311.26 1079.48,-306.53"/>
</a>
</g>
</g>
<!-- Node27 -->
<g id="Node000027" class="node">
<title>Node27</title>
<g id="a_Node000027"><a xlink:title=" ">
<polygon fill="#e0e0e0" stroke="#999999" points="1288.12,-188 1236.88,-188 1236.88,-168 1288.12,-168 1288.12,-188"/>
<text text-anchor="middle" x="1262.5" y="-174.5" font-family="Helvetica,sans-Serif" font-size="10.00">memory</text>
</a>
</g>
</g>
<!-- Node1&#45;&gt;Node27 -->
<g id="edge53_Node000001_Node000027" class="edge">
<title>Node1&#45;&gt;Node27</title>
<g id="a_edge53_Node000001_Node000027"><a xlink:title=" ">
<path fill="none" stroke="#63b8ff" d="M1176.38,-335.55C1196.1,-327.81 1216.47,-316.45 1230.5,-300 1254.97,-271.3 1260.97,-225.88 1262.29,-199.62"/>
<polygon fill="#63b8ff" stroke="#63b8ff" points="1265.78,-200.03 1262.58,-189.93 1258.79,-199.83 1265.78,-200.03"/>
</a>
</g>
</g>
<!-- Node28 -->
<g id="Node000028" class="node">
<title>Node28</title>
<g id="a_Node000028"><a xlink:href="HelpCommand_8hpp.html" target="_top" xlink:title=" ">
<polygon fill="white" stroke="#666666" points="1221.5,-300 1121.5,-300 1121.5,-280 1221.5,-280 1221.5,-300"/>
<text text-anchor="middle" x="1171.5" y="-286.5" font-family="Helvetica,sans-Serif" font-size="10.00">HelpCommand.hpp</text>
</a>
</g>
</g>
<!-- Node1&#45;&gt;Node28 -->
<g id="edge49_Node000001_Node000028" class="edge">
<title>Node1&#45;&gt;Node28</title>
<g id="a_edge49_Node000001_Node000028"><a xlink:title=" ">
<path fill="none" stroke="#63b8ff" d="M1129.92,-335.55C1137.62,-327.3 1147.12,-317.12 1155.1,-308.57"/>
<polygon fill="#63b8ff" stroke="#63b8ff" points="1157.42,-311.21 1161.69,-301.51 1152.3,-306.44 1157.42,-311.21"/>
</a>
</g>
</g>
<!-- Node29 -->
<g id="Node000029" class="node">
<title>Node29</title>
<g id="a_Node000029"><a xlink:href="PongCommand_8hpp.html" target="_top" xlink:title=" ">
<polygon fill="white" stroke="#666666" points="999.62,-300 897.38,-300 897.38,-280 999.62,-280 999.62,-300"/>
<text text-anchor="middle" x="948.5" y="-286.5" font-family="Helvetica,sans-Serif" font-size="10.00">PongCommand.hpp</text>
</a>
</g>
</g>
<!-- Node1&#45;&gt;Node29 -->
<g id="edge51_Node000001_Node000029" class="edge">
<title>Node1&#45;&gt;Node29</title>
<g id="a_edge51_Node000001_Node000029"><a xlink:title=" ">
<path fill="none" stroke="#63b8ff" d="M1072.49,-335.55C1045.55,-325.87 1011.2,-313.53 985.48,-304.29"/>
<polygon fill="#63b8ff" stroke="#63b8ff" points="986.7,-301.01 976.11,-300.92 984.34,-307.59 986.7,-301.01"/>
</a>
</g>
</g>
<!-- Node3 -->
<g id="Node000003" class="node">
<title>Node3</title>
<g id="a_Node000003"><a xlink:href="Bot_8hpp.html" target="_top" xlink:title=" ">
<polygon fill="white" stroke="#666666" points="1081.38,-244 1031.62,-244 1031.62,-224 1081.38,-224 1081.38,-244"/>
<text text-anchor="middle" x="1056.5" y="-230.5" font-family="Helvetica,sans-Serif" font-size="10.00">Bot.hpp</text>
</a>
</g>
</g>
<!-- Node2&#45;&gt;Node3 -->
<g id="edge2_Node000002_Node000003" class="edge">
<title>Node2&#45;&gt;Node3</title>
<g id="a_edge2_Node000002_Node000003"><a xlink:title=" ">
<path fill="none" stroke="#63b8ff" d="M1059.8,-279.59C1059.32,-273.01 1058.65,-263.96 1058.04,-255.73"/>
<polygon fill="#63b8ff" stroke="#63b8ff" points="1061.53,-255.52 1057.3,-245.81 1054.55,-256.04 1061.53,-255.52"/>
</a>
</g>
</g>
<!-- Node4 -->
<g id="Node000004" class="node">
<title>Node4</title>
<g id="a_Node000004"><a xlink:href="Core_8hpp.html" target="_top" xlink:title=" ">
<polygon fill="white" stroke="#666666" points="872.38,-188 816.62,-188 816.62,-168 872.38,-168 872.38,-188"/>
<text text-anchor="middle" x="844.5" y="-174.5" font-family="Helvetica,sans-Serif" font-size="10.00">Core.hpp</text>
</a>
</g>
</g>
<!-- Node3&#45;&gt;Node4 -->
<g id="edge3_Node000003_Node000004" class="edge">
<title>Node3&#45;&gt;Node4</title>
<g id="a_edge3_Node000003_Node000004"><a xlink:title=" ">
<path fill="none" stroke="#63b8ff" d="M1031.35,-226.59C994.8,-217.28 926.68,-199.93 883.57,-188.95"/>
<polygon fill="#63b8ff" stroke="#63b8ff" points="884.67,-185.62 874.11,-186.54 882.94,-192.4 884.67,-185.62"/>
</a>
</g>
</g>
<!-- Node13 -->
<g id="Node000013" class="node">
<title>Node13</title>
<g id="a_Node000013"><a xlink:title=" ">
<polygon fill="#e0e0e0" stroke="#999999" points="549.5,-76 509.5,-76 509.5,-56 549.5,-56 549.5,-76"/>
<text text-anchor="middle" x="529.5" y="-62.5" font-family="Helvetica,sans-Serif" font-size="10.00">string</text>
</a>
</g>
</g>
<!-- Node3&#45;&gt;Node13 -->
<g id="edge47_Node000003_Node000013" class="edge">
<title>Node3&#45;&gt;Node13</title>
<g id="a_edge47_Node000003_Node000013"><a xlink:title=" ">
<path fill="none" stroke="#63b8ff" d="M1031.16,-232.89C927.57,-231.83 538.4,-221.87 466.5,-132 451.6,-113.38 476.51,-93.99 499.26,-81.29"/>
<polygon fill="#63b8ff" stroke="#63b8ff" points="500.85,-84.41 508.07,-76.66 497.59,-78.21 500.85,-84.41"/>
</a>
</g>
</g>
<!-- Node15 -->
<g id="Node000015" class="node">
<title>Node15</title>
<g id="a_Node000015"><a xlink:title=" ">
<polygon fill="#e0e0e0" stroke="#999999" points="43,-76 0,-76 0,-56 43,-56 43,-76"/>
<text text-anchor="middle" x="21.5" y="-62.5" font-family="Helvetica,sans-Serif" font-size="10.00">vector</text>
</a>
</g>
</g>
<!-- Node3&#45;&gt;Node15 -->
<g id="edge48_Node000003_Node000015" class="edge">
<title>Node3&#45;&gt;Node15</title>
<g id="a_edge48_Node000003_Node000015"><a xlink:title=" ">
<path fill="none" stroke="#63b8ff" d="M1031.33,-231.83C954.56,-228.08 716.79,-214.93 521.5,-188 391.03,-170.01 358.25,-164.05 230.5,-132 167.16,-116.11 94.68,-92.26 53.87,-78.3"/>
<polygon fill="#63b8ff" stroke="#63b8ff" points="55.26,-75.08 44.67,-75.13 52.99,-81.7 55.26,-75.08"/>
</a>
</g>
</g>
<!-- Node17 -->
<g id="Node000017" class="node">
<title>Node17</title>
<g id="a_Node000017"><a xlink:href="IButtonCommand_8hpp.html" target="_top" xlink:title=" ">
<polygon fill="white" stroke="#666666" points="595.12,-132 483.88,-132 483.88,-112 595.12,-112 595.12,-132"/>
<text text-anchor="middle" x="539.5" y="-118.5" font-family="Helvetica,sans-Serif" font-size="10.00">IButtonCommand.hpp</text>
</a>
</g>
</g>
<!-- Node3&#45;&gt;Node17 -->
<g id="edge36_Node000003_Node000017" class="edge">
<title>Node3&#45;&gt;Node17</title>
<g id="a_edge36_Node000003_Node000017"><a xlink:title=" ">
<path fill="none" stroke="#63b8ff" d="M1031.31,-228.95C986.25,-221.6 888.95,-205.22 807.5,-188 729.6,-171.53 639.82,-149.03 586.46,-135.28"/>
<polygon fill="#63b8ff" stroke="#63b8ff" points="587.35,-131.9 576.79,-132.78 585.6,-138.67 587.35,-131.9"/>
</a>
</g>
</g>
<!-- Node20 -->
<g id="Node000020" class="node">
<title>Node20</title>
<g id="a_Node000020"><a xlink:href="IFormCommand_8hpp.html" target="_top" xlink:title=" ">
<polygon fill="white" stroke="#666666" points="983.12,-132 877.88,-132 877.88,-112 983.12,-112 983.12,-132"/>
<text text-anchor="middle" x="930.5" y="-118.5" font-family="Helvetica,sans-Serif" font-size="10.00">IFormCommand.hpp</text>
</a>
</g>
</g>
<!-- Node3&#45;&gt;Node20 -->
<g id="edge37_Node000003_Node000020" class="edge">
<title>Node3&#45;&gt;Node20</title>
<g id="a_edge37_Node000003_Node000020"><a xlink:title=" ">
<path fill="none" stroke="#63b8ff" d="M1038.55,-223.64C1023.54,-215.36 1002,-202.38 985.5,-188 969.36,-173.93 953.87,-154.98 943.47,-141.17"/>
<polygon fill="#63b8ff" stroke="#63b8ff" points="946.5,-139.37 937.76,-133.38 940.85,-143.51 946.5,-139.37"/>
</a>
</g>
</g>
<!-- Node21 -->
<g id="Node000021" class="node">
<title>Node21</title>
<g id="a_Node000021"><a xlink:href="IGlobalSlashCommand_8hpp.html" target="_top" xlink:title=" ">
<polygon fill="white" stroke="#666666" points="1136.12,-132 1000.88,-132 1000.88,-112 1136.12,-112 1136.12,-132"/>
<text text-anchor="middle" x="1068.5" y="-118.5" font-family="Helvetica,sans-Serif" font-size="10.00">IGlobalSlashCommand.hpp</text>
</a>
</g>
</g>
<!-- Node3&#45;&gt;Node21 -->
<g id="edge38_Node000003_Node000021" class="edge">
<title>Node3&#45;&gt;Node21</title>
<g id="a_edge38_Node000003_Node000021"><a xlink:title=" ">
<path fill="none" stroke="#63b8ff" d="M1057.52,-223.62C1059.44,-206.01 1063.64,-167.59 1066.25,-143.65"/>
<polygon fill="#63b8ff" stroke="#63b8ff" points="1069.71,-144.18 1067.32,-133.86 1062.75,-143.42 1069.71,-144.18"/>
</a>
</g>
</g>
<!-- Node22 -->
<g id="Node000022" class="node">
<title>Node22</title>
<g id="a_Node000022"><a xlink:href="IMemberCommand_8hpp.html" target="_top" xlink:title=" ">
<polygon fill="white" stroke="#666666" points="1272.5,-132 1154.5,-132 1154.5,-112 1272.5,-112 1272.5,-132"/>
<text text-anchor="middle" x="1213.5" y="-118.5" font-family="Helvetica,sans-Serif" font-size="10.00">IMemberCommand.hpp</text>
</a>
</g>
</g>
<!-- Node3&#45;&gt;Node22 -->
<g id="edge39_Node000003_Node000022" class="edge">
<title>Node3&#45;&gt;Node22</title>
<g id="a_edge39_Node000003_Node000022"><a xlink:title=" ">
<path fill="none" stroke="#63b8ff" d="M1063.63,-223.56C1074.34,-209.9 1095.75,-184.44 1118.5,-168 1136.22,-155.19 1158.17,-144.52 1176.5,-136.78"/>
<polygon fill="#63b8ff" stroke="#63b8ff" points="1177.75,-140.05 1185.69,-133.04 1175.11,-133.57 1177.75,-140.05"/>
</a>
</g>
</g>
<!-- Node23 -->
<g id="Node000023" class="node">
<title>Node23</title>
<g id="a_Node000023"><a xlink:href="IMessageCommand_8hpp.html" target="_top" xlink:title=" ">
<polygon fill="white" stroke="#666666" points="1412.75,-132 1290.25,-132 1290.25,-112 1412.75,-112 1412.75,-132"/>
<text text-anchor="middle" x="1351.5" y="-118.5" font-family="Helvetica,sans-Serif" font-size="10.00">IMessageCommand.hpp</text>
</a>
</g>
</g>
<!-- Node3&#45;&gt;Node23 -->
<g id="edge40_Node000003_Node000023" class="edge">
<title>Node3&#45;&gt;Node23</title>
<g id="a_edge40_Node000003_Node000023"><a xlink:title=" ">
<path fill="none" stroke="#63b8ff" d="M1068.04,-223.54C1085.9,-209.37 1121.81,-182.73 1156.5,-168 1195.5,-151.44 1241.6,-140.44 1279.18,-133.47"/>
<polygon fill="#63b8ff" stroke="#63b8ff" points="1279.33,-137 1288.56,-131.79 1278.1,-130.11 1279.33,-137"/>
</a>
</g>
</g>
<!-- Node24 -->
<g id="Node000024" class="node">
<title>Node24</title>
<g id="a_Node000024"><a xlink:href="IReactionCommand_8hpp.html" target="_top" xlink:title=" ">
<polygon fill="white" stroke="#666666" points="1552.38,-132 1430.62,-132 1430.62,-112 1552.38,-112 1552.38,-132"/>
<text text-anchor="middle" x="1491.5" y="-118.5" font-family="Helvetica,sans-Serif" font-size="10.00">IReactionCommand.hpp</text>
</a>
</g>
</g>
<!-- Node3&#45;&gt;Node24 -->
<g id="edge41_Node000003_Node000024" class="edge">
<title>Node3&#45;&gt;Node24</title>
<g id="a_edge41_Node000003_Node000024"><a xlink:title=" ">
<path fill="none" stroke="#63b8ff" d="M1076.3,-223.63C1114.1,-205.75 1192.96,-168.47 1194.5,-168 1215.59,-161.59 1338.33,-144.02 1419.28,-132.83"/>
<polygon fill="#63b8ff" stroke="#63b8ff" points="1419.49,-136.33 1428.91,-131.5 1418.53,-129.4 1419.49,-136.33"/>
</a>
</g>
</g>
<!-- Node25 -->
<g id="Node000025" class="node">
<title>Node25</title>
<g id="a_Node000025"><a xlink:href="IReady_8hpp.html" target="_top" xlink:title=" ">
<polygon fill="white" stroke="#666666" points="1636.25,-132 1570.75,-132 1570.75,-112 1636.25,-112 1636.25,-132"/>
<text text-anchor="middle" x="1603.5" y="-118.5" font-family="Helvetica,sans-Serif" font-size="10.00">IReady.hpp</text>
</a>
</g>
</g>
<!-- Node3&#45;&gt;Node25 -->
<g id="edge42_Node000003_Node000025" class="edge">
<title>Node3&#45;&gt;Node25</title>
<g id="a_edge42_Node000003_Node000025"><a xlink:title=" ">
<path fill="none" stroke="#63b8ff" d="M1081.49,-225.5C1108.13,-217.26 1151.36,-203.17 1187.5,-188 1205.83,-180.31 1208.43,-173.6 1227.5,-168 1367.26,-126.98 1411.91,-154.27 1559.29,-132.15"/>
<polygon fill="#63b8ff" stroke="#63b8ff" points="1559.71,-135.63 1569.05,-130.63 1558.63,-128.71 1559.71,-135.63"/>
</a>
</g>
</g>
<!-- Node26 -->
<g id="Node000026" class="node">
<title>Node26</title>
<g id="a_Node000026"><a xlink:title=" ">
<polygon fill="#e0e0e0" stroke="#999999" points="1028.88,-188 994.12,-188 994.12,-168 1028.88,-168 1028.88,-188"/>
<text text-anchor="middle" x="1011.5" y="-174.5" font-family="Helvetica,sans-Serif" font-size="10.00">map</text>
</a>
</g>
</g>
<!-- Node3&#45;&gt;Node26 -->
<g id="edge45_Node000003_Node000026" class="edge">
<title>Node3&#45;&gt;Node26</title>
<g id="a_edge45_Node000003_Node000026"><a xlink:title=" ">
<path fill="none" stroke="#63b8ff" d="M1048.66,-223.59C1042.53,-216.24 1033.83,-205.8 1026.39,-196.87"/>
<polygon fill="#63b8ff" stroke="#63b8ff" points="1029.31,-194.9 1020.22,-189.46 1023.93,-199.38 1029.31,-194.9"/>
</a>
</g>
</g>
<!-- Node3&#45;&gt;Node27 -->
<g id="edge46_Node000003_Node000027" class="edge">
<title>Node3&#45;&gt;Node27</title>
<g id="a_edge46_Node000003_Node000027"><a xlink:title=" ">
<path fill="none" stroke="#63b8ff" d="M1081.76,-226.38C1117.7,-216.96 1183.84,-199.62 1225.37,-188.73"/>
<polygon fill="#63b8ff" stroke="#63b8ff" points="1226.13,-192.15 1234.92,-186.23 1224.36,-185.38 1226.13,-192.15"/>
</a>
</g>
</g>
<!-- Node5 -->
<g id="Node000005" class="node">
<title>Node5</title>
<g id="a_Node000005"><a xlink:title=" ">
<polygon fill="#e0e0e0" stroke="#999999" points="750.88,-132 692.12,-132 692.12,-112 750.88,-112 750.88,-132"/>
<text text-anchor="middle" x="721.5" y="-118.5" font-family="Helvetica,sans-Serif" font-size="10.00">dpp/dpp.h</text>
</a>
</g>
</g>
<!-- Node4&#45;&gt;Node5 -->
<g id="edge4_Node000004_Node000005" class="edge">
<title>Node4&#45;&gt;Node5</title>
<g id="a_edge4_Node000004_Node000005"><a xlink:title=" ">
<path fill="none" stroke="#63b8ff" d="M823.08,-167.59C803.88,-159.17 775.46,-146.69 753.56,-137.07"/>
<polygon fill="#63b8ff" stroke="#63b8ff" points="755.04,-133.9 744.48,-133.09 752.23,-140.31 755.04,-133.9"/>
</a>
</g>
</g>
<!-- Node6 -->
<g id="Node000006" class="node">
<title>Node6</title>
<g id="a_Node000006"><a xlink:title=" ">
<polygon fill="#e0e0e0" stroke="#999999" points="860,-132 769,-132 769,-112 860,-112 860,-132"/>
<text text-anchor="middle" x="814.5" y="-118.5" font-family="Helvetica,sans-Serif" font-size="10.00">dpp/misc&#45;enum.h</text>
</a>
</g>
</g>
<!-- Node4&#45;&gt;Node6 -->
<g id="edge5_Node000004_Node000006" class="edge">
<title>Node4&#45;&gt;Node6</title>
<g id="a_edge5_Node000004_Node000006"><a xlink:title=" ">
<path fill="none" stroke="#63b8ff" d="M839.27,-167.59C835.4,-160.63 829.99,-150.89 825.22,-142.29"/>
<polygon fill="#63b8ff" stroke="#63b8ff" points="828.32,-140.66 820.4,-133.62 822.2,-144.06 828.32,-140.66"/>
</a>
</g>
</g>
<!-- Node7 -->
<g id="Node000007" class="node">
<title>Node7</title>
<g id="a_Node000007"><a xlink:title=" ">
<polygon fill="#e0e0e0" stroke="#999999" points="673.62,-132 613.38,-132 613.38,-112 673.62,-112 673.62,-132"/>
<text text-anchor="middle" x="643.5" y="-118.5" font-family="Helvetica,sans-Serif" font-size="10.00">fmt/core.h</text>
</a>
</g>
</g>
<!-- Node4&#45;&gt;Node7 -->
<g id="edge6_Node000004_Node000007" class="edge">
<title>Node4&#45;&gt;Node7</title>
<g id="a_edge6_Node000004_Node000007"><a xlink:title=" ">
<path fill="none" stroke="#63b8ff" d="M816.13,-169.38C781.95,-160.2 724.25,-144.69 685.06,-134.16"/>
<polygon fill="#63b8ff" stroke="#63b8ff" points="686.06,-130.81 675.49,-131.59 684.24,-137.57 686.06,-130.81"/>
</a>
</g>
</g>
<!-- Node8 -->
<g id="Node000008" class="node">
<title>Node8</title>
<g id="a_Node000008"><a xlink:href="Database_8hpp.html" target="_top" xlink:title=" ">
<polygon fill="white" stroke="#666666" points="315.88,-132 239.12,-132 239.12,-112 315.88,-112 315.88,-132"/>
<text text-anchor="middle" x="277.5" y="-118.5" font-family="Helvetica,sans-Serif" font-size="10.00">Database.hpp</text>
</a>
</g>
</g>
<!-- Node4&#45;&gt;Node8 -->
<g id="edge7_Node000004_Node000008" class="edge">
<title>Node4&#45;&gt;Node8</title>
<g id="a_edge7_Node000004_Node000008"><a xlink:title=" ">
<path fill="none" stroke="#63b8ff" d="M816.38,-174.32C726.19,-165.73 443.29,-138.79 327.58,-127.77"/>
<polygon fill="#63b8ff" stroke="#63b8ff" points="328.06,-124.3 317.77,-126.84 327.39,-131.27 328.06,-124.3"/>
</a>
</g>
</g>
<!-- Node4&#45;&gt;Node13 -->
<g id="edge35_Node000004_Node000013" class="edge">
<title>Node4&#45;&gt;Node13</title>
<g id="a_edge35_Node000004_Node000013"><a xlink:title=" ">
<path fill="none" stroke="#63b8ff" d="M816.32,-175.69C733.81,-171.55 497.13,-157.55 474.5,-132 459.68,-115.26 481.57,-95.61 501.96,-82.34"/>
<polygon fill="#63b8ff" stroke="#63b8ff" points="503.71,-85.37 510.4,-77.16 500.05,-79.41 503.71,-85.37"/>
</a>
</g>
</g>
<!-- Node4&#45;&gt;Node17 -->
<g id="edge17_Node000004_Node000017" class="edge">
<title>Node4&#45;&gt;Node17</title>
<g id="a_edge17_Node000004_Node000017"><a xlink:title=" ">
<path fill="none" stroke="#63b8ff" d="M816.35,-172.02C768.4,-163.53 669.68,-146.05 604.02,-134.42"/>
<polygon fill="#63b8ff" stroke="#63b8ff" points="604.92,-131.03 594.47,-132.73 603.7,-137.92 604.92,-131.03"/>
</a>
</g>
</g>
<!-- Node4&#45;&gt;Node20 -->
<g id="edge20_Node000004_Node000020" class="edge">
<title>Node4&#45;&gt;Node20</title>
<g id="a_edge20_Node000004_Node000020"><a xlink:title=" ">
<path fill="none" stroke="#63b8ff" d="M859.48,-167.59C872.23,-159.59 890.79,-147.93 905.74,-138.54"/>
<polygon fill="#63b8ff" stroke="#63b8ff" points="907.51,-141.57 914.12,-133.28 903.79,-135.64 907.51,-141.57"/>
</a>
</g>
</g>
<!-- Node4&#45;&gt;Node21 -->
<g id="edge23_Node000004_Node000021" class="edge">
<title>Node4&#45;&gt;Node21</title>
<g id="a_edge23_Node000004_Node000021"><a xlink:title=" ">
<path fill="none" stroke="#63b8ff" d="M872.87,-170.16C909.44,-161.34 973.66,-145.86 1018.51,-135.05"/>
<polygon fill="#63b8ff" stroke="#63b8ff" points="1019.09,-138.51 1027.99,-132.77 1017.45,-131.71 1019.09,-138.51"/>
</a>
</g>
</g>
<!-- Node4&#45;&gt;Node22 -->
<g id="edge26_Node000004_Node000022" class="edge">
<title>Node4&#45;&gt;Node22</title>
<g id="a_edge26_Node000004_Node000022"><a xlink:title=" ">
<path fill="none" stroke="#63b8ff" d="M872.84,-172.85C930.14,-164.47 1061.25,-145.28 1143.08,-133.3"/>
<polygon fill="#63b8ff" stroke="#63b8ff" points="1143.4,-136.8 1152.79,-131.88 1142.39,-129.87 1143.4,-136.8"/>
</a>
</g>
</g>
<!-- Node4&#45;&gt;Node23 -->
<g id="edge29_Node000004_Node000023" class="edge">
<title>Node4&#45;&gt;Node23</title>
<g id="a_edge29_Node000004_Node000023"><a xlink:title=" ">
<path fill="none" stroke="#63b8ff" d="M872.65,-174.35C940.56,-167.9 1119.06,-150.65 1279.05,-132.26"/>
<polygon fill="#63b8ff" stroke="#63b8ff" points="1279.01,-135.79 1288.55,-131.16 1278.21,-128.83 1279.01,-135.79"/>
</a>
</g>
</g>
<!-- Node4&#45;&gt;Node24 -->
<g id="edge32_Node000004_Node000024" class="edge">
<title>Node4&#45;&gt;Node24</title>
<g id="a_edge32_Node000004_Node000024"><a xlink:title=" ">
<path fill="none" stroke="#63b8ff" d="M872.76,-175.3C955.16,-170.23 1202.46,-154.27 1419.16,-132.19"/>
<polygon fill="#63b8ff" stroke="#63b8ff" points="1419.34,-135.69 1428.93,-131.19 1418.63,-128.73 1419.34,-135.69"/>
</a>
</g>
</g>
<!-- Node9 -->
<g id="Node000009" class="node">
<title>Node9</title>
<g id="a_Node000009"><a xlink:title=" ">
<polygon fill="#e0e0e0" stroke="#999999" points="109.62,-76 61.38,-76 61.38,-56 109.62,-56 109.62,-76"/>
<text text-anchor="middle" x="85.5" y="-62.5" font-family="Helvetica,sans-Serif" font-size="10.00">cstddef</text>
</a>
</g>
</g>
<!-- Node8&#45;&gt;Node9 -->
<g id="edge8_Node000008_Node000009" class="edge">
<title>Node8&#45;&gt;Node9</title>
<g id="a_edge8_Node000008_Node000009"><a xlink:title=" ">
<path fill="none" stroke="#63b8ff" d="M244.06,-111.59C209.54,-101.89 155.92,-86.81 120.76,-76.92"/>
<polygon fill="#63b8ff" stroke="#63b8ff" points="122.07,-73.65 111.49,-74.31 120.17,-80.39 122.07,-73.65"/>
</a>
</g>
</g>
<!-- Node10 -->
<g id="Node000010" class="node">
<title>Node10</title>
<g id="a_Node000010"><a xlink:title=" ">
<polygon fill="#e0e0e0" stroke="#999999" points="181.25,-76 127.75,-76 127.75,-56 181.25,-56 181.25,-76"/>
<text text-anchor="middle" x="154.5" y="-62.5" font-family="Helvetica,sans-Serif" font-size="10.00">iostream</text>
</a>
</g>
</g>
<!-- Node8&#45;&gt;Node10 -->
<g id="edge9_Node000008_Node000010" class="edge">
<title>Node8&#45;&gt;Node10</title>
<g id="a_edge9_Node000008_Node000010"><a xlink:title=" ">
<path fill="none" stroke="#63b8ff" d="M256.08,-111.59C236.88,-103.17 208.46,-90.69 186.56,-81.07"/>
<polygon fill="#63b8ff" stroke="#63b8ff" points="188.04,-77.9 177.48,-77.09 185.23,-84.31 188.04,-77.9"/>
</a>
</g>
</g>
<!-- Node11 -->
<g id="Node000011" class="node">
<title>Node11</title>
<g id="a_Node000011"><a xlink:title=" ">
<polygon fill="#e0e0e0" stroke="#999999" points="249.38,-76 199.62,-76 199.62,-56 249.38,-56 249.38,-76"/>
<text text-anchor="middle" x="224.5" y="-62.5" font-family="Helvetica,sans-Serif" font-size="10.00">optional</text>
</a>
</g>
</g>
<!-- Node8&#45;&gt;Node11 -->
<g id="edge10_Node000008_Node000011" class="edge">
<title>Node8&#45;&gt;Node11</title>
<g id="a_edge10_Node000008_Node000011"><a xlink:title=" ">
<path fill="none" stroke="#63b8ff" d="M268.27,-111.59C260.9,-104.08 250.37,-93.35 241.48,-84.3"/>
<polygon fill="#63b8ff" stroke="#63b8ff" points="244.19,-82.06 234.69,-77.38 239.19,-86.97 244.19,-82.06"/>
</a>
</g>
</g>
<!-- Node12 -->
<g id="Node000012" class="node">
<title>Node12</title>
<g id="a_Node000012"><a xlink:title=" ">
<polygon fill="#e0e0e0" stroke="#999999" points="349,-20 288,-20 288,0 349,0 349,-20"/>
<text text-anchor="middle" x="318.5" y="-6.5" font-family="Helvetica,sans-Serif" font-size="10.00">pqxx/pqxx</text>
</a>
</g>
</g>
<!-- Node8&#45;&gt;Node12 -->
<g id="edge11_Node000008_Node000012" class="edge">
<title>Node8&#45;&gt;Node12</title>
<g id="a_edge11_Node000008_Node000012"><a xlink:title=" ">
<path fill="none" stroke="#63b8ff" d="M279.72,-111.58C282.85,-98.78 289.03,-75.3 296.5,-56 299.79,-47.5 304.08,-38.42 307.99,-30.65"/>
<polygon fill="#63b8ff" stroke="#63b8ff" points="311.09,-32.27 312.6,-21.79 304.88,-29.05 311.09,-32.27"/>
</a>
</g>
</g>
<!-- Node8&#45;&gt;Node13 -->
<g id="edge12_Node000008_Node000013" class="edge">
<title>Node8&#45;&gt;Node13</title>
<g id="a_edge12_Node000008_Node000013"><a xlink:title=" ">
<path fill="none" stroke="#63b8ff" d="M316.04,-114.45C358.45,-106.98 428.79,-93.8 498.17,-76.39"/>
<polygon fill="#63b8ff" stroke="#63b8ff" points="499,-79.79 507.83,-73.93 497.27,-73.01 499,-79.79"/>
</a>
</g>
</g>
<!-- Node14 -->
<g id="Node000014" class="node">
<title>Node14</title>
<g id="a_Node000014"><a xlink:title=" ">
<polygon fill="#e0e0e0" stroke="#999999" points="491.5,-76 433.5,-76 433.5,-56 491.5,-56 491.5,-76"/>
<text text-anchor="middle" x="462.5" y="-62.5" font-family="Helvetica,sans-Serif" font-size="10.00">typeindex</text>
</a>
</g>
</g>
<!-- Node8&#45;&gt;Node14 -->
<g id="edge13_Node000008_Node000014" class="edge">
<title>Node8&#45;&gt;Node14</title>
<g id="a_edge13_Node000008_Node000014"><a xlink:title=" ">
<path fill="none" stroke="#63b8ff" d="M309.72,-111.59C340.98,-102.47 388.48,-88.6 422.22,-78.76"/>
<polygon fill="#63b8ff" stroke="#63b8ff" points="423.01,-82.17 431.63,-76.01 421.05,-75.45 423.01,-82.17"/>
</a>
</g>
</g>
<!-- Node8&#45;&gt;Node15 -->
<g id="edge14_Node000008_Node000015" class="edge">
<title>Node8&#45;&gt;Node15</title>
<g id="a_edge14_Node000008_Node000015"><a xlink:title=" ">
<path fill="none" stroke="#63b8ff" d="M238.66,-114.27C195.83,-106.62 124.69,-93.25 54.29,-76.27"/>
<polygon fill="#63b8ff" stroke="#63b8ff" points="55.47,-72.95 44.92,-73.98 53.81,-79.75 55.47,-72.95"/>
</a>
</g>
</g>
<!-- Node16 -->
<g id="Node000016" class="node">
<title>Node16</title>
<g id="a_Node000016"><a xlink:href="RowDTOAdapter_8hpp.html" target="_top" xlink:title=" ">
<polygon fill="white" stroke="#666666" points="415.38,-76 305.62,-76 305.62,-56 415.38,-56 415.38,-76"/>
<text text-anchor="middle" x="360.5" y="-62.5" font-family="Helvetica,sans-Serif" font-size="10.00">RowDTOAdapter.hpp</text>
</a>
</g>
</g>
<!-- Node8&#45;&gt;Node16 -->
<g id="edge15_Node000008_Node000016" class="edge">
<title>Node8&#45;&gt;Node16</title>
<g id="a_edge15_Node000008_Node000016"><a xlink:title=" ">
<path fill="none" stroke="#63b8ff" d="M291.96,-111.59C304.26,-103.59 322.18,-91.93 336.61,-82.54"/>
<polygon fill="#63b8ff" stroke="#63b8ff" points="338.19,-85.69 344.66,-77.3 334.37,-79.82 338.19,-85.69"/>
</a>
</g>
</g>
<!-- Node16&#45;&gt;Node12 -->
<g id="edge16_Node000016_Node000012" class="edge">
<title>Node16&#45;&gt;Node12</title>
<g id="a_edge16_Node000016_Node000012"><a xlink:title=" ">
<path fill="none" stroke="#63b8ff" d="M353.18,-55.59C347.52,-48.32 339.51,-38.02 332.61,-29.15"/>
<polygon fill="#63b8ff" stroke="#63b8ff" points="335.56,-27.24 326.66,-21.49 330.04,-31.54 335.56,-27.24"/>
</a>
</g>
</g>
<!-- Node18 -->
<g id="Node000018" class="node">
<title>Node18</title>
<g id="a_Node000018"><a xlink:title=" ">
<polygon fill="#e0e0e0" stroke="#999999" points="1298.62,-76 1226.38,-76 1226.38,-56 1298.62,-56 1298.62,-76"/>
<text text-anchor="middle" x="1262.5" y="-62.5" font-family="Helvetica,sans-Serif" font-size="10.00">dpp/cluster.h</text>
</a>
</g>
</g>
<!-- Node17&#45;&gt;Node18 -->
<g id="edge18_Node000017_Node000018" class="edge">
<title>Node17&#45;&gt;Node18</title>
<g id="a_edge18_Node000017_Node000018"><a xlink:title=" ">
<path fill="none" stroke="#63b8ff" d="M595.49,-112.96C598.53,-112.61 601.55,-112.29 604.5,-112 872.39,-85.63 944.85,-110.16 1214.88,-76.15"/>
<polygon fill="#63b8ff" stroke="#63b8ff" points="1215.24,-79.63 1224.72,-74.9 1214.36,-72.69 1215.24,-79.63"/>
</a>
</g>
</g>
<!-- Node19 -->
<g id="Node000019" class="node">
<title>Node19</title>
<g id="a_Node000019"><a xlink:title=" ">
<polygon fill="#e0e0e0" stroke="#999999" points="1208.5,-76 1120.5,-76 1120.5,-56 1208.5,-56 1208.5,-76"/>
<text text-anchor="middle" x="1164.5" y="-62.5" font-family="Helvetica,sans-Serif" font-size="10.00">dpp/dispatcher.h</text>
</a>
</g>
</g>
<!-- Node17&#45;&gt;Node19 -->
<g id="edge19_Node000017_Node000019" class="edge">
<title>Node17&#45;&gt;Node19</title>
<g id="a_edge19_Node000017_Node000019"><a xlink:title=" ">
<path fill="none" stroke="#63b8ff" d="M595.49,-113.04C598.54,-112.67 601.56,-112.32 604.5,-112 788.7,-91.86 1007.91,-76.83 1108.73,-70.42"/>
<polygon fill="#63b8ff" stroke="#63b8ff" points="1108.87,-73.92 1118.62,-69.79 1108.42,-66.93 1108.87,-73.92"/>
</a>
</g>
</g>
<!-- Node20&#45;&gt;Node18 -->
<g id="edge21_Node000020_Node000018" class="edge">
<title>Node20&#45;&gt;Node18</title>
<g id="a_edge21_Node000020_Node000018"><a xlink:title=" ">
<path fill="none" stroke="#63b8ff" d="M983.37,-112.98C1048.86,-103.01 1157.89,-86.24 1214.85,-76.39"/>
<polygon fill="#63b8ff" stroke="#63b8ff" points="1215.44,-79.84 1224.68,-74.66 1214.23,-72.95 1215.44,-79.84"/>
</a>
</g>
</g>
<!-- Node20&#45;&gt;Node19 -->
<g id="edge22_Node000020_Node000019" class="edge">
<title>Node20&#45;&gt;Node19</title>
<g id="a_edge22_Node000020_Node000019"><a xlink:title=" ">
<path fill="none" stroke="#63b8ff" d="M971.53,-111.53C1010.75,-102.48 1070.05,-88.8 1112.55,-78.99"/>
<polygon fill="#63b8ff" stroke="#63b8ff" points="1113.09,-82.46 1122.04,-76.8 1111.51,-75.64 1113.09,-82.46"/>
</a>
</g>
</g>
<!-- Node21&#45;&gt;Node18 -->
<g id="edge24_Node000021_Node000018" class="edge">
<title>Node21&#45;&gt;Node18</title>
<g id="a_edge24_Node000021_Node000018"><a xlink:title=" ">
<path fill="none" stroke="#63b8ff" d="M1102.29,-111.59C1134.23,-102.71 1182.35,-89.31 1217.52,-79.52"/>
<polygon fill="#63b8ff" stroke="#63b8ff" points="1218.29,-82.94 1226.99,-76.89 1216.41,-76.2 1218.29,-82.94"/>
</a>
</g>
</g>
<!-- Node21&#45;&gt;Node19 -->
<g id="edge25_Node000021_Node000019" class="edge">
<title>Node21&#45;&gt;Node19</title>
<g id="a_edge25_Node000021_Node000019"><a xlink:title=" ">
<path fill="none" stroke="#63b8ff" d="M1085.22,-111.59C1099.72,-103.44 1120.97,-91.48 1137.82,-82"/>
<polygon fill="#63b8ff" stroke="#63b8ff" points="1139.33,-85.17 1146.33,-77.22 1135.9,-79.07 1139.33,-85.17"/>
</a>
</g>
</g>
<!-- Node22&#45;&gt;Node18 -->
<g id="edge27_Node000022_Node000018" class="edge">
<title>Node22&#45;&gt;Node18</title>
<g id="a_edge27_Node000022_Node000018"><a xlink:title=" ">
<path fill="none" stroke="#63b8ff" d="M1222.04,-111.59C1228.78,-104.16 1238.39,-93.58 1246.54,-84.58"/>
<polygon fill="#63b8ff" stroke="#63b8ff" points="1248.92,-87.18 1253.05,-77.42 1243.73,-82.47 1248.92,-87.18"/>
</a>
</g>
</g>
<!-- Node22&#45;&gt;Node19 -->
<g id="edge28_Node000022_Node000019" class="edge">
<title>Node22&#45;&gt;Node19</title>
<g id="a_edge28_Node000022_Node000019"><a xlink:title=" ">
<path fill="none" stroke="#63b8ff" d="M1204.96,-111.59C1198.22,-104.16 1188.61,-93.58 1180.46,-84.58"/>
<polygon fill="#63b8ff" stroke="#63b8ff" points="1183.27,-82.47 1173.95,-77.42 1178.08,-87.18 1183.27,-82.47"/>
</a>
</g>
</g>
<!-- Node23&#45;&gt;Node18 -->
<g id="edge30_Node000023_Node000018" class="edge">
<title>Node23&#45;&gt;Node18</title>
<g id="a_edge30_Node000023_Node000018"><a xlink:title=" ">
<path fill="none" stroke="#63b8ff" d="M1336,-111.59C1322.68,-103.51 1303.22,-91.71 1287.67,-82.27"/>
<polygon fill="#63b8ff" stroke="#63b8ff" points="1289.78,-79.46 1279.42,-77.26 1286.15,-85.44 1289.78,-79.46"/>
</a>
</g>
</g>
<!-- Node23&#45;&gt;Node19 -->
<g id="edge31_Node000023_Node000019" class="edge">
<title>Node23&#45;&gt;Node19</title>
<g id="a_edge31_Node000023_Node000019"><a xlink:title=" ">
<path fill="none" stroke="#63b8ff" d="M1318.93,-111.59C1288.28,-102.74 1242.16,-89.43 1208.3,-79.65"/>
<polygon fill="#63b8ff" stroke="#63b8ff" points="1209.36,-76.31 1198.78,-76.9 1207.42,-83.04 1209.36,-76.31"/>
</a>
</g>
</g>
<!-- Node24&#45;&gt;Node18 -->
<g id="edge33_Node000024_Node000018" class="edge">
<title>Node24&#45;&gt;Node18</title>
<g id="a_edge33_Node000024_Node000018"><a xlink:title=" ">
<path fill="none" stroke="#63b8ff" d="M1451.35,-111.53C1411.87,-102.22 1351.61,-88.01 1309.82,-78.16"/>
<polygon fill="#63b8ff" stroke="#63b8ff" points="1310.83,-74.8 1300.3,-75.91 1309.23,-81.61 1310.83,-74.8"/>
</a>
</g>
</g>
<!-- Node24&#45;&gt;Node19 -->
<g id="edge34_Node000024_Node000019" class="edge">
<title>Node24&#45;&gt;Node19</title>
<g id="a_edge34_Node000024_Node000019"><a xlink:title=" ">
<path fill="none" stroke="#63b8ff" d="M1433.22,-111.52C1380.24,-102.89 1299.56,-89.68 1219.96,-76.4"/>
<polygon fill="#63b8ff" stroke="#63b8ff" points="1220.68,-72.98 1210.24,-74.78 1219.52,-79.88 1220.68,-72.98"/>
</a>
</g>
</g>
<!-- Node25&#45;&gt;Node18 -->
<g id="edge43_Node000025_Node000018" class="edge">
<title>Node25&#45;&gt;Node18</title>
<g id="a_edge43_Node000025_Node000018"><a xlink:title=" ">
<path fill="none" stroke="#63b8ff" d="M1570.52,-113.73C1567.48,-113.12 1564.43,-112.53 1561.5,-112 1473.14,-95.9 1369.33,-81.22 1310.2,-73.25"/>
<polygon fill="#63b8ff" stroke="#63b8ff" points="1310.86,-69.81 1300.48,-71.95 1309.93,-76.75 1310.86,-69.81"/>
</a>
</g>
</g>
<!-- Node25&#45;&gt;Node19 -->
<g id="edge44_Node000025_Node000019" class="edge">
<title>Node25&#45;&gt;Node19</title>
<g id="a_edge44_Node000025_Node000019"><a xlink:title=" ">
<path fill="none" stroke="#63b8ff" d="M1570.55,-113.59C1567.5,-113.01 1564.45,-112.47 1561.5,-112 1413.24,-88.43 1371.73,-96.47 1219.84,-76.23"/>
<polygon fill="#63b8ff" stroke="#63b8ff" points="1220.59,-72.8 1210.21,-74.93 1219.65,-79.74 1220.59,-72.8"/>
</a>
</g>
</g>
<!-- Node28&#45;&gt;Node3 -->
<g id="edge50_Node000028_Node000003" class="edge">
<title>Node28&#45;&gt;Node3</title>
<g id="a_edge50_Node000028_Node000003"><a xlink:title=" ">
<path fill="none" stroke="#63b8ff" d="M1151.47,-279.59C1133.69,-271.24 1107.43,-258.92 1087.04,-249.34"/>
<polygon fill="#63b8ff" stroke="#63b8ff" points="1088.6,-246.21 1078.06,-245.12 1085.62,-252.54 1088.6,-246.21"/>
</a>
</g>
</g>
<!-- Node29&#45;&gt;Node3 -->
<g id="edge52_Node000029_Node000003" class="edge">
<title>Node29&#45;&gt;Node3</title>
<g id="a_edge52_Node000029_Node000003"><a xlink:title=" ">
<path fill="none" stroke="#63b8ff" d="M967.31,-279.59C983.86,-271.32 1008.21,-259.14 1027.29,-249.6"/>
<polygon fill="#63b8ff" stroke="#63b8ff" points="1028.81,-252.76 1036.19,-245.16 1025.68,-246.5 1028.81,-252.76"/>
</a>
</g>
</g>
</g>
</svg>
