<?xml version="1.0" encoding="UTF-8" standalone="no"?>
<!DOCTYPE svg PUBLIC "-//W3C//DTD SVG 1.1//EN"
 "http://www.w3.org/Graphics/SVG/1.1/DTD/svg11.dtd">
<!-- Generated by graphviz version 9.0.0 (0)
 -->
<!-- Title: src/bot_library/commands/Commands.cpp Pages: 1 -->
<svg width="1571pt" height="376pt"
 viewBox="0.00 0.00 1570.75 376.00" xmlns="http://www.w3.org/2000/svg" xmlns:xlink="http://www.w3.org/1999/xlink">
<g id="graph0" class="graph" transform="scale(1 1) rotate(0) translate(4 372)">
<title>src/bot_library/commands/Commands.cpp</title>
<!-- Node1 -->
<g id="Node000001" class="node">
<title>Node1</title>
<g id="a_Node000001"><a xlink:title=" ">
<polygon fill="#999999" stroke="#666666" points="904,-368 775.5,-368 775.5,-336 904,-336 904,-368"/>
<text text-anchor="start" x="783.5" y="-354.5" font-family="Helvetica,sans-Serif" font-size="10.00">src/bot_library/commands</text>
<text text-anchor="middle" x="839.75" y="-342.5" font-family="Helvetica,sans-Serif" font-size="10.00">/Commands.cpp</text>
</a>
</g>
</g>
<!-- Node2 -->
<g id="Node000002" class="node">
<title>Node2</title>
<g id="a_Node000002"><a xlink:href="Commands_8hpp.html" target="_top" xlink:title=" ">
<polygon fill="white" stroke="#666666" points="712.25,-300 627.25,-300 627.25,-280 712.25,-280 712.25,-300"/>
<text text-anchor="middle" x="669.75" y="-286.5" font-family="Helvetica,sans-Serif" font-size="10.00">Commands.hpp</text>
</a>
</g>
</g>
<!-- Node1&#45;&gt;Node2 -->
<g id="edge1_Node000001_Node000002" class="edge">
<title>Node1&#45;&gt;Node2</title>
<g id="a_edge1_Node000001_Node000002"><a xlink:title=" ">
<path fill="none" stroke="#63b8ff" d="M795.97,-335.55C768.51,-325.86 733.48,-313.49 707.29,-304.25"/>
<polygon fill="#63b8ff" stroke="#63b8ff" points="708.68,-301.03 698.08,-301 706.35,-307.63 708.68,-301.03"/>
</a>
</g>
</g>
<!-- Node28 -->
<g id="Node000028" class="node">
<title>Node28</title>
<g id="a_Node000028"><a xlink:title=" ">
<polygon fill="#e0e0e0" stroke="#999999" points="1431.38,-188 1380.12,-188 1380.12,-168 1431.38,-168 1431.38,-188"/>
<text text-anchor="middle" x="1405.75" y="-174.5" font-family="Helvetica,sans-Serif" font-size="10.00">memory</text>
</a>
</g>
</g>
<!-- Node1&#45;&gt;Node28 -->
<g id="edge63_Node000001_Node000028" class="edge">
<title>Node1&#45;&gt;Node28</title>
<g id="a_edge63_Node000001_Node000028"><a xlink:title=" ">
<path fill="none" stroke="#63b8ff" d="M890.1,-335.6C912.7,-327.23 938.9,-315.4 959.75,-300 995.26,-273.76 984.74,-244.7 1023.75,-224 1091.25,-188.18 1290.34,-200.41 1365.75,-188 1366.76,-187.83 1367.79,-187.66 1368.83,-187.47"/>
<polygon fill="#63b8ff" stroke="#63b8ff" points="1369.4,-190.93 1378.53,-185.55 1368.04,-184.06 1369.4,-190.93"/>
</a>
</g>
</g>
<!-- Node29 -->
<g id="Node000029" class="node">
<title>Node29</title>
<g id="a_Node000029"><a xlink:href="ChallengeRoleCommand_8hpp.html" target="_top" xlink:title=" ">
<polygon fill="white" stroke="#666666" points="1150.5,-300 1007,-300 1007,-280 1150.5,-280 1150.5,-300"/>
<text text-anchor="middle" x="1078.75" y="-286.5" font-family="Helvetica,sans-Serif" font-size="10.00">ChallengeRoleCommand.hpp</text>
</a>
</g>
</g>
<!-- Node1&#45;&gt;Node29 -->
<g id="edge51_Node000001_Node000029" class="edge">
<title>Node1&#45;&gt;Node29</title>
<g id="a_edge51_Node000001_Node000029"><a xlink:title=" ">
<path fill="none" stroke="#63b8ff" d="M901.3,-335.55C941.28,-325.51 992.69,-312.61 1029.87,-303.27"/>
<polygon fill="#63b8ff" stroke="#63b8ff" points="1030.61,-306.69 1039.46,-300.86 1028.9,-299.91 1030.61,-306.69"/>
</a>
</g>
</g>
<!-- Node32 -->
<g id="Node000032" class="node">
<title>Node32</title>
<g id="a_Node000032"><a xlink:href="HelpCommand_8hpp.html" target="_top" xlink:title=" ">
<polygon fill="white" stroke="#666666" points="830.75,-300 730.75,-300 730.75,-280 830.75,-280 830.75,-300"/>
<text text-anchor="middle" x="780.75" y="-286.5" font-family="Helvetica,sans-Serif" font-size="10.00">HelpCommand.hpp</text>
</a>
</g>
</g>
<!-- Node1&#45;&gt;Node32 -->
<g id="edge56_Node000001_Node000032" class="edge">
<title>Node1&#45;&gt;Node32</title>
<g id="a_edge56_Node000001_Node000032"><a xlink:title=" ">
<path fill="none" stroke="#63b8ff" d="M824.56,-335.55C816.45,-327.3 806.44,-317.12 798.03,-308.57"/>
<polygon fill="#63b8ff" stroke="#63b8ff" points="800.57,-306.16 791.06,-301.49 795.58,-311.07 800.57,-306.16"/>
</a>
</g>
</g>
<!-- Node33 -->
<g id="Node000033" class="node">
<title>Node33</title>
<g id="a_Node000033"><a xlink:href="PongCommand_8hpp.html" target="_top" xlink:title=" ">
<polygon fill="white" stroke="#666666" points="950.88,-300 848.62,-300 848.62,-280 950.88,-280 950.88,-300"/>
<text text-anchor="middle" x="899.75" y="-286.5" font-family="Helvetica,sans-Serif" font-size="10.00">PongCommand.hpp</text>
</a>
</g>
</g>
<!-- Node1&#45;&gt;Node33 -->
<g id="edge58_Node000001_Node000033" class="edge">
<title>Node1&#45;&gt;Node33</title>
<g id="a_edge58_Node000001_Node000033"><a xlink:title=" ">
<path fill="none" stroke="#63b8ff" d="M855.2,-335.55C863.53,-327.22 873.84,-316.91 882.45,-308.3"/>
<polygon fill="#63b8ff" stroke="#63b8ff" points="884.68,-311.02 889.27,-301.48 879.73,-306.07 884.68,-311.02"/>
</a>
</g>
</g>
<!-- Node34 -->
<g id="Node000034" class="node">
<title>Node34</title>
<g id="a_Node000034"><a xlink:href="SetChannelCommand_8hpp.html" target="_top" xlink:title=" ">
<polygon fill="white" stroke="#666666" points="609.12,-300 478.38,-300 478.38,-280 609.12,-280 609.12,-300"/>
<text text-anchor="middle" x="543.75" y="-286.5" font-family="Helvetica,sans-Serif" font-size="10.00">SetChannelCommand.hpp</text>
</a>
</g>
</g>
<!-- Node1&#45;&gt;Node34 -->
<g id="edge60_Node000001_Node000034" class="edge">
<title>Node1&#45;&gt;Node34</title>
<g id="a_edge60_Node000001_Node000034"><a xlink:title=" ">
<path fill="none" stroke="#63b8ff" d="M775.16,-337.91C723.39,-327.41 651.42,-312.83 601.54,-302.71"/>
<polygon fill="#63b8ff" stroke="#63b8ff" points="602.29,-299.3 591.79,-300.74 600.9,-306.16 602.29,-299.3"/>
</a>
</g>
</g>
<!-- Node3 -->
<g id="Node000003" class="node">
<title>Node3</title>
<g id="a_Node000003"><a xlink:href="Bot_8hpp.html" target="_top" xlink:title=" ">
<polygon fill="white" stroke="#666666" points="750.62,-244 700.88,-244 700.88,-224 750.62,-224 750.62,-244"/>
<text text-anchor="middle" x="725.75" y="-230.5" font-family="Helvetica,sans-Serif" font-size="10.00">Bot.hpp</text>
</a>
</g>
</g>
<!-- Node2&#45;&gt;Node3 -->
<g id="edge2_Node000002_Node000003" class="edge">
<title>Node2&#45;&gt;Node3</title>
<g id="a_edge2_Node000002_Node000003"><a xlink:title=" ">
<path fill="none" stroke="#63b8ff" d="M679.5,-279.59C687.37,-272.01 698.65,-261.13 708.1,-252.02"/>
<polygon fill="#63b8ff" stroke="#63b8ff" points="710.25,-254.81 715.02,-245.35 705.39,-249.77 710.25,-254.81"/>
</a>
</g>
</g>
<!-- Node4 -->
<g id="Node000004" class="node">
<title>Node4</title>
<g id="a_Node000004"><a xlink:href="Core_8hpp.html" target="_top" xlink:title=" ">
<polygon fill="white" stroke="#666666" points="816.62,-188 760.88,-188 760.88,-168 816.62,-168 816.62,-188"/>
<text text-anchor="middle" x="788.75" y="-174.5" font-family="Helvetica,sans-Serif" font-size="10.00">Core.hpp</text>
</a>
</g>
</g>
<!-- Node3&#45;&gt;Node4 -->
<g id="edge3_Node000003_Node000004" class="edge">
<title>Node3&#45;&gt;Node4</title>
<g id="a_edge3_Node000003_Node000004"><a xlink:title=" ">
<path fill="none" stroke="#63b8ff" d="M736.72,-223.59C745.67,-215.93 758.52,-204.91 769.21,-195.75"/>
<polygon fill="#63b8ff" stroke="#63b8ff" points="771.44,-198.45 776.75,-189.28 766.88,-193.13 771.44,-198.45"/>
</a>
</g>
</g>
<!-- Node13 -->
<g id="Node000013" class="node">
<title>Node13</title>
<g id="a_Node000013"><a xlink:title=" ">
<polygon fill="#e0e0e0" stroke="#999999" points="1562.75,-76 1522.75,-76 1522.75,-56 1562.75,-56 1562.75,-76"/>
<text text-anchor="middle" x="1542.75" y="-62.5" font-family="Helvetica,sans-Serif" font-size="10.00">string</text>
</a>
</g>
</g>
<!-- Node3&#45;&gt;Node13 -->
<g id="edge49_Node000003_Node000013" class="edge">
<title>Node3&#45;&gt;Node13</title>
<g id="a_edge49_Node000003_Node000013"><a xlink:title=" ">
<path fill="none" stroke="#63b8ff" d="M750.9,-230.78C809.98,-225.37 962.1,-210.29 1087.75,-188 1196.45,-168.72 1223.1,-160.53 1329.75,-132 1394.96,-114.55 1470.29,-90.67 1511.61,-77.25"/>
<polygon fill="#63b8ff" stroke="#63b8ff" points="1512.46,-80.65 1520.89,-74.22 1510.29,-74 1512.46,-80.65"/>
</a>
</g>
</g>
<!-- Node15 -->
<g id="Node000015" class="node">
<title>Node15</title>
<g id="a_Node000015"><a xlink:title=" ">
<polygon fill="#e0e0e0" stroke="#999999" points="1056.25,-76 1013.25,-76 1013.25,-56 1056.25,-56 1056.25,-76"/>
<text text-anchor="middle" x="1034.75" y="-62.5" font-family="Helvetica,sans-Serif" font-size="10.00">vector</text>
</a>
</g>
</g>
<!-- Node3&#45;&gt;Node15 -->
<g id="edge50_Node000003_Node000015" class="edge">
<title>Node3&#45;&gt;Node15</title>
<g id="a_edge50_Node000003_Node000015"><a xlink:title=" ">
<path fill="none" stroke="#63b8ff" d="M750.88,-231.17C835.92,-224.41 1110.47,-197.75 1162.75,-132 1168.28,-125.04 1167.89,-119.25 1162.75,-112 1159.86,-107.92 1104.41,-89.43 1067.45,-77.46"/>
<polygon fill="#63b8ff" stroke="#63b8ff" points="1068.69,-74.18 1058.09,-74.44 1066.54,-80.84 1068.69,-74.18"/>
</a>
</g>
</g>
<!-- Node17 -->
<g id="Node000017" class="node">
<title>Node17</title>
<g id="a_Node000017"><a xlink:href="IButtonCommand_8hpp.html" target="_top" xlink:title=" ">
<polygon fill="white" stroke="#666666" points="331.38,-132 220.12,-132 220.12,-112 331.38,-112 331.38,-132"/>
<text text-anchor="middle" x="275.75" y="-118.5" font-family="Helvetica,sans-Serif" font-size="10.00">IButtonCommand.hpp</text>
</a>
</g>
</g>
<!-- Node3&#45;&gt;Node17 -->
<g id="edge38_Node000003_Node000017" class="edge">
<title>Node3&#45;&gt;Node17</title>
<g id="a_edge38_Node000003_Node000017"><a xlink:title=" ">
<path fill="none" stroke="#63b8ff" d="M700.57,-227.48C664.23,-219.41 595.07,-203.63 536.75,-188 506.73,-179.95 499.79,-175.96 469.75,-168 423.36,-155.71 370.25,-143.52 331.34,-134.93"/>
<polygon fill="#63b8ff" stroke="#63b8ff" points="332.24,-131.55 321.73,-132.82 330.74,-138.38 332.24,-131.55"/>
</a>
</g>
</g>
<!-- Node20 -->
<g id="Node000020" class="node">
<title>Node20</title>
<g id="a_Node000020"><a xlink:href="IFormCommand_8hpp.html" target="_top" xlink:title=" ">
<polygon fill="white" stroke="#666666" points="735.38,-132 630.12,-132 630.12,-112 735.38,-112 735.38,-132"/>
<text text-anchor="middle" x="682.75" y="-118.5" font-family="Helvetica,sans-Serif" font-size="10.00">IFormCommand.hpp</text>
</a>
</g>
</g>
<!-- Node3&#45;&gt;Node20 -->
<g id="edge39_Node000003_Node000020" class="edge">
<title>Node3&#45;&gt;Node20</title>
<g id="a_edge39_Node000003_Node000020"><a xlink:title=" ">
<path fill="none" stroke="#63b8ff" d="M719.4,-223.72C713.58,-214.88 705.1,-201.02 699.75,-188 693.77,-173.45 689.37,-156.18 686.55,-143.11"/>
<polygon fill="#63b8ff" stroke="#63b8ff" points="690.03,-142.67 684.62,-133.56 683.17,-144.06 690.03,-142.67"/>
</a>
</g>
</g>
<!-- Node21 -->
<g id="Node000021" class="node">
<title>Node21</title>
<g id="a_Node000021"><a xlink:href="IGlobalSlashCommand_8hpp.html" target="_top" xlink:title=" ">
<polygon fill="white" stroke="#666666" points="1153.38,-132 1018.12,-132 1018.12,-112 1153.38,-112 1153.38,-132"/>
<text text-anchor="middle" x="1085.75" y="-118.5" font-family="Helvetica,sans-Serif" font-size="10.00">IGlobalSlashCommand.hpp</text>
</a>
</g>
</g>
<!-- Node3&#45;&gt;Node21 -->
<g id="edge40_Node000003_Node000021" class="edge">
<title>Node3&#45;&gt;Node21</title>
<g id="a_edge40_Node000003_Node000021"><a xlink:title=" ">
<path fill="none" stroke="#63b8ff" d="M751.06,-225.27C812.19,-206.59 968.33,-158.88 1043.74,-135.84"/>
<polygon fill="#63b8ff" stroke="#63b8ff" points="1044.7,-139.2 1053.24,-132.93 1042.66,-132.51 1044.7,-139.2"/>
</a>
</g>
</g>
<!-- Node23 -->
<g id="Node000023" class="node">
<title>Node23</title>
<g id="a_Node000023"><a xlink:href="IMemberCommand_8hpp.html" target="_top" xlink:title=" ">
<polygon fill="white" stroke="#666666" points="201.75,-132 83.75,-132 83.75,-112 201.75,-112 201.75,-132"/>
<text text-anchor="middle" x="142.75" y="-118.5" font-family="Helvetica,sans-Serif" font-size="10.00">IMemberCommand.hpp</text>
</a>
</g>
</g>
<!-- Node3&#45;&gt;Node23 -->
<g id="edge41_Node000003_Node000023" class="edge">
<title>Node3&#45;&gt;Node23</title>
<g id="a_edge41_Node000003_Node000023"><a xlink:title=" ">
<path fill="none" stroke="#63b8ff" d="M700.64,-228.78C654.75,-221.02 554.25,-203.82 469.75,-188 375.02,-170.26 265.19,-148.1 199.97,-134.77"/>
<polygon fill="#63b8ff" stroke="#63b8ff" points="200.7,-131.35 190.2,-132.78 199.3,-138.21 200.7,-131.35"/>
</a>
</g>
</g>
<!-- Node24 -->
<g id="Node000024" class="node">
<title>Node24</title>
<g id="a_Node000024"><a xlink:href="IMessageCommand_8hpp.html" target="_top" xlink:title=" ">
<polygon fill="white" stroke="#666666" points="612,-132 489.5,-132 489.5,-112 612,-112 612,-132"/>
<text text-anchor="middle" x="550.75" y="-118.5" font-family="Helvetica,sans-Serif" font-size="10.00">IMessageCommand.hpp</text>
</a>
</g>
</g>
<!-- Node3&#45;&gt;Node24 -->
<g id="edge42_Node000003_Node000024" class="edge">
<title>Node3&#45;&gt;Node24</title>
<g id="a_edge42_Node000003_Node000024"><a xlink:title=" ">
<path fill="none" stroke="#63b8ff" d="M710.83,-223.62C680.61,-204.63 611.92,-161.45 575.11,-138.31"/>
<polygon fill="#63b8ff" stroke="#63b8ff" points="577.24,-135.52 566.91,-133.16 573.52,-141.45 577.24,-135.52"/>
</a>
</g>
</g>
<!-- Node25 -->
<g id="Node000025" class="node">
<title>Node25</title>
<g id="a_Node000025"><a xlink:href="IReactionCommand_8hpp.html" target="_top" xlink:title=" ">
<polygon fill="white" stroke="#666666" points="471.62,-132 349.88,-132 349.88,-112 471.62,-112 471.62,-132"/>
<text text-anchor="middle" x="410.75" y="-118.5" font-family="Helvetica,sans-Serif" font-size="10.00">IReactionCommand.hpp</text>
</a>
</g>
</g>
<!-- Node3&#45;&gt;Node25 -->
<g id="edge43_Node000003_Node000025" class="edge">
<title>Node3&#45;&gt;Node25</title>
<g id="a_edge43_Node000003_Node000025"><a xlink:title=" ">
<path fill="none" stroke="#63b8ff" d="M700.5,-224.18C645.3,-204.91 513.6,-158.92 448.5,-136.18"/>
<polygon fill="#63b8ff" stroke="#63b8ff" points="449.92,-132.97 439.33,-132.98 447.61,-139.58 449.92,-132.97"/>
</a>
</g>
</g>
<!-- Node26 -->
<g id="Node000026" class="node">
<title>Node26</title>
<g id="a_Node000026"><a xlink:href="IReady_8hpp.html" target="_top" xlink:title=" ">
<polygon fill="white" stroke="#666666" points="65.5,-132 0,-132 0,-112 65.5,-112 65.5,-132"/>
<text text-anchor="middle" x="32.75" y="-118.5" font-family="Helvetica,sans-Serif" font-size="10.00">IReady.hpp</text>
</a>
</g>
</g>
<!-- Node3&#45;&gt;Node26 -->
<g id="edge44_Node000003_Node000026" class="edge">
<title>Node3&#45;&gt;Node26</title>
<g id="a_edge44_Node000003_Node000026"><a xlink:title=" ">
<path fill="none" stroke="#63b8ff" d="M700.5,-230.39C641.88,-224.2 492.11,-207.68 367.75,-188 240.38,-167.84 206.52,-158.83 76.91,-132.41"/>
<polygon fill="#63b8ff" stroke="#63b8ff" points="77.73,-129.01 67.23,-130.45 76.34,-135.87 77.73,-129.01"/>
</a>
</g>
</g>
<!-- Node27 -->
<g id="Node000027" class="node">
<title>Node27</title>
<g id="a_Node000027"><a xlink:title=" ">
<polygon fill="#e0e0e0" stroke="#999999" points="743.12,-188 708.38,-188 708.38,-168 743.12,-168 743.12,-188"/>
<text text-anchor="middle" x="725.75" y="-174.5" font-family="Helvetica,sans-Serif" font-size="10.00">map</text>
</a>
</g>
</g>
<!-- Node3&#45;&gt;Node27 -->
<g id="edge47_Node000003_Node000027" class="edge">
<title>Node3&#45;&gt;Node27</title>
<g id="a_edge47_Node000003_Node000027"><a xlink:title=" ">
<path fill="none" stroke="#63b8ff" d="M725.75,-223.59C725.75,-217.01 725.75,-207.96 725.75,-199.73"/>
<polygon fill="#63b8ff" stroke="#63b8ff" points="729.25,-199.81 725.75,-189.81 722.25,-199.81 729.25,-199.81"/>
</a>
</g>
</g>
<!-- Node3&#45;&gt;Node28 -->
<g id="edge48_Node000003_Node000028" class="edge">
<title>Node3&#45;&gt;Node28</title>
<g id="a_edge48_Node000003_Node000028"><a xlink:title=" ">
<path fill="none" stroke="#63b8ff" d="M750.84,-231.74C853.73,-226.52 1243.7,-205.92 1365.75,-188 1366.77,-187.85 1367.8,-187.69 1368.83,-187.52"/>
<polygon fill="#63b8ff" stroke="#63b8ff" points="1369.38,-190.98 1378.55,-185.67 1368.07,-184.1 1369.38,-190.98"/>
</a>
</g>
</g>
<!-- Node5 -->
<g id="Node000005" class="node">
<title>Node5</title>
<g id="a_Node000005"><a xlink:title=" ">
<polygon fill="#e0e0e0" stroke="#999999" points="812.12,-132 753.38,-132 753.38,-112 812.12,-112 812.12,-132"/>
<text text-anchor="middle" x="782.75" y="-118.5" font-family="Helvetica,sans-Serif" font-size="10.00">dpp/dpp.h</text>
</a>
</g>
</g>
<!-- Node4&#45;&gt;Node5 -->
<g id="edge4_Node000004_Node000005" class="edge">
<title>Node4&#45;&gt;Node5</title>
<g id="a_edge4_Node000004_Node000005"><a xlink:title=" ">
<path fill="none" stroke="#63b8ff" d="M787.7,-167.59C786.97,-161.01 785.97,-151.96 785.05,-143.73"/>
<polygon fill="#63b8ff" stroke="#63b8ff" points="788.53,-143.35 783.95,-133.8 781.58,-144.13 788.53,-143.35"/>
</a>
</g>
</g>
<!-- Node6 -->
<g id="Node000006" class="node">
<title>Node6</title>
<g id="a_Node000006"><a xlink:title=" ">
<polygon fill="#e0e0e0" stroke="#999999" points="921.25,-132 830.25,-132 830.25,-112 921.25,-112 921.25,-132"/>
<text text-anchor="middle" x="875.75" y="-118.5" font-family="Helvetica,sans-Serif" font-size="10.00">dpp/misc&#45;enum.h</text>
</a>
</g>
</g>
<!-- Node4&#45;&gt;Node6 -->
<g id="edge5_Node000004_Node000006" class="edge">
<title>Node4&#45;&gt;Node6</title>
<g id="a_edge5_Node000004_Node000006"><a xlink:title=" ">
<path fill="none" stroke="#63b8ff" d="M803.9,-167.59C816.8,-159.59 835.58,-147.93 850.71,-138.54"/>
<polygon fill="#63b8ff" stroke="#63b8ff" points="852.54,-141.53 859.19,-133.28 848.85,-135.58 852.54,-141.53"/>
</a>
</g>
</g>
<!-- Node7 -->
<g id="Node000007" class="node">
<title>Node7</title>
<g id="a_Node000007"><a xlink:title=" ">
<polygon fill="#e0e0e0" stroke="#999999" points="999.88,-132 939.62,-132 939.62,-112 999.88,-112 999.88,-132"/>
<text text-anchor="middle" x="969.75" y="-118.5" font-family="Helvetica,sans-Serif" font-size="10.00">fmt/core.h</text>
</a>
</g>
</g>
<!-- Node4&#45;&gt;Node7 -->
<g id="edge6_Node000004_Node000007" class="edge">
<title>Node4&#45;&gt;Node7</title>
<g id="a_edge6_Node000004_Node000007"><a xlink:title=" ">
<path fill="none" stroke="#63b8ff" d="M817.03,-168.56C846.87,-159.66 894.19,-145.54 928.25,-135.38"/>
<polygon fill="#63b8ff" stroke="#63b8ff" points="929.22,-138.74 937.8,-132.53 927.22,-132.04 929.22,-138.74"/>
</a>
</g>
</g>
<!-- Node8 -->
<g id="Node000008" class="node">
<title>Node8</title>
<g id="a_Node000008"><a xlink:href="Database_8hpp.html" target="_top" xlink:title=" ">
<polygon fill="white" stroke="#666666" points="1286.12,-132 1209.38,-132 1209.38,-112 1286.12,-112 1286.12,-132"/>
<text text-anchor="middle" x="1247.75" y="-118.5" font-family="Helvetica,sans-Serif" font-size="10.00">Database.hpp</text>
</a>
</g>
</g>
<!-- Node4&#45;&gt;Node8 -->
<g id="edge7_Node000004_Node000008" class="edge">
<title>Node4&#45;&gt;Node8</title>
<g id="a_edge7_Node000004_Node000008"><a xlink:title=" ">
<path fill="none" stroke="#63b8ff" d="M817.12,-173.66C892.99,-164.74 1101.39,-140.22 1197.72,-128.89"/>
<polygon fill="#63b8ff" stroke="#63b8ff" points="1197.87,-132.39 1207.39,-127.75 1197.05,-125.44 1197.87,-132.39"/>
</a>
</g>
</g>
<!-- Node4&#45;&gt;Node13 -->
<g id="edge37_Node000004_Node000013" class="edge">
<title>Node4&#45;&gt;Node13</title>
<g id="a_edge37_Node000004_Node000013"><a xlink:title=" ">
<path fill="none" stroke="#63b8ff" d="M816.8,-175.78C909.2,-171.57 1203.28,-156.53 1294.75,-132 1315.11,-126.54 1317.73,-118.6 1337.75,-112 1410.32,-88.07 1434.36,-95.16 1511.78,-76.26"/>
<polygon fill="#63b8ff" stroke="#63b8ff" points="1512.23,-79.76 1521.07,-73.92 1510.52,-72.97 1512.23,-79.76"/>
</a>
</g>
</g>
<!-- Node4&#45;&gt;Node17 -->
<g id="edge17_Node000004_Node000017" class="edge">
<title>Node4&#45;&gt;Node17</title>
<g id="a_edge17_Node000004_Node000017"><a xlink:title=" ">
<path fill="none" stroke="#63b8ff" d="M760.56,-169.68C757.6,-169.05 754.62,-168.47 751.75,-168 574.44,-138.84 524.93,-152.02 343.06,-132.19"/>
<polygon fill="#63b8ff" stroke="#63b8ff" points="343.58,-128.73 333.25,-131.1 342.8,-135.69 343.58,-128.73"/>
</a>
</g>
</g>
<!-- Node4&#45;&gt;Node20 -->
<g id="edge20_Node000004_Node000020" class="edge">
<title>Node4&#45;&gt;Node20</title>
<g id="a_edge20_Node000004_Node000020"><a xlink:title=" ">
<path fill="none" stroke="#63b8ff" d="M770.29,-167.59C754.05,-159.32 730.14,-147.14 711.42,-137.6"/>
<polygon fill="#63b8ff" stroke="#63b8ff" points="713.21,-134.59 702.71,-133.17 710.03,-140.82 713.21,-134.59"/>
</a>
</g>
</g>
<!-- Node4&#45;&gt;Node21 -->
<g id="edge23_Node000004_Node000021" class="edge">
<title>Node4&#45;&gt;Node21</title>
<g id="a_edge23_Node000004_Node000021"><a xlink:title=" ">
<path fill="none" stroke="#63b8ff" d="M816.96,-171.87C863.88,-163.34 959.08,-146.03 1022.65,-134.47"/>
<polygon fill="#63b8ff" stroke="#63b8ff" points="1023.03,-137.96 1032.25,-132.73 1021.78,-131.07 1023.03,-137.96"/>
</a>
</g>
</g>
<!-- Node4&#45;&gt;Node23 -->
<g id="edge28_Node000004_Node000023" class="edge">
<title>Node4&#45;&gt;Node23</title>
<g id="a_edge28_Node000004_Node000023"><a xlink:title=" ">
<path fill="none" stroke="#63b8ff" d="M760.57,-169.62C757.6,-169 754.63,-168.44 751.75,-168 517.18,-131.94 452.49,-155.1 213.22,-132.17"/>
<polygon fill="#63b8ff" stroke="#63b8ff" points="213.86,-128.72 203.57,-131.23 213.18,-135.68 213.86,-128.72"/>
</a>
</g>
</g>
<!-- Node4&#45;&gt;Node24 -->
<g id="edge31_Node000004_Node000024" class="edge">
<title>Node4&#45;&gt;Node24</title>
<g id="a_edge31_Node000004_Node000024"><a xlink:title=" ">
<path fill="none" stroke="#63b8ff" d="M760.48,-170.07C757.53,-169.36 754.58,-168.66 751.75,-168 702.2,-156.43 645.64,-143.82 605.16,-134.9"/>
<polygon fill="#63b8ff" stroke="#63b8ff" points="605.93,-131.48 595.41,-132.75 604.42,-138.32 605.93,-131.48"/>
</a>
</g>
</g>
<!-- Node4&#45;&gt;Node25 -->
<g id="edge34_Node000004_Node000025" class="edge">
<title>Node4&#45;&gt;Node25</title>
<g id="a_edge34_Node000004_Node000025"><a xlink:title=" ">
<path fill="none" stroke="#63b8ff" d="M760.54,-169.81C757.58,-169.15 754.61,-168.53 751.75,-168 738.71,-165.56 579.34,-144.81 483.16,-132.35"/>
<polygon fill="#63b8ff" stroke="#63b8ff" points="483.62,-128.89 473.26,-131.07 482.73,-135.83 483.62,-128.89"/>
</a>
</g>
</g>
<!-- Node9 -->
<g id="Node000009" class="node">
<title>Node9</title>
<g id="a_Node000009"><a xlink:title=" ">
<polygon fill="#e0e0e0" stroke="#999999" points="1236.88,-76 1188.62,-76 1188.62,-56 1236.88,-56 1236.88,-76"/>
<text text-anchor="middle" x="1212.75" y="-62.5" font-family="Helvetica,sans-Serif" font-size="10.00">cstddef</text>
</a>
</g>
</g>
<!-- Node8&#45;&gt;Node9 -->
<g id="edge8_Node000008_Node000009" class="edge">
<title>Node8&#45;&gt;Node9</title>
<g id="a_edge8_Node000008_Node000009"><a xlink:title=" ">
<path fill="none" stroke="#63b8ff" d="M1241.65,-111.59C1237.04,-104.47 1230.54,-94.45 1224.88,-85.72"/>
<polygon fill="#63b8ff" stroke="#63b8ff" points="1227.98,-84.06 1219.6,-77.57 1222.1,-87.86 1227.98,-84.06"/>
</a>
</g>
</g>
<!-- Node10 -->
<g id="Node000010" class="node">
<title>Node10</title>
<g id="a_Node000010"><a xlink:title=" ">
<polygon fill="#e0e0e0" stroke="#999999" points="1308.5,-76 1255,-76 1255,-56 1308.5,-56 1308.5,-76"/>
<text text-anchor="middle" x="1281.75" y="-62.5" font-family="Helvetica,sans-Serif" font-size="10.00">iostream</text>
</a>
</g>
</g>
<!-- Node8&#45;&gt;Node10 -->
<g id="edge9_Node000008_Node000010" class="edge">
<title>Node8&#45;&gt;Node10</title>
<g id="a_edge9_Node000008_Node000010"><a xlink:title=" ">
<path fill="none" stroke="#63b8ff" d="M1253.67,-111.59C1258.11,-104.55 1264.33,-94.67 1269.79,-86"/>
<polygon fill="#63b8ff" stroke="#63b8ff" points="1272.72,-87.91 1275.09,-77.58 1266.8,-84.18 1272.72,-87.91"/>
</a>
</g>
</g>
<!-- Node11 -->
<g id="Node000011" class="node">
<title>Node11</title>
<g id="a_Node000011"><a xlink:title=" ">
<polygon fill="#e0e0e0" stroke="#999999" points="1376.62,-76 1326.88,-76 1326.88,-56 1376.62,-56 1376.62,-76"/>
<text text-anchor="middle" x="1351.75" y="-62.5" font-family="Helvetica,sans-Serif" font-size="10.00">optional</text>
</a>
</g>
</g>
<!-- Node8&#45;&gt;Node11 -->
<g id="edge10_Node000008_Node000011" class="edge">
<title>Node8&#45;&gt;Node11</title>
<g id="a_edge10_Node000008_Node000011"><a xlink:title=" ">
<path fill="none" stroke="#63b8ff" d="M1265.87,-111.59C1281.72,-103.36 1305.03,-91.26 1323.37,-81.74"/>
<polygon fill="#63b8ff" stroke="#63b8ff" points="1324.89,-84.89 1332.15,-77.18 1321.66,-78.68 1324.89,-84.89"/>
</a>
</g>
</g>
<!-- Node12 -->
<g id="Node000012" class="node">
<title>Node12</title>
<g id="a_Node000012"><a xlink:title=" ">
<polygon fill="#e0e0e0" stroke="#999999" points="1335.25,-20 1274.25,-20 1274.25,0 1335.25,0 1335.25,-20"/>
<text text-anchor="middle" x="1304.75" y="-6.5" font-family="Helvetica,sans-Serif" font-size="10.00">pqxx/pqxx</text>
</a>
</g>
</g>
<!-- Node8&#45;&gt;Node12 -->
<g id="edge11_Node000008_Node000012" class="edge">
<title>Node8&#45;&gt;Node12</title>
<g id="a_edge11_Node000008_Node000012"><a xlink:title=" ">
<path fill="none" stroke="#63b8ff" d="M1224.48,-111.61C1199.01,-99.92 1163.79,-78.71 1179.75,-56 1198.34,-29.55 1234.06,-18.57 1262.56,-14.05"/>
<polygon fill="#63b8ff" stroke="#63b8ff" points="1262.93,-17.54 1272.37,-12.73 1262,-10.6 1262.93,-17.54"/>
</a>
</g>
</g>
<!-- Node8&#45;&gt;Node13 -->
<g id="edge12_Node000008_Node000013" class="edge">
<title>Node8&#45;&gt;Node13</title>
<g id="a_edge12_Node000008_Node000013"><a xlink:title=" ">
<path fill="none" stroke="#63b8ff" d="M1286.37,-114.3C1290.88,-113.52 1295.41,-112.74 1299.75,-112 1391.3,-96.38 1417.97,-98.18 1511.45,-76.28"/>
<polygon fill="#63b8ff" stroke="#63b8ff" points="1512.17,-79.71 1521.09,-73.99 1510.55,-72.9 1512.17,-79.71"/>
</a>
</g>
</g>
<!-- Node14 -->
<g id="Node000014" class="node">
<title>Node14</title>
<g id="a_Node000014"><a xlink:title=" ">
<polygon fill="#e0e0e0" stroke="#999999" points="1132.75,-76 1074.75,-76 1074.75,-56 1132.75,-56 1132.75,-76"/>
<text text-anchor="middle" x="1103.75" y="-62.5" font-family="Helvetica,sans-Serif" font-size="10.00">typeindex</text>
</a>
</g>
</g>
<!-- Node8&#45;&gt;Node14 -->
<g id="edge13_Node000008_Node000014" class="edge">
<title>Node8&#45;&gt;Node14</title>
<g id="a_edge13_Node000008_Node000014"><a xlink:title=" ">
<path fill="none" stroke="#63b8ff" d="M1222.67,-111.59C1199.68,-102.97 1165.4,-90.12 1139.54,-80.42"/>
<polygon fill="#63b8ff" stroke="#63b8ff" points="1141.04,-77.25 1130.45,-77.01 1138.58,-83.8 1141.04,-77.25"/>
</a>
</g>
</g>
<!-- Node8&#45;&gt;Node15 -->
<g id="edge14_Node000008_Node000015" class="edge">
<title>Node8&#45;&gt;Node15</title>
<g id="a_edge14_Node000008_Node000015"><a xlink:title=" ">
<path fill="none" stroke="#63b8ff" d="M1208.94,-111.88C1174.32,-103.64 1122,-90.93 1067.63,-76.43"/>
<polygon fill="#63b8ff" stroke="#63b8ff" points="1068.76,-73.11 1058.2,-73.89 1066.95,-79.87 1068.76,-73.11"/>
</a>
</g>
</g>
<!-- Node16 -->
<g id="Node000016" class="node">
<title>Node16</title>
<g id="a_Node000016"><a xlink:href="RowDTOAdapter_8hpp.html" target="_top" xlink:title=" ">
<polygon fill="white" stroke="#666666" points="1504.62,-76 1394.88,-76 1394.88,-56 1504.62,-56 1504.62,-76"/>
<text text-anchor="middle" x="1449.75" y="-62.5" font-family="Helvetica,sans-Serif" font-size="10.00">RowDTOAdapter.hpp</text>
</a>
</g>
</g>
<!-- Node8&#45;&gt;Node16 -->
<g id="edge15_Node000008_Node000016" class="edge">
<title>Node8&#45;&gt;Node16</title>
<g id="a_edge15_Node000008_Node000016"><a xlink:title=" ">
<path fill="none" stroke="#63b8ff" d="M1282.94,-111.59C1316.33,-102.67 1366.73,-89.19 1403.39,-79.39"/>
<polygon fill="#63b8ff" stroke="#63b8ff" points="1404.07,-82.83 1412.83,-76.87 1402.26,-76.07 1404.07,-82.83"/>
</a>
</g>
</g>
<!-- Node16&#45;&gt;Node12 -->
<g id="edge16_Node000016_Node000012" class="edge">
<title>Node16&#45;&gt;Node12</title>
<g id="a_edge16_Node000016_Node000012"><a xlink:title=" ">
<path fill="none" stroke="#63b8ff" d="M1424.49,-55.59C1401.35,-46.97 1366.83,-34.12 1340.79,-24.42"/>
<polygon fill="#63b8ff" stroke="#63b8ff" points="1342.22,-21.22 1331.62,-21.01 1339.77,-27.78 1342.22,-21.22"/>
</a>
</g>
</g>
<!-- Node18 -->
<g id="Node000018" class="node">
<title>Node18</title>
<g id="a_Node000018"><a xlink:title=" ">
<polygon fill="#e0e0e0" stroke="#999999" points="397.88,-76 325.62,-76 325.62,-56 397.88,-56 397.88,-76"/>
<text text-anchor="middle" x="361.75" y="-62.5" font-family="Helvetica,sans-Serif" font-size="10.00">dpp/cluster.h</text>
</a>
</g>
</g>
<!-- Node17&#45;&gt;Node18 -->
<g id="edge18_Node000017_Node000018" class="edge">
<title>Node17&#45;&gt;Node18</title>
<g id="a_edge18_Node000017_Node000018"><a xlink:title=" ">
<path fill="none" stroke="#63b8ff" d="M290.73,-111.59C303.48,-103.59 322.04,-91.93 336.99,-82.54"/>
<polygon fill="#63b8ff" stroke="#63b8ff" points="338.76,-85.57 345.37,-77.28 335.04,-79.64 338.76,-85.57"/>
</a>
</g>
</g>
<!-- Node19 -->
<g id="Node000019" class="node">
<title>Node19</title>
<g id="a_Node000019"><a xlink:title=" ">
<polygon fill="#e0e0e0" stroke="#999999" points="503.75,-76 415.75,-76 415.75,-56 503.75,-56 503.75,-76"/>
<text text-anchor="middle" x="459.75" y="-62.5" font-family="Helvetica,sans-Serif" font-size="10.00">dpp/dispatcher.h</text>
</a>
</g>
</g>
<!-- Node17&#45;&gt;Node19 -->
<g id="edge19_Node000017_Node000019" class="edge">
<title>Node17&#45;&gt;Node19</title>
<g id="a_edge19_Node000017_Node000019"><a xlink:title=" ">
<path fill="none" stroke="#63b8ff" d="M307.8,-111.59C337.96,-102.74 383.34,-89.43 416.65,-79.65"/>
<polygon fill="#63b8ff" stroke="#63b8ff" points="417.39,-83.08 426,-76.91 415.42,-76.36 417.39,-83.08"/>
</a>
</g>
</g>
<!-- Node20&#45;&gt;Node18 -->
<g id="edge21_Node000020_Node000018" class="edge">
<title>Node20&#45;&gt;Node18</title>
<g id="a_edge21_Node000020_Node000018"><a xlink:title=" ">
<path fill="none" stroke="#63b8ff" d="M629.74,-112.93C576.5,-104.7 491.8,-91.26 409.19,-76.39"/>
<polygon fill="#63b8ff" stroke="#63b8ff" points="410.03,-72.99 399.57,-74.65 408.78,-79.88 410.03,-72.99"/>
</a>
</g>
</g>
<!-- Node20&#45;&gt;Node19 -->
<g id="edge22_Node000020_Node000019" class="edge">
<title>Node20&#45;&gt;Node19</title>
<g id="a_edge22_Node000020_Node000019"><a xlink:title=" ">
<path fill="none" stroke="#63b8ff" d="M643.65,-111.53C606.43,-102.52 550.24,-88.91 509.77,-79.11"/>
<polygon fill="#63b8ff" stroke="#63b8ff" points="510.82,-75.77 500.27,-76.81 509.17,-82.57 510.82,-75.77"/>
</a>
</g>
</g>
<!-- Node21&#45;&gt;Node15 -->
<g id="edge27_Node000021_Node000015" class="edge">
<title>Node21&#45;&gt;Node15</title>
<g id="a_edge27_Node000021_Node000015"><a xlink:title=" ">
<path fill="none" stroke="#63b8ff" d="M1076.87,-111.59C1069.85,-104.16 1059.85,-93.58 1051.36,-84.58"/>
<polygon fill="#63b8ff" stroke="#63b8ff" points="1053.98,-82.27 1044.57,-77.4 1048.89,-87.07 1053.98,-82.27"/>
</a>
</g>
</g>
<!-- Node21&#45;&gt;Node18 -->
<g id="edge25_Node000021_Node000018" class="edge">
<title>Node21&#45;&gt;Node18</title>
<g id="a_edge25_Node000021_Node000018"><a xlink:title=" ">
<path fill="none" stroke="#63b8ff" d="M1017.75,-112.84C1014.71,-112.54 1011.7,-112.26 1008.75,-112 745.4,-88.75 674.5,-109.77 409.17,-76.13"/>
<polygon fill="#63b8ff" stroke="#63b8ff" points="409.89,-72.7 399.53,-74.89 409,-79.64 409.89,-72.7"/>
</a>
</g>
</g>
<!-- Node21&#45;&gt;Node19 -->
<g id="edge26_Node000021_Node000019" class="edge">
<title>Node21&#45;&gt;Node19</title>
<g id="a_edge26_Node000021_Node000019"><a xlink:title=" ">
<path fill="none" stroke="#63b8ff" d="M1017.74,-112.92C1014.71,-112.6 1011.7,-112.29 1008.75,-112 828.42,-94.08 614.24,-78.03 515.14,-70.9"/>
<polygon fill="#63b8ff" stroke="#63b8ff" points="515.65,-67.43 505.43,-70.21 515.15,-74.41 515.65,-67.43"/>
</a>
</g>
</g>
<!-- Node22 -->
<g id="Node000022" class="node">
<title>Node22</title>
<g id="a_Node000022"><a xlink:title=" ">
<polygon fill="#e0e0e0" stroke="#999999" points="995.12,-76 912.38,-76 912.38,-56 995.12,-56 995.12,-76"/>
<text text-anchor="middle" x="953.75" y="-62.5" font-family="Helvetica,sans-Serif" font-size="10.00">appcommand.h</text>
</a>
</g>
</g>
<!-- Node21&#45;&gt;Node22 -->
<g id="edge24_Node000021_Node000022" class="edge">
<title>Node21&#45;&gt;Node22</title>
<g id="a_edge24_Node000021_Node000022"><a xlink:title=" ">
<path fill="none" stroke="#63b8ff" d="M1062.76,-111.59C1041.97,-103.09 1011.1,-90.46 987.51,-80.81"/>
<polygon fill="#63b8ff" stroke="#63b8ff" points="988.9,-77.6 978.32,-77.05 986.25,-84.08 988.9,-77.6"/>
</a>
</g>
</g>
<!-- Node23&#45;&gt;Node18 -->
<g id="edge29_Node000023_Node000018" class="edge">
<title>Node23&#45;&gt;Node18</title>
<g id="a_edge29_Node000023_Node000018"><a xlink:title=" ">
<path fill="none" stroke="#63b8ff" d="M181.15,-111.53C218.18,-102.4 274.34,-88.55 314.19,-78.73"/>
<polygon fill="#63b8ff" stroke="#63b8ff" points="314.88,-82.16 323.75,-76.37 313.2,-75.37 314.88,-82.16"/>
</a>
</g>
</g>
<!-- Node23&#45;&gt;Node19 -->
<g id="edge30_Node000023_Node000019" class="edge">
<title>Node23&#45;&gt;Node19</title>
<g id="a_edge30_Node000023_Node000019"><a xlink:title=" ">
<path fill="none" stroke="#63b8ff" d="M198.33,-111.53C256.26,-101.66 346.51,-86.29 404.37,-76.43"/>
<polygon fill="#63b8ff" stroke="#63b8ff" points="404.73,-79.92 414,-74.79 403.55,-73.02 404.73,-79.92"/>
</a>
</g>
</g>
<!-- Node24&#45;&gt;Node18 -->
<g id="edge32_Node000024_Node000018" class="edge">
<title>Node24&#45;&gt;Node18</title>
<g id="a_edge32_Node000024_Node000018"><a xlink:title=" ">
<path fill="none" stroke="#63b8ff" d="M517.83,-111.59C486.72,-102.71 439.83,-89.31 405.57,-79.52"/>
<polygon fill="#63b8ff" stroke="#63b8ff" points="406.96,-76.28 396.38,-76.9 405.04,-83.01 406.96,-76.28"/>
</a>
</g>
</g>
<!-- Node24&#45;&gt;Node19 -->
<g id="edge33_Node000024_Node000019" class="edge">
<title>Node24&#45;&gt;Node19</title>
<g id="a_edge33_Node000024_Node000019"><a xlink:title=" ">
<path fill="none" stroke="#63b8ff" d="M534.9,-111.59C521.28,-103.51 501.39,-91.71 485.49,-82.27"/>
<polygon fill="#63b8ff" stroke="#63b8ff" points="487.41,-79.35 477.03,-77.25 483.84,-85.37 487.41,-79.35"/>
</a>
</g>
</g>
<!-- Node25&#45;&gt;Node18 -->
<g id="edge35_Node000025_Node000018" class="edge">
<title>Node25&#45;&gt;Node18</title>
<g id="a_edge35_Node000025_Node000018"><a xlink:title=" ">
<path fill="none" stroke="#63b8ff" d="M402.21,-111.59C395.47,-104.16 385.86,-93.58 377.71,-84.58"/>
<polygon fill="#63b8ff" stroke="#63b8ff" points="380.52,-82.47 371.2,-77.42 375.33,-87.18 380.52,-82.47"/>
</a>
</g>
</g>
<!-- Node25&#45;&gt;Node19 -->
<g id="edge36_Node000025_Node000019" class="edge">
<title>Node25&#45;&gt;Node19</title>
<g id="a_edge36_Node000025_Node000019"><a xlink:title=" ">
<path fill="none" stroke="#63b8ff" d="M419.29,-111.59C426.03,-104.16 435.64,-93.58 443.79,-84.58"/>
<polygon fill="#63b8ff" stroke="#63b8ff" points="446.17,-87.18 450.3,-77.42 440.98,-82.47 446.17,-87.18"/>
</a>
</g>
</g>
<!-- Node26&#45;&gt;Node18 -->
<g id="edge45_Node000026_Node000018" class="edge">
<title>Node26&#45;&gt;Node18</title>
<g id="a_edge45_Node000026_Node000018"><a xlink:title=" ">
<path fill="none" stroke="#63b8ff" d="M65.73,-113.75C68.78,-113.14 71.82,-112.54 74.75,-112 158.72,-96.43 257.18,-81.77 314.21,-73.63"/>
<polygon fill="#63b8ff" stroke="#63b8ff" points="314.49,-77.12 323.9,-72.25 313.5,-70.19 314.49,-77.12"/>
</a>
</g>
</g>
<!-- Node26&#45;&gt;Node19 -->
<g id="edge46_Node000026_Node000019" class="edge">
<title>Node26&#45;&gt;Node19</title>
<g id="a_edge46_Node000026_Node000019"><a xlink:title=" ">
<path fill="none" stroke="#63b8ff" d="M65.7,-113.6C68.75,-113.02 71.81,-112.47 74.75,-112 217.71,-89 257.8,-96.06 404.33,-76.25"/>
<polygon fill="#63b8ff" stroke="#63b8ff" points="404.6,-79.75 414.03,-74.92 403.65,-72.81 404.6,-79.75"/>
</a>
</g>
</g>
<!-- Node29&#45;&gt;Node3 -->
<g id="edge52_Node000029_Node000003" class="edge">
<title>Node29&#45;&gt;Node3</title>
<g id="a_edge52_Node000029_Node000003"><a xlink:title=" ">
<path fill="none" stroke="#63b8ff" d="M1016.86,-279.53C943.08,-268.25 822.23,-249.76 762.1,-240.56"/>
<polygon fill="#63b8ff" stroke="#63b8ff" points="762.83,-237.13 752.41,-239.08 761.77,-244.05 762.83,-237.13"/>
</a>
</g>
</g>
<!-- Node29&#45;&gt;Node13 -->
<g id="edge55_Node000029_Node000013" class="edge">
<title>Node29&#45;&gt;Node13</title>
<g id="a_edge55_Node000029_Node000013"><a xlink:title=" ">
<path fill="none" stroke="#63b8ff" d="M1150.88,-281.61C1227.86,-270.96 1350.87,-245.77 1440.75,-188 1482.19,-161.37 1515.62,-112.69 1531.93,-85.91"/>
<polygon fill="#63b8ff" stroke="#63b8ff" points="1534.82,-87.89 1536.9,-77.5 1528.8,-84.33 1534.82,-87.89"/>
</a>
</g>
</g>
<!-- Node30 -->
<g id="Node000030" class="node">
<title>Node30</title>
<g id="a_Node000030"><a xlink:title=" ">
<polygon fill="#e0e0e0" stroke="#999999" points="1072.75,-244 1032.75,-244 1032.75,-224 1072.75,-224 1072.75,-244"/>
<text text-anchor="middle" x="1052.75" y="-230.5" font-family="Helvetica,sans-Serif" font-size="10.00">stack</text>
</a>
</g>
</g>
<!-- Node29&#45;&gt;Node30 -->
<g id="edge53_Node000029_Node000030" class="edge">
<title>Node29&#45;&gt;Node30</title>
<g id="a_edge53_Node000029_Node000030"><a xlink:title=" ">
<path fill="none" stroke="#63b8ff" d="M1074.22,-279.59C1070.9,-272.7 1066.28,-263.1 1062.17,-254.57"/>
<polygon fill="#63b8ff" stroke="#63b8ff" points="1065.38,-253.15 1057.88,-245.66 1059.07,-256.19 1065.38,-253.15"/>
</a>
</g>
</g>
<!-- Node31 -->
<g id="Node000031" class="node">
<title>Node31</title>
<g id="a_Node000031"><a xlink:title=" ">
<polygon fill="#e0e0e0" stroke="#999999" points="1149.12,-244 1090.38,-244 1090.38,-224 1149.12,-224 1149.12,-244"/>
<text text-anchor="middle" x="1119.75" y="-230.5" font-family="Helvetica,sans-Serif" font-size="10.00">stdexcept</text>
</a>
</g>
</g>
<!-- Node29&#45;&gt;Node31 -->
<g id="edge54_Node000029_Node000031" class="edge">
<title>Node29&#45;&gt;Node31</title>
<g id="a_edge54_Node000029_Node000031"><a xlink:title=" ">
<path fill="none" stroke="#63b8ff" d="M1085.89,-279.59C1091.36,-272.39 1099.07,-262.23 1105.76,-253.43"/>
<polygon fill="#63b8ff" stroke="#63b8ff" points="1108.52,-255.58 1111.77,-245.5 1102.94,-251.35 1108.52,-255.58"/>
</a>
</g>
</g>
<!-- Node32&#45;&gt;Node3 -->
<g id="edge57_Node000032_Node000003" class="edge">
<title>Node32&#45;&gt;Node3</title>
<g id="a_edge57_Node000032_Node000003"><a xlink:title=" ">
<path fill="none" stroke="#63b8ff" d="M771.17,-279.59C763.52,-272.08 752.59,-261.35 743.37,-252.3"/>
<polygon fill="#63b8ff" stroke="#63b8ff" points="745.89,-249.87 736.3,-245.36 740.98,-254.86 745.89,-249.87"/>
</a>
</g>
</g>
<!-- Node33&#45;&gt;Node3 -->
<g id="edge59_Node000033_Node000003" class="edge">
<title>Node33&#45;&gt;Node3</title>
<g id="a_edge59_Node000033_Node000003"><a xlink:title=" ">
<path fill="none" stroke="#63b8ff" d="M869.44,-279.59C839.39,-270.27 793.36,-255.98 761.53,-246.11"/>
<polygon fill="#63b8ff" stroke="#63b8ff" points="762.95,-242.88 752.36,-243.26 760.88,-249.57 762.95,-242.88"/>
</a>
</g>
</g>
<!-- Node34&#45;&gt;Node3 -->
<g id="edge61_Node000034_Node000003" class="edge">
<title>Node34&#45;&gt;Node3</title>
<g id="a_edge61_Node000034_Node000003"><a xlink:title=" ">
<path fill="none" stroke="#63b8ff" d="M575.45,-279.59C607.39,-270.12 656.58,-255.52 689.91,-245.63"/>
<polygon fill="#63b8ff" stroke="#63b8ff" points="690.51,-249.11 699.11,-242.91 688.52,-242.39 690.51,-249.11"/>
</a>
</g>
</g>
<!-- Node34&#45;&gt;Node23 -->
<g id="edge62_Node000034_Node000023" class="edge">
<title>Node34&#45;&gt;Node23</title>
<g id="a_edge62_Node000034_Node000023"><a xlink:title=" ">
<path fill="none" stroke="#63b8ff" d="M521.04,-279.6C453.63,-251.69 254.47,-169.25 175.53,-136.57"/>
<polygon fill="#63b8ff" stroke="#63b8ff" points="177.19,-133.47 166.61,-132.88 174.51,-139.94 177.19,-133.47"/>
</a>
</g>
</g>
</g>
</svg>
