<?xml version="1.0" encoding="UTF-8" standalone="no"?>
<!DOCTYPE svg PUBLIC "-//W3C//DTD SVG 1.1//EN"
 "http://www.w3.org/Graphics/SVG/1.1/DTD/svg11.dtd">
<!-- Generated by graphviz version 9.0.0 (0)
 -->
<!-- Title: src/bot_library/commands/Commands.cpp Pages: 1 -->
<svg width="1626pt" height="376pt"
 viewBox="0.00 0.00 1625.50 376.00" xmlns="http://www.w3.org/2000/svg" xmlns:xlink="http://www.w3.org/1999/xlink">
<g id="graph0" class="graph" transform="scale(1 1) rotate(0) translate(4 372)">
<title>src/bot_library/commands/Commands.cpp</title>
<!-- Node1 -->
<g id="Node000001" class="node">
<title>Node1</title>
<g id="a_Node000001"><a xlink:title=" ">
<polygon fill="#999999" stroke="#666666" points="984,-368 855.5,-368 855.5,-336 984,-336 984,-368"/>
<text text-anchor="start" x="863.5" y="-354.5" font-family="Helvetica,sans-Serif" font-size="10.00">src/bot_library/commands</text>
<text text-anchor="middle" x="919.75" y="-342.5" font-family="Helvetica,sans-Serif" font-size="10.00">/Commands.cpp</text>
</a>
</g>
</g>
<!-- Node2 -->
<g id="Node000002" class="node">
<title>Node2</title>
<g id="a_Node000002"><a xlink:href="Commands_8hpp.html" target="_top" xlink:title=" ">
<polygon fill="white" stroke="#666666" points="604.25,-300 519.25,-300 519.25,-280 604.25,-280 604.25,-300"/>
<text text-anchor="middle" x="561.75" y="-286.5" font-family="Helvetica,sans-Serif" font-size="10.00">Commands.hpp</text>
</a>
</g>
</g>
<!-- Node1&#45;&gt;Node2 -->
<g id="edge1_Node000001_Node000002" class="edge">
<title>Node1&#45;&gt;Node2</title>
<g id="a_edge1_Node000001_Node000002"><a xlink:title=" ">
<path fill="none" stroke="#63b8ff" d="M855.03,-340.44C795.43,-330.68 704.22,-315.62 615.91,-300.53"/>
<polygon fill="#63b8ff" stroke="#63b8ff" points="616.54,-297.09 606.09,-298.85 615.36,-303.99 616.54,-297.09"/>
</a>
</g>
</g>
<!-- Node28 -->
<g id="Node000028" class="node">
<title>Node28</title>
<g id="a_Node000028"><a xlink:title=" ">
<polygon fill="#e0e0e0" stroke="#999999" points="1430.38,-188 1379.12,-188 1379.12,-168 1430.38,-168 1430.38,-188"/>
<text text-anchor="middle" x="1404.75" y="-174.5" font-family="Helvetica,sans-Serif" font-size="10.00">memory</text>
</a>
</g>
</g>
<!-- Node1&#45;&gt;Node28 -->
<g id="edge73_Node000001_Node000028" class="edge">
<title>Node1&#45;&gt;Node28</title>
<g id="a_edge73_Node000001_Node000028"><a xlink:title=" ">
<path fill="none" stroke="#63b8ff" d="M984.27,-346.6C1073.19,-339.73 1228.16,-324.63 1278.75,-300 1328.32,-275.86 1371.02,-225 1391.62,-197.53"/>
<polygon fill="#63b8ff" stroke="#63b8ff" points="1394.43,-199.61 1397.5,-189.47 1388.78,-195.48 1394.43,-199.61"/>
</a>
</g>
</g>
<!-- Node29 -->
<g id="Node000029" class="node">
<title>Node29</title>
<g id="a_Node000029"><a xlink:href="ChallengeRoleCommand_8hpp.html" target="_top" xlink:title=" ">
<polygon fill="white" stroke="#666666" points="1617.5,-300 1474,-300 1474,-280 1617.5,-280 1617.5,-300"/>
<text text-anchor="middle" x="1545.75" y="-286.5" font-family="Helvetica,sans-Serif" font-size="10.00">ChallengeRoleCommand.hpp</text>
</a>
</g>
</g>
<!-- Node1&#45;&gt;Node29 -->
<g id="edge51_Node000001_Node000029" class="edge">
<title>Node1&#45;&gt;Node29</title>
<g id="a_edge51_Node000001_Node000029"><a xlink:title=" ">
<path fill="none" stroke="#63b8ff" d="M984.38,-345.32C1084.38,-336.44 1282.92,-318.51 1462.51,-300.21"/>
<polygon fill="#63b8ff" stroke="#63b8ff" points="1462.67,-303.72 1472.26,-299.22 1461.96,-296.75 1462.67,-303.72"/>
</a>
</g>
</g>
<!-- Node32 -->
<g id="Node000032" class="node">
<title>Node32</title>
<g id="a_Node000032"><a xlink:href="CleanUp_8hpp.html" target="_top" xlink:title=" ">
<polygon fill="white" stroke="#666666" points="695.25,-300 622.25,-300 622.25,-280 695.25,-280 695.25,-300"/>
<text text-anchor="middle" x="658.75" y="-286.5" font-family="Helvetica,sans-Serif" font-size="10.00">CleanUp.hpp</text>
</a>
</g>
</g>
<!-- Node1&#45;&gt;Node32 -->
<g id="edge56_Node000001_Node000032" class="edge">
<title>Node1&#45;&gt;Node32</title>
<g id="a_edge56_Node000001_Node000032"><a xlink:title=" ">
<path fill="none" stroke="#63b8ff" d="M855.23,-336.17C809.19,-325.58 748.27,-311.58 706.54,-301.99"/>
<polygon fill="#63b8ff" stroke="#63b8ff" points="707.58,-298.63 697.05,-299.8 706.01,-305.46 707.58,-298.63"/>
</a>
</g>
</g>
<!-- Node33 -->
<g id="Node000033" class="node">
<title>Node33</title>
<g id="a_Node000033"><a xlink:href="HelpCommand_8hpp.html" target="_top" xlink:title=" ">
<polygon fill="white" stroke="#666666" points="909.75,-300 809.75,-300 809.75,-280 909.75,-280 909.75,-300"/>
<text text-anchor="middle" x="859.75" y="-286.5" font-family="Helvetica,sans-Serif" font-size="10.00">HelpCommand.hpp</text>
</a>
</g>
</g>
<!-- Node1&#45;&gt;Node33 -->
<g id="edge58_Node000001_Node000033" class="edge">
<title>Node1&#45;&gt;Node33</title>
<g id="a_edge58_Node000001_Node000033"><a xlink:title=" ">
<path fill="none" stroke="#63b8ff" d="M904.3,-335.55C895.97,-327.22 885.66,-316.91 877.05,-308.3"/>
<polygon fill="#63b8ff" stroke="#63b8ff" points="879.77,-306.07 870.23,-301.48 874.82,-311.02 879.77,-306.07"/>
</a>
</g>
</g>
<!-- Node34 -->
<g id="Node000034" class="node">
<title>Node34</title>
<g id="a_Node000034"><a xlink:href="InviteCommand_8hpp.html" target="_top" xlink:title=" ">
<polygon fill="white" stroke="#666666" points="1031.62,-300 927.88,-300 927.88,-280 1031.62,-280 1031.62,-300"/>
<text text-anchor="middle" x="979.75" y="-286.5" font-family="Helvetica,sans-Serif" font-size="10.00">InviteCommand.hpp</text>
</a>
</g>
</g>
<!-- Node1&#45;&gt;Node34 -->
<g id="edge60_Node000001_Node000034" class="edge">
<title>Node1&#45;&gt;Node34</title>
<g id="a_edge60_Node000001_Node000034"><a xlink:title=" ">
<path fill="none" stroke="#63b8ff" d="M935.2,-335.55C943.53,-327.22 953.84,-316.91 962.45,-308.3"/>
<polygon fill="#63b8ff" stroke="#63b8ff" points="964.68,-311.02 969.27,-301.48 959.73,-306.07 964.68,-311.02"/>
</a>
</g>
</g>
<!-- Node35 -->
<g id="Node000035" class="node">
<title>Node35</title>
<g id="a_Node000035"><a xlink:href="PongCommand_8hpp.html" target="_top" xlink:title=" ">
<polygon fill="white" stroke="#666666" points="1151.88,-300 1049.62,-300 1049.62,-280 1151.88,-280 1151.88,-300"/>
<text text-anchor="middle" x="1100.75" y="-286.5" font-family="Helvetica,sans-Serif" font-size="10.00">PongCommand.hpp</text>
</a>
</g>
</g>
<!-- Node1&#45;&gt;Node35 -->
<g id="edge62_Node000001_Node000035" class="edge">
<title>Node1&#45;&gt;Node35</title>
<g id="a_edge62_Node000001_Node000035"><a xlink:title=" ">
<path fill="none" stroke="#63b8ff" d="M966.36,-335.55C995.86,-325.77 1033.57,-313.27 1061.53,-304"/>
<polygon fill="#63b8ff" stroke="#63b8ff" points="1062.28,-307.44 1070.67,-300.97 1060.07,-300.8 1062.28,-307.44"/>
</a>
</g>
</g>
<!-- Node36 -->
<g id="Node000036" class="node">
<title>Node36</title>
<g id="a_Node000036"><a xlink:href="ReactionRoles_8hpp.html" target="_top" xlink:title=" ">
<polygon fill="white" stroke="#666666" points="1269.38,-300 1170.12,-300 1170.12,-280 1269.38,-280 1269.38,-300"/>
<text text-anchor="middle" x="1219.75" y="-286.5" font-family="Helvetica,sans-Serif" font-size="10.00">ReactionRoles.hpp</text>
</a>
</g>
</g>
<!-- Node1&#45;&gt;Node36 -->
<g id="edge64_Node000001_Node000036" class="edge">
<title>Node1&#45;&gt;Node36</title>
<g id="a_edge64_Node000001_Node000036"><a xlink:title=" ">
<path fill="none" stroke="#63b8ff" d="M984.48,-338.05C1037,-327.55 1110.42,-312.87 1161.21,-302.71"/>
<polygon fill="#63b8ff" stroke="#63b8ff" points="1161.72,-306.18 1170.84,-300.78 1160.35,-299.31 1161.72,-306.18"/>
</a>
</g>
</g>
<!-- Node37 -->
<g id="Node000037" class="node">
<title>Node37</title>
<g id="a_Node000037"><a xlink:href="ResourcesCommand_8hpp.html" target="_top" xlink:title=" ">
<polygon fill="white" stroke="#666666" points="388.25,-300 261.25,-300 261.25,-280 388.25,-280 388.25,-300"/>
<text text-anchor="middle" x="324.75" y="-286.5" font-family="Helvetica,sans-Serif" font-size="10.00">ResourcesCommand.hpp</text>
</a>
</g>
</g>
<!-- Node1&#45;&gt;Node37 -->
<g id="edge66_Node000001_Node000037" class="edge">
<title>Node1&#45;&gt;Node37</title>
<g id="a_edge66_Node000001_Node000037"><a xlink:title=" ">
<path fill="none" stroke="#63b8ff" d="M855.41,-345.24C758.93,-336.49 570.78,-318.97 399.68,-300.19"/>
<polygon fill="#63b8ff" stroke="#63b8ff" points="400.27,-296.73 389.94,-299.11 399.5,-303.69 400.27,-296.73"/>
</a>
</g>
</g>
<!-- Node38 -->
<g id="Node000038" class="node">
<title>Node38</title>
<g id="a_Node000038"><a xlink:href="ServerDetails_8hpp.html" target="_top" xlink:title=" ">
<polygon fill="white" stroke="#666666" points="500.75,-300 406.75,-300 406.75,-280 500.75,-280 500.75,-300"/>
<text text-anchor="middle" x="453.75" y="-286.5" font-family="Helvetica,sans-Serif" font-size="10.00">ServerDetails.hpp</text>
</a>
</g>
</g>
<!-- Node1&#45;&gt;Node38 -->
<g id="edge68_Node000001_Node000038" class="edge">
<title>Node1&#45;&gt;Node38</title>
<g id="a_edge68_Node000001_Node000038"><a xlink:title=" ">
<path fill="none" stroke="#63b8ff" d="M855.03,-343.67C776.44,-334.61 639.56,-318.31 512.2,-300.31"/>
<polygon fill="#63b8ff" stroke="#63b8ff" points="512.98,-296.88 502.59,-298.94 512,-303.81 512.98,-296.88"/>
</a>
</g>
</g>
<!-- Node39 -->
<g id="Node000039" class="node">
<title>Node39</title>
<g id="a_Node000039"><a xlink:title=" ">
<polygon fill="#e0e0e0" stroke="#999999" points="1456.12,-300 1325.38,-300 1325.38,-280 1456.12,-280 1456.12,-300"/>
<text text-anchor="middle" x="1390.75" y="-286.5" font-family="Helvetica,sans-Serif" font-size="10.00">SetChannelCommand.hpp</text>
</a>
</g>
</g>
<!-- Node1&#45;&gt;Node39 -->
<g id="edge70_Node000001_Node000039" class="edge">
<title>Node1&#45;&gt;Node39</title>
<g id="a_edge70_Node000001_Node000039"><a xlink:title=" ">
<path fill="none" stroke="#63b8ff" d="M984.25,-342.78C1070.23,-331.83 1222.19,-312.47 1313.97,-300.78"/>
<polygon fill="#63b8ff" stroke="#63b8ff" points="1314.16,-304.29 1323.63,-299.55 1313.27,-297.34 1314.16,-304.29"/>
</a>
</g>
</g>
<!-- Node40 -->
<g id="Node000040" class="node">
<title>Node40</title>
<g id="a_Node000040"><a xlink:href="SetStatus_8hpp.html" target="_top" xlink:title=" ">
<polygon fill="white" stroke="#666666" points="791.88,-300 713.62,-300 713.62,-280 791.88,-280 791.88,-300"/>
<text text-anchor="middle" x="752.75" y="-286.5" font-family="Helvetica,sans-Serif" font-size="10.00">SetStatus.hpp</text>
</a>
</g>
</g>
<!-- Node1&#45;&gt;Node40 -->
<g id="edge71_Node000001_Node000040" class="edge">
<title>Node1&#45;&gt;Node40</title>
<g id="a_edge71_Node000001_Node000040"><a xlink:title=" ">
<path fill="none" stroke="#63b8ff" d="M876.74,-335.55C849.8,-325.87 815.45,-313.53 789.73,-304.29"/>
<polygon fill="#63b8ff" stroke="#63b8ff" points="790.95,-301.01 780.36,-300.92 788.59,-307.59 790.95,-301.01"/>
</a>
</g>
</g>
<!-- Node3 -->
<g id="Node000003" class="node">
<title>Node3</title>
<g id="a_Node000003"><a xlink:href="Bot_8hpp.html" target="_top" xlink:title=" ">
<polygon fill="white" stroke="#666666" points="790.62,-244 740.88,-244 740.88,-224 790.62,-224 790.62,-244"/>
<text text-anchor="middle" x="765.75" y="-230.5" font-family="Helvetica,sans-Serif" font-size="10.00">Bot.hpp</text>
</a>
</g>
</g>
<!-- Node2&#45;&gt;Node3 -->
<g id="edge2_Node000002_Node000003" class="edge">
<title>Node2&#45;&gt;Node3</title>
<g id="a_edge2_Node000002_Node000003"><a xlink:title=" ">
<path fill="none" stroke="#63b8ff" d="M597.28,-279.59C634.42,-269.76 692.39,-254.42 729.71,-244.54"/>
<polygon fill="#63b8ff" stroke="#63b8ff" points="730.35,-247.99 739.13,-242.05 728.56,-241.22 730.35,-247.99"/>
</a>
</g>
</g>
<!-- Node4 -->
<g id="Node000004" class="node">
<title>Node4</title>
<g id="a_Node000004"><a xlink:href="Core_8hpp.html" target="_top" xlink:title=" ">
<polygon fill="white" stroke="#666666" points="762.62,-188 706.88,-188 706.88,-168 762.62,-168 762.62,-188"/>
<text text-anchor="middle" x="734.75" y="-174.5" font-family="Helvetica,sans-Serif" font-size="10.00">Core.hpp</text>
</a>
</g>
</g>
<!-- Node3&#45;&gt;Node4 -->
<g id="edge3_Node000003_Node000004" class="edge">
<title>Node3&#45;&gt;Node4</title>
<g id="a_edge3_Node000003_Node000004"><a xlink:title=" ">
<path fill="none" stroke="#63b8ff" d="M760.35,-223.59C756.31,-216.55 750.63,-206.67 745.66,-198"/>
<polygon fill="#63b8ff" stroke="#63b8ff" points="748.86,-196.54 740.84,-189.61 742.78,-200.03 748.86,-196.54"/>
</a>
</g>
</g>
<!-- Node13 -->
<g id="Node000013" class="node">
<title>Node13</title>
<g id="a_Node000013"><a xlink:title=" ">
<polygon fill="#e0e0e0" stroke="#999999" points="1590.75,-76 1550.75,-76 1550.75,-56 1590.75,-56 1590.75,-76"/>
<text text-anchor="middle" x="1570.75" y="-62.5" font-family="Helvetica,sans-Serif" font-size="10.00">string</text>
</a>
</g>
</g>
<!-- Node3&#45;&gt;Node13 -->
<g id="edge49_Node000003_Node000013" class="edge">
<title>Node3&#45;&gt;Node13</title>
<g id="a_edge49_Node000003_Node000013"><a xlink:title=" ">
<path fill="none" stroke="#63b8ff" d="M791.09,-230.17C845.24,-223.96 976.13,-208.09 1084.75,-188 1194.16,-167.77 1220.71,-158.59 1328.75,-132 1420.36,-109.45 1445.83,-103.39 1539.66,-76.52"/>
<polygon fill="#63b8ff" stroke="#63b8ff" points="1540.4,-79.95 1549.05,-73.83 1538.47,-73.22 1540.4,-79.95"/>
</a>
</g>
</g>
<!-- Node15 -->
<g id="Node000015" class="node">
<title>Node15</title>
<g id="a_Node000015"><a xlink:title=" ">
<polygon fill="#e0e0e0" stroke="#999999" points="1085.25,-76 1042.25,-76 1042.25,-56 1085.25,-56 1085.25,-76"/>
<text text-anchor="middle" x="1063.75" y="-62.5" font-family="Helvetica,sans-Serif" font-size="10.00">vector</text>
</a>
</g>
</g>
<!-- Node3&#45;&gt;Node15 -->
<g id="edge50_Node000003_Node000015" class="edge">
<title>Node3&#45;&gt;Node15</title>
<g id="a_edge50_Node000003_Node000015"><a xlink:title=" ">
<path fill="none" stroke="#63b8ff" d="M791.03,-230.52C870.89,-222.11 1115.28,-191.81 1161.75,-132 1167.2,-124.98 1166.55,-119.48 1161.75,-112 1154.18,-100.19 1121.9,-86.79 1096.43,-77.71"/>
<polygon fill="#63b8ff" stroke="#63b8ff" points="1097.7,-74.44 1087.1,-74.47 1095.4,-81.06 1097.7,-74.44"/>
</a>
</g>
</g>
<!-- Node17 -->
<g id="Node000017" class="node">
<title>Node17</title>
<g id="a_Node000017"><a xlink:href="IButtonCommand_8hpp.html" target="_top" xlink:title=" ">
<polygon fill="white" stroke="#666666" points="594.38,-132 483.12,-132 483.12,-112 594.38,-112 594.38,-132"/>
<text text-anchor="middle" x="538.75" y="-118.5" font-family="Helvetica,sans-Serif" font-size="10.00">IButtonCommand.hpp</text>
</a>
</g>
</g>
<!-- Node3&#45;&gt;Node17 -->
<g id="edge38_Node000003_Node000017" class="edge">
<title>Node3&#45;&gt;Node17</title>
<g id="a_edge38_Node000003_Node000017"><a xlink:title=" ">
<path fill="none" stroke="#63b8ff" d="M746.4,-223.62C706.61,-204.34 615.41,-160.15 568.23,-137.29"/>
<polygon fill="#63b8ff" stroke="#63b8ff" points="569.94,-134.23 559.42,-133.01 566.89,-140.53 569.94,-134.23"/>
</a>
</g>
</g>
<!-- Node20 -->
<g id="Node000020" class="node">
<title>Node20</title>
<g id="a_Node000020"><a xlink:href="IFormCommand_8hpp.html" target="_top" xlink:title=" ">
<polygon fill="white" stroke="#666666" points="465.38,-132 360.12,-132 360.12,-112 465.38,-112 465.38,-132"/>
<text text-anchor="middle" x="412.75" y="-118.5" font-family="Helvetica,sans-Serif" font-size="10.00">IFormCommand.hpp</text>
</a>
</g>
</g>
<!-- Node3&#45;&gt;Node20 -->
<g id="edge39_Node000003_Node000020" class="edge">
<title>Node3&#45;&gt;Node20</title>
<g id="a_edge39_Node000003_Node000020"><a xlink:title=" ">
<path fill="none" stroke="#63b8ff" d="M740.65,-225.18C680.49,-206.43 527.65,-158.8 453.86,-135.81"/>
<polygon fill="#63b8ff" stroke="#63b8ff" points="455.17,-132.55 444.58,-132.92 453.09,-139.24 455.17,-132.55"/>
</a>
</g>
</g>
<!-- Node21 -->
<g id="Node000021" class="node">
<title>Node21</title>
<g id="a_Node000021"><a xlink:href="IGlobalSlashCommand_8hpp.html" target="_top" xlink:title=" ">
<polygon fill="white" stroke="#666666" points="1152.38,-132 1017.12,-132 1017.12,-112 1152.38,-112 1152.38,-132"/>
<text text-anchor="middle" x="1084.75" y="-118.5" font-family="Helvetica,sans-Serif" font-size="10.00">IGlobalSlashCommand.hpp</text>
</a>
</g>
</g>
<!-- Node3&#45;&gt;Node21 -->
<g id="edge40_Node000003_Node000021" class="edge">
<title>Node3&#45;&gt;Node21</title>
<g id="a_edge40_Node000003_Node000021"><a xlink:title=" ">
<path fill="none" stroke="#63b8ff" d="M791.05,-224.28C846.91,-205.01 981.05,-158.76 1046.93,-136.04"/>
<polygon fill="#63b8ff" stroke="#63b8ff" points="1047.91,-139.41 1056.22,-132.84 1045.63,-132.79 1047.91,-139.41"/>
</a>
</g>
</g>
<!-- Node23 -->
<g id="Node000023" class="node">
<title>Node23</title>
<g id="a_Node000023"><a xlink:href="IMemberCommand_8hpp.html" target="_top" xlink:title=" ">
<polygon fill="white" stroke="#666666" points="201.75,-132 83.75,-132 83.75,-112 201.75,-112 201.75,-132"/>
<text text-anchor="middle" x="142.75" y="-118.5" font-family="Helvetica,sans-Serif" font-size="10.00">IMemberCommand.hpp</text>
</a>
</g>
</g>
<!-- Node3&#45;&gt;Node23 -->
<g id="edge41_Node000003_Node000023" class="edge">
<title>Node3&#45;&gt;Node23</title>
<g id="a_edge41_Node000003_Node000023"><a xlink:title=" ">
<path fill="none" stroke="#63b8ff" d="M740.57,-229.61C689.16,-222.6 568.5,-205.67 467.75,-188 372.58,-171.31 262.43,-148.55 197.9,-134.86"/>
<polygon fill="#63b8ff" stroke="#63b8ff" points="198.77,-131.47 188.26,-132.81 197.32,-138.32 198.77,-131.47"/>
</a>
</g>
</g>
<!-- Node24 -->
<g id="Node000024" class="node">
<title>Node24</title>
<g id="a_Node000024"><a xlink:href="IMessageCommand_8hpp.html" target="_top" xlink:title=" ">
<polygon fill="white" stroke="#666666" points="342,-132 219.5,-132 219.5,-112 342,-112 342,-132"/>
<text text-anchor="middle" x="280.75" y="-118.5" font-family="Helvetica,sans-Serif" font-size="10.00">IMessageCommand.hpp</text>
</a>
</g>
</g>
<!-- Node3&#45;&gt;Node24 -->
<g id="edge42_Node000003_Node000024" class="edge">
<title>Node3&#45;&gt;Node24</title>
<g id="a_edge42_Node000003_Node000024"><a xlink:title=" ">
<path fill="none" stroke="#63b8ff" d="M740.58,-227.87C700.83,-219.71 621.11,-203.16 553.75,-188 475.43,-170.37 384.83,-148.5 330.2,-135.16"/>
<polygon fill="#63b8ff" stroke="#63b8ff" points="331.13,-131.78 320.58,-132.81 329.46,-138.58 331.13,-131.78"/>
</a>
</g>
</g>
<!-- Node25 -->
<g id="Node000025" class="node">
<title>Node25</title>
<g id="a_Node000025"><a xlink:href="IReactionCommand_8hpp.html" target="_top" xlink:title=" ">
<polygon fill="white" stroke="#666666" points="998.62,-132 876.88,-132 876.88,-112 998.62,-112 998.62,-132"/>
<text text-anchor="middle" x="937.75" y="-118.5" font-family="Helvetica,sans-Serif" font-size="10.00">IReactionCommand.hpp</text>
</a>
</g>
</g>
<!-- Node3&#45;&gt;Node25 -->
<g id="edge43_Node000003_Node000025" class="edge">
<title>Node3&#45;&gt;Node25</title>
<g id="a_edge43_Node000003_Node000025"><a xlink:title=" ">
<path fill="none" stroke="#63b8ff" d="M780.41,-223.62C810.12,-204.63 877.63,-161.45 913.81,-138.31"/>
<polygon fill="#63b8ff" stroke="#63b8ff" points="915.31,-141.51 921.85,-133.17 911.54,-135.61 915.31,-141.51"/>
</a>
</g>
</g>
<!-- Node26 -->
<g id="Node000026" class="node">
<title>Node26</title>
<g id="a_Node000026"><a xlink:href="IReady_8hpp.html" target="_top" xlink:title=" ">
<polygon fill="white" stroke="#666666" points="65.5,-132 0,-132 0,-112 65.5,-112 65.5,-132"/>
<text text-anchor="middle" x="32.75" y="-118.5" font-family="Helvetica,sans-Serif" font-size="10.00">IReady.hpp</text>
</a>
</g>
</g>
<!-- Node3&#45;&gt;Node26 -->
<g id="edge44_Node000003_Node000026" class="edge">
<title>Node3&#45;&gt;Node26</title>
<g id="a_edge44_Node000003_Node000026"><a xlink:title=" ">
<path fill="none" stroke="#63b8ff" d="M740.39,-230.84C677.01,-225.29 506.69,-209.46 365.75,-188 239.1,-168.72 205.62,-158.79 76.84,-132.41"/>
<polygon fill="#63b8ff" stroke="#63b8ff" points="77.73,-129.01 67.23,-130.44 76.33,-135.87 77.73,-129.01"/>
</a>
</g>
</g>
<!-- Node27 -->
<g id="Node000027" class="node">
<title>Node27</title>
<g id="a_Node000027"><a xlink:title=" ">
<polygon fill="#e0e0e0" stroke="#999999" points="815.12,-188 780.38,-188 780.38,-168 815.12,-168 815.12,-188"/>
<text text-anchor="middle" x="797.75" y="-174.5" font-family="Helvetica,sans-Serif" font-size="10.00">map</text>
</a>
</g>
</g>
<!-- Node3&#45;&gt;Node27 -->
<g id="edge47_Node000003_Node000027" class="edge">
<title>Node3&#45;&gt;Node27</title>
<g id="a_edge47_Node000003_Node000027"><a xlink:title=" ">
<path fill="none" stroke="#63b8ff" d="M771.32,-223.59C775.5,-216.55 781.35,-206.67 786.49,-198"/>
<polygon fill="#63b8ff" stroke="#63b8ff" points="789.38,-199.99 791.47,-189.6 783.36,-196.42 789.38,-199.99"/>
</a>
</g>
</g>
<!-- Node3&#45;&gt;Node28 -->
<g id="edge48_Node000003_Node000028" class="edge">
<title>Node3&#45;&gt;Node28</title>
<g id="a_edge48_Node000003_Node000028"><a xlink:title=" ">
<path fill="none" stroke="#63b8ff" d="M791,-232.42C873.75,-230.25 1144.02,-220.94 1364.75,-188 1365.77,-187.85 1366.8,-187.69 1367.83,-187.51"/>
<polygon fill="#63b8ff" stroke="#63b8ff" points="1368.38,-190.97 1377.55,-185.65 1367.07,-184.1 1368.38,-190.97"/>
</a>
</g>
</g>
<!-- Node5 -->
<g id="Node000005" class="node">
<title>Node5</title>
<g id="a_Node000005"><a xlink:title=" ">
<polygon fill="#e0e0e0" stroke="#999999" points="671.12,-132 612.38,-132 612.38,-112 671.12,-112 671.12,-132"/>
<text text-anchor="middle" x="641.75" y="-118.5" font-family="Helvetica,sans-Serif" font-size="10.00">dpp/dpp.h</text>
</a>
</g>
</g>
<!-- Node4&#45;&gt;Node5 -->
<g id="edge4_Node000004_Node000005" class="edge">
<title>Node4&#45;&gt;Node5</title>
<g id="a_edge4_Node000004_Node000005"><a xlink:title=" ">
<path fill="none" stroke="#63b8ff" d="M718.55,-167.59C704.5,-159.44 683.92,-147.48 667.59,-138"/>
<polygon fill="#63b8ff" stroke="#63b8ff" points="669.79,-135.23 659.38,-133.24 666.28,-141.29 669.79,-135.23"/>
</a>
</g>
</g>
<!-- Node6 -->
<g id="Node000006" class="node">
<title>Node6</title>
<g id="a_Node000006"><a xlink:title=" ">
<polygon fill="#e0e0e0" stroke="#999999" points="780.25,-132 689.25,-132 689.25,-112 780.25,-112 780.25,-132"/>
<text text-anchor="middle" x="734.75" y="-118.5" font-family="Helvetica,sans-Serif" font-size="10.00">dpp/misc&#45;enum.h</text>
</a>
</g>
</g>
<!-- Node4&#45;&gt;Node6 -->
<g id="edge5_Node000004_Node000006" class="edge">
<title>Node4&#45;&gt;Node6</title>
<g id="a_edge5_Node000004_Node000006"><a xlink:title=" ">
<path fill="none" stroke="#63b8ff" d="M734.75,-167.59C734.75,-161.01 734.75,-151.96 734.75,-143.73"/>
<polygon fill="#63b8ff" stroke="#63b8ff" points="738.25,-143.81 734.75,-133.81 731.25,-143.81 738.25,-143.81"/>
</a>
</g>
</g>
<!-- Node7 -->
<g id="Node000007" class="node">
<title>Node7</title>
<g id="a_Node000007"><a xlink:title=" ">
<polygon fill="#e0e0e0" stroke="#999999" points="858.88,-132 798.62,-132 798.62,-112 858.88,-112 858.88,-132"/>
<text text-anchor="middle" x="828.75" y="-118.5" font-family="Helvetica,sans-Serif" font-size="10.00">fmt/core.h</text>
</a>
</g>
</g>
<!-- Node4&#45;&gt;Node7 -->
<g id="edge6_Node000004_Node000007" class="edge">
<title>Node4&#45;&gt;Node7</title>
<g id="a_edge6_Node000004_Node000007"><a xlink:title=" ">
<path fill="none" stroke="#63b8ff" d="M751.12,-167.59C765.32,-159.44 786.13,-147.48 802.63,-138"/>
<polygon fill="#63b8ff" stroke="#63b8ff" points="804.01,-141.25 810.94,-133.23 800.52,-135.18 804.01,-141.25"/>
</a>
</g>
</g>
<!-- Node8 -->
<g id="Node000008" class="node">
<title>Node8</title>
<g id="a_Node000008"><a xlink:href="Database_8hpp.html" target="_top" xlink:title=" ">
<polygon fill="white" stroke="#666666" points="1285.12,-132 1208.38,-132 1208.38,-112 1285.12,-112 1285.12,-132"/>
<text text-anchor="middle" x="1246.75" y="-118.5" font-family="Helvetica,sans-Serif" font-size="10.00">Database.hpp</text>
</a>
</g>
</g>
<!-- Node4&#45;&gt;Node8 -->
<g id="edge7_Node000004_Node000008" class="edge">
<title>Node4&#45;&gt;Node8</title>
<g id="a_edge7_Node000004_Node000008"><a xlink:title=" ">
<path fill="none" stroke="#63b8ff" d="M762.94,-169.69C765.9,-169.06 768.88,-168.48 771.75,-168 943.45,-139.35 988.53,-149.16 1161.75,-132 1173.16,-130.87 1185.42,-129.6 1196.98,-128.38"/>
<polygon fill="#63b8ff" stroke="#63b8ff" points="1197.18,-131.88 1206.75,-127.35 1196.44,-124.92 1197.18,-131.88"/>
</a>
</g>
</g>
<!-- Node4&#45;&gt;Node13 -->
<g id="edge37_Node000004_Node000013" class="edge">
<title>Node4&#45;&gt;Node13</title>
<g id="a_edge37_Node000004_Node000013"><a xlink:title=" ">
<path fill="none" stroke="#63b8ff" d="M762.93,-169.62C765.9,-169 768.88,-168.45 771.75,-168 1001.56,-132.39 1068.55,-190.01 1293.75,-132 1314.16,-126.74 1316.64,-118.32 1336.75,-112 1421.64,-85.31 1449.71,-96.78 1539.59,-76.22"/>
<polygon fill="#63b8ff" stroke="#63b8ff" points="1540.16,-79.68 1549.09,-73.97 1538.55,-72.87 1540.16,-79.68"/>
</a>
</g>
</g>
<!-- Node4&#45;&gt;Node17 -->
<g id="edge17_Node000004_Node000017" class="edge">
<title>Node4&#45;&gt;Node17</title>
<g id="a_edge17_Node000004_Node000017"><a xlink:title=" ">
<path fill="none" stroke="#63b8ff" d="M706.67,-169.26C674.59,-160.42 621.65,-145.84 583.78,-135.41"/>
<polygon fill="#63b8ff" stroke="#63b8ff" points="585.08,-132.13 574.51,-132.85 583.22,-138.88 585.08,-132.13"/>
</a>
</g>
</g>
<!-- Node4&#45;&gt;Node20 -->
<g id="edge20_Node000004_Node000020" class="edge">
<title>Node4&#45;&gt;Node20</title>
<g id="a_edge20_Node000004_Node000020"><a xlink:title=" ">
<path fill="none" stroke="#63b8ff" d="M706.46,-172.26C655.43,-163.7 546.82,-145.48 476.93,-133.76"/>
<polygon fill="#63b8ff" stroke="#63b8ff" points="477.57,-130.32 467.12,-132.12 476.41,-137.22 477.57,-130.32"/>
</a>
</g>
</g>
<!-- Node4&#45;&gt;Node21 -->
<g id="edge23_Node000004_Node000021" class="edge">
<title>Node4&#45;&gt;Node21</title>
<g id="a_edge23_Node000004_Node000021"><a xlink:title=" ">
<path fill="none" stroke="#63b8ff" d="M762.97,-169.84C765.93,-169.18 768.89,-168.55 771.75,-168 815.16,-159.62 927.86,-143.97 1005.47,-133.52"/>
<polygon fill="#63b8ff" stroke="#63b8ff" points="1005.71,-137.02 1015.15,-132.21 1004.78,-130.08 1005.71,-137.02"/>
</a>
</g>
</g>
<!-- Node4&#45;&gt;Node23 -->
<g id="edge28_Node000004_Node000023" class="edge">
<title>Node4&#45;&gt;Node23</title>
<g id="a_edge28_Node000004_Node000023"><a xlink:title=" ">
<path fill="none" stroke="#63b8ff" d="M706.59,-175.04C629.52,-169.57 408.41,-153.25 213.4,-132.24"/>
<polygon fill="#63b8ff" stroke="#63b8ff" points="213.89,-128.78 203.57,-131.18 213.14,-135.74 213.89,-128.78"/>
</a>
</g>
</g>
<!-- Node4&#45;&gt;Node24 -->
<g id="edge31_Node000004_Node000024" class="edge">
<title>Node4&#45;&gt;Node24</title>
<g id="a_edge31_Node000004_Node000024"><a xlink:title=" ">
<path fill="none" stroke="#63b8ff" d="M706.79,-173.83C645.09,-166.82 492.33,-149.33 353.46,-132.32"/>
<polygon fill="#63b8ff" stroke="#63b8ff" points="354.06,-128.87 343.71,-131.13 353.21,-135.82 354.06,-128.87"/>
</a>
</g>
</g>
<!-- Node4&#45;&gt;Node25 -->
<g id="edge34_Node000004_Node000025" class="edge">
<title>Node4&#45;&gt;Node25</title>
<g id="a_edge34_Node000004_Node000025"><a xlink:title=" ">
<path fill="none" stroke="#63b8ff" d="M762.98,-169.49C796.17,-160.66 851.73,-145.88 891.3,-135.36"/>
<polygon fill="#63b8ff" stroke="#63b8ff" points="892.03,-138.78 900.8,-132.83 890.23,-132.02 892.03,-138.78"/>
</a>
</g>
</g>
<!-- Node9 -->
<g id="Node000009" class="node">
<title>Node9</title>
<g id="a_Node000009"><a xlink:title=" ">
<polygon fill="#e0e0e0" stroke="#999999" points="1532.88,-76 1484.62,-76 1484.62,-56 1532.88,-56 1532.88,-76"/>
<text text-anchor="middle" x="1508.75" y="-62.5" font-family="Helvetica,sans-Serif" font-size="10.00">cstddef</text>
</a>
</g>
</g>
<!-- Node8&#45;&gt;Node9 -->
<g id="edge8_Node000008_Node000009" class="edge">
<title>Node8&#45;&gt;Node9</title>
<g id="a_edge8_Node000008_Node000009"><a xlink:title=" ">
<path fill="none" stroke="#63b8ff" d="M1285.42,-114.28C1328.87,-106.54 1401.72,-92.98 1473.29,-76.45"/>
<polygon fill="#63b8ff" stroke="#63b8ff" points="1473.88,-79.91 1482.82,-74.23 1472.28,-73.09 1473.88,-79.91"/>
</a>
</g>
</g>
<!-- Node10 -->
<g id="Node000010" class="node">
<title>Node10</title>
<g id="a_Node000010"><a xlink:title=" ">
<polygon fill="#e0e0e0" stroke="#999999" points="1156.5,-76 1103,-76 1103,-56 1156.5,-56 1156.5,-76"/>
<text text-anchor="middle" x="1129.75" y="-62.5" font-family="Helvetica,sans-Serif" font-size="10.00">iostream</text>
</a>
</g>
</g>
<!-- Node8&#45;&gt;Node10 -->
<g id="edge9_Node000008_Node000010" class="edge">
<title>Node8&#45;&gt;Node10</title>
<g id="a_edge9_Node000008_Node000010"><a xlink:title=" ">
<path fill="none" stroke="#63b8ff" d="M1226.37,-111.59C1208.19,-103.21 1181.32,-90.8 1160.53,-81.21"/>
<polygon fill="#63b8ff" stroke="#63b8ff" points="1162.21,-78.13 1151.66,-77.11 1159.28,-84.48 1162.21,-78.13"/>
</a>
</g>
</g>
<!-- Node11 -->
<g id="Node000011" class="node">
<title>Node11</title>
<g id="a_Node000011"><a xlink:title=" ">
<polygon fill="#e0e0e0" stroke="#999999" points="1224.62,-76 1174.88,-76 1174.88,-56 1224.62,-56 1224.62,-76"/>
<text text-anchor="middle" x="1199.75" y="-62.5" font-family="Helvetica,sans-Serif" font-size="10.00">optional</text>
</a>
</g>
</g>
<!-- Node8&#45;&gt;Node11 -->
<g id="edge10_Node000008_Node000011" class="edge">
<title>Node8&#45;&gt;Node11</title>
<g id="a_edge10_Node000008_Node000011"><a xlink:title=" ">
<path fill="none" stroke="#63b8ff" d="M1238.56,-111.59C1232.16,-104.24 1223.07,-93.8 1215.3,-84.87"/>
<polygon fill="#63b8ff" stroke="#63b8ff" points="1218.04,-82.69 1208.84,-77.44 1212.76,-87.28 1218.04,-82.69"/>
</a>
</g>
</g>
<!-- Node12 -->
<g id="Node000012" class="node">
<title>Node12</title>
<g id="a_Node000012"><a xlink:title=" ">
<polygon fill="#e0e0e0" stroke="#999999" points="1324.25,-20 1263.25,-20 1263.25,0 1324.25,0 1324.25,-20"/>
<text text-anchor="middle" x="1293.75" y="-6.5" font-family="Helvetica,sans-Serif" font-size="10.00">pqxx/pqxx</text>
</a>
</g>
</g>
<!-- Node8&#45;&gt;Node12 -->
<g id="edge11_Node000008_Node000012" class="edge">
<title>Node8&#45;&gt;Node12</title>
<g id="a_edge11_Node000008_Node000012"><a xlink:title=" ">
<path fill="none" stroke="#63b8ff" d="M1250.06,-111.64C1254.62,-98.92 1263.25,-75.51 1271.75,-56 1275.48,-47.44 1279.95,-38.14 1283.89,-30.23"/>
<polygon fill="#63b8ff" stroke="#63b8ff" points="1286.89,-32.05 1288.28,-21.55 1280.64,-28.89 1286.89,-32.05"/>
</a>
</g>
</g>
<!-- Node8&#45;&gt;Node13 -->
<g id="edge12_Node000008_Node000013" class="edge">
<title>Node8&#45;&gt;Node13</title>
<g id="a_edge12_Node000008_Node000013"><a xlink:title=" ">
<path fill="none" stroke="#63b8ff" d="M1285.35,-114.21C1289.87,-113.45 1294.41,-112.7 1298.75,-112 1402.97,-95.26 1433.3,-99.91 1539.09,-76.32"/>
<polygon fill="#63b8ff" stroke="#63b8ff" points="1539.81,-79.75 1548.78,-74.12 1538.26,-72.92 1539.81,-79.75"/>
</a>
</g>
</g>
<!-- Node14 -->
<g id="Node000014" class="node">
<title>Node14</title>
<g id="a_Node000014"><a xlink:title=" ">
<polygon fill="#e0e0e0" stroke="#999999" points="1466.75,-76 1408.75,-76 1408.75,-56 1466.75,-56 1466.75,-76"/>
<text text-anchor="middle" x="1437.75" y="-62.5" font-family="Helvetica,sans-Serif" font-size="10.00">typeindex</text>
</a>
</g>
</g>
<!-- Node8&#45;&gt;Node14 -->
<g id="edge13_Node000008_Node000014" class="edge">
<title>Node8&#45;&gt;Node14</title>
<g id="a_edge13_Node000008_Node000014"><a xlink:title=" ">
<path fill="none" stroke="#63b8ff" d="M1280.02,-111.59C1312.71,-102.35 1362.64,-88.23 1397.54,-78.37"/>
<polygon fill="#63b8ff" stroke="#63b8ff" points="1398.18,-81.83 1406.85,-75.74 1396.27,-75.09 1398.18,-81.83"/>
</a>
</g>
</g>
<!-- Node8&#45;&gt;Node15 -->
<g id="edge14_Node000008_Node000015" class="edge">
<title>Node8&#45;&gt;Node15</title>
<g id="a_edge14_Node000008_Node000015"><a xlink:title=" ">
<path fill="none" stroke="#63b8ff" d="M1214.5,-111.57C1185.76,-103.15 1142.28,-90.39 1096.45,-76.79"/>
<polygon fill="#63b8ff" stroke="#63b8ff" points="1097.73,-73.52 1087.15,-74.03 1095.74,-80.23 1097.73,-73.52"/>
</a>
</g>
</g>
<!-- Node16 -->
<g id="Node000016" class="node">
<title>Node16</title>
<g id="a_Node000016"><a xlink:href="RowDTOAdapter_8hpp.html" target="_top" xlink:title=" ">
<polygon fill="white" stroke="#666666" points="1390.62,-76 1280.88,-76 1280.88,-56 1390.62,-56 1390.62,-76"/>
<text text-anchor="middle" x="1335.75" y="-62.5" font-family="Helvetica,sans-Serif" font-size="10.00">RowDTOAdapter.hpp</text>
</a>
</g>
</g>
<!-- Node8&#45;&gt;Node16 -->
<g id="edge15_Node000008_Node000016" class="edge">
<title>Node8&#45;&gt;Node16</title>
<g id="a_edge15_Node000008_Node000016"><a xlink:title=" ">
<path fill="none" stroke="#63b8ff" d="M1262.25,-111.59C1275.57,-103.51 1295.03,-91.71 1310.58,-82.27"/>
<polygon fill="#63b8ff" stroke="#63b8ff" points="1312.1,-85.44 1318.83,-77.26 1308.47,-79.46 1312.1,-85.44"/>
</a>
</g>
</g>
<!-- Node16&#45;&gt;Node12 -->
<g id="edge16_Node000016_Node000012" class="edge">
<title>Node16&#45;&gt;Node12</title>
<g id="a_edge16_Node000016_Node000012"><a xlink:title=" ">
<path fill="none" stroke="#63b8ff" d="M1328.43,-55.59C1322.77,-48.32 1314.76,-38.02 1307.86,-29.15"/>
<polygon fill="#63b8ff" stroke="#63b8ff" points="1310.81,-27.24 1301.91,-21.49 1305.29,-31.54 1310.81,-27.24"/>
</a>
</g>
</g>
<!-- Node18 -->
<g id="Node000018" class="node">
<title>Node18</title>
<g id="a_Node000018"><a xlink:title=" ">
<polygon fill="#e0e0e0" stroke="#999999" points="399.88,-76 327.62,-76 327.62,-56 399.88,-56 399.88,-76"/>
<text text-anchor="middle" x="363.75" y="-62.5" font-family="Helvetica,sans-Serif" font-size="10.00">dpp/cluster.h</text>
</a>
</g>
</g>
<!-- Node17&#45;&gt;Node18 -->
<g id="edge18_Node000017_Node000018" class="edge">
<title>Node17&#45;&gt;Node18</title>
<g id="a_edge18_Node000017_Node000018"><a xlink:title=" ">
<path fill="none" stroke="#63b8ff" d="M508.27,-111.59C479.71,-102.78 436.8,-89.54 405.15,-79.78"/>
<polygon fill="#63b8ff" stroke="#63b8ff" points="406.5,-76.53 395.92,-76.93 404.44,-83.22 406.5,-76.53"/>
</a>
</g>
</g>
<!-- Node19 -->
<g id="Node000019" class="node">
<title>Node19</title>
<g id="a_Node000019"><a xlink:title=" ">
<polygon fill="#e0e0e0" stroke="#999999" points="505.75,-76 417.75,-76 417.75,-56 505.75,-56 505.75,-76"/>
<text text-anchor="middle" x="461.75" y="-62.5" font-family="Helvetica,sans-Serif" font-size="10.00">dpp/dispatcher.h</text>
</a>
</g>
</g>
<!-- Node17&#45;&gt;Node19 -->
<g id="edge19_Node000017_Node000019" class="edge">
<title>Node17&#45;&gt;Node19</title>
<g id="a_edge19_Node000017_Node000019"><a xlink:title=" ">
<path fill="none" stroke="#63b8ff" d="M525.34,-111.59C514.14,-103.74 497.94,-92.38 484.69,-83.09"/>
<polygon fill="#63b8ff" stroke="#63b8ff" points="486.7,-80.22 476.51,-77.35 482.68,-85.96 486.7,-80.22"/>
</a>
</g>
</g>
<!-- Node20&#45;&gt;Node18 -->
<g id="edge21_Node000020_Node000018" class="edge">
<title>Node20&#45;&gt;Node18</title>
<g id="a_edge21_Node000020_Node000018"><a xlink:title=" ">
<path fill="none" stroke="#63b8ff" d="M404.21,-111.59C397.47,-104.16 387.86,-93.58 379.71,-84.58"/>
<polygon fill="#63b8ff" stroke="#63b8ff" points="382.52,-82.47 373.2,-77.42 377.33,-87.18 382.52,-82.47"/>
</a>
</g>
</g>
<!-- Node20&#45;&gt;Node19 -->
<g id="edge22_Node000020_Node000019" class="edge">
<title>Node20&#45;&gt;Node19</title>
<g id="a_edge22_Node000020_Node000019"><a xlink:title=" ">
<path fill="none" stroke="#63b8ff" d="M421.29,-111.59C428.03,-104.16 437.64,-93.58 445.79,-84.58"/>
<polygon fill="#63b8ff" stroke="#63b8ff" points="448.17,-87.18 452.3,-77.42 442.98,-82.47 448.17,-87.18"/>
</a>
</g>
</g>
<!-- Node21&#45;&gt;Node15 -->
<g id="edge27_Node000021_Node000015" class="edge">
<title>Node21&#45;&gt;Node15</title>
<g id="a_edge27_Node000021_Node000015"><a xlink:title=" ">
<path fill="none" stroke="#63b8ff" d="M1081.09,-111.59C1078.44,-104.78 1074.76,-95.32 1071.47,-86.86"/>
<polygon fill="#63b8ff" stroke="#63b8ff" points="1074.8,-85.76 1067.91,-77.71 1068.28,-88.3 1074.8,-85.76"/>
</a>
</g>
</g>
<!-- Node21&#45;&gt;Node18 -->
<g id="edge25_Node000021_Node000018" class="edge">
<title>Node21&#45;&gt;Node18</title>
<g id="a_edge25_Node000021_Node000018"><a xlink:title=" ">
<path fill="none" stroke="#63b8ff" d="M1016.75,-112.84C1013.71,-112.54 1010.7,-112.26 1007.75,-112 745.72,-88.83 675.17,-109.65 411.12,-76.13"/>
<polygon fill="#63b8ff" stroke="#63b8ff" points="411.89,-72.7 401.53,-74.89 411,-79.64 411.89,-72.7"/>
</a>
</g>
</g>
<!-- Node21&#45;&gt;Node19 -->
<g id="edge26_Node000021_Node000019" class="edge">
<title>Node21&#45;&gt;Node19</title>
<g id="a_edge26_Node000021_Node000019"><a xlink:title=" ">
<path fill="none" stroke="#63b8ff" d="M1016.74,-112.92C1013.71,-112.6 1010.7,-112.29 1007.75,-112 828.81,-94.17 616.37,-78.13 517.51,-70.96"/>
<polygon fill="#63b8ff" stroke="#63b8ff" points="517.77,-67.47 507.54,-70.24 517.26,-74.46 517.77,-67.47"/>
</a>
</g>
</g>
<!-- Node22 -->
<g id="Node000022" class="node">
<title>Node22</title>
<g id="a_Node000022"><a xlink:title=" ">
<polygon fill="#e0e0e0" stroke="#999999" points="1024.12,-76 941.38,-76 941.38,-56 1024.12,-56 1024.12,-76"/>
<text text-anchor="middle" x="982.75" y="-62.5" font-family="Helvetica,sans-Serif" font-size="10.00">appcommand.h</text>
</a>
</g>
</g>
<!-- Node21&#45;&gt;Node22 -->
<g id="edge24_Node000021_Node000022" class="edge">
<title>Node21&#45;&gt;Node22</title>
<g id="a_edge24_Node000021_Node000022"><a xlink:title=" ">
<path fill="none" stroke="#63b8ff" d="M1066.98,-111.59C1051.43,-103.36 1028.57,-91.26 1010.59,-81.74"/>
<polygon fill="#63b8ff" stroke="#63b8ff" points="1012.47,-78.77 1001.99,-77.19 1009.19,-84.96 1012.47,-78.77"/>
</a>
</g>
</g>
<!-- Node23&#45;&gt;Node18 -->
<g id="edge29_Node000023_Node000018" class="edge">
<title>Node23&#45;&gt;Node18</title>
<g id="a_edge29_Node000023_Node000018"><a xlink:title=" ">
<path fill="none" stroke="#63b8ff" d="M181.5,-111.53C218.99,-102.37 275.88,-88.47 316.12,-78.64"/>
<polygon fill="#63b8ff" stroke="#63b8ff" points="316.9,-82.05 325.78,-76.28 315.24,-75.25 316.9,-82.05"/>
</a>
</g>
</g>
<!-- Node23&#45;&gt;Node19 -->
<g id="edge30_Node000023_Node000019" class="edge">
<title>Node23&#45;&gt;Node19</title>
<g id="a_edge30_Node000023_Node000019"><a xlink:title=" ">
<path fill="none" stroke="#63b8ff" d="M198.8,-111.53C250.21,-102.84 328.8,-89.55 406.54,-76.37"/>
<polygon fill="#63b8ff" stroke="#63b8ff" points="406.74,-79.89 416.01,-74.77 405.57,-72.99 406.74,-79.89"/>
</a>
</g>
</g>
<!-- Node24&#45;&gt;Node18 -->
<g id="edge32_Node000024_Node000018" class="edge">
<title>Node24&#45;&gt;Node18</title>
<g id="a_edge32_Node000024_Node000018"><a xlink:title=" ">
<path fill="none" stroke="#63b8ff" d="M295.21,-111.59C307.51,-103.59 325.43,-91.93 339.86,-82.54"/>
<polygon fill="#63b8ff" stroke="#63b8ff" points="341.44,-85.69 347.91,-77.3 337.62,-79.82 341.44,-85.69"/>
</a>
</g>
</g>
<!-- Node24&#45;&gt;Node19 -->
<g id="edge33_Node000024_Node000019" class="edge">
<title>Node24&#45;&gt;Node19</title>
<g id="a_edge33_Node000024_Node000019"><a xlink:title=" ">
<path fill="none" stroke="#63b8ff" d="M312.28,-111.59C341.94,-102.74 386.58,-89.43 419.36,-79.65"/>
<polygon fill="#63b8ff" stroke="#63b8ff" points="419.94,-83.13 428.53,-76.91 417.94,-76.42 419.94,-83.13"/>
</a>
</g>
</g>
<!-- Node25&#45;&gt;Node18 -->
<g id="edge35_Node000025_Node000018" class="edge">
<title>Node25&#45;&gt;Node18</title>
<g id="a_edge35_Node000025_Node000018"><a xlink:title=" ">
<path fill="none" stroke="#63b8ff" d="M876.69,-112.97C873.67,-112.63 870.68,-112.3 867.75,-112 667.89,-91.33 613.39,-103.65 411.34,-76.2"/>
<polygon fill="#63b8ff" stroke="#63b8ff" points="411.92,-72.75 401.54,-74.85 410.96,-79.68 411.92,-72.75"/>
</a>
</g>
</g>
<!-- Node25&#45;&gt;Node19 -->
<g id="edge36_Node000025_Node000019" class="edge">
<title>Node25&#45;&gt;Node19</title>
<g id="a_edge36_Node000025_Node000019"><a xlink:title=" ">
<path fill="none" stroke="#63b8ff" d="M876.67,-113.08C873.66,-112.71 870.67,-112.35 867.75,-112 742.58,-97.02 595.49,-81.15 517.27,-72.84"/>
<polygon fill="#63b8ff" stroke="#63b8ff" points="518.05,-69.41 507.74,-71.83 517.32,-76.37 518.05,-69.41"/>
</a>
</g>
</g>
<!-- Node26&#45;&gt;Node18 -->
<g id="edge45_Node000026_Node000018" class="edge">
<title>Node26&#45;&gt;Node18</title>
<g id="a_edge45_Node000026_Node000018"><a xlink:title=" ">
<path fill="none" stroke="#63b8ff" d="M65.73,-113.75C68.77,-113.13 71.82,-112.54 74.75,-112 159.3,-96.37 258.44,-81.73 315.88,-73.61"/>
<polygon fill="#63b8ff" stroke="#63b8ff" points="316.23,-77.09 325.64,-72.23 315.25,-70.16 316.23,-77.09"/>
</a>
</g>
</g>
<!-- Node26&#45;&gt;Node19 -->
<g id="edge46_Node000026_Node000019" class="edge">
<title>Node26&#45;&gt;Node19</title>
<g id="a_edge46_Node000026_Node000019"><a xlink:title=" ">
<path fill="none" stroke="#63b8ff" d="M65.7,-113.6C68.75,-113.02 71.8,-112.47 74.75,-112 218.57,-88.9 258.91,-96.13 406.27,-76.26"/>
<polygon fill="#63b8ff" stroke="#63b8ff" points="406.6,-79.75 416.04,-74.92 405.65,-72.81 406.6,-79.75"/>
</a>
</g>
</g>
<!-- Node29&#45;&gt;Node3 -->
<g id="edge52_Node000029_Node000003" class="edge">
<title>Node29&#45;&gt;Node3</title>
<g id="a_edge52_Node000029_Node000003"><a xlink:title=" ">
<path fill="none" stroke="#63b8ff" d="M1473.78,-280.83C1470.73,-280.54 1467.71,-280.26 1464.75,-280 1211.6,-257.8 905.96,-241.86 802.22,-236.75"/>
<polygon fill="#63b8ff" stroke="#63b8ff" points="802.53,-233.26 792.37,-236.27 802.19,-240.25 802.53,-233.26"/>
</a>
</g>
</g>
<!-- Node29&#45;&gt;Node13 -->
<g id="edge55_Node000029_Node000013" class="edge">
<title>Node29&#45;&gt;Node13</title>
<g id="a_edge55_Node000029_Node000013"><a xlink:title=" ">
<path fill="none" stroke="#63b8ff" d="M1547.9,-279.74C1549.94,-270.68 1552.95,-256.46 1554.75,-244 1562.91,-187.66 1567.62,-120.59 1569.61,-87.52"/>
<polygon fill="#63b8ff" stroke="#63b8ff" points="1573.09,-87.95 1570.18,-77.77 1566.1,-87.55 1573.09,-87.95"/>
</a>
</g>
</g>
<!-- Node30 -->
<g id="Node000030" class="node">
<title>Node30</title>
<g id="a_Node000030"><a xlink:title=" ">
<polygon fill="#e0e0e0" stroke="#999999" points="1469.75,-244 1429.75,-244 1429.75,-224 1469.75,-224 1469.75,-244"/>
<text text-anchor="middle" x="1449.75" y="-230.5" font-family="Helvetica,sans-Serif" font-size="10.00">stack</text>
</a>
</g>
</g>
<!-- Node29&#45;&gt;Node30 -->
<g id="edge53_Node000029_Node000030" class="edge">
<title>Node29&#45;&gt;Node30</title>
<g id="a_edge53_Node000029_Node000030"><a xlink:title=" ">
<path fill="none" stroke="#63b8ff" d="M1529.03,-279.59C1514.53,-271.44 1493.28,-259.48 1476.43,-250"/>
<polygon fill="#63b8ff" stroke="#63b8ff" points="1478.35,-247.07 1467.92,-245.22 1474.92,-253.17 1478.35,-247.07"/>
</a>
</g>
</g>
<!-- Node31 -->
<g id="Node000031" class="node">
<title>Node31</title>
<g id="a_Node000031"><a xlink:title=" ">
<polygon fill="#e0e0e0" stroke="#999999" points="1546.12,-244 1487.38,-244 1487.38,-224 1546.12,-224 1546.12,-244"/>
<text text-anchor="middle" x="1516.75" y="-230.5" font-family="Helvetica,sans-Serif" font-size="10.00">stdexcept</text>
</a>
</g>
</g>
<!-- Node29&#45;&gt;Node31 -->
<g id="edge54_Node000029_Node000031" class="edge">
<title>Node29&#45;&gt;Node31</title>
<g id="a_edge54_Node000029_Node000031"><a xlink:title=" ">
<path fill="none" stroke="#63b8ff" d="M1540.7,-279.59C1536.96,-272.63 1531.73,-262.89 1527.11,-254.29"/>
<polygon fill="#63b8ff" stroke="#63b8ff" points="1530.27,-252.79 1522.46,-245.63 1524.11,-256.1 1530.27,-252.79"/>
</a>
</g>
</g>
<!-- Node32&#45;&gt;Node3 -->
<g id="edge57_Node000032_Node000003" class="edge">
<title>Node32&#45;&gt;Node3</title>
<g id="a_edge57_Node000032_Node000003"><a xlink:title=" ">
<path fill="none" stroke="#63b8ff" d="M677.39,-279.59C693.78,-271.32 717.91,-259.14 736.81,-249.6"/>
<polygon fill="#63b8ff" stroke="#63b8ff" points="738.26,-252.79 745.62,-245.16 735.11,-246.54 738.26,-252.79"/>
</a>
</g>
</g>
<!-- Node33&#45;&gt;Node3 -->
<g id="edge59_Node000033_Node000003" class="edge">
<title>Node33&#45;&gt;Node3</title>
<g id="a_edge59_Node000033_Node000003"><a xlink:title=" ">
<path fill="none" stroke="#63b8ff" d="M843.38,-279.59C829.18,-271.44 808.37,-259.48 791.87,-250"/>
<polygon fill="#63b8ff" stroke="#63b8ff" points="793.98,-247.18 783.56,-245.23 790.49,-253.25 793.98,-247.18"/>
</a>
</g>
</g>
<!-- Node34&#45;&gt;Node3 -->
<g id="edge61_Node000034_Node000003" class="edge">
<title>Node34&#45;&gt;Node3</title>
<g id="a_edge61_Node000034_Node000003"><a xlink:title=" ">
<path fill="none" stroke="#63b8ff" d="M942.47,-279.59C902.99,-269.63 841.09,-254.01 802,-244.15"/>
<polygon fill="#63b8ff" stroke="#63b8ff" points="802.91,-240.77 792.36,-241.72 801.2,-247.56 802.91,-240.77"/>
</a>
</g>
</g>
<!-- Node35&#45;&gt;Node3 -->
<g id="edge63_Node000035_Node000003" class="edge">
<title>Node35&#45;&gt;Node3</title>
<g id="a_edge63_Node000035_Node000003"><a xlink:title=" ">
<path fill="none" stroke="#63b8ff" d="M1049.14,-280.68C980.66,-269.64 861.48,-250.43 801.87,-240.82"/>
<polygon fill="#63b8ff" stroke="#63b8ff" points="802.7,-237.41 792.27,-239.28 801.59,-244.32 802.7,-237.41"/>
</a>
</g>
</g>
<!-- Node36&#45;&gt;Node3 -->
<g id="edge65_Node000036_Node000003" class="edge">
<title>Node36&#45;&gt;Node3</title>
<g id="a_edge65_Node000036_Node000003"><a xlink:title=" ">
<path fill="none" stroke="#63b8ff" d="M1169.88,-281.26C1166.79,-280.82 1163.73,-280.4 1160.75,-280 1028.81,-262.43 871.51,-245.79 801.92,-238.66"/>
<polygon fill="#63b8ff" stroke="#63b8ff" points="802.56,-235.2 792.25,-237.67 801.84,-242.17 802.56,-235.2"/>
</a>
</g>
</g>
<!-- Node37&#45;&gt;Node3 -->
<g id="edge67_Node000037_Node000003" class="edge">
<title>Node37&#45;&gt;Node3</title>
<g id="a_edge67_Node000037_Node000003"><a xlink:title=" ">
<path fill="none" stroke="#63b8ff" d="M388.45,-281.14C391.6,-280.76 394.71,-280.37 397.75,-280 519.24,-265.08 663.3,-247.5 729.36,-239.44"/>
<polygon fill="#63b8ff" stroke="#63b8ff" points="729.76,-242.92 739.26,-238.23 728.91,-235.97 729.76,-242.92"/>
</a>
</g>
</g>
<!-- Node38&#45;&gt;Node3 -->
<g id="edge69_Node000038_Node000003" class="edge">
<title>Node38&#45;&gt;Node3</title>
<g id="a_edge69_Node000038_Node000003"><a xlink:title=" ">
<path fill="none" stroke="#63b8ff" d="M501.14,-280.8C563.84,-269.95 673.03,-251.05 729.54,-241.27"/>
<polygon fill="#63b8ff" stroke="#63b8ff" points="730.02,-244.74 739.27,-239.58 728.82,-237.84 730.02,-244.74"/>
</a>
</g>
</g>
<!-- Node40&#45;&gt;Node3 -->
<g id="edge72_Node000040_Node000003" class="edge">
<title>Node40&#45;&gt;Node3</title>
<g id="a_edge72_Node000040_Node000003"><a xlink:title=" ">
<path fill="none" stroke="#63b8ff" d="M755.01,-279.59C756.62,-272.93 758.83,-263.75 760.83,-255.44"/>
<polygon fill="#63b8ff" stroke="#63b8ff" points="764.22,-256.31 763.16,-245.77 757.41,-254.67 764.22,-256.31"/>
</a>
</g>
</g>
</g>
</svg>
