<?xml version="1.0" encoding="UTF-8" standalone="no"?>
<!DOCTYPE svg PUBLIC "-//W3C//DTD SVG 1.1//EN"
 "http://www.w3.org/Graphics/SVG/1.1/DTD/svg11.dtd">
<!-- Generated by graphviz version 9.0.0 (0)
 -->
<!-- Title: src/bot_library/bot/core/Core.cpp Pages: 1 -->
<svg width="1349pt" height="264pt"
 viewBox="0.00 0.00 1349.12 264.00" xmlns="http://www.w3.org/2000/svg" xmlns:xlink="http://www.w3.org/1999/xlink">
<g id="graph0" class="graph" transform="scale(1 1) rotate(0) translate(4 260)">
<title>src/bot_library/bot/core/Core.cpp</title>
<!-- Node1 -->
<g id="Node000001" class="node">
<title>Node1</title>
<g id="a_Node000001"><a xlink:title=" ">
<polygon fill="#999999" stroke="#666666" points="595.75,-256 501.75,-256 501.75,-224 595.75,-224 595.75,-256"/>
<text text-anchor="start" x="509.75" y="-242.5" font-family="Helvetica,sans-Serif" font-size="10.00">src/bot_library/bot</text>
<text text-anchor="middle" x="548.75" y="-230.5" font-family="Helvetica,sans-Serif" font-size="10.00">/core/Core.cpp</text>
</a>
</g>
</g>
<!-- Node2 -->
<g id="Node000002" class="node">
<title>Node2</title>
<g id="a_Node000002"><a xlink:title=" ">
<polygon fill="#e0e0e0" stroke="#999999" points="95.5,-188 0,-188 0,-168 95.5,-168 95.5,-188"/>
<text text-anchor="middle" x="47.75" y="-174.5" font-family="Helvetica,sans-Serif" font-size="10.00">dpp/permissions.h</text>
</a>
</g>
</g>
<!-- Node1&#45;&gt;Node2 -->
<g id="edge1_Node000001_Node000002" class="edge">
<title>Node1&#45;&gt;Node2</title>
<g id="a_edge1_Node000001_Node000002"><a xlink:title=" ">
<path fill="none" stroke="#63b8ff" d="M501.36,-234.22C422.06,-226.08 257.2,-208.53 107.17,-188.28"/>
<polygon fill="#63b8ff" stroke="#63b8ff" points="107.81,-184.84 97.43,-186.96 106.87,-191.77 107.81,-184.84"/>
</a>
</g>
</g>
<!-- Node3 -->
<g id="Node000003" class="node">
<title>Node3</title>
<g id="a_Node000003"><a xlink:title=" ">
<polygon fill="#e0e0e0" stroke="#999999" points="178.12,-188 113.38,-188 113.38,-168 178.12,-168 178.12,-188"/>
<text text-anchor="middle" x="145.75" y="-174.5" font-family="Helvetica,sans-Serif" font-size="10.00">dpp/timer.h</text>
</a>
</g>
</g>
<!-- Node1&#45;&gt;Node3 -->
<g id="edge2_Node000001_Node000003" class="edge">
<title>Node1&#45;&gt;Node3</title>
<g id="a_edge2_Node000001_Node000003"><a xlink:title=" ">
<path fill="none" stroke="#63b8ff" d="M501.28,-233.01C432.76,-224.18 302.25,-206.69 191.75,-188 191.07,-187.89 190.39,-187.77 189.7,-187.65"/>
<polygon fill="#63b8ff" stroke="#63b8ff" points="190.33,-184.21 179.87,-185.87 189.09,-191.1 190.33,-184.21"/>
</a>
</g>
</g>
<!-- Node4 -->
<g id="Node000004" class="node">
<title>Node4</title>
<g id="a_Node000004"><a xlink:href="Core_8hpp.html" target="_top" xlink:title=" ">
<polygon fill="white" stroke="#666666" points="507.62,-188 451.88,-188 451.88,-168 507.62,-168 507.62,-188"/>
<text text-anchor="middle" x="479.75" y="-174.5" font-family="Helvetica,sans-Serif" font-size="10.00">Core.hpp</text>
</a>
</g>
</g>
<!-- Node1&#45;&gt;Node4 -->
<g id="edge3_Node000001_Node000004" class="edge">
<title>Node1&#45;&gt;Node4</title>
<g id="a_edge3_Node000001_Node000004"><a xlink:title=" ">
<path fill="none" stroke="#63b8ff" d="M530.98,-223.55C521.2,-215.04 509.05,-204.48 499.03,-195.77"/>
<polygon fill="#63b8ff" stroke="#63b8ff" points="501.55,-193.32 491.71,-189.4 496.96,-198.6 501.55,-193.32"/>
</a>
</g>
</g>
<!-- Node12 -->
<g id="Node000012" class="node">
<title>Node12</title>
<g id="a_Node000012"><a xlink:title=" ">
<polygon fill="#e0e0e0" stroke="#999999" points="332.25,-76 289.25,-76 289.25,-56 332.25,-56 332.25,-76"/>
<text text-anchor="middle" x="310.75" y="-62.5" font-family="Helvetica,sans-Serif" font-size="10.00">vector</text>
</a>
</g>
</g>
<!-- Node1&#45;&gt;Node12 -->
<g id="edge40_Node000001_Node000012" class="edge">
<title>Node1&#45;&gt;Node12</title>
<g id="a_edge40_Node000001_Node000012"><a xlink:title=" ">
<path fill="none" stroke="#63b8ff" d="M501.43,-239.33C428.05,-236.96 288.61,-220.34 224.75,-132 206.8,-107.17 246.97,-87.52 278.27,-76.57"/>
<polygon fill="#63b8ff" stroke="#63b8ff" points="279.03,-80.01 287.43,-73.55 276.83,-73.36 279.03,-80.01"/>
</a>
</g>
</g>
<!-- Node23 -->
<g id="Node000023" class="node">
<title>Node23</title>
<g id="a_Node000023"><a xlink:title=" ">
<polygon fill="#e0e0e0" stroke="#999999" points="571.38,-188 526.12,-188 526.12,-168 571.38,-168 571.38,-188"/>
<text text-anchor="middle" x="548.75" y="-174.5" font-family="Helvetica,sans-Serif" font-size="10.00">chrono</text>
</a>
</g>
</g>
<!-- Node1&#45;&gt;Node23 -->
<g id="edge35_Node000001_Node000023" class="edge">
<title>Node1&#45;&gt;Node23</title>
<g id="a_edge35_Node000001_Node000023"><a xlink:title=" ">
<path fill="none" stroke="#63b8ff" d="M548.75,-223.55C548.75,-216.34 548.75,-207.66 548.75,-199.88"/>
<polygon fill="#63b8ff" stroke="#63b8ff" points="552.25,-199.92 548.75,-189.92 545.25,-199.92 552.25,-199.92"/>
</a>
</g>
</g>
<!-- Node24 -->
<g id="Node000024" class="node">
<title>Node24</title>
<g id="a_Node000024"><a xlink:title=" ">
<polygon fill="#e0e0e0" stroke="#999999" points="624.12,-188 589.38,-188 589.38,-168 624.12,-168 624.12,-188"/>
<text text-anchor="middle" x="606.75" y="-174.5" font-family="Helvetica,sans-Serif" font-size="10.00">ratio</text>
</a>
</g>
</g>
<!-- Node1&#45;&gt;Node24 -->
<g id="edge36_Node000001_Node000024" class="edge">
<title>Node1&#45;&gt;Node24</title>
<g id="a_edge36_Node000001_Node000024"><a xlink:title=" ">
<path fill="none" stroke="#63b8ff" d="M563.69,-223.55C571.66,-215.3 581.5,-205.12 589.76,-196.57"/>
<polygon fill="#63b8ff" stroke="#63b8ff" points="592.17,-199.12 596.6,-189.5 587.14,-194.25 592.17,-199.12"/>
</a>
</g>
</g>
<!-- Node25 -->
<g id="Node000025" class="node">
<title>Node25</title>
<g id="a_Node000025"><a xlink:title=" ">
<polygon fill="#e0e0e0" stroke="#999999" points="681.75,-188 641.75,-188 641.75,-168 681.75,-168 681.75,-188"/>
<text text-anchor="middle" x="661.75" y="-174.5" font-family="Helvetica,sans-Serif" font-size="10.00">regex</text>
</a>
</g>
</g>
<!-- Node1&#45;&gt;Node25 -->
<g id="edge37_Node000001_Node000025" class="edge">
<title>Node1&#45;&gt;Node25</title>
<g id="a_edge37_Node000001_Node000025"><a xlink:title=" ">
<path fill="none" stroke="#63b8ff" d="M577.85,-223.55C595.18,-214.35 617.05,-202.74 634.11,-193.68"/>
<polygon fill="#63b8ff" stroke="#63b8ff" points="635.5,-196.9 642.69,-189.12 632.22,-190.72 635.5,-196.9"/>
</a>
</g>
</g>
<!-- Node26 -->
<g id="Node000026" class="node">
<title>Node26</title>
<g id="a_Node000026"><a xlink:title=" ">
<polygon fill="#e0e0e0" stroke="#999999" points="743.25,-188 700.25,-188 700.25,-168 743.25,-168 743.25,-188"/>
<text text-anchor="middle" x="721.75" y="-174.5" font-family="Helvetica,sans-Serif" font-size="10.00">thread</text>
</a>
</g>
</g>
<!-- Node1&#45;&gt;Node26 -->
<g id="edge38_Node000001_Node000026" class="edge">
<title>Node1&#45;&gt;Node26</title>
<g id="a_edge38_Node000001_Node000026"><a xlink:title=" ">
<path fill="none" stroke="#63b8ff" d="M593.3,-223.55C623.26,-213.16 662.08,-199.7 689.17,-190.3"/>
<polygon fill="#63b8ff" stroke="#63b8ff" points="690.26,-193.62 698.57,-187.04 687.97,-187.01 690.26,-193.62"/>
</a>
</g>
</g>
<!-- Node27 -->
<g id="Node000027" class="node">
<title>Node27</title>
<g id="a_Node000027"><a xlink:title=" ">
<polygon fill="#e0e0e0" stroke="#999999" points="806.38,-188 761.12,-188 761.12,-168 806.38,-168 806.38,-188"/>
<text text-anchor="middle" x="783.75" y="-174.5" font-family="Helvetica,sans-Serif" font-size="10.00">variant</text>
</a>
</g>
</g>
<!-- Node1&#45;&gt;Node27 -->
<g id="edge39_Node000001_Node000027" class="edge">
<title>Node1&#45;&gt;Node27</title>
<g id="a_edge39_Node000001_Node000027"><a xlink:title=" ">
<path fill="none" stroke="#63b8ff" d="M596.02,-227.52C634.81,-218.01 691.43,-203.93 749.79,-188.47"/>
<polygon fill="#63b8ff" stroke="#63b8ff" points="750.47,-191.91 759.24,-185.96 748.67,-185.14 750.47,-191.91"/>
</a>
</g>
</g>
<!-- Node5 -->
<g id="Node000005" class="node">
<title>Node5</title>
<g id="a_Node000005"><a xlink:title=" ">
<polygon fill="#e0e0e0" stroke="#999999" points="1341.12,-132 1282.38,-132 1282.38,-112 1341.12,-112 1341.12,-132"/>
<text text-anchor="middle" x="1311.75" y="-118.5" font-family="Helvetica,sans-Serif" font-size="10.00">dpp/dpp.h</text>
</a>
</g>
</g>
<!-- Node4&#45;&gt;Node5 -->
<g id="edge4_Node000004_Node000005" class="edge">
<title>Node4&#45;&gt;Node5</title>
<g id="a_edge4_Node000004_Node000005"><a xlink:title=" ">
<path fill="none" stroke="#63b8ff" d="M507.92,-169.56C510.89,-168.95 513.87,-168.41 516.75,-168 846.55,-120.49 938.26,-177.76 1271.05,-132.12"/>
<polygon fill="#63b8ff" stroke="#63b8ff" points="1271.06,-135.66 1280.48,-130.81 1270.09,-128.72 1271.06,-135.66"/>
</a>
</g>
</g>
<!-- Node6 -->
<g id="Node000006" class="node">
<title>Node6</title>
<g id="a_Node000006"><a xlink:title=" ">
<polygon fill="#e0e0e0" stroke="#999999" points="325.25,-132 234.25,-132 234.25,-112 325.25,-112 325.25,-132"/>
<text text-anchor="middle" x="279.75" y="-118.5" font-family="Helvetica,sans-Serif" font-size="10.00">dpp/misc&#45;enum.h</text>
</a>
</g>
</g>
<!-- Node4&#45;&gt;Node6 -->
<g id="edge5_Node000004_Node000006" class="edge">
<title>Node4&#45;&gt;Node6</title>
<g id="a_edge5_Node000004_Node000006"><a xlink:title=" ">
<path fill="none" stroke="#63b8ff" d="M451.52,-169.38C418.88,-160.57 364.7,-145.94 325.91,-135.46"/>
<polygon fill="#63b8ff" stroke="#63b8ff" points="326.93,-132.11 316.37,-132.89 325.11,-138.87 326.93,-132.11"/>
</a>
</g>
</g>
<!-- Node7 -->
<g id="Node000007" class="node">
<title>Node7</title>
<g id="a_Node000007"><a xlink:title=" ">
<polygon fill="#e0e0e0" stroke="#999999" points="403.88,-132 343.62,-132 343.62,-112 403.88,-112 403.88,-132"/>
<text text-anchor="middle" x="373.75" y="-118.5" font-family="Helvetica,sans-Serif" font-size="10.00">fmt/core.h</text>
</a>
</g>
</g>
<!-- Node4&#45;&gt;Node7 -->
<g id="edge6_Node000004_Node000007" class="edge">
<title>Node4&#45;&gt;Node7</title>
<g id="a_edge6_Node000004_Node000007"><a xlink:title=" ">
<path fill="none" stroke="#63b8ff" d="M461.29,-167.59C445.05,-159.32 421.14,-147.14 402.42,-137.6"/>
<polygon fill="#63b8ff" stroke="#63b8ff" points="404.21,-134.59 393.71,-133.17 401.03,-140.82 404.21,-134.59"/>
</a>
</g>
</g>
<!-- Node8 -->
<g id="Node000008" class="node">
<title>Node8</title>
<g id="a_Node000008"><a xlink:href="Database_8hpp.html" target="_top" xlink:title=" ">
<polygon fill="white" stroke="#666666" points="178.12,-132 101.38,-132 101.38,-112 178.12,-112 178.12,-132"/>
<text text-anchor="middle" x="139.75" y="-118.5" font-family="Helvetica,sans-Serif" font-size="10.00">Database.hpp</text>
</a>
</g>
</g>
<!-- Node4&#45;&gt;Node8 -->
<g id="edge7_Node000004_Node000008" class="edge">
<title>Node4&#45;&gt;Node8</title>
<g id="a_edge7_Node000004_Node000008"><a xlink:title=" ">
<path fill="none" stroke="#63b8ff" d="M451.64,-172.54C394.02,-163.38 261.89,-142.4 189.47,-130.9"/>
<polygon fill="#63b8ff" stroke="#63b8ff" points="190.3,-127.48 179.87,-129.37 189.2,-134.4 190.3,-127.48"/>
</a>
</g>
</g>
<!-- Node11 -->
<g id="Node000011" class="node">
<title>Node11</title>
<g id="a_Node000011"><a xlink:title=" ">
<polygon fill="#e0e0e0" stroke="#999999" points="270.75,-76 230.75,-76 230.75,-56 270.75,-56 270.75,-76"/>
<text text-anchor="middle" x="250.75" y="-62.5" font-family="Helvetica,sans-Serif" font-size="10.00">string</text>
</a>
</g>
</g>
<!-- Node4&#45;&gt;Node11 -->
<g id="edge34_Node000004_Node000011" class="edge">
<title>Node4&#45;&gt;Node11</title>
<g id="a_edge34_Node000004_Node000011"><a xlink:title=" ">
<path fill="none" stroke="#63b8ff" d="M472.62,-167.5C461.44,-153.29 438.39,-126.59 412.75,-112 362.54,-83.43 341.04,-91.92 282.05,-76.45"/>
<polygon fill="#63b8ff" stroke="#63b8ff" points="283.03,-73.09 272.46,-73.79 281.16,-79.84 283.03,-73.09"/>
</a>
</g>
</g>
<!-- Node14 -->
<g id="Node000014" class="node">
<title>Node14</title>
<g id="a_Node000014"><a xlink:href="IButtonCommand_8hpp.html" target="_top" xlink:title=" ">
<polygon fill="white" stroke="#666666" points="1264.38,-132 1153.12,-132 1153.12,-112 1264.38,-112 1264.38,-132"/>
<text text-anchor="middle" x="1208.75" y="-118.5" font-family="Helvetica,sans-Serif" font-size="10.00">IButtonCommand.hpp</text>
</a>
</g>
</g>
<!-- Node4&#45;&gt;Node14 -->
<g id="edge14_Node000004_Node000014" class="edge">
<title>Node4&#45;&gt;Node14</title>
<g id="a_edge14_Node000004_Node000014"><a xlink:title=" ">
<path fill="none" stroke="#63b8ff" d="M507.93,-169.59C510.89,-168.98 513.87,-168.43 516.75,-168 789.19,-127.39 863.99,-158.32 1141.53,-132.12"/>
<polygon fill="#63b8ff" stroke="#63b8ff" points="1141.64,-135.63 1151.26,-131.19 1140.97,-128.66 1141.64,-135.63"/>
</a>
</g>
</g>
<!-- Node17 -->
<g id="Node000017" class="node">
<title>Node17</title>
<g id="a_Node000017"><a xlink:href="IFormCommand_8hpp.html" target="_top" xlink:title=" ">
<polygon fill="white" stroke="#666666" points="718.38,-132 613.12,-132 613.12,-112 718.38,-112 718.38,-132"/>
<text text-anchor="middle" x="665.75" y="-118.5" font-family="Helvetica,sans-Serif" font-size="10.00">IFormCommand.hpp</text>
</a>
</g>
</g>
<!-- Node4&#45;&gt;Node17 -->
<g id="edge17_Node000004_Node000017" class="edge">
<title>Node4&#45;&gt;Node17</title>
<g id="a_edge17_Node000004_Node000017"><a xlink:title=" ">
<path fill="none" stroke="#63b8ff" d="M508,-168.8C538.35,-159.99 586.98,-145.87 622.22,-135.64"/>
<polygon fill="#63b8ff" stroke="#63b8ff" points="623.08,-139.03 631.7,-132.88 621.12,-132.31 623.08,-139.03"/>
</a>
</g>
</g>
<!-- Node18 -->
<g id="Node000018" class="node">
<title>Node18</title>
<g id="a_Node000018"><a xlink:href="IGlobalSlashCommand_8hpp.html" target="_top" xlink:title=" ">
<polygon fill="white" stroke="#666666" points="595.38,-132 460.12,-132 460.12,-112 595.38,-112 595.38,-132"/>
<text text-anchor="middle" x="527.75" y="-118.5" font-family="Helvetica,sans-Serif" font-size="10.00">IGlobalSlashCommand.hpp</text>
</a>
</g>
</g>
<!-- Node4&#45;&gt;Node18 -->
<g id="edge20_Node000004_Node000018" class="edge">
<title>Node4&#45;&gt;Node18</title>
<g id="a_edge20_Node000004_Node000018"><a xlink:title=" ">
<path fill="none" stroke="#63b8ff" d="M488.11,-167.59C494.65,-160.24 503.93,-149.8 511.87,-140.87"/>
<polygon fill="#63b8ff" stroke="#63b8ff" points="514.45,-143.23 518.48,-133.43 509.22,-138.58 514.45,-143.23"/>
</a>
</g>
</g>
<!-- Node20 -->
<g id="Node000020" class="node">
<title>Node20</title>
<g id="a_Node000020"><a xlink:href="IMemberCommand_8hpp.html" target="_top" xlink:title=" ">
<polygon fill="white" stroke="#666666" points="854.75,-132 736.75,-132 736.75,-112 854.75,-112 854.75,-132"/>
<text text-anchor="middle" x="795.75" y="-118.5" font-family="Helvetica,sans-Serif" font-size="10.00">IMemberCommand.hpp</text>
</a>
</g>
</g>
<!-- Node4&#45;&gt;Node20 -->
<g id="edge25_Node000004_Node000020" class="edge">
<title>Node4&#45;&gt;Node20</title>
<g id="a_edge25_Node000004_Node000020"><a xlink:title=" ">
<path fill="none" stroke="#63b8ff" d="M507.98,-169.89C510.93,-169.22 513.9,-168.58 516.75,-168 587.28,-153.76 668.55,-141.07 725.12,-132.82"/>
<polygon fill="#63b8ff" stroke="#63b8ff" points="725.56,-136.3 734.95,-131.4 724.56,-129.37 725.56,-136.3"/>
</a>
</g>
</g>
<!-- Node21 -->
<g id="Node000021" class="node">
<title>Node21</title>
<g id="a_Node000021"><a xlink:href="IMessageCommand_8hpp.html" target="_top" xlink:title=" ">
<polygon fill="white" stroke="#666666" points="995,-132 872.5,-132 872.5,-112 995,-112 995,-132"/>
<text text-anchor="middle" x="933.75" y="-118.5" font-family="Helvetica,sans-Serif" font-size="10.00">IMessageCommand.hpp</text>
</a>
</g>
</g>
<!-- Node4&#45;&gt;Node21 -->
<g id="edge28_Node000004_Node000021" class="edge">
<title>Node4&#45;&gt;Node21</title>
<g id="a_edge28_Node000004_Node000021"><a xlink:title=" ">
<path fill="none" stroke="#63b8ff" d="M507.95,-169.72C510.91,-169.09 513.88,-168.49 516.75,-168 665.96,-142.23 707.79,-149.52 861.07,-132.27"/>
<polygon fill="#63b8ff" stroke="#63b8ff" points="861.26,-135.77 870.8,-131.16 860.46,-128.82 861.26,-135.77"/>
</a>
</g>
</g>
<!-- Node22 -->
<g id="Node000022" class="node">
<title>Node22</title>
<g id="a_Node000022"><a xlink:href="IReactionCommand_8hpp.html" target="_top" xlink:title=" ">
<polygon fill="white" stroke="#666666" points="1134.62,-132 1012.88,-132 1012.88,-112 1134.62,-112 1134.62,-132"/>
<text text-anchor="middle" x="1073.75" y="-118.5" font-family="Helvetica,sans-Serif" font-size="10.00">IReactionCommand.hpp</text>
</a>
</g>
</g>
<!-- Node4&#45;&gt;Node22 -->
<g id="edge31_Node000004_Node000022" class="edge">
<title>Node4&#45;&gt;Node22</title>
<g id="a_edge31_Node000004_Node000022"><a xlink:title=" ">
<path fill="none" stroke="#63b8ff" d="M507.94,-169.64C510.9,-169.02 513.88,-168.45 516.75,-168 727.48,-134.81 785.83,-153.19 1001.31,-132.18"/>
<polygon fill="#63b8ff" stroke="#63b8ff" points="1001.58,-135.67 1011.18,-131.2 1000.89,-128.7 1001.58,-135.67"/>
</a>
</g>
</g>
<!-- Node9 -->
<g id="Node000009" class="node">
<title>Node9</title>
<g id="a_Node000009"><a xlink:title=" ">
<polygon fill="#e0e0e0" stroke="#999999" points="212.88,-76 164.62,-76 164.62,-56 212.88,-56 212.88,-76"/>
<text text-anchor="middle" x="188.75" y="-62.5" font-family="Helvetica,sans-Serif" font-size="10.00">cstddef</text>
</a>
</g>
</g>
<!-- Node8&#45;&gt;Node9 -->
<g id="edge8_Node000008_Node000009" class="edge">
<title>Node8&#45;&gt;Node9</title>
<g id="a_edge8_Node000008_Node000009"><a xlink:title=" ">
<path fill="none" stroke="#63b8ff" d="M148.29,-111.59C155.03,-104.16 164.64,-93.58 172.79,-84.58"/>
<polygon fill="#63b8ff" stroke="#63b8ff" points="175.17,-87.18 179.3,-77.42 169.98,-82.47 175.17,-87.18"/>
</a>
</g>
</g>
<!-- Node10 -->
<g id="Node000010" class="node">
<title>Node10</title>
<g id="a_Node000010"><a xlink:title=" ">
<polygon fill="#e0e0e0" stroke="#999999" points="80.25,-20 19.25,-20 19.25,0 80.25,0 80.25,-20"/>
<text text-anchor="middle" x="49.75" y="-6.5" font-family="Helvetica,sans-Serif" font-size="10.00">pqxx/pqxx</text>
</a>
</g>
</g>
<!-- Node8&#45;&gt;Node10 -->
<g id="edge9_Node000008_Node000010" class="edge">
<title>Node8&#45;&gt;Node10</title>
<g id="a_edge9_Node000008_Node000010"><a xlink:title=" ">
<path fill="none" stroke="#63b8ff" d="M100.9,-116.46C75.45,-111.24 44,-100.05 27.75,-76 18.09,-61.7 26.4,-42.78 35.44,-29.04"/>
<polygon fill="#63b8ff" stroke="#63b8ff" points="38,-31.47 41.02,-21.31 32.33,-27.37 38,-31.47"/>
</a>
</g>
</g>
<!-- Node8&#45;&gt;Node11 -->
<g id="edge10_Node000008_Node000011" class="edge">
<title>Node8&#45;&gt;Node11</title>
<g id="a_edge10_Node000008_Node000011"><a xlink:title=" ">
<path fill="none" stroke="#63b8ff" d="M159.08,-111.59C176.17,-103.28 201.35,-91.03 221,-81.47"/>
<polygon fill="#63b8ff" stroke="#63b8ff" points="222.44,-84.66 229.9,-77.14 219.38,-78.37 222.44,-84.66"/>
</a>
</g>
</g>
<!-- Node8&#45;&gt;Node12 -->
<g id="edge11_Node000008_Node000012" class="edge">
<title>Node8&#45;&gt;Node12</title>
<g id="a_edge11_Node000008_Node000012"><a xlink:title=" ">
<path fill="none" stroke="#63b8ff" d="M169.54,-111.59C199.88,-102.01 246.79,-87.2 278.12,-77.3"/>
<polygon fill="#63b8ff" stroke="#63b8ff" points="278.97,-80.71 287.45,-74.36 276.86,-74.03 278.97,-80.71"/>
</a>
</g>
</g>
<!-- Node13 -->
<g id="Node000013" class="node">
<title>Node13</title>
<g id="a_Node000013"><a xlink:href="RowDTOAdapter_8hpp.html" target="_top" xlink:title=" ">
<polygon fill="white" stroke="#666666" points="146.62,-76 36.88,-76 36.88,-56 146.62,-56 146.62,-76"/>
<text text-anchor="middle" x="91.75" y="-62.5" font-family="Helvetica,sans-Serif" font-size="10.00">RowDTOAdapter.hpp</text>
</a>
</g>
</g>
<!-- Node8&#45;&gt;Node13 -->
<g id="edge12_Node000008_Node000013" class="edge">
<title>Node8&#45;&gt;Node13</title>
<g id="a_edge12_Node000008_Node000013"><a xlink:title=" ">
<path fill="none" stroke="#63b8ff" d="M131.39,-111.59C124.85,-104.24 115.57,-93.8 107.63,-84.87"/>
<polygon fill="#63b8ff" stroke="#63b8ff" points="110.28,-82.58 101.02,-77.43 105.05,-87.23 110.28,-82.58"/>
</a>
</g>
</g>
<!-- Node13&#45;&gt;Node10 -->
<g id="edge13_Node000013_Node000010" class="edge">
<title>Node13&#45;&gt;Node10</title>
<g id="a_edge13_Node000013_Node000010"><a xlink:title=" ">
<path fill="none" stroke="#63b8ff" d="M84.43,-55.59C78.77,-48.32 70.76,-38.02 63.86,-29.15"/>
<polygon fill="#63b8ff" stroke="#63b8ff" points="66.81,-27.24 57.91,-21.49 61.29,-31.54 66.81,-27.24"/>
</a>
</g>
</g>
<!-- Node15 -->
<g id="Node000015" class="node">
<title>Node15</title>
<g id="a_Node000015"><a xlink:title=" ">
<polygon fill="#e0e0e0" stroke="#999999" points="841.88,-76 769.62,-76 769.62,-56 841.88,-56 841.88,-76"/>
<text text-anchor="middle" x="805.75" y="-62.5" font-family="Helvetica,sans-Serif" font-size="10.00">dpp/cluster.h</text>
</a>
</g>
</g>
<!-- Node14&#45;&gt;Node15 -->
<g id="edge15_Node000014_Node000015" class="edge">
<title>Node14&#45;&gt;Node15</title>
<g id="a_edge15_Node000014_Node000015"><a xlink:title=" ">
<path fill="none" stroke="#63b8ff" d="M1152.73,-113.22C1149.69,-112.81 1146.69,-112.4 1143.75,-112 1022.47,-95.61 992.03,-92.39 870.75,-76 865.11,-75.24 859.19,-74.43 853.33,-73.62"/>
<polygon fill="#63b8ff" stroke="#63b8ff" points="854.07,-70.19 843.68,-72.29 853.11,-77.13 854.07,-70.19"/>
</a>
</g>
</g>
<!-- Node16 -->
<g id="Node000016" class="node">
<title>Node16</title>
<g id="a_Node000016"><a xlink:title=" ">
<polygon fill="#e0e0e0" stroke="#999999" points="967.75,-76 879.75,-76 879.75,-56 967.75,-56 967.75,-76"/>
<text text-anchor="middle" x="923.75" y="-62.5" font-family="Helvetica,sans-Serif" font-size="10.00">dpp/dispatcher.h</text>
</a>
</g>
</g>
<!-- Node14&#45;&gt;Node16 -->
<g id="edge16_Node000014_Node000016" class="edge">
<title>Node14&#45;&gt;Node16</title>
<g id="a_edge16_Node000014_Node000016"><a xlink:title=" ">
<path fill="none" stroke="#63b8ff" d="M1158.78,-111.53C1108.51,-102.01 1031.17,-87.35 979.08,-77.48"/>
<polygon fill="#63b8ff" stroke="#63b8ff" points="980,-74.1 969.53,-75.67 978.7,-80.97 980,-74.1"/>
</a>
</g>
</g>
<!-- Node17&#45;&gt;Node15 -->
<g id="edge18_Node000017_Node000015" class="edge">
<title>Node17&#45;&gt;Node15</title>
<g id="a_edge18_Node000017_Node000015"><a xlink:title=" ">
<path fill="none" stroke="#63b8ff" d="M690.14,-111.59C712.38,-103.01 745.52,-90.23 770.62,-80.55"/>
<polygon fill="#63b8ff" stroke="#63b8ff" points="771.69,-83.89 779.76,-77.02 769.17,-77.36 771.69,-83.89"/>
</a>
</g>
</g>
<!-- Node17&#45;&gt;Node16 -->
<g id="edge19_Node000017_Node000016" class="edge">
<title>Node17&#45;&gt;Node16</title>
<g id="a_edge19_Node000017_Node000016"><a xlink:title=" ">
<path fill="none" stroke="#63b8ff" d="M710.99,-111.53C754.78,-102.37 821.26,-88.45 868.23,-78.62"/>
<polygon fill="#63b8ff" stroke="#63b8ff" points="868.88,-82.06 877.95,-76.59 867.44,-75.21 868.88,-82.06"/>
</a>
</g>
</g>
<!-- Node18&#45;&gt;Node12 -->
<g id="edge24_Node000018_Node000012" class="edge">
<title>Node18&#45;&gt;Node12</title>
<g id="a_edge24_Node000018_Node000012"><a xlink:title=" ">
<path fill="none" stroke="#63b8ff" d="M489.95,-111.59C448.6,-101.3 382.97,-84.97 343.66,-75.19"/>
<polygon fill="#63b8ff" stroke="#63b8ff" points="344.61,-71.82 334.06,-72.8 342.92,-78.61 344.61,-71.82"/>
</a>
</g>
</g>
<!-- Node18&#45;&gt;Node15 -->
<g id="edge22_Node000018_Node000015" class="edge">
<title>Node18&#45;&gt;Node15</title>
<g id="a_edge22_Node000018_Node000015"><a xlink:title=" ">
<path fill="none" stroke="#63b8ff" d="M576.49,-111.53C627.63,-101.6 707.49,-86.09 758.19,-76.24"/>
<polygon fill="#63b8ff" stroke="#63b8ff" points="758.84,-79.68 767.99,-74.33 757.51,-72.81 758.84,-79.68"/>
</a>
</g>
</g>
<!-- Node18&#45;&gt;Node16 -->
<g id="edge23_Node000018_Node000016" class="edge">
<title>Node18&#45;&gt;Node16</title>
<g id="a_edge23_Node000018_Node000016"><a xlink:title=" ">
<path fill="none" stroke="#63b8ff" d="M595.82,-111.72C672.86,-101.21 796.88,-84.3 868.28,-74.56"/>
<polygon fill="#63b8ff" stroke="#63b8ff" points="868.34,-78.09 877.77,-73.27 867.39,-71.15 868.34,-78.09"/>
</a>
</g>
</g>
<!-- Node19 -->
<g id="Node000019" class="node">
<title>Node19</title>
<g id="a_Node000019"><a xlink:title=" ">
<polygon fill="#e0e0e0" stroke="#999999" points="569.12,-76 486.38,-76 486.38,-56 569.12,-56 569.12,-76"/>
<text text-anchor="middle" x="527.75" y="-62.5" font-family="Helvetica,sans-Serif" font-size="10.00">appcommand.h</text>
</a>
</g>
</g>
<!-- Node18&#45;&gt;Node19 -->
<g id="edge21_Node000018_Node000019" class="edge">
<title>Node18&#45;&gt;Node19</title>
<g id="a_edge21_Node000018_Node000019"><a xlink:title=" ">
<path fill="none" stroke="#63b8ff" d="M527.75,-111.59C527.75,-105.01 527.75,-95.96 527.75,-87.73"/>
<polygon fill="#63b8ff" stroke="#63b8ff" points="531.25,-87.81 527.75,-77.81 524.25,-87.81 531.25,-87.81"/>
</a>
</g>
</g>
<!-- Node20&#45;&gt;Node15 -->
<g id="edge26_Node000020_Node000015" class="edge">
<title>Node20&#45;&gt;Node15</title>
<g id="a_edge26_Node000020_Node000015"><a xlink:title=" ">
<path fill="none" stroke="#63b8ff" d="M797.49,-111.59C798.73,-104.93 800.43,-95.75 801.96,-87.44"/>
<polygon fill="#63b8ff" stroke="#63b8ff" points="805.37,-88.26 803.75,-77.79 798.49,-86.98 805.37,-88.26"/>
</a>
</g>
</g>
<!-- Node20&#45;&gt;Node16 -->
<g id="edge27_Node000020_Node000016" class="edge">
<title>Node20&#45;&gt;Node16</title>
<g id="a_edge27_Node000020_Node000016"><a xlink:title=" ">
<path fill="none" stroke="#63b8ff" d="M818.05,-111.59C838.11,-103.13 867.87,-90.58 890.7,-80.94"/>
<polygon fill="#63b8ff" stroke="#63b8ff" points="892.03,-84.18 899.89,-77.07 889.31,-77.73 892.03,-84.18"/>
</a>
</g>
</g>
<!-- Node21&#45;&gt;Node15 -->
<g id="edge29_Node000021_Node000015" class="edge">
<title>Node21&#45;&gt;Node15</title>
<g id="a_edge29_Node000021_Node000015"><a xlink:title=" ">
<path fill="none" stroke="#63b8ff" d="M911.45,-111.59C891.39,-103.13 861.63,-90.58 838.8,-80.94"/>
<polygon fill="#63b8ff" stroke="#63b8ff" points="840.19,-77.73 829.61,-77.07 837.47,-84.18 840.19,-77.73"/>
</a>
</g>
</g>
<!-- Node21&#45;&gt;Node16 -->
<g id="edge30_Node000021_Node000016" class="edge">
<title>Node21&#45;&gt;Node16</title>
<g id="a_edge30_Node000021_Node000016"><a xlink:title=" ">
<path fill="none" stroke="#63b8ff" d="M932.01,-111.59C930.77,-104.93 929.07,-95.75 927.54,-87.44"/>
<polygon fill="#63b8ff" stroke="#63b8ff" points="931.01,-86.98 925.75,-77.79 924.13,-88.26 931.01,-86.98"/>
</a>
</g>
</g>
<!-- Node22&#45;&gt;Node15 -->
<g id="edge32_Node000022_Node000015" class="edge">
<title>Node22&#45;&gt;Node15</title>
<g id="a_edge32_Node000022_Node000015"><a xlink:title=" ">
<path fill="none" stroke="#63b8ff" d="M1026.76,-111.53C978.12,-101.73 902.53,-86.5 853.58,-76.64"/>
<polygon fill="#63b8ff" stroke="#63b8ff" points="854.32,-73.22 843.83,-74.67 852.94,-80.08 854.32,-73.22"/>
</a>
</g>
</g>
<!-- Node22&#45;&gt;Node16 -->
<g id="edge33_Node000022_Node000016" class="edge">
<title>Node22&#45;&gt;Node16</title>
<g id="a_edge33_Node000022_Node000016"><a xlink:title=" ">
<path fill="none" stroke="#63b8ff" d="M1047.62,-111.59C1023.57,-102.94 987.65,-90 960.67,-80.29"/>
<polygon fill="#63b8ff" stroke="#63b8ff" points="962.1,-77.09 951.51,-76.99 959.73,-83.67 962.1,-77.09"/>
</a>
</g>
</g>
</g>
</svg>
