<?xml version="1.0" encoding="UTF-8" standalone="no"?>
<!DOCTYPE svg PUBLIC "-//W3C//DTD SVG 1.1//EN"
 "http://www.w3.org/Graphics/SVG/1.1/DTD/svg11.dtd">
<!-- Generated by graphviz version 10.0.1 (0)
 -->
<!-- Title: src/bot_library/bot/core/include/Core.hpp Pages: 1 -->
<svg width="1131pt" height="208pt"
 viewBox="0.00 0.00 1131.00 208.00" xmlns="http://www.w3.org/2000/svg" xmlns:xlink="http://www.w3.org/1999/xlink">
<g id="graph0" class="graph" transform="scale(1 1) rotate(0) translate(4 204)">
<title>src/bot_library/bot/core/include/Core.hpp</title>
<!-- Node1 -->
<g id="Node000001" class="node">
<title>Node1</title>
<g id="a_Node000001"><a xlink:title=" ">
<polygon fill="#999999" stroke="#666666" points="512.5,-200 398.25,-200 398.25,-168 512.5,-168 512.5,-200"/>
<text text-anchor="start" x="406.25" y="-186.5" font-family="Helvetica,sans-Serif" font-size="10.00">src/bot_library/bot</text>
<text text-anchor="middle" x="455.38" y="-174.5" font-family="Helvetica,sans-Serif" font-size="10.00">/core/include/Core.hpp</text>
</a>
</g>
</g>
<!-- Node2 -->
<g id="Node000002" class="node">
<title>Node2</title>
<g id="a_Node000002"><a xlink:title=" ">
<polygon fill="#e0e0e0" stroke="#999999" points="58.75,-132 0,-132 0,-112 58.75,-112 58.75,-132"/>
<text text-anchor="middle" x="29.38" y="-118.5" font-family="Helvetica,sans-Serif" font-size="10.00">dpp/dpp.h</text>
</a>
</g>
</g>
<!-- Node1&#45;&gt;Node2 -->
<g id="edge1_Node000001_Node000002" class="edge">
<title>Node1&#45;&gt;Node2</title>
<g id="a_edge1_Node000001_Node000002"><a xlink:title=" ">
<path fill="none" stroke="#63b8ff" d="M397.89,-177.3C324.12,-169.56 192.01,-154.34 70.19,-132.37"/>
<polygon fill="#63b8ff" stroke="#63b8ff" points="71.14,-128.99 60.67,-130.64 69.88,-135.87 71.14,-128.99"/>
</a>
</g>
</g>
<!-- Node3 -->
<g id="Node000003" class="node">
<title>Node3</title>
<g id="a_Node000003"><a xlink:title=" ">
<polygon fill="#e0e0e0" stroke="#999999" points="167.88,-132 76.88,-132 76.88,-112 167.88,-112 167.88,-132"/>
<text text-anchor="middle" x="122.38" y="-118.5" font-family="Helvetica,sans-Serif" font-size="10.00">dpp/misc&#45;enum.h</text>
</a>
</g>
</g>
<!-- Node1&#45;&gt;Node3 -->
<g id="edge2_Node000001_Node000003" class="edge">
<title>Node1&#45;&gt;Node3</title>
<g id="a_edge2_Node000001_Node000003"><a xlink:title=" ">
<path fill="none" stroke="#63b8ff" d="M397.75,-172.62C336.5,-161.58 240.25,-144.24 179.28,-133.25"/>
<polygon fill="#63b8ff" stroke="#63b8ff" points="180.28,-129.88 169.81,-131.55 179.03,-136.77 180.28,-129.88"/>
</a>
</g>
</g>
<!-- Node4 -->
<g id="Node000004" class="node">
<title>Node4</title>
<g id="a_Node000004"><a xlink:href="Database_8hpp.html" target="_top" xlink:title=" ">
<polygon fill="white" stroke="#666666" points="300.75,-132 224,-132 224,-112 300.75,-112 300.75,-132"/>
<text text-anchor="middle" x="262.38" y="-118.5" font-family="Helvetica,sans-Serif" font-size="10.00">Database.hpp</text>
</a>
</g>
</g>
<!-- Node1&#45;&gt;Node4 -->
<g id="edge3_Node000001_Node000004" class="edge">
<title>Node1&#45;&gt;Node4</title>
<g id="a_edge3_Node000001_Node000004"><a xlink:title=" ">
<path fill="none" stroke="#63b8ff" d="M405.67,-167.55C374.08,-157.73 333.66,-145.16 303.8,-135.88"/>
<polygon fill="#63b8ff" stroke="#63b8ff" points="304.96,-132.57 294.37,-132.95 302.88,-139.26 304.96,-132.57"/>
</a>
</g>
</g>
<!-- Node7 -->
<g id="Node000007" class="node">
<title>Node7</title>
<g id="a_Node000007"><a xlink:title=" ">
<polygon fill="#e0e0e0" stroke="#999999" points="85.38,-76 45.38,-76 45.38,-56 85.38,-56 85.38,-76"/>
<text text-anchor="middle" x="65.38" y="-62.5" font-family="Helvetica,sans-Serif" font-size="10.00">string</text>
</a>
</g>
</g>
<!-- Node1&#45;&gt;Node7 -->
<g id="edge31_Node000001_Node000007" class="edge">
<title>Node1&#45;&gt;Node7</title>
<g id="a_edge31_Node000001_Node000007"><a xlink:title=" ">
<path fill="none" stroke="#63b8ff" d="M397.96,-175.17C348.59,-167.42 275.98,-153.55 215.38,-132 197.02,-125.47 194.09,-120.11 176.38,-112 149.69,-99.78 118.69,-87.35 96.24,-78.66"/>
<polygon fill="#63b8ff" stroke="#63b8ff" points="97.66,-75.46 87.07,-75.14 95.15,-82 97.66,-75.46"/>
</a>
</g>
</g>
<!-- Node11 -->
<g id="Node000011" class="node">
<title>Node11</title>
<g id="a_Node000011"><a xlink:href="IButtonCommand_8hpp.html" target="_top" xlink:title=" ">
<polygon fill="white" stroke="#666666" points="1123,-132 1011.75,-132 1011.75,-112 1123,-112 1123,-132"/>
<text text-anchor="middle" x="1067.38" y="-118.5" font-family="Helvetica,sans-Serif" font-size="10.00">IButtonCommand.hpp</text>
</a>
</g>
</g>
<!-- Node1&#45;&gt;Node11 -->
<g id="edge11_Node000001_Node000011" class="edge">
<title>Node1&#45;&gt;Node11</title>
<g id="a_edge11_Node000001_Node000011"><a xlink:title=" ">
<path fill="none" stroke="#63b8ff" d="M512.95,-178.48C610.75,-170.62 815.83,-153.33 1000.11,-132.21"/>
<polygon fill="#63b8ff" stroke="#63b8ff" points="1000.34,-135.71 1009.87,-131.09 999.54,-128.76 1000.34,-135.71"/>
</a>
</g>
</g>
<!-- Node14 -->
<g id="Node000014" class="node">
<title>Node14</title>
<g id="a_Node000014"><a xlink:href="IFormCommand_8hpp.html" target="_top" xlink:title=" ">
<polygon fill="white" stroke="#666666" points="577,-132 471.75,-132 471.75,-112 577,-112 577,-132"/>
<text text-anchor="middle" x="524.38" y="-118.5" font-family="Helvetica,sans-Serif" font-size="10.00">IFormCommand.hpp</text>
</a>
</g>
</g>
<!-- Node1&#45;&gt;Node14 -->
<g id="edge14_Node000001_Node000014" class="edge">
<title>Node1&#45;&gt;Node14</title>
<g id="a_edge14_Node000001_Node000014"><a xlink:title=" ">
<path fill="none" stroke="#63b8ff" d="M473.14,-167.55C482.93,-159.04 495.08,-148.48 505.09,-139.77"/>
<polygon fill="#63b8ff" stroke="#63b8ff" points="507.16,-142.6 512.41,-133.4 502.57,-137.32 507.16,-142.6"/>
</a>
</g>
</g>
<!-- Node15 -->
<g id="Node000015" class="node">
<title>Node15</title>
<g id="a_Node000015"><a xlink:href="IGlobalSlashCommand_8hpp.html" target="_top" xlink:title=" ">
<polygon fill="white" stroke="#666666" points="454,-132 318.75,-132 318.75,-112 454,-112 454,-132"/>
<text text-anchor="middle" x="386.38" y="-118.5" font-family="Helvetica,sans-Serif" font-size="10.00">IGlobalSlashCommand.hpp</text>
</a>
</g>
</g>
<!-- Node1&#45;&gt;Node15 -->
<g id="edge17_Node000001_Node000015" class="edge">
<title>Node1&#45;&gt;Node15</title>
<g id="a_edge17_Node000001_Node000015"><a xlink:title=" ">
<path fill="none" stroke="#63b8ff" d="M437.61,-167.55C427.82,-159.04 415.67,-148.48 405.66,-139.77"/>
<polygon fill="#63b8ff" stroke="#63b8ff" points="408.18,-137.32 398.34,-133.4 403.59,-142.6 408.18,-137.32"/>
</a>
</g>
</g>
<!-- Node17 -->
<g id="Node000017" class="node">
<title>Node17</title>
<g id="a_Node000017"><a xlink:href="IMemberCommand_8hpp.html" target="_top" xlink:title=" ">
<polygon fill="white" stroke="#666666" points="713.38,-132 595.38,-132 595.38,-112 713.38,-112 713.38,-132"/>
<text text-anchor="middle" x="654.38" y="-118.5" font-family="Helvetica,sans-Serif" font-size="10.00">IMemberCommand.hpp</text>
</a>
</g>
</g>
<!-- Node1&#45;&gt;Node17 -->
<g id="edge22_Node000001_Node000017" class="edge">
<title>Node1&#45;&gt;Node17</title>
<g id="a_edge22_Node000001_Node000017"><a xlink:title=" ">
<path fill="none" stroke="#63b8ff" d="M506.62,-167.55C539.34,-157.68 581.24,-145.05 612.06,-135.76"/>
<polygon fill="#63b8ff" stroke="#63b8ff" points="612.87,-139.17 621.43,-132.93 610.85,-132.47 612.87,-139.17"/>
</a>
</g>
</g>
<!-- Node18 -->
<g id="Node000018" class="node">
<title>Node18</title>
<g id="a_Node000018"><a xlink:href="IMessageCommand_8hpp.html" target="_top" xlink:title=" ">
<polygon fill="white" stroke="#666666" points="853.62,-132 731.12,-132 731.12,-112 853.62,-112 853.62,-132"/>
<text text-anchor="middle" x="792.38" y="-118.5" font-family="Helvetica,sans-Serif" font-size="10.00">IMessageCommand.hpp</text>
</a>
</g>
</g>
<!-- Node1&#45;&gt;Node18 -->
<g id="edge25_Node000001_Node000018" class="edge">
<title>Node1&#45;&gt;Node18</title>
<g id="a_edge25_Node000001_Node000018"><a xlink:title=" ">
<path fill="none" stroke="#63b8ff" d="M512.92,-172.75C572.65,-162.12 665.87,-145.52 728,-134.46"/>
<polygon fill="#63b8ff" stroke="#63b8ff" points="728.51,-137.93 737.74,-132.73 727.28,-131.03 728.51,-137.93"/>
</a>
</g>
</g>
<!-- Node19 -->
<g id="Node000019" class="node">
<title>Node19</title>
<g id="a_Node000019"><a xlink:href="IReactionCommand_8hpp.html" target="_top" xlink:title=" ">
<polygon fill="white" stroke="#666666" points="993.25,-132 871.5,-132 871.5,-112 993.25,-112 993.25,-132"/>
<text text-anchor="middle" x="932.38" y="-118.5" font-family="Helvetica,sans-Serif" font-size="10.00">IReactionCommand.hpp</text>
</a>
</g>
</g>
<!-- Node1&#45;&gt;Node19 -->
<g id="edge28_Node000001_Node000019" class="edge">
<title>Node1&#45;&gt;Node19</title>
<g id="a_edge28_Node000001_Node000019"><a xlink:title=" ">
<path fill="none" stroke="#63b8ff" d="M512.67,-175.88C589.23,-166.35 729.46,-148.85 859.91,-132.31"/>
<polygon fill="#63b8ff" stroke="#63b8ff" points="860.31,-135.79 869.79,-131.06 859.43,-128.84 860.31,-135.79"/>
</a>
</g>
</g>
<!-- Node5 -->
<g id="Node000005" class="node">
<title>Node5</title>
<g id="a_Node000005"><a xlink:title=" ">
<polygon fill="#e0e0e0" stroke="#999999" points="189.5,-76 141.25,-76 141.25,-56 189.5,-56 189.5,-76"/>
<text text-anchor="middle" x="165.38" y="-62.5" font-family="Helvetica,sans-Serif" font-size="10.00">cstddef</text>
</a>
</g>
</g>
<!-- Node4&#45;&gt;Node5 -->
<g id="edge4_Node000004_Node000005" class="edge">
<title>Node4&#45;&gt;Node5</title>
<g id="a_edge4_Node000004_Node000005"><a xlink:title=" ">
<path fill="none" stroke="#63b8ff" d="M245.48,-111.59C230.83,-103.44 209.35,-91.48 192.33,-82"/>
<polygon fill="#63b8ff" stroke="#63b8ff" points="194.17,-79.02 183.73,-77.22 190.76,-85.14 194.17,-79.02"/>
</a>
</g>
</g>
<!-- Node6 -->
<g id="Node000006" class="node">
<title>Node6</title>
<g id="a_Node000006"><a xlink:title=" ">
<polygon fill="#e0e0e0" stroke="#999999" points="217.88,-20 156.88,-20 156.88,0 217.88,0 217.88,-20"/>
<text text-anchor="middle" x="187.38" y="-6.5" font-family="Helvetica,sans-Serif" font-size="10.00">pqxx/pqxx</text>
</a>
</g>
</g>
<!-- Node4&#45;&gt;Node6 -->
<g id="edge5_Node000004_Node000006" class="edge">
<title>Node4&#45;&gt;Node6</title>
<g id="a_edge5_Node000004_Node000006"><a xlink:title=" ">
<path fill="none" stroke="#63b8ff" d="M223.64,-112.79C189.39,-104.65 143.22,-91.22 132.38,-76 119.69,-58.18 140.05,-39.24 159.49,-26.43"/>
<polygon fill="#63b8ff" stroke="#63b8ff" points="161.14,-29.52 167.81,-21.29 157.47,-23.57 161.14,-29.52"/>
</a>
</g>
</g>
<!-- Node4&#45;&gt;Node7 -->
<g id="edge6_Node000004_Node000007" class="edge">
<title>Node4&#45;&gt;Node7</title>
<g id="a_edge6_Node000004_Node000007"><a xlink:title=" ">
<path fill="none" stroke="#63b8ff" d="M228.06,-111.59C190.96,-101.42 132.33,-85.35 96.52,-75.54"/>
<polygon fill="#63b8ff" stroke="#63b8ff" points="97.77,-72.25 87.2,-72.98 95.92,-79 97.77,-72.25"/>
</a>
</g>
</g>
<!-- Node8 -->
<g id="Node000008" class="node">
<title>Node8</title>
<g id="a_Node000008"><a xlink:title=" ">
<polygon fill="#e0e0e0" stroke="#999999" points="381,-76 335.75,-76 335.75,-56 381,-56 381,-76"/>
<text text-anchor="middle" x="358.38" y="-62.5" font-family="Helvetica,sans-Serif" font-size="10.00">variant</text>
</a>
</g>
</g>
<!-- Node4&#45;&gt;Node8 -->
<g id="edge7_Node000004_Node000008" class="edge">
<title>Node4&#45;&gt;Node8</title>
<g id="a_edge7_Node000004_Node000008"><a xlink:title=" ">
<path fill="none" stroke="#63b8ff" d="M279.1,-111.59C293.6,-103.44 314.85,-91.48 331.7,-82"/>
<polygon fill="#63b8ff" stroke="#63b8ff" points="333.2,-85.17 340.2,-77.22 329.77,-79.07 333.2,-85.17"/>
</a>
</g>
</g>
<!-- Node9 -->
<g id="Node000009" class="node">
<title>Node9</title>
<g id="a_Node000009"><a xlink:title=" ">
<polygon fill="#e0e0e0" stroke="#999999" points="441.88,-76 398.88,-76 398.88,-56 441.88,-56 441.88,-76"/>
<text text-anchor="middle" x="420.38" y="-62.5" font-family="Helvetica,sans-Serif" font-size="10.00">vector</text>
</a>
</g>
</g>
<!-- Node4&#45;&gt;Node9 -->
<g id="edge8_Node000004_Node000009" class="edge">
<title>Node4&#45;&gt;Node9</title>
<g id="a_edge8_Node000004_Node000009"><a xlink:title=" ">
<path fill="none" stroke="#63b8ff" d="M289.9,-111.59C317.22,-102.26 359.08,-87.95 387.99,-78.07"/>
<polygon fill="#63b8ff" stroke="#63b8ff" points="388.98,-81.43 397.32,-74.88 386.72,-74.8 388.98,-81.43"/>
</a>
</g>
</g>
<!-- Node10 -->
<g id="Node000010" class="node">
<title>Node10</title>
<g id="a_Node000010"><a xlink:href="RowDTOAdapter_8hpp.html" target="_top" xlink:title=" ">
<polygon fill="white" stroke="#666666" points="317.25,-76 207.5,-76 207.5,-56 317.25,-56 317.25,-76"/>
<text text-anchor="middle" x="262.38" y="-62.5" font-family="Helvetica,sans-Serif" font-size="10.00">RowDTOAdapter.hpp</text>
</a>
</g>
</g>
<!-- Node4&#45;&gt;Node10 -->
<g id="edge9_Node000004_Node000010" class="edge">
<title>Node4&#45;&gt;Node10</title>
<g id="a_edge9_Node000004_Node000010"><a xlink:title=" ">
<path fill="none" stroke="#63b8ff" d="M262.38,-111.59C262.38,-105.01 262.38,-95.96 262.38,-87.73"/>
<polygon fill="#63b8ff" stroke="#63b8ff" points="265.88,-87.81 262.38,-77.81 258.88,-87.81 265.88,-87.81"/>
</a>
</g>
</g>
<!-- Node10&#45;&gt;Node6 -->
<g id="edge10_Node000010_Node000006" class="edge">
<title>Node10&#45;&gt;Node6</title>
<g id="a_edge10_Node000010_Node000006"><a xlink:title=" ">
<path fill="none" stroke="#63b8ff" d="M249.31,-55.59C238.41,-47.74 222.62,-36.38 209.72,-27.09"/>
<polygon fill="#63b8ff" stroke="#63b8ff" points="211.93,-24.37 201.77,-21.36 207.84,-30.05 211.93,-24.37"/>
</a>
</g>
</g>
<!-- Node12 -->
<g id="Node000012" class="node">
<title>Node12</title>
<g id="a_Node000012"><a xlink:title=" ">
<polygon fill="#e0e0e0" stroke="#999999" points="818.5,-76 746.25,-76 746.25,-56 818.5,-56 818.5,-76"/>
<text text-anchor="middle" x="782.38" y="-62.5" font-family="Helvetica,sans-Serif" font-size="10.00">dpp/cluster.h</text>
</a>
</g>
</g>
<!-- Node11&#45;&gt;Node12 -->
<g id="edge12_Node000011_Node000012" class="edge">
<title>Node11&#45;&gt;Node12</title>
<g id="a_edge12_Node000011_Node000012"><a xlink:title=" ">
<path fill="none" stroke="#63b8ff" d="M1017.41,-111.53C964.57,-101.52 881.83,-85.84 829.93,-76.01"/>
<polygon fill="#63b8ff" stroke="#63b8ff" points="830.67,-72.59 820.19,-74.17 829.37,-79.47 830.67,-72.59"/>
</a>
</g>
</g>
<!-- Node13 -->
<g id="Node000013" class="node">
<title>Node13</title>
<g id="a_Node000013"><a xlink:title=" ">
<polygon fill="#e0e0e0" stroke="#999999" points="708.38,-76 620.38,-76 620.38,-56 708.38,-56 708.38,-76"/>
<text text-anchor="middle" x="664.38" y="-62.5" font-family="Helvetica,sans-Serif" font-size="10.00">dpp/dispatcher.h</text>
</a>
</g>
</g>
<!-- Node11&#45;&gt;Node13 -->
<g id="edge13_Node000011_Node000013" class="edge">
<title>Node11&#45;&gt;Node13</title>
<g id="a_edge13_Node000011_Node000013"><a xlink:title=" ">
<path fill="none" stroke="#63b8ff" d="M1011.36,-113.22C1008.32,-112.81 1005.31,-112.4 1002.38,-112 902.84,-98.48 786.76,-83.11 719.79,-74.29"/>
<polygon fill="#63b8ff" stroke="#63b8ff" points="720.55,-70.86 710.18,-73.02 719.63,-77.8 720.55,-70.86"/>
</a>
</g>
</g>
<!-- Node14&#45;&gt;Node12 -->
<g id="edge15_Node000014_Node000012" class="edge">
<title>Node14&#45;&gt;Node12</title>
<g id="a_edge15_Node000014_Node000012"><a xlink:title=" ">
<path fill="none" stroke="#63b8ff" d="M569.61,-111.53C615.94,-101.84 687.66,-86.82 734.82,-76.95"/>
<polygon fill="#63b8ff" stroke="#63b8ff" points="735.4,-80.41 744.47,-74.93 733.96,-73.56 735.4,-80.41"/>
</a>
</g>
</g>
<!-- Node14&#45;&gt;Node13 -->
<g id="edge16_Node000014_Node000013" class="edge">
<title>Node14&#45;&gt;Node13</title>
<g id="a_edge16_Node000014_Node000013"><a xlink:title=" ">
<path fill="none" stroke="#63b8ff" d="M548.76,-111.59C571.01,-103.01 604.14,-90.23 629.24,-80.55"/>
<polygon fill="#63b8ff" stroke="#63b8ff" points="630.32,-83.89 638.39,-77.02 627.8,-77.36 630.32,-83.89"/>
</a>
</g>
</g>
<!-- Node15&#45;&gt;Node9 -->
<g id="edge21_Node000015_Node000009" class="edge">
<title>Node15&#45;&gt;Node9</title>
<g id="a_edge21_Node000015_Node000009"><a xlink:title=" ">
<path fill="none" stroke="#63b8ff" d="M392.3,-111.59C396.73,-104.55 402.95,-94.67 408.41,-86"/>
<polygon fill="#63b8ff" stroke="#63b8ff" points="411.35,-87.91 413.71,-77.58 405.42,-84.18 411.35,-87.91"/>
</a>
</g>
</g>
<!-- Node15&#45;&gt;Node12 -->
<g id="edge19_Node000015_Node000012" class="edge">
<title>Node15&#45;&gt;Node12</title>
<g id="a_edge19_Node000015_Node000012"><a xlink:title=" ">
<path fill="none" stroke="#63b8ff" d="M454.21,-111.83C521.12,-102.77 626.31,-88.49 717.38,-76 723.01,-75.23 728.93,-74.41 734.8,-73.6"/>
<polygon fill="#63b8ff" stroke="#63b8ff" points="735.01,-77.11 744.44,-72.27 734.05,-70.17 735.01,-77.11"/>
</a>
</g>
</g>
<!-- Node15&#45;&gt;Node13 -->
<g id="edge20_Node000015_Node000013" class="edge">
<title>Node15&#45;&gt;Node13</title>
<g id="a_edge20_Node000015_Node000013"><a xlink:title=" ">
<path fill="none" stroke="#63b8ff" d="M435.12,-111.53C483.76,-102.08 558.39,-87.59 609.18,-77.72"/>
<polygon fill="#63b8ff" stroke="#63b8ff" points="609.64,-81.2 618.79,-75.85 608.31,-74.33 609.64,-81.2"/>
</a>
</g>
</g>
<!-- Node16 -->
<g id="Node000016" class="node">
<title>Node16</title>
<g id="a_Node000016"><a xlink:title=" ">
<polygon fill="#e0e0e0" stroke="#999999" points="542.75,-76 460,-76 460,-56 542.75,-56 542.75,-76"/>
<text text-anchor="middle" x="501.38" y="-62.5" font-family="Helvetica,sans-Serif" font-size="10.00">appcommand.h</text>
</a>
</g>
</g>
<!-- Node15&#45;&gt;Node16 -->
<g id="edge18_Node000015_Node000016" class="edge">
<title>Node15&#45;&gt;Node16</title>
<g id="a_edge18_Node000015_Node000016"><a xlink:title=" ">
<path fill="none" stroke="#63b8ff" d="M406.41,-111.59C424.19,-103.24 450.44,-90.92 470.84,-81.34"/>
<polygon fill="#63b8ff" stroke="#63b8ff" points="472.25,-84.54 479.82,-77.12 469.28,-78.21 472.25,-84.54"/>
</a>
</g>
</g>
<!-- Node17&#45;&gt;Node12 -->
<g id="edge23_Node000017_Node000012" class="edge">
<title>Node17&#45;&gt;Node12</title>
<g id="a_edge23_Node000017_Node000012"><a xlink:title=" ">
<path fill="none" stroke="#63b8ff" d="M676.67,-111.59C696.74,-103.13 726.49,-90.58 749.33,-80.94"/>
<polygon fill="#63b8ff" stroke="#63b8ff" points="750.66,-84.18 758.51,-77.07 747.94,-77.73 750.66,-84.18"/>
</a>
</g>
</g>
<!-- Node17&#45;&gt;Node13 -->
<g id="edge24_Node000017_Node000013" class="edge">
<title>Node17&#45;&gt;Node13</title>
<g id="a_edge24_Node000017_Node000013"><a xlink:title=" ">
<path fill="none" stroke="#63b8ff" d="M656.12,-111.59C657.35,-104.93 659.05,-95.75 660.59,-87.44"/>
<polygon fill="#63b8ff" stroke="#63b8ff" points="664,-88.26 662.38,-77.79 657.12,-86.98 664,-88.26"/>
</a>
</g>
</g>
<!-- Node18&#45;&gt;Node12 -->
<g id="edge26_Node000018_Node000012" class="edge">
<title>Node18&#45;&gt;Node12</title>
<g id="a_edge26_Node000018_Node000012"><a xlink:title=" ">
<path fill="none" stroke="#63b8ff" d="M790.63,-111.59C789.4,-104.93 787.7,-95.75 786.16,-87.44"/>
<polygon fill="#63b8ff" stroke="#63b8ff" points="789.63,-86.98 784.37,-77.79 782.75,-88.26 789.63,-86.98"/>
</a>
</g>
</g>
<!-- Node18&#45;&gt;Node13 -->
<g id="edge27_Node000018_Node000013" class="edge">
<title>Node18&#45;&gt;Node13</title>
<g id="a_edge27_Node000018_Node000013"><a xlink:title=" ">
<path fill="none" stroke="#63b8ff" d="M770.08,-111.59C750.01,-103.13 720.26,-90.58 697.42,-80.94"/>
<polygon fill="#63b8ff" stroke="#63b8ff" points="698.81,-77.73 688.24,-77.07 696.09,-84.18 698.81,-77.73"/>
</a>
</g>
</g>
<!-- Node19&#45;&gt;Node12 -->
<g id="edge29_Node000019_Node000012" class="edge">
<title>Node19&#45;&gt;Node12</title>
<g id="a_edge29_Node000019_Node000012"><a xlink:title=" ">
<path fill="none" stroke="#63b8ff" d="M906.25,-111.59C882.2,-102.94 846.27,-90 819.29,-80.29"/>
<polygon fill="#63b8ff" stroke="#63b8ff" points="820.73,-77.09 810.13,-76.99 818.35,-83.67 820.73,-77.09"/>
</a>
</g>
</g>
<!-- Node19&#45;&gt;Node13 -->
<g id="edge30_Node000019_Node000013" class="edge">
<title>Node19&#45;&gt;Node13</title>
<g id="a_edge30_Node000019_Node000013"><a xlink:title=" ">
<path fill="none" stroke="#63b8ff" d="M885.39,-111.53C839.15,-102.22 768.56,-87.99 719.65,-78.14"/>
<polygon fill="#63b8ff" stroke="#63b8ff" points="720.61,-74.76 710.12,-76.22 719.23,-81.62 720.61,-74.76"/>
</a>
</g>
</g>
</g>
</svg>
