<?xml version="1.0" encoding="UTF-8" standalone="no"?>
<!DOCTYPE svg PUBLIC "-//W3C//DTD SVG 1.1//EN"
 "http://www.w3.org/Graphics/SVG/1.1/DTD/svg11.dtd">
<!-- Generated by graphviz version 9.0.0 (0)
 -->
<!-- Title: src/bot_library/bot/core/include/Core.hpp Pages: 1 -->
<svg width="2087pt" height="244pt"
 viewBox="0.00 0.00 2086.50 244.00" xmlns="http://www.w3.org/2000/svg" xmlns:xlink="http://www.w3.org/1999/xlink">
<g id="graph0" class="graph" transform="scale(1 1) rotate(0) translate(4 240)">
<title>src/bot_library/bot/core/include/Core.hpp</title>
<!-- Node1 -->
<g id="Node000001" class="node">
<title>Node1</title>
<g id="a_Node000001"><a xlink:title=" ">
<polygon fill="#999999" stroke="#666666" points="1924.12,-236 1809.88,-236 1809.88,-204 1924.12,-204 1924.12,-236"/>
<text text-anchor="start" x="1817.88" y="-222.5" font-family="Helvetica,sans-Serif" font-size="10.00">src/bot_library/bot</text>
<text text-anchor="middle" x="1867" y="-210.5" font-family="Helvetica,sans-Serif" font-size="10.00">/core/include/Core.hpp</text>
</a>
</g>
</g>
<!-- Node2 -->
<g id="Node000002" class="node">
<title>Node2</title>
<g id="a_Node000002"><a xlink:href="Core_8cpp.html" target="_top" xlink:title=" ">
<polygon fill="white" stroke="#666666" points="1049,-168 955,-168 955,-136 1049,-136 1049,-168"/>
<text text-anchor="start" x="963" y="-154.5" font-family="Helvetica,sans-Serif" font-size="10.00">src/bot_library/bot</text>
<text text-anchor="middle" x="1002" y="-142.5" font-family="Helvetica,sans-Serif" font-size="10.00">/core/Core.cpp</text>
</a>
</g>
</g>
<!-- Node1&#45;&gt;Node2 -->
<g id="edge1_Node000001_Node000002" class="edge">
<title>Node1&#45;&gt;Node2</title>
<g id="a_edge1_Node000001_Node000002"><a xlink:title=" ">
<path fill="none" stroke="#63b8ff" d="M1798.31,-219.25C1658.15,-218.76 1329.52,-212.47 1058,-168 1055.12,-167.53 1052.17,-166.97 1049.21,-166.35"/>
<polygon fill="#63b8ff" stroke="#63b8ff" points="1798.15,-222.75 1808.16,-219.28 1798.17,-215.75 1798.15,-222.75"/>
</a>
</g>
</g>
<!-- Node3 -->
<g id="Node000003" class="node">
<title>Node3</title>
<g id="a_Node000003"><a xlink:href="Bot_8hpp.html" target="_top" xlink:title=" ">
<polygon fill="white" stroke="#666666" points="1161,-168 1067,-168 1067,-136 1161,-136 1161,-168"/>
<text text-anchor="start" x="1075" y="-154.5" font-family="Helvetica,sans-Serif" font-size="10.00">src/bot_library/bot</text>
<text text-anchor="middle" x="1114" y="-142.5" font-family="Helvetica,sans-Serif" font-size="10.00">/include/Bot.hpp</text>
</a>
</g>
</g>
<!-- Node1&#45;&gt;Node3 -->
<g id="edge2_Node000001_Node000003" class="edge">
<title>Node1&#45;&gt;Node3</title>
<g id="a_edge2_Node000001_Node000003"><a xlink:title=" ">
<path fill="none" stroke="#63b8ff" d="M1798.09,-212.96C1647,-199.72 1289.81,-168.41 1161.19,-157.14"/>
<polygon fill="#63b8ff" stroke="#63b8ff" points="1797.7,-216.44 1807.97,-213.83 1798.31,-209.47 1797.7,-216.44"/>
</a>
</g>
</g>
<!-- Node8 -->
<g id="Node000008" class="node">
<title>Node8</title>
<g id="a_Node000008"><a xlink:href="ChallengeRoleCommand_8cpp.html" target="_top" xlink:title=" ">
<polygon fill="white" stroke="#666666" points="1847.88,-32 1636.12,-32 1636.12,0 1847.88,0 1847.88,-32"/>
<text text-anchor="start" x="1644.12" y="-18.5" font-family="Helvetica,sans-Serif" font-size="10.00">src/bot_library/commands</text>
<text text-anchor="middle" x="1742" y="-6.5" font-family="Helvetica,sans-Serif" font-size="10.00">/challenge_role/ChallengeRoleCommand.cpp</text>
</a>
</g>
</g>
<!-- Node1&#45;&gt;Node8 -->
<g id="edge35_Node000001_Node000008" class="edge">
<title>Node1&#45;&gt;Node8</title>
<g id="a_edge35_Node000001_Node000008"><a xlink:title=" ">
<path fill="none" stroke="#63b8ff" d="M1865.92,-192.45C1863.37,-160.08 1854.89,-105.1 1827,-68 1815.31,-52.46 1797.38,-40.7 1781,-32.41"/>
<polygon fill="#63b8ff" stroke="#63b8ff" points="1862.41,-192.4 1866.54,-202.16 1869.4,-191.95 1862.41,-192.4"/>
</a>
</g>
</g>
<!-- Node24 -->
<g id="Node000024" class="node">
<title>Node24</title>
<g id="a_Node000024"><a xlink:href="SetChannelCommand_8cpp.html" target="_top" xlink:title=" ">
<polygon fill="white" stroke="#666666" points="2055.62,-32 1866.38,-32 1866.38,0 2055.62,0 2055.62,-32"/>
<text text-anchor="start" x="1874.38" y="-18.5" font-family="Helvetica,sans-Serif" font-size="10.00">src/bot_library/commands</text>
<text text-anchor="middle" x="1961" y="-6.5" font-family="Helvetica,sans-Serif" font-size="10.00">/set_channel/SetChannelCommand.cpp</text>
</a>
</g>
</g>
<!-- Node1&#45;&gt;Node24 -->
<g id="edge37_Node000001_Node000024" class="edge">
<title>Node1&#45;&gt;Node24</title>
<g id="a_edge37_Node000001_Node000024"><a xlink:title=" ">
<path fill="none" stroke="#63b8ff" d="M1878.88,-193.48C1898.66,-150.96 1937.78,-66.89 1953.85,-32.36"/>
<polygon fill="#63b8ff" stroke="#63b8ff" points="1875.75,-191.9 1874.7,-202.44 1882.1,-194.86 1875.75,-191.9"/>
</a>
</g>
</g>
<!-- Node27 -->
<g id="Node000027" class="node">
<title>Node27</title>
<g id="a_Node000027"><a xlink:href="resource__man_8hpp.html" target="_top" xlink:title=" ">
<polygon fill="white" stroke="#666666" points="2078.5,-168 1933.5,-168 1933.5,-136 2078.5,-136 2078.5,-168"/>
<text text-anchor="start" x="1941.5" y="-154.5" font-family="Helvetica,sans-Serif" font-size="10.00">src/bot_library/commands</text>
<text text-anchor="middle" x="2006" y="-142.5" font-family="Helvetica,sans-Serif" font-size="10.00">/resources/resource_man.hpp</text>
</a>
</g>
</g>
<!-- Node1&#45;&gt;Node27 -->
<g id="edge36_Node000001_Node000027" class="edge">
<title>Node1&#45;&gt;Node27</title>
<g id="a_edge36_Node000001_Node000027"><a xlink:title=" ">
<path fill="none" stroke="#63b8ff" d="M1909.95,-198.61C1930.48,-188.86 1954.66,-177.38 1973.61,-168.38"/>
<polygon fill="#63b8ff" stroke="#63b8ff" points="1908.49,-195.43 1900.96,-202.88 1911.49,-201.75 1908.49,-195.43"/>
</a>
</g>
</g>
<!-- Node4 -->
<g id="Node000004" class="node">
<title>Node4</title>
<g id="a_Node000004"><a xlink:href="BotLibrary_8cpp.html" target="_top" xlink:title=" ">
<polygon fill="white" stroke="#666666" points="1618.38,-26 1475.62,-26 1475.62,-6 1618.38,-6 1618.38,-26"/>
<text text-anchor="middle" x="1547" y="-12.5" font-family="Helvetica,sans-Serif" font-size="10.00">src/bot_library/BotLibrary.cpp</text>
</a>
</g>
</g>
<!-- Node3&#45;&gt;Node4 -->
<g id="edge3_Node000003_Node000004" class="edge">
<title>Node3&#45;&gt;Node4</title>
<g id="a_edge3_Node000003_Node000004"><a xlink:title=" ">
<path fill="none" stroke="#63b8ff" d="M1172.76,-151.16C1332.74,-150.99 1767.03,-146.24 1810,-100 1819.68,-89.58 1819.05,-78.97 1810,-68 1809.15,-66.97 1672.92,-40.93 1596.89,-26.47"/>
<polygon fill="#63b8ff" stroke="#63b8ff" points="1172.79,-147.66 1162.79,-151.17 1172.79,-154.66 1172.79,-147.66"/>
</a>
</g>
</g>
<!-- Node5 -->
<g id="Node000005" class="node">
<title>Node5</title>
<g id="a_Node000005"><a xlink:href="Bot_8cpp.html" target="_top" xlink:title=" ">
<polygon fill="white" stroke="#666666" points="1801,-100 1707,-100 1707,-68 1801,-68 1801,-100"/>
<text text-anchor="start" x="1715" y="-86.5" font-family="Helvetica,sans-Serif" font-size="10.00">src/bot_library/bot</text>
<text text-anchor="middle" x="1754" y="-74.5" font-family="Helvetica,sans-Serif" font-size="10.00">/Bot.cpp</text>
</a>
</g>
</g>
<!-- Node3&#45;&gt;Node5 -->
<g id="edge4_Node000003_Node000005" class="edge">
<title>Node3&#45;&gt;Node5</title>
<g id="a_edge4_Node000003_Node000005"><a xlink:title=" ">
<path fill="none" stroke="#63b8ff" d="M1172.66,-149.26C1278.4,-145.38 1507.68,-133.53 1698,-100 1700.87,-99.49 1703.82,-98.91 1706.77,-98.27"/>
<polygon fill="#63b8ff" stroke="#63b8ff" points="1172.68,-145.76 1162.81,-149.61 1172.93,-152.75 1172.68,-145.76"/>
</a>
</g>
</g>
<!-- Node6 -->
<g id="Node000006" class="node">
<title>Node6</title>
<g id="a_Node000006"><a xlink:href="ChallengeRoleCommand_8hpp.html" target="_top" xlink:title=" ">
<polygon fill="white" stroke="#666666" points="1480.88,-100 1269.12,-100 1269.12,-68 1480.88,-68 1480.88,-100"/>
<text text-anchor="start" x="1277.12" y="-86.5" font-family="Helvetica,sans-Serif" font-size="10.00">src/bot_library/commands</text>
<text text-anchor="middle" x="1375" y="-74.5" font-family="Helvetica,sans-Serif" font-size="10.00">/challenge_role/ChallengeRoleCommand.hpp</text>
</a>
</g>
</g>
<!-- Node3&#45;&gt;Node6 -->
<g id="edge5_Node000003_Node000006" class="edge">
<title>Node3&#45;&gt;Node6</title>
<g id="a_edge5_Node000003_Node000006"><a xlink:title=" ">
<path fill="none" stroke="#63b8ff" d="M1172.18,-136.29C1214.27,-125.64 1271.03,-111.29 1313.81,-100.47"/>
<polygon fill="#63b8ff" stroke="#63b8ff" points="1171.57,-132.83 1162.73,-138.68 1173.29,-139.62 1171.57,-132.83"/>
</a>
</g>
</g>
<!-- Node10 -->
<g id="Node000010" class="node">
<title>Node10</title>
<g id="a_Node000010"><a xlink:href="CleanUp_8hpp.html" target="_top" xlink:title=" ">
<polygon fill="white" stroke="#666666" points="300.25,-100 171.75,-100 171.75,-68 300.25,-68 300.25,-100"/>
<text text-anchor="start" x="179.75" y="-86.5" font-family="Helvetica,sans-Serif" font-size="10.00">src/bot_library/commands</text>
<text text-anchor="middle" x="236" y="-74.5" font-family="Helvetica,sans-Serif" font-size="10.00">/clean_up/CleanUp.hpp</text>
</a>
</g>
</g>
<!-- Node3&#45;&gt;Node10 -->
<g id="edge9_Node000003_Node000010" class="edge">
<title>Node3&#45;&gt;Node10</title>
<g id="a_edge9_Node000003_Node000010"><a xlink:title=" ">
<path fill="none" stroke="#63b8ff" d="M1055.51,-135.85C727.13,-85.91 636.56,-140.72 310,-100 306.88,-99.61 303.69,-99.16 300.48,-98.67"/>
<polygon fill="#63b8ff" stroke="#63b8ff" points="1054.88,-139.3 1065.3,-137.37 1055.95,-132.38 1054.88,-139.3"/>
</a>
</g>
</g>
<!-- Node12 -->
<g id="Node000012" class="node">
<title>Node12</title>
<g id="a_Node000012"><a xlink:href="HelpCommand_8hpp.html" target="_top" xlink:title=" ">
<polygon fill="white" stroke="#666666" points="447.25,-100 318.75,-100 318.75,-68 447.25,-68 447.25,-100"/>
<text text-anchor="start" x="326.75" y="-86.5" font-family="Helvetica,sans-Serif" font-size="10.00">src/bot_library/commands</text>
<text text-anchor="middle" x="383" y="-74.5" font-family="Helvetica,sans-Serif" font-size="10.00">/help/HelpCommand.hpp</text>
</a>
</g>
</g>
<!-- Node3&#45;&gt;Node12 -->
<g id="edge12_Node000003_Node000012" class="edge">
<title>Node3&#45;&gt;Node12</title>
<g id="a_edge12_Node000003_Node000012"><a xlink:title=" ">
<path fill="none" stroke="#63b8ff" d="M1055.69,-135.86C791.42,-94.24 718.1,-134.58 456,-100 453.18,-99.63 450.3,-99.21 447.4,-98.75"/>
<polygon fill="#63b8ff" stroke="#63b8ff" points="1054.87,-139.27 1065.29,-137.4 1055.97,-132.36 1054.87,-139.27"/>
</a>
</g>
</g>
<!-- Node14 -->
<g id="Node000014" class="node">
<title>Node14</title>
<g id="a_Node000014"><a xlink:href="Commands_8hpp.html" target="_top" xlink:title=" ">
<polygon fill="white" stroke="#666666" points="1251.25,-100 1122.75,-100 1122.75,-68 1251.25,-68 1251.25,-100"/>
<text text-anchor="start" x="1130.75" y="-86.5" font-family="Helvetica,sans-Serif" font-size="10.00">src/bot_library/commands</text>
<text text-anchor="middle" x="1187" y="-74.5" font-family="Helvetica,sans-Serif" font-size="10.00">/include/Commands.hpp</text>
</a>
</g>
</g>
<!-- Node3&#45;&gt;Node14 -->
<g id="edge15_Node000003_Node000014" class="edge">
<title>Node3&#45;&gt;Node14</title>
<g id="a_edge15_Node000003_Node000014"><a xlink:title=" ">
<path fill="none" stroke="#63b8ff" d="M1139.39,-128.05C1149.48,-118.92 1160.82,-108.67 1169.91,-100.45"/>
<polygon fill="#63b8ff" stroke="#63b8ff" points="1137.12,-125.37 1132.05,-134.68 1141.82,-130.57 1137.12,-125.37"/>
</a>
</g>
</g>
<!-- Node15 -->
<g id="Node000015" class="node">
<title>Node15</title>
<g id="a_Node000015"><a xlink:href="InitDatabase_8hpp.html" target="_top" xlink:title=" ">
<polygon fill="white" stroke="#666666" points="154,-100 0,-100 0,-68 154,-68 154,-100"/>
<text text-anchor="start" x="8" y="-86.5" font-family="Helvetica,sans-Serif" font-size="10.00">src/bot_library/commands</text>
<text text-anchor="middle" x="77" y="-74.5" font-family="Helvetica,sans-Serif" font-size="10.00">/init_database/InitDatabase.hpp</text>
</a>
</g>
</g>
<!-- Node3&#45;&gt;Node15 -->
<g id="edge18_Node000003_Node000015" class="edge">
<title>Node3&#45;&gt;Node15</title>
<g id="a_edge18_Node000003_Node000015"><a xlink:title=" ">
<path fill="none" stroke="#63b8ff" d="M1055.68,-135.89C662.44,-77.35 555.17,-141.9 163,-100 160.14,-99.69 157.22,-99.35 154.29,-98.98"/>
<polygon fill="#63b8ff" stroke="#63b8ff" points="1054.89,-139.31 1065.3,-137.34 1055.94,-132.39 1054.89,-139.31"/>
</a>
</g>
</g>
<!-- Node17 -->
<g id="Node000017" class="node">
<title>Node17</title>
<g id="a_Node000017"><a xlink:href="PongCommand_8hpp.html" target="_top" xlink:title=" ">
<polygon fill="white" stroke="#666666" points="594.62,-100 465.38,-100 465.38,-68 594.62,-68 594.62,-100"/>
<text text-anchor="start" x="473.38" y="-86.5" font-family="Helvetica,sans-Serif" font-size="10.00">src/bot_library/commands</text>
<text text-anchor="middle" x="530" y="-74.5" font-family="Helvetica,sans-Serif" font-size="10.00">/pong/PongCommand.hpp</text>
</a>
</g>
</g>
<!-- Node3&#45;&gt;Node17 -->
<g id="edge20_Node000003_Node000017" class="edge">
<title>Node3&#45;&gt;Node17</title>
<g id="a_edge20_Node000003_Node000017"><a xlink:title=" ">
<path fill="none" stroke="#63b8ff" d="M1055.64,-135.81C856.52,-102.61 800.82,-127.65 604,-100 601.01,-99.58 597.97,-99.12 594.9,-98.62"/>
<polygon fill="#63b8ff" stroke="#63b8ff" points="1054.84,-139.22 1065.29,-137.45 1056.01,-132.32 1054.84,-139.22"/>
</a>
</g>
</g>
<!-- Node19 -->
<g id="Node000019" class="node">
<title>Node19</title>
<g id="a_Node000019"><a xlink:href="ReactionRoles_8hpp.html" target="_top" xlink:title=" ">
<polygon fill="white" stroke="#666666" points="779,-100 613,-100 613,-68 779,-68 779,-100"/>
<text text-anchor="start" x="621" y="-86.5" font-family="Helvetica,sans-Serif" font-size="10.00">src/bot_library/commands</text>
<text text-anchor="middle" x="696" y="-74.5" font-family="Helvetica,sans-Serif" font-size="10.00">/reaction_roles/ReactionRoles.hpp</text>
</a>
</g>
</g>
<!-- Node3&#45;&gt;Node19 -->
<g id="edge23_Node000003_Node000019" class="edge">
<title>Node3&#45;&gt;Node19</title>
<g id="a_edge23_Node000003_Node000019"><a xlink:title=" ">
<path fill="none" stroke="#63b8ff" d="M1055.78,-135.71C937.36,-112.59 904.25,-117.22 788,-100 785.12,-99.57 782.19,-99.13 779.23,-98.68"/>
<polygon fill="#63b8ff" stroke="#63b8ff" points="1054.77,-139.08 1065.26,-137.59 1056.13,-132.21 1054.77,-139.08"/>
</a>
</g>
</g>
<!-- Node21 -->
<g id="Node000021" class="node">
<title>Node21</title>
<g id="a_Node000021"><a xlink:href="ServerDetails_8hpp.html" target="_top" xlink:title=" ">
<polygon fill="white" stroke="#666666" points="957.38,-100 796.62,-100 796.62,-68 957.38,-68 957.38,-100"/>
<text text-anchor="start" x="804.62" y="-86.5" font-family="Helvetica,sans-Serif" font-size="10.00">src/bot_library/commands</text>
<text text-anchor="middle" x="877" y="-74.5" font-family="Helvetica,sans-Serif" font-size="10.00">/server_details/ServerDetails.hpp</text>
</a>
</g>
</g>
<!-- Node3&#45;&gt;Node21 -->
<g id="edge26_Node000003_Node000021" class="edge">
<title>Node3&#45;&gt;Node21</title>
<g id="a_edge26_Node000003_Node000021"><a xlink:title=" ">
<path fill="none" stroke="#63b8ff" d="M1055.83,-134.8C1018.27,-124.34 969.68,-110.81 932.63,-100.49"/>
<polygon fill="#63b8ff" stroke="#63b8ff" points="1054.58,-138.09 1065.15,-137.4 1056.46,-131.34 1054.58,-138.09"/>
</a>
</g>
</g>
<!-- Node23 -->
<g id="Node000023" class="node">
<title>Node23</title>
<g id="a_Node000023"><a xlink:href="SetChannelCommand_8hpp.html" target="_top" xlink:title=" ">
<polygon fill="white" stroke="#666666" points="1688.62,-100 1499.38,-100 1499.38,-68 1688.62,-68 1688.62,-100"/>
<text text-anchor="start" x="1507.38" y="-86.5" font-family="Helvetica,sans-Serif" font-size="10.00">src/bot_library/commands</text>
<text text-anchor="middle" x="1594" y="-74.5" font-family="Helvetica,sans-Serif" font-size="10.00">/set_channel/SetChannelCommand.hpp</text>
</a>
</g>
</g>
<!-- Node3&#45;&gt;Node23 -->
<g id="edge29_Node000003_Node000023" class="edge">
<title>Node3&#45;&gt;Node23</title>
<g id="a_edge29_Node000003_Node000023"><a xlink:title=" ">
<path fill="none" stroke="#63b8ff" d="M1172.58,-143.21C1246.56,-133.34 1377.76,-115.71 1490,-100 1492.98,-99.58 1496.01,-99.16 1499.07,-98.73"/>
<polygon fill="#63b8ff" stroke="#63b8ff" points="1172.16,-139.74 1162.71,-144.53 1173.08,-146.67 1172.16,-139.74"/>
</a>
</g>
</g>
<!-- Node25 -->
<g id="Node000025" class="node">
<title>Node25</title>
<g id="a_Node000025"><a xlink:href="SetStatus_8hpp.html" target="_top" xlink:title=" ">
<polygon fill="white" stroke="#666666" points="1105,-100 975,-100 975,-68 1105,-68 1105,-100"/>
<text text-anchor="start" x="983" y="-86.5" font-family="Helvetica,sans-Serif" font-size="10.00">src/bot_library/commands</text>
<text text-anchor="middle" x="1040" y="-74.5" font-family="Helvetica,sans-Serif" font-size="10.00">/set_status/SetStatus.hpp</text>
</a>
</g>
</g>
<!-- Node3&#45;&gt;Node25 -->
<g id="edge32_Node000003_Node000025" class="edge">
<title>Node3&#45;&gt;Node25</title>
<g id="a_edge32_Node000003_Node000025"><a xlink:title=" ">
<path fill="none" stroke="#63b8ff" d="M1088.26,-128.05C1078.03,-118.92 1066.53,-108.67 1057.33,-100.45"/>
<polygon fill="#63b8ff" stroke="#63b8ff" points="1085.91,-130.64 1095.71,-134.68 1090.57,-125.42 1085.91,-130.64"/>
</a>
</g>
</g>
<!-- Node7 -->
<g id="Node000007" class="node">
<title>Node7</title>
<g id="a_Node000007"><a xlink:href="Commands_8cpp.html" target="_top" xlink:title=" ">
<polygon fill="white" stroke="#666666" points="1104.25,-32 975.75,-32 975.75,0 1104.25,0 1104.25,-32"/>
<text text-anchor="start" x="983.75" y="-18.5" font-family="Helvetica,sans-Serif" font-size="10.00">src/bot_library/commands</text>
<text text-anchor="middle" x="1040" y="-6.5" font-family="Helvetica,sans-Serif" font-size="10.00">/Commands.cpp</text>
</a>
</g>
</g>
<!-- Node6&#45;&gt;Node7 -->
<g id="edge6_Node000006_Node000007" class="edge">
<title>Node6&#45;&gt;Node7</title>
<g id="a_edge6_Node000006_Node000007"><a xlink:title=" ">
<path fill="none" stroke="#63b8ff" d="M1283.22,-65.38C1232.93,-55.66 1169.5,-43.3 1113,-32 1110.21,-31.44 1107.36,-30.87 1104.48,-30.29"/>
<polygon fill="#63b8ff" stroke="#63b8ff" points="1282.43,-68.79 1292.91,-67.25 1283.76,-61.92 1282.43,-68.79"/>
</a>
</g>
</g>
<!-- Node6&#45;&gt;Node8 -->
<g id="edge7_Node000006_Node000008" class="edge">
<title>Node6&#45;&gt;Node8</title>
<g id="a_edge7_Node000006_Node000008"><a xlink:title=" ">
<path fill="none" stroke="#63b8ff" d="M1472.26,-65.51C1529.34,-55.24 1600.82,-42.39 1655.86,-32.49"/>
<polygon fill="#63b8ff" stroke="#63b8ff" points="1471.76,-62.04 1462.53,-67.26 1473,-68.93 1471.76,-62.04"/>
</a>
</g>
</g>
<!-- Node9 -->
<g id="Node000009" class="node">
<title>Node9</title>
<g id="a_Node000009"><a xlink:href="ChallengeRoleDTO_8cpp.html" target="_top" xlink:title=" ">
<polygon fill="white" stroke="#666666" points="1457.88,-32 1270.12,-32 1270.12,0 1457.88,0 1457.88,-32"/>
<text text-anchor="start" x="1278.12" y="-18.5" font-family="Helvetica,sans-Serif" font-size="10.00">src/bot_library/commands</text>
<text text-anchor="middle" x="1364" y="-6.5" font-family="Helvetica,sans-Serif" font-size="10.00">/challenge_role/ChallengeRoleDTO.cpp</text>
</a>
</g>
</g>
<!-- Node6&#45;&gt;Node9 -->
<g id="edge8_Node000006_Node000009" class="edge">
<title>Node6&#45;&gt;Node9</title>
<g id="a_edge8_Node000006_Node000009"><a xlink:title=" ">
<path fill="none" stroke="#63b8ff" d="M1370.6,-56.6C1369.22,-48.32 1367.74,-39.46 1366.54,-32.22"/>
<polygon fill="#63b8ff" stroke="#63b8ff" points="1367.1,-56.91 1372.2,-66.2 1374.01,-55.76 1367.1,-56.91"/>
</a>
</g>
</g>
<!-- Node10&#45;&gt;Node7 -->
<g id="edge10_Node000010_Node000007" class="edge">
<title>Node10&#45;&gt;Node7</title>
<g id="a_edge10_Node000010_Node000007"><a xlink:title=" ">
<path fill="none" stroke="#63b8ff" d="M311.77,-67.93C601.61,-31.86 680.05,-68.63 966,-32 969.12,-31.6 972.31,-31.14 975.52,-30.64"/>
<polygon fill="#63b8ff" stroke="#63b8ff" points="311.47,-64.44 301.98,-69.17 312.34,-71.38 311.47,-64.44"/>
</a>
</g>
</g>
<!-- Node11 -->
<g id="Node000011" class="node">
<title>Node11</title>
<g id="a_Node000011"><a xlink:href="CleanUp_8cpp.html" target="_top" xlink:title=" ">
<polygon fill="white" stroke="#666666" points="300.25,-32 171.75,-32 171.75,0 300.25,0 300.25,-32"/>
<text text-anchor="start" x="179.75" y="-18.5" font-family="Helvetica,sans-Serif" font-size="10.00">src/bot_library/commands</text>
<text text-anchor="middle" x="236" y="-6.5" font-family="Helvetica,sans-Serif" font-size="10.00">/clean_up/CleanUp.cpp</text>
</a>
</g>
</g>
<!-- Node10&#45;&gt;Node11 -->
<g id="edge11_Node000010_Node000011" class="edge">
<title>Node10&#45;&gt;Node11</title>
<g id="a_edge11_Node000010_Node000011"><a xlink:title=" ">
<path fill="none" stroke="#63b8ff" d="M236,-56.31C236,-48.12 236,-39.38 236,-32.22"/>
<polygon fill="#63b8ff" stroke="#63b8ff" points="232.5,-56.18 236,-66.18 239.5,-56.18 232.5,-56.18"/>
</a>
</g>
</g>
<!-- Node12&#45;&gt;Node7 -->
<g id="edge13_Node000012_Node000007" class="edge">
<title>Node12&#45;&gt;Node7</title>
<g id="a_edge13_Node000012_Node000007"><a xlink:title=" ">
<path fill="none" stroke="#63b8ff" d="M458.57,-67.77C683.08,-37.87 744.47,-62.14 966,-32 969.12,-31.58 972.3,-31.1 975.51,-30.58"/>
<polygon fill="#63b8ff" stroke="#63b8ff" points="458.35,-64.27 448.91,-69.08 459.29,-71.21 458.35,-64.27"/>
</a>
</g>
</g>
<!-- Node13 -->
<g id="Node000013" class="node">
<title>Node13</title>
<g id="a_Node000013"><a xlink:href="HelpCommand_8cpp.html" target="_top" xlink:title=" ">
<polygon fill="white" stroke="#666666" points="447.25,-32 318.75,-32 318.75,0 447.25,0 447.25,-32"/>
<text text-anchor="start" x="326.75" y="-18.5" font-family="Helvetica,sans-Serif" font-size="10.00">src/bot_library/commands</text>
<text text-anchor="middle" x="383" y="-6.5" font-family="Helvetica,sans-Serif" font-size="10.00">/help/HelpCommand.cpp</text>
</a>
</g>
</g>
<!-- Node12&#45;&gt;Node13 -->
<g id="edge14_Node000012_Node000013" class="edge">
<title>Node12&#45;&gt;Node13</title>
<g id="a_edge14_Node000012_Node000013"><a xlink:title=" ">
<path fill="none" stroke="#63b8ff" d="M383,-56.31C383,-48.12 383,-39.38 383,-32.22"/>
<polygon fill="#63b8ff" stroke="#63b8ff" points="379.5,-56.18 383,-66.18 386.5,-56.18 379.5,-56.18"/>
</a>
</g>
</g>
<!-- Node14&#45;&gt;Node4 -->
<g id="edge16_Node000014_Node000004" class="edge">
<title>Node14&#45;&gt;Node4</title>
<g id="a_edge16_Node000014_Node000004"><a xlink:title=" ">
<path fill="none" stroke="#63b8ff" d="M1262.6,-67.54C1353.62,-50.43 1378.61,-47.97 1467,-32 1476.73,-30.24 1487.13,-28.32 1497.09,-26.46"/>
<polygon fill="#63b8ff" stroke="#63b8ff" points="1262.13,-64.07 1252.95,-69.36 1263.43,-70.94 1262.13,-64.07"/>
</a>
</g>
</g>
<!-- Node14&#45;&gt;Node7 -->
<g id="edge17_Node000014_Node000007" class="edge">
<title>Node14&#45;&gt;Node7</title>
<g id="a_edge17_Node000014_Node000007"><a xlink:title=" ">
<path fill="none" stroke="#63b8ff" d="M1142.21,-62.89C1120.46,-53.12 1094.71,-41.56 1074.5,-32.49"/>
<polygon fill="#63b8ff" stroke="#63b8ff" points="1140.6,-66 1151.15,-66.91 1143.47,-59.62 1140.6,-66"/>
</a>
</g>
</g>
<!-- Node16 -->
<g id="Node000016" class="node">
<title>Node16</title>
<g id="a_Node000016"><a xlink:href="InitDatabase_8cpp.html" target="_top" xlink:title=" ">
<polygon fill="white" stroke="#666666" points="154,-32 0,-32 0,0 154,0 154,-32"/>
<text text-anchor="start" x="8" y="-18.5" font-family="Helvetica,sans-Serif" font-size="10.00">src/bot_library/commands</text>
<text text-anchor="middle" x="77" y="-6.5" font-family="Helvetica,sans-Serif" font-size="10.00">/init_database/InitDatabase.cpp</text>
</a>
</g>
</g>
<!-- Node15&#45;&gt;Node16 -->
<g id="edge19_Node000015_Node000016" class="edge">
<title>Node15&#45;&gt;Node16</title>
<g id="a_edge19_Node000015_Node000016"><a xlink:title=" ">
<path fill="none" stroke="#63b8ff" d="M77,-56.31C77,-48.12 77,-39.38 77,-32.22"/>
<polygon fill="#63b8ff" stroke="#63b8ff" points="73.5,-56.18 77,-66.18 80.5,-56.18 73.5,-56.18"/>
</a>
</g>
</g>
<!-- Node17&#45;&gt;Node7 -->
<g id="edge21_Node000017_Node000007" class="edge">
<title>Node17&#45;&gt;Node7</title>
<g id="a_edge21_Node000017_Node000007"><a xlink:title=" ">
<path fill="none" stroke="#63b8ff" d="M606.1,-67.79C765.83,-44.44 809.71,-55.55 966,-32 969.11,-31.53 972.29,-31.02 975.49,-30.47"/>
<polygon fill="#63b8ff" stroke="#63b8ff" points="605.78,-64.3 596.4,-69.24 606.81,-71.23 605.78,-64.3"/>
</a>
</g>
</g>
<!-- Node18 -->
<g id="Node000018" class="node">
<title>Node18</title>
<g id="a_Node000018"><a xlink:href="PongCommand_8cpp.html" target="_top" xlink:title=" ">
<polygon fill="white" stroke="#666666" points="594.62,-32 465.38,-32 465.38,0 594.62,0 594.62,-32"/>
<text text-anchor="start" x="473.38" y="-18.5" font-family="Helvetica,sans-Serif" font-size="10.00">src/bot_library/commands</text>
<text text-anchor="middle" x="530" y="-6.5" font-family="Helvetica,sans-Serif" font-size="10.00">/pong/PongCommand.cpp</text>
</a>
</g>
</g>
<!-- Node17&#45;&gt;Node18 -->
<g id="edge22_Node000017_Node000018" class="edge">
<title>Node17&#45;&gt;Node18</title>
<g id="a_edge22_Node000017_Node000018"><a xlink:title=" ">
<path fill="none" stroke="#63b8ff" d="M530,-56.31C530,-48.12 530,-39.38 530,-32.22"/>
<polygon fill="#63b8ff" stroke="#63b8ff" points="526.5,-56.18 530,-66.18 533.5,-56.18 526.5,-56.18"/>
</a>
</g>
</g>
<!-- Node19&#45;&gt;Node7 -->
<g id="edge24_Node000019_Node000007" class="edge">
<title>Node19&#45;&gt;Node7</title>
<g id="a_edge24_Node000019_Node000007"><a xlink:title=" ">
<path fill="none" stroke="#63b8ff" d="M790.56,-65.46C842.39,-55.76 907.77,-43.4 966,-32 969.09,-31.4 972.25,-30.77 975.44,-30.14"/>
<polygon fill="#63b8ff" stroke="#63b8ff" points="790.05,-61.99 780.86,-67.27 791.33,-68.87 790.05,-61.99"/>
</a>
</g>
</g>
<!-- Node20 -->
<g id="Node000020" class="node">
<title>Node20</title>
<g id="a_Node000020"><a xlink:href="ReactionRoles_8cpp.html" target="_top" xlink:title=" ">
<polygon fill="white" stroke="#666666" points="779,-32 613,-32 613,0 779,0 779,-32"/>
<text text-anchor="start" x="621" y="-18.5" font-family="Helvetica,sans-Serif" font-size="10.00">src/bot_library/commands</text>
<text text-anchor="middle" x="696" y="-6.5" font-family="Helvetica,sans-Serif" font-size="10.00">/reaction_roles/ReactionRoles.cpp</text>
</a>
</g>
</g>
<!-- Node19&#45;&gt;Node20 -->
<g id="edge25_Node000019_Node000020" class="edge">
<title>Node19&#45;&gt;Node20</title>
<g id="a_edge25_Node000019_Node000020"><a xlink:title=" ">
<path fill="none" stroke="#63b8ff" d="M696,-56.31C696,-48.12 696,-39.38 696,-32.22"/>
<polygon fill="#63b8ff" stroke="#63b8ff" points="692.5,-56.18 696,-66.18 699.5,-56.18 692.5,-56.18"/>
</a>
</g>
</g>
<!-- Node21&#45;&gt;Node7 -->
<g id="edge27_Node000021_Node000007" class="edge">
<title>Node21&#45;&gt;Node7</title>
<g id="a_edge27_Node000021_Node000007"><a xlink:title=" ">
<path fill="none" stroke="#63b8ff" d="M925.68,-63.29C950.01,-53.44 979.03,-41.69 1001.74,-32.49"/>
<polygon fill="#63b8ff" stroke="#63b8ff" points="924.57,-59.96 916.62,-66.96 927.2,-66.45 924.57,-59.96"/>
</a>
</g>
</g>
<!-- Node22 -->
<g id="Node000022" class="node">
<title>Node22</title>
<g id="a_Node000022"><a xlink:href="ServerDetails_8cpp.html" target="_top" xlink:title=" ">
<polygon fill="white" stroke="#666666" points="957.38,-32 796.62,-32 796.62,0 957.38,0 957.38,-32"/>
<text text-anchor="start" x="804.62" y="-18.5" font-family="Helvetica,sans-Serif" font-size="10.00">src/bot_library/commands</text>
<text text-anchor="middle" x="877" y="-6.5" font-family="Helvetica,sans-Serif" font-size="10.00">/server_details/ServerDetails.cpp</text>
</a>
</g>
</g>
<!-- Node21&#45;&gt;Node22 -->
<g id="edge28_Node000021_Node000022" class="edge">
<title>Node21&#45;&gt;Node22</title>
<g id="a_edge28_Node000021_Node000022"><a xlink:title=" ">
<path fill="none" stroke="#63b8ff" d="M877,-56.31C877,-48.12 877,-39.38 877,-32.22"/>
<polygon fill="#63b8ff" stroke="#63b8ff" points="873.5,-56.18 877,-66.18 880.5,-56.18 873.5,-56.18"/>
</a>
</g>
</g>
<!-- Node23&#45;&gt;Node7 -->
<g id="edge30_Node000023_Node000007" class="edge">
<title>Node23&#45;&gt;Node7</title>
<g id="a_edge30_Node000023_Node000007"><a xlink:title=" ">
<path fill="none" stroke="#63b8ff" d="M1487.91,-67.8C1320.95,-48.35 1275.88,-56.44 1113,-32 1110.19,-31.58 1107.31,-31.12 1104.42,-30.63"/>
<polygon fill="#63b8ff" stroke="#63b8ff" points="1487.24,-71.24 1497.58,-68.94 1488.06,-64.29 1487.24,-71.24"/>
</a>
</g>
</g>
<!-- Node23&#45;&gt;Node24 -->
<g id="edge31_Node000023_Node000024" class="edge">
<title>Node23&#45;&gt;Node24</title>
<g id="a_edge31_Node000023_Node000024"><a xlink:title=" ">
<path fill="none" stroke="#63b8ff" d="M1691.26,-65.51C1748.34,-55.24 1819.82,-42.39 1874.86,-32.49"/>
<polygon fill="#63b8ff" stroke="#63b8ff" points="1690.76,-62.04 1681.53,-67.26 1692,-68.93 1690.76,-62.04"/>
</a>
</g>
</g>
<!-- Node25&#45;&gt;Node7 -->
<g id="edge33_Node000025_Node000007" class="edge">
<title>Node25&#45;&gt;Node7</title>
<g id="a_edge33_Node000025_Node000007"><a xlink:title=" ">
<path fill="none" stroke="#63b8ff" d="M1040,-56.31C1040,-48.12 1040,-39.38 1040,-32.22"/>
<polygon fill="#63b8ff" stroke="#63b8ff" points="1036.5,-56.18 1040,-66.18 1043.5,-56.18 1036.5,-56.18"/>
</a>
</g>
</g>
<!-- Node26 -->
<g id="Node000026" class="node">
<title>Node26</title>
<g id="a_Node000026"><a xlink:href="SetStatus_8cpp.html" target="_top" xlink:title=" ">
<polygon fill="white" stroke="#666666" points="1252,-32 1122,-32 1122,0 1252,0 1252,-32"/>
<text text-anchor="start" x="1130" y="-18.5" font-family="Helvetica,sans-Serif" font-size="10.00">src/bot_library/commands</text>
<text text-anchor="middle" x="1187" y="-6.5" font-family="Helvetica,sans-Serif" font-size="10.00">/set_status/SetStatus.cpp</text>
</a>
</g>
</g>
<!-- Node25&#45;&gt;Node26 -->
<g id="edge34_Node000025_Node000026" class="edge">
<title>Node25&#45;&gt;Node26</title>
<g id="a_edge34_Node000025_Node000026"><a xlink:title=" ">
<path fill="none" stroke="#63b8ff" d="M1084.79,-62.89C1106.54,-53.12 1132.29,-41.56 1152.5,-32.49"/>
<polygon fill="#63b8ff" stroke="#63b8ff" points="1083.53,-59.62 1075.85,-66.91 1086.4,-66 1083.53,-59.62"/>
</a>
</g>
</g>
</g>
</svg>
