<?xml version="1.0" encoding="UTF-8" standalone="no"?>
<!DOCTYPE svg PUBLIC "-//W3C//DTD SVG 1.1//EN"
 "http://www.w3.org/Graphics/SVG/1.1/DTD/svg11.dtd">
<!-- Generated by graphviz version 10.0.1 (0)
 -->
<!-- Title: src/bot_library/bot/core/include/Core.hpp Pages: 1 -->
<svg width="3275pt" height="268pt"
 viewBox="0.00 0.00 3274.62 268.00" xmlns="http://www.w3.org/2000/svg" xmlns:xlink="http://www.w3.org/1999/xlink">
<g id="graph0" class="graph" transform="scale(1 1) rotate(0) translate(4 264)">
<title>src/bot_library/bot/core/include/Core.hpp</title>
<!-- Node1 -->
<g id="Node000001" class="node">
<title>Node1</title>
<g id="a_Node000001"><a xlink:title=" ">
<polygon fill="#999999" stroke="#666666" points="3098.12,-260 2983.88,-260 2983.88,-228 3098.12,-228 3098.12,-260"/>
<text text-anchor="start" x="2991.88" y="-246.5" font-family="Helvetica,sans-Serif" font-size="10.00">src/bot_library/bot</text>
<text text-anchor="middle" x="3041" y="-234.5" font-family="Helvetica,sans-Serif" font-size="10.00">/core/include/Core.hpp</text>
</a>
</g>
</g>
<!-- Node2 -->
<g id="Node000002" class="node">
<title>Node2</title>
<g id="a_Node000002"><a xlink:href="Core_8cpp.html" target="_top" xlink:title=" ">
<polygon fill="white" stroke="#666666" points="94,-192 0,-192 0,-160 94,-160 94,-192"/>
<text text-anchor="start" x="8" y="-178.5" font-family="Helvetica,sans-Serif" font-size="10.00">src/bot_library/bot</text>
<text text-anchor="middle" x="47" y="-166.5" font-family="Helvetica,sans-Serif" font-size="10.00">/core/Core.cpp</text>
</a>
</g>
</g>
<!-- Node1&#45;&gt;Node2 -->
<g id="edge1_Node000001_Node000002" class="edge">
<title>Node1&#45;&gt;Node2</title>
<g id="a_edge1_Node000001_Node000002"><a xlink:title=" ">
<path fill="none" stroke="#63b8ff" d="M2972.05,-242.73C2557.09,-240.95 399.93,-229.94 108,-192 103.57,-191.42 98.99,-190.65 94.42,-189.75"/>
<polygon fill="#63b8ff" stroke="#63b8ff" points="2972.01,-246.23 2982.02,-242.77 2972.04,-239.23 2972.01,-246.23"/>
</a>
</g>
</g>
<!-- Node3 -->
<g id="Node000003" class="node">
<title>Node3</title>
<g id="a_Node000003"><a xlink:href="Bot_8hpp.html" target="_top" xlink:title=" ">
<polygon fill="white" stroke="#666666" points="1522,-192 1428,-192 1428,-160 1522,-160 1522,-192"/>
<text text-anchor="start" x="1436" y="-178.5" font-family="Helvetica,sans-Serif" font-size="10.00">src/bot_library/bot</text>
<text text-anchor="middle" x="1475" y="-166.5" font-family="Helvetica,sans-Serif" font-size="10.00">/include/Bot.hpp</text>
</a>
</g>
</g>
<!-- Node1&#45;&gt;Node3 -->
<g id="edge2_Node000001_Node000003" class="edge">
<title>Node1&#45;&gt;Node3</title>
<g id="a_edge2_Node000001_Node000003"><a xlink:title=" ">
<path fill="none" stroke="#63b8ff" d="M2971.99,-240.09C2705.47,-228.86 1747.11,-188.47 1522.39,-179"/>
<polygon fill="#63b8ff" stroke="#63b8ff" points="2971.76,-243.58 2981.9,-240.51 2972.05,-236.59 2971.76,-243.58"/>
</a>
</g>
</g>
<!-- Node8 -->
<g id="Node000008" class="node">
<title>Node8</title>
<g id="a_Node000008"><a xlink:href="ChallengeBadgeCommand_8cpp.html" target="_top" xlink:title=" ">
<polygon fill="white" stroke="#666666" points="3058,-44 2892,-44 2892,0 3058,0 3058,-44"/>
<text text-anchor="start" x="2900" y="-30.5" font-family="Helvetica,sans-Serif" font-size="10.00">src/bot_library/commands</text>
<text text-anchor="start" x="2900" y="-18.5" font-family="Helvetica,sans-Serif" font-size="10.00">/challenge_badge/ChallengeBadge</text>
<text text-anchor="middle" x="2975" y="-6.5" font-family="Helvetica,sans-Serif" font-size="10.00">Command.cpp</text>
</a>
</g>
</g>
<!-- Node1&#45;&gt;Node8 -->
<g id="edge53_Node000001_Node000008" class="edge">
<title>Node1&#45;&gt;Node8</title>
<g id="a_edge53_Node000001_Node000008"><a xlink:title=" ">
<path fill="none" stroke="#63b8ff" d="M3084.66,-221.33C3095.57,-213.66 3105.89,-203.91 3112,-192 3134.72,-147.71 3139.62,-121.41 3112,-80 3099.42,-61.14 3079.3,-48.51 3058.31,-40.06"/>
<polygon fill="#63b8ff" stroke="#63b8ff" points="3082.8,-218.37 3076.29,-226.72 3086.59,-224.26 3082.8,-218.37"/>
</a>
</g>
</g>
<!-- Node10 -->
<g id="Node000010" class="node">
<title>Node10</title>
<g id="a_Node000010"><a xlink:href="ChallengeRoleCommand_8cpp.html" target="_top" xlink:title=" ">
<polygon fill="white" stroke="#666666" points="2481.88,-38 2270.12,-38 2270.12,-6 2481.88,-6 2481.88,-38"/>
<text text-anchor="start" x="2278.12" y="-24.5" font-family="Helvetica,sans-Serif" font-size="10.00">src/bot_library/commands</text>
<text text-anchor="middle" x="2376" y="-12.5" font-family="Helvetica,sans-Serif" font-size="10.00">/challenge_role/ChallengeRoleCommand.cpp</text>
</a>
</g>
</g>
<!-- Node1&#45;&gt;Node10 -->
<g id="edge54_Node000001_Node000010" class="edge">
<title>Node1&#45;&gt;Node10</title>
<g id="a_edge54_Node000001_Node000010"><a xlink:title=" ">
<path fill="none" stroke="#63b8ff" d="M3043.5,-216.67C3045.37,-179.85 3042.52,-113.73 3003,-80 2960.3,-43.55 2554.74,-50.73 2499,-44 2486.42,-42.48 2473.16,-40.56 2460.2,-38.5"/>
<polygon fill="#63b8ff" stroke="#63b8ff" points="3040.02,-216.21 3042.83,-226.43 3047.01,-216.69 3040.02,-216.21"/>
</a>
</g>
</g>
<!-- Node24 -->
<g id="Node000024" class="node">
<title>Node24</title>
<g id="a_Node000024"><a xlink:href="MemberCommand_8cpp.html" target="_top" xlink:title=" ">
<polygon fill="white" stroke="#666666" points="264.12,-38 107.88,-38 107.88,-6 264.12,-6 264.12,-38"/>
<text text-anchor="start" x="115.88" y="-24.5" font-family="Helvetica,sans-Serif" font-size="10.00">src/bot_library/commands</text>
<text text-anchor="middle" x="186" y="-12.5" font-family="Helvetica,sans-Serif" font-size="10.00">/member/MemberCommand.cpp</text>
</a>
</g>
</g>
<!-- Node1&#45;&gt;Node24 -->
<g id="edge55_Node000001_Node000024" class="edge">
<title>Node1&#45;&gt;Node24</title>
<g id="a_edge55_Node000001_Node000024"><a xlink:title=" ">
<path fill="none" stroke="#63b8ff" d="M2972.37,-242.86C2543.02,-241.62 241.58,-230.07 141,-124 117.36,-99.07 148.78,-59.62 169.82,-38.15"/>
<polygon fill="#63b8ff" stroke="#63b8ff" points="2972.11,-246.35 2982.12,-242.88 2972.13,-239.35 2972.11,-246.35"/>
</a>
</g>
</g>
<!-- Node28 -->
<g id="Node000028" class="node">
<title>Node28</title>
<g id="a_Node000028"><a xlink:href="ReactionRoles_8cpp.html" target="_top" xlink:title=" ">
<polygon fill="white" stroke="#666666" points="2674,-38 2508,-38 2508,-6 2674,-6 2674,-38"/>
<text text-anchor="start" x="2516" y="-24.5" font-family="Helvetica,sans-Serif" font-size="10.00">src/bot_library/commands</text>
<text text-anchor="middle" x="2591" y="-12.5" font-family="Helvetica,sans-Serif" font-size="10.00">/reaction_roles/ReactionRoles.cpp</text>
</a>
</g>
</g>
<!-- Node1&#45;&gt;Node28 -->
<g id="edge56_Node000001_Node000028" class="edge">
<title>Node1&#45;&gt;Node28</title>
<g id="a_edge56_Node000001_Node000028"><a xlink:title=" ">
<path fill="none" stroke="#63b8ff" d="M3049.62,-216.49C3059.46,-180.56 3070.13,-116.69 3036,-80 2982.89,-22.92 2763.98,-56.35 2687,-44 2677.31,-42.45 2667.14,-40.53 2657.18,-38.49"/>
<polygon fill="#63b8ff" stroke="#63b8ff" points="3046.26,-215.49 3046.81,-226.07 3052.98,-217.46 3046.26,-215.49"/>
</a>
</g>
</g>
<!-- Node30 -->
<g id="Node000030" class="node">
<title>Node30</title>
<g id="a_Node000030"><a xlink:href="ResourcesCommand_8cpp.html" target="_top" xlink:title=" ">
<polygon fill="white" stroke="#666666" points="2871.88,-38 2696.12,-38 2696.12,-6 2871.88,-6 2871.88,-38"/>
<text text-anchor="start" x="2704.12" y="-24.5" font-family="Helvetica,sans-Serif" font-size="10.00">src/bot_library/commands</text>
<text text-anchor="middle" x="2784" y="-12.5" font-family="Helvetica,sans-Serif" font-size="10.00">/resources/ResourcesCommand.cpp</text>
</a>
</g>
</g>
<!-- Node1&#45;&gt;Node30 -->
<g id="edge57_Node000001_Node000030" class="edge">
<title>Node1&#45;&gt;Node30</title>
<g id="a_edge57_Node000001_Node000030"><a xlink:title=" ">
<path fill="none" stroke="#63b8ff" d="M3061,-218.33C3066.28,-210.39 3071.27,-201.25 3074,-192 3088.1,-144.26 3105.77,-118.32 3074,-80 3046.43,-46.75 2925.35,-52.48 2883,-44 2874.21,-42.24 2865,-40.35 2855.88,-38.45"/>
<polygon fill="#63b8ff" stroke="#63b8ff" points="3058.17,-216.26 3055.18,-226.42 3063.85,-220.35 3058.17,-216.26"/>
</a>
</g>
</g>
<!-- Node36 -->
<g id="Node000036" class="node">
<title>Node36</title>
<g id="a_Node000036"><a xlink:href="SetChannelCommand_8cpp.html" target="_top" xlink:title=" ">
<polygon fill="white" stroke="#666666" points="3266.62,-38 3077.38,-38 3077.38,-6 3266.62,-6 3266.62,-38"/>
<text text-anchor="start" x="3085.38" y="-24.5" font-family="Helvetica,sans-Serif" font-size="10.00">src/bot_library/commands</text>
<text text-anchor="middle" x="3172" y="-12.5" font-family="Helvetica,sans-Serif" font-size="10.00">/set_channel/SetChannelCommand.cpp</text>
</a>
</g>
</g>
<!-- Node1&#45;&gt;Node36 -->
<g id="edge58_Node000001_Node000036" class="edge">
<title>Node1&#45;&gt;Node36</title>
<g id="a_edge58_Node000001_Node000036"><a xlink:title=" ">
<path fill="none" stroke="#63b8ff" d="M3094.49,-222.51C3108.49,-214.84 3122.35,-204.8 3132,-192 3167.77,-144.58 3172.17,-70.06 3172.3,-38.24"/>
<polygon fill="#63b8ff" stroke="#63b8ff" points="3093.01,-219.34 3085.68,-226.99 3096.18,-225.58 3093.01,-219.34"/>
</a>
</g>
</g>
<!-- Node4 -->
<g id="Node000004" class="node">
<title>Node4</title>
<g id="a_Node000004"><a xlink:href="BotLibrary_8cpp.html" target="_top" xlink:title=" ">
<polygon fill="white" stroke="#666666" points="447.38,-32 304.62,-32 304.62,-12 447.38,-12 447.38,-32"/>
<text text-anchor="middle" x="376" y="-18.5" font-family="Helvetica,sans-Serif" font-size="10.00">src/bot_library/BotLibrary.cpp</text>
</a>
</g>
</g>
<!-- Node3&#45;&gt;Node4 -->
<g id="edge3_Node000003_Node000004" class="edge">
<title>Node3&#45;&gt;Node4</title>
<g id="a_edge3_Node000003_Node000004"><a xlink:title=" ">
<path fill="none" stroke="#63b8ff" d="M1416.27,-174.55C1190.61,-172.55 390.01,-162.73 353,-124 328.4,-98.26 355.61,-51.92 369.2,-32.24"/>
<polygon fill="#63b8ff" stroke="#63b8ff" points="1415.97,-178.05 1426,-174.64 1416.03,-171.05 1415.97,-178.05"/>
</a>
</g>
</g>
<!-- Node5 -->
<g id="Node000005" class="node">
<title>Node5</title>
<g id="a_Node000005"><a xlink:href="Bot_8cpp.html" target="_top" xlink:title=" ">
<polygon fill="white" stroke="#666666" points="1246,-118 1152,-118 1152,-86 1246,-86 1246,-118"/>
<text text-anchor="start" x="1160" y="-104.5" font-family="Helvetica,sans-Serif" font-size="10.00">src/bot_library/bot</text>
<text text-anchor="middle" x="1199" y="-92.5" font-family="Helvetica,sans-Serif" font-size="10.00">/Bot.cpp</text>
</a>
</g>
</g>
<!-- Node3&#45;&gt;Node5 -->
<g id="edge4_Node000003_Node000005" class="edge">
<title>Node3&#45;&gt;Node5</title>
<g id="a_edge4_Node000003_Node000005"><a xlink:title=" ">
<path fill="none" stroke="#63b8ff" d="M1416.52,-163.62C1371.87,-154.41 1309.04,-140.32 1255,-124 1249.53,-122.35 1243.83,-120.44 1238.25,-118.46"/>
<polygon fill="#63b8ff" stroke="#63b8ff" points="1415.77,-167.04 1426.27,-165.61 1417.17,-160.18 1415.77,-167.04"/>
</a>
</g>
</g>
<!-- Node6 -->
<g id="Node000006" class="node">
<title>Node6</title>
<g id="a_Node000006"><a xlink:href="ChallengeBadgeCommand_8hpp.html" target="_top" xlink:title=" ">
<polygon fill="white" stroke="#666666" points="2786,-124 2620,-124 2620,-80 2786,-80 2786,-124"/>
<text text-anchor="start" x="2628" y="-110.5" font-family="Helvetica,sans-Serif" font-size="10.00">src/bot_library/commands</text>
<text text-anchor="start" x="2628" y="-98.5" font-family="Helvetica,sans-Serif" font-size="10.00">/challenge_badge/ChallengeBadge</text>
<text text-anchor="middle" x="2703" y="-86.5" font-family="Helvetica,sans-Serif" font-size="10.00">Command.hpp</text>
</a>
</g>
</g>
<!-- Node3&#45;&gt;Node6 -->
<g id="edge5_Node000003_Node000006" class="edge">
<title>Node3&#45;&gt;Node6</title>
<g id="a_edge5_Node000003_Node000006"><a xlink:title=" ">
<path fill="none" stroke="#63b8ff" d="M1533.56,-173.76C1735.14,-169.28 2399.54,-152.64 2611,-124 2613.92,-123.6 2616.89,-123.16 2619.88,-122.68"/>
<polygon fill="#63b8ff" stroke="#63b8ff" points="1533.78,-170.26 1523.86,-173.97 1533.94,-177.25 1533.78,-170.26"/>
</a>
</g>
</g>
<!-- Node9 -->
<g id="Node000009" class="node">
<title>Node9</title>
<g id="a_Node000009"><a xlink:href="ChallengeRoleCommand_8hpp.html" target="_top" xlink:title=" ">
<polygon fill="white" stroke="#666666" points="2223.88,-118 2012.12,-118 2012.12,-86 2223.88,-86 2223.88,-118"/>
<text text-anchor="start" x="2020.12" y="-104.5" font-family="Helvetica,sans-Serif" font-size="10.00">src/bot_library/commands</text>
<text text-anchor="middle" x="2118" y="-92.5" font-family="Helvetica,sans-Serif" font-size="10.00">/challenge_role/ChallengeRoleCommand.hpp</text>
</a>
</g>
</g>
<!-- Node3&#45;&gt;Node9 -->
<g id="edge8_Node000003_Node000009" class="edge">
<title>Node3&#45;&gt;Node9</title>
<g id="a_edge8_Node000003_Node000009"><a xlink:title=" ">
<path fill="none" stroke="#63b8ff" d="M1533.88,-170.94C1631.62,-163.84 1833.4,-147.63 2003,-124 2014.36,-122.42 2026.3,-120.51 2038.02,-118.5"/>
<polygon fill="#63b8ff" stroke="#63b8ff" points="1533.72,-167.44 1524,-171.65 1534.22,-174.43 1533.72,-167.44"/>
</a>
</g>
</g>
<!-- Node12 -->
<g id="Node000012" class="node">
<title>Node12</title>
<g id="a_Node000012"><a xlink:href="CleanUp_8hpp.html" target="_top" xlink:title=" ">
<polygon fill="white" stroke="#666666" points="1134.25,-118 1005.75,-118 1005.75,-86 1134.25,-86 1134.25,-118"/>
<text text-anchor="start" x="1013.75" y="-104.5" font-family="Helvetica,sans-Serif" font-size="10.00">src/bot_library/commands</text>
<text text-anchor="middle" x="1070" y="-92.5" font-family="Helvetica,sans-Serif" font-size="10.00">/clean_up/CleanUp.hpp</text>
</a>
</g>
</g>
<!-- Node3&#45;&gt;Node12 -->
<g id="edge12_Node000003_Node000012" class="edge">
<title>Node3&#45;&gt;Node12</title>
<g id="a_edge12_Node000003_Node000012"><a xlink:title=" ">
<path fill="none" stroke="#63b8ff" d="M1416.54,-168.31C1349.9,-160.16 1237.9,-144.85 1143,-124 1135.66,-122.39 1127.97,-120.45 1120.45,-118.42"/>
<polygon fill="#63b8ff" stroke="#63b8ff" points="1415.79,-171.75 1426.14,-169.47 1416.63,-164.8 1415.79,-171.75"/>
</a>
</g>
</g>
<!-- Node14 -->
<g id="Node000014" class="node">
<title>Node14</title>
<g id="a_Node000014"><a xlink:href="FlipCommand_8hpp.html" target="_top" xlink:title=" ">
<polygon fill="white" stroke="#666666" points="1392.25,-118 1263.75,-118 1263.75,-86 1392.25,-86 1392.25,-118"/>
<text text-anchor="start" x="1271.75" y="-104.5" font-family="Helvetica,sans-Serif" font-size="10.00">src/bot_library/commands</text>
<text text-anchor="middle" x="1328" y="-92.5" font-family="Helvetica,sans-Serif" font-size="10.00">/flip/FlipCommand.hpp</text>
</a>
</g>
</g>
<!-- Node3&#45;&gt;Node14 -->
<g id="edge15_Node000003_Node000014" class="edge">
<title>Node3&#45;&gt;Node14</title>
<g id="a_edge15_Node000003_Node000014"><a xlink:title=" ">
<path fill="none" stroke="#63b8ff" d="M1433.44,-154.64C1409.96,-143.14 1381.08,-129 1359.48,-118.42"/>
<polygon fill="#63b8ff" stroke="#63b8ff" points="1431.59,-157.63 1442.11,-158.89 1434.66,-151.35 1431.59,-157.63"/>
</a>
</g>
</g>
<!-- Node16 -->
<g id="Node000016" class="node">
<title>Node16</title>
<g id="a_Node000016"><a xlink:href="HelpCommand_8hpp.html" target="_top" xlink:title=" ">
<polygon fill="white" stroke="#666666" points="1539.25,-118 1410.75,-118 1410.75,-86 1539.25,-86 1539.25,-118"/>
<text text-anchor="start" x="1418.75" y="-104.5" font-family="Helvetica,sans-Serif" font-size="10.00">src/bot_library/commands</text>
<text text-anchor="middle" x="1475" y="-92.5" font-family="Helvetica,sans-Serif" font-size="10.00">/help/HelpCommand.hpp</text>
</a>
</g>
</g>
<!-- Node3&#45;&gt;Node16 -->
<g id="edge18_Node000003_Node000016" class="edge">
<title>Node3&#45;&gt;Node16</title>
<g id="a_edge18_Node000003_Node000016"><a xlink:title=" ">
<path fill="none" stroke="#63b8ff" d="M1475,-148.49C1475,-138.3 1475,-127.03 1475,-118.25"/>
<polygon fill="#63b8ff" stroke="#63b8ff" points="1471.5,-148.22 1475,-158.22 1478.5,-148.22 1471.5,-148.22"/>
</a>
</g>
</g>
<!-- Node18 -->
<g id="Node000018" class="node">
<title>Node18</title>
<g id="a_Node000018"><a xlink:href="Commands_8hpp.html" target="_top" xlink:title=" ">
<polygon fill="white" stroke="#666666" points="490.25,-118 361.75,-118 361.75,-86 490.25,-86 490.25,-118"/>
<text text-anchor="start" x="369.75" y="-104.5" font-family="Helvetica,sans-Serif" font-size="10.00">src/bot_library/commands</text>
<text text-anchor="middle" x="426" y="-92.5" font-family="Helvetica,sans-Serif" font-size="10.00">/include/Commands.hpp</text>
</a>
</g>
</g>
<!-- Node3&#45;&gt;Node18 -->
<g id="edge21_Node000003_Node000018" class="edge">
<title>Node3&#45;&gt;Node18</title>
<g id="a_edge21_Node000003_Node000018"><a xlink:title=" ">
<path fill="none" stroke="#63b8ff" d="M1416.28,-173.69C1233.63,-169.32 677.07,-153.86 499,-124 490.81,-122.63 482.22,-120.66 473.94,-118.47"/>
<polygon fill="#63b8ff" stroke="#63b8ff" points="1416.17,-177.18 1426.25,-173.92 1416.34,-170.19 1416.17,-177.18"/>
</a>
</g>
</g>
<!-- Node19 -->
<g id="Node000019" class="node">
<title>Node19</title>
<g id="a_Node000019"><a xlink:href="InitDatabase_8hpp.html" target="_top" xlink:title=" ">
<polygon fill="white" stroke="#666666" points="662,-118 508,-118 508,-86 662,-86 662,-118"/>
<text text-anchor="start" x="516" y="-104.5" font-family="Helvetica,sans-Serif" font-size="10.00">src/bot_library/commands</text>
<text text-anchor="middle" x="585" y="-92.5" font-family="Helvetica,sans-Serif" font-size="10.00">/init_database/InitDatabase.hpp</text>
</a>
</g>
</g>
<!-- Node3&#45;&gt;Node19 -->
<g id="edge24_Node000003_Node000019" class="edge">
<title>Node3&#45;&gt;Node19</title>
<g id="a_edge24_Node000003_Node000019"><a xlink:title=" ">
<path fill="none" stroke="#63b8ff" d="M1416.44,-174.81C1283.26,-173.6 947.76,-166.23 671,-124 661.58,-122.56 651.68,-120.59 642.08,-118.42"/>
<polygon fill="#63b8ff" stroke="#63b8ff" points="1416.02,-178.3 1426.05,-174.88 1416.08,-171.3 1416.02,-178.3"/>
</a>
</g>
</g>
<!-- Node21 -->
<g id="Node000021" class="node">
<title>Node21</title>
<g id="a_Node000021"><a xlink:href="InviteCommand_8hpp.html" target="_top" xlink:title=" ">
<polygon fill="white" stroke="#666666" points="1690.5,-118 1557.5,-118 1557.5,-86 1690.5,-86 1690.5,-118"/>
<text text-anchor="start" x="1565.5" y="-104.5" font-family="Helvetica,sans-Serif" font-size="10.00">src/bot_library/commands</text>
<text text-anchor="middle" x="1624" y="-92.5" font-family="Helvetica,sans-Serif" font-size="10.00">/invite/InviteCommand.hpp</text>
</a>
</g>
</g>
<!-- Node3&#45;&gt;Node21 -->
<g id="edge26_Node000003_Node000021" class="edge">
<title>Node3&#45;&gt;Node21</title>
<g id="a_edge26_Node000003_Node000021"><a xlink:title=" ">
<path fill="none" stroke="#63b8ff" d="M1517.13,-154.64C1540.93,-143.14 1570.2,-129 1592.09,-118.42"/>
<polygon fill="#63b8ff" stroke="#63b8ff" points="1515.81,-151.39 1508.33,-158.9 1518.85,-157.7 1515.81,-151.39"/>
</a>
</g>
</g>
<!-- Node23 -->
<g id="Node000023" class="node">
<title>Node23</title>
<g id="a_Node000023"><a xlink:href="MemberCommand_8hpp.html" target="_top" xlink:title=" ">
<polygon fill="white" stroke="#666666" points="306.12,-118 149.88,-118 149.88,-86 306.12,-86 306.12,-118"/>
<text text-anchor="start" x="157.88" y="-104.5" font-family="Helvetica,sans-Serif" font-size="10.00">src/bot_library/commands</text>
<text text-anchor="middle" x="228" y="-92.5" font-family="Helvetica,sans-Serif" font-size="10.00">/member/MemberCommand.hpp</text>
</a>
</g>
</g>
<!-- Node3&#45;&gt;Node23 -->
<g id="edge29_Node000003_Node000023" class="edge">
<title>Node3&#45;&gt;Node23</title>
<g id="a_edge29_Node000003_Node000023"><a xlink:title=" ">
<path fill="none" stroke="#63b8ff" d="M1416.16,-173.8C1212.04,-169.44 535.24,-153.08 320,-124 309.77,-122.62 299.01,-120.64 288.59,-118.45"/>
<polygon fill="#63b8ff" stroke="#63b8ff" points="1415.92,-177.3 1425.99,-174.01 1416.06,-170.3 1415.92,-177.3"/>
</a>
</g>
</g>
<!-- Node25 -->
<g id="Node000025" class="node">
<title>Node25</title>
<g id="a_Node000025"><a xlink:href="ProfileCommand_8hpp.html" target="_top" xlink:title=" ">
<polygon fill="white" stroke="#666666" points="1847.88,-118 1708.12,-118 1708.12,-86 1847.88,-86 1847.88,-118"/>
<text text-anchor="start" x="1716.12" y="-104.5" font-family="Helvetica,sans-Serif" font-size="10.00">src/bot_library/commands</text>
<text text-anchor="middle" x="1778" y="-92.5" font-family="Helvetica,sans-Serif" font-size="10.00">/profile/ProfileCommand.hpp</text>
</a>
</g>
</g>
<!-- Node3&#45;&gt;Node25 -->
<g id="edge32_Node000003_Node000025" class="edge">
<title>Node3&#45;&gt;Node25</title>
<g id="a_edge32_Node000003_Node000025"><a xlink:title=" ">
<path fill="none" stroke="#63b8ff" d="M1533.24,-162.47C1578.76,-152.52 1643.55,-137.99 1700,-124 1707.08,-122.25 1714.5,-120.34 1721.83,-118.41"/>
<polygon fill="#63b8ff" stroke="#63b8ff" points="1532.61,-159.03 1523.58,-164.58 1534.1,-165.87 1532.61,-159.03"/>
</a>
</g>
</g>
<!-- Node27 -->
<g id="Node000027" class="node">
<title>Node27</title>
<g id="a_Node000027"><a xlink:href="ReactionRoles_8hpp.html" target="_top" xlink:title=" ">
<polygon fill="white" stroke="#666666" points="2408,-118 2242,-118 2242,-86 2408,-86 2408,-118"/>
<text text-anchor="start" x="2250" y="-104.5" font-family="Helvetica,sans-Serif" font-size="10.00">src/bot_library/commands</text>
<text text-anchor="middle" x="2325" y="-92.5" font-family="Helvetica,sans-Serif" font-size="10.00">/reaction_roles/ReactionRoles.hpp</text>
</a>
</g>
</g>
<!-- Node3&#45;&gt;Node27 -->
<g id="edge35_Node000003_Node000027" class="edge">
<title>Node3&#45;&gt;Node27</title>
<g id="a_edge35_Node000003_Node000027"><a xlink:title=" ">
<path fill="none" stroke="#63b8ff" d="M1533.71,-174.19C1661.51,-171.73 1974.22,-162 2233,-124 2242.89,-122.55 2253.29,-120.6 2263.39,-118.46"/>
<polygon fill="#63b8ff" stroke="#63b8ff" points="1533.73,-170.69 1523.8,-174.37 1533.86,-177.68 1533.73,-170.69"/>
</a>
</g>
</g>
<!-- Node29 -->
<g id="Node000029" class="node">
<title>Node29</title>
<g id="a_Node000029"><a xlink:href="ResourcesCommand_8hpp.html" target="_top" xlink:title=" ">
<polygon fill="white" stroke="#666666" points="2601.88,-118 2426.12,-118 2426.12,-86 2601.88,-86 2601.88,-118"/>
<text text-anchor="start" x="2434.12" y="-104.5" font-family="Helvetica,sans-Serif" font-size="10.00">src/bot_library/commands</text>
<text text-anchor="middle" x="2514" y="-92.5" font-family="Helvetica,sans-Serif" font-size="10.00">/resources/ResourcesCommand.hpp</text>
</a>
</g>
</g>
<!-- Node3&#45;&gt;Node29 -->
<g id="edge38_Node000003_Node000029" class="edge">
<title>Node3&#45;&gt;Node29</title>
<g id="a_edge38_Node000003_Node000029"><a xlink:title=" ">
<path fill="none" stroke="#63b8ff" d="M1533.81,-175.06C1682.47,-174.5 2085.11,-168.62 2417,-124 2427.59,-122.58 2438.74,-120.61 2449.55,-118.45"/>
<polygon fill="#63b8ff" stroke="#63b8ff" points="1533.8,-171.56 1523.81,-175.09 1533.82,-178.56 1533.8,-171.56"/>
</a>
</g>
</g>
<!-- Node31 -->
<g id="Node000031" class="node">
<title>Node31</title>
<g id="a_Node000031"><a xlink:href="RollCommand_8hpp.html" target="_top" xlink:title=" ">
<polygon fill="white" stroke="#666666" points="1994.25,-118 1865.75,-118 1865.75,-86 1994.25,-86 1994.25,-118"/>
<text text-anchor="start" x="1873.75" y="-104.5" font-family="Helvetica,sans-Serif" font-size="10.00">src/bot_library/commands</text>
<text text-anchor="middle" x="1930" y="-92.5" font-family="Helvetica,sans-Serif" font-size="10.00">/roll/RollCommand.hpp</text>
</a>
</g>
</g>
<!-- Node3&#45;&gt;Node31 -->
<g id="edge41_Node000003_Node000031" class="edge">
<title>Node3&#45;&gt;Node31</title>
<g id="a_edge41_Node000003_Node000031"><a xlink:title=" ">
<path fill="none" stroke="#63b8ff" d="M1533.55,-169.89C1608.91,-162.69 1743.63,-147.74 1857,-124 1864.49,-122.43 1872.33,-120.5 1879.98,-118.44"/>
<polygon fill="#63b8ff" stroke="#63b8ff" points="1533.56,-166.37 1523.93,-170.79 1534.22,-173.34 1533.56,-166.37"/>
</a>
</g>
</g>
<!-- Node33 -->
<g id="Node000033" class="node">
<title>Node33</title>
<g id="a_Node000033"><a xlink:href="ServerDetails_8hpp.html" target="_top" xlink:title=" ">
<polygon fill="white" stroke="#666666" points="840.38,-118 679.62,-118 679.62,-86 840.38,-86 840.38,-118"/>
<text text-anchor="start" x="687.62" y="-104.5" font-family="Helvetica,sans-Serif" font-size="10.00">src/bot_library/commands</text>
<text text-anchor="middle" x="760" y="-92.5" font-family="Helvetica,sans-Serif" font-size="10.00">/server_details/ServerDetails.hpp</text>
</a>
</g>
</g>
<!-- Node3&#45;&gt;Node33 -->
<g id="edge44_Node000003_Node000033" class="edge">
<title>Node3&#45;&gt;Node33</title>
<g id="a_edge44_Node000003_Node000033"><a xlink:title=" ">
<path fill="none" stroke="#63b8ff" d="M1416.31,-173.16C1305.04,-169.03 1056.01,-156.67 849,-124 839.59,-122.52 829.7,-120.57 820.08,-118.47"/>
<polygon fill="#63b8ff" stroke="#63b8ff" points="1415.96,-176.65 1426.08,-173.52 1416.22,-169.66 1415.96,-176.65"/>
</a>
</g>
</g>
<!-- Node35 -->
<g id="Node000035" class="node">
<title>Node35</title>
<g id="a_Node000035"><a xlink:href="SetChannelCommand_8hpp.html" target="_top" xlink:title=" ">
<polygon fill="white" stroke="#666666" points="2993.62,-118 2804.38,-118 2804.38,-86 2993.62,-86 2993.62,-118"/>
<text text-anchor="start" x="2812.38" y="-104.5" font-family="Helvetica,sans-Serif" font-size="10.00">src/bot_library/commands</text>
<text text-anchor="middle" x="2899" y="-92.5" font-family="Helvetica,sans-Serif" font-size="10.00">/set_channel/SetChannelCommand.hpp</text>
</a>
</g>
</g>
<!-- Node3&#45;&gt;Node35 -->
<g id="edge47_Node000003_Node000035" class="edge">
<title>Node3&#45;&gt;Node35</title>
<g id="a_edge47_Node000003_Node000035"><a xlink:title=" ">
<path fill="none" stroke="#63b8ff" d="M1533.88,-173.98C1756.33,-169.95 2545.56,-153.81 2795,-124 2806.52,-122.62 2818.67,-120.65 2830.44,-118.46"/>
<polygon fill="#63b8ff" stroke="#63b8ff" points="1533.94,-170.48 1524,-174.16 1534.07,-177.48 1533.94,-170.48"/>
</a>
</g>
</g>
<!-- Node37 -->
<g id="Node000037" class="node">
<title>Node37</title>
<g id="a_Node000037"><a xlink:href="SetStatus_8hpp.html" target="_top" xlink:title=" ">
<polygon fill="white" stroke="#666666" points="988,-118 858,-118 858,-86 988,-86 988,-118"/>
<text text-anchor="start" x="866" y="-104.5" font-family="Helvetica,sans-Serif" font-size="10.00">src/bot_library/commands</text>
<text text-anchor="middle" x="923" y="-92.5" font-family="Helvetica,sans-Serif" font-size="10.00">/set_status/SetStatus.hpp</text>
</a>
</g>
</g>
<!-- Node3&#45;&gt;Node37 -->
<g id="edge50_Node000003_Node000037" class="edge">
<title>Node3&#45;&gt;Node37</title>
<g id="a_edge50_Node000003_Node000037"><a xlink:title=" ">
<path fill="none" stroke="#63b8ff" d="M1416.4,-171.97C1325.79,-166.56 1146.53,-152.97 997,-124 989.13,-122.48 980.89,-120.51 972.88,-118.4"/>
<polygon fill="#63b8ff" stroke="#63b8ff" points="1416.09,-175.46 1426.28,-172.54 1416.5,-168.47 1416.09,-175.46"/>
</a>
</g>
</g>
<!-- Node7 -->
<g id="Node000007" class="node">
<title>Node7</title>
<g id="a_Node000007"><a xlink:href="Commands_8cpp.html" target="_top" xlink:title=" ">
<polygon fill="white" stroke="#666666" points="1575.25,-38 1446.75,-38 1446.75,-6 1575.25,-6 1575.25,-38"/>
<text text-anchor="start" x="1454.75" y="-24.5" font-family="Helvetica,sans-Serif" font-size="10.00">src/bot_library/commands</text>
<text text-anchor="middle" x="1511" y="-12.5" font-family="Helvetica,sans-Serif" font-size="10.00">/Commands.cpp</text>
</a>
</g>
</g>
<!-- Node6&#45;&gt;Node7 -->
<g id="edge6_Node000006_Node000007" class="edge">
<title>Node6&#45;&gt;Node7</title>
<g id="a_edge6_Node000006_Node000007"><a xlink:title=" ">
<path fill="none" stroke="#63b8ff" d="M2608.46,-79.82C2156.49,-22.51 2032.01,-114.21 1585,-44 1576.56,-42.67 1567.71,-40.7 1559.19,-38.48"/>
<polygon fill="#63b8ff" stroke="#63b8ff" points="2608.02,-83.29 2618.38,-81.09 2608.91,-76.34 2608.02,-83.29"/>
</a>
</g>
</g>
<!-- Node6&#45;&gt;Node8 -->
<g id="edge7_Node000006_Node000008" class="edge">
<title>Node6&#45;&gt;Node8</title>
<g id="a_edge7_Node000006_Node000008"><a xlink:title=" ">
<path fill="none" stroke="#63b8ff" d="M2788.64,-76.44C2824.53,-66.15 2865.87,-54.29 2900.48,-44.37"/>
<polygon fill="#63b8ff" stroke="#63b8ff" points="2787.79,-73.04 2779.14,-79.17 2789.72,-79.77 2787.79,-73.04"/>
</a>
</g>
</g>
<!-- Node9&#45;&gt;Node7 -->
<g id="edge9_Node000009_Node000007" class="edge">
<title>Node9&#45;&gt;Node7</title>
<g id="a_edge9_Node000009_Node000007"><a xlink:title=" ">
<path fill="none" stroke="#63b8ff" d="M2027.65,-83.67C2019.33,-82.33 2011.02,-81.08 2003,-80 1818.19,-55.22 1768.41,-77.61 1585,-44 1576.99,-42.53 1568.59,-40.57 1560.45,-38.44"/>
<polygon fill="#63b8ff" stroke="#63b8ff" points="2027.04,-87.12 2037.48,-85.3 2028.19,-80.21 2027.04,-87.12"/>
</a>
</g>
</g>
<!-- Node9&#45;&gt;Node10 -->
<g id="edge10_Node000009_Node000010" class="edge">
<title>Node9&#45;&gt;Node10</title>
<g id="a_edge10_Node000009_Node000010"><a xlink:title=" ">
<path fill="none" stroke="#63b8ff" d="M2179.93,-82.28C2224.35,-68.85 2283.47,-50.98 2325.13,-38.38"/>
<polygon fill="#63b8ff" stroke="#63b8ff" points="2178.98,-78.91 2170.42,-85.15 2181.01,-85.61 2178.98,-78.91"/>
</a>
</g>
</g>
<!-- Node11 -->
<g id="Node000011" class="node">
<title>Node11</title>
<g id="a_Node000011"><a xlink:href="ChallengeRoleDTO_8cpp.html" target="_top" xlink:title=" ">
<polygon fill="white" stroke="#666666" points="2235.88,-38 2048.12,-38 2048.12,-6 2235.88,-6 2235.88,-38"/>
<text text-anchor="start" x="2056.12" y="-24.5" font-family="Helvetica,sans-Serif" font-size="10.00">src/bot_library/commands</text>
<text text-anchor="middle" x="2142" y="-12.5" font-family="Helvetica,sans-Serif" font-size="10.00">/challenge_role/ChallengeRoleDTO.cpp</text>
</a>
</g>
</g>
<!-- Node9&#45;&gt;Node11 -->
<g id="edge11_Node000009_Node000011" class="edge">
<title>Node9&#45;&gt;Node11</title>
<g id="a_edge11_Node000009_Node000011"><a xlink:title=" ">
<path fill="none" stroke="#63b8ff" d="M2126.08,-74.74C2129.8,-62.65 2134.08,-48.73 2137.27,-38.38"/>
<polygon fill="#63b8ff" stroke="#63b8ff" points="2122.78,-73.56 2123.19,-84.14 2129.47,-75.61 2122.78,-73.56"/>
</a>
</g>
</g>
<!-- Node12&#45;&gt;Node7 -->
<g id="edge13_Node000012_Node000007" class="edge">
<title>Node12&#45;&gt;Node7</title>
<g id="a_edge13_Node000012_Node000007"><a xlink:title=" ">
<path fill="none" stroke="#63b8ff" d="M1130.63,-82.77C1134.8,-81.76 1138.95,-80.83 1143,-80 1271.99,-53.72 1307.96,-70.05 1437,-44 1444.72,-42.44 1452.82,-40.49 1460.7,-38.4"/>
<polygon fill="#63b8ff" stroke="#63b8ff" points="1129.9,-79.35 1121.08,-85.22 1131.63,-86.13 1129.9,-79.35"/>
</a>
</g>
</g>
<!-- Node13 -->
<g id="Node000013" class="node">
<title>Node13</title>
<g id="a_Node000013"><a xlink:href="CleanUp_8cpp.html" target="_top" xlink:title=" ">
<polygon fill="white" stroke="#666666" points="1134.25,-38 1005.75,-38 1005.75,-6 1134.25,-6 1134.25,-38"/>
<text text-anchor="start" x="1013.75" y="-24.5" font-family="Helvetica,sans-Serif" font-size="10.00">src/bot_library/commands</text>
<text text-anchor="middle" x="1070" y="-12.5" font-family="Helvetica,sans-Serif" font-size="10.00">/clean_up/CleanUp.cpp</text>
</a>
</g>
</g>
<!-- Node12&#45;&gt;Node13 -->
<g id="edge14_Node000012_Node000013" class="edge">
<title>Node12&#45;&gt;Node13</title>
<g id="a_edge14_Node000012_Node000013"><a xlink:title=" ">
<path fill="none" stroke="#63b8ff" d="M1070,-74.37C1070,-62.37 1070,-48.63 1070,-38.38"/>
<polygon fill="#63b8ff" stroke="#63b8ff" points="1066.5,-74.08 1070,-84.08 1073.5,-74.08 1066.5,-74.08"/>
</a>
</g>
</g>
<!-- Node14&#45;&gt;Node7 -->
<g id="edge16_Node000014_Node000007" class="edge">
<title>Node14&#45;&gt;Node7</title>
<g id="a_edge16_Node000014_Node000007"><a xlink:title=" ">
<path fill="none" stroke="#63b8ff" d="M1374.35,-81.24C1405.56,-67.94 1446.12,-50.66 1474.92,-38.38"/>
<polygon fill="#63b8ff" stroke="#63b8ff" points="1373.37,-77.86 1365.55,-85 1376.12,-84.29 1373.37,-77.86"/>
</a>
</g>
</g>
<!-- Node15 -->
<g id="Node000015" class="node">
<title>Node15</title>
<g id="a_Node000015"><a xlink:href="FlipCommand_8cpp.html" target="_top" xlink:title=" ">
<polygon fill="white" stroke="#666666" points="1281.25,-38 1152.75,-38 1152.75,-6 1281.25,-6 1281.25,-38"/>
<text text-anchor="start" x="1160.75" y="-24.5" font-family="Helvetica,sans-Serif" font-size="10.00">src/bot_library/commands</text>
<text text-anchor="middle" x="1217" y="-12.5" font-family="Helvetica,sans-Serif" font-size="10.00">/flip/FlipCommand.cpp</text>
</a>
</g>
</g>
<!-- Node14&#45;&gt;Node15 -->
<g id="edge17_Node000014_Node000015" class="edge">
<title>Node14&#45;&gt;Node15</title>
<g id="a_edge17_Node000014_Node000015"><a xlink:title=" ">
<path fill="none" stroke="#63b8ff" d="M1296.88,-79.13C1278.41,-66.15 1255.44,-50.01 1238.88,-38.38"/>
<polygon fill="#63b8ff" stroke="#63b8ff" points="1294.64,-81.83 1304.83,-84.72 1298.66,-76.11 1294.64,-81.83"/>
</a>
</g>
</g>
<!-- Node16&#45;&gt;Node7 -->
<g id="edge19_Node000016_Node000007" class="edge">
<title>Node16&#45;&gt;Node7</title>
<g id="a_edge19_Node000016_Node000007"><a xlink:title=" ">
<path fill="none" stroke="#63b8ff" d="M1486.78,-75.49C1492.43,-63.23 1499.02,-48.95 1503.9,-38.38"/>
<polygon fill="#63b8ff" stroke="#63b8ff" points="1483.76,-73.67 1482.75,-84.22 1490.12,-76.6 1483.76,-73.67"/>
</a>
</g>
</g>
<!-- Node17 -->
<g id="Node000017" class="node">
<title>Node17</title>
<g id="a_Node000017"><a xlink:href="HelpCommand_8cpp.html" target="_top" xlink:title=" ">
<polygon fill="white" stroke="#666666" points="1428.25,-38 1299.75,-38 1299.75,-6 1428.25,-6 1428.25,-38"/>
<text text-anchor="start" x="1307.75" y="-24.5" font-family="Helvetica,sans-Serif" font-size="10.00">src/bot_library/commands</text>
<text text-anchor="middle" x="1364" y="-12.5" font-family="Helvetica,sans-Serif" font-size="10.00">/help/HelpCommand.cpp</text>
</a>
</g>
</g>
<!-- Node16&#45;&gt;Node17 -->
<g id="edge20_Node000016_Node000017" class="edge">
<title>Node16&#45;&gt;Node17</title>
<g id="a_edge20_Node000016_Node000017"><a xlink:title=" ">
<path fill="none" stroke="#63b8ff" d="M1443.88,-79.13C1425.41,-66.15 1402.44,-50.01 1385.88,-38.38"/>
<polygon fill="#63b8ff" stroke="#63b8ff" points="1441.64,-81.83 1451.83,-84.72 1445.66,-76.11 1441.64,-81.83"/>
</a>
</g>
</g>
<!-- Node18&#45;&gt;Node4 -->
<g id="edge22_Node000018_Node000004" class="edge">
<title>Node18&#45;&gt;Node4</title>
<g id="a_edge22_Node000018_Node000004"><a xlink:title=" ">
<path fill="none" stroke="#63b8ff" d="M409.94,-75.95C400.45,-61.13 388.96,-43.22 382.08,-32.49"/>
<polygon fill="#63b8ff" stroke="#63b8ff" points="406.96,-77.79 415.3,-84.32 412.85,-74.01 406.96,-77.79"/>
</a>
</g>
</g>
<!-- Node18&#45;&gt;Node7 -->
<g id="edge23_Node000018_Node000007" class="edge">
<title>Node18&#45;&gt;Node7</title>
<g id="a_edge23_Node000018_Node000007"><a xlink:title=" ">
<path fill="none" stroke="#63b8ff" d="M484.69,-82.8C489.5,-81.71 494.31,-80.75 499,-80 910.92,-13.85 1024.96,-109.41 1437,-44 1445.44,-42.66 1454.29,-40.68 1462.81,-38.46"/>
<polygon fill="#63b8ff" stroke="#63b8ff" points="483.88,-79.39 475,-85.18 485.55,-86.19 483.88,-79.39"/>
</a>
</g>
</g>
<!-- Node20 -->
<g id="Node000020" class="node">
<title>Node20</title>
<g id="a_Node000020"><a xlink:href="InitDatabase_8cpp.html" target="_top" xlink:title=" ">
<polygon fill="white" stroke="#666666" points="662,-38 508,-38 508,-6 662,-6 662,-38"/>
<text text-anchor="start" x="516" y="-24.5" font-family="Helvetica,sans-Serif" font-size="10.00">src/bot_library/commands</text>
<text text-anchor="middle" x="585" y="-12.5" font-family="Helvetica,sans-Serif" font-size="10.00">/init_database/InitDatabase.cpp</text>
</a>
</g>
</g>
<!-- Node19&#45;&gt;Node20 -->
<g id="edge25_Node000019_Node000020" class="edge">
<title>Node19&#45;&gt;Node20</title>
<g id="a_edge25_Node000019_Node000020"><a xlink:title=" ">
<path fill="none" stroke="#63b8ff" d="M585,-74.37C585,-62.37 585,-48.63 585,-38.38"/>
<polygon fill="#63b8ff" stroke="#63b8ff" points="581.5,-74.08 585,-84.08 588.5,-74.08 581.5,-74.08"/>
</a>
</g>
</g>
<!-- Node21&#45;&gt;Node7 -->
<g id="edge27_Node000021_Node000007" class="edge">
<title>Node21&#45;&gt;Node7</title>
<g id="a_edge27_Node000021_Node000007"><a xlink:title=" ">
<path fill="none" stroke="#63b8ff" d="M1592.32,-79.13C1573.52,-66.15 1550.14,-50.01 1533.28,-38.38"/>
<polygon fill="#63b8ff" stroke="#63b8ff" points="1590.21,-81.93 1600.43,-84.73 1594.19,-76.17 1590.21,-81.93"/>
</a>
</g>
</g>
<!-- Node22 -->
<g id="Node000022" class="node">
<title>Node22</title>
<g id="a_Node000022"><a xlink:href="InviteCommand_8cpp.html" target="_top" xlink:title=" ">
<polygon fill="white" stroke="#666666" points="1726.5,-38 1593.5,-38 1593.5,-6 1726.5,-6 1726.5,-38"/>
<text text-anchor="start" x="1601.5" y="-24.5" font-family="Helvetica,sans-Serif" font-size="10.00">src/bot_library/commands</text>
<text text-anchor="middle" x="1660" y="-12.5" font-family="Helvetica,sans-Serif" font-size="10.00">/invite/InviteCommand.cpp</text>
</a>
</g>
</g>
<!-- Node21&#45;&gt;Node22 -->
<g id="edge28_Node000021_Node000022" class="edge">
<title>Node21&#45;&gt;Node22</title>
<g id="a_edge28_Node000021_Node000022"><a xlink:title=" ">
<path fill="none" stroke="#63b8ff" d="M1635.78,-75.49C1641.43,-63.23 1648.02,-48.95 1652.9,-38.38"/>
<polygon fill="#63b8ff" stroke="#63b8ff" points="1632.76,-73.67 1631.75,-84.22 1639.12,-76.6 1632.76,-73.67"/>
</a>
</g>
</g>
<!-- Node23&#45;&gt;Node7 -->
<g id="edge30_Node000023_Node000007" class="edge">
<title>Node23&#45;&gt;Node7</title>
<g id="a_edge30_Node000023_Node000007"><a xlink:title=" ">
<path fill="none" stroke="#63b8ff" d="M317.74,-84.45C329.56,-82.7 341.55,-81.15 353,-80 832.64,-31.96 960.72,-118.35 1437,-44 1445.44,-42.68 1454.29,-40.71 1462.81,-38.49"/>
<polygon fill="#63b8ff" stroke="#63b8ff" points="317.32,-80.97 307.96,-85.95 318.38,-87.89 317.32,-80.97"/>
</a>
</g>
</g>
<!-- Node23&#45;&gt;Node24 -->
<g id="edge31_Node000023_Node000024" class="edge">
<title>Node23&#45;&gt;Node24</title>
<g id="a_edge31_Node000023_Node000024"><a xlink:title=" ">
<path fill="none" stroke="#63b8ff" d="M214.26,-75.49C207.66,-63.23 199.97,-48.95 194.28,-38.38"/>
<polygon fill="#63b8ff" stroke="#63b8ff" points="211.16,-77.11 218.98,-84.26 217.33,-73.79 211.16,-77.11"/>
</a>
</g>
</g>
<!-- Node25&#45;&gt;Node7 -->
<g id="edge33_Node000025_Node000007" class="edge">
<title>Node25&#45;&gt;Node7</title>
<g id="a_edge33_Node000025_Node000007"><a xlink:title=" ">
<path fill="none" stroke="#63b8ff" d="M1714.2,-82.36C1668.2,-68.92 1606.85,-51 1563.64,-38.38"/>
<polygon fill="#63b8ff" stroke="#63b8ff" points="1713.22,-85.72 1723.8,-85.17 1715.18,-79 1713.22,-85.72"/>
</a>
</g>
</g>
<!-- Node26 -->
<g id="Node000026" class="node">
<title>Node26</title>
<g id="a_Node000026"><a xlink:href="ProfileCommand_8cpp.html" target="_top" xlink:title=" ">
<polygon fill="white" stroke="#666666" points="1883.88,-38 1744.12,-38 1744.12,-6 1883.88,-6 1883.88,-38"/>
<text text-anchor="start" x="1752.12" y="-24.5" font-family="Helvetica,sans-Serif" font-size="10.00">src/bot_library/commands</text>
<text text-anchor="middle" x="1814" y="-12.5" font-family="Helvetica,sans-Serif" font-size="10.00">/profile/ProfileCommand.cpp</text>
</a>
</g>
</g>
<!-- Node25&#45;&gt;Node26 -->
<g id="edge34_Node000025_Node000026" class="edge">
<title>Node25&#45;&gt;Node26</title>
<g id="a_edge34_Node000025_Node000026"><a xlink:title=" ">
<path fill="none" stroke="#63b8ff" d="M1789.78,-75.49C1795.43,-63.23 1802.02,-48.95 1806.9,-38.38"/>
<polygon fill="#63b8ff" stroke="#63b8ff" points="1786.76,-73.67 1785.75,-84.22 1793.12,-76.6 1786.76,-73.67"/>
</a>
</g>
</g>
<!-- Node27&#45;&gt;Node7 -->
<g id="edge36_Node000027_Node000007" class="edge">
<title>Node27&#45;&gt;Node7</title>
<g id="a_edge36_Node000027_Node000007"><a xlink:title=" ">
<path fill="none" stroke="#63b8ff" d="M2252.75,-83.3C2246.1,-82.04 2239.44,-80.91 2233,-80 1947.38,-39.76 1869.48,-91.66 1585,-44 1576.7,-42.61 1568.01,-40.63 1559.61,-38.44"/>
<polygon fill="#63b8ff" stroke="#63b8ff" points="2251.93,-86.71 2262.42,-85.24 2253.3,-79.84 2251.93,-86.71"/>
</a>
</g>
</g>
<!-- Node27&#45;&gt;Node28 -->
<g id="edge37_Node000027_Node000028" class="edge">
<title>Node27&#45;&gt;Node28</title>
<g id="a_edge37_Node000027_Node000028"><a xlink:title=" ">
<path fill="none" stroke="#63b8ff" d="M2388.56,-82.36C2434.39,-68.92 2495.51,-51 2538.56,-38.38"/>
<polygon fill="#63b8ff" stroke="#63b8ff" points="2387.62,-78.99 2379.01,-85.16 2389.59,-85.71 2387.62,-78.99"/>
</a>
</g>
</g>
<!-- Node29&#45;&gt;Node7 -->
<g id="edge39_Node000029_Node000007" class="edge">
<title>Node29&#45;&gt;Node7</title>
<g id="a_edge39_Node000029_Node000007"><a xlink:title=" ">
<path fill="none" stroke="#63b8ff" d="M2438.76,-83.4C2431.43,-82.08 2424.09,-80.91 2417,-80 2049.91,-32.67 1950.4,-102.92 1585,-44 1576.56,-42.64 1567.72,-40.65 1559.2,-38.42"/>
<polygon fill="#63b8ff" stroke="#63b8ff" points="2437.86,-86.8 2448.34,-85.22 2439.17,-79.92 2437.86,-86.8"/>
</a>
</g>
</g>
<!-- Node29&#45;&gt;Node30 -->
<g id="edge40_Node000029_Node000030" class="edge">
<title>Node29&#45;&gt;Node30</title>
<g id="a_edge40_Node000029_Node000030"><a xlink:title=" ">
<path fill="none" stroke="#63b8ff" d="M2578.22,-82.45C2624.77,-69 2686.98,-51.03 2730.77,-38.38"/>
<polygon fill="#63b8ff" stroke="#63b8ff" points="2577.43,-79.03 2568.8,-85.17 2579.38,-85.76 2577.43,-79.03"/>
</a>
</g>
</g>
<!-- Node31&#45;&gt;Node7 -->
<g id="edge42_Node000031_Node000007" class="edge">
<title>Node31&#45;&gt;Node7</title>
<g id="a_edge42_Node000031_Node000007"><a xlink:title=" ">
<path fill="none" stroke="#63b8ff" d="M1869.15,-82.77C1865.06,-81.77 1860.98,-80.83 1857,-80 1737.63,-55.08 1704.41,-68.71 1585,-44 1577.42,-42.43 1569.47,-40.49 1561.71,-38.44"/>
<polygon fill="#63b8ff" stroke="#63b8ff" points="1867.96,-86.07 1878.51,-85.17 1869.7,-79.29 1867.96,-86.07"/>
</a>
</g>
</g>
<!-- Node32 -->
<g id="Node000032" class="node">
<title>Node32</title>
<g id="a_Node000032"><a xlink:href="RollCommand_8cpp.html" target="_top" xlink:title=" ">
<polygon fill="white" stroke="#666666" points="2030.25,-38 1901.75,-38 1901.75,-6 2030.25,-6 2030.25,-38"/>
<text text-anchor="start" x="1909.75" y="-24.5" font-family="Helvetica,sans-Serif" font-size="10.00">src/bot_library/commands</text>
<text text-anchor="middle" x="1966" y="-12.5" font-family="Helvetica,sans-Serif" font-size="10.00">/roll/RollCommand.cpp</text>
</a>
</g>
</g>
<!-- Node31&#45;&gt;Node32 -->
<g id="edge43_Node000031_Node000032" class="edge">
<title>Node31&#45;&gt;Node32</title>
<g id="a_edge43_Node000031_Node000032"><a xlink:title=" ">
<path fill="none" stroke="#63b8ff" d="M1941.78,-75.49C1947.43,-63.23 1954.02,-48.95 1958.9,-38.38"/>
<polygon fill="#63b8ff" stroke="#63b8ff" points="1938.76,-73.67 1937.75,-84.22 1945.12,-76.6 1938.76,-73.67"/>
</a>
</g>
</g>
<!-- Node33&#45;&gt;Node7 -->
<g id="edge45_Node000033_Node000007" class="edge">
<title>Node33&#45;&gt;Node7</title>
<g id="a_edge45_Node000033_Node000007"><a xlink:title=" ">
<path fill="none" stroke="#63b8ff" d="M830.35,-83.24C836.63,-82 842.91,-80.9 849,-80 1108.02,-41.8 1178.9,-87.99 1437,-44 1445.29,-42.59 1453.99,-40.6 1462.38,-38.4"/>
<polygon fill="#63b8ff" stroke="#63b8ff" points="829.65,-79.81 820.57,-85.27 831.08,-86.66 829.65,-79.81"/>
</a>
</g>
</g>
<!-- Node34 -->
<g id="Node000034" class="node">
<title>Node34</title>
<g id="a_Node000034"><a xlink:href="ServerDetails_8cpp.html" target="_top" xlink:title=" ">
<polygon fill="white" stroke="#666666" points="840.38,-38 679.62,-38 679.62,-6 840.38,-6 840.38,-38"/>
<text text-anchor="start" x="687.62" y="-24.5" font-family="Helvetica,sans-Serif" font-size="10.00">src/bot_library/commands</text>
<text text-anchor="middle" x="760" y="-12.5" font-family="Helvetica,sans-Serif" font-size="10.00">/server_details/ServerDetails.cpp</text>
</a>
</g>
</g>
<!-- Node33&#45;&gt;Node34 -->
<g id="edge46_Node000033_Node000034" class="edge">
<title>Node33&#45;&gt;Node34</title>
<g id="a_edge46_Node000033_Node000034"><a xlink:title=" ">
<path fill="none" stroke="#63b8ff" d="M760,-74.37C760,-62.37 760,-48.63 760,-38.38"/>
<polygon fill="#63b8ff" stroke="#63b8ff" points="756.5,-74.08 760,-84.08 763.5,-74.08 756.5,-74.08"/>
</a>
</g>
</g>
<!-- Node35&#45;&gt;Node7 -->
<g id="edge48_Node000035_Node000007" class="edge">
<title>Node35&#45;&gt;Node7</title>
<g id="a_edge48_Node000035_Node000007"><a xlink:title=" ">
<path fill="none" stroke="#63b8ff" d="M2819.53,-83.52C2811.28,-82.13 2802.99,-80.92 2795,-80 2260.51,-18.54 2116.72,-126.06 1585,-44 1576.42,-42.68 1567.43,-40.67 1558.78,-38.41"/>
<polygon fill="#63b8ff" stroke="#63b8ff" points="2818.79,-86.94 2829.24,-85.24 2820.01,-80.05 2818.79,-86.94"/>
</a>
</g>
</g>
<!-- Node35&#45;&gt;Node36 -->
<g id="edge49_Node000035_Node000036" class="edge">
<title>Node35&#45;&gt;Node36</title>
<g id="a_edge49_Node000035_Node000036"><a xlink:title=" ">
<path fill="none" stroke="#63b8ff" d="M2963.93,-82.45C3011,-69 3073.9,-51.03 3118.18,-38.38"/>
<polygon fill="#63b8ff" stroke="#63b8ff" points="2963.05,-79.06 2954.39,-85.17 2964.97,-85.79 2963.05,-79.06"/>
</a>
</g>
</g>
<!-- Node37&#45;&gt;Node7 -->
<g id="edge51_Node000037_Node000007" class="edge">
<title>Node37&#45;&gt;Node7</title>
<g id="a_edge51_Node000037_Node000007"><a xlink:title=" ">
<path fill="none" stroke="#63b8ff" d="M983.61,-82.78C988.12,-81.74 992.62,-80.79 997,-80 1190.07,-45.05 1243.93,-78.95 1437,-44 1445.02,-42.55 1453.41,-40.6 1461.56,-38.47"/>
<polygon fill="#63b8ff" stroke="#63b8ff" points="982.78,-79.38 973.91,-85.17 984.46,-86.17 982.78,-79.38"/>
</a>
</g>
</g>
<!-- Node38 -->
<g id="Node000038" class="node">
<title>Node38</title>
<g id="a_Node000038"><a xlink:href="SetStatus_8cpp.html" target="_top" xlink:title=" ">
<polygon fill="white" stroke="#666666" points="988,-38 858,-38 858,-6 988,-6 988,-38"/>
<text text-anchor="start" x="866" y="-24.5" font-family="Helvetica,sans-Serif" font-size="10.00">src/bot_library/commands</text>
<text text-anchor="middle" x="923" y="-12.5" font-family="Helvetica,sans-Serif" font-size="10.00">/set_status/SetStatus.cpp</text>
</a>
</g>
</g>
<!-- Node37&#45;&gt;Node38 -->
<g id="edge52_Node000037_Node000038" class="edge">
<title>Node37&#45;&gt;Node38</title>
<g id="a_edge52_Node000037_Node000038"><a xlink:title=" ">
<path fill="none" stroke="#63b8ff" d="M923,-74.37C923,-62.37 923,-48.63 923,-38.38"/>
<polygon fill="#63b8ff" stroke="#63b8ff" points="919.5,-74.08 923,-84.08 926.5,-74.08 919.5,-74.08"/>
</a>
</g>
</g>
</g>
</svg>
