<?xml version="1.0" encoding="UTF-8" standalone="no"?>
<!DOCTYPE svg PUBLIC "-//W3C//DTD SVG 1.1//EN"
 "http://www.w3.org/Graphics/SVG/1.1/DTD/svg11.dtd">
<!-- Generated by graphviz version 9.0.0 (0)
 -->
<!-- Title: src/bot_library/bot/core/Core.cpp Pages: 1 -->
<svg width="1404pt" height="264pt"
 viewBox="0.00 0.00 1403.88 264.00" xmlns="http://www.w3.org/2000/svg" xmlns:xlink="http://www.w3.org/1999/xlink">
<g id="graph0" class="graph" transform="scale(1 1) rotate(0) translate(4 260)">
<title>src/bot_library/bot/core/Core.cpp</title>
<!-- Node1 -->
<g id="Node000001" class="node">
<title>Node1</title>
<g id="a_Node000001"><a xlink:title=" ">
<polygon fill="#999999" stroke="#666666" points="780.75,-256 686.75,-256 686.75,-224 780.75,-224 780.75,-256"/>
<text text-anchor="start" x="694.75" y="-242.5" font-family="Helvetica,sans-Serif" font-size="10.00">src/bot_library/bot</text>
<text text-anchor="middle" x="733.75" y="-230.5" font-family="Helvetica,sans-Serif" font-size="10.00">/core/Core.cpp</text>
</a>
</g>
</g>
<!-- Node2 -->
<g id="Node000002" class="node">
<title>Node2</title>
<g id="a_Node000002"><a xlink:title=" ">
<polygon fill="#e0e0e0" stroke="#999999" points="95.5,-188 0,-188 0,-168 95.5,-168 95.5,-188"/>
<text text-anchor="middle" x="47.75" y="-174.5" font-family="Helvetica,sans-Serif" font-size="10.00">dpp/permissions.h</text>
</a>
</g>
</g>
<!-- Node1&#45;&gt;Node2 -->
<g id="edge1_Node000001_Node000002" class="edge">
<title>Node1&#45;&gt;Node2</title>
<g id="a_edge1_Node000001_Node000002"><a xlink:title=" ">
<path fill="none" stroke="#63b8ff" d="M686.28,-236.38C582.98,-230.42 329.83,-214.37 107.17,-188.2"/>
<polygon fill="#63b8ff" stroke="#63b8ff" points="107.76,-184.75 97.42,-187.05 106.94,-191.7 107.76,-184.75"/>
</a>
</g>
</g>
<!-- Node3 -->
<g id="Node000003" class="node">
<title>Node3</title>
<g id="a_Node000003"><a xlink:title=" ">
<polygon fill="#e0e0e0" stroke="#999999" points="178.12,-188 113.38,-188 113.38,-168 178.12,-168 178.12,-188"/>
<text text-anchor="middle" x="145.75" y="-174.5" font-family="Helvetica,sans-Serif" font-size="10.00">dpp/timer.h</text>
</a>
</g>
</g>
<!-- Node1&#45;&gt;Node3 -->
<g id="edge2_Node000001_Node000003" class="edge">
<title>Node1&#45;&gt;Node3</title>
<g id="a_edge2_Node000001_Node000003"><a xlink:title=" ">
<path fill="none" stroke="#63b8ff" d="M686.44,-236.14C592.03,-230.07 373.69,-214.29 191.75,-188 191.07,-187.9 190.39,-187.8 189.7,-187.7"/>
<polygon fill="#63b8ff" stroke="#63b8ff" points="190.28,-184.25 179.84,-186.04 189.13,-191.15 190.28,-184.25"/>
</a>
</g>
</g>
<!-- Node4 -->
<g id="Node000004" class="node">
<title>Node4</title>
<g id="a_Node000004"><a xlink:href="Core_8hpp.html" target="_top" xlink:title=" ">
<polygon fill="white" stroke="#666666" points="692.62,-188 636.88,-188 636.88,-168 692.62,-168 692.62,-188"/>
<text text-anchor="middle" x="664.75" y="-174.5" font-family="Helvetica,sans-Serif" font-size="10.00">Core.hpp</text>
</a>
</g>
</g>
<!-- Node1&#45;&gt;Node4 -->
<g id="edge3_Node000001_Node000004" class="edge">
<title>Node1&#45;&gt;Node4</title>
<g id="a_edge3_Node000001_Node000004"><a xlink:title=" ">
<path fill="none" stroke="#63b8ff" d="M715.98,-223.55C706.2,-215.04 694.05,-204.48 684.03,-195.77"/>
<polygon fill="#63b8ff" stroke="#63b8ff" points="686.55,-193.32 676.71,-189.4 681.96,-198.6 686.55,-193.32"/>
</a>
</g>
</g>
<!-- Node15 -->
<g id="Node000015" class="node">
<title>Node15</title>
<g id="a_Node000015"><a xlink:title=" ">
<polygon fill="#e0e0e0" stroke="#999999" points="93.25,-76 50.25,-76 50.25,-56 93.25,-56 93.25,-76"/>
<text text-anchor="middle" x="71.75" y="-62.5" font-family="Helvetica,sans-Serif" font-size="10.00">vector</text>
</a>
</g>
</g>
<!-- Node1&#45;&gt;Node15 -->
<g id="edge40_Node000001_Node000015" class="edge">
<title>Node1&#45;&gt;Node15</title>
<g id="a_edge40_Node000001_Node000015"><a xlink:title=" ">
<path fill="none" stroke="#63b8ff" d="M686.3,-232.19C595.35,-218.44 390.8,-184.18 224.75,-132 180.37,-118.05 131.21,-95.9 100.89,-81.4"/>
<polygon fill="#63b8ff" stroke="#63b8ff" points="102.51,-78.29 91.98,-77.09 99.46,-84.6 102.51,-78.29"/>
</a>
</g>
</g>
<!-- Node25 -->
<g id="Node000025" class="node">
<title>Node25</title>
<g id="a_Node000025"><a xlink:title=" ">
<polygon fill="#e0e0e0" stroke="#999999" points="756.38,-188 711.12,-188 711.12,-168 756.38,-168 756.38,-188"/>
<text text-anchor="middle" x="733.75" y="-174.5" font-family="Helvetica,sans-Serif" font-size="10.00">chrono</text>
</a>
</g>
</g>
<!-- Node1&#45;&gt;Node25 -->
<g id="edge35_Node000001_Node000025" class="edge">
<title>Node1&#45;&gt;Node25</title>
<g id="a_edge35_Node000001_Node000025"><a xlink:title=" ">
<path fill="none" stroke="#63b8ff" d="M733.75,-223.55C733.75,-216.34 733.75,-207.66 733.75,-199.88"/>
<polygon fill="#63b8ff" stroke="#63b8ff" points="737.25,-199.92 733.75,-189.92 730.25,-199.92 737.25,-199.92"/>
</a>
</g>
</g>
<!-- Node26 -->
<g id="Node000026" class="node">
<title>Node26</title>
<g id="a_Node000026"><a xlink:title=" ">
<polygon fill="#e0e0e0" stroke="#999999" points="809.12,-188 774.38,-188 774.38,-168 809.12,-168 809.12,-188"/>
<text text-anchor="middle" x="791.75" y="-174.5" font-family="Helvetica,sans-Serif" font-size="10.00">ratio</text>
</a>
</g>
</g>
<!-- Node1&#45;&gt;Node26 -->
<g id="edge36_Node000001_Node000026" class="edge">
<title>Node1&#45;&gt;Node26</title>
<g id="a_edge36_Node000001_Node000026"><a xlink:title=" ">
<path fill="none" stroke="#63b8ff" d="M748.69,-223.55C756.66,-215.3 766.5,-205.12 774.76,-196.57"/>
<polygon fill="#63b8ff" stroke="#63b8ff" points="777.17,-199.12 781.6,-189.5 772.14,-194.25 777.17,-199.12"/>
</a>
</g>
</g>
<!-- Node27 -->
<g id="Node000027" class="node">
<title>Node27</title>
<g id="a_Node000027"><a xlink:title=" ">
<polygon fill="#e0e0e0" stroke="#999999" points="866.75,-188 826.75,-188 826.75,-168 866.75,-168 866.75,-188"/>
<text text-anchor="middle" x="846.75" y="-174.5" font-family="Helvetica,sans-Serif" font-size="10.00">regex</text>
</a>
</g>
</g>
<!-- Node1&#45;&gt;Node27 -->
<g id="edge37_Node000001_Node000027" class="edge">
<title>Node1&#45;&gt;Node27</title>
<g id="a_edge37_Node000001_Node000027"><a xlink:title=" ">
<path fill="none" stroke="#63b8ff" d="M762.85,-223.55C780.18,-214.35 802.05,-202.74 819.11,-193.68"/>
<polygon fill="#63b8ff" stroke="#63b8ff" points="820.5,-196.9 827.69,-189.12 817.22,-190.72 820.5,-196.9"/>
</a>
</g>
</g>
<!-- Node28 -->
<g id="Node000028" class="node">
<title>Node28</title>
<g id="a_Node000028"><a xlink:title=" ">
<polygon fill="#e0e0e0" stroke="#999999" points="928.25,-188 885.25,-188 885.25,-168 928.25,-168 928.25,-188"/>
<text text-anchor="middle" x="906.75" y="-174.5" font-family="Helvetica,sans-Serif" font-size="10.00">thread</text>
</a>
</g>
</g>
<!-- Node1&#45;&gt;Node28 -->
<g id="edge38_Node000001_Node000028" class="edge">
<title>Node1&#45;&gt;Node28</title>
<g id="a_edge38_Node000001_Node000028"><a xlink:title=" ">
<path fill="none" stroke="#63b8ff" d="M778.3,-223.55C808.26,-213.16 847.08,-199.7 874.17,-190.3"/>
<polygon fill="#63b8ff" stroke="#63b8ff" points="875.26,-193.62 883.57,-187.04 872.97,-187.01 875.26,-193.62"/>
</a>
</g>
</g>
<!-- Node29 -->
<g id="Node000029" class="node">
<title>Node29</title>
<g id="a_Node000029"><a xlink:title=" ">
<polygon fill="#e0e0e0" stroke="#999999" points="991.38,-188 946.12,-188 946.12,-168 991.38,-168 991.38,-188"/>
<text text-anchor="middle" x="968.75" y="-174.5" font-family="Helvetica,sans-Serif" font-size="10.00">variant</text>
</a>
</g>
</g>
<!-- Node1&#45;&gt;Node29 -->
<g id="edge39_Node000001_Node000029" class="edge">
<title>Node1&#45;&gt;Node29</title>
<g id="a_edge39_Node000001_Node000029"><a xlink:title=" ">
<path fill="none" stroke="#63b8ff" d="M780.87,-227.75C819.88,-218.32 877,-204.24 934.93,-188.7"/>
<polygon fill="#63b8ff" stroke="#63b8ff" points="935.55,-192.16 944.29,-186.17 933.73,-185.4 935.55,-192.16"/>
</a>
</g>
</g>
<!-- Node5 -->
<g id="Node000005" class="node">
<title>Node5</title>
<g id="a_Node000005"><a xlink:title=" ">
<polygon fill="#e0e0e0" stroke="#999999" points="1208.12,-132 1149.38,-132 1149.38,-112 1208.12,-112 1208.12,-132"/>
<text text-anchor="middle" x="1178.75" y="-118.5" font-family="Helvetica,sans-Serif" font-size="10.00">dpp/dpp.h</text>
</a>
</g>
</g>
<!-- Node4&#45;&gt;Node5 -->
<g id="edge4_Node000004_Node000005" class="edge">
<title>Node4&#45;&gt;Node5</title>
<g id="a_edge4_Node000004_Node000005"><a xlink:title=" ">
<path fill="none" stroke="#63b8ff" d="M692.94,-169.66C695.9,-169.03 698.88,-168.46 701.75,-168 891.33,-137.36 945.35,-161.68 1137.61,-132.28"/>
<polygon fill="#63b8ff" stroke="#63b8ff" points="1138.13,-135.74 1147.47,-130.74 1137.05,-128.82 1138.13,-135.74"/>
</a>
</g>
</g>
<!-- Node6 -->
<g id="Node000006" class="node">
<title>Node6</title>
<g id="a_Node000006"><a xlink:title=" ">
<polygon fill="#e0e0e0" stroke="#999999" points="1317.25,-132 1226.25,-132 1226.25,-112 1317.25,-112 1317.25,-132"/>
<text text-anchor="middle" x="1271.75" y="-118.5" font-family="Helvetica,sans-Serif" font-size="10.00">dpp/misc&#45;enum.h</text>
</a>
</g>
</g>
<!-- Node4&#45;&gt;Node6 -->
<g id="edge5_Node000004_Node000006" class="edge">
<title>Node4&#45;&gt;Node6</title>
<g id="a_edge5_Node000004_Node000006"><a xlink:title=" ">
<path fill="none" stroke="#63b8ff" d="M692.93,-169.63C695.9,-169.01 698.88,-168.45 701.75,-168 924.82,-133.33 986.86,-157.74 1214.56,-132.13"/>
<polygon fill="#63b8ff" stroke="#63b8ff" points="1214.84,-135.62 1224.37,-131 1214.04,-128.67 1214.84,-135.62"/>
</a>
</g>
</g>
<!-- Node7 -->
<g id="Node000007" class="node">
<title>Node7</title>
<g id="a_Node000007"><a xlink:title=" ">
<polygon fill="#e0e0e0" stroke="#999999" points="1395.88,-132 1335.62,-132 1335.62,-112 1395.88,-112 1395.88,-132"/>
<text text-anchor="middle" x="1365.75" y="-118.5" font-family="Helvetica,sans-Serif" font-size="10.00">fmt/core.h</text>
</a>
</g>
</g>
<!-- Node4&#45;&gt;Node7 -->
<g id="edge6_Node000004_Node000007" class="edge">
<title>Node4&#45;&gt;Node7</title>
<g id="a_edge6_Node000004_Node000007"><a xlink:title=" ">
<path fill="none" stroke="#63b8ff" d="M692.93,-169.59C695.89,-168.98 698.87,-168.43 701.75,-168 973.32,-127.49 1049.32,-170.27 1324.07,-132.14"/>
<polygon fill="#63b8ff" stroke="#63b8ff" points="1324.28,-135.65 1333.69,-130.78 1323.3,-128.71 1324.28,-135.65"/>
</a>
</g>
</g>
<!-- Node8 -->
<g id="Node000008" class="node">
<title>Node8</title>
<g id="a_Node000008"><a xlink:href="Database_8hpp.html" target="_top" xlink:title=" ">
<polygon fill="white" stroke="#666666" points="310.12,-132 233.38,-132 233.38,-112 310.12,-112 310.12,-132"/>
<text text-anchor="middle" x="271.75" y="-118.5" font-family="Helvetica,sans-Serif" font-size="10.00">Database.hpp</text>
</a>
</g>
</g>
<!-- Node4&#45;&gt;Node8 -->
<g id="edge7_Node000004_Node000008" class="edge">
<title>Node4&#45;&gt;Node8</title>
<g id="a_edge7_Node000004_Node000008"><a xlink:title=" ">
<path fill="none" stroke="#63b8ff" d="M636.41,-173.9C578.97,-167.48 444.46,-151.83 321.54,-132.37"/>
<polygon fill="#63b8ff" stroke="#63b8ff" points="322.37,-128.96 311.94,-130.84 321.26,-135.87 322.37,-128.96"/>
</a>
</g>
</g>
<!-- Node17 -->
<g id="Node000017" class="node">
<title>Node17</title>
<g id="a_Node000017"><a xlink:href="IButtonCommand_8hpp.html" target="_top" xlink:title=" ">
<polygon fill="white" stroke="#666666" points="855.38,-132 744.12,-132 744.12,-112 855.38,-112 855.38,-132"/>
<text text-anchor="middle" x="799.75" y="-118.5" font-family="Helvetica,sans-Serif" font-size="10.00">IButtonCommand.hpp</text>
</a>
</g>
</g>
<!-- Node4&#45;&gt;Node17 -->
<g id="edge17_Node000004_Node000017" class="edge">
<title>Node4&#45;&gt;Node17</title>
<g id="a_edge17_Node000004_Node000017"><a xlink:title=" ">
<path fill="none" stroke="#63b8ff" d="M688.27,-167.59C709.62,-159.05 741.38,-146.35 765.55,-136.68"/>
<polygon fill="#63b8ff" stroke="#63b8ff" points="766.66,-140.01 774.65,-133.04 764.06,-133.51 766.66,-140.01"/>
</a>
</g>
</g>
<!-- Node20 -->
<g id="Node000020" class="node">
<title>Node20</title>
<g id="a_Node000020"><a xlink:href="IFormCommand_8hpp.html" target="_top" xlink:title=" ">
<polygon fill="white" stroke="#666666" points="978.38,-132 873.12,-132 873.12,-112 978.38,-112 978.38,-132"/>
<text text-anchor="middle" x="925.75" y="-118.5" font-family="Helvetica,sans-Serif" font-size="10.00">IFormCommand.hpp</text>
</a>
</g>
</g>
<!-- Node4&#45;&gt;Node20 -->
<g id="edge20_Node000004_Node000020" class="edge">
<title>Node4&#45;&gt;Node20</title>
<g id="a_edge20_Node000004_Node000020"><a xlink:title=" ">
<path fill="none" stroke="#63b8ff" d="M693,-170C695.95,-169.31 698.91,-168.63 701.75,-168 756.73,-155.8 819.62,-143.29 864.73,-134.57"/>
<polygon fill="#63b8ff" stroke="#63b8ff" points="865.16,-138.05 874.32,-132.72 863.84,-131.18 865.16,-138.05"/>
</a>
</g>
</g>
<!-- Node21 -->
<g id="Node000021" class="node">
<title>Node21</title>
<g id="a_Node000021"><a xlink:href="IGlobalSlashCommand_8hpp.html" target="_top" xlink:title=" ">
<polygon fill="white" stroke="#666666" points="1131.38,-132 996.12,-132 996.12,-112 1131.38,-112 1131.38,-132"/>
<text text-anchor="middle" x="1063.75" y="-118.5" font-family="Helvetica,sans-Serif" font-size="10.00">IGlobalSlashCommand.hpp</text>
</a>
</g>
</g>
<!-- Node4&#45;&gt;Node21 -->
<g id="edge23_Node000004_Node000021" class="edge">
<title>Node4&#45;&gt;Node21</title>
<g id="a_edge23_Node000004_Node000021"><a xlink:title=" ">
<path fill="none" stroke="#63b8ff" d="M692.96,-169.78C695.92,-169.13 698.89,-168.52 701.75,-168 715.49,-165.48 882.15,-145.07 984.48,-132.62"/>
<polygon fill="#63b8ff" stroke="#63b8ff" points="984.7,-136.12 994.2,-131.44 983.85,-129.17 984.7,-136.12"/>
</a>
</g>
</g>
<!-- Node22 -->
<g id="Node000022" class="node">
<title>Node22</title>
<g id="a_Node000022"><a xlink:href="IMemberCommand_8hpp.html" target="_top" xlink:title=" ">
<polygon fill="white" stroke="#666666" points="445.75,-132 327.75,-132 327.75,-112 445.75,-112 445.75,-132"/>
<text text-anchor="middle" x="386.75" y="-118.5" font-family="Helvetica,sans-Serif" font-size="10.00">IMemberCommand.hpp</text>
</a>
</g>
</g>
<!-- Node4&#45;&gt;Node22 -->
<g id="edge26_Node000004_Node000022" class="edge">
<title>Node4&#45;&gt;Node22</title>
<g id="a_edge26_Node000004_Node000022"><a xlink:title=" ">
<path fill="none" stroke="#63b8ff" d="M636.56,-171.53C592.21,-162.91 505.15,-146 446.45,-134.6"/>
<polygon fill="#63b8ff" stroke="#63b8ff" points="447.44,-131.22 436.96,-132.75 446.1,-138.09 447.44,-131.22"/>
</a>
</g>
</g>
<!-- Node23 -->
<g id="Node000023" class="node">
<title>Node23</title>
<g id="a_Node000023"><a xlink:href="IMessageCommand_8hpp.html" target="_top" xlink:title=" ">
<polygon fill="white" stroke="#666666" points="586,-132 463.5,-132 463.5,-112 586,-112 586,-132"/>
<text text-anchor="middle" x="524.75" y="-118.5" font-family="Helvetica,sans-Serif" font-size="10.00">IMessageCommand.hpp</text>
</a>
</g>
</g>
<!-- Node4&#45;&gt;Node23 -->
<g id="edge29_Node000004_Node000023" class="edge">
<title>Node4&#45;&gt;Node23</title>
<g id="a_edge29_Node000004_Node000023"><a xlink:title=" ">
<path fill="none" stroke="#63b8ff" d="M640.36,-167.59C618.12,-159.01 584.98,-146.23 559.88,-136.55"/>
<polygon fill="#63b8ff" stroke="#63b8ff" points="561.33,-133.36 550.74,-133.02 558.81,-139.89 561.33,-133.36"/>
</a>
</g>
</g>
<!-- Node24 -->
<g id="Node000024" class="node">
<title>Node24</title>
<g id="a_Node000024"><a xlink:href="IReactionCommand_8hpp.html" target="_top" xlink:title=" ">
<polygon fill="white" stroke="#666666" points="725.62,-132 603.88,-132 603.88,-112 725.62,-112 725.62,-132"/>
<text text-anchor="middle" x="664.75" y="-118.5" font-family="Helvetica,sans-Serif" font-size="10.00">IReactionCommand.hpp</text>
</a>
</g>
</g>
<!-- Node4&#45;&gt;Node24 -->
<g id="edge32_Node000004_Node000024" class="edge">
<title>Node4&#45;&gt;Node24</title>
<g id="a_edge32_Node000004_Node000024"><a xlink:title=" ">
<path fill="none" stroke="#63b8ff" d="M664.75,-167.59C664.75,-161.01 664.75,-151.96 664.75,-143.73"/>
<polygon fill="#63b8ff" stroke="#63b8ff" points="668.25,-143.81 664.75,-133.81 661.25,-143.81 668.25,-143.81"/>
</a>
</g>
</g>
<!-- Node9 -->
<g id="Node000009" class="node">
<title>Node9</title>
<g id="a_Node000009"><a xlink:title=" ">
<polygon fill="#e0e0e0" stroke="#999999" points="526.88,-76 478.62,-76 478.62,-56 526.88,-56 526.88,-76"/>
<text text-anchor="middle" x="502.75" y="-62.5" font-family="Helvetica,sans-Serif" font-size="10.00">cstddef</text>
</a>
</g>
</g>
<!-- Node8&#45;&gt;Node9 -->
<g id="edge8_Node000008_Node000009" class="edge">
<title>Node8&#45;&gt;Node9</title>
<g id="a_edge8_Node000008_Node000009"><a xlink:title=" ">
<path fill="none" stroke="#63b8ff" d="M310.57,-112.69C348.3,-104.5 407.5,-91.36 467.47,-76.5"/>
<polygon fill="#63b8ff" stroke="#63b8ff" points="467.95,-79.98 476.8,-74.17 466.25,-73.19 467.95,-79.98"/>
</a>
</g>
</g>
<!-- Node10 -->
<g id="Node000010" class="node">
<title>Node10</title>
<g id="a_Node000010"><a xlink:title=" ">
<polygon fill="#e0e0e0" stroke="#999999" points="598.5,-76 545,-76 545,-56 598.5,-56 598.5,-76"/>
<text text-anchor="middle" x="571.75" y="-62.5" font-family="Helvetica,sans-Serif" font-size="10.00">iostream</text>
</a>
</g>
</g>
<!-- Node8&#45;&gt;Node10 -->
<g id="edge9_Node000008_Node000010" class="edge">
<title>Node8&#45;&gt;Node10</title>
<g id="a_edge9_Node000008_Node000010"><a xlink:title=" ">
<path fill="none" stroke="#63b8ff" d="M310.46,-113.51C313.27,-112.99 316.05,-112.48 318.75,-112 411.51,-95.43 438.13,-95.82 533.64,-76.3"/>
<polygon fill="#63b8ff" stroke="#63b8ff" points="534.11,-79.77 543.19,-74.32 532.69,-72.92 534.11,-79.77"/>
</a>
</g>
</g>
<!-- Node11 -->
<g id="Node000011" class="node">
<title>Node11</title>
<g id="a_Node000011"><a xlink:title=" ">
<polygon fill="#e0e0e0" stroke="#999999" points="160.62,-76 110.88,-76 110.88,-56 160.62,-56 160.62,-76"/>
<text text-anchor="middle" x="135.75" y="-62.5" font-family="Helvetica,sans-Serif" font-size="10.00">optional</text>
</a>
</g>
</g>
<!-- Node8&#45;&gt;Node11 -->
<g id="edge10_Node000008_Node000011" class="edge">
<title>Node8&#45;&gt;Node11</title>
<g id="a_edge10_Node000008_Node000011"><a xlink:title=" ">
<path fill="none" stroke="#63b8ff" d="M248.06,-111.59C226.55,-103.05 194.55,-90.35 170.21,-80.68"/>
<polygon fill="#63b8ff" stroke="#63b8ff" points="171.62,-77.48 161.03,-77.04 169.03,-83.98 171.62,-77.48"/>
</a>
</g>
</g>
<!-- Node12 -->
<g id="Node000012" class="node">
<title>Node12</title>
<g id="a_Node000012"><a xlink:title=" ">
<polygon fill="#e0e0e0" stroke="#999999" points="260.25,-20 199.25,-20 199.25,0 260.25,0 260.25,-20"/>
<text text-anchor="middle" x="229.75" y="-6.5" font-family="Helvetica,sans-Serif" font-size="10.00">pqxx/pqxx</text>
</a>
</g>
</g>
<!-- Node8&#45;&gt;Node12 -->
<g id="edge11_Node000008_Node000012" class="edge">
<title>Node8&#45;&gt;Node12</title>
<g id="a_edge11_Node000008_Node000012"><a xlink:title=" ">
<path fill="none" stroke="#63b8ff" d="M248.68,-111.57C234.05,-104.24 216.33,-92.51 207.75,-76 199.96,-61 207.56,-42.67 215.88,-29.3"/>
<polygon fill="#63b8ff" stroke="#63b8ff" points="218.51,-31.66 221.29,-21.43 212.74,-27.69 218.51,-31.66"/>
</a>
</g>
</g>
<!-- Node13 -->
<g id="Node000013" class="node">
<title>Node13</title>
<g id="a_Node000013"><a xlink:title=" ">
<polygon fill="#e0e0e0" stroke="#999999" points="384.75,-76 344.75,-76 344.75,-56 384.75,-56 384.75,-76"/>
<text text-anchor="middle" x="364.75" y="-62.5" font-family="Helvetica,sans-Serif" font-size="10.00">string</text>
</a>
</g>
</g>
<!-- Node8&#45;&gt;Node13 -->
<g id="edge12_Node000008_Node000013" class="edge">
<title>Node8&#45;&gt;Node13</title>
<g id="a_edge12_Node000008_Node000013"><a xlink:title=" ">
<path fill="none" stroke="#63b8ff" d="M287.95,-111.59C302,-103.44 322.58,-91.48 338.91,-82"/>
<polygon fill="#63b8ff" stroke="#63b8ff" points="340.22,-85.29 347.12,-77.24 336.71,-79.23 340.22,-85.29"/>
</a>
</g>
</g>
<!-- Node14 -->
<g id="Node000014" class="node">
<title>Node14</title>
<g id="a_Node000014"><a xlink:title=" ">
<polygon fill="#e0e0e0" stroke="#999999" points="460.75,-76 402.75,-76 402.75,-56 460.75,-56 460.75,-76"/>
<text text-anchor="middle" x="431.75" y="-62.5" font-family="Helvetica,sans-Serif" font-size="10.00">typeindex</text>
</a>
</g>
</g>
<!-- Node8&#45;&gt;Node14 -->
<g id="edge13_Node000008_Node000014" class="edge">
<title>Node8&#45;&gt;Node14</title>
<g id="a_edge13_Node000008_Node000014"><a xlink:title=" ">
<path fill="none" stroke="#63b8ff" d="M299.62,-111.59C325.5,-102.86 364.28,-89.77 393.14,-80.03"/>
<polygon fill="#63b8ff" stroke="#63b8ff" points="393.87,-83.48 402.23,-76.96 391.63,-76.85 393.87,-83.48"/>
</a>
</g>
</g>
<!-- Node8&#45;&gt;Node15 -->
<g id="edge14_Node000008_Node000015" class="edge">
<title>Node8&#45;&gt;Node15</title>
<g id="a_edge14_Node000008_Node000015"><a xlink:title=" ">
<path fill="none" stroke="#63b8ff" d="M234.51,-111.52C202.37,-103.25 154.41,-90.72 104.66,-76.76"/>
<polygon fill="#63b8ff" stroke="#63b8ff" points="105.71,-73.42 95.14,-74.08 103.81,-80.16 105.71,-73.42"/>
</a>
</g>
</g>
<!-- Node16 -->
<g id="Node000016" class="node">
<title>Node16</title>
<g id="a_Node000016"><a xlink:href="RowDTOAdapter_8hpp.html" target="_top" xlink:title=" ">
<polygon fill="white" stroke="#666666" points="326.62,-76 216.88,-76 216.88,-56 326.62,-56 326.62,-76"/>
<text text-anchor="middle" x="271.75" y="-62.5" font-family="Helvetica,sans-Serif" font-size="10.00">RowDTOAdapter.hpp</text>
</a>
</g>
</g>
<!-- Node8&#45;&gt;Node16 -->
<g id="edge15_Node000008_Node000016" class="edge">
<title>Node8&#45;&gt;Node16</title>
<g id="a_edge15_Node000008_Node000016"><a xlink:title=" ">
<path fill="none" stroke="#63b8ff" d="M271.75,-111.59C271.75,-105.01 271.75,-95.96 271.75,-87.73"/>
<polygon fill="#63b8ff" stroke="#63b8ff" points="275.25,-87.81 271.75,-77.81 268.25,-87.81 275.25,-87.81"/>
</a>
</g>
</g>
<!-- Node16&#45;&gt;Node12 -->
<g id="edge16_Node000016_Node000012" class="edge">
<title>Node16&#45;&gt;Node12</title>
<g id="a_edge16_Node000016_Node000012"><a xlink:title=" ">
<path fill="none" stroke="#63b8ff" d="M264.43,-55.59C258.77,-48.32 250.76,-38.02 243.86,-29.15"/>
<polygon fill="#63b8ff" stroke="#63b8ff" points="246.81,-27.24 237.91,-21.49 241.29,-31.54 246.81,-27.24"/>
</a>
</g>
</g>
<!-- Node18 -->
<g id="Node000018" class="node">
<title>Node18</title>
<g id="a_Node000018"><a xlink:title=" ">
<polygon fill="#e0e0e0" stroke="#999999" points="710.88,-76 638.62,-76 638.62,-56 710.88,-56 710.88,-76"/>
<text text-anchor="middle" x="674.75" y="-62.5" font-family="Helvetica,sans-Serif" font-size="10.00">dpp/cluster.h</text>
</a>
</g>
</g>
<!-- Node17&#45;&gt;Node18 -->
<g id="edge18_Node000017_Node000018" class="edge">
<title>Node17&#45;&gt;Node18</title>
<g id="a_edge18_Node000017_Node000018"><a xlink:title=" ">
<path fill="none" stroke="#63b8ff" d="M777.98,-111.59C758.38,-103.13 729.32,-90.58 707.03,-80.94"/>
<polygon fill="#63b8ff" stroke="#63b8ff" points="708.65,-77.83 698.08,-77.08 705.87,-84.26 708.65,-77.83"/>
</a>
</g>
</g>
<!-- Node19 -->
<g id="Node000019" class="node">
<title>Node19</title>
<g id="a_Node000019"><a xlink:title=" ">
<polygon fill="#e0e0e0" stroke="#999999" points="834.75,-76 746.75,-76 746.75,-56 834.75,-56 834.75,-76"/>
<text text-anchor="middle" x="790.75" y="-62.5" font-family="Helvetica,sans-Serif" font-size="10.00">dpp/dispatcher.h</text>
</a>
</g>
</g>
<!-- Node17&#45;&gt;Node19 -->
<g id="edge19_Node000017_Node000019" class="edge">
<title>Node17&#45;&gt;Node19</title>
<g id="a_edge19_Node000017_Node000019"><a xlink:title=" ">
<path fill="none" stroke="#63b8ff" d="M798.18,-111.59C797.07,-104.93 795.54,-95.75 794.16,-87.44"/>
<polygon fill="#63b8ff" stroke="#63b8ff" points="797.64,-87.08 792.55,-77.79 790.74,-88.23 797.64,-87.08"/>
</a>
</g>
</g>
<!-- Node20&#45;&gt;Node18 -->
<g id="edge21_Node000020_Node000018" class="edge">
<title>Node20&#45;&gt;Node18</title>
<g id="a_edge21_Node000020_Node000018"><a xlink:title=" ">
<path fill="none" stroke="#63b8ff" d="M881.74,-111.53C837.16,-101.94 768.39,-87.15 722.51,-77.27"/>
<polygon fill="#63b8ff" stroke="#63b8ff" points="723.35,-73.88 712.84,-75.19 721.88,-80.72 723.35,-73.88"/>
</a>
</g>
</g>
<!-- Node20&#45;&gt;Node19 -->
<g id="edge22_Node000020_Node000019" class="edge">
<title>Node20&#45;&gt;Node19</title>
<g id="a_edge22_Node000020_Node000019"><a xlink:title=" ">
<path fill="none" stroke="#63b8ff" d="M902.23,-111.59C880.88,-103.05 849.12,-90.35 824.95,-80.68"/>
<polygon fill="#63b8ff" stroke="#63b8ff" points="826.44,-77.51 815.85,-77.04 823.84,-84.01 826.44,-77.51"/>
</a>
</g>
</g>
<!-- Node21&#45;&gt;Node18 -->
<g id="edge24_Node000021_Node000018" class="edge">
<title>Node21&#45;&gt;Node18</title>
<g id="a_edge24_Node000021_Node000018"><a xlink:title=" ">
<path fill="none" stroke="#63b8ff" d="M995.68,-111.7C929.72,-102.66 826.86,-88.52 737.75,-76 732.75,-75.3 727.53,-74.56 722.33,-73.82"/>
<polygon fill="#63b8ff" stroke="#63b8ff" points="722.95,-70.37 712.56,-72.43 721.96,-77.3 722.95,-70.37"/>
</a>
</g>
</g>
<!-- Node21&#45;&gt;Node19 -->
<g id="edge25_Node000021_Node000019" class="edge">
<title>Node21&#45;&gt;Node19</title>
<g id="a_edge25_Node000021_Node000019"><a xlink:title=" ">
<path fill="none" stroke="#63b8ff" d="M1015.88,-111.53C968.5,-102.16 896.01,-87.82 846.16,-77.96"/>
<polygon fill="#63b8ff" stroke="#63b8ff" points="846.92,-74.54 836.43,-76.04 845.56,-81.41 846.92,-74.54"/>
</a>
</g>
</g>
<!-- Node22&#45;&gt;Node18 -->
<g id="edge27_Node000022_Node000018" class="edge">
<title>Node22&#45;&gt;Node18</title>
<g id="a_edge27_Node000022_Node000018"><a xlink:title=" ">
<path fill="none" stroke="#63b8ff" d="M437.25,-111.53C490.9,-101.47 575.07,-85.69 627.47,-75.87"/>
<polygon fill="#63b8ff" stroke="#63b8ff" points="627.79,-79.37 636.98,-74.08 626.5,-72.49 627.79,-79.37"/>
</a>
</g>
</g>
<!-- Node22&#45;&gt;Node19 -->
<g id="edge28_Node000022_Node000019" class="edge">
<title>Node22&#45;&gt;Node19</title>
<g id="a_edge28_Node000022_Node000019"><a xlink:title=" ">
<path fill="none" stroke="#63b8ff" d="M445.93,-113.09C523.69,-102.7 659.25,-84.58 735.18,-74.43"/>
<polygon fill="#63b8ff" stroke="#63b8ff" points="735.43,-77.93 744.88,-73.13 734.51,-70.99 735.43,-77.93"/>
</a>
</g>
</g>
<!-- Node23&#45;&gt;Node18 -->
<g id="edge30_Node000023_Node000018" class="edge">
<title>Node23&#45;&gt;Node18</title>
<g id="a_edge30_Node000023_Node000018"><a xlink:title=" ">
<path fill="none" stroke="#63b8ff" d="M550.88,-111.59C574.93,-102.94 610.85,-90 637.83,-80.29"/>
<polygon fill="#63b8ff" stroke="#63b8ff" points="638.77,-83.67 646.99,-76.99 636.4,-77.09 638.77,-83.67"/>
</a>
</g>
</g>
<!-- Node23&#45;&gt;Node19 -->
<g id="edge31_Node000023_Node000019" class="edge">
<title>Node23&#45;&gt;Node19</title>
<g id="a_edge31_Node000023_Node000019"><a xlink:title=" ">
<path fill="none" stroke="#63b8ff" d="M571.39,-111.53C617.05,-102.26 686.63,-88.14 735.14,-78.29"/>
<polygon fill="#63b8ff" stroke="#63b8ff" points="735.79,-81.73 744.9,-76.31 734.4,-74.87 735.79,-81.73"/>
</a>
</g>
</g>
<!-- Node24&#45;&gt;Node18 -->
<g id="edge33_Node000024_Node000018" class="edge">
<title>Node24&#45;&gt;Node18</title>
<g id="a_edge33_Node000024_Node000018"><a xlink:title=" ">
<path fill="none" stroke="#63b8ff" d="M666.49,-111.59C667.73,-104.93 669.43,-95.75 670.96,-87.44"/>
<polygon fill="#63b8ff" stroke="#63b8ff" points="674.37,-88.26 672.75,-77.79 667.49,-86.98 674.37,-88.26"/>
</a>
</g>
</g>
<!-- Node24&#45;&gt;Node19 -->
<g id="edge34_Node000024_Node000019" class="edge">
<title>Node24&#45;&gt;Node19</title>
<g id="a_edge34_Node000024_Node000019"><a xlink:title=" ">
<path fill="none" stroke="#63b8ff" d="M686.7,-111.59C706.45,-103.13 735.74,-90.58 758.22,-80.94"/>
<polygon fill="#63b8ff" stroke="#63b8ff" points="759.43,-84.23 767.24,-77.08 756.67,-77.8 759.43,-84.23"/>
</a>
</g>
</g>
</g>
</svg>
