<?xml version="1.0" encoding="UTF-8" standalone="no"?>
<!DOCTYPE svg PUBLIC "-//W3C//DTD SVG 1.1//EN"
 "http://www.w3.org/Graphics/SVG/1.1/DTD/svg11.dtd">
<!-- Generated by graphviz version 9.0.0 (0)
 -->
<!-- Title: src/bot_library/bot/core/include/Core.hpp Pages: 1 -->
<svg width="1238pt" height="208pt"
 viewBox="0.00 0.00 1237.50 208.00" xmlns="http://www.w3.org/2000/svg" xmlns:xlink="http://www.w3.org/1999/xlink">
<g id="graph0" class="graph" transform="scale(1 1) rotate(0) translate(4 204)">
<title>src/bot_library/bot/core/include/Core.hpp</title>
<!-- Node1 -->
<g id="Node000001" class="node">
<title>Node1</title>
<g id="a_Node000001"><a xlink:title=" ">
<polygon fill="#999999" stroke="#666666" points="542,-200 427.75,-200 427.75,-168 542,-168 542,-200"/>
<text text-anchor="start" x="435.75" y="-186.5" font-family="Helvetica,sans-Serif" font-size="10.00">src/bot_library/bot</text>
<text text-anchor="middle" x="484.88" y="-174.5" font-family="Helvetica,sans-Serif" font-size="10.00">/core/include/Core.hpp</text>
</a>
</g>
</g>
<!-- Node2 -->
<g id="Node000002" class="node">
<title>Node2</title>
<g id="a_Node000002"><a xlink:title=" ">
<polygon fill="#e0e0e0" stroke="#999999" points="87.25,-132 28.5,-132 28.5,-112 87.25,-112 87.25,-132"/>
<text text-anchor="middle" x="57.88" y="-118.5" font-family="Helvetica,sans-Serif" font-size="10.00">dpp/dpp.h</text>
</a>
</g>
</g>
<!-- Node1&#45;&gt;Node2 -->
<g id="edge1_Node000001_Node000002" class="edge">
<title>Node1&#45;&gt;Node2</title>
<g id="a_edge1_Node000001_Node000002"><a xlink:title=" ">
<path fill="none" stroke="#63b8ff" d="M427.57,-177.34C353.68,-169.63 221.01,-154.41 98.73,-132.38"/>
<polygon fill="#63b8ff" stroke="#63b8ff" points="99.64,-128.99 89.17,-130.64 98.38,-135.87 99.64,-128.99"/>
</a>
</g>
</g>
<!-- Node3 -->
<g id="Node000003" class="node">
<title>Node3</title>
<g id="a_Node000003"><a xlink:title=" ">
<polygon fill="#e0e0e0" stroke="#999999" points="196.38,-132 105.38,-132 105.38,-112 196.38,-112 196.38,-132"/>
<text text-anchor="middle" x="150.88" y="-118.5" font-family="Helvetica,sans-Serif" font-size="10.00">dpp/misc&#45;enum.h</text>
</a>
</g>
</g>
<!-- Node1&#45;&gt;Node3 -->
<g id="edge2_Node000001_Node000003" class="edge">
<title>Node1&#45;&gt;Node3</title>
<g id="a_edge2_Node000001_Node000003"><a xlink:title=" ">
<path fill="none" stroke="#63b8ff" d="M427.46,-172.69C366,-161.65 269.1,-144.24 207.83,-133.23"/>
<polygon fill="#63b8ff" stroke="#63b8ff" points="208.77,-129.84 198.3,-131.52 207.53,-136.73 208.77,-129.84"/>
</a>
</g>
</g>
<!-- Node4 -->
<g id="Node000004" class="node">
<title>Node4</title>
<g id="a_Node000004"><a xlink:title=" ">
<polygon fill="#e0e0e0" stroke="#999999" points="275,-132 214.75,-132 214.75,-112 275,-112 275,-132"/>
<text text-anchor="middle" x="244.88" y="-118.5" font-family="Helvetica,sans-Serif" font-size="10.00">fmt/core.h</text>
</a>
</g>
</g>
<!-- Node1&#45;&gt;Node4 -->
<g id="edge3_Node000001_Node000004" class="edge">
<title>Node1&#45;&gt;Node4</title>
<g id="a_edge3_Node000001_Node000004"><a xlink:title=" ">
<path fill="none" stroke="#63b8ff" d="M427.39,-168.63C383.84,-157.74 325.06,-143.05 286.11,-133.31"/>
<polygon fill="#63b8ff" stroke="#63b8ff" points="287.21,-129.98 276.66,-130.95 285.51,-136.77 287.21,-129.98"/>
</a>
</g>
</g>
<!-- Node5 -->
<g id="Node000005" class="node">
<title>Node5</title>
<g id="a_Node000005"><a xlink:href="Database_8hpp.html" target="_top" xlink:title=" ">
<polygon fill="white" stroke="#666666" points="370.25,-132 293.5,-132 293.5,-112 370.25,-112 370.25,-132"/>
<text text-anchor="middle" x="331.88" y="-118.5" font-family="Helvetica,sans-Serif" font-size="10.00">Database.hpp</text>
</a>
</g>
</g>
<!-- Node1&#45;&gt;Node5 -->
<g id="edge4_Node000001_Node000005" class="edge">
<title>Node1&#45;&gt;Node5</title>
<g id="a_edge4_Node000001_Node000005"><a xlink:title=" ">
<path fill="none" stroke="#63b8ff" d="M445.47,-167.55C421.01,-157.96 389.88,-145.75 366.39,-136.54"/>
<polygon fill="#63b8ff" stroke="#63b8ff" points="367.86,-133.35 357.27,-132.96 365.31,-139.87 367.86,-133.35"/>
</a>
</g>
</g>
<!-- Node10 -->
<g id="Node000010" class="node">
<title>Node10</title>
<g id="a_Node000010"><a xlink:title=" ">
<polygon fill="#e0e0e0" stroke="#999999" points="549.88,-76 509.88,-76 509.88,-56 549.88,-56 549.88,-76"/>
<text text-anchor="middle" x="529.88" y="-62.5" font-family="Helvetica,sans-Serif" font-size="10.00">string</text>
</a>
</g>
</g>
<!-- Node1&#45;&gt;Node10 -->
<g id="edge32_Node000001_Node000010" class="edge">
<title>Node1&#45;&gt;Node10</title>
<g id="a_edge32_Node000001_Node000010"><a xlink:title=" ">
<path fill="none" stroke="#63b8ff" d="M452.64,-167.73C428.67,-154.2 402.41,-133.33 416.88,-112 421.75,-104.81 467.07,-88.26 498.81,-77.36"/>
<polygon fill="#63b8ff" stroke="#63b8ff" points="499.61,-80.79 507.95,-74.26 497.35,-74.16 499.61,-80.79"/>
</a>
</g>
</g>
<!-- Node14 -->
<g id="Node000014" class="node">
<title>Node14</title>
<g id="a_Node000014"><a xlink:href="IButtonCommand_8hpp.html" target="_top" xlink:title=" ">
<polygon fill="white" stroke="#666666" points="953.5,-132 842.25,-132 842.25,-112 953.5,-112 953.5,-132"/>
<text text-anchor="middle" x="897.88" y="-118.5" font-family="Helvetica,sans-Serif" font-size="10.00">IButtonCommand.hpp</text>
</a>
</g>
</g>
<!-- Node1&#45;&gt;Node14 -->
<g id="edge14_Node000001_Node000014" class="edge">
<title>Node1&#45;&gt;Node14</title>
<g id="a_edge14_Node000001_Node000014"><a xlink:title=" ">
<path fill="none" stroke="#63b8ff" d="M542.3,-174.66C617.98,-163.66 750.85,-144.36 830.98,-132.72"/>
<polygon fill="#63b8ff" stroke="#63b8ff" points="831.04,-136.25 840.43,-131.35 830.03,-129.32 831.04,-136.25"/>
</a>
</g>
</g>
<!-- Node17 -->
<g id="Node000017" class="node">
<title>Node17</title>
<g id="a_Node000017"><a xlink:href="IFormCommand_8hpp.html" target="_top" xlink:title=" ">
<polygon fill="white" stroke="#666666" points="1076.5,-132 971.25,-132 971.25,-112 1076.5,-112 1076.5,-132"/>
<text text-anchor="middle" x="1023.88" y="-118.5" font-family="Helvetica,sans-Serif" font-size="10.00">IFormCommand.hpp</text>
</a>
</g>
</g>
<!-- Node1&#45;&gt;Node17 -->
<g id="edge17_Node000001_Node000017" class="edge">
<title>Node1&#45;&gt;Node17</title>
<g id="a_edge17_Node000001_Node000017"><a xlink:title=" ">
<path fill="none" stroke="#63b8ff" d="M542.35,-177.62C630.1,-169.24 803.02,-152.08 959.74,-132.36"/>
<polygon fill="#63b8ff" stroke="#63b8ff" points="960.01,-135.85 969.49,-131.13 959.13,-128.91 960.01,-135.85"/>
</a>
</g>
</g>
<!-- Node18 -->
<g id="Node000018" class="node">
<title>Node18</title>
<g id="a_Node000018"><a xlink:href="IGlobalSlashCommand_8hpp.html" target="_top" xlink:title=" ">
<polygon fill="white" stroke="#666666" points="1229.5,-132 1094.25,-132 1094.25,-112 1229.5,-112 1229.5,-132"/>
<text text-anchor="middle" x="1161.88" y="-118.5" font-family="Helvetica,sans-Serif" font-size="10.00">IGlobalSlashCommand.hpp</text>
</a>
</g>
</g>
<!-- Node1&#45;&gt;Node18 -->
<g id="edge20_Node000001_Node000018" class="edge">
<title>Node1&#45;&gt;Node18</title>
<g id="a_edge20_Node000001_Node000018"><a xlink:title=" ">
<path fill="none" stroke="#63b8ff" d="M542.11,-178.78C647.11,-170.9 877.84,-152.94 1082.66,-132.3"/>
<polygon fill="#63b8ff" stroke="#63b8ff" points="1082.83,-135.8 1092.43,-131.31 1082.13,-128.84 1082.83,-135.8"/>
</a>
</g>
</g>
<!-- Node19 -->
<g id="Node000019" class="node">
<title>Node19</title>
<g id="a_Node000019"><a xlink:href="IMemberCommand_8hpp.html" target="_top" xlink:title=" ">
<polygon fill="white" stroke="#666666" points="543.88,-132 425.88,-132 425.88,-112 543.88,-112 543.88,-132"/>
<text text-anchor="middle" x="484.88" y="-118.5" font-family="Helvetica,sans-Serif" font-size="10.00">IMemberCommand.hpp</text>
</a>
</g>
</g>
<!-- Node1&#45;&gt;Node19 -->
<g id="edge23_Node000001_Node000019" class="edge">
<title>Node1&#45;&gt;Node19</title>
<g id="a_edge23_Node000001_Node000019"><a xlink:title=" ">
<path fill="none" stroke="#63b8ff" d="M484.88,-167.55C484.88,-160.34 484.88,-151.66 484.88,-143.88"/>
<polygon fill="#63b8ff" stroke="#63b8ff" points="488.38,-143.92 484.88,-133.92 481.38,-143.92 488.38,-143.92"/>
</a>
</g>
</g>
<!-- Node20 -->
<g id="Node000020" class="node">
<title>Node20</title>
<g id="a_Node000020"><a xlink:href="IMessageCommand_8hpp.html" target="_top" xlink:title=" ">
<polygon fill="white" stroke="#666666" points="684.12,-132 561.62,-132 561.62,-112 684.12,-112 684.12,-132"/>
<text text-anchor="middle" x="622.88" y="-118.5" font-family="Helvetica,sans-Serif" font-size="10.00">IMessageCommand.hpp</text>
</a>
</g>
</g>
<!-- Node1&#45;&gt;Node20 -->
<g id="edge26_Node000001_Node000020" class="edge">
<title>Node1&#45;&gt;Node20</title>
<g id="a_edge26_Node000001_Node000020"><a xlink:title=" ">
<path fill="none" stroke="#63b8ff" d="M520.41,-167.55C542.18,-158.09 569.8,-146.08 590.88,-136.91"/>
<polygon fill="#63b8ff" stroke="#63b8ff" points="592.07,-140.21 599.85,-133.01 589.28,-133.79 592.07,-140.21"/>
</a>
</g>
</g>
<!-- Node21 -->
<g id="Node000021" class="node">
<title>Node21</title>
<g id="a_Node000021"><a xlink:href="IReactionCommand_8hpp.html" target="_top" xlink:title=" ">
<polygon fill="white" stroke="#666666" points="823.75,-132 702,-132 702,-112 823.75,-112 823.75,-132"/>
<text text-anchor="middle" x="762.88" y="-118.5" font-family="Helvetica,sans-Serif" font-size="10.00">IReactionCommand.hpp</text>
</a>
</g>
</g>
<!-- Node1&#45;&gt;Node21 -->
<g id="edge29_Node000001_Node000021" class="edge">
<title>Node1&#45;&gt;Node21</title>
<g id="a_edge29_Node000001_Node000021"><a xlink:title=" ">
<path fill="none" stroke="#63b8ff" d="M542.48,-170.57C591.06,-160.08 660.14,-145.17 707.95,-134.85"/>
<polygon fill="#63b8ff" stroke="#63b8ff" points="708.51,-138.32 717.54,-132.78 707.03,-131.47 708.51,-138.32"/>
</a>
</g>
</g>
<!-- Node6 -->
<g id="Node000006" class="node">
<title>Node6</title>
<g id="a_Node000006"><a xlink:title=" ">
<polygon fill="#e0e0e0" stroke="#999999" points="420,-76 371.75,-76 371.75,-56 420,-56 420,-76"/>
<text text-anchor="middle" x="395.88" y="-62.5" font-family="Helvetica,sans-Serif" font-size="10.00">cstddef</text>
</a>
</g>
</g>
<!-- Node5&#45;&gt;Node6 -->
<g id="edge5_Node000005_Node000006" class="edge">
<title>Node5&#45;&gt;Node6</title>
<g id="a_edge5_Node000005_Node000006"><a xlink:title=" ">
<path fill="none" stroke="#63b8ff" d="M343.02,-111.59C352.2,-103.85 365.43,-92.69 376.36,-83.47"/>
<polygon fill="#63b8ff" stroke="#63b8ff" points="378.31,-86.4 383.7,-77.27 373.8,-81.05 378.31,-86.4"/>
</a>
</g>
</g>
<!-- Node7 -->
<g id="Node000007" class="node">
<title>Node7</title>
<g id="a_Node000007"><a xlink:title=" ">
<polygon fill="#e0e0e0" stroke="#999999" points="491.62,-76 438.12,-76 438.12,-56 491.62,-56 491.62,-76"/>
<text text-anchor="middle" x="464.88" y="-62.5" font-family="Helvetica,sans-Serif" font-size="10.00">iostream</text>
</a>
</g>
</g>
<!-- Node5&#45;&gt;Node7 -->
<g id="edge6_Node000005_Node000007" class="edge">
<title>Node5&#45;&gt;Node7</title>
<g id="a_edge6_Node000005_Node000007"><a xlink:title=" ">
<path fill="none" stroke="#63b8ff" d="M355.04,-111.59C376.08,-103.05 407.37,-90.35 431.18,-80.68"/>
<polygon fill="#63b8ff" stroke="#63b8ff" points="432.18,-84.05 440.13,-77.05 429.54,-77.57 432.18,-84.05"/>
</a>
</g>
</g>
<!-- Node8 -->
<g id="Node000008" class="node">
<title>Node8</title>
<g id="a_Node000008"><a xlink:title=" ">
<polygon fill="#e0e0e0" stroke="#999999" points="49.75,-76 0,-76 0,-56 49.75,-56 49.75,-76"/>
<text text-anchor="middle" x="24.88" y="-62.5" font-family="Helvetica,sans-Serif" font-size="10.00">optional</text>
</a>
</g>
</g>
<!-- Node5&#45;&gt;Node8 -->
<g id="edge7_Node000005_Node000008" class="edge">
<title>Node5&#45;&gt;Node8</title>
<g id="a_edge7_Node000005_Node000008"><a xlink:title=" ">
<path fill="none" stroke="#63b8ff" d="M293.12,-113.65C289.99,-113.09 286.88,-112.53 283.88,-112 186.29,-94.87 161.09,-95.15 63.88,-76 62.89,-75.81 61.89,-75.61 60.89,-75.4"/>
<polygon fill="#63b8ff" stroke="#63b8ff" points="61.99,-72.06 51.48,-73.37 60.51,-78.9 61.99,-72.06"/>
</a>
</g>
</g>
<!-- Node9 -->
<g id="Node000009" class="node">
<title>Node9</title>
<g id="a_Node000009"><a xlink:title=" ">
<polygon fill="#e0e0e0" stroke="#999999" points="149.38,-20 88.38,-20 88.38,0 149.38,0 149.38,-20"/>
<text text-anchor="middle" x="118.88" y="-6.5" font-family="Helvetica,sans-Serif" font-size="10.00">pqxx/pqxx</text>
</a>
</g>
</g>
<!-- Node5&#45;&gt;Node9 -->
<g id="edge8_Node000005_Node000009" class="edge">
<title>Node5&#45;&gt;Node9</title>
<g id="a_edge8_Node000005_Node000009"><a xlink:title=" ">
<path fill="none" stroke="#63b8ff" d="M293.23,-113.76C226.73,-101.28 97.66,-76.95 96.88,-76 85.88,-62.7 94.37,-43.64 103.82,-29.6"/>
<polygon fill="#63b8ff" stroke="#63b8ff" points="106.57,-31.76 109.7,-21.63 100.94,-27.6 106.57,-31.76"/>
</a>
</g>
</g>
<!-- Node5&#45;&gt;Node10 -->
<g id="edge9_Node000005_Node000010" class="edge">
<title>Node5&#45;&gt;Node10</title>
<g id="a_edge9_Node000005_Node000010"><a xlink:title=" ">
<path fill="none" stroke="#63b8ff" d="M369.25,-111.51C401.23,-103.29 448.74,-90.84 498.61,-76.57"/>
<polygon fill="#63b8ff" stroke="#63b8ff" points="499.53,-79.95 508.17,-73.82 497.59,-73.22 499.53,-79.95"/>
</a>
</g>
</g>
<!-- Node11 -->
<g id="Node000011" class="node">
<title>Node11</title>
<g id="a_Node000011"><a xlink:title=" ">
<polygon fill="#e0e0e0" stroke="#999999" points="291.88,-76 233.88,-76 233.88,-56 291.88,-56 291.88,-76"/>
<text text-anchor="middle" x="262.88" y="-62.5" font-family="Helvetica,sans-Serif" font-size="10.00">typeindex</text>
</a>
</g>
</g>
<!-- Node5&#45;&gt;Node11 -->
<g id="edge10_Node000005_Node000011" class="edge">
<title>Node5&#45;&gt;Node11</title>
<g id="a_edge10_Node000005_Node000011"><a xlink:title=" ">
<path fill="none" stroke="#63b8ff" d="M319.86,-111.59C309.86,-103.77 295.41,-92.46 283.57,-83.19"/>
<polygon fill="#63b8ff" stroke="#63b8ff" points="285.98,-80.64 275.95,-77.23 281.67,-86.15 285.98,-80.64"/>
</a>
</g>
</g>
<!-- Node12 -->
<g id="Node000012" class="node">
<title>Node12</title>
<g id="a_Node000012"><a xlink:title=" ">
<polygon fill="#e0e0e0" stroke="#999999" points="353.38,-76 310.38,-76 310.38,-56 353.38,-56 353.38,-76"/>
<text text-anchor="middle" x="331.88" y="-62.5" font-family="Helvetica,sans-Serif" font-size="10.00">vector</text>
</a>
</g>
</g>
<!-- Node5&#45;&gt;Node12 -->
<g id="edge11_Node000005_Node000012" class="edge">
<title>Node5&#45;&gt;Node12</title>
<g id="a_edge11_Node000005_Node000012"><a xlink:title=" ">
<path fill="none" stroke="#63b8ff" d="M331.88,-111.59C331.88,-105.01 331.88,-95.96 331.88,-87.73"/>
<polygon fill="#63b8ff" stroke="#63b8ff" points="335.38,-87.81 331.88,-77.81 328.38,-87.81 335.38,-87.81"/>
</a>
</g>
</g>
<!-- Node13 -->
<g id="Node000013" class="node">
<title>Node13</title>
<g id="a_Node000013"><a xlink:href="RowDTOAdapter_8hpp.html" target="_top" xlink:title=" ">
<polygon fill="white" stroke="#666666" points="215.75,-76 106,-76 106,-56 215.75,-56 215.75,-76"/>
<text text-anchor="middle" x="160.88" y="-62.5" font-family="Helvetica,sans-Serif" font-size="10.00">RowDTOAdapter.hpp</text>
</a>
</g>
</g>
<!-- Node5&#45;&gt;Node13 -->
<g id="edge12_Node000005_Node000013" class="edge">
<title>Node5&#45;&gt;Node13</title>
<g id="a_edge12_Node000005_Node000013"><a xlink:title=" ">
<path fill="none" stroke="#63b8ff" d="M302.09,-111.59C274.31,-102.82 232.62,-89.66 201.74,-79.9"/>
<polygon fill="#63b8ff" stroke="#63b8ff" points="202.93,-76.61 192.34,-76.94 200.82,-83.28 202.93,-76.61"/>
</a>
</g>
</g>
<!-- Node13&#45;&gt;Node9 -->
<g id="edge13_Node000013_Node000009" class="edge">
<title>Node13&#45;&gt;Node9</title>
<g id="a_edge13_Node000013_Node000009"><a xlink:title=" ">
<path fill="none" stroke="#63b8ff" d="M153.56,-55.59C147.9,-48.32 139.89,-38.02 132.99,-29.15"/>
<polygon fill="#63b8ff" stroke="#63b8ff" points="135.94,-27.24 127.04,-21.49 130.41,-31.54 135.94,-27.24"/>
</a>
</g>
</g>
<!-- Node15 -->
<g id="Node000015" class="node">
<title>Node15</title>
<g id="a_Node000015"><a xlink:title=" ">
<polygon fill="#e0e0e0" stroke="#999999" points="808,-76 735.75,-76 735.75,-56 808,-56 808,-76"/>
<text text-anchor="middle" x="771.88" y="-62.5" font-family="Helvetica,sans-Serif" font-size="10.00">dpp/cluster.h</text>
</a>
</g>
</g>
<!-- Node14&#45;&gt;Node15 -->
<g id="edge15_Node000014_Node000015" class="edge">
<title>Node14&#45;&gt;Node15</title>
<g id="a_edge15_Node000014_Node000015"><a xlink:title=" ">
<path fill="none" stroke="#63b8ff" d="M875.93,-111.59C856.17,-103.13 826.88,-90.58 804.41,-80.94"/>
<polygon fill="#63b8ff" stroke="#63b8ff" points="805.96,-77.8 795.38,-77.08 803.2,-84.23 805.96,-77.8"/>
</a>
</g>
</g>
<!-- Node16 -->
<g id="Node000016" class="node">
<title>Node16</title>
<g id="a_Node000016"><a xlink:title=" ">
<polygon fill="#e0e0e0" stroke="#999999" points="931.88,-76 843.88,-76 843.88,-56 931.88,-56 931.88,-76"/>
<text text-anchor="middle" x="887.88" y="-62.5" font-family="Helvetica,sans-Serif" font-size="10.00">dpp/dispatcher.h</text>
</a>
</g>
</g>
<!-- Node14&#45;&gt;Node16 -->
<g id="edge16_Node000014_Node000016" class="edge">
<title>Node14&#45;&gt;Node16</title>
<g id="a_edge16_Node000014_Node000016"><a xlink:title=" ">
<path fill="none" stroke="#63b8ff" d="M896.13,-111.59C894.9,-104.93 893.2,-95.75 891.66,-87.44"/>
<polygon fill="#63b8ff" stroke="#63b8ff" points="895.13,-86.98 889.87,-77.79 888.25,-88.26 895.13,-86.98"/>
</a>
</g>
</g>
<!-- Node17&#45;&gt;Node15 -->
<g id="edge18_Node000017_Node000015" class="edge">
<title>Node17&#45;&gt;Node15</title>
<g id="a_edge18_Node000017_Node000015"><a xlink:title=" ">
<path fill="none" stroke="#63b8ff" d="M979.69,-111.53C934.8,-101.91 865.49,-87.06 819.42,-77.19"/>
<polygon fill="#63b8ff" stroke="#63b8ff" points="820.23,-73.78 809.72,-75.11 818.76,-80.63 820.23,-73.78"/>
</a>
</g>
</g>
<!-- Node17&#45;&gt;Node16 -->
<g id="edge19_Node000017_Node000016" class="edge">
<title>Node17&#45;&gt;Node16</title>
<g id="a_edge19_Node000017_Node000016"><a xlink:title=" ">
<path fill="none" stroke="#63b8ff" d="M1000.19,-111.59C978.67,-103.05 946.67,-90.35 922.33,-80.68"/>
<polygon fill="#63b8ff" stroke="#63b8ff" points="923.74,-77.48 913.16,-77.04 921.16,-83.98 923.74,-77.48"/>
</a>
</g>
</g>
<!-- Node18&#45;&gt;Node15 -->
<g id="edge21_Node000018_Node000015" class="edge">
<title>Node18&#45;&gt;Node15</title>
<g id="a_edge21_Node000018_Node000015"><a xlink:title=" ">
<path fill="none" stroke="#63b8ff" d="M1093.91,-111.75C1027.76,-102.72 924.4,-88.55 834.88,-76 829.88,-75.3 824.66,-74.56 819.46,-73.82"/>
<polygon fill="#63b8ff" stroke="#63b8ff" points="820.07,-70.38 809.68,-72.43 819.09,-77.31 820.07,-70.38"/>
</a>
</g>
</g>
<!-- Node18&#45;&gt;Node16 -->
<g id="edge22_Node000018_Node000016" class="edge">
<title>Node18&#45;&gt;Node16</title>
<g id="a_edge22_Node000018_Node000016"><a xlink:title=" ">
<path fill="none" stroke="#63b8ff" d="M1113.83,-111.53C1066.28,-102.16 993.52,-87.82 943.49,-77.96"/>
<polygon fill="#63b8ff" stroke="#63b8ff" points="944.2,-74.53 933.71,-76.03 942.85,-81.4 944.2,-74.53"/>
</a>
</g>
</g>
<!-- Node19&#45;&gt;Node15 -->
<g id="edge24_Node000019_Node000015" class="edge">
<title>Node19&#45;&gt;Node15</title>
<g id="a_edge24_Node000019_Node000015"><a xlink:title=" ">
<path fill="none" stroke="#63b8ff" d="M535.2,-111.53C588.4,-101.52 671.72,-85.84 723.99,-76.01"/>
<polygon fill="#63b8ff" stroke="#63b8ff" points="724.62,-79.45 733.8,-74.16 723.32,-72.57 724.62,-79.45"/>
</a>
</g>
</g>
<!-- Node19&#45;&gt;Node16 -->
<g id="edge25_Node000019_Node000016" class="edge">
<title>Node19&#45;&gt;Node16</title>
<g id="a_edge25_Node000019_Node000016"><a xlink:title=" ">
<path fill="none" stroke="#63b8ff" d="M544.34,-113.03C621.91,-102.64 756.64,-84.59 832.26,-74.45"/>
<polygon fill="#63b8ff" stroke="#63b8ff" points="832.48,-77.95 841.93,-73.16 831.55,-71.02 832.48,-77.95"/>
</a>
</g>
</g>
<!-- Node20&#45;&gt;Node15 -->
<g id="edge27_Node000020_Node000015" class="edge">
<title>Node20&#45;&gt;Node15</title>
<g id="a_edge27_Node000020_Node000015"><a xlink:title=" ">
<path fill="none" stroke="#63b8ff" d="M648.83,-111.59C672.72,-102.94 708.4,-90 735.2,-80.29"/>
<polygon fill="#63b8ff" stroke="#63b8ff" points="736.09,-83.69 744.3,-77 733.7,-77.11 736.09,-83.69"/>
</a>
</g>
</g>
<!-- Node20&#45;&gt;Node16 -->
<g id="edge28_Node000020_Node000016" class="edge">
<title>Node20&#45;&gt;Node16</title>
<g id="a_edge28_Node000020_Node000016"><a xlink:title=" ">
<path fill="none" stroke="#63b8ff" d="M669.34,-111.53C714.82,-102.26 784.14,-88.14 832.48,-78.29"/>
<polygon fill="#63b8ff" stroke="#63b8ff" points="833.09,-81.74 842.19,-76.31 831.69,-74.88 833.09,-81.74"/>
</a>
</g>
</g>
<!-- Node21&#45;&gt;Node15 -->
<g id="edge30_Node000021_Node000015" class="edge">
<title>Node21&#45;&gt;Node15</title>
<g id="a_edge30_Node000021_Node000015"><a xlink:title=" ">
<path fill="none" stroke="#63b8ff" d="M764.44,-111.59C765.55,-104.93 767.08,-95.75 768.47,-87.44"/>
<polygon fill="#63b8ff" stroke="#63b8ff" points="771.88,-88.23 770.08,-77.79 764.98,-87.08 771.88,-88.23"/>
</a>
</g>
</g>
<!-- Node21&#45;&gt;Node16 -->
<g id="edge31_Node000021_Node000016" class="edge">
<title>Node21&#45;&gt;Node16</title>
<g id="a_edge31_Node000021_Node000016"><a xlink:title=" ">
<path fill="none" stroke="#63b8ff" d="M784.65,-111.59C804.24,-103.13 833.3,-90.58 855.6,-80.94"/>
<polygon fill="#63b8ff" stroke="#63b8ff" points="856.75,-84.26 864.54,-77.08 853.97,-77.83 856.75,-84.26"/>
</a>
</g>
</g>
</g>
</svg>
