<?xml version="1.0" encoding="UTF-8" standalone="no"?>
<!DOCTYPE svg PUBLIC "-//W3C//DTD SVG 1.1//EN"
 "http://www.w3.org/Graphics/SVG/1.1/DTD/svg11.dtd">
<!-- Generated by graphviz version 9.0.0 (0)
 -->
<!-- Title: src/bot_library/bot/core/include/Core.hpp Pages: 1 -->
<svg width="3269pt" height="268pt"
 viewBox="0.00 0.00 3269.00 268.00" xmlns="http://www.w3.org/2000/svg" xmlns:xlink="http://www.w3.org/1999/xlink">
<g id="graph0" class="graph" transform="scale(1 1) rotate(0) translate(4 264)">
<title>src/bot_library/bot/core/include/Core.hpp</title>
<!-- Node1 -->
<g id="Node000001" class="node">
<title>Node1</title>
<g id="a_Node000001"><a xlink:title=" ">
<polygon fill="#999999" stroke="#666666" points="2775.12,-260 2660.88,-260 2660.88,-228 2775.12,-228 2775.12,-260"/>
<text text-anchor="start" x="2668.88" y="-246.5" font-family="Helvetica,sans-Serif" font-size="10.00">src/bot_library/bot</text>
<text text-anchor="middle" x="2718" y="-234.5" font-family="Helvetica,sans-Serif" font-size="10.00">/core/include/Core.hpp</text>
</a>
</g>
</g>
<!-- Node2 -->
<g id="Node000002" class="node">
<title>Node2</title>
<g id="a_Node000002"><a xlink:href="Core_8cpp.html" target="_top" xlink:title=" ">
<polygon fill="white" stroke="#666666" points="1354,-192 1260,-192 1260,-160 1354,-160 1354,-192"/>
<text text-anchor="start" x="1268" y="-178.5" font-family="Helvetica,sans-Serif" font-size="10.00">src/bot_library/bot</text>
<text text-anchor="middle" x="1307" y="-166.5" font-family="Helvetica,sans-Serif" font-size="10.00">/core/Core.cpp</text>
</a>
</g>
</g>
<!-- Node1&#45;&gt;Node2 -->
<g id="edge1_Node000001_Node000002" class="edge">
<title>Node1&#45;&gt;Node2</title>
<g id="a_edge1_Node000001_Node000002"><a xlink:title=" ">
<path fill="none" stroke="#63b8ff" d="M2649.43,-242.45C2410.45,-240.21 1615.07,-230.01 1363,-192 1360.11,-191.56 1357.16,-191.04 1354.2,-190.44"/>
<polygon fill="#63b8ff" stroke="#63b8ff" points="2649.18,-245.95 2659.21,-242.54 2649.24,-238.95 2649.18,-245.95"/>
</a>
</g>
</g>
<!-- Node3 -->
<g id="Node000003" class="node">
<title>Node3</title>
<g id="a_Node000003"><a xlink:href="Bot_8hpp.html" target="_top" xlink:title=" ">
<polygon fill="white" stroke="#666666" points="1466,-192 1372,-192 1372,-160 1466,-160 1466,-192"/>
<text text-anchor="start" x="1380" y="-178.5" font-family="Helvetica,sans-Serif" font-size="10.00">src/bot_library/bot</text>
<text text-anchor="middle" x="1419" y="-166.5" font-family="Helvetica,sans-Serif" font-size="10.00">/include/Bot.hpp</text>
</a>
</g>
</g>
<!-- Node1&#45;&gt;Node3 -->
<g id="edge2_Node000001_Node000003" class="edge">
<title>Node1&#45;&gt;Node3</title>
<g id="a_edge2_Node000001_Node000003"><a xlink:title=" ">
<path fill="none" stroke="#63b8ff" d="M2649.18,-239.5C2416.53,-227.68 1663.03,-189.4 1466.33,-179.4"/>
<polygon fill="#63b8ff" stroke="#63b8ff" points="2648.83,-242.99 2659,-240 2649.19,-236 2648.83,-242.99"/>
</a>
</g>
</g>
<!-- Node7 -->
<g id="Node000007" class="node">
<title>Node7</title>
<g id="a_Node000007"><a xlink:href="ChallengeBadgeCommand_8cpp.html" target="_top" xlink:title=" ">
<polygon fill="white" stroke="#666666" points="3261,-44 3095,-44 3095,0 3261,0 3261,-44"/>
<text text-anchor="start" x="3103" y="-30.5" font-family="Helvetica,sans-Serif" font-size="10.00">src/bot_library/commands</text>
<text text-anchor="start" x="3103" y="-18.5" font-family="Helvetica,sans-Serif" font-size="10.00">/challenge_badge/ChallengeBadge</text>
<text text-anchor="middle" x="3178" y="-6.5" font-family="Helvetica,sans-Serif" font-size="10.00">Command.cpp</text>
</a>
</g>
</g>
<!-- Node1&#45;&gt;Node7 -->
<g id="edge53_Node000001_Node000007" class="edge">
<title>Node1&#45;&gt;Node7</title>
<g id="a_edge53_Node000001_Node000007"><a xlink:title=" ">
<path fill="none" stroke="#63b8ff" d="M2786.61,-231.82C2864.17,-216.79 2991.85,-184.66 3086,-124 3118.9,-102.8 3147.61,-66.97 3163.86,-44.18"/>
<polygon fill="#63b8ff" stroke="#63b8ff" points="2786.21,-228.33 2777.03,-233.63 2787.51,-235.21 2786.21,-228.33"/>
</a>
</g>
</g>
<!-- Node11 -->
<g id="Node000011" class="node">
<title>Node11</title>
<g id="a_Node000011"><a xlink:href="ChallengeRoleCommand_8cpp.html" target="_top" xlink:title=" ">
<polygon fill="white" stroke="#666666" points="2892.88,-38 2681.12,-38 2681.12,-6 2892.88,-6 2892.88,-38"/>
<text text-anchor="start" x="2689.12" y="-24.5" font-family="Helvetica,sans-Serif" font-size="10.00">src/bot_library/commands</text>
<text text-anchor="middle" x="2787" y="-12.5" font-family="Helvetica,sans-Serif" font-size="10.00">/challenge_role/ChallengeRoleCommand.cpp</text>
</a>
</g>
</g>
<!-- Node1&#45;&gt;Node11 -->
<g id="edge54_Node000001_Node000011" class="edge">
<title>Node1&#45;&gt;Node11</title>
<g id="a_edge54_Node000001_Node000011"><a xlink:title=" ">
<path fill="none" stroke="#63b8ff" d="M2748.21,-220.19C2756.65,-212.23 2764.91,-202.6 2770,-192 2794.89,-140.16 2791.73,-69.24 2788.8,-38.38"/>
<polygon fill="#63b8ff" stroke="#63b8ff" points="2746.14,-217.35 2740.94,-226.58 2750.76,-222.61 2746.14,-217.35"/>
</a>
</g>
</g>
<!-- Node25 -->
<g id="Node000025" class="node">
<title>Node25</title>
<g id="a_Node000025"><a xlink:href="MemberCommand_8cpp.html" target="_top" xlink:title=" ">
<polygon fill="white" stroke="#666666" points="2261.12,-38 2104.88,-38 2104.88,-6 2261.12,-6 2261.12,-38"/>
<text text-anchor="start" x="2112.88" y="-24.5" font-family="Helvetica,sans-Serif" font-size="10.00">src/bot_library/commands</text>
<text text-anchor="middle" x="2183" y="-12.5" font-family="Helvetica,sans-Serif" font-size="10.00">/member/MemberCommand.cpp</text>
</a>
</g>
</g>
<!-- Node1&#45;&gt;Node25 -->
<g id="edge55_Node000001_Node000025" class="edge">
<title>Node1&#45;&gt;Node25</title>
<g id="a_edge55_Node000001_Node000025"><a xlink:title=" ">
<path fill="none" stroke="#63b8ff" d="M2712.35,-216.43C2702.94,-174.77 2682.88,-97.09 2661,-80 2592.23,-26.29 2356.08,-58.27 2270,-44 2260.8,-42.47 2251.14,-40.51 2241.73,-38.4"/>
<polygon fill="#63b8ff" stroke="#63b8ff" points="2708.93,-217.13 2714.5,-226.14 2715.76,-215.62 2708.93,-217.13"/>
</a>
</g>
</g>
<!-- Node31 -->
<g id="Node000031" class="node">
<title>Node31</title>
<g id="a_Node000031"><a xlink:href="ResourcesCommand_8cpp.html" target="_top" xlink:title=" ">
<polygon fill="white" stroke="#666666" points="2454.88,-38 2279.12,-38 2279.12,-6 2454.88,-6 2454.88,-38"/>
<text text-anchor="start" x="2287.12" y="-24.5" font-family="Helvetica,sans-Serif" font-size="10.00">src/bot_library/commands</text>
<text text-anchor="middle" x="2367" y="-12.5" font-family="Helvetica,sans-Serif" font-size="10.00">/resources/ResourcesCommand.cpp</text>
</a>
</g>
</g>
<!-- Node1&#45;&gt;Node31 -->
<g id="edge56_Node000001_Node000031" class="edge">
<title>Node1&#45;&gt;Node31</title>
<g id="a_edge56_Node000001_Node000031"><a xlink:title=" ">
<path fill="none" stroke="#63b8ff" d="M2722.66,-216.83C2727.44,-180.76 2729.82,-116.14 2694,-80 2657.59,-43.25 2514.86,-53.48 2464,-44 2454.94,-42.31 2445.43,-40.41 2436.05,-38.46"/>
<polygon fill="#63b8ff" stroke="#63b8ff" points="2719.25,-215.98 2721.23,-226.39 2726.17,-217.02 2719.25,-215.98"/>
</a>
</g>
</g>
<!-- Node37 -->
<g id="Node000037" class="node">
<title>Node37</title>
<g id="a_Node000037"><a xlink:href="SetChannelCommand_8cpp.html" target="_top" xlink:title=" ">
<polygon fill="white" stroke="#666666" points="2662.62,-38 2473.38,-38 2473.38,-6 2662.62,-6 2662.62,-38"/>
<text text-anchor="start" x="2481.38" y="-24.5" font-family="Helvetica,sans-Serif" font-size="10.00">src/bot_library/commands</text>
<text text-anchor="middle" x="2568" y="-12.5" font-family="Helvetica,sans-Serif" font-size="10.00">/set_channel/SetChannelCommand.cpp</text>
</a>
</g>
</g>
<!-- Node1&#45;&gt;Node37 -->
<g id="edge57_Node000001_Node000037" class="edge">
<title>Node1&#45;&gt;Node37</title>
<g id="a_edge57_Node000001_Node000037"><a xlink:title=" ">
<path fill="none" stroke="#63b8ff" d="M2729.53,-217.64C2743.32,-183.11 2761.11,-120.94 2732,-80 2720.34,-63.6 2676.24,-48.81 2636.71,-38.4"/>
<polygon fill="#63b8ff" stroke="#63b8ff" points="2726.49,-215.84 2725.85,-226.42 2732.95,-218.55 2726.49,-215.84"/>
</a>
</g>
</g>
<!-- Node4 -->
<g id="Node000004" class="node">
<title>Node4</title>
<g id="a_Node000004"><a xlink:href="BotLibrary_8cpp.html" target="_top" xlink:title=" ">
<polygon fill="white" stroke="#666666" points="326.38,-32 183.62,-32 183.62,-12 326.38,-12 326.38,-32"/>
<text text-anchor="middle" x="255" y="-18.5" font-family="Helvetica,sans-Serif" font-size="10.00">src/bot_library/BotLibrary.cpp</text>
</a>
</g>
</g>
<!-- Node3&#45;&gt;Node4 -->
<g id="edge3_Node000003_Node000004" class="edge">
<title>Node3&#45;&gt;Node4</title>
<g id="a_edge3_Node000003_Node000004"><a xlink:title=" ">
<path fill="none" stroke="#63b8ff" d="M1360.59,-160.49C1226.3,-151.89 244.38,-168.74 201,-124 173.87,-96.02 219.94,-51.68 243.02,-32.43"/>
<polygon fill="#63b8ff" stroke="#63b8ff" points="1360.02,-163.95 1370.3,-161.4 1360.67,-156.98 1360.02,-163.95"/>
</a>
</g>
</g>
<!-- Node5 -->
<g id="Node000005" class="node">
<title>Node5</title>
<g id="a_Node000005"><a xlink:href="Bot_8cpp.html" target="_top" xlink:title=" ">
<polygon fill="white" stroke="#666666" points="1401,-118 1307,-118 1307,-86 1401,-86 1401,-118"/>
<text text-anchor="start" x="1315" y="-104.5" font-family="Helvetica,sans-Serif" font-size="10.00">src/bot_library/bot</text>
<text text-anchor="middle" x="1354" y="-92.5" font-family="Helvetica,sans-Serif" font-size="10.00">/Bot.cpp</text>
</a>
</g>
</g>
<!-- Node3&#45;&gt;Node5 -->
<g id="edge4_Node000003_Node000005" class="edge">
<title>Node3&#45;&gt;Node5</title>
<g id="a_edge4_Node000003_Node000005"><a xlink:title=" ">
<path fill="none" stroke="#63b8ff" d="M1397.73,-151.44C1387.88,-140.53 1376.46,-127.88 1367.76,-118.25"/>
<polygon fill="#63b8ff" stroke="#63b8ff" points="1394.9,-153.53 1404.2,-158.61 1400.1,-148.84 1394.9,-153.53"/>
</a>
</g>
</g>
<!-- Node6 -->
<g id="Node000006" class="node">
<title>Node6</title>
<g id="a_Node000006"><a xlink:href="ChallengeBadgeCommand_8hpp.html" target="_top" xlink:title=" ">
<polygon fill="white" stroke="#666666" points="3077,-124 2911,-124 2911,-80 3077,-80 3077,-124"/>
<text text-anchor="start" x="2919" y="-110.5" font-family="Helvetica,sans-Serif" font-size="10.00">src/bot_library/commands</text>
<text text-anchor="start" x="2919" y="-98.5" font-family="Helvetica,sans-Serif" font-size="10.00">/challenge_badge/ChallengeBadge</text>
<text text-anchor="middle" x="2994" y="-86.5" font-family="Helvetica,sans-Serif" font-size="10.00">Command.hpp</text>
</a>
</g>
</g>
<!-- Node3&#45;&gt;Node6 -->
<g id="edge5_Node000003_Node000006" class="edge">
<title>Node3&#45;&gt;Node6</title>
<g id="a_edge5_Node000003_Node000006"><a xlink:title=" ">
<path fill="none" stroke="#63b8ff" d="M1477.84,-173.04C1656.07,-167.01 2205.72,-147.7 2661,-124 2746.04,-119.57 2843.21,-113.31 2910.55,-108.77"/>
<polygon fill="#63b8ff" stroke="#63b8ff" points="1477.78,-169.54 1467.91,-173.38 1478.02,-176.54 1477.78,-169.54"/>
</a>
</g>
</g>
<!-- Node9 -->
<g id="Node000009" class="node">
<title>Node9</title>
<g id="a_Node000009"><a xlink:href="ChallengeRoleCommand_8hpp.html" target="_top" xlink:title=" ">
<polygon fill="white" stroke="#666666" points="2651.88,-118 2440.12,-118 2440.12,-86 2651.88,-86 2651.88,-118"/>
<text text-anchor="start" x="2448.12" y="-104.5" font-family="Helvetica,sans-Serif" font-size="10.00">src/bot_library/commands</text>
<text text-anchor="middle" x="2546" y="-92.5" font-family="Helvetica,sans-Serif" font-size="10.00">/challenge_role/ChallengeRoleCommand.hpp</text>
</a>
</g>
</g>
<!-- Node3&#45;&gt;Node9 -->
<g id="edge8_Node000003_Node000009" class="edge">
<title>Node3&#45;&gt;Node9</title>
<g id="a_edge8_Node000003_Node000009"><a xlink:title=" ">
<path fill="none" stroke="#63b8ff" d="M1477.5,-174.71C1633.15,-173.37 2070.22,-165.85 2431,-124 2443.4,-122.56 2456.48,-120.6 2469.19,-118.46"/>
<polygon fill="#63b8ff" stroke="#63b8ff" points="1477.83,-171.21 1467.86,-174.79 1477.89,-178.21 1477.83,-171.21"/>
</a>
</g>
</g>
<!-- Node13 -->
<g id="Node000013" class="node">
<title>Node13</title>
<g id="a_Node000013"><a xlink:href="CleanUp_8hpp.html" target="_top" xlink:title=" ">
<polygon fill="white" stroke="#666666" points="1289.25,-118 1160.75,-118 1160.75,-86 1289.25,-86 1289.25,-118"/>
<text text-anchor="start" x="1168.75" y="-104.5" font-family="Helvetica,sans-Serif" font-size="10.00">src/bot_library/commands</text>
<text text-anchor="middle" x="1225" y="-92.5" font-family="Helvetica,sans-Serif" font-size="10.00">/clean_up/CleanUp.hpp</text>
</a>
</g>
</g>
<!-- Node3&#45;&gt;Node13 -->
<g id="edge12_Node000003_Node000013" class="edge">
<title>Node3&#45;&gt;Node13</title>
<g id="a_edge12_Node000003_Node000013"><a xlink:title=" ">
<path fill="none" stroke="#63b8ff" d="M1366.63,-155.56C1335.22,-143.91 1295.81,-129.28 1266.55,-118.42"/>
<polygon fill="#63b8ff" stroke="#63b8ff" points="1365.37,-158.83 1375.96,-159.03 1367.81,-152.27 1365.37,-158.83"/>
</a>
</g>
</g>
<!-- Node15 -->
<g id="Node000015" class="node">
<title>Node15</title>
<g id="a_Node000015"><a xlink:href="FlipCommand_8hpp.html" target="_top" xlink:title=" ">
<polygon fill="white" stroke="#666666" points="1547.25,-118 1418.75,-118 1418.75,-86 1547.25,-86 1547.25,-118"/>
<text text-anchor="start" x="1426.75" y="-104.5" font-family="Helvetica,sans-Serif" font-size="10.00">src/bot_library/commands</text>
<text text-anchor="middle" x="1483" y="-92.5" font-family="Helvetica,sans-Serif" font-size="10.00">/flip/FlipCommand.hpp</text>
</a>
</g>
</g>
<!-- Node3&#45;&gt;Node15 -->
<g id="edge15_Node000003_Node000015" class="edge">
<title>Node3&#45;&gt;Node15</title>
<g id="a_edge15_Node000003_Node000015"><a xlink:title=" ">
<path fill="none" stroke="#63b8ff" d="M1439.94,-151.44C1449.64,-140.53 1460.88,-127.88 1469.45,-118.25"/>
<polygon fill="#63b8ff" stroke="#63b8ff" points="1437.61,-148.8 1433.58,-158.6 1442.84,-153.45 1437.61,-148.8"/>
</a>
</g>
</g>
<!-- Node17 -->
<g id="Node000017" class="node">
<title>Node17</title>
<g id="a_Node000017"><a xlink:href="HelpCommand_8hpp.html" target="_top" xlink:title=" ">
<polygon fill="white" stroke="#666666" points="1694.25,-118 1565.75,-118 1565.75,-86 1694.25,-86 1694.25,-118"/>
<text text-anchor="start" x="1573.75" y="-104.5" font-family="Helvetica,sans-Serif" font-size="10.00">src/bot_library/commands</text>
<text text-anchor="middle" x="1630" y="-92.5" font-family="Helvetica,sans-Serif" font-size="10.00">/help/HelpCommand.hpp</text>
</a>
</g>
</g>
<!-- Node3&#45;&gt;Node17 -->
<g id="edge18_Node000003_Node000017" class="edge">
<title>Node3&#45;&gt;Node17</title>
<g id="a_edge18_Node000003_Node000017"><a xlink:title=" ">
<path fill="none" stroke="#63b8ff" d="M1475.06,-155.87C1509.38,-144.16 1552.7,-129.38 1584.81,-118.42"/>
<polygon fill="#63b8ff" stroke="#63b8ff" points="1474.03,-152.52 1465.7,-159.07 1476.29,-159.15 1474.03,-152.52"/>
</a>
</g>
</g>
<!-- Node19 -->
<g id="Node000019" class="node">
<title>Node19</title>
<g id="a_Node000019"><a xlink:href="Commands_8hpp.html" target="_top" xlink:title=" ">
<polygon fill="white" stroke="#666666" points="338.25,-118 209.75,-118 209.75,-86 338.25,-86 338.25,-118"/>
<text text-anchor="start" x="217.75" y="-104.5" font-family="Helvetica,sans-Serif" font-size="10.00">src/bot_library/commands</text>
<text text-anchor="middle" x="274" y="-92.5" font-family="Helvetica,sans-Serif" font-size="10.00">/include/Commands.hpp</text>
</a>
</g>
</g>
<!-- Node3&#45;&gt;Node19 -->
<g id="edge21_Node000003_Node000019" class="edge">
<title>Node3&#45;&gt;Node19</title>
<g id="a_edge21_Node000003_Node000019"><a xlink:title=" ">
<path fill="none" stroke="#63b8ff" d="M1360.52,-159.88C914.08,-94.8 789.52,-194.4 347,-124 338.66,-122.67 329.93,-120.7 321.53,-118.48"/>
<polygon fill="#63b8ff" stroke="#63b8ff" points="1359.9,-163.33 1370.3,-161.33 1360.93,-156.41 1359.9,-163.33"/>
</a>
</g>
</g>
<!-- Node20 -->
<g id="Node000020" class="node">
<title>Node20</title>
<g id="a_Node000020"><a xlink:href="InitDatabase_8hpp.html" target="_top" xlink:title=" ">
<polygon fill="white" stroke="#666666" points="154,-118 0,-118 0,-86 154,-86 154,-118"/>
<text text-anchor="start" x="8" y="-104.5" font-family="Helvetica,sans-Serif" font-size="10.00">src/bot_library/commands</text>
<text text-anchor="middle" x="77" y="-92.5" font-family="Helvetica,sans-Serif" font-size="10.00">/init_database/InitDatabase.hpp</text>
</a>
</g>
</g>
<!-- Node3&#45;&gt;Node20 -->
<g id="edge24_Node000003_Node000020" class="edge">
<title>Node3&#45;&gt;Node20</title>
<g id="a_edge24_Node000003_Node000020"><a xlink:title=" ">
<path fill="none" stroke="#63b8ff" d="M1360.51,-159.89C835.26,-84.28 691.24,-191.59 168,-124 157.71,-122.67 146.88,-120.69 136.41,-118.48"/>
<polygon fill="#63b8ff" stroke="#63b8ff" points="1359.91,-163.34 1370.31,-161.32 1360.92,-156.41 1359.91,-163.34"/>
</a>
</g>
</g>
<!-- Node22 -->
<g id="Node000022" class="node">
<title>Node22</title>
<g id="a_Node000022"><a xlink:href="InviteCommand_8hpp.html" target="_top" xlink:title=" ">
<polygon fill="white" stroke="#666666" points="1845.5,-118 1712.5,-118 1712.5,-86 1845.5,-86 1845.5,-118"/>
<text text-anchor="start" x="1720.5" y="-104.5" font-family="Helvetica,sans-Serif" font-size="10.00">src/bot_library/commands</text>
<text text-anchor="middle" x="1779" y="-92.5" font-family="Helvetica,sans-Serif" font-size="10.00">/invite/InviteCommand.hpp</text>
</a>
</g>
</g>
<!-- Node3&#45;&gt;Node22 -->
<g id="edge26_Node000003_Node000022" class="edge">
<title>Node3&#45;&gt;Node22</title>
<g id="a_edge26_Node000003_Node000022"><a xlink:title=" ">
<path fill="none" stroke="#63b8ff" d="M1477.33,-166.13C1534.96,-157 1625.49,-141.63 1703,-124 1710.34,-122.33 1718.04,-120.41 1725.59,-118.42"/>
<polygon fill="#63b8ff" stroke="#63b8ff" points="1477.08,-162.63 1467.75,-167.64 1478.17,-169.54 1477.08,-162.63"/>
</a>
</g>
</g>
<!-- Node24 -->
<g id="Node000024" class="node">
<title>Node24</title>
<g id="a_Node000024"><a xlink:href="MemberCommand_8hpp.html" target="_top" xlink:title=" ">
<polygon fill="white" stroke="#666666" points="2020.12,-118 1863.88,-118 1863.88,-86 2020.12,-86 2020.12,-118"/>
<text text-anchor="start" x="1871.88" y="-104.5" font-family="Helvetica,sans-Serif" font-size="10.00">src/bot_library/commands</text>
<text text-anchor="middle" x="1942" y="-92.5" font-family="Helvetica,sans-Serif" font-size="10.00">/member/MemberCommand.hpp</text>
</a>
</g>
</g>
<!-- Node3&#45;&gt;Node24 -->
<g id="edge29_Node000003_Node000024" class="edge">
<title>Node3&#45;&gt;Node24</title>
<g id="a_edge29_Node000003_Node000024"><a xlink:title=" ">
<path fill="none" stroke="#63b8ff" d="M1477.72,-170.39C1561.76,-163.29 1721.01,-147.92 1855,-124 1863.87,-122.42 1873.19,-120.47 1882.3,-118.41"/>
<polygon fill="#63b8ff" stroke="#63b8ff" points="1477.55,-166.89 1467.88,-171.21 1478.14,-173.87 1477.55,-166.89"/>
</a>
</g>
</g>
<!-- Node26 -->
<g id="Node000026" class="node">
<title>Node26</title>
<g id="a_Node000026"><a xlink:href="PongCommand_8hpp.html" target="_top" xlink:title=" ">
<polygon fill="white" stroke="#666666" points="485.62,-118 356.38,-118 356.38,-86 485.62,-86 485.62,-118"/>
<text text-anchor="start" x="364.38" y="-104.5" font-family="Helvetica,sans-Serif" font-size="10.00">src/bot_library/commands</text>
<text text-anchor="middle" x="421" y="-92.5" font-family="Helvetica,sans-Serif" font-size="10.00">/pong/PongCommand.hpp</text>
</a>
</g>
</g>
<!-- Node3&#45;&gt;Node26 -->
<g id="edge32_Node000003_Node000026" class="edge">
<title>Node3&#45;&gt;Node26</title>
<g id="a_edge32_Node000003_Node000026"><a xlink:title=" ">
<path fill="none" stroke="#63b8ff" d="M1360.44,-159.86C979.24,-103.31 872.52,-184.53 495,-124 486.56,-122.65 477.72,-120.66 469.2,-118.44"/>
<polygon fill="#63b8ff" stroke="#63b8ff" points="1359.89,-163.32 1370.3,-161.35 1360.94,-156.4 1359.89,-163.32"/>
</a>
</g>
</g>
<!-- Node28 -->
<g id="Node000028" class="node">
<title>Node28</title>
<g id="a_Node000028"><a xlink:href="ReactionRoles_8hpp.html" target="_top" xlink:title=" ">
<polygon fill="white" stroke="#666666" points="670,-118 504,-118 504,-86 670,-86 670,-118"/>
<text text-anchor="start" x="512" y="-104.5" font-family="Helvetica,sans-Serif" font-size="10.00">src/bot_library/commands</text>
<text text-anchor="middle" x="587" y="-92.5" font-family="Helvetica,sans-Serif" font-size="10.00">/reaction_roles/ReactionRoles.hpp</text>
</a>
</g>
</g>
<!-- Node3&#45;&gt;Node28 -->
<g id="edge35_Node000003_Node000028" class="edge">
<title>Node3&#45;&gt;Node28</title>
<g id="a_edge35_Node000003_Node000028"><a xlink:title=" ">
<path fill="none" stroke="#63b8ff" d="M1360.56,-159.85C1060.3,-113.65 976.83,-165.51 679,-124 668.94,-122.6 658.36,-120.64 648.09,-118.49"/>
<polygon fill="#63b8ff" stroke="#63b8ff" points="1359.88,-163.29 1370.3,-161.38 1360.96,-156.37 1359.88,-163.29"/>
</a>
</g>
</g>
<!-- Node30 -->
<g id="Node000030" class="node">
<title>Node30</title>
<g id="a_Node000030"><a xlink:href="ResourcesCommand_8hpp.html" target="_top" xlink:title=" ">
<polygon fill="white" stroke="#666666" points="2213.88,-118 2038.12,-118 2038.12,-86 2213.88,-86 2213.88,-118"/>
<text text-anchor="start" x="2046.12" y="-104.5" font-family="Helvetica,sans-Serif" font-size="10.00">src/bot_library/commands</text>
<text text-anchor="middle" x="2126" y="-92.5" font-family="Helvetica,sans-Serif" font-size="10.00">/resources/ResourcesCommand.hpp</text>
</a>
</g>
</g>
<!-- Node3&#45;&gt;Node30 -->
<g id="edge38_Node000003_Node000030" class="edge">
<title>Node3&#45;&gt;Node30</title>
<g id="a_edge38_Node000003_Node000030"><a xlink:title=" ">
<path fill="none" stroke="#63b8ff" d="M1477.7,-172.63C1586.79,-167.66 1827.95,-154.04 2029,-124 2039.05,-122.5 2049.63,-120.57 2059.94,-118.5"/>
<polygon fill="#63b8ff" stroke="#63b8ff" points="1477.66,-169.13 1467.82,-173.07 1477.97,-176.12 1477.66,-169.13"/>
</a>
</g>
</g>
<!-- Node32 -->
<g id="Node000032" class="node">
<title>Node32</title>
<g id="a_Node000032"><a xlink:href="RollCommand_8hpp.html" target="_top" xlink:title=" ">
<polygon fill="white" stroke="#666666" points="816.25,-118 687.75,-118 687.75,-86 816.25,-86 816.25,-118"/>
<text text-anchor="start" x="695.75" y="-104.5" font-family="Helvetica,sans-Serif" font-size="10.00">src/bot_library/commands</text>
<text text-anchor="middle" x="752" y="-92.5" font-family="Helvetica,sans-Serif" font-size="10.00">/roll/RollCommand.hpp</text>
</a>
</g>
</g>
<!-- Node3&#45;&gt;Node32 -->
<g id="edge41_Node000003_Node000032" class="edge">
<title>Node3&#45;&gt;Node32</title>
<g id="a_edge41_Node000003_Node000032"><a xlink:title=" ">
<path fill="none" stroke="#63b8ff" d="M1360.44,-159.81C1124.94,-122.22 1058,-164.24 826,-124 817.84,-122.59 809.3,-120.62 801.03,-118.46"/>
<polygon fill="#63b8ff" stroke="#63b8ff" points="1359.86,-163.26 1370.29,-161.42 1360.99,-156.35 1359.86,-163.26"/>
</a>
</g>
</g>
<!-- Node34 -->
<g id="Node000034" class="node">
<title>Node34</title>
<g id="a_Node000034"><a xlink:href="ServerDetails_8hpp.html" target="_top" xlink:title=" ">
<polygon fill="white" stroke="#666666" points="995.38,-118 834.62,-118 834.62,-86 995.38,-86 995.38,-118"/>
<text text-anchor="start" x="842.62" y="-104.5" font-family="Helvetica,sans-Serif" font-size="10.00">src/bot_library/commands</text>
<text text-anchor="middle" x="915" y="-92.5" font-family="Helvetica,sans-Serif" font-size="10.00">/server_details/ServerDetails.hpp</text>
</a>
</g>
</g>
<!-- Node3&#45;&gt;Node34 -->
<g id="edge44_Node000003_Node000034" class="edge">
<title>Node3&#45;&gt;Node34</title>
<g id="a_edge44_Node000003_Node000034"><a xlink:title=" ">
<path fill="none" stroke="#63b8ff" d="M1360.73,-159.78C1203.26,-132.01 1158.6,-149.88 1004,-124 994.76,-122.45 985.05,-120.5 975.59,-118.42"/>
<polygon fill="#63b8ff" stroke="#63b8ff" points="1359.81,-163.18 1370.28,-161.5 1361.06,-156.29 1359.81,-163.18"/>
</a>
</g>
</g>
<!-- Node36 -->
<g id="Node000036" class="node">
<title>Node36</title>
<g id="a_Node000036"><a xlink:href="SetChannelCommand_8hpp.html" target="_top" xlink:title=" ">
<polygon fill="white" stroke="#666666" points="2421.62,-118 2232.38,-118 2232.38,-86 2421.62,-86 2421.62,-118"/>
<text text-anchor="start" x="2240.38" y="-104.5" font-family="Helvetica,sans-Serif" font-size="10.00">src/bot_library/commands</text>
<text text-anchor="middle" x="2327" y="-92.5" font-family="Helvetica,sans-Serif" font-size="10.00">/set_channel/SetChannelCommand.hpp</text>
</a>
</g>
</g>
<!-- Node3&#45;&gt;Node36 -->
<g id="edge47_Node000003_Node000036" class="edge">
<title>Node3&#45;&gt;Node36</title>
<g id="a_edge47_Node000003_Node000036"><a xlink:title=" ">
<path fill="none" stroke="#63b8ff" d="M1477.85,-174C1611.07,-171.15 1945.73,-160.62 2223,-124 2234.05,-122.54 2245.68,-120.6 2257.01,-118.48"/>
<polygon fill="#63b8ff" stroke="#63b8ff" points="1477.78,-170.5 1467.85,-174.21 1477.92,-177.5 1477.78,-170.5"/>
</a>
</g>
</g>
<!-- Node38 -->
<g id="Node000038" class="node">
<title>Node38</title>
<g id="a_Node000038"><a xlink:href="SetStatus_8hpp.html" target="_top" xlink:title=" ">
<polygon fill="white" stroke="#666666" points="1143,-118 1013,-118 1013,-86 1143,-86 1143,-118"/>
<text text-anchor="start" x="1021" y="-104.5" font-family="Helvetica,sans-Serif" font-size="10.00">src/bot_library/commands</text>
<text text-anchor="middle" x="1078" y="-92.5" font-family="Helvetica,sans-Serif" font-size="10.00">/set_status/SetStatus.hpp</text>
</a>
</g>
</g>
<!-- Node3&#45;&gt;Node38 -->
<g id="edge50_Node000003_Node000038" class="edge">
<title>Node3&#45;&gt;Node38</title>
<g id="a_edge50_Node000003_Node000038"><a xlink:title=" ">
<path fill="none" stroke="#63b8ff" d="M1360.71,-159.63C1268.1,-140.03 1241.34,-144.24 1152,-124 1144.71,-122.35 1137.06,-120.41 1129.57,-118.4"/>
<polygon fill="#63b8ff" stroke="#63b8ff" points="1359.73,-163 1370.24,-161.69 1361.2,-156.16 1359.73,-163"/>
</a>
</g>
</g>
<!-- Node6&#45;&gt;Node7 -->
<g id="edge6_Node000006_Node000007" class="edge">
<title>Node6&#45;&gt;Node7</title>
<g id="a_edge6_Node000006_Node000007"><a xlink:title=" ">
<path fill="none" stroke="#63b8ff" d="M3054.85,-75.2C3078.39,-65.23 3105.01,-53.94 3127.46,-44.42"/>
<polygon fill="#63b8ff" stroke="#63b8ff" points="3053.51,-71.97 3045.67,-79.1 3056.25,-78.41 3053.51,-71.97"/>
</a>
</g>
</g>
<!-- Node8 -->
<g id="Node000008" class="node">
<title>Node8</title>
<g id="a_Node000008"><a xlink:href="ChallengeBadgeDTO_8cpp.html" target="_top" xlink:title=" ">
<polygon fill="white" stroke="#666666" points="3077,-44 2911,-44 2911,0 3077,0 3077,-44"/>
<text text-anchor="start" x="2919" y="-30.5" font-family="Helvetica,sans-Serif" font-size="10.00">src/bot_library/commands</text>
<text text-anchor="start" x="2919" y="-18.5" font-family="Helvetica,sans-Serif" font-size="10.00">/challenge_badge/ChallengeBadge</text>
<text text-anchor="middle" x="2994" y="-6.5" font-family="Helvetica,sans-Serif" font-size="10.00">DTO.cpp</text>
</a>
</g>
</g>
<!-- Node6&#45;&gt;Node8 -->
<g id="edge7_Node000006_Node000008" class="edge">
<title>Node6&#45;&gt;Node8</title>
<g id="a_edge7_Node000006_Node000008"><a xlink:title=" ">
<path fill="none" stroke="#63b8ff" d="M2994,-68.25C2994,-60.15 2994,-51.68 2994,-44.29"/>
<polygon fill="#63b8ff" stroke="#63b8ff" points="2990.5,-68.17 2994,-78.17 2997.5,-68.17 2990.5,-68.17"/>
</a>
</g>
</g>
<!-- Node10 -->
<g id="Node000010" class="node">
<title>Node10</title>
<g id="a_Node000010"><a xlink:href="Commands_8cpp.html" target="_top" xlink:title=" ">
<polygon fill="white" stroke="#666666" points="1436.25,-38 1307.75,-38 1307.75,-6 1436.25,-6 1436.25,-38"/>
<text text-anchor="start" x="1315.75" y="-24.5" font-family="Helvetica,sans-Serif" font-size="10.00">src/bot_library/commands</text>
<text text-anchor="middle" x="1372" y="-12.5" font-family="Helvetica,sans-Serif" font-size="10.00">/Commands.cpp</text>
</a>
</g>
</g>
<!-- Node9&#45;&gt;Node10 -->
<g id="edge9_Node000009_Node000010" class="edge">
<title>Node9&#45;&gt;Node10</title>
<g id="a_edge9_Node000009_Node000010"><a xlink:title=" ">
<path fill="none" stroke="#63b8ff" d="M2458.78,-83.72C2449.43,-82.27 2440.04,-80.99 2431,-80 1995.51,-32.53 1878.71,-112.29 1446,-44 1437.56,-42.67 1428.71,-40.69 1420.19,-38.47"/>
<polygon fill="#63b8ff" stroke="#63b8ff" points="2458.21,-87.17 2468.65,-85.31 2459.33,-80.26 2458.21,-87.17"/>
</a>
</g>
</g>
<!-- Node9&#45;&gt;Node11 -->
<g id="edge10_Node000009_Node000011" class="edge">
<title>Node9&#45;&gt;Node11</title>
<g id="a_edge10_Node000009_Node000011"><a xlink:title=" ">
<path fill="none" stroke="#63b8ff" d="M2604.38,-82.11C2645.81,-68.7 2700.73,-50.92 2739.49,-38.38"/>
<polygon fill="#63b8ff" stroke="#63b8ff" points="2603.49,-78.71 2595.05,-85.12 2605.65,-85.37 2603.49,-78.71"/>
</a>
</g>
</g>
<!-- Node12 -->
<g id="Node000012" class="node">
<title>Node12</title>
<g id="a_Node000012"><a xlink:href="ChallengeRoleDTO_8cpp.html" target="_top" xlink:title=" ">
<polygon fill="white" stroke="#666666" points="2086.88,-38 1899.12,-38 1899.12,-6 2086.88,-6 2086.88,-38"/>
<text text-anchor="start" x="1907.12" y="-24.5" font-family="Helvetica,sans-Serif" font-size="10.00">src/bot_library/commands</text>
<text text-anchor="middle" x="1993" y="-12.5" font-family="Helvetica,sans-Serif" font-size="10.00">/challenge_role/ChallengeRoleDTO.cpp</text>
</a>
</g>
</g>
<!-- Node9&#45;&gt;Node12 -->
<g id="edge11_Node000009_Node000012" class="edge">
<title>Node9&#45;&gt;Node12</title>
<g id="a_edge11_Node000009_Node000012"><a xlink:title=" ">
<path fill="none" stroke="#63b8ff" d="M2454.28,-83.63C2446.42,-82.33 2438.58,-81.1 2431,-80 2282.8,-58.54 2243.97,-66.98 2096,-44 2085.81,-42.42 2075.1,-40.51 2064.6,-38.5"/>
<polygon fill="#63b8ff" stroke="#63b8ff" points="2453.45,-87.04 2463.89,-85.25 2454.62,-80.13 2453.45,-87.04"/>
</a>
</g>
</g>
<!-- Node13&#45;&gt;Node10 -->
<g id="edge13_Node000013_Node000010" class="edge">
<title>Node13&#45;&gt;Node10</title>
<g id="a_edge13_Node000013_Node000010"><a xlink:title=" ">
<path fill="none" stroke="#63b8ff" d="M1264.21,-80.2C1288.99,-67.04 1320.48,-50.33 1343.02,-38.38"/>
<polygon fill="#63b8ff" stroke="#63b8ff" points="1262.57,-77.1 1255.38,-84.88 1265.85,-83.28 1262.57,-77.1"/>
</a>
</g>
</g>
<!-- Node14 -->
<g id="Node000014" class="node">
<title>Node14</title>
<g id="a_Node000014"><a xlink:href="CleanUp_8cpp.html" target="_top" xlink:title=" ">
<polygon fill="white" stroke="#666666" points="1289.25,-38 1160.75,-38 1160.75,-6 1289.25,-6 1289.25,-38"/>
<text text-anchor="start" x="1168.75" y="-24.5" font-family="Helvetica,sans-Serif" font-size="10.00">src/bot_library/commands</text>
<text text-anchor="middle" x="1225" y="-12.5" font-family="Helvetica,sans-Serif" font-size="10.00">/clean_up/CleanUp.cpp</text>
</a>
</g>
</g>
<!-- Node13&#45;&gt;Node14 -->
<g id="edge14_Node000013_Node000014" class="edge">
<title>Node13&#45;&gt;Node14</title>
<g id="a_edge14_Node000013_Node000014"><a xlink:title=" ">
<path fill="none" stroke="#63b8ff" d="M1225,-74.37C1225,-62.37 1225,-48.63 1225,-38.38"/>
<polygon fill="#63b8ff" stroke="#63b8ff" points="1221.5,-74.08 1225,-84.08 1228.5,-74.08 1221.5,-74.08"/>
</a>
</g>
</g>
<!-- Node15&#45;&gt;Node10 -->
<g id="edge16_Node000015_Node000010" class="edge">
<title>Node15&#45;&gt;Node10</title>
<g id="a_edge16_Node000015_Node000010"><a xlink:title=" ">
<path fill="none" stroke="#63b8ff" d="M1451.88,-79.13C1433.41,-66.15 1410.44,-50.01 1393.88,-38.38"/>
<polygon fill="#63b8ff" stroke="#63b8ff" points="1449.64,-81.83 1459.83,-84.72 1453.66,-76.11 1449.64,-81.83"/>
</a>
</g>
</g>
<!-- Node16 -->
<g id="Node000016" class="node">
<title>Node16</title>
<g id="a_Node000016"><a xlink:href="FlipCommand_8cpp.html" target="_top" xlink:title=" ">
<polygon fill="white" stroke="#666666" points="1583.25,-38 1454.75,-38 1454.75,-6 1583.25,-6 1583.25,-38"/>
<text text-anchor="start" x="1462.75" y="-24.5" font-family="Helvetica,sans-Serif" font-size="10.00">src/bot_library/commands</text>
<text text-anchor="middle" x="1519" y="-12.5" font-family="Helvetica,sans-Serif" font-size="10.00">/flip/FlipCommand.cpp</text>
</a>
</g>
</g>
<!-- Node15&#45;&gt;Node16 -->
<g id="edge17_Node000015_Node000016" class="edge">
<title>Node15&#45;&gt;Node16</title>
<g id="a_edge17_Node000015_Node000016"><a xlink:title=" ">
<path fill="none" stroke="#63b8ff" d="M1494.78,-75.49C1500.43,-63.23 1507.02,-48.95 1511.9,-38.38"/>
<polygon fill="#63b8ff" stroke="#63b8ff" points="1491.76,-73.67 1490.75,-84.22 1498.12,-76.6 1491.76,-73.67"/>
</a>
</g>
</g>
<!-- Node17&#45;&gt;Node10 -->
<g id="edge19_Node000017_Node000010" class="edge">
<title>Node17&#45;&gt;Node10</title>
<g id="a_edge19_Node000017_Node000010"><a xlink:title=" ">
<path fill="none" stroke="#63b8ff" d="M1568.07,-82.28C1523.65,-68.85 1464.53,-50.98 1422.87,-38.38"/>
<polygon fill="#63b8ff" stroke="#63b8ff" points="1566.99,-85.61 1577.58,-85.15 1569.02,-78.91 1566.99,-85.61"/>
</a>
</g>
</g>
<!-- Node18 -->
<g id="Node000018" class="node">
<title>Node18</title>
<g id="a_Node000018"><a xlink:href="HelpCommand_8cpp.html" target="_top" xlink:title=" ">
<polygon fill="white" stroke="#666666" points="1730.25,-38 1601.75,-38 1601.75,-6 1730.25,-6 1730.25,-38"/>
<text text-anchor="start" x="1609.75" y="-24.5" font-family="Helvetica,sans-Serif" font-size="10.00">src/bot_library/commands</text>
<text text-anchor="middle" x="1666" y="-12.5" font-family="Helvetica,sans-Serif" font-size="10.00">/help/HelpCommand.cpp</text>
</a>
</g>
</g>
<!-- Node17&#45;&gt;Node18 -->
<g id="edge20_Node000017_Node000018" class="edge">
<title>Node17&#45;&gt;Node18</title>
<g id="a_edge20_Node000017_Node000018"><a xlink:title=" ">
<path fill="none" stroke="#63b8ff" d="M1641.78,-75.49C1647.43,-63.23 1654.02,-48.95 1658.9,-38.38"/>
<polygon fill="#63b8ff" stroke="#63b8ff" points="1638.76,-73.67 1637.75,-84.22 1645.12,-76.6 1638.76,-73.67"/>
</a>
</g>
</g>
<!-- Node19&#45;&gt;Node4 -->
<g id="edge22_Node000019_Node000004" class="edge">
<title>Node19&#45;&gt;Node4</title>
<g id="a_edge22_Node000019_Node000004"><a xlink:title=" ">
<path fill="none" stroke="#63b8ff" d="M267.58,-74.66C264.04,-60.11 259.85,-42.91 257.31,-32.49"/>
<polygon fill="#63b8ff" stroke="#63b8ff" points="264.12,-75.23 269.89,-84.12 270.92,-73.57 264.12,-75.23"/>
</a>
</g>
</g>
<!-- Node19&#45;&gt;Node10 -->
<g id="edge23_Node000019_Node000010" class="edge">
<title>Node19&#45;&gt;Node10</title>
<g id="a_edge23_Node000019_Node000010"><a xlink:title=" ">
<path fill="none" stroke="#63b8ff" d="M332.69,-82.79C337.5,-81.71 342.31,-80.75 347,-80 764.64,-13.04 880.24,-110.21 1298,-44 1306.44,-42.66 1315.29,-40.68 1323.81,-38.46"/>
<polygon fill="#63b8ff" stroke="#63b8ff" points="331.88,-79.39 323,-85.17 333.55,-86.19 331.88,-79.39"/>
</a>
</g>
</g>
<!-- Node21 -->
<g id="Node000021" class="node">
<title>Node21</title>
<g id="a_Node000021"><a xlink:href="InitDatabase_8cpp.html" target="_top" xlink:title=" ">
<polygon fill="white" stroke="#666666" points="154,-38 0,-38 0,-6 154,-6 154,-38"/>
<text text-anchor="start" x="8" y="-24.5" font-family="Helvetica,sans-Serif" font-size="10.00">src/bot_library/commands</text>
<text text-anchor="middle" x="77" y="-12.5" font-family="Helvetica,sans-Serif" font-size="10.00">/init_database/InitDatabase.cpp</text>
</a>
</g>
</g>
<!-- Node20&#45;&gt;Node21 -->
<g id="edge25_Node000020_Node000021" class="edge">
<title>Node20&#45;&gt;Node21</title>
<g id="a_edge25_Node000020_Node000021"><a xlink:title=" ">
<path fill="none" stroke="#63b8ff" d="M77,-74.37C77,-62.37 77,-48.63 77,-38.38"/>
<polygon fill="#63b8ff" stroke="#63b8ff" points="73.5,-74.08 77,-84.08 80.5,-74.08 73.5,-74.08"/>
</a>
</g>
</g>
<!-- Node22&#45;&gt;Node10 -->
<g id="edge27_Node000022_Node000010" class="edge">
<title>Node22&#45;&gt;Node10</title>
<g id="a_edge27_Node000022_Node000010"><a xlink:title=" ">
<path fill="none" stroke="#63b8ff" d="M1715.4,-82.77C1711.22,-81.78 1707.06,-80.84 1703,-80 1590.06,-56.59 1558.86,-67.8 1446,-44 1438.55,-42.43 1430.75,-40.52 1423.13,-38.49"/>
<polygon fill="#63b8ff" stroke="#63b8ff" points="1714.46,-86.15 1725.01,-85.16 1716.15,-79.35 1714.46,-86.15"/>
</a>
</g>
</g>
<!-- Node23 -->
<g id="Node000023" class="node">
<title>Node23</title>
<g id="a_Node000023"><a xlink:href="InviteCommand_8cpp.html" target="_top" xlink:title=" ">
<polygon fill="white" stroke="#666666" points="1881.5,-38 1748.5,-38 1748.5,-6 1881.5,-6 1881.5,-38"/>
<text text-anchor="start" x="1756.5" y="-24.5" font-family="Helvetica,sans-Serif" font-size="10.00">src/bot_library/commands</text>
<text text-anchor="middle" x="1815" y="-12.5" font-family="Helvetica,sans-Serif" font-size="10.00">/invite/InviteCommand.cpp</text>
</a>
</g>
</g>
<!-- Node22&#45;&gt;Node23 -->
<g id="edge28_Node000022_Node000023" class="edge">
<title>Node22&#45;&gt;Node23</title>
<g id="a_edge28_Node000022_Node000023"><a xlink:title=" ">
<path fill="none" stroke="#63b8ff" d="M1790.78,-75.49C1796.43,-63.23 1803.02,-48.95 1807.9,-38.38"/>
<polygon fill="#63b8ff" stroke="#63b8ff" points="1787.76,-73.67 1786.75,-84.22 1794.12,-76.6 1787.76,-73.67"/>
</a>
</g>
</g>
<!-- Node24&#45;&gt;Node10 -->
<g id="edge30_Node000024_Node000010" class="edge">
<title>Node24&#45;&gt;Node10</title>
<g id="a_edge30_Node000024_Node000010"><a xlink:title=" ">
<path fill="none" stroke="#63b8ff" d="M1872.17,-83.19C1866.39,-82 1860.61,-80.92 1855,-80 1674.92,-50.51 1625.46,-77.06 1446,-44 1437.99,-42.52 1429.59,-40.56 1421.45,-38.42"/>
<polygon fill="#63b8ff" stroke="#63b8ff" points="1871.28,-86.57 1881.8,-85.25 1872.75,-79.73 1871.28,-86.57"/>
</a>
</g>
</g>
<!-- Node24&#45;&gt;Node25 -->
<g id="edge31_Node000024_Node000025" class="edge">
<title>Node24&#45;&gt;Node25</title>
<g id="a_edge31_Node000024_Node000025"><a xlink:title=" ">
<path fill="none" stroke="#63b8ff" d="M2000.38,-82.11C2041.81,-68.7 2096.73,-50.92 2135.49,-38.38"/>
<polygon fill="#63b8ff" stroke="#63b8ff" points="1999.49,-78.71 1991.05,-85.12 2001.65,-85.37 1999.49,-78.71"/>
</a>
</g>
</g>
<!-- Node26&#45;&gt;Node10 -->
<g id="edge33_Node000026_Node000010" class="edge">
<title>Node26&#45;&gt;Node10</title>
<g id="a_edge33_Node000026_Node000010"><a xlink:title=" ">
<path fill="none" stroke="#63b8ff" d="M480.1,-82.92C485.11,-81.79 490.12,-80.79 495,-80 847.65,-22.85 945.35,-101.15 1298,-44 1306.44,-42.63 1315.28,-40.64 1323.8,-38.41"/>
<polygon fill="#63b8ff" stroke="#63b8ff" points="479.55,-79.46 470.67,-85.23 481.22,-86.26 479.55,-79.46"/>
</a>
</g>
</g>
<!-- Node27 -->
<g id="Node000027" class="node">
<title>Node27</title>
<g id="a_Node000027"><a xlink:href="PongCommand_8cpp.html" target="_top" xlink:title=" ">
<polygon fill="white" stroke="#666666" points="485.62,-38 356.38,-38 356.38,-6 485.62,-6 485.62,-38"/>
<text text-anchor="start" x="364.38" y="-24.5" font-family="Helvetica,sans-Serif" font-size="10.00">src/bot_library/commands</text>
<text text-anchor="middle" x="421" y="-12.5" font-family="Helvetica,sans-Serif" font-size="10.00">/pong/PongCommand.cpp</text>
</a>
</g>
</g>
<!-- Node26&#45;&gt;Node27 -->
<g id="edge34_Node000026_Node000027" class="edge">
<title>Node26&#45;&gt;Node27</title>
<g id="a_edge34_Node000026_Node000027"><a xlink:title=" ">
<path fill="none" stroke="#63b8ff" d="M421,-74.37C421,-62.37 421,-48.63 421,-38.38"/>
<polygon fill="#63b8ff" stroke="#63b8ff" points="417.5,-74.08 421,-84.08 424.5,-74.08 417.5,-74.08"/>
</a>
</g>
</g>
<!-- Node28&#45;&gt;Node10 -->
<g id="edge36_Node000028_Node000010" class="edge">
<title>Node28&#45;&gt;Node10</title>
<g id="a_edge36_Node000028_Node000010"><a xlink:title=" ">
<path fill="none" stroke="#63b8ff" d="M659.25,-83.32C665.9,-82.05 672.56,-80.92 679,-80 951.83,-41.2 1026.27,-89.89 1298,-44 1306.3,-42.6 1314.99,-40.62 1323.38,-38.42"/>
<polygon fill="#63b8ff" stroke="#63b8ff" points="658.7,-79.86 649.58,-85.26 660.08,-86.72 658.7,-79.86"/>
</a>
</g>
</g>
<!-- Node29 -->
<g id="Node000029" class="node">
<title>Node29</title>
<g id="a_Node000029"><a xlink:href="ReactionRoles_8cpp.html" target="_top" xlink:title=" ">
<polygon fill="white" stroke="#666666" points="670,-38 504,-38 504,-6 670,-6 670,-38"/>
<text text-anchor="start" x="512" y="-24.5" font-family="Helvetica,sans-Serif" font-size="10.00">src/bot_library/commands</text>
<text text-anchor="middle" x="587" y="-12.5" font-family="Helvetica,sans-Serif" font-size="10.00">/reaction_roles/ReactionRoles.cpp</text>
</a>
</g>
</g>
<!-- Node28&#45;&gt;Node29 -->
<g id="edge37_Node000028_Node000029" class="edge">
<title>Node28&#45;&gt;Node29</title>
<g id="a_edge37_Node000028_Node000029"><a xlink:title=" ">
<path fill="none" stroke="#63b8ff" d="M587,-74.37C587,-62.37 587,-48.63 587,-38.38"/>
<polygon fill="#63b8ff" stroke="#63b8ff" points="583.5,-74.08 587,-84.08 590.5,-74.08 583.5,-74.08"/>
</a>
</g>
</g>
<!-- Node30&#45;&gt;Node10 -->
<g id="edge39_Node000030_Node000010" class="edge">
<title>Node30&#45;&gt;Node10</title>
<g id="a_edge39_Node000030_Node000010"><a xlink:title=" ">
<path fill="none" stroke="#63b8ff" d="M2049.96,-83.4C2042.9,-82.11 2035.83,-80.95 2029,-80 1771.84,-44.43 1701.9,-87.69 1446,-44 1437.71,-42.58 1429.01,-40.59 1420.62,-38.4"/>
<polygon fill="#63b8ff" stroke="#63b8ff" points="2049.05,-86.79 2059.53,-85.23 2050.37,-79.91 2049.05,-86.79"/>
</a>
</g>
</g>
<!-- Node30&#45;&gt;Node31 -->
<g id="edge40_Node000030_Node000031" class="edge">
<title>Node30&#45;&gt;Node31</title>
<g id="a_edge40_Node000030_Node000031"><a xlink:title=" ">
<path fill="none" stroke="#63b8ff" d="M2184.38,-82.11C2225.81,-68.7 2280.73,-50.92 2319.49,-38.38"/>
<polygon fill="#63b8ff" stroke="#63b8ff" points="2183.49,-78.71 2175.05,-85.12 2185.65,-85.37 2183.49,-78.71"/>
</a>
</g>
</g>
<!-- Node32&#45;&gt;Node10 -->
<g id="edge42_Node000032_Node000010" class="edge">
<title>Node32&#45;&gt;Node10</title>
<g id="a_edge42_Node000032_Node000010"><a xlink:title=" ">
<path fill="none" stroke="#63b8ff" d="M811.99,-82.89C816.71,-81.8 821.41,-80.82 826,-80 1033.13,-43.1 1090.87,-80.9 1298,-44 1306.15,-42.55 1314.69,-40.57 1322.96,-38.4"/>
<polygon fill="#63b8ff" stroke="#63b8ff" points="811.37,-79.44 802.51,-85.24 813.05,-86.23 811.37,-79.44"/>
</a>
</g>
</g>
<!-- Node33 -->
<g id="Node000033" class="node">
<title>Node33</title>
<g id="a_Node000033"><a xlink:href="RollCommand_8cpp.html" target="_top" xlink:title=" ">
<polygon fill="white" stroke="#666666" points="816.25,-38 687.75,-38 687.75,-6 816.25,-6 816.25,-38"/>
<text text-anchor="start" x="695.75" y="-24.5" font-family="Helvetica,sans-Serif" font-size="10.00">src/bot_library/commands</text>
<text text-anchor="middle" x="752" y="-12.5" font-family="Helvetica,sans-Serif" font-size="10.00">/roll/RollCommand.cpp</text>
</a>
</g>
</g>
<!-- Node32&#45;&gt;Node33 -->
<g id="edge43_Node000032_Node000033" class="edge">
<title>Node32&#45;&gt;Node33</title>
<g id="a_edge43_Node000032_Node000033"><a xlink:title=" ">
<path fill="none" stroke="#63b8ff" d="M752,-74.37C752,-62.37 752,-48.63 752,-38.38"/>
<polygon fill="#63b8ff" stroke="#63b8ff" points="748.5,-74.08 752,-84.08 755.5,-74.08 748.5,-74.08"/>
</a>
</g>
</g>
<!-- Node34&#45;&gt;Node10 -->
<g id="edge45_Node000034_Node000010" class="edge">
<title>Node34&#45;&gt;Node10</title>
<g id="a_edge45_Node000034_Node000010"><a xlink:title=" ">
<path fill="none" stroke="#63b8ff" d="M987.8,-83.14C993.26,-82.01 998.71,-80.94 1004,-80 1133.59,-56.85 1168.96,-70.05 1298,-44 1305.72,-42.44 1313.82,-40.49 1321.7,-38.4"/>
<polygon fill="#63b8ff" stroke="#63b8ff" points="987.1,-79.71 978.06,-85.23 988.57,-86.55 987.1,-79.71"/>
</a>
</g>
</g>
<!-- Node35 -->
<g id="Node000035" class="node">
<title>Node35</title>
<g id="a_Node000035"><a xlink:href="ServerDetails_8cpp.html" target="_top" xlink:title=" ">
<polygon fill="white" stroke="#666666" points="995.38,-38 834.62,-38 834.62,-6 995.38,-6 995.38,-38"/>
<text text-anchor="start" x="842.62" y="-24.5" font-family="Helvetica,sans-Serif" font-size="10.00">src/bot_library/commands</text>
<text text-anchor="middle" x="915" y="-12.5" font-family="Helvetica,sans-Serif" font-size="10.00">/server_details/ServerDetails.cpp</text>
</a>
</g>
</g>
<!-- Node34&#45;&gt;Node35 -->
<g id="edge46_Node000034_Node000035" class="edge">
<title>Node34&#45;&gt;Node35</title>
<g id="a_edge46_Node000034_Node000035"><a xlink:title=" ">
<path fill="none" stroke="#63b8ff" d="M915,-74.37C915,-62.37 915,-48.63 915,-38.38"/>
<polygon fill="#63b8ff" stroke="#63b8ff" points="911.5,-74.08 915,-84.08 918.5,-74.08 911.5,-74.08"/>
</a>
</g>
</g>
<!-- Node36&#45;&gt;Node10 -->
<g id="edge48_Node000036_Node000010" class="edge">
<title>Node36&#45;&gt;Node10</title>
<g id="a_edge48_Node000036_Node000010"><a xlink:title=" ">
<path fill="none" stroke="#63b8ff" d="M2246.66,-83.51C2238.69,-82.16 2230.7,-80.95 2223,-80 1879.9,-37.66 1787.21,-99.56 1446,-44 1437.56,-42.63 1428.72,-40.63 1420.2,-38.4"/>
<polygon fill="#63b8ff" stroke="#63b8ff" points="2245.92,-86.93 2256.38,-85.24 2247.15,-80.04 2245.92,-86.93"/>
</a>
</g>
</g>
<!-- Node36&#45;&gt;Node37 -->
<g id="edge49_Node000036_Node000037" class="edge">
<title>Node36&#45;&gt;Node37</title>
<g id="a_edge49_Node000036_Node000037"><a xlink:title=" ">
<path fill="none" stroke="#63b8ff" d="M2385.38,-82.11C2426.81,-68.7 2481.73,-50.92 2520.49,-38.38"/>
<polygon fill="#63b8ff" stroke="#63b8ff" points="2384.49,-78.71 2376.05,-85.12 2386.65,-85.37 2384.49,-78.71"/>
</a>
</g>
</g>
<!-- Node38&#45;&gt;Node10 -->
<g id="edge51_Node000038_Node000010" class="edge">
<title>Node38&#45;&gt;Node10</title>
<g id="a_edge51_Node000038_Node000010"><a xlink:title=" ">
<path fill="none" stroke="#63b8ff" d="M1142.57,-82.53C1145.76,-81.67 1148.91,-80.82 1152,-80 1216.6,-62.87 1233.4,-61.13 1298,-44 1304.58,-42.25 1311.48,-40.37 1318.31,-38.47"/>
<polygon fill="#63b8ff" stroke="#63b8ff" points="1141.87,-79.1 1133.15,-85.12 1143.72,-85.85 1141.87,-79.1"/>
</a>
</g>
</g>
<!-- Node39 -->
<g id="Node000039" class="node">
<title>Node39</title>
<g id="a_Node000039"><a xlink:href="SetStatus_8cpp.html" target="_top" xlink:title=" ">
<polygon fill="white" stroke="#666666" points="1143,-38 1013,-38 1013,-6 1143,-6 1143,-38"/>
<text text-anchor="start" x="1021" y="-24.5" font-family="Helvetica,sans-Serif" font-size="10.00">src/bot_library/commands</text>
<text text-anchor="middle" x="1078" y="-12.5" font-family="Helvetica,sans-Serif" font-size="10.00">/set_status/SetStatus.cpp</text>
</a>
</g>
</g>
<!-- Node38&#45;&gt;Node39 -->
<g id="edge52_Node000038_Node000039" class="edge">
<title>Node38&#45;&gt;Node39</title>
<g id="a_edge52_Node000038_Node000039"><a xlink:title=" ">
<path fill="none" stroke="#63b8ff" d="M1078,-74.37C1078,-62.37 1078,-48.63 1078,-38.38"/>
<polygon fill="#63b8ff" stroke="#63b8ff" points="1074.5,-74.08 1078,-84.08 1081.5,-74.08 1074.5,-74.08"/>
</a>
</g>
</g>
</g>
</svg>
