<?xml version="1.0" encoding="UTF-8" standalone="no"?>
<!DOCTYPE svg PUBLIC "-//W3C//DTD SVG 1.1//EN"
 "http://www.w3.org/Graphics/SVG/1.1/DTD/svg11.dtd">
<!-- Generated by graphviz version 13.0.1 (0)
 -->
<!-- Title: src/bot_library/bot/core/Core.cpp Pages: 1 -->
<svg width="1131pt" height="320pt"
 viewBox="0.00 0.00 1131.00 320.00" xmlns="http://www.w3.org/2000/svg" xmlns:xlink="http://www.w3.org/1999/xlink">
<g id="graph0" class="graph" transform="scale(1 1) rotate(0) translate(4 316)">
<title>src/bot_library/bot/core/Core.cpp</title>
<!-- Node1 -->
<g id="Node000001" class="node">
<title>Node1</title>
<g id="a_Node000001"><a xlink:title=" ">
<polygon fill="#999999" stroke="#666666" points="502.38,-312 408.38,-312 408.38,-280 502.38,-280 502.38,-312"/>
<text xml:space="preserve" text-anchor="start" x="416.38" y="-298.5" font-family="Helvetica,sans-Serif" font-size="10.00">src/bot_library/bot</text>
<text xml:space="preserve" text-anchor="middle" x="455.38" y="-286.5" font-family="Helvetica,sans-Serif" font-size="10.00">/core/Core.cpp</text>
</a>
</g>
</g>
<!-- Node2 -->
<g id="Node000002" class="node">
<title>Node2</title>
<g id="a_Node000002"><a xlink:title=" ">
<polygon fill="#e0e0e0" stroke="#999999" points="327.12,-244 231.62,-244 231.62,-224 327.12,-224 327.12,-244"/>
<text xml:space="preserve" text-anchor="middle" x="279.38" y="-230.5" font-family="Helvetica,sans-Serif" font-size="10.00">dpp/permissions.h</text>
</a>
</g>
</g>
<!-- Node1&#45;&gt;Node2 -->
<g id="edge1_Node000001_Node000002" class="edge">
<title>Node1&#45;&gt;Node2</title>
<g id="a_edge1_Node000001_Node000002"><a xlink:title=" ">
<path fill="none" stroke="#63b8ff" d="M410.05,-279.55C381.49,-269.81 345.03,-257.38 317.88,-248.13"/>
<polygon fill="#63b8ff" stroke="#63b8ff" points="319.26,-244.9 308.66,-244.98 317,-251.52 319.26,-244.9"/>
</a>
</g>
</g>
<!-- Node3 -->
<g id="Node000003" class="node">
<title>Node3</title>
<g id="a_Node000003"><a xlink:title=" ">
<polygon fill="#e0e0e0" stroke="#999999" points="409.75,-244 345,-244 345,-224 409.75,-224 409.75,-244"/>
<text xml:space="preserve" text-anchor="middle" x="377.38" y="-230.5" font-family="Helvetica,sans-Serif" font-size="10.00">dpp/timer.h</text>
</a>
</g>
</g>
<!-- Node1&#45;&gt;Node3 -->
<g id="edge2_Node000001_Node000003" class="edge">
<title>Node1&#45;&gt;Node3</title>
<g id="a_edge2_Node000001_Node000003"><a xlink:title=" ">
<path fill="none" stroke="#63b8ff" d="M435.29,-279.55C424,-270.87 409.93,-260.04 398.48,-251.24"/>
<polygon fill="#63b8ff" stroke="#63b8ff" points="400.87,-248.65 390.81,-245.33 396.6,-254.2 400.87,-248.65"/>
</a>
</g>
</g>
<!-- Node4 -->
<g id="Node000004" class="node">
<title>Node4</title>
<g id="a_Node000004"><a xlink:href="Core_8hpp.html" target="_top" xlink:title=" ">
<polygon fill="white" stroke="#666666" points="483.25,-244 427.5,-244 427.5,-224 483.25,-224 483.25,-244"/>
<text xml:space="preserve" text-anchor="middle" x="455.38" y="-230.5" font-family="Helvetica,sans-Serif" font-size="10.00">Core.hpp</text>
</a>
</g>
</g>
<!-- Node1&#45;&gt;Node4 -->
<g id="edge3_Node000001_Node000004" class="edge">
<title>Node1&#45;&gt;Node4</title>
<g id="a_edge3_Node000001_Node000004"><a xlink:title=" ">
<path fill="none" stroke="#63b8ff" d="M455.38,-279.55C455.38,-272.34 455.38,-263.66 455.38,-255.88"/>
<polygon fill="#63b8ff" stroke="#63b8ff" points="458.88,-255.92 455.38,-245.92 451.88,-255.92 458.88,-255.92"/>
</a>
</g>
</g>
<!-- Node23 -->
<g id="Node000023" class="node">
<title>Node23</title>
<g id="a_Node000023"><a xlink:title=" ">
<polygon fill="#e0e0e0" stroke="#999999" points="539.25,-244 501.5,-244 501.5,-224 539.25,-224 539.25,-244"/>
<text xml:space="preserve" text-anchor="middle" x="520.38" y="-230.5" font-family="Helvetica,sans-Serif" font-size="10.00">array</text>
</a>
</g>
</g>
<!-- Node1&#45;&gt;Node23 -->
<g id="edge35_Node000001_Node000023" class="edge">
<title>Node1&#45;&gt;Node23</title>
<g id="a_edge35_Node000001_Node000023"><a xlink:title=" ">
<path fill="none" stroke="#63b8ff" d="M472.11,-279.55C481.24,-271.13 492.54,-260.69 501.92,-252.04"/>
<polygon fill="#63b8ff" stroke="#63b8ff" points="504.1,-254.79 509.07,-245.43 499.35,-249.65 504.1,-254.79"/>
</a>
</g>
</g>
<!-- Node24 -->
<g id="Node000024" class="node">
<title>Node24</title>
<g id="a_Node000024"><a xlink:title=" ">
<polygon fill="#e0e0e0" stroke="#999999" points="597.38,-244 557.38,-244 557.38,-224 597.38,-224 597.38,-244"/>
<text xml:space="preserve" text-anchor="middle" x="577.38" y="-230.5" font-family="Helvetica,sans-Serif" font-size="10.00">regex</text>
</a>
</g>
</g>
<!-- Node1&#45;&gt;Node24 -->
<g id="edge36_Node000001_Node000024" class="edge">
<title>Node1&#45;&gt;Node24</title>
<g id="a_edge36_Node000001_Node000024"><a xlink:title=" ">
<path fill="none" stroke="#63b8ff" d="M486.79,-279.55C505.68,-270.26 529.56,-258.52 548.05,-249.42"/>
<polygon fill="#63b8ff" stroke="#63b8ff" points="549.46,-252.63 556.89,-245.08 546.37,-246.35 549.46,-252.63"/>
</a>
</g>
</g>
<!-- Node5 -->
<g id="Node000005" class="node">
<title>Node5</title>
<g id="a_Node000005"><a xlink:title=" ">
<polygon fill="#e0e0e0" stroke="#999999" points="58.75,-188 0,-188 0,-168 58.75,-168 58.75,-188"/>
<text xml:space="preserve" text-anchor="middle" x="29.38" y="-174.5" font-family="Helvetica,sans-Serif" font-size="10.00">dpp/dpp.h</text>
</a>
</g>
</g>
<!-- Node4&#45;&gt;Node5 -->
<g id="edge4_Node000004_Node000005" class="edge">
<title>Node4&#45;&gt;Node5</title>
<g id="a_edge4_Node000004_Node000005"><a xlink:title=" ">
<path fill="none" stroke="#63b8ff" d="M427.18,-225.72C424.22,-225.08 421.24,-224.49 418.38,-224 267.45,-198.03 224.02,-213.37 70.42,-188.32"/>
<polygon fill="#63b8ff" stroke="#63b8ff" points="71.1,-184.88 60.66,-186.69 69.95,-191.79 71.1,-184.88"/>
</a>
</g>
</g>
<!-- Node6 -->
<g id="Node000006" class="node">
<title>Node6</title>
<g id="a_Node000006"><a xlink:title=" ">
<polygon fill="#e0e0e0" stroke="#999999" points="167.88,-188 76.88,-188 76.88,-168 167.88,-168 167.88,-188"/>
<text xml:space="preserve" text-anchor="middle" x="122.38" y="-174.5" font-family="Helvetica,sans-Serif" font-size="10.00">dpp/misc&#45;enum.h</text>
</a>
</g>
</g>
<!-- Node4&#45;&gt;Node6 -->
<g id="edge5_Node000004_Node000006" class="edge">
<title>Node4&#45;&gt;Node6</title>
<g id="a_edge5_Node000004_Node000006"><a xlink:title=" ">
<path fill="none" stroke="#63b8ff" d="M427.15,-225.86C424.19,-225.2 421.23,-224.56 418.38,-224 412.54,-222.85 263.65,-200.33 179.32,-187.59"/>
<polygon fill="#63b8ff" stroke="#63b8ff" points="180.02,-184.16 169.61,-186.13 178.98,-191.08 180.02,-184.16"/>
</a>
</g>
</g>
<!-- Node7 -->
<g id="Node000007" class="node">
<title>Node7</title>
<g id="a_Node000007"><a xlink:href="Database_8hpp.html" target="_top" xlink:title=" ">
<polygon fill="white" stroke="#666666" points="300.75,-188 224,-188 224,-168 300.75,-168 300.75,-188"/>
<text xml:space="preserve" text-anchor="middle" x="262.38" y="-174.5" font-family="Helvetica,sans-Serif" font-size="10.00">Database.hpp</text>
</a>
</g>
</g>
<!-- Node4&#45;&gt;Node7 -->
<g id="edge6_Node000004_Node000007" class="edge">
<title>Node4&#45;&gt;Node7</title>
<g id="a_edge6_Node000004_Node000007"><a xlink:title=" ">
<path fill="none" stroke="#63b8ff" d="M427.31,-225.15C395.86,-216.35 344.41,-201.95 307.34,-191.58"/>
<polygon fill="#63b8ff" stroke="#63b8ff" points="308.36,-188.23 297.79,-188.91 306.47,-194.97 308.36,-188.23"/>
</a>
</g>
</g>
<!-- Node9 -->
<g id="Node000009" class="node">
<title>Node9</title>
<g id="a_Node000009"><a xlink:title=" ">
<polygon fill="#e0e0e0" stroke="#999999" points="135.38,-132 95.38,-132 95.38,-112 135.38,-112 135.38,-132"/>
<text xml:space="preserve" text-anchor="middle" x="115.38" y="-118.5" font-family="Helvetica,sans-Serif" font-size="10.00">string</text>
</a>
</g>
</g>
<!-- Node4&#45;&gt;Node9 -->
<g id="edge34_Node000004_Node000009" class="edge">
<title>Node4&#45;&gt;Node9</title>
<g id="a_edge34_Node000004_Node000009"><a xlink:title=" ">
<path fill="none" stroke="#63b8ff" d="M427.13,-225.94C424.18,-225.26 421.22,-224.6 418.38,-224 328.7,-205.16 300.61,-221.64 215.38,-188 199.29,-181.65 161.64,-155.93 137.4,-138.81"/>
<polygon fill="#63b8ff" stroke="#63b8ff" points="139.65,-136.11 129.47,-133.17 135.6,-141.82 139.65,-136.11"/>
</a>
</g>
</g>
<!-- Node14 -->
<g id="Node000014" class="node">
<title>Node14</title>
<g id="a_Node000014"><a xlink:href="IButtonCommand_8hpp.html" target="_top" xlink:title=" ">
<polygon fill="white" stroke="#666666" points="1123,-188 1011.75,-188 1011.75,-168 1123,-168 1123,-188"/>
<text xml:space="preserve" text-anchor="middle" x="1067.38" y="-174.5" font-family="Helvetica,sans-Serif" font-size="10.00">IButtonCommand.hpp</text>
</a>
</g>
</g>
<!-- Node4&#45;&gt;Node14 -->
<g id="edge14_Node000004_Node000014" class="edge">
<title>Node4&#45;&gt;Node14</title>
<g id="a_edge14_Node000004_Node000014"><a xlink:title=" ">
<path fill="none" stroke="#63b8ff" d="M483.56,-225.63C486.52,-225.01 489.5,-224.45 492.38,-224 713.28,-189.59 774.41,-210.88 1000.16,-188.15"/>
<polygon fill="#63b8ff" stroke="#63b8ff" points="1000.29,-191.65 1009.88,-187.15 999.57,-184.69 1000.29,-191.65"/>
</a>
</g>
</g>
<!-- Node17 -->
<g id="Node000017" class="node">
<title>Node17</title>
<g id="a_Node000017"><a xlink:href="IFormCommand_8hpp.html" target="_top" xlink:title=" ">
<polygon fill="white" stroke="#666666" points="577,-188 471.75,-188 471.75,-168 577,-168 577,-188"/>
<text xml:space="preserve" text-anchor="middle" x="524.38" y="-174.5" font-family="Helvetica,sans-Serif" font-size="10.00">IFormCommand.hpp</text>
</a>
</g>
</g>
<!-- Node4&#45;&gt;Node17 -->
<g id="edge17_Node000004_Node000017" class="edge">
<title>Node4&#45;&gt;Node17</title>
<g id="a_edge17_Node000004_Node000017"><a xlink:title=" ">
<path fill="none" stroke="#63b8ff" d="M467.39,-223.59C477.39,-215.77 491.84,-204.46 503.68,-195.19"/>
<polygon fill="#63b8ff" stroke="#63b8ff" points="505.58,-198.15 511.3,-189.23 501.27,-192.64 505.58,-198.15"/>
</a>
</g>
</g>
<!-- Node18 -->
<g id="Node000018" class="node">
<title>Node18</title>
<g id="a_Node000018"><a xlink:href="IGlobalSlashCommand_8hpp.html" target="_top" xlink:title=" ">
<polygon fill="white" stroke="#666666" points="454,-188 318.75,-188 318.75,-168 454,-168 454,-188"/>
<text xml:space="preserve" text-anchor="middle" x="386.38" y="-174.5" font-family="Helvetica,sans-Serif" font-size="10.00">IGlobalSlashCommand.hpp</text>
</a>
</g>
</g>
<!-- Node4&#45;&gt;Node18 -->
<g id="edge20_Node000004_Node000018" class="edge">
<title>Node4&#45;&gt;Node18</title>
<g id="a_edge20_Node000004_Node000018"><a xlink:title=" ">
<path fill="none" stroke="#63b8ff" d="M443.36,-223.59C433.36,-215.77 418.91,-204.46 407.07,-195.19"/>
<polygon fill="#63b8ff" stroke="#63b8ff" points="409.48,-192.64 399.45,-189.23 405.17,-198.15 409.48,-192.64"/>
</a>
</g>
</g>
<!-- Node20 -->
<g id="Node000020" class="node">
<title>Node20</title>
<g id="a_Node000020"><a xlink:href="IMemberCommand_8hpp.html" target="_top" xlink:title=" ">
<polygon fill="white" stroke="#666666" points="713.38,-188 595.38,-188 595.38,-168 713.38,-168 713.38,-188"/>
<text xml:space="preserve" text-anchor="middle" x="654.38" y="-174.5" font-family="Helvetica,sans-Serif" font-size="10.00">IMemberCommand.hpp</text>
</a>
</g>
</g>
<!-- Node4&#45;&gt;Node20 -->
<g id="edge25_Node000004_Node000020" class="edge">
<title>Node4&#45;&gt;Node20</title>
<g id="a_edge25_Node000004_Node000020"><a xlink:title=" ">
<path fill="none" stroke="#63b8ff" d="M483.46,-225.38C515.94,-216.57 569.85,-201.94 608.45,-191.46"/>
<polygon fill="#63b8ff" stroke="#63b8ff" points="609.2,-194.89 617.93,-188.89 607.37,-188.13 609.2,-194.89"/>
</a>
</g>
</g>
<!-- Node21 -->
<g id="Node000021" class="node">
<title>Node21</title>
<g id="a_Node000021"><a xlink:href="IMessageCommand_8hpp.html" target="_top" xlink:title=" ">
<polygon fill="white" stroke="#666666" points="853.62,-188 731.12,-188 731.12,-168 853.62,-168 853.62,-188"/>
<text xml:space="preserve" text-anchor="middle" x="792.38" y="-174.5" font-family="Helvetica,sans-Serif" font-size="10.00">IMessageCommand.hpp</text>
</a>
</g>
</g>
<!-- Node4&#45;&gt;Node21 -->
<g id="edge28_Node000004_Node000021" class="edge">
<title>Node4&#45;&gt;Node21</title>
<g id="a_edge28_Node000004_Node000021"><a xlink:title=" ">
<path fill="none" stroke="#63b8ff" d="M483.6,-225.86C486.55,-225.19 489.52,-224.56 492.38,-224 534.59,-215.72 645.09,-199.68 719.54,-189.16"/>
<polygon fill="#63b8ff" stroke="#63b8ff" points="719.79,-192.66 729.21,-187.8 718.82,-185.73 719.79,-192.66"/>
</a>
</g>
</g>
<!-- Node22 -->
<g id="Node000022" class="node">
<title>Node22</title>
<g id="a_Node000022"><a xlink:href="IReactionCommand_8hpp.html" target="_top" xlink:title=" ">
<polygon fill="white" stroke="#666666" points="993.25,-188 871.5,-188 871.5,-168 993.25,-168 993.25,-188"/>
<text xml:space="preserve" text-anchor="middle" x="932.38" y="-174.5" font-family="Helvetica,sans-Serif" font-size="10.00">IReactionCommand.hpp</text>
</a>
</g>
</g>
<!-- Node4&#45;&gt;Node22 -->
<g id="edge31_Node000004_Node000022" class="edge">
<title>Node4&#45;&gt;Node22</title>
<g id="a_edge31_Node000004_Node000022"><a xlink:title=" ">
<path fill="none" stroke="#63b8ff" d="M483.57,-225.71C486.53,-225.07 489.51,-224.49 492.38,-224 651.78,-197 696.3,-206.12 860.33,-188.19"/>
<polygon fill="#63b8ff" stroke="#63b8ff" points="860.25,-191.72 869.8,-187.13 859.48,-184.76 860.25,-191.72"/>
</a>
</g>
</g>
<!-- Node8 -->
<g id="Node000008" class="node">
<title>Node8</title>
<g id="a_Node000008"><a xlink:title=" ">
<polygon fill="#e0e0e0" stroke="#999999" points="207.12,-132 153.62,-132 153.62,-112 207.12,-112 207.12,-132"/>
<text xml:space="preserve" text-anchor="middle" x="180.38" y="-118.5" font-family="Helvetica,sans-Serif" font-size="10.00">iostream</text>
</a>
</g>
</g>
<!-- Node7&#45;&gt;Node8 -->
<g id="edge7_Node000007_Node000008" class="edge">
<title>Node7&#45;&gt;Node8</title>
<g id="a_edge7_Node000007_Node000008"><a xlink:title=" ">
<path fill="none" stroke="#63b8ff" d="M248.09,-167.59C235.94,-159.59 218.24,-147.93 203.98,-138.54"/>
<polygon fill="#63b8ff" stroke="#63b8ff" points="206.31,-135.89 196.03,-133.31 202.46,-141.73 206.31,-135.89"/>
</a>
</g>
</g>
<!-- Node7&#45;&gt;Node9 -->
<g id="edge8_Node000007_Node000009" class="edge">
<title>Node7&#45;&gt;Node9</title>
<g id="a_edge8_Node000007_Node000009"><a xlink:title=" ">
<path fill="none" stroke="#63b8ff" d="M236.77,-167.59C211.58,-158.34 173.09,-144.2 146.23,-134.33"/>
<polygon fill="#63b8ff" stroke="#63b8ff" points="147.51,-131.08 136.92,-130.91 145.1,-137.65 147.51,-131.08"/>
</a>
</g>
</g>
<!-- Node10 -->
<g id="Node000010" class="node">
<title>Node10</title>
<g id="a_Node000010"><a xlink:title=" ">
<polygon fill="#e0e0e0" stroke="#999999" points="433.88,-132 390.88,-132 390.88,-112 433.88,-112 433.88,-132"/>
<text xml:space="preserve" text-anchor="middle" x="412.38" y="-118.5" font-family="Helvetica,sans-Serif" font-size="10.00">vector</text>
</a>
</g>
</g>
<!-- Node7&#45;&gt;Node10 -->
<g id="edge9_Node000007_Node000010" class="edge">
<title>Node7&#45;&gt;Node10</title>
<g id="a_edge9_Node000007_Node000010"><a xlink:title=" ">
<path fill="none" stroke="#63b8ff" d="M288.5,-167.59C313.88,-158.46 352.48,-144.56 379.84,-134.71"/>
<polygon fill="#63b8ff" stroke="#63b8ff" points="380.8,-138.09 389.02,-131.41 378.42,-131.5 380.8,-138.09"/>
</a>
</g>
</g>
<!-- Node11 -->
<g id="Node000011" class="node">
<title>Node11</title>
<g id="a_Node000011"><a xlink:href="DatabaseBackend_8hpp.html" target="_top" xlink:title=" ">
<polygon fill="white" stroke="#666666" points="333.88,-76 218.88,-76 218.88,-56 333.88,-56 333.88,-76"/>
<text xml:space="preserve" text-anchor="middle" x="276.38" y="-62.5" font-family="Helvetica,sans-Serif" font-size="10.00">DatabaseBackend.hpp</text>
</a>
</g>
</g>
<!-- Node7&#45;&gt;Node11 -->
<g id="edge10_Node000007_Node000011" class="edge">
<title>Node7&#45;&gt;Node11</title>
<g id="a_edge10_Node000007_Node000011"><a xlink:title=" ">
<path fill="none" stroke="#63b8ff" d="M259.2,-167.64C255.34,-154.91 249.86,-131.5 254.38,-112 256.45,-103.02 260.58,-93.76 264.71,-85.99"/>
<polygon fill="#63b8ff" stroke="#63b8ff" points="267.64,-87.91 269.57,-77.5 261.57,-84.43 267.64,-87.91"/>
</a>
</g>
</g>
<!-- Node13 -->
<g id="Node000013" class="node">
<title>Node13</title>
<g id="a_Node000013"><a xlink:href="RowDTOAdapter_8hpp.html" target="_top" xlink:title=" ">
<polygon fill="white" stroke="#666666" points="373.25,-132 263.5,-132 263.5,-112 373.25,-112 373.25,-132"/>
<text xml:space="preserve" text-anchor="middle" x="318.38" y="-118.5" font-family="Helvetica,sans-Serif" font-size="10.00">RowDTOAdapter.hpp</text>
</a>
</g>
</g>
<!-- Node7&#45;&gt;Node13 -->
<g id="edge12_Node000007_Node000013" class="edge">
<title>Node7&#45;&gt;Node13</title>
<g id="a_edge12_Node000007_Node000013"><a xlink:title=" ">
<path fill="none" stroke="#63b8ff" d="M272.13,-167.59C280,-160.01 291.27,-149.13 300.72,-140.02"/>
<polygon fill="#63b8ff" stroke="#63b8ff" points="302.87,-142.81 307.64,-133.35 298.01,-137.77 302.87,-142.81"/>
</a>
</g>
</g>
<!-- Node12 -->
<g id="Node000012" class="node">
<title>Node12</title>
<g id="a_Node000012"><a xlink:title=" ">
<polygon fill="#e0e0e0" stroke="#999999" points="306.88,-20 245.88,-20 245.88,0 306.88,0 306.88,-20"/>
<text xml:space="preserve" text-anchor="middle" x="276.38" y="-6.5" font-family="Helvetica,sans-Serif" font-size="10.00">pqxx/pqxx</text>
</a>
</g>
</g>
<!-- Node11&#45;&gt;Node12 -->
<g id="edge11_Node000011_Node000012" class="edge">
<title>Node11&#45;&gt;Node12</title>
<g id="a_edge11_Node000011_Node000012"><a xlink:title=" ">
<path fill="none" stroke="#63b8ff" d="M276.38,-55.59C276.38,-49.01 276.38,-39.96 276.38,-31.73"/>
<polygon fill="#63b8ff" stroke="#63b8ff" points="279.88,-31.81 276.38,-21.81 272.88,-31.81 279.88,-31.81"/>
</a>
</g>
</g>
<!-- Node13&#45;&gt;Node11 -->
<g id="edge13_Node000013_Node000011" class="edge">
<title>Node13&#45;&gt;Node11</title>
<g id="a_edge13_Node000013_Node000011"><a xlink:title=" ">
<path fill="none" stroke="#63b8ff" d="M311.06,-111.59C305.4,-104.32 297.39,-94.02 290.49,-85.15"/>
<polygon fill="#63b8ff" stroke="#63b8ff" points="293.44,-83.24 284.54,-77.49 287.91,-87.54 293.44,-83.24"/>
</a>
</g>
</g>
<!-- Node15 -->
<g id="Node000015" class="node">
<title>Node15</title>
<g id="a_Node000015"><a xlink:title=" ">
<polygon fill="#e0e0e0" stroke="#999999" points="700.5,-132 628.25,-132 628.25,-112 700.5,-112 700.5,-132"/>
<text xml:space="preserve" text-anchor="middle" x="664.38" y="-118.5" font-family="Helvetica,sans-Serif" font-size="10.00">dpp/cluster.h</text>
</a>
</g>
</g>
<!-- Node14&#45;&gt;Node15 -->
<g id="edge15_Node000014_Node000015" class="edge">
<title>Node14&#45;&gt;Node15</title>
<g id="a_edge15_Node000014_Node000015"><a xlink:title=" ">
<path fill="none" stroke="#63b8ff" d="M1011.36,-169.22C1008.32,-168.81 1005.31,-168.4 1002.38,-168 881.09,-151.61 850.66,-148.39 729.38,-132 723.73,-131.24 717.82,-130.43 711.95,-129.62"/>
<polygon fill="#63b8ff" stroke="#63b8ff" points="712.69,-126.19 702.31,-128.29 711.74,-133.13 712.69,-126.19"/>
</a>
</g>
</g>
<!-- Node16 -->
<g id="Node000016" class="node">
<title>Node16</title>
<g id="a_Node000016"><a xlink:title=" ">
<polygon fill="#e0e0e0" stroke="#999999" points="826.38,-132 738.38,-132 738.38,-112 826.38,-112 826.38,-132"/>
<text xml:space="preserve" text-anchor="middle" x="782.38" y="-118.5" font-family="Helvetica,sans-Serif" font-size="10.00">dpp/dispatcher.h</text>
</a>
</g>
</g>
<!-- Node14&#45;&gt;Node16 -->
<g id="edge16_Node000014_Node000016" class="edge">
<title>Node14&#45;&gt;Node16</title>
<g id="a_edge16_Node000014_Node000016"><a xlink:title=" ">
<path fill="none" stroke="#63b8ff" d="M1017.41,-167.53C967.14,-158.01 889.8,-143.35 837.7,-133.48"/>
<polygon fill="#63b8ff" stroke="#63b8ff" points="838.63,-130.1 828.15,-131.67 837.32,-136.97 838.63,-130.1"/>
</a>
</g>
</g>
<!-- Node17&#45;&gt;Node15 -->
<g id="edge18_Node000017_Node000015" class="edge">
<title>Node17&#45;&gt;Node15</title>
<g id="a_edge18_Node000017_Node000015"><a xlink:title=" ">
<path fill="none" stroke="#63b8ff" d="M548.76,-167.59C571.01,-159.01 604.14,-146.23 629.24,-136.55"/>
<polygon fill="#63b8ff" stroke="#63b8ff" points="630.32,-139.89 638.39,-133.02 627.8,-133.36 630.32,-139.89"/>
</a>
</g>
</g>
<!-- Node17&#45;&gt;Node16 -->
<g id="edge19_Node000017_Node000016" class="edge">
<title>Node17&#45;&gt;Node16</title>
<g id="a_edge19_Node000017_Node000016"><a xlink:title=" ">
<path fill="none" stroke="#63b8ff" d="M569.61,-167.53C613.4,-158.37 679.88,-144.45 726.86,-134.62"/>
<polygon fill="#63b8ff" stroke="#63b8ff" points="727.5,-138.06 736.57,-132.59 726.07,-131.21 727.5,-138.06"/>
</a>
</g>
</g>
<!-- Node18&#45;&gt;Node10 -->
<g id="edge24_Node000018_Node000010" class="edge">
<title>Node18&#45;&gt;Node10</title>
<g id="a_edge24_Node000018_Node000010"><a xlink:title=" ">
<path fill="none" stroke="#63b8ff" d="M390.9,-167.59C394.22,-160.7 398.84,-151.1 402.95,-142.57"/>
<polygon fill="#63b8ff" stroke="#63b8ff" points="406.06,-144.19 407.24,-133.66 399.75,-141.15 406.06,-144.19"/>
</a>
</g>
</g>
<!-- Node18&#45;&gt;Node15 -->
<g id="edge22_Node000018_Node000015" class="edge">
<title>Node18&#45;&gt;Node15</title>
<g id="a_edge22_Node000018_Node000015"><a xlink:title=" ">
<path fill="none" stroke="#63b8ff" d="M435.12,-167.53C486.26,-157.6 566.12,-142.09 616.81,-132.24"/>
<polygon fill="#63b8ff" stroke="#63b8ff" points="617.47,-135.68 626.62,-130.33 616.13,-128.81 617.47,-135.68"/>
</a>
</g>
</g>
<!-- Node18&#45;&gt;Node16 -->
<g id="edge23_Node000018_Node000016" class="edge">
<title>Node18&#45;&gt;Node16</title>
<g id="a_edge23_Node000018_Node000016"><a xlink:title=" ">
<path fill="none" stroke="#63b8ff" d="M454.45,-167.72C531.49,-157.21 655.5,-140.3 726.9,-130.56"/>
<polygon fill="#63b8ff" stroke="#63b8ff" points="726.96,-134.09 736.4,-129.27 726.02,-127.15 726.96,-134.09"/>
</a>
</g>
</g>
<!-- Node19 -->
<g id="Node000019" class="node">
<title>Node19</title>
<g id="a_Node000019"><a xlink:title=" ">
<polygon fill="#e0e0e0" stroke="#999999" points="534.75,-132 452,-132 452,-112 534.75,-112 534.75,-132"/>
<text xml:space="preserve" text-anchor="middle" x="493.38" y="-118.5" font-family="Helvetica,sans-Serif" font-size="10.00">appcommand.h</text>
</a>
</g>
</g>
<!-- Node18&#45;&gt;Node19 -->
<g id="edge21_Node000018_Node000019" class="edge">
<title>Node18&#45;&gt;Node19</title>
<g id="a_edge21_Node000018_Node000019"><a xlink:title=" ">
<path fill="none" stroke="#63b8ff" d="M405.01,-167.59C421.41,-159.32 445.53,-147.14 464.44,-137.6"/>
<polygon fill="#63b8ff" stroke="#63b8ff" points="465.89,-140.79 473.24,-133.16 462.74,-134.54 465.89,-140.79"/>
</a>
</g>
</g>
<!-- Node20&#45;&gt;Node15 -->
<g id="edge26_Node000020_Node000015" class="edge">
<title>Node20&#45;&gt;Node15</title>
<g id="a_edge26_Node000020_Node000015"><a xlink:title=" ">
<path fill="none" stroke="#63b8ff" d="M656.12,-167.59C657.35,-160.93 659.05,-151.75 660.59,-143.44"/>
<polygon fill="#63b8ff" stroke="#63b8ff" points="664,-144.26 662.38,-133.79 657.12,-142.98 664,-144.26"/>
</a>
</g>
</g>
<!-- Node20&#45;&gt;Node16 -->
<g id="edge27_Node000020_Node000016" class="edge">
<title>Node20&#45;&gt;Node16</title>
<g id="a_edge27_Node000020_Node000016"><a xlink:title=" ">
<path fill="none" stroke="#63b8ff" d="M676.67,-167.59C696.74,-159.13 726.49,-146.58 749.33,-136.94"/>
<polygon fill="#63b8ff" stroke="#63b8ff" points="750.66,-140.18 758.51,-133.07 747.94,-133.73 750.66,-140.18"/>
</a>
</g>
</g>
<!-- Node21&#45;&gt;Node15 -->
<g id="edge29_Node000021_Node000015" class="edge">
<title>Node21&#45;&gt;Node15</title>
<g id="a_edge29_Node000021_Node000015"><a xlink:title=" ">
<path fill="none" stroke="#63b8ff" d="M770.08,-167.59C750.01,-159.13 720.26,-146.58 697.42,-136.94"/>
<polygon fill="#63b8ff" stroke="#63b8ff" points="698.81,-133.73 688.24,-133.07 696.09,-140.18 698.81,-133.73"/>
</a>
</g>
</g>
<!-- Node21&#45;&gt;Node16 -->
<g id="edge30_Node000021_Node000016" class="edge">
<title>Node21&#45;&gt;Node16</title>
<g id="a_edge30_Node000021_Node000016"><a xlink:title=" ">
<path fill="none" stroke="#63b8ff" d="M790.63,-167.59C789.4,-160.93 787.7,-151.75 786.16,-143.44"/>
<polygon fill="#63b8ff" stroke="#63b8ff" points="789.63,-142.98 784.37,-133.79 782.75,-144.26 789.63,-142.98"/>
</a>
</g>
</g>
<!-- Node22&#45;&gt;Node15 -->
<g id="edge32_Node000022_Node000015" class="edge">
<title>Node22&#45;&gt;Node15</title>
<g id="a_edge32_Node000022_Node000015"><a xlink:title=" ">
<path fill="none" stroke="#63b8ff" d="M885.39,-167.53C836.74,-157.73 761.15,-142.5 712.2,-132.64"/>
<polygon fill="#63b8ff" stroke="#63b8ff" points="712.95,-129.22 702.45,-130.67 711.57,-136.08 712.95,-129.22"/>
</a>
</g>
</g>
<!-- Node22&#45;&gt;Node16 -->
<g id="edge33_Node000022_Node000016" class="edge">
<title>Node22&#45;&gt;Node16</title>
<g id="a_edge33_Node000022_Node000016"><a xlink:title=" ">
<path fill="none" stroke="#63b8ff" d="M906.25,-167.59C882.2,-158.94 846.27,-146 819.29,-136.29"/>
<polygon fill="#63b8ff" stroke="#63b8ff" points="820.73,-133.09 810.13,-132.99 818.35,-139.67 820.73,-133.09"/>
</a>
</g>
</g>
</g>
</svg>
