<?xml version="1.0" encoding="UTF-8" standalone="no"?>
<!DOCTYPE svg PUBLIC "-//W3C//DTD SVG 1.1//EN"
 "http://www.w3.org/Graphics/SVG/1.1/DTD/svg11.dtd">
<!-- Generated by graphviz version 9.0.0 (0)
 -->
<!-- Title: src/core/Core.hpp Pages: 1 -->
<svg width="1218pt" height="164pt"
 viewBox="0.00 0.00 1217.81 164.00" xmlns="http://www.w3.org/2000/svg" xmlns:xlink="http://www.w3.org/1999/xlink">
<g id="graph0" class="graph" transform="scale(1 1) rotate(0) translate(4 160)">
<title>src/core/Core.hpp</title>
<!-- Node1 -->
<g id="Node000001" class="node">
<title>Node1</title>
<g id="a_Node000001"><a xlink:title=" ">
<polygon fill="#999999" stroke="#666666" points="549.81,-156 455.81,-156 455.81,-136 549.81,-136 549.81,-156"/>
<text text-anchor="middle" x="502.81" y="-142.5" font-family="Helvetica,sans-Serif" font-size="10.00">src/core/Core.hpp</text>
</a>
</g>
</g>
<!-- Node2 -->
<g id="Node000002" class="node">
<title>Node2</title>
<g id="a_Node000002"><a xlink:href="bot_8cpp.html" target="_top" xlink:title=" ">
<polygon fill="white" stroke="#666666" points="120.18,-26 55.43,-26 55.43,-6 120.18,-6 120.18,-26"/>
<text text-anchor="middle" x="87.81" y="-12.5" font-family="Helvetica,sans-Serif" font-size="10.00">src/bot.cpp</text>
</a>
</g>
</g>
<!-- Node1&#45;&gt;Node2 -->
<g id="edge1_Node000001_Node000002" class="edge">
<title>Node1&#45;&gt;Node2</title>
<g id="a_edge1_Node000001_Node000002"><a xlink:title=" ">
<path fill="none" stroke="#63b8ff" d="M444.37,-144.03C319.54,-141.34 35.82,-131.77 6.81,-100 -18.25,-72.57 34.89,-41.57 66.52,-26.39"/>
<polygon fill="#63b8ff" stroke="#63b8ff" points="444,-147.52 454.07,-144.23 444.15,-140.52 444,-147.52"/>
</a>
</g>
</g>
<!-- Node3 -->
<g id="Node000003" class="node">
<title>Node3</title>
<g id="a_Node000003"><a xlink:href="ChallengeRoleCommand_8cpp.html" target="_top" xlink:title=" ">
<polygon fill="white" stroke="#666666" points="313.56,-32 146.06,-32 146.06,0 313.56,0 313.56,-32"/>
<text text-anchor="start" x="154.06" y="-18.5" font-family="Helvetica,sans-Serif" font-size="10.00">src/commands/challenge</text>
<text text-anchor="middle" x="229.81" y="-6.5" font-family="Helvetica,sans-Serif" font-size="10.00">_role/ChallengeRoleCommand.cpp</text>
</a>
</g>
</g>
<!-- Node1&#45;&gt;Node3 -->
<g id="edge2_Node000001_Node000003" class="edge">
<title>Node1&#45;&gt;Node3</title>
<g id="a_edge2_Node000001_Node000003"><a xlink:title=" ">
<path fill="none" stroke="#63b8ff" d="M444.16,-139.92C404.45,-134.47 351.92,-123.21 310.81,-100 295.03,-91.09 261.39,-53.68 242.81,-32.25"/>
<polygon fill="#63b8ff" stroke="#63b8ff" points="443.66,-143.39 454.03,-141.18 444.55,-136.44 443.66,-143.39"/>
</a>
</g>
</g>
<!-- Node4 -->
<g id="Node000004" class="node">
<title>Node4</title>
<g id="a_Node000004"><a xlink:href="ChallengeRoleCommand_8hpp.html" target="_top" xlink:title=" ">
<polygon fill="white" stroke="#666666" points="487.56,-100 320.06,-100 320.06,-68 487.56,-68 487.56,-100"/>
<text text-anchor="start" x="328.06" y="-86.5" font-family="Helvetica,sans-Serif" font-size="10.00">src/commands/challenge</text>
<text text-anchor="middle" x="403.81" y="-74.5" font-family="Helvetica,sans-Serif" font-size="10.00">_role/ChallengeRoleCommand.hpp</text>
</a>
</g>
</g>
<!-- Node1&#45;&gt;Node4 -->
<g id="edge3_Node000001_Node000004" class="edge">
<title>Node1&#45;&gt;Node4</title>
<g id="a_edge3_Node000001_Node000004"><a xlink:title=" ">
<path fill="none" stroke="#63b8ff" d="M477.77,-129.83C462.9,-120.81 444.1,-109.42 429.17,-100.37"/>
<polygon fill="#63b8ff" stroke="#63b8ff" points="475.68,-132.65 486.04,-134.84 479.31,-126.66 475.68,-132.65"/>
</a>
</g>
</g>
<!-- Node7 -->
<g id="Node000007" class="node">
<title>Node7</title>
<g id="a_Node000007"><a xlink:href="HelpCommand_8cpp.html" target="_top" xlink:title=" ">
<polygon fill="white" stroke="#666666" points="1098.06,-94 909.56,-94 909.56,-74 1098.06,-74 1098.06,-94"/>
<text text-anchor="middle" x="1003.81" y="-80.5" font-family="Helvetica,sans-Serif" font-size="10.00">src/commands/help/HelpCommand.cpp</text>
</a>
</g>
</g>
<!-- Node1&#45;&gt;Node7 -->
<g id="edge8_Node000001_Node000007" class="edge">
<title>Node1&#45;&gt;Node7</title>
<g id="a_edge8_Node000001_Node000007"><a xlink:title=" ">
<path fill="none" stroke="#63b8ff" d="M561.37,-138.74C638.2,-130.42 777.22,-115.02 895.81,-100 909.24,-98.3 923.59,-96.38 937.3,-94.49"/>
<polygon fill="#63b8ff" stroke="#63b8ff" points="561.11,-135.25 551.54,-139.8 561.86,-142.21 561.11,-135.25"/>
</a>
</g>
</g>
<!-- Node8 -->
<g id="Node000008" class="node">
<title>Node8</title>
<g id="a_Node000008"><a xlink:href="PongCommand_8hpp.html" target="_top" xlink:title=" ">
<polygon fill="white" stroke="#666666" points="699.68,-94 505.93,-94 505.93,-74 699.68,-74 699.68,-94"/>
<text text-anchor="middle" x="602.81" y="-80.5" font-family="Helvetica,sans-Serif" font-size="10.00">src/commands/pong/PongCommand.hpp</text>
</a>
</g>
</g>
<!-- Node1&#45;&gt;Node8 -->
<g id="edge9_Node000001_Node000008" class="edge">
<title>Node1&#45;&gt;Node8</title>
<g id="a_edge9_Node000001_Node000008"><a xlink:title=" ">
<path fill="none" stroke="#63b8ff" d="M528.06,-129.85C546.7,-118.66 571.48,-103.8 587.29,-94.31"/>
<polygon fill="#63b8ff" stroke="#63b8ff" points="526.5,-126.7 519.73,-134.85 530.11,-132.7 526.5,-126.7"/>
</a>
</g>
</g>
<!-- Node10 -->
<g id="Node000010" class="node">
<title>Node10</title>
<g id="a_Node000010"><a xlink:href="resource__man_8hpp.html" target="_top" xlink:title=" ">
<polygon fill="white" stroke="#666666" points="141.93,-100 15.68,-100 15.68,-68 141.93,-68 141.93,-100"/>
<text text-anchor="start" x="23.68" y="-86.5" font-family="Helvetica,sans-Serif" font-size="10.00">src/commands/resources</text>
<text text-anchor="middle" x="78.81" y="-74.5" font-family="Helvetica,sans-Serif" font-size="10.00">/resource_man.hpp</text>
</a>
</g>
</g>
<!-- Node1&#45;&gt;Node10 -->
<g id="edge12_Node000001_Node000010" class="edge">
<title>Node1&#45;&gt;Node10</title>
<g id="a_edge12_Node000001_Node000010"><a xlink:title=" ">
<path fill="none" stroke="#63b8ff" d="M444.16,-138.92C374.13,-131.34 253.54,-117.24 150.81,-100 148.04,-99.54 145.21,-99.04 142.36,-98.52"/>
<polygon fill="#63b8ff" stroke="#63b8ff" points="443.56,-142.38 453.87,-139.97 444.31,-135.42 443.56,-142.38"/>
</a>
</g>
</g>
<!-- Node11 -->
<g id="Node000011" class="node">
<title>Node11</title>
<g id="a_Node000011"><a xlink:href="roles_8hpp.html" target="_top" xlink:title=" ">
<polygon fill="white" stroke="#666666" points="264.06,-100 159.56,-100 159.56,-68 264.06,-68 264.06,-100"/>
<text text-anchor="start" x="167.56" y="-86.5" font-family="Helvetica,sans-Serif" font-size="10.00">src/commands/roles</text>
<text text-anchor="middle" x="211.81" y="-74.5" font-family="Helvetica,sans-Serif" font-size="10.00">/roles.hpp</text>
</a>
</g>
</g>
<!-- Node1&#45;&gt;Node11 -->
<g id="edge14_Node000001_Node000011" class="edge">
<title>Node1&#45;&gt;Node11</title>
<g id="a_edge14_Node000001_Node000011"><a xlink:title=" ">
<path fill="none" stroke="#63b8ff" d="M444.2,-133.71C398.74,-124.85 334.19,-112.04 277.81,-100 273.44,-99.07 268.92,-98.08 264.38,-97.08"/>
<polygon fill="#63b8ff" stroke="#63b8ff" points="443.36,-137.11 453.84,-135.59 444.69,-130.24 443.36,-137.11"/>
</a>
</g>
</g>
<!-- Node12 -->
<g id="Node000012" class="node">
<title>Node12</title>
<g id="a_Node000012"><a xlink:href="SetChannelCommand_8cpp.html" target="_top" xlink:title=" ">
<polygon fill="white" stroke="#666666" points="1043.81,-32 907.81,-32 907.81,0 1043.81,0 1043.81,-32"/>
<text text-anchor="start" x="915.81" y="-18.5" font-family="Helvetica,sans-Serif" font-size="10.00">src/commands/set_channel</text>
<text text-anchor="middle" x="975.81" y="-6.5" font-family="Helvetica,sans-Serif" font-size="10.00">/SetChannelCommand.cpp</text>
</a>
</g>
</g>
<!-- Node1&#45;&gt;Node12 -->
<g id="edge16_Node000001_Node000012" class="edge">
<title>Node1&#45;&gt;Node12</title>
<g id="a_edge16_Node000001_Node000012"><a xlink:title=" ">
<path fill="none" stroke="#63b8ff" d="M561.35,-141.72C649.1,-136.13 810.06,-123.06 862.81,-100 883.04,-91.16 883.21,-81.34 900.81,-68 917.37,-55.45 936.8,-42.28 951.72,-32.47"/>
<polygon fill="#63b8ff" stroke="#63b8ff" points="561.26,-138.22 551.5,-142.34 561.7,-145.21 561.26,-138.22"/>
</a>
</g>
</g>
<!-- Node13 -->
<g id="Node000013" class="node">
<title>Node13</title>
<g id="a_Node000013"><a xlink:href="SetChannelCommand_8hpp.html" target="_top" xlink:title=" ">
<polygon fill="white" stroke="#666666" points="853.81,-100 717.81,-100 717.81,-68 853.81,-68 853.81,-100"/>
<text text-anchor="start" x="725.81" y="-86.5" font-family="Helvetica,sans-Serif" font-size="10.00">src/commands/set_channel</text>
<text text-anchor="middle" x="785.81" y="-74.5" font-family="Helvetica,sans-Serif" font-size="10.00">/SetChannelCommand.hpp</text>
</a>
</g>
</g>
<!-- Node1&#45;&gt;Node13 -->
<g id="edge17_Node000001_Node000013" class="edge">
<title>Node1&#45;&gt;Node13</title>
<g id="a_edge17_Node000001_Node000013"><a xlink:title=" ">
<path fill="none" stroke="#63b8ff" d="M558.5,-133.19C604.11,-123.52 668.82,-109.8 717.55,-99.47"/>
<polygon fill="#63b8ff" stroke="#63b8ff" points="557.87,-129.75 548.82,-135.25 559.33,-136.59 557.87,-129.75"/>
</a>
</g>
</g>
<!-- Node14 -->
<g id="Node000014" class="node">
<title>Node14</title>
<g id="a_Node000014"><a xlink:href="Core_8cpp.html" target="_top" xlink:title=" ">
<polygon fill="white" stroke="#666666" points="1209.81,-94 1115.81,-94 1115.81,-74 1209.81,-74 1209.81,-94"/>
<text text-anchor="middle" x="1162.81" y="-80.5" font-family="Helvetica,sans-Serif" font-size="10.00">src/core/Core.cpp</text>
</a>
</g>
</g>
<!-- Node1&#45;&gt;Node14 -->
<g id="edge20_Node000001_Node000014" class="edge">
<title>Node1&#45;&gt;Node14</title>
<g id="a_edge20_Node000001_Node000014"><a xlink:title=" ">
<path fill="none" stroke="#63b8ff" d="M561.49,-144.27C669.94,-142.11 908.76,-133.6 1106.81,-100 1114.94,-98.62 1123.61,-96.58 1131.64,-94.46"/>
<polygon fill="#63b8ff" stroke="#63b8ff" points="561.61,-140.76 551.67,-144.45 561.74,-147.76 561.61,-140.76"/>
</a>
</g>
</g>
<!-- Node4&#45;&gt;Node2 -->
<g id="edge4_Node000004_Node000002" class="edge">
<title>Node4&#45;&gt;Node2</title>
<g id="a_edge4_Node000004_Node000002"><a xlink:title=" ">
<path fill="none" stroke="#63b8ff" d="M308.66,-67.41C257.45,-58.37 193.35,-46.01 136.81,-32 130.33,-30.4 123.44,-28.44 116.94,-26.49"/>
<polygon fill="#63b8ff" stroke="#63b8ff" points="307.78,-70.81 318.23,-69.08 308.98,-63.91 307.78,-70.81"/>
</a>
</g>
</g>
<!-- Node4&#45;&gt;Node3 -->
<g id="edge6_Node000004_Node000003" class="edge">
<title>Node4&#45;&gt;Node3</title>
<g id="a_edge6_Node000004_Node000003"><a xlink:title=" ">
<path fill="none" stroke="#63b8ff" d="M352.55,-63.56C326.43,-53.65 295.11,-41.77 270.65,-32.49"/>
<polygon fill="#63b8ff" stroke="#63b8ff" points="351.01,-66.72 361.6,-66.99 353.49,-60.17 351.01,-66.72"/>
</a>
</g>
</g>
<!-- Node5 -->
<g id="Node000005" class="node">
<title>Node5</title>
<g id="a_Node000005"><a xlink:href="CommandRegister_8cpp.html" target="_top" xlink:title=" ">
<polygon fill="white" stroke="#666666" points="677.81,-26 493.81,-26 493.81,-6 677.81,-6 677.81,-26"/>
<text text-anchor="middle" x="585.81" y="-12.5" font-family="Helvetica,sans-Serif" font-size="10.00">src/commands/CommandRegister.cpp</text>
</a>
</g>
</g>
<!-- Node4&#45;&gt;Node5 -->
<g id="edge5_Node000004_Node000005" class="edge">
<title>Node4&#45;&gt;Node5</title>
<g id="a_edge5_Node000004_Node000005"><a xlink:title=" ">
<path fill="none" stroke="#63b8ff" d="M457.12,-63.67C490.88,-51.42 533.06,-36.13 559.72,-26.46"/>
<polygon fill="#63b8ff" stroke="#63b8ff" points="456.11,-60.31 447.9,-67.01 458.5,-66.89 456.11,-60.31"/>
</a>
</g>
</g>
<!-- Node6 -->
<g id="Node000006" class="node">
<title>Node6</title>
<g id="a_Node000006"><a xlink:href="ChallengeRoleDTO_8cpp.html" target="_top" xlink:title=" ">
<polygon fill="white" stroke="#666666" points="475.56,-32 332.06,-32 332.06,0 475.56,0 475.56,-32"/>
<text text-anchor="start" x="340.06" y="-18.5" font-family="Helvetica,sans-Serif" font-size="10.00">src/commands/challenge</text>
<text text-anchor="middle" x="403.81" y="-6.5" font-family="Helvetica,sans-Serif" font-size="10.00">_role/ChallengeRoleDTO.cpp</text>
</a>
</g>
</g>
<!-- Node4&#45;&gt;Node6 -->
<g id="edge7_Node000004_Node000006" class="edge">
<title>Node4&#45;&gt;Node6</title>
<g id="a_edge7_Node000004_Node000006"><a xlink:title=" ">
<path fill="none" stroke="#63b8ff" d="M403.81,-56.31C403.81,-48.12 403.81,-39.38 403.81,-32.22"/>
<polygon fill="#63b8ff" stroke="#63b8ff" points="400.31,-56.18 403.81,-66.18 407.31,-56.18 400.31,-56.18"/>
</a>
</g>
</g>
<!-- Node8&#45;&gt;Node5 -->
<g id="edge10_Node000008_Node000005" class="edge">
<title>Node8&#45;&gt;Node5</title>
<g id="a_edge10_Node000008_Node000005"><a xlink:title=" ">
<path fill="none" stroke="#63b8ff" d="M597.57,-62.65C594.46,-50.58 590.66,-35.84 588.24,-26.44"/>
<polygon fill="#63b8ff" stroke="#63b8ff" points="594.11,-63.27 599.99,-72.08 600.89,-61.52 594.11,-63.27"/>
</a>
</g>
</g>
<!-- Node9 -->
<g id="Node000009" class="node">
<title>Node9</title>
<g id="a_Node000009"><a xlink:href="PongCommand_8cpp.html" target="_top" xlink:title=" ">
<polygon fill="white" stroke="#666666" points="889.68,-26 695.93,-26 695.93,-6 889.68,-6 889.68,-26"/>
<text text-anchor="middle" x="792.81" y="-12.5" font-family="Helvetica,sans-Serif" font-size="10.00">src/commands/pong/PongCommand.cpp</text>
</a>
</g>
</g>
<!-- Node8&#45;&gt;Node9 -->
<g id="edge11_Node000008_Node000009" class="edge">
<title>Node8&#45;&gt;Node9</title>
<g id="a_edge11_Node000008_Node000009"><a xlink:title=" ">
<path fill="none" stroke="#63b8ff" d="M640.86,-69.78C677.8,-56.95 732.93,-37.8 765.64,-26.44"/>
<polygon fill="#63b8ff" stroke="#63b8ff" points="639.76,-66.46 631.46,-73.05 642.05,-73.07 639.76,-66.46"/>
</a>
</g>
</g>
<!-- Node10&#45;&gt;Node2 -->
<g id="edge13_Node000010_Node000002" class="edge">
<title>Node10&#45;&gt;Node2</title>
<g id="a_edge13_Node000010_Node000002"><a xlink:title=" ">
<path fill="none" stroke="#63b8ff" d="M82.45,-56.31C83.9,-45.67 85.47,-34.13 86.54,-26.32"/>
<polygon fill="#63b8ff" stroke="#63b8ff" points="78.98,-55.81 81.1,-66.19 85.92,-56.76 78.98,-55.81"/>
</a>
</g>
</g>
<!-- Node11&#45;&gt;Node2 -->
<g id="edge15_Node000011_Node000002" class="edge">
<title>Node11&#45;&gt;Node2</title>
<g id="a_edge15_Node000011_Node000002"><a xlink:title=" ">
<path fill="none" stroke="#63b8ff" d="M172.77,-62.22C150.26,-50.24 123.04,-35.75 105.58,-26.46"/>
<polygon fill="#63b8ff" stroke="#63b8ff" points="170.93,-65.21 181.4,-66.81 174.22,-59.03 170.93,-65.21"/>
</a>
</g>
</g>
<!-- Node13&#45;&gt;Node5 -->
<g id="edge18_Node000013_Node000005" class="edge">
<title>Node13&#45;&gt;Node5</title>
<g id="a_edge18_Node000013_Node000005"><a xlink:title=" ">
<path fill="none" stroke="#63b8ff" d="M728.19,-63.99C690.93,-51.69 644.03,-36.21 614.47,-26.46"/>
<polygon fill="#63b8ff" stroke="#63b8ff" points="726.89,-67.24 737.48,-67.05 729.08,-60.59 726.89,-67.24"/>
</a>
</g>
</g>
<!-- Node13&#45;&gt;Node12 -->
<g id="edge19_Node000013_Node000012" class="edge">
<title>Node13&#45;&gt;Node12</title>
<g id="a_edge19_Node000013_Node000012"><a xlink:title=" ">
<path fill="none" stroke="#63b8ff" d="M841.02,-63.82C869.69,-53.86 904.26,-41.85 931.21,-32.49"/>
<polygon fill="#63b8ff" stroke="#63b8ff" points="840.08,-60.44 831.78,-67.03 842.38,-67.05 840.08,-60.44"/>
</a>
</g>
</g>
</g>
</svg>
