<?xml version="1.0" encoding="UTF-8" standalone="no"?>
<!DOCTYPE svg PUBLIC "-//W3C//DTD SVG 1.1//EN"
 "http://www.w3.org/Graphics/SVG/1.1/DTD/svg11.dtd">
<!-- Generated by graphviz version 9.0.0 (0)
 -->
<!-- Title: src/bot_library/bot/core/Core.cpp Pages: 1 -->
<svg width="1354pt" height="264pt"
 viewBox="0.00 0.00 1353.62 264.00" xmlns="http://www.w3.org/2000/svg" xmlns:xlink="http://www.w3.org/1999/xlink">
<g id="graph0" class="graph" transform="scale(1 1) rotate(0) translate(4 260)">
<title>src/bot_library/bot/core/Core.cpp</title>
<!-- Node1 -->
<g id="Node000001" class="node">
<title>Node1</title>
<g id="a_Node000001"><a xlink:title=" ">
<polygon fill="#999999" stroke="#666666" points="1061.5,-256 967.5,-256 967.5,-224 1061.5,-224 1061.5,-256"/>
<text text-anchor="start" x="975.5" y="-242.5" font-family="Helvetica,sans-Serif" font-size="10.00">src/bot_library/bot</text>
<text text-anchor="middle" x="1014.5" y="-230.5" font-family="Helvetica,sans-Serif" font-size="10.00">/core/Core.cpp</text>
</a>
</g>
</g>
<!-- Node2 -->
<g id="Node000002" class="node">
<title>Node2</title>
<g id="a_Node000002"><a xlink:href="Core_8hpp.html" target="_top" xlink:title=" ">
<polygon fill="white" stroke="#666666" points="777.38,-188 721.62,-188 721.62,-168 777.38,-168 777.38,-188"/>
<text text-anchor="middle" x="749.5" y="-174.5" font-family="Helvetica,sans-Serif" font-size="10.00">Core.hpp</text>
</a>
</g>
</g>
<!-- Node1&#45;&gt;Node2 -->
<g id="edge1_Node000001_Node000002" class="edge">
<title>Node1&#45;&gt;Node2</title>
<g id="a_edge1_Node000001_Node000002"><a xlink:title=" ">
<path fill="none" stroke="#63b8ff" d="M967.28,-228.71C923.48,-219.1 856.18,-204.18 788.61,-188.46"/>
<polygon fill="#63b8ff" stroke="#63b8ff" points="789.78,-185.14 779.24,-186.28 788.19,-191.96 789.78,-185.14"/>
</a>
</g>
</g>
<!-- Node13 -->
<g id="Node000013" class="node">
<title>Node13</title>
<g id="a_Node000013"><a xlink:title=" ">
<polygon fill="#e0e0e0" stroke="#999999" points="43,-76 0,-76 0,-56 43,-56 43,-76"/>
<text text-anchor="middle" x="21.5" y="-62.5" font-family="Helvetica,sans-Serif" font-size="10.00">vector</text>
</a>
</g>
</g>
<!-- Node1&#45;&gt;Node13 -->
<g id="edge40_Node000001_Node000013" class="edge">
<title>Node1&#45;&gt;Node13</title>
<g id="a_edge40_Node000001_Node000013"><a xlink:title=" ">
<path fill="none" stroke="#63b8ff" d="M967.18,-237.51C837.94,-232.48 468.96,-211.66 174.5,-132 129.09,-119.72 79.49,-96.73 49.44,-81.64"/>
<polygon fill="#63b8ff" stroke="#63b8ff" points="51.14,-78.58 40.64,-77.16 47.96,-84.82 51.14,-78.58"/>
</a>
</g>
</g>
<!-- Node23 -->
<g id="Node000023" class="node">
<title>Node23</title>
<g id="a_Node000023"><a xlink:title=" ">
<polygon fill="#e0e0e0" stroke="#999999" points="891.25,-188 795.75,-188 795.75,-168 891.25,-168 891.25,-188"/>
<text text-anchor="middle" x="843.5" y="-174.5" font-family="Helvetica,sans-Serif" font-size="10.00">dpp/permissions.h</text>
</a>
</g>
</g>
<!-- Node1&#45;&gt;Node23 -->
<g id="edge33_Node000001_Node000023" class="edge">
<title>Node1&#45;&gt;Node23</title>
<g id="a_edge33_Node000001_Node000023"><a xlink:title=" ">
<path fill="none" stroke="#63b8ff" d="M970.46,-223.55C942.84,-213.86 907.6,-201.49 881.26,-192.25"/>
<polygon fill="#63b8ff" stroke="#63b8ff" points="882.59,-189.01 871.99,-189 880.27,-195.61 882.59,-189.01"/>
</a>
</g>
</g>
<!-- Node24 -->
<g id="Node000024" class="node">
<title>Node24</title>
<g id="a_Node000024"><a xlink:title=" ">
<polygon fill="#e0e0e0" stroke="#999999" points="973.88,-188 909.12,-188 909.12,-168 973.88,-168 973.88,-188"/>
<text text-anchor="middle" x="941.5" y="-174.5" font-family="Helvetica,sans-Serif" font-size="10.00">dpp/timer.h</text>
</a>
</g>
</g>
<!-- Node1&#45;&gt;Node24 -->
<g id="edge34_Node000001_Node000024" class="edge">
<title>Node1&#45;&gt;Node24</title>
<g id="a_edge34_Node000001_Node000024"><a xlink:title=" ">
<path fill="none" stroke="#63b8ff" d="M995.7,-223.55C985.25,-214.95 972.23,-204.26 961.58,-195.5"/>
<polygon fill="#63b8ff" stroke="#63b8ff" points="964.06,-193.01 954.12,-189.37 959.62,-198.42 964.06,-193.01"/>
</a>
</g>
</g>
<!-- Node25 -->
<g id="Node000025" class="node">
<title>Node25</title>
<g id="a_Node000025"><a xlink:title=" ">
<polygon fill="#e0e0e0" stroke="#999999" points="1037.12,-188 991.88,-188 991.88,-168 1037.12,-168 1037.12,-188"/>
<text text-anchor="middle" x="1014.5" y="-174.5" font-family="Helvetica,sans-Serif" font-size="10.00">chrono</text>
</a>
</g>
</g>
<!-- Node1&#45;&gt;Node25 -->
<g id="edge35_Node000001_Node000025" class="edge">
<title>Node1&#45;&gt;Node25</title>
<g id="a_edge35_Node000001_Node000025"><a xlink:title=" ">
<path fill="none" stroke="#63b8ff" d="M1014.5,-223.55C1014.5,-216.34 1014.5,-207.66 1014.5,-199.88"/>
<polygon fill="#63b8ff" stroke="#63b8ff" points="1018,-199.92 1014.5,-189.92 1011,-199.92 1018,-199.92"/>
</a>
</g>
</g>
<!-- Node26 -->
<g id="Node000026" class="node">
<title>Node26</title>
<g id="a_Node000026"><a xlink:title=" ">
<polygon fill="#e0e0e0" stroke="#999999" points="1089.88,-188 1055.12,-188 1055.12,-168 1089.88,-168 1089.88,-188"/>
<text text-anchor="middle" x="1072.5" y="-174.5" font-family="Helvetica,sans-Serif" font-size="10.00">ratio</text>
</a>
</g>
</g>
<!-- Node1&#45;&gt;Node26 -->
<g id="edge36_Node000001_Node000026" class="edge">
<title>Node1&#45;&gt;Node26</title>
<g id="a_edge36_Node000001_Node000026"><a xlink:title=" ">
<path fill="none" stroke="#63b8ff" d="M1029.44,-223.55C1037.41,-215.3 1047.25,-205.12 1055.51,-196.57"/>
<polygon fill="#63b8ff" stroke="#63b8ff" points="1057.92,-199.12 1062.35,-189.5 1052.89,-194.25 1057.92,-199.12"/>
</a>
</g>
</g>
<!-- Node27 -->
<g id="Node000027" class="node">
<title>Node27</title>
<g id="a_Node000027"><a xlink:title=" ">
<polygon fill="#e0e0e0" stroke="#999999" points="1147.5,-188 1107.5,-188 1107.5,-168 1147.5,-168 1147.5,-188"/>
<text text-anchor="middle" x="1127.5" y="-174.5" font-family="Helvetica,sans-Serif" font-size="10.00">regex</text>
</a>
</g>
</g>
<!-- Node1&#45;&gt;Node27 -->
<g id="edge37_Node000001_Node000027" class="edge">
<title>Node1&#45;&gt;Node27</title>
<g id="a_edge37_Node000001_Node000027"><a xlink:title=" ">
<path fill="none" stroke="#63b8ff" d="M1043.6,-223.55C1060.93,-214.35 1082.8,-202.74 1099.86,-193.68"/>
<polygon fill="#63b8ff" stroke="#63b8ff" points="1101.25,-196.9 1108.44,-189.12 1097.97,-190.72 1101.25,-196.9"/>
</a>
</g>
</g>
<!-- Node28 -->
<g id="Node000028" class="node">
<title>Node28</title>
<g id="a_Node000028"><a xlink:title=" ">
<polygon fill="#e0e0e0" stroke="#999999" points="1209,-188 1166,-188 1166,-168 1209,-168 1209,-188"/>
<text text-anchor="middle" x="1187.5" y="-174.5" font-family="Helvetica,sans-Serif" font-size="10.00">thread</text>
</a>
</g>
</g>
<!-- Node1&#45;&gt;Node28 -->
<g id="edge38_Node000001_Node000028" class="edge">
<title>Node1&#45;&gt;Node28</title>
<g id="a_edge38_Node000001_Node000028"><a xlink:title=" ">
<path fill="none" stroke="#63b8ff" d="M1059.05,-223.55C1089.01,-213.16 1127.83,-199.7 1154.92,-190.3"/>
<polygon fill="#63b8ff" stroke="#63b8ff" points="1156.01,-193.62 1164.32,-187.04 1153.72,-187.01 1156.01,-193.62"/>
</a>
</g>
</g>
<!-- Node29 -->
<g id="Node000029" class="node">
<title>Node29</title>
<g id="a_Node000029"><a xlink:title=" ">
<polygon fill="#e0e0e0" stroke="#999999" points="1272.12,-188 1226.88,-188 1226.88,-168 1272.12,-168 1272.12,-188"/>
<text text-anchor="middle" x="1249.5" y="-174.5" font-family="Helvetica,sans-Serif" font-size="10.00">variant</text>
</a>
</g>
</g>
<!-- Node1&#45;&gt;Node29 -->
<g id="edge39_Node000001_Node000029" class="edge">
<title>Node1&#45;&gt;Node29</title>
<g id="a_edge39_Node000001_Node000029"><a xlink:title=" ">
<path fill="none" stroke="#63b8ff" d="M1061.62,-227.75C1100.63,-218.32 1157.75,-204.24 1215.68,-188.7"/>
<polygon fill="#63b8ff" stroke="#63b8ff" points="1216.3,-192.16 1225.04,-186.17 1214.48,-185.4 1216.3,-192.16"/>
</a>
</g>
</g>
<!-- Node3 -->
<g id="Node000003" class="node">
<title>Node3</title>
<g id="a_Node000003"><a xlink:title=" ">
<polygon fill="#e0e0e0" stroke="#999999" points="1157.88,-132 1099.12,-132 1099.12,-112 1157.88,-112 1157.88,-132"/>
<text text-anchor="middle" x="1128.5" y="-118.5" font-family="Helvetica,sans-Serif" font-size="10.00">dpp/dpp.h</text>
</a>
</g>
</g>
<!-- Node2&#45;&gt;Node3 -->
<g id="edge2_Node000002_Node000003" class="edge">
<title>Node2&#45;&gt;Node3</title>
<g id="a_edge2_Node000002_Node000003"><a xlink:title=" ">
<path fill="none" stroke="#63b8ff" d="M777.71,-169.77C780.67,-169.12 783.64,-168.52 786.5,-168 916.87,-144.51 954.55,-155.12 1087.67,-132.33"/>
<polygon fill="#63b8ff" stroke="#63b8ff" points="1087.96,-135.83 1097.21,-130.66 1086.75,-128.93 1087.96,-135.83"/>
</a>
</g>
</g>
<!-- Node4 -->
<g id="Node000004" class="node">
<title>Node4</title>
<g id="a_Node000004"><a xlink:title=" ">
<polygon fill="#e0e0e0" stroke="#999999" points="1267,-132 1176,-132 1176,-112 1267,-112 1267,-132"/>
<text text-anchor="middle" x="1221.5" y="-118.5" font-family="Helvetica,sans-Serif" font-size="10.00">dpp/misc&#45;enum.h</text>
</a>
</g>
</g>
<!-- Node2&#45;&gt;Node4 -->
<g id="edge3_Node000002_Node000004" class="edge">
<title>Node2&#45;&gt;Node4</title>
<g id="a_edge3_Node000002_Node000004"><a xlink:title=" ">
<path fill="none" stroke="#63b8ff" d="M777.69,-169.7C780.66,-169.06 783.63,-168.48 786.5,-168 950.2,-140.48 996.28,-153.14 1164.37,-132.18"/>
<polygon fill="#63b8ff" stroke="#63b8ff" points="1164.64,-135.67 1174.12,-130.94 1163.76,-128.73 1164.64,-135.67"/>
</a>
</g>
</g>
<!-- Node5 -->
<g id="Node000005" class="node">
<title>Node5</title>
<g id="a_Node000005"><a xlink:title=" ">
<polygon fill="#e0e0e0" stroke="#999999" points="1345.62,-132 1285.38,-132 1285.38,-112 1345.62,-112 1345.62,-132"/>
<text text-anchor="middle" x="1315.5" y="-118.5" font-family="Helvetica,sans-Serif" font-size="10.00">fmt/core.h</text>
</a>
</g>
</g>
<!-- Node2&#45;&gt;Node5 -->
<g id="edge4_Node000002_Node000005" class="edge">
<title>Node2&#45;&gt;Node5</title>
<g id="a_edge4_Node000002_Node000005"><a xlink:title=" ">
<path fill="none" stroke="#63b8ff" d="M777.68,-169.64C780.65,-169.01 783.63,-168.45 786.5,-168 998.53,-134.66 1058.55,-163.62 1273.57,-132.22"/>
<polygon fill="#63b8ff" stroke="#63b8ff" points="1274.06,-135.68 1283.43,-130.75 1273.02,-128.76 1274.06,-135.68"/>
</a>
</g>
</g>
<!-- Node6 -->
<g id="Node000006" class="node">
<title>Node6</title>
<g id="a_Node000006"><a xlink:href="Database_8hpp.html" target="_top" xlink:title=" ">
<polygon fill="white" stroke="#666666" points="259.88,-132 183.12,-132 183.12,-112 259.88,-112 259.88,-132"/>
<text text-anchor="middle" x="221.5" y="-118.5" font-family="Helvetica,sans-Serif" font-size="10.00">Database.hpp</text>
</a>
</g>
</g>
<!-- Node2&#45;&gt;Node6 -->
<g id="edge5_Node000002_Node000006" class="edge">
<title>Node2&#45;&gt;Node6</title>
<g id="a_edge5_Node000002_Node000006"><a xlink:title=" ">
<path fill="none" stroke="#63b8ff" d="M721.2,-175.3C648.34,-170.74 448.2,-156.92 271.51,-132.31"/>
<polygon fill="#63b8ff" stroke="#63b8ff" points="272.07,-128.85 261.68,-130.92 271.09,-135.78 272.07,-128.85"/>
</a>
</g>
</g>
<!-- Node15 -->
<g id="Node000015" class="node">
<title>Node15</title>
<g id="a_Node000015"><a xlink:href="IButtonCommand_8hpp.html" target="_top" xlink:title=" ">
<polygon fill="white" stroke="#666666" points="805.12,-132 693.88,-132 693.88,-112 805.12,-112 805.12,-132"/>
<text text-anchor="middle" x="749.5" y="-118.5" font-family="Helvetica,sans-Serif" font-size="10.00">IButtonCommand.hpp</text>
</a>
</g>
</g>
<!-- Node2&#45;&gt;Node15 -->
<g id="edge15_Node000002_Node000015" class="edge">
<title>Node2&#45;&gt;Node15</title>
<g id="a_edge15_Node000002_Node000015"><a xlink:title=" ">
<path fill="none" stroke="#63b8ff" d="M749.5,-167.59C749.5,-161.01 749.5,-151.96 749.5,-143.73"/>
<polygon fill="#63b8ff" stroke="#63b8ff" points="753,-143.81 749.5,-133.81 746,-143.81 753,-143.81"/>
</a>
</g>
</g>
<!-- Node18 -->
<g id="Node000018" class="node">
<title>Node18</title>
<g id="a_Node000018"><a xlink:href="IFormCommand_8hpp.html" target="_top" xlink:title=" ">
<polygon fill="white" stroke="#666666" points="928.12,-132 822.88,-132 822.88,-112 928.12,-112 928.12,-132"/>
<text text-anchor="middle" x="875.5" y="-118.5" font-family="Helvetica,sans-Serif" font-size="10.00">IFormCommand.hpp</text>
</a>
</g>
</g>
<!-- Node2&#45;&gt;Node18 -->
<g id="edge18_Node000002_Node000018" class="edge">
<title>Node2&#45;&gt;Node18</title>
<g id="a_edge18_Node000002_Node000018"><a xlink:title=" ">
<path fill="none" stroke="#63b8ff" d="M771.45,-167.59C791.2,-159.13 820.49,-146.58 842.97,-136.94"/>
<polygon fill="#63b8ff" stroke="#63b8ff" points="844.18,-140.23 851.99,-133.08 841.42,-133.8 844.18,-140.23"/>
</a>
</g>
</g>
<!-- Node19 -->
<g id="Node000019" class="node">
<title>Node19</title>
<g id="a_Node000019"><a xlink:href="IGlobalSlashCommand_8hpp.html" target="_top" xlink:title=" ">
<polygon fill="white" stroke="#666666" points="1081.12,-132 945.88,-132 945.88,-112 1081.12,-112 1081.12,-132"/>
<text text-anchor="middle" x="1013.5" y="-118.5" font-family="Helvetica,sans-Serif" font-size="10.00">IGlobalSlashCommand.hpp</text>
</a>
</g>
</g>
<!-- Node2&#45;&gt;Node19 -->
<g id="edge21_Node000002_Node000019" class="edge">
<title>Node2&#45;&gt;Node19</title>
<g id="a_edge21_Node000002_Node000019"><a xlink:title=" ">
<path fill="none" stroke="#63b8ff" d="M777.75,-170C780.7,-169.3 783.66,-168.63 786.5,-168 842.02,-155.75 905.52,-143.29 951.21,-134.6"/>
<polygon fill="#63b8ff" stroke="#63b8ff" points="951.77,-138.06 960.94,-132.76 950.47,-131.18 951.77,-138.06"/>
</a>
</g>
</g>
<!-- Node20 -->
<g id="Node000020" class="node">
<title>Node20</title>
<g id="a_Node000020"><a xlink:href="IMemberCommand_8hpp.html" target="_top" xlink:title=" ">
<polygon fill="white" stroke="#666666" points="395.5,-132 277.5,-132 277.5,-112 395.5,-112 395.5,-132"/>
<text text-anchor="middle" x="336.5" y="-118.5" font-family="Helvetica,sans-Serif" font-size="10.00">IMemberCommand.hpp</text>
</a>
</g>
</g>
<!-- Node2&#45;&gt;Node20 -->
<g id="edge24_Node000002_Node000020" class="edge">
<title>Node2&#45;&gt;Node20</title>
<g id="a_edge24_Node000002_Node000020"><a xlink:title=" ">
<path fill="none" stroke="#63b8ff" d="M721.32,-173.34C664.19,-165.92 530.33,-148.52 406.98,-132.32"/>
<polygon fill="#63b8ff" stroke="#63b8ff" points="407.71,-128.89 397.34,-131.06 406.8,-135.83 407.71,-128.89"/>
</a>
</g>
</g>
<!-- Node21 -->
<g id="Node000021" class="node">
<title>Node21</title>
<g id="a_Node000021"><a xlink:href="IMessageCommand_8hpp.html" target="_top" xlink:title=" ">
<polygon fill="white" stroke="#666666" points="535.75,-132 413.25,-132 413.25,-112 535.75,-112 535.75,-132"/>
<text text-anchor="middle" x="474.5" y="-118.5" font-family="Helvetica,sans-Serif" font-size="10.00">IMessageCommand.hpp</text>
</a>
</g>
</g>
<!-- Node2&#45;&gt;Node21 -->
<g id="edge27_Node000002_Node000021" class="edge">
<title>Node2&#45;&gt;Node21</title>
<g id="a_edge27_Node000002_Node000021"><a xlink:title=" ">
<path fill="none" stroke="#63b8ff" d="M721.36,-171.47C677.54,-162.87 591.99,-146.07 534.04,-134.69"/>
<polygon fill="#63b8ff" stroke="#63b8ff" points="534.81,-131.28 524.33,-132.78 533.47,-138.15 534.81,-131.28"/>
</a>
</g>
</g>
<!-- Node22 -->
<g id="Node000022" class="node">
<title>Node22</title>
<g id="a_Node000022"><a xlink:href="IReactionCommand_8hpp.html" target="_top" xlink:title=" ">
<polygon fill="white" stroke="#666666" points="675.38,-132 553.62,-132 553.62,-112 675.38,-112 675.38,-132"/>
<text text-anchor="middle" x="614.5" y="-118.5" font-family="Helvetica,sans-Serif" font-size="10.00">IReactionCommand.hpp</text>
</a>
</g>
</g>
<!-- Node2&#45;&gt;Node22 -->
<g id="edge30_Node000002_Node000022" class="edge">
<title>Node2&#45;&gt;Node22</title>
<g id="a_edge30_Node000002_Node000022"><a xlink:title=" ">
<path fill="none" stroke="#63b8ff" d="M725.98,-167.59C704.63,-159.05 672.87,-146.35 648.7,-136.68"/>
<polygon fill="#63b8ff" stroke="#63b8ff" points="650.19,-133.51 639.6,-133.04 647.59,-140.01 650.19,-133.51"/>
</a>
</g>
</g>
<!-- Node7 -->
<g id="Node000007" class="node">
<title>Node7</title>
<g id="a_Node000007"><a xlink:title=" ">
<polygon fill="#e0e0e0" stroke="#999999" points="476.62,-76 428.38,-76 428.38,-56 476.62,-56 476.62,-76"/>
<text text-anchor="middle" x="452.5" y="-62.5" font-family="Helvetica,sans-Serif" font-size="10.00">cstddef</text>
</a>
</g>
</g>
<!-- Node6&#45;&gt;Node7 -->
<g id="edge6_Node000006_Node000007" class="edge">
<title>Node6&#45;&gt;Node7</title>
<g id="a_edge6_Node000006_Node000007"><a xlink:title=" ">
<path fill="none" stroke="#63b8ff" d="M260.32,-112.69C298.05,-104.5 357.25,-91.36 417.22,-76.5"/>
<polygon fill="#63b8ff" stroke="#63b8ff" points="417.7,-79.98 426.55,-74.17 416,-73.19 417.7,-79.98"/>
</a>
</g>
</g>
<!-- Node8 -->
<g id="Node000008" class="node">
<title>Node8</title>
<g id="a_Node000008"><a xlink:title=" ">
<polygon fill="#e0e0e0" stroke="#999999" points="548.25,-76 494.75,-76 494.75,-56 548.25,-56 548.25,-76"/>
<text text-anchor="middle" x="521.5" y="-62.5" font-family="Helvetica,sans-Serif" font-size="10.00">iostream</text>
</a>
</g>
</g>
<!-- Node6&#45;&gt;Node8 -->
<g id="edge7_Node000006_Node000008" class="edge">
<title>Node6&#45;&gt;Node8</title>
<g id="a_edge7_Node000006_Node000008"><a xlink:title=" ">
<path fill="none" stroke="#63b8ff" d="M260.21,-113.51C263.02,-112.99 265.8,-112.48 268.5,-112 361.26,-95.43 387.88,-95.82 483.39,-76.3"/>
<polygon fill="#63b8ff" stroke="#63b8ff" points="483.86,-79.77 492.94,-74.32 482.44,-72.92 483.86,-79.77"/>
</a>
</g>
</g>
<!-- Node9 -->
<g id="Node000009" class="node">
<title>Node9</title>
<g id="a_Node000009"><a xlink:title=" ">
<polygon fill="#e0e0e0" stroke="#999999" points="110.38,-76 60.62,-76 60.62,-56 110.38,-56 110.38,-76"/>
<text text-anchor="middle" x="85.5" y="-62.5" font-family="Helvetica,sans-Serif" font-size="10.00">optional</text>
</a>
</g>
</g>
<!-- Node6&#45;&gt;Node9 -->
<g id="edge8_Node000006_Node000009" class="edge">
<title>Node6&#45;&gt;Node9</title>
<g id="a_edge8_Node000006_Node000009"><a xlink:title=" ">
<path fill="none" stroke="#63b8ff" d="M197.81,-111.59C176.3,-103.05 144.3,-90.35 119.96,-80.68"/>
<polygon fill="#63b8ff" stroke="#63b8ff" points="121.37,-77.48 110.78,-77.04 118.78,-83.98 121.37,-77.48"/>
</a>
</g>
</g>
<!-- Node10 -->
<g id="Node000010" class="node">
<title>Node10</title>
<g id="a_Node000010"><a xlink:title=" ">
<polygon fill="#e0e0e0" stroke="#999999" points="210,-20 149,-20 149,0 210,0 210,-20"/>
<text text-anchor="middle" x="179.5" y="-6.5" font-family="Helvetica,sans-Serif" font-size="10.00">pqxx/pqxx</text>
</a>
</g>
</g>
<!-- Node6&#45;&gt;Node10 -->
<g id="edge9_Node000006_Node000010" class="edge">
<title>Node6&#45;&gt;Node10</title>
<g id="a_edge9_Node000006_Node000010"><a xlink:title=" ">
<path fill="none" stroke="#63b8ff" d="M198.43,-111.57C183.8,-104.24 166.08,-92.51 157.5,-76 149.71,-61 157.31,-42.67 165.63,-29.3"/>
<polygon fill="#63b8ff" stroke="#63b8ff" points="168.26,-31.66 171.04,-21.43 162.49,-27.69 168.26,-31.66"/>
</a>
</g>
</g>
<!-- Node11 -->
<g id="Node000011" class="node">
<title>Node11</title>
<g id="a_Node000011"><a xlink:title=" ">
<polygon fill="#e0e0e0" stroke="#999999" points="334.5,-76 294.5,-76 294.5,-56 334.5,-56 334.5,-76"/>
<text text-anchor="middle" x="314.5" y="-62.5" font-family="Helvetica,sans-Serif" font-size="10.00">string</text>
</a>
</g>
</g>
<!-- Node6&#45;&gt;Node11 -->
<g id="edge10_Node000006_Node000011" class="edge">
<title>Node6&#45;&gt;Node11</title>
<g id="a_edge10_Node000006_Node000011"><a xlink:title=" ">
<path fill="none" stroke="#63b8ff" d="M237.7,-111.59C251.75,-103.44 272.33,-91.48 288.66,-82"/>
<polygon fill="#63b8ff" stroke="#63b8ff" points="289.97,-85.29 296.87,-77.24 286.46,-79.23 289.97,-85.29"/>
</a>
</g>
</g>
<!-- Node12 -->
<g id="Node000012" class="node">
<title>Node12</title>
<g id="a_Node000012"><a xlink:title=" ">
<polygon fill="#e0e0e0" stroke="#999999" points="410.5,-76 352.5,-76 352.5,-56 410.5,-56 410.5,-76"/>
<text text-anchor="middle" x="381.5" y="-62.5" font-family="Helvetica,sans-Serif" font-size="10.00">typeindex</text>
</a>
</g>
</g>
<!-- Node6&#45;&gt;Node12 -->
<g id="edge11_Node000006_Node000012" class="edge">
<title>Node6&#45;&gt;Node12</title>
<g id="a_edge11_Node000006_Node000012"><a xlink:title=" ">
<path fill="none" stroke="#63b8ff" d="M249.37,-111.59C275.25,-102.86 314.03,-89.77 342.89,-80.03"/>
<polygon fill="#63b8ff" stroke="#63b8ff" points="343.62,-83.48 351.98,-76.96 341.38,-76.85 343.62,-83.48"/>
</a>
</g>
</g>
<!-- Node6&#45;&gt;Node13 -->
<g id="edge12_Node000006_Node000013" class="edge">
<title>Node6&#45;&gt;Node13</title>
<g id="a_edge12_Node000006_Node000013"><a xlink:title=" ">
<path fill="none" stroke="#63b8ff" d="M184.26,-111.52C152.12,-103.25 104.16,-90.72 54.41,-76.76"/>
<polygon fill="#63b8ff" stroke="#63b8ff" points="55.46,-73.42 44.89,-74.08 53.56,-80.16 55.46,-73.42"/>
</a>
</g>
</g>
<!-- Node14 -->
<g id="Node000014" class="node">
<title>Node14</title>
<g id="a_Node000014"><a xlink:href="RowDTOAdapter_8hpp.html" target="_top" xlink:title=" ">
<polygon fill="white" stroke="#666666" points="276.38,-76 166.62,-76 166.62,-56 276.38,-56 276.38,-76"/>
<text text-anchor="middle" x="221.5" y="-62.5" font-family="Helvetica,sans-Serif" font-size="10.00">RowDTOAdapter.hpp</text>
</a>
</g>
</g>
<!-- Node6&#45;&gt;Node14 -->
<g id="edge13_Node000006_Node000014" class="edge">
<title>Node6&#45;&gt;Node14</title>
<g id="a_edge13_Node000006_Node000014"><a xlink:title=" ">
<path fill="none" stroke="#63b8ff" d="M221.5,-111.59C221.5,-105.01 221.5,-95.96 221.5,-87.73"/>
<polygon fill="#63b8ff" stroke="#63b8ff" points="225,-87.81 221.5,-77.81 218,-87.81 225,-87.81"/>
</a>
</g>
</g>
<!-- Node14&#45;&gt;Node10 -->
<g id="edge14_Node000014_Node000010" class="edge">
<title>Node14&#45;&gt;Node10</title>
<g id="a_edge14_Node000014_Node000010"><a xlink:title=" ">
<path fill="none" stroke="#63b8ff" d="M214.18,-55.59C208.52,-48.32 200.51,-38.02 193.61,-29.15"/>
<polygon fill="#63b8ff" stroke="#63b8ff" points="196.56,-27.24 187.66,-21.49 191.04,-31.54 196.56,-27.24"/>
</a>
</g>
</g>
<!-- Node16 -->
<g id="Node000016" class="node">
<title>Node16</title>
<g id="a_Node000016"><a xlink:title=" ">
<polygon fill="#e0e0e0" stroke="#999999" points="660.62,-76 588.38,-76 588.38,-56 660.62,-56 660.62,-76"/>
<text text-anchor="middle" x="624.5" y="-62.5" font-family="Helvetica,sans-Serif" font-size="10.00">dpp/cluster.h</text>
</a>
</g>
</g>
<!-- Node15&#45;&gt;Node16 -->
<g id="edge16_Node000015_Node000016" class="edge">
<title>Node15&#45;&gt;Node16</title>
<g id="a_edge16_Node000015_Node000016"><a xlink:title=" ">
<path fill="none" stroke="#63b8ff" d="M727.73,-111.59C708.13,-103.13 679.07,-90.58 656.78,-80.94"/>
<polygon fill="#63b8ff" stroke="#63b8ff" points="658.4,-77.83 647.83,-77.08 655.62,-84.26 658.4,-77.83"/>
</a>
</g>
</g>
<!-- Node17 -->
<g id="Node000017" class="node">
<title>Node17</title>
<g id="a_Node000017"><a xlink:title=" ">
<polygon fill="#e0e0e0" stroke="#999999" points="784.5,-76 696.5,-76 696.5,-56 784.5,-56 784.5,-76"/>
<text text-anchor="middle" x="740.5" y="-62.5" font-family="Helvetica,sans-Serif" font-size="10.00">dpp/dispatcher.h</text>
</a>
</g>
</g>
<!-- Node15&#45;&gt;Node17 -->
<g id="edge17_Node000015_Node000017" class="edge">
<title>Node15&#45;&gt;Node17</title>
<g id="a_edge17_Node000015_Node000017"><a xlink:title=" ">
<path fill="none" stroke="#63b8ff" d="M747.93,-111.59C746.82,-104.93 745.29,-95.75 743.91,-87.44"/>
<polygon fill="#63b8ff" stroke="#63b8ff" points="747.39,-87.08 742.3,-77.79 740.49,-88.23 747.39,-87.08"/>
</a>
</g>
</g>
<!-- Node18&#45;&gt;Node16 -->
<g id="edge19_Node000018_Node000016" class="edge">
<title>Node18&#45;&gt;Node16</title>
<g id="a_edge19_Node000018_Node000016"><a xlink:title=" ">
<path fill="none" stroke="#63b8ff" d="M831.49,-111.53C786.91,-101.94 718.14,-87.15 672.26,-77.27"/>
<polygon fill="#63b8ff" stroke="#63b8ff" points="673.1,-73.88 662.59,-75.19 671.63,-80.72 673.1,-73.88"/>
</a>
</g>
</g>
<!-- Node18&#45;&gt;Node17 -->
<g id="edge20_Node000018_Node000017" class="edge">
<title>Node18&#45;&gt;Node17</title>
<g id="a_edge20_Node000018_Node000017"><a xlink:title=" ">
<path fill="none" stroke="#63b8ff" d="M851.98,-111.59C830.63,-103.05 798.87,-90.35 774.7,-80.68"/>
<polygon fill="#63b8ff" stroke="#63b8ff" points="776.19,-77.51 765.6,-77.04 773.59,-84.01 776.19,-77.51"/>
</a>
</g>
</g>
<!-- Node19&#45;&gt;Node16 -->
<g id="edge22_Node000019_Node000016" class="edge">
<title>Node19&#45;&gt;Node16</title>
<g id="a_edge22_Node000019_Node000016"><a xlink:title=" ">
<path fill="none" stroke="#63b8ff" d="M945.43,-111.7C879.47,-102.66 776.61,-88.52 687.5,-76 682.5,-75.3 677.28,-74.56 672.08,-73.82"/>
<polygon fill="#63b8ff" stroke="#63b8ff" points="672.7,-70.37 662.31,-72.43 671.71,-77.3 672.7,-70.37"/>
</a>
</g>
</g>
<!-- Node19&#45;&gt;Node17 -->
<g id="edge23_Node000019_Node000017" class="edge">
<title>Node19&#45;&gt;Node17</title>
<g id="a_edge23_Node000019_Node000017"><a xlink:title=" ">
<path fill="none" stroke="#63b8ff" d="M965.63,-111.53C918.25,-102.16 845.76,-87.82 795.91,-77.96"/>
<polygon fill="#63b8ff" stroke="#63b8ff" points="796.67,-74.54 786.18,-76.04 795.31,-81.41 796.67,-74.54"/>
</a>
</g>
</g>
<!-- Node20&#45;&gt;Node16 -->
<g id="edge25_Node000020_Node000016" class="edge">
<title>Node20&#45;&gt;Node16</title>
<g id="a_edge25_Node000020_Node000016"><a xlink:title=" ">
<path fill="none" stroke="#63b8ff" d="M387,-111.53C440.65,-101.47 524.82,-85.69 577.22,-75.87"/>
<polygon fill="#63b8ff" stroke="#63b8ff" points="577.54,-79.37 586.73,-74.08 576.25,-72.49 577.54,-79.37"/>
</a>
</g>
</g>
<!-- Node20&#45;&gt;Node17 -->
<g id="edge26_Node000020_Node000017" class="edge">
<title>Node20&#45;&gt;Node17</title>
<g id="a_edge26_Node000020_Node000017"><a xlink:title=" ">
<path fill="none" stroke="#63b8ff" d="M395.68,-113.09C473.44,-102.7 609,-84.58 684.93,-74.43"/>
<polygon fill="#63b8ff" stroke="#63b8ff" points="685.18,-77.93 694.63,-73.13 684.26,-70.99 685.18,-77.93"/>
</a>
</g>
</g>
<!-- Node21&#45;&gt;Node16 -->
<g id="edge28_Node000021_Node000016" class="edge">
<title>Node21&#45;&gt;Node16</title>
<g id="a_edge28_Node000021_Node000016"><a xlink:title=" ">
<path fill="none" stroke="#63b8ff" d="M500.63,-111.59C524.68,-102.94 560.6,-90 587.58,-80.29"/>
<polygon fill="#63b8ff" stroke="#63b8ff" points="588.52,-83.67 596.74,-76.99 586.15,-77.09 588.52,-83.67"/>
</a>
</g>
</g>
<!-- Node21&#45;&gt;Node17 -->
<g id="edge29_Node000021_Node000017" class="edge">
<title>Node21&#45;&gt;Node17</title>
<g id="a_edge29_Node000021_Node000017"><a xlink:title=" ">
<path fill="none" stroke="#63b8ff" d="M521.14,-111.53C566.8,-102.26 636.38,-88.14 684.89,-78.29"/>
<polygon fill="#63b8ff" stroke="#63b8ff" points="685.54,-81.73 694.65,-76.31 684.15,-74.87 685.54,-81.73"/>
</a>
</g>
</g>
<!-- Node22&#45;&gt;Node16 -->
<g id="edge31_Node000022_Node000016" class="edge">
<title>Node22&#45;&gt;Node16</title>
<g id="a_edge31_Node000022_Node000016"><a xlink:title=" ">
<path fill="none" stroke="#63b8ff" d="M616.24,-111.59C617.48,-104.93 619.18,-95.75 620.71,-87.44"/>
<polygon fill="#63b8ff" stroke="#63b8ff" points="624.12,-88.26 622.5,-77.79 617.24,-86.98 624.12,-88.26"/>
</a>
</g>
</g>
<!-- Node22&#45;&gt;Node17 -->
<g id="edge32_Node000022_Node000017" class="edge">
<title>Node22&#45;&gt;Node17</title>
<g id="a_edge32_Node000022_Node000017"><a xlink:title=" ">
<path fill="none" stroke="#63b8ff" d="M636.45,-111.59C656.2,-103.13 685.49,-90.58 707.97,-80.94"/>
<polygon fill="#63b8ff" stroke="#63b8ff" points="709.18,-84.23 716.99,-77.08 706.42,-77.8 709.18,-84.23"/>
</a>
</g>
</g>
</g>
</svg>
