<?xml version="1.0" encoding="UTF-8" standalone="no"?>
<!DOCTYPE svg PUBLIC "-//W3C//DTD SVG 1.1//EN"
 "http://www.w3.org/Graphics/SVG/1.1/DTD/svg11.dtd">
<!-- Generated by graphviz version 9.0.0 (0)
 -->
<!-- Title: src/bot_library/bot/core/include/Core.hpp Pages: 1 -->
<svg width="1264pt" height="312pt"
 viewBox="0.00 0.00 1264.00 312.00" xmlns="http://www.w3.org/2000/svg" xmlns:xlink="http://www.w3.org/1999/xlink">
<g id="graph0" class="graph" transform="scale(1 1) rotate(0) translate(4 308)">
<title>src/bot_library/bot/core/include/Core.hpp</title>
<!-- Node1 -->
<g id="Node000001" class="node">
<title>Node1</title>
<g id="a_Node000001"><a xlink:title=" ">
<polygon fill="#999999" stroke="#666666" points="693.5,-304 579.25,-304 579.25,-272 693.5,-272 693.5,-304"/>
<text text-anchor="start" x="587.25" y="-290.5" font-family="Helvetica,sans-Serif" font-size="10.00">src/bot_library/bot</text>
<text text-anchor="middle" x="636.38" y="-278.5" font-family="Helvetica,sans-Serif" font-size="10.00">/core/include/Core.hpp</text>
</a>
</g>
</g>
<!-- Node2 -->
<g id="Node000002" class="node">
<title>Node2</title>
<g id="a_Node000002"><a xlink:href="Core_8cpp.html" target="_top" xlink:title=" ">
<polygon fill="white" stroke="#666666" points="174.38,-236 80.38,-236 80.38,-204 174.38,-204 174.38,-236"/>
<text text-anchor="start" x="88.38" y="-222.5" font-family="Helvetica,sans-Serif" font-size="10.00">src/bot_library/bot</text>
<text text-anchor="middle" x="127.38" y="-210.5" font-family="Helvetica,sans-Serif" font-size="10.00">/core/Core.cpp</text>
</a>
</g>
</g>
<!-- Node1&#45;&gt;Node2 -->
<g id="edge1_Node000001_Node000002" class="edge">
<title>Node1&#45;&gt;Node2</title>
<g id="a_edge1_Node000001_Node000002"><a xlink:title=" ">
<path fill="none" stroke="#63b8ff" d="M567.44,-282.46C478.22,-275.85 318.22,-261.5 183.38,-236 180.51,-235.46 177.57,-234.85 174.62,-234.19"/>
<polygon fill="#63b8ff" stroke="#63b8ff" points="567.02,-285.94 577.25,-283.18 567.53,-278.96 567.02,-285.94"/>
</a>
</g>
</g>
<!-- Node3 -->
<g id="Node000003" class="node">
<title>Node3</title>
<g id="a_Node000003"><a xlink:href="Bot_8hpp.html" target="_top" xlink:title=" ">
<polygon fill="white" stroke="#666666" points="286.38,-236 192.38,-236 192.38,-204 286.38,-204 286.38,-236"/>
<text text-anchor="start" x="200.38" y="-222.5" font-family="Helvetica,sans-Serif" font-size="10.00">src/bot_library/bot</text>
<text text-anchor="middle" x="239.38" y="-210.5" font-family="Helvetica,sans-Serif" font-size="10.00">/include/Bot.hpp</text>
</a>
</g>
</g>
<!-- Node1&#45;&gt;Node3 -->
<g id="edge2_Node000001_Node000003" class="edge">
<title>Node1&#45;&gt;Node3</title>
<g id="a_edge2_Node000001_Node000003"><a xlink:title=" ">
<path fill="none" stroke="#63b8ff" d="M568.03,-278.47C499.91,-269.54 392.47,-254.27 300.38,-236 295.88,-235.11 291.22,-234.11 286.57,-233.05"/>
<polygon fill="#63b8ff" stroke="#63b8ff" points="567.16,-281.89 577.53,-279.71 568.06,-274.95 567.16,-281.89"/>
</a>
</g>
</g>
<!-- Node10 -->
<g id="Node000010" class="node">
<title>Node10</title>
<g id="a_Node000010"><a xlink:href="ChallengeRoleCommand_8cpp.html" target="_top" xlink:title=" ">
<polygon fill="white" stroke="#666666" points="544.25,-168 332.5,-168 332.5,-136 544.25,-136 544.25,-168"/>
<text text-anchor="start" x="340.5" y="-154.5" font-family="Helvetica,sans-Serif" font-size="10.00">src/bot_library/commands</text>
<text text-anchor="middle" x="438.38" y="-142.5" font-family="Helvetica,sans-Serif" font-size="10.00">/challenge_role/ChallengeRoleCommand.cpp</text>
</a>
</g>
</g>
<!-- Node1&#45;&gt;Node10 -->
<g id="edge10_Node000001_Node000010" class="edge">
<title>Node1&#45;&gt;Node10</title>
<g id="a_edge10_Node000001_Node000010"><a xlink:title=" ">
<path fill="none" stroke="#63b8ff" d="M567.54,-285.36C487.55,-281.83 362.76,-270.74 333.38,-236 324.19,-225.14 325.83,-216.05 333.38,-204 343.75,-187.42 361.23,-176.1 378.97,-168.42"/>
<polygon fill="#63b8ff" stroke="#63b8ff" points="567.35,-288.85 577.48,-285.77 567.64,-281.86 567.35,-288.85"/>
</a>
</g>
</g>
<!-- Node11 -->
<g id="Node000011" class="node">
<title>Node11</title>
<g id="a_Node000011"><a xlink:href="ChallengeRoleCommand_8hpp.html" target="_top" xlink:title=" ">
<polygon fill="white" stroke="#666666" points="554.25,-236 342.5,-236 342.5,-204 554.25,-204 554.25,-236"/>
<text text-anchor="start" x="350.5" y="-222.5" font-family="Helvetica,sans-Serif" font-size="10.00">src/bot_library/commands</text>
<text text-anchor="middle" x="448.38" y="-210.5" font-family="Helvetica,sans-Serif" font-size="10.00">/challenge_role/ChallengeRoleCommand.hpp</text>
</a>
</g>
</g>
<!-- Node1&#45;&gt;Node11 -->
<g id="edge11_Node000001_Node000011" class="edge">
<title>Node1&#45;&gt;Node11</title>
<g id="a_edge11_Node000001_Node000011"><a xlink:title=" ">
<path fill="none" stroke="#63b8ff" d="M581.74,-267.82C553.37,-257.86 519.17,-245.85 492.5,-236.49"/>
<polygon fill="#63b8ff" stroke="#63b8ff" points="580.27,-271.01 590.87,-271.02 582.59,-264.41 580.27,-271.01"/>
</a>
</g>
</g>
<!-- Node13 -->
<g id="Node000013" class="node">
<title>Node13</title>
<g id="a_Node000013"><a xlink:href="HelpCommand_8cpp.html" target="_top" xlink:title=" ">
<polygon fill="white" stroke="#666666" points="700.62,-236 572.12,-236 572.12,-204 700.62,-204 700.62,-236"/>
<text text-anchor="start" x="580.12" y="-222.5" font-family="Helvetica,sans-Serif" font-size="10.00">src/bot_library/commands</text>
<text text-anchor="middle" x="636.38" y="-210.5" font-family="Helvetica,sans-Serif" font-size="10.00">/help/HelpCommand.cpp</text>
</a>
</g>
</g>
<!-- Node1&#45;&gt;Node13 -->
<g id="edge14_Node000001_Node000013" class="edge">
<title>Node1&#45;&gt;Node13</title>
<g id="a_edge14_Node000001_Node000013"><a xlink:title=" ">
<path fill="none" stroke="#63b8ff" d="M636.38,-260.31C636.38,-252.12 636.38,-243.38 636.38,-236.22"/>
<polygon fill="#63b8ff" stroke="#63b8ff" points="632.88,-260.18 636.38,-270.18 639.88,-260.18 632.88,-260.18"/>
</a>
</g>
</g>
<!-- Node14 -->
<g id="Node000014" class="node">
<title>Node14</title>
<g id="a_Node000014"><a xlink:href="resource__man_8hpp.html" target="_top" xlink:title=" ">
<polygon fill="white" stroke="#666666" points="863.88,-236 718.88,-236 718.88,-204 863.88,-204 863.88,-236"/>
<text text-anchor="start" x="726.88" y="-222.5" font-family="Helvetica,sans-Serif" font-size="10.00">src/bot_library/commands</text>
<text text-anchor="middle" x="791.38" y="-210.5" font-family="Helvetica,sans-Serif" font-size="10.00">/resources/resource_man.hpp</text>
</a>
</g>
</g>
<!-- Node1&#45;&gt;Node14 -->
<g id="edge15_Node000001_Node000014" class="edge">
<title>Node1&#45;&gt;Node14</title>
<g id="a_edge15_Node000001_Node000014"><a xlink:title=" ">
<path fill="none" stroke="#63b8ff" d="M683.28,-267.03C706.29,-257.23 733.59,-245.61 754.99,-236.49"/>
<polygon fill="#63b8ff" stroke="#63b8ff" points="681.94,-263.79 674.11,-270.93 684.68,-270.24 681.94,-263.79"/>
</a>
</g>
</g>
<!-- Node15 -->
<g id="Node000015" class="node">
<title>Node15</title>
<g id="a_Node000015"><a xlink:href="roles_8hpp.html" target="_top" xlink:title=" ">
<polygon fill="white" stroke="#666666" points="1010.62,-236 882.12,-236 882.12,-204 1010.62,-204 1010.62,-236"/>
<text text-anchor="start" x="890.12" y="-222.5" font-family="Helvetica,sans-Serif" font-size="10.00">src/bot_library/commands</text>
<text text-anchor="middle" x="946.38" y="-210.5" font-family="Helvetica,sans-Serif" font-size="10.00">/roles/roles.hpp</text>
</a>
</g>
</g>
<!-- Node1&#45;&gt;Node15 -->
<g id="edge16_Node000001_Node000015" class="edge">
<title>Node1&#45;&gt;Node15</title>
<g id="a_edge16_Node000001_Node000015"><a xlink:title=" ">
<path fill="none" stroke="#63b8ff" d="M704.91,-272.41C757.69,-261.17 830.13,-245.75 881.87,-234.73"/>
<polygon fill="#63b8ff" stroke="#63b8ff" points="704.49,-268.92 695.44,-274.43 705.95,-275.77 704.49,-268.92"/>
</a>
</g>
</g>
<!-- Node16 -->
<g id="Node000016" class="node">
<title>Node16</title>
<g id="a_Node000016"><a xlink:href="SetChannelCommand_8cpp.html" target="_top" xlink:title=" ">
<polygon fill="white" stroke="#666666" points="1194,-168 1004.75,-168 1004.75,-136 1194,-136 1194,-168"/>
<text text-anchor="start" x="1012.75" y="-154.5" font-family="Helvetica,sans-Serif" font-size="10.00">src/bot_library/commands</text>
<text text-anchor="middle" x="1099.38" y="-142.5" font-family="Helvetica,sans-Serif" font-size="10.00">/set_channel/SetChannelCommand.cpp</text>
</a>
</g>
</g>
<!-- Node1&#45;&gt;Node16 -->
<g id="edge17_Node000001_Node000016" class="edge">
<title>Node1&#45;&gt;Node16</title>
<g id="a_edge17_Node000001_Node000016"><a xlink:title=" ">
<path fill="none" stroke="#63b8ff" d="M704.98,-283.28C799.94,-277.23 965.8,-263.08 1019.38,-236 1035.45,-227.87 1068.47,-190.14 1086.66,-168.45"/>
<polygon fill="#63b8ff" stroke="#63b8ff" points="705.04,-279.77 695.27,-283.89 705.47,-286.76 705.04,-279.77"/>
</a>
</g>
</g>
<!-- Node17 -->
<g id="Node000017" class="node">
<title>Node17</title>
<g id="a_Node000017"><a xlink:href="SetChannelCommand_8hpp.html" target="_top" xlink:title=" ">
<polygon fill="white" stroke="#666666" points="1256,-236 1066.75,-236 1066.75,-204 1256,-204 1256,-236"/>
<text text-anchor="start" x="1074.75" y="-222.5" font-family="Helvetica,sans-Serif" font-size="10.00">src/bot_library/commands</text>
<text text-anchor="middle" x="1161.38" y="-210.5" font-family="Helvetica,sans-Serif" font-size="10.00">/set_channel/SetChannelCommand.hpp</text>
</a>
</g>
</g>
<!-- Node1&#45;&gt;Node17 -->
<g id="edge18_Node000001_Node000017" class="edge">
<title>Node1&#45;&gt;Node17</title>
<g id="a_edge18_Node000001_Node000017"><a xlink:title=" ">
<path fill="none" stroke="#63b8ff" d="M705.18,-278.88C787.71,-269.07 930.23,-251.89 1052.38,-236 1056.92,-235.41 1061.57,-234.8 1066.27,-234.17"/>
<polygon fill="#63b8ff" stroke="#63b8ff" points="704.97,-275.38 695.45,-280.04 705.79,-282.33 704.97,-275.38"/>
</a>
</g>
</g>
<!-- Node4 -->
<g id="Node000004" class="node">
<title>Node4</title>
<g id="a_Node000004"><a xlink:href="BotLibrary_8cpp.html" target="_top" xlink:title=" ">
<polygon fill="white" stroke="#666666" points="142.75,-94 0,-94 0,-74 142.75,-74 142.75,-94"/>
<text text-anchor="middle" x="71.38" y="-80.5" font-family="Helvetica,sans-Serif" font-size="10.00">src/bot_library/BotLibrary.cpp</text>
</a>
</g>
</g>
<!-- Node3&#45;&gt;Node4 -->
<g id="edge3_Node000003_Node000004" class="edge">
<title>Node3&#45;&gt;Node4</title>
<g id="a_edge3_Node000003_Node000004"><a xlink:title=" ">
<path fill="none" stroke="#63b8ff" d="M181.04,-202.78C131.2,-188.79 67.21,-170.45 65.38,-168 48.92,-146.03 60.2,-110.95 67.1,-94.32"/>
<polygon fill="#63b8ff" stroke="#63b8ff" points="180.05,-206.14 190.62,-205.47 181.93,-199.4 180.05,-206.14"/>
</a>
</g>
</g>
<!-- Node5 -->
<g id="Node000005" class="node">
<title>Node5</title>
<g id="a_Node000005"><a xlink:href="Bot_8cpp.html" target="_top" xlink:title=" ">
<polygon fill="white" stroke="#666666" points="168.38,-168 74.38,-168 74.38,-136 168.38,-136 168.38,-168"/>
<text text-anchor="start" x="82.38" y="-154.5" font-family="Helvetica,sans-Serif" font-size="10.00">src/bot_library/bot</text>
<text text-anchor="middle" x="121.38" y="-142.5" font-family="Helvetica,sans-Serif" font-size="10.00">/Bot.cpp</text>
</a>
</g>
</g>
<!-- Node3&#45;&gt;Node5 -->
<g id="edge4_Node000003_Node000005" class="edge">
<title>Node3&#45;&gt;Node5</title>
<g id="a_edge4_Node000003_Node000005"><a xlink:title=" ">
<path fill="none" stroke="#63b8ff" d="M201.95,-198.07C184.73,-188.44 164.67,-177.21 148.87,-168.38"/>
<polygon fill="#63b8ff" stroke="#63b8ff" points="199.95,-200.96 210.39,-202.79 203.37,-194.85 199.95,-200.96"/>
</a>
</g>
</g>
<!-- Node6 -->
<g id="Node000006" class="node">
<title>Node6</title>
<g id="a_Node000006"><a xlink:href="Commands_8hpp.html" target="_top" xlink:title=" ">
<polygon fill="white" stroke="#666666" points="314.62,-168 186.12,-168 186.12,-136 314.62,-136 314.62,-168"/>
<text text-anchor="start" x="194.12" y="-154.5" font-family="Helvetica,sans-Serif" font-size="10.00">src/bot_library/commands</text>
<text text-anchor="middle" x="250.38" y="-142.5" font-family="Helvetica,sans-Serif" font-size="10.00">/include/Commands.hpp</text>
</a>
</g>
</g>
<!-- Node3&#45;&gt;Node6 -->
<g id="edge5_Node000003_Node000006" class="edge">
<title>Node3&#45;&gt;Node6</title>
<g id="a_edge5_Node000003_Node000006"><a xlink:title=" ">
<path fill="none" stroke="#63b8ff" d="M243.77,-192.6C245.16,-184.32 246.63,-175.46 247.84,-168.22"/>
<polygon fill="#63b8ff" stroke="#63b8ff" points="240.37,-191.76 242.18,-202.2 247.27,-192.91 240.37,-191.76"/>
</a>
</g>
</g>
<!-- Node6&#45;&gt;Node4 -->
<g id="edge6_Node000006_Node000004" class="edge">
<title>Node6&#45;&gt;Node4</title>
<g id="a_edge6_Node000006_Node000004"><a xlink:title=" ">
<path fill="none" stroke="#63b8ff" d="M197.95,-131.67C164.74,-119.42 123.26,-104.13 97.03,-94.46"/>
<polygon fill="#63b8ff" stroke="#63b8ff" points="196.39,-134.83 206.99,-135 198.82,-128.26 196.39,-134.83"/>
</a>
</g>
</g>
<!-- Node7 -->
<g id="Node000007" class="node">
<title>Node7</title>
<g id="a_Node000007"><a xlink:href="Commands_8cpp.html" target="_top" xlink:title=" ">
<polygon fill="white" stroke="#666666" points="301.62,-100 173.12,-100 173.12,-68 301.62,-68 301.62,-100"/>
<text text-anchor="start" x="181.12" y="-86.5" font-family="Helvetica,sans-Serif" font-size="10.00">src/bot_library/commands</text>
<text text-anchor="middle" x="237.38" y="-74.5" font-family="Helvetica,sans-Serif" font-size="10.00">/Commands.cpp</text>
</a>
</g>
</g>
<!-- Node6&#45;&gt;Node7 -->
<g id="edge7_Node000006_Node000007" class="edge">
<title>Node6&#45;&gt;Node7</title>
<g id="a_edge7_Node000006_Node000007"><a xlink:title=" ">
<path fill="none" stroke="#63b8ff" d="M245.18,-124.6C243.54,-116.32 241.8,-107.46 240.37,-100.22"/>
<polygon fill="#63b8ff" stroke="#63b8ff" points="241.7,-125.07 247.07,-134.21 248.57,-123.72 241.7,-125.07"/>
</a>
</g>
</g>
<!-- Node8 -->
<g id="Node000008" class="node">
<title>Node8</title>
<g id="a_Node000008"><a xlink:href="PongCommand_8hpp.html" target="_top" xlink:title=" ">
<polygon fill="white" stroke="#666666" points="449,-100 319.75,-100 319.75,-68 449,-68 449,-100"/>
<text text-anchor="start" x="327.75" y="-86.5" font-family="Helvetica,sans-Serif" font-size="10.00">src/bot_library/commands</text>
<text text-anchor="middle" x="384.38" y="-74.5" font-family="Helvetica,sans-Serif" font-size="10.00">/pong/PongCommand.hpp</text>
</a>
</g>
</g>
<!-- Node6&#45;&gt;Node8 -->
<g id="edge8_Node000006_Node000008" class="edge">
<title>Node6&#45;&gt;Node8</title>
<g id="a_edge8_Node000006_Node000008"><a xlink:title=" ">
<path fill="none" stroke="#63b8ff" d="M292.05,-130.47C311.79,-120.75 334.96,-109.34 353.15,-100.38"/>
<polygon fill="#63b8ff" stroke="#63b8ff" points="290.57,-127.3 283.15,-134.86 293.67,-133.58 290.57,-127.3"/>
</a>
</g>
</g>
<!-- Node9 -->
<g id="Node000009" class="node">
<title>Node9</title>
<g id="a_Node000009"><a xlink:href="PongCommand_8cpp.html" target="_top" xlink:title=" ">
<polygon fill="white" stroke="#666666" points="449,-32 319.75,-32 319.75,0 449,0 449,-32"/>
<text text-anchor="start" x="327.75" y="-18.5" font-family="Helvetica,sans-Serif" font-size="10.00">src/bot_library/commands</text>
<text text-anchor="middle" x="384.38" y="-6.5" font-family="Helvetica,sans-Serif" font-size="10.00">/pong/PongCommand.cpp</text>
</a>
</g>
</g>
<!-- Node8&#45;&gt;Node9 -->
<g id="edge9_Node000008_Node000009" class="edge">
<title>Node8&#45;&gt;Node9</title>
<g id="a_edge9_Node000008_Node000009"><a xlink:title=" ">
<path fill="none" stroke="#63b8ff" d="M384.38,-56.31C384.38,-48.12 384.38,-39.38 384.38,-32.22"/>
<polygon fill="#63b8ff" stroke="#63b8ff" points="380.88,-56.18 384.38,-66.18 387.88,-56.18 380.88,-56.18"/>
</a>
</g>
</g>
<!-- Node11&#45;&gt;Node10 -->
<g id="edge12_Node000011_Node000010" class="edge">
<title>Node11&#45;&gt;Node10</title>
<g id="a_edge12_Node000011_Node000010"><a xlink:title=" ">
<path fill="none" stroke="#63b8ff" d="M444.33,-192.31C443.09,-184.12 441.77,-175.38 440.68,-168.22"/>
<polygon fill="#63b8ff" stroke="#63b8ff" points="440.87,-192.83 445.83,-202.2 447.79,-191.78 440.87,-192.83"/>
</a>
</g>
</g>
<!-- Node12 -->
<g id="Node000012" class="node">
<title>Node12</title>
<g id="a_Node000012"><a xlink:href="ChallengeRoleDTO_8cpp.html" target="_top" xlink:title=" ">
<polygon fill="white" stroke="#666666" points="750.25,-168 562.5,-168 562.5,-136 750.25,-136 750.25,-168"/>
<text text-anchor="start" x="570.5" y="-154.5" font-family="Helvetica,sans-Serif" font-size="10.00">src/bot_library/commands</text>
<text text-anchor="middle" x="656.38" y="-142.5" font-family="Helvetica,sans-Serif" font-size="10.00">/challenge_role/ChallengeRoleDTO.cpp</text>
</a>
</g>
</g>
<!-- Node11&#45;&gt;Node12 -->
<g id="edge13_Node000011_Node000012" class="edge">
<title>Node11&#45;&gt;Node12</title>
<g id="a_edge13_Node000011_Node000012"><a xlink:title=" ">
<path fill="none" stroke="#63b8ff" d="M508,-200.08C539.54,-190.07 577.79,-177.94 607.55,-168.49"/>
<polygon fill="#63b8ff" stroke="#63b8ff" points="507.06,-196.71 498.58,-203.07 509.17,-203.38 507.06,-196.71"/>
</a>
</g>
</g>
<!-- Node17&#45;&gt;Node16 -->
<g id="edge19_Node000017_Node000016" class="edge">
<title>Node17&#45;&gt;Node16</title>
<g id="a_edge19_Node000017_Node000016"><a xlink:title=" ">
<path fill="none" stroke="#63b8ff" d="M1139.23,-195.43C1130.73,-186.38 1121.25,-176.29 1113.68,-168.22"/>
<polygon fill="#63b8ff" stroke="#63b8ff" points="1136.56,-197.7 1145.96,-202.59 1141.66,-192.9 1136.56,-197.7"/>
</a>
</g>
</g>
</g>
</svg>
