<?xml version="1.0" encoding="UTF-8" standalone="no"?>
<!DOCTYPE svg PUBLIC "-//W3C//DTD SVG 1.1//EN"
 "http://www.w3.org/Graphics/SVG/1.1/DTD/svg11.dtd">
<!-- Generated by graphviz version 9.0.0 (0)
 -->
<!-- Title: src/core/Core.cpp Pages: 1 -->
<svg width="1651pt" height="252pt"
 viewBox="0.00 0.00 1650.62 252.00" xmlns="http://www.w3.org/2000/svg" xmlns:xlink="http://www.w3.org/1999/xlink">
<g id="graph0" class="graph" transform="scale(1 1) rotate(0) translate(4 248)">
<title>src/core/Core.cpp</title>
<!-- Node1 -->
<g id="Node000001" class="node">
<title>Node1</title>
<g id="a_Node000001"><a xlink:title=" ">
<polygon fill="#999999" stroke="#666666" points="1243.5,-244 1149.5,-244 1149.5,-224 1243.5,-224 1243.5,-244"/>
<text text-anchor="middle" x="1196.5" y="-230.5" font-family="Helvetica,sans-Serif" font-size="10.00">src/core/Core.cpp</text>
</a>
</g>
</g>
<!-- Node2 -->
<g id="Node000002" class="node">
<title>Node2</title>
<g id="a_Node000002"><a xlink:href="Core_8hpp.html" target="_top" xlink:title=" ">
<polygon fill="white" stroke="#666666" points="959.38,-188 903.62,-188 903.62,-168 959.38,-168 959.38,-188"/>
<text text-anchor="middle" x="931.5" y="-174.5" font-family="Helvetica,sans-Serif" font-size="10.00">Core.hpp</text>
</a>
</g>
</g>
<!-- Node1&#45;&gt;Node2 -->
<g id="edge1_Node000001_Node000002" class="edge">
<title>Node1&#45;&gt;Node2</title>
<g id="a_edge1_Node000001_Node000002"><a xlink:title=" ">
<path fill="none" stroke="#63b8ff" d="M1149.21,-224.29C1105.45,-216.09 1038.31,-203.16 970.99,-188.48"/>
<polygon fill="#63b8ff" stroke="#63b8ff" points="971.75,-185.06 961.23,-186.33 970.25,-191.9 971.75,-185.06"/>
</a>
</g>
</g>
<!-- Node13 -->
<g id="Node000013" class="node">
<title>Node13</title>
<g id="a_Node000013"><a xlink:title=" ">
<polygon fill="#e0e0e0" stroke="#999999" points="43,-76 0,-76 0,-56 43,-56 43,-76"/>
<text text-anchor="middle" x="21.5" y="-62.5" font-family="Helvetica,sans-Serif" font-size="10.00">vector</text>
</a>
</g>
</g>
<!-- Node1&#45;&gt;Node13 -->
<g id="edge40_Node000001_Node000013" class="edge">
<title>Node1&#45;&gt;Node13</title>
<g id="a_edge40_Node000001_Node000013"><a xlink:title=" ">
<path fill="none" stroke="#63b8ff" d="M1149.09,-230.7C971.23,-221.72 344.1,-186.79 152.5,-132 113.02,-120.71 71.15,-97.75 45.65,-82.36"/>
<polygon fill="#63b8ff" stroke="#63b8ff" points="47.74,-79.54 37.39,-77.28 44.07,-85.5 47.74,-79.54"/>
</a>
</g>
</g>
<!-- Node23 -->
<g id="Node000023" class="node">
<title>Node23</title>
<g id="a_Node000023"><a xlink:title=" ">
<polygon fill="#e0e0e0" stroke="#999999" points="1073.25,-188 977.75,-188 977.75,-168 1073.25,-168 1073.25,-188"/>
<text text-anchor="middle" x="1025.5" y="-174.5" font-family="Helvetica,sans-Serif" font-size="10.00">dpp/permissions.h</text>
</a>
</g>
</g>
<!-- Node1&#45;&gt;Node23 -->
<g id="edge33_Node000001_Node000023" class="edge">
<title>Node1&#45;&gt;Node23</title>
<g id="a_edge33_Node000001_Node000023"><a xlink:title=" ">
<path fill="none" stroke="#63b8ff" d="M1166.71,-223.59C1138.93,-214.82 1097.25,-201.66 1066.36,-191.9"/>
<polygon fill="#63b8ff" stroke="#63b8ff" points="1067.55,-188.61 1056.96,-188.94 1065.44,-195.28 1067.55,-188.61"/>
</a>
</g>
</g>
<!-- Node24 -->
<g id="Node000024" class="node">
<title>Node24</title>
<g id="a_Node000024"><a xlink:title=" ">
<polygon fill="#e0e0e0" stroke="#999999" points="1155.88,-188 1091.12,-188 1091.12,-168 1155.88,-168 1155.88,-188"/>
<text text-anchor="middle" x="1123.5" y="-174.5" font-family="Helvetica,sans-Serif" font-size="10.00">dpp/timer.h</text>
</a>
</g>
</g>
<!-- Node1&#45;&gt;Node24 -->
<g id="edge34_Node000001_Node000024" class="edge">
<title>Node1&#45;&gt;Node24</title>
<g id="a_edge34_Node000001_Node000024"><a xlink:title=" ">
<path fill="none" stroke="#63b8ff" d="M1183.78,-223.59C1173.11,-215.7 1157.62,-204.24 1145.02,-194.92"/>
<polygon fill="#63b8ff" stroke="#63b8ff" points="1147.41,-192.33 1137.29,-189.2 1143.24,-197.96 1147.41,-192.33"/>
</a>
</g>
</g>
<!-- Node25 -->
<g id="Node000025" class="node">
<title>Node25</title>
<g id="a_Node000025"><a xlink:title=" ">
<polygon fill="#e0e0e0" stroke="#999999" points="1219.12,-188 1173.88,-188 1173.88,-168 1219.12,-168 1219.12,-188"/>
<text text-anchor="middle" x="1196.5" y="-174.5" font-family="Helvetica,sans-Serif" font-size="10.00">chrono</text>
</a>
</g>
</g>
<!-- Node1&#45;&gt;Node25 -->
<g id="edge35_Node000001_Node000025" class="edge">
<title>Node1&#45;&gt;Node25</title>
<g id="a_edge35_Node000001_Node000025"><a xlink:title=" ">
<path fill="none" stroke="#63b8ff" d="M1196.5,-223.59C1196.5,-217.01 1196.5,-207.96 1196.5,-199.73"/>
<polygon fill="#63b8ff" stroke="#63b8ff" points="1200,-199.81 1196.5,-189.81 1193,-199.81 1200,-199.81"/>
</a>
</g>
</g>
<!-- Node26 -->
<g id="Node000026" class="node">
<title>Node26</title>
<g id="a_Node000026"><a xlink:title=" ">
<polygon fill="#e0e0e0" stroke="#999999" points="1271.88,-188 1237.12,-188 1237.12,-168 1271.88,-168 1271.88,-188"/>
<text text-anchor="middle" x="1254.5" y="-174.5" font-family="Helvetica,sans-Serif" font-size="10.00">ratio</text>
</a>
</g>
</g>
<!-- Node1&#45;&gt;Node26 -->
<g id="edge36_Node000001_Node000026" class="edge">
<title>Node1&#45;&gt;Node26</title>
<g id="a_edge36_Node000001_Node000026"><a xlink:title=" ">
<path fill="none" stroke="#63b8ff" d="M1206.6,-223.59C1214.75,-216.01 1226.43,-205.13 1236.22,-196.02"/>
<polygon fill="#63b8ff" stroke="#63b8ff" points="1238.47,-198.71 1243.41,-189.33 1233.7,-193.58 1238.47,-198.71"/>
</a>
</g>
</g>
<!-- Node27 -->
<g id="Node000027" class="node">
<title>Node27</title>
<g id="a_Node000027"><a xlink:title=" ">
<polygon fill="#e0e0e0" stroke="#999999" points="1329.5,-188 1289.5,-188 1289.5,-168 1329.5,-168 1329.5,-188"/>
<text text-anchor="middle" x="1309.5" y="-174.5" font-family="Helvetica,sans-Serif" font-size="10.00">regex</text>
</a>
</g>
</g>
<!-- Node1&#45;&gt;Node27 -->
<g id="edge37_Node000001_Node000027" class="edge">
<title>Node1&#45;&gt;Node27</title>
<g id="a_edge37_Node000001_Node000027"><a xlink:title=" ">
<path fill="none" stroke="#63b8ff" d="M1216.18,-223.59C1233.66,-215.24 1259.45,-202.92 1279.5,-193.34"/>
<polygon fill="#63b8ff" stroke="#63b8ff" points="1280.78,-196.6 1288.3,-189.13 1277.77,-190.29 1280.78,-196.6"/>
</a>
</g>
</g>
<!-- Node28 -->
<g id="Node000028" class="node">
<title>Node28</title>
<g id="a_Node000028"><a xlink:title=" ">
<polygon fill="#e0e0e0" stroke="#999999" points="1391,-188 1348,-188 1348,-168 1391,-168 1391,-188"/>
<text text-anchor="middle" x="1369.5" y="-174.5" font-family="Helvetica,sans-Serif" font-size="10.00">thread</text>
</a>
</g>
</g>
<!-- Node1&#45;&gt;Node28 -->
<g id="edge38_Node000001_Node000028" class="edge">
<title>Node1&#45;&gt;Node28</title>
<g id="a_edge38_Node000001_Node000028"><a xlink:title=" ">
<path fill="none" stroke="#63b8ff" d="M1226.63,-223.59C1257.41,-213.99 1305.06,-199.11 1336.76,-189.22"/>
<polygon fill="#63b8ff" stroke="#63b8ff" points="1337.7,-192.59 1346.2,-186.27 1335.62,-185.91 1337.7,-192.59"/>
</a>
</g>
</g>
<!-- Node29 -->
<g id="Node000029" class="node">
<title>Node29</title>
<g id="a_Node000029"><a xlink:title=" ">
<polygon fill="#e0e0e0" stroke="#999999" points="1454.12,-188 1408.88,-188 1408.88,-168 1454.12,-168 1454.12,-188"/>
<text text-anchor="middle" x="1431.5" y="-174.5" font-family="Helvetica,sans-Serif" font-size="10.00">variant</text>
</a>
</g>
</g>
<!-- Node1&#45;&gt;Node29 -->
<g id="edge39_Node000001_Node000029" class="edge">
<title>Node1&#45;&gt;Node29</title>
<g id="a_edge39_Node000001_Node000029"><a xlink:title=" ">
<path fill="none" stroke="#63b8ff" d="M1243.7,-223.5C1282.75,-215.44 1339.9,-203.17 1397.72,-188.6"/>
<polygon fill="#63b8ff" stroke="#63b8ff" points="1398.23,-192.08 1407.06,-186.23 1396.5,-185.3 1398.23,-192.08"/>
</a>
</g>
</g>
<!-- Node3 -->
<g id="Node000003" class="node">
<title>Node3</title>
<g id="a_Node000003"><a xlink:title=" ">
<polygon fill="#e0e0e0" stroke="#999999" points="1454.88,-132 1396.12,-132 1396.12,-112 1454.88,-112 1454.88,-132"/>
<text text-anchor="middle" x="1425.5" y="-118.5" font-family="Helvetica,sans-Serif" font-size="10.00">dpp/dpp.h</text>
</a>
</g>
</g>
<!-- Node2&#45;&gt;Node3 -->
<g id="edge2_Node000002_Node000003" class="edge">
<title>Node2&#45;&gt;Node3</title>
<g id="a_edge2_Node000002_Node000003"><a xlink:title=" ">
<path fill="none" stroke="#63b8ff" d="M959.69,-169.67C962.65,-169.04 965.63,-168.47 968.5,-168 1149.35,-138.41 1200.95,-160.71 1384.58,-132.25"/>
<polygon fill="#63b8ff" stroke="#63b8ff" points="1384.89,-135.75 1394.22,-130.73 1383.79,-128.83 1384.89,-135.75"/>
</a>
</g>
</g>
<!-- Node4 -->
<g id="Node000004" class="node">
<title>Node4</title>
<g id="a_Node000004"><a xlink:title=" ">
<polygon fill="#e0e0e0" stroke="#999999" points="1564,-132 1473,-132 1473,-112 1564,-112 1564,-132"/>
<text text-anchor="middle" x="1518.5" y="-118.5" font-family="Helvetica,sans-Serif" font-size="10.00">dpp/misc&#45;enum.h</text>
</a>
</g>
</g>
<!-- Node2&#45;&gt;Node4 -->
<g id="edge3_Node000002_Node000004" class="edge">
<title>Node2&#45;&gt;Node4</title>
<g id="a_edge3_Node000002_Node000004"><a xlink:title=" ">
<path fill="none" stroke="#63b8ff" d="M959.68,-169.63C962.65,-169.01 965.63,-168.45 968.5,-168 1182.8,-134.38 1242.47,-157.06 1461.4,-132.13"/>
<polygon fill="#63b8ff" stroke="#63b8ff" points="1461.59,-135.63 1471.12,-131 1460.79,-128.67 1461.59,-135.63"/>
</a>
</g>
</g>
<!-- Node5 -->
<g id="Node000005" class="node">
<title>Node5</title>
<g id="a_Node000005"><a xlink:title=" ">
<polygon fill="#e0e0e0" stroke="#999999" points="1642.62,-132 1582.38,-132 1582.38,-112 1642.62,-112 1642.62,-132"/>
<text text-anchor="middle" x="1612.5" y="-118.5" font-family="Helvetica,sans-Serif" font-size="10.00">fmt/core.h</text>
</a>
</g>
</g>
<!-- Node2&#45;&gt;Node5 -->
<g id="edge4_Node000002_Node000005" class="edge">
<title>Node2&#45;&gt;Node5</title>
<g id="a_edge4_Node000002_Node000005"><a xlink:title=" ">
<path fill="none" stroke="#63b8ff" d="M959.68,-169.59C962.64,-168.98 965.62,-168.43 968.5,-168 1231.24,-128.55 1304.88,-169.27 1570.77,-132.15"/>
<polygon fill="#63b8ff" stroke="#63b8ff" points="1571.03,-135.65 1580.44,-130.78 1570.04,-128.72 1571.03,-135.65"/>
</a>
</g>
</g>
<!-- Node6 -->
<g id="Node000006" class="node">
<title>Node6</title>
<g id="a_Node000006"><a xlink:href="Database_8hpp.html" target="_top" xlink:title=" ">
<polygon fill="white" stroke="#666666" points="281.25,-132 161.75,-132 161.75,-112 281.25,-112 281.25,-132"/>
<text text-anchor="middle" x="221.5" y="-118.5" font-family="Helvetica,sans-Serif" font-size="10.00">database/Database.hpp</text>
</a>
</g>
</g>
<!-- Node2&#45;&gt;Node6 -->
<g id="edge5_Node000002_Node000006" class="edge">
<title>Node2&#45;&gt;Node6</title>
<g id="a_edge5_Node000002_Node000006"><a xlink:title=" ">
<path fill="none" stroke="#63b8ff" d="M903.33,-175.62C815.03,-171.18 535.57,-156.16 292.85,-132.18"/>
<polygon fill="#63b8ff" stroke="#63b8ff" points="293.49,-128.72 283.19,-131.22 292.8,-135.69 293.49,-128.72"/>
</a>
</g>
</g>
<!-- Node15 -->
<g id="Node000015" class="node">
<title>Node15</title>
<g id="a_Node000015"><a xlink:href="IButtonCommand_8hpp.html" target="_top" xlink:title=" ">
<polygon fill="white" stroke="#666666" points="1010,-132 853,-132 853,-112 1010,-112 1010,-132"/>
<text text-anchor="middle" x="931.5" y="-118.5" font-family="Helvetica,sans-Serif" font-size="10.00">interfaces/IButtonCommand.hpp</text>
</a>
</g>
</g>
<!-- Node2&#45;&gt;Node15 -->
<g id="edge15_Node000002_Node000015" class="edge">
<title>Node2&#45;&gt;Node15</title>
<g id="a_edge15_Node000002_Node000015"><a xlink:title=" ">
<path fill="none" stroke="#63b8ff" d="M931.5,-167.59C931.5,-161.01 931.5,-151.96 931.5,-143.73"/>
<polygon fill="#63b8ff" stroke="#63b8ff" points="935,-143.81 931.5,-133.81 928,-143.81 935,-143.81"/>
</a>
</g>
</g>
<!-- Node18 -->
<g id="Node000018" class="node">
<title>Node18</title>
<g id="a_Node000018"><a xlink:href="IFormCommand_8hpp.html" target="_top" xlink:title=" ">
<polygon fill="white" stroke="#666666" points="1179,-132 1028,-132 1028,-112 1179,-112 1179,-132"/>
<text text-anchor="middle" x="1103.5" y="-118.5" font-family="Helvetica,sans-Serif" font-size="10.00">interfaces/IFormCommand.hpp</text>
</a>
</g>
</g>
<!-- Node2&#45;&gt;Node18 -->
<g id="edge18_Node000002_Node000018" class="edge">
<title>Node2&#45;&gt;Node18</title>
<g id="a_edge18_Node000002_Node000018"><a xlink:title=" ">
<path fill="none" stroke="#63b8ff" d="M959.52,-168.2C987.53,-159.41 1030.91,-145.79 1062.74,-135.8"/>
<polygon fill="#63b8ff" stroke="#63b8ff" points="1063.53,-139.22 1072.03,-132.88 1061.44,-132.54 1063.53,-139.22"/>
</a>
</g>
</g>
<!-- Node19 -->
<g id="Node000019" class="node">
<title>Node19</title>
<g id="a_Node000019"><a xlink:href="IGlobalSlashCommand_8hpp.html" target="_top" xlink:title=" ">
<polygon fill="white" stroke="#666666" points="1378,-132 1197,-132 1197,-112 1378,-112 1378,-132"/>
<text text-anchor="middle" x="1287.5" y="-118.5" font-family="Helvetica,sans-Serif" font-size="10.00">interfaces/IGlobalSlashCommand.hpp</text>
</a>
</g>
</g>
<!-- Node2&#45;&gt;Node19 -->
<g id="edge21_Node000002_Node000019" class="edge">
<title>Node2&#45;&gt;Node19</title>
<g id="a_edge21_Node000002_Node000019"><a xlink:title=" ">
<path fill="none" stroke="#63b8ff" d="M959.72,-169.83C962.68,-169.17 965.64,-168.55 968.5,-168 1043.51,-153.62 1129.26,-141.78 1192.95,-133.86"/>
<polygon fill="#63b8ff" stroke="#63b8ff" points="1193.18,-137.36 1202.67,-132.66 1192.32,-130.41 1193.18,-137.36"/>
</a>
</g>
</g>
<!-- Node20 -->
<g id="Node000020" class="node">
<title>Node20</title>
<g id="a_Node000020"><a xlink:href="IMemberCommand_8hpp.html" target="_top" xlink:title=" ">
<polygon fill="white" stroke="#666666" points="463.38,-132 299.62,-132 299.62,-112 463.38,-112 463.38,-132"/>
<text text-anchor="middle" x="381.5" y="-118.5" font-family="Helvetica,sans-Serif" font-size="10.00">interfaces/IMemberCommand.hpp</text>
</a>
</g>
</g>
<!-- Node2&#45;&gt;Node20 -->
<g id="edge24_Node000002_Node000020" class="edge">
<title>Node2&#45;&gt;Node20</title>
<g id="a_edge24_Node000002_Node000020"><a xlink:title=" ">
<path fill="none" stroke="#63b8ff" d="M903.29,-174.24C833.02,-167.37 644.2,-148.9 475.2,-132.27"/>
<polygon fill="#63b8ff" stroke="#63b8ff" points="475.64,-128.79 465.35,-131.29 474.95,-135.76 475.64,-128.79"/>
</a>
</g>
</g>
<!-- Node21 -->
<g id="Node000021" class="node">
<title>Node21</title>
<g id="a_Node000021"><a xlink:href="IMessageCommand_8hpp.html" target="_top" xlink:title=" ">
<polygon fill="white" stroke="#666666" points="649.62,-132 481.38,-132 481.38,-112 649.62,-112 649.62,-132"/>
<text text-anchor="middle" x="565.5" y="-118.5" font-family="Helvetica,sans-Serif" font-size="10.00">interfaces/IMessageCommand.hpp</text>
</a>
</g>
</g>
<!-- Node2&#45;&gt;Node21 -->
<g id="edge27_Node000002_Node000021" class="edge">
<title>Node2&#45;&gt;Node21</title>
<g id="a_edge27_Node000002_Node000021"><a xlink:title=" ">
<path fill="none" stroke="#63b8ff" d="M903.39,-172.85C847.83,-164.66 722.32,-146.14 640.9,-134.12"/>
<polygon fill="#63b8ff" stroke="#63b8ff" points="641.61,-130.69 631.21,-132.69 640.59,-137.62 641.61,-130.69"/>
</a>
</g>
</g>
<!-- Node22 -->
<g id="Node000022" class="node">
<title>Node22</title>
<g id="a_Node000022"><a xlink:href="IReactionCommand_8hpp.html" target="_top" xlink:title=" ">
<polygon fill="white" stroke="#666666" points="835.25,-132 667.75,-132 667.75,-112 835.25,-112 835.25,-132"/>
<text text-anchor="middle" x="751.5" y="-118.5" font-family="Helvetica,sans-Serif" font-size="10.00">interfaces/IReactionCommand.hpp</text>
</a>
</g>
</g>
<!-- Node2&#45;&gt;Node22 -->
<g id="edge30_Node000002_Node000022" class="edge">
<title>Node2&#45;&gt;Node22</title>
<g id="a_edge30_Node000002_Node000022"><a xlink:title=" ">
<path fill="none" stroke="#63b8ff" d="M903.38,-168.56C874.06,-159.77 827.77,-145.88 793.99,-135.75"/>
<polygon fill="#63b8ff" stroke="#63b8ff" points="795.09,-132.42 784.51,-132.9 793.08,-139.13 795.09,-132.42"/>
</a>
</g>
</g>
<!-- Node7 -->
<g id="Node000007" class="node">
<title>Node7</title>
<g id="a_Node000007"><a xlink:title=" ">
<polygon fill="#e0e0e0" stroke="#999999" points="476.62,-76 428.38,-76 428.38,-56 476.62,-56 476.62,-76"/>
<text text-anchor="middle" x="452.5" y="-62.5" font-family="Helvetica,sans-Serif" font-size="10.00">cstddef</text>
</a>
</g>
</g>
<!-- Node6&#45;&gt;Node7 -->
<g id="edge6_Node000006_Node000007" class="edge">
<title>Node6&#45;&gt;Node7</title>
<g id="a_edge6_Node000006_Node000007"><a xlink:title=" ">
<path fill="none" stroke="#63b8ff" d="M265.67,-111.53C303.44,-103.3 359.53,-90.79 416.91,-76.57"/>
<polygon fill="#63b8ff" stroke="#63b8ff" points="417.7,-79.98 426.55,-74.17 416,-73.19 417.7,-79.98"/>
</a>
</g>
</g>
<!-- Node8 -->
<g id="Node000008" class="node">
<title>Node8</title>
<g id="a_Node000008"><a xlink:title=" ">
<polygon fill="#e0e0e0" stroke="#999999" points="548.25,-76 494.75,-76 494.75,-56 548.25,-56 548.25,-76"/>
<text text-anchor="middle" x="521.5" y="-62.5" font-family="Helvetica,sans-Serif" font-size="10.00">iostream</text>
</a>
</g>
</g>
<!-- Node6&#45;&gt;Node8 -->
<g id="edge7_Node000006_Node000008" class="edge">
<title>Node6&#45;&gt;Node8</title>
<g id="a_edge7_Node000006_Node000008"><a xlink:title=" ">
<path fill="none" stroke="#63b8ff" d="M281.51,-112.11C332.66,-104.22 408.37,-91.84 483.37,-76.32"/>
<polygon fill="#63b8ff" stroke="#63b8ff" points="483.87,-79.79 492.94,-74.31 482.44,-72.94 483.87,-79.79"/>
</a>
</g>
</g>
<!-- Node9 -->
<g id="Node000009" class="node">
<title>Node9</title>
<g id="a_Node000009"><a xlink:title=" ">
<polygon fill="#e0e0e0" stroke="#999999" points="110.38,-76 60.62,-76 60.62,-56 110.38,-56 110.38,-76"/>
<text text-anchor="middle" x="85.5" y="-62.5" font-family="Helvetica,sans-Serif" font-size="10.00">optional</text>
</a>
</g>
</g>
<!-- Node6&#45;&gt;Node9 -->
<g id="edge8_Node000006_Node000009" class="edge">
<title>Node6&#45;&gt;Node9</title>
<g id="a_edge8_Node000006_Node000009"><a xlink:title=" ">
<path fill="none" stroke="#63b8ff" d="M197.81,-111.59C176.3,-103.05 144.3,-90.35 119.96,-80.68"/>
<polygon fill="#63b8ff" stroke="#63b8ff" points="121.37,-77.48 110.78,-77.04 118.78,-83.98 121.37,-77.48"/>
</a>
</g>
</g>
<!-- Node10 -->
<g id="Node000010" class="node">
<title>Node10</title>
<g id="a_Node000010"><a xlink:title=" ">
<polygon fill="#e0e0e0" stroke="#999999" points="210,-20 149,-20 149,0 210,0 210,-20"/>
<text text-anchor="middle" x="179.5" y="-6.5" font-family="Helvetica,sans-Serif" font-size="10.00">pqxx/pqxx</text>
</a>
</g>
</g>
<!-- Node6&#45;&gt;Node10 -->
<g id="edge9_Node000006_Node000010" class="edge">
<title>Node6&#45;&gt;Node10</title>
<g id="a_edge9_Node000006_Node000010"><a xlink:title=" ">
<path fill="none" stroke="#63b8ff" d="M198.43,-111.57C183.8,-104.24 166.08,-92.51 157.5,-76 149.71,-61 157.31,-42.67 165.63,-29.3"/>
<polygon fill="#63b8ff" stroke="#63b8ff" points="168.26,-31.66 171.04,-21.43 162.49,-27.69 168.26,-31.66"/>
</a>
</g>
</g>
<!-- Node11 -->
<g id="Node000011" class="node">
<title>Node11</title>
<g id="a_Node000011"><a xlink:title=" ">
<polygon fill="#e0e0e0" stroke="#999999" points="334.5,-76 294.5,-76 294.5,-56 334.5,-56 334.5,-76"/>
<text text-anchor="middle" x="314.5" y="-62.5" font-family="Helvetica,sans-Serif" font-size="10.00">string</text>
</a>
</g>
</g>
<!-- Node6&#45;&gt;Node11 -->
<g id="edge10_Node000006_Node000011" class="edge">
<title>Node6&#45;&gt;Node11</title>
<g id="a_edge10_Node000006_Node000011"><a xlink:title=" ">
<path fill="none" stroke="#63b8ff" d="M237.7,-111.59C251.75,-103.44 272.33,-91.48 288.66,-82"/>
<polygon fill="#63b8ff" stroke="#63b8ff" points="289.97,-85.29 296.87,-77.24 286.46,-79.23 289.97,-85.29"/>
</a>
</g>
</g>
<!-- Node12 -->
<g id="Node000012" class="node">
<title>Node12</title>
<g id="a_Node000012"><a xlink:title=" ">
<polygon fill="#e0e0e0" stroke="#999999" points="410.5,-76 352.5,-76 352.5,-56 410.5,-56 410.5,-76"/>
<text text-anchor="middle" x="381.5" y="-62.5" font-family="Helvetica,sans-Serif" font-size="10.00">typeindex</text>
</a>
</g>
</g>
<!-- Node6&#45;&gt;Node12 -->
<g id="edge11_Node000006_Node000012" class="edge">
<title>Node6&#45;&gt;Node12</title>
<g id="a_edge11_Node000006_Node000012"><a xlink:title=" ">
<path fill="none" stroke="#63b8ff" d="M249.37,-111.59C275.25,-102.86 314.03,-89.77 342.89,-80.03"/>
<polygon fill="#63b8ff" stroke="#63b8ff" points="343.62,-83.48 351.98,-76.96 341.38,-76.85 343.62,-83.48"/>
</a>
</g>
</g>
<!-- Node6&#45;&gt;Node13 -->
<g id="edge12_Node000006_Node000013" class="edge">
<title>Node6&#45;&gt;Node13</title>
<g id="a_edge12_Node000006_Node000013"><a xlink:title=" ">
<path fill="none" stroke="#63b8ff" d="M184.26,-111.52C152.12,-103.25 104.16,-90.72 54.41,-76.76"/>
<polygon fill="#63b8ff" stroke="#63b8ff" points="55.46,-73.42 44.89,-74.08 53.56,-80.16 55.46,-73.42"/>
</a>
</g>
</g>
<!-- Node14 -->
<g id="Node000014" class="node">
<title>Node14</title>
<g id="a_Node000014"><a xlink:href="RowDTOAdapter_8hpp.html" target="_top" xlink:title=" ">
<polygon fill="white" stroke="#666666" points="276.38,-76 166.62,-76 166.62,-56 276.38,-56 276.38,-76"/>
<text text-anchor="middle" x="221.5" y="-62.5" font-family="Helvetica,sans-Serif" font-size="10.00">RowDTOAdapter.hpp</text>
</a>
</g>
</g>
<!-- Node6&#45;&gt;Node14 -->
<g id="edge13_Node000006_Node000014" class="edge">
<title>Node6&#45;&gt;Node14</title>
<g id="a_edge13_Node000006_Node000014"><a xlink:title=" ">
<path fill="none" stroke="#63b8ff" d="M221.5,-111.59C221.5,-105.01 221.5,-95.96 221.5,-87.73"/>
<polygon fill="#63b8ff" stroke="#63b8ff" points="225,-87.81 221.5,-77.81 218,-87.81 225,-87.81"/>
</a>
</g>
</g>
<!-- Node14&#45;&gt;Node10 -->
<g id="edge14_Node000014_Node000010" class="edge">
<title>Node14&#45;&gt;Node10</title>
<g id="a_edge14_Node000014_Node000010"><a xlink:title=" ">
<path fill="none" stroke="#63b8ff" d="M214.18,-55.59C208.52,-48.32 200.51,-38.02 193.61,-29.15"/>
<polygon fill="#63b8ff" stroke="#63b8ff" points="196.56,-27.24 187.66,-21.49 191.04,-31.54 196.56,-27.24"/>
</a>
</g>
</g>
<!-- Node16 -->
<g id="Node000016" class="node">
<title>Node16</title>
<g id="a_Node000016"><a xlink:title=" ">
<polygon fill="#e0e0e0" stroke="#999999" points="807.62,-76 735.38,-76 735.38,-56 807.62,-56 807.62,-76"/>
<text text-anchor="middle" x="771.5" y="-62.5" font-family="Helvetica,sans-Serif" font-size="10.00">dpp/cluster.h</text>
</a>
</g>
</g>
<!-- Node15&#45;&gt;Node16 -->
<g id="edge16_Node000015_Node000016" class="edge">
<title>Node15&#45;&gt;Node16</title>
<g id="a_edge16_Node000015_Node000016"><a xlink:title=" ">
<path fill="none" stroke="#63b8ff" d="M903.63,-111.59C877.75,-102.86 838.97,-89.77 810.11,-80.03"/>
<polygon fill="#63b8ff" stroke="#63b8ff" points="811.62,-76.85 801.02,-76.96 809.38,-83.48 811.62,-76.85"/>
</a>
</g>
</g>
<!-- Node17 -->
<g id="Node000017" class="node">
<title>Node17</title>
<g id="a_Node000017"><a xlink:title=" ">
<polygon fill="#e0e0e0" stroke="#999999" points="954.5,-76 866.5,-76 866.5,-56 954.5,-56 954.5,-76"/>
<text text-anchor="middle" x="910.5" y="-62.5" font-family="Helvetica,sans-Serif" font-size="10.00">dpp/dispatcher.h</text>
</a>
</g>
</g>
<!-- Node15&#45;&gt;Node17 -->
<g id="edge17_Node000015_Node000017" class="edge">
<title>Node15&#45;&gt;Node17</title>
<g id="a_edge17_Node000015_Node000017"><a xlink:title=" ">
<path fill="none" stroke="#63b8ff" d="M927.84,-111.59C925.19,-104.78 921.51,-95.32 918.22,-86.86"/>
<polygon fill="#63b8ff" stroke="#63b8ff" points="921.55,-85.76 914.66,-77.71 915.03,-88.3 921.55,-85.76"/>
</a>
</g>
</g>
<!-- Node18&#45;&gt;Node16 -->
<g id="edge19_Node000018_Node000016" class="edge">
<title>Node18&#45;&gt;Node16</title>
<g id="a_edge19_Node000018_Node000016"><a xlink:title=" ">
<path fill="none" stroke="#63b8ff" d="M1045.29,-111.53C981.13,-101.1 879.12,-84.5 819.41,-74.79"/>
<polygon fill="#63b8ff" stroke="#63b8ff" points="819.98,-71.34 809.54,-73.19 818.85,-78.25 819.98,-71.34"/>
</a>
</g>
</g>
<!-- Node18&#45;&gt;Node17 -->
<g id="edge20_Node000018_Node000017" class="edge">
<title>Node18&#45;&gt;Node17</title>
<g id="a_edge20_Node000018_Node000017"><a xlink:title=" ">
<path fill="none" stroke="#63b8ff" d="M1069.88,-111.59C1038.11,-102.71 990.24,-89.31 955.25,-79.52"/>
<polygon fill="#63b8ff" stroke="#63b8ff" points="956.41,-76.21 945.84,-76.89 954.53,-82.95 956.41,-76.21"/>
</a>
</g>
</g>
<!-- Node19&#45;&gt;Node16 -->
<g id="edge22_Node000019_Node000016" class="edge">
<title>Node19&#45;&gt;Node16</title>
<g id="a_edge22_Node000019_Node000016"><a xlink:title=" ">
<path fill="none" stroke="#63b8ff" d="M1196.73,-111.5C1086.56,-99.97 904.89,-80.96 819.14,-71.99"/>
<polygon fill="#63b8ff" stroke="#63b8ff" points="819.75,-68.53 809.44,-70.97 819.02,-75.49 819.75,-68.53"/>
</a>
</g>
</g>
<!-- Node19&#45;&gt;Node17 -->
<g id="edge23_Node000019_Node000017" class="edge">
<title>Node19&#45;&gt;Node17</title>
<g id="a_edge23_Node000019_Node000017"><a xlink:title=" ">
<path fill="none" stroke="#63b8ff" d="M1221.4,-111.53C1149.04,-101.17 1034.27,-84.73 966.28,-74.99"/>
<polygon fill="#63b8ff" stroke="#63b8ff" points="966.86,-71.54 956.46,-73.58 965.86,-78.47 966.86,-71.54"/>
</a>
</g>
</g>
<!-- Node20&#45;&gt;Node16 -->
<g id="edge25_Node000020_Node000016" class="edge">
<title>Node20&#45;&gt;Node16</title>
<g id="a_edge25_Node000020_Node000016"><a xlink:title=" ">
<path fill="none" stroke="#63b8ff" d="M449.88,-111.53C528.35,-100.67 655.03,-83.13 723.64,-73.63"/>
<polygon fill="#63b8ff" stroke="#63b8ff" points="724.02,-77.11 733.44,-72.27 723.06,-70.17 724.02,-77.11"/>
</a>
</g>
</g>
<!-- Node20&#45;&gt;Node17 -->
<g id="edge26_Node000020_Node000017" class="edge">
<title>Node20&#45;&gt;Node17</title>
<g id="a_edge26_Node000020_Node000017"><a xlink:title=" ">
<path fill="none" stroke="#63b8ff" d="M463.87,-112.59C572.73,-101.48 761.6,-82.2 854.97,-72.67"/>
<polygon fill="#63b8ff" stroke="#63b8ff" points="855.04,-76.18 864.63,-71.68 854.33,-69.22 855.04,-76.18"/>
</a>
</g>
</g>
<!-- Node21&#45;&gt;Node16 -->
<g id="edge28_Node000021_Node000016" class="edge">
<title>Node21&#45;&gt;Node16</title>
<g id="a_edge28_Node000021_Node000016"><a xlink:title=" ">
<path fill="none" stroke="#63b8ff" d="M601.38,-111.59C635.44,-102.67 686.83,-89.19 724.22,-79.39"/>
<polygon fill="#63b8ff" stroke="#63b8ff" points="725.09,-82.78 733.87,-76.86 723.31,-76.01 725.09,-82.78"/>
</a>
</g>
</g>
<!-- Node21&#45;&gt;Node17 -->
<g id="edge29_Node000021_Node000017" class="edge">
<title>Node21&#45;&gt;Node17</title>
<g id="a_edge29_Node000021_Node000017"><a xlink:title=" ">
<path fill="none" stroke="#63b8ff" d="M625.99,-111.53C690.57,-101.42 792.06,-85.54 854.76,-75.72"/>
<polygon fill="#63b8ff" stroke="#63b8ff" points="855.17,-79.2 864.51,-74.2 854.09,-72.29 855.17,-79.2"/>
</a>
</g>
</g>
<!-- Node22&#45;&gt;Node16 -->
<g id="edge31_Node000022_Node000016" class="edge">
<title>Node22&#45;&gt;Node16</title>
<g id="a_edge31_Node000022_Node000016"><a xlink:title=" ">
<path fill="none" stroke="#63b8ff" d="M754.98,-111.59C757.51,-104.78 761.01,-95.32 764.14,-86.86"/>
<polygon fill="#63b8ff" stroke="#63b8ff" points="767.34,-88.31 767.53,-77.72 760.78,-85.88 767.34,-88.31"/>
</a>
</g>
</g>
<!-- Node22&#45;&gt;Node17 -->
<g id="edge32_Node000022_Node000017" class="edge">
<title>Node22&#45;&gt;Node17</title>
<g id="a_edge32_Node000022_Node000017"><a xlink:title=" ">
<path fill="none" stroke="#63b8ff" d="M779.2,-111.59C804.8,-102.9 843.11,-89.89 871.75,-80.16"/>
<polygon fill="#63b8ff" stroke="#63b8ff" points="872.81,-83.5 881.16,-76.97 870.56,-76.87 872.81,-83.5"/>
</a>
</g>
</g>
</g>
</svg>
