<?xml version="1.0" encoding="UTF-8" standalone="no"?>
<!DOCTYPE svg PUBLIC "-//W3C//DTD SVG 1.1//EN"
 "http://www.w3.org/Graphics/SVG/1.1/DTD/svg11.dtd">
<!-- Generated by graphviz version 9.0.0 (0)
 -->
<!-- Title: src/bot_library/bot/core/database/Database.cpp Pages: 1 -->
<svg width="867pt" height="208pt"
 viewBox="0.00 0.00 866.75 208.00" xmlns="http://www.w3.org/2000/svg" xmlns:xlink="http://www.w3.org/1999/xlink">
<g id="graph0" class="graph" transform="scale(1 1) rotate(0) translate(4 204)">
<title>src/bot_library/bot/core/database/Database.cpp</title>
<!-- Node1 -->
<g id="Node000001" class="node">
<title>Node1</title>
<g id="a_Node000001"><a xlink:title=" ">
<polygon fill="#999999" stroke="#666666" points="740.25,-200 596,-200 596,-168 740.25,-168 740.25,-200"/>
<text text-anchor="start" x="604" y="-186.5" font-family="Helvetica,sans-Serif" font-size="10.00">src/bot_library/bot</text>
<text text-anchor="middle" x="668.12" y="-174.5" font-family="Helvetica,sans-Serif" font-size="10.00">/core/database/Database.cpp</text>
</a>
</g>
</g>
<!-- Node2 -->
<g id="Node000002" class="node">
<title>Node2</title>
<g id="a_Node000002"><a xlink:href="Database_8hpp.html" target="_top" xlink:title=" ">
<polygon fill="white" stroke="#666666" points="302.5,-132 225.75,-132 225.75,-112 302.5,-112 302.5,-132"/>
<text text-anchor="middle" x="264.12" y="-118.5" font-family="Helvetica,sans-Serif" font-size="10.00">Database.hpp</text>
</a>
</g>
</g>
<!-- Node1&#45;&gt;Node2 -->
<g id="edge1_Node000001_Node000002" class="edge">
<title>Node1&#45;&gt;Node2</title>
<g id="a_edge1_Node000001_Node000002"><a xlink:title=" ">
<path fill="none" stroke="#63b8ff" d="M595.9,-172.27C514.63,-160.2 384.77,-140.92 314.02,-130.41"/>
<polygon fill="#63b8ff" stroke="#63b8ff" points="314.68,-126.97 304.27,-128.96 313.65,-133.89 314.68,-126.97"/>
</a>
</g>
</g>
<!-- Node6 -->
<g id="Node000006" class="node">
<title>Node6</title>
<g id="a_Node000006"><a xlink:title=" ">
<polygon fill="#e0e0e0" stroke="#999999" points="524.62,-20 463.62,-20 463.62,0 524.62,0 524.62,-20"/>
<text text-anchor="middle" x="494.12" y="-6.5" font-family="Helvetica,sans-Serif" font-size="10.00">pqxx/pqxx</text>
</a>
</g>
</g>
<!-- Node1&#45;&gt;Node6 -->
<g id="edge13_Node000001_Node000006" class="edge">
<title>Node1&#45;&gt;Node6</title>
<g id="a_edge13_Node000001_Node000006"><a xlink:title=" ">
<path fill="none" stroke="#63b8ff" d="M639.95,-167.59C625.49,-158.63 608.39,-146.3 596.12,-132 571.54,-103.34 582.76,-84.62 558.12,-56 548.02,-44.26 534.21,-34.05 522.01,-26.33"/>
<polygon fill="#63b8ff" stroke="#63b8ff" points="523.92,-23.4 513.55,-21.24 520.31,-29.4 523.92,-23.4"/>
</a>
</g>
</g>
<!-- Node11 -->
<g id="Node000011" class="node">
<title>Node11</title>
<g id="a_Node000011"><a xlink:title=" ">
<polygon fill="#e0e0e0" stroke="#999999" points="665.25,-132 605,-132 605,-112 665.25,-112 665.25,-132"/>
<text text-anchor="middle" x="635.12" y="-118.5" font-family="Helvetica,sans-Serif" font-size="10.00">fmt/core.h</text>
</a>
</g>
</g>
<!-- Node1&#45;&gt;Node11 -->
<g id="edge11_Node000001_Node000011" class="edge">
<title>Node1&#45;&gt;Node11</title>
<g id="a_edge11_Node000001_Node000011"><a xlink:title=" ">
<path fill="none" stroke="#63b8ff" d="M659.63,-167.55C655.43,-159.91 650.31,-150.61 645.84,-142.49"/>
<polygon fill="#63b8ff" stroke="#63b8ff" points="648.91,-140.81 641.03,-133.73 642.78,-144.18 648.91,-140.81"/>
</a>
</g>
</g>
<!-- Node12 -->
<g id="Node000012" class="node">
<title>Node12</title>
<g id="a_Node000012"><a xlink:title=" ">
<polygon fill="#e0e0e0" stroke="#999999" points="718.5,-132 683.75,-132 683.75,-112 718.5,-112 718.5,-132"/>
<text text-anchor="middle" x="701.12" y="-118.5" font-family="Helvetica,sans-Serif" font-size="10.00">map</text>
</a>
</g>
</g>
<!-- Node1&#45;&gt;Node12 -->
<g id="edge12_Node000001_Node000012" class="edge">
<title>Node1&#45;&gt;Node12</title>
<g id="a_edge12_Node000001_Node000012"><a xlink:title=" ">
<path fill="none" stroke="#63b8ff" d="M676.62,-167.55C680.82,-159.91 685.94,-150.61 690.41,-142.49"/>
<polygon fill="#63b8ff" stroke="#63b8ff" points="693.47,-144.18 695.22,-133.73 687.34,-140.81 693.47,-144.18"/>
</a>
</g>
</g>
<!-- Node13 -->
<g id="Node000013" class="node">
<title>Node13</title>
<g id="a_Node000013"><a xlink:title=" ">
<polygon fill="#e0e0e0" stroke="#999999" points="801.88,-132 736.38,-132 736.38,-112 801.88,-112 801.88,-132"/>
<text text-anchor="middle" x="769.12" y="-118.5" font-family="Helvetica,sans-Serif" font-size="10.00">string_view</text>
</a>
</g>
</g>
<!-- Node1&#45;&gt;Node13 -->
<g id="edge14_Node000001_Node000013" class="edge">
<title>Node1&#45;&gt;Node13</title>
<g id="a_edge14_Node000001_Node000013"><a xlink:title=" ">
<path fill="none" stroke="#63b8ff" d="M694.14,-167.55C709.33,-158.52 728.43,-147.17 743.55,-138.19"/>
<polygon fill="#63b8ff" stroke="#63b8ff" points="745.18,-141.3 751.99,-133.18 741.6,-135.28 745.18,-141.3"/>
</a>
</g>
</g>
<!-- Node14 -->
<g id="Node000014" class="node">
<title>Node14</title>
<g id="a_Node000014"><a xlink:title=" ">
<polygon fill="#e0e0e0" stroke="#999999" points="858.75,-132 819.5,-132 819.5,-112 858.75,-112 858.75,-132"/>
<text text-anchor="middle" x="839.12" y="-118.5" font-family="Helvetica,sans-Serif" font-size="10.00">utility</text>
</a>
</g>
</g>
<!-- Node1&#45;&gt;Node14 -->
<g id="edge15_Node000001_Node000014" class="edge">
<title>Node1&#45;&gt;Node14</title>
<g id="a_edge15_Node000001_Node000014"><a xlink:title=" ">
<path fill="none" stroke="#63b8ff" d="M712.16,-167.55C742.47,-156.91 781.94,-143.06 808.78,-133.65"/>
<polygon fill="#63b8ff" stroke="#63b8ff" points="809.73,-137.02 818.01,-130.41 807.42,-130.42 809.73,-137.02"/>
</a>
</g>
</g>
<!-- Node3 -->
<g id="Node000003" class="node">
<title>Node3</title>
<g id="a_Node000003"><a xlink:title=" ">
<polygon fill="#e0e0e0" stroke="#999999" points="48.25,-76 0,-76 0,-56 48.25,-56 48.25,-76"/>
<text text-anchor="middle" x="24.12" y="-62.5" font-family="Helvetica,sans-Serif" font-size="10.00">cstddef</text>
</a>
</g>
</g>
<!-- Node2&#45;&gt;Node3 -->
<g id="edge2_Node000002_Node000003" class="edge">
<title>Node2&#45;&gt;Node3</title>
<g id="a_edge2_Node000002_Node000003"><a xlink:title=" ">
<path fill="none" stroke="#63b8ff" d="M225.45,-113.22C186.05,-105.16 122.91,-91.86 59.58,-76.51"/>
<polygon fill="#63b8ff" stroke="#63b8ff" points="60.61,-73.16 50.07,-74.19 58.95,-79.96 60.61,-73.16"/>
</a>
</g>
</g>
<!-- Node4 -->
<g id="Node000004" class="node">
<title>Node4</title>
<g id="a_Node000004"><a xlink:title=" ">
<polygon fill="#e0e0e0" stroke="#999999" points="119.88,-76 66.38,-76 66.38,-56 119.88,-56 119.88,-76"/>
<text text-anchor="middle" x="93.12" y="-62.5" font-family="Helvetica,sans-Serif" font-size="10.00">iostream</text>
</a>
</g>
</g>
<!-- Node2&#45;&gt;Node4 -->
<g id="edge3_Node000002_Node000004" class="edge">
<title>Node2&#45;&gt;Node4</title>
<g id="a_edge3_Node000002_Node000004"><a xlink:title=" ">
<path fill="none" stroke="#63b8ff" d="M234.34,-111.59C205.7,-102.55 162.3,-88.85 131.18,-79.02"/>
<polygon fill="#63b8ff" stroke="#63b8ff" points="132.35,-75.72 121.76,-76.04 130.24,-82.39 132.35,-75.72"/>
</a>
</g>
</g>
<!-- Node5 -->
<g id="Node000005" class="node">
<title>Node5</title>
<g id="a_Node000005"><a xlink:title=" ">
<polygon fill="#e0e0e0" stroke="#999999" points="188,-76 138.25,-76 138.25,-56 188,-56 188,-76"/>
<text text-anchor="middle" x="163.12" y="-62.5" font-family="Helvetica,sans-Serif" font-size="10.00">optional</text>
</a>
</g>
</g>
<!-- Node2&#45;&gt;Node5 -->
<g id="edge4_Node000002_Node000005" class="edge">
<title>Node2&#45;&gt;Node5</title>
<g id="a_edge4_Node000002_Node000005"><a xlink:title=" ">
<path fill="none" stroke="#63b8ff" d="M246.53,-111.59C231.2,-103.4 208.71,-91.37 190.94,-81.87"/>
<polygon fill="#63b8ff" stroke="#63b8ff" points="192.66,-78.82 182.19,-77.19 189.36,-84.99 192.66,-78.82"/>
</a>
</g>
</g>
<!-- Node2&#45;&gt;Node6 -->
<g id="edge5_Node000002_Node000006" class="edge">
<title>Node2&#45;&gt;Node6</title>
<g id="a_edge5_Node000002_Node000006"><a xlink:title=" ">
<path fill="none" stroke="#63b8ff" d="M254.19,-111.72C240.96,-98.24 220.81,-73.02 235.12,-56 262.36,-23.63 385.95,-14.54 452.08,-11.99"/>
<polygon fill="#63b8ff" stroke="#63b8ff" points="451.95,-15.5 461.82,-11.65 451.7,-8.51 451.95,-15.5"/>
</a>
</g>
</g>
<!-- Node7 -->
<g id="Node000007" class="node">
<title>Node7</title>
<g id="a_Node000007"><a xlink:title=" ">
<polygon fill="#e0e0e0" stroke="#999999" points="284.12,-76 244.12,-76 244.12,-56 284.12,-56 284.12,-76"/>
<text text-anchor="middle" x="264.12" y="-62.5" font-family="Helvetica,sans-Serif" font-size="10.00">string</text>
</a>
</g>
</g>
<!-- Node2&#45;&gt;Node7 -->
<g id="edge6_Node000002_Node000007" class="edge">
<title>Node2&#45;&gt;Node7</title>
<g id="a_edge6_Node000002_Node000007"><a xlink:title=" ">
<path fill="none" stroke="#63b8ff" d="M264.12,-111.59C264.12,-105.01 264.12,-95.96 264.12,-87.73"/>
<polygon fill="#63b8ff" stroke="#63b8ff" points="267.63,-87.81 264.13,-77.81 260.63,-87.81 267.63,-87.81"/>
</a>
</g>
</g>
<!-- Node8 -->
<g id="Node000008" class="node">
<title>Node8</title>
<g id="a_Node000008"><a xlink:title=" ">
<polygon fill="#e0e0e0" stroke="#999999" points="360.12,-76 302.12,-76 302.12,-56 360.12,-56 360.12,-76"/>
<text text-anchor="middle" x="331.12" y="-62.5" font-family="Helvetica,sans-Serif" font-size="10.00">typeindex</text>
</a>
</g>
</g>
<!-- Node2&#45;&gt;Node8 -->
<g id="edge7_Node000002_Node000008" class="edge">
<title>Node2&#45;&gt;Node8</title>
<g id="a_edge7_Node000002_Node000008"><a xlink:title=" ">
<path fill="none" stroke="#63b8ff" d="M275.8,-111.59C285.4,-103.85 299.25,-92.69 310.69,-83.47"/>
<polygon fill="#63b8ff" stroke="#63b8ff" points="312.82,-86.25 318.41,-77.25 308.43,-80.8 312.82,-86.25"/>
</a>
</g>
</g>
<!-- Node9 -->
<g id="Node000009" class="node">
<title>Node9</title>
<g id="a_Node000009"><a xlink:title=" ">
<polygon fill="#e0e0e0" stroke="#999999" points="421.62,-76 378.62,-76 378.62,-56 421.62,-56 421.62,-76"/>
<text text-anchor="middle" x="400.12" y="-62.5" font-family="Helvetica,sans-Serif" font-size="10.00">vector</text>
</a>
</g>
</g>
<!-- Node2&#45;&gt;Node9 -->
<g id="edge8_Node000002_Node000009" class="edge">
<title>Node2&#45;&gt;Node9</title>
<g id="a_edge8_Node000002_Node000009"><a xlink:title=" ">
<path fill="none" stroke="#63b8ff" d="M287.81,-111.59C309.99,-102.79 343.3,-89.56 367.89,-79.8"/>
<polygon fill="#63b8ff" stroke="#63b8ff" points="369.09,-83.09 377.09,-76.14 366.51,-76.58 369.09,-83.09"/>
</a>
</g>
</g>
<!-- Node10 -->
<g id="Node000010" class="node">
<title>Node10</title>
<g id="a_Node000010"><a xlink:href="RowDTOAdapter_8hpp.html" target="_top" xlink:title=" ">
<polygon fill="white" stroke="#666666" points="549,-76 439.25,-76 439.25,-56 549,-56 549,-76"/>
<text text-anchor="middle" x="494.12" y="-62.5" font-family="Helvetica,sans-Serif" font-size="10.00">RowDTOAdapter.hpp</text>
</a>
</g>
</g>
<!-- Node2&#45;&gt;Node10 -->
<g id="edge9_Node000002_Node000010" class="edge">
<title>Node2&#45;&gt;Node10</title>
<g id="a_edge9_Node000002_Node000010"><a xlink:title=" ">
<path fill="none" stroke="#63b8ff" d="M302.88,-111.9C341.35,-102.87 400.52,-88.98 442.86,-79.04"/>
<polygon fill="#63b8ff" stroke="#63b8ff" points="443.64,-82.45 452.58,-76.75 442.04,-75.63 443.64,-82.45"/>
</a>
</g>
</g>
<!-- Node10&#45;&gt;Node6 -->
<g id="edge10_Node000010_Node000006" class="edge">
<title>Node10&#45;&gt;Node6</title>
<g id="a_edge10_Node000010_Node000006"><a xlink:title=" ">
<path fill="none" stroke="#63b8ff" d="M494.12,-55.59C494.12,-49.01 494.12,-39.96 494.12,-31.73"/>
<polygon fill="#63b8ff" stroke="#63b8ff" points="497.63,-31.81 494.13,-21.81 490.63,-31.81 497.63,-31.81"/>
</a>
</g>
</g>
</g>
</svg>
