<?xml version="1.0" encoding="UTF-8" standalone="no"?>
<!DOCTYPE svg PUBLIC "-//W3C//DTD SVG 1.1//EN"
 "http://www.w3.org/Graphics/SVG/1.1/DTD/svg11.dtd">
<!-- Generated by graphviz version 9.0.0 (0)
 -->
<!-- Title: src/bot_library/bot/core/database/Database.cpp Pages: 1 -->
<svg width="634pt" height="208pt"
 viewBox="0.00 0.00 633.75 208.00" xmlns="http://www.w3.org/2000/svg" xmlns:xlink="http://www.w3.org/1999/xlink">
<g id="graph0" class="graph" transform="scale(1 1) rotate(0) translate(4 204)">
<title>src/bot_library/bot/core/database/Database.cpp</title>
<!-- Node1 -->
<g id="Node000001" class="node">
<title>Node1</title>
<g id="a_Node000001"><a xlink:title=" ">
<polygon fill="#999999" stroke="#666666" points="511.25,-200 367,-200 367,-168 511.25,-168 511.25,-200"/>
<text text-anchor="start" x="375" y="-186.5" font-family="Helvetica,sans-Serif" font-size="10.00">src/bot_library/bot</text>
<text text-anchor="middle" x="439.12" y="-174.5" font-family="Helvetica,sans-Serif" font-size="10.00">/core/database/Database.cpp</text>
</a>
</g>
</g>
<!-- Node2 -->
<g id="Node000002" class="node">
<title>Node2</title>
<g id="a_Node000002"><a xlink:href="Database_8hpp.html" target="_top" xlink:title=" ">
<polygon fill="white" stroke="#666666" points="192.5,-132 115.75,-132 115.75,-112 192.5,-112 192.5,-132"/>
<text text-anchor="middle" x="154.12" y="-118.5" font-family="Helvetica,sans-Serif" font-size="10.00">Database.hpp</text>
</a>
</g>
</g>
<!-- Node1&#45;&gt;Node2 -->
<g id="edge1_Node000001_Node000002" class="edge">
<title>Node1&#45;&gt;Node2</title>
<g id="a_edge1_Node000001_Node000002"><a xlink:title=" ">
<path fill="none" stroke="#63b8ff" d="M366.84,-167.78C315.87,-157.05 248.91,-142.96 203.85,-133.47"/>
<polygon fill="#63b8ff" stroke="#63b8ff" points="204.6,-130.05 194.09,-131.41 203.15,-136.9 204.6,-130.05"/>
</a>
</g>
</g>
<!-- Node4 -->
<g id="Node000004" class="node">
<title>Node4</title>
<g id="a_Node000004"><a xlink:title=" ">
<polygon fill="#e0e0e0" stroke="#999999" points="308.62,-20 247.62,-20 247.62,0 308.62,0 308.62,-20"/>
<text text-anchor="middle" x="278.12" y="-6.5" font-family="Helvetica,sans-Serif" font-size="10.00">pqxx/pqxx</text>
</a>
</g>
</g>
<!-- Node1&#45;&gt;Node4 -->
<g id="edge10_Node000001_Node000004" class="edge">
<title>Node1&#45;&gt;Node4</title>
<g id="a_edge10_Node000001_Node000004"><a xlink:title=" ">
<path fill="none" stroke="#63b8ff" d="M417.32,-167.54C405.28,-158.23 390.68,-145.58 380.12,-132 356.95,-102.19 366.76,-84.62 342.12,-56 332.02,-44.26 318.21,-34.05 306.01,-26.33"/>
<polygon fill="#63b8ff" stroke="#63b8ff" points="307.92,-23.4 297.55,-21.24 304.31,-29.4 307.92,-23.4"/>
</a>
</g>
</g>
<!-- Node8 -->
<g id="Node000008" class="node">
<title>Node8</title>
<g id="a_Node000008"><a xlink:title=" ">
<polygon fill="#e0e0e0" stroke="#999999" points="433,-132 389.25,-132 389.25,-112 433,-112 433,-132"/>
<text text-anchor="middle" x="411.12" y="-118.5" font-family="Helvetica,sans-Serif" font-size="10.00">format</text>
</a>
</g>
</g>
<!-- Node1&#45;&gt;Node8 -->
<g id="edge8_Node000001_Node000008" class="edge">
<title>Node1&#45;&gt;Node8</title>
<g id="a_edge8_Node000001_Node000008"><a xlink:title=" ">
<path fill="none" stroke="#63b8ff" d="M431.91,-167.55C428.39,-160 424.11,-150.82 420.35,-142.77"/>
<polygon fill="#63b8ff" stroke="#63b8ff" points="423.56,-141.36 416.16,-133.78 417.21,-144.32 423.56,-141.36"/>
</a>
</g>
</g>
<!-- Node9 -->
<g id="Node000009" class="node">
<title>Node9</title>
<g id="a_Node000009"><a xlink:title=" ">
<polygon fill="#e0e0e0" stroke="#999999" points="485.5,-132 450.75,-132 450.75,-112 485.5,-112 485.5,-132"/>
<text text-anchor="middle" x="468.12" y="-118.5" font-family="Helvetica,sans-Serif" font-size="10.00">map</text>
</a>
</g>
</g>
<!-- Node1&#45;&gt;Node9 -->
<g id="edge9_Node000001_Node000009" class="edge">
<title>Node1&#45;&gt;Node9</title>
<g id="a_edge9_Node000001_Node000009"><a xlink:title=" ">
<path fill="none" stroke="#63b8ff" d="M446.59,-167.55C450.24,-160 454.68,-150.82 458.57,-142.77"/>
<polygon fill="#63b8ff" stroke="#63b8ff" points="461.72,-144.3 462.92,-133.77 455.42,-141.25 461.72,-144.3"/>
</a>
</g>
</g>
<!-- Node10 -->
<g id="Node000010" class="node">
<title>Node10</title>
<g id="a_Node000010"><a xlink:title=" ">
<polygon fill="#e0e0e0" stroke="#999999" points="568.88,-132 503.38,-132 503.38,-112 568.88,-112 568.88,-132"/>
<text text-anchor="middle" x="536.12" y="-118.5" font-family="Helvetica,sans-Serif" font-size="10.00">string_view</text>
</a>
</g>
</g>
<!-- Node1&#45;&gt;Node10 -->
<g id="edge11_Node000001_Node000010" class="edge">
<title>Node1&#45;&gt;Node10</title>
<g id="a_edge11_Node000001_Node000010"><a xlink:title=" ">
<path fill="none" stroke="#63b8ff" d="M464.1,-167.55C478.56,-158.61 496.69,-147.39 511.15,-138.45"/>
<polygon fill="#63b8ff" stroke="#63b8ff" points="512.96,-141.44 519.63,-133.2 509.28,-135.49 512.96,-141.44"/>
</a>
</g>
</g>
<!-- Node11 -->
<g id="Node000011" class="node">
<title>Node11</title>
<g id="a_Node000011"><a xlink:title=" ">
<polygon fill="#e0e0e0" stroke="#999999" points="625.75,-132 586.5,-132 586.5,-112 625.75,-112 625.75,-132"/>
<text text-anchor="middle" x="606.12" y="-118.5" font-family="Helvetica,sans-Serif" font-size="10.00">utility</text>
</a>
</g>
</g>
<!-- Node1&#45;&gt;Node11 -->
<g id="edge12_Node000001_Node000011" class="edge">
<title>Node1&#45;&gt;Node11</title>
<g id="a_edge12_Node000001_Node000011"><a xlink:title=" ">
<path fill="none" stroke="#63b8ff" d="M482.13,-167.55C511.26,-157.08 549.06,-143.5 575.23,-134.1"/>
<polygon fill="#63b8ff" stroke="#63b8ff" points="576.37,-137.41 584.6,-130.74 574,-130.82 576.37,-137.41"/>
</a>
</g>
</g>
<!-- Node3 -->
<g id="Node000003" class="node">
<title>Node3</title>
<g id="a_Node000003"><a xlink:title=" ">
<polygon fill="#e0e0e0" stroke="#999999" points="48.25,-76 0,-76 0,-56 48.25,-56 48.25,-76"/>
<text text-anchor="middle" x="24.12" y="-62.5" font-family="Helvetica,sans-Serif" font-size="10.00">cstddef</text>
</a>
</g>
</g>
<!-- Node2&#45;&gt;Node3 -->
<g id="edge2_Node000002_Node000003" class="edge">
<title>Node2&#45;&gt;Node3</title>
<g id="a_edge2_Node000002_Node000003"><a xlink:title=" ">
<path fill="none" stroke="#63b8ff" d="M131.48,-111.59C111.01,-103.09 80.61,-90.46 57.38,-80.81"/>
<polygon fill="#63b8ff" stroke="#63b8ff" points="58.92,-77.66 48.34,-77.06 56.24,-84.13 58.92,-77.66"/>
</a>
</g>
</g>
<!-- Node2&#45;&gt;Node4 -->
<g id="edge3_Node000002_Node000004" class="edge">
<title>Node2&#45;&gt;Node4</title>
<g id="a_edge3_Node000002_Node000004"><a xlink:title=" ">
<path fill="none" stroke="#63b8ff" d="M134.81,-111.69C111.9,-99.4 78.77,-76.87 95.12,-56 112.28,-34.12 187.34,-21.45 235.84,-15.41"/>
<polygon fill="#63b8ff" stroke="#63b8ff" points="236.23,-18.89 245.74,-14.23 235.4,-11.94 236.23,-18.89"/>
</a>
</g>
</g>
<!-- Node5 -->
<g id="Node000005" class="node">
<title>Node5</title>
<g id="a_Node000005"><a xlink:title=" ">
<polygon fill="#e0e0e0" stroke="#999999" points="144.12,-76 104.12,-76 104.12,-56 144.12,-56 144.12,-76"/>
<text text-anchor="middle" x="124.12" y="-62.5" font-family="Helvetica,sans-Serif" font-size="10.00">string</text>
</a>
</g>
</g>
<!-- Node2&#45;&gt;Node5 -->
<g id="edge4_Node000002_Node000005" class="edge">
<title>Node2&#45;&gt;Node5</title>
<g id="a_edge4_Node000002_Node000005"><a xlink:title=" ">
<path fill="none" stroke="#63b8ff" d="M148.9,-111.59C145.03,-104.63 139.62,-94.89 134.84,-86.29"/>
<polygon fill="#63b8ff" stroke="#63b8ff" points="137.94,-84.66 130.03,-77.62 131.82,-88.06 137.94,-84.66"/>
</a>
</g>
</g>
<!-- Node6 -->
<g id="Node000006" class="node">
<title>Node6</title>
<g id="a_Node000006"><a xlink:title=" ">
<polygon fill="#e0e0e0" stroke="#999999" points="205.62,-76 162.62,-76 162.62,-56 205.62,-56 205.62,-76"/>
<text text-anchor="middle" x="184.12" y="-62.5" font-family="Helvetica,sans-Serif" font-size="10.00">vector</text>
</a>
</g>
</g>
<!-- Node2&#45;&gt;Node6 -->
<g id="edge5_Node000002_Node000006" class="edge">
<title>Node2&#45;&gt;Node6</title>
<g id="a_edge5_Node000002_Node000006"><a xlink:title=" ">
<path fill="none" stroke="#63b8ff" d="M159.35,-111.59C163.22,-104.63 168.63,-94.89 173.41,-86.29"/>
<polygon fill="#63b8ff" stroke="#63b8ff" points="176.43,-88.06 178.22,-77.62 170.31,-84.66 176.43,-88.06"/>
</a>
</g>
</g>
<!-- Node7 -->
<g id="Node000007" class="node">
<title>Node7</title>
<g id="a_Node000007"><a xlink:href="RowDTOAdapter_8hpp.html" target="_top" xlink:title=" ">
<polygon fill="white" stroke="#666666" points="333,-76 223.25,-76 223.25,-56 333,-56 333,-76"/>
<text text-anchor="middle" x="278.12" y="-62.5" font-family="Helvetica,sans-Serif" font-size="10.00">RowDTOAdapter.hpp</text>
</a>
</g>
</g>
<!-- Node2&#45;&gt;Node7 -->
<g id="edge6_Node000002_Node000007" class="edge">
<title>Node2&#45;&gt;Node7</title>
<g id="a_edge6_Node000002_Node000007"><a xlink:title=" ">
<path fill="none" stroke="#63b8ff" d="M175.72,-111.59C195.08,-103.17 223.73,-90.69 245.81,-81.07"/>
<polygon fill="#63b8ff" stroke="#63b8ff" points="247.2,-84.29 254.97,-77.08 244.4,-77.87 247.2,-84.29"/>
</a>
</g>
</g>
<!-- Node7&#45;&gt;Node4 -->
<g id="edge7_Node000007_Node000004" class="edge">
<title>Node7&#45;&gt;Node4</title>
<g id="a_edge7_Node000007_Node000004"><a xlink:title=" ">
<path fill="none" stroke="#63b8ff" d="M278.12,-55.59C278.12,-49.01 278.12,-39.96 278.12,-31.73"/>
<polygon fill="#63b8ff" stroke="#63b8ff" points="281.63,-31.81 278.13,-21.81 274.63,-31.81 281.63,-31.81"/>
</a>
</g>
</g>
</g>
</svg>
