<?xml version="1.0" encoding="UTF-8" standalone="no"?>
<!DOCTYPE svg PUBLIC "-//W3C//DTD SVG 1.1//EN"
 "http://www.w3.org/Graphics/SVG/1.1/DTD/svg11.dtd">
<!-- Generated by graphviz version 14.1.5 (0)
 -->
<!-- Title: src/bot_library/bot/core/database/DatabaseExecutor.cpp Pages: 1 -->
<svg width="567pt" height="320pt"
 viewBox="0.00 0.00 567.00 320.00" xmlns="http://www.w3.org/2000/svg" xmlns:xlink="http://www.w3.org/1999/xlink">
<g id="graph0" class="graph" transform="scale(1 1) rotate(0) translate(4 316)">
<title>src/bot_library/bot/core/database/DatabaseExecutor.cpp</title>
<!-- Node1 -->
<g id="Node000001" class="node">
<title>Node1</title>
<g id="a_Node000001"><a xlink:title=" ">
<polygon fill="#999999" stroke="#666666" points="471.5,-312 288.25,-312 288.25,-280 471.5,-280 471.5,-312"/>
<text xml:space="preserve" text-anchor="start" x="296.25" y="-298.5" font-family="Helvetica,sans-Serif" font-size="10.00">src/bot_library/bot</text>
<text xml:space="preserve" text-anchor="middle" x="379.88" y="-286.5" font-family="Helvetica,sans-Serif" font-size="10.00">/core/database/DatabaseExecutor.cpp</text>
</a>
</g>
</g>
<!-- Node2 -->
<g id="Node000002" class="node">
<title>Node2</title>
<g id="a_Node000002"><a xlink:href="DatabaseExecutor_8hpp.html" target="_top" xlink:title=" ">
<polygon fill="white" stroke="#666666" points="394.75,-188 279,-188 279,-168 394.75,-168 394.75,-188"/>
<text xml:space="preserve" text-anchor="middle" x="336.88" y="-174.5" font-family="Helvetica,sans-Serif" font-size="10.00">DatabaseExecutor.hpp</text>
</a>
</g>
</g>
<!-- Node1&#45;&gt;Node2 -->
<g id="edge1_Node000001_Node000002" class="edge">
<title>Node1&#45;&gt;Node2</title>
<g id="a_edge1_Node000001_Node000002"><a xlink:title=" ">
<path fill="none" stroke="#63b8ff" d="M374.25,-279.84C366.58,-259.13 352.8,-221.95 344.28,-198.99"/>
<polygon fill="#63b8ff" stroke="#63b8ff" points="347.66,-198.02 340.9,-189.86 341.09,-200.45 347.66,-198.02"/>
</a>
</g>
</g>
<!-- Node11 -->
<g id="Node000011" class="node">
<title>Node11</title>
<g id="a_Node000011"><a xlink:href="Database_8hpp.html" target="_top" xlink:title=" ">
<polygon fill="white" stroke="#666666" points="461.25,-244 384.5,-244 384.5,-224 461.25,-224 461.25,-244"/>
<text xml:space="preserve" text-anchor="middle" x="422.88" y="-230.5" font-family="Helvetica,sans-Serif" font-size="10.00">Database.hpp</text>
</a>
</g>
</g>
<!-- Node1&#45;&gt;Node11 -->
<g id="edge11_Node000001_Node000011" class="edge">
<title>Node1&#45;&gt;Node11</title>
<g id="a_edge11_Node000001_Node000011"><a xlink:title=" ">
<path fill="none" stroke="#63b8ff" d="M390.95,-279.55C396.61,-271.65 403.54,-261.97 409.5,-253.66"/>
<polygon fill="#63b8ff" stroke="#63b8ff" points="412.27,-255.81 415.25,-245.64 406.58,-251.73 412.27,-255.81"/>
</a>
</g>
</g>
<!-- Node3 -->
<g id="Node000003" class="node">
<title>Node3</title>
<g id="a_Node000003"><a xlink:title=" ">
<polygon fill="#e0e0e0" stroke="#999999" points="181.62,-132 128.12,-132 128.12,-112 181.62,-112 181.62,-132"/>
<text xml:space="preserve" text-anchor="middle" x="154.88" y="-118.5" font-family="Helvetica,sans-Serif" font-size="10.00">iostream</text>
</a>
</g>
</g>
<!-- Node2&#45;&gt;Node3 -->
<g id="edge2_Node000002_Node000003" class="edge">
<title>Node2&#45;&gt;Node3</title>
<g id="a_edge2_Node000002_Node000003"><a xlink:title=" ">
<path fill="none" stroke="#63b8ff" d="M305.17,-167.59C273.88,-158.31 226.02,-144.11 192.74,-134.23"/>
<polygon fill="#63b8ff" stroke="#63b8ff" points="194.09,-130.99 183.51,-131.5 192.1,-137.7 194.09,-130.99"/>
</a>
</g>
</g>
<!-- Node4 -->
<g id="Node000004" class="node">
<title>Node4</title>
<g id="a_Node000004"><a xlink:title=" ">
<polygon fill="#e0e0e0" stroke="#999999" points="540.88,-132 500.88,-132 500.88,-112 540.88,-112 540.88,-132"/>
<text xml:space="preserve" text-anchor="middle" x="520.88" y="-118.5" font-family="Helvetica,sans-Serif" font-size="10.00">string</text>
</a>
</g>
</g>
<!-- Node2&#45;&gt;Node4 -->
<g id="edge3_Node000002_Node000004" class="edge">
<title>Node2&#45;&gt;Node4</title>
<g id="a_edge3_Node000002_Node000004"><a xlink:title=" ">
<path fill="none" stroke="#63b8ff" d="M370.19,-167.52C399.34,-159.18 443.1,-146.56 489.68,-132.62"/>
<polygon fill="#63b8ff" stroke="#63b8ff" points="490.59,-136 499.16,-129.78 488.57,-129.3 490.59,-136"/>
</a>
</g>
</g>
<!-- Node5 -->
<g id="Node000005" class="node">
<title>Node5</title>
<g id="a_Node000005"><a xlink:title=" ">
<polygon fill="#e0e0e0" stroke="#999999" points="421.5,-132 382.25,-132 382.25,-112 421.5,-112 421.5,-132"/>
<text xml:space="preserve" text-anchor="middle" x="401.88" y="-118.5" font-family="Helvetica,sans-Serif" font-size="10.00">utility</text>
</a>
</g>
</g>
<!-- Node2&#45;&gt;Node5 -->
<g id="edge4_Node000002_Node000005" class="edge">
<title>Node2&#45;&gt;Node5</title>
<g id="a_edge4_Node000002_Node000005"><a xlink:title=" ">
<path fill="none" stroke="#63b8ff" d="M348.2,-167.59C357.52,-159.85 370.95,-148.69 382.05,-139.47"/>
<polygon fill="#63b8ff" stroke="#63b8ff" points="384.06,-142.35 389.52,-133.27 379.59,-136.96 384.06,-142.35"/>
</a>
</g>
</g>
<!-- Node6 -->
<g id="Node000006" class="node">
<title>Node6</title>
<g id="a_Node000006"><a xlink:title=" ">
<polygon fill="#e0e0e0" stroke="#999999" points="482.38,-132 439.38,-132 439.38,-112 482.38,-112 482.38,-132"/>
<text xml:space="preserve" text-anchor="middle" x="460.88" y="-118.5" font-family="Helvetica,sans-Serif" font-size="10.00">vector</text>
</a>
</g>
</g>
<!-- Node2&#45;&gt;Node6 -->
<g id="edge5_Node000002_Node000006" class="edge">
<title>Node2&#45;&gt;Node6</title>
<g id="a_edge5_Node000002_Node000006"><a xlink:title=" ">
<path fill="none" stroke="#63b8ff" d="M358.47,-167.59C377.83,-159.17 406.48,-146.69 428.56,-137.07"/>
<polygon fill="#63b8ff" stroke="#63b8ff" points="429.95,-140.29 437.72,-133.08 427.15,-133.87 429.95,-140.29"/>
</a>
</g>
</g>
<!-- Node7 -->
<g id="Node000007" class="node">
<title>Node7</title>
<g id="a_Node000007"><a xlink:href="IDatabaseConnectionProvider_8hpp.html" target="_top" xlink:title=" ">
<polygon fill="white" stroke="#666666" points="364.5,-132 199.25,-132 199.25,-112 364.5,-112 364.5,-132"/>
<text xml:space="preserve" text-anchor="middle" x="281.88" y="-118.5" font-family="Helvetica,sans-Serif" font-size="10.00">IDatabaseConnectionProvider.hpp</text>
</a>
</g>
</g>
<!-- Node2&#45;&gt;Node7 -->
<g id="edge6_Node000002_Node000007" class="edge">
<title>Node2&#45;&gt;Node7</title>
<g id="a_edge6_Node000002_Node000007"><a xlink:title=" ">
<path fill="none" stroke="#63b8ff" d="M327.29,-167.59C319.64,-160.08 308.72,-149.35 299.5,-140.3"/>
<polygon fill="#63b8ff" stroke="#63b8ff" points="302.01,-137.87 292.43,-133.36 297.11,-142.86 302.01,-137.87"/>
</a>
</g>
</g>
<!-- Node10 -->
<g id="Node000010" class="node">
<title>Node10</title>
<g id="a_Node000010"><a xlink:href="RowDTOAdapter_8hpp.html" target="_top" xlink:title=" ">
<polygon fill="white" stroke="#666666" points="109.75,-132 0,-132 0,-112 109.75,-112 109.75,-132"/>
<text xml:space="preserve" text-anchor="middle" x="54.88" y="-118.5" font-family="Helvetica,sans-Serif" font-size="10.00">RowDTOAdapter.hpp</text>
</a>
</g>
</g>
<!-- Node2&#45;&gt;Node10 -->
<g id="edge9_Node000002_Node000010" class="edge">
<title>Node2&#45;&gt;Node10</title>
<g id="a_edge9_Node000002_Node000010"><a xlink:title=" ">
<path fill="none" stroke="#63b8ff" d="M287.43,-167.53C239.56,-158.36 166.87,-144.45 115.53,-134.61"/>
<polygon fill="#63b8ff" stroke="#63b8ff" points="116.23,-131.18 105.75,-132.74 114.91,-138.06 116.23,-131.18"/>
</a>
</g>
</g>
<!-- Node8 -->
<g id="Node000008" class="node">
<title>Node8</title>
<g id="a_Node000008"><a xlink:href="DatabaseBackend_8hpp.html" target="_top" xlink:title=" ">
<polygon fill="white" stroke="#666666" points="339.38,-76 224.38,-76 224.38,-56 339.38,-56 339.38,-76"/>
<text xml:space="preserve" text-anchor="middle" x="281.88" y="-62.5" font-family="Helvetica,sans-Serif" font-size="10.00">DatabaseBackend.hpp</text>
</a>
</g>
</g>
<!-- Node7&#45;&gt;Node8 -->
<g id="edge7_Node000007_Node000008" class="edge">
<title>Node7&#45;&gt;Node8</title>
<g id="a_edge7_Node000007_Node000008"><a xlink:title=" ">
<path fill="none" stroke="#63b8ff" d="M281.88,-111.59C281.88,-105.01 281.88,-95.96 281.88,-87.73"/>
<polygon fill="#63b8ff" stroke="#63b8ff" points="285.38,-87.81 281.88,-77.81 278.38,-87.81 285.38,-87.81"/>
</a>
</g>
</g>
<!-- Node9 -->
<g id="Node000009" class="node">
<title>Node9</title>
<g id="a_Node000009"><a xlink:title=" ">
<polygon fill="#e0e0e0" stroke="#999999" points="312.38,-20 251.38,-20 251.38,0 312.38,0 312.38,-20"/>
<text xml:space="preserve" text-anchor="middle" x="281.88" y="-6.5" font-family="Helvetica,sans-Serif" font-size="10.00">pqxx/pqxx</text>
</a>
</g>
</g>
<!-- Node8&#45;&gt;Node9 -->
<g id="edge8_Node000008_Node000009" class="edge">
<title>Node8&#45;&gt;Node9</title>
<g id="a_edge8_Node000008_Node000009"><a xlink:title=" ">
<path fill="none" stroke="#63b8ff" d="M281.88,-55.59C281.88,-49.01 281.88,-39.96 281.88,-31.73"/>
<polygon fill="#63b8ff" stroke="#63b8ff" points="285.38,-31.81 281.88,-21.81 278.38,-31.81 285.38,-31.81"/>
</a>
</g>
</g>
<!-- Node10&#45;&gt;Node8 -->
<g id="edge10_Node000010_Node000008" class="edge">
<title>Node10&#45;&gt;Node8</title>
<g id="a_edge10_Node000010_Node000008"><a xlink:title=" ">
<path fill="none" stroke="#63b8ff" d="M94.68,-111.53C132.56,-102.52 189.76,-88.91 230.96,-79.11"/>
<polygon fill="#63b8ff" stroke="#63b8ff" points="231.73,-82.53 240.65,-76.81 230.11,-75.72 231.73,-82.53"/>
</a>
</g>
</g>
<!-- Node11&#45;&gt;Node2 -->
<g id="edge16_Node000011_Node000002" class="edge">
<title>Node11&#45;&gt;Node2</title>
<g id="a_edge16_Node000011_Node000002"><a xlink:title=" ">
<path fill="none" stroke="#63b8ff" d="M407.89,-223.59C395.15,-215.59 376.58,-203.93 361.63,-194.54"/>
<polygon fill="#63b8ff" stroke="#63b8ff" points="363.58,-191.64 353.25,-189.28 359.86,-197.57 363.58,-191.64"/>
</a>
</g>
</g>
<!-- Node11&#45;&gt;Node4 -->
<g id="edge12_Node000011_Node000004" class="edge">
<title>Node11&#45;&gt;Node4</title>
<g id="a_edge12_Node000011_Node000004"><a xlink:title=" ">
<path fill="none" stroke="#63b8ff" d="M431.23,-223.62C447.58,-205.27 484.02,-164.37 505.06,-140.75"/>
<polygon fill="#63b8ff" stroke="#63b8ff" points="507.5,-143.28 511.53,-133.48 502.27,-138.62 507.5,-143.28"/>
</a>
</g>
</g>
<!-- Node11&#45;&gt;Node5 -->
<g id="edge13_Node000011_Node000005" class="edge">
<title>Node11&#45;&gt;Node5</title>
<g id="a_edge13_Node000011_Node000005"><a xlink:title=" ">
<path fill="none" stroke="#63b8ff" d="M421.08,-223.62C417.72,-206.01 410.39,-167.59 405.82,-143.65"/>
<polygon fill="#63b8ff" stroke="#63b8ff" points="409.26,-143.01 403.94,-133.84 402.38,-144.32 409.26,-143.01"/>
</a>
</g>
</g>
<!-- Node11&#45;&gt;Node6 -->
<g id="edge14_Node000011_Node000006" class="edge">
<title>Node11&#45;&gt;Node6</title>
<g id="a_edge14_Node000011_Node000006"><a xlink:title=" ">
<path fill="none" stroke="#63b8ff" d="M426.11,-223.62C432.26,-205.84 445.72,-166.88 453.97,-143"/>
<polygon fill="#63b8ff" stroke="#63b8ff" points="457.19,-144.38 457.15,-133.79 450.58,-142.09 457.19,-144.38"/>
</a>
</g>
</g>
<!-- Node11&#45;&gt;Node8 -->
<g id="edge15_Node000011_Node000008" class="edge">
<title>Node11&#45;&gt;Node8</title>
<g id="a_edge15_Node000011_Node000008"><a xlink:title=" ">
<path fill="none" stroke="#63b8ff" d="M447.25,-223.54C493.99,-204.05 588.33,-157.45 549.88,-112 524.85,-82.43 421.66,-72.28 350.87,-68.8"/>
<polygon fill="#63b8ff" stroke="#63b8ff" points="351.47,-65.32 341.32,-68.37 351.15,-72.32 351.47,-65.32"/>
</a>
</g>
</g>
<!-- Node11&#45;&gt;Node10 -->
<g id="edge17_Node000011_Node000010" class="edge">
<title>Node11&#45;&gt;Node10</title>
<g id="a_edge17_Node000011_Node000010"><a xlink:title=" ">
<path fill="none" stroke="#63b8ff" d="M390.32,-223.5C359.33,-214.44 311.4,-200.38 269.88,-188 209.67,-170.05 140.1,-148.95 96.78,-135.77"/>
<polygon fill="#63b8ff" stroke="#63b8ff" points="97.86,-132.44 87.28,-132.88 95.82,-139.14 97.86,-132.44"/>
</a>
</g>
</g>
</g>
</svg>
