<?xml version="1.0" encoding="UTF-8" standalone="no"?>
<!DOCTYPE svg PUBLIC "-//W3C//DTD SVG 1.1//EN"
 "http://www.w3.org/Graphics/SVG/1.1/DTD/svg11.dtd">
<!-- Generated by graphviz version 13.0.1 (0)
 -->
<!-- Title: src/bot_library/bot/core/database/Database.cpp Pages: 1 -->
<svg width="517pt" height="264pt"
 viewBox="0.00 0.00 517.00 264.00" xmlns="http://www.w3.org/2000/svg" xmlns:xlink="http://www.w3.org/1999/xlink">
<g id="graph0" class="graph" transform="scale(1 1) rotate(0) translate(4 260)">
<title>src/bot_library/bot/core/database/Database.cpp</title>
<!-- Node1 -->
<g id="Node000001" class="node">
<title>Node1</title>
<g id="a_Node000001"><a xlink:title=" ">
<polygon fill="#999999" stroke="#666666" points="464.88,-256 320.62,-256 320.62,-224 464.88,-224 464.88,-256"/>
<text xml:space="preserve" text-anchor="start" x="328.62" y="-242.5" font-family="Helvetica,sans-Serif" font-size="10.00">src/bot_library/bot</text>
<text xml:space="preserve" text-anchor="middle" x="392.75" y="-230.5" font-family="Helvetica,sans-Serif" font-size="10.00">/core/database/Database.cpp</text>
</a>
</g>
</g>
<!-- Node2 -->
<g id="Node000002" class="node">
<title>Node2</title>
<g id="a_Node000002"><a xlink:href="Database_8hpp.html" target="_top" xlink:title=" ">
<polygon fill="white" stroke="#666666" points="215.12,-188 138.38,-188 138.38,-168 215.12,-168 215.12,-188"/>
<text xml:space="preserve" text-anchor="middle" x="176.75" y="-174.5" font-family="Helvetica,sans-Serif" font-size="10.00">Database.hpp</text>
</a>
</g>
</g>
<!-- Node1&#45;&gt;Node2 -->
<g id="edge1_Node000001_Node000002" class="edge">
<title>Node1&#45;&gt;Node2</title>
<g id="a_edge1_Node000001_Node000002"><a xlink:title=" ">
<path fill="none" stroke="#63b8ff" d="M337.12,-223.55C301.3,-213.6 255.33,-200.83 221.8,-191.51"/>
<polygon fill="#63b8ff" stroke="#63b8ff" points="222.97,-188.21 212.4,-188.9 221.09,-194.95 222.97,-188.21"/>
</a>
</g>
</g>
<!-- Node6 -->
<g id="Node000006" class="node">
<title>Node6</title>
<g id="a_Node000006"><a xlink:href="DatabaseBackend_8hpp.html" target="_top" xlink:title=" ">
<polygon fill="white" stroke="#666666" points="342.25,-76 227.25,-76 227.25,-56 342.25,-56 342.25,-76"/>
<text xml:space="preserve" text-anchor="middle" x="284.75" y="-62.5" font-family="Helvetica,sans-Serif" font-size="10.00">DatabaseBackend.hpp</text>
</a>
</g>
</g>
<!-- Node1&#45;&gt;Node6 -->
<g id="edge11_Node000001_Node000006" class="edge">
<title>Node1&#45;&gt;Node6</title>
<g id="a_edge11_Node000001_Node000006"><a xlink:title=" ">
<path fill="none" stroke="#63b8ff" d="M390.61,-223.89C386.38,-198.55 375.01,-146.85 348.75,-112 339.62,-99.88 326.27,-89.77 314.12,-82.22"/>
<polygon fill="#63b8ff" stroke="#63b8ff" points="316.03,-79.28 305.63,-77.26 312.49,-85.32 316.03,-79.28"/>
</a>
</g>
</g>
<!-- Node9 -->
<g id="Node000009" class="node">
<title>Node9</title>
<g id="a_Node000009"><a xlink:title=" ">
<polygon fill="#e0e0e0" stroke="#999999" points="439.62,-188 395.88,-188 395.88,-168 439.62,-168 439.62,-188"/>
<text xml:space="preserve" text-anchor="middle" x="417.75" y="-174.5" font-family="Helvetica,sans-Serif" font-size="10.00">format</text>
</a>
</g>
</g>
<!-- Node1&#45;&gt;Node9 -->
<g id="edge9_Node000001_Node000009" class="edge">
<title>Node1&#45;&gt;Node9</title>
<g id="a_edge9_Node000001_Node000009"><a xlink:title=" ">
<path fill="none" stroke="#63b8ff" d="M399.19,-223.55C402.33,-216 406.16,-206.82 409.51,-198.77"/>
<polygon fill="#63b8ff" stroke="#63b8ff" points="412.63,-200.38 413.25,-189.81 406.17,-197.69 412.63,-200.38"/>
</a>
</g>
</g>
<!-- Node10 -->
<g id="Node000010" class="node">
<title>Node10</title>
<g id="a_Node000010"><a xlink:title=" ">
<polygon fill="#e0e0e0" stroke="#999999" points="509.38,-188 458.12,-188 458.12,-168 509.38,-168 509.38,-188"/>
<text xml:space="preserve" text-anchor="middle" x="483.75" y="-174.5" font-family="Helvetica,sans-Serif" font-size="10.00">memory</text>
</a>
</g>
</g>
<!-- Node1&#45;&gt;Node10 -->
<g id="edge10_Node000001_Node000010" class="edge">
<title>Node1&#45;&gt;Node10</title>
<g id="a_edge10_Node000001_Node000010"><a xlink:title=" ">
<path fill="none" stroke="#63b8ff" d="M416.18,-223.55C429.61,-214.69 446.43,-203.61 459.92,-194.71"/>
<polygon fill="#63b8ff" stroke="#63b8ff" points="461.8,-197.67 468.22,-189.24 457.94,-191.82 461.8,-197.67"/>
</a>
</g>
</g>
<!-- Node3 -->
<g id="Node000003" class="node">
<title>Node3</title>
<g id="a_Node000003"><a xlink:title=" ">
<polygon fill="#e0e0e0" stroke="#999999" points="53.5,-132 0,-132 0,-112 53.5,-112 53.5,-132"/>
<text xml:space="preserve" text-anchor="middle" x="26.75" y="-118.5" font-family="Helvetica,sans-Serif" font-size="10.00">iostream</text>
</a>
</g>
</g>
<!-- Node2&#45;&gt;Node3 -->
<g id="edge2_Node000002_Node000003" class="edge">
<title>Node2&#45;&gt;Node3</title>
<g id="a_edge2_Node000002_Node000003"><a xlink:title=" ">
<path fill="none" stroke="#63b8ff" d="M150.62,-167.59C126.57,-158.94 90.65,-146 63.67,-136.29"/>
<polygon fill="#63b8ff" stroke="#63b8ff" points="65.1,-133.09 54.51,-132.99 62.73,-139.67 65.1,-133.09"/>
</a>
</g>
</g>
<!-- Node4 -->
<g id="Node000004" class="node">
<title>Node4</title>
<g id="a_Node000004"><a xlink:title=" ">
<polygon fill="#e0e0e0" stroke="#999999" points="111.75,-132 71.75,-132 71.75,-112 111.75,-112 111.75,-132"/>
<text xml:space="preserve" text-anchor="middle" x="91.75" y="-118.5" font-family="Helvetica,sans-Serif" font-size="10.00">string</text>
</a>
</g>
</g>
<!-- Node2&#45;&gt;Node4 -->
<g id="edge3_Node000002_Node000004" class="edge">
<title>Node2&#45;&gt;Node4</title>
<g id="a_edge3_Node000002_Node000004"><a xlink:title=" ">
<path fill="none" stroke="#63b8ff" d="M161.94,-167.59C149.35,-159.59 131,-147.93 116.22,-138.54"/>
<polygon fill="#63b8ff" stroke="#63b8ff" points="118.27,-135.7 107.95,-133.29 114.51,-141.61 118.27,-135.7"/>
</a>
</g>
</g>
<!-- Node5 -->
<g id="Node000005" class="node">
<title>Node5</title>
<g id="a_Node000005"><a xlink:title=" ">
<polygon fill="#e0e0e0" stroke="#999999" points="173.25,-132 130.25,-132 130.25,-112 173.25,-112 173.25,-132"/>
<text xml:space="preserve" text-anchor="middle" x="151.75" y="-118.5" font-family="Helvetica,sans-Serif" font-size="10.00">vector</text>
</a>
</g>
</g>
<!-- Node2&#45;&gt;Node5 -->
<g id="edge4_Node000002_Node000005" class="edge">
<title>Node2&#45;&gt;Node5</title>
<g id="a_edge4_Node000002_Node000005"><a xlink:title=" ">
<path fill="none" stroke="#63b8ff" d="M172.4,-167.59C169.2,-160.7 164.76,-151.1 160.81,-142.57"/>
<polygon fill="#63b8ff" stroke="#63b8ff" points="164.07,-141.28 156.69,-133.67 157.72,-144.22 164.07,-141.28"/>
</a>
</g>
</g>
<!-- Node2&#45;&gt;Node6 -->
<g id="edge5_Node000002_Node000006" class="edge">
<title>Node2&#45;&gt;Node6</title>
<g id="a_edge5_Node000002_Node000006"><a xlink:title=" ">
<path fill="none" stroke="#63b8ff" d="M181.54,-167.84C188.79,-154.52 203.56,-129.5 220.75,-112 231.83,-100.72 246.07,-90.4 258.3,-82.49"/>
<polygon fill="#63b8ff" stroke="#63b8ff" points="260.07,-85.51 266.7,-77.25 256.37,-79.57 260.07,-85.51"/>
</a>
</g>
</g>
<!-- Node8 -->
<g id="Node000008" class="node">
<title>Node8</title>
<g id="a_Node000008"><a xlink:href="RowDTOAdapter_8hpp.html" target="_top" xlink:title=" ">
<polygon fill="white" stroke="#666666" points="339.62,-132 229.88,-132 229.88,-112 339.62,-112 339.62,-132"/>
<text xml:space="preserve" text-anchor="middle" x="284.75" y="-118.5" font-family="Helvetica,sans-Serif" font-size="10.00">RowDTOAdapter.hpp</text>
</a>
</g>
</g>
<!-- Node2&#45;&gt;Node8 -->
<g id="edge7_Node000002_Node000008" class="edge">
<title>Node2&#45;&gt;Node8</title>
<g id="a_edge7_Node000002_Node000008"><a xlink:title=" ">
<path fill="none" stroke="#63b8ff" d="M195.56,-167.59C212.11,-159.32 236.46,-147.14 255.54,-137.6"/>
<polygon fill="#63b8ff" stroke="#63b8ff" points="257.06,-140.76 264.44,-133.16 253.93,-134.5 257.06,-140.76"/>
</a>
</g>
</g>
<!-- Node7 -->
<g id="Node000007" class="node">
<title>Node7</title>
<g id="a_Node000007"><a xlink:title=" ">
<polygon fill="#e0e0e0" stroke="#999999" points="315.25,-20 254.25,-20 254.25,0 315.25,0 315.25,-20"/>
<text xml:space="preserve" text-anchor="middle" x="284.75" y="-6.5" font-family="Helvetica,sans-Serif" font-size="10.00">pqxx/pqxx</text>
</a>
</g>
</g>
<!-- Node6&#45;&gt;Node7 -->
<g id="edge6_Node000006_Node000007" class="edge">
<title>Node6&#45;&gt;Node7</title>
<g id="a_edge6_Node000006_Node000007"><a xlink:title=" ">
<path fill="none" stroke="#63b8ff" d="M284.75,-55.59C284.75,-49.01 284.75,-39.96 284.75,-31.73"/>
<polygon fill="#63b8ff" stroke="#63b8ff" points="288.25,-31.81 284.75,-21.81 281.25,-31.81 288.25,-31.81"/>
</a>
</g>
</g>
<!-- Node8&#45;&gt;Node6 -->
<g id="edge8_Node000008_Node000006" class="edge">
<title>Node8&#45;&gt;Node6</title>
<g id="a_edge8_Node000008_Node000006"><a xlink:title=" ">
<path fill="none" stroke="#63b8ff" d="M284.75,-111.59C284.75,-105.01 284.75,-95.96 284.75,-87.73"/>
<polygon fill="#63b8ff" stroke="#63b8ff" points="288.25,-87.81 284.75,-77.81 281.25,-87.81 288.25,-87.81"/>
</a>
</g>
</g>
</g>
</svg>
