<?xml version="1.0" encoding="UTF-8" standalone="no"?>
<!DOCTYPE svg PUBLIC "-//W3C//DTD SVG 1.1//EN"
 "http://www.w3.org/Graphics/SVG/1.1/DTD/svg11.dtd">
<!-- Generated by graphviz version 10.0.1 (0)
 -->
<!-- Title: src/bot_library/bot/core/database/include/Database.hpp Pages: 1 -->
<svg width="476pt" height="164pt"
 viewBox="0.00 0.00 476.00 164.00" xmlns="http://www.w3.org/2000/svg" xmlns:xlink="http://www.w3.org/1999/xlink">
<g id="graph0" class="graph" transform="scale(1 1) rotate(0) translate(4 160)">
<title>src/bot_library/bot/core/database/include/Database.hpp</title>
<!-- Node1 -->
<g id="Node000001" class="node">
<title>Node1</title>
<g id="a_Node000001"><a xlink:title=" ">
<polygon fill="#999999" stroke="#666666" points="253.25,-156 139,-156 139,-112 253.25,-112 253.25,-156"/>
<text text-anchor="start" x="147" y="-142.5" font-family="Helvetica,sans-Serif" font-size="10.00">src/bot_library/bot</text>
<text text-anchor="start" x="147" y="-130.5" font-family="Helvetica,sans-Serif" font-size="10.00">/core/database/include</text>
<text text-anchor="middle" x="196.12" y="-118.5" font-family="Helvetica,sans-Serif" font-size="10.00">/Database.hpp</text>
</a>
</g>
</g>
<!-- Node2 -->
<g id="Node000002" class="node">
<title>Node2</title>
<g id="a_Node000002"><a xlink:title=" ">
<polygon fill="#e0e0e0" stroke="#999999" points="48.25,-76 0,-76 0,-56 48.25,-56 48.25,-76"/>
<text text-anchor="middle" x="24.12" y="-62.5" font-family="Helvetica,sans-Serif" font-size="10.00">cstddef</text>
</a>
</g>
</g>
<!-- Node1&#45;&gt;Node2 -->
<g id="edge1_Node000001_Node000002" class="edge">
<title>Node1&#45;&gt;Node2</title>
<g id="a_edge1_Node000001_Node000002"><a xlink:title=" ">
<path fill="none" stroke="#63b8ff" d="M140.28,-111.57C113.52,-101.3 82.3,-89.32 58.97,-80.37"/>
<polygon fill="#63b8ff" stroke="#63b8ff" points="60.53,-77.22 49.94,-76.91 58.03,-83.76 60.53,-77.22"/>
</a>
</g>
</g>
<!-- Node3 -->
<g id="Node000003" class="node">
<title>Node3</title>
<g id="a_Node000003"><a xlink:title=" ">
<polygon fill="#e0e0e0" stroke="#999999" points="119.88,-76 66.38,-76 66.38,-56 119.88,-56 119.88,-76"/>
<text text-anchor="middle" x="93.12" y="-62.5" font-family="Helvetica,sans-Serif" font-size="10.00">iostream</text>
</a>
</g>
</g>
<!-- Node1&#45;&gt;Node3 -->
<g id="edge2_Node000001_Node000003" class="edge">
<title>Node1&#45;&gt;Node3</title>
<g id="a_edge2_Node000001_Node000003"><a xlink:title=" ">
<path fill="none" stroke="#63b8ff" d="M162.68,-111.57C147.89,-102.09 130.82,-91.16 117.3,-82.49"/>
<polygon fill="#63b8ff" stroke="#63b8ff" points="119.32,-79.63 109.01,-77.18 115.55,-85.52 119.32,-79.63"/>
</a>
</g>
</g>
<!-- Node4 -->
<g id="Node000004" class="node">
<title>Node4</title>
<g id="a_Node000004"><a xlink:title=" ">
<polygon fill="#e0e0e0" stroke="#999999" points="310.62,-20 249.62,-20 249.62,0 310.62,0 310.62,-20"/>
<text text-anchor="middle" x="280.12" y="-6.5" font-family="Helvetica,sans-Serif" font-size="10.00">pqxx/pqxx</text>
</a>
</g>
</g>
<!-- Node1&#45;&gt;Node4 -->
<g id="edge3_Node000001_Node000004" class="edge">
<title>Node1&#45;&gt;Node4</title>
<g id="a_edge3_Node000001_Node000004"><a xlink:title=" ">
<path fill="none" stroke="#63b8ff" d="M177.94,-111.79C166.35,-95.57 155.5,-73.14 167.12,-56 182.95,-32.66 213.02,-21.43 238.16,-16.02"/>
<polygon fill="#63b8ff" stroke="#63b8ff" points="238.63,-19.49 247.81,-14.2 237.33,-12.61 238.63,-19.49"/>
</a>
</g>
</g>
<!-- Node5 -->
<g id="Node000005" class="node">
<title>Node5</title>
<g id="a_Node000005"><a xlink:title=" ">
<polygon fill="#e0e0e0" stroke="#999999" points="216.12,-76 176.12,-76 176.12,-56 216.12,-56 216.12,-76"/>
<text text-anchor="middle" x="196.12" y="-62.5" font-family="Helvetica,sans-Serif" font-size="10.00">string</text>
</a>
</g>
</g>
<!-- Node1&#45;&gt;Node5 -->
<g id="edge4_Node000001_Node000005" class="edge">
<title>Node1&#45;&gt;Node5</title>
<g id="a_edge4_Node000001_Node000005"><a xlink:title=" ">
<path fill="none" stroke="#63b8ff" d="M196.12,-111.75C196.12,-104.13 196.12,-95.53 196.12,-87.93"/>
<polygon fill="#63b8ff" stroke="#63b8ff" points="199.63,-87.93 196.13,-77.93 192.63,-87.93 199.63,-87.93"/>
</a>
</g>
</g>
<!-- Node6 -->
<g id="Node000006" class="node">
<title>Node6</title>
<g id="a_Node000006"><a xlink:title=" ">
<polygon fill="#e0e0e0" stroke="#999999" points="279.75,-76 234.5,-76 234.5,-56 279.75,-56 279.75,-76"/>
<text text-anchor="middle" x="257.12" y="-62.5" font-family="Helvetica,sans-Serif" font-size="10.00">variant</text>
</a>
</g>
</g>
<!-- Node1&#45;&gt;Node6 -->
<g id="edge5_Node000001_Node000006" class="edge">
<title>Node1&#45;&gt;Node6</title>
<g id="a_edge5_Node000001_Node000006"><a xlink:title=" ">
<path fill="none" stroke="#63b8ff" d="M215.76,-111.75C223.84,-103.01 233.1,-93 240.8,-84.66"/>
<polygon fill="#63b8ff" stroke="#63b8ff" points="243.18,-87.25 247.39,-77.53 238.03,-82.5 243.18,-87.25"/>
</a>
</g>
</g>
<!-- Node7 -->
<g id="Node000007" class="node">
<title>Node7</title>
<g id="a_Node000007"><a xlink:title=" ">
<polygon fill="#e0e0e0" stroke="#999999" points="340.62,-76 297.62,-76 297.62,-56 340.62,-56 340.62,-76"/>
<text text-anchor="middle" x="319.12" y="-62.5" font-family="Helvetica,sans-Serif" font-size="10.00">vector</text>
</a>
</g>
</g>
<!-- Node1&#45;&gt;Node7 -->
<g id="edge6_Node000001_Node000007" class="edge">
<title>Node1&#45;&gt;Node7</title>
<g id="a_edge6_Node000001_Node000007"><a xlink:title=" ">
<path fill="none" stroke="#63b8ff" d="M236.06,-111.57C254.24,-101.81 275.31,-90.51 291.67,-81.73"/>
<polygon fill="#63b8ff" stroke="#63b8ff" points="293.18,-84.89 300.34,-77.08 289.87,-78.73 293.18,-84.89"/>
</a>
</g>
</g>
<!-- Node8 -->
<g id="Node000008" class="node">
<title>Node8</title>
<g id="a_Node000008"><a xlink:href="RowDTOAdapter_8hpp.html" target="_top" xlink:title=" ">
<polygon fill="white" stroke="#666666" points="468,-76 358.25,-76 358.25,-56 468,-56 468,-76"/>
<text text-anchor="middle" x="413.12" y="-62.5" font-family="Helvetica,sans-Serif" font-size="10.00">RowDTOAdapter.hpp</text>
</a>
</g>
</g>
<!-- Node1&#45;&gt;Node8 -->
<g id="edge7_Node000001_Node000008" class="edge">
<title>Node1&#45;&gt;Node8</title>
<g id="a_edge7_Node000001_Node000008"><a xlink:title=" ">
<path fill="none" stroke="#63b8ff" d="M253.71,-115.49C290.71,-104.23 337.93,-89.87 371.34,-79.71"/>
<polygon fill="#63b8ff" stroke="#63b8ff" points="372.12,-83.13 380.67,-76.87 370.08,-76.43 372.12,-83.13"/>
</a>
</g>
</g>
<!-- Node8&#45;&gt;Node4 -->
<g id="edge8_Node000008_Node000004" class="edge">
<title>Node8&#45;&gt;Node4</title>
<g id="a_edge8_Node000008_Node000004"><a xlink:title=" ">
<path fill="none" stroke="#63b8ff" d="M389.96,-55.59C368.92,-47.05 337.63,-34.35 313.82,-24.68"/>
<polygon fill="#63b8ff" stroke="#63b8ff" points="315.46,-21.57 304.87,-21.05 312.82,-28.05 315.46,-21.57"/>
</a>
</g>
</g>
</g>
</svg>
