<?xml version="1.0" encoding="UTF-8" standalone="no"?>
<!DOCTYPE svg PUBLIC "-//W3C//DTD SVG 1.1//EN"
 "http://www.w3.org/Graphics/SVG/1.1/DTD/svg11.dtd">
<!-- Generated by graphviz version 9.0.0 (0)
 -->
<!-- Title: src/bot_library/bot/core/database/include/Database.hpp Pages: 1 -->
<svg width="1144pt" height="256pt"
 viewBox="0.00 0.00 1143.50 256.00" xmlns="http://www.w3.org/2000/svg" xmlns:xlink="http://www.w3.org/1999/xlink">
<g id="graph0" class="graph" transform="scale(1 1) rotate(0) translate(4 252)">
<title>src/bot_library/bot/core/database/include/Database.hpp</title>
<!-- Node1 -->
<g id="Node000001" class="node">
<title>Node1</title>
<g id="a_Node000001"><a xlink:title=" ">
<polygon fill="#999999" stroke="#666666" points="696,-248 581.75,-248 581.75,-204 696,-204 696,-248"/>
<text text-anchor="start" x="589.75" y="-234.5" font-family="Helvetica,sans-Serif" font-size="10.00">src/bot_library/bot</text>
<text text-anchor="start" x="589.75" y="-222.5" font-family="Helvetica,sans-Serif" font-size="10.00">/core/database/include</text>
<text text-anchor="middle" x="638.88" y="-210.5" font-family="Helvetica,sans-Serif" font-size="10.00">/Database.hpp</text>
</a>
</g>
</g>
<!-- Node2 -->
<g id="Node000002" class="node">
<title>Node2</title>
<g id="a_Node000002"><a xlink:href="Database_8cpp.html" target="_top" xlink:title=" ">
<polygon fill="white" stroke="#666666" points="441,-168 296.75,-168 296.75,-136 441,-136 441,-168"/>
<text text-anchor="start" x="304.75" y="-154.5" font-family="Helvetica,sans-Serif" font-size="10.00">src/bot_library/bot</text>
<text text-anchor="middle" x="368.88" y="-142.5" font-family="Helvetica,sans-Serif" font-size="10.00">/core/database/Database.cpp</text>
</a>
</g>
</g>
<!-- Node1&#45;&gt;Node2 -->
<g id="edge1_Node000001_Node000002" class="edge">
<title>Node1&#45;&gt;Node2</title>
<g id="a_edge1_Node000001_Node000002"><a xlink:title=" ">
<path fill="none" stroke="#63b8ff" d="M570.3,-206.71C525.97,-194.89 468.91,-179.68 426.84,-168.46"/>
<polygon fill="#63b8ff" stroke="#63b8ff" points="569.26,-210.06 579.82,-209.25 571.06,-203.29 569.26,-210.06"/>
</a>
</g>
</g>
<!-- Node3 -->
<g id="Node000003" class="node">
<title>Node3</title>
<g id="a_Node000003"><a xlink:href="Core_8hpp.html" target="_top" xlink:title=" ">
<polygon fill="white" stroke="#666666" points="611,-168 496.75,-168 496.75,-136 611,-136 611,-168"/>
<text text-anchor="start" x="504.75" y="-154.5" font-family="Helvetica,sans-Serif" font-size="10.00">src/bot_library/bot</text>
<text text-anchor="middle" x="553.88" y="-142.5" font-family="Helvetica,sans-Serif" font-size="10.00">/core/include/Core.hpp</text>
</a>
</g>
</g>
<!-- Node1&#45;&gt;Node3 -->
<g id="edge2_Node000001_Node000003" class="edge">
<title>Node1&#45;&gt;Node3</title>
<g id="a_edge2_Node000001_Node000003"><a xlink:title=" ">
<path fill="none" stroke="#63b8ff" d="M605.36,-196.62C593.99,-186.98 581.71,-176.58 572,-168.35"/>
<polygon fill="#63b8ff" stroke="#63b8ff" points="602.78,-199.02 612.68,-202.81 607.31,-193.67 602.78,-199.02"/>
</a>
</g>
</g>
<!-- Node6 -->
<g id="Node000006" class="node">
<title>Node6</title>
<g id="a_Node000006"><a xlink:href="ChallengeRoleCommand_8hpp.html" target="_top" xlink:title=" ">
<polygon fill="white" stroke="#666666" points="283.75,-100 72,-100 72,-68 283.75,-68 283.75,-100"/>
<text text-anchor="start" x="80" y="-86.5" font-family="Helvetica,sans-Serif" font-size="10.00">src/bot_library/commands</text>
<text text-anchor="middle" x="177.88" y="-74.5" font-family="Helvetica,sans-Serif" font-size="10.00">/challenge_role/ChallengeRoleCommand.hpp</text>
</a>
</g>
</g>
<!-- Node1&#45;&gt;Node6 -->
<g id="edge14_Node000001_Node000006" class="edge">
<title>Node1&#45;&gt;Node6</title>
<g id="a_edge14_Node000001_Node000006"><a xlink:title=" ">
<path fill="none" stroke="#63b8ff" d="M570.75,-204.79C543.99,-195.46 513.58,-183.08 487.88,-168 468.83,-156.83 469.83,-145.46 449.88,-136 420.73,-122.19 347.35,-108.84 284.15,-99.26"/>
<polygon fill="#63b8ff" stroke="#63b8ff" points="569.56,-208.08 580.15,-207.99 571.81,-201.46 569.56,-208.08"/>
</a>
</g>
</g>
<!-- Node10 -->
<g id="Node000010" class="node">
<title>Node10</title>
<g id="a_Node000010"><a xlink:href="roles_8hpp.html" target="_top" xlink:title=" ">
<polygon fill="white" stroke="#666666" points="928.12,-100 799.62,-100 799.62,-68 928.12,-68 928.12,-100"/>
<text text-anchor="start" x="807.62" y="-86.5" font-family="Helvetica,sans-Serif" font-size="10.00">src/bot_library/commands</text>
<text text-anchor="middle" x="863.88" y="-74.5" font-family="Helvetica,sans-Serif" font-size="10.00">/roles/roles.hpp</text>
</a>
</g>
</g>
<!-- Node1&#45;&gt;Node10 -->
<g id="edge16_Node000001_Node000010" class="edge">
<title>Node1&#45;&gt;Node10</title>
<g id="a_edge16_Node000001_Node000010"><a xlink:title=" ">
<path fill="none" stroke="#63b8ff" d="M639.81,-192.25C642.08,-173.4 648.03,-150.63 662.88,-136 672.81,-126.21 744.4,-109.58 799.34,-97.98"/>
<polygon fill="#63b8ff" stroke="#63b8ff" points="636.33,-191.89 638.95,-202.15 643.3,-192.49 636.33,-191.89"/>
</a>
</g>
</g>
<!-- Node12 -->
<g id="Node000012" class="node">
<title>Node12</title>
<g id="a_Node000012"><a xlink:href="SetChannelCommand_8hpp.html" target="_top" xlink:title=" ">
<polygon fill="white" stroke="#666666" points="1135.5,-100 946.25,-100 946.25,-68 1135.5,-68 1135.5,-100"/>
<text text-anchor="start" x="954.25" y="-86.5" font-family="Helvetica,sans-Serif" font-size="10.00">src/bot_library/commands</text>
<text text-anchor="middle" x="1040.88" y="-74.5" font-family="Helvetica,sans-Serif" font-size="10.00">/set_channel/SetChannelCommand.hpp</text>
</a>
</g>
</g>
<!-- Node1&#45;&gt;Node12 -->
<g id="edge17_Node000001_Node000012" class="edge">
<title>Node1&#45;&gt;Node12</title>
<g id="a_edge17_Node000001_Node000012"><a xlink:title=" ">
<path fill="none" stroke="#63b8ff" d="M651.1,-193.16C660.36,-173.46 675.07,-149.45 695.88,-136 697.21,-135.14 844.49,-113.57 946.17,-98.76"/>
<polygon fill="#63b8ff" stroke="#63b8ff" points="647.95,-191.62 647.12,-202.18 654.36,-194.44 647.95,-191.62"/>
</a>
</g>
</g>
<!-- Node13 -->
<g id="Node000013" class="node">
<title>Node13</title>
<g id="a_Node000013"><a xlink:href="ChallengeRoleRepository_8cpp.html" target="_top" xlink:title=" ">
<polygon fill="white" stroke="#666666" points="918.5,-168 705.25,-168 705.25,-136 918.5,-136 918.5,-168"/>
<text text-anchor="start" x="713.25" y="-154.5" font-family="Helvetica,sans-Serif" font-size="10.00">src/bot_library/commands</text>
<text text-anchor="middle" x="811.88" y="-142.5" font-family="Helvetica,sans-Serif" font-size="10.00">/challenge_role/ChallengeRoleRepository.cpp</text>
</a>
</g>
</g>
<!-- Node1&#45;&gt;Node13 -->
<g id="edge15_Node000001_Node000013" class="edge">
<title>Node1&#45;&gt;Node13</title>
<g id="a_edge15_Node000001_Node000013"><a xlink:title=" ">
<path fill="none" stroke="#63b8ff" d="M700.7,-199.27C725.43,-188.98 753.1,-177.46 774.64,-168.5"/>
<polygon fill="#63b8ff" stroke="#63b8ff" points="699.6,-195.94 691.71,-203.01 702.29,-202.4 699.6,-195.94"/>
</a>
</g>
</g>
<!-- Node14 -->
<g id="Node000014" class="node">
<title>Node14</title>
<g id="a_Node000014"><a xlink:href="user__man_8hpp.html" target="_top" xlink:title=" ">
<polygon fill="white" stroke="#666666" points="1065.12,-168 936.62,-168 936.62,-136 1065.12,-136 1065.12,-168"/>
<text text-anchor="start" x="944.62" y="-154.5" font-family="Helvetica,sans-Serif" font-size="10.00">src/bot_library/commands</text>
<text text-anchor="middle" x="1000.88" y="-142.5" font-family="Helvetica,sans-Serif" font-size="10.00">/users/user_man.hpp</text>
</a>
</g>
</g>
<!-- Node1&#45;&gt;Node14 -->
<g id="edge18_Node000001_Node000014" class="edge">
<title>Node1&#45;&gt;Node14</title>
<g id="a_edge18_Node000001_Node000014"><a xlink:title=" ">
<path fill="none" stroke="#63b8ff" d="M707.44,-211.63C766.02,-200.18 852.52,-183.17 927.88,-168 930.67,-167.44 933.52,-166.86 936.39,-166.28"/>
<polygon fill="#63b8ff" stroke="#63b8ff" points="707.1,-208.13 697.96,-213.49 708.45,-215 707.1,-208.13"/>
</a>
</g>
</g>
<!-- Node4 -->
<g id="Node000004" class="node">
<title>Node4</title>
<g id="a_Node000004"><a xlink:href="Core_8cpp.html" target="_top" xlink:title=" ">
<polygon fill="white" stroke="#666666" points="433.88,-100 339.88,-100 339.88,-68 433.88,-68 433.88,-100"/>
<text text-anchor="start" x="347.88" y="-86.5" font-family="Helvetica,sans-Serif" font-size="10.00">src/bot_library/bot</text>
<text text-anchor="middle" x="386.88" y="-74.5" font-family="Helvetica,sans-Serif" font-size="10.00">/core/Core.cpp</text>
</a>
</g>
</g>
<!-- Node3&#45;&gt;Node4 -->
<g id="edge3_Node000003_Node000004" class="edge">
<title>Node3&#45;&gt;Node4</title>
<g id="a_edge3_Node000003_Node000004"><a xlink:title=" ">
<path fill="none" stroke="#63b8ff" d="M504.34,-131.42C479.34,-121.54 449.45,-109.73 426.07,-100.49"/>
<polygon fill="#63b8ff" stroke="#63b8ff" points="502.73,-134.55 513.31,-134.97 505.3,-128.04 502.73,-134.55"/>
</a>
</g>
</g>
<!-- Node5 -->
<g id="Node000005" class="node">
<title>Node5</title>
<g id="a_Node000005"><a xlink:href="ChallengeRoleCommand_8cpp.html" target="_top" xlink:title=" ">
<polygon fill="white" stroke="#666666" points="417.75,-32 206,-32 206,0 417.75,0 417.75,-32"/>
<text text-anchor="start" x="214" y="-18.5" font-family="Helvetica,sans-Serif" font-size="10.00">src/bot_library/commands</text>
<text text-anchor="middle" x="311.88" y="-6.5" font-family="Helvetica,sans-Serif" font-size="10.00">/challenge_role/ChallengeRoleCommand.cpp</text>
</a>
</g>
</g>
<!-- Node3&#45;&gt;Node5 -->
<g id="edge4_Node000003_Node000005" class="edge">
<title>Node3&#45;&gt;Node5</title>
<g id="a_edge4_Node000003_Node000005"><a xlink:title=" ">
<path fill="none" stroke="#63b8ff" d="M485.35,-136.23C420.85,-122.2 333.7,-102.82 330.88,-100 313,-82.13 310.53,-51.1 310.86,-32.46"/>
<polygon fill="#63b8ff" stroke="#63b8ff" points="484.3,-139.59 494.82,-138.29 485.79,-132.75 484.3,-139.59"/>
</a>
</g>
</g>
<!-- Node3&#45;&gt;Node6 -->
<g id="edge5_Node000003_Node000006" class="edge">
<title>Node3&#45;&gt;Node6</title>
<g id="a_edge5_Node000003_Node000006"><a xlink:title=" ">
<path fill="none" stroke="#63b8ff" d="M485.4,-136.48C484.55,-136.32 483.71,-136.16 482.88,-136 414.3,-123.03 336.72,-110.08 276.96,-100.48"/>
<polygon fill="#63b8ff" stroke="#63b8ff" points="484.59,-139.89 495.08,-138.38 485.94,-133.02 484.59,-139.89"/>
</a>
</g>
</g>
<!-- Node8 -->
<g id="Node000008" class="node">
<title>Node8</title>
<g id="a_Node000008"><a xlink:href="HelpCommand_8cpp.html" target="_top" xlink:title=" ">
<polygon fill="white" stroke="#666666" points="618.12,-100 489.62,-100 489.62,-68 618.12,-68 618.12,-100"/>
<text text-anchor="start" x="497.62" y="-86.5" font-family="Helvetica,sans-Serif" font-size="10.00">src/bot_library/commands</text>
<text text-anchor="middle" x="553.88" y="-74.5" font-family="Helvetica,sans-Serif" font-size="10.00">/help/HelpCommand.cpp</text>
</a>
</g>
</g>
<!-- Node3&#45;&gt;Node8 -->
<g id="edge8_Node000003_Node000008" class="edge">
<title>Node3&#45;&gt;Node8</title>
<g id="a_edge8_Node000003_Node000008"><a xlink:title=" ">
<path fill="none" stroke="#63b8ff" d="M553.88,-124.31C553.88,-116.12 553.88,-107.38 553.88,-100.22"/>
<polygon fill="#63b8ff" stroke="#63b8ff" points="550.38,-124.18 553.88,-134.18 557.38,-124.18 550.38,-124.18"/>
</a>
</g>
</g>
<!-- Node9 -->
<g id="Node000009" class="node">
<title>Node9</title>
<g id="a_Node000009"><a xlink:href="resource__man_8hpp.html" target="_top" xlink:title=" ">
<polygon fill="white" stroke="#666666" points="781.38,-100 636.38,-100 636.38,-68 781.38,-68 781.38,-100"/>
<text text-anchor="start" x="644.38" y="-86.5" font-family="Helvetica,sans-Serif" font-size="10.00">src/bot_library/commands</text>
<text text-anchor="middle" x="708.88" y="-74.5" font-family="Helvetica,sans-Serif" font-size="10.00">/resources/resource_man.hpp</text>
</a>
</g>
</g>
<!-- Node3&#45;&gt;Node9 -->
<g id="edge9_Node000003_Node000009" class="edge">
<title>Node3&#45;&gt;Node9</title>
<g id="a_edge9_Node000003_Node000009"><a xlink:title=" ">
<path fill="none" stroke="#63b8ff" d="M600.78,-131.03C623.79,-121.23 651.09,-109.61 672.49,-100.49"/>
<polygon fill="#63b8ff" stroke="#63b8ff" points="599.44,-127.79 591.61,-134.93 602.18,-134.24 599.44,-127.79"/>
</a>
</g>
</g>
<!-- Node3&#45;&gt;Node10 -->
<g id="edge10_Node000003_Node000010" class="edge">
<title>Node3&#45;&gt;Node10</title>
<g id="a_edge10_Node000003_Node000010"><a xlink:title=" ">
<path fill="none" stroke="#63b8ff" d="M622.41,-136.41C675.19,-125.17 747.63,-109.75 799.37,-98.73"/>
<polygon fill="#63b8ff" stroke="#63b8ff" points="621.99,-132.92 612.94,-138.43 623.45,-139.77 621.99,-132.92"/>
</a>
</g>
</g>
<!-- Node11 -->
<g id="Node000011" class="node">
<title>Node11</title>
<g id="a_Node000011"><a xlink:href="SetChannelCommand_8cpp.html" target="_top" xlink:title=" ">
<polygon fill="white" stroke="#666666" points="880.5,-32 691.25,-32 691.25,0 880.5,0 880.5,-32"/>
<text text-anchor="start" x="699.25" y="-18.5" font-family="Helvetica,sans-Serif" font-size="10.00">src/bot_library/commands</text>
<text text-anchor="middle" x="785.88" y="-6.5" font-family="Helvetica,sans-Serif" font-size="10.00">/set_channel/SetChannelCommand.cpp</text>
</a>
</g>
</g>
<!-- Node3&#45;&gt;Node11 -->
<g id="edge11_Node000003_Node000011" class="edge">
<title>Node3&#45;&gt;Node11</title>
<g id="a_edge11_Node000003_Node000011"><a xlink:title=" ">
<path fill="none" stroke="#63b8ff" d="M514.21,-129.54C488.54,-112.89 462.95,-89.17 480.88,-68 507.46,-36.6 611.51,-24.52 690.76,-19.88"/>
<polygon fill="#63b8ff" stroke="#63b8ff" points="512.33,-132.49 522.68,-134.75 516.01,-126.53 512.33,-132.49"/>
</a>
</g>
</g>
<!-- Node3&#45;&gt;Node12 -->
<g id="edge12_Node000003_Node000012" class="edge">
<title>Node3&#45;&gt;Node12</title>
<g id="a_edge12_Node000003_Node000012"><a xlink:title=" ">
<path fill="none" stroke="#63b8ff" d="M622.4,-141.51C635.82,-139.66 649.79,-137.76 662.88,-136 784.6,-119.63 815.2,-116.77 936.88,-100 939.86,-99.59 942.89,-99.17 945.94,-98.74"/>
<polygon fill="#63b8ff" stroke="#63b8ff" points="622.21,-138 612.78,-142.83 623.17,-144.93 622.21,-138"/>
</a>
</g>
</g>
<!-- Node6&#45;&gt;Node5 -->
<g id="edge6_Node000006_Node000005" class="edge">
<title>Node6&#45;&gt;Node5</title>
<g id="a_edge6_Node000006_Node000005"><a xlink:title=" ">
<path fill="none" stroke="#63b8ff" d="M219.55,-62.47C239.29,-52.75 262.46,-41.34 280.65,-32.38"/>
<polygon fill="#63b8ff" stroke="#63b8ff" points="218.07,-59.3 210.65,-66.86 221.17,-65.58 218.07,-59.3"/>
</a>
</g>
</g>
<!-- Node7 -->
<g id="Node000007" class="node">
<title>Node7</title>
<g id="a_Node000007"><a xlink:href="ChallengeRoleDTO_8cpp.html" target="_top" xlink:title=" ">
<polygon fill="white" stroke="#666666" points="187.75,-32 0,-32 0,0 187.75,0 187.75,-32"/>
<text text-anchor="start" x="8" y="-18.5" font-family="Helvetica,sans-Serif" font-size="10.00">src/bot_library/commands</text>
<text text-anchor="middle" x="93.88" y="-6.5" font-family="Helvetica,sans-Serif" font-size="10.00">/challenge_role/ChallengeRoleDTO.cpp</text>
</a>
</g>
</g>
<!-- Node6&#45;&gt;Node7 -->
<g id="edge7_Node000006_Node000007" class="edge">
<title>Node6&#45;&gt;Node7</title>
<g id="a_edge7_Node000006_Node000007"><a xlink:title=" ">
<path fill="none" stroke="#63b8ff" d="M149.36,-60.6C137.58,-51.34 124.21,-40.83 113.54,-32.45"/>
<polygon fill="#63b8ff" stroke="#63b8ff" points="147.18,-63.33 157.2,-66.76 151.5,-57.83 147.18,-63.33"/>
</a>
</g>
</g>
<!-- Node12&#45;&gt;Node11 -->
<g id="edge13_Node000012_Node000011" class="edge">
<title>Node12&#45;&gt;Node11</title>
<g id="a_edge13_Node000012_Node000011"><a xlink:title=" ">
<path fill="none" stroke="#63b8ff" d="M970.05,-64.67C930.96,-54.55 882.93,-42.12 845.73,-32.49"/>
<polygon fill="#63b8ff" stroke="#63b8ff" points="969.07,-68.03 979.62,-67.15 970.82,-61.25 969.07,-68.03"/>
</a>
</g>
</g>
</g>
</svg>
