<?xml version="1.0" encoding="UTF-8" standalone="no"?>
<!DOCTYPE svg PUBLIC "-//W3C//DTD SVG 1.1//EN"
 "http://www.w3.org/Graphics/SVG/1.1/DTD/svg11.dtd">
<!-- Generated by graphviz version 9.0.0 (0)
 -->
<!-- Title: src/bot_library/bot/core/database/include/Database.hpp Pages: 1 -->
<svg width="341pt" height="164pt"
 viewBox="0.00 0.00 341.00 164.00" xmlns="http://www.w3.org/2000/svg" xmlns:xlink="http://www.w3.org/1999/xlink">
<g id="graph0" class="graph" transform="scale(1 1) rotate(0) translate(4 160)">
<title>src/bot_library/bot/core/database/include/Database.hpp</title>
<!-- Node1 -->
<g id="Node000001" class="node">
<title>Node1</title>
<g id="a_Node000001"><a xlink:title=" ">
<polygon fill="#999999" stroke="#666666" points="181.25,-156 67,-156 67,-112 181.25,-112 181.25,-156"/>
<text text-anchor="start" x="75" y="-142.5" font-family="Helvetica,sans-Serif" font-size="10.00">src/bot_library/bot</text>
<text text-anchor="start" x="75" y="-130.5" font-family="Helvetica,sans-Serif" font-size="10.00">/core/database/include</text>
<text text-anchor="middle" x="124.12" y="-118.5" font-family="Helvetica,sans-Serif" font-size="10.00">/Database.hpp</text>
</a>
</g>
</g>
<!-- Node2 -->
<g id="Node000002" class="node">
<title>Node2</title>
<g id="a_Node000002"><a xlink:title=" ">
<polygon fill="#e0e0e0" stroke="#999999" points="48.25,-76 0,-76 0,-56 48.25,-56 48.25,-76"/>
<text text-anchor="middle" x="24.12" y="-62.5" font-family="Helvetica,sans-Serif" font-size="10.00">cstddef</text>
</a>
</g>
</g>
<!-- Node1&#45;&gt;Node2 -->
<g id="edge1_Node000001_Node000002" class="edge">
<title>Node1&#45;&gt;Node2</title>
<g id="a_edge1_Node000001_Node000002"><a xlink:title=" ">
<path fill="none" stroke="#63b8ff" d="M91.66,-111.57C77.3,-102.09 60.73,-91.16 47.59,-82.49"/>
<polygon fill="#63b8ff" stroke="#63b8ff" points="49.85,-79.79 39.58,-77.2 46,-85.63 49.85,-79.79"/>
</a>
</g>
</g>
<!-- Node3 -->
<g id="Node000003" class="node">
<title>Node3</title>
<g id="a_Node000003"><a xlink:title=" ">
<polygon fill="#e0e0e0" stroke="#999999" points="207.62,-20 146.62,-20 146.62,0 207.62,0 207.62,-20"/>
<text text-anchor="middle" x="177.12" y="-6.5" font-family="Helvetica,sans-Serif" font-size="10.00">pqxx/pqxx</text>
</a>
</g>
</g>
<!-- Node1&#45;&gt;Node3 -->
<g id="edge2_Node000001_Node000003" class="edge">
<title>Node1&#45;&gt;Node3</title>
<g id="a_edge2_Node000001_Node000003"><a xlink:title=" ">
<path fill="none" stroke="#63b8ff" d="M106.08,-111.51C94.99,-95.54 84.72,-73.58 95.12,-56 104.06,-40.9 120.07,-30.53 135.58,-23.59"/>
<polygon fill="#63b8ff" stroke="#63b8ff" points="136.78,-26.87 144.74,-19.88 134.16,-20.38 136.78,-26.87"/>
</a>
</g>
</g>
<!-- Node4 -->
<g id="Node000004" class="node">
<title>Node4</title>
<g id="a_Node000004"><a xlink:title=" ">
<polygon fill="#e0e0e0" stroke="#999999" points="144.12,-76 104.12,-76 104.12,-56 144.12,-56 144.12,-76"/>
<text text-anchor="middle" x="124.12" y="-62.5" font-family="Helvetica,sans-Serif" font-size="10.00">string</text>
</a>
</g>
</g>
<!-- Node1&#45;&gt;Node4 -->
<g id="edge3_Node000001_Node000004" class="edge">
<title>Node1&#45;&gt;Node4</title>
<g id="a_edge3_Node000001_Node000004"><a xlink:title=" ">
<path fill="none" stroke="#63b8ff" d="M124.12,-111.75C124.12,-104.13 124.12,-95.53 124.12,-87.93"/>
<polygon fill="#63b8ff" stroke="#63b8ff" points="127.63,-87.93 124.13,-77.93 120.63,-87.93 127.63,-87.93"/>
</a>
</g>
</g>
<!-- Node5 -->
<g id="Node000005" class="node">
<title>Node5</title>
<g id="a_Node000005"><a xlink:title=" ">
<polygon fill="#e0e0e0" stroke="#999999" points="205.62,-76 162.62,-76 162.62,-56 205.62,-56 205.62,-76"/>
<text text-anchor="middle" x="184.12" y="-62.5" font-family="Helvetica,sans-Serif" font-size="10.00">vector</text>
</a>
</g>
</g>
<!-- Node1&#45;&gt;Node5 -->
<g id="edge4_Node000001_Node000005" class="edge">
<title>Node1&#45;&gt;Node5</title>
<g id="a_edge4_Node000001_Node000005"><a xlink:title=" ">
<path fill="none" stroke="#63b8ff" d="M143.44,-111.75C151.3,-103.1 160.3,-93.21 167.82,-84.93"/>
<polygon fill="#63b8ff" stroke="#63b8ff" points="170.41,-87.29 174.54,-77.54 165.23,-82.58 170.41,-87.29"/>
</a>
</g>
</g>
<!-- Node6 -->
<g id="Node000006" class="node">
<title>Node6</title>
<g id="a_Node000006"><a xlink:href="RowDTOAdapter_8hpp.html" target="_top" xlink:title=" ">
<polygon fill="white" stroke="#666666" points="333,-76 223.25,-76 223.25,-56 333,-56 333,-76"/>
<text text-anchor="middle" x="278.12" y="-62.5" font-family="Helvetica,sans-Serif" font-size="10.00">RowDTOAdapter.hpp</text>
</a>
</g>
</g>
<!-- Node1&#45;&gt;Node6 -->
<g id="edge5_Node000001_Node000006" class="edge">
<title>Node1&#45;&gt;Node6</title>
<g id="a_edge5_Node000001_Node000006"><a xlink:title=" ">
<path fill="none" stroke="#63b8ff" d="M174.12,-111.57C197.65,-101.49 225.02,-89.76 245.78,-80.86"/>
<polygon fill="#63b8ff" stroke="#63b8ff" points="247.07,-84.12 254.88,-76.96 244.31,-77.68 247.07,-84.12"/>
</a>
</g>
</g>
<!-- Node6&#45;&gt;Node3 -->
<g id="edge6_Node000006_Node000003" class="edge">
<title>Node6&#45;&gt;Node3</title>
<g id="a_edge6_Node000006_Node000003"><a xlink:title=" ">
<path fill="none" stroke="#63b8ff" d="M260.53,-55.59C245.2,-47.4 222.71,-35.37 204.94,-25.87"/>
<polygon fill="#63b8ff" stroke="#63b8ff" points="206.66,-22.82 196.19,-21.19 203.36,-28.99 206.66,-22.82"/>
</a>
</g>
</g>
</g>
</svg>
