<?xml version="1.0" encoding="UTF-8" standalone="no"?>
<!DOCTYPE svg PUBLIC "-//W3C//DTD SVG 1.1//EN"
 "http://www.w3.org/Graphics/SVG/1.1/DTD/svg11.dtd">
<!-- Generated by graphviz version 10.0.1 (0)
 -->
<!-- Title: src/bot_library/bot/core/database/Database.cpp Pages: 1 -->
<svg width="751pt" height="208pt"
 viewBox="0.00 0.00 751.12 208.00" xmlns="http://www.w3.org/2000/svg" xmlns:xlink="http://www.w3.org/1999/xlink">
<g id="graph0" class="graph" transform="scale(1 1) rotate(0) translate(4 204)">
<title>src/bot_library/bot/core/database/Database.cpp</title>
<!-- Node1 -->
<g id="Node000001" class="node">
<title>Node1</title>
<g id="a_Node000001"><a xlink:title=" ">
<polygon fill="#999999" stroke="#666666" points="579.25,-200 435,-200 435,-168 579.25,-168 579.25,-200"/>
<text text-anchor="start" x="443" y="-186.5" font-family="Helvetica,sans-Serif" font-size="10.00">src/bot_library/bot</text>
<text text-anchor="middle" x="507.12" y="-174.5" font-family="Helvetica,sans-Serif" font-size="10.00">/core/database/Database.cpp</text>
</a>
</g>
</g>
<!-- Node2 -->
<g id="Node000002" class="node">
<title>Node2</title>
<g id="a_Node000002"><a xlink:href="Database_8hpp.html" target="_top" xlink:title=" ">
<polygon fill="white" stroke="#666666" points="223.5,-132 146.75,-132 146.75,-112 223.5,-112 223.5,-132"/>
<text text-anchor="middle" x="185.12" y="-118.5" font-family="Helvetica,sans-Serif" font-size="10.00">Database.hpp</text>
</a>
</g>
</g>
<!-- Node1&#45;&gt;Node2 -->
<g id="edge1_Node000001_Node000002" class="edge">
<title>Node1&#45;&gt;Node2</title>
<g id="a_edge1_Node000001_Node000002"><a xlink:title=" ">
<path fill="none" stroke="#63b8ff" d="M434.86,-169.53C374.05,-158.2 288.69,-142.3 235.17,-132.33"/>
<polygon fill="#63b8ff" stroke="#63b8ff" points="235.89,-128.9 225.41,-130.51 234.6,-135.78 235.89,-128.9"/>
</a>
</g>
</g>
<!-- Node4 -->
<g id="Node000004" class="node">
<title>Node4</title>
<g id="a_Node000004"><a xlink:title=" ">
<polygon fill="#e0e0e0" stroke="#999999" points="371.62,-20 310.62,-20 310.62,0 371.62,0 371.62,-20"/>
<text text-anchor="middle" x="341.12" y="-6.5" font-family="Helvetica,sans-Serif" font-size="10.00">pqxx/pqxx</text>
</a>
</g>
</g>
<!-- Node1&#45;&gt;Node4 -->
<g id="edge13_Node000001_Node000004" class="edge">
<title>Node1&#45;&gt;Node4</title>
<g id="a_edge13_Node000001_Node000004"><a xlink:title=" ">
<path fill="none" stroke="#63b8ff" d="M483.09,-167.66C470.07,-158.48 454.39,-145.91 443.12,-132 419.36,-102.65 429.76,-84.62 405.12,-56 395.02,-44.26 381.21,-34.05 369.01,-26.33"/>
<polygon fill="#63b8ff" stroke="#63b8ff" points="370.92,-23.4 360.55,-21.24 367.31,-29.4 370.92,-23.4"/>
</a>
</g>
</g>
<!-- Node9 -->
<g id="Node000009" class="node">
<title>Node9</title>
<g id="a_Node000009"><a xlink:title=" ">
<polygon fill="#e0e0e0" stroke="#999999" points="496,-132 452.25,-132 452.25,-112 496,-112 496,-132"/>
<text text-anchor="middle" x="474.12" y="-118.5" font-family="Helvetica,sans-Serif" font-size="10.00">format</text>
</a>
</g>
</g>
<!-- Node1&#45;&gt;Node9 -->
<g id="edge9_Node000001_Node000009" class="edge">
<title>Node1&#45;&gt;Node9</title>
<g id="a_edge9_Node000001_Node000009"><a xlink:title=" ">
<path fill="none" stroke="#63b8ff" d="M498.63,-167.55C494.43,-159.91 489.31,-150.61 484.84,-142.49"/>
<polygon fill="#63b8ff" stroke="#63b8ff" points="487.91,-140.81 480.03,-133.73 481.78,-144.18 487.91,-140.81"/>
</a>
</g>
</g>
<!-- Node10 -->
<g id="Node000010" class="node">
<title>Node10</title>
<g id="a_Node000010"><a xlink:title=" ">
<polygon fill="#e0e0e0" stroke="#999999" points="567.88,-132 514.38,-132 514.38,-112 567.88,-112 567.88,-132"/>
<text text-anchor="middle" x="541.12" y="-118.5" font-family="Helvetica,sans-Serif" font-size="10.00">iostream</text>
</a>
</g>
</g>
<!-- Node1&#45;&gt;Node10 -->
<g id="edge10_Node000001_Node000010" class="edge">
<title>Node1&#45;&gt;Node10</title>
<g id="a_edge10_Node000001_Node000010"><a xlink:title=" ">
<path fill="none" stroke="#63b8ff" d="M515.88,-167.55C520.26,-159.82 525.6,-150.4 530.24,-142.21"/>
<polygon fill="#63b8ff" stroke="#63b8ff" points="533.16,-144.15 535.05,-133.72 527.07,-140.7 533.16,-144.15"/>
</a>
</g>
</g>
<!-- Node11 -->
<g id="Node000011" class="node">
<title>Node11</title>
<g id="a_Node000011"><a xlink:title=" ">
<polygon fill="#e0e0e0" stroke="#999999" points="636.75,-132 585.5,-132 585.5,-112 636.75,-112 636.75,-132"/>
<text text-anchor="middle" x="611.12" y="-118.5" font-family="Helvetica,sans-Serif" font-size="10.00">memory</text>
</a>
</g>
</g>
<!-- Node1&#45;&gt;Node11 -->
<g id="edge11_Node000001_Node000011" class="edge">
<title>Node1&#45;&gt;Node11</title>
<g id="a_edge11_Node000001_Node000011"><a xlink:title=" ">
<path fill="none" stroke="#63b8ff" d="M533.91,-167.55C549.71,-158.43 569.6,-146.96 585.24,-137.93"/>
<polygon fill="#63b8ff" stroke="#63b8ff" points="586.59,-141.19 593.51,-133.16 583.1,-135.13 586.59,-141.19"/>
</a>
</g>
</g>
<!-- Node12 -->
<g id="Node000012" class="node">
<title>Node12</title>
<g id="a_Node000012"><a xlink:title=" ">
<polygon fill="#e0e0e0" stroke="#999999" points="743.12,-132 655.12,-132 655.12,-112 743.12,-112 743.12,-132"/>
<text text-anchor="middle" x="699.12" y="-118.5" font-family="Helvetica,sans-Serif" font-size="10.00">pqxx/except.hxx</text>
</a>
</g>
</g>
<!-- Node1&#45;&gt;Node12 -->
<g id="edge12_Node000001_Node000012" class="edge">
<title>Node1&#45;&gt;Node12</title>
<g id="a_edge12_Node000001_Node000012"><a xlink:title=" ">
<path fill="none" stroke="#63b8ff" d="M556.57,-167.55C588,-157.73 628.21,-145.16 657.91,-135.88"/>
<polygon fill="#63b8ff" stroke="#63b8ff" points="658.79,-139.27 667.29,-132.95 656.7,-132.59 658.79,-139.27"/>
</a>
</g>
</g>
<!-- Node3 -->
<g id="Node000003" class="node">
<title>Node3</title>
<g id="a_Node000003"><a xlink:title=" ">
<polygon fill="#e0e0e0" stroke="#999999" points="48.25,-76 0,-76 0,-56 48.25,-56 48.25,-76"/>
<text text-anchor="middle" x="24.12" y="-62.5" font-family="Helvetica,sans-Serif" font-size="10.00">cstddef</text>
</a>
</g>
</g>
<!-- Node2&#45;&gt;Node3 -->
<g id="edge2_Node000002_Node000003" class="edge">
<title>Node2&#45;&gt;Node3</title>
<g id="a_edge2_Node000002_Node000003"><a xlink:title=" ">
<path fill="none" stroke="#63b8ff" d="M157.08,-111.59C129.92,-102.48 88.65,-88.64 59.3,-78.8"/>
<polygon fill="#63b8ff" stroke="#63b8ff" points="60.72,-75.58 50.12,-75.72 58.49,-82.22 60.72,-75.58"/>
</a>
</g>
</g>
<!-- Node2&#45;&gt;Node4 -->
<g id="edge3_Node000002_Node000004" class="edge">
<title>Node2&#45;&gt;Node4</title>
<g id="a_edge3_Node000002_Node000004"><a xlink:title=" ">
<path fill="none" stroke="#63b8ff" d="M151.68,-111.56C118.3,-100.49 74.7,-80.5 95.12,-56 120.64,-25.39 236.06,-15.54 299.32,-12.42"/>
<polygon fill="#63b8ff" stroke="#63b8ff" points="299.15,-15.93 308.98,-11.98 298.84,-8.94 299.15,-15.93"/>
</a>
</g>
</g>
<!-- Node5 -->
<g id="Node000005" class="node">
<title>Node5</title>
<g id="a_Node000005"><a xlink:title=" ">
<polygon fill="#e0e0e0" stroke="#999999" points="144.12,-76 104.12,-76 104.12,-56 144.12,-56 144.12,-76"/>
<text text-anchor="middle" x="124.12" y="-62.5" font-family="Helvetica,sans-Serif" font-size="10.00">string</text>
</a>
</g>
</g>
<!-- Node2&#45;&gt;Node5 -->
<g id="edge4_Node000002_Node000005" class="edge">
<title>Node2&#45;&gt;Node5</title>
<g id="a_edge4_Node000002_Node000005"><a xlink:title=" ">
<path fill="none" stroke="#63b8ff" d="M174.5,-111.59C165.84,-103.93 153.39,-92.91 143.04,-83.75"/>
<polygon fill="#63b8ff" stroke="#63b8ff" points="145.57,-81.31 135.76,-77.3 140.93,-86.55 145.57,-81.31"/>
</a>
</g>
</g>
<!-- Node6 -->
<g id="Node000006" class="node">
<title>Node6</title>
<g id="a_Node000006"><a xlink:title=" ">
<polygon fill="#e0e0e0" stroke="#999999" points="207.75,-76 162.5,-76 162.5,-56 207.75,-56 207.75,-76"/>
<text text-anchor="middle" x="185.12" y="-62.5" font-family="Helvetica,sans-Serif" font-size="10.00">variant</text>
</a>
</g>
</g>
<!-- Node2&#45;&gt;Node6 -->
<g id="edge5_Node000002_Node000006" class="edge">
<title>Node2&#45;&gt;Node6</title>
<g id="a_edge5_Node000002_Node000006"><a xlink:title=" ">
<path fill="none" stroke="#63b8ff" d="M185.12,-111.59C185.12,-105.01 185.12,-95.96 185.12,-87.73"/>
<polygon fill="#63b8ff" stroke="#63b8ff" points="188.63,-87.81 185.13,-77.81 181.63,-87.81 188.63,-87.81"/>
</a>
</g>
</g>
<!-- Node7 -->
<g id="Node000007" class="node">
<title>Node7</title>
<g id="a_Node000007"><a xlink:title=" ">
<polygon fill="#e0e0e0" stroke="#999999" points="268.62,-76 225.62,-76 225.62,-56 268.62,-56 268.62,-76"/>
<text text-anchor="middle" x="247.12" y="-62.5" font-family="Helvetica,sans-Serif" font-size="10.00">vector</text>
</a>
</g>
</g>
<!-- Node2&#45;&gt;Node7 -->
<g id="edge6_Node000002_Node000007" class="edge">
<title>Node2&#45;&gt;Node7</title>
<g id="a_edge6_Node000002_Node000007"><a xlink:title=" ">
<path fill="none" stroke="#63b8ff" d="M195.92,-111.59C204.73,-103.93 217.38,-92.91 227.9,-83.75"/>
<polygon fill="#63b8ff" stroke="#63b8ff" points="230.07,-86.5 235.31,-77.29 225.47,-81.22 230.07,-86.5"/>
</a>
</g>
</g>
<!-- Node8 -->
<g id="Node000008" class="node">
<title>Node8</title>
<g id="a_Node000008"><a xlink:href="RowDTOAdapter_8hpp.html" target="_top" xlink:title=" ">
<polygon fill="white" stroke="#666666" points="396,-76 286.25,-76 286.25,-56 396,-56 396,-76"/>
<text text-anchor="middle" x="341.12" y="-62.5" font-family="Helvetica,sans-Serif" font-size="10.00">RowDTOAdapter.hpp</text>
</a>
</g>
</g>
<!-- Node2&#45;&gt;Node8 -->
<g id="edge7_Node000002_Node000008" class="edge">
<title>Node2&#45;&gt;Node8</title>
<g id="a_edge7_Node000002_Node000008"><a xlink:title=" ">
<path fill="none" stroke="#63b8ff" d="M212.3,-111.59C237.42,-102.9 275.01,-89.89 303.1,-80.16"/>
<polygon fill="#63b8ff" stroke="#63b8ff" points="304,-83.55 312.31,-76.97 301.71,-76.94 304,-83.55"/>
</a>
</g>
</g>
<!-- Node8&#45;&gt;Node4 -->
<g id="edge8_Node000008_Node000004" class="edge">
<title>Node8&#45;&gt;Node4</title>
<g id="a_edge8_Node000008_Node000004"><a xlink:title=" ">
<path fill="none" stroke="#63b8ff" d="M341.12,-55.59C341.12,-49.01 341.12,-39.96 341.12,-31.73"/>
<polygon fill="#63b8ff" stroke="#63b8ff" points="344.63,-31.81 341.13,-21.81 337.63,-31.81 344.63,-31.81"/>
</a>
</g>
</g>
</g>
</svg>
