<?xml version="1.0" encoding="UTF-8" standalone="no"?>
<!DOCTYPE svg PUBLIC "-//W3C//DTD SVG 1.1//EN"
 "http://www.w3.org/Graphics/SVG/1.1/DTD/svg11.dtd">
<!-- Generated by graphviz version 9.0.0 (0)
 -->
<!-- Title: src/bot_library/bot/core/database/include/Database.hpp Pages: 1 -->
<svg width="557pt" height="164pt"
 viewBox="0.00 0.00 557.00 164.00" xmlns="http://www.w3.org/2000/svg" xmlns:xlink="http://www.w3.org/1999/xlink">
<g id="graph0" class="graph" transform="scale(1 1) rotate(0) translate(4 160)">
<title>src/bot_library/bot/core/database/include/Database.hpp</title>
<!-- Node1 -->
<g id="Node000001" class="node">
<title>Node1</title>
<g id="a_Node000001"><a xlink:title=" ">
<polygon fill="#999999" stroke="#666666" points="297.25,-156 183,-156 183,-112 297.25,-112 297.25,-156"/>
<text text-anchor="start" x="191" y="-142.5" font-family="Helvetica,sans-Serif" font-size="10.00">src/bot_library/bot</text>
<text text-anchor="start" x="191" y="-130.5" font-family="Helvetica,sans-Serif" font-size="10.00">/core/database/include</text>
<text text-anchor="middle" x="240.12" y="-118.5" font-family="Helvetica,sans-Serif" font-size="10.00">/Database.hpp</text>
</a>
</g>
</g>
<!-- Node2 -->
<g id="Node000002" class="node">
<title>Node2</title>
<g id="a_Node000002"><a xlink:title=" ">
<polygon fill="#e0e0e0" stroke="#999999" points="48.25,-76 0,-76 0,-56 48.25,-56 48.25,-76"/>
<text text-anchor="middle" x="24.12" y="-62.5" font-family="Helvetica,sans-Serif" font-size="10.00">cstddef</text>
</a>
</g>
</g>
<!-- Node1&#45;&gt;Node2 -->
<g id="edge1_Node000001_Node000002" class="edge">
<title>Node1&#45;&gt;Node2</title>
<g id="a_edge1_Node000001_Node000002"><a xlink:title=" ">
<path fill="none" stroke="#63b8ff" d="M182.52,-115.4C143.23,-103.39 92.45,-87.88 59.12,-77.69"/>
<polygon fill="#63b8ff" stroke="#63b8ff" points="60.56,-74.47 49.97,-74.9 58.51,-81.17 60.56,-74.47"/>
</a>
</g>
</g>
<!-- Node3 -->
<g id="Node000003" class="node">
<title>Node3</title>
<g id="a_Node000003"><a xlink:title=" ">
<polygon fill="#e0e0e0" stroke="#999999" points="119.88,-76 66.38,-76 66.38,-56 119.88,-56 119.88,-76"/>
<text text-anchor="middle" x="93.12" y="-62.5" font-family="Helvetica,sans-Serif" font-size="10.00">iostream</text>
</a>
</g>
</g>
<!-- Node1&#45;&gt;Node3 -->
<g id="edge2_Node000001_Node000003" class="edge">
<title>Node1&#45;&gt;Node3</title>
<g id="a_edge2_Node000001_Node000003"><a xlink:title=" ">
<path fill="none" stroke="#63b8ff" d="M192.4,-111.57C170.05,-101.54 144.05,-89.87 124.27,-80.98"/>
<polygon fill="#63b8ff" stroke="#63b8ff" points="125.92,-77.89 115.36,-76.99 123.05,-84.27 125.92,-77.89"/>
</a>
</g>
</g>
<!-- Node4 -->
<g id="Node000004" class="node">
<title>Node4</title>
<g id="a_Node000004"><a xlink:title=" ">
<polygon fill="#e0e0e0" stroke="#999999" points="188,-76 138.25,-76 138.25,-56 188,-56 188,-76"/>
<text text-anchor="middle" x="163.12" y="-62.5" font-family="Helvetica,sans-Serif" font-size="10.00">optional</text>
</a>
</g>
</g>
<!-- Node1&#45;&gt;Node4 -->
<g id="edge3_Node000001_Node000004" class="edge">
<title>Node1&#45;&gt;Node4</title>
<g id="a_edge3_Node000001_Node000004"><a xlink:title=" ">
<path fill="none" stroke="#63b8ff" d="M215.34,-111.75C204.81,-102.73 192.71,-92.36 182.81,-83.87"/>
<polygon fill="#63b8ff" stroke="#63b8ff" points="185.13,-81.25 175.26,-77.4 180.58,-86.57 185.13,-81.25"/>
</a>
</g>
</g>
<!-- Node5 -->
<g id="Node000005" class="node">
<title>Node5</title>
<g id="a_Node000005"><a xlink:title=" ">
<polygon fill="#e0e0e0" stroke="#999999" points="385.62,-20 324.62,-20 324.62,0 385.62,0 385.62,-20"/>
<text text-anchor="middle" x="355.12" y="-6.5" font-family="Helvetica,sans-Serif" font-size="10.00">pqxx/pqxx</text>
</a>
</g>
</g>
<!-- Node1&#45;&gt;Node5 -->
<g id="edge4_Node000001_Node000005" class="edge">
<title>Node1&#45;&gt;Node5</title>
<g id="a_edge4_Node000001_Node000005"><a xlink:title=" ">
<path fill="none" stroke="#63b8ff" d="M232.08,-111.81C227.22,-95.17 223.91,-72.19 235.12,-56 252.59,-30.8 286.03,-19.69 313.18,-14.8"/>
<polygon fill="#63b8ff" stroke="#63b8ff" points="313.52,-18.29 322.87,-13.3 312.45,-11.37 313.52,-18.29"/>
</a>
</g>
</g>
<!-- Node6 -->
<g id="Node000006" class="node">
<title>Node6</title>
<g id="a_Node000006"><a xlink:title=" ">
<polygon fill="#e0e0e0" stroke="#999999" points="284.12,-76 244.12,-76 244.12,-56 284.12,-56 284.12,-76"/>
<text text-anchor="middle" x="264.12" y="-62.5" font-family="Helvetica,sans-Serif" font-size="10.00">string</text>
</a>
</g>
</g>
<!-- Node1&#45;&gt;Node6 -->
<g id="edge5_Node000001_Node000006" class="edge">
<title>Node1&#45;&gt;Node6</title>
<g id="a_edge5_Node000001_Node000006"><a xlink:title=" ">
<path fill="none" stroke="#63b8ff" d="M247.85,-111.75C250.73,-103.85 253.98,-94.9 256.82,-87.1"/>
<polygon fill="#63b8ff" stroke="#63b8ff" points="260.05,-88.44 260.18,-77.84 253.48,-86.04 260.05,-88.44"/>
</a>
</g>
</g>
<!-- Node7 -->
<g id="Node000007" class="node">
<title>Node7</title>
<g id="a_Node000007"><a xlink:title=" ">
<polygon fill="#e0e0e0" stroke="#999999" points="360.12,-76 302.12,-76 302.12,-56 360.12,-56 360.12,-76"/>
<text text-anchor="middle" x="331.12" y="-62.5" font-family="Helvetica,sans-Serif" font-size="10.00">typeindex</text>
</a>
</g>
</g>
<!-- Node1&#45;&gt;Node7 -->
<g id="edge6_Node000001_Node000007" class="edge">
<title>Node1&#45;&gt;Node7</title>
<g id="a_edge6_Node000001_Node000007"><a xlink:title=" ">
<path fill="none" stroke="#63b8ff" d="M269.67,-111.57C282.48,-102.28 297.23,-91.59 309.06,-83"/>
<polygon fill="#63b8ff" stroke="#63b8ff" points="310.95,-85.96 316.99,-77.25 306.84,-80.29 310.95,-85.96"/>
</a>
</g>
</g>
<!-- Node8 -->
<g id="Node000008" class="node">
<title>Node8</title>
<g id="a_Node000008"><a xlink:title=" ">
<polygon fill="#e0e0e0" stroke="#999999" points="421.62,-76 378.62,-76 378.62,-56 421.62,-56 421.62,-76"/>
<text text-anchor="middle" x="400.12" y="-62.5" font-family="Helvetica,sans-Serif" font-size="10.00">vector</text>
</a>
</g>
</g>
<!-- Node1&#45;&gt;Node8 -->
<g id="edge7_Node000001_Node000008" class="edge">
<title>Node1&#45;&gt;Node8</title>
<g id="a_edge7_Node000001_Node000008"><a xlink:title=" ">
<path fill="none" stroke="#63b8ff" d="M292.07,-111.57C316.94,-101.31 345.94,-89.35 367.64,-80.4"/>
<polygon fill="#63b8ff" stroke="#63b8ff" points="368.95,-83.65 376.86,-76.6 366.28,-77.18 368.95,-83.65"/>
</a>
</g>
</g>
<!-- Node9 -->
<g id="Node000009" class="node">
<title>Node9</title>
<g id="a_Node000009"><a xlink:href="RowDTOAdapter_8hpp.html" target="_top" xlink:title=" ">
<polygon fill="white" stroke="#666666" points="549,-76 439.25,-76 439.25,-56 549,-56 549,-76"/>
<text text-anchor="middle" x="494.12" y="-62.5" font-family="Helvetica,sans-Serif" font-size="10.00">RowDTOAdapter.hpp</text>
</a>
</g>
</g>
<!-- Node1&#45;&gt;Node9 -->
<g id="edge8_Node000001_Node000009" class="edge">
<title>Node1&#45;&gt;Node9</title>
<g id="a_edge8_Node000001_Node000009"><a xlink:title=" ">
<path fill="none" stroke="#63b8ff" d="M297.44,-118.11C342.48,-106.4 404.44,-90.3 446.71,-79.32"/>
<polygon fill="#63b8ff" stroke="#63b8ff" points="447.55,-82.72 456.34,-76.82 445.79,-75.94 447.55,-82.72"/>
</a>
</g>
</g>
<!-- Node9&#45;&gt;Node5 -->
<g id="edge9_Node000009_Node000005" class="edge">
<title>Node9&#45;&gt;Node5</title>
<g id="a_edge9_Node000009_Node000005"><a xlink:title=" ">
<path fill="none" stroke="#63b8ff" d="M469.91,-55.59C447.82,-47.01 414.93,-34.23 390,-24.55"/>
<polygon fill="#63b8ff" stroke="#63b8ff" points="391.53,-21.39 380.94,-21.03 388.99,-27.91 391.53,-21.39"/>
</a>
</g>
</g>
</g>
</svg>
