<?xml version="1.0" encoding="UTF-8" standalone="no"?>
<!DOCTYPE svg PUBLIC "-//W3C//DTD SVG 1.1//EN"
 "http://www.w3.org/Graphics/SVG/1.1/DTD/svg11.dtd">
<!-- Generated by graphviz version 9.0.0 (0)
 -->
<!-- Title: src/bot_library/commands Pages: 1 -->
<svg width="544pt" height="200pt"
 viewBox="0.00 0.00 544.00 200.00" xmlns="http://www.w3.org/2000/svg" xmlns:xlink="http://www.w3.org/1999/xlink">
<g id="graph0" class="graph" transform="scale(1 1) rotate(0) translate(4 196)">
<title>src/bot_library/commands</title>
<g id="clust1" class="cluster">
<title>clusterdir_be3b34367be430ae387384d9c29f3df4</title>
<g id="a_clust1"><a xlink:href="dir_be3b34367be430ae387384d9c29f3df4.html" target="_top" xlink:title="bot_library">
<polygon fill="#edf0f7" stroke="#7f7f7f" stroke-dasharray="5,2" points="8,-8 8,-184 528,-184 528,-8 8,-8"/>
<text text-anchor="middle" x="268" y="-170.5" font-family="Helvetica,sans-Serif" font-size="10.00">bot_library</text>
</a>
</g>
</g>
<g id="clust2" class="cluster">
<title>clusterdir_261c5c8db3e2632ea4bb1b96cd6e78dc</title>
<g id="a_clust2"><a xlink:href="dir_261c5c8db3e2632ea4bb1b96cd6e78dc.html" target="_top">
<polygon fill="#edf0f7" stroke="#404040" stroke-width="2" points="16,-64 16,-156 520,-156 520,-64 16,-64"/>
</a>
</g>
</g>
<!-- dir_cac0b191d0d7d0dd67d730930ce5fa13 -->
<g id="node1" class="node">
<title>dir_cac0b191d0d7d0dd67d730930ce5fa13</title>
<g id="a_node1"><a xlink:href="dir_cac0b191d0d7d0dd67d730930ce5fa13.html" target="_top" xlink:title="bot">
<polygon fill="#a2b4d6" stroke="red" points="265.75,-36 236.25,-36 236.25,-16 265.75,-16 265.75,-36"/>
<text text-anchor="middle" x="251" y="-22.5" font-family="Helvetica,sans-Serif" font-size="10.00">bot</text>
</a>
</g>
</g>
<!-- dir_261c5c8db3e2632ea4bb1b96cd6e78dc -->
<g id="node2" class="node">
<title>dir_261c5c8db3e2632ea4bb1b96cd6e78dc</title>
<text text-anchor="middle" x="56" y="-134.5" font-family="Helvetica,sans-Serif" font-size="10.00">commands</text>
</g>
<!-- dir_9d7cbcd390d83bb8092815502b9393e2 -->
<g id="node5" class="node">
<title>dir_9d7cbcd390d83bb8092815502b9393e2</title>
<g id="a_node5"><a xlink:href="dir_9d7cbcd390d83bb8092815502b9393e2.html" target="_top" xlink:title="include">
<polygon fill="#a2b4d6" stroke="#404040" points="85.38,-92 38.62,-92 38.62,-72 85.38,-72 85.38,-92"/>
<text text-anchor="middle" x="62" y="-78.5" font-family="Helvetica,sans-Serif" font-size="10.00">include</text>
</a>
</g>
</g>
<!-- dir_261c5c8db3e2632ea4bb1b96cd6e78dc&#45;&gt;dir_9d7cbcd390d83bb8092815502b9393e2 -->
<g id="edge1" class="edge">
<title>dir_261c5c8db3e2632ea4bb1b96cd6e78dc&#45;&gt;dir_9d7cbcd390d83bb8092815502b9393e2</title>
<g id="a_edge1"><a xlink:href="dir_000003_000011.html" target="_top">
<path fill="none" stroke="#63b8ff" d="M56.99,-128.08C57.72,-121.48 58.75,-112.21 59.69,-103.79"/>
<polygon fill="#63b8ff" stroke="#63b8ff" points="63.15,-104.31 60.78,-93.98 56.2,-103.53 63.15,-104.31"/>
</a>
</g>
<g id="a_edge1&#45;headlabel"><a xlink:href="dir_000003_000011.html" target="_top" xlink:title="1">
<text text-anchor="middle" x="65.75" y="-103.19" font-family="Helvetica,sans-Serif" font-size="10.00" fill="#63b8ff">1</text>
</a>
</g>
</g>
<!-- dir_e4c64626919ae284a6143de39fd042e4 -->
<g id="node6" class="node">
<title>dir_e4c64626919ae284a6143de39fd042e4</title>
<g id="a_node6"><a xlink:href="dir_e4c64626919ae284a6143de39fd042e4.html" target="_top" xlink:title="pong">
<polygon fill="#a2b4d6" stroke="#404040" points="157.5,-92 120.5,-92 120.5,-72 157.5,-72 157.5,-92"/>
<text text-anchor="middle" x="139" y="-78.5" font-family="Helvetica,sans-Serif" font-size="10.00">pong</text>
</a>
</g>
</g>
<!-- dir_261c5c8db3e2632ea4bb1b96cd6e78dc&#45;&gt;dir_e4c64626919ae284a6143de39fd042e4 -->
<g id="edge2" class="edge">
<title>dir_261c5c8db3e2632ea4bb1b96cd6e78dc&#45;&gt;dir_e4c64626919ae284a6143de39fd042e4</title>
<g id="a_edge2"><a xlink:href="dir_000003_000014.html" target="_top">
<path fill="none" stroke="#63b8ff" d="M69.71,-128.08C81.98,-120.1 100.25,-108.21 114.95,-98.65"/>
<polygon fill="#63b8ff" stroke="#63b8ff" points="116.69,-101.69 123.17,-93.3 112.88,-95.82 116.69,-101.69"/>
</a>
</g>
<g id="a_edge2&#45;headlabel"><a xlink:href="dir_000003_000014.html" target="_top" xlink:title="1">
<text text-anchor="middle" x="116.5" y="-101.7" font-family="Helvetica,sans-Serif" font-size="10.00" fill="#63b8ff">1</text>
</a>
</g>
</g>
<!-- dir_c51bb8760eda2ecf5deaef23809ed440 -->
<g id="node3" class="node">
<title>dir_c51bb8760eda2ecf5deaef23809ed440</title>
<g id="a_node3"><a xlink:href="dir_c51bb8760eda2ecf5deaef23809ed440.html" target="_top" xlink:title="challenge_role">
<polygon fill="#a2b4d6" stroke="#404040" points="184.12,-148 105.88,-148 105.88,-128 184.12,-128 184.12,-148"/>
<text text-anchor="middle" x="145" y="-134.5" font-family="Helvetica,sans-Serif" font-size="10.00">challenge_role</text>
</a>
</g>
</g>
<!-- dir_c51bb8760eda2ecf5deaef23809ed440&#45;&gt;dir_cac0b191d0d7d0dd67d730930ce5fa13 -->
<g id="edge3" class="edge">
<title>dir_c51bb8760eda2ecf5deaef23809ed440&#45;&gt;dir_cac0b191d0d7d0dd67d730930ce5fa13</title>
<g id="a_edge3"><a xlink:href="dir_000002_000000.html" target="_top">
<path fill="none" stroke="#63b8ff" d="M154.04,-127.62C171.8,-109.19 211.48,-68.01 234.19,-44.44"/>
<polygon fill="#63b8ff" stroke="#63b8ff" points="236.52,-47.07 240.94,-37.44 231.48,-42.22 236.52,-47.07"/>
</a>
</g>
<g id="a_edge3&#45;headlabel"><a xlink:href="dir_000002_000000.html" target="_top" xlink:title="6">
<text text-anchor="middle" x="237.12" y="-47.04" font-family="Helvetica,sans-Serif" font-size="10.00" fill="#63b8ff">6</text>
</a>
</g>
</g>
<!-- dir_dc1cac501bd439d519324f1df382cae1 -->
<g id="node4" class="node">
<title>dir_dc1cac501bd439d519324f1df382cae1</title>
<g id="a_node4"><a xlink:href="dir_dc1cac501bd439d519324f1df382cae1.html" target="_top" xlink:title="help">
<polygon fill="#a2b4d6" stroke="#404040" points="236,-148 202,-148 202,-128 236,-128 236,-148"/>
<text text-anchor="middle" x="219" y="-134.5" font-family="Helvetica,sans-Serif" font-size="10.00">help</text>
</a>
</g>
</g>
<!-- dir_dc1cac501bd439d519324f1df382cae1&#45;&gt;dir_cac0b191d0d7d0dd67d730930ce5fa13 -->
<g id="edge4" class="edge">
<title>dir_dc1cac501bd439d519324f1df382cae1&#45;&gt;dir_cac0b191d0d7d0dd67d730930ce5fa13</title>
<g id="a_edge4"><a xlink:href="dir_000006_000000.html" target="_top">
<path fill="none" stroke="#63b8ff" d="M221.73,-127.62C226.88,-109.92 238.13,-71.24 245.09,-47.32"/>
<polygon fill="#63b8ff" stroke="#63b8ff" points="248.42,-48.39 247.86,-37.81 241.7,-46.43 248.42,-48.39"/>
</a>
</g>
<g id="a_edge4&#45;headlabel"><a xlink:href="dir_000006_000000.html" target="_top" xlink:title="1">
<text text-anchor="middle" x="250.57" y="-47.68" font-family="Helvetica,sans-Serif" font-size="10.00" fill="#63b8ff">1</text>
</a>
</g>
</g>
<!-- dir_9d7cbcd390d83bb8092815502b9393e2&#45;&gt;dir_cac0b191d0d7d0dd67d730930ce5fa13 -->
<g id="edge5" class="edge">
<title>dir_9d7cbcd390d83bb8092815502b9393e2&#45;&gt;dir_cac0b191d0d7d0dd67d730930ce5fa13</title>
<g id="a_edge5"><a xlink:href="dir_000011_000000.html" target="_top">
<path fill="none" stroke="#63b8ff" d="M85.8,-72.54C94.06,-69.7 103.4,-66.6 112,-64 151.11,-52.16 197.01,-40.34 225.04,-33.35"/>
<polygon fill="#63b8ff" stroke="#63b8ff" points="225.56,-36.83 234.42,-31.03 223.87,-30.04 225.56,-36.83"/>
</a>
</g>
<g id="a_edge5&#45;headlabel"><a xlink:href="dir_000011_000000.html" target="_top" xlink:title="1">
<text text-anchor="middle" x="224.22" y="-36.59" font-family="Helvetica,sans-Serif" font-size="10.00" fill="#63b8ff">1</text>
</a>
</g>
</g>
<!-- dir_e4c64626919ae284a6143de39fd042e4&#45;&gt;dir_cac0b191d0d7d0dd67d730930ce5fa13 -->
<g id="edge6" class="edge">
<title>dir_e4c64626919ae284a6143de39fd042e4&#45;&gt;dir_cac0b191d0d7d0dd67d730930ce5fa13</title>
<g id="a_edge6"><a xlink:href="dir_000014_000000.html" target="_top">
<path fill="none" stroke="#63b8ff" d="M150.33,-71.78C153.94,-69.08 158.02,-66.25 162,-64 182.4,-52.45 207.13,-42.46 225.34,-35.78"/>
<polygon fill="#63b8ff" stroke="#63b8ff" points="226.33,-39.14 234.57,-32.48 223.98,-32.55 226.33,-39.14"/>
</a>
</g>
<g id="a_edge6&#45;headlabel"><a xlink:href="dir_000014_000000.html" target="_top" xlink:title="1">
<text text-anchor="middle" x="225.32" y="-39.02" font-family="Helvetica,sans-Serif" font-size="10.00" fill="#63b8ff">1</text>
</a>
</g>
</g>
<!-- dir_4664096a0ece9a7aba46a7b7bb421972 -->
<g id="node7" class="node">
<title>dir_4664096a0ece9a7aba46a7b7bb421972</title>
<g id="a_node7"><a xlink:href="dir_4664096a0ece9a7aba46a7b7bb421972.html" target="_top" xlink:title="resources">
<polygon fill="#a2b4d6" stroke="#404040" points="312.38,-148 253.62,-148 253.62,-128 312.38,-128 312.38,-148"/>
<text text-anchor="middle" x="283" y="-134.5" font-family="Helvetica,sans-Serif" font-size="10.00">resources</text>
</a>
</g>
</g>
<!-- dir_4664096a0ece9a7aba46a7b7bb421972&#45;&gt;dir_cac0b191d0d7d0dd67d730930ce5fa13 -->
<g id="edge7" class="edge">
<title>dir_4664096a0ece9a7aba46a7b7bb421972&#45;&gt;dir_cac0b191d0d7d0dd67d730930ce5fa13</title>
<g id="a_edge7"><a xlink:href="dir_000015_000000.html" target="_top">
<path fill="none" stroke="#63b8ff" d="M280.27,-127.62C275.12,-109.92 263.87,-71.24 256.91,-47.32"/>
<polygon fill="#63b8ff" stroke="#63b8ff" points="260.3,-46.43 254.14,-37.81 253.58,-48.39 260.3,-46.43"/>
</a>
</g>
<g id="a_edge7&#45;headlabel"><a xlink:href="dir_000015_000000.html" target="_top" xlink:title="1">
<text text-anchor="middle" x="263.61" y="-44.14" font-family="Helvetica,sans-Serif" font-size="10.00" fill="#63b8ff">1</text>
</a>
</g>
</g>
<!-- dir_79539d27238dee0ea0b88155f5d478bd -->
<g id="node8" class="node">
<title>dir_79539d27238dee0ea0b88155f5d478bd</title>
<g id="a_node8"><a xlink:href="dir_79539d27238dee0ea0b88155f5d478bd.html" target="_top" xlink:title="roles">
<polygon fill="#a2b4d6" stroke="#404040" points="367.5,-148 330.5,-148 330.5,-128 367.5,-128 367.5,-148"/>
<text text-anchor="middle" x="349" y="-134.5" font-family="Helvetica,sans-Serif" font-size="10.00">roles</text>
</a>
</g>
</g>
<!-- dir_79539d27238dee0ea0b88155f5d478bd&#45;&gt;dir_cac0b191d0d7d0dd67d730930ce5fa13 -->
<g id="edge8" class="edge">
<title>dir_79539d27238dee0ea0b88155f5d478bd&#45;&gt;dir_cac0b191d0d7d0dd67d730930ce5fa13</title>
<g id="a_edge8"><a xlink:href="dir_000016_000000.html" target="_top">
<path fill="none" stroke="#63b8ff" d="M340.64,-127.62C324.3,-109.27 287.86,-68.37 266.82,-44.75"/>
<polygon fill="#63b8ff" stroke="#63b8ff" points="269.61,-42.62 260.34,-37.48 264.38,-47.28 269.61,-42.62"/>
</a>
</g>
<g id="a_edge8&#45;headlabel"><a xlink:href="dir_000016_000000.html" target="_top" xlink:title="2">
<text text-anchor="middle" x="273.11" y="-38.79" font-family="Helvetica,sans-Serif" font-size="10.00" fill="#63b8ff">2</text>
</a>
</g>
</g>
<!-- dir_45dc5c8d62ec8ca66ff85239c099c91b -->
<g id="node9" class="node">
<title>dir_45dc5c8d62ec8ca66ff85239c099c91b</title>
<g id="a_node9"><a xlink:href="dir_45dc5c8d62ec8ca66ff85239c099c91b.html" target="_top" xlink:title="set_channel">
<polygon fill="#a2b4d6" stroke="#404040" points="454.25,-148 385.75,-148 385.75,-128 454.25,-128 454.25,-148"/>
<text text-anchor="middle" x="420" y="-134.5" font-family="Helvetica,sans-Serif" font-size="10.00">set_channel</text>
</a>
</g>
</g>
<!-- dir_45dc5c8d62ec8ca66ff85239c099c91b&#45;&gt;dir_cac0b191d0d7d0dd67d730930ce5fa13 -->
<g id="edge9" class="edge">
<title>dir_45dc5c8d62ec8ca66ff85239c099c91b&#45;&gt;dir_cac0b191d0d7d0dd67d730930ce5fa13</title>
<g id="a_edge9"><a xlink:href="dir_000017_000000.html" target="_top">
<path fill="none" stroke="#63b8ff" d="M405.59,-127.62C376.53,-108.71 310.64,-65.82 274.98,-42.61"/>
<polygon fill="#63b8ff" stroke="#63b8ff" points="276.93,-39.7 266.64,-37.18 273.11,-45.57 276.93,-39.7"/>
</a>
</g>
<g id="a_edge9&#45;headlabel"><a xlink:href="dir_000017_000000.html" target="_top" xlink:title="3">
<text text-anchor="middle" x="280.22" y="-34.96" font-family="Helvetica,sans-Serif" font-size="10.00" fill="#63b8ff">3</text>
</a>
</g>
</g>
<!-- dir_a8a25b46e7248d1cc8cde0feac26ecd0 -->
<g id="node10" class="node">
<title>dir_a8a25b46e7248d1cc8cde0feac26ecd0</title>
<g id="a_node10"><a xlink:href="dir_a8a25b46e7248d1cc8cde0feac26ecd0.html" target="_top" xlink:title="users">
<polygon fill="#a2b4d6" stroke="#404040" points="512,-148 472,-148 472,-128 512,-128 512,-148"/>
<text text-anchor="middle" x="492" y="-134.5" font-family="Helvetica,sans-Serif" font-size="10.00">users</text>
</a>
</g>
</g>
<!-- dir_a8a25b46e7248d1cc8cde0feac26ecd0&#45;&gt;dir_cac0b191d0d7d0dd67d730930ce5fa13 -->
<g id="edge10" class="edge">
<title>dir_a8a25b46e7248d1cc8cde0feac26ecd0&#45;&gt;dir_cac0b191d0d7d0dd67d730930ce5fa13</title>
<g id="a_edge10"><a xlink:href="dir_000019_000000.html" target="_top">
<path fill="none" stroke="#63b8ff" d="M472.23,-127.65C442.53,-113.64 384.57,-86.44 335,-64 315.35,-55.11 293,-45.27 276.29,-37.98"/>
<polygon fill="#63b8ff" stroke="#63b8ff" points="278.17,-34.98 267.6,-34.2 275.37,-41.4 278.17,-34.98"/>
</a>
</g>
<g id="a_edge10&#45;headlabel"><a xlink:href="dir_000019_000000.html" target="_top" xlink:title="1">
<text text-anchor="middle" x="281.21" y="-29.71" font-family="Helvetica,sans-Serif" font-size="10.00" fill="#63b8ff">1</text>
</a>
</g>
</g>
</g>
</svg>
