<?xml version="1.0" encoding="UTF-8" standalone="no"?>
<!DOCTYPE svg PUBLIC "-//W3C//DTD SVG 1.1//EN"
 "http://www.w3.org/Graphics/SVG/1.1/DTD/svg11.dtd">
<!-- Generated by graphviz version 9.0.0 (0)
 -->
<!-- Title: src/commands Pages: 1 -->
<svg width="344pt" height="200pt"
 viewBox="0.00 0.00 344.00 200.00" xmlns="http://www.w3.org/2000/svg" xmlns:xlink="http://www.w3.org/1999/xlink">
<g id="graph0" class="graph" transform="scale(1 1) rotate(0) translate(4 196)">
<title>src/commands</title>
<g id="clust1" class="cluster">
<title>clusterdir_68267d1309a1af8e8297ef4c3efbcdba</title>
<g id="a_clust1"><a xlink:href="dir_68267d1309a1af8e8297ef4c3efbcdba.html" target="_top" xlink:title="src">
<polygon fill="#edf0f7" stroke="#404040" stroke-dasharray="5,2" points="8,-8 8,-184 328,-184 328,-8 8,-8"/>
<text text-anchor="middle" x="168" y="-170.5" font-family="Helvetica,sans-Serif" font-size="10.00">src</text>
</a>
</g>
</g>
<g id="clust2" class="cluster">
<title>clusterdir_5e80d29b61c444378a543be4dd1414df</title>
<g id="a_clust2"><a xlink:href="dir_5e80d29b61c444378a543be4dd1414df.html" target="_top">
<polygon fill="#edf0f7" stroke="#404040" stroke-width="2" points="16,-64 16,-156 286,-156 286,-64 16,-64"/>
</a>
</g>
</g>
<!-- dir_aebb8dcc11953d78e620bbef0b9e2183 -->
<g id="node1" class="node">
<title>dir_aebb8dcc11953d78e620bbef0b9e2183</title>
<g id="a_node1"><a xlink:href="dir_aebb8dcc11953d78e620bbef0b9e2183.html" target="_top" xlink:title="core">
<polygon fill="#a2b4d6" stroke="red" points="276.38,-36 241.62,-36 241.62,-16 276.38,-16 276.38,-36"/>
<text text-anchor="middle" x="259" y="-22.5" font-family="Helvetica,sans-Serif" font-size="10.00">core</text>
</a>
</g>
</g>
<!-- dir_5e80d29b61c444378a543be4dd1414df -->
<g id="node2" class="node">
<title>dir_5e80d29b61c444378a543be4dd1414df</title>
<text text-anchor="middle" x="56" y="-134.5" font-family="Helvetica,sans-Serif" font-size="10.00">commands</text>
</g>
<!-- dir_5e80d29b61c444378a543be4dd1414df&#45;&gt;dir_aebb8dcc11953d78e620bbef0b9e2183 -->
<g id="edge4" class="edge">
<title>dir_5e80d29b61c444378a543be4dd1414df&#45;&gt;dir_aebb8dcc11953d78e620bbef0b9e2183</title>
<g id="a_edge4"><a xlink:href="dir_000001_000002.html" target="_top">
<path fill="none" stroke="#63b8ff" d="M87.59,-129.87C141.97,-117.56 247.61,-93.5 249,-92 259.92,-80.21 261.86,-61.73 261.38,-47.49"/>
<polygon fill="#63b8ff" stroke="#63b8ff" points="264.9,-47.54 260.63,-37.84 257.92,-48.08 264.9,-47.54"/>
</a>
</g>
<g id="a_edge4&#45;headlabel"><a xlink:href="dir_000001_000002.html" target="_top" xlink:title="19">
<text text-anchor="middle" x="267.89" y="-45.89" font-family="Helvetica,sans-Serif" font-size="10.00" fill="#63b8ff">19</text>
</a>
</g>
</g>
<!-- dir_21b5ee0f24c7380cc4024cac70099f99 -->
<g id="node3" class="node">
<title>dir_21b5ee0f24c7380cc4024cac70099f99</title>
<g id="a_node3"><a xlink:href="dir_21b5ee0f24c7380cc4024cac70099f99.html" target="_top" xlink:title="challenge_role">
<polygon fill="#a2b4d6" stroke="#404040" points="102.12,-92 23.88,-92 23.88,-72 102.12,-72 102.12,-92"/>
<text text-anchor="middle" x="63" y="-78.5" font-family="Helvetica,sans-Serif" font-size="10.00">challenge_role</text>
</a>
</g>
</g>
<!-- dir_5e80d29b61c444378a543be4dd1414df&#45;&gt;dir_21b5ee0f24c7380cc4024cac70099f99 -->
<g id="edge2" class="edge">
<title>dir_5e80d29b61c444378a543be4dd1414df&#45;&gt;dir_21b5ee0f24c7380cc4024cac70099f99</title>
<g id="a_edge2"><a xlink:href="dir_000001_000000.html" target="_top">
<path fill="none" stroke="#63b8ff" d="M57.16,-128.08C58.01,-121.48 59.21,-112.21 60.3,-103.79"/>
<polygon fill="#63b8ff" stroke="#63b8ff" points="63.76,-104.34 61.58,-93.98 56.82,-103.44 63.76,-104.34"/>
</a>
</g>
<g id="a_edge2&#45;headlabel"><a xlink:href="dir_000001_000000.html" target="_top" xlink:title="1">
<text text-anchor="middle" x="66.31" y="-103.27" font-family="Helvetica,sans-Serif" font-size="10.00" fill="#63b8ff">1</text>
</a>
</g>
</g>
<!-- dir_08238500dec3503f1f7dab979d854e23 -->
<g id="node4" class="node">
<title>dir_08238500dec3503f1f7dab979d854e23</title>
<g id="a_node4"><a xlink:href="dir_08238500dec3503f1f7dab979d854e23.html" target="_top" xlink:title="help">
<polygon fill="#a2b4d6" stroke="#404040" points="154,-92 120,-92 120,-72 154,-72 154,-92"/>
<text text-anchor="middle" x="137" y="-78.5" font-family="Helvetica,sans-Serif" font-size="10.00">help</text>
</a>
</g>
</g>
<!-- dir_5e80d29b61c444378a543be4dd1414df&#45;&gt;dir_08238500dec3503f1f7dab979d854e23 -->
<g id="edge1" class="edge">
<title>dir_5e80d29b61c444378a543be4dd1414df&#45;&gt;dir_08238500dec3503f1f7dab979d854e23</title>
<g id="a_edge1"><a xlink:href="dir_000001_000004.html" target="_top">
<path fill="none" stroke="#63b8ff" d="M69.38,-128.08C81.35,-120.1 99.18,-108.21 113.53,-98.65"/>
<polygon fill="#63b8ff" stroke="#63b8ff" points="115.15,-101.77 121.53,-93.32 111.27,-95.95 115.15,-101.77"/>
</a>
</g>
<g id="a_edge1&#45;headlabel"><a xlink:href="dir_000001_000004.html" target="_top" xlink:title="1">
<text text-anchor="middle" x="114.99" y="-101.79" font-family="Helvetica,sans-Serif" font-size="10.00" fill="#63b8ff">1</text>
</a>
</g>
</g>
<!-- dir_3677a5d00bc8827bcab6a6faa07e4d85 -->
<g id="node7" class="node">
<title>dir_3677a5d00bc8827bcab6a6faa07e4d85</title>
<g id="a_node7"><a xlink:href="dir_3677a5d00bc8827bcab6a6faa07e4d85.html" target="_top" xlink:title="set_channel">
<polygon fill="#a2b4d6" stroke="#404040" points="240.25,-92 171.75,-92 171.75,-72 240.25,-72 240.25,-92"/>
<text text-anchor="middle" x="206" y="-78.5" font-family="Helvetica,sans-Serif" font-size="10.00">set_channel</text>
</a>
</g>
</g>
<!-- dir_5e80d29b61c444378a543be4dd1414df&#45;&gt;dir_3677a5d00bc8827bcab6a6faa07e4d85 -->
<g id="edge3" class="edge">
<title>dir_5e80d29b61c444378a543be4dd1414df&#45;&gt;dir_3677a5d00bc8827bcab6a6faa07e4d85</title>
<g id="a_edge3"><a xlink:href="dir_000001_000008.html" target="_top">
<path fill="none" stroke="#63b8ff" d="M80.77,-128.08C104.76,-119.45 141.43,-106.24 168.91,-96.35"/>
<polygon fill="#63b8ff" stroke="#63b8ff" points="170.03,-99.67 178.25,-92.99 167.66,-93.08 170.03,-99.67"/>
</a>
</g>
<g id="a_edge3&#45;headlabel"><a xlink:href="dir_000001_000008.html" target="_top" xlink:title="1">
<text text-anchor="middle" x="169.04" y="-99.54" font-family="Helvetica,sans-Serif" font-size="10.00" fill="#63b8ff">1</text>
</a>
</g>
</g>
<!-- dir_21b5ee0f24c7380cc4024cac70099f99&#45;&gt;dir_aebb8dcc11953d78e620bbef0b9e2183 -->
<g id="edge5" class="edge">
<title>dir_21b5ee0f24c7380cc4024cac70099f99&#45;&gt;dir_aebb8dcc11953d78e620bbef0b9e2183</title>
<g id="a_edge5"><a xlink:href="dir_000000_000002.html" target="_top">
<path fill="none" stroke="#63b8ff" d="M88.26,-71.55C95.55,-68.95 103.55,-66.24 111,-64 152.19,-51.59 200.7,-40.03 230.65,-33.24"/>
<polygon fill="#63b8ff" stroke="#63b8ff" points="231.07,-36.73 240.06,-31.13 229.54,-29.9 231.07,-36.73"/>
</a>
</g>
<g id="a_edge5&#45;headlabel"><a xlink:href="dir_000000_000002.html" target="_top" xlink:title="7">
<text text-anchor="middle" x="229.66" y="-36.46" font-family="Helvetica,sans-Serif" font-size="10.00" fill="#63b8ff">7</text>
</a>
</g>
</g>
<!-- dir_08238500dec3503f1f7dab979d854e23&#45;&gt;dir_aebb8dcc11953d78e620bbef0b9e2183 -->
<g id="edge6" class="edge">
<title>dir_08238500dec3503f1f7dab979d854e23&#45;&gt;dir_aebb8dcc11953d78e620bbef0b9e2183</title>
<g id="a_edge6"><a xlink:href="dir_000004_000002.html" target="_top">
<path fill="none" stroke="#63b8ff" d="M150.17,-71.62C154.18,-68.97 158.68,-66.21 163,-64 184.82,-52.82 210.85,-42.99 230.29,-36.28"/>
<polygon fill="#63b8ff" stroke="#63b8ff" points="231.38,-39.6 239.74,-33.09 229.15,-32.97 231.38,-39.6"/>
</a>
</g>
<g id="a_edge6&#45;headlabel"><a xlink:href="dir_000004_000002.html" target="_top" xlink:title="2">
<text text-anchor="middle" x="230.32" y="-39.46" font-family="Helvetica,sans-Serif" font-size="10.00" fill="#63b8ff">2</text>
</a>
</g>
</g>
<!-- dir_a9837589c1e824962ce28951a233a022 -->
<g id="node5" class="node">
<title>dir_a9837589c1e824962ce28951a233a022</title>
<g id="a_node5"><a xlink:href="dir_a9837589c1e824962ce28951a233a022.html" target="_top" xlink:title="resources">
<polygon fill="#a2b4d6" stroke="#404040" points="164.38,-148 105.62,-148 105.62,-128 164.38,-128 164.38,-148"/>
<text text-anchor="middle" x="135" y="-134.5" font-family="Helvetica,sans-Serif" font-size="10.00">resources</text>
</a>
</g>
</g>
<!-- dir_a9837589c1e824962ce28951a233a022&#45;&gt;dir_aebb8dcc11953d78e620bbef0b9e2183 -->
<g id="edge7" class="edge">
<title>dir_a9837589c1e824962ce28951a233a022&#45;&gt;dir_aebb8dcc11953d78e620bbef0b9e2183</title>
<g id="a_edge7"><a xlink:href="dir_000006_000002.html" target="_top">
<path fill="none" stroke="#63b8ff" d="M164.7,-128.61C200.91,-118.08 258.04,-100.39 264,-92 273.12,-79.15 270.85,-61.06 266.87,-47.22"/>
<polygon fill="#63b8ff" stroke="#63b8ff" points="270.21,-46.16 263.67,-37.83 263.58,-48.42 270.21,-46.16"/>
</a>
</g>
<g id="a_edge7&#45;headlabel"><a xlink:href="dir_000006_000002.html" target="_top" xlink:title="1">
<text text-anchor="middle" x="273.56" y="-43.72" font-family="Helvetica,sans-Serif" font-size="10.00" fill="#63b8ff">1</text>
</a>
</g>
</g>
<!-- dir_ef6cf5d1e94945dcad3806d0aa9853d9 -->
<g id="node6" class="node">
<title>dir_ef6cf5d1e94945dcad3806d0aa9853d9</title>
<g id="a_node6"><a xlink:href="dir_ef6cf5d1e94945dcad3806d0aa9853d9.html" target="_top" xlink:title="roles">
<polygon fill="#a2b4d6" stroke="#404040" points="219.5,-148 182.5,-148 182.5,-128 219.5,-128 219.5,-148"/>
<text text-anchor="middle" x="201" y="-134.5" font-family="Helvetica,sans-Serif" font-size="10.00">roles</text>
</a>
</g>
</g>
<!-- dir_ef6cf5d1e94945dcad3806d0aa9853d9&#45;&gt;dir_aebb8dcc11953d78e620bbef0b9e2183 -->
<g id="edge8" class="edge">
<title>dir_ef6cf5d1e94945dcad3806d0aa9853d9&#45;&gt;dir_aebb8dcc11953d78e620bbef0b9e2183</title>
<g id="a_edge8"><a xlink:href="dir_000007_000002.html" target="_top">
<path fill="none" stroke="#63b8ff" d="M219.62,-129.56C241.8,-120.26 276.79,-104.11 284,-92 292.86,-77.12 283.98,-58.54 274.44,-45.06"/>
<polygon fill="#63b8ff" stroke="#63b8ff" points="277.44,-43.22 268.54,-37.47 271.91,-47.52 277.44,-43.22"/>
</a>
</g>
<g id="a_edge8&#45;headlabel"><a xlink:href="dir_000007_000002.html" target="_top" xlink:title="2">
<text text-anchor="middle" x="280.96" y="-39.63" font-family="Helvetica,sans-Serif" font-size="10.00" fill="#63b8ff">2</text>
</a>
</g>
</g>
<!-- dir_3677a5d00bc8827bcab6a6faa07e4d85&#45;&gt;dir_aebb8dcc11953d78e620bbef0b9e2183 -->
<g id="edge9" class="edge">
<title>dir_3677a5d00bc8827bcab6a6faa07e4d85&#45;&gt;dir_aebb8dcc11953d78e620bbef0b9e2183</title>
<g id="a_edge9"><a xlink:href="dir_000008_000002.html" target="_top">
<path fill="none" stroke="#63b8ff" d="M215.23,-71.59C222.6,-64.08 233.13,-53.35 242.02,-44.3"/>
<polygon fill="#63b8ff" stroke="#63b8ff" points="244.31,-46.97 248.81,-37.38 239.31,-42.06 244.31,-46.97"/>
</a>
</g>
<g id="a_edge9&#45;headlabel"><a xlink:href="dir_000008_000002.html" target="_top" xlink:title="4">
<text text-anchor="middle" x="244.88" y="-46.94" font-family="Helvetica,sans-Serif" font-size="10.00" fill="#63b8ff">4</text>
</a>
</g>
</g>
<!-- dir_a3fcab58e3070553a5496b04752a1ed6 -->
<g id="node8" class="node">
<title>dir_a3fcab58e3070553a5496b04752a1ed6</title>
<g id="a_node8"><a xlink:href="dir_a3fcab58e3070553a5496b04752a1ed6.html" target="_top" xlink:title="users">
<polygon fill="#a2b4d6" stroke="#404040" points="278,-148 238,-148 238,-128 278,-128 278,-148"/>
<text text-anchor="middle" x="258" y="-134.5" font-family="Helvetica,sans-Serif" font-size="10.00">users</text>
</a>
</g>
</g>
<!-- dir_a3fcab58e3070553a5496b04752a1ed6&#45;&gt;dir_aebb8dcc11953d78e620bbef0b9e2183 -->
<g id="edge10" class="edge">
<title>dir_a3fcab58e3070553a5496b04752a1ed6&#45;&gt;dir_aebb8dcc11953d78e620bbef0b9e2183</title>
<g id="a_edge10"><a xlink:href="dir_000010_000002.html" target="_top">
<path fill="none" stroke="#63b8ff" d="M272.68,-127.54C283.6,-119.56 297.68,-107.03 304,-92 308.83,-80.53 309.32,-75.25 304,-64 299.99,-55.51 292.97,-48.32 285.66,-42.59"/>
<polygon fill="#63b8ff" stroke="#63b8ff" points="287.87,-39.87 277.67,-37 283.86,-45.6 287.87,-39.87"/>
</a>
</g>
<g id="a_edge10&#45;headlabel"><a xlink:href="dir_000010_000002.html" target="_top" xlink:title="1">
<text text-anchor="middle" x="291.21" y="-35.23" font-family="Helvetica,sans-Serif" font-size="10.00" fill="#63b8ff">1</text>
</a>
</g>
</g>
</g>
</svg>
