<?xml version="1.0" encoding="UTF-8" standalone="no"?>
<!DOCTYPE svg PUBLIC "-//W3C//DTD SVG 1.1//EN"
 "http://www.w3.org/Graphics/SVG/1.1/DTD/svg11.dtd">
<!-- Generated by graphviz version 12.1.2 (0)
 -->
<!-- Title: src/bot_library/commands Pages: 1 -->
<svg width="918pt" height="256pt"
 viewBox="0.00 0.00 918.00 256.00" xmlns="http://www.w3.org/2000/svg" xmlns:xlink="http://www.w3.org/1999/xlink">
<g id="graph0" class="graph" transform="scale(1 1) rotate(0) translate(4 252)">
<title>src/bot_library/commands</title>
<g id="clust1" class="cluster">
<title>clusterdir_be3b34367be430ae387384d9c29f3df4</title>
<g id="a_clust1"><a xlink:href="dir_be3b34367be430ae387384d9c29f3df4.html" target="_top" xlink:title="bot_library">
<polygon fill="#edf0f7" stroke="#7f7f7f" stroke-dasharray="5,2" points="8,-8 8,-240 902,-240 902,-8 8,-8"/>
<text text-anchor="middle" x="455" y="-226.5" font-family="Helvetica,sans-Serif" font-size="10.00">bot_library</text>
</a>
</g>
</g>
<g id="clust2" class="cluster">
<title>clusterdir_261c5c8db3e2632ea4bb1b96cd6e78dc</title>
<g id="a_clust2"><a xlink:href="dir_261c5c8db3e2632ea4bb1b96cd6e78dc.html" target="_top">
<polygon fill="#edf0f7" stroke="#404040" stroke-width="2" points="16,-64 16,-212 862,-212 862,-64 16,-64"/>
</a>
</g>
</g>
<!-- dir_cac0b191d0d7d0dd67d730930ce5fa13 -->
<g id="node1" class="node">
<title>dir_cac0b191d0d7d0dd67d730930ce5fa13</title>
<g id="a_node1"><a xlink:href="dir_cac0b191d0d7d0dd67d730930ce5fa13.html" target="_top" xlink:title="bot">
<polygon fill="#a2b4d6" stroke="red" points="437.75,-36 408.25,-36 408.25,-16 437.75,-16 437.75,-36"/>
<text text-anchor="middle" x="423" y="-22.5" font-family="Helvetica,sans-Serif" font-size="10.00">bot</text>
</a>
</g>
</g>
<!-- dir_261c5c8db3e2632ea4bb1b96cd6e78dc -->
<g id="node2" class="node">
<title>dir_261c5c8db3e2632ea4bb1b96cd6e78dc</title>
<text text-anchor="middle" x="336" y="-190.5" font-family="Helvetica,sans-Serif" font-size="10.00">commands</text>
</g>
<!-- dir_adcd489d00d8ca37449f57b9cfd13f65 -->
<g id="node3" class="node">
<title>dir_adcd489d00d8ca37449f57b9cfd13f65</title>
<g id="a_node3"><a xlink:href="dir_adcd489d00d8ca37449f57b9cfd13f65.html" target="_top" xlink:title="challenge_badge">
<polygon fill="#a2b4d6" stroke="#404040" points="304.38,-92 215.62,-92 215.62,-72 304.38,-72 304.38,-92"/>
<text text-anchor="middle" x="260" y="-78.5" font-family="Helvetica,sans-Serif" font-size="10.00">challenge_badge</text>
</a>
</g>
</g>
<!-- dir_261c5c8db3e2632ea4bb1b96cd6e78dc&#45;&gt;dir_adcd489d00d8ca37449f57b9cfd13f65 -->
<g id="edge9" class="edge">
<title>dir_261c5c8db3e2632ea4bb1b96cd6e78dc&#45;&gt;dir_adcd489d00d8ca37449f57b9cfd13f65</title>
<g id="a_edge9"><a xlink:href="dir_000005_000002.html" target="_top">
<path fill="none" stroke="#63b8ff" d="M304.06,-190.01C255.82,-184.75 167.96,-172.06 149,-148 128.94,-122.54 167.32,-105.05 204.32,-94.68"/>
<polygon fill="#63b8ff" stroke="#63b8ff" points="204.94,-98.14 213.71,-92.2 203.15,-91.37 204.94,-98.14"/>
</a>
</g>
<g id="a_edge9&#45;headlabel"><a xlink:href="dir_000005_000002.html" target="_top" xlink:title="10">
<text text-anchor="middle" x="203.65" y="-97.91" font-family="Helvetica,sans-Serif" font-size="10.00" fill="#63b8ff">10</text>
</a>
</g>
</g>
<!-- dir_c51bb8760eda2ecf5deaef23809ed440 -->
<g id="node4" class="node">
<title>dir_c51bb8760eda2ecf5deaef23809ed440</title>
<g id="a_node4"><a xlink:href="dir_c51bb8760eda2ecf5deaef23809ed440.html" target="_top" xlink:title="challenge_role">
<polygon fill="#a2b4d6" stroke="#404040" points="102.12,-92 23.88,-92 23.88,-72 102.12,-72 102.12,-92"/>
<text text-anchor="middle" x="63" y="-78.5" font-family="Helvetica,sans-Serif" font-size="10.00">challenge_role</text>
</a>
</g>
</g>
<!-- dir_261c5c8db3e2632ea4bb1b96cd6e78dc&#45;&gt;dir_c51bb8760eda2ecf5deaef23809ed440 -->
<g id="edge10" class="edge">
<title>dir_261c5c8db3e2632ea4bb1b96cd6e78dc&#45;&gt;dir_c51bb8760eda2ecf5deaef23809ed440</title>
<g id="a_edge10"><a xlink:href="dir_000005_000003.html" target="_top">
<path fill="none" stroke="#63b8ff" d="M304.15,-193.21C234.14,-192.93 70.37,-187.91 36,-148 24.23,-134.33 35.02,-114.8 46.26,-100.73"/>
<polygon fill="#63b8ff" stroke="#63b8ff" points="48.59,-103.38 52.49,-93.52 43.3,-98.8 48.59,-103.38"/>
</a>
</g>
<g id="a_edge10&#45;headlabel"><a xlink:href="dir_000005_000003.html" target="_top" xlink:title="2">
<text text-anchor="middle" x="49.38" y="-103.31" font-family="Helvetica,sans-Serif" font-size="10.00" fill="#63b8ff">2</text>
</a>
</g>
</g>
<!-- dir_e071329bb2fc8ace303f4ccc165742ca -->
<g id="node5" class="node">
<title>dir_e071329bb2fc8ace303f4ccc165742ca</title>
<g id="a_node5"><a xlink:href="dir_e071329bb2fc8ace303f4ccc165742ca.html" target="_top" xlink:title="clean_up">
<polygon fill="#a2b4d6" stroke="#404040" points="99.5,-148 44.5,-148 44.5,-128 99.5,-128 99.5,-148"/>
<text text-anchor="middle" x="72" y="-134.5" font-family="Helvetica,sans-Serif" font-size="10.00">clean_up</text>
</a>
</g>
</g>
<!-- dir_261c5c8db3e2632ea4bb1b96cd6e78dc&#45;&gt;dir_e071329bb2fc8ace303f4ccc165742ca -->
<g id="edge15" class="edge">
<title>dir_261c5c8db3e2632ea4bb1b96cd6e78dc&#45;&gt;dir_e071329bb2fc8ace303f4ccc165742ca</title>
<g id="a_edge15"><a xlink:href="dir_000005_000004.html" target="_top">
<path fill="none" stroke="#63b8ff" d="M304.36,-186.7C261.28,-178.1 181.76,-162.13 114,-148 112.83,-147.76 111.65,-147.51 110.45,-147.26"/>
<polygon fill="#63b8ff" stroke="#63b8ff" points="111.54,-143.91 101.03,-145.26 110.09,-150.76 111.54,-143.91"/>
</a>
</g>
<g id="a_edge15&#45;headlabel"><a xlink:href="dir_000005_000004.html" target="_top" xlink:title="1">
<text text-anchor="middle" x="114.17" y="-138.06" font-family="Helvetica,sans-Serif" font-size="10.00" fill="#63b8ff">1</text>
</a>
</g>
</g>
<!-- dir_d44c2f9991353a7b899d805b4059ed96 -->
<g id="node6" class="node">
<title>dir_d44c2f9991353a7b899d805b4059ed96</title>
<g id="a_node6"><a xlink:href="dir_d44c2f9991353a7b899d805b4059ed96.html" target="_top" xlink:title="flip">
<polygon fill="#a2b4d6" stroke="#404040" points="186.4,-148 157.6,-148 157.6,-128 186.4,-128 186.4,-148"/>
<text text-anchor="middle" x="172" y="-134.5" font-family="Helvetica,sans-Serif" font-size="10.00">flip</text>
</a>
</g>
</g>
<!-- dir_261c5c8db3e2632ea4bb1b96cd6e78dc&#45;&gt;dir_d44c2f9991353a7b899d805b4059ed96 -->
<g id="edge12" class="edge">
<title>dir_261c5c8db3e2632ea4bb1b96cd6e78dc&#45;&gt;dir_d44c2f9991353a7b899d805b4059ed96</title>
<g id="a_edge12"><a xlink:href="dir_000005_000008.html" target="_top">
<path fill="none" stroke="#63b8ff" d="M306.64,-184.01C280.38,-175.87 240.62,-163.32 197.43,-148.38"/>
<polygon fill="#63b8ff" stroke="#63b8ff" points="198.71,-145.11 188.11,-145.13 196.4,-151.72 198.71,-145.11"/>
</a>
</g>
<g id="a_edge12&#45;headlabel"><a xlink:href="dir_000005_000008.html" target="_top" xlink:title="1">
<text text-anchor="middle" x="201.61" y="-139.62" font-family="Helvetica,sans-Serif" font-size="10.00" fill="#63b8ff">1</text>
</a>
</g>
</g>
<!-- dir_dc1cac501bd439d519324f1df382cae1 -->
<g id="node7" class="node">
<title>dir_dc1cac501bd439d519324f1df382cae1</title>
<g id="a_node7"><a xlink:href="dir_dc1cac501bd439d519324f1df382cae1.html" target="_top" xlink:title="help">
<polygon fill="#a2b4d6" stroke="#404040" points="854,-148 820,-148 820,-128 854,-128 854,-148"/>
<text text-anchor="middle" x="837" y="-134.5" font-family="Helvetica,sans-Serif" font-size="10.00">help</text>
</a>
</g>
</g>
<!-- dir_261c5c8db3e2632ea4bb1b96cd6e78dc&#45;&gt;dir_dc1cac501bd439d519324f1df382cae1 -->
<g id="edge13" class="edge">
<title>dir_261c5c8db3e2632ea4bb1b96cd6e78dc&#45;&gt;dir_dc1cac501bd439d519324f1df382cae1</title>
<g id="a_edge13"><a xlink:href="dir_000005_000009.html" target="_top">
<path fill="none" stroke="#63b8ff" d="M367.8,-192.6C443.12,-191.09 638.25,-183.96 808.37,-148.08"/>
<polygon fill="#63b8ff" stroke="#63b8ff" points="809.02,-151.52 818.06,-146 807.55,-144.68 809.02,-151.52"/>
</a>
</g>
<g id="a_edge13&#45;headlabel"><a xlink:href="dir_000005_000009.html" target="_top" xlink:title="1">
<text text-anchor="middle" x="807.58" y="-151.24" font-family="Helvetica,sans-Serif" font-size="10.00" fill="#63b8ff">1</text>
</a>
</g>
</g>
<!-- dir_9d7cbcd390d83bb8092815502b9393e2 -->
<g id="node8" class="node">
<title>dir_9d7cbcd390d83bb8092815502b9393e2</title>
<g id="a_node8"><a xlink:href="dir_9d7cbcd390d83bb8092815502b9393e2.html" target="_top" xlink:title="include">
<polygon fill="#a2b4d6" stroke="#404040" points="359.38,-148 312.62,-148 312.62,-128 359.38,-128 359.38,-148"/>
<text text-anchor="middle" x="336" y="-134.5" font-family="Helvetica,sans-Serif" font-size="10.00">include</text>
</a>
</g>
</g>
<!-- dir_261c5c8db3e2632ea4bb1b96cd6e78dc&#45;&gt;dir_9d7cbcd390d83bb8092815502b9393e2 -->
<g id="edge8" class="edge">
<title>dir_261c5c8db3e2632ea4bb1b96cd6e78dc&#45;&gt;dir_9d7cbcd390d83bb8092815502b9393e2</title>
<g id="a_edge8"><a xlink:href="dir_000005_000014.html" target="_top">
<path fill="none" stroke="#63b8ff" d="M336,-184.08C336,-177.48 336,-168.21 336,-159.79"/>
<polygon fill="#63b8ff" stroke="#63b8ff" points="339.5,-159.99 336,-149.99 332.5,-159.99 339.5,-159.99"/>
</a>
</g>
<g id="a_edge8&#45;headlabel"><a xlink:href="dir_000005_000014.html" target="_top" xlink:title="1">
<text text-anchor="middle" x="342.34" y="-158.57" font-family="Helvetica,sans-Serif" font-size="10.00" fill="#63b8ff">1</text>
</a>
</g>
</g>
<!-- dir_dc3bc99bc501644e197c4d2698e0fc8f -->
<g id="node10" class="node">
<title>dir_dc3bc99bc501644e197c4d2698e0fc8f</title>
<g id="a_node10"><a xlink:href="dir_dc3bc99bc501644e197c4d2698e0fc8f.html" target="_top" xlink:title="invite">
<polygon fill="#a2b4d6" stroke="#404040" points="416.62,-148 377.38,-148 377.38,-128 416.62,-128 416.62,-148"/>
<text text-anchor="middle" x="397" y="-134.5" font-family="Helvetica,sans-Serif" font-size="10.00">invite</text>
</a>
</g>
</g>
<!-- dir_261c5c8db3e2632ea4bb1b96cd6e78dc&#45;&gt;dir_dc3bc99bc501644e197c4d2698e0fc8f -->
<g id="edge14" class="edge">
<title>dir_261c5c8db3e2632ea4bb1b96cd6e78dc&#45;&gt;dir_dc3bc99bc501644e197c4d2698e0fc8f</title>
<g id="a_edge14"><a xlink:href="dir_000005_000018.html" target="_top">
<path fill="none" stroke="#63b8ff" d="M346.07,-184.08C354.66,-176.48 367.24,-165.35 377.75,-156.04"/>
<polygon fill="#63b8ff" stroke="#63b8ff" points="380,-158.73 385.16,-149.48 375.36,-153.49 380,-158.73"/>
</a>
</g>
<g id="a_edge14&#45;headlabel"><a xlink:href="dir_000005_000018.html" target="_top" xlink:title="1">
<text text-anchor="middle" x="380.32" y="-158.73" font-family="Helvetica,sans-Serif" font-size="10.00" fill="#63b8ff">1</text>
</a>
</g>
</g>
<!-- dir_95760a557985884d96cc299df0f35c8f -->
<g id="node11" class="node">
<title>dir_95760a557985884d96cc299df0f35c8f</title>
<g id="a_node11"><a xlink:href="dir_95760a557985884d96cc299df0f35c8f.html" target="_top" xlink:title="learn_cpp">
<polygon fill="#a2b4d6" stroke="#404040" points="493,-148 435,-148 435,-128 493,-128 493,-148"/>
<text text-anchor="middle" x="464" y="-134.5" font-family="Helvetica,sans-Serif" font-size="10.00">learn_cpp</text>
</a>
</g>
</g>
<!-- dir_261c5c8db3e2632ea4bb1b96cd6e78dc&#45;&gt;dir_95760a557985884d96cc299df0f35c8f -->
<g id="edge7" class="edge">
<title>dir_261c5c8db3e2632ea4bb1b96cd6e78dc&#45;&gt;dir_95760a557985884d96cc299df0f35c8f</title>
<g id="a_edge7"><a xlink:href="dir_000005_000019.html" target="_top">
<path fill="none" stroke="#63b8ff" d="M357.14,-184.08C377.24,-175.6 407.79,-162.71 431.09,-152.88"/>
<polygon fill="#63b8ff" stroke="#63b8ff" points="432.29,-156.18 440.14,-149.06 429.57,-149.73 432.29,-156.18"/>
</a>
</g>
<g id="a_edge7&#45;headlabel"><a xlink:href="dir_000005_000019.html" target="_top" xlink:title="1">
<text text-anchor="middle" x="431.48" y="-156.1" font-family="Helvetica,sans-Serif" font-size="10.00" fill="#63b8ff">1</text>
</a>
</g>
</g>
<!-- dir_7cc000a715c59c08d2b57e79abb2c661 -->
<g id="node13" class="node">
<title>dir_7cc000a715c59c08d2b57e79abb2c661</title>
<g id="a_node13"><a xlink:href="dir_7cc000a715c59c08d2b57e79abb2c661.html" target="_top" xlink:title="portal">
<polygon fill="#a2b4d6" stroke="#404040" points="551,-148 511,-148 511,-128 551,-128 551,-148"/>
<text text-anchor="middle" x="531" y="-134.5" font-family="Helvetica,sans-Serif" font-size="10.00">portal</text>
</a>
</g>
</g>
<!-- dir_261c5c8db3e2632ea4bb1b96cd6e78dc&#45;&gt;dir_7cc000a715c59c08d2b57e79abb2c661 -->
<g id="edge6" class="edge">
<title>dir_261c5c8db3e2632ea4bb1b96cd6e78dc&#45;&gt;dir_7cc000a715c59c08d2b57e79abb2c661</title>
<g id="a_edge6"><a xlink:href="dir_000005_000021.html" target="_top">
<path fill="none" stroke="#63b8ff" d="M367.92,-184.71C399.19,-176.52 448.45,-163.39 499.77,-148.57"/>
<polygon fill="#63b8ff" stroke="#63b8ff" points="500.67,-151.96 509.29,-145.81 498.71,-145.24 500.67,-151.96"/>
</a>
</g>
<g id="a_edge6&#45;headlabel"><a xlink:href="dir_000005_000021.html" target="_top" xlink:title="10">
<text text-anchor="middle" x="499.46" y="-151.77" font-family="Helvetica,sans-Serif" font-size="10.00" fill="#63b8ff">10</text>
</a>
</g>
</g>
<!-- dir_3f526b2c6f77046a2bd3d6f486c710c8 -->
<g id="node14" class="node">
<title>dir_3f526b2c6f77046a2bd3d6f486c710c8</title>
<g id="a_node14"><a xlink:href="dir_3f526b2c6f77046a2bd3d6f486c710c8.html" target="_top" xlink:title="profile">
<polygon fill="#a2b4d6" stroke="#404040" points="247.12,-148 204.88,-148 204.88,-128 247.12,-128 247.12,-148"/>
<text text-anchor="middle" x="226" y="-134.5" font-family="Helvetica,sans-Serif" font-size="10.00">profile</text>
</a>
</g>
</g>
<!-- dir_261c5c8db3e2632ea4bb1b96cd6e78dc&#45;&gt;dir_3f526b2c6f77046a2bd3d6f486c710c8 -->
<g id="edge3" class="edge">
<title>dir_261c5c8db3e2632ea4bb1b96cd6e78dc&#45;&gt;dir_3f526b2c6f77046a2bd3d6f486c710c8</title>
<g id="a_edge3"><a xlink:href="dir_000005_000022.html" target="_top">
<path fill="none" stroke="#63b8ff" d="M317.84,-184.08C300.87,-175.75 275.25,-163.18 255.38,-153.42"/>
<polygon fill="#63b8ff" stroke="#63b8ff" points="257.18,-150.41 246.66,-149.14 254.1,-156.69 257.18,-150.41"/>
</a>
</g>
<g id="a_edge3&#45;headlabel"><a xlink:href="dir_000005_000022.html" target="_top" xlink:title="1">
<text text-anchor="middle" x="260.3" y="-145.28" font-family="Helvetica,sans-Serif" font-size="10.00" fill="#63b8ff">1</text>
</a>
</g>
</g>
<!-- dir_55709f21cee890691a392e71066e61b8 -->
<g id="node15" class="node">
<title>dir_55709f21cee890691a392e71066e61b8</title>
<g id="a_node15"><a xlink:href="dir_55709f21cee890691a392e71066e61b8.html" target="_top" xlink:title="reaction_roles">
<polygon fill="#a2b4d6" stroke="#404040" points="197.38,-92 120.62,-92 120.62,-72 197.38,-72 197.38,-92"/>
<text text-anchor="middle" x="159" y="-78.5" font-family="Helvetica,sans-Serif" font-size="10.00">reaction_roles</text>
</a>
</g>
</g>
<!-- dir_261c5c8db3e2632ea4bb1b96cd6e78dc&#45;&gt;dir_55709f21cee890691a392e71066e61b8 -->
<g id="edge5" class="edge">
<title>dir_261c5c8db3e2632ea4bb1b96cd6e78dc&#45;&gt;dir_55709f21cee890691a392e71066e61b8</title>
<g id="a_edge5"><a xlink:href="dir_000005_000023.html" target="_top">
<path fill="none" stroke="#63b8ff" d="M304.18,-190.4C254.02,-185.58 160.17,-173.33 140,-148 129.49,-134.81 136.73,-115.99 145.12,-102"/>
<polygon fill="#63b8ff" stroke="#63b8ff" points="148.03,-103.94 150.65,-93.67 142.2,-100.06 148.03,-103.94"/>
</a>
</g>
<g id="a_edge5&#45;headlabel"><a xlink:href="dir_000005_000023.html" target="_top" xlink:title="2">
<text text-anchor="middle" x="149.25" y="-103.74" font-family="Helvetica,sans-Serif" font-size="10.00" fill="#63b8ff">2</text>
</a>
</g>
</g>
<!-- dir_4664096a0ece9a7aba46a7b7bb421972 -->
<g id="node16" class="node">
<title>dir_4664096a0ece9a7aba46a7b7bb421972</title>
<g id="a_node16"><a xlink:href="dir_4664096a0ece9a7aba46a7b7bb421972.html" target="_top" xlink:title="resources">
<polygon fill="#a2b4d6" stroke="#404040" points="627.38,-148 568.62,-148 568.62,-128 627.38,-128 627.38,-148"/>
<text text-anchor="middle" x="598" y="-134.5" font-family="Helvetica,sans-Serif" font-size="10.00">resources</text>
</a>
</g>
</g>
<!-- dir_261c5c8db3e2632ea4bb1b96cd6e78dc&#45;&gt;dir_4664096a0ece9a7aba46a7b7bb421972 -->
<g id="edge4" class="edge">
<title>dir_261c5c8db3e2632ea4bb1b96cd6e78dc&#45;&gt;dir_4664096a0ece9a7aba46a7b7bb421972</title>
<g id="a_edge4"><a xlink:href="dir_000005_000027.html" target="_top">
<path fill="none" stroke="#63b8ff" d="M367.97,-186.93C409.38,-179 484.05,-164.44 556.94,-148.62"/>
<polygon fill="#63b8ff" stroke="#63b8ff" points="557.65,-152.05 566.67,-146.49 556.16,-145.21 557.65,-152.05"/>
</a>
</g>
<g id="a_edge4&#45;headlabel"><a xlink:href="dir_000005_000027.html" target="_top" xlink:title="2">
<text text-anchor="middle" x="556.22" y="-151.76" font-family="Helvetica,sans-Serif" font-size="10.00" fill="#63b8ff">2</text>
</a>
</g>
</g>
<!-- dir_01a9593c77408e73511ed5f78e4e0ebc -->
<g id="node17" class="node">
<title>dir_01a9593c77408e73511ed5f78e4e0ebc</title>
<g id="a_node17"><a xlink:href="dir_01a9593c77408e73511ed5f78e4e0ebc.html" target="_top" xlink:title="roll">
<polygon fill="#a2b4d6" stroke="#404040" points="294.4,-148 265.6,-148 265.6,-128 294.4,-128 294.4,-148"/>
<text text-anchor="middle" x="280" y="-134.5" font-family="Helvetica,sans-Serif" font-size="10.00">roll</text>
</a>
</g>
</g>
<!-- dir_261c5c8db3e2632ea4bb1b96cd6e78dc&#45;&gt;dir_01a9593c77408e73511ed5f78e4e0ebc -->
<g id="edge1" class="edge">
<title>dir_261c5c8db3e2632ea4bb1b96cd6e78dc&#45;&gt;dir_01a9593c77408e73511ed5f78e4e0ebc</title>
<g id="a_edge1"><a xlink:href="dir_000005_000028.html" target="_top">
<path fill="none" stroke="#63b8ff" d="M326.75,-184.08C318.95,-176.56 307.56,-165.57 297.97,-156.33"/>
<polygon fill="#63b8ff" stroke="#63b8ff" points="300.54,-153.95 290.92,-149.53 295.69,-158.99 300.54,-153.95"/>
</a>
</g>
<g id="a_edge1&#45;headlabel"><a xlink:href="dir_000005_000028.html" target="_top" xlink:title="1">
<text text-anchor="middle" x="304.01" y="-149.85" font-family="Helvetica,sans-Serif" font-size="10.00" fill="#63b8ff">1</text>
</a>
</g>
</g>
<!-- dir_25fa05427a0fbbf83099686a4dfd3c98 -->
<g id="node18" class="node">
<title>dir_25fa05427a0fbbf83099686a4dfd3c98</title>
<g id="a_node18"><a xlink:href="dir_25fa05427a0fbbf83099686a4dfd3c98.html" target="_top" xlink:title="server_details">
<polygon fill="#a2b4d6" stroke="#404040" points="722.38,-148 645.62,-148 645.62,-128 722.38,-128 722.38,-148"/>
<text text-anchor="middle" x="684" y="-134.5" font-family="Helvetica,sans-Serif" font-size="10.00">server_details</text>
</a>
</g>
</g>
<!-- dir_261c5c8db3e2632ea4bb1b96cd6e78dc&#45;&gt;dir_25fa05427a0fbbf83099686a4dfd3c98 -->
<g id="edge2" class="edge">
<title>dir_261c5c8db3e2632ea4bb1b96cd6e78dc&#45;&gt;dir_25fa05427a0fbbf83099686a4dfd3c98</title>
<g id="a_edge2"><a xlink:href="dir_000005_000029.html" target="_top">
<path fill="none" stroke="#63b8ff" d="M367.59,-188.65C420.42,-181.29 530.28,-165.62 633.95,-148.29"/>
<polygon fill="#63b8ff" stroke="#63b8ff" points="634.48,-151.75 643.76,-146.64 633.31,-144.85 634.48,-151.75"/>
</a>
</g>
<g id="a_edge2&#45;headlabel"><a xlink:href="dir_000005_000029.html" target="_top" xlink:title="1">
<text text-anchor="middle" x="632.89" y="-151.4" font-family="Helvetica,sans-Serif" font-size="10.00" fill="#63b8ff">1</text>
</a>
</g>
</g>
<!-- dir_cc7ce3d766bf0a0ad188e6b0650c2ecf -->
<g id="node19" class="node">
<title>dir_cc7ce3d766bf0a0ad188e6b0650c2ecf</title>
<g id="a_node19"><a xlink:href="dir_cc7ce3d766bf0a0ad188e6b0650c2ecf.html" target="_top" xlink:title="set_status">
<polygon fill="#a2b4d6" stroke="#404040" points="801.88,-148 740.12,-148 740.12,-128 801.88,-128 801.88,-148"/>
<text text-anchor="middle" x="771" y="-134.5" font-family="Helvetica,sans-Serif" font-size="10.00">set_status</text>
</a>
</g>
</g>
<!-- dir_261c5c8db3e2632ea4bb1b96cd6e78dc&#45;&gt;dir_cc7ce3d766bf0a0ad188e6b0650c2ecf -->
<g id="edge11" class="edge">
<title>dir_261c5c8db3e2632ea4bb1b96cd6e78dc&#45;&gt;dir_cc7ce3d766bf0a0ad188e6b0650c2ecf</title>
<g id="a_edge11"><a xlink:href="dir_000005_000030.html" target="_top">
<path fill="none" stroke="#63b8ff" d="M367.91,-190.54C433.58,-185.23 588.78,-171.38 729.12,-148.14"/>
<polygon fill="#63b8ff" stroke="#63b8ff" points="729.28,-151.67 738.56,-146.56 728.12,-144.76 729.28,-151.67"/>
</a>
</g>
<g id="a_edge11&#45;headlabel"><a xlink:href="dir_000005_000030.html" target="_top" xlink:title="1">
<text text-anchor="middle" x="727.7" y="-151.31" font-family="Helvetica,sans-Serif" font-size="10.00" fill="#63b8ff">1</text>
</a>
</g>
</g>
<!-- dir_adcd489d00d8ca37449f57b9cfd13f65&#45;&gt;dir_cac0b191d0d7d0dd67d730930ce5fa13 -->
<g id="edge16" class="edge">
<title>dir_adcd489d00d8ca37449f57b9cfd13f65&#45;&gt;dir_cac0b191d0d7d0dd67d730930ce5fa13</title>
<g id="a_edge16"><a xlink:href="dir_000002_000000.html" target="_top">
<path fill="none" stroke="#63b8ff" d="M286.36,-71.51C293.38,-69.02 300.96,-66.38 308,-64 338.6,-53.66 373.99,-42.37 397.34,-35.02"/>
<polygon fill="#63b8ff" stroke="#63b8ff" points="398.13,-38.44 406.62,-32.11 396.03,-31.76 398.13,-38.44"/>
</a>
</g>
<g id="a_edge16&#45;headlabel"><a xlink:href="dir_000002_000000.html" target="_top" xlink:title="13">
<text text-anchor="middle" x="397" y="-38.27" font-family="Helvetica,sans-Serif" font-size="10.00" fill="#63b8ff">13</text>
</a>
</g>
</g>
<!-- dir_c51bb8760eda2ecf5deaef23809ed440&#45;&gt;dir_cac0b191d0d7d0dd67d730930ce5fa13 -->
<g id="edge17" class="edge">
<title>dir_c51bb8760eda2ecf5deaef23809ed440&#45;&gt;dir_cac0b191d0d7d0dd67d730930ce5fa13</title>
<g id="a_edge17"><a xlink:href="dir_000003_000000.html" target="_top">
<path fill="none" stroke="#63b8ff" d="M86.87,-71.56C94.77,-68.75 103.66,-65.92 112,-64 215.73,-40.13 342.66,-31.13 396.67,-28.22"/>
<polygon fill="#63b8ff" stroke="#63b8ff" points="396.59,-31.73 406.4,-27.72 396.24,-24.73 396.59,-31.73"/>
</a>
</g>
<g id="a_edge17&#45;headlabel"><a xlink:href="dir_000003_000000.html" target="_top" xlink:title="8">
<text text-anchor="middle" x="394.66" y="-31.17" font-family="Helvetica,sans-Serif" font-size="10.00" fill="#63b8ff">8</text>
</a>
</g>
</g>
<!-- dir_e071329bb2fc8ace303f4ccc165742ca&#45;&gt;dir_cac0b191d0d7d0dd67d730930ce5fa13 -->
<g id="edge20" class="edge">
<title>dir_e071329bb2fc8ace303f4ccc165742ca&#45;&gt;dir_cac0b191d0d7d0dd67d730930ce5fa13</title>
<g id="a_edge20"><a xlink:href="dir_000004_000000.html" target="_top">
<path fill="none" stroke="#63b8ff" d="M99.98,-133.16C159.76,-124.76 295.91,-104.51 313,-92 324.39,-83.66 317.43,-73.36 328,-64 347.49,-46.73 375.95,-37.09 396.64,-32.01"/>
<polygon fill="#63b8ff" stroke="#63b8ff" points="397.32,-35.45 406.32,-29.86 395.8,-28.61 397.32,-35.45"/>
</a>
</g>
<g id="a_edge20&#45;headlabel"><a xlink:href="dir_000004_000000.html" target="_top" xlink:title="1">
<text text-anchor="middle" x="395.9" y="-35.17" font-family="Helvetica,sans-Serif" font-size="10.00" fill="#63b8ff">1</text>
</a>
</g>
</g>
<!-- dir_e071329bb2fc8ace303f4ccc165742ca&#45;&gt;dir_c51bb8760eda2ecf5deaef23809ed440 -->
<g id="edge19" class="edge">
<title>dir_e071329bb2fc8ace303f4ccc165742ca&#45;&gt;dir_c51bb8760eda2ecf5deaef23809ed440</title>
<g id="a_edge19"><a xlink:href="dir_000004_000003.html" target="_top">
<path fill="none" stroke="#63b8ff" d="M70.43,-127.59C69.32,-120.93 67.79,-111.75 66.41,-103.44"/>
<polygon fill="#63b8ff" stroke="#63b8ff" points="69.89,-103.08 64.8,-93.79 62.99,-104.23 69.89,-103.08"/>
</a>
</g>
<g id="a_edge19&#45;headlabel"><a xlink:href="dir_000004_000003.html" target="_top" xlink:title="1">
<text text-anchor="middle" x="73.04" y="-101.17" font-family="Helvetica,sans-Serif" font-size="10.00" fill="#63b8ff">1</text>
</a>
</g>
</g>
<!-- dir_e071329bb2fc8ace303f4ccc165742ca&#45;&gt;dir_55709f21cee890691a392e71066e61b8 -->
<g id="edge18" class="edge">
<title>dir_e071329bb2fc8ace303f4ccc165742ca&#45;&gt;dir_55709f21cee890691a392e71066e61b8</title>
<g id="a_edge18"><a xlink:href="dir_000004_000023.html" target="_top">
<path fill="none" stroke="#63b8ff" d="M87.15,-127.59C100.05,-119.59 118.83,-107.93 133.96,-98.54"/>
<polygon fill="#63b8ff" stroke="#63b8ff" points="135.79,-101.53 142.44,-93.28 132.1,-95.58 135.79,-101.53"/>
</a>
</g>
<g id="a_edge18&#45;headlabel"><a xlink:href="dir_000004_000023.html" target="_top" xlink:title="1">
<text text-anchor="middle" x="135.52" y="-101.53" font-family="Helvetica,sans-Serif" font-size="10.00" fill="#63b8ff">1</text>
</a>
</g>
</g>
<!-- dir_d44c2f9991353a7b899d805b4059ed96&#45;&gt;dir_cac0b191d0d7d0dd67d730930ce5fa13 -->
<g id="edge22" class="edge">
<title>dir_d44c2f9991353a7b899d805b4059ed96&#45;&gt;dir_cac0b191d0d7d0dd67d730930ce5fa13</title>
<g id="a_edge22"><a xlink:href="dir_000008_000000.html" target="_top">
<path fill="none" stroke="#63b8ff" d="M186.65,-131.26C189.72,-130.13 192.95,-128.99 196,-128 253.86,-109.3 278.1,-126.76 328,-92 340.55,-83.26 336.35,-73.9 348,-64 362.6,-51.59 382.08,-42.14 397.53,-35.9"/>
<polygon fill="#63b8ff" stroke="#63b8ff" points="398.43,-39.3 406.52,-32.47 395.93,-32.77 398.43,-39.3"/>
</a>
</g>
<g id="a_edge22&#45;headlabel"><a xlink:href="dir_000008_000000.html" target="_top" xlink:title="1">
<text text-anchor="middle" x="397.5" y="-39.2" font-family="Helvetica,sans-Serif" font-size="10.00" fill="#63b8ff">1</text>
</a>
</g>
</g>
<!-- dir_d44c2f9991353a7b899d805b4059ed96&#45;&gt;dir_adcd489d00d8ca37449f57b9cfd13f65 -->
<g id="edge21" class="edge">
<title>dir_d44c2f9991353a7b899d805b4059ed96&#45;&gt;dir_adcd489d00d8ca37449f57b9cfd13f65</title>
<g id="a_edge21"><a xlink:href="dir_000008_000002.html" target="_top">
<path fill="none" stroke="#63b8ff" d="M186.53,-128.08C199.67,-120.02 219.29,-107.98 234.95,-98.37"/>
<polygon fill="#63b8ff" stroke="#63b8ff" points="236.58,-101.48 243.27,-93.27 232.91,-95.51 236.58,-101.48"/>
</a>
</g>
<g id="a_edge21&#45;headlabel"><a xlink:href="dir_000008_000002.html" target="_top" xlink:title="2">
<text text-anchor="middle" x="236.29" y="-101.49" font-family="Helvetica,sans-Serif" font-size="10.00" fill="#63b8ff">2</text>
</a>
</g>
</g>
<!-- dir_dc1cac501bd439d519324f1df382cae1&#45;&gt;dir_cac0b191d0d7d0dd67d730930ce5fa13 -->
<g id="edge23" class="edge">
<title>dir_dc1cac501bd439d519324f1df382cae1&#45;&gt;dir_cac0b191d0d7d0dd67d730930ce5fa13</title>
<g id="a_edge23"><a xlink:href="dir_000009_000000.html" target="_top">
<path fill="none" stroke="#63b8ff" d="M819.69,-130.9C816.8,-129.91 813.82,-128.91 811,-128 716.94,-97.6 693.77,-88.47 598,-64 545.52,-50.59 483.31,-38.28 448.99,-31.79"/>
<polygon fill="#63b8ff" stroke="#63b8ff" points="450.04,-28.43 439.57,-30.03 448.75,-35.31 450.04,-28.43"/>
</a>
</g>
<g id="a_edge23&#45;headlabel"><a xlink:href="dir_000009_000000.html" target="_top" xlink:title="1">
<text text-anchor="middle" x="452.61" y="-22.52" font-family="Helvetica,sans-Serif" font-size="10.00" fill="#63b8ff">1</text>
</a>
</g>
</g>
<!-- dir_9d7cbcd390d83bb8092815502b9393e2&#45;&gt;dir_cac0b191d0d7d0dd67d730930ce5fa13 -->
<g id="edge24" class="edge">
<title>dir_9d7cbcd390d83bb8092815502b9393e2&#45;&gt;dir_cac0b191d0d7d0dd67d730930ce5fa13</title>
<g id="a_edge24"><a xlink:href="dir_000014_000000.html" target="_top">
<path fill="none" stroke="#63b8ff" d="M349.15,-127.76C360.45,-119.37 376.65,-106.16 388,-92 399.04,-78.23 408.32,-60.47 414.55,-47"/>
<polygon fill="#63b8ff" stroke="#63b8ff" points="417.75,-48.41 418.59,-37.85 411.35,-45.58 417.75,-48.41"/>
</a>
</g>
<g id="a_edge24&#45;headlabel"><a xlink:href="dir_000014_000000.html" target="_top" xlink:title="1">
<text text-anchor="middle" x="419.51" y="-47.96" font-family="Helvetica,sans-Serif" font-size="10.00" fill="#63b8ff">1</text>
</a>
</g>
</g>
<!-- dir_4bf8f6c3c349d2a29524f93c7ce04644 -->
<g id="node9" class="node">
<title>dir_4bf8f6c3c349d2a29524f93c7ce04644</title>
<g id="a_node9"><a xlink:href="dir_4bf8f6c3c349d2a29524f93c7ce04644.html" target="_top" xlink:title="init_database">
<polygon fill="#a2b4d6" stroke="#404040" points="771.88,-204 698.12,-204 698.12,-184 771.88,-184 771.88,-204"/>
<text text-anchor="middle" x="735" y="-190.5" font-family="Helvetica,sans-Serif" font-size="10.00">init_database</text>
</a>
</g>
</g>
<!-- dir_4bf8f6c3c349d2a29524f93c7ce04644&#45;&gt;dir_cac0b191d0d7d0dd67d730930ce5fa13 -->
<g id="edge25" class="edge">
<title>dir_4bf8f6c3c349d2a29524f93c7ce04644&#45;&gt;dir_cac0b191d0d7d0dd67d730930ce5fa13</title>
<g id="a_edge25"><a xlink:href="dir_000016_000000.html" target="_top">
<path fill="none" stroke="#63b8ff" d="M772.18,-184.94C806.01,-176.77 852.24,-163.18 863,-148 868.14,-140.75 868.29,-135.14 863,-128 812.87,-60.32 536.77,-35.09 449.47,-28.74"/>
<polygon fill="#63b8ff" stroke="#63b8ff" points="449.74,-25.25 439.52,-28.04 449.25,-32.23 449.74,-25.25"/>
</a>
</g>
<g id="a_edge25&#45;headlabel"><a xlink:href="dir_000016_000000.html" target="_top" xlink:title="1">
<text text-anchor="middle" x="452.01" y="-19.06" font-family="Helvetica,sans-Serif" font-size="10.00" fill="#63b8ff">1</text>
</a>
</g>
</g>
<!-- dir_dc3bc99bc501644e197c4d2698e0fc8f&#45;&gt;dir_cac0b191d0d7d0dd67d730930ce5fa13 -->
<g id="edge26" class="edge">
<title>dir_dc3bc99bc501644e197c4d2698e0fc8f&#45;&gt;dir_cac0b191d0d7d0dd67d730930ce5fa13</title>
<g id="a_edge26"><a xlink:href="dir_000018_000000.html" target="_top">
<path fill="none" stroke="#63b8ff" d="M399.31,-127.7C401.56,-118.61 405.06,-104.36 408,-92 411.57,-76.97 415.49,-59.96 418.43,-47.11"/>
<polygon fill="#63b8ff" stroke="#63b8ff" points="421.76,-48.27 420.57,-37.74 414.93,-46.71 421.76,-48.27"/>
</a>
</g>
<g id="a_edge26&#45;headlabel"><a xlink:href="dir_000018_000000.html" target="_top" xlink:title="1">
<text text-anchor="middle" x="424.06" y="-47.43" font-family="Helvetica,sans-Serif" font-size="10.00" fill="#63b8ff">1</text>
</a>
</g>
</g>
<!-- dir_95760a557985884d96cc299df0f35c8f&#45;&gt;dir_cac0b191d0d7d0dd67d730930ce5fa13 -->
<g id="edge27" class="edge">
<title>dir_95760a557985884d96cc299df0f35c8f&#45;&gt;dir_cac0b191d0d7d0dd67d730930ce5fa13</title>
<g id="a_edge27"><a xlink:href="dir_000019_000000.html" target="_top">
<path fill="none" stroke="#63b8ff" d="M460.5,-127.62C453.88,-109.84 439.36,-70.88 430.45,-47"/>
<polygon fill="#63b8ff" stroke="#63b8ff" points="433.79,-45.92 427.02,-37.77 427.23,-48.37 433.79,-45.92"/>
</a>
</g>
<g id="a_edge27&#45;headlabel"><a xlink:href="dir_000019_000000.html" target="_top" xlink:title="1">
<text text-anchor="middle" x="437.17" y="-43.38" font-family="Helvetica,sans-Serif" font-size="10.00" fill="#63b8ff">1</text>
</a>
</g>
</g>
<!-- dir_8ebd00c358f56a5acdf11c21d1bdff17 -->
<g id="node12" class="node">
<title>dir_8ebd00c358f56a5acdf11c21d1bdff17</title>
<g id="a_node12"><a xlink:href="dir_8ebd00c358f56a5acdf11c21d1bdff17.html" target="_top" xlink:title="notification">
<polygon fill="#a2b4d6" stroke="#404040" points="853.62,-204 790.38,-204 790.38,-184 853.62,-184 853.62,-204"/>
<text text-anchor="middle" x="822" y="-190.5" font-family="Helvetica,sans-Serif" font-size="10.00">notification</text>
</a>
</g>
</g>
<!-- dir_8ebd00c358f56a5acdf11c21d1bdff17&#45;&gt;dir_cac0b191d0d7d0dd67d730930ce5fa13 -->
<g id="edge28" class="edge">
<title>dir_8ebd00c358f56a5acdf11c21d1bdff17&#45;&gt;dir_cac0b191d0d7d0dd67d730930ce5fa13</title>
<g id="a_edge28"><a xlink:href="dir_000020_000000.html" target="_top">
<path fill="none" stroke="#63b8ff" d="M837.58,-183.62C855.73,-171.44 881.79,-149.21 870,-128 843.81,-80.9 817.96,-81.54 767,-64 708.2,-43.76 519.46,-32.05 449.46,-28.32"/>
<polygon fill="#63b8ff" stroke="#63b8ff" points="449.86,-24.84 439.7,-27.81 449.5,-31.83 449.86,-24.84"/>
</a>
</g>
<g id="a_edge28&#45;headlabel"><a xlink:href="dir_000020_000000.html" target="_top" xlink:title="8">
<text text-anchor="middle" x="452.09" y="-18.61" font-family="Helvetica,sans-Serif" font-size="10.00" fill="#63b8ff">8</text>
</a>
</g>
</g>
<!-- dir_7cc000a715c59c08d2b57e79abb2c661&#45;&gt;dir_cac0b191d0d7d0dd67d730930ce5fa13 -->
<g id="edge29" class="edge">
<title>dir_7cc000a715c59c08d2b57e79abb2c661&#45;&gt;dir_cac0b191d0d7d0dd67d730930ce5fa13</title>
<g id="a_edge29"><a xlink:href="dir_000021_000000.html" target="_top">
<path fill="none" stroke="#63b8ff" d="M521.79,-127.62C503.7,-109.19 463.26,-68.01 440.12,-44.44"/>
<polygon fill="#63b8ff" stroke="#63b8ff" points="442.75,-42.12 433.25,-37.43 437.75,-47.02 442.75,-42.12"/>
</a>
</g>
<g id="a_edge29&#45;headlabel"><a xlink:href="dir_000021_000000.html" target="_top" xlink:title="17">
<text text-anchor="middle" x="446.23" y="-38.11" font-family="Helvetica,sans-Serif" font-size="10.00" fill="#63b8ff">17</text>
</a>
</g>
</g>
<!-- dir_3f526b2c6f77046a2bd3d6f486c710c8&#45;&gt;dir_cac0b191d0d7d0dd67d730930ce5fa13 -->
<g id="edge31" class="edge">
<title>dir_3f526b2c6f77046a2bd3d6f486c710c8&#45;&gt;dir_cac0b191d0d7d0dd67d730930ce5fa13</title>
<g id="a_edge31"><a xlink:href="dir_000022_000000.html" target="_top">
<path fill="none" stroke="#63b8ff" d="M247.6,-130.72C278.1,-121.57 331.85,-104.33 348,-92 360.16,-82.72 357.04,-74.66 368,-64 376.94,-55.31 388.17,-47.34 398.14,-41.05"/>
<polygon fill="#63b8ff" stroke="#63b8ff" points="399.89,-44.08 406.64,-35.92 396.27,-38.09 399.89,-44.08"/>
</a>
</g>
<g id="a_edge31&#45;headlabel"><a xlink:href="dir_000022_000000.html" target="_top" xlink:title="1">
<text text-anchor="middle" x="399.58" y="-44.09" font-family="Helvetica,sans-Serif" font-size="10.00" fill="#63b8ff">1</text>
</a>
</g>
</g>
<!-- dir_3f526b2c6f77046a2bd3d6f486c710c8&#45;&gt;dir_adcd489d00d8ca37449f57b9cfd13f65 -->
<g id="edge30" class="edge">
<title>dir_3f526b2c6f77046a2bd3d6f486c710c8&#45;&gt;dir_adcd489d00d8ca37449f57b9cfd13f65</title>
<g id="a_edge30"><a xlink:href="dir_000022_000002.html" target="_top">
<path fill="none" stroke="#63b8ff" d="M231.92,-127.59C236.36,-120.55 242.58,-110.67 248.04,-102"/>
<polygon fill="#63b8ff" stroke="#63b8ff" points="250.97,-103.91 253.34,-93.58 245.05,-100.18 250.97,-103.91"/>
</a>
</g>
<g id="a_edge30&#45;headlabel"><a xlink:href="dir_000022_000002.html" target="_top" xlink:title="5">
<text text-anchor="middle" x="252.27" y="-103.68" font-family="Helvetica,sans-Serif" font-size="10.00" fill="#63b8ff">5</text>
</a>
</g>
</g>
<!-- dir_55709f21cee890691a392e71066e61b8&#45;&gt;dir_cac0b191d0d7d0dd67d730930ce5fa13 -->
<g id="edge32" class="edge">
<title>dir_55709f21cee890691a392e71066e61b8&#45;&gt;dir_cac0b191d0d7d0dd67d730930ce5fa13</title>
<g id="a_edge32"><a xlink:href="dir_000023_000000.html" target="_top">
<path fill="none" stroke="#63b8ff" d="M183.17,-71.53C190.72,-68.82 199.13,-66.05 207,-64 274.23,-46.47 355.45,-35.12 396.5,-30.06"/>
<polygon fill="#63b8ff" stroke="#63b8ff" points="396.87,-33.54 406.38,-28.87 396.04,-26.59 396.87,-33.54"/>
</a>
</g>
<g id="a_edge32&#45;headlabel"><a xlink:href="dir_000023_000000.html" target="_top" xlink:title="6">
<text text-anchor="middle" x="395.15" y="-33.11" font-family="Helvetica,sans-Serif" font-size="10.00" fill="#63b8ff">6</text>
</a>
</g>
</g>
<!-- dir_4664096a0ece9a7aba46a7b7bb421972&#45;&gt;dir_cac0b191d0d7d0dd67d730930ce5fa13 -->
<g id="edge33" class="edge">
<title>dir_4664096a0ece9a7aba46a7b7bb421972&#45;&gt;dir_cac0b191d0d7d0dd67d730930ce5fa13</title>
<g id="a_edge33"><a xlink:href="dir_000027_000000.html" target="_top">
<path fill="none" stroke="#63b8ff" d="M583.08,-127.62C552.86,-108.63 484.17,-65.45 447.36,-42.31"/>
<polygon fill="#63b8ff" stroke="#63b8ff" points="449.49,-39.52 439.16,-37.16 445.77,-45.45 449.49,-39.52"/>
</a>
</g>
<g id="a_edge33&#45;headlabel"><a xlink:href="dir_000027_000000.html" target="_top" xlink:title="5">
<text text-anchor="middle" x="452.77" y="-34.72" font-family="Helvetica,sans-Serif" font-size="10.00" fill="#63b8ff">5</text>
</a>
</g>
</g>
<!-- dir_01a9593c77408e73511ed5f78e4e0ebc&#45;&gt;dir_cac0b191d0d7d0dd67d730930ce5fa13 -->
<g id="edge35" class="edge">
<title>dir_01a9593c77408e73511ed5f78e4e0ebc&#45;&gt;dir_cac0b191d0d7d0dd67d730930ce5fa13</title>
<g id="a_edge35"><a xlink:href="dir_000028_000000.html" target="_top">
<path fill="none" stroke="#63b8ff" d="M294.84,-130.45C316.69,-120.64 356.17,-102.2 368,-92 379.58,-82.01 378.28,-75.81 388,-64 393.44,-57.4 399.77,-50.5 405.53,-44.47"/>
<polygon fill="#63b8ff" stroke="#63b8ff" points="407.87,-47.09 412.35,-37.49 402.86,-42.2 407.87,-47.09"/>
</a>
</g>
<g id="a_edge35&#45;headlabel"><a xlink:href="dir_000028_000000.html" target="_top" xlink:title="1">
<text text-anchor="middle" x="408.45" y="-47.06" font-family="Helvetica,sans-Serif" font-size="10.00" fill="#63b8ff">1</text>
</a>
</g>
</g>
<!-- dir_01a9593c77408e73511ed5f78e4e0ebc&#45;&gt;dir_adcd489d00d8ca37449f57b9cfd13f65 -->
<g id="edge34" class="edge">
<title>dir_01a9593c77408e73511ed5f78e4e0ebc&#45;&gt;dir_adcd489d00d8ca37449f57b9cfd13f65</title>
<g id="a_edge34"><a xlink:href="dir_000028_000002.html" target="_top">
<path fill="none" stroke="#63b8ff" d="M276.52,-127.59C273.99,-120.78 270.49,-111.32 267.36,-102.86"/>
<polygon fill="#63b8ff" stroke="#63b8ff" points="270.72,-101.88 263.97,-93.72 264.16,-104.31 270.72,-101.88"/>
</a>
</g>
<g id="a_edge34&#45;headlabel"><a xlink:href="dir_000028_000002.html" target="_top" xlink:title="2">
<text text-anchor="middle" x="274.11" y="-99.34" font-family="Helvetica,sans-Serif" font-size="10.00" fill="#63b8ff">2</text>
</a>
</g>
</g>
<!-- dir_25fa05427a0fbbf83099686a4dfd3c98&#45;&gt;dir_cac0b191d0d7d0dd67d730930ce5fa13 -->
<g id="edge36" class="edge">
<title>dir_25fa05427a0fbbf83099686a4dfd3c98&#45;&gt;dir_cac0b191d0d7d0dd67d730930ce5fa13</title>
<g id="a_edge36"><a xlink:href="dir_000029_000000.html" target="_top">
<path fill="none" stroke="#63b8ff" d="M661.75,-127.62C613.5,-107.29 499.5,-59.24 448.47,-37.73"/>
<polygon fill="#63b8ff" stroke="#63b8ff" points="450,-34.58 439.42,-33.92 447.28,-41.03 450,-34.58"/>
</a>
</g>
<g id="a_edge36&#45;headlabel"><a xlink:href="dir_000029_000000.html" target="_top" xlink:title="1">
<text text-anchor="middle" x="453.02" y="-29.27" font-family="Helvetica,sans-Serif" font-size="10.00" fill="#63b8ff">1</text>
</a>
</g>
</g>
<!-- dir_cc7ce3d766bf0a0ad188e6b0650c2ecf&#45;&gt;dir_cac0b191d0d7d0dd67d730930ce5fa13 -->
<g id="edge37" class="edge">
<title>dir_cc7ce3d766bf0a0ad188e6b0650c2ecf&#45;&gt;dir_cac0b191d0d7d0dd67d730930ce5fa13</title>
<g id="a_edge37"><a xlink:href="dir_000030_000000.html" target="_top">
<path fill="none" stroke="#63b8ff" d="M743.67,-127.55C702.19,-113.29 620.76,-85.65 551,-64 515.75,-53.06 474.71,-41.38 448.8,-34.14"/>
<polygon fill="#63b8ff" stroke="#63b8ff" points="450.06,-30.86 439.49,-31.55 448.19,-37.6 450.06,-30.86"/>
</a>
</g>
<g id="a_edge37&#45;headlabel"><a xlink:href="dir_000030_000000.html" target="_top" xlink:title="1">
<text text-anchor="middle" x="452.83" y="-25.18" font-family="Helvetica,sans-Serif" font-size="10.00" fill="#63b8ff">1</text>
</a>
</g>
</g>
</g>
</svg>
