<?xml version="1.0" encoding="UTF-8" standalone="no"?>
<!DOCTYPE svg PUBLIC "-//W3C//DTD SVG 1.1//EN"
 "http://www.w3.org/Graphics/SVG/1.1/DTD/svg11.dtd">
<!-- Generated by graphviz version 12.1.2 (0)
 -->
<!-- Title: src/bot_library/commands Pages: 1 -->
<svg width="980pt" height="256pt"
 viewBox="0.00 0.00 980.00 256.00" xmlns="http://www.w3.org/2000/svg" xmlns:xlink="http://www.w3.org/1999/xlink">
<g id="graph0" class="graph" transform="scale(1 1) rotate(0) translate(4 252)">
<title>src/bot_library/commands</title>
<g id="clust1" class="cluster">
<title>clusterdir_be3b34367be430ae387384d9c29f3df4</title>
<g id="a_clust1"><a xlink:href="dir_be3b34367be430ae387384d9c29f3df4.html" target="_top" xlink:title="bot_library">
<polygon fill="#edf0f7" stroke="#7f7f7f" stroke-dasharray="5,2" points="8,-8 8,-240 964,-240 964,-8 8,-8"/>
<text text-anchor="middle" x="486" y="-226.5" font-family="Helvetica,sans-Serif" font-size="10.00">bot_library</text>
</a>
</g>
</g>
<g id="clust2" class="cluster">
<title>clusterdir_261c5c8db3e2632ea4bb1b96cd6e78dc</title>
<g id="a_clust2"><a xlink:href="dir_261c5c8db3e2632ea4bb1b96cd6e78dc.html" target="_top">
<polygon fill="#edf0f7" stroke="#404040" stroke-width="2" points="16,-64 16,-212 944,-212 944,-64 16,-64"/>
</a>
</g>
</g>
<!-- dir_cac0b191d0d7d0dd67d730930ce5fa13 -->
<g id="node1" class="node">
<title>dir_cac0b191d0d7d0dd67d730930ce5fa13</title>
<g id="a_node1"><a xlink:href="dir_cac0b191d0d7d0dd67d730930ce5fa13.html" target="_top" xlink:title="bot">
<polygon fill="#a2b4d6" stroke="red" points="437.75,-36 408.25,-36 408.25,-16 437.75,-16 437.75,-36"/>
<text text-anchor="middle" x="423" y="-22.5" font-family="Helvetica,sans-Serif" font-size="10.00">bot</text>
</a>
</g>
</g>
<!-- dir_261c5c8db3e2632ea4bb1b96cd6e78dc -->
<g id="node2" class="node">
<title>dir_261c5c8db3e2632ea4bb1b96cd6e78dc</title>
<text text-anchor="middle" x="366" y="-190.5" font-family="Helvetica,sans-Serif" font-size="10.00">commands</text>
</g>
<!-- dir_adcd489d00d8ca37449f57b9cfd13f65 -->
<g id="node3" class="node">
<title>dir_adcd489d00d8ca37449f57b9cfd13f65</title>
<g id="a_node3"><a xlink:href="dir_adcd489d00d8ca37449f57b9cfd13f65.html" target="_top" xlink:title="challenge_badge">
<polygon fill="#a2b4d6" stroke="#404040" points="304.38,-92 215.62,-92 215.62,-72 304.38,-72 304.38,-92"/>
<text text-anchor="middle" x="260" y="-78.5" font-family="Helvetica,sans-Serif" font-size="10.00">challenge_badge</text>
</a>
</g>
</g>
<!-- dir_261c5c8db3e2632ea4bb1b96cd6e78dc&#45;&gt;dir_adcd489d00d8ca37449f57b9cfd13f65 -->
<g id="edge10" class="edge">
<title>dir_261c5c8db3e2632ea4bb1b96cd6e78dc&#45;&gt;dir_adcd489d00d8ca37449f57b9cfd13f65</title>
<g id="a_edge10"><a xlink:href="dir_000005_000002.html" target="_top">
<path fill="none" stroke="#63b8ff" d="M334.34,-191.19C279.86,-187.35 172.01,-176.27 149,-148 128.47,-122.78 167.22,-105.22 204.44,-94.76"/>
<polygon fill="#63b8ff" stroke="#63b8ff" points="205.13,-98.2 213.9,-92.26 203.34,-91.44 205.13,-98.2"/>
</a>
</g>
<g id="a_edge10&#45;headlabel"><a xlink:href="dir_000005_000002.html" target="_top" xlink:title="10">
<text text-anchor="middle" x="203.84" y="-97.98" font-family="Helvetica,sans-Serif" font-size="10.00" fill="#63b8ff">10</text>
</a>
</g>
</g>
<!-- dir_c51bb8760eda2ecf5deaef23809ed440 -->
<g id="node4" class="node">
<title>dir_c51bb8760eda2ecf5deaef23809ed440</title>
<g id="a_node4"><a xlink:href="dir_c51bb8760eda2ecf5deaef23809ed440.html" target="_top" xlink:title="challenge_role">
<polygon fill="#a2b4d6" stroke="#404040" points="102.12,-92 23.88,-92 23.88,-72 102.12,-72 102.12,-92"/>
<text text-anchor="middle" x="63" y="-78.5" font-family="Helvetica,sans-Serif" font-size="10.00">challenge_role</text>
</a>
</g>
</g>
<!-- dir_261c5c8db3e2632ea4bb1b96cd6e78dc&#45;&gt;dir_c51bb8760eda2ecf5deaef23809ed440 -->
<g id="edge11" class="edge">
<title>dir_261c5c8db3e2632ea4bb1b96cd6e78dc&#45;&gt;dir_c51bb8760eda2ecf5deaef23809ed440</title>
<g id="a_edge11"><a xlink:href="dir_000005_000003.html" target="_top">
<path fill="none" stroke="#63b8ff" d="M334.11,-193.7C259.03,-194.6 74.55,-192.16 36,-148 24.13,-134.41 34.94,-114.87 46.21,-100.77"/>
<polygon fill="#63b8ff" stroke="#63b8ff" points="48.56,-103.4 52.46,-93.55 43.27,-98.82 48.56,-103.4"/>
</a>
</g>
<g id="a_edge11&#45;headlabel"><a xlink:href="dir_000005_000003.html" target="_top" xlink:title="2">
<text text-anchor="middle" x="49.35" y="-103.33" font-family="Helvetica,sans-Serif" font-size="10.00" fill="#63b8ff">2</text>
</a>
</g>
</g>
<!-- dir_e071329bb2fc8ace303f4ccc165742ca -->
<g id="node5" class="node">
<title>dir_e071329bb2fc8ace303f4ccc165742ca</title>
<g id="a_node5"><a xlink:href="dir_e071329bb2fc8ace303f4ccc165742ca.html" target="_top" xlink:title="clean_up">
<polygon fill="#a2b4d6" stroke="#404040" points="99.5,-148 44.5,-148 44.5,-128 99.5,-128 99.5,-148"/>
<text text-anchor="middle" x="72" y="-134.5" font-family="Helvetica,sans-Serif" font-size="10.00">clean_up</text>
</a>
</g>
</g>
<!-- dir_261c5c8db3e2632ea4bb1b96cd6e78dc&#45;&gt;dir_e071329bb2fc8ace303f4ccc165742ca -->
<g id="edge16" class="edge">
<title>dir_261c5c8db3e2632ea4bb1b96cd6e78dc&#45;&gt;dir_e071329bb2fc8ace303f4ccc165742ca</title>
<g id="a_edge16"><a xlink:href="dir_000005_000004.html" target="_top">
<path fill="none" stroke="#63b8ff" d="M334.11,-187.67C286.22,-179.58 192.93,-163.5 114,-148 113.01,-147.81 112,-147.61 110.99,-147.4"/>
<polygon fill="#63b8ff" stroke="#63b8ff" points="111.97,-144.03 101.47,-145.44 110.56,-150.89 111.97,-144.03"/>
</a>
</g>
<g id="a_edge16&#45;headlabel"><a xlink:href="dir_000005_000004.html" target="_top" xlink:title="1">
<text text-anchor="middle" x="114.58" y="-138.17" font-family="Helvetica,sans-Serif" font-size="10.00" fill="#63b8ff">1</text>
</a>
</g>
</g>
<!-- dir_d44c2f9991353a7b899d805b4059ed96 -->
<g id="node6" class="node">
<title>dir_d44c2f9991353a7b899d805b4059ed96</title>
<g id="a_node6"><a xlink:href="dir_d44c2f9991353a7b899d805b4059ed96.html" target="_top" xlink:title="flip">
<polygon fill="#a2b4d6" stroke="#404040" points="233.4,-148 204.6,-148 204.6,-128 233.4,-128 233.4,-148"/>
<text text-anchor="middle" x="219" y="-134.5" font-family="Helvetica,sans-Serif" font-size="10.00">flip</text>
</a>
</g>
</g>
<!-- dir_261c5c8db3e2632ea4bb1b96cd6e78dc&#45;&gt;dir_d44c2f9991353a7b899d805b4059ed96 -->
<g id="edge13" class="edge">
<title>dir_261c5c8db3e2632ea4bb1b96cd6e78dc&#45;&gt;dir_d44c2f9991353a7b899d805b4059ed96</title>
<g id="a_edge13"><a xlink:href="dir_000005_000008.html" target="_top">
<path fill="none" stroke="#63b8ff" d="M341.47,-184.09C318.67,-175.8 283.5,-162.97 244.31,-148.47"/>
<polygon fill="#63b8ff" stroke="#63b8ff" points="245.73,-145.26 235.14,-145.07 243.3,-151.82 245.73,-145.26"/>
</a>
</g>
<g id="a_edge13&#45;headlabel"><a xlink:href="dir_000005_000008.html" target="_top" xlink:title="1">
<text text-anchor="middle" x="248.67" y="-139.82" font-family="Helvetica,sans-Serif" font-size="10.00" fill="#63b8ff">1</text>
</a>
</g>
</g>
<!-- dir_dc1cac501bd439d519324f1df382cae1 -->
<g id="node7" class="node">
<title>dir_dc1cac501bd439d519324f1df382cae1</title>
<g id="a_node7"><a xlink:href="dir_dc1cac501bd439d519324f1df382cae1.html" target="_top" xlink:title="help">
<polygon fill="#a2b4d6" stroke="#404040" points="936,-148 902,-148 902,-128 936,-128 936,-148"/>
<text text-anchor="middle" x="919" y="-134.5" font-family="Helvetica,sans-Serif" font-size="10.00">help</text>
</a>
</g>
</g>
<!-- dir_261c5c8db3e2632ea4bb1b96cd6e78dc&#45;&gt;dir_dc1cac501bd439d519324f1df382cae1 -->
<g id="edge14" class="edge">
<title>dir_261c5c8db3e2632ea4bb1b96cd6e78dc&#45;&gt;dir_dc1cac501bd439d519324f1df382cae1</title>
<g id="a_edge14"><a xlink:href="dir_000005_000009.html" target="_top">
<path fill="none" stroke="#63b8ff" d="M397.88,-193.01C479.01,-192.47 699.79,-187.39 890.48,-148.03"/>
<polygon fill="#63b8ff" stroke="#63b8ff" points="891,-151.5 900.06,-146.01 889.56,-144.65 891,-151.5"/>
</a>
</g>
<g id="a_edge14&#45;headlabel"><a xlink:href="dir_000005_000009.html" target="_top" xlink:title="1">
<text text-anchor="middle" x="889.55" y="-151.21" font-family="Helvetica,sans-Serif" font-size="10.00" fill="#63b8ff">1</text>
</a>
</g>
</g>
<!-- dir_9d7cbcd390d83bb8092815502b9393e2 -->
<g id="node8" class="node">
<title>dir_9d7cbcd390d83bb8092815502b9393e2</title>
<g id="a_node8"><a xlink:href="dir_9d7cbcd390d83bb8092815502b9393e2.html" target="_top" xlink:title="include">
<polygon fill="#a2b4d6" stroke="#404040" points="359.38,-148 312.62,-148 312.62,-128 359.38,-128 359.38,-148"/>
<text text-anchor="middle" x="336" y="-134.5" font-family="Helvetica,sans-Serif" font-size="10.00">include</text>
</a>
</g>
</g>
<!-- dir_261c5c8db3e2632ea4bb1b96cd6e78dc&#45;&gt;dir_9d7cbcd390d83bb8092815502b9393e2 -->
<g id="edge9" class="edge">
<title>dir_261c5c8db3e2632ea4bb1b96cd6e78dc&#45;&gt;dir_9d7cbcd390d83bb8092815502b9393e2</title>
<g id="a_edge9"><a xlink:href="dir_000005_000014.html" target="_top">
<path fill="none" stroke="#63b8ff" d="M361.05,-184.08C357.17,-177.1 351.62,-167.12 346.74,-158.33"/>
<polygon fill="#63b8ff" stroke="#63b8ff" points="349.92,-156.84 342,-149.8 343.8,-160.24 349.92,-156.84"/>
</a>
</g>
<g id="a_edge9&#45;headlabel"><a xlink:href="dir_000005_000014.html" target="_top" xlink:title="1">
<text text-anchor="middle" x="353.41" y="-153.78" font-family="Helvetica,sans-Serif" font-size="10.00" fill="#63b8ff">1</text>
</a>
</g>
</g>
<!-- dir_dc3bc99bc501644e197c4d2698e0fc8f -->
<g id="node10" class="node">
<title>dir_dc3bc99bc501644e197c4d2698e0fc8f</title>
<g id="a_node10"><a xlink:href="dir_dc3bc99bc501644e197c4d2698e0fc8f.html" target="_top" xlink:title="invite">
<polygon fill="#a2b4d6" stroke="#404040" points="416.62,-148 377.38,-148 377.38,-128 416.62,-128 416.62,-148"/>
<text text-anchor="middle" x="397" y="-134.5" font-family="Helvetica,sans-Serif" font-size="10.00">invite</text>
</a>
</g>
</g>
<!-- dir_261c5c8db3e2632ea4bb1b96cd6e78dc&#45;&gt;dir_dc3bc99bc501644e197c4d2698e0fc8f -->
<g id="edge15" class="edge">
<title>dir_261c5c8db3e2632ea4bb1b96cd6e78dc&#45;&gt;dir_dc3bc99bc501644e197c4d2698e0fc8f</title>
<g id="a_edge15"><a xlink:href="dir_000005_000018.html" target="_top">
<path fill="none" stroke="#63b8ff" d="M371.12,-184.08C375.13,-177.1 380.85,-167.12 385.9,-158.33"/>
<polygon fill="#63b8ff" stroke="#63b8ff" points="388.86,-160.2 390.81,-149.79 382.79,-156.72 388.86,-160.2"/>
</a>
</g>
<g id="a_edge15&#45;headlabel"><a xlink:href="dir_000005_000018.html" target="_top" xlink:title="1">
<text text-anchor="middle" x="390.29" y="-159.92" font-family="Helvetica,sans-Serif" font-size="10.00" fill="#63b8ff">1</text>
</a>
</g>
</g>
<!-- dir_95760a557985884d96cc299df0f35c8f -->
<g id="node11" class="node">
<title>dir_95760a557985884d96cc299df0f35c8f</title>
<g id="a_node11"><a xlink:href="dir_95760a557985884d96cc299df0f35c8f.html" target="_top" xlink:title="learn_cpp">
<polygon fill="#a2b4d6" stroke="#404040" points="493,-148 435,-148 435,-128 493,-128 493,-148"/>
<text text-anchor="middle" x="464" y="-134.5" font-family="Helvetica,sans-Serif" font-size="10.00">learn_cpp</text>
</a>
</g>
</g>
<!-- dir_261c5c8db3e2632ea4bb1b96cd6e78dc&#45;&gt;dir_95760a557985884d96cc299df0f35c8f -->
<g id="edge8" class="edge">
<title>dir_261c5c8db3e2632ea4bb1b96cd6e78dc&#45;&gt;dir_95760a557985884d96cc299df0f35c8f</title>
<g id="a_edge8"><a xlink:href="dir_000005_000019.html" target="_top">
<path fill="none" stroke="#63b8ff" d="M382.18,-184.08C397.09,-175.87 419.49,-163.52 437.09,-153.83"/>
<polygon fill="#63b8ff" stroke="#63b8ff" points="438.41,-157.1 445.48,-149.21 435.03,-150.97 438.41,-157.1"/>
</a>
</g>
<g id="a_edge8&#45;headlabel"><a xlink:href="dir_000005_000019.html" target="_top" xlink:title="1">
<text text-anchor="middle" x="437.96" y="-157.09" font-family="Helvetica,sans-Serif" font-size="10.00" fill="#63b8ff">1</text>
</a>
</g>
</g>
<!-- dir_8ebd00c358f56a5acdf11c21d1bdff17 -->
<g id="node12" class="node">
<title>dir_8ebd00c358f56a5acdf11c21d1bdff17</title>
<g id="a_node12"><a xlink:href="dir_8ebd00c358f56a5acdf11c21d1bdff17.html" target="_top" xlink:title="notification">
<polygon fill="#a2b4d6" stroke="#404040" points="574.62,-148 511.38,-148 511.38,-128 574.62,-128 574.62,-148"/>
<text text-anchor="middle" x="543" y="-134.5" font-family="Helvetica,sans-Serif" font-size="10.00">notification</text>
</a>
</g>
</g>
<!-- dir_261c5c8db3e2632ea4bb1b96cd6e78dc&#45;&gt;dir_8ebd00c358f56a5acdf11c21d1bdff17 -->
<g id="edge7" class="edge">
<title>dir_261c5c8db3e2632ea4bb1b96cd6e78dc&#45;&gt;dir_8ebd00c358f56a5acdf11c21d1bdff17</title>
<g id="a_edge7"><a xlink:href="dir_000005_000020.html" target="_top">
<path fill="none" stroke="#63b8ff" d="M395.23,-184.08C424.04,-175.29 468.36,-161.77 500.95,-151.83"/>
<polygon fill="#63b8ff" stroke="#63b8ff" points="501.95,-155.18 510.49,-148.92 499.91,-148.49 501.95,-155.18"/>
</a>
</g>
<g id="a_edge7&#45;headlabel"><a xlink:href="dir_000005_000020.html" target="_top" xlink:title="5">
<text text-anchor="middle" x="500.79" y="-155.01" font-family="Helvetica,sans-Serif" font-size="10.00" fill="#63b8ff">5</text>
</a>
</g>
</g>
<!-- dir_7cc000a715c59c08d2b57e79abb2c661 -->
<g id="node13" class="node">
<title>dir_7cc000a715c59c08d2b57e79abb2c661</title>
<g id="a_node13"><a xlink:href="dir_7cc000a715c59c08d2b57e79abb2c661.html" target="_top" xlink:title="portal">
<polygon fill="#a2b4d6" stroke="#404040" points="633,-148 593,-148 593,-128 633,-128 633,-148"/>
<text text-anchor="middle" x="613" y="-134.5" font-family="Helvetica,sans-Serif" font-size="10.00">portal</text>
</a>
</g>
</g>
<!-- dir_261c5c8db3e2632ea4bb1b96cd6e78dc&#45;&gt;dir_7cc000a715c59c08d2b57e79abb2c661 -->
<g id="edge6" class="edge">
<title>dir_261c5c8db3e2632ea4bb1b96cd6e78dc&#45;&gt;dir_7cc000a715c59c08d2b57e79abb2c661</title>
<g id="a_edge6"><a xlink:href="dir_000005_000021.html" target="_top">
<path fill="none" stroke="#63b8ff" d="M397.99,-187.4C438.6,-180.09 510.99,-166.31 581.89,-148.35"/>
<polygon fill="#63b8ff" stroke="#63b8ff" points="582.51,-151.8 591.32,-145.92 580.77,-145.02 582.51,-151.8"/>
</a>
</g>
<g id="a_edge6&#45;headlabel"><a xlink:href="dir_000005_000021.html" target="_top" xlink:title="10">
<text text-anchor="middle" x="581.2" y="-151.57" font-family="Helvetica,sans-Serif" font-size="10.00" fill="#63b8ff">10</text>
</a>
</g>
</g>
<!-- dir_3f526b2c6f77046a2bd3d6f486c710c8 -->
<g id="node14" class="node">
<title>dir_3f526b2c6f77046a2bd3d6f486c710c8</title>
<g id="a_node14"><a xlink:href="dir_3f526b2c6f77046a2bd3d6f486c710c8.html" target="_top" xlink:title="profile">
<polygon fill="#a2b4d6" stroke="#404040" points="294.12,-148 251.88,-148 251.88,-128 294.12,-128 294.12,-148"/>
<text text-anchor="middle" x="273" y="-134.5" font-family="Helvetica,sans-Serif" font-size="10.00">profile</text>
</a>
</g>
</g>
<!-- dir_261c5c8db3e2632ea4bb1b96cd6e78dc&#45;&gt;dir_3f526b2c6f77046a2bd3d6f486c710c8 -->
<g id="edge3" class="edge">
<title>dir_261c5c8db3e2632ea4bb1b96cd6e78dc&#45;&gt;dir_3f526b2c6f77046a2bd3d6f486c710c8</title>
<g id="a_edge3"><a xlink:href="dir_000005_000022.html" target="_top">
<path fill="none" stroke="#63b8ff" d="M350.64,-184.08C336.63,-175.95 315.63,-163.75 299.01,-154.1"/>
<polygon fill="#63b8ff" stroke="#63b8ff" points="301.03,-151.23 290.63,-149.24 297.52,-157.28 301.03,-151.23"/>
</a>
</g>
<g id="a_edge3&#45;headlabel"><a xlink:href="dir_000005_000022.html" target="_top" xlink:title="1">
<text text-anchor="middle" x="304.26" y="-146.32" font-family="Helvetica,sans-Serif" font-size="10.00" fill="#63b8ff">1</text>
</a>
</g>
</g>
<!-- dir_55709f21cee890691a392e71066e61b8 -->
<g id="node15" class="node">
<title>dir_55709f21cee890691a392e71066e61b8</title>
<g id="a_node15"><a xlink:href="dir_55709f21cee890691a392e71066e61b8.html" target="_top" xlink:title="reaction_roles">
<polygon fill="#a2b4d6" stroke="#404040" points="197.38,-92 120.62,-92 120.62,-72 197.38,-72 197.38,-92"/>
<text text-anchor="middle" x="159" y="-78.5" font-family="Helvetica,sans-Serif" font-size="10.00">reaction_roles</text>
</a>
</g>
</g>
<!-- dir_261c5c8db3e2632ea4bb1b96cd6e78dc&#45;&gt;dir_55709f21cee890691a392e71066e61b8 -->
<g id="edge5" class="edge">
<title>dir_261c5c8db3e2632ea4bb1b96cd6e78dc&#45;&gt;dir_55709f21cee890691a392e71066e61b8</title>
<g id="a_edge5"><a xlink:href="dir_000005_000023.html" target="_top">
<path fill="none" stroke="#63b8ff" d="M334.24,-191.5C277.73,-188.11 163.35,-177.65 139,-148 128.15,-134.78 135.98,-115.71 144.82,-101.65"/>
<polygon fill="#63b8ff" stroke="#63b8ff" points="147.52,-103.9 150.33,-93.69 141.76,-99.92 147.52,-103.9"/>
</a>
</g>
<g id="a_edge5&#45;headlabel"><a xlink:href="dir_000005_000023.html" target="_top" xlink:title="2">
<text text-anchor="middle" x="148.67" y="-103.73" font-family="Helvetica,sans-Serif" font-size="10.00" fill="#63b8ff">2</text>
</a>
</g>
</g>
<!-- dir_4664096a0ece9a7aba46a7b7bb421972 -->
<g id="node16" class="node">
<title>dir_4664096a0ece9a7aba46a7b7bb421972</title>
<g id="a_node16"><a xlink:href="dir_4664096a0ece9a7aba46a7b7bb421972.html" target="_top" xlink:title="resources">
<polygon fill="#a2b4d6" stroke="#404040" points="709.38,-148 650.62,-148 650.62,-128 709.38,-128 709.38,-148"/>
<text text-anchor="middle" x="680" y="-134.5" font-family="Helvetica,sans-Serif" font-size="10.00">resources</text>
</a>
</g>
</g>
<!-- dir_261c5c8db3e2632ea4bb1b96cd6e78dc&#45;&gt;dir_4664096a0ece9a7aba46a7b7bb421972 -->
<g id="edge4" class="edge">
<title>dir_261c5c8db3e2632ea4bb1b96cd6e78dc&#45;&gt;dir_4664096a0ece9a7aba46a7b7bb421972</title>
<g id="a_edge4"><a xlink:href="dir_000005_000027.html" target="_top">
<path fill="none" stroke="#63b8ff" d="M397.59,-188.59C447.05,-181.54 546.01,-166.77 639.14,-148.47"/>
<polygon fill="#63b8ff" stroke="#63b8ff" points="639.56,-151.95 648.69,-146.57 638.2,-145.08 639.56,-151.95"/>
</a>
</g>
<g id="a_edge4&#45;headlabel"><a xlink:href="dir_000005_000027.html" target="_top" xlink:title="2">
<text text-anchor="middle" x="638.07" y="-151.64" font-family="Helvetica,sans-Serif" font-size="10.00" fill="#63b8ff">2</text>
</a>
</g>
</g>
<!-- dir_01a9593c77408e73511ed5f78e4e0ebc -->
<g id="node17" class="node">
<title>dir_01a9593c77408e73511ed5f78e4e0ebc</title>
<g id="a_node17"><a xlink:href="dir_01a9593c77408e73511ed5f78e4e0ebc.html" target="_top" xlink:title="roll">
<polygon fill="#a2b4d6" stroke="#404040" points="186.4,-148 157.6,-148 157.6,-128 186.4,-128 186.4,-148"/>
<text text-anchor="middle" x="172" y="-134.5" font-family="Helvetica,sans-Serif" font-size="10.00">roll</text>
</a>
</g>
</g>
<!-- dir_261c5c8db3e2632ea4bb1b96cd6e78dc&#45;&gt;dir_01a9593c77408e73511ed5f78e4e0ebc -->
<g id="edge1" class="edge">
<title>dir_261c5c8db3e2632ea4bb1b96cd6e78dc&#45;&gt;dir_01a9593c77408e73511ed5f78e4e0ebc</title>
<g id="a_edge1"><a xlink:href="dir_000005_000028.html" target="_top">
<path fill="none" stroke="#63b8ff" d="M334.08,-185.56C301.93,-177.85 250.7,-164.97 197.84,-148.34"/>
<polygon fill="#63b8ff" stroke="#63b8ff" points="198.93,-145.01 188.34,-145.31 196.8,-151.68 198.93,-145.01"/>
</a>
</g>
<g id="a_edge1&#45;headlabel"><a xlink:href="dir_000005_000028.html" target="_top" xlink:title="1">
<text text-anchor="middle" x="201.78" y="-139.44" font-family="Helvetica,sans-Serif" font-size="10.00" fill="#63b8ff">1</text>
</a>
</g>
</g>
<!-- dir_25fa05427a0fbbf83099686a4dfd3c98 -->
<g id="node18" class="node">
<title>dir_25fa05427a0fbbf83099686a4dfd3c98</title>
<g id="a_node18"><a xlink:href="dir_25fa05427a0fbbf83099686a4dfd3c98.html" target="_top" xlink:title="server_details">
<polygon fill="#a2b4d6" stroke="#404040" points="804.38,-148 727.62,-148 727.62,-128 804.38,-128 804.38,-148"/>
<text text-anchor="middle" x="766" y="-134.5" font-family="Helvetica,sans-Serif" font-size="10.00">server_details</text>
</a>
</g>
</g>
<!-- dir_261c5c8db3e2632ea4bb1b96cd6e78dc&#45;&gt;dir_25fa05427a0fbbf83099686a4dfd3c98 -->
<g id="edge2" class="edge">
<title>dir_261c5c8db3e2632ea4bb1b96cd6e78dc&#45;&gt;dir_25fa05427a0fbbf83099686a4dfd3c98</title>
<g id="a_edge2"><a xlink:href="dir_000005_000029.html" target="_top">
<path fill="none" stroke="#63b8ff" d="M397.64,-189.58C457.58,-182.97 592.06,-167.49 716.06,-148.22"/>
<polygon fill="#63b8ff" stroke="#63b8ff" points="716.43,-151.7 725.77,-146.7 715.34,-144.79 716.43,-151.7"/>
</a>
</g>
<g id="a_edge2&#45;headlabel"><a xlink:href="dir_000005_000029.html" target="_top" xlink:title="1">
<text text-anchor="middle" x="714.81" y="-151.33" font-family="Helvetica,sans-Serif" font-size="10.00" fill="#63b8ff">1</text>
</a>
</g>
</g>
<!-- dir_cc7ce3d766bf0a0ad188e6b0650c2ecf -->
<g id="node19" class="node">
<title>dir_cc7ce3d766bf0a0ad188e6b0650c2ecf</title>
<g id="a_node19"><a xlink:href="dir_cc7ce3d766bf0a0ad188e6b0650c2ecf.html" target="_top" xlink:title="set_status">
<polygon fill="#a2b4d6" stroke="#404040" points="883.88,-148 822.12,-148 822.12,-128 883.88,-128 883.88,-148"/>
<text text-anchor="middle" x="853" y="-134.5" font-family="Helvetica,sans-Serif" font-size="10.00">set_status</text>
</a>
</g>
</g>
<!-- dir_261c5c8db3e2632ea4bb1b96cd6e78dc&#45;&gt;dir_cc7ce3d766bf0a0ad188e6b0650c2ecf -->
<g id="edge12" class="edge">
<title>dir_261c5c8db3e2632ea4bb1b96cd6e78dc&#45;&gt;dir_cc7ce3d766bf0a0ad188e6b0650c2ecf</title>
<g id="a_edge12"><a xlink:href="dir_000005_000030.html" target="_top">
<path fill="none" stroke="#63b8ff" d="M397.88,-191.12C469.76,-186.6 650.1,-173.67 810.6,-148.21"/>
<polygon fill="#63b8ff" stroke="#63b8ff" points="810.82,-151.72 820.13,-146.68 809.7,-144.81 810.82,-151.72"/>
</a>
</g>
<g id="a_edge12&#45;headlabel"><a xlink:href="dir_000005_000030.html" target="_top" xlink:title="1">
<text text-anchor="middle" x="809.21" y="-151.35" font-family="Helvetica,sans-Serif" font-size="10.00" fill="#63b8ff">1</text>
</a>
</g>
</g>
<!-- dir_adcd489d00d8ca37449f57b9cfd13f65&#45;&gt;dir_cac0b191d0d7d0dd67d730930ce5fa13 -->
<g id="edge17" class="edge">
<title>dir_adcd489d00d8ca37449f57b9cfd13f65&#45;&gt;dir_cac0b191d0d7d0dd67d730930ce5fa13</title>
<g id="a_edge17"><a xlink:href="dir_000002_000000.html" target="_top">
<path fill="none" stroke="#63b8ff" d="M286.36,-71.51C293.38,-69.02 300.96,-66.38 308,-64 338.6,-53.66 373.99,-42.37 397.34,-35.02"/>
<polygon fill="#63b8ff" stroke="#63b8ff" points="398.13,-38.44 406.62,-32.11 396.03,-31.76 398.13,-38.44"/>
</a>
</g>
<g id="a_edge17&#45;headlabel"><a xlink:href="dir_000002_000000.html" target="_top" xlink:title="13">
<text text-anchor="middle" x="397" y="-38.27" font-family="Helvetica,sans-Serif" font-size="10.00" fill="#63b8ff">13</text>
</a>
</g>
</g>
<!-- dir_c51bb8760eda2ecf5deaef23809ed440&#45;&gt;dir_cac0b191d0d7d0dd67d730930ce5fa13 -->
<g id="edge18" class="edge">
<title>dir_c51bb8760eda2ecf5deaef23809ed440&#45;&gt;dir_cac0b191d0d7d0dd67d730930ce5fa13</title>
<g id="a_edge18"><a xlink:href="dir_000003_000000.html" target="_top">
<path fill="none" stroke="#63b8ff" d="M86.87,-71.56C94.77,-68.75 103.66,-65.92 112,-64 215.73,-40.13 342.66,-31.13 396.67,-28.22"/>
<polygon fill="#63b8ff" stroke="#63b8ff" points="396.59,-31.73 406.4,-27.72 396.24,-24.73 396.59,-31.73"/>
</a>
</g>
<g id="a_edge18&#45;headlabel"><a xlink:href="dir_000003_000000.html" target="_top" xlink:title="8">
<text text-anchor="middle" x="394.66" y="-31.17" font-family="Helvetica,sans-Serif" font-size="10.00" fill="#63b8ff">8</text>
</a>
</g>
</g>
<!-- dir_e071329bb2fc8ace303f4ccc165742ca&#45;&gt;dir_cac0b191d0d7d0dd67d730930ce5fa13 -->
<g id="edge21" class="edge">
<title>dir_e071329bb2fc8ace303f4ccc165742ca&#45;&gt;dir_cac0b191d0d7d0dd67d730930ce5fa13</title>
<g id="a_edge21"><a xlink:href="dir_000004_000000.html" target="_top">
<path fill="none" stroke="#63b8ff" d="M99.98,-133.16C159.76,-124.76 295.91,-104.51 313,-92 324.39,-83.66 317.43,-73.36 328,-64 347.49,-46.73 375.95,-37.09 396.64,-32.01"/>
<polygon fill="#63b8ff" stroke="#63b8ff" points="397.32,-35.45 406.32,-29.86 395.8,-28.61 397.32,-35.45"/>
</a>
</g>
<g id="a_edge21&#45;headlabel"><a xlink:href="dir_000004_000000.html" target="_top" xlink:title="1">
<text text-anchor="middle" x="395.9" y="-35.17" font-family="Helvetica,sans-Serif" font-size="10.00" fill="#63b8ff">1</text>
</a>
</g>
</g>
<!-- dir_e071329bb2fc8ace303f4ccc165742ca&#45;&gt;dir_c51bb8760eda2ecf5deaef23809ed440 -->
<g id="edge20" class="edge">
<title>dir_e071329bb2fc8ace303f4ccc165742ca&#45;&gt;dir_c51bb8760eda2ecf5deaef23809ed440</title>
<g id="a_edge20"><a xlink:href="dir_000004_000003.html" target="_top">
<path fill="none" stroke="#63b8ff" d="M70.43,-127.59C69.32,-120.93 67.79,-111.75 66.41,-103.44"/>
<polygon fill="#63b8ff" stroke="#63b8ff" points="69.89,-103.08 64.8,-93.79 62.99,-104.23 69.89,-103.08"/>
</a>
</g>
<g id="a_edge20&#45;headlabel"><a xlink:href="dir_000004_000003.html" target="_top" xlink:title="1">
<text text-anchor="middle" x="73.04" y="-101.17" font-family="Helvetica,sans-Serif" font-size="10.00" fill="#63b8ff">1</text>
</a>
</g>
</g>
<!-- dir_e071329bb2fc8ace303f4ccc165742ca&#45;&gt;dir_55709f21cee890691a392e71066e61b8 -->
<g id="edge19" class="edge">
<title>dir_e071329bb2fc8ace303f4ccc165742ca&#45;&gt;dir_55709f21cee890691a392e71066e61b8</title>
<g id="a_edge19"><a xlink:href="dir_000004_000023.html" target="_top">
<path fill="none" stroke="#63b8ff" d="M87.15,-127.59C100.05,-119.59 118.83,-107.93 133.96,-98.54"/>
<polygon fill="#63b8ff" stroke="#63b8ff" points="135.79,-101.53 142.44,-93.28 132.1,-95.58 135.79,-101.53"/>
</a>
</g>
<g id="a_edge19&#45;headlabel"><a xlink:href="dir_000004_000023.html" target="_top" xlink:title="1">
<text text-anchor="middle" x="135.52" y="-101.53" font-family="Helvetica,sans-Serif" font-size="10.00" fill="#63b8ff">1</text>
</a>
</g>
</g>
<!-- dir_d44c2f9991353a7b899d805b4059ed96&#45;&gt;dir_cac0b191d0d7d0dd67d730930ce5fa13 -->
<g id="edge23" class="edge">
<title>dir_d44c2f9991353a7b899d805b4059ed96&#45;&gt;dir_cac0b191d0d7d0dd67d730930ce5fa13</title>
<g id="a_edge23"><a xlink:href="dir_000008_000000.html" target="_top">
<path fill="none" stroke="#63b8ff" d="M233.7,-131.41C236.77,-130.27 239.98,-129.08 243,-128 289.43,-111.34 308.44,-121.48 348,-92 360.26,-82.86 357.04,-74.66 368,-64 376.94,-55.31 388.17,-47.34 398.14,-41.05"/>
<polygon fill="#63b8ff" stroke="#63b8ff" points="399.89,-44.08 406.64,-35.92 396.27,-38.09 399.89,-44.08"/>
</a>
</g>
<g id="a_edge23&#45;headlabel"><a xlink:href="dir_000008_000000.html" target="_top" xlink:title="1">
<text text-anchor="middle" x="399.58" y="-44.09" font-family="Helvetica,sans-Serif" font-size="10.00" fill="#63b8ff">1</text>
</a>
</g>
</g>
<!-- dir_d44c2f9991353a7b899d805b4059ed96&#45;&gt;dir_adcd489d00d8ca37449f57b9cfd13f65 -->
<g id="edge22" class="edge">
<title>dir_d44c2f9991353a7b899d805b4059ed96&#45;&gt;dir_adcd489d00d8ca37449f57b9cfd13f65</title>
<g id="a_edge22"><a xlink:href="dir_000008_000002.html" target="_top">
<path fill="none" stroke="#63b8ff" d="M226.14,-127.59C231.61,-120.39 239.32,-110.23 246.01,-101.43"/>
<polygon fill="#63b8ff" stroke="#63b8ff" points="248.77,-103.58 252.02,-93.5 243.19,-99.35 248.77,-103.58"/>
</a>
</g>
<g id="a_edge22&#45;headlabel"><a xlink:href="dir_000008_000002.html" target="_top" xlink:title="2">
<text text-anchor="middle" x="249.77" y="-103.46" font-family="Helvetica,sans-Serif" font-size="10.00" fill="#63b8ff">2</text>
</a>
</g>
</g>
<!-- dir_dc1cac501bd439d519324f1df382cae1&#45;&gt;dir_cac0b191d0d7d0dd67d730930ce5fa13 -->
<g id="edge24" class="edge">
<title>dir_dc1cac501bd439d519324f1df382cae1&#45;&gt;dir_cac0b191d0d7d0dd67d730930ce5fa13</title>
<g id="a_edge24"><a xlink:href="dir_000009_000000.html" target="_top">
<path fill="none" stroke="#63b8ff" d="M901.71,-130.82C898.82,-129.84 895.83,-128.87 893,-128 787.86,-95.77 761.54,-86.95 654,-64 580.45,-48.31 492.45,-35.96 449.38,-30.33"/>
<polygon fill="#63b8ff" stroke="#63b8ff" points="450.1,-26.89 439.74,-29.08 449.21,-33.83 450.1,-26.89"/>
</a>
</g>
<g id="a_edge24&#45;headlabel"><a xlink:href="dir_000009_000000.html" target="_top" xlink:title="1">
<text text-anchor="middle" x="452.53" y="-20.84" font-family="Helvetica,sans-Serif" font-size="10.00" fill="#63b8ff">1</text>
</a>
</g>
</g>
<!-- dir_9d7cbcd390d83bb8092815502b9393e2&#45;&gt;dir_cac0b191d0d7d0dd67d730930ce5fa13 -->
<g id="edge25" class="edge">
<title>dir_9d7cbcd390d83bb8092815502b9393e2&#45;&gt;dir_cac0b191d0d7d0dd67d730930ce5fa13</title>
<g id="a_edge25"><a xlink:href="dir_000014_000000.html" target="_top">
<path fill="none" stroke="#63b8ff" d="M349.15,-127.76C360.45,-119.37 376.65,-106.16 388,-92 399.04,-78.23 408.32,-60.47 414.55,-47"/>
<polygon fill="#63b8ff" stroke="#63b8ff" points="417.75,-48.41 418.59,-37.85 411.35,-45.58 417.75,-48.41"/>
</a>
</g>
<g id="a_edge25&#45;headlabel"><a xlink:href="dir_000014_000000.html" target="_top" xlink:title="1">
<text text-anchor="middle" x="419.51" y="-47.96" font-family="Helvetica,sans-Serif" font-size="10.00" fill="#63b8ff">1</text>
</a>
</g>
</g>
<!-- dir_4bf8f6c3c349d2a29524f93c7ce04644 -->
<g id="node9" class="node">
<title>dir_4bf8f6c3c349d2a29524f93c7ce04644</title>
<g id="a_node9"><a xlink:href="dir_4bf8f6c3c349d2a29524f93c7ce04644.html" target="_top" xlink:title="init_database">
<polygon fill="#a2b4d6" stroke="#404040" points="935.88,-204 862.12,-204 862.12,-184 935.88,-184 935.88,-204"/>
<text text-anchor="middle" x="899" y="-190.5" font-family="Helvetica,sans-Serif" font-size="10.00">init_database</text>
</a>
</g>
</g>
<!-- dir_4bf8f6c3c349d2a29524f93c7ce04644&#45;&gt;dir_cac0b191d0d7d0dd67d730930ce5fa13 -->
<g id="edge26" class="edge">
<title>dir_4bf8f6c3c349d2a29524f93c7ce04644&#45;&gt;dir_cac0b191d0d7d0dd67d730930ce5fa13</title>
<g id="a_edge26"><a xlink:href="dir_000016_000000.html" target="_top">
<path fill="none" stroke="#63b8ff" d="M913.97,-183.61C932.44,-170.84 959.7,-147.39 945,-128 884.11,-47.66 547.11,-30.89 449.5,-27.7"/>
<polygon fill="#63b8ff" stroke="#63b8ff" points="449.7,-24.2 439.6,-27.4 449.49,-31.2 449.7,-24.2"/>
</a>
</g>
<g id="a_edge26&#45;headlabel"><a xlink:href="dir_000016_000000.html" target="_top" xlink:title="1">
<text text-anchor="middle" x="451.87" y="-17.93" font-family="Helvetica,sans-Serif" font-size="10.00" fill="#63b8ff">1</text>
</a>
</g>
</g>
<!-- dir_dc3bc99bc501644e197c4d2698e0fc8f&#45;&gt;dir_cac0b191d0d7d0dd67d730930ce5fa13 -->
<g id="edge27" class="edge">
<title>dir_dc3bc99bc501644e197c4d2698e0fc8f&#45;&gt;dir_cac0b191d0d7d0dd67d730930ce5fa13</title>
<g id="a_edge27"><a xlink:href="dir_000018_000000.html" target="_top">
<path fill="none" stroke="#63b8ff" d="M399.31,-127.7C401.56,-118.61 405.06,-104.36 408,-92 411.57,-76.97 415.49,-59.96 418.43,-47.11"/>
<polygon fill="#63b8ff" stroke="#63b8ff" points="421.76,-48.27 420.57,-37.74 414.93,-46.71 421.76,-48.27"/>
</a>
</g>
<g id="a_edge27&#45;headlabel"><a xlink:href="dir_000018_000000.html" target="_top" xlink:title="1">
<text text-anchor="middle" x="424.06" y="-47.43" font-family="Helvetica,sans-Serif" font-size="10.00" fill="#63b8ff">1</text>
</a>
</g>
</g>
<!-- dir_95760a557985884d96cc299df0f35c8f&#45;&gt;dir_cac0b191d0d7d0dd67d730930ce5fa13 -->
<g id="edge28" class="edge">
<title>dir_95760a557985884d96cc299df0f35c8f&#45;&gt;dir_cac0b191d0d7d0dd67d730930ce5fa13</title>
<g id="a_edge28"><a xlink:href="dir_000019_000000.html" target="_top">
<path fill="none" stroke="#63b8ff" d="M460.5,-127.62C453.88,-109.84 439.36,-70.88 430.45,-47"/>
<polygon fill="#63b8ff" stroke="#63b8ff" points="433.79,-45.92 427.02,-37.77 427.23,-48.37 433.79,-45.92"/>
</a>
</g>
<g id="a_edge28&#45;headlabel"><a xlink:href="dir_000019_000000.html" target="_top" xlink:title="1">
<text text-anchor="middle" x="437.17" y="-43.38" font-family="Helvetica,sans-Serif" font-size="10.00" fill="#63b8ff">1</text>
</a>
</g>
</g>
<!-- dir_8ebd00c358f56a5acdf11c21d1bdff17&#45;&gt;dir_cac0b191d0d7d0dd67d730930ce5fa13 -->
<g id="edge29" class="edge">
<title>dir_8ebd00c358f56a5acdf11c21d1bdff17&#45;&gt;dir_cac0b191d0d7d0dd67d730930ce5fa13</title>
<g id="a_edge29"><a xlink:href="dir_000020_000000.html" target="_top">
<path fill="none" stroke="#63b8ff" d="M532.77,-127.62C512.58,-109.11 467.34,-67.65 441.69,-44.13"/>
<polygon fill="#63b8ff" stroke="#63b8ff" points="444.06,-41.55 434.32,-37.38 439.33,-46.71 444.06,-41.55"/>
</a>
</g>
<g id="a_edge29&#45;headlabel"><a xlink:href="dir_000020_000000.html" target="_top" xlink:title="9">
<text text-anchor="middle" x="447.51" y="-37.37" font-family="Helvetica,sans-Serif" font-size="10.00" fill="#63b8ff">9</text>
</a>
</g>
</g>
<!-- dir_7cc000a715c59c08d2b57e79abb2c661&#45;&gt;dir_cac0b191d0d7d0dd67d730930ce5fa13 -->
<g id="edge30" class="edge">
<title>dir_7cc000a715c59c08d2b57e79abb2c661&#45;&gt;dir_cac0b191d0d7d0dd67d730930ce5fa13</title>
<g id="a_edge30"><a xlink:href="dir_000021_000000.html" target="_top">
<path fill="none" stroke="#63b8ff" d="M596.8,-127.62C563.59,-108.39 487.59,-64.39 448.01,-41.48"/>
<polygon fill="#63b8ff" stroke="#63b8ff" points="449.82,-38.48 439.41,-36.5 446.31,-44.54 449.82,-38.48"/>
</a>
</g>
<g id="a_edge30&#45;headlabel"><a xlink:href="dir_000021_000000.html" target="_top" xlink:title="17">
<text text-anchor="middle" x="453.04" y="-33.57" font-family="Helvetica,sans-Serif" font-size="10.00" fill="#63b8ff">17</text>
</a>
</g>
</g>
<!-- dir_3f526b2c6f77046a2bd3d6f486c710c8&#45;&gt;dir_cac0b191d0d7d0dd67d730930ce5fa13 -->
<g id="edge32" class="edge">
<title>dir_3f526b2c6f77046a2bd3d6f486c710c8&#45;&gt;dir_cac0b191d0d7d0dd67d730930ce5fa13</title>
<g id="a_edge32"><a xlink:href="dir_000022_000000.html" target="_top">
<path fill="none" stroke="#63b8ff" d="M294.38,-130.4C314.88,-123.3 345.88,-110.5 368,-92 379.73,-82.19 378.28,-75.81 388,-64 393.44,-57.4 399.77,-50.5 405.53,-44.47"/>
<polygon fill="#63b8ff" stroke="#63b8ff" points="407.87,-47.09 412.35,-37.49 402.86,-42.2 407.87,-47.09"/>
</a>
</g>
<g id="a_edge32&#45;headlabel"><a xlink:href="dir_000022_000000.html" target="_top" xlink:title="1">
<text text-anchor="middle" x="408.45" y="-47.06" font-family="Helvetica,sans-Serif" font-size="10.00" fill="#63b8ff">1</text>
</a>
</g>
</g>
<!-- dir_3f526b2c6f77046a2bd3d6f486c710c8&#45;&gt;dir_adcd489d00d8ca37449f57b9cfd13f65 -->
<g id="edge31" class="edge">
<title>dir_3f526b2c6f77046a2bd3d6f486c710c8&#45;&gt;dir_adcd489d00d8ca37449f57b9cfd13f65</title>
<g id="a_edge31"><a xlink:href="dir_000022_000002.html" target="_top">
<path fill="none" stroke="#63b8ff" d="M270.74,-127.59C269.13,-120.93 266.92,-111.75 264.92,-103.44"/>
<polygon fill="#63b8ff" stroke="#63b8ff" points="268.34,-102.67 262.59,-93.77 261.53,-104.31 268.34,-102.67"/>
</a>
</g>
<g id="a_edge31&#45;headlabel"><a xlink:href="dir_000022_000002.html" target="_top" xlink:title="5">
<text text-anchor="middle" x="271.58" y="-100.53" font-family="Helvetica,sans-Serif" font-size="10.00" fill="#63b8ff">5</text>
</a>
</g>
</g>
<!-- dir_55709f21cee890691a392e71066e61b8&#45;&gt;dir_cac0b191d0d7d0dd67d730930ce5fa13 -->
<g id="edge33" class="edge">
<title>dir_55709f21cee890691a392e71066e61b8&#45;&gt;dir_cac0b191d0d7d0dd67d730930ce5fa13</title>
<g id="a_edge33"><a xlink:href="dir_000023_000000.html" target="_top">
<path fill="none" stroke="#63b8ff" d="M183.17,-71.53C190.72,-68.82 199.13,-66.05 207,-64 274.23,-46.47 355.45,-35.12 396.5,-30.06"/>
<polygon fill="#63b8ff" stroke="#63b8ff" points="396.87,-33.54 406.38,-28.87 396.04,-26.59 396.87,-33.54"/>
</a>
</g>
<g id="a_edge33&#45;headlabel"><a xlink:href="dir_000023_000000.html" target="_top" xlink:title="6">
<text text-anchor="middle" x="395.15" y="-33.11" font-family="Helvetica,sans-Serif" font-size="10.00" fill="#63b8ff">6</text>
</a>
</g>
</g>
<!-- dir_4664096a0ece9a7aba46a7b7bb421972&#45;&gt;dir_cac0b191d0d7d0dd67d730930ce5fa13 -->
<g id="edge34" class="edge">
<title>dir_4664096a0ece9a7aba46a7b7bb421972&#45;&gt;dir_cac0b191d0d7d0dd67d730930ce5fa13</title>
<g id="a_edge34"><a xlink:href="dir_000027_000000.html" target="_top">
<path fill="none" stroke="#63b8ff" d="M659.8,-127.59C629.13,-113.39 568.88,-85.81 517,-64 494,-54.33 467.53,-43.98 448.55,-36.69"/>
<polygon fill="#63b8ff" stroke="#63b8ff" points="450.07,-33.52 439.48,-33.22 447.57,-40.06 450.07,-33.52"/>
</a>
</g>
<g id="a_edge34&#45;headlabel"><a xlink:href="dir_000027_000000.html" target="_top" xlink:title="5">
<text text-anchor="middle" x="453.03" y="-28.12" font-family="Helvetica,sans-Serif" font-size="10.00" fill="#63b8ff">5</text>
</a>
</g>
</g>
<!-- dir_01a9593c77408e73511ed5f78e4e0ebc&#45;&gt;dir_cac0b191d0d7d0dd67d730930ce5fa13 -->
<g id="edge36" class="edge">
<title>dir_01a9593c77408e73511ed5f78e4e0ebc&#45;&gt;dir_cac0b191d0d7d0dd67d730930ce5fa13</title>
<g id="a_edge36"><a xlink:href="dir_000028_000000.html" target="_top">
<path fill="none" stroke="#63b8ff" d="M186.65,-131.26C189.72,-130.13 192.95,-128.99 196,-128 253.86,-109.3 278.1,-126.76 328,-92 340.55,-83.26 336.35,-73.9 348,-64 362.6,-51.59 382.08,-42.14 397.53,-35.9"/>
<polygon fill="#63b8ff" stroke="#63b8ff" points="398.43,-39.3 406.52,-32.47 395.93,-32.77 398.43,-39.3"/>
</a>
</g>
<g id="a_edge36&#45;headlabel"><a xlink:href="dir_000028_000000.html" target="_top" xlink:title="1">
<text text-anchor="middle" x="397.5" y="-39.2" font-family="Helvetica,sans-Serif" font-size="10.00" fill="#63b8ff">1</text>
</a>
</g>
</g>
<!-- dir_01a9593c77408e73511ed5f78e4e0ebc&#45;&gt;dir_adcd489d00d8ca37449f57b9cfd13f65 -->
<g id="edge35" class="edge">
<title>dir_01a9593c77408e73511ed5f78e4e0ebc&#45;&gt;dir_adcd489d00d8ca37449f57b9cfd13f65</title>
<g id="a_edge35"><a xlink:href="dir_000028_000002.html" target="_top">
<path fill="none" stroke="#63b8ff" d="M186.53,-128.08C199.67,-120.02 219.29,-107.98 234.95,-98.37"/>
<polygon fill="#63b8ff" stroke="#63b8ff" points="236.58,-101.48 243.27,-93.27 232.91,-95.51 236.58,-101.48"/>
</a>
</g>
<g id="a_edge35&#45;headlabel"><a xlink:href="dir_000028_000002.html" target="_top" xlink:title="2">
<text text-anchor="middle" x="236.29" y="-101.49" font-family="Helvetica,sans-Serif" font-size="10.00" fill="#63b8ff">2</text>
</a>
</g>
</g>
<!-- dir_25fa05427a0fbbf83099686a4dfd3c98&#45;&gt;dir_cac0b191d0d7d0dd67d730930ce5fa13 -->
<g id="edge37" class="edge">
<title>dir_25fa05427a0fbbf83099686a4dfd3c98&#45;&gt;dir_cac0b191d0d7d0dd67d730930ce5fa13</title>
<g id="a_edge37"><a xlink:href="dir_000029_000000.html" target="_top">
<path fill="none" stroke="#63b8ff" d="M740.05,-127.53C700.24,-113.14 621.61,-85.17 554,-64 517.82,-52.67 475.54,-41.01 449.01,-33.88"/>
<polygon fill="#63b8ff" stroke="#63b8ff" points="450.04,-30.53 439.47,-31.34 448.23,-37.3 450.04,-30.53"/>
</a>
</g>
<g id="a_edge37&#45;headlabel"><a xlink:href="dir_000029_000000.html" target="_top" xlink:title="1">
<text text-anchor="middle" x="452.78" y="-24.83" font-family="Helvetica,sans-Serif" font-size="10.00" fill="#63b8ff">1</text>
</a>
</g>
</g>
<!-- dir_cc7ce3d766bf0a0ad188e6b0650c2ecf&#45;&gt;dir_cac0b191d0d7d0dd67d730930ce5fa13 -->
<g id="edge38" class="edge">
<title>dir_cc7ce3d766bf0a0ad188e6b0650c2ecf&#45;&gt;dir_cac0b191d0d7d0dd67d730930ce5fa13</title>
<g id="a_edge38"><a xlink:href="dir_000030_000000.html" target="_top">
<path fill="none" stroke="#63b8ff" d="M823.21,-127.62C776.1,-112.96 681.41,-84.22 600,-64 546.85,-50.8 483.96,-38.41 449.27,-31.85"/>
<polygon fill="#63b8ff" stroke="#63b8ff" points="450.2,-28.47 439.73,-30.07 448.91,-35.35 450.2,-28.47"/>
</a>
</g>
<g id="a_edge38&#45;headlabel"><a xlink:href="dir_000030_000000.html" target="_top" xlink:title="1">
<text text-anchor="middle" x="452.77" y="-22.56" font-family="Helvetica,sans-Serif" font-size="10.00" fill="#63b8ff">1</text>
</a>
</g>
</g>
</g>
</svg>
