<?xml version="1.0" encoding="UTF-8" standalone="no"?>
<!DOCTYPE svg PUBLIC "-//W3C//DTD SVG 1.1//EN"
 "http://www.w3.org/Graphics/SVG/1.1/DTD/svg11.dtd">
<!-- Generated by graphviz version 9.0.0 (0)
 -->
<!-- Title: src/bot_library/commands Pages: 1 -->
<svg width="442pt" height="256pt"
 viewBox="0.00 0.00 442.00 256.00" xmlns="http://www.w3.org/2000/svg" xmlns:xlink="http://www.w3.org/1999/xlink">
<g id="graph0" class="graph" transform="scale(1 1) rotate(0) translate(4 252)">
<title>src/bot_library/commands</title>
<g id="clust1" class="cluster">
<title>clusterdir_be3b34367be430ae387384d9c29f3df4</title>
<g id="a_clust1"><a xlink:href="dir_be3b34367be430ae387384d9c29f3df4.html" target="_top" xlink:title="bot_library">
<polygon fill="#edf0f7" stroke="#7f7f7f" stroke-dasharray="5,2" points="8,-8 8,-240 426,-240 426,-8 8,-8"/>
<text text-anchor="middle" x="217" y="-226.5" font-family="Helvetica,sans-Serif" font-size="10.00">bot_library</text>
</a>
</g>
</g>
<g id="clust2" class="cluster">
<title>clusterdir_261c5c8db3e2632ea4bb1b96cd6e78dc</title>
<g id="a_clust2"><a xlink:href="dir_261c5c8db3e2632ea4bb1b96cd6e78dc.html" target="_top">
<polygon fill="#edf0f7" stroke="#404040" stroke-width="2" points="16,-64 16,-212 386,-212 386,-64 16,-64"/>
</a>
</g>
</g>
<!-- dir_cac0b191d0d7d0dd67d730930ce5fa13 -->
<g id="node1" class="node">
<title>dir_cac0b191d0d7d0dd67d730930ce5fa13</title>
<g id="a_node1"><a xlink:href="dir_cac0b191d0d7d0dd67d730930ce5fa13.html" target="_top" xlink:title="bot">
<polygon fill="#a2b4d6" stroke="red" points="270.75,-36 241.25,-36 241.25,-16 270.75,-16 270.75,-36"/>
<text text-anchor="middle" x="256" y="-22.5" font-family="Helvetica,sans-Serif" font-size="10.00">bot</text>
</a>
</g>
</g>
<!-- dir_261c5c8db3e2632ea4bb1b96cd6e78dc -->
<g id="node2" class="node">
<title>dir_261c5c8db3e2632ea4bb1b96cd6e78dc</title>
<text text-anchor="middle" x="157" y="-190.5" font-family="Helvetica,sans-Serif" font-size="10.00">commands</text>
</g>
<!-- dir_c51bb8760eda2ecf5deaef23809ed440 -->
<g id="node3" class="node">
<title>dir_c51bb8760eda2ecf5deaef23809ed440</title>
<g id="a_node3"><a xlink:href="dir_c51bb8760eda2ecf5deaef23809ed440.html" target="_top" xlink:title="challenge_role">
<polygon fill="#a2b4d6" stroke="#404040" points="102.12,-92 23.88,-92 23.88,-72 102.12,-72 102.12,-92"/>
<text text-anchor="middle" x="63" y="-78.5" font-family="Helvetica,sans-Serif" font-size="10.00">challenge_role</text>
</a>
</g>
</g>
<!-- dir_261c5c8db3e2632ea4bb1b96cd6e78dc&#45;&gt;dir_c51bb8760eda2ecf5deaef23809ed440 -->
<g id="edge4" class="edge">
<title>dir_261c5c8db3e2632ea4bb1b96cd6e78dc&#45;&gt;dir_c51bb8760eda2ecf5deaef23809ed440</title>
<g id="a_edge4"><a xlink:href="dir_000004_000002.html" target="_top">
<path fill="none" stroke="#63b8ff" d="M125.19,-191.03C96.3,-187.35 55.2,-176.98 35,-148 24.84,-133.42 35.09,-114.57 45.94,-100.93"/>
<polygon fill="#63b8ff" stroke="#63b8ff" points="48.41,-103.42 52.31,-93.57 43.12,-98.84 48.41,-103.42"/>
</a>
</g>
<g id="a_edge4&#45;headlabel"><a xlink:href="dir_000004_000002.html" target="_top" xlink:title="2">
<text text-anchor="middle" x="49.19" y="-103.35" font-family="Helvetica,sans-Serif" font-size="10.00" fill="#63b8ff">2</text>
</a>
</g>
</g>
<!-- dir_e071329bb2fc8ace303f4ccc165742ca -->
<g id="node4" class="node">
<title>dir_e071329bb2fc8ace303f4ccc165742ca</title>
<g id="a_node4"><a xlink:href="dir_e071329bb2fc8ace303f4ccc165742ca.html" target="_top" xlink:title="clean_up">
<polygon fill="#a2b4d6" stroke="#404040" points="99.5,-148 44.5,-148 44.5,-128 99.5,-128 99.5,-148"/>
<text text-anchor="middle" x="72" y="-134.5" font-family="Helvetica,sans-Serif" font-size="10.00">clean_up</text>
</a>
</g>
</g>
<!-- dir_261c5c8db3e2632ea4bb1b96cd6e78dc&#45;&gt;dir_e071329bb2fc8ace303f4ccc165742ca -->
<g id="edge6" class="edge">
<title>dir_261c5c8db3e2632ea4bb1b96cd6e78dc&#45;&gt;dir_e071329bb2fc8ace303f4ccc165742ca</title>
<g id="a_edge6"><a xlink:href="dir_000004_000003.html" target="_top">
<path fill="none" stroke="#63b8ff" d="M142.96,-184.08C130.4,-176.1 111.69,-164.21 96.63,-154.65"/>
<polygon fill="#63b8ff" stroke="#63b8ff" points="98.51,-151.7 88.19,-149.29 94.76,-157.6 98.51,-151.7"/>
</a>
</g>
<g id="a_edge6&#45;headlabel"><a xlink:href="dir_000004_000003.html" target="_top" xlink:title="1">
<text text-anchor="middle" x="101.79" y="-146.91" font-family="Helvetica,sans-Serif" font-size="10.00" fill="#63b8ff">1</text>
</a>
</g>
</g>
<!-- dir_dc1cac501bd439d519324f1df382cae1 -->
<g id="node5" class="node">
<title>dir_dc1cac501bd439d519324f1df382cae1</title>
<g id="a_node5"><a xlink:href="dir_dc1cac501bd439d519324f1df382cae1.html" target="_top" xlink:title="help">
<polygon fill="#a2b4d6" stroke="#404040" points="314,-148 280,-148 280,-128 314,-128 314,-148"/>
<text text-anchor="middle" x="297" y="-134.5" font-family="Helvetica,sans-Serif" font-size="10.00">help</text>
</a>
</g>
</g>
<!-- dir_261c5c8db3e2632ea4bb1b96cd6e78dc&#45;&gt;dir_dc1cac501bd439d519324f1df382cae1 -->
<g id="edge5" class="edge">
<title>dir_261c5c8db3e2632ea4bb1b96cd6e78dc&#45;&gt;dir_dc1cac501bd439d519324f1df382cae1</title>
<g id="a_edge5"><a xlink:href="dir_000004_000007.html" target="_top">
<path fill="none" stroke="#63b8ff" d="M180.12,-184.08C204.47,-174.69 242.84,-159.89 268.92,-149.83"/>
<polygon fill="#63b8ff" stroke="#63b8ff" points="270.12,-153.12 278.19,-146.25 267.6,-146.59 270.12,-153.12"/>
</a>
</g>
<g id="a_edge5&#45;headlabel"><a xlink:href="dir_000004_000007.html" target="_top" xlink:title="1">
<text text-anchor="middle" x="269.2" y="-153.02" font-family="Helvetica,sans-Serif" font-size="10.00" fill="#63b8ff">1</text>
</a>
</g>
</g>
<!-- dir_9d7cbcd390d83bb8092815502b9393e2 -->
<g id="node6" class="node">
<title>dir_9d7cbcd390d83bb8092815502b9393e2</title>
<g id="a_node6"><a xlink:href="dir_9d7cbcd390d83bb8092815502b9393e2.html" target="_top" xlink:title="include">
<polygon fill="#a2b4d6" stroke="#404040" points="378.38,-148 331.62,-148 331.62,-128 378.38,-128 378.38,-148"/>
<text text-anchor="middle" x="355" y="-134.5" font-family="Helvetica,sans-Serif" font-size="10.00">include</text>
</a>
</g>
</g>
<!-- dir_261c5c8db3e2632ea4bb1b96cd6e78dc&#45;&gt;dir_9d7cbcd390d83bb8092815502b9393e2 -->
<g id="edge3" class="edge">
<title>dir_261c5c8db3e2632ea4bb1b96cd6e78dc&#45;&gt;dir_9d7cbcd390d83bb8092815502b9393e2</title>
<g id="a_edge3"><a xlink:href="dir_000004_000012.html" target="_top">
<path fill="none" stroke="#63b8ff" d="M188.85,-184.46C220.06,-176.07 269.28,-162.79 320.33,-148.72"/>
<polygon fill="#63b8ff" stroke="#63b8ff" points="321.07,-152.15 329.78,-146.11 319.21,-145.4 321.07,-152.15"/>
</a>
</g>
<g id="a_edge3&#45;headlabel"><a xlink:href="dir_000004_000012.html" target="_top" xlink:title="1">
<text text-anchor="middle" x="319.82" y="-151.94" font-family="Helvetica,sans-Serif" font-size="10.00" fill="#63b8ff">1</text>
</a>
</g>
</g>
<!-- dir_e4c64626919ae284a6143de39fd042e4 -->
<g id="node8" class="node">
<title>dir_e4c64626919ae284a6143de39fd042e4</title>
<g id="a_node8"><a xlink:href="dir_e4c64626919ae284a6143de39fd042e4.html" target="_top" xlink:title="pong">
<polygon fill="#a2b4d6" stroke="#404040" points="175.5,-148 138.5,-148 138.5,-128 175.5,-128 175.5,-148"/>
<text text-anchor="middle" x="157" y="-134.5" font-family="Helvetica,sans-Serif" font-size="10.00">pong</text>
</a>
</g>
</g>
<!-- dir_261c5c8db3e2632ea4bb1b96cd6e78dc&#45;&gt;dir_e4c64626919ae284a6143de39fd042e4 -->
<g id="edge7" class="edge">
<title>dir_261c5c8db3e2632ea4bb1b96cd6e78dc&#45;&gt;dir_e4c64626919ae284a6143de39fd042e4</title>
<g id="a_edge7"><a xlink:href="dir_000004_000016.html" target="_top">
<path fill="none" stroke="#63b8ff" d="M157,-184.08C157,-177.48 157,-168.21 157,-159.79"/>
<polygon fill="#63b8ff" stroke="#63b8ff" points="160.5,-159.99 157,-149.99 153.5,-159.99 160.5,-159.99"/>
</a>
</g>
<g id="a_edge7&#45;headlabel"><a xlink:href="dir_000004_000016.html" target="_top" xlink:title="1">
<text text-anchor="middle" x="163.34" y="-158.57" font-family="Helvetica,sans-Serif" font-size="10.00" fill="#63b8ff">1</text>
</a>
</g>
</g>
<!-- dir_55709f21cee890691a392e71066e61b8 -->
<g id="node9" class="node">
<title>dir_55709f21cee890691a392e71066e61b8</title>
<g id="a_node9"><a xlink:href="dir_55709f21cee890691a392e71066e61b8.html" target="_top" xlink:title="reaction_roles">
<polygon fill="#a2b4d6" stroke="#404040" points="197.38,-92 120.62,-92 120.62,-72 197.38,-72 197.38,-92"/>
<text text-anchor="middle" x="159" y="-78.5" font-family="Helvetica,sans-Serif" font-size="10.00">reaction_roles</text>
</a>
</g>
</g>
<!-- dir_261c5c8db3e2632ea4bb1b96cd6e78dc&#45;&gt;dir_55709f21cee890691a392e71066e61b8 -->
<g id="edge2" class="edge">
<title>dir_261c5c8db3e2632ea4bb1b96cd6e78dc&#45;&gt;dir_55709f21cee890691a392e71066e61b8</title>
<g id="a_edge2"><a xlink:href="dir_000004_000017.html" target="_top">
<path fill="none" stroke="#63b8ff" d="M149.02,-184.4C138.67,-172.18 122.66,-148.93 129,-128 131.88,-118.5 137.49,-109.18 143.09,-101.5"/>
<polygon fill="#63b8ff" stroke="#63b8ff" points="145.83,-103.69 149.28,-93.67 140.33,-99.35 145.83,-103.69"/>
</a>
</g>
<g id="a_edge2&#45;headlabel"><a xlink:href="dir_000004_000017.html" target="_top" xlink:title="2">
<text text-anchor="middle" x="146.76" y="-103.58" font-family="Helvetica,sans-Serif" font-size="10.00" fill="#63b8ff">2</text>
</a>
</g>
</g>
<!-- dir_45dc5c8d62ec8ca66ff85239c099c91b -->
<g id="node11" class="node">
<title>dir_45dc5c8d62ec8ca66ff85239c099c91b</title>
<g id="a_node11"><a xlink:href="dir_45dc5c8d62ec8ca66ff85239c099c91b.html" target="_top" xlink:title="set_channel">
<polygon fill="#a2b4d6" stroke="#404040" points="262.25,-148 193.75,-148 193.75,-128 262.25,-128 262.25,-148"/>
<text text-anchor="middle" x="228" y="-134.5" font-family="Helvetica,sans-Serif" font-size="10.00">set_channel</text>
</a>
</g>
</g>
<!-- dir_261c5c8db3e2632ea4bb1b96cd6e78dc&#45;&gt;dir_45dc5c8d62ec8ca66ff85239c099c91b -->
<g id="edge1" class="edge">
<title>dir_261c5c8db3e2632ea4bb1b96cd6e78dc&#45;&gt;dir_45dc5c8d62ec8ca66ff85239c099c91b</title>
<g id="a_edge1"><a xlink:href="dir_000004_000020.html" target="_top">
<path fill="none" stroke="#63b8ff" d="M168.72,-184.08C179.02,-176.25 194.25,-164.67 206.7,-155.2"/>
<polygon fill="#63b8ff" stroke="#63b8ff" points="208.5,-158.23 214.34,-149.39 204.26,-152.66 208.5,-158.23"/>
</a>
</g>
<g id="a_edge1&#45;headlabel"><a xlink:href="dir_000004_000020.html" target="_top" xlink:title="6">
<text text-anchor="middle" x="208.56" y="-158.25" font-family="Helvetica,sans-Serif" font-size="10.00" fill="#63b8ff">6</text>
</a>
</g>
</g>
<!-- dir_c51bb8760eda2ecf5deaef23809ed440&#45;&gt;dir_cac0b191d0d7d0dd67d730930ce5fa13 -->
<g id="edge8" class="edge">
<title>dir_c51bb8760eda2ecf5deaef23809ed440&#45;&gt;dir_cac0b191d0d7d0dd67d730930ce5fa13</title>
<g id="a_edge8"><a xlink:href="dir_000002_000000.html" target="_top">
<path fill="none" stroke="#63b8ff" d="M89.06,-71.51C96.44,-68.95 104.5,-66.26 112,-64 152.65,-51.75 200.52,-39.96 229.54,-33.11"/>
<polygon fill="#63b8ff" stroke="#63b8ff" points="230.34,-36.51 239.28,-30.83 228.74,-29.7 230.34,-36.51"/>
</a>
</g>
<g id="a_edge8&#45;headlabel"><a xlink:href="dir_000002_000000.html" target="_top" xlink:title="8">
<text text-anchor="middle" x="228.96" y="-36.25" font-family="Helvetica,sans-Serif" font-size="10.00" fill="#63b8ff">8</text>
</a>
</g>
</g>
<!-- dir_e071329bb2fc8ace303f4ccc165742ca&#45;&gt;dir_cac0b191d0d7d0dd67d730930ce5fa13 -->
<g id="edge11" class="edge">
<title>dir_e071329bb2fc8ace303f4ccc165742ca&#45;&gt;dir_cac0b191d0d7d0dd67d730930ce5fa13</title>
<g id="a_edge11"><a xlink:href="dir_000003_000000.html" target="_top">
<path fill="none" stroke="#63b8ff" d="M99.84,-133.76C129.19,-129.07 175.35,-117.89 206,-92 216.78,-82.89 212.74,-75.45 221,-64 225.93,-57.16 232.05,-50.28 237.79,-44.34"/>
<polygon fill="#63b8ff" stroke="#63b8ff" points="240.04,-47.02 244.66,-37.49 235.1,-42.07 240.04,-47.02"/>
</a>
</g>
<g id="a_edge11&#45;headlabel"><a xlink:href="dir_000003_000000.html" target="_top" xlink:title="1">
<text text-anchor="middle" x="240.57" y="-47" font-family="Helvetica,sans-Serif" font-size="10.00" fill="#63b8ff">1</text>
</a>
</g>
</g>
<!-- dir_e071329bb2fc8ace303f4ccc165742ca&#45;&gt;dir_c51bb8760eda2ecf5deaef23809ed440 -->
<g id="edge10" class="edge">
<title>dir_e071329bb2fc8ace303f4ccc165742ca&#45;&gt;dir_c51bb8760eda2ecf5deaef23809ed440</title>
<g id="a_edge10"><a xlink:href="dir_000003_000002.html" target="_top">
<path fill="none" stroke="#63b8ff" d="M70.43,-127.59C69.32,-120.93 67.79,-111.75 66.41,-103.44"/>
<polygon fill="#63b8ff" stroke="#63b8ff" points="69.89,-103.08 64.8,-93.79 62.99,-104.23 69.89,-103.08"/>
</a>
</g>
<g id="a_edge10&#45;headlabel"><a xlink:href="dir_000003_000002.html" target="_top" xlink:title="1">
<text text-anchor="middle" x="73.04" y="-101.17" font-family="Helvetica,sans-Serif" font-size="10.00" fill="#63b8ff">1</text>
</a>
</g>
</g>
<!-- dir_e071329bb2fc8ace303f4ccc165742ca&#45;&gt;dir_55709f21cee890691a392e71066e61b8 -->
<g id="edge9" class="edge">
<title>dir_e071329bb2fc8ace303f4ccc165742ca&#45;&gt;dir_55709f21cee890691a392e71066e61b8</title>
<g id="a_edge9"><a xlink:href="dir_000003_000017.html" target="_top">
<path fill="none" stroke="#63b8ff" d="M87.15,-127.59C100.05,-119.59 118.83,-107.93 133.96,-98.54"/>
<polygon fill="#63b8ff" stroke="#63b8ff" points="135.79,-101.53 142.44,-93.28 132.1,-95.58 135.79,-101.53"/>
</a>
</g>
<g id="a_edge9&#45;headlabel"><a xlink:href="dir_000003_000017.html" target="_top" xlink:title="1">
<text text-anchor="middle" x="135.52" y="-101.53" font-family="Helvetica,sans-Serif" font-size="10.00" fill="#63b8ff">1</text>
</a>
</g>
</g>
<!-- dir_dc1cac501bd439d519324f1df382cae1&#45;&gt;dir_cac0b191d0d7d0dd67d730930ce5fa13 -->
<g id="edge12" class="edge">
<title>dir_dc1cac501bd439d519324f1df382cae1&#45;&gt;dir_cac0b191d0d7d0dd67d730930ce5fa13</title>
<g id="a_edge12"><a xlink:href="dir_000007_000000.html" target="_top">
<path fill="none" stroke="#63b8ff" d="M293.5,-127.62C286.88,-109.84 272.36,-70.88 263.45,-47"/>
<polygon fill="#63b8ff" stroke="#63b8ff" points="266.79,-45.92 260.02,-37.77 260.23,-48.37 266.79,-45.92"/>
</a>
</g>
<g id="a_edge12&#45;headlabel"><a xlink:href="dir_000007_000000.html" target="_top" xlink:title="1">
<text text-anchor="middle" x="270.17" y="-43.38" font-family="Helvetica,sans-Serif" font-size="10.00" fill="#63b8ff">1</text>
</a>
</g>
</g>
<!-- dir_9d7cbcd390d83bb8092815502b9393e2&#45;&gt;dir_cac0b191d0d7d0dd67d730930ce5fa13 -->
<g id="edge13" class="edge">
<title>dir_9d7cbcd390d83bb8092815502b9393e2&#45;&gt;dir_cac0b191d0d7d0dd67d730930ce5fa13</title>
<g id="a_edge13"><a xlink:href="dir_000012_000000.html" target="_top">
<path fill="none" stroke="#63b8ff" d="M346.56,-127.62C330.05,-109.27 293.23,-68.37 271.98,-44.75"/>
<polygon fill="#63b8ff" stroke="#63b8ff" points="274.72,-42.57 265.43,-37.48 269.52,-47.25 274.72,-42.57"/>
</a>
</g>
<g id="a_edge13&#45;headlabel"><a xlink:href="dir_000012_000000.html" target="_top" xlink:title="1">
<text text-anchor="middle" x="278.23" y="-38.72" font-family="Helvetica,sans-Serif" font-size="10.00" fill="#63b8ff">1</text>
</a>
</g>
</g>
<!-- dir_4bf8f6c3c349d2a29524f93c7ce04644 -->
<g id="node7" class="node">
<title>dir_4bf8f6c3c349d2a29524f93c7ce04644</title>
<g id="a_node7"><a xlink:href="dir_4bf8f6c3c349d2a29524f93c7ce04644.html" target="_top" xlink:title="init_database">
<polygon fill="#a2b4d6" stroke="#404040" points="301.88,-204 228.12,-204 228.12,-184 301.88,-184 301.88,-204"/>
<text text-anchor="middle" x="265" y="-190.5" font-family="Helvetica,sans-Serif" font-size="10.00">init_database</text>
</a>
</g>
</g>
<!-- dir_4bf8f6c3c349d2a29524f93c7ce04644&#45;&gt;dir_cac0b191d0d7d0dd67d730930ce5fa13 -->
<g id="edge14" class="edge">
<title>dir_4bf8f6c3c349d2a29524f93c7ce04644&#45;&gt;dir_cac0b191d0d7d0dd67d730930ce5fa13</title>
<g id="a_edge14"><a xlink:href="dir_000014_000000.html" target="_top">
<path fill="none" stroke="#63b8ff" d="M302.31,-184.22C334.38,-175.82 377,-162.35 387,-148 392.08,-140.71 390.83,-136.02 387,-128 365.55,-83.02 312.98,-52.61 281.34,-37.68"/>
<polygon fill="#63b8ff" stroke="#63b8ff" points="283.04,-34.61 272.49,-33.68 280.16,-40.99 283.04,-34.61"/>
</a>
</g>
<g id="a_edge14&#45;headlabel"><a xlink:href="dir_000014_000000.html" target="_top" xlink:title="1">
<text text-anchor="middle" x="286.11" y="-29.38" font-family="Helvetica,sans-Serif" font-size="10.00" fill="#63b8ff">1</text>
</a>
</g>
</g>
<!-- dir_e4c64626919ae284a6143de39fd042e4&#45;&gt;dir_cac0b191d0d7d0dd67d730930ce5fa13 -->
<g id="edge15" class="edge">
<title>dir_e4c64626919ae284a6143de39fd042e4&#45;&gt;dir_cac0b191d0d7d0dd67d730930ce5fa13</title>
<g id="a_edge15"><a xlink:href="dir_000016_000000.html" target="_top">
<path fill="none" stroke="#63b8ff" d="M174.72,-127.59C188.61,-119.55 207.75,-106.93 221,-92 232.96,-78.52 242.35,-60.24 248.37,-46.49"/>
<polygon fill="#63b8ff" stroke="#63b8ff" points="251.45,-48.2 252.05,-37.62 244.99,-45.52 251.45,-48.2"/>
</a>
</g>
<g id="a_edge15&#45;headlabel"><a xlink:href="dir_000016_000000.html" target="_top" xlink:title="1">
<text text-anchor="middle" x="253.28" y="-47.71" font-family="Helvetica,sans-Serif" font-size="10.00" fill="#63b8ff">1</text>
</a>
</g>
</g>
<!-- dir_55709f21cee890691a392e71066e61b8&#45;&gt;dir_cac0b191d0d7d0dd67d730930ce5fa13 -->
<g id="edge16" class="edge">
<title>dir_55709f21cee890691a392e71066e61b8&#45;&gt;dir_cac0b191d0d7d0dd67d730930ce5fa13</title>
<g id="a_edge16"><a xlink:href="dir_000017_000000.html" target="_top">
<path fill="none" stroke="#63b8ff" d="M175.9,-71.59C191.09,-63.14 213.61,-50.6 230.91,-40.97"/>
<polygon fill="#63b8ff" stroke="#63b8ff" points="232.53,-44.07 239.57,-36.15 229.13,-37.95 232.53,-44.07"/>
</a>
</g>
<g id="a_edge16&#45;headlabel"><a xlink:href="dir_000017_000000.html" target="_top" xlink:title="5">
<text text-anchor="middle" x="232.1" y="-44.06" font-family="Helvetica,sans-Serif" font-size="10.00" fill="#63b8ff">5</text>
</a>
</g>
</g>
<!-- dir_4664096a0ece9a7aba46a7b7bb421972 -->
<g id="node10" class="node">
<title>dir_4664096a0ece9a7aba46a7b7bb421972</title>
<g id="a_node10"><a xlink:href="dir_4664096a0ece9a7aba46a7b7bb421972.html" target="_top" xlink:title="resources">
<polygon fill="#a2b4d6" stroke="#404040" points="378.38,-204 319.62,-204 319.62,-184 378.38,-184 378.38,-204"/>
<text text-anchor="middle" x="349" y="-190.5" font-family="Helvetica,sans-Serif" font-size="10.00">resources</text>
</a>
</g>
</g>
<!-- dir_4664096a0ece9a7aba46a7b7bb421972&#45;&gt;dir_cac0b191d0d7d0dd67d730930ce5fa13 -->
<g id="edge17" class="edge">
<title>dir_4664096a0ece9a7aba46a7b7bb421972&#45;&gt;dir_cac0b191d0d7d0dd67d730930ce5fa13</title>
<g id="a_edge17"><a xlink:href="dir_000019_000000.html" target="_top">
<path fill="none" stroke="#63b8ff" d="M362.63,-183.73C373.14,-175.68 386.9,-162.97 393,-148 396.36,-139.77 395.64,-136.49 393,-128 382.76,-95.04 375.98,-85.53 349,-64 329.34,-48.31 302.17,-38.53 282.28,-33"/>
<polygon fill="#63b8ff" stroke="#63b8ff" points="283.26,-29.64 272.7,-30.53 281.51,-36.42 283.26,-29.64"/>
</a>
</g>
<g id="a_edge17&#45;headlabel"><a xlink:href="dir_000019_000000.html" target="_top" xlink:title="1">
<text text-anchor="middle" x="285.99" y="-23.91" font-family="Helvetica,sans-Serif" font-size="10.00" fill="#63b8ff">1</text>
</a>
</g>
</g>
<!-- dir_45dc5c8d62ec8ca66ff85239c099c91b&#45;&gt;dir_cac0b191d0d7d0dd67d730930ce5fa13 -->
<g id="edge18" class="edge">
<title>dir_45dc5c8d62ec8ca66ff85239c099c91b&#45;&gt;dir_cac0b191d0d7d0dd67d730930ce5fa13</title>
<g id="a_edge18"><a xlink:href="dir_000020_000000.html" target="_top">
<path fill="none" stroke="#63b8ff" d="M230.84,-127.73C233.58,-118.66 237.77,-104.44 241,-92 244.88,-77.05 248.79,-60.03 251.64,-47.16"/>
<polygon fill="#63b8ff" stroke="#63b8ff" points="254.98,-48.29 253.7,-37.77 248.14,-46.8 254.98,-48.29"/>
</a>
</g>
<g id="a_edge18&#45;headlabel"><a xlink:href="dir_000020_000000.html" target="_top" xlink:title="12">
<text text-anchor="middle" x="257.31" y="-47.43" font-family="Helvetica,sans-Serif" font-size="10.00" fill="#63b8ff">12</text>
</a>
</g>
</g>
</g>
</svg>
