<?xml version="1.0" encoding="UTF-8" standalone="no"?>
<!DOCTYPE svg PUBLIC "-//W3C//DTD SVG 1.1//EN"
 "http://www.w3.org/Graphics/SVG/1.1/DTD/svg11.dtd">
<!-- Generated by graphviz version 12.1.2 (0)
 -->
<!-- Title: src/bot_library/commands Pages: 1 -->
<svg width="821pt" height="256pt"
 viewBox="0.00 0.00 821.00 256.00" xmlns="http://www.w3.org/2000/svg" xmlns:xlink="http://www.w3.org/1999/xlink">
<g id="graph0" class="graph" transform="scale(1 1) rotate(0) translate(4 252)">
<title>src/bot_library/commands</title>
<g id="clust1" class="cluster">
<title>clusterdir_be3b34367be430ae387384d9c29f3df4</title>
<g id="a_clust1"><a xlink:href="dir_be3b34367be430ae387384d9c29f3df4.html" target="_top" xlink:title="bot_library">
<polygon fill="#edf0f7" stroke="#7f7f7f" stroke-dasharray="5,2" points="8,-8 8,-240 805,-240 805,-8 8,-8"/>
<text text-anchor="middle" x="406.5" y="-226.5" font-family="Helvetica,sans-Serif" font-size="10.00">bot_library</text>
</a>
</g>
</g>
<g id="clust2" class="cluster">
<title>clusterdir_261c5c8db3e2632ea4bb1b96cd6e78dc</title>
<g id="a_clust2"><a xlink:href="dir_261c5c8db3e2632ea4bb1b96cd6e78dc.html" target="_top">
<polygon fill="#edf0f7" stroke="#404040" stroke-width="2" points="16,-64 16,-212 785,-212 785,-64 16,-64"/>
</a>
</g>
</g>
<!-- dir_cac0b191d0d7d0dd67d730930ce5fa13 -->
<g id="node1" class="node">
<title>dir_cac0b191d0d7d0dd67d730930ce5fa13</title>
<g id="a_node1"><a xlink:href="dir_cac0b191d0d7d0dd67d730930ce5fa13.html" target="_top" xlink:title="bot">
<polygon fill="#a2b4d6" stroke="red" points="417.75,-36 388.25,-36 388.25,-16 417.75,-16 417.75,-36"/>
<text text-anchor="middle" x="403" y="-22.5" font-family="Helvetica,sans-Serif" font-size="10.00">bot</text>
</a>
</g>
</g>
<!-- dir_261c5c8db3e2632ea4bb1b96cd6e78dc -->
<g id="node2" class="node">
<title>dir_261c5c8db3e2632ea4bb1b96cd6e78dc</title>
<text text-anchor="middle" x="304" y="-190.5" font-family="Helvetica,sans-Serif" font-size="10.00">commands</text>
</g>
<!-- dir_adcd489d00d8ca37449f57b9cfd13f65 -->
<g id="node3" class="node">
<title>dir_adcd489d00d8ca37449f57b9cfd13f65</title>
<g id="a_node3"><a xlink:href="dir_adcd489d00d8ca37449f57b9cfd13f65.html" target="_top" xlink:title="challenge_badge">
<polygon fill="#a2b4d6" stroke="#404040" points="304.38,-92 215.62,-92 215.62,-72 304.38,-72 304.38,-92"/>
<text text-anchor="middle" x="260" y="-78.5" font-family="Helvetica,sans-Serif" font-size="10.00">challenge_badge</text>
</a>
</g>
</g>
<!-- dir_261c5c8db3e2632ea4bb1b96cd6e78dc&#45;&gt;dir_adcd489d00d8ca37449f57b9cfd13f65 -->
<g id="edge8" class="edge">
<title>dir_261c5c8db3e2632ea4bb1b96cd6e78dc&#45;&gt;dir_adcd489d00d8ca37449f57b9cfd13f65</title>
<g id="a_edge8"><a xlink:href="dir_000005_000002.html" target="_top">
<path fill="none" stroke="#63b8ff" d="M272.04,-188.28C231.13,-181.51 163.77,-167.66 149,-148 129.53,-122.08 167.84,-104.65 204.65,-94.42"/>
<polygon fill="#63b8ff" stroke="#63b8ff" points="205.2,-97.9 213.99,-91.99 203.43,-91.13 205.2,-97.9"/>
</a>
</g>
<g id="a_edge8&#45;headlabel"><a xlink:href="dir_000005_000002.html" target="_top" xlink:title="10">
<text text-anchor="middle" x="203.9" y="-97.67" font-family="Helvetica,sans-Serif" font-size="10.00" fill="#63b8ff">10</text>
</a>
</g>
</g>
<!-- dir_c51bb8760eda2ecf5deaef23809ed440 -->
<g id="node4" class="node">
<title>dir_c51bb8760eda2ecf5deaef23809ed440</title>
<g id="a_node4"><a xlink:href="dir_c51bb8760eda2ecf5deaef23809ed440.html" target="_top" xlink:title="challenge_role">
<polygon fill="#a2b4d6" stroke="#404040" points="197.12,-92 118.88,-92 118.88,-72 197.12,-72 197.12,-92"/>
<text text-anchor="middle" x="158" y="-78.5" font-family="Helvetica,sans-Serif" font-size="10.00">challenge_role</text>
</a>
</g>
</g>
<!-- dir_261c5c8db3e2632ea4bb1b96cd6e78dc&#45;&gt;dir_c51bb8760eda2ecf5deaef23809ed440 -->
<g id="edge9" class="edge">
<title>dir_261c5c8db3e2632ea4bb1b96cd6e78dc&#45;&gt;dir_c51bb8760eda2ecf5deaef23809ed440</title>
<g id="a_edge9"><a xlink:href="dir_000005_000003.html" target="_top">
<path fill="none" stroke="#63b8ff" d="M272.04,-188.83C229,-182.49 155.93,-168.89 140,-148 129.82,-134.64 136.69,-115.85 144.71,-101.9"/>
<polygon fill="#63b8ff" stroke="#63b8ff" points="147.56,-103.94 149.99,-93.63 141.66,-100.18 147.56,-103.94"/>
</a>
</g>
<g id="a_edge9&#45;headlabel"><a xlink:href="dir_000005_000003.html" target="_top" xlink:title="2">
<text text-anchor="middle" x="148.84" y="-103.72" font-family="Helvetica,sans-Serif" font-size="10.00" fill="#63b8ff">2</text>
</a>
</g>
</g>
<!-- dir_e071329bb2fc8ace303f4ccc165742ca -->
<g id="node5" class="node">
<title>dir_e071329bb2fc8ace303f4ccc165742ca</title>
<g id="a_node5"><a xlink:href="dir_e071329bb2fc8ace303f4ccc165742ca.html" target="_top" xlink:title="clean_up">
<polygon fill="#a2b4d6" stroke="#404040" points="99.5,-148 44.5,-148 44.5,-128 99.5,-128 99.5,-148"/>
<text text-anchor="middle" x="72" y="-134.5" font-family="Helvetica,sans-Serif" font-size="10.00">clean_up</text>
</a>
</g>
</g>
<!-- dir_261c5c8db3e2632ea4bb1b96cd6e78dc&#45;&gt;dir_e071329bb2fc8ace303f4ccc165742ca -->
<g id="edge14" class="edge">
<title>dir_261c5c8db3e2632ea4bb1b96cd6e78dc&#45;&gt;dir_e071329bb2fc8ace303f4ccc165742ca</title>
<g id="a_edge14"><a xlink:href="dir_000005_000004.html" target="_top">
<path fill="none" stroke="#63b8ff" d="M272.23,-185.6C230.22,-175.83 156.23,-158.6 110.91,-148.06"/>
<polygon fill="#63b8ff" stroke="#63b8ff" points="111.78,-144.66 101.24,-145.81 110.19,-151.48 111.78,-144.66"/>
</a>
</g>
<g id="a_edge14&#45;headlabel"><a xlink:href="dir_000005_000004.html" target="_top" xlink:title="1">
<text text-anchor="middle" x="114.45" y="-138.87" font-family="Helvetica,sans-Serif" font-size="10.00" fill="#63b8ff">1</text>
</a>
</g>
</g>
<!-- dir_d44c2f9991353a7b899d805b4059ed96 -->
<g id="node6" class="node">
<title>dir_d44c2f9991353a7b899d805b4059ed96</title>
<g id="a_node6"><a xlink:href="dir_d44c2f9991353a7b899d805b4059ed96.html" target="_top" xlink:title="flip">
<polygon fill="#a2b4d6" stroke="#404040" points="186.4,-148 157.6,-148 157.6,-128 186.4,-128 186.4,-148"/>
<text text-anchor="middle" x="172" y="-134.5" font-family="Helvetica,sans-Serif" font-size="10.00">flip</text>
</a>
</g>
</g>
<!-- dir_261c5c8db3e2632ea4bb1b96cd6e78dc&#45;&gt;dir_d44c2f9991353a7b899d805b4059ed96 -->
<g id="edge11" class="edge">
<title>dir_261c5c8db3e2632ea4bb1b96cd6e78dc&#45;&gt;dir_d44c2f9991353a7b899d805b4059ed96</title>
<g id="a_edge11"><a xlink:href="dir_000005_000008.html" target="_top">
<path fill="none" stroke="#63b8ff" d="M282.2,-184.08C258.83,-174.52 221.78,-159.37 197.19,-149.3"/>
<polygon fill="#63b8ff" stroke="#63b8ff" points="198.84,-146.2 188.25,-145.65 196.18,-152.68 198.84,-146.2"/>
</a>
</g>
<g id="a_edge11&#45;headlabel"><a xlink:href="dir_000005_000008.html" target="_top" xlink:title="1">
<text text-anchor="middle" x="201.84" y="-140.86" font-family="Helvetica,sans-Serif" font-size="10.00" fill="#63b8ff">1</text>
</a>
</g>
</g>
<!-- dir_dc1cac501bd439d519324f1df382cae1 -->
<g id="node7" class="node">
<title>dir_dc1cac501bd439d519324f1df382cae1</title>
<g id="a_node7"><a xlink:href="dir_dc1cac501bd439d519324f1df382cae1.html" target="_top" xlink:title="help">
<polygon fill="#a2b4d6" stroke="#404040" points="346,-148 312,-148 312,-128 346,-128 346,-148"/>
<text text-anchor="middle" x="329" y="-134.5" font-family="Helvetica,sans-Serif" font-size="10.00">help</text>
</a>
</g>
</g>
<!-- dir_261c5c8db3e2632ea4bb1b96cd6e78dc&#45;&gt;dir_dc1cac501bd439d519324f1df382cae1 -->
<g id="edge12" class="edge">
<title>dir_261c5c8db3e2632ea4bb1b96cd6e78dc&#45;&gt;dir_dc1cac501bd439d519324f1df382cae1</title>
<g id="a_edge12"><a xlink:href="dir_000005_000009.html" target="_top">
<path fill="none" stroke="#63b8ff" d="M308.13,-184.08C311.29,-177.25 315.78,-167.56 319.78,-158.91"/>
<polygon fill="#63b8ff" stroke="#63b8ff" points="322.95,-160.39 323.98,-149.85 316.6,-157.45 322.95,-160.39"/>
</a>
</g>
<g id="a_edge12&#45;headlabel"><a xlink:href="dir_000005_000009.html" target="_top" xlink:title="1">
<text text-anchor="middle" x="324.65" y="-159.98" font-family="Helvetica,sans-Serif" font-size="10.00" fill="#63b8ff">1</text>
</a>
</g>
</g>
<!-- dir_9d7cbcd390d83bb8092815502b9393e2 -->
<g id="node8" class="node">
<title>dir_9d7cbcd390d83bb8092815502b9393e2</title>
<g id="a_node8"><a xlink:href="dir_9d7cbcd390d83bb8092815502b9393e2.html" target="_top" xlink:title="include">
<polygon fill="#a2b4d6" stroke="#404040" points="410.38,-148 363.62,-148 363.62,-128 410.38,-128 410.38,-148"/>
<text text-anchor="middle" x="387" y="-134.5" font-family="Helvetica,sans-Serif" font-size="10.00">include</text>
</a>
</g>
</g>
<!-- dir_261c5c8db3e2632ea4bb1b96cd6e78dc&#45;&gt;dir_9d7cbcd390d83bb8092815502b9393e2 -->
<g id="edge7" class="edge">
<title>dir_261c5c8db3e2632ea4bb1b96cd6e78dc&#45;&gt;dir_9d7cbcd390d83bb8092815502b9393e2</title>
<g id="a_edge7"><a xlink:href="dir_000005_000014.html" target="_top">
<path fill="none" stroke="#63b8ff" d="M317.71,-184.08C329.98,-176.1 348.25,-164.21 362.95,-154.65"/>
<polygon fill="#63b8ff" stroke="#63b8ff" points="364.69,-157.69 371.17,-149.3 360.88,-151.82 364.69,-157.69"/>
</a>
</g>
<g id="a_edge7&#45;headlabel"><a xlink:href="dir_000005_000014.html" target="_top" xlink:title="1">
<text text-anchor="middle" x="364.5" y="-157.7" font-family="Helvetica,sans-Serif" font-size="10.00" fill="#63b8ff">1</text>
</a>
</g>
</g>
<!-- dir_dc3bc99bc501644e197c4d2698e0fc8f -->
<g id="node10" class="node">
<title>dir_dc3bc99bc501644e197c4d2698e0fc8f</title>
<g id="a_node10"><a xlink:href="dir_dc3bc99bc501644e197c4d2698e0fc8f.html" target="_top" xlink:title="invite">
<polygon fill="#a2b4d6" stroke="#404040" points="467.62,-148 428.38,-148 428.38,-128 467.62,-128 467.62,-148"/>
<text text-anchor="middle" x="448" y="-134.5" font-family="Helvetica,sans-Serif" font-size="10.00">invite</text>
</a>
</g>
</g>
<!-- dir_261c5c8db3e2632ea4bb1b96cd6e78dc&#45;&gt;dir_dc3bc99bc501644e197c4d2698e0fc8f -->
<g id="edge13" class="edge">
<title>dir_261c5c8db3e2632ea4bb1b96cd6e78dc&#45;&gt;dir_dc3bc99bc501644e197c4d2698e0fc8f</title>
<g id="a_edge13"><a xlink:href="dir_000005_000018.html" target="_top">
<path fill="none" stroke="#63b8ff" d="M327.78,-184.08C352.24,-174.91 390.45,-160.58 417.21,-150.55"/>
<polygon fill="#63b8ff" stroke="#63b8ff" points="418.35,-153.85 426.49,-147.07 415.9,-147.3 418.35,-153.85"/>
</a>
</g>
<g id="a_edge13&#45;headlabel"><a xlink:href="dir_000005_000018.html" target="_top" xlink:title="1">
<text text-anchor="middle" x="417.4" y="-153.74" font-family="Helvetica,sans-Serif" font-size="10.00" fill="#63b8ff">1</text>
</a>
</g>
</g>
<!-- dir_7cc000a715c59c08d2b57e79abb2c661 -->
<g id="node11" class="node">
<title>dir_7cc000a715c59c08d2b57e79abb2c661</title>
<g id="a_node11"><a xlink:href="dir_7cc000a715c59c08d2b57e79abb2c661.html" target="_top" xlink:title="portal">
<polygon fill="#a2b4d6" stroke="#404040" points="526,-148 486,-148 486,-128 526,-128 526,-148"/>
<text text-anchor="middle" x="506" y="-134.5" font-family="Helvetica,sans-Serif" font-size="10.00">portal</text>
</a>
</g>
</g>
<!-- dir_261c5c8db3e2632ea4bb1b96cd6e78dc&#45;&gt;dir_7cc000a715c59c08d2b57e79abb2c661 -->
<g id="edge6" class="edge">
<title>dir_261c5c8db3e2632ea4bb1b96cd6e78dc&#45;&gt;dir_7cc000a715c59c08d2b57e79abb2c661</title>
<g id="a_edge6"><a xlink:href="dir_000005_000019.html" target="_top">
<path fill="none" stroke="#63b8ff" d="M335.69,-185.23C368.3,-177.13 420.81,-163.8 474.92,-148.5"/>
<polygon fill="#63b8ff" stroke="#63b8ff" points="475.64,-151.93 484.3,-145.83 473.72,-145.2 475.64,-151.93"/>
</a>
</g>
<g id="a_edge6&#45;headlabel"><a xlink:href="dir_000005_000019.html" target="_top" xlink:title="10">
<text text-anchor="middle" x="474.41" y="-151.73" font-family="Helvetica,sans-Serif" font-size="10.00" fill="#63b8ff">10</text>
</a>
</g>
</g>
<!-- dir_3f526b2c6f77046a2bd3d6f486c710c8 -->
<g id="node12" class="node">
<title>dir_3f526b2c6f77046a2bd3d6f486c710c8</title>
<g id="a_node12"><a xlink:href="dir_3f526b2c6f77046a2bd3d6f486c710c8.html" target="_top" xlink:title="profile">
<polygon fill="#a2b4d6" stroke="#404040" points="247.12,-148 204.88,-148 204.88,-128 247.12,-128 247.12,-148"/>
<text text-anchor="middle" x="226" y="-134.5" font-family="Helvetica,sans-Serif" font-size="10.00">profile</text>
</a>
</g>
</g>
<!-- dir_261c5c8db3e2632ea4bb1b96cd6e78dc&#45;&gt;dir_3f526b2c6f77046a2bd3d6f486c710c8 -->
<g id="edge3" class="edge">
<title>dir_261c5c8db3e2632ea4bb1b96cd6e78dc&#45;&gt;dir_3f526b2c6f77046a2bd3d6f486c710c8</title>
<g id="a_edge3"><a xlink:href="dir_000005_000020.html" target="_top">
<path fill="none" stroke="#63b8ff" d="M291.12,-184.08C279.7,-176.18 262.75,-164.44 249,-154.93"/>
<polygon fill="#63b8ff" stroke="#63b8ff" points="251.15,-152.15 240.93,-149.34 247.16,-157.91 251.15,-152.15"/>
</a>
</g>
<g id="a_edge3&#45;headlabel"><a xlink:href="dir_000005_000020.html" target="_top" xlink:title="1">
<text text-anchor="middle" x="254.47" y="-147.5" font-family="Helvetica,sans-Serif" font-size="10.00" fill="#63b8ff">1</text>
</a>
</g>
</g>
<!-- dir_55709f21cee890691a392e71066e61b8 -->
<g id="node13" class="node">
<title>dir_55709f21cee890691a392e71066e61b8</title>
<g id="a_node13"><a xlink:href="dir_55709f21cee890691a392e71066e61b8.html" target="_top" xlink:title="reaction_roles">
<polygon fill="#a2b4d6" stroke="#404040" points="100.38,-92 23.62,-92 23.62,-72 100.38,-72 100.38,-92"/>
<text text-anchor="middle" x="62" y="-78.5" font-family="Helvetica,sans-Serif" font-size="10.00">reaction_roles</text>
</a>
</g>
</g>
<!-- dir_261c5c8db3e2632ea4bb1b96cd6e78dc&#45;&gt;dir_55709f21cee890691a392e71066e61b8 -->
<g id="edge5" class="edge">
<title>dir_261c5c8db3e2632ea4bb1b96cd6e78dc&#45;&gt;dir_55709f21cee890691a392e71066e61b8</title>
<g id="a_edge5"><a xlink:href="dir_000005_000021.html" target="_top">
<path fill="none" stroke="#63b8ff" d="M272.15,-192.57C207.82,-190.96 65.94,-183.39 36,-148 24.52,-134.43 34.64,-115.15 45.43,-101.11"/>
<polygon fill="#63b8ff" stroke="#63b8ff" points="48.04,-103.44 51.78,-93.53 42.68,-98.95 48.04,-103.44"/>
</a>
</g>
<g id="a_edge5&#45;headlabel"><a xlink:href="dir_000005_000021.html" target="_top" xlink:title="2">
<text text-anchor="middle" x="48.89" y="-103.36" font-family="Helvetica,sans-Serif" font-size="10.00" fill="#63b8ff">2</text>
</a>
</g>
</g>
<!-- dir_4664096a0ece9a7aba46a7b7bb421972 -->
<g id="node14" class="node">
<title>dir_4664096a0ece9a7aba46a7b7bb421972</title>
<g id="a_node14"><a xlink:href="dir_4664096a0ece9a7aba46a7b7bb421972.html" target="_top" xlink:title="resources">
<polygon fill="#a2b4d6" stroke="#404040" points="602.38,-148 543.62,-148 543.62,-128 602.38,-128 602.38,-148"/>
<text text-anchor="middle" x="573" y="-134.5" font-family="Helvetica,sans-Serif" font-size="10.00">resources</text>
</a>
</g>
</g>
<!-- dir_261c5c8db3e2632ea4bb1b96cd6e78dc&#45;&gt;dir_4664096a0ece9a7aba46a7b7bb421972 -->
<g id="edge4" class="edge">
<title>dir_261c5c8db3e2632ea4bb1b96cd6e78dc&#45;&gt;dir_4664096a0ece9a7aba46a7b7bb421972</title>
<g id="a_edge4"><a xlink:href="dir_000005_000024.html" target="_top">
<path fill="none" stroke="#63b8ff" d="M335.84,-187.22C378.38,-179.4 456.35,-164.75 532.01,-148.58"/>
<polygon fill="#63b8ff" stroke="#63b8ff" points="532.63,-152.03 541.68,-146.51 531.16,-145.19 532.63,-152.03"/>
</a>
</g>
<g id="a_edge4&#45;headlabel"><a xlink:href="dir_000005_000024.html" target="_top" xlink:title="2">
<text text-anchor="middle" x="531.2" y="-151.74" font-family="Helvetica,sans-Serif" font-size="10.00" fill="#63b8ff">2</text>
</a>
</g>
</g>
<!-- dir_01a9593c77408e73511ed5f78e4e0ebc -->
<g id="node15" class="node">
<title>dir_01a9593c77408e73511ed5f78e4e0ebc</title>
<g id="a_node15"><a xlink:href="dir_01a9593c77408e73511ed5f78e4e0ebc.html" target="_top" xlink:title="roll">
<polygon fill="#a2b4d6" stroke="#404040" points="294.4,-148 265.6,-148 265.6,-128 294.4,-128 294.4,-148"/>
<text text-anchor="middle" x="280" y="-134.5" font-family="Helvetica,sans-Serif" font-size="10.00">roll</text>
</a>
</g>
</g>
<!-- dir_261c5c8db3e2632ea4bb1b96cd6e78dc&#45;&gt;dir_01a9593c77408e73511ed5f78e4e0ebc -->
<g id="edge1" class="edge">
<title>dir_261c5c8db3e2632ea4bb1b96cd6e78dc&#45;&gt;dir_01a9593c77408e73511ed5f78e4e0ebc</title>
<g id="a_edge1"><a xlink:href="dir_000005_000025.html" target="_top">
<path fill="none" stroke="#63b8ff" d="M300.04,-184.08C297,-177.25 292.69,-167.56 288.85,-158.91"/>
<polygon fill="#63b8ff" stroke="#63b8ff" points="292.09,-157.58 284.83,-149.86 285.69,-160.42 292.09,-157.58"/>
</a>
</g>
<g id="a_edge1&#45;headlabel"><a xlink:href="dir_000005_000025.html" target="_top" xlink:title="1">
<text text-anchor="middle" x="295.53" y="-154.82" font-family="Helvetica,sans-Serif" font-size="10.00" fill="#63b8ff">1</text>
</a>
</g>
</g>
<!-- dir_25fa05427a0fbbf83099686a4dfd3c98 -->
<g id="node16" class="node">
<title>dir_25fa05427a0fbbf83099686a4dfd3c98</title>
<g id="a_node16"><a xlink:href="dir_25fa05427a0fbbf83099686a4dfd3c98.html" target="_top" xlink:title="server_details">
<polygon fill="#a2b4d6" stroke="#404040" points="697.38,-148 620.62,-148 620.62,-128 697.38,-128 697.38,-148"/>
<text text-anchor="middle" x="659" y="-134.5" font-family="Helvetica,sans-Serif" font-size="10.00">server_details</text>
</a>
</g>
</g>
<!-- dir_261c5c8db3e2632ea4bb1b96cd6e78dc&#45;&gt;dir_25fa05427a0fbbf83099686a4dfd3c98 -->
<g id="edge2" class="edge">
<title>dir_261c5c8db3e2632ea4bb1b96cd6e78dc&#45;&gt;dir_25fa05427a0fbbf83099686a4dfd3c98</title>
<g id="a_edge2"><a xlink:href="dir_000005_000026.html" target="_top">
<path fill="none" stroke="#63b8ff" d="M335.89,-188.75C389.83,-181.47 502.78,-165.84 609,-148.27"/>
<polygon fill="#63b8ff" stroke="#63b8ff" points="609.47,-151.74 618.76,-146.65 608.32,-144.84 609.47,-151.74"/>
</a>
</g>
<g id="a_edge2&#45;headlabel"><a xlink:href="dir_000005_000026.html" target="_top" xlink:title="1">
<text text-anchor="middle" x="607.88" y="-151.39" font-family="Helvetica,sans-Serif" font-size="10.00" fill="#63b8ff">1</text>
</a>
</g>
</g>
<!-- dir_cc7ce3d766bf0a0ad188e6b0650c2ecf -->
<g id="node17" class="node">
<title>dir_cc7ce3d766bf0a0ad188e6b0650c2ecf</title>
<g id="a_node17"><a xlink:href="dir_cc7ce3d766bf0a0ad188e6b0650c2ecf.html" target="_top" xlink:title="set_status">
<polygon fill="#a2b4d6" stroke="#404040" points="776.88,-148 715.12,-148 715.12,-128 776.88,-128 776.88,-148"/>
<text text-anchor="middle" x="746" y="-134.5" font-family="Helvetica,sans-Serif" font-size="10.00">set_status</text>
</a>
</g>
</g>
<!-- dir_261c5c8db3e2632ea4bb1b96cd6e78dc&#45;&gt;dir_cc7ce3d766bf0a0ad188e6b0650c2ecf -->
<g id="edge10" class="edge">
<title>dir_261c5c8db3e2632ea4bb1b96cd6e78dc&#45;&gt;dir_cc7ce3d766bf0a0ad188e6b0650c2ecf</title>
<g id="a_edge10"><a xlink:href="dir_000005_000027.html" target="_top">
<path fill="none" stroke="#63b8ff" d="M335.95,-190.62C402.49,-185.42 560.9,-171.69 703.91,-148.17"/>
<polygon fill="#63b8ff" stroke="#63b8ff" points="704.28,-151.66 713.56,-146.56 703.12,-144.76 704.28,-151.66"/>
</a>
</g>
<g id="a_edge10&#45;headlabel"><a xlink:href="dir_000005_000027.html" target="_top" xlink:title="1">
<text text-anchor="middle" x="702.69" y="-151.3" font-family="Helvetica,sans-Serif" font-size="10.00" fill="#63b8ff">1</text>
</a>
</g>
</g>
<!-- dir_adcd489d00d8ca37449f57b9cfd13f65&#45;&gt;dir_cac0b191d0d7d0dd67d730930ce5fa13 -->
<g id="edge15" class="edge">
<title>dir_adcd489d00d8ca37449f57b9cfd13f65&#45;&gt;dir_cac0b191d0d7d0dd67d730930ce5fa13</title>
<g id="a_edge15"><a xlink:href="dir_000002_000000.html" target="_top">
<path fill="none" stroke="#63b8ff" d="M284.91,-71.59C310.84,-61.8 351.25,-46.54 377.43,-36.66"/>
<polygon fill="#63b8ff" stroke="#63b8ff" points="378.48,-40 386.6,-33.19 376.01,-33.45 378.48,-40"/>
</a>
</g>
<g id="a_edge15&#45;headlabel"><a xlink:href="dir_000002_000000.html" target="_top" xlink:title="13">
<text text-anchor="middle" x="377.54" y="-39.89" font-family="Helvetica,sans-Serif" font-size="10.00" fill="#63b8ff">13</text>
</a>
</g>
</g>
<!-- dir_c51bb8760eda2ecf5deaef23809ed440&#45;&gt;dir_cac0b191d0d7d0dd67d730930ce5fa13 -->
<g id="edge16" class="edge">
<title>dir_c51bb8760eda2ecf5deaef23809ed440&#45;&gt;dir_cac0b191d0d7d0dd67d730930ce5fa13</title>
<g id="a_edge16"><a xlink:href="dir_000003_000000.html" target="_top">
<path fill="none" stroke="#63b8ff" d="M182.96,-71.54C190.6,-68.87 199.08,-66.11 207,-64 266.94,-48.04 338.95,-36.3 376.8,-30.69"/>
<polygon fill="#63b8ff" stroke="#63b8ff" points="376.94,-34.2 386.33,-29.3 375.93,-27.28 376.94,-34.2"/>
</a>
</g>
<g id="a_edge16&#45;headlabel"><a xlink:href="dir_000003_000000.html" target="_top" xlink:title="8">
<text text-anchor="middle" x="375.29" y="-33.81" font-family="Helvetica,sans-Serif" font-size="10.00" fill="#63b8ff">8</text>
</a>
</g>
</g>
<!-- dir_e071329bb2fc8ace303f4ccc165742ca&#45;&gt;dir_cac0b191d0d7d0dd67d730930ce5fa13 -->
<g id="edge19" class="edge">
<title>dir_e071329bb2fc8ace303f4ccc165742ca&#45;&gt;dir_cac0b191d0d7d0dd67d730930ce5fa13</title>
<g id="a_edge19"><a xlink:href="dir_000004_000000.html" target="_top">
<path fill="none" stroke="#63b8ff" d="M99.98,-133.16C159.76,-124.76 295.91,-104.51 313,-92 324.39,-83.66 317.85,-73.81 328,-64 341.86,-50.6 361.52,-41.15 377.23,-35.15"/>
<polygon fill="#63b8ff" stroke="#63b8ff" points="378.15,-38.54 386.41,-31.89 375.81,-31.94 378.15,-38.54"/>
</a>
</g>
<g id="a_edge19&#45;headlabel"><a xlink:href="dir_000004_000000.html" target="_top" xlink:title="1">
<text text-anchor="middle" x="377.14" y="-38.41" font-family="Helvetica,sans-Serif" font-size="10.00" fill="#63b8ff">1</text>
</a>
</g>
</g>
<!-- dir_e071329bb2fc8ace303f4ccc165742ca&#45;&gt;dir_c51bb8760eda2ecf5deaef23809ed440 -->
<g id="edge18" class="edge">
<title>dir_e071329bb2fc8ace303f4ccc165742ca&#45;&gt;dir_c51bb8760eda2ecf5deaef23809ed440</title>
<g id="a_edge18"><a xlink:href="dir_000004_000003.html" target="_top">
<path fill="none" stroke="#63b8ff" d="M86.98,-127.59C99.73,-119.59 118.29,-107.93 133.24,-98.54"/>
<polygon fill="#63b8ff" stroke="#63b8ff" points="135.01,-101.57 141.62,-93.28 131.29,-95.64 135.01,-101.57"/>
</a>
</g>
<g id="a_edge18&#45;headlabel"><a xlink:href="dir_000004_000003.html" target="_top" xlink:title="1">
<text text-anchor="middle" x="134.76" y="-101.58" font-family="Helvetica,sans-Serif" font-size="10.00" fill="#63b8ff">1</text>
</a>
</g>
</g>
<!-- dir_e071329bb2fc8ace303f4ccc165742ca&#45;&gt;dir_55709f21cee890691a392e71066e61b8 -->
<g id="edge17" class="edge">
<title>dir_e071329bb2fc8ace303f4ccc165742ca&#45;&gt;dir_55709f21cee890691a392e71066e61b8</title>
<g id="a_edge17"><a xlink:href="dir_000004_000021.html" target="_top">
<path fill="none" stroke="#63b8ff" d="M70.26,-127.59C69.02,-120.93 67.32,-111.75 65.79,-103.44"/>
<polygon fill="#63b8ff" stroke="#63b8ff" points="69.26,-102.98 64,-93.79 62.38,-104.26 69.26,-102.98"/>
</a>
</g>
<g id="a_edge17&#45;headlabel"><a xlink:href="dir_000004_000021.html" target="_top" xlink:title="1">
<text text-anchor="middle" x="72.43" y="-101.01" font-family="Helvetica,sans-Serif" font-size="10.00" fill="#63b8ff">1</text>
</a>
</g>
</g>
<!-- dir_d44c2f9991353a7b899d805b4059ed96&#45;&gt;dir_cac0b191d0d7d0dd67d730930ce5fa13 -->
<g id="edge21" class="edge">
<title>dir_d44c2f9991353a7b899d805b4059ed96&#45;&gt;dir_cac0b191d0d7d0dd67d730930ce5fa13</title>
<g id="a_edge21"><a xlink:href="dir_000008_000000.html" target="_top">
<path fill="none" stroke="#63b8ff" d="M186.65,-131.26C189.72,-130.13 192.95,-128.99 196,-128 253.86,-109.3 278.1,-126.76 328,-92 340.55,-83.26 337.04,-74.66 348,-64 356.94,-55.31 368.17,-47.34 378.14,-41.05"/>
<polygon fill="#63b8ff" stroke="#63b8ff" points="379.89,-44.08 386.64,-35.92 376.27,-38.09 379.89,-44.08"/>
</a>
</g>
<g id="a_edge21&#45;headlabel"><a xlink:href="dir_000008_000000.html" target="_top" xlink:title="1">
<text text-anchor="middle" x="379.58" y="-44.09" font-family="Helvetica,sans-Serif" font-size="10.00" fill="#63b8ff">1</text>
</a>
</g>
</g>
<!-- dir_d44c2f9991353a7b899d805b4059ed96&#45;&gt;dir_adcd489d00d8ca37449f57b9cfd13f65 -->
<g id="edge20" class="edge">
<title>dir_d44c2f9991353a7b899d805b4059ed96&#45;&gt;dir_adcd489d00d8ca37449f57b9cfd13f65</title>
<g id="a_edge20"><a xlink:href="dir_000008_000002.html" target="_top">
<path fill="none" stroke="#63b8ff" d="M186.53,-128.08C199.67,-120.02 219.29,-107.98 234.95,-98.37"/>
<polygon fill="#63b8ff" stroke="#63b8ff" points="236.58,-101.48 243.27,-93.27 232.91,-95.51 236.58,-101.48"/>
</a>
</g>
<g id="a_edge20&#45;headlabel"><a xlink:href="dir_000008_000002.html" target="_top" xlink:title="2">
<text text-anchor="middle" x="236.29" y="-101.49" font-family="Helvetica,sans-Serif" font-size="10.00" fill="#63b8ff">2</text>
</a>
</g>
</g>
<!-- dir_dc1cac501bd439d519324f1df382cae1&#45;&gt;dir_cac0b191d0d7d0dd67d730930ce5fa13 -->
<g id="edge22" class="edge">
<title>dir_dc1cac501bd439d519324f1df382cae1&#45;&gt;dir_cac0b191d0d7d0dd67d730930ce5fa13</title>
<g id="a_edge22"><a xlink:href="dir_000009_000000.html" target="_top">
<path fill="none" stroke="#63b8ff" d="M346.4,-128.13C359.8,-120.39 377.73,-107.91 388,-92 396.56,-78.73 400.26,-61.14 401.85,-47.61"/>
<polygon fill="#63b8ff" stroke="#63b8ff" points="405.33,-47.92 402.68,-37.66 398.36,-47.33 405.33,-47.92"/>
</a>
</g>
<g id="a_edge22&#45;headlabel"><a xlink:href="dir_000009_000000.html" target="_top" xlink:title="1">
<text text-anchor="middle" x="407.99" y="-46.73" font-family="Helvetica,sans-Serif" font-size="10.00" fill="#63b8ff">1</text>
</a>
</g>
</g>
<!-- dir_9d7cbcd390d83bb8092815502b9393e2&#45;&gt;dir_cac0b191d0d7d0dd67d730930ce5fa13 -->
<g id="edge23" class="edge">
<title>dir_9d7cbcd390d83bb8092815502b9393e2&#45;&gt;dir_cac0b191d0d7d0dd67d730930ce5fa13</title>
<g id="a_edge23"><a xlink:href="dir_000014_000000.html" target="_top">
<path fill="none" stroke="#63b8ff" d="M392.78,-127.78C397.93,-118.97 405.09,-105.13 408,-92 411.27,-77.26 409.77,-60.24 407.59,-47.31"/>
<polygon fill="#63b8ff" stroke="#63b8ff" points="411.1,-46.99 405.72,-37.86 404.23,-48.35 411.1,-46.99"/>
</a>
</g>
<g id="a_edge23&#45;headlabel"><a xlink:href="dir_000014_000000.html" target="_top" xlink:title="1">
<text text-anchor="middle" x="414.29" y="-44.98" font-family="Helvetica,sans-Serif" font-size="10.00" fill="#63b8ff">1</text>
</a>
</g>
</g>
<!-- dir_4bf8f6c3c349d2a29524f93c7ce04644 -->
<g id="node9" class="node">
<title>dir_4bf8f6c3c349d2a29524f93c7ce04644</title>
<g id="a_node9"><a xlink:href="dir_4bf8f6c3c349d2a29524f93c7ce04644.html" target="_top" xlink:title="init_database">
<polygon fill="#a2b4d6" stroke="#404040" points="776.88,-204 703.12,-204 703.12,-184 776.88,-184 776.88,-204"/>
<text text-anchor="middle" x="740" y="-190.5" font-family="Helvetica,sans-Serif" font-size="10.00">init_database</text>
</a>
</g>
</g>
<!-- dir_4bf8f6c3c349d2a29524f93c7ce04644&#45;&gt;dir_cac0b191d0d7d0dd67d730930ce5fa13 -->
<g id="edge24" class="edge">
<title>dir_4bf8f6c3c349d2a29524f93c7ce04644&#45;&gt;dir_cac0b191d0d7d0dd67d730930ce5fa13</title>
<g id="a_edge24"><a xlink:href="dir_000016_000000.html" target="_top">
<path fill="none" stroke="#63b8ff" d="M754.91,-183.65C773.31,-170.94 800.48,-147.55 786,-128 742.68,-69.51 509.14,-38.69 429.57,-29.77"/>
<polygon fill="#63b8ff" stroke="#63b8ff" points="430,-26.3 419.68,-28.69 429.24,-33.26 430,-26.3"/>
</a>
</g>
<g id="a_edge24&#45;headlabel"><a xlink:href="dir_000016_000000.html" target="_top" xlink:title="1">
<text text-anchor="middle" x="432.38" y="-20.2" font-family="Helvetica,sans-Serif" font-size="10.00" fill="#63b8ff">1</text>
</a>
</g>
</g>
<!-- dir_dc3bc99bc501644e197c4d2698e0fc8f&#45;&gt;dir_cac0b191d0d7d0dd67d730930ce5fa13 -->
<g id="edge25" class="edge">
<title>dir_dc3bc99bc501644e197c4d2698e0fc8f&#45;&gt;dir_cac0b191d0d7d0dd67d730930ce5fa13</title>
<g id="a_edge25"><a xlink:href="dir_000018_000000.html" target="_top">
<path fill="none" stroke="#63b8ff" d="M444.16,-127.62C436.89,-109.84 420.95,-70.88 411.18,-47"/>
<polygon fill="#63b8ff" stroke="#63b8ff" points="414.43,-45.69 407.4,-37.76 407.95,-48.34 414.43,-45.69"/>
</a>
</g>
<g id="a_edge25&#45;headlabel"><a xlink:href="dir_000018_000000.html" target="_top" xlink:title="1">
<text text-anchor="middle" x="417.84" y="-43.04" font-family="Helvetica,sans-Serif" font-size="10.00" fill="#63b8ff">1</text>
</a>
</g>
</g>
<!-- dir_7cc000a715c59c08d2b57e79abb2c661&#45;&gt;dir_cac0b191d0d7d0dd67d730930ce5fa13 -->
<g id="edge26" class="edge">
<title>dir_7cc000a715c59c08d2b57e79abb2c661&#45;&gt;dir_cac0b191d0d7d0dd67d730930ce5fa13</title>
<g id="a_edge26"><a xlink:href="dir_000019_000000.html" target="_top">
<path fill="none" stroke="#63b8ff" d="M497.22,-127.62C480.04,-109.27 441.74,-68.37 419.62,-44.75"/>
<polygon fill="#63b8ff" stroke="#63b8ff" points="422.18,-42.37 412.79,-37.46 417.07,-47.15 422.18,-42.37"/>
</a>
</g>
<g id="a_edge26&#45;headlabel"><a xlink:href="dir_000019_000000.html" target="_top" xlink:title="17">
<text text-anchor="middle" x="425.68" y="-38.45" font-family="Helvetica,sans-Serif" font-size="10.00" fill="#63b8ff">17</text>
</a>
</g>
</g>
<!-- dir_3f526b2c6f77046a2bd3d6f486c710c8&#45;&gt;dir_cac0b191d0d7d0dd67d730930ce5fa13 -->
<g id="edge28" class="edge">
<title>dir_3f526b2c6f77046a2bd3d6f486c710c8&#45;&gt;dir_cac0b191d0d7d0dd67d730930ce5fa13</title>
<g id="a_edge28"><a xlink:href="dir_000020_000000.html" target="_top">
<path fill="none" stroke="#63b8ff" d="M247.6,-130.72C278.1,-121.57 331.85,-104.33 348,-92 360.16,-82.72 358.28,-75.81 368,-64 373.44,-57.4 379.77,-50.5 385.53,-44.47"/>
<polygon fill="#63b8ff" stroke="#63b8ff" points="387.87,-47.09 392.35,-37.49 382.86,-42.2 387.87,-47.09"/>
</a>
</g>
<g id="a_edge28&#45;headlabel"><a xlink:href="dir_000020_000000.html" target="_top" xlink:title="1">
<text text-anchor="middle" x="388.45" y="-47.06" font-family="Helvetica,sans-Serif" font-size="10.00" fill="#63b8ff">1</text>
</a>
</g>
</g>
<!-- dir_3f526b2c6f77046a2bd3d6f486c710c8&#45;&gt;dir_adcd489d00d8ca37449f57b9cfd13f65 -->
<g id="edge27" class="edge">
<title>dir_3f526b2c6f77046a2bd3d6f486c710c8&#45;&gt;dir_adcd489d00d8ca37449f57b9cfd13f65</title>
<g id="a_edge27"><a xlink:href="dir_000020_000002.html" target="_top">
<path fill="none" stroke="#63b8ff" d="M231.92,-127.59C236.36,-120.55 242.58,-110.67 248.04,-102"/>
<polygon fill="#63b8ff" stroke="#63b8ff" points="250.97,-103.91 253.34,-93.58 245.05,-100.18 250.97,-103.91"/>
</a>
</g>
<g id="a_edge27&#45;headlabel"><a xlink:href="dir_000020_000002.html" target="_top" xlink:title="5">
<text text-anchor="middle" x="252.27" y="-103.68" font-family="Helvetica,sans-Serif" font-size="10.00" fill="#63b8ff">5</text>
</a>
</g>
</g>
<!-- dir_55709f21cee890691a392e71066e61b8&#45;&gt;dir_cac0b191d0d7d0dd67d730930ce5fa13 -->
<g id="edge29" class="edge">
<title>dir_55709f21cee890691a392e71066e61b8&#45;&gt;dir_cac0b191d0d7d0dd67d730930ce5fa13</title>
<g id="a_edge29"><a xlink:href="dir_000021_000000.html" target="_top">
<path fill="none" stroke="#63b8ff" d="M85.14,-71.68C92.93,-68.84 101.74,-65.96 110,-64 206.55,-41.09 324.58,-31.67 376.43,-28.44"/>
<polygon fill="#63b8ff" stroke="#63b8ff" points="376.57,-31.94 386.34,-27.85 376.15,-24.95 376.57,-31.94"/>
</a>
</g>
<g id="a_edge29&#45;headlabel"><a xlink:href="dir_000021_000000.html" target="_top" xlink:title="6">
<text text-anchor="middle" x="374.66" y="-31.4" font-family="Helvetica,sans-Serif" font-size="10.00" fill="#63b8ff">6</text>
</a>
</g>
</g>
<!-- dir_4664096a0ece9a7aba46a7b7bb421972&#45;&gt;dir_cac0b191d0d7d0dd67d730930ce5fa13 -->
<g id="edge30" class="edge">
<title>dir_4664096a0ece9a7aba46a7b7bb421972&#45;&gt;dir_cac0b191d0d7d0dd67d730930ce5fa13</title>
<g id="a_edge30"><a xlink:href="dir_000024_000000.html" target="_top">
<path fill="none" stroke="#63b8ff" d="M558.51,-127.62C529.15,-108.63 462.42,-65.45 426.66,-42.31"/>
<polygon fill="#63b8ff" stroke="#63b8ff" points="429.03,-39.67 418.73,-37.18 425.22,-45.55 429.03,-39.67"/>
</a>
</g>
<g id="a_edge30&#45;headlabel"><a xlink:href="dir_000024_000000.html" target="_top" xlink:title="5">
<text text-anchor="middle" x="432.31" y="-34.92" font-family="Helvetica,sans-Serif" font-size="10.00" fill="#63b8ff">5</text>
</a>
</g>
</g>
<!-- dir_01a9593c77408e73511ed5f78e4e0ebc&#45;&gt;dir_cac0b191d0d7d0dd67d730930ce5fa13 -->
<g id="edge32" class="edge">
<title>dir_01a9593c77408e73511ed5f78e4e0ebc&#45;&gt;dir_cac0b191d0d7d0dd67d730930ce5fa13</title>
<g id="a_edge32"><a xlink:href="dir_000025_000000.html" target="_top">
<path fill="none" stroke="#63b8ff" d="M294.65,-130.79C316.63,-121.26 356.78,-102.98 368,-92 381.02,-79.25 390.38,-60.61 396.12,-46.56"/>
<polygon fill="#63b8ff" stroke="#63b8ff" points="399.29,-48.07 399.56,-37.48 392.74,-45.59 399.29,-48.07"/>
</a>
</g>
<g id="a_edge32&#45;headlabel"><a xlink:href="dir_000025_000000.html" target="_top" xlink:title="1">
<text text-anchor="middle" x="401.21" y="-47.52" font-family="Helvetica,sans-Serif" font-size="10.00" fill="#63b8ff">1</text>
</a>
</g>
</g>
<!-- dir_01a9593c77408e73511ed5f78e4e0ebc&#45;&gt;dir_adcd489d00d8ca37449f57b9cfd13f65 -->
<g id="edge31" class="edge">
<title>dir_01a9593c77408e73511ed5f78e4e0ebc&#45;&gt;dir_adcd489d00d8ca37449f57b9cfd13f65</title>
<g id="a_edge31"><a xlink:href="dir_000025_000002.html" target="_top">
<path fill="none" stroke="#63b8ff" d="M276.52,-127.59C273.99,-120.78 270.49,-111.32 267.36,-102.86"/>
<polygon fill="#63b8ff" stroke="#63b8ff" points="270.72,-101.88 263.97,-93.72 264.16,-104.31 270.72,-101.88"/>
</a>
</g>
<g id="a_edge31&#45;headlabel"><a xlink:href="dir_000025_000002.html" target="_top" xlink:title="2">
<text text-anchor="middle" x="274.11" y="-99.34" font-family="Helvetica,sans-Serif" font-size="10.00" fill="#63b8ff">2</text>
</a>
</g>
</g>
<!-- dir_25fa05427a0fbbf83099686a4dfd3c98&#45;&gt;dir_cac0b191d0d7d0dd67d730930ce5fa13 -->
<g id="edge33" class="edge">
<title>dir_25fa05427a0fbbf83099686a4dfd3c98&#45;&gt;dir_cac0b191d0d7d0dd67d730930ce5fa13</title>
<g id="a_edge33"><a xlink:href="dir_000026_000000.html" target="_top">
<path fill="none" stroke="#63b8ff" d="M637.17,-127.62C589.96,-107.33 478.56,-59.47 428.34,-37.89"/>
<polygon fill="#63b8ff" stroke="#63b8ff" points="430.01,-34.79 419.44,-34.06 427.24,-41.23 430.01,-34.79"/>
</a>
</g>
<g id="a_edge33&#45;headlabel"><a xlink:href="dir_000026_000000.html" target="_top" xlink:title="1">
<text text-anchor="middle" x="433.04" y="-29.51" font-family="Helvetica,sans-Serif" font-size="10.00" fill="#63b8ff">1</text>
</a>
</g>
</g>
<!-- dir_cc7ce3d766bf0a0ad188e6b0650c2ecf&#45;&gt;dir_cac0b191d0d7d0dd67d730930ce5fa13 -->
<g id="edge34" class="edge">
<title>dir_cc7ce3d766bf0a0ad188e6b0650c2ecf&#45;&gt;dir_cac0b191d0d7d0dd67d730930ce5fa13</title>
<g id="a_edge34"><a xlink:href="dir_000027_000000.html" target="_top">
<path fill="none" stroke="#63b8ff" d="M719.05,-127.56C678.13,-113.31 597.81,-85.67 529,-64 494.65,-53.18 454.71,-41.63 429.16,-34.36"/>
<polygon fill="#63b8ff" stroke="#63b8ff" points="430.22,-31.02 419.64,-31.67 428.31,-37.76 430.22,-31.02"/>
</a>
</g>
<g id="a_edge34&#45;headlabel"><a xlink:href="dir_000027_000000.html" target="_top" xlink:title="1">
<text text-anchor="middle" x="432.99" y="-25.36" font-family="Helvetica,sans-Serif" font-size="10.00" fill="#63b8ff">1</text>
</a>
</g>
</g>
</g>
</svg>
