<?xml version="1.0" encoding="UTF-8" standalone="no"?>
<!DOCTYPE svg PUBLIC "-//W3C//DTD SVG 1.1//EN"
 "http://www.w3.org/Graphics/SVG/1.1/DTD/svg11.dtd">
<!-- Generated by graphviz version 9.0.0 (0)
 -->
<!-- Title: src/bot_library/commands Pages: 1 -->
<svg width="674pt" height="256pt"
 viewBox="0.00 0.00 674.00 256.00" xmlns="http://www.w3.org/2000/svg" xmlns:xlink="http://www.w3.org/1999/xlink">
<g id="graph0" class="graph" transform="scale(1 1) rotate(0) translate(4 252)">
<title>src/bot_library/commands</title>
<g id="clust1" class="cluster">
<title>clusterdir_be3b34367be430ae387384d9c29f3df4</title>
<g id="a_clust1"><a xlink:href="dir_be3b34367be430ae387384d9c29f3df4.html" target="_top" xlink:title="bot_library">
<polygon fill="#edf0f7" stroke="#7f7f7f" stroke-dasharray="5,2" points="8,-8 8,-240 658,-240 658,-8 8,-8"/>
<text text-anchor="middle" x="333" y="-226.5" font-family="Helvetica,sans-Serif" font-size="10.00">bot_library</text>
</a>
</g>
</g>
<g id="clust2" class="cluster">
<title>clusterdir_261c5c8db3e2632ea4bb1b96cd6e78dc</title>
<g id="a_clust2"><a xlink:href="dir_261c5c8db3e2632ea4bb1b96cd6e78dc.html" target="_top">
<polygon fill="#edf0f7" stroke="#404040" stroke-width="2" points="16,-64 16,-212 618,-212 618,-64 16,-64"/>
</a>
</g>
</g>
<!-- dir_cac0b191d0d7d0dd67d730930ce5fa13 -->
<g id="node1" class="node">
<title>dir_cac0b191d0d7d0dd67d730930ce5fa13</title>
<g id="a_node1"><a xlink:href="dir_cac0b191d0d7d0dd67d730930ce5fa13.html" target="_top" xlink:title="bot">
<polygon fill="#a2b4d6" stroke="red" points="340.75,-36 311.25,-36 311.25,-16 340.75,-16 340.75,-36"/>
<text text-anchor="middle" x="326" y="-22.5" font-family="Helvetica,sans-Serif" font-size="10.00">bot</text>
</a>
</g>
</g>
<!-- dir_261c5c8db3e2632ea4bb1b96cd6e78dc -->
<g id="node2" class="node">
<title>dir_261c5c8db3e2632ea4bb1b96cd6e78dc</title>
<text text-anchor="middle" x="251" y="-190.5" font-family="Helvetica,sans-Serif" font-size="10.00">commands</text>
</g>
<!-- dir_c51bb8760eda2ecf5deaef23809ed440 -->
<g id="node3" class="node">
<title>dir_c51bb8760eda2ecf5deaef23809ed440</title>
<g id="a_node3"><a xlink:href="dir_c51bb8760eda2ecf5deaef23809ed440.html" target="_top" xlink:title="challenge_role">
<polygon fill="#a2b4d6" stroke="#404040" points="202.12,-92 123.88,-92 123.88,-72 202.12,-72 202.12,-92"/>
<text text-anchor="middle" x="163" y="-78.5" font-family="Helvetica,sans-Serif" font-size="10.00">challenge_role</text>
</a>
</g>
</g>
<!-- dir_261c5c8db3e2632ea4bb1b96cd6e78dc&#45;&gt;dir_c51bb8760eda2ecf5deaef23809ed440 -->
<g id="edge5" class="edge">
<title>dir_261c5c8db3e2632ea4bb1b96cd6e78dc&#45;&gt;dir_c51bb8760eda2ecf5deaef23809ed440</title>
<g id="a_edge5"><a xlink:href="dir_000004_000002.html" target="_top">
<path fill="none" stroke="#63b8ff" d="M219.19,-191.03C190.3,-187.35 149.2,-176.98 129,-148 118.37,-132.74 130.92,-113.75 143.68,-100.24"/>
<polygon fill="#63b8ff" stroke="#63b8ff" points="146.06,-102.8 150.76,-93.3 141.17,-97.8 146.06,-102.8"/>
</a>
</g>
<g id="a_edge5&#45;headlabel"><a xlink:href="dir_000004_000002.html" target="_top" xlink:title="2">
<text text-anchor="middle" x="146.56" y="-102.78" font-family="Helvetica,sans-Serif" font-size="10.00" fill="#63b8ff">2</text>
</a>
</g>
</g>
<!-- dir_e071329bb2fc8ace303f4ccc165742ca -->
<g id="node4" class="node">
<title>dir_e071329bb2fc8ace303f4ccc165742ca</title>
<g id="a_node4"><a xlink:href="dir_e071329bb2fc8ace303f4ccc165742ca.html" target="_top" xlink:title="clean_up">
<polygon fill="#a2b4d6" stroke="#404040" points="99.5,-148 44.5,-148 44.5,-128 99.5,-128 99.5,-148"/>
<text text-anchor="middle" x="72" y="-134.5" font-family="Helvetica,sans-Serif" font-size="10.00">clean_up</text>
</a>
</g>
</g>
<!-- dir_261c5c8db3e2632ea4bb1b96cd6e78dc&#45;&gt;dir_e071329bb2fc8ace303f4ccc165742ca -->
<g id="edge9" class="edge">
<title>dir_261c5c8db3e2632ea4bb1b96cd6e78dc&#45;&gt;dir_e071329bb2fc8ace303f4ccc165742ca</title>
<g id="a_edge9"><a xlink:href="dir_000004_000003.html" target="_top">
<path fill="none" stroke="#63b8ff" d="M221.44,-184.08C191.11,-174.93 143.78,-160.65 110.53,-150.62"/>
<polygon fill="#63b8ff" stroke="#63b8ff" points="111.87,-147.37 101.28,-147.83 109.85,-154.07 111.87,-147.37"/>
</a>
</g>
<g id="a_edge9&#45;headlabel"><a xlink:href="dir_000004_000003.html" target="_top" xlink:title="1">
<text text-anchor="middle" x="114.68" y="-141.75" font-family="Helvetica,sans-Serif" font-size="10.00" fill="#63b8ff">1</text>
</a>
</g>
</g>
<!-- dir_dc1cac501bd439d519324f1df382cae1 -->
<g id="node5" class="node">
<title>dir_dc1cac501bd439d519324f1df382cae1</title>
<g id="a_node5"><a xlink:href="dir_dc1cac501bd439d519324f1df382cae1.html" target="_top" xlink:title="help">
<polygon fill="#a2b4d6" stroke="#404040" points="546,-148 512,-148 512,-128 546,-128 546,-148"/>
<text text-anchor="middle" x="529" y="-134.5" font-family="Helvetica,sans-Serif" font-size="10.00">help</text>
</a>
</g>
</g>
<!-- dir_261c5c8db3e2632ea4bb1b96cd6e78dc&#45;&gt;dir_dc1cac501bd439d519324f1df382cae1 -->
<g id="edge7" class="edge">
<title>dir_261c5c8db3e2632ea4bb1b96cd6e78dc&#45;&gt;dir_dc1cac501bd439d519324f1df382cae1</title>
<g id="a_edge7"><a xlink:href="dir_000004_000007.html" target="_top">
<path fill="none" stroke="#63b8ff" d="M282.77,-188.95C328.88,-182.73 417.13,-169.52 500.8,-148.23"/>
<polygon fill="#63b8ff" stroke="#63b8ff" points="501.51,-151.66 510.31,-145.77 499.75,-144.89 501.51,-151.66"/>
</a>
</g>
<g id="a_edge7&#45;headlabel"><a xlink:href="dir_000004_000007.html" target="_top" xlink:title="1">
<text text-anchor="middle" x="500.21" y="-151.43" font-family="Helvetica,sans-Serif" font-size="10.00" fill="#63b8ff">1</text>
</a>
</g>
</g>
<!-- dir_9d7cbcd390d83bb8092815502b9393e2 -->
<g id="node6" class="node">
<title>dir_9d7cbcd390d83bb8092815502b9393e2</title>
<g id="a_node6"><a xlink:href="dir_9d7cbcd390d83bb8092815502b9393e2.html" target="_top" xlink:title="include">
<polygon fill="#a2b4d6" stroke="#404040" points="610.38,-148 563.62,-148 563.62,-128 610.38,-128 610.38,-148"/>
<text text-anchor="middle" x="587" y="-134.5" font-family="Helvetica,sans-Serif" font-size="10.00">include</text>
</a>
</g>
</g>
<!-- dir_261c5c8db3e2632ea4bb1b96cd6e78dc&#45;&gt;dir_9d7cbcd390d83bb8092815502b9393e2 -->
<g id="edge4" class="edge">
<title>dir_261c5c8db3e2632ea4bb1b96cd6e78dc&#45;&gt;dir_9d7cbcd390d83bb8092815502b9393e2</title>
<g id="a_edge4"><a xlink:href="dir_000004_000012.html" target="_top">
<path fill="none" stroke="#63b8ff" d="M282.75,-189.65C336.41,-183.69 448.63,-170 552.34,-148.35"/>
<polygon fill="#63b8ff" stroke="#63b8ff" points="552.78,-151.84 561.84,-146.34 551.33,-144.99 552.78,-151.84"/>
</a>
</g>
<g id="a_edge4&#45;headlabel"><a xlink:href="dir_000004_000012.html" target="_top" xlink:title="1">
<text text-anchor="middle" x="551.33" y="-151.55" font-family="Helvetica,sans-Serif" font-size="10.00" fill="#63b8ff">1</text>
</a>
</g>
</g>
<!-- dir_dc3bc99bc501644e197c4d2698e0fc8f -->
<g id="node8" class="node">
<title>dir_dc3bc99bc501644e197c4d2698e0fc8f</title>
<g id="a_node8"><a xlink:href="dir_dc3bc99bc501644e197c4d2698e0fc8f.html" target="_top" xlink:title="invite">
<polygon fill="#a2b4d6" stroke="#404040" points="177.62,-148 138.38,-148 138.38,-128 177.62,-128 177.62,-148"/>
<text text-anchor="middle" x="158" y="-134.5" font-family="Helvetica,sans-Serif" font-size="10.00">invite</text>
</a>
</g>
</g>
<!-- dir_261c5c8db3e2632ea4bb1b96cd6e78dc&#45;&gt;dir_dc3bc99bc501644e197c4d2698e0fc8f -->
<g id="edge8" class="edge">
<title>dir_261c5c8db3e2632ea4bb1b96cd6e78dc&#45;&gt;dir_dc3bc99bc501644e197c4d2698e0fc8f</title>
<g id="a_edge8"><a xlink:href="dir_000004_000016.html" target="_top">
<path fill="none" stroke="#63b8ff" d="M235.64,-184.08C221.63,-175.95 200.63,-163.75 184.01,-154.1"/>
<polygon fill="#63b8ff" stroke="#63b8ff" points="186.03,-151.23 175.63,-149.24 182.52,-157.28 186.03,-151.23"/>
</a>
</g>
<g id="a_edge8&#45;headlabel"><a xlink:href="dir_000004_000016.html" target="_top" xlink:title="1">
<text text-anchor="middle" x="189.26" y="-146.32" font-family="Helvetica,sans-Serif" font-size="10.00" fill="#63b8ff">1</text>
</a>
</g>
</g>
<!-- dir_e4c64626919ae284a6143de39fd042e4 -->
<g id="node9" class="node">
<title>dir_e4c64626919ae284a6143de39fd042e4</title>
<g id="a_node9"><a xlink:href="dir_e4c64626919ae284a6143de39fd042e4.html" target="_top" xlink:title="pong">
<polygon fill="#a2b4d6" stroke="#404040" points="232.5,-148 195.5,-148 195.5,-128 232.5,-128 232.5,-148"/>
<text text-anchor="middle" x="214" y="-134.5" font-family="Helvetica,sans-Serif" font-size="10.00">pong</text>
</a>
</g>
</g>
<!-- dir_261c5c8db3e2632ea4bb1b96cd6e78dc&#45;&gt;dir_e4c64626919ae284a6143de39fd042e4 -->
<g id="edge10" class="edge">
<title>dir_261c5c8db3e2632ea4bb1b96cd6e78dc&#45;&gt;dir_e4c64626919ae284a6143de39fd042e4</title>
<g id="a_edge10"><a xlink:href="dir_000004_000017.html" target="_top">
<path fill="none" stroke="#63b8ff" d="M244.89,-184.08C240,-176.94 232.97,-166.68 226.85,-157.75"/>
<polygon fill="#63b8ff" stroke="#63b8ff" points="229.89,-156 221.35,-149.72 224.11,-159.95 229.89,-156"/>
</a>
</g>
<g id="a_edge10&#45;headlabel"><a xlink:href="dir_000004_000017.html" target="_top" xlink:title="1">
<text text-anchor="middle" x="233.41" y="-152.61" font-family="Helvetica,sans-Serif" font-size="10.00" fill="#63b8ff">1</text>
</a>
</g>
</g>
<!-- dir_55709f21cee890691a392e71066e61b8 -->
<g id="node10" class="node">
<title>dir_55709f21cee890691a392e71066e61b8</title>
<g id="a_node10"><a xlink:href="dir_55709f21cee890691a392e71066e61b8.html" target="_top" xlink:title="reaction_roles">
<polygon fill="#a2b4d6" stroke="#404040" points="105.38,-92 28.62,-92 28.62,-72 105.38,-72 105.38,-92"/>
<text text-anchor="middle" x="67" y="-78.5" font-family="Helvetica,sans-Serif" font-size="10.00">reaction_roles</text>
</a>
</g>
</g>
<!-- dir_261c5c8db3e2632ea4bb1b96cd6e78dc&#45;&gt;dir_55709f21cee890691a392e71066e61b8 -->
<g id="edge3" class="edge">
<title>dir_261c5c8db3e2632ea4bb1b96cd6e78dc&#45;&gt;dir_55709f21cee890691a392e71066e61b8</title>
<g id="a_edge3"><a xlink:href="dir_000004_000018.html" target="_top">
<path fill="none" stroke="#63b8ff" d="M219.05,-191.14C164.69,-187.23 57.84,-176.09 35,-148 23.28,-133.59 35.73,-114.18 48.36,-100.33"/>
<polygon fill="#63b8ff" stroke="#63b8ff" points="50.84,-102.8 55.37,-93.22 45.86,-97.88 50.84,-102.8"/>
</a>
</g>
<g id="a_edge3&#45;headlabel"><a xlink:href="dir_000004_000018.html" target="_top" xlink:title="2">
<text text-anchor="middle" x="51.4" y="-102.77" font-family="Helvetica,sans-Serif" font-size="10.00" fill="#63b8ff">2</text>
</a>
</g>
</g>
<!-- dir_25fa05427a0fbbf83099686a4dfd3c98 -->
<g id="node12" class="node">
<title>dir_25fa05427a0fbbf83099686a4dfd3c98</title>
<g id="a_node12"><a xlink:href="dir_25fa05427a0fbbf83099686a4dfd3c98.html" target="_top" xlink:title="server_details">
<polygon fill="#a2b4d6" stroke="#404040" points="327.38,-148 250.62,-148 250.62,-128 327.38,-128 327.38,-148"/>
<text text-anchor="middle" x="289" y="-134.5" font-family="Helvetica,sans-Serif" font-size="10.00">server_details</text>
</a>
</g>
</g>
<!-- dir_261c5c8db3e2632ea4bb1b96cd6e78dc&#45;&gt;dir_25fa05427a0fbbf83099686a4dfd3c98 -->
<g id="edge1" class="edge">
<title>dir_261c5c8db3e2632ea4bb1b96cd6e78dc&#45;&gt;dir_25fa05427a0fbbf83099686a4dfd3c98</title>
<g id="a_edge1"><a xlink:href="dir_000004_000021.html" target="_top">
<path fill="none" stroke="#63b8ff" d="M257.27,-184.08C262.3,-176.94 269.52,-166.68 275.8,-157.75"/>
<polygon fill="#63b8ff" stroke="#63b8ff" points="278.57,-159.91 281.46,-149.71 272.84,-155.88 278.57,-159.91"/>
</a>
</g>
<g id="a_edge1&#45;headlabel"><a xlink:href="dir_000004_000021.html" target="_top" xlink:title="1">
<text text-anchor="middle" x="279.69" y="-159.74" font-family="Helvetica,sans-Serif" font-size="10.00" fill="#63b8ff">1</text>
</a>
</g>
</g>
<!-- dir_45dc5c8d62ec8ca66ff85239c099c91b -->
<g id="node13" class="node">
<title>dir_45dc5c8d62ec8ca66ff85239c099c91b</title>
<g id="a_node13"><a xlink:href="dir_45dc5c8d62ec8ca66ff85239c099c91b.html" target="_top" xlink:title="set_channel">
<polygon fill="#a2b4d6" stroke="#404040" points="414.25,-148 345.75,-148 345.75,-128 414.25,-128 414.25,-148"/>
<text text-anchor="middle" x="380" y="-134.5" font-family="Helvetica,sans-Serif" font-size="10.00">set_channel</text>
</a>
</g>
</g>
<!-- dir_261c5c8db3e2632ea4bb1b96cd6e78dc&#45;&gt;dir_45dc5c8d62ec8ca66ff85239c099c91b -->
<g id="edge2" class="edge">
<title>dir_261c5c8db3e2632ea4bb1b96cd6e78dc&#45;&gt;dir_45dc5c8d62ec8ca66ff85239c099c91b</title>
<g id="a_edge2"><a xlink:href="dir_000004_000022.html" target="_top">
<path fill="none" stroke="#63b8ff" d="M272.3,-184.08C292.56,-175.6 323.36,-162.71 346.83,-152.88"/>
<polygon fill="#63b8ff" stroke="#63b8ff" points="348.09,-156.15 355.97,-149.06 345.39,-149.69 348.09,-156.15"/>
</a>
</g>
<g id="a_edge2&#45;headlabel"><a xlink:href="dir_000004_000022.html" target="_top" xlink:title="6">
<text text-anchor="middle" x="347.27" y="-156.07" font-family="Helvetica,sans-Serif" font-size="10.00" fill="#63b8ff">6</text>
</a>
</g>
</g>
<!-- dir_cc7ce3d766bf0a0ad188e6b0650c2ecf -->
<g id="node14" class="node">
<title>dir_cc7ce3d766bf0a0ad188e6b0650c2ecf</title>
<g id="a_node14"><a xlink:href="dir_cc7ce3d766bf0a0ad188e6b0650c2ecf.html" target="_top" xlink:title="set_status">
<polygon fill="#a2b4d6" stroke="#404040" points="493.88,-148 432.12,-148 432.12,-128 493.88,-128 493.88,-148"/>
<text text-anchor="middle" x="463" y="-134.5" font-family="Helvetica,sans-Serif" font-size="10.00">set_status</text>
</a>
</g>
</g>
<!-- dir_261c5c8db3e2632ea4bb1b96cd6e78dc&#45;&gt;dir_cc7ce3d766bf0a0ad188e6b0650c2ecf -->
<g id="edge6" class="edge">
<title>dir_261c5c8db3e2632ea4bb1b96cd6e78dc&#45;&gt;dir_cc7ce3d766bf0a0ad188e6b0650c2ecf</title>
<g id="a_edge6"><a xlink:href="dir_000004_000023.html" target="_top">
<path fill="none" stroke="#63b8ff" d="M282.74,-184.92C319.48,-175.56 380.15,-160.1 420.83,-149.74"/>
<polygon fill="#63b8ff" stroke="#63b8ff" points="421.44,-153.2 430.27,-147.34 419.72,-146.41 421.44,-153.2"/>
</a>
</g>
<g id="a_edge6&#45;headlabel"><a xlink:href="dir_000004_000023.html" target="_top" xlink:title="1">
<text text-anchor="middle" x="420.13" y="-152.96" font-family="Helvetica,sans-Serif" font-size="10.00" fill="#63b8ff">1</text>
</a>
</g>
</g>
<!-- dir_c51bb8760eda2ecf5deaef23809ed440&#45;&gt;dir_cac0b191d0d7d0dd67d730930ce5fa13 -->
<g id="edge11" class="edge">
<title>dir_c51bb8760eda2ecf5deaef23809ed440&#45;&gt;dir_cac0b191d0d7d0dd67d730930ce5fa13</title>
<g id="a_edge11"><a xlink:href="dir_000002_000000.html" target="_top">
<path fill="none" stroke="#63b8ff" d="M185.64,-71.67C192.17,-69.08 199.33,-66.34 206,-64 238.17,-52.7 275.82,-41.4 300.25,-34.31"/>
<polygon fill="#63b8ff" stroke="#63b8ff" points="301,-37.74 309.65,-31.61 299.07,-31.01 301,-37.74"/>
</a>
</g>
<g id="a_edge11&#45;headlabel"><a xlink:href="dir_000002_000000.html" target="_top" xlink:title="8">
<text text-anchor="middle" x="299.79" y="-37.54" font-family="Helvetica,sans-Serif" font-size="10.00" fill="#63b8ff">8</text>
</a>
</g>
</g>
<!-- dir_e071329bb2fc8ace303f4ccc165742ca&#45;&gt;dir_cac0b191d0d7d0dd67d730930ce5fa13 -->
<g id="edge14" class="edge">
<title>dir_e071329bb2fc8ace303f4ccc165742ca&#45;&gt;dir_cac0b191d0d7d0dd67d730930ce5fa13</title>
<g id="a_edge14"><a xlink:href="dir_000003_000000.html" target="_top">
<path fill="none" stroke="#63b8ff" d="M99.88,-131.24C128.87,-124.51 174.96,-111.74 211,-92 228.17,-82.6 228.4,-74.38 245,-64 262.57,-53.01 283.96,-43.39 300.34,-36.71"/>
<polygon fill="#63b8ff" stroke="#63b8ff" points="301.36,-40.07 309.36,-33.13 298.78,-33.56 301.36,-40.07"/>
</a>
</g>
<g id="a_edge14&#45;headlabel"><a xlink:href="dir_000003_000000.html" target="_top" xlink:title="1">
<text text-anchor="middle" x="300.47" y="-39.98" font-family="Helvetica,sans-Serif" font-size="10.00" fill="#63b8ff">1</text>
</a>
</g>
</g>
<!-- dir_e071329bb2fc8ace303f4ccc165742ca&#45;&gt;dir_c51bb8760eda2ecf5deaef23809ed440 -->
<g id="edge13" class="edge">
<title>dir_e071329bb2fc8ace303f4ccc165742ca&#45;&gt;dir_c51bb8760eda2ecf5deaef23809ed440</title>
<g id="a_edge13"><a xlink:href="dir_000003_000002.html" target="_top">
<path fill="none" stroke="#63b8ff" d="M87.85,-127.59C101.47,-119.51 121.36,-107.71 137.26,-98.27"/>
<polygon fill="#63b8ff" stroke="#63b8ff" points="138.91,-101.37 145.72,-93.25 135.34,-95.35 138.91,-101.37"/>
</a>
</g>
<g id="a_edge13&#45;headlabel"><a xlink:href="dir_000003_000002.html" target="_top" xlink:title="1">
<text text-anchor="middle" x="138.57" y="-101.37" font-family="Helvetica,sans-Serif" font-size="10.00" fill="#63b8ff">1</text>
</a>
</g>
</g>
<!-- dir_e071329bb2fc8ace303f4ccc165742ca&#45;&gt;dir_55709f21cee890691a392e71066e61b8 -->
<g id="edge12" class="edge">
<title>dir_e071329bb2fc8ace303f4ccc165742ca&#45;&gt;dir_55709f21cee890691a392e71066e61b8</title>
<g id="a_edge12"><a xlink:href="dir_000003_000018.html" target="_top">
<path fill="none" stroke="#63b8ff" d="M71.13,-127.59C70.52,-121.01 69.68,-111.96 68.92,-103.73"/>
<polygon fill="#63b8ff" stroke="#63b8ff" points="72.41,-103.44 68,-93.81 65.44,-104.09 72.41,-103.44"/>
</a>
</g>
<g id="a_edge12&#45;headlabel"><a xlink:href="dir_000003_000018.html" target="_top" xlink:title="1">
<text text-anchor="middle" x="75.43" y="-101.75" font-family="Helvetica,sans-Serif" font-size="10.00" fill="#63b8ff">1</text>
</a>
</g>
</g>
<!-- dir_dc1cac501bd439d519324f1df382cae1&#45;&gt;dir_cac0b191d0d7d0dd67d730930ce5fa13 -->
<g id="edge15" class="edge">
<title>dir_dc1cac501bd439d519324f1df382cae1&#45;&gt;dir_cac0b191d0d7d0dd67d730930ce5fa13</title>
<g id="a_edge15"><a xlink:href="dir_000007_000000.html" target="_top">
<path fill="none" stroke="#63b8ff" d="M511.67,-127.51C486.16,-113.55 436.95,-86.67 395,-64 380.52,-56.17 364.3,-47.47 351.23,-40.48"/>
<polygon fill="#63b8ff" stroke="#63b8ff" points="352.89,-37.4 342.43,-35.77 349.59,-43.57 352.89,-37.4"/>
</a>
</g>
<g id="a_edge15&#45;headlabel"><a xlink:href="dir_000007_000000.html" target="_top" xlink:title="1">
<text text-anchor="middle" x="356.07" y="-32.38" font-family="Helvetica,sans-Serif" font-size="10.00" fill="#63b8ff">1</text>
</a>
</g>
</g>
<!-- dir_9d7cbcd390d83bb8092815502b9393e2&#45;&gt;dir_cac0b191d0d7d0dd67d730930ce5fa13 -->
<g id="edge16" class="edge">
<title>dir_9d7cbcd390d83bb8092815502b9393e2&#45;&gt;dir_cac0b191d0d7d0dd67d730930ce5fa13</title>
<g id="a_edge16"><a xlink:href="dir_000012_000000.html" target="_top">
<path fill="none" stroke="#63b8ff" d="M566.7,-127.54C535.87,-113.26 475.28,-85.59 423,-64 399.05,-54.11 371.4,-43.66 351.77,-36.39"/>
<polygon fill="#63b8ff" stroke="#63b8ff" points="353.24,-33.21 342.64,-33.04 350.82,-39.77 353.24,-33.21"/>
</a>
</g>
<g id="a_edge16&#45;headlabel"><a xlink:href="dir_000012_000000.html" target="_top" xlink:title="1">
<text text-anchor="middle" x="356.17" y="-27.76" font-family="Helvetica,sans-Serif" font-size="10.00" fill="#63b8ff">1</text>
</a>
</g>
</g>
<!-- dir_4bf8f6c3c349d2a29524f93c7ce04644 -->
<g id="node7" class="node">
<title>dir_4bf8f6c3c349d2a29524f93c7ce04644</title>
<g id="a_node7"><a xlink:href="dir_4bf8f6c3c349d2a29524f93c7ce04644.html" target="_top" xlink:title="init_database">
<polygon fill="#a2b4d6" stroke="#404040" points="533.88,-204 460.12,-204 460.12,-184 533.88,-184 533.88,-204"/>
<text text-anchor="middle" x="497" y="-190.5" font-family="Helvetica,sans-Serif" font-size="10.00">init_database</text>
</a>
</g>
</g>
<!-- dir_4bf8f6c3c349d2a29524f93c7ce04644&#45;&gt;dir_cac0b191d0d7d0dd67d730930ce5fa13 -->
<g id="edge17" class="edge">
<title>dir_4bf8f6c3c349d2a29524f93c7ce04644&#45;&gt;dir_cac0b191d0d7d0dd67d730930ce5fa13</title>
<g id="a_edge17"><a xlink:href="dir_000014_000000.html" target="_top">
<path fill="none" stroke="#63b8ff" d="M534.31,-184.22C566.38,-175.82 609,-162.35 619,-148 624.08,-140.71 623.98,-135.36 619,-128 558.45,-38.57 412.72,-27.29 352.61,-26.58"/>
<polygon fill="#63b8ff" stroke="#63b8ff" points="352.67,-23.08 342.66,-26.57 352.66,-30.08 352.67,-23.08"/>
</a>
</g>
<g id="a_edge17&#45;headlabel"><a xlink:href="dir_000014_000000.html" target="_top" xlink:title="1">
<text text-anchor="middle" x="354.75" y="-16.75" font-family="Helvetica,sans-Serif" font-size="10.00" fill="#63b8ff">1</text>
</a>
</g>
</g>
<!-- dir_dc3bc99bc501644e197c4d2698e0fc8f&#45;&gt;dir_cac0b191d0d7d0dd67d730930ce5fa13 -->
<g id="edge18" class="edge">
<title>dir_dc3bc99bc501644e197c4d2698e0fc8f&#45;&gt;dir_cac0b191d0d7d0dd67d730930ce5fa13</title>
<g id="a_edge18"><a xlink:href="dir_000016_000000.html" target="_top">
<path fill="none" stroke="#63b8ff" d="M177.93,-129.3C196.45,-121.58 224.2,-108.47 245,-92 257.85,-81.82 256.67,-74.79 269,-64 278.85,-55.38 290.88,-47.27 301.34,-40.86"/>
<polygon fill="#63b8ff" stroke="#63b8ff" points="303.02,-43.94 309.84,-35.83 299.45,-37.91 303.02,-43.94"/>
</a>
</g>
<g id="a_edge18&#45;headlabel"><a xlink:href="dir_000016_000000.html" target="_top" xlink:title="1">
<text text-anchor="middle" x="302.67" y="-43.94" font-family="Helvetica,sans-Serif" font-size="10.00" fill="#63b8ff">1</text>
</a>
</g>
</g>
<!-- dir_e4c64626919ae284a6143de39fd042e4&#45;&gt;dir_cac0b191d0d7d0dd67d730930ce5fa13 -->
<g id="edge19" class="edge">
<title>dir_e4c64626919ae284a6143de39fd042e4&#45;&gt;dir_cac0b191d0d7d0dd67d730930ce5fa13</title>
<g id="a_edge19"><a xlink:href="dir_000017_000000.html" target="_top">
<path fill="none" stroke="#63b8ff" d="M226.73,-127.55C238.21,-118.81 255.34,-105.2 269,-92 284.46,-77.06 300.46,-58.49 311.56,-45.03"/>
<polygon fill="#63b8ff" stroke="#63b8ff" points="314.15,-47.4 317.75,-37.43 308.72,-42.98 314.15,-47.4"/>
</a>
</g>
<g id="a_edge19&#45;headlabel"><a xlink:href="dir_000017_000000.html" target="_top" xlink:title="1">
<text text-anchor="middle" x="315.04" y="-47.3" font-family="Helvetica,sans-Serif" font-size="10.00" fill="#63b8ff">1</text>
</a>
</g>
</g>
<!-- dir_55709f21cee890691a392e71066e61b8&#45;&gt;dir_cac0b191d0d7d0dd67d730930ce5fa13 -->
<g id="edge20" class="edge">
<title>dir_55709f21cee890691a392e71066e61b8&#45;&gt;dir_cac0b191d0d7d0dd67d730930ce5fa13</title>
<g id="a_edge20"><a xlink:href="dir_000018_000000.html" target="_top">
<path fill="none" stroke="#63b8ff" d="M91.17,-71.55C98.72,-68.84 107.13,-66.07 115,-64 180.52,-46.78 259.63,-35.33 299.81,-30.16"/>
<polygon fill="#63b8ff" stroke="#63b8ff" points="299.99,-33.67 309.48,-28.95 299.12,-26.72 299.99,-33.67"/>
</a>
</g>
<g id="a_edge20&#45;headlabel"><a xlink:href="dir_000018_000000.html" target="_top" xlink:title="5">
<text text-anchor="middle" x="298.28" y="-33.24" font-family="Helvetica,sans-Serif" font-size="10.00" fill="#63b8ff">5</text>
</a>
</g>
</g>
<!-- dir_4664096a0ece9a7aba46a7b7bb421972 -->
<g id="node11" class="node">
<title>dir_4664096a0ece9a7aba46a7b7bb421972</title>
<g id="a_node11"><a xlink:href="dir_4664096a0ece9a7aba46a7b7bb421972.html" target="_top" xlink:title="resources">
<polygon fill="#a2b4d6" stroke="#404040" points="610.38,-204 551.62,-204 551.62,-184 610.38,-184 610.38,-204"/>
<text text-anchor="middle" x="581" y="-190.5" font-family="Helvetica,sans-Serif" font-size="10.00">resources</text>
</a>
</g>
</g>
<!-- dir_4664096a0ece9a7aba46a7b7bb421972&#45;&gt;dir_cac0b191d0d7d0dd67d730930ce5fa13 -->
<g id="edge21" class="edge">
<title>dir_4664096a0ece9a7aba46a7b7bb421972&#45;&gt;dir_cac0b191d0d7d0dd67d730930ce5fa13</title>
<g id="a_edge21"><a xlink:href="dir_000020_000000.html" target="_top">
<path fill="none" stroke="#63b8ff" d="M594.63,-183.73C605.14,-175.68 618.9,-162.97 625,-148 628.36,-139.77 628.16,-136.31 625,-128 611.45,-92.4 601.47,-82.18 568,-64 531.11,-43.97 407.03,-32.82 352.31,-28.77"/>
<polygon fill="#63b8ff" stroke="#63b8ff" points="352.88,-25.3 342.66,-28.08 352.38,-32.29 352.88,-25.3"/>
</a>
</g>
<g id="a_edge21&#45;headlabel"><a xlink:href="dir_000020_000000.html" target="_top" xlink:title="1">
<text text-anchor="middle" x="355.16" y="-19.12" font-family="Helvetica,sans-Serif" font-size="10.00" fill="#63b8ff">1</text>
</a>
</g>
</g>
<!-- dir_25fa05427a0fbbf83099686a4dfd3c98&#45;&gt;dir_cac0b191d0d7d0dd67d730930ce5fa13 -->
<g id="edge22" class="edge">
<title>dir_25fa05427a0fbbf83099686a4dfd3c98&#45;&gt;dir_cac0b191d0d7d0dd67d730930ce5fa13</title>
<g id="a_edge22"><a xlink:href="dir_000021_000000.html" target="_top">
<path fill="none" stroke="#63b8ff" d="M292.15,-127.62C298.13,-109.84 311.24,-70.88 319.27,-47"/>
<polygon fill="#63b8ff" stroke="#63b8ff" points="322.5,-48.38 322.37,-37.79 315.87,-46.15 322.5,-48.38"/>
</a>
</g>
<g id="a_edge22&#45;headlabel"><a xlink:href="dir_000021_000000.html" target="_top" xlink:title="1">
<text text-anchor="middle" x="324.53" y="-47.76" font-family="Helvetica,sans-Serif" font-size="10.00" fill="#63b8ff">1</text>
</a>
</g>
</g>
<!-- dir_45dc5c8d62ec8ca66ff85239c099c91b&#45;&gt;dir_cac0b191d0d7d0dd67d730930ce5fa13 -->
<g id="edge23" class="edge">
<title>dir_45dc5c8d62ec8ca66ff85239c099c91b&#45;&gt;dir_cac0b191d0d7d0dd67d730930ce5fa13</title>
<g id="a_edge23"><a xlink:href="dir_000022_000000.html" target="_top">
<path fill="none" stroke="#63b8ff" d="M375.4,-127.62C366.63,-109.76 347.37,-70.53 335.66,-46.67"/>
<polygon fill="#63b8ff" stroke="#63b8ff" points="338.81,-45.15 331.26,-37.71 332.52,-48.23 338.81,-45.15"/>
</a>
</g>
<g id="a_edge23&#45;headlabel"><a xlink:href="dir_000022_000000.html" target="_top" xlink:title="12">
<text text-anchor="middle" x="342.27" y="-42.26" font-family="Helvetica,sans-Serif" font-size="10.00" fill="#63b8ff">12</text>
</a>
</g>
</g>
<!-- dir_cc7ce3d766bf0a0ad188e6b0650c2ecf&#45;&gt;dir_cac0b191d0d7d0dd67d730930ce5fa13 -->
<g id="edge24" class="edge">
<title>dir_cc7ce3d766bf0a0ad188e6b0650c2ecf&#45;&gt;dir_cac0b191d0d7d0dd67d730930ce5fa13</title>
<g id="a_edge24"><a xlink:href="dir_000023_000000.html" target="_top">
<path fill="none" stroke="#63b8ff" d="M451.32,-127.62C428.07,-108.95 375.71,-66.92 346.57,-43.52"/>
<polygon fill="#63b8ff" stroke="#63b8ff" points="348.82,-40.83 338.83,-37.3 344.44,-46.29 348.82,-40.83"/>
</a>
</g>
<g id="a_edge24&#45;headlabel"><a xlink:href="dir_000023_000000.html" target="_top" xlink:title="1">
<text text-anchor="middle" x="352.22" y="-36.42" font-family="Helvetica,sans-Serif" font-size="10.00" fill="#63b8ff">1</text>
</a>
</g>
</g>
</g>
</svg>
