<?xml version="1.0" encoding="UTF-8" standalone="no"?>
<!DOCTYPE svg PUBLIC "-//W3C//DTD SVG 1.1//EN"
 "http://www.w3.org/Graphics/SVG/1.1/DTD/svg11.dtd">
<!-- Generated by graphviz version 9.0.0 (0)
 -->
<!-- Title: src/bot_library/commands/member Pages: 1 -->
<svg width="122pt" height="184pt"
 viewBox="0.00 0.00 122.00 184.00" xmlns="http://www.w3.org/2000/svg" xmlns:xlink="http://www.w3.org/1999/xlink">
<g id="graph0" class="graph" transform="scale(1 1) rotate(0) translate(4 180)">
<title>src/bot_library/commands/member</title>
<g id="clust1" class="cluster">
<title>clusterdir_261c5c8db3e2632ea4bb1b96cd6e78dc</title>
<g id="a_clust1"><a xlink:href="dir_261c5c8db3e2632ea4bb1b96cd6e78dc.html" target="_top" xlink:title="commands">
<polygon fill="#edf0f7" stroke="#7f7f7f" stroke-dasharray="5,2" points="8,-40 8,-168 106,-168 106,-40 8,-40"/>
<text text-anchor="middle" x="57" y="-154.5" font-family="Helvetica,sans-Serif" font-size="10.00">commands</text>
</a>
</g>
</g>
<g id="clust2" class="cluster">
<title>clusterdir_bf65c5e2ffa66c1752b633151f29fa88</title>
<g id="a_clust2"><a xlink:href="dir_bf65c5e2ffa66c1752b633151f29fa88.html" target="_top">
<polygon fill="#edf0f7" stroke="#404040" stroke-width="2" points="16,-48 16,-140 98,-140 98,-48 16,-48"/>
</a>
</g>
</g>
<!-- dir_bf65c5e2ffa66c1752b633151f29fa88 -->
<g id="node1" class="node">
<title>dir_bf65c5e2ffa66c1752b633151f29fa88</title>
<text text-anchor="middle" x="60" y="-118.5" font-family="Helvetica,sans-Serif" font-size="10.00">member</text>
</g>
<!-- dir_95ca2d182c8105774a7a1ce9733d8c09 -->
<g id="node2" class="node">
<title>dir_95ca2d182c8105774a7a1ce9733d8c09</title>
<g id="a_node2"><a xlink:href="dir_95ca2d182c8105774a7a1ce9733d8c09.html" target="_top" xlink:title="repositories">
<polygon fill="#a2b4d6" stroke="#404040" points="90.12,-76 23.88,-76 23.88,-56 90.12,-56 90.12,-76"/>
<text text-anchor="middle" x="57" y="-62.5" font-family="Helvetica,sans-Serif" font-size="10.00">repositories</text>
</a>
</g>
</g>
<!-- dir_bf65c5e2ffa66c1752b633151f29fa88&#45;&gt;dir_95ca2d182c8105774a7a1ce9733d8c09 -->
<g id="edge1" class="edge">
<title>dir_bf65c5e2ffa66c1752b633151f29fa88&#45;&gt;dir_95ca2d182c8105774a7a1ce9733d8c09</title>
<g id="a_edge1"><a xlink:href="dir_000019_000022.html" target="_top">
<path fill="none" stroke="#63b8ff" d="M59.5,-112.08C59.14,-105.48 58.62,-96.21 58.16,-87.79"/>
<polygon fill="#63b8ff" stroke="#63b8ff" points="61.66,-87.78 57.61,-77.99 54.67,-88.17 61.66,-87.78"/>
</a>
</g>
<g id="a_edge1&#45;headlabel"><a xlink:href="dir_000019_000022.html" target="_top" xlink:title="1">
<text text-anchor="middle" x="64.61" y="-86.2" font-family="Helvetica,sans-Serif" font-size="10.00" fill="#63b8ff">1</text>
</a>
</g>
</g>
<!-- dir_cac0b191d0d7d0dd67d730930ce5fa13 -->
<g id="node3" class="node">
<title>dir_cac0b191d0d7d0dd67d730930ce5fa13</title>
<g id="a_node3"><a xlink:href="dir_cac0b191d0d7d0dd67d730930ce5fa13.html" target="_top" xlink:title="bot">
<polygon fill="#edf0f7" stroke="red" stroke-dasharray="5,2" points="101.75,-20 72.25,-20 72.25,0 101.75,0 101.75,-20"/>
<text text-anchor="middle" x="87" y="-6.5" font-family="Helvetica,sans-Serif" font-size="10.00">bot</text>
</a>
</g>
</g>
<!-- dir_bf65c5e2ffa66c1752b633151f29fa88&#45;&gt;dir_cac0b191d0d7d0dd67d730930ce5fa13 -->
<g id="edge2" class="edge">
<title>dir_bf65c5e2ffa66c1752b633151f29fa88&#45;&gt;dir_cac0b191d0d7d0dd67d730930ce5fa13</title>
<g id="a_edge2"><a xlink:href="dir_000019_000000.html" target="_top">
<path fill="none" stroke="#63b8ff" d="M71.36,-112.04C80.79,-103.83 93.51,-90.72 99,-76 104.59,-61.01 102.12,-55.69 99,-40 98.41,-37.01 97.5,-33.94 96.44,-30.96"/>
<polygon fill="#63b8ff" stroke="#63b8ff" points="99.67,-29.62 92.57,-21.76 93.22,-32.34 99.67,-29.62"/>
</a>
</g>
<g id="a_edge2&#45;headlabel"><a xlink:href="dir_000019_000000.html" target="_top" xlink:title="5">
<text text-anchor="middle" x="103.1" y="-26.94" font-family="Helvetica,sans-Serif" font-size="10.00" fill="#63b8ff">5</text>
</a>
</g>
</g>
<!-- dir_95ca2d182c8105774a7a1ce9733d8c09&#45;&gt;dir_cac0b191d0d7d0dd67d730930ce5fa13 -->
<g id="edge3" class="edge">
<title>dir_95ca2d182c8105774a7a1ce9733d8c09&#45;&gt;dir_cac0b191d0d7d0dd67d730930ce5fa13</title>
<g id="a_edge3"><a xlink:href="dir_000022_000000.html" target="_top">
<path fill="none" stroke="#63b8ff" d="M62.23,-55.59C66.1,-48.63 71.51,-38.89 76.28,-30.29"/>
<polygon fill="#63b8ff" stroke="#63b8ff" points="79.3,-32.06 81.1,-21.62 73.18,-28.66 79.3,-32.06"/>
</a>
</g>
<g id="a_edge3&#45;headlabel"><a xlink:href="dir_000022_000000.html" target="_top" xlink:title="3">
<text text-anchor="middle" x="80.77" y="-31.76" font-family="Helvetica,sans-Serif" font-size="10.00" fill="#63b8ff">3</text>
</a>
</g>
</g>
</g>
</svg>
