<?xml version="1.0" encoding="UTF-8" standalone="no"?>
<!DOCTYPE svg PUBLIC "-//W3C//DTD SVG 1.1//EN"
 "http://www.w3.org/Graphics/SVG/1.1/DTD/svg11.dtd">
<!-- Generated by graphviz version 9.0.0 (0)
 -->
<!-- Title: src/bot_library/commands Pages: 1 -->
<svg width="464pt" height="200pt"
 viewBox="0.00 0.00 464.00 200.00" xmlns="http://www.w3.org/2000/svg" xmlns:xlink="http://www.w3.org/1999/xlink">
<g id="graph0" class="graph" transform="scale(1 1) rotate(0) translate(4 196)">
<title>src/bot_library/commands</title>
<g id="clust1" class="cluster">
<title>clusterdir_be3b34367be430ae387384d9c29f3df4</title>
<g id="a_clust1"><a xlink:href="dir_be3b34367be430ae387384d9c29f3df4.html" target="_top" xlink:title="bot_library">
<polygon fill="#edf0f7" stroke="#7f7f7f" stroke-dasharray="5,2" points="8,-8 8,-184 448,-184 448,-8 8,-8"/>
<text text-anchor="middle" x="228" y="-170.5" font-family="Helvetica,sans-Serif" font-size="10.00">bot_library</text>
</a>
</g>
</g>
<g id="clust2" class="cluster">
<title>clusterdir_261c5c8db3e2632ea4bb1b96cd6e78dc</title>
<g id="a_clust2"><a xlink:href="dir_261c5c8db3e2632ea4bb1b96cd6e78dc.html" target="_top">
<polygon fill="#edf0f7" stroke="#404040" stroke-width="2" points="16,-64 16,-156 378,-156 378,-64 16,-64"/>
</a>
</g>
</g>
<!-- dir_cac0b191d0d7d0dd67d730930ce5fa13 -->
<g id="node1" class="node">
<title>dir_cac0b191d0d7d0dd67d730930ce5fa13</title>
<g id="a_node1"><a xlink:href="dir_cac0b191d0d7d0dd67d730930ce5fa13.html" target="_top" xlink:title="bot">
<polygon fill="#a2b4d6" stroke="red" points="340.75,-36 311.25,-36 311.25,-16 340.75,-16 340.75,-36"/>
<text text-anchor="middle" x="326" y="-22.5" font-family="Helvetica,sans-Serif" font-size="10.00">bot</text>
</a>
</g>
</g>
<!-- dir_261c5c8db3e2632ea4bb1b96cd6e78dc -->
<g id="node2" class="node">
<title>dir_261c5c8db3e2632ea4bb1b96cd6e78dc</title>
<text text-anchor="middle" x="56" y="-134.5" font-family="Helvetica,sans-Serif" font-size="10.00">commands</text>
</g>
<!-- dir_c51bb8760eda2ecf5deaef23809ed440 -->
<g id="node3" class="node">
<title>dir_c51bb8760eda2ecf5deaef23809ed440</title>
<g id="a_node3"><a xlink:href="dir_c51bb8760eda2ecf5deaef23809ed440.html" target="_top" xlink:title="challenge_role">
<polygon fill="#a2b4d6" stroke="#404040" points="102.12,-92 23.88,-92 23.88,-72 102.12,-72 102.12,-92"/>
<text text-anchor="middle" x="63" y="-78.5" font-family="Helvetica,sans-Serif" font-size="10.00">challenge_role</text>
</a>
</g>
</g>
<!-- dir_261c5c8db3e2632ea4bb1b96cd6e78dc&#45;&gt;dir_c51bb8760eda2ecf5deaef23809ed440 -->
<g id="edge3" class="edge">
<title>dir_261c5c8db3e2632ea4bb1b96cd6e78dc&#45;&gt;dir_c51bb8760eda2ecf5deaef23809ed440</title>
<g id="a_edge3"><a xlink:href="dir_000003_000002.html" target="_top">
<path fill="none" stroke="#63b8ff" d="M57.16,-128.08C58.01,-121.48 59.21,-112.21 60.3,-103.79"/>
<polygon fill="#63b8ff" stroke="#63b8ff" points="63.76,-104.34 61.58,-93.98 56.82,-103.44 63.76,-104.34"/>
</a>
</g>
<g id="a_edge3&#45;headlabel"><a xlink:href="dir_000003_000002.html" target="_top" xlink:title="1">
<text text-anchor="middle" x="66.31" y="-103.27" font-family="Helvetica,sans-Serif" font-size="10.00" fill="#63b8ff">1</text>
</a>
</g>
</g>
<!-- dir_dc1cac501bd439d519324f1df382cae1 -->
<g id="node4" class="node">
<title>dir_dc1cac501bd439d519324f1df382cae1</title>
<g id="a_node4"><a xlink:href="dir_dc1cac501bd439d519324f1df382cae1.html" target="_top" xlink:title="help">
<polygon fill="#a2b4d6" stroke="#404040" points="154,-92 120,-92 120,-72 154,-72 154,-92"/>
<text text-anchor="middle" x="137" y="-78.5" font-family="Helvetica,sans-Serif" font-size="10.00">help</text>
</a>
</g>
</g>
<!-- dir_261c5c8db3e2632ea4bb1b96cd6e78dc&#45;&gt;dir_dc1cac501bd439d519324f1df382cae1 -->
<g id="edge4" class="edge">
<title>dir_261c5c8db3e2632ea4bb1b96cd6e78dc&#45;&gt;dir_dc1cac501bd439d519324f1df382cae1</title>
<g id="a_edge4"><a xlink:href="dir_000003_000006.html" target="_top">
<path fill="none" stroke="#63b8ff" d="M69.38,-128.08C81.35,-120.1 99.18,-108.21 113.53,-98.65"/>
<polygon fill="#63b8ff" stroke="#63b8ff" points="115.15,-101.77 121.53,-93.32 111.27,-95.95 115.15,-101.77"/>
</a>
</g>
<g id="a_edge4&#45;headlabel"><a xlink:href="dir_000003_000006.html" target="_top" xlink:title="1">
<text text-anchor="middle" x="114.99" y="-101.79" font-family="Helvetica,sans-Serif" font-size="10.00" fill="#63b8ff">1</text>
</a>
</g>
</g>
<!-- dir_9d7cbcd390d83bb8092815502b9393e2 -->
<g id="node5" class="node">
<title>dir_9d7cbcd390d83bb8092815502b9393e2</title>
<g id="a_node5"><a xlink:href="dir_9d7cbcd390d83bb8092815502b9393e2.html" target="_top" xlink:title="include">
<polygon fill="#a2b4d6" stroke="#404040" points="218.38,-92 171.62,-92 171.62,-72 218.38,-72 218.38,-92"/>
<text text-anchor="middle" x="195" y="-78.5" font-family="Helvetica,sans-Serif" font-size="10.00">include</text>
</a>
</g>
</g>
<!-- dir_261c5c8db3e2632ea4bb1b96cd6e78dc&#45;&gt;dir_9d7cbcd390d83bb8092815502b9393e2 -->
<g id="edge2" class="edge">
<title>dir_261c5c8db3e2632ea4bb1b96cd6e78dc&#45;&gt;dir_9d7cbcd390d83bb8092815502b9393e2</title>
<g id="a_edge2"><a xlink:href="dir_000003_000011.html" target="_top">
<path fill="none" stroke="#63b8ff" d="M78.95,-128.08C101.25,-119.42 135.39,-106.16 160.87,-96.26"/>
<polygon fill="#63b8ff" stroke="#63b8ff" points="162.08,-99.54 170.14,-92.66 159.55,-93.02 162.08,-99.54"/>
</a>
</g>
<g id="a_edge2&#45;headlabel"><a xlink:href="dir_000003_000011.html" target="_top" xlink:title="1">
<text text-anchor="middle" x="161.17" y="-99.44" font-family="Helvetica,sans-Serif" font-size="10.00" fill="#63b8ff">1</text>
</a>
</g>
</g>
<!-- dir_e4c64626919ae284a6143de39fd042e4 -->
<g id="node7" class="node">
<title>dir_e4c64626919ae284a6143de39fd042e4</title>
<g id="a_node7"><a xlink:href="dir_e4c64626919ae284a6143de39fd042e4.html" target="_top" xlink:title="pong">
<polygon fill="#a2b4d6" stroke="#404040" points="273.5,-92 236.5,-92 236.5,-72 273.5,-72 273.5,-92"/>
<text text-anchor="middle" x="255" y="-78.5" font-family="Helvetica,sans-Serif" font-size="10.00">pong</text>
</a>
</g>
</g>
<!-- dir_261c5c8db3e2632ea4bb1b96cd6e78dc&#45;&gt;dir_e4c64626919ae284a6143de39fd042e4 -->
<g id="edge5" class="edge">
<title>dir_261c5c8db3e2632ea4bb1b96cd6e78dc&#45;&gt;dir_e4c64626919ae284a6143de39fd042e4</title>
<g id="a_edge5"><a xlink:href="dir_000003_000015.html" target="_top">
<path fill="none" stroke="#63b8ff" d="M87.97,-129.13C120.21,-121.08 171.64,-107.91 225.01,-92.46"/>
<polygon fill="#63b8ff" stroke="#63b8ff" points="225.99,-95.82 234.61,-89.66 224.03,-89.1 225.99,-95.82"/>
</a>
</g>
<g id="a_edge5&#45;headlabel"><a xlink:href="dir_000003_000015.html" target="_top" xlink:title="1">
<text text-anchor="middle" x="224.79" y="-95.63" font-family="Helvetica,sans-Serif" font-size="10.00" fill="#63b8ff">1</text>
</a>
</g>
</g>
<!-- dir_45dc5c8d62ec8ca66ff85239c099c91b -->
<g id="node10" class="node">
<title>dir_45dc5c8d62ec8ca66ff85239c099c91b</title>
<g id="a_node10"><a xlink:href="dir_45dc5c8d62ec8ca66ff85239c099c91b.html" target="_top" xlink:title="set_channel">
<polygon fill="#a2b4d6" stroke="#404040" points="360.25,-92 291.75,-92 291.75,-72 360.25,-72 360.25,-92"/>
<text text-anchor="middle" x="326" y="-78.5" font-family="Helvetica,sans-Serif" font-size="10.00">set_channel</text>
</a>
</g>
</g>
<!-- dir_261c5c8db3e2632ea4bb1b96cd6e78dc&#45;&gt;dir_45dc5c8d62ec8ca66ff85239c099c91b -->
<g id="edge1" class="edge">
<title>dir_261c5c8db3e2632ea4bb1b96cd6e78dc&#45;&gt;dir_45dc5c8d62ec8ca66ff85239c099c91b</title>
<g id="a_edge1"><a xlink:href="dir_000003_000019.html" target="_top">
<path fill="none" stroke="#63b8ff" d="M87.77,-129.94C90.88,-129.28 94,-128.62 97,-128 176.08,-111.67 198.63,-108.84 280.44,-92.49"/>
<polygon fill="#63b8ff" stroke="#63b8ff" points="280.68,-96.01 289.79,-90.61 279.3,-89.15 280.68,-96.01"/>
</a>
</g>
<g id="a_edge1&#45;headlabel"><a xlink:href="dir_000003_000019.html" target="_top" xlink:title="5">
<text text-anchor="middle" x="279.19" y="-95.71" font-family="Helvetica,sans-Serif" font-size="10.00" fill="#63b8ff">5</text>
</a>
</g>
</g>
<!-- dir_c51bb8760eda2ecf5deaef23809ed440&#45;&gt;dir_cac0b191d0d7d0dd67d730930ce5fa13 -->
<g id="edge6" class="edge">
<title>dir_c51bb8760eda2ecf5deaef23809ed440&#45;&gt;dir_cac0b191d0d7d0dd67d730930ce5fa13</title>
<g id="a_edge6"><a xlink:href="dir_000002_000000.html" target="_top">
<path fill="none" stroke="#63b8ff" d="M87.17,-71.54C94.72,-68.83 103.13,-66.05 111,-64 177.92,-46.53 258.77,-35.16 299.62,-30.07"/>
<polygon fill="#63b8ff" stroke="#63b8ff" points="299.95,-33.56 309.45,-28.88 299.1,-26.61 299.95,-33.56"/>
</a>
</g>
<g id="a_edge6&#45;headlabel"><a xlink:href="dir_000002_000000.html" target="_top" xlink:title="8">
<text text-anchor="middle" x="298.22" y="-33.13" font-family="Helvetica,sans-Serif" font-size="10.00" fill="#63b8ff">8</text>
</a>
</g>
</g>
<!-- dir_dc1cac501bd439d519324f1df382cae1&#45;&gt;dir_cac0b191d0d7d0dd67d730930ce5fa13 -->
<g id="edge7" class="edge">
<title>dir_dc1cac501bd439d519324f1df382cae1&#45;&gt;dir_cac0b191d0d7d0dd67d730930ce5fa13</title>
<g id="a_edge7"><a xlink:href="dir_000006_000000.html" target="_top">
<path fill="none" stroke="#63b8ff" d="M149.45,-71.57C153.59,-68.8 158.33,-65.98 163,-64 208.96,-44.51 266.75,-34.51 299.72,-30.04"/>
<polygon fill="#63b8ff" stroke="#63b8ff" points="300.09,-33.52 309.57,-28.78 299.2,-26.58 300.09,-33.52"/>
</a>
</g>
<g id="a_edge7&#45;headlabel"><a xlink:href="dir_000006_000000.html" target="_top" xlink:title="1">
<text text-anchor="middle" x="298.39" y="-33.1" font-family="Helvetica,sans-Serif" font-size="10.00" fill="#63b8ff">1</text>
</a>
</g>
</g>
<!-- dir_9d7cbcd390d83bb8092815502b9393e2&#45;&gt;dir_cac0b191d0d7d0dd67d730930ce5fa13 -->
<g id="edge8" class="edge">
<title>dir_9d7cbcd390d83bb8092815502b9393e2&#45;&gt;dir_cac0b191d0d7d0dd67d730930ce5fa13</title>
<g id="a_edge8"><a xlink:href="dir_000011_000000.html" target="_top">
<path fill="none" stroke="#63b8ff" d="M212.29,-71.62C217.3,-69.03 222.82,-66.3 228,-64 252.03,-53.32 280.19,-42.89 300.14,-35.85"/>
<polygon fill="#63b8ff" stroke="#63b8ff" points="301.12,-39.21 309.41,-32.61 298.82,-32.6 301.12,-39.21"/>
</a>
</g>
<g id="a_edge8&#45;headlabel"><a xlink:href="dir_000011_000000.html" target="_top" xlink:title="1">
<text text-anchor="middle" x="300.09" y="-39.08" font-family="Helvetica,sans-Serif" font-size="10.00" fill="#63b8ff">1</text>
</a>
</g>
</g>
<!-- dir_4bf8f6c3c349d2a29524f93c7ce04644 -->
<g id="node6" class="node">
<title>dir_4bf8f6c3c349d2a29524f93c7ce04644</title>
<g id="a_node6"><a xlink:href="dir_4bf8f6c3c349d2a29524f93c7ce04644.html" target="_top" xlink:title="init_database">
<polygon fill="#a2b4d6" stroke="#404040" points="179.88,-148 106.12,-148 106.12,-128 179.88,-128 179.88,-148"/>
<text text-anchor="middle" x="143" y="-134.5" font-family="Helvetica,sans-Serif" font-size="10.00">init_database</text>
</a>
</g>
</g>
<!-- dir_4bf8f6c3c349d2a29524f93c7ce04644&#45;&gt;dir_cac0b191d0d7d0dd67d730930ce5fa13 -->
<g id="edge9" class="edge">
<title>dir_4bf8f6c3c349d2a29524f93c7ce04644&#45;&gt;dir_cac0b191d0d7d0dd67d730930ce5fa13</title>
<g id="a_edge9"><a xlink:href="dir_000013_000000.html" target="_top">
<path fill="none" stroke="#63b8ff" d="M180.24,-129.66C244.32,-117.02 368.62,-92.46 369,-92 376.89,-82.38 374.19,-75.31 369,-64 364.96,-55.19 357.67,-47.68 350.22,-41.78"/>
<polygon fill="#63b8ff" stroke="#63b8ff" points="352.36,-39 342.18,-36.06 348.3,-44.71 352.36,-39"/>
</a>
</g>
<g id="a_edge9&#45;headlabel"><a xlink:href="dir_000013_000000.html" target="_top" xlink:title="1">
<text text-anchor="middle" x="355.7" y="-34.4" font-family="Helvetica,sans-Serif" font-size="10.00" fill="#63b8ff">1</text>
</a>
</g>
</g>
<!-- dir_e4c64626919ae284a6143de39fd042e4&#45;&gt;dir_cac0b191d0d7d0dd67d730930ce5fa13 -->
<g id="edge10" class="edge">
<title>dir_e4c64626919ae284a6143de39fd042e4&#45;&gt;dir_cac0b191d0d7d0dd67d730930ce5fa13</title>
<g id="a_edge10"><a xlink:href="dir_000015_000000.html" target="_top">
<path fill="none" stroke="#63b8ff" d="M267.37,-71.59C277.65,-63.77 292.52,-52.46 304.71,-43.19"/>
<polygon fill="#63b8ff" stroke="#63b8ff" points="306.73,-46.05 312.57,-37.21 302.49,-40.48 306.73,-46.05"/>
</a>
</g>
<g id="a_edge10&#45;headlabel"><a xlink:href="dir_000015_000000.html" target="_top" xlink:title="1">
<text text-anchor="middle" x="306.79" y="-46.07" font-family="Helvetica,sans-Serif" font-size="10.00" fill="#63b8ff">1</text>
</a>
</g>
</g>
<!-- dir_4664096a0ece9a7aba46a7b7bb421972 -->
<g id="node8" class="node">
<title>dir_4664096a0ece9a7aba46a7b7bb421972</title>
<g id="a_node8"><a xlink:href="dir_4664096a0ece9a7aba46a7b7bb421972.html" target="_top" xlink:title="resources">
<polygon fill="#a2b4d6" stroke="#404040" points="256.38,-148 197.62,-148 197.62,-128 256.38,-128 256.38,-148"/>
<text text-anchor="middle" x="227" y="-134.5" font-family="Helvetica,sans-Serif" font-size="10.00">resources</text>
</a>
</g>
</g>
<!-- dir_4664096a0ece9a7aba46a7b7bb421972&#45;&gt;dir_cac0b191d0d7d0dd67d730930ce5fa13 -->
<g id="edge11" class="edge">
<title>dir_4664096a0ece9a7aba46a7b7bb421972&#45;&gt;dir_cac0b191d0d7d0dd67d730930ce5fa13</title>
<g id="a_edge11"><a xlink:href="dir_000017_000000.html" target="_top">
<path fill="none" stroke="#63b8ff" d="M256.7,-129.47C301.12,-118.06 380.09,-97.19 384,-92 391.49,-82.06 389.98,-74.91 384,-64 376.98,-51.2 363.45,-42.19 351.22,-36.27"/>
<polygon fill="#63b8ff" stroke="#63b8ff" points="352.96,-33.21 342.39,-32.44 350.18,-39.63 352.96,-33.21"/>
</a>
</g>
<g id="a_edge11&#45;headlabel"><a xlink:href="dir_000017_000000.html" target="_top" xlink:title="1">
<text text-anchor="middle" x="356" y="-27.93" font-family="Helvetica,sans-Serif" font-size="10.00" fill="#63b8ff">1</text>
</a>
</g>
</g>
<!-- dir_79539d27238dee0ea0b88155f5d478bd -->
<g id="node9" class="node">
<title>dir_79539d27238dee0ea0b88155f5d478bd</title>
<g id="a_node9"><a xlink:href="dir_79539d27238dee0ea0b88155f5d478bd.html" target="_top" xlink:title="roles">
<polygon fill="#a2b4d6" stroke="#404040" points="311.5,-148 274.5,-148 274.5,-128 311.5,-128 311.5,-148"/>
<text text-anchor="middle" x="293" y="-134.5" font-family="Helvetica,sans-Serif" font-size="10.00">roles</text>
</a>
</g>
</g>
<!-- dir_79539d27238dee0ea0b88155f5d478bd&#45;&gt;dir_cac0b191d0d7d0dd67d730930ce5fa13 -->
<g id="edge12" class="edge">
<title>dir_79539d27238dee0ea0b88155f5d478bd&#45;&gt;dir_cac0b191d0d7d0dd67d730930ce5fa13</title>
<g id="a_edge12"><a xlink:href="dir_000018_000000.html" target="_top">
<path fill="none" stroke="#63b8ff" d="M311.66,-130.71C341.84,-120.36 398.57,-100.06 404,-92 410.95,-81.68 410.65,-74.52 404,-64 392.7,-46.13 370.16,-36.72 352.2,-31.87"/>
<polygon fill="#63b8ff" stroke="#63b8ff" points="353.24,-28.52 342.71,-29.64 351.64,-35.33 353.24,-28.52"/>
</a>
</g>
<g id="a_edge12&#45;headlabel"><a xlink:href="dir_000018_000000.html" target="_top" xlink:title="2">
<text text-anchor="middle" x="355.91" y="-22.73" font-family="Helvetica,sans-Serif" font-size="10.00" fill="#63b8ff">2</text>
</a>
</g>
</g>
<!-- dir_45dc5c8d62ec8ca66ff85239c099c91b&#45;&gt;dir_cac0b191d0d7d0dd67d730930ce5fa13 -->
<g id="edge13" class="edge">
<title>dir_45dc5c8d62ec8ca66ff85239c099c91b&#45;&gt;dir_cac0b191d0d7d0dd67d730930ce5fa13</title>
<g id="a_edge13"><a xlink:href="dir_000019_000000.html" target="_top">
<path fill="none" stroke="#63b8ff" d="M326,-71.59C326,-65.01 326,-55.96 326,-47.73"/>
<polygon fill="#63b8ff" stroke="#63b8ff" points="329.5,-47.81 326,-37.81 322.5,-47.81 329.5,-47.81"/>
</a>
</g>
<g id="a_edge13&#45;headlabel"><a xlink:href="dir_000019_000000.html" target="_top" xlink:title="12">
<text text-anchor="middle" x="332.34" y="-46.39" font-family="Helvetica,sans-Serif" font-size="10.00" fill="#63b8ff">12</text>
</a>
</g>
</g>
<!-- dir_a8a25b46e7248d1cc8cde0feac26ecd0 -->
<g id="node11" class="node">
<title>dir_a8a25b46e7248d1cc8cde0feac26ecd0</title>
<g id="a_node11"><a xlink:href="dir_a8a25b46e7248d1cc8cde0feac26ecd0.html" target="_top" xlink:title="users">
<polygon fill="#a2b4d6" stroke="#404040" points="370,-148 330,-148 330,-128 370,-128 370,-148"/>
<text text-anchor="middle" x="350" y="-134.5" font-family="Helvetica,sans-Serif" font-size="10.00">users</text>
</a>
</g>
</g>
<!-- dir_a8a25b46e7248d1cc8cde0feac26ecd0&#45;&gt;dir_cac0b191d0d7d0dd67d730930ce5fa13 -->
<g id="edge14" class="edge">
<title>dir_a8a25b46e7248d1cc8cde0feac26ecd0&#45;&gt;dir_cac0b191d0d7d0dd67d730930ce5fa13</title>
<g id="a_edge14"><a xlink:href="dir_000021_000000.html" target="_top">
<path fill="none" stroke="#63b8ff" d="M370.48,-130.87C388.18,-124.37 412.65,-112.18 424,-92 430.1,-81.15 431.08,-74.24 424,-64 407.97,-40.82 375.43,-32.14 352.25,-28.91"/>
<polygon fill="#63b8ff" stroke="#63b8ff" points="352.94,-25.46 342.62,-27.83 352.17,-32.42 352.94,-25.46"/>
</a>
</g>
<g id="a_edge14&#45;headlabel"><a xlink:href="dir_000021_000000.html" target="_top" xlink:title="1">
<text text-anchor="middle" x="355.33" y="-19.37" font-family="Helvetica,sans-Serif" font-size="10.00" fill="#63b8ff">1</text>
</a>
</g>
</g>
</g>
</svg>
