<?xml version="1.0" encoding="UTF-8" standalone="no"?>
<!DOCTYPE svg PUBLIC "-//W3C//DTD SVG 1.1//EN"
 "http://www.w3.org/Graphics/SVG/1.1/DTD/svg11.dtd">
<!-- Generated by graphviz version 12.2.1 (0)
 -->
<!-- Title: src/bot_library/bot/email/EmailClient.cpp Pages: 1 -->
<svg width="337pt" height="152pt"
 viewBox="0.00 0.00 337.00 152.00" xmlns="http://www.w3.org/2000/svg" xmlns:xlink="http://www.w3.org/1999/xlink">
<g id="graph0" class="graph" transform="scale(1 1) rotate(0) translate(4 148)">
<title>src/bot_library/bot/email/EmailClient.cpp</title>
<!-- Node1 -->
<g id="Node000001" class="node">
<title>Node1</title>
<g id="a_Node000001"><a xlink:title=" ">
<polygon fill="#999999" stroke="#666666" points="254.75,-144 140.5,-144 140.5,-112 254.75,-112 254.75,-144"/>
<text text-anchor="start" x="148.5" y="-130.5" font-family="Helvetica,sans-Serif" font-size="10.00">src/bot_library/bot</text>
<text text-anchor="middle" x="197.62" y="-118.5" font-family="Helvetica,sans-Serif" font-size="10.00">/email/EmailClient.cpp</text>
</a>
</g>
</g>
<!-- Node2 -->
<g id="Node000002" class="node">
<title>Node2</title>
<g id="a_Node000002"><a xlink:href="EmailClient_8hpp.html" target="_top" xlink:title=" ">
<polygon fill="white" stroke="#666666" points="126.12,-76 41.12,-76 41.12,-56 126.12,-56 126.12,-76"/>
<text text-anchor="middle" x="83.62" y="-62.5" font-family="Helvetica,sans-Serif" font-size="10.00">EmailClient.hpp</text>
</a>
</g>
</g>
<!-- Node1&#45;&gt;Node2 -->
<g id="edge1_Node000001_Node000002" class="edge">
<title>Node1&#45;&gt;Node2</title>
<g id="a_edge1_Node000001_Node000002"><a xlink:title=" ">
<path fill="none" stroke="#63b8ff" d="M168.27,-111.55C150.78,-102.35 128.72,-90.74 111.51,-81.68"/>
<polygon fill="#63b8ff" stroke="#63b8ff" points="113.32,-78.67 102.84,-77.11 110.06,-84.87 113.32,-78.67"/>
</a>
</g>
</g>
<!-- Node6 -->
<g id="Node000006" class="node">
<title>Node6</title>
<g id="a_Node000006"><a xlink:title=" ">
<polygon fill="#e0e0e0" stroke="#999999" points="189.25,-76 144,-76 144,-56 189.25,-56 189.25,-76"/>
<text text-anchor="middle" x="166.62" y="-62.5" font-family="Helvetica,sans-Serif" font-size="10.00">chrono</text>
</a>
</g>
</g>
<!-- Node1&#45;&gt;Node6 -->
<g id="edge5_Node000001_Node000006" class="edge">
<title>Node1&#45;&gt;Node6</title>
<g id="a_edge5_Node000001_Node000006"><a xlink:title=" ">
<path fill="none" stroke="#63b8ff" d="M189.64,-111.55C185.7,-103.91 180.89,-94.61 176.69,-86.49"/>
<polygon fill="#63b8ff" stroke="#63b8ff" points="179.88,-85.03 172.18,-77.75 173.66,-88.24 179.88,-85.03"/>
</a>
</g>
</g>
<!-- Node7 -->
<g id="Node000007" class="node">
<title>Node7</title>
<g id="a_Node000007"><a xlink:title=" ">
<polygon fill="#e0e0e0" stroke="#999999" points="252.25,-76 207,-76 207,-56 252.25,-56 252.25,-76"/>
<text text-anchor="middle" x="229.62" y="-62.5" font-family="Helvetica,sans-Serif" font-size="10.00">cstring</text>
</a>
</g>
</g>
<!-- Node1&#45;&gt;Node7 -->
<g id="edge6_Node000001_Node000007" class="edge">
<title>Node1&#45;&gt;Node7</title>
<g id="a_edge6_Node000001_Node000007"><a xlink:title=" ">
<path fill="none" stroke="#63b8ff" d="M205.87,-111.55C209.94,-103.91 214.9,-94.61 219.23,-86.49"/>
<polygon fill="#63b8ff" stroke="#63b8ff" points="222.28,-88.21 223.9,-77.74 216.1,-84.92 222.28,-88.21"/>
</a>
</g>
</g>
<!-- Node8 -->
<g id="Node000008" class="node">
<title>Node8</title>
<g id="a_Node000008"><a xlink:title=" ">
<polygon fill="#e0e0e0" stroke="#999999" points="329,-76 270.25,-76 270.25,-56 329,-56 329,-76"/>
<text text-anchor="middle" x="299.62" y="-62.5" font-family="Helvetica,sans-Serif" font-size="10.00">curl/curl.h</text>
</a>
</g>
</g>
<!-- Node1&#45;&gt;Node8 -->
<g id="edge7_Node000001_Node000008" class="edge">
<title>Node1&#45;&gt;Node8</title>
<g id="a_edge7_Node000001_Node000008"><a xlink:title=" ">
<path fill="none" stroke="#63b8ff" d="M223.89,-111.55C239.24,-102.52 258.53,-91.17 273.8,-82.19"/>
<polygon fill="#63b8ff" stroke="#63b8ff" points="275.48,-85.26 282.33,-77.18 271.93,-79.23 275.48,-85.26"/>
</a>
</g>
</g>
<!-- Node3 -->
<g id="Node000003" class="node">
<title>Node3</title>
<g id="a_Node000003"><a xlink:title=" ">
<polygon fill="#e0e0e0" stroke="#999999" points="45.25,-20 0,-20 0,0 45.25,0 45.25,-20"/>
<text text-anchor="middle" x="22.62" y="-6.5" font-family="Helvetica,sans-Serif" font-size="10.00">cstdint</text>
</a>
</g>
</g>
<!-- Node2&#45;&gt;Node3 -->
<g id="edge2_Node000002_Node000003" class="edge">
<title>Node2&#45;&gt;Node3</title>
<g id="a_edge2_Node000002_Node000003"><a xlink:title=" ">
<path fill="none" stroke="#63b8ff" d="M73,-55.59C64.34,-47.93 51.89,-36.91 41.54,-27.75"/>
<polygon fill="#63b8ff" stroke="#63b8ff" points="44.07,-25.31 34.26,-21.3 39.43,-30.55 44.07,-25.31"/>
</a>
</g>
</g>
<!-- Node4 -->
<g id="Node000004" class="node">
<title>Node4</title>
<g id="a_Node000004"><a xlink:title=" ">
<polygon fill="#e0e0e0" stroke="#999999" points="103.62,-20 63.62,-20 63.62,0 103.62,0 103.62,-20"/>
<text text-anchor="middle" x="83.62" y="-6.5" font-family="Helvetica,sans-Serif" font-size="10.00">string</text>
</a>
</g>
</g>
<!-- Node2&#45;&gt;Node4 -->
<g id="edge3_Node000002_Node000004" class="edge">
<title>Node2&#45;&gt;Node4</title>
<g id="a_edge3_Node000002_Node000004"><a xlink:title=" ">
<path fill="none" stroke="#63b8ff" d="M83.62,-55.59C83.62,-49.01 83.62,-39.96 83.62,-31.73"/>
<polygon fill="#63b8ff" stroke="#63b8ff" points="87.13,-31.81 83.63,-21.81 80.13,-31.81 87.13,-31.81"/>
</a>
</g>
</g>
<!-- Node5 -->
<g id="Node000005" class="node">
<title>Node5</title>
<g id="a_Node000005"><a xlink:title=" ">
<polygon fill="#e0e0e0" stroke="#999999" points="165.12,-20 122.12,-20 122.12,0 165.12,0 165.12,-20"/>
<text text-anchor="middle" x="143.62" y="-6.5" font-family="Helvetica,sans-Serif" font-size="10.00">vector</text>
</a>
</g>
</g>
<!-- Node2&#45;&gt;Node5 -->
<g id="edge4_Node000002_Node000005" class="edge">
<title>Node2&#45;&gt;Node5</title>
<g id="a_edge4_Node000002_Node000005"><a xlink:title=" ">
<path fill="none" stroke="#63b8ff" d="M94.08,-55.59C102.59,-47.93 114.84,-36.91 125.02,-27.75"/>
<polygon fill="#63b8ff" stroke="#63b8ff" points="127.08,-30.6 132.17,-21.31 122.39,-25.4 127.08,-30.6"/>
</a>
</g>
</g>
</g>
</svg>
