<?xml version="1.0" encoding="UTF-8" standalone="no"?>
<!DOCTYPE svg PUBLIC "-//W3C//DTD SVG 1.1//EN"
 "http://www.w3.org/Graphics/SVG/1.1/DTD/svg11.dtd">
<!-- Generated by graphviz version 13.0.1 (0)
 -->
<!-- Title: src/bot_library/commands/flip/FlipCommand.hpp Pages: 1 -->
<svg width="1361pt" height="376pt"
 viewBox="0.00 0.00 1361.00 376.00" xmlns="http://www.w3.org/2000/svg" xmlns:xlink="http://www.w3.org/1999/xlink">
<g id="graph0" class="graph" transform="scale(1 1) rotate(0) translate(4 372)">
<title>src/bot_library/commands/flip/FlipCommand.hpp</title>
<!-- Node1 -->
<g id="Node000001" class="node">
<title>Node1</title>
<g id="a_Node000001"><a xlink:title=" ">
<polygon fill="#999999" stroke="#666666" points="890.25,-368 761.75,-368 761.75,-336 890.25,-336 890.25,-368"/>
<text xml:space="preserve" text-anchor="start" x="769.75" y="-354.5" font-family="Helvetica,sans-Serif" font-size="10.00">src/bot_library/commands</text>
<text xml:space="preserve" text-anchor="middle" x="826" y="-342.5" font-family="Helvetica,sans-Serif" font-size="10.00">/flip/FlipCommand.hpp</text>
</a>
</g>
</g>
<!-- Node2 -->
<g id="Node000002" class="node">
<title>Node2</title>
<g id="a_Node000002"><a xlink:href="Bot_8hpp.html" target="_top" xlink:title=" ">
<polygon fill="white" stroke="#666666" points="850.88,-300 801.12,-300 801.12,-280 850.88,-280 850.88,-300"/>
<text xml:space="preserve" text-anchor="middle" x="826" y="-286.5" font-family="Helvetica,sans-Serif" font-size="10.00">Bot.hpp</text>
</a>
</g>
</g>
<!-- Node1&#45;&gt;Node2 -->
<g id="edge1_Node000001_Node000002" class="edge">
<title>Node1&#45;&gt;Node2</title>
<g id="a_edge1_Node000001_Node000002"><a xlink:title=" ">
<path fill="none" stroke="#63b8ff" d="M826,-335.55C826,-328.34 826,-319.66 826,-311.88"/>
<polygon fill="#63b8ff" stroke="#63b8ff" points="829.5,-311.92 826,-301.92 822.5,-311.92 829.5,-311.92"/>
</a>
</g>
</g>
<!-- Node3 -->
<g id="Node000003" class="node">
<title>Node3</title>
<g id="a_Node000003"><a xlink:href="Core_8hpp.html" target="_top" xlink:title=" ">
<polygon fill="white" stroke="#666666" points="706.88,-244 651.12,-244 651.12,-224 706.88,-224 706.88,-244"/>
<text xml:space="preserve" text-anchor="middle" x="679" y="-230.5" font-family="Helvetica,sans-Serif" font-size="10.00">Core.hpp</text>
</a>
</g>
</g>
<!-- Node2&#45;&gt;Node3 -->
<g id="edge2_Node000002_Node000003" class="edge">
<title>Node2&#45;&gt;Node3</title>
<g id="a_edge2_Node000002_Node000003"><a xlink:title=" ">
<path fill="none" stroke="#63b8ff" d="M800.73,-279.72C777.17,-271.06 741.77,-258.06 715.21,-248.3"/>
<polygon fill="#63b8ff" stroke="#63b8ff" points="716.45,-245.03 705.85,-244.86 714.03,-251.6 716.45,-245.03"/>
</a>
</g>
</g>
<!-- Node8 -->
<g id="Node000008" class="node">
<title>Node8</title>
<g id="a_Node000008"><a xlink:title=" ">
<polygon fill="#e0e0e0" stroke="#999999" points="40,-132 0,-132 0,-112 40,-112 40,-132"/>
<text xml:space="preserve" text-anchor="middle" x="20" y="-118.5" font-family="Helvetica,sans-Serif" font-size="10.00">string</text>
</a>
</g>
</g>
<!-- Node2&#45;&gt;Node8 -->
<g id="edge45_Node000002_Node000008" class="edge">
<title>Node2&#45;&gt;Node8</title>
<g id="a_edge45_Node000002_Node000008"><a xlink:title=" ">
<path fill="none" stroke="#63b8ff" d="M800.93,-287.99C686.43,-283.03 213.32,-258.52 86,-188 64.77,-176.24 45.63,-155.75 33.5,-140.91"/>
<polygon fill="#63b8ff" stroke="#63b8ff" points="36.45,-139.01 27.52,-133.32 30.95,-143.34 36.45,-139.01"/>
</a>
</g>
</g>
<!-- Node9 -->
<g id="Node000009" class="node">
<title>Node9</title>
<g id="a_Node000009"><a xlink:title=" ">
<polygon fill="#e0e0e0" stroke="#999999" points="339.5,-132 296.5,-132 296.5,-112 339.5,-112 339.5,-132"/>
<text xml:space="preserve" text-anchor="middle" x="318" y="-118.5" font-family="Helvetica,sans-Serif" font-size="10.00">vector</text>
</a>
</g>
</g>
<!-- Node2&#45;&gt;Node9 -->
<g id="edge46_Node000002_Node000009" class="edge">
<title>Node2&#45;&gt;Node9</title>
<g id="a_edge46_Node000002_Node000009"><a xlink:title=" ">
<path fill="none" stroke="#63b8ff" d="M800.78,-288.56C701.2,-286.24 337.4,-272.04 269,-188 255.63,-171.57 274.71,-152.1 292.83,-138.78"/>
<polygon fill="#63b8ff" stroke="#63b8ff" points="294.55,-141.85 300.79,-133.28 290.57,-136.08 294.55,-141.85"/>
</a>
</g>
</g>
<!-- Node13 -->
<g id="Node000013" class="node">
<title>Node13</title>
<g id="a_Node000013"><a xlink:href="IButtonCommand_8hpp.html" target="_top" xlink:title=" ">
<polygon fill="white" stroke="#666666" points="1009.62,-188 898.38,-188 898.38,-168 1009.62,-168 1009.62,-188"/>
<text xml:space="preserve" text-anchor="middle" x="954" y="-174.5" font-family="Helvetica,sans-Serif" font-size="10.00">IButtonCommand.hpp</text>
</a>
</g>
</g>
<!-- Node2&#45;&gt;Node13 -->
<g id="edge34_Node000002_Node000013" class="edge">
<title>Node2&#45;&gt;Node13</title>
<g id="a_edge34_Node000002_Node000013"><a xlink:title=" ">
<path fill="none" stroke="#63b8ff" d="M830.35,-279.54C837.03,-265.85 850.96,-240.36 869,-224 883.41,-210.93 902.3,-200.44 918.62,-192.89"/>
<polygon fill="#63b8ff" stroke="#63b8ff" points="919.78,-196.2 927.51,-188.96 916.95,-189.8 919.78,-196.2"/>
</a>
</g>
</g>
<!-- Node16 -->
<g id="Node000016" class="node">
<title>Node16</title>
<g id="a_Node000016"><a xlink:href="IFormCommand_8hpp.html" target="_top" xlink:title=" ">
<polygon fill="white" stroke="#666666" points="1132.62,-188 1027.38,-188 1027.38,-168 1132.62,-168 1132.62,-188"/>
<text xml:space="preserve" text-anchor="middle" x="1080" y="-174.5" font-family="Helvetica,sans-Serif" font-size="10.00">IFormCommand.hpp</text>
</a>
</g>
</g>
<!-- Node2&#45;&gt;Node16 -->
<g id="edge35_Node000002_Node000016" class="edge">
<title>Node2&#45;&gt;Node16</title>
<g id="a_edge35_Node000002_Node000016"><a xlink:title=" ">
<path fill="none" stroke="#63b8ff" d="M835.04,-279.54C849.11,-265.37 877.67,-238.73 907,-224 941.14,-206.86 982.44,-195.8 1016.13,-188.93"/>
<polygon fill="#63b8ff" stroke="#63b8ff" points="1016.61,-192.41 1025.75,-187.05 1015.27,-185.53 1016.61,-192.41"/>
</a>
</g>
</g>
<!-- Node17 -->
<g id="Node000017" class="node">
<title>Node17</title>
<g id="a_Node000017"><a xlink:href="IGlobalSlashCommand_8hpp.html" target="_top" xlink:title=" ">
<polygon fill="white" stroke="#666666" points="413.62,-188 278.38,-188 278.38,-168 413.62,-168 413.62,-188"/>
<text xml:space="preserve" text-anchor="middle" x="346" y="-174.5" font-family="Helvetica,sans-Serif" font-size="10.00">IGlobalSlashCommand.hpp</text>
</a>
</g>
</g>
<!-- Node2&#45;&gt;Node17 -->
<g id="edge36_Node000002_Node000017" class="edge">
<title>Node2&#45;&gt;Node17</title>
<g id="a_edge36_Node000002_Node000017"><a xlink:title=" ">
<path fill="none" stroke="#63b8ff" d="M800.87,-283.24C725.66,-266.01 501.23,-214.57 398.45,-191.02"/>
<polygon fill="#63b8ff" stroke="#63b8ff" points="399.42,-187.65 388.89,-188.83 397.86,-194.47 399.42,-187.65"/>
</a>
</g>
</g>
<!-- Node19 -->
<g id="Node000019" class="node">
<title>Node19</title>
<g id="a_Node000019"><a xlink:href="IMemberCommand_8hpp.html" target="_top" xlink:title=" ">
<polygon fill="white" stroke="#666666" points="1269,-188 1151,-188 1151,-168 1269,-168 1269,-188"/>
<text xml:space="preserve" text-anchor="middle" x="1210" y="-174.5" font-family="Helvetica,sans-Serif" font-size="10.00">IMemberCommand.hpp</text>
</a>
</g>
</g>
<!-- Node2&#45;&gt;Node19 -->
<g id="edge37_Node000002_Node000019" class="edge">
<title>Node2&#45;&gt;Node19</title>
<g id="a_edge37_Node000002_Node000019"><a xlink:title=" ">
<path fill="none" stroke="#63b8ff" d="M842.59,-279.54C872.73,-262.42 934.33,-227.71 945,-224 963.1,-217.72 1067.02,-200.98 1139.21,-189.78"/>
<polygon fill="#63b8ff" stroke="#63b8ff" points="1139.66,-193.26 1149.01,-188.27 1138.59,-186.34 1139.66,-193.26"/>
</a>
</g>
</g>
<!-- Node20 -->
<g id="Node000020" class="node">
<title>Node20</title>
<g id="a_Node000020"><a xlink:href="IMessageCommand_8hpp.html" target="_top" xlink:title=" ">
<polygon fill="white" stroke="#666666" points="740.25,-188 617.75,-188 617.75,-168 740.25,-168 740.25,-188"/>
<text xml:space="preserve" text-anchor="middle" x="679" y="-174.5" font-family="Helvetica,sans-Serif" font-size="10.00">IMessageCommand.hpp</text>
</a>
</g>
</g>
<!-- Node2&#45;&gt;Node20 -->
<g id="edge38_Node000002_Node000020" class="edge">
<title>Node2&#45;&gt;Node20</title>
<g id="a_edge38_Node000002_Node000020"><a xlink:title=" ">
<path fill="none" stroke="#63b8ff" d="M813.47,-279.62C788.41,-260.87 731.85,-218.55 700.66,-195.21"/>
<polygon fill="#63b8ff" stroke="#63b8ff" points="702.82,-192.45 692.71,-189.26 698.62,-198.06 702.82,-192.45"/>
</a>
</g>
</g>
<!-- Node21 -->
<g id="Node000021" class="node">
<title>Node21</title>
<g id="a_Node000021"><a xlink:href="IReactionCommand_8hpp.html" target="_top" xlink:title=" ">
<polygon fill="white" stroke="#666666" points="879.88,-188 758.12,-188 758.12,-168 879.88,-168 879.88,-188"/>
<text xml:space="preserve" text-anchor="middle" x="819" y="-174.5" font-family="Helvetica,sans-Serif" font-size="10.00">IReactionCommand.hpp</text>
</a>
</g>
</g>
<!-- Node2&#45;&gt;Node21 -->
<g id="edge39_Node000002_Node000021" class="edge">
<title>Node2&#45;&gt;Node21</title>
<g id="a_edge39_Node000002_Node000021"><a xlink:title=" ">
<path fill="none" stroke="#63b8ff" d="M825.4,-279.62C824.28,-262.01 821.84,-223.59 820.31,-199.65"/>
<polygon fill="#63b8ff" stroke="#63b8ff" points="823.82,-199.62 819.69,-189.87 816.83,-200.07 823.82,-199.62"/>
</a>
</g>
</g>
<!-- Node22 -->
<g id="Node000022" class="node">
<title>Node22</title>
<g id="a_Node000022"><a xlink:href="IReady_8hpp.html" target="_top" xlink:title=" ">
<polygon fill="white" stroke="#666666" points="1352.75,-188 1287.25,-188 1287.25,-168 1352.75,-168 1352.75,-188"/>
<text xml:space="preserve" text-anchor="middle" x="1320" y="-174.5" font-family="Helvetica,sans-Serif" font-size="10.00">IReady.hpp</text>
</a>
</g>
</g>
<!-- Node2&#45;&gt;Node22 -->
<g id="edge40_Node000002_Node000022" class="edge">
<title>Node2&#45;&gt;Node22</title>
<g id="a_edge40_Node000002_Node000022"><a xlink:title=" ">
<path fill="none" stroke="#63b8ff" d="M851.23,-279.94C874.56,-271.35 910.02,-257.76 940,-244 957.35,-236.04 959.78,-229.68 978,-224 1102.83,-185.12 1143.4,-208.77 1276.06,-188.14"/>
<polygon fill="#63b8ff" stroke="#63b8ff" points="1276.23,-191.65 1285.55,-186.6 1275.12,-184.74 1276.23,-191.65"/>
</a>
</g>
</g>
<!-- Node23 -->
<g id="Node000023" class="node">
<title>Node23</title>
<g id="a_Node000023"><a xlink:title=" ">
<polygon fill="#e0e0e0" stroke="#999999" points="1021.38,-244 986.62,-244 986.62,-224 1021.38,-224 1021.38,-244"/>
<text xml:space="preserve" text-anchor="middle" x="1004" y="-230.5" font-family="Helvetica,sans-Serif" font-size="10.00">map</text>
</a>
</g>
</g>
<!-- Node2&#45;&gt;Node23 -->
<g id="edge43_Node000002_Node000023" class="edge">
<title>Node2&#45;&gt;Node23</title>
<g id="a_edge43_Node000002_Node000023"><a xlink:title=" ">
<path fill="none" stroke="#63b8ff" d="M851.13,-281.38C883.93,-271.43 941.2,-254.05 975.56,-243.63"/>
<polygon fill="#63b8ff" stroke="#63b8ff" points="976.27,-247.07 984.82,-240.82 974.23,-240.37 976.27,-247.07"/>
</a>
</g>
</g>
<!-- Node24 -->
<g id="Node000024" class="node">
<title>Node24</title>
<g id="a_Node000024"><a xlink:title=" ">
<polygon fill="#e0e0e0" stroke="#999999" points="1090.62,-244 1039.38,-244 1039.38,-224 1090.62,-224 1090.62,-244"/>
<text xml:space="preserve" text-anchor="middle" x="1065" y="-230.5" font-family="Helvetica,sans-Serif" font-size="10.00">memory</text>
</a>
</g>
</g>
<!-- Node2&#45;&gt;Node24 -->
<g id="edge44_Node000002_Node000024" class="edge">
<title>Node2&#45;&gt;Node24</title>
<g id="a_edge44_Node000002_Node000024"><a xlink:title=" ">
<path fill="none" stroke="#63b8ff" d="M851.19,-283.74C887.82,-276.02 958.17,-260.96 1027.86,-244.45"/>
<polygon fill="#63b8ff" stroke="#63b8ff" points="1028.64,-247.86 1037.56,-242.14 1027.02,-241.05 1028.64,-247.86"/>
</a>
</g>
</g>
<!-- Node4 -->
<g id="Node000004" class="node">
<title>Node4</title>
<g id="a_Node000004"><a xlink:title=" ">
<polygon fill="#e0e0e0" stroke="#999999" points="599.38,-188 540.62,-188 540.62,-168 599.38,-168 599.38,-188"/>
<text xml:space="preserve" text-anchor="middle" x="570" y="-174.5" font-family="Helvetica,sans-Serif" font-size="10.00">dpp/dpp.h</text>
</a>
</g>
</g>
<!-- Node3&#45;&gt;Node4 -->
<g id="edge3_Node000003_Node000004" class="edge">
<title>Node3&#45;&gt;Node4</title>
<g id="a_edge3_Node000003_Node000004"><a xlink:title=" ">
<path fill="none" stroke="#63b8ff" d="M660.01,-223.59C643.24,-215.28 618.51,-203.03 599.21,-193.47"/>
<polygon fill="#63b8ff" stroke="#63b8ff" points="601.01,-190.45 590.49,-189.15 597.9,-196.73 601.01,-190.45"/>
</a>
</g>
</g>
<!-- Node5 -->
<g id="Node000005" class="node">
<title>Node5</title>
<g id="a_Node000005"><a xlink:title=" ">
<polygon fill="#e0e0e0" stroke="#999999" points="522.5,-188 431.5,-188 431.5,-168 522.5,-168 522.5,-188"/>
<text xml:space="preserve" text-anchor="middle" x="477" y="-174.5" font-family="Helvetica,sans-Serif" font-size="10.00">dpp/misc&#45;enum.h</text>
</a>
</g>
</g>
<!-- Node3&#45;&gt;Node5 -->
<g id="edge4_Node000003_Node000005" class="edge">
<title>Node3&#45;&gt;Node5</title>
<g id="a_edge4_Node000003_Node000005"><a xlink:title=" ">
<path fill="none" stroke="#63b8ff" d="M650.91,-225.49C617.89,-216.66 562.59,-201.88 523.22,-191.36"/>
<polygon fill="#63b8ff" stroke="#63b8ff" points="524.34,-188.03 513.78,-188.83 522.53,-194.8 524.34,-188.03"/>
</a>
</g>
</g>
<!-- Node6 -->
<g id="Node000006" class="node">
<title>Node6</title>
<g id="a_Node000006"><a xlink:href="Database_8hpp.html" target="_top" xlink:title=" ">
<polygon fill="white" stroke="#666666" points="222.38,-188 145.62,-188 145.62,-168 222.38,-168 222.38,-188"/>
<text xml:space="preserve" text-anchor="middle" x="184" y="-174.5" font-family="Helvetica,sans-Serif" font-size="10.00">Database.hpp</text>
</a>
</g>
</g>
<!-- Node3&#45;&gt;Node6 -->
<g id="edge5_Node000003_Node000006" class="edge">
<title>Node3&#45;&gt;Node6</title>
<g id="a_edge5_Node000003_Node000006"><a xlink:title=" ">
<path fill="none" stroke="#63b8ff" d="M650.97,-229.94C570.33,-221.14 336.94,-195.68 233.9,-184.44"/>
<polygon fill="#63b8ff" stroke="#63b8ff" points="234.41,-180.98 224.09,-183.37 233.65,-187.94 234.41,-180.98"/>
</a>
</g>
</g>
<!-- Node3&#45;&gt;Node8 -->
<g id="edge33_Node000003_Node000008" class="edge">
<title>Node3&#45;&gt;Node8</title>
<g id="a_edge33_Node000003_Node000008"><a xlink:title=" ">
<path fill="none" stroke="#63b8ff" d="M650.92,-232.23C554.09,-229.33 234.68,-217.68 137,-188 101.33,-177.16 64.42,-154.38 41.83,-138.88"/>
<polygon fill="#63b8ff" stroke="#63b8ff" points="43.95,-136.09 33.75,-133.21 39.93,-141.82 43.95,-136.09"/>
</a>
</g>
</g>
<!-- Node3&#45;&gt;Node13 -->
<g id="edge13_Node000003_Node000013" class="edge">
<title>Node3&#45;&gt;Node13</title>
<g id="a_edge13_Node000003_Node000013"><a xlink:title=" ">
<path fill="none" stroke="#63b8ff" d="M707.14,-227.47C750.96,-218.87 836.51,-202.07 894.46,-190.69"/>
<polygon fill="#63b8ff" stroke="#63b8ff" points="895.03,-194.15 904.17,-188.78 893.69,-187.28 895.03,-194.15"/>
</a>
</g>
</g>
<!-- Node3&#45;&gt;Node16 -->
<g id="edge16_Node000003_Node000016" class="edge">
<title>Node3&#45;&gt;Node16</title>
<g id="a_edge16_Node000003_Node000016"><a xlink:title=" ">
<path fill="none" stroke="#63b8ff" d="M707.23,-229.41C763.76,-222.19 895.15,-205.24 1015.84,-188.43"/>
<polygon fill="#63b8ff" stroke="#63b8ff" points="1016.19,-191.91 1025.61,-187.06 1015.22,-184.98 1016.19,-191.91"/>
</a>
</g>
</g>
<!-- Node3&#45;&gt;Node17 -->
<g id="edge19_Node000003_Node000017" class="edge">
<title>Node3&#45;&gt;Node17</title>
<g id="a_edge19_Node000003_Node000017"><a xlink:title=" ">
<path fill="none" stroke="#63b8ff" d="M650.9,-228.44C599.47,-220.1 488.83,-202.16 415.93,-190.34"/>
<polygon fill="#63b8ff" stroke="#63b8ff" points="416.5,-186.89 406.07,-188.74 415.38,-193.8 416.5,-186.89"/>
</a>
</g>
</g>
<!-- Node3&#45;&gt;Node19 -->
<g id="edge24_Node000003_Node000019" class="edge">
<title>Node3&#45;&gt;Node19</title>
<g id="a_edge24_Node000003_Node000019"><a xlink:title=" ">
<path fill="none" stroke="#63b8ff" d="M707.22,-230.6C778.01,-224.51 969.07,-207.62 1139.48,-188.25"/>
<polygon fill="#63b8ff" stroke="#63b8ff" points="1139.64,-191.76 1149.17,-187.15 1138.84,-184.8 1139.64,-191.76"/>
</a>
</g>
</g>
<!-- Node3&#45;&gt;Node20 -->
<g id="edge27_Node000003_Node000020" class="edge">
<title>Node3&#45;&gt;Node20</title>
<g id="a_edge27_Node000003_Node000020"><a xlink:title=" ">
<path fill="none" stroke="#63b8ff" d="M679,-223.59C679,-217.01 679,-207.96 679,-199.73"/>
<polygon fill="#63b8ff" stroke="#63b8ff" points="682.5,-199.81 679,-189.81 675.5,-199.81 682.5,-199.81"/>
</a>
</g>
</g>
<!-- Node3&#45;&gt;Node21 -->
<g id="edge30_Node000003_Node000021" class="edge">
<title>Node3&#45;&gt;Node21</title>
<g id="a_edge30_Node000003_Node000021"><a xlink:title=" ">
<path fill="none" stroke="#63b8ff" d="M703.39,-223.59C725.63,-215.01 758.77,-202.23 783.87,-192.55"/>
<polygon fill="#63b8ff" stroke="#63b8ff" points="784.94,-195.89 793.01,-189.02 782.42,-189.36 784.94,-195.89"/>
</a>
</g>
</g>
<!-- Node7 -->
<g id="Node000007" class="node">
<title>Node7</title>
<g id="a_Node000007"><a xlink:title=" ">
<polygon fill="#e0e0e0" stroke="#999999" points="239.75,-132 186.25,-132 186.25,-112 239.75,-112 239.75,-132"/>
<text xml:space="preserve" text-anchor="middle" x="213" y="-118.5" font-family="Helvetica,sans-Serif" font-size="10.00">iostream</text>
</a>
</g>
</g>
<!-- Node6&#45;&gt;Node7 -->
<g id="edge6_Node000006_Node000007" class="edge">
<title>Node6&#45;&gt;Node7</title>
<g id="a_edge6_Node000006_Node000007"><a xlink:title=" ">
<path fill="none" stroke="#63b8ff" d="M189.05,-167.59C192.79,-160.63 198.02,-150.89 202.64,-142.29"/>
<polygon fill="#63b8ff" stroke="#63b8ff" points="205.64,-144.1 207.29,-133.63 199.48,-140.79 205.64,-144.1"/>
</a>
</g>
</g>
<!-- Node6&#45;&gt;Node8 -->
<g id="edge7_Node000006_Node000008" class="edge">
<title>Node6&#45;&gt;Node8</title>
<g id="a_edge7_Node000006_Node000008"><a xlink:title=" ">
<path fill="none" stroke="#63b8ff" d="M155.43,-167.59C126.3,-158 81.23,-143.16 51.19,-133.27"/>
<polygon fill="#63b8ff" stroke="#63b8ff" points="52.5,-130.02 41.91,-130.21 50.31,-136.67 52.5,-130.02"/>
</a>
</g>
</g>
<!-- Node6&#45;&gt;Node9 -->
<g id="edge8_Node000006_Node000009" class="edge">
<title>Node6&#45;&gt;Node9</title>
<g id="a_edge8_Node000006_Node000009"><a xlink:title=" ">
<path fill="none" stroke="#63b8ff" d="M207.34,-167.59C229.06,-158.84 261.62,-145.72 285.8,-135.97"/>
<polygon fill="#63b8ff" stroke="#63b8ff" points="286.89,-139.31 294.85,-132.33 284.27,-132.82 286.89,-139.31"/>
</a>
</g>
</g>
<!-- Node10 -->
<g id="Node000010" class="node">
<title>Node10</title>
<g id="a_Node000010"><a xlink:href="DatabaseBackend_8hpp.html" target="_top" xlink:title=" ">
<polygon fill="white" stroke="#666666" points="247.5,-76 132.5,-76 132.5,-56 247.5,-56 247.5,-76"/>
<text xml:space="preserve" text-anchor="middle" x="190" y="-62.5" font-family="Helvetica,sans-Serif" font-size="10.00">DatabaseBackend.hpp</text>
</a>
</g>
</g>
<!-- Node6&#45;&gt;Node10 -->
<g id="edge9_Node000006_Node000010" class="edge">
<title>Node6&#45;&gt;Node10</title>
<g id="a_edge9_Node000006_Node000010"><a xlink:title=" ">
<path fill="none" stroke="#63b8ff" d="M207.75,-167.51C222.53,-160.2 240.34,-148.53 249,-132 259.29,-112.37 238.85,-94.06 219.27,-81.92"/>
<polygon fill="#63b8ff" stroke="#63b8ff" points="221.29,-79.04 210.88,-77.07 217.79,-85.1 221.29,-79.04"/>
</a>
</g>
</g>
<!-- Node12 -->
<g id="Node000012" class="node">
<title>Node12</title>
<g id="a_Node000012"><a xlink:href="RowDTOAdapter_8hpp.html" target="_top" xlink:title=" ">
<polygon fill="white" stroke="#666666" points="167.88,-132 58.13,-132 58.13,-112 167.88,-112 167.88,-132"/>
<text xml:space="preserve" text-anchor="middle" x="113" y="-118.5" font-family="Helvetica,sans-Serif" font-size="10.00">RowDTOAdapter.hpp</text>
</a>
</g>
</g>
<!-- Node6&#45;&gt;Node12 -->
<g id="edge11_Node000006_Node000012" class="edge">
<title>Node6&#45;&gt;Node12</title>
<g id="a_edge11_Node000006_Node000012"><a xlink:title=" ">
<path fill="none" stroke="#63b8ff" d="M171.63,-167.59C161.35,-159.77 146.48,-148.46 134.29,-139.19"/>
<polygon fill="#63b8ff" stroke="#63b8ff" points="136.51,-136.48 126.43,-133.21 132.27,-142.05 136.51,-136.48"/>
</a>
</g>
</g>
<!-- Node11 -->
<g id="Node000011" class="node">
<title>Node11</title>
<g id="a_Node000011"><a xlink:title=" ">
<polygon fill="#e0e0e0" stroke="#999999" points="220.5,-20 159.5,-20 159.5,0 220.5,0 220.5,-20"/>
<text xml:space="preserve" text-anchor="middle" x="190" y="-6.5" font-family="Helvetica,sans-Serif" font-size="10.00">pqxx/pqxx</text>
</a>
</g>
</g>
<!-- Node10&#45;&gt;Node11 -->
<g id="edge10_Node000010_Node000011" class="edge">
<title>Node10&#45;&gt;Node11</title>
<g id="a_edge10_Node000010_Node000011"><a xlink:title=" ">
<path fill="none" stroke="#63b8ff" d="M190,-55.59C190,-49.01 190,-39.96 190,-31.73"/>
<polygon fill="#63b8ff" stroke="#63b8ff" points="193.5,-31.81 190,-21.81 186.5,-31.81 193.5,-31.81"/>
</a>
</g>
</g>
<!-- Node12&#45;&gt;Node10 -->
<g id="edge12_Node000012_Node000010" class="edge">
<title>Node12&#45;&gt;Node10</title>
<g id="a_edge12_Node000012_Node000010"><a xlink:title=" ">
<path fill="none" stroke="#63b8ff" d="M126.41,-111.59C137.61,-103.74 153.81,-92.38 167.06,-83.09"/>
<polygon fill="#63b8ff" stroke="#63b8ff" points="169.07,-85.96 175.24,-77.35 165.05,-80.22 169.07,-85.96"/>
</a>
</g>
</g>
<!-- Node14 -->
<g id="Node000014" class="node">
<title>Node14</title>
<g id="a_Node000014"><a xlink:title=" ">
<polygon fill="#e0e0e0" stroke="#999999" points="1039.12,-132 966.88,-132 966.88,-112 1039.12,-112 1039.12,-132"/>
<text xml:space="preserve" text-anchor="middle" x="1003" y="-118.5" font-family="Helvetica,sans-Serif" font-size="10.00">dpp/cluster.h</text>
</a>
</g>
</g>
<!-- Node13&#45;&gt;Node14 -->
<g id="edge14_Node000013_Node000014" class="edge">
<title>Node13&#45;&gt;Node14</title>
<g id="a_edge14_Node000013_Node000014"><a xlink:title=" ">
<path fill="none" stroke="#63b8ff" d="M962.54,-167.59C969.28,-160.16 978.89,-149.58 987.04,-140.58"/>
<polygon fill="#63b8ff" stroke="#63b8ff" points="989.42,-143.18 993.55,-133.42 984.23,-138.47 989.42,-143.18"/>
</a>
</g>
</g>
<!-- Node15 -->
<g id="Node000015" class="node">
<title>Node15</title>
<g id="a_Node000015"><a xlink:title=" ">
<polygon fill="#e0e0e0" stroke="#999999" points="949,-132 861,-132 861,-112 949,-112 949,-132"/>
<text xml:space="preserve" text-anchor="middle" x="905" y="-118.5" font-family="Helvetica,sans-Serif" font-size="10.00">dpp/dispatcher.h</text>
</a>
</g>
</g>
<!-- Node13&#45;&gt;Node15 -->
<g id="edge15_Node000013_Node000015" class="edge">
<title>Node13&#45;&gt;Node15</title>
<g id="a_edge15_Node000013_Node000015"><a xlink:title=" ">
<path fill="none" stroke="#63b8ff" d="M945.46,-167.59C938.72,-160.16 929.11,-149.58 920.96,-140.58"/>
<polygon fill="#63b8ff" stroke="#63b8ff" points="923.77,-138.47 914.45,-133.42 918.58,-143.18 923.77,-138.47"/>
</a>
</g>
</g>
<!-- Node16&#45;&gt;Node14 -->
<g id="edge17_Node000016_Node000014" class="edge">
<title>Node16&#45;&gt;Node14</title>
<g id="a_edge17_Node000016_Node000014"><a xlink:title=" ">
<path fill="none" stroke="#63b8ff" d="M1066.59,-167.59C1055.39,-159.74 1039.19,-148.38 1025.94,-139.09"/>
<polygon fill="#63b8ff" stroke="#63b8ff" points="1027.95,-136.22 1017.76,-133.35 1023.93,-141.96 1027.95,-136.22"/>
</a>
</g>
</g>
<!-- Node16&#45;&gt;Node15 -->
<g id="edge18_Node000016_Node000015" class="edge">
<title>Node16&#45;&gt;Node15</title>
<g id="a_edge18_Node000016_Node000015"><a xlink:title=" ">
<path fill="none" stroke="#63b8ff" d="M1049.52,-167.59C1020.96,-158.78 978.05,-145.54 946.4,-135.78"/>
<polygon fill="#63b8ff" stroke="#63b8ff" points="947.75,-132.53 937.17,-132.93 945.69,-139.22 947.75,-132.53"/>
</a>
</g>
</g>
<!-- Node17&#45;&gt;Node9 -->
<g id="edge23_Node000017_Node000009" class="edge">
<title>Node17&#45;&gt;Node9</title>
<g id="a_edge23_Node000017_Node000009"><a xlink:title=" ">
<path fill="none" stroke="#63b8ff" d="M341.12,-167.59C337.51,-160.63 332.46,-150.89 328,-142.29"/>
<polygon fill="#63b8ff" stroke="#63b8ff" points="331.23,-140.91 323.52,-133.64 325.01,-144.13 331.23,-140.91"/>
</a>
</g>
</g>
<!-- Node17&#45;&gt;Node14 -->
<g id="edge21_Node000017_Node000014" class="edge">
<title>Node17&#45;&gt;Node14</title>
<g id="a_edge21_Node000017_Node000014"><a xlink:title=" ">
<path fill="none" stroke="#63b8ff" d="M414,-168.87C417.04,-168.56 420.05,-168.27 423,-168 656.6,-146.5 719.8,-162.91 955.37,-132.18"/>
<polygon fill="#63b8ff" stroke="#63b8ff" points="955.76,-135.66 965.22,-130.88 954.85,-128.72 955.76,-135.66"/>
</a>
</g>
</g>
<!-- Node17&#45;&gt;Node15 -->
<g id="edge22_Node000017_Node000015" class="edge">
<title>Node17&#45;&gt;Node15</title>
<g id="a_edge22_Node000017_Node000015"><a xlink:title=" ">
<path fill="none" stroke="#63b8ff" d="M414.01,-168.96C417.05,-168.63 420.06,-168.31 423,-168 577.34,-151.78 759.81,-135.54 849.52,-127.76"/>
<polygon fill="#63b8ff" stroke="#63b8ff" points="849.61,-131.26 859.27,-126.91 849,-124.29 849.61,-131.26"/>
</a>
</g>
</g>
<!-- Node18 -->
<g id="Node000018" class="node">
<title>Node18</title>
<g id="a_Node000018"><a xlink:title=" ">
<polygon fill="#e0e0e0" stroke="#999999" points="440.38,-132 357.62,-132 357.62,-112 440.38,-112 440.38,-132"/>
<text xml:space="preserve" text-anchor="middle" x="399" y="-118.5" font-family="Helvetica,sans-Serif" font-size="10.00">appcommand.h</text>
</a>
</g>
</g>
<!-- Node17&#45;&gt;Node18 -->
<g id="edge20_Node000017_Node000018" class="edge">
<title>Node17&#45;&gt;Node18</title>
<g id="a_edge20_Node000017_Node000018"><a xlink:title=" ">
<path fill="none" stroke="#63b8ff" d="M355.23,-167.59C362.6,-160.08 373.13,-149.35 382.02,-140.3"/>
<polygon fill="#63b8ff" stroke="#63b8ff" points="384.31,-142.97 388.81,-133.38 379.31,-138.06 384.31,-142.97"/>
</a>
</g>
</g>
<!-- Node19&#45;&gt;Node14 -->
<g id="edge25_Node000019_Node000014" class="edge">
<title>Node19&#45;&gt;Node14</title>
<g id="a_edge25_Node000019_Node000014"><a xlink:title=" ">
<path fill="none" stroke="#63b8ff" d="M1173.94,-167.59C1139.57,-158.63 1087.63,-145.08 1050.02,-135.27"/>
<polygon fill="#63b8ff" stroke="#63b8ff" points="1051.36,-132 1040.8,-132.86 1049.6,-138.77 1051.36,-132"/>
</a>
</g>
</g>
<!-- Node19&#45;&gt;Node15 -->
<g id="edge26_Node000019_Node000015" class="edge">
<title>Node19&#45;&gt;Node15</title>
<g id="a_edge26_Node000019_Node000015"><a xlink:title=" ">
<path fill="none" stroke="#63b8ff" d="M1156.52,-167.53C1101.54,-157.8 1016.3,-142.71 960.57,-132.84"/>
<polygon fill="#63b8ff" stroke="#63b8ff" points="961.43,-129.44 950.98,-131.14 960.21,-136.33 961.43,-129.44"/>
</a>
</g>
</g>
<!-- Node20&#45;&gt;Node14 -->
<g id="edge28_Node000020_Node000014" class="edge">
<title>Node20&#45;&gt;Node14</title>
<g id="a_edge28_Node000020_Node000014"><a xlink:title=" ">
<path fill="none" stroke="#63b8ff" d="M740.62,-167.74C794.68,-159.46 875.72,-146.68 955.44,-132.41"/>
<polygon fill="#63b8ff" stroke="#63b8ff" points="955.96,-135.87 965.18,-130.66 954.72,-128.98 955.96,-135.87"/>
</a>
</g>
</g>
<!-- Node20&#45;&gt;Node15 -->
<g id="edge29_Node000020_Node000015" class="edge">
<title>Node20&#45;&gt;Node15</title>
<g id="a_edge29_Node000020_Node000015"><a xlink:title=" ">
<path fill="none" stroke="#63b8ff" d="M718.62,-167.53C756.35,-158.52 813.29,-144.91 854.3,-135.11"/>
<polygon fill="#63b8ff" stroke="#63b8ff" points="855.04,-138.54 863.95,-132.81 853.41,-131.73 855.04,-138.54"/>
</a>
</g>
</g>
<!-- Node21&#45;&gt;Node14 -->
<g id="edge31_Node000021_Node000014" class="edge">
<title>Node21&#45;&gt;Node14</title>
<g id="a_edge31_Node000021_Node000014"><a xlink:title=" ">
<path fill="none" stroke="#63b8ff" d="M851.05,-167.59C881.21,-158.74 926.59,-145.43 959.9,-135.65"/>
<polygon fill="#63b8ff" stroke="#63b8ff" points="960.64,-139.08 969.25,-132.91 958.67,-132.36 960.64,-139.08"/>
</a>
</g>
</g>
<!-- Node21&#45;&gt;Node15 -->
<g id="edge32_Node000021_Node000015" class="edge">
<title>Node21&#45;&gt;Node15</title>
<g id="a_edge32_Node000021_Node000015"><a xlink:title=" ">
<path fill="none" stroke="#63b8ff" d="M833.98,-167.59C846.73,-159.59 865.29,-147.93 880.24,-138.54"/>
<polygon fill="#63b8ff" stroke="#63b8ff" points="882.01,-141.57 888.62,-133.28 878.29,-135.64 882.01,-141.57"/>
</a>
</g>
</g>
<!-- Node22&#45;&gt;Node14 -->
<g id="edge41_Node000022_Node000014" class="edge">
<title>Node22&#45;&gt;Node14</title>
<g id="a_edge41_Node000022_Node000014"><a xlink:title=" ">
<path fill="none" stroke="#63b8ff" d="M1287.02,-169.77C1283.97,-169.15 1280.93,-168.55 1278,-168 1198.56,-153 1105.65,-138.41 1050.71,-130.08"/>
<polygon fill="#63b8ff" stroke="#63b8ff" points="1051.48,-126.66 1041.07,-128.63 1050.44,-133.58 1051.48,-126.66"/>
</a>
</g>
</g>
<!-- Node22&#45;&gt;Node15 -->
<g id="edge42_Node000022_Node000015" class="edge">
<title>Node22&#45;&gt;Node15</title>
<g id="a_edge42_Node000022_Node000015"><a xlink:title=" ">
<path fill="none" stroke="#63b8ff" d="M1287.04,-169.62C1283.99,-169.03 1280.94,-168.48 1278,-168 1140.33,-145.56 1101.66,-151.65 960.47,-132.27"/>
<polygon fill="#63b8ff" stroke="#63b8ff" points="961.1,-128.82 950.72,-130.91 960.14,-135.76 961.1,-128.82"/>
</a>
</g>
</g>
</g>
</svg>
