<?xml version="1.0" encoding="UTF-8" standalone="no"?>
<!DOCTYPE svg PUBLIC "-//W3C//DTD SVG 1.1//EN"
 "http://www.w3.org/Graphics/SVG/1.1/DTD/svg11.dtd">
<!-- Generated by graphviz version 16.1.0 (0)
 -->
<!-- Title: src/bot_library/commands/resources/GetResourcesCommand.cpp Pages: 1 -->
<svg width="1284pt" height="320pt"
 viewBox="0.00 0.00 1284.00 320.00" xmlns="http://www.w3.org/2000/svg" xmlns:xlink="http://www.w3.org/1999/xlink">
<g id="graph0" class="graph" transform="scale(1 1) rotate(0) translate(4 316)">
<title>src/bot_library/commands/resources/GetResourcesCommand.cpp</title>
<!-- Node1 -->
<g id="Node000001" class="node">
<title>Node1</title>
<g id="a_Node000001"><a xlink:title=" ">
<polygon fill="#999999" stroke="#666666" points="1052.74,-312 861.24,-312 861.24,-280 1052.74,-280 1052.74,-312"/>
<text xml:space="preserve" text-anchor="start" x="869.24" y="-298.5" font-family="Helvetica,sans-Serif" font-size="10.00">src/bot_library/commands</text>
<text xml:space="preserve" text-anchor="middle" x="956.99" y="-286.5" font-family="Helvetica,sans-Serif" font-size="10.00">/resources/GetResourcesCommand.cpp</text>
</a>
</g>
</g>
<!-- Node2 -->
<g id="Node000002" class="node">
<title>Node2</title>
<g id="a_Node000002"><a xlink:href="GetResourcesCommand_8hpp.html" target="_top" xlink:title=" ">
<polygon fill="white" stroke="#666666" points="738.37,-244 595.62,-244 595.62,-224 738.37,-224 738.37,-244"/>
<text xml:space="preserve" text-anchor="middle" x="666.99" y="-230.5" font-family="Helvetica,sans-Serif" font-size="10.00">GetResourcesCommand.hpp</text>
</a>
</g>
</g>
<!-- Node1&#45;&gt;Node2 -->
<g id="edge1_Node000001_Node000002" class="edge">
<title>Node1&#45;&gt;Node2</title>
<g id="a_edge1_Node000001_Node000002"><a xlink:title=" ">
<path fill="none" stroke="#63b8ff" d="M882.31,-279.55C832.96,-269.34 769.27,-256.16 723.99,-246.79"/>
<polygon fill="#63b8ff" stroke="#63b8ff" points="724.88,-243.4 714.38,-244.8 723.46,-250.26 724.88,-243.4"/>
</a>
</g>
</g>
<!-- Node7 -->
<g id="Node000007" class="node">
<title>Node7</title>
<g id="a_Node000007"><a xlink:title=" ">
<polygon fill="#e0e0e0" stroke="#999999" points="1119.37,-244 1036.62,-244 1036.62,-224 1119.37,-224 1119.37,-244"/>
<text xml:space="preserve" text-anchor="middle" x="1077.99" y="-230.5" font-family="Helvetica,sans-Serif" font-size="10.00">appcommand.h</text>
</a>
</g>
</g>
<!-- Node1&#45;&gt;Node7 -->
<g id="edge6_Node000001_Node000007" class="edge">
<title>Node1&#45;&gt;Node7</title>
<g id="a_edge6_Node000001_Node000007"><a xlink:title=" ">
<path fill="none" stroke="#63b8ff" d="M988.16,-279.55C1006.89,-270.26 1030.57,-258.52 1048.91,-249.42"/>
<polygon fill="#63b8ff" stroke="#63b8ff" points="1050.26,-252.66 1057.67,-245.08 1047.15,-246.39 1050.26,-252.66"/>
</a>
</g>
</g>
<!-- Node8 -->
<g id="Node000008" class="node">
<title>Node8</title>
<g id="a_Node000008"><a xlink:title=" ">
<polygon fill="#e0e0e0" stroke="#999999" points="1188.24,-244 1137.74,-244 1137.74,-224 1188.24,-224 1188.24,-244"/>
<text xml:space="preserve" text-anchor="middle" x="1162.99" y="-230.5" font-family="Helvetica,sans-Serif" font-size="10.00">colors.h</text>
</a>
</g>
</g>
<!-- Node1&#45;&gt;Node8 -->
<g id="edge7_Node000001_Node000008" class="edge">
<title>Node1&#45;&gt;Node8</title>
<g id="a_edge7_Node000001_Node000008"><a xlink:title=" ">
<path fill="none" stroke="#63b8ff" d="M1010.04,-279.55C1046.62,-268.9 1094.29,-255.01 1126.62,-245.6"/>
<polygon fill="#63b8ff" stroke="#63b8ff" points="1127.29,-249.04 1135.91,-242.89 1125.34,-242.32 1127.29,-249.04"/>
</a>
</g>
</g>
<!-- Node9 -->
<g id="Node000009" class="node">
<title>Node9</title>
<g id="a_Node000009"><a xlink:title=" ">
<polygon fill="#e0e0e0" stroke="#999999" points="1275.62,-244 1206.37,-244 1206.37,-224 1275.62,-224 1275.62,-244"/>
<text xml:space="preserve" text-anchor="middle" x="1240.99" y="-230.5" font-family="Helvetica,sans-Serif" font-size="10.00">dispatcher.h</text>
</a>
</g>
</g>
<!-- Node1&#45;&gt;Node9 -->
<g id="edge8_Node000001_Node000009" class="edge">
<title>Node1&#45;&gt;Node9</title>
<g id="a_edge8_Node000001_Node000009"><a xlink:title=" ">
<path fill="none" stroke="#63b8ff" d="M1030.13,-279.55C1082.14,-268.56 1150.41,-254.14 1194.97,-244.72"/>
<polygon fill="#63b8ff" stroke="#63b8ff" points="1195.5,-248.19 1204.57,-242.7 1194.06,-241.34 1195.5,-248.19"/>
</a>
</g>
</g>
<!-- Node10 -->
<g id="Node000010" class="node">
<title>Node10</title>
<g id="a_Node000010"><a xlink:href="AppContext_8hpp.html" target="_top" xlink:title=" ">
<polygon fill="white" stroke="#666666" points="549.24,-244 462.74,-244 462.74,-224 549.24,-224 549.24,-244"/>
<text xml:space="preserve" text-anchor="middle" x="505.99" y="-230.5" font-family="Helvetica,sans-Serif" font-size="10.00">AppContext.hpp</text>
</a>
</g>
</g>
<!-- Node1&#45;&gt;Node10 -->
<g id="edge9_Node000001_Node000010" class="edge">
<title>Node1&#45;&gt;Node10</title>
<g id="a_edge9_Node000001_Node000010"><a xlink:title=" ">
<path fill="none" stroke="#63b8ff" d="M860.8,-282.2C769.26,-270.02 634.79,-252.13 560.44,-242.24"/>
<polygon fill="#63b8ff" stroke="#63b8ff" points="561.36,-238.83 550.98,-240.99 560.44,-245.77 561.36,-238.83"/>
</a>
</g>
</g>
<!-- Node21 -->
<g id="Node000021" class="node">
<title>Node21</title>
<g id="a_Node000021"><a xlink:href="Core_8hpp.html" target="_top" xlink:title=" ">
<polygon fill="white" stroke="#666666" points="876.87,-244 821.12,-244 821.12,-224 876.87,-224 876.87,-244"/>
<text xml:space="preserve" text-anchor="middle" x="848.99" y="-230.5" font-family="Helvetica,sans-Serif" font-size="10.00">Core.hpp</text>
</a>
</g>
</g>
<!-- Node1&#45;&gt;Node21 -->
<g id="edge32_Node000001_Node000021" class="edge">
<title>Node1&#45;&gt;Node21</title>
<g id="a_edge32_Node000001_Node000021"><a xlink:title=" ">
<path fill="none" stroke="#63b8ff" d="M929.18,-279.55C912.78,-270.43 892.11,-258.96 875.87,-249.93"/>
<polygon fill="#63b8ff" stroke="#63b8ff" points="877.69,-246.94 867.25,-245.14 874.29,-253.06 877.69,-246.94"/>
</a>
</g>
</g>
<!-- Node24 -->
<g id="Node000024" class="node">
<title>Node24</title>
<g id="a_Node000024"><a xlink:href="ResourceRepository_8hpp.html" target="_top" xlink:title=" ">
<polygon fill="white" stroke="#666666" points="1018.62,-244 895.37,-244 895.37,-224 1018.62,-224 1018.62,-244"/>
<text xml:space="preserve" text-anchor="middle" x="956.99" y="-230.5" font-family="Helvetica,sans-Serif" font-size="10.00">ResourceRepository.hpp</text>
</a>
</g>
</g>
<!-- Node1&#45;&gt;Node24 -->
<g id="edge37_Node000001_Node000024" class="edge">
<title>Node1&#45;&gt;Node24</title>
<g id="a_edge37_Node000001_Node000024"><a xlink:title=" ">
<path fill="none" stroke="#63b8ff" d="M956.99,-279.55C956.99,-272.34 956.99,-263.66 956.99,-255.88"/>
<polygon fill="#63b8ff" stroke="#63b8ff" points="960.49,-255.92 956.99,-245.92 953.49,-255.92 960.49,-255.92"/>
</a>
</g>
</g>
<!-- Node3 -->
<g id="Node000003" class="node">
<title>Node3</title>
<g id="a_Node000003"><a xlink:href="IGlobalSlashCommand_8hpp.html" target="_top" xlink:title=" ">
<polygon fill="white" stroke="#666666" points="888.62,-132 753.37,-132 753.37,-112 888.62,-112 888.62,-132"/>
<text xml:space="preserve" text-anchor="middle" x="820.99" y="-118.5" font-family="Helvetica,sans-Serif" font-size="10.00">IGlobalSlashCommand.hpp</text>
</a>
</g>
</g>
<!-- Node2&#45;&gt;Node3 -->
<g id="edge2_Node000002_Node000003" class="edge">
<title>Node2&#45;&gt;Node3</title>
<g id="a_edge2_Node000002_Node000003"><a xlink:title=" ">
<path fill="none" stroke="#63b8ff" d="M653.23,-223.56C635.93,-210.55 610.18,-186.6 624.99,-168 633.16,-157.75 699.11,-144.06 752.29,-134.47"/>
<polygon fill="#63b8ff" stroke="#63b8ff" points="752.69,-137.96 761.93,-132.76 751.47,-131.07 752.69,-137.96"/>
</a>
</g>
</g>
<!-- Node6 -->
<g id="Node000006" class="node">
<title>Node6</title>
<g id="a_Node000006"><a xlink:title=" ">
<polygon fill="#e0e0e0" stroke="#999999" points="699.74,-188 634.24,-188 634.24,-168 699.74,-168 699.74,-188"/>
<text xml:space="preserve" text-anchor="middle" x="666.99" y="-174.5" font-family="Helvetica,sans-Serif" font-size="10.00">string_view</text>
</a>
</g>
</g>
<!-- Node2&#45;&gt;Node6 -->
<g id="edge5_Node000002_Node000006" class="edge">
<title>Node2&#45;&gt;Node6</title>
<g id="a_edge5_Node000002_Node000006"><a xlink:title=" ">
<path fill="none" stroke="#63b8ff" d="M666.99,-223.59C666.99,-217.01 666.99,-207.96 666.99,-199.73"/>
<polygon fill="#63b8ff" stroke="#63b8ff" points="670.49,-199.81 666.99,-189.81 663.49,-199.81 670.49,-199.81"/>
</a>
</g>
</g>
<!-- Node4 -->
<g id="Node000004" class="node">
<title>Node4</title>
<g id="a_Node000004"><a xlink:title=" ">
<polygon fill="#e0e0e0" stroke="#999999" points="422.12,-76 349.87,-76 349.87,-56 422.12,-56 422.12,-76"/>
<text xml:space="preserve" text-anchor="middle" x="385.99" y="-62.5" font-family="Helvetica,sans-Serif" font-size="10.00">dpp/cluster.h</text>
</a>
</g>
</g>
<!-- Node3&#45;&gt;Node4 -->
<g id="edge3_Node000003_Node000004" class="edge">
<title>Node3&#45;&gt;Node4</title>
<g id="a_edge3_Node000003_Node000004"><a xlink:title=" ">
<path fill="none" stroke="#63b8ff" d="M752.97,-113.05C749.94,-112.69 746.94,-112.34 743.99,-112 606.22,-95.95 571.13,-96.79 433.99,-76 433.88,-75.98 433.76,-75.96 433.64,-75.95"/>
<polygon fill="#63b8ff" stroke="#63b8ff" points="434.31,-72.51 423.87,-74.34 433.17,-79.42 434.31,-72.51"/>
</a>
</g>
</g>
<!-- Node5 -->
<g id="Node000005" class="node">
<title>Node5</title>
<g id="a_Node000005"><a xlink:title=" ">
<polygon fill="#e0e0e0" stroke="#999999" points="530.99,-76 442.99,-76 442.99,-56 530.99,-56 530.99,-76"/>
<text xml:space="preserve" text-anchor="middle" x="486.99" y="-62.5" font-family="Helvetica,sans-Serif" font-size="10.00">dpp/dispatcher.h</text>
</a>
</g>
</g>
<!-- Node3&#45;&gt;Node5 -->
<g id="edge4_Node000003_Node000005" class="edge">
<title>Node3&#45;&gt;Node5</title>
<g id="a_edge4_Node000003_Node000005"><a xlink:title=" ">
<path fill="none" stroke="#63b8ff" d="M762.43,-111.53C700.48,-101.52 603.44,-85.83 542.62,-75.99"/>
<polygon fill="#63b8ff" stroke="#63b8ff" points="543.26,-72.55 532.83,-74.41 542.14,-79.46 543.26,-72.55"/>
</a>
</g>
</g>
<!-- Node10&#45;&gt;Node4 -->
<g id="edge10_Node000010_Node000004" class="edge">
<title>Node10&#45;&gt;Node4</title>
<g id="a_edge10_Node000010_Node000004"><a xlink:title=" ">
<path fill="none" stroke="#63b8ff" d="M462.35,-231.02C351.31,-224.97 62.81,-202.64 4.99,-132 -38.16,-79.28 226.87,-69.3 338.32,-67.43"/>
<polygon fill="#63b8ff" stroke="#63b8ff" points="338.1,-70.93 348.04,-67.28 337.99,-63.93 338.1,-70.93"/>
</a>
</g>
</g>
<!-- Node11 -->
<g id="Node000011" class="node">
<title>Node11</title>
<g id="a_Node000011"><a xlink:href="CommandTypes_8hpp.html" target="_top" xlink:title=" ">
<polygon fill="white" stroke="#666666" points="558.99,-188 452.99,-188 452.99,-168 558.99,-168 558.99,-188"/>
<text xml:space="preserve" text-anchor="middle" x="505.99" y="-174.5" font-family="Helvetica,sans-Serif" font-size="10.00">CommandTypes.hpp</text>
</a>
</g>
</g>
<!-- Node10&#45;&gt;Node11 -->
<g id="edge11_Node000010_Node000011" class="edge">
<title>Node10&#45;&gt;Node11</title>
<g id="a_edge11_Node000010_Node000011"><a xlink:title=" ">
<path fill="none" stroke="#63b8ff" d="M505.99,-223.59C505.99,-217.01 505.99,-207.96 505.99,-199.73"/>
<polygon fill="#63b8ff" stroke="#63b8ff" points="509.49,-199.81 505.99,-189.81 502.49,-199.81 509.49,-199.81"/>
</a>
</g>
</g>
<!-- Node11&#45;&gt;Node3 -->
<g id="edge18_Node000011_Node000003" class="edge">
<title>Node11&#45;&gt;Node3</title>
<g id="a_edge18_Node000011_Node000003"><a xlink:title=" ">
<path fill="none" stroke="#63b8ff" d="M559.43,-167.84C613.24,-158.61 696.39,-144.36 754.44,-134.41"/>
<polygon fill="#63b8ff" stroke="#63b8ff" points="754.95,-137.87 764.21,-132.73 753.77,-130.97 754.95,-137.87"/>
</a>
</g>
</g>
<!-- Node12 -->
<g id="Node000012" class="node">
<title>Node12</title>
<g id="a_Node000012"><a xlink:href="IButtonCommand_8hpp.html" target="_top" xlink:title=" ">
<polygon fill="white" stroke="#666666" points="125.62,-132 14.37,-132 14.37,-112 125.62,-112 125.62,-132"/>
<text xml:space="preserve" text-anchor="middle" x="69.99" y="-118.5" font-family="Helvetica,sans-Serif" font-size="10.00">IButtonCommand.hpp</text>
</a>
</g>
</g>
<!-- Node11&#45;&gt;Node12 -->
<g id="edge12_Node000011_Node000012" class="edge">
<title>Node11&#45;&gt;Node12</title>
<g id="a_edge12_Node000011_Node000012"><a xlink:title=" ">
<path fill="none" stroke="#63b8ff" d="M452.67,-170.88C382.59,-162.76 255.36,-147.77 136.9,-132.36"/>
<polygon fill="#63b8ff" stroke="#63b8ff" points="137.7,-128.94 127.33,-131.11 136.8,-135.88 137.7,-128.94"/>
</a>
</g>
</g>
<!-- Node13 -->
<g id="Node000013" class="node">
<title>Node13</title>
<g id="a_Node000013"><a xlink:href="IFormCommand_8hpp.html" target="_top" xlink:title=" ">
<polygon fill="white" stroke="#666666" points="541.62,-132 436.37,-132 436.37,-112 541.62,-112 541.62,-132"/>
<text xml:space="preserve" text-anchor="middle" x="488.99" y="-118.5" font-family="Helvetica,sans-Serif" font-size="10.00">IFormCommand.hpp</text>
</a>
</g>
</g>
<!-- Node11&#45;&gt;Node13 -->
<g id="edge15_Node000011_Node000013" class="edge">
<title>Node11&#45;&gt;Node13</title>
<g id="a_edge15_Node000011_Node000013"><a xlink:title=" ">
<path fill="none" stroke="#63b8ff" d="M503.03,-167.59C500.91,-160.86 497.98,-151.53 495.34,-143.15"/>
<polygon fill="#63b8ff" stroke="#63b8ff" points="498.72,-142.23 492.38,-133.74 492.04,-144.33 498.72,-142.23"/>
</a>
</g>
</g>
<!-- Node14 -->
<g id="Node000014" class="node">
<title>Node14</title>
<g id="a_Node000014"><a xlink:href="IMessageCommand_8hpp.html" target="_top" xlink:title=" ">
<polygon fill="white" stroke="#666666" points="682.24,-132 559.74,-132 559.74,-112 682.24,-112 682.24,-132"/>
<text xml:space="preserve" text-anchor="middle" x="620.99" y="-118.5" font-family="Helvetica,sans-Serif" font-size="10.00">IMessageCommand.hpp</text>
</a>
</g>
</g>
<!-- Node11&#45;&gt;Node14 -->
<g id="edge19_Node000011_Node000014" class="edge">
<title>Node11&#45;&gt;Node14</title>
<g id="a_edge19_Node000011_Node000014"><a xlink:title=" ">
<path fill="none" stroke="#63b8ff" d="M526.03,-167.59C543.81,-159.24 570.06,-146.92 590.46,-137.34"/>
<polygon fill="#63b8ff" stroke="#63b8ff" points="591.87,-140.54 599.44,-133.12 588.9,-134.21 591.87,-140.54"/>
</a>
</g>
</g>
<!-- Node15 -->
<g id="Node000015" class="node">
<title>Node15</title>
<g id="a_Node000015"><a xlink:href="IReactionCommand_8hpp.html" target="_top" xlink:title=" ">
<polygon fill="white" stroke="#666666" points="334.87,-132 213.12,-132 213.12,-112 334.87,-112 334.87,-132"/>
<text xml:space="preserve" text-anchor="middle" x="273.99" y="-118.5" font-family="Helvetica,sans-Serif" font-size="10.00">IReactionCommand.hpp</text>
</a>
</g>
</g>
<!-- Node11&#45;&gt;Node15 -->
<g id="edge22_Node000011_Node000015" class="edge">
<title>Node11&#45;&gt;Node15</title>
<g id="a_edge22_Node000011_Node000015"><a xlink:title=" ">
<path fill="none" stroke="#63b8ff" d="M465.32,-167.53C426.51,-158.5 367.89,-144.85 325.77,-135.05"/>
<polygon fill="#63b8ff" stroke="#63b8ff" points="326.63,-131.66 316.1,-132.8 325.04,-138.48 326.63,-131.66"/>
</a>
</g>
</g>
<!-- Node16 -->
<g id="Node000016" class="node">
<title>Node16</title>
<g id="a_Node000016"><a xlink:href="IReady_8hpp.html" target="_top" xlink:title=" ">
<polygon fill="white" stroke="#666666" points="418.74,-132 353.24,-132 353.24,-112 418.74,-112 418.74,-132"/>
<text xml:space="preserve" text-anchor="middle" x="385.99" y="-118.5" font-family="Helvetica,sans-Serif" font-size="10.00">IReady.hpp</text>
</a>
</g>
</g>
<!-- Node11&#45;&gt;Node16 -->
<g id="edge25_Node000011_Node000016" class="edge">
<title>Node11&#45;&gt;Node16</title>
<g id="a_edge25_Node000011_Node000016"><a xlink:title=" ">
<path fill="none" stroke="#63b8ff" d="M485.09,-167.59C466.37,-159.17 438.64,-146.69 417.27,-137.07"/>
<polygon fill="#63b8ff" stroke="#63b8ff" points="419,-134.01 408.44,-133.1 416.12,-140.4 419,-134.01"/>
</a>
</g>
</g>
<!-- Node17 -->
<g id="Node000017" class="node">
<title>Node17</title>
<g id="a_Node000017"><a xlink:title=" ">
<polygon fill="#e0e0e0" stroke="#999999" points="735.37,-132 700.62,-132 700.62,-112 735.37,-112 735.37,-132"/>
<text xml:space="preserve" text-anchor="middle" x="717.99" y="-118.5" font-family="Helvetica,sans-Serif" font-size="10.00">map</text>
</a>
</g>
</g>
<!-- Node11&#45;&gt;Node17 -->
<g id="edge28_Node000011_Node000017" class="edge">
<title>Node11&#45;&gt;Node17</title>
<g id="a_edge28_Node000011_Node000017"><a xlink:title=" ">
<path fill="none" stroke="#63b8ff" d="M549.25,-167.55C584.56,-159.6 635.95,-147.48 689.59,-132.21"/>
<polygon fill="#63b8ff" stroke="#63b8ff" points="690.25,-135.67 698.89,-129.54 688.31,-128.94 690.25,-135.67"/>
</a>
</g>
</g>
<!-- Node18 -->
<g id="Node000018" class="node">
<title>Node18</title>
<g id="a_Node000018"><a xlink:title=" ">
<polygon fill="#e0e0e0" stroke="#999999" points="194.62,-132 143.37,-132 143.37,-112 194.62,-112 194.62,-132"/>
<text xml:space="preserve" text-anchor="middle" x="168.99" y="-118.5" font-family="Helvetica,sans-Serif" font-size="10.00">memory</text>
</a>
</g>
</g>
<!-- Node11&#45;&gt;Node18 -->
<g id="edge29_Node000011_Node000018" class="edge">
<title>Node11&#45;&gt;Node18</title>
<g id="a_edge29_Node000011_Node000018"><a xlink:title=" ">
<path fill="none" stroke="#63b8ff" d="M452.51,-170.73C394.29,-163.54 298.24,-150.56 206.13,-132.25"/>
<polygon fill="#63b8ff" stroke="#63b8ff" points="206.9,-128.83 196.4,-130.28 205.51,-135.69 206.9,-128.83"/>
</a>
</g>
</g>
<!-- Node19 -->
<g id="Node000019" class="node">
<title>Node19</title>
<g id="a_Node000019"><a xlink:title=" ">
<polygon fill="#e0e0e0" stroke="#999999" points="1007.99,-132 967.99,-132 967.99,-112 1007.99,-112 1007.99,-132"/>
<text xml:space="preserve" text-anchor="middle" x="987.99" y="-118.5" font-family="Helvetica,sans-Serif" font-size="10.00">string</text>
</a>
</g>
</g>
<!-- Node11&#45;&gt;Node19 -->
<g id="edge30_Node000011_Node000019" class="edge">
<title>Node11&#45;&gt;Node19</title>
<g id="a_edge30_Node000011_Node000019"><a xlink:title=" ">
<path fill="none" stroke="#63b8ff" d="M559.22,-173.07C657.57,-165.59 865.34,-148.74 956.27,-132.1"/>
<polygon fill="#63b8ff" stroke="#63b8ff" points="956.9,-135.54 966.05,-130.2 955.56,-128.67 956.9,-135.54"/>
</a>
</g>
</g>
<!-- Node20 -->
<g id="Node000020" class="node">
<title>Node20</title>
<g id="a_Node000020"><a xlink:title=" ">
<polygon fill="#e0e0e0" stroke="#999999" points="949.49,-132 906.49,-132 906.49,-112 949.49,-112 949.49,-132"/>
<text xml:space="preserve" text-anchor="middle" x="927.99" y="-118.5" font-family="Helvetica,sans-Serif" font-size="10.00">vector</text>
</a>
</g>
</g>
<!-- Node11&#45;&gt;Node20 -->
<g id="edge31_Node000011_Node000020" class="edge">
<title>Node11&#45;&gt;Node20</title>
<g id="a_edge31_Node000011_Node000020"><a xlink:title=" ">
<path fill="none" stroke="#63b8ff" d="M559.46,-172.05C646.67,-163.78 816.89,-146.81 894.89,-132.26"/>
<polygon fill="#63b8ff" stroke="#63b8ff" points="895.53,-135.7 904.67,-130.33 894.18,-128.83 895.53,-135.7"/>
</a>
</g>
</g>
<!-- Node12&#45;&gt;Node4 -->
<g id="edge13_Node000012_Node000004" class="edge">
<title>Node12&#45;&gt;Node4</title>
<g id="a_edge13_Node000012_Node000004"><a xlink:title=" ">
<path fill="none" stroke="#63b8ff" d="M125.4,-111.53C185.68,-101.23 281.05,-84.93 338.17,-75.17"/>
<polygon fill="#63b8ff" stroke="#63b8ff" points="338.65,-78.64 347.92,-73.51 337.47,-71.74 338.65,-78.64"/>
</a>
</g>
</g>
<!-- Node12&#45;&gt;Node5 -->
<g id="edge14_Node000012_Node000005" class="edge">
<title>Node12&#45;&gt;Node5</title>
<g id="a_edge14_Node000012_Node000005"><a xlink:title=" ">
<path fill="none" stroke="#63b8ff" d="M125.83,-113.08C128.59,-112.71 131.32,-112.35 133.99,-112 265.84,-94.74 299.33,-94.55 430.99,-76 431.11,-75.98 431.23,-75.97 431.35,-75.95"/>
<polygon fill="#63b8ff" stroke="#63b8ff" points="431.81,-79.42 441.2,-74.5 430.79,-72.49 431.81,-79.42"/>
</a>
</g>
</g>
<!-- Node13&#45;&gt;Node4 -->
<g id="edge16_Node000013_Node000004" class="edge">
<title>Node13&#45;&gt;Node4</title>
<g id="a_edge16_Node000013_Node000004"><a xlink:title=" ">
<path fill="none" stroke="#63b8ff" d="M471.05,-111.59C455.35,-103.36 432.26,-91.26 414.1,-81.74"/>
<polygon fill="#63b8ff" stroke="#63b8ff" points="415.9,-78.73 405.42,-77.18 412.65,-84.93 415.9,-78.73"/>
</a>
</g>
</g>
<!-- Node13&#45;&gt;Node5 -->
<g id="edge17_Node000013_Node000005" class="edge">
<title>Node13&#45;&gt;Node5</title>
<g id="a_edge17_Node000013_Node000005"><a xlink:title=" ">
<path fill="none" stroke="#63b8ff" d="M488.65,-111.59C488.4,-105.01 488.07,-95.96 487.76,-87.73"/>
<polygon fill="#63b8ff" stroke="#63b8ff" points="491.26,-87.67 487.39,-77.81 484.27,-87.93 491.26,-87.67"/>
</a>
</g>
</g>
<!-- Node14&#45;&gt;Node4 -->
<g id="edge20_Node000014_Node000004" class="edge">
<title>Node14&#45;&gt;Node4</title>
<g id="a_edge20_Node000014_Node000004"><a xlink:title=" ">
<path fill="none" stroke="#63b8ff" d="M579.79,-111.53C538.95,-102.15 476.44,-87.78 433.52,-77.92"/>
<polygon fill="#63b8ff" stroke="#63b8ff" points="434.52,-74.56 423.99,-75.73 432.95,-81.38 434.52,-74.56"/>
</a>
</g>
</g>
<!-- Node14&#45;&gt;Node5 -->
<g id="edge21_Node000014_Node000005" class="edge">
<title>Node14&#45;&gt;Node5</title>
<g id="a_edge21_Node000014_Node000005"><a xlink:title=" ">
<path fill="none" stroke="#63b8ff" d="M597.65,-111.59C576.46,-103.05 544.93,-90.35 520.94,-80.68"/>
<polygon fill="#63b8ff" stroke="#63b8ff" points="522.5,-77.54 511.92,-77.05 519.89,-84.03 522.5,-77.54"/>
</a>
</g>
</g>
<!-- Node15&#45;&gt;Node4 -->
<g id="edge23_Node000015_Node000004" class="edge">
<title>Node15&#45;&gt;Node4</title>
<g id="a_edge23_Node000015_Node000004"><a xlink:title=" ">
<path fill="none" stroke="#63b8ff" d="M293.5,-111.59C310.74,-103.28 336.15,-91.03 355.98,-81.47"/>
<polygon fill="#63b8ff" stroke="#63b8ff" points="357.48,-84.63 364.97,-77.14 354.44,-78.33 357.48,-84.63"/>
</a>
</g>
</g>
<!-- Node15&#45;&gt;Node5 -->
<g id="edge24_Node000015_Node000005" class="edge">
<title>Node15&#45;&gt;Node5</title>
<g id="a_edge24_Node000015_Node000005"><a xlink:title=" ">
<path fill="none" stroke="#63b8ff" d="M311.1,-111.59C346.46,-102.63 399.91,-89.08 438.61,-79.27"/>
<polygon fill="#63b8ff" stroke="#63b8ff" points="439.3,-82.7 448.14,-76.85 437.58,-75.92 439.3,-82.7"/>
</a>
</g>
</g>
<!-- Node16&#45;&gt;Node4 -->
<g id="edge26_Node000016_Node000004" class="edge">
<title>Node16&#45;&gt;Node4</title>
<g id="a_edge26_Node000016_Node000004"><a xlink:title=" ">
<path fill="none" stroke="#63b8ff" d="M385.99,-111.59C385.99,-105.01 385.99,-95.96 385.99,-87.73"/>
<polygon fill="#63b8ff" stroke="#63b8ff" points="389.49,-87.81 385.99,-77.81 382.49,-87.81 389.49,-87.81"/>
</a>
</g>
</g>
<!-- Node16&#45;&gt;Node5 -->
<g id="edge27_Node000016_Node000005" class="edge">
<title>Node16&#45;&gt;Node5</title>
<g id="a_edge27_Node000016_Node000005"><a xlink:title=" ">
<path fill="none" stroke="#63b8ff" d="M403.59,-111.59C418.92,-103.4 441.41,-91.37 459.18,-81.87"/>
<polygon fill="#63b8ff" stroke="#63b8ff" points="460.76,-84.99 467.93,-77.19 457.46,-78.82 460.76,-84.99"/>
</a>
</g>
</g>
<!-- Node21&#45;&gt;Node6 -->
<g id="edge36_Node000021_Node000006" class="edge">
<title>Node21&#45;&gt;Node6</title>
<g id="a_edge36_Node000021_Node000006"><a xlink:title=" ">
<path fill="none" stroke="#63b8ff" d="M820.96,-224.68C791.17,-215.84 743.75,-201.77 709.39,-191.58"/>
<polygon fill="#63b8ff" stroke="#63b8ff" points="710.77,-188.34 700.19,-188.85 708.78,-195.05 710.77,-188.34"/>
</a>
</g>
</g>
<!-- Node21&#45;&gt;Node19 -->
<g id="edge35_Node000021_Node000019" class="edge">
<title>Node21&#45;&gt;Node19</title>
<g id="a_edge35_Node000021_Node000019"><a xlink:title=" ">
<path fill="none" stroke="#63b8ff" d="M860.85,-223.62C884.54,-204.87 938.02,-162.55 967.51,-139.21"/>
<polygon fill="#63b8ff" stroke="#63b8ff" points="969.32,-142.24 974.99,-133.29 964.97,-136.76 969.32,-142.24"/>
</a>
</g>
</g>
<!-- Node22 -->
<g id="Node000022" class="node">
<title>Node22</title>
<g id="a_Node000022"><a xlink:title=" ">
<polygon fill="#e0e0e0" stroke="#999999" points="885.37,-188 826.62,-188 826.62,-168 885.37,-168 885.37,-188"/>
<text xml:space="preserve" text-anchor="middle" x="855.99" y="-174.5" font-family="Helvetica,sans-Serif" font-size="10.00">dpp/dpp.h</text>
</a>
</g>
</g>
<!-- Node21&#45;&gt;Node22 -->
<g id="edge33_Node000021_Node000022" class="edge">
<title>Node21&#45;&gt;Node22</title>
<g id="a_edge33_Node000021_Node000022"><a xlink:title=" ">
<path fill="none" stroke="#63b8ff" d="M850.21,-223.59C851.08,-216.93 852.27,-207.75 853.34,-199.44"/>
<polygon fill="#63b8ff" stroke="#63b8ff" points="856.78,-200.17 854.59,-189.8 849.84,-199.27 856.78,-200.17"/>
</a>
</g>
</g>
<!-- Node23 -->
<g id="Node000023" class="node">
<title>Node23</title>
<g id="a_Node000023"><a xlink:title=" ">
<polygon fill="#e0e0e0" stroke="#999999" points="808.49,-188 717.49,-188 717.49,-168 808.49,-168 808.49,-188"/>
<text xml:space="preserve" text-anchor="middle" x="762.99" y="-174.5" font-family="Helvetica,sans-Serif" font-size="10.00">dpp/misc&#45;enum.h</text>
</a>
</g>
</g>
<!-- Node21&#45;&gt;Node23 -->
<g id="edge34_Node000021_Node000023" class="edge">
<title>Node21&#45;&gt;Node23</title>
<g id="a_edge34_Node000021_Node000023"><a xlink:title=" ">
<path fill="none" stroke="#63b8ff" d="M834.01,-223.59C821.27,-215.59 802.7,-203.93 787.75,-194.54"/>
<polygon fill="#63b8ff" stroke="#63b8ff" points="789.7,-191.64 779.37,-189.28 785.98,-197.57 789.7,-191.64"/>
</a>
</g>
</g>
<!-- Node24&#45;&gt;Node19 -->
<g id="edge40_Node000024_Node000019" class="edge">
<title>Node24&#45;&gt;Node19</title>
<g id="a_edge40_Node000024_Node000019"><a xlink:title=" ">
<path fill="none" stroke="#63b8ff" d="M959.64,-223.62C964.62,-205.92 975.53,-167.24 982.27,-143.32"/>
<polygon fill="#63b8ff" stroke="#63b8ff" points="985.6,-144.39 984.95,-133.81 978.87,-142.49 985.6,-144.39"/>
</a>
</g>
</g>
<!-- Node24&#45;&gt;Node20 -->
<g id="edge41_Node000024_Node000020" class="edge">
<title>Node24&#45;&gt;Node20</title>
<g id="a_edge41_Node000024_Node000020"><a xlink:title=" ">
<path fill="none" stroke="#63b8ff" d="M954.52,-223.62C949.86,-205.92 939.66,-167.24 933.35,-143.32"/>
<polygon fill="#63b8ff" stroke="#63b8ff" points="936.78,-142.6 930.85,-133.82 930.01,-144.38 936.78,-142.6"/>
</a>
</g>
</g>
<!-- Node25 -->
<g id="Node000025" class="node">
<title>Node25</title>
<g id="a_Node000025"><a xlink:href="IRepository_8hpp.html" target="_top" xlink:title=" ">
<polygon fill="white" stroke="#666666" points="1219.12,-188 1134.87,-188 1134.87,-168 1219.12,-168 1219.12,-188"/>
<text xml:space="preserve" text-anchor="middle" x="1176.99" y="-174.5" font-family="Helvetica,sans-Serif" font-size="10.00">IRepository.hpp</text>
</a>
</g>
</g>
<!-- Node24&#45;&gt;Node25 -->
<g id="edge38_Node000024_Node000025" class="edge">
<title>Node24&#45;&gt;Node25</title>
<g id="a_edge38_Node000024_Node000025"><a xlink:title=" ">
<path fill="none" stroke="#63b8ff" d="M995.57,-223.53C1032.21,-214.54 1087.48,-200.97 1127.39,-191.18"/>
<polygon fill="#63b8ff" stroke="#63b8ff" points="1128.12,-194.6 1137,-188.82 1126.45,-187.8 1128.12,-194.6"/>
</a>
</g>
</g>
<!-- Node27 -->
<g id="Node000027" class="node">
<title>Node27</title>
<g id="a_Node000027"><a xlink:href="ResourceDTO_8hpp.html" target="_top" xlink:title=" ">
<polygon fill="white" stroke="#666666" points="1114.87,-188 1017.12,-188 1017.12,-168 1114.87,-168 1114.87,-188"/>
<text xml:space="preserve" text-anchor="middle" x="1065.99" y="-174.5" font-family="Helvetica,sans-Serif" font-size="10.00">ResourceDTO.hpp</text>
</a>
</g>
</g>
<!-- Node24&#45;&gt;Node27 -->
<g id="edge42_Node000024_Node000027" class="edge">
<title>Node24&#45;&gt;Node27</title>
<g id="a_edge42_Node000024_Node000027"><a xlink:title=" ">
<path fill="none" stroke="#63b8ff" d="M975.98,-223.59C992.76,-215.28 1017.49,-203.03 1036.78,-193.47"/>
<polygon fill="#63b8ff" stroke="#63b8ff" points="1038.1,-196.73 1045.5,-189.15 1034.99,-190.45 1038.1,-196.73"/>
</a>
</g>
</g>
<!-- Node26 -->
<g id="Node000026" class="node">
<title>Node26</title>
<g id="a_Node000026"><a xlink:title=" ">
<polygon fill="#e0e0e0" stroke="#999999" points="1202.12,-132 1153.87,-132 1153.87,-112 1202.12,-112 1202.12,-132"/>
<text xml:space="preserve" text-anchor="middle" x="1177.99" y="-118.5" font-family="Helvetica,sans-Serif" font-size="10.00">cstddef</text>
</a>
</g>
</g>
<!-- Node25&#45;&gt;Node26 -->
<g id="edge39_Node000025_Node000026" class="edge">
<title>Node25&#45;&gt;Node26</title>
<g id="a_edge39_Node000025_Node000026"><a xlink:title=" ">
<path fill="none" stroke="#63b8ff" d="M1177.17,-167.59C1177.29,-161.01 1177.46,-151.96 1177.61,-143.73"/>
<polygon fill="#63b8ff" stroke="#63b8ff" points="1181.11,-143.87 1177.79,-133.81 1174.11,-143.75 1181.11,-143.87"/>
</a>
</g>
</g>
<!-- Node27&#45;&gt;Node19 -->
<g id="edge46_Node000027_Node000019" class="edge">
<title>Node27&#45;&gt;Node19</title>
<g id="a_edge46_Node000027_Node000019"><a xlink:title=" ">
<path fill="none" stroke="#63b8ff" d="M1052.41,-167.59C1040.96,-159.67 1024.33,-148.16 1010.84,-138.82"/>
<polygon fill="#63b8ff" stroke="#63b8ff" points="1013.15,-136.16 1002.93,-133.34 1009.16,-141.91 1013.15,-136.16"/>
</a>
</g>
</g>
<!-- Node28 -->
<g id="Node000028" class="node">
<title>Node28</title>
<g id="a_Node000028"><a xlink:href="RowDTOAdapter_8hpp.html" target="_top" xlink:title=" ">
<polygon fill="white" stroke="#666666" points="1135.87,-132 1026.12,-132 1026.12,-112 1135.87,-112 1135.87,-132"/>
<text xml:space="preserve" text-anchor="middle" x="1080.99" y="-118.5" font-family="Helvetica,sans-Serif" font-size="10.00">RowDTOAdapter.hpp</text>
</a>
</g>
</g>
<!-- Node27&#45;&gt;Node28 -->
<g id="edge43_Node000027_Node000028" class="edge">
<title>Node27&#45;&gt;Node28</title>
<g id="a_edge43_Node000027_Node000028"><a xlink:title=" ">
<path fill="none" stroke="#63b8ff" d="M1068.61,-167.59C1070.48,-160.86 1073.07,-151.53 1075.4,-143.15"/>
<polygon fill="#63b8ff" stroke="#63b8ff" points="1078.7,-144.33 1078.01,-133.76 1071.96,-142.46 1078.7,-144.33"/>
</a>
</g>
</g>
<!-- Node29 -->
<g id="Node000029" class="node">
<title>Node29</title>
<g id="a_Node000029"><a xlink:href="DatabaseBackend_8hpp.html" target="_top" xlink:title=" ">
<polygon fill="white" stroke="#666666" points="1138.49,-76 1023.49,-76 1023.49,-56 1138.49,-56 1138.49,-76"/>
<text xml:space="preserve" text-anchor="middle" x="1080.99" y="-62.5" font-family="Helvetica,sans-Serif" font-size="10.00">DatabaseBackend.hpp</text>
</a>
</g>
</g>
<!-- Node28&#45;&gt;Node29 -->
<g id="edge44_Node000028_Node000029" class="edge">
<title>Node28&#45;&gt;Node29</title>
<g id="a_edge44_Node000028_Node000029"><a xlink:title=" ">
<path fill="none" stroke="#63b8ff" d="M1080.99,-111.59C1080.99,-105.01 1080.99,-95.96 1080.99,-87.73"/>
<polygon fill="#63b8ff" stroke="#63b8ff" points="1084.49,-87.81 1080.99,-77.81 1077.49,-87.81 1084.49,-87.81"/>
</a>
</g>
</g>
<!-- Node30 -->
<g id="Node000030" class="node">
<title>Node30</title>
<g id="a_Node000030"><a xlink:title=" ">
<polygon fill="#e0e0e0" stroke="#999999" points="1111.49,-20 1050.49,-20 1050.49,0 1111.49,0 1111.49,-20"/>
<text xml:space="preserve" text-anchor="middle" x="1080.99" y="-6.5" font-family="Helvetica,sans-Serif" font-size="10.00">pqxx/pqxx</text>
</a>
</g>
</g>
<!-- Node29&#45;&gt;Node30 -->
<g id="edge45_Node000029_Node000030" class="edge">
<title>Node29&#45;&gt;Node30</title>
<g id="a_edge45_Node000029_Node000030"><a xlink:title=" ">
<path fill="none" stroke="#63b8ff" d="M1080.99,-55.59C1080.99,-49.01 1080.99,-39.96 1080.99,-31.73"/>
<polygon fill="#63b8ff" stroke="#63b8ff" points="1084.49,-31.81 1080.99,-21.81 1077.49,-31.81 1084.49,-31.81"/>
</a>
</g>
</g>
</g>
</svg>
