<?xml version="1.0" encoding="UTF-8" standalone="no"?>
<!DOCTYPE svg PUBLIC "-//W3C//DTD SVG 1.1//EN"
 "http://www.w3.org/Graphics/SVG/1.1/DTD/svg11.dtd">
<!-- Generated by graphviz version 9.0.0 (0)
 -->
<!-- Title: src/commands/help/HelpCommand.cpp Pages: 1 -->
<svg width="1955pt" height="252pt"
 viewBox="0.00 0.00 1955.12 252.00" xmlns="http://www.w3.org/2000/svg" xmlns:xlink="http://www.w3.org/1999/xlink">
<g id="graph0" class="graph" transform="scale(1 1) rotate(0) translate(4 248)">
<title>src/commands/help/HelpCommand.cpp</title>
<!-- Node1 -->
<g id="Node000001" class="node">
<title>Node1</title>
<g id="a_Node000001"><a xlink:title=" ">
<polygon fill="#999999" stroke="#666666" points="938.88,-244 750.38,-244 750.38,-224 938.88,-224 938.88,-244"/>
<text text-anchor="middle" x="844.62" y="-230.5" font-family="Helvetica,sans-Serif" font-size="10.00">src/commands/help/HelpCommand.cpp</text>
</a>
</g>
</g>
<!-- Node2 -->
<g id="Node000002" class="node">
<title>Node2</title>
<g id="a_Node000002"><a xlink:href="HelpCommand_8hpp.html" target="_top" xlink:title=" ">
<polygon fill="white" stroke="#666666" points="378.62,-188 278.62,-188 278.62,-168 378.62,-168 378.62,-188"/>
<text text-anchor="middle" x="328.62" y="-174.5" font-family="Helvetica,sans-Serif" font-size="10.00">HelpCommand.hpp</text>
</a>
</g>
</g>
<!-- Node1&#45;&gt;Node2 -->
<g id="edge1_Node000001_Node000002" class="edge">
<title>Node1&#45;&gt;Node2</title>
<g id="a_edge1_Node000001_Node000002"><a xlink:title=" ">
<path fill="none" stroke="#63b8ff" d="M753.86,-223.5C649.42,-212.57 480.73,-194.92 390.4,-185.46"/>
<polygon fill="#63b8ff" stroke="#63b8ff" points="390.8,-181.99 380.49,-184.43 390.07,-188.95 390.8,-181.99"/>
</a>
</g>
</g>
<!-- Node6 -->
<g id="Node000006" class="node">
<title>Node6</title>
<g id="a_Node000006"><a xlink:title=" ">
<polygon fill="#e0e0e0" stroke="#999999" points="527.75,-132 467.5,-132 467.5,-112 527.75,-112 527.75,-132"/>
<text text-anchor="middle" x="497.62" y="-118.5" font-family="Helvetica,sans-Serif" font-size="10.00">fmt/core.h</text>
</a>
</g>
</g>
<!-- Node1&#45;&gt;Node6 -->
<g id="edge9_Node000001_Node000006" class="edge">
<title>Node1&#45;&gt;Node6</title>
<g id="a_edge9_Node000001_Node000006"><a xlink:title=" ">
<path fill="none" stroke="#63b8ff" d="M814.74,-223.53C752.48,-203.79 608.81,-158.24 538.24,-135.87"/>
<polygon fill="#63b8ff" stroke="#63b8ff" points="539.59,-132.63 529,-132.95 537.48,-139.31 539.59,-132.63"/>
</a>
</g>
</g>
<!-- Node10 -->
<g id="Node000010" class="node">
<title>Node10</title>
<g id="a_Node000010"><a xlink:href="Core_8hpp.html" target="_top" xlink:title=" ">
<polygon fill="white" stroke="#666666" points="1083.5,-188 1027.75,-188 1027.75,-168 1083.5,-168 1083.5,-188"/>
<text text-anchor="middle" x="1055.62" y="-174.5" font-family="Helvetica,sans-Serif" font-size="10.00">Core.hpp</text>
</a>
</g>
</g>
<!-- Node1&#45;&gt;Node10 -->
<g id="edge10_Node000001_Node000010" class="edge">
<title>Node1&#45;&gt;Node10</title>
<g id="a_edge10_Node000001_Node000010"><a xlink:title=" ">
<path fill="none" stroke="#63b8ff" d="M881.38,-223.59C919.21,-213.91 977.92,-198.89 1016.57,-189"/>
<polygon fill="#63b8ff" stroke="#63b8ff" points="1017.1,-192.47 1025.92,-186.6 1015.37,-185.69 1017.1,-192.47"/>
</a>
</g>
</g>
<!-- Node29 -->
<g id="Node000029" class="node">
<title>Node29</title>
<g id="a_Node000029"><a xlink:title=" ">
<polygon fill="#e0e0e0" stroke="#999999" points="1147.25,-188 1102,-188 1102,-168 1147.25,-168 1147.25,-188"/>
<text text-anchor="middle" x="1124.62" y="-174.5" font-family="Helvetica,sans-Serif" font-size="10.00">variant</text>
</a>
</g>
</g>
<!-- Node1&#45;&gt;Node29 -->
<g id="edge42_Node000001_Node000029" class="edge">
<title>Node1&#45;&gt;Node29</title>
<g id="a_edge42_Node000001_Node000029"><a xlink:title=" ">
<path fill="none" stroke="#63b8ff" d="M906.11,-223.51C953.93,-215.74 1022.16,-203.85 1090.63,-188.28"/>
<polygon fill="#63b8ff" stroke="#63b8ff" points="1091.19,-191.75 1100.15,-186.09 1089.61,-184.92 1091.19,-191.75"/>
</a>
</g>
</g>
<!-- Node3 -->
<g id="Node000003" class="node">
<title>Node3</title>
<g id="a_Node000003"><a xlink:title=" ">
<polygon fill="#e0e0e0" stroke="#999999" points="69.25,-132 0,-132 0,-112 69.25,-112 69.25,-132"/>
<text text-anchor="middle" x="34.62" y="-118.5" font-family="Helvetica,sans-Serif" font-size="10.00">dpp/colors.h</text>
</a>
</g>
</g>
<!-- Node2&#45;&gt;Node3 -->
<g id="edge2_Node000002_Node000003" class="edge">
<title>Node2&#45;&gt;Node3</title>
<g id="a_edge2_Node000002_Node000003"><a xlink:title=" ">
<path fill="none" stroke="#63b8ff" d="M278.28,-168.3C230.12,-159.89 155.14,-146.6 80.66,-132.36"/>
<polygon fill="#63b8ff" stroke="#63b8ff" points="81.64,-128.98 71.16,-130.53 80.32,-135.85 81.64,-128.98"/>
</a>
</g>
</g>
<!-- Node4 -->
<g id="Node000004" class="node">
<title>Node4</title>
<g id="a_Node000004"><a xlink:title=" ">
<polygon fill="#e0e0e0" stroke="#999999" points="170,-132 87.25,-132 87.25,-112 170,-112 170,-132"/>
<text text-anchor="middle" x="128.62" y="-118.5" font-family="Helvetica,sans-Serif" font-size="10.00">dpp/message.h</text>
</a>
</g>
</g>
<!-- Node2&#45;&gt;Node4 -->
<g id="edge3_Node000002_Node000004" class="edge">
<title>Node2&#45;&gt;Node4</title>
<g id="a_edge3_Node000002_Node000004"><a xlink:title=" ">
<path fill="none" stroke="#63b8ff" d="M293.79,-167.59C260.72,-158.67 210.82,-145.19 174.53,-135.39"/>
<polygon fill="#63b8ff" stroke="#63b8ff" points="175.76,-132.1 165.2,-132.87 173.94,-138.86 175.76,-132.1"/>
</a>
</g>
</g>
<!-- Node5 -->
<g id="Node000005" class="node">
<title>Node5</title>
<g id="a_Node000005"><a xlink:title=" ">
<polygon fill="#e0e0e0" stroke="#999999" points="277,-132 188.25,-132 188.25,-112 277,-112 277,-132"/>
<text text-anchor="middle" x="232.62" y="-118.5" font-family="Helvetica,sans-Serif" font-size="10.00">dpp/restresults.h</text>
</a>
</g>
</g>
<!-- Node2&#45;&gt;Node5 -->
<g id="edge4_Node000002_Node000005" class="edge">
<title>Node2&#45;&gt;Node5</title>
<g id="a_edge4_Node000002_Node000005"><a xlink:title=" ">
<path fill="none" stroke="#63b8ff" d="M311.9,-167.59C297.4,-159.44 276.15,-147.48 259.3,-138"/>
<polygon fill="#63b8ff" stroke="#63b8ff" points="261.23,-135.07 250.8,-133.22 257.8,-141.17 261.23,-135.07"/>
</a>
</g>
</g>
<!-- Node2&#45;&gt;Node6 -->
<g id="edge5_Node000002_Node000006" class="edge">
<title>Node2&#45;&gt;Node6</title>
<g id="a_edge5_Node000002_Node000006"><a xlink:title=" ">
<path fill="none" stroke="#63b8ff" d="M358.06,-167.59C385.52,-158.82 426.72,-145.66 457.24,-135.9"/>
<polygon fill="#63b8ff" stroke="#63b8ff" points="458.06,-139.32 466.52,-132.94 455.93,-132.65 458.06,-139.32"/>
</a>
</g>
</g>
<!-- Node7 -->
<g id="Node000007" class="node">
<title>Node7</title>
<g id="a_Node000007"><a xlink:title=" ">
<polygon fill="#e0e0e0" stroke="#999999" points="372.62,-132 332.62,-132 332.62,-112 372.62,-112 372.62,-132"/>
<text text-anchor="middle" x="352.62" y="-118.5" font-family="Helvetica,sans-Serif" font-size="10.00">stack</text>
</a>
</g>
</g>
<!-- Node2&#45;&gt;Node7 -->
<g id="edge6_Node000002_Node000007" class="edge">
<title>Node2&#45;&gt;Node7</title>
<g id="a_edge6_Node000002_Node000007"><a xlink:title=" ">
<path fill="none" stroke="#63b8ff" d="M332.81,-167.59C335.87,-160.7 340.14,-151.1 343.93,-142.57"/>
<polygon fill="#63b8ff" stroke="#63b8ff" points="347.01,-144.24 347.88,-133.68 340.62,-141.4 347.01,-144.24"/>
</a>
</g>
</g>
<!-- Node8 -->
<g id="Node000008" class="node">
<title>Node8</title>
<g id="a_Node000008"><a xlink:title=" ">
<polygon fill="#e0e0e0" stroke="#999999" points="449,-132 390.25,-132 390.25,-112 449,-112 449,-132"/>
<text text-anchor="middle" x="419.62" y="-118.5" font-family="Helvetica,sans-Serif" font-size="10.00">stdexcept</text>
</a>
</g>
</g>
<!-- Node2&#45;&gt;Node8 -->
<g id="edge7_Node000002_Node000008" class="edge">
<title>Node2&#45;&gt;Node8</title>
<g id="a_edge7_Node000002_Node000008"><a xlink:title=" ">
<path fill="none" stroke="#63b8ff" d="M344.48,-167.59C358.09,-159.51 377.99,-147.71 393.89,-138.27"/>
<polygon fill="#63b8ff" stroke="#63b8ff" points="395.53,-141.37 402.35,-133.25 391.96,-135.35 395.53,-141.37"/>
</a>
</g>
</g>
<!-- Node9 -->
<g id="Node000009" class="node">
<title>Node9</title>
<g id="a_Node000009"><a xlink:title=" ">
<polygon fill="#e0e0e0" stroke="#999999" points="324.62,-76 284.62,-76 284.62,-56 324.62,-56 324.62,-76"/>
<text text-anchor="middle" x="304.62" y="-62.5" font-family="Helvetica,sans-Serif" font-size="10.00">string</text>
</a>
</g>
</g>
<!-- Node2&#45;&gt;Node9 -->
<g id="edge8_Node000002_Node000009" class="edge">
<title>Node2&#45;&gt;Node9</title>
<g id="a_edge8_Node000002_Node000009"><a xlink:title=" ">
<path fill="none" stroke="#63b8ff" d="M326.58,-167.62C322.72,-149.92 314.28,-111.24 309.06,-87.32"/>
<polygon fill="#63b8ff" stroke="#63b8ff" points="312.54,-86.86 306.99,-77.83 305.7,-88.35 312.54,-86.86"/>
</a>
</g>
</g>
<!-- Node10&#45;&gt;Node6 -->
<g id="edge13_Node000010_Node000006" class="edge">
<title>Node10&#45;&gt;Node6</title>
<g id="a_edge13_Node000010_Node000006"><a xlink:title=" ">
<path fill="none" stroke="#63b8ff" d="M1027.33,-175.94C950.42,-172.77 731.01,-161.78 539.33,-132.23"/>
<polygon fill="#63b8ff" stroke="#63b8ff" points="540.12,-128.81 529.7,-130.72 539.04,-135.72 540.12,-128.81"/>
</a>
</g>
</g>
<!-- Node11 -->
<g id="Node000011" class="node">
<title>Node11</title>
<g id="a_Node000011"><a xlink:title=" ">
<polygon fill="#e0e0e0" stroke="#999999" points="1663,-132 1604.25,-132 1604.25,-112 1663,-112 1663,-132"/>
<text text-anchor="middle" x="1633.62" y="-118.5" font-family="Helvetica,sans-Serif" font-size="10.00">dpp/dpp.h</text>
</a>
</g>
</g>
<!-- Node10&#45;&gt;Node11 -->
<g id="edge11_Node000010_Node000011" class="edge">
<title>Node10&#45;&gt;Node11</title>
<g id="a_edge11_Node000010_Node000011"><a xlink:title=" ">
<path fill="none" stroke="#63b8ff" d="M1083.81,-169.63C1086.77,-169.01 1089.75,-168.45 1092.62,-168 1310.39,-133.97 1372.04,-164.87 1592.54,-132.24"/>
<polygon fill="#63b8ff" stroke="#63b8ff" points="1592.98,-135.71 1602.35,-130.76 1591.94,-128.79 1592.98,-135.71"/>
</a>
</g>
</g>
<!-- Node12 -->
<g id="Node000012" class="node">
<title>Node12</title>
<g id="a_Node000012"><a xlink:title=" ">
<polygon fill="#e0e0e0" stroke="#999999" points="1772.12,-132 1681.12,-132 1681.12,-112 1772.12,-112 1772.12,-132"/>
<text text-anchor="middle" x="1726.62" y="-118.5" font-family="Helvetica,sans-Serif" font-size="10.00">dpp/misc&#45;enum.h</text>
</a>
</g>
</g>
<!-- Node10&#45;&gt;Node12 -->
<g id="edge12_Node000010_Node000012" class="edge">
<title>Node10&#45;&gt;Node12</title>
<g id="a_edge12_Node000010_Node000012"><a xlink:title=" ">
<path fill="none" stroke="#63b8ff" d="M1083.8,-169.6C1086.77,-168.99 1089.75,-168.44 1092.62,-168 1343.94,-129.93 1413.45,-159.98 1669.6,-132.1"/>
<polygon fill="#63b8ff" stroke="#63b8ff" points="1669.7,-135.61 1679.25,-131.03 1668.93,-128.65 1669.7,-135.61"/>
</a>
</g>
</g>
<!-- Node13 -->
<g id="Node000013" class="node">
<title>Node13</title>
<g id="a_Node000013"><a xlink:href="Database_8hpp.html" target="_top" xlink:title=" ">
<polygon fill="white" stroke="#666666" points="665.38,-132 545.88,-132 545.88,-112 665.38,-112 665.38,-132"/>
<text text-anchor="middle" x="605.62" y="-118.5" font-family="Helvetica,sans-Serif" font-size="10.00">database/Database.hpp</text>
</a>
</g>
</g>
<!-- Node10&#45;&gt;Node13 -->
<g id="edge14_Node000010_Node000013" class="edge">
<title>Node10&#45;&gt;Node13</title>
<g id="a_edge14_Node000010_Node000013"><a xlink:title=" ">
<path fill="none" stroke="#63b8ff" d="M1027.41,-173.79C965.88,-166.75 814.74,-149.34 676.99,-132.28"/>
<polygon fill="#63b8ff" stroke="#63b8ff" points="677.69,-128.84 667.33,-131.08 676.83,-135.79 677.69,-128.84"/>
</a>
</g>
</g>
<!-- Node21 -->
<g id="Node000021" class="node">
<title>Node21</title>
<g id="a_Node000021"><a xlink:href="IButtonCommand_8hpp.html" target="_top" xlink:title=" ">
<polygon fill="white" stroke="#666666" points="1947.12,-132 1790.12,-132 1790.12,-112 1947.12,-112 1947.12,-132"/>
<text text-anchor="middle" x="1868.62" y="-118.5" font-family="Helvetica,sans-Serif" font-size="10.00">interfaces/IButtonCommand.hpp</text>
</a>
</g>
</g>
<!-- Node10&#45;&gt;Node21 -->
<g id="edge24_Node000010_Node000021" class="edge">
<title>Node10&#45;&gt;Node21</title>
<g id="a_edge24_Node000010_Node000021"><a xlink:title=" ">
<path fill="none" stroke="#63b8ff" d="M1083.8,-169.57C1086.77,-168.96 1089.75,-168.42 1092.62,-168 1392.33,-124.11 1473.93,-155.01 1778.53,-132.19"/>
<polygon fill="#63b8ff" stroke="#63b8ff" points="1778.71,-135.69 1788.41,-131.44 1778.17,-128.71 1778.71,-135.69"/>
</a>
</g>
</g>
<!-- Node24 -->
<g id="Node000024" class="node">
<title>Node24</title>
<g id="a_Node000024"><a xlink:href="IFormCommand_8hpp.html" target="_top" xlink:title=" ">
<polygon fill="white" stroke="#666666" points="1401.12,-132 1250.12,-132 1250.12,-112 1401.12,-112 1401.12,-132"/>
<text text-anchor="middle" x="1325.62" y="-118.5" font-family="Helvetica,sans-Serif" font-size="10.00">interfaces/IFormCommand.hpp</text>
</a>
</g>
</g>
<!-- Node10&#45;&gt;Node24 -->
<g id="edge27_Node000010_Node000024" class="edge">
<title>Node10&#45;&gt;Node24</title>
<g id="a_edge27_Node000010_Node000024"><a xlink:title=" ">
<path fill="none" stroke="#63b8ff" d="M1083.87,-169.98C1086.82,-169.29 1089.78,-168.62 1092.62,-168 1149.52,-155.59 1214.62,-143.17 1261.52,-134.53"/>
<polygon fill="#63b8ff" stroke="#63b8ff" points="1262.04,-137.99 1271.24,-132.74 1260.77,-131.11 1262.04,-137.99"/>
</a>
</g>
</g>
<!-- Node25 -->
<g id="Node000025" class="node">
<title>Node25</title>
<g id="a_Node000025"><a xlink:href="IGlobalSlashCommand_8hpp.html" target="_top" xlink:title=" ">
<polygon fill="white" stroke="#666666" points="1051.12,-132 870.12,-132 870.12,-112 1051.12,-112 1051.12,-132"/>
<text text-anchor="middle" x="960.62" y="-118.5" font-family="Helvetica,sans-Serif" font-size="10.00">interfaces/IGlobalSlashCommand.hpp</text>
</a>
</g>
</g>
<!-- Node10&#45;&gt;Node25 -->
<g id="edge30_Node000010_Node000025" class="edge">
<title>Node10&#45;&gt;Node25</title>
<g id="a_edge30_Node000010_Node000025"><a xlink:title=" ">
<path fill="none" stroke="#63b8ff" d="M1039.08,-167.59C1024.73,-159.44 1003.7,-147.48 987.02,-138"/>
<polygon fill="#63b8ff" stroke="#63b8ff" points="989.04,-135.13 978.62,-133.23 985.58,-141.21 989.04,-135.13"/>
</a>
</g>
</g>
<!-- Node26 -->
<g id="Node000026" class="node">
<title>Node26</title>
<g id="a_Node000026"><a xlink:href="IMemberCommand_8hpp.html" target="_top" xlink:title=" ">
<polygon fill="white" stroke="#666666" points="1232.5,-132 1068.75,-132 1068.75,-112 1232.5,-112 1232.5,-132"/>
<text text-anchor="middle" x="1150.62" y="-118.5" font-family="Helvetica,sans-Serif" font-size="10.00">interfaces/IMemberCommand.hpp</text>
</a>
</g>
</g>
<!-- Node10&#45;&gt;Node26 -->
<g id="edge33_Node000010_Node000026" class="edge">
<title>Node10&#45;&gt;Node26</title>
<g id="a_edge33_Node000010_Node000026"><a xlink:title=" ">
<path fill="none" stroke="#63b8ff" d="M1072.17,-167.59C1086.52,-159.44 1107.55,-147.48 1124.23,-138"/>
<polygon fill="#63b8ff" stroke="#63b8ff" points="1125.67,-141.21 1132.63,-133.23 1122.21,-135.13 1125.67,-141.21"/>
</a>
</g>
</g>
<!-- Node27 -->
<g id="Node000027" class="node">
<title>Node27</title>
<g id="a_Node000027"><a xlink:href="IMessageCommand_8hpp.html" target="_top" xlink:title=" ">
<polygon fill="white" stroke="#666666" points="851.75,-132 683.5,-132 683.5,-112 851.75,-112 851.75,-132"/>
<text text-anchor="middle" x="767.62" y="-118.5" font-family="Helvetica,sans-Serif" font-size="10.00">interfaces/IMessageCommand.hpp</text>
</a>
</g>
</g>
<!-- Node10&#45;&gt;Node27 -->
<g id="edge36_Node000010_Node000027" class="edge">
<title>Node10&#45;&gt;Node27</title>
<g id="a_edge36_Node000010_Node000027"><a xlink:title=" ">
<path fill="none" stroke="#63b8ff" d="M1027.49,-171.72C981.85,-163.17 890.64,-146.06 829.35,-134.57"/>
<polygon fill="#63b8ff" stroke="#63b8ff" points="830.23,-131.18 819.76,-132.77 828.94,-138.06 830.23,-131.18"/>
</a>
</g>
</g>
<!-- Node28 -->
<g id="Node000028" class="node">
<title>Node28</title>
<g id="a_Node000028"><a xlink:href="IReactionCommand_8hpp.html" target="_top" xlink:title=" ">
<polygon fill="white" stroke="#666666" points="1586.38,-132 1418.88,-132 1418.88,-112 1586.38,-112 1586.38,-132"/>
<text text-anchor="middle" x="1502.62" y="-118.5" font-family="Helvetica,sans-Serif" font-size="10.00">interfaces/IReactionCommand.hpp</text>
</a>
</g>
</g>
<!-- Node10&#45;&gt;Node28 -->
<g id="edge39_Node000010_Node000028" class="edge">
<title>Node10&#45;&gt;Node28</title>
<g id="a_edge39_Node000010_Node000028"><a xlink:title=" ">
<path fill="none" stroke="#63b8ff" d="M1083.83,-169.74C1086.79,-169.1 1089.76,-168.5 1092.62,-168 1122.8,-162.7 1295.83,-144.38 1407.25,-132.81"/>
<polygon fill="#63b8ff" stroke="#63b8ff" points="1407.41,-136.31 1417,-131.8 1406.69,-129.35 1407.41,-136.31"/>
</a>
</g>
</g>
<!-- Node13&#45;&gt;Node9 -->
<g id="edge19_Node000013_Node000009" class="edge">
<title>Node13&#45;&gt;Node9</title>
<g id="a_edge19_Node000013_Node000009"><a xlink:title=" ">
<path fill="none" stroke="#63b8ff" d="M545.47,-112.03C482.85,-102.54 387.81,-87.63 336.33,-76.32"/>
<polygon fill="#63b8ff" stroke="#63b8ff" points="337.13,-72.91 326.6,-74.08 335.56,-79.73 337.13,-72.91"/>
</a>
</g>
</g>
<!-- Node14 -->
<g id="Node000014" class="node">
<title>Node14</title>
<g id="a_Node000014"><a xlink:title=" ">
<polygon fill="#e0e0e0" stroke="#999999" points="762.75,-76 714.5,-76 714.5,-56 762.75,-56 762.75,-76"/>
<text text-anchor="middle" x="738.62" y="-62.5" font-family="Helvetica,sans-Serif" font-size="10.00">cstddef</text>
</a>
</g>
</g>
<!-- Node13&#45;&gt;Node14 -->
<g id="edge15_Node000013_Node000014" class="edge">
<title>Node13&#45;&gt;Node14</title>
<g id="a_edge15_Node000013_Node000014"><a xlink:title=" ">
<path fill="none" stroke="#63b8ff" d="M628.79,-111.59C649.83,-103.05 681.12,-90.35 704.93,-80.68"/>
<polygon fill="#63b8ff" stroke="#63b8ff" points="705.93,-84.05 713.88,-77.05 703.29,-77.57 705.93,-84.05"/>
</a>
</g>
</g>
<!-- Node15 -->
<g id="Node000015" class="node">
<title>Node15</title>
<g id="a_Node000015"><a xlink:title=" ">
<polygon fill="#e0e0e0" stroke="#999999" points="834.38,-76 780.88,-76 780.88,-56 834.38,-56 834.38,-76"/>
<text text-anchor="middle" x="807.62" y="-62.5" font-family="Helvetica,sans-Serif" font-size="10.00">iostream</text>
</a>
</g>
</g>
<!-- Node13&#45;&gt;Node15 -->
<g id="edge16_Node000013_Node000015" class="edge">
<title>Node13&#45;&gt;Node15</title>
<g id="a_edge16_Node000013_Node000015"><a xlink:title=" ">
<path fill="none" stroke="#63b8ff" d="M640.81,-111.59C676.87,-101.95 732.75,-87.02 769.76,-77.12"/>
<polygon fill="#63b8ff" stroke="#63b8ff" points="770.37,-80.58 779.13,-74.62 768.57,-73.82 770.37,-80.58"/>
</a>
</g>
</g>
<!-- Node16 -->
<g id="Node000016" class="node">
<title>Node16</title>
<g id="a_Node000016"><a xlink:title=" ">
<polygon fill="#e0e0e0" stroke="#999999" points="392.5,-76 342.75,-76 342.75,-56 392.5,-56 392.5,-76"/>
<text text-anchor="middle" x="367.62" y="-62.5" font-family="Helvetica,sans-Serif" font-size="10.00">optional</text>
</a>
</g>
</g>
<!-- Node13&#45;&gt;Node16 -->
<g id="edge17_Node000013_Node000016" class="edge">
<title>Node13&#45;&gt;Node16</title>
<g id="a_edge17_Node000013_Node000016"><a xlink:title=" ">
<path fill="none" stroke="#63b8ff" d="M563.68,-111.57C523.4,-102.5 460.84,-88.39 406.62,-76 405.65,-75.78 404.66,-75.55 403.65,-75.32"/>
<polygon fill="#63b8ff" stroke="#63b8ff" points="404.8,-71.99 394.27,-73.16 403.23,-78.82 404.8,-71.99"/>
</a>
</g>
</g>
<!-- Node17 -->
<g id="Node000017" class="node">
<title>Node17</title>
<g id="a_Node000017"><a xlink:title=" ">
<polygon fill="#e0e0e0" stroke="#999999" points="492.12,-20 431.12,-20 431.12,0 492.12,0 492.12,-20"/>
<text text-anchor="middle" x="461.62" y="-6.5" font-family="Helvetica,sans-Serif" font-size="10.00">pqxx/pqxx</text>
</a>
</g>
</g>
<!-- Node13&#45;&gt;Node17 -->
<g id="edge18_Node000013_Node000017" class="edge">
<title>Node13&#45;&gt;Node17</title>
<g id="a_edge18_Node000013_Node000017"><a xlink:title=" ">
<path fill="none" stroke="#63b8ff" d="M545.61,-112.5C503.58,-105.18 452.69,-93.08 439.62,-76 429.14,-62.29 437.56,-43.29 446.85,-29.37"/>
<polygon fill="#63b8ff" stroke="#63b8ff" points="449.53,-31.64 452.62,-21.5 443.89,-27.5 449.53,-31.64"/>
</a>
</g>
</g>
<!-- Node18 -->
<g id="Node000018" class="node">
<title>Node18</title>
<g id="a_Node000018"><a xlink:title=" ">
<polygon fill="#e0e0e0" stroke="#999999" points="634.62,-76 576.62,-76 576.62,-56 634.62,-56 634.62,-76"/>
<text text-anchor="middle" x="605.62" y="-62.5" font-family="Helvetica,sans-Serif" font-size="10.00">typeindex</text>
</a>
</g>
</g>
<!-- Node13&#45;&gt;Node18 -->
<g id="edge20_Node000013_Node000018" class="edge">
<title>Node13&#45;&gt;Node18</title>
<g id="a_edge20_Node000013_Node000018"><a xlink:title=" ">
<path fill="none" stroke="#63b8ff" d="M605.62,-111.59C605.62,-105.01 605.62,-95.96 605.62,-87.73"/>
<polygon fill="#63b8ff" stroke="#63b8ff" points="609.13,-87.81 605.63,-77.81 602.13,-87.81 609.13,-87.81"/>
</a>
</g>
</g>
<!-- Node19 -->
<g id="Node000019" class="node">
<title>Node19</title>
<g id="a_Node000019"><a xlink:title=" ">
<polygon fill="#e0e0e0" stroke="#999999" points="696.12,-76 653.12,-76 653.12,-56 696.12,-56 696.12,-76"/>
<text text-anchor="middle" x="674.62" y="-62.5" font-family="Helvetica,sans-Serif" font-size="10.00">vector</text>
</a>
</g>
</g>
<!-- Node13&#45;&gt;Node19 -->
<g id="edge21_Node000013_Node000019" class="edge">
<title>Node13&#45;&gt;Node19</title>
<g id="a_edge21_Node000013_Node000019"><a xlink:title=" ">
<path fill="none" stroke="#63b8ff" d="M617.64,-111.59C627.64,-103.77 642.09,-92.46 653.93,-83.19"/>
<polygon fill="#63b8ff" stroke="#63b8ff" points="655.83,-86.15 661.55,-77.23 651.52,-80.64 655.83,-86.15"/>
</a>
</g>
</g>
<!-- Node20 -->
<g id="Node000020" class="node">
<title>Node20</title>
<g id="a_Node000020"><a xlink:href="RowDTOAdapter_8hpp.html" target="_top" xlink:title=" ">
<polygon fill="white" stroke="#666666" points="558.5,-76 448.75,-76 448.75,-56 558.5,-56 558.5,-76"/>
<text text-anchor="middle" x="503.62" y="-62.5" font-family="Helvetica,sans-Serif" font-size="10.00">RowDTOAdapter.hpp</text>
</a>
</g>
</g>
<!-- Node13&#45;&gt;Node20 -->
<g id="edge22_Node000013_Node000020" class="edge">
<title>Node13&#45;&gt;Node20</title>
<g id="a_edge22_Node000013_Node000020"><a xlink:title=" ">
<path fill="none" stroke="#63b8ff" d="M587.86,-111.59C572.3,-103.36 549.44,-91.26 531.46,-81.74"/>
<polygon fill="#63b8ff" stroke="#63b8ff" points="533.34,-78.77 522.87,-77.19 530.07,-84.96 533.34,-78.77"/>
</a>
</g>
</g>
<!-- Node20&#45;&gt;Node17 -->
<g id="edge23_Node000020_Node000017" class="edge">
<title>Node20&#45;&gt;Node17</title>
<g id="a_edge23_Node000020_Node000017"><a xlink:title=" ">
<path fill="none" stroke="#63b8ff" d="M496.31,-55.59C490.65,-48.32 482.64,-38.02 475.74,-29.15"/>
<polygon fill="#63b8ff" stroke="#63b8ff" points="478.69,-27.24 469.79,-21.49 473.16,-31.54 478.69,-27.24"/>
</a>
</g>
</g>
<!-- Node22 -->
<g id="Node000022" class="node">
<title>Node22</title>
<g id="a_Node000022"><a xlink:title=" ">
<polygon fill="#e0e0e0" stroke="#999999" points="1205.75,-76 1133.5,-76 1133.5,-56 1205.75,-56 1205.75,-76"/>
<text text-anchor="middle" x="1169.62" y="-62.5" font-family="Helvetica,sans-Serif" font-size="10.00">dpp/cluster.h</text>
</a>
</g>
</g>
<!-- Node21&#45;&gt;Node22 -->
<g id="edge25_Node000021_Node000022" class="edge">
<title>Node21&#45;&gt;Node22</title>
<g id="a_edge25_Node000021_Node000022"><a xlink:title=" ">
<path fill="none" stroke="#63b8ff" d="M1789.92,-112.73C1787.12,-112.48 1784.35,-112.23 1781.62,-112 1546.83,-91.87 1487.37,-96.71 1252.62,-76 1241.15,-74.99 1228.79,-73.74 1217.21,-72.49"/>
<polygon fill="#63b8ff" stroke="#63b8ff" points="1217.78,-69.03 1207.46,-71.42 1217.02,-75.99 1217.78,-69.03"/>
</a>
</g>
</g>
<!-- Node23 -->
<g id="Node000023" class="node">
<title>Node23</title>
<g id="a_Node000023"><a xlink:title=" ">
<polygon fill="#e0e0e0" stroke="#999999" points="1349.62,-76 1261.62,-76 1261.62,-56 1349.62,-56 1349.62,-76"/>
<text text-anchor="middle" x="1305.62" y="-62.5" font-family="Helvetica,sans-Serif" font-size="10.00">dpp/dispatcher.h</text>
</a>
</g>
</g>
<!-- Node21&#45;&gt;Node23 -->
<g id="edge26_Node000021_Node000023" class="edge">
<title>Node21&#45;&gt;Node23</title>
<g id="a_edge26_Node000021_Node000023"><a xlink:title=" ">
<path fill="none" stroke="#63b8ff" d="M1789.91,-112.83C1787.11,-112.55 1784.34,-112.27 1781.62,-112 1629.64,-96.96 1450.25,-80.29 1361.35,-72.11"/>
<polygon fill="#63b8ff" stroke="#63b8ff" points="1361.72,-68.63 1351.44,-71.2 1361.08,-75.6 1361.72,-68.63"/>
</a>
</g>
</g>
<!-- Node24&#45;&gt;Node22 -->
<g id="edge28_Node000024_Node000022" class="edge">
<title>Node24&#45;&gt;Node22</title>
<g id="a_edge28_Node000024_Node000022"><a xlink:title=" ">
<path fill="none" stroke="#63b8ff" d="M1298.45,-111.59C1273.33,-102.9 1235.74,-89.89 1207.65,-80.16"/>
<polygon fill="#63b8ff" stroke="#63b8ff" points="1209.04,-76.94 1198.44,-76.97 1206.75,-83.55 1209.04,-76.94"/>
</a>
</g>
</g>
<!-- Node24&#45;&gt;Node23 -->
<g id="edge29_Node000024_Node000023" class="edge">
<title>Node24&#45;&gt;Node23</title>
<g id="a_edge29_Node000024_Node000023"><a xlink:title=" ">
<path fill="none" stroke="#63b8ff" d="M1322.14,-111.59C1319.62,-104.78 1316.11,-95.32 1312.98,-86.86"/>
<polygon fill="#63b8ff" stroke="#63b8ff" points="1316.35,-85.88 1309.59,-77.72 1309.79,-88.31 1316.35,-85.88"/>
</a>
</g>
</g>
<!-- Node25&#45;&gt;Node22 -->
<g id="edge31_Node000025_Node000022" class="edge">
<title>Node25&#45;&gt;Node22</title>
<g id="a_edge31_Node000025_Node000022"><a xlink:title=" ">
<path fill="none" stroke="#63b8ff" d="M997.03,-111.59C1031.84,-102.6 1084.5,-88.99 1122.49,-79.18"/>
<polygon fill="#63b8ff" stroke="#63b8ff" points="1123.02,-82.66 1131.82,-76.77 1121.26,-75.88 1123.02,-82.66"/>
</a>
</g>
</g>
<!-- Node25&#45;&gt;Node23 -->
<g id="edge32_Node000025_Node000023" class="edge">
<title>Node25&#45;&gt;Node23</title>
<g id="a_edge32_Node000025_Node000023"><a xlink:title=" ">
<path fill="none" stroke="#63b8ff" d="M1021.11,-111.53C1085.7,-101.42 1187.19,-85.54 1249.89,-75.72"/>
<polygon fill="#63b8ff" stroke="#63b8ff" points="1250.29,-79.2 1259.63,-74.2 1249.21,-72.29 1250.29,-79.2"/>
</a>
</g>
</g>
<!-- Node26&#45;&gt;Node22 -->
<g id="edge34_Node000026_Node000022" class="edge">
<title>Node26&#45;&gt;Node22</title>
<g id="a_edge34_Node000026_Node000022"><a xlink:title=" ">
<path fill="none" stroke="#63b8ff" d="M1153.93,-111.59C1156.3,-104.86 1159.59,-95.53 1162.53,-87.15"/>
<polygon fill="#63b8ff" stroke="#63b8ff" points="1165.83,-88.32 1165.85,-77.73 1159.23,-86 1165.83,-88.32"/>
</a>
</g>
</g>
<!-- Node26&#45;&gt;Node23 -->
<g id="edge35_Node000026_Node000023" class="edge">
<title>Node26&#45;&gt;Node23</title>
<g id="a_edge35_Node000026_Node000023"><a xlink:title=" ">
<path fill="none" stroke="#63b8ff" d="M1177.62,-111.59C1202.59,-102.9 1239.93,-89.89 1267.85,-80.16"/>
<polygon fill="#63b8ff" stroke="#63b8ff" points="1268.69,-83.57 1276.99,-76.98 1266.39,-76.96 1268.69,-83.57"/>
</a>
</g>
</g>
<!-- Node27&#45;&gt;Node22 -->
<g id="edge37_Node000027_Node000022" class="edge">
<title>Node27&#45;&gt;Node22</title>
<g id="a_edge37_Node000027_Node000022"><a xlink:title=" ">
<path fill="none" stroke="#63b8ff" d="M838.11,-111.53C919.7,-100.57 1051.83,-82.82 1122.12,-73.38"/>
<polygon fill="#63b8ff" stroke="#63b8ff" points="1122.31,-76.89 1131.76,-72.09 1121.38,-69.95 1122.31,-76.89"/>
</a>
</g>
</g>
<!-- Node27&#45;&gt;Node23 -->
<g id="edge38_Node000027_Node000023" class="edge">
<title>Node27&#45;&gt;Node23</title>
<g id="a_edge38_Node000027_Node000023"><a xlink:title=" ">
<path fill="none" stroke="#63b8ff" d="M851.98,-112.53C963.12,-101.38 1155.53,-82.07 1250.01,-72.58"/>
<polygon fill="#63b8ff" stroke="#63b8ff" points="1250.2,-76.08 1259.8,-71.6 1249.5,-69.12 1250.2,-76.08"/>
</a>
</g>
</g>
<!-- Node28&#45;&gt;Node22 -->
<g id="edge40_Node000028_Node000022" class="edge">
<title>Node28&#45;&gt;Node22</title>
<g id="a_edge40_Node000028_Node000022"><a xlink:title=" ">
<path fill="none" stroke="#63b8ff" d="M1444.24,-111.53C1379.58,-101.05 1276.59,-84.35 1216.81,-74.65"/>
<polygon fill="#63b8ff" stroke="#63b8ff" points="1217.74,-71.26 1207.31,-73.11 1216.62,-78.17 1217.74,-71.26"/>
</a>
</g>
</g>
<!-- Node28&#45;&gt;Node23 -->
<g id="edge41_Node000028_Node000023" class="edge">
<title>Node28&#45;&gt;Node23</title>
<g id="a_edge41_Node000028_Node000023"><a xlink:title=" ">
<path fill="none" stroke="#63b8ff" d="M1468.31,-111.59C1435.88,-102.71 1387.01,-89.31 1351.3,-79.52"/>
<polygon fill="#63b8ff" stroke="#63b8ff" points="1352.24,-76.15 1341.67,-76.88 1350.39,-82.9 1352.24,-76.15"/>
</a>
</g>
</g>
</g>
</svg>
