<?xml version="1.0" encoding="UTF-8" standalone="no"?>
<!DOCTYPE svg PUBLIC "-//W3C//DTD SVG 1.1//EN"
 "http://www.w3.org/Graphics/SVG/1.1/DTD/svg11.dtd">
<!-- Generated by graphviz version 14.1.5 (0)
 -->
<!-- Title: src/bot_library/bot/core/database/include/IDatabaseConnectionProvider.hpp Pages: 1 -->
<svg width="176pt" height="164pt"
 viewBox="0.00 0.00 176.00 164.00" xmlns="http://www.w3.org/2000/svg" xmlns:xlink="http://www.w3.org/1999/xlink">
<g id="graph0" class="graph" transform="scale(1 1) rotate(0) translate(4 160)">
<title>src/bot_library/bot/core/database/include/IDatabaseConnectionProvider.hpp</title>
<!-- Node1 -->
<g id="Node000001" class="node">
<title>Node1</title>
<g id="a_Node000001"><a xlink:title=" ">
<polygon fill="#999999" stroke="#666666" points="168.25,-156 0,-156 0,-112 168.25,-112 168.25,-156"/>
<text xml:space="preserve" text-anchor="start" x="8" y="-142.5" font-family="Helvetica,sans-Serif" font-size="10.00">src/bot_library/bot</text>
<text xml:space="preserve" text-anchor="start" x="8" y="-130.5" font-family="Helvetica,sans-Serif" font-size="10.00">/core/database/include</text>
<text xml:space="preserve" text-anchor="middle" x="84.12" y="-118.5" font-family="Helvetica,sans-Serif" font-size="10.00">/IDatabaseConnectionProvider.hpp</text>
</a>
</g>
</g>
<!-- Node2 -->
<g id="Node000002" class="node">
<title>Node2</title>
<g id="a_Node000002"><a xlink:href="DatabaseBackend_8hpp.html" target="_top" xlink:title=" ">
<polygon fill="white" stroke="#666666" points="141.62,-76 26.62,-76 26.62,-56 141.62,-56 141.62,-76"/>
<text xml:space="preserve" text-anchor="middle" x="84.12" y="-62.5" font-family="Helvetica,sans-Serif" font-size="10.00">DatabaseBackend.hpp</text>
</a>
</g>
</g>
<!-- Node1&#45;&gt;Node2 -->
<g id="edge1_Node000001_Node000002" class="edge">
<title>Node1&#45;&gt;Node2</title>
<g id="a_edge1_Node000001_Node000002"><a xlink:title=" ">
<path fill="none" stroke="#63b8ff" d="M84.12,-111.75C84.12,-104.13 84.12,-95.53 84.12,-87.93"/>
<polygon fill="#63b8ff" stroke="#63b8ff" points="87.63,-87.93 84.13,-77.93 80.63,-87.93 87.63,-87.93"/>
</a>
</g>
</g>
<!-- Node3 -->
<g id="Node000003" class="node">
<title>Node3</title>
<g id="a_Node000003"><a xlink:title=" ">
<polygon fill="#e0e0e0" stroke="#999999" points="114.62,-20 53.62,-20 53.62,0 114.62,0 114.62,-20"/>
<text xml:space="preserve" text-anchor="middle" x="84.12" y="-6.5" font-family="Helvetica,sans-Serif" font-size="10.00">pqxx/pqxx</text>
</a>
</g>
</g>
<!-- Node2&#45;&gt;Node3 -->
<g id="edge2_Node000002_Node000003" class="edge">
<title>Node2&#45;&gt;Node3</title>
<g id="a_edge2_Node000002_Node000003"><a xlink:title=" ">
<path fill="none" stroke="#63b8ff" d="M84.12,-55.59C84.12,-49.01 84.12,-39.96 84.12,-31.73"/>
<polygon fill="#63b8ff" stroke="#63b8ff" points="87.63,-31.81 84.13,-21.81 80.63,-31.81 87.63,-31.81"/>
</a>
</g>
</g>
</g>
</svg>
