<?xml version="1.0" encoding="UTF-8" standalone="no"?>
<!DOCTYPE svg PUBLIC "-//W3C//DTD SVG 1.1//EN"
 "http://www.w3.org/Graphics/SVG/1.1/DTD/svg11.dtd">
<!-- Generated by graphviz version 9.0.0 (0)
 -->
<!-- Title: src/bot_library/bot/core/interfaces/include/IFormCommand.hpp Pages: 1 -->
<svg width="1721pt" height="324pt"
 viewBox="0.00 0.00 1721.44 324.00" xmlns="http://www.w3.org/2000/svg" xmlns:xlink="http://www.w3.org/1999/xlink">
<g id="graph0" class="graph" transform="scale(1 1) rotate(0) translate(4 320)">
<title>src/bot_library/bot/core/interfaces/include/IFormCommand.hpp</title>
<!-- Node1 -->
<g id="Node000001" class="node">
<title>Node1</title>
<g id="a_Node000001"><a xlink:title=" ">
<polygon fill="#999999" stroke="#666666" points="1505.48,-316 1388.23,-316 1388.23,-272 1505.48,-272 1505.48,-316"/>
<text text-anchor="start" x="1396.23" y="-302.5" font-family="Helvetica,sans-Serif" font-size="10.00">src/bot_library/bot</text>
<text text-anchor="start" x="1396.23" y="-290.5" font-family="Helvetica,sans-Serif" font-size="10.00">/core/interfaces/include</text>
<text text-anchor="middle" x="1446.85" y="-278.5" font-family="Helvetica,sans-Serif" font-size="10.00">/IFormCommand.hpp</text>
</a>
</g>
</g>
<!-- Node2 -->
<g id="Node000002" class="node">
<title>Node2</title>
<g id="a_Node000002"><a xlink:href="Core_8hpp.html" target="_top" xlink:title=" ">
<polygon fill="white" stroke="#666666" points="1503.98,-236 1389.73,-236 1389.73,-204 1503.98,-204 1503.98,-236"/>
<text text-anchor="start" x="1397.73" y="-222.5" font-family="Helvetica,sans-Serif" font-size="10.00">src/bot_library/bot</text>
<text text-anchor="middle" x="1446.85" y="-210.5" font-family="Helvetica,sans-Serif" font-size="10.00">/core/include/Core.hpp</text>
</a>
</g>
</g>
<!-- Node1&#45;&gt;Node2 -->
<g id="edge1_Node000001_Node000002" class="edge">
<title>Node1&#45;&gt;Node2</title>
<g id="a_edge1_Node000001_Node000002"><a xlink:title=" ">
<path fill="none" stroke="#63b8ff" d="M1446.85,-260.53C1446.85,-252.02 1446.85,-243.24 1446.85,-236.13"/>
<polygon fill="#63b8ff" stroke="#63b8ff" points="1443.35,-260.27 1446.85,-270.27 1450.35,-260.27 1443.35,-260.27"/>
</a>
</g>
</g>
<!-- Node4 -->
<g id="Node000004" class="node">
<title>Node4</title>
<g id="a_Node000004"><a xlink:href="Bot_8hpp.html" target="_top" xlink:title=" ">
<polygon fill="white" stroke="#666666" points="703.85,-168 609.85,-168 609.85,-136 703.85,-136 703.85,-168"/>
<text text-anchor="start" x="617.85" y="-154.5" font-family="Helvetica,sans-Serif" font-size="10.00">src/bot_library/bot</text>
<text text-anchor="middle" x="656.85" y="-142.5" font-family="Helvetica,sans-Serif" font-size="10.00">/include/Bot.hpp</text>
</a>
</g>
</g>
<!-- Node1&#45;&gt;Node4 -->
<g id="edge30_Node000001_Node000004" class="edge">
<title>Node1&#45;&gt;Node4</title>
<g id="a_edge30_Node000001_Node000004"><a xlink:title=" ">
<path fill="none" stroke="#63b8ff" d="M1376.81,-280.59C1218.74,-252.57 837.72,-185.05 704.11,-161.37"/>
<polygon fill="#63b8ff" stroke="#63b8ff" points="1375.85,-283.97 1386.31,-282.27 1377.07,-277.08 1375.85,-283.97"/>
</a>
</g>
</g>
<!-- Node9 -->
<g id="Node000009" class="node">
<title>Node9</title>
<g id="a_Node000009"><a xlink:href="ChallengeRoleCommand_8cpp.html" target="_top" xlink:title=" ">
<polygon fill="white" stroke="#666666" points="1661.73,-32 1449.98,-32 1449.98,0 1661.73,0 1661.73,-32"/>
<text text-anchor="start" x="1457.98" y="-18.5" font-family="Helvetica,sans-Serif" font-size="10.00">src/bot_library/commands</text>
<text text-anchor="middle" x="1555.85" y="-6.5" font-family="Helvetica,sans-Serif" font-size="10.00">/challenge_role/ChallengeRoleCommand.cpp</text>
</a>
</g>
</g>
<!-- Node1&#45;&gt;Node9 -->
<g id="edge31_Node000001_Node000009" class="edge">
<title>Node1&#45;&gt;Node9</title>
<g id="a_edge31_Node000001_Node000009"><a xlink:title=" ">
<path fill="none" stroke="#63b8ff" d="M1516.96,-280.4C1578.36,-265.25 1663.98,-233.21 1704.85,-168 1740.84,-110.58 1648.12,-57.69 1593.12,-32.49"/>
<polygon fill="#63b8ff" stroke="#63b8ff" points="1516.19,-276.98 1507.26,-282.69 1517.8,-283.8 1516.19,-276.98"/>
</a>
</g>
</g>
<!-- Node3 -->
<g id="Node000003" class="node">
<title>Node3</title>
<g id="a_Node000003"><a xlink:href="Core_8cpp.html" target="_top" xlink:title=" ">
<polygon fill="white" stroke="#666666" points="1493.85,-168 1399.85,-168 1399.85,-136 1493.85,-136 1493.85,-168"/>
<text text-anchor="start" x="1407.85" y="-154.5" font-family="Helvetica,sans-Serif" font-size="10.00">src/bot_library/bot</text>
<text text-anchor="middle" x="1446.85" y="-142.5" font-family="Helvetica,sans-Serif" font-size="10.00">/core/Core.cpp</text>
</a>
</g>
</g>
<!-- Node2&#45;&gt;Node3 -->
<g id="edge2_Node000002_Node000003" class="edge">
<title>Node2&#45;&gt;Node3</title>
<g id="a_edge2_Node000002_Node000003"><a xlink:title=" ">
<path fill="none" stroke="#63b8ff" d="M1446.85,-192.31C1446.85,-184.12 1446.85,-175.38 1446.85,-168.22"/>
<polygon fill="#63b8ff" stroke="#63b8ff" points="1443.35,-192.18 1446.85,-202.18 1450.35,-192.18 1443.35,-192.18"/>
</a>
</g>
</g>
<!-- Node2&#45;&gt;Node4 -->
<g id="edge3_Node000002_Node000004" class="edge">
<title>Node2&#45;&gt;Node4</title>
<g id="a_edge3_Node000002_Node000004"><a xlink:title=" ">
<path fill="none" stroke="#63b8ff" d="M1378.01,-213.25C1220.59,-200.1 837.63,-168.1 703.88,-156.93"/>
<polygon fill="#63b8ff" stroke="#63b8ff" points="1377.64,-216.73 1387.89,-214.07 1378.22,-209.75 1377.64,-216.73"/>
</a>
</g>
</g>
<!-- Node2&#45;&gt;Node9 -->
<g id="edge27_Node000002_Node000009" class="edge">
<title>Node2&#45;&gt;Node9</title>
<g id="a_edge27_Node000002_Node000009"><a xlink:title=" ">
<path fill="none" stroke="#63b8ff" d="M1477.12,-196.34C1486.37,-188.22 1495.92,-178.47 1502.85,-168 1532.3,-123.52 1547.39,-60.82 1553.09,-32.25"/>
<polygon fill="#63b8ff" stroke="#63b8ff" points="1475.03,-193.52 1469.59,-202.62 1479.51,-198.9 1475.03,-193.52"/>
</a>
</g>
</g>
<!-- Node21 -->
<g id="Node000021" class="node">
<title>Node21</title>
<g id="a_Node000021"><a xlink:href="SetChannelCommand_8cpp.html" target="_top" xlink:title=" ">
<polygon fill="white" stroke="#666666" points="1225.48,-32 1036.23,-32 1036.23,0 1225.48,0 1225.48,-32"/>
<text text-anchor="start" x="1044.23" y="-18.5" font-family="Helvetica,sans-Serif" font-size="10.00">src/bot_library/commands</text>
<text text-anchor="middle" x="1130.85" y="-6.5" font-family="Helvetica,sans-Serif" font-size="10.00">/set_channel/SetChannelCommand.cpp</text>
</a>
</g>
</g>
<!-- Node2&#45;&gt;Node21 -->
<g id="edge29_Node000002_Node000021" class="edge">
<title>Node2&#45;&gt;Node21</title>
<g id="a_edge29_Node000002_Node000021"><a xlink:title=" ">
<path fill="none" stroke="#63b8ff" d="M1416.96,-196.43C1407.65,-188.27 1397.97,-178.46 1390.85,-168 1364.1,-128.7 1388.7,-99.23 1352.85,-68 1342.15,-58.68 1273.69,-43.78 1215.59,-32.49"/>
<polygon fill="#63b8ff" stroke="#63b8ff" points="1414.6,-199.02 1424.52,-202.75 1419.09,-193.65 1414.6,-199.02"/>
</a>
</g>
</g>
<!-- Node22 -->
<g id="Node000022" class="node">
<title>Node22</title>
<g id="a_Node000022"><a xlink:href="resource__man_8hpp.html" target="_top" xlink:title=" ">
<polygon fill="white" stroke="#666666" points="1695.35,-168 1550.35,-168 1550.35,-136 1695.35,-136 1695.35,-168"/>
<text text-anchor="start" x="1558.35" y="-154.5" font-family="Helvetica,sans-Serif" font-size="10.00">src/bot_library/commands</text>
<text text-anchor="middle" x="1622.85" y="-142.5" font-family="Helvetica,sans-Serif" font-size="10.00">/resources/resource_man.hpp</text>
</a>
</g>
</g>
<!-- Node2&#45;&gt;Node22 -->
<g id="edge28_Node000002_Node000022" class="edge">
<title>Node2&#45;&gt;Node22</title>
<g id="a_edge28_Node000002_Node000022"><a xlink:title=" ">
<path fill="none" stroke="#63b8ff" d="M1498.7,-199.56C1525.12,-189.65 1556.8,-177.77 1581.54,-168.49"/>
<polygon fill="#63b8ff" stroke="#63b8ff" points="1497.67,-196.21 1489.53,-202.99 1500.12,-202.76 1497.67,-196.21"/>
</a>
</g>
</g>
<!-- Node5 -->
<g id="Node000005" class="node">
<title>Node5</title>
<g id="a_Node000005"><a xlink:href="BotLibrary_8cpp.html" target="_top" xlink:title=" ">
<polygon fill="white" stroke="#666666" points="158.23,-26 15.48,-26 15.48,-6 158.23,-6 158.23,-26"/>
<text text-anchor="middle" x="86.85" y="-12.5" font-family="Helvetica,sans-Serif" font-size="10.00">src/bot_library/BotLibrary.cpp</text>
</a>
</g>
</g>
<!-- Node4&#45;&gt;Node5 -->
<g id="edge4_Node000004_Node000005" class="edge">
<title>Node4&#45;&gt;Node5</title>
<g id="a_edge4_Node000004_Node000005"><a xlink:title=" ">
<path fill="none" stroke="#63b8ff" d="M598.05,-150.83C445.58,-149.78 46.55,-142.93 6.85,-100 -18.22,-72.89 34.4,-41.74 65.75,-26.46"/>
<polygon fill="#63b8ff" stroke="#63b8ff" points="597.92,-154.33 607.94,-150.89 597.96,-147.33 597.92,-154.33"/>
</a>
</g>
</g>
<!-- Node6 -->
<g id="Node000006" class="node">
<title>Node6</title>
<g id="a_Node000006"><a xlink:href="Bot_8cpp.html" target="_top" xlink:title=" ">
<polygon fill="white" stroke="#666666" points="109.85,-100 15.85,-100 15.85,-68 109.85,-68 109.85,-100"/>
<text text-anchor="start" x="23.85" y="-86.5" font-family="Helvetica,sans-Serif" font-size="10.00">src/bot_library/bot</text>
<text text-anchor="middle" x="62.85" y="-74.5" font-family="Helvetica,sans-Serif" font-size="10.00">/Bot.cpp</text>
</a>
</g>
</g>
<!-- Node4&#45;&gt;Node6 -->
<g id="edge5_Node000004_Node000006" class="edge">
<title>Node4&#45;&gt;Node6</title>
<g id="a_edge5_Node000004_Node000006"><a xlink:title=" ">
<path fill="none" stroke="#63b8ff" d="M598.06,-148.65C498.67,-143.95 291.39,-131.06 118.85,-100 115.98,-99.48 113.04,-98.89 110.08,-98.25"/>
<polygon fill="#63b8ff" stroke="#63b8ff" points="597.69,-152.13 607.84,-149.1 598.01,-145.14 597.69,-152.13"/>
</a>
</g>
</g>
<!-- Node7 -->
<g id="Node000007" class="node">
<title>Node7</title>
<g id="a_Node000007"><a xlink:href="ChallengeRoleCommand_8hpp.html" target="_top" xlink:title=" ">
<polygon fill="white" stroke="#666666" points="1343.73,-100 1131.98,-100 1131.98,-68 1343.73,-68 1343.73,-100"/>
<text text-anchor="start" x="1139.98" y="-86.5" font-family="Helvetica,sans-Serif" font-size="10.00">src/bot_library/commands</text>
<text text-anchor="middle" x="1237.85" y="-74.5" font-family="Helvetica,sans-Serif" font-size="10.00">/challenge_role/ChallengeRoleCommand.hpp</text>
</a>
</g>
</g>
<!-- Node4&#45;&gt;Node7 -->
<g id="edge6_Node000004_Node000007" class="edge">
<title>Node4&#45;&gt;Node7</title>
<g id="a_edge6_Node000004_Node000007"><a xlink:title=" ">
<path fill="none" stroke="#63b8ff" d="M715.57,-144.97C803.98,-135.8 976.5,-117.55 1122.85,-100 1125.75,-99.65 1128.69,-99.3 1131.66,-98.93"/>
<polygon fill="#63b8ff" stroke="#63b8ff" points="715.28,-141.48 705.69,-145.99 716,-148.44 715.28,-141.48"/>
</a>
</g>
</g>
<!-- Node11 -->
<g id="Node000011" class="node">
<title>Node11</title>
<g id="a_Node000011"><a xlink:href="HelpCommand_8hpp.html" target="_top" xlink:title=" ">
<polygon fill="white" stroke="#666666" points="574.1,-100 445.6,-100 445.6,-68 574.1,-68 574.1,-100"/>
<text text-anchor="start" x="453.6" y="-86.5" font-family="Helvetica,sans-Serif" font-size="10.00">src/bot_library/commands</text>
<text text-anchor="middle" x="509.85" y="-74.5" font-family="Helvetica,sans-Serif" font-size="10.00">/help/HelpCommand.hpp</text>
</a>
</g>
</g>
<!-- Node4&#45;&gt;Node11 -->
<g id="edge10_Node000004_Node000011" class="edge">
<title>Node4&#45;&gt;Node11</title>
<g id="a_edge10_Node000004_Node000011"><a xlink:title=" ">
<path fill="none" stroke="#63b8ff" d="M612.07,-130.89C590.31,-121.12 564.56,-109.56 544.35,-100.49"/>
<polygon fill="#63b8ff" stroke="#63b8ff" points="610.45,-134 621.01,-134.91 613.32,-127.62 610.45,-134"/>
</a>
</g>
</g>
<!-- Node13 -->
<g id="Node000013" class="node">
<title>Node13</title>
<g id="a_Node000013"><a xlink:href="Commands_8hpp.html" target="_top" xlink:title=" ">
<polygon fill="white" stroke="#666666" points="256.1,-100 127.6,-100 127.6,-68 256.1,-68 256.1,-100"/>
<text text-anchor="start" x="135.6" y="-86.5" font-family="Helvetica,sans-Serif" font-size="10.00">src/bot_library/commands</text>
<text text-anchor="middle" x="191.85" y="-74.5" font-family="Helvetica,sans-Serif" font-size="10.00">/include/Commands.hpp</text>
</a>
</g>
</g>
<!-- Node4&#45;&gt;Node13 -->
<g id="edge13_Node000004_Node000013" class="edge">
<title>Node4&#45;&gt;Node13</title>
<g id="a_edge13_Node000004_Node000013"><a xlink:title=" ">
<path fill="none" stroke="#63b8ff" d="M598.29,-144.74C521.5,-136.21 382.67,-119.74 264.85,-100 262.04,-99.53 259.18,-99.03 256.29,-98.51"/>
<polygon fill="#63b8ff" stroke="#63b8ff" points="597.79,-148.2 608.12,-145.82 598.56,-141.25 597.79,-148.2"/>
</a>
</g>
</g>
<!-- Node14 -->
<g id="Node000014" class="node">
<title>Node14</title>
<g id="a_Node000014"><a xlink:href="InitDatabase_8hpp.html" target="_top" xlink:title=" ">
<polygon fill="white" stroke="#666666" points="427.85,-100 273.85,-100 273.85,-68 427.85,-68 427.85,-100"/>
<text text-anchor="start" x="281.85" y="-86.5" font-family="Helvetica,sans-Serif" font-size="10.00">src/bot_library/commands</text>
<text text-anchor="middle" x="350.85" y="-74.5" font-family="Helvetica,sans-Serif" font-size="10.00">/init_database/InitDatabase.hpp</text>
</a>
</g>
</g>
<!-- Node4&#45;&gt;Node14 -->
<g id="edge16_Node000004_Node000014" class="edge">
<title>Node4&#45;&gt;Node14</title>
<g id="a_edge16_Node000004_Node000014"><a xlink:title=" ">
<path fill="none" stroke="#63b8ff" d="M598.42,-138.4C548.4,-127.61 476.2,-112.04 422.66,-100.49"/>
<polygon fill="#63b8ff" stroke="#63b8ff" points="597.38,-141.75 607.9,-140.44 598.86,-134.91 597.38,-141.75"/>
</a>
</g>
</g>
<!-- Node16 -->
<g id="Node000016" class="node">
<title>Node16</title>
<g id="a_Node000016"><a xlink:href="PongCommand_8hpp.html" target="_top" xlink:title=" ">
<polygon fill="white" stroke="#666666" points="721.48,-100 592.23,-100 592.23,-68 721.48,-68 721.48,-100"/>
<text text-anchor="start" x="600.23" y="-86.5" font-family="Helvetica,sans-Serif" font-size="10.00">src/bot_library/commands</text>
<text text-anchor="middle" x="656.85" y="-74.5" font-family="Helvetica,sans-Serif" font-size="10.00">/pong/PongCommand.hpp</text>
</a>
</g>
</g>
<!-- Node4&#45;&gt;Node16 -->
<g id="edge18_Node000004_Node000016" class="edge">
<title>Node4&#45;&gt;Node16</title>
<g id="a_edge18_Node000004_Node000016"><a xlink:title=" ">
<path fill="none" stroke="#63b8ff" d="M656.85,-124.31C656.85,-116.12 656.85,-107.38 656.85,-100.22"/>
<polygon fill="#63b8ff" stroke="#63b8ff" points="653.35,-124.18 656.85,-134.18 660.35,-124.18 653.35,-124.18"/>
</a>
</g>
</g>
<!-- Node18 -->
<g id="Node000018" class="node">
<title>Node18</title>
<g id="a_Node000018"><a xlink:href="ReactionRoles_8hpp.html" target="_top" xlink:title=" ">
<polygon fill="white" stroke="#666666" points="905.85,-100 739.85,-100 739.85,-68 905.85,-68 905.85,-100"/>
<text text-anchor="start" x="747.85" y="-86.5" font-family="Helvetica,sans-Serif" font-size="10.00">src/bot_library/commands</text>
<text text-anchor="middle" x="822.85" y="-74.5" font-family="Helvetica,sans-Serif" font-size="10.00">/reaction_roles/ReactionRoles.hpp</text>
</a>
</g>
</g>
<!-- Node4&#45;&gt;Node18 -->
<g id="edge21_Node000004_Node000018" class="edge">
<title>Node4&#45;&gt;Node18</title>
<g id="a_edge21_Node000004_Node000018"><a xlink:title=" ">
<path fill="none" stroke="#63b8ff" d="M706.42,-131.29C731.2,-121.44 760.76,-109.69 783.89,-100.49"/>
<polygon fill="#63b8ff" stroke="#63b8ff" points="705.18,-128.02 697.18,-134.97 707.76,-134.52 705.18,-128.02"/>
</a>
</g>
</g>
<!-- Node20 -->
<g id="Node000020" class="node">
<title>Node20</title>
<g id="a_Node000020"><a xlink:href="SetChannelCommand_8hpp.html" target="_top" xlink:title=" ">
<polygon fill="white" stroke="#666666" points="1113.48,-100 924.23,-100 924.23,-68 1113.48,-68 1113.48,-100"/>
<text text-anchor="start" x="932.23" y="-86.5" font-family="Helvetica,sans-Serif" font-size="10.00">src/bot_library/commands</text>
<text text-anchor="middle" x="1018.85" y="-74.5" font-family="Helvetica,sans-Serif" font-size="10.00">/set_channel/SetChannelCommand.hpp</text>
</a>
</g>
</g>
<!-- Node4&#45;&gt;Node20 -->
<g id="edge24_Node000004_Node000020" class="edge">
<title>Node4&#45;&gt;Node20</title>
<g id="a_edge24_Node000004_Node000020"><a xlink:title=" ">
<path fill="none" stroke="#63b8ff" d="M715.2,-140.36C774.44,-129.56 866.79,-112.72 934.09,-100.45"/>
<polygon fill="#63b8ff" stroke="#63b8ff" points="714.88,-136.86 705.67,-142.1 716.13,-143.75 714.88,-136.86"/>
</a>
</g>
</g>
<!-- Node8 -->
<g id="Node000008" class="node">
<title>Node8</title>
<g id="a_Node000008"><a xlink:href="Commands_8cpp.html" target="_top" xlink:title=" ">
<polygon fill="white" stroke="#666666" points="834.1,-32 705.6,-32 705.6,0 834.1,0 834.1,-32"/>
<text text-anchor="start" x="713.6" y="-18.5" font-family="Helvetica,sans-Serif" font-size="10.00">src/bot_library/commands</text>
<text text-anchor="middle" x="769.85" y="-6.5" font-family="Helvetica,sans-Serif" font-size="10.00">/Commands.cpp</text>
</a>
</g>
</g>
<!-- Node7&#45;&gt;Node8 -->
<g id="edge7_Node000007_Node000008" class="edge">
<title>Node7&#45;&gt;Node8</title>
<g id="a_edge7_Node000007_Node000008"><a xlink:title=" ">
<path fill="none" stroke="#63b8ff" d="M1120.57,-67.72C996.55,-51.91 963.11,-52.06 842.85,-32 840.04,-31.53 837.18,-31.03 834.29,-30.51"/>
<polygon fill="#63b8ff" stroke="#63b8ff" points="1119.78,-71.14 1130.14,-68.95 1120.67,-64.2 1119.78,-71.14"/>
</a>
</g>
</g>
<!-- Node7&#45;&gt;Node9 -->
<g id="edge8_Node000007_Node000009" class="edge">
<title>Node7&#45;&gt;Node9</title>
<g id="a_edge8_Node000007_Node000009"><a xlink:title=" ">
<path fill="none" stroke="#63b8ff" d="M1323.67,-65.19C1372.87,-54.98 1434.02,-42.29 1481.21,-32.49"/>
<polygon fill="#63b8ff" stroke="#63b8ff" points="1322.97,-61.76 1313.89,-67.22 1324.39,-68.61 1322.97,-61.76"/>
</a>
</g>
</g>
<!-- Node10 -->
<g id="Node000010" class="node">
<title>Node10</title>
<g id="a_Node000010"><a xlink:href="ChallengeRoleDTO_8cpp.html" target="_top" xlink:title=" ">
<polygon fill="white" stroke="#666666" points="1431.73,-32 1243.98,-32 1243.98,0 1431.73,0 1431.73,-32"/>
<text text-anchor="start" x="1251.98" y="-18.5" font-family="Helvetica,sans-Serif" font-size="10.00">src/bot_library/commands</text>
<text text-anchor="middle" x="1337.85" y="-6.5" font-family="Helvetica,sans-Serif" font-size="10.00">/challenge_role/ChallengeRoleDTO.cpp</text>
</a>
</g>
</g>
<!-- Node7&#45;&gt;Node10 -->
<g id="edge9_Node000007_Node000010" class="edge">
<title>Node7&#45;&gt;Node10</title>
<g id="a_edge9_Node000007_Node000010"><a xlink:title=" ">
<path fill="none" stroke="#63b8ff" d="M1270.8,-61.25C1285.11,-51.81 1301.54,-40.97 1314.55,-32.38"/>
<polygon fill="#63b8ff" stroke="#63b8ff" points="1268.98,-58.26 1262.56,-66.69 1272.83,-64.1 1268.98,-58.26"/>
</a>
</g>
</g>
<!-- Node11&#45;&gt;Node8 -->
<g id="edge11_Node000011_Node000008" class="edge">
<title>Node11&#45;&gt;Node8</title>
<g id="a_edge11_Node000011_Node000008"><a xlink:title=" ">
<path fill="none" stroke="#63b8ff" d="M581.81,-64.73C621.71,-54.6 670.81,-42.14 708.82,-32.49"/>
<polygon fill="#63b8ff" stroke="#63b8ff" points="581.11,-61.3 572.28,-67.15 582.83,-68.09 581.11,-61.3"/>
</a>
</g>
</g>
<!-- Node12 -->
<g id="Node000012" class="node">
<title>Node12</title>
<g id="a_Node000012"><a xlink:href="HelpCommand_8cpp.html" target="_top" xlink:title=" ">
<polygon fill="white" stroke="#666666" points="540.1,-32 411.6,-32 411.6,0 540.1,0 540.1,-32"/>
<text text-anchor="start" x="419.6" y="-18.5" font-family="Helvetica,sans-Serif" font-size="10.00">src/bot_library/commands</text>
<text text-anchor="middle" x="475.85" y="-6.5" font-family="Helvetica,sans-Serif" font-size="10.00">/help/HelpCommand.cpp</text>
</a>
</g>
</g>
<!-- Node11&#45;&gt;Node12 -->
<g id="edge12_Node000011_Node000012" class="edge">
<title>Node11&#45;&gt;Node12</title>
<g id="a_edge12_Node000011_Node000012"><a xlink:title=" ">
<path fill="none" stroke="#63b8ff" d="M496.84,-57.74C492.41,-49.14 487.59,-39.79 483.69,-32.22"/>
<polygon fill="#63b8ff" stroke="#63b8ff" points="493.58,-59.06 501.27,-66.35 499.8,-55.85 493.58,-59.06"/>
</a>
</g>
</g>
<!-- Node13&#45;&gt;Node5 -->
<g id="edge14_Node000013_Node000005" class="edge">
<title>Node13&#45;&gt;Node5</title>
<g id="a_edge14_Node000013_Node000005"><a xlink:title=" ">
<path fill="none" stroke="#63b8ff" d="M157.5,-61.41C138.7,-49.59 116.35,-35.54 101.9,-26.46"/>
<polygon fill="#63b8ff" stroke="#63b8ff" points="155.62,-64.36 165.95,-66.72 159.35,-58.44 155.62,-64.36"/>
</a>
</g>
</g>
<!-- Node13&#45;&gt;Node8 -->
<g id="edge15_Node000013_Node000008" class="edge">
<title>Node13&#45;&gt;Node8</title>
<g id="a_edge15_Node000013_Node000008"><a xlink:title=" ">
<path fill="none" stroke="#63b8ff" d="M267.49,-67.74C457.53,-41.26 509.78,-58.92 696.85,-32 699.67,-31.59 702.54,-31.15 705.44,-30.67"/>
<polygon fill="#63b8ff" stroke="#63b8ff" points="267.17,-64.25 257.76,-69.12 268.16,-71.18 267.17,-64.25"/>
</a>
</g>
</g>
<!-- Node15 -->
<g id="Node000015" class="node">
<title>Node15</title>
<g id="a_Node000015"><a xlink:href="InitDatabase_8cpp.html" target="_top" xlink:title=" ">
<polygon fill="white" stroke="#666666" points="393.85,-32 239.85,-32 239.85,0 393.85,0 393.85,-32"/>
<text text-anchor="start" x="247.85" y="-18.5" font-family="Helvetica,sans-Serif" font-size="10.00">src/bot_library/commands</text>
<text text-anchor="middle" x="316.85" y="-6.5" font-family="Helvetica,sans-Serif" font-size="10.00">/init_database/InitDatabase.cpp</text>
</a>
</g>
</g>
<!-- Node14&#45;&gt;Node15 -->
<g id="edge17_Node000014_Node000015" class="edge">
<title>Node14&#45;&gt;Node15</title>
<g id="a_edge17_Node000014_Node000015"><a xlink:title=" ">
<path fill="none" stroke="#63b8ff" d="M337.84,-57.74C333.41,-49.14 328.59,-39.79 324.69,-32.22"/>
<polygon fill="#63b8ff" stroke="#63b8ff" points="334.58,-59.06 342.27,-66.35 340.8,-55.85 334.58,-59.06"/>
</a>
</g>
</g>
<!-- Node16&#45;&gt;Node8 -->
<g id="edge19_Node000016_Node000008" class="edge">
<title>Node16&#45;&gt;Node8</title>
<g id="a_edge19_Node000016_Node000008"><a xlink:title=" ">
<path fill="none" stroke="#63b8ff" d="M693.15,-61.8C709.54,-52.23 728.54,-41.13 743.52,-32.38"/>
<polygon fill="#63b8ff" stroke="#63b8ff" points="691.52,-58.7 684.65,-66.76 695.05,-64.74 691.52,-58.7"/>
</a>
</g>
</g>
<!-- Node17 -->
<g id="Node000017" class="node">
<title>Node17</title>
<g id="a_Node000017"><a xlink:href="PongCommand_8cpp.html" target="_top" xlink:title=" ">
<polygon fill="white" stroke="#666666" points="687.48,-32 558.23,-32 558.23,0 687.48,0 687.48,-32"/>
<text text-anchor="start" x="566.23" y="-18.5" font-family="Helvetica,sans-Serif" font-size="10.00">src/bot_library/commands</text>
<text text-anchor="middle" x="622.85" y="-6.5" font-family="Helvetica,sans-Serif" font-size="10.00">/pong/PongCommand.cpp</text>
</a>
</g>
</g>
<!-- Node16&#45;&gt;Node17 -->
<g id="edge20_Node000016_Node000017" class="edge">
<title>Node16&#45;&gt;Node17</title>
<g id="a_edge20_Node000016_Node000017"><a xlink:title=" ">
<path fill="none" stroke="#63b8ff" d="M643.84,-57.74C639.41,-49.14 634.59,-39.79 630.69,-32.22"/>
<polygon fill="#63b8ff" stroke="#63b8ff" points="640.58,-59.06 648.27,-66.35 646.8,-55.85 640.58,-59.06"/>
</a>
</g>
</g>
<!-- Node18&#45;&gt;Node8 -->
<g id="edge22_Node000018_Node000008" class="edge">
<title>Node18&#45;&gt;Node8</title>
<g id="a_edge22_Node000018_Node000008"><a xlink:title=" ">
<path fill="none" stroke="#63b8ff" d="M803.47,-58.87C796.32,-49.96 788.42,-40.12 782.08,-32.22"/>
<polygon fill="#63b8ff" stroke="#63b8ff" points="800.62,-60.91 809.61,-66.51 806.08,-56.52 800.62,-60.91"/>
</a>
</g>
</g>
<!-- Node19 -->
<g id="Node000019" class="node">
<title>Node19</title>
<g id="a_Node000019"><a xlink:href="ReactionRoles_8cpp.html" target="_top" xlink:title=" ">
<polygon fill="white" stroke="#666666" points="1017.85,-32 851.85,-32 851.85,0 1017.85,0 1017.85,-32"/>
<text text-anchor="start" x="859.85" y="-18.5" font-family="Helvetica,sans-Serif" font-size="10.00">src/bot_library/commands</text>
<text text-anchor="middle" x="934.85" y="-6.5" font-family="Helvetica,sans-Serif" font-size="10.00">/reaction_roles/ReactionRoles.cpp</text>
</a>
</g>
</g>
<!-- Node18&#45;&gt;Node19 -->
<g id="edge23_Node000018_Node000019" class="edge">
<title>Node18&#45;&gt;Node19</title>
<g id="a_edge23_Node000018_Node000019"><a xlink:title=" ">
<path fill="none" stroke="#63b8ff" d="M858.83,-61.8C875.07,-52.23 893.9,-41.13 908.76,-32.38"/>
<polygon fill="#63b8ff" stroke="#63b8ff" points="857.25,-58.67 850.41,-66.76 860.81,-64.7 857.25,-58.67"/>
</a>
</g>
</g>
<!-- Node20&#45;&gt;Node8 -->
<g id="edge25_Node000020_Node000008" class="edge">
<title>Node20&#45;&gt;Node8</title>
<g id="a_edge25_Node000020_Node000008"><a xlink:title=" ">
<path fill="none" stroke="#63b8ff" d="M949.45,-64.6C911.32,-54.5 864.55,-42.1 828.3,-32.49"/>
<polygon fill="#63b8ff" stroke="#63b8ff" points="948.45,-67.96 959.01,-67.14 950.24,-61.19 948.45,-67.96"/>
</a>
</g>
</g>
<!-- Node20&#45;&gt;Node21 -->
<g id="edge26_Node000020_Node000021" class="edge">
<title>Node20&#45;&gt;Node21</title>
<g id="a_edge26_Node000020_Node000021"><a xlink:title=" ">
<path fill="none" stroke="#63b8ff" d="M1054.83,-61.8C1071.07,-52.23 1089.9,-41.13 1104.76,-32.38"/>
<polygon fill="#63b8ff" stroke="#63b8ff" points="1053.25,-58.67 1046.41,-66.76 1056.81,-64.7 1053.25,-58.67"/>
</a>
</g>
</g>
</g>
</svg>
