<?xml version="1.0" encoding="UTF-8" standalone="no"?>
<!DOCTYPE svg PUBLIC "-//W3C//DTD SVG 1.1//EN"
 "http://www.w3.org/Graphics/SVG/1.1/DTD/svg11.dtd">
<!-- Generated by graphviz version 9.0.0 (0)
 -->
<!-- Title: src/bot_library/bot/core/interfaces/include/IFormCommand.hpp Pages: 1 -->
<svg width="1672pt" height="324pt"
 viewBox="0.00 0.00 1671.88 324.00" xmlns="http://www.w3.org/2000/svg" xmlns:xlink="http://www.w3.org/1999/xlink">
<g id="graph0" class="graph" transform="scale(1 1) rotate(0) translate(4 320)">
<title>src/bot_library/bot/core/interfaces/include/IFormCommand.hpp</title>
<!-- Node1 -->
<g id="Node000001" class="node">
<title>Node1</title>
<g id="a_Node000001"><a xlink:title=" ">
<polygon fill="#999999" stroke="#666666" points="1318.62,-316 1201.38,-316 1201.38,-272 1318.62,-272 1318.62,-316"/>
<text text-anchor="start" x="1209.38" y="-302.5" font-family="Helvetica,sans-Serif" font-size="10.00">src/bot_library/bot</text>
<text text-anchor="start" x="1209.38" y="-290.5" font-family="Helvetica,sans-Serif" font-size="10.00">/core/interfaces/include</text>
<text text-anchor="middle" x="1260" y="-278.5" font-family="Helvetica,sans-Serif" font-size="10.00">/IFormCommand.hpp</text>
</a>
</g>
</g>
<!-- Node2 -->
<g id="Node000002" class="node">
<title>Node2</title>
<g id="a_Node000002"><a xlink:href="Core_8hpp.html" target="_top" xlink:title=" ">
<polygon fill="white" stroke="#666666" points="1317.12,-236 1202.88,-236 1202.88,-204 1317.12,-204 1317.12,-236"/>
<text text-anchor="start" x="1210.88" y="-222.5" font-family="Helvetica,sans-Serif" font-size="10.00">src/bot_library/bot</text>
<text text-anchor="middle" x="1260" y="-210.5" font-family="Helvetica,sans-Serif" font-size="10.00">/core/include/Core.hpp</text>
</a>
</g>
</g>
<!-- Node1&#45;&gt;Node2 -->
<g id="edge1_Node000001_Node000002" class="edge">
<title>Node1&#45;&gt;Node2</title>
<g id="a_edge1_Node000001_Node000002"><a xlink:title=" ">
<path fill="none" stroke="#63b8ff" d="M1260,-260.53C1260,-252.02 1260,-243.24 1260,-236.13"/>
<polygon fill="#63b8ff" stroke="#63b8ff" points="1256.5,-260.27 1260,-270.27 1263.5,-260.27 1256.5,-260.27"/>
</a>
</g>
</g>
<!-- Node4 -->
<g id="Node000004" class="node">
<title>Node4</title>
<g id="a_Node000004"><a xlink:href="Bot_8hpp.html" target="_top" xlink:title=" ">
<polygon fill="white" stroke="#666666" points="654,-168 560,-168 560,-136 654,-136 654,-168"/>
<text text-anchor="start" x="568" y="-154.5" font-family="Helvetica,sans-Serif" font-size="10.00">src/bot_library/bot</text>
<text text-anchor="middle" x="607" y="-142.5" font-family="Helvetica,sans-Serif" font-size="10.00">/include/Bot.hpp</text>
</a>
</g>
</g>
<!-- Node1&#45;&gt;Node4 -->
<g id="edge28_Node000001_Node000004" class="edge">
<title>Node1&#45;&gt;Node4</title>
<g id="a_edge28_Node000001_Node000004"><a xlink:title=" ">
<path fill="none" stroke="#63b8ff" d="M1190,-277.99C1056.29,-249.33 767.8,-187.47 654.27,-163.14"/>
<polygon fill="#63b8ff" stroke="#63b8ff" points="1188.91,-281.34 1199.42,-280.01 1190.37,-274.49 1188.91,-281.34"/>
</a>
</g>
</g>
<!-- Node9 -->
<g id="Node000009" class="node">
<title>Node9</title>
<g id="a_Node000009"><a xlink:href="ChallengeRoleCommand_8cpp.html" target="_top" xlink:title=" ">
<polygon fill="white" stroke="#666666" points="1663.88,-32 1452.12,-32 1452.12,0 1663.88,0 1663.88,-32"/>
<text text-anchor="start" x="1460.12" y="-18.5" font-family="Helvetica,sans-Serif" font-size="10.00">src/bot_library/commands</text>
<text text-anchor="middle" x="1558" y="-6.5" font-family="Helvetica,sans-Serif" font-size="10.00">/challenge_role/ChallengeRoleCommand.cpp</text>
</a>
</g>
</g>
<!-- Node1&#45;&gt;Node9 -->
<g id="edge29_Node000001_Node000009" class="edge">
<title>Node1&#45;&gt;Node9</title>
<g id="a_edge29_Node000001_Node000009"><a xlink:title=" ">
<path fill="none" stroke="#63b8ff" d="M1330.12,-282.54C1399.14,-268.52 1502.58,-236.89 1562,-168 1591.44,-133.86 1587.75,-112.23 1579,-68 1576.51,-55.41 1570.87,-42.03 1566.07,-32.13"/>
<polygon fill="#63b8ff" stroke="#63b8ff" points="1329.56,-279.08 1320.41,-284.43 1330.9,-285.95 1329.56,-279.08"/>
</a>
</g>
</g>
<!-- Node3 -->
<g id="Node000003" class="node">
<title>Node3</title>
<g id="a_Node000003"><a xlink:href="Core_8cpp.html" target="_top" xlink:title=" ">
<polygon fill="white" stroke="#666666" points="1182,-168 1088,-168 1088,-136 1182,-136 1182,-168"/>
<text text-anchor="start" x="1096" y="-154.5" font-family="Helvetica,sans-Serif" font-size="10.00">src/bot_library/bot</text>
<text text-anchor="middle" x="1135" y="-142.5" font-family="Helvetica,sans-Serif" font-size="10.00">/core/Core.cpp</text>
</a>
</g>
</g>
<!-- Node2&#45;&gt;Node3 -->
<g id="edge2_Node000002_Node000003" class="edge">
<title>Node2&#45;&gt;Node3</title>
<g id="a_edge2_Node000002_Node000003"><a xlink:title=" ">
<path fill="none" stroke="#63b8ff" d="M1220.61,-198.2C1202.31,-188.54 1180.94,-177.26 1164.12,-168.38"/>
<polygon fill="#63b8ff" stroke="#63b8ff" points="1218.88,-201.25 1229.35,-202.82 1222.15,-195.05 1218.88,-201.25"/>
</a>
</g>
</g>
<!-- Node2&#45;&gt;Node4 -->
<g id="edge3_Node000002_Node000004" class="edge">
<title>Node2&#45;&gt;Node4</title>
<g id="a_edge3_Node000002_Node000004"><a xlink:title=" ">
<path fill="none" stroke="#63b8ff" d="M1191.39,-212.07C1058.27,-198.61 768.01,-169.27 654.16,-157.77"/>
<polygon fill="#63b8ff" stroke="#63b8ff" points="1190.82,-215.53 1201.12,-213.05 1191.52,-208.56 1190.82,-215.53"/>
</a>
</g>
</g>
<!-- Node2&#45;&gt;Node9 -->
<g id="edge24_Node000002_Node000009" class="edge">
<title>Node2&#45;&gt;Node9</title>
<g id="a_edge24_Node000002_Node000009"><a xlink:title=" ">
<path fill="none" stroke="#63b8ff" d="M1328.95,-215.52C1402.1,-210.3 1510.94,-197.67 1539,-168 1574.4,-130.57 1566.9,-62.55 1561.31,-32.26"/>
<polygon fill="#63b8ff" stroke="#63b8ff" points="1328.79,-212.02 1319.05,-216.19 1329.26,-219.01 1328.79,-212.02"/>
</a>
</g>
</g>
<!-- Node19 -->
<g id="Node000019" class="node">
<title>Node19</title>
<g id="a_Node000019"><a xlink:href="SetChannelCommand_8cpp.html" target="_top" xlink:title=" ">
<polygon fill="white" stroke="#666666" points="1304.62,-32 1115.38,-32 1115.38,0 1304.62,0 1304.62,-32"/>
<text text-anchor="start" x="1123.38" y="-18.5" font-family="Helvetica,sans-Serif" font-size="10.00">src/bot_library/commands</text>
<text text-anchor="middle" x="1210" y="-6.5" font-family="Helvetica,sans-Serif" font-size="10.00">/set_channel/SetChannelCommand.cpp</text>
</a>
</g>
</g>
<!-- Node2&#45;&gt;Node19 -->
<g id="edge27_Node000002_Node000019" class="edge">
<title>Node2&#45;&gt;Node19</title>
<g id="a_edge27_Node000002_Node000019"><a xlink:title=" ">
<path fill="none" stroke="#63b8ff" d="M1242.76,-194.24C1237.9,-186.2 1233.1,-177.01 1230,-168 1213.64,-120.49 1210.55,-60.33 1210.04,-32.46"/>
<polygon fill="#63b8ff" stroke="#63b8ff" points="1239.66,-195.9 1248,-202.44 1245.56,-192.13 1239.66,-195.9"/>
</a>
</g>
</g>
<!-- Node20 -->
<g id="Node000020" class="node">
<title>Node20</title>
<g id="a_Node000020"><a xlink:href="resource__man_8hpp.html" target="_top" xlink:title=" ">
<polygon fill="white" stroke="#666666" points="1383.5,-168 1238.5,-168 1238.5,-136 1383.5,-136 1383.5,-168"/>
<text text-anchor="start" x="1246.5" y="-154.5" font-family="Helvetica,sans-Serif" font-size="10.00">src/bot_library/commands</text>
<text text-anchor="middle" x="1311" y="-142.5" font-family="Helvetica,sans-Serif" font-size="10.00">/resources/resource_man.hpp</text>
</a>
</g>
</g>
<!-- Node2&#45;&gt;Node20 -->
<g id="edge25_Node000002_Node000020" class="edge">
<title>Node2&#45;&gt;Node20</title>
<g id="a_edge25_Node000002_Node000020"><a xlink:title=" ">
<path fill="none" stroke="#63b8ff" d="M1278.86,-194.59C1285.69,-185.75 1293.2,-176.04 1299.24,-168.22"/>
<polygon fill="#63b8ff" stroke="#63b8ff" points="1276.1,-192.44 1272.75,-202.49 1281.64,-196.72 1276.1,-192.44"/>
</a>
</g>
</g>
<!-- Node21 -->
<g id="Node000021" class="node">
<title>Node21</title>
<g id="a_Node000021"><a xlink:href="roles_8hpp.html" target="_top" xlink:title=" ">
<polygon fill="white" stroke="#666666" points="1530.25,-168 1401.75,-168 1401.75,-136 1530.25,-136 1530.25,-168"/>
<text text-anchor="start" x="1409.75" y="-154.5" font-family="Helvetica,sans-Serif" font-size="10.00">src/bot_library/commands</text>
<text text-anchor="middle" x="1466" y="-142.5" font-family="Helvetica,sans-Serif" font-size="10.00">/roles/roles.hpp</text>
</a>
</g>
</g>
<!-- Node2&#45;&gt;Node21 -->
<g id="edge26_Node000002_Node000021" class="edge">
<title>Node2&#45;&gt;Node21</title>
<g id="a_edge26_Node000002_Node000021"><a xlink:title=" ">
<path fill="none" stroke="#63b8ff" d="M1319.05,-200.08C1350.29,-190.07 1388.17,-177.94 1417.65,-168.49"/>
<polygon fill="#63b8ff" stroke="#63b8ff" points="1318.19,-196.68 1309.74,-203.06 1320.33,-203.35 1318.19,-196.68"/>
</a>
</g>
</g>
<!-- Node5 -->
<g id="Node000005" class="node">
<title>Node5</title>
<g id="a_Node000005"><a xlink:href="BotLibrary_8cpp.html" target="_top" xlink:title=" ">
<polygon fill="white" stroke="#666666" points="382.38,-26 239.62,-26 239.62,-6 382.38,-6 382.38,-26"/>
<text text-anchor="middle" x="311" y="-12.5" font-family="Helvetica,sans-Serif" font-size="10.00">src/bot_library/BotLibrary.cpp</text>
</a>
</g>
</g>
<!-- Node4&#45;&gt;Node5 -->
<g id="edge4_Node000004_Node000005" class="edge">
<title>Node4&#45;&gt;Node5</title>
<g id="a_edge4_Node000004_Node000005"><a xlink:title=" ">
<path fill="none" stroke="#63b8ff" d="M548.6,-147.87C441.76,-141.55 223.62,-125.64 201,-100 172.75,-67.98 237.37,-40.26 279.09,-26.41"/>
<polygon fill="#63b8ff" stroke="#63b8ff" points="548.13,-151.35 558.32,-148.44 548.54,-144.36 548.13,-151.35"/>
</a>
</g>
</g>
<!-- Node6 -->
<g id="Node000006" class="node">
<title>Node6</title>
<g id="a_Node000006"><a xlink:href="Bot_8cpp.html" target="_top" xlink:title=" ">
<polygon fill="white" stroke="#666666" points="304,-100 210,-100 210,-68 304,-68 304,-100"/>
<text text-anchor="start" x="218" y="-86.5" font-family="Helvetica,sans-Serif" font-size="10.00">src/bot_library/bot</text>
<text text-anchor="middle" x="257" y="-74.5" font-family="Helvetica,sans-Serif" font-size="10.00">/Bot.cpp</text>
</a>
</g>
</g>
<!-- Node4&#45;&gt;Node6 -->
<g id="edge5_Node000004_Node000006" class="edge">
<title>Node4&#45;&gt;Node6</title>
<g id="a_edge5_Node000004_Node000006"><a xlink:title=" ">
<path fill="none" stroke="#63b8ff" d="M548.59,-142.45C489.04,-133.37 394.16,-117.87 313,-100 310.15,-99.37 307.23,-98.69 304.28,-97.99"/>
<polygon fill="#63b8ff" stroke="#63b8ff" points="547.74,-145.86 558.15,-143.9 548.78,-138.94 547.74,-145.86"/>
</a>
</g>
</g>
<!-- Node7 -->
<g id="Node000007" class="node">
<title>Node7</title>
<g id="a_Node000007"><a xlink:href="ChallengeRoleCommand_8hpp.html" target="_top" xlink:title=" ">
<polygon fill="white" stroke="#666666" points="1181.88,-100 970.12,-100 970.12,-68 1181.88,-68 1181.88,-100"/>
<text text-anchor="start" x="978.12" y="-86.5" font-family="Helvetica,sans-Serif" font-size="10.00">src/bot_library/commands</text>
<text text-anchor="middle" x="1076" y="-74.5" font-family="Helvetica,sans-Serif" font-size="10.00">/challenge_role/ChallengeRoleCommand.hpp</text>
</a>
</g>
</g>
<!-- Node4&#45;&gt;Node7 -->
<g id="edge6_Node000004_Node000007" class="edge">
<title>Node4&#45;&gt;Node7</title>
<g id="a_edge6_Node000004_Node000007"><a xlink:title=" ">
<path fill="none" stroke="#63b8ff" d="M665.34,-142.79C741.28,-132.1 875.4,-113.23 969.66,-99.96"/>
<polygon fill="#63b8ff" stroke="#63b8ff" points="665.03,-139.3 655.62,-144.16 666.01,-146.23 665.03,-139.3"/>
</a>
</g>
</g>
<!-- Node11 -->
<g id="Node000011" class="node">
<title>Node11</title>
<g id="a_Node000011"><a xlink:href="HelpCommand_8hpp.html" target="_top" xlink:title=" ">
<polygon fill="white" stroke="#666666" points="744.25,-100 615.75,-100 615.75,-68 744.25,-68 744.25,-100"/>
<text text-anchor="start" x="623.75" y="-86.5" font-family="Helvetica,sans-Serif" font-size="10.00">src/bot_library/commands</text>
<text text-anchor="middle" x="680" y="-74.5" font-family="Helvetica,sans-Serif" font-size="10.00">/help/HelpCommand.hpp</text>
</a>
</g>
</g>
<!-- Node4&#45;&gt;Node11 -->
<g id="edge10_Node000004_Node000011" class="edge">
<title>Node4&#45;&gt;Node11</title>
<g id="a_edge10_Node000004_Node000011"><a xlink:title=" ">
<path fill="none" stroke="#63b8ff" d="M632.39,-128.05C642.48,-118.92 653.82,-108.67 662.91,-100.45"/>
<polygon fill="#63b8ff" stroke="#63b8ff" points="630.12,-125.37 625.05,-134.68 634.82,-130.57 630.12,-125.37"/>
</a>
</g>
</g>
<!-- Node13 -->
<g id="Node000013" class="node">
<title>Node13</title>
<g id="a_Node000013"><a xlink:href="Commands_8hpp.html" target="_top" xlink:title=" ">
<polygon fill="white" stroke="#666666" points="450.25,-100 321.75,-100 321.75,-68 450.25,-68 450.25,-100"/>
<text text-anchor="start" x="329.75" y="-86.5" font-family="Helvetica,sans-Serif" font-size="10.00">src/bot_library/commands</text>
<text text-anchor="middle" x="386" y="-74.5" font-family="Helvetica,sans-Serif" font-size="10.00">/include/Commands.hpp</text>
</a>
</g>
</g>
<!-- Node4&#45;&gt;Node13 -->
<g id="edge13_Node000004_Node000013" class="edge">
<title>Node4&#45;&gt;Node13</title>
<g id="a_edge13_Node000004_Node000013"><a xlink:title=" ">
<path fill="none" stroke="#63b8ff" d="M548.72,-133.59C514.2,-123.28 470.85,-110.34 437.57,-100.4"/>
<polygon fill="#63b8ff" stroke="#63b8ff" points="547.56,-136.9 558.14,-136.41 549.56,-130.19 547.56,-136.9"/>
</a>
</g>
</g>
<!-- Node14 -->
<g id="Node000014" class="node">
<title>Node14</title>
<g id="a_Node000014"><a xlink:href="InitDatabase_8hpp.html" target="_top" xlink:title=" ">
<polygon fill="white" stroke="#666666" points="154,-100 0,-100 0,-68 154,-68 154,-100"/>
<text text-anchor="start" x="8" y="-86.5" font-family="Helvetica,sans-Serif" font-size="10.00">src/bot_library/commands</text>
<text text-anchor="middle" x="77" y="-74.5" font-family="Helvetica,sans-Serif" font-size="10.00">/init_database/InitDatabase.hpp</text>
</a>
</g>
</g>
<!-- Node4&#45;&gt;Node14 -->
<g id="edge16_Node000004_Node000014" class="edge">
<title>Node4&#45;&gt;Node14</title>
<g id="a_edge16_Node000004_Node000014"><a xlink:title=" ">
<path fill="none" stroke="#63b8ff" d="M548.43,-145.09C464.16,-136.39 303.89,-119.08 168,-100 163.56,-99.38 159,-98.71 154.41,-98.02"/>
<polygon fill="#63b8ff" stroke="#63b8ff" points="547.99,-148.57 558.3,-146.11 548.71,-141.6 547.99,-148.57"/>
</a>
</g>
</g>
<!-- Node16 -->
<g id="Node000016" class="node">
<title>Node16</title>
<g id="a_Node000016"><a xlink:href="PongCommand_8hpp.html" target="_top" xlink:title=" ">
<polygon fill="white" stroke="#666666" points="597.62,-100 468.38,-100 468.38,-68 597.62,-68 597.62,-100"/>
<text text-anchor="start" x="476.38" y="-86.5" font-family="Helvetica,sans-Serif" font-size="10.00">src/bot_library/commands</text>
<text text-anchor="middle" x="533" y="-74.5" font-family="Helvetica,sans-Serif" font-size="10.00">/pong/PongCommand.hpp</text>
</a>
</g>
</g>
<!-- Node4&#45;&gt;Node16 -->
<g id="edge18_Node000004_Node000016" class="edge">
<title>Node4&#45;&gt;Node16</title>
<g id="a_edge18_Node000004_Node000016"><a xlink:title=" ">
<path fill="none" stroke="#63b8ff" d="M581.26,-128.05C571.03,-118.92 559.53,-108.67 550.33,-100.45"/>
<polygon fill="#63b8ff" stroke="#63b8ff" points="578.91,-130.64 588.71,-134.68 583.57,-125.42 578.91,-130.64"/>
</a>
</g>
</g>
<!-- Node18 -->
<g id="Node000018" class="node">
<title>Node18</title>
<g id="a_Node000018"><a xlink:href="SetChannelCommand_8hpp.html" target="_top" xlink:title=" ">
<polygon fill="white" stroke="#666666" points="951.62,-100 762.38,-100 762.38,-68 951.62,-68 951.62,-100"/>
<text text-anchor="start" x="770.38" y="-86.5" font-family="Helvetica,sans-Serif" font-size="10.00">src/bot_library/commands</text>
<text text-anchor="middle" x="857" y="-74.5" font-family="Helvetica,sans-Serif" font-size="10.00">/set_channel/SetChannelCommand.hpp</text>
</a>
</g>
</g>
<!-- Node4&#45;&gt;Node18 -->
<g id="edge21_Node000004_Node000018" class="edge">
<title>Node4&#45;&gt;Node18</title>
<g id="a_edge21_Node000004_Node000018"><a xlink:title=" ">
<path fill="none" stroke="#63b8ff" d="M665.25,-135.62C705.31,-125.05 758.3,-111.06 798.43,-100.46"/>
<polygon fill="#63b8ff" stroke="#63b8ff" points="664.56,-132.19 655.78,-138.12 666.34,-138.95 664.56,-132.19"/>
</a>
</g>
</g>
<!-- Node8 -->
<g id="Node000008" class="node">
<title>Node8</title>
<g id="a_Node000008"><a xlink:href="Commands_8cpp.html" target="_top" xlink:title=" ">
<polygon fill="white" stroke="#666666" points="744.25,-32 615.75,-32 615.75,0 744.25,0 744.25,-32"/>
<text text-anchor="start" x="623.75" y="-18.5" font-family="Helvetica,sans-Serif" font-size="10.00">src/bot_library/commands</text>
<text text-anchor="middle" x="680" y="-6.5" font-family="Helvetica,sans-Serif" font-size="10.00">/Commands.cpp</text>
</a>
</g>
</g>
<!-- Node7&#45;&gt;Node8 -->
<g id="edge7_Node000007_Node000008" class="edge">
<title>Node7&#45;&gt;Node8</title>
<g id="a_edge7_Node000007_Node000008"><a xlink:title=" ">
<path fill="none" stroke="#63b8ff" d="M959.77,-65.82C898.45,-56.45 822.04,-44.28 754,-32 750.9,-31.44 747.74,-30.86 744.54,-30.25"/>
<polygon fill="#63b8ff" stroke="#63b8ff" points="959.12,-69.26 969.54,-67.31 960.18,-62.34 959.12,-69.26"/>
</a>
</g>
</g>
<!-- Node7&#45;&gt;Node9 -->
<g id="edge8_Node000007_Node000009" class="edge">
<title>Node7&#45;&gt;Node9</title>
<g id="a_edge8_Node000007_Node000009"><a xlink:title=" ">
<path fill="none" stroke="#63b8ff" d="M1193.34,-66.93C1272.26,-56.13 1375.44,-42 1451.9,-31.53"/>
<polygon fill="#63b8ff" stroke="#63b8ff" points="1193.31,-63.4 1183.87,-68.23 1194.26,-70.34 1193.31,-63.4"/>
</a>
</g>
</g>
<!-- Node10 -->
<g id="Node000010" class="node">
<title>Node10</title>
<g id="a_Node000010"><a xlink:href="ChallengeRoleDTO_8cpp.html" target="_top" xlink:title=" ">
<polygon fill="white" stroke="#666666" points="1096.88,-32 909.12,-32 909.12,0 1096.88,0 1096.88,-32"/>
<text text-anchor="start" x="917.12" y="-18.5" font-family="Helvetica,sans-Serif" font-size="10.00">src/bot_library/commands</text>
<text text-anchor="middle" x="1003" y="-6.5" font-family="Helvetica,sans-Serif" font-size="10.00">/challenge_role/ChallengeRoleDTO.cpp</text>
</a>
</g>
</g>
<!-- Node7&#45;&gt;Node10 -->
<g id="edge9_Node000007_Node000010" class="edge">
<title>Node7&#45;&gt;Node10</title>
<g id="a_edge9_Node000007_Node000010"><a xlink:title=" ">
<path fill="none" stroke="#63b8ff" d="M1050.61,-60.05C1040.52,-50.92 1029.18,-40.67 1020.09,-32.45"/>
<polygon fill="#63b8ff" stroke="#63b8ff" points="1048.18,-62.57 1057.95,-66.68 1052.88,-57.37 1048.18,-62.57"/>
</a>
</g>
</g>
<!-- Node11&#45;&gt;Node8 -->
<g id="edge11_Node000011_Node000008" class="edge">
<title>Node11&#45;&gt;Node8</title>
<g id="a_edge11_Node000011_Node000008"><a xlink:title=" ">
<path fill="none" stroke="#63b8ff" d="M680,-56.31C680,-48.12 680,-39.38 680,-32.22"/>
<polygon fill="#63b8ff" stroke="#63b8ff" points="676.5,-56.18 680,-66.18 683.5,-56.18 676.5,-56.18"/>
</a>
</g>
</g>
<!-- Node12 -->
<g id="Node000012" class="node">
<title>Node12</title>
<g id="a_Node000012"><a xlink:href="HelpCommand_8cpp.html" target="_top" xlink:title=" ">
<polygon fill="white" stroke="#666666" points="891.25,-32 762.75,-32 762.75,0 891.25,0 891.25,-32"/>
<text text-anchor="start" x="770.75" y="-18.5" font-family="Helvetica,sans-Serif" font-size="10.00">src/bot_library/commands</text>
<text text-anchor="middle" x="827" y="-6.5" font-family="Helvetica,sans-Serif" font-size="10.00">/help/HelpCommand.cpp</text>
</a>
</g>
</g>
<!-- Node11&#45;&gt;Node12 -->
<g id="edge12_Node000011_Node000012" class="edge">
<title>Node11&#45;&gt;Node12</title>
<g id="a_edge12_Node000011_Node000012"><a xlink:title=" ">
<path fill="none" stroke="#63b8ff" d="M724.79,-62.89C746.54,-53.12 772.29,-41.56 792.5,-32.49"/>
<polygon fill="#63b8ff" stroke="#63b8ff" points="723.53,-59.62 715.85,-66.91 726.4,-66 723.53,-59.62"/>
</a>
</g>
</g>
<!-- Node13&#45;&gt;Node5 -->
<g id="edge14_Node000013_Node000005" class="edge">
<title>Node13&#45;&gt;Node5</title>
<g id="a_edge14_Node000013_Node000005"><a xlink:title=" ">
<path fill="none" stroke="#63b8ff" d="M360.29,-60.38C347.04,-48.72 331.61,-35.13 321.59,-26.32"/>
<polygon fill="#63b8ff" stroke="#63b8ff" points="357.65,-62.71 367.47,-66.69 362.27,-57.46 357.65,-62.71"/>
</a>
</g>
</g>
<!-- Node13&#45;&gt;Node8 -->
<g id="edge15_Node000013_Node000008" class="edge">
<title>Node13&#45;&gt;Node8</title>
<g id="a_edge15_Node000013_Node000008"><a xlink:title=" ">
<path fill="none" stroke="#63b8ff" d="M461.7,-66.01C509.29,-55.32 570.05,-41.68 615.38,-31.51"/>
<polygon fill="#63b8ff" stroke="#63b8ff" points="460.99,-62.58 452,-68.18 462.52,-69.41 460.99,-62.58"/>
</a>
</g>
</g>
<!-- Node15 -->
<g id="Node000015" class="node">
<title>Node15</title>
<g id="a_Node000015"><a xlink:href="InitDatabase_8cpp.html" target="_top" xlink:title=" ">
<polygon fill="white" stroke="#666666" points="154,-32 0,-32 0,0 154,0 154,-32"/>
<text text-anchor="start" x="8" y="-18.5" font-family="Helvetica,sans-Serif" font-size="10.00">src/bot_library/commands</text>
<text text-anchor="middle" x="77" y="-6.5" font-family="Helvetica,sans-Serif" font-size="10.00">/init_database/InitDatabase.cpp</text>
</a>
</g>
</g>
<!-- Node14&#45;&gt;Node15 -->
<g id="edge17_Node000014_Node000015" class="edge">
<title>Node14&#45;&gt;Node15</title>
<g id="a_edge17_Node000014_Node000015"><a xlink:title=" ">
<path fill="none" stroke="#63b8ff" d="M77,-56.31C77,-48.12 77,-39.38 77,-32.22"/>
<polygon fill="#63b8ff" stroke="#63b8ff" points="73.5,-56.18 77,-66.18 80.5,-56.18 73.5,-56.18"/>
</a>
</g>
</g>
<!-- Node16&#45;&gt;Node8 -->
<g id="edge19_Node000016_Node000008" class="edge">
<title>Node16&#45;&gt;Node8</title>
<g id="a_edge19_Node000016_Node000008"><a xlink:title=" ">
<path fill="none" stroke="#63b8ff" d="M577.79,-62.89C599.54,-53.12 625.29,-41.56 645.5,-32.49"/>
<polygon fill="#63b8ff" stroke="#63b8ff" points="576.53,-59.62 568.85,-66.91 579.4,-66 576.53,-59.62"/>
</a>
</g>
</g>
<!-- Node17 -->
<g id="Node000017" class="node">
<title>Node17</title>
<g id="a_Node000017"><a xlink:href="PongCommand_8cpp.html" target="_top" xlink:title=" ">
<polygon fill="white" stroke="#666666" points="597.62,-32 468.38,-32 468.38,0 597.62,0 597.62,-32"/>
<text text-anchor="start" x="476.38" y="-18.5" font-family="Helvetica,sans-Serif" font-size="10.00">src/bot_library/commands</text>
<text text-anchor="middle" x="533" y="-6.5" font-family="Helvetica,sans-Serif" font-size="10.00">/pong/PongCommand.cpp</text>
</a>
</g>
</g>
<!-- Node16&#45;&gt;Node17 -->
<g id="edge20_Node000016_Node000017" class="edge">
<title>Node16&#45;&gt;Node17</title>
<g id="a_edge20_Node000016_Node000017"><a xlink:title=" ">
<path fill="none" stroke="#63b8ff" d="M533,-56.31C533,-48.12 533,-39.38 533,-32.22"/>
<polygon fill="#63b8ff" stroke="#63b8ff" points="529.5,-56.18 533,-66.18 536.5,-56.18 529.5,-56.18"/>
</a>
</g>
</g>
<!-- Node18&#45;&gt;Node8 -->
<g id="edge22_Node000018_Node000008" class="edge">
<title>Node18&#45;&gt;Node8</title>
<g id="a_edge22_Node000018_Node000008"><a xlink:title=" ">
<path fill="none" stroke="#63b8ff" d="M804.85,-63.56C778.29,-53.65 746.43,-41.77 721.54,-32.49"/>
<polygon fill="#63b8ff" stroke="#63b8ff" points="803.49,-66.78 814.08,-67 805.94,-60.22 803.49,-66.78"/>
</a>
</g>
</g>
<!-- Node18&#45;&gt;Node19 -->
<g id="edge23_Node000018_Node000019" class="edge">
<title>Node18&#45;&gt;Node19</title>
<g id="a_edge23_Node000018_Node000019"><a xlink:title=" ">
<path fill="none" stroke="#63b8ff" d="M950.89,-65.45C1005.73,-55.19 1074.32,-42.37 1127.14,-32.49"/>
<polygon fill="#63b8ff" stroke="#63b8ff" points="950.44,-61.97 941.25,-67.25 951.72,-68.85 950.44,-61.97"/>
</a>
</g>
</g>
</g>
</svg>
