<?xml version="1.0" encoding="UTF-8" standalone="no"?>
<!DOCTYPE svg PUBLIC "-//W3C//DTD SVG 1.1//EN"
 "http://www.w3.org/Graphics/SVG/1.1/DTD/svg11.dtd">
<!-- Generated by graphviz version 9.0.0 (0)
 -->
<!-- Title: src/bot_library/bot/core/interfaces/include/IGlobalSlashCommand.hpp Pages: 1 -->
<svg width="2186pt" height="324pt"
 viewBox="0.00 0.00 2186.25 324.00" xmlns="http://www.w3.org/2000/svg" xmlns:xlink="http://www.w3.org/1999/xlink">
<g id="graph0" class="graph" transform="scale(1 1) rotate(0) translate(4 320)">
<title>src/bot_library/bot/core/interfaces/include/IGlobalSlashCommand.hpp</title>
<!-- Node1 -->
<g id="Node000001" class="node">
<title>Node1</title>
<g id="a_Node000001"><a xlink:title=" ">
<polygon fill="#999999" stroke="#666666" points="1953.5,-316 1815.25,-316 1815.25,-272 1953.5,-272 1953.5,-316"/>
<text text-anchor="start" x="1823.25" y="-302.5" font-family="Helvetica,sans-Serif" font-size="10.00">src/bot_library/bot</text>
<text text-anchor="start" x="1823.25" y="-290.5" font-family="Helvetica,sans-Serif" font-size="10.00">/core/interfaces/include</text>
<text text-anchor="middle" x="1884.38" y="-278.5" font-family="Helvetica,sans-Serif" font-size="10.00">/IGlobalSlashCommand.hpp</text>
</a>
</g>
</g>
<!-- Node2 -->
<g id="Node000002" class="node">
<title>Node2</title>
<g id="a_Node000002"><a xlink:href="Core_8hpp.html" target="_top" xlink:title=" ">
<polygon fill="white" stroke="#666666" points="1941.5,-236 1827.25,-236 1827.25,-204 1941.5,-204 1941.5,-236"/>
<text text-anchor="start" x="1835.25" y="-222.5" font-family="Helvetica,sans-Serif" font-size="10.00">src/bot_library/bot</text>
<text text-anchor="middle" x="1884.38" y="-210.5" font-family="Helvetica,sans-Serif" font-size="10.00">/core/include/Core.hpp</text>
</a>
</g>
</g>
<!-- Node1&#45;&gt;Node2 -->
<g id="edge1_Node000001_Node000002" class="edge">
<title>Node1&#45;&gt;Node2</title>
<g id="a_edge1_Node000001_Node000002"><a xlink:title=" ">
<path fill="none" stroke="#63b8ff" d="M1884.38,-260.53C1884.38,-252.02 1884.38,-243.24 1884.38,-236.13"/>
<polygon fill="#63b8ff" stroke="#63b8ff" points="1880.88,-260.27 1884.38,-270.27 1887.88,-260.27 1880.88,-260.27"/>
</a>
</g>
</g>
<!-- Node4 -->
<g id="Node000004" class="node">
<title>Node4</title>
<g id="a_Node000004"><a xlink:href="Bot_8hpp.html" target="_top" xlink:title=" ">
<polygon fill="white" stroke="#666666" points="949.38,-168 855.38,-168 855.38,-136 949.38,-136 949.38,-168"/>
<text text-anchor="start" x="863.38" y="-154.5" font-family="Helvetica,sans-Serif" font-size="10.00">src/bot_library/bot</text>
<text text-anchor="middle" x="902.38" y="-142.5" font-family="Helvetica,sans-Serif" font-size="10.00">/include/Bot.hpp</text>
</a>
</g>
</g>
<!-- Node1&#45;&gt;Node4 -->
<g id="edge39_Node000001_Node000004" class="edge">
<title>Node1&#45;&gt;Node4</title>
<g id="a_edge39_Node000001_Node000004"><a xlink:title=" ">
<path fill="none" stroke="#63b8ff" d="M1803.82,-281.51C1606.96,-253.45 1106.19,-182.06 949.79,-159.76"/>
<polygon fill="#63b8ff" stroke="#63b8ff" points="1803.04,-284.94 1813.43,-282.89 1804.03,-278.01 1803.04,-284.94"/>
</a>
</g>
</g>
<!-- Node9 -->
<g id="Node000009" class="node">
<title>Node9</title>
<g id="a_Node000009"><a xlink:href="ChallengeRoleCommand_8cpp.html" target="_top" xlink:title=" ">
<polygon fill="white" stroke="#666666" points="2178.25,-32 1966.5,-32 1966.5,0 2178.25,0 2178.25,-32"/>
<text text-anchor="start" x="1974.5" y="-18.5" font-family="Helvetica,sans-Serif" font-size="10.00">src/bot_library/commands</text>
<text text-anchor="middle" x="2072.38" y="-6.5" font-family="Helvetica,sans-Serif" font-size="10.00">/challenge_role/ChallengeRoleCommand.cpp</text>
</a>
</g>
</g>
<!-- Node1&#45;&gt;Node9 -->
<g id="edge40_Node000001_Node000009" class="edge">
<title>Node1&#45;&gt;Node9</title>
<g id="a_edge40_Node000001_Node000009"><a xlink:title=" ">
<path fill="none" stroke="#63b8ff" d="M1931.58,-265.63C1965.91,-243.43 2010.98,-209.13 2038.38,-168 2067.12,-124.83 2071.85,-60.93 2072.43,-32.09"/>
<polygon fill="#63b8ff" stroke="#63b8ff" points="1930.06,-262.45 1923.49,-270.76 1933.81,-268.36 1930.06,-262.45"/>
</a>
</g>
</g>
<!-- Node3 -->
<g id="Node000003" class="node">
<title>Node3</title>
<g id="a_Node000003"><a xlink:href="Core_8cpp.html" target="_top" xlink:title=" ">
<polygon fill="white" stroke="#666666" points="2006.38,-168 1912.38,-168 1912.38,-136 2006.38,-136 2006.38,-168"/>
<text text-anchor="start" x="1920.38" y="-154.5" font-family="Helvetica,sans-Serif" font-size="10.00">src/bot_library/bot</text>
<text text-anchor="middle" x="1959.38" y="-142.5" font-family="Helvetica,sans-Serif" font-size="10.00">/core/Core.cpp</text>
</a>
</g>
</g>
<!-- Node2&#45;&gt;Node3 -->
<g id="edge2_Node000002_Node000003" class="edge">
<title>Node2&#45;&gt;Node3</title>
<g id="a_edge2_Node000002_Node000003"><a xlink:title=" ">
<path fill="none" stroke="#63b8ff" d="M1910.15,-196.32C1920.59,-187.13 1932.39,-176.75 1941.81,-168.45"/>
<polygon fill="#63b8ff" stroke="#63b8ff" points="1908.1,-193.46 1902.91,-202.69 1912.73,-198.71 1908.1,-193.46"/>
</a>
</g>
</g>
<!-- Node2&#45;&gt;Node4 -->
<g id="edge3_Node000002_Node000004" class="edge">
<title>Node2&#45;&gt;Node4</title>
<g id="a_edge3_Node000002_Node000004"><a xlink:title=" ">
<path fill="none" stroke="#63b8ff" d="M1815.62,-214.38C1627.78,-201.75 1109.39,-166.91 949.78,-156.19"/>
<polygon fill="#63b8ff" stroke="#63b8ff" points="1815.25,-217.86 1825.46,-215.04 1815.72,-210.88 1815.25,-217.86"/>
</a>
</g>
</g>
<!-- Node2&#45;&gt;Node9 -->
<g id="edge36_Node000002_Node000009" class="edge">
<title>Node2&#45;&gt;Node9</title>
<g id="a_edge36_Node000002_Node000009"><a xlink:title=" ">
<path fill="none" stroke="#63b8ff" d="M1952.69,-204.32C1975.02,-196.65 1998.41,-185.14 2015.38,-168 2035.14,-148.03 2058.91,-66.72 2068.29,-32.4"/>
<polygon fill="#63b8ff" stroke="#63b8ff" points="1951.75,-200.94 1943.29,-207.32 1953.88,-207.61 1951.75,-200.94"/>
</a>
</g>
</g>
<!-- Node25 -->
<g id="Node000025" class="node">
<title>Node25</title>
<g id="a_Node000025"><a xlink:href="SetChannelCommand_8cpp.html" target="_top" xlink:title=" ">
<polygon fill="white" stroke="#666666" points="1948,-32 1758.75,-32 1758.75,0 1948,0 1948,-32"/>
<text text-anchor="start" x="1766.75" y="-18.5" font-family="Helvetica,sans-Serif" font-size="10.00">src/bot_library/commands</text>
<text text-anchor="middle" x="1853.38" y="-6.5" font-family="Helvetica,sans-Serif" font-size="10.00">/set_channel/SetChannelCommand.cpp</text>
</a>
</g>
</g>
<!-- Node2&#45;&gt;Node25 -->
<g id="edge38_Node000002_Node000025" class="edge">
<title>Node2&#45;&gt;Node25</title>
<g id="a_edge38_Node000002_Node000025"><a xlink:title=" ">
<path fill="none" stroke="#63b8ff" d="M1881.92,-192.68C1878.9,-162.45 1873.19,-111.42 1865.38,-68 1863.18,-55.83 1859.93,-42.19 1857.37,-32.09"/>
<polygon fill="#63b8ff" stroke="#63b8ff" points="1878.41,-192.8 1882.86,-202.41 1885.38,-192.12 1878.41,-192.8"/>
</a>
</g>
</g>
<!-- Node28 -->
<g id="Node000028" class="node">
<title>Node28</title>
<g id="a_Node000028"><a xlink:href="resource__man_8hpp.html" target="_top" xlink:title=" ">
<polygon fill="white" stroke="#666666" points="1855.88,-168 1710.88,-168 1710.88,-136 1855.88,-136 1855.88,-168"/>
<text text-anchor="start" x="1718.88" y="-154.5" font-family="Helvetica,sans-Serif" font-size="10.00">src/bot_library/commands</text>
<text text-anchor="middle" x="1783.38" y="-142.5" font-family="Helvetica,sans-Serif" font-size="10.00">/resources/resource_man.hpp</text>
</a>
</g>
</g>
<!-- Node2&#45;&gt;Node28 -->
<g id="edge37_Node000002_Node000028" class="edge">
<title>Node2&#45;&gt;Node28</title>
<g id="a_edge37_Node000002_Node000028"><a xlink:title=" ">
<path fill="none" stroke="#63b8ff" d="M1851.1,-197.25C1836.64,-187.81 1820.05,-176.97 1806.91,-168.38"/>
<polygon fill="#63b8ff" stroke="#63b8ff" points="1849.14,-200.16 1859.43,-202.7 1852.97,-194.3 1849.14,-200.16"/>
</a>
</g>
</g>
<!-- Node5 -->
<g id="Node000005" class="node">
<title>Node5</title>
<g id="a_Node000005"><a xlink:href="BotLibrary_8cpp.html" target="_top" xlink:title=" ">
<polygon fill="white" stroke="#666666" points="142.75,-26 0,-26 0,-6 142.75,-6 142.75,-26"/>
<text text-anchor="middle" x="71.38" y="-12.5" font-family="Helvetica,sans-Serif" font-size="10.00">src/bot_library/BotLibrary.cpp</text>
</a>
</g>
</g>
<!-- Node4&#45;&gt;Node5 -->
<g id="edge4_Node000004_Node000005" class="edge">
<title>Node4&#45;&gt;Node5</title>
<g id="a_edge4_Node000004_Node000005"><a xlink:title=" ">
<path fill="none" stroke="#63b8ff" d="M843.79,-149.69C655.22,-145.18 74.69,-128.99 47.38,-100 27.73,-79.15 50.76,-43.21 63.72,-26.3"/>
<polygon fill="#63b8ff" stroke="#63b8ff" points="843.51,-153.18 853.59,-149.92 843.68,-146.18 843.51,-153.18"/>
</a>
</g>
</g>
<!-- Node6 -->
<g id="Node000006" class="node">
<title>Node6</title>
<g id="a_Node000006"><a xlink:href="Bot_8cpp.html" target="_top" xlink:title=" ">
<polygon fill="white" stroke="#666666" points="590.38,-100 496.38,-100 496.38,-68 590.38,-68 590.38,-100"/>
<text text-anchor="start" x="504.38" y="-86.5" font-family="Helvetica,sans-Serif" font-size="10.00">src/bot_library/bot</text>
<text text-anchor="middle" x="543.38" y="-74.5" font-family="Helvetica,sans-Serif" font-size="10.00">/Bot.cpp</text>
</a>
</g>
</g>
<!-- Node4&#45;&gt;Node6 -->
<g id="edge5_Node000004_Node000006" class="edge">
<title>Node4&#45;&gt;Node6</title>
<g id="a_edge5_Node000004_Node000006"><a xlink:title=" ">
<path fill="none" stroke="#63b8ff" d="M843.77,-142.82C782.51,-133.88 683.72,-118.35 599.38,-100 596.52,-99.38 593.6,-98.71 590.65,-98"/>
<polygon fill="#63b8ff" stroke="#63b8ff" points="843.24,-146.28 853.64,-144.25 844.24,-139.35 843.24,-146.28"/>
</a>
</g>
</g>
<!-- Node7 -->
<g id="Node000007" class="node">
<title>Node7</title>
<g id="a_Node000007"><a xlink:href="ChallengeRoleCommand_8hpp.html" target="_top" xlink:title=" ">
<polygon fill="white" stroke="#666666" points="1684.25,-100 1472.5,-100 1472.5,-68 1684.25,-68 1684.25,-100"/>
<text text-anchor="start" x="1480.5" y="-86.5" font-family="Helvetica,sans-Serif" font-size="10.00">src/bot_library/commands</text>
<text text-anchor="middle" x="1578.38" y="-74.5" font-family="Helvetica,sans-Serif" font-size="10.00">/challenge_role/ChallengeRoleCommand.hpp</text>
</a>
</g>
</g>
<!-- Node4&#45;&gt;Node7 -->
<g id="edge6_Node000004_Node000007" class="edge">
<title>Node4&#45;&gt;Node7</title>
<g id="a_edge6_Node000004_Node000007"><a xlink:title=" ">
<path fill="none" stroke="#63b8ff" d="M961.01,-146.43C1063.18,-138.29 1280.39,-120.24 1463.38,-100 1466.28,-99.68 1469.22,-99.35 1472.19,-99"/>
<polygon fill="#63b8ff" stroke="#63b8ff" points="960.92,-142.92 951.23,-147.2 961.48,-149.9 960.92,-142.92"/>
</a>
</g>
</g>
<!-- Node11 -->
<g id="Node000011" class="node">
<title>Node11</title>
<g id="a_Node000011"><a xlink:href="CleanUp_8hpp.html" target="_top" xlink:title=" ">
<polygon fill="white" stroke="#666666" points="478.62,-100 350.12,-100 350.12,-68 478.62,-68 478.62,-100"/>
<text text-anchor="start" x="358.12" y="-86.5" font-family="Helvetica,sans-Serif" font-size="10.00">src/bot_library/commands</text>
<text text-anchor="middle" x="414.38" y="-74.5" font-family="Helvetica,sans-Serif" font-size="10.00">/clean_up/CleanUp.hpp</text>
</a>
</g>
</g>
<!-- Node4&#45;&gt;Node11 -->
<g id="edge10_Node000004_Node000011" class="edge">
<title>Node4&#45;&gt;Node11</title>
<g id="a_edge10_Node000004_Node000011"><a xlink:title=" ">
<path fill="none" stroke="#63b8ff" d="M843.51,-145.27C762.88,-137.08 613.69,-120.7 487.38,-100 484.57,-99.54 481.7,-99.05 478.81,-98.53"/>
<polygon fill="#63b8ff" stroke="#63b8ff" points="843.09,-148.75 853.39,-146.27 843.79,-141.78 843.09,-148.75"/>
</a>
</g>
</g>
<!-- Node13 -->
<g id="Node000013" class="node">
<title>Node13</title>
<g id="a_Node000013"><a xlink:href="HelpCommand_8hpp.html" target="_top" xlink:title=" ">
<polygon fill="white" stroke="#666666" points="736.62,-100 608.12,-100 608.12,-68 736.62,-68 736.62,-100"/>
<text text-anchor="start" x="616.12" y="-86.5" font-family="Helvetica,sans-Serif" font-size="10.00">src/bot_library/commands</text>
<text text-anchor="middle" x="672.38" y="-74.5" font-family="Helvetica,sans-Serif" font-size="10.00">/help/HelpCommand.hpp</text>
</a>
</g>
</g>
<!-- Node4&#45;&gt;Node13 -->
<g id="edge13_Node000004_Node000013" class="edge">
<title>Node4&#45;&gt;Node13</title>
<g id="a_edge13_Node000004_Node000013"><a xlink:title=" ">
<path fill="none" stroke="#63b8ff" d="M844.09,-134.27C807.82,-123.87 761.52,-110.58 726.14,-100.43"/>
<polygon fill="#63b8ff" stroke="#63b8ff" points="842.97,-137.59 853.54,-136.99 844.9,-130.86 842.97,-137.59"/>
</a>
</g>
</g>
<!-- Node15 -->
<g id="Node000015" class="node">
<title>Node15</title>
<g id="a_Node000015"><a xlink:href="Commands_8hpp.html" target="_top" xlink:title=" ">
<polygon fill="white" stroke="#666666" points="184.62,-100 56.12,-100 56.12,-68 184.62,-68 184.62,-100"/>
<text text-anchor="start" x="64.12" y="-86.5" font-family="Helvetica,sans-Serif" font-size="10.00">src/bot_library/commands</text>
<text text-anchor="middle" x="120.38" y="-74.5" font-family="Helvetica,sans-Serif" font-size="10.00">/include/Commands.hpp</text>
</a>
</g>
</g>
<!-- Node4&#45;&gt;Node15 -->
<g id="edge16_Node000004_Node000015" class="edge">
<title>Node4&#45;&gt;Node15</title>
<g id="a_edge16_Node000004_Node000015"><a xlink:title=" ">
<path fill="none" stroke="#63b8ff" d="M844.05,-149.39C722.51,-145.46 433.49,-133.16 193.38,-100 190.56,-99.61 187.68,-99.18 184.78,-98.71"/>
<polygon fill="#63b8ff" stroke="#63b8ff" points="843.66,-152.88 853.77,-149.69 843.88,-145.88 843.66,-152.88"/>
</a>
</g>
</g>
<!-- Node16 -->
<g id="Node000016" class="node">
<title>Node16</title>
<g id="a_Node000016"><a xlink:href="InitDatabase_8hpp.html" target="_top" xlink:title=" ">
<polygon fill="white" stroke="#666666" points="1856.38,-100 1702.38,-100 1702.38,-68 1856.38,-68 1856.38,-100"/>
<text text-anchor="start" x="1710.38" y="-86.5" font-family="Helvetica,sans-Serif" font-size="10.00">src/bot_library/commands</text>
<text text-anchor="middle" x="1779.38" y="-74.5" font-family="Helvetica,sans-Serif" font-size="10.00">/init_database/InitDatabase.hpp</text>
</a>
</g>
</g>
<!-- Node4&#45;&gt;Node16 -->
<g id="edge19_Node000004_Node000016" class="edge">
<title>Node4&#45;&gt;Node16</title>
<g id="a_edge19_Node000004_Node000016"><a xlink:title=" ">
<path fill="none" stroke="#63b8ff" d="M961.16,-149.39C1092.73,-145.3 1420.79,-132.46 1693.38,-100 1696.23,-99.66 1699.14,-99.29 1702.08,-98.89"/>
<polygon fill="#63b8ff" stroke="#63b8ff" points="961.19,-145.88 951.3,-149.69 961.41,-152.88 961.19,-145.88"/>
</a>
</g>
</g>
<!-- Node18 -->
<g id="Node000018" class="node">
<title>Node18</title>
<g id="a_Node000018"><a xlink:href="PongCommand_8hpp.html" target="_top" xlink:title=" ">
<polygon fill="white" stroke="#666666" points="884,-100 754.75,-100 754.75,-68 884,-68 884,-100"/>
<text text-anchor="start" x="762.75" y="-86.5" font-family="Helvetica,sans-Serif" font-size="10.00">src/bot_library/commands</text>
<text text-anchor="middle" x="819.38" y="-74.5" font-family="Helvetica,sans-Serif" font-size="10.00">/pong/PongCommand.hpp</text>
</a>
</g>
</g>
<!-- Node4&#45;&gt;Node18 -->
<g id="edge21_Node000004_Node000018" class="edge">
<title>Node4&#45;&gt;Node18</title>
<g id="a_edge21_Node000004_Node000018"><a xlink:title=" ">
<path fill="none" stroke="#63b8ff" d="M874.2,-128.6C862.56,-119.34 849.34,-108.83 838.81,-100.45"/>
<polygon fill="#63b8ff" stroke="#63b8ff" points="871.93,-131.27 881.94,-134.75 876.29,-125.79 871.93,-131.27"/>
</a>
</g>
</g>
<!-- Node20 -->
<g id="Node000020" class="node">
<title>Node20</title>
<g id="a_Node000020"><a xlink:href="ReactionRoles_8hpp.html" target="_top" xlink:title=" ">
<polygon fill="white" stroke="#666666" points="1068.38,-100 902.38,-100 902.38,-68 1068.38,-68 1068.38,-100"/>
<text text-anchor="start" x="910.38" y="-86.5" font-family="Helvetica,sans-Serif" font-size="10.00">src/bot_library/commands</text>
<text text-anchor="middle" x="985.38" y="-74.5" font-family="Helvetica,sans-Serif" font-size="10.00">/reaction_roles/ReactionRoles.hpp</text>
</a>
</g>
</g>
<!-- Node4&#45;&gt;Node20 -->
<g id="edge24_Node000004_Node000020" class="edge">
<title>Node4&#45;&gt;Node20</title>
<g id="a_edge24_Node000004_Node000020"><a xlink:title=" ">
<path fill="none" stroke="#63b8ff" d="M930.55,-128.6C942.19,-119.34 955.41,-108.83 965.94,-100.45"/>
<polygon fill="#63b8ff" stroke="#63b8ff" points="928.46,-125.79 922.81,-134.75 932.82,-131.27 928.46,-125.79"/>
</a>
</g>
</g>
<!-- Node22 -->
<g id="Node000022" class="node">
<title>Node22</title>
<g id="a_Node000022"><a xlink:href="ServerDetails_8hpp.html" target="_top" xlink:title=" ">
<polygon fill="white" stroke="#666666" points="1246.75,-100 1086,-100 1086,-68 1246.75,-68 1246.75,-100"/>
<text text-anchor="start" x="1094" y="-86.5" font-family="Helvetica,sans-Serif" font-size="10.00">src/bot_library/commands</text>
<text text-anchor="middle" x="1166.38" y="-74.5" font-family="Helvetica,sans-Serif" font-size="10.00">/server_details/ServerDetails.hpp</text>
</a>
</g>
</g>
<!-- Node4&#45;&gt;Node22 -->
<g id="edge27_Node000004_Node000022" class="edge">
<title>Node4&#45;&gt;Node22</title>
<g id="a_edge27_Node000004_Node000022"><a xlink:title=" ">
<path fill="none" stroke="#63b8ff" d="M960.64,-136.43C1003.34,-125.76 1061.19,-111.3 1104.68,-100.42"/>
<polygon fill="#63b8ff" stroke="#63b8ff" points="959.89,-133.01 951.04,-138.83 961.59,-139.8 959.89,-133.01"/>
</a>
</g>
</g>
<!-- Node24 -->
<g id="Node000024" class="node">
<title>Node24</title>
<g id="a_Node000024"><a xlink:href="SetChannelCommand_8hpp.html" target="_top" xlink:title=" ">
<polygon fill="white" stroke="#666666" points="1454,-100 1264.75,-100 1264.75,-68 1454,-68 1454,-100"/>
<text text-anchor="start" x="1272.75" y="-86.5" font-family="Helvetica,sans-Serif" font-size="10.00">src/bot_library/commands</text>
<text text-anchor="middle" x="1359.38" y="-74.5" font-family="Helvetica,sans-Serif" font-size="10.00">/set_channel/SetChannelCommand.hpp</text>
</a>
</g>
</g>
<!-- Node4&#45;&gt;Node24 -->
<g id="edge30_Node000004_Node000024" class="edge">
<title>Node4&#45;&gt;Node24</title>
<g id="a_edge30_Node000004_Node000024"><a xlink:title=" ">
<path fill="none" stroke="#63b8ff" d="M960.89,-142.55C1037.59,-131.47 1173.07,-111.91 1264.52,-98.7"/>
<polygon fill="#63b8ff" stroke="#63b8ff" points="960.46,-139.08 951.06,-143.97 961.46,-146 960.46,-139.08"/>
</a>
</g>
</g>
<!-- Node26 -->
<g id="Node000026" class="node">
<title>Node26</title>
<g id="a_Node000026"><a xlink:href="SetStatus_8hpp.html" target="_top" xlink:title=" ">
<polygon fill="white" stroke="#666666" points="332.38,-100 202.38,-100 202.38,-68 332.38,-68 332.38,-100"/>
<text text-anchor="start" x="210.38" y="-86.5" font-family="Helvetica,sans-Serif" font-size="10.00">src/bot_library/commands</text>
<text text-anchor="middle" x="267.38" y="-74.5" font-family="Helvetica,sans-Serif" font-size="10.00">/set_status/SetStatus.hpp</text>
</a>
</g>
</g>
<!-- Node4&#45;&gt;Node26 -->
<g id="edge33_Node000004_Node000026" class="edge">
<title>Node4&#45;&gt;Node26</title>
<g id="a_edge33_Node000004_Node000026"><a xlink:title=" ">
<path fill="none" stroke="#63b8ff" d="M843.56,-147.78C741.14,-141.69 523.53,-126.66 341.38,-100 338.52,-99.58 335.61,-99.13 332.68,-98.64"/>
<polygon fill="#63b8ff" stroke="#63b8ff" points="843.19,-151.26 853.37,-148.35 843.6,-144.27 843.19,-151.26"/>
</a>
</g>
</g>
<!-- Node8 -->
<g id="Node000008" class="node">
<title>Node8</title>
<g id="a_Node000008"><a xlink:href="Commands_8cpp.html" target="_top" xlink:title=" ">
<polygon fill="white" stroke="#666666" points="919.62,-32 791.12,-32 791.12,0 919.62,0 919.62,-32"/>
<text text-anchor="start" x="799.12" y="-18.5" font-family="Helvetica,sans-Serif" font-size="10.00">src/bot_library/commands</text>
<text text-anchor="middle" x="855.38" y="-6.5" font-family="Helvetica,sans-Serif" font-size="10.00">/Commands.cpp</text>
</a>
</g>
</g>
<!-- Node7&#45;&gt;Node8 -->
<g id="edge7_Node000007_Node000008" class="edge">
<title>Node7&#45;&gt;Node8</title>
<g id="a_edge7_Node000007_Node000008"><a xlink:title=" ">
<path fill="none" stroke="#63b8ff" d="M1460.8,-67.8C1224.24,-45.17 1160.83,-63.56 928.38,-32 925.55,-31.62 922.68,-31.19 919.78,-30.73"/>
<polygon fill="#63b8ff" stroke="#63b8ff" points="1460.4,-71.27 1470.69,-68.76 1461.08,-64.31 1460.4,-71.27"/>
</a>
</g>
</g>
<!-- Node7&#45;&gt;Node9 -->
<g id="edge8_Node000007_Node000009" class="edge">
<title>Node7&#45;&gt;Node9</title>
<g id="a_edge8_Node000007_Node000009"><a xlink:title=" ">
<path fill="none" stroke="#63b8ff" d="M1696.06,-67.28C1778.17,-56.31 1886.83,-41.79 1966.28,-31.17"/>
<polygon fill="#63b8ff" stroke="#63b8ff" points="1695.6,-63.81 1686.15,-68.6 1696.53,-70.75 1695.6,-63.81"/>
</a>
</g>
</g>
<!-- Node10 -->
<g id="Node000010" class="node">
<title>Node10</title>
<g id="a_Node000010"><a xlink:href="ChallengeRoleDTO_8cpp.html" target="_top" xlink:title=" ">
<polygon fill="white" stroke="#666666" points="1568.25,-32 1380.5,-32 1380.5,0 1568.25,0 1568.25,-32"/>
<text text-anchor="start" x="1388.5" y="-18.5" font-family="Helvetica,sans-Serif" font-size="10.00">src/bot_library/commands</text>
<text text-anchor="middle" x="1474.38" y="-6.5" font-family="Helvetica,sans-Serif" font-size="10.00">/challenge_role/ChallengeRoleDTO.cpp</text>
</a>
</g>
</g>
<!-- Node7&#45;&gt;Node10 -->
<g id="edge9_Node000007_Node000010" class="edge">
<title>Node7&#45;&gt;Node10</title>
<g id="a_edge9_Node000007_Node000010"><a xlink:title=" ">
<path fill="none" stroke="#63b8ff" d="M1544.54,-61.53C1529.56,-52.02 1512.27,-41.05 1498.61,-32.38"/>
<polygon fill="#63b8ff" stroke="#63b8ff" points="1542.39,-64.31 1552.71,-66.71 1546.15,-58.4 1542.39,-64.31"/>
</a>
</g>
</g>
<!-- Node11&#45;&gt;Node8 -->
<g id="edge11_Node000011_Node000008" class="edge">
<title>Node11&#45;&gt;Node8</title>
<g id="a_edge11_Node000011_Node000008"><a xlink:title=" ">
<path fill="none" stroke="#63b8ff" d="M489.97,-67.66C619.68,-47.03 655.59,-52.73 782.38,-32 785.18,-31.54 788.05,-31.05 790.94,-30.54"/>
<polygon fill="#63b8ff" stroke="#63b8ff" points="489.62,-64.17 480.3,-69.22 490.73,-71.08 489.62,-64.17"/>
</a>
</g>
</g>
<!-- Node12 -->
<g id="Node000012" class="node">
<title>Node12</title>
<g id="a_Node000012"><a xlink:href="CleanUp_8cpp.html" target="_top" xlink:title=" ">
<polygon fill="white" stroke="#666666" points="478.62,-32 350.12,-32 350.12,0 478.62,0 478.62,-32"/>
<text text-anchor="start" x="358.12" y="-18.5" font-family="Helvetica,sans-Serif" font-size="10.00">src/bot_library/commands</text>
<text text-anchor="middle" x="414.38" y="-6.5" font-family="Helvetica,sans-Serif" font-size="10.00">/clean_up/CleanUp.cpp</text>
</a>
</g>
</g>
<!-- Node11&#45;&gt;Node12 -->
<g id="edge12_Node000011_Node000012" class="edge">
<title>Node11&#45;&gt;Node12</title>
<g id="a_edge12_Node000011_Node000012"><a xlink:title=" ">
<path fill="none" stroke="#63b8ff" d="M414.38,-56.31C414.38,-48.12 414.38,-39.38 414.38,-32.22"/>
<polygon fill="#63b8ff" stroke="#63b8ff" points="410.88,-56.18 414.38,-66.18 417.88,-56.18 410.88,-56.18"/>
</a>
</g>
</g>
<!-- Node13&#45;&gt;Node8 -->
<g id="edge14_Node000013_Node000008" class="edge">
<title>Node13&#45;&gt;Node8</title>
<g id="a_edge14_Node000013_Node000008"><a xlink:title=" ">
<path fill="none" stroke="#63b8ff" d="M725.92,-63.69C753.46,-53.76 786.58,-41.81 812.42,-32.49"/>
<polygon fill="#63b8ff" stroke="#63b8ff" points="724.92,-60.33 716.7,-67.01 727.3,-66.91 724.92,-60.33"/>
</a>
</g>
</g>
<!-- Node14 -->
<g id="Node000014" class="node">
<title>Node14</title>
<g id="a_Node000014"><a xlink:href="HelpCommand_8cpp.html" target="_top" xlink:title=" ">
<polygon fill="white" stroke="#666666" points="625.62,-32 497.12,-32 497.12,0 625.62,0 625.62,-32"/>
<text text-anchor="start" x="505.12" y="-18.5" font-family="Helvetica,sans-Serif" font-size="10.00">src/bot_library/commands</text>
<text text-anchor="middle" x="561.38" y="-6.5" font-family="Helvetica,sans-Serif" font-size="10.00">/help/HelpCommand.cpp</text>
</a>
</g>
</g>
<!-- Node13&#45;&gt;Node14 -->
<g id="edge15_Node000013_Node000014" class="edge">
<title>Node13&#45;&gt;Node14</title>
<g id="a_edge15_Node000013_Node000014"><a xlink:title=" ">
<path fill="none" stroke="#63b8ff" d="M636.72,-61.8C620.62,-52.23 601.96,-41.13 587.24,-32.38"/>
<polygon fill="#63b8ff" stroke="#63b8ff" points="634.67,-64.65 645.05,-66.75 638.24,-58.63 634.67,-64.65"/>
</a>
</g>
</g>
<!-- Node15&#45;&gt;Node5 -->
<g id="edge17_Node000015_Node000005" class="edge">
<title>Node15&#45;&gt;Node5</title>
<g id="a_edge17_Node000015_Node000005"><a xlink:title=" ">
<path fill="none" stroke="#63b8ff" d="M102.33,-58.7C93.97,-47.43 84.53,-34.71 78.29,-26.32"/>
<polygon fill="#63b8ff" stroke="#63b8ff" points="99.34,-60.53 108.11,-66.48 104.96,-56.36 99.34,-60.53"/>
</a>
</g>
</g>
<!-- Node15&#45;&gt;Node8 -->
<g id="edge18_Node000015_Node000008" class="edge">
<title>Node15&#45;&gt;Node8</title>
<g id="a_edge18_Node000015_Node000008"><a xlink:title=" ">
<path fill="none" stroke="#63b8ff" d="M196.07,-67.77C455.36,-34.44 526.07,-65.99 782.38,-32 785.2,-31.63 788.07,-31.21 790.97,-30.75"/>
<polygon fill="#63b8ff" stroke="#63b8ff" points="195.74,-64.29 186.28,-69.05 196.65,-71.23 195.74,-64.29"/>
</a>
</g>
</g>
<!-- Node17 -->
<g id="Node000017" class="node">
<title>Node17</title>
<g id="a_Node000017"><a xlink:href="InitDatabase_8cpp.html" target="_top" xlink:title=" ">
<polygon fill="white" stroke="#666666" points="1740.38,-32 1586.38,-32 1586.38,0 1740.38,0 1740.38,-32"/>
<text text-anchor="start" x="1594.38" y="-18.5" font-family="Helvetica,sans-Serif" font-size="10.00">src/bot_library/commands</text>
<text text-anchor="middle" x="1663.38" y="-6.5" font-family="Helvetica,sans-Serif" font-size="10.00">/init_database/InitDatabase.cpp</text>
</a>
</g>
</g>
<!-- Node16&#45;&gt;Node17 -->
<g id="edge20_Node000016_Node000017" class="edge">
<title>Node16&#45;&gt;Node17</title>
<g id="a_edge20_Node000016_Node000017"><a xlink:title=" ">
<path fill="none" stroke="#63b8ff" d="M1742.59,-62.07C1725.66,-52.44 1705.93,-41.21 1690.4,-32.38"/>
<polygon fill="#63b8ff" stroke="#63b8ff" points="1740.44,-64.87 1750.86,-66.78 1743.9,-58.79 1740.44,-64.87"/>
</a>
</g>
</g>
<!-- Node18&#45;&gt;Node8 -->
<g id="edge22_Node000018_Node000008" class="edge">
<title>Node18&#45;&gt;Node8</title>
<g id="a_edge22_Node000018_Node000008"><a xlink:title=" ">
<path fill="none" stroke="#63b8ff" d="M833.15,-57.74C837.85,-49.14 842.94,-39.79 847.07,-32.22"/>
<polygon fill="#63b8ff" stroke="#63b8ff" points="830.17,-55.91 828.45,-66.36 836.31,-59.26 830.17,-55.91"/>
</a>
</g>
</g>
<!-- Node19 -->
<g id="Node000019" class="node">
<title>Node19</title>
<g id="a_Node000019"><a xlink:href="PongCommand_8cpp.html" target="_top" xlink:title=" ">
<polygon fill="white" stroke="#666666" points="773,-32 643.75,-32 643.75,0 773,0 773,-32"/>
<text text-anchor="start" x="651.75" y="-18.5" font-family="Helvetica,sans-Serif" font-size="10.00">src/bot_library/commands</text>
<text text-anchor="middle" x="708.38" y="-6.5" font-family="Helvetica,sans-Serif" font-size="10.00">/pong/PongCommand.cpp</text>
</a>
</g>
</g>
<!-- Node18&#45;&gt;Node19 -->
<g id="edge23_Node000018_Node000019" class="edge">
<title>Node18&#45;&gt;Node19</title>
<g id="a_edge23_Node000018_Node000019"><a xlink:title=" ">
<path fill="none" stroke="#63b8ff" d="M783.72,-61.8C767.62,-52.23 748.96,-41.13 734.24,-32.38"/>
<polygon fill="#63b8ff" stroke="#63b8ff" points="781.67,-64.65 792.05,-66.75 785.24,-58.63 781.67,-64.65"/>
</a>
</g>
</g>
<!-- Node20&#45;&gt;Node8 -->
<g id="edge25_Node000020_Node000008" class="edge">
<title>Node20&#45;&gt;Node8</title>
<g id="a_edge25_Node000020_Node000008"><a xlink:title=" ">
<path fill="none" stroke="#63b8ff" d="M944.68,-62.34C925.59,-52.65 903.23,-41.3 885.66,-32.38"/>
<polygon fill="#63b8ff" stroke="#63b8ff" points="943.05,-65.43 953.55,-66.84 946.21,-59.19 943.05,-65.43"/>
</a>
</g>
</g>
<!-- Node21 -->
<g id="Node000021" class="node">
<title>Node21</title>
<g id="a_Node000021"><a xlink:href="ReactionRoles_8cpp.html" target="_top" xlink:title=" ">
<polygon fill="white" stroke="#666666" points="1103.38,-32 937.38,-32 937.38,0 1103.38,0 1103.38,-32"/>
<text text-anchor="start" x="945.38" y="-18.5" font-family="Helvetica,sans-Serif" font-size="10.00">src/bot_library/commands</text>
<text text-anchor="middle" x="1020.38" y="-6.5" font-family="Helvetica,sans-Serif" font-size="10.00">/reaction_roles/ReactionRoles.cpp</text>
</a>
</g>
</g>
<!-- Node20&#45;&gt;Node21 -->
<g id="edge26_Node000020_Node000021" class="edge">
<title>Node20&#45;&gt;Node21</title>
<g id="a_edge26_Node000020_Node000021"><a xlink:title=" ">
<path fill="none" stroke="#63b8ff" d="M998.77,-57.74C1003.33,-49.14 1008.29,-39.79 1012.3,-32.22"/>
<polygon fill="#63b8ff" stroke="#63b8ff" points="995.79,-55.88 994.2,-66.36 1001.98,-59.16 995.79,-55.88"/>
</a>
</g>
</g>
<!-- Node22&#45;&gt;Node8 -->
<g id="edge28_Node000022_Node000008" class="edge">
<title>Node22&#45;&gt;Node8</title>
<g id="a_edge28_Node000022_Node000008"><a xlink:title=" ">
<path fill="none" stroke="#63b8ff" d="M1082.43,-65.19C1031.33,-54.34 967.03,-40.7 919.92,-30.7"/>
<polygon fill="#63b8ff" stroke="#63b8ff" points="1081.47,-68.56 1091.98,-67.21 1082.92,-61.71 1081.47,-68.56"/>
</a>
</g>
</g>
<!-- Node23 -->
<g id="Node000023" class="node">
<title>Node23</title>
<g id="a_Node000023"><a xlink:href="ServerDetails_8cpp.html" target="_top" xlink:title=" ">
<polygon fill="white" stroke="#666666" points="1281.75,-32 1121,-32 1121,0 1281.75,0 1281.75,-32"/>
<text text-anchor="start" x="1129" y="-18.5" font-family="Helvetica,sans-Serif" font-size="10.00">src/bot_library/commands</text>
<text text-anchor="middle" x="1201.38" y="-6.5" font-family="Helvetica,sans-Serif" font-size="10.00">/server_details/ServerDetails.cpp</text>
</a>
</g>
</g>
<!-- Node22&#45;&gt;Node23 -->
<g id="edge29_Node000022_Node000023" class="edge">
<title>Node22&#45;&gt;Node23</title>
<g id="a_edge29_Node000022_Node000023"><a xlink:title=" ">
<path fill="none" stroke="#63b8ff" d="M1179.77,-57.74C1184.33,-49.14 1189.29,-39.79 1193.3,-32.22"/>
<polygon fill="#63b8ff" stroke="#63b8ff" points="1176.79,-55.88 1175.2,-66.36 1182.98,-59.16 1176.79,-55.88"/>
</a>
</g>
</g>
<!-- Node24&#45;&gt;Node8 -->
<g id="edge31_Node000024_Node000008" class="edge">
<title>Node24&#45;&gt;Node8</title>
<g id="a_edge31_Node000024_Node000008"><a xlink:title=" ">
<path fill="none" stroke="#63b8ff" d="M1253.37,-67.78C1108.43,-49.8 1069.28,-54.18 928.38,-32 925.56,-31.56 922.7,-31.08 919.8,-30.58"/>
<polygon fill="#63b8ff" stroke="#63b8ff" points="1252.6,-71.21 1262.95,-68.99 1253.47,-64.27 1252.6,-71.21"/>
</a>
</g>
</g>
<!-- Node24&#45;&gt;Node25 -->
<g id="edge32_Node000024_Node000025" class="edge">
<title>Node24&#45;&gt;Node25</title>
<g id="a_edge32_Node000024_Node000025"><a xlink:title=" ">
<path fill="none" stroke="#63b8ff" d="M1465.61,-67.71C1592.23,-50.75 1626.01,-48.66 1749.38,-32 1752.36,-31.6 1755.39,-31.18 1758.45,-30.76"/>
<polygon fill="#63b8ff" stroke="#63b8ff" points="1465.25,-64.23 1455.8,-69.03 1466.18,-71.17 1465.25,-64.23"/>
</a>
</g>
</g>
<!-- Node26&#45;&gt;Node8 -->
<g id="edge34_Node000026_Node000008" class="edge">
<title>Node26&#45;&gt;Node8</title>
<g id="a_edge34_Node000026_Node000008"><a xlink:title=" ">
<path fill="none" stroke="#63b8ff" d="M343.84,-67.77C538.05,-41.12 591.32,-59.33 782.38,-32 785.19,-31.6 788.07,-31.15 790.96,-30.68"/>
<polygon fill="#63b8ff" stroke="#63b8ff" points="343.59,-64.27 334.17,-69.12 344.56,-71.2 343.59,-64.27"/>
</a>
</g>
</g>
<!-- Node27 -->
<g id="Node000027" class="node">
<title>Node27</title>
<g id="a_Node000027"><a xlink:href="SetStatus_8cpp.html" target="_top" xlink:title=" ">
<polygon fill="white" stroke="#666666" points="332.38,-32 202.38,-32 202.38,0 332.38,0 332.38,-32"/>
<text text-anchor="start" x="210.38" y="-18.5" font-family="Helvetica,sans-Serif" font-size="10.00">src/bot_library/commands</text>
<text text-anchor="middle" x="267.38" y="-6.5" font-family="Helvetica,sans-Serif" font-size="10.00">/set_status/SetStatus.cpp</text>
</a>
</g>
</g>
<!-- Node26&#45;&gt;Node27 -->
<g id="edge35_Node000026_Node000027" class="edge">
<title>Node26&#45;&gt;Node27</title>
<g id="a_edge35_Node000026_Node000027"><a xlink:title=" ">
<path fill="none" stroke="#63b8ff" d="M267.38,-56.31C267.38,-48.12 267.38,-39.38 267.38,-32.22"/>
<polygon fill="#63b8ff" stroke="#63b8ff" points="263.88,-56.18 267.38,-66.18 270.88,-56.18 263.88,-56.18"/>
</a>
</g>
</g>
</g>
</svg>
