<?xml version="1.0" encoding="UTF-8" standalone="no"?>
<!DOCTYPE svg PUBLIC "-//W3C//DTD SVG 1.1//EN"
 "http://www.w3.org/Graphics/SVG/1.1/DTD/svg11.dtd">
<!-- Generated by graphviz version 9.0.0 (0)
 -->
<!-- Title: src/bot_library/bot/core/interfaces/include/IMemberCommand.hpp Pages: 1 -->
<svg width="1575pt" height="324pt"
 viewBox="0.00 0.00 1575.25 324.00" xmlns="http://www.w3.org/2000/svg" xmlns:xlink="http://www.w3.org/1999/xlink">
<g id="graph0" class="graph" transform="scale(1 1) rotate(0) translate(4 320)">
<title>src/bot_library/bot/core/interfaces/include/IMemberCommand.hpp</title>
<!-- Node1 -->
<g id="Node000001" class="node">
<title>Node1</title>
<g id="a_Node000001"><a xlink:title=" ">
<polygon fill="#999999" stroke="#666666" points="890.5,-316 769.5,-316 769.5,-272 890.5,-272 890.5,-316"/>
<text text-anchor="start" x="777.5" y="-302.5" font-family="Helvetica,sans-Serif" font-size="10.00">src/bot_library/bot</text>
<text text-anchor="start" x="777.5" y="-290.5" font-family="Helvetica,sans-Serif" font-size="10.00">/core/interfaces/include</text>
<text text-anchor="middle" x="830" y="-278.5" font-family="Helvetica,sans-Serif" font-size="10.00">/IMemberCommand.hpp</text>
</a>
</g>
</g>
<!-- Node2 -->
<g id="Node000002" class="node">
<title>Node2</title>
<g id="a_Node000002"><a xlink:href="Core_8hpp.html" target="_top" xlink:title=" ">
<polygon fill="white" stroke="#666666" points="1056.12,-236 941.88,-236 941.88,-204 1056.12,-204 1056.12,-236"/>
<text text-anchor="start" x="949.88" y="-222.5" font-family="Helvetica,sans-Serif" font-size="10.00">src/bot_library/bot</text>
<text text-anchor="middle" x="999" y="-210.5" font-family="Helvetica,sans-Serif" font-size="10.00">/core/include/Core.hpp</text>
</a>
</g>
</g>
<!-- Node1&#45;&gt;Node2 -->
<g id="edge1_Node000001_Node000002" class="edge">
<title>Node1&#45;&gt;Node2</title>
<g id="a_edge1_Node000001_Node000002"><a xlink:title=" ">
<path fill="none" stroke="#63b8ff" d="M890.72,-267.13C914.8,-256.87 941.67,-245.42 962.63,-236.5"/>
<polygon fill="#63b8ff" stroke="#63b8ff" points="889.47,-263.86 881.64,-271 892.21,-270.3 889.47,-263.86"/>
</a>
</g>
</g>
<!-- Node4 -->
<g id="Node000004" class="node">
<title>Node4</title>
<g id="a_Node000004"><a xlink:href="Bot_8hpp.html" target="_top" xlink:title=" ">
<polygon fill="white" stroke="#666666" points="597,-168 503,-168 503,-136 597,-136 597,-168"/>
<text text-anchor="start" x="511" y="-154.5" font-family="Helvetica,sans-Serif" font-size="10.00">src/bot_library/bot</text>
<text text-anchor="middle" x="550" y="-142.5" font-family="Helvetica,sans-Serif" font-size="10.00">/include/Bot.hpp</text>
</a>
</g>
</g>
<!-- Node1&#45;&gt;Node4 -->
<g id="edge27_Node000001_Node000004" class="edge">
<title>Node1&#45;&gt;Node4</title>
<g id="a_edge27_Node000001_Node000004"><a xlink:title=" ">
<path fill="none" stroke="#63b8ff" d="M777.09,-266.55C719.08,-237.54 627.97,-191.98 580.72,-168.36"/>
<polygon fill="#63b8ff" stroke="#63b8ff" points="775.31,-269.57 785.82,-270.91 778.44,-263.31 775.31,-269.57"/>
</a>
</g>
</g>
<!-- Node15 -->
<g id="Node000015" class="node">
<title>Node15</title>
<g id="a_Node000015"><a xlink:href="SetChannelCommand_8hpp.html" target="_top" xlink:title=" ">
<polygon fill="white" stroke="#666666" points="951.62,-100 762.38,-100 762.38,-68 951.62,-68 951.62,-100"/>
<text text-anchor="start" x="770.38" y="-86.5" font-family="Helvetica,sans-Serif" font-size="10.00">src/bot_library/commands</text>
<text text-anchor="middle" x="857" y="-74.5" font-family="Helvetica,sans-Serif" font-size="10.00">/set_channel/SetChannelCommand.hpp</text>
</a>
</g>
</g>
<!-- Node1&#45;&gt;Node15 -->
<g id="edge28_Node000001_Node000015" class="edge">
<title>Node1&#45;&gt;Node15</title>
<g id="a_edge28_Node000001_Node000015"><a xlink:title=" ">
<path fill="none" stroke="#63b8ff" d="M833.61,-260.38C837.21,-228.6 843.04,-178.92 849,-136 850.68,-123.93 852.83,-110.29 854.48,-100.15"/>
<polygon fill="#63b8ff" stroke="#63b8ff" points="830.15,-259.81 832.51,-270.13 837.11,-260.59 830.15,-259.81"/>
</a>
</g>
</g>
<!-- Node3 -->
<g id="Node000003" class="node">
<title>Node3</title>
<g id="a_Node000003"><a xlink:href="Core_8cpp.html" target="_top" xlink:title=" ">
<polygon fill="white" stroke="#666666" points="952,-168 858,-168 858,-136 952,-136 952,-168"/>
<text text-anchor="start" x="866" y="-154.5" font-family="Helvetica,sans-Serif" font-size="10.00">src/bot_library/bot</text>
<text text-anchor="middle" x="905" y="-142.5" font-family="Helvetica,sans-Serif" font-size="10.00">/core/Core.cpp</text>
</a>
</g>
</g>
<!-- Node2&#45;&gt;Node3 -->
<g id="edge2_Node000002_Node000003" class="edge">
<title>Node2&#45;&gt;Node3</title>
<g id="a_edge2_Node000002_Node000003"><a xlink:title=" ">
<path fill="none" stroke="#63b8ff" d="M967.87,-197.15C954.5,-187.75 939.18,-177 927.01,-168.45"/>
<polygon fill="#63b8ff" stroke="#63b8ff" points="965.76,-199.94 975.96,-202.82 969.79,-194.21 965.76,-199.94"/>
</a>
</g>
</g>
<!-- Node2&#45;&gt;Node4 -->
<g id="edge3_Node000002_Node000004" class="edge">
<title>Node2&#45;&gt;Node4</title>
<g id="a_edge3_Node000002_Node000004"><a xlink:title=" ">
<path fill="none" stroke="#63b8ff" d="M930.53,-208.94C838.48,-195.4 677.18,-171.69 597.42,-159.97"/>
<polygon fill="#63b8ff" stroke="#63b8ff" points="929.78,-212.36 940.18,-210.35 930.8,-205.44 929.78,-212.36"/>
</a>
</g>
</g>
<!-- Node16 -->
<g id="Node000016" class="node">
<title>Node16</title>
<g id="a_Node000016"><a xlink:href="SetChannelCommand_8cpp.html" target="_top" xlink:title=" ">
<polygon fill="white" stroke="#666666" points="1027.62,-32 838.38,-32 838.38,0 1027.62,0 1027.62,-32"/>
<text text-anchor="start" x="846.38" y="-18.5" font-family="Helvetica,sans-Serif" font-size="10.00">src/bot_library/commands</text>
<text text-anchor="middle" x="933" y="-6.5" font-family="Helvetica,sans-Serif" font-size="10.00">/set_channel/SetChannelCommand.cpp</text>
</a>
</g>
</g>
<!-- Node2&#45;&gt;Node16 -->
<g id="edge26_Node000002_Node000016" class="edge">
<title>Node2&#45;&gt;Node16</title>
<g id="a_edge26_Node000002_Node000016"><a xlink:title=" ">
<path fill="none" stroke="#63b8ff" d="M994.48,-192.58C988.75,-161.93 977.58,-110.2 961,-68 956.05,-55.4 948.61,-42.02 942.64,-32.12"/>
<polygon fill="#63b8ff" stroke="#63b8ff" points="990.98,-192.89 996.2,-202.11 997.86,-191.65 990.98,-192.89"/>
</a>
</g>
</g>
<!-- Node17 -->
<g id="Node000017" class="node">
<title>Node17</title>
<g id="a_Node000017"><a xlink:href="ChallengeRoleCommand_8cpp.html" target="_top" xlink:title=" ">
<polygon fill="white" stroke="#666666" points="1219.88,-100 1008.12,-100 1008.12,-68 1219.88,-68 1219.88,-100"/>
<text text-anchor="start" x="1016.12" y="-86.5" font-family="Helvetica,sans-Serif" font-size="10.00">src/bot_library/commands</text>
<text text-anchor="middle" x="1114" y="-74.5" font-family="Helvetica,sans-Serif" font-size="10.00">/challenge_role/ChallengeRoleCommand.cpp</text>
</a>
</g>
</g>
<!-- Node2&#45;&gt;Node17 -->
<g id="edge20_Node000002_Node000017" class="edge">
<title>Node2&#45;&gt;Node17</title>
<g id="a_edge20_Node000002_Node000017"><a xlink:title=" ">
<path fill="none" stroke="#63b8ff" d="M1006.63,-193.19C1012.76,-175.65 1022.72,-152.7 1037,-136 1049.61,-121.26 1067.5,-109.06 1082.87,-100.29"/>
<polygon fill="#63b8ff" stroke="#63b8ff" points="1003.41,-191.78 1003.62,-202.37 1010.06,-193.96 1003.41,-191.78"/>
</a>
</g>
</g>
<!-- Node18 -->
<g id="Node000018" class="node">
<title>Node18</title>
<g id="a_Node000018"><a xlink:href="ChallengeRoleCommand_8hpp.html" target="_top" xlink:title=" ">
<polygon fill="white" stroke="#666666" points="1257.88,-168 1046.12,-168 1046.12,-136 1257.88,-136 1257.88,-168"/>
<text text-anchor="start" x="1054.12" y="-154.5" font-family="Helvetica,sans-Serif" font-size="10.00">src/bot_library/commands</text>
<text text-anchor="middle" x="1152" y="-142.5" font-family="Helvetica,sans-Serif" font-size="10.00">/challenge_role/ChallengeRoleCommand.hpp</text>
</a>
</g>
</g>
<!-- Node2&#45;&gt;Node18 -->
<g id="edge21_Node000002_Node000018" class="edge">
<title>Node2&#45;&gt;Node18</title>
<g id="a_edge21_Node000002_Node000018"><a xlink:title=" ">
<path fill="none" stroke="#63b8ff" d="M1045.3,-199.03C1068.02,-189.23 1094.96,-177.61 1116.09,-168.49"/>
<polygon fill="#63b8ff" stroke="#63b8ff" points="1044.06,-195.75 1036.26,-202.93 1046.83,-202.18 1044.06,-195.75"/>
</a>
</g>
</g>
<!-- Node20 -->
<g id="Node000020" class="node">
<title>Node20</title>
<g id="a_Node000020"><a xlink:href="resource__man_8hpp.html" target="_top" xlink:title=" ">
<polygon fill="white" stroke="#666666" points="1420.5,-168 1275.5,-168 1275.5,-136 1420.5,-136 1420.5,-168"/>
<text text-anchor="start" x="1283.5" y="-154.5" font-family="Helvetica,sans-Serif" font-size="10.00">src/bot_library/commands</text>
<text text-anchor="middle" x="1348" y="-142.5" font-family="Helvetica,sans-Serif" font-size="10.00">/resources/resource_man.hpp</text>
</a>
</g>
</g>
<!-- Node2&#45;&gt;Node20 -->
<g id="edge24_Node000002_Node000020" class="edge">
<title>Node2&#45;&gt;Node20</title>
<g id="a_edge24_Node000002_Node000020"><a xlink:title=" ">
<path fill="none" stroke="#63b8ff" d="M1067.47,-206.05C1127.38,-194.72 1214.14,-178.32 1275.27,-166.75"/>
<polygon fill="#63b8ff" stroke="#63b8ff" points="1066.9,-202.6 1057.73,-207.89 1068.2,-209.47 1066.9,-202.6"/>
</a>
</g>
</g>
<!-- Node21 -->
<g id="Node000021" class="node">
<title>Node21</title>
<g id="a_Node000021"><a xlink:href="roles_8hpp.html" target="_top" xlink:title=" ">
<polygon fill="white" stroke="#666666" points="1567.25,-168 1438.75,-168 1438.75,-136 1567.25,-136 1567.25,-168"/>
<text text-anchor="start" x="1446.75" y="-154.5" font-family="Helvetica,sans-Serif" font-size="10.00">src/bot_library/commands</text>
<text text-anchor="middle" x="1503" y="-142.5" font-family="Helvetica,sans-Serif" font-size="10.00">/roles/roles.hpp</text>
</a>
</g>
</g>
<!-- Node2&#45;&gt;Node21 -->
<g id="edge25_Node000002_Node000021" class="edge">
<title>Node2&#45;&gt;Node21</title>
<g id="a_edge25_Node000002_Node000021"><a xlink:title=" ">
<path fill="none" stroke="#63b8ff" d="M1067.73,-212.68C1153,-204.43 1302.7,-188.57 1430,-168 1432.81,-167.55 1435.68,-167.06 1438.57,-166.55"/>
<polygon fill="#63b8ff" stroke="#63b8ff" points="1067.51,-209.19 1057.89,-213.63 1068.18,-216.16 1067.51,-209.19"/>
</a>
</g>
</g>
<!-- Node5 -->
<g id="Node000005" class="node">
<title>Node5</title>
<g id="a_Node000005"><a xlink:href="BotLibrary_8cpp.html" target="_top" xlink:title=" ">
<polygon fill="white" stroke="#666666" points="326.38,-26 183.62,-26 183.62,-6 326.38,-6 326.38,-26"/>
<text text-anchor="middle" x="255" y="-12.5" font-family="Helvetica,sans-Serif" font-size="10.00">src/bot_library/BotLibrary.cpp</text>
</a>
</g>
</g>
<!-- Node4&#45;&gt;Node5 -->
<g id="edge4_Node000004_Node000005" class="edge">
<title>Node4&#45;&gt;Node5</title>
<g id="a_edge4_Node000004_Node000005"><a xlink:title=" ">
<path fill="none" stroke="#63b8ff" d="M491.36,-151.28C401.91,-150.31 237.83,-142.6 201,-100 179.86,-75.55 218.89,-42.25 241.12,-26.28"/>
<polygon fill="#63b8ff" stroke="#63b8ff" points="491.14,-154.78 501.16,-151.36 491.19,-147.78 491.14,-154.78"/>
</a>
</g>
</g>
<!-- Node6 -->
<g id="Node000006" class="node">
<title>Node6</title>
<g id="a_Node000006"><a xlink:href="Bot_8cpp.html" target="_top" xlink:title=" ">
<polygon fill="white" stroke="#666666" points="597,-100 503,-100 503,-68 597,-68 597,-100"/>
<text text-anchor="start" x="511" y="-86.5" font-family="Helvetica,sans-Serif" font-size="10.00">src/bot_library/bot</text>
<text text-anchor="middle" x="550" y="-74.5" font-family="Helvetica,sans-Serif" font-size="10.00">/Bot.cpp</text>
</a>
</g>
</g>
<!-- Node4&#45;&gt;Node6 -->
<g id="edge5_Node000004_Node000006" class="edge">
<title>Node4&#45;&gt;Node6</title>
<g id="a_edge5_Node000004_Node000006"><a xlink:title=" ">
<path fill="none" stroke="#63b8ff" d="M550,-124.31C550,-116.12 550,-107.38 550,-100.22"/>
<polygon fill="#63b8ff" stroke="#63b8ff" points="546.5,-124.18 550,-134.18 553.5,-124.18 546.5,-124.18"/>
</a>
</g>
</g>
<!-- Node7 -->
<g id="Node000007" class="node">
<title>Node7</title>
<g id="a_Node000007"><a xlink:href="HelpCommand_8hpp.html" target="_top" xlink:title=" ">
<polygon fill="white" stroke="#666666" points="485.25,-100 356.75,-100 356.75,-68 485.25,-68 485.25,-100"/>
<text text-anchor="start" x="364.75" y="-86.5" font-family="Helvetica,sans-Serif" font-size="10.00">src/bot_library/commands</text>
<text text-anchor="middle" x="421" y="-74.5" font-family="Helvetica,sans-Serif" font-size="10.00">/help/HelpCommand.hpp</text>
</a>
</g>
</g>
<!-- Node4&#45;&gt;Node7 -->
<g id="edge6_Node000004_Node000007" class="edge">
<title>Node4&#45;&gt;Node7</title>
<g id="a_edge6_Node000004_Node000007"><a xlink:title=" ">
<path fill="none" stroke="#63b8ff" d="M509.62,-130.34C490.67,-120.65 468.49,-109.3 451.06,-100.38"/>
<polygon fill="#63b8ff" stroke="#63b8ff" points="507.91,-133.4 518.41,-134.84 511.1,-127.17 507.91,-133.4"/>
</a>
</g>
</g>
<!-- Node10 -->
<g id="Node000010" class="node">
<title>Node10</title>
<g id="a_Node000010"><a xlink:href="Commands_8hpp.html" target="_top" xlink:title=" ">
<polygon fill="white" stroke="#666666" points="338.25,-100 209.75,-100 209.75,-68 338.25,-68 338.25,-100"/>
<text text-anchor="start" x="217.75" y="-86.5" font-family="Helvetica,sans-Serif" font-size="10.00">src/bot_library/commands</text>
<text text-anchor="middle" x="274" y="-74.5" font-family="Helvetica,sans-Serif" font-size="10.00">/include/Commands.hpp</text>
</a>
</g>
</g>
<!-- Node4&#45;&gt;Node10 -->
<g id="edge9_Node000004_Node000010" class="edge">
<title>Node4&#45;&gt;Node10</title>
<g id="a_edge9_Node000004_Node000010"><a xlink:title=" ">
<path fill="none" stroke="#63b8ff" d="M491.55,-137.02C446.73,-126.3 384.92,-111.52 338.63,-100.46"/>
<polygon fill="#63b8ff" stroke="#63b8ff" points="490.54,-140.38 501.08,-139.3 492.17,-133.57 490.54,-140.38"/>
</a>
</g>
</g>
<!-- Node11 -->
<g id="Node000011" class="node">
<title>Node11</title>
<g id="a_Node000011"><a xlink:href="InitDatabase_8hpp.html" target="_top" xlink:title=" ">
<polygon fill="white" stroke="#666666" points="154,-100 0,-100 0,-68 154,-68 154,-100"/>
<text text-anchor="start" x="8" y="-86.5" font-family="Helvetica,sans-Serif" font-size="10.00">src/bot_library/commands</text>
<text text-anchor="middle" x="77" y="-74.5" font-family="Helvetica,sans-Serif" font-size="10.00">/init_database/InitDatabase.hpp</text>
</a>
</g>
</g>
<!-- Node4&#45;&gt;Node11 -->
<g id="edge12_Node000004_Node000011" class="edge">
<title>Node4&#45;&gt;Node11</title>
<g id="a_edge12_Node000004_Node000011"><a xlink:title=" ">
<path fill="none" stroke="#63b8ff" d="M491.51,-143.76C416.49,-134.34 282.4,-117.06 168,-100 163.57,-99.34 159.01,-98.64 154.42,-97.93"/>
<polygon fill="#63b8ff" stroke="#63b8ff" points="490.73,-147.19 501.09,-144.96 491.6,-140.24 490.73,-147.19"/>
</a>
</g>
</g>
<!-- Node13 -->
<g id="Node000013" class="node">
<title>Node13</title>
<g id="a_Node000013"><a xlink:href="PongCommand_8hpp.html" target="_top" xlink:title=" ">
<polygon fill="white" stroke="#666666" points="744.62,-100 615.38,-100 615.38,-68 744.62,-68 744.62,-100"/>
<text text-anchor="start" x="623.38" y="-86.5" font-family="Helvetica,sans-Serif" font-size="10.00">src/bot_library/commands</text>
<text text-anchor="middle" x="680" y="-74.5" font-family="Helvetica,sans-Serif" font-size="10.00">/pong/PongCommand.hpp</text>
</a>
</g>
</g>
<!-- Node4&#45;&gt;Node13 -->
<g id="edge14_Node000004_Node000013" class="edge">
<title>Node4&#45;&gt;Node13</title>
<g id="a_edge14_Node000004_Node000013"><a xlink:title=" ">
<path fill="none" stroke="#63b8ff" d="M590.7,-130.34C609.79,-120.65 632.14,-109.3 649.71,-100.38"/>
<polygon fill="#63b8ff" stroke="#63b8ff" points="589.16,-127.19 581.83,-134.84 592.33,-133.43 589.16,-127.19"/>
</a>
</g>
</g>
<!-- Node4&#45;&gt;Node15 -->
<g id="edge17_Node000004_Node000015" class="edge">
<title>Node4&#45;&gt;Node15</title>
<g id="a_edge17_Node000004_Node000015"><a xlink:title=" ">
<path fill="none" stroke="#63b8ff" d="M608.29,-138.47C658.53,-127.67 731.24,-112.04 785.09,-100.46"/>
<polygon fill="#63b8ff" stroke="#63b8ff" points="607.82,-134.99 598.78,-140.51 609.29,-141.83 607.82,-134.99"/>
</a>
</g>
</g>
<!-- Node8 -->
<g id="Node000008" class="node">
<title>Node8</title>
<g id="a_Node000008"><a xlink:href="Commands_8cpp.html" target="_top" xlink:title=" ">
<polygon fill="white" stroke="#666666" points="626.25,-32 497.75,-32 497.75,0 626.25,0 626.25,-32"/>
<text text-anchor="start" x="505.75" y="-18.5" font-family="Helvetica,sans-Serif" font-size="10.00">src/bot_library/commands</text>
<text text-anchor="middle" x="562" y="-6.5" font-family="Helvetica,sans-Serif" font-size="10.00">/Commands.cpp</text>
</a>
</g>
</g>
<!-- Node7&#45;&gt;Node8 -->
<g id="edge7_Node000007_Node000008" class="edge">
<title>Node7&#45;&gt;Node8</title>
<g id="a_edge7_Node000007_Node000008"><a xlink:title=" ">
<path fill="none" stroke="#63b8ff" d="M464.28,-62.74C485.17,-52.96 509.83,-41.42 529.15,-32.38"/>
<polygon fill="#63b8ff" stroke="#63b8ff" points="463,-59.47 455.43,-66.88 465.97,-65.81 463,-59.47"/>
</a>
</g>
</g>
<!-- Node9 -->
<g id="Node000009" class="node">
<title>Node9</title>
<g id="a_Node000009"><a xlink:href="HelpCommand_8cpp.html" target="_top" xlink:title=" ">
<polygon fill="white" stroke="#666666" points="479.25,-32 350.75,-32 350.75,0 479.25,0 479.25,-32"/>
<text text-anchor="start" x="358.75" y="-18.5" font-family="Helvetica,sans-Serif" font-size="10.00">src/bot_library/commands</text>
<text text-anchor="middle" x="415" y="-6.5" font-family="Helvetica,sans-Serif" font-size="10.00">/help/HelpCommand.cpp</text>
</a>
</g>
</g>
<!-- Node7&#45;&gt;Node9 -->
<g id="edge8_Node000007_Node000009" class="edge">
<title>Node7&#45;&gt;Node9</title>
<g id="a_edge8_Node000007_Node000009"><a xlink:title=" ">
<path fill="none" stroke="#63b8ff" d="M418.57,-56.31C417.83,-48.12 417.03,-39.38 416.38,-32.22"/>
<polygon fill="#63b8ff" stroke="#63b8ff" points="415.08,-56.54 419.47,-66.19 422.05,-55.91 415.08,-56.54"/>
</a>
</g>
</g>
<!-- Node10&#45;&gt;Node5 -->
<g id="edge10_Node000010_Node000005" class="edge">
<title>Node10&#45;&gt;Node5</title>
<g id="a_edge10_Node000010_Node000005"><a xlink:title=" ">
<path fill="none" stroke="#63b8ff" d="M266.42,-56.66C263.33,-45.92 259.95,-34.21 257.68,-26.32"/>
<polygon fill="#63b8ff" stroke="#63b8ff" points="263.04,-57.6 269.17,-66.24 269.77,-55.66 263.04,-57.6"/>
</a>
</g>
</g>
<!-- Node10&#45;&gt;Node8 -->
<g id="edge11_Node000010_Node000008" class="edge">
<title>Node10&#45;&gt;Node8</title>
<g id="a_edge11_Node000010_Node000008"><a xlink:title=" ">
<path fill="none" stroke="#63b8ff" d="M349.75,-65.64C395.74,-55.1 453.81,-41.79 497.58,-31.76"/>
<polygon fill="#63b8ff" stroke="#63b8ff" points="349.07,-62.2 340.11,-67.85 350.64,-69.03 349.07,-62.2"/>
</a>
</g>
</g>
<!-- Node12 -->
<g id="Node000012" class="node">
<title>Node12</title>
<g id="a_Node000012"><a xlink:href="InitDatabase_8cpp.html" target="_top" xlink:title=" ">
<polygon fill="white" stroke="#666666" points="154,-32 0,-32 0,0 154,0 154,-32"/>
<text text-anchor="start" x="8" y="-18.5" font-family="Helvetica,sans-Serif" font-size="10.00">src/bot_library/commands</text>
<text text-anchor="middle" x="77" y="-6.5" font-family="Helvetica,sans-Serif" font-size="10.00">/init_database/InitDatabase.cpp</text>
</a>
</g>
</g>
<!-- Node11&#45;&gt;Node12 -->
<g id="edge13_Node000011_Node000012" class="edge">
<title>Node11&#45;&gt;Node12</title>
<g id="a_edge13_Node000011_Node000012"><a xlink:title=" ">
<path fill="none" stroke="#63b8ff" d="M77,-56.31C77,-48.12 77,-39.38 77,-32.22"/>
<polygon fill="#63b8ff" stroke="#63b8ff" points="73.5,-56.18 77,-66.18 80.5,-56.18 73.5,-56.18"/>
</a>
</g>
</g>
<!-- Node13&#45;&gt;Node8 -->
<g id="edge15_Node000013_Node000008" class="edge">
<title>Node13&#45;&gt;Node8</title>
<g id="a_edge15_Node000013_Node000008"><a xlink:title=" ">
<path fill="none" stroke="#63b8ff" d="M642.58,-62.07C625.36,-52.44 605.29,-41.21 589.49,-32.38"/>
<polygon fill="#63b8ff" stroke="#63b8ff" points="640.58,-64.96 651.01,-66.79 643.99,-58.85 640.58,-64.96"/>
</a>
</g>
</g>
<!-- Node14 -->
<g id="Node000014" class="node">
<title>Node14</title>
<g id="a_Node000014"><a xlink:href="PongCommand_8cpp.html" target="_top" xlink:title=" ">
<polygon fill="white" stroke="#666666" points="773.62,-32 644.38,-32 644.38,0 773.62,0 773.62,-32"/>
<text text-anchor="start" x="652.38" y="-18.5" font-family="Helvetica,sans-Serif" font-size="10.00">src/bot_library/commands</text>
<text text-anchor="middle" x="709" y="-6.5" font-family="Helvetica,sans-Serif" font-size="10.00">/pong/PongCommand.cpp</text>
</a>
</g>
</g>
<!-- Node13&#45;&gt;Node14 -->
<g id="edge16_Node000013_Node000014" class="edge">
<title>Node13&#45;&gt;Node14</title>
<g id="a_edge16_Node000013_Node000014"><a xlink:title=" ">
<path fill="none" stroke="#63b8ff" d="M691.35,-57.17C695.06,-48.73 699.06,-39.63 702.31,-32.22"/>
<polygon fill="#63b8ff" stroke="#63b8ff" points="688.15,-55.74 687.33,-66.31 694.56,-58.56 688.15,-55.74"/>
</a>
</g>
</g>
<!-- Node15&#45;&gt;Node8 -->
<g id="edge18_Node000015_Node000008" class="edge">
<title>Node15&#45;&gt;Node8</title>
<g id="a_edge18_Node000015_Node000008"><a xlink:title=" ">
<path fill="none" stroke="#63b8ff" d="M776.74,-65.04C729.61,-54.5 670.83,-41.35 626.69,-31.47"/>
<polygon fill="#63b8ff" stroke="#63b8ff" points="775.84,-68.43 786.36,-67.2 777.36,-61.6 775.84,-68.43"/>
</a>
</g>
</g>
<!-- Node15&#45;&gt;Node16 -->
<g id="edge19_Node000015_Node000016" class="edge">
<title>Node15&#45;&gt;Node16</title>
<g id="a_edge19_Node000015_Node000016"><a xlink:title=" ">
<path fill="none" stroke="#63b8ff" d="M883.11,-60.32C893.7,-51.13 905.65,-40.75 915.21,-32.45"/>
<polygon fill="#63b8ff" stroke="#63b8ff" points="881.03,-57.5 875.77,-66.7 885.61,-62.79 881.03,-57.5"/>
</a>
</g>
</g>
<!-- Node18&#45;&gt;Node17 -->
<g id="edge22_Node000018_Node000017" class="edge">
<title>Node18&#45;&gt;Node17</title>
<g id="a_edge22_Node000018_Node000017"><a xlink:title=" ">
<path fill="none" stroke="#63b8ff" d="M1137.46,-125.74C1132.5,-117.14 1127.12,-107.79 1122.77,-100.22"/>
<polygon fill="#63b8ff" stroke="#63b8ff" points="1134.41,-127.46 1142.43,-134.38 1140.47,-123.97 1134.41,-127.46"/>
</a>
</g>
</g>
<!-- Node19 -->
<g id="Node000019" class="node">
<title>Node19</title>
<g id="a_Node000019"><a xlink:href="ChallengeRoleDTO_8cpp.html" target="_top" xlink:title=" ">
<polygon fill="white" stroke="#666666" points="1425.88,-100 1238.12,-100 1238.12,-68 1425.88,-68 1425.88,-100"/>
<text text-anchor="start" x="1246.12" y="-86.5" font-family="Helvetica,sans-Serif" font-size="10.00">src/bot_library/commands</text>
<text text-anchor="middle" x="1332" y="-74.5" font-family="Helvetica,sans-Serif" font-size="10.00">/challenge_role/ChallengeRoleDTO.cpp</text>
</a>
</g>
</g>
<!-- Node18&#45;&gt;Node19 -->
<g id="edge23_Node000018_Node000019" class="edge">
<title>Node18&#45;&gt;Node19</title>
<g id="a_edge23_Node000018_Node000019"><a xlink:title=" ">
<path fill="none" stroke="#63b8ff" d="M1204.67,-131.69C1231.76,-121.76 1264.33,-109.81 1289.75,-100.49"/>
<polygon fill="#63b8ff" stroke="#63b8ff" points="1203.81,-128.28 1195.62,-135 1206.22,-134.85 1203.81,-128.28"/>
</a>
</g>
</g>
</g>
</svg>
