<?xml version="1.0" encoding="UTF-8" standalone="no"?>
<!DOCTYPE svg PUBLIC "-//W3C//DTD SVG 1.1//EN"
 "http://www.w3.org/Graphics/SVG/1.1/DTD/svg11.dtd">
<!-- Generated by graphviz version 9.0.0 (0)
 -->
<!-- Title: src/bot_library/bot/core/interfaces/include/IMemberCommand.hpp Pages: 1 -->
<svg width="1675pt" height="324pt"
 viewBox="0.00 0.00 1674.94 324.00" xmlns="http://www.w3.org/2000/svg" xmlns:xlink="http://www.w3.org/1999/xlink">
<g id="graph0" class="graph" transform="scale(1 1) rotate(0) translate(4 320)">
<title>src/bot_library/bot/core/interfaces/include/IMemberCommand.hpp</title>
<!-- Node1 -->
<g id="Node000001" class="node">
<title>Node1</title>
<g id="a_Node000001"><a xlink:title=" ">
<polygon fill="#999999" stroke="#666666" points="1078.5,-316 957.5,-316 957.5,-272 1078.5,-272 1078.5,-316"/>
<text text-anchor="start" x="965.5" y="-302.5" font-family="Helvetica,sans-Serif" font-size="10.00">src/bot_library/bot</text>
<text text-anchor="start" x="965.5" y="-290.5" font-family="Helvetica,sans-Serif" font-size="10.00">/core/interfaces/include</text>
<text text-anchor="middle" x="1018" y="-278.5" font-family="Helvetica,sans-Serif" font-size="10.00">/IMemberCommand.hpp</text>
</a>
</g>
</g>
<!-- Node2 -->
<g id="Node000002" class="node">
<title>Node2</title>
<g id="a_Node000002"><a xlink:href="Core_8hpp.html" target="_top" xlink:title=" ">
<polygon fill="white" stroke="#666666" points="1263.12,-236 1148.88,-236 1148.88,-204 1263.12,-204 1263.12,-236"/>
<text text-anchor="start" x="1156.88" y="-222.5" font-family="Helvetica,sans-Serif" font-size="10.00">src/bot_library/bot</text>
<text text-anchor="middle" x="1206" y="-210.5" font-family="Helvetica,sans-Serif" font-size="10.00">/core/include/Core.hpp</text>
</a>
</g>
</g>
<!-- Node1&#45;&gt;Node2 -->
<g id="edge1_Node000001_Node000002" class="edge">
<title>Node1&#45;&gt;Node2</title>
<g id="a_edge1_Node000001_Node000002"><a xlink:title=" ">
<path fill="none" stroke="#63b8ff" d="M1084.47,-267.54C1111.53,-257.18 1141.92,-245.54 1165.54,-236.5"/>
<polygon fill="#63b8ff" stroke="#63b8ff" points="1083.4,-264.21 1075.31,-271.05 1085.9,-270.74 1083.4,-264.21"/>
</a>
</g>
</g>
<!-- Node4 -->
<g id="Node000004" class="node">
<title>Node4</title>
<g id="a_Node000004"><a xlink:href="Bot_8hpp.html" target="_top" xlink:title=" ">
<polygon fill="white" stroke="#666666" points="580,-168 486,-168 486,-136 580,-136 580,-168"/>
<text text-anchor="start" x="494" y="-154.5" font-family="Helvetica,sans-Serif" font-size="10.00">src/bot_library/bot</text>
<text text-anchor="middle" x="533" y="-142.5" font-family="Helvetica,sans-Serif" font-size="10.00">/include/Bot.hpp</text>
</a>
</g>
</g>
<!-- Node1&#45;&gt;Node4 -->
<g id="edge27_Node000001_Node000004" class="edge">
<title>Node1&#45;&gt;Node4</title>
<g id="a_edge27_Node000001_Node000004"><a xlink:title=" ">
<path fill="none" stroke="#63b8ff" d="M946.09,-272.24C845.49,-243.2 665.5,-191.25 580.25,-166.64"/>
<polygon fill="#63b8ff" stroke="#63b8ff" points="945.03,-275.58 955.61,-274.99 946.97,-268.85 945.03,-275.58"/>
</a>
</g>
</g>
<!-- Node15 -->
<g id="Node000015" class="node">
<title>Node15</title>
<g id="a_Node000015"><a xlink:href="SetChannelCommand_8hpp.html" target="_top" xlink:title=" ">
<polygon fill="white" stroke="#666666" points="951.62,-100 762.38,-100 762.38,-68 951.62,-68 951.62,-100"/>
<text text-anchor="start" x="770.38" y="-86.5" font-family="Helvetica,sans-Serif" font-size="10.00">src/bot_library/commands</text>
<text text-anchor="middle" x="857" y="-74.5" font-family="Helvetica,sans-Serif" font-size="10.00">/set_channel/SetChannelCommand.hpp</text>
</a>
</g>
</g>
<!-- Node1&#45;&gt;Node15 -->
<g id="edge29_Node000001_Node000015" class="edge">
<title>Node1&#45;&gt;Node15</title>
<g id="a_edge29_Node000001_Node000015"><a xlink:title=" ">
<path fill="none" stroke="#63b8ff" d="M994.39,-262.49C959.43,-217.33 895.21,-134.36 868.81,-100.26"/>
<polygon fill="#63b8ff" stroke="#63b8ff" points="991.56,-264.56 1000.45,-270.33 997.1,-260.28 991.56,-264.56"/>
</a>
</g>
</g>
<!-- Node16 -->
<g id="Node000016" class="node">
<title>Node16</title>
<g id="a_Node000016"><a xlink:href="SetChannelCommand_8cpp.html" target="_top" xlink:title=" ">
<polygon fill="white" stroke="#666666" points="1074.62,-32 885.38,-32 885.38,0 1074.62,0 1074.62,-32"/>
<text text-anchor="start" x="893.38" y="-18.5" font-family="Helvetica,sans-Serif" font-size="10.00">src/bot_library/commands</text>
<text text-anchor="middle" x="980" y="-6.5" font-family="Helvetica,sans-Serif" font-size="10.00">/set_channel/SetChannelCommand.cpp</text>
</a>
</g>
</g>
<!-- Node1&#45;&gt;Node16 -->
<g id="edge28_Node000001_Node000016" class="edge">
<title>Node1&#45;&gt;Node16</title>
<g id="a_edge28_Node000001_Node000016"><a xlink:title=" ">
<path fill="none" stroke="#63b8ff" d="M1090.42,-289.24C1269.96,-278.31 1717.25,-240.38 1662,-136 1636.86,-88.5 1612.63,-86.04 1562,-68 1474.88,-36.96 1216.51,-24.26 1075.11,-19.53"/>
<polygon fill="#63b8ff" stroke="#63b8ff" points="1090.28,-285.74 1080.5,-289.83 1090.69,-292.73 1090.28,-285.74"/>
</a>
</g>
</g>
<!-- Node3 -->
<g id="Node000003" class="node">
<title>Node3</title>
<g id="a_Node000003"><a xlink:href="Core_8cpp.html" target="_top" xlink:title=" ">
<polygon fill="white" stroke="#666666" points="1635,-168 1541,-168 1541,-136 1635,-136 1635,-168"/>
<text text-anchor="start" x="1549" y="-154.5" font-family="Helvetica,sans-Serif" font-size="10.00">src/bot_library/bot</text>
<text text-anchor="middle" x="1588" y="-142.5" font-family="Helvetica,sans-Serif" font-size="10.00">/core/Core.cpp</text>
</a>
</g>
</g>
<!-- Node2&#45;&gt;Node3 -->
<g id="edge2_Node000002_Node000003" class="edge">
<title>Node2&#45;&gt;Node3</title>
<g id="a_edge2_Node000002_Node000003"><a xlink:title=" ">
<path fill="none" stroke="#63b8ff" d="M1274.58,-210.43C1340.81,-201.65 1443.79,-186.66 1532,-168 1534.86,-167.4 1537.78,-166.74 1540.73,-166.04"/>
<polygon fill="#63b8ff" stroke="#63b8ff" points="1274.42,-206.92 1264.96,-211.7 1275.33,-213.87 1274.42,-206.92"/>
</a>
</g>
</g>
<!-- Node2&#45;&gt;Node4 -->
<g id="edge3_Node000002_Node000004" class="edge">
<title>Node2&#45;&gt;Node4</title>
<g id="a_edge3_Node000002_Node000004"><a xlink:title=" ">
<path fill="none" stroke="#63b8ff" d="M1137.49,-212.28C1000.75,-198.87 697.09,-169.09 580.17,-157.63"/>
<polygon fill="#63b8ff" stroke="#63b8ff" points="1136.82,-215.73 1147.11,-213.23 1137.5,-208.77 1136.82,-215.73"/>
</a>
</g>
</g>
<!-- Node2&#45;&gt;Node16 -->
<g id="edge26_Node000002_Node000016" class="edge">
<title>Node2&#45;&gt;Node16</title>
<g id="a_edge26_Node000002_Node000016"><a xlink:title=" ">
<path fill="none" stroke="#63b8ff" d="M1137.45,-211.29C1082.56,-203.61 1011.74,-189.77 993,-168 959.69,-129.32 969.4,-62.55 976.06,-32.47"/>
<polygon fill="#63b8ff" stroke="#63b8ff" points="1136.67,-214.72 1147.04,-212.59 1137.6,-207.78 1136.67,-214.72"/>
</a>
</g>
</g>
<!-- Node17 -->
<g id="Node000017" class="node">
<title>Node17</title>
<g id="a_Node000017"><a xlink:href="ChallengeRoleCommand_8cpp.html" target="_top" xlink:title=" ">
<polygon fill="white" stroke="#666666" points="1552.88,-100 1341.12,-100 1341.12,-68 1552.88,-68 1552.88,-100"/>
<text text-anchor="start" x="1349.12" y="-86.5" font-family="Helvetica,sans-Serif" font-size="10.00">src/bot_library/commands</text>
<text text-anchor="middle" x="1447" y="-74.5" font-family="Helvetica,sans-Serif" font-size="10.00">/challenge_role/ChallengeRoleCommand.cpp</text>
</a>
</g>
</g>
<!-- Node2&#45;&gt;Node17 -->
<g id="edge20_Node000002_Node000017" class="edge">
<title>Node2&#45;&gt;Node17</title>
<g id="a_edge20_Node000002_Node000017"><a xlink:title=" ">
<path fill="none" stroke="#63b8ff" d="M1274.54,-215.94C1391.61,-210.01 1619.89,-195.08 1644,-168 1678.49,-129.26 1616.62,-108.08 1553.31,-96.84"/>
<polygon fill="#63b8ff" stroke="#63b8ff" points="1274.55,-212.44 1264.74,-216.43 1274.9,-219.43 1274.55,-212.44"/>
</a>
</g>
</g>
<!-- Node18 -->
<g id="Node000018" class="node">
<title>Node18</title>
<g id="a_Node000018"><a xlink:href="ChallengeRoleCommand_8hpp.html" target="_top" xlink:title=" ">
<polygon fill="white" stroke="#666666" points="1213.88,-168 1002.12,-168 1002.12,-136 1213.88,-136 1213.88,-168"/>
<text text-anchor="start" x="1010.12" y="-154.5" font-family="Helvetica,sans-Serif" font-size="10.00">src/bot_library/commands</text>
<text text-anchor="middle" x="1108" y="-142.5" font-family="Helvetica,sans-Serif" font-size="10.00">/challenge_role/ChallengeRoleCommand.hpp</text>
</a>
</g>
</g>
<!-- Node2&#45;&gt;Node18 -->
<g id="edge21_Node000002_Node000018" class="edge">
<title>Node2&#45;&gt;Node18</title>
<g id="a_edge21_Node000002_Node000018"><a xlink:title=" ">
<path fill="none" stroke="#63b8ff" d="M1173.96,-197.42C1159.91,-187.96 1143.76,-177.08 1130.95,-168.45"/>
<polygon fill="#63b8ff" stroke="#63b8ff" points="1171.77,-200.16 1182.02,-202.85 1175.68,-194.36 1171.77,-200.16"/>
</a>
</g>
</g>
<!-- Node20 -->
<g id="Node000020" class="node">
<title>Node20</title>
<g id="a_Node000020"><a xlink:href="resource__man_8hpp.html" target="_top" xlink:title=" ">
<polygon fill="white" stroke="#666666" points="1376.5,-168 1231.5,-168 1231.5,-136 1376.5,-136 1376.5,-168"/>
<text text-anchor="start" x="1239.5" y="-154.5" font-family="Helvetica,sans-Serif" font-size="10.00">src/bot_library/commands</text>
<text text-anchor="middle" x="1304" y="-142.5" font-family="Helvetica,sans-Serif" font-size="10.00">/resources/resource_man.hpp</text>
</a>
</g>
</g>
<!-- Node2&#45;&gt;Node20 -->
<g id="edge24_Node000002_Node000020" class="edge">
<title>Node2&#45;&gt;Node20</title>
<g id="a_edge24_Node000002_Node000020"><a xlink:title=" ">
<path fill="none" stroke="#63b8ff" d="M1238.04,-197.42C1252.09,-187.96 1268.24,-177.08 1281.05,-168.45"/>
<polygon fill="#63b8ff" stroke="#63b8ff" points="1236.32,-194.36 1229.98,-202.85 1240.23,-200.16 1236.32,-194.36"/>
</a>
</g>
</g>
<!-- Node21 -->
<g id="Node000021" class="node">
<title>Node21</title>
<g id="a_Node000021"><a xlink:href="roles_8hpp.html" target="_top" xlink:title=" ">
<polygon fill="white" stroke="#666666" points="1523.25,-168 1394.75,-168 1394.75,-136 1523.25,-136 1523.25,-168"/>
<text text-anchor="start" x="1402.75" y="-154.5" font-family="Helvetica,sans-Serif" font-size="10.00">src/bot_library/commands</text>
<text text-anchor="middle" x="1459" y="-142.5" font-family="Helvetica,sans-Serif" font-size="10.00">/roles/roles.hpp</text>
</a>
</g>
</g>
<!-- Node2&#45;&gt;Node21 -->
<g id="edge25_Node000002_Node000021" class="edge">
<title>Node2&#45;&gt;Node21</title>
<g id="a_edge25_Node000002_Node000021"><a xlink:title=" ">
<path fill="none" stroke="#63b8ff" d="M1274.43,-201.15C1313.55,-190.94 1362.12,-178.27 1399.62,-168.49"/>
<polygon fill="#63b8ff" stroke="#63b8ff" points="1273.67,-197.73 1264.87,-203.64 1275.43,-204.5 1273.67,-197.73"/>
</a>
</g>
</g>
<!-- Node5 -->
<g id="Node000005" class="node">
<title>Node5</title>
<g id="a_Node000005"><a xlink:href="BotLibrary_8cpp.html" target="_top" xlink:title=" ">
<polygon fill="white" stroke="#666666" points="380.38,-26 237.62,-26 237.62,-6 380.38,-6 380.38,-26"/>
<text text-anchor="middle" x="309" y="-12.5" font-family="Helvetica,sans-Serif" font-size="10.00">src/bot_library/BotLibrary.cpp</text>
</a>
</g>
</g>
<!-- Node4&#45;&gt;Node5 -->
<g id="edge4_Node000004_Node000005" class="edge">
<title>Node4&#45;&gt;Node5</title>
<g id="a_edge4_Node000004_Node000005"><a xlink:title=" ">
<path fill="none" stroke="#63b8ff" d="M474.48,-145.34C416.48,-138.4 333.4,-124.44 313,-100 295.34,-78.85 301.81,-43.06 306.23,-26.24"/>
<polygon fill="#63b8ff" stroke="#63b8ff" points="473.88,-148.79 484.22,-146.46 474.69,-141.84 473.88,-148.79"/>
</a>
</g>
</g>
<!-- Node6 -->
<g id="Node000006" class="node">
<title>Node6</title>
<g id="a_Node000006"><a xlink:href="Bot_8cpp.html" target="_top" xlink:title=" ">
<polygon fill="white" stroke="#666666" points="266,-100 172,-100 172,-68 266,-68 266,-100"/>
<text text-anchor="start" x="180" y="-86.5" font-family="Helvetica,sans-Serif" font-size="10.00">src/bot_library/bot</text>
<text text-anchor="middle" x="219" y="-74.5" font-family="Helvetica,sans-Serif" font-size="10.00">/Bot.cpp</text>
</a>
</g>
</g>
<!-- Node4&#45;&gt;Node6 -->
<g id="edge5_Node000004_Node000006" class="edge">
<title>Node4&#45;&gt;Node6</title>
<g id="a_edge5_Node000004_Node000006"><a xlink:title=" ">
<path fill="none" stroke="#63b8ff" d="M474.57,-139.95C423.2,-130.06 346.47,-114.86 280,-100 275.53,-99 270.88,-97.92 266.24,-96.83"/>
<polygon fill="#63b8ff" stroke="#63b8ff" points="473.81,-143.37 484.29,-141.81 475.13,-136.49 473.81,-143.37"/>
</a>
</g>
</g>
<!-- Node7 -->
<g id="Node000007" class="node">
<title>Node7</title>
<g id="a_Node000007"><a xlink:href="HelpCommand_8hpp.html" target="_top" xlink:title=" ">
<polygon fill="white" stroke="#666666" points="597.25,-100 468.75,-100 468.75,-68 597.25,-68 597.25,-100"/>
<text text-anchor="start" x="476.75" y="-86.5" font-family="Helvetica,sans-Serif" font-size="10.00">src/bot_library/commands</text>
<text text-anchor="middle" x="533" y="-74.5" font-family="Helvetica,sans-Serif" font-size="10.00">/help/HelpCommand.hpp</text>
</a>
</g>
</g>
<!-- Node4&#45;&gt;Node7 -->
<g id="edge6_Node000004_Node000007" class="edge">
<title>Node4&#45;&gt;Node7</title>
<g id="a_edge6_Node000004_Node000007"><a xlink:title=" ">
<path fill="none" stroke="#63b8ff" d="M533,-124.31C533,-116.12 533,-107.38 533,-100.22"/>
<polygon fill="#63b8ff" stroke="#63b8ff" points="529.5,-124.18 533,-134.18 536.5,-124.18 529.5,-124.18"/>
</a>
</g>
</g>
<!-- Node10 -->
<g id="Node000010" class="node">
<title>Node10</title>
<g id="a_Node000010"><a xlink:href="Commands_8hpp.html" target="_top" xlink:title=" ">
<polygon fill="white" stroke="#666666" points="450.25,-100 321.75,-100 321.75,-68 450.25,-68 450.25,-100"/>
<text text-anchor="start" x="329.75" y="-86.5" font-family="Helvetica,sans-Serif" font-size="10.00">src/bot_library/commands</text>
<text text-anchor="middle" x="386" y="-74.5" font-family="Helvetica,sans-Serif" font-size="10.00">/include/Commands.hpp</text>
</a>
</g>
</g>
<!-- Node4&#45;&gt;Node10 -->
<g id="edge9_Node000004_Node000010" class="edge">
<title>Node4&#45;&gt;Node10</title>
<g id="a_edge9_Node000004_Node000010"><a xlink:title=" ">
<path fill="none" stroke="#63b8ff" d="M488.21,-130.89C466.46,-121.12 440.71,-109.56 420.5,-100.49"/>
<polygon fill="#63b8ff" stroke="#63b8ff" points="486.6,-134 497.15,-134.91 489.47,-127.62 486.6,-134"/>
</a>
</g>
</g>
<!-- Node11 -->
<g id="Node000011" class="node">
<title>Node11</title>
<g id="a_Node000011"><a xlink:href="InitDatabase_8hpp.html" target="_top" xlink:title=" ">
<polygon fill="white" stroke="#666666" points="154,-100 0,-100 0,-68 154,-68 154,-100"/>
<text text-anchor="start" x="8" y="-86.5" font-family="Helvetica,sans-Serif" font-size="10.00">src/bot_library/commands</text>
<text text-anchor="middle" x="77" y="-74.5" font-family="Helvetica,sans-Serif" font-size="10.00">/init_database/InitDatabase.hpp</text>
</a>
</g>
</g>
<!-- Node4&#45;&gt;Node11 -->
<g id="edge12_Node000004_Node000011" class="edge">
<title>Node4&#45;&gt;Node11</title>
<g id="a_edge12_Node000004_Node000011"><a xlink:title=" ">
<path fill="none" stroke="#63b8ff" d="M474.38,-143.58C401.34,-134.18 272.77,-117.13 163,-100 160.15,-99.56 157.26,-99.1 154.33,-98.62"/>
<polygon fill="#63b8ff" stroke="#63b8ff" points="473.75,-147.02 484.11,-144.83 474.64,-140.08 473.75,-147.02"/>
</a>
</g>
</g>
<!-- Node13 -->
<g id="Node000013" class="node">
<title>Node13</title>
<g id="a_Node000013"><a xlink:href="PongCommand_8hpp.html" target="_top" xlink:title=" ">
<polygon fill="white" stroke="#666666" points="744.62,-100 615.38,-100 615.38,-68 744.62,-68 744.62,-100"/>
<text text-anchor="start" x="623.38" y="-86.5" font-family="Helvetica,sans-Serif" font-size="10.00">src/bot_library/commands</text>
<text text-anchor="middle" x="680" y="-74.5" font-family="Helvetica,sans-Serif" font-size="10.00">/pong/PongCommand.hpp</text>
</a>
</g>
</g>
<!-- Node4&#45;&gt;Node13 -->
<g id="edge14_Node000004_Node000013" class="edge">
<title>Node4&#45;&gt;Node13</title>
<g id="a_edge14_Node000004_Node000013"><a xlink:title=" ">
<path fill="none" stroke="#63b8ff" d="M577.79,-130.89C599.54,-121.12 625.29,-109.56 645.5,-100.49"/>
<polygon fill="#63b8ff" stroke="#63b8ff" points="576.53,-127.62 568.85,-134.91 579.4,-134 576.53,-127.62"/>
</a>
</g>
</g>
<!-- Node4&#45;&gt;Node15 -->
<g id="edge17_Node000004_Node000015" class="edge">
<title>Node4&#45;&gt;Node15</title>
<g id="a_edge17_Node000004_Node000015"><a xlink:title=" ">
<path fill="none" stroke="#63b8ff" d="M591.72,-139.04C644.82,-128.22 723.31,-112.23 781.15,-100.45"/>
<polygon fill="#63b8ff" stroke="#63b8ff" points="591.04,-135.6 581.94,-141.03 592.44,-142.46 591.04,-135.6"/>
</a>
</g>
</g>
<!-- Node8 -->
<g id="Node000008" class="node">
<title>Node8</title>
<g id="a_Node000008"><a xlink:href="Commands_8cpp.html" target="_top" xlink:title=" ">
<polygon fill="white" stroke="#666666" points="690.25,-32 561.75,-32 561.75,0 690.25,0 690.25,-32"/>
<text text-anchor="start" x="569.75" y="-18.5" font-family="Helvetica,sans-Serif" font-size="10.00">src/bot_library/commands</text>
<text text-anchor="middle" x="626" y="-6.5" font-family="Helvetica,sans-Serif" font-size="10.00">/Commands.cpp</text>
</a>
</g>
</g>
<!-- Node7&#45;&gt;Node8 -->
<g id="edge7_Node000007_Node000008" class="edge">
<title>Node7&#45;&gt;Node8</title>
<g id="a_edge7_Node000007_Node000008"><a xlink:title=" ">
<path fill="none" stroke="#63b8ff" d="M563.79,-61.15C577.03,-51.75 592.19,-41 604.22,-32.45"/>
<polygon fill="#63b8ff" stroke="#63b8ff" points="561.93,-58.17 555.8,-66.82 565.98,-63.88 561.93,-58.17"/>
</a>
</g>
</g>
<!-- Node9 -->
<g id="Node000009" class="node">
<title>Node9</title>
<g id="a_Node000009"><a xlink:href="HelpCommand_8cpp.html" target="_top" xlink:title=" ">
<polygon fill="white" stroke="#666666" points="543.25,-32 414.75,-32 414.75,0 543.25,0 543.25,-32"/>
<text text-anchor="start" x="422.75" y="-18.5" font-family="Helvetica,sans-Serif" font-size="10.00">src/bot_library/commands</text>
<text text-anchor="middle" x="479" y="-6.5" font-family="Helvetica,sans-Serif" font-size="10.00">/help/HelpCommand.cpp</text>
</a>
</g>
</g>
<!-- Node7&#45;&gt;Node9 -->
<g id="edge8_Node000007_Node000009" class="edge">
<title>Node7&#45;&gt;Node9</title>
<g id="a_edge8_Node000007_Node000009"><a xlink:title=" ">
<path fill="none" stroke="#63b8ff" d="M513.26,-58.87C505.97,-49.96 497.92,-40.12 491.46,-32.22"/>
<polygon fill="#63b8ff" stroke="#63b8ff" points="510.48,-61 519.52,-66.52 515.89,-56.57 510.48,-61"/>
</a>
</g>
</g>
<!-- Node10&#45;&gt;Node5 -->
<g id="edge10_Node000010_Node000005" class="edge">
<title>Node10&#45;&gt;Node5</title>
<g id="a_edge10_Node000010_Node000005"><a xlink:title=" ">
<path fill="none" stroke="#63b8ff" d="M359.61,-60.38C346,-48.72 330.16,-35.13 319.87,-26.32"/>
<polygon fill="#63b8ff" stroke="#63b8ff" points="357.12,-62.86 366.99,-66.71 361.68,-57.54 357.12,-62.86"/>
</a>
</g>
</g>
<!-- Node10&#45;&gt;Node8 -->
<g id="edge11_Node000010_Node000008" class="edge">
<title>Node10&#45;&gt;Node8</title>
<g id="a_edge11_Node000010_Node000008"><a xlink:title=" ">
<path fill="none" stroke="#63b8ff" d="M453.37,-64.47C490.03,-54.39 534.88,-42.06 569.67,-32.49"/>
<polygon fill="#63b8ff" stroke="#63b8ff" points="452.44,-61.1 443.73,-67.12 454.3,-67.85 452.44,-61.1"/>
</a>
</g>
</g>
<!-- Node12 -->
<g id="Node000012" class="node">
<title>Node12</title>
<g id="a_Node000012"><a xlink:href="InitDatabase_8cpp.html" target="_top" xlink:title=" ">
<polygon fill="white" stroke="#666666" points="154,-32 0,-32 0,0 154,0 154,-32"/>
<text text-anchor="start" x="8" y="-18.5" font-family="Helvetica,sans-Serif" font-size="10.00">src/bot_library/commands</text>
<text text-anchor="middle" x="77" y="-6.5" font-family="Helvetica,sans-Serif" font-size="10.00">/init_database/InitDatabase.cpp</text>
</a>
</g>
</g>
<!-- Node11&#45;&gt;Node12 -->
<g id="edge13_Node000011_Node000012" class="edge">
<title>Node11&#45;&gt;Node12</title>
<g id="a_edge13_Node000011_Node000012"><a xlink:title=" ">
<path fill="none" stroke="#63b8ff" d="M77,-56.31C77,-48.12 77,-39.38 77,-32.22"/>
<polygon fill="#63b8ff" stroke="#63b8ff" points="73.5,-56.18 77,-66.18 80.5,-56.18 73.5,-56.18"/>
</a>
</g>
</g>
<!-- Node13&#45;&gt;Node8 -->
<g id="edge15_Node000013_Node000008" class="edge">
<title>Node13&#45;&gt;Node8</title>
<g id="a_edge15_Node000013_Node000008"><a xlink:title=" ">
<path fill="none" stroke="#63b8ff" d="M660.26,-58.87C652.97,-49.96 644.92,-40.12 638.46,-32.22"/>
<polygon fill="#63b8ff" stroke="#63b8ff" points="657.48,-61 666.52,-66.52 662.89,-56.57 657.48,-61"/>
</a>
</g>
</g>
<!-- Node14 -->
<g id="Node000014" class="node">
<title>Node14</title>
<g id="a_Node000014"><a xlink:href="PongCommand_8cpp.html" target="_top" xlink:title=" ">
<polygon fill="white" stroke="#666666" points="837.62,-32 708.38,-32 708.38,0 837.62,0 837.62,-32"/>
<text text-anchor="start" x="716.38" y="-18.5" font-family="Helvetica,sans-Serif" font-size="10.00">src/bot_library/commands</text>
<text text-anchor="middle" x="773" y="-6.5" font-family="Helvetica,sans-Serif" font-size="10.00">/pong/PongCommand.cpp</text>
</a>
</g>
</g>
<!-- Node13&#45;&gt;Node14 -->
<g id="edge16_Node000013_Node000014" class="edge">
<title>Node13&#45;&gt;Node14</title>
<g id="a_edge16_Node000013_Node000014"><a xlink:title=" ">
<path fill="none" stroke="#63b8ff" d="M710.79,-61.15C724.03,-51.75 739.19,-41 751.22,-32.45"/>
<polygon fill="#63b8ff" stroke="#63b8ff" points="708.93,-58.17 702.8,-66.82 712.98,-63.88 708.93,-58.17"/>
</a>
</g>
</g>
<!-- Node15&#45;&gt;Node8 -->
<g id="edge18_Node000015_Node000008" class="edge">
<title>Node15&#45;&gt;Node8</title>
<g id="a_edge18_Node000015_Node000008"><a xlink:title=" ">
<path fill="none" stroke="#63b8ff" d="M792.16,-64.47C756.87,-54.39 713.71,-42.06 680.22,-32.49"/>
<polygon fill="#63b8ff" stroke="#63b8ff" points="790.81,-67.73 801.39,-67.11 792.73,-61 790.81,-67.73"/>
</a>
</g>
</g>
<!-- Node15&#45;&gt;Node16 -->
<g id="edge19_Node000015_Node000016" class="edge">
<title>Node15&#45;&gt;Node16</title>
<g id="a_edge19_Node000015_Node000016"><a xlink:title=" ">
<path fill="none" stroke="#63b8ff" d="M895.76,-62.2C913.76,-52.54 934.8,-41.26 951.34,-32.38"/>
<polygon fill="#63b8ff" stroke="#63b8ff" points="894.33,-59 887.17,-66.81 897.64,-65.17 894.33,-59"/>
</a>
</g>
</g>
<!-- Node18&#45;&gt;Node17 -->
<g id="edge22_Node000018_Node000017" class="edge">
<title>Node18&#45;&gt;Node17</title>
<g id="a_edge22_Node000018_Node000017"><a xlink:title=" ">
<path fill="none" stroke="#63b8ff" d="M1198.5,-133.38C1251.11,-123.14 1316.8,-110.35 1367.43,-100.49"/>
<polygon fill="#63b8ff" stroke="#63b8ff" points="1198.11,-129.89 1188.97,-135.24 1199.45,-136.76 1198.11,-129.89"/>
</a>
</g>
</g>
<!-- Node19 -->
<g id="Node000019" class="node">
<title>Node19</title>
<g id="a_Node000019"><a xlink:href="ChallengeRoleDTO_8cpp.html" target="_top" xlink:title=" ">
<polygon fill="white" stroke="#666666" points="1201.88,-100 1014.12,-100 1014.12,-68 1201.88,-68 1201.88,-100"/>
<text text-anchor="start" x="1022.12" y="-86.5" font-family="Helvetica,sans-Serif" font-size="10.00">src/bot_library/commands</text>
<text text-anchor="middle" x="1108" y="-74.5" font-family="Helvetica,sans-Serif" font-size="10.00">/challenge_role/ChallengeRoleDTO.cpp</text>
</a>
</g>
</g>
<!-- Node18&#45;&gt;Node19 -->
<g id="edge23_Node000018_Node000019" class="edge">
<title>Node18&#45;&gt;Node19</title>
<g id="a_edge23_Node000018_Node000019"><a xlink:title=" ">
<path fill="none" stroke="#63b8ff" d="M1108,-124.31C1108,-116.12 1108,-107.38 1108,-100.22"/>
<polygon fill="#63b8ff" stroke="#63b8ff" points="1104.5,-124.18 1108,-134.18 1111.5,-124.18 1104.5,-124.18"/>
</a>
</g>
</g>
</g>
</svg>
