<?xml version="1.0" encoding="UTF-8" standalone="no"?>
<!DOCTYPE svg PUBLIC "-//W3C//DTD SVG 1.1//EN"
 "http://www.w3.org/Graphics/SVG/1.1/DTD/svg11.dtd">
<!-- Generated by graphviz version 9.0.0 (0)
 -->
<!-- Title: src/bot_library/bot/core/interfaces/include/IMemberCommand.hpp Pages: 1 -->
<svg width="1708pt" height="324pt"
 viewBox="0.00 0.00 1708.18 324.00" xmlns="http://www.w3.org/2000/svg" xmlns:xlink="http://www.w3.org/1999/xlink">
<g id="graph0" class="graph" transform="scale(1 1) rotate(0) translate(4 320)">
<title>src/bot_library/bot/core/interfaces/include/IMemberCommand.hpp</title>
<!-- Node1 -->
<g id="Node000001" class="node">
<title>Node1</title>
<g id="a_Node000001"><a xlink:title=" ">
<polygon fill="#999999" stroke="#666666" points="1331.75,-316 1210.75,-316 1210.75,-272 1331.75,-272 1331.75,-316"/>
<text text-anchor="start" x="1218.75" y="-302.5" font-family="Helvetica,sans-Serif" font-size="10.00">src/bot_library/bot</text>
<text text-anchor="start" x="1218.75" y="-290.5" font-family="Helvetica,sans-Serif" font-size="10.00">/core/interfaces/include</text>
<text text-anchor="middle" x="1271.25" y="-278.5" font-family="Helvetica,sans-Serif" font-size="10.00">/IMemberCommand.hpp</text>
</a>
</g>
</g>
<!-- Node2 -->
<g id="Node000002" class="node">
<title>Node2</title>
<g id="a_Node000002"><a xlink:href="Core_8hpp.html" target="_top" xlink:title=" ">
<polygon fill="white" stroke="#666666" points="1501.38,-236 1387.12,-236 1387.12,-204 1501.38,-204 1501.38,-236"/>
<text text-anchor="start" x="1395.12" y="-222.5" font-family="Helvetica,sans-Serif" font-size="10.00">src/bot_library/bot</text>
<text text-anchor="middle" x="1444.25" y="-210.5" font-family="Helvetica,sans-Serif" font-size="10.00">/core/include/Core.hpp</text>
</a>
</g>
</g>
<!-- Node1&#45;&gt;Node2 -->
<g id="edge1_Node000001_Node000002" class="edge">
<title>Node1&#45;&gt;Node2</title>
<g id="a_edge1_Node000001_Node000002"><a xlink:title=" ">
<path fill="none" stroke="#63b8ff" d="M1333.08,-267.27C1357.81,-256.98 1385.47,-245.46 1407.02,-236.5"/>
<polygon fill="#63b8ff" stroke="#63b8ff" points="1331.97,-263.94 1324.08,-271.01 1334.66,-270.4 1331.97,-263.94"/>
</a>
</g>
</g>
<!-- Node4 -->
<g id="Node000004" class="node">
<title>Node4</title>
<g id="a_Node000004"><a xlink:href="Bot_8hpp.html" target="_top" xlink:title=" ">
<polygon fill="white" stroke="#666666" points="793.25,-168 699.25,-168 699.25,-136 793.25,-136 793.25,-168"/>
<text text-anchor="start" x="707.25" y="-154.5" font-family="Helvetica,sans-Serif" font-size="10.00">src/bot_library/bot</text>
<text text-anchor="middle" x="746.25" y="-142.5" font-family="Helvetica,sans-Serif" font-size="10.00">/include/Bot.hpp</text>
</a>
</g>
</g>
<!-- Node1&#45;&gt;Node4 -->
<g id="edge30_Node000001_Node000004" class="edge">
<title>Node1&#45;&gt;Node4</title>
<g id="a_edge30_Node000001_Node000004"><a xlink:title=" ">
<path fill="none" stroke="#63b8ff" d="M1199.36,-273.83C1090.31,-244.75 885.99,-190.27 793.68,-165.65"/>
<polygon fill="#63b8ff" stroke="#63b8ff" points="1198.23,-277.15 1208.79,-276.34 1200.03,-270.39 1198.23,-277.15"/>
</a>
</g>
</g>
<!-- Node20 -->
<g id="Node000020" class="node">
<title>Node20</title>
<g id="a_Node000020"><a xlink:href="SetChannelCommand_8hpp.html" target="_top" xlink:title=" ">
<polygon fill="white" stroke="#666666" points="1365.88,-100 1176.62,-100 1176.62,-68 1365.88,-68 1365.88,-100"/>
<text text-anchor="start" x="1184.62" y="-86.5" font-family="Helvetica,sans-Serif" font-size="10.00">src/bot_library/commands</text>
<text text-anchor="middle" x="1271.25" y="-74.5" font-family="Helvetica,sans-Serif" font-size="10.00">/set_channel/SetChannelCommand.hpp</text>
</a>
</g>
</g>
<!-- Node1&#45;&gt;Node20 -->
<g id="edge31_Node000001_Node000020" class="edge">
<title>Node1&#45;&gt;Node20</title>
<g id="a_edge31_Node000001_Node000020"><a xlink:title=" ">
<path fill="none" stroke="#63b8ff" d="M1271.25,-260.19C1271.25,-214.57 1271.25,-133.79 1271.25,-100.26"/>
<polygon fill="#63b8ff" stroke="#63b8ff" points="1267.75,-260.01 1271.25,-270.01 1274.75,-260.01 1267.75,-260.01"/>
</a>
</g>
</g>
<!-- Node3 -->
<g id="Node000003" class="node">
<title>Node3</title>
<g id="a_Node000003"><a xlink:href="Core_8cpp.html" target="_top" xlink:title=" ">
<polygon fill="white" stroke="#666666" points="1680.25,-168 1586.25,-168 1586.25,-136 1680.25,-136 1680.25,-168"/>
<text text-anchor="start" x="1594.25" y="-154.5" font-family="Helvetica,sans-Serif" font-size="10.00">src/bot_library/bot</text>
<text text-anchor="middle" x="1633.25" y="-142.5" font-family="Helvetica,sans-Serif" font-size="10.00">/core/Core.cpp</text>
</a>
</g>
</g>
<!-- Node2&#45;&gt;Node3 -->
<g id="edge2_Node000002_Node000003" class="edge">
<title>Node2&#45;&gt;Node3</title>
<g id="a_edge2_Node000002_Node000003"><a xlink:title=" ">
<path fill="none" stroke="#63b8ff" d="M1499.18,-199.82C1527.69,-189.86 1562.08,-177.85 1588.89,-168.49"/>
<polygon fill="#63b8ff" stroke="#63b8ff" points="1498.28,-196.43 1489.99,-203.03 1500.59,-203.03 1498.28,-196.43"/>
</a>
</g>
</g>
<!-- Node2&#45;&gt;Node4 -->
<g id="edge3_Node000002_Node000004" class="edge">
<title>Node2&#45;&gt;Node4</title>
<g id="a_edge3_Node000002_Node000004"><a xlink:title=" ">
<path fill="none" stroke="#63b8ff" d="M1375.77,-212.52C1234.67,-199.18 914.67,-168.92 793.73,-157.49"/>
<polygon fill="#63b8ff" stroke="#63b8ff" points="1375.04,-215.97 1385.33,-213.43 1375.7,-209 1375.04,-215.97"/>
</a>
</g>
</g>
<!-- Node9 -->
<g id="Node000009" class="node">
<title>Node9</title>
<g id="a_Node000009"><a xlink:href="ChallengeRoleCommand_8cpp.html" target="_top" xlink:title=" ">
<polygon fill="white" stroke="#666666" points="1204.12,-32 992.38,-32 992.38,0 1204.12,0 1204.12,-32"/>
<text text-anchor="start" x="1000.38" y="-18.5" font-family="Helvetica,sans-Serif" font-size="10.00">src/bot_library/commands</text>
<text text-anchor="middle" x="1098.25" y="-6.5" font-family="Helvetica,sans-Serif" font-size="10.00">/challenge_role/ChallengeRoleCommand.cpp</text>
</a>
</g>
</g>
<!-- Node2&#45;&gt;Node9 -->
<g id="edge27_Node000002_Node000009" class="edge">
<title>Node2&#45;&gt;Node9</title>
<g id="a_edge27_Node000002_Node000009"><a xlink:title=" ">
<path fill="none" stroke="#63b8ff" d="M1427.89,-194.15C1422.87,-185.99 1417.54,-176.77 1413.25,-168 1392.37,-125.28 1411.77,-98.44 1375.25,-68 1361.8,-56.79 1276.67,-42.15 1204.29,-31.44"/>
<polygon fill="#63b8ff" stroke="#63b8ff" points="1424.88,-195.93 1433.18,-202.51 1430.8,-192.19 1424.88,-195.93"/>
</a>
</g>
</g>
<!-- Node21 -->
<g id="Node000021" class="node">
<title>Node21</title>
<g id="a_Node000021"><a xlink:href="SetChannelCommand_8cpp.html" target="_top" xlink:title=" ">
<polygon fill="white" stroke="#666666" points="1693.88,-32 1504.62,-32 1504.62,0 1693.88,0 1693.88,-32"/>
<text text-anchor="start" x="1512.62" y="-18.5" font-family="Helvetica,sans-Serif" font-size="10.00">src/bot_library/commands</text>
<text text-anchor="middle" x="1599.25" y="-6.5" font-family="Helvetica,sans-Serif" font-size="10.00">/set_channel/SetChannelCommand.cpp</text>
</a>
</g>
</g>
<!-- Node2&#45;&gt;Node21 -->
<g id="edge29_Node000002_Node000021" class="edge">
<title>Node2&#45;&gt;Node21</title>
<g id="a_edge29_Node000002_Node000021"><a xlink:title=" ">
<path fill="none" stroke="#63b8ff" d="M1512.93,-214.2C1577.48,-208.09 1667.37,-194.91 1689.25,-168 1726.12,-122.66 1657.47,-60.66 1620.53,-32.29"/>
<polygon fill="#63b8ff" stroke="#63b8ff" points="1512.74,-210.7 1503.1,-215.09 1513.37,-217.67 1512.74,-210.7"/>
</a>
</g>
</g>
<!-- Node22 -->
<g id="Node000022" class="node">
<title>Node22</title>
<g id="a_Node000022"><a xlink:href="resource__man_8hpp.html" target="_top" xlink:title=" ">
<polygon fill="white" stroke="#666666" points="1567.75,-168 1422.75,-168 1422.75,-136 1567.75,-136 1567.75,-168"/>
<text text-anchor="start" x="1430.75" y="-154.5" font-family="Helvetica,sans-Serif" font-size="10.00">src/bot_library/commands</text>
<text text-anchor="middle" x="1495.25" y="-142.5" font-family="Helvetica,sans-Serif" font-size="10.00">/resources/resource_man.hpp</text>
</a>
</g>
</g>
<!-- Node2&#45;&gt;Node22 -->
<g id="edge28_Node000002_Node000022" class="edge">
<title>Node2&#45;&gt;Node22</title>
<g id="a_edge28_Node000002_Node000022"><a xlink:title=" ">
<path fill="none" stroke="#63b8ff" d="M1463.11,-194.59C1469.94,-185.75 1477.45,-176.04 1483.49,-168.22"/>
<polygon fill="#63b8ff" stroke="#63b8ff" points="1460.35,-192.44 1457,-202.49 1465.89,-196.72 1460.35,-192.44"/>
</a>
</g>
</g>
<!-- Node5 -->
<g id="Node000005" class="node">
<title>Node5</title>
<g id="a_Node000005"><a xlink:href="BotLibrary_8cpp.html" target="_top" xlink:title=" ">
<polygon fill="white" stroke="#666666" points="768.62,-26 625.88,-26 625.88,-6 768.62,-6 768.62,-26"/>
<text text-anchor="middle" x="697.25" y="-12.5" font-family="Helvetica,sans-Serif" font-size="10.00">src/bot_library/BotLibrary.cpp</text>
</a>
</g>
</g>
<!-- Node4&#45;&gt;Node5 -->
<g id="edge4_Node000004_Node000005" class="edge">
<title>Node4&#45;&gt;Node5</title>
<g id="a_edge4_Node000004_Node000005"><a xlink:title=" ">
<path fill="none" stroke="#63b8ff" d="M742.32,-124.5C739.34,-107.89 734.5,-86.24 727.25,-68 721.1,-52.54 710.72,-36.22 703.93,-26.32"/>
<polygon fill="#63b8ff" stroke="#63b8ff" points="738.82,-124.8 743.92,-134.09 745.73,-123.65 738.82,-124.8"/>
</a>
</g>
</g>
<!-- Node6 -->
<g id="Node000006" class="node">
<title>Node6</title>
<g id="a_Node000006"><a xlink:href="Bot_8cpp.html" target="_top" xlink:title=" ">
<polygon fill="white" stroke="#666666" points="572.25,-100 478.25,-100 478.25,-68 572.25,-68 572.25,-100"/>
<text text-anchor="start" x="486.25" y="-86.5" font-family="Helvetica,sans-Serif" font-size="10.00">src/bot_library/bot</text>
<text text-anchor="middle" x="525.25" y="-74.5" font-family="Helvetica,sans-Serif" font-size="10.00">/Bot.cpp</text>
</a>
</g>
</g>
<!-- Node4&#45;&gt;Node6 -->
<g id="edge5_Node000004_Node000006" class="edge">
<title>Node4&#45;&gt;Node6</title>
<g id="a_edge5_Node000004_Node000006"><a xlink:title=" ">
<path fill="none" stroke="#63b8ff" d="M688,-133.6C651.98,-122.85 606.36,-109.22 572.58,-99.14"/>
<polygon fill="#63b8ff" stroke="#63b8ff" points="686.81,-136.9 697.39,-136.41 688.81,-130.19 686.81,-136.9"/>
</a>
</g>
</g>
<!-- Node7 -->
<g id="Node000007" class="node">
<title>Node7</title>
<g id="a_Node000007"><a xlink:href="ChallengeRoleCommand_8hpp.html" target="_top" xlink:title=" ">
<polygon fill="white" stroke="#666666" points="986.12,-100 774.38,-100 774.38,-68 986.12,-68 986.12,-100"/>
<text text-anchor="start" x="782.38" y="-86.5" font-family="Helvetica,sans-Serif" font-size="10.00">src/bot_library/commands</text>
<text text-anchor="middle" x="880.25" y="-74.5" font-family="Helvetica,sans-Serif" font-size="10.00">/challenge_role/ChallengeRoleCommand.hpp</text>
</a>
</g>
</g>
<!-- Node4&#45;&gt;Node7 -->
<g id="edge6_Node000004_Node000007" class="edge">
<title>Node4&#45;&gt;Node7</title>
<g id="a_edge6_Node000004_Node000007"><a xlink:title=" ">
<path fill="none" stroke="#63b8ff" d="M787.93,-130.47C807.66,-120.75 830.84,-109.34 849.03,-100.38"/>
<polygon fill="#63b8ff" stroke="#63b8ff" points="786.45,-127.3 779.02,-134.86 789.54,-133.58 786.45,-127.3"/>
</a>
</g>
</g>
<!-- Node11 -->
<g id="Node000011" class="node">
<title>Node11</title>
<g id="a_Node000011"><a xlink:href="HelpCommand_8hpp.html" target="_top" xlink:title=" ">
<polygon fill="white" stroke="#666666" points="128.5,-100 0,-100 0,-68 128.5,-68 128.5,-100"/>
<text text-anchor="start" x="8" y="-86.5" font-family="Helvetica,sans-Serif" font-size="10.00">src/bot_library/commands</text>
<text text-anchor="middle" x="64.25" y="-74.5" font-family="Helvetica,sans-Serif" font-size="10.00">/help/HelpCommand.hpp</text>
</a>
</g>
</g>
<!-- Node4&#45;&gt;Node11 -->
<g id="edge10_Node000004_Node000011" class="edge">
<title>Node4&#45;&gt;Node11</title>
<g id="a_edge10_Node000004_Node000011"><a xlink:title=" ">
<path fill="none" stroke="#63b8ff" d="M687.68,-148.42C578.81,-143.11 338.12,-128.94 137.25,-100 134.43,-99.59 131.56,-99.15 128.66,-98.67"/>
<polygon fill="#63b8ff" stroke="#63b8ff" points="687.37,-151.91 697.53,-148.89 687.71,-144.92 687.37,-151.91"/>
</a>
</g>
</g>
<!-- Node13 -->
<g id="Node000013" class="node">
<title>Node13</title>
<g id="a_Node000013"><a xlink:href="Commands_8hpp.html" target="_top" xlink:title=" ">
<polygon fill="white" stroke="#666666" points="718.5,-100 590,-100 590,-68 718.5,-68 718.5,-100"/>
<text text-anchor="start" x="598" y="-86.5" font-family="Helvetica,sans-Serif" font-size="10.00">src/bot_library/commands</text>
<text text-anchor="middle" x="654.25" y="-74.5" font-family="Helvetica,sans-Serif" font-size="10.00">/include/Commands.hpp</text>
</a>
</g>
</g>
<!-- Node4&#45;&gt;Node13 -->
<g id="edge13_Node000004_Node000013" class="edge">
<title>Node4&#45;&gt;Node13</title>
<g id="a_edge13_Node000004_Node000013"><a xlink:title=" ">
<path fill="none" stroke="#63b8ff" d="M715.79,-129.15C702.69,-119.75 687.7,-109 675.79,-100.45"/>
<polygon fill="#63b8ff" stroke="#63b8ff" points="713.52,-131.82 723.68,-134.81 717.6,-126.14 713.52,-131.82"/>
</a>
</g>
</g>
<!-- Node14 -->
<g id="Node000014" class="node">
<title>Node14</title>
<g id="a_Node000014"><a xlink:href="InitDatabase_8hpp.html" target="_top" xlink:title=" ">
<polygon fill="white" stroke="#666666" points="1158.25,-100 1004.25,-100 1004.25,-68 1158.25,-68 1158.25,-100"/>
<text text-anchor="start" x="1012.25" y="-86.5" font-family="Helvetica,sans-Serif" font-size="10.00">src/bot_library/commands</text>
<text text-anchor="middle" x="1081.25" y="-74.5" font-family="Helvetica,sans-Serif" font-size="10.00">/init_database/InitDatabase.hpp</text>
</a>
</g>
</g>
<!-- Node4&#45;&gt;Node14 -->
<g id="edge16_Node000004_Node000014" class="edge">
<title>Node4&#45;&gt;Node14</title>
<g id="a_edge16_Node000004_Node000014"><a xlink:title=" ">
<path fill="none" stroke="#63b8ff" d="M804.54,-139.52C859.77,-128.63 943.1,-112.22 1003.88,-100.24"/>
<polygon fill="#63b8ff" stroke="#63b8ff" points="804.16,-136.02 795.02,-141.39 805.51,-142.89 804.16,-136.02"/>
</a>
</g>
</g>
<!-- Node16 -->
<g id="Node000016" class="node">
<title>Node16</title>
<g id="a_Node000016"><a xlink:href="PongCommand_8hpp.html" target="_top" xlink:title=" ">
<polygon fill="white" stroke="#666666" points="275.88,-100 146.62,-100 146.62,-68 275.88,-68 275.88,-100"/>
<text text-anchor="start" x="154.62" y="-86.5" font-family="Helvetica,sans-Serif" font-size="10.00">src/bot_library/commands</text>
<text text-anchor="middle" x="211.25" y="-74.5" font-family="Helvetica,sans-Serif" font-size="10.00">/pong/PongCommand.hpp</text>
</a>
</g>
</g>
<!-- Node4&#45;&gt;Node16 -->
<g id="edge18_Node000004_Node000016" class="edge">
<title>Node4&#45;&gt;Node16</title>
<g id="a_edge18_Node000004_Node000016"><a xlink:title=" ">
<path fill="none" stroke="#63b8ff" d="M687.63,-146.21C599.85,-138.66 429.15,-122.5 285.25,-100 282.27,-99.53 279.23,-99.03 276.16,-98.5"/>
<polygon fill="#63b8ff" stroke="#63b8ff" points="687.18,-149.69 697.44,-147.05 687.77,-142.71 687.18,-149.69"/>
</a>
</g>
</g>
<!-- Node18 -->
<g id="Node000018" class="node">
<title>Node18</title>
<g id="a_Node000018"><a xlink:href="ReactionRoles_8hpp.html" target="_top" xlink:title=" ">
<polygon fill="white" stroke="#666666" points="460.25,-100 294.25,-100 294.25,-68 460.25,-68 460.25,-100"/>
<text text-anchor="start" x="302.25" y="-86.5" font-family="Helvetica,sans-Serif" font-size="10.00">src/bot_library/commands</text>
<text text-anchor="middle" x="377.25" y="-74.5" font-family="Helvetica,sans-Serif" font-size="10.00">/reaction_roles/ReactionRoles.hpp</text>
</a>
</g>
</g>
<!-- Node4&#45;&gt;Node18 -->
<g id="edge21_Node000004_Node000018" class="edge">
<title>Node4&#45;&gt;Node18</title>
<g id="a_edge21_Node000004_Node000018"><a xlink:title=" ">
<path fill="none" stroke="#63b8ff" d="M687.75,-140.54C626.46,-129.57 529.66,-112.26 460.43,-99.88"/>
<polygon fill="#63b8ff" stroke="#63b8ff" points="686.82,-143.92 697.28,-142.24 688.05,-137.03 686.82,-143.92"/>
</a>
</g>
</g>
<!-- Node4&#45;&gt;Node20 -->
<g id="edge24_Node000004_Node000020" class="edge">
<title>Node4&#45;&gt;Node20</title>
<g id="a_edge24_Node000004_Node000020"><a xlink:title=" ">
<path fill="none" stroke="#63b8ff" d="M804.64,-144.35C885.98,-134.99 1037.94,-117.15 1167.25,-100 1170.23,-99.6 1173.27,-99.2 1176.33,-98.78"/>
<polygon fill="#63b8ff" stroke="#63b8ff" points="804.69,-140.82 795.15,-145.44 805.48,-147.78 804.69,-140.82"/>
</a>
</g>
</g>
<!-- Node8 -->
<g id="Node000008" class="node">
<title>Node8</title>
<g id="a_Node000008"><a xlink:href="Commands_8cpp.html" target="_top" xlink:title=" ">
<polygon fill="white" stroke="#666666" points="607.5,-32 479,-32 479,0 607.5,0 607.5,-32"/>
<text text-anchor="start" x="487" y="-18.5" font-family="Helvetica,sans-Serif" font-size="10.00">src/bot_library/commands</text>
<text text-anchor="middle" x="543.25" y="-6.5" font-family="Helvetica,sans-Serif" font-size="10.00">/Commands.cpp</text>
</a>
</g>
</g>
<!-- Node7&#45;&gt;Node8 -->
<g id="edge7_Node000007_Node000008" class="edge">
<title>Node7&#45;&gt;Node8</title>
<g id="a_edge7_Node000007_Node000008"><a xlink:title=" ">
<path fill="none" stroke="#63b8ff" d="M788.41,-65.39C737.89,-55.65 674.08,-43.27 617.25,-32 614.16,-31.39 611.01,-30.76 607.82,-30.12"/>
<polygon fill="#63b8ff" stroke="#63b8ff" points="787.67,-68.81 798.16,-67.27 789,-61.94 787.67,-68.81"/>
</a>
</g>
</g>
<!-- Node7&#45;&gt;Node9 -->
<g id="edge8_Node000007_Node000009" class="edge">
<title>Node7&#45;&gt;Node9</title>
<g id="a_edge8_Node000007_Node000009"><a xlink:title=" ">
<path fill="none" stroke="#63b8ff" d="M942.3,-64.21C975.45,-54.18 1015.75,-41.98 1047.08,-32.49"/>
<polygon fill="#63b8ff" stroke="#63b8ff" points="941.37,-60.84 932.81,-67.09 943.4,-67.54 941.37,-60.84"/>
</a>
</g>
</g>
<!-- Node10 -->
<g id="Node000010" class="node">
<title>Node10</title>
<g id="a_Node000010"><a xlink:href="ChallengeRoleDTO_8cpp.html" target="_top" xlink:title=" ">
<polygon fill="white" stroke="#666666" points="974.12,-32 786.38,-32 786.38,0 974.12,0 974.12,-32"/>
<text text-anchor="start" x="794.38" y="-18.5" font-family="Helvetica,sans-Serif" font-size="10.00">src/bot_library/commands</text>
<text text-anchor="middle" x="880.25" y="-6.5" font-family="Helvetica,sans-Serif" font-size="10.00">/challenge_role/ChallengeRoleDTO.cpp</text>
</a>
</g>
</g>
<!-- Node7&#45;&gt;Node10 -->
<g id="edge9_Node000007_Node000010" class="edge">
<title>Node7&#45;&gt;Node10</title>
<g id="a_edge9_Node000007_Node000010"><a xlink:title=" ">
<path fill="none" stroke="#63b8ff" d="M880.25,-56.31C880.25,-48.12 880.25,-39.38 880.25,-32.22"/>
<polygon fill="#63b8ff" stroke="#63b8ff" points="876.75,-56.18 880.25,-66.18 883.75,-56.18 876.75,-56.18"/>
</a>
</g>
</g>
<!-- Node11&#45;&gt;Node8 -->
<g id="edge11_Node000011_Node000008" class="edge">
<title>Node11&#45;&gt;Node8</title>
<g id="a_edge11_Node000011_Node000008"><a xlink:title=" ">
<path fill="none" stroke="#63b8ff" d="M139.84,-67.69C285.84,-45.49 326.17,-54.21 469.25,-32 472.36,-31.52 475.54,-30.99 478.74,-30.44"/>
<polygon fill="#63b8ff" stroke="#63b8ff" points="139.52,-64.2 130.17,-69.19 140.59,-71.12 139.52,-64.2"/>
</a>
</g>
</g>
<!-- Node12 -->
<g id="Node000012" class="node">
<title>Node12</title>
<g id="a_Node000012"><a xlink:href="HelpCommand_8cpp.html" target="_top" xlink:title=" ">
<polygon fill="white" stroke="#666666" points="128.5,-32 0,-32 0,0 128.5,0 128.5,-32"/>
<text text-anchor="start" x="8" y="-18.5" font-family="Helvetica,sans-Serif" font-size="10.00">src/bot_library/commands</text>
<text text-anchor="middle" x="64.25" y="-6.5" font-family="Helvetica,sans-Serif" font-size="10.00">/help/HelpCommand.cpp</text>
</a>
</g>
</g>
<!-- Node11&#45;&gt;Node12 -->
<g id="edge12_Node000011_Node000012" class="edge">
<title>Node11&#45;&gt;Node12</title>
<g id="a_edge12_Node000011_Node000012"><a xlink:title=" ">
<path fill="none" stroke="#63b8ff" d="M64.25,-56.31C64.25,-48.12 64.25,-39.38 64.25,-32.22"/>
<polygon fill="#63b8ff" stroke="#63b8ff" points="60.75,-56.18 64.25,-66.18 67.75,-56.18 60.75,-56.18"/>
</a>
</g>
</g>
<!-- Node13&#45;&gt;Node5 -->
<g id="edge14_Node000013_Node000005" class="edge">
<title>Node13&#45;&gt;Node5</title>
<g id="a_edge14_Node000013_Node000005"><a xlink:title=" ">
<path fill="none" stroke="#63b8ff" d="M670.3,-58.36C677.59,-47.18 685.76,-34.63 691.18,-26.32"/>
<polygon fill="#63b8ff" stroke="#63b8ff" points="667.58,-56.14 665.05,-66.42 673.44,-59.96 667.58,-56.14"/>
</a>
</g>
</g>
<!-- Node13&#45;&gt;Node8 -->
<g id="edge15_Node000013_Node000008" class="edge">
<title>Node13&#45;&gt;Node8</title>
<g id="a_edge15_Node000013_Node000008"><a xlink:title=" ">
<path fill="none" stroke="#63b8ff" d="M618.59,-61.8C602.5,-52.23 583.83,-41.13 569.11,-32.38"/>
<polygon fill="#63b8ff" stroke="#63b8ff" points="616.54,-64.65 626.92,-66.75 620.12,-58.63 616.54,-64.65"/>
</a>
</g>
</g>
<!-- Node15 -->
<g id="Node000015" class="node">
<title>Node15</title>
<g id="a_Node000015"><a xlink:href="InitDatabase_8cpp.html" target="_top" xlink:title=" ">
<polygon fill="white" stroke="#666666" points="1376.25,-32 1222.25,-32 1222.25,0 1376.25,0 1376.25,-32"/>
<text text-anchor="start" x="1230.25" y="-18.5" font-family="Helvetica,sans-Serif" font-size="10.00">src/bot_library/commands</text>
<text text-anchor="middle" x="1299.25" y="-6.5" font-family="Helvetica,sans-Serif" font-size="10.00">/init_database/InitDatabase.cpp</text>
</a>
</g>
</g>
<!-- Node14&#45;&gt;Node15 -->
<g id="edge17_Node000014_Node000015" class="edge">
<title>Node14&#45;&gt;Node15</title>
<g id="a_edge17_Node000014_Node000015"><a xlink:title=" ">
<path fill="none" stroke="#63b8ff" d="M1143.3,-64.21C1176.45,-54.18 1216.75,-41.98 1248.08,-32.49"/>
<polygon fill="#63b8ff" stroke="#63b8ff" points="1142.37,-60.84 1133.81,-67.09 1144.4,-67.54 1142.37,-60.84"/>
</a>
</g>
</g>
<!-- Node16&#45;&gt;Node8 -->
<g id="edge19_Node000016_Node000008" class="edge">
<title>Node16&#45;&gt;Node8</title>
<g id="a_edge19_Node000016_Node000008"><a xlink:title=" ">
<path fill="none" stroke="#63b8ff" d="M287.04,-67.65C368.76,-51.42 390.88,-47.61 469.25,-32 472.34,-31.39 475.49,-30.75 478.68,-30.12"/>
<polygon fill="#63b8ff" stroke="#63b8ff" points="286.83,-64.13 277.7,-69.51 288.19,-70.99 286.83,-64.13"/>
</a>
</g>
</g>
<!-- Node17 -->
<g id="Node000017" class="node">
<title>Node17</title>
<g id="a_Node000017"><a xlink:href="PongCommand_8cpp.html" target="_top" xlink:title=" ">
<polygon fill="white" stroke="#666666" points="275.88,-32 146.62,-32 146.62,0 275.88,0 275.88,-32"/>
<text text-anchor="start" x="154.62" y="-18.5" font-family="Helvetica,sans-Serif" font-size="10.00">src/bot_library/commands</text>
<text text-anchor="middle" x="211.25" y="-6.5" font-family="Helvetica,sans-Serif" font-size="10.00">/pong/PongCommand.cpp</text>
</a>
</g>
</g>
<!-- Node16&#45;&gt;Node17 -->
<g id="edge20_Node000016_Node000017" class="edge">
<title>Node16&#45;&gt;Node17</title>
<g id="a_edge20_Node000016_Node000017"><a xlink:title=" ">
<path fill="none" stroke="#63b8ff" d="M211.25,-56.31C211.25,-48.12 211.25,-39.38 211.25,-32.22"/>
<polygon fill="#63b8ff" stroke="#63b8ff" points="207.75,-56.18 211.25,-66.18 214.75,-56.18 207.75,-56.18"/>
</a>
</g>
</g>
<!-- Node18&#45;&gt;Node8 -->
<g id="edge22_Node000018_Node000008" class="edge">
<title>Node18&#45;&gt;Node8</title>
<g id="a_edge22_Node000018_Node000008"><a xlink:title=" ">
<path fill="none" stroke="#63b8ff" d="M426.82,-63.29C451.6,-53.44 481.16,-41.69 504.29,-32.49"/>
<polygon fill="#63b8ff" stroke="#63b8ff" points="425.58,-60.02 417.58,-66.97 428.16,-66.52 425.58,-60.02"/>
</a>
</g>
</g>
<!-- Node19 -->
<g id="Node000019" class="node">
<title>Node19</title>
<g id="a_Node000019"><a xlink:href="ReactionRoles_8cpp.html" target="_top" xlink:title=" ">
<polygon fill="white" stroke="#666666" points="460.25,-32 294.25,-32 294.25,0 460.25,0 460.25,-32"/>
<text text-anchor="start" x="302.25" y="-18.5" font-family="Helvetica,sans-Serif" font-size="10.00">src/bot_library/commands</text>
<text text-anchor="middle" x="377.25" y="-6.5" font-family="Helvetica,sans-Serif" font-size="10.00">/reaction_roles/ReactionRoles.cpp</text>
</a>
</g>
</g>
<!-- Node18&#45;&gt;Node19 -->
<g id="edge23_Node000018_Node000019" class="edge">
<title>Node18&#45;&gt;Node19</title>
<g id="a_edge23_Node000018_Node000019"><a xlink:title=" ">
<path fill="none" stroke="#63b8ff" d="M377.25,-56.31C377.25,-48.12 377.25,-39.38 377.25,-32.22"/>
<polygon fill="#63b8ff" stroke="#63b8ff" points="373.75,-56.18 377.25,-66.18 380.75,-56.18 373.75,-56.18"/>
</a>
</g>
</g>
<!-- Node20&#45;&gt;Node8 -->
<g id="edge25_Node000020_Node000008" class="edge">
<title>Node20&#45;&gt;Node8</title>
<g id="a_edge25_Node000020_Node000008"><a xlink:title=" ">
<path fill="none" stroke="#63b8ff" d="M1165,-67.83C921.65,-43.15 856.39,-63.92 617.25,-32 614.13,-31.58 610.95,-31.11 607.74,-30.6"/>
<polygon fill="#63b8ff" stroke="#63b8ff" points="1164.54,-71.3 1174.85,-68.85 1165.26,-64.34 1164.54,-71.3"/>
</a>
</g>
</g>
<!-- Node20&#45;&gt;Node21 -->
<g id="edge26_Node000020_Node000021" class="edge">
<title>Node20&#45;&gt;Node21</title>
<g id="a_edge26_Node000020_Node000021"><a xlink:title=" ">
<path fill="none" stroke="#63b8ff" d="M1359.13,-65.32C1409.98,-55.08 1473.38,-42.33 1522.26,-32.49"/>
<polygon fill="#63b8ff" stroke="#63b8ff" points="1358.75,-61.82 1349.64,-67.23 1360.13,-68.69 1358.75,-61.82"/>
</a>
</g>
</g>
</g>
</svg>
