<?xml version="1.0" encoding="UTF-8" standalone="no"?>
<!DOCTYPE svg PUBLIC "-//W3C//DTD SVG 1.1//EN"
 "http://www.w3.org/Graphics/SVG/1.1/DTD/svg11.dtd">
<!-- Generated by graphviz version 9.0.0 (0)
 -->
<!-- Title: src/bot_library/bot/core/interfaces/include/IMessageCommand.hpp Pages: 1 -->
<svg width="2406pt" height="324pt"
 viewBox="0.00 0.00 2406.00 324.00" xmlns="http://www.w3.org/2000/svg" xmlns:xlink="http://www.w3.org/1999/xlink">
<g id="graph0" class="graph" transform="scale(1 1) rotate(0) translate(4 320)">
<title>src/bot_library/bot/core/interfaces/include/IMessageCommand.hpp</title>
<!-- Node1 -->
<g id="Node000001" class="node">
<title>Node1</title>
<g id="a_Node000001"><a xlink:title=" ">
<polygon fill="#999999" stroke="#666666" points="1693.75,-316 1568.25,-316 1568.25,-272 1693.75,-272 1693.75,-316"/>
<text text-anchor="start" x="1576.25" y="-302.5" font-family="Helvetica,sans-Serif" font-size="10.00">src/bot_library/bot</text>
<text text-anchor="start" x="1576.25" y="-290.5" font-family="Helvetica,sans-Serif" font-size="10.00">/core/interfaces/include</text>
<text text-anchor="middle" x="1631" y="-278.5" font-family="Helvetica,sans-Serif" font-size="10.00">/IMessageCommand.hpp</text>
</a>
</g>
</g>
<!-- Node2 -->
<g id="Node000002" class="node">
<title>Node2</title>
<g id="a_Node000002"><a xlink:href="Core_8hpp.html" target="_top" xlink:title=" ">
<polygon fill="white" stroke="#666666" points="2150.12,-236 2035.88,-236 2035.88,-204 2150.12,-204 2150.12,-236"/>
<text text-anchor="start" x="2043.88" y="-222.5" font-family="Helvetica,sans-Serif" font-size="10.00">src/bot_library/bot</text>
<text text-anchor="middle" x="2093" y="-210.5" font-family="Helvetica,sans-Serif" font-size="10.00">/core/include/Core.hpp</text>
</a>
</g>
</g>
<!-- Node1&#45;&gt;Node2 -->
<g id="edge1_Node000001_Node000002" class="edge">
<title>Node1&#45;&gt;Node2</title>
<g id="a_edge1_Node000001_Node000002"><a xlink:title=" ">
<path fill="none" stroke="#63b8ff" d="M1704.95,-281.47C1796.89,-267.15 1951.87,-242.99 2035.44,-229.97"/>
<polygon fill="#63b8ff" stroke="#63b8ff" points="1704.63,-277.98 1695.28,-282.98 1705.7,-284.9 1704.63,-277.98"/>
</a>
</g>
</g>
<!-- Node4 -->
<g id="Node000004" class="node">
<title>Node4</title>
<g id="a_Node000004"><a xlink:href="Bot_8hpp.html" target="_top" xlink:title=" ">
<polygon fill="white" stroke="#666666" points="1198,-168 1104,-168 1104,-136 1198,-136 1198,-168"/>
<text text-anchor="start" x="1112" y="-154.5" font-family="Helvetica,sans-Serif" font-size="10.00">src/bot_library/bot</text>
<text text-anchor="middle" x="1151" y="-142.5" font-family="Helvetica,sans-Serif" font-size="10.00">/include/Bot.hpp</text>
</a>
</g>
</g>
<!-- Node1&#45;&gt;Node4 -->
<g id="edge42_Node000001_Node000004" class="edge">
<title>Node1&#45;&gt;Node4</title>
<g id="a_edge42_Node000001_Node000004"><a xlink:title=" ">
<path fill="none" stroke="#63b8ff" d="M1556.85,-271.37C1457.02,-242.26 1282.28,-191.29 1198.47,-166.84"/>
<polygon fill="#63b8ff" stroke="#63b8ff" points="1555.72,-274.69 1566.3,-274.13 1557.68,-267.97 1555.72,-274.69"/>
</a>
</g>
</g>
<!-- Node3 -->
<g id="Node000003" class="node">
<title>Node3</title>
<g id="a_Node000003"><a xlink:href="Core_8cpp.html" target="_top" xlink:title=" ">
<polygon fill="white" stroke="#666666" points="2398,-168 2304,-168 2304,-136 2398,-136 2398,-168"/>
<text text-anchor="start" x="2312" y="-154.5" font-family="Helvetica,sans-Serif" font-size="10.00">src/bot_library/bot</text>
<text text-anchor="middle" x="2351" y="-142.5" font-family="Helvetica,sans-Serif" font-size="10.00">/core/Core.cpp</text>
</a>
</g>
</g>
<!-- Node2&#45;&gt;Node3 -->
<g id="edge2_Node000002_Node000003" class="edge">
<title>Node2&#45;&gt;Node3</title>
<g id="a_edge2_Node000002_Node000003"><a xlink:title=" ">
<path fill="none" stroke="#63b8ff" d="M2161.16,-201.87C2200.09,-192.04 2249.81,-179.42 2294,-168 2297.17,-167.18 2300.44,-166.33 2303.73,-165.47"/>
<polygon fill="#63b8ff" stroke="#63b8ff" points="2160.52,-198.42 2151.68,-204.26 2162.24,-205.2 2160.52,-198.42"/>
</a>
</g>
</g>
<!-- Node2&#45;&gt;Node4 -->
<g id="edge3_Node000002_Node000004" class="edge">
<title>Node2&#45;&gt;Node4</title>
<g id="a_edge3_Node000002_Node000004"><a xlink:title=" ">
<path fill="none" stroke="#63b8ff" d="M2024.23,-214.18C1842.46,-201.45 1352.71,-167.13 1198.3,-156.31"/>
<polygon fill="#63b8ff" stroke="#63b8ff" points="2023.76,-217.66 2033.98,-214.86 2024.25,-210.67 2023.76,-217.66"/>
</a>
</g>
</g>
<!-- Node9 -->
<g id="Node000009" class="node">
<title>Node9</title>
<g id="a_Node000009"><a xlink:href="ChallengeRoleCommand_8cpp.html" target="_top" xlink:title=" ">
<polygon fill="white" stroke="#666666" points="1488.88,-32 1277.12,-32 1277.12,0 1488.88,0 1488.88,-32"/>
<text text-anchor="start" x="1285.12" y="-18.5" font-family="Helvetica,sans-Serif" font-size="10.00">src/bot_library/commands</text>
<text text-anchor="middle" x="1383" y="-6.5" font-family="Helvetica,sans-Serif" font-size="10.00">/challenge_role/ChallengeRoleCommand.cpp</text>
</a>
</g>
</g>
<!-- Node2&#45;&gt;Node9 -->
<g id="edge39_Node000002_Node000009" class="edge">
<title>Node2&#45;&gt;Node9</title>
<g id="a_edge39_Node000002_Node000009"><a xlink:title=" ">
<path fill="none" stroke="#63b8ff" d="M2090.07,-192.53C2085.16,-153.59 2073.93,-83.76 2055,-68 2007.34,-28.31 1559.73,-38.01 1498,-32 1495.09,-31.72 1492.15,-31.42 1489.18,-31.11"/>
<polygon fill="#63b8ff" stroke="#63b8ff" points="2086.57,-192.74 2091.23,-202.25 2093.52,-191.9 2086.57,-192.74"/>
</a>
</g>
</g>
<!-- Node27 -->
<g id="Node000027" class="node">
<title>Node27</title>
<g id="a_Node000027"><a xlink:href="SetChannelCommand_8cpp.html" target="_top" xlink:title=" ">
<polygon fill="white" stroke="#666666" points="2206.62,-32 2017.38,-32 2017.38,0 2206.62,0 2206.62,-32"/>
<text text-anchor="start" x="2025.38" y="-18.5" font-family="Helvetica,sans-Serif" font-size="10.00">src/bot_library/commands</text>
<text text-anchor="middle" x="2112" y="-6.5" font-family="Helvetica,sans-Serif" font-size="10.00">/set_channel/SetChannelCommand.cpp</text>
</a>
</g>
</g>
<!-- Node2&#45;&gt;Node27 -->
<g id="edge41_Node000002_Node000027" class="edge">
<title>Node2&#45;&gt;Node27</title>
<g id="a_edge41_Node000002_Node000027"><a xlink:title=" ">
<path fill="none" stroke="#63b8ff" d="M2095.5,-192.38C2099.53,-149.53 2107.33,-66.6 2110.56,-32.36"/>
<polygon fill="#63b8ff" stroke="#63b8ff" points="2092.02,-192.03 2094.57,-202.31 2098.99,-192.68 2092.02,-192.03"/>
</a>
</g>
</g>
<!-- Node30 -->
<g id="Node000030" class="node">
<title>Node30</title>
<g id="a_Node000030"><a xlink:href="resource__man_8hpp.html" target="_top" xlink:title=" ">
<polygon fill="white" stroke="#666666" points="2285.5,-168 2140.5,-168 2140.5,-136 2285.5,-136 2285.5,-168"/>
<text text-anchor="start" x="2148.5" y="-154.5" font-family="Helvetica,sans-Serif" font-size="10.00">src/bot_library/commands</text>
<text text-anchor="middle" x="2213" y="-142.5" font-family="Helvetica,sans-Serif" font-size="10.00">/resources/resource_man.hpp</text>
</a>
</g>
</g>
<!-- Node2&#45;&gt;Node30 -->
<g id="edge40_Node000002_Node000030" class="edge">
<title>Node2&#45;&gt;Node30</title>
<g id="a_edge40_Node000002_Node000030"><a xlink:title=" ">
<path fill="none" stroke="#63b8ff" d="M2131.06,-198.07C2148.57,-188.44 2168.97,-177.21 2185.04,-168.38"/>
<polygon fill="#63b8ff" stroke="#63b8ff" points="2129.54,-194.91 2122.46,-202.8 2132.91,-201.04 2129.54,-194.91"/>
</a>
</g>
</g>
<!-- Node5 -->
<g id="Node000005" class="node">
<title>Node5</title>
<g id="a_Node000005"><a xlink:href="BotLibrary_8cpp.html" target="_top" xlink:title=" ">
<polygon fill="white" stroke="#666666" points="608.38,-26 465.62,-26 465.62,-6 608.38,-6 608.38,-26"/>
<text text-anchor="middle" x="537" y="-12.5" font-family="Helvetica,sans-Serif" font-size="10.00">src/bot_library/BotLibrary.cpp</text>
</a>
</g>
</g>
<!-- Node4&#45;&gt;Node5 -->
<g id="edge4_Node000004_Node000005" class="edge">
<title>Node4&#45;&gt;Node5</title>
<g id="a_edge4_Node000004_Node000005"><a xlink:title=" ">
<path fill="none" stroke="#63b8ff" d="M1092.5,-150.07C949.14,-147.22 589.16,-136.49 550,-100 529.51,-80.91 532.44,-43.77 535.19,-26.39"/>
<polygon fill="#63b8ff" stroke="#63b8ff" points="1092.08,-153.56 1102.14,-150.25 1092.21,-146.56 1092.08,-153.56"/>
</a>
</g>
</g>
<!-- Node6 -->
<g id="Node000006" class="node">
<title>Node6</title>
<g id="a_Node000006"><a xlink:href="Bot_8cpp.html" target="_top" xlink:title=" ">
<polygon fill="white" stroke="#666666" points="2046,-100 1952,-100 1952,-68 2046,-68 2046,-100"/>
<text text-anchor="start" x="1960" y="-86.5" font-family="Helvetica,sans-Serif" font-size="10.00">src/bot_library/bot</text>
<text text-anchor="middle" x="1999" y="-74.5" font-family="Helvetica,sans-Serif" font-size="10.00">/Bot.cpp</text>
</a>
</g>
</g>
<!-- Node4&#45;&gt;Node6 -->
<g id="edge5_Node000004_Node000006" class="edge">
<title>Node4&#45;&gt;Node6</title>
<g id="a_edge5_Node000004_Node000006"><a xlink:title=" ">
<path fill="none" stroke="#63b8ff" d="M1209.63,-151.16C1341.56,-150.68 1671.46,-144.66 1943,-100 1945.88,-99.53 1948.83,-98.97 1951.79,-98.35"/>
<polygon fill="#63b8ff" stroke="#63b8ff" points="1209.74,-147.66 1199.75,-151.19 1209.75,-154.66 1209.74,-147.66"/>
</a>
</g>
</g>
<!-- Node7 -->
<g id="Node000007" class="node">
<title>Node7</title>
<g id="a_Node000007"><a xlink:href="ChallengeRoleCommand_8hpp.html" target="_top" xlink:title=" ">
<polygon fill="white" stroke="#666666" points="1067.88,-100 856.12,-100 856.12,-68 1067.88,-68 1067.88,-100"/>
<text text-anchor="start" x="864.12" y="-86.5" font-family="Helvetica,sans-Serif" font-size="10.00">src/bot_library/commands</text>
<text text-anchor="middle" x="962" y="-74.5" font-family="Helvetica,sans-Serif" font-size="10.00">/challenge_role/ChallengeRoleCommand.hpp</text>
</a>
</g>
</g>
<!-- Node4&#45;&gt;Node7 -->
<g id="edge6_Node000004_Node000007" class="edge">
<title>Node4&#45;&gt;Node7</title>
<g id="a_edge6_Node000004_Node000007"><a xlink:title=" ">
<path fill="none" stroke="#63b8ff" d="M1096.07,-131.82C1067.56,-121.86 1033.17,-109.85 1006.36,-100.49"/>
<polygon fill="#63b8ff" stroke="#63b8ff" points="1094.66,-135.03 1105.26,-135.03 1096.97,-128.43 1094.66,-135.03"/>
</a>
</g>
</g>
<!-- Node11 -->
<g id="Node000011" class="node">
<title>Node11</title>
<g id="a_Node000011"><a xlink:href="CleanUp_8hpp.html" target="_top" xlink:title=" ">
<polygon fill="white" stroke="#666666" points="356.25,-100 227.75,-100 227.75,-68 356.25,-68 356.25,-100"/>
<text text-anchor="start" x="235.75" y="-86.5" font-family="Helvetica,sans-Serif" font-size="10.00">src/bot_library/commands</text>
<text text-anchor="middle" x="292" y="-74.5" font-family="Helvetica,sans-Serif" font-size="10.00">/clean_up/CleanUp.hpp</text>
</a>
</g>
</g>
<!-- Node4&#45;&gt;Node11 -->
<g id="edge10_Node000004_Node000011" class="edge">
<title>Node4&#45;&gt;Node11</title>
<g id="a_edge10_Node000004_Node000011"><a xlink:title=" ">
<path fill="none" stroke="#63b8ff" d="M1092.59,-149.9C961.88,-146.85 636.05,-135.97 366,-100 362.88,-99.58 359.7,-99.12 356.49,-98.61"/>
<polygon fill="#63b8ff" stroke="#63b8ff" points="1092.3,-153.39 1102.37,-150.12 1092.46,-146.4 1092.3,-153.39"/>
</a>
</g>
</g>
<!-- Node13 -->
<g id="Node000013" class="node">
<title>Node13</title>
<g id="a_Node000013"><a xlink:href="HelpCommand_8hpp.html" target="_top" xlink:title=" ">
<polygon fill="white" stroke="#666666" points="503.25,-100 374.75,-100 374.75,-68 503.25,-68 503.25,-100"/>
<text text-anchor="start" x="382.75" y="-86.5" font-family="Helvetica,sans-Serif" font-size="10.00">src/bot_library/commands</text>
<text text-anchor="middle" x="439" y="-74.5" font-family="Helvetica,sans-Serif" font-size="10.00">/help/HelpCommand.hpp</text>
</a>
</g>
</g>
<!-- Node4&#45;&gt;Node13 -->
<g id="edge13_Node000004_Node000013" class="edge">
<title>Node4&#45;&gt;Node13</title>
<g id="a_edge13_Node000004_Node000013"><a xlink:title=" ">
<path fill="none" stroke="#63b8ff" d="M1092.52,-148.44C980.45,-143.07 727.83,-128.66 517,-100 512.63,-99.41 508.13,-98.73 503.61,-97.99"/>
<polygon fill="#63b8ff" stroke="#63b8ff" points="1092.22,-151.93 1102.37,-148.91 1092.55,-144.94 1092.22,-151.93"/>
</a>
</g>
</g>
<!-- Node15 -->
<g id="Node000015" class="node">
<title>Node15</title>
<g id="a_Node000015"><a xlink:href="Commands_8hpp.html" target="_top" xlink:title=" ">
<polygon fill="white" stroke="#666666" points="687.25,-100 558.75,-100 558.75,-68 687.25,-68 687.25,-100"/>
<text text-anchor="start" x="566.75" y="-86.5" font-family="Helvetica,sans-Serif" font-size="10.00">src/bot_library/commands</text>
<text text-anchor="middle" x="623" y="-74.5" font-family="Helvetica,sans-Serif" font-size="10.00">/include/Commands.hpp</text>
</a>
</g>
</g>
<!-- Node4&#45;&gt;Node15 -->
<g id="edge16_Node000004_Node000015" class="edge">
<title>Node4&#45;&gt;Node15</title>
<g id="a_edge16_Node000004_Node000015"><a xlink:title=" ">
<path fill="none" stroke="#63b8ff" d="M1092.18,-146.13C1005.25,-138.55 837.48,-122.42 696,-100 693.19,-99.55 690.32,-99.07 687.43,-98.57"/>
<polygon fill="#63b8ff" stroke="#63b8ff" points="1091.88,-149.62 1102.14,-146.99 1092.48,-142.64 1091.88,-149.62"/>
</a>
</g>
</g>
<!-- Node16 -->
<g id="Node000016" class="node">
<title>Node16</title>
<g id="a_Node000016"><a xlink:href="InitDatabase_8hpp.html" target="_top" xlink:title=" ">
<polygon fill="white" stroke="#666666" points="182,-100 28,-100 28,-68 182,-68 182,-100"/>
<text text-anchor="start" x="36" y="-86.5" font-family="Helvetica,sans-Serif" font-size="10.00">src/bot_library/commands</text>
<text text-anchor="middle" x="105" y="-74.5" font-family="Helvetica,sans-Serif" font-size="10.00">/init_database/InitDatabase.hpp</text>
</a>
</g>
</g>
<!-- Node4&#45;&gt;Node16 -->
<g id="edge19_Node000004_Node000016" class="edge">
<title>Node4&#45;&gt;Node16</title>
<g id="a_edge19_Node000004_Node000016"><a xlink:title=" ">
<path fill="none" stroke="#63b8ff" d="M1092.48,-149.35C945.4,-144.85 548.51,-130.65 219,-100 207.17,-98.9 194.69,-97.5 182.48,-96"/>
<polygon fill="#63b8ff" stroke="#63b8ff" points="1092.26,-152.84 1102.36,-149.64 1092.47,-145.84 1092.26,-152.84"/>
</a>
</g>
</g>
<!-- Node18 -->
<g id="Node000018" class="node">
<title>Node18</title>
<g id="a_Node000018"><a xlink:href="InviteCommand_8hpp.html" target="_top" xlink:title=" ">
<polygon fill="white" stroke="#666666" points="838.5,-100 705.5,-100 705.5,-68 838.5,-68 838.5,-100"/>
<text text-anchor="start" x="713.5" y="-86.5" font-family="Helvetica,sans-Serif" font-size="10.00">src/bot_library/commands</text>
<text text-anchor="middle" x="772" y="-74.5" font-family="Helvetica,sans-Serif" font-size="10.00">/invite/InviteCommand.hpp</text>
</a>
</g>
</g>
<!-- Node4&#45;&gt;Node18 -->
<g id="edge21_Node000004_Node000018" class="edge">
<title>Node4&#45;&gt;Node18</title>
<g id="a_edge21_Node000004_Node000018"><a xlink:title=" ">
<path fill="none" stroke="#63b8ff" d="M1092.54,-141.75C1031.26,-131.92 932.22,-115.67 847,-100 844.26,-99.5 841.46,-98.97 838.64,-98.44"/>
<polygon fill="#63b8ff" stroke="#63b8ff" points="1091.61,-145.14 1102.03,-143.27 1092.71,-138.23 1091.61,-145.14"/>
</a>
</g>
</g>
<!-- Node20 -->
<g id="Node000020" class="node">
<title>Node20</title>
<g id="a_Node000020"><a xlink:href="PongCommand_8hpp.html" target="_top" xlink:title=" ">
<polygon fill="white" stroke="#666666" points="1215.62,-100 1086.38,-100 1086.38,-68 1215.62,-68 1215.62,-100"/>
<text text-anchor="start" x="1094.38" y="-86.5" font-family="Helvetica,sans-Serif" font-size="10.00">src/bot_library/commands</text>
<text text-anchor="middle" x="1151" y="-74.5" font-family="Helvetica,sans-Serif" font-size="10.00">/pong/PongCommand.hpp</text>
</a>
</g>
</g>
<!-- Node4&#45;&gt;Node20 -->
<g id="edge24_Node000004_Node000020" class="edge">
<title>Node4&#45;&gt;Node20</title>
<g id="a_edge24_Node000004_Node000020"><a xlink:title=" ">
<path fill="none" stroke="#63b8ff" d="M1151,-124.31C1151,-116.12 1151,-107.38 1151,-100.22"/>
<polygon fill="#63b8ff" stroke="#63b8ff" points="1147.5,-124.18 1151,-134.18 1154.5,-124.18 1147.5,-124.18"/>
</a>
</g>
</g>
<!-- Node22 -->
<g id="Node000022" class="node">
<title>Node22</title>
<g id="a_Node000022"><a xlink:href="ReactionRoles_8hpp.html" target="_top" xlink:title=" ">
<polygon fill="white" stroke="#666666" points="1400,-100 1234,-100 1234,-68 1400,-68 1400,-100"/>
<text text-anchor="start" x="1242" y="-86.5" font-family="Helvetica,sans-Serif" font-size="10.00">src/bot_library/commands</text>
<text text-anchor="middle" x="1317" y="-74.5" font-family="Helvetica,sans-Serif" font-size="10.00">/reaction_roles/ReactionRoles.hpp</text>
</a>
</g>
</g>
<!-- Node4&#45;&gt;Node22 -->
<g id="edge27_Node000004_Node000022" class="edge">
<title>Node4&#45;&gt;Node22</title>
<g id="a_edge27_Node000004_Node000022"><a xlink:title=" ">
<path fill="none" stroke="#63b8ff" d="M1200.57,-131.29C1225.35,-121.44 1254.91,-109.69 1278.04,-100.49"/>
<polygon fill="#63b8ff" stroke="#63b8ff" points="1199.33,-128.02 1191.33,-134.97 1201.91,-134.52 1199.33,-128.02"/>
</a>
</g>
</g>
<!-- Node24 -->
<g id="Node000024" class="node">
<title>Node24</title>
<g id="a_Node000024"><a xlink:href="ServerDetails_8hpp.html" target="_top" xlink:title=" ">
<polygon fill="white" stroke="#666666" points="1578.38,-100 1417.62,-100 1417.62,-68 1578.38,-68 1578.38,-100"/>
<text text-anchor="start" x="1425.62" y="-86.5" font-family="Helvetica,sans-Serif" font-size="10.00">src/bot_library/commands</text>
<text text-anchor="middle" x="1498" y="-74.5" font-family="Helvetica,sans-Serif" font-size="10.00">/server_details/ServerDetails.hpp</text>
</a>
</g>
</g>
<!-- Node4&#45;&gt;Node24 -->
<g id="edge30_Node000004_Node000024" class="edge">
<title>Node4&#45;&gt;Node24</title>
<g id="a_edge30_Node000004_Node000024"><a xlink:title=" ">
<path fill="none" stroke="#63b8ff" d="M1209.14,-139.94C1266.16,-129.1 1353.57,-112.47 1417.31,-100.35"/>
<polygon fill="#63b8ff" stroke="#63b8ff" points="1208.82,-136.44 1199.65,-141.75 1210.12,-143.32 1208.82,-136.44"/>
</a>
</g>
</g>
<!-- Node26 -->
<g id="Node000026" class="node">
<title>Node26</title>
<g id="a_Node000026"><a xlink:href="SetChannelCommand_8hpp.html" target="_top" xlink:title=" ">
<polygon fill="white" stroke="#666666" points="1933.62,-100 1744.38,-100 1744.38,-68 1933.62,-68 1933.62,-100"/>
<text text-anchor="start" x="1752.38" y="-86.5" font-family="Helvetica,sans-Serif" font-size="10.00">src/bot_library/commands</text>
<text text-anchor="middle" x="1839" y="-74.5" font-family="Helvetica,sans-Serif" font-size="10.00">/set_channel/SetChannelCommand.hpp</text>
</a>
</g>
</g>
<!-- Node4&#45;&gt;Node26 -->
<g id="edge33_Node000004_Node000026" class="edge">
<title>Node4&#45;&gt;Node26</title>
<g id="a_edge33_Node000004_Node000026"><a xlink:title=" ">
<path fill="none" stroke="#63b8ff" d="M1209.73,-146.97C1315.13,-139.49 1543.27,-122.18 1735,-100 1737.99,-99.65 1741.03,-99.29 1744.09,-98.91"/>
<polygon fill="#63b8ff" stroke="#63b8ff" points="1209.64,-143.46 1199.91,-147.66 1210.13,-150.45 1209.64,-143.46"/>
</a>
</g>
</g>
<!-- Node28 -->
<g id="Node000028" class="node">
<title>Node28</title>
<g id="a_Node000028"><a xlink:href="SetStatus_8hpp.html" target="_top" xlink:title=" ">
<polygon fill="white" stroke="#666666" points="1726,-100 1596,-100 1596,-68 1726,-68 1726,-100"/>
<text text-anchor="start" x="1604" y="-86.5" font-family="Helvetica,sans-Serif" font-size="10.00">src/bot_library/commands</text>
<text text-anchor="middle" x="1661" y="-74.5" font-family="Helvetica,sans-Serif" font-size="10.00">/set_status/SetStatus.hpp</text>
</a>
</g>
</g>
<!-- Node4&#45;&gt;Node28 -->
<g id="edge36_Node000004_Node000028" class="edge">
<title>Node4&#45;&gt;Node28</title>
<g id="a_edge36_Node000004_Node000028"><a xlink:title=" ">
<path fill="none" stroke="#63b8ff" d="M1209.61,-145.71C1293.51,-137.79 1452.59,-121.45 1587,-100 1589.85,-99.55 1592.75,-99.06 1595.68,-98.55"/>
<polygon fill="#63b8ff" stroke="#63b8ff" points="1209.41,-142.22 1199.78,-146.63 1210.07,-149.19 1209.41,-142.22"/>
</a>
</g>
</g>
<!-- Node8 -->
<g id="Node000008" class="node">
<title>Node8</title>
<g id="a_Node000008"><a xlink:href="Commands_8cpp.html" target="_top" xlink:title=" ">
<polygon fill="white" stroke="#666666" points="1111.25,-32 982.75,-32 982.75,0 1111.25,0 1111.25,-32"/>
<text text-anchor="start" x="990.75" y="-18.5" font-family="Helvetica,sans-Serif" font-size="10.00">src/bot_library/commands</text>
<text text-anchor="middle" x="1047" y="-6.5" font-family="Helvetica,sans-Serif" font-size="10.00">/Commands.cpp</text>
</a>
</g>
</g>
<!-- Node7&#45;&gt;Node8 -->
<g id="edge7_Node000007_Node000008" class="edge">
<title>Node7&#45;&gt;Node8</title>
<g id="a_edge7_Node000007_Node000008"><a xlink:title=" ">
<path fill="none" stroke="#63b8ff" d="M990.5,-60.87C1002.51,-51.55 1016.2,-40.91 1027.1,-32.45"/>
<polygon fill="#63b8ff" stroke="#63b8ff" points="988.66,-57.87 982.91,-66.76 992.95,-63.4 988.66,-57.87"/>
</a>
</g>
</g>
<!-- Node7&#45;&gt;Node9 -->
<g id="edge8_Node000007_Node000009" class="edge">
<title>Node7&#45;&gt;Node9</title>
<g id="a_edge8_Node000007_Node000009"><a xlink:title=" ">
<path fill="none" stroke="#63b8ff" d="M1071.94,-65.77C1137.68,-55.46 1220.52,-42.47 1284.18,-32.49"/>
<polygon fill="#63b8ff" stroke="#63b8ff" points="1071.54,-62.28 1062.2,-67.29 1072.62,-69.2 1071.54,-62.28"/>
</a>
</g>
</g>
<!-- Node10 -->
<g id="Node000010" class="node">
<title>Node10</title>
<g id="a_Node000010"><a xlink:href="ChallengeRoleDTO_8cpp.html" target="_top" xlink:title=" ">
<polygon fill="white" stroke="#666666" points="964.88,-32 777.12,-32 777.12,0 964.88,0 964.88,-32"/>
<text text-anchor="start" x="785.12" y="-18.5" font-family="Helvetica,sans-Serif" font-size="10.00">src/bot_library/commands</text>
<text text-anchor="middle" x="871" y="-6.5" font-family="Helvetica,sans-Serif" font-size="10.00">/challenge_role/ChallengeRoleDTO.cpp</text>
</a>
</g>
</g>
<!-- Node7&#45;&gt;Node10 -->
<g id="edge9_Node000007_Node000010" class="edge">
<title>Node7&#45;&gt;Node10</title>
<g id="a_edge9_Node000007_Node000010"><a xlink:title=" ">
<path fill="none" stroke="#63b8ff" d="M931.87,-61.15C918.92,-51.75 904.09,-41 892.31,-32.45"/>
<polygon fill="#63b8ff" stroke="#63b8ff" points="929.52,-63.77 939.67,-66.8 933.63,-58.1 929.52,-63.77"/>
</a>
</g>
</g>
<!-- Node11&#45;&gt;Node8 -->
<g id="edge11_Node000011_Node000008" class="edge">
<title>Node11&#45;&gt;Node8</title>
<g id="a_edge11_Node000011_Node000008"><a xlink:title=" ">
<path fill="none" stroke="#63b8ff" d="M367.77,-67.92C636.41,-33.95 709.29,-66.85 974,-32 976.82,-31.63 979.7,-31.21 982.6,-30.76"/>
<polygon fill="#63b8ff" stroke="#63b8ff" points="367.46,-64.43 357.99,-69.18 368.35,-71.37 367.46,-64.43"/>
</a>
</g>
</g>
<!-- Node12 -->
<g id="Node000012" class="node">
<title>Node12</title>
<g id="a_Node000012"><a xlink:href="CleanUp_8cpp.html" target="_top" xlink:title=" ">
<polygon fill="white" stroke="#666666" points="300.25,-32 171.75,-32 171.75,0 300.25,0 300.25,-32"/>
<text text-anchor="start" x="179.75" y="-18.5" font-family="Helvetica,sans-Serif" font-size="10.00">src/bot_library/commands</text>
<text text-anchor="middle" x="236" y="-6.5" font-family="Helvetica,sans-Serif" font-size="10.00">/clean_up/CleanUp.cpp</text>
</a>
</g>
</g>
<!-- Node11&#45;&gt;Node12 -->
<g id="edge12_Node000011_Node000012" class="edge">
<title>Node11&#45;&gt;Node12</title>
<g id="a_edge12_Node000011_Node000012"><a xlink:title=" ">
<path fill="none" stroke="#63b8ff" d="M271.76,-59.15C264.14,-50.17 255.69,-40.21 248.92,-32.22"/>
<polygon fill="#63b8ff" stroke="#63b8ff" points="268.89,-61.18 278.03,-66.54 274.23,-56.65 268.89,-61.18"/>
</a>
</g>
</g>
<!-- Node13&#45;&gt;Node8 -->
<g id="edge14_Node000013_Node000008" class="edge">
<title>Node13&#45;&gt;Node8</title>
<g id="a_edge14_Node000013_Node000008"><a xlink:title=" ">
<path fill="none" stroke="#63b8ff" d="M514.7,-72.26C526.51,-70.73 538.57,-69.26 550,-68 737.99,-47.33 786.83,-59.08 974,-32 976.82,-31.59 979.69,-31.14 982.59,-30.67"/>
<polygon fill="#63b8ff" stroke="#63b8ff" points="514.46,-68.76 505,-73.54 515.37,-75.7 514.46,-68.76"/>
</a>
</g>
</g>
<!-- Node14 -->
<g id="Node000014" class="node">
<title>Node14</title>
<g id="a_Node000014"><a xlink:href="HelpCommand_8cpp.html" target="_top" xlink:title=" ">
<polygon fill="white" stroke="#666666" points="447.25,-32 318.75,-32 318.75,0 447.25,0 447.25,-32"/>
<text text-anchor="start" x="326.75" y="-18.5" font-family="Helvetica,sans-Serif" font-size="10.00">src/bot_library/commands</text>
<text text-anchor="middle" x="383" y="-6.5" font-family="Helvetica,sans-Serif" font-size="10.00">/help/HelpCommand.cpp</text>
</a>
</g>
</g>
<!-- Node13&#45;&gt;Node14 -->
<g id="edge15_Node000013_Node000014" class="edge">
<title>Node13&#45;&gt;Node14</title>
<g id="a_edge15_Node000013_Node000014"><a xlink:title=" ">
<path fill="none" stroke="#63b8ff" d="M418.76,-59.15C411.14,-50.17 402.69,-40.21 395.92,-32.22"/>
<polygon fill="#63b8ff" stroke="#63b8ff" points="415.89,-61.18 425.03,-66.54 421.23,-56.65 415.89,-61.18"/>
</a>
</g>
</g>
<!-- Node15&#45;&gt;Node5 -->
<g id="edge17_Node000015_Node000005" class="edge">
<title>Node15&#45;&gt;Node5</title>
<g id="a_edge17_Node000015_Node000005"><a xlink:title=" ">
<path fill="none" stroke="#63b8ff" d="M593.96,-60.71C578.67,-48.98 560.74,-35.22 549.14,-26.32"/>
<polygon fill="#63b8ff" stroke="#63b8ff" points="591.79,-63.46 601.85,-66.77 596.05,-57.91 591.79,-63.46"/>
</a>
</g>
</g>
<!-- Node15&#45;&gt;Node8 -->
<g id="edge18_Node000015_Node000008" class="edge">
<title>Node15&#45;&gt;Node8</title>
<g id="a_edge18_Node000015_Node000008"><a xlink:title=" ">
<path fill="none" stroke="#63b8ff" d="M698.74,-67.62C820.85,-47.72 854.72,-51.95 974,-32 976.81,-31.53 979.67,-31.03 982.56,-30.51"/>
<polygon fill="#63b8ff" stroke="#63b8ff" points="698.23,-64.16 688.93,-69.24 699.37,-71.07 698.23,-64.16"/>
</a>
</g>
</g>
<!-- Node17 -->
<g id="Node000017" class="node">
<title>Node17</title>
<g id="a_Node000017"><a xlink:href="InitDatabase_8cpp.html" target="_top" xlink:title=" ">
<polygon fill="white" stroke="#666666" points="154,-32 0,-32 0,0 154,0 154,-32"/>
<text text-anchor="start" x="8" y="-18.5" font-family="Helvetica,sans-Serif" font-size="10.00">src/bot_library/commands</text>
<text text-anchor="middle" x="77" y="-6.5" font-family="Helvetica,sans-Serif" font-size="10.00">/init_database/InitDatabase.cpp</text>
</a>
</g>
</g>
<!-- Node16&#45;&gt;Node17 -->
<g id="edge20_Node000016_Node000017" class="edge">
<title>Node16&#45;&gt;Node17</title>
<g id="a_edge20_Node000016_Node000017"><a xlink:title=" ">
<path fill="none" stroke="#63b8ff" d="M94.04,-57.17C90.46,-48.73 86.6,-39.63 83.46,-32.22"/>
<polygon fill="#63b8ff" stroke="#63b8ff" points="90.79,-58.46 97.91,-66.3 97.23,-55.73 90.79,-58.46"/>
</a>
</g>
</g>
<!-- Node18&#45;&gt;Node8 -->
<g id="edge22_Node000018_Node000008" class="edge">
<title>Node18&#45;&gt;Node8</title>
<g id="a_edge22_Node000018_Node000008"><a xlink:title=" ">
<path fill="none" stroke="#63b8ff" d="M847.57,-64.86C889.87,-54.71 942.07,-42.18 982.45,-32.49"/>
<polygon fill="#63b8ff" stroke="#63b8ff" points="846.85,-61.44 837.95,-67.17 848.49,-68.24 846.85,-61.44"/>
</a>
</g>
</g>
<!-- Node19 -->
<g id="Node000019" class="node">
<title>Node19</title>
<g id="a_Node000019"><a xlink:href="InviteCommand_8cpp.html" target="_top" xlink:title=" ">
<polygon fill="white" stroke="#666666" points="759.5,-32 626.5,-32 626.5,0 759.5,0 759.5,-32"/>
<text text-anchor="start" x="634.5" y="-18.5" font-family="Helvetica,sans-Serif" font-size="10.00">src/bot_library/commands</text>
<text text-anchor="middle" x="693" y="-6.5" font-family="Helvetica,sans-Serif" font-size="10.00">/invite/InviteCommand.cpp</text>
</a>
</g>
</g>
<!-- Node18&#45;&gt;Node19 -->
<g id="edge23_Node000018_Node000019" class="edge">
<title>Node18&#45;&gt;Node19</title>
<g id="a_edge23_Node000018_Node000019"><a xlink:title=" ">
<path fill="none" stroke="#63b8ff" d="M744.86,-60.32C733.85,-51.13 721.43,-40.75 711.5,-32.45"/>
<polygon fill="#63b8ff" stroke="#63b8ff" points="742.6,-63 752.52,-66.72 747.09,-57.62 742.6,-63"/>
</a>
</g>
</g>
<!-- Node20&#45;&gt;Node8 -->
<g id="edge25_Node000020_Node000008" class="edge">
<title>Node20&#45;&gt;Node8</title>
<g id="a_edge25_Node000020_Node000008"><a xlink:title=" ">
<path fill="none" stroke="#63b8ff" d="M1117.16,-61.53C1102.18,-52.02 1084.9,-41.05 1071.23,-32.38"/>
<polygon fill="#63b8ff" stroke="#63b8ff" points="1115.02,-64.31 1125.34,-66.71 1118.77,-58.4 1115.02,-64.31"/>
</a>
</g>
</g>
<!-- Node21 -->
<g id="Node000021" class="node">
<title>Node21</title>
<g id="a_Node000021"><a xlink:href="PongCommand_8cpp.html" target="_top" xlink:title=" ">
<polygon fill="white" stroke="#666666" points="1258.62,-32 1129.38,-32 1129.38,0 1258.62,0 1258.62,-32"/>
<text text-anchor="start" x="1137.38" y="-18.5" font-family="Helvetica,sans-Serif" font-size="10.00">src/bot_library/commands</text>
<text text-anchor="middle" x="1194" y="-6.5" font-family="Helvetica,sans-Serif" font-size="10.00">/pong/PongCommand.cpp</text>
</a>
</g>
</g>
<!-- Node20&#45;&gt;Node21 -->
<g id="edge26_Node000020_Node000021" class="edge">
<title>Node20&#45;&gt;Node21</title>
<g id="a_edge26_Node000020_Node000021"><a xlink:title=" ">
<path fill="none" stroke="#63b8ff" d="M1167.09,-58.3C1172.79,-49.55 1179.04,-39.96 1184.08,-32.22"/>
<polygon fill="#63b8ff" stroke="#63b8ff" points="1164.33,-56.14 1161.8,-66.42 1170.19,-59.96 1164.33,-56.14"/>
</a>
</g>
</g>
<!-- Node22&#45;&gt;Node8 -->
<g id="edge28_Node000022_Node000008" class="edge">
<title>Node22&#45;&gt;Node8</title>
<g id="a_edge28_Node000022_Node000008"><a xlink:title=" ">
<path fill="none" stroke="#63b8ff" d="M1242.54,-64.8C1201.05,-54.66 1149.94,-42.16 1110.37,-32.49"/>
<polygon fill="#63b8ff" stroke="#63b8ff" points="1241.68,-68.19 1252.23,-67.17 1243.34,-61.39 1241.68,-68.19"/>
</a>
</g>
</g>
<!-- Node23 -->
<g id="Node000023" class="node">
<title>Node23</title>
<g id="a_Node000023"><a xlink:href="ReactionRoles_8cpp.html" target="_top" xlink:title=" ">
<polygon fill="white" stroke="#666666" points="1673,-32 1507,-32 1507,0 1673,0 1673,-32"/>
<text text-anchor="start" x="1515" y="-18.5" font-family="Helvetica,sans-Serif" font-size="10.00">src/bot_library/commands</text>
<text text-anchor="middle" x="1590" y="-6.5" font-family="Helvetica,sans-Serif" font-size="10.00">/reaction_roles/ReactionRoles.cpp</text>
</a>
</g>
</g>
<!-- Node22&#45;&gt;Node23 -->
<g id="edge29_Node000022_Node000023" class="edge">
<title>Node22&#45;&gt;Node23</title>
<g id="a_edge29_Node000022_Node000023"><a xlink:title=" ">
<path fill="none" stroke="#63b8ff" d="M1392.02,-64.86C1434.02,-54.71 1485.83,-42.18 1525.92,-32.49"/>
<polygon fill="#63b8ff" stroke="#63b8ff" points="1391.38,-61.42 1382.48,-67.17 1393.02,-68.22 1391.38,-61.42"/>
</a>
</g>
</g>
<!-- Node24&#45;&gt;Node8 -->
<g id="edge31_Node000024_Node000008" class="edge">
<title>Node24&#45;&gt;Node8</title>
<g id="a_edge31_Node000024_Node000008"><a xlink:title=" ">
<path fill="none" stroke="#63b8ff" d="M1406.14,-67.63C1278.97,-49.44 1244.1,-52.45 1120,-32 1117.19,-31.54 1114.33,-31.04 1111.44,-30.53"/>
<polygon fill="#63b8ff" stroke="#63b8ff" points="1405.6,-71.08 1416,-69.05 1406.6,-64.16 1405.6,-71.08"/>
</a>
</g>
</g>
<!-- Node25 -->
<g id="Node000025" class="node">
<title>Node25</title>
<g id="a_Node000025"><a xlink:href="ServerDetails_8cpp.html" target="_top" xlink:title=" ">
<polygon fill="white" stroke="#666666" points="1851.38,-32 1690.62,-32 1690.62,0 1851.38,0 1851.38,-32"/>
<text text-anchor="start" x="1698.62" y="-18.5" font-family="Helvetica,sans-Serif" font-size="10.00">src/bot_library/commands</text>
<text text-anchor="middle" x="1771" y="-6.5" font-family="Helvetica,sans-Serif" font-size="10.00">/server_details/ServerDetails.cpp</text>
</a>
</g>
</g>
<!-- Node24&#45;&gt;Node25 -->
<g id="edge32_Node000024_Node000025" class="edge">
<title>Node24&#45;&gt;Node25</title>
<g id="a_edge32_Node000024_Node000025"><a xlink:title=" ">
<path fill="none" stroke="#63b8ff" d="M1573.02,-64.86C1615.02,-54.71 1666.83,-42.18 1706.92,-32.49"/>
<polygon fill="#63b8ff" stroke="#63b8ff" points="1572.38,-61.42 1563.48,-67.17 1574.02,-68.22 1572.38,-61.42"/>
</a>
</g>
</g>
<!-- Node26&#45;&gt;Node8 -->
<g id="edge34_Node000026_Node000008" class="edge">
<title>Node26&#45;&gt;Node8</title>
<g id="a_edge34_Node000026_Node000008"><a xlink:title=" ">
<path fill="none" stroke="#63b8ff" d="M1732.67,-67.83C1460.61,-41.16 1387.76,-67.16 1120,-32 1117.18,-31.63 1114.3,-31.21 1111.4,-30.76"/>
<polygon fill="#63b8ff" stroke="#63b8ff" points="1732.3,-71.31 1742.6,-68.82 1732.99,-64.35 1732.3,-71.31"/>
</a>
</g>
</g>
<!-- Node26&#45;&gt;Node27 -->
<g id="edge35_Node000026_Node000027" class="edge">
<title>Node26&#45;&gt;Node27</title>
<g id="a_edge35_Node000026_Node000027"><a xlink:title=" ">
<path fill="none" stroke="#63b8ff" d="M1914.02,-64.86C1956.02,-54.71 2007.83,-42.18 2047.92,-32.49"/>
<polygon fill="#63b8ff" stroke="#63b8ff" points="1913.38,-61.42 1904.48,-67.17 1915.02,-68.22 1913.38,-61.42"/>
</a>
</g>
</g>
<!-- Node28&#45;&gt;Node8 -->
<g id="edge37_Node000028_Node000008" class="edge">
<title>Node28&#45;&gt;Node8</title>
<g id="a_edge37_Node000028_Node000008"><a xlink:title=" ">
<path fill="none" stroke="#63b8ff" d="M1584.52,-67.77C1378.85,-40.02 1322.52,-60.5 1120,-32 1117.18,-31.6 1114.31,-31.16 1111.41,-30.69"/>
<polygon fill="#63b8ff" stroke="#63b8ff" points="1583.82,-71.21 1594.21,-69.1 1584.78,-64.28 1583.82,-71.21"/>
</a>
</g>
</g>
<!-- Node29 -->
<g id="Node000029" class="node">
<title>Node29</title>
<g id="a_Node000029"><a xlink:href="SetStatus_8cpp.html" target="_top" xlink:title=" ">
<polygon fill="white" stroke="#666666" points="1999,-32 1869,-32 1869,0 1999,0 1999,-32"/>
<text text-anchor="start" x="1877" y="-18.5" font-family="Helvetica,sans-Serif" font-size="10.00">src/bot_library/commands</text>
<text text-anchor="middle" x="1934" y="-6.5" font-family="Helvetica,sans-Serif" font-size="10.00">/set_status/SetStatus.cpp</text>
</a>
</g>
</g>
<!-- Node28&#45;&gt;Node29 -->
<g id="edge38_Node000028_Node000029" class="edge">
<title>Node28&#45;&gt;Node29</title>
<g id="a_edge38_Node000028_Node000029"><a xlink:title=" ">
<path fill="none" stroke="#63b8ff" d="M1736.02,-64.86C1778.02,-54.71 1829.83,-42.18 1869.92,-32.49"/>
<polygon fill="#63b8ff" stroke="#63b8ff" points="1735.38,-61.42 1726.48,-67.17 1737.02,-68.22 1735.38,-61.42"/>
</a>
</g>
</g>
</g>
</svg>
