<?xml version="1.0" encoding="UTF-8" standalone="no"?>
<!DOCTYPE svg PUBLIC "-//W3C//DTD SVG 1.1//EN"
 "http://www.w3.org/Graphics/SVG/1.1/DTD/svg11.dtd">
<!-- Generated by graphviz version 9.0.0 (0)
 -->
<!-- Title: src/bot_library/bot/core/interfaces/include/IMessageCommand.hpp Pages: 1 -->
<svg width="3236pt" height="348pt"
 viewBox="0.00 0.00 3236.00 348.00" xmlns="http://www.w3.org/2000/svg" xmlns:xlink="http://www.w3.org/1999/xlink">
<g id="graph0" class="graph" transform="scale(1 1) rotate(0) translate(4 344)">
<title>src/bot_library/bot/core/interfaces/include/IMessageCommand.hpp</title>
<!-- Node1 -->
<g id="Node000001" class="node">
<title>Node1</title>
<g id="a_Node000001"><a xlink:title=" ">
<polygon fill="#999999" stroke="#666666" points="2265.12,-340 2139.62,-340 2139.62,-296 2265.12,-296 2265.12,-340"/>
<text text-anchor="start" x="2147.62" y="-326.5" font-family="Helvetica,sans-Serif" font-size="10.00">src/bot_library/bot</text>
<text text-anchor="start" x="2147.62" y="-314.5" font-family="Helvetica,sans-Serif" font-size="10.00">/core/interfaces/include</text>
<text text-anchor="middle" x="2202.38" y="-302.5" font-family="Helvetica,sans-Serif" font-size="10.00">/IMessageCommand.hpp</text>
</a>
</g>
</g>
<!-- Node2 -->
<g id="Node000002" class="node">
<title>Node2</title>
<g id="a_Node000002"><a xlink:href="Core_8hpp.html" target="_top" xlink:title=" ">
<polygon fill="white" stroke="#666666" points="2861.5,-260 2747.25,-260 2747.25,-228 2861.5,-228 2861.5,-260"/>
<text text-anchor="start" x="2755.25" y="-246.5" font-family="Helvetica,sans-Serif" font-size="10.00">src/bot_library/bot</text>
<text text-anchor="middle" x="2804.38" y="-234.5" font-family="Helvetica,sans-Serif" font-size="10.00">/core/include/Core.hpp</text>
</a>
</g>
</g>
<!-- Node1&#45;&gt;Node2 -->
<g id="edge1_Node000001_Node000002" class="edge">
<title>Node1&#45;&gt;Node2</title>
<g id="a_edge1_Node000001_Node000002"><a xlink:title=" ">
<path fill="none" stroke="#63b8ff" d="M2276.79,-308.1C2398.53,-293.54 2637.68,-264.94 2747.18,-251.84"/>
<polygon fill="#63b8ff" stroke="#63b8ff" points="2276.39,-304.62 2266.88,-309.28 2277.23,-311.57 2276.39,-304.62"/>
</a>
</g>
</g>
<!-- Node4 -->
<g id="Node000004" class="node">
<title>Node4</title>
<g id="a_Node000004"><a xlink:href="Bot_8hpp.html" target="_top" xlink:title=" ">
<polygon fill="white" stroke="#666666" points="1450.38,-192 1356.38,-192 1356.38,-160 1450.38,-160 1450.38,-192"/>
<text text-anchor="start" x="1364.38" y="-178.5" font-family="Helvetica,sans-Serif" font-size="10.00">src/bot_library/bot</text>
<text text-anchor="middle" x="1403.38" y="-166.5" font-family="Helvetica,sans-Serif" font-size="10.00">/include/Bot.hpp</text>
</a>
</g>
</g>
<!-- Node1&#45;&gt;Node4 -->
<g id="edge57_Node000001_Node000004" class="edge">
<title>Node1&#45;&gt;Node4</title>
<g id="a_edge57_Node000001_Node000004"><a xlink:title=" ">
<path fill="none" stroke="#63b8ff" d="M2128.06,-303.98C1965.93,-275.57 1584.33,-208.71 1450.64,-185.28"/>
<polygon fill="#63b8ff" stroke="#63b8ff" points="2127.4,-307.42 2137.85,-305.69 2128.61,-300.52 2127.4,-307.42"/>
</a>
</g>
</g>
<!-- Node3 -->
<g id="Node000003" class="node">
<title>Node3</title>
<g id="a_Node000003"><a xlink:href="Core_8cpp.html" target="_top" xlink:title=" ">
<polygon fill="white" stroke="#666666" points="3087.38,-192 2993.38,-192 2993.38,-160 3087.38,-160 3087.38,-192"/>
<text text-anchor="start" x="3001.38" y="-178.5" font-family="Helvetica,sans-Serif" font-size="10.00">src/bot_library/bot</text>
<text text-anchor="middle" x="3040.38" y="-166.5" font-family="Helvetica,sans-Serif" font-size="10.00">/core/Core.cpp</text>
</a>
</g>
</g>
<!-- Node2&#45;&gt;Node3 -->
<g id="edge2_Node000002_Node000003" class="edge">
<title>Node2&#45;&gt;Node3</title>
<g id="a_edge2_Node000002_Node000003"><a xlink:title=" ">
<path fill="none" stroke="#63b8ff" d="M2870.68,-224.46C2909.59,-213.57 2957.86,-200.08 2992.96,-190.26"/>
<polygon fill="#63b8ff" stroke="#63b8ff" points="2869.85,-221.05 2861.16,-227.12 2871.74,-227.8 2869.85,-221.05"/>
</a>
</g>
</g>
<!-- Node2&#45;&gt;Node4 -->
<g id="edge3_Node000002_Node000004" class="edge">
<title>Node2&#45;&gt;Node4</title>
<g id="a_edge3_Node000002_Node000004"><a xlink:title=" ">
<path fill="none" stroke="#63b8ff" d="M2735.58,-239.76C2489.74,-228.18 1658.24,-189.01 1450.64,-179.23"/>
<polygon fill="#63b8ff" stroke="#63b8ff" points="2735.18,-243.24 2745.33,-240.22 2735.51,-236.25 2735.18,-243.24"/>
</a>
</g>
</g>
<!-- Node9 -->
<g id="Node000009" class="node">
<title>Node9</title>
<g id="a_Node000009"><a xlink:href="ChallengeRoleCommand_8cpp.html" target="_top" xlink:title=" ">
<polygon fill="white" stroke="#666666" points="2693.25,-38 2481.5,-38 2481.5,-6 2693.25,-6 2693.25,-38"/>
<text text-anchor="start" x="2489.5" y="-24.5" font-family="Helvetica,sans-Serif" font-size="10.00">src/bot_library/commands</text>
<text text-anchor="middle" x="2587.38" y="-12.5" font-family="Helvetica,sans-Serif" font-size="10.00">/challenge_role/ChallengeRoleCommand.cpp</text>
</a>
</g>
</g>
<!-- Node2&#45;&gt;Node9 -->
<g id="edge52_Node000002_Node000009" class="edge">
<title>Node2&#45;&gt;Node9</title>
<g id="a_edge52_Node000002_Node000009"><a xlink:title=" ">
<path fill="none" stroke="#63b8ff" d="M2783.46,-219.15C2762.43,-195.15 2729.1,-157.06 2700.38,-124 2683.43,-104.49 2681.21,-97.69 2662.38,-80 2645.93,-64.55 2625.42,-49.19 2610,-38.32"/>
<polygon fill="#63b8ff" stroke="#63b8ff" points="2780.66,-221.27 2789.89,-226.48 2785.93,-216.66 2780.66,-221.27"/>
</a>
</g>
</g>
<!-- Node23 -->
<g id="Node000023" class="node">
<title>Node23</title>
<g id="a_Node000023"><a xlink:href="MemberCommand_8cpp.html" target="_top" xlink:title=" ">
<polygon fill="white" stroke="#666666" points="2867.5,-38 2711.25,-38 2711.25,-6 2867.5,-6 2867.5,-38"/>
<text text-anchor="start" x="2719.25" y="-24.5" font-family="Helvetica,sans-Serif" font-size="10.00">src/bot_library/commands</text>
<text text-anchor="middle" x="2789.38" y="-12.5" font-family="Helvetica,sans-Serif" font-size="10.00">/member/MemberCommand.cpp</text>
</a>
</g>
</g>
<!-- Node2&#45;&gt;Node23 -->
<g id="edge53_Node000002_Node000023" class="edge">
<title>Node2&#45;&gt;Node23</title>
<g id="a_edge53_Node000002_Node000023"><a xlink:title=" ">
<path fill="none" stroke="#63b8ff" d="M2836.56,-220.73C2877.74,-189.39 2940.16,-130.46 2908.38,-80 2895.86,-60.13 2874.29,-47.04 2852.92,-38.47"/>
<polygon fill="#63b8ff" stroke="#63b8ff" points="2834.54,-217.86 2828.59,-226.63 2838.71,-223.49 2834.54,-217.86"/>
</a>
</g>
</g>
<!-- Node29 -->
<g id="Node000029" class="node">
<title>Node29</title>
<g id="a_Node000029"><a xlink:href="ResourcesCommand_8cpp.html" target="_top" xlink:title=" ">
<polygon fill="white" stroke="#666666" points="2463.25,-38 2287.5,-38 2287.5,-6 2463.25,-6 2463.25,-38"/>
<text text-anchor="start" x="2295.5" y="-24.5" font-family="Helvetica,sans-Serif" font-size="10.00">src/bot_library/commands</text>
<text text-anchor="middle" x="2375.38" y="-12.5" font-family="Helvetica,sans-Serif" font-size="10.00">/resources/ResourcesCommand.cpp</text>
</a>
</g>
</g>
<!-- Node2&#45;&gt;Node29 -->
<g id="edge54_Node000002_Node000029" class="edge">
<title>Node2&#45;&gt;Node29</title>
<g id="a_edge54_Node000002_Node000029"><a xlink:title=" ">
<path fill="none" stroke="#63b8ff" d="M2735.93,-225.58C2672.8,-207.28 2578.52,-174.12 2508.38,-124 2487.35,-108.98 2490.15,-96.63 2470.38,-80 2450.8,-63.53 2425.92,-48.79 2406.54,-38.43"/>
<polygon fill="#63b8ff" stroke="#63b8ff" points="2734.92,-228.93 2745.49,-228.3 2736.83,-222.2 2734.92,-228.93"/>
</a>
</g>
</g>
<!-- Node35 -->
<g id="Node000035" class="node">
<title>Node35</title>
<g id="a_Node000035"><a xlink:href="server__details_2set__channel_2SetChannelCommand_8cpp.html" target="_top" xlink:title=" ">
<polygon fill="white" stroke="#666666" points="3021,-44 2885.75,-44 2885.75,0 3021,0 3021,-44"/>
<text text-anchor="start" x="2893.75" y="-30.5" font-family="Helvetica,sans-Serif" font-size="10.00">src/bot_library/commands</text>
<text text-anchor="start" x="2893.75" y="-18.5" font-family="Helvetica,sans-Serif" font-size="10.00">/server_details/set_channel</text>
<text text-anchor="middle" x="2953.38" y="-6.5" font-family="Helvetica,sans-Serif" font-size="10.00">/SetChannelCommand.cpp</text>
</a>
</g>
</g>
<!-- Node2&#45;&gt;Node35 -->
<g id="edge55_Node000002_Node000035" class="edge">
<title>Node2&#45;&gt;Node35</title>
<g id="a_edge55_Node000002_Node000035"><a xlink:title=" ">
<path fill="none" stroke="#63b8ff" d="M2855.67,-222.64C2870.58,-214.81 2885.92,-204.64 2897.38,-192 2935.98,-149.4 2948.05,-79.49 2951.76,-44.44"/>
<polygon fill="#63b8ff" stroke="#63b8ff" points="2854.23,-219.45 2846.82,-227.02 2857.33,-225.72 2854.23,-219.45"/>
</a>
</g>
</g>
<!-- Node37 -->
<g id="Node000037" class="node">
<title>Node37</title>
<g id="a_Node000037"><a xlink:href="set__channel_2SetChannelCommand_8cpp.html" target="_top" xlink:title=" ">
<polygon fill="white" stroke="#666666" points="3228,-38 3038.75,-38 3038.75,-6 3228,-6 3228,-38"/>
<text text-anchor="start" x="3046.75" y="-24.5" font-family="Helvetica,sans-Serif" font-size="10.00">src/bot_library/commands</text>
<text text-anchor="middle" x="3133.38" y="-12.5" font-family="Helvetica,sans-Serif" font-size="10.00">/set_channel/SetChannelCommand.cpp</text>
</a>
</g>
</g>
<!-- Node2&#45;&gt;Node37 -->
<g id="edge56_Node000002_Node000037" class="edge">
<title>Node2&#45;&gt;Node37</title>
<g id="a_edge56_Node000002_Node000037"><a xlink:title=" ">
<path fill="none" stroke="#63b8ff" d="M2873.26,-239.66C2949.33,-234.51 3065.19,-221.89 3096.38,-192 3139.53,-150.65 3137.95,-71.46 3135.11,-38.25"/>
<polygon fill="#63b8ff" stroke="#63b8ff" points="2873.14,-236.16 2863.39,-240.29 2873.59,-243.14 2873.14,-236.16"/>
</a>
</g>
</g>
<!-- Node5 -->
<g id="Node000005" class="node">
<title>Node5</title>
<g id="a_Node000005"><a xlink:href="BotLibrary_8cpp.html" target="_top" xlink:title=" ">
<polygon fill="white" stroke="#666666" points="142.75,-32 0,-32 0,-12 142.75,-12 142.75,-32"/>
<text text-anchor="middle" x="71.38" y="-18.5" font-family="Helvetica,sans-Serif" font-size="10.00">src/bot_library/BotLibrary.cpp</text>
</a>
</g>
</g>
<!-- Node4&#45;&gt;Node5 -->
<g id="edge4_Node000004_Node000005" class="edge">
<title>Node4&#45;&gt;Node5</title>
<g id="a_edge4_Node000004_Node000005"><a xlink:title=" ">
<path fill="none" stroke="#63b8ff" d="M1344.95,-175.03C1090.9,-174.9 92.99,-171.37 47.38,-124 22.62,-98.3 50.51,-51.93 64.43,-32.25"/>
<polygon fill="#63b8ff" stroke="#63b8ff" points="1344.61,-178.53 1354.61,-175.04 1344.61,-171.53 1344.61,-178.53"/>
</a>
</g>
</g>
<!-- Node6 -->
<g id="Node000006" class="node">
<title>Node6</title>
<g id="a_Node000006"><a xlink:href="Bot_8cpp.html" target="_top" xlink:title=" ">
<polygon fill="white" stroke="#666666" points="1099.38,-118 1005.38,-118 1005.38,-86 1099.38,-86 1099.38,-118"/>
<text text-anchor="start" x="1013.38" y="-104.5" font-family="Helvetica,sans-Serif" font-size="10.00">src/bot_library/bot</text>
<text text-anchor="middle" x="1052.38" y="-92.5" font-family="Helvetica,sans-Serif" font-size="10.00">/Bot.cpp</text>
</a>
</g>
</g>
<!-- Node4&#45;&gt;Node6 -->
<g id="edge5_Node000004_Node000006" class="edge">
<title>Node4&#45;&gt;Node6</title>
<g id="a_edge5_Node000004_Node000006"><a xlink:title=" ">
<path fill="none" stroke="#63b8ff" d="M1344.88,-168.18C1284.85,-160.42 1189.07,-145.9 1108.38,-124 1102.56,-122.42 1096.51,-120.48 1090.62,-118.42"/>
<polygon fill="#63b8ff" stroke="#63b8ff" points="1344.17,-171.62 1354.53,-169.41 1345.05,-164.67 1344.17,-171.62"/>
</a>
</g>
</g>
<!-- Node7 -->
<g id="Node000007" class="node">
<title>Node7</title>
<g id="a_Node000007"><a xlink:href="ChallengeRoleCommand_8hpp.html" target="_top" xlink:title=" ">
<polygon fill="white" stroke="#666666" points="2115.25,-118 1903.5,-118 1903.5,-86 2115.25,-86 2115.25,-118"/>
<text text-anchor="start" x="1911.5" y="-104.5" font-family="Helvetica,sans-Serif" font-size="10.00">src/bot_library/commands</text>
<text text-anchor="middle" x="2009.38" y="-92.5" font-family="Helvetica,sans-Serif" font-size="10.00">/challenge_role/ChallengeRoleCommand.hpp</text>
</a>
</g>
</g>
<!-- Node4&#45;&gt;Node7 -->
<g id="edge6_Node000004_Node000007" class="edge">
<title>Node4&#45;&gt;Node7</title>
<g id="a_edge6_Node000004_Node000007"><a xlink:title=" ">
<path fill="none" stroke="#63b8ff" d="M1461.89,-170.39C1554.11,-162.8 1738.78,-146.25 1894.38,-124 1905.63,-122.39 1917.46,-120.48 1929.08,-118.48"/>
<polygon fill="#63b8ff" stroke="#63b8ff" points="1461.77,-166.89 1452.09,-171.19 1462.34,-173.87 1461.77,-166.89"/>
</a>
</g>
</g>
<!-- Node11 -->
<g id="Node000011" class="node">
<title>Node11</title>
<g id="a_Node000011"><a xlink:href="CleanUp_8hpp.html" target="_top" xlink:title=" ">
<polygon fill="white" stroke="#666666" points="987.62,-118 859.12,-118 859.12,-86 987.62,-86 987.62,-118"/>
<text text-anchor="start" x="867.12" y="-104.5" font-family="Helvetica,sans-Serif" font-size="10.00">src/bot_library/commands</text>
<text text-anchor="middle" x="923.38" y="-92.5" font-family="Helvetica,sans-Serif" font-size="10.00">/clean_up/CleanUp.hpp</text>
</a>
</g>
</g>
<!-- Node4&#45;&gt;Node11 -->
<g id="edge10_Node000004_Node000011" class="edge">
<title>Node4&#45;&gt;Node11</title>
<g id="a_edge10_Node000004_Node000011"><a xlink:title=" ">
<path fill="none" stroke="#63b8ff" d="M1344.75,-170.54C1265.23,-163.83 1119.05,-149.17 996.38,-124 988.88,-122.46 981.04,-120.54 973.39,-118.5"/>
<polygon fill="#63b8ff" stroke="#63b8ff" points="1344.22,-174 1354.47,-171.34 1344.8,-167.03 1344.22,-174"/>
</a>
</g>
</g>
<!-- Node13 -->
<g id="Node000013" class="node">
<title>Node13</title>
<g id="a_Node000013"><a xlink:href="FlipCommand_8hpp.html" target="_top" xlink:title=" ">
<polygon fill="white" stroke="#666666" points="1245.62,-118 1117.12,-118 1117.12,-86 1245.62,-86 1245.62,-118"/>
<text text-anchor="start" x="1125.12" y="-104.5" font-family="Helvetica,sans-Serif" font-size="10.00">src/bot_library/commands</text>
<text text-anchor="middle" x="1181.38" y="-92.5" font-family="Helvetica,sans-Serif" font-size="10.00">/flip/FlipCommand.hpp</text>
</a>
</g>
</g>
<!-- Node4&#45;&gt;Node13 -->
<g id="edge13_Node000004_Node000013" class="edge">
<title>Node4&#45;&gt;Node13</title>
<g id="a_edge13_Node000004_Node000013"><a xlink:title=" ">
<path fill="none" stroke="#63b8ff" d="M1345.13,-156.11C1308.96,-144.38 1263.04,-129.49 1229.04,-118.46"/>
<polygon fill="#63b8ff" stroke="#63b8ff" points="1343.99,-159.42 1354.58,-159.18 1346.15,-152.76 1343.99,-159.42"/>
</a>
</g>
</g>
<!-- Node15 -->
<g id="Node000015" class="node">
<title>Node15</title>
<g id="a_Node000015"><a xlink:href="HelpCommand_8hpp.html" target="_top" xlink:title=" ">
<polygon fill="white" stroke="#666666" points="1392.62,-118 1264.12,-118 1264.12,-86 1392.62,-86 1392.62,-118"/>
<text text-anchor="start" x="1272.12" y="-104.5" font-family="Helvetica,sans-Serif" font-size="10.00">src/bot_library/commands</text>
<text text-anchor="middle" x="1328.38" y="-92.5" font-family="Helvetica,sans-Serif" font-size="10.00">/help/HelpCommand.hpp</text>
</a>
</g>
</g>
<!-- Node4&#45;&gt;Node15 -->
<g id="edge16_Node000004_Node000015" class="edge">
<title>Node4&#45;&gt;Node15</title>
<g id="a_edge16_Node000004_Node000015"><a xlink:title=" ">
<path fill="none" stroke="#63b8ff" d="M1379.23,-151.82C1367.88,-140.92 1354.64,-128.21 1344.52,-118.5"/>
<polygon fill="#63b8ff" stroke="#63b8ff" points="1376.74,-154.28 1386.38,-158.68 1381.59,-149.23 1376.74,-154.28"/>
</a>
</g>
</g>
<!-- Node17 -->
<g id="Node000017" class="node">
<title>Node17</title>
<g id="a_Node000017"><a xlink:href="Commands_8hpp.html" target="_top" xlink:title=" ">
<polygon fill="white" stroke="#666666" points="184.62,-118 56.12,-118 56.12,-86 184.62,-86 184.62,-118"/>
<text text-anchor="start" x="64.12" y="-104.5" font-family="Helvetica,sans-Serif" font-size="10.00">src/bot_library/commands</text>
<text text-anchor="middle" x="120.38" y="-92.5" font-family="Helvetica,sans-Serif" font-size="10.00">/include/Commands.hpp</text>
</a>
</g>
</g>
<!-- Node4&#45;&gt;Node17 -->
<g id="edge19_Node000004_Node000017" class="edge">
<title>Node4&#45;&gt;Node17</title>
<g id="a_edge19_Node000004_Node000017"><a xlink:title=" ">
<path fill="none" stroke="#63b8ff" d="M1344.5,-174.37C1133.96,-171.84 418.95,-160.66 193.38,-124 185.04,-122.65 176.32,-120.66 167.91,-118.43"/>
<polygon fill="#63b8ff" stroke="#63b8ff" points="1344.34,-177.87 1354.38,-174.49 1344.42,-170.87 1344.34,-177.87"/>
</a>
</g>
</g>
<!-- Node18 -->
<g id="Node000018" class="node">
<title>Node18</title>
<g id="a_Node000018"><a xlink:href="InitDatabase_8hpp.html" target="_top" xlink:title=" ">
<polygon fill="white" stroke="#666666" points="2461.38,-118 2307.38,-118 2307.38,-86 2461.38,-86 2461.38,-118"/>
<text text-anchor="start" x="2315.38" y="-104.5" font-family="Helvetica,sans-Serif" font-size="10.00">src/bot_library/commands</text>
<text text-anchor="middle" x="2384.38" y="-92.5" font-family="Helvetica,sans-Serif" font-size="10.00">/init_database/InitDatabase.hpp</text>
</a>
</g>
</g>
<!-- Node4&#45;&gt;Node18 -->
<g id="edge22_Node000004_Node000018" class="edge">
<title>Node4&#45;&gt;Node18</title>
<g id="a_edge22_Node000004_Node000018"><a xlink:title=" ">
<path fill="none" stroke="#63b8ff" d="M1461.87,-175.35C1605.3,-175.4 1985.52,-170.71 2298.38,-124 2307.8,-122.59 2317.7,-120.64 2327.3,-118.48"/>
<polygon fill="#63b8ff" stroke="#63b8ff" points="1462.27,-171.85 1452.26,-175.33 1462.26,-178.85 1462.27,-171.85"/>
</a>
</g>
</g>
<!-- Node20 -->
<g id="Node000020" class="node">
<title>Node20</title>
<g id="a_Node000020"><a xlink:href="InviteCommand_8hpp.html" target="_top" xlink:title=" ">
<polygon fill="white" stroke="#666666" points="1543.88,-118 1410.88,-118 1410.88,-86 1543.88,-86 1543.88,-118"/>
<text text-anchor="start" x="1418.88" y="-104.5" font-family="Helvetica,sans-Serif" font-size="10.00">src/bot_library/commands</text>
<text text-anchor="middle" x="1477.38" y="-92.5" font-family="Helvetica,sans-Serif" font-size="10.00">/invite/InviteCommand.hpp</text>
</a>
</g>
</g>
<!-- Node4&#45;&gt;Node20 -->
<g id="edge24_Node000004_Node000020" class="edge">
<title>Node4&#45;&gt;Node20</title>
<g id="a_edge24_Node000004_Node000020"><a xlink:title=" ">
<path fill="none" stroke="#63b8ff" d="M1427.19,-151.82C1438.4,-140.92 1451.46,-128.21 1461.45,-118.5"/>
<polygon fill="#63b8ff" stroke="#63b8ff" points="1424.88,-149.19 1420.15,-158.68 1429.76,-154.21 1424.88,-149.19"/>
</a>
</g>
</g>
<!-- Node22 -->
<g id="Node000022" class="node">
<title>Node22</title>
<g id="a_Node000022"><a xlink:href="MemberCommand_8hpp.html" target="_top" xlink:title=" ">
<polygon fill="white" stroke="#666666" points="2289.5,-118 2133.25,-118 2133.25,-86 2289.5,-86 2289.5,-118"/>
<text text-anchor="start" x="2141.25" y="-104.5" font-family="Helvetica,sans-Serif" font-size="10.00">src/bot_library/commands</text>
<text text-anchor="middle" x="2211.38" y="-92.5" font-family="Helvetica,sans-Serif" font-size="10.00">/member/MemberCommand.hpp</text>
</a>
</g>
</g>
<!-- Node4&#45;&gt;Node22 -->
<g id="edge27_Node000004_Node000022" class="edge">
<title>Node4&#45;&gt;Node22</title>
<g id="a_edge27_Node000004_Node000022"><a xlink:title=" ">
<path fill="none" stroke="#63b8ff" d="M1461.88,-174.15C1585.12,-171.64 1880.21,-161.84 2124.38,-124 2133.74,-122.55 2143.58,-120.6 2153.14,-118.46"/>
<polygon fill="#63b8ff" stroke="#63b8ff" points="1461.94,-170.65 1452.01,-174.34 1462.07,-177.65 1461.94,-170.65"/>
</a>
</g>
</g>
<!-- Node24 -->
<g id="Node000024" class="node">
<title>Node24</title>
<g id="a_Node000024"><a xlink:href="PongCommand_8hpp.html" target="_top" xlink:title=" ">
<polygon fill="white" stroke="#666666" points="1691,-118 1561.75,-118 1561.75,-86 1691,-86 1691,-118"/>
<text text-anchor="start" x="1569.75" y="-104.5" font-family="Helvetica,sans-Serif" font-size="10.00">src/bot_library/commands</text>
<text text-anchor="middle" x="1626.38" y="-92.5" font-family="Helvetica,sans-Serif" font-size="10.00">/pong/PongCommand.hpp</text>
</a>
</g>
</g>
<!-- Node4&#45;&gt;Node24 -->
<g id="edge30_Node000004_Node000024" class="edge">
<title>Node4&#45;&gt;Node24</title>
<g id="a_edge30_Node000004_Node000024"><a xlink:title=" ">
<path fill="none" stroke="#63b8ff" d="M1461.6,-156.2C1497.94,-144.47 1544.15,-129.55 1578.38,-118.5"/>
<polygon fill="#63b8ff" stroke="#63b8ff" points="1460.55,-152.86 1452.11,-159.27 1462.7,-159.52 1460.55,-152.86"/>
</a>
</g>
</g>
<!-- Node26 -->
<g id="Node000026" class="node">
<title>Node26</title>
<g id="a_Node000026"><a xlink:href="ReactionRoles_8hpp.html" target="_top" xlink:title=" ">
<polygon fill="white" stroke="#666666" points="368.38,-118 202.38,-118 202.38,-86 368.38,-86 368.38,-118"/>
<text text-anchor="start" x="210.38" y="-104.5" font-family="Helvetica,sans-Serif" font-size="10.00">src/bot_library/commands</text>
<text text-anchor="middle" x="285.38" y="-92.5" font-family="Helvetica,sans-Serif" font-size="10.00">/reaction_roles/ReactionRoles.hpp</text>
</a>
</g>
</g>
<!-- Node4&#45;&gt;Node26 -->
<g id="edge33_Node000004_Node000026" class="edge">
<title>Node4&#45;&gt;Node26</title>
<g id="a_edge33_Node000004_Node000026"><a xlink:title=" ">
<path fill="none" stroke="#63b8ff" d="M1344.79,-175.66C1187.44,-176.65 742.78,-174.39 377.38,-124 367.15,-122.59 356.39,-120.6 345.97,-118.41"/>
<polygon fill="#63b8ff" stroke="#63b8ff" points="1344.57,-179.16 1354.55,-175.59 1344.52,-172.16 1344.57,-179.16"/>
</a>
</g>
</g>
<!-- Node28 -->
<g id="Node000028" class="node">
<title>Node28</title>
<g id="a_Node000028"><a xlink:href="ResourcesCommand_8hpp.html" target="_top" xlink:title=" ">
<polygon fill="white" stroke="#666666" points="1885.25,-118 1709.5,-118 1709.5,-86 1885.25,-86 1885.25,-118"/>
<text text-anchor="start" x="1717.5" y="-104.5" font-family="Helvetica,sans-Serif" font-size="10.00">src/bot_library/commands</text>
<text text-anchor="middle" x="1797.38" y="-92.5" font-family="Helvetica,sans-Serif" font-size="10.00">/resources/ResourcesCommand.hpp</text>
</a>
</g>
</g>
<!-- Node4&#45;&gt;Node28 -->
<g id="edge36_Node000004_Node000028" class="edge">
<title>Node4&#45;&gt;Node28</title>
<g id="a_edge36_Node000004_Node000028"><a xlink:title=" ">
<path fill="none" stroke="#63b8ff" d="M1461.95,-165.71C1521.96,-156.01 1617.87,-140.01 1700.38,-124 1709.26,-122.28 1718.57,-120.38 1727.77,-118.45"/>
<polygon fill="#63b8ff" stroke="#63b8ff" points="1461.62,-162.21 1452.31,-167.26 1462.74,-169.13 1461.62,-162.21"/>
</a>
</g>
</g>
<!-- Node30 -->
<g id="Node000030" class="node">
<title>Node30</title>
<g id="a_Node000030"><a xlink:href="RollCommand_8hpp.html" target="_top" xlink:title=" ">
<polygon fill="white" stroke="#666666" points="514.62,-118 386.12,-118 386.12,-86 514.62,-86 514.62,-118"/>
<text text-anchor="start" x="394.12" y="-104.5" font-family="Helvetica,sans-Serif" font-size="10.00">src/bot_library/commands</text>
<text text-anchor="middle" x="450.38" y="-92.5" font-family="Helvetica,sans-Serif" font-size="10.00">/roll/RollCommand.hpp</text>
</a>
</g>
</g>
<!-- Node4&#45;&gt;Node30 -->
<g id="edge39_Node000004_Node000030" class="edge">
<title>Node4&#45;&gt;Node30</title>
<g id="a_edge39_Node000004_Node000030"><a xlink:title=" ">
<path fill="none" stroke="#63b8ff" d="M1344.52,-173.26C1174.19,-167.97 682.87,-150.76 524.38,-124 516.08,-122.6 507.38,-120.62 498.99,-118.42"/>
<polygon fill="#63b8ff" stroke="#63b8ff" points="1344.36,-176.76 1354.47,-173.57 1344.58,-169.76 1344.36,-176.76"/>
</a>
</g>
</g>
<!-- Node32 -->
<g id="Node000032" class="node">
<title>Node32</title>
<g id="a_Node000032"><a xlink:href="ServerDetails_8hpp.html" target="_top" xlink:title=" ">
<polygon fill="white" stroke="#666666" points="693.75,-118 533,-118 533,-86 693.75,-86 693.75,-118"/>
<text text-anchor="start" x="541" y="-104.5" font-family="Helvetica,sans-Serif" font-size="10.00">src/bot_library/commands</text>
<text text-anchor="middle" x="613.38" y="-92.5" font-family="Helvetica,sans-Serif" font-size="10.00">/server_details/ServerDetails.hpp</text>
</a>
</g>
</g>
<!-- Node4&#45;&gt;Node32 -->
<g id="edge42_Node000004_Node000032" class="edge">
<title>Node4&#45;&gt;Node32</title>
<g id="a_edge42_Node000004_Node000032"><a xlink:title=" ">
<path fill="none" stroke="#63b8ff" d="M1344.73,-173.88C1223.9,-170.88 938.69,-160.24 702.38,-124 692.8,-122.53 682.74,-120.57 672.96,-118.44"/>
<polygon fill="#63b8ff" stroke="#63b8ff" points="1344.31,-177.37 1354.39,-174.11 1344.48,-170.37 1344.31,-177.37"/>
</a>
</g>
</g>
<!-- Node34 -->
<g id="Node000034" class="node">
<title>Node34</title>
<g id="a_Node000034"><a xlink:href="server__details_2set__channel_2SetChannelCommand_8hpp.html" target="_top" xlink:title=" ">
<polygon fill="white" stroke="#666666" points="2653,-124 2517.75,-124 2517.75,-80 2653,-80 2653,-124"/>
<text text-anchor="start" x="2525.75" y="-110.5" font-family="Helvetica,sans-Serif" font-size="10.00">src/bot_library/commands</text>
<text text-anchor="start" x="2525.75" y="-98.5" font-family="Helvetica,sans-Serif" font-size="10.00">/server_details/set_channel</text>
<text text-anchor="middle" x="2585.38" y="-86.5" font-family="Helvetica,sans-Serif" font-size="10.00">/SetChannelCommand.hpp</text>
</a>
</g>
</g>
<!-- Node4&#45;&gt;Node34 -->
<g id="edge45_Node000004_Node000034" class="edge">
<title>Node4&#45;&gt;Node34</title>
<g id="a_edge45_Node000004_Node000034"><a xlink:title=" ">
<path fill="none" stroke="#63b8ff" d="M1461.69,-174.93C1622.79,-174.14 2087.35,-167.93 2470.38,-124 2485.7,-122.24 2502.06,-119.68 2517.49,-116.94"/>
<polygon fill="#63b8ff" stroke="#63b8ff" points="1462.12,-171.43 1452.13,-174.97 1462.15,-178.43 1462.12,-171.43"/>
</a>
</g>
</g>
<!-- Node36 -->
<g id="Node000036" class="node">
<title>Node36</title>
<g id="a_Node000036"><a xlink:href="set__channel_2SetChannelCommand_8hpp.html" target="_top" xlink:title=" ">
<polygon fill="white" stroke="#666666" points="2899,-118 2709.75,-118 2709.75,-86 2899,-86 2899,-118"/>
<text text-anchor="start" x="2717.75" y="-104.5" font-family="Helvetica,sans-Serif" font-size="10.00">src/bot_library/commands</text>
<text text-anchor="middle" x="2804.38" y="-92.5" font-family="Helvetica,sans-Serif" font-size="10.00">/set_channel/SetChannelCommand.hpp</text>
</a>
</g>
</g>
<!-- Node4&#45;&gt;Node36 -->
<g id="edge47_Node000004_Node000036" class="edge">
<title>Node4&#45;&gt;Node36</title>
<g id="a_edge47_Node000004_Node000036"><a xlink:title=" ">
<path fill="none" stroke="#63b8ff" d="M1461.94,-174.84C1641.69,-173.87 2201.24,-167.31 2662.38,-124 2677.63,-122.57 2693.76,-120.61 2709.45,-118.46"/>
<polygon fill="#63b8ff" stroke="#63b8ff" points="1462.15,-171.34 1452.17,-174.89 1462.19,-178.34 1462.15,-171.34"/>
</a>
</g>
</g>
<!-- Node38 -->
<g id="Node000038" class="node">
<title>Node38</title>
<g id="a_Node000038"><a xlink:href="SetStatus_8hpp.html" target="_top" xlink:title=" ">
<polygon fill="white" stroke="#666666" points="841.38,-118 711.38,-118 711.38,-86 841.38,-86 841.38,-118"/>
<text text-anchor="start" x="719.38" y="-104.5" font-family="Helvetica,sans-Serif" font-size="10.00">src/bot_library/commands</text>
<text text-anchor="middle" x="776.38" y="-92.5" font-family="Helvetica,sans-Serif" font-size="10.00">/set_status/SetStatus.hpp</text>
</a>
</g>
</g>
<!-- Node4&#45;&gt;Node38 -->
<g id="edge49_Node000004_Node000038" class="edge">
<title>Node4&#45;&gt;Node38</title>
<g id="a_edge49_Node000004_Node000038"><a xlink:title=" ">
<path fill="none" stroke="#63b8ff" d="M1344.77,-173.15C1243.29,-169.15 1028.57,-157.21 850.38,-124 842.5,-122.53 834.25,-120.6 826.23,-118.5"/>
<polygon fill="#63b8ff" stroke="#63b8ff" points="1344.36,-176.63 1354.48,-173.52 1344.62,-169.64 1344.36,-176.63"/>
</a>
</g>
</g>
<!-- Node8 -->
<g id="Node000008" class="node">
<title>Node8</title>
<g id="a_Node000008"><a xlink:href="Commands_8cpp.html" target="_top" xlink:title=" ">
<polygon fill="white" stroke="#666666" points="1134.62,-38 1006.12,-38 1006.12,-6 1134.62,-6 1134.62,-38"/>
<text text-anchor="start" x="1014.12" y="-24.5" font-family="Helvetica,sans-Serif" font-size="10.00">src/bot_library/commands</text>
<text text-anchor="middle" x="1070.38" y="-12.5" font-family="Helvetica,sans-Serif" font-size="10.00">/Commands.cpp</text>
</a>
</g>
</g>
<!-- Node7&#45;&gt;Node8 -->
<g id="edge7_Node000007_Node000008" class="edge">
<title>Node7&#45;&gt;Node8</title>
<g id="a_edge7_Node000007_Node000008"><a xlink:title=" ">
<path fill="none" stroke="#63b8ff" d="M1921.48,-83.72C1912.35,-82.29 1903.19,-81.01 1894.38,-80 1562.84,-41.94 1473.71,-97.9 1144.38,-44 1136.07,-42.64 1127.37,-40.68 1118.98,-38.49"/>
<polygon fill="#63b8ff" stroke="#63b8ff" points="1920.65,-87.13 1931.08,-85.28 1921.77,-80.22 1920.65,-87.13"/>
</a>
</g>
</g>
<!-- Node7&#45;&gt;Node9 -->
<g id="edge8_Node000007_Node000009" class="edge">
<title>Node7&#45;&gt;Node9</title>
<g id="a_edge8_Node000007_Node000009"><a xlink:title=" ">
<path fill="none" stroke="#63b8ff" d="M2100.88,-83.63C2108.81,-82.32 2116.73,-81.09 2124.38,-80 2278.31,-58.02 2318.44,-65.98 2472.38,-44 2483.63,-42.39 2495.46,-40.48 2507.08,-38.48"/>
<polygon fill="#63b8ff" stroke="#63b8ff" points="2100.44,-80.15 2091.16,-85.27 2101.61,-87.06 2100.44,-80.15"/>
</a>
</g>
</g>
<!-- Node10 -->
<g id="Node000010" class="node">
<title>Node10</title>
<g id="a_Node000010"><a xlink:href="ChallengeRoleDTO_8cpp.html" target="_top" xlink:title=" ">
<polygon fill="white" stroke="#666666" points="2097.25,-38 1909.5,-38 1909.5,-6 2097.25,-6 2097.25,-38"/>
<text text-anchor="start" x="1917.5" y="-24.5" font-family="Helvetica,sans-Serif" font-size="10.00">src/bot_library/commands</text>
<text text-anchor="middle" x="2003.38" y="-12.5" font-family="Helvetica,sans-Serif" font-size="10.00">/challenge_role/ChallengeRoleDTO.cpp</text>
</a>
</g>
</g>
<!-- Node7&#45;&gt;Node10 -->
<g id="edge9_Node000007_Node000010" class="edge">
<title>Node7&#45;&gt;Node10</title>
<g id="a_edge9_Node000007_Node000010"><a xlink:title=" ">
<path fill="none" stroke="#63b8ff" d="M2007.33,-74.37C2006.4,-62.37 2005.35,-48.63 2004.56,-38.38"/>
<polygon fill="#63b8ff" stroke="#63b8ff" points="2003.82,-74.38 2008.07,-84.08 2010.8,-73.84 2003.82,-74.38"/>
</a>
</g>
</g>
<!-- Node11&#45;&gt;Node8 -->
<g id="edge11_Node000011_Node000008" class="edge">
<title>Node11&#45;&gt;Node8</title>
<g id="a_edge11_Node000011_Node000008"><a xlink:title=" ">
<path fill="none" stroke="#63b8ff" d="M962.58,-80.2C987.37,-67.04 1018.86,-50.33 1041.39,-38.38"/>
<polygon fill="#63b8ff" stroke="#63b8ff" points="960.95,-77.1 953.75,-84.88 964.23,-83.28 960.95,-77.1"/>
</a>
</g>
</g>
<!-- Node12 -->
<g id="Node000012" class="node">
<title>Node12</title>
<g id="a_Node000012"><a xlink:href="CleanUp_8cpp.html" target="_top" xlink:title=" ">
<polygon fill="white" stroke="#666666" points="987.62,-38 859.12,-38 859.12,-6 987.62,-6 987.62,-38"/>
<text text-anchor="start" x="867.12" y="-24.5" font-family="Helvetica,sans-Serif" font-size="10.00">src/bot_library/commands</text>
<text text-anchor="middle" x="923.38" y="-12.5" font-family="Helvetica,sans-Serif" font-size="10.00">/clean_up/CleanUp.cpp</text>
</a>
</g>
</g>
<!-- Node11&#45;&gt;Node12 -->
<g id="edge12_Node000011_Node000012" class="edge">
<title>Node11&#45;&gt;Node12</title>
<g id="a_edge12_Node000011_Node000012"><a xlink:title=" ">
<path fill="none" stroke="#63b8ff" d="M923.38,-74.37C923.38,-62.37 923.38,-48.63 923.38,-38.38"/>
<polygon fill="#63b8ff" stroke="#63b8ff" points="919.88,-74.08 923.38,-84.08 926.88,-74.08 919.88,-74.08"/>
</a>
</g>
</g>
<!-- Node13&#45;&gt;Node8 -->
<g id="edge14_Node000013_Node000008" class="edge">
<title>Node13&#45;&gt;Node8</title>
<g id="a_edge14_Node000013_Node000008"><a xlink:title=" ">
<path fill="none" stroke="#63b8ff" d="M1150.25,-79.13C1131.78,-66.15 1108.82,-50.01 1092.26,-38.38"/>
<polygon fill="#63b8ff" stroke="#63b8ff" points="1148.01,-81.83 1158.21,-84.72 1152.04,-76.11 1148.01,-81.83"/>
</a>
</g>
</g>
<!-- Node14 -->
<g id="Node000014" class="node">
<title>Node14</title>
<g id="a_Node000014"><a xlink:href="FlipCommand_8cpp.html" target="_top" xlink:title=" ">
<polygon fill="white" stroke="#666666" points="1281.62,-38 1153.12,-38 1153.12,-6 1281.62,-6 1281.62,-38"/>
<text text-anchor="start" x="1161.12" y="-24.5" font-family="Helvetica,sans-Serif" font-size="10.00">src/bot_library/commands</text>
<text text-anchor="middle" x="1217.38" y="-12.5" font-family="Helvetica,sans-Serif" font-size="10.00">/flip/FlipCommand.cpp</text>
</a>
</g>
</g>
<!-- Node13&#45;&gt;Node14 -->
<g id="edge15_Node000013_Node000014" class="edge">
<title>Node13&#45;&gt;Node14</title>
<g id="a_edge15_Node000013_Node000014"><a xlink:title=" ">
<path fill="none" stroke="#63b8ff" d="M1193.15,-75.49C1198.81,-63.23 1205.4,-48.95 1210.28,-38.38"/>
<polygon fill="#63b8ff" stroke="#63b8ff" points="1190.13,-73.67 1189.12,-84.22 1196.49,-76.6 1190.13,-73.67"/>
</a>
</g>
</g>
<!-- Node15&#45;&gt;Node8 -->
<g id="edge17_Node000015_Node000008" class="edge">
<title>Node15&#45;&gt;Node8</title>
<g id="a_edge17_Node000015_Node000008"><a xlink:title=" ">
<path fill="none" stroke="#63b8ff" d="M1266.45,-82.28C1222.03,-68.85 1162.91,-50.98 1121.24,-38.38"/>
<polygon fill="#63b8ff" stroke="#63b8ff" points="1265.37,-85.61 1275.95,-85.15 1267.39,-78.91 1265.37,-85.61"/>
</a>
</g>
</g>
<!-- Node16 -->
<g id="Node000016" class="node">
<title>Node16</title>
<g id="a_Node000016"><a xlink:href="HelpCommand_8cpp.html" target="_top" xlink:title=" ">
<polygon fill="white" stroke="#666666" points="1428.62,-38 1300.12,-38 1300.12,-6 1428.62,-6 1428.62,-38"/>
<text text-anchor="start" x="1308.12" y="-24.5" font-family="Helvetica,sans-Serif" font-size="10.00">src/bot_library/commands</text>
<text text-anchor="middle" x="1364.38" y="-12.5" font-family="Helvetica,sans-Serif" font-size="10.00">/help/HelpCommand.cpp</text>
</a>
</g>
</g>
<!-- Node15&#45;&gt;Node16 -->
<g id="edge18_Node000015_Node000016" class="edge">
<title>Node15&#45;&gt;Node16</title>
<g id="a_edge18_Node000015_Node000016"><a xlink:title=" ">
<path fill="none" stroke="#63b8ff" d="M1340.15,-75.49C1345.81,-63.23 1352.4,-48.95 1357.28,-38.38"/>
<polygon fill="#63b8ff" stroke="#63b8ff" points="1337.13,-73.67 1336.12,-84.22 1343.49,-76.6 1337.13,-73.67"/>
</a>
</g>
</g>
<!-- Node17&#45;&gt;Node5 -->
<g id="edge20_Node000017_Node000005" class="edge">
<title>Node17&#45;&gt;Node5</title>
<g id="a_edge20_Node000017_Node000005"><a xlink:title=" ">
<path fill="none" stroke="#63b8ff" d="M104.64,-75.95C95.33,-61.13 84.08,-43.22 77.34,-32.49"/>
<polygon fill="#63b8ff" stroke="#63b8ff" points="101.61,-77.7 109.89,-84.31 107.53,-73.98 101.61,-77.7"/>
</a>
</g>
</g>
<!-- Node17&#45;&gt;Node8 -->
<g id="edge21_Node000017_Node000008" class="edge">
<title>Node17&#45;&gt;Node8</title>
<g id="a_edge21_Node000017_Node000008"><a xlink:title=" ">
<path fill="none" stroke="#63b8ff" d="M179.07,-82.83C183.88,-81.74 188.69,-80.77 193.38,-80 545.92,-22.22 643.73,-101.15 996.38,-44 1004.81,-42.63 1013.66,-40.64 1022.17,-38.41"/>
<polygon fill="#63b8ff" stroke="#63b8ff" points="178.25,-79.43 169.38,-85.22 179.93,-86.22 178.25,-79.43"/>
</a>
</g>
</g>
<!-- Node19 -->
<g id="Node000019" class="node">
<title>Node19</title>
<g id="a_Node000019"><a xlink:href="InitDatabase_8cpp.html" target="_top" xlink:title=" ">
<polygon fill="white" stroke="#666666" points="2269.38,-38 2115.38,-38 2115.38,-6 2269.38,-6 2269.38,-38"/>
<text text-anchor="start" x="2123.38" y="-24.5" font-family="Helvetica,sans-Serif" font-size="10.00">src/bot_library/commands</text>
<text text-anchor="middle" x="2192.38" y="-12.5" font-family="Helvetica,sans-Serif" font-size="10.00">/init_database/InitDatabase.cpp</text>
</a>
</g>
</g>
<!-- Node18&#45;&gt;Node19 -->
<g id="edge23_Node000018_Node000019" class="edge">
<title>Node18&#45;&gt;Node19</title>
<g id="a_edge23_Node000018_Node000019"><a xlink:title=" ">
<path fill="none" stroke="#63b8ff" d="M2336.17,-81.42C2303.37,-68.09 2260.58,-50.71 2230.23,-38.38"/>
<polygon fill="#63b8ff" stroke="#63b8ff" points="2334.46,-84.5 2345.04,-85.02 2337.09,-78.01 2334.46,-84.5"/>
</a>
</g>
</g>
<!-- Node20&#45;&gt;Node8 -->
<g id="edge25_Node000020_Node000008" class="edge">
<title>Node20&#45;&gt;Node8</title>
<g id="a_edge25_Node000020_Node000008"><a xlink:title=" ">
<path fill="none" stroke="#63b8ff" d="M1413.78,-82.77C1409.6,-81.78 1405.43,-80.84 1401.38,-80 1288.44,-56.59 1257.23,-67.8 1144.38,-44 1136.93,-42.43 1129.13,-40.52 1121.5,-38.49"/>
<polygon fill="#63b8ff" stroke="#63b8ff" points="1412.83,-86.15 1423.38,-85.16 1414.52,-79.35 1412.83,-86.15"/>
</a>
</g>
</g>
<!-- Node21 -->
<g id="Node000021" class="node">
<title>Node21</title>
<g id="a_Node000021"><a xlink:href="InviteCommand_8cpp.html" target="_top" xlink:title=" ">
<polygon fill="white" stroke="#666666" points="1579.88,-38 1446.88,-38 1446.88,-6 1579.88,-6 1579.88,-38"/>
<text text-anchor="start" x="1454.88" y="-24.5" font-family="Helvetica,sans-Serif" font-size="10.00">src/bot_library/commands</text>
<text text-anchor="middle" x="1513.38" y="-12.5" font-family="Helvetica,sans-Serif" font-size="10.00">/invite/InviteCommand.cpp</text>
</a>
</g>
</g>
<!-- Node20&#45;&gt;Node21 -->
<g id="edge26_Node000020_Node000021" class="edge">
<title>Node20&#45;&gt;Node21</title>
<g id="a_edge26_Node000020_Node000021"><a xlink:title=" ">
<path fill="none" stroke="#63b8ff" d="M1489.15,-75.49C1494.81,-63.23 1501.4,-48.95 1506.28,-38.38"/>
<polygon fill="#63b8ff" stroke="#63b8ff" points="1486.13,-73.67 1485.12,-84.22 1492.49,-76.6 1486.13,-73.67"/>
</a>
</g>
</g>
<!-- Node22&#45;&gt;Node8 -->
<g id="edge28_Node000022_Node000008" class="edge">
<title>Node22&#45;&gt;Node8</title>
<g id="a_edge28_Node000022_Node000008"><a xlink:title=" ">
<path fill="none" stroke="#63b8ff" d="M2143.71,-83.28C2137.21,-82 2130.69,-80.87 2124.38,-80 1692.6,-20.57 1574.89,-111.98 1144.38,-44 1135.93,-42.67 1127.09,-40.69 1118.57,-38.47"/>
<polygon fill="#63b8ff" stroke="#63b8ff" points="2142.61,-86.63 2153.11,-85.26 2144.05,-79.78 2142.61,-86.63"/>
</a>
</g>
</g>
<!-- Node22&#45;&gt;Node23 -->
<g id="edge29_Node000022_Node000023" class="edge">
<title>Node22&#45;&gt;Node23</title>
<g id="a_edge29_Node000022_Node000023"><a xlink:title=" ">
<path fill="none" stroke="#63b8ff" d="M2281.2,-83.19C2286.99,-82.01 2292.77,-80.92 2298.38,-80 2476.26,-50.77 2524.49,-73.23 2702.38,-44 2711.57,-42.49 2721.24,-40.53 2730.65,-38.42"/>
<polygon fill="#63b8ff" stroke="#63b8ff" points="2280.62,-79.74 2271.58,-85.26 2282.09,-86.58 2280.62,-79.74"/>
</a>
</g>
</g>
<!-- Node24&#45;&gt;Node8 -->
<g id="edge31_Node000024_Node000008" class="edge">
<title>Node24&#45;&gt;Node8</title>
<g id="a_edge31_Node000024_Node000008"><a xlink:title=" ">
<path fill="none" stroke="#63b8ff" d="M1565.76,-82.81C1561.25,-81.76 1556.76,-80.81 1552.38,-80 1373.35,-47.01 1323.4,-76.99 1144.38,-44 1136.36,-42.52 1127.97,-40.56 1119.83,-38.42"/>
<polygon fill="#63b8ff" stroke="#63b8ff" points="1564.9,-86.2 1575.45,-85.21 1566.59,-79.41 1564.9,-86.2"/>
</a>
</g>
</g>
<!-- Node25 -->
<g id="Node000025" class="node">
<title>Node25</title>
<g id="a_Node000025"><a xlink:href="PongCommand_8cpp.html" target="_top" xlink:title=" ">
<polygon fill="white" stroke="#666666" points="1727,-38 1597.75,-38 1597.75,-6 1727,-6 1727,-38"/>
<text text-anchor="start" x="1605.75" y="-24.5" font-family="Helvetica,sans-Serif" font-size="10.00">src/bot_library/commands</text>
<text text-anchor="middle" x="1662.38" y="-12.5" font-family="Helvetica,sans-Serif" font-size="10.00">/pong/PongCommand.cpp</text>
</a>
</g>
</g>
<!-- Node24&#45;&gt;Node25 -->
<g id="edge32_Node000024_Node000025" class="edge">
<title>Node24&#45;&gt;Node25</title>
<g id="a_edge32_Node000024_Node000025"><a xlink:title=" ">
<path fill="none" stroke="#63b8ff" d="M1638.15,-75.49C1643.81,-63.23 1650.4,-48.95 1655.28,-38.38"/>
<polygon fill="#63b8ff" stroke="#63b8ff" points="1635.13,-73.67 1634.12,-84.22 1641.49,-76.6 1635.13,-73.67"/>
</a>
</g>
</g>
<!-- Node26&#45;&gt;Node8 -->
<g id="edge34_Node000026_Node000008" class="edge">
<title>Node26&#45;&gt;Node8</title>
<g id="a_edge34_Node000026_Node000008"><a xlink:title=" ">
<path fill="none" stroke="#63b8ff" d="M357.62,-83.32C364.27,-82.05 370.93,-80.92 377.38,-80 650.21,-41.2 724.65,-89.89 996.38,-44 1004.67,-42.6 1013.37,-40.62 1021.76,-38.42"/>
<polygon fill="#63b8ff" stroke="#63b8ff" points="357.07,-79.86 347.96,-85.26 358.45,-86.72 357.07,-79.86"/>
</a>
</g>
</g>
<!-- Node27 -->
<g id="Node000027" class="node">
<title>Node27</title>
<g id="a_Node000027"><a xlink:href="ReactionRoles_8cpp.html" target="_top" xlink:title=" ">
<polygon fill="white" stroke="#666666" points="368.38,-38 202.38,-38 202.38,-6 368.38,-6 368.38,-38"/>
<text text-anchor="start" x="210.38" y="-24.5" font-family="Helvetica,sans-Serif" font-size="10.00">src/bot_library/commands</text>
<text text-anchor="middle" x="285.38" y="-12.5" font-family="Helvetica,sans-Serif" font-size="10.00">/reaction_roles/ReactionRoles.cpp</text>
</a>
</g>
</g>
<!-- Node26&#45;&gt;Node27 -->
<g id="edge35_Node000026_Node000027" class="edge">
<title>Node26&#45;&gt;Node27</title>
<g id="a_edge35_Node000026_Node000027"><a xlink:title=" ">
<path fill="none" stroke="#63b8ff" d="M285.38,-74.37C285.38,-62.37 285.38,-48.63 285.38,-38.38"/>
<polygon fill="#63b8ff" stroke="#63b8ff" points="281.88,-74.08 285.38,-84.08 288.88,-74.08 281.88,-74.08"/>
</a>
</g>
</g>
<!-- Node28&#45;&gt;Node8 -->
<g id="edge37_Node000028_Node000008" class="edge">
<title>Node28&#45;&gt;Node8</title>
<g id="a_edge37_Node000028_Node000008"><a xlink:title=" ">
<path fill="none" stroke="#63b8ff" d="M1721.33,-83.42C1714.27,-82.13 1707.21,-80.96 1700.38,-80 1455.13,-45.71 1388.41,-86.04 1144.38,-44 1136.22,-42.59 1127.67,-40.64 1119.4,-38.48"/>
<polygon fill="#63b8ff" stroke="#63b8ff" points="1720.42,-86.81 1730.91,-85.26 1721.74,-79.93 1720.42,-86.81"/>
</a>
</g>
</g>
<!-- Node28&#45;&gt;Node29 -->
<g id="edge38_Node000028_Node000029" class="edge">
<title>Node28&#45;&gt;Node29</title>
<g id="a_edge38_Node000028_Node000029"><a xlink:title=" ">
<path fill="none" stroke="#63b8ff" d="M1874.8,-83.37C1881.4,-82.13 1887.99,-80.99 1894.38,-80 2063.78,-53.82 2108.97,-70.18 2278.38,-44 2288.34,-42.46 2298.81,-40.53 2309.04,-38.46"/>
<polygon fill="#63b8ff" stroke="#63b8ff" points="1874.34,-79.9 1865.19,-85.25 1875.68,-86.77 1874.34,-79.9"/>
</a>
</g>
</g>
<!-- Node30&#45;&gt;Node8 -->
<g id="edge40_Node000030_Node000008" class="edge">
<title>Node30&#45;&gt;Node8</title>
<g id="a_edge40_Node000030_Node000008"><a xlink:title=" ">
<path fill="none" stroke="#63b8ff" d="M510.37,-82.89C515.08,-81.8 519.79,-80.82 524.38,-80 731.5,-43.1 789.25,-80.9 996.38,-44 1004.53,-42.55 1013.07,-40.57 1021.34,-38.4"/>
<polygon fill="#63b8ff" stroke="#63b8ff" points="509.75,-79.44 500.88,-85.24 511.43,-86.23 509.75,-79.44"/>
</a>
</g>
</g>
<!-- Node31 -->
<g id="Node000031" class="node">
<title>Node31</title>
<g id="a_Node000031"><a xlink:href="RollCommand_8cpp.html" target="_top" xlink:title=" ">
<polygon fill="white" stroke="#666666" points="514.62,-38 386.12,-38 386.12,-6 514.62,-6 514.62,-38"/>
<text text-anchor="start" x="394.12" y="-24.5" font-family="Helvetica,sans-Serif" font-size="10.00">src/bot_library/commands</text>
<text text-anchor="middle" x="450.38" y="-12.5" font-family="Helvetica,sans-Serif" font-size="10.00">/roll/RollCommand.cpp</text>
</a>
</g>
</g>
<!-- Node30&#45;&gt;Node31 -->
<g id="edge41_Node000030_Node000031" class="edge">
<title>Node30&#45;&gt;Node31</title>
<g id="a_edge41_Node000030_Node000031"><a xlink:title=" ">
<path fill="none" stroke="#63b8ff" d="M450.38,-74.37C450.38,-62.37 450.38,-48.63 450.38,-38.38"/>
<polygon fill="#63b8ff" stroke="#63b8ff" points="446.88,-74.08 450.38,-84.08 453.88,-74.08 446.88,-74.08"/>
</a>
</g>
</g>
<!-- Node32&#45;&gt;Node8 -->
<g id="edge43_Node000032_Node000008" class="edge">
<title>Node32&#45;&gt;Node8</title>
<g id="a_edge43_Node000032_Node000008"><a xlink:title=" ">
<path fill="none" stroke="#63b8ff" d="M686.17,-83.14C691.64,-82.01 697.09,-80.94 702.38,-80 831.97,-56.85 867.34,-70.05 996.38,-44 1004.1,-42.44 1012.19,-40.49 1020.08,-38.4"/>
<polygon fill="#63b8ff" stroke="#63b8ff" points="685.48,-79.71 676.43,-85.23 686.95,-86.55 685.48,-79.71"/>
</a>
</g>
</g>
<!-- Node33 -->
<g id="Node000033" class="node">
<title>Node33</title>
<g id="a_Node000033"><a xlink:href="ServerDetails_8cpp.html" target="_top" xlink:title=" ">
<polygon fill="white" stroke="#666666" points="693.75,-38 533,-38 533,-6 693.75,-6 693.75,-38"/>
<text text-anchor="start" x="541" y="-24.5" font-family="Helvetica,sans-Serif" font-size="10.00">src/bot_library/commands</text>
<text text-anchor="middle" x="613.38" y="-12.5" font-family="Helvetica,sans-Serif" font-size="10.00">/server_details/ServerDetails.cpp</text>
</a>
</g>
</g>
<!-- Node32&#45;&gt;Node33 -->
<g id="edge44_Node000032_Node000033" class="edge">
<title>Node32&#45;&gt;Node33</title>
<g id="a_edge44_Node000032_Node000033"><a xlink:title=" ">
<path fill="none" stroke="#63b8ff" d="M613.38,-74.37C613.38,-62.37 613.38,-48.63 613.38,-38.38"/>
<polygon fill="#63b8ff" stroke="#63b8ff" points="609.88,-74.08 613.38,-84.08 616.88,-74.08 609.88,-74.08"/>
</a>
</g>
</g>
<!-- Node34&#45;&gt;Node35 -->
<g id="edge46_Node000034_Node000035" class="edge">
<title>Node34&#45;&gt;Node35</title>
<g id="a_edge46_Node000034_Node000035"><a xlink:title=" ">
<path fill="none" stroke="#63b8ff" d="M2664.49,-86.18C2736.37,-72.58 2837,-53.21 2876.38,-44 2879.34,-43.31 2882.37,-42.58 2885.42,-41.82"/>
<polygon fill="#63b8ff" stroke="#63b8ff" points="2663.88,-82.73 2654.7,-88.02 2665.18,-89.61 2663.88,-82.73"/>
</a>
</g>
</g>
<!-- Node36&#45;&gt;Node37 -->
<g id="edge48_Node000036_Node000037" class="edge">
<title>Node36&#45;&gt;Node37</title>
<g id="a_edge48_Node000036_Node000037"><a xlink:title=" ">
<path fill="none" stroke="#63b8ff" d="M2880.46,-82.96C2937.31,-69.48 3014.2,-51.25 3068.23,-38.44"/>
<polygon fill="#63b8ff" stroke="#63b8ff" points="2879.77,-79.53 2870.85,-85.24 2881.39,-86.34 2879.77,-79.53"/>
</a>
</g>
</g>
<!-- Node38&#45;&gt;Node8 -->
<g id="edge50_Node000038_Node000008" class="edge">
<title>Node38&#45;&gt;Node8</title>
<g id="a_edge50_Node000038_Node000008"><a xlink:title=" ">
<path fill="none" stroke="#63b8ff" d="M840.95,-82.53C844.13,-81.67 847.29,-80.82 850.38,-80 914.98,-62.87 931.77,-61.13 996.38,-44 1002.96,-42.25 1009.86,-40.37 1016.68,-38.47"/>
<polygon fill="#63b8ff" stroke="#63b8ff" points="840.24,-79.1 831.53,-85.12 842.1,-85.85 840.24,-79.1"/>
</a>
</g>
</g>
<!-- Node39 -->
<g id="Node000039" class="node">
<title>Node39</title>
<g id="a_Node000039"><a xlink:href="SetStatus_8cpp.html" target="_top" xlink:title=" ">
<polygon fill="white" stroke="#666666" points="841.38,-38 711.38,-38 711.38,-6 841.38,-6 841.38,-38"/>
<text text-anchor="start" x="719.38" y="-24.5" font-family="Helvetica,sans-Serif" font-size="10.00">src/bot_library/commands</text>
<text text-anchor="middle" x="776.38" y="-12.5" font-family="Helvetica,sans-Serif" font-size="10.00">/set_status/SetStatus.cpp</text>
</a>
</g>
</g>
<!-- Node38&#45;&gt;Node39 -->
<g id="edge51_Node000038_Node000039" class="edge">
<title>Node38&#45;&gt;Node39</title>
<g id="a_edge51_Node000038_Node000039"><a xlink:title=" ">
<path fill="none" stroke="#63b8ff" d="M776.38,-74.37C776.38,-62.37 776.38,-48.63 776.38,-38.38"/>
<polygon fill="#63b8ff" stroke="#63b8ff" points="772.88,-74.08 776.38,-84.08 779.88,-74.08 772.88,-74.08"/>
</a>
</g>
</g>
</g>
</svg>
