<?xml version="1.0" encoding="UTF-8" standalone="no"?>
<!DOCTYPE svg PUBLIC "-//W3C//DTD SVG 1.1//EN"
 "http://www.w3.org/Graphics/SVG/1.1/DTD/svg11.dtd">
<!-- Generated by graphviz version 9.0.0 (0)
 -->
<!-- Title: src/bot_library/bot/core/interfaces/include/IMessageCommand.hpp Pages: 1 -->
<svg width="1814pt" height="324pt"
 viewBox="0.00 0.00 1814.25 324.00" xmlns="http://www.w3.org/2000/svg" xmlns:xlink="http://www.w3.org/1999/xlink">
<g id="graph0" class="graph" transform="scale(1 1) rotate(0) translate(4 320)">
<title>src/bot_library/bot/core/interfaces/include/IMessageCommand.hpp</title>
<!-- Node1 -->
<g id="Node000001" class="node">
<title>Node1</title>
<g id="a_Node000001"><a xlink:title=" ">
<polygon fill="#999999" stroke="#666666" points="1225.12,-316 1099.62,-316 1099.62,-272 1225.12,-272 1225.12,-316"/>
<text text-anchor="start" x="1107.62" y="-302.5" font-family="Helvetica,sans-Serif" font-size="10.00">src/bot_library/bot</text>
<text text-anchor="start" x="1107.62" y="-290.5" font-family="Helvetica,sans-Serif" font-size="10.00">/core/interfaces/include</text>
<text text-anchor="middle" x="1162.38" y="-278.5" font-family="Helvetica,sans-Serif" font-size="10.00">/IMessageCommand.hpp</text>
</a>
</g>
</g>
<!-- Node2 -->
<g id="Node000002" class="node">
<title>Node2</title>
<g id="a_Node000002"><a xlink:href="Core_8hpp.html" target="_top" xlink:title=" ">
<polygon fill="white" stroke="#666666" points="1494.5,-236 1380.25,-236 1380.25,-204 1494.5,-204 1494.5,-236"/>
<text text-anchor="start" x="1388.25" y="-222.5" font-family="Helvetica,sans-Serif" font-size="10.00">src/bot_library/bot</text>
<text text-anchor="middle" x="1437.38" y="-210.5" font-family="Helvetica,sans-Serif" font-size="10.00">/core/include/Core.hpp</text>
</a>
</g>
</g>
<!-- Node1&#45;&gt;Node2 -->
<g id="edge1_Node000001_Node000002" class="edge">
<title>Node1&#45;&gt;Node2</title>
<g id="a_edge1_Node000001_Node000002"><a xlink:title=" ">
<path fill="none" stroke="#63b8ff" d="M1236.39,-273.62C1281.57,-261.79 1338.48,-246.89 1380.19,-235.97"/>
<polygon fill="#63b8ff" stroke="#63b8ff" points="1235.72,-270.18 1226.93,-276.1 1237.49,-276.95 1235.72,-270.18"/>
</a>
</g>
</g>
<!-- Node4 -->
<g id="Node000004" class="node">
<title>Node4</title>
<g id="a_Node000004"><a xlink:href="Bot_8hpp.html" target="_top" xlink:title=" ">
<polygon fill="white" stroke="#666666" points="802.38,-168 708.38,-168 708.38,-136 802.38,-136 802.38,-168"/>
<text text-anchor="start" x="716.38" y="-154.5" font-family="Helvetica,sans-Serif" font-size="10.00">src/bot_library/bot</text>
<text text-anchor="middle" x="755.38" y="-142.5" font-family="Helvetica,sans-Serif" font-size="10.00">/include/Bot.hpp</text>
</a>
</g>
</g>
<!-- Node1&#45;&gt;Node4 -->
<g id="edge33_Node000001_Node000004" class="edge">
<title>Node1&#45;&gt;Node4</title>
<g id="a_edge33_Node000001_Node000004"><a xlink:title=" ">
<path fill="none" stroke="#63b8ff" d="M1089.38,-267.89C1005.41,-239.01 870.16,-192.48 800.32,-168.46"/>
<polygon fill="#63b8ff" stroke="#63b8ff" points="1088.09,-271.15 1098.69,-271.09 1090.37,-264.53 1088.09,-271.15"/>
</a>
</g>
</g>
<!-- Node3 -->
<g id="Node000003" class="node">
<title>Node3</title>
<g id="a_Node000003"><a xlink:href="Core_8cpp.html" target="_top" xlink:title=" ">
<polygon fill="white" stroke="#666666" points="1673.38,-168 1579.38,-168 1579.38,-136 1673.38,-136 1673.38,-168"/>
<text text-anchor="start" x="1587.38" y="-154.5" font-family="Helvetica,sans-Serif" font-size="10.00">src/bot_library/bot</text>
<text text-anchor="middle" x="1626.38" y="-142.5" font-family="Helvetica,sans-Serif" font-size="10.00">/core/Core.cpp</text>
</a>
</g>
</g>
<!-- Node2&#45;&gt;Node3 -->
<g id="edge2_Node000002_Node000003" class="edge">
<title>Node2&#45;&gt;Node3</title>
<g id="a_edge2_Node000002_Node000003"><a xlink:title=" ">
<path fill="none" stroke="#63b8ff" d="M1492.3,-199.82C1520.82,-189.86 1555.21,-177.85 1582.01,-168.49"/>
<polygon fill="#63b8ff" stroke="#63b8ff" points="1491.4,-196.43 1483.12,-203.03 1493.71,-203.03 1491.4,-196.43"/>
</a>
</g>
</g>
<!-- Node2&#45;&gt;Node4 -->
<g id="edge3_Node000002_Node000004" class="edge">
<title>Node2&#45;&gt;Node4</title>
<g id="a_edge3_Node000002_Node000004"><a xlink:title=" ">
<path fill="none" stroke="#63b8ff" d="M1368.56,-212.34C1230.15,-198.95 921.25,-169.05 802.83,-157.59"/>
<polygon fill="#63b8ff" stroke="#63b8ff" points="1368.02,-215.8 1378.31,-213.28 1368.69,-208.84 1368.02,-215.8"/>
</a>
</g>
</g>
<!-- Node9 -->
<g id="Node000009" class="node">
<title>Node9</title>
<g id="a_Node000009"><a xlink:href="ChallengeRoleCommand_8cpp.html" target="_top" xlink:title=" ">
<polygon fill="white" stroke="#666666" points="1806.25,-32 1594.5,-32 1594.5,0 1806.25,0 1806.25,-32"/>
<text text-anchor="start" x="1602.5" y="-18.5" font-family="Helvetica,sans-Serif" font-size="10.00">src/bot_library/commands</text>
<text text-anchor="middle" x="1700.38" y="-6.5" font-family="Helvetica,sans-Serif" font-size="10.00">/challenge_role/ChallengeRoleCommand.cpp</text>
</a>
</g>
</g>
<!-- Node2&#45;&gt;Node9 -->
<g id="edge30_Node000002_Node000009" class="edge">
<title>Node2&#45;&gt;Node9</title>
<g id="a_edge30_Node000002_Node000009"><a xlink:title=" ">
<path fill="none" stroke="#63b8ff" d="M1505.96,-213.57C1569.96,-207 1659,-193.49 1682.38,-168 1717.17,-130.06 1709.4,-62.3 1703.72,-32.17"/>
<polygon fill="#63b8ff" stroke="#63b8ff" points="1505.83,-210.07 1496.23,-214.53 1506.52,-217.03 1505.83,-210.07"/>
</a>
</g>
</g>
<!-- Node23 -->
<g id="Node000023" class="node">
<title>Node23</title>
<g id="a_Node000023"><a xlink:href="SetChannelCommand_8cpp.html" target="_top" xlink:title=" ">
<polygon fill="white" stroke="#666666" points="1400,-32 1210.75,-32 1210.75,0 1400,0 1400,-32"/>
<text text-anchor="start" x="1218.75" y="-18.5" font-family="Helvetica,sans-Serif" font-size="10.00">src/bot_library/commands</text>
<text text-anchor="middle" x="1305.38" y="-6.5" font-family="Helvetica,sans-Serif" font-size="10.00">/set_channel/SetChannelCommand.cpp</text>
</a>
</g>
</g>
<!-- Node2&#45;&gt;Node23 -->
<g id="edge32_Node000002_Node000023" class="edge">
<title>Node2&#45;&gt;Node23</title>
<g id="a_edge32_Node000002_Node000023"><a xlink:title=" ">
<path fill="none" stroke="#63b8ff" d="M1421.02,-194.15C1415.99,-185.99 1410.66,-176.77 1406.38,-168 1385.5,-125.28 1396.26,-106.51 1368.38,-68 1358.14,-53.87 1343.04,-41.46 1330.19,-32.42"/>
<polygon fill="#63b8ff" stroke="#63b8ff" points="1418.01,-195.93 1426.31,-202.51 1423.92,-192.19 1418.01,-195.93"/>
</a>
</g>
</g>
<!-- Node24 -->
<g id="Node000024" class="node">
<title>Node24</title>
<g id="a_Node000024"><a xlink:href="resource__man_8hpp.html" target="_top" xlink:title=" ">
<polygon fill="white" stroke="#666666" points="1560.88,-168 1415.88,-168 1415.88,-136 1560.88,-136 1560.88,-168"/>
<text text-anchor="start" x="1423.88" y="-154.5" font-family="Helvetica,sans-Serif" font-size="10.00">src/bot_library/commands</text>
<text text-anchor="middle" x="1488.38" y="-142.5" font-family="Helvetica,sans-Serif" font-size="10.00">/resources/resource_man.hpp</text>
</a>
</g>
</g>
<!-- Node2&#45;&gt;Node24 -->
<g id="edge31_Node000002_Node000024" class="edge">
<title>Node2&#45;&gt;Node24</title>
<g id="a_edge31_Node000002_Node000024"><a xlink:title=" ">
<path fill="none" stroke="#63b8ff" d="M1456.24,-194.59C1463.06,-185.75 1470.57,-176.04 1476.61,-168.22"/>
<polygon fill="#63b8ff" stroke="#63b8ff" points="1453.47,-192.44 1450.13,-202.49 1459.01,-196.72 1453.47,-192.44"/>
</a>
</g>
</g>
<!-- Node5 -->
<g id="Node000005" class="node">
<title>Node5</title>
<g id="a_Node000005"><a xlink:href="BotLibrary_8cpp.html" target="_top" xlink:title=" ">
<polygon fill="white" stroke="#666666" points="142.75,-26 0,-26 0,-6 142.75,-6 142.75,-26"/>
<text text-anchor="middle" x="71.38" y="-12.5" font-family="Helvetica,sans-Serif" font-size="10.00">src/bot_library/BotLibrary.cpp</text>
</a>
</g>
</g>
<!-- Node4&#45;&gt;Node5 -->
<g id="edge4_Node000004_Node000005" class="edge">
<title>Node4&#45;&gt;Node5</title>
<g id="a_edge4_Node000004_Node000005"><a xlink:title=" ">
<path fill="none" stroke="#63b8ff" d="M696.94,-151.24C535.31,-151.3 91.24,-147.13 47.38,-100 27.86,-79.03 50.82,-43.15 63.74,-26.28"/>
<polygon fill="#63b8ff" stroke="#63b8ff" points="696.57,-154.74 706.57,-151.23 696.57,-147.74 696.57,-154.74"/>
</a>
</g>
</g>
<!-- Node6 -->
<g id="Node000006" class="node">
<title>Node6</title>
<g id="a_Node000006"><a xlink:href="Bot_8cpp.html" target="_top" xlink:title=" ">
<polygon fill="white" stroke="#666666" points="443.38,-100 349.38,-100 349.38,-68 443.38,-68 443.38,-100"/>
<text text-anchor="start" x="357.38" y="-86.5" font-family="Helvetica,sans-Serif" font-size="10.00">src/bot_library/bot</text>
<text text-anchor="middle" x="396.38" y="-74.5" font-family="Helvetica,sans-Serif" font-size="10.00">/Bot.cpp</text>
</a>
</g>
</g>
<!-- Node4&#45;&gt;Node6 -->
<g id="edge5_Node000004_Node000006" class="edge">
<title>Node4&#45;&gt;Node6</title>
<g id="a_edge5_Node000004_Node000006"><a xlink:title=" ">
<path fill="none" stroke="#63b8ff" d="M696.77,-142.82C635.51,-133.88 536.72,-118.35 452.38,-100 449.52,-99.38 446.6,-98.71 443.65,-98"/>
<polygon fill="#63b8ff" stroke="#63b8ff" points="696.24,-146.28 706.64,-144.25 697.24,-139.35 696.24,-146.28"/>
</a>
</g>
</g>
<!-- Node7 -->
<g id="Node000007" class="node">
<title>Node7</title>
<g id="a_Node000007"><a xlink:href="ChallengeRoleCommand_8hpp.html" target="_top" xlink:title=" ">
<polygon fill="white" stroke="#666666" points="1359.25,-100 1147.5,-100 1147.5,-68 1359.25,-68 1359.25,-100"/>
<text text-anchor="start" x="1155.5" y="-86.5" font-family="Helvetica,sans-Serif" font-size="10.00">src/bot_library/commands</text>
<text text-anchor="middle" x="1253.38" y="-74.5" font-family="Helvetica,sans-Serif" font-size="10.00">/challenge_role/ChallengeRoleCommand.hpp</text>
</a>
</g>
</g>
<!-- Node4&#45;&gt;Node7 -->
<g id="edge6_Node000004_Node000007" class="edge">
<title>Node4&#45;&gt;Node7</title>
<g id="a_edge6_Node000004_Node000007"><a xlink:title=" ">
<path fill="none" stroke="#63b8ff" d="M813.99,-143.23C895.72,-132.4 1045.33,-112.57 1147.03,-99.09"/>
<polygon fill="#63b8ff" stroke="#63b8ff" points="813.63,-139.75 804.18,-144.53 814.55,-146.69 813.63,-139.75"/>
</a>
</g>
</g>
<!-- Node11 -->
<g id="Node000011" class="node">
<title>Node11</title>
<g id="a_Node000011"><a xlink:href="CleanUp_8hpp.html" target="_top" xlink:title=" ">
<polygon fill="white" stroke="#666666" points="331.62,-100 203.12,-100 203.12,-68 331.62,-68 331.62,-100"/>
<text text-anchor="start" x="211.12" y="-86.5" font-family="Helvetica,sans-Serif" font-size="10.00">src/bot_library/commands</text>
<text text-anchor="middle" x="267.38" y="-74.5" font-family="Helvetica,sans-Serif" font-size="10.00">/clean_up/CleanUp.hpp</text>
</a>
</g>
</g>
<!-- Node4&#45;&gt;Node11 -->
<g id="edge10_Node000004_Node000011" class="edge">
<title>Node4&#45;&gt;Node11</title>
<g id="a_edge10_Node000004_Node000011"><a xlink:title=" ">
<path fill="none" stroke="#63b8ff" d="M696.51,-145.27C615.88,-137.08 466.69,-120.7 340.38,-100 337.57,-99.54 334.7,-99.05 331.81,-98.53"/>
<polygon fill="#63b8ff" stroke="#63b8ff" points="696.09,-148.75 706.39,-146.27 696.79,-141.78 696.09,-148.75"/>
</a>
</g>
</g>
<!-- Node13 -->
<g id="Node000013" class="node">
<title>Node13</title>
<g id="a_Node000013"><a xlink:href="HelpCommand_8hpp.html" target="_top" xlink:title=" ">
<polygon fill="white" stroke="#666666" points="589.62,-100 461.12,-100 461.12,-68 589.62,-68 589.62,-100"/>
<text text-anchor="start" x="469.12" y="-86.5" font-family="Helvetica,sans-Serif" font-size="10.00">src/bot_library/commands</text>
<text text-anchor="middle" x="525.38" y="-74.5" font-family="Helvetica,sans-Serif" font-size="10.00">/help/HelpCommand.hpp</text>
</a>
</g>
</g>
<!-- Node4&#45;&gt;Node13 -->
<g id="edge13_Node000004_Node000013" class="edge">
<title>Node4&#45;&gt;Node13</title>
<g id="a_edge13_Node000004_Node000013"><a xlink:title=" ">
<path fill="none" stroke="#63b8ff" d="M697.09,-134.27C660.82,-123.87 614.52,-110.58 579.14,-100.43"/>
<polygon fill="#63b8ff" stroke="#63b8ff" points="695.97,-137.59 706.54,-136.99 697.9,-130.86 695.97,-137.59"/>
</a>
</g>
</g>
<!-- Node15 -->
<g id="Node000015" class="node">
<title>Node15</title>
<g id="a_Node000015"><a xlink:href="Commands_8hpp.html" target="_top" xlink:title=" ">
<polygon fill="white" stroke="#666666" points="184.62,-100 56.12,-100 56.12,-68 184.62,-68 184.62,-100"/>
<text text-anchor="start" x="64.12" y="-86.5" font-family="Helvetica,sans-Serif" font-size="10.00">src/bot_library/commands</text>
<text text-anchor="middle" x="120.38" y="-74.5" font-family="Helvetica,sans-Serif" font-size="10.00">/include/Commands.hpp</text>
</a>
</g>
</g>
<!-- Node4&#45;&gt;Node15 -->
<g id="edge16_Node000004_Node000015" class="edge">
<title>Node4&#45;&gt;Node15</title>
<g id="a_edge16_Node000004_Node000015"><a xlink:title=" ">
<path fill="none" stroke="#63b8ff" d="M696.56,-147.78C594.14,-141.69 376.53,-126.66 194.38,-100 191.26,-99.54 188.08,-99.04 184.88,-98.51"/>
<polygon fill="#63b8ff" stroke="#63b8ff" points="696.19,-151.26 706.37,-148.35 696.6,-144.27 696.19,-151.26"/>
</a>
</g>
</g>
<!-- Node16 -->
<g id="Node000016" class="node">
<title>Node16</title>
<g id="a_Node000016"><a xlink:href="InitDatabase_8hpp.html" target="_top" xlink:title=" ">
<polygon fill="white" stroke="#666666" points="1571.38,-100 1417.38,-100 1417.38,-68 1571.38,-68 1571.38,-100"/>
<text text-anchor="start" x="1425.38" y="-86.5" font-family="Helvetica,sans-Serif" font-size="10.00">src/bot_library/commands</text>
<text text-anchor="middle" x="1494.38" y="-74.5" font-family="Helvetica,sans-Serif" font-size="10.00">/init_database/InitDatabase.hpp</text>
</a>
</g>
</g>
<!-- Node4&#45;&gt;Node16 -->
<g id="edge19_Node000004_Node000016" class="edge">
<title>Node4&#45;&gt;Node16</title>
<g id="a_edge19_Node000004_Node000016"><a xlink:title=" ">
<path fill="none" stroke="#63b8ff" d="M814.13,-146.81C923.38,-138.86 1165.14,-120.55 1368.38,-100 1384.16,-98.4 1401.03,-96.52 1417.13,-94.64"/>
<polygon fill="#63b8ff" stroke="#63b8ff" points="813.96,-143.31 804.24,-147.53 814.46,-150.29 813.96,-143.31"/>
</a>
</g>
</g>
<!-- Node18 -->
<g id="Node000018" class="node">
<title>Node18</title>
<g id="a_Node000018"><a xlink:href="PongCommand_8hpp.html" target="_top" xlink:title=" ">
<polygon fill="white" stroke="#666666" points="737,-100 607.75,-100 607.75,-68 737,-68 737,-100"/>
<text text-anchor="start" x="615.75" y="-86.5" font-family="Helvetica,sans-Serif" font-size="10.00">src/bot_library/commands</text>
<text text-anchor="middle" x="672.38" y="-74.5" font-family="Helvetica,sans-Serif" font-size="10.00">/pong/PongCommand.hpp</text>
</a>
</g>
</g>
<!-- Node4&#45;&gt;Node18 -->
<g id="edge21_Node000004_Node000018" class="edge">
<title>Node4&#45;&gt;Node18</title>
<g id="a_edge21_Node000004_Node000018"><a xlink:title=" ">
<path fill="none" stroke="#63b8ff" d="M727.2,-128.6C715.56,-119.34 702.34,-108.83 691.81,-100.45"/>
<polygon fill="#63b8ff" stroke="#63b8ff" points="724.93,-131.27 734.94,-134.75 729.29,-125.79 724.93,-131.27"/>
</a>
</g>
</g>
<!-- Node20 -->
<g id="Node000020" class="node">
<title>Node20</title>
<g id="a_Node000020"><a xlink:href="ReactionRoles_8hpp.html" target="_top" xlink:title=" ">
<polygon fill="white" stroke="#666666" points="921.38,-100 755.38,-100 755.38,-68 921.38,-68 921.38,-100"/>
<text text-anchor="start" x="763.38" y="-86.5" font-family="Helvetica,sans-Serif" font-size="10.00">src/bot_library/commands</text>
<text text-anchor="middle" x="838.38" y="-74.5" font-family="Helvetica,sans-Serif" font-size="10.00">/reaction_roles/ReactionRoles.hpp</text>
</a>
</g>
</g>
<!-- Node4&#45;&gt;Node20 -->
<g id="edge24_Node000004_Node000020" class="edge">
<title>Node4&#45;&gt;Node20</title>
<g id="a_edge24_Node000004_Node000020"><a xlink:title=" ">
<path fill="none" stroke="#63b8ff" d="M783.55,-128.6C795.19,-119.34 808.41,-108.83 818.94,-100.45"/>
<polygon fill="#63b8ff" stroke="#63b8ff" points="781.46,-125.79 775.81,-134.75 785.82,-131.27 781.46,-125.79"/>
</a>
</g>
</g>
<!-- Node22 -->
<g id="Node000022" class="node">
<title>Node22</title>
<g id="a_Node000022"><a xlink:href="SetChannelCommand_8hpp.html" target="_top" xlink:title=" ">
<polygon fill="white" stroke="#666666" points="1129,-100 939.75,-100 939.75,-68 1129,-68 1129,-100"/>
<text text-anchor="start" x="947.75" y="-86.5" font-family="Helvetica,sans-Serif" font-size="10.00">src/bot_library/commands</text>
<text text-anchor="middle" x="1034.38" y="-74.5" font-family="Helvetica,sans-Serif" font-size="10.00">/set_channel/SetChannelCommand.hpp</text>
</a>
</g>
</g>
<!-- Node4&#45;&gt;Node22 -->
<g id="edge27_Node000004_Node000022" class="edge">
<title>Node4&#45;&gt;Node22</title>
<g id="a_edge27_Node000004_Node000022"><a xlink:title=" ">
<path fill="none" stroke="#63b8ff" d="M813.83,-137.17C859.17,-126.45 922,-111.58 969,-100.46"/>
<polygon fill="#63b8ff" stroke="#63b8ff" points="813.1,-133.75 804.18,-139.46 814.71,-140.56 813.1,-133.75"/>
</a>
</g>
</g>
<!-- Node8 -->
<g id="Node000008" class="node">
<title>Node8</title>
<g id="a_Node000008"><a xlink:href="Commands_8cpp.html" target="_top" xlink:title=" ">
<polygon fill="white" stroke="#666666" points="789.62,-32 661.12,-32 661.12,0 789.62,0 789.62,-32"/>
<text text-anchor="start" x="669.12" y="-18.5" font-family="Helvetica,sans-Serif" font-size="10.00">src/bot_library/commands</text>
<text text-anchor="middle" x="725.38" y="-6.5" font-family="Helvetica,sans-Serif" font-size="10.00">/Commands.cpp</text>
</a>
</g>
</g>
<!-- Node7&#45;&gt;Node8 -->
<g id="edge7_Node000007_Node000008" class="edge">
<title>Node7&#45;&gt;Node8</title>
<g id="a_edge7_Node000007_Node000008"><a xlink:title=" ">
<path fill="none" stroke="#63b8ff" d="M1136.15,-67.76C985.58,-50.4 945.01,-54.77 798.38,-32 795.56,-31.56 792.69,-31.09 789.8,-30.59"/>
<polygon fill="#63b8ff" stroke="#63b8ff" points="1135.34,-71.19 1145.68,-68.88 1136.15,-64.24 1135.34,-71.19"/>
</a>
</g>
</g>
<!-- Node7&#45;&gt;Node9 -->
<g id="edge8_Node000007_Node000009" class="edge">
<title>Node7&#45;&gt;Node9</title>
<g id="a_edge8_Node000007_Node000009"><a xlink:title=" ">
<path fill="none" stroke="#63b8ff" d="M1369.24,-65.89C1439.17,-55.57 1527.58,-42.51 1595.46,-32.49"/>
<polygon fill="#63b8ff" stroke="#63b8ff" points="1369.06,-62.38 1359.67,-67.3 1370.08,-69.31 1369.06,-62.38"/>
</a>
</g>
</g>
<!-- Node10 -->
<g id="Node000010" class="node">
<title>Node10</title>
<g id="a_Node000010"><a xlink:href="ChallengeRoleDTO_8cpp.html" target="_top" xlink:title=" ">
<polygon fill="white" stroke="#666666" points="1192.25,-32 1004.5,-32 1004.5,0 1192.25,0 1192.25,-32"/>
<text text-anchor="start" x="1012.5" y="-18.5" font-family="Helvetica,sans-Serif" font-size="10.00">src/bot_library/commands</text>
<text text-anchor="middle" x="1098.38" y="-6.5" font-family="Helvetica,sans-Serif" font-size="10.00">/challenge_role/ChallengeRoleDTO.cpp</text>
</a>
</g>
</g>
<!-- Node7&#45;&gt;Node10 -->
<g id="edge9_Node000007_Node000010" class="edge">
<title>Node7&#45;&gt;Node10</title>
<g id="a_edge9_Node000007_Node000010"><a xlink:title=" ">
<path fill="none" stroke="#63b8ff" d="M1206.47,-63.03C1183.46,-53.23 1156.16,-41.61 1134.76,-32.49"/>
<polygon fill="#63b8ff" stroke="#63b8ff" points="1205.07,-66.24 1215.64,-66.93 1207.81,-59.79 1205.07,-66.24"/>
</a>
</g>
</g>
<!-- Node11&#45;&gt;Node8 -->
<g id="edge11_Node000011_Node000008" class="edge">
<title>Node11&#45;&gt;Node8</title>
<g id="a_edge11_Node000011_Node000008"><a xlink:title=" ">
<path fill="none" stroke="#63b8ff" d="M343.16,-67.65C480.19,-46.34 518.18,-53.49 652.38,-32 655.19,-31.55 658.05,-31.07 660.94,-30.56"/>
<polygon fill="#63b8ff" stroke="#63b8ff" points="342.63,-64.19 333.3,-69.2 343.72,-71.1 342.63,-64.19"/>
</a>
</g>
</g>
<!-- Node12 -->
<g id="Node000012" class="node">
<title>Node12</title>
<g id="a_Node000012"><a xlink:href="CleanUp_8cpp.html" target="_top" xlink:title=" ">
<polygon fill="white" stroke="#666666" points="331.62,-32 203.12,-32 203.12,0 331.62,0 331.62,-32"/>
<text text-anchor="start" x="211.12" y="-18.5" font-family="Helvetica,sans-Serif" font-size="10.00">src/bot_library/commands</text>
<text text-anchor="middle" x="267.38" y="-6.5" font-family="Helvetica,sans-Serif" font-size="10.00">/clean_up/CleanUp.cpp</text>
</a>
</g>
</g>
<!-- Node11&#45;&gt;Node12 -->
<g id="edge12_Node000011_Node000012" class="edge">
<title>Node11&#45;&gt;Node12</title>
<g id="a_edge12_Node000011_Node000012"><a xlink:title=" ">
<path fill="none" stroke="#63b8ff" d="M267.38,-56.31C267.38,-48.12 267.38,-39.38 267.38,-32.22"/>
<polygon fill="#63b8ff" stroke="#63b8ff" points="263.88,-56.18 267.38,-66.18 270.88,-56.18 263.88,-56.18"/>
</a>
</g>
</g>
<!-- Node13&#45;&gt;Node8 -->
<g id="edge14_Node000013_Node000008" class="edge">
<title>Node13&#45;&gt;Node8</title>
<g id="a_edge14_Node000013_Node000008"><a xlink:title=" ">
<path fill="none" stroke="#63b8ff" d="M583.1,-63.95C613.36,-53.97 649.94,-41.89 678.43,-32.49"/>
<polygon fill="#63b8ff" stroke="#63b8ff" points="582.1,-60.59 573.7,-67.05 584.3,-67.24 582.1,-60.59"/>
</a>
</g>
</g>
<!-- Node14 -->
<g id="Node000014" class="node">
<title>Node14</title>
<g id="a_Node000014"><a xlink:href="HelpCommand_8cpp.html" target="_top" xlink:title=" ">
<polygon fill="white" stroke="#666666" points="495.62,-32 367.12,-32 367.12,0 495.62,0 495.62,-32"/>
<text text-anchor="start" x="375.12" y="-18.5" font-family="Helvetica,sans-Serif" font-size="10.00">src/bot_library/commands</text>
<text text-anchor="middle" x="431.38" y="-6.5" font-family="Helvetica,sans-Serif" font-size="10.00">/help/HelpCommand.cpp</text>
</a>
</g>
</g>
<!-- Node13&#45;&gt;Node14 -->
<g id="edge15_Node000013_Node000014" class="edge">
<title>Node13&#45;&gt;Node14</title>
<g id="a_edge15_Node000013_Node000014"><a xlink:title=" ">
<path fill="none" stroke="#63b8ff" d="M494.25,-61.15C480.87,-51.75 465.55,-41 453.38,-32.45"/>
<polygon fill="#63b8ff" stroke="#63b8ff" points="492.14,-63.94 502.33,-66.82 496.16,-58.21 492.14,-63.94"/>
</a>
</g>
</g>
<!-- Node15&#45;&gt;Node5 -->
<g id="edge17_Node000015_Node000005" class="edge">
<title>Node15&#45;&gt;Node5</title>
<g id="a_edge17_Node000015_Node000005"><a xlink:title=" ">
<path fill="none" stroke="#63b8ff" d="M102.33,-58.7C93.97,-47.43 84.53,-34.71 78.29,-26.32"/>
<polygon fill="#63b8ff" stroke="#63b8ff" points="99.34,-60.53 108.11,-66.48 104.96,-56.36 99.34,-60.53"/>
</a>
</g>
</g>
<!-- Node15&#45;&gt;Node8 -->
<g id="edge18_Node000015_Node000008" class="edge">
<title>Node15&#45;&gt;Node8</title>
<g id="a_edge18_Node000015_Node000008"><a xlink:title=" ">
<path fill="none" stroke="#63b8ff" d="M196.19,-67.88C398.57,-40.41 453.86,-60.09 652.38,-32 655.19,-31.6 658.07,-31.16 660.96,-30.69"/>
<polygon fill="#63b8ff" stroke="#63b8ff" points="195.8,-64.4 186.37,-69.24 196.75,-71.34 195.8,-64.4"/>
</a>
</g>
</g>
<!-- Node17 -->
<g id="Node000017" class="node">
<title>Node17</title>
<g id="a_Node000017"><a xlink:href="InitDatabase_8cpp.html" target="_top" xlink:title=" ">
<polygon fill="white" stroke="#666666" points="1572.38,-32 1418.38,-32 1418.38,0 1572.38,0 1572.38,-32"/>
<text text-anchor="start" x="1426.38" y="-18.5" font-family="Helvetica,sans-Serif" font-size="10.00">src/bot_library/commands</text>
<text text-anchor="middle" x="1495.38" y="-6.5" font-family="Helvetica,sans-Serif" font-size="10.00">/init_database/InitDatabase.cpp</text>
</a>
</g>
</g>
<!-- Node16&#45;&gt;Node17 -->
<g id="edge20_Node000016_Node000017" class="edge">
<title>Node16&#45;&gt;Node17</title>
<g id="a_edge20_Node000016_Node000017"><a xlink:title=" ">
<path fill="none" stroke="#63b8ff" d="M1494.78,-56.31C1494.9,-48.12 1495.04,-39.38 1495.14,-32.22"/>
<polygon fill="#63b8ff" stroke="#63b8ff" points="1491.28,-56.13 1494.63,-66.18 1498.28,-56.23 1491.28,-56.13"/>
</a>
</g>
</g>
<!-- Node18&#45;&gt;Node8 -->
<g id="edge22_Node000018_Node000008" class="edge">
<title>Node18&#45;&gt;Node8</title>
<g id="a_edge22_Node000018_Node000008"><a xlink:title=" ">
<path fill="none" stroke="#63b8ff" d="M691.75,-58.87C698.91,-49.96 706.81,-40.12 713.15,-32.22"/>
<polygon fill="#63b8ff" stroke="#63b8ff" points="689.15,-56.52 685.62,-66.51 694.61,-60.91 689.15,-56.52"/>
</a>
</g>
</g>
<!-- Node19 -->
<g id="Node000019" class="node">
<title>Node19</title>
<g id="a_Node000019"><a xlink:href="PongCommand_8cpp.html" target="_top" xlink:title=" ">
<polygon fill="white" stroke="#666666" points="643,-32 513.75,-32 513.75,0 643,0 643,-32"/>
<text text-anchor="start" x="521.75" y="-18.5" font-family="Helvetica,sans-Serif" font-size="10.00">src/bot_library/commands</text>
<text text-anchor="middle" x="578.38" y="-6.5" font-family="Helvetica,sans-Serif" font-size="10.00">/pong/PongCommand.cpp</text>
</a>
</g>
</g>
<!-- Node18&#45;&gt;Node19 -->
<g id="edge23_Node000018_Node000019" class="edge">
<title>Node18&#45;&gt;Node19</title>
<g id="a_edge23_Node000018_Node000019"><a xlink:title=" ">
<path fill="none" stroke="#63b8ff" d="M641.25,-61.15C627.87,-51.75 612.55,-41 600.38,-32.45"/>
<polygon fill="#63b8ff" stroke="#63b8ff" points="639.14,-63.94 649.33,-66.82 643.16,-58.21 639.14,-63.94"/>
</a>
</g>
</g>
<!-- Node20&#45;&gt;Node8 -->
<g id="edge25_Node000020_Node000008" class="edge">
<title>Node20&#45;&gt;Node8</title>
<g id="a_edge25_Node000020_Node000008"><a xlink:title=" ">
<path fill="none" stroke="#63b8ff" d="M802.08,-61.8C785.69,-52.23 766.69,-41.13 751.7,-32.38"/>
<polygon fill="#63b8ff" stroke="#63b8ff" points="800.17,-64.74 810.57,-66.76 803.7,-58.7 800.17,-64.74"/>
</a>
</g>
</g>
<!-- Node21 -->
<g id="Node000021" class="node">
<title>Node21</title>
<g id="a_Node000021"><a xlink:href="ReactionRoles_8cpp.html" target="_top" xlink:title=" ">
<polygon fill="white" stroke="#666666" points="973.38,-32 807.38,-32 807.38,0 973.38,0 973.38,-32"/>
<text text-anchor="start" x="815.38" y="-18.5" font-family="Helvetica,sans-Serif" font-size="10.00">src/bot_library/commands</text>
<text text-anchor="middle" x="890.38" y="-6.5" font-family="Helvetica,sans-Serif" font-size="10.00">/reaction_roles/ReactionRoles.cpp</text>
</a>
</g>
</g>
<!-- Node20&#45;&gt;Node21 -->
<g id="edge26_Node000020_Node000021" class="edge">
<title>Node20&#45;&gt;Node21</title>
<g id="a_edge26_Node000020_Node000021"><a xlink:title=" ">
<path fill="none" stroke="#63b8ff" d="M857.39,-58.87C864.41,-49.96 872.16,-40.12 878.38,-32.22"/>
<polygon fill="#63b8ff" stroke="#63b8ff" points="854.81,-56.48 851.37,-66.5 860.31,-60.81 854.81,-56.48"/>
</a>
</g>
</g>
<!-- Node22&#45;&gt;Node8 -->
<g id="edge28_Node000022_Node000008" class="edge">
<title>Node22&#45;&gt;Node8</title>
<g id="a_edge28_Node000022_Node000008"><a xlink:title=" ">
<path fill="none" stroke="#63b8ff" d="M950.69,-65.13C900.15,-54.33 836.69,-40.78 790.02,-30.81"/>
<polygon fill="#63b8ff" stroke="#63b8ff" points="949.94,-68.54 960.45,-67.21 951.4,-61.7 949.94,-68.54"/>
</a>
</g>
</g>
<!-- Node22&#45;&gt;Node23 -->
<g id="edge29_Node000022_Node000023" class="edge">
<title>Node22&#45;&gt;Node23</title>
<g id="a_edge29_Node000022_Node000023"><a xlink:title=" ">
<path fill="none" stroke="#63b8ff" d="M1108.84,-64.86C1150.53,-54.71 1201.97,-42.18 1241.77,-32.49"/>
<polygon fill="#63b8ff" stroke="#63b8ff" points="1108.27,-61.4 1099.38,-67.17 1109.93,-68.2 1108.27,-61.4"/>
</a>
</g>
</g>
</g>
</svg>
