<?xml version="1.0" encoding="UTF-8" standalone="no"?>
<!DOCTYPE svg PUBLIC "-//W3C//DTD SVG 1.1//EN"
 "http://www.w3.org/Graphics/SVG/1.1/DTD/svg11.dtd">
<!-- Generated by graphviz version 9.0.0 (0)
 -->
<!-- Title: src/bot_library/bot/core/interfaces/include/IMessageCommand.hpp Pages: 1 -->
<svg width="3269pt" height="348pt"
 viewBox="0.00 0.00 3269.00 348.00" xmlns="http://www.w3.org/2000/svg" xmlns:xlink="http://www.w3.org/1999/xlink">
<g id="graph0" class="graph" transform="scale(1 1) rotate(0) translate(4 344)">
<title>src/bot_library/bot/core/interfaces/include/IMessageCommand.hpp</title>
<!-- Node1 -->
<g id="Node000001" class="node">
<title>Node1</title>
<g id="a_Node000001"><a xlink:title=" ">
<polygon fill="#999999" stroke="#666666" points="2181.75,-340 2056.25,-340 2056.25,-296 2181.75,-296 2181.75,-340"/>
<text text-anchor="start" x="2064.25" y="-326.5" font-family="Helvetica,sans-Serif" font-size="10.00">src/bot_library/bot</text>
<text text-anchor="start" x="2064.25" y="-314.5" font-family="Helvetica,sans-Serif" font-size="10.00">/core/interfaces/include</text>
<text text-anchor="middle" x="2119" y="-302.5" font-family="Helvetica,sans-Serif" font-size="10.00">/IMessageCommand.hpp</text>
</a>
</g>
</g>
<!-- Node2 -->
<g id="Node000002" class="node">
<title>Node2</title>
<g id="a_Node000002"><a xlink:href="Core_8hpp.html" target="_top" xlink:title=" ">
<polygon fill="white" stroke="#666666" points="2793.12,-260 2678.88,-260 2678.88,-228 2793.12,-228 2793.12,-260"/>
<text text-anchor="start" x="2686.88" y="-246.5" font-family="Helvetica,sans-Serif" font-size="10.00">src/bot_library/bot</text>
<text text-anchor="middle" x="2736" y="-234.5" font-family="Helvetica,sans-Serif" font-size="10.00">/core/include/Core.hpp</text>
</a>
</g>
</g>
<!-- Node1&#45;&gt;Node2 -->
<g id="edge1_Node000001_Node000002" class="edge">
<title>Node1&#45;&gt;Node2</title>
<g id="a_edge1_Node000001_Node000002"><a xlink:title=" ">
<path fill="none" stroke="#63b8ff" d="M2193.43,-308.31C2317.99,-293.78 2566.08,-264.83 2678.38,-251.72"/>
<polygon fill="#63b8ff" stroke="#63b8ff" points="2193.16,-304.82 2183.63,-309.46 2193.97,-311.77 2193.16,-304.82"/>
</a>
</g>
</g>
<!-- Node4 -->
<g id="Node000004" class="node">
<title>Node4</title>
<g id="a_Node000004"><a xlink:href="Bot_8hpp.html" target="_top" xlink:title=" ">
<polygon fill="white" stroke="#666666" points="1466,-192 1372,-192 1372,-160 1466,-160 1466,-192"/>
<text text-anchor="start" x="1380" y="-178.5" font-family="Helvetica,sans-Serif" font-size="10.00">src/bot_library/bot</text>
<text text-anchor="middle" x="1419" y="-166.5" font-family="Helvetica,sans-Serif" font-size="10.00">/include/Bot.hpp</text>
</a>
</g>
</g>
<!-- Node1&#45;&gt;Node4 -->
<g id="edge59_Node000001_Node000004" class="edge">
<title>Node1&#45;&gt;Node4</title>
<g id="a_edge59_Node000001_Node000004"><a xlink:title=" ">
<path fill="none" stroke="#63b8ff" d="M2045.03,-302.21C1900.77,-273.35 1585.52,-210.3 1466.11,-186.42"/>
<polygon fill="#63b8ff" stroke="#63b8ff" points="2043.98,-305.56 2054.47,-304.09 2045.35,-298.7 2043.98,-305.56"/>
</a>
</g>
</g>
<!-- Node3 -->
<g id="Node000003" class="node">
<title>Node3</title>
<g id="a_Node000003"><a xlink:href="Core_8cpp.html" target="_top" xlink:title=" ">
<polygon fill="white" stroke="#666666" points="2915,-192 2821,-192 2821,-160 2915,-160 2915,-192"/>
<text text-anchor="start" x="2829" y="-178.5" font-family="Helvetica,sans-Serif" font-size="10.00">src/bot_library/bot</text>
<text text-anchor="middle" x="2868" y="-166.5" font-family="Helvetica,sans-Serif" font-size="10.00">/core/Core.cpp</text>
</a>
</g>
</g>
<!-- Node2&#45;&gt;Node3 -->
<g id="edge2_Node000002_Node000003" class="edge">
<title>Node2&#45;&gt;Node3</title>
<g id="a_edge2_Node000002_Node000003"><a xlink:title=" ">
<path fill="none" stroke="#63b8ff" d="M2777.05,-222.47C2796.5,-212.75 2819.32,-201.34 2837.25,-192.38"/>
<polygon fill="#63b8ff" stroke="#63b8ff" points="2775.68,-219.25 2768.3,-226.85 2778.81,-225.51 2775.68,-219.25"/>
</a>
</g>
</g>
<!-- Node2&#45;&gt;Node4 -->
<g id="edge3_Node000002_Node000004" class="edge">
<title>Node2&#45;&gt;Node4</title>
<g id="a_edge3_Node000002_Node000004"><a xlink:title=" ">
<path fill="none" stroke="#63b8ff" d="M2667.12,-239.55C2432.07,-227.77 1665.18,-189.34 1466.4,-179.38"/>
<polygon fill="#63b8ff" stroke="#63b8ff" points="2666.89,-243.04 2677.05,-240.05 2667.24,-236.05 2666.89,-243.04"/>
</a>
</g>
</g>
<!-- Node8 -->
<g id="Node000008" class="node">
<title>Node8</title>
<g id="a_Node000008"><a xlink:href="ChallengeBadgeCommand_8cpp.html" target="_top" xlink:title=" ">
<polygon fill="white" stroke="#666666" points="3261,-44 3095,-44 3095,0 3261,0 3261,-44"/>
<text text-anchor="start" x="3103" y="-30.5" font-family="Helvetica,sans-Serif" font-size="10.00">src/bot_library/commands</text>
<text text-anchor="start" x="3103" y="-18.5" font-family="Helvetica,sans-Serif" font-size="10.00">/challenge_badge/ChallengeBadge</text>
<text text-anchor="middle" x="3178" y="-6.5" font-family="Helvetica,sans-Serif" font-size="10.00">Command.cpp</text>
</a>
</g>
</g>
<!-- Node2&#45;&gt;Node8 -->
<g id="edge54_Node000002_Node000008" class="edge">
<title>Node2&#45;&gt;Node8</title>
<g id="a_edge54_Node000002_Node000008"><a xlink:title=" ">
<path fill="none" stroke="#63b8ff" d="M2804.72,-231.67C2879.4,-216.77 2999.6,-185 3086,-124 3117.58,-101.7 3146.25,-66.85 3162.9,-44.48"/>
<polygon fill="#63b8ff" stroke="#63b8ff" points="2804.23,-228.21 2795.08,-233.55 2805.56,-235.08 2804.23,-228.21"/>
</a>
</g>
</g>
<!-- Node12 -->
<g id="Node000012" class="node">
<title>Node12</title>
<g id="a_Node000012"><a xlink:href="ChallengeRoleCommand_8cpp.html" target="_top" xlink:title=" ">
<polygon fill="white" stroke="#666666" points="2892.88,-38 2681.12,-38 2681.12,-6 2892.88,-6 2892.88,-38"/>
<text text-anchor="start" x="2689.12" y="-24.5" font-family="Helvetica,sans-Serif" font-size="10.00">src/bot_library/commands</text>
<text text-anchor="middle" x="2787" y="-12.5" font-family="Helvetica,sans-Serif" font-size="10.00">/challenge_role/ChallengeRoleCommand.cpp</text>
</a>
</g>
</g>
<!-- Node2&#45;&gt;Node12 -->
<g id="edge55_Node000002_Node000012" class="edge">
<title>Node2&#45;&gt;Node12</title>
<g id="a_edge55_Node000002_Node000012"><a xlink:title=" ">
<path fill="none" stroke="#63b8ff" d="M2754.97,-218.77C2760.38,-210.67 2765.7,-201.33 2769,-192 2788.1,-138.04 2788.59,-68.81 2787.71,-38.44"/>
<polygon fill="#63b8ff" stroke="#63b8ff" points="2752.27,-216.52 2749.33,-226.7 2757.98,-220.57 2752.27,-216.52"/>
</a>
</g>
</g>
<!-- Node26 -->
<g id="Node000026" class="node">
<title>Node26</title>
<g id="a_Node000026"><a xlink:href="MemberCommand_8cpp.html" target="_top" xlink:title=" ">
<polygon fill="white" stroke="#666666" points="2455.12,-38 2298.88,-38 2298.88,-6 2455.12,-6 2455.12,-38"/>
<text text-anchor="start" x="2306.88" y="-24.5" font-family="Helvetica,sans-Serif" font-size="10.00">src/bot_library/commands</text>
<text text-anchor="middle" x="2377" y="-12.5" font-family="Helvetica,sans-Serif" font-size="10.00">/member/MemberCommand.cpp</text>
</a>
</g>
</g>
<!-- Node2&#45;&gt;Node26 -->
<g id="edge56_Node000002_Node000026" class="edge">
<title>Node2&#45;&gt;Node26</title>
<g id="a_edge56_Node000002_Node000026"><a xlink:title=" ">
<path fill="none" stroke="#63b8ff" d="M2737.23,-216.48C2737.34,-180 2731.64,-114.89 2693,-80 2654.76,-45.48 2514.52,-54.05 2464,-44 2455.62,-42.33 2446.82,-40.41 2438.18,-38.42"/>
<polygon fill="#63b8ff" stroke="#63b8ff" points="2733.73,-216.09 2737.03,-226.16 2740.73,-216.23 2733.73,-216.09"/>
</a>
</g>
</g>
<!-- Node32 -->
<g id="Node000032" class="node">
<title>Node32</title>
<g id="a_Node000032"><a xlink:href="ResourcesCommand_8cpp.html" target="_top" xlink:title=" ">
<polygon fill="white" stroke="#666666" points="2280.88,-38 2105.12,-38 2105.12,-6 2280.88,-6 2280.88,-38"/>
<text text-anchor="start" x="2113.12" y="-24.5" font-family="Helvetica,sans-Serif" font-size="10.00">src/bot_library/commands</text>
<text text-anchor="middle" x="2193" y="-12.5" font-family="Helvetica,sans-Serif" font-size="10.00">/resources/ResourcesCommand.cpp</text>
</a>
</g>
</g>
<!-- Node2&#45;&gt;Node32 -->
<g id="edge57_Node000002_Node000032" class="edge">
<title>Node2&#45;&gt;Node32</title>
<g id="a_edge57_Node000002_Node000032"><a xlink:title=" ">
<path fill="none" stroke="#63b8ff" d="M2727.38,-216.87C2713.09,-175.23 2683.71,-96.77 2660,-80 2592.56,-32.29 2371.62,-56.76 2290,-44 2280.13,-42.46 2269.75,-40.53 2259.6,-38.48"/>
<polygon fill="#63b8ff" stroke="#63b8ff" points="2723.99,-217.78 2730.51,-226.13 2730.62,-215.53 2723.99,-217.78"/>
</a>
</g>
</g>
<!-- Node38 -->
<g id="Node000038" class="node">
<title>Node38</title>
<g id="a_Node000038"><a xlink:href="SetChannelCommand_8cpp.html" target="_top" xlink:title=" ">
<polygon fill="white" stroke="#666666" points="2662.62,-38 2473.38,-38 2473.38,-6 2662.62,-6 2662.62,-38"/>
<text text-anchor="start" x="2481.38" y="-24.5" font-family="Helvetica,sans-Serif" font-size="10.00">src/bot_library/commands</text>
<text text-anchor="middle" x="2568" y="-12.5" font-family="Helvetica,sans-Serif" font-size="10.00">/set_channel/SetChannelCommand.cpp</text>
</a>
</g>
</g>
<!-- Node2&#45;&gt;Node38 -->
<g id="edge58_Node000002_Node000038" class="edge">
<title>Node2&#45;&gt;Node38</title>
<g id="a_edge58_Node000002_Node000038"><a xlink:title=" ">
<path fill="none" stroke="#63b8ff" d="M2743.57,-216.57C2751.84,-181.69 2760.35,-120.04 2731,-80 2719.13,-63.8 2675.02,-48.94 2635.68,-38.46"/>
<polygon fill="#63b8ff" stroke="#63b8ff" points="2740.18,-215.69 2741.09,-226.24 2746.96,-217.43 2740.18,-215.69"/>
</a>
</g>
</g>
<!-- Node5 -->
<g id="Node000005" class="node">
<title>Node5</title>
<g id="a_Node000005"><a xlink:href="BotLibrary_8cpp.html" target="_top" xlink:title=" ">
<polygon fill="white" stroke="#666666" points="326.38,-32 183.62,-32 183.62,-12 326.38,-12 326.38,-32"/>
<text text-anchor="middle" x="255" y="-18.5" font-family="Helvetica,sans-Serif" font-size="10.00">src/bot_library/BotLibrary.cpp</text>
</a>
</g>
</g>
<!-- Node4&#45;&gt;Node5 -->
<g id="edge4_Node000004_Node000005" class="edge">
<title>Node4&#45;&gt;Node5</title>
<g id="a_edge4_Node000004_Node000005"><a xlink:title=" ">
<path fill="none" stroke="#63b8ff" d="M1360.05,-174.77C1121.89,-173.56 241.52,-166.25 201,-124 174.03,-95.87 220.01,-51.61 243.05,-32.41"/>
<polygon fill="#63b8ff" stroke="#63b8ff" points="1360.03,-178.27 1370.04,-174.82 1360.06,-171.27 1360.03,-178.27"/>
</a>
</g>
</g>
<!-- Node6 -->
<g id="Node000006" class="node">
<title>Node6</title>
<g id="a_Node000006"><a xlink:href="Bot_8cpp.html" target="_top" xlink:title=" ">
<polygon fill="white" stroke="#666666" points="1401,-118 1307,-118 1307,-86 1401,-86 1401,-118"/>
<text text-anchor="start" x="1315" y="-104.5" font-family="Helvetica,sans-Serif" font-size="10.00">src/bot_library/bot</text>
<text text-anchor="middle" x="1354" y="-92.5" font-family="Helvetica,sans-Serif" font-size="10.00">/Bot.cpp</text>
</a>
</g>
</g>
<!-- Node4&#45;&gt;Node6 -->
<g id="edge5_Node000004_Node000006" class="edge">
<title>Node4&#45;&gt;Node6</title>
<g id="a_edge5_Node000004_Node000006"><a xlink:title=" ">
<path fill="none" stroke="#63b8ff" d="M1397.73,-151.44C1387.88,-140.53 1376.46,-127.88 1367.76,-118.25"/>
<polygon fill="#63b8ff" stroke="#63b8ff" points="1394.9,-153.53 1404.2,-158.61 1400.1,-148.84 1394.9,-153.53"/>
</a>
</g>
</g>
<!-- Node7 -->
<g id="Node000007" class="node">
<title>Node7</title>
<g id="a_Node000007"><a xlink:href="ChallengeBadgeCommand_8hpp.html" target="_top" xlink:title=" ">
<polygon fill="white" stroke="#666666" points="3077,-124 2911,-124 2911,-80 3077,-80 3077,-124"/>
<text text-anchor="start" x="2919" y="-110.5" font-family="Helvetica,sans-Serif" font-size="10.00">src/bot_library/commands</text>
<text text-anchor="start" x="2919" y="-98.5" font-family="Helvetica,sans-Serif" font-size="10.00">/challenge_badge/ChallengeBadge</text>
<text text-anchor="middle" x="2994" y="-86.5" font-family="Helvetica,sans-Serif" font-size="10.00">Command.hpp</text>
</a>
</g>
</g>
<!-- Node4&#45;&gt;Node7 -->
<g id="edge6_Node000004_Node000007" class="edge">
<title>Node4&#45;&gt;Node7</title>
<g id="a_edge6_Node000004_Node000007"><a xlink:title=" ">
<path fill="none" stroke="#63b8ff" d="M1477.79,-173.04C1655.88,-167 2205.08,-147.65 2660,-124 2745.44,-119.56 2843.09,-113.28 2910.64,-108.74"/>
<polygon fill="#63b8ff" stroke="#63b8ff" points="1477.75,-169.54 1467.87,-173.37 1477.98,-176.53 1477.75,-169.54"/>
</a>
</g>
</g>
<!-- Node10 -->
<g id="Node000010" class="node">
<title>Node10</title>
<g id="a_Node000010"><a xlink:href="ChallengeRoleCommand_8hpp.html" target="_top" xlink:title=" ">
<polygon fill="white" stroke="#666666" points="2650.88,-118 2439.12,-118 2439.12,-86 2650.88,-86 2650.88,-118"/>
<text text-anchor="start" x="2447.12" y="-104.5" font-family="Helvetica,sans-Serif" font-size="10.00">src/bot_library/commands</text>
<text text-anchor="middle" x="2545" y="-92.5" font-family="Helvetica,sans-Serif" font-size="10.00">/challenge_role/ChallengeRoleCommand.hpp</text>
</a>
</g>
</g>
<!-- Node4&#45;&gt;Node10 -->
<g id="edge9_Node000004_Node000010" class="edge">
<title>Node4&#45;&gt;Node10</title>
<g id="a_edge9_Node000004_Node000010"><a xlink:title=" ">
<path fill="none" stroke="#63b8ff" d="M1477.44,-174.71C1632.94,-173.36 2069.58,-165.82 2430,-124 2442.4,-122.56 2455.48,-120.6 2468.19,-118.46"/>
<polygon fill="#63b8ff" stroke="#63b8ff" points="1477.78,-171.2 1467.81,-174.79 1477.84,-178.2 1477.78,-171.2"/>
</a>
</g>
</g>
<!-- Node14 -->
<g id="Node000014" class="node">
<title>Node14</title>
<g id="a_Node000014"><a xlink:href="CleanUp_8hpp.html" target="_top" xlink:title=" ">
<polygon fill="white" stroke="#666666" points="1289.25,-118 1160.75,-118 1160.75,-86 1289.25,-86 1289.25,-118"/>
<text text-anchor="start" x="1168.75" y="-104.5" font-family="Helvetica,sans-Serif" font-size="10.00">src/bot_library/commands</text>
<text text-anchor="middle" x="1225" y="-92.5" font-family="Helvetica,sans-Serif" font-size="10.00">/clean_up/CleanUp.hpp</text>
</a>
</g>
</g>
<!-- Node4&#45;&gt;Node14 -->
<g id="edge13_Node000004_Node000014" class="edge">
<title>Node4&#45;&gt;Node14</title>
<g id="a_edge13_Node000004_Node000014"><a xlink:title=" ">
<path fill="none" stroke="#63b8ff" d="M1366.63,-155.56C1335.22,-143.91 1295.81,-129.28 1266.55,-118.42"/>
<polygon fill="#63b8ff" stroke="#63b8ff" points="1365.37,-158.83 1375.96,-159.03 1367.81,-152.27 1365.37,-158.83"/>
</a>
</g>
</g>
<!-- Node16 -->
<g id="Node000016" class="node">
<title>Node16</title>
<g id="a_Node000016"><a xlink:href="FlipCommand_8hpp.html" target="_top" xlink:title=" ">
<polygon fill="white" stroke="#666666" points="1547.25,-118 1418.75,-118 1418.75,-86 1547.25,-86 1547.25,-118"/>
<text text-anchor="start" x="1426.75" y="-104.5" font-family="Helvetica,sans-Serif" font-size="10.00">src/bot_library/commands</text>
<text text-anchor="middle" x="1483" y="-92.5" font-family="Helvetica,sans-Serif" font-size="10.00">/flip/FlipCommand.hpp</text>
</a>
</g>
</g>
<!-- Node4&#45;&gt;Node16 -->
<g id="edge16_Node000004_Node000016" class="edge">
<title>Node4&#45;&gt;Node16</title>
<g id="a_edge16_Node000004_Node000016"><a xlink:title=" ">
<path fill="none" stroke="#63b8ff" d="M1439.94,-151.44C1449.64,-140.53 1460.88,-127.88 1469.45,-118.25"/>
<polygon fill="#63b8ff" stroke="#63b8ff" points="1437.61,-148.8 1433.58,-158.6 1442.84,-153.45 1437.61,-148.8"/>
</a>
</g>
</g>
<!-- Node18 -->
<g id="Node000018" class="node">
<title>Node18</title>
<g id="a_Node000018"><a xlink:href="HelpCommand_8hpp.html" target="_top" xlink:title=" ">
<polygon fill="white" stroke="#666666" points="1694.25,-118 1565.75,-118 1565.75,-86 1694.25,-86 1694.25,-118"/>
<text text-anchor="start" x="1573.75" y="-104.5" font-family="Helvetica,sans-Serif" font-size="10.00">src/bot_library/commands</text>
<text text-anchor="middle" x="1630" y="-92.5" font-family="Helvetica,sans-Serif" font-size="10.00">/help/HelpCommand.hpp</text>
</a>
</g>
</g>
<!-- Node4&#45;&gt;Node18 -->
<g id="edge19_Node000004_Node000018" class="edge">
<title>Node4&#45;&gt;Node18</title>
<g id="a_edge19_Node000004_Node000018"><a xlink:title=" ">
<path fill="none" stroke="#63b8ff" d="M1475.06,-155.87C1509.38,-144.16 1552.7,-129.38 1584.81,-118.42"/>
<polygon fill="#63b8ff" stroke="#63b8ff" points="1474.03,-152.52 1465.7,-159.07 1476.29,-159.15 1474.03,-152.52"/>
</a>
</g>
</g>
<!-- Node20 -->
<g id="Node000020" class="node">
<title>Node20</title>
<g id="a_Node000020"><a xlink:href="Commands_8hpp.html" target="_top" xlink:title=" ">
<polygon fill="white" stroke="#666666" points="338.25,-118 209.75,-118 209.75,-86 338.25,-86 338.25,-118"/>
<text text-anchor="start" x="217.75" y="-104.5" font-family="Helvetica,sans-Serif" font-size="10.00">src/bot_library/commands</text>
<text text-anchor="middle" x="274" y="-92.5" font-family="Helvetica,sans-Serif" font-size="10.00">/include/Commands.hpp</text>
</a>
</g>
</g>
<!-- Node4&#45;&gt;Node20 -->
<g id="edge22_Node000004_Node000020" class="edge">
<title>Node4&#45;&gt;Node20</title>
<g id="a_edge22_Node000004_Node000020"><a xlink:title=" ">
<path fill="none" stroke="#63b8ff" d="M1360.15,-174C1165.61,-170.42 544.49,-156.65 347,-124 338.67,-122.62 329.95,-120.62 321.54,-118.4"/>
<polygon fill="#63b8ff" stroke="#63b8ff" points="1359.95,-177.5 1370.01,-174.18 1360.08,-170.5 1359.95,-177.5"/>
</a>
</g>
</g>
<!-- Node21 -->
<g id="Node000021" class="node">
<title>Node21</title>
<g id="a_Node000021"><a xlink:href="InitDatabase_8hpp.html" target="_top" xlink:title=" ">
<polygon fill="white" stroke="#666666" points="154,-118 0,-118 0,-86 154,-86 154,-118"/>
<text text-anchor="start" x="8" y="-104.5" font-family="Helvetica,sans-Serif" font-size="10.00">src/bot_library/commands</text>
<text text-anchor="middle" x="77" y="-92.5" font-family="Helvetica,sans-Serif" font-size="10.00">/init_database/InitDatabase.hpp</text>
</a>
</g>
</g>
<!-- Node4&#45;&gt;Node21 -->
<g id="edge25_Node000004_Node000021" class="edge">
<title>Node4&#45;&gt;Node21</title>
<g id="a_edge25_Node000004_Node000021"><a xlink:title=" ">
<path fill="none" stroke="#63b8ff" d="M1360.34,-174.06C1145.65,-170.38 402.93,-155.62 168,-124 157.88,-122.64 147.22,-120.67 136.92,-118.49"/>
<polygon fill="#63b8ff" stroke="#63b8ff" points="1360.08,-177.55 1370.14,-174.22 1360.2,-170.55 1360.08,-177.55"/>
</a>
</g>
</g>
<!-- Node23 -->
<g id="Node000023" class="node">
<title>Node23</title>
<g id="a_Node000023"><a xlink:href="InviteCommand_8hpp.html" target="_top" xlink:title=" ">
<polygon fill="white" stroke="#666666" points="1845.5,-118 1712.5,-118 1712.5,-86 1845.5,-86 1845.5,-118"/>
<text text-anchor="start" x="1720.5" y="-104.5" font-family="Helvetica,sans-Serif" font-size="10.00">src/bot_library/commands</text>
<text text-anchor="middle" x="1779" y="-92.5" font-family="Helvetica,sans-Serif" font-size="10.00">/invite/InviteCommand.hpp</text>
</a>
</g>
</g>
<!-- Node4&#45;&gt;Node23 -->
<g id="edge27_Node000004_Node000023" class="edge">
<title>Node4&#45;&gt;Node23</title>
<g id="a_edge27_Node000004_Node000023"><a xlink:title=" ">
<path fill="none" stroke="#63b8ff" d="M1477.33,-166.13C1534.96,-157 1625.49,-141.63 1703,-124 1710.34,-122.33 1718.04,-120.41 1725.59,-118.42"/>
<polygon fill="#63b8ff" stroke="#63b8ff" points="1477.08,-162.63 1467.75,-167.64 1478.17,-169.54 1477.08,-162.63"/>
</a>
</g>
</g>
<!-- Node25 -->
<g id="Node000025" class="node">
<title>Node25</title>
<g id="a_Node000025"><a xlink:href="MemberCommand_8hpp.html" target="_top" xlink:title=" ">
<polygon fill="white" stroke="#666666" points="2213.12,-118 2056.88,-118 2056.88,-86 2213.12,-86 2213.12,-118"/>
<text text-anchor="start" x="2064.88" y="-104.5" font-family="Helvetica,sans-Serif" font-size="10.00">src/bot_library/commands</text>
<text text-anchor="middle" x="2135" y="-92.5" font-family="Helvetica,sans-Serif" font-size="10.00">/member/MemberCommand.hpp</text>
</a>
</g>
</g>
<!-- Node4&#45;&gt;Node25 -->
<g id="edge30_Node000004_Node000025" class="edge">
<title>Node4&#45;&gt;Node25</title>
<g id="a_edge30_Node000004_Node000025"><a xlink:title=" ">
<path fill="none" stroke="#63b8ff" d="M1477.57,-173.3C1589.19,-169.38 1839.82,-157.36 2048,-124 2057.21,-122.53 2066.87,-120.59 2076.29,-118.49"/>
<polygon fill="#63b8ff" stroke="#63b8ff" points="1477.64,-169.79 1467.76,-173.63 1477.88,-176.79 1477.64,-169.79"/>
</a>
</g>
</g>
<!-- Node27 -->
<g id="Node000027" class="node">
<title>Node27</title>
<g id="a_Node000027"><a xlink:href="PongCommand_8hpp.html" target="_top" xlink:title=" ">
<polygon fill="white" stroke="#666666" points="485.62,-118 356.38,-118 356.38,-86 485.62,-86 485.62,-118"/>
<text text-anchor="start" x="364.38" y="-104.5" font-family="Helvetica,sans-Serif" font-size="10.00">src/bot_library/commands</text>
<text text-anchor="middle" x="421" y="-92.5" font-family="Helvetica,sans-Serif" font-size="10.00">/pong/PongCommand.hpp</text>
</a>
</g>
</g>
<!-- Node4&#45;&gt;Node27 -->
<g id="edge33_Node000004_Node000027" class="edge">
<title>Node4&#45;&gt;Node27</title>
<g id="a_edge33_Node000004_Node000027"><a xlink:title=" ">
<path fill="none" stroke="#63b8ff" d="M1360.44,-173.46C1184.54,-168.58 662.66,-152.06 495,-124 486.7,-122.61 478.01,-120.63 469.61,-118.44"/>
<polygon fill="#63b8ff" stroke="#63b8ff" points="1360.16,-176.96 1370.25,-173.73 1360.35,-169.96 1360.16,-176.96"/>
</a>
</g>
</g>
<!-- Node29 -->
<g id="Node000029" class="node">
<title>Node29</title>
<g id="a_Node000029"><a xlink:href="ReactionRoles_8hpp.html" target="_top" xlink:title=" ">
<polygon fill="white" stroke="#666666" points="670,-118 504,-118 504,-86 670,-86 670,-118"/>
<text text-anchor="start" x="512" y="-104.5" font-family="Helvetica,sans-Serif" font-size="10.00">src/bot_library/commands</text>
<text text-anchor="middle" x="587" y="-92.5" font-family="Helvetica,sans-Serif" font-size="10.00">/reaction_roles/ReactionRoles.hpp</text>
</a>
</g>
</g>
<!-- Node4&#45;&gt;Node29 -->
<g id="edge36_Node000004_Node000029" class="edge">
<title>Node4&#45;&gt;Node29</title>
<g id="a_edge36_Node000004_Node000029"><a xlink:title=" ">
<path fill="none" stroke="#63b8ff" d="M1360.31,-174.05C1234.68,-171.34 930.71,-161.17 679,-124 669.11,-122.54 658.72,-120.58 648.61,-118.45"/>
<polygon fill="#63b8ff" stroke="#63b8ff" points="1359.96,-177.55 1370.03,-174.25 1360.1,-170.55 1359.96,-177.55"/>
</a>
</g>
</g>
<!-- Node31 -->
<g id="Node000031" class="node">
<title>Node31</title>
<g id="a_Node000031"><a xlink:href="ResourcesCommand_8hpp.html" target="_top" xlink:title=" ">
<polygon fill="white" stroke="#666666" points="2038.88,-118 1863.12,-118 1863.12,-86 2038.88,-86 2038.88,-118"/>
<text text-anchor="start" x="1871.12" y="-104.5" font-family="Helvetica,sans-Serif" font-size="10.00">src/bot_library/commands</text>
<text text-anchor="middle" x="1951" y="-92.5" font-family="Helvetica,sans-Serif" font-size="10.00">/resources/ResourcesCommand.hpp</text>
</a>
</g>
</g>
<!-- Node4&#45;&gt;Node31 -->
<g id="edge39_Node000004_Node000031" class="edge">
<title>Node4&#45;&gt;Node31</title>
<g id="a_edge39_Node000004_Node000031"><a xlink:title=" ">
<path fill="none" stroke="#63b8ff" d="M1477.65,-170C1561.61,-162.41 1720.76,-146.48 1855,-124 1864.51,-122.41 1874.49,-120.5 1884.29,-118.48"/>
<polygon fill="#63b8ff" stroke="#63b8ff" points="1477.47,-166.5 1467.82,-170.88 1478.09,-173.47 1477.47,-166.5"/>
</a>
</g>
</g>
<!-- Node33 -->
<g id="Node000033" class="node">
<title>Node33</title>
<g id="a_Node000033"><a xlink:href="RollCommand_8hpp.html" target="_top" xlink:title=" ">
<polygon fill="white" stroke="#666666" points="816.25,-118 687.75,-118 687.75,-86 816.25,-86 816.25,-118"/>
<text text-anchor="start" x="695.75" y="-104.5" font-family="Helvetica,sans-Serif" font-size="10.00">src/bot_library/commands</text>
<text text-anchor="middle" x="752" y="-92.5" font-family="Helvetica,sans-Serif" font-size="10.00">/roll/RollCommand.hpp</text>
</a>
</g>
</g>
<!-- Node4&#45;&gt;Node33 -->
<g id="edge42_Node000004_Node000033" class="edge">
<title>Node4&#45;&gt;Node33</title>
<g id="a_edge42_Node000004_Node000033"><a xlink:title=" ">
<path fill="none" stroke="#63b8ff" d="M1360.2,-173.65C1253.12,-170.37 1019.49,-159.44 826,-124 817.99,-122.53 809.59,-120.57 801.45,-118.44"/>
<polygon fill="#63b8ff" stroke="#63b8ff" points="1360.09,-177.15 1370.19,-173.94 1360.3,-170.15 1360.09,-177.15"/>
</a>
</g>
</g>
<!-- Node35 -->
<g id="Node000035" class="node">
<title>Node35</title>
<g id="a_Node000035"><a xlink:href="ServerDetails_8hpp.html" target="_top" xlink:title=" ">
<polygon fill="white" stroke="#666666" points="995.38,-118 834.62,-118 834.62,-86 995.38,-86 995.38,-118"/>
<text text-anchor="start" x="842.62" y="-104.5" font-family="Helvetica,sans-Serif" font-size="10.00">src/bot_library/commands</text>
<text text-anchor="middle" x="915" y="-92.5" font-family="Helvetica,sans-Serif" font-size="10.00">/server_details/ServerDetails.hpp</text>
</a>
</g>
</g>
<!-- Node4&#45;&gt;Node35 -->
<g id="edge45_Node000004_Node000035" class="edge">
<title>Node4&#45;&gt;Node35</title>
<g id="a_edge45_Node000004_Node000035"><a xlink:title=" ">
<path fill="none" stroke="#63b8ff" d="M1360.37,-169.83C1279.71,-162.27 1130.17,-146.57 1004,-124 995.09,-122.41 985.74,-120.48 976.58,-118.45"/>
<polygon fill="#63b8ff" stroke="#63b8ff" points="1359.97,-173.31 1370.25,-170.75 1360.62,-166.34 1359.97,-173.31"/>
</a>
</g>
</g>
<!-- Node37 -->
<g id="Node000037" class="node">
<title>Node37</title>
<g id="a_Node000037"><a xlink:href="SetChannelCommand_8hpp.html" target="_top" xlink:title=" ">
<polygon fill="white" stroke="#666666" points="2420.62,-118 2231.38,-118 2231.38,-86 2420.62,-86 2420.62,-118"/>
<text text-anchor="start" x="2239.38" y="-104.5" font-family="Helvetica,sans-Serif" font-size="10.00">src/bot_library/commands</text>
<text text-anchor="middle" x="2326" y="-92.5" font-family="Helvetica,sans-Serif" font-size="10.00">/set_channel/SetChannelCommand.hpp</text>
</a>
</g>
</g>
<!-- Node4&#45;&gt;Node37 -->
<g id="edge48_Node000004_Node000037" class="edge">
<title>Node4&#45;&gt;Node37</title>
<g id="a_edge48_Node000004_Node000037"><a xlink:title=" ">
<path fill="none" stroke="#63b8ff" d="M1477.77,-174C1610.83,-171.13 1945.07,-160.58 2222,-124 2233.05,-122.54 2244.68,-120.6 2256.01,-118.48"/>
<polygon fill="#63b8ff" stroke="#63b8ff" points="1477.72,-170.5 1467.8,-174.2 1477.87,-177.5 1477.72,-170.5"/>
</a>
</g>
</g>
<!-- Node39 -->
<g id="Node000039" class="node">
<title>Node39</title>
<g id="a_Node000039"><a xlink:href="SetStatus_8hpp.html" target="_top" xlink:title=" ">
<polygon fill="white" stroke="#666666" points="1143,-118 1013,-118 1013,-86 1143,-86 1143,-118"/>
<text text-anchor="start" x="1021" y="-104.5" font-family="Helvetica,sans-Serif" font-size="10.00">src/bot_library/commands</text>
<text text-anchor="middle" x="1078" y="-92.5" font-family="Helvetica,sans-Serif" font-size="10.00">/set_status/SetStatus.hpp</text>
</a>
</g>
</g>
<!-- Node4&#45;&gt;Node39 -->
<g id="edge51_Node000004_Node000039" class="edge">
<title>Node4&#45;&gt;Node39</title>
<g id="a_edge51_Node000004_Node000039"><a xlink:title=" ">
<path fill="none" stroke="#63b8ff" d="M1360.82,-165.4C1306.52,-156.09 1223.38,-140.91 1152,-124 1144.98,-122.34 1137.63,-120.44 1130.4,-118.49"/>
<polygon fill="#63b8ff" stroke="#63b8ff" points="1360.01,-168.82 1370.46,-167.05 1361.19,-161.92 1360.01,-168.82"/>
</a>
</g>
</g>
<!-- Node7&#45;&gt;Node8 -->
<g id="edge7_Node000007_Node000008" class="edge">
<title>Node7&#45;&gt;Node8</title>
<g id="a_edge7_Node000007_Node000008"><a xlink:title=" ">
<path fill="none" stroke="#63b8ff" d="M3054.85,-75.2C3078.39,-65.23 3105.01,-53.94 3127.46,-44.42"/>
<polygon fill="#63b8ff" stroke="#63b8ff" points="3053.51,-71.97 3045.67,-79.1 3056.25,-78.41 3053.51,-71.97"/>
</a>
</g>
</g>
<!-- Node9 -->
<g id="Node000009" class="node">
<title>Node9</title>
<g id="a_Node000009"><a xlink:href="ChallengeBadgeDTO_8cpp.html" target="_top" xlink:title=" ">
<polygon fill="white" stroke="#666666" points="3077,-44 2911,-44 2911,0 3077,0 3077,-44"/>
<text text-anchor="start" x="2919" y="-30.5" font-family="Helvetica,sans-Serif" font-size="10.00">src/bot_library/commands</text>
<text text-anchor="start" x="2919" y="-18.5" font-family="Helvetica,sans-Serif" font-size="10.00">/challenge_badge/ChallengeBadge</text>
<text text-anchor="middle" x="2994" y="-6.5" font-family="Helvetica,sans-Serif" font-size="10.00">DTO.cpp</text>
</a>
</g>
</g>
<!-- Node7&#45;&gt;Node9 -->
<g id="edge8_Node000007_Node000009" class="edge">
<title>Node7&#45;&gt;Node9</title>
<g id="a_edge8_Node000007_Node000009"><a xlink:title=" ">
<path fill="none" stroke="#63b8ff" d="M2994,-68.25C2994,-60.15 2994,-51.68 2994,-44.29"/>
<polygon fill="#63b8ff" stroke="#63b8ff" points="2990.5,-68.17 2994,-78.17 2997.5,-68.17 2990.5,-68.17"/>
</a>
</g>
</g>
<!-- Node11 -->
<g id="Node000011" class="node">
<title>Node11</title>
<g id="a_Node000011"><a xlink:href="Commands_8cpp.html" target="_top" xlink:title=" ">
<polygon fill="white" stroke="#666666" points="1436.25,-38 1307.75,-38 1307.75,-6 1436.25,-6 1436.25,-38"/>
<text text-anchor="start" x="1315.75" y="-24.5" font-family="Helvetica,sans-Serif" font-size="10.00">src/bot_library/commands</text>
<text text-anchor="middle" x="1372" y="-12.5" font-family="Helvetica,sans-Serif" font-size="10.00">/Commands.cpp</text>
</a>
</g>
</g>
<!-- Node10&#45;&gt;Node11 -->
<g id="edge10_Node000010_Node000011" class="edge">
<title>Node10&#45;&gt;Node11</title>
<g id="a_edge10_Node000010_Node000011"><a xlink:title=" ">
<path fill="none" stroke="#63b8ff" d="M2457.56,-83.68C2448.28,-82.25 2438.96,-80.98 2430,-80 1994.95,-32.57 1878.27,-112.23 1446,-44 1437.56,-42.67 1428.71,-40.69 1420.19,-38.47"/>
<polygon fill="#63b8ff" stroke="#63b8ff" points="2456.91,-87.12 2467.34,-85.26 2458.02,-80.21 2456.91,-87.12"/>
</a>
</g>
</g>
<!-- Node10&#45;&gt;Node12 -->
<g id="edge11_Node000010_Node000012" class="edge">
<title>Node10&#45;&gt;Node12</title>
<g id="a_edge11_Node000010_Node000012"><a xlink:title=" ">
<path fill="none" stroke="#63b8ff" d="M2603.62,-82.11C2645.22,-68.7 2700.37,-50.92 2739.29,-38.38"/>
<polygon fill="#63b8ff" stroke="#63b8ff" points="2602.7,-78.73 2594.25,-85.13 2604.84,-85.39 2602.7,-78.73"/>
</a>
</g>
</g>
<!-- Node13 -->
<g id="Node000013" class="node">
<title>Node13</title>
<g id="a_Node000013"><a xlink:href="ChallengeRoleDTO_8cpp.html" target="_top" xlink:title=" ">
<polygon fill="white" stroke="#666666" points="2086.88,-38 1899.12,-38 1899.12,-6 2086.88,-6 2086.88,-38"/>
<text text-anchor="start" x="1907.12" y="-24.5" font-family="Helvetica,sans-Serif" font-size="10.00">src/bot_library/commands</text>
<text text-anchor="middle" x="1993" y="-12.5" font-family="Helvetica,sans-Serif" font-size="10.00">/challenge_role/ChallengeRoleDTO.cpp</text>
</a>
</g>
</g>
<!-- Node10&#45;&gt;Node13 -->
<g id="edge12_Node000010_Node000013" class="edge">
<title>Node10&#45;&gt;Node13</title>
<g id="a_edge12_Node000010_Node000013"><a xlink:title=" ">
<path fill="none" stroke="#63b8ff" d="M2453.28,-83.63C2445.42,-82.33 2437.58,-81.1 2430,-80 2282.24,-58.58 2243.53,-66.94 2096,-44 2085.81,-42.42 2075.1,-40.51 2064.6,-38.5"/>
<polygon fill="#63b8ff" stroke="#63b8ff" points="2452.45,-87.04 2462.89,-85.26 2453.62,-80.14 2452.45,-87.04"/>
</a>
</g>
</g>
<!-- Node14&#45;&gt;Node11 -->
<g id="edge14_Node000014_Node000011" class="edge">
<title>Node14&#45;&gt;Node11</title>
<g id="a_edge14_Node000014_Node000011"><a xlink:title=" ">
<path fill="none" stroke="#63b8ff" d="M1264.21,-80.2C1288.99,-67.04 1320.48,-50.33 1343.02,-38.38"/>
<polygon fill="#63b8ff" stroke="#63b8ff" points="1262.57,-77.1 1255.38,-84.88 1265.85,-83.28 1262.57,-77.1"/>
</a>
</g>
</g>
<!-- Node15 -->
<g id="Node000015" class="node">
<title>Node15</title>
<g id="a_Node000015"><a xlink:href="CleanUp_8cpp.html" target="_top" xlink:title=" ">
<polygon fill="white" stroke="#666666" points="1289.25,-38 1160.75,-38 1160.75,-6 1289.25,-6 1289.25,-38"/>
<text text-anchor="start" x="1168.75" y="-24.5" font-family="Helvetica,sans-Serif" font-size="10.00">src/bot_library/commands</text>
<text text-anchor="middle" x="1225" y="-12.5" font-family="Helvetica,sans-Serif" font-size="10.00">/clean_up/CleanUp.cpp</text>
</a>
</g>
</g>
<!-- Node14&#45;&gt;Node15 -->
<g id="edge15_Node000014_Node000015" class="edge">
<title>Node14&#45;&gt;Node15</title>
<g id="a_edge15_Node000014_Node000015"><a xlink:title=" ">
<path fill="none" stroke="#63b8ff" d="M1225,-74.37C1225,-62.37 1225,-48.63 1225,-38.38"/>
<polygon fill="#63b8ff" stroke="#63b8ff" points="1221.5,-74.08 1225,-84.08 1228.5,-74.08 1221.5,-74.08"/>
</a>
</g>
</g>
<!-- Node16&#45;&gt;Node11 -->
<g id="edge17_Node000016_Node000011" class="edge">
<title>Node16&#45;&gt;Node11</title>
<g id="a_edge17_Node000016_Node000011"><a xlink:title=" ">
<path fill="none" stroke="#63b8ff" d="M1451.88,-79.13C1433.41,-66.15 1410.44,-50.01 1393.88,-38.38"/>
<polygon fill="#63b8ff" stroke="#63b8ff" points="1449.64,-81.83 1459.83,-84.72 1453.66,-76.11 1449.64,-81.83"/>
</a>
</g>
</g>
<!-- Node17 -->
<g id="Node000017" class="node">
<title>Node17</title>
<g id="a_Node000017"><a xlink:href="FlipCommand_8cpp.html" target="_top" xlink:title=" ">
<polygon fill="white" stroke="#666666" points="1583.25,-38 1454.75,-38 1454.75,-6 1583.25,-6 1583.25,-38"/>
<text text-anchor="start" x="1462.75" y="-24.5" font-family="Helvetica,sans-Serif" font-size="10.00">src/bot_library/commands</text>
<text text-anchor="middle" x="1519" y="-12.5" font-family="Helvetica,sans-Serif" font-size="10.00">/flip/FlipCommand.cpp</text>
</a>
</g>
</g>
<!-- Node16&#45;&gt;Node17 -->
<g id="edge18_Node000016_Node000017" class="edge">
<title>Node16&#45;&gt;Node17</title>
<g id="a_edge18_Node000016_Node000017"><a xlink:title=" ">
<path fill="none" stroke="#63b8ff" d="M1494.78,-75.49C1500.43,-63.23 1507.02,-48.95 1511.9,-38.38"/>
<polygon fill="#63b8ff" stroke="#63b8ff" points="1491.76,-73.67 1490.75,-84.22 1498.12,-76.6 1491.76,-73.67"/>
</a>
</g>
</g>
<!-- Node18&#45;&gt;Node11 -->
<g id="edge20_Node000018_Node000011" class="edge">
<title>Node18&#45;&gt;Node11</title>
<g id="a_edge20_Node000018_Node000011"><a xlink:title=" ">
<path fill="none" stroke="#63b8ff" d="M1568.07,-82.28C1523.65,-68.85 1464.53,-50.98 1422.87,-38.38"/>
<polygon fill="#63b8ff" stroke="#63b8ff" points="1566.99,-85.61 1577.58,-85.15 1569.02,-78.91 1566.99,-85.61"/>
</a>
</g>
</g>
<!-- Node19 -->
<g id="Node000019" class="node">
<title>Node19</title>
<g id="a_Node000019"><a xlink:href="HelpCommand_8cpp.html" target="_top" xlink:title=" ">
<polygon fill="white" stroke="#666666" points="1730.25,-38 1601.75,-38 1601.75,-6 1730.25,-6 1730.25,-38"/>
<text text-anchor="start" x="1609.75" y="-24.5" font-family="Helvetica,sans-Serif" font-size="10.00">src/bot_library/commands</text>
<text text-anchor="middle" x="1666" y="-12.5" font-family="Helvetica,sans-Serif" font-size="10.00">/help/HelpCommand.cpp</text>
</a>
</g>
</g>
<!-- Node18&#45;&gt;Node19 -->
<g id="edge21_Node000018_Node000019" class="edge">
<title>Node18&#45;&gt;Node19</title>
<g id="a_edge21_Node000018_Node000019"><a xlink:title=" ">
<path fill="none" stroke="#63b8ff" d="M1641.78,-75.49C1647.43,-63.23 1654.02,-48.95 1658.9,-38.38"/>
<polygon fill="#63b8ff" stroke="#63b8ff" points="1638.76,-73.67 1637.75,-84.22 1645.12,-76.6 1638.76,-73.67"/>
</a>
</g>
</g>
<!-- Node20&#45;&gt;Node5 -->
<g id="edge23_Node000020_Node000005" class="edge">
<title>Node20&#45;&gt;Node5</title>
<g id="a_edge23_Node000020_Node000005"><a xlink:title=" ">
<path fill="none" stroke="#63b8ff" d="M267.58,-74.66C264.04,-60.11 259.85,-42.91 257.31,-32.49"/>
<polygon fill="#63b8ff" stroke="#63b8ff" points="264.12,-75.23 269.89,-84.12 270.92,-73.57 264.12,-75.23"/>
</a>
</g>
</g>
<!-- Node20&#45;&gt;Node11 -->
<g id="edge24_Node000020_Node000011" class="edge">
<title>Node20&#45;&gt;Node11</title>
<g id="a_edge24_Node000020_Node000011"><a xlink:title=" ">
<path fill="none" stroke="#63b8ff" d="M332.69,-82.79C337.5,-81.71 342.31,-80.75 347,-80 764.64,-13.04 880.24,-110.21 1298,-44 1306.44,-42.66 1315.29,-40.68 1323.81,-38.46"/>
<polygon fill="#63b8ff" stroke="#63b8ff" points="331.88,-79.39 323,-85.17 333.55,-86.19 331.88,-79.39"/>
</a>
</g>
</g>
<!-- Node22 -->
<g id="Node000022" class="node">
<title>Node22</title>
<g id="a_Node000022"><a xlink:href="InitDatabase_8cpp.html" target="_top" xlink:title=" ">
<polygon fill="white" stroke="#666666" points="154,-38 0,-38 0,-6 154,-6 154,-38"/>
<text text-anchor="start" x="8" y="-24.5" font-family="Helvetica,sans-Serif" font-size="10.00">src/bot_library/commands</text>
<text text-anchor="middle" x="77" y="-12.5" font-family="Helvetica,sans-Serif" font-size="10.00">/init_database/InitDatabase.cpp</text>
</a>
</g>
</g>
<!-- Node21&#45;&gt;Node22 -->
<g id="edge26_Node000021_Node000022" class="edge">
<title>Node21&#45;&gt;Node22</title>
<g id="a_edge26_Node000021_Node000022"><a xlink:title=" ">
<path fill="none" stroke="#63b8ff" d="M77,-74.37C77,-62.37 77,-48.63 77,-38.38"/>
<polygon fill="#63b8ff" stroke="#63b8ff" points="73.5,-74.08 77,-84.08 80.5,-74.08 73.5,-74.08"/>
</a>
</g>
</g>
<!-- Node23&#45;&gt;Node11 -->
<g id="edge28_Node000023_Node000011" class="edge">
<title>Node23&#45;&gt;Node11</title>
<g id="a_edge28_Node000023_Node000011"><a xlink:title=" ">
<path fill="none" stroke="#63b8ff" d="M1715.4,-82.77C1711.22,-81.78 1707.06,-80.84 1703,-80 1590.06,-56.59 1558.86,-67.8 1446,-44 1438.55,-42.43 1430.75,-40.52 1423.13,-38.49"/>
<polygon fill="#63b8ff" stroke="#63b8ff" points="1714.46,-86.15 1725.01,-85.16 1716.15,-79.35 1714.46,-86.15"/>
</a>
</g>
</g>
<!-- Node24 -->
<g id="Node000024" class="node">
<title>Node24</title>
<g id="a_Node000024"><a xlink:href="InviteCommand_8cpp.html" target="_top" xlink:title=" ">
<polygon fill="white" stroke="#666666" points="1881.5,-38 1748.5,-38 1748.5,-6 1881.5,-6 1881.5,-38"/>
<text text-anchor="start" x="1756.5" y="-24.5" font-family="Helvetica,sans-Serif" font-size="10.00">src/bot_library/commands</text>
<text text-anchor="middle" x="1815" y="-12.5" font-family="Helvetica,sans-Serif" font-size="10.00">/invite/InviteCommand.cpp</text>
</a>
</g>
</g>
<!-- Node23&#45;&gt;Node24 -->
<g id="edge29_Node000023_Node000024" class="edge">
<title>Node23&#45;&gt;Node24</title>
<g id="a_edge29_Node000023_Node000024"><a xlink:title=" ">
<path fill="none" stroke="#63b8ff" d="M1790.78,-75.49C1796.43,-63.23 1803.02,-48.95 1807.9,-38.38"/>
<polygon fill="#63b8ff" stroke="#63b8ff" points="1787.76,-73.67 1786.75,-84.22 1794.12,-76.6 1787.76,-73.67"/>
</a>
</g>
</g>
<!-- Node25&#45;&gt;Node11 -->
<g id="edge31_Node000025_Node000011" class="edge">
<title>Node25&#45;&gt;Node11</title>
<g id="a_edge31_Node000025_Node000011"><a xlink:title=" ">
<path fill="none" stroke="#63b8ff" d="M2066.24,-83.22C2060.1,-81.99 2053.95,-80.89 2048,-80 1782.91,-40.4 1710.25,-88.85 1446,-44 1437.71,-42.59 1429.01,-40.61 1420.62,-38.41"/>
<polygon fill="#63b8ff" stroke="#63b8ff" points="2065.26,-86.59 2075.77,-85.24 2066.71,-79.74 2065.26,-86.59"/>
</a>
</g>
</g>
<!-- Node25&#45;&gt;Node26 -->
<g id="edge32_Node000025_Node000026" class="edge">
<title>Node25&#45;&gt;Node26</title>
<g id="a_edge32_Node000025_Node000026"><a xlink:title=" ">
<path fill="none" stroke="#63b8ff" d="M2193.62,-82.11C2235.22,-68.7 2290.37,-50.92 2329.29,-38.38"/>
<polygon fill="#63b8ff" stroke="#63b8ff" points="2192.7,-78.73 2184.25,-85.13 2194.84,-85.39 2192.7,-78.73"/>
</a>
</g>
</g>
<!-- Node27&#45;&gt;Node11 -->
<g id="edge34_Node000027_Node000011" class="edge">
<title>Node27&#45;&gt;Node11</title>
<g id="a_edge34_Node000027_Node000011"><a xlink:title=" ">
<path fill="none" stroke="#63b8ff" d="M480.1,-82.92C485.11,-81.79 490.12,-80.79 495,-80 847.65,-22.85 945.35,-101.15 1298,-44 1306.44,-42.63 1315.28,-40.64 1323.8,-38.41"/>
<polygon fill="#63b8ff" stroke="#63b8ff" points="479.55,-79.46 470.67,-85.23 481.22,-86.26 479.55,-79.46"/>
</a>
</g>
</g>
<!-- Node28 -->
<g id="Node000028" class="node">
<title>Node28</title>
<g id="a_Node000028"><a xlink:href="PongCommand_8cpp.html" target="_top" xlink:title=" ">
<polygon fill="white" stroke="#666666" points="485.62,-38 356.38,-38 356.38,-6 485.62,-6 485.62,-38"/>
<text text-anchor="start" x="364.38" y="-24.5" font-family="Helvetica,sans-Serif" font-size="10.00">src/bot_library/commands</text>
<text text-anchor="middle" x="421" y="-12.5" font-family="Helvetica,sans-Serif" font-size="10.00">/pong/PongCommand.cpp</text>
</a>
</g>
</g>
<!-- Node27&#45;&gt;Node28 -->
<g id="edge35_Node000027_Node000028" class="edge">
<title>Node27&#45;&gt;Node28</title>
<g id="a_edge35_Node000027_Node000028"><a xlink:title=" ">
<path fill="none" stroke="#63b8ff" d="M421,-74.37C421,-62.37 421,-48.63 421,-38.38"/>
<polygon fill="#63b8ff" stroke="#63b8ff" points="417.5,-74.08 421,-84.08 424.5,-74.08 417.5,-74.08"/>
</a>
</g>
</g>
<!-- Node29&#45;&gt;Node11 -->
<g id="edge37_Node000029_Node000011" class="edge">
<title>Node29&#45;&gt;Node11</title>
<g id="a_edge37_Node000029_Node000011"><a xlink:title=" ">
<path fill="none" stroke="#63b8ff" d="M659.25,-83.32C665.9,-82.05 672.56,-80.92 679,-80 951.83,-41.2 1026.27,-89.89 1298,-44 1306.3,-42.6 1314.99,-40.62 1323.38,-38.42"/>
<polygon fill="#63b8ff" stroke="#63b8ff" points="658.7,-79.86 649.58,-85.26 660.08,-86.72 658.7,-79.86"/>
</a>
</g>
</g>
<!-- Node30 -->
<g id="Node000030" class="node">
<title>Node30</title>
<g id="a_Node000030"><a xlink:href="ReactionRoles_8cpp.html" target="_top" xlink:title=" ">
<polygon fill="white" stroke="#666666" points="670,-38 504,-38 504,-6 670,-6 670,-38"/>
<text text-anchor="start" x="512" y="-24.5" font-family="Helvetica,sans-Serif" font-size="10.00">src/bot_library/commands</text>
<text text-anchor="middle" x="587" y="-12.5" font-family="Helvetica,sans-Serif" font-size="10.00">/reaction_roles/ReactionRoles.cpp</text>
</a>
</g>
</g>
<!-- Node29&#45;&gt;Node30 -->
<g id="edge38_Node000029_Node000030" class="edge">
<title>Node29&#45;&gt;Node30</title>
<g id="a_edge38_Node000029_Node000030"><a xlink:title=" ">
<path fill="none" stroke="#63b8ff" d="M587,-74.37C587,-62.37 587,-48.63 587,-38.38"/>
<polygon fill="#63b8ff" stroke="#63b8ff" points="583.5,-74.08 587,-84.08 590.5,-74.08 583.5,-74.08"/>
</a>
</g>
</g>
<!-- Node31&#45;&gt;Node11 -->
<g id="edge40_Node000031_Node000011" class="edge">
<title>Node31&#45;&gt;Node11</title>
<g id="a_edge40_Node000031_Node000011"><a xlink:title=" ">
<path fill="none" stroke="#63b8ff" d="M1874.55,-83.36C1867.96,-82.12 1861.37,-80.97 1855,-80 1674.61,-52.45 1625.46,-77.06 1446,-44 1437.99,-42.52 1429.59,-40.56 1421.45,-38.42"/>
<polygon fill="#63b8ff" stroke="#63b8ff" points="1873.65,-86.75 1884.14,-85.24 1875,-79.88 1873.65,-86.75"/>
</a>
</g>
</g>
<!-- Node31&#45;&gt;Node32 -->
<g id="edge41_Node000031_Node000032" class="edge">
<title>Node31&#45;&gt;Node32</title>
<g id="a_edge41_Node000031_Node000032"><a xlink:title=" ">
<path fill="none" stroke="#63b8ff" d="M2009.62,-82.11C2051.22,-68.7 2106.37,-50.92 2145.29,-38.38"/>
<polygon fill="#63b8ff" stroke="#63b8ff" points="2008.7,-78.73 2000.25,-85.13 2010.84,-85.39 2008.7,-78.73"/>
</a>
</g>
</g>
<!-- Node33&#45;&gt;Node11 -->
<g id="edge43_Node000033_Node000011" class="edge">
<title>Node33&#45;&gt;Node11</title>
<g id="a_edge43_Node000033_Node000011"><a xlink:title=" ">
<path fill="none" stroke="#63b8ff" d="M811.99,-82.89C816.71,-81.8 821.41,-80.82 826,-80 1033.13,-43.1 1090.87,-80.9 1298,-44 1306.15,-42.55 1314.69,-40.57 1322.96,-38.4"/>
<polygon fill="#63b8ff" stroke="#63b8ff" points="811.37,-79.44 802.51,-85.24 813.05,-86.23 811.37,-79.44"/>
</a>
</g>
</g>
<!-- Node34 -->
<g id="Node000034" class="node">
<title>Node34</title>
<g id="a_Node000034"><a xlink:href="RollCommand_8cpp.html" target="_top" xlink:title=" ">
<polygon fill="white" stroke="#666666" points="816.25,-38 687.75,-38 687.75,-6 816.25,-6 816.25,-38"/>
<text text-anchor="start" x="695.75" y="-24.5" font-family="Helvetica,sans-Serif" font-size="10.00">src/bot_library/commands</text>
<text text-anchor="middle" x="752" y="-12.5" font-family="Helvetica,sans-Serif" font-size="10.00">/roll/RollCommand.cpp</text>
</a>
</g>
</g>
<!-- Node33&#45;&gt;Node34 -->
<g id="edge44_Node000033_Node000034" class="edge">
<title>Node33&#45;&gt;Node34</title>
<g id="a_edge44_Node000033_Node000034"><a xlink:title=" ">
<path fill="none" stroke="#63b8ff" d="M752,-74.37C752,-62.37 752,-48.63 752,-38.38"/>
<polygon fill="#63b8ff" stroke="#63b8ff" points="748.5,-74.08 752,-84.08 755.5,-74.08 748.5,-74.08"/>
</a>
</g>
</g>
<!-- Node35&#45;&gt;Node11 -->
<g id="edge46_Node000035_Node000011" class="edge">
<title>Node35&#45;&gt;Node11</title>
<g id="a_edge46_Node000035_Node000011"><a xlink:title=" ">
<path fill="none" stroke="#63b8ff" d="M987.8,-83.14C993.26,-82.01 998.71,-80.94 1004,-80 1133.59,-56.85 1168.96,-70.05 1298,-44 1305.72,-42.44 1313.82,-40.49 1321.7,-38.4"/>
<polygon fill="#63b8ff" stroke="#63b8ff" points="987.1,-79.71 978.06,-85.23 988.57,-86.55 987.1,-79.71"/>
</a>
</g>
</g>
<!-- Node36 -->
<g id="Node000036" class="node">
<title>Node36</title>
<g id="a_Node000036"><a xlink:href="ServerDetails_8cpp.html" target="_top" xlink:title=" ">
<polygon fill="white" stroke="#666666" points="995.38,-38 834.62,-38 834.62,-6 995.38,-6 995.38,-38"/>
<text text-anchor="start" x="842.62" y="-24.5" font-family="Helvetica,sans-Serif" font-size="10.00">src/bot_library/commands</text>
<text text-anchor="middle" x="915" y="-12.5" font-family="Helvetica,sans-Serif" font-size="10.00">/server_details/ServerDetails.cpp</text>
</a>
</g>
</g>
<!-- Node35&#45;&gt;Node36 -->
<g id="edge47_Node000035_Node000036" class="edge">
<title>Node35&#45;&gt;Node36</title>
<g id="a_edge47_Node000035_Node000036"><a xlink:title=" ">
<path fill="none" stroke="#63b8ff" d="M915,-74.37C915,-62.37 915,-48.63 915,-38.38"/>
<polygon fill="#63b8ff" stroke="#63b8ff" points="911.5,-74.08 915,-84.08 918.5,-74.08 911.5,-74.08"/>
</a>
</g>
</g>
<!-- Node37&#45;&gt;Node11 -->
<g id="edge49_Node000037_Node000011" class="edge">
<title>Node37&#45;&gt;Node11</title>
<g id="a_edge49_Node000037_Node000011"><a xlink:title=" ">
<path fill="none" stroke="#63b8ff" d="M2245.66,-83.51C2237.69,-82.16 2229.7,-80.95 2222,-80 1879.34,-37.71 1786.77,-99.5 1446,-44 1437.56,-42.63 1428.72,-40.63 1420.2,-38.4"/>
<polygon fill="#63b8ff" stroke="#63b8ff" points="2244.92,-86.94 2255.38,-85.24 2246.15,-80.04 2244.92,-86.94"/>
</a>
</g>
</g>
<!-- Node37&#45;&gt;Node38 -->
<g id="edge50_Node000037_Node000038" class="edge">
<title>Node37&#45;&gt;Node38</title>
<g id="a_edge50_Node000037_Node000038"><a xlink:title=" ">
<path fill="none" stroke="#63b8ff" d="M2384.62,-82.11C2426.22,-68.7 2481.37,-50.92 2520.29,-38.38"/>
<polygon fill="#63b8ff" stroke="#63b8ff" points="2383.7,-78.73 2375.25,-85.13 2385.84,-85.39 2383.7,-78.73"/>
</a>
</g>
</g>
<!-- Node39&#45;&gt;Node11 -->
<g id="edge52_Node000039_Node000011" class="edge">
<title>Node39&#45;&gt;Node11</title>
<g id="a_edge52_Node000039_Node000011"><a xlink:title=" ">
<path fill="none" stroke="#63b8ff" d="M1142.57,-82.53C1145.76,-81.67 1148.91,-80.82 1152,-80 1216.6,-62.87 1233.4,-61.13 1298,-44 1304.58,-42.25 1311.48,-40.37 1318.31,-38.47"/>
<polygon fill="#63b8ff" stroke="#63b8ff" points="1141.87,-79.1 1133.15,-85.12 1143.72,-85.85 1141.87,-79.1"/>
</a>
</g>
</g>
<!-- Node40 -->
<g id="Node000040" class="node">
<title>Node40</title>
<g id="a_Node000040"><a xlink:href="SetStatus_8cpp.html" target="_top" xlink:title=" ">
<polygon fill="white" stroke="#666666" points="1143,-38 1013,-38 1013,-6 1143,-6 1143,-38"/>
<text text-anchor="start" x="1021" y="-24.5" font-family="Helvetica,sans-Serif" font-size="10.00">src/bot_library/commands</text>
<text text-anchor="middle" x="1078" y="-12.5" font-family="Helvetica,sans-Serif" font-size="10.00">/set_status/SetStatus.cpp</text>
</a>
</g>
</g>
<!-- Node39&#45;&gt;Node40 -->
<g id="edge53_Node000039_Node000040" class="edge">
<title>Node39&#45;&gt;Node40</title>
<g id="a_edge53_Node000039_Node000040"><a xlink:title=" ">
<path fill="none" stroke="#63b8ff" d="M1078,-74.37C1078,-62.37 1078,-48.63 1078,-38.38"/>
<polygon fill="#63b8ff" stroke="#63b8ff" points="1074.5,-74.08 1078,-84.08 1081.5,-74.08 1074.5,-74.08"/>
</a>
</g>
</g>
</g>
</svg>
