<?xml version="1.0" encoding="UTF-8" standalone="no"?>
<!DOCTYPE svg PUBLIC "-//W3C//DTD SVG 1.1//EN"
 "http://www.w3.org/Graphics/SVG/1.1/DTD/svg11.dtd">
<!-- Generated by graphviz version 14.1.5 (0)
 -->
<!-- Title: Graphical Class Hierarchy Pages: 1 -->
<svg width="481pt" height="90pt"
 viewBox="0.00 0.00 481.00 90.00" xmlns="http://www.w3.org/2000/svg" xmlns:xlink="http://www.w3.org/1999/xlink">
<g id="graph0" class="graph" transform="scale(1 1) rotate(0) translate(4 86)">
<title>Graphical Class Hierarchy</title>
<!-- Node0 -->
<g id="Node000000" class="node">
<title>Node0</title>
<g id="a_Node000000"><a xlink:href="classIRepositoryReader.html" target="_top" xlink:title=" ">
<polygon fill="white" stroke="#666666" points="120.25,-82 0,-82 0,-50 120.25,-50 120.25,-82"/>
<text xml:space="preserve" text-anchor="start" x="8" y="-68.5" font-family="Helvetica,sans-Serif" font-size="10.00">IRepositoryReader&lt;</text>
<text xml:space="preserve" text-anchor="middle" x="60.12" y="-56.5" font-family="Helvetica,sans-Serif" font-size="10.00"> ChallengeBadgeDTO &gt;</text>
</a>
</g>
</g>
<!-- Node1 -->
<g id="Node000001" class="node">
<title>Node1</title>
<g id="a_Node000001"><a xlink:href="classIRepository.html" target="_top" xlink:title=" ">
<polygon fill="white" stroke="#666666" points="302.75,-57 156.25,-57 156.25,-25 302.75,-25 302.75,-57"/>
<text xml:space="preserve" text-anchor="start" x="164.25" y="-43.5" font-family="Helvetica,sans-Serif" font-size="10.00">IRepository&lt; ChallengeBadge</text>
<text xml:space="preserve" text-anchor="middle" x="229.5" y="-31.5" font-family="Helvetica,sans-Serif" font-size="10.00">DTO &gt;</text>
</a>
</g>
</g>
<!-- Node0&#45;&gt;Node1 -->
<g id="edge39_Node000000_Node000001" class="edge">
<title>Node0&#45;&gt;Node1</title>
<g id="a_edge39_Node000000_Node000001"><a xlink:title=" ">
<path fill="none" stroke="#63b8ff" d="M131.79,-55.44C139.81,-54.25 147.98,-53.03 156.02,-51.83"/>
<polygon fill="#63b8ff" stroke="#63b8ff" points="131.48,-51.95 122.1,-56.89 132.51,-58.88 131.48,-51.95"/>
</a>
</g>
</g>
<!-- Node2 -->
<g id="Node000002" class="node">
<title>Node2</title>
<g id="a_Node000002"><a xlink:href="classChallengeBadgeRepository.html" target="_top" xlink:title=" ">
<polygon fill="white" stroke="#666666" points="473.25,-51 338.75,-51 338.75,-31 473.25,-31 473.25,-51"/>
<text xml:space="preserve" text-anchor="middle" x="406" y="-37.5" font-family="Helvetica,sans-Serif" font-size="10.00">ChallengeBadgeRepository</text>
</a>
</g>
</g>
<!-- Node1&#45;&gt;Node2 -->
<g id="edge40_Node000001_Node000002" class="edge">
<title>Node1&#45;&gt;Node2</title>
<g id="a_edge40_Node000001_Node000002"><a xlink:title=" ">
<path fill="none" stroke="#63b8ff" d="M314.55,-41C322.59,-41 330.67,-41 338.51,-41"/>
<polygon fill="#63b8ff" stroke="#63b8ff" points="314.75,-37.5 304.75,-41 314.75,-44.5 314.75,-37.5"/>
</a>
</g>
</g>
<!-- Node3 -->
<g id="Node000003" class="node">
<title>Node3</title>
<g id="a_Node000003"><a xlink:href="classIRepositoryWriter.html" target="_top" xlink:title=" ">
<polygon fill="white" stroke="#666666" points="120.25,-32 0,-32 0,0 120.25,0 120.25,-32"/>
<text xml:space="preserve" text-anchor="start" x="8" y="-18.5" font-family="Helvetica,sans-Serif" font-size="10.00">IRepositoryWriter&lt;</text>
<text xml:space="preserve" text-anchor="middle" x="60.12" y="-6.5" font-family="Helvetica,sans-Serif" font-size="10.00"> ChallengeBadgeDTO &gt;</text>
</a>
</g>
</g>
<!-- Node3&#45;&gt;Node1 -->
<g id="edge41_Node000003_Node000001" class="edge">
<title>Node3&#45;&gt;Node1</title>
<g id="a_edge41_Node000003_Node000001"><a xlink:title=" ">
<path fill="none" stroke="#63b8ff" d="M131.79,-26.56C139.81,-27.75 147.98,-28.97 156.02,-30.17"/>
<polygon fill="#63b8ff" stroke="#63b8ff" points="132.51,-23.12 122.1,-25.11 131.48,-30.05 132.51,-23.12"/>
</a>
</g>
</g>
</g>
</svg>
