<?xml version="1.0" encoding="UTF-8" standalone="no"?>
<!DOCTYPE svg PUBLIC "-//W3C//DTD SVG 1.1//EN"
 "http://www.w3.org/Graphics/SVG/1.1/DTD/svg11.dtd">
<!-- Generated by graphviz version 14.1.5 (0)
 -->
<!-- Title: Graphical Class Hierarchy Pages: 1 -->
<svg width="421pt" height="90pt"
 viewBox="0.00 0.00 421.00 90.00" xmlns="http://www.w3.org/2000/svg" xmlns:xlink="http://www.w3.org/1999/xlink">
<g id="graph0" class="graph" transform="scale(1 1) rotate(0) translate(4 86)">
<title>Graphical Class Hierarchy</title>
<!-- Node0 -->
<g id="Node000000" class="node">
<title>Node0</title>
<g id="a_Node000000"><a xlink:href="classIRepositoryReader.html" target="_top" xlink:title=" ">
<polygon fill="white" stroke="#666666" points="103.75,-82 0,-82 0,-50 103.75,-50 103.75,-82"/>
<text xml:space="preserve" text-anchor="start" x="8" y="-68.5" font-family="Helvetica,sans-Serif" font-size="10.00">IRepositoryReader&lt;</text>
<text xml:space="preserve" text-anchor="middle" x="51.88" y="-56.5" font-family="Helvetica,sans-Serif" font-size="10.00"> NotificationDTO &gt;</text>
</a>
</g>
</g>
<!-- Node1 -->
<g id="Node000001" class="node">
<title>Node1</title>
<g id="a_Node000001"><a xlink:href="classIRepository.html" target="_top" xlink:title=" ">
<polygon fill="white" stroke="#666666" points="264.5,-57 139.75,-57 139.75,-25 264.5,-25 264.5,-57"/>
<text xml:space="preserve" text-anchor="start" x="147.75" y="-43.5" font-family="Helvetica,sans-Serif" font-size="10.00">IRepository&lt; Notification</text>
<text xml:space="preserve" text-anchor="middle" x="202.12" y="-31.5" font-family="Helvetica,sans-Serif" font-size="10.00">DTO &gt;</text>
</a>
</g>
</g>
<!-- Node0&#45;&gt;Node1 -->
<g id="edge47_Node000000_Node000001" class="edge">
<title>Node0&#45;&gt;Node1</title>
<g id="a_edge47_Node000000_Node000001"><a xlink:title=" ">
<path fill="none" stroke="#63b8ff" d="M115.05,-55.52C123.06,-54.16 131.26,-52.78 139.26,-51.43"/>
<polygon fill="#63b8ff" stroke="#63b8ff" points="114.67,-52.03 105.39,-57.14 115.83,-58.93 114.67,-52.03"/>
</a>
</g>
</g>
<!-- Node2 -->
<g id="Node000002" class="node">
<title>Node2</title>
<g id="a_Node000002"><a xlink:href="classNotificationRepository.html" target="_top" xlink:title=" ">
<polygon fill="white" stroke="#666666" points="413.25,-51 300.5,-51 300.5,-31 413.25,-31 413.25,-51"/>
<text xml:space="preserve" text-anchor="middle" x="356.88" y="-37.5" font-family="Helvetica,sans-Serif" font-size="10.00">NotificationRepository</text>
</a>
</g>
</g>
<!-- Node1&#45;&gt;Node2 -->
<g id="edge48_Node000001_Node000002" class="edge">
<title>Node1&#45;&gt;Node2</title>
<g id="a_edge48_Node000001_Node000002"><a xlink:title=" ">
<path fill="none" stroke="#63b8ff" d="M276.22,-41C284.34,-41 292.51,-41 300.36,-41"/>
<polygon fill="#63b8ff" stroke="#63b8ff" points="276.33,-37.5 266.33,-41 276.33,-44.5 276.33,-37.5"/>
</a>
</g>
</g>
<!-- Node3 -->
<g id="Node000003" class="node">
<title>Node3</title>
<g id="a_Node000003"><a xlink:href="classIRepositoryWriter.html" target="_top" xlink:title=" ">
<polygon fill="white" stroke="#666666" points="101.12,-32 2.62,-32 2.62,0 101.12,0 101.12,-32"/>
<text xml:space="preserve" text-anchor="start" x="10.62" y="-18.5" font-family="Helvetica,sans-Serif" font-size="10.00">IRepositoryWriter&lt;</text>
<text xml:space="preserve" text-anchor="middle" x="51.88" y="-6.5" font-family="Helvetica,sans-Serif" font-size="10.00"> NotificationDTO &gt;</text>
</a>
</g>
</g>
<!-- Node3&#45;&gt;Node1 -->
<g id="edge49_Node000003_Node000001" class="edge">
<title>Node3&#45;&gt;Node1</title>
<g id="a_edge49_Node000003_Node000001"><a xlink:title=" ">
<path fill="none" stroke="#63b8ff" d="M112.48,-26.05C121.37,-27.55 130.56,-29.1 139.49,-30.61"/>
<polygon fill="#63b8ff" stroke="#63b8ff" points="113.35,-22.65 102.91,-24.44 112.19,-29.55 113.35,-22.65"/>
</a>
</g>
</g>
</g>
</svg>
