<?xml version="1.0" encoding="UTF-8" standalone="no"?>
<!DOCTYPE svg PUBLIC "-//W3C//DTD SVG 1.1//EN"
 "http://www.w3.org/Graphics/SVG/1.1/DTD/svg11.dtd">
<!-- Generated by graphviz version 10.0.1 (0)
 -->
<!-- Title: Graphical Class Hierarchy Pages: 1 -->
<svg width="293pt" height="636pt"
 viewBox="0.00 0.00 292.75 636.00" xmlns="http://www.w3.org/2000/svg" xmlns:xlink="http://www.w3.org/1999/xlink">
<g id="graph0" class="graph" transform="scale(1 1) rotate(0) translate(4 632)">
<title>Graphical Class Hierarchy</title>
<!-- Node0 -->
<g id="Node000000" class="node">
<title>Node0</title>
<g id="a_Node000000"><a xlink:href="classIButtonCommand.html" target="_top" xlink:title=" ">
<polygon fill="white" stroke="#666666" points="104.5,-628 12,-628 12,-608 104.5,-608 104.5,-628"/>
<text text-anchor="middle" x="58.25" y="-614.5" font-family="Helvetica,sans-Serif" font-size="10.00">IButtonCommand</text>
</a>
</g>
</g>
<!-- Node1 -->
<g id="Node000001" class="node">
<title>Node1</title>
<g id="a_Node000001"><a xlink:href="classChallengeBadgeCommand.html" target="_top" xlink:title=" ">
<polygon fill="white" stroke="#666666" points="284.75,-590 152.5,-590 152.5,-570 284.75,-570 284.75,-590"/>
<text text-anchor="middle" x="218.62" y="-576.5" font-family="Helvetica,sans-Serif" font-size="10.00">ChallengeBadgeCommand</text>
</a>
</g>
</g>
<!-- Node0&#45;&gt;Node1 -->
<g id="edge1_Node000000_Node000001" class="edge">
<title>Node0&#45;&gt;Node1</title>
<g id="a_edge1_Node000000_Node000001"><a xlink:title=" ">
<path fill="none" stroke="#63b8ff" d="M113.91,-604.88C133.58,-600.17 155.48,-594.91 174.07,-590.45"/>
<polygon fill="#63b8ff" stroke="#63b8ff" points="113.33,-601.43 104.42,-607.16 114.96,-608.23 113.33,-601.43"/>
</a>
</g>
</g>
<!-- Node3 -->
<g id="Node000003" class="node">
<title>Node3</title>
<g id="a_Node000003"><a xlink:href="classChallengeRoleCommand.html" target="_top" xlink:title=" ">
<polygon fill="white" stroke="#666666" points="281,-628 156.25,-628 156.25,-608 281,-608 281,-628"/>
<text text-anchor="middle" x="218.62" y="-614.5" font-family="Helvetica,sans-Serif" font-size="10.00">ChallengeRoleCommand</text>
</a>
</g>
</g>
<!-- Node0&#45;&gt;Node3 -->
<g id="edge2_Node000000_Node000003" class="edge">
<title>Node0&#45;&gt;Node3</title>
<g id="a_edge2_Node000000_Node000003"><a xlink:title=" ">
<path fill="none" stroke="#63b8ff" d="M115.82,-618C128.85,-618 142.77,-618 156,-618"/>
<polygon fill="#63b8ff" stroke="#63b8ff" points="116.15,-614.5 106.15,-618 116.15,-621.5 116.15,-614.5"/>
</a>
</g>
</g>
<!-- Node2 -->
<g id="Node000002" class="node">
<title>Node2</title>
<g id="a_Node000002"><a xlink:href="classIFormCommand.html" target="_top" xlink:title=" ">
<polygon fill="white" stroke="#666666" points="101.5,-590 15,-590 15,-570 101.5,-570 101.5,-590"/>
<text text-anchor="middle" x="58.25" y="-576.5" font-family="Helvetica,sans-Serif" font-size="10.00">IFormCommand</text>
</a>
</g>
</g>
<!-- Node2&#45;&gt;Node1 -->
<g id="edge3_Node000002_Node000001" class="edge">
<title>Node2&#45;&gt;Node1</title>
<g id="a_edge3_Node000002_Node000001"><a xlink:title=" ">
<path fill="none" stroke="#63b8ff" d="M112.93,-580C125.52,-580 139.06,-580 152.09,-580"/>
<polygon fill="#63b8ff" stroke="#63b8ff" points="113.21,-576.5 103.21,-580 113.21,-583.5 113.21,-576.5"/>
</a>
</g>
</g>
<!-- Node2&#45;&gt;Node3 -->
<g id="edge4_Node000002_Node000003" class="edge">
<title>Node2&#45;&gt;Node3</title>
<g id="a_edge4_Node000002_Node000003"><a xlink:title=" ">
<path fill="none" stroke="#63b8ff" d="M112.78,-592.84C132.69,-597.62 155.04,-602.98 173.96,-607.52"/>
<polygon fill="#63b8ff" stroke="#63b8ff" points="113.7,-589.47 103.16,-590.54 112.07,-596.27 113.7,-589.47"/>
</a>
</g>
</g>
<!-- Node4 -->
<g id="Node000004" class="node">
<title>Node4</title>
<g id="a_Node000004"><a xlink:href="classIGlobalSlashCommand.html" target="_top" xlink:title=" ">
<polygon fill="white" stroke="#666666" points="116.5,-343 0,-343 0,-323 116.5,-323 116.5,-343"/>
<text text-anchor="middle" x="58.25" y="-329.5" font-family="Helvetica,sans-Serif" font-size="10.00">IGlobalSlashCommand</text>
</a>
</g>
</g>
<!-- Node4&#45;&gt;Node1 -->
<g id="edge5_Node000004_Node000001" class="edge">
<title>Node4&#45;&gt;Node1</title>
<g id="a_edge5_Node000004_Node000001"><a xlink:title=" ">
<path fill="none" stroke="#63b8ff" d="M61.85,-354.75C68.42,-399.98 89.9,-504.61 152.5,-561 156.35,-564.47 160.8,-567.31 165.53,-569.63"/>
<polygon fill="#63b8ff" stroke="#63b8ff" points="65.33,-354.38 60.54,-344.93 58.39,-355.31 65.33,-354.38"/>
</a>
</g>
</g>
<!-- Node4&#45;&gt;Node3 -->
<g id="edge6_Node000004_Node000003" class="edge">
<title>Node4&#45;&gt;Node3</title>
<g id="a_edge6_Node000004_Node000003"><a xlink:title=" ">
<path fill="none" stroke="#63b8ff" d="M60.4,-354.84C64.27,-405.36 80.95,-531.17 152.5,-599 156.09,-602.4 160.25,-605.2 164.71,-607.5"/>
<polygon fill="#63b8ff" stroke="#63b8ff" points="63.9,-354.7 59.76,-344.95 56.92,-355.16 63.9,-354.7"/>
</a>
</g>
</g>
<!-- Node5 -->
<g id="Node000005" class="node">
<title>Node5</title>
<g id="a_Node000005"><a xlink:href="classFlipCommand.html" target="_top" xlink:title=" ">
<polygon fill="white" stroke="#666666" points="257,-286 180.25,-286 180.25,-266 257,-266 257,-286"/>
<text text-anchor="middle" x="218.62" y="-272.5" font-family="Helvetica,sans-Serif" font-size="10.00">FlipCommand</text>
</a>
</g>
</g>
<!-- Node4&#45;&gt;Node5 -->
<g id="edge7_Node000004_Node000005" class="edge">
<title>Node4&#45;&gt;Node5</title>
<g id="a_edge7_Node000004_Node000005"><a xlink:title=" ">
<path fill="none" stroke="#63b8ff" d="M93.07,-318.23C110.63,-310.82 132.54,-301.96 152.5,-295 161.29,-291.94 170.85,-288.96 179.88,-286.3"/>
<polygon fill="#63b8ff" stroke="#63b8ff" points="91.97,-314.9 84.15,-322.04 94.72,-321.34 91.97,-314.9"/>
</a>
</g>
</g>
<!-- Node6 -->
<g id="Node000006" class="node">
<title>Node6</title>
<g id="a_Node000006"><a xlink:href="classHelpCommand.html" target="_top" xlink:title=" ">
<polygon fill="white" stroke="#666666" points="259.25,-248 178,-248 178,-228 259.25,-228 259.25,-248"/>
<text text-anchor="middle" x="218.62" y="-234.5" font-family="Helvetica,sans-Serif" font-size="10.00">HelpCommand</text>
</a>
</g>
</g>
<!-- Node4&#45;&gt;Node6 -->
<g id="edge8_Node000004_Node000006" class="edge">
<title>Node4&#45;&gt;Node6</title>
<g id="a_edge8_Node000004_Node000006"><a xlink:title=" ">
<path fill="none" stroke="#63b8ff" d="M76.9,-314.9C94.57,-297.74 123.27,-272.36 152.5,-257 160.32,-252.89 169.15,-249.56 177.72,-246.9"/>
<polygon fill="#63b8ff" stroke="#63b8ff" points="74.86,-311.99 70.23,-321.52 79.79,-316.96 74.86,-311.99"/>
</a>
</g>
</g>
<!-- Node7 -->
<g id="Node000007" class="node">
<title>Node7</title>
<g id="a_Node000007"><a xlink:href="classInviteCommand.html" target="_top" xlink:title=" ">
<polygon fill="white" stroke="#666666" points="261.12,-210 176.12,-210 176.12,-190 261.12,-190 261.12,-210"/>
<text text-anchor="middle" x="218.62" y="-196.5" font-family="Helvetica,sans-Serif" font-size="10.00">InviteCommand</text>
</a>
</g>
</g>
<!-- Node4&#45;&gt;Node7 -->
<g id="edge9_Node000004_Node000007" class="edge">
<title>Node4&#45;&gt;Node7</title>
<g id="a_edge9_Node000004_Node000007"><a xlink:title=" ">
<path fill="none" stroke="#63b8ff" d="M70.37,-313.02C85.61,-287.46 115.37,-243.57 152.5,-219 159.47,-214.39 167.59,-210.87 175.68,-208.2"/>
<polygon fill="#63b8ff" stroke="#63b8ff" points="67.48,-311.02 65.51,-321.43 73.54,-314.52 67.48,-311.02"/>
</a>
</g>
</g>
<!-- Node8 -->
<g id="Node000008" class="node">
<title>Node8</title>
<g id="a_Node000008"><a xlink:href="classMemberCommand.html" target="_top" xlink:title=" ">
<polygon fill="white" stroke="#666666" points="266.75,-172 170.5,-172 170.5,-152 266.75,-152 266.75,-172"/>
<text text-anchor="middle" x="218.62" y="-158.5" font-family="Helvetica,sans-Serif" font-size="10.00">MemberCommand</text>
</a>
</g>
</g>
<!-- Node4&#45;&gt;Node8 -->
<g id="edge10_Node000004_Node000008" class="edge">
<title>Node4&#45;&gt;Node8</title>
<g id="a_edge10_Node000004_Node000008"><a xlink:title=" ">
<path fill="none" stroke="#63b8ff" d="M66.41,-312.09C78.75,-279.22 107.14,-215.64 152.5,-181 157.74,-177 163.81,-173.84 170.08,-171.34"/>
<polygon fill="#63b8ff" stroke="#63b8ff" points="63.2,-310.68 63.11,-321.28 69.79,-313.05 63.2,-310.68"/>
</a>
</g>
</g>
<!-- Node9 -->
<g id="Node000009" class="node">
<title>Node9</title>
<g id="a_Node000009"><a xlink:href="classProductsCommand.html" target="_top" xlink:title=" ">
<polygon fill="white" stroke="#666666" points="268.62,-552 168.62,-552 168.62,-532 268.62,-532 268.62,-552"/>
<text text-anchor="middle" x="218.62" y="-538.5" font-family="Helvetica,sans-Serif" font-size="10.00">ProductsCommand</text>
</a>
</g>
</g>
<!-- Node4&#45;&gt;Node9 -->
<g id="edge11_Node000004_Node000009" class="edge">
<title>Node4&#45;&gt;Node9</title>
<g id="a_edge11_Node000004_Node000009"><a xlink:title=" ">
<path fill="none" stroke="#63b8ff" d="M63.8,-354.61C73.24,-394.04 98.7,-477.76 152.5,-523 157.19,-526.94 162.66,-530.07 168.4,-532.54"/>
<polygon fill="#63b8ff" stroke="#63b8ff" points="67.23,-353.93 61.62,-344.94 60.41,-355.47 67.23,-353.93"/>
</a>
</g>
</g>
<!-- Node10 -->
<g id="Node000010" class="node">
<title>Node10</title>
<g id="a_Node000010"><a xlink:href="classProfileCommand.html" target="_top" xlink:title=" ">
<polygon fill="white" stroke="#666666" points="263,-514 174.25,-514 174.25,-494 263,-494 263,-514"/>
<text text-anchor="middle" x="218.62" y="-500.5" font-family="Helvetica,sans-Serif" font-size="10.00">ProfileCommand</text>
</a>
</g>
</g>
<!-- Node4&#45;&gt;Node10 -->
<g id="edge12_Node000004_Node000010" class="edge">
<title>Node4&#45;&gt;Node10</title>
<g id="a_edge12_Node000004_Node000010"><a xlink:title=" ">
<path fill="none" stroke="#63b8ff" d="M66.41,-353.91C78.75,-386.78 107.14,-450.36 152.5,-485 158.77,-489.79 166.22,-493.37 173.8,-496.05"/>
<polygon fill="#63b8ff" stroke="#63b8ff" points="69.79,-352.95 63.11,-344.72 63.2,-355.32 69.79,-352.95"/>
</a>
</g>
</g>
<!-- Node11 -->
<g id="Node000011" class="node">
<title>Node11</title>
<g id="a_Node000011"><a xlink:href="classReactionRoles.html" target="_top" xlink:title=" ">
<polygon fill="white" stroke="#666666" points="258.88,-134 178.38,-134 178.38,-114 258.88,-114 258.88,-134"/>
<text text-anchor="middle" x="218.62" y="-120.5" font-family="Helvetica,sans-Serif" font-size="10.00">ReactionRoles</text>
</a>
</g>
</g>
<!-- Node4&#45;&gt;Node11 -->
<g id="edge13_Node000004_Node000011" class="edge">
<title>Node4&#45;&gt;Node11</title>
<g id="a_edge13_Node000004_Node000011"><a xlink:title=" ">
<path fill="none" stroke="#63b8ff" d="M63.8,-311.39C73.24,-271.96 98.7,-188.24 152.5,-143 159.8,-136.86 169,-132.7 178.17,-129.89"/>
<polygon fill="#63b8ff" stroke="#63b8ff" points="60.41,-310.53 61.62,-321.06 67.23,-312.07 60.41,-310.53"/>
</a>
</g>
</g>
<!-- Node13 -->
<g id="Node000013" class="node">
<title>Node13</title>
<g id="a_Node000013"><a xlink:href="classRemovePortalCommand.html" target="_top" xlink:title=" ">
<polygon fill="white" stroke="#666666" points="280.25,-476 157,-476 157,-456 280.25,-456 280.25,-476"/>
<text text-anchor="middle" x="218.62" y="-462.5" font-family="Helvetica,sans-Serif" font-size="10.00">RemovePortalCommand</text>
</a>
</g>
</g>
<!-- Node4&#45;&gt;Node13 -->
<g id="edge14_Node000004_Node000013" class="edge">
<title>Node4&#45;&gt;Node13</title>
<g id="a_edge14_Node000004_Node000013"><a xlink:title=" ">
<path fill="none" stroke="#63b8ff" d="M70.37,-352.98C85.61,-378.54 115.37,-422.43 152.5,-447 157.71,-450.44 163.55,-453.28 169.54,-455.6"/>
<polygon fill="#63b8ff" stroke="#63b8ff" points="73.54,-351.48 65.51,-344.57 67.48,-354.98 73.54,-351.48"/>
</a>
</g>
</g>
<!-- Node14 -->
<g id="Node000014" class="node">
<title>Node14</title>
<g id="a_Node000014"><a xlink:href="classResourcesCommand.html" target="_top" xlink:title=" ">
<polygon fill="white" stroke="#666666" points="272.75,-438 164.5,-438 164.5,-418 272.75,-418 272.75,-438"/>
<text text-anchor="middle" x="218.62" y="-424.5" font-family="Helvetica,sans-Serif" font-size="10.00">ResourcesCommand</text>
</a>
</g>
</g>
<!-- Node4&#45;&gt;Node14 -->
<g id="edge15_Node000004_Node000014" class="edge">
<title>Node4&#45;&gt;Node14</title>
<g id="a_edge15_Node000004_Node000014"><a xlink:title=" ">
<path fill="none" stroke="#63b8ff" d="M76.9,-351.1C94.57,-368.26 123.27,-393.64 152.5,-409 158.86,-412.34 165.89,-415.17 172.9,-417.54"/>
<polygon fill="#63b8ff" stroke="#63b8ff" points="79.79,-349.04 70.23,-344.48 74.86,-354.01 79.79,-349.04"/>
</a>
</g>
</g>
<!-- Node15 -->
<g id="Node000015" class="node">
<title>Node15</title>
<g id="a_Node000015"><a xlink:href="classRollCommand.html" target="_top" xlink:title=" ">
<polygon fill="white" stroke="#666666" points="257.75,-400 179.5,-400 179.5,-380 257.75,-380 257.75,-400"/>
<text text-anchor="middle" x="218.62" y="-386.5" font-family="Helvetica,sans-Serif" font-size="10.00">RollCommand</text>
</a>
</g>
</g>
<!-- Node4&#45;&gt;Node15 -->
<g id="edge16_Node000004_Node000015" class="edge">
<title>Node4&#45;&gt;Node15</title>
<g id="a_edge16_Node000004_Node000015"><a xlink:title=" ">
<path fill="none" stroke="#63b8ff" d="M93.07,-347.77C110.63,-355.18 132.54,-364.04 152.5,-371 161.06,-373.99 170.37,-376.89 179.19,-379.5"/>
<polygon fill="#63b8ff" stroke="#63b8ff" points="94.72,-344.66 84.15,-343.96 91.97,-351.1 94.72,-344.66"/>
</a>
</g>
</g>
<!-- Node16 -->
<g id="Node000016" class="node">
<title>Node16</title>
<g id="a_Node000016"><a xlink:href="classServerDetails.html" target="_top" xlink:title=" ">
<polygon fill="white" stroke="#666666" points="256.25,-362 181,-362 181,-342 256.25,-342 256.25,-362"/>
<text text-anchor="middle" x="218.62" y="-348.5" font-family="Helvetica,sans-Serif" font-size="10.00">ServerDetails</text>
</a>
</g>
</g>
<!-- Node4&#45;&gt;Node16 -->
<g id="edge17_Node000004_Node000016" class="edge">
<title>Node4&#45;&gt;Node16</title>
<g id="a_edge17_Node000004_Node000016"><a xlink:title=" ">
<path fill="none" stroke="#63b8ff" d="M128.24,-341.28C146.21,-343.43 164.89,-345.67 180.51,-347.55"/>
<polygon fill="#63b8ff" stroke="#63b8ff" points="128.72,-337.81 118.38,-340.09 127.89,-344.76 128.72,-337.81"/>
</a>
</g>
</g>
<!-- Node17 -->
<g id="Node000017" class="node">
<title>Node17</title>
<g id="a_Node000017"><a xlink:href="classSetChannelCommand.html" target="_top" xlink:title=" ">
<polygon fill="white" stroke="#666666" points="274.62,-96 162.62,-96 162.62,-76 274.62,-76 274.62,-96"/>
<text text-anchor="middle" x="218.62" y="-82.5" font-family="Helvetica,sans-Serif" font-size="10.00">SetChannelCommand</text>
</a>
</g>
</g>
<!-- Node4&#45;&gt;Node17 -->
<g id="edge18_Node000004_Node000017" class="edge">
<title>Node4&#45;&gt;Node17</title>
<g id="a_edge18_Node000004_Node000017"><a xlink:title=" ">
<path fill="none" stroke="#63b8ff" d="M61.85,-311.25C68.42,-266.02 89.9,-161.39 152.5,-105 156.35,-101.53 160.8,-98.69 165.53,-96.37"/>
<polygon fill="#63b8ff" stroke="#63b8ff" points="58.39,-310.69 60.54,-321.07 65.33,-311.62 58.39,-310.69"/>
</a>
</g>
</g>
<!-- Node19 -->
<g id="Node000019" class="node">
<title>Node19</title>
<g id="a_Node000019"><a xlink:href="classSetPortalCommand.html" target="_top" xlink:title=" ">
<polygon fill="white" stroke="#666666" points="269.38,-58 167.88,-58 167.88,-38 269.38,-38 269.38,-58"/>
<text text-anchor="middle" x="218.62" y="-44.5" font-family="Helvetica,sans-Serif" font-size="10.00">SetPortalCommand</text>
</a>
</g>
</g>
<!-- Node4&#45;&gt;Node19 -->
<g id="edge19_Node000004_Node000019" class="edge">
<title>Node4&#45;&gt;Node19</title>
<g id="a_edge19_Node000004_Node000019"><a xlink:title=" ">
<path fill="none" stroke="#63b8ff" d="M65.39,-312.06C83.04,-252.4 133.85,-84.68 152.5,-67 156.86,-62.87 162.07,-59.63 167.61,-57.09"/>
<polygon fill="#63b8ff" stroke="#63b8ff" points="62.13,-310.73 62.66,-321.32 68.84,-312.71 62.13,-310.73"/>
</a>
</g>
</g>
<!-- Node22 -->
<g id="Node000022" class="node">
<title>Node22</title>
<g id="a_Node000022"><a xlink:href="classTextsCommand.html" target="_top" xlink:title=" ">
<polygon fill="white" stroke="#666666" points="261.12,-324 176.12,-324 176.12,-304 261.12,-304 261.12,-324"/>
<text text-anchor="middle" x="218.62" y="-310.5" font-family="Helvetica,sans-Serif" font-size="10.00">TextsCommand</text>
</a>
</g>
</g>
<!-- Node4&#45;&gt;Node22 -->
<g id="edge20_Node000004_Node000022" class="edge">
<title>Node4&#45;&gt;Node22</title>
<g id="a_edge20_Node000004_Node000022"><a xlink:title=" ">
<path fill="none" stroke="#63b8ff" d="M127.98,-324.75C144.22,-322.81 161.05,-320.79 175.68,-319.03"/>
<polygon fill="#63b8ff" stroke="#63b8ff" points="127.89,-321.24 118.38,-325.91 128.72,-328.19 127.89,-321.24"/>
</a>
</g>
</g>
<!-- Node18 -->
<g id="Node000018" class="node">
<title>Node18</title>
<g id="a_Node000018"><a xlink:href="classIMemberCommand.html" target="_top" xlink:title=" ">
<polygon fill="white" stroke="#666666" points="107.88,-96 8.62,-96 8.62,-76 107.88,-76 107.88,-96"/>
<text text-anchor="middle" x="58.25" y="-82.5" font-family="Helvetica,sans-Serif" font-size="10.00">IMemberCommand</text>
</a>
</g>
</g>
<!-- Node18&#45;&gt;Node17 -->
<g id="edge21_Node000018_Node000017" class="edge">
<title>Node18&#45;&gt;Node17</title>
<g id="a_edge21_Node000018_Node000017"><a xlink:title=" ">
<path fill="none" stroke="#63b8ff" d="M119.19,-86C133.35,-86 148.39,-86 162.34,-86"/>
<polygon fill="#63b8ff" stroke="#63b8ff" points="119.57,-82.5 109.57,-86 119.57,-89.5 119.57,-82.5"/>
</a>
</g>
</g>
<!-- Node20 -->
<g id="Node000020" class="node">
<title>Node20</title>
<g id="a_Node000020"><a xlink:href="classIMessageCommand.html" target="_top" xlink:title=" ">
<polygon fill="white" stroke="#666666" points="110.12,-39 6.38,-39 6.38,-19 110.12,-19 110.12,-39"/>
<text text-anchor="middle" x="58.25" y="-25.5" font-family="Helvetica,sans-Serif" font-size="10.00">IMessageCommand</text>
</a>
</g>
</g>
<!-- Node20&#45;&gt;Node19 -->
<g id="edge23_Node000020_Node000019" class="edge">
<title>Node20&#45;&gt;Node19</title>
<g id="a_edge23_Node000020_Node000019"><a xlink:title=" ">
<path fill="none" stroke="#63b8ff" d="M121.22,-36.43C136.58,-38.28 152.84,-40.23 167.55,-41.99"/>
<polygon fill="#63b8ff" stroke="#63b8ff" points="122.08,-33.01 111.74,-35.3 121.25,-39.96 122.08,-33.01"/>
</a>
</g>
</g>
<!-- Node21 -->
<g id="Node000021" class="node">
<title>Node21</title>
<g id="a_Node000021"><a xlink:href="classCleanUp.html" target="_top" xlink:title=" ">
<polygon fill="white" stroke="#666666" points="245.75,-20 191.5,-20 191.5,0 245.75,0 245.75,-20"/>
<text text-anchor="middle" x="218.62" y="-6.5" font-family="Helvetica,sans-Serif" font-size="10.00">CleanUp</text>
</a>
</g>
</g>
<!-- Node20&#45;&gt;Node21 -->
<g id="edge22_Node000020_Node000021" class="edge">
<title>Node20&#45;&gt;Node21</title>
<g id="a_edge22_Node000020_Node000021"><a xlink:title=" ">
<path fill="none" stroke="#63b8ff" d="M121.53,-21.53C145.73,-18.62 172.15,-15.46 191.15,-13.18"/>
<polygon fill="#63b8ff" stroke="#63b8ff" points="121.25,-18.04 111.74,-22.7 122.08,-24.99 121.25,-18.04"/>
</a>
</g>
</g>
<!-- Node12 -->
<g id="Node000012" class="node">
<title>Node12</title>
<g id="a_Node000012"><a xlink:href="classIReactionCommand.html" target="_top" xlink:title=" ">
<polygon fill="white" stroke="#666666" points="109.75,-134 6.75,-134 6.75,-114 109.75,-114 109.75,-134"/>
<text text-anchor="middle" x="58.25" y="-120.5" font-family="Helvetica,sans-Serif" font-size="10.00">IReactionCommand</text>
</a>
</g>
</g>
<!-- Node12&#45;&gt;Node11 -->
<g id="edge24_Node000012_Node000011" class="edge">
<title>Node12&#45;&gt;Node11</title>
<g id="a_edge24_Node000012_Node000011"><a xlink:title=" ">
<path fill="none" stroke="#63b8ff" d="M121.55,-124C140.57,-124 160.96,-124 178.04,-124"/>
<polygon fill="#63b8ff" stroke="#63b8ff" points="121.75,-120.5 111.75,-124 121.75,-127.5 121.75,-120.5"/>
</a>
</g>
</g>
</g>
</svg>
