<?xml version="1.0" encoding="UTF-8" standalone="no"?>
<!DOCTYPE svg PUBLIC "-//W3C//DTD SVG 1.1//EN"
 "http://www.w3.org/Graphics/SVG/1.1/DTD/svg11.dtd">
<!-- Generated by graphviz version 14.1.5 (0)
 -->
<!-- Title: Graphical Class Hierarchy Pages: 1 -->
<svg width="445pt" height="90pt"
 viewBox="0.00 0.00 445.00 90.00" xmlns="http://www.w3.org/2000/svg" xmlns:xlink="http://www.w3.org/1999/xlink">
<g id="graph0" class="graph" transform="scale(1 1) rotate(0) translate(4 86)">
<title>Graphical Class Hierarchy</title>
<!-- Node0 -->
<g id="Node000000" class="node">
<title>Node0</title>
<g id="a_Node000000"><a xlink:href="classIRepositoryReader.html" target="_top" xlink:title=" ">
<polygon fill="white" stroke="#666666" points="108.25,-82 0,-82 0,-50 108.25,-50 108.25,-82"/>
<text xml:space="preserve" text-anchor="start" x="8" y="-68.5" font-family="Helvetica,sans-Serif" font-size="10.00">IRepositoryReader&lt;</text>
<text xml:space="preserve" text-anchor="middle" x="54.12" y="-56.5" font-family="Helvetica,sans-Serif" font-size="10.00"> ReactionRoleDTO &gt;</text>
</a>
</g>
</g>
<!-- Node1 -->
<g id="Node000001" class="node">
<title>Node1</title>
<g id="a_Node000001"><a xlink:href="classIRepository.html" target="_top" xlink:title=" ">
<polygon fill="white" stroke="#666666" points="278.75,-57 144.25,-57 144.25,-25 278.75,-25 278.75,-57"/>
<text xml:space="preserve" text-anchor="start" x="152.25" y="-43.5" font-family="Helvetica,sans-Serif" font-size="10.00">IRepository&lt; ReactionRole</text>
<text xml:space="preserve" text-anchor="middle" x="211.5" y="-31.5" font-family="Helvetica,sans-Serif" font-size="10.00">DTO &gt;</text>
</a>
</g>
</g>
<!-- Node0&#45;&gt;Node1 -->
<g id="edge53_Node000000_Node000001" class="edge">
<title>Node0&#45;&gt;Node1</title>
<g id="a_edge53_Node000000_Node000001"><a xlink:title=" ">
<path fill="none" stroke="#63b8ff" d="M119.95,-55.57C127.82,-54.3 135.86,-53.01 143.75,-51.74"/>
<polygon fill="#63b8ff" stroke="#63b8ff" points="119.41,-52.11 110.09,-57.16 120.52,-59.02 119.41,-52.11"/>
</a>
</g>
</g>
<!-- Node2 -->
<g id="Node000002" class="node">
<title>Node2</title>
<g id="a_Node000002"><a xlink:href="classReactionRoleRepository.html" target="_top" xlink:title=" ">
<polygon fill="white" stroke="#666666" points="437.25,-51 314.75,-51 314.75,-31 437.25,-31 437.25,-51"/>
<text xml:space="preserve" text-anchor="middle" x="376" y="-37.5" font-family="Helvetica,sans-Serif" font-size="10.00">ReactionRoleRepository</text>
</a>
</g>
</g>
<!-- Node1&#45;&gt;Node2 -->
<g id="edge54_Node000001_Node000002" class="edge">
<title>Node1&#45;&gt;Node2</title>
<g id="a_edge54_Node000001_Node000002"><a xlink:title=" ">
<path fill="none" stroke="#63b8ff" d="M290.36,-41C298.4,-41 306.48,-41 314.28,-41"/>
<polygon fill="#63b8ff" stroke="#63b8ff" points="290.58,-37.5 280.58,-41 290.58,-44.5 290.58,-37.5"/>
</a>
</g>
</g>
<!-- Node3 -->
<g id="Node000003" class="node">
<title>Node3</title>
<g id="a_Node000003"><a xlink:href="classIRepositoryWriter.html" target="_top" xlink:title=" ">
<polygon fill="white" stroke="#666666" points="108.25,-32 0,-32 0,0 108.25,0 108.25,-32"/>
<text xml:space="preserve" text-anchor="start" x="8" y="-18.5" font-family="Helvetica,sans-Serif" font-size="10.00">IRepositoryWriter&lt;</text>
<text xml:space="preserve" text-anchor="middle" x="54.12" y="-6.5" font-family="Helvetica,sans-Serif" font-size="10.00"> ReactionRoleDTO &gt;</text>
</a>
</g>
</g>
<!-- Node3&#45;&gt;Node1 -->
<g id="edge55_Node000003_Node000001" class="edge">
<title>Node3&#45;&gt;Node1</title>
<g id="a_edge55_Node000003_Node000001"><a xlink:title=" ">
<path fill="none" stroke="#63b8ff" d="M119.95,-26.43C127.82,-27.7 135.86,-28.99 143.75,-30.26"/>
<polygon fill="#63b8ff" stroke="#63b8ff" points="120.52,-22.98 110.09,-24.84 119.41,-29.89 120.52,-22.98"/>
</a>
</g>
</g>
</g>
</svg>
