<?xml version="1.0" encoding="UTF-8" standalone="no"?>
<!DOCTYPE svg PUBLIC "-//W3C//DTD SVG 1.1//EN"
 "http://www.w3.org/Graphics/SVG/1.1/DTD/svg11.dtd">
<!-- Generated by graphviz version 9.0.0 (0)
 -->
<!-- Title: Graphical Class Hierarchy Pages: 1 -->
<svg width="293pt" height="408pt"
 viewBox="0.00 0.00 292.75 408.00" xmlns="http://www.w3.org/2000/svg" xmlns:xlink="http://www.w3.org/1999/xlink">
<g id="graph0" class="graph" transform="scale(1 1) rotate(0) translate(4 404)">
<title>Graphical Class Hierarchy</title>
<!-- Node0 -->
<g id="Node000000" class="node">
<title>Node0</title>
<g id="a_Node000000"><a xlink:href="classIButtonCommand.html" target="_top" xlink:title=" ">
<polygon fill="white" stroke="#666666" points="104.5,-362 12,-362 12,-342 104.5,-342 104.5,-362"/>
<text text-anchor="middle" x="58.25" y="-348.5" font-family="Helvetica,sans-Serif" font-size="10.00">IButtonCommand</text>
</a>
</g>
</g>
<!-- Node1 -->
<g id="Node000001" class="node">
<title>Node1</title>
<g id="a_Node000001"><a xlink:href="classChallengeBadgeCommand.html" target="_top" xlink:title=" ">
<polygon fill="white" stroke="#666666" points="284.75,-362 152.5,-362 152.5,-342 284.75,-342 284.75,-362"/>
<text text-anchor="middle" x="218.62" y="-348.5" font-family="Helvetica,sans-Serif" font-size="10.00">ChallengeBadgeCommand</text>
</a>
</g>
</g>
<!-- Node0&#45;&gt;Node1 -->
<g id="edge1_Node000000_Node000001" class="edge">
<title>Node0&#45;&gt;Node1</title>
<g id="a_edge1_Node000000_Node000001"><a xlink:title=" ">
<path fill="none" stroke="#63b8ff" d="M116.06,-352C127.77,-352 140.19,-352 152.17,-352"/>
<polygon fill="#63b8ff" stroke="#63b8ff" points="116.15,-348.5 106.15,-352 116.15,-355.5 116.15,-348.5"/>
</a>
</g>
</g>
<!-- Node3 -->
<g id="Node000003" class="node">
<title>Node3</title>
<g id="a_Node000003"><a xlink:href="classChallengeRoleCommand.html" target="_top" xlink:title=" ">
<polygon fill="white" stroke="#666666" points="281,-400 156.25,-400 156.25,-380 281,-380 281,-400"/>
<text text-anchor="middle" x="218.62" y="-386.5" font-family="Helvetica,sans-Serif" font-size="10.00">ChallengeRoleCommand</text>
</a>
</g>
</g>
<!-- Node0&#45;&gt;Node3 -->
<g id="edge2_Node000000_Node000003" class="edge">
<title>Node0&#45;&gt;Node3</title>
<g id="a_edge2_Node000000_Node000003"><a xlink:title=" ">
<path fill="none" stroke="#63b8ff" d="M113.91,-365.12C133.58,-369.83 155.48,-375.09 174.07,-379.55"/>
<polygon fill="#63b8ff" stroke="#63b8ff" points="114.96,-361.77 104.42,-362.84 113.33,-368.57 114.96,-361.77"/>
</a>
</g>
</g>
<!-- Node2 -->
<g id="Node000002" class="node">
<title>Node2</title>
<g id="a_Node000002"><a xlink:href="classIFormCommand.html" target="_top" xlink:title=" ">
<polygon fill="white" stroke="#666666" points="101.5,-400 15,-400 15,-380 101.5,-380 101.5,-400"/>
<text text-anchor="middle" x="58.25" y="-386.5" font-family="Helvetica,sans-Serif" font-size="10.00">IFormCommand</text>
</a>
</g>
</g>
<!-- Node2&#45;&gt;Node1 -->
<g id="edge3_Node000002_Node000001" class="edge">
<title>Node2&#45;&gt;Node1</title>
<g id="a_edge3_Node000002_Node000001"><a xlink:title=" ">
<path fill="none" stroke="#63b8ff" d="M112.78,-377.16C132.69,-372.38 155.04,-367.02 173.96,-362.48"/>
<polygon fill="#63b8ff" stroke="#63b8ff" points="112.07,-373.73 103.16,-379.46 113.7,-380.53 112.07,-373.73"/>
</a>
</g>
</g>
<!-- Node2&#45;&gt;Node3 -->
<g id="edge4_Node000002_Node000003" class="edge">
<title>Node2&#45;&gt;Node3</title>
<g id="a_edge4_Node000002_Node000003"><a xlink:title=" ">
<path fill="none" stroke="#63b8ff" d="M112.99,-390C126.82,-390 141.81,-390 156.01,-390"/>
<polygon fill="#63b8ff" stroke="#63b8ff" points="113.21,-386.5 103.21,-390 113.21,-393.5 113.21,-386.5"/>
</a>
</g>
</g>
<!-- Node4 -->
<g id="Node000004" class="node">
<title>Node4</title>
<g id="a_Node000004"><a xlink:href="classIGlobalSlashCommand.html" target="_top" xlink:title=" ">
<polygon fill="white" stroke="#666666" points="116.5,-210 0,-210 0,-190 116.5,-190 116.5,-210"/>
<text text-anchor="middle" x="58.25" y="-196.5" font-family="Helvetica,sans-Serif" font-size="10.00">IGlobalSlashCommand</text>
</a>
</g>
</g>
<!-- Node4&#45;&gt;Node1 -->
<g id="edge5_Node000004_Node000001" class="edge">
<title>Node4&#45;&gt;Node1</title>
<g id="a_edge5_Node000004_Node000001"><a xlink:title=" ">
<path fill="none" stroke="#63b8ff" d="M68.3,-220.78C82.15,-250.17 111.42,-303.57 152.5,-333 157.29,-336.43 162.69,-339.24 168.28,-341.55"/>
<polygon fill="#63b8ff" stroke="#63b8ff" points="71.55,-219.49 64.23,-211.83 65.18,-222.38 71.55,-219.49"/>
</a>
</g>
</g>
<!-- Node4&#45;&gt;Node3 -->
<g id="edge6_Node000004_Node000003" class="edge">
<title>Node4&#45;&gt;Node3</title>
<g id="a_edge6_Node000004_Node000003"><a xlink:title=" ">
<path fill="none" stroke="#63b8ff" d="M64.89,-220.96C75.71,-257.08 102.8,-331 152.5,-371 156.81,-374.47 161.74,-377.31 166.9,-379.63"/>
<polygon fill="#63b8ff" stroke="#63b8ff" points="68.37,-220.38 62.26,-211.72 61.64,-222.3 68.37,-220.38"/>
</a>
</g>
</g>
<!-- Node5 -->
<g id="Node000005" class="node">
<title>Node5</title>
<g id="a_Node000005"><a xlink:href="classFlipCommand.html" target="_top" xlink:title=" ">
<polygon fill="white" stroke="#666666" points="257,-134 180.25,-134 180.25,-114 257,-114 257,-134"/>
<text text-anchor="middle" x="218.62" y="-120.5" font-family="Helvetica,sans-Serif" font-size="10.00">FlipCommand</text>
</a>
</g>
</g>
<!-- Node4&#45;&gt;Node5 -->
<g id="edge7_Node000004_Node000005" class="edge">
<title>Node4&#45;&gt;Node5</title>
<g id="a_edge7_Node000004_Node000005"><a xlink:title=" ">
<path fill="none" stroke="#63b8ff" d="M82.72,-183.23C101.03,-170.77 127.46,-154.07 152.5,-143 161.12,-139.19 170.71,-135.91 179.82,-133.19"/>
<polygon fill="#63b8ff" stroke="#63b8ff" points="80.92,-180.22 74.69,-188.8 84.91,-185.98 80.92,-180.22"/>
</a>
</g>
</g>
<!-- Node6 -->
<g id="Node000006" class="node">
<title>Node6</title>
<g id="a_Node000006"><a xlink:href="classHelpCommand.html" target="_top" xlink:title=" ">
<polygon fill="white" stroke="#666666" points="259.25,-96 178,-96 178,-76 259.25,-76 259.25,-96"/>
<text text-anchor="middle" x="218.62" y="-82.5" font-family="Helvetica,sans-Serif" font-size="10.00">HelpCommand</text>
</a>
</g>
</g>
<!-- Node4&#45;&gt;Node6 -->
<g id="edge8_Node000004_Node000006" class="edge">
<title>Node4&#45;&gt;Node6</title>
<g id="a_edge8_Node000004_Node000006"><a xlink:title=" ">
<path fill="none" stroke="#63b8ff" d="M73.33,-180.57C89.93,-159.05 119.46,-124.77 152.5,-105 160.18,-100.4 169.04,-96.86 177.7,-94.15"/>
<polygon fill="#63b8ff" stroke="#63b8ff" points="70.57,-178.42 67.37,-188.52 76.17,-182.63 70.57,-178.42"/>
</a>
</g>
</g>
<!-- Node7 -->
<g id="Node000007" class="node">
<title>Node7</title>
<g id="a_Node000007"><a xlink:href="classInviteCommand.html" target="_top" xlink:title=" ">
<polygon fill="white" stroke="#666666" points="261.12,-324 176.12,-324 176.12,-304 261.12,-304 261.12,-324"/>
<text text-anchor="middle" x="218.62" y="-310.5" font-family="Helvetica,sans-Serif" font-size="10.00">InviteCommand</text>
</a>
</g>
</g>
<!-- Node4&#45;&gt;Node7 -->
<g id="edge9_Node000004_Node000007" class="edge">
<title>Node4&#45;&gt;Node7</title>
<g id="a_edge9_Node000004_Node000007"><a xlink:title=" ">
<path fill="none" stroke="#63b8ff" d="M73.33,-219.43C89.93,-240.95 119.46,-275.23 152.5,-295 159.57,-299.23 167.65,-302.57 175.65,-305.19"/>
<polygon fill="#63b8ff" stroke="#63b8ff" points="76.17,-217.37 67.37,-211.48 70.57,-221.58 76.17,-217.37"/>
</a>
</g>
</g>
<!-- Node8 -->
<g id="Node000008" class="node">
<title>Node8</title>
<g id="a_Node000008"><a xlink:href="classMemberCommand.html" target="_top" xlink:title=" ">
<polygon fill="white" stroke="#666666" points="266.75,-286 170.5,-286 170.5,-266 266.75,-266 266.75,-286"/>
<text text-anchor="middle" x="218.62" y="-272.5" font-family="Helvetica,sans-Serif" font-size="10.00">MemberCommand</text>
</a>
</g>
</g>
<!-- Node4&#45;&gt;Node8 -->
<g id="edge10_Node000004_Node000008" class="edge">
<title>Node4&#45;&gt;Node8</title>
<g id="a_edge10_Node000004_Node000008"><a xlink:title=" ">
<path fill="none" stroke="#63b8ff" d="M82.72,-216.77C101.03,-229.23 127.46,-245.93 152.5,-257 159.82,-260.24 167.85,-263.1 175.7,-265.55"/>
<polygon fill="#63b8ff" stroke="#63b8ff" points="84.91,-214.02 74.69,-211.2 80.92,-219.78 84.91,-214.02"/>
</a>
</g>
</g>
<!-- Node9 -->
<g id="Node000009" class="node">
<title>Node9</title>
<g id="a_Node000009"><a xlink:href="classReactionRoles.html" target="_top" xlink:title=" ">
<polygon fill="white" stroke="#666666" points="258.88,-58 178.38,-58 178.38,-38 258.88,-38 258.88,-58"/>
<text text-anchor="middle" x="218.62" y="-44.5" font-family="Helvetica,sans-Serif" font-size="10.00">ReactionRoles</text>
</a>
</g>
</g>
<!-- Node4&#45;&gt;Node9 -->
<g id="edge11_Node000004_Node000009" class="edge">
<title>Node4&#45;&gt;Node9</title>
<g id="a_edge11_Node000004_Node000009"><a xlink:title=" ">
<path fill="none" stroke="#63b8ff" d="M68.3,-179.22C82.15,-149.83 111.42,-96.43 152.5,-67 160.06,-61.58 169.16,-57.7 178.13,-54.92"/>
<polygon fill="#63b8ff" stroke="#63b8ff" points="65.18,-177.62 64.23,-188.17 71.55,-180.51 65.18,-177.62"/>
</a>
</g>
</g>
<!-- Node11 -->
<g id="Node000011" class="node">
<title>Node11</title>
<g id="a_Node000011"><a xlink:href="classResourcesCommand.html" target="_top" xlink:title=" ">
<polygon fill="white" stroke="#666666" points="272.75,-248 164.5,-248 164.5,-228 272.75,-228 272.75,-248"/>
<text text-anchor="middle" x="218.62" y="-234.5" font-family="Helvetica,sans-Serif" font-size="10.00">ResourcesCommand</text>
</a>
</g>
</g>
<!-- Node4&#45;&gt;Node11 -->
<g id="edge12_Node000004_Node000011" class="edge">
<title>Node4&#45;&gt;Node11</title>
<g id="a_edge12_Node000004_Node000011"><a xlink:title=" ">
<path fill="none" stroke="#63b8ff" d="M113.91,-213.12C133.58,-217.83 155.48,-223.09 174.07,-227.55"/>
<polygon fill="#63b8ff" stroke="#63b8ff" points="114.96,-209.77 104.42,-210.84 113.33,-216.57 114.96,-209.77"/>
</a>
</g>
</g>
<!-- Node12 -->
<g id="Node000012" class="node">
<title>Node12</title>
<g id="a_Node000012"><a xlink:href="classRollCommand.html" target="_top" xlink:title=" ">
<polygon fill="white" stroke="#666666" points="257.75,-210 179.5,-210 179.5,-190 257.75,-190 257.75,-210"/>
<text text-anchor="middle" x="218.62" y="-196.5" font-family="Helvetica,sans-Serif" font-size="10.00">RollCommand</text>
</a>
</g>
</g>
<!-- Node4&#45;&gt;Node12 -->
<g id="edge13_Node000004_Node000012" class="edge">
<title>Node4&#45;&gt;Node12</title>
<g id="a_edge13_Node000004_Node000012"><a xlink:title=" ">
<path fill="none" stroke="#63b8ff" d="M128.2,-200C145.64,-200 163.75,-200 179.08,-200"/>
<polygon fill="#63b8ff" stroke="#63b8ff" points="128.39,-196.5 118.39,-200 128.39,-203.5 128.39,-196.5"/>
</a>
</g>
</g>
<!-- Node13 -->
<g id="Node000013" class="node">
<title>Node13</title>
<g id="a_Node000013"><a xlink:href="classServerDetails.html" target="_top" xlink:title=" ">
<polygon fill="white" stroke="#666666" points="256.25,-172 181,-172 181,-152 256.25,-152 256.25,-172"/>
<text text-anchor="middle" x="218.62" y="-158.5" font-family="Helvetica,sans-Serif" font-size="10.00">ServerDetails</text>
</a>
</g>
</g>
<!-- Node4&#45;&gt;Node13 -->
<g id="edge14_Node000004_Node000013" class="edge">
<title>Node4&#45;&gt;Node13</title>
<g id="a_edge14_Node000004_Node000013"><a xlink:title=" ">
<path fill="none" stroke="#63b8ff" d="M114.12,-186.83C136.06,-181.57 160.75,-175.65 180.51,-170.91"/>
<polygon fill="#63b8ff" stroke="#63b8ff" points="113.33,-183.43 104.42,-189.16 114.96,-190.23 113.33,-183.43"/>
</a>
</g>
</g>
<!-- Node14 -->
<g id="Node000014" class="node">
<title>Node14</title>
<g id="a_Node000014"><a xlink:href="classSetChannelCommand.html" target="_top" xlink:title=" ">
<polygon fill="white" stroke="#666666" points="274.62,-20 162.62,-20 162.62,0 274.62,0 274.62,-20"/>
<text text-anchor="middle" x="218.62" y="-6.5" font-family="Helvetica,sans-Serif" font-size="10.00">SetChannelCommand</text>
</a>
</g>
</g>
<!-- Node4&#45;&gt;Node14 -->
<g id="edge15_Node000004_Node000014" class="edge">
<title>Node4&#45;&gt;Node14</title>
<g id="a_edge15_Node000004_Node000014"><a xlink:title=" ">
<path fill="none" stroke="#63b8ff" d="M64.89,-179.04C75.71,-142.92 102.8,-69 152.5,-29 156.81,-25.53 161.74,-22.69 166.9,-20.37"/>
<polygon fill="#63b8ff" stroke="#63b8ff" points="61.64,-177.7 62.26,-188.28 68.37,-179.62 61.64,-177.7"/>
</a>
</g>
</g>
<!-- Node15 -->
<g id="Node000015" class="node">
<title>Node15</title>
<g id="a_Node000015"><a xlink:href="classIMemberCommand.html" target="_top" xlink:title=" ">
<polygon fill="white" stroke="#666666" points="107.88,-20 8.62,-20 8.62,0 107.88,0 107.88,-20"/>
<text text-anchor="middle" x="58.25" y="-6.5" font-family="Helvetica,sans-Serif" font-size="10.00">IMemberCommand</text>
</a>
</g>
</g>
<!-- Node15&#45;&gt;Node14 -->
<g id="edge16_Node000015_Node000014" class="edge">
<title>Node15&#45;&gt;Node14</title>
<g id="a_edge16_Node000015_Node000014"><a xlink:title=" ">
<path fill="none" stroke="#63b8ff" d="M119.19,-10C133.35,-10 148.39,-10 162.34,-10"/>
<polygon fill="#63b8ff" stroke="#63b8ff" points="119.57,-6.5 109.57,-10 119.57,-13.5 119.57,-6.5"/>
</a>
</g>
</g>
<!-- Node10 -->
<g id="Node000010" class="node">
<title>Node10</title>
<g id="a_Node000010"><a xlink:href="classIReactionCommand.html" target="_top" xlink:title=" ">
<polygon fill="white" stroke="#666666" points="109.75,-58 6.75,-58 6.75,-38 109.75,-38 109.75,-58"/>
<text text-anchor="middle" x="58.25" y="-44.5" font-family="Helvetica,sans-Serif" font-size="10.00">IReactionCommand</text>
</a>
</g>
</g>
<!-- Node10&#45;&gt;Node9 -->
<g id="edge17_Node000010_Node000009" class="edge">
<title>Node10&#45;&gt;Node9</title>
<g id="a_edge17_Node000010_Node000009"><a xlink:title=" ">
<path fill="none" stroke="#63b8ff" d="M121.55,-48C140.57,-48 160.96,-48 178.04,-48"/>
<polygon fill="#63b8ff" stroke="#63b8ff" points="121.75,-44.5 111.75,-48 121.75,-51.5 121.75,-44.5"/>
</a>
</g>
</g>
</g>
</svg>
