<?xml version="1.0" encoding="UTF-8" standalone="no"?>
<!DOCTYPE svg PUBLIC "-//W3C//DTD SVG 1.1//EN"
 "http://www.w3.org/Graphics/SVG/1.1/DTD/svg11.dtd">
<!-- Generated by graphviz version 9.0.0 (0)
 -->
<!-- Title: Graphical Class Hierarchy Pages: 1 -->
<svg width="273pt" height="66pt"
 viewBox="0.00 0.00 272.50 66.00" xmlns="http://www.w3.org/2000/svg" xmlns:xlink="http://www.w3.org/1999/xlink">
<g id="graph0" class="graph" transform="scale(1 1) rotate(0) translate(4 62)">
<title>Graphical Class Hierarchy</title>
<!-- Node0 -->
<g id="Node000000" class="node">
<title>Node0</title>
<g id="a_Node000000"><a xlink:href="classIGlobalSlashCommand.html" target="_top" xlink:title=" ">
<polygon fill="white" stroke="#666666" points="116.5,-39 0,-39 0,-19 116.5,-19 116.5,-39"/>
<text text-anchor="middle" x="58.25" y="-25.5" font-family="Helvetica,sans-Serif" font-size="10.00">IGlobalSlashCommand</text>
</a>
</g>
</g>
<!-- Node1 -->
<g id="Node000001" class="node">
<title>Node1</title>
<g id="a_Node000001"><a xlink:href="classHelpCommand.html" target="_top" xlink:title=" ">
<polygon fill="white" stroke="#666666" points="249.12,-58 167.88,-58 167.88,-38 249.12,-38 249.12,-58"/>
<text text-anchor="middle" x="208.5" y="-44.5" font-family="Helvetica,sans-Serif" font-size="10.00">HelpCommand</text>
</a>
</g>
</g>
<!-- Node0&#45;&gt;Node1 -->
<g id="edge1_Node000000_Node000001" class="edge">
<title>Node0&#45;&gt;Node1</title>
<g id="a_edge1_Node000000_Node000001"><a xlink:title=" ">
<path fill="none" stroke="#63b8ff" d="M128.22,-37.84C141.7,-39.57 155.41,-41.32 167.55,-42.88"/>
<polygon fill="#63b8ff" stroke="#63b8ff" points="128.86,-34.39 118.49,-36.59 127.97,-41.34 128.86,-34.39"/>
</a>
</g>
</g>
<!-- Node2 -->
<g id="Node000002" class="node">
<title>Node2</title>
<g id="a_Node000002"><a xlink:href="classSetChannelCommand.html" target="_top" xlink:title=" ">
<polygon fill="white" stroke="#666666" points="264.5,-20 152.5,-20 152.5,0 264.5,0 264.5,-20"/>
<text text-anchor="middle" x="208.5" y="-6.5" font-family="Helvetica,sans-Serif" font-size="10.00">SetChannelCommand</text>
</a>
</g>
</g>
<!-- Node0&#45;&gt;Node2 -->
<g id="edge2_Node000000_Node000002" class="edge">
<title>Node0&#45;&gt;Node2</title>
<g id="a_edge2_Node000000_Node000002"><a xlink:title=" ">
<path fill="none" stroke="#63b8ff" d="M128.22,-20.16C136.22,-19.13 144.31,-18.1 152.1,-17.1"/>
<polygon fill="#63b8ff" stroke="#63b8ff" points="127.97,-16.66 118.49,-21.41 128.86,-23.61 127.97,-16.66"/>
</a>
</g>
</g>
</g>
</svg>
