<?xml version="1.0" encoding="UTF-8" standalone="no"?>
<!DOCTYPE svg PUBLIC "-//W3C//DTD SVG 1.1//EN"
 "http://www.w3.org/Graphics/SVG/1.1/DTD/svg11.dtd">
<!-- Generated by graphviz version 10.0.1 (0)
 -->
<!-- Title: Graphical Class Hierarchy Pages: 1 -->
<svg width="293pt" height="484pt"
 viewBox="0.00 0.00 292.75 484.00" xmlns="http://www.w3.org/2000/svg" xmlns:xlink="http://www.w3.org/1999/xlink">
<g id="graph0" class="graph" transform="scale(1 1) rotate(0) translate(4 480)">
<title>Graphical Class Hierarchy</title>
<!-- Node0 -->
<g id="Node000000" class="node">
<title>Node0</title>
<g id="a_Node000000"><a xlink:href="classIButtonCommand.html" target="_top" xlink:title=" ">
<polygon fill="white" stroke="#666666" points="104.5,-438 12,-438 12,-418 104.5,-418 104.5,-438"/>
<text text-anchor="middle" x="58.25" y="-424.5" font-family="Helvetica,sans-Serif" font-size="10.00">IButtonCommand</text>
</a>
</g>
</g>
<!-- Node1 -->
<g id="Node000001" class="node">
<title>Node1</title>
<g id="a_Node000001"><a xlink:href="classChallengeBadgeCommand.html" target="_top" xlink:title=" ">
<polygon fill="white" stroke="#666666" points="284.75,-438 152.5,-438 152.5,-418 284.75,-418 284.75,-438"/>
<text text-anchor="middle" x="218.62" y="-424.5" font-family="Helvetica,sans-Serif" font-size="10.00">ChallengeBadgeCommand</text>
</a>
</g>
</g>
<!-- Node0&#45;&gt;Node1 -->
<g id="edge1_Node000000_Node000001" class="edge">
<title>Node0&#45;&gt;Node1</title>
<g id="a_edge1_Node000000_Node000001"><a xlink:title=" ">
<path fill="none" stroke="#63b8ff" d="M116.06,-428C127.77,-428 140.19,-428 152.17,-428"/>
<polygon fill="#63b8ff" stroke="#63b8ff" points="116.15,-424.5 106.15,-428 116.15,-431.5 116.15,-424.5"/>
</a>
</g>
</g>
<!-- Node3 -->
<g id="Node000003" class="node">
<title>Node3</title>
<g id="a_Node000003"><a xlink:href="classChallengeRoleCommand.html" target="_top" xlink:title=" ">
<polygon fill="white" stroke="#666666" points="281,-476 156.25,-476 156.25,-456 281,-456 281,-476"/>
<text text-anchor="middle" x="218.62" y="-462.5" font-family="Helvetica,sans-Serif" font-size="10.00">ChallengeRoleCommand</text>
</a>
</g>
</g>
<!-- Node0&#45;&gt;Node3 -->
<g id="edge2_Node000000_Node000003" class="edge">
<title>Node0&#45;&gt;Node3</title>
<g id="a_edge2_Node000000_Node000003"><a xlink:title=" ">
<path fill="none" stroke="#63b8ff" d="M113.91,-441.12C133.58,-445.83 155.48,-451.09 174.07,-455.55"/>
<polygon fill="#63b8ff" stroke="#63b8ff" points="114.96,-437.77 104.42,-438.84 113.33,-444.57 114.96,-437.77"/>
</a>
</g>
</g>
<!-- Node2 -->
<g id="Node000002" class="node">
<title>Node2</title>
<g id="a_Node000002"><a xlink:href="classIFormCommand.html" target="_top" xlink:title=" ">
<polygon fill="white" stroke="#666666" points="101.5,-476 15,-476 15,-456 101.5,-456 101.5,-476"/>
<text text-anchor="middle" x="58.25" y="-462.5" font-family="Helvetica,sans-Serif" font-size="10.00">IFormCommand</text>
</a>
</g>
</g>
<!-- Node2&#45;&gt;Node1 -->
<g id="edge3_Node000002_Node000001" class="edge">
<title>Node2&#45;&gt;Node1</title>
<g id="a_edge3_Node000002_Node000001"><a xlink:title=" ">
<path fill="none" stroke="#63b8ff" d="M112.78,-453.16C132.69,-448.38 155.04,-443.02 173.96,-438.48"/>
<polygon fill="#63b8ff" stroke="#63b8ff" points="112.07,-449.73 103.16,-455.46 113.7,-456.53 112.07,-449.73"/>
</a>
</g>
</g>
<!-- Node2&#45;&gt;Node3 -->
<g id="edge4_Node000002_Node000003" class="edge">
<title>Node2&#45;&gt;Node3</title>
<g id="a_edge4_Node000002_Node000003"><a xlink:title=" ">
<path fill="none" stroke="#63b8ff" d="M112.99,-466C126.82,-466 141.81,-466 156.01,-466"/>
<polygon fill="#63b8ff" stroke="#63b8ff" points="113.21,-462.5 103.21,-466 113.21,-469.5 113.21,-462.5"/>
</a>
</g>
</g>
<!-- Node4 -->
<g id="Node000004" class="node">
<title>Node4</title>
<g id="a_Node000004"><a xlink:href="classIGlobalSlashCommand.html" target="_top" xlink:title=" ">
<polygon fill="white" stroke="#666666" points="116.5,-248 0,-248 0,-228 116.5,-228 116.5,-248"/>
<text text-anchor="middle" x="58.25" y="-234.5" font-family="Helvetica,sans-Serif" font-size="10.00">IGlobalSlashCommand</text>
</a>
</g>
</g>
<!-- Node4&#45;&gt;Node1 -->
<g id="edge5_Node000004_Node000001" class="edge">
<title>Node4&#45;&gt;Node1</title>
<g id="a_edge5_Node000004_Node000001"><a xlink:title=" ">
<path fill="none" stroke="#63b8ff" d="M64.89,-258.96C75.71,-295.08 102.8,-369 152.5,-409 156.81,-412.47 161.74,-415.31 166.9,-417.63"/>
<polygon fill="#63b8ff" stroke="#63b8ff" points="68.37,-258.38 62.26,-249.72 61.64,-260.3 68.37,-258.38"/>
</a>
</g>
</g>
<!-- Node4&#45;&gt;Node3 -->
<g id="edge6_Node000004_Node000003" class="edge">
<title>Node4&#45;&gt;Node3</title>
<g id="a_edge6_Node000004_Node000003"><a xlink:title=" ">
<path fill="none" stroke="#63b8ff" d="M62.69,-259.37C70.61,-301.61 94.17,-396.1 152.5,-447 156.4,-450.41 160.89,-453.2 165.64,-455.5"/>
<polygon fill="#63b8ff" stroke="#63b8ff" points="66.14,-258.78 60.97,-249.53 59.24,-259.99 66.14,-258.78"/>
</a>
</g>
</g>
<!-- Node5 -->
<g id="Node000005" class="node">
<title>Node5</title>
<g id="a_Node000005"><a xlink:href="classFlipCommand.html" target="_top" xlink:title=" ">
<polygon fill="white" stroke="#666666" points="257,-286 180.25,-286 180.25,-266 257,-266 257,-286"/>
<text text-anchor="middle" x="218.62" y="-272.5" font-family="Helvetica,sans-Serif" font-size="10.00">FlipCommand</text>
</a>
</g>
</g>
<!-- Node4&#45;&gt;Node5 -->
<g id="edge7_Node000004_Node000005" class="edge">
<title>Node4&#45;&gt;Node5</title>
<g id="a_edge7_Node000004_Node000005"><a xlink:title=" ">
<path fill="none" stroke="#63b8ff" d="M114.04,-251.15C135.8,-256.37 160.29,-262.24 179.99,-266.97"/>
<polygon fill="#63b8ff" stroke="#63b8ff" points="114.96,-247.77 104.42,-248.84 113.33,-254.57 114.96,-247.77"/>
</a>
</g>
</g>
<!-- Node6 -->
<g id="Node000006" class="node">
<title>Node6</title>
<g id="a_Node000006"><a xlink:href="classHelpCommand.html" target="_top" xlink:title=" ">
<polygon fill="white" stroke="#666666" points="259.25,-248 178,-248 178,-228 259.25,-228 259.25,-248"/>
<text text-anchor="middle" x="218.62" y="-234.5" font-family="Helvetica,sans-Serif" font-size="10.00">HelpCommand</text>
</a>
</g>
</g>
<!-- Node4&#45;&gt;Node6 -->
<g id="edge8_Node000004_Node000006" class="edge">
<title>Node4&#45;&gt;Node6</title>
<g id="a_edge8_Node000004_Node000006"><a xlink:title=" ">
<path fill="none" stroke="#63b8ff" d="M127.91,-238C144.89,-238 162.53,-238 177.63,-238"/>
<polygon fill="#63b8ff" stroke="#63b8ff" points="128.39,-234.5 118.39,-238 128.39,-241.5 128.39,-234.5"/>
</a>
</g>
</g>
<!-- Node7 -->
<g id="Node000007" class="node">
<title>Node7</title>
<g id="a_Node000007"><a xlink:href="classInviteCommand.html" target="_top" xlink:title=" ">
<polygon fill="white" stroke="#666666" points="261.12,-210 176.12,-210 176.12,-190 261.12,-190 261.12,-210"/>
<text text-anchor="middle" x="218.62" y="-196.5" font-family="Helvetica,sans-Serif" font-size="10.00">InviteCommand</text>
</a>
</g>
</g>
<!-- Node4&#45;&gt;Node7 -->
<g id="edge9_Node000004_Node000007" class="edge">
<title>Node4&#45;&gt;Node7</title>
<g id="a_edge9_Node000004_Node000007"><a xlink:title=" ">
<path fill="none" stroke="#63b8ff" d="M113.91,-224.88C134.16,-220.03 156.77,-214.6 175.71,-210.06"/>
<polygon fill="#63b8ff" stroke="#63b8ff" points="113.33,-221.43 104.42,-227.16 114.96,-228.23 113.33,-221.43"/>
</a>
</g>
</g>
<!-- Node8 -->
<g id="Node000008" class="node">
<title>Node8</title>
<g id="a_Node000008"><a xlink:href="classMemberCommand.html" target="_top" xlink:title=" ">
<polygon fill="white" stroke="#666666" points="266.75,-172 170.5,-172 170.5,-152 266.75,-152 266.75,-172"/>
<text text-anchor="middle" x="218.62" y="-158.5" font-family="Helvetica,sans-Serif" font-size="10.00">MemberCommand</text>
</a>
</g>
</g>
<!-- Node4&#45;&gt;Node8 -->
<g id="edge10_Node000004_Node000008" class="edge">
<title>Node4&#45;&gt;Node8</title>
<g id="a_edge10_Node000004_Node000008"><a xlink:title=" ">
<path fill="none" stroke="#63b8ff" d="M82.72,-221.23C101.03,-208.77 127.46,-192.07 152.5,-181 159.82,-177.76 167.85,-174.9 175.7,-172.45"/>
<polygon fill="#63b8ff" stroke="#63b8ff" points="80.92,-218.22 74.69,-226.8 84.91,-223.98 80.92,-218.22"/>
</a>
</g>
</g>
<!-- Node9 -->
<g id="Node000009" class="node">
<title>Node9</title>
<g id="a_Node000009"><a xlink:href="classProfileCommand.html" target="_top" xlink:title=" ">
<polygon fill="white" stroke="#666666" points="263,-134 174.25,-134 174.25,-114 263,-114 263,-134"/>
<text text-anchor="middle" x="218.62" y="-120.5" font-family="Helvetica,sans-Serif" font-size="10.00">ProfileCommand</text>
</a>
</g>
</g>
<!-- Node4&#45;&gt;Node9 -->
<g id="edge11_Node000004_Node000009" class="edge">
<title>Node4&#45;&gt;Node9</title>
<g id="a_edge11_Node000004_Node000009"><a xlink:title=" ">
<path fill="none" stroke="#63b8ff" d="M73.33,-218.57C89.93,-197.05 119.46,-162.77 152.5,-143 159.07,-139.07 166.5,-135.91 173.93,-133.38"/>
<polygon fill="#63b8ff" stroke="#63b8ff" points="70.57,-216.42 67.37,-226.52 76.17,-220.63 70.57,-216.42"/>
</a>
</g>
</g>
<!-- Node10 -->
<g id="Node000010" class="node">
<title>Node10</title>
<g id="a_Node000010"><a xlink:href="classReactionRoles.html" target="_top" xlink:title=" ">
<polygon fill="white" stroke="#666666" points="258.88,-58 178.38,-58 178.38,-38 258.88,-38 258.88,-58"/>
<text text-anchor="middle" x="218.62" y="-44.5" font-family="Helvetica,sans-Serif" font-size="10.00">ReactionRoles</text>
</a>
</g>
</g>
<!-- Node4&#45;&gt;Node10 -->
<g id="edge12_Node000004_Node000010" class="edge">
<title>Node4&#45;&gt;Node10</title>
<g id="a_edge12_Node000004_Node000010"><a xlink:title=" ">
<path fill="none" stroke="#63b8ff" d="M64.89,-217.04C75.71,-180.92 102.8,-107 152.5,-67 159.84,-61.09 168.95,-57.02 178.01,-54.22"/>
<polygon fill="#63b8ff" stroke="#63b8ff" points="61.64,-215.7 62.26,-226.28 68.37,-217.62 61.64,-215.7"/>
</a>
</g>
</g>
<!-- Node12 -->
<g id="Node000012" class="node">
<title>Node12</title>
<g id="a_Node000012"><a xlink:href="classResourcesCommand.html" target="_top" xlink:title=" ">
<polygon fill="white" stroke="#666666" points="272.75,-96 164.5,-96 164.5,-76 272.75,-76 272.75,-96"/>
<text text-anchor="middle" x="218.62" y="-82.5" font-family="Helvetica,sans-Serif" font-size="10.00">ResourcesCommand</text>
</a>
</g>
</g>
<!-- Node4&#45;&gt;Node12 -->
<g id="edge13_Node000004_Node000012" class="edge">
<title>Node4&#45;&gt;Node12</title>
<g id="a_edge13_Node000004_Node000012"><a xlink:title=" ">
<path fill="none" stroke="#63b8ff" d="M68.3,-217.22C82.15,-187.83 111.42,-134.43 152.5,-105 157.29,-101.57 162.69,-98.76 168.28,-96.45"/>
<polygon fill="#63b8ff" stroke="#63b8ff" points="65.18,-215.62 64.23,-226.17 71.55,-218.51 65.18,-215.62"/>
</a>
</g>
</g>
<!-- Node13 -->
<g id="Node000013" class="node">
<title>Node13</title>
<g id="a_Node000013"><a xlink:href="classRollCommand.html" target="_top" xlink:title=" ">
<polygon fill="white" stroke="#666666" points="257.75,-400 179.5,-400 179.5,-380 257.75,-380 257.75,-400"/>
<text text-anchor="middle" x="218.62" y="-386.5" font-family="Helvetica,sans-Serif" font-size="10.00">RollCommand</text>
</a>
</g>
</g>
<!-- Node4&#45;&gt;Node13 -->
<g id="edge14_Node000004_Node000013" class="edge">
<title>Node4&#45;&gt;Node13</title>
<g id="a_edge14_Node000004_Node000013"><a xlink:title=" ">
<path fill="none" stroke="#63b8ff" d="M68.3,-258.78C82.15,-288.17 111.42,-341.57 152.5,-371 160.35,-376.62 169.85,-380.59 179.15,-383.39"/>
<polygon fill="#63b8ff" stroke="#63b8ff" points="71.55,-257.49 64.23,-249.83 65.18,-260.38 71.55,-257.49"/>
</a>
</g>
</g>
<!-- Node14 -->
<g id="Node000014" class="node">
<title>Node14</title>
<g id="a_Node000014"><a xlink:href="classServerDetails.html" target="_top" xlink:title=" ">
<polygon fill="white" stroke="#666666" points="256.25,-362 181,-362 181,-342 256.25,-342 256.25,-362"/>
<text text-anchor="middle" x="218.62" y="-348.5" font-family="Helvetica,sans-Serif" font-size="10.00">ServerDetails</text>
</a>
</g>
</g>
<!-- Node4&#45;&gt;Node14 -->
<g id="edge15_Node000004_Node000014" class="edge">
<title>Node4&#45;&gt;Node14</title>
<g id="a_edge15_Node000004_Node000014"><a xlink:title=" ">
<path fill="none" stroke="#63b8ff" d="M73.33,-257.43C89.93,-278.95 119.46,-313.23 152.5,-333 161.09,-338.14 171.16,-341.96 180.77,-344.77"/>
<polygon fill="#63b8ff" stroke="#63b8ff" points="76.17,-255.37 67.37,-249.48 70.57,-259.58 76.17,-255.37"/>
</a>
</g>
</g>
<!-- Node15 -->
<g id="Node000015" class="node">
<title>Node15</title>
<g id="a_Node000015"><a xlink:href="classSetChannelCommand.html" target="_top" xlink:title=" ">
<polygon fill="white" stroke="#666666" points="274.62,-20 162.62,-20 162.62,0 274.62,0 274.62,-20"/>
<text text-anchor="middle" x="218.62" y="-6.5" font-family="Helvetica,sans-Serif" font-size="10.00">SetChannelCommand</text>
</a>
</g>
</g>
<!-- Node4&#45;&gt;Node15 -->
<g id="edge16_Node000004_Node000015" class="edge">
<title>Node4&#45;&gt;Node15</title>
<g id="a_edge16_Node000004_Node000015"><a xlink:title=" ">
<path fill="none" stroke="#63b8ff" d="M62.69,-216.63C70.61,-174.39 94.17,-79.9 152.5,-29 156.4,-25.59 160.89,-22.8 165.64,-20.5"/>
<polygon fill="#63b8ff" stroke="#63b8ff" points="59.24,-216.01 60.97,-226.47 66.14,-217.22 59.24,-216.01"/>
</a>
</g>
</g>
<!-- Node17 -->
<g id="Node000017" class="node">
<title>Node17</title>
<g id="a_Node000017"><a xlink:href="classTextsCommand.html" target="_top" xlink:title=" ">
<polygon fill="white" stroke="#666666" points="261.12,-324 176.12,-324 176.12,-304 261.12,-304 261.12,-324"/>
<text text-anchor="middle" x="218.62" y="-310.5" font-family="Helvetica,sans-Serif" font-size="10.00">TextsCommand</text>
</a>
</g>
</g>
<!-- Node4&#45;&gt;Node17 -->
<g id="edge17_Node000004_Node000017" class="edge">
<title>Node4&#45;&gt;Node17</title>
<g id="a_edge17_Node000004_Node000017"><a xlink:title=" ">
<path fill="none" stroke="#63b8ff" d="M82.72,-254.77C101.03,-267.23 127.46,-283.93 152.5,-295 159.82,-298.24 167.85,-301.1 175.7,-303.55"/>
<polygon fill="#63b8ff" stroke="#63b8ff" points="84.91,-252.02 74.69,-249.2 80.92,-257.78 84.91,-252.02"/>
</a>
</g>
</g>
<!-- Node16 -->
<g id="Node000016" class="node">
<title>Node16</title>
<g id="a_Node000016"><a xlink:href="classIMemberCommand.html" target="_top" xlink:title=" ">
<polygon fill="white" stroke="#666666" points="107.88,-20 8.62,-20 8.62,0 107.88,0 107.88,-20"/>
<text text-anchor="middle" x="58.25" y="-6.5" font-family="Helvetica,sans-Serif" font-size="10.00">IMemberCommand</text>
</a>
</g>
</g>
<!-- Node16&#45;&gt;Node15 -->
<g id="edge18_Node000016_Node000015" class="edge">
<title>Node16&#45;&gt;Node15</title>
<g id="a_edge18_Node000016_Node000015"><a xlink:title=" ">
<path fill="none" stroke="#63b8ff" d="M119.19,-10C133.35,-10 148.39,-10 162.34,-10"/>
<polygon fill="#63b8ff" stroke="#63b8ff" points="119.57,-6.5 109.57,-10 119.57,-13.5 119.57,-6.5"/>
</a>
</g>
</g>
<!-- Node11 -->
<g id="Node000011" class="node">
<title>Node11</title>
<g id="a_Node000011"><a xlink:href="classIReactionCommand.html" target="_top" xlink:title=" ">
<polygon fill="white" stroke="#666666" points="109.75,-58 6.75,-58 6.75,-38 109.75,-38 109.75,-58"/>
<text text-anchor="middle" x="58.25" y="-44.5" font-family="Helvetica,sans-Serif" font-size="10.00">IReactionCommand</text>
</a>
</g>
</g>
<!-- Node11&#45;&gt;Node10 -->
<g id="edge19_Node000011_Node000010" class="edge">
<title>Node11&#45;&gt;Node10</title>
<g id="a_edge19_Node000011_Node000010"><a xlink:title=" ">
<path fill="none" stroke="#63b8ff" d="M121.55,-48C140.57,-48 160.96,-48 178.04,-48"/>
<polygon fill="#63b8ff" stroke="#63b8ff" points="121.75,-44.5 111.75,-48 121.75,-51.5 121.75,-44.5"/>
</a>
</g>
</g>
</g>
</svg>
