<?xml version="1.0" encoding="UTF-8" standalone="no"?>
<!DOCTYPE svg PUBLIC "-//W3C//DTD SVG 1.1//EN"
 "http://www.w3.org/Graphics/SVG/1.1/DTD/svg11.dtd">
<!-- Generated by graphviz version 12.2.1 (0)
 -->
<!-- Title: Graphical Class Hierarchy Pages: 1 -->
<svg width="308pt" height="864pt"
 viewBox="0.00 0.00 307.75 864.00" xmlns="http://www.w3.org/2000/svg" xmlns:xlink="http://www.w3.org/1999/xlink">
<g id="graph0" class="graph" transform="scale(1 1) rotate(0) translate(4 860)">
<title>Graphical Class Hierarchy</title>
<!-- Node0 -->
<g id="Node000000" class="node">
<title>Node0</title>
<g id="a_Node000000"><a xlink:href="classIButtonCommand.html" target="_top" xlink:title=" ">
<polygon fill="white" stroke="#666666" points="104.5,-856 12,-856 12,-836 104.5,-836 104.5,-856"/>
<text text-anchor="middle" x="58.25" y="-842.5" font-family="Helvetica,sans-Serif" font-size="10.00">IButtonCommand</text>
</a>
</g>
</g>
<!-- Node1 -->
<g id="Node000001" class="node">
<title>Node1</title>
<g id="a_Node000001"><a xlink:href="classChallengeBadgeCommand.html" target="_top" xlink:title=" ">
<polygon fill="white" stroke="#666666" points="292.25,-818 160,-818 160,-798 292.25,-798 292.25,-818"/>
<text text-anchor="middle" x="226.12" y="-804.5" font-family="Helvetica,sans-Serif" font-size="10.00">ChallengeBadgeCommand</text>
</a>
</g>
</g>
<!-- Node0&#45;&gt;Node1 -->
<g id="edge2_Node000000_Node000001" class="edge">
<title>Node0&#45;&gt;Node1</title>
<g id="a_edge2_Node000000_Node000001"><a xlink:title=" ">
<path fill="none" stroke="#63b8ff" d="M115.54,-833.1C136.4,-828.33 159.78,-822.97 179.57,-818.44"/>
<polygon fill="#63b8ff" stroke="#63b8ff" points="115.02,-829.63 106.05,-835.28 116.58,-836.46 115.02,-829.63"/>
</a>
</g>
</g>
<!-- Node3 -->
<g id="Node000003" class="node">
<title>Node3</title>
<g id="a_Node000003"><a xlink:href="classChallengeRoleCommand.html" target="_top" xlink:title=" ">
<polygon fill="white" stroke="#666666" points="288.5,-856 163.75,-856 163.75,-836 288.5,-836 288.5,-856"/>
<text text-anchor="middle" x="226.12" y="-842.5" font-family="Helvetica,sans-Serif" font-size="10.00">ChallengeRoleCommand</text>
</a>
</g>
</g>
<!-- Node0&#45;&gt;Node3 -->
<g id="edge3_Node000000_Node000003" class="edge">
<title>Node0&#45;&gt;Node3</title>
<g id="a_edge3_Node000000_Node000003"><a xlink:title=" ">
<path fill="none" stroke="#63b8ff" d="M115.96,-846C131.24,-846 147.84,-846 163.37,-846"/>
<polygon fill="#63b8ff" stroke="#63b8ff" points="116.09,-842.5 106.09,-846 116.09,-849.5 116.09,-842.5"/>
</a>
</g>
</g>
<!-- Node2 -->
<g id="Node000002" class="node">
<title>Node2</title>
<g id="a_Node000002"><a xlink:href="classIFormCommand.html" target="_top" xlink:title=" ">
<polygon fill="white" stroke="#666666" points="101.5,-818 15,-818 15,-798 101.5,-798 101.5,-818"/>
<text text-anchor="middle" x="58.25" y="-804.5" font-family="Helvetica,sans-Serif" font-size="10.00">IFormCommand</text>
</a>
</g>
</g>
<!-- Node2&#45;&gt;Node1 -->
<g id="edge4_Node000002_Node000001" class="edge">
<title>Node2&#45;&gt;Node1</title>
<g id="a_edge4_Node000002_Node000001"><a xlink:title=" ">
<path fill="none" stroke="#63b8ff" d="M113.46,-808C128.22,-808 144.37,-808 159.68,-808"/>
<polygon fill="#63b8ff" stroke="#63b8ff" points="113.48,-804.5 103.48,-808 113.48,-811.5 113.48,-804.5"/>
</a>
</g>
</g>
<!-- Node2&#45;&gt;Node3 -->
<g id="edge5_Node000002_Node000003" class="edge">
<title>Node2&#45;&gt;Node3</title>
<g id="a_edge5_Node000002_Node000003"><a xlink:title=" ">
<path fill="none" stroke="#63b8ff" d="M113.17,-820.35C134.54,-825.25 158.86,-830.82 179.35,-835.51"/>
<polygon fill="#63b8ff" stroke="#63b8ff" points="113.97,-816.95 103.44,-818.12 112.41,-823.77 113.97,-816.95"/>
</a>
</g>
</g>
<!-- Node4 -->
<g id="Node000004" class="node">
<title>Node4</title>
<g id="a_Node000004"><a xlink:href="classIGlobalSlashCommand.html" target="_top" xlink:title=" ">
<polygon fill="white" stroke="#666666" points="116.5,-495 0,-495 0,-475 116.5,-475 116.5,-495"/>
<text text-anchor="middle" x="58.25" y="-481.5" font-family="Helvetica,sans-Serif" font-size="10.00">IGlobalSlashCommand</text>
</a>
</g>
</g>
<!-- Node4&#45;&gt;Node1 -->
<g id="edge8_Node000004_Node000001" class="edge">
<title>Node4&#45;&gt;Node1</title>
<g id="a_edge8_Node000004_Node000001"><a xlink:title=" ">
<path fill="none" stroke="#63b8ff" d="M59.15,-506.66C60.11,-562.14 70.63,-710.48 152.5,-789 156.07,-792.43 160.19,-795.26 164.6,-797.59"/>
<polygon fill="#63b8ff" stroke="#63b8ff" points="62.65,-506.95 59.08,-496.98 55.65,-507 62.65,-506.95"/>
</a>
</g>
</g>
<!-- Node4&#45;&gt;Node3 -->
<g id="edge9_Node000004_Node000003" class="edge">
<title>Node4&#45;&gt;Node3</title>
<g id="a_edge9_Node000004_Node000003"><a xlink:title=" ">
<path fill="none" stroke="#63b8ff" d="M62.28,-506.56C72.22,-574.26 105.86,-780.84 152.5,-827 155.93,-830.39 159.88,-833.2 164.14,-835.52"/>
<polygon fill="#63b8ff" stroke="#63b8ff" points="65.76,-506.18 60.87,-496.78 58.83,-507.17 65.76,-506.18"/>
</a>
</g>
</g>
<!-- Node5 -->
<g id="Node000005" class="node">
<title>Node5</title>
<g id="a_Node000005"><a xlink:href="classAddResourcesCommand.html" target="_top" xlink:title=" ">
<polygon fill="white" stroke="#666666" points="288.88,-438 163.38,-438 163.38,-418 288.88,-418 288.88,-438"/>
<text text-anchor="middle" x="226.12" y="-424.5" font-family="Helvetica,sans-Serif" font-size="10.00">AddResourcesCommand</text>
</a>
</g>
</g>
<!-- Node4&#45;&gt;Node5 -->
<g id="edge6_Node000004_Node000005" class="edge">
<title>Node4&#45;&gt;Node5</title>
<g id="a_edge6_Node000004_Node000005"><a xlink:title=" ">
<path fill="none" stroke="#63b8ff" d="M92.63,-470.15C110.23,-462.64 132.31,-453.72 152.5,-447 161.77,-443.91 171.85,-441 181.46,-438.43"/>
<polygon fill="#63b8ff" stroke="#63b8ff" points="91.49,-466.84 83.7,-474.01 94.27,-473.26 91.49,-466.84"/>
</a>
</g>
</g>
<!-- Node6 -->
<g id="Node000006" class="node">
<title>Node6</title>
<g id="a_Node000006"><a xlink:href="classBlacklistCommand.html" target="_top" xlink:title=" ">
<polygon fill="white" stroke="#666666" points="275.38,-400 176.88,-400 176.88,-380 275.38,-380 275.38,-400"/>
<text text-anchor="middle" x="226.12" y="-386.5" font-family="Helvetica,sans-Serif" font-size="10.00">BlacklistCommand</text>
</a>
</g>
</g>
<!-- Node4&#45;&gt;Node6 -->
<g id="edge7_Node000004_Node000006" class="edge">
<title>Node4&#45;&gt;Node6</title>
<g id="a_edge7_Node000004_Node000006"><a xlink:title=" ">
<path fill="none" stroke="#63b8ff" d="M76.52,-467.01C94.1,-449.71 122.89,-424.03 152.5,-409 159.94,-405.22 168.19,-402.15 176.4,-399.66"/>
<polygon fill="#63b8ff" stroke="#63b8ff" points="74.47,-464.11 69.91,-473.67 79.44,-469.04 74.47,-464.11"/>
</a>
</g>
</g>
<!-- Node7 -->
<g id="Node000007" class="node">
<title>Node7</title>
<g id="a_Node000007"><a xlink:href="classClearCommand.html" target="_top" xlink:title=" ">
<polygon fill="white" stroke="#666666" points="268.25,-362 184,-362 184,-342 268.25,-342 268.25,-362"/>
<text text-anchor="middle" x="226.12" y="-348.5" font-family="Helvetica,sans-Serif" font-size="10.00">ClearCommand</text>
</a>
</g>
</g>
<!-- Node4&#45;&gt;Node7 -->
<g id="edge10_Node000004_Node000007" class="edge">
<title>Node4&#45;&gt;Node7</title>
<g id="a_edge10_Node000004_Node000007"><a xlink:title=" ">
<path fill="none" stroke="#63b8ff" d="M70.27,-464.86C85.39,-439.12 115.03,-395.05 152.5,-371 161.82,-365.02 172.96,-360.91 183.68,-358.1"/>
<polygon fill="#63b8ff" stroke="#63b8ff" points="67.34,-462.91 65.44,-473.33 73.43,-466.37 67.34,-462.91"/>
</a>
</g>
</g>
<!-- Node8 -->
<g id="Node000008" class="node">
<title>Node8</title>
<g id="a_Node000008"><a xlink:href="classFlipCommand.html" target="_top" xlink:title=" ">
<polygon fill="white" stroke="#666666" points="264.5,-324 187.75,-324 187.75,-304 264.5,-304 264.5,-324"/>
<text text-anchor="middle" x="226.12" y="-310.5" font-family="Helvetica,sans-Serif" font-size="10.00">FlipCommand</text>
</a>
</g>
</g>
<!-- Node4&#45;&gt;Node8 -->
<g id="edge11_Node000004_Node000008" class="edge">
<title>Node4&#45;&gt;Node8</title>
<g id="a_edge11_Node000004_Node000008"><a xlink:title=" ">
<path fill="none" stroke="#63b8ff" d="M66.3,-463.94C78.48,-430.86 106.66,-367 152.5,-333 162.55,-325.55 175.27,-321.01 187.26,-318.25"/>
<polygon fill="#63b8ff" stroke="#63b8ff" points="63.06,-462.6 63.04,-473.19 69.66,-464.93 63.06,-462.6"/>
</a>
</g>
</g>
<!-- Node9 -->
<g id="Node000009" class="node">
<title>Node9</title>
<g id="a_Node000009"><a xlink:href="classGetResourcesCommand.html" target="_top" xlink:title=" ">
<polygon fill="white" stroke="#666666" points="288.12,-286 164.12,-286 164.12,-266 288.12,-266 288.12,-286"/>
<text text-anchor="middle" x="226.12" y="-272.5" font-family="Helvetica,sans-Serif" font-size="10.00">GetResourcesCommand</text>
</a>
</g>
</g>
<!-- Node4&#45;&gt;Node9 -->
<g id="edge12_Node000004_Node000009" class="edge">
<title>Node4&#45;&gt;Node9</title>
<g id="a_edge12_Node000004_Node000009"><a xlink:title=" ">
<path fill="none" stroke="#63b8ff" d="M63.55,-463.81C72.68,-424.37 97.82,-339.69 152.5,-295 156.74,-291.54 161.54,-288.7 166.61,-286.37"/>
<polygon fill="#63b8ff" stroke="#63b8ff" points="60.16,-462.92 61.45,-473.43 67,-464.41 60.16,-462.92"/>
</a>
</g>
</g>
<!-- Node10 -->
<g id="Node000010" class="node">
<title>Node10</title>
<g id="a_Node000010"><a xlink:href="classHelpCommand.html" target="_top" xlink:title=" ">
<polygon fill="white" stroke="#666666" points="266.75,-248 185.5,-248 185.5,-228 266.75,-228 266.75,-248"/>
<text text-anchor="middle" x="226.12" y="-234.5" font-family="Helvetica,sans-Serif" font-size="10.00">HelpCommand</text>
</a>
</g>
</g>
<!-- Node4&#45;&gt;Node10 -->
<g id="edge13_Node000004_Node000010" class="edge">
<title>Node4&#45;&gt;Node10</title>
<g id="a_edge13_Node000004_Node000010"><a xlink:title=" ">
<path fill="none" stroke="#63b8ff" d="M61.64,-463.73C67.87,-418.59 88.82,-312.76 152.5,-257 161.52,-249.1 173.44,-244.43 185,-241.68"/>
<polygon fill="#63b8ff" stroke="#63b8ff" points="58.19,-463.13 60.41,-473.49 65.13,-464.01 58.19,-463.13"/>
</a>
</g>
</g>
<!-- Node11 -->
<g id="Node000011" class="node">
<title>Node11</title>
<g id="a_Node000011"><a xlink:href="classInviteCommand.html" target="_top" xlink:title=" ">
<polygon fill="white" stroke="#666666" points="268.62,-780 183.62,-780 183.62,-760 268.62,-760 268.62,-780"/>
<text text-anchor="middle" x="226.12" y="-766.5" font-family="Helvetica,sans-Serif" font-size="10.00">InviteCommand</text>
</a>
</g>
</g>
<!-- Node4&#45;&gt;Node11 -->
<g id="edge14_Node000004_Node000011" class="edge">
<title>Node4&#45;&gt;Node11</title>
<g id="a_edge14_Node000004_Node000011"><a xlink:title=" ">
<path fill="none" stroke="#63b8ff" d="M60.25,-506.63C63.79,-557.21 79.85,-684.03 152.5,-751 160.93,-758.77 172.15,-763.45 183.24,-766.24"/>
<polygon fill="#63b8ff" stroke="#63b8ff" points="63.75,-506.53 59.67,-496.75 56.76,-506.94 63.75,-506.53"/>
</a>
</g>
</g>
<!-- Node12 -->
<g id="Node000012" class="node">
<title>Node12</title>
<g id="a_Node000012"><a xlink:href="classLearnCPPCommand.html" target="_top" xlink:title=" ">
<polygon fill="white" stroke="#666666" points="279.12,-742 173.12,-742 173.12,-722 279.12,-722 279.12,-742"/>
<text text-anchor="middle" x="226.12" y="-728.5" font-family="Helvetica,sans-Serif" font-size="10.00">LearnCPPCommand</text>
</a>
</g>
</g>
<!-- Node4&#45;&gt;Node12 -->
<g id="edge15_Node000004_Node000012" class="edge">
<title>Node4&#45;&gt;Node12</title>
<g id="a_edge15_Node000004_Node000012"><a xlink:title=" ">
<path fill="none" stroke="#63b8ff" d="M61.64,-506.27C67.87,-551.41 88.82,-657.24 152.5,-713 158.38,-718.15 165.5,-721.93 172.94,-724.7"/>
<polygon fill="#63b8ff" stroke="#63b8ff" points="65.13,-505.99 60.41,-496.51 58.19,-506.87 65.13,-505.99"/>
</a>
</g>
</g>
<!-- Node13 -->
<g id="Node000013" class="node">
<title>Node13</title>
<g id="a_Node000013"><a xlink:href="classProfileCommand.html" target="_top" xlink:title=" ">
<polygon fill="white" stroke="#666666" points="270.5,-704 181.75,-704 181.75,-684 270.5,-684 270.5,-704"/>
<text text-anchor="middle" x="226.12" y="-690.5" font-family="Helvetica,sans-Serif" font-size="10.00">ProfileCommand</text>
</a>
</g>
</g>
<!-- Node4&#45;&gt;Node13 -->
<g id="edge16_Node000004_Node000013" class="edge">
<title>Node4&#45;&gt;Node13</title>
<g id="a_edge16_Node000004_Node000013"><a xlink:title=" ">
<path fill="none" stroke="#63b8ff" d="M63.55,-506.19C72.68,-545.63 97.82,-630.31 152.5,-675 160.77,-681.76 171.2,-686.14 181.55,-688.97"/>
<polygon fill="#63b8ff" stroke="#63b8ff" points="67,-505.59 61.45,-496.57 60.16,-507.08 67,-505.59"/>
</a>
</g>
</g>
<!-- Node14 -->
<g id="Node000014" class="node">
<title>Node14</title>
<g id="a_Node000014"><a xlink:href="classReactionRoles.html" target="_top" xlink:title=" ">
<polygon fill="white" stroke="#666666" points="266.38,-210 185.88,-210 185.88,-190 266.38,-190 266.38,-210"/>
<text text-anchor="middle" x="226.12" y="-196.5" font-family="Helvetica,sans-Serif" font-size="10.00">ReactionRoles</text>
</a>
</g>
</g>
<!-- Node4&#45;&gt;Node14 -->
<g id="edge17_Node000004_Node000014" class="edge">
<title>Node4&#45;&gt;Node14</title>
<g id="a_edge17_Node000004_Node000014"><a xlink:title=" ">
<path fill="none" stroke="#63b8ff" d="M60.25,-463.37C63.79,-412.79 79.85,-285.97 152.5,-219 161.51,-210.7 173.69,-205.93 185.51,-203.22"/>
<polygon fill="#63b8ff" stroke="#63b8ff" points="56.76,-463.06 59.67,-473.25 63.75,-463.47 56.76,-463.06"/>
</a>
</g>
</g>
<!-- Node19 -->
<g id="Node000019" class="node">
<title>Node19</title>
<g id="a_Node000019"><a xlink:href="classReminderCommand.html" target="_top" xlink:title=" ">
<polygon fill="white" stroke="#666666" points="277.62,-666 174.62,-666 174.62,-646 277.62,-646 277.62,-666"/>
<text text-anchor="middle" x="226.12" y="-652.5" font-family="Helvetica,sans-Serif" font-size="10.00">ReminderCommand</text>
</a>
</g>
</g>
<!-- Node4&#45;&gt;Node19 -->
<g id="edge18_Node000004_Node000019" class="edge">
<title>Node4&#45;&gt;Node19</title>
<g id="a_edge18_Node000004_Node000019"><a xlink:title=" ">
<path fill="none" stroke="#63b8ff" d="M66.3,-506.06C78.48,-539.14 106.66,-603 152.5,-637 158.99,-641.81 166.6,-645.41 174.4,-648.1"/>
<polygon fill="#63b8ff" stroke="#63b8ff" points="69.66,-505.07 63.04,-496.81 63.06,-507.4 69.66,-505.07"/>
</a>
</g>
</g>
<!-- Node20 -->
<g id="Node000020" class="node">
<title>Node20</title>
<g id="a_Node000020"><a xlink:href="classRemoveNotificationCommand.html" target="_top" xlink:title=" ">
<polygon fill="white" stroke="#666666" points="299.75,-628 152.5,-628 152.5,-608 299.75,-608 299.75,-628"/>
<text text-anchor="middle" x="226.12" y="-614.5" font-family="Helvetica,sans-Serif" font-size="10.00">RemoveNotificationCommand</text>
</a>
</g>
</g>
<!-- Node4&#45;&gt;Node20 -->
<g id="edge19_Node000004_Node000020" class="edge">
<title>Node4&#45;&gt;Node20</title>
<g id="a_edge19_Node000004_Node000020"><a xlink:title=" ">
<path fill="none" stroke="#63b8ff" d="M70.27,-505.14C85.39,-530.88 115.03,-574.95 152.5,-599 157.87,-602.45 163.85,-605.27 170.01,-607.59"/>
<polygon fill="#63b8ff" stroke="#63b8ff" points="73.43,-503.63 65.44,-496.67 67.34,-507.09 73.43,-503.63"/>
</a>
</g>
</g>
<!-- Node21 -->
<g id="Node000021" class="node">
<title>Node21</title>
<g id="a_Node000021"><a xlink:href="classRemovePortalCommand.html" target="_top" xlink:title=" ">
<polygon fill="white" stroke="#666666" points="287.75,-590 164.5,-590 164.5,-570 287.75,-570 287.75,-590"/>
<text text-anchor="middle" x="226.12" y="-576.5" font-family="Helvetica,sans-Serif" font-size="10.00">RemovePortalCommand</text>
</a>
</g>
</g>
<!-- Node4&#45;&gt;Node21 -->
<g id="edge20_Node000004_Node000021" class="edge">
<title>Node4&#45;&gt;Node21</title>
<g id="a_edge20_Node000004_Node000021"><a xlink:title=" ">
<path fill="none" stroke="#63b8ff" d="M76.52,-502.99C94.1,-520.29 122.89,-545.97 152.5,-561 159.12,-564.36 166.4,-567.17 173.71,-569.5"/>
<polygon fill="#63b8ff" stroke="#63b8ff" points="79.44,-500.96 69.91,-496.33 74.47,-505.89 79.44,-500.96"/>
</a>
</g>
</g>
<!-- Node22 -->
<g id="Node000022" class="node">
<title>Node22</title>
<g id="a_Node000022"><a xlink:href="classRollCommand.html" target="_top" xlink:title=" ">
<polygon fill="white" stroke="#666666" points="265.25,-552 187,-552 187,-532 265.25,-532 265.25,-552"/>
<text text-anchor="middle" x="226.12" y="-538.5" font-family="Helvetica,sans-Serif" font-size="10.00">RollCommand</text>
</a>
</g>
</g>
<!-- Node4&#45;&gt;Node22 -->
<g id="edge21_Node000004_Node000022" class="edge">
<title>Node4&#45;&gt;Node22</title>
<g id="a_edge21_Node000004_Node000022"><a xlink:title=" ">
<path fill="none" stroke="#63b8ff" d="M92.63,-499.85C110.23,-507.36 132.31,-516.28 152.5,-523 163.51,-526.66 175.64,-530.08 186.78,-532.97"/>
<polygon fill="#63b8ff" stroke="#63b8ff" points="94.27,-496.74 83.7,-495.99 91.49,-503.16 94.27,-496.74"/>
</a>
</g>
</g>
<!-- Node23 -->
<g id="Node000023" class="node">
<title>Node23</title>
<g id="a_Node000023"><a xlink:href="classServerDetails.html" target="_top" xlink:title=" ">
<polygon fill="white" stroke="#666666" points="263.75,-514 188.5,-514 188.5,-494 263.75,-494 263.75,-514"/>
<text text-anchor="middle" x="226.12" y="-500.5" font-family="Helvetica,sans-Serif" font-size="10.00">ServerDetails</text>
</a>
</g>
</g>
<!-- Node4&#45;&gt;Node23 -->
<g id="edge22_Node000004_Node000023" class="edge">
<title>Node4&#45;&gt;Node23</title>
<g id="a_edge22_Node000004_Node000023"><a xlink:title=" ">
<path fill="none" stroke="#63b8ff" d="M128.13,-492.89C148.81,-495.26 170.7,-497.77 188.43,-499.8"/>
<polygon fill="#63b8ff" stroke="#63b8ff" points="128.64,-489.43 118.3,-491.76 127.84,-496.38 128.64,-489.43"/>
</a>
</g>
</g>
<!-- Node24 -->
<g id="Node000024" class="node">
<title>Node24</title>
<g id="a_Node000024"><a xlink:href="classSetNotificationCommand.html" target="_top" xlink:title=" ">
<polygon fill="white" stroke="#666666" points="288.88,-134 163.38,-134 163.38,-114 288.88,-114 288.88,-134"/>
<text text-anchor="middle" x="226.12" y="-120.5" font-family="Helvetica,sans-Serif" font-size="10.00">SetNotificationCommand</text>
</a>
</g>
</g>
<!-- Node4&#45;&gt;Node24 -->
<g id="edge23_Node000004_Node000024" class="edge">
<title>Node4&#45;&gt;Node24</title>
<g id="a_edge23_Node000004_Node000024"><a xlink:title=" ">
<path fill="none" stroke="#63b8ff" d="M62.28,-463.44C72.22,-395.74 105.86,-189.16 152.5,-143 155.93,-139.61 159.88,-136.8 164.14,-134.48"/>
<polygon fill="#63b8ff" stroke="#63b8ff" points="58.83,-462.83 60.87,-473.22 65.76,-463.82 58.83,-462.83"/>
</a>
</g>
</g>
<!-- Node16 -->
<g id="Node000016" class="node">
<title>Node16</title>
<g id="a_Node000016"><a xlink:href="classSetPortalCommand.html" target="_top" xlink:title=" ">
<polygon fill="white" stroke="#666666" points="276.88,-172 175.38,-172 175.38,-152 276.88,-152 276.88,-172"/>
<text text-anchor="middle" x="226.12" y="-158.5" font-family="Helvetica,sans-Serif" font-size="10.00">SetPortalCommand</text>
</a>
</g>
</g>
<!-- Node4&#45;&gt;Node16 -->
<g id="edge24_Node000004_Node000016" class="edge">
<title>Node4&#45;&gt;Node16</title>
<g id="a_edge24_Node000004_Node000016"><a xlink:title=" ">
<path fill="none" stroke="#63b8ff" d="M59.15,-463.34C60.11,-407.86 70.63,-259.52 152.5,-181 158.8,-174.96 166.78,-170.77 175.12,-167.89"/>
<polygon fill="#63b8ff" stroke="#63b8ff" points="55.65,-463 59.08,-473.02 62.65,-463.05 55.65,-463"/>
</a>
</g>
</g>
<!-- Node28 -->
<g id="Node000028" class="node">
<title>Node28</title>
<g id="a_Node000028"><a xlink:href="classWarnCommand.html" target="_top" xlink:title=" ">
<polygon fill="white" stroke="#666666" points="267.88,-476 184.38,-476 184.38,-456 267.88,-456 267.88,-476"/>
<text text-anchor="middle" x="226.12" y="-462.5" font-family="Helvetica,sans-Serif" font-size="10.00">WarnCommand</text>
</a>
</g>
</g>
<!-- Node4&#45;&gt;Node28 -->
<g id="edge25_Node000004_Node000028" class="edge">
<title>Node4&#45;&gt;Node28</title>
<g id="a_edge25_Node000004_Node000028"><a xlink:title=" ">
<path fill="none" stroke="#63b8ff" d="M128.12,-477.11C147.07,-474.94 167.03,-472.65 183.88,-470.72"/>
<polygon fill="#63b8ff" stroke="#63b8ff" points="127.84,-473.62 118.3,-478.24 128.64,-480.57 127.84,-473.62"/>
</a>
</g>
</g>
<!-- Node17 -->
<g id="Node000017" class="node">
<title>Node17</title>
<g id="a_Node000017"><a xlink:href="classIMessageCommand.html" target="_top" xlink:title=" ">
<polygon fill="white" stroke="#666666" points="110.12,-115 6.38,-115 6.38,-95 110.12,-95 110.12,-115"/>
<text text-anchor="middle" x="58.25" y="-101.5" font-family="Helvetica,sans-Serif" font-size="10.00">IMessageCommand</text>
</a>
</g>
</g>
<!-- Node17&#45;&gt;Node16 -->
<g id="edge27_Node000017_Node000016" class="edge">
<title>Node17&#45;&gt;Node16</title>
<g id="a_edge27_Node000017_Node000016"><a xlink:title=" ">
<path fill="none" stroke="#63b8ff" d="M92.63,-119.85C110.23,-127.36 132.31,-136.28 152.5,-143 161.77,-146.09 171.85,-149 181.46,-151.57"/>
<polygon fill="#63b8ff" stroke="#63b8ff" points="94.27,-116.74 83.7,-115.99 91.49,-123.16 94.27,-116.74"/>
</a>
</g>
</g>
<!-- Node18 -->
<g id="Node000018" class="node">
<title>Node18</title>
<g id="a_Node000018"><a xlink:href="classCleanUp.html" target="_top" xlink:title=" ">
<polygon fill="white" stroke="#666666" points="253.25,-96 199,-96 199,-76 253.25,-76 253.25,-96"/>
<text text-anchor="middle" x="226.12" y="-82.5" font-family="Helvetica,sans-Serif" font-size="10.00">CleanUp</text>
</a>
</g>
</g>
<!-- Node17&#45;&gt;Node18 -->
<g id="edge26_Node000017_Node000018" class="edge">
<title>Node17&#45;&gt;Node18</title>
<g id="a_edge26_Node000017_Node000018"><a xlink:title=" ">
<path fill="none" stroke="#63b8ff" d="M121.62,-97.86C148.4,-94.79 178.22,-91.37 198.95,-89"/>
<polygon fill="#63b8ff" stroke="#63b8ff" points="121.41,-94.36 111.88,-98.97 122.21,-101.31 121.41,-94.36"/>
</a>
</g>
</g>
<!-- Node15 -->
<g id="Node000015" class="node">
<title>Node15</title>
<g id="a_Node000015"><a xlink:href="classIReactionCommand.html" target="_top" xlink:title=" ">
<polygon fill="white" stroke="#666666" points="109.75,-191 6.75,-191 6.75,-171 109.75,-171 109.75,-191"/>
<text text-anchor="middle" x="58.25" y="-177.5" font-family="Helvetica,sans-Serif" font-size="10.00">IReactionCommand</text>
</a>
</g>
</g>
<!-- Node15&#45;&gt;Node14 -->
<g id="edge28_Node000015_Node000014" class="edge">
<title>Node15&#45;&gt;Node14</title>
<g id="a_edge28_Node000015_Node000014"><a xlink:title=" ">
<path fill="none" stroke="#63b8ff" d="M121.29,-188.11C142.81,-190.57 166.34,-193.27 185.55,-195.47"/>
<polygon fill="#63b8ff" stroke="#63b8ff" points="121.76,-184.64 111.42,-186.98 120.96,-191.59 121.76,-184.64"/>
</a>
</g>
</g>
<!-- Node15&#45;&gt;Node16 -->
<g id="edge29_Node000015_Node000016" class="edge">
<title>Node15&#45;&gt;Node16</title>
<g id="a_edge29_Node000015_Node000016"><a xlink:title=" ">
<path fill="none" stroke="#63b8ff" d="M121.33,-173.89C139.06,-171.86 158.14,-169.67 175.05,-167.74"/>
<polygon fill="#63b8ff" stroke="#63b8ff" points="120.96,-170.41 111.42,-175.02 121.76,-177.36 120.96,-170.41"/>
</a>
</g>
</g>
<!-- Node25 -->
<g id="Node000025" class="node">
<title>Node25</title>
<g id="a_Node000025"><a xlink:href="classIReady.html" target="_top" xlink:title=" ">
<polygon fill="white" stroke="#666666" points="82,-58 34.5,-58 34.5,-38 82,-38 82,-58"/>
<text text-anchor="middle" x="58.25" y="-44.5" font-family="Helvetica,sans-Serif" font-size="10.00">IReady</text>
</a>
</g>
</g>
<!-- Node25&#45;&gt;Node24 -->
<g id="edge31_Node000025_Node000024" class="edge">
<title>Node25&#45;&gt;Node24</title>
<g id="a_edge31_Node000025_Node000024"><a xlink:title=" ">
<path fill="none" stroke="#63b8ff" d="M84.24,-64.42C106.91,-79.1 138.81,-99.18 152.5,-105 160.3,-108.32 168.81,-111.17 177.19,-113.59"/>
<polygon fill="#63b8ff" stroke="#63b8ff" points="86.43,-61.67 76.14,-59.15 82.61,-67.54 86.43,-61.67"/>
</a>
</g>
</g>
<!-- Node26 -->
<g id="Node000026" class="node">
<title>Node26</title>
<g id="a_Node000026"><a xlink:href="classInitDatabase.html" target="_top" xlink:title=" ">
<polygon fill="white" stroke="#666666" points="261.88,-20 190.38,-20 190.38,0 261.88,0 261.88,-20"/>
<text text-anchor="middle" x="226.12" y="-6.5" font-family="Helvetica,sans-Serif" font-size="10.00">InitDatabase</text>
</a>
</g>
</g>
<!-- Node25&#45;&gt;Node26 -->
<g id="edge30_Node000025_Node000026" class="edge">
<title>Node25&#45;&gt;Node26</title>
<g id="a_edge30_Node000025_Node000026"><a xlink:title=" ">
<path fill="none" stroke="#63b8ff" d="M93.26,-40.21C121.52,-33.73 161.58,-24.56 190.11,-18.02"/>
<polygon fill="#63b8ff" stroke="#63b8ff" points="92.76,-36.73 83.79,-42.38 94.32,-43.56 92.76,-36.73"/>
</a>
</g>
</g>
<!-- Node27 -->
<g id="Node000027" class="node">
<title>Node27</title>
<g id="a_Node000027"><a xlink:href="classSetStatus.html" target="_top" xlink:title=" ">
<polygon fill="white" stroke="#666666" points="255.88,-58 196.38,-58 196.38,-38 255.88,-38 255.88,-58"/>
<text text-anchor="middle" x="226.12" y="-44.5" font-family="Helvetica,sans-Serif" font-size="10.00">SetStatus</text>
</a>
</g>
</g>
<!-- Node25&#45;&gt;Node27 -->
<g id="edge32_Node000025_Node000027" class="edge">
<title>Node25&#45;&gt;Node27</title>
<g id="a_edge32_Node000025_Node000027"><a xlink:title=" ">
<path fill="none" stroke="#63b8ff" d="M93.61,-48C123.9,-48 167.55,-48 196.13,-48"/>
<polygon fill="#63b8ff" stroke="#63b8ff" points="93.83,-44.5 83.83,-48 93.83,-51.5 93.83,-44.5"/>
</a>
</g>
</g>
</g>
</svg>
