<?xml version="1.0" encoding="UTF-8" standalone="no"?>
<!DOCTYPE svg PUBLIC "-//W3C//DTD SVG 1.1//EN"
 "http://www.w3.org/Graphics/SVG/1.1/DTD/svg11.dtd">
<!-- Generated by graphviz version 9.0.0 (0)
 -->
<!-- Title: src/bot_library/commands/init_database/InitDatabase.cpp Pages: 1 -->
<svg width="1644pt" height="376pt"
 viewBox="0.00 0.00 1644.25 376.00" xmlns="http://www.w3.org/2000/svg" xmlns:xlink="http://www.w3.org/1999/xlink">
<g id="graph0" class="graph" transform="scale(1 1) rotate(0) translate(4 372)">
<title>src/bot_library/commands/init_database/InitDatabase.cpp</title>
<!-- Node1 -->
<g id="Node000001" class="node">
<title>Node1</title>
<g id="a_Node000001"><a xlink:title=" ">
<polygon fill="#999999" stroke="#666666" points="1139.5,-368 985.5,-368 985.5,-336 1139.5,-336 1139.5,-368"/>
<text text-anchor="start" x="993.5" y="-354.5" font-family="Helvetica,sans-Serif" font-size="10.00">src/bot_library/commands</text>
<text text-anchor="middle" x="1062.5" y="-342.5" font-family="Helvetica,sans-Serif" font-size="10.00">/init_database/InitDatabase.cpp</text>
</a>
</g>
</g>
<!-- Node2 -->
<g id="Node000002" class="node">
<title>Node2</title>
<g id="a_Node000002"><a xlink:href="InitDatabase_8hpp.html" target="_top" xlink:title=" ">
<polygon fill="white" stroke="#666666" points="1107.62,-300 1017.38,-300 1017.38,-280 1107.62,-280 1107.62,-300"/>
<text text-anchor="middle" x="1062.5" y="-286.5" font-family="Helvetica,sans-Serif" font-size="10.00">InitDatabase.hpp</text>
</a>
</g>
</g>
<!-- Node1&#45;&gt;Node2 -->
<g id="edge1_Node000001_Node000002" class="edge">
<title>Node1&#45;&gt;Node2</title>
<g id="a_edge1_Node000001_Node000002"><a xlink:title=" ">
<path fill="none" stroke="#63b8ff" d="M1062.5,-335.55C1062.5,-328.34 1062.5,-319.66 1062.5,-311.88"/>
<polygon fill="#63b8ff" stroke="#63b8ff" points="1066,-311.92 1062.5,-301.92 1059,-311.92 1066,-311.92"/>
</a>
</g>
</g>
<!-- Node3 -->
<g id="Node000003" class="node">
<title>Node3</title>
<g id="a_Node000003"><a xlink:href="Bot_8hpp.html" target="_top" xlink:title=" ">
<polygon fill="white" stroke="#666666" points="1087.38,-244 1037.62,-244 1037.62,-224 1087.38,-224 1087.38,-244"/>
<text text-anchor="middle" x="1062.5" y="-230.5" font-family="Helvetica,sans-Serif" font-size="10.00">Bot.hpp</text>
</a>
</g>
</g>
<!-- Node2&#45;&gt;Node3 -->
<g id="edge2_Node000002_Node000003" class="edge">
<title>Node2&#45;&gt;Node3</title>
<g id="a_edge2_Node000002_Node000003"><a xlink:title=" ">
<path fill="none" stroke="#63b8ff" d="M1062.5,-279.59C1062.5,-273.01 1062.5,-263.96 1062.5,-255.73"/>
<polygon fill="#63b8ff" stroke="#63b8ff" points="1066,-255.81 1062.5,-245.81 1059,-255.81 1066,-255.81"/>
</a>
</g>
</g>
<!-- Node4 -->
<g id="Node000004" class="node">
<title>Node4</title>
<g id="a_Node000004"><a xlink:href="Core_8hpp.html" target="_top" xlink:title=" ">
<polygon fill="white" stroke="#666666" points="880.38,-188 824.62,-188 824.62,-168 880.38,-168 880.38,-188"/>
<text text-anchor="middle" x="852.5" y="-174.5" font-family="Helvetica,sans-Serif" font-size="10.00">Core.hpp</text>
</a>
</g>
</g>
<!-- Node3&#45;&gt;Node4 -->
<g id="edge3_Node000003_Node000004" class="edge">
<title>Node3&#45;&gt;Node4</title>
<g id="a_edge3_Node000003_Node000004"><a xlink:title=" ">
<path fill="none" stroke="#63b8ff" d="M1037.17,-226.49C1001,-217.18 934.22,-200.01 891.65,-189.07"/>
<polygon fill="#63b8ff" stroke="#63b8ff" points="892.62,-185.7 882.06,-186.6 890.87,-192.48 892.62,-185.7"/>
</a>
</g>
</g>
<!-- Node13 -->
<g id="Node000013" class="node">
<title>Node13</title>
<g id="a_Node000013"><a xlink:title=" ">
<polygon fill="#e0e0e0" stroke="#999999" points="549.5,-76 509.5,-76 509.5,-56 549.5,-56 549.5,-76"/>
<text text-anchor="middle" x="529.5" y="-62.5" font-family="Helvetica,sans-Serif" font-size="10.00">string</text>
</a>
</g>
</g>
<!-- Node3&#45;&gt;Node13 -->
<g id="edge47_Node000003_Node000013" class="edge">
<title>Node3&#45;&gt;Node13</title>
<g id="a_edge47_Node000003_Node000013"><a xlink:title=" ">
<path fill="none" stroke="#63b8ff" d="M1037.28,-232.92C933.26,-232 539.64,-222.5 466.5,-132 451.51,-113.45 476.43,-94.05 499.21,-81.33"/>
<polygon fill="#63b8ff" stroke="#63b8ff" points="500.82,-84.44 508.04,-76.68 497.56,-78.24 500.82,-84.44"/>
</a>
</g>
</g>
<!-- Node15 -->
<g id="Node000015" class="node">
<title>Node15</title>
<g id="a_Node000015"><a xlink:title=" ">
<polygon fill="#e0e0e0" stroke="#999999" points="43,-76 0,-76 0,-56 43,-56 43,-76"/>
<text text-anchor="middle" x="21.5" y="-62.5" font-family="Helvetica,sans-Serif" font-size="10.00">vector</text>
</a>
</g>
</g>
<!-- Node3&#45;&gt;Node15 -->
<g id="edge48_Node000003_Node000015" class="edge">
<title>Node3&#45;&gt;Node15</title>
<g id="a_edge48_Node000003_Node000015"><a xlink:title=" ">
<path fill="none" stroke="#63b8ff" d="M1037.37,-231.86C960.18,-228.15 719.86,-215.07 522.5,-188 391.58,-170.04 358.68,-164.12 230.5,-132 167.16,-116.13 94.68,-92.28 53.87,-78.31"/>
<polygon fill="#63b8ff" stroke="#63b8ff" points="55.26,-75.09 44.67,-75.14 52.98,-81.71 55.26,-75.09"/>
</a>
</g>
</g>
<!-- Node17 -->
<g id="Node000017" class="node">
<title>Node17</title>
<g id="a_Node000017"><a xlink:href="IButtonCommand_8hpp.html" target="_top" xlink:title=" ">
<polygon fill="white" stroke="#666666" points="595.12,-132 483.88,-132 483.88,-112 595.12,-112 595.12,-132"/>
<text text-anchor="middle" x="539.5" y="-118.5" font-family="Helvetica,sans-Serif" font-size="10.00">IButtonCommand.hpp</text>
</a>
</g>
</g>
<!-- Node3&#45;&gt;Node17 -->
<g id="edge36_Node000003_Node000017" class="edge">
<title>Node3&#45;&gt;Node17</title>
<g id="a_edge36_Node000003_Node000017"><a xlink:title=" ">
<path fill="none" stroke="#63b8ff" d="M1037.17,-228.82C992.34,-221.34 896.14,-204.83 815.5,-188 735.42,-171.29 643,-148.88 588.01,-135.22"/>
<polygon fill="#63b8ff" stroke="#63b8ff" points="588.88,-131.83 578.33,-132.81 587.19,-138.62 588.88,-131.83"/>
</a>
</g>
</g>
<!-- Node20 -->
<g id="Node000020" class="node">
<title>Node20</title>
<g id="a_Node000020"><a xlink:href="IFormCommand_8hpp.html" target="_top" xlink:title=" ">
<polygon fill="white" stroke="#666666" points="983.12,-132 877.88,-132 877.88,-112 983.12,-112 983.12,-132"/>
<text text-anchor="middle" x="930.5" y="-118.5" font-family="Helvetica,sans-Serif" font-size="10.00">IFormCommand.hpp</text>
</a>
</g>
</g>
<!-- Node3&#45;&gt;Node20 -->
<g id="edge37_Node000003_Node000020" class="edge">
<title>Node3&#45;&gt;Node20</title>
<g id="a_edge37_Node000003_Node000020"><a xlink:title=" ">
<path fill="none" stroke="#63b8ff" d="M1051.25,-223.62C1028.84,-204.95 978.4,-162.92 950.32,-139.52"/>
<polygon fill="#63b8ff" stroke="#63b8ff" points="952.81,-137.04 942.89,-133.32 948.33,-142.41 952.81,-137.04"/>
</a>
</g>
</g>
<!-- Node21 -->
<g id="Node000021" class="node">
<title>Node21</title>
<g id="a_Node000021"><a xlink:href="IGlobalSlashCommand_8hpp.html" target="_top" xlink:title=" ">
<polygon fill="white" stroke="#666666" points="1136.12,-132 1000.88,-132 1000.88,-112 1136.12,-112 1136.12,-132"/>
<text text-anchor="middle" x="1068.5" y="-118.5" font-family="Helvetica,sans-Serif" font-size="10.00">IGlobalSlashCommand.hpp</text>
</a>
</g>
</g>
<!-- Node3&#45;&gt;Node21 -->
<g id="edge38_Node000003_Node000021" class="edge">
<title>Node3&#45;&gt;Node21</title>
<g id="a_edge38_Node000003_Node000021"><a xlink:title=" ">
<path fill="none" stroke="#63b8ff" d="M1063.01,-223.62C1063.97,-206.01 1066.07,-167.59 1067.37,-143.65"/>
<polygon fill="#63b8ff" stroke="#63b8ff" points="1070.86,-144.04 1067.91,-133.87 1063.87,-143.66 1070.86,-144.04"/>
</a>
</g>
</g>
<!-- Node22 -->
<g id="Node000022" class="node">
<title>Node22</title>
<g id="a_Node000022"><a xlink:href="IMemberCommand_8hpp.html" target="_top" xlink:title=" ">
<polygon fill="white" stroke="#666666" points="1272.5,-132 1154.5,-132 1154.5,-112 1272.5,-112 1272.5,-132"/>
<text text-anchor="middle" x="1213.5" y="-118.5" font-family="Helvetica,sans-Serif" font-size="10.00">IMemberCommand.hpp</text>
</a>
</g>
</g>
<!-- Node3&#45;&gt;Node22 -->
<g id="edge39_Node000003_Node000022" class="edge">
<title>Node3&#45;&gt;Node22</title>
<g id="a_edge39_Node000003_Node000022"><a xlink:title=" ">
<path fill="none" stroke="#63b8ff" d="M1066.44,-223.78C1072.79,-209.92 1086.52,-183.69 1105.5,-168 1122.94,-153.59 1145.65,-143.2 1165.74,-136.06"/>
<polygon fill="#63b8ff" stroke="#63b8ff" points="1166.78,-139.4 1175.14,-132.91 1164.55,-132.77 1166.78,-139.4"/>
</a>
</g>
</g>
<!-- Node23 -->
<g id="Node000023" class="node">
<title>Node23</title>
<g id="a_Node000023"><a xlink:href="IMessageCommand_8hpp.html" target="_top" xlink:title=" ">
<polygon fill="white" stroke="#666666" points="1412.75,-132 1290.25,-132 1290.25,-112 1412.75,-112 1412.75,-132"/>
<text text-anchor="middle" x="1351.5" y="-118.5" font-family="Helvetica,sans-Serif" font-size="10.00">IMessageCommand.hpp</text>
</a>
</g>
</g>
<!-- Node3&#45;&gt;Node23 -->
<g id="edge40_Node000003_Node000023" class="edge">
<title>Node3&#45;&gt;Node23</title>
<g id="a_edge40_Node000003_Node000023"><a xlink:title=" ">
<path fill="none" stroke="#63b8ff" d="M1071.01,-223.85C1084.81,-209.61 1113.55,-182.27 1143.5,-168 1167.76,-156.44 1231.63,-143.48 1282.25,-134.45"/>
<polygon fill="#63b8ff" stroke="#63b8ff" points="1282.76,-137.92 1292,-132.74 1281.54,-131.02 1282.76,-137.92"/>
</a>
</g>
</g>
<!-- Node24 -->
<g id="Node000024" class="node">
<title>Node24</title>
<g id="a_Node000024"><a xlink:href="IReactionCommand_8hpp.html" target="_top" xlink:title=" ">
<polygon fill="white" stroke="#666666" points="1552.38,-132 1430.62,-132 1430.62,-112 1552.38,-112 1552.38,-132"/>
<text text-anchor="middle" x="1491.5" y="-118.5" font-family="Helvetica,sans-Serif" font-size="10.00">IReactionCommand.hpp</text>
</a>
</g>
</g>
<!-- Node3&#45;&gt;Node24 -->
<g id="edge41_Node000003_Node000024" class="edge">
<title>Node3&#45;&gt;Node24</title>
<g id="a_edge41_Node000003_Node000024"><a xlink:title=" ">
<path fill="none" stroke="#63b8ff" d="M1079.08,-223.51C1109.2,-206.35 1170.78,-171.58 1181.5,-168 1192.68,-164.27 1330.94,-144.95 1419,-132.87"/>
<polygon fill="#63b8ff" stroke="#63b8ff" points="1419.34,-136.35 1428.77,-131.53 1418.39,-129.42 1419.34,-136.35"/>
</a>
</g>
</g>
<!-- Node25 -->
<g id="Node000025" class="node">
<title>Node25</title>
<g id="a_Node000025"><a xlink:href="IReady_8hpp.html" target="_top" xlink:title=" ">
<polygon fill="white" stroke="#666666" points="1636.25,-132 1570.75,-132 1570.75,-112 1636.25,-112 1636.25,-132"/>
<text text-anchor="middle" x="1603.5" y="-118.5" font-family="Helvetica,sans-Serif" font-size="10.00">IReady.hpp</text>
</a>
</g>
</g>
<!-- Node3&#45;&gt;Node25 -->
<g id="edge42_Node000003_Node000025" class="edge">
<title>Node3&#45;&gt;Node25</title>
<g id="a_edge42_Node000003_Node000025"><a xlink:title=" ">
<path fill="none" stroke="#63b8ff" d="M1087.47,-223.84C1110.56,-215.18 1145.7,-201.54 1175.5,-188 1193.24,-179.94 1195.83,-173.54 1214.5,-168 1359.65,-124.9 1406.19,-154.8 1559.33,-132.14"/>
<polygon fill="#63b8ff" stroke="#63b8ff" points="1559.7,-135.62 1569.05,-130.64 1558.64,-128.7 1559.7,-135.62"/>
</a>
</g>
</g>
<!-- Node26 -->
<g id="Node000026" class="node">
<title>Node26</title>
<g id="a_Node000026"><a xlink:title=" ">
<polygon fill="#e0e0e0" stroke="#999999" points="1257.88,-188 1223.12,-188 1223.12,-168 1257.88,-168 1257.88,-188"/>
<text text-anchor="middle" x="1240.5" y="-174.5" font-family="Helvetica,sans-Serif" font-size="10.00">map</text>
</a>
</g>
</g>
<!-- Node3&#45;&gt;Node26 -->
<g id="edge45_Node000003_Node000026" class="edge">
<title>Node3&#45;&gt;Node26</title>
<g id="a_edge45_Node000003_Node000026"><a xlink:title=" ">
<path fill="none" stroke="#63b8ff" d="M1087.63,-225.38C1120.43,-215.43 1177.7,-198.05 1212.06,-187.63"/>
<polygon fill="#63b8ff" stroke="#63b8ff" points="1212.77,-191.07 1221.32,-184.82 1210.73,-184.37 1212.77,-191.07"/>
</a>
</g>
</g>
<!-- Node27 -->
<g id="Node000027" class="node">
<title>Node27</title>
<g id="a_Node000027"><a xlink:title=" ">
<polygon fill="#e0e0e0" stroke="#999999" points="1327.12,-188 1275.88,-188 1275.88,-168 1327.12,-168 1327.12,-188"/>
<text text-anchor="middle" x="1301.5" y="-174.5" font-family="Helvetica,sans-Serif" font-size="10.00">memory</text>
</a>
</g>
</g>
<!-- Node3&#45;&gt;Node27 -->
<g id="edge46_Node000003_Node000027" class="edge">
<title>Node3&#45;&gt;Node27</title>
<g id="a_edge46_Node000003_Node000027"><a xlink:title=" ">
<path fill="none" stroke="#63b8ff" d="M1087.69,-227.74C1124.32,-220.02 1194.67,-204.96 1264.36,-188.45"/>
<polygon fill="#63b8ff" stroke="#63b8ff" points="1265.14,-191.86 1274.06,-186.14 1263.52,-185.05 1265.14,-191.86"/>
</a>
</g>
</g>
<!-- Node5 -->
<g id="Node000005" class="node">
<title>Node5</title>
<g id="a_Node000005"><a xlink:title=" ">
<polygon fill="#e0e0e0" stroke="#999999" points="859.88,-132 801.12,-132 801.12,-112 859.88,-112 859.88,-132"/>
<text text-anchor="middle" x="830.5" y="-118.5" font-family="Helvetica,sans-Serif" font-size="10.00">dpp/dpp.h</text>
</a>
</g>
</g>
<!-- Node4&#45;&gt;Node5 -->
<g id="edge4_Node000004_Node000005" class="edge">
<title>Node4&#45;&gt;Node5</title>
<g id="a_edge4_Node000004_Node000005"><a xlink:title=" ">
<path fill="none" stroke="#63b8ff" d="M848.67,-167.59C845.89,-160.78 842.04,-151.32 838.59,-142.86"/>
<polygon fill="#63b8ff" stroke="#63b8ff" points="841.87,-141.64 834.86,-133.7 835.39,-144.28 841.87,-141.64"/>
</a>
</g>
</g>
<!-- Node6 -->
<g id="Node000006" class="node">
<title>Node6</title>
<g id="a_Node000006"><a xlink:title=" ">
<polygon fill="#e0e0e0" stroke="#999999" points="704,-132 613,-132 613,-112 704,-112 704,-132"/>
<text text-anchor="middle" x="658.5" y="-118.5" font-family="Helvetica,sans-Serif" font-size="10.00">dpp/misc&#45;enum.h</text>
</a>
</g>
</g>
<!-- Node4&#45;&gt;Node6 -->
<g id="edge5_Node000004_Node000006" class="edge">
<title>Node4&#45;&gt;Node6</title>
<g id="a_edge5_Node000004_Node000006"><a xlink:title=" ">
<path fill="none" stroke="#63b8ff" d="M824.29,-169.15C792.67,-160.35 740.96,-145.95 703.69,-135.58"/>
<polygon fill="#63b8ff" stroke="#63b8ff" points="704.66,-132.22 694.09,-132.91 702.78,-138.96 704.66,-132.22"/>
</a>
</g>
</g>
<!-- Node7 -->
<g id="Node000007" class="node">
<title>Node7</title>
<g id="a_Node000007"><a xlink:title=" ">
<polygon fill="#e0e0e0" stroke="#999999" points="782.62,-132 722.38,-132 722.38,-112 782.62,-112 782.62,-132"/>
<text text-anchor="middle" x="752.5" y="-118.5" font-family="Helvetica,sans-Serif" font-size="10.00">fmt/core.h</text>
</a>
</g>
</g>
<!-- Node4&#45;&gt;Node7 -->
<g id="edge6_Node000004_Node000007" class="edge">
<title>Node4&#45;&gt;Node7</title>
<g id="a_edge6_Node000004_Node000007"><a xlink:title=" ">
<path fill="none" stroke="#63b8ff" d="M835.08,-167.59C819.83,-159.36 797.42,-147.26 779.79,-137.74"/>
<polygon fill="#63b8ff" stroke="#63b8ff" points="781.85,-134.87 771.39,-133.2 778.52,-141.03 781.85,-134.87"/>
</a>
</g>
</g>
<!-- Node8 -->
<g id="Node000008" class="node">
<title>Node8</title>
<g id="a_Node000008"><a xlink:href="Database_8hpp.html" target="_top" xlink:title=" ">
<polygon fill="white" stroke="#666666" points="315.88,-132 239.12,-132 239.12,-112 315.88,-112 315.88,-132"/>
<text text-anchor="middle" x="277.5" y="-118.5" font-family="Helvetica,sans-Serif" font-size="10.00">Database.hpp</text>
</a>
</g>
</g>
<!-- Node4&#45;&gt;Node8 -->
<g id="edge7_Node000004_Node000008" class="edge">
<title>Node4&#45;&gt;Node8</title>
<g id="a_edge7_Node000004_Node000008"><a xlink:title=" ">
<path fill="none" stroke="#63b8ff" d="M824.38,-174.36C733.15,-165.79 444.59,-138.69 327.55,-127.7"/>
<polygon fill="#63b8ff" stroke="#63b8ff" points="327.9,-124.22 317.62,-126.77 327.25,-131.19 327.9,-124.22"/>
</a>
</g>
</g>
<!-- Node4&#45;&gt;Node13 -->
<g id="edge35_Node000004_Node000013" class="edge">
<title>Node4&#45;&gt;Node13</title>
<g id="a_edge35_Node000004_Node000013"><a xlink:title=" ">
<path fill="none" stroke="#63b8ff" d="M824.31,-175.76C740.57,-171.8 497.7,-158.13 474.5,-132 459.65,-115.28 481.55,-95.63 501.95,-82.35"/>
<polygon fill="#63b8ff" stroke="#63b8ff" points="503.7,-85.38 510.39,-77.17 500.04,-79.41 503.7,-85.38"/>
</a>
</g>
</g>
<!-- Node4&#45;&gt;Node17 -->
<g id="edge17_Node000004_Node000017" class="edge">
<title>Node4&#45;&gt;Node17</title>
<g id="a_edge17_Node000004_Node000017"><a xlink:title=" ">
<path fill="none" stroke="#63b8ff" d="M824.17,-172.11C775.06,-163.64 672.91,-146.02 605.28,-134.35"/>
<polygon fill="#63b8ff" stroke="#63b8ff" points="606.26,-130.97 595.81,-132.72 605.07,-137.86 606.26,-130.97"/>
</a>
</g>
</g>
<!-- Node4&#45;&gt;Node20 -->
<g id="edge20_Node000004_Node000020" class="edge">
<title>Node4&#45;&gt;Node20</title>
<g id="a_edge20_Node000004_Node000020"><a xlink:title=" ">
<path fill="none" stroke="#63b8ff" d="M866.09,-167.59C877.54,-159.67 894.16,-148.16 907.66,-138.82"/>
<polygon fill="#63b8ff" stroke="#63b8ff" points="909.33,-141.91 915.56,-133.34 905.35,-136.16 909.33,-141.91"/>
</a>
</g>
</g>
<!-- Node4&#45;&gt;Node21 -->
<g id="edge23_Node000004_Node000021" class="edge">
<title>Node4&#45;&gt;Node21</title>
<g id="a_edge23_Node000004_Node000021"><a xlink:title=" ">
<path fill="none" stroke="#63b8ff" d="M880.74,-169.94C916.01,-161.12 976.92,-145.89 1019.79,-135.18"/>
<polygon fill="#63b8ff" stroke="#63b8ff" points="1020.49,-138.61 1029.35,-132.79 1018.8,-131.82 1020.49,-138.61"/>
</a>
</g>
</g>
<!-- Node4&#45;&gt;Node22 -->
<g id="edge26_Node000004_Node000022" class="edge">
<title>Node4&#45;&gt;Node22</title>
<g id="a_edge26_Node000004_Node000022"><a xlink:title=" ">
<path fill="none" stroke="#63b8ff" d="M880.83,-172.76C936.87,-164.38 1063.35,-145.46 1143.21,-133.51"/>
<polygon fill="#63b8ff" stroke="#63b8ff" points="1143.28,-137.04 1152.66,-132.1 1142.25,-130.12 1143.28,-137.04"/>
</a>
</g>
</g>
<!-- Node4&#45;&gt;Node23 -->
<g id="edge29_Node000004_Node000023" class="edge">
<title>Node4&#45;&gt;Node23</title>
<g id="a_edge29_Node000004_Node000023"><a xlink:title=" ">
<path fill="none" stroke="#63b8ff" d="M880.63,-174.28C947.62,-167.75 1122.07,-150.46 1278.8,-132.29"/>
<polygon fill="#63b8ff" stroke="#63b8ff" points="1279.02,-135.79 1288.55,-131.16 1278.21,-128.84 1279.02,-135.79"/>
</a>
</g>
</g>
<!-- Node4&#45;&gt;Node24 -->
<g id="edge32_Node000004_Node000024" class="edge">
<title>Node4&#45;&gt;Node24</title>
<g id="a_edge32_Node000004_Node000024"><a xlink:title=" ">
<path fill="none" stroke="#63b8ff" d="M880.67,-175.26C962.17,-170.13 1205.51,-154.08 1419.01,-132.21"/>
<polygon fill="#63b8ff" stroke="#63b8ff" points="1419.34,-135.69 1428.93,-131.19 1418.63,-128.73 1419.34,-135.69"/>
</a>
</g>
</g>
<!-- Node9 -->
<g id="Node000009" class="node">
<title>Node9</title>
<g id="a_Node000009"><a xlink:title=" ">
<polygon fill="#e0e0e0" stroke="#999999" points="109.62,-76 61.38,-76 61.38,-56 109.62,-56 109.62,-76"/>
<text text-anchor="middle" x="85.5" y="-62.5" font-family="Helvetica,sans-Serif" font-size="10.00">cstddef</text>
</a>
</g>
</g>
<!-- Node8&#45;&gt;Node9 -->
<g id="edge8_Node000008_Node000009" class="edge">
<title>Node8&#45;&gt;Node9</title>
<g id="a_edge8_Node000008_Node000009"><a xlink:title=" ">
<path fill="none" stroke="#63b8ff" d="M244.06,-111.59C209.54,-101.89 155.92,-86.81 120.76,-76.92"/>
<polygon fill="#63b8ff" stroke="#63b8ff" points="122.07,-73.65 111.49,-74.31 120.17,-80.39 122.07,-73.65"/>
</a>
</g>
</g>
<!-- Node10 -->
<g id="Node000010" class="node">
<title>Node10</title>
<g id="a_Node000010"><a xlink:title=" ">
<polygon fill="#e0e0e0" stroke="#999999" points="181.25,-76 127.75,-76 127.75,-56 181.25,-56 181.25,-76"/>
<text text-anchor="middle" x="154.5" y="-62.5" font-family="Helvetica,sans-Serif" font-size="10.00">iostream</text>
</a>
</g>
</g>
<!-- Node8&#45;&gt;Node10 -->
<g id="edge9_Node000008_Node000010" class="edge">
<title>Node8&#45;&gt;Node10</title>
<g id="a_edge9_Node000008_Node000010"><a xlink:title=" ">
<path fill="none" stroke="#63b8ff" d="M256.08,-111.59C236.88,-103.17 208.46,-90.69 186.56,-81.07"/>
<polygon fill="#63b8ff" stroke="#63b8ff" points="188.04,-77.9 177.48,-77.09 185.23,-84.31 188.04,-77.9"/>
</a>
</g>
</g>
<!-- Node11 -->
<g id="Node000011" class="node">
<title>Node11</title>
<g id="a_Node000011"><a xlink:title=" ">
<polygon fill="#e0e0e0" stroke="#999999" points="249.38,-76 199.62,-76 199.62,-56 249.38,-56 249.38,-76"/>
<text text-anchor="middle" x="224.5" y="-62.5" font-family="Helvetica,sans-Serif" font-size="10.00">optional</text>
</a>
</g>
</g>
<!-- Node8&#45;&gt;Node11 -->
<g id="edge10_Node000008_Node000011" class="edge">
<title>Node8&#45;&gt;Node11</title>
<g id="a_edge10_Node000008_Node000011"><a xlink:title=" ">
<path fill="none" stroke="#63b8ff" d="M268.27,-111.59C260.9,-104.08 250.37,-93.35 241.48,-84.3"/>
<polygon fill="#63b8ff" stroke="#63b8ff" points="244.19,-82.06 234.69,-77.38 239.19,-86.97 244.19,-82.06"/>
</a>
</g>
</g>
<!-- Node12 -->
<g id="Node000012" class="node">
<title>Node12</title>
<g id="a_Node000012"><a xlink:title=" ">
<polygon fill="#e0e0e0" stroke="#999999" points="349,-20 288,-20 288,0 349,0 349,-20"/>
<text text-anchor="middle" x="318.5" y="-6.5" font-family="Helvetica,sans-Serif" font-size="10.00">pqxx/pqxx</text>
</a>
</g>
</g>
<!-- Node8&#45;&gt;Node12 -->
<g id="edge11_Node000008_Node000012" class="edge">
<title>Node8&#45;&gt;Node12</title>
<g id="a_edge11_Node000008_Node000012"><a xlink:title=" ">
<path fill="none" stroke="#63b8ff" d="M279.72,-111.58C282.85,-98.78 289.03,-75.3 296.5,-56 299.79,-47.5 304.08,-38.42 307.99,-30.65"/>
<polygon fill="#63b8ff" stroke="#63b8ff" points="311.09,-32.27 312.6,-21.79 304.88,-29.05 311.09,-32.27"/>
</a>
</g>
</g>
<!-- Node8&#45;&gt;Node13 -->
<g id="edge12_Node000008_Node000013" class="edge">
<title>Node8&#45;&gt;Node13</title>
<g id="a_edge12_Node000008_Node000013"><a xlink:title=" ">
<path fill="none" stroke="#63b8ff" d="M316.04,-114.45C358.45,-106.98 428.79,-93.8 498.17,-76.39"/>
<polygon fill="#63b8ff" stroke="#63b8ff" points="499,-79.79 507.83,-73.93 497.27,-73.01 499,-79.79"/>
</a>
</g>
</g>
<!-- Node14 -->
<g id="Node000014" class="node">
<title>Node14</title>
<g id="a_Node000014"><a xlink:title=" ">
<polygon fill="#e0e0e0" stroke="#999999" points="491.5,-76 433.5,-76 433.5,-56 491.5,-56 491.5,-76"/>
<text text-anchor="middle" x="462.5" y="-62.5" font-family="Helvetica,sans-Serif" font-size="10.00">typeindex</text>
</a>
</g>
</g>
<!-- Node8&#45;&gt;Node14 -->
<g id="edge13_Node000008_Node000014" class="edge">
<title>Node8&#45;&gt;Node14</title>
<g id="a_edge13_Node000008_Node000014"><a xlink:title=" ">
<path fill="none" stroke="#63b8ff" d="M309.72,-111.59C340.98,-102.47 388.48,-88.6 422.22,-78.76"/>
<polygon fill="#63b8ff" stroke="#63b8ff" points="423.01,-82.17 431.63,-76.01 421.05,-75.45 423.01,-82.17"/>
</a>
</g>
</g>
<!-- Node8&#45;&gt;Node15 -->
<g id="edge14_Node000008_Node000015" class="edge">
<title>Node8&#45;&gt;Node15</title>
<g id="a_edge14_Node000008_Node000015"><a xlink:title=" ">
<path fill="none" stroke="#63b8ff" d="M238.66,-114.27C195.83,-106.62 124.69,-93.25 54.29,-76.27"/>
<polygon fill="#63b8ff" stroke="#63b8ff" points="55.47,-72.95 44.92,-73.98 53.81,-79.75 55.47,-72.95"/>
</a>
</g>
</g>
<!-- Node16 -->
<g id="Node000016" class="node">
<title>Node16</title>
<g id="a_Node000016"><a xlink:href="RowDTOAdapter_8hpp.html" target="_top" xlink:title=" ">
<polygon fill="white" stroke="#666666" points="415.38,-76 305.62,-76 305.62,-56 415.38,-56 415.38,-76"/>
<text text-anchor="middle" x="360.5" y="-62.5" font-family="Helvetica,sans-Serif" font-size="10.00">RowDTOAdapter.hpp</text>
</a>
</g>
</g>
<!-- Node8&#45;&gt;Node16 -->
<g id="edge15_Node000008_Node000016" class="edge">
<title>Node8&#45;&gt;Node16</title>
<g id="a_edge15_Node000008_Node000016"><a xlink:title=" ">
<path fill="none" stroke="#63b8ff" d="M291.96,-111.59C304.26,-103.59 322.18,-91.93 336.61,-82.54"/>
<polygon fill="#63b8ff" stroke="#63b8ff" points="338.19,-85.69 344.66,-77.3 334.37,-79.82 338.19,-85.69"/>
</a>
</g>
</g>
<!-- Node16&#45;&gt;Node12 -->
<g id="edge16_Node000016_Node000012" class="edge">
<title>Node16&#45;&gt;Node12</title>
<g id="a_edge16_Node000016_Node000012"><a xlink:title=" ">
<path fill="none" stroke="#63b8ff" d="M353.18,-55.59C347.52,-48.32 339.51,-38.02 332.61,-29.15"/>
<polygon fill="#63b8ff" stroke="#63b8ff" points="335.56,-27.24 326.66,-21.49 330.04,-31.54 335.56,-27.24"/>
</a>
</g>
</g>
<!-- Node18 -->
<g id="Node000018" class="node">
<title>Node18</title>
<g id="a_Node000018"><a xlink:title=" ">
<polygon fill="#e0e0e0" stroke="#999999" points="1200.62,-76 1128.38,-76 1128.38,-56 1200.62,-56 1200.62,-76"/>
<text text-anchor="middle" x="1164.5" y="-62.5" font-family="Helvetica,sans-Serif" font-size="10.00">dpp/cluster.h</text>
</a>
</g>
</g>
<!-- Node17&#45;&gt;Node18 -->
<g id="edge18_Node000017_Node000018" class="edge">
<title>Node17&#45;&gt;Node18</title>
<g id="a_edge18_Node000017_Node000018"><a xlink:title=" ">
<path fill="none" stroke="#63b8ff" d="M595.32,-112.95C598.09,-112.61 600.82,-112.3 603.5,-112 792.99,-91.1 1019.51,-75.92 1116.55,-69.88"/>
<polygon fill="#63b8ff" stroke="#63b8ff" points="1116.73,-73.37 1126.49,-69.26 1116.29,-66.39 1116.73,-73.37"/>
</a>
</g>
</g>
<!-- Node19 -->
<g id="Node000019" class="node">
<title>Node19</title>
<g id="a_Node000019"><a xlink:title=" ">
<polygon fill="#e0e0e0" stroke="#999999" points="1306.5,-76 1218.5,-76 1218.5,-56 1306.5,-56 1306.5,-76"/>
<text text-anchor="middle" x="1262.5" y="-62.5" font-family="Helvetica,sans-Serif" font-size="10.00">dpp/dispatcher.h</text>
</a>
</g>
</g>
<!-- Node17&#45;&gt;Node19 -->
<g id="edge19_Node000017_Node000019" class="edge">
<title>Node17&#45;&gt;Node19</title>
<g id="a_edge19_Node000017_Node000019"><a xlink:title=" ">
<path fill="none" stroke="#63b8ff" d="M595.32,-112.88C598.08,-112.56 600.82,-112.27 603.5,-112 868.3,-85.56 939.5,-106.05 1206.79,-76.19"/>
<polygon fill="#63b8ff" stroke="#63b8ff" points="1206.97,-79.69 1216.51,-75.09 1206.18,-72.73 1206.97,-79.69"/>
</a>
</g>
</g>
<!-- Node20&#45;&gt;Node18 -->
<g id="edge21_Node000020_Node000018" class="edge">
<title>Node20&#45;&gt;Node18</title>
<g id="a_edge21_Node000020_Node000018"><a xlink:title=" ">
<path fill="none" stroke="#63b8ff" d="M971.53,-111.53C1012.2,-102.15 1074.44,-87.78 1117.18,-77.92"/>
<polygon fill="#63b8ff" stroke="#63b8ff" points="1117.71,-81.39 1126.66,-75.73 1116.13,-74.57 1117.71,-81.39"/>
</a>
</g>
</g>
<!-- Node20&#45;&gt;Node19 -->
<g id="edge22_Node000020_Node000019" class="edge">
<title>Node20&#45;&gt;Node19</title>
<g id="a_edge22_Node000020_Node000019"><a xlink:title=" ">
<path fill="none" stroke="#63b8ff" d="M983.49,-112.59C1037.21,-104.03 1123.07,-90.27 1206.97,-76.41"/>
<polygon fill="#63b8ff" stroke="#63b8ff" points="1207.47,-79.87 1216.76,-74.79 1206.33,-72.97 1207.47,-79.87"/>
</a>
</g>
</g>
<!-- Node21&#45;&gt;Node18 -->
<g id="edge24_Node000021_Node000018" class="edge">
<title>Node21&#45;&gt;Node18</title>
<g id="a_edge24_Node000021_Node000018"><a xlink:title=" ">
<path fill="none" stroke="#63b8ff" d="M1085.22,-111.59C1099.72,-103.44 1120.97,-91.48 1137.82,-82"/>
<polygon fill="#63b8ff" stroke="#63b8ff" points="1139.33,-85.17 1146.33,-77.22 1135.9,-79.07 1139.33,-85.17"/>
</a>
</g>
</g>
<!-- Node21&#45;&gt;Node19 -->
<g id="edge25_Node000021_Node000019" class="edge">
<title>Node21&#45;&gt;Node19</title>
<g id="a_edge25_Node000021_Node000019"><a xlink:title=" ">
<path fill="none" stroke="#63b8ff" d="M1102.29,-111.59C1134.23,-102.71 1182.35,-89.31 1217.52,-79.52"/>
<polygon fill="#63b8ff" stroke="#63b8ff" points="1218.29,-82.94 1226.99,-76.89 1216.41,-76.2 1218.29,-82.94"/>
</a>
</g>
</g>
<!-- Node22&#45;&gt;Node18 -->
<g id="edge27_Node000022_Node000018" class="edge">
<title>Node22&#45;&gt;Node18</title>
<g id="a_edge27_Node000022_Node000018"><a xlink:title=" ">
<path fill="none" stroke="#63b8ff" d="M1204.96,-111.59C1198.22,-104.16 1188.61,-93.58 1180.46,-84.58"/>
<polygon fill="#63b8ff" stroke="#63b8ff" points="1183.27,-82.47 1173.95,-77.42 1178.08,-87.18 1183.27,-82.47"/>
</a>
</g>
</g>
<!-- Node22&#45;&gt;Node19 -->
<g id="edge28_Node000022_Node000019" class="edge">
<title>Node22&#45;&gt;Node19</title>
<g id="a_edge28_Node000022_Node000019"><a xlink:title=" ">
<path fill="none" stroke="#63b8ff" d="M1222.04,-111.59C1228.78,-104.16 1238.39,-93.58 1246.54,-84.58"/>
<polygon fill="#63b8ff" stroke="#63b8ff" points="1248.92,-87.18 1253.05,-77.42 1243.73,-82.47 1248.92,-87.18"/>
</a>
</g>
</g>
<!-- Node23&#45;&gt;Node18 -->
<g id="edge30_Node000023_Node000018" class="edge">
<title>Node23&#45;&gt;Node18</title>
<g id="a_edge30_Node000023_Node000018"><a xlink:title=" ">
<path fill="none" stroke="#63b8ff" d="M1318.93,-111.59C1288.28,-102.74 1242.16,-89.43 1208.3,-79.65"/>
<polygon fill="#63b8ff" stroke="#63b8ff" points="1209.36,-76.31 1198.78,-76.9 1207.42,-83.04 1209.36,-76.31"/>
</a>
</g>
</g>
<!-- Node23&#45;&gt;Node19 -->
<g id="edge31_Node000023_Node000019" class="edge">
<title>Node23&#45;&gt;Node19</title>
<g id="a_edge31_Node000023_Node000019"><a xlink:title=" ">
<path fill="none" stroke="#63b8ff" d="M1336,-111.59C1322.68,-103.51 1303.22,-91.71 1287.67,-82.27"/>
<polygon fill="#63b8ff" stroke="#63b8ff" points="1289.78,-79.46 1279.42,-77.26 1286.15,-85.44 1289.78,-79.46"/>
</a>
</g>
</g>
<!-- Node24&#45;&gt;Node18 -->
<g id="edge33_Node000024_Node000018" class="edge">
<title>Node24&#45;&gt;Node18</title>
<g id="a_edge33_Node000024_Node000018"><a xlink:title=" ">
<path fill="none" stroke="#63b8ff" d="M1430.32,-111.94C1375.58,-103.68 1292.86,-90.8 1211.74,-76.35"/>
<polygon fill="#63b8ff" stroke="#63b8ff" points="1212.78,-72.98 1202.32,-74.66 1211.54,-79.87 1212.78,-72.98"/>
</a>
</g>
</g>
<!-- Node24&#45;&gt;Node19 -->
<g id="edge34_Node000024_Node000019" class="edge">
<title>Node24&#45;&gt;Node19</title>
<g id="a_edge34_Node000024_Node000019"><a xlink:title=" ">
<path fill="none" stroke="#63b8ff" d="M1451.35,-111.53C1413.04,-102.5 1355.18,-88.85 1313.6,-79.05"/>
<polygon fill="#63b8ff" stroke="#63b8ff" points="1314.61,-75.69 1304.08,-76.8 1313.01,-82.51 1314.61,-75.69"/>
</a>
</g>
</g>
<!-- Node25&#45;&gt;Node18 -->
<g id="edge43_Node000025_Node000018" class="edge">
<title>Node25&#45;&gt;Node18</title>
<g id="a_edge43_Node000025_Node000018"><a xlink:title=" ">
<path fill="none" stroke="#63b8ff" d="M1570.55,-113.58C1567.5,-113 1564.45,-112.46 1561.5,-112 1409.8,-88.06 1366.99,-98.91 1212.14,-76.26"/>
<polygon fill="#63b8ff" stroke="#63b8ff" points="1212.7,-72.8 1202.29,-74.79 1211.67,-79.73 1212.7,-72.8"/>
</a>
</g>
</g>
<!-- Node25&#45;&gt;Node19 -->
<g id="edge44_Node000025_Node000019" class="edge">
<title>Node25&#45;&gt;Node19</title>
<g id="a_edge44_Node000025_Node000019"><a xlink:title=" ">
<path fill="none" stroke="#63b8ff" d="M1570.52,-113.73C1567.48,-113.12 1564.43,-112.53 1561.5,-112 1476.96,-96.6 1378.28,-82.49 1318.11,-74.32"/>
<polygon fill="#63b8ff" stroke="#63b8ff" points="1318.85,-70.89 1308.47,-73.02 1317.91,-77.83 1318.85,-70.89"/>
</a>
</g>
</g>
</g>
</svg>
