<?xml version="1.0" encoding="UTF-8" standalone="no"?>
<!DOCTYPE svg PUBLIC "-//W3C//DTD SVG 1.1//EN"
 "http://www.w3.org/Graphics/SVG/1.1/DTD/svg11.dtd">
<!-- Generated by graphviz version 14.1.5 (0)
 -->
<!-- Title: src/bot_library/commands/invite/InviteCommand.hpp Pages: 1 -->
<svg width="316pt" height="120pt"
 viewBox="0.00 0.00 316.00 120.00" xmlns="http://www.w3.org/2000/svg" xmlns:xlink="http://www.w3.org/1999/xlink">
<g id="graph0" class="graph" transform="scale(1 1) rotate(0) translate(4 116)">
<title>src/bot_library/commands/invite/InviteCommand.hpp</title>
<!-- Node1 -->
<g id="Node000001" class="node">
<title>Node1</title>
<g id="a_Node000001"><a xlink:title=" ">
<polygon fill="#999999" stroke="#666666" points="214,-112 81,-112 81,-80 214,-80 214,-112"/>
<text xml:space="preserve" text-anchor="start" x="89" y="-98.5" font-family="Helvetica,sans-Serif" font-size="10.00">src/bot_library/commands</text>
<text xml:space="preserve" text-anchor="middle" x="147.5" y="-86.5" font-family="Helvetica,sans-Serif" font-size="10.00">/invite/InviteCommand.hpp</text>
</a>
</g>
</g>
<!-- Node2 -->
<g id="Node000002" class="node">
<title>Node2</title>
<g id="a_Node000002"><a xlink:href="InviteCommand_8cpp.html" target="_top" xlink:title=" ">
<polygon fill="white" stroke="#666666" points="133,-38 0,-38 0,-6 133,-6 133,-38"/>
<text xml:space="preserve" text-anchor="start" x="8" y="-24.5" font-family="Helvetica,sans-Serif" font-size="10.00">src/bot_library/commands</text>
<text xml:space="preserve" text-anchor="middle" x="66.5" y="-12.5" font-family="Helvetica,sans-Serif" font-size="10.00">/invite/InviteCommand.cpp</text>
</a>
</g>
</g>
<!-- Node1&#45;&gt;Node2 -->
<g id="edge1_Node000001_Node000002" class="edge">
<title>Node1&#45;&gt;Node2</title>
<g id="a_edge1_Node000001_Node000002"><a xlink:title=" ">
<path fill="none" stroke="#63b8ff" d="M121.79,-72.14C109.44,-61.17 94.97,-48.31 83.93,-38.5"/>
<polygon fill="#63b8ff" stroke="#63b8ff" points="119.39,-74.7 129.19,-78.73 124.04,-69.47 119.39,-74.7"/>
</a>
</g>
</g>
<!-- Node3 -->
<g id="Node000003" class="node">
<title>Node3</title>
<g id="a_Node000003"><a xlink:href="RegisterSlashUtilityCommands_8cpp.html" target="_top" xlink:title=" ">
<polygon fill="white" stroke="#666666" points="308,-44 151,-44 151,0 308,0 308,-44"/>
<text xml:space="preserve" text-anchor="start" x="159" y="-30.5" font-family="Helvetica,sans-Serif" font-size="10.00">src/bot_library/commands</text>
<text xml:space="preserve" text-anchor="start" x="159" y="-18.5" font-family="Helvetica,sans-Serif" font-size="10.00">/registration/RegisterSlashUtility</text>
<text xml:space="preserve" text-anchor="middle" x="229.5" y="-6.5" font-family="Helvetica,sans-Serif" font-size="10.00">Commands.cpp</text>
</a>
</g>
</g>
<!-- Node1&#45;&gt;Node3 -->
<g id="edge2_Node000001_Node000003" class="edge">
<title>Node1&#45;&gt;Node3</title>
<g id="a_edge2_Node000001_Node000003"><a xlink:title=" ">
<path fill="none" stroke="#63b8ff" d="M173.41,-72.25C183.61,-63.29 195.26,-53.06 205.29,-44.26"/>
<polygon fill="#63b8ff" stroke="#63b8ff" points="171.23,-69.5 166.03,-78.73 175.85,-74.76 171.23,-69.5"/>
</a>
</g>
</g>
</g>
</svg>
