<?xml version="1.0" encoding="UTF-8" standalone="no"?>
<!DOCTYPE svg PUBLIC "-//W3C//DTD SVG 1.1//EN"
 "http://www.w3.org/Graphics/SVG/1.1/DTD/svg11.dtd">
<!-- Generated by graphviz version 9.0.0 (0)
 -->
<!-- Title: src/bot_library/bot/core/interfaces/include/IReactionCommand.hpp Pages: 1 -->
<svg width="3155pt" height="348pt"
 viewBox="0.00 0.00 3154.62 348.00" xmlns="http://www.w3.org/2000/svg" xmlns:xlink="http://www.w3.org/1999/xlink">
<g id="graph0" class="graph" transform="scale(1 1) rotate(0) translate(4 344)">
<title>src/bot_library/bot/core/interfaces/include/IReactionCommand.hpp</title>
<!-- Node1 -->
<g id="Node000001" class="node">
<title>Node1</title>
<g id="a_Node000001"><a xlink:title=" ">
<polygon fill="#999999" stroke="#666666" points="2533.38,-340 2408.62,-340 2408.62,-296 2533.38,-296 2533.38,-340"/>
<text text-anchor="start" x="2416.62" y="-326.5" font-family="Helvetica,sans-Serif" font-size="10.00">src/bot_library/bot</text>
<text text-anchor="start" x="2416.62" y="-314.5" font-family="Helvetica,sans-Serif" font-size="10.00">/core/interfaces/include</text>
<text text-anchor="middle" x="2471" y="-302.5" font-family="Helvetica,sans-Serif" font-size="10.00">/IReactionCommand.hpp</text>
</a>
</g>
</g>
<!-- Node2 -->
<g id="Node000002" class="node">
<title>Node2</title>
<g id="a_Node000002"><a xlink:href="Core_8hpp.html" target="_top" xlink:title=" ">
<polygon fill="white" stroke="#666666" points="2832.12,-260 2717.88,-260 2717.88,-228 2832.12,-228 2832.12,-260"/>
<text text-anchor="start" x="2725.88" y="-246.5" font-family="Helvetica,sans-Serif" font-size="10.00">src/bot_library/bot</text>
<text text-anchor="middle" x="2775" y="-234.5" font-family="Helvetica,sans-Serif" font-size="10.00">/core/include/Core.hpp</text>
</a>
</g>
</g>
<!-- Node1&#45;&gt;Node2 -->
<g id="edge1_Node000001_Node000002" class="edge">
<title>Node1&#45;&gt;Node2</title>
<g id="a_edge1_Node000001_Node000002"><a xlink:title=" ">
<path fill="none" stroke="#63b8ff" d="M2544.68,-299.55C2597.85,-286.96 2668.61,-270.2 2717.6,-258.6"/>
<polygon fill="#63b8ff" stroke="#63b8ff" points="2544.02,-296.11 2535.09,-301.82 2545.63,-302.92 2544.02,-296.11"/>
</a>
</g>
</g>
<!-- Node4 -->
<g id="Node000004" class="node">
<title>Node4</title>
<g id="a_Node000004"><a xlink:href="Bot_8hpp.html" target="_top" xlink:title=" ">
<polygon fill="white" stroke="#666666" points="1392,-192 1298,-192 1298,-160 1392,-160 1392,-192"/>
<text text-anchor="start" x="1306" y="-178.5" font-family="Helvetica,sans-Serif" font-size="10.00">src/bot_library/bot</text>
<text text-anchor="middle" x="1345" y="-166.5" font-family="Helvetica,sans-Serif" font-size="10.00">/include/Bot.hpp</text>
</a>
</g>
</g>
<!-- Node1&#45;&gt;Node4 -->
<g id="edge57_Node000001_Node000004" class="edge">
<title>Node1&#45;&gt;Node4</title>
<g id="a_edge57_Node000001_Node000004"><a xlink:title=" ">
<path fill="none" stroke="#63b8ff" d="M2397.06,-307.81C2183.15,-281.21 1567.73,-204.69 1392.23,-182.87"/>
<polygon fill="#63b8ff" stroke="#63b8ff" points="2396.6,-311.28 2406.95,-309.04 2397.46,-304.33 2396.6,-311.28"/>
</a>
</g>
</g>
<!-- Node27 -->
<g id="Node000027" class="node">
<title>Node27</title>
<g id="a_Node000027"><a xlink:href="ReactionRoles_8cpp.html" target="_top" xlink:title=" ">
<polygon fill="white" stroke="#666666" points="2188,-38 2022,-38 2022,-6 2188,-6 2188,-38"/>
<text text-anchor="start" x="2030" y="-24.5" font-family="Helvetica,sans-Serif" font-size="10.00">src/bot_library/commands</text>
<text text-anchor="middle" x="2105" y="-12.5" font-family="Helvetica,sans-Serif" font-size="10.00">/reaction_roles/ReactionRoles.cpp</text>
</a>
</g>
</g>
<!-- Node1&#45;&gt;Node27 -->
<g id="edge58_Node000001_Node000027" class="edge">
<title>Node1&#45;&gt;Node27</title>
<g id="a_edge58_Node000001_Node000027"><a xlink:title=" ">
<path fill="none" stroke="#63b8ff" d="M2479.66,-284.56C2491.08,-233.71 2504.11,-135.35 2452,-80 2412.77,-38.33 2253.28,-54.38 2197,-44 2188.14,-42.37 2178.84,-40.47 2169.7,-38.49"/>
<polygon fill="#63b8ff" stroke="#63b8ff" points="2476.31,-283.52 2477.41,-294.06 2483.12,-285.14 2476.31,-283.52"/>
</a>
</g>
</g>
<!-- Node3 -->
<g id="Node000003" class="node">
<title>Node3</title>
<g id="a_Node000003"><a xlink:href="Core_8cpp.html" target="_top" xlink:title=" ">
<polygon fill="white" stroke="#666666" points="2785,-192 2691,-192 2691,-160 2785,-160 2785,-192"/>
<text text-anchor="start" x="2699" y="-178.5" font-family="Helvetica,sans-Serif" font-size="10.00">src/bot_library/bot</text>
<text text-anchor="middle" x="2738" y="-166.5" font-family="Helvetica,sans-Serif" font-size="10.00">/core/Core.cpp</text>
</a>
</g>
</g>
<!-- Node2&#45;&gt;Node3 -->
<g id="edge2_Node000002_Node000003" class="edge">
<title>Node2&#45;&gt;Node3</title>
<g id="a_edge2_Node000002_Node000003"><a xlink:title=" ">
<path fill="none" stroke="#63b8ff" d="M2760.84,-217.74C2756.02,-209.14 2750.78,-199.79 2746.54,-192.22"/>
<polygon fill="#63b8ff" stroke="#63b8ff" points="2757.74,-219.36 2765.68,-226.37 2763.84,-215.94 2757.74,-219.36"/>
</a>
</g>
</g>
<!-- Node2&#45;&gt;Node4 -->
<g id="edge3_Node000002_Node000004" class="edge">
<title>Node2&#45;&gt;Node4</title>
<g id="a_edge3_Node000002_Node000004"><a xlink:title=" ">
<path fill="none" stroke="#63b8ff" d="M2706.2,-239.82C2456.69,-228.31 1603.06,-188.91 1392.32,-179.18"/>
<polygon fill="#63b8ff" stroke="#63b8ff" points="2705.95,-243.32 2716.1,-240.28 2706.28,-236.32 2705.95,-243.32"/>
</a>
</g>
</g>
<!-- Node9 -->
<g id="Node000009" class="node">
<title>Node9</title>
<g id="a_Node000009"><a xlink:href="ChallengeRoleCommand_8cpp.html" target="_top" xlink:title=" ">
<polygon fill="white" stroke="#666666" points="2785.88,-38 2574.12,-38 2574.12,-6 2785.88,-6 2785.88,-38"/>
<text text-anchor="start" x="2582.12" y="-24.5" font-family="Helvetica,sans-Serif" font-size="10.00">src/bot_library/commands</text>
<text text-anchor="middle" x="2680" y="-12.5" font-family="Helvetica,sans-Serif" font-size="10.00">/challenge_role/ChallengeRoleCommand.cpp</text>
</a>
</g>
</g>
<!-- Node2&#45;&gt;Node9 -->
<g id="edge52_Node000002_Node000009" class="edge">
<title>Node2&#45;&gt;Node9</title>
<g id="a_edge52_Node000002_Node000009"><a xlink:title=" ">
<path fill="none" stroke="#63b8ff" d="M2819.71,-222.5C2878.98,-192.54 2971.33,-134.42 2928,-80 2922.54,-73.14 2828.48,-52.87 2757.81,-38.46"/>
<polygon fill="#63b8ff" stroke="#63b8ff" points="2818.19,-219.35 2810.78,-226.92 2821.3,-225.62 2818.19,-219.35"/>
</a>
</g>
</g>
<!-- Node23 -->
<g id="Node000023" class="node">
<title>Node23</title>
<g id="a_Node000023"><a xlink:href="MemberCommand_8cpp.html" target="_top" xlink:title=" ">
<polygon fill="white" stroke="#666666" points="2362.12,-38 2205.88,-38 2205.88,-6 2362.12,-6 2362.12,-38"/>
<text text-anchor="start" x="2213.88" y="-24.5" font-family="Helvetica,sans-Serif" font-size="10.00">src/bot_library/commands</text>
<text text-anchor="middle" x="2284" y="-12.5" font-family="Helvetica,sans-Serif" font-size="10.00">/member/MemberCommand.cpp</text>
</a>
</g>
</g>
<!-- Node2&#45;&gt;Node23 -->
<g id="edge53_Node000002_Node000023" class="edge">
<title>Node2&#45;&gt;Node23</title>
<g id="a_edge53_Node000002_Node000023"><a xlink:title=" ">
<path fill="none" stroke="#63b8ff" d="M2721.93,-222.54C2707.37,-214.81 2692.68,-204.72 2682,-192 2648.21,-151.73 2684.63,-113.35 2644,-80 2596.71,-41.17 2431.16,-55.19 2371,-44 2362.29,-42.38 2353.15,-40.44 2344.2,-38.4"/>
<polygon fill="#63b8ff" stroke="#63b8ff" points="2720.07,-225.52 2730.58,-226.85 2723.19,-219.26 2720.07,-225.52"/>
</a>
</g>
</g>
<!-- Node29 -->
<g id="Node000029" class="node">
<title>Node29</title>
<g id="a_Node000029"><a xlink:href="ResourcesCommand_8cpp.html" target="_top" xlink:title=" ">
<polygon fill="white" stroke="#666666" points="2555.88,-38 2380.12,-38 2380.12,-6 2555.88,-6 2555.88,-38"/>
<text text-anchor="start" x="2388.12" y="-24.5" font-family="Helvetica,sans-Serif" font-size="10.00">src/bot_library/commands</text>
<text text-anchor="middle" x="2468" y="-12.5" font-family="Helvetica,sans-Serif" font-size="10.00">/resources/ResourcesCommand.cpp</text>
</a>
</g>
</g>
<!-- Node2&#45;&gt;Node29 -->
<g id="edge54_Node000002_Node000029" class="edge">
<title>Node2&#45;&gt;Node29</title>
<g id="a_edge54_Node000002_Node000029"><a xlink:title=" ">
<path fill="none" stroke="#63b8ff" d="M2790.08,-217.8C2798.35,-200.43 2804.91,-177.44 2794,-160 2774.6,-128.99 2749.66,-145.39 2720,-124 2697.82,-108.01 2700.57,-93.86 2677,-80 2653.78,-66.35 2591.1,-50.12 2540.4,-38.48"/>
<polygon fill="#63b8ff" stroke="#63b8ff" points="2787.1,-215.96 2785.56,-226.44 2793.3,-219.2 2787.1,-215.96"/>
</a>
</g>
</g>
<!-- Node35 -->
<g id="Node000035" class="node">
<title>Node35</title>
<g id="a_Node000035"><a xlink:href="server__details_2set__channel_2SetChannelCommand_8cpp.html" target="_top" xlink:title=" ">
<polygon fill="white" stroke="#666666" points="2939.62,-44 2804.38,-44 2804.38,0 2939.62,0 2939.62,-44"/>
<text text-anchor="start" x="2812.38" y="-30.5" font-family="Helvetica,sans-Serif" font-size="10.00">src/bot_library/commands</text>
<text text-anchor="start" x="2812.38" y="-18.5" font-family="Helvetica,sans-Serif" font-size="10.00">/server_details/set_channel</text>
<text text-anchor="middle" x="2872" y="-6.5" font-family="Helvetica,sans-Serif" font-size="10.00">/SetChannelCommand.cpp</text>
</a>
</g>
</g>
<!-- Node2&#45;&gt;Node35 -->
<g id="edge55_Node000002_Node000035" class="edge">
<title>Node2&#45;&gt;Node35</title>
<g id="a_edge55_Node000002_Node000035"><a xlink:title=" ">
<path fill="none" stroke="#63b8ff" d="M2843.38,-225.88C2865.06,-218.09 2888.03,-207.13 2906,-192 2933,-169.27 2937.54,-158 2947,-124 2952.24,-105.16 2955.69,-97.52 2947,-80 2939.73,-65.35 2926.7,-53.45 2913.51,-44.38"/>
<polygon fill="#63b8ff" stroke="#63b8ff" points="2842.32,-222.54 2833.97,-229.07 2844.57,-229.17 2842.32,-222.54"/>
</a>
</g>
</g>
<!-- Node37 -->
<g id="Node000037" class="node">
<title>Node37</title>
<g id="a_Node000037"><a xlink:href="set__channel_2SetChannelCommand_8cpp.html" target="_top" xlink:title=" ">
<polygon fill="white" stroke="#666666" points="3146.62,-38 2957.38,-38 2957.38,-6 3146.62,-6 3146.62,-38"/>
<text text-anchor="start" x="2965.38" y="-24.5" font-family="Helvetica,sans-Serif" font-size="10.00">src/bot_library/commands</text>
<text text-anchor="middle" x="3052" y="-12.5" font-family="Helvetica,sans-Serif" font-size="10.00">/set_channel/SetChannelCommand.cpp</text>
</a>
</g>
</g>
<!-- Node2&#45;&gt;Node37 -->
<g id="edge56_Node000002_Node000037" class="edge">
<title>Node2&#45;&gt;Node37</title>
<g id="a_edge56_Node000002_Node000037"><a xlink:title=" ">
<path fill="none" stroke="#63b8ff" d="M2843.3,-231.36C2873.24,-223.79 2907.51,-211.55 2934,-192 2991.3,-149.71 3030.82,-71.05 3045.58,-38.11"/>
<polygon fill="#63b8ff" stroke="#63b8ff" points="2842.87,-227.86 2833.96,-233.59 2844.5,-234.67 2842.87,-227.86"/>
</a>
</g>
</g>
<!-- Node5 -->
<g id="Node000005" class="node">
<title>Node5</title>
<g id="a_Node000005"><a xlink:href="BotLibrary_8cpp.html" target="_top" xlink:title=" ">
<polygon fill="white" stroke="#666666" points="326.38,-32 183.62,-32 183.62,-12 326.38,-12 326.38,-32"/>
<text text-anchor="middle" x="255" y="-18.5" font-family="Helvetica,sans-Serif" font-size="10.00">src/bot_library/BotLibrary.cpp</text>
</a>
</g>
</g>
<!-- Node4&#45;&gt;Node5 -->
<g id="edge4_Node000004_Node000005" class="edge">
<title>Node4&#45;&gt;Node5</title>
<g id="a_edge4_Node000004_Node000005"><a xlink:title=" ">
<path fill="none" stroke="#63b8ff" d="M1286.27,-174.61C1057.78,-172.79 238.82,-163.54 201,-124 174.06,-95.84 220.03,-51.59 243.05,-32.4"/>
<polygon fill="#63b8ff" stroke="#63b8ff" points="1286.11,-178.11 1296.13,-174.68 1286.16,-171.11 1286.11,-178.11"/>
</a>
</g>
</g>
<!-- Node6 -->
<g id="Node000006" class="node">
<title>Node6</title>
<g id="a_Node000006"><a xlink:href="Bot_8cpp.html" target="_top" xlink:title=" ">
<polygon fill="white" stroke="#666666" points="744,-118 650,-118 650,-86 744,-86 744,-118"/>
<text text-anchor="start" x="658" y="-104.5" font-family="Helvetica,sans-Serif" font-size="10.00">src/bot_library/bot</text>
<text text-anchor="middle" x="697" y="-92.5" font-family="Helvetica,sans-Serif" font-size="10.00">/Bot.cpp</text>
</a>
</g>
</g>
<!-- Node4&#45;&gt;Node6 -->
<g id="edge5_Node000004_Node000006" class="edge">
<title>Node4&#45;&gt;Node6</title>
<g id="a_edge5_Node000004_Node000006"><a xlink:title=" ">
<path fill="none" stroke="#63b8ff" d="M1286.31,-175.2C1179.04,-174.42 944.74,-167.35 753,-124 746.72,-122.58 740.2,-120.62 733.92,-118.46"/>
<polygon fill="#63b8ff" stroke="#63b8ff" points="1285.99,-178.7 1296,-175.26 1286.02,-171.7 1285.99,-178.7"/>
</a>
</g>
</g>
<!-- Node7 -->
<g id="Node000007" class="node">
<title>Node7</title>
<g id="a_Node000007"><a xlink:href="ChallengeRoleCommand_8hpp.html" target="_top" xlink:title=" ">
<polygon fill="white" stroke="#666666" points="2442.88,-118 2231.12,-118 2231.12,-86 2442.88,-86 2442.88,-118"/>
<text text-anchor="start" x="2239.12" y="-104.5" font-family="Helvetica,sans-Serif" font-size="10.00">src/bot_library/commands</text>
<text text-anchor="middle" x="2337" y="-92.5" font-family="Helvetica,sans-Serif" font-size="10.00">/challenge_role/ChallengeRoleCommand.hpp</text>
</a>
</g>
</g>
<!-- Node4&#45;&gt;Node7 -->
<g id="edge6_Node000004_Node000007" class="edge">
<title>Node4&#45;&gt;Node7</title>
<g id="a_edge6_Node000004_Node000007"><a xlink:title=" ">
<path fill="none" stroke="#63b8ff" d="M1403.6,-174.07C1544.88,-171.29 1915.27,-160.78 2222,-124 2234.19,-122.54 2247.04,-120.59 2259.56,-118.48"/>
<polygon fill="#63b8ff" stroke="#63b8ff" points="1403.68,-170.57 1393.75,-174.26 1403.82,-177.57 1403.68,-170.57"/>
</a>
</g>
</g>
<!-- Node11 -->
<g id="Node000011" class="node">
<title>Node11</title>
<g id="a_Node000011"><a xlink:href="CleanUp_8hpp.html" target="_top" xlink:title=" ">
<polygon fill="white" stroke="#666666" points="632.25,-118 503.75,-118 503.75,-86 632.25,-86 632.25,-118"/>
<text text-anchor="start" x="511.75" y="-104.5" font-family="Helvetica,sans-Serif" font-size="10.00">src/bot_library/commands</text>
<text text-anchor="middle" x="568" y="-92.5" font-family="Helvetica,sans-Serif" font-size="10.00">/clean_up/CleanUp.hpp</text>
</a>
</g>
</g>
<!-- Node4&#45;&gt;Node11 -->
<g id="edge10_Node000004_Node000011" class="edge">
<title>Node4&#45;&gt;Node11</title>
<g id="a_edge10_Node000004_Node000011"><a xlink:title=" ">
<path fill="none" stroke="#63b8ff" d="M1286.4,-174.85C1165.02,-173.64 877.67,-166.14 641,-124 632.95,-122.57 624.52,-120.6 616.36,-118.43"/>
<polygon fill="#63b8ff" stroke="#63b8ff" points="1286.08,-178.35 1296.11,-174.94 1286.14,-171.35 1286.08,-178.35"/>
</a>
</g>
</g>
<!-- Node13 -->
<g id="Node000013" class="node">
<title>Node13</title>
<g id="a_Node000013"><a xlink:href="FlipCommand_8hpp.html" target="_top" xlink:title=" ">
<polygon fill="white" stroke="#666666" points="890.25,-118 761.75,-118 761.75,-86 890.25,-86 890.25,-118"/>
<text text-anchor="start" x="769.75" y="-104.5" font-family="Helvetica,sans-Serif" font-size="10.00">src/bot_library/commands</text>
<text text-anchor="middle" x="826" y="-92.5" font-family="Helvetica,sans-Serif" font-size="10.00">/flip/FlipCommand.hpp</text>
</a>
</g>
</g>
<!-- Node4&#45;&gt;Node13 -->
<g id="edge13_Node000004_Node000013" class="edge">
<title>Node4&#45;&gt;Node13</title>
<g id="a_edge13_Node000004_Node000013"><a xlink:title=" ">
<path fill="none" stroke="#63b8ff" d="M1286.22,-171.32C1200.62,-165.26 1036.93,-151.09 900,-124 892.27,-122.47 884.17,-120.53 876.29,-118.45"/>
<polygon fill="#63b8ff" stroke="#63b8ff" points="1285.79,-174.79 1296.01,-172 1286.27,-167.81 1285.79,-174.79"/>
</a>
</g>
</g>
<!-- Node15 -->
<g id="Node000015" class="node">
<title>Node15</title>
<g id="a_Node000015"><a xlink:href="HelpCommand_8hpp.html" target="_top" xlink:title=" ">
<polygon fill="white" stroke="#666666" points="1037.25,-118 908.75,-118 908.75,-86 1037.25,-86 1037.25,-118"/>
<text text-anchor="start" x="916.75" y="-104.5" font-family="Helvetica,sans-Serif" font-size="10.00">src/bot_library/commands</text>
<text text-anchor="middle" x="973" y="-92.5" font-family="Helvetica,sans-Serif" font-size="10.00">/help/HelpCommand.hpp</text>
</a>
</g>
</g>
<!-- Node4&#45;&gt;Node15 -->
<g id="edge16_Node000004_Node000015" class="edge">
<title>Node4&#45;&gt;Node15</title>
<g id="a_edge16_Node000004_Node000015"><a xlink:title=" ">
<path fill="none" stroke="#63b8ff" d="M1286.31,-166.96C1225.75,-158.2 1128.71,-142.89 1046,-124 1038.8,-122.36 1031.26,-120.43 1023.87,-118.41"/>
<polygon fill="#63b8ff" stroke="#63b8ff" points="1285.66,-170.4 1296.06,-168.36 1286.65,-163.47 1285.66,-170.4"/>
</a>
</g>
</g>
<!-- Node17 -->
<g id="Node000017" class="node">
<title>Node17</title>
<g id="a_Node000017"><a xlink:href="Commands_8hpp.html" target="_top" xlink:title=" ">
<polygon fill="white" stroke="#666666" points="338.25,-118 209.75,-118 209.75,-86 338.25,-86 338.25,-118"/>
<text text-anchor="start" x="217.75" y="-104.5" font-family="Helvetica,sans-Serif" font-size="10.00">src/bot_library/commands</text>
<text text-anchor="middle" x="274" y="-92.5" font-family="Helvetica,sans-Serif" font-size="10.00">/include/Commands.hpp</text>
</a>
</g>
</g>
<!-- Node4&#45;&gt;Node17 -->
<g id="edge19_Node000004_Node000017" class="edge">
<title>Node4&#45;&gt;Node17</title>
<g id="a_edge19_Node000004_Node000017"><a xlink:title=" ">
<path fill="none" stroke="#63b8ff" d="M1286.2,-173.76C1100.72,-169.58 529.5,-154.5 347,-124 338.81,-122.63 330.22,-120.66 321.94,-118.48"/>
<polygon fill="#63b8ff" stroke="#63b8ff" points="1286,-177.26 1296.08,-173.98 1286.16,-170.26 1286,-177.26"/>
</a>
</g>
</g>
<!-- Node18 -->
<g id="Node000018" class="node">
<title>Node18</title>
<g id="a_Node000018"><a xlink:href="InitDatabase_8hpp.html" target="_top" xlink:title=" ">
<polygon fill="white" stroke="#666666" points="154,-118 0,-118 0,-86 154,-86 154,-118"/>
<text text-anchor="start" x="8" y="-104.5" font-family="Helvetica,sans-Serif" font-size="10.00">src/bot_library/commands</text>
<text text-anchor="middle" x="77" y="-92.5" font-family="Helvetica,sans-Serif" font-size="10.00">/init_database/InitDatabase.hpp</text>
</a>
</g>
</g>
<!-- Node4&#45;&gt;Node18 -->
<g id="edge22_Node000004_Node000018" class="edge">
<title>Node4&#45;&gt;Node18</title>
<g id="a_edge22_Node000004_Node000018"><a xlink:title=" ">
<path fill="none" stroke="#63b8ff" d="M1286.09,-173.88C1079.37,-169.72 387.69,-153.85 168,-124 157.88,-122.62 147.23,-120.65 136.92,-118.47"/>
<polygon fill="#63b8ff" stroke="#63b8ff" points="1285.99,-177.38 1296.06,-174.08 1286.13,-170.38 1285.99,-177.38"/>
</a>
</g>
</g>
<!-- Node20 -->
<g id="Node000020" class="node">
<title>Node20</title>
<g id="a_Node000020"><a xlink:href="InviteCommand_8hpp.html" target="_top" xlink:title=" ">
<polygon fill="white" stroke="#666666" points="1188.5,-118 1055.5,-118 1055.5,-86 1188.5,-86 1188.5,-118"/>
<text text-anchor="start" x="1063.5" y="-104.5" font-family="Helvetica,sans-Serif" font-size="10.00">src/bot_library/commands</text>
<text text-anchor="middle" x="1122" y="-92.5" font-family="Helvetica,sans-Serif" font-size="10.00">/invite/InviteCommand.hpp</text>
</a>
</g>
</g>
<!-- Node4&#45;&gt;Node20 -->
<g id="edge24_Node000004_Node000020" class="edge">
<title>Node4&#45;&gt;Node20</title>
<g id="a_edge24_Node000004_Node000020"><a xlink:title=" ">
<path fill="none" stroke="#63b8ff" d="M1286.77,-156.2C1250.43,-144.47 1204.22,-129.55 1169.99,-118.5"/>
<polygon fill="#63b8ff" stroke="#63b8ff" points="1285.68,-159.52 1296.27,-159.27 1287.83,-152.86 1285.68,-159.52"/>
</a>
</g>
</g>
<!-- Node22 -->
<g id="Node000022" class="node">
<title>Node22</title>
<g id="a_Node000022"><a xlink:href="MemberCommand_8hpp.html" target="_top" xlink:title=" ">
<polygon fill="white" stroke="#666666" points="2019.12,-118 1862.88,-118 1862.88,-86 2019.12,-86 2019.12,-118"/>
<text text-anchor="start" x="1870.88" y="-104.5" font-family="Helvetica,sans-Serif" font-size="10.00">src/bot_library/commands</text>
<text text-anchor="middle" x="1941" y="-92.5" font-family="Helvetica,sans-Serif" font-size="10.00">/member/MemberCommand.hpp</text>
</a>
</g>
</g>
<!-- Node4&#45;&gt;Node22 -->
<g id="edge27_Node000004_Node000022" class="edge">
<title>Node4&#45;&gt;Node22</title>
<g id="a_edge27_Node000004_Node000022"><a xlink:title=" ">
<path fill="none" stroke="#63b8ff" d="M1403.68,-171.74C1498.77,-165.87 1692.21,-151.5 1854,-124 1863.04,-122.46 1872.53,-120.52 1881.79,-118.44"/>
<polygon fill="#63b8ff" stroke="#63b8ff" points="1403.59,-168.24 1393.82,-172.34 1404.01,-175.23 1403.59,-168.24"/>
</a>
</g>
</g>
<!-- Node24 -->
<g id="Node000024" class="node">
<title>Node24</title>
<g id="a_Node000024"><a xlink:href="PongCommand_8hpp.html" target="_top" xlink:title=" ">
<polygon fill="white" stroke="#666666" points="1335.62,-118 1206.38,-118 1206.38,-86 1335.62,-86 1335.62,-118"/>
<text text-anchor="start" x="1214.38" y="-104.5" font-family="Helvetica,sans-Serif" font-size="10.00">src/bot_library/commands</text>
<text text-anchor="middle" x="1271" y="-92.5" font-family="Helvetica,sans-Serif" font-size="10.00">/pong/PongCommand.hpp</text>
</a>
</g>
</g>
<!-- Node4&#45;&gt;Node24 -->
<g id="edge30_Node000004_Node000024" class="edge">
<title>Node4&#45;&gt;Node24</title>
<g id="a_edge30_Node000004_Node000024"><a xlink:title=" ">
<path fill="none" stroke="#63b8ff" d="M1321.18,-151.82C1309.97,-140.92 1296.91,-128.21 1286.93,-118.5"/>
<polygon fill="#63b8ff" stroke="#63b8ff" points="1318.61,-154.21 1328.22,-158.68 1323.5,-149.19 1318.61,-154.21"/>
</a>
</g>
</g>
<!-- Node26 -->
<g id="Node000026" class="node">
<title>Node26</title>
<g id="a_Node000026"><a xlink:href="ReactionRoles_8hpp.html" target="_top" xlink:title=" ">
<polygon fill="white" stroke="#666666" points="1845,-118 1679,-118 1679,-86 1845,-86 1845,-118"/>
<text text-anchor="start" x="1687" y="-104.5" font-family="Helvetica,sans-Serif" font-size="10.00">src/bot_library/commands</text>
<text text-anchor="middle" x="1762" y="-92.5" font-family="Helvetica,sans-Serif" font-size="10.00">/reaction_roles/ReactionRoles.hpp</text>
</a>
</g>
</g>
<!-- Node4&#45;&gt;Node26 -->
<g id="edge33_Node000004_Node000026" class="edge">
<title>Node4&#45;&gt;Node26</title>
<g id="a_edge33_Node000004_Node000026"><a xlink:title=" ">
<path fill="none" stroke="#63b8ff" d="M1403.54,-167.05C1468.77,-157.9 1577.28,-141.84 1670,-124 1678.69,-122.33 1687.8,-120.43 1696.78,-118.47"/>
<polygon fill="#63b8ff" stroke="#63b8ff" points="1403.19,-163.57 1393.77,-168.41 1404.16,-170.5 1403.19,-163.57"/>
</a>
</g>
</g>
<!-- Node28 -->
<g id="Node000028" class="node">
<title>Node28</title>
<g id="a_Node000028"><a xlink:href="ResourcesCommand_8hpp.html" target="_top" xlink:title=" ">
<polygon fill="white" stroke="#666666" points="2212.88,-118 2037.12,-118 2037.12,-86 2212.88,-86 2212.88,-118"/>
<text text-anchor="start" x="2045.12" y="-104.5" font-family="Helvetica,sans-Serif" font-size="10.00">src/bot_library/commands</text>
<text text-anchor="middle" x="2125" y="-92.5" font-family="Helvetica,sans-Serif" font-size="10.00">/resources/ResourcesCommand.hpp</text>
</a>
</g>
</g>
<!-- Node4&#45;&gt;Node28 -->
<g id="edge36_Node000004_Node000028" class="edge">
<title>Node4&#45;&gt;Node28</title>
<g id="a_edge36_Node000004_Node000028"><a xlink:title=" ">
<path fill="none" stroke="#63b8ff" d="M1403.76,-173.36C1522.34,-169.43 1798.52,-157.24 2028,-124 2038.23,-122.52 2049,-120.58 2059.48,-118.47"/>
<polygon fill="#63b8ff" stroke="#63b8ff" points="1403.84,-169.85 1393.96,-173.67 1404.07,-176.85 1403.84,-169.85"/>
</a>
</g>
</g>
<!-- Node30 -->
<g id="Node000030" class="node">
<title>Node30</title>
<g id="a_Node000030"><a xlink:href="RollCommand_8hpp.html" target="_top" xlink:title=" ">
<polygon fill="white" stroke="#666666" points="1482.25,-118 1353.75,-118 1353.75,-86 1482.25,-86 1482.25,-118"/>
<text text-anchor="start" x="1361.75" y="-104.5" font-family="Helvetica,sans-Serif" font-size="10.00">src/bot_library/commands</text>
<text text-anchor="middle" x="1418" y="-92.5" font-family="Helvetica,sans-Serif" font-size="10.00">/roll/RollCommand.hpp</text>
</a>
</g>
</g>
<!-- Node4&#45;&gt;Node30 -->
<g id="edge39_Node000004_Node000030" class="edge">
<title>Node4&#45;&gt;Node30</title>
<g id="a_edge39_Node000004_Node000030"><a xlink:title=" ">
<path fill="none" stroke="#63b8ff" d="M1368.5,-151.82C1379.55,-140.92 1392.44,-128.21 1402.29,-118.5"/>
<polygon fill="#63b8ff" stroke="#63b8ff" points="1366.22,-149.15 1361.56,-158.67 1371.14,-154.14 1366.22,-149.15"/>
</a>
</g>
</g>
<!-- Node32 -->
<g id="Node000032" class="node">
<title>Node32</title>
<g id="a_Node000032"><a xlink:href="ServerDetails_8hpp.html" target="_top" xlink:title=" ">
<polygon fill="white" stroke="#666666" points="1661.38,-118 1500.62,-118 1500.62,-86 1661.38,-86 1661.38,-118"/>
<text text-anchor="start" x="1508.62" y="-104.5" font-family="Helvetica,sans-Serif" font-size="10.00">src/bot_library/commands</text>
<text text-anchor="middle" x="1581" y="-92.5" font-family="Helvetica,sans-Serif" font-size="10.00">/server_details/ServerDetails.hpp</text>
</a>
</g>
</g>
<!-- Node4&#45;&gt;Node32 -->
<g id="edge42_Node000004_Node000032" class="edge">
<title>Node4&#45;&gt;Node32</title>
<g id="a_edge42_Node000004_Node000032"><a xlink:title=" ">
<path fill="none" stroke="#63b8ff" d="M1403.39,-157.19C1442.35,-145.3 1493.08,-129.82 1530.34,-118.46"/>
<polygon fill="#63b8ff" stroke="#63b8ff" points="1402.47,-153.81 1393.92,-160.07 1404.51,-160.5 1402.47,-153.81"/>
</a>
</g>
</g>
<!-- Node34 -->
<g id="Node000034" class="node">
<title>Node34</title>
<g id="a_Node000034"><a xlink:href="server__details_2set__channel_2SetChannelCommand_8hpp.html" target="_top" xlink:title=" ">
<polygon fill="white" stroke="#666666" points="2634.62,-124 2499.38,-124 2499.38,-80 2634.62,-80 2634.62,-124"/>
<text text-anchor="start" x="2507.38" y="-110.5" font-family="Helvetica,sans-Serif" font-size="10.00">src/bot_library/commands</text>
<text text-anchor="start" x="2507.38" y="-98.5" font-family="Helvetica,sans-Serif" font-size="10.00">/server_details/set_channel</text>
<text text-anchor="middle" x="2567" y="-86.5" font-family="Helvetica,sans-Serif" font-size="10.00">/SetChannelCommand.hpp</text>
</a>
</g>
</g>
<!-- Node4&#45;&gt;Node34 -->
<g id="edge45_Node000004_Node000034" class="edge">
<title>Node4&#45;&gt;Node34</title>
<g id="a_edge45_Node000004_Node000034"><a xlink:title=" ">
<path fill="none" stroke="#63b8ff" d="M1403.75,-175.07C1569.24,-174.67 2053.21,-169.39 2452,-124 2467.33,-122.26 2483.69,-119.7 2499.12,-116.96"/>
<polygon fill="#63b8ff" stroke="#63b8ff" points="1403.89,-171.57 1393.9,-175.09 1403.91,-178.57 1403.89,-171.57"/>
</a>
</g>
</g>
<!-- Node36 -->
<g id="Node000036" class="node">
<title>Node36</title>
<g id="a_Node000036"><a xlink:href="set__channel_2SetChannelCommand_8hpp.html" target="_top" xlink:title=" ">
<polygon fill="white" stroke="#666666" points="2918.62,-118 2729.38,-118 2729.38,-86 2918.62,-86 2918.62,-118"/>
<text text-anchor="start" x="2737.38" y="-104.5" font-family="Helvetica,sans-Serif" font-size="10.00">src/bot_library/commands</text>
<text text-anchor="middle" x="2824" y="-92.5" font-family="Helvetica,sans-Serif" font-size="10.00">/set_channel/SetChannelCommand.hpp</text>
</a>
</g>
</g>
<!-- Node4&#45;&gt;Node36 -->
<g id="edge47_Node000004_Node000036" class="edge">
<title>Node4&#45;&gt;Node36</title>
<g id="a_edge47_Node000004_Node000036"><a xlink:title=" ">
<path fill="none" stroke="#63b8ff" d="M1403.5,-174.31C1586.76,-171.79 2165.97,-161.21 2644,-124 2671.76,-121.84 2701.84,-118.66 2729.31,-115.43"/>
<polygon fill="#63b8ff" stroke="#63b8ff" points="1403.73,-170.8 1393.77,-174.44 1403.82,-177.8 1403.73,-170.8"/>
</a>
</g>
</g>
<!-- Node38 -->
<g id="Node000038" class="node">
<title>Node38</title>
<g id="a_Node000038"><a xlink:href="SetStatus_8hpp.html" target="_top" xlink:title=" ">
<polygon fill="white" stroke="#666666" points="486,-118 356,-118 356,-86 486,-86 486,-118"/>
<text text-anchor="start" x="364" y="-104.5" font-family="Helvetica,sans-Serif" font-size="10.00">src/bot_library/commands</text>
<text text-anchor="middle" x="421" y="-92.5" font-family="Helvetica,sans-Serif" font-size="10.00">/set_status/SetStatus.hpp</text>
</a>
</g>
</g>
<!-- Node4&#45;&gt;Node38 -->
<g id="edge49_Node000004_Node000038" class="edge">
<title>Node4&#45;&gt;Node38</title>
<g id="a_edge49_Node000004_Node000038"><a xlink:title=" ">
<path fill="none" stroke="#63b8ff" d="M1286.44,-175.83C1147.81,-176.84 789.16,-173.96 495,-124 486.71,-122.59 478.01,-120.6 469.62,-118.41"/>
<polygon fill="#63b8ff" stroke="#63b8ff" points="1286.11,-179.33 1296.09,-175.75 1286.06,-172.33 1286.11,-179.33"/>
</a>
</g>
</g>
<!-- Node8 -->
<g id="Node000008" class="node">
<title>Node8</title>
<g id="a_Node000008"><a xlink:href="Commands_8cpp.html" target="_top" xlink:title=" ">
<polygon fill="white" stroke="#666666" points="1472.25,-38 1343.75,-38 1343.75,-6 1472.25,-6 1472.25,-38"/>
<text text-anchor="start" x="1351.75" y="-24.5" font-family="Helvetica,sans-Serif" font-size="10.00">src/bot_library/commands</text>
<text text-anchor="middle" x="1408" y="-12.5" font-family="Helvetica,sans-Serif" font-size="10.00">/Commands.cpp</text>
</a>
</g>
</g>
<!-- Node7&#45;&gt;Node8 -->
<g id="edge7_Node000007_Node000008" class="edge">
<title>Node7&#45;&gt;Node8</title>
<g id="a_edge7_Node000007_Node000008"><a xlink:title=" ">
<path fill="none" stroke="#63b8ff" d="M2249.1,-83.72C2239.97,-82.3 2230.82,-81.01 2222,-80 1894.88,-42.34 1806.94,-97.29 1482,-44 1473.7,-42.64 1465,-40.68 1456.6,-38.49"/>
<polygon fill="#63b8ff" stroke="#63b8ff" points="2248.27,-87.13 2258.7,-85.28 2249.39,-80.22 2248.27,-87.13"/>
</a>
</g>
</g>
<!-- Node7&#45;&gt;Node9 -->
<g id="edge8_Node000007_Node000009" class="edge">
<title>Node7&#45;&gt;Node9</title>
<g id="a_edge8_Node000007_Node000009"><a xlink:title=" ">
<path fill="none" stroke="#63b8ff" d="M2415.96,-83.04C2475.26,-69.56 2555.64,-51.28 2612.08,-38.44"/>
<polygon fill="#63b8ff" stroke="#63b8ff" points="2415.22,-79.62 2406.24,-85.25 2416.77,-86.45 2415.22,-79.62"/>
</a>
</g>
</g>
<!-- Node10 -->
<g id="Node000010" class="node">
<title>Node10</title>
<g id="a_Node000010"><a xlink:href="ChallengeRoleDTO_8cpp.html" target="_top" xlink:title=" ">
<polygon fill="white" stroke="#666666" points="2003.88,-38 1816.12,-38 1816.12,-6 2003.88,-6 2003.88,-38"/>
<text text-anchor="start" x="1824.12" y="-24.5" font-family="Helvetica,sans-Serif" font-size="10.00">src/bot_library/commands</text>
<text text-anchor="middle" x="1910" y="-12.5" font-family="Helvetica,sans-Serif" font-size="10.00">/challenge_role/ChallengeRoleDTO.cpp</text>
</a>
</g>
</g>
<!-- Node7&#45;&gt;Node10 -->
<g id="edge9_Node000007_Node000010" class="edge">
<title>Node7&#45;&gt;Node10</title>
<g id="a_edge9_Node000007_Node000010"><a xlink:title=" ">
<path fill="none" stroke="#63b8ff" d="M2241.65,-83.51C2235,-82.32 2228.4,-81.14 2222,-80 2129.19,-63.53 2105.63,-61.42 2013,-44 2003.76,-42.26 1994.07,-40.38 1984.49,-38.47"/>
<polygon fill="#63b8ff" stroke="#63b8ff" points="2240.9,-86.93 2251.37,-85.27 2242.15,-80.05 2240.9,-86.93"/>
</a>
</g>
</g>
<!-- Node11&#45;&gt;Node8 -->
<g id="edge11_Node000011_Node000008" class="edge">
<title>Node11&#45;&gt;Node8</title>
<g id="a_edge11_Node000011_Node000008"><a xlink:title=" ">
<path fill="none" stroke="#63b8ff" d="M626.93,-82.82C631.66,-81.73 636.39,-80.77 641,-80 945.62,-28.97 1030.38,-95.03 1335,-44 1343.19,-42.63 1351.78,-40.66 1360.06,-38.47"/>
<polygon fill="#63b8ff" stroke="#63b8ff" points="626.28,-79.37 617.41,-85.17 627.96,-86.17 626.28,-79.37"/>
</a>
</g>
</g>
<!-- Node12 -->
<g id="Node000012" class="node">
<title>Node12</title>
<g id="a_Node000012"><a xlink:href="CleanUp_8cpp.html" target="_top" xlink:title=" ">
<polygon fill="white" stroke="#666666" points="632.25,-38 503.75,-38 503.75,-6 632.25,-6 632.25,-38"/>
<text text-anchor="start" x="511.75" y="-24.5" font-family="Helvetica,sans-Serif" font-size="10.00">src/bot_library/commands</text>
<text text-anchor="middle" x="568" y="-12.5" font-family="Helvetica,sans-Serif" font-size="10.00">/clean_up/CleanUp.cpp</text>
</a>
</g>
</g>
<!-- Node11&#45;&gt;Node12 -->
<g id="edge12_Node000011_Node000012" class="edge">
<title>Node11&#45;&gt;Node12</title>
<g id="a_edge12_Node000011_Node000012"><a xlink:title=" ">
<path fill="none" stroke="#63b8ff" d="M568,-74.37C568,-62.37 568,-48.63 568,-38.38"/>
<polygon fill="#63b8ff" stroke="#63b8ff" points="564.5,-74.08 568,-84.08 571.5,-74.08 564.5,-74.08"/>
</a>
</g>
</g>
<!-- Node13&#45;&gt;Node8 -->
<g id="edge14_Node000013_Node000008" class="edge">
<title>Node13&#45;&gt;Node8</title>
<g id="a_edge14_Node000013_Node000008"><a xlink:title=" ">
<path fill="none" stroke="#63b8ff" d="M886.61,-82.78C891.12,-81.74 895.62,-80.8 900,-80 1090.88,-45.36 1144.19,-78.99 1335,-44 1342.91,-42.55 1351.2,-40.6 1359.23,-38.47"/>
<polygon fill="#63b8ff" stroke="#63b8ff" points="885.78,-79.38 876.92,-85.18 887.46,-86.18 885.78,-79.38"/>
</a>
</g>
</g>
<!-- Node14 -->
<g id="Node000014" class="node">
<title>Node14</title>
<g id="a_Node000014"><a xlink:href="FlipCommand_8cpp.html" target="_top" xlink:title=" ">
<polygon fill="white" stroke="#666666" points="880.25,-38 751.75,-38 751.75,-6 880.25,-6 880.25,-38"/>
<text text-anchor="start" x="759.75" y="-24.5" font-family="Helvetica,sans-Serif" font-size="10.00">src/bot_library/commands</text>
<text text-anchor="middle" x="816" y="-12.5" font-family="Helvetica,sans-Serif" font-size="10.00">/flip/FlipCommand.cpp</text>
</a>
</g>
</g>
<!-- Node13&#45;&gt;Node14 -->
<g id="edge15_Node000013_Node000014" class="edge">
<title>Node13&#45;&gt;Node14</title>
<g id="a_edge15_Node000013_Node000014"><a xlink:title=" ">
<path fill="none" stroke="#63b8ff" d="M822.59,-74.37C821.05,-62.37 819.29,-48.63 817.97,-38.38"/>
<polygon fill="#63b8ff" stroke="#63b8ff" points="819.09,-74.61 823.83,-84.09 826.03,-73.72 819.09,-74.61"/>
</a>
</g>
</g>
<!-- Node15&#45;&gt;Node8 -->
<g id="edge17_Node000015_Node000008" class="edge">
<title>Node15&#45;&gt;Node8</title>
<g id="a_edge17_Node000015_Node000008"><a xlink:title=" ">
<path fill="none" stroke="#63b8ff" d="M1033.63,-82.78C1037.8,-81.77 1041.95,-80.83 1046,-80 1172.8,-54.03 1208.2,-69.97 1335,-44 1342.62,-42.44 1350.61,-40.48 1358.39,-38.39"/>
<polygon fill="#63b8ff" stroke="#63b8ff" points="1032.9,-79.36 1024.08,-85.23 1034.64,-86.14 1032.9,-79.36"/>
</a>
</g>
</g>
<!-- Node16 -->
<g id="Node000016" class="node">
<title>Node16</title>
<g id="a_Node000016"><a xlink:href="HelpCommand_8cpp.html" target="_top" xlink:title=" ">
<polygon fill="white" stroke="#666666" points="1027.25,-38 898.75,-38 898.75,-6 1027.25,-6 1027.25,-38"/>
<text text-anchor="start" x="906.75" y="-24.5" font-family="Helvetica,sans-Serif" font-size="10.00">src/bot_library/commands</text>
<text text-anchor="middle" x="963" y="-12.5" font-family="Helvetica,sans-Serif" font-size="10.00">/help/HelpCommand.cpp</text>
</a>
</g>
</g>
<!-- Node15&#45;&gt;Node16 -->
<g id="edge18_Node000015_Node000016" class="edge">
<title>Node15&#45;&gt;Node16</title>
<g id="a_edge18_Node000015_Node000016"><a xlink:title=" ">
<path fill="none" stroke="#63b8ff" d="M969.59,-74.37C968.05,-62.37 966.29,-48.63 964.97,-38.38"/>
<polygon fill="#63b8ff" stroke="#63b8ff" points="966.09,-74.61 970.83,-84.09 973.03,-73.72 966.09,-74.61"/>
</a>
</g>
</g>
<!-- Node17&#45;&gt;Node5 -->
<g id="edge20_Node000017_Node000005" class="edge">
<title>Node17&#45;&gt;Node5</title>
<g id="a_edge20_Node000017_Node000005"><a xlink:title=" ">
<path fill="none" stroke="#63b8ff" d="M267.58,-74.66C264.04,-60.11 259.85,-42.91 257.31,-32.49"/>
<polygon fill="#63b8ff" stroke="#63b8ff" points="264.12,-75.23 269.89,-84.12 270.92,-73.57 264.12,-75.23"/>
</a>
</g>
</g>
<!-- Node17&#45;&gt;Node8 -->
<g id="edge21_Node000017_Node000008" class="edge">
<title>Node17&#45;&gt;Node8</title>
<g id="a_edge21_Node000017_Node000008"><a xlink:title=" ">
<path fill="none" stroke="#63b8ff" d="M332.69,-82.79C337.5,-81.7 342.31,-80.75 347,-80 780.91,-10.75 901.09,-113.25 1335,-44 1343.33,-42.67 1352.06,-40.69 1360.47,-38.47"/>
<polygon fill="#63b8ff" stroke="#63b8ff" points="331.88,-79.38 323,-85.17 333.55,-86.18 331.88,-79.38"/>
</a>
</g>
</g>
<!-- Node19 -->
<g id="Node000019" class="node">
<title>Node19</title>
<g id="a_Node000019"><a xlink:href="InitDatabase_8cpp.html" target="_top" xlink:title=" ">
<polygon fill="white" stroke="#666666" points="154,-38 0,-38 0,-6 154,-6 154,-38"/>
<text text-anchor="start" x="8" y="-24.5" font-family="Helvetica,sans-Serif" font-size="10.00">src/bot_library/commands</text>
<text text-anchor="middle" x="77" y="-12.5" font-family="Helvetica,sans-Serif" font-size="10.00">/init_database/InitDatabase.cpp</text>
</a>
</g>
</g>
<!-- Node18&#45;&gt;Node19 -->
<g id="edge23_Node000018_Node000019" class="edge">
<title>Node18&#45;&gt;Node19</title>
<g id="a_edge23_Node000018_Node000019"><a xlink:title=" ">
<path fill="none" stroke="#63b8ff" d="M77,-74.37C77,-62.37 77,-48.63 77,-38.38"/>
<polygon fill="#63b8ff" stroke="#63b8ff" points="73.5,-74.08 77,-84.08 80.5,-74.08 73.5,-74.08"/>
</a>
</g>
</g>
<!-- Node20&#45;&gt;Node8 -->
<g id="edge25_Node000020_Node000008" class="edge">
<title>Node20&#45;&gt;Node8</title>
<g id="a_edge25_Node000020_Node000008"><a xlink:title=" ">
<path fill="none" stroke="#63b8ff" d="M1187.65,-82.54C1190.81,-81.68 1193.94,-80.83 1197,-80 1258.19,-63.45 1273.87,-60.76 1335,-44 1341.49,-42.22 1348.29,-40.32 1355.02,-38.41"/>
<polygon fill="#63b8ff" stroke="#63b8ff" points="1187.03,-79.09 1178.32,-85.12 1188.89,-85.84 1187.03,-79.09"/>
</a>
</g>
</g>
<!-- Node21 -->
<g id="Node000021" class="node">
<title>Node21</title>
<g id="a_Node000021"><a xlink:href="InviteCommand_8cpp.html" target="_top" xlink:title=" ">
<polygon fill="white" stroke="#666666" points="1178.5,-38 1045.5,-38 1045.5,-6 1178.5,-6 1178.5,-38"/>
<text text-anchor="start" x="1053.5" y="-24.5" font-family="Helvetica,sans-Serif" font-size="10.00">src/bot_library/commands</text>
<text text-anchor="middle" x="1112" y="-12.5" font-family="Helvetica,sans-Serif" font-size="10.00">/invite/InviteCommand.cpp</text>
</a>
</g>
</g>
<!-- Node20&#45;&gt;Node21 -->
<g id="edge26_Node000020_Node000021" class="edge">
<title>Node20&#45;&gt;Node21</title>
<g id="a_edge26_Node000020_Node000021"><a xlink:title=" ">
<path fill="none" stroke="#63b8ff" d="M1118.59,-74.37C1117.05,-62.37 1115.29,-48.63 1113.97,-38.38"/>
<polygon fill="#63b8ff" stroke="#63b8ff" points="1115.09,-74.61 1119.83,-84.09 1122.03,-73.72 1115.09,-74.61"/>
</a>
</g>
</g>
<!-- Node22&#45;&gt;Node8 -->
<g id="edge28_Node000022_Node000008" class="edge">
<title>Node22&#45;&gt;Node8</title>
<g id="a_edge28_Node000022_Node000008"><a xlink:title=" ">
<path fill="none" stroke="#63b8ff" d="M1870.88,-83.18C1865.19,-82.01 1859.51,-80.93 1854,-80 1690.2,-52.44 1645.23,-74.8 1482,-44 1474.13,-42.51 1465.88,-40.57 1457.86,-38.47"/>
<polygon fill="#63b8ff" stroke="#63b8ff" points="1869.8,-86.53 1880.31,-85.21 1871.28,-79.69 1869.8,-86.53"/>
</a>
</g>
</g>
<!-- Node22&#45;&gt;Node23 -->
<g id="edge29_Node000022_Node000023" class="edge">
<title>Node22&#45;&gt;Node23</title>
<g id="a_edge29_Node000022_Node000023"><a xlink:title=" ">
<path fill="none" stroke="#63b8ff" d="M2015.06,-82.98C2019.44,-81.96 2023.77,-80.96 2028,-80 2102.89,-62.99 2122.11,-61.01 2197,-44 2204.73,-42.24 2212.83,-40.36 2220.85,-38.45"/>
<polygon fill="#63b8ff" stroke="#63b8ff" points="2014.56,-79.5 2005.62,-85.2 2016.16,-86.32 2014.56,-79.5"/>
</a>
</g>
</g>
<!-- Node24&#45;&gt;Node8 -->
<g id="edge31_Node000024_Node000008" class="edge">
<title>Node24&#45;&gt;Node8</title>
<g id="a_edge31_Node000024_Node000008"><a xlink:title=" ">
<path fill="none" stroke="#63b8ff" d="M1307.85,-80.02C1330.9,-66.9 1360.08,-50.28 1380.99,-38.38"/>
<polygon fill="#63b8ff" stroke="#63b8ff" points="1306.34,-76.85 1299.38,-84.84 1309.8,-82.93 1306.34,-76.85"/>
</a>
</g>
</g>
<!-- Node25 -->
<g id="Node000025" class="node">
<title>Node25</title>
<g id="a_Node000025"><a xlink:href="PongCommand_8cpp.html" target="_top" xlink:title=" ">
<polygon fill="white" stroke="#666666" points="1325.62,-38 1196.38,-38 1196.38,-6 1325.62,-6 1325.62,-38"/>
<text text-anchor="start" x="1204.38" y="-24.5" font-family="Helvetica,sans-Serif" font-size="10.00">src/bot_library/commands</text>
<text text-anchor="middle" x="1261" y="-12.5" font-family="Helvetica,sans-Serif" font-size="10.00">/pong/PongCommand.cpp</text>
</a>
</g>
</g>
<!-- Node24&#45;&gt;Node25 -->
<g id="edge32_Node000024_Node000025" class="edge">
<title>Node24&#45;&gt;Node25</title>
<g id="a_edge32_Node000024_Node000025"><a xlink:title=" ">
<path fill="none" stroke="#63b8ff" d="M1267.59,-74.37C1266.05,-62.37 1264.29,-48.63 1262.97,-38.38"/>
<polygon fill="#63b8ff" stroke="#63b8ff" points="1264.09,-74.61 1268.83,-84.09 1271.03,-73.72 1264.09,-74.61"/>
</a>
</g>
</g>
<!-- Node26&#45;&gt;Node8 -->
<g id="edge34_Node000026_Node000008" class="edge">
<title>Node26&#45;&gt;Node8</title>
<g id="a_edge34_Node000026_Node000008"><a xlink:title=" ">
<path fill="none" stroke="#63b8ff" d="M1684.77,-83.16C1679.78,-82.07 1674.82,-81.01 1670,-80 1586.74,-62.53 1564.78,-63.63 1482,-44 1474.98,-42.34 1467.63,-40.44 1460.4,-38.48"/>
<polygon fill="#63b8ff" stroke="#63b8ff" points="1683.73,-86.52 1694.25,-85.25 1685.24,-79.68 1683.73,-86.52"/>
</a>
</g>
</g>
<!-- Node26&#45;&gt;Node27 -->
<g id="edge35_Node000026_Node000027" class="edge">
<title>Node26&#45;&gt;Node27</title>
<g id="a_edge35_Node000026_Node000027"><a xlink:title=" ">
<path fill="none" stroke="#63b8ff" d="M1840.89,-82.98C1845.33,-81.97 1849.72,-80.97 1854,-80 1924.65,-63.94 1942.35,-60.06 2013,-44 2020.83,-42.22 2029.03,-40.35 2037.18,-38.5"/>
<polygon fill="#63b8ff" stroke="#63b8ff" points="1840.27,-79.53 1831.3,-85.17 1841.83,-86.36 1840.27,-79.53"/>
</a>
</g>
</g>
<!-- Node28&#45;&gt;Node8 -->
<g id="edge37_Node000028_Node000008" class="edge">
<title>Node28&#45;&gt;Node8</title>
<g id="a_edge37_Node000028_Node000008"><a xlink:title=" ">
<path fill="none" stroke="#63b8ff" d="M2048.53,-83.35C2041.61,-82.09 2034.69,-80.94 2028,-80 1787.17,-46.18 1721.64,-85.43 1482,-44 1473.84,-42.59 1465.29,-40.63 1457.02,-38.47"/>
<polygon fill="#63b8ff" stroke="#63b8ff" points="2047.79,-86.77 2058.27,-85.22 2049.1,-79.9 2047.79,-86.77"/>
</a>
</g>
</g>
<!-- Node28&#45;&gt;Node29 -->
<g id="edge38_Node000028_Node000029" class="edge">
<title>Node28&#45;&gt;Node29</title>
<g id="a_edge38_Node000028_Node000029"><a xlink:title=" ">
<path fill="none" stroke="#63b8ff" d="M2203.96,-83.04C2263.26,-69.56 2343.64,-51.28 2400.08,-38.44"/>
<polygon fill="#63b8ff" stroke="#63b8ff" points="2203.22,-79.62 2194.24,-85.25 2204.77,-86.45 2203.22,-79.62"/>
</a>
</g>
</g>
<!-- Node30&#45;&gt;Node8 -->
<g id="edge40_Node000030_Node000008" class="edge">
<title>Node30&#45;&gt;Node8</title>
<g id="a_edge40_Node000030_Node000008"><a xlink:title=" ">
<path fill="none" stroke="#63b8ff" d="M1414.59,-74.37C1413.05,-62.37 1411.29,-48.63 1409.97,-38.38"/>
<polygon fill="#63b8ff" stroke="#63b8ff" points="1411.09,-74.61 1415.83,-84.09 1418.03,-73.72 1411.09,-74.61"/>
</a>
</g>
</g>
<!-- Node31 -->
<g id="Node000031" class="node">
<title>Node31</title>
<g id="a_Node000031"><a xlink:href="RollCommand_8cpp.html" target="_top" xlink:title=" ">
<polygon fill="white" stroke="#666666" points="1619.25,-38 1490.75,-38 1490.75,-6 1619.25,-6 1619.25,-38"/>
<text text-anchor="start" x="1498.75" y="-24.5" font-family="Helvetica,sans-Serif" font-size="10.00">src/bot_library/commands</text>
<text text-anchor="middle" x="1555" y="-12.5" font-family="Helvetica,sans-Serif" font-size="10.00">/roll/RollCommand.cpp</text>
</a>
</g>
</g>
<!-- Node30&#45;&gt;Node31 -->
<g id="edge41_Node000030_Node000031" class="edge">
<title>Node30&#45;&gt;Node31</title>
<g id="a_edge41_Node000030_Node000031"><a xlink:title=" ">
<path fill="none" stroke="#63b8ff" d="M1454.85,-80.02C1477.9,-66.9 1507.08,-50.28 1527.99,-38.38"/>
<polygon fill="#63b8ff" stroke="#63b8ff" points="1453.34,-76.85 1446.38,-84.84 1456.8,-82.93 1453.34,-76.85"/>
</a>
</g>
</g>
<!-- Node32&#45;&gt;Node8 -->
<g id="edge43_Node000032_Node000008" class="edge">
<title>Node32&#45;&gt;Node8</title>
<g id="a_edge43_Node000032_Node000008"><a xlink:title=" ">
<path fill="none" stroke="#63b8ff" d="M1536.41,-80.9C1507.01,-67.64 1469.1,-50.55 1442.11,-38.38"/>
<polygon fill="#63b8ff" stroke="#63b8ff" points="1534.89,-84.05 1545.44,-84.97 1537.76,-77.67 1534.89,-84.05"/>
</a>
</g>
</g>
<!-- Node33 -->
<g id="Node000033" class="node">
<title>Node33</title>
<g id="a_Node000033"><a xlink:href="ServerDetails_8cpp.html" target="_top" xlink:title=" ">
<polygon fill="white" stroke="#666666" points="1798.38,-38 1637.62,-38 1637.62,-6 1798.38,-6 1798.38,-38"/>
<text text-anchor="start" x="1645.62" y="-24.5" font-family="Helvetica,sans-Serif" font-size="10.00">src/bot_library/commands</text>
<text text-anchor="middle" x="1718" y="-12.5" font-family="Helvetica,sans-Serif" font-size="10.00">/server_details/ServerDetails.cpp</text>
</a>
</g>
</g>
<!-- Node32&#45;&gt;Node33 -->
<g id="edge44_Node000032_Node000033" class="edge">
<title>Node32&#45;&gt;Node33</title>
<g id="a_edge44_Node000032_Node000033"><a xlink:title=" ">
<path fill="none" stroke="#63b8ff" d="M1617.85,-80.02C1640.9,-66.9 1670.08,-50.28 1690.99,-38.38"/>
<polygon fill="#63b8ff" stroke="#63b8ff" points="1616.34,-76.85 1609.38,-84.84 1619.8,-82.93 1616.34,-76.85"/>
</a>
</g>
</g>
<!-- Node34&#45;&gt;Node35 -->
<g id="edge46_Node000034_Node000035" class="edge">
<title>Node34&#45;&gt;Node35</title>
<g id="a_edge46_Node000034_Node000035"><a xlink:title=" ">
<path fill="none" stroke="#63b8ff" d="M2645.85,-81.73C2689.81,-70.87 2745.51,-56.93 2795,-44 2797.95,-43.23 2800.96,-42.44 2804,-41.63"/>
<polygon fill="#63b8ff" stroke="#63b8ff" points="2645.28,-78.26 2636.41,-84.05 2646.95,-85.06 2645.28,-78.26"/>
</a>
</g>
</g>
<!-- Node36&#45;&gt;Node37 -->
<g id="edge48_Node000036_Node000037" class="edge">
<title>Node36&#45;&gt;Node37</title>
<g id="a_edge48_Node000036_Node000037"><a xlink:title=" ">
<path fill="none" stroke="#63b8ff" d="M2879.73,-81.93C2918.87,-68.55 2970.54,-50.87 3007.05,-38.38"/>
<polygon fill="#63b8ff" stroke="#63b8ff" points="2878.81,-78.55 2870.48,-85.1 2881.07,-85.17 2878.81,-78.55"/>
</a>
</g>
</g>
<!-- Node38&#45;&gt;Node8 -->
<g id="edge50_Node000038_Node000008" class="edge">
<title>Node38&#45;&gt;Node8</title>
<g id="a_edge50_Node000038_Node000008"><a xlink:title=" ">
<path fill="none" stroke="#63b8ff" d="M480.1,-82.91C485.11,-81.78 490.12,-80.79 495,-80 863.92,-20.59 966.18,-104.08 1335,-44 1343.33,-42.64 1352.06,-40.65 1360.46,-38.43"/>
<polygon fill="#63b8ff" stroke="#63b8ff" points="479.55,-79.44 470.67,-85.22 481.21,-86.24 479.55,-79.44"/>
</a>
</g>
</g>
<!-- Node39 -->
<g id="Node000039" class="node">
<title>Node39</title>
<g id="a_Node000039"><a xlink:href="SetStatus_8cpp.html" target="_top" xlink:title=" ">
<polygon fill="white" stroke="#666666" points="486,-38 356,-38 356,-6 486,-6 486,-38"/>
<text text-anchor="start" x="364" y="-24.5" font-family="Helvetica,sans-Serif" font-size="10.00">src/bot_library/commands</text>
<text text-anchor="middle" x="421" y="-12.5" font-family="Helvetica,sans-Serif" font-size="10.00">/set_status/SetStatus.cpp</text>
</a>
</g>
</g>
<!-- Node38&#45;&gt;Node39 -->
<g id="edge51_Node000038_Node000039" class="edge">
<title>Node38&#45;&gt;Node39</title>
<g id="a_edge51_Node000038_Node000039"><a xlink:title=" ">
<path fill="none" stroke="#63b8ff" d="M421,-74.37C421,-62.37 421,-48.63 421,-38.38"/>
<polygon fill="#63b8ff" stroke="#63b8ff" points="417.5,-74.08 421,-84.08 424.5,-74.08 417.5,-74.08"/>
</a>
</g>
</g>
</g>
</svg>
