<?xml version="1.0" encoding="UTF-8" standalone="no"?>
<!DOCTYPE svg PUBLIC "-//W3C//DTD SVG 1.1//EN"
 "http://www.w3.org/Graphics/SVG/1.1/DTD/svg11.dtd">
<!-- Generated by graphviz version 12.1.2 (0)
 -->
<!-- Title: src/bot_library/bot/core/interfaces/include/IReady.hpp Pages: 1 -->
<svg width="3403pt" height="280pt"
 viewBox="0.00 0.00 3403.38 280.00" xmlns="http://www.w3.org/2000/svg" xmlns:xlink="http://www.w3.org/1999/xlink">
<g id="graph0" class="graph" transform="scale(1 1) rotate(0) translate(4 276)">
<title>src/bot_library/bot/core/interfaces/include/IReady.hpp</title>
<!-- Node1 -->
<g id="Node000001" class="node">
<title>Node1</title>
<g id="a_Node000001"><a xlink:title=" ">
<polygon fill="#999999" stroke="#666666" points="1796,-272 1678.75,-272 1678.75,-228 1796,-228 1796,-272"/>
<text text-anchor="start" x="1686.75" y="-258.5" font-family="Helvetica,sans-Serif" font-size="10.00">src/bot_library/bot</text>
<text text-anchor="start" x="1686.75" y="-246.5" font-family="Helvetica,sans-Serif" font-size="10.00">/core/interfaces/include</text>
<text text-anchor="middle" x="1737.38" y="-234.5" font-family="Helvetica,sans-Serif" font-size="10.00">/IReady.hpp</text>
</a>
</g>
</g>
<!-- Node2 -->
<g id="Node000002" class="node">
<title>Node2</title>
<g id="a_Node000002"><a xlink:href="Bot_8hpp.html" target="_top" xlink:title=" ">
<polygon fill="white" stroke="#666666" points="1784.38,-192 1690.38,-192 1690.38,-160 1784.38,-160 1784.38,-192"/>
<text text-anchor="start" x="1698.38" y="-178.5" font-family="Helvetica,sans-Serif" font-size="10.00">src/bot_library/bot</text>
<text text-anchor="middle" x="1737.38" y="-166.5" font-family="Helvetica,sans-Serif" font-size="10.00">/include/Bot.hpp</text>
</a>
</g>
</g>
<!-- Node1&#45;&gt;Node2 -->
<g id="edge1_Node000001_Node000002" class="edge">
<title>Node1&#45;&gt;Node2</title>
<g id="a_edge1_Node000001_Node000002"><a xlink:title=" ">
<path fill="none" stroke="#63b8ff" d="M1737.38,-216.53C1737.38,-208.02 1737.38,-199.24 1737.38,-192.13"/>
<polygon fill="#63b8ff" stroke="#63b8ff" points="1733.88,-216.27 1737.38,-226.27 1740.88,-216.27 1733.88,-216.27"/>
</a>
</g>
</g>
<!-- Node3 -->
<g id="Node000003" class="node">
<title>Node3</title>
<g id="a_Node000003"><a xlink:href="BotLibrary_8cpp.html" target="_top" xlink:title=" ">
<polygon fill="white" stroke="#666666" points="142.75,-32 0,-32 0,-12 142.75,-12 142.75,-32"/>
<text text-anchor="middle" x="71.38" y="-18.5" font-family="Helvetica,sans-Serif" font-size="10.00">src/bot_library/BotLibrary.cpp</text>
</a>
</g>
</g>
<!-- Node2&#45;&gt;Node3 -->
<g id="edge2_Node000002_Node000003" class="edge">
<title>Node2&#45;&gt;Node3</title>
<g id="a_edge2_Node000002_Node000003"><a xlink:title=" ">
<path fill="none" stroke="#63b8ff" d="M1678.66,-174.91C1416.97,-174.28 363.59,-168.93 223.38,-124 162.73,-104.57 103.61,-53.39 81.01,-32.29"/>
<polygon fill="#63b8ff" stroke="#63b8ff" points="1678.64,-178.41 1688.65,-174.94 1678.65,-171.41 1678.64,-178.41"/>
</a>
</g>
</g>
<!-- Node4 -->
<g id="Node000004" class="node">
<title>Node4</title>
<g id="a_Node000004"><a xlink:href="Bot_8cpp.html" target="_top" xlink:title=" ">
<polygon fill="white" stroke="#666666" points="3201.38,-118 3107.38,-118 3107.38,-86 3201.38,-86 3201.38,-118"/>
<text text-anchor="start" x="3115.38" y="-104.5" font-family="Helvetica,sans-Serif" font-size="10.00">src/bot_library/bot</text>
<text text-anchor="middle" x="3154.38" y="-92.5" font-family="Helvetica,sans-Serif" font-size="10.00">/Bot.cpp</text>
</a>
</g>
</g>
<!-- Node2&#45;&gt;Node4 -->
<g id="edge3_Node000002_Node000004" class="edge">
<title>Node2&#45;&gt;Node4</title>
<g id="a_edge3_Node000002_Node000004"><a xlink:title=" ">
<path fill="none" stroke="#63b8ff" d="M1796.03,-175.3C2022.99,-176.06 2843.59,-175.15 3098.38,-124 3104.99,-122.67 3111.86,-120.66 3118.42,-118.41"/>
<polygon fill="#63b8ff" stroke="#63b8ff" points="1796.26,-171.8 1786.25,-175.26 1796.23,-178.8 1796.26,-171.8"/>
</a>
</g>
</g>
<!-- Node5 -->
<g id="Node000005" class="node">
<title>Node5</title>
<g id="a_Node000005"><a xlink:href="ChallengeBadgeCommand_8hpp.html" target="_top" xlink:title=" ">
<polygon fill="white" stroke="#666666" points="544.38,-124 378.38,-124 378.38,-80 544.38,-80 544.38,-124"/>
<text text-anchor="start" x="386.38" y="-110.5" font-family="Helvetica,sans-Serif" font-size="10.00">src/bot_library/commands</text>
<text text-anchor="start" x="386.38" y="-98.5" font-family="Helvetica,sans-Serif" font-size="10.00">/challenge_badge/ChallengeBadge</text>
<text text-anchor="middle" x="461.38" y="-86.5" font-family="Helvetica,sans-Serif" font-size="10.00">Command.hpp</text>
</a>
</g>
</g>
<!-- Node2&#45;&gt;Node5 -->
<g id="edge4_Node000002_Node000005" class="edge">
<title>Node2&#45;&gt;Node5</title>
<g id="a_edge4_Node000002_Node000005"><a xlink:title=" ">
<path fill="none" stroke="#63b8ff" d="M1678.78,-173.88C1471.66,-169.72 774.64,-153.77 553.38,-124 550.45,-123.61 547.49,-123.17 544.5,-122.68"/>
<polygon fill="#63b8ff" stroke="#63b8ff" points="1678.41,-177.38 1688.48,-174.08 1678.55,-170.38 1678.41,-177.38"/>
</a>
</g>
</g>
<!-- Node8 -->
<g id="Node000008" class="node">
<title>Node8</title>
<g id="a_Node000008"><a xlink:href="ChallengeRoleCommand_8hpp.html" target="_top" xlink:title=" ">
<polygon fill="white" stroke="#666666" points="774.25,-118 562.5,-118 562.5,-86 774.25,-86 774.25,-118"/>
<text text-anchor="start" x="570.5" y="-104.5" font-family="Helvetica,sans-Serif" font-size="10.00">src/bot_library/commands</text>
<text text-anchor="middle" x="668.38" y="-92.5" font-family="Helvetica,sans-Serif" font-size="10.00">/challenge_role/ChallengeRoleCommand.hpp</text>
</a>
</g>
</g>
<!-- Node2&#45;&gt;Node8 -->
<g id="edge7_Node000002_Node000008" class="edge">
<title>Node2&#45;&gt;Node8</title>
<g id="a_edge7_Node000002_Node000008"><a xlink:title=" ">
<path fill="none" stroke="#63b8ff" d="M1678.89,-174.46C1529.32,-172.51 1120.92,-163.68 783.38,-124 771.08,-122.55 758.11,-120.61 745.5,-118.48"/>
<polygon fill="#63b8ff" stroke="#63b8ff" points="1678.49,-177.95 1688.53,-174.58 1678.57,-170.95 1678.49,-177.95"/>
</a>
</g>
</g>
<!-- Node11 -->
<g id="Node000011" class="node">
<title>Node11</title>
<g id="a_Node000011"><a xlink:href="CleanUp_8hpp.html" target="_top" xlink:title=" ">
<polygon fill="white" stroke="#666666" points="920.62,-118 792.12,-118 792.12,-86 920.62,-86 920.62,-118"/>
<text text-anchor="start" x="800.12" y="-104.5" font-family="Helvetica,sans-Serif" font-size="10.00">src/bot_library/commands</text>
<text text-anchor="middle" x="856.38" y="-92.5" font-family="Helvetica,sans-Serif" font-size="10.00">/clean_up/CleanUp.hpp</text>
</a>
</g>
</g>
<!-- Node2&#45;&gt;Node11 -->
<g id="edge11_Node000002_Node000011" class="edge">
<title>Node2&#45;&gt;Node11</title>
<g id="a_edge11_Node000002_Node000011"><a xlink:title=" ">
<path fill="none" stroke="#63b8ff" d="M1678.97,-175.56C1545.38,-175.9 1207.67,-171.55 930.38,-124 922.21,-122.6 913.67,-120.65 905.4,-118.49"/>
<polygon fill="#63b8ff" stroke="#63b8ff" points="1678.62,-179.06 1688.61,-175.52 1678.59,-172.06 1678.62,-179.06"/>
</a>
</g>
</g>
<!-- Node13 -->
<g id="Node000013" class="node">
<title>Node13</title>
<g id="a_Node000013"><a xlink:href="FlipCommand_8hpp.html" target="_top" xlink:title=" ">
<polygon fill="white" stroke="#666666" points="1067.62,-118 939.12,-118 939.12,-86 1067.62,-86 1067.62,-118"/>
<text text-anchor="start" x="947.12" y="-104.5" font-family="Helvetica,sans-Serif" font-size="10.00">src/bot_library/commands</text>
<text text-anchor="middle" x="1003.38" y="-92.5" font-family="Helvetica,sans-Serif" font-size="10.00">/flip/FlipCommand.hpp</text>
</a>
</g>
</g>
<!-- Node2&#45;&gt;Node13 -->
<g id="edge14_Node000002_Node000013" class="edge">
<title>Node2&#45;&gt;Node13</title>
<g id="a_edge14_Node000002_Node000013"><a xlink:title=" ">
<path fill="none" stroke="#63b8ff" d="M1678.76,-174.38C1562.94,-172.29 1296.95,-163.23 1077.38,-124 1069.36,-122.57 1060.96,-120.62 1052.81,-118.5"/>
<polygon fill="#63b8ff" stroke="#63b8ff" points="1678.58,-177.88 1688.64,-174.54 1678.7,-170.88 1678.58,-177.88"/>
</a>
</g>
</g>
<!-- Node15 -->
<g id="Node000015" class="node">
<title>Node15</title>
<g id="a_Node000015"><a xlink:href="HelpCommand_8hpp.html" target="_top" xlink:title=" ">
<polygon fill="white" stroke="#666666" points="1214.62,-118 1086.12,-118 1086.12,-86 1214.62,-86 1214.62,-118"/>
<text text-anchor="start" x="1094.12" y="-104.5" font-family="Helvetica,sans-Serif" font-size="10.00">src/bot_library/commands</text>
<text text-anchor="middle" x="1150.38" y="-92.5" font-family="Helvetica,sans-Serif" font-size="10.00">/help/HelpCommand.hpp</text>
</a>
</g>
</g>
<!-- Node2&#45;&gt;Node15 -->
<g id="edge17_Node000002_Node000015" class="edge">
<title>Node2&#45;&gt;Node15</title>
<g id="a_edge17_Node000002_Node000015"><a xlink:title=" ">
<path fill="none" stroke="#63b8ff" d="M1678.47,-172.54C1582.58,-167.79 1387.07,-154.92 1224.38,-124 1216.5,-122.5 1208.26,-120.56 1200.24,-118.45"/>
<polygon fill="#63b8ff" stroke="#63b8ff" points="1678.27,-176.04 1688.43,-173.02 1678.61,-169.05 1678.27,-176.04"/>
</a>
</g>
</g>
<!-- Node17 -->
<g id="Node000017" class="node">
<title>Node17</title>
<g id="a_Node000017"><a xlink:href="Commands_8hpp.html" target="_top" xlink:title=" ">
<polygon fill="white" stroke="#666666" points="360.62,-118 232.12,-118 232.12,-86 360.62,-86 360.62,-118"/>
<text text-anchor="start" x="240.12" y="-104.5" font-family="Helvetica,sans-Serif" font-size="10.00">src/bot_library/commands</text>
<text text-anchor="middle" x="296.38" y="-92.5" font-family="Helvetica,sans-Serif" font-size="10.00">/include/Commands.hpp</text>
</a>
</g>
</g>
<!-- Node2&#45;&gt;Node17 -->
<g id="edge20_Node000002_Node000017" class="edge">
<title>Node2&#45;&gt;Node17</title>
<g id="a_edge20_Node000002_Node000017"><a xlink:title=" ">
<path fill="none" stroke="#63b8ff" d="M1678.91,-174.71C1451.73,-173.28 627.44,-165.3 369.38,-124 361.04,-122.67 352.31,-120.69 343.91,-118.47"/>
<polygon fill="#63b8ff" stroke="#63b8ff" points="1678.68,-178.21 1688.7,-174.77 1678.72,-171.21 1678.68,-178.21"/>
</a>
</g>
</g>
<!-- Node18 -->
<g id="Node000018" class="node">
<title>Node18</title>
<g id="a_Node000018"><a xlink:href="InitDatabase_8hpp.html" target="_top" xlink:title=" ">
<polygon fill="white" stroke="#666666" points="3384.38,-118 3230.38,-118 3230.38,-86 3384.38,-86 3384.38,-118"/>
<text text-anchor="start" x="3238.38" y="-104.5" font-family="Helvetica,sans-Serif" font-size="10.00">src/bot_library/commands</text>
<text text-anchor="middle" x="3307.38" y="-92.5" font-family="Helvetica,sans-Serif" font-size="10.00">/init_database/InitDatabase.hpp</text>
</a>
</g>
</g>
<!-- Node2&#45;&gt;Node18 -->
<g id="edge23_Node000002_Node000018" class="edge">
<title>Node2&#45;&gt;Node18</title>
<g id="a_edge23_Node000002_Node000018"><a xlink:title=" ">
<path fill="none" stroke="#63b8ff" d="M1796.25,-174.37C2034.75,-171.58 2929.61,-158.97 3210.38,-124 3221.23,-122.65 3232.67,-120.67 3243.74,-118.47"/>
<polygon fill="#63b8ff" stroke="#63b8ff" points="1796.21,-170.87 1786.26,-174.48 1796.29,-177.87 1796.21,-170.87"/>
</a>
</g>
</g>
<!-- Node20 -->
<g id="Node000020" class="node">
<title>Node20</title>
<g id="a_Node000020"><a xlink:href="InviteCommand_8hpp.html" target="_top" xlink:title=" ">
<polygon fill="white" stroke="#666666" points="1365.88,-118 1232.88,-118 1232.88,-86 1365.88,-86 1365.88,-118"/>
<text text-anchor="start" x="1240.88" y="-104.5" font-family="Helvetica,sans-Serif" font-size="10.00">src/bot_library/commands</text>
<text text-anchor="middle" x="1299.38" y="-92.5" font-family="Helvetica,sans-Serif" font-size="10.00">/invite/InviteCommand.hpp</text>
</a>
</g>
</g>
<!-- Node2&#45;&gt;Node20 -->
<g id="edge25_Node000002_Node000020" class="edge">
<title>Node2&#45;&gt;Node20</title>
<g id="a_edge25_Node000002_Node000020"><a xlink:title=" ">
<path fill="none" stroke="#63b8ff" d="M1678.82,-169.11C1606.9,-161.34 1481.4,-146.02 1375.38,-124 1367.74,-122.41 1359.73,-120.49 1351.9,-118.46"/>
<polygon fill="#63b8ff" stroke="#63b8ff" points="1678.07,-172.55 1688.38,-170.14 1678.81,-165.59 1678.07,-172.55"/>
</a>
</g>
</g>
<!-- Node22 -->
<g id="Node000022" class="node">
<title>Node22</title>
<g id="a_Node000022"><a xlink:href="LearnCPPCommand_8hpp.html" target="_top" xlink:title=" ">
<polygon fill="white" stroke="#666666" points="1556.75,-118 1384,-118 1384,-86 1556.75,-86 1556.75,-118"/>
<text text-anchor="start" x="1392" y="-104.5" font-family="Helvetica,sans-Serif" font-size="10.00">src/bot_library/commands</text>
<text text-anchor="middle" x="1470.38" y="-92.5" font-family="Helvetica,sans-Serif" font-size="10.00">/learn_cpp/LearnCPPCommand.hpp</text>
</a>
</g>
</g>
<!-- Node2&#45;&gt;Node22 -->
<g id="edge28_Node000002_Node000022" class="edge">
<title>Node2&#45;&gt;Node22</title>
<g id="a_edge28_Node000002_Node000022"><a xlink:title=" ">
<path fill="none" stroke="#63b8ff" d="M1678.9,-159.23C1633.95,-147.11 1572.2,-130.46 1527.57,-118.42"/>
<polygon fill="#63b8ff" stroke="#63b8ff" points="1677.92,-162.59 1688.49,-161.82 1679.74,-155.83 1677.92,-162.59"/>
</a>
</g>
</g>
<!-- Node24 -->
<g id="Node000024" class="node">
<title>Node24</title>
<g id="a_Node000024"><a xlink:href="BlacklistCommand_8hpp.html" target="_top" xlink:title=" ">
<polygon fill="white" stroke="#666666" points="1722,-118 1574.75,-118 1574.75,-86 1722,-86 1722,-118"/>
<text text-anchor="start" x="1582.75" y="-104.5" font-family="Helvetica,sans-Serif" font-size="10.00">src/bot_library/commands</text>
<text text-anchor="middle" x="1648.38" y="-92.5" font-family="Helvetica,sans-Serif" font-size="10.00">/portal/BlacklistCommand.hpp</text>
</a>
</g>
</g>
<!-- Node2&#45;&gt;Node24 -->
<g id="edge31_Node000002_Node000024" class="edge">
<title>Node2&#45;&gt;Node24</title>
<g id="a_edge31_Node000002_Node000024"><a xlink:title=" ">
<path fill="none" stroke="#63b8ff" d="M1709.91,-152.78C1696.18,-141.67 1679.89,-128.5 1667.53,-118.5"/>
<polygon fill="#63b8ff" stroke="#63b8ff" points="1707.35,-155.21 1717.32,-158.78 1711.75,-149.77 1707.35,-155.21"/>
</a>
</g>
</g>
<!-- Node26 -->
<g id="Node000026" class="node">
<title>Node26</title>
<g id="a_Node000026"><a xlink:href="RemovePortalCommand_8hpp.html" target="_top" xlink:title=" ">
<polygon fill="white" stroke="#666666" points="1912.38,-118 1740.38,-118 1740.38,-86 1912.38,-86 1912.38,-118"/>
<text text-anchor="start" x="1748.38" y="-104.5" font-family="Helvetica,sans-Serif" font-size="10.00">src/bot_library/commands</text>
<text text-anchor="middle" x="1826.38" y="-92.5" font-family="Helvetica,sans-Serif" font-size="10.00">/portal/RemovePortalCommand.hpp</text>
</a>
</g>
</g>
<!-- Node2&#45;&gt;Node26 -->
<g id="edge34_Node000002_Node000026" class="edge">
<title>Node2&#45;&gt;Node26</title>
<g id="a_edge34_Node000002_Node000026"><a xlink:title=" ">
<path fill="none" stroke="#63b8ff" d="M1764.84,-152.78C1778.57,-141.67 1794.86,-128.5 1807.22,-118.5"/>
<polygon fill="#63b8ff" stroke="#63b8ff" points="1763,-149.77 1757.43,-158.78 1767.4,-155.21 1763,-149.77"/>
</a>
</g>
</g>
<!-- Node28 -->
<g id="Node000028" class="node">
<title>Node28</title>
<g id="a_Node000028"><a xlink:href="SetPortalCommand_8hpp.html" target="_top" xlink:title=" ">
<polygon fill="white" stroke="#666666" points="2080.5,-118 1930.25,-118 1930.25,-86 2080.5,-86 2080.5,-118"/>
<text text-anchor="start" x="1938.25" y="-104.5" font-family="Helvetica,sans-Serif" font-size="10.00">src/bot_library/commands</text>
<text text-anchor="middle" x="2005.38" y="-92.5" font-family="Helvetica,sans-Serif" font-size="10.00">/portal/SetPortalCommand.hpp</text>
</a>
</g>
</g>
<!-- Node2&#45;&gt;Node28 -->
<g id="edge37_Node000002_Node000028" class="edge">
<title>Node2&#45;&gt;Node28</title>
<g id="a_edge37_Node000002_Node000028"><a xlink:title=" ">
<path fill="none" stroke="#63b8ff" d="M1795.75,-159.32C1840.85,-147.2 1902.94,-130.52 1947.83,-118.46"/>
<polygon fill="#63b8ff" stroke="#63b8ff" points="1794.88,-155.93 1786.13,-161.9 1796.7,-162.69 1794.88,-155.93"/>
</a>
</g>
</g>
<!-- Node30 -->
<g id="Node000030" class="node">
<title>Node30</title>
<g id="a_Node000030"><a xlink:href="ProfileCommand_8hpp.html" target="_top" xlink:title=" ">
<polygon fill="white" stroke="#666666" points="2238.25,-118 2098.5,-118 2098.5,-86 2238.25,-86 2238.25,-118"/>
<text text-anchor="start" x="2106.5" y="-104.5" font-family="Helvetica,sans-Serif" font-size="10.00">src/bot_library/commands</text>
<text text-anchor="middle" x="2168.38" y="-92.5" font-family="Helvetica,sans-Serif" font-size="10.00">/profile/ProfileCommand.hpp</text>
</a>
</g>
</g>
<!-- Node2&#45;&gt;Node30 -->
<g id="edge40_Node000002_Node000030" class="edge">
<title>Node2&#45;&gt;Node30</title>
<g id="a_edge40_Node000002_Node000030"><a xlink:title=" ">
<path fill="none" stroke="#63b8ff" d="M1795.88,-168.63C1866.02,-160.51 1986.94,-144.96 2089.38,-124 2097.3,-122.38 2105.61,-120.44 2113.75,-118.4"/>
<polygon fill="#63b8ff" stroke="#63b8ff" points="1795.69,-165.13 1786.15,-169.74 1796.49,-172.08 1795.69,-165.13"/>
</a>
</g>
</g>
<!-- Node32 -->
<g id="Node000032" class="node">
<title>Node32</title>
<g id="a_Node000032"><a xlink:href="ReactionRoles_8hpp.html" target="_top" xlink:title=" ">
<polygon fill="white" stroke="#666666" points="2422.38,-118 2256.38,-118 2256.38,-86 2422.38,-86 2422.38,-118"/>
<text text-anchor="start" x="2264.38" y="-104.5" font-family="Helvetica,sans-Serif" font-size="10.00">src/bot_library/commands</text>
<text text-anchor="middle" x="2339.38" y="-92.5" font-family="Helvetica,sans-Serif" font-size="10.00">/reaction_roles/ReactionRoles.hpp</text>
</a>
</g>
</g>
<!-- Node2&#45;&gt;Node32 -->
<g id="edge43_Node000002_Node000032" class="edge">
<title>Node2&#45;&gt;Node32</title>
<g id="a_edge43_Node000002_Node000032"><a xlink:title=" ">
<path fill="none" stroke="#63b8ff" d="M1796.13,-171.52C1891.36,-165.33 2085.09,-150.53 2247.38,-124 2256.91,-122.44 2266.94,-120.48 2276.73,-118.4"/>
<polygon fill="#63b8ff" stroke="#63b8ff" points="1796.01,-168.02 1786.25,-172.15 1796.46,-175 1796.01,-168.02"/>
</a>
</g>
</g>
<!-- Node34 -->
<g id="Node000034" class="node">
<title>Node34</title>
<g id="a_Node000034"><a xlink:href="ResourcesCommand_8hpp.html" target="_top" xlink:title=" ">
<polygon fill="white" stroke="#666666" points="2616.25,-118 2440.5,-118 2440.5,-86 2616.25,-86 2616.25,-118"/>
<text text-anchor="start" x="2448.5" y="-104.5" font-family="Helvetica,sans-Serif" font-size="10.00">src/bot_library/commands</text>
<text text-anchor="middle" x="2528.38" y="-92.5" font-family="Helvetica,sans-Serif" font-size="10.00">/resources/ResourcesCommand.hpp</text>
</a>
</g>
</g>
<!-- Node2&#45;&gt;Node34 -->
<g id="edge46_Node000002_Node000034" class="edge">
<title>Node2&#45;&gt;Node34</title>
<g id="a_edge46_Node000002_Node000034"><a xlink:title=" ">
<path fill="none" stroke="#63b8ff" d="M1796.19,-173.45C1916.18,-169.68 2197.62,-157.72 2431.38,-124 2441.61,-122.52 2452.37,-120.59 2462.86,-118.48"/>
<polygon fill="#63b8ff" stroke="#63b8ff" points="1796.15,-169.95 1786.26,-173.75 1796.36,-176.95 1796.15,-169.95"/>
</a>
</g>
</g>
<!-- Node36 -->
<g id="Node000036" class="node">
<title>Node36</title>
<g id="a_Node000036"><a xlink:href="RollCommand_8hpp.html" target="_top" xlink:title=" ">
<polygon fill="white" stroke="#666666" points="2762.62,-118 2634.12,-118 2634.12,-86 2762.62,-86 2762.62,-118"/>
<text text-anchor="start" x="2642.12" y="-104.5" font-family="Helvetica,sans-Serif" font-size="10.00">src/bot_library/commands</text>
<text text-anchor="middle" x="2698.38" y="-92.5" font-family="Helvetica,sans-Serif" font-size="10.00">/roll/RollCommand.hpp</text>
</a>
</g>
</g>
<!-- Node2&#45;&gt;Node36 -->
<g id="edge49_Node000002_Node000036" class="edge">
<title>Node2&#45;&gt;Node36</title>
<g id="a_edge49_Node000002_Node000036"><a xlink:title=" ">
<path fill="none" stroke="#63b8ff" d="M1795.98,-173.34C1967.27,-168.21 2465.03,-151.32 2625.38,-124 2633.57,-122.6 2642.15,-120.62 2650.43,-118.43"/>
<polygon fill="#63b8ff" stroke="#63b8ff" points="1796.11,-169.83 1786.22,-173.63 1796.31,-176.83 1796.11,-169.83"/>
</a>
</g>
</g>
<!-- Node38 -->
<g id="Node000038" class="node">
<title>Node38</title>
<g id="a_Node000038"><a xlink:href="ServerDetails_8hpp.html" target="_top" xlink:title=" ">
<polygon fill="white" stroke="#666666" points="2941.75,-118 2781,-118 2781,-86 2941.75,-86 2941.75,-118"/>
<text text-anchor="start" x="2789" y="-104.5" font-family="Helvetica,sans-Serif" font-size="10.00">src/bot_library/commands</text>
<text text-anchor="middle" x="2861.38" y="-92.5" font-family="Helvetica,sans-Serif" font-size="10.00">/server_details/ServerDetails.hpp</text>
</a>
</g>
</g>
<!-- Node2&#45;&gt;Node38 -->
<g id="edge52_Node000002_Node000038" class="edge">
<title>Node2&#45;&gt;Node38</title>
<g id="a_edge52_Node000002_Node000038"><a xlink:title=" ">
<path fill="none" stroke="#63b8ff" d="M1795.98,-173.5C1985.55,-168.42 2580.8,-150.71 2771.38,-124 2781.39,-122.6 2791.92,-120.61 2802.11,-118.42"/>
<polygon fill="#63b8ff" stroke="#63b8ff" points="1796.03,-170 1786.13,-173.76 1796.22,-176.99 1796.03,-170"/>
</a>
</g>
</g>
<!-- Node40 -->
<g id="Node000040" class="node">
<title>Node40</title>
<g id="a_Node000040"><a xlink:href="SetStatus_8hpp.html" target="_top" xlink:title=" ">
<polygon fill="white" stroke="#666666" points="3089.38,-118 2959.38,-118 2959.38,-86 3089.38,-86 3089.38,-118"/>
<text text-anchor="start" x="2967.38" y="-104.5" font-family="Helvetica,sans-Serif" font-size="10.00">src/bot_library/commands</text>
<text text-anchor="middle" x="3024.38" y="-92.5" font-family="Helvetica,sans-Serif" font-size="10.00">/set_status/SetStatus.hpp</text>
</a>
</g>
</g>
<!-- Node2&#45;&gt;Node40 -->
<g id="edge55_Node000002_Node000040" class="edge">
<title>Node2&#45;&gt;Node40</title>
<g id="a_edge55_Node000002_Node000040"><a xlink:title=" ">
<path fill="none" stroke="#63b8ff" d="M1796.03,-174.35C2006.63,-171.75 2724.04,-160.36 2950.38,-124 2958.81,-122.64 2967.66,-120.65 2976.18,-118.43"/>
<polygon fill="#63b8ff" stroke="#63b8ff" points="1796.11,-170.85 1786.15,-174.47 1796.2,-177.85 1796.11,-170.85"/>
</a>
</g>
</g>
<!-- Node6 -->
<g id="Node000006" class="node">
<title>Node6</title>
<g id="a_Node000006"><a xlink:href="Commands_8cpp.html" target="_top" xlink:title=" ">
<polygon fill="white" stroke="#666666" points="1856.62,-38 1728.12,-38 1728.12,-6 1856.62,-6 1856.62,-38"/>
<text text-anchor="start" x="1736.12" y="-24.5" font-family="Helvetica,sans-Serif" font-size="10.00">src/bot_library/commands</text>
<text text-anchor="middle" x="1792.38" y="-12.5" font-family="Helvetica,sans-Serif" font-size="10.00">/Commands.cpp</text>
</a>
</g>
</g>
<!-- Node5&#45;&gt;Node6 -->
<g id="edge5_Node000005_Node000006" class="edge">
<title>Node5&#45;&gt;Node6</title>
<g id="a_edge5_Node000005_Node000006"><a xlink:title=" ">
<path fill="none" stroke="#63b8ff" d="M555.54,-79.87C1069.62,-15.55 1210.79,-123.72 1719.38,-44 1727.84,-42.67 1736.72,-40.67 1745.25,-38.41"/>
<polygon fill="#63b8ff" stroke="#63b8ff" points="555.47,-76.35 545.99,-81.08 556.35,-83.29 555.47,-76.35"/>
</a>
</g>
</g>
<!-- Node7 -->
<g id="Node000007" class="node">
<title>Node7</title>
<g id="a_Node000007"><a xlink:href="ChallengeBadgeCommand_8cpp.html" target="_top" xlink:title=" ">
<polygon fill="white" stroke="#666666" points="326.38,-44 160.38,-44 160.38,0 326.38,0 326.38,-44"/>
<text text-anchor="start" x="168.38" y="-30.5" font-family="Helvetica,sans-Serif" font-size="10.00">src/bot_library/commands</text>
<text text-anchor="start" x="168.38" y="-18.5" font-family="Helvetica,sans-Serif" font-size="10.00">/challenge_badge/ChallengeBadge</text>
<text text-anchor="middle" x="243.38" y="-6.5" font-family="Helvetica,sans-Serif" font-size="10.00">Command.cpp</text>
</a>
</g>
</g>
<!-- Node5&#45;&gt;Node7 -->
<g id="edge6_Node000005_Node000007" class="edge">
<title>Node5&#45;&gt;Node7</title>
<g id="a_edge6_Node000005_Node000007"><a xlink:title=" ">
<path fill="none" stroke="#63b8ff" d="M390.87,-75.78C362.55,-65.64 330.24,-54.08 303.1,-44.37"/>
<polygon fill="#63b8ff" stroke="#63b8ff" points="389.5,-79 400.09,-79.07 391.86,-72.41 389.5,-79"/>
</a>
</g>
</g>
<!-- Node8&#45;&gt;Node6 -->
<g id="edge8_Node000008_Node000006" class="edge">
<title>Node8&#45;&gt;Node6</title>
<g id="a_edge8_Node000008_Node000006"><a xlink:title=" ">
<path fill="none" stroke="#63b8ff" d="M755.82,-83.7C765.09,-82.26 774.41,-80.99 783.38,-80 1197.19,-34.49 1308.34,-110.03 1719.38,-44 1727.71,-42.66 1736.44,-40.68 1744.84,-38.46"/>
<polygon fill="#63b8ff" stroke="#63b8ff" points="755.35,-80.23 746.04,-85.28 756.47,-87.14 755.35,-80.23"/>
</a>
</g>
</g>
<!-- Node9 -->
<g id="Node000009" class="node">
<title>Node9</title>
<g id="a_Node000009"><a xlink:href="ChallengeRoleCommand_8cpp.html" target="_top" xlink:title=" ">
<polygon fill="white" stroke="#666666" points="556.25,-38 344.5,-38 344.5,-6 556.25,-6 556.25,-38"/>
<text text-anchor="start" x="352.5" y="-24.5" font-family="Helvetica,sans-Serif" font-size="10.00">src/bot_library/commands</text>
<text text-anchor="middle" x="450.38" y="-12.5" font-family="Helvetica,sans-Serif" font-size="10.00">/challenge_role/ChallengeRoleCommand.cpp</text>
</a>
</g>
</g>
<!-- Node8&#45;&gt;Node9 -->
<g id="edge9_Node000008_Node000009" class="edge">
<title>Node8&#45;&gt;Node9</title>
<g id="a_edge9_Node000008_Node000009"><a xlink:title=" ">
<path fill="none" stroke="#63b8ff" d="M614.61,-81.76C577.25,-68.39 528.12,-50.82 493.36,-38.38"/>
<polygon fill="#63b8ff" stroke="#63b8ff" points="613.29,-85.01 623.88,-85.08 615.64,-78.42 613.29,-85.01"/>
</a>
</g>
</g>
<!-- Node10 -->
<g id="Node000010" class="node">
<title>Node10</title>
<g id="a_Node000010"><a xlink:href="ChallengeRoleDTO_8cpp.html" target="_top" xlink:title=" ">
<polygon fill="white" stroke="#666666" points="762.25,-38 574.5,-38 574.5,-6 762.25,-6 762.25,-38"/>
<text text-anchor="start" x="582.5" y="-24.5" font-family="Helvetica,sans-Serif" font-size="10.00">src/bot_library/commands</text>
<text text-anchor="middle" x="668.38" y="-12.5" font-family="Helvetica,sans-Serif" font-size="10.00">/challenge_role/ChallengeRoleDTO.cpp</text>
</a>
</g>
</g>
<!-- Node8&#45;&gt;Node10 -->
<g id="edge10_Node000008_Node000010" class="edge">
<title>Node8&#45;&gt;Node10</title>
<g id="a_edge10_Node000008_Node000010"><a xlink:title=" ">
<path fill="none" stroke="#63b8ff" d="M668.38,-74.37C668.38,-62.37 668.38,-48.63 668.38,-38.38"/>
<polygon fill="#63b8ff" stroke="#63b8ff" points="664.88,-74.08 668.38,-84.08 671.88,-74.08 664.88,-74.08"/>
</a>
</g>
</g>
<!-- Node11&#45;&gt;Node6 -->
<g id="edge12_Node000011_Node000006" class="edge">
<title>Node11&#45;&gt;Node6</title>
<g id="a_edge12_Node000011_Node000006"><a xlink:title=" ">
<path fill="none" stroke="#63b8ff" d="M915.48,-82.93C920.48,-81.79 925.5,-80.79 930.38,-80 1276.86,-23.71 1372.99,-100.91 1719.38,-44 1727.7,-42.63 1736.43,-40.63 1744.84,-38.41"/>
<polygon fill="#63b8ff" stroke="#63b8ff" points="914.93,-79.46 906.05,-85.23 916.59,-86.26 914.93,-79.46"/>
</a>
</g>
</g>
<!-- Node12 -->
<g id="Node000012" class="node">
<title>Node12</title>
<g id="a_Node000012"><a xlink:href="CleanUp_8cpp.html" target="_top" xlink:title=" ">
<polygon fill="white" stroke="#666666" points="908.62,-38 780.12,-38 780.12,-6 908.62,-6 908.62,-38"/>
<text text-anchor="start" x="788.12" y="-24.5" font-family="Helvetica,sans-Serif" font-size="10.00">src/bot_library/commands</text>
<text text-anchor="middle" x="844.38" y="-12.5" font-family="Helvetica,sans-Serif" font-size="10.00">/clean_up/CleanUp.cpp</text>
</a>
</g>
</g>
<!-- Node11&#45;&gt;Node12 -->
<g id="edge13_Node000011_Node000012" class="edge">
<title>Node11&#45;&gt;Node12</title>
<g id="a_edge13_Node000011_Node000012"><a xlink:title=" ">
<path fill="none" stroke="#63b8ff" d="M852.28,-74.37C850.43,-62.37 848.32,-48.63 846.74,-38.38"/>
<polygon fill="#63b8ff" stroke="#63b8ff" points="848.79,-74.74 853.77,-84.09 855.71,-73.68 848.79,-74.74"/>
</a>
</g>
</g>
<!-- Node13&#45;&gt;Node6 -->
<g id="edge15_Node000013_Node000006" class="edge">
<title>Node13&#45;&gt;Node6</title>
<g id="a_edge15_Node000013_Node000006"><a xlink:title=" ">
<path fill="none" stroke="#63b8ff" d="M1063.12,-82.84C1067.91,-81.75 1072.71,-80.78 1077.38,-80 1359.22,-32.7 1437.62,-91.8 1719.38,-44 1727.57,-42.61 1736.15,-40.63 1744.43,-38.44"/>
<polygon fill="#63b8ff" stroke="#63b8ff" points="1062.34,-79.43 1053.46,-85.2 1064,-86.23 1062.34,-79.43"/>
</a>
</g>
</g>
<!-- Node14 -->
<g id="Node000014" class="node">
<title>Node14</title>
<g id="a_Node000014"><a xlink:href="FlipCommand_8cpp.html" target="_top" xlink:title=" ">
<polygon fill="white" stroke="#666666" points="1055.62,-38 927.12,-38 927.12,-6 1055.62,-6 1055.62,-38"/>
<text text-anchor="start" x="935.12" y="-24.5" font-family="Helvetica,sans-Serif" font-size="10.00">src/bot_library/commands</text>
<text text-anchor="middle" x="991.38" y="-12.5" font-family="Helvetica,sans-Serif" font-size="10.00">/flip/FlipCommand.cpp</text>
</a>
</g>
</g>
<!-- Node13&#45;&gt;Node14 -->
<g id="edge16_Node000013_Node000014" class="edge">
<title>Node13&#45;&gt;Node14</title>
<g id="a_edge16_Node000013_Node000014"><a xlink:title=" ">
<path fill="none" stroke="#63b8ff" d="M999.28,-74.37C997.43,-62.37 995.32,-48.63 993.74,-38.38"/>
<polygon fill="#63b8ff" stroke="#63b8ff" points="995.79,-74.74 1000.77,-84.09 1002.71,-73.68 995.79,-74.74"/>
</a>
</g>
</g>
<!-- Node15&#45;&gt;Node6 -->
<g id="edge18_Node000015_Node000006" class="edge">
<title>Node15&#45;&gt;Node6</title>
<g id="a_edge18_Node000015_Node000006"><a xlink:title=" ">
<path fill="none" stroke="#63b8ff" d="M1210.36,-82.87C1215.08,-81.79 1219.79,-80.81 1224.38,-80 1441.6,-41.69 1502.22,-82.7 1719.38,-44 1727.42,-42.57 1735.86,-40.59 1744.01,-38.43"/>
<polygon fill="#63b8ff" stroke="#63b8ff" points="1209.75,-79.42 1200.88,-85.21 1211.42,-86.22 1209.75,-79.42"/>
</a>
</g>
</g>
<!-- Node16 -->
<g id="Node000016" class="node">
<title>Node16</title>
<g id="a_Node000016"><a xlink:href="HelpCommand_8cpp.html" target="_top" xlink:title=" ">
<polygon fill="white" stroke="#666666" points="1202.62,-38 1074.12,-38 1074.12,-6 1202.62,-6 1202.62,-38"/>
<text text-anchor="start" x="1082.12" y="-24.5" font-family="Helvetica,sans-Serif" font-size="10.00">src/bot_library/commands</text>
<text text-anchor="middle" x="1138.38" y="-12.5" font-family="Helvetica,sans-Serif" font-size="10.00">/help/HelpCommand.cpp</text>
</a>
</g>
</g>
<!-- Node15&#45;&gt;Node16 -->
<g id="edge19_Node000015_Node000016" class="edge">
<title>Node15&#45;&gt;Node16</title>
<g id="a_edge19_Node000015_Node000016"><a xlink:title=" ">
<path fill="none" stroke="#63b8ff" d="M1146.28,-74.37C1144.43,-62.37 1142.32,-48.63 1140.74,-38.38"/>
<polygon fill="#63b8ff" stroke="#63b8ff" points="1142.79,-74.74 1147.77,-84.09 1149.71,-73.68 1142.79,-74.74"/>
</a>
</g>
</g>
<!-- Node17&#45;&gt;Node3 -->
<g id="edge21_Node000017_Node000003" class="edge">
<title>Node17&#45;&gt;Node3</title>
<g id="a_edge21_Node000017_Node000003"><a xlink:title=" ">
<path fill="none" stroke="#63b8ff" d="M241.11,-81.84C195.93,-66.18 133.95,-44.69 98.75,-32.49"/>
<polygon fill="#63b8ff" stroke="#63b8ff" points="239.9,-85.13 250.49,-85.09 242.19,-78.51 239.9,-85.13"/>
</a>
</g>
</g>
<!-- Node17&#45;&gt;Node6 -->
<g id="edge22_Node000017_Node000006" class="edge">
<title>Node17&#45;&gt;Node6</title>
<g id="a_edge22_Node000017_Node000006"><a xlink:title=" ">
<path fill="none" stroke="#63b8ff" d="M354.42,-82.88C359.44,-81.74 364.48,-80.76 369.38,-80 962.54,11.7 1126.21,-135.7 1719.38,-44 1727.85,-42.69 1736.72,-40.69 1745.25,-38.44"/>
<polygon fill="#63b8ff" stroke="#63b8ff" points="353.85,-79.42 344.97,-85.2 355.52,-86.21 353.85,-79.42"/>
</a>
</g>
</g>
<!-- Node19 -->
<g id="Node000019" class="node">
<title>Node19</title>
<g id="a_Node000019"><a xlink:href="InitDatabase_8cpp.html" target="_top" xlink:title=" ">
<polygon fill="white" stroke="#666666" points="3395.38,-38 3241.38,-38 3241.38,-6 3395.38,-6 3395.38,-38"/>
<text text-anchor="start" x="3249.38" y="-24.5" font-family="Helvetica,sans-Serif" font-size="10.00">src/bot_library/commands</text>
<text text-anchor="middle" x="3318.38" y="-12.5" font-family="Helvetica,sans-Serif" font-size="10.00">/init_database/InitDatabase.cpp</text>
</a>
</g>
</g>
<!-- Node18&#45;&gt;Node19 -->
<g id="edge24_Node000018_Node000019" class="edge">
<title>Node18&#45;&gt;Node19</title>
<g id="a_edge24_Node000018_Node000019"><a xlink:title=" ">
<path fill="none" stroke="#63b8ff" d="M3311.13,-74.37C3312.82,-62.37 3314.76,-48.63 3316.21,-38.38"/>
<polygon fill="#63b8ff" stroke="#63b8ff" points="3307.69,-73.7 3309.76,-84.09 3314.62,-74.68 3307.69,-73.7"/>
</a>
</g>
</g>
<!-- Node20&#45;&gt;Node6 -->
<g id="edge26_Node000020_Node000006" class="edge">
<title>Node20&#45;&gt;Node6</title>
<g id="a_edge26_Node000020_Node000006"><a xlink:title=" ">
<path fill="none" stroke="#63b8ff" d="M1361.5,-82.94C1366.17,-81.86 1370.84,-80.86 1375.38,-80 1526.42,-51.43 1568.48,-73.36 1719.38,-44 1727.14,-42.49 1735.28,-40.53 1743.18,-38.42"/>
<polygon fill="#63b8ff" stroke="#63b8ff" points="1360.97,-79.47 1352.09,-85.24 1362.63,-86.27 1360.97,-79.47"/>
</a>
</g>
</g>
<!-- Node21 -->
<g id="Node000021" class="node">
<title>Node21</title>
<g id="a_Node000021"><a xlink:href="InviteCommand_8cpp.html" target="_top" xlink:title=" ">
<polygon fill="white" stroke="#666666" points="1353.88,-38 1220.88,-38 1220.88,-6 1353.88,-6 1353.88,-38"/>
<text text-anchor="start" x="1228.88" y="-24.5" font-family="Helvetica,sans-Serif" font-size="10.00">src/bot_library/commands</text>
<text text-anchor="middle" x="1287.38" y="-12.5" font-family="Helvetica,sans-Serif" font-size="10.00">/invite/InviteCommand.cpp</text>
</a>
</g>
</g>
<!-- Node20&#45;&gt;Node21 -->
<g id="edge27_Node000020_Node000021" class="edge">
<title>Node20&#45;&gt;Node21</title>
<g id="a_edge27_Node000020_Node000021"><a xlink:title=" ">
<path fill="none" stroke="#63b8ff" d="M1295.28,-74.37C1293.43,-62.37 1291.32,-48.63 1289.74,-38.38"/>
<polygon fill="#63b8ff" stroke="#63b8ff" points="1291.79,-74.74 1296.77,-84.09 1298.71,-73.68 1291.79,-74.74"/>
</a>
</g>
</g>
<!-- Node22&#45;&gt;Node6 -->
<g id="edge29_Node000022_Node000006" class="edge">
<title>Node22&#45;&gt;Node6</title>
<g id="a_edge29_Node000022_Node000006"><a xlink:title=" ">
<path fill="none" stroke="#63b8ff" d="M1550.94,-83.06C1611.04,-69.58 1687.95,-52.11 1719.38,-44 1726.01,-42.29 1732.97,-40.4 1739.84,-38.49"/>
<polygon fill="#63b8ff" stroke="#63b8ff" points="1550.4,-79.59 1541.41,-85.2 1551.93,-86.43 1550.4,-79.59"/>
</a>
</g>
</g>
<!-- Node23 -->
<g id="Node000023" class="node">
<title>Node23</title>
<g id="a_Node000023"><a xlink:href="LearnCPPCommand_8cpp.html" target="_top" xlink:title=" ">
<polygon fill="white" stroke="#666666" points="1544.75,-38 1372,-38 1372,-6 1544.75,-6 1544.75,-38"/>
<text text-anchor="start" x="1380" y="-24.5" font-family="Helvetica,sans-Serif" font-size="10.00">src/bot_library/commands</text>
<text text-anchor="middle" x="1458.38" y="-12.5" font-family="Helvetica,sans-Serif" font-size="10.00">/learn_cpp/LearnCPPCommand.cpp</text>
</a>
</g>
</g>
<!-- Node22&#45;&gt;Node23 -->
<g id="edge30_Node000022_Node000023" class="edge">
<title>Node22&#45;&gt;Node23</title>
<g id="a_edge30_Node000022_Node000023"><a xlink:title=" ">
<path fill="none" stroke="#63b8ff" d="M1466.28,-74.37C1464.43,-62.37 1462.32,-48.63 1460.74,-38.38"/>
<polygon fill="#63b8ff" stroke="#63b8ff" points="1462.79,-74.74 1467.77,-84.09 1469.71,-73.68 1462.79,-74.74"/>
</a>
</g>
</g>
<!-- Node24&#45;&gt;Node6 -->
<g id="edge32_Node000024_Node000006" class="edge">
<title>Node24&#45;&gt;Node6</title>
<g id="a_edge32_Node000024_Node000006"><a xlink:title=" ">
<path fill="none" stroke="#63b8ff" d="M1686.78,-80.2C1711.06,-67.04 1741.91,-50.33 1763.98,-38.38"/>
<polygon fill="#63b8ff" stroke="#63b8ff" points="1685.28,-77.03 1678.16,-84.87 1688.62,-83.18 1685.28,-77.03"/>
</a>
</g>
</g>
<!-- Node25 -->
<g id="Node000025" class="node">
<title>Node25</title>
<g id="a_Node000025"><a xlink:href="BlacklistCommand_8cpp.html" target="_top" xlink:title=" ">
<polygon fill="white" stroke="#666666" points="1710,-38 1562.75,-38 1562.75,-6 1710,-6 1710,-38"/>
<text text-anchor="start" x="1570.75" y="-24.5" font-family="Helvetica,sans-Serif" font-size="10.00">src/bot_library/commands</text>
<text text-anchor="middle" x="1636.38" y="-12.5" font-family="Helvetica,sans-Serif" font-size="10.00">/portal/BlacklistCommand.cpp</text>
</a>
</g>
</g>
<!-- Node24&#45;&gt;Node25 -->
<g id="edge33_Node000024_Node000025" class="edge">
<title>Node24&#45;&gt;Node25</title>
<g id="a_edge33_Node000024_Node000025"><a xlink:title=" ">
<path fill="none" stroke="#63b8ff" d="M1644.28,-74.37C1642.43,-62.37 1640.32,-48.63 1638.74,-38.38"/>
<polygon fill="#63b8ff" stroke="#63b8ff" points="1640.79,-74.74 1645.77,-84.09 1647.71,-73.68 1640.79,-74.74"/>
</a>
</g>
</g>
<!-- Node26&#45;&gt;Node6 -->
<g id="edge35_Node000026_Node000006" class="edge">
<title>Node26&#45;&gt;Node6</title>
<g id="a_edge35_Node000026_Node000006"><a xlink:title=" ">
<path fill="none" stroke="#63b8ff" d="M1815.09,-75.11C1809.79,-62.94 1803.64,-48.84 1799.08,-38.38"/>
<polygon fill="#63b8ff" stroke="#63b8ff" points="1811.85,-76.43 1819.05,-84.2 1818.27,-73.64 1811.85,-76.43"/>
</a>
</g>
</g>
<!-- Node27 -->
<g id="Node000027" class="node">
<title>Node27</title>
<g id="a_Node000027"><a xlink:href="RemovePortalCommand_8cpp.html" target="_top" xlink:title=" ">
<polygon fill="white" stroke="#666666" points="2046.38,-38 1874.38,-38 1874.38,-6 2046.38,-6 2046.38,-38"/>
<text text-anchor="start" x="1882.38" y="-24.5" font-family="Helvetica,sans-Serif" font-size="10.00">src/bot_library/commands</text>
<text text-anchor="middle" x="1960.38" y="-12.5" font-family="Helvetica,sans-Serif" font-size="10.00">/portal/RemovePortalCommand.cpp</text>
</a>
</g>
</g>
<!-- Node26&#45;&gt;Node27 -->
<g id="edge36_Node000026_Node000027" class="edge">
<title>Node26&#45;&gt;Node27</title>
<g id="a_edge36_Node000026_Node000027"><a xlink:title=" ">
<path fill="none" stroke="#63b8ff" d="M1862.72,-79.84C1885.22,-66.75 1913.6,-50.23 1933.96,-38.38"/>
<polygon fill="#63b8ff" stroke="#63b8ff" points="1861.04,-76.77 1854.16,-84.83 1864.56,-82.82 1861.04,-76.77"/>
</a>
</g>
</g>
<!-- Node28&#45;&gt;Node6 -->
<g id="edge38_Node000028_Node000006" class="edge">
<title>Node28&#45;&gt;Node6</title>
<g id="a_edge38_Node000028_Node000006"><a xlink:title=" ">
<path fill="none" stroke="#63b8ff" d="M1952.84,-81.76C1916.34,-68.39 1868.33,-50.82 1834.37,-38.38"/>
<polygon fill="#63b8ff" stroke="#63b8ff" points="1951.28,-84.92 1961.87,-85.07 1953.69,-78.34 1951.28,-84.92"/>
</a>
</g>
</g>
<!-- Node29 -->
<g id="Node000029" class="node">
<title>Node29</title>
<g id="a_Node000029"><a xlink:href="SetPortalCommand_8cpp.html" target="_top" xlink:title=" ">
<polygon fill="white" stroke="#666666" points="2214.5,-38 2064.25,-38 2064.25,-6 2214.5,-6 2214.5,-38"/>
<text text-anchor="start" x="2072.25" y="-24.5" font-family="Helvetica,sans-Serif" font-size="10.00">src/bot_library/commands</text>
<text text-anchor="middle" x="2139.38" y="-12.5" font-family="Helvetica,sans-Serif" font-size="10.00">/portal/SetPortalCommand.cpp</text>
</a>
</g>
</g>
<!-- Node28&#45;&gt;Node29 -->
<g id="edge39_Node000028_Node000029" class="edge">
<title>Node28&#45;&gt;Node29</title>
<g id="a_edge39_Node000028_Node000029"><a xlink:title=" ">
<path fill="none" stroke="#63b8ff" d="M2041.72,-79.84C2064.22,-66.75 2092.6,-50.23 2112.96,-38.38"/>
<polygon fill="#63b8ff" stroke="#63b8ff" points="2040.04,-76.77 2033.16,-84.83 2043.56,-82.82 2040.04,-76.77"/>
</a>
</g>
</g>
<!-- Node30&#45;&gt;Node6 -->
<g id="edge41_Node000030_Node000006" class="edge">
<title>Node30&#45;&gt;Node6</title>
<g id="a_edge41_Node000030_Node000006"><a xlink:title=" ">
<path fill="none" stroke="#63b8ff" d="M2102.38,-82.93C2097.99,-81.89 2093.63,-80.9 2089.38,-80 1990.75,-59.02 1963.78,-65.98 1865.38,-44 1858.17,-42.39 1850.62,-40.48 1843.23,-38.48"/>
<polygon fill="#63b8ff" stroke="#63b8ff" points="2101.28,-86.27 2111.83,-85.24 2102.94,-79.47 2101.28,-86.27"/>
</a>
</g>
</g>
<!-- Node31 -->
<g id="Node000031" class="node">
<title>Node31</title>
<g id="a_Node000031"><a xlink:href="ProfileCommand_8cpp.html" target="_top" xlink:title=" ">
<polygon fill="white" stroke="#666666" points="2372.25,-38 2232.5,-38 2232.5,-6 2372.25,-6 2372.25,-38"/>
<text text-anchor="start" x="2240.5" y="-24.5" font-family="Helvetica,sans-Serif" font-size="10.00">src/bot_library/commands</text>
<text text-anchor="middle" x="2302.38" y="-12.5" font-family="Helvetica,sans-Serif" font-size="10.00">/profile/ProfileCommand.cpp</text>
</a>
</g>
</g>
<!-- Node30&#45;&gt;Node31 -->
<g id="edge42_Node000030_Node000031" class="edge">
<title>Node30&#45;&gt;Node31</title>
<g id="a_edge42_Node000030_Node000031"><a xlink:title=" ">
<path fill="none" stroke="#63b8ff" d="M2204.72,-79.84C2227.22,-66.75 2255.6,-50.23 2275.96,-38.38"/>
<polygon fill="#63b8ff" stroke="#63b8ff" points="2203.04,-76.77 2196.16,-84.83 2206.56,-82.82 2203.04,-76.77"/>
</a>
</g>
</g>
<!-- Node32&#45;&gt;Node6 -->
<g id="edge44_Node000032_Node000006" class="edge">
<title>Node32&#45;&gt;Node6</title>
<g id="a_edge44_Node000032_Node000006"><a xlink:title=" ">
<path fill="none" stroke="#63b8ff" d="M2265.66,-83.29C2259.5,-82.08 2253.34,-80.96 2247.38,-80 2079,-52.97 2032.93,-75.71 1865.38,-44 1857.6,-42.53 1849.46,-40.59 1841.55,-38.49"/>
<polygon fill="#63b8ff" stroke="#63b8ff" points="2264.76,-86.67 2275.25,-85.25 2266.16,-79.82 2264.76,-86.67"/>
</a>
</g>
</g>
<!-- Node33 -->
<g id="Node000033" class="node">
<title>Node33</title>
<g id="a_Node000033"><a xlink:href="ReactionRoles_8cpp.html" target="_top" xlink:title=" ">
<polygon fill="white" stroke="#666666" points="2556.38,-38 2390.38,-38 2390.38,-6 2556.38,-6 2556.38,-38"/>
<text text-anchor="start" x="2398.38" y="-24.5" font-family="Helvetica,sans-Serif" font-size="10.00">src/bot_library/commands</text>
<text text-anchor="middle" x="2473.38" y="-12.5" font-family="Helvetica,sans-Serif" font-size="10.00">/reaction_roles/ReactionRoles.cpp</text>
</a>
</g>
</g>
<!-- Node32&#45;&gt;Node33 -->
<g id="edge45_Node000032_Node000033" class="edge">
<title>Node32&#45;&gt;Node33</title>
<g id="a_edge45_Node000032_Node000033"><a xlink:title=" ">
<path fill="none" stroke="#63b8ff" d="M2375.72,-79.84C2398.22,-66.75 2426.6,-50.23 2446.96,-38.38"/>
<polygon fill="#63b8ff" stroke="#63b8ff" points="2374.04,-76.77 2367.16,-84.83 2377.56,-82.82 2374.04,-76.77"/>
</a>
</g>
</g>
<!-- Node34&#45;&gt;Node6 -->
<g id="edge47_Node000034_Node000006" class="edge">
<title>Node34&#45;&gt;Node6</title>
<g id="a_edge47_Node000034_Node000006"><a xlink:title=" ">
<path fill="none" stroke="#63b8ff" d="M2452.34,-83.41C2445.27,-82.12 2438.21,-80.95 2431.38,-80 2181.72,-45.24 2113.73,-87.1 1865.38,-44 1857.32,-42.6 1848.88,-40.65 1840.72,-38.49"/>
<polygon fill="#63b8ff" stroke="#63b8ff" points="2451.43,-86.8 2461.91,-85.25 2452.74,-79.93 2451.43,-86.8"/>
</a>
</g>
</g>
<!-- Node35 -->
<g id="Node000035" class="node">
<title>Node35</title>
<g id="a_Node000035"><a xlink:href="ResourcesCommand_8cpp.html" target="_top" xlink:title=" ">
<polygon fill="white" stroke="#666666" points="2750.25,-38 2574.5,-38 2574.5,-6 2750.25,-6 2750.25,-38"/>
<text text-anchor="start" x="2582.5" y="-24.5" font-family="Helvetica,sans-Serif" font-size="10.00">src/bot_library/commands</text>
<text text-anchor="middle" x="2662.38" y="-12.5" font-family="Helvetica,sans-Serif" font-size="10.00">/resources/ResourcesCommand.cpp</text>
</a>
</g>
</g>
<!-- Node34&#45;&gt;Node35 -->
<g id="edge48_Node000034_Node000035" class="edge">
<title>Node34&#45;&gt;Node35</title>
<g id="a_edge48_Node000034_Node000035"><a xlink:title=" ">
<path fill="none" stroke="#63b8ff" d="M2564.72,-79.84C2587.22,-66.75 2615.6,-50.23 2635.96,-38.38"/>
<polygon fill="#63b8ff" stroke="#63b8ff" points="2563.04,-76.77 2556.16,-84.83 2566.56,-82.82 2563.04,-76.77"/>
</a>
</g>
</g>
<!-- Node36&#45;&gt;Node6 -->
<g id="edge50_Node000036_Node000006" class="edge">
<title>Node36&#45;&gt;Node6</title>
<g id="a_edge50_Node000036_Node000006"><a xlink:title=" ">
<path fill="none" stroke="#63b8ff" d="M2639.68,-82.84C2634.87,-81.75 2630.06,-80.77 2625.38,-80 2291.74,-24.88 2199.01,-99.12 1865.38,-44 1857.05,-42.62 1848.32,-40.62 1839.92,-38.4"/>
<polygon fill="#63b8ff" stroke="#63b8ff" points="2638.82,-86.24 2649.36,-85.24 2640.5,-79.44 2638.82,-86.24"/>
</a>
</g>
</g>
<!-- Node37 -->
<g id="Node000037" class="node">
<title>Node37</title>
<g id="a_Node000037"><a xlink:href="RollCommand_8cpp.html" target="_top" xlink:title=" ">
<polygon fill="white" stroke="#666666" points="2896.62,-38 2768.12,-38 2768.12,-6 2896.62,-6 2896.62,-38"/>
<text text-anchor="start" x="2776.12" y="-24.5" font-family="Helvetica,sans-Serif" font-size="10.00">src/bot_library/commands</text>
<text text-anchor="middle" x="2832.38" y="-12.5" font-family="Helvetica,sans-Serif" font-size="10.00">/roll/RollCommand.cpp</text>
</a>
</g>
</g>
<!-- Node36&#45;&gt;Node37 -->
<g id="edge51_Node000036_Node000037" class="edge">
<title>Node36&#45;&gt;Node37</title>
<g id="a_edge51_Node000036_Node000037"><a xlink:title=" ">
<path fill="none" stroke="#63b8ff" d="M2734.72,-79.84C2757.22,-66.75 2785.6,-50.23 2805.96,-38.38"/>
<polygon fill="#63b8ff" stroke="#63b8ff" points="2733.04,-76.77 2726.16,-84.83 2736.56,-82.82 2733.04,-76.77"/>
</a>
</g>
</g>
<!-- Node38&#45;&gt;Node6 -->
<g id="edge53_Node000038_Node000006" class="edge">
<title>Node38&#45;&gt;Node6</title>
<g id="a_edge53_Node000038_Node000006"><a xlink:title=" ">
<path fill="none" stroke="#63b8ff" d="M2791.04,-83.25C2784.42,-81.98 2777.79,-80.87 2771.38,-80 2372.03,-25.97 2263.22,-108.17 1865.38,-44 1857.04,-42.66 1848.31,-40.67 1839.91,-38.45"/>
<polygon fill="#63b8ff" stroke="#63b8ff" points="2790.14,-86.64 2800.64,-85.2 2791.54,-79.78 2790.14,-86.64"/>
</a>
</g>
</g>
<!-- Node39 -->
<g id="Node000039" class="node">
<title>Node39</title>
<g id="a_Node000039"><a xlink:href="ServerDetails_8cpp.html" target="_top" xlink:title=" ">
<polygon fill="white" stroke="#666666" points="3075.75,-38 2915,-38 2915,-6 3075.75,-6 3075.75,-38"/>
<text text-anchor="start" x="2923" y="-24.5" font-family="Helvetica,sans-Serif" font-size="10.00">src/bot_library/commands</text>
<text text-anchor="middle" x="2995.38" y="-12.5" font-family="Helvetica,sans-Serif" font-size="10.00">/server_details/ServerDetails.cpp</text>
</a>
</g>
</g>
<!-- Node38&#45;&gt;Node39 -->
<g id="edge54_Node000038_Node000039" class="edge">
<title>Node38&#45;&gt;Node39</title>
<g id="a_edge54_Node000038_Node000039"><a xlink:title=" ">
<path fill="none" stroke="#63b8ff" d="M2897.72,-79.84C2920.22,-66.75 2948.6,-50.23 2968.96,-38.38"/>
<polygon fill="#63b8ff" stroke="#63b8ff" points="2896.04,-76.77 2889.16,-84.83 2899.56,-82.82 2896.04,-76.77"/>
</a>
</g>
</g>
<!-- Node40&#45;&gt;Node6 -->
<g id="edge56_Node000040_Node000006" class="edge">
<title>Node40&#45;&gt;Node6</title>
<g id="a_edge56_Node000040_Node000006"><a xlink:title=" ">
<path fill="none" stroke="#63b8ff" d="M2965.28,-82.86C2960.27,-81.74 2955.26,-80.76 2950.38,-80 2473.66,-5.59 2341.96,-119.27 1865.38,-44 1857.04,-42.68 1848.31,-40.71 1839.9,-38.5"/>
<polygon fill="#63b8ff" stroke="#63b8ff" points="2964.17,-86.19 2974.72,-85.15 2965.82,-79.39 2964.17,-86.19"/>
</a>
</g>
</g>
<!-- Node41 -->
<g id="Node000041" class="node">
<title>Node41</title>
<g id="a_Node000041"><a xlink:href="SetStatus_8cpp.html" target="_top" xlink:title=" ">
<polygon fill="white" stroke="#666666" points="3223.38,-38 3093.38,-38 3093.38,-6 3223.38,-6 3223.38,-38"/>
<text text-anchor="start" x="3101.38" y="-24.5" font-family="Helvetica,sans-Serif" font-size="10.00">src/bot_library/commands</text>
<text text-anchor="middle" x="3158.38" y="-12.5" font-family="Helvetica,sans-Serif" font-size="10.00">/set_status/SetStatus.cpp</text>
</a>
</g>
</g>
<!-- Node40&#45;&gt;Node41 -->
<g id="edge57_Node000040_Node000041" class="edge">
<title>Node40&#45;&gt;Node41</title>
<g id="a_edge57_Node000040_Node000041"><a xlink:title=" ">
<path fill="none" stroke="#63b8ff" d="M3060.72,-79.84C3083.22,-66.75 3111.6,-50.23 3131.96,-38.38"/>
<polygon fill="#63b8ff" stroke="#63b8ff" points="3059.04,-76.77 3052.16,-84.83 3062.56,-82.82 3059.04,-76.77"/>
</a>
</g>
</g>
</g>
</svg>
