<?xml version="1.0" encoding="UTF-8" standalone="no"?>
<!DOCTYPE svg PUBLIC "-//W3C//DTD SVG 1.1//EN"
 "http://www.w3.org/Graphics/SVG/1.1/DTD/svg11.dtd">
<!-- Generated by graphviz version 9.0.0 (0)
 -->
<!-- Title: src/bot_library/bot/core/interfaces/include/IReactionCommand.hpp Pages: 1 -->
<svg width="2634pt" height="348pt"
 viewBox="0.00 0.00 2634.00 348.00" xmlns="http://www.w3.org/2000/svg" xmlns:xlink="http://www.w3.org/1999/xlink">
<g id="graph0" class="graph" transform="scale(1 1) rotate(0) translate(4 344)">
<title>src/bot_library/bot/core/interfaces/include/IReactionCommand.hpp</title>
<!-- Node1 -->
<g id="Node000001" class="node">
<title>Node1</title>
<g id="a_Node000001"><a xlink:title=" ">
<polygon fill="#999999" stroke="#666666" points="2084.75,-340 1960,-340 1960,-296 2084.75,-296 2084.75,-340"/>
<text text-anchor="start" x="1968" y="-326.5" font-family="Helvetica,sans-Serif" font-size="10.00">src/bot_library/bot</text>
<text text-anchor="start" x="1968" y="-314.5" font-family="Helvetica,sans-Serif" font-size="10.00">/core/interfaces/include</text>
<text text-anchor="middle" x="2022.38" y="-302.5" font-family="Helvetica,sans-Serif" font-size="10.00">/IReactionCommand.hpp</text>
</a>
</g>
</g>
<!-- Node2 -->
<g id="Node000002" class="node">
<title>Node2</title>
<g id="a_Node000002"><a xlink:href="Core_8hpp.html" target="_top" xlink:title=" ">
<polygon fill="white" stroke="#666666" points="2229.5,-260 2115.25,-260 2115.25,-228 2229.5,-228 2229.5,-260"/>
<text text-anchor="start" x="2123.25" y="-246.5" font-family="Helvetica,sans-Serif" font-size="10.00">src/bot_library/bot</text>
<text text-anchor="middle" x="2172.38" y="-234.5" font-family="Helvetica,sans-Serif" font-size="10.00">/core/include/Core.hpp</text>
</a>
</g>
</g>
<!-- Node1&#45;&gt;Node2 -->
<g id="edge1_Node000001_Node000002" class="edge">
<title>Node1&#45;&gt;Node2</title>
<g id="a_edge1_Node000001_Node000002"><a xlink:title=" ">
<path fill="none" stroke="#63b8ff" d="M2077.14,-290.72C2098.28,-280.57 2121.74,-269.3 2140.09,-260.5"/>
<polygon fill="#63b8ff" stroke="#63b8ff" points="2075.84,-287.45 2068.34,-294.94 2078.87,-293.77 2075.84,-287.45"/>
</a>
</g>
</g>
<!-- Node4 -->
<g id="Node000004" class="node">
<title>Node4</title>
<g id="a_Node000004"><a xlink:href="Bot_8hpp.html" target="_top" xlink:title=" ">
<polygon fill="white" stroke="#666666" points="1197.38,-192 1103.38,-192 1103.38,-160 1197.38,-160 1197.38,-192"/>
<text text-anchor="start" x="1111.38" y="-178.5" font-family="Helvetica,sans-Serif" font-size="10.00">src/bot_library/bot</text>
<text text-anchor="middle" x="1150.38" y="-166.5" font-family="Helvetica,sans-Serif" font-size="10.00">/include/Bot.hpp</text>
</a>
</g>
</g>
<!-- Node1&#45;&gt;Node4 -->
<g id="edge47_Node000001_Node000004" class="edge">
<title>Node1&#45;&gt;Node4</title>
<g id="a_edge47_Node000001_Node000004"><a xlink:title=" ">
<path fill="none" stroke="#63b8ff" d="M1948.31,-305.11C1773.92,-277.11 1341.35,-207.66 1197.64,-184.59"/>
<polygon fill="#63b8ff" stroke="#63b8ff" points="1947.74,-308.56 1958.17,-306.69 1948.85,-301.65 1947.74,-308.56"/>
</a>
</g>
</g>
<!-- Node23 -->
<g id="Node000023" class="node">
<title>Node23</title>
<g id="a_Node000023"><a xlink:href="ReactionRoles_8cpp.html" target="_top" xlink:title=" ">
<polygon fill="white" stroke="#666666" points="1656.38,-38 1490.38,-38 1490.38,-6 1656.38,-6 1656.38,-38"/>
<text text-anchor="start" x="1498.38" y="-24.5" font-family="Helvetica,sans-Serif" font-size="10.00">src/bot_library/commands</text>
<text text-anchor="middle" x="1573.38" y="-12.5" font-family="Helvetica,sans-Serif" font-size="10.00">/reaction_roles/ReactionRoles.cpp</text>
</a>
</g>
</g>
<!-- Node1&#45;&gt;Node23 -->
<g id="edge48_Node000001_Node000023" class="edge">
<title>Node1&#45;&gt;Node23</title>
<g id="a_edge48_Node000001_Node000023"><a xlink:title=" ">
<path fill="none" stroke="#63b8ff" d="M2024.65,-284.31C2027.92,-226.17 2030.87,-108.22 2003.38,-80 1950.66,-25.9 1739.88,-56.43 1665.38,-44 1656,-42.44 1646.15,-40.5 1636.53,-38.45"/>
<polygon fill="#63b8ff" stroke="#63b8ff" points="2021.16,-284.05 2024.04,-294.24 2028.14,-284.47 2021.16,-284.05"/>
</a>
</g>
</g>
<!-- Node3 -->
<g id="Node000003" class="node">
<title>Node3</title>
<g id="a_Node000003"><a xlink:href="Core_8cpp.html" target="_top" xlink:title=" ">
<polygon fill="white" stroke="#666666" points="2144.38,-192 2050.38,-192 2050.38,-160 2144.38,-160 2144.38,-192"/>
<text text-anchor="start" x="2058.38" y="-178.5" font-family="Helvetica,sans-Serif" font-size="10.00">src/bot_library/bot</text>
<text text-anchor="middle" x="2097.38" y="-166.5" font-family="Helvetica,sans-Serif" font-size="10.00">/core/Core.cpp</text>
</a>
</g>
</g>
<!-- Node2&#45;&gt;Node3 -->
<g id="edge2_Node000002_Node000003" class="edge">
<title>Node2&#45;&gt;Node3</title>
<g id="a_edge2_Node000002_Node000003"><a xlink:title=" ">
<path fill="none" stroke="#63b8ff" d="M2146.6,-220.32C2136.16,-211.13 2124.36,-200.75 2114.94,-192.45"/>
<polygon fill="#63b8ff" stroke="#63b8ff" points="2144.02,-222.71 2153.84,-226.69 2148.65,-217.46 2144.02,-222.71"/>
</a>
</g>
</g>
<!-- Node2&#45;&gt;Node4 -->
<g id="edge3_Node000002_Node000004" class="edge">
<title>Node2&#45;&gt;Node4</title>
<g id="a_edge3_Node000002_Node000004"><a xlink:title=" ">
<path fill="none" stroke="#63b8ff" d="M2103.43,-238.55C1909.39,-226.02 1362.14,-190.68 1197.69,-180.06"/>
<polygon fill="#63b8ff" stroke="#63b8ff" points="2103.15,-242.04 2113.36,-239.19 2103.61,-235.05 2103.15,-242.04"/>
</a>
</g>
</g>
<!-- Node9 -->
<g id="Node000009" class="node">
<title>Node9</title>
<g id="a_Node000009"><a xlink:href="ChallengeRoleCommand_8cpp.html" target="_top" xlink:title=" ">
<polygon fill="white" stroke="#666666" points="2080.25,-38 1868.5,-38 1868.5,-6 2080.25,-6 2080.25,-38"/>
<text text-anchor="start" x="1876.5" y="-24.5" font-family="Helvetica,sans-Serif" font-size="10.00">src/bot_library/commands</text>
<text text-anchor="middle" x="1974.38" y="-12.5" font-family="Helvetica,sans-Serif" font-size="10.00">/challenge_role/ChallengeRoleCommand.cpp</text>
</a>
</g>
</g>
<!-- Node2&#45;&gt;Node9 -->
<g id="edge43_Node000002_Node000009" class="edge">
<title>Node2&#45;&gt;Node9</title>
<g id="a_edge43_Node000002_Node000009"><a xlink:title=" ">
<path fill="none" stroke="#63b8ff" d="M2194.36,-219.6C2223.49,-185.7 2267.44,-122.37 2233.38,-80 2227.67,-72.9 2130.05,-52.8 2056.33,-38.48"/>
<polygon fill="#63b8ff" stroke="#63b8ff" points="2191.98,-217 2187.97,-226.81 2197.22,-221.64 2191.98,-217"/>
</a>
</g>
</g>
<!-- Node25 -->
<g id="Node000025" class="node">
<title>Node25</title>
<g id="a_Node000025"><a xlink:href="ResourcesCommand_8cpp.html" target="_top" xlink:title=" ">
<polygon fill="white" stroke="#666666" points="1850.25,-38 1674.5,-38 1674.5,-6 1850.25,-6 1850.25,-38"/>
<text text-anchor="start" x="1682.5" y="-24.5" font-family="Helvetica,sans-Serif" font-size="10.00">src/bot_library/commands</text>
<text text-anchor="middle" x="1762.38" y="-12.5" font-family="Helvetica,sans-Serif" font-size="10.00">/resources/ResourcesCommand.cpp</text>
</a>
</g>
</g>
<!-- Node2&#45;&gt;Node25 -->
<g id="edge44_Node000002_Node000025" class="edge">
<title>Node2&#45;&gt;Node25</title>
<g id="a_edge44_Node000002_Node000025"><a xlink:title=" ">
<path fill="none" stroke="#63b8ff" d="M2172.05,-216.27C2170.55,-198.61 2166,-175.89 2153.38,-160 2130.62,-131.37 2109.04,-145.39 2079.38,-124 2057.2,-108.01 2060.39,-93.08 2036.38,-80 1965.88,-41.6 1937.94,-60.49 1859.38,-44 1850.94,-42.23 1842.11,-40.35 1833.34,-38.47"/>
<polygon fill="#63b8ff" stroke="#63b8ff" points="2168.55,-216.23 2172.59,-226.02 2175.54,-215.85 2168.55,-216.23"/>
</a>
</g>
</g>
<!-- Node29 -->
<g id="Node000029" class="node">
<title>Node29</title>
<g id="a_Node000029"><a xlink:href="server__details_2set__channel_2SetChannelCommand_8cpp.html" target="_top" xlink:title=" ">
<polygon fill="white" stroke="#666666" points="2415,-44 2279.75,-44 2279.75,0 2415,0 2415,-44"/>
<text text-anchor="start" x="2287.75" y="-30.5" font-family="Helvetica,sans-Serif" font-size="10.00">src/bot_library/commands</text>
<text text-anchor="start" x="2287.75" y="-18.5" font-family="Helvetica,sans-Serif" font-size="10.00">/server_details/set_channel</text>
<text text-anchor="middle" x="2347.38" y="-6.5" font-family="Helvetica,sans-Serif" font-size="10.00">/SetChannelCommand.cpp</text>
</a>
</g>
</g>
<!-- Node2&#45;&gt;Node29 -->
<g id="edge45_Node000002_Node000029" class="edge">
<title>Node2&#45;&gt;Node29</title>
<g id="a_edge45_Node000002_Node000029"><a xlink:title=" ">
<path fill="none" stroke="#63b8ff" d="M2241.07,-238.07C2314.05,-228.73 2426.1,-201.78 2479.38,-124 2490.43,-107.87 2490.12,-96.34 2479.38,-80 2471.35,-67.8 2443.09,-54.84 2414.77,-44.37"/>
<polygon fill="#63b8ff" stroke="#63b8ff" points="2240.72,-234.58 2231.21,-239.24 2241.55,-241.53 2240.72,-234.58"/>
</a>
</g>
</g>
<!-- Node31 -->
<g id="Node000031" class="node">
<title>Node31</title>
<g id="a_Node000031"><a xlink:href="set__channel_2SetChannelCommand_8cpp.html" target="_top" xlink:title=" ">
<polygon fill="white" stroke="#666666" points="2626,-38 2436.75,-38 2436.75,-6 2626,-6 2626,-38"/>
<text text-anchor="start" x="2444.75" y="-24.5" font-family="Helvetica,sans-Serif" font-size="10.00">src/bot_library/commands</text>
<text text-anchor="middle" x="2531.38" y="-12.5" font-family="Helvetica,sans-Serif" font-size="10.00">/set_channel/SetChannelCommand.cpp</text>
</a>
</g>
</g>
<!-- Node2&#45;&gt;Node31 -->
<g id="edge46_Node000002_Node000031" class="edge">
<title>Node2&#45;&gt;Node31</title>
<g id="a_edge46_Node000002_Node000031"><a xlink:title=" ">
<path fill="none" stroke="#63b8ff" d="M2241.21,-242.26C2297.87,-238.86 2378.5,-227.4 2439.38,-192 2497.42,-158.25 2521.03,-73.31 2528.5,-38.38"/>
<polygon fill="#63b8ff" stroke="#63b8ff" points="2241.17,-238.76 2231.36,-242.77 2241.53,-245.75 2241.17,-238.76"/>
</a>
</g>
</g>
<!-- Node5 -->
<g id="Node000005" class="node">
<title>Node5</title>
<g id="a_Node000005"><a xlink:href="BotLibrary_8cpp.html" target="_top" xlink:title=" ">
<polygon fill="white" stroke="#666666" points="142.75,-32 0,-32 0,-12 142.75,-12 142.75,-32"/>
<text text-anchor="middle" x="71.38" y="-18.5" font-family="Helvetica,sans-Serif" font-size="10.00">src/bot_library/BotLibrary.cpp</text>
</a>
</g>
</g>
<!-- Node4&#45;&gt;Node5 -->
<g id="edge4_Node000004_Node000005" class="edge">
<title>Node4&#45;&gt;Node5</title>
<g id="a_edge4_Node000004_Node000005"><a xlink:title=" ">
<path fill="none" stroke="#63b8ff" d="M1091.56,-174.5C868.26,-172.34 83.69,-162.03 47.38,-124 22.73,-98.19 50.57,-51.89 64.44,-32.23"/>
<polygon fill="#63b8ff" stroke="#63b8ff" points="1091.45,-178 1101.49,-174.6 1091.52,-171 1091.45,-178"/>
</a>
</g>
</g>
<!-- Node6 -->
<g id="Node000006" class="node">
<title>Node6</title>
<g id="a_Node000006"><a xlink:href="Bot_8cpp.html" target="_top" xlink:title=" ">
<polygon fill="white" stroke="#666666" points="921.38,-118 827.38,-118 827.38,-86 921.38,-86 921.38,-118"/>
<text text-anchor="start" x="835.38" y="-104.5" font-family="Helvetica,sans-Serif" font-size="10.00">src/bot_library/bot</text>
<text text-anchor="middle" x="874.38" y="-92.5" font-family="Helvetica,sans-Serif" font-size="10.00">/Bot.cpp</text>
</a>
</g>
</g>
<!-- Node4&#45;&gt;Node6 -->
<g id="edge5_Node000004_Node000006" class="edge">
<title>Node4&#45;&gt;Node6</title>
<g id="a_edge5_Node000004_Node000006"><a xlink:title=" ">
<path fill="none" stroke="#63b8ff" d="M1091.9,-163.62C1047.25,-154.41 984.41,-140.32 930.38,-124 924.91,-122.35 919.21,-120.44 913.62,-118.46"/>
<polygon fill="#63b8ff" stroke="#63b8ff" points="1091.15,-167.04 1101.64,-165.61 1092.55,-160.18 1091.15,-167.04"/>
</a>
</g>
</g>
<!-- Node7 -->
<g id="Node000007" class="node">
<title>Node7</title>
<g id="a_Node000007"><a xlink:href="ChallengeRoleCommand_8hpp.html" target="_top" xlink:title=" ">
<polygon fill="white" stroke="#666666" points="1822.25,-118 1610.5,-118 1610.5,-86 1822.25,-86 1822.25,-118"/>
<text text-anchor="start" x="1618.5" y="-104.5" font-family="Helvetica,sans-Serif" font-size="10.00">src/bot_library/commands</text>
<text text-anchor="middle" x="1716.38" y="-92.5" font-family="Helvetica,sans-Serif" font-size="10.00">/challenge_role/ChallengeRoleCommand.hpp</text>
</a>
</g>
</g>
<!-- Node4&#45;&gt;Node7 -->
<g id="edge6_Node000004_Node000007" class="edge">
<title>Node4&#45;&gt;Node7</title>
<g id="a_edge6_Node000004_Node000007"><a xlink:title=" ">
<path fill="none" stroke="#63b8ff" d="M1208.95,-169.66C1295.14,-161.51 1461.08,-144.72 1601.38,-124 1612.42,-122.37 1624.02,-120.47 1635.44,-118.49"/>
<polygon fill="#63b8ff" stroke="#63b8ff" points="1208.72,-166.17 1199.09,-170.59 1209.38,-173.14 1208.72,-166.17"/>
</a>
</g>
</g>
<!-- Node11 -->
<g id="Node000011" class="node">
<title>Node11</title>
<g id="a_Node000011"><a xlink:href="CleanUp_8hpp.html" target="_top" xlink:title=" ">
<polygon fill="white" stroke="#666666" points="1067.62,-118 939.12,-118 939.12,-86 1067.62,-86 1067.62,-118"/>
<text text-anchor="start" x="947.12" y="-104.5" font-family="Helvetica,sans-Serif" font-size="10.00">src/bot_library/commands</text>
<text text-anchor="middle" x="1003.38" y="-92.5" font-family="Helvetica,sans-Serif" font-size="10.00">/clean_up/CleanUp.hpp</text>
</a>
</g>
</g>
<!-- Node4&#45;&gt;Node11 -->
<g id="edge10_Node000004_Node000011" class="edge">
<title>Node4&#45;&gt;Node11</title>
<g id="a_edge10_Node000004_Node000011"><a xlink:title=" ">
<path fill="none" stroke="#63b8ff" d="M1108.81,-154.64C1085.33,-143.14 1056.45,-129 1034.86,-118.42"/>
<polygon fill="#63b8ff" stroke="#63b8ff" points="1106.96,-157.63 1117.48,-158.89 1110.04,-151.35 1106.96,-157.63"/>
</a>
</g>
</g>
<!-- Node13 -->
<g id="Node000013" class="node">
<title>Node13</title>
<g id="a_Node000013"><a xlink:href="HelpCommand_8hpp.html" target="_top" xlink:title=" ">
<polygon fill="white" stroke="#666666" points="1214.62,-118 1086.12,-118 1086.12,-86 1214.62,-86 1214.62,-118"/>
<text text-anchor="start" x="1094.12" y="-104.5" font-family="Helvetica,sans-Serif" font-size="10.00">src/bot_library/commands</text>
<text text-anchor="middle" x="1150.38" y="-92.5" font-family="Helvetica,sans-Serif" font-size="10.00">/help/HelpCommand.hpp</text>
</a>
</g>
</g>
<!-- Node4&#45;&gt;Node13 -->
<g id="edge13_Node000004_Node000013" class="edge">
<title>Node4&#45;&gt;Node13</title>
<g id="a_edge13_Node000004_Node000013"><a xlink:title=" ">
<path fill="none" stroke="#63b8ff" d="M1150.38,-148.49C1150.38,-138.3 1150.38,-127.03 1150.38,-118.25"/>
<polygon fill="#63b8ff" stroke="#63b8ff" points="1146.88,-148.22 1150.38,-158.22 1153.88,-148.22 1146.88,-148.22"/>
</a>
</g>
</g>
<!-- Node15 -->
<g id="Node000015" class="node">
<title>Node15</title>
<g id="a_Node000015"><a xlink:href="Commands_8hpp.html" target="_top" xlink:title=" ">
<polygon fill="white" stroke="#666666" points="184.62,-118 56.12,-118 56.12,-86 184.62,-86 184.62,-118"/>
<text text-anchor="start" x="64.12" y="-104.5" font-family="Helvetica,sans-Serif" font-size="10.00">src/bot_library/commands</text>
<text text-anchor="middle" x="120.38" y="-92.5" font-family="Helvetica,sans-Serif" font-size="10.00">/include/Commands.hpp</text>
</a>
</g>
</g>
<!-- Node4&#45;&gt;Node15 -->
<g id="edge16_Node000004_Node000015" class="edge">
<title>Node4&#45;&gt;Node15</title>
<g id="a_edge16_Node000004_Node000015"><a xlink:title=" ">
<path fill="none" stroke="#63b8ff" d="M1091.56,-173.61C911.19,-169.08 367.57,-153.31 193.38,-124 185.18,-122.62 176.6,-120.65 168.32,-118.46"/>
<polygon fill="#63b8ff" stroke="#63b8ff" points="1091.31,-177.11 1101.39,-173.86 1091.48,-170.11 1091.31,-177.11"/>
</a>
</g>
</g>
<!-- Node16 -->
<g id="Node000016" class="node">
<title>Node16</title>
<g id="a_Node000016"><a xlink:href="InitDatabase_8hpp.html" target="_top" xlink:title=" ">
<polygon fill="white" stroke="#666666" points="1994.38,-118 1840.38,-118 1840.38,-86 1994.38,-86 1994.38,-118"/>
<text text-anchor="start" x="1848.38" y="-104.5" font-family="Helvetica,sans-Serif" font-size="10.00">src/bot_library/commands</text>
<text text-anchor="middle" x="1917.38" y="-92.5" font-family="Helvetica,sans-Serif" font-size="10.00">/init_database/InitDatabase.hpp</text>
</a>
</g>
</g>
<!-- Node4&#45;&gt;Node16 -->
<g id="edge19_Node000004_Node000016" class="edge">
<title>Node4&#45;&gt;Node16</title>
<g id="a_edge19_Node000004_Node000016"><a xlink:title=" ">
<path fill="none" stroke="#63b8ff" d="M1209.04,-173.86C1327.41,-170.83 1603.02,-160.18 1831.38,-124 1840.63,-122.53 1850.36,-120.57 1859.81,-118.44"/>
<polygon fill="#63b8ff" stroke="#63b8ff" points="1209.17,-170.35 1199.26,-174.1 1209.34,-177.35 1209.17,-170.35"/>
</a>
</g>
</g>
<!-- Node18 -->
<g id="Node000018" class="node">
<title>Node18</title>
<g id="a_Node000018"><a xlink:href="InviteCommand_8hpp.html" target="_top" xlink:title=" ">
<polygon fill="white" stroke="#666666" points="335.88,-118 202.88,-118 202.88,-86 335.88,-86 335.88,-118"/>
<text text-anchor="start" x="210.88" y="-104.5" font-family="Helvetica,sans-Serif" font-size="10.00">src/bot_library/commands</text>
<text text-anchor="middle" x="269.38" y="-92.5" font-family="Helvetica,sans-Serif" font-size="10.00">/invite/InviteCommand.hpp</text>
</a>
</g>
</g>
<!-- Node4&#45;&gt;Node18 -->
<g id="edge21_Node000004_Node000018" class="edge">
<title>Node4&#45;&gt;Node18</title>
<g id="a_edge21_Node000004_Node000018"><a xlink:title=" ">
<path fill="none" stroke="#63b8ff" d="M1092.05,-175.48C958.65,-175.67 621.41,-171.01 344.38,-124 336.11,-122.6 327.45,-120.64 319.07,-118.48"/>
<polygon fill="#63b8ff" stroke="#63b8ff" points="1091.68,-178.98 1101.68,-175.46 1091.67,-171.98 1091.68,-178.98"/>
</a>
</g>
</g>
<!-- Node20 -->
<g id="Node000020" class="node">
<title>Node20</title>
<g id="a_Node000020"><a xlink:href="PongCommand_8hpp.html" target="_top" xlink:title=" ">
<polygon fill="white" stroke="#666666" points="483,-118 353.75,-118 353.75,-86 483,-86 483,-118"/>
<text text-anchor="start" x="361.75" y="-104.5" font-family="Helvetica,sans-Serif" font-size="10.00">src/bot_library/commands</text>
<text text-anchor="middle" x="418.38" y="-92.5" font-family="Helvetica,sans-Serif" font-size="10.00">/pong/PongCommand.hpp</text>
</a>
</g>
</g>
<!-- Node4&#45;&gt;Node20 -->
<g id="edge24_Node000004_Node000020" class="edge">
<title>Node4&#45;&gt;Node20</title>
<g id="a_edge24_Node000004_Node000020"><a xlink:title=" ">
<path fill="none" stroke="#63b8ff" d="M1091.51,-174.35C975.81,-172.22 711.01,-163.09 492.38,-124 484.36,-122.57 475.96,-120.62 467.81,-118.5"/>
<polygon fill="#63b8ff" stroke="#63b8ff" points="1091.32,-177.85 1101.38,-174.52 1091.44,-170.85 1091.32,-177.85"/>
</a>
</g>
</g>
<!-- Node22 -->
<g id="Node000022" class="node">
<title>Node22</title>
<g id="a_Node000022"><a xlink:href="ReactionRoles_8hpp.html" target="_top" xlink:title=" ">
<polygon fill="white" stroke="#666666" points="1398.38,-118 1232.38,-118 1232.38,-86 1398.38,-86 1398.38,-118"/>
<text text-anchor="start" x="1240.38" y="-104.5" font-family="Helvetica,sans-Serif" font-size="10.00">src/bot_library/commands</text>
<text text-anchor="middle" x="1315.38" y="-92.5" font-family="Helvetica,sans-Serif" font-size="10.00">/reaction_roles/ReactionRoles.hpp</text>
</a>
</g>
</g>
<!-- Node4&#45;&gt;Node22 -->
<g id="edge27_Node000004_Node000022" class="edge">
<title>Node4&#45;&gt;Node22</title>
<g id="a_edge27_Node000004_Node000022"><a xlink:title=" ">
<path fill="none" stroke="#63b8ff" d="M1196.32,-154.95C1222.8,-143.4 1255.58,-129.09 1280.04,-118.42"/>
<polygon fill="#63b8ff" stroke="#63b8ff" points="1194.92,-151.74 1187.16,-158.95 1197.72,-158.16 1194.92,-151.74"/>
</a>
</g>
</g>
<!-- Node24 -->
<g id="Node000024" class="node">
<title>Node24</title>
<g id="a_Node000024"><a xlink:href="ResourcesCommand_8hpp.html" target="_top" xlink:title=" ">
<polygon fill="white" stroke="#666666" points="1592.25,-118 1416.5,-118 1416.5,-86 1592.25,-86 1592.25,-118"/>
<text text-anchor="start" x="1424.5" y="-104.5" font-family="Helvetica,sans-Serif" font-size="10.00">src/bot_library/commands</text>
<text text-anchor="middle" x="1504.38" y="-92.5" font-family="Helvetica,sans-Serif" font-size="10.00">/resources/ResourcesCommand.hpp</text>
</a>
</g>
</g>
<!-- Node4&#45;&gt;Node24 -->
<g id="edge30_Node000004_Node000024" class="edge">
<title>Node4&#45;&gt;Node24</title>
<g id="a_edge30_Node000004_Node000024"><a xlink:title=" ">
<path fill="none" stroke="#63b8ff" d="M1208.83,-163.7C1260.96,-153.55 1339.32,-138.12 1407.38,-124 1415.89,-122.23 1424.83,-120.35 1433.68,-118.45"/>
<polygon fill="#63b8ff" stroke="#63b8ff" points="1208.43,-160.21 1199.28,-165.56 1209.76,-167.08 1208.43,-160.21"/>
</a>
</g>
</g>
<!-- Node26 -->
<g id="Node000026" class="node">
<title>Node26</title>
<g id="a_Node000026"><a xlink:href="ServerDetails_8hpp.html" target="_top" xlink:title=" ">
<polygon fill="white" stroke="#666666" points="661.75,-118 501,-118 501,-86 661.75,-86 661.75,-118"/>
<text text-anchor="start" x="509" y="-104.5" font-family="Helvetica,sans-Serif" font-size="10.00">src/bot_library/commands</text>
<text text-anchor="middle" x="581.38" y="-92.5" font-family="Helvetica,sans-Serif" font-size="10.00">/server_details/ServerDetails.hpp</text>
</a>
</g>
</g>
<!-- Node4&#45;&gt;Node26 -->
<g id="edge33_Node000004_Node000026" class="edge">
<title>Node4&#45;&gt;Node26</title>
<g id="a_edge33_Node000004_Node000026"><a xlink:title=" ">
<path fill="none" stroke="#63b8ff" d="M1091.68,-171.16C1000.89,-164.67 821.14,-149.69 670.38,-124 661.3,-122.45 651.77,-120.53 642.45,-118.48"/>
<polygon fill="#63b8ff" stroke="#63b8ff" points="1091.36,-174.64 1101.58,-171.85 1091.85,-167.66 1091.36,-174.64"/>
</a>
</g>
</g>
<!-- Node28 -->
<g id="Node000028" class="node">
<title>Node28</title>
<g id="a_Node000028"><a xlink:href="server__details_2set__channel_2SetChannelCommand_8hpp.html" target="_top" xlink:title=" ">
<polygon fill="white" stroke="#666666" points="2224,-124 2088.75,-124 2088.75,-80 2224,-80 2224,-124"/>
<text text-anchor="start" x="2096.75" y="-110.5" font-family="Helvetica,sans-Serif" font-size="10.00">src/bot_library/commands</text>
<text text-anchor="start" x="2096.75" y="-98.5" font-family="Helvetica,sans-Serif" font-size="10.00">/server_details/set_channel</text>
<text text-anchor="middle" x="2156.38" y="-86.5" font-family="Helvetica,sans-Serif" font-size="10.00">/SetChannelCommand.hpp</text>
</a>
</g>
</g>
<!-- Node4&#45;&gt;Node28 -->
<g id="edge36_Node000004_Node000028" class="edge">
<title>Node4&#45;&gt;Node28</title>
<g id="a_edge36_Node000004_Node000028"><a xlink:title=" ">
<path fill="none" stroke="#63b8ff" d="M1208.77,-173.05C1347.08,-168.11 1705.39,-153.31 2003.38,-124 2031.26,-121.26 2061.87,-117.25 2088.34,-113.48"/>
<polygon fill="#63b8ff" stroke="#63b8ff" points="1209.02,-169.54 1199.15,-173.39 1209.27,-176.54 1209.02,-169.54"/>
</a>
</g>
</g>
<!-- Node30 -->
<g id="Node000030" class="node">
<title>Node30</title>
<g id="a_Node000030"><a xlink:href="set__channel_2SetChannelCommand_8hpp.html" target="_top" xlink:title=" ">
<polygon fill="white" stroke="#666666" points="2470,-118 2280.75,-118 2280.75,-86 2470,-86 2470,-118"/>
<text text-anchor="start" x="2288.75" y="-104.5" font-family="Helvetica,sans-Serif" font-size="10.00">src/bot_library/commands</text>
<text text-anchor="middle" x="2375.38" y="-92.5" font-family="Helvetica,sans-Serif" font-size="10.00">/set_channel/SetChannelCommand.hpp</text>
</a>
</g>
</g>
<!-- Node4&#45;&gt;Node30 -->
<g id="edge38_Node000004_Node000030" class="edge">
<title>Node4&#45;&gt;Node30</title>
<g id="a_edge38_Node000004_Node000030"><a xlink:title=" ">
<path fill="none" stroke="#63b8ff" d="M1208.92,-174.29C1371.71,-171.89 1843.45,-161.92 2233.38,-124 2248.63,-122.52 2264.75,-120.53 2280.44,-118.38"/>
<polygon fill="#63b8ff" stroke="#63b8ff" points="1209.2,-170.79 1199.25,-174.43 1209.3,-177.79 1209.2,-170.79"/>
</a>
</g>
</g>
<!-- Node32 -->
<g id="Node000032" class="node">
<title>Node32</title>
<g id="a_Node000032"><a xlink:href="SetStatus_8hpp.html" target="_top" xlink:title=" ">
<polygon fill="white" stroke="#666666" points="809.38,-118 679.38,-118 679.38,-86 809.38,-86 809.38,-118"/>
<text text-anchor="start" x="687.38" y="-104.5" font-family="Helvetica,sans-Serif" font-size="10.00">src/bot_library/commands</text>
<text text-anchor="middle" x="744.38" y="-92.5" font-family="Helvetica,sans-Serif" font-size="10.00">/set_status/SetStatus.hpp</text>
</a>
</g>
</g>
<!-- Node4&#45;&gt;Node32 -->
<g id="edge40_Node000004_Node000032" class="edge">
<title>Node4&#45;&gt;Node32</title>
<g id="a_edge40_Node000004_Node000032"><a xlink:title=" ">
<path fill="none" stroke="#63b8ff" d="M1091.93,-168.25C1025.3,-160.04 913.31,-144.68 818.38,-124 810.94,-122.38 803.14,-120.44 795.52,-118.4"/>
<polygon fill="#63b8ff" stroke="#63b8ff" points="1091.18,-171.69 1101.53,-169.42 1092.02,-164.74 1091.18,-171.69"/>
</a>
</g>
</g>
<!-- Node8 -->
<g id="Node000008" class="node">
<title>Node8</title>
<g id="a_Node000008"><a xlink:href="Commands_8cpp.html" target="_top" xlink:title=" ">
<polygon fill="white" stroke="#666666" points="955.62,-38 827.12,-38 827.12,-6 955.62,-6 955.62,-38"/>
<text text-anchor="start" x="835.12" y="-24.5" font-family="Helvetica,sans-Serif" font-size="10.00">src/bot_library/commands</text>
<text text-anchor="middle" x="891.38" y="-12.5" font-family="Helvetica,sans-Serif" font-size="10.00">/Commands.cpp</text>
</a>
</g>
</g>
<!-- Node7&#45;&gt;Node8 -->
<g id="edge7_Node000007_Node000008" class="edge">
<title>Node7&#45;&gt;Node8</title>
<g id="a_edge7_Node000007_Node000008"><a xlink:title=" ">
<path fill="none" stroke="#63b8ff" d="M1627.73,-83.68C1618.85,-82.28 1609.95,-81.02 1601.38,-80 1320.24,-46.51 1244.58,-90.93 965.38,-44 957.08,-42.61 948.38,-40.63 939.99,-38.43"/>
<polygon fill="#63b8ff" stroke="#63b8ff" points="1627.01,-87.11 1637.45,-85.26 1628.14,-80.2 1627.01,-87.11"/>
</a>
</g>
</g>
<!-- Node7&#45;&gt;Node9 -->
<g id="edge8_Node000007_Node000009" class="edge">
<title>Node7&#45;&gt;Node9</title>
<g id="a_edge8_Node000007_Node000009"><a xlink:title=" ">
<path fill="none" stroke="#63b8ff" d="M1778.3,-82.28C1822.72,-68.85 1881.84,-50.98 1923.51,-38.38"/>
<polygon fill="#63b8ff" stroke="#63b8ff" points="1777.36,-78.91 1768.8,-85.15 1779.38,-85.61 1777.36,-78.91"/>
</a>
</g>
</g>
<!-- Node10 -->
<g id="Node000010" class="node">
<title>Node10</title>
<g id="a_Node000010"><a xlink:href="ChallengeRoleDTO_8cpp.html" target="_top" xlink:title=" ">
<polygon fill="white" stroke="#666666" points="1472.25,-38 1284.5,-38 1284.5,-6 1472.25,-6 1472.25,-38"/>
<text text-anchor="start" x="1292.5" y="-24.5" font-family="Helvetica,sans-Serif" font-size="10.00">src/bot_library/commands</text>
<text text-anchor="middle" x="1378.38" y="-12.5" font-family="Helvetica,sans-Serif" font-size="10.00">/challenge_role/ChallengeRoleDTO.cpp</text>
</a>
</g>
</g>
<!-- Node7&#45;&gt;Node10 -->
<g id="edge9_Node000007_Node000010" class="edge">
<title>Node7&#45;&gt;Node10</title>
<g id="a_edge9_Node000007_Node000010"><a xlink:title=" ">
<path fill="none" stroke="#63b8ff" d="M1638.57,-83.04C1580.13,-69.56 1500.92,-51.28 1445.3,-38.44"/>
<polygon fill="#63b8ff" stroke="#63b8ff" points="1637.59,-86.41 1648.12,-85.25 1639.17,-79.59 1637.59,-86.41"/>
</a>
</g>
</g>
<!-- Node11&#45;&gt;Node8 -->
<g id="edge11_Node000011_Node000008" class="edge">
<title>Node11&#45;&gt;Node8</title>
<g id="a_edge11_Node000011_Node000008"><a xlink:title=" ">
<path fill="none" stroke="#63b8ff" d="M971.97,-79.13C953.34,-66.15 930.17,-50.01 913.46,-38.38"/>
<polygon fill="#63b8ff" stroke="#63b8ff" points="969.8,-81.88 980.01,-84.72 973.8,-76.14 969.8,-81.88"/>
</a>
</g>
</g>
<!-- Node12 -->
<g id="Node000012" class="node">
<title>Node12</title>
<g id="a_Node000012"><a xlink:href="CleanUp_8cpp.html" target="_top" xlink:title=" ">
<polygon fill="white" stroke="#666666" points="1102.62,-38 974.12,-38 974.12,-6 1102.62,-6 1102.62,-38"/>
<text text-anchor="start" x="982.12" y="-24.5" font-family="Helvetica,sans-Serif" font-size="10.00">src/bot_library/commands</text>
<text text-anchor="middle" x="1038.38" y="-12.5" font-family="Helvetica,sans-Serif" font-size="10.00">/clean_up/CleanUp.cpp</text>
</a>
</g>
</g>
<!-- Node11&#45;&gt;Node12 -->
<g id="edge12_Node000011_Node000012" class="edge">
<title>Node11&#45;&gt;Node12</title>
<g id="a_edge12_Node000011_Node000012"><a xlink:title=" ">
<path fill="none" stroke="#63b8ff" d="M1014.99,-75.11C1020.45,-62.94 1026.78,-48.84 1031.47,-38.38"/>
<polygon fill="#63b8ff" stroke="#63b8ff" points="1011.81,-73.65 1010.91,-84.21 1018.2,-76.52 1011.81,-73.65"/>
</a>
</g>
</g>
<!-- Node13&#45;&gt;Node8 -->
<g id="edge14_Node000013_Node000008" class="edge">
<title>Node13&#45;&gt;Node8</title>
<g id="a_edge14_Node000013_Node000008"><a xlink:title=" ">
<path fill="none" stroke="#63b8ff" d="M1088.21,-82.28C1043.61,-68.85 984.27,-50.98 942.44,-38.38"/>
<polygon fill="#63b8ff" stroke="#63b8ff" points="1087.17,-85.62 1097.76,-85.15 1089.19,-78.92 1087.17,-85.62"/>
</a>
</g>
</g>
<!-- Node14 -->
<g id="Node000014" class="node">
<title>Node14</title>
<g id="a_Node000014"><a xlink:href="HelpCommand_8cpp.html" target="_top" xlink:title=" ">
<polygon fill="white" stroke="#666666" points="1249.62,-38 1121.12,-38 1121.12,-6 1249.62,-6 1249.62,-38"/>
<text text-anchor="start" x="1129.12" y="-24.5" font-family="Helvetica,sans-Serif" font-size="10.00">src/bot_library/commands</text>
<text text-anchor="middle" x="1185.38" y="-12.5" font-family="Helvetica,sans-Serif" font-size="10.00">/help/HelpCommand.cpp</text>
</a>
</g>
</g>
<!-- Node13&#45;&gt;Node14 -->
<g id="edge15_Node000013_Node000014" class="edge">
<title>Node13&#45;&gt;Node14</title>
<g id="a_edge15_Node000013_Node000014"><a xlink:title=" ">
<path fill="none" stroke="#63b8ff" d="M1161.99,-75.11C1167.45,-62.94 1173.78,-48.84 1178.47,-38.38"/>
<polygon fill="#63b8ff" stroke="#63b8ff" points="1158.81,-73.65 1157.91,-84.21 1165.2,-76.52 1158.81,-73.65"/>
</a>
</g>
</g>
<!-- Node15&#45;&gt;Node5 -->
<g id="edge17_Node000015_Node000005" class="edge">
<title>Node15&#45;&gt;Node5</title>
<g id="a_edge17_Node000015_Node000005"><a xlink:title=" ">
<path fill="none" stroke="#63b8ff" d="M104.64,-75.95C95.33,-61.13 84.08,-43.22 77.34,-32.49"/>
<polygon fill="#63b8ff" stroke="#63b8ff" points="101.61,-77.7 109.89,-84.31 107.53,-73.98 101.61,-77.7"/>
</a>
</g>
</g>
<!-- Node15&#45;&gt;Node8 -->
<g id="edge18_Node000015_Node000008" class="edge">
<title>Node15&#45;&gt;Node8</title>
<g id="a_edge18_Node000015_Node000008"><a xlink:title=" ">
<path fill="none" stroke="#63b8ff" d="M179.31,-82.84C184.04,-81.76 188.77,-80.79 193.38,-80 467.66,-33.25 544.09,-90.75 818.38,-44 826.57,-42.6 835.15,-40.62 843.43,-38.43"/>
<polygon fill="#63b8ff" stroke="#63b8ff" points="178.65,-79.4 169.79,-85.21 180.34,-86.19 178.65,-79.4"/>
</a>
</g>
</g>
<!-- Node17 -->
<g id="Node000017" class="node">
<title>Node17</title>
<g id="a_Node000017"><a xlink:href="InitDatabase_8cpp.html" target="_top" xlink:title=" ">
<polygon fill="white" stroke="#666666" points="2252.38,-38 2098.38,-38 2098.38,-6 2252.38,-6 2252.38,-38"/>
<text text-anchor="start" x="2106.38" y="-24.5" font-family="Helvetica,sans-Serif" font-size="10.00">src/bot_library/commands</text>
<text text-anchor="middle" x="2175.38" y="-12.5" font-family="Helvetica,sans-Serif" font-size="10.00">/init_database/InitDatabase.cpp</text>
</a>
</g>
</g>
<!-- Node16&#45;&gt;Node17 -->
<g id="edge20_Node000016_Node000017" class="edge">
<title>Node16&#45;&gt;Node17</title>
<g id="a_edge20_Node000016_Node000017"><a xlink:title=" ">
<path fill="none" stroke="#63b8ff" d="M1979.3,-82.28C2023.72,-68.85 2082.84,-50.98 2124.51,-38.38"/>
<polygon fill="#63b8ff" stroke="#63b8ff" points="1978.36,-78.91 1969.8,-85.15 1980.38,-85.61 1978.36,-78.91"/>
</a>
</g>
</g>
<!-- Node18&#45;&gt;Node8 -->
<g id="edge22_Node000018_Node000008" class="edge">
<title>Node18&#45;&gt;Node8</title>
<g id="a_edge22_Node000018_Node000008"><a xlink:title=" ">
<path fill="none" stroke="#63b8ff" d="M330.41,-82.84C335.11,-81.77 339.81,-80.81 344.38,-80 552.44,-43.34 610.44,-81.4 818.38,-44 826.42,-42.55 834.85,-40.57 843.01,-38.41"/>
<polygon fill="#63b8ff" stroke="#63b8ff" points="329.85,-79.38 320.96,-85.14 331.5,-86.18 329.85,-79.38"/>
</a>
</g>
</g>
<!-- Node19 -->
<g id="Node000019" class="node">
<title>Node19</title>
<g id="a_Node000019"><a xlink:href="InviteCommand_8cpp.html" target="_top" xlink:title=" ">
<polygon fill="white" stroke="#666666" points="335.88,-38 202.88,-38 202.88,-6 335.88,-6 335.88,-38"/>
<text text-anchor="start" x="210.88" y="-24.5" font-family="Helvetica,sans-Serif" font-size="10.00">src/bot_library/commands</text>
<text text-anchor="middle" x="269.38" y="-12.5" font-family="Helvetica,sans-Serif" font-size="10.00">/invite/InviteCommand.cpp</text>
</a>
</g>
</g>
<!-- Node18&#45;&gt;Node19 -->
<g id="edge23_Node000018_Node000019" class="edge">
<title>Node18&#45;&gt;Node19</title>
<g id="a_edge23_Node000018_Node000019"><a xlink:title=" ">
<path fill="none" stroke="#63b8ff" d="M269.38,-74.37C269.38,-62.37 269.38,-48.63 269.38,-38.38"/>
<polygon fill="#63b8ff" stroke="#63b8ff" points="265.88,-74.08 269.38,-84.08 272.88,-74.08 265.88,-74.08"/>
</a>
</g>
</g>
<!-- Node20&#45;&gt;Node8 -->
<g id="edge25_Node000020_Node000008" class="edge">
<title>Node20&#45;&gt;Node8</title>
<g id="a_edge25_Node000020_Node000008"><a xlink:title=" ">
<path fill="none" stroke="#63b8ff" d="M479.45,-82.81C483.81,-81.78 488.15,-80.83 492.38,-80 635.43,-52.01 675.37,-72.25 818.38,-44 826.01,-42.49 834,-40.56 841.78,-38.49"/>
<polygon fill="#63b8ff" stroke="#63b8ff" points="478.97,-79.32 470.13,-85.15 480.68,-86.11 478.97,-79.32"/>
</a>
</g>
</g>
<!-- Node21 -->
<g id="Node000021" class="node">
<title>Node21</title>
<g id="a_Node000021"><a xlink:href="PongCommand_8cpp.html" target="_top" xlink:title=" ">
<polygon fill="white" stroke="#666666" points="483,-38 353.75,-38 353.75,-6 483,-6 483,-38"/>
<text text-anchor="start" x="361.75" y="-24.5" font-family="Helvetica,sans-Serif" font-size="10.00">src/bot_library/commands</text>
<text text-anchor="middle" x="418.38" y="-12.5" font-family="Helvetica,sans-Serif" font-size="10.00">/pong/PongCommand.cpp</text>
</a>
</g>
</g>
<!-- Node20&#45;&gt;Node21 -->
<g id="edge26_Node000020_Node000021" class="edge">
<title>Node20&#45;&gt;Node21</title>
<g id="a_edge26_Node000020_Node000021"><a xlink:title=" ">
<path fill="none" stroke="#63b8ff" d="M418.38,-74.37C418.38,-62.37 418.38,-48.63 418.38,-38.38"/>
<polygon fill="#63b8ff" stroke="#63b8ff" points="414.88,-74.08 418.38,-84.08 421.88,-74.08 414.88,-74.08"/>
</a>
</g>
</g>
<!-- Node22&#45;&gt;Node8 -->
<g id="edge28_Node000022_Node000008" class="edge">
<title>Node22&#45;&gt;Node8</title>
<g id="a_edge28_Node000022_Node000008"><a xlink:title=" ">
<path fill="none" stroke="#63b8ff" d="M1240.24,-83.29C1234.54,-82.12 1228.87,-81.01 1223.38,-80 1109.5,-59.1 1078.67,-67.86 965.38,-44 957.93,-42.43 950.13,-40.52 942.5,-38.5"/>
<polygon fill="#63b8ff" stroke="#63b8ff" points="1239.19,-86.65 1249.7,-85.29 1240.64,-79.8 1239.19,-86.65"/>
</a>
</g>
</g>
<!-- Node22&#45;&gt;Node23 -->
<g id="edge29_Node000022_Node000023" class="edge">
<title>Node22&#45;&gt;Node23</title>
<g id="a_edge29_Node000022_Node000023"><a xlink:title=" ">
<path fill="none" stroke="#63b8ff" d="M1377.3,-82.28C1421.72,-68.85 1480.84,-50.98 1522.51,-38.38"/>
<polygon fill="#63b8ff" stroke="#63b8ff" points="1376.36,-78.91 1367.8,-85.15 1378.38,-85.61 1376.36,-78.91"/>
</a>
</g>
</g>
<!-- Node24&#45;&gt;Node8 -->
<g id="edge31_Node000024_Node000008" class="edge">
<title>Node24&#45;&gt;Node8</title>
<g id="a_edge31_Node000024_Node000008"><a xlink:title=" ">
<path fill="none" stroke="#63b8ff" d="M1427.3,-83.35C1420.58,-82.11 1413.87,-80.96 1407.38,-80 1212.41,-51.09 1159.32,-79.07 965.38,-44 957.36,-42.55 948.96,-40.6 940.82,-38.47"/>
<polygon fill="#63b8ff" stroke="#63b8ff" points="1426.62,-86.78 1437.1,-85.25 1427.94,-79.91 1426.62,-86.78"/>
</a>
</g>
</g>
<!-- Node24&#45;&gt;Node25 -->
<g id="edge32_Node000024_Node000025" class="edge">
<title>Node24&#45;&gt;Node25</title>
<g id="a_edge32_Node000024_Node000025"><a xlink:title=" ">
<path fill="none" stroke="#63b8ff" d="M1566.3,-82.28C1610.72,-68.85 1669.84,-50.98 1711.51,-38.38"/>
<polygon fill="#63b8ff" stroke="#63b8ff" points="1565.36,-78.91 1556.8,-85.15 1567.38,-85.61 1565.36,-78.91"/>
</a>
</g>
</g>
<!-- Node26&#45;&gt;Node8 -->
<g id="edge34_Node000026_Node000008" class="edge">
<title>Node26&#45;&gt;Node8</title>
<g id="a_edge34_Node000026_Node000008"><a xlink:title=" ">
<path fill="none" stroke="#63b8ff" d="M657.34,-82.91C720.56,-67.82 802.67,-48.15 818.38,-44 825.01,-42.25 831.95,-40.34 838.82,-38.42"/>
<polygon fill="#63b8ff" stroke="#63b8ff" points="656.56,-79.49 647.65,-85.22 658.19,-86.3 656.56,-79.49"/>
</a>
</g>
</g>
<!-- Node27 -->
<g id="Node000027" class="node">
<title>Node27</title>
<g id="a_Node000027"><a xlink:href="ServerDetails_8cpp.html" target="_top" xlink:title=" ">
<polygon fill="white" stroke="#666666" points="661.75,-38 501,-38 501,-6 661.75,-6 661.75,-38"/>
<text text-anchor="start" x="509" y="-24.5" font-family="Helvetica,sans-Serif" font-size="10.00">src/bot_library/commands</text>
<text text-anchor="middle" x="581.38" y="-12.5" font-family="Helvetica,sans-Serif" font-size="10.00">/server_details/ServerDetails.cpp</text>
</a>
</g>
</g>
<!-- Node26&#45;&gt;Node27 -->
<g id="edge35_Node000026_Node000027" class="edge">
<title>Node26&#45;&gt;Node27</title>
<g id="a_edge35_Node000026_Node000027"><a xlink:title=" ">
<path fill="none" stroke="#63b8ff" d="M581.38,-74.37C581.38,-62.37 581.38,-48.63 581.38,-38.38"/>
<polygon fill="#63b8ff" stroke="#63b8ff" points="577.88,-74.08 581.38,-84.08 584.88,-74.08 577.88,-74.08"/>
</a>
</g>
</g>
<!-- Node28&#45;&gt;Node29 -->
<g id="edge37_Node000028_Node000029" class="edge">
<title>Node28&#45;&gt;Node29</title>
<g id="a_edge37_Node000028_Node000029"><a xlink:title=" ">
<path fill="none" stroke="#63b8ff" d="M2219.46,-75.24C2243.96,-65.23 2271.69,-53.91 2295.05,-44.37"/>
<polygon fill="#63b8ff" stroke="#63b8ff" points="2218.15,-71.99 2210.22,-79.01 2220.8,-78.47 2218.15,-71.99"/>
</a>
</g>
</g>
<!-- Node30&#45;&gt;Node31 -->
<g id="edge39_Node000030_Node000031" class="edge">
<title>Node30&#45;&gt;Node31</title>
<g id="a_edge39_Node000030_Node000031"><a xlink:title=" ">
<path fill="none" stroke="#63b8ff" d="M2416.28,-80.55C2442.69,-67.34 2476.49,-50.44 2500.62,-38.38"/>
<polygon fill="#63b8ff" stroke="#63b8ff" points="2414.93,-77.31 2407.55,-84.91 2418.06,-83.57 2414.93,-77.31"/>
</a>
</g>
</g>
<!-- Node32&#45;&gt;Node8 -->
<g id="edge41_Node000032_Node000008" class="edge">
<title>Node32&#45;&gt;Node8</title>
<g id="a_edge41_Node000032_Node000008"><a xlink:title=" ">
<path fill="none" stroke="#63b8ff" d="M783.58,-80.2C808.37,-67.04 839.86,-50.33 862.39,-38.38"/>
<polygon fill="#63b8ff" stroke="#63b8ff" points="781.95,-77.1 774.75,-84.88 785.23,-83.28 781.95,-77.1"/>
</a>
</g>
</g>
<!-- Node33 -->
<g id="Node000033" class="node">
<title>Node33</title>
<g id="a_Node000033"><a xlink:href="SetStatus_8cpp.html" target="_top" xlink:title=" ">
<polygon fill="white" stroke="#666666" points="809.38,-38 679.38,-38 679.38,-6 809.38,-6 809.38,-38"/>
<text text-anchor="start" x="687.38" y="-24.5" font-family="Helvetica,sans-Serif" font-size="10.00">src/bot_library/commands</text>
<text text-anchor="middle" x="744.38" y="-12.5" font-family="Helvetica,sans-Serif" font-size="10.00">/set_status/SetStatus.cpp</text>
</a>
</g>
</g>
<!-- Node32&#45;&gt;Node33 -->
<g id="edge42_Node000032_Node000033" class="edge">
<title>Node32&#45;&gt;Node33</title>
<g id="a_edge42_Node000032_Node000033"><a xlink:title=" ">
<path fill="none" stroke="#63b8ff" d="M744.38,-74.37C744.38,-62.37 744.38,-48.63 744.38,-38.38"/>
<polygon fill="#63b8ff" stroke="#63b8ff" points="740.88,-74.08 744.38,-84.08 747.88,-74.08 740.88,-74.08"/>
</a>
</g>
</g>
</g>
</svg>
