<?xml version="1.0" encoding="UTF-8" standalone="no"?>
<!DOCTYPE svg PUBLIC "-//W3C//DTD SVG 1.1//EN"
 "http://www.w3.org/Graphics/SVG/1.1/DTD/svg11.dtd">
<!-- Generated by graphviz version 12.1.2 (0)
 -->
<!-- Title: src/bot_library/bot/core/interfaces/include/IRepository.hpp Pages: 1 -->
<svg width="3971pt" height="212pt"
 viewBox="0.00 0.00 3970.62 212.00" xmlns="http://www.w3.org/2000/svg" xmlns:xlink="http://www.w3.org/1999/xlink">
<g id="graph0" class="graph" transform="scale(1 1) rotate(0) translate(4 208)">
<title>src/bot_library/bot/core/interfaces/include/IRepository.hpp</title>
<!-- Node1 -->
<g id="Node000001" class="node">
<title>Node1</title>
<g id="a_Node000001"><a xlink:title=" ">
<polygon fill="#999999" stroke="#666666" points="2458.62,-204 2341.38,-204 2341.38,-160 2458.62,-160 2458.62,-204"/>
<text text-anchor="start" x="2349.38" y="-190.5" font-family="Helvetica,sans-Serif" font-size="10.00">src/bot_library/bot</text>
<text text-anchor="start" x="2349.38" y="-178.5" font-family="Helvetica,sans-Serif" font-size="10.00">/core/interfaces/include</text>
<text text-anchor="middle" x="2400" y="-166.5" font-family="Helvetica,sans-Serif" font-size="10.00">/IRepository.hpp</text>
</a>
</g>
</g>
<!-- Node2 -->
<g id="Node000002" class="node">
<title>Node2</title>
<g id="a_Node000002"><a xlink:href="ChallengeBadgeRepository_8hpp.html" target="_top" xlink:title=" ">
<polygon fill="white" stroke="#666666" points="475,-124 309,-124 309,-80 475,-80 475,-124"/>
<text text-anchor="start" x="317" y="-110.5" font-family="Helvetica,sans-Serif" font-size="10.00">src/bot_library/commands</text>
<text text-anchor="start" x="317" y="-98.5" font-family="Helvetica,sans-Serif" font-size="10.00">/challenge_badge/ChallengeBadge</text>
<text text-anchor="middle" x="392" y="-86.5" font-family="Helvetica,sans-Serif" font-size="10.00">Repository.hpp</text>
</a>
</g>
</g>
<!-- Node1&#45;&gt;Node2 -->
<g id="edge1_Node000001_Node000002" class="edge">
<title>Node1&#45;&gt;Node2</title>
<g id="a_edge1_Node000001_Node000002"><a xlink:title=" ">
<path fill="none" stroke="#63b8ff" d="M2330.04,-181.12C2086.08,-181.07 1250.41,-176.76 563,-124 534.37,-121.8 503.17,-118.3 475.34,-114.78"/>
<polygon fill="#63b8ff" stroke="#63b8ff" points="2329.69,-184.62 2339.69,-181.12 2329.69,-177.62 2329.69,-184.62"/>
</a>
</g>
</g>
<!-- Node6 -->
<g id="Node000006" class="node">
<title>Node6</title>
<g id="a_Node000006"><a xlink:href="UserRepository_8hpp.html" target="_top" xlink:title=" ">
<polygon fill="white" stroke="#666666" points="753.5,-118 572.5,-118 572.5,-86 753.5,-86 753.5,-118"/>
<text text-anchor="start" x="580.5" y="-104.5" font-family="Helvetica,sans-Serif" font-size="10.00">src/bot_library/commands</text>
<text text-anchor="middle" x="663" y="-92.5" font-family="Helvetica,sans-Serif" font-size="10.00">/challenge_badge/UserRepository.hpp</text>
</a>
</g>
</g>
<!-- Node1&#45;&gt;Node6 -->
<g id="edge5_Node000001_Node000006" class="edge">
<title>Node1&#45;&gt;Node6</title>
<g id="a_edge5_Node000001_Node000006"><a xlink:title=" ">
<path fill="none" stroke="#63b8ff" d="M2329.61,-177.84C2055.65,-165.54 1060.67,-120.86 753.77,-107.08"/>
<polygon fill="#63b8ff" stroke="#63b8ff" points="2329.3,-181.33 2339.45,-178.28 2329.62,-174.34 2329.3,-181.33"/>
</a>
</g>
</g>
<!-- Node10 -->
<g id="Node000010" class="node">
<title>Node10</title>
<g id="a_Node000010"><a xlink:href="ChallengeRoleRepository_8hpp.html" target="_top" xlink:title=" ">
<polygon fill="white" stroke="#666666" points="1534.62,-118 1321.38,-118 1321.38,-86 1534.62,-86 1534.62,-118"/>
<text text-anchor="start" x="1329.38" y="-104.5" font-family="Helvetica,sans-Serif" font-size="10.00">src/bot_library/commands</text>
<text text-anchor="middle" x="1428" y="-92.5" font-family="Helvetica,sans-Serif" font-size="10.00">/challenge_role/ChallengeRoleRepository.hpp</text>
</a>
</g>
</g>
<!-- Node1&#45;&gt;Node10 -->
<g id="edge11_Node000001_Node000010" class="edge">
<title>Node1&#45;&gt;Node10</title>
<g id="a_edge11_Node000001_Node000010"><a xlink:title=" ">
<path fill="none" stroke="#63b8ff" d="M2329.6,-175.35C2161.39,-161.85 1735.26,-127.66 1535.03,-111.59"/>
<polygon fill="#63b8ff" stroke="#63b8ff" points="2329.27,-178.84 2339.51,-176.15 2329.83,-171.86 2329.27,-178.84"/>
</a>
</g>
</g>
<!-- Node14 -->
<g id="Node000014" class="node">
<title>Node14</title>
<g id="a_Node000014"><a xlink:href="BlacklistRepository_8hpp.html" target="_top" xlink:title=" ">
<polygon fill="white" stroke="#666666" points="2378.38,-124 2241.62,-124 2241.62,-80 2378.38,-80 2378.38,-124"/>
<text text-anchor="start" x="2249.62" y="-110.5" font-family="Helvetica,sans-Serif" font-size="10.00">src/bot_library/commands</text>
<text text-anchor="start" x="2249.62" y="-98.5" font-family="Helvetica,sans-Serif" font-size="10.00">/portal/repositories/Blacklist</text>
<text text-anchor="middle" x="2310" y="-86.5" font-family="Helvetica,sans-Serif" font-size="10.00">Repository.hpp</text>
</a>
</g>
</g>
<!-- Node1&#45;&gt;Node14 -->
<g id="edge15_Node000001_Node000014" class="edge">
<title>Node1&#45;&gt;Node14</title>
<g id="a_edge15_Node000001_Node000014"><a xlink:title=" ">
<path fill="none" stroke="#63b8ff" d="M2366.74,-152.17C2356.08,-142.94 2344.48,-132.88 2334.56,-124.29"/>
<polygon fill="#63b8ff" stroke="#63b8ff" points="2364.41,-154.79 2374.26,-158.69 2369,-149.5 2364.41,-154.79"/>
</a>
</g>
</g>
<!-- Node18 -->
<g id="Node000018" class="node">
<title>Node18</title>
<g id="a_Node000018"><a xlink:href="PortalRepository_8hpp.html" target="_top" xlink:title=" ">
<polygon fill="white" stroke="#666666" points="2666,-118 2476,-118 2476,-86 2666,-86 2666,-118"/>
<text text-anchor="start" x="2484" y="-104.5" font-family="Helvetica,sans-Serif" font-size="10.00">src/bot_library/commands</text>
<text text-anchor="middle" x="2571" y="-92.5" font-family="Helvetica,sans-Serif" font-size="10.00">/portal/repositories/PortalRepository.hpp</text>
</a>
</g>
</g>
<!-- Node1&#45;&gt;Node18 -->
<g id="edge19_Node000001_Node000018" class="edge">
<title>Node1&#45;&gt;Node18</title>
<g id="a_edge19_Node000001_Node000018"><a xlink:title=" ">
<path fill="none" stroke="#63b8ff" d="M2457.05,-154.98C2483.58,-142.87 2514.25,-128.89 2537.08,-118.47"/>
<polygon fill="#63b8ff" stroke="#63b8ff" points="2455.75,-151.72 2448.1,-159.06 2458.65,-158.09 2455.75,-151.72"/>
</a>
</g>
</g>
<!-- Node21 -->
<g id="Node000021" class="node">
<title>Node21</title>
<g id="a_Node000021"><a xlink:href="ReactionRoleRepository_8hpp.html" target="_top" xlink:title=" ">
<polygon fill="white" stroke="#666666" points="1935.62,-118 1728.38,-118 1728.38,-86 1935.62,-86 1935.62,-118"/>
<text text-anchor="start" x="1736.38" y="-104.5" font-family="Helvetica,sans-Serif" font-size="10.00">src/bot_library/commands</text>
<text text-anchor="middle" x="1832" y="-92.5" font-family="Helvetica,sans-Serif" font-size="10.00">/reaction_roles/ReactionRoleRepository.hpp</text>
</a>
</g>
</g>
<!-- Node1&#45;&gt;Node21 -->
<g id="edge23_Node000001_Node000021" class="edge">
<title>Node1&#45;&gt;Node21</title>
<g id="a_edge23_Node000001_Node000021"><a xlink:title=" ">
<path fill="none" stroke="#63b8ff" d="M2329.75,-171.35C2230.97,-157.79 2050.35,-132.98 1935.98,-117.28"/>
<polygon fill="#63b8ff" stroke="#63b8ff" points="2329.2,-174.81 2339.59,-172.7 2330.16,-167.88 2329.2,-174.81"/>
</a>
</g>
</g>
<!-- Node24 -->
<g id="Node000024" class="node">
<title>Node24</title>
<g id="a_Node000024"><a xlink:href="ResourceRepository_8hpp.html" target="_top" xlink:title=" ">
<polygon fill="white" stroke="#666666" points="3075.25,-124 2946.75,-124 2946.75,-80 3075.25,-80 3075.25,-124"/>
<text text-anchor="start" x="2954.75" y="-110.5" font-family="Helvetica,sans-Serif" font-size="10.00">src/bot_library/commands</text>
<text text-anchor="start" x="2954.75" y="-98.5" font-family="Helvetica,sans-Serif" font-size="10.00">/resources/repositories</text>
<text text-anchor="middle" x="3011" y="-86.5" font-family="Helvetica,sans-Serif" font-size="10.00">/ResourceRepository.hpp</text>
</a>
</g>
</g>
<!-- Node1&#45;&gt;Node24 -->
<g id="edge27_Node000001_Node000024" class="edge">
<title>Node1&#45;&gt;Node24</title>
<g id="a_edge27_Node000001_Node000024"><a xlink:title=" ">
<path fill="none" stroke="#63b8ff" d="M2470.03,-172.06C2589.4,-156.82 2830.6,-126.03 2946.26,-111.26"/>
<polygon fill="#63b8ff" stroke="#63b8ff" points="2469.84,-168.56 2460.36,-173.29 2470.73,-175.5 2469.84,-168.56"/>
</a>
</g>
</g>
<!-- Node27 -->
<g id="Node000027" class="node">
<title>Node27</title>
<g id="a_Node000027"><a xlink:href="GoodbyeChannelRepository_8hpp.html" target="_top" xlink:title=" ">
<polygon fill="white" stroke="#666666" points="3761.62,-124 3602.38,-124 3602.38,-80 3761.62,-80 3761.62,-124"/>
<text text-anchor="start" x="3610.38" y="-110.5" font-family="Helvetica,sans-Serif" font-size="10.00">src/bot_library/commands</text>
<text text-anchor="start" x="3610.38" y="-98.5" font-family="Helvetica,sans-Serif" font-size="10.00">/set_channel/repositories</text>
<text text-anchor="middle" x="3682" y="-86.5" font-family="Helvetica,sans-Serif" font-size="10.00">/GoodbyeChannelRepository.hpp</text>
</a>
</g>
</g>
<!-- Node1&#45;&gt;Node27 -->
<g id="edge30_Node000001_Node000027" class="edge">
<title>Node1&#45;&gt;Node27</title>
<g id="a_edge30_Node000001_Node000027"><a xlink:title=" ">
<path fill="none" stroke="#63b8ff" d="M2470.58,-179.33C2692.47,-173.83 3374.13,-154.78 3593,-124 3595.99,-123.58 3599.02,-123.11 3602.08,-122.59"/>
<polygon fill="#63b8ff" stroke="#63b8ff" points="2470.54,-175.83 2460.63,-179.58 2470.71,-182.83 2470.54,-175.83"/>
</a>
</g>
</g>
<!-- Node30 -->
<g id="Node000030" class="node">
<title>Node30</title>
<g id="a_Node000030"><a xlink:href="LogChannelRepository_8hpp.html" target="_top" xlink:title=" ">
<polygon fill="white" stroke="#666666" points="3399,-124 3263,-124 3263,-80 3399,-80 3399,-124"/>
<text text-anchor="start" x="3271" y="-110.5" font-family="Helvetica,sans-Serif" font-size="10.00">src/bot_library/commands</text>
<text text-anchor="start" x="3271" y="-98.5" font-family="Helvetica,sans-Serif" font-size="10.00">/set_channel/repositories</text>
<text text-anchor="middle" x="3331" y="-86.5" font-family="Helvetica,sans-Serif" font-size="10.00">/LogChannelRepository.hpp</text>
</a>
</g>
</g>
<!-- Node1&#45;&gt;Node30 -->
<g id="edge33_Node000001_Node000030" class="edge">
<title>Node1&#45;&gt;Node30</title>
<g id="a_edge33_Node000001_Node000030"><a xlink:title=" ">
<path fill="none" stroke="#63b8ff" d="M2470.2,-175.19C2594.12,-164.92 2859.75,-142.88 3084,-124 3144.36,-118.92 3213.01,-113.08 3262.59,-108.85"/>
<polygon fill="#63b8ff" stroke="#63b8ff" points="2470.2,-171.68 2460.52,-175.99 2470.78,-178.65 2470.2,-171.68"/>
</a>
</g>
</g>
<!-- Node32 -->
<g id="Node000032" class="node">
<title>Node32</title>
<g id="a_Node000032"><a xlink:href="WelcomeChannelRepository_8hpp.html" target="_top" xlink:title=" ">
<polygon fill="white" stroke="#666666" points="3584.38,-124 3423.62,-124 3423.62,-80 3584.38,-80 3584.38,-124"/>
<text text-anchor="start" x="3431.62" y="-110.5" font-family="Helvetica,sans-Serif" font-size="10.00">src/bot_library/commands</text>
<text text-anchor="start" x="3431.62" y="-98.5" font-family="Helvetica,sans-Serif" font-size="10.00">/set_channel/repositories</text>
<text text-anchor="middle" x="3504" y="-86.5" font-family="Helvetica,sans-Serif" font-size="10.00">/WelcomeChannelRepository.hpp</text>
</a>
</g>
</g>
<!-- Node1&#45;&gt;Node32 -->
<g id="edge36_Node000001_Node000032" class="edge">
<title>Node1&#45;&gt;Node32</title>
<g id="a_edge36_Node000001_Node000032"><a xlink:title=" ">
<path fill="none" stroke="#63b8ff" d="M2470.53,-180.85C2635.37,-179.68 3058.43,-171.81 3408,-124 3412.99,-123.32 3418.1,-122.51 3423.24,-121.63"/>
<polygon fill="#63b8ff" stroke="#63b8ff" points="2470.6,-177.35 2460.62,-180.92 2470.65,-184.35 2470.6,-177.35"/>
</a>
</g>
</g>
<!-- Node3 -->
<g id="Node000003" class="node">
<title>Node3</title>
<g id="a_Node000003"><a xlink:href="ChallengeBadgeCommand_8cpp.html" target="_top" xlink:title=" ">
<polygon fill="white" stroke="#666666" points="350,-44 184,-44 184,0 350,0 350,-44"/>
<text text-anchor="start" x="192" y="-30.5" font-family="Helvetica,sans-Serif" font-size="10.00">src/bot_library/commands</text>
<text text-anchor="start" x="192" y="-18.5" font-family="Helvetica,sans-Serif" font-size="10.00">/challenge_badge/ChallengeBadge</text>
<text text-anchor="middle" x="267" y="-6.5" font-family="Helvetica,sans-Serif" font-size="10.00">Command.cpp</text>
</a>
</g>
</g>
<!-- Node2&#45;&gt;Node3 -->
<g id="edge2_Node000002_Node000003" class="edge">
<title>Node2&#45;&gt;Node3</title>
<g id="a_edge2_Node000002_Node000003"><a xlink:title=" ">
<path fill="none" stroke="#63b8ff" d="M348.45,-73.82C332.94,-64.15 315.72,-53.4 301.12,-44.29"/>
<polygon fill="#63b8ff" stroke="#63b8ff" points="346.22,-76.56 356.56,-78.88 349.93,-70.62 346.22,-76.56"/>
</a>
</g>
</g>
<!-- Node4 -->
<g id="Node000004" class="node">
<title>Node4</title>
<g id="a_Node000004"><a xlink:href="ChallengeBadgeRepository_8cpp.html" target="_top" xlink:title=" ">
<polygon fill="white" stroke="#666666" points="166,-44 0,-44 0,0 166,0 166,-44"/>
<text text-anchor="start" x="8" y="-30.5" font-family="Helvetica,sans-Serif" font-size="10.00">src/bot_library/commands</text>
<text text-anchor="start" x="8" y="-18.5" font-family="Helvetica,sans-Serif" font-size="10.00">/challenge_badge/ChallengeBadge</text>
<text text-anchor="middle" x="83" y="-6.5" font-family="Helvetica,sans-Serif" font-size="10.00">Repository.cpp</text>
</a>
</g>
</g>
<!-- Node2&#45;&gt;Node4 -->
<g id="edge3_Node000002_Node000004" class="edge">
<title>Node2&#45;&gt;Node4</title>
<g id="a_edge3_Node000002_Node000004"><a xlink:title=" ">
<path fill="none" stroke="#63b8ff" d="M297.73,-77.2C255.83,-66.63 206.91,-54.28 166.36,-44.04"/>
<polygon fill="#63b8ff" stroke="#63b8ff" points="296.77,-80.57 307.32,-79.62 298.48,-73.78 296.77,-80.57"/>
</a>
</g>
</g>
<!-- Node5 -->
<g id="Node000005" class="node">
<title>Node5</title>
<g id="a_Node000005"><a xlink:href="ProfileCommand_8cpp.html" target="_top" xlink:title=" ">
<polygon fill="white" stroke="#666666" points="507.88,-38 368.12,-38 368.12,-6 507.88,-6 507.88,-38"/>
<text text-anchor="start" x="376.12" y="-24.5" font-family="Helvetica,sans-Serif" font-size="10.00">src/bot_library/commands</text>
<text text-anchor="middle" x="438" y="-12.5" font-family="Helvetica,sans-Serif" font-size="10.00">/profile/ProfileCommand.cpp</text>
</a>
</g>
</g>
<!-- Node2&#45;&gt;Node5 -->
<g id="edge4_Node000002_Node000005" class="edge">
<title>Node2&#45;&gt;Node5</title>
<g id="a_edge4_Node000002_Node000005"><a xlink:title=" ">
<path fill="none" stroke="#63b8ff" d="M410.3,-69.97C416.77,-59 423.75,-47.16 429.09,-38.11"/>
<polygon fill="#63b8ff" stroke="#63b8ff" points="407.4,-67.99 405.34,-78.38 413.43,-71.55 407.4,-67.99"/>
</a>
</g>
</g>
<!-- Node6&#45;&gt;Node3 -->
<g id="edge6_Node000006_Node000003" class="edge">
<title>Node6&#45;&gt;Node3</title>
<g id="a_edge6_Node000006_Node000003"><a xlink:title=" ">
<path fill="none" stroke="#63b8ff" d="M564.07,-83.46C504.53,-72.65 427.28,-58.19 359,-44 356.11,-43.4 353.18,-42.78 350.21,-42.15"/>
<polygon fill="#63b8ff" stroke="#63b8ff" points="563.4,-86.89 573.86,-85.23 564.65,-80.01 563.4,-86.89"/>
</a>
</g>
</g>
<!-- Node6&#45;&gt;Node5 -->
<g id="edge9_Node000006_Node000005" class="edge">
<title>Node6&#45;&gt;Node5</title>
<g id="a_edge9_Node000006_Node000005"><a xlink:title=" ">
<path fill="none" stroke="#63b8ff" d="M608,-81.93C569.38,-68.55 518.39,-50.87 482.36,-38.38"/>
<polygon fill="#63b8ff" stroke="#63b8ff" points="606.52,-85.13 617.12,-85.09 608.82,-78.51 606.52,-85.13"/>
</a>
</g>
</g>
<!-- Node7 -->
<g id="Node000007" class="node">
<title>Node7</title>
<g id="a_Node000007"><a xlink:href="UserRepository_8cpp.html" target="_top" xlink:title=" ">
<polygon fill="white" stroke="#666666" points="706.5,-38 525.5,-38 525.5,-6 706.5,-6 706.5,-38"/>
<text text-anchor="start" x="533.5" y="-24.5" font-family="Helvetica,sans-Serif" font-size="10.00">src/bot_library/commands</text>
<text text-anchor="middle" x="616" y="-12.5" font-family="Helvetica,sans-Serif" font-size="10.00">/challenge_badge/UserRepository.cpp</text>
</a>
</g>
</g>
<!-- Node6&#45;&gt;Node7 -->
<g id="edge7_Node000006_Node000007" class="edge">
<title>Node6&#45;&gt;Node7</title>
<g id="a_edge7_Node000006_Node000007"><a xlink:title=" ">
<path fill="none" stroke="#63b8ff" d="M647.85,-75.86C640.41,-63.52 631.7,-49.05 625.27,-38.38"/>
<polygon fill="#63b8ff" stroke="#63b8ff" points="644.77,-77.53 652.93,-84.29 650.77,-73.92 644.77,-77.53"/>
</a>
</g>
</g>
<!-- Node8 -->
<g id="Node000008" class="node">
<title>Node8</title>
<g id="a_Node000008"><a xlink:href="FlipCommand_8cpp.html" target="_top" xlink:title=" ">
<polygon fill="white" stroke="#666666" points="853.25,-38 724.75,-38 724.75,-6 853.25,-6 853.25,-38"/>
<text text-anchor="start" x="732.75" y="-24.5" font-family="Helvetica,sans-Serif" font-size="10.00">src/bot_library/commands</text>
<text text-anchor="middle" x="789" y="-12.5" font-family="Helvetica,sans-Serif" font-size="10.00">/flip/FlipCommand.cpp</text>
</a>
</g>
</g>
<!-- Node6&#45;&gt;Node8 -->
<g id="edge8_Node000006_Node000008" class="edge">
<title>Node6&#45;&gt;Node8</title>
<g id="a_edge8_Node000006_Node000008"><a xlink:title=" ">
<path fill="none" stroke="#63b8ff" d="M697.46,-79.67C718.57,-66.6 745.1,-50.17 764.16,-38.38"/>
<polygon fill="#63b8ff" stroke="#63b8ff" points="695.84,-76.55 689.18,-84.79 699.53,-82.51 695.84,-76.55"/>
</a>
</g>
</g>
<!-- Node9 -->
<g id="Node000009" class="node">
<title>Node9</title>
<g id="a_Node000009"><a xlink:href="RollCommand_8cpp.html" target="_top" xlink:title=" ">
<polygon fill="white" stroke="#666666" points="1000.25,-38 871.75,-38 871.75,-6 1000.25,-6 1000.25,-38"/>
<text text-anchor="start" x="879.75" y="-24.5" font-family="Helvetica,sans-Serif" font-size="10.00">src/bot_library/commands</text>
<text text-anchor="middle" x="936" y="-12.5" font-family="Helvetica,sans-Serif" font-size="10.00">/roll/RollCommand.cpp</text>
</a>
</g>
</g>
<!-- Node6&#45;&gt;Node9 -->
<g id="edge10_Node000006_Node000009" class="edge">
<title>Node6&#45;&gt;Node9</title>
<g id="a_edge10_Node000006_Node000009"><a xlink:title=" ">
<path fill="none" stroke="#63b8ff" d="M727.93,-82.45C775,-69 837.9,-51.03 882.18,-38.38"/>
<polygon fill="#63b8ff" stroke="#63b8ff" points="727.05,-79.06 718.39,-85.17 728.97,-85.79 727.05,-79.06"/>
</a>
</g>
</g>
<!-- Node11 -->
<g id="Node000011" class="node">
<title>Node11</title>
<g id="a_Node000011"><a xlink:href="ChallengeRoleCommand_8cpp.html" target="_top" xlink:title=" ">
<polygon fill="white" stroke="#666666" points="1229.88,-38 1018.12,-38 1018.12,-6 1229.88,-6 1229.88,-38"/>
<text text-anchor="start" x="1026.12" y="-24.5" font-family="Helvetica,sans-Serif" font-size="10.00">src/bot_library/commands</text>
<text text-anchor="middle" x="1124" y="-12.5" font-family="Helvetica,sans-Serif" font-size="10.00">/challenge_role/ChallengeRoleCommand.cpp</text>
</a>
</g>
</g>
<!-- Node10&#45;&gt;Node11 -->
<g id="edge12_Node000010_Node000011" class="edge">
<title>Node10&#45;&gt;Node11</title>
<g id="a_edge12_Node000010_Node000011"><a xlink:title=" ">
<path fill="none" stroke="#63b8ff" d="M1357.03,-82.79C1304.57,-69.33 1233.91,-51.2 1184.2,-38.44"/>
<polygon fill="#63b8ff" stroke="#63b8ff" points="1355.92,-86.12 1366.47,-85.21 1357.66,-79.34 1355.92,-86.12"/>
</a>
</g>
</g>
<!-- Node12 -->
<g id="Node000012" class="node">
<title>Node12</title>
<g id="a_Node000012"><a xlink:href="ChallengeRoleRepository_8cpp.html" target="_top" xlink:title=" ">
<polygon fill="white" stroke="#666666" points="1461.62,-38 1248.38,-38 1248.38,-6 1461.62,-6 1461.62,-38"/>
<text text-anchor="start" x="1256.38" y="-24.5" font-family="Helvetica,sans-Serif" font-size="10.00">src/bot_library/commands</text>
<text text-anchor="middle" x="1355" y="-12.5" font-family="Helvetica,sans-Serif" font-size="10.00">/challenge_role/ChallengeRoleRepository.cpp</text>
</a>
</g>
</g>
<!-- Node10&#45;&gt;Node12 -->
<g id="edge13_Node000010_Node000012" class="edge">
<title>Node10&#45;&gt;Node12</title>
<g id="a_edge13_Node000010_Node000012"><a xlink:title=" ">
<path fill="none" stroke="#63b8ff" d="M1405.84,-77.33C1394.01,-64.68 1379.78,-49.48 1369.39,-38.38"/>
<polygon fill="#63b8ff" stroke="#63b8ff" points="1403.15,-79.58 1412.54,-84.48 1408.27,-74.79 1403.15,-79.58"/>
</a>
</g>
</g>
<!-- Node13 -->
<g id="Node000013" class="node">
<title>Node13</title>
<g id="a_Node000013"><a xlink:href="CleanUp_8cpp.html" target="_top" xlink:title=" ">
<polygon fill="white" stroke="#666666" points="1608.25,-38 1479.75,-38 1479.75,-6 1608.25,-6 1608.25,-38"/>
<text text-anchor="start" x="1487.75" y="-24.5" font-family="Helvetica,sans-Serif" font-size="10.00">src/bot_library/commands</text>
<text text-anchor="middle" x="1544" y="-12.5" font-family="Helvetica,sans-Serif" font-size="10.00">/clean_up/CleanUp.cpp</text>
</a>
</g>
</g>
<!-- Node10&#45;&gt;Node13 -->
<g id="edge14_Node000010_Node000013" class="edge">
<title>Node10&#45;&gt;Node13</title>
<g id="a_edge14_Node000010_Node000013"><a xlink:title=" ">
<path fill="none" stroke="#63b8ff" d="M1460.26,-79.31C1479.6,-66.3 1503.74,-50.07 1521.13,-38.38"/>
<polygon fill="#63b8ff" stroke="#63b8ff" points="1458.52,-76.26 1452.17,-84.75 1462.43,-82.07 1458.52,-76.26"/>
</a>
</g>
</g>
<!-- Node15 -->
<g id="Node000015" class="node">
<title>Node15</title>
<g id="a_Node000015"><a xlink:href="BlacklistCommand_8cpp.html" target="_top" xlink:title=" ">
<polygon fill="white" stroke="#666666" points="2183.62,-38 2036.38,-38 2036.38,-6 2183.62,-6 2183.62,-38"/>
<text text-anchor="start" x="2044.38" y="-24.5" font-family="Helvetica,sans-Serif" font-size="10.00">src/bot_library/commands</text>
<text text-anchor="middle" x="2110" y="-12.5" font-family="Helvetica,sans-Serif" font-size="10.00">/portal/BlacklistCommand.cpp</text>
</a>
</g>
</g>
<!-- Node14&#45;&gt;Node15 -->
<g id="edge16_Node000014_Node000015" class="edge">
<title>Node14&#45;&gt;Node15</title>
<g id="a_edge16_Node000014_Node000015"><a xlink:title=" ">
<path fill="none" stroke="#63b8ff" d="M2244.66,-75.52C2213.27,-63.28 2176.68,-49.01 2149.57,-38.43"/>
<polygon fill="#63b8ff" stroke="#63b8ff" points="2243.09,-78.66 2253.67,-79.03 2245.63,-72.14 2243.09,-78.66"/>
</a>
</g>
</g>
<!-- Node16 -->
<g id="Node000016" class="node">
<title>Node16</title>
<g id="a_Node000016"><a xlink:href="SetPortalCommand_8cpp.html" target="_top" xlink:title=" ">
<polygon fill="white" stroke="#666666" points="2507.12,-38 2356.88,-38 2356.88,-6 2507.12,-6 2507.12,-38"/>
<text text-anchor="start" x="2364.88" y="-24.5" font-family="Helvetica,sans-Serif" font-size="10.00">src/bot_library/commands</text>
<text text-anchor="middle" x="2432" y="-12.5" font-family="Helvetica,sans-Serif" font-size="10.00">/portal/SetPortalCommand.cpp</text>
</a>
</g>
</g>
<!-- Node14&#45;&gt;Node16 -->
<g id="edge17_Node000014_Node000016" class="edge">
<title>Node14&#45;&gt;Node16</title>
<g id="a_edge17_Node000014_Node000016"><a xlink:title=" ">
<path fill="none" stroke="#63b8ff" d="M2353.01,-73.5C2371.47,-61.7 2392.34,-48.36 2407.99,-38.35"/>
<polygon fill="#63b8ff" stroke="#63b8ff" points="2351.15,-70.54 2344.61,-78.87 2354.92,-76.43 2351.15,-70.54"/>
</a>
</g>
</g>
<!-- Node17 -->
<g id="Node000017" class="node">
<title>Node17</title>
<g id="a_Node000017"><a xlink:href="BlacklistRepository_8cpp.html" target="_top" xlink:title=" ">
<polygon fill="white" stroke="#666666" points="2338.38,-44 2201.62,-44 2201.62,0 2338.38,0 2338.38,-44"/>
<text text-anchor="start" x="2209.62" y="-30.5" font-family="Helvetica,sans-Serif" font-size="10.00">src/bot_library/commands</text>
<text text-anchor="start" x="2209.62" y="-18.5" font-family="Helvetica,sans-Serif" font-size="10.00">/portal/repositories/Blacklist</text>
<text text-anchor="middle" x="2270" y="-6.5" font-family="Helvetica,sans-Serif" font-size="10.00">Repository.cpp</text>
</a>
</g>
</g>
<!-- Node14&#45;&gt;Node17 -->
<g id="edge18_Node000014_Node000017" class="edge">
<title>Node14&#45;&gt;Node17</title>
<g id="a_edge18_Node000014_Node000017"><a xlink:title=" ">
<path fill="none" stroke="#63b8ff" d="M2293.93,-69.66C2289.56,-61.14 2284.93,-52.11 2280.92,-44.29"/>
<polygon fill="#63b8ff" stroke="#63b8ff" points="2290.7,-71.04 2298.38,-78.34 2296.93,-67.84 2290.7,-71.04"/>
</a>
</g>
</g>
<!-- Node18&#45;&gt;Node16 -->
<g id="edge21_Node000018_Node000016" class="edge">
<title>Node18&#45;&gt;Node16</title>
<g id="a_edge21_Node000018_Node000016"><a xlink:title=" ">
<path fill="none" stroke="#63b8ff" d="M2533.61,-80.02C2510.22,-66.9 2480.62,-50.28 2459.4,-38.38"/>
<polygon fill="#63b8ff" stroke="#63b8ff" points="2531.78,-83.01 2542.22,-84.85 2535.21,-76.9 2531.78,-83.01"/>
</a>
</g>
</g>
<!-- Node19 -->
<g id="Node000019" class="node">
<title>Node19</title>
<g id="a_Node000019"><a xlink:href="RemovePortalCommand_8cpp.html" target="_top" xlink:title=" ">
<polygon fill="white" stroke="#666666" points="2697,-38 2525,-38 2525,-6 2697,-6 2697,-38"/>
<text text-anchor="start" x="2533" y="-24.5" font-family="Helvetica,sans-Serif" font-size="10.00">src/bot_library/commands</text>
<text text-anchor="middle" x="2611" y="-12.5" font-family="Helvetica,sans-Serif" font-size="10.00">/portal/RemovePortalCommand.cpp</text>
</a>
</g>
</g>
<!-- Node18&#45;&gt;Node19 -->
<g id="edge20_Node000018_Node000019" class="edge">
<title>Node18&#45;&gt;Node19</title>
<g id="a_edge20_Node000018_Node000019"><a xlink:title=" ">
<path fill="none" stroke="#63b8ff" d="M2584.08,-75.49C2590.37,-63.23 2597.69,-48.95 2603.11,-38.38"/>
<polygon fill="#63b8ff" stroke="#63b8ff" points="2581.04,-73.75 2579.59,-84.24 2587.27,-76.94 2581.04,-73.75"/>
</a>
</g>
</g>
<!-- Node20 -->
<g id="Node000020" class="node">
<title>Node20</title>
<g id="a_Node000020"><a xlink:href="PortalRepository_8cpp.html" target="_top" xlink:title=" ">
<polygon fill="white" stroke="#666666" points="2905,-38 2715,-38 2715,-6 2905,-6 2905,-38"/>
<text text-anchor="start" x="2723" y="-24.5" font-family="Helvetica,sans-Serif" font-size="10.00">src/bot_library/commands</text>
<text text-anchor="middle" x="2810" y="-12.5" font-family="Helvetica,sans-Serif" font-size="10.00">/portal/repositories/PortalRepository.cpp</text>
</a>
</g>
</g>
<!-- Node18&#45;&gt;Node20 -->
<g id="edge22_Node000018_Node000020" class="edge">
<title>Node18&#45;&gt;Node20</title>
<g id="a_edge22_Node000018_Node000020"><a xlink:title=" ">
<path fill="none" stroke="#63b8ff" d="M2629.15,-82.02C2670.21,-68.62 2724.53,-50.9 2762.88,-38.38"/>
<polygon fill="#63b8ff" stroke="#63b8ff" points="2628.08,-78.69 2619.66,-85.12 2630.25,-85.34 2628.08,-78.69"/>
</a>
</g>
</g>
<!-- Node21&#45;&gt;Node13 -->
<g id="edge24_Node000021_Node000013" class="edge">
<title>Node21&#45;&gt;Node13</title>
<g id="a_edge24_Node000021_Node000013"><a xlink:title=" ">
<path fill="none" stroke="#63b8ff" d="M1761.63,-82.74C1719.6,-71.74 1665.18,-57.31 1617,-44 1610.64,-42.24 1603.99,-40.37 1597.39,-38.5"/>
<polygon fill="#63b8ff" stroke="#63b8ff" points="1760.57,-86.08 1771.13,-85.22 1762.34,-79.31 1760.57,-86.08"/>
</a>
</g>
</g>
<!-- Node22 -->
<g id="Node000022" class="node">
<title>Node22</title>
<g id="a_Node000022"><a xlink:href="ReactionRoleRepository_8cpp.html" target="_top" xlink:title=" ">
<polygon fill="white" stroke="#666666" points="1833.62,-38 1626.38,-38 1626.38,-6 1833.62,-6 1833.62,-38"/>
<text text-anchor="start" x="1634.38" y="-24.5" font-family="Helvetica,sans-Serif" font-size="10.00">src/bot_library/commands</text>
<text text-anchor="middle" x="1730" y="-12.5" font-family="Helvetica,sans-Serif" font-size="10.00">/reaction_roles/ReactionRoleRepository.cpp</text>
</a>
</g>
</g>
<!-- Node21&#45;&gt;Node22 -->
<g id="edge25_Node000021_Node000022" class="edge">
<title>Node21&#45;&gt;Node22</title>
<g id="a_edge25_Node000021_Node000022"><a xlink:title=" ">
<path fill="none" stroke="#63b8ff" d="M1802.93,-78.77C1786.04,-65.86 1765.19,-49.91 1750.11,-38.38"/>
<polygon fill="#63b8ff" stroke="#63b8ff" points="1800.58,-81.38 1810.65,-84.67 1804.83,-75.82 1800.58,-81.38"/>
</a>
</g>
</g>
<!-- Node23 -->
<g id="Node000023" class="node">
<title>Node23</title>
<g id="a_Node000023"><a xlink:href="ReactionRoles_8cpp.html" target="_top" xlink:title=" ">
<polygon fill="white" stroke="#666666" points="2018,-38 1852,-38 1852,-6 2018,-6 2018,-38"/>
<text text-anchor="start" x="1860" y="-24.5" font-family="Helvetica,sans-Serif" font-size="10.00">src/bot_library/commands</text>
<text text-anchor="middle" x="1935" y="-12.5" font-family="Helvetica,sans-Serif" font-size="10.00">/reaction_roles/ReactionRoles.cpp</text>
</a>
</g>
</g>
<!-- Node21&#45;&gt;Node23 -->
<g id="edge26_Node000021_Node000023" class="edge">
<title>Node21&#45;&gt;Node23</title>
<g id="a_edge26_Node000021_Node000023"><a xlink:title=" ">
<path fill="none" stroke="#63b8ff" d="M1861.35,-78.77C1878.41,-65.86 1899.47,-49.91 1914.69,-38.38"/>
<polygon fill="#63b8ff" stroke="#63b8ff" points="1859.42,-75.85 1853.56,-84.68 1863.64,-81.43 1859.42,-75.85"/>
</a>
</g>
</g>
<!-- Node25 -->
<g id="Node000025" class="node">
<title>Node25</title>
<g id="a_Node000025"><a xlink:href="ResourcesCommand_8cpp.html" target="_top" xlink:title=" ">
<polygon fill="white" stroke="#666666" points="3098.88,-38 2923.12,-38 2923.12,-6 3098.88,-6 3098.88,-38"/>
<text text-anchor="start" x="2931.12" y="-24.5" font-family="Helvetica,sans-Serif" font-size="10.00">src/bot_library/commands</text>
<text text-anchor="middle" x="3011" y="-12.5" font-family="Helvetica,sans-Serif" font-size="10.00">/resources/ResourcesCommand.cpp</text>
</a>
</g>
</g>
<!-- Node24&#45;&gt;Node25 -->
<g id="edge28_Node000024_Node000025" class="edge">
<title>Node24&#45;&gt;Node25</title>
<g id="a_edge28_Node000024_Node000025"><a xlink:title=" ">
<path fill="none" stroke="#63b8ff" d="M3011,-68.28C3011,-57.8 3011,-46.7 3011,-38.11"/>
<polygon fill="#63b8ff" stroke="#63b8ff" points="3007.5,-68.17 3011,-78.17 3014.5,-68.17 3007.5,-68.17"/>
</a>
</g>
</g>
<!-- Node26 -->
<g id="Node000026" class="node">
<title>Node26</title>
<g id="a_Node000026"><a xlink:href="ResourceRepository_8cpp.html" target="_top" xlink:title=" ">
<polygon fill="white" stroke="#666666" points="3245.25,-44 3116.75,-44 3116.75,0 3245.25,0 3245.25,-44"/>
<text text-anchor="start" x="3124.75" y="-30.5" font-family="Helvetica,sans-Serif" font-size="10.00">src/bot_library/commands</text>
<text text-anchor="start" x="3124.75" y="-18.5" font-family="Helvetica,sans-Serif" font-size="10.00">/resources/repositories</text>
<text text-anchor="middle" x="3181" y="-6.5" font-family="Helvetica,sans-Serif" font-size="10.00">/ResourceRepository.cpp</text>
</a>
</g>
</g>
<!-- Node24&#45;&gt;Node26 -->
<g id="edge29_Node000024_Node000026" class="edge">
<title>Node24&#45;&gt;Node26</title>
<g id="a_edge29_Node000024_Node000026"><a xlink:title=" ">
<path fill="none" stroke="#63b8ff" d="M3067.81,-74.93C3089.41,-65.02 3113.75,-53.86 3134.31,-44.42"/>
<polygon fill="#63b8ff" stroke="#63b8ff" points="3066.46,-71.7 3058.83,-79.05 3069.38,-78.07 3066.46,-71.7"/>
</a>
</g>
</g>
<!-- Node28 -->
<g id="Node000028" class="node">
<title>Node28</title>
<g id="a_Node000028"><a xlink:href="SetChannelCommand_8cpp.html" target="_top" xlink:title=" ">
<polygon fill="white" stroke="#666666" points="3606.62,-38 3417.38,-38 3417.38,-6 3606.62,-6 3606.62,-38"/>
<text text-anchor="start" x="3425.38" y="-24.5" font-family="Helvetica,sans-Serif" font-size="10.00">src/bot_library/commands</text>
<text text-anchor="middle" x="3512" y="-12.5" font-family="Helvetica,sans-Serif" font-size="10.00">/set_channel/SetChannelCommand.cpp</text>
</a>
</g>
</g>
<!-- Node27&#45;&gt;Node28 -->
<g id="edge31_Node000027_Node000028" class="edge">
<title>Node27&#45;&gt;Node28</title>
<g id="a_edge31_Node000027_Node000028"><a xlink:title=" ">
<path fill="none" stroke="#63b8ff" d="M3625.29,-74.98C3598.91,-62.87 3568.42,-48.89 3545.73,-38.47"/>
<polygon fill="#63b8ff" stroke="#63b8ff" points="3623.62,-78.07 3634.17,-79.05 3626.54,-71.7 3623.62,-78.07"/>
</a>
</g>
</g>
<!-- Node29 -->
<g id="Node000029" class="node">
<title>Node29</title>
<g id="a_Node000029"><a xlink:href="GoodbyeChannelRepository_8cpp.html" target="_top" xlink:title=" ">
<polygon fill="white" stroke="#666666" points="3962.62,-44 3803.38,-44 3803.38,0 3962.62,0 3962.62,-44"/>
<text text-anchor="start" x="3811.38" y="-30.5" font-family="Helvetica,sans-Serif" font-size="10.00">src/bot_library/commands</text>
<text text-anchor="start" x="3811.38" y="-18.5" font-family="Helvetica,sans-Serif" font-size="10.00">/set_channel/repositories</text>
<text text-anchor="middle" x="3883" y="-6.5" font-family="Helvetica,sans-Serif" font-size="10.00">/GoodbyeChannelRepository.cpp</text>
</a>
</g>
</g>
<!-- Node27&#45;&gt;Node29 -->
<g id="edge32_Node000027_Node000029" class="edge">
<title>Node27&#45;&gt;Node29</title>
<g id="a_edge32_Node000027_Node000029"><a xlink:title=" ">
<path fill="none" stroke="#63b8ff" d="M3747.69,-75.51C3773.64,-65.44 3803.13,-54 3827.93,-44.37"/>
<polygon fill="#63b8ff" stroke="#63b8ff" points="3746.66,-72.15 3738.6,-79.04 3749.19,-78.68 3746.66,-72.15"/>
</a>
</g>
</g>
<!-- Node30&#45;&gt;Node28 -->
<g id="edge34_Node000030_Node000028" class="edge">
<title>Node30&#45;&gt;Node28</title>
<g id="a_edge34_Node000030_Node000028"><a xlink:title=" ">
<path fill="none" stroke="#63b8ff" d="M3391.01,-75.14C3419.18,-63 3451.82,-48.93 3476.09,-38.47"/>
<polygon fill="#63b8ff" stroke="#63b8ff" points="3389.65,-71.92 3381.85,-79.09 3392.42,-78.34 3389.65,-71.92"/>
</a>
</g>
</g>
<!-- Node31 -->
<g id="Node000031" class="node">
<title>Node31</title>
<g id="a_Node000031"><a xlink:href="LogChannelRepository_8cpp.html" target="_top" xlink:title=" ">
<polygon fill="white" stroke="#666666" points="3399,-44 3263,-44 3263,0 3399,0 3399,-44"/>
<text text-anchor="start" x="3271" y="-30.5" font-family="Helvetica,sans-Serif" font-size="10.00">src/bot_library/commands</text>
<text text-anchor="start" x="3271" y="-18.5" font-family="Helvetica,sans-Serif" font-size="10.00">/set_channel/repositories</text>
<text text-anchor="middle" x="3331" y="-6.5" font-family="Helvetica,sans-Serif" font-size="10.00">/LogChannelRepository.cpp</text>
</a>
</g>
</g>
<!-- Node30&#45;&gt;Node31 -->
<g id="edge35_Node000030_Node000031" class="edge">
<title>Node30&#45;&gt;Node31</title>
<g id="a_edge35_Node000030_Node000031"><a xlink:title=" ">
<path fill="none" stroke="#63b8ff" d="M3331,-68.25C3331,-60.15 3331,-51.68 3331,-44.29"/>
<polygon fill="#63b8ff" stroke="#63b8ff" points="3327.5,-68.17 3331,-78.17 3334.5,-68.17 3327.5,-68.17"/>
</a>
</g>
</g>
<!-- Node32&#45;&gt;Node28 -->
<g id="edge37_Node000032_Node000028" class="edge">
<title>Node32&#45;&gt;Node28</title>
<g id="a_edge37_Node000032_Node000028"><a xlink:title=" ">
<path fill="none" stroke="#63b8ff" d="M3507.36,-68.28C3508.43,-57.8 3509.57,-46.7 3510.45,-38.11"/>
<polygon fill="#63b8ff" stroke="#63b8ff" points="3503.88,-67.88 3506.34,-78.18 3510.84,-68.59 3503.88,-67.88"/>
</a>
</g>
</g>
<!-- Node33 -->
<g id="Node000033" class="node">
<title>Node33</title>
<g id="a_Node000033"><a xlink:href="WelcomeChannelRepository_8cpp.html" target="_top" xlink:title=" ">
<polygon fill="white" stroke="#666666" points="3785.38,-44 3624.62,-44 3624.62,0 3785.38,0 3785.38,-44"/>
<text text-anchor="start" x="3632.62" y="-30.5" font-family="Helvetica,sans-Serif" font-size="10.00">src/bot_library/commands</text>
<text text-anchor="start" x="3632.62" y="-18.5" font-family="Helvetica,sans-Serif" font-size="10.00">/set_channel/repositories</text>
<text text-anchor="middle" x="3705" y="-6.5" font-family="Helvetica,sans-Serif" font-size="10.00">/WelcomeChannelRepository.cpp</text>
</a>
</g>
</g>
<!-- Node32&#45;&gt;Node33 -->
<g id="edge38_Node000032_Node000033" class="edge">
<title>Node32&#45;&gt;Node33</title>
<g id="a_edge38_Node000032_Node000033"><a xlink:title=" ">
<path fill="none" stroke="#63b8ff" d="M3569.69,-75.51C3595.64,-65.44 3625.13,-54 3649.93,-44.37"/>
<polygon fill="#63b8ff" stroke="#63b8ff" points="3568.66,-72.15 3560.6,-79.04 3571.19,-78.68 3568.66,-72.15"/>
</a>
</g>
</g>
</g>
</svg>
