<?xml version="1.0" encoding="UTF-8" standalone="no"?>
<!DOCTYPE svg PUBLIC "-//W3C//DTD SVG 1.1//EN"
 "http://www.w3.org/Graphics/SVG/1.1/DTD/svg11.dtd">
<!-- Generated by graphviz version 9.0.0 (0)
 -->
<!-- Title: src/bot_library/bot/core/interfaces/include/IRepository.hpp Pages: 1 -->
<svg width="1579pt" height="212pt"
 viewBox="0.00 0.00 1578.50 212.00" xmlns="http://www.w3.org/2000/svg" xmlns:xlink="http://www.w3.org/1999/xlink">
<g id="graph0" class="graph" transform="scale(1 1) rotate(0) translate(4 208)">
<title>src/bot_library/bot/core/interfaces/include/IRepository.hpp</title>
<!-- Node1 -->
<g id="Node000001" class="node">
<title>Node1</title>
<g id="a_Node000001"><a xlink:title=" ">
<polygon fill="#999999" stroke="#666666" points="1012.5,-204 895.25,-204 895.25,-160 1012.5,-160 1012.5,-204"/>
<text text-anchor="start" x="903.25" y="-190.5" font-family="Helvetica,sans-Serif" font-size="10.00">src/bot_library/bot</text>
<text text-anchor="start" x="903.25" y="-178.5" font-family="Helvetica,sans-Serif" font-size="10.00">/core/interfaces/include</text>
<text text-anchor="middle" x="953.88" y="-166.5" font-family="Helvetica,sans-Serif" font-size="10.00">/IRepository.hpp</text>
</a>
</g>
</g>
<!-- Node2 -->
<g id="Node000002" class="node">
<title>Node2</title>
<g id="a_Node000002"><a xlink:href="ChallengeRoleRepository_8hpp.html" target="_top" xlink:title=" ">
<polygon fill="white" stroke="#666666" points="443.5,-118 230.25,-118 230.25,-86 443.5,-86 443.5,-118"/>
<text text-anchor="start" x="238.25" y="-104.5" font-family="Helvetica,sans-Serif" font-size="10.00">src/bot_library/commands</text>
<text text-anchor="middle" x="336.88" y="-92.5" font-family="Helvetica,sans-Serif" font-size="10.00">/challenge_role/ChallengeRoleRepository.hpp</text>
</a>
</g>
</g>
<!-- Node1&#45;&gt;Node2 -->
<g id="edge1_Node000001_Node000002" class="edge">
<title>Node1&#45;&gt;Node2</title>
<g id="a_edge1_Node000001_Node000002"><a xlink:title=" ">
<path fill="none" stroke="#63b8ff" d="M883.65,-172.12C776.18,-158.54 570.14,-132.49 443.96,-116.54"/>
<polygon fill="#63b8ff" stroke="#63b8ff" points="883.13,-175.58 893.49,-173.37 884.01,-168.64 883.13,-175.58"/>
</a>
</g>
</g>
<!-- Node5 -->
<g id="Node000005" class="node">
<title>Node5</title>
<g id="a_Node000005"><a xlink:href="ReactionRoleRepository_8hpp.html" target="_top" xlink:title=" ">
<polygon fill="white" stroke="#666666" points="867.5,-118 660.25,-118 660.25,-86 867.5,-86 867.5,-118"/>
<text text-anchor="start" x="668.25" y="-104.5" font-family="Helvetica,sans-Serif" font-size="10.00">src/bot_library/commands</text>
<text text-anchor="middle" x="763.88" y="-92.5" font-family="Helvetica,sans-Serif" font-size="10.00">/reaction_roles/ReactionRoleRepository.hpp</text>
</a>
</g>
</g>
<!-- Node1&#45;&gt;Node5 -->
<g id="edge4_Node000001_Node000005" class="edge">
<title>Node1&#45;&gt;Node5</title>
<g id="a_edge4_Node000001_Node000005"><a xlink:title=" ">
<path fill="none" stroke="#63b8ff" d="M891.41,-155.36C861.68,-143.15 827.11,-128.96 801.47,-118.43"/>
<polygon fill="#63b8ff" stroke="#63b8ff" points="889.73,-158.45 900.31,-159.01 892.38,-151.97 889.73,-158.45"/>
</a>
</g>
</g>
<!-- Node8 -->
<g id="Node000008" class="node">
<title>Node8</title>
<g id="a_Node000008"><a xlink:href="GoodbyeChannelRepository_8hpp.html" target="_top" xlink:title=" ">
<polygon fill="white" stroke="#666666" points="1377.5,-124 1218.25,-124 1218.25,-80 1377.5,-80 1377.5,-124"/>
<text text-anchor="start" x="1226.25" y="-110.5" font-family="Helvetica,sans-Serif" font-size="10.00">src/bot_library/commands</text>
<text text-anchor="start" x="1226.25" y="-98.5" font-family="Helvetica,sans-Serif" font-size="10.00">/set_channel/repositories</text>
<text text-anchor="middle" x="1297.88" y="-86.5" font-family="Helvetica,sans-Serif" font-size="10.00">/GoodbyeChannelRepository.hpp</text>
</a>
</g>
</g>
<!-- Node1&#45;&gt;Node8 -->
<g id="edge7_Node000001_Node000008" class="edge">
<title>Node1&#45;&gt;Node8</title>
<g id="a_edge7_Node000001_Node000008"><a xlink:title=" ">
<path fill="none" stroke="#63b8ff" d="M1023.87,-165.59C1075.13,-154.24 1146.37,-138.36 1208.88,-124 1211.81,-123.32 1214.81,-122.63 1217.83,-121.93"/>
<polygon fill="#63b8ff" stroke="#63b8ff" points="1023.4,-162.11 1014.4,-167.68 1024.92,-168.94 1023.4,-162.11"/>
</a>
</g>
</g>
<!-- Node11 -->
<g id="Node000011" class="node">
<title>Node11</title>
<g id="a_Node000011"><a xlink:href="LogChannelRepository_8hpp.html" target="_top" xlink:title=" ">
<polygon fill="white" stroke="#666666" points="1021.88,-124 885.88,-124 885.88,-80 1021.88,-80 1021.88,-124"/>
<text text-anchor="start" x="893.88" y="-110.5" font-family="Helvetica,sans-Serif" font-size="10.00">src/bot_library/commands</text>
<text text-anchor="start" x="893.88" y="-98.5" font-family="Helvetica,sans-Serif" font-size="10.00">/set_channel/repositories</text>
<text text-anchor="middle" x="953.88" y="-86.5" font-family="Helvetica,sans-Serif" font-size="10.00">/LogChannelRepository.hpp</text>
</a>
</g>
</g>
<!-- Node1&#45;&gt;Node11 -->
<g id="edge10_Node000001_Node000011" class="edge">
<title>Node1&#45;&gt;Node11</title>
<g id="a_edge10_Node000001_Node000011"><a xlink:title=" ">
<path fill="none" stroke="#63b8ff" d="M953.88,-148.25C953.88,-140.15 953.88,-131.68 953.88,-124.29"/>
<polygon fill="#63b8ff" stroke="#63b8ff" points="950.38,-148.17 953.88,-158.17 957.38,-148.17 950.38,-148.17"/>
</a>
</g>
</g>
<!-- Node13 -->
<g id="Node000013" class="node">
<title>Node13</title>
<g id="a_Node000013"><a xlink:href="WelcomeChannelRepository_8hpp.html" target="_top" xlink:title=" ">
<polygon fill="white" stroke="#666666" points="1200.25,-124 1039.5,-124 1039.5,-80 1200.25,-80 1200.25,-124"/>
<text text-anchor="start" x="1047.5" y="-110.5" font-family="Helvetica,sans-Serif" font-size="10.00">src/bot_library/commands</text>
<text text-anchor="start" x="1047.5" y="-98.5" font-family="Helvetica,sans-Serif" font-size="10.00">/set_channel/repositories</text>
<text text-anchor="middle" x="1119.88" y="-86.5" font-family="Helvetica,sans-Serif" font-size="10.00">/WelcomeChannelRepository.hpp</text>
</a>
</g>
</g>
<!-- Node1&#45;&gt;Node13 -->
<g id="edge13_Node000001_Node000013" class="edge">
<title>Node1&#45;&gt;Node13</title>
<g id="a_edge13_Node000001_Node000013"><a xlink:title=" ">
<path fill="none" stroke="#63b8ff" d="M1009.63,-154.8C1030.66,-144.92 1054.3,-133.81 1074.28,-124.42"/>
<polygon fill="#63b8ff" stroke="#63b8ff" points="1008.17,-151.62 1000.61,-159.04 1011.14,-157.96 1008.17,-151.62"/>
</a>
</g>
</g>
<!-- Node3 -->
<g id="Node000003" class="node">
<title>Node3</title>
<g id="a_Node000003"><a xlink:href="ChallengeRoleCommand_8cpp.html" target="_top" xlink:title=" ">
<polygon fill="white" stroke="#666666" points="211.75,-38 0,-38 0,-6 211.75,-6 211.75,-38"/>
<text text-anchor="start" x="8" y="-24.5" font-family="Helvetica,sans-Serif" font-size="10.00">src/bot_library/commands</text>
<text text-anchor="middle" x="105.88" y="-12.5" font-family="Helvetica,sans-Serif" font-size="10.00">/challenge_role/ChallengeRoleCommand.cpp</text>
</a>
</g>
</g>
<!-- Node2&#45;&gt;Node3 -->
<g id="edge2_Node000002_Node000003" class="edge">
<title>Node2&#45;&gt;Node3</title>
<g id="a_edge2_Node000002_Node000003"><a xlink:title=" ">
<path fill="none" stroke="#63b8ff" d="M280.41,-81.93C240.76,-68.55 188.41,-50.87 151.42,-38.38"/>
<polygon fill="#63b8ff" stroke="#63b8ff" points="279.21,-85.22 289.8,-85.11 281.45,-78.59 279.21,-85.22"/>
</a>
</g>
</g>
<!-- Node4 -->
<g id="Node000004" class="node">
<title>Node4</title>
<g id="a_Node000004"><a xlink:href="ChallengeRoleRepository_8cpp.html" target="_top" xlink:title=" ">
<polygon fill="white" stroke="#666666" points="443.5,-38 230.25,-38 230.25,-6 443.5,-6 443.5,-38"/>
<text text-anchor="start" x="238.25" y="-24.5" font-family="Helvetica,sans-Serif" font-size="10.00">src/bot_library/commands</text>
<text text-anchor="middle" x="336.88" y="-12.5" font-family="Helvetica,sans-Serif" font-size="10.00">/challenge_role/ChallengeRoleRepository.cpp</text>
</a>
</g>
</g>
<!-- Node2&#45;&gt;Node4 -->
<g id="edge3_Node000002_Node000004" class="edge">
<title>Node2&#45;&gt;Node4</title>
<g id="a_edge3_Node000002_Node000004"><a xlink:title=" ">
<path fill="none" stroke="#63b8ff" d="M336.88,-74.37C336.88,-62.37 336.88,-48.63 336.88,-38.38"/>
<polygon fill="#63b8ff" stroke="#63b8ff" points="333.38,-74.08 336.88,-84.08 340.38,-74.08 333.38,-74.08"/>
</a>
</g>
</g>
<!-- Node6 -->
<g id="Node000006" class="node">
<title>Node6</title>
<g id="a_Node000006"><a xlink:href="ReactionRoleRepository_8cpp.html" target="_top" xlink:title=" ">
<polygon fill="white" stroke="#666666" points="668.5,-38 461.25,-38 461.25,-6 668.5,-6 668.5,-38"/>
<text text-anchor="start" x="469.25" y="-24.5" font-family="Helvetica,sans-Serif" font-size="10.00">src/bot_library/commands</text>
<text text-anchor="middle" x="564.88" y="-12.5" font-family="Helvetica,sans-Serif" font-size="10.00">/reaction_roles/ReactionRoleRepository.cpp</text>
</a>
</g>
</g>
<!-- Node5&#45;&gt;Node6 -->
<g id="edge5_Node000005_Node000006" class="edge">
<title>Node5&#45;&gt;Node6</title>
<g id="a_edge5_Node000005_Node000006"><a xlink:title=" ">
<path fill="none" stroke="#63b8ff" d="M713.92,-81.42C679.92,-68.09 635.57,-50.71 604.11,-38.38"/>
<polygon fill="#63b8ff" stroke="#63b8ff" points="712.56,-84.65 723.15,-85.04 715.12,-78.13 712.56,-84.65"/>
</a>
</g>
</g>
<!-- Node7 -->
<g id="Node000007" class="node">
<title>Node7</title>
<g id="a_Node000007"><a xlink:href="ReactionRoles_8cpp.html" target="_top" xlink:title=" ">
<polygon fill="white" stroke="#666666" points="852.88,-38 686.88,-38 686.88,-6 852.88,-6 852.88,-38"/>
<text text-anchor="start" x="694.88" y="-24.5" font-family="Helvetica,sans-Serif" font-size="10.00">src/bot_library/commands</text>
<text text-anchor="middle" x="769.88" y="-12.5" font-family="Helvetica,sans-Serif" font-size="10.00">/reaction_roles/ReactionRoles.cpp</text>
</a>
</g>
</g>
<!-- Node5&#45;&gt;Node7 -->
<g id="edge6_Node000005_Node000007" class="edge">
<title>Node5&#45;&gt;Node7</title>
<g id="a_edge6_Node000005_Node000007"><a xlink:title=" ">
<path fill="none" stroke="#63b8ff" d="M765.92,-74.37C766.85,-62.37 767.9,-48.63 768.69,-38.38"/>
<polygon fill="#63b8ff" stroke="#63b8ff" points="762.45,-73.84 765.18,-84.08 769.43,-74.38 762.45,-73.84"/>
</a>
</g>
</g>
<!-- Node9 -->
<g id="Node000009" class="node">
<title>Node9</title>
<g id="a_Node000009"><a xlink:href="SetChannelCommand_8cpp.html" target="_top" xlink:title=" ">
<polygon fill="white" stroke="#666666" points="1214.5,-38 1025.25,-38 1025.25,-6 1214.5,-6 1214.5,-38"/>
<text text-anchor="start" x="1033.25" y="-24.5" font-family="Helvetica,sans-Serif" font-size="10.00">src/bot_library/commands</text>
<text text-anchor="middle" x="1119.88" y="-12.5" font-family="Helvetica,sans-Serif" font-size="10.00">/set_channel/SetChannelCommand.cpp</text>
</a>
</g>
</g>
<!-- Node8&#45;&gt;Node9 -->
<g id="edge8_Node000008_Node000009" class="edge">
<title>Node8&#45;&gt;Node9</title>
<g id="a_edge8_Node000008_Node000009"><a xlink:title=" ">
<path fill="none" stroke="#63b8ff" d="M1238.86,-75.14C1211.15,-63 1179.06,-48.93 1155.19,-38.47"/>
<polygon fill="#63b8ff" stroke="#63b8ff" points="1237.29,-78.27 1247.85,-79.08 1240.09,-71.86 1237.29,-78.27"/>
</a>
</g>
</g>
<!-- Node10 -->
<g id="Node000010" class="node">
<title>Node10</title>
<g id="a_Node000010"><a xlink:href="GoodbyeChannelRepository_8cpp.html" target="_top" xlink:title=" ">
<polygon fill="white" stroke="#666666" points="1570.5,-44 1411.25,-44 1411.25,0 1570.5,0 1570.5,-44"/>
<text text-anchor="start" x="1419.25" y="-30.5" font-family="Helvetica,sans-Serif" font-size="10.00">src/bot_library/commands</text>
<text text-anchor="start" x="1419.25" y="-18.5" font-family="Helvetica,sans-Serif" font-size="10.00">/set_channel/repositories</text>
<text text-anchor="middle" x="1490.88" y="-6.5" font-family="Helvetica,sans-Serif" font-size="10.00">/GoodbyeChannelRepository.cpp</text>
</a>
</g>
</g>
<!-- Node8&#45;&gt;Node10 -->
<g id="edge9_Node000008_Node000010" class="edge">
<title>Node8&#45;&gt;Node10</title>
<g id="a_edge9_Node000008_Node000010"><a xlink:title=" ">
<path fill="none" stroke="#63b8ff" d="M1361.29,-75.37C1386.12,-65.33 1414.29,-53.95 1438,-44.37"/>
<polygon fill="#63b8ff" stroke="#63b8ff" points="1360.23,-72.02 1352.27,-79.02 1362.85,-78.51 1360.23,-72.02"/>
</a>
</g>
</g>
<!-- Node11&#45;&gt;Node9 -->
<g id="edge11_Node000011_Node000009" class="edge">
<title>Node11&#45;&gt;Node9</title>
<g id="a_edge11_Node000011_Node000009"><a xlink:title=" ">
<path fill="none" stroke="#63b8ff" d="M1009.6,-74.82C1035.28,-62.75 1064.88,-48.84 1086.94,-38.47"/>
<polygon fill="#63b8ff" stroke="#63b8ff" points="1008.17,-71.62 1000.61,-79.04 1011.14,-77.96 1008.17,-71.62"/>
</a>
</g>
</g>
<!-- Node12 -->
<g id="Node000012" class="node">
<title>Node12</title>
<g id="a_Node000012"><a xlink:href="LogChannelRepository_8cpp.html" target="_top" xlink:title=" ">
<polygon fill="white" stroke="#666666" points="1006.88,-44 870.88,-44 870.88,0 1006.88,0 1006.88,-44"/>
<text text-anchor="start" x="878.88" y="-30.5" font-family="Helvetica,sans-Serif" font-size="10.00">src/bot_library/commands</text>
<text text-anchor="start" x="878.88" y="-18.5" font-family="Helvetica,sans-Serif" font-size="10.00">/set_channel/repositories</text>
<text text-anchor="middle" x="938.88" y="-6.5" font-family="Helvetica,sans-Serif" font-size="10.00">/LogChannelRepository.cpp</text>
</a>
</g>
</g>
<!-- Node11&#45;&gt;Node12 -->
<g id="edge12_Node000011_Node000012" class="edge">
<title>Node11&#45;&gt;Node12</title>
<g id="a_edge12_Node000011_Node000012"><a xlink:title=" ">
<path fill="none" stroke="#63b8ff" d="M947.63,-68.53C946.06,-60.35 944.41,-51.77 942.97,-44.29"/>
<polygon fill="#63b8ff" stroke="#63b8ff" points="944.16,-69.04 949.49,-78.2 951.04,-67.72 944.16,-69.04"/>
</a>
</g>
</g>
<!-- Node13&#45;&gt;Node9 -->
<g id="edge14_Node000013_Node000009" class="edge">
<title>Node13&#45;&gt;Node9</title>
<g id="a_edge14_Node000013_Node000009"><a xlink:title=" ">
<path fill="none" stroke="#63b8ff" d="M1119.88,-68.28C1119.88,-57.8 1119.88,-46.7 1119.88,-38.11"/>
<polygon fill="#63b8ff" stroke="#63b8ff" points="1116.38,-68.17 1119.88,-78.17 1123.38,-68.17 1116.38,-68.17"/>
</a>
</g>
</g>
<!-- Node14 -->
<g id="Node000014" class="node">
<title>Node14</title>
<g id="a_Node000014"><a xlink:href="WelcomeChannelRepository_8cpp.html" target="_top" xlink:title=" ">
<polygon fill="white" stroke="#666666" points="1393.25,-44 1232.5,-44 1232.5,0 1393.25,0 1393.25,-44"/>
<text text-anchor="start" x="1240.5" y="-30.5" font-family="Helvetica,sans-Serif" font-size="10.00">src/bot_library/commands</text>
<text text-anchor="start" x="1240.5" y="-18.5" font-family="Helvetica,sans-Serif" font-size="10.00">/set_channel/repositories</text>
<text text-anchor="middle" x="1312.88" y="-6.5" font-family="Helvetica,sans-Serif" font-size="10.00">/WelcomeChannelRepository.cpp</text>
</a>
</g>
</g>
<!-- Node13&#45;&gt;Node14 -->
<g id="edge15_Node000013_Node000014" class="edge">
<title>Node13&#45;&gt;Node14</title>
<g id="a_edge15_Node000013_Node000014"><a xlink:title=" ">
<path fill="none" stroke="#63b8ff" d="M1183.29,-75.37C1208.12,-65.33 1236.29,-53.95 1260,-44.37"/>
<polygon fill="#63b8ff" stroke="#63b8ff" points="1182.23,-72.02 1174.27,-79.02 1184.85,-78.51 1182.23,-72.02"/>
</a>
</g>
</g>
</g>
</svg>
