<?xml version="1.0" encoding="UTF-8" standalone="no"?>
<!DOCTYPE svg PUBLIC "-//W3C//DTD SVG 1.1//EN"
 "http://www.w3.org/Graphics/SVG/1.1/DTD/svg11.dtd">
<!-- Generated by graphviz version 10.0.1 (0)
 -->
<!-- Title: src/bot_library/bot/core/interfaces/include/IRepository.hpp Pages: 1 -->
<svg width="4728pt" height="212pt"
 viewBox="0.00 0.00 4727.50 212.00" xmlns="http://www.w3.org/2000/svg" xmlns:xlink="http://www.w3.org/1999/xlink">
<g id="graph0" class="graph" transform="scale(1 1) rotate(0) translate(4 208)">
<title>src/bot_library/bot/core/interfaces/include/IRepository.hpp</title>
<!-- Node1 -->
<g id="Node000001" class="node">
<title>Node1</title>
<g id="a_Node000001"><a xlink:title=" ">
<polygon fill="#999999" stroke="#666666" points="3048.62,-204 2931.38,-204 2931.38,-160 3048.62,-160 3048.62,-204"/>
<text text-anchor="start" x="2939.38" y="-190.5" font-family="Helvetica,sans-Serif" font-size="10.00">src/bot_library/bot</text>
<text text-anchor="start" x="2939.38" y="-178.5" font-family="Helvetica,sans-Serif" font-size="10.00">/core/interfaces/include</text>
<text text-anchor="middle" x="2990" y="-166.5" font-family="Helvetica,sans-Serif" font-size="10.00">/IRepository.hpp</text>
</a>
</g>
</g>
<!-- Node2 -->
<g id="Node000002" class="node">
<title>Node2</title>
<g id="a_Node000002"><a xlink:href="ChallengeBadgeRepository_8hpp.html" target="_top" xlink:title=" ">
<polygon fill="white" stroke="#666666" points="475,-124 309,-124 309,-80 475,-80 475,-124"/>
<text text-anchor="start" x="317" y="-110.5" font-family="Helvetica,sans-Serif" font-size="10.00">src/bot_library/commands</text>
<text text-anchor="start" x="317" y="-98.5" font-family="Helvetica,sans-Serif" font-size="10.00">/challenge_badge/ChallengeBadge</text>
<text text-anchor="middle" x="392" y="-86.5" font-family="Helvetica,sans-Serif" font-size="10.00">Repository.hpp</text>
</a>
</g>
</g>
<!-- Node1&#45;&gt;Node2 -->
<g id="edge1_Node000001_Node000002" class="edge">
<title>Node1&#45;&gt;Node2</title>
<g id="a_edge1_Node000001_Node000002"><a xlink:title=" ">
<path fill="none" stroke="#63b8ff" d="M2919.66,-180.29C2572.46,-176.62 1039.03,-158.73 563,-124 534.36,-121.91 503.16,-118.43 475.33,-114.91"/>
<polygon fill="#63b8ff" stroke="#63b8ff" points="2919.48,-183.79 2929.52,-180.39 2919.55,-176.79 2919.48,-183.79"/>
</a>
</g>
</g>
<!-- Node6 -->
<g id="Node000006" class="node">
<title>Node6</title>
<g id="a_Node000006"><a xlink:href="UserRepository_8hpp.html" target="_top" xlink:title=" ">
<polygon fill="white" stroke="#666666" points="753.5,-118 572.5,-118 572.5,-86 753.5,-86 753.5,-118"/>
<text text-anchor="start" x="580.5" y="-104.5" font-family="Helvetica,sans-Serif" font-size="10.00">src/bot_library/commands</text>
<text text-anchor="middle" x="663" y="-92.5" font-family="Helvetica,sans-Serif" font-size="10.00">/challenge_badge/UserRepository.hpp</text>
</a>
</g>
</g>
<!-- Node1&#45;&gt;Node6 -->
<g id="edge5_Node000001_Node000006" class="edge">
<title>Node1&#45;&gt;Node6</title>
<g id="a_edge5_Node000001_Node000006"><a xlink:title=" ">
<path fill="none" stroke="#63b8ff" d="M2919.99,-178.65C2583.45,-167.37 1132.76,-118.75 753.83,-106.04"/>
<polygon fill="#63b8ff" stroke="#63b8ff" points="2919.4,-182.14 2929.51,-178.97 2919.63,-175.14 2919.4,-182.14"/>
</a>
</g>
</g>
<!-- Node10 -->
<g id="Node000010" class="node">
<title>Node10</title>
<g id="a_Node000010"><a xlink:href="ChallengeRoleRepository_8hpp.html" target="_top" xlink:title=" ">
<polygon fill="white" stroke="#666666" points="1534.62,-118 1321.38,-118 1321.38,-86 1534.62,-86 1534.62,-118"/>
<text text-anchor="start" x="1329.38" y="-104.5" font-family="Helvetica,sans-Serif" font-size="10.00">src/bot_library/commands</text>
<text text-anchor="middle" x="1428" y="-92.5" font-family="Helvetica,sans-Serif" font-size="10.00">/challenge_role/ChallengeRoleRepository.hpp</text>
</a>
</g>
</g>
<!-- Node1&#45;&gt;Node10 -->
<g id="edge11_Node000001_Node000010" class="edge">
<title>Node1&#45;&gt;Node10</title>
<g id="a_edge11_Node000001_Node000010"><a xlink:title=" ">
<path fill="none" stroke="#63b8ff" d="M2919.73,-178.52C2727.45,-171.59 2176.57,-150.77 1719,-124 1658.07,-120.44 1590.02,-115.57 1535.06,-111.43"/>
<polygon fill="#63b8ff" stroke="#63b8ff" points="2919.42,-182.01 2929.54,-178.87 2919.68,-175.02 2919.42,-182.01"/>
</a>
</g>
</g>
<!-- Node14 -->
<g id="Node000014" class="node">
<title>Node14</title>
<g id="a_Node000014"><a xlink:href="MemberRepository_8hpp.html" target="_top" xlink:title=" ">
<polygon fill="white" stroke="#666666" points="2421.5,-118 2210.5,-118 2210.5,-86 2421.5,-86 2421.5,-118"/>
<text text-anchor="start" x="2218.5" y="-104.5" font-family="Helvetica,sans-Serif" font-size="10.00">src/bot_library/commands</text>
<text text-anchor="middle" x="2316" y="-92.5" font-family="Helvetica,sans-Serif" font-size="10.00">/member/repositories/MemberRepository.hpp</text>
</a>
</g>
</g>
<!-- Node1&#45;&gt;Node14 -->
<g id="edge15_Node000001_Node000014" class="edge">
<title>Node1&#45;&gt;Node14</title>
<g id="a_edge15_Node000001_Node000014"><a xlink:title=" ">
<path fill="none" stroke="#63b8ff" d="M2919.64,-172.86C2801.1,-159.14 2560.92,-131.34 2421.91,-115.26"/>
<polygon fill="#63b8ff" stroke="#63b8ff" points="2919.23,-176.33 2929.57,-174.01 2920.04,-169.38 2919.23,-176.33"/>
</a>
</g>
</g>
<!-- Node17 -->
<g id="Node000017" class="node">
<title>Node17</title>
<g id="a_Node000017"><a xlink:href="PortalRepository_8hpp.html" target="_top" xlink:title=" ">
<polygon fill="white" stroke="#666666" points="2894,-118 2704,-118 2704,-86 2894,-86 2894,-118"/>
<text text-anchor="start" x="2712" y="-104.5" font-family="Helvetica,sans-Serif" font-size="10.00">src/bot_library/commands</text>
<text text-anchor="middle" x="2799" y="-92.5" font-family="Helvetica,sans-Serif" font-size="10.00">/portal/repositories/PortalRepository.hpp</text>
</a>
</g>
</g>
<!-- Node1&#45;&gt;Node17 -->
<g id="edge18_Node000001_Node000017" class="edge">
<title>Node1&#45;&gt;Node17</title>
<g id="a_edge18_Node000001_Node000017"><a xlink:title=" ">
<path fill="none" stroke="#63b8ff" d="M2927.21,-155.36C2897.32,-143.15 2862.57,-128.96 2836.79,-118.43"/>
<polygon fill="#63b8ff" stroke="#63b8ff" points="2925.57,-158.47 2936.15,-159.01 2928.22,-151.99 2925.57,-158.47"/>
</a>
</g>
</g>
<!-- Node21 -->
<g id="Node000021" class="node">
<title>Node21</title>
<g id="a_Node000021"><a xlink:href="ProductRepository_8hpp.html" target="_top" xlink:title=" ">
<polygon fill="white" stroke="#666666" points="3151.25,-124 3022.75,-124 3022.75,-80 3151.25,-80 3151.25,-124"/>
<text text-anchor="start" x="3030.75" y="-110.5" font-family="Helvetica,sans-Serif" font-size="10.00">src/bot_library/commands</text>
<text text-anchor="start" x="3030.75" y="-98.5" font-family="Helvetica,sans-Serif" font-size="10.00">/products/repositories</text>
<text text-anchor="middle" x="3087" y="-86.5" font-family="Helvetica,sans-Serif" font-size="10.00">/ProductRepository.hpp</text>
</a>
</g>
</g>
<!-- Node1&#45;&gt;Node21 -->
<g id="edge22_Node000001_Node000021" class="edge">
<title>Node1&#45;&gt;Node21</title>
<g id="a_edge22_Node000001_Node000021"><a xlink:title=" ">
<path fill="none" stroke="#63b8ff" d="M3025.16,-152.72C3036.83,-143.34 3049.62,-133.06 3060.53,-124.29"/>
<polygon fill="#63b8ff" stroke="#63b8ff" points="3023.28,-149.74 3017.69,-158.74 3027.67,-155.2 3023.28,-149.74"/>
</a>
</g>
</g>
<!-- Node24 -->
<g id="Node000024" class="node">
<title>Node24</title>
<g id="a_Node000024"><a xlink:href="ReactionRoleRepository_8hpp.html" target="_top" xlink:title=" ">
<polygon fill="white" stroke="#666666" points="1935.62,-118 1728.38,-118 1728.38,-86 1935.62,-86 1935.62,-118"/>
<text text-anchor="start" x="1736.38" y="-104.5" font-family="Helvetica,sans-Serif" font-size="10.00">src/bot_library/commands</text>
<text text-anchor="middle" x="1832" y="-92.5" font-family="Helvetica,sans-Serif" font-size="10.00">/reaction_roles/ReactionRoleRepository.hpp</text>
</a>
</g>
</g>
<!-- Node1&#45;&gt;Node24 -->
<g id="edge25_Node000001_Node000024" class="edge">
<title>Node1&#45;&gt;Node24</title>
<g id="a_edge25_Node000001_Node000024"><a xlink:title=" ">
<path fill="none" stroke="#63b8ff" d="M2919.67,-176.26C2723.22,-163.03 2167.84,-125.62 1935.84,-109.99"/>
<polygon fill="#63b8ff" stroke="#63b8ff" points="2919.26,-179.74 2929.47,-176.92 2919.73,-172.76 2919.26,-179.74"/>
</a>
</g>
</g>
<!-- Node27 -->
<g id="Node000027" class="node">
<title>Node27</title>
<g id="a_Node000027"><a xlink:href="ResourceRepository_8hpp.html" target="_top" xlink:title=" ">
<polygon fill="white" stroke="#666666" points="3484.25,-124 3355.75,-124 3355.75,-80 3484.25,-80 3484.25,-124"/>
<text text-anchor="start" x="3363.75" y="-110.5" font-family="Helvetica,sans-Serif" font-size="10.00">src/bot_library/commands</text>
<text text-anchor="start" x="3363.75" y="-98.5" font-family="Helvetica,sans-Serif" font-size="10.00">/resources/repositories</text>
<text text-anchor="middle" x="3420" y="-86.5" font-family="Helvetica,sans-Serif" font-size="10.00">/ResourceRepository.hpp</text>
</a>
</g>
</g>
<!-- Node1&#45;&gt;Node27 -->
<g id="edge29_Node000001_Node000027" class="edge">
<title>Node1&#45;&gt;Node27</title>
<g id="a_edge29_Node000001_Node000027"><a xlink:title=" ">
<path fill="none" stroke="#63b8ff" d="M3060.08,-168.29C3141.91,-153.44 3276.16,-129.09 3355.52,-114.7"/>
<polygon fill="#63b8ff" stroke="#63b8ff" points="3059.59,-164.82 3050.38,-170.05 3060.84,-171.71 3059.59,-164.82"/>
</a>
</g>
</g>
<!-- Node30 -->
<g id="Node000030" class="node">
<title>Node30</title>
<g id="a_Node000030"><a xlink:href="GoodbyeChannelRepository_8hpp.html" target="_top" xlink:title=" ">
<polygon fill="white" stroke="#666666" points="4171.62,-124 4012.38,-124 4012.38,-80 4171.62,-80 4171.62,-124"/>
<text text-anchor="start" x="4020.38" y="-110.5" font-family="Helvetica,sans-Serif" font-size="10.00">src/bot_library/commands</text>
<text text-anchor="start" x="4020.38" y="-98.5" font-family="Helvetica,sans-Serif" font-size="10.00">/set_channel/repositories</text>
<text text-anchor="middle" x="4092" y="-86.5" font-family="Helvetica,sans-Serif" font-size="10.00">/GoodbyeChannelRepository.hpp</text>
</a>
</g>
</g>
<!-- Node1&#45;&gt;Node30 -->
<g id="edge32_Node000001_Node000030" class="edge">
<title>Node1&#45;&gt;Node30</title>
<g id="a_edge32_Node000001_Node000030"><a xlink:title=" ">
<path fill="none" stroke="#63b8ff" d="M3060.33,-181.27C3225.68,-181 3651.67,-174.93 4003,-124 4005.99,-123.57 4009.02,-123.08 4012.07,-122.56"/>
<polygon fill="#63b8ff" stroke="#63b8ff" points="3060.39,-177.77 3050.4,-181.28 3060.4,-184.77 3060.39,-177.77"/>
</a>
</g>
</g>
<!-- Node33 -->
<g id="Node000033" class="node">
<title>Node33</title>
<g id="a_Node000033"><a xlink:href="LogChannelRepository_8hpp.html" target="_top" xlink:title=" ">
<polygon fill="white" stroke="#666666" points="3808,-124 3672,-124 3672,-80 3808,-80 3808,-124"/>
<text text-anchor="start" x="3680" y="-110.5" font-family="Helvetica,sans-Serif" font-size="10.00">src/bot_library/commands</text>
<text text-anchor="start" x="3680" y="-98.5" font-family="Helvetica,sans-Serif" font-size="10.00">/set_channel/repositories</text>
<text text-anchor="middle" x="3740" y="-86.5" font-family="Helvetica,sans-Serif" font-size="10.00">/LogChannelRepository.hpp</text>
</a>
</g>
</g>
<!-- Node1&#45;&gt;Node33 -->
<g id="edge35_Node000001_Node000033" class="edge">
<title>Node1&#45;&gt;Node33</title>
<g id="a_edge35_Node000001_Node000033"><a xlink:title=" ">
<path fill="none" stroke="#63b8ff" d="M3060.1,-173.71C3203.64,-158.78 3529.4,-124.9 3671.53,-110.12"/>
<polygon fill="#63b8ff" stroke="#63b8ff" points="3059.94,-170.21 3050.36,-174.72 3060.67,-177.17 3059.94,-170.21"/>
</a>
</g>
</g>
<!-- Node35 -->
<g id="Node000035" class="node">
<title>Node35</title>
<g id="a_Node000035"><a xlink:href="WelcomeChannelRepository_8hpp.html" target="_top" xlink:title=" ">
<polygon fill="white" stroke="#666666" points="3994.38,-124 3833.62,-124 3833.62,-80 3994.38,-80 3994.38,-124"/>
<text text-anchor="start" x="3841.62" y="-110.5" font-family="Helvetica,sans-Serif" font-size="10.00">src/bot_library/commands</text>
<text text-anchor="start" x="3841.62" y="-98.5" font-family="Helvetica,sans-Serif" font-size="10.00">/set_channel/repositories</text>
<text text-anchor="middle" x="3914" y="-86.5" font-family="Helvetica,sans-Serif" font-size="10.00">/WelcomeChannelRepository.hpp</text>
</a>
</g>
</g>
<!-- Node1&#45;&gt;Node35 -->
<g id="edge38_Node000001_Node000035" class="edge">
<title>Node1&#45;&gt;Node35</title>
<g id="a_edge38_Node000001_Node000035"><a xlink:title=" ">
<path fill="none" stroke="#63b8ff" d="M3060.16,-179.58C3203.18,-175.93 3538.5,-163.53 3817,-124 3822.29,-123.25 3827.72,-122.37 3833.18,-121.41"/>
<polygon fill="#63b8ff" stroke="#63b8ff" points="3060.39,-176.07 3050.48,-179.82 3060.56,-183.07 3060.39,-176.07"/>
</a>
</g>
</g>
<!-- Node37 -->
<g id="Node000037" class="node">
<title>Node37</title>
<g id="a_Node000037"><a xlink:href="TextRepository_8hpp.html" target="_top" xlink:title=" ">
<polygon fill="white" stroke="#666666" points="4545.5,-118 4364.5,-118 4364.5,-86 4545.5,-86 4545.5,-118"/>
<text text-anchor="start" x="4372.5" y="-104.5" font-family="Helvetica,sans-Serif" font-size="10.00">src/bot_library/commands</text>
<text text-anchor="middle" x="4455" y="-92.5" font-family="Helvetica,sans-Serif" font-size="10.00">/texts/repositories/TextRepository.hpp</text>
</a>
</g>
</g>
<!-- Node1&#45;&gt;Node37 -->
<g id="edge41_Node000001_Node000037" class="edge">
<title>Node1&#45;&gt;Node37</title>
<g id="a_edge41_Node000001_Node000037"><a xlink:title=" ">
<path fill="none" stroke="#63b8ff" d="M3060.28,-178.34C3244.36,-171.22 3755.73,-150.47 4181,-124 4242.07,-120.2 4310.72,-114.94 4364.02,-110.63"/>
<polygon fill="#63b8ff" stroke="#63b8ff" points="3060.27,-174.84 3050.41,-178.72 3060.54,-181.83 3060.27,-174.84"/>
</a>
</g>
</g>
<!-- Node3 -->
<g id="Node000003" class="node">
<title>Node3</title>
<g id="a_Node000003"><a xlink:href="ChallengeBadgeCommand_8cpp.html" target="_top" xlink:title=" ">
<polygon fill="white" stroke="#666666" points="350,-44 184,-44 184,0 350,0 350,-44"/>
<text text-anchor="start" x="192" y="-30.5" font-family="Helvetica,sans-Serif" font-size="10.00">src/bot_library/commands</text>
<text text-anchor="start" x="192" y="-18.5" font-family="Helvetica,sans-Serif" font-size="10.00">/challenge_badge/ChallengeBadge</text>
<text text-anchor="middle" x="267" y="-6.5" font-family="Helvetica,sans-Serif" font-size="10.00">Command.cpp</text>
</a>
</g>
</g>
<!-- Node2&#45;&gt;Node3 -->
<g id="edge2_Node000002_Node000003" class="edge">
<title>Node2&#45;&gt;Node3</title>
<g id="a_edge2_Node000002_Node000003"><a xlink:title=" ">
<path fill="none" stroke="#63b8ff" d="M348.45,-73.82C332.94,-64.15 315.72,-53.4 301.12,-44.29"/>
<polygon fill="#63b8ff" stroke="#63b8ff" points="346.22,-76.56 356.56,-78.88 349.93,-70.62 346.22,-76.56"/>
</a>
</g>
</g>
<!-- Node4 -->
<g id="Node000004" class="node">
<title>Node4</title>
<g id="a_Node000004"><a xlink:href="ChallengeBadgeRepository_8cpp.html" target="_top" xlink:title=" ">
<polygon fill="white" stroke="#666666" points="166,-44 0,-44 0,0 166,0 166,-44"/>
<text text-anchor="start" x="8" y="-30.5" font-family="Helvetica,sans-Serif" font-size="10.00">src/bot_library/commands</text>
<text text-anchor="start" x="8" y="-18.5" font-family="Helvetica,sans-Serif" font-size="10.00">/challenge_badge/ChallengeBadge</text>
<text text-anchor="middle" x="83" y="-6.5" font-family="Helvetica,sans-Serif" font-size="10.00">Repository.cpp</text>
</a>
</g>
</g>
<!-- Node2&#45;&gt;Node4 -->
<g id="edge3_Node000002_Node000004" class="edge">
<title>Node2&#45;&gt;Node4</title>
<g id="a_edge3_Node000002_Node000004"><a xlink:title=" ">
<path fill="none" stroke="#63b8ff" d="M297.73,-77.2C255.83,-66.63 206.91,-54.28 166.36,-44.04"/>
<polygon fill="#63b8ff" stroke="#63b8ff" points="296.77,-80.57 307.32,-79.62 298.48,-73.78 296.77,-80.57"/>
</a>
</g>
</g>
<!-- Node5 -->
<g id="Node000005" class="node">
<title>Node5</title>
<g id="a_Node000005"><a xlink:href="ProfileCommand_8cpp.html" target="_top" xlink:title=" ">
<polygon fill="white" stroke="#666666" points="507.88,-38 368.12,-38 368.12,-6 507.88,-6 507.88,-38"/>
<text text-anchor="start" x="376.12" y="-24.5" font-family="Helvetica,sans-Serif" font-size="10.00">src/bot_library/commands</text>
<text text-anchor="middle" x="438" y="-12.5" font-family="Helvetica,sans-Serif" font-size="10.00">/profile/ProfileCommand.cpp</text>
</a>
</g>
</g>
<!-- Node2&#45;&gt;Node5 -->
<g id="edge4_Node000002_Node000005" class="edge">
<title>Node2&#45;&gt;Node5</title>
<g id="a_edge4_Node000002_Node000005"><a xlink:title=" ">
<path fill="none" stroke="#63b8ff" d="M410.3,-69.97C416.77,-59 423.75,-47.16 429.09,-38.11"/>
<polygon fill="#63b8ff" stroke="#63b8ff" points="407.4,-67.99 405.34,-78.38 413.43,-71.55 407.4,-67.99"/>
</a>
</g>
</g>
<!-- Node6&#45;&gt;Node3 -->
<g id="edge6_Node000006_Node000003" class="edge">
<title>Node6&#45;&gt;Node3</title>
<g id="a_edge6_Node000006_Node000003"><a xlink:title=" ">
<path fill="none" stroke="#63b8ff" d="M564.07,-83.46C504.53,-72.65 427.28,-58.19 359,-44 356.11,-43.4 353.18,-42.78 350.21,-42.15"/>
<polygon fill="#63b8ff" stroke="#63b8ff" points="563.4,-86.89 573.86,-85.23 564.65,-80.01 563.4,-86.89"/>
</a>
</g>
</g>
<!-- Node6&#45;&gt;Node5 -->
<g id="edge9_Node000006_Node000005" class="edge">
<title>Node6&#45;&gt;Node5</title>
<g id="a_edge9_Node000006_Node000005"><a xlink:title=" ">
<path fill="none" stroke="#63b8ff" d="M608,-81.93C569.38,-68.55 518.39,-50.87 482.36,-38.38"/>
<polygon fill="#63b8ff" stroke="#63b8ff" points="606.52,-85.13 617.12,-85.09 608.82,-78.51 606.52,-85.13"/>
</a>
</g>
</g>
<!-- Node7 -->
<g id="Node000007" class="node">
<title>Node7</title>
<g id="a_Node000007"><a xlink:href="UserRepository_8cpp.html" target="_top" xlink:title=" ">
<polygon fill="white" stroke="#666666" points="706.5,-38 525.5,-38 525.5,-6 706.5,-6 706.5,-38"/>
<text text-anchor="start" x="533.5" y="-24.5" font-family="Helvetica,sans-Serif" font-size="10.00">src/bot_library/commands</text>
<text text-anchor="middle" x="616" y="-12.5" font-family="Helvetica,sans-Serif" font-size="10.00">/challenge_badge/UserRepository.cpp</text>
</a>
</g>
</g>
<!-- Node6&#45;&gt;Node7 -->
<g id="edge7_Node000006_Node000007" class="edge">
<title>Node6&#45;&gt;Node7</title>
<g id="a_edge7_Node000006_Node000007"><a xlink:title=" ">
<path fill="none" stroke="#63b8ff" d="M647.85,-75.86C640.41,-63.52 631.7,-49.05 625.27,-38.38"/>
<polygon fill="#63b8ff" stroke="#63b8ff" points="644.77,-77.53 652.93,-84.29 650.77,-73.92 644.77,-77.53"/>
</a>
</g>
</g>
<!-- Node8 -->
<g id="Node000008" class="node">
<title>Node8</title>
<g id="a_Node000008"><a xlink:href="FlipCommand_8cpp.html" target="_top" xlink:title=" ">
<polygon fill="white" stroke="#666666" points="853.25,-38 724.75,-38 724.75,-6 853.25,-6 853.25,-38"/>
<text text-anchor="start" x="732.75" y="-24.5" font-family="Helvetica,sans-Serif" font-size="10.00">src/bot_library/commands</text>
<text text-anchor="middle" x="789" y="-12.5" font-family="Helvetica,sans-Serif" font-size="10.00">/flip/FlipCommand.cpp</text>
</a>
</g>
</g>
<!-- Node6&#45;&gt;Node8 -->
<g id="edge8_Node000006_Node000008" class="edge">
<title>Node6&#45;&gt;Node8</title>
<g id="a_edge8_Node000006_Node000008"><a xlink:title=" ">
<path fill="none" stroke="#63b8ff" d="M697.46,-79.67C718.57,-66.6 745.1,-50.17 764.16,-38.38"/>
<polygon fill="#63b8ff" stroke="#63b8ff" points="695.84,-76.55 689.18,-84.79 699.53,-82.51 695.84,-76.55"/>
</a>
</g>
</g>
<!-- Node9 -->
<g id="Node000009" class="node">
<title>Node9</title>
<g id="a_Node000009"><a xlink:href="RollCommand_8cpp.html" target="_top" xlink:title=" ">
<polygon fill="white" stroke="#666666" points="1000.25,-38 871.75,-38 871.75,-6 1000.25,-6 1000.25,-38"/>
<text text-anchor="start" x="879.75" y="-24.5" font-family="Helvetica,sans-Serif" font-size="10.00">src/bot_library/commands</text>
<text text-anchor="middle" x="936" y="-12.5" font-family="Helvetica,sans-Serif" font-size="10.00">/roll/RollCommand.cpp</text>
</a>
</g>
</g>
<!-- Node6&#45;&gt;Node9 -->
<g id="edge10_Node000006_Node000009" class="edge">
<title>Node6&#45;&gt;Node9</title>
<g id="a_edge10_Node000006_Node000009"><a xlink:title=" ">
<path fill="none" stroke="#63b8ff" d="M727.93,-82.45C775,-69 837.9,-51.03 882.18,-38.38"/>
<polygon fill="#63b8ff" stroke="#63b8ff" points="727.05,-79.06 718.39,-85.17 728.97,-85.79 727.05,-79.06"/>
</a>
</g>
</g>
<!-- Node11 -->
<g id="Node000011" class="node">
<title>Node11</title>
<g id="a_Node000011"><a xlink:href="ChallengeRoleCommand_8cpp.html" target="_top" xlink:title=" ">
<polygon fill="white" stroke="#666666" points="1229.88,-38 1018.12,-38 1018.12,-6 1229.88,-6 1229.88,-38"/>
<text text-anchor="start" x="1026.12" y="-24.5" font-family="Helvetica,sans-Serif" font-size="10.00">src/bot_library/commands</text>
<text text-anchor="middle" x="1124" y="-12.5" font-family="Helvetica,sans-Serif" font-size="10.00">/challenge_role/ChallengeRoleCommand.cpp</text>
</a>
</g>
</g>
<!-- Node10&#45;&gt;Node11 -->
<g id="edge12_Node000010_Node000011" class="edge">
<title>Node10&#45;&gt;Node11</title>
<g id="a_edge12_Node000010_Node000011"><a xlink:title=" ">
<path fill="none" stroke="#63b8ff" d="M1357.03,-82.79C1304.57,-69.33 1233.91,-51.2 1184.2,-38.44"/>
<polygon fill="#63b8ff" stroke="#63b8ff" points="1355.92,-86.12 1366.47,-85.21 1357.66,-79.34 1355.92,-86.12"/>
</a>
</g>
</g>
<!-- Node12 -->
<g id="Node000012" class="node">
<title>Node12</title>
<g id="a_Node000012"><a xlink:href="ChallengeRoleRepository_8cpp.html" target="_top" xlink:title=" ">
<polygon fill="white" stroke="#666666" points="1461.62,-38 1248.38,-38 1248.38,-6 1461.62,-6 1461.62,-38"/>
<text text-anchor="start" x="1256.38" y="-24.5" font-family="Helvetica,sans-Serif" font-size="10.00">src/bot_library/commands</text>
<text text-anchor="middle" x="1355" y="-12.5" font-family="Helvetica,sans-Serif" font-size="10.00">/challenge_role/ChallengeRoleRepository.cpp</text>
</a>
</g>
</g>
<!-- Node10&#45;&gt;Node12 -->
<g id="edge13_Node000010_Node000012" class="edge">
<title>Node10&#45;&gt;Node12</title>
<g id="a_edge13_Node000010_Node000012"><a xlink:title=" ">
<path fill="none" stroke="#63b8ff" d="M1405.84,-77.33C1394.01,-64.68 1379.78,-49.48 1369.39,-38.38"/>
<polygon fill="#63b8ff" stroke="#63b8ff" points="1403.15,-79.58 1412.54,-84.48 1408.27,-74.79 1403.15,-79.58"/>
</a>
</g>
</g>
<!-- Node13 -->
<g id="Node000013" class="node">
<title>Node13</title>
<g id="a_Node000013"><a xlink:href="CleanUp_8cpp.html" target="_top" xlink:title=" ">
<polygon fill="white" stroke="#666666" points="1608.25,-38 1479.75,-38 1479.75,-6 1608.25,-6 1608.25,-38"/>
<text text-anchor="start" x="1487.75" y="-24.5" font-family="Helvetica,sans-Serif" font-size="10.00">src/bot_library/commands</text>
<text text-anchor="middle" x="1544" y="-12.5" font-family="Helvetica,sans-Serif" font-size="10.00">/clean_up/CleanUp.cpp</text>
</a>
</g>
</g>
<!-- Node10&#45;&gt;Node13 -->
<g id="edge14_Node000010_Node000013" class="edge">
<title>Node10&#45;&gt;Node13</title>
<g id="a_edge14_Node000010_Node000013"><a xlink:title=" ">
<path fill="none" stroke="#63b8ff" d="M1460.26,-79.31C1479.6,-66.3 1503.74,-50.07 1521.13,-38.38"/>
<polygon fill="#63b8ff" stroke="#63b8ff" points="1458.52,-76.26 1452.17,-84.75 1462.43,-82.07 1458.52,-76.26"/>
</a>
</g>
</g>
<!-- Node15 -->
<g id="Node000015" class="node">
<title>Node15</title>
<g id="a_Node000015"><a xlink:href="MemberCommand_8cpp.html" target="_top" xlink:title=" ">
<polygon fill="white" stroke="#666666" points="2192.12,-38 2035.88,-38 2035.88,-6 2192.12,-6 2192.12,-38"/>
<text text-anchor="start" x="2043.88" y="-24.5" font-family="Helvetica,sans-Serif" font-size="10.00">src/bot_library/commands</text>
<text text-anchor="middle" x="2114" y="-12.5" font-family="Helvetica,sans-Serif" font-size="10.00">/member/MemberCommand.cpp</text>
</a>
</g>
</g>
<!-- Node14&#45;&gt;Node15 -->
<g id="edge16_Node000014_Node000015" class="edge">
<title>Node14&#45;&gt;Node15</title>
<g id="a_edge16_Node000014_Node000015"><a xlink:title=" ">
<path fill="none" stroke="#63b8ff" d="M2265.73,-81.59C2231.17,-68.24 2185.9,-50.76 2153.83,-38.38"/>
<polygon fill="#63b8ff" stroke="#63b8ff" points="2264.09,-84.71 2274.68,-85.04 2266.61,-78.18 2264.09,-84.71"/>
</a>
</g>
</g>
<!-- Node16 -->
<g id="Node000016" class="node">
<title>Node16</title>
<g id="a_Node000016"><a xlink:href="MemberRepository_8cpp.html" target="_top" xlink:title=" ">
<polygon fill="white" stroke="#666666" points="2421.5,-38 2210.5,-38 2210.5,-6 2421.5,-6 2421.5,-38"/>
<text text-anchor="start" x="2218.5" y="-24.5" font-family="Helvetica,sans-Serif" font-size="10.00">src/bot_library/commands</text>
<text text-anchor="middle" x="2316" y="-12.5" font-family="Helvetica,sans-Serif" font-size="10.00">/member/repositories/MemberRepository.cpp</text>
</a>
</g>
</g>
<!-- Node14&#45;&gt;Node16 -->
<g id="edge17_Node000014_Node000016" class="edge">
<title>Node14&#45;&gt;Node16</title>
<g id="a_edge17_Node000014_Node000016"><a xlink:title=" ">
<path fill="none" stroke="#63b8ff" d="M2316,-74.37C2316,-62.37 2316,-48.63 2316,-38.38"/>
<polygon fill="#63b8ff" stroke="#63b8ff" points="2312.5,-74.08 2316,-84.08 2319.5,-74.08 2312.5,-74.08"/>
</a>
</g>
</g>
<!-- Node18 -->
<g id="Node000018" class="node">
<title>Node18</title>
<g id="a_Node000018"><a xlink:href="RemovePortalCommand_8cpp.html" target="_top" xlink:title=" ">
<polygon fill="white" stroke="#666666" points="2612,-38 2440,-38 2440,-6 2612,-6 2612,-38"/>
<text text-anchor="start" x="2448" y="-24.5" font-family="Helvetica,sans-Serif" font-size="10.00">src/bot_library/commands</text>
<text text-anchor="middle" x="2526" y="-12.5" font-family="Helvetica,sans-Serif" font-size="10.00">/portal/RemovePortalCommand.cpp</text>
</a>
</g>
</g>
<!-- Node17&#45;&gt;Node18 -->
<g id="edge19_Node000017_Node000018" class="edge">
<title>Node17&#45;&gt;Node18</title>
<g id="a_edge19_Node000017_Node000018"><a xlink:title=" ">
<path fill="none" stroke="#63b8ff" d="M2734.07,-82.45C2687,-69 2624.1,-51.03 2579.82,-38.38"/>
<polygon fill="#63b8ff" stroke="#63b8ff" points="2733.03,-85.79 2743.61,-85.17 2734.95,-79.06 2733.03,-85.79"/>
</a>
</g>
</g>
<!-- Node19 -->
<g id="Node000019" class="node">
<title>Node19</title>
<g id="a_Node000019"><a xlink:href="SetPortalCommand_8cpp.html" target="_top" xlink:title=" ">
<polygon fill="white" stroke="#666666" points="2780.12,-38 2629.88,-38 2629.88,-6 2780.12,-6 2780.12,-38"/>
<text text-anchor="start" x="2637.88" y="-24.5" font-family="Helvetica,sans-Serif" font-size="10.00">src/bot_library/commands</text>
<text text-anchor="middle" x="2705" y="-12.5" font-family="Helvetica,sans-Serif" font-size="10.00">/portal/SetPortalCommand.cpp</text>
</a>
</g>
</g>
<!-- Node17&#45;&gt;Node19 -->
<g id="edge20_Node000017_Node000019" class="edge">
<title>Node17&#45;&gt;Node19</title>
<g id="a_edge20_Node000017_Node000019"><a xlink:title=" ">
<path fill="none" stroke="#63b8ff" d="M2771.78,-78.41C2756.29,-65.56 2737.3,-49.8 2723.53,-38.38"/>
<polygon fill="#63b8ff" stroke="#63b8ff" points="2769.33,-80.93 2779.26,-84.62 2773.8,-75.54 2769.33,-80.93"/>
</a>
</g>
</g>
<!-- Node20 -->
<g id="Node000020" class="node">
<title>Node20</title>
<g id="a_Node000020"><a xlink:href="PortalRepository_8cpp.html" target="_top" xlink:title=" ">
<polygon fill="white" stroke="#666666" points="2988,-38 2798,-38 2798,-6 2988,-6 2988,-38"/>
<text text-anchor="start" x="2806" y="-24.5" font-family="Helvetica,sans-Serif" font-size="10.00">src/bot_library/commands</text>
<text text-anchor="middle" x="2893" y="-12.5" font-family="Helvetica,sans-Serif" font-size="10.00">/portal/repositories/PortalRepository.cpp</text>
</a>
</g>
</g>
<!-- Node17&#45;&gt;Node20 -->
<g id="edge21_Node000017_Node000020" class="edge">
<title>Node17&#45;&gt;Node20</title>
<g id="a_edge21_Node000017_Node000020"><a xlink:title=" ">
<path fill="none" stroke="#63b8ff" d="M2826.22,-78.41C2841.71,-65.56 2860.7,-49.8 2874.47,-38.38"/>
<polygon fill="#63b8ff" stroke="#63b8ff" points="2824.2,-75.54 2818.74,-84.62 2828.67,-80.93 2824.2,-75.54"/>
</a>
</g>
</g>
<!-- Node22 -->
<g id="Node000022" class="node">
<title>Node22</title>
<g id="a_Node000022"><a xlink:href="ProductsCommand_8cpp.html" target="_top" xlink:title=" ">
<polygon fill="white" stroke="#666666" points="3168.12,-38 3005.88,-38 3005.88,-6 3168.12,-6 3168.12,-38"/>
<text text-anchor="start" x="3013.88" y="-24.5" font-family="Helvetica,sans-Serif" font-size="10.00">src/bot_library/commands</text>
<text text-anchor="middle" x="3087" y="-12.5" font-family="Helvetica,sans-Serif" font-size="10.00">/products/ProductsCommand.cpp</text>
</a>
</g>
</g>
<!-- Node21&#45;&gt;Node22 -->
<g id="edge23_Node000021_Node000022" class="edge">
<title>Node21&#45;&gt;Node22</title>
<g id="a_edge23_Node000021_Node000022"><a xlink:title=" ">
<path fill="none" stroke="#63b8ff" d="M3087,-68.28C3087,-57.8 3087,-46.7 3087,-38.11"/>
<polygon fill="#63b8ff" stroke="#63b8ff" points="3083.5,-68.17 3087,-78.17 3090.5,-68.17 3083.5,-68.17"/>
</a>
</g>
</g>
<!-- Node23 -->
<g id="Node000023" class="node">
<title>Node23</title>
<g id="a_Node000023"><a xlink:href="ProductRepository_8cpp.html" target="_top" xlink:title=" ">
<polygon fill="white" stroke="#666666" points="3314.25,-44 3185.75,-44 3185.75,0 3314.25,0 3314.25,-44"/>
<text text-anchor="start" x="3193.75" y="-30.5" font-family="Helvetica,sans-Serif" font-size="10.00">src/bot_library/commands</text>
<text text-anchor="start" x="3193.75" y="-18.5" font-family="Helvetica,sans-Serif" font-size="10.00">/products/repositories</text>
<text text-anchor="middle" x="3250" y="-6.5" font-family="Helvetica,sans-Serif" font-size="10.00">/ProductRepository.cpp</text>
</a>
</g>
</g>
<!-- Node21&#45;&gt;Node23 -->
<g id="edge24_Node000021_Node000023" class="edge">
<title>Node21&#45;&gt;Node23</title>
<g id="a_edge24_Node000021_Node000023"><a xlink:title=" ">
<path fill="none" stroke="#63b8ff" d="M3141.75,-74.8C3162.39,-64.92 3185.61,-53.81 3205.23,-44.42"/>
<polygon fill="#63b8ff" stroke="#63b8ff" points="3140.42,-71.56 3132.91,-79.03 3143.44,-77.87 3140.42,-71.56"/>
</a>
</g>
</g>
<!-- Node24&#45;&gt;Node13 -->
<g id="edge26_Node000024_Node000013" class="edge">
<title>Node24&#45;&gt;Node13</title>
<g id="a_edge26_Node000024_Node000013"><a xlink:title=" ">
<path fill="none" stroke="#63b8ff" d="M1761.63,-82.74C1719.6,-71.74 1665.18,-57.31 1617,-44 1610.64,-42.24 1603.99,-40.37 1597.39,-38.5"/>
<polygon fill="#63b8ff" stroke="#63b8ff" points="1760.57,-86.08 1771.13,-85.22 1762.34,-79.31 1760.57,-86.08"/>
</a>
</g>
</g>
<!-- Node25 -->
<g id="Node000025" class="node">
<title>Node25</title>
<g id="a_Node000025"><a xlink:href="ReactionRoleRepository_8cpp.html" target="_top" xlink:title=" ">
<polygon fill="white" stroke="#666666" points="1833.62,-38 1626.38,-38 1626.38,-6 1833.62,-6 1833.62,-38"/>
<text text-anchor="start" x="1634.38" y="-24.5" font-family="Helvetica,sans-Serif" font-size="10.00">src/bot_library/commands</text>
<text text-anchor="middle" x="1730" y="-12.5" font-family="Helvetica,sans-Serif" font-size="10.00">/reaction_roles/ReactionRoleRepository.cpp</text>
</a>
</g>
</g>
<!-- Node24&#45;&gt;Node25 -->
<g id="edge27_Node000024_Node000025" class="edge">
<title>Node24&#45;&gt;Node25</title>
<g id="a_edge27_Node000024_Node000025"><a xlink:title=" ">
<path fill="none" stroke="#63b8ff" d="M1802.93,-78.77C1786.04,-65.86 1765.19,-49.91 1750.11,-38.38"/>
<polygon fill="#63b8ff" stroke="#63b8ff" points="1800.58,-81.38 1810.65,-84.67 1804.83,-75.82 1800.58,-81.38"/>
</a>
</g>
</g>
<!-- Node26 -->
<g id="Node000026" class="node">
<title>Node26</title>
<g id="a_Node000026"><a xlink:href="ReactionRoles_8cpp.html" target="_top" xlink:title=" ">
<polygon fill="white" stroke="#666666" points="2018,-38 1852,-38 1852,-6 2018,-6 2018,-38"/>
<text text-anchor="start" x="1860" y="-24.5" font-family="Helvetica,sans-Serif" font-size="10.00">src/bot_library/commands</text>
<text text-anchor="middle" x="1935" y="-12.5" font-family="Helvetica,sans-Serif" font-size="10.00">/reaction_roles/ReactionRoles.cpp</text>
</a>
</g>
</g>
<!-- Node24&#45;&gt;Node26 -->
<g id="edge28_Node000024_Node000026" class="edge">
<title>Node24&#45;&gt;Node26</title>
<g id="a_edge28_Node000024_Node000026"><a xlink:title=" ">
<path fill="none" stroke="#63b8ff" d="M1861.35,-78.77C1878.41,-65.86 1899.47,-49.91 1914.69,-38.38"/>
<polygon fill="#63b8ff" stroke="#63b8ff" points="1859.42,-75.85 1853.56,-84.68 1863.64,-81.43 1859.42,-75.85"/>
</a>
</g>
</g>
<!-- Node28 -->
<g id="Node000028" class="node">
<title>Node28</title>
<g id="a_Node000028"><a xlink:href="ResourcesCommand_8cpp.html" target="_top" xlink:title=" ">
<polygon fill="white" stroke="#666666" points="3507.88,-38 3332.12,-38 3332.12,-6 3507.88,-6 3507.88,-38"/>
<text text-anchor="start" x="3340.12" y="-24.5" font-family="Helvetica,sans-Serif" font-size="10.00">src/bot_library/commands</text>
<text text-anchor="middle" x="3420" y="-12.5" font-family="Helvetica,sans-Serif" font-size="10.00">/resources/ResourcesCommand.cpp</text>
</a>
</g>
</g>
<!-- Node27&#45;&gt;Node28 -->
<g id="edge30_Node000027_Node000028" class="edge">
<title>Node27&#45;&gt;Node28</title>
<g id="a_edge30_Node000027_Node000028"><a xlink:title=" ">
<path fill="none" stroke="#63b8ff" d="M3420,-68.28C3420,-57.8 3420,-46.7 3420,-38.11"/>
<polygon fill="#63b8ff" stroke="#63b8ff" points="3416.5,-68.17 3420,-78.17 3423.5,-68.17 3416.5,-68.17"/>
</a>
</g>
</g>
<!-- Node29 -->
<g id="Node000029" class="node">
<title>Node29</title>
<g id="a_Node000029"><a xlink:href="ResourceRepository_8cpp.html" target="_top" xlink:title=" ">
<polygon fill="white" stroke="#666666" points="3654.25,-44 3525.75,-44 3525.75,0 3654.25,0 3654.25,-44"/>
<text text-anchor="start" x="3533.75" y="-30.5" font-family="Helvetica,sans-Serif" font-size="10.00">src/bot_library/commands</text>
<text text-anchor="start" x="3533.75" y="-18.5" font-family="Helvetica,sans-Serif" font-size="10.00">/resources/repositories</text>
<text text-anchor="middle" x="3590" y="-6.5" font-family="Helvetica,sans-Serif" font-size="10.00">/ResourceRepository.cpp</text>
</a>
</g>
</g>
<!-- Node27&#45;&gt;Node29 -->
<g id="edge31_Node000027_Node000029" class="edge">
<title>Node27&#45;&gt;Node29</title>
<g id="a_edge31_Node000027_Node000029"><a xlink:title=" ">
<path fill="none" stroke="#63b8ff" d="M3476.81,-74.93C3498.41,-65.02 3522.75,-53.86 3543.31,-44.42"/>
<polygon fill="#63b8ff" stroke="#63b8ff" points="3475.46,-71.7 3467.83,-79.05 3478.38,-78.07 3475.46,-71.7"/>
</a>
</g>
</g>
<!-- Node31 -->
<g id="Node000031" class="node">
<title>Node31</title>
<g id="a_Node000031"><a xlink:href="SetChannelCommand_8cpp.html" target="_top" xlink:title=" ">
<polygon fill="white" stroke="#666666" points="4015.62,-38 3826.38,-38 3826.38,-6 4015.62,-6 4015.62,-38"/>
<text text-anchor="start" x="3834.38" y="-24.5" font-family="Helvetica,sans-Serif" font-size="10.00">src/bot_library/commands</text>
<text text-anchor="middle" x="3921" y="-12.5" font-family="Helvetica,sans-Serif" font-size="10.00">/set_channel/SetChannelCommand.cpp</text>
</a>
</g>
</g>
<!-- Node30&#45;&gt;Node31 -->
<g id="edge33_Node000030_Node000031" class="edge">
<title>Node30&#45;&gt;Node31</title>
<g id="a_edge33_Node000030_Node000031"><a xlink:title=" ">
<path fill="none" stroke="#63b8ff" d="M4034.95,-74.98C4008.42,-62.87 3977.75,-48.89 3954.92,-38.47"/>
<polygon fill="#63b8ff" stroke="#63b8ff" points="4033.35,-78.09 4043.9,-79.06 4036.25,-71.72 4033.35,-78.09"/>
</a>
</g>
</g>
<!-- Node32 -->
<g id="Node000032" class="node">
<title>Node32</title>
<g id="a_Node000032"><a xlink:href="GoodbyeChannelRepository_8cpp.html" target="_top" xlink:title=" ">
<polygon fill="white" stroke="#666666" points="4371.62,-44 4212.38,-44 4212.38,0 4371.62,0 4371.62,-44"/>
<text text-anchor="start" x="4220.38" y="-30.5" font-family="Helvetica,sans-Serif" font-size="10.00">src/bot_library/commands</text>
<text text-anchor="start" x="4220.38" y="-18.5" font-family="Helvetica,sans-Serif" font-size="10.00">/set_channel/repositories</text>
<text text-anchor="middle" x="4292" y="-6.5" font-family="Helvetica,sans-Serif" font-size="10.00">/GoodbyeChannelRepository.cpp</text>
</a>
</g>
</g>
<!-- Node30&#45;&gt;Node32 -->
<g id="edge34_Node000030_Node000032" class="edge">
<title>Node30&#45;&gt;Node32</title>
<g id="a_edge34_Node000030_Node000032"><a xlink:title=" ">
<path fill="none" stroke="#63b8ff" d="M4157.37,-75.51C4183.19,-65.44 4212.52,-54 4237.21,-44.37"/>
<polygon fill="#63b8ff" stroke="#63b8ff" points="4156.37,-72.14 4148.33,-79.03 4158.91,-78.66 4156.37,-72.14"/>
</a>
</g>
</g>
<!-- Node33&#45;&gt;Node31 -->
<g id="edge36_Node000033_Node000031" class="edge">
<title>Node33&#45;&gt;Node31</title>
<g id="a_edge36_Node000033_Node000031"><a xlink:title=" ">
<path fill="none" stroke="#63b8ff" d="M3800.01,-75.14C3828.18,-63 3860.82,-48.93 3885.09,-38.47"/>
<polygon fill="#63b8ff" stroke="#63b8ff" points="3798.65,-71.92 3790.85,-79.09 3801.42,-78.34 3798.65,-71.92"/>
</a>
</g>
</g>
<!-- Node34 -->
<g id="Node000034" class="node">
<title>Node34</title>
<g id="a_Node000034"><a xlink:href="LogChannelRepository_8cpp.html" target="_top" xlink:title=" ">
<polygon fill="white" stroke="#666666" points="3808,-44 3672,-44 3672,0 3808,0 3808,-44"/>
<text text-anchor="start" x="3680" y="-30.5" font-family="Helvetica,sans-Serif" font-size="10.00">src/bot_library/commands</text>
<text text-anchor="start" x="3680" y="-18.5" font-family="Helvetica,sans-Serif" font-size="10.00">/set_channel/repositories</text>
<text text-anchor="middle" x="3740" y="-6.5" font-family="Helvetica,sans-Serif" font-size="10.00">/LogChannelRepository.cpp</text>
</a>
</g>
</g>
<!-- Node33&#45;&gt;Node34 -->
<g id="edge37_Node000033_Node000034" class="edge">
<title>Node33&#45;&gt;Node34</title>
<g id="a_edge37_Node000033_Node000034"><a xlink:title=" ">
<path fill="none" stroke="#63b8ff" d="M3740,-68.25C3740,-60.15 3740,-51.68 3740,-44.29"/>
<polygon fill="#63b8ff" stroke="#63b8ff" points="3736.5,-68.17 3740,-78.17 3743.5,-68.17 3736.5,-68.17"/>
</a>
</g>
</g>
<!-- Node35&#45;&gt;Node31 -->
<g id="edge39_Node000035_Node000031" class="edge">
<title>Node35&#45;&gt;Node31</title>
<g id="a_edge39_Node000035_Node000031"><a xlink:title=" ">
<path fill="none" stroke="#63b8ff" d="M3916.94,-68.28C3917.88,-57.8 3918.87,-46.7 3919.64,-38.11"/>
<polygon fill="#63b8ff" stroke="#63b8ff" points="3913.46,-67.91 3916.05,-78.18 3920.43,-68.53 3913.46,-67.91"/>
</a>
</g>
</g>
<!-- Node36 -->
<g id="Node000036" class="node">
<title>Node36</title>
<g id="a_Node000036"><a xlink:href="WelcomeChannelRepository_8cpp.html" target="_top" xlink:title=" ">
<polygon fill="white" stroke="#666666" points="4194.38,-44 4033.62,-44 4033.62,0 4194.38,0 4194.38,-44"/>
<text text-anchor="start" x="4041.62" y="-30.5" font-family="Helvetica,sans-Serif" font-size="10.00">src/bot_library/commands</text>
<text text-anchor="start" x="4041.62" y="-18.5" font-family="Helvetica,sans-Serif" font-size="10.00">/set_channel/repositories</text>
<text text-anchor="middle" x="4114" y="-6.5" font-family="Helvetica,sans-Serif" font-size="10.00">/WelcomeChannelRepository.cpp</text>
</a>
</g>
</g>
<!-- Node35&#45;&gt;Node36 -->
<g id="edge40_Node000035_Node000036" class="edge">
<title>Node35&#45;&gt;Node36</title>
<g id="a_edge40_Node000035_Node000036"><a xlink:title=" ">
<path fill="none" stroke="#63b8ff" d="M3979.37,-75.51C4005.19,-65.44 4034.52,-54 4059.21,-44.37"/>
<polygon fill="#63b8ff" stroke="#63b8ff" points="3978.37,-72.14 3970.33,-79.03 3980.91,-78.66 3978.37,-72.14"/>
</a>
</g>
</g>
<!-- Node38 -->
<g id="Node000038" class="node">
<title>Node38</title>
<g id="a_Node000038"><a xlink:href="TextsCommand_8cpp.html" target="_top" xlink:title=" ">
<polygon fill="white" stroke="#666666" points="4520.75,-38 4389.25,-38 4389.25,-6 4520.75,-6 4520.75,-38"/>
<text text-anchor="start" x="4397.25" y="-24.5" font-family="Helvetica,sans-Serif" font-size="10.00">src/bot_library/commands</text>
<text text-anchor="middle" x="4455" y="-12.5" font-family="Helvetica,sans-Serif" font-size="10.00">/texts/TextsCommand.cpp</text>
</a>
</g>
</g>
<!-- Node37&#45;&gt;Node38 -->
<g id="edge42_Node000037_Node000038" class="edge">
<title>Node37&#45;&gt;Node38</title>
<g id="a_edge42_Node000037_Node000038"><a xlink:title=" ">
<path fill="none" stroke="#63b8ff" d="M4455,-74.37C4455,-62.37 4455,-48.63 4455,-38.38"/>
<polygon fill="#63b8ff" stroke="#63b8ff" points="4451.5,-74.08 4455,-84.08 4458.5,-74.08 4451.5,-74.08"/>
</a>
</g>
</g>
<!-- Node39 -->
<g id="Node000039" class="node">
<title>Node39</title>
<g id="a_Node000039"><a xlink:href="TextRepository_8cpp.html" target="_top" xlink:title=" ">
<polygon fill="white" stroke="#666666" points="4719.5,-38 4538.5,-38 4538.5,-6 4719.5,-6 4719.5,-38"/>
<text text-anchor="start" x="4546.5" y="-24.5" font-family="Helvetica,sans-Serif" font-size="10.00">src/bot_library/commands</text>
<text text-anchor="middle" x="4629" y="-12.5" font-family="Helvetica,sans-Serif" font-size="10.00">/texts/repositories/TextRepository.cpp</text>
</a>
</g>
</g>
<!-- Node37&#45;&gt;Node39 -->
<g id="edge43_Node000037_Node000039" class="edge">
<title>Node37&#45;&gt;Node39</title>
<g id="a_edge43_Node000037_Node000039"><a xlink:title=" ">
<path fill="none" stroke="#63b8ff" d="M4499.85,-80.9C4529.41,-67.64 4567.55,-50.55 4594.69,-38.38"/>
<polygon fill="#63b8ff" stroke="#63b8ff" points="4498.45,-77.69 4490.76,-84.97 4501.31,-84.07 4498.45,-77.69"/>
</a>
</g>
</g>
</g>
</svg>
