<?xml version="1.0" encoding="UTF-8" standalone="no"?>
<!DOCTYPE svg PUBLIC "-//W3C//DTD SVG 1.1//EN"
 "http://www.w3.org/Graphics/SVG/1.1/DTD/svg11.dtd">
<!-- Generated by graphviz version 10.0.1 (0)
 -->
<!-- Title: src/bot_library/bot/core/interfaces/include/IRepository.hpp Pages: 1 -->
<svg width="4161pt" height="212pt"
 viewBox="0.00 0.00 4160.75 212.00" xmlns="http://www.w3.org/2000/svg" xmlns:xlink="http://www.w3.org/1999/xlink">
<g id="graph0" class="graph" transform="scale(1 1) rotate(0) translate(4 208)">
<title>src/bot_library/bot/core/interfaces/include/IRepository.hpp</title>
<!-- Node1 -->
<g id="Node000001" class="node">
<title>Node1</title>
<g id="a_Node000001"><a xlink:title=" ">
<polygon fill="#999999" stroke="#666666" points="2657.62,-204 2540.38,-204 2540.38,-160 2657.62,-160 2657.62,-204"/>
<text text-anchor="start" x="2548.38" y="-190.5" font-family="Helvetica,sans-Serif" font-size="10.00">src/bot_library/bot</text>
<text text-anchor="start" x="2548.38" y="-178.5" font-family="Helvetica,sans-Serif" font-size="10.00">/core/interfaces/include</text>
<text text-anchor="middle" x="2599" y="-166.5" font-family="Helvetica,sans-Serif" font-size="10.00">/IRepository.hpp</text>
</a>
</g>
</g>
<!-- Node2 -->
<g id="Node000002" class="node">
<title>Node2</title>
<g id="a_Node000002"><a xlink:href="ChallengeBadgeRepository_8hpp.html" target="_top" xlink:title=" ">
<polygon fill="white" stroke="#666666" points="423,-124 257,-124 257,-80 423,-80 423,-124"/>
<text text-anchor="start" x="265" y="-110.5" font-family="Helvetica,sans-Serif" font-size="10.00">src/bot_library/commands</text>
<text text-anchor="start" x="265" y="-98.5" font-family="Helvetica,sans-Serif" font-size="10.00">/challenge_badge/ChallengeBadge</text>
<text text-anchor="middle" x="340" y="-86.5" font-family="Helvetica,sans-Serif" font-size="10.00">Repository.hpp</text>
</a>
</g>
</g>
<!-- Node1&#45;&gt;Node2 -->
<g id="edge1_Node000001_Node000002" class="edge">
<title>Node1&#45;&gt;Node2</title>
<g id="a_edge1_Node000001_Node000002"><a xlink:title=" ">
<path fill="none" stroke="#63b8ff" d="M2528.82,-180.28C2271.71,-177.39 1357.07,-164.68 604,-124 543.51,-120.73 475.36,-115.27 423.45,-110.73"/>
<polygon fill="#63b8ff" stroke="#63b8ff" points="2528.65,-183.78 2538.69,-180.39 2528.73,-176.78 2528.65,-183.78"/>
</a>
</g>
</g>
<!-- Node6 -->
<g id="Node000006" class="node">
<title>Node6</title>
<g id="a_Node000006"><a xlink:href="UserRepository_8hpp.html" target="_top" xlink:title=" ">
<polygon fill="white" stroke="#666666" points="794.5,-118 613.5,-118 613.5,-86 794.5,-86 794.5,-118"/>
<text text-anchor="start" x="621.5" y="-104.5" font-family="Helvetica,sans-Serif" font-size="10.00">src/bot_library/commands</text>
<text text-anchor="middle" x="704" y="-92.5" font-family="Helvetica,sans-Serif" font-size="10.00">/challenge_badge/UserRepository.hpp</text>
</a>
</g>
</g>
<!-- Node1&#45;&gt;Node6 -->
<g id="edge5_Node000001_Node000006" class="edge">
<title>Node1&#45;&gt;Node6</title>
<g id="a_edge5_Node000001_Node000006"><a xlink:title=" ">
<path fill="none" stroke="#63b8ff" d="M2528.7,-178.11C2237,-166.1 1121.91,-120.2 794.74,-106.74"/>
<polygon fill="#63b8ff" stroke="#63b8ff" points="2528.3,-181.59 2538.43,-178.51 2528.59,-174.6 2528.3,-181.59"/>
</a>
</g>
</g>
<!-- Node10 -->
<g id="Node000010" class="node">
<title>Node10</title>
<g id="a_Node000010"><a xlink:href="ChallengeRoleRepository_8hpp.html" target="_top" xlink:title=" ">
<polygon fill="white" stroke="#666666" points="1525.62,-118 1312.38,-118 1312.38,-86 1525.62,-86 1525.62,-118"/>
<text text-anchor="start" x="1320.38" y="-104.5" font-family="Helvetica,sans-Serif" font-size="10.00">src/bot_library/commands</text>
<text text-anchor="middle" x="1419" y="-92.5" font-family="Helvetica,sans-Serif" font-size="10.00">/challenge_role/ChallengeRoleRepository.hpp</text>
</a>
</g>
</g>
<!-- Node1&#45;&gt;Node10 -->
<g id="edge11_Node000001_Node000010" class="edge">
<title>Node1&#45;&gt;Node10</title>
<g id="a_edge11_Node000001_Node000010"><a xlink:title=" ">
<path fill="none" stroke="#63b8ff" d="M2528.61,-176.82C2376.94,-167.75 2008.02,-145.37 1699,-124 1641.86,-120.05 1578.18,-115.3 1526.01,-111.32"/>
<polygon fill="#63b8ff" stroke="#63b8ff" points="2528.31,-180.31 2538.5,-177.41 2528.73,-173.32 2528.31,-180.31"/>
</a>
</g>
</g>
<!-- Node14 -->
<g id="Node000014" class="node">
<title>Node14</title>
<g id="a_Node000014"><a xlink:href="MemberRepository_8hpp.html" target="_top" xlink:title=" ">
<polygon fill="white" stroke="#666666" points="2449.5,-118 2238.5,-118 2238.5,-86 2449.5,-86 2449.5,-118"/>
<text text-anchor="start" x="2246.5" y="-104.5" font-family="Helvetica,sans-Serif" font-size="10.00">src/bot_library/commands</text>
<text text-anchor="middle" x="2344" y="-92.5" font-family="Helvetica,sans-Serif" font-size="10.00">/member/repositories/MemberRepository.hpp</text>
</a>
</g>
</g>
<!-- Node1&#45;&gt;Node14 -->
<g id="edge15_Node000001_Node000014" class="edge">
<title>Node1&#45;&gt;Node14</title>
<g id="a_edge15_Node000001_Node000014"><a xlink:title=" ">
<path fill="none" stroke="#63b8ff" d="M2529.29,-159.68C2486.59,-146.62 2432.93,-130.2 2394.35,-118.4"/>
<polygon fill="#63b8ff" stroke="#63b8ff" points="2528.14,-162.99 2538.73,-162.56 2530.19,-156.29 2528.14,-162.99"/>
</a>
</g>
</g>
<!-- Node17 -->
<g id="Node000017" class="node">
<title>Node17</title>
<g id="a_Node000017"><a xlink:href="ProductRepository_8hpp.html" target="_top" xlink:title=" ">
<polygon fill="white" stroke="#666666" points="2663.25,-124 2534.75,-124 2534.75,-80 2663.25,-80 2663.25,-124"/>
<text text-anchor="start" x="2542.75" y="-110.5" font-family="Helvetica,sans-Serif" font-size="10.00">src/bot_library/commands</text>
<text text-anchor="start" x="2542.75" y="-98.5" font-family="Helvetica,sans-Serif" font-size="10.00">/products/repositories</text>
<text text-anchor="middle" x="2599" y="-86.5" font-family="Helvetica,sans-Serif" font-size="10.00">/ProductRepository.hpp</text>
</a>
</g>
</g>
<!-- Node1&#45;&gt;Node17 -->
<g id="edge18_Node000001_Node000017" class="edge">
<title>Node1&#45;&gt;Node17</title>
<g id="a_edge18_Node000001_Node000017"><a xlink:title=" ">
<path fill="none" stroke="#63b8ff" d="M2599,-148.25C2599,-140.15 2599,-131.68 2599,-124.29"/>
<polygon fill="#63b8ff" stroke="#63b8ff" points="2595.5,-148.17 2599,-158.17 2602.5,-148.17 2595.5,-148.17"/>
</a>
</g>
</g>
<!-- Node20 -->
<g id="Node000020" class="node">
<title>Node20</title>
<g id="a_Node000020"><a xlink:href="ReactionRoleRepository_8hpp.html" target="_top" xlink:title=" ">
<polygon fill="white" stroke="#666666" points="1915.62,-118 1708.38,-118 1708.38,-86 1915.62,-86 1915.62,-118"/>
<text text-anchor="start" x="1716.38" y="-104.5" font-family="Helvetica,sans-Serif" font-size="10.00">src/bot_library/commands</text>
<text text-anchor="middle" x="1812" y="-92.5" font-family="Helvetica,sans-Serif" font-size="10.00">/reaction_roles/ReactionRoleRepository.hpp</text>
</a>
</g>
</g>
<!-- Node1&#45;&gt;Node20 -->
<g id="edge21_Node000001_Node000020" class="edge">
<title>Node1&#45;&gt;Node20</title>
<g id="a_edge21_Node000001_Node000020"><a xlink:title=" ">
<path fill="none" stroke="#63b8ff" d="M2528.86,-174.05C2389.91,-160.28 2079.03,-129.47 1916.12,-113.32"/>
<polygon fill="#63b8ff" stroke="#63b8ff" points="2528.37,-177.52 2538.66,-175.02 2529.06,-170.55 2528.37,-177.52"/>
</a>
</g>
</g>
<!-- Node23 -->
<g id="Node000023" class="node">
<title>Node23</title>
<g id="a_Node000023"><a xlink:href="ResourceRepository_8hpp.html" target="_top" xlink:title=" ">
<polygon fill="white" stroke="#666666" points="2894.25,-124 2765.75,-124 2765.75,-80 2894.25,-80 2894.25,-124"/>
<text text-anchor="start" x="2773.75" y="-110.5" font-family="Helvetica,sans-Serif" font-size="10.00">src/bot_library/commands</text>
<text text-anchor="start" x="2773.75" y="-98.5" font-family="Helvetica,sans-Serif" font-size="10.00">/resources/repositories</text>
<text text-anchor="middle" x="2830" y="-86.5" font-family="Helvetica,sans-Serif" font-size="10.00">/ResourceRepository.hpp</text>
</a>
</g>
</g>
<!-- Node1&#45;&gt;Node23 -->
<g id="edge25_Node000001_Node000023" class="edge">
<title>Node1&#45;&gt;Node23</title>
<g id="a_edge25_Node000001_Node000023"><a xlink:title=" ">
<path fill="none" stroke="#63b8ff" d="M2668.64,-157.49C2699.69,-147 2736.03,-134.73 2766.35,-124.49"/>
<polygon fill="#63b8ff" stroke="#63b8ff" points="2667.68,-154.12 2659.32,-160.63 2669.92,-160.75 2667.68,-154.12"/>
</a>
</g>
</g>
<!-- Node26 -->
<g id="Node000026" class="node">
<title>Node26</title>
<g id="a_Node000026"><a xlink:href="GoodbyeChannelRepository_8hpp.html" target="_top" xlink:title=" ">
<polygon fill="white" stroke="#666666" points="3612.62,-124 3453.38,-124 3453.38,-80 3612.62,-80 3612.62,-124"/>
<text text-anchor="start" x="3461.38" y="-110.5" font-family="Helvetica,sans-Serif" font-size="10.00">src/bot_library/commands</text>
<text text-anchor="start" x="3461.38" y="-98.5" font-family="Helvetica,sans-Serif" font-size="10.00">/set_channel/repositories</text>
<text text-anchor="middle" x="3533" y="-86.5" font-family="Helvetica,sans-Serif" font-size="10.00">/GoodbyeChannelRepository.hpp</text>
</a>
</g>
</g>
<!-- Node1&#45;&gt;Node26 -->
<g id="edge28_Node000001_Node000026" class="edge">
<title>Node1&#45;&gt;Node26</title>
<g id="a_edge28_Node000001_Node000026"><a xlink:title=" ">
<path fill="none" stroke="#63b8ff" d="M2669.1,-179.28C2812.41,-175.07 3149.04,-161.71 3429,-124 3436.85,-122.94 3445,-121.65 3453.12,-120.23"/>
<polygon fill="#63b8ff" stroke="#63b8ff" points="2669.29,-175.77 2659.4,-179.55 2669.49,-182.77 2669.29,-175.77"/>
</a>
</g>
</g>
<!-- Node29 -->
<g id="Node000029" class="node">
<title>Node29</title>
<g id="a_Node000029"><a xlink:href="LogChannelRepository_8hpp.html" target="_top" xlink:title=" ">
<polygon fill="white" stroke="#666666" points="3242,-124 3106,-124 3106,-80 3242,-80 3242,-124"/>
<text text-anchor="start" x="3114" y="-110.5" font-family="Helvetica,sans-Serif" font-size="10.00">src/bot_library/commands</text>
<text text-anchor="start" x="3114" y="-98.5" font-family="Helvetica,sans-Serif" font-size="10.00">/set_channel/repositories</text>
<text text-anchor="middle" x="3174" y="-86.5" font-family="Helvetica,sans-Serif" font-size="10.00">/LogChannelRepository.hpp</text>
</a>
</g>
</g>
<!-- Node1&#45;&gt;Node29 -->
<g id="edge31_Node000001_Node000029" class="edge">
<title>Node1&#45;&gt;Node29</title>
<g id="a_edge31_Node000001_Node000029"><a xlink:title=" ">
<path fill="none" stroke="#63b8ff" d="M2669.18,-171.48C2780.33,-156.4 2995.54,-127.21 3105.58,-112.28"/>
<polygon fill="#63b8ff" stroke="#63b8ff" points="2669.04,-167.97 2659.6,-172.78 2669.98,-174.9 2669.04,-167.97"/>
</a>
</g>
</g>
<!-- Node31 -->
<g id="Node000031" class="node">
<title>Node31</title>
<g id="a_Node000031"><a xlink:href="WelcomeChannelRepository_8hpp.html" target="_top" xlink:title=" ">
<polygon fill="white" stroke="#666666" points="3420.38,-124 3259.62,-124 3259.62,-80 3420.38,-80 3420.38,-124"/>
<text text-anchor="start" x="3267.62" y="-110.5" font-family="Helvetica,sans-Serif" font-size="10.00">src/bot_library/commands</text>
<text text-anchor="start" x="3267.62" y="-98.5" font-family="Helvetica,sans-Serif" font-size="10.00">/set_channel/repositories</text>
<text text-anchor="middle" x="3340" y="-86.5" font-family="Helvetica,sans-Serif" font-size="10.00">/WelcomeChannelRepository.hpp</text>
</a>
</g>
</g>
<!-- Node1&#45;&gt;Node31 -->
<g id="edge34_Node000001_Node000031" class="edge">
<title>Node1&#45;&gt;Node31</title>
<g id="a_edge34_Node000001_Node000031"><a xlink:title=" ">
<path fill="none" stroke="#63b8ff" d="M2668.97,-178.2C2788.8,-172.67 3040.71,-157.82 3251,-124 3253.82,-123.55 3256.69,-123.05 3259.57,-122.53"/>
<polygon fill="#63b8ff" stroke="#63b8ff" points="2669.14,-174.69 2659.31,-178.64 2669.45,-181.68 2669.14,-174.69"/>
</a>
</g>
</g>
<!-- Node33 -->
<g id="Node000033" class="node">
<title>Node33</title>
<g id="a_Node000033"><a xlink:href="TextRepository_8hpp.html" target="_top" xlink:title=" ">
<polygon fill="white" stroke="#666666" points="4003.5,-118 3822.5,-118 3822.5,-86 4003.5,-86 4003.5,-118"/>
<text text-anchor="start" x="3830.5" y="-104.5" font-family="Helvetica,sans-Serif" font-size="10.00">src/bot_library/commands</text>
<text text-anchor="middle" x="3913" y="-92.5" font-family="Helvetica,sans-Serif" font-size="10.00">/texts/repositories/TextRepository.hpp</text>
</a>
</g>
</g>
<!-- Node1&#45;&gt;Node33 -->
<g id="edge37_Node000001_Node000033" class="edge">
<title>Node1&#45;&gt;Node33</title>
<g id="a_edge37_Node000001_Node000033"><a xlink:title=" ">
<path fill="none" stroke="#63b8ff" d="M2669.13,-177.49C2834.89,-169.1 3263.88,-146.9 3622,-124 3689.1,-119.71 3764.86,-114.22 3822.26,-109.93"/>
<polygon fill="#63b8ff" stroke="#63b8ff" points="2669.44,-173.97 2659.63,-177.97 2669.8,-180.96 2669.44,-173.97"/>
</a>
</g>
</g>
<!-- Node3 -->
<g id="Node000003" class="node">
<title>Node3</title>
<g id="a_Node000003"><a xlink:href="ChallengeBadgeCommand_8cpp.html" target="_top" xlink:title=" ">
<polygon fill="white" stroke="#666666" points="508,-44 342,-44 342,0 508,0 508,-44"/>
<text text-anchor="start" x="350" y="-30.5" font-family="Helvetica,sans-Serif" font-size="10.00">src/bot_library/commands</text>
<text text-anchor="start" x="350" y="-18.5" font-family="Helvetica,sans-Serif" font-size="10.00">/challenge_badge/ChallengeBadge</text>
<text text-anchor="middle" x="425" y="-6.5" font-family="Helvetica,sans-Serif" font-size="10.00">Command.cpp</text>
</a>
</g>
</g>
<!-- Node2&#45;&gt;Node3 -->
<g id="edge2_Node000002_Node000003" class="edge">
<title>Node2&#45;&gt;Node3</title>
<g id="a_edge2_Node000002_Node000003"><a xlink:title=" ">
<path fill="none" stroke="#63b8ff" d="M371.42,-72.17C381.48,-62.94 392.43,-52.88 401.8,-44.29"/>
<polygon fill="#63b8ff" stroke="#63b8ff" points="369.34,-69.32 364.34,-78.66 374.08,-74.48 369.34,-69.32"/>
</a>
</g>
</g>
<!-- Node4 -->
<g id="Node000004" class="node">
<title>Node4</title>
<g id="a_Node000004"><a xlink:href="ChallengeBadgeRepository_8cpp.html" target="_top" xlink:title=" ">
<polygon fill="white" stroke="#666666" points="166,-44 0,-44 0,0 166,0 166,-44"/>
<text text-anchor="start" x="8" y="-30.5" font-family="Helvetica,sans-Serif" font-size="10.00">src/bot_library/commands</text>
<text text-anchor="start" x="8" y="-18.5" font-family="Helvetica,sans-Serif" font-size="10.00">/challenge_badge/ChallengeBadge</text>
<text text-anchor="middle" x="83" y="-6.5" font-family="Helvetica,sans-Serif" font-size="10.00">Repository.cpp</text>
</a>
</g>
</g>
<!-- Node2&#45;&gt;Node4 -->
<g id="edge3_Node000002_Node000004" class="edge">
<title>Node2&#45;&gt;Node4</title>
<g id="a_edge3_Node000002_Node000004"><a xlink:title=" ">
<path fill="none" stroke="#63b8ff" d="M258.65,-76.31C224.84,-66.05 185.97,-54.25 153.41,-44.37"/>
<polygon fill="#63b8ff" stroke="#63b8ff" points="257.4,-79.59 267.99,-79.14 259.43,-72.89 257.4,-79.59"/>
</a>
</g>
</g>
<!-- Node5 -->
<g id="Node000005" class="node">
<title>Node5</title>
<g id="a_Node000005"><a xlink:href="ProfileCommand_8cpp.html" target="_top" xlink:title=" ">
<polygon fill="white" stroke="#666666" points="323.88,-38 184.12,-38 184.12,-6 323.88,-6 323.88,-38"/>
<text text-anchor="start" x="192.12" y="-24.5" font-family="Helvetica,sans-Serif" font-size="10.00">src/bot_library/commands</text>
<text text-anchor="middle" x="254" y="-12.5" font-family="Helvetica,sans-Serif" font-size="10.00">/profile/ProfileCommand.cpp</text>
</a>
</g>
</g>
<!-- Node2&#45;&gt;Node5 -->
<g id="edge4_Node000002_Node000005" class="edge">
<title>Node2&#45;&gt;Node5</title>
<g id="a_edge4_Node000002_Node000005"><a xlink:title=" ">
<path fill="none" stroke="#63b8ff" d="M308.05,-72.03C295.46,-60.6 281.5,-47.94 270.93,-38.35"/>
<polygon fill="#63b8ff" stroke="#63b8ff" points="305.62,-74.54 315.38,-78.67 310.32,-69.36 305.62,-74.54"/>
</a>
</g>
</g>
<!-- Node6&#45;&gt;Node3 -->
<g id="edge6_Node000006_Node000003" class="edge">
<title>Node6&#45;&gt;Node3</title>
<g id="a_edge6_Node000006_Node000003"><a xlink:title=" ">
<path fill="none" stroke="#63b8ff" d="M637.94,-82.53C597.05,-71.1 544.38,-56.38 501.66,-44.43"/>
<polygon fill="#63b8ff" stroke="#63b8ff" points="636.85,-85.86 647.42,-85.18 638.73,-79.12 636.85,-85.86"/>
</a>
</g>
</g>
<!-- Node6&#45;&gt;Node5 -->
<g id="edge9_Node000006_Node000005" class="edge">
<title>Node6&#45;&gt;Node5</title>
<g id="a_edge9_Node000006_Node000005"><a xlink:title=" ">
<path fill="none" stroke="#63b8ff" d="M601.88,-88.32C527.06,-78.29 423.25,-62.87 333,-44 325.22,-42.37 317.06,-40.45 309.07,-38.45"/>
<polygon fill="#63b8ff" stroke="#63b8ff" points="601.3,-91.77 611.67,-89.62 602.22,-84.83 601.3,-91.77"/>
</a>
</g>
</g>
<!-- Node7 -->
<g id="Node000007" class="node">
<title>Node7</title>
<g id="a_Node000007"><a xlink:href="UserRepository_8cpp.html" target="_top" xlink:title=" ">
<polygon fill="white" stroke="#666666" points="707.5,-38 526.5,-38 526.5,-6 707.5,-6 707.5,-38"/>
<text text-anchor="start" x="534.5" y="-24.5" font-family="Helvetica,sans-Serif" font-size="10.00">src/bot_library/commands</text>
<text text-anchor="middle" x="617" y="-12.5" font-family="Helvetica,sans-Serif" font-size="10.00">/challenge_badge/UserRepository.cpp</text>
</a>
</g>
</g>
<!-- Node6&#45;&gt;Node7 -->
<g id="edge7_Node000006_Node000007" class="edge">
<title>Node6&#45;&gt;Node7</title>
<g id="a_edge7_Node000006_Node000007"><a xlink:title=" ">
<path fill="none" stroke="#63b8ff" d="M678.4,-78.05C664.14,-65.27 646.77,-49.69 634.15,-38.38"/>
<polygon fill="#63b8ff" stroke="#63b8ff" points="675.9,-80.51 685.68,-84.58 680.58,-75.3 675.9,-80.51"/>
</a>
</g>
</g>
<!-- Node8 -->
<g id="Node000008" class="node">
<title>Node8</title>
<g id="a_Node000008"><a xlink:href="FlipCommand_8cpp.html" target="_top" xlink:title=" ">
<polygon fill="white" stroke="#666666" points="854.25,-38 725.75,-38 725.75,-6 854.25,-6 854.25,-38"/>
<text text-anchor="start" x="733.75" y="-24.5" font-family="Helvetica,sans-Serif" font-size="10.00">src/bot_library/commands</text>
<text text-anchor="middle" x="790" y="-12.5" font-family="Helvetica,sans-Serif" font-size="10.00">/flip/FlipCommand.cpp</text>
</a>
</g>
</g>
<!-- Node6&#45;&gt;Node8 -->
<g id="edge8_Node000006_Node000008" class="edge">
<title>Node6&#45;&gt;Node8</title>
<g id="a_edge8_Node000006_Node000008"><a xlink:title=" ">
<path fill="none" stroke="#63b8ff" d="M729.3,-78.05C743.4,-65.27 760.57,-49.69 773.04,-38.38"/>
<polygon fill="#63b8ff" stroke="#63b8ff" points="727.17,-75.26 722.11,-84.57 731.87,-80.45 727.17,-75.26"/>
</a>
</g>
</g>
<!-- Node9 -->
<g id="Node000009" class="node">
<title>Node9</title>
<g id="a_Node000009"><a xlink:href="RollCommand_8cpp.html" target="_top" xlink:title=" ">
<polygon fill="white" stroke="#666666" points="1001.25,-38 872.75,-38 872.75,-6 1001.25,-6 1001.25,-38"/>
<text text-anchor="start" x="880.75" y="-24.5" font-family="Helvetica,sans-Serif" font-size="10.00">src/bot_library/commands</text>
<text text-anchor="middle" x="937" y="-12.5" font-family="Helvetica,sans-Serif" font-size="10.00">/roll/RollCommand.cpp</text>
</a>
</g>
</g>
<!-- Node6&#45;&gt;Node9 -->
<g id="edge10_Node000006_Node000009" class="edge">
<title>Node6&#45;&gt;Node9</title>
<g id="a_edge10_Node000006_Node000009"><a xlink:title=" ">
<path fill="none" stroke="#63b8ff" d="M760.95,-81.93C800.95,-68.55 853.75,-50.87 891.06,-38.38"/>
<polygon fill="#63b8ff" stroke="#63b8ff" points="759.84,-78.62 751.47,-85.11 762.06,-85.25 759.84,-78.62"/>
</a>
</g>
</g>
<!-- Node11 -->
<g id="Node000011" class="node">
<title>Node11</title>
<g id="a_Node000011"><a xlink:href="ChallengeRoleCommand_8cpp.html" target="_top" xlink:title=" ">
<polygon fill="white" stroke="#666666" points="1462.88,-38 1251.12,-38 1251.12,-6 1462.88,-6 1462.88,-38"/>
<text text-anchor="start" x="1259.12" y="-24.5" font-family="Helvetica,sans-Serif" font-size="10.00">src/bot_library/commands</text>
<text text-anchor="middle" x="1357" y="-12.5" font-family="Helvetica,sans-Serif" font-size="10.00">/challenge_role/ChallengeRoleCommand.cpp</text>
</a>
</g>
</g>
<!-- Node10&#45;&gt;Node11 -->
<g id="edge12_Node000010_Node000011" class="edge">
<title>Node10&#45;&gt;Node11</title>
<g id="a_edge12_Node000010_Node000011"><a xlink:title=" ">
<path fill="none" stroke="#63b8ff" d="M1399.6,-76.59C1389.67,-64.1 1377.88,-49.27 1369.22,-38.38"/>
<polygon fill="#63b8ff" stroke="#63b8ff" points="1396.85,-78.75 1405.81,-84.4 1402.33,-74.4 1396.85,-78.75"/>
</a>
</g>
</g>
<!-- Node12 -->
<g id="Node000012" class="node">
<title>Node12</title>
<g id="a_Node000012"><a xlink:href="ChallengeRoleRepository_8cpp.html" target="_top" xlink:title=" ">
<polygon fill="white" stroke="#666666" points="1232.62,-38 1019.38,-38 1019.38,-6 1232.62,-6 1232.62,-38"/>
<text text-anchor="start" x="1027.38" y="-24.5" font-family="Helvetica,sans-Serif" font-size="10.00">src/bot_library/commands</text>
<text text-anchor="middle" x="1126" y="-12.5" font-family="Helvetica,sans-Serif" font-size="10.00">/challenge_role/ChallengeRoleRepository.cpp</text>
</a>
</g>
</g>
<!-- Node10&#45;&gt;Node12 -->
<g id="edge13_Node000010_Node000012" class="edge">
<title>Node10&#45;&gt;Node12</title>
<g id="a_edge13_Node000010_Node000012"><a xlink:title=" ">
<path fill="none" stroke="#63b8ff" d="M1350.28,-82.71C1299.75,-69.26 1231.83,-51.17 1184.02,-38.44"/>
<polygon fill="#63b8ff" stroke="#63b8ff" points="1349.09,-86.01 1359.65,-85.2 1350.89,-79.25 1349.09,-86.01"/>
</a>
</g>
</g>
<!-- Node13 -->
<g id="Node000013" class="node">
<title>Node13</title>
<g id="a_Node000013"><a xlink:href="CleanUp_8cpp.html" target="_top" xlink:title=" ">
<polygon fill="white" stroke="#666666" points="1609.25,-38 1480.75,-38 1480.75,-6 1609.25,-6 1609.25,-38"/>
<text text-anchor="start" x="1488.75" y="-24.5" font-family="Helvetica,sans-Serif" font-size="10.00">src/bot_library/commands</text>
<text text-anchor="middle" x="1545" y="-12.5" font-family="Helvetica,sans-Serif" font-size="10.00">/clean_up/CleanUp.cpp</text>
</a>
</g>
</g>
<!-- Node10&#45;&gt;Node13 -->
<g id="edge14_Node000010_Node000013" class="edge">
<title>Node10&#45;&gt;Node13</title>
<g id="a_edge14_Node000010_Node000013"><a xlink:title=" ">
<path fill="none" stroke="#63b8ff" d="M1453.46,-79.67C1474.57,-66.6 1501.1,-50.17 1520.16,-38.38"/>
<polygon fill="#63b8ff" stroke="#63b8ff" points="1451.84,-76.55 1445.18,-84.79 1455.53,-82.51 1451.84,-76.55"/>
</a>
</g>
</g>
<!-- Node15 -->
<g id="Node000015" class="node">
<title>Node15</title>
<g id="a_Node000015"><a xlink:href="MemberCommand_8cpp.html" target="_top" xlink:title=" ">
<polygon fill="white" stroke="#666666" points="2422.12,-38 2265.88,-38 2265.88,-6 2422.12,-6 2422.12,-38"/>
<text text-anchor="start" x="2273.88" y="-24.5" font-family="Helvetica,sans-Serif" font-size="10.00">src/bot_library/commands</text>
<text text-anchor="middle" x="2344" y="-12.5" font-family="Helvetica,sans-Serif" font-size="10.00">/member/MemberCommand.cpp</text>
</a>
</g>
</g>
<!-- Node14&#45;&gt;Node15 -->
<g id="edge16_Node000014_Node000015" class="edge">
<title>Node14&#45;&gt;Node15</title>
<g id="a_edge16_Node000014_Node000015"><a xlink:title=" ">
<path fill="none" stroke="#63b8ff" d="M2344,-74.37C2344,-62.37 2344,-48.63 2344,-38.38"/>
<polygon fill="#63b8ff" stroke="#63b8ff" points="2340.5,-74.08 2344,-84.08 2347.5,-74.08 2340.5,-74.08"/>
</a>
</g>
</g>
<!-- Node16 -->
<g id="Node000016" class="node">
<title>Node16</title>
<g id="a_Node000016"><a xlink:href="MemberRepository_8cpp.html" target="_top" xlink:title=" ">
<polygon fill="white" stroke="#666666" points="2247.5,-38 2036.5,-38 2036.5,-6 2247.5,-6 2247.5,-38"/>
<text text-anchor="start" x="2044.5" y="-24.5" font-family="Helvetica,sans-Serif" font-size="10.00">src/bot_library/commands</text>
<text text-anchor="middle" x="2142" y="-12.5" font-family="Helvetica,sans-Serif" font-size="10.00">/member/repositories/MemberRepository.cpp</text>
</a>
</g>
</g>
<!-- Node14&#45;&gt;Node16 -->
<g id="edge17_Node000014_Node000016" class="edge">
<title>Node14&#45;&gt;Node16</title>
<g id="a_edge17_Node000014_Node000016"><a xlink:title=" ">
<path fill="none" stroke="#63b8ff" d="M2293.73,-81.59C2259.17,-68.24 2213.9,-50.76 2181.83,-38.38"/>
<polygon fill="#63b8ff" stroke="#63b8ff" points="2292.09,-84.71 2302.68,-85.04 2294.61,-78.18 2292.09,-84.71"/>
</a>
</g>
</g>
<!-- Node18 -->
<g id="Node000018" class="node">
<title>Node18</title>
<g id="a_Node000018"><a xlink:href="ProductsCommand_8cpp.html" target="_top" xlink:title=" ">
<polygon fill="white" stroke="#666666" points="2748.12,-38 2585.88,-38 2585.88,-6 2748.12,-6 2748.12,-38"/>
<text text-anchor="start" x="2593.88" y="-24.5" font-family="Helvetica,sans-Serif" font-size="10.00">src/bot_library/commands</text>
<text text-anchor="middle" x="2667" y="-12.5" font-family="Helvetica,sans-Serif" font-size="10.00">/products/ProductsCommand.cpp</text>
</a>
</g>
</g>
<!-- Node17&#45;&gt;Node18 -->
<g id="edge19_Node000017_Node000018" class="edge">
<title>Node17&#45;&gt;Node18</title>
<g id="a_edge19_Node000017_Node000018"><a xlink:title=" ">
<path fill="none" stroke="#63b8ff" d="M2624.89,-71.31C2634.77,-59.97 2645.62,-47.53 2653.83,-38.11"/>
<polygon fill="#63b8ff" stroke="#63b8ff" points="2622.51,-68.71 2618.58,-78.55 2627.79,-73.31 2622.51,-68.71"/>
</a>
</g>
</g>
<!-- Node19 -->
<g id="Node000019" class="node">
<title>Node19</title>
<g id="a_Node000019"><a xlink:href="ProductRepository_8cpp.html" target="_top" xlink:title=" ">
<polygon fill="white" stroke="#666666" points="2568.25,-44 2439.75,-44 2439.75,0 2568.25,0 2568.25,-44"/>
<text text-anchor="start" x="2447.75" y="-30.5" font-family="Helvetica,sans-Serif" font-size="10.00">src/bot_library/commands</text>
<text text-anchor="start" x="2447.75" y="-18.5" font-family="Helvetica,sans-Serif" font-size="10.00">/products/repositories</text>
<text text-anchor="middle" x="2504" y="-6.5" font-family="Helvetica,sans-Serif" font-size="10.00">/ProductRepository.cpp</text>
</a>
</g>
</g>
<!-- Node17&#45;&gt;Node19 -->
<g id="edge20_Node000017_Node000019" class="edge">
<title>Node17&#45;&gt;Node19</title>
<g id="a_edge20_Node000017_Node000019"><a xlink:title=" ">
<path fill="none" stroke="#63b8ff" d="M2564.23,-72.45C2552.89,-63.14 2540.5,-52.97 2529.93,-44.29"/>
<polygon fill="#63b8ff" stroke="#63b8ff" points="2561.92,-75.09 2571.87,-78.73 2566.36,-69.67 2561.92,-75.09"/>
</a>
</g>
</g>
<!-- Node20&#45;&gt;Node13 -->
<g id="edge22_Node000020_Node000013" class="edge">
<title>Node20&#45;&gt;Node13</title>
<g id="a_edge22_Node000020_Node000013"><a xlink:title=" ">
<path fill="none" stroke="#63b8ff" d="M1748.2,-82.36C1702.2,-68.92 1640.85,-51 1597.64,-38.38"/>
<polygon fill="#63b8ff" stroke="#63b8ff" points="1747.22,-85.72 1757.8,-85.17 1749.18,-79 1747.22,-85.72"/>
</a>
</g>
</g>
<!-- Node21 -->
<g id="Node000021" class="node">
<title>Node21</title>
<g id="a_Node000021"><a xlink:href="ReactionRoleRepository_8cpp.html" target="_top" xlink:title=" ">
<polygon fill="white" stroke="#666666" points="2018.62,-38 1811.38,-38 1811.38,-6 2018.62,-6 2018.62,-38"/>
<text text-anchor="start" x="1819.38" y="-24.5" font-family="Helvetica,sans-Serif" font-size="10.00">src/bot_library/commands</text>
<text text-anchor="middle" x="1915" y="-12.5" font-family="Helvetica,sans-Serif" font-size="10.00">/reaction_roles/ReactionRoleRepository.cpp</text>
</a>
</g>
</g>
<!-- Node20&#45;&gt;Node21 -->
<g id="edge23_Node000020_Node000021" class="edge">
<title>Node20&#45;&gt;Node21</title>
<g id="a_edge23_Node000020_Node000021"><a xlink:title=" ">
<path fill="none" stroke="#63b8ff" d="M1841.35,-78.77C1858.41,-65.86 1879.47,-49.91 1894.69,-38.38"/>
<polygon fill="#63b8ff" stroke="#63b8ff" points="1839.42,-75.85 1833.56,-84.68 1843.64,-81.43 1839.42,-75.85"/>
</a>
</g>
</g>
<!-- Node22 -->
<g id="Node000022" class="node">
<title>Node22</title>
<g id="a_Node000022"><a xlink:href="ReactionRoles_8cpp.html" target="_top" xlink:title=" ">
<polygon fill="white" stroke="#666666" points="1793,-38 1627,-38 1627,-6 1793,-6 1793,-38"/>
<text text-anchor="start" x="1635" y="-24.5" font-family="Helvetica,sans-Serif" font-size="10.00">src/bot_library/commands</text>
<text text-anchor="middle" x="1710" y="-12.5" font-family="Helvetica,sans-Serif" font-size="10.00">/reaction_roles/ReactionRoles.cpp</text>
</a>
</g>
</g>
<!-- Node20&#45;&gt;Node22 -->
<g id="edge24_Node000020_Node000022" class="edge">
<title>Node20&#45;&gt;Node22</title>
<g id="a_edge24_Node000020_Node000022"><a xlink:title=" ">
<path fill="none" stroke="#63b8ff" d="M1782.93,-78.77C1766.04,-65.86 1745.19,-49.91 1730.11,-38.38"/>
<polygon fill="#63b8ff" stroke="#63b8ff" points="1780.58,-81.38 1790.65,-84.67 1784.83,-75.82 1780.58,-81.38"/>
</a>
</g>
</g>
<!-- Node24 -->
<g id="Node000024" class="node">
<title>Node24</title>
<g id="a_Node000024"><a xlink:href="ResourcesCommand_8cpp.html" target="_top" xlink:title=" ">
<polygon fill="white" stroke="#666666" points="3087.88,-38 2912.12,-38 2912.12,-6 3087.88,-6 3087.88,-38"/>
<text text-anchor="start" x="2920.12" y="-24.5" font-family="Helvetica,sans-Serif" font-size="10.00">src/bot_library/commands</text>
<text text-anchor="middle" x="3000" y="-12.5" font-family="Helvetica,sans-Serif" font-size="10.00">/resources/ResourcesCommand.cpp</text>
</a>
</g>
</g>
<!-- Node23&#45;&gt;Node24 -->
<g id="edge26_Node000023_Node000024" class="edge">
<title>Node23&#45;&gt;Node24</title>
<g id="a_edge26_Node000023_Node000024"><a xlink:title=" ">
<path fill="none" stroke="#63b8ff" d="M2886.71,-74.98C2913.09,-62.87 2943.58,-48.89 2966.27,-38.47"/>
<polygon fill="#63b8ff" stroke="#63b8ff" points="2885.46,-71.7 2877.83,-79.05 2888.38,-78.07 2885.46,-71.7"/>
</a>
</g>
</g>
<!-- Node25 -->
<g id="Node000025" class="node">
<title>Node25</title>
<g id="a_Node000025"><a xlink:href="ResourceRepository_8cpp.html" target="_top" xlink:title=" ">
<polygon fill="white" stroke="#666666" points="2894.25,-44 2765.75,-44 2765.75,0 2894.25,0 2894.25,-44"/>
<text text-anchor="start" x="2773.75" y="-30.5" font-family="Helvetica,sans-Serif" font-size="10.00">src/bot_library/commands</text>
<text text-anchor="start" x="2773.75" y="-18.5" font-family="Helvetica,sans-Serif" font-size="10.00">/resources/repositories</text>
<text text-anchor="middle" x="2830" y="-6.5" font-family="Helvetica,sans-Serif" font-size="10.00">/ResourceRepository.cpp</text>
</a>
</g>
</g>
<!-- Node23&#45;&gt;Node25 -->
<g id="edge27_Node000023_Node000025" class="edge">
<title>Node23&#45;&gt;Node25</title>
<g id="a_edge27_Node000023_Node000025"><a xlink:title=" ">
<path fill="none" stroke="#63b8ff" d="M2830,-68.25C2830,-60.15 2830,-51.68 2830,-44.29"/>
<polygon fill="#63b8ff" stroke="#63b8ff" points="2826.5,-68.17 2830,-78.17 2833.5,-68.17 2826.5,-68.17"/>
</a>
</g>
</g>
<!-- Node27 -->
<g id="Node000027" class="node">
<title>Node27</title>
<g id="a_Node000027"><a xlink:href="SetChannelCommand_8cpp.html" target="_top" xlink:title=" ">
<polygon fill="white" stroke="#666666" points="3627.62,-38 3438.38,-38 3438.38,-6 3627.62,-6 3627.62,-38"/>
<text text-anchor="start" x="3446.38" y="-24.5" font-family="Helvetica,sans-Serif" font-size="10.00">src/bot_library/commands</text>
<text text-anchor="middle" x="3533" y="-12.5" font-family="Helvetica,sans-Serif" font-size="10.00">/set_channel/SetChannelCommand.cpp</text>
</a>
</g>
</g>
<!-- Node26&#45;&gt;Node27 -->
<g id="edge29_Node000026_Node000027" class="edge">
<title>Node26&#45;&gt;Node27</title>
<g id="a_edge29_Node000026_Node000027"><a xlink:title=" ">
<path fill="none" stroke="#63b8ff" d="M3533,-68.28C3533,-57.8 3533,-46.7 3533,-38.11"/>
<polygon fill="#63b8ff" stroke="#63b8ff" points="3529.5,-68.17 3533,-78.17 3536.5,-68.17 3529.5,-68.17"/>
</a>
</g>
</g>
<!-- Node28 -->
<g id="Node000028" class="node">
<title>Node28</title>
<g id="a_Node000028"><a xlink:href="GoodbyeChannelRepository_8cpp.html" target="_top" xlink:title=" ">
<polygon fill="white" stroke="#666666" points="3804.62,-44 3645.38,-44 3645.38,0 3804.62,0 3804.62,-44"/>
<text text-anchor="start" x="3653.38" y="-30.5" font-family="Helvetica,sans-Serif" font-size="10.00">src/bot_library/commands</text>
<text text-anchor="start" x="3653.38" y="-18.5" font-family="Helvetica,sans-Serif" font-size="10.00">/set_channel/repositories</text>
<text text-anchor="middle" x="3725" y="-6.5" font-family="Helvetica,sans-Serif" font-size="10.00">/GoodbyeChannelRepository.cpp</text>
</a>
</g>
</g>
<!-- Node26&#45;&gt;Node28 -->
<g id="edge30_Node000026_Node000028" class="edge">
<title>Node26&#45;&gt;Node28</title>
<g id="a_edge30_Node000026_Node000028"><a xlink:title=" ">
<path fill="none" stroke="#63b8ff" d="M3596.08,-75.37C3620.79,-65.33 3648.81,-53.95 3672.4,-44.37"/>
<polygon fill="#63b8ff" stroke="#63b8ff" points="3595.07,-72.01 3587.12,-79.01 3597.7,-78.49 3595.07,-72.01"/>
</a>
</g>
</g>
<!-- Node29&#45;&gt;Node27 -->
<g id="edge32_Node000029_Node000027" class="edge">
<title>Node29&#45;&gt;Node27</title>
<g id="a_edge32_Node000029_Node000027"><a xlink:title=" ">
<path fill="none" stroke="#63b8ff" d="M3253.18,-79.76C3286.47,-72.79 3385.33,-52.82 3456.39,-38.47"/>
<polygon fill="#63b8ff" stroke="#63b8ff" points="3252.89,-76.25 3243.85,-81.78 3254.37,-83.09 3252.89,-76.25"/>
</a>
</g>
</g>
<!-- Node30 -->
<g id="Node000030" class="node">
<title>Node30</title>
<g id="a_Node000030"><a xlink:href="LogChannelRepository_8cpp.html" target="_top" xlink:title=" ">
<polygon fill="white" stroke="#666666" points="3242,-44 3106,-44 3106,0 3242,0 3242,-44"/>
<text text-anchor="start" x="3114" y="-30.5" font-family="Helvetica,sans-Serif" font-size="10.00">src/bot_library/commands</text>
<text text-anchor="start" x="3114" y="-18.5" font-family="Helvetica,sans-Serif" font-size="10.00">/set_channel/repositories</text>
<text text-anchor="middle" x="3174" y="-6.5" font-family="Helvetica,sans-Serif" font-size="10.00">/LogChannelRepository.cpp</text>
</a>
</g>
</g>
<!-- Node29&#45;&gt;Node30 -->
<g id="edge33_Node000029_Node000030" class="edge">
<title>Node29&#45;&gt;Node30</title>
<g id="a_edge33_Node000029_Node000030"><a xlink:title=" ">
<path fill="none" stroke="#63b8ff" d="M3174,-68.25C3174,-60.15 3174,-51.68 3174,-44.29"/>
<polygon fill="#63b8ff" stroke="#63b8ff" points="3170.5,-68.17 3174,-78.17 3177.5,-68.17 3170.5,-68.17"/>
</a>
</g>
</g>
<!-- Node31&#45;&gt;Node27 -->
<g id="edge35_Node000031_Node000027" class="edge">
<title>Node31&#45;&gt;Node27</title>
<g id="a_edge35_Node000031_Node000027"><a xlink:title=" ">
<path fill="none" stroke="#63b8ff" d="M3403.45,-75.36C3433.65,-63.15 3468.76,-48.96 3494.81,-38.43"/>
<polygon fill="#63b8ff" stroke="#63b8ff" points="3402.36,-72.02 3394.4,-79.02 3404.98,-78.51 3402.36,-72.02"/>
</a>
</g>
</g>
<!-- Node32 -->
<g id="Node000032" class="node">
<title>Node32</title>
<g id="a_Node000032"><a xlink:href="WelcomeChannelRepository_8cpp.html" target="_top" xlink:title=" ">
<polygon fill="white" stroke="#666666" points="3420.38,-44 3259.62,-44 3259.62,0 3420.38,0 3420.38,-44"/>
<text text-anchor="start" x="3267.62" y="-30.5" font-family="Helvetica,sans-Serif" font-size="10.00">src/bot_library/commands</text>
<text text-anchor="start" x="3267.62" y="-18.5" font-family="Helvetica,sans-Serif" font-size="10.00">/set_channel/repositories</text>
<text text-anchor="middle" x="3340" y="-6.5" font-family="Helvetica,sans-Serif" font-size="10.00">/WelcomeChannelRepository.cpp</text>
</a>
</g>
</g>
<!-- Node31&#45;&gt;Node32 -->
<g id="edge36_Node000031_Node000032" class="edge">
<title>Node31&#45;&gt;Node32</title>
<g id="a_edge36_Node000031_Node000032"><a xlink:title=" ">
<path fill="none" stroke="#63b8ff" d="M3340,-68.25C3340,-60.15 3340,-51.68 3340,-44.29"/>
<polygon fill="#63b8ff" stroke="#63b8ff" points="3336.5,-68.17 3340,-78.17 3343.5,-68.17 3336.5,-68.17"/>
</a>
</g>
</g>
<!-- Node34 -->
<g id="Node000034" class="node">
<title>Node34</title>
<g id="a_Node000034"><a xlink:href="TextsCommand_8cpp.html" target="_top" xlink:title=" ">
<polygon fill="white" stroke="#666666" points="4152.75,-38 4021.25,-38 4021.25,-6 4152.75,-6 4152.75,-38"/>
<text text-anchor="start" x="4029.25" y="-24.5" font-family="Helvetica,sans-Serif" font-size="10.00">src/bot_library/commands</text>
<text text-anchor="middle" x="4087" y="-12.5" font-family="Helvetica,sans-Serif" font-size="10.00">/texts/TextsCommand.cpp</text>
</a>
</g>
</g>
<!-- Node33&#45;&gt;Node34 -->
<g id="edge38_Node000033_Node000034" class="edge">
<title>Node33&#45;&gt;Node34</title>
<g id="a_edge38_Node000033_Node000034"><a xlink:title=" ">
<path fill="none" stroke="#63b8ff" d="M3957.85,-80.9C3987.41,-67.64 4025.55,-50.55 4052.69,-38.38"/>
<polygon fill="#63b8ff" stroke="#63b8ff" points="3956.45,-77.69 3948.76,-84.97 3959.31,-84.07 3956.45,-77.69"/>
</a>
</g>
</g>
<!-- Node35 -->
<g id="Node000035" class="node">
<title>Node35</title>
<g id="a_Node000035"><a xlink:href="TextRepository_8cpp.html" target="_top" xlink:title=" ">
<polygon fill="white" stroke="#666666" points="4003.5,-38 3822.5,-38 3822.5,-6 4003.5,-6 4003.5,-38"/>
<text text-anchor="start" x="3830.5" y="-24.5" font-family="Helvetica,sans-Serif" font-size="10.00">src/bot_library/commands</text>
<text text-anchor="middle" x="3913" y="-12.5" font-family="Helvetica,sans-Serif" font-size="10.00">/texts/repositories/TextRepository.cpp</text>
</a>
</g>
</g>
<!-- Node33&#45;&gt;Node35 -->
<g id="edge39_Node000033_Node000035" class="edge">
<title>Node33&#45;&gt;Node35</title>
<g id="a_edge39_Node000033_Node000035"><a xlink:title=" ">
<path fill="none" stroke="#63b8ff" d="M3913,-74.37C3913,-62.37 3913,-48.63 3913,-38.38"/>
<polygon fill="#63b8ff" stroke="#63b8ff" points="3909.5,-74.08 3913,-84.08 3916.5,-74.08 3909.5,-74.08"/>
</a>
</g>
</g>
</g>
</svg>
