<?xml version="1.0" encoding="UTF-8" standalone="no"?>
<!DOCTYPE svg PUBLIC "-//W3C//DTD SVG 1.1//EN"
 "http://www.w3.org/Graphics/SVG/1.1/DTD/svg11.dtd">
<!-- Generated by graphviz version 12.2.1 (0)
 -->
<!-- Title: src/bot_library/bot/core/interfaces/include/IRepository.hpp Pages: 1 -->
<svg width="4440pt" height="212pt"
 viewBox="0.00 0.00 4440.12 212.00" xmlns="http://www.w3.org/2000/svg" xmlns:xlink="http://www.w3.org/1999/xlink">
<g id="graph0" class="graph" transform="scale(1 1) rotate(0) translate(4 208)">
<title>src/bot_library/bot/core/interfaces/include/IRepository.hpp</title>
<!-- Node1 -->
<g id="Node000001" class="node">
<title>Node1</title>
<g id="a_Node000001"><a xlink:title=" ">
<polygon fill="#999999" stroke="#666666" points="2187.5,-204 2070.25,-204 2070.25,-160 2187.5,-160 2187.5,-204"/>
<text text-anchor="start" x="2078.25" y="-190.5" font-family="Helvetica,sans-Serif" font-size="10.00">src/bot_library/bot</text>
<text text-anchor="start" x="2078.25" y="-178.5" font-family="Helvetica,sans-Serif" font-size="10.00">/core/interfaces/include</text>
<text text-anchor="middle" x="2128.88" y="-166.5" font-family="Helvetica,sans-Serif" font-size="10.00">/IRepository.hpp</text>
</a>
</g>
</g>
<!-- Node2 -->
<g id="Node000002" class="node">
<title>Node2</title>
<g id="a_Node000002"><a xlink:href="WebUserRepository_8hpp.html" target="_top" xlink:title=" ">
<polygon fill="white" stroke="#666666" points="274.12,-118 127.62,-118 127.62,-86 274.12,-86 274.12,-118"/>
<text text-anchor="start" x="135.62" y="-104.5" font-family="Helvetica,sans-Serif" font-size="10.00">src/bot_library/commands</text>
<text text-anchor="middle" x="200.88" y="-92.5" font-family="Helvetica,sans-Serif" font-size="10.00">/auth/WebUserRepository.hpp</text>
</a>
</g>
</g>
<!-- Node1&#45;&gt;Node2 -->
<g id="edge1_Node000001_Node000002" class="edge">
<title>Node1&#45;&gt;Node2</title>
<g id="a_edge1_Node000001_Node000002"><a xlink:title=" ">
<path fill="none" stroke="#63b8ff" d="M2058.58,-179.13C1835.97,-173.07 1126.65,-152.69 539.88,-124 448.44,-119.53 343.23,-112.76 274.58,-108.12"/>
<polygon fill="#63b8ff" stroke="#63b8ff" points="2058.45,-182.63 2068.54,-179.4 2058.64,-175.63 2058.45,-182.63"/>
</a>
</g>
</g>
<!-- Node5 -->
<g id="Node000005" class="node">
<title>Node5</title>
<g id="a_Node000005"><a xlink:href="ChallengeBadgeRepository_8hpp.html" target="_top" xlink:title=" ">
<polygon fill="white" stroke="#666666" points="714.88,-124 548.88,-124 548.88,-80 714.88,-80 714.88,-124"/>
<text text-anchor="start" x="556.88" y="-110.5" font-family="Helvetica,sans-Serif" font-size="10.00">src/bot_library/commands</text>
<text text-anchor="start" x="556.88" y="-98.5" font-family="Helvetica,sans-Serif" font-size="10.00">/challenge_badge/ChallengeBadge</text>
<text text-anchor="middle" x="631.88" y="-86.5" font-family="Helvetica,sans-Serif" font-size="10.00">Repository.hpp</text>
</a>
</g>
</g>
<!-- Node1&#45;&gt;Node5 -->
<g id="edge4_Node000001_Node000005" class="edge">
<title>Node1&#45;&gt;Node5</title>
<g id="a_edge4_Node000001_Node000005"><a xlink:title=" ">
<path fill="none" stroke="#63b8ff" d="M2058.48,-178.16C1874.12,-170.61 1361.96,-148.89 935.88,-124 861.14,-119.63 776.15,-113.68 715.07,-109.22"/>
<polygon fill="#63b8ff" stroke="#63b8ff" points="2058.24,-181.65 2068.38,-178.56 2058.53,-174.66 2058.24,-181.65"/>
</a>
</g>
</g>
<!-- Node9 -->
<g id="Node000009" class="node">
<title>Node9</title>
<g id="a_Node000009"><a xlink:href="UserRepository_8hpp.html" target="_top" xlink:title=" ">
<polygon fill="white" stroke="#666666" points="1126.38,-118 945.38,-118 945.38,-86 1126.38,-86 1126.38,-118"/>
<text text-anchor="start" x="953.38" y="-104.5" font-family="Helvetica,sans-Serif" font-size="10.00">src/bot_library/commands</text>
<text text-anchor="middle" x="1035.88" y="-92.5" font-family="Helvetica,sans-Serif" font-size="10.00">/challenge_badge/UserRepository.hpp</text>
</a>
</g>
</g>
<!-- Node1&#45;&gt;Node9 -->
<g id="edge8_Node000001_Node000009" class="edge">
<title>Node1&#45;&gt;Node9</title>
<g id="a_edge8_Node000001_Node000009"><a xlink:title=" ">
<path fill="none" stroke="#63b8ff" d="M2058.85,-176C1868.14,-162.39 1339.55,-124.67 1126.56,-109.47"/>
<polygon fill="#63b8ff" stroke="#63b8ff" points="2058.38,-179.48 2068.6,-176.7 2058.88,-172.5 2058.38,-179.48"/>
</a>
</g>
</g>
<!-- Node14 -->
<g id="Node000014" class="node">
<title>Node14</title>
<g id="a_Node000014"><a xlink:href="ChallengeRoleRepository_8hpp.html" target="_top" xlink:title=" ">
<polygon fill="white" stroke="#666666" points="1945.5,-118 1732.25,-118 1732.25,-86 1945.5,-86 1945.5,-118"/>
<text text-anchor="start" x="1740.25" y="-104.5" font-family="Helvetica,sans-Serif" font-size="10.00">src/bot_library/commands</text>
<text text-anchor="middle" x="1838.88" y="-92.5" font-family="Helvetica,sans-Serif" font-size="10.00">/challenge_role/ChallengeRoleRepository.hpp</text>
</a>
</g>
</g>
<!-- Node1&#45;&gt;Node14 -->
<g id="edge15_Node000001_Node000014" class="edge">
<title>Node1&#45;&gt;Node14</title>
<g id="a_edge15_Node000001_Node000014"><a xlink:title=" ">
<path fill="none" stroke="#63b8ff" d="M2058.84,-162.16C2009.06,-148.78 1943.03,-131.01 1896.34,-118.46"/>
<polygon fill="#63b8ff" stroke="#63b8ff" points="2057.81,-165.51 2068.38,-164.73 2059.63,-158.75 2057.81,-165.51"/>
</a>
</g>
</g>
<!-- Node18 -->
<g id="Node000018" class="node">
<title>Node18</title>
<g id="a_Node000018"><a xlink:href="NotificationRepository_8hpp.html" target="_top" xlink:title=" ">
<polygon fill="white" stroke="#666666" points="2696.75,-124 2563,-124 2563,-80 2696.75,-80 2696.75,-124"/>
<text text-anchor="start" x="2571" y="-110.5" font-family="Helvetica,sans-Serif" font-size="10.00">src/bot_library/commands</text>
<text text-anchor="start" x="2571" y="-98.5" font-family="Helvetica,sans-Serif" font-size="10.00">/notification/repositories</text>
<text text-anchor="middle" x="2629.88" y="-86.5" font-family="Helvetica,sans-Serif" font-size="10.00">/NotificationRepository.hpp</text>
</a>
</g>
</g>
<!-- Node1&#45;&gt;Node18 -->
<g id="edge19_Node000001_Node000018" class="edge">
<title>Node1&#45;&gt;Node18</title>
<g id="a_edge19_Node000001_Node000018"><a xlink:title=" ">
<path fill="none" stroke="#63b8ff" d="M2198.91,-170.1C2295.37,-155.08 2467.92,-128.21 2562.8,-113.44"/>
<polygon fill="#63b8ff" stroke="#63b8ff" points="2198.66,-166.59 2189.31,-171.59 2199.73,-173.51 2198.66,-166.59"/>
</a>
</g>
</g>
<!-- Node22 -->
<g id="Node000022" class="node">
<title>Node22</title>
<g id="a_Node000022"><a xlink:href="BlacklistRepository_8hpp.html" target="_top" xlink:title=" ">
<polygon fill="white" stroke="#666666" points="3206.25,-124 3069.5,-124 3069.5,-80 3206.25,-80 3206.25,-124"/>
<text text-anchor="start" x="3077.5" y="-110.5" font-family="Helvetica,sans-Serif" font-size="10.00">src/bot_library/commands</text>
<text text-anchor="start" x="3077.5" y="-98.5" font-family="Helvetica,sans-Serif" font-size="10.00">/portal/repositories/Blacklist</text>
<text text-anchor="middle" x="3137.88" y="-86.5" font-family="Helvetica,sans-Serif" font-size="10.00">Repository.hpp</text>
</a>
</g>
</g>
<!-- Node1&#45;&gt;Node22 -->
<g id="edge23_Node000001_Node000022" class="edge">
<title>Node1&#45;&gt;Node22</title>
<g id="a_edge23_Node000001_Node000022"><a xlink:title=" ">
<path fill="none" stroke="#63b8ff" d="M2199.08,-175.57C2384.42,-161.25 2885.24,-122.53 3069.03,-108.32"/>
<polygon fill="#63b8ff" stroke="#63b8ff" points="2199.06,-172.06 2189.36,-176.32 2199.6,-179.04 2199.06,-172.06"/>
</a>
</g>
</g>
<!-- Node26 -->
<g id="Node000026" class="node">
<title>Node26</title>
<g id="a_Node000026"><a xlink:href="PortalRepository_8hpp.html" target="_top" xlink:title=" ">
<polygon fill="white" stroke="#666666" points="3580.88,-118 3390.88,-118 3390.88,-86 3580.88,-86 3580.88,-118"/>
<text text-anchor="start" x="3398.88" y="-104.5" font-family="Helvetica,sans-Serif" font-size="10.00">src/bot_library/commands</text>
<text text-anchor="middle" x="3485.88" y="-92.5" font-family="Helvetica,sans-Serif" font-size="10.00">/portal/repositories/PortalRepository.hpp</text>
</a>
</g>
</g>
<!-- Node1&#45;&gt;Node26 -->
<g id="edge27_Node000001_Node000026" class="edge">
<title>Node1&#45;&gt;Node26</title>
<g id="a_edge27_Node000001_Node000026"><a xlink:title=" ">
<path fill="none" stroke="#63b8ff" d="M2199.23,-177.92C2372.15,-170.2 2831.8,-148.89 3214.88,-124 3273.27,-120.21 3338.67,-115.16 3390.6,-110.97"/>
<polygon fill="#63b8ff" stroke="#63b8ff" points="2199.11,-174.42 2189.28,-178.36 2199.42,-181.41 2199.11,-174.42"/>
</a>
</g>
</g>
<!-- Node29 -->
<g id="Node000029" class="node">
<title>Node29</title>
<g id="a_Node000029"><a xlink:href="ReactionRoleRepository_8hpp.html" target="_top" xlink:title=" ">
<polygon fill="white" stroke="#666666" points="2232.5,-118 2025.25,-118 2025.25,-86 2232.5,-86 2232.5,-118"/>
<text text-anchor="start" x="2033.25" y="-104.5" font-family="Helvetica,sans-Serif" font-size="10.00">src/bot_library/commands</text>
<text text-anchor="middle" x="2128.88" y="-92.5" font-family="Helvetica,sans-Serif" font-size="10.00">/reaction_roles/ReactionRoleRepository.hpp</text>
</a>
</g>
</g>
<!-- Node1&#45;&gt;Node29 -->
<g id="edge31_Node000001_Node000029" class="edge">
<title>Node1&#45;&gt;Node29</title>
<g id="a_edge31_Node000001_Node000029"><a xlink:title=" ">
<path fill="none" stroke="#63b8ff" d="M2128.88,-148.28C2128.88,-137.8 2128.88,-126.7 2128.88,-118.11"/>
<polygon fill="#63b8ff" stroke="#63b8ff" points="2125.38,-148.17 2128.88,-158.17 2132.38,-148.17 2125.38,-148.17"/>
</a>
</g>
</g>
<!-- Node32 -->
<g id="Node000032" class="node">
<title>Node32</title>
<g id="a_Node000032"><a xlink:href="ResourceRepository_8hpp.html" target="_top" xlink:title=" ">
<polygon fill="white" stroke="#666666" points="4149.12,-124 4020.62,-124 4020.62,-80 4149.12,-80 4149.12,-124"/>
<text text-anchor="start" x="4028.62" y="-110.5" font-family="Helvetica,sans-Serif" font-size="10.00">src/bot_library/commands</text>
<text text-anchor="start" x="4028.62" y="-98.5" font-family="Helvetica,sans-Serif" font-size="10.00">/resources/repositories</text>
<text text-anchor="middle" x="4084.88" y="-86.5" font-family="Helvetica,sans-Serif" font-size="10.00">/ResourceRepository.hpp</text>
</a>
</g>
</g>
<!-- Node1&#45;&gt;Node32 -->
<g id="edge35_Node000001_Node000032" class="edge">
<title>Node1&#45;&gt;Node32</title>
<g id="a_edge35_Node000001_Node000032"><a xlink:title=" ">
<path fill="none" stroke="#63b8ff" d="M2199.16,-178.34C2409.91,-170.36 3055,-145.78 3589.88,-124 3744.36,-117.71 3925.94,-109.9 4020.41,-105.81"/>
<polygon fill="#63b8ff" stroke="#63b8ff" points="2199.05,-174.84 2189.19,-178.72 2199.32,-181.84 2199.05,-174.84"/>
</a>
</g>
</g>
<!-- Node3 -->
<g id="Node000003" class="node">
<title>Node3</title>
<g id="a_Node000003"><a xlink:href="WebUserRepository_8cpp.html" target="_top" xlink:title=" ">
<polygon fill="white" stroke="#666666" points="274.12,-38 127.62,-38 127.62,-6 274.12,-6 274.12,-38"/>
<text text-anchor="start" x="135.62" y="-24.5" font-family="Helvetica,sans-Serif" font-size="10.00">src/bot_library/commands</text>
<text text-anchor="middle" x="200.88" y="-12.5" font-family="Helvetica,sans-Serif" font-size="10.00">/auth/WebUserRepository.cpp</text>
</a>
</g>
</g>
<!-- Node2&#45;&gt;Node3 -->
<g id="edge2_Node000002_Node000003" class="edge">
<title>Node2&#45;&gt;Node3</title>
<g id="a_edge2_Node000002_Node000003"><a xlink:title=" ">
<path fill="none" stroke="#63b8ff" d="M200.88,-74.37C200.88,-62.37 200.88,-48.63 200.88,-38.38"/>
<polygon fill="#63b8ff" stroke="#63b8ff" points="197.38,-74.08 200.88,-84.08 204.38,-74.08 197.38,-74.08"/>
</a>
</g>
</g>
<!-- Node4 -->
<g id="Node000004" class="node">
<title>Node4</title>
<g id="a_Node000004"><a xlink:href="AuthHandler_8cpp.html" target="_top" xlink:title=" ">
<polygon fill="white" stroke="#666666" points="109.75,-38 0,-38 0,-6 109.75,-6 109.75,-38"/>
<text text-anchor="start" x="8" y="-24.5" font-family="Helvetica,sans-Serif" font-size="10.00">src/bot_library/restapi</text>
<text text-anchor="middle" x="54.88" y="-12.5" font-family="Helvetica,sans-Serif" font-size="10.00">/AuthHandler.cpp</text>
</a>
</g>
</g>
<!-- Node2&#45;&gt;Node4 -->
<g id="edge3_Node000002_Node000004" class="edge">
<title>Node2&#45;&gt;Node4</title>
<g id="a_edge3_Node000002_Node000004"><a xlink:title=" ">
<path fill="none" stroke="#63b8ff" d="M161.93,-80.2C137.32,-67.04 106.04,-50.33 83.66,-38.38"/>
<polygon fill="#63b8ff" stroke="#63b8ff" points="160.23,-83.25 170.7,-84.88 163.52,-77.08 160.23,-83.25"/>
</a>
</g>
</g>
<!-- Node6 -->
<g id="Node000006" class="node">
<title>Node6</title>
<g id="a_Node000006"><a xlink:href="ChallengeBadgeCommand_8cpp.html" target="_top" xlink:title=" ">
<polygon fill="white" stroke="#666666" points="799.88,-44 633.88,-44 633.88,0 799.88,0 799.88,-44"/>
<text text-anchor="start" x="641.88" y="-30.5" font-family="Helvetica,sans-Serif" font-size="10.00">src/bot_library/commands</text>
<text text-anchor="start" x="641.88" y="-18.5" font-family="Helvetica,sans-Serif" font-size="10.00">/challenge_badge/ChallengeBadge</text>
<text text-anchor="middle" x="716.88" y="-6.5" font-family="Helvetica,sans-Serif" font-size="10.00">Command.cpp</text>
</a>
</g>
</g>
<!-- Node5&#45;&gt;Node6 -->
<g id="edge5_Node000005_Node000006" class="edge">
<title>Node5&#45;&gt;Node6</title>
<g id="a_edge5_Node000005_Node000006"><a xlink:title=" ">
<path fill="none" stroke="#63b8ff" d="M663.29,-72.17C673.35,-62.94 684.31,-52.88 693.68,-44.29"/>
<polygon fill="#63b8ff" stroke="#63b8ff" points="661.22,-69.32 656.22,-78.66 665.95,-74.48 661.22,-69.32"/>
</a>
</g>
</g>
<!-- Node7 -->
<g id="Node000007" class="node">
<title>Node7</title>
<g id="a_Node000007"><a xlink:href="ChallengeBadgeRepository_8cpp.html" target="_top" xlink:title=" ">
<polygon fill="white" stroke="#666666" points="457.88,-44 291.88,-44 291.88,0 457.88,0 457.88,-44"/>
<text text-anchor="start" x="299.88" y="-30.5" font-family="Helvetica,sans-Serif" font-size="10.00">src/bot_library/commands</text>
<text text-anchor="start" x="299.88" y="-18.5" font-family="Helvetica,sans-Serif" font-size="10.00">/challenge_badge/ChallengeBadge</text>
<text text-anchor="middle" x="374.88" y="-6.5" font-family="Helvetica,sans-Serif" font-size="10.00">Repository.cpp</text>
</a>
</g>
</g>
<!-- Node5&#45;&gt;Node7 -->
<g id="edge6_Node000005_Node000007" class="edge">
<title>Node5&#45;&gt;Node7</title>
<g id="a_edge6_Node000005_Node000007"><a xlink:title=" ">
<path fill="none" stroke="#63b8ff" d="M550.52,-76.31C516.71,-66.05 477.85,-54.25 445.28,-44.37"/>
<polygon fill="#63b8ff" stroke="#63b8ff" points="549.27,-79.59 559.86,-79.14 551.31,-72.89 549.27,-79.59"/>
</a>
</g>
</g>
<!-- Node8 -->
<g id="Node000008" class="node">
<title>Node8</title>
<g id="a_Node000008"><a xlink:href="ProfileCommand_8cpp.html" target="_top" xlink:title=" ">
<polygon fill="white" stroke="#666666" points="615.75,-38 476,-38 476,-6 615.75,-6 615.75,-38"/>
<text text-anchor="start" x="484" y="-24.5" font-family="Helvetica,sans-Serif" font-size="10.00">src/bot_library/commands</text>
<text text-anchor="middle" x="545.88" y="-12.5" font-family="Helvetica,sans-Serif" font-size="10.00">/profile/ProfileCommand.cpp</text>
</a>
</g>
</g>
<!-- Node5&#45;&gt;Node8 -->
<g id="edge7_Node000005_Node000008" class="edge">
<title>Node5&#45;&gt;Node8</title>
<g id="a_edge7_Node000005_Node000008"><a xlink:title=" ">
<path fill="none" stroke="#63b8ff" d="M599.93,-72.03C587.33,-60.6 573.38,-47.94 562.8,-38.35"/>
<polygon fill="#63b8ff" stroke="#63b8ff" points="597.5,-74.54 607.25,-78.67 602.2,-69.36 597.5,-74.54"/>
</a>
</g>
</g>
<!-- Node9&#45;&gt;Node6 -->
<g id="edge9_Node000009_Node000006" class="edge">
<title>Node9&#45;&gt;Node6</title>
<g id="a_edge9_Node000009_Node000006"><a xlink:title=" ">
<path fill="none" stroke="#63b8ff" d="M961.85,-82.9C913.55,-71.09 850.41,-55.65 800.32,-43.4"/>
<polygon fill="#63b8ff" stroke="#63b8ff" points="960.84,-86.25 971.38,-85.23 962.5,-79.46 960.84,-86.25"/>
</a>
</g>
</g>
<!-- Node9&#45;&gt;Node8 -->
<g id="edge12_Node000009_Node000008" class="edge">
<title>Node9&#45;&gt;Node8</title>
<g id="a_edge12_Node000009_Node000008"><a xlink:title=" ">
<path fill="none" stroke="#63b8ff" d="M933.87,-90.36C850.34,-80.81 729.35,-65.05 624.88,-44 616.95,-42.4 608.63,-40.48 600.49,-38.44"/>
<polygon fill="#63b8ff" stroke="#63b8ff" points="933.31,-93.82 943.64,-91.47 934.09,-86.86 933.31,-93.82"/>
</a>
</g>
</g>
<!-- Node10 -->
<g id="Node000010" class="node">
<title>Node10</title>
<g id="a_Node000010"><a xlink:href="UserRepository_8cpp.html" target="_top" xlink:title=" ">
<polygon fill="white" stroke="#666666" points="1126.38,-38 945.38,-38 945.38,-6 1126.38,-6 1126.38,-38"/>
<text text-anchor="start" x="953.38" y="-24.5" font-family="Helvetica,sans-Serif" font-size="10.00">src/bot_library/commands</text>
<text text-anchor="middle" x="1035.88" y="-12.5" font-family="Helvetica,sans-Serif" font-size="10.00">/challenge_badge/UserRepository.cpp</text>
</a>
</g>
</g>
<!-- Node9&#45;&gt;Node10 -->
<g id="edge10_Node000009_Node000010" class="edge">
<title>Node9&#45;&gt;Node10</title>
<g id="a_edge10_Node000009_Node000010"><a xlink:title=" ">
<path fill="none" stroke="#63b8ff" d="M1035.88,-74.37C1035.88,-62.37 1035.88,-48.63 1035.88,-38.38"/>
<polygon fill="#63b8ff" stroke="#63b8ff" points="1032.38,-74.08 1035.88,-84.08 1039.38,-74.08 1032.38,-74.08"/>
</a>
</g>
</g>
<!-- Node11 -->
<g id="Node000011" class="node">
<title>Node11</title>
<g id="a_Node000011"><a xlink:href="FlipCommand_8cpp.html" target="_top" xlink:title=" ">
<polygon fill="white" stroke="#666666" points="1273.12,-38 1144.62,-38 1144.62,-6 1273.12,-6 1273.12,-38"/>
<text text-anchor="start" x="1152.62" y="-24.5" font-family="Helvetica,sans-Serif" font-size="10.00">src/bot_library/commands</text>
<text text-anchor="middle" x="1208.88" y="-12.5" font-family="Helvetica,sans-Serif" font-size="10.00">/flip/FlipCommand.cpp</text>
</a>
</g>
</g>
<!-- Node9&#45;&gt;Node11 -->
<g id="edge11_Node000009_Node000011" class="edge">
<title>Node9&#45;&gt;Node11</title>
<g id="a_edge11_Node000009_Node000011"><a xlink:title=" ">
<path fill="none" stroke="#63b8ff" d="M1080.46,-80.9C1109.86,-67.64 1147.77,-50.55 1174.77,-38.38"/>
<polygon fill="#63b8ff" stroke="#63b8ff" points="1079.11,-77.67 1071.43,-84.97 1081.99,-84.05 1079.11,-77.67"/>
</a>
</g>
</g>
<!-- Node12 -->
<g id="Node000012" class="node">
<title>Node12</title>
<g id="a_Node000012"><a xlink:href="RollCommand_8cpp.html" target="_top" xlink:title=" ">
<polygon fill="white" stroke="#666666" points="1420.12,-38 1291.62,-38 1291.62,-6 1420.12,-6 1420.12,-38"/>
<text text-anchor="start" x="1299.62" y="-24.5" font-family="Helvetica,sans-Serif" font-size="10.00">src/bot_library/commands</text>
<text text-anchor="middle" x="1355.88" y="-12.5" font-family="Helvetica,sans-Serif" font-size="10.00">/roll/RollCommand.cpp</text>
</a>
</g>
</g>
<!-- Node9&#45;&gt;Node12 -->
<g id="edge13_Node000009_Node000012" class="edge">
<title>Node9&#45;&gt;Node12</title>
<g id="a_edge13_Node000009_Node000012"><a xlink:title=" ">
<path fill="none" stroke="#63b8ff" d="M1117.83,-83.06C1165.78,-72.31 1227.42,-58.03 1281.88,-44 1288.6,-42.27 1295.65,-40.37 1302.61,-38.45"/>
<polygon fill="#63b8ff" stroke="#63b8ff" points="1117.35,-79.58 1108.36,-85.18 1118.88,-86.41 1117.35,-79.58"/>
</a>
</g>
</g>
<!-- Node13 -->
<g id="Node000013" class="node">
<title>Node13</title>
<g id="a_Node000013"><a xlink:href="RestApi_8cpp.html" target="_top" xlink:title=" ">
<polygon fill="white" stroke="#666666" points="927.75,-38 818,-38 818,-6 927.75,-6 927.75,-38"/>
<text text-anchor="start" x="826" y="-24.5" font-family="Helvetica,sans-Serif" font-size="10.00">src/bot_library/restapi</text>
<text text-anchor="middle" x="872.88" y="-12.5" font-family="Helvetica,sans-Serif" font-size="10.00">/RestApi.cpp</text>
</a>
</g>
</g>
<!-- Node9&#45;&gt;Node13 -->
<g id="edge14_Node000009_Node000013" class="edge">
<title>Node9&#45;&gt;Node13</title>
<g id="a_edge14_Node000009_Node000013"><a xlink:title=" ">
<path fill="none" stroke="#63b8ff" d="M993.5,-80.72C965.85,-67.49 930.33,-50.5 905.01,-38.38"/>
<polygon fill="#63b8ff" stroke="#63b8ff" points="991.77,-83.78 1002.31,-84.94 994.8,-77.46 991.77,-83.78"/>
</a>
</g>
</g>
<!-- Node15 -->
<g id="Node000015" class="node">
<title>Node15</title>
<g id="a_Node000015"><a xlink:href="ChallengeRoleCommand_8cpp.html" target="_top" xlink:title=" ">
<polygon fill="white" stroke="#666666" points="1881.75,-38 1670,-38 1670,-6 1881.75,-6 1881.75,-38"/>
<text text-anchor="start" x="1678" y="-24.5" font-family="Helvetica,sans-Serif" font-size="10.00">src/bot_library/commands</text>
<text text-anchor="middle" x="1775.88" y="-12.5" font-family="Helvetica,sans-Serif" font-size="10.00">/challenge_role/ChallengeRoleCommand.cpp</text>
</a>
</g>
</g>
<!-- Node14&#45;&gt;Node15 -->
<g id="edge16_Node000014_Node000015" class="edge">
<title>Node14&#45;&gt;Node15</title>
<g id="a_edge16_Node000014_Node000015"><a xlink:title=" ">
<path fill="none" stroke="#63b8ff" d="M1819.46,-76.96C1809.3,-64.39 1797.18,-49.37 1788.3,-38.38"/>
<polygon fill="#63b8ff" stroke="#63b8ff" points="1816.47,-78.83 1825.48,-84.41 1821.92,-74.43 1816.47,-78.83"/>
</a>
</g>
</g>
<!-- Node16 -->
<g id="Node000016" class="node">
<title>Node16</title>
<g id="a_Node000016"><a xlink:href="ChallengeRoleRepository_8cpp.html" target="_top" xlink:title=" ">
<polygon fill="white" stroke="#666666" points="1651.5,-38 1438.25,-38 1438.25,-6 1651.5,-6 1651.5,-38"/>
<text text-anchor="start" x="1446.25" y="-24.5" font-family="Helvetica,sans-Serif" font-size="10.00">src/bot_library/commands</text>
<text text-anchor="middle" x="1544.88" y="-12.5" font-family="Helvetica,sans-Serif" font-size="10.00">/challenge_role/ChallengeRoleRepository.cpp</text>
</a>
</g>
</g>
<!-- Node14&#45;&gt;Node16 -->
<g id="edge17_Node000014_Node000016" class="edge">
<title>Node14&#45;&gt;Node16</title>
<g id="a_edge17_Node000014_Node000016"><a xlink:title=" ">
<path fill="none" stroke="#63b8ff" d="M1769.93,-82.71C1719.22,-69.26 1651.07,-51.17 1603.09,-38.44"/>
<polygon fill="#63b8ff" stroke="#63b8ff" points="1768.76,-86.02 1779.33,-85.2 1770.56,-79.25 1768.76,-86.02"/>
</a>
</g>
</g>
<!-- Node17 -->
<g id="Node000017" class="node">
<title>Node17</title>
<g id="a_Node000017"><a xlink:href="CleanUp_8cpp.html" target="_top" xlink:title=" ">
<polygon fill="white" stroke="#666666" points="2028.12,-38 1899.62,-38 1899.62,-6 2028.12,-6 2028.12,-38"/>
<text text-anchor="start" x="1907.62" y="-24.5" font-family="Helvetica,sans-Serif" font-size="10.00">src/bot_library/commands</text>
<text text-anchor="middle" x="1963.88" y="-12.5" font-family="Helvetica,sans-Serif" font-size="10.00">/clean_up/CleanUp.cpp</text>
</a>
</g>
</g>
<!-- Node14&#45;&gt;Node17 -->
<g id="edge18_Node000014_Node000017" class="edge">
<title>Node14&#45;&gt;Node17</title>
<g id="a_edge18_Node000014_Node000017"><a xlink:title=" ">
<path fill="none" stroke="#63b8ff" d="M1873.07,-79.67C1894.01,-66.6 1920.33,-50.17 1939.23,-38.38"/>
<polygon fill="#63b8ff" stroke="#63b8ff" points="1871.49,-76.53 1864.86,-84.79 1875.19,-82.46 1871.49,-76.53"/>
</a>
</g>
</g>
<!-- Node19 -->
<g id="Node000019" class="node">
<title>Node19</title>
<g id="a_Node000019"><a xlink:href="RemoveNotificationCommand_8cpp.html" target="_top" xlink:title=" ">
<polygon fill="white" stroke="#666666" points="2610.62,-44 2455.12,-44 2455.12,0 2610.62,0 2610.62,-44"/>
<text text-anchor="start" x="2463.12" y="-30.5" font-family="Helvetica,sans-Serif" font-size="10.00">src/bot_library/commands</text>
<text text-anchor="start" x="2463.12" y="-18.5" font-family="Helvetica,sans-Serif" font-size="10.00">/notification/RemoveNotification</text>
<text text-anchor="middle" x="2532.88" y="-6.5" font-family="Helvetica,sans-Serif" font-size="10.00">Command.cpp</text>
</a>
</g>
</g>
<!-- Node18&#45;&gt;Node19 -->
<g id="edge20_Node000018_Node000019" class="edge">
<title>Node18&#45;&gt;Node19</title>
<g id="a_edge20_Node000018_Node000019"><a xlink:title=" ">
<path fill="none" stroke="#63b8ff" d="M2594.71,-72.72C2583.04,-63.34 2570.25,-53.06 2559.35,-44.29"/>
<polygon fill="#63b8ff" stroke="#63b8ff" points="2592.2,-75.2 2602.19,-78.74 2596.59,-69.74 2592.2,-75.2"/>
</a>
</g>
</g>
<!-- Node20 -->
<g id="Node000020" class="node">
<title>Node20</title>
<g id="a_Node000020"><a xlink:href="SetNotificationCommand_8cpp.html" target="_top" xlink:title=" ">
<polygon fill="white" stroke="#666666" points="2826.62,-38 2629.12,-38 2629.12,-6 2826.62,-6 2826.62,-38"/>
<text text-anchor="start" x="2637.12" y="-24.5" font-family="Helvetica,sans-Serif" font-size="10.00">src/bot_library/commands</text>
<text text-anchor="middle" x="2727.88" y="-12.5" font-family="Helvetica,sans-Serif" font-size="10.00">/notification/SetNotificationCommand.cpp</text>
</a>
</g>
</g>
<!-- Node18&#45;&gt;Node20 -->
<g id="edge21_Node000018_Node000020" class="edge">
<title>Node18&#45;&gt;Node20</title>
<g id="a_edge21_Node000018_Node000020"><a xlink:title=" ">
<path fill="none" stroke="#63b8ff" d="M2665.45,-72.68C2680.02,-61.09 2696.3,-48.13 2708.59,-38.35"/>
<polygon fill="#63b8ff" stroke="#63b8ff" points="2663.48,-69.78 2657.84,-78.74 2667.84,-75.25 2663.48,-69.78"/>
</a>
</g>
</g>
<!-- Node21 -->
<g id="Node000021" class="node">
<title>Node21</title>
<g id="a_Node000021"><a xlink:href="NotificationRepository_8cpp.html" target="_top" xlink:title=" ">
<polygon fill="white" stroke="#666666" points="2978.75,-44 2845,-44 2845,0 2978.75,0 2978.75,-44"/>
<text text-anchor="start" x="2853" y="-30.5" font-family="Helvetica,sans-Serif" font-size="10.00">src/bot_library/commands</text>
<text text-anchor="start" x="2853" y="-18.5" font-family="Helvetica,sans-Serif" font-size="10.00">/notification/repositories</text>
<text text-anchor="middle" x="2911.88" y="-6.5" font-family="Helvetica,sans-Serif" font-size="10.00">/NotificationRepository.cpp</text>
</a>
</g>
</g>
<!-- Node18&#45;&gt;Node21 -->
<g id="edge22_Node000018_Node000021" class="edge">
<title>Node18&#45;&gt;Node21</title>
<g id="a_edge22_Node000018_Node000021"><a xlink:title=" ">
<path fill="none" stroke="#63b8ff" d="M2708.04,-79.38C2750.96,-67.51 2803.66,-52.93 2844.71,-41.58"/>
<polygon fill="#63b8ff" stroke="#63b8ff" points="2707.23,-75.97 2698.52,-82.01 2709.09,-82.72 2707.23,-75.97"/>
</a>
</g>
</g>
<!-- Node23 -->
<g id="Node000023" class="node">
<title>Node23</title>
<g id="a_Node000023"><a xlink:href="BlacklistCommand_8cpp.html" target="_top" xlink:title=" ">
<polygon fill="white" stroke="#666666" points="3298.5,-38 3151.25,-38 3151.25,-6 3298.5,-6 3298.5,-38"/>
<text text-anchor="start" x="3159.25" y="-24.5" font-family="Helvetica,sans-Serif" font-size="10.00">src/bot_library/commands</text>
<text text-anchor="middle" x="3224.88" y="-12.5" font-family="Helvetica,sans-Serif" font-size="10.00">/portal/BlacklistCommand.cpp</text>
</a>
</g>
</g>
<!-- Node22&#45;&gt;Node23 -->
<g id="edge24_Node000022_Node000023" class="edge">
<title>Node22&#45;&gt;Node23</title>
<g id="a_edge24_Node000022_Node000023"><a xlink:title=" ">
<path fill="none" stroke="#63b8ff" d="M3170.19,-72.03C3182.94,-60.6 3197.05,-47.94 3207.75,-38.35"/>
<polygon fill="#63b8ff" stroke="#63b8ff" points="3167.88,-69.39 3162.78,-78.68 3172.56,-74.61 3167.88,-69.39"/>
</a>
</g>
</g>
<!-- Node24 -->
<g id="Node000024" class="node">
<title>Node24</title>
<g id="a_Node000024"><a xlink:href="SetPortalCommand_8cpp.html" target="_top" xlink:title=" ">
<polygon fill="white" stroke="#666666" points="3467,-38 3316.75,-38 3316.75,-6 3467,-6 3467,-38"/>
<text text-anchor="start" x="3324.75" y="-24.5" font-family="Helvetica,sans-Serif" font-size="10.00">src/bot_library/commands</text>
<text text-anchor="middle" x="3391.88" y="-12.5" font-family="Helvetica,sans-Serif" font-size="10.00">/portal/SetPortalCommand.cpp</text>
</a>
</g>
</g>
<!-- Node22&#45;&gt;Node24 -->
<g id="edge25_Node000022_Node000024" class="edge">
<title>Node22&#45;&gt;Node24</title>
<g id="a_edge25_Node000022_Node000024"><a xlink:title=" ">
<path fill="none" stroke="#63b8ff" d="M3217.57,-76.53C3258.14,-64.07 3306.24,-49.3 3341.62,-38.43"/>
<polygon fill="#63b8ff" stroke="#63b8ff" points="3216.59,-73.17 3208.06,-79.45 3218.64,-79.86 3216.59,-73.17"/>
</a>
</g>
</g>
<!-- Node25 -->
<g id="Node000025" class="node">
<title>Node25</title>
<g id="a_Node000025"><a xlink:href="BlacklistRepository_8cpp.html" target="_top" xlink:title=" ">
<polygon fill="white" stroke="#666666" points="3133.25,-44 2996.5,-44 2996.5,0 3133.25,0 3133.25,-44"/>
<text text-anchor="start" x="3004.5" y="-30.5" font-family="Helvetica,sans-Serif" font-size="10.00">src/bot_library/commands</text>
<text text-anchor="start" x="3004.5" y="-18.5" font-family="Helvetica,sans-Serif" font-size="10.00">/portal/repositories/Blacklist</text>
<text text-anchor="middle" x="3064.88" y="-6.5" font-family="Helvetica,sans-Serif" font-size="10.00">Repository.cpp</text>
</a>
</g>
</g>
<!-- Node22&#45;&gt;Node25 -->
<g id="edge26_Node000022_Node000025" class="edge">
<title>Node22&#45;&gt;Node25</title>
<g id="a_edge26_Node000022_Node000025"><a xlink:title=" ">
<path fill="none" stroke="#63b8ff" d="M3110.11,-71.34C3101.69,-62.33 3092.6,-52.63 3084.8,-44.29"/>
<polygon fill="#63b8ff" stroke="#63b8ff" points="3107.5,-73.67 3116.89,-78.58 3112.62,-68.89 3107.5,-73.67"/>
</a>
</g>
</g>
<!-- Node26&#45;&gt;Node24 -->
<g id="edge29_Node000026_Node000024" class="edge">
<title>Node26&#45;&gt;Node24</title>
<g id="a_edge29_Node000026_Node000024"><a xlink:title=" ">
<path fill="none" stroke="#63b8ff" d="M3458.66,-78.41C3443.17,-65.56 3424.17,-49.8 3410.41,-38.38"/>
<polygon fill="#63b8ff" stroke="#63b8ff" points="3456.21,-80.93 3466.14,-84.62 3460.68,-75.54 3456.21,-80.93"/>
</a>
</g>
</g>
<!-- Node27 -->
<g id="Node000027" class="node">
<title>Node27</title>
<g id="a_Node000027"><a xlink:href="RemovePortalCommand_8cpp.html" target="_top" xlink:title=" ">
<polygon fill="white" stroke="#666666" points="3864.88,-38 3692.88,-38 3692.88,-6 3864.88,-6 3864.88,-38"/>
<text text-anchor="start" x="3700.88" y="-24.5" font-family="Helvetica,sans-Serif" font-size="10.00">src/bot_library/commands</text>
<text text-anchor="middle" x="3778.88" y="-12.5" font-family="Helvetica,sans-Serif" font-size="10.00">/portal/RemovePortalCommand.cpp</text>
</a>
</g>
</g>
<!-- Node26&#45;&gt;Node27 -->
<g id="edge28_Node000026_Node000027" class="edge">
<title>Node26&#45;&gt;Node27</title>
<g id="a_edge28_Node000026_Node000027"><a xlink:title=" ">
<path fill="none" stroke="#63b8ff" d="M3554.59,-82.71C3605.12,-69.26 3673.04,-51.17 3720.86,-38.44"/>
<polygon fill="#63b8ff" stroke="#63b8ff" points="3553.99,-79.25 3545.22,-85.2 3555.79,-86.01 3553.99,-79.25"/>
</a>
</g>
</g>
<!-- Node28 -->
<g id="Node000028" class="node">
<title>Node28</title>
<g id="a_Node000028"><a xlink:href="PortalRepository_8cpp.html" target="_top" xlink:title=" ">
<polygon fill="white" stroke="#666666" points="3674.88,-38 3484.88,-38 3484.88,-6 3674.88,-6 3674.88,-38"/>
<text text-anchor="start" x="3492.88" y="-24.5" font-family="Helvetica,sans-Serif" font-size="10.00">src/bot_library/commands</text>
<text text-anchor="middle" x="3579.88" y="-12.5" font-family="Helvetica,sans-Serif" font-size="10.00">/portal/repositories/PortalRepository.cpp</text>
</a>
</g>
</g>
<!-- Node26&#45;&gt;Node28 -->
<g id="edge30_Node000026_Node000028" class="edge">
<title>Node26&#45;&gt;Node28</title>
<g id="a_edge30_Node000026_Node000028"><a xlink:title=" ">
<path fill="none" stroke="#63b8ff" d="M3513.09,-78.41C3528.58,-65.56 3547.58,-49.8 3561.34,-38.38"/>
<polygon fill="#63b8ff" stroke="#63b8ff" points="3511.07,-75.54 3505.61,-84.62 3515.54,-80.93 3511.07,-75.54"/>
</a>
</g>
</g>
<!-- Node29&#45;&gt;Node17 -->
<g id="edge32_Node000029_Node000017" class="edge">
<title>Node29&#45;&gt;Node17</title>
<g id="a_edge32_Node000029_Node000017"><a xlink:title=" ">
<path fill="none" stroke="#63b8ff" d="M2085.98,-80.72C2057.99,-67.49 2022.04,-50.5 1996.41,-38.38"/>
<polygon fill="#63b8ff" stroke="#63b8ff" points="2084.37,-83.83 2094.91,-84.94 2087.36,-77.5 2084.37,-83.83"/>
</a>
</g>
</g>
<!-- Node30 -->
<g id="Node000030" class="node">
<title>Node30</title>
<g id="a_Node000030"><a xlink:href="ReactionRoleRepository_8cpp.html" target="_top" xlink:title=" ">
<polygon fill="white" stroke="#666666" points="2437.5,-38 2230.25,-38 2230.25,-6 2437.5,-6 2437.5,-38"/>
<text text-anchor="start" x="2238.25" y="-24.5" font-family="Helvetica,sans-Serif" font-size="10.00">src/bot_library/commands</text>
<text text-anchor="middle" x="2333.88" y="-12.5" font-family="Helvetica,sans-Serif" font-size="10.00">/reaction_roles/ReactionRoleRepository.cpp</text>
</a>
</g>
</g>
<!-- Node29&#45;&gt;Node30 -->
<g id="edge33_Node000029_Node000030" class="edge">
<title>Node29&#45;&gt;Node30</title>
<g id="a_edge33_Node000029_Node000030"><a xlink:title=" ">
<path fill="none" stroke="#63b8ff" d="M2179.89,-81.59C2214.97,-68.24 2260.91,-50.76 2293.46,-38.38"/>
<polygon fill="#63b8ff" stroke="#63b8ff" points="2178.89,-78.22 2170.79,-85.05 2181.38,-84.77 2178.89,-78.22"/>
</a>
</g>
</g>
<!-- Node31 -->
<g id="Node000031" class="node">
<title>Node31</title>
<g id="a_Node000031"><a xlink:href="ReactionRoles_8cpp.html" target="_top" xlink:title=" ">
<polygon fill="white" stroke="#666666" points="2211.88,-38 2045.88,-38 2045.88,-6 2211.88,-6 2211.88,-38"/>
<text text-anchor="start" x="2053.88" y="-24.5" font-family="Helvetica,sans-Serif" font-size="10.00">src/bot_library/commands</text>
<text text-anchor="middle" x="2128.88" y="-12.5" font-family="Helvetica,sans-Serif" font-size="10.00">/reaction_roles/ReactionRoles.cpp</text>
</a>
</g>
</g>
<!-- Node29&#45;&gt;Node31 -->
<g id="edge34_Node000029_Node000031" class="edge">
<title>Node29&#45;&gt;Node31</title>
<g id="a_edge34_Node000029_Node000031"><a xlink:title=" ">
<path fill="none" stroke="#63b8ff" d="M2128.88,-74.37C2128.88,-62.37 2128.88,-48.63 2128.88,-38.38"/>
<polygon fill="#63b8ff" stroke="#63b8ff" points="2125.38,-74.08 2128.88,-84.08 2132.38,-74.08 2125.38,-74.08"/>
</a>
</g>
</g>
<!-- Node33 -->
<g id="Node000033" class="node">
<title>Node33</title>
<g id="a_Node000033"><a xlink:href="AddResourcesCommand_8cpp.html" target="_top" xlink:title=" ">
<polygon fill="white" stroke="#666666" points="4076.38,-38 3883.38,-38 3883.38,-6 4076.38,-6 4076.38,-38"/>
<text text-anchor="start" x="3891.38" y="-24.5" font-family="Helvetica,sans-Serif" font-size="10.00">src/bot_library/commands</text>
<text text-anchor="middle" x="3979.88" y="-12.5" font-family="Helvetica,sans-Serif" font-size="10.00">/resources/AddResourcesCommand.cpp</text>
</a>
</g>
</g>
<!-- Node32&#45;&gt;Node33 -->
<g id="edge36_Node000032_Node000033" class="edge">
<title>Node32&#45;&gt;Node33</title>
<g id="a_edge36_Node000032_Node000033"><a xlink:title=" ">
<path fill="none" stroke="#63b8ff" d="M4047.2,-73.01C4031.48,-61.33 4013.83,-48.22 4000.54,-38.35"/>
<polygon fill="#63b8ff" stroke="#63b8ff" points="4044.85,-75.63 4054.97,-78.78 4049.03,-70.01 4044.85,-75.63"/>
</a>
</g>
</g>
<!-- Node34 -->
<g id="Node000034" class="node">
<title>Node34</title>
<g id="a_Node000034"><a xlink:href="GetResourcesCommand_8cpp.html" target="_top" xlink:title=" ">
<polygon fill="white" stroke="#666666" points="4285.62,-38 4094.12,-38 4094.12,-6 4285.62,-6 4285.62,-38"/>
<text text-anchor="start" x="4102.12" y="-24.5" font-family="Helvetica,sans-Serif" font-size="10.00">src/bot_library/commands</text>
<text text-anchor="middle" x="4189.88" y="-12.5" font-family="Helvetica,sans-Serif" font-size="10.00">/resources/GetResourcesCommand.cpp</text>
</a>
</g>
</g>
<!-- Node32&#45;&gt;Node34 -->
<g id="edge37_Node000032_Node000034" class="edge">
<title>Node32&#45;&gt;Node34</title>
<g id="a_edge37_Node000032_Node000034"><a xlink:title=" ">
<path fill="none" stroke="#63b8ff" d="M4122.55,-73.01C4138.27,-61.33 4155.92,-48.22 4169.21,-38.35"/>
<polygon fill="#63b8ff" stroke="#63b8ff" points="4120.72,-70.01 4114.78,-78.78 4124.9,-75.63 4120.72,-70.01"/>
</a>
</g>
</g>
<!-- Node35 -->
<g id="Node000035" class="node">
<title>Node35</title>
<g id="a_Node000035"><a xlink:href="ResourceRepository_8cpp.html" target="_top" xlink:title=" ">
<polygon fill="white" stroke="#666666" points="4432.12,-44 4303.62,-44 4303.62,0 4432.12,0 4432.12,-44"/>
<text text-anchor="start" x="4311.62" y="-30.5" font-family="Helvetica,sans-Serif" font-size="10.00">src/bot_library/commands</text>
<text text-anchor="start" x="4311.62" y="-18.5" font-family="Helvetica,sans-Serif" font-size="10.00">/resources/repositories</text>
<text text-anchor="middle" x="4367.88" y="-6.5" font-family="Helvetica,sans-Serif" font-size="10.00">/ResourceRepository.cpp</text>
</a>
</g>
</g>
<!-- Node32&#45;&gt;Node35 -->
<g id="edge38_Node000032_Node000035" class="edge">
<title>Node32&#45;&gt;Node35</title>
<g id="a_edge38_Node000032_Node000035"><a xlink:title=" ">
<path fill="none" stroke="#63b8ff" d="M4160.29,-80.82C4200.32,-70.04 4250.31,-56.46 4294.88,-44 4297.67,-43.22 4300.52,-42.42 4303.4,-41.6"/>
<polygon fill="#63b8ff" stroke="#63b8ff" points="4159.49,-77.42 4150.74,-83.39 4161.31,-84.18 4159.49,-77.42"/>
</a>
</g>
</g>
</g>
</svg>
