<?xml version="1.0" encoding="UTF-8" standalone="no"?>
<!DOCTYPE svg PUBLIC "-//W3C//DTD SVG 1.1//EN"
 "http://www.w3.org/Graphics/SVG/1.1/DTD/svg11.dtd">
<!-- Generated by graphviz version 12.2.1 (0)
 -->
<!-- Title: src/bot_library/restapi/include/JWTUtils.hpp Pages: 1 -->
<svg width="174pt" height="96pt"
 viewBox="0.00 0.00 174.12 96.00" xmlns="http://www.w3.org/2000/svg" xmlns:xlink="http://www.w3.org/1999/xlink">
<g id="graph0" class="graph" transform="scale(1 1) rotate(0) translate(4 92)">
<title>src/bot_library/restapi/include/JWTUtils.hpp</title>
<!-- Node1 -->
<g id="Node000001" class="node">
<title>Node1</title>
<g id="a_Node000001"><a xlink:title=" ">
<polygon fill="#999999" stroke="#666666" points="156.5,-88 43.75,-88 43.75,-56 156.5,-56 156.5,-88"/>
<text text-anchor="start" x="51.75" y="-74.5" font-family="Helvetica,sans-Serif" font-size="10.00">src/bot_library/restapi</text>
<text text-anchor="middle" x="100.12" y="-62.5" font-family="Helvetica,sans-Serif" font-size="10.00">/include/JWTUtils.hpp</text>
</a>
</g>
</g>
<!-- Node2 -->
<g id="Node000002" class="node">
<title>Node2</title>
<g id="a_Node000002"><a xlink:title=" ">
<polygon fill="#e0e0e0" stroke="#999999" points="108.25,-20 0,-20 0,0 108.25,0 108.25,-20"/>
<text text-anchor="middle" x="54.12" y="-6.5" font-family="Helvetica,sans-Serif" font-size="10.00">Poco/JSON/Object.h</text>
</a>
</g>
</g>
<!-- Node1&#45;&gt;Node2 -->
<g id="edge1_Node000001_Node000002" class="edge">
<title>Node1&#45;&gt;Node2</title>
<g id="a_edge1_Node000001_Node000002"><a xlink:title=" ">
<path fill="none" stroke="#63b8ff" d="M88.28,-55.55C82.16,-47.56 74.64,-37.76 68.22,-29.39"/>
<polygon fill="#63b8ff" stroke="#63b8ff" points="71.12,-27.42 62.26,-21.61 65.57,-31.67 71.12,-27.42"/>
</a>
</g>
</g>
<!-- Node3 -->
<g id="Node000003" class="node">
<title>Node3</title>
<g id="a_Node000003"><a xlink:title=" ">
<polygon fill="#e0e0e0" stroke="#999999" points="166.12,-20 126.12,-20 126.12,0 166.12,0 166.12,-20"/>
<text text-anchor="middle" x="146.12" y="-6.5" font-family="Helvetica,sans-Serif" font-size="10.00">string</text>
</a>
</g>
</g>
<!-- Node1&#45;&gt;Node3 -->
<g id="edge2_Node000001_Node000003" class="edge">
<title>Node1&#45;&gt;Node3</title>
<g id="a_edge2_Node000001_Node000003"><a xlink:title=" ">
<path fill="none" stroke="#63b8ff" d="M111.97,-55.55C118.09,-47.56 125.61,-37.76 132.03,-29.39"/>
<polygon fill="#63b8ff" stroke="#63b8ff" points="134.68,-31.67 137.99,-21.61 129.13,-27.42 134.68,-31.67"/>
</a>
</g>
</g>
</g>
</svg>
