<?xml version="1.0" encoding="UTF-8" standalone="no"?>
<!DOCTYPE svg PUBLIC "-//W3C//DTD SVG 1.1//EN"
 "http://www.w3.org/Graphics/SVG/1.1/DTD/svg11.dtd">
<!-- Generated by graphviz version 12.2.1 (0)
 -->
<!-- Title: src/bot_library/commands/notification/repositories/LatestEventsRepository.cpp Pages: 1 -->
<svg width="565pt" height="220pt"
 viewBox="0.00 0.00 565.38 220.00" xmlns="http://www.w3.org/2000/svg" xmlns:xlink="http://www.w3.org/1999/xlink">
<g id="graph0" class="graph" transform="scale(1 1) rotate(0) translate(4 216)">
<title>src/bot_library/commands/notification/repositories/LatestEventsRepository.cpp</title>
<!-- Node1 -->
<g id="Node000001" class="node">
<title>Node1</title>
<g id="a_Node000001"><a xlink:title=" ">
<polygon fill="#999999" stroke="#666666" points="190.5,-212 48.5,-212 48.5,-168 190.5,-168 190.5,-212"/>
<text text-anchor="start" x="56.5" y="-198.5" font-family="Helvetica,sans-Serif" font-size="10.00">src/bot_library/commands</text>
<text text-anchor="start" x="56.5" y="-186.5" font-family="Helvetica,sans-Serif" font-size="10.00">/notification/repositories</text>
<text text-anchor="middle" x="119.5" y="-174.5" font-family="Helvetica,sans-Serif" font-size="10.00">/LatestEventsRepository.cpp</text>
</a>
</g>
</g>
<!-- Node2 -->
<g id="Node000002" class="node">
<title>Node2</title>
<g id="a_Node000002"><a xlink:href="LatestEventsRepository_8hpp.html" target="_top" xlink:title=" ">
<polygon fill="white" stroke="#666666" points="189,-132 50,-132 50,-112 189,-112 189,-132"/>
<text text-anchor="middle" x="119.5" y="-118.5" font-family="Helvetica,sans-Serif" font-size="10.00">LatestEventsRepository.hpp</text>
</a>
</g>
</g>
<!-- Node1&#45;&gt;Node2 -->
<g id="edge1_Node000001_Node000002" class="edge">
<title>Node1&#45;&gt;Node2</title>
<g id="a_edge1_Node000001_Node000002"><a xlink:title=" ">
<path fill="none" stroke="#63b8ff" d="M119.5,-167.75C119.5,-160.13 119.5,-151.53 119.5,-143.93"/>
<polygon fill="#63b8ff" stroke="#63b8ff" points="123,-143.93 119.5,-133.93 116,-143.93 123,-143.93"/>
</a>
</g>
</g>
<!-- Node3 -->
<g id="Node000003" class="node">
<title>Node3</title>
<g id="a_Node000003"><a xlink:title=" ">
<polygon fill="#e0e0e0" stroke="#999999" points="43,-76 0,-76 0,-56 43,-56 43,-76"/>
<text text-anchor="middle" x="21.5" y="-62.5" font-family="Helvetica,sans-Serif" font-size="10.00">mutex</text>
</a>
</g>
</g>
<!-- Node1&#45;&gt;Node3 -->
<g id="edge13_Node000001_Node000003" class="edge">
<title>Node1&#45;&gt;Node3</title>
<g id="a_edge13_Node000001_Node000003"><a xlink:title=" ">
<path fill="none" stroke="#63b8ff" d="M79.35,-167.5C65.3,-158.23 50.55,-146.23 40.5,-132 31.15,-118.77 26.36,-100.94 23.93,-87.31"/>
<polygon fill="#63b8ff" stroke="#63b8ff" points="27.44,-87.1 22.52,-77.71 20.51,-88.12 27.44,-87.1"/>
</a>
</g>
</g>
<!-- Node6 -->
<g id="Node000006" class="node">
<title>Node6</title>
<g id="a_Node000006"><a xlink:href="Database_8hpp.html" target="_top" xlink:title=" ">
<polygon fill="white" stroke="#666666" points="333.88,-132 257.12,-132 257.12,-112 333.88,-112 333.88,-132"/>
<text text-anchor="middle" x="295.5" y="-118.5" font-family="Helvetica,sans-Serif" font-size="10.00">Database.hpp</text>
</a>
</g>
</g>
<!-- Node1&#45;&gt;Node6 -->
<g id="edge5_Node000001_Node000006" class="edge">
<title>Node1&#45;&gt;Node6</title>
<g id="a_edge5_Node000001_Node000006"><a xlink:title=" ">
<path fill="none" stroke="#63b8ff" d="M176.64,-167.57C204.02,-157.3 235.97,-145.32 259.84,-136.37"/>
<polygon fill="#63b8ff" stroke="#63b8ff" points="260.97,-139.69 269.11,-132.9 258.52,-133.13 260.97,-139.69"/>
</a>
</g>
</g>
<!-- Node2&#45;&gt;Node3 -->
<g id="edge2_Node000002_Node000003" class="edge">
<title>Node2&#45;&gt;Node3</title>
<g id="a_edge2_Node000002_Node000003"><a xlink:title=" ">
<path fill="none" stroke="#63b8ff" d="M102.43,-111.59C87.62,-103.44 65.93,-91.48 48.73,-82"/>
<polygon fill="#63b8ff" stroke="#63b8ff" points="50.48,-78.97 40.03,-77.21 47.1,-85.1 50.48,-78.97"/>
</a>
</g>
</g>
<!-- Node4 -->
<g id="Node000004" class="node">
<title>Node4</title>
<g id="a_Node000004"><a xlink:title=" ">
<polygon fill="#e0e0e0" stroke="#999999" points="201.5,-76 161.5,-76 161.5,-56 201.5,-56 201.5,-76"/>
<text text-anchor="middle" x="181.5" y="-62.5" font-family="Helvetica,sans-Serif" font-size="10.00">string</text>
</a>
</g>
</g>
<!-- Node2&#45;&gt;Node4 -->
<g id="edge3_Node000002_Node000004" class="edge">
<title>Node2&#45;&gt;Node4</title>
<g id="a_edge3_Node000002_Node000004"><a xlink:title=" ">
<path fill="none" stroke="#63b8ff" d="M130.3,-111.59C139.1,-103.93 151.75,-92.91 162.27,-83.75"/>
<polygon fill="#63b8ff" stroke="#63b8ff" points="164.44,-86.5 169.68,-77.29 159.84,-81.22 164.44,-86.5"/>
</a>
</g>
</g>
<!-- Node5 -->
<g id="Node000005" class="node">
<title>Node5</title>
<g id="a_Node000005"><a xlink:title=" ">
<polygon fill="#e0e0e0" stroke="#999999" points="143.88,-76 61.12,-76 61.12,-56 143.88,-56 143.88,-76"/>
<text text-anchor="middle" x="102.5" y="-62.5" font-family="Helvetica,sans-Serif" font-size="10.00">unordered_map</text>
</a>
</g>
</g>
<!-- Node2&#45;&gt;Node5 -->
<g id="edge4_Node000002_Node000005" class="edge">
<title>Node2&#45;&gt;Node5</title>
<g id="a_edge4_Node000002_Node000005"><a xlink:title=" ">
<path fill="none" stroke="#63b8ff" d="M116.54,-111.59C114.42,-104.86 111.48,-95.53 108.84,-87.15"/>
<polygon fill="#63b8ff" stroke="#63b8ff" points="112.22,-86.23 105.88,-77.74 105.55,-88.33 112.22,-86.23"/>
</a>
</g>
</g>
<!-- Node6&#45;&gt;Node4 -->
<g id="edge8_Node000006_Node000004" class="edge">
<title>Node6&#45;&gt;Node4</title>
<g id="a_edge8_Node000006_Node000004"><a xlink:title=" ">
<path fill="none" stroke="#63b8ff" d="M275.64,-111.59C258.01,-103.24 231.99,-90.92 211.77,-81.34"/>
<polygon fill="#63b8ff" stroke="#63b8ff" points="213.42,-78.25 202.88,-77.13 210.42,-84.57 213.42,-78.25"/>
</a>
</g>
</g>
<!-- Node7 -->
<g id="Node000007" class="node">
<title>Node7</title>
<g id="a_Node000007"><a xlink:title=" ">
<polygon fill="#e0e0e0" stroke="#999999" points="267.62,-76 219.38,-76 219.38,-56 267.62,-56 267.62,-76"/>
<text text-anchor="middle" x="243.5" y="-62.5" font-family="Helvetica,sans-Serif" font-size="10.00">cstddef</text>
</a>
</g>
</g>
<!-- Node6&#45;&gt;Node7 -->
<g id="edge6_Node000006_Node000007" class="edge">
<title>Node6&#45;&gt;Node7</title>
<g id="a_edge6_Node000006_Node000007"><a xlink:title=" ">
<path fill="none" stroke="#63b8ff" d="M286.44,-111.59C279.28,-104.16 269.09,-93.58 260.43,-84.58"/>
<polygon fill="#63b8ff" stroke="#63b8ff" points="262.96,-82.16 253.5,-77.39 257.92,-87.02 262.96,-82.16"/>
</a>
</g>
</g>
<!-- Node8 -->
<g id="Node000008" class="node">
<title>Node8</title>
<g id="a_Node000008"><a xlink:title=" ">
<polygon fill="#e0e0e0" stroke="#999999" points="429,-20 368,-20 368,0 429,0 429,-20"/>
<text text-anchor="middle" x="398.5" y="-6.5" font-family="Helvetica,sans-Serif" font-size="10.00">pqxx/pqxx</text>
</a>
</g>
</g>
<!-- Node6&#45;&gt;Node8 -->
<g id="edge7_Node000006_Node000008" class="edge">
<title>Node6&#45;&gt;Node8</title>
<g id="a_edge7_Node000006_Node000008"><a xlink:title=" ">
<path fill="none" stroke="#63b8ff" d="M296,-111.56C297.19,-97.89 301.17,-72.43 314.5,-56 325.76,-42.12 342.49,-31.94 358.05,-24.81"/>
<polygon fill="#63b8ff" stroke="#63b8ff" points="359.33,-28.07 367.17,-20.94 356.6,-21.62 359.33,-28.07"/>
</a>
</g>
</g>
<!-- Node9 -->
<g id="Node000009" class="node">
<title>Node9</title>
<g id="a_Node000009"><a xlink:title=" ">
<polygon fill="#e0e0e0" stroke="#999999" points="369.12,-76 323.88,-76 323.88,-56 369.12,-56 369.12,-76"/>
<text text-anchor="middle" x="346.5" y="-62.5" font-family="Helvetica,sans-Serif" font-size="10.00">variant</text>
</a>
</g>
</g>
<!-- Node6&#45;&gt;Node9 -->
<g id="edge9_Node000006_Node000009" class="edge">
<title>Node6&#45;&gt;Node9</title>
<g id="a_edge9_Node000006_Node000009"><a xlink:title=" ">
<path fill="none" stroke="#63b8ff" d="M304.38,-111.59C311.4,-104.16 321.4,-93.58 329.89,-84.58"/>
<polygon fill="#63b8ff" stroke="#63b8ff" points="332.36,-87.07 336.68,-77.4 327.27,-82.27 332.36,-87.07"/>
</a>
</g>
</g>
<!-- Node10 -->
<g id="Node000010" class="node">
<title>Node10</title>
<g id="a_Node000010"><a xlink:title=" ">
<polygon fill="#e0e0e0" stroke="#999999" points="430,-76 387,-76 387,-56 430,-56 430,-76"/>
<text text-anchor="middle" x="408.5" y="-62.5" font-family="Helvetica,sans-Serif" font-size="10.00">vector</text>
</a>
</g>
</g>
<!-- Node6&#45;&gt;Node10 -->
<g id="edge10_Node000006_Node000010" class="edge">
<title>Node6&#45;&gt;Node10</title>
<g id="a_edge10_Node000006_Node000010"><a xlink:title=" ">
<path fill="none" stroke="#63b8ff" d="M315.18,-111.59C332.66,-103.24 358.45,-90.92 378.5,-81.34"/>
<polygon fill="#63b8ff" stroke="#63b8ff" points="379.78,-84.6 387.3,-77.13 376.77,-78.29 379.78,-84.6"/>
</a>
</g>
</g>
<!-- Node11 -->
<g id="Node000011" class="node">
<title>Node11</title>
<g id="a_Node000011"><a xlink:href="RowDTOAdapter_8hpp.html" target="_top" xlink:title=" ">
<polygon fill="white" stroke="#666666" points="557.38,-76 447.62,-76 447.62,-56 557.38,-56 557.38,-76"/>
<text text-anchor="middle" x="502.5" y="-62.5" font-family="Helvetica,sans-Serif" font-size="10.00">RowDTOAdapter.hpp</text>
</a>
</g>
</g>
<!-- Node6&#45;&gt;Node11 -->
<g id="edge11_Node000006_Node000011" class="edge">
<title>Node6&#45;&gt;Node11</title>
<g id="a_edge11_Node000006_Node000011"><a xlink:title=" ">
<path fill="none" stroke="#63b8ff" d="M331.56,-111.59C365.93,-102.63 417.87,-89.08 455.48,-79.27"/>
<polygon fill="#63b8ff" stroke="#63b8ff" points="455.9,-82.77 464.7,-76.86 454.14,-76 455.9,-82.77"/>
</a>
</g>
</g>
<!-- Node11&#45;&gt;Node8 -->
<g id="edge12_Node000011_Node000008" class="edge">
<title>Node11&#45;&gt;Node8</title>
<g id="a_edge12_Node000011_Node000008"><a xlink:title=" ">
<path fill="none" stroke="#63b8ff" d="M484.38,-55.59C468.53,-47.36 445.22,-35.26 426.88,-25.74"/>
<polygon fill="#63b8ff" stroke="#63b8ff" points="428.59,-22.68 418.1,-21.18 425.36,-28.89 428.59,-22.68"/>
</a>
</g>
</g>
</g>
</svg>
