<?xml version="1.0" encoding="UTF-8" standalone="no"?>
<!DOCTYPE svg PUBLIC "-//W3C//DTD SVG 1.1//EN"
 "http://www.w3.org/Graphics/SVG/1.1/DTD/svg11.dtd">
<!-- Generated by graphviz version 14.1.5 (0)
 -->
<!-- Title: src/bot_library/restapi/include/LeaderboardHandler.hpp Pages: 1 -->
<svg width="326pt" height="108pt"
 viewBox="0.00 0.00 326.00 108.00" xmlns="http://www.w3.org/2000/svg" xmlns:xlink="http://www.w3.org/1999/xlink">
<g id="graph0" class="graph" transform="scale(1 1) rotate(0) translate(4 104)">
<title>src/bot_library/restapi/include/LeaderboardHandler.hpp</title>
<!-- Node1 -->
<g id="Node000001" class="node">
<title>Node1</title>
<g id="a_Node000001"><a xlink:title=" ">
<polygon fill="#999999" stroke="#666666" points="225.62,-100 67.12,-100 67.12,-68 225.62,-68 225.62,-100"/>
<text xml:space="preserve" text-anchor="start" x="75.12" y="-86.5" font-family="Helvetica,sans-Serif" font-size="10.00">src/bot_library/restapi</text>
<text xml:space="preserve" text-anchor="middle" x="146.38" y="-74.5" font-family="Helvetica,sans-Serif" font-size="10.00">/include/LeaderboardHandler.hpp</text>
</a>
</g>
</g>
<!-- Node2 -->
<g id="Node000002" class="node">
<title>Node2</title>
<g id="a_Node000002"><a xlink:href="LeaderboardHandler_8cpp.html" target="_top" xlink:title=" ">
<polygon fill="white" stroke="#666666" points="124.75,-32 0,-32 0,0 124.75,0 124.75,-32"/>
<text xml:space="preserve" text-anchor="start" x="8" y="-18.5" font-family="Helvetica,sans-Serif" font-size="10.00">src/bot_library/restapi</text>
<text xml:space="preserve" text-anchor="middle" x="62.38" y="-6.5" font-family="Helvetica,sans-Serif" font-size="10.00">/LeaderboardHandler.cpp</text>
</a>
</g>
</g>
<!-- Node1&#45;&gt;Node2 -->
<g id="edge1_Node000001_Node000002" class="edge">
<title>Node1&#45;&gt;Node2</title>
<g id="a_edge1_Node000001_Node000002"><a xlink:title=" ">
<path fill="none" stroke="#63b8ff" d="M117.86,-60.6C106.08,-51.34 92.71,-40.83 82.04,-32.45"/>
<polygon fill="#63b8ff" stroke="#63b8ff" points="115.68,-63.33 125.7,-66.76 120,-57.83 115.68,-63.33"/>
</a>
</g>
</g>
<!-- Node3 -->
<g id="Node000003" class="node">
<title>Node3</title>
<g id="a_Node000003"><a xlink:href="RestApiRequestHandlerFactory_8cpp.html" target="_top" xlink:title=" ">
<polygon fill="white" stroke="#666666" points="318.25,-32 142.5,-32 142.5,0 318.25,0 318.25,-32"/>
<text xml:space="preserve" text-anchor="start" x="150.5" y="-18.5" font-family="Helvetica,sans-Serif" font-size="10.00">src/bot_library/restapi</text>
<text xml:space="preserve" text-anchor="middle" x="230.38" y="-6.5" font-family="Helvetica,sans-Serif" font-size="10.00">/RestApiRequestHandlerFactory.cpp</text>
</a>
</g>
</g>
<!-- Node1&#45;&gt;Node3 -->
<g id="edge2_Node000001_Node000003" class="edge">
<title>Node1&#45;&gt;Node3</title>
<g id="a_edge2_Node000001_Node000003"><a xlink:title=" ">
<path fill="none" stroke="#63b8ff" d="M174.89,-60.6C186.67,-51.34 200.04,-40.83 210.71,-32.45"/>
<polygon fill="#63b8ff" stroke="#63b8ff" points="172.75,-57.83 167.05,-66.76 177.07,-63.33 172.75,-57.83"/>
</a>
</g>
</g>
</g>
</svg>
