<?xml version="1.0" encoding="UTF-8" standalone="no"?>
<!DOCTYPE svg PUBLIC "-//W3C//DTD SVG 1.1//EN"
 "http://www.w3.org/Graphics/SVG/1.1/DTD/svg11.dtd">
<!-- Generated by graphviz version 16.1.0 (0)
 -->
<!-- Title: src/bot_library/commands/leaderboard/LeaderboardCommand.cpp Pages: 1 -->
<svg width="1479pt" height="320pt"
 viewBox="0.00 0.00 1479.00 320.00" xmlns="http://www.w3.org/2000/svg" xmlns:xlink="http://www.w3.org/1999/xlink">
<g id="graph0" class="graph" transform="scale(1 1) rotate(0) translate(4 316)">
<title>src/bot_library/commands/leaderboard/LeaderboardCommand.cpp</title>
<!-- Node1 -->
<g id="Node000001" class="node">
<title>Node1</title>
<g id="a_Node000001"><a xlink:title=" ">
<polygon fill="#999999" stroke="#666666" points="1178.02,-312 988.77,-312 988.77,-280 1178.02,-280 1178.02,-312"/>
<text xml:space="preserve" text-anchor="start" x="996.77" y="-298.5" font-family="Helvetica,sans-Serif" font-size="10.00">src/bot_library/commands</text>
<text xml:space="preserve" text-anchor="middle" x="1083.4" y="-286.5" font-family="Helvetica,sans-Serif" font-size="10.00">/leaderboard/LeaderboardCommand.cpp</text>
</a>
</g>
</g>
<!-- Node2 -->
<g id="Node000002" class="node">
<title>Node2</title>
<g id="a_Node000002"><a xlink:href="LeaderboardCommand_8hpp.html" target="_top" xlink:title=" ">
<polygon fill="white" stroke="#666666" points="770.9,-244 637.9,-244 637.9,-224 770.9,-224 770.9,-244"/>
<text xml:space="preserve" text-anchor="middle" x="704.4" y="-230.5" font-family="Helvetica,sans-Serif" font-size="10.00">LeaderboardCommand.hpp</text>
</a>
</g>
</g>
<!-- Node1&#45;&gt;Node2 -->
<g id="edge1_Node000001_Node000002" class="edge">
<title>Node1&#45;&gt;Node2</title>
<g id="a_edge1_Node000001_Node000002"><a xlink:title=" ">
<path fill="none" stroke="#63b8ff" d="M988.74,-280.01C922.62,-269.55 835.75,-255.79 775.5,-246.26"/>
<polygon fill="#63b8ff" stroke="#63b8ff" points="776.12,-242.81 765.7,-244.7 775.03,-249.72 776.12,-242.81"/>
</a>
</g>
</g>
<!-- Node7 -->
<g id="Node000007" class="node">
<title>Node7</title>
<g id="a_Node000007"><a xlink:title=" ">
<polygon fill="#e0e0e0" stroke="#999999" points="1314.77,-244 1232.02,-244 1232.02,-224 1314.77,-224 1314.77,-244"/>
<text xml:space="preserve" text-anchor="middle" x="1273.4" y="-230.5" font-family="Helvetica,sans-Serif" font-size="10.00">appcommand.h</text>
</a>
</g>
</g>
<!-- Node1&#45;&gt;Node7 -->
<g id="edge6_Node000001_Node000007" class="edge">
<title>Node1&#45;&gt;Node7</title>
<g id="a_edge6_Node000001_Node000007"><a xlink:title=" ">
<path fill="none" stroke="#63b8ff" d="M1132.33,-279.55C1163.43,-269.73 1203.22,-257.16 1232.61,-247.88"/>
<polygon fill="#63b8ff" stroke="#63b8ff" points="1233.4,-251.3 1241.88,-244.95 1231.29,-244.63 1233.4,-251.3"/>
</a>
</g>
</g>
<!-- Node8 -->
<g id="Node000008" class="node">
<title>Node8</title>
<g id="a_Node000008"><a xlink:title=" ">
<polygon fill="#e0e0e0" stroke="#999999" points="1383.65,-244 1333.15,-244 1333.15,-224 1383.65,-224 1383.65,-244"/>
<text xml:space="preserve" text-anchor="middle" x="1358.4" y="-230.5" font-family="Helvetica,sans-Serif" font-size="10.00">colors.h</text>
</a>
</g>
</g>
<!-- Node1&#45;&gt;Node8 -->
<g id="edge7_Node000001_Node000008" class="edge">
<title>Node1&#45;&gt;Node8</title>
<g id="a_edge7_Node000001_Node000008"><a xlink:title=" ">
<path fill="none" stroke="#63b8ff" d="M1160.32,-279.52C1204.74,-270.38 1261.91,-258.27 1321.63,-244.33"/>
<polygon fill="#63b8ff" stroke="#63b8ff" points="1322.4,-247.75 1331.34,-242.06 1320.81,-240.93 1322.4,-247.75"/>
</a>
</g>
</g>
<!-- Node9 -->
<g id="Node000009" class="node">
<title>Node9</title>
<g id="a_Node000009"><a xlink:title=" ">
<polygon fill="#e0e0e0" stroke="#999999" points="1471.02,-244 1401.77,-244 1401.77,-224 1471.02,-224 1471.02,-244"/>
<text xml:space="preserve" text-anchor="middle" x="1436.4" y="-230.5" font-family="Helvetica,sans-Serif" font-size="10.00">dispatcher.h</text>
</a>
</g>
</g>
<!-- Node1&#45;&gt;Node9 -->
<g id="edge8_Node000001_Node000009" class="edge">
<title>Node1&#45;&gt;Node9</title>
<g id="a_edge8_Node000001_Node000009"><a xlink:title=" ">
<path fill="none" stroke="#63b8ff" d="M1178.23,-280.31C1236.7,-271.02 1313.49,-258.43 1390.49,-244.3"/>
<polygon fill="#63b8ff" stroke="#63b8ff" points="1390.67,-247.82 1399.87,-242.57 1389.4,-240.94 1390.67,-247.82"/>
</a>
</g>
</g>
<!-- Node10 -->
<g id="Node000010" class="node">
<title>Node10</title>
<g id="a_Node000010"><a xlink:href="AppContext_8hpp.html" target="_top" xlink:title=" ">
<polygon fill="white" stroke="#666666" points="558.65,-244 472.15,-244 472.15,-224 558.65,-224 558.65,-244"/>
<text xml:space="preserve" text-anchor="middle" x="515.4" y="-230.5" font-family="Helvetica,sans-Serif" font-size="10.00">AppContext.hpp</text>
</a>
</g>
</g>
<!-- Node1&#45;&gt;Node10 -->
<g id="edge9_Node000001_Node000010" class="edge">
<title>Node1&#45;&gt;Node10</title>
<g id="a_edge9_Node000001_Node000010"><a xlink:title=" ">
<path fill="none" stroke="#63b8ff" d="M988.33,-284.96C868.61,-272.31 666.91,-251 570.26,-240.79"/>
<polygon fill="#63b8ff" stroke="#63b8ff" points="570.82,-237.34 560.51,-239.77 570.09,-244.3 570.82,-237.34"/>
</a>
</g>
</g>
<!-- Node20 -->
<g id="Node000020" class="node">
<title>Node20</title>
<g id="a_Node000020"><a xlink:title=" ">
<polygon fill="#e0e0e0" stroke="#999999" points="1132.9,-132 1089.9,-132 1089.9,-112 1132.9,-112 1132.9,-132"/>
<text xml:space="preserve" text-anchor="middle" x="1111.4" y="-118.5" font-family="Helvetica,sans-Serif" font-size="10.00">vector</text>
</a>
</g>
</g>
<!-- Node1&#45;&gt;Node20 -->
<g id="edge50_Node000001_Node000020" class="edge">
<title>Node1&#45;&gt;Node20</title>
<g id="a_edge50_Node000001_Node000020"><a xlink:title=" ">
<path fill="none" stroke="#63b8ff" d="M1085.88,-279.74C1090.94,-248.69 1102.42,-178.18 1108.09,-143.31"/>
<polygon fill="#63b8ff" stroke="#63b8ff" points="1111.5,-144.14 1109.66,-133.7 1104.59,-143.01 1111.5,-144.14"/>
</a>
</g>
</g>
<!-- Node21 -->
<g id="Node000021" class="node">
<title>Node21</title>
<g id="a_Node000021"><a xlink:href="Core_8hpp.html" target="_top" xlink:title=" ">
<polygon fill="white" stroke="#666666" points="902.27,-244 846.52,-244 846.52,-224 902.27,-224 902.27,-244"/>
<text xml:space="preserve" text-anchor="middle" x="874.4" y="-230.5" font-family="Helvetica,sans-Serif" font-size="10.00">Core.hpp</text>
</a>
</g>
</g>
<!-- Node1&#45;&gt;Node21 -->
<g id="edge32_Node000001_Node000021" class="edge">
<title>Node1&#45;&gt;Node21</title>
<g id="a_edge32_Node000001_Node000021"><a xlink:title=" ">
<path fill="none" stroke="#63b8ff" d="M1029.58,-279.55C993.33,-269.14 946.36,-255.66 913.63,-246.26"/>
<polygon fill="#63b8ff" stroke="#63b8ff" points="914.72,-242.93 904.14,-243.54 912.79,-249.66 914.72,-242.93"/>
</a>
</g>
</g>
<!-- Node24 -->
<g id="Node000024" class="node">
<title>Node24</title>
<g id="a_Node000024"><a xlink:href="UserDTO_8hpp.html" target="_top" xlink:title=" ">
<polygon fill="white" stroke="#666666" points="1055.77,-188 979.02,-188 979.02,-168 1055.77,-168 1055.77,-188"/>
<text xml:space="preserve" text-anchor="middle" x="1017.4" y="-174.5" font-family="Helvetica,sans-Serif" font-size="10.00">UserDTO.hpp</text>
</a>
</g>
</g>
<!-- Node1&#45;&gt;Node24 -->
<g id="edge37_Node000001_Node000024" class="edge">
<title>Node1&#45;&gt;Node24</title>
<g id="a_edge37_Node000001_Node000024"><a xlink:title=" ">
<path fill="none" stroke="#63b8ff" d="M1074.77,-279.84C1062.88,-258.94 1041.45,-221.27 1028.41,-198.36"/>
<polygon fill="#63b8ff" stroke="#63b8ff" points="1031.5,-196.71 1023.52,-189.75 1025.42,-200.18 1031.5,-196.71"/>
</a>
</g>
</g>
<!-- Node28 -->
<g id="Node000028" class="node">
<title>Node28</title>
<g id="a_Node000028"><a xlink:href="UserRepository_8hpp.html" target="_top" xlink:title=" ">
<polygon fill="white" stroke="#666666" points="1213.52,-244 1111.27,-244 1111.27,-224 1213.52,-224 1213.52,-244"/>
<text xml:space="preserve" text-anchor="middle" x="1162.4" y="-230.5" font-family="Helvetica,sans-Serif" font-size="10.00">UserRepository.hpp</text>
</a>
</g>
</g>
<!-- Node1&#45;&gt;Node28 -->
<g id="edge42_Node000001_Node000028" class="edge">
<title>Node1&#45;&gt;Node28</title>
<g id="a_edge42_Node000001_Node000028"><a xlink:title=" ">
<path fill="none" stroke="#63b8ff" d="M1103.74,-279.55C1115.17,-270.87 1129.42,-260.04 1141.02,-251.24"/>
<polygon fill="#63b8ff" stroke="#63b8ff" points="1142.96,-254.16 1148.81,-245.32 1138.72,-248.58 1142.96,-254.16"/>
</a>
</g>
</g>
<!-- Node3 -->
<g id="Node000003" class="node">
<title>Node3</title>
<g id="a_Node000003"><a xlink:href="IGlobalSlashCommand_8hpp.html" target="_top" xlink:title=" ">
<polygon fill="white" stroke="#666666" points="886.02,-132 750.77,-132 750.77,-112 886.02,-112 886.02,-132"/>
<text xml:space="preserve" text-anchor="middle" x="818.4" y="-118.5" font-family="Helvetica,sans-Serif" font-size="10.00">IGlobalSlashCommand.hpp</text>
</a>
</g>
</g>
<!-- Node2&#45;&gt;Node3 -->
<g id="edge2_Node000002_Node000003" class="edge">
<title>Node2&#45;&gt;Node3</title>
<g id="a_edge2_Node000002_Node000003"><a xlink:title=" ">
<path fill="none" stroke="#63b8ff" d="M690.78,-223.68C673.65,-210.8 648.1,-187 662.4,-168 673.22,-153.61 712.11,-142.37 748.35,-134.73"/>
<polygon fill="#63b8ff" stroke="#63b8ff" points="748.88,-138.19 757.99,-132.77 747.49,-131.33 748.88,-138.19"/>
</a>
</g>
</g>
<!-- Node6 -->
<g id="Node000006" class="node">
<title>Node6</title>
<g id="a_Node000006"><a xlink:title=" ">
<polygon fill="#e0e0e0" stroke="#999999" points="737.15,-188 671.65,-188 671.65,-168 737.15,-168 737.15,-188"/>
<text xml:space="preserve" text-anchor="middle" x="704.4" y="-174.5" font-family="Helvetica,sans-Serif" font-size="10.00">string_view</text>
</a>
</g>
</g>
<!-- Node2&#45;&gt;Node6 -->
<g id="edge5_Node000002_Node000006" class="edge">
<title>Node2&#45;&gt;Node6</title>
<g id="a_edge5_Node000002_Node000006"><a xlink:title=" ">
<path fill="none" stroke="#63b8ff" d="M704.4,-223.59C704.4,-217.01 704.4,-207.96 704.4,-199.73"/>
<polygon fill="#63b8ff" stroke="#63b8ff" points="707.9,-199.81 704.4,-189.81 700.9,-199.81 707.9,-199.81"/>
</a>
</g>
</g>
<!-- Node4 -->
<g id="Node000004" class="node">
<title>Node4</title>
<g id="a_Node000004"><a xlink:title=" ">
<polygon fill="#e0e0e0" stroke="#999999" points="504.52,-76 432.27,-76 432.27,-56 504.52,-56 504.52,-76"/>
<text xml:space="preserve" text-anchor="middle" x="468.4" y="-62.5" font-family="Helvetica,sans-Serif" font-size="10.00">dpp/cluster.h</text>
</a>
</g>
</g>
<!-- Node3&#45;&gt;Node4 -->
<g id="edge3_Node000003_Node000004" class="edge">
<title>Node3&#45;&gt;Node4</title>
<g id="a_edge3_Node000003_Node000004"><a xlink:title=" ">
<path fill="none" stroke="#63b8ff" d="M757.03,-111.53C688.37,-100.94 578.6,-84 516.08,-74.36"/>
<polygon fill="#63b8ff" stroke="#63b8ff" points="516.89,-70.94 506.47,-72.87 515.82,-77.86 516.89,-70.94"/>
</a>
</g>
</g>
<!-- Node5 -->
<g id="Node000005" class="node">
<title>Node5</title>
<g id="a_Node000005"><a xlink:title=" ">
<polygon fill="#e0e0e0" stroke="#999999" points="624.4,-76 536.4,-76 536.4,-56 624.4,-56 624.4,-76"/>
<text xml:space="preserve" text-anchor="middle" x="580.4" y="-62.5" font-family="Helvetica,sans-Serif" font-size="10.00">dpp/dispatcher.h</text>
</a>
</g>
</g>
<!-- Node3&#45;&gt;Node5 -->
<g id="edge4_Node000003_Node000005" class="edge">
<title>Node3&#45;&gt;Node5</title>
<g id="a_edge4_Node000003_Node000005"><a xlink:title=" ">
<path fill="none" stroke="#63b8ff" d="M776.67,-111.53C736.77,-102.48 676.46,-88.8 633.23,-78.99"/>
<polygon fill="#63b8ff" stroke="#63b8ff" points="634.08,-75.59 623.55,-76.79 632.53,-82.42 634.08,-75.59"/>
</a>
</g>
</g>
<!-- Node10&#45;&gt;Node4 -->
<g id="edge10_Node000010_Node000004" class="edge">
<title>Node10&#45;&gt;Node4</title>
<g id="a_edge10_Node000010_Node000004"><a xlink:title=" ">
<path fill="none" stroke="#63b8ff" d="M471.71,-231.2C359.1,-225.56 63.6,-204.05 4.4,-132 -1.25,-125.13 -1.58,-118.58 4.4,-112 32.01,-81.58 307.76,-71.1 420.63,-68.07"/>
<polygon fill="#63b8ff" stroke="#63b8ff" points="420.56,-71.58 430.46,-67.82 420.38,-64.58 420.56,-71.58"/>
</a>
</g>
</g>
<!-- Node11 -->
<g id="Node000011" class="node">
<title>Node11</title>
<g id="a_Node000011"><a xlink:href="CommandTypes_8hpp.html" target="_top" xlink:title=" ">
<polygon fill="white" stroke="#666666" points="568.4,-188 462.4,-188 462.4,-168 568.4,-168 568.4,-188"/>
<text xml:space="preserve" text-anchor="middle" x="515.4" y="-174.5" font-family="Helvetica,sans-Serif" font-size="10.00">CommandTypes.hpp</text>
</a>
</g>
</g>
<!-- Node10&#45;&gt;Node11 -->
<g id="edge11_Node000010_Node000011" class="edge">
<title>Node10&#45;&gt;Node11</title>
<g id="a_edge11_Node000010_Node000011"><a xlink:title=" ">
<path fill="none" stroke="#63b8ff" d="M515.4,-223.59C515.4,-217.01 515.4,-207.96 515.4,-199.73"/>
<polygon fill="#63b8ff" stroke="#63b8ff" points="518.9,-199.81 515.4,-189.81 511.9,-199.81 518.9,-199.81"/>
</a>
</g>
</g>
<!-- Node11&#45;&gt;Node3 -->
<g id="edge18_Node000011_Node000003" class="edge">
<title>Node11&#45;&gt;Node3</title>
<g id="a_edge18_Node000011_Node000003"><a xlink:title=" ">
<path fill="none" stroke="#63b8ff" d="M568.52,-167.53C620.29,-158.31 699.05,-144.27 754.27,-134.43"/>
<polygon fill="#63b8ff" stroke="#63b8ff" points="754.61,-137.92 763.84,-132.72 753.38,-131.03 754.61,-137.92"/>
</a>
</g>
</g>
<!-- Node12 -->
<g id="Node000012" class="node">
<title>Node12</title>
<g id="a_Node000012"><a xlink:href="IButtonCommand_8hpp.html" target="_top" xlink:title=" ">
<polygon fill="white" stroke="#666666" points="650.02,-132 538.77,-132 538.77,-112 650.02,-112 650.02,-132"/>
<text xml:space="preserve" text-anchor="middle" x="594.4" y="-118.5" font-family="Helvetica,sans-Serif" font-size="10.00">IButtonCommand.hpp</text>
</a>
</g>
</g>
<!-- Node11&#45;&gt;Node12 -->
<g id="edge12_Node000011_Node000012" class="edge">
<title>Node11&#45;&gt;Node12</title>
<g id="a_edge12_Node000011_Node000012"><a xlink:title=" ">
<path fill="none" stroke="#63b8ff" d="M529.16,-167.59C540.76,-159.67 557.59,-148.16 571.26,-138.82"/>
<polygon fill="#63b8ff" stroke="#63b8ff" points="573,-141.87 579.28,-133.33 569.05,-136.09 573,-141.87"/>
</a>
</g>
</g>
<!-- Node13 -->
<g id="Node000013" class="node">
<title>Node13</title>
<g id="a_Node000013"><a xlink:href="IFormCommand_8hpp.html" target="_top" xlink:title=" ">
<polygon fill="white" stroke="#666666" points="521.02,-132 415.77,-132 415.77,-112 521.02,-112 521.02,-132"/>
<text xml:space="preserve" text-anchor="middle" x="468.4" y="-118.5" font-family="Helvetica,sans-Serif" font-size="10.00">IFormCommand.hpp</text>
</a>
</g>
</g>
<!-- Node11&#45;&gt;Node13 -->
<g id="edge15_Node000011_Node000013" class="edge">
<title>Node11&#45;&gt;Node13</title>
<g id="a_edge15_Node000011_Node000013"><a xlink:title=" ">
<path fill="none" stroke="#63b8ff" d="M507.21,-167.59C500.81,-160.24 491.72,-149.8 483.95,-140.87"/>
<polygon fill="#63b8ff" stroke="#63b8ff" points="486.69,-138.69 477.48,-133.44 481.41,-143.28 486.69,-138.69"/>
</a>
</g>
</g>
<!-- Node14 -->
<g id="Node000014" class="node">
<title>Node14</title>
<g id="a_Node000014"><a xlink:href="IMessageCommand_8hpp.html" target="_top" xlink:title=" ">
<polygon fill="white" stroke="#666666" points="328.65,-132 206.15,-132 206.15,-112 328.65,-112 328.65,-132"/>
<text xml:space="preserve" text-anchor="middle" x="267.4" y="-118.5" font-family="Helvetica,sans-Serif" font-size="10.00">IMessageCommand.hpp</text>
</a>
</g>
</g>
<!-- Node11&#45;&gt;Node14 -->
<g id="edge19_Node000011_Node000014" class="edge">
<title>Node11&#45;&gt;Node14</title>
<g id="a_edge19_Node000011_Node000014"><a xlink:title=" ">
<path fill="none" stroke="#63b8ff" d="M471.92,-167.53C430.17,-158.44 366.96,-144.68 321.88,-134.86"/>
<polygon fill="#63b8ff" stroke="#63b8ff" points="322.82,-131.49 312.31,-132.78 321.34,-138.33 322.82,-131.49"/>
</a>
</g>
</g>
<!-- Node15 -->
<g id="Node000015" class="node">
<title>Node15</title>
<g id="a_Node000015"><a xlink:href="IReactionCommand_8hpp.html" target="_top" xlink:title=" ">
<polygon fill="white" stroke="#666666" points="135.27,-132 13.52,-132 13.52,-112 135.27,-112 135.27,-132"/>
<text xml:space="preserve" text-anchor="middle" x="74.4" y="-118.5" font-family="Helvetica,sans-Serif" font-size="10.00">IReactionCommand.hpp</text>
</a>
</g>
</g>
<!-- Node11&#45;&gt;Node15 -->
<g id="edge22_Node000011_Node000015" class="edge">
<title>Node11&#45;&gt;Node15</title>
<g id="a_edge22_Node000011_Node000015"><a xlink:title=" ">
<path fill="none" stroke="#63b8ff" d="M461.93,-170.64C392,-162.29 265.35,-147.07 146.58,-132.26"/>
<polygon fill="#63b8ff" stroke="#63b8ff" points="147.34,-128.83 136.98,-131.07 146.47,-135.78 147.34,-128.83"/>
</a>
</g>
</g>
<!-- Node16 -->
<g id="Node000016" class="node">
<title>Node16</title>
<g id="a_Node000016"><a xlink:href="IReady_8hpp.html" target="_top" xlink:title=" ">
<polygon fill="white" stroke="#666666" points="733.15,-132 667.65,-132 667.65,-112 733.15,-112 733.15,-132"/>
<text xml:space="preserve" text-anchor="middle" x="700.4" y="-118.5" font-family="Helvetica,sans-Serif" font-size="10.00">IReady.hpp</text>
</a>
</g>
</g>
<!-- Node11&#45;&gt;Node16 -->
<g id="edge25_Node000011_Node000016" class="edge">
<title>Node11&#45;&gt;Node16</title>
<g id="a_edge25_Node000011_Node000016"><a xlink:title=" ">
<path fill="none" stroke="#63b8ff" d="M547.62,-167.59C577.94,-158.74 623.57,-145.43 657.07,-135.65"/>
<polygon fill="#63b8ff" stroke="#63b8ff" points="657.85,-139.07 666.47,-132.9 655.89,-132.35 657.85,-139.07"/>
</a>
</g>
</g>
<!-- Node17 -->
<g id="Node000017" class="node">
<title>Node17</title>
<g id="a_Node000017"><a xlink:title=" ">
<polygon fill="#e0e0e0" stroke="#999999" points="187.77,-132 153.02,-132 153.02,-112 187.77,-112 187.77,-132"/>
<text xml:space="preserve" text-anchor="middle" x="170.4" y="-118.5" font-family="Helvetica,sans-Serif" font-size="10.00">map</text>
</a>
</g>
</g>
<!-- Node11&#45;&gt;Node17 -->
<g id="edge28_Node000011_Node000017" class="edge">
<title>Node11&#45;&gt;Node17</title>
<g id="a_edge28_Node000011_Node000017"><a xlink:title=" ">
<path fill="none" stroke="#63b8ff" d="M461.96,-172.42C400.63,-166.51 296.96,-154.5 198.98,-131.95"/>
<polygon fill="#63b8ff" stroke="#63b8ff" points="199.99,-128.6 189.46,-129.72 198.39,-135.41 199.99,-128.6"/>
</a>
</g>
</g>
<!-- Node18 -->
<g id="Node000018" class="node">
<title>Node18</title>
<g id="a_Node000018"><a xlink:title=" ">
<polygon fill="#e0e0e0" stroke="#999999" points="398.02,-132 346.77,-132 346.77,-112 398.02,-112 398.02,-132"/>
<text xml:space="preserve" text-anchor="middle" x="372.4" y="-118.5" font-family="Helvetica,sans-Serif" font-size="10.00">memory</text>
</a>
</g>
</g>
<!-- Node11&#45;&gt;Node18 -->
<g id="edge29_Node000011_Node000018" class="edge">
<title>Node11&#45;&gt;Node18</title>
<g id="a_edge29_Node000011_Node000018"><a xlink:title=" ">
<path fill="none" stroke="#63b8ff" d="M490.49,-167.59C467.66,-158.97 433.62,-146.12 407.94,-136.42"/>
<polygon fill="#63b8ff" stroke="#63b8ff" points="409.51,-133.27 398.92,-133.01 407.04,-139.82 409.51,-133.27"/>
</a>
</g>
</g>
<!-- Node19 -->
<g id="Node000019" class="node">
<title>Node19</title>
<g id="a_Node000019"><a xlink:title=" ">
<polygon fill="#e0e0e0" stroke="#999999" points="944.4,-132 904.4,-132 904.4,-112 944.4,-112 944.4,-132"/>
<text xml:space="preserve" text-anchor="middle" x="924.4" y="-118.5" font-family="Helvetica,sans-Serif" font-size="10.00">string</text>
</a>
</g>
</g>
<!-- Node11&#45;&gt;Node19 -->
<g id="edge30_Node000011_Node000019" class="edge">
<title>Node11&#45;&gt;Node19</title>
<g id="a_edge30_Node000011_Node000019"><a xlink:title=" ">
<path fill="none" stroke="#63b8ff" d="M568.77,-173.77C640.51,-168.75 772.11,-157.17 892.67,-132.24"/>
<polygon fill="#63b8ff" stroke="#63b8ff" points="893.38,-135.66 902.44,-130.17 891.94,-128.81 893.38,-135.66"/>
</a>
</g>
</g>
<!-- Node11&#45;&gt;Node20 -->
<g id="edge31_Node000011_Node000020" class="edge">
<title>Node11&#45;&gt;Node20</title>
<g id="a_edge31_Node000011_Node000020"><a xlink:title=" ">
<path fill="none" stroke="#63b8ff" d="M568.89,-173.4C693.36,-164.93 997.45,-143.69 1078.23,-131.99"/>
<polygon fill="#63b8ff" stroke="#63b8ff" points="1078.78,-135.45 1088.08,-130.38 1077.65,-128.54 1078.78,-135.45"/>
</a>
</g>
</g>
<!-- Node12&#45;&gt;Node4 -->
<g id="edge13_Node000012_Node000004" class="edge">
<title>Node12&#45;&gt;Node4</title>
<g id="a_edge13_Node000012_Node000004"><a xlink:title=" ">
<path fill="none" stroke="#63b8ff" d="M572.45,-111.59C552.7,-103.13 523.41,-90.58 500.93,-80.94"/>
<polygon fill="#63b8ff" stroke="#63b8ff" points="502.48,-77.8 491.91,-77.08 499.72,-84.23 502.48,-77.8"/>
</a>
</g>
</g>
<!-- Node12&#45;&gt;Node5 -->
<g id="edge14_Node000012_Node000005" class="edge">
<title>Node12&#45;&gt;Node5</title>
<g id="a_edge14_Node000012_Node000005"><a xlink:title=" ">
<path fill="none" stroke="#63b8ff" d="M591.96,-111.59C590.23,-104.93 587.85,-95.75 585.7,-87.44"/>
<polygon fill="#63b8ff" stroke="#63b8ff" points="589.09,-86.56 583.19,-77.76 582.31,-88.32 589.09,-86.56"/>
</a>
</g>
</g>
<!-- Node13&#45;&gt;Node4 -->
<g id="edge16_Node000013_Node000004" class="edge">
<title>Node13&#45;&gt;Node4</title>
<g id="a_edge16_Node000013_Node000004"><a xlink:title=" ">
<path fill="none" stroke="#63b8ff" d="M468.4,-111.59C468.4,-105.01 468.4,-95.96 468.4,-87.73"/>
<polygon fill="#63b8ff" stroke="#63b8ff" points="471.9,-87.81 468.4,-77.81 464.9,-87.81 471.9,-87.81"/>
</a>
</g>
</g>
<!-- Node13&#45;&gt;Node5 -->
<g id="edge17_Node000013_Node000005" class="edge">
<title>Node13&#45;&gt;Node5</title>
<g id="a_edge17_Node000013_Node000005"><a xlink:title=" ">
<path fill="none" stroke="#63b8ff" d="M487.91,-111.59C505.15,-103.28 530.56,-91.03 550.38,-81.47"/>
<polygon fill="#63b8ff" stroke="#63b8ff" points="551.89,-84.63 559.37,-77.14 548.85,-78.33 551.89,-84.63"/>
</a>
</g>
</g>
<!-- Node14&#45;&gt;Node4 -->
<g id="edge20_Node000014_Node000004" class="edge">
<title>Node14&#45;&gt;Node4</title>
<g id="a_edge20_Node000014_Node000004"><a xlink:title=" ">
<path fill="none" stroke="#63b8ff" d="M302.41,-111.59C335.64,-102.67 385.79,-89.19 422.27,-79.39"/>
<polygon fill="#63b8ff" stroke="#63b8ff" points="422.9,-82.85 431.65,-76.87 421.09,-76.09 422.9,-82.85"/>
</a>
</g>
</g>
<!-- Node14&#45;&gt;Node5 -->
<g id="edge21_Node000014_Node000005" class="edge">
<title>Node14&#45;&gt;Node5</title>
<g id="a_edge21_Node000014_Node000005"><a xlink:title=" ">
<path fill="none" stroke="#63b8ff" d="M322.28,-111.53C379.31,-101.69 468.07,-86.38 525.22,-76.52"/>
<polygon fill="#63b8ff" stroke="#63b8ff" points="525.46,-80.03 534.72,-74.88 524.27,-73.13 525.46,-80.03"/>
</a>
</g>
</g>
<!-- Node15&#45;&gt;Node4 -->
<g id="edge23_Node000015_Node000004" class="edge">
<title>Node15&#45;&gt;Node4</title>
<g id="a_edge23_Node000015_Node000004"><a xlink:title=" ">
<path fill="none" stroke="#63b8ff" d="M135.53,-112.62C214.15,-101.85 349.07,-83.35 420.61,-73.55"/>
<polygon fill="#63b8ff" stroke="#63b8ff" points="421.02,-77.03 430.45,-72.2 420.07,-70.09 421.02,-77.03"/>
</a>
</g>
</g>
<!-- Node15&#45;&gt;Node5 -->
<g id="edge24_Node000015_Node000005" class="edge">
<title>Node15&#45;&gt;Node5</title>
<g id="a_edge24_Node000015_Node000005"><a xlink:title=" ">
<path fill="none" stroke="#63b8ff" d="M135.47,-113.04C138.49,-112.68 141.48,-112.33 144.4,-112 308.13,-93.49 349.72,-94.97 513.4,-76 517.19,-75.56 521.09,-75.09 525.02,-74.6"/>
<polygon fill="#63b8ff" stroke="#63b8ff" points="525.12,-78.11 534.6,-73.37 524.23,-71.17 525.12,-78.11"/>
</a>
</g>
</g>
<!-- Node16&#45;&gt;Node4 -->
<g id="edge26_Node000016_Node000004" class="edge">
<title>Node16&#45;&gt;Node4</title>
<g id="a_edge26_Node000016_Node000004"><a xlink:title=" ">
<path fill="none" stroke="#63b8ff" d="M667.16,-113.26C627.54,-104.04 561.05,-88.57 515.99,-78.08"/>
<polygon fill="#63b8ff" stroke="#63b8ff" points="517.03,-74.73 506.5,-75.87 515.44,-81.54 517.03,-74.73"/>
</a>
</g>
</g>
<!-- Node16&#45;&gt;Node5 -->
<g id="edge27_Node000016_Node000005" class="edge">
<title>Node16&#45;&gt;Node5</title>
<g id="a_edge27_Node000016_Node000005"><a xlink:title=" ">
<path fill="none" stroke="#63b8ff" d="M679.5,-111.59C660.77,-103.17 633.04,-90.69 611.67,-81.07"/>
<polygon fill="#63b8ff" stroke="#63b8ff" points="613.4,-78.01 602.84,-77.1 610.53,-84.4 613.4,-78.01"/>
</a>
</g>
</g>
<!-- Node21&#45;&gt;Node6 -->
<g id="edge36_Node000021_Node000006" class="edge">
<title>Node21&#45;&gt;Node6</title>
<g id="a_edge36_Node000021_Node000006"><a xlink:title=" ">
<path fill="none" stroke="#63b8ff" d="M846.33,-224.08C818.78,-215.33 776.46,-201.89 745.2,-191.96"/>
<polygon fill="#63b8ff" stroke="#63b8ff" points="746.26,-188.63 735.67,-188.93 744.14,-195.3 746.26,-188.63"/>
</a>
</g>
</g>
<!-- Node21&#45;&gt;Node19 -->
<g id="edge35_Node000021_Node000019" class="edge">
<title>Node21&#45;&gt;Node19</title>
<g id="a_edge35_Node000021_Node000019"><a xlink:title=" ">
<path fill="none" stroke="#63b8ff" d="M876.11,-223.84C878.74,-210.94 884.41,-186.9 893.4,-168 897.81,-158.72 904.03,-149.24 909.75,-141.39"/>
<polygon fill="#63b8ff" stroke="#63b8ff" points="912.36,-143.74 915.63,-133.66 906.79,-139.5 912.36,-143.74"/>
</a>
</g>
</g>
<!-- Node22 -->
<g id="Node000022" class="node">
<title>Node22</title>
<g id="a_Node000022"><a xlink:title=" ">
<polygon fill="#e0e0e0" stroke="#999999" points="960.77,-188 902.02,-188 902.02,-168 960.77,-168 960.77,-188"/>
<text xml:space="preserve" text-anchor="middle" x="931.4" y="-174.5" font-family="Helvetica,sans-Serif" font-size="10.00">dpp/dpp.h</text>
</a>
</g>
</g>
<!-- Node21&#45;&gt;Node22 -->
<g id="edge33_Node000021_Node000022" class="edge">
<title>Node21&#45;&gt;Node22</title>
<g id="a_edge33_Node000021_Node000022"><a xlink:title=" ">
<path fill="none" stroke="#63b8ff" d="M884.33,-223.59C892.34,-216.01 903.81,-205.13 913.43,-196.02"/>
<polygon fill="#63b8ff" stroke="#63b8ff" points="915.63,-198.76 920.48,-189.34 910.82,-193.68 915.63,-198.76"/>
</a>
</g>
</g>
<!-- Node23 -->
<g id="Node000023" class="node">
<title>Node23</title>
<g id="a_Node000023"><a xlink:title=" ">
<polygon fill="#e0e0e0" stroke="#999999" points="845.9,-188 754.9,-188 754.9,-168 845.9,-168 845.9,-188"/>
<text xml:space="preserve" text-anchor="middle" x="800.4" y="-174.5" font-family="Helvetica,sans-Serif" font-size="10.00">dpp/misc&#45;enum.h</text>
</a>
</g>
</g>
<!-- Node21&#45;&gt;Node23 -->
<g id="edge34_Node000021_Node000023" class="edge">
<title>Node21&#45;&gt;Node23</title>
<g id="a_edge34_Node000021_Node000023"><a xlink:title=" ">
<path fill="none" stroke="#63b8ff" d="M861.51,-223.59C850.68,-215.7 834.99,-204.24 822.21,-194.92"/>
<polygon fill="#63b8ff" stroke="#63b8ff" points="824.5,-192.26 814.36,-189.19 820.38,-197.91 824.5,-192.26"/>
</a>
</g>
</g>
<!-- Node24&#45;&gt;Node19 -->
<g id="edge41_Node000024_Node000019" class="edge">
<title>Node24&#45;&gt;Node19</title>
<g id="a_edge41_Node000024_Node000019"><a xlink:title=" ">
<path fill="none" stroke="#63b8ff" d="M1001.2,-167.59C987.15,-159.44 966.56,-147.48 950.24,-138"/>
<polygon fill="#63b8ff" stroke="#63b8ff" points="952.44,-135.23 942.03,-133.24 948.92,-141.29 952.44,-135.23"/>
</a>
</g>
</g>
<!-- Node25 -->
<g id="Node000025" class="node">
<title>Node25</title>
<g id="a_Node000025"><a xlink:href="RowDTOAdapter_8hpp.html" target="_top" xlink:title=" ">
<polygon fill="white" stroke="#666666" points="1072.27,-132 962.52,-132 962.52,-112 1072.27,-112 1072.27,-132"/>
<text xml:space="preserve" text-anchor="middle" x="1017.4" y="-118.5" font-family="Helvetica,sans-Serif" font-size="10.00">RowDTOAdapter.hpp</text>
</a>
</g>
</g>
<!-- Node24&#45;&gt;Node25 -->
<g id="edge38_Node000024_Node000025" class="edge">
<title>Node24&#45;&gt;Node25</title>
<g id="a_edge38_Node000024_Node000025"><a xlink:title=" ">
<path fill="none" stroke="#63b8ff" d="M1017.4,-167.59C1017.4,-161.01 1017.4,-151.96 1017.4,-143.73"/>
<polygon fill="#63b8ff" stroke="#63b8ff" points="1020.9,-143.81 1017.4,-133.81 1013.9,-143.81 1020.9,-143.81"/>
</a>
</g>
</g>
<!-- Node26 -->
<g id="Node000026" class="node">
<title>Node26</title>
<g id="a_Node000026"><a xlink:href="DatabaseBackend_8hpp.html" target="_top" xlink:title=" ">
<polygon fill="white" stroke="#666666" points="1074.9,-76 959.9,-76 959.9,-56 1074.9,-56 1074.9,-76"/>
<text xml:space="preserve" text-anchor="middle" x="1017.4" y="-62.5" font-family="Helvetica,sans-Serif" font-size="10.00">DatabaseBackend.hpp</text>
</a>
</g>
</g>
<!-- Node25&#45;&gt;Node26 -->
<g id="edge39_Node000025_Node000026" class="edge">
<title>Node25&#45;&gt;Node26</title>
<g id="a_edge39_Node000025_Node000026"><a xlink:title=" ">
<path fill="none" stroke="#63b8ff" d="M1017.4,-111.59C1017.4,-105.01 1017.4,-95.96 1017.4,-87.73"/>
<polygon fill="#63b8ff" stroke="#63b8ff" points="1020.9,-87.81 1017.4,-77.81 1013.9,-87.81 1020.9,-87.81"/>
</a>
</g>
</g>
<!-- Node27 -->
<g id="Node000027" class="node">
<title>Node27</title>
<g id="a_Node000027"><a xlink:title=" ">
<polygon fill="#e0e0e0" stroke="#999999" points="1047.9,-20 986.9,-20 986.9,0 1047.9,0 1047.9,-20"/>
<text xml:space="preserve" text-anchor="middle" x="1017.4" y="-6.5" font-family="Helvetica,sans-Serif" font-size="10.00">pqxx/pqxx</text>
</a>
</g>
</g>
<!-- Node26&#45;&gt;Node27 -->
<g id="edge40_Node000026_Node000027" class="edge">
<title>Node26&#45;&gt;Node27</title>
<g id="a_edge40_Node000026_Node000027"><a xlink:title=" ">
<path fill="none" stroke="#63b8ff" d="M1017.4,-55.59C1017.4,-49.01 1017.4,-39.96 1017.4,-31.73"/>
<polygon fill="#63b8ff" stroke="#63b8ff" points="1020.9,-31.81 1017.4,-21.81 1013.9,-31.81 1020.9,-31.81"/>
</a>
</g>
</g>
<!-- Node28&#45;&gt;Node20 -->
<g id="edge48_Node000028_Node000020" class="edge">
<title>Node28&#45;&gt;Node20</title>
<g id="a_edge48_Node000028_Node000020"><a xlink:title=" ">
<path fill="none" stroke="#63b8ff" d="M1157.75,-223.74C1153.23,-214.67 1146.22,-200.45 1140.4,-188 1133.35,-172.92 1125.69,-155.7 1120.01,-142.78"/>
<polygon fill="#63b8ff" stroke="#63b8ff" points="1123.25,-141.45 1116.03,-133.69 1116.83,-144.25 1123.25,-141.45"/>
</a>
</g>
</g>
<!-- Node28&#45;&gt;Node24 -->
<g id="edge49_Node000028_Node000024" class="edge">
<title>Node28&#45;&gt;Node24</title>
<g id="a_edge49_Node000028_Node000024"><a xlink:title=" ">
<path fill="none" stroke="#63b8ff" d="M1137.14,-223.59C1114,-214.97 1079.47,-202.12 1053.43,-192.42"/>
<polygon fill="#63b8ff" stroke="#63b8ff" points="1054.86,-189.22 1044.27,-189.01 1052.42,-195.78 1054.86,-189.22"/>
</a>
</g>
</g>
<!-- Node29 -->
<g id="Node000029" class="node">
<title>Node29</title>
<g id="a_Node000029"><a xlink:href="IRepository_8hpp.html" target="_top" xlink:title=" ">
<polygon fill="white" stroke="#666666" points="1365.52,-188 1281.27,-188 1281.27,-168 1365.52,-168 1365.52,-188"/>
<text xml:space="preserve" text-anchor="middle" x="1323.4" y="-174.5" font-family="Helvetica,sans-Serif" font-size="10.00">IRepository.hpp</text>
</a>
</g>
</g>
<!-- Node28&#45;&gt;Node29 -->
<g id="edge43_Node000028_Node000029" class="edge">
<title>Node28&#45;&gt;Node29</title>
<g id="a_edge43_Node000028_Node000029"><a xlink:title=" ">
<path fill="none" stroke="#63b8ff" d="M1190.44,-223.59C1216.49,-214.86 1255.5,-201.77 1284.54,-192.03"/>
<polygon fill="#63b8ff" stroke="#63b8ff" points="1285.33,-195.46 1293.7,-188.96 1283.11,-188.82 1285.33,-195.46"/>
</a>
</g>
</g>
<!-- Node30 -->
<g id="Node000030" class="node">
<title>Node30</title>
<g id="a_Node000030"><a xlink:title=" ">
<polygon fill="#e0e0e0" stroke="#999999" points="1382.52,-132 1334.27,-132 1334.27,-112 1382.52,-112 1382.52,-132"/>
<text xml:space="preserve" text-anchor="middle" x="1358.4" y="-118.5" font-family="Helvetica,sans-Serif" font-size="10.00">cstddef</text>
</a>
</g>
</g>
<!-- Node28&#45;&gt;Node30 -->
<g id="edge45_Node000028_Node000030" class="edge">
<title>Node28&#45;&gt;Node30</title>
<g id="a_edge45_Node000028_Node000030"><a xlink:title=" ">
<path fill="none" stroke="#63b8ff" d="M1213.98,-223.72C1275.08,-212.49 1369.3,-194.3 1374.4,-188 1384.89,-175.05 1378.6,-156.2 1371.04,-142.14"/>
<polygon fill="#63b8ff" stroke="#63b8ff" points="1374.19,-140.57 1366.05,-133.79 1368.18,-144.16 1374.19,-140.57"/>
</a>
</g>
</g>
<!-- Node31 -->
<g id="Node000031" class="node">
<title>Node31</title>
<g id="a_Node000031"><a xlink:title=" ">
<polygon fill="#e0e0e0" stroke="#999999" points="1195.02,-188 1149.77,-188 1149.77,-168 1195.02,-168 1195.02,-188"/>
<text xml:space="preserve" text-anchor="middle" x="1172.4" y="-174.5" font-family="Helvetica,sans-Serif" font-size="10.00">cstdint</text>
</a>
</g>
</g>
<!-- Node28&#45;&gt;Node31 -->
<g id="edge46_Node000028_Node000031" class="edge">
<title>Node28&#45;&gt;Node31</title>
<g id="a_edge46_Node000028_Node000031"><a xlink:title=" ">
<path fill="none" stroke="#63b8ff" d="M1164.14,-223.59C1165.37,-216.93 1167.07,-207.75 1168.61,-199.44"/>
<polygon fill="#63b8ff" stroke="#63b8ff" points="1172.02,-200.26 1170.4,-189.79 1165.14,-198.98 1172.02,-200.26"/>
</a>
</g>
</g>
<!-- Node32 -->
<g id="Node000032" class="node">
<title>Node32</title>
<g id="a_Node000032"><a xlink:title=" ">
<polygon fill="#e0e0e0" stroke="#999999" points="1263.27,-188 1213.52,-188 1213.52,-168 1263.27,-168 1263.27,-188"/>
<text xml:space="preserve" text-anchor="middle" x="1238.4" y="-174.5" font-family="Helvetica,sans-Serif" font-size="10.00">optional</text>
</a>
</g>
</g>
<!-- Node28&#45;&gt;Node32 -->
<g id="edge47_Node000028_Node000032" class="edge">
<title>Node28&#45;&gt;Node32</title>
<g id="a_edge47_Node000028_Node000032"><a xlink:title=" ">
<path fill="none" stroke="#63b8ff" d="M1175.64,-223.59C1186.68,-215.74 1202.68,-204.38 1215.76,-195.09"/>
<polygon fill="#63b8ff" stroke="#63b8ff" points="1217.7,-198 1223.82,-189.36 1213.64,-192.3 1217.7,-198"/>
</a>
</g>
</g>
<!-- Node29&#45;&gt;Node30 -->
<g id="edge44_Node000029_Node000030" class="edge">
<title>Node29&#45;&gt;Node30</title>
<g id="a_edge44_Node000029_Node000030"><a xlink:title=" ">
<path fill="none" stroke="#63b8ff" d="M1329.49,-167.59C1334.11,-160.47 1340.6,-150.45 1346.27,-141.72"/>
<polygon fill="#63b8ff" stroke="#63b8ff" points="1349.05,-143.86 1351.55,-133.57 1343.17,-140.06 1349.05,-143.86"/>
</a>
</g>
</g>
</g>
</svg>
