<?xml version="1.0" encoding="UTF-8" standalone="no"?>
<!DOCTYPE svg PUBLIC "-//W3C//DTD SVG 1.1//EN"
 "http://www.w3.org/Graphics/SVG/1.1/DTD/svg11.dtd">
<!-- Generated by graphviz version 9.0.0 (0)
 -->
<!-- Title: src/bot_library/commands/set_channel/repositories/LogChannelRepository.hpp Pages: 1 -->
<svg width="352pt" height="132pt"
 viewBox="0.00 0.00 351.62 132.00" xmlns="http://www.w3.org/2000/svg" xmlns:xlink="http://www.w3.org/1999/xlink">
<g id="graph0" class="graph" transform="scale(1 1) rotate(0) translate(4 128)">
<title>src/bot_library/commands/set_channel/repositories/LogChannelRepository.hpp</title>
<!-- Node1 -->
<g id="Node000001" class="node">
<title>Node1</title>
<g id="a_Node000001"><a xlink:title=" ">
<polygon fill="#999999" stroke="#666666" points="252.62,-124 116.62,-124 116.62,-80 252.62,-80 252.62,-124"/>
<text text-anchor="start" x="124.62" y="-110.5" font-family="Helvetica,sans-Serif" font-size="10.00">src/bot_library/commands</text>
<text text-anchor="start" x="124.62" y="-98.5" font-family="Helvetica,sans-Serif" font-size="10.00">/set_channel/repositories</text>
<text text-anchor="middle" x="184.62" y="-86.5" font-family="Helvetica,sans-Serif" font-size="10.00">/LogChannelRepository.hpp</text>
</a>
</g>
</g>
<!-- Node2 -->
<g id="Node000002" class="node">
<title>Node2</title>
<g id="a_Node000002"><a xlink:href="SetChannelCommand_8cpp.html" target="_top" xlink:title=" ">
<polygon fill="white" stroke="#666666" points="189.25,-38 0,-38 0,-6 189.25,-6 189.25,-38"/>
<text text-anchor="start" x="8" y="-24.5" font-family="Helvetica,sans-Serif" font-size="10.00">src/bot_library/commands</text>
<text text-anchor="middle" x="94.62" y="-12.5" font-family="Helvetica,sans-Serif" font-size="10.00">/set_channel/SetChannelCommand.cpp</text>
</a>
</g>
</g>
<!-- Node1&#45;&gt;Node2 -->
<g id="edge1_Node000001_Node000002" class="edge">
<title>Node1&#45;&gt;Node2</title>
<g id="a_edge1_Node000001_Node000002"><a xlink:title=" ">
<path fill="none" stroke="#63b8ff" d="M151.57,-72.36C138.29,-60.84 123.51,-48.04 112.34,-38.35"/>
<polygon fill="#63b8ff" stroke="#63b8ff" points="149.04,-74.79 158.89,-78.69 153.62,-69.5 149.04,-74.79"/>
</a>
</g>
</g>
<!-- Node3 -->
<g id="Node000003" class="node">
<title>Node3</title>
<g id="a_Node000003"><a xlink:href="LogChannelRepository_8cpp.html" target="_top" xlink:title=" ">
<polygon fill="white" stroke="#666666" points="343.62,-44 207.62,-44 207.62,0 343.62,0 343.62,-44"/>
<text text-anchor="start" x="215.62" y="-30.5" font-family="Helvetica,sans-Serif" font-size="10.00">src/bot_library/commands</text>
<text text-anchor="start" x="215.62" y="-18.5" font-family="Helvetica,sans-Serif" font-size="10.00">/set_channel/repositories</text>
<text text-anchor="middle" x="275.62" y="-6.5" font-family="Helvetica,sans-Serif" font-size="10.00">/LogChannelRepository.cpp</text>
</a>
</g>
</g>
<!-- Node1&#45;&gt;Node3 -->
<g id="edge2_Node000001_Node000003" class="edge">
<title>Node1&#45;&gt;Node3</title>
<g id="a_edge2_Node000001_Node000003"><a xlink:title=" ">
<path fill="none" stroke="#63b8ff" d="M217.94,-72.45C228.8,-63.14 240.66,-52.97 250.79,-44.29"/>
<polygon fill="#63b8ff" stroke="#63b8ff" points="215.96,-69.54 210.64,-78.7 220.51,-74.85 215.96,-69.54"/>
</a>
</g>
</g>
</g>
</svg>
