<?xml version="1.0" encoding="UTF-8" standalone="no"?>
<!DOCTYPE svg PUBLIC "-//W3C//DTD SVG 1.1//EN"
 "http://www.w3.org/Graphics/SVG/1.1/DTD/svg11.dtd">
<!-- Generated by graphviz version 9.0.0 (0)
 -->
<!-- Title: src/bot_library/commands/set_channel/repositories/LogChannelRepository.cpp Pages: 1 -->
<svg width="558pt" height="276pt"
 viewBox="0.00 0.00 557.62 276.00" xmlns="http://www.w3.org/2000/svg" xmlns:xlink="http://www.w3.org/1999/xlink">
<g id="graph0" class="graph" transform="scale(1 1) rotate(0) translate(4 272)">
<title>src/bot_library/commands/set_channel/repositories/LogChannelRepository.cpp</title>
<!-- Node1 -->
<g id="Node000001" class="node">
<title>Node1</title>
<g id="a_Node000001"><a xlink:title=" ">
<polygon fill="#999999" stroke="#666666" points="270.12,-268 134.12,-268 134.12,-224 270.12,-224 270.12,-268"/>
<text text-anchor="start" x="142.12" y="-254.5" font-family="Helvetica,sans-Serif" font-size="10.00">src/bot_library/commands</text>
<text text-anchor="start" x="142.12" y="-242.5" font-family="Helvetica,sans-Serif" font-size="10.00">/set_channel/repositories</text>
<text text-anchor="middle" x="202.12" y="-230.5" font-family="Helvetica,sans-Serif" font-size="10.00">/LogChannelRepository.cpp</text>
</a>
</g>
</g>
<!-- Node2 -->
<g id="Node000002" class="node">
<title>Node2</title>
<g id="a_Node000002"><a xlink:href="LogChannelRepository_8hpp.html" target="_top" xlink:title=" ">
<polygon fill="white" stroke="#666666" points="173.62,-188 40.62,-188 40.62,-168 173.62,-168 173.62,-188"/>
<text text-anchor="middle" x="107.12" y="-174.5" font-family="Helvetica,sans-Serif" font-size="10.00">LogChannelRepository.hpp</text>
</a>
</g>
</g>
<!-- Node1&#45;&gt;Node2 -->
<g id="edge1_Node000001_Node000002" class="edge">
<title>Node1&#45;&gt;Node2</title>
<g id="a_edge1_Node000001_Node000002"><a xlink:title=" ">
<path fill="none" stroke="#63b8ff" d="M171.28,-223.57C157.77,-214.19 142.21,-203.37 129.79,-194.75"/>
<polygon fill="#63b8ff" stroke="#63b8ff" points="132.06,-192.06 121.85,-189.23 128.06,-197.81 132.06,-192.06"/>
</a>
</g>
</g>
<!-- Node4 -->
<g id="Node000004" class="node">
<title>Node4</title>
<g id="a_Node000004"><a xlink:title=" ">
<polygon fill="#e0e0e0" stroke="#999999" points="48.25,-76 0,-76 0,-56 48.25,-56 48.25,-76"/>
<text text-anchor="middle" x="24.12" y="-62.5" font-family="Helvetica,sans-Serif" font-size="10.00">cstddef</text>
</a>
</g>
</g>
<!-- Node1&#45;&gt;Node4 -->
<g id="edge17_Node000001_Node000004" class="edge">
<title>Node1&#45;&gt;Node4</title>
<g id="a_edge17_Node000001_Node000004"><a xlink:title=" ">
<path fill="none" stroke="#63b8ff" d="M133.78,-237.25C98.83,-229.93 58.08,-215.69 31.12,-188 5.29,-161.46 11.67,-114.2 18.19,-87.27"/>
<polygon fill="#63b8ff" stroke="#63b8ff" points="21.48,-88.5 20.68,-77.94 14.72,-86.7 21.48,-88.5"/>
</a>
</g>
</g>
<!-- Node5 -->
<g id="Node000005" class="node">
<title>Node5</title>
<g id="a_Node000005"><a xlink:href="LogChannelDTO_8hpp.html" target="_top" xlink:title=" ">
<polygon fill="white" stroke="#666666" points="232.88,-132 125.38,-132 125.38,-112 232.88,-112 232.88,-132"/>
<text text-anchor="middle" x="179.12" y="-118.5" font-family="Helvetica,sans-Serif" font-size="10.00">LogChannelDTO.hpp</text>
</a>
</g>
</g>
<!-- Node1&#45;&gt;Node5 -->
<g id="edge19_Node000001_Node000005" class="edge">
<title>Node1&#45;&gt;Node5</title>
<g id="a_edge19_Node000001_Node000005"><a xlink:title=" ">
<path fill="none" stroke="#63b8ff" d="M198.12,-223.75C193.86,-201.16 187.17,-165.69 182.97,-143.42"/>
<polygon fill="#63b8ff" stroke="#63b8ff" points="186.45,-142.97 181.16,-133.79 179.57,-144.26 186.45,-142.97"/>
</a>
</g>
</g>
<!-- Node9 -->
<g id="Node000009" class="node">
<title>Node9</title>
<g id="a_Node000009"><a xlink:href="Database_8hpp.html" target="_top" xlink:title=" ">
<polygon fill="white" stroke="#666666" points="327.5,-132 250.75,-132 250.75,-112 327.5,-112 327.5,-132"/>
<text text-anchor="middle" x="289.12" y="-118.5" font-family="Helvetica,sans-Serif" font-size="10.00">Database.hpp</text>
</a>
</g>
</g>
<!-- Node1&#45;&gt;Node9 -->
<g id="edge8_Node000001_Node000009" class="edge">
<title>Node1&#45;&gt;Node9</title>
<g id="a_edge8_Node000001_Node000009"><a xlink:title=" ">
<path fill="none" stroke="#63b8ff" d="M217.28,-223.75C233.84,-200.53 260.1,-163.7 275.87,-141.59"/>
<polygon fill="#63b8ff" stroke="#63b8ff" points="278.66,-143.71 281.61,-133.53 272.96,-139.64 278.66,-143.71"/>
</a>
</g>
</g>
<!-- Node13 -->
<g id="Node000013" class="node">
<title>Node13</title>
<g id="a_Node000013"><a xlink:title=" ">
<polygon fill="#e0e0e0" stroke="#999999" points="549.62,-76 506.62,-76 506.62,-56 549.62,-56 549.62,-76"/>
<text text-anchor="middle" x="528.12" y="-62.5" font-family="Helvetica,sans-Serif" font-size="10.00">vector</text>
</a>
</g>
</g>
<!-- Node1&#45;&gt;Node13 -->
<g id="edge18_Node000001_Node000013" class="edge">
<title>Node1&#45;&gt;Node13</title>
<g id="a_edge18_Node000001_Node000013"><a xlink:title=" ">
<path fill="none" stroke="#63b8ff" d="M241.45,-223.53C308.57,-186.88 443.55,-113.18 501.12,-81.75"/>
<polygon fill="#63b8ff" stroke="#63b8ff" points="502.5,-84.98 509.6,-77.11 499.15,-78.83 502.5,-84.98"/>
</a>
</g>
</g>
<!-- Node3 -->
<g id="Node000003" class="node">
<title>Node3</title>
<g id="a_Node000003"><a xlink:href="IRepository_8hpp.html" target="_top" xlink:title=" ">
<polygon fill="white" stroke="#666666" points="107.25,-132 23,-132 23,-112 107.25,-112 107.25,-132"/>
<text text-anchor="middle" x="65.12" y="-118.5" font-family="Helvetica,sans-Serif" font-size="10.00">IRepository.hpp</text>
</a>
</g>
</g>
<!-- Node2&#45;&gt;Node3 -->
<g id="edge2_Node000002_Node000003" class="edge">
<title>Node2&#45;&gt;Node3</title>
<g id="a_edge2_Node000002_Node000003"><a xlink:title=" ">
<path fill="none" stroke="#63b8ff" d="M99.81,-167.59C94.15,-160.32 86.14,-150.02 79.24,-141.15"/>
<polygon fill="#63b8ff" stroke="#63b8ff" points="82.19,-139.24 73.29,-133.49 76.66,-143.54 82.19,-139.24"/>
</a>
</g>
</g>
<!-- Node2&#45;&gt;Node5 -->
<g id="edge4_Node000002_Node000005" class="edge">
<title>Node2&#45;&gt;Node5</title>
<g id="a_edge4_Node000002_Node000005"><a xlink:title=" ">
<path fill="none" stroke="#63b8ff" d="M119.67,-167.59C130.09,-159.77 145.17,-148.46 157.54,-139.19"/>
<polygon fill="#63b8ff" stroke="#63b8ff" points="159.62,-142.01 165.52,-133.21 155.42,-136.41 159.62,-142.01"/>
</a>
</g>
</g>
<!-- Node3&#45;&gt;Node4 -->
<g id="edge3_Node000003_Node000004" class="edge">
<title>Node3&#45;&gt;Node4</title>
<g id="a_edge3_Node000003_Node000004"><a xlink:title=" ">
<path fill="none" stroke="#63b8ff" d="M57.98,-111.59C52.52,-104.39 44.8,-94.23 38.12,-85.43"/>
<polygon fill="#63b8ff" stroke="#63b8ff" points="40.93,-83.35 32.1,-77.5 35.36,-87.58 40.93,-83.35"/>
</a>
</g>
</g>
<!-- Node6 -->
<g id="Node000006" class="node">
<title>Node6</title>
<g id="a_Node000006"><a xlink:href="RowDTOAdapter_8hpp.html" target="_top" xlink:title=" ">
<polygon fill="white" stroke="#666666" points="234,-76 124.25,-76 124.25,-56 234,-56 234,-76"/>
<text text-anchor="middle" x="179.12" y="-62.5" font-family="Helvetica,sans-Serif" font-size="10.00">RowDTOAdapter.hpp</text>
</a>
</g>
</g>
<!-- Node5&#45;&gt;Node6 -->
<g id="edge5_Node000005_Node000006" class="edge">
<title>Node5&#45;&gt;Node6</title>
<g id="a_edge5_Node000005_Node000006"><a xlink:title=" ">
<path fill="none" stroke="#63b8ff" d="M179.12,-111.59C179.12,-105.01 179.12,-95.96 179.12,-87.73"/>
<polygon fill="#63b8ff" stroke="#63b8ff" points="182.63,-87.81 179.13,-77.81 175.63,-87.81 182.63,-87.81"/>
</a>
</g>
</g>
<!-- Node8 -->
<g id="Node000008" class="node">
<title>Node8</title>
<g id="a_Node000008"><a xlink:title=" ">
<polygon fill="#e0e0e0" stroke="#999999" points="106.12,-76 66.12,-76 66.12,-56 106.12,-56 106.12,-76"/>
<text text-anchor="middle" x="86.12" y="-62.5" font-family="Helvetica,sans-Serif" font-size="10.00">string</text>
</a>
</g>
</g>
<!-- Node5&#45;&gt;Node8 -->
<g id="edge7_Node000005_Node000008" class="edge">
<title>Node5&#45;&gt;Node8</title>
<g id="a_edge7_Node000005_Node000008"><a xlink:title=" ">
<path fill="none" stroke="#63b8ff" d="M162.93,-111.59C148.88,-103.44 128.29,-91.48 111.97,-82"/>
<polygon fill="#63b8ff" stroke="#63b8ff" points="114.17,-79.23 103.76,-77.24 110.65,-85.29 114.17,-79.23"/>
</a>
</g>
</g>
<!-- Node7 -->
<g id="Node000007" class="node">
<title>Node7</title>
<g id="a_Node000007"><a xlink:title=" ">
<polygon fill="#e0e0e0" stroke="#999999" points="250.62,-20 189.62,-20 189.62,0 250.62,0 250.62,-20"/>
<text text-anchor="middle" x="220.12" y="-6.5" font-family="Helvetica,sans-Serif" font-size="10.00">pqxx/pqxx</text>
</a>
</g>
</g>
<!-- Node6&#45;&gt;Node7 -->
<g id="edge6_Node000006_Node000007" class="edge">
<title>Node6&#45;&gt;Node7</title>
<g id="a_edge6_Node000006_Node000007"><a xlink:title=" ">
<path fill="none" stroke="#63b8ff" d="M186.27,-55.59C191.73,-48.39 199.45,-38.23 206.13,-29.43"/>
<polygon fill="#63b8ff" stroke="#63b8ff" points="208.89,-31.58 212.15,-21.5 203.32,-27.35 208.89,-31.58"/>
</a>
</g>
</g>
<!-- Node9&#45;&gt;Node4 -->
<g id="edge9_Node000009_Node000004" class="edge">
<title>Node9&#45;&gt;Node4</title>
<g id="a_edge9_Node000009_Node000004"><a xlink:title=" ">
<path fill="none" stroke="#63b8ff" d="M250.45,-113.58C194.85,-102.9 95.72,-83.81 59.79,-76.33"/>
<polygon fill="#63b8ff" stroke="#63b8ff" points="60.58,-72.91 50.06,-74.21 59.09,-79.75 60.58,-72.91"/>
</a>
</g>
</g>
<!-- Node9&#45;&gt;Node6 -->
<g id="edge16_Node000009_Node000006" class="edge">
<title>Node9&#45;&gt;Node6</title>
<g id="a_edge16_Node000009_Node000006"><a xlink:title=" ">
<path fill="none" stroke="#63b8ff" d="M269.96,-111.59C253.03,-103.28 228.08,-91.03 208.6,-81.47"/>
<polygon fill="#63b8ff" stroke="#63b8ff" points="210.31,-78.41 199.79,-77.15 207.23,-84.7 210.31,-78.41"/>
</a>
</g>
</g>
<!-- Node9&#45;&gt;Node7 -->
<g id="edge12_Node000009_Node000007" class="edge">
<title>Node9&#45;&gt;Node7</title>
<g id="a_edge12_Node000009_Node000007"><a xlink:title=" ">
<path fill="none" stroke="#63b8ff" d="M283.24,-111.62C271.94,-93.6 246.98,-53.81 232.06,-30.02"/>
<polygon fill="#63b8ff" stroke="#63b8ff" points="235.08,-28.25 226.8,-21.64 229.15,-31.97 235.08,-28.25"/>
</a>
</g>
</g>
<!-- Node9&#45;&gt;Node8 -->
<g id="edge13_Node000009_Node000008" class="edge">
<title>Node9&#45;&gt;Node8</title>
<g id="a_edge13_Node000009_Node000008"><a xlink:title=" ">
<path fill="none" stroke="#63b8ff" d="M250.28,-111.52C217.27,-103.34 168.38,-90.93 117.3,-76.52"/>
<polygon fill="#63b8ff" stroke="#63b8ff" points="118.4,-73.2 107.83,-73.83 116.49,-79.93 118.4,-73.2"/>
</a>
</g>
</g>
<!-- Node10 -->
<g id="Node000010" class="node">
<title>Node10</title>
<g id="a_Node000010"><a xlink:title=" ">
<polygon fill="#e0e0e0" stroke="#999999" points="343.88,-76 290.38,-76 290.38,-56 343.88,-56 343.88,-76"/>
<text text-anchor="middle" x="317.12" y="-62.5" font-family="Helvetica,sans-Serif" font-size="10.00">iostream</text>
</a>
</g>
</g>
<!-- Node9&#45;&gt;Node10 -->
<g id="edge10_Node000009_Node000010" class="edge">
<title>Node9&#45;&gt;Node10</title>
<g id="a_edge10_Node000009_Node000010"><a xlink:title=" ">
<path fill="none" stroke="#63b8ff" d="M294,-111.59C297.62,-104.63 302.67,-94.89 307.12,-86.29"/>
<polygon fill="#63b8ff" stroke="#63b8ff" points="310.11,-88.13 311.61,-77.64 303.9,-84.91 310.11,-88.13"/>
</a>
</g>
</g>
<!-- Node11 -->
<g id="Node000011" class="node">
<title>Node11</title>
<g id="a_Node000011"><a xlink:title=" ">
<polygon fill="#e0e0e0" stroke="#999999" points="412,-76 362.25,-76 362.25,-56 412,-56 412,-76"/>
<text text-anchor="middle" x="387.12" y="-62.5" font-family="Helvetica,sans-Serif" font-size="10.00">optional</text>
</a>
</g>
</g>
<!-- Node9&#45;&gt;Node11 -->
<g id="edge11_Node000009_Node000011" class="edge">
<title>Node9&#45;&gt;Node11</title>
<g id="a_edge11_Node000009_Node000011"><a xlink:title=" ">
<path fill="none" stroke="#63b8ff" d="M306.2,-111.59C321,-103.44 342.69,-91.48 359.89,-82"/>
<polygon fill="#63b8ff" stroke="#63b8ff" points="361.53,-85.1 368.6,-77.21 358.15,-78.97 361.53,-85.1"/>
</a>
</g>
</g>
<!-- Node12 -->
<g id="Node000012" class="node">
<title>Node12</title>
<g id="a_Node000012"><a xlink:title=" ">
<polygon fill="#e0e0e0" stroke="#999999" points="488.12,-76 430.12,-76 430.12,-56 488.12,-56 488.12,-76"/>
<text text-anchor="middle" x="459.12" y="-62.5" font-family="Helvetica,sans-Serif" font-size="10.00">typeindex</text>
</a>
</g>
</g>
<!-- Node9&#45;&gt;Node12 -->
<g id="edge14_Node000009_Node000012" class="edge">
<title>Node9&#45;&gt;Node12</title>
<g id="a_edge14_Node000009_Node000012"><a xlink:title=" ">
<path fill="none" stroke="#63b8ff" d="M318.74,-111.59C346.53,-102.77 388.31,-89.5 419.07,-79.72"/>
<polygon fill="#63b8ff" stroke="#63b8ff" points="419.94,-83.12 428.41,-76.76 417.82,-76.45 419.94,-83.12"/>
</a>
</g>
</g>
<!-- Node9&#45;&gt;Node13 -->
<g id="edge15_Node000009_Node000013" class="edge">
<title>Node9&#45;&gt;Node13</title>
<g id="a_edge15_Node000009_Node000013"><a xlink:title=" ">
<path fill="none" stroke="#63b8ff" d="M327.65,-113.5C367.25,-105.61 430.93,-92.41 495.04,-76.39"/>
<polygon fill="#63b8ff" stroke="#63b8ff" points="495.85,-79.79 504.69,-73.95 494.14,-73.01 495.85,-79.79"/>
</a>
</g>
</g>
</g>
</svg>
