<?xml version="1.0" encoding="UTF-8" standalone="no"?>
<!DOCTYPE svg PUBLIC "-//W3C//DTD SVG 1.1//EN"
 "http://www.w3.org/Graphics/SVG/1.1/DTD/svg11.dtd">
<!-- Generated by graphviz version 9.0.0 (0)
 -->
<!-- Title: src/main.cpp Pages: 1 -->
<svg width="86pt" height="140pt"
 viewBox="0.00 0.00 86.25 140.00" xmlns="http://www.w3.org/2000/svg" xmlns:xlink="http://www.w3.org/1999/xlink">
<g id="graph0" class="graph" transform="scale(1 1) rotate(0) translate(4 136)">
<title>src/main.cpp</title>
<!-- Node1 -->
<g id="Node000001" class="node">
<title>Node1</title>
<g id="a_Node000001"><a xlink:title=" ">
<polygon fill="#999999" stroke="#666666" points="75.25,-132 3,-132 3,-112 75.25,-112 75.25,-132"/>
<text text-anchor="middle" x="39.12" y="-118.5" font-family="Helvetica,sans-Serif" font-size="10.00">src/main.cpp</text>
</a>
</g>
</g>
<!-- Node2 -->
<g id="Node000002" class="node">
<title>Node2</title>
<g id="a_Node000002"><a xlink:href="BotLibrary_8hpp.html" target="_top" xlink:title=" ">
<polygon fill="white" stroke="#666666" points="78.25,-76 0,-76 0,-56 78.25,-56 78.25,-76"/>
<text text-anchor="middle" x="39.12" y="-62.5" font-family="Helvetica,sans-Serif" font-size="10.00">BotLibrary.hpp</text>
</a>
</g>
</g>
<!-- Node1&#45;&gt;Node2 -->
<g id="edge1_Node000001_Node000002" class="edge">
<title>Node1&#45;&gt;Node2</title>
<g id="a_edge1_Node000001_Node000002"><a xlink:title=" ">
<path fill="none" stroke="#63b8ff" d="M39.12,-111.59C39.12,-105.01 39.12,-95.96 39.12,-87.73"/>
<polygon fill="#63b8ff" stroke="#63b8ff" points="42.63,-87.81 39.13,-77.81 35.63,-87.81 42.63,-87.81"/>
</a>
</g>
</g>
<!-- Node3 -->
<g id="Node000003" class="node">
<title>Node3</title>
<g id="a_Node000003"><a xlink:title=" ">
<polygon fill="#e0e0e0" stroke="#999999" points="59.12,-20 19.12,-20 19.12,0 59.12,0 59.12,-20"/>
<text text-anchor="middle" x="39.12" y="-6.5" font-family="Helvetica,sans-Serif" font-size="10.00">string</text>
</a>
</g>
</g>
<!-- Node2&#45;&gt;Node3 -->
<g id="edge2_Node000002_Node000003" class="edge">
<title>Node2&#45;&gt;Node3</title>
<g id="a_edge2_Node000002_Node000003"><a xlink:title=" ">
<path fill="none" stroke="#63b8ff" d="M39.12,-55.59C39.12,-49.01 39.12,-39.96 39.12,-31.73"/>
<polygon fill="#63b8ff" stroke="#63b8ff" points="42.63,-31.81 39.13,-21.81 35.63,-31.81 42.63,-31.81"/>
</a>
</g>
</g>
</g>
</svg>
