<?xml version="1.0" encoding="UTF-8" standalone="no"?>
<!DOCTYPE svg PUBLIC "-//W3C//DTD SVG 1.1//EN"
 "http://www.w3.org/Graphics/SVG/1.1/DTD/svg11.dtd">
<!-- Generated by graphviz version 9.0.0 (0)
 -->
<!-- Title: src/bot_library/commands/member/repositories/MemberDTO.cpp Pages: 1 -->
<svg width="212pt" height="208pt"
 viewBox="0.00 0.00 211.62 208.00" xmlns="http://www.w3.org/2000/svg" xmlns:xlink="http://www.w3.org/1999/xlink">
<g id="graph0" class="graph" transform="scale(1 1) rotate(0) translate(4 204)">
<title>src/bot_library/commands/member/repositories/MemberDTO.cpp</title>
<!-- Node1 -->
<g id="Node000001" class="node">
<title>Node1</title>
<g id="a_Node000001"><a xlink:title=" ">
<polygon fill="#999999" stroke="#666666" points="203.62,-200 18.12,-200 18.12,-168 203.62,-168 203.62,-200"/>
<text text-anchor="start" x="26.12" y="-186.5" font-family="Helvetica,sans-Serif" font-size="10.00">src/bot_library/commands</text>
<text text-anchor="middle" x="110.88" y="-174.5" font-family="Helvetica,sans-Serif" font-size="10.00">/member/repositories/MemberDTO.cpp</text>
</a>
</g>
</g>
<!-- Node2 -->
<g id="Node000002" class="node">
<title>Node2</title>
<g id="a_Node000002"><a xlink:href="MemberDTO_8hpp.html" target="_top" xlink:title=" ">
<polygon fill="white" stroke="#666666" points="119.38,-132 28.38,-132 28.38,-112 119.38,-112 119.38,-132"/>
<text text-anchor="middle" x="73.88" y="-118.5" font-family="Helvetica,sans-Serif" font-size="10.00">MemberDTO.hpp</text>
</a>
</g>
</g>
<!-- Node1&#45;&gt;Node2 -->
<g id="edge1_Node000001_Node000002" class="edge">
<title>Node1&#45;&gt;Node2</title>
<g id="a_edge1_Node000001_Node000002"><a xlink:title=" ">
<path fill="none" stroke="#63b8ff" d="M101.35,-167.55C96.53,-159.74 90.64,-150.19 85.55,-141.94"/>
<polygon fill="#63b8ff" stroke="#63b8ff" points="88.7,-140.37 80.47,-133.7 82.74,-144.05 88.7,-140.37"/>
</a>
</g>
</g>
<!-- Node5 -->
<g id="Node000005" class="node">
<title>Node5</title>
<g id="a_Node000005"><a xlink:title=" ">
<polygon fill="#e0e0e0" stroke="#999999" points="167.88,-76 127.88,-76 127.88,-56 167.88,-56 167.88,-76"/>
<text text-anchor="middle" x="147.88" y="-62.5" font-family="Helvetica,sans-Serif" font-size="10.00">string</text>
</a>
</g>
</g>
<!-- Node1&#45;&gt;Node5 -->
<g id="edge5_Node000001_Node000005" class="edge">
<title>Node1&#45;&gt;Node5</title>
<g id="a_edge5_Node000001_Node000005"><a xlink:title=" ">
<path fill="none" stroke="#63b8ff" d="M116.45,-167.9C120.12,-157.79 124.96,-144.15 128.88,-132 133.69,-117.08 138.64,-100.06 142.28,-87.18"/>
<polygon fill="#63b8ff" stroke="#63b8ff" points="145.6,-88.34 144.92,-77.76 138.85,-86.45 145.6,-88.34"/>
</a>
</g>
</g>
<!-- Node3 -->
<g id="Node000003" class="node">
<title>Node3</title>
<g id="a_Node000003"><a xlink:href="RowDTOAdapter_8hpp.html" target="_top" xlink:title=" ">
<polygon fill="white" stroke="#666666" points="109.75,-76 0,-76 0,-56 109.75,-56 109.75,-76"/>
<text text-anchor="middle" x="54.88" y="-62.5" font-family="Helvetica,sans-Serif" font-size="10.00">RowDTOAdapter.hpp</text>
</a>
</g>
</g>
<!-- Node2&#45;&gt;Node3 -->
<g id="edge2_Node000002_Node000003" class="edge">
<title>Node2&#45;&gt;Node3</title>
<g id="a_edge2_Node000002_Node000003"><a xlink:title=" ">
<path fill="none" stroke="#63b8ff" d="M70.57,-111.59C68.2,-104.86 64.91,-95.53 61.97,-87.15"/>
<polygon fill="#63b8ff" stroke="#63b8ff" points="65.27,-86 58.65,-77.73 58.67,-88.32 65.27,-86"/>
</a>
</g>
</g>
<!-- Node2&#45;&gt;Node5 -->
<g id="edge4_Node000002_Node000005" class="edge">
<title>Node2&#45;&gt;Node5</title>
<g id="a_edge4_Node000002_Node000005"><a xlink:title=" ">
<path fill="none" stroke="#63b8ff" d="M86.76,-111.59C97.59,-103.7 113.29,-92.24 126.06,-82.92"/>
<polygon fill="#63b8ff" stroke="#63b8ff" points="127.9,-85.91 133.91,-77.19 123.77,-80.26 127.9,-85.91"/>
</a>
</g>
</g>
<!-- Node4 -->
<g id="Node000004" class="node">
<title>Node4</title>
<g id="a_Node000004"><a xlink:title=" ">
<polygon fill="#e0e0e0" stroke="#999999" points="85.38,-20 24.37,-20 24.37,0 85.38,0 85.38,-20"/>
<text text-anchor="middle" x="54.88" y="-6.5" font-family="Helvetica,sans-Serif" font-size="10.00">pqxx/pqxx</text>
</a>
</g>
</g>
<!-- Node3&#45;&gt;Node4 -->
<g id="edge3_Node000003_Node000004" class="edge">
<title>Node3&#45;&gt;Node4</title>
<g id="a_edge3_Node000003_Node000004"><a xlink:title=" ">
<path fill="none" stroke="#63b8ff" d="M54.88,-55.59C54.88,-49.01 54.88,-39.96 54.88,-31.73"/>
<polygon fill="#63b8ff" stroke="#63b8ff" points="58.38,-31.81 54.88,-21.81 51.38,-31.81 58.38,-31.81"/>
</a>
</g>
</g>
</g>
</svg>
