<?xml version="1.0" encoding="UTF-8" standalone="no"?>
<!DOCTYPE svg PUBLIC "-//W3C//DTD SVG 1.1//EN"
 "http://www.w3.org/Graphics/SVG/1.1/DTD/svg11.dtd">
<!-- Generated by graphviz version 9.0.0 (0)
 -->
<!-- Title: src/bot_library/commands/member/MemberCommand.cpp Pages: 1 -->
<svg width="1767pt" height="376pt"
 viewBox="0.00 0.00 1766.75 376.00" xmlns="http://www.w3.org/2000/svg" xmlns:xlink="http://www.w3.org/1999/xlink">
<g id="graph0" class="graph" transform="scale(1 1) rotate(0) translate(4 372)">
<title>src/bot_library/commands/member/MemberCommand.cpp</title>
<!-- Node1 -->
<g id="Node000001" class="node">
<title>Node1</title>
<g id="a_Node000001"><a xlink:title=" ">
<polygon fill="#999999" stroke="#666666" points="1426.25,-368 1270,-368 1270,-336 1426.25,-336 1426.25,-368"/>
<text text-anchor="start" x="1278" y="-354.5" font-family="Helvetica,sans-Serif" font-size="10.00">src/bot_library/commands</text>
<text text-anchor="middle" x="1348.12" y="-342.5" font-family="Helvetica,sans-Serif" font-size="10.00">/member/MemberCommand.cpp</text>
</a>
</g>
</g>
<!-- Node2 -->
<g id="Node000002" class="node">
<title>Node2</title>
<g id="a_Node000002"><a xlink:href="MemberCommand_8hpp.html" target="_top" xlink:title=" ">
<polygon fill="white" stroke="#666666" points="1362.62,-300 1247.62,-300 1247.62,-280 1362.62,-280 1362.62,-300"/>
<text text-anchor="middle" x="1305.12" y="-286.5" font-family="Helvetica,sans-Serif" font-size="10.00">MemberCommand.hpp</text>
</a>
</g>
</g>
<!-- Node1&#45;&gt;Node2 -->
<g id="edge1_Node000001_Node000002" class="edge">
<title>Node1&#45;&gt;Node2</title>
<g id="a_edge1_Node000001_Node000002"><a xlink:title=" ">
<path fill="none" stroke="#63b8ff" d="M1337.05,-335.55C1331.39,-327.65 1324.46,-317.97 1318.5,-309.66"/>
<polygon fill="#63b8ff" stroke="#63b8ff" points="1321.42,-307.73 1312.75,-301.64 1315.73,-311.81 1321.42,-307.73"/>
</a>
</g>
</g>
<!-- Node4 -->
<g id="Node000004" class="node">
<title>Node4</title>
<g id="a_Node000004"><a xlink:href="Core_8hpp.html" target="_top" xlink:title=" ">
<polygon fill="white" stroke="#666666" points="856,-188 800.25,-188 800.25,-168 856,-168 856,-188"/>
<text text-anchor="middle" x="828.12" y="-174.5" font-family="Helvetica,sans-Serif" font-size="10.00">Core.hpp</text>
</a>
</g>
</g>
<!-- Node1&#45;&gt;Node4 -->
<g id="edge52_Node000001_Node000004" class="edge">
<title>Node1&#45;&gt;Node4</title>
<g id="a_edge52_Node000001_Node000004"><a xlink:title=" ">
<path fill="none" stroke="#63b8ff" d="M1301.52,-335.58C1200.07,-302.03 960.82,-222.89 866.92,-191.83"/>
<polygon fill="#63b8ff" stroke="#63b8ff" points="868.23,-188.58 857.64,-188.76 866.04,-195.23 868.23,-188.58"/>
</a>
</g>
</g>
<!-- Node7 -->
<g id="Node000007" class="node">
<title>Node7</title>
<g id="a_Node000007"><a xlink:title=" ">
<polygon fill="#e0e0e0" stroke="#999999" points="272.25,-132 212,-132 212,-112 272.25,-112 272.25,-132"/>
<text text-anchor="middle" x="242.12" y="-118.5" font-family="Helvetica,sans-Serif" font-size="10.00">fmt/core.h</text>
</a>
</g>
</g>
<!-- Node1&#45;&gt;Node7 -->
<g id="edge50_Node000001_Node000007" class="edge">
<title>Node1&#45;&gt;Node7</title>
<g id="a_edge50_Node000001_Node000007"><a xlink:title=" ">
<path fill="none" stroke="#63b8ff" d="M1269.71,-336.94C1121.23,-310.05 789.02,-248.6 511.12,-188 430.22,-170.36 336.32,-147.01 283.6,-133.63"/>
<polygon fill="#63b8ff" stroke="#63b8ff" points="284.7,-130.3 274.15,-131.23 282.98,-137.09 284.7,-130.3"/>
</a>
</g>
</g>
<!-- Node19 -->
<g id="Node000019" class="node">
<title>Node19</title>
<g id="a_Node000019"><a xlink:title=" ">
<polygon fill="#e0e0e0" stroke="#999999" points="1614.5,-76 1531.75,-76 1531.75,-56 1614.5,-56 1614.5,-76"/>
<text text-anchor="middle" x="1573.12" y="-62.5" font-family="Helvetica,sans-Serif" font-size="10.00">appcommand.h</text>
</a>
</g>
</g>
<!-- Node1&#45;&gt;Node19 -->
<g id="edge48_Node000001_Node000019" class="edge">
<title>Node1&#45;&gt;Node19</title>
<g id="a_edge48_Node000001_Node000019"><a xlink:title=" ">
<path fill="none" stroke="#63b8ff" d="M1390.88,-335.58C1446.45,-312.93 1541.1,-264.84 1581.12,-188 1597.84,-155.91 1588.5,-112.37 1580.56,-87.21"/>
<polygon fill="#63b8ff" stroke="#63b8ff" points="1583.93,-86.24 1577.39,-77.91 1577.31,-88.5 1583.93,-86.24"/>
</a>
</g>
</g>
<!-- Node26 -->
<g id="Node000026" class="node">
<title>Node26</title>
<g id="a_Node000026"><a xlink:title=" ">
<polygon fill="#e0e0e0" stroke="#999999" points="1608.38,-300 1557.88,-300 1557.88,-280 1608.38,-280 1608.38,-300"/>
<text text-anchor="middle" x="1583.12" y="-286.5" font-family="Helvetica,sans-Serif" font-size="10.00">colors.h</text>
</a>
</g>
</g>
<!-- Node1&#45;&gt;Node26 -->
<g id="edge49_Node000001_Node000026" class="edge">
<title>Node1&#45;&gt;Node26</title>
<g id="a_edge49_Node000001_Node000026"><a xlink:title=" ">
<path fill="none" stroke="#63b8ff" d="M1408.64,-335.55C1452.4,-324.38 1510.05,-309.66 1546.87,-300.26"/>
<polygon fill="#63b8ff" stroke="#63b8ff" points="1547.3,-303.76 1556.12,-297.89 1545.56,-296.98 1547.3,-303.76"/>
</a>
</g>
</g>
<!-- Node27 -->
<g id="Node000027" class="node">
<title>Node27</title>
<g id="a_Node000027"><a xlink:title=" ">
<polygon fill="#e0e0e0" stroke="#999999" points="1695.38,-300 1626.88,-300 1626.88,-280 1695.38,-280 1695.38,-300"/>
<text text-anchor="middle" x="1661.12" y="-286.5" font-family="Helvetica,sans-Serif" font-size="10.00">snowflake.h</text>
</a>
</g>
</g>
<!-- Node1&#45;&gt;Node27 -->
<g id="edge51_Node000001_Node000027" class="edge">
<title>Node1&#45;&gt;Node27</title>
<g id="a_edge51_Node000001_Node000027"><a xlink:title=" ">
<path fill="none" stroke="#63b8ff" d="M1426.46,-336.46C1477.43,-326.92 1545.65,-314.03 1615.35,-300.33"/>
<polygon fill="#63b8ff" stroke="#63b8ff" points="1615.93,-303.78 1625.06,-298.41 1614.57,-296.91 1615.93,-303.78"/>
</a>
</g>
</g>
<!-- Node28 -->
<g id="Node000028" class="node">
<title>Node28</title>
<g id="a_Node000028"><a xlink:href="MemberRepository_8hpp.html" target="_top" xlink:title=" ">
<polygon fill="white" stroke="#666666" points="206.38,-188 89.88,-188 89.88,-168 206.38,-168 206.38,-188"/>
<text text-anchor="middle" x="148.12" y="-174.5" font-family="Helvetica,sans-Serif" font-size="10.00">MemberRepository.hpp</text>
</a>
</g>
</g>
<!-- Node1&#45;&gt;Node28 -->
<g id="edge53_Node000001_Node000028" class="edge">
<title>Node1&#45;&gt;Node28</title>
<g id="a_edge53_Node000001_Node000028"><a xlink:title=" ">
<path fill="none" stroke="#63b8ff" d="M1269.59,-350.21C1039.32,-347.47 376.41,-336.47 286.12,-300 231.68,-278.01 184.11,-224.98 161.73,-196.99"/>
<polygon fill="#63b8ff" stroke="#63b8ff" points="164.74,-195.16 155.83,-189.42 159.22,-199.46 164.74,-195.16"/>
</a>
</g>
</g>
<!-- Node31 -->
<g id="Node000031" class="node">
<title>Node31</title>
<g id="a_Node000031"><a xlink:title=" ">
<polygon fill="#e0e0e0" stroke="#999999" points="1758.75,-300 1713.5,-300 1713.5,-280 1758.75,-280 1758.75,-300"/>
<text text-anchor="middle" x="1736.12" y="-286.5" font-family="Helvetica,sans-Serif" font-size="10.00">variant</text>
</a>
</g>
</g>
<!-- Node1&#45;&gt;Node31 -->
<g id="edge59_Node000001_Node000031" class="edge">
<title>Node1&#45;&gt;Node31</title>
<g id="a_edge59_Node000001_Node000031"><a xlink:title=" ">
<path fill="none" stroke="#63b8ff" d="M1426.42,-342.79C1496.29,-334.78 1601.5,-321.04 1701.88,-300.23"/>
<polygon fill="#63b8ff" stroke="#63b8ff" points="1702.6,-303.65 1711.66,-298.17 1701.16,-296.8 1702.6,-303.65"/>
</a>
</g>
</g>
<!-- Node3 -->
<g id="Node000003" class="node">
<title>Node3</title>
<g id="a_Node000003"><a xlink:href="Bot_8hpp.html" target="_top" xlink:title=" ">
<polygon fill="white" stroke="#666666" points="1261,-244 1211.25,-244 1211.25,-224 1261,-224 1261,-244"/>
<text text-anchor="middle" x="1236.12" y="-230.5" font-family="Helvetica,sans-Serif" font-size="10.00">Bot.hpp</text>
</a>
</g>
</g>
<!-- Node2&#45;&gt;Node3 -->
<g id="edge2_Node000002_Node000003" class="edge">
<title>Node2&#45;&gt;Node3</title>
<g id="a_edge2_Node000002_Node000003"><a xlink:title=" ">
<path fill="none" stroke="#63b8ff" d="M1293.11,-279.59C1283.11,-271.77 1268.66,-260.46 1256.82,-251.19"/>
<polygon fill="#63b8ff" stroke="#63b8ff" points="1259.23,-248.64 1249.2,-245.23 1254.92,-254.15 1259.23,-248.64"/>
</a>
</g>
</g>
<!-- Node3&#45;&gt;Node4 -->
<g id="edge3_Node000003_Node000004" class="edge">
<title>Node3&#45;&gt;Node4</title>
<g id="a_edge3_Node000003_Node000004"><a xlink:title=" ">
<path fill="none" stroke="#63b8ff" d="M1210.75,-230.12C1152.56,-223.43 1005.02,-206.05 882.12,-188 877.42,-187.31 872.49,-186.54 867.6,-185.76"/>
<polygon fill="#63b8ff" stroke="#63b8ff" points="868.33,-182.33 857.89,-184.17 867.19,-189.24 868.33,-182.33"/>
</a>
</g>
</g>
<!-- Node11 -->
<g id="Node000011" class="node">
<title>Node11</title>
<g id="a_Node000011"><a xlink:title=" ">
<polygon fill="#e0e0e0" stroke="#999999" points="406.12,-76 366.12,-76 366.12,-56 406.12,-56 406.12,-76"/>
<text text-anchor="middle" x="386.12" y="-62.5" font-family="Helvetica,sans-Serif" font-size="10.00">string</text>
</a>
</g>
</g>
<!-- Node3&#45;&gt;Node11 -->
<g id="edge46_Node000003_Node000011" class="edge">
<title>Node3&#45;&gt;Node11</title>
<g id="a_edge46_Node000003_Node000011"><a xlink:title=" ">
<path fill="none" stroke="#63b8ff" d="M1211.06,-232.95C1088.66,-232.27 554.37,-224 422.12,-132 406.75,-121.3 397.24,-101.83 391.88,-86.98"/>
<polygon fill="#63b8ff" stroke="#63b8ff" points="395.31,-86.2 388.91,-77.76 388.64,-88.35 395.31,-86.2"/>
</a>
</g>
</g>
<!-- Node12 -->
<g id="Node000012" class="node">
<title>Node12</title>
<g id="a_Node000012"><a xlink:title=" ">
<polygon fill="#e0e0e0" stroke="#999999" points="1487.62,-76 1444.62,-76 1444.62,-56 1487.62,-56 1487.62,-76"/>
<text text-anchor="middle" x="1466.12" y="-62.5" font-family="Helvetica,sans-Serif" font-size="10.00">vector</text>
</a>
</g>
</g>
<!-- Node3&#45;&gt;Node12 -->
<g id="edge47_Node000003_Node000012" class="edge">
<title>Node3&#45;&gt;Node12</title>
<g id="a_edge47_Node000003_Node000012"><a xlink:title=" ">
<path fill="none" stroke="#63b8ff" d="M1261.46,-225.54C1333.44,-204.25 1534.49,-143.93 1543.12,-132 1559.33,-109.6 1526.19,-90.09 1498.45,-78.43"/>
<polygon fill="#63b8ff" stroke="#63b8ff" points="1499.81,-75.21 1489.22,-74.78 1497.23,-81.72 1499.81,-75.21"/>
</a>
</g>
</g>
<!-- Node14 -->
<g id="Node000014" class="node">
<title>Node14</title>
<g id="a_Node000014"><a xlink:href="IButtonCommand_8hpp.html" target="_top" xlink:title=" ">
<polygon fill="white" stroke="#666666" points="757.75,-132 646.5,-132 646.5,-112 757.75,-112 757.75,-132"/>
<text text-anchor="middle" x="702.12" y="-118.5" font-family="Helvetica,sans-Serif" font-size="10.00">IButtonCommand.hpp</text>
</a>
</g>
</g>
<!-- Node3&#45;&gt;Node14 -->
<g id="edge35_Node000003_Node000014" class="edge">
<title>Node3&#45;&gt;Node14</title>
<g id="a_edge35_Node000003_Node000014"><a xlink:title=" ">
<path fill="none" stroke="#63b8ff" d="M1210.77,-228.65C1166.37,-220.97 1071.68,-204.25 992.12,-188 908,-170.82 810.71,-148.51 752.91,-135"/>
<polygon fill="#63b8ff" stroke="#63b8ff" points="753.9,-131.64 743.37,-132.76 752.31,-138.45 753.9,-131.64"/>
</a>
</g>
</g>
<!-- Node17 -->
<g id="Node000017" class="node">
<title>Node17</title>
<g id="a_Node000017"><a xlink:href="IFormCommand_8hpp.html" target="_top" xlink:title=" ">
<polygon fill="white" stroke="#666666" points="880.75,-132 775.5,-132 775.5,-112 880.75,-112 880.75,-132"/>
<text text-anchor="middle" x="828.12" y="-118.5" font-family="Helvetica,sans-Serif" font-size="10.00">IFormCommand.hpp</text>
</a>
</g>
</g>
<!-- Node3&#45;&gt;Node17 -->
<g id="edge36_Node000003_Node000017" class="edge">
<title>Node3&#45;&gt;Node17</title>
<g id="a_edge36_Node000003_Node000017"><a xlink:title=" ">
<path fill="none" stroke="#63b8ff" d="M1210.79,-226.24C1177.9,-217.45 1118.71,-201.62 1068.12,-188 1000.4,-169.76 921.97,-148.49 873.7,-135.38"/>
<polygon fill="#63b8ff" stroke="#63b8ff" points="874.72,-132.03 864.15,-132.79 872.89,-138.79 874.72,-132.03"/>
</a>
</g>
</g>
<!-- Node18 -->
<g id="Node000018" class="node">
<title>Node18</title>
<g id="a_Node000018"><a xlink:href="IGlobalSlashCommand_8hpp.html" target="_top" xlink:title=" ">
<polygon fill="white" stroke="#666666" points="1533.75,-132 1398.5,-132 1398.5,-112 1533.75,-112 1533.75,-132"/>
<text text-anchor="middle" x="1466.12" y="-118.5" font-family="Helvetica,sans-Serif" font-size="10.00">IGlobalSlashCommand.hpp</text>
</a>
</g>
</g>
<!-- Node3&#45;&gt;Node18 -->
<g id="edge37_Node000003_Node000018" class="edge">
<title>Node3&#45;&gt;Node18</title>
<g id="a_edge37_Node000003_Node000018"><a xlink:title=" ">
<path fill="none" stroke="#63b8ff" d="M1255.73,-223.62C1296.05,-204.34 1388.45,-160.15 1436.25,-137.29"/>
<polygon fill="#63b8ff" stroke="#63b8ff" points="1437.69,-140.48 1445.2,-133.01 1434.67,-134.16 1437.69,-140.48"/>
</a>
</g>
</g>
<!-- Node20 -->
<g id="Node000020" class="node">
<title>Node20</title>
<g id="a_Node000020"><a xlink:href="IMemberCommand_8hpp.html" target="_top" xlink:title=" ">
<polygon fill="white" stroke="#666666" points="1017.12,-132 899.12,-132 899.12,-112 1017.12,-112 1017.12,-132"/>
<text text-anchor="middle" x="958.12" y="-118.5" font-family="Helvetica,sans-Serif" font-size="10.00">IMemberCommand.hpp</text>
</a>
</g>
</g>
<!-- Node3&#45;&gt;Node20 -->
<g id="edge38_Node000003_Node000020" class="edge">
<title>Node3&#45;&gt;Node20</title>
<g id="a_edge38_Node000003_Node000020"><a xlink:title=" ">
<path fill="none" stroke="#63b8ff" d="M1212.42,-223.62C1163.18,-204.14 1049.66,-159.22 992.43,-136.57"/>
<polygon fill="#63b8ff" stroke="#63b8ff" points="993.76,-133.34 983.17,-132.91 991.19,-139.85 993.76,-133.34"/>
</a>
</g>
</g>
<!-- Node21 -->
<g id="Node000021" class="node">
<title>Node21</title>
<g id="a_Node000021"><a xlink:href="IMessageCommand_8hpp.html" target="_top" xlink:title=" ">
<polygon fill="white" stroke="#666666" points="1157.38,-132 1034.88,-132 1034.88,-112 1157.38,-112 1157.38,-132"/>
<text text-anchor="middle" x="1096.12" y="-118.5" font-family="Helvetica,sans-Serif" font-size="10.00">IMessageCommand.hpp</text>
</a>
</g>
</g>
<!-- Node3&#45;&gt;Node21 -->
<g id="edge39_Node000003_Node000021" class="edge">
<title>Node3&#45;&gt;Node21</title>
<g id="a_edge39_Node000003_Node000021"><a xlink:title=" ">
<path fill="none" stroke="#63b8ff" d="M1224.19,-223.62C1200.32,-204.87 1146.46,-162.55 1116.76,-139.21"/>
<polygon fill="#63b8ff" stroke="#63b8ff" points="1119.25,-136.72 1109.22,-133.29 1114.92,-142.22 1119.25,-136.72"/>
</a>
</g>
</g>
<!-- Node22 -->
<g id="Node000022" class="node">
<title>Node22</title>
<g id="a_Node000022"><a xlink:href="IReactionCommand_8hpp.html" target="_top" xlink:title=" ">
<polygon fill="white" stroke="#666666" points="1297,-132 1175.25,-132 1175.25,-112 1297,-112 1297,-132"/>
<text text-anchor="middle" x="1236.12" y="-118.5" font-family="Helvetica,sans-Serif" font-size="10.00">IReactionCommand.hpp</text>
</a>
</g>
</g>
<!-- Node3&#45;&gt;Node22 -->
<g id="edge40_Node000003_Node000022" class="edge">
<title>Node3&#45;&gt;Node22</title>
<g id="a_edge40_Node000003_Node000022"><a xlink:title=" ">
<path fill="none" stroke="#63b8ff" d="M1236.12,-223.62C1236.12,-206.01 1236.12,-167.59 1236.12,-143.65"/>
<polygon fill="#63b8ff" stroke="#63b8ff" points="1239.63,-143.87 1236.13,-133.87 1232.63,-143.87 1239.63,-143.87"/>
</a>
</g>
</g>
<!-- Node23 -->
<g id="Node000023" class="node">
<title>Node23</title>
<g id="a_Node000023"><a xlink:href="IReady_8hpp.html" target="_top" xlink:title=" ">
<polygon fill="white" stroke="#666666" points="1380.88,-132 1315.38,-132 1315.38,-112 1380.88,-112 1380.88,-132"/>
<text text-anchor="middle" x="1348.12" y="-118.5" font-family="Helvetica,sans-Serif" font-size="10.00">IReady.hpp</text>
</a>
</g>
</g>
<!-- Node3&#45;&gt;Node23 -->
<g id="edge41_Node000003_Node000023" class="edge">
<title>Node3&#45;&gt;Node23</title>
<g id="a_edge41_Node000003_Node000023"><a xlink:title=" ">
<path fill="none" stroke="#63b8ff" d="M1245.67,-223.62C1264.52,-205.11 1306.74,-163.65 1330.68,-140.13"/>
<polygon fill="#63b8ff" stroke="#63b8ff" points="1332.84,-142.92 1337.52,-133.42 1327.93,-137.93 1332.84,-142.92"/>
</a>
</g>
</g>
<!-- Node24 -->
<g id="Node000024" class="node">
<title>Node24</title>
<g id="a_Node000024"><a xlink:title=" ">
<polygon fill="#e0e0e0" stroke="#999999" points="1502.5,-188 1467.75,-188 1467.75,-168 1502.5,-168 1502.5,-188"/>
<text text-anchor="middle" x="1485.12" y="-174.5" font-family="Helvetica,sans-Serif" font-size="10.00">map</text>
</a>
</g>
</g>
<!-- Node3&#45;&gt;Node24 -->
<g id="edge44_Node000003_Node000024" class="edge">
<title>Node3&#45;&gt;Node24</title>
<g id="a_edge44_Node000003_Node000024"><a xlink:title=" ">
<path fill="none" stroke="#63b8ff" d="M1261.45,-228.45C1302.24,-220.96 1384.92,-205.16 1454.12,-188 1454.94,-187.8 1455.77,-187.59 1456.6,-187.37"/>
<polygon fill="#63b8ff" stroke="#63b8ff" points="1457.31,-190.81 1466.03,-184.78 1455.46,-184.06 1457.31,-190.81"/>
</a>
</g>
</g>
<!-- Node25 -->
<g id="Node000025" class="node">
<title>Node25</title>
<g id="a_Node000025"><a xlink:title=" ">
<polygon fill="#e0e0e0" stroke="#999999" points="1571.75,-188 1520.5,-188 1520.5,-168 1571.75,-168 1571.75,-188"/>
<text text-anchor="middle" x="1546.12" y="-174.5" font-family="Helvetica,sans-Serif" font-size="10.00">memory</text>
</a>
</g>
</g>
<!-- Node3&#45;&gt;Node25 -->
<g id="edge45_Node000003_Node000025" class="edge">
<title>Node3&#45;&gt;Node25</title>
<g id="a_edge45_Node000003_Node000025"><a xlink:title=" ">
<path fill="none" stroke="#63b8ff" d="M1261.29,-229.65C1308.05,-223.27 1411.68,-208.35 1508.97,-188.29"/>
<polygon fill="#63b8ff" stroke="#63b8ff" points="1509.64,-191.72 1518.71,-186.25 1508.21,-184.87 1509.64,-191.72"/>
</a>
</g>
</g>
<!-- Node5 -->
<g id="Node000005" class="node">
<title>Node5</title>
<g id="a_Node000005"><a xlink:title=" ">
<polygon fill="#e0e0e0" stroke="#999999" points="519.5,-132 460.75,-132 460.75,-112 519.5,-112 519.5,-132"/>
<text text-anchor="middle" x="490.12" y="-118.5" font-family="Helvetica,sans-Serif" font-size="10.00">dpp/dpp.h</text>
</a>
</g>
</g>
<!-- Node4&#45;&gt;Node5 -->
<g id="edge4_Node000004_Node000005" class="edge">
<title>Node4&#45;&gt;Node5</title>
<g id="a_edge4_Node000004_Node000005"><a xlink:title=" ">
<path fill="none" stroke="#63b8ff" d="M799.87,-173.56C748.34,-167.12 635.48,-152.23 531,-132.43"/>
<polygon fill="#63b8ff" stroke="#63b8ff" points="531.91,-129.04 521.43,-130.6 530.59,-135.92 531.91,-129.04"/>
</a>
</g>
</g>
<!-- Node6 -->
<g id="Node000006" class="node">
<title>Node6</title>
<g id="a_Node000006"><a xlink:title=" ">
<polygon fill="#e0e0e0" stroke="#999999" points="628.62,-132 537.62,-132 537.62,-112 628.62,-112 628.62,-132"/>
<text text-anchor="middle" x="583.12" y="-118.5" font-family="Helvetica,sans-Serif" font-size="10.00">dpp/misc&#45;enum.h</text>
</a>
</g>
</g>
<!-- Node4&#45;&gt;Node6 -->
<g id="edge5_Node000004_Node000006" class="edge">
<title>Node4&#45;&gt;Node6</title>
<g id="a_edge5_Node000004_Node000006"><a xlink:title=" ">
<path fill="none" stroke="#63b8ff" d="M800.02,-170.81C760.41,-162.07 687.38,-145.98 637.08,-134.89"/>
<polygon fill="#63b8ff" stroke="#63b8ff" points="638.08,-131.53 627.56,-132.79 636.58,-138.37 638.08,-131.53"/>
</a>
</g>
</g>
<!-- Node4&#45;&gt;Node7 -->
<g id="edge6_Node000004_Node000007" class="edge">
<title>Node4&#45;&gt;Node7</title>
<g id="a_edge6_Node000004_Node000007"><a xlink:title=" ">
<path fill="none" stroke="#63b8ff" d="M799.83,-176.06C720.23,-173.11 487.48,-162.48 283.83,-132.02"/>
<polygon fill="#63b8ff" stroke="#63b8ff" points="284.53,-128.59 274.11,-130.55 283.47,-135.51 284.53,-128.59"/>
</a>
</g>
</g>
<!-- Node8 -->
<g id="Node000008" class="node">
<title>Node8</title>
<g id="a_Node000008"><a xlink:href="Database_8hpp.html" target="_top" xlink:title=" ">
<polygon fill="white" stroke="#666666" points="367.5,-132 290.75,-132 290.75,-112 367.5,-112 367.5,-132"/>
<text text-anchor="middle" x="329.12" y="-118.5" font-family="Helvetica,sans-Serif" font-size="10.00">Database.hpp</text>
</a>
</g>
</g>
<!-- Node4&#45;&gt;Node8 -->
<g id="edge7_Node000004_Node000008" class="edge">
<title>Node4&#45;&gt;Node8</title>
<g id="a_edge7_Node000004_Node000008"><a xlink:title=" ">
<path fill="none" stroke="#63b8ff" d="M799.87,-173.94C718.47,-165.13 482.72,-139.62 379.05,-128.4"/>
<polygon fill="#63b8ff" stroke="#63b8ff" points="379.49,-124.93 369.17,-127.33 378.74,-131.89 379.49,-124.93"/>
</a>
</g>
</g>
<!-- Node4&#45;&gt;Node11 -->
<g id="edge34_Node000004_Node000011" class="edge">
<title>Node4&#45;&gt;Node11</title>
<g id="a_edge34_Node000004_Node000011"><a xlink:title=" ">
<path fill="none" stroke="#63b8ff" d="M799.92,-175.97C723.45,-172.82 513.74,-161.64 452.12,-132 430.25,-121.48 411.23,-100.77 399.3,-85.54"/>
<polygon fill="#63b8ff" stroke="#63b8ff" points="402.22,-83.61 393.43,-77.7 396.62,-87.8 402.22,-83.61"/>
</a>
</g>
</g>
<!-- Node4&#45;&gt;Node14 -->
<g id="edge14_Node000004_Node000014" class="edge">
<title>Node4&#45;&gt;Node14</title>
<g id="a_edge14_Node000004_Node000014"><a xlink:title=" ">
<path fill="none" stroke="#63b8ff" d="M806.18,-167.59C786.42,-159.13 757.13,-146.58 734.66,-136.94"/>
<polygon fill="#63b8ff" stroke="#63b8ff" points="736.21,-133.8 725.63,-133.08 733.45,-140.23 736.21,-133.8"/>
</a>
</g>
</g>
<!-- Node4&#45;&gt;Node17 -->
<g id="edge17_Node000004_Node000017" class="edge">
<title>Node4&#45;&gt;Node17</title>
<g id="a_edge17_Node000004_Node000017"><a xlink:title=" ">
<path fill="none" stroke="#63b8ff" d="M828.12,-167.59C828.12,-161.01 828.12,-151.96 828.12,-143.73"/>
<polygon fill="#63b8ff" stroke="#63b8ff" points="831.63,-143.81 828.13,-133.81 824.63,-143.81 831.63,-143.81"/>
</a>
</g>
</g>
<!-- Node4&#45;&gt;Node18 -->
<g id="edge20_Node000004_Node000018" class="edge">
<title>Node4&#45;&gt;Node18</title>
<g id="a_edge20_Node000004_Node000018"><a xlink:title=" ">
<path fill="none" stroke="#63b8ff" d="M856.23,-175.13C936.99,-169.67 1176.94,-152.9 1386.94,-132.28"/>
<polygon fill="#63b8ff" stroke="#63b8ff" points="1387.07,-135.79 1396.68,-131.32 1386.38,-128.82 1387.07,-135.79"/>
</a>
</g>
</g>
<!-- Node4&#45;&gt;Node20 -->
<g id="edge25_Node000004_Node000020" class="edge">
<title>Node4&#45;&gt;Node20</title>
<g id="a_edge25_Node000004_Node000020"><a xlink:title=" ">
<path fill="none" stroke="#63b8ff" d="M850.77,-167.59C871.24,-159.09 901.64,-146.46 924.87,-136.81"/>
<polygon fill="#63b8ff" stroke="#63b8ff" points="926.01,-140.13 933.91,-133.06 923.33,-133.66 926.01,-140.13"/>
</a>
</g>
</g>
<!-- Node4&#45;&gt;Node21 -->
<g id="edge28_Node000004_Node000021" class="edge">
<title>Node4&#45;&gt;Node21</title>
<g id="a_edge28_Node000004_Node000021"><a xlink:title=" ">
<path fill="none" stroke="#63b8ff" d="M856.3,-171.32C899.17,-162.68 981.73,-146.05 1037.87,-134.74"/>
<polygon fill="#63b8ff" stroke="#63b8ff" points="1038.48,-138.19 1047.59,-132.78 1037.1,-131.32 1038.48,-138.19"/>
</a>
</g>
</g>
<!-- Node4&#45;&gt;Node22 -->
<g id="edge31_Node000004_Node000022" class="edge">
<title>Node4&#45;&gt;Node22</title>
<g id="a_edge31_Node000004_Node000022"><a xlink:title=" ">
<path fill="none" stroke="#63b8ff" d="M856.49,-173.25C919.4,-164.92 1072.26,-144.69 1163.67,-132.59"/>
<polygon fill="#63b8ff" stroke="#63b8ff" points="1164.1,-136.06 1173.55,-131.28 1163.18,-129.12 1164.1,-136.06"/>
</a>
</g>
</g>
<!-- Node9 -->
<g id="Node000009" class="node">
<title>Node9</title>
<g id="a_Node000009"><a xlink:title=" ">
<polygon fill="#e0e0e0" stroke="#999999" points="120.25,-76 72,-76 72,-56 120.25,-56 120.25,-76"/>
<text text-anchor="middle" x="96.12" y="-62.5" font-family="Helvetica,sans-Serif" font-size="10.00">cstddef</text>
</a>
</g>
</g>
<!-- Node8&#45;&gt;Node9 -->
<g id="edge8_Node000008_Node000009" class="edge">
<title>Node8&#45;&gt;Node9</title>
<g id="a_edge8_Node000008_Node000009"><a xlink:title=" ">
<path fill="none" stroke="#63b8ff" d="M290.39,-112.02C246.17,-101.78 174.46,-85.15 131.64,-75.23"/>
<polygon fill="#63b8ff" stroke="#63b8ff" points="132.64,-71.87 122.11,-73.02 131.06,-78.69 132.64,-71.87"/>
</a>
</g>
</g>
<!-- Node10 -->
<g id="Node000010" class="node">
<title>Node10</title>
<g id="a_Node000010"><a xlink:title=" ">
<polygon fill="#e0e0e0" stroke="#999999" points="317.62,-20 256.62,-20 256.62,0 317.62,0 317.62,-20"/>
<text text-anchor="middle" x="287.12" y="-6.5" font-family="Helvetica,sans-Serif" font-size="10.00">pqxx/pqxx</text>
</a>
</g>
</g>
<!-- Node8&#45;&gt;Node10 -->
<g id="edge9_Node000008_Node000010" class="edge">
<title>Node8&#45;&gt;Node10</title>
<g id="a_edge9_Node000008_Node000010"><a xlink:title=" ">
<path fill="none" stroke="#63b8ff" d="M326.96,-111.56C323.88,-98.74 317.77,-75.23 310.12,-56 306.69,-47.36 302.15,-38.15 298.02,-30.34"/>
<polygon fill="#63b8ff" stroke="#63b8ff" points="301.19,-28.84 293.32,-21.74 295.05,-32.19 301.19,-28.84"/>
</a>
</g>
</g>
<!-- Node8&#45;&gt;Node11 -->
<g id="edge10_Node000008_Node000011" class="edge">
<title>Node8&#45;&gt;Node11</title>
<g id="a_edge10_Node000008_Node000011"><a xlink:title=" ">
<path fill="none" stroke="#63b8ff" d="M339.05,-111.59C347.06,-104.01 358.54,-93.13 368.16,-84.02"/>
<polygon fill="#63b8ff" stroke="#63b8ff" points="370.36,-86.76 375.21,-77.34 365.54,-81.68 370.36,-86.76"/>
</a>
</g>
</g>
<!-- Node8&#45;&gt;Node12 -->
<g id="edge11_Node000008_Node000012" class="edge">
<title>Node8&#45;&gt;Node12</title>
<g id="a_edge11_Node000008_Node000012"><a xlink:title=" ">
<path fill="none" stroke="#63b8ff" d="M367.88,-117.88C392.09,-116 423.91,-113.66 452.12,-112 837.69,-89.34 1306.33,-72.5 1433.16,-68.12"/>
<polygon fill="#63b8ff" stroke="#63b8ff" points="1432.96,-71.63 1442.84,-67.79 1432.72,-64.63 1432.96,-71.63"/>
</a>
</g>
</g>
<!-- Node13 -->
<g id="Node000013" class="node">
<title>Node13</title>
<g id="a_Node000013"><a xlink:href="RowDTOAdapter_8hpp.html" target="_top" xlink:title=" ">
<polygon fill="white" stroke="#666666" points="301,-76 191.25,-76 191.25,-56 301,-56 301,-76"/>
<text text-anchor="middle" x="246.12" y="-62.5" font-family="Helvetica,sans-Serif" font-size="10.00">RowDTOAdapter.hpp</text>
</a>
</g>
</g>
<!-- Node8&#45;&gt;Node13 -->
<g id="edge12_Node000008_Node000013" class="edge">
<title>Node8&#45;&gt;Node13</title>
<g id="a_edge12_Node000008_Node000013"><a xlink:title=" ">
<path fill="none" stroke="#63b8ff" d="M314.67,-111.59C302.37,-103.59 284.45,-91.93 270.02,-82.54"/>
<polygon fill="#63b8ff" stroke="#63b8ff" points="272.25,-79.82 261.96,-77.3 268.44,-85.69 272.25,-79.82"/>
</a>
</g>
</g>
<!-- Node13&#45;&gt;Node10 -->
<g id="edge13_Node000013_Node000010" class="edge">
<title>Node13&#45;&gt;Node10</title>
<g id="a_edge13_Node000013_Node000010"><a xlink:title=" ">
<path fill="none" stroke="#63b8ff" d="M253.27,-55.59C258.73,-48.39 266.45,-38.23 273.13,-29.43"/>
<polygon fill="#63b8ff" stroke="#63b8ff" points="275.89,-31.58 279.15,-21.5 270.32,-27.35 275.89,-31.58"/>
</a>
</g>
</g>
<!-- Node15 -->
<g id="Node000015" class="node">
<title>Node15</title>
<g id="a_Node000015"><a xlink:title=" ">
<polygon fill="#e0e0e0" stroke="#999999" points="1083.25,-76 1011,-76 1011,-56 1083.25,-56 1083.25,-76"/>
<text text-anchor="middle" x="1047.12" y="-62.5" font-family="Helvetica,sans-Serif" font-size="10.00">dpp/cluster.h</text>
</a>
</g>
</g>
<!-- Node14&#45;&gt;Node15 -->
<g id="edge15_Node000014_Node000015" class="edge">
<title>Node14&#45;&gt;Node15</title>
<g id="a_edge15_Node000014_Node000015"><a xlink:title=" ">
<path fill="none" stroke="#63b8ff" d="M757.94,-112.26C825.08,-101.75 936.63,-84.29 999.77,-74.41"/>
<polygon fill="#63b8ff" stroke="#63b8ff" points="1000.14,-77.9 1009.47,-72.89 999.05,-70.98 1000.14,-77.9"/>
</a>
</g>
</g>
<!-- Node16 -->
<g id="Node000016" class="node">
<title>Node16</title>
<g id="a_Node000016"><a xlink:title=" ">
<polygon fill="#e0e0e0" stroke="#999999" points="1189.12,-76 1101.12,-76 1101.12,-56 1189.12,-56 1189.12,-76"/>
<text text-anchor="middle" x="1145.12" y="-62.5" font-family="Helvetica,sans-Serif" font-size="10.00">dpp/dispatcher.h</text>
</a>
</g>
</g>
<!-- Node14&#45;&gt;Node16 -->
<g id="edge16_Node000014_Node000016" class="edge">
<title>Node14&#45;&gt;Node16</title>
<g id="a_edge16_Node000014_Node000016"><a xlink:title=" ">
<path fill="none" stroke="#63b8ff" d="M757.96,-113.05C760.72,-112.69 763.45,-112.34 766.12,-112 907.23,-94.29 945.89,-96.11 1089.9,-76.24"/>
<polygon fill="#63b8ff" stroke="#63b8ff" points="1089.99,-79.76 1099.41,-74.92 1089.02,-72.83 1089.99,-79.76"/>
</a>
</g>
</g>
<!-- Node17&#45;&gt;Node15 -->
<g id="edge18_Node000017_Node000015" class="edge">
<title>Node17&#45;&gt;Node15</title>
<g id="a_edge18_Node000017_Node000015"><a xlink:title=" ">
<path fill="none" stroke="#63b8ff" d="M866.52,-111.53C903.56,-102.4 959.71,-88.55 999.56,-78.73"/>
<polygon fill="#63b8ff" stroke="#63b8ff" points="1000.25,-82.16 1009.13,-76.37 998.58,-75.37 1000.25,-82.16"/>
</a>
</g>
</g>
<!-- Node17&#45;&gt;Node16 -->
<g id="edge19_Node000017_Node000016" class="edge">
<title>Node17&#45;&gt;Node16</title>
<g id="a_edge19_Node000017_Node000016"><a xlink:title=" ">
<path fill="none" stroke="#63b8ff" d="M881.18,-111.96C939.02,-102.11 1031.13,-86.42 1089.83,-76.42"/>
<polygon fill="#63b8ff" stroke="#63b8ff" points="1090.34,-79.88 1099.61,-74.75 1089.16,-72.98 1090.34,-79.88"/>
</a>
</g>
</g>
<!-- Node18&#45;&gt;Node12 -->
<g id="edge24_Node000018_Node000012" class="edge">
<title>Node18&#45;&gt;Node12</title>
<g id="a_edge24_Node000018_Node000012"><a xlink:title=" ">
<path fill="none" stroke="#63b8ff" d="M1466.12,-111.59C1466.12,-105.01 1466.12,-95.96 1466.12,-87.73"/>
<polygon fill="#63b8ff" stroke="#63b8ff" points="1469.63,-87.81 1466.13,-77.81 1462.63,-87.81 1469.63,-87.81"/>
</a>
</g>
</g>
<!-- Node18&#45;&gt;Node15 -->
<g id="edge22_Node000018_Node000015" class="edge">
<title>Node18&#45;&gt;Node15</title>
<g id="a_edge22_Node000018_Node000015"><a xlink:title=" ">
<path fill="none" stroke="#63b8ff" d="M1398.36,-112.91C1304.19,-101.67 1140.79,-82.12 1094.74,-76.09"/>
<polygon fill="#63b8ff" stroke="#63b8ff" points="1095.32,-72.63 1084.93,-74.72 1094.35,-79.57 1095.32,-72.63"/>
</a>
</g>
</g>
<!-- Node18&#45;&gt;Node16 -->
<g id="edge23_Node000018_Node000016" class="edge">
<title>Node18&#45;&gt;Node16</title>
<g id="a_edge23_Node000018_Node000016"><a xlink:title=" ">
<path fill="none" stroke="#63b8ff" d="M1409.84,-111.53C1351.01,-101.64 1259.27,-86.2 1200.7,-76.35"/>
<polygon fill="#63b8ff" stroke="#63b8ff" points="1201.39,-72.92 1190.94,-74.71 1200.22,-79.82 1201.39,-72.92"/>
</a>
</g>
</g>
<!-- Node18&#45;&gt;Node19 -->
<g id="edge21_Node000018_Node000019" class="edge">
<title>Node18&#45;&gt;Node19</title>
<g id="a_edge21_Node000018_Node000019"><a xlink:title=" ">
<path fill="none" stroke="#63b8ff" d="M1484.76,-111.59C1501.16,-103.32 1525.28,-91.14 1544.19,-81.6"/>
<polygon fill="#63b8ff" stroke="#63b8ff" points="1545.64,-84.79 1552.99,-77.16 1542.49,-78.54 1545.64,-84.79"/>
</a>
</g>
</g>
<!-- Node20&#45;&gt;Node15 -->
<g id="edge26_Node000020_Node000015" class="edge">
<title>Node20&#45;&gt;Node15</title>
<g id="a_edge26_Node000020_Node000015"><a xlink:title=" ">
<path fill="none" stroke="#63b8ff" d="M973.63,-111.59C986.95,-103.51 1006.4,-91.71 1021.95,-82.27"/>
<polygon fill="#63b8ff" stroke="#63b8ff" points="1023.47,-85.44 1030.21,-77.26 1019.84,-79.46 1023.47,-85.44"/>
</a>
</g>
</g>
<!-- Node20&#45;&gt;Node16 -->
<g id="edge27_Node000020_Node000016" class="edge">
<title>Node20&#45;&gt;Node16</title>
<g id="a_edge27_Node000020_Node000016"><a xlink:title=" ">
<path fill="none" stroke="#63b8ff" d="M990.7,-111.59C1021.35,-102.74 1067.47,-89.43 1101.33,-79.65"/>
<polygon fill="#63b8ff" stroke="#63b8ff" points="1102.21,-83.04 1110.84,-76.9 1100.27,-76.31 1102.21,-83.04"/>
</a>
</g>
</g>
<!-- Node21&#45;&gt;Node15 -->
<g id="edge29_Node000021_Node000015" class="edge">
<title>Node21&#45;&gt;Node15</title>
<g id="a_edge29_Node000021_Node000015"><a xlink:title=" ">
<path fill="none" stroke="#63b8ff" d="M1087.59,-111.59C1080.84,-104.16 1071.24,-93.58 1063.08,-84.58"/>
<polygon fill="#63b8ff" stroke="#63b8ff" points="1065.89,-82.47 1056.58,-77.42 1060.71,-87.18 1065.89,-82.47"/>
</a>
</g>
</g>
<!-- Node21&#45;&gt;Node16 -->
<g id="edge30_Node000021_Node000016" class="edge">
<title>Node21&#45;&gt;Node16</title>
<g id="a_edge30_Node000021_Node000016"><a xlink:title=" ">
<path fill="none" stroke="#63b8ff" d="M1104.66,-111.59C1111.41,-104.16 1121.01,-93.58 1129.17,-84.58"/>
<polygon fill="#63b8ff" stroke="#63b8ff" points="1131.54,-87.18 1135.67,-77.42 1126.36,-82.47 1131.54,-87.18"/>
</a>
</g>
</g>
<!-- Node22&#45;&gt;Node15 -->
<g id="edge32_Node000022_Node000015" class="edge">
<title>Node22&#45;&gt;Node15</title>
<g id="a_edge32_Node000022_Node000015"><a xlink:title=" ">
<path fill="none" stroke="#63b8ff" d="M1203.2,-111.59C1172.09,-102.71 1125.21,-89.31 1090.95,-79.52"/>
<polygon fill="#63b8ff" stroke="#63b8ff" points="1092.34,-76.28 1081.76,-76.9 1090.41,-83.01 1092.34,-76.28"/>
</a>
</g>
</g>
<!-- Node22&#45;&gt;Node16 -->
<g id="edge33_Node000022_Node000016" class="edge">
<title>Node22&#45;&gt;Node16</title>
<g id="a_edge33_Node000022_Node000016"><a xlink:title=" ">
<path fill="none" stroke="#63b8ff" d="M1220.27,-111.59C1206.66,-103.51 1186.76,-91.71 1170.86,-82.27"/>
<polygon fill="#63b8ff" stroke="#63b8ff" points="1172.79,-79.35 1162.4,-77.25 1169.22,-85.37 1172.79,-79.35"/>
</a>
</g>
</g>
<!-- Node23&#45;&gt;Node15 -->
<g id="edge42_Node000023_Node000015" class="edge">
<title>Node23&#45;&gt;Node15</title>
<g id="a_edge42_Node000023_Node000015"><a xlink:title=" ">
<path fill="none" stroke="#63b8ff" d="M1315.14,-113.79C1312.09,-113.16 1309.05,-112.56 1306.12,-112 1214.91,-94.56 1188.89,-93.52 1094.66,-76.42"/>
<polygon fill="#63b8ff" stroke="#63b8ff" points="1095.41,-73 1084.94,-74.64 1094.15,-79.88 1095.41,-73"/>
</a>
</g>
</g>
<!-- Node23&#45;&gt;Node16 -->
<g id="edge43_Node000023_Node000016" class="edge">
<title>Node23&#45;&gt;Node16</title>
<g id="a_edge43_Node000023_Node000016"><a xlink:title=" ">
<path fill="none" stroke="#63b8ff" d="M1315.06,-112.2C1281.42,-103.25 1229,-89.31 1191.28,-79.28"/>
<polygon fill="#63b8ff" stroke="#63b8ff" points="1192.59,-76.01 1182.03,-76.82 1190.79,-82.77 1192.59,-76.01"/>
</a>
</g>
</g>
<!-- Node29 -->
<g id="Node000029" class="node">
<title>Node29</title>
<g id="a_Node000029"><a xlink:href="IRepository_8hpp.html" target="_top" xlink:title=" ">
<polygon fill="white" stroke="#666666" points="84.25,-132 0,-132 0,-112 84.25,-112 84.25,-132"/>
<text text-anchor="middle" x="42.12" y="-118.5" font-family="Helvetica,sans-Serif" font-size="10.00">IRepository.hpp</text>
</a>
</g>
</g>
<!-- Node28&#45;&gt;Node29 -->
<g id="edge54_Node000028_Node000029" class="edge">
<title>Node28&#45;&gt;Node29</title>
<g id="a_edge54_Node000028_Node000029"><a xlink:title=" ">
<path fill="none" stroke="#63b8ff" d="M129.66,-167.59C113.42,-159.32 89.52,-147.14 70.79,-137.6"/>
<polygon fill="#63b8ff" stroke="#63b8ff" points="72.58,-134.59 62.08,-133.17 69.4,-140.82 72.58,-134.59"/>
</a>
</g>
</g>
<!-- Node30 -->
<g id="Node000030" class="node">
<title>Node30</title>
<g id="a_Node000030"><a xlink:href="MemberDTO_8hpp.html" target="_top" xlink:title=" ">
<polygon fill="white" stroke="#666666" points="193.62,-132 102.62,-132 102.62,-112 193.62,-112 193.62,-132"/>
<text text-anchor="middle" x="148.12" y="-118.5" font-family="Helvetica,sans-Serif" font-size="10.00">MemberDTO.hpp</text>
</a>
</g>
</g>
<!-- Node28&#45;&gt;Node30 -->
<g id="edge56_Node000028_Node000030" class="edge">
<title>Node28&#45;&gt;Node30</title>
<g id="a_edge56_Node000028_Node000030"><a xlink:title=" ">
<path fill="none" stroke="#63b8ff" d="M148.12,-167.59C148.12,-161.01 148.12,-151.96 148.12,-143.73"/>
<polygon fill="#63b8ff" stroke="#63b8ff" points="151.63,-143.81 148.13,-133.81 144.63,-143.81 151.63,-143.81"/>
</a>
</g>
</g>
<!-- Node29&#45;&gt;Node9 -->
<g id="edge55_Node000029_Node000009" class="edge">
<title>Node29&#45;&gt;Node9</title>
<g id="a_edge55_Node000029_Node000009"><a xlink:title=" ">
<path fill="none" stroke="#63b8ff" d="M51.53,-111.59C59.04,-104.08 69.77,-93.35 78.82,-84.3"/>
<polygon fill="#63b8ff" stroke="#63b8ff" points="81.16,-86.91 85.76,-77.37 76.21,-81.96 81.16,-86.91"/>
</a>
</g>
</g>
<!-- Node30&#45;&gt;Node11 -->
<g id="edge58_Node000030_Node000011" class="edge">
<title>Node30&#45;&gt;Node11</title>
<g id="a_edge58_Node000030_Node000011"><a xlink:title=" ">
<path fill="none" stroke="#63b8ff" d="M189.85,-111.53C236.89,-100.86 312.31,-83.75 354.65,-74.14"/>
<polygon fill="#63b8ff" stroke="#63b8ff" points="355.21,-77.6 364.19,-71.98 353.66,-70.78 355.21,-77.6"/>
</a>
</g>
</g>
<!-- Node30&#45;&gt;Node13 -->
<g id="edge57_Node000030_Node000013" class="edge">
<title>Node30&#45;&gt;Node13</title>
<g id="a_edge57_Node000030_Node000013"><a xlink:title=" ">
<path fill="none" stroke="#63b8ff" d="M165.2,-111.59C180,-103.44 201.69,-91.48 218.89,-82"/>
<polygon fill="#63b8ff" stroke="#63b8ff" points="220.53,-85.1 227.6,-77.21 217.15,-78.97 220.53,-85.1"/>
</a>
</g>
</g>
</g>
</svg>
