<?xml version="1.0" encoding="UTF-8" standalone="no"?>
<!DOCTYPE svg PUBLIC "-//W3C//DTD SVG 1.1//EN"
 "http://www.w3.org/Graphics/SVG/1.1/DTD/svg11.dtd">
<!-- Generated by graphviz version 12.2.1 (0)
 -->
<!-- Title: src/bot_library/restapi/include/NotFoundHandler.hpp Pages: 1 -->
<svg width="844pt" height="208pt"
 viewBox="0.00 0.00 843.75 208.00" xmlns="http://www.w3.org/2000/svg" xmlns:xlink="http://www.w3.org/1999/xlink">
<g id="graph0" class="graph" transform="scale(1 1) rotate(0) translate(4 204)">
<title>src/bot_library/restapi/include/NotFoundHandler.hpp</title>
<!-- Node1 -->
<g id="Node000001" class="node">
<title>Node1</title>
<g id="a_Node000001"><a xlink:title=" ">
<polygon fill="#999999" stroke="#666666" points="398.75,-200 250.75,-200 250.75,-168 398.75,-168 398.75,-200"/>
<text text-anchor="start" x="258.75" y="-186.5" font-family="Helvetica,sans-Serif" font-size="10.00">src/bot_library/restapi</text>
<text text-anchor="middle" x="324.75" y="-174.5" font-family="Helvetica,sans-Serif" font-size="10.00">/include/NotFoundHandler.hpp</text>
</a>
</g>
</g>
<!-- Node2 -->
<g id="Node000002" class="node">
<title>Node2</title>
<g id="a_Node000002"><a xlink:title=" ">
<polygon fill="#e0e0e0" stroke="#999999" points="338.38,-132 173.12,-132 173.12,-112 338.38,-112 338.38,-132"/>
<text text-anchor="middle" x="255.75" y="-118.5" font-family="Helvetica,sans-Serif" font-size="10.00">Poco/Net/HTTPRequestHandler.h</text>
</a>
</g>
</g>
<!-- Node1&#45;&gt;Node2 -->
<g id="edge1_Node000001_Node000002" class="edge">
<title>Node1&#45;&gt;Node2</title>
<g id="a_edge1_Node000001_Node000002"><a xlink:title=" ">
<path fill="none" stroke="#63b8ff" d="M306.98,-167.55C297.2,-159.04 285.05,-148.48 275.03,-139.77"/>
<polygon fill="#63b8ff" stroke="#63b8ff" points="277.55,-137.32 267.71,-133.4 272.96,-142.6 277.55,-137.32"/>
</a>
</g>
</g>
<!-- Node3 -->
<g id="Node000003" class="node">
<title>Node3</title>
<g id="a_Node000003"><a xlink:href="AuthUtils_8hpp.html" target="_top" xlink:title=" ">
<polygon fill="white" stroke="#666666" points="431.38,-132 356.12,-132 356.12,-112 431.38,-112 431.38,-132"/>
<text text-anchor="middle" x="393.75" y="-118.5" font-family="Helvetica,sans-Serif" font-size="10.00">AuthUtils.hpp</text>
</a>
</g>
</g>
<!-- Node1&#45;&gt;Node3 -->
<g id="edge2_Node000001_Node000003" class="edge">
<title>Node1&#45;&gt;Node3</title>
<g id="a_edge2_Node000001_Node000003"><a xlink:title=" ">
<path fill="none" stroke="#63b8ff" d="M342.52,-167.55C352.3,-159.04 364.45,-148.48 374.47,-139.77"/>
<polygon fill="#63b8ff" stroke="#63b8ff" points="376.54,-142.6 381.79,-133.4 371.95,-137.32 376.54,-142.6"/>
</a>
</g>
</g>
<!-- Node4 -->
<g id="Node000004" class="node">
<title>Node4</title>
<g id="a_Node000004"><a xlink:title=" ">
<polygon fill="#e0e0e0" stroke="#999999" points="131.5,-76 0,-76 0,-56 131.5,-56 131.5,-76"/>
<text text-anchor="middle" x="65.75" y="-62.5" font-family="Helvetica,sans-Serif" font-size="10.00">Poco/HexBinaryEncoder.h</text>
</a>
</g>
</g>
<!-- Node3&#45;&gt;Node4 -->
<g id="edge3_Node000003_Node000004" class="edge">
<title>Node3&#45;&gt;Node4</title>
<g id="a_edge3_Node000003_Node000004"><a xlink:title=" ">
<path fill="none" stroke="#63b8ff" d="M356.11,-113.53C353.29,-113 350.47,-112.48 347.75,-112 277.5,-99.53 197.12,-86.86 140.2,-78.15"/>
<polygon fill="#63b8ff" stroke="#63b8ff" points="141.05,-74.74 130.63,-76.69 139.99,-81.66 141.05,-74.74"/>
</a>
</g>
</g>
<!-- Node5 -->
<g id="Node000005" class="node">
<title>Node5</title>
<g id="a_Node000005"><a xlink:title=" ">
<polygon fill="#e0e0e0" stroke="#999999" points="251.5,-76 150,-76 150,-56 251.5,-56 251.5,-76"/>
<text text-anchor="middle" x="200.75" y="-62.5" font-family="Helvetica,sans-Serif" font-size="10.00">Poco/JWT/Signer.h</text>
</a>
</g>
</g>
<!-- Node3&#45;&gt;Node5 -->
<g id="edge4_Node000003_Node000005" class="edge">
<title>Node3&#45;&gt;Node5</title>
<g id="a_edge4_Node000003_Node000005"><a xlink:title=" ">
<path fill="none" stroke="#63b8ff" d="M360.13,-111.59C328.36,-102.71 280.49,-89.31 245.5,-79.52"/>
<polygon fill="#63b8ff" stroke="#63b8ff" points="246.66,-76.21 236.09,-76.89 244.78,-82.95 246.66,-76.21"/>
</a>
</g>
</g>
<!-- Node6 -->
<g id="Node000006" class="node">
<title>Node6</title>
<g id="a_Node000006"><a xlink:title=" ">
<polygon fill="#e0e0e0" stroke="#999999" points="369.75,-76 269.75,-76 269.75,-56 369.75,-56 369.75,-76"/>
<text text-anchor="middle" x="319.75" y="-62.5" font-family="Helvetica,sans-Serif" font-size="10.00">Poco/JWT/Token.h</text>
</a>
</g>
</g>
<!-- Node3&#45;&gt;Node6 -->
<g id="edge5_Node000003_Node000006" class="edge">
<title>Node3&#45;&gt;Node6</title>
<g id="a_edge5_Node000003_Node000006"><a xlink:title=" ">
<path fill="none" stroke="#63b8ff" d="M380.86,-111.59C370.04,-103.7 354.34,-92.24 341.56,-82.92"/>
<polygon fill="#63b8ff" stroke="#63b8ff" points="343.86,-80.26 333.71,-77.19 339.73,-85.91 343.86,-80.26"/>
</a>
</g>
</g>
<!-- Node7 -->
<g id="Node000007" class="node">
<title>Node7</title>
<g id="a_Node000007"><a xlink:title=" ">
<polygon fill="#e0e0e0" stroke="#999999" points="547.75,-76 387.75,-76 387.75,-56 547.75,-56 547.75,-76"/>
<text text-anchor="middle" x="467.75" y="-62.5" font-family="Helvetica,sans-Serif" font-size="10.00">Poco/Net/HTTPServerRequest.h</text>
</a>
</g>
</g>
<!-- Node3&#45;&gt;Node7 -->
<g id="edge6_Node000003_Node000007" class="edge">
<title>Node3&#45;&gt;Node7</title>
<g id="a_edge6_Node000003_Node000007"><a xlink:title=" ">
<path fill="none" stroke="#63b8ff" d="M406.64,-111.59C417.46,-103.7 433.16,-92.24 445.94,-82.92"/>
<polygon fill="#63b8ff" stroke="#63b8ff" points="447.77,-85.91 453.79,-77.19 443.64,-80.26 447.77,-85.91"/>
</a>
</g>
</g>
<!-- Node8 -->
<g id="Node000008" class="node">
<title>Node8</title>
<g id="a_Node000008"><a xlink:title=" ">
<polygon fill="#e0e0e0" stroke="#999999" points="671.75,-76 565.75,-76 565.75,-56 671.75,-56 671.75,-76"/>
<text text-anchor="middle" x="618.75" y="-62.5" font-family="Helvetica,sans-Serif" font-size="10.00">Poco/SHA2Engine.h</text>
</a>
</g>
</g>
<!-- Node3&#45;&gt;Node8 -->
<g id="edge7_Node000003_Node000008" class="edge">
<title>Node3&#45;&gt;Node8</title>
<g id="a_edge7_Node000003_Node000008"><a xlink:title=" ">
<path fill="none" stroke="#63b8ff" d="M431.66,-111.9C469.29,-102.87 527.18,-88.98 568.6,-79.04"/>
<polygon fill="#63b8ff" stroke="#63b8ff" points="569.17,-82.5 578.07,-76.76 567.53,-75.69 569.17,-82.5"/>
</a>
</g>
</g>
<!-- Node9 -->
<g id="Node000009" class="node">
<title>Node9</title>
<g id="a_Node000009"><a xlink:href="Secrets_8hpp.html" target="_top" xlink:title=" ">
<polygon fill="white" stroke="#666666" points="758,-76 689.5,-76 689.5,-56 758,-56 758,-76"/>
<text text-anchor="middle" x="723.75" y="-62.5" font-family="Helvetica,sans-Serif" font-size="10.00">Secrets.hpp</text>
</a>
</g>
</g>
<!-- Node3&#45;&gt;Node9 -->
<g id="edge8_Node000003_Node000009" class="edge">
<title>Node3&#45;&gt;Node9</title>
<g id="a_edge8_Node000003_Node000009"><a xlink:title=" ">
<path fill="none" stroke="#63b8ff" d="M431.46,-115.71C484.33,-108.16 583.75,-93.46 677.89,-76.45"/>
<polygon fill="#63b8ff" stroke="#63b8ff" points="678.35,-79.93 687.56,-74.69 677.09,-73.04 678.35,-79.93"/>
</a>
</g>
</g>
<!-- Node10 -->
<g id="Node000010" class="node">
<title>Node10</title>
<g id="a_Node000010"><a xlink:title=" ">
<polygon fill="#e0e0e0" stroke="#999999" points="651.88,-20 543.62,-20 543.62,0 651.88,0 651.88,-20"/>
<text text-anchor="middle" x="597.75" y="-6.5" font-family="Helvetica,sans-Serif" font-size="10.00">Poco/JSON/Object.h</text>
</a>
</g>
</g>
<!-- Node9&#45;&gt;Node10 -->
<g id="edge9_Node000009_Node000010" class="edge">
<title>Node9&#45;&gt;Node10</title>
<g id="a_edge9_Node000009_Node000010"><a xlink:title=" ">
<path fill="none" stroke="#63b8ff" d="M701.8,-55.59C682.05,-47.13 652.76,-34.58 630.28,-24.94"/>
<polygon fill="#63b8ff" stroke="#63b8ff" points="631.83,-21.8 621.26,-21.08 629.07,-28.23 631.83,-21.8"/>
</a>
</g>
</g>
<!-- Node11 -->
<g id="Node000011" class="node">
<title>Node11</title>
<g id="a_Node000011"><a xlink:title=" ">
<polygon fill="#e0e0e0" stroke="#999999" points="777.88,-20 669.62,-20 669.62,0 777.88,0 777.88,-20"/>
<text text-anchor="middle" x="723.75" y="-6.5" font-family="Helvetica,sans-Serif" font-size="10.00">Poco/JSON/Parser.h</text>
</a>
</g>
</g>
<!-- Node9&#45;&gt;Node11 -->
<g id="edge10_Node000009_Node000011" class="edge">
<title>Node9&#45;&gt;Node11</title>
<g id="a_edge10_Node000009_Node000011"><a xlink:title=" ">
<path fill="none" stroke="#63b8ff" d="M723.75,-55.59C723.75,-49.01 723.75,-39.96 723.75,-31.73"/>
<polygon fill="#63b8ff" stroke="#63b8ff" points="727.25,-31.81 723.75,-21.81 720.25,-31.81 727.25,-31.81"/>
</a>
</g>
</g>
<!-- Node12 -->
<g id="Node000012" class="node">
<title>Node12</title>
<g id="a_Node000012"><a xlink:title=" ">
<polygon fill="#e0e0e0" stroke="#999999" points="835.75,-20 795.75,-20 795.75,0 835.75,0 835.75,-20"/>
<text text-anchor="middle" x="815.75" y="-6.5" font-family="Helvetica,sans-Serif" font-size="10.00">string</text>
</a>
</g>
</g>
<!-- Node9&#45;&gt;Node12 -->
<g id="edge11_Node000009_Node000012" class="edge">
<title>Node9&#45;&gt;Node12</title>
<g id="a_edge11_Node000009_Node000012"><a xlink:title=" ">
<path fill="none" stroke="#63b8ff" d="M739.78,-55.59C753.54,-47.51 773.65,-35.71 789.73,-26.27"/>
<polygon fill="#63b8ff" stroke="#63b8ff" points="791.44,-29.33 798.29,-21.25 787.9,-23.29 791.44,-29.33"/>
</a>
</g>
</g>
</g>
</svg>
