<?xml version="1.0" encoding="UTF-8" standalone="no"?>
<!DOCTYPE svg PUBLIC "-//W3C//DTD SVG 1.1//EN"
 "http://www.w3.org/Graphics/SVG/1.1/DTD/svg11.dtd">
<!-- Generated by graphviz version 12.1.2 (0)
 -->
<!-- Title: src/bot_library/commands/notification/repositories/NotificationRepository.hpp Pages: 1 -->
<svg width="532pt" height="132pt"
 viewBox="0.00 0.00 531.62 132.00" xmlns="http://www.w3.org/2000/svg" xmlns:xlink="http://www.w3.org/1999/xlink">
<g id="graph0" class="graph" transform="scale(1 1) rotate(0) translate(4 128)">
<title>src/bot_library/commands/notification/repositories/NotificationRepository.hpp</title>
<!-- Node1 -->
<g id="Node000001" class="node">
<title>Node1</title>
<g id="a_Node000001"><a xlink:title=" ">
<polygon fill="#999999" stroke="#666666" points="339.62,-124 205.88,-124 205.88,-80 339.62,-80 339.62,-124"/>
<text text-anchor="start" x="213.88" y="-110.5" font-family="Helvetica,sans-Serif" font-size="10.00">src/bot_library/commands</text>
<text text-anchor="start" x="213.88" y="-98.5" font-family="Helvetica,sans-Serif" font-size="10.00">/notification/repositories</text>
<text text-anchor="middle" x="272.75" y="-86.5" font-family="Helvetica,sans-Serif" font-size="10.00">/NotificationRepository.hpp</text>
</a>
</g>
</g>
<!-- Node2 -->
<g id="Node000002" class="node">
<title>Node2</title>
<g id="a_Node000002"><a xlink:href="RemoveNotificationCommand_8cpp.html" target="_top" xlink:title=" ">
<polygon fill="white" stroke="#666666" points="155.5,-44 0,-44 0,0 155.5,0 155.5,-44"/>
<text text-anchor="start" x="8" y="-30.5" font-family="Helvetica,sans-Serif" font-size="10.00">src/bot_library/commands</text>
<text text-anchor="start" x="8" y="-18.5" font-family="Helvetica,sans-Serif" font-size="10.00">/notification/RemoveNotification</text>
<text text-anchor="middle" x="77.75" y="-6.5" font-family="Helvetica,sans-Serif" font-size="10.00">Command.cpp</text>
</a>
</g>
</g>
<!-- Node1&#45;&gt;Node2 -->
<g id="edge1_Node000001_Node000002" class="edge">
<title>Node1&#45;&gt;Node2</title>
<g id="a_edge1_Node000001_Node000002"><a xlink:title=" ">
<path fill="none" stroke="#63b8ff" d="M208.68,-75.37C183.59,-65.33 155.13,-53.95 131.17,-44.37"/>
<polygon fill="#63b8ff" stroke="#63b8ff" points="207.22,-78.56 217.8,-79.02 209.82,-72.06 207.22,-78.56"/>
</a>
</g>
</g>
<!-- Node3 -->
<g id="Node000003" class="node">
<title>Node3</title>
<g id="a_Node000003"><a xlink:href="SetNotificationCommand_8cpp.html" target="_top" xlink:title=" ">
<polygon fill="white" stroke="#666666" points="371.5,-38 174,-38 174,-6 371.5,-6 371.5,-38"/>
<text text-anchor="start" x="182" y="-24.5" font-family="Helvetica,sans-Serif" font-size="10.00">src/bot_library/commands</text>
<text text-anchor="middle" x="272.75" y="-12.5" font-family="Helvetica,sans-Serif" font-size="10.00">/notification/SetNotificationCommand.cpp</text>
</a>
</g>
</g>
<!-- Node1&#45;&gt;Node3 -->
<g id="edge2_Node000001_Node000003" class="edge">
<title>Node1&#45;&gt;Node3</title>
<g id="a_edge2_Node000001_Node000003"><a xlink:title=" ">
<path fill="none" stroke="#63b8ff" d="M272.75,-68.28C272.75,-57.8 272.75,-46.7 272.75,-38.11"/>
<polygon fill="#63b8ff" stroke="#63b8ff" points="269.25,-68.17 272.75,-78.17 276.25,-68.17 269.25,-68.17"/>
</a>
</g>
</g>
<!-- Node4 -->
<g id="Node000004" class="node">
<title>Node4</title>
<g id="a_Node000004"><a xlink:href="NotificationRepository_8cpp.html" target="_top" xlink:title=" ">
<polygon fill="white" stroke="#666666" points="523.62,-44 389.88,-44 389.88,0 523.62,0 523.62,-44"/>
<text text-anchor="start" x="397.88" y="-30.5" font-family="Helvetica,sans-Serif" font-size="10.00">src/bot_library/commands</text>
<text text-anchor="start" x="397.88" y="-18.5" font-family="Helvetica,sans-Serif" font-size="10.00">/notification/repositories</text>
<text text-anchor="middle" x="456.75" y="-6.5" font-family="Helvetica,sans-Serif" font-size="10.00">/NotificationRepository.cpp</text>
</a>
</g>
</g>
<!-- Node1&#45;&gt;Node4 -->
<g id="edge3_Node000001_Node000004" class="edge">
<title>Node1&#45;&gt;Node4</title>
<g id="a_edge3_Node000001_Node000004"><a xlink:title=" ">
<path fill="none" stroke="#63b8ff" d="M333.6,-75.2C357.14,-65.23 383.76,-53.94 406.21,-44.42"/>
<polygon fill="#63b8ff" stroke="#63b8ff" points="332.26,-71.97 324.42,-79.1 335,-78.41 332.26,-71.97"/>
</a>
</g>
</g>
</g>
</svg>
