<?xml version="1.0" encoding="UTF-8" standalone="no"?>
<!DOCTYPE svg PUBLIC "-//W3C//DTD SVG 1.1//EN"
 "http://www.w3.org/Graphics/SVG/1.1/DTD/svg11.dtd">
<!-- Generated by graphviz version 13.0.1 (0)
 -->
<!-- Title: src/bot_library/commands/notification/repositories/NotificationDTO.cpp Pages: 1 -->
<svg width="182pt" height="276pt"
 viewBox="0.00 0.00 182.00 276.00" xmlns="http://www.w3.org/2000/svg" xmlns:xlink="http://www.w3.org/1999/xlink">
<g id="graph0" class="graph" transform="scale(1 1) rotate(0) translate(4 272)">
<title>src/bot_library/commands/notification/repositories/NotificationDTO.cpp</title>
<!-- Node1 -->
<g id="Node000001" class="node">
<title>Node1</title>
<g id="a_Node000001"><a xlink:title=" ">
<polygon fill="#999999" stroke="#666666" points="173.75,-268 45.25,-268 45.25,-224 173.75,-224 173.75,-268"/>
<text xml:space="preserve" text-anchor="start" x="53.25" y="-254.5" font-family="Helvetica,sans-Serif" font-size="10.00">src/bot_library/commands</text>
<text xml:space="preserve" text-anchor="start" x="53.25" y="-242.5" font-family="Helvetica,sans-Serif" font-size="10.00">/notification/repositories</text>
<text xml:space="preserve" text-anchor="middle" x="109.5" y="-230.5" font-family="Helvetica,sans-Serif" font-size="10.00">/NotificationDTO.cpp</text>
</a>
</g>
</g>
<!-- Node2 -->
<g id="Node000002" class="node">
<title>Node2</title>
<g id="a_Node000002"><a xlink:href="NotificationDTO_8hpp.html" target="_top" xlink:title=" ">
<polygon fill="white" stroke="#666666" points="122.12,-188 16.88,-188 16.88,-168 122.12,-168 122.12,-188"/>
<text xml:space="preserve" text-anchor="middle" x="69.5" y="-174.5" font-family="Helvetica,sans-Serif" font-size="10.00">NotificationDTO.hpp</text>
</a>
</g>
</g>
<!-- Node1&#45;&gt;Node2 -->
<g id="edge1_Node000001_Node000002" class="edge">
<title>Node1&#45;&gt;Node2</title>
<g id="a_edge1_Node000001_Node000002"><a xlink:title=" ">
<path fill="none" stroke="#63b8ff" d="M96.62,-223.75C91.61,-215.47 85.9,-206.06 81.02,-198.01"/>
<polygon fill="#63b8ff" stroke="#63b8ff" points="84.17,-196.45 75.99,-189.71 78.18,-200.08 84.17,-196.45"/>
</a>
</g>
</g>
<!-- Node6 -->
<g id="Node000006" class="node">
<title>Node6</title>
<g id="a_Node000006"><a xlink:title=" ">
<polygon fill="#e0e0e0" stroke="#999999" points="170.5,-132 130.5,-132 130.5,-112 170.5,-112 170.5,-132"/>
<text xml:space="preserve" text-anchor="middle" x="150.5" y="-118.5" font-family="Helvetica,sans-Serif" font-size="10.00">string</text>
</a>
</g>
</g>
<!-- Node1&#45;&gt;Node6 -->
<g id="edge6_Node000001_Node000006" class="edge">
<title>Node1&#45;&gt;Node6</title>
<g id="a_edge6_Node000001_Node000006"><a xlink:title=" ">
<path fill="none" stroke="#63b8ff" d="M118.29,-223.5C122.5,-212.89 127.49,-199.86 131.5,-188 136.53,-173.15 141.47,-156.13 145.06,-143.23"/>
<polygon fill="#63b8ff" stroke="#63b8ff" points="148.38,-144.36 147.64,-133.79 141.63,-142.52 148.38,-144.36"/>
</a>
</g>
</g>
<!-- Node3 -->
<g id="Node000003" class="node">
<title>Node3</title>
<g id="a_Node000003"><a xlink:href="RowDTOAdapter_8hpp.html" target="_top" xlink:title=" ">
<polygon fill="white" stroke="#666666" points="112.38,-132 2.63,-132 2.63,-112 112.38,-112 112.38,-132"/>
<text xml:space="preserve" text-anchor="middle" x="57.5" y="-118.5" font-family="Helvetica,sans-Serif" font-size="10.00">RowDTOAdapter.hpp</text>
</a>
</g>
</g>
<!-- Node2&#45;&gt;Node3 -->
<g id="edge2_Node000002_Node000003" class="edge">
<title>Node2&#45;&gt;Node3</title>
<g id="a_edge2_Node000002_Node000003"><a xlink:title=" ">
<path fill="none" stroke="#63b8ff" d="M67.41,-167.59C65.93,-160.93 63.89,-151.75 62.04,-143.44"/>
<polygon fill="#63b8ff" stroke="#63b8ff" points="65.48,-142.78 59.89,-133.78 58.65,-144.3 65.48,-142.78"/>
</a>
</g>
</g>
<!-- Node2&#45;&gt;Node6 -->
<g id="edge5_Node000002_Node000006" class="edge">
<title>Node2&#45;&gt;Node6</title>
<g id="a_edge5_Node000002_Node000006"><a xlink:title=" ">
<path fill="none" stroke="#63b8ff" d="M83.61,-167.59C95.5,-159.67 112.77,-148.16 126.78,-138.82"/>
<polygon fill="#63b8ff" stroke="#63b8ff" points="128.64,-141.78 135.02,-133.32 124.76,-135.95 128.64,-141.78"/>
</a>
</g>
</g>
<!-- Node4 -->
<g id="Node000004" class="node">
<title>Node4</title>
<g id="a_Node000004"><a xlink:href="DatabaseBackend_8hpp.html" target="_top" xlink:title=" ">
<polygon fill="white" stroke="#666666" points="115,-76 0,-76 0,-56 115,-56 115,-76"/>
<text xml:space="preserve" text-anchor="middle" x="57.5" y="-62.5" font-family="Helvetica,sans-Serif" font-size="10.00">DatabaseBackend.hpp</text>
</a>
</g>
</g>
<!-- Node3&#45;&gt;Node4 -->
<g id="edge3_Node000003_Node000004" class="edge">
<title>Node3&#45;&gt;Node4</title>
<g id="a_edge3_Node000003_Node000004"><a xlink:title=" ">
<path fill="none" stroke="#63b8ff" d="M57.5,-111.59C57.5,-105.01 57.5,-95.96 57.5,-87.73"/>
<polygon fill="#63b8ff" stroke="#63b8ff" points="61,-87.81 57.5,-77.81 54,-87.81 61,-87.81"/>
</a>
</g>
</g>
<!-- Node5 -->
<g id="Node000005" class="node">
<title>Node5</title>
<g id="a_Node000005"><a xlink:title=" ">
<polygon fill="#e0e0e0" stroke="#999999" points="88,-20 27,-20 27,0 88,0 88,-20"/>
<text xml:space="preserve" text-anchor="middle" x="57.5" y="-6.5" font-family="Helvetica,sans-Serif" font-size="10.00">pqxx/pqxx</text>
</a>
</g>
</g>
<!-- Node4&#45;&gt;Node5 -->
<g id="edge4_Node000004_Node000005" class="edge">
<title>Node4&#45;&gt;Node5</title>
<g id="a_edge4_Node000004_Node000005"><a xlink:title=" ">
<path fill="none" stroke="#63b8ff" d="M57.5,-55.59C57.5,-49.01 57.5,-39.96 57.5,-31.73"/>
<polygon fill="#63b8ff" stroke="#63b8ff" points="61,-31.81 57.5,-21.81 54,-31.81 61,-31.81"/>
</a>
</g>
</g>
</g>
</svg>
