<?xml version="1.0" encoding="UTF-8" standalone="no"?>
<!DOCTYPE svg PUBLIC "-//W3C//DTD SVG 1.1//EN"
 "http://www.w3.org/Graphics/SVG/1.1/DTD/svg11.dtd">
<!-- Generated by graphviz version 13.0.1 (0)
 -->
<!-- Title: src/bot_library/commands/notification/repositories/NotificationRepository.hpp Pages: 1 -->
<svg width="268pt" height="276pt"
 viewBox="0.00 0.00 268.00 276.00" xmlns="http://www.w3.org/2000/svg" xmlns:xlink="http://www.w3.org/1999/xlink">
<g id="graph0" class="graph" transform="scale(1 1) rotate(0) translate(4 272)">
<title>src/bot_library/commands/notification/repositories/NotificationRepository.hpp</title>
<!-- Node1 -->
<g id="Node000001" class="node">
<title>Node1</title>
<g id="a_Node000001"><a xlink:title=" ">
<polygon fill="#999999" stroke="#666666" points="165,-268 31.25,-268 31.25,-224 165,-224 165,-268"/>
<text xml:space="preserve" text-anchor="start" x="39.25" y="-254.5" font-family="Helvetica,sans-Serif" font-size="10.00">src/bot_library/commands</text>
<text xml:space="preserve" text-anchor="start" x="39.25" y="-242.5" font-family="Helvetica,sans-Serif" font-size="10.00">/notification/repositories</text>
<text xml:space="preserve" text-anchor="middle" x="98.12" y="-230.5" font-family="Helvetica,sans-Serif" font-size="10.00">/NotificationRepository.hpp</text>
</a>
</g>
</g>
<!-- Node2 -->
<g id="Node000002" class="node">
<title>Node2</title>
<g id="a_Node000002"><a xlink:href="IRepository_8hpp.html" target="_top" xlink:title=" ">
<polygon fill="white" stroke="#666666" points="84.25,-188 0,-188 0,-168 84.25,-168 84.25,-188"/>
<text xml:space="preserve" text-anchor="middle" x="42.12" y="-174.5" font-family="Helvetica,sans-Serif" font-size="10.00">IRepository.hpp</text>
</a>
</g>
</g>
<!-- Node1&#45;&gt;Node2 -->
<g id="edge1_Node000001_Node000002" class="edge">
<title>Node1&#45;&gt;Node2</title>
<g id="a_edge1_Node000001_Node000002"><a xlink:title=" ">
<path fill="none" stroke="#63b8ff" d="M80.1,-223.75C72.84,-215.2 64.54,-205.42 57.57,-197.2"/>
<polygon fill="#63b8ff" stroke="#63b8ff" points="60.23,-194.93 51.1,-189.57 54.9,-199.46 60.23,-194.93"/>
</a>
</g>
</g>
<!-- Node4 -->
<g id="Node000004" class="node">
<title>Node4</title>
<g id="a_Node000004"><a xlink:href="NotificationDTO_8hpp.html" target="_top" xlink:title=" ">
<polygon fill="white" stroke="#666666" points="207.75,-188 102.5,-188 102.5,-168 207.75,-168 207.75,-188"/>
<text xml:space="preserve" text-anchor="middle" x="155.12" y="-174.5" font-family="Helvetica,sans-Serif" font-size="10.00">NotificationDTO.hpp</text>
</a>
</g>
</g>
<!-- Node1&#45;&gt;Node4 -->
<g id="edge3_Node000001_Node000004" class="edge">
<title>Node1&#45;&gt;Node4</title>
<g id="a_edge3_Node000001_Node000004"><a xlink:title=" ">
<path fill="none" stroke="#63b8ff" d="M116.47,-223.75C123.95,-215.1 132.49,-205.21 139.64,-196.93"/>
<polygon fill="#63b8ff" stroke="#63b8ff" points="142.11,-199.42 146,-189.56 136.82,-194.84 142.11,-199.42"/>
</a>
</g>
</g>
<!-- Node3 -->
<g id="Node000003" class="node">
<title>Node3</title>
<g id="a_Node000003"><a xlink:title=" ">
<polygon fill="#e0e0e0" stroke="#999999" points="66.25,-132 18,-132 18,-112 66.25,-112 66.25,-132"/>
<text xml:space="preserve" text-anchor="middle" x="42.12" y="-118.5" font-family="Helvetica,sans-Serif" font-size="10.00">cstddef</text>
</a>
</g>
</g>
<!-- Node2&#45;&gt;Node3 -->
<g id="edge2_Node000002_Node000003" class="edge">
<title>Node2&#45;&gt;Node3</title>
<g id="a_edge2_Node000002_Node000003"><a xlink:title=" ">
<path fill="none" stroke="#63b8ff" d="M42.12,-167.59C42.12,-161.01 42.12,-151.96 42.12,-143.73"/>
<polygon fill="#63b8ff" stroke="#63b8ff" points="45.63,-143.81 42.13,-133.81 38.63,-143.81 45.63,-143.81"/>
</a>
</g>
</g>
<!-- Node5 -->
<g id="Node000005" class="node">
<title>Node5</title>
<g id="a_Node000005"><a xlink:href="RowDTOAdapter_8hpp.html" target="_top" xlink:title=" ">
<polygon fill="white" stroke="#666666" points="202,-132 92.25,-132 92.25,-112 202,-112 202,-132"/>
<text xml:space="preserve" text-anchor="middle" x="147.12" y="-118.5" font-family="Helvetica,sans-Serif" font-size="10.00">RowDTOAdapter.hpp</text>
</a>
</g>
</g>
<!-- Node4&#45;&gt;Node5 -->
<g id="edge4_Node000004_Node000005" class="edge">
<title>Node4&#45;&gt;Node5</title>
<g id="a_edge4_Node000004_Node000005"><a xlink:title=" ">
<path fill="none" stroke="#63b8ff" d="M153.73,-167.59C152.74,-160.93 151.38,-151.75 150.15,-143.44"/>
<polygon fill="#63b8ff" stroke="#63b8ff" points="153.65,-143.17 148.72,-133.8 146.73,-144.2 153.65,-143.17"/>
</a>
</g>
</g>
<!-- Node8 -->
<g id="Node000008" class="node">
<title>Node8</title>
<g id="a_Node000008"><a xlink:title=" ">
<polygon fill="#e0e0e0" stroke="#999999" points="260.12,-132 220.12,-132 220.12,-112 260.12,-112 260.12,-132"/>
<text xml:space="preserve" text-anchor="middle" x="240.12" y="-118.5" font-family="Helvetica,sans-Serif" font-size="10.00">string</text>
</a>
</g>
</g>
<!-- Node4&#45;&gt;Node8 -->
<g id="edge7_Node000004_Node000008" class="edge">
<title>Node4&#45;&gt;Node8</title>
<g id="a_edge7_Node000004_Node000008"><a xlink:title=" ">
<path fill="none" stroke="#63b8ff" d="M169.93,-167.59C182.53,-159.59 200.88,-147.93 215.66,-138.54"/>
<polygon fill="#63b8ff" stroke="#63b8ff" points="217.36,-141.61 223.93,-133.29 213.61,-135.7 217.36,-141.61"/>
</a>
</g>
</g>
<!-- Node6 -->
<g id="Node000006" class="node">
<title>Node6</title>
<g id="a_Node000006"><a xlink:href="DatabaseBackend_8hpp.html" target="_top" xlink:title=" ">
<polygon fill="white" stroke="#666666" points="204.62,-76 89.62,-76 89.62,-56 204.62,-56 204.62,-76"/>
<text xml:space="preserve" text-anchor="middle" x="147.12" y="-62.5" font-family="Helvetica,sans-Serif" font-size="10.00">DatabaseBackend.hpp</text>
</a>
</g>
</g>
<!-- Node5&#45;&gt;Node6 -->
<g id="edge5_Node000005_Node000006" class="edge">
<title>Node5&#45;&gt;Node6</title>
<g id="a_edge5_Node000005_Node000006"><a xlink:title=" ">
<path fill="none" stroke="#63b8ff" d="M147.12,-111.59C147.12,-105.01 147.12,-95.96 147.12,-87.73"/>
<polygon fill="#63b8ff" stroke="#63b8ff" points="150.63,-87.81 147.13,-77.81 143.63,-87.81 150.63,-87.81"/>
</a>
</g>
</g>
<!-- Node7 -->
<g id="Node000007" class="node">
<title>Node7</title>
<g id="a_Node000007"><a xlink:title=" ">
<polygon fill="#e0e0e0" stroke="#999999" points="177.62,-20 116.62,-20 116.62,0 177.62,0 177.62,-20"/>
<text xml:space="preserve" text-anchor="middle" x="147.12" y="-6.5" font-family="Helvetica,sans-Serif" font-size="10.00">pqxx/pqxx</text>
</a>
</g>
</g>
<!-- Node6&#45;&gt;Node7 -->
<g id="edge6_Node000006_Node000007" class="edge">
<title>Node6&#45;&gt;Node7</title>
<g id="a_edge6_Node000006_Node000007"><a xlink:title=" ">
<path fill="none" stroke="#63b8ff" d="M147.12,-55.59C147.12,-49.01 147.12,-39.96 147.12,-31.73"/>
<polygon fill="#63b8ff" stroke="#63b8ff" points="150.63,-31.81 147.13,-21.81 143.63,-31.81 150.63,-31.81"/>
</a>
</g>
</g>
</g>
</svg>
