<?xml version="1.0" encoding="UTF-8" standalone="no"?>
<!DOCTYPE svg PUBLIC "-//W3C//DTD SVG 1.1//EN"
 "http://www.w3.org/Graphics/SVG/1.1/DTD/svg11.dtd">
<!-- Generated by graphviz version 12.2.1 (0)
 -->
<!-- Title: src/bot_library/commands/notification/repositories/LatestEventsRepository.cpp Pages: 1 -->
<svg width="637pt" height="220pt"
 viewBox="0.00 0.00 637.38 220.00" xmlns="http://www.w3.org/2000/svg" xmlns:xlink="http://www.w3.org/1999/xlink">
<g id="graph0" class="graph" transform="scale(1 1) rotate(0) translate(4 216)">
<title>src/bot_library/commands/notification/repositories/LatestEventsRepository.cpp</title>
<!-- Node1 -->
<g id="Node000001" class="node">
<title>Node1</title>
<g id="a_Node000001"><a xlink:title=" ">
<polygon fill="#999999" stroke="#666666" points="190.5,-212 48.5,-212 48.5,-168 190.5,-168 190.5,-212"/>
<text text-anchor="start" x="56.5" y="-198.5" font-family="Helvetica,sans-Serif" font-size="10.00">src/bot_library/commands</text>
<text text-anchor="start" x="56.5" y="-186.5" font-family="Helvetica,sans-Serif" font-size="10.00">/notification/repositories</text>
<text text-anchor="middle" x="119.5" y="-174.5" font-family="Helvetica,sans-Serif" font-size="10.00">/LatestEventsRepository.cpp</text>
</a>
</g>
</g>
<!-- Node2 -->
<g id="Node000002" class="node">
<title>Node2</title>
<g id="a_Node000002"><a xlink:href="notification_2repositories_2LatestEventsRepository_8hpp.html" target="_top" xlink:title=" ">
<polygon fill="white" stroke="#666666" points="189,-132 50,-132 50,-112 189,-112 189,-132"/>
<text text-anchor="middle" x="119.5" y="-118.5" font-family="Helvetica,sans-Serif" font-size="10.00">LatestEventsRepository.hpp</text>
</a>
</g>
</g>
<!-- Node1&#45;&gt;Node2 -->
<g id="edge1_Node000001_Node000002" class="edge">
<title>Node1&#45;&gt;Node2</title>
<g id="a_edge1_Node000001_Node000002"><a xlink:title=" ">
<path fill="none" stroke="#63b8ff" d="M119.5,-167.75C119.5,-160.13 119.5,-151.53 119.5,-143.93"/>
<polygon fill="#63b8ff" stroke="#63b8ff" points="123,-143.93 119.5,-133.93 116,-143.93 123,-143.93"/>
</a>
</g>
</g>
<!-- Node3 -->
<g id="Node000003" class="node">
<title>Node3</title>
<g id="a_Node000003"><a xlink:title=" ">
<polygon fill="#e0e0e0" stroke="#999999" points="43,-76 0,-76 0,-56 43,-56 43,-76"/>
<text text-anchor="middle" x="21.5" y="-62.5" font-family="Helvetica,sans-Serif" font-size="10.00">mutex</text>
</a>
</g>
</g>
<!-- Node1&#45;&gt;Node3 -->
<g id="edge14_Node000001_Node000003" class="edge">
<title>Node1&#45;&gt;Node3</title>
<g id="a_edge14_Node000001_Node000003"><a xlink:title=" ">
<path fill="none" stroke="#63b8ff" d="M79.35,-167.5C65.3,-158.23 50.55,-146.23 40.5,-132 31.15,-118.77 26.36,-100.94 23.93,-87.31"/>
<polygon fill="#63b8ff" stroke="#63b8ff" points="27.44,-87.1 22.52,-77.71 20.51,-88.12 27.44,-87.1"/>
</a>
</g>
</g>
<!-- Node6 -->
<g id="Node000006" class="node">
<title>Node6</title>
<g id="a_Node000006"><a xlink:href="Database_8hpp.html" target="_top" xlink:title=" ">
<polygon fill="white" stroke="#666666" points="377.88,-132 301.12,-132 301.12,-112 377.88,-112 377.88,-132"/>
<text text-anchor="middle" x="339.5" y="-118.5" font-family="Helvetica,sans-Serif" font-size="10.00">Database.hpp</text>
</a>
</g>
</g>
<!-- Node1&#45;&gt;Node6 -->
<g id="edge5_Node000001_Node000006" class="edge">
<title>Node1&#45;&gt;Node6</title>
<g id="a_edge5_Node000001_Node000006"><a xlink:title=" ">
<path fill="none" stroke="#63b8ff" d="M190.93,-167.57C225.97,-157.06 267,-144.75 297.05,-135.74"/>
<polygon fill="#63b8ff" stroke="#63b8ff" points="297.97,-139.11 306.54,-132.89 295.96,-132.41 297.97,-139.11"/>
</a>
</g>
</g>
<!-- Node2&#45;&gt;Node3 -->
<g id="edge2_Node000002_Node000003" class="edge">
<title>Node2&#45;&gt;Node3</title>
<g id="a_edge2_Node000002_Node000003"><a xlink:title=" ">
<path fill="none" stroke="#63b8ff" d="M102.43,-111.59C87.62,-103.44 65.93,-91.48 48.73,-82"/>
<polygon fill="#63b8ff" stroke="#63b8ff" points="50.48,-78.97 40.03,-77.21 47.1,-85.1 50.48,-78.97"/>
</a>
</g>
</g>
<!-- Node4 -->
<g id="Node000004" class="node">
<title>Node4</title>
<g id="a_Node000004"><a xlink:title=" ">
<polygon fill="#e0e0e0" stroke="#999999" points="201.5,-76 161.5,-76 161.5,-56 201.5,-56 201.5,-76"/>
<text text-anchor="middle" x="181.5" y="-62.5" font-family="Helvetica,sans-Serif" font-size="10.00">string</text>
</a>
</g>
</g>
<!-- Node2&#45;&gt;Node4 -->
<g id="edge3_Node000002_Node000004" class="edge">
<title>Node2&#45;&gt;Node4</title>
<g id="a_edge3_Node000002_Node000004"><a xlink:title=" ">
<path fill="none" stroke="#63b8ff" d="M130.3,-111.59C139.1,-103.93 151.75,-92.91 162.27,-83.75"/>
<polygon fill="#63b8ff" stroke="#63b8ff" points="164.44,-86.5 169.68,-77.29 159.84,-81.22 164.44,-86.5"/>
</a>
</g>
</g>
<!-- Node5 -->
<g id="Node000005" class="node">
<title>Node5</title>
<g id="a_Node000005"><a xlink:title=" ">
<polygon fill="#e0e0e0" stroke="#999999" points="143.88,-76 61.12,-76 61.12,-56 143.88,-56 143.88,-76"/>
<text text-anchor="middle" x="102.5" y="-62.5" font-family="Helvetica,sans-Serif" font-size="10.00">unordered_map</text>
</a>
</g>
</g>
<!-- Node2&#45;&gt;Node5 -->
<g id="edge4_Node000002_Node000005" class="edge">
<title>Node2&#45;&gt;Node5</title>
<g id="a_edge4_Node000002_Node000005"><a xlink:title=" ">
<path fill="none" stroke="#63b8ff" d="M116.54,-111.59C114.42,-104.86 111.48,-95.53 108.84,-87.15"/>
<polygon fill="#63b8ff" stroke="#63b8ff" points="112.22,-86.23 105.88,-77.74 105.55,-88.33 112.22,-86.23"/>
</a>
</g>
</g>
<!-- Node6&#45;&gt;Node4 -->
<g id="edge9_Node000006_Node000004" class="edge">
<title>Node6&#45;&gt;Node4</title>
<g id="a_edge9_Node000006_Node000004"><a xlink:title=" ">
<path fill="none" stroke="#63b8ff" d="M311.98,-111.59C284.19,-102.1 241.35,-87.46 212.41,-77.57"/>
<polygon fill="#63b8ff" stroke="#63b8ff" points="213.72,-74.31 203.12,-74.39 211.45,-80.94 213.72,-74.31"/>
</a>
</g>
</g>
<!-- Node7 -->
<g id="Node000007" class="node">
<title>Node7</title>
<g id="a_Node000007"><a xlink:title=" ">
<polygon fill="#e0e0e0" stroke="#999999" points="267.62,-76 219.38,-76 219.38,-56 267.62,-56 267.62,-76"/>
<text text-anchor="middle" x="243.5" y="-62.5" font-family="Helvetica,sans-Serif" font-size="10.00">cstddef</text>
</a>
</g>
</g>
<!-- Node6&#45;&gt;Node7 -->
<g id="edge6_Node000006_Node000007" class="edge">
<title>Node6&#45;&gt;Node7</title>
<g id="a_edge6_Node000006_Node000007"><a xlink:title=" ">
<path fill="none" stroke="#63b8ff" d="M322.78,-111.59C308.28,-103.44 287.03,-91.48 270.18,-82"/>
<polygon fill="#63b8ff" stroke="#63b8ff" points="272.1,-79.07 261.67,-77.22 268.67,-85.17 272.1,-79.07"/>
</a>
</g>
</g>
<!-- Node8 -->
<g id="Node000008" class="node">
<title>Node8</title>
<g id="a_Node000008"><a xlink:title=" ">
<polygon fill="#e0e0e0" stroke="#999999" points="339.25,-76 285.75,-76 285.75,-56 339.25,-56 339.25,-76"/>
<text text-anchor="middle" x="312.5" y="-62.5" font-family="Helvetica,sans-Serif" font-size="10.00">iostream</text>
</a>
</g>
</g>
<!-- Node6&#45;&gt;Node8 -->
<g id="edge7_Node000006_Node000008" class="edge">
<title>Node6&#45;&gt;Node8</title>
<g id="a_edge7_Node000006_Node000008"><a xlink:title=" ">
<path fill="none" stroke="#63b8ff" d="M334.8,-111.59C331.35,-104.7 326.55,-95.1 322.29,-86.57"/>
<polygon fill="#63b8ff" stroke="#63b8ff" points="325.43,-85.03 317.83,-77.65 319.17,-88.16 325.43,-85.03"/>
</a>
</g>
</g>
<!-- Node9 -->
<g id="Node000009" class="node">
<title>Node9</title>
<g id="a_Node000009"><a xlink:title=" ">
<polygon fill="#e0e0e0" stroke="#999999" points="501,-20 440,-20 440,0 501,0 501,-20"/>
<text text-anchor="middle" x="470.5" y="-6.5" font-family="Helvetica,sans-Serif" font-size="10.00">pqxx/pqxx</text>
</a>
</g>
</g>
<!-- Node6&#45;&gt;Node9 -->
<g id="edge8_Node000006_Node000009" class="edge">
<title>Node6&#45;&gt;Node9</title>
<g id="a_edge8_Node000006_Node000009"><a xlink:title=" ">
<path fill="none" stroke="#63b8ff" d="M344.48,-111.58C352.06,-97.93 367.63,-72.5 386.5,-56 401.11,-43.23 419.97,-32.71 436.12,-25.07"/>
<polygon fill="#63b8ff" stroke="#63b8ff" points="437.22,-28.41 444.88,-21.09 434.33,-22.03 437.22,-28.41"/>
</a>
</g>
</g>
<!-- Node10 -->
<g id="Node000010" class="node">
<title>Node10</title>
<g id="a_Node000010"><a xlink:title=" ">
<polygon fill="#e0e0e0" stroke="#999999" points="441.12,-76 395.88,-76 395.88,-56 441.12,-56 441.12,-76"/>
<text text-anchor="middle" x="418.5" y="-62.5" font-family="Helvetica,sans-Serif" font-size="10.00">variant</text>
</a>
</g>
</g>
<!-- Node6&#45;&gt;Node10 -->
<g id="edge10_Node000006_Node000010" class="edge">
<title>Node6&#45;&gt;Node10</title>
<g id="a_edge10_Node000006_Node000010"><a xlink:title=" ">
<path fill="none" stroke="#63b8ff" d="M353.26,-111.59C364.86,-103.67 381.7,-92.16 395.36,-82.82"/>
<polygon fill="#63b8ff" stroke="#63b8ff" points="397.1,-85.87 403.38,-77.33 393.15,-80.09 397.1,-85.87"/>
</a>
</g>
</g>
<!-- Node11 -->
<g id="Node000011" class="node">
<title>Node11</title>
<g id="a_Node000011"><a xlink:title=" ">
<polygon fill="#e0e0e0" stroke="#999999" points="502,-76 459,-76 459,-56 502,-56 502,-76"/>
<text text-anchor="middle" x="480.5" y="-62.5" font-family="Helvetica,sans-Serif" font-size="10.00">vector</text>
</a>
</g>
</g>
<!-- Node6&#45;&gt;Node11 -->
<g id="edge11_Node000006_Node000011" class="edge">
<title>Node6&#45;&gt;Node11</title>
<g id="a_edge11_Node000006_Node000011"><a xlink:title=" ">
<path fill="none" stroke="#63b8ff" d="M364.06,-111.59C387.29,-102.7 422.31,-89.29 447.88,-79.49"/>
<polygon fill="#63b8ff" stroke="#63b8ff" points="449.04,-82.8 457.12,-75.95 446.53,-76.26 449.04,-82.8"/>
</a>
</g>
</g>
<!-- Node12 -->
<g id="Node000012" class="node">
<title>Node12</title>
<g id="a_Node000012"><a xlink:href="RowDTOAdapter_8hpp.html" target="_top" xlink:title=" ">
<polygon fill="white" stroke="#666666" points="629.38,-76 519.62,-76 519.62,-56 629.38,-56 629.38,-76"/>
<text text-anchor="middle" x="574.5" y="-62.5" font-family="Helvetica,sans-Serif" font-size="10.00">RowDTOAdapter.hpp</text>
</a>
</g>
</g>
<!-- Node6&#45;&gt;Node12 -->
<g id="edge12_Node000006_Node000012" class="edge">
<title>Node6&#45;&gt;Node12</title>
<g id="a_edge12_Node000006_Node000012"><a xlink:title=" ">
<path fill="none" stroke="#63b8ff" d="M378.31,-112.08C417.64,-103.04 478.75,-89 522.31,-78.99"/>
<polygon fill="#63b8ff" stroke="#63b8ff" points="522.83,-82.47 531.79,-76.81 521.26,-75.64 522.83,-82.47"/>
</a>
</g>
</g>
<!-- Node12&#45;&gt;Node9 -->
<g id="edge13_Node000012_Node000009" class="edge">
<title>Node12&#45;&gt;Node9</title>
<g id="a_edge13_Node000012_Node000009"><a xlink:title=" ">
<path fill="none" stroke="#63b8ff" d="M556.38,-55.59C540.53,-47.36 517.22,-35.26 498.88,-25.74"/>
<polygon fill="#63b8ff" stroke="#63b8ff" points="500.59,-22.68 490.1,-21.18 497.36,-28.89 500.59,-22.68"/>
</a>
</g>
</g>
</g>
</svg>
