<?xml version="1.0" encoding="UTF-8" standalone="no"?>
<!DOCTYPE svg PUBLIC "-//W3C//DTD SVG 1.1//EN"
 "http://www.w3.org/Graphics/SVG/1.1/DTD/svg11.dtd">
<!-- Generated by graphviz version 12.2.1 (0)
 -->
<!-- Title: src/bot_library/commands/notification/SetNotificationCommand.cpp Pages: 1 -->
<svg width="2072pt" height="388pt"
 viewBox="0.00 0.00 2072.25 388.00" xmlns="http://www.w3.org/2000/svg" xmlns:xlink="http://www.w3.org/1999/xlink">
<g id="graph0" class="graph" transform="scale(1 1) rotate(0) translate(4 384)">
<title>src/bot_library/commands/notification/SetNotificationCommand.cpp</title>
<!-- Node1 -->
<g id="Node000001" class="node">
<title>Node1</title>
<g id="a_Node000001"><a xlink:title=" ">
<polygon fill="#999999" stroke="#666666" points="1476.5,-380 1279,-380 1279,-348 1476.5,-348 1476.5,-380"/>
<text text-anchor="start" x="1287" y="-366.5" font-family="Helvetica,sans-Serif" font-size="10.00">src/bot_library/commands</text>
<text text-anchor="middle" x="1377.75" y="-354.5" font-family="Helvetica,sans-Serif" font-size="10.00">/notification/SetNotificationCommand.cpp</text>
</a>
</g>
</g>
<!-- Node2 -->
<g id="Node000002" class="node">
<title>Node2</title>
<g id="a_Node000002"><a xlink:href="notification_2SetNotificationCommand_8hpp.html" target="_top" xlink:title=" ">
<polygon fill="white" stroke="#666666" points="844.88,-312 700.62,-312 700.62,-292 844.88,-292 844.88,-312"/>
<text text-anchor="middle" x="772.75" y="-298.5" font-family="Helvetica,sans-Serif" font-size="10.00">SetNotificationCommand.hpp</text>
</a>
</g>
</g>
<!-- Node1&#45;&gt;Node2 -->
<g id="edge1_Node000001_Node000002" class="edge">
<title>Node1&#45;&gt;Node2</title>
<g id="a_edge1_Node000001_Node000002"><a xlink:title=" ">
<path fill="none" stroke="#63b8ff" d="M1278.52,-353.16C1160.83,-341.49 966.74,-322.24 856.36,-311.29"/>
<polygon fill="#63b8ff" stroke="#63b8ff" points="856.76,-307.81 846.46,-310.31 856.07,-314.78 856.76,-307.81"/>
</a>
</g>
</g>
<!-- Node3 -->
<g id="Node000003" class="node">
<title>Node3</title>
<g id="a_Node000003"><a xlink:title=" ">
<polygon fill="#e0e0e0" stroke="#999999" points="707.38,-256 638.12,-256 638.12,-236 707.38,-236 707.38,-256"/>
<text text-anchor="middle" x="672.75" y="-242.5" font-family="Helvetica,sans-Serif" font-size="10.00">dispatcher.h</text>
</a>
</g>
</g>
<!-- Node1&#45;&gt;Node3 -->
<g id="edge53_Node000001_Node000003" class="edge">
<title>Node1&#45;&gt;Node3</title>
<g id="a_edge53_Node000001_Node000003"><a xlink:title=" ">
<path fill="none" stroke="#63b8ff" d="M1278.57,-361.79C1099.43,-358.7 736.28,-348.04 691.75,-312 678.61,-301.37 674.24,-282.18 672.93,-267.4"/>
<polygon fill="#63b8ff" stroke="#63b8ff" points="676.44,-267.65 672.49,-257.82 669.45,-267.96 676.44,-267.65"/>
</a>
</g>
</g>
<!-- Node5 -->
<g id="Node000005" class="node">
<title>Node5</title>
<g id="a_Node000005"><a xlink:href="Core_8hpp.html" target="_top" xlink:title=" ">
<polygon fill="white" stroke="#666666" points="880.62,-194 824.88,-194 824.88,-174 880.62,-174 880.62,-194"/>
<text text-anchor="middle" x="852.75" y="-180.5" font-family="Helvetica,sans-Serif" font-size="10.00">Core.hpp</text>
</a>
</g>
</g>
<!-- Node1&#45;&gt;Node5 -->
<g id="edge57_Node000001_Node000005" class="edge">
<title>Node1&#45;&gt;Node5</title>
<g id="a_edge57_Node000001_Node000005"><a xlink:title=" ">
<path fill="none" stroke="#63b8ff" d="M1278.52,-348.48C1231.54,-340.21 1175.05,-328.2 1125.75,-312 1031.57,-281.04 927.1,-226.25 879.28,-199.93"/>
<polygon fill="#63b8ff" stroke="#63b8ff" points="881.19,-196.99 870.75,-195.2 877.8,-203.11 881.19,-196.99"/>
</a>
</g>
</g>
<!-- Node21 -->
<g id="Node000021" class="node">
<title>Node21</title>
<g id="a_Node000021"><a xlink:title=" ">
<polygon fill="#e0e0e0" stroke="#999999" points="1035.12,-76 952.38,-76 952.38,-56 1035.12,-56 1035.12,-76"/>
<text text-anchor="middle" x="993.75" y="-62.5" font-family="Helvetica,sans-Serif" font-size="10.00">appcommand.h</text>
</a>
</g>
</g>
<!-- Node1&#45;&gt;Node21 -->
<g id="edge50_Node000001_Node000021" class="edge">
<title>Node1&#45;&gt;Node21</title>
<g id="a_edge50_Node000001_Node000021"><a xlink:title=" ">
<path fill="none" stroke="#63b8ff" d="M1278.54,-353.37C1213.24,-340.92 1139.75,-312.39 1139.75,-247 1139.75,-247 1139.75,-247 1139.75,-183 1139.75,-129.58 1079.09,-96.83 1035.97,-80.3"/>
<polygon fill="#63b8ff" stroke="#63b8ff" points="1037.44,-77.11 1026.85,-76.96 1035.04,-83.69 1037.44,-77.11"/>
</a>
</g>
</g>
<!-- Node28 -->
<g id="Node000028" class="node">
<title>Node28</title>
<g id="a_Node000028"><a xlink:title=" ">
<polygon fill="#e0e0e0" stroke="#999999" points="1256,-312 1205.5,-312 1205.5,-292 1256,-292 1256,-312"/>
<text text-anchor="middle" x="1230.75" y="-298.5" font-family="Helvetica,sans-Serif" font-size="10.00">colors.h</text>
</a>
</g>
</g>
<!-- Node1&#45;&gt;Node28 -->
<g id="edge51_Node000001_Node000028" class="edge">
<title>Node1&#45;&gt;Node28</title>
<g id="a_edge51_Node000001_Node000028"><a xlink:title=" ">
<path fill="none" stroke="#63b8ff" d="M1339.89,-347.55C1316.5,-338 1286.75,-325.86 1264.22,-316.66"/>
<polygon fill="#63b8ff" stroke="#63b8ff" points="1265.78,-313.52 1255.2,-312.98 1263.14,-320 1265.78,-313.52"/>
</a>
</g>
</g>
<!-- Node29 -->
<g id="Node000029" class="node">
<title>Node29</title>
<g id="a_Node000029"><a xlink:title=" ">
<polygon fill="#e0e0e0" stroke="#999999" points="1327.88,-312 1273.62,-312 1273.62,-292 1327.88,-292 1327.88,-312"/>
<text text-anchor="middle" x="1300.75" y="-298.5" font-family="Helvetica,sans-Serif" font-size="10.00">cpr/cpr.h</text>
</a>
</g>
</g>
<!-- Node1&#45;&gt;Node29 -->
<g id="edge52_Node000001_Node000029" class="edge">
<title>Node1&#45;&gt;Node29</title>
<g id="a_edge52_Node000001_Node000029"><a xlink:title=" ">
<path fill="none" stroke="#63b8ff" d="M1357.92,-347.55C1346.78,-338.87 1332.89,-328.04 1321.59,-319.24"/>
<polygon fill="#63b8ff" stroke="#63b8ff" points="1324.06,-316.72 1314.02,-313.34 1319.75,-322.25 1324.06,-316.72"/>
</a>
</g>
</g>
<!-- Node30 -->
<g id="Node000030" class="node">
<title>Node30</title>
<g id="a_Node000030"><a xlink:title=" ">
<polygon fill="#e0e0e0" stroke="#999999" points="1409.75,-312 1345.75,-312 1345.75,-292 1409.75,-292 1409.75,-312"/>
<text text-anchor="middle" x="1377.75" y="-298.5" font-family="Helvetica,sans-Serif" font-size="10.00">message.h</text>
</a>
</g>
</g>
<!-- Node1&#45;&gt;Node30 -->
<g id="edge54_Node000001_Node000030" class="edge">
<title>Node1&#45;&gt;Node30</title>
<g id="a_edge54_Node000001_Node000030"><a xlink:title=" ">
<path fill="none" stroke="#63b8ff" d="M1377.75,-347.55C1377.75,-340.34 1377.75,-331.66 1377.75,-323.88"/>
<polygon fill="#63b8ff" stroke="#63b8ff" points="1381.25,-323.92 1377.75,-313.92 1374.25,-323.92 1381.25,-323.92"/>
</a>
</g>
</g>
<!-- Node31 -->
<g id="Node000031" class="node">
<title>Node31</title>
<g id="a_Node000031"><a xlink:title=" ">
<polygon fill="#e0e0e0" stroke="#999999" points="1483.62,-312 1427.88,-312 1427.88,-292 1483.62,-292 1483.62,-312"/>
<text text-anchor="middle" x="1455.75" y="-298.5" font-family="Helvetica,sans-Serif" font-size="10.00">queues.h</text>
</a>
</g>
</g>
<!-- Node1&#45;&gt;Node31 -->
<g id="edge55_Node000001_Node000031" class="edge">
<title>Node1&#45;&gt;Node31</title>
<g id="a_edge55_Node000001_Node000031"><a xlink:title=" ">
<path fill="none" stroke="#63b8ff" d="M1397.84,-347.55C1409.12,-338.87 1423.19,-328.04 1434.64,-319.24"/>
<polygon fill="#63b8ff" stroke="#63b8ff" points="1436.53,-322.2 1442.32,-313.33 1432.26,-316.65 1436.53,-322.2"/>
</a>
</g>
</g>
<!-- Node32 -->
<g id="Node000032" class="node">
<title>Node32</title>
<g id="a_Node000032"><a xlink:title=" ">
<polygon fill="#e0e0e0" stroke="#999999" points="1570,-312 1501.5,-312 1501.5,-292 1570,-292 1570,-312"/>
<text text-anchor="middle" x="1535.75" y="-298.5" font-family="Helvetica,sans-Serif" font-size="10.00">snowflake.h</text>
</a>
</g>
</g>
<!-- Node1&#45;&gt;Node32 -->
<g id="edge56_Node000001_Node000032" class="edge">
<title>Node1&#45;&gt;Node32</title>
<g id="a_edge56_Node000001_Node000032"><a xlink:title=" ">
<path fill="none" stroke="#63b8ff" d="M1418.44,-347.55C1443.81,-337.91 1476.14,-325.64 1500.43,-316.41"/>
<polygon fill="#63b8ff" stroke="#63b8ff" points="1501.45,-319.77 1509.56,-312.95 1498.97,-313.22 1501.45,-319.77"/>
</a>
</g>
</g>
<!-- Node33 -->
<g id="Node000033" class="node">
<title>Node33</title>
<g id="a_Node000033"><a xlink:title=" ">
<polygon fill="#e0e0e0" stroke="#999999" points="1719.12,-312 1588.38,-312 1588.38,-292 1719.12,-292 1719.12,-312"/>
<text text-anchor="middle" x="1653.75" y="-298.5" font-family="Helvetica,sans-Serif" font-size="10.00">NotificationRepository.hpp</text>
</a>
</g>
</g>
<!-- Node1&#45;&gt;Node33 -->
<g id="edge58_Node000001_Node000033" class="edge">
<title>Node1&#45;&gt;Node33</title>
<g id="a_edge58_Node000001_Node000033"><a xlink:title=" ">
<path fill="none" stroke="#63b8ff" d="M1448.83,-347.55C1495.6,-337.38 1555.9,-324.27 1598.96,-314.91"/>
<polygon fill="#63b8ff" stroke="#63b8ff" points="1599.56,-318.36 1608.59,-312.82 1598.07,-311.52 1599.56,-318.36"/>
</a>
</g>
</g>
<!-- Node34 -->
<g id="Node000034" class="node">
<title>Node34</title>
<g id="a_Node000034"><a xlink:title=" ">
<polygon fill="#e0e0e0" stroke="#999999" points="1780.62,-312 1736.88,-312 1736.88,-292 1780.62,-292 1780.62,-312"/>
<text text-anchor="middle" x="1758.75" y="-298.5" font-family="Helvetica,sans-Serif" font-size="10.00">format</text>
</a>
</g>
</g>
<!-- Node1&#45;&gt;Node34 -->
<g id="edge59_Node000001_Node000034" class="edge">
<title>Node1&#45;&gt;Node34</title>
<g id="a_edge59_Node000001_Node000034"><a xlink:title=" ">
<path fill="none" stroke="#63b8ff" d="M1476.84,-352.26C1544.46,-344.06 1636.19,-331.27 1725.35,-312.27"/>
<polygon fill="#63b8ff" stroke="#63b8ff" points="1725.98,-315.71 1735.01,-310.18 1724.5,-308.87 1725.98,-315.71"/>
</a>
</g>
</g>
<!-- Node35 -->
<g id="Node000035" class="node">
<title>Node35</title>
<g id="a_Node000035"><a xlink:title=" ">
<polygon fill="#e0e0e0" stroke="#999999" points="1848.62,-312 1798.88,-312 1798.88,-292 1848.62,-292 1848.62,-312"/>
<text text-anchor="middle" x="1823.75" y="-298.5" font-family="Helvetica,sans-Serif" font-size="10.00">optional</text>
</a>
</g>
</g>
<!-- Node1&#45;&gt;Node35 -->
<g id="edge60_Node000001_Node000035" class="edge">
<title>Node1&#45;&gt;Node35</title>
<g id="a_edge60_Node000001_Node000035"><a xlink:title=" ">
<path fill="none" stroke="#63b8ff" d="M1476.99,-354.52C1558.11,-346.72 1675.9,-333.38 1787.46,-312.21"/>
<polygon fill="#63b8ff" stroke="#63b8ff" points="1787.94,-315.68 1797.1,-310.35 1786.62,-308.81 1787.94,-315.68"/>
</a>
</g>
</g>
<!-- Node36 -->
<g id="Node000036" class="node">
<title>Node36</title>
<g id="a_Node000036"><a xlink:title=" ">
<polygon fill="#e0e0e0" stroke="#999999" points="1906.75,-312 1866.75,-312 1866.75,-292 1906.75,-292 1906.75,-312"/>
<text text-anchor="middle" x="1886.75" y="-298.5" font-family="Helvetica,sans-Serif" font-size="10.00">regex</text>
</a>
</g>
</g>
<!-- Node1&#45;&gt;Node36 -->
<g id="edge61_Node000001_Node000036" class="edge">
<title>Node1&#45;&gt;Node36</title>
<g id="a_edge61_Node000001_Node000036"><a xlink:title=" ">
<path fill="none" stroke="#63b8ff" d="M1476.98,-358.12C1572.08,-352.15 1719.63,-339.52 1855.29,-312.15"/>
<polygon fill="#63b8ff" stroke="#63b8ff" points="1855.71,-315.64 1864.8,-310.2 1854.3,-308.78 1855.71,-315.64"/>
</a>
</g>
</g>
<!-- Node37 -->
<g id="Node000037" class="node">
<title>Node37</title>
<g id="a_Node000037"><a xlink:title=" ">
<polygon fill="#e0e0e0" stroke="#999999" points="2064.25,-312 1925.25,-312 1925.25,-292 2064.25,-292 2064.25,-312"/>
<text text-anchor="middle" x="1994.75" y="-298.5" font-family="Helvetica,sans-Serif" font-size="10.00">LatestEventsRepository.hpp</text>
</a>
</g>
</g>
<!-- Node1&#45;&gt;Node37 -->
<g id="edge62_Node000001_Node000037" class="edge">
<title>Node1&#45;&gt;Node37</title>
<g id="a_edge62_Node000001_Node000037"><a xlink:title=" ">
<path fill="none" stroke="#63b8ff" d="M1476.96,-354.16C1582.43,-344.64 1754.42,-328.74 1913.54,-312.21"/>
<polygon fill="#63b8ff" stroke="#63b8ff" points="1913.88,-315.7 1923.47,-311.18 1913.16,-308.73 1913.88,-315.7"/>
</a>
</g>
</g>
<!-- Node38 -->
<g id="Node000038" class="node">
<title>Node38</title>
<g id="a_Node000038"><a xlink:href="notification_2repositories_2NotificationRepository_8hpp.html" target="_top" xlink:title=" ">
<polygon fill="white" stroke="#666666" points="1456.12,-200 1337.38,-200 1337.38,-168 1456.12,-168 1456.12,-200"/>
<text text-anchor="start" x="1345.38" y="-186.5" font-family="Helvetica,sans-Serif" font-size="10.00">repositories/Notification</text>
<text text-anchor="middle" x="1396.75" y="-174.5" font-family="Helvetica,sans-Serif" font-size="10.00">Repository.hpp</text>
</a>
</g>
</g>
<!-- Node1&#45;&gt;Node38 -->
<g id="edge63_Node000001_Node000038" class="edge">
<title>Node1&#45;&gt;Node38</title>
<g id="a_edge63_Node000001_Node000038"><a xlink:title=" ">
<path fill="none" stroke="#63b8ff" d="M1278.67,-356.56C1224.75,-348.63 1173.37,-331.02 1196.75,-292 1224.67,-245.4 1280.57,-217.96 1326.19,-202.55"/>
<polygon fill="#63b8ff" stroke="#63b8ff" points="1327.06,-205.94 1335.5,-199.54 1324.91,-199.28 1327.06,-205.94"/>
</a>
</g>
</g>
<!-- Node2&#45;&gt;Node3 -->
<g id="edge2_Node000002_Node000003" class="edge">
<title>Node2&#45;&gt;Node3</title>
<g id="a_edge2_Node000002_Node000003"><a xlink:title=" ">
<path fill="none" stroke="#63b8ff" d="M755.33,-291.59C740.08,-283.36 717.67,-271.26 700.04,-261.74"/>
<polygon fill="#63b8ff" stroke="#63b8ff" points="702.1,-258.87 691.64,-257.2 698.77,-265.03 702.1,-258.87"/>
</a>
</g>
</g>
<!-- Node4 -->
<g id="Node000004" class="node">
<title>Node4</title>
<g id="a_Node000004"><a xlink:href="Bot_8hpp.html" target="_top" xlink:title=" ">
<polygon fill="white" stroke="#666666" points="775.62,-256 725.88,-256 725.88,-236 775.62,-236 775.62,-256"/>
<text text-anchor="middle" x="750.75" y="-242.5" font-family="Helvetica,sans-Serif" font-size="10.00">Bot.hpp</text>
</a>
</g>
</g>
<!-- Node2&#45;&gt;Node4 -->
<g id="edge3_Node000002_Node000004" class="edge">
<title>Node2&#45;&gt;Node4</title>
<g id="a_edge3_Node000002_Node000004"><a xlink:title=" ">
<path fill="none" stroke="#63b8ff" d="M768.92,-291.59C766.14,-284.78 762.29,-275.32 758.84,-266.86"/>
<polygon fill="#63b8ff" stroke="#63b8ff" points="762.12,-265.64 755.11,-257.7 755.64,-268.28 762.12,-265.64"/>
</a>
</g>
</g>
<!-- Node4&#45;&gt;Node5 -->
<g id="edge4_Node000004_Node000005" class="edge">
<title>Node4&#45;&gt;Node5</title>
<g id="a_edge4_Node000004_Node000005"><a xlink:title=" ">
<path fill="none" stroke="#63b8ff" d="M766.69,-235.62C782.86,-226.11 808.14,-211.24 827.12,-200.08"/>
<polygon fill="#63b8ff" stroke="#63b8ff" points="828.78,-203.16 835.62,-195.08 825.23,-197.13 828.78,-203.16"/>
</a>
</g>
</g>
<!-- Node12 -->
<g id="Node000012" class="node">
<title>Node12</title>
<g id="a_Node000012"><a xlink:title=" ">
<polygon fill="#e0e0e0" stroke="#999999" points="1326.75,-76 1286.75,-76 1286.75,-56 1326.75,-56 1326.75,-76"/>
<text text-anchor="middle" x="1306.75" y="-62.5" font-family="Helvetica,sans-Serif" font-size="10.00">string</text>
</a>
</g>
</g>
<!-- Node4&#45;&gt;Node12 -->
<g id="edge48_Node000004_Node000012" class="edge">
<title>Node4&#45;&gt;Node12</title>
<g id="a_edge48_Node000004_Node000012"><a xlink:title=" ">
<path fill="none" stroke="#63b8ff" d="M775.82,-242.85C870.08,-234.31 1201.73,-199.86 1278.75,-132 1291.86,-120.45 1299.04,-101.68 1302.84,-87.27"/>
<polygon fill="#63b8ff" stroke="#63b8ff" points="1306.16,-88.45 1304.96,-77.92 1299.33,-86.9 1306.16,-88.45"/>
</a>
</g>
</g>
<!-- Node14 -->
<g id="Node000014" class="node">
<title>Node14</title>
<g id="a_Node000014"><a xlink:title=" ">
<polygon fill="#e0e0e0" stroke="#999999" points="1096.25,-76 1053.25,-76 1053.25,-56 1096.25,-56 1096.25,-76"/>
<text text-anchor="middle" x="1074.75" y="-62.5" font-family="Helvetica,sans-Serif" font-size="10.00">vector</text>
</a>
</g>
</g>
<!-- Node4&#45;&gt;Node14 -->
<g id="edge49_Node000004_Node000014" class="edge">
<title>Node4&#45;&gt;Node14</title>
<g id="a_edge49_Node000004_Node000014"><a xlink:title=" ">
<path fill="none" stroke="#63b8ff" d="M775.98,-245.79C841.08,-246.25 1014.4,-237.17 1082.75,-132 1091.38,-118.73 1088.25,-100.67 1083.61,-86.95"/>
<polygon fill="#63b8ff" stroke="#63b8ff" points="1086.87,-85.68 1079.95,-77.66 1080.36,-88.24 1086.87,-85.68"/>
</a>
</g>
</g>
<!-- Node16 -->
<g id="Node000016" class="node">
<title>Node16</title>
<g id="a_Node000016"><a xlink:href="IButtonCommand_8hpp.html" target="_top" xlink:title=" ">
<polygon fill="white" stroke="#666666" points="611.38,-132 500.12,-132 500.12,-112 611.38,-112 611.38,-132"/>
<text text-anchor="middle" x="555.75" y="-118.5" font-family="Helvetica,sans-Serif" font-size="10.00">IButtonCommand.hpp</text>
</a>
</g>
</g>
<!-- Node4&#45;&gt;Node16 -->
<g id="edge37_Node000004_Node000016" class="edge">
<title>Node4&#45;&gt;Node16</title>
<g id="a_edge37_Node000004_Node000016"><a xlink:title=" ">
<path fill="none" stroke="#63b8ff" d="M735.58,-235.52C721.01,-226.42 698.37,-212.27 678.75,-200 644.74,-178.72 605.44,-154.12 580.6,-138.56"/>
<polygon fill="#63b8ff" stroke="#63b8ff" points="582.51,-135.63 572.18,-133.29 578.8,-141.56 582.51,-135.63"/>
</a>
</g>
</g>
<!-- Node19 -->
<g id="Node000019" class="node">
<title>Node19</title>
<g id="a_Node000019"><a xlink:href="IFormCommand_8hpp.html" target="_top" xlink:title=" ">
<polygon fill="white" stroke="#666666" points="734.38,-132 629.12,-132 629.12,-112 734.38,-112 734.38,-132"/>
<text text-anchor="middle" x="681.75" y="-118.5" font-family="Helvetica,sans-Serif" font-size="10.00">IFormCommand.hpp</text>
</a>
</g>
</g>
<!-- Node4&#45;&gt;Node19 -->
<g id="edge38_Node000004_Node000019" class="edge">
<title>Node4&#45;&gt;Node19</title>
<g id="a_edge38_Node000004_Node000019"><a xlink:title=" ">
<path fill="none" stroke="#63b8ff" d="M732.55,-235.54C719.56,-227.79 702.84,-215.57 693.75,-200 683.74,-182.85 681.26,-160.06 680.97,-143.73"/>
<polygon fill="#63b8ff" stroke="#63b8ff" points="684.47,-143.8 681.09,-133.76 677.47,-143.72 684.47,-143.8"/>
</a>
</g>
</g>
<!-- Node20 -->
<g id="Node000020" class="node">
<title>Node20</title>
<g id="a_Node000020"><a xlink:href="IGlobalSlashCommand_8hpp.html" target="_top" xlink:title=" ">
<polygon fill="white" stroke="#666666" points="1073.38,-132 938.12,-132 938.12,-112 1073.38,-112 1073.38,-132"/>
<text text-anchor="middle" x="1005.75" y="-118.5" font-family="Helvetica,sans-Serif" font-size="10.00">IGlobalSlashCommand.hpp</text>
</a>
</g>
</g>
<!-- Node4&#45;&gt;Node20 -->
<g id="edge39_Node000004_Node000020" class="edge">
<title>Node4&#45;&gt;Node20</title>
<g id="a_edge39_Node000004_Node000020"><a xlink:title=" ">
<path fill="none" stroke="#63b8ff" d="M775.89,-239.07C804.36,-231.87 851.71,-218.35 889.75,-200 925.21,-182.89 962.51,-156.38 984.95,-139.36"/>
<polygon fill="#63b8ff" stroke="#63b8ff" points="986.89,-142.28 992.68,-133.41 982.62,-136.73 986.89,-142.28"/>
</a>
</g>
</g>
<!-- Node22 -->
<g id="Node000022" class="node">
<title>Node22</title>
<g id="a_Node000022"><a xlink:href="IMemberCommand_8hpp.html" target="_top" xlink:title=" ">
<polygon fill="white" stroke="#666666" points="201.75,-132 83.75,-132 83.75,-112 201.75,-112 201.75,-132"/>
<text text-anchor="middle" x="142.75" y="-118.5" font-family="Helvetica,sans-Serif" font-size="10.00">IMemberCommand.hpp</text>
</a>
</g>
</g>
<!-- Node4&#45;&gt;Node22 -->
<g id="edge40_Node000004_Node000022" class="edge">
<title>Node4&#45;&gt;Node22</title>
<g id="a_edge40_Node000004_Node000022"><a xlink:title=" ">
<path fill="none" stroke="#63b8ff" d="M725.59,-237.92C722.62,-237.21 719.63,-236.55 716.75,-236 585.73,-210.87 549.6,-226 418.75,-200 333.06,-182.97 235.06,-153.07 181.95,-135.97"/>
<polygon fill="#63b8ff" stroke="#63b8ff" points="183.04,-132.65 172.45,-132.89 180.89,-139.31 183.04,-132.65"/>
</a>
</g>
</g>
<!-- Node23 -->
<g id="Node000023" class="node">
<title>Node23</title>
<g id="a_Node000023"><a xlink:href="IMessageCommand_8hpp.html" target="_top" xlink:title=" ">
<polygon fill="white" stroke="#666666" points="342,-132 219.5,-132 219.5,-112 342,-112 342,-132"/>
<text text-anchor="middle" x="280.75" y="-118.5" font-family="Helvetica,sans-Serif" font-size="10.00">IMessageCommand.hpp</text>
</a>
</g>
</g>
<!-- Node4&#45;&gt;Node23 -->
<g id="edge41_Node000004_Node000023" class="edge">
<title>Node4&#45;&gt;Node23</title>
<g id="a_edge41_Node000004_Node000023"><a xlink:title=" ">
<path fill="none" stroke="#63b8ff" d="M725.54,-238.14C722.59,-237.39 719.61,-236.66 716.75,-236 636.84,-217.5 615.32,-219.88 535.75,-200 458.33,-180.66 369.42,-152.41 319.69,-136.04"/>
<polygon fill="#63b8ff" stroke="#63b8ff" points="320.83,-132.74 310.24,-132.92 318.64,-139.38 320.83,-132.74"/>
</a>
</g>
</g>
<!-- Node24 -->
<g id="Node000024" class="node">
<title>Node24</title>
<g id="a_Node000024"><a xlink:href="IReactionCommand_8hpp.html" target="_top" xlink:title=" ">
<polygon fill="white" stroke="#666666" points="481.62,-132 359.88,-132 359.88,-112 481.62,-112 481.62,-132"/>
<text text-anchor="middle" x="420.75" y="-118.5" font-family="Helvetica,sans-Serif" font-size="10.00">IReactionCommand.hpp</text>
</a>
</g>
</g>
<!-- Node4&#45;&gt;Node24 -->
<g id="edge42_Node000004_Node000024" class="edge">
<title>Node4&#45;&gt;Node24</title>
<g id="a_edge42_Node000004_Node000024"><a xlink:title=" ">
<path fill="none" stroke="#63b8ff" d="M725.39,-236.2C699.71,-227.24 658.89,-212.89 623.75,-200 564.56,-178.29 496.05,-152.08 455.67,-136.51"/>
<polygon fill="#63b8ff" stroke="#63b8ff" points="457.06,-133.3 446.47,-132.96 454.54,-139.83 457.06,-133.3"/>
</a>
</g>
</g>
<!-- Node25 -->
<g id="Node000025" class="node">
<title>Node25</title>
<g id="a_Node000025"><a xlink:href="IReady_8hpp.html" target="_top" xlink:title=" ">
<polygon fill="white" stroke="#666666" points="65.5,-132 0,-132 0,-112 65.5,-112 65.5,-132"/>
<text text-anchor="middle" x="32.75" y="-118.5" font-family="Helvetica,sans-Serif" font-size="10.00">IReady.hpp</text>
</a>
</g>
</g>
<!-- Node4&#45;&gt;Node25 -->
<g id="edge43_Node000004_Node000025" class="edge">
<title>Node4&#45;&gt;Node25</title>
<g id="a_edge43_Node000004_Node000025"><a xlink:title=" ">
<path fill="none" stroke="#63b8ff" d="M725.61,-237.82C722.64,-237.13 719.64,-236.5 716.75,-236 526.89,-203.22 473.95,-236.36 284.75,-200 205.73,-184.82 116.33,-154.14 68.12,-136.44"/>
<polygon fill="#63b8ff" stroke="#63b8ff" points="69.35,-133.16 58.76,-132.97 66.92,-139.73 69.35,-133.16"/>
</a>
</g>
</g>
<!-- Node26 -->
<g id="Node000026" class="node">
<title>Node26</title>
<g id="a_Node000026"><a xlink:title=" ">
<polygon fill="#e0e0e0" stroke="#999999" points="737.12,-194 702.38,-194 702.38,-174 737.12,-174 737.12,-194"/>
<text text-anchor="middle" x="719.75" y="-180.5" font-family="Helvetica,sans-Serif" font-size="10.00">map</text>
</a>
</g>
</g>
<!-- Node4&#45;&gt;Node26 -->
<g id="edge46_Node000004_Node000026" class="edge">
<title>Node4&#45;&gt;Node26</title>
<g id="a_edge46_Node000004_Node000026"><a xlink:title=" ">
<path fill="none" stroke="#63b8ff" d="M745.91,-235.62C741.56,-227.21 735.04,-214.6 729.6,-204.07"/>
<polygon fill="#63b8ff" stroke="#63b8ff" points="732.85,-202.74 725.15,-195.46 726.63,-205.95 732.85,-202.74"/>
</a>
</g>
</g>
<!-- Node27 -->
<g id="Node000027" class="node">
<title>Node27</title>
<g id="a_Node000027"><a xlink:title=" ">
<polygon fill="#e0e0e0" stroke="#999999" points="806.38,-194 755.12,-194 755.12,-174 806.38,-174 806.38,-194"/>
<text text-anchor="middle" x="780.75" y="-180.5" font-family="Helvetica,sans-Serif" font-size="10.00">memory</text>
</a>
</g>
</g>
<!-- Node4&#45;&gt;Node27 -->
<g id="edge47_Node000004_Node000027" class="edge">
<title>Node4&#45;&gt;Node27</title>
<g id="a_edge47_Node000004_Node000027"><a xlink:title=" ">
<path fill="none" stroke="#63b8ff" d="M755.44,-235.62C759.6,-227.3 765.82,-214.86 771.05,-204.4"/>
<polygon fill="#63b8ff" stroke="#63b8ff" points="774.18,-205.98 775.52,-195.47 767.91,-202.85 774.18,-205.98"/>
</a>
</g>
</g>
<!-- Node6 -->
<g id="Node000006" class="node">
<title>Node6</title>
<g id="a_Node000006"><a xlink:title=" ">
<polygon fill="#e0e0e0" stroke="#999999" points="811.12,-132 752.38,-132 752.38,-112 811.12,-112 811.12,-132"/>
<text text-anchor="middle" x="781.75" y="-118.5" font-family="Helvetica,sans-Serif" font-size="10.00">dpp/dpp.h</text>
</a>
</g>
</g>
<!-- Node5&#45;&gt;Node6 -->
<g id="edge5_Node000005_Node000006" class="edge">
<title>Node5&#45;&gt;Node6</title>
<g id="a_edge5_Node000005_Node000006"><a xlink:title=" ">
<path fill="none" stroke="#63b8ff" d="M841.66,-173.62C830.86,-164.5 814.23,-150.45 801.22,-139.46"/>
<polygon fill="#63b8ff" stroke="#63b8ff" points="803.59,-136.87 793.69,-133.09 799.07,-142.22 803.59,-136.87"/>
</a>
</g>
</g>
<!-- Node7 -->
<g id="Node000007" class="node">
<title>Node7</title>
<g id="a_Node000007"><a xlink:title=" ">
<polygon fill="#e0e0e0" stroke="#999999" points="920.25,-132 829.25,-132 829.25,-112 920.25,-112 920.25,-132"/>
<text text-anchor="middle" x="874.75" y="-118.5" font-family="Helvetica,sans-Serif" font-size="10.00">dpp/misc&#45;enum.h</text>
</a>
</g>
</g>
<!-- Node5&#45;&gt;Node7 -->
<g id="edge6_Node000005_Node000007" class="edge">
<title>Node5&#45;&gt;Node7</title>
<g id="a_edge6_Node000005_Node000007"><a xlink:title=" ">
<path fill="none" stroke="#63b8ff" d="M856.19,-173.62C859.21,-165.39 863.7,-153.13 867.51,-142.74"/>
<polygon fill="#63b8ff" stroke="#63b8ff" points="870.73,-144.13 870.89,-133.53 864.16,-141.72 870.73,-144.13"/>
</a>
</g>
</g>
<!-- Node8 -->
<g id="Node000008" class="node">
<title>Node8</title>
<g id="a_Node000008"><a xlink:href="Database_8hpp.html" target="_top" xlink:title=" ">
<polygon fill="white" stroke="#666666" points="1244.12,-132 1167.38,-132 1167.38,-112 1244.12,-112 1244.12,-132"/>
<text text-anchor="middle" x="1205.75" y="-118.5" font-family="Helvetica,sans-Serif" font-size="10.00">Database.hpp</text>
</a>
</g>
</g>
<!-- Node5&#45;&gt;Node8 -->
<g id="edge7_Node000005_Node000008" class="edge">
<title>Node5&#45;&gt;Node8</title>
<g id="a_edge7_Node000005_Node000008"><a xlink:title=" ">
<path fill="none" stroke="#63b8ff" d="M881.04,-178.19C940.88,-168.02 1080.91,-144.22 1156.04,-131.45"/>
<polygon fill="#63b8ff" stroke="#63b8ff" points="1156.31,-134.95 1165.58,-129.83 1155.14,-128.05 1156.31,-134.95"/>
</a>
</g>
</g>
<!-- Node5&#45;&gt;Node12 -->
<g id="edge36_Node000005_Node000012" class="edge">
<title>Node5&#45;&gt;Node12</title>
<g id="a_edge36_Node000005_Node000012"><a xlink:title=" ">
<path fill="none" stroke="#63b8ff" d="M880.9,-182.07C960.97,-179.01 1188.4,-167.34 1252.75,-132 1271.79,-121.54 1286.87,-101.44 1296.2,-86.35"/>
<polygon fill="#63b8ff" stroke="#63b8ff" points="1299.19,-88.16 1301.19,-77.76 1293.14,-84.64 1299.19,-88.16"/>
</a>
</g>
</g>
<!-- Node5&#45;&gt;Node16 -->
<g id="edge16_Node000005_Node000016" class="edge">
<title>Node5&#45;&gt;Node16</title>
<g id="a_edge16_Node000005_Node000016"><a xlink:title=" ">
<path fill="none" stroke="#63b8ff" d="M831.89,-173.64C826.69,-171.56 821.08,-169.52 815.75,-168 780.48,-157.92 687.6,-142.85 622.99,-132.97"/>
<polygon fill="#63b8ff" stroke="#63b8ff" points="623.58,-129.52 613.17,-131.47 622.53,-136.44 623.58,-129.52"/>
</a>
</g>
</g>
<!-- Node5&#45;&gt;Node19 -->
<g id="edge19_Node000005_Node000019" class="edge">
<title>Node5&#45;&gt;Node19</title>
<g id="a_edge19_Node000005_Node000019"><a xlink:title=" ">
<path fill="none" stroke="#63b8ff" d="M830.14,-173.58C825.4,-171.68 820.43,-169.73 815.75,-168 784.74,-156.52 749.25,-144.66 722.58,-136"/>
<polygon fill="#63b8ff" stroke="#63b8ff" points="723.77,-132.7 713.18,-132.96 721.62,-139.36 723.77,-132.7"/>
</a>
</g>
</g>
<!-- Node5&#45;&gt;Node20 -->
<g id="edge22_Node000005_Node000020" class="edge">
<title>Node5&#45;&gt;Node20</title>
<g id="a_edge22_Node000005_Node000020"><a xlink:title=" ">
<path fill="none" stroke="#63b8ff" d="M876.66,-173.62C902.07,-163.66 942.49,-147.81 971.33,-136.5"/>
<polygon fill="#63b8ff" stroke="#63b8ff" points="972.32,-139.87 980.35,-132.96 969.76,-133.35 972.32,-139.87"/>
</a>
</g>
</g>
<!-- Node5&#45;&gt;Node22 -->
<g id="edge27_Node000005_Node000022" class="edge">
<title>Node5&#45;&gt;Node22</title>
<g id="a_edge27_Node000005_Node000022"><a xlink:title=" ">
<path fill="none" stroke="#63b8ff" d="M832.78,-173.52C827.36,-171.34 821.43,-169.28 815.75,-168 556.61,-109.43 480.95,-156.37 213.3,-132.15"/>
<polygon fill="#63b8ff" stroke="#63b8ff" points="213.85,-128.69 203.57,-131.25 213.2,-135.66 213.85,-128.69"/>
</a>
</g>
</g>
<!-- Node5&#45;&gt;Node23 -->
<g id="edge30_Node000005_Node000023" class="edge">
<title>Node5&#45;&gt;Node23</title>
<g id="a_edge30_Node000005_Node000023"><a xlink:title=" ">
<path fill="none" stroke="#63b8ff" d="M832.76,-173.59C827.35,-171.41 821.42,-169.33 815.75,-168 617.53,-121.33 559,-152.1 353.37,-132.2"/>
<polygon fill="#63b8ff" stroke="#63b8ff" points="353.99,-128.74 343.7,-131.23 353.3,-135.71 353.99,-128.74"/>
</a>
</g>
</g>
<!-- Node5&#45;&gt;Node24 -->
<g id="edge33_Node000005_Node000024" class="edge">
<title>Node5&#45;&gt;Node24</title>
<g id="a_edge33_Node000005_Node000024"><a xlink:title=" ">
<path fill="none" stroke="#63b8ff" d="M832.34,-173.56C827.04,-171.43 821.26,-169.39 815.75,-168 678.3,-133.23 637.05,-148.47 492.85,-132.2"/>
<polygon fill="#63b8ff" stroke="#63b8ff" points="493.67,-128.77 483.33,-131.09 492.86,-135.72 493.67,-128.77"/>
</a>
</g>
</g>
<!-- Node9 -->
<g id="Node000009" class="node">
<title>Node9</title>
<g id="a_Node000009"><a xlink:title=" ">
<polygon fill="#e0e0e0" stroke="#999999" points="1524.88,-76 1476.62,-76 1476.62,-56 1524.88,-56 1524.88,-76"/>
<text text-anchor="middle" x="1500.75" y="-62.5" font-family="Helvetica,sans-Serif" font-size="10.00">cstddef</text>
</a>
</g>
</g>
<!-- Node8&#45;&gt;Node9 -->
<g id="edge8_Node000008_Node000009" class="edge">
<title>Node8&#45;&gt;Node9</title>
<g id="a_edge8_Node000008_Node000009"><a xlink:title=" ">
<path fill="none" stroke="#63b8ff" d="M1244.37,-115.08C1294.95,-107.14 1386.3,-92.16 1463.75,-76 1464.27,-75.89 1464.79,-75.78 1465.31,-75.67"/>
<polygon fill="#63b8ff" stroke="#63b8ff" points="1466.06,-79.09 1475.04,-73.47 1464.52,-72.26 1466.06,-79.09"/>
</a>
</g>
</g>
<!-- Node10 -->
<g id="Node000010" class="node">
<title>Node10</title>
<g id="a_Node000010"><a xlink:title=" ">
<polygon fill="#e0e0e0" stroke="#999999" points="1167.5,-76 1114,-76 1114,-56 1167.5,-56 1167.5,-76"/>
<text text-anchor="middle" x="1140.75" y="-62.5" font-family="Helvetica,sans-Serif" font-size="10.00">iostream</text>
</a>
</g>
</g>
<!-- Node8&#45;&gt;Node10 -->
<g id="edge9_Node000008_Node000010" class="edge">
<title>Node8&#45;&gt;Node10</title>
<g id="a_edge9_Node000008_Node000010"><a xlink:title=" ">
<path fill="none" stroke="#63b8ff" d="M1194.43,-111.59C1185.11,-103.85 1171.67,-92.69 1160.57,-83.47"/>
<polygon fill="#63b8ff" stroke="#63b8ff" points="1163.04,-80.96 1153.11,-77.27 1158.56,-86.35 1163.04,-80.96"/>
</a>
</g>
</g>
<!-- Node11 -->
<g id="Node000011" class="node">
<title>Node11</title>
<g id="a_Node000011"><a xlink:title=" ">
<polygon fill="#e0e0e0" stroke="#999999" points="1359.25,-20 1298.25,-20 1298.25,0 1359.25,0 1359.25,-20"/>
<text text-anchor="middle" x="1328.75" y="-6.5" font-family="Helvetica,sans-Serif" font-size="10.00">pqxx/pqxx</text>
</a>
</g>
</g>
<!-- Node8&#45;&gt;Node11 -->
<g id="edge10_Node000008_Node000011" class="edge">
<title>Node8&#45;&gt;Node11</title>
<g id="a_edge10_Node000008_Node000011"><a xlink:title=" ">
<path fill="none" stroke="#63b8ff" d="M1215.97,-111.71C1229.9,-99.06 1255.64,-75.74 1277.75,-56 1288.3,-46.59 1300.14,-36.13 1309.75,-27.67"/>
<polygon fill="#63b8ff" stroke="#63b8ff" points="1311.83,-30.5 1317.03,-21.27 1307.21,-25.25 1311.83,-30.5"/>
</a>
</g>
</g>
<!-- Node8&#45;&gt;Node12 -->
<g id="edge11_Node000008_Node000012" class="edge">
<title>Node8&#45;&gt;Node12</title>
<g id="a_edge11_Node000008_Node000012"><a xlink:title=" ">
<path fill="none" stroke="#63b8ff" d="M1223.34,-111.59C1238.67,-103.4 1261.17,-91.37 1278.94,-81.87"/>
<polygon fill="#63b8ff" stroke="#63b8ff" points="1280.52,-84.99 1287.69,-77.19 1277.22,-78.82 1280.52,-84.99"/>
</a>
</g>
</g>
<!-- Node13 -->
<g id="Node000013" class="node">
<title>Node13</title>
<g id="a_Node000013"><a xlink:title=" ">
<polygon fill="#e0e0e0" stroke="#999999" points="1230.38,-76 1185.12,-76 1185.12,-56 1230.38,-56 1230.38,-76"/>
<text text-anchor="middle" x="1207.75" y="-62.5" font-family="Helvetica,sans-Serif" font-size="10.00">variant</text>
</a>
</g>
</g>
<!-- Node8&#45;&gt;Node13 -->
<g id="edge12_Node000008_Node000013" class="edge">
<title>Node8&#45;&gt;Node13</title>
<g id="a_edge12_Node000008_Node000013"><a xlink:title=" ">
<path fill="none" stroke="#63b8ff" d="M1206.1,-111.59C1206.34,-105.01 1206.68,-95.96 1206.98,-87.73"/>
<polygon fill="#63b8ff" stroke="#63b8ff" points="1210.48,-87.93 1207.35,-77.81 1203.48,-87.67 1210.48,-87.93"/>
</a>
</g>
</g>
<!-- Node8&#45;&gt;Node14 -->
<g id="edge13_Node000008_Node000014" class="edge">
<title>Node8&#45;&gt;Node14</title>
<g id="a_edge13_Node000008_Node000014"><a xlink:title=" ">
<path fill="none" stroke="#63b8ff" d="M1182.93,-111.59C1161.92,-102.93 1130.53,-89.99 1106.97,-80.28"/>
<polygon fill="#63b8ff" stroke="#63b8ff" points="1108.42,-77.09 1097.84,-76.52 1105.75,-83.56 1108.42,-77.09"/>
</a>
</g>
</g>
<!-- Node15 -->
<g id="Node000015" class="node">
<title>Node15</title>
<g id="a_Node000015"><a xlink:href="RowDTOAdapter_8hpp.html" target="_top" xlink:title=" ">
<polygon fill="white" stroke="#666666" points="1454.62,-76 1344.88,-76 1344.88,-56 1454.62,-56 1454.62,-76"/>
<text text-anchor="middle" x="1399.75" y="-62.5" font-family="Helvetica,sans-Serif" font-size="10.00">RowDTOAdapter.hpp</text>
</a>
</g>
</g>
<!-- Node8&#45;&gt;Node15 -->
<g id="edge14_Node000008_Node000015" class="edge">
<title>Node8&#45;&gt;Node15</title>
<g id="a_edge14_Node000008_Node000015"><a xlink:title=" ">
<path fill="none" stroke="#63b8ff" d="M1239.54,-111.59C1271.48,-102.71 1319.6,-89.31 1354.77,-79.52"/>
<polygon fill="#63b8ff" stroke="#63b8ff" points="1355.54,-82.94 1364.24,-76.89 1353.66,-76.2 1355.54,-82.94"/>
</a>
</g>
</g>
<!-- Node15&#45;&gt;Node11 -->
<g id="edge15_Node000015_Node000011" class="edge">
<title>Node15&#45;&gt;Node11</title>
<g id="a_edge15_Node000015_Node000011"><a xlink:title=" ">
<path fill="none" stroke="#63b8ff" d="M1387.38,-55.59C1377.1,-47.77 1362.23,-36.46 1350.04,-27.19"/>
<polygon fill="#63b8ff" stroke="#63b8ff" points="1352.26,-24.48 1342.18,-21.21 1348.02,-30.05 1352.26,-24.48"/>
</a>
</g>
</g>
<!-- Node17 -->
<g id="Node000017" class="node">
<title>Node17</title>
<g id="a_Node000017"><a xlink:title=" ">
<polygon fill="#e0e0e0" stroke="#999999" points="407.88,-76 335.62,-76 335.62,-56 407.88,-56 407.88,-76"/>
<text text-anchor="middle" x="371.75" y="-62.5" font-family="Helvetica,sans-Serif" font-size="10.00">dpp/cluster.h</text>
</a>
</g>
</g>
<!-- Node16&#45;&gt;Node17 -->
<g id="edge17_Node000016_Node000017" class="edge">
<title>Node16&#45;&gt;Node17</title>
<g id="a_edge17_Node000016_Node000017"><a xlink:title=" ">
<path fill="none" stroke="#63b8ff" d="M523.7,-111.59C493.54,-102.74 448.16,-89.43 414.85,-79.65"/>
<polygon fill="#63b8ff" stroke="#63b8ff" points="416.08,-76.36 405.5,-76.91 414.11,-83.08 416.08,-76.36"/>
</a>
</g>
</g>
<!-- Node18 -->
<g id="Node000018" class="node">
<title>Node18</title>
<g id="a_Node000018"><a xlink:title=" ">
<polygon fill="#e0e0e0" stroke="#999999" points="513.75,-76 425.75,-76 425.75,-56 513.75,-56 513.75,-76"/>
<text text-anchor="middle" x="469.75" y="-62.5" font-family="Helvetica,sans-Serif" font-size="10.00">dpp/dispatcher.h</text>
</a>
</g>
</g>
<!-- Node16&#45;&gt;Node18 -->
<g id="edge18_Node000016_Node000018" class="edge">
<title>Node16&#45;&gt;Node18</title>
<g id="a_edge18_Node000016_Node000018"><a xlink:title=" ">
<path fill="none" stroke="#63b8ff" d="M540.77,-111.59C528.02,-103.59 509.46,-91.93 494.51,-82.54"/>
<polygon fill="#63b8ff" stroke="#63b8ff" points="496.46,-79.64 486.13,-77.28 492.74,-85.57 496.46,-79.64"/>
</a>
</g>
</g>
<!-- Node19&#45;&gt;Node17 -->
<g id="edge20_Node000019_Node000017" class="edge">
<title>Node19&#45;&gt;Node17</title>
<g id="a_edge20_Node000019_Node000017"><a xlink:title=" ">
<path fill="none" stroke="#63b8ff" d="M628.63,-112.45C577.47,-104.11 497.63,-90.81 419.14,-76.4"/>
<polygon fill="#63b8ff" stroke="#63b8ff" points="420.04,-73.01 409.57,-74.64 418.77,-79.89 420.04,-73.01"/>
</a>
</g>
</g>
<!-- Node19&#45;&gt;Node18 -->
<g id="edge21_Node000019_Node000018" class="edge">
<title>Node19&#45;&gt;Node18</title>
<g id="a_edge21_Node000019_Node000018"><a xlink:title=" ">
<path fill="none" stroke="#63b8ff" d="M644.82,-111.59C609.62,-102.63 556.43,-89.08 517.91,-79.27"/>
<polygon fill="#63b8ff" stroke="#63b8ff" points="518.99,-75.93 508.43,-76.85 517.26,-82.71 518.99,-75.93"/>
</a>
</g>
</g>
<!-- Node20&#45;&gt;Node14 -->
<g id="edge26_Node000020_Node000014" class="edge">
<title>Node20&#45;&gt;Node14</title>
<g id="a_edge26_Node000020_Node000014"><a xlink:title=" ">
<path fill="none" stroke="#63b8ff" d="M1017.77,-111.59C1027.76,-103.77 1042.21,-92.46 1054.06,-83.19"/>
<polygon fill="#63b8ff" stroke="#63b8ff" points="1055.96,-86.15 1061.68,-77.23 1051.64,-80.64 1055.96,-86.15"/>
</a>
</g>
</g>
<!-- Node20&#45;&gt;Node17 -->
<g id="edge24_Node000020_Node000017" class="edge">
<title>Node20&#45;&gt;Node17</title>
<g id="a_edge24_Node000020_Node000017"><a xlink:title=" ">
<path fill="none" stroke="#63b8ff" d="M937.81,-112.79C935.09,-112.51 932.4,-112.25 929.75,-112 705.86,-90.9 645.21,-105.97 419.27,-76.17"/>
<polygon fill="#63b8ff" stroke="#63b8ff" points="419.91,-72.72 409.53,-74.87 418.98,-79.66 419.91,-72.72"/>
</a>
</g>
</g>
<!-- Node20&#45;&gt;Node18 -->
<g id="edge25_Node000020_Node000018" class="edge">
<title>Node20&#45;&gt;Node18</title>
<g id="a_edge25_Node000020_Node000018"><a xlink:title=" ">
<path fill="none" stroke="#63b8ff" d="M937.8,-112.88C935.08,-112.58 932.39,-112.29 929.75,-112 784.07,-96.25 612.17,-80.07 525.58,-72.09"/>
<polygon fill="#63b8ff" stroke="#63b8ff" points="525.97,-68.61 515.69,-71.18 525.33,-75.58 525.97,-68.61"/>
</a>
</g>
</g>
<!-- Node20&#45;&gt;Node21 -->
<g id="edge23_Node000020_Node000021" class="edge">
<title>Node20&#45;&gt;Node21</title>
<g id="a_edge23_Node000020_Node000021"><a xlink:title=" ">
<path fill="none" stroke="#63b8ff" d="M1003.66,-111.59C1002.18,-104.93 1000.14,-95.75 998.29,-87.44"/>
<polygon fill="#63b8ff" stroke="#63b8ff" points="1001.73,-86.78 996.14,-77.78 994.9,-88.3 1001.73,-86.78"/>
</a>
</g>
</g>
<!-- Node22&#45;&gt;Node17 -->
<g id="edge28_Node000022_Node000017" class="edge">
<title>Node22&#45;&gt;Node17</title>
<g id="a_edge28_Node000022_Node000017"><a xlink:title=" ">
<path fill="none" stroke="#63b8ff" d="M182.9,-111.53C222.38,-102.22 282.64,-88.01 324.43,-78.16"/>
<polygon fill="#63b8ff" stroke="#63b8ff" points="325.02,-81.61 333.95,-75.91 323.42,-74.8 325.02,-81.61"/>
</a>
</g>
</g>
<!-- Node22&#45;&gt;Node18 -->
<g id="edge29_Node000022_Node000018" class="edge">
<title>Node22&#45;&gt;Node18</title>
<g id="a_edge29_Node000022_Node000018"><a xlink:title=" ">
<path fill="none" stroke="#63b8ff" d="M201.03,-111.52C254.01,-102.89 334.69,-89.68 414.29,-76.4"/>
<polygon fill="#63b8ff" stroke="#63b8ff" points="414.73,-79.88 424.01,-74.78 413.57,-72.98 414.73,-79.88"/>
</a>
</g>
</g>
<!-- Node23&#45;&gt;Node17 -->
<g id="edge31_Node000023_Node000017" class="edge">
<title>Node23&#45;&gt;Node17</title>
<g id="a_edge31_Node000023_Node000017"><a xlink:title=" ">
<path fill="none" stroke="#63b8ff" d="M296.6,-111.59C310.22,-103.51 330.11,-91.71 346.01,-82.27"/>
<polygon fill="#63b8ff" stroke="#63b8ff" points="347.66,-85.37 354.47,-77.25 344.09,-79.35 347.66,-85.37"/>
</a>
</g>
</g>
<!-- Node23&#45;&gt;Node18 -->
<g id="edge32_Node000023_Node000018" class="edge">
<title>Node23&#45;&gt;Node18</title>
<g id="a_edge32_Node000023_Node000018"><a xlink:title=" ">
<path fill="none" stroke="#63b8ff" d="M313.67,-111.59C344.78,-102.71 391.67,-89.31 425.93,-79.52"/>
<polygon fill="#63b8ff" stroke="#63b8ff" points="426.46,-83.01 435.12,-76.9 424.54,-76.28 426.46,-83.01"/>
</a>
</g>
</g>
<!-- Node24&#45;&gt;Node17 -->
<g id="edge34_Node000024_Node000017" class="edge">
<title>Node24&#45;&gt;Node17</title>
<g id="a_edge34_Node000024_Node000017"><a xlink:title=" ">
<path fill="none" stroke="#63b8ff" d="M412.21,-111.59C405.47,-104.16 395.86,-93.58 387.71,-84.58"/>
<polygon fill="#63b8ff" stroke="#63b8ff" points="390.52,-82.47 381.2,-77.42 385.33,-87.18 390.52,-82.47"/>
</a>
</g>
</g>
<!-- Node24&#45;&gt;Node18 -->
<g id="edge35_Node000024_Node000018" class="edge">
<title>Node24&#45;&gt;Node18</title>
<g id="a_edge35_Node000024_Node000018"><a xlink:title=" ">
<path fill="none" stroke="#63b8ff" d="M429.29,-111.59C436.03,-104.16 445.64,-93.58 453.79,-84.58"/>
<polygon fill="#63b8ff" stroke="#63b8ff" points="456.17,-87.18 460.3,-77.42 450.98,-82.47 456.17,-87.18"/>
</a>
</g>
</g>
<!-- Node25&#45;&gt;Node17 -->
<g id="edge44_Node000025_Node000017" class="edge">
<title>Node25&#45;&gt;Node17</title>
<g id="a_edge44_Node000025_Node000017"><a xlink:title=" ">
<path fill="none" stroke="#63b8ff" d="M65.73,-113.74C68.77,-113.12 71.82,-112.54 74.75,-112 162.52,-95.96 265.63,-81.26 324.38,-73.27"/>
<polygon fill="#63b8ff" stroke="#63b8ff" points="324.57,-76.78 334.01,-71.97 323.64,-69.84 324.57,-76.78"/>
</a>
</g>
</g>
<!-- Node25&#45;&gt;Node18 -->
<g id="edge45_Node000025_Node000018" class="edge">
<title>Node25&#45;&gt;Node18</title>
<g id="a_edge45_Node000025_Node000018"><a xlink:title=" ">
<path fill="none" stroke="#63b8ff" d="M65.7,-113.59C68.75,-113.01 71.8,-112.47 74.75,-112 222.15,-88.52 263.41,-96.41 414.47,-76.23"/>
<polygon fill="#63b8ff" stroke="#63b8ff" points="414.6,-79.74 424.04,-74.93 413.66,-72.8 414.6,-79.74"/>
</a>
</g>
</g>
<!-- Node39 -->
<g id="Node000039" class="node">
<title>Node39</title>
<g id="a_Node000039"><a xlink:href="IRepository_8hpp.html" target="_top" xlink:title=" ">
<polygon fill="white" stroke="#666666" points="1545.88,-132 1461.62,-132 1461.62,-112 1545.88,-112 1545.88,-132"/>
<text text-anchor="middle" x="1503.75" y="-118.5" font-family="Helvetica,sans-Serif" font-size="10.00">IRepository.hpp</text>
</a>
</g>
</g>
<!-- Node38&#45;&gt;Node39 -->
<g id="edge64_Node000038_Node000039" class="edge">
<title>Node38&#45;&gt;Node39</title>
<g id="a_edge64_Node000038_Node000039"><a xlink:title=" ">
<path fill="none" stroke="#63b8ff" d="M1424.31,-167.55C1440.56,-158.43 1461.03,-146.96 1477.12,-137.93"/>
<polygon fill="#63b8ff" stroke="#63b8ff" points="1478.64,-141.09 1485.65,-133.15 1475.22,-134.99 1478.64,-141.09"/>
</a>
</g>
</g>
<!-- Node40 -->
<g id="Node000040" class="node">
<title>Node40</title>
<g id="a_Node000040"><a xlink:href="notification_2repositories_2NotificationDTO_8hpp.html" target="_top" xlink:title=" ">
<polygon fill="white" stroke="#666666" points="1443.38,-132 1338.12,-132 1338.12,-112 1443.38,-112 1443.38,-132"/>
<text text-anchor="middle" x="1390.75" y="-118.5" font-family="Helvetica,sans-Serif" font-size="10.00">NotificationDTO.hpp</text>
</a>
</g>
</g>
<!-- Node38&#45;&gt;Node40 -->
<g id="edge66_Node000038_Node000040" class="edge">
<title>Node38&#45;&gt;Node40</title>
<g id="a_edge66_Node000038_Node000040"><a xlink:title=" ">
<path fill="none" stroke="#63b8ff" d="M1395.2,-167.55C1394.48,-160.26 1393.6,-151.45 1392.81,-143.6"/>
<polygon fill="#63b8ff" stroke="#63b8ff" points="1396.32,-143.52 1391.84,-133.91 1389.35,-144.21 1396.32,-143.52"/>
</a>
</g>
</g>
<!-- Node39&#45;&gt;Node9 -->
<g id="edge65_Node000039_Node000009" class="edge">
<title>Node39&#45;&gt;Node9</title>
<g id="a_edge65_Node000039_Node000009"><a xlink:title=" ">
<path fill="none" stroke="#63b8ff" d="M1503.23,-111.59C1502.86,-105.01 1502.36,-95.96 1501.9,-87.73"/>
<polygon fill="#63b8ff" stroke="#63b8ff" points="1505.4,-87.6 1501.35,-77.81 1498.41,-87.99 1505.4,-87.6"/>
</a>
</g>
</g>
<!-- Node40&#45;&gt;Node12 -->
<g id="edge68_Node000040_Node000012" class="edge">
<title>Node40&#45;&gt;Node12</title>
<g id="a_edge68_Node000040_Node000012"><a xlink:title=" ">
<path fill="none" stroke="#63b8ff" d="M1376.12,-111.59C1363.67,-103.59 1345.53,-91.93 1330.93,-82.54"/>
<polygon fill="#63b8ff" stroke="#63b8ff" points="1333.07,-79.76 1322.77,-77.3 1329.29,-85.65 1333.07,-79.76"/>
</a>
</g>
</g>
<!-- Node40&#45;&gt;Node15 -->
<g id="edge67_Node000040_Node000015" class="edge">
<title>Node40&#45;&gt;Node15</title>
<g id="a_edge67_Node000040_Node000015"><a xlink:title=" ">
<path fill="none" stroke="#63b8ff" d="M1392.32,-111.59C1393.43,-104.93 1394.96,-95.75 1396.34,-87.44"/>
<polygon fill="#63b8ff" stroke="#63b8ff" points="1399.76,-88.23 1397.95,-77.79 1392.86,-87.08 1399.76,-88.23"/>
</a>
</g>
</g>
</g>
</svg>
