<?xml version="1.0" encoding="UTF-8" standalone="no"?>
<!DOCTYPE svg PUBLIC "-//W3C//DTD SVG 1.1//EN"
 "http://www.w3.org/Graphics/SVG/1.1/DTD/svg11.dtd">
<!-- Generated by graphviz version 12.2.1 (0)
 -->
<!-- Title: src/bot_library/commands/notification/repositories/NotificationDTO.cpp Pages: 1 -->
<svg width="179pt" height="220pt"
 viewBox="0.00 0.00 179.12 220.00" xmlns="http://www.w3.org/2000/svg" xmlns:xlink="http://www.w3.org/1999/xlink">
<g id="graph0" class="graph" transform="scale(1 1) rotate(0) translate(4 216)">
<title>src/bot_library/commands/notification/repositories/NotificationDTO.cpp</title>
<!-- Node1 -->
<g id="Node000001" class="node">
<title>Node1</title>
<g id="a_Node000001"><a xlink:title=" ">
<polygon fill="#999999" stroke="#666666" points="171.12,-212 42.62,-212 42.62,-168 171.12,-168 171.12,-212"/>
<text text-anchor="start" x="50.62" y="-198.5" font-family="Helvetica,sans-Serif" font-size="10.00">src/bot_library/commands</text>
<text text-anchor="start" x="50.62" y="-186.5" font-family="Helvetica,sans-Serif" font-size="10.00">/notification/repositories</text>
<text text-anchor="middle" x="106.88" y="-174.5" font-family="Helvetica,sans-Serif" font-size="10.00">/NotificationDTO.cpp</text>
</a>
</g>
</g>
<!-- Node2 -->
<g id="Node000002" class="node">
<title>Node2</title>
<g id="a_Node000002"><a xlink:href="notification_2repositories_2NotificationDTO_8hpp.html" target="_top" xlink:title=" ">
<polygon fill="white" stroke="#666666" points="119.5,-132 14.25,-132 14.25,-112 119.5,-112 119.5,-132"/>
<text text-anchor="middle" x="66.88" y="-118.5" font-family="Helvetica,sans-Serif" font-size="10.00">NotificationDTO.hpp</text>
</a>
</g>
</g>
<!-- Node1&#45;&gt;Node2 -->
<g id="edge1_Node000001_Node000002" class="edge">
<title>Node1&#45;&gt;Node2</title>
<g id="a_edge1_Node000001_Node000002"><a xlink:title=" ">
<path fill="none" stroke="#63b8ff" d="M94,-167.75C88.98,-159.47 83.27,-150.06 78.39,-142.01"/>
<polygon fill="#63b8ff" stroke="#63b8ff" points="81.54,-140.45 73.37,-133.71 75.56,-144.08 81.54,-140.45"/>
</a>
</g>
</g>
<!-- Node5 -->
<g id="Node000005" class="node">
<title>Node5</title>
<g id="a_Node000005"><a xlink:title=" ">
<polygon fill="#e0e0e0" stroke="#999999" points="167.88,-76 127.88,-76 127.88,-56 167.88,-56 167.88,-76"/>
<text text-anchor="middle" x="147.88" y="-62.5" font-family="Helvetica,sans-Serif" font-size="10.00">string</text>
</a>
</g>
</g>
<!-- Node1&#45;&gt;Node5 -->
<g id="edge5_Node000001_Node000005" class="edge">
<title>Node1&#45;&gt;Node5</title>
<g id="a_edge5_Node000001_Node000005"><a xlink:title=" ">
<path fill="none" stroke="#63b8ff" d="M115.66,-167.5C119.87,-156.89 124.86,-143.86 128.88,-132 133.9,-117.15 138.85,-100.13 142.43,-87.23"/>
<polygon fill="#63b8ff" stroke="#63b8ff" points="145.75,-88.36 145.01,-77.79 139,-86.52 145.75,-88.36"/>
</a>
</g>
</g>
<!-- Node3 -->
<g id="Node000003" class="node">
<title>Node3</title>
<g id="a_Node000003"><a xlink:href="RowDTOAdapter_8hpp.html" target="_top" xlink:title=" ">
<polygon fill="white" stroke="#666666" points="109.75,-76 0,-76 0,-56 109.75,-56 109.75,-76"/>
<text text-anchor="middle" x="54.88" y="-62.5" font-family="Helvetica,sans-Serif" font-size="10.00">RowDTOAdapter.hpp</text>
</a>
</g>
</g>
<!-- Node2&#45;&gt;Node3 -->
<g id="edge2_Node000002_Node000003" class="edge">
<title>Node2&#45;&gt;Node3</title>
<g id="a_edge2_Node000002_Node000003"><a xlink:title=" ">
<path fill="none" stroke="#63b8ff" d="M64.78,-111.59C63.3,-104.93 61.26,-95.75 59.42,-87.44"/>
<polygon fill="#63b8ff" stroke="#63b8ff" points="62.86,-86.78 57.27,-77.78 56.02,-88.3 62.86,-86.78"/>
</a>
</g>
</g>
<!-- Node2&#45;&gt;Node5 -->
<g id="edge4_Node000002_Node000005" class="edge">
<title>Node2&#45;&gt;Node5</title>
<g id="a_edge4_Node000002_Node000005"><a xlink:title=" ">
<path fill="none" stroke="#63b8ff" d="M80.98,-111.59C92.87,-103.67 110.14,-92.16 124.15,-82.82"/>
<polygon fill="#63b8ff" stroke="#63b8ff" points="126.02,-85.78 132.4,-77.32 122.13,-79.95 126.02,-85.78"/>
</a>
</g>
</g>
<!-- Node4 -->
<g id="Node000004" class="node">
<title>Node4</title>
<g id="a_Node000004"><a xlink:title=" ">
<polygon fill="#e0e0e0" stroke="#999999" points="85.38,-20 24.37,-20 24.37,0 85.38,0 85.38,-20"/>
<text text-anchor="middle" x="54.88" y="-6.5" font-family="Helvetica,sans-Serif" font-size="10.00">pqxx/pqxx</text>
</a>
</g>
</g>
<!-- Node3&#45;&gt;Node4 -->
<g id="edge3_Node000003_Node000004" class="edge">
<title>Node3&#45;&gt;Node4</title>
<g id="a_edge3_Node000003_Node000004"><a xlink:title=" ">
<path fill="none" stroke="#63b8ff" d="M54.88,-55.59C54.88,-49.01 54.88,-39.96 54.88,-31.73"/>
<polygon fill="#63b8ff" stroke="#63b8ff" points="58.38,-31.81 54.88,-21.81 51.38,-31.81 58.38,-31.81"/>
</a>
</g>
</g>
</g>
</svg>
