<?xml version="1.0" encoding="UTF-8" standalone="no"?>
<!DOCTYPE svg PUBLIC "-//W3C//DTD SVG 1.1//EN"
 "http://www.w3.org/Graphics/SVG/1.1/DTD/svg11.dtd">
<!-- Generated by graphviz version 12.2.1 (0)
 -->
<!-- Title: src/bot_library/commands/notification/repositories/NotificationRepository.hpp Pages: 1 -->
<svg width="358pt" height="132pt"
 viewBox="0.00 0.00 357.62 132.00" xmlns="http://www.w3.org/2000/svg" xmlns:xlink="http://www.w3.org/1999/xlink">
<g id="graph0" class="graph" transform="scale(1 1) rotate(0) translate(4 128)">
<title>src/bot_library/commands/notification/repositories/NotificationRepository.hpp</title>
<!-- Node1 -->
<g id="Node000001" class="node">
<title>Node1</title>
<g id="a_Node000001"><a xlink:title=" ">
<polygon fill="#999999" stroke="#666666" points="257.62,-124 123.88,-124 123.88,-80 257.62,-80 257.62,-124"/>
<text text-anchor="start" x="131.88" y="-110.5" font-family="Helvetica,sans-Serif" font-size="10.00">src/bot_library/commands</text>
<text text-anchor="start" x="131.88" y="-98.5" font-family="Helvetica,sans-Serif" font-size="10.00">/notification/repositories</text>
<text text-anchor="middle" x="190.75" y="-86.5" font-family="Helvetica,sans-Serif" font-size="10.00">/NotificationRepository.hpp</text>
</a>
</g>
</g>
<!-- Node2 -->
<g id="Node000002" class="node">
<title>Node2</title>
<g id="a_Node000002"><a xlink:href="notification_2SetNotificationCommand_8cpp.html" target="_top" xlink:title=" ">
<polygon fill="white" stroke="#666666" points="197.5,-38 0,-38 0,-6 197.5,-6 197.5,-38"/>
<text text-anchor="start" x="8" y="-24.5" font-family="Helvetica,sans-Serif" font-size="10.00">src/bot_library/commands</text>
<text text-anchor="middle" x="98.75" y="-12.5" font-family="Helvetica,sans-Serif" font-size="10.00">/notification/SetNotificationCommand.cpp</text>
</a>
</g>
</g>
<!-- Node1&#45;&gt;Node2 -->
<g id="edge1_Node000001_Node000002" class="edge">
<title>Node1&#45;&gt;Node2</title>
<g id="a_edge1_Node000001_Node000002"><a xlink:title=" ">
<path fill="none" stroke="#63b8ff" d="M156.96,-72.36C143.39,-60.84 128.28,-48.04 116.86,-38.35"/>
<polygon fill="#63b8ff" stroke="#63b8ff" points="154.57,-74.91 164.46,-78.71 159.09,-69.57 154.57,-74.91"/>
</a>
</g>
</g>
<!-- Node3 -->
<g id="Node000003" class="node">
<title>Node3</title>
<g id="a_Node000003"><a xlink:href="notification_2repositories_2NotificationRepository_8cpp.html" target="_top" xlink:title=" ">
<polygon fill="white" stroke="#666666" points="349.62,-44 215.88,-44 215.88,0 349.62,0 349.62,-44"/>
<text text-anchor="start" x="223.88" y="-30.5" font-family="Helvetica,sans-Serif" font-size="10.00">src/bot_library/commands</text>
<text text-anchor="start" x="223.88" y="-18.5" font-family="Helvetica,sans-Serif" font-size="10.00">/notification/repositories</text>
<text text-anchor="middle" x="282.75" y="-6.5" font-family="Helvetica,sans-Serif" font-size="10.00">/NotificationRepository.cpp</text>
</a>
</g>
</g>
<!-- Node1&#45;&gt;Node3 -->
<g id="edge2_Node000001_Node000003" class="edge">
<title>Node1&#45;&gt;Node3</title>
<g id="a_edge2_Node000001_Node000003"><a xlink:title=" ">
<path fill="none" stroke="#63b8ff" d="M224.43,-72.45C235.41,-63.14 247.4,-52.97 257.64,-44.29"/>
<polygon fill="#63b8ff" stroke="#63b8ff" points="222.41,-69.57 217.04,-78.71 226.93,-74.91 222.41,-69.57"/>
</a>
</g>
</g>
</g>
</svg>
