<?xml version="1.0" encoding="UTF-8" standalone="no"?>
<!DOCTYPE svg PUBLIC "-//W3C//DTD SVG 1.1//EN"
 "http://www.w3.org/Graphics/SVG/1.1/DTD/svg11.dtd">
<!-- Generated by graphviz version 13.0.1 (0)
 -->
<!-- Title: src/bot_library/commands/portal/repositories/PortalRepository.hpp Pages: 1 -->
<svg width="265pt" height="264pt"
 viewBox="0.00 0.00 265.00 264.00" xmlns="http://www.w3.org/2000/svg" xmlns:xlink="http://www.w3.org/1999/xlink">
<g id="graph0" class="graph" transform="scale(1 1) rotate(0) translate(4 260)">
<title>src/bot_library/commands/portal/repositories/PortalRepository.hpp</title>
<!-- Node1 -->
<g id="Node000001" class="node">
<title>Node1</title>
<g id="a_Node000001"><a xlink:title=" ">
<polygon fill="#999999" stroke="#666666" points="190,-256 0,-256 0,-224 190,-224 190,-256"/>
<text xml:space="preserve" text-anchor="start" x="8" y="-242.5" font-family="Helvetica,sans-Serif" font-size="10.00">src/bot_library/commands</text>
<text xml:space="preserve" text-anchor="middle" x="95" y="-230.5" font-family="Helvetica,sans-Serif" font-size="10.00">/portal/repositories/PortalRepository.hpp</text>
</a>
</g>
</g>
<!-- Node2 -->
<g id="Node000002" class="node">
<title>Node2</title>
<g id="a_Node000002"><a xlink:href="IRepository_8hpp.html" target="_top" xlink:title=" ">
<polygon fill="white" stroke="#666666" points="87.12,-188 2.88,-188 2.88,-168 87.12,-168 87.12,-188"/>
<text xml:space="preserve" text-anchor="middle" x="45" y="-174.5" font-family="Helvetica,sans-Serif" font-size="10.00">IRepository.hpp</text>
</a>
</g>
</g>
<!-- Node1&#45;&gt;Node2 -->
<g id="edge1_Node000001_Node000002" class="edge">
<title>Node1&#45;&gt;Node2</title>
<g id="a_edge1_Node000001_Node000002"><a xlink:title=" ">
<path fill="none" stroke="#63b8ff" d="M82.12,-223.55C75.4,-215.48 67.12,-205.55 60.1,-197.12"/>
<polygon fill="#63b8ff" stroke="#63b8ff" points="62.9,-195.01 53.81,-189.57 57.52,-199.49 62.9,-195.01"/>
</a>
</g>
</g>
<!-- Node4 -->
<g id="Node000004" class="node">
<title>Node4</title>
<g id="a_Node000004"><a xlink:href="PortalDTO_8hpp.html" target="_top" xlink:title=" ">
<polygon fill="white" stroke="#666666" points="186.62,-188 105.38,-188 105.38,-168 186.62,-168 186.62,-188"/>
<text xml:space="preserve" text-anchor="middle" x="146" y="-174.5" font-family="Helvetica,sans-Serif" font-size="10.00">PortalDTO.hpp</text>
</a>
</g>
</g>
<!-- Node1&#45;&gt;Node4 -->
<g id="edge3_Node000001_Node000004" class="edge">
<title>Node1&#45;&gt;Node4</title>
<g id="a_edge3_Node000001_Node000004"><a xlink:title=" ">
<path fill="none" stroke="#63b8ff" d="M108.13,-223.55C115,-215.48 123.43,-205.55 130.6,-197.12"/>
<polygon fill="#63b8ff" stroke="#63b8ff" points="133.21,-199.45 137.02,-189.56 127.88,-194.91 133.21,-199.45"/>
</a>
</g>
</g>
<!-- Node3 -->
<g id="Node000003" class="node">
<title>Node3</title>
<g id="a_Node000003"><a xlink:title=" ">
<polygon fill="#e0e0e0" stroke="#999999" points="69.12,-132 20.88,-132 20.88,-112 69.12,-112 69.12,-132"/>
<text xml:space="preserve" text-anchor="middle" x="45" y="-118.5" font-family="Helvetica,sans-Serif" font-size="10.00">cstddef</text>
</a>
</g>
</g>
<!-- Node2&#45;&gt;Node3 -->
<g id="edge2_Node000002_Node000003" class="edge">
<title>Node2&#45;&gt;Node3</title>
<g id="a_edge2_Node000002_Node000003"><a xlink:title=" ">
<path fill="none" stroke="#63b8ff" d="M45,-167.59C45,-161.01 45,-151.96 45,-143.73"/>
<polygon fill="#63b8ff" stroke="#63b8ff" points="48.5,-143.81 45,-133.81 41.5,-143.81 48.5,-143.81"/>
</a>
</g>
</g>
<!-- Node5 -->
<g id="Node000005" class="node">
<title>Node5</title>
<g id="a_Node000005"><a xlink:href="RowDTOAdapter_8hpp.html" target="_top" xlink:title=" ">
<polygon fill="white" stroke="#666666" points="198.88,-132 89.12,-132 89.12,-112 198.88,-112 198.88,-132"/>
<text xml:space="preserve" text-anchor="middle" x="144" y="-118.5" font-family="Helvetica,sans-Serif" font-size="10.00">RowDTOAdapter.hpp</text>
</a>
</g>
</g>
<!-- Node4&#45;&gt;Node5 -->
<g id="edge4_Node000004_Node000005" class="edge">
<title>Node4&#45;&gt;Node5</title>
<g id="a_edge4_Node000004_Node000005"><a xlink:title=" ">
<path fill="none" stroke="#63b8ff" d="M145.65,-167.59C145.41,-161.01 145.07,-151.96 144.77,-143.73"/>
<polygon fill="#63b8ff" stroke="#63b8ff" points="148.27,-143.67 144.4,-133.81 141.27,-143.93 148.27,-143.67"/>
</a>
</g>
</g>
<!-- Node8 -->
<g id="Node000008" class="node">
<title>Node8</title>
<g id="a_Node000008"><a xlink:title=" ">
<polygon fill="#e0e0e0" stroke="#999999" points="257,-132 217,-132 217,-112 257,-112 257,-132"/>
<text xml:space="preserve" text-anchor="middle" x="237" y="-118.5" font-family="Helvetica,sans-Serif" font-size="10.00">string</text>
</a>
</g>
</g>
<!-- Node4&#45;&gt;Node8 -->
<g id="edge7_Node000004_Node000008" class="edge">
<title>Node4&#45;&gt;Node8</title>
<g id="a_edge7_Node000004_Node000008"><a xlink:title=" ">
<path fill="none" stroke="#63b8ff" d="M161.85,-167.59C175.47,-159.51 195.36,-147.71 211.26,-138.27"/>
<polygon fill="#63b8ff" stroke="#63b8ff" points="212.91,-141.37 219.72,-133.25 209.34,-135.35 212.91,-141.37"/>
</a>
</g>
</g>
<!-- Node6 -->
<g id="Node000006" class="node">
<title>Node6</title>
<g id="a_Node000006"><a xlink:href="DatabaseBackend_8hpp.html" target="_top" xlink:title=" ">
<polygon fill="white" stroke="#666666" points="201.5,-76 86.5,-76 86.5,-56 201.5,-56 201.5,-76"/>
<text xml:space="preserve" text-anchor="middle" x="144" y="-62.5" font-family="Helvetica,sans-Serif" font-size="10.00">DatabaseBackend.hpp</text>
</a>
</g>
</g>
<!-- Node5&#45;&gt;Node6 -->
<g id="edge5_Node000005_Node000006" class="edge">
<title>Node5&#45;&gt;Node6</title>
<g id="a_edge5_Node000005_Node000006"><a xlink:title=" ">
<path fill="none" stroke="#63b8ff" d="M144,-111.59C144,-105.01 144,-95.96 144,-87.73"/>
<polygon fill="#63b8ff" stroke="#63b8ff" points="147.5,-87.81 144,-77.81 140.5,-87.81 147.5,-87.81"/>
</a>
</g>
</g>
<!-- Node7 -->
<g id="Node000007" class="node">
<title>Node7</title>
<g id="a_Node000007"><a xlink:title=" ">
<polygon fill="#e0e0e0" stroke="#999999" points="174.5,-20 113.5,-20 113.5,0 174.5,0 174.5,-20"/>
<text xml:space="preserve" text-anchor="middle" x="144" y="-6.5" font-family="Helvetica,sans-Serif" font-size="10.00">pqxx/pqxx</text>
</a>
</g>
</g>
<!-- Node6&#45;&gt;Node7 -->
<g id="edge6_Node000006_Node000007" class="edge">
<title>Node6&#45;&gt;Node7</title>
<g id="a_edge6_Node000006_Node000007"><a xlink:title=" ">
<path fill="none" stroke="#63b8ff" d="M144,-55.59C144,-49.01 144,-39.96 144,-31.73"/>
<polygon fill="#63b8ff" stroke="#63b8ff" points="147.5,-31.81 144,-21.81 140.5,-31.81 147.5,-31.81"/>
</a>
</g>
</g>
</g>
</svg>
