<?xml version="1.0" encoding="UTF-8" standalone="no"?>
<!DOCTYPE svg PUBLIC "-//W3C//DTD SVG 1.1//EN"
 "http://www.w3.org/Graphics/SVG/1.1/DTD/svg11.dtd">
<!-- Generated by graphviz version 14.1.5 (0)
 -->
<!-- Title: src/bot_library/commands/portal/repositories/PortalRepository.cpp Pages: 1 -->
<svg width="650pt" height="320pt"
 viewBox="0.00 0.00 650.00 320.00" xmlns="http://www.w3.org/2000/svg" xmlns:xlink="http://www.w3.org/1999/xlink">
<g id="graph0" class="graph" transform="scale(1 1) rotate(0) translate(4 316)">
<title>src/bot_library/commands/portal/repositories/PortalRepository.cpp</title>
<!-- Node1 -->
<g id="Node000001" class="node">
<title>Node1</title>
<g id="a_Node000001"><a xlink:title=" ">
<polygon fill="#999999" stroke="#666666" points="272.03,-312 82.03,-312 82.03,-280 272.03,-280 272.03,-312"/>
<text xml:space="preserve" text-anchor="start" x="90.03" y="-298.5" font-family="Helvetica,sans-Serif" font-size="10.00">src/bot_library/commands</text>
<text xml:space="preserve" text-anchor="middle" x="177.03" y="-286.5" font-family="Helvetica,sans-Serif" font-size="10.00">/portal/repositories/PortalRepository.cpp</text>
</a>
</g>
</g>
<!-- Node2 -->
<g id="Node000002" class="node">
<title>Node2</title>
<g id="a_Node000002"><a xlink:href="PortalRepository_8hpp.html" target="_top" xlink:title=" ">
<polygon fill="white" stroke="#666666" points="126.41,-244 19.66,-244 19.66,-224 126.41,-224 126.41,-244"/>
<text xml:space="preserve" text-anchor="middle" x="73.03" y="-230.5" font-family="Helvetica,sans-Serif" font-size="10.00">PortalRepository.hpp</text>
</a>
</g>
</g>
<!-- Node1&#45;&gt;Node2 -->
<g id="edge1_Node000001_Node000002" class="edge">
<title>Node1&#45;&gt;Node2</title>
<g id="a_edge1_Node000001_Node000002"><a xlink:title=" ">
<path fill="none" stroke="#63b8ff" d="M150.25,-279.55C134.45,-270.43 114.55,-258.96 98.91,-249.93"/>
<polygon fill="#63b8ff" stroke="#63b8ff" points="101.06,-247.13 90.65,-245.16 97.56,-253.19 101.06,-247.13"/>
</a>
</g>
</g>
<!-- Node4 -->
<g id="Node000004" class="node">
<title>Node4</title>
<g id="a_Node000004"><a xlink:title=" ">
<polygon fill="#e0e0e0" stroke="#999999" points="56.16,-132 7.91,-132 7.91,-112 56.16,-112 56.16,-132"/>
<text xml:space="preserve" text-anchor="middle" x="32.03" y="-118.5" font-family="Helvetica,sans-Serif" font-size="10.00">cstddef</text>
</a>
</g>
</g>
<!-- Node1&#45;&gt;Node4 -->
<g id="edge17_Node000001_Node000004" class="edge">
<title>Node1&#45;&gt;Node4</title>
<g id="a_edge17_Node000001_Node000004"><a xlink:title=" ">
<path fill="none" stroke="#63b8ff" d="M81.54,-286.85C54.44,-279.59 27.78,-266.67 11.03,-244 -11.26,-213.83 7.01,-167.97 20.62,-142.24"/>
<polygon fill="#63b8ff" stroke="#63b8ff" points="23.64,-144.01 25.47,-133.58 17.53,-140.59 23.64,-144.01"/>
</a>
</g>
</g>
<!-- Node5 -->
<g id="Node000005" class="node">
<title>Node5</title>
<g id="a_Node000005"><a xlink:href="PortalDTO_8hpp.html" target="_top" xlink:title=" ">
<polygon fill="white" stroke="#666666" points="254.66,-188 173.41,-188 173.41,-168 254.66,-168 254.66,-188"/>
<text xml:space="preserve" text-anchor="middle" x="214.03" y="-174.5" font-family="Helvetica,sans-Serif" font-size="10.00">PortalDTO.hpp</text>
</a>
</g>
</g>
<!-- Node1&#45;&gt;Node5 -->
<g id="edge20_Node000001_Node000005" class="edge">
<title>Node1&#45;&gt;Node5</title>
<g id="a_edge20_Node000001_Node000005"><a xlink:title=" ">
<path fill="none" stroke="#63b8ff" d="M181.87,-279.84C188.44,-259.22 200.22,-222.29 207.55,-199.31"/>
<polygon fill="#63b8ff" stroke="#63b8ff" points="210.86,-200.47 210.56,-189.88 204.19,-198.34 210.86,-200.47"/>
</a>
</g>
</g>
<!-- Node9 -->
<g id="Node000009" class="node">
<title>Node9</title>
<g id="a_Node000009"><a xlink:title=" ">
<polygon fill="#e0e0e0" stroke="#999999" points="141.03,-132 101.03,-132 101.03,-112 141.03,-112 141.03,-132"/>
<text xml:space="preserve" text-anchor="middle" x="121.03" y="-118.5" font-family="Helvetica,sans-Serif" font-size="10.00">string</text>
</a>
</g>
</g>
<!-- Node1&#45;&gt;Node9 -->
<g id="edge18_Node000001_Node000009" class="edge">
<title>Node1&#45;&gt;Node9</title>
<g id="a_edge18_Node000001_Node000009"><a xlink:title=" ">
<path fill="none" stroke="#63b8ff" d="M172.06,-279.74C161.91,-248.55 138.79,-177.56 127.49,-142.85"/>
<polygon fill="#63b8ff" stroke="#63b8ff" points="130.92,-142.07 124.5,-133.65 124.27,-144.24 130.92,-142.07"/>
</a>
</g>
</g>
<!-- Node10 -->
<g id="Node000010" class="node">
<title>Node10</title>
<g id="a_Node000010"><a xlink:href="DatabaseExecutor_8hpp.html" target="_top" xlink:title=" ">
<polygon fill="white" stroke="#666666" points="427.91,-188 312.16,-188 312.16,-168 427.91,-168 427.91,-188"/>
<text xml:space="preserve" text-anchor="middle" x="370.03" y="-174.5" font-family="Helvetica,sans-Serif" font-size="10.00">DatabaseExecutor.hpp</text>
</a>
</g>
</g>
<!-- Node1&#45;&gt;Node10 -->
<g id="edge9_Node000001_Node000010" class="edge">
<title>Node1&#45;&gt;Node10</title>
<g id="a_edge9_Node000001_Node000010"><a xlink:title=" ">
<path fill="none" stroke="#63b8ff" d="M202.66,-279.6C239.78,-257.29 308.06,-216.24 344.9,-194.1"/>
<polygon fill="#63b8ff" stroke="#63b8ff" points="346.34,-197.32 353.11,-189.17 342.73,-191.32 346.34,-197.32"/>
</a>
</g>
</g>
<!-- Node13 -->
<g id="Node000013" class="node">
<title>Node13</title>
<g id="a_Node000013"><a xlink:title=" ">
<polygon fill="#e0e0e0" stroke="#999999" points="641.53,-132 598.53,-132 598.53,-112 641.53,-112 641.53,-132"/>
<text xml:space="preserve" text-anchor="middle" x="620.03" y="-118.5" font-family="Helvetica,sans-Serif" font-size="10.00">vector</text>
</a>
</g>
</g>
<!-- Node1&#45;&gt;Node13 -->
<g id="edge19_Node000001_Node000013" class="edge">
<title>Node1&#45;&gt;Node13</title>
<g id="a_edge19_Node000001_Node000013"><a xlink:title=" ">
<path fill="none" stroke="#63b8ff" d="M216.73,-279.58C303.55,-245.88 508.81,-166.18 588.05,-135.42"/>
<polygon fill="#63b8ff" stroke="#63b8ff" points="588.9,-138.84 596.96,-131.96 586.37,-132.32 588.9,-138.84"/>
</a>
</g>
</g>
<!-- Node3 -->
<g id="Node000003" class="node">
<title>Node3</title>
<g id="a_Node000003"><a xlink:href="IRepository_8hpp.html" target="_top" xlink:title=" ">
<polygon fill="white" stroke="#666666" points="109.16,-188 24.91,-188 24.91,-168 109.16,-168 109.16,-188"/>
<text xml:space="preserve" text-anchor="middle" x="67.03" y="-174.5" font-family="Helvetica,sans-Serif" font-size="10.00">IRepository.hpp</text>
</a>
</g>
</g>
<!-- Node2&#45;&gt;Node3 -->
<g id="edge2_Node000002_Node000003" class="edge">
<title>Node2&#45;&gt;Node3</title>
<g id="a_edge2_Node000002_Node000003"><a xlink:title=" ">
<path fill="none" stroke="#63b8ff" d="M71.99,-223.59C71.25,-217.01 70.25,-207.96 69.33,-199.73"/>
<polygon fill="#63b8ff" stroke="#63b8ff" points="72.81,-199.35 68.23,-189.8 65.86,-200.13 72.81,-199.35"/>
</a>
</g>
</g>
<!-- Node2&#45;&gt;Node5 -->
<g id="edge4_Node000002_Node000005" class="edge">
<title>Node2&#45;&gt;Node5</title>
<g id="a_edge4_Node000002_Node000005"><a xlink:title=" ">
<path fill="none" stroke="#63b8ff" d="M97.59,-223.59C120,-215.01 153.37,-202.23 178.65,-192.55"/>
<polygon fill="#63b8ff" stroke="#63b8ff" points="179.78,-195.87 187.87,-189.02 177.27,-189.33 179.78,-195.87"/>
</a>
</g>
</g>
<!-- Node3&#45;&gt;Node4 -->
<g id="edge3_Node000003_Node000004" class="edge">
<title>Node3&#45;&gt;Node4</title>
<g id="a_edge3_Node000003_Node000004"><a xlink:title=" ">
<path fill="none" stroke="#63b8ff" d="M60.93,-167.59C56.32,-160.47 49.82,-150.45 44.16,-141.72"/>
<polygon fill="#63b8ff" stroke="#63b8ff" points="47.26,-140.06 38.88,-133.57 41.38,-143.86 47.26,-140.06"/>
</a>
</g>
</g>
<!-- Node6 -->
<g id="Node000006" class="node">
<title>Node6</title>
<g id="a_Node000006"><a xlink:href="RowDTOAdapter_8hpp.html" target="_top" xlink:title=" ">
<polygon fill="white" stroke="#666666" points="268.91,-132 159.16,-132 159.16,-112 268.91,-112 268.91,-132"/>
<text xml:space="preserve" text-anchor="middle" x="214.03" y="-118.5" font-family="Helvetica,sans-Serif" font-size="10.00">RowDTOAdapter.hpp</text>
</a>
</g>
</g>
<!-- Node5&#45;&gt;Node6 -->
<g id="edge5_Node000005_Node000006" class="edge">
<title>Node5&#45;&gt;Node6</title>
<g id="a_edge5_Node000005_Node000006"><a xlink:title=" ">
<path fill="none" stroke="#63b8ff" d="M214.03,-167.59C214.03,-161.01 214.03,-151.96 214.03,-143.73"/>
<polygon fill="#63b8ff" stroke="#63b8ff" points="217.53,-143.81 214.03,-133.81 210.53,-143.81 217.53,-143.81"/>
</a>
</g>
</g>
<!-- Node5&#45;&gt;Node9 -->
<g id="edge8_Node000005_Node000009" class="edge">
<title>Node5&#45;&gt;Node9</title>
<g id="a_edge8_Node000005_Node000009"><a xlink:title=" ">
<path fill="none" stroke="#63b8ff" d="M197.83,-167.59C183.78,-159.44 163.2,-147.48 146.87,-138"/>
<polygon fill="#63b8ff" stroke="#63b8ff" points="149.07,-135.23 138.67,-133.24 145.56,-141.29 149.07,-135.23"/>
</a>
</g>
</g>
<!-- Node7 -->
<g id="Node000007" class="node">
<title>Node7</title>
<g id="a_Node000007"><a xlink:href="DatabaseBackend_8hpp.html" target="_top" xlink:title=" ">
<polygon fill="white" stroke="#666666" points="349.53,-76 234.53,-76 234.53,-56 349.53,-56 349.53,-76"/>
<text xml:space="preserve" text-anchor="middle" x="292.03" y="-62.5" font-family="Helvetica,sans-Serif" font-size="10.00">DatabaseBackend.hpp</text>
</a>
</g>
</g>
<!-- Node6&#45;&gt;Node7 -->
<g id="edge6_Node000006_Node000007" class="edge">
<title>Node6&#45;&gt;Node7</title>
<g id="a_edge6_Node000006_Node000007"><a xlink:title=" ">
<path fill="none" stroke="#63b8ff" d="M227.62,-111.59C239.07,-103.67 255.69,-92.16 269.19,-82.82"/>
<polygon fill="#63b8ff" stroke="#63b8ff" points="270.86,-85.91 277.09,-77.34 266.88,-80.16 270.86,-85.91"/>
</a>
</g>
</g>
<!-- Node8 -->
<g id="Node000008" class="node">
<title>Node8</title>
<g id="a_Node000008"><a xlink:title=" ">
<polygon fill="#e0e0e0" stroke="#999999" points="322.53,-20 261.53,-20 261.53,0 322.53,0 322.53,-20"/>
<text xml:space="preserve" text-anchor="middle" x="292.03" y="-6.5" font-family="Helvetica,sans-Serif" font-size="10.00">pqxx/pqxx</text>
</a>
</g>
</g>
<!-- Node7&#45;&gt;Node8 -->
<g id="edge7_Node000007_Node000008" class="edge">
<title>Node7&#45;&gt;Node8</title>
<g id="a_edge7_Node000007_Node000008"><a xlink:title=" ">
<path fill="none" stroke="#63b8ff" d="M292.03,-55.59C292.03,-49.01 292.03,-39.96 292.03,-31.73"/>
<polygon fill="#63b8ff" stroke="#63b8ff" points="295.53,-31.81 292.03,-21.81 288.53,-31.81 295.53,-31.81"/>
</a>
</g>
</g>
<!-- Node10&#45;&gt;Node6 -->
<g id="edge16_Node000010_Node000006" class="edge">
<title>Node10&#45;&gt;Node6</title>
<g id="a_edge16_Node000010_Node000006"><a xlink:title=" ">
<path fill="none" stroke="#63b8ff" d="M342.86,-167.59C317.73,-158.9 280.15,-145.89 252.05,-136.16"/>
<polygon fill="#63b8ff" stroke="#63b8ff" points="253.44,-132.94 242.85,-132.97 251.15,-139.55 253.44,-132.94"/>
</a>
</g>
</g>
<!-- Node10&#45;&gt;Node9 -->
<g id="edge11_Node000010_Node000009" class="edge">
<title>Node10&#45;&gt;Node9</title>
<g id="a_edge11_Node000010_Node000009"><a xlink:title=" ">
<path fill="none" stroke="#63b8ff" d="M316.35,-167.56C274.13,-159.79 213.62,-147.89 152.29,-132.38"/>
<polygon fill="#63b8ff" stroke="#63b8ff" points="153.26,-129.02 142.71,-129.93 151.52,-135.8 153.26,-129.02"/>
</a>
</g>
</g>
<!-- Node11 -->
<g id="Node000011" class="node">
<title>Node11</title>
<g id="a_Node000011"><a xlink:title=" ">
<polygon fill="#e0e0e0" stroke="#999999" points="580.78,-132 527.28,-132 527.28,-112 580.78,-112 580.78,-132"/>
<text xml:space="preserve" text-anchor="middle" x="554.03" y="-118.5" font-family="Helvetica,sans-Serif" font-size="10.00">iostream</text>
</a>
</g>
</g>
<!-- Node10&#45;&gt;Node11 -->
<g id="edge10_Node000010_Node000011" class="edge">
<title>Node10&#45;&gt;Node11</title>
<g id="a_edge10_Node000010_Node000011"><a xlink:title=" ">
<path fill="none" stroke="#63b8ff" d="M402.08,-167.59C433.81,-158.28 482.39,-144.02 516.04,-134.15"/>
<polygon fill="#63b8ff" stroke="#63b8ff" points="516.78,-137.58 525.39,-131.41 514.8,-130.86 516.78,-137.58"/>
</a>
</g>
</g>
<!-- Node12 -->
<g id="Node000012" class="node">
<title>Node12</title>
<g id="a_Node000012"><a xlink:title=" ">
<polygon fill="#e0e0e0" stroke="#999999" points="509.66,-132 470.41,-132 470.41,-112 509.66,-112 509.66,-132"/>
<text xml:space="preserve" text-anchor="middle" x="490.03" y="-118.5" font-family="Helvetica,sans-Serif" font-size="10.00">utility</text>
</a>
</g>
</g>
<!-- Node10&#45;&gt;Node12 -->
<g id="edge12_Node000010_Node000012" class="edge">
<title>Node10&#45;&gt;Node12</title>
<g id="a_edge12_Node000010_Node000012"><a xlink:title=" ">
<path fill="none" stroke="#63b8ff" d="M390.93,-167.59C410,-159.01 438.41,-146.23 459.93,-136.55"/>
<polygon fill="#63b8ff" stroke="#63b8ff" points="461.1,-139.86 468.78,-132.56 458.23,-133.47 461.1,-139.86"/>
</a>
</g>
</g>
<!-- Node10&#45;&gt;Node13 -->
<g id="edge13_Node000010_Node000013" class="edge">
<title>Node10&#45;&gt;Node13</title>
<g id="a_edge13_Node000010_Node000013"><a xlink:title=" ">
<path fill="none" stroke="#63b8ff" d="M423.23,-167.5C465.44,-159.66 526.15,-147.68 587.15,-132.57"/>
<polygon fill="#63b8ff" stroke="#63b8ff" points="587.82,-136.01 596.67,-130.18 586.12,-129.22 587.82,-136.01"/>
</a>
</g>
</g>
<!-- Node14 -->
<g id="Node000014" class="node">
<title>Node14</title>
<g id="a_Node000014"><a xlink:href="IDatabaseConnectionProvider_8hpp.html" target="_top" xlink:title=" ">
<polygon fill="white" stroke="#666666" points="452.66,-132 287.41,-132 287.41,-112 452.66,-112 452.66,-132"/>
<text xml:space="preserve" text-anchor="middle" x="370.03" y="-118.5" font-family="Helvetica,sans-Serif" font-size="10.00">IDatabaseConnectionProvider.hpp</text>
</a>
</g>
</g>
<!-- Node10&#45;&gt;Node14 -->
<g id="edge14_Node000010_Node000014" class="edge">
<title>Node10&#45;&gt;Node14</title>
<g id="a_edge14_Node000010_Node000014"><a xlink:title=" ">
<path fill="none" stroke="#63b8ff" d="M370.03,-167.59C370.03,-161.01 370.03,-151.96 370.03,-143.73"/>
<polygon fill="#63b8ff" stroke="#63b8ff" points="373.53,-143.81 370.03,-133.81 366.53,-143.81 373.53,-143.81"/>
</a>
</g>
</g>
<!-- Node14&#45;&gt;Node7 -->
<g id="edge15_Node000014_Node000007" class="edge">
<title>Node14&#45;&gt;Node7</title>
<g id="a_edge15_Node000014_Node000007"><a xlink:title=" ">
<path fill="none" stroke="#63b8ff" d="M356.44,-111.59C344.99,-103.67 328.37,-92.16 314.88,-82.82"/>
<polygon fill="#63b8ff" stroke="#63b8ff" points="317.18,-80.16 306.97,-77.34 313.2,-85.91 317.18,-80.16"/>
</a>
</g>
</g>
</g>
</svg>
