<?xml version="1.0" encoding="UTF-8" standalone="no"?>
<!DOCTYPE svg PUBLIC "-//W3C//DTD SVG 1.1//EN"
 "http://www.w3.org/Graphics/SVG/1.1/DTD/svg11.dtd">
<!-- Generated by graphviz version 13.0.1 (0)
 -->
<!-- Title: src/bot_library/commands/profile/ProfileCommand.cpp Pages: 1 -->
<svg width="1778pt" height="432pt"
 viewBox="0.00 0.00 1778.00 432.00" xmlns="http://www.w3.org/2000/svg" xmlns:xlink="http://www.w3.org/1999/xlink">
<g id="graph0" class="graph" transform="scale(1 1) rotate(0) translate(4 428)">
<title>src/bot_library/commands/profile/ProfileCommand.cpp</title>
<!-- Node1 -->
<g id="Node000001" class="node">
<title>Node1</title>
<g id="a_Node000001"><a xlink:title=" ">
<polygon fill="#999999" stroke="#666666" points="617,-424 477.25,-424 477.25,-392 617,-392 617,-424"/>
<text xml:space="preserve" text-anchor="start" x="485.25" y="-410.5" font-family="Helvetica,sans-Serif" font-size="10.00">src/bot_library/commands</text>
<text xml:space="preserve" text-anchor="middle" x="547.12" y="-398.5" font-family="Helvetica,sans-Serif" font-size="10.00">/profile/ProfileCommand.cpp</text>
</a>
</g>
</g>
<!-- Node2 -->
<g id="Node000002" class="node">
<title>Node2</title>
<g id="a_Node000002"><a xlink:href="ProfileCommand_8hpp.html" target="_top" xlink:title=" ">
<polygon fill="white" stroke="#666666" points="641.88,-356 534.38,-356 534.38,-336 641.88,-336 641.88,-356"/>
<text xml:space="preserve" text-anchor="middle" x="588.12" y="-342.5" font-family="Helvetica,sans-Serif" font-size="10.00">ProfileCommand.hpp</text>
</a>
</g>
</g>
<!-- Node1&#45;&gt;Node2 -->
<g id="edge1_Node000001_Node000002" class="edge">
<title>Node1&#45;&gt;Node2</title>
<g id="a_edge1_Node000001_Node000002"><a xlink:title=" ">
<path fill="none" stroke="#63b8ff" d="M557.68,-391.55C563.08,-383.65 569.69,-373.97 575.37,-365.66"/>
<polygon fill="#63b8ff" stroke="#63b8ff" points="578.09,-367.89 580.84,-357.66 572.31,-363.94 578.09,-367.89"/>
</a>
</g>
</g>
<!-- Node9 -->
<g id="Node000009" class="node">
<title>Node9</title>
<g id="a_Node000009"><a xlink:title=" ">
<polygon fill="#e0e0e0" stroke="#999999" points="435.12,-132 395.12,-132 395.12,-112 435.12,-112 435.12,-132"/>
<text xml:space="preserve" text-anchor="middle" x="415.12" y="-118.5" font-family="Helvetica,sans-Serif" font-size="10.00">string</text>
</a>
</g>
</g>
<!-- Node1&#45;&gt;Node9 -->
<g id="edge69_Node000001_Node000009" class="edge">
<title>Node1&#45;&gt;Node9</title>
<g id="a_edge69_Node000001_Node000009"><a xlink:title=" ">
<path fill="none" stroke="#63b8ff" d="M507.59,-391.63C471.16,-375.09 419.37,-344.95 396.12,-300 369.34,-248.18 392.38,-176.56 406.33,-142.5"/>
<polygon fill="#63b8ff" stroke="#63b8ff" points="409.47,-144.08 410.2,-133.51 403.03,-141.31 409.47,-144.08"/>
</a>
</g>
</g>
<!-- Node10 -->
<g id="Node000010" class="node">
<title>Node10</title>
<g id="a_Node000010"><a xlink:title=" ">
<polygon fill="#e0e0e0" stroke="#999999" points="548.62,-132 505.62,-132 505.62,-112 548.62,-112 548.62,-132"/>
<text xml:space="preserve" text-anchor="middle" x="527.12" y="-118.5" font-family="Helvetica,sans-Serif" font-size="10.00">vector</text>
</a>
</g>
</g>
<!-- Node1&#45;&gt;Node10 -->
<g id="edge70_Node000001_Node000010" class="edge">
<title>Node1&#45;&gt;Node10</title>
<g id="a_edge70_Node000001_Node000010"><a xlink:title=" ">
<path fill="none" stroke="#63b8ff" d="M538.68,-391.91C533.64,-382.03 527.74,-368.65 525.12,-356 523.33,-347.29 523.28,-344.7 525.12,-336 528.76,-318.87 537.49,-317.13 541.12,-300 552.98,-244.12 540.34,-176.39 532.45,-143.25"/>
<polygon fill="#63b8ff" stroke="#63b8ff" points="535.91,-142.66 530.09,-133.8 529.12,-144.35 535.91,-142.66"/>
</a>
</g>
</g>
<!-- Node26 -->
<g id="Node000026" class="node">
<title>Node26</title>
<g id="a_Node000026"><a xlink:title=" ">
<polygon fill="#e0e0e0" stroke="#999999" points="710.38,-356 659.88,-356 659.88,-336 710.38,-336 710.38,-356"/>
<text xml:space="preserve" text-anchor="middle" x="685.12" y="-342.5" font-family="Helvetica,sans-Serif" font-size="10.00">colors.h</text>
</a>
</g>
</g>
<!-- Node1&#45;&gt;Node26 -->
<g id="edge48_Node000001_Node000026" class="edge">
<title>Node1&#45;&gt;Node26</title>
<g id="a_edge48_Node000001_Node000026"><a xlink:title=" ">
<path fill="none" stroke="#63b8ff" d="M582.66,-391.55C604.43,-382.09 632.05,-370.08 653.13,-360.91"/>
<polygon fill="#63b8ff" stroke="#63b8ff" points="654.32,-364.21 662.1,-357.01 651.53,-357.79 654.32,-364.21"/>
</a>
</g>
</g>
<!-- Node27 -->
<g id="Node000027" class="node">
<title>Node27</title>
<g id="a_Node000027"><a xlink:title=" ">
<polygon fill="#e0e0e0" stroke="#999999" points="797.75,-356 728.5,-356 728.5,-336 797.75,-336 797.75,-356"/>
<text xml:space="preserve" text-anchor="middle" x="763.12" y="-342.5" font-family="Helvetica,sans-Serif" font-size="10.00">dispatcher.h</text>
</a>
</g>
</g>
<!-- Node1&#45;&gt;Node27 -->
<g id="edge49_Node000001_Node000027" class="edge">
<title>Node1&#45;&gt;Node27</title>
<g id="a_edge49_Node000001_Node000027"><a xlink:title=" ">
<path fill="none" stroke="#63b8ff" d="M602.75,-391.55C638.58,-381.6 684.54,-368.83 718.08,-359.51"/>
<polygon fill="#63b8ff" stroke="#63b8ff" points="718.78,-362.95 727.48,-356.9 716.91,-356.21 718.78,-362.95"/>
</a>
</g>
</g>
<!-- Node28 -->
<g id="Node000028" class="node">
<title>Node28</title>
<g id="a_Node000028"><a xlink:title=" ">
<polygon fill="#e0e0e0" stroke="#999999" points="862.88,-356 815.38,-356 815.38,-336 862.88,-336 862.88,-356"/>
<text xml:space="preserve" text-anchor="middle" x="839.12" y="-342.5" font-family="Helvetica,sans-Serif" font-size="10.00">invite.h</text>
</a>
</g>
</g>
<!-- Node1&#45;&gt;Node28 -->
<g id="edge50_Node000001_Node000028" class="edge">
<title>Node1&#45;&gt;Node28</title>
<g id="a_edge50_Node000001_Node000028"><a xlink:title=" ">
<path fill="none" stroke="#63b8ff" d="M617.25,-394.82C667.1,-385.81 735.84,-372.64 804.12,-356.59"/>
<polygon fill="#63b8ff" stroke="#63b8ff" points="804.67,-360.06 813.59,-354.34 803.06,-353.25 804.67,-360.06"/>
</a>
</g>
</g>
<!-- Node29 -->
<g id="Node000029" class="node">
<title>Node29</title>
<g id="a_Node000029"><a xlink:title=" ">
<polygon fill="#e0e0e0" stroke="#999999" points="945.12,-356 881.12,-356 881.12,-336 945.12,-336 945.12,-356"/>
<text xml:space="preserve" text-anchor="middle" x="913.12" y="-342.5" font-family="Helvetica,sans-Serif" font-size="10.00">message.h</text>
</a>
</g>
</g>
<!-- Node1&#45;&gt;Node29 -->
<g id="edge51_Node000001_Node000029" class="edge">
<title>Node1&#45;&gt;Node29</title>
<g id="a_edge51_Node000001_Node000029"><a xlink:title=" ">
<path fill="none" stroke="#63b8ff" d="M617.39,-397.23C680.78,-388.12 776.84,-373.63 869.64,-356.38"/>
<polygon fill="#63b8ff" stroke="#63b8ff" points="870.26,-359.82 879.45,-354.54 868.97,-352.94 870.26,-359.82"/>
</a>
</g>
</g>
<!-- Node30 -->
<g id="Node000030" class="node">
<title>Node30</title>
<g id="a_Node000030"><a xlink:title=" ">
<polygon fill="#e0e0e0" stroke="#999999" points="1035.25,-356 963,-356 963,-336 1035.25,-336 1035.25,-356"/>
<text xml:space="preserve" text-anchor="middle" x="999.12" y="-342.5" font-family="Helvetica,sans-Serif" font-size="10.00">misc&#45;enum.h</text>
</a>
</g>
</g>
<!-- Node1&#45;&gt;Node30 -->
<g id="edge52_Node000001_Node000030" class="edge">
<title>Node1&#45;&gt;Node30</title>
<g id="a_edge52_Node000001_Node000030"><a xlink:title=" ">
<path fill="none" stroke="#63b8ff" d="M617.2,-399.79C696.1,-391.31 828.36,-376.05 951.68,-356.3"/>
<polygon fill="#63b8ff" stroke="#63b8ff" points="952.01,-359.79 961.32,-354.74 950.89,-352.88 952.01,-359.79"/>
</a>
</g>
</g>
<!-- Node31 -->
<g id="Node000031" class="node">
<title>Node31</title>
<g id="a_Node000031"><a xlink:href="ChallengeBadgeDTO_8hpp.html" target="_top" xlink:title=" ">
<polygon fill="white" stroke="#666666" points="355.62,-244 228.62,-244 228.62,-224 355.62,-224 355.62,-244"/>
<text xml:space="preserve" text-anchor="middle" x="292.12" y="-230.5" font-family="Helvetica,sans-Serif" font-size="10.00">ChallengeBadgeDTO.hpp</text>
</a>
</g>
</g>
<!-- Node1&#45;&gt;Node31 -->
<g id="edge53_Node000001_Node000031" class="edge">
<title>Node1&#45;&gt;Node31</title>
<g id="a_edge53_Node000001_Node000031"><a xlink:title=" ">
<path fill="none" stroke="#63b8ff" d="M476.82,-400.52C439.61,-394.11 394.95,-381.35 362.12,-356 328.15,-329.76 307.7,-282 298.31,-255"/>
<polygon fill="#63b8ff" stroke="#63b8ff" points="301.68,-254.05 295.24,-245.64 295.03,-256.23 301.68,-254.05"/>
</a>
</g>
</g>
<!-- Node32 -->
<g id="Node000032" class="node">
<title>Node32</title>
<g id="a_Node000032"><a xlink:href="ChallengeBadgeRepository_8hpp.html" target="_top" xlink:title=" ">
<polygon fill="white" stroke="#666666" points="272.38,-356 119.88,-356 119.88,-336 272.38,-336 272.38,-356"/>
<text xml:space="preserve" text-anchor="middle" x="196.12" y="-342.5" font-family="Helvetica,sans-Serif" font-size="10.00">ChallengeBadgeRepository.hpp</text>
</a>
</g>
</g>
<!-- Node1&#45;&gt;Node32 -->
<g id="edge56_Node000001_Node000032" class="edge">
<title>Node1&#45;&gt;Node32</title>
<g id="a_edge56_Node000001_Node000032"><a xlink:title=" ">
<path fill="none" stroke="#63b8ff" d="M476.94,-395C414.5,-384.33 323.85,-368.83 262.58,-358.36"/>
<polygon fill="#63b8ff" stroke="#63b8ff" points="263.43,-354.95 252.98,-356.72 262.25,-361.85 263.43,-354.95"/>
</a>
</g>
</g>
<!-- Node35 -->
<g id="Node000035" class="node">
<title>Node35</title>
<g id="a_Node000035"><a xlink:href="HasBadgeRepository_8hpp.html" target="_top" xlink:title=" ">
<polygon fill="white" stroke="#666666" points="531.62,-300 404.62,-300 404.62,-280 531.62,-280 531.62,-300"/>
<text xml:space="preserve" text-anchor="middle" x="468.12" y="-286.5" font-family="Helvetica,sans-Serif" font-size="10.00">HasBadgeRepository.hpp</text>
</a>
</g>
</g>
<!-- Node1&#45;&gt;Node35 -->
<g id="edge60_Node000001_Node000035" class="edge">
<title>Node1&#45;&gt;Node35</title>
<g id="a_edge60_Node000001_Node000035"><a xlink:title=" ">
<path fill="none" stroke="#63b8ff" d="M526.3,-391.68C514.91,-382.42 501.3,-369.76 492.12,-356 483.03,-342.36 476.81,-324.82 472.99,-311.4"/>
<polygon fill="#63b8ff" stroke="#63b8ff" points="476.43,-310.72 470.52,-301.93 469.66,-312.49 476.43,-310.72"/>
</a>
</g>
</g>
<!-- Node36 -->
<g id="Node000036" class="node">
<title>Node36</title>
<g id="a_Node000036"><a xlink:href="UserDTO_8hpp.html" target="_top" xlink:title=" ">
<polygon fill="white" stroke="#666666" points="224.5,-300 147.75,-300 147.75,-280 224.5,-280 224.5,-300"/>
<text xml:space="preserve" text-anchor="middle" x="186.12" y="-286.5" font-family="Helvetica,sans-Serif" font-size="10.00">UserDTO.hpp</text>
</a>
</g>
</g>
<!-- Node1&#45;&gt;Node36 -->
<g id="edge62_Node000001_Node000036" class="edge">
<title>Node1&#45;&gt;Node36</title>
<g id="a_edge62_Node000001_Node000036"><a xlink:title=" ">
<path fill="none" stroke="#63b8ff" d="M476.98,-394.98C432.51,-386.38 374.15,-373.27 324.12,-356 321.34,-355.04 255.93,-324.09 216.17,-305.25"/>
<polygon fill="#63b8ff" stroke="#63b8ff" points="217.86,-302.18 207.32,-301.05 214.86,-308.5 217.86,-302.18"/>
</a>
</g>
</g>
<!-- Node37 -->
<g id="Node000037" class="node">
<title>Node37</title>
<g id="a_Node000037"><a xlink:href="UserRepository_8hpp.html" target="_top" xlink:title=" ">
<polygon fill="white" stroke="#666666" points="102.25,-356 0,-356 0,-336 102.25,-336 102.25,-356"/>
<text xml:space="preserve" text-anchor="middle" x="51.12" y="-342.5" font-family="Helvetica,sans-Serif" font-size="10.00">UserRepository.hpp</text>
</a>
</g>
</g>
<!-- Node1&#45;&gt;Node37 -->
<g id="edge65_Node000001_Node000037" class="edge">
<title>Node1&#45;&gt;Node37</title>
<g id="a_edge65_Node000001_Node000037"><a xlink:title=" ">
<path fill="none" stroke="#63b8ff" d="M476.81,-399.49C392.92,-390.36 248.11,-374.11 113.8,-356.32"/>
<polygon fill="#63b8ff" stroke="#63b8ff" points="114.37,-352.87 104,-355.02 113.45,-359.81 114.37,-352.87"/>
</a>
</g>
</g>
<!-- Node38 -->
<g id="Node000038" class="node">
<title>Node38</title>
<g id="a_Node000038"><a xlink:title=" ">
<polygon fill="#e0e0e0" stroke="#999999" points="1097,-356 1053.25,-356 1053.25,-336 1097,-336 1097,-356"/>
<text xml:space="preserve" text-anchor="middle" x="1075.12" y="-342.5" font-family="Helvetica,sans-Serif" font-size="10.00">format</text>
</a>
</g>
</g>
<!-- Node1&#45;&gt;Node38 -->
<g id="edge68_Node000001_Node000038" class="edge">
<title>Node1&#45;&gt;Node38</title>
<g id="a_edge68_Node000001_Node000038"><a xlink:title=" ">
<path fill="none" stroke="#63b8ff" d="M617.26,-403.79C711.77,-398.59 885.27,-385.93 1041.66,-356.15"/>
<polygon fill="#63b8ff" stroke="#63b8ff" points="1042.25,-359.6 1051.41,-354.26 1040.92,-352.73 1042.25,-359.6"/>
</a>
</g>
</g>
<!-- Node3 -->
<g id="Node000003" class="node">
<title>Node3</title>
<g id="a_Node000003"><a xlink:href="Bot_8hpp.html" target="_top" xlink:title=" ">
<polygon fill="white" stroke="#666666" points="1027,-300 977.25,-300 977.25,-280 1027,-280 1027,-300"/>
<text xml:space="preserve" text-anchor="middle" x="1002.12" y="-286.5" font-family="Helvetica,sans-Serif" font-size="10.00">Bot.hpp</text>
</a>
</g>
</g>
<!-- Node2&#45;&gt;Node3 -->
<g id="edge2_Node000002_Node000003" class="edge">
<title>Node2&#45;&gt;Node3</title>
<g id="a_edge2_Node000002_Node000003"><a xlink:title=" ">
<path fill="none" stroke="#63b8ff" d="M642.07,-337.24C645.14,-336.82 648.17,-336.4 651.12,-336 765.8,-320.46 901.75,-303.43 965.58,-295.51"/>
<polygon fill="#63b8ff" stroke="#63b8ff" points="966,-298.98 975.5,-294.28 965.14,-292.04 966,-298.98"/>
</a>
</g>
</g>
<!-- Node4 -->
<g id="Node000004" class="node">
<title>Node4</title>
<g id="a_Node000004"><a xlink:href="Core_8hpp.html" target="_top" xlink:title=" ">
<polygon fill="white" stroke="#666666" points="1086,-244 1030.25,-244 1030.25,-224 1086,-224 1086,-244"/>
<text xml:space="preserve" text-anchor="middle" x="1058.12" y="-230.5" font-family="Helvetica,sans-Serif" font-size="10.00">Core.hpp</text>
</a>
</g>
</g>
<!-- Node3&#45;&gt;Node4 -->
<g id="edge3_Node000003_Node000004" class="edge">
<title>Node3&#45;&gt;Node4</title>
<g id="a_edge3_Node000003_Node000004"><a xlink:title=" ">
<path fill="none" stroke="#63b8ff" d="M1011.88,-279.59C1019.75,-272.01 1031.02,-261.13 1040.47,-252.02"/>
<polygon fill="#63b8ff" stroke="#63b8ff" points="1042.62,-254.81 1047.39,-245.35 1037.76,-249.77 1042.62,-254.81"/>
</a>
</g>
</g>
<!-- Node3&#45;&gt;Node9 -->
<g id="edge46_Node000003_Node000009" class="edge">
<title>Node3&#45;&gt;Node9</title>
<g id="a_edge46_Node000003_Node000009"><a xlink:title=" ">
<path fill="none" stroke="#63b8ff" d="M977.08,-288.2C921.1,-285.85 782.05,-276.9 671.12,-244 582.12,-217.6 485.11,-164.3 440.35,-138.16"/>
<polygon fill="#63b8ff" stroke="#63b8ff" points="442.32,-135.25 431.92,-133.19 438.76,-141.28 442.32,-135.25"/>
</a>
</g>
</g>
<!-- Node3&#45;&gt;Node10 -->
<g id="edge47_Node000003_Node000010" class="edge">
<title>Node3&#45;&gt;Node10</title>
<g id="a_edge47_Node000003_Node000010"><a xlink:title=" ">
<path fill="none" stroke="#63b8ff" d="M976.95,-287.4C910.23,-282.23 724.94,-261.72 593.12,-188 571.94,-176.15 552.79,-155.68 540.64,-140.87"/>
<polygon fill="#63b8ff" stroke="#63b8ff" points="543.6,-138.97 534.66,-133.29 538.11,-143.31 543.6,-138.97"/>
</a>
</g>
</g>
<!-- Node14 -->
<g id="Node000014" class="node">
<title>Node14</title>
<g id="a_Node000014"><a xlink:href="IButtonCommand_8hpp.html" target="_top" xlink:title=" ">
<polygon fill="white" stroke="#666666" points="1286.75,-188 1175.5,-188 1175.5,-168 1286.75,-168 1286.75,-188"/>
<text xml:space="preserve" text-anchor="middle" x="1231.12" y="-174.5" font-family="Helvetica,sans-Serif" font-size="10.00">IButtonCommand.hpp</text>
</a>
</g>
</g>
<!-- Node3&#45;&gt;Node14 -->
<g id="edge35_Node000003_Node000014" class="edge">
<title>Node3&#45;&gt;Node14</title>
<g id="a_edge35_Node000003_Node000014"><a xlink:title=" ">
<path fill="none" stroke="#63b8ff" d="M1021.65,-279.62C1061.79,-260.34 1153.78,-216.15 1201.38,-193.29"/>
<polygon fill="#63b8ff" stroke="#63b8ff" points="1202.79,-196.49 1210.29,-189.01 1199.76,-190.19 1202.79,-196.49"/>
</a>
</g>
</g>
<!-- Node17 -->
<g id="Node000017" class="node">
<title>Node17</title>
<g id="a_Node000017"><a xlink:href="IFormCommand_8hpp.html" target="_top" xlink:title=" ">
<polygon fill="white" stroke="#666666" points="1409.75,-188 1304.5,-188 1304.5,-168 1409.75,-168 1409.75,-188"/>
<text xml:space="preserve" text-anchor="middle" x="1357.12" y="-174.5" font-family="Helvetica,sans-Serif" font-size="10.00">IFormCommand.hpp</text>
</a>
</g>
</g>
<!-- Node3&#45;&gt;Node17 -->
<g id="edge36_Node000003_Node000017" class="edge">
<title>Node3&#45;&gt;Node17</title>
<g id="a_edge36_Node000003_Node000017"><a xlink:title=" ">
<path fill="none" stroke="#63b8ff" d="M1027.37,-281.18C1087.86,-262.43 1241.57,-214.8 1315.79,-191.81"/>
<polygon fill="#63b8ff" stroke="#63b8ff" points="1316.6,-195.22 1325.12,-188.92 1314.53,-188.53 1316.6,-195.22"/>
</a>
</g>
</g>
<!-- Node18 -->
<g id="Node000018" class="node">
<title>Node18</title>
<g id="a_Node000018"><a xlink:href="IGlobalSlashCommand_8hpp.html" target="_top" xlink:title=" ">
<polygon fill="white" stroke="#666666" points="831.75,-188 696.5,-188 696.5,-168 831.75,-168 831.75,-188"/>
<text xml:space="preserve" text-anchor="middle" x="764.12" y="-174.5" font-family="Helvetica,sans-Serif" font-size="10.00">IGlobalSlashCommand.hpp</text>
</a>
</g>
</g>
<!-- Node3&#45;&gt;Node18 -->
<g id="edge37_Node000003_Node000018" class="edge">
<title>Node3&#45;&gt;Node18</title>
<g id="a_edge37_Node000003_Node000018"><a xlink:title=" ">
<path fill="none" stroke="#63b8ff" d="M976.86,-283.23C948,-276.12 899.77,-262.65 861.12,-244 832.99,-230.42 803.57,-209.63 784.61,-195.23"/>
<polygon fill="#63b8ff" stroke="#63b8ff" points="786.97,-192.63 776.91,-189.29 782.69,-198.17 786.97,-192.63"/>
</a>
</g>
</g>
<!-- Node20 -->
<g id="Node000020" class="node">
<title>Node20</title>
<g id="a_Node000020"><a xlink:href="IMemberCommand_8hpp.html" target="_top" xlink:title=" ">
<polygon fill="white" stroke="#666666" points="1546.12,-188 1428.12,-188 1428.12,-168 1546.12,-168 1546.12,-188"/>
<text xml:space="preserve" text-anchor="middle" x="1487.12" y="-174.5" font-family="Helvetica,sans-Serif" font-size="10.00">IMemberCommand.hpp</text>
</a>
</g>
</g>
<!-- Node3&#45;&gt;Node20 -->
<g id="edge38_Node000003_Node000020" class="edge">
<title>Node3&#45;&gt;Node20</title>
<g id="a_edge38_Node000003_Node000020"><a xlink:title=" ">
<path fill="none" stroke="#63b8ff" d="M1027.18,-283.32C1102.9,-266.14 1330.53,-214.52 1434.4,-190.96"/>
<polygon fill="#63b8ff" stroke="#63b8ff" points="1435.1,-194.39 1444.07,-188.76 1433.55,-187.56 1435.1,-194.39"/>
</a>
</g>
</g>
<!-- Node21 -->
<g id="Node000021" class="node">
<title>Node21</title>
<g id="a_Node000021"><a xlink:href="IMessageCommand_8hpp.html" target="_top" xlink:title=" ">
<polygon fill="white" stroke="#666666" points="1686.38,-188 1563.88,-188 1563.88,-168 1686.38,-168 1686.38,-188"/>
<text xml:space="preserve" text-anchor="middle" x="1625.12" y="-174.5" font-family="Helvetica,sans-Serif" font-size="10.00">IMessageCommand.hpp</text>
</a>
</g>
</g>
<!-- Node3&#45;&gt;Node21 -->
<g id="edge39_Node000003_Node000021" class="edge">
<title>Node3&#45;&gt;Node21</title>
<g id="a_edge39_Node000003_Node000021"><a xlink:title=" ">
<path fill="none" stroke="#63b8ff" d="M1027.3,-284.61C1073.33,-276.59 1174.15,-258.99 1259.12,-244 1364.85,-225.36 1487.72,-203.5 1560.8,-190.47"/>
<polygon fill="#63b8ff" stroke="#63b8ff" points="1561.38,-193.92 1570.61,-188.72 1560.15,-187.03 1561.38,-193.92"/>
</a>
</g>
</g>
<!-- Node22 -->
<g id="Node000022" class="node">
<title>Node22</title>
<g id="a_Node000022"><a xlink:href="IReactionCommand_8hpp.html" target="_top" xlink:title=" ">
<polygon fill="white" stroke="#666666" points="972,-188 850.25,-188 850.25,-168 972,-168 972,-188"/>
<text xml:space="preserve" text-anchor="middle" x="911.12" y="-174.5" font-family="Helvetica,sans-Serif" font-size="10.00">IReactionCommand.hpp</text>
</a>
</g>
</g>
<!-- Node3&#45;&gt;Node22 -->
<g id="edge40_Node000003_Node000022" class="edge">
<title>Node3&#45;&gt;Node22</title>
<g id="a_edge40_Node000003_Node000022"><a xlink:title=" ">
<path fill="none" stroke="#63b8ff" d="M1001.47,-279.68C1000.11,-266.15 995.9,-240.87 983.12,-224 973.27,-210.99 958.46,-200.81 944.83,-193.45"/>
<polygon fill="#63b8ff" stroke="#63b8ff" points="946.6,-190.42 936.1,-189.05 943.45,-196.67 946.6,-190.42"/>
</a>
</g>
</g>
<!-- Node23 -->
<g id="Node000023" class="node">
<title>Node23</title>
<g id="a_Node000023"><a xlink:href="IReady_8hpp.html" target="_top" xlink:title=" ">
<polygon fill="white" stroke="#666666" points="1769.88,-188 1704.38,-188 1704.38,-168 1769.88,-168 1769.88,-188"/>
<text xml:space="preserve" text-anchor="middle" x="1737.12" y="-174.5" font-family="Helvetica,sans-Serif" font-size="10.00">IReady.hpp</text>
</a>
</g>
</g>
<!-- Node3&#45;&gt;Node23 -->
<g id="edge41_Node000003_Node000023" class="edge">
<title>Node3&#45;&gt;Node23</title>
<g id="a_edge41_Node000003_Node000023"><a xlink:title=" ">
<path fill="none" stroke="#63b8ff" d="M1027.41,-285.99C1116.88,-275.21 1426.97,-236.64 1693.11,-188.28"/>
<polygon fill="#63b8ff" stroke="#63b8ff" points="1693.45,-191.77 1702.66,-186.53 1692.19,-184.89 1693.45,-191.77"/>
</a>
</g>
</g>
<!-- Node24 -->
<g id="Node000024" class="node">
<title>Node24</title>
<g id="a_Node000024"><a xlink:title=" ">
<polygon fill="#e0e0e0" stroke="#999999" points="904.5,-244 869.75,-244 869.75,-224 904.5,-224 904.5,-244"/>
<text xml:space="preserve" text-anchor="middle" x="887.12" y="-230.5" font-family="Helvetica,sans-Serif" font-size="10.00">map</text>
</a>
</g>
</g>
<!-- Node3&#45;&gt;Node24 -->
<g id="edge44_Node000003_Node000024" class="edge">
<title>Node3&#45;&gt;Node24</title>
<g id="a_edge44_Node000003_Node000024"><a xlink:title=" ">
<path fill="none" stroke="#63b8ff" d="M982.09,-279.59C963.55,-270.89 935.79,-257.85 915.07,-248.12"/>
<polygon fill="#63b8ff" stroke="#63b8ff" points="916.58,-244.96 906.04,-243.88 913.6,-251.3 916.58,-244.96"/>
</a>
</g>
</g>
<!-- Node25 -->
<g id="Node000025" class="node">
<title>Node25</title>
<g id="a_Node000025"><a xlink:title=" ">
<polygon fill="#e0e0e0" stroke="#999999" points="973.75,-244 922.5,-244 922.5,-224 973.75,-224 973.75,-244"/>
<text xml:space="preserve" text-anchor="middle" x="948.12" y="-230.5" font-family="Helvetica,sans-Serif" font-size="10.00">memory</text>
</a>
</g>
</g>
<!-- Node3&#45;&gt;Node25 -->
<g id="edge45_Node000003_Node000025" class="edge">
<title>Node3&#45;&gt;Node25</title>
<g id="a_edge45_Node000003_Node000025"><a xlink:title=" ">
<path fill="none" stroke="#63b8ff" d="M992.72,-279.59C985.21,-272.08 974.48,-261.35 965.43,-252.3"/>
<polygon fill="#63b8ff" stroke="#63b8ff" points="968.04,-249.96 958.49,-245.37 963.09,-254.91 968.04,-249.96"/>
</a>
</g>
</g>
<!-- Node5 -->
<g id="Node000005" class="node">
<title>Node5</title>
<g id="a_Node000005"><a xlink:title=" ">
<polygon fill="#e0e0e0" stroke="#999999" points="1048.5,-188 989.75,-188 989.75,-168 1048.5,-168 1048.5,-188"/>
<text xml:space="preserve" text-anchor="middle" x="1019.12" y="-174.5" font-family="Helvetica,sans-Serif" font-size="10.00">dpp/dpp.h</text>
</a>
</g>
</g>
<!-- Node4&#45;&gt;Node5 -->
<g id="edge4_Node000004_Node000005" class="edge">
<title>Node4&#45;&gt;Node5</title>
<g id="a_edge4_Node000004_Node000005"><a xlink:title=" ">
<path fill="none" stroke="#63b8ff" d="M1051.33,-223.59C1046.13,-216.39 1038.79,-206.23 1032.44,-197.43"/>
<polygon fill="#63b8ff" stroke="#63b8ff" points="1035.42,-195.58 1026.73,-189.53 1029.74,-199.68 1035.42,-195.58"/>
</a>
</g>
</g>
<!-- Node6 -->
<g id="Node000006" class="node">
<title>Node6</title>
<g id="a_Node000006"><a xlink:title=" ">
<polygon fill="#e0e0e0" stroke="#999999" points="1157.62,-188 1066.62,-188 1066.62,-168 1157.62,-168 1157.62,-188"/>
<text xml:space="preserve" text-anchor="middle" x="1112.12" y="-174.5" font-family="Helvetica,sans-Serif" font-size="10.00">dpp/misc&#45;enum.h</text>
</a>
</g>
</g>
<!-- Node4&#45;&gt;Node6 -->
<g id="edge5_Node000004_Node000006" class="edge">
<title>Node4&#45;&gt;Node6</title>
<g id="a_edge5_Node000004_Node000006"><a xlink:title=" ">
<path fill="none" stroke="#63b8ff" d="M1067.53,-223.59C1075.04,-216.08 1085.77,-205.35 1094.82,-196.3"/>
<polygon fill="#63b8ff" stroke="#63b8ff" points="1097.16,-198.91 1101.76,-189.37 1092.21,-193.96 1097.16,-198.91"/>
</a>
</g>
</g>
<!-- Node7 -->
<g id="Node000007" class="node">
<title>Node7</title>
<g id="a_Node000007"><a xlink:href="Database_8hpp.html" target="_top" xlink:title=" ">
<polygon fill="white" stroke="#666666" points="678.5,-188 601.75,-188 601.75,-168 678.5,-168 678.5,-188"/>
<text xml:space="preserve" text-anchor="middle" x="640.12" y="-174.5" font-family="Helvetica,sans-Serif" font-size="10.00">Database.hpp</text>
</a>
</g>
</g>
<!-- Node4&#45;&gt;Node7 -->
<g id="edge6_Node000004_Node000007" class="edge">
<title>Node4&#45;&gt;Node7</title>
<g id="a_edge6_Node000004_Node000007"><a xlink:title=" ">
<path fill="none" stroke="#63b8ff" d="M1029.77,-229.59C952.8,-220.32 742.66,-195 690.01,-188.15"/>
<polygon fill="#63b8ff" stroke="#63b8ff" points="690.7,-184.72 680.32,-186.83 689.75,-191.65 690.7,-184.72"/>
</a>
</g>
</g>
<!-- Node4&#45;&gt;Node9 -->
<g id="edge34_Node000004_Node000009" class="edge">
<title>Node4&#45;&gt;Node9</title>
<g id="a_edge34_Node000004_Node000009"><a xlink:title=" ">
<path fill="none" stroke="#63b8ff" d="M1030.01,-229.44C1015.94,-227.71 998.64,-225.65 983.12,-224 810.03,-205.63 762.96,-226.17 593.12,-188 539.83,-176.02 480.79,-152.24 445.88,-137"/>
<polygon fill="#63b8ff" stroke="#63b8ff" points="447.38,-133.84 436.81,-132.99 444.54,-140.24 447.38,-133.84"/>
</a>
</g>
</g>
<!-- Node4&#45;&gt;Node14 -->
<g id="edge14_Node000004_Node000014" class="edge">
<title>Node4&#45;&gt;Node14</title>
<g id="a_edge14_Node000004_Node000014"><a xlink:title=" ">
<path fill="none" stroke="#63b8ff" d="M1086.31,-224.2C1114.48,-215.41 1158.12,-201.79 1190.13,-191.8"/>
<polygon fill="#63b8ff" stroke="#63b8ff" points="1190.97,-195.2 1199.48,-188.88 1188.89,-188.52 1190.97,-195.2"/>
</a>
</g>
</g>
<!-- Node4&#45;&gt;Node17 -->
<g id="edge17_Node000004_Node000017" class="edge">
<title>Node4&#45;&gt;Node17</title>
<g id="a_edge17_Node000004_Node000017"><a xlink:title=" ">
<path fill="none" stroke="#63b8ff" d="M1086.25,-227.92C1133.36,-219.41 1229.34,-202.08 1293.46,-190.5"/>
<polygon fill="#63b8ff" stroke="#63b8ff" points="1293.94,-193.97 1303.16,-188.75 1292.7,-187.08 1293.94,-193.97"/>
</a>
</g>
</g>
<!-- Node4&#45;&gt;Node18 -->
<g id="edge20_Node000004_Node000018" class="edge">
<title>Node4&#45;&gt;Node18</title>
<g id="a_edge20_Node000004_Node000018"><a xlink:title=" ">
<path fill="none" stroke="#63b8ff" d="M1029.94,-227.82C983.43,-219.28 889.54,-202.04 826.73,-190.5"/>
<polygon fill="#63b8ff" stroke="#63b8ff" points="827.73,-187.12 817.26,-188.76 826.47,-194.01 827.73,-187.12"/>
</a>
</g>
</g>
<!-- Node4&#45;&gt;Node20 -->
<g id="edge25_Node000004_Node000020" class="edge">
<title>Node4&#45;&gt;Node20</title>
<g id="a_edge25_Node000004_Node000020"><a xlink:title=" ">
<path fill="none" stroke="#63b8ff" d="M1086.22,-229.57C1145.25,-222.35 1286.77,-204.96 1416.48,-188.33"/>
<polygon fill="#63b8ff" stroke="#63b8ff" points="1416.82,-191.82 1426.29,-187.07 1415.92,-184.87 1416.82,-191.82"/>
</a>
</g>
</g>
<!-- Node4&#45;&gt;Node21 -->
<g id="edge28_Node000004_Node000021" class="edge">
<title>Node4&#45;&gt;Node21</title>
<g id="a_edge28_Node000004_Node000021"><a xlink:title=" ">
<path fill="none" stroke="#63b8ff" d="M1086.46,-230.81C1160.93,-224.97 1368.53,-208.19 1552.44,-188.26"/>
<polygon fill="#63b8ff" stroke="#63b8ff" points="1552.61,-191.76 1562.18,-187.2 1551.86,-184.8 1552.61,-191.76"/>
</a>
</g>
</g>
<!-- Node4&#45;&gt;Node22 -->
<g id="edge31_Node000004_Node000022" class="edge">
<title>Node4&#45;&gt;Node22</title>
<g id="a_edge31_Node000004_Node000022"><a xlink:title=" ">
<path fill="none" stroke="#63b8ff" d="M1032.52,-223.59C1009.06,-214.97 974.06,-202.12 947.66,-192.42"/>
<polygon fill="#63b8ff" stroke="#63b8ff" points="948.94,-189.16 938.35,-189 946.53,-195.73 948.94,-189.16"/>
</a>
</g>
</g>
<!-- Node8 -->
<g id="Node000008" class="node">
<title>Node8</title>
<g id="a_Node000008"><a xlink:title=" ">
<polygon fill="#e0e0e0" stroke="#999999" points="619.88,-132 566.38,-132 566.38,-112 619.88,-112 619.88,-132"/>
<text xml:space="preserve" text-anchor="middle" x="593.12" y="-118.5" font-family="Helvetica,sans-Serif" font-size="10.00">iostream</text>
</a>
</g>
</g>
<!-- Node7&#45;&gt;Node8 -->
<g id="edge7_Node000007_Node000008" class="edge">
<title>Node7&#45;&gt;Node8</title>
<g id="a_edge7_Node000007_Node000008"><a xlink:title=" ">
<path fill="none" stroke="#63b8ff" d="M631.94,-167.59C625.54,-160.24 616.45,-149.8 608.67,-140.87"/>
<polygon fill="#63b8ff" stroke="#63b8ff" points="611.42,-138.69 602.21,-133.44 606.14,-143.28 611.42,-138.69"/>
</a>
</g>
</g>
<!-- Node7&#45;&gt;Node9 -->
<g id="edge8_Node000007_Node000009" class="edge">
<title>Node7&#45;&gt;Node9</title>
<g id="a_edge8_Node000007_Node000009"><a xlink:title=" ">
<path fill="none" stroke="#63b8ff" d="M601.45,-167.72C557.65,-157.21 487.12,-140.28 446.56,-130.55"/>
<polygon fill="#63b8ff" stroke="#63b8ff" points="447.5,-127.17 436.96,-128.24 445.86,-133.98 447.5,-127.17"/>
</a>
</g>
</g>
<!-- Node7&#45;&gt;Node10 -->
<g id="edge9_Node000007_Node000010" class="edge">
<title>Node7&#45;&gt;Node10</title>
<g id="a_edge9_Node000007_Node000010"><a xlink:title=" ">
<path fill="none" stroke="#63b8ff" d="M620.44,-167.59C602.97,-159.24 577.17,-146.92 557.13,-137.34"/>
<polygon fill="#63b8ff" stroke="#63b8ff" points="558.86,-134.29 548.33,-133.13 555.84,-140.6 558.86,-134.29"/>
</a>
</g>
</g>
<!-- Node11 -->
<g id="Node000011" class="node">
<title>Node11</title>
<g id="a_Node000011"><a xlink:href="DatabaseBackend_8hpp.html" target="_top" xlink:title=" ">
<polygon fill="white" stroke="#666666" points="516.62,-76 401.62,-76 401.62,-56 516.62,-56 516.62,-76"/>
<text xml:space="preserve" text-anchor="middle" x="459.12" y="-62.5" font-family="Helvetica,sans-Serif" font-size="10.00">DatabaseBackend.hpp</text>
</a>
</g>
</g>
<!-- Node7&#45;&gt;Node11 -->
<g id="edge10_Node000007_Node000011" class="edge">
<title>Node7&#45;&gt;Node11</title>
<g id="a_edge10_Node000007_Node000011"><a xlink:title=" ">
<path fill="none" stroke="#63b8ff" d="M641.42,-167.7C642.8,-153.75 643.17,-127.38 629.12,-112 615.3,-96.85 569.15,-85.21 528.42,-77.56"/>
<polygon fill="#63b8ff" stroke="#63b8ff" points="529.06,-74.12 518.6,-75.78 527.82,-81.01 529.06,-74.12"/>
</a>
</g>
</g>
<!-- Node13 -->
<g id="Node000013" class="node">
<title>Node13</title>
<g id="a_Node000013"><a xlink:href="RowDTOAdapter_8hpp.html" target="_top" xlink:title=" ">
<polygon fill="white" stroke="#666666" points="359,-132 249.25,-132 249.25,-112 359,-112 359,-132"/>
<text xml:space="preserve" text-anchor="middle" x="304.12" y="-118.5" font-family="Helvetica,sans-Serif" font-size="10.00">RowDTOAdapter.hpp</text>
</a>
</g>
</g>
<!-- Node7&#45;&gt;Node13 -->
<g id="edge12_Node000007_Node000013" class="edge">
<title>Node7&#45;&gt;Node13</title>
<g id="a_edge12_Node000007_Node000013"><a xlink:title=" ">
<path fill="none" stroke="#63b8ff" d="M601.25,-170.75C544.8,-161.68 439.36,-144.73 370.47,-133.66"/>
<polygon fill="#63b8ff" stroke="#63b8ff" points="371.24,-130.24 360.81,-132.11 370.13,-137.15 371.24,-130.24"/>
</a>
</g>
</g>
<!-- Node12 -->
<g id="Node000012" class="node">
<title>Node12</title>
<g id="a_Node000012"><a xlink:title=" ">
<polygon fill="#e0e0e0" stroke="#999999" points="489.62,-20 428.62,-20 428.62,0 489.62,0 489.62,-20"/>
<text xml:space="preserve" text-anchor="middle" x="459.12" y="-6.5" font-family="Helvetica,sans-Serif" font-size="10.00">pqxx/pqxx</text>
</a>
</g>
</g>
<!-- Node11&#45;&gt;Node12 -->
<g id="edge11_Node000011_Node000012" class="edge">
<title>Node11&#45;&gt;Node12</title>
<g id="a_edge11_Node000011_Node000012"><a xlink:title=" ">
<path fill="none" stroke="#63b8ff" d="M459.12,-55.59C459.12,-49.01 459.12,-39.96 459.12,-31.73"/>
<polygon fill="#63b8ff" stroke="#63b8ff" points="462.63,-31.81 459.13,-21.81 455.63,-31.81 462.63,-31.81"/>
</a>
</g>
</g>
<!-- Node13&#45;&gt;Node11 -->
<g id="edge13_Node000013_Node000011" class="edge">
<title>Node13&#45;&gt;Node11</title>
<g id="a_edge13_Node000013_Node000011"><a xlink:title=" ">
<path fill="none" stroke="#63b8ff" d="M331.12,-111.59C356.09,-102.9 393.43,-89.89 421.35,-80.16"/>
<polygon fill="#63b8ff" stroke="#63b8ff" points="422.19,-83.57 430.49,-76.98 419.89,-76.96 422.19,-83.57"/>
</a>
</g>
</g>
<!-- Node15 -->
<g id="Node000015" class="node">
<title>Node15</title>
<g id="a_Node000015"><a xlink:title=" ">
<polygon fill="#e0e0e0" stroke="#999999" points="1344.25,-132 1272,-132 1272,-112 1344.25,-112 1344.25,-132"/>
<text xml:space="preserve" text-anchor="middle" x="1308.12" y="-118.5" font-family="Helvetica,sans-Serif" font-size="10.00">dpp/cluster.h</text>
</a>
</g>
</g>
<!-- Node14&#45;&gt;Node15 -->
<g id="edge15_Node000014_Node000015" class="edge">
<title>Node14&#45;&gt;Node15</title>
<g id="a_edge15_Node000014_Node000015"><a xlink:title=" ">
<path fill="none" stroke="#63b8ff" d="M1244.54,-167.59C1255.73,-159.74 1271.94,-148.38 1285.18,-139.09"/>
<polygon fill="#63b8ff" stroke="#63b8ff" points="1287.19,-141.96 1293.37,-133.35 1283.17,-136.22 1287.19,-141.96"/>
</a>
</g>
</g>
<!-- Node16 -->
<g id="Node000016" class="node">
<title>Node16</title>
<g id="a_Node000016"><a xlink:title=" ">
<polygon fill="#e0e0e0" stroke="#999999" points="1450.12,-132 1362.12,-132 1362.12,-112 1450.12,-112 1450.12,-132"/>
<text xml:space="preserve" text-anchor="middle" x="1406.12" y="-118.5" font-family="Helvetica,sans-Serif" font-size="10.00">dpp/dispatcher.h</text>
</a>
</g>
</g>
<!-- Node14&#45;&gt;Node16 -->
<g id="edge16_Node000014_Node000016" class="edge">
<title>Node14&#45;&gt;Node16</title>
<g id="a_edge16_Node000014_Node000016"><a xlink:title=" ">
<path fill="none" stroke="#63b8ff" d="M1261.61,-167.59C1290.16,-158.78 1333.07,-145.54 1364.72,-135.78"/>
<polygon fill="#63b8ff" stroke="#63b8ff" points="1365.43,-139.22 1373.96,-132.93 1363.37,-132.53 1365.43,-139.22"/>
</a>
</g>
</g>
<!-- Node17&#45;&gt;Node15 -->
<g id="edge18_Node000017_Node000015" class="edge">
<title>Node17&#45;&gt;Node15</title>
<g id="a_edge18_Node000017_Node000015"><a xlink:title=" ">
<path fill="none" stroke="#63b8ff" d="M1348.59,-167.59C1341.84,-160.16 1332.24,-149.58 1324.08,-140.58"/>
<polygon fill="#63b8ff" stroke="#63b8ff" points="1326.89,-138.47 1317.58,-133.42 1321.71,-143.18 1326.89,-138.47"/>
</a>
</g>
</g>
<!-- Node17&#45;&gt;Node16 -->
<g id="edge19_Node000017_Node000016" class="edge">
<title>Node17&#45;&gt;Node16</title>
<g id="a_edge19_Node000017_Node000016"><a xlink:title=" ">
<path fill="none" stroke="#63b8ff" d="M1365.66,-167.59C1372.41,-160.16 1382.01,-149.58 1390.17,-140.58"/>
<polygon fill="#63b8ff" stroke="#63b8ff" points="1392.54,-143.18 1396.67,-133.42 1387.36,-138.47 1392.54,-143.18"/>
</a>
</g>
</g>
<!-- Node18&#45;&gt;Node10 -->
<g id="edge24_Node000018_Node000010" class="edge">
<title>Node18&#45;&gt;Node10</title>
<g id="a_edge24_Node000018_Node000010"><a xlink:title=" ">
<path fill="none" stroke="#63b8ff" d="M715.36,-167.51C675.72,-159.54 618.13,-147.41 559.9,-132.58"/>
<polygon fill="#63b8ff" stroke="#63b8ff" points="561.05,-129.26 550.49,-130.16 559.3,-136.04 561.05,-129.26"/>
</a>
</g>
</g>
<!-- Node18&#45;&gt;Node15 -->
<g id="edge22_Node000018_Node000015" class="edge">
<title>Node18&#45;&gt;Node15</title>
<g id="a_edge22_Node000018_Node000015"><a xlink:title=" ">
<path fill="none" stroke="#63b8ff" d="M832.14,-168.97C835.17,-168.64 838.18,-168.31 841.12,-168 994.29,-151.67 1176,-134.91 1260.5,-127.27"/>
<polygon fill="#63b8ff" stroke="#63b8ff" points="1260.62,-130.77 1270.26,-126.39 1259.99,-123.8 1260.62,-130.77"/>
</a>
</g>
</g>
<!-- Node18&#45;&gt;Node16 -->
<g id="edge23_Node000018_Node000016" class="edge">
<title>Node18&#45;&gt;Node16</title>
<g id="a_edge23_Node000018_Node000016"><a xlink:title=" ">
<path fill="none" stroke="#63b8ff" d="M832.13,-168.88C835.17,-168.57 838.18,-168.28 841.12,-168 1064.59,-147.1 1124.7,-158.74 1350.41,-132.21"/>
<polygon fill="#63b8ff" stroke="#63b8ff" points="1350.62,-135.71 1360.13,-131.06 1349.79,-128.76 1350.62,-135.71"/>
</a>
</g>
</g>
<!-- Node19 -->
<g id="Node000019" class="node">
<title>Node19</title>
<g id="a_Node000019"><a xlink:title=" ">
<polygon fill="#e0e0e0" stroke="#999999" points="805.5,-132 722.75,-132 722.75,-112 805.5,-112 805.5,-132"/>
<text xml:space="preserve" text-anchor="middle" x="764.12" y="-118.5" font-family="Helvetica,sans-Serif" font-size="10.00">appcommand.h</text>
</a>
</g>
</g>
<!-- Node18&#45;&gt;Node19 -->
<g id="edge21_Node000018_Node000019" class="edge">
<title>Node18&#45;&gt;Node19</title>
<g id="a_edge21_Node000018_Node000019"><a xlink:title=" ">
<path fill="none" stroke="#63b8ff" d="M764.12,-167.59C764.12,-161.01 764.12,-151.96 764.12,-143.73"/>
<polygon fill="#63b8ff" stroke="#63b8ff" points="767.63,-143.81 764.13,-133.81 760.63,-143.81 767.63,-143.81"/>
</a>
</g>
</g>
<!-- Node20&#45;&gt;Node15 -->
<g id="edge26_Node000020_Node000015" class="edge">
<title>Node20&#45;&gt;Node15</title>
<g id="a_edge26_Node000020_Node000015"><a xlink:title=" ">
<path fill="none" stroke="#63b8ff" d="M1455.95,-167.59C1426.74,-158.78 1382.85,-145.54 1350.47,-135.78"/>
<polygon fill="#63b8ff" stroke="#63b8ff" points="1351.58,-132.45 1341,-132.92 1349.56,-139.16 1351.58,-132.45"/>
</a>
</g>
</g>
<!-- Node20&#45;&gt;Node16 -->
<g id="edge27_Node000020_Node000016" class="edge">
<title>Node20&#45;&gt;Node16</title>
<g id="a_edge27_Node000020_Node000016"><a xlink:title=" ">
<path fill="none" stroke="#63b8ff" d="M1473.02,-167.59C1461.13,-159.67 1443.86,-148.16 1429.85,-138.82"/>
<polygon fill="#63b8ff" stroke="#63b8ff" points="1431.87,-135.95 1421.6,-133.32 1427.98,-141.78 1431.87,-135.95"/>
</a>
</g>
</g>
<!-- Node21&#45;&gt;Node15 -->
<g id="edge29_Node000021_Node000015" class="edge">
<title>Node21&#45;&gt;Node15</title>
<g id="a_edge29_Node000021_Node000015"><a xlink:title=" ">
<path fill="none" stroke="#63b8ff" d="M1564.26,-167.53C1511.55,-159.19 1432.97,-146.43 1355.39,-132.37"/>
<polygon fill="#63b8ff" stroke="#63b8ff" points="1356.41,-129 1345.94,-130.65 1355.15,-135.88 1356.41,-129"/>
</a>
</g>
</g>
<!-- Node21&#45;&gt;Node16 -->
<g id="edge30_Node000021_Node000016" class="edge">
<title>Node21&#45;&gt;Node16</title>
<g id="a_edge30_Node000021_Node000016"><a xlink:title=" ">
<path fill="none" stroke="#63b8ff" d="M1586.73,-167.53C1550.25,-158.54 1495.23,-144.97 1455.51,-135.18"/>
<polygon fill="#63b8ff" stroke="#63b8ff" points="1456.5,-131.82 1445.95,-132.82 1454.82,-138.61 1456.5,-131.82"/>
</a>
</g>
</g>
<!-- Node22&#45;&gt;Node15 -->
<g id="edge32_Node000022_Node000015" class="edge">
<title>Node22&#45;&gt;Node15</title>
<g id="a_edge32_Node000022_Node000015"><a xlink:title=" ">
<path fill="none" stroke="#63b8ff" d="M972.29,-168.68C1051.67,-157.88 1188.53,-139.27 1260.59,-129.47"/>
<polygon fill="#63b8ff" stroke="#63b8ff" points="1260.64,-132.99 1270.08,-128.18 1259.7,-126.06 1260.64,-132.99"/>
</a>
</g>
</g>
<!-- Node22&#45;&gt;Node16 -->
<g id="edge33_Node000022_Node000016" class="edge">
<title>Node22&#45;&gt;Node16</title>
<g id="a_edge33_Node000022_Node000016"><a xlink:title=" ">
<path fill="none" stroke="#63b8ff" d="M972.19,-169.03C975.21,-168.68 978.2,-168.33 981.12,-168 1142.64,-149.81 1186.6,-153.74 1350.65,-132.25"/>
<polygon fill="#63b8ff" stroke="#63b8ff" points="1350.67,-135.77 1360.13,-130.99 1349.75,-128.83 1350.67,-135.77"/>
</a>
</g>
</g>
<!-- Node23&#45;&gt;Node15 -->
<g id="edge42_Node000023_Node000015" class="edge">
<title>Node23&#45;&gt;Node15</title>
<g id="a_edge42_Node000023_Node000015"><a xlink:title=" ">
<path fill="none" stroke="#63b8ff" d="M1704.17,-169.59C1701.12,-169.01 1698.07,-168.47 1695.12,-168 1547.73,-144.52 1506.16,-154.51 1355.46,-132.22"/>
<polygon fill="#63b8ff" stroke="#63b8ff" points="1356.33,-128.81 1345.92,-130.78 1355.29,-135.73 1356.33,-128.81"/>
</a>
</g>
</g>
<!-- Node23&#45;&gt;Node16 -->
<g id="edge43_Node000023_Node000016" class="edge">
<title>Node23&#45;&gt;Node16</title>
<g id="a_edge43_Node000023_Node000016"><a xlink:title=" ">
<path fill="none" stroke="#63b8ff" d="M1704.15,-169.75C1701.1,-169.13 1698.06,-168.54 1695.12,-168 1614.14,-153.03 1519.77,-138.97 1461.48,-130.67"/>
<polygon fill="#63b8ff" stroke="#63b8ff" points="1462.21,-127.24 1451.82,-129.3 1461.23,-134.17 1462.21,-127.24"/>
</a>
</g>
</g>
<!-- Node31&#45;&gt;Node9 -->
<g id="edge55_Node000031_Node000009" class="edge">
<title>Node31&#45;&gt;Node9</title>
<g id="a_edge55_Node000031_Node000009"><a xlink:title=" ">
<path fill="none" stroke="#63b8ff" d="M302.61,-223.62C323.4,-205.03 370.08,-163.28 396.31,-139.82"/>
<polygon fill="#63b8ff" stroke="#63b8ff" points="398.42,-142.64 403.54,-133.36 393.75,-137.42 398.42,-142.64"/>
</a>
</g>
</g>
<!-- Node31&#45;&gt;Node13 -->
<g id="edge54_Node000031_Node000013" class="edge">
<title>Node31&#45;&gt;Node13</title>
<g id="a_edge54_Node000031_Node000013"><a xlink:title=" ">
<path fill="none" stroke="#63b8ff" d="M293.15,-223.62C295.07,-206.01 299.26,-167.59 301.87,-143.65"/>
<polygon fill="#63b8ff" stroke="#63b8ff" points="305.34,-144.18 302.94,-133.86 298.38,-143.42 305.34,-144.18"/>
</a>
</g>
</g>
<!-- Node32&#45;&gt;Node31 -->
<g id="edge59_Node000032_Node000031" class="edge">
<title>Node32&#45;&gt;Node31</title>
<g id="a_edge59_Node000032_Node000031"><a xlink:title=" ">
<path fill="none" stroke="#63b8ff" d="M204.31,-335.62C220.32,-317.27 256.02,-276.37 276.63,-252.75"/>
<polygon fill="#63b8ff" stroke="#63b8ff" points="279.03,-255.33 282.97,-245.5 273.75,-250.73 279.03,-255.33"/>
</a>
</g>
</g>
<!-- Node33 -->
<g id="Node000033" class="node">
<title>Node33</title>
<g id="a_Node000033"><a xlink:href="IRepository_8hpp.html" target="_top" xlink:title=" ">
<polygon fill="white" stroke="#666666" points="108.25,-300 24,-300 24,-280 108.25,-280 108.25,-300"/>
<text xml:space="preserve" text-anchor="middle" x="66.12" y="-286.5" font-family="Helvetica,sans-Serif" font-size="10.00">IRepository.hpp</text>
</a>
</g>
</g>
<!-- Node32&#45;&gt;Node33 -->
<g id="edge57_Node000032_Node000033" class="edge">
<title>Node32&#45;&gt;Node33</title>
<g id="a_edge57_Node000032_Node000033"><a xlink:title=" ">
<path fill="none" stroke="#63b8ff" d="M173.48,-335.59C153.01,-327.09 122.61,-314.46 99.38,-304.81"/>
<polygon fill="#63b8ff" stroke="#63b8ff" points="100.92,-301.66 90.34,-301.06 98.24,-308.13 100.92,-301.66"/>
</a>
</g>
</g>
<!-- Node34 -->
<g id="Node000034" class="node">
<title>Node34</title>
<g id="a_Node000034"><a xlink:title=" ">
<polygon fill="#e0e0e0" stroke="#999999" points="90.25,-244 42,-244 42,-224 90.25,-224 90.25,-244"/>
<text xml:space="preserve" text-anchor="middle" x="66.12" y="-230.5" font-family="Helvetica,sans-Serif" font-size="10.00">cstddef</text>
</a>
</g>
</g>
<!-- Node33&#45;&gt;Node34 -->
<g id="edge58_Node000033_Node000034" class="edge">
<title>Node33&#45;&gt;Node34</title>
<g id="a_edge58_Node000033_Node000034"><a xlink:title=" ">
<path fill="none" stroke="#63b8ff" d="M66.12,-279.59C66.12,-273.01 66.12,-263.96 66.12,-255.73"/>
<polygon fill="#63b8ff" stroke="#63b8ff" points="69.63,-255.81 66.13,-245.81 62.63,-255.81 69.63,-255.81"/>
</a>
</g>
</g>
<!-- Node35&#45;&gt;Node10 -->
<g id="edge61_Node000035_Node000010" class="edge">
<title>Node35&#45;&gt;Node10</title>
<g id="a_edge61_Node000035_Node000010"><a xlink:title=" ">
<path fill="none" stroke="#63b8ff" d="M467.46,-279.65C466.34,-258.57 465.8,-206.21 484.12,-168 489.27,-157.27 497.95,-147.44 506.17,-139.72"/>
<polygon fill="#63b8ff" stroke="#63b8ff" points="508.36,-142.46 513.58,-133.24 503.75,-137.19 508.36,-142.46"/>
</a>
</g>
</g>
<!-- Node36&#45;&gt;Node9 -->
<g id="edge64_Node000036_Node000009" class="edge">
<title>Node36&#45;&gt;Node9</title>
<g id="a_edge64_Node000036_Node000009"><a xlink:title=" ">
<path fill="none" stroke="#63b8ff" d="M188.89,-279.95C193.45,-266.31 203.7,-240.36 220.12,-224 267.66,-176.66 341.97,-146.68 383.8,-132.56"/>
<polygon fill="#63b8ff" stroke="#63b8ff" points="384.83,-135.91 393.24,-129.47 382.65,-129.26 384.83,-135.91"/>
</a>
</g>
</g>
<!-- Node36&#45;&gt;Node13 -->
<g id="edge63_Node000036_Node000013" class="edge">
<title>Node36&#45;&gt;Node13</title>
<g id="a_edge63_Node000036_Node000013"><a xlink:title=" ">
<path fill="none" stroke="#63b8ff" d="M182.91,-279.78C175.97,-258.08 162.05,-202.94 186.12,-168 198.14,-150.56 217.89,-139.87 237.83,-133.32"/>
<polygon fill="#63b8ff" stroke="#63b8ff" points="238.81,-136.69 247.43,-130.52 236.85,-129.97 238.81,-136.69"/>
</a>
</g>
</g>
<!-- Node37&#45;&gt;Node33 -->
<g id="edge66_Node000037_Node000033" class="edge">
<title>Node37&#45;&gt;Node33</title>
<g id="a_edge66_Node000037_Node000033"><a xlink:title=" ">
<path fill="none" stroke="#63b8ff" d="M53.74,-335.59C55.61,-328.86 58.2,-319.53 60.53,-311.15"/>
<polygon fill="#63b8ff" stroke="#63b8ff" points="63.83,-312.33 63.14,-301.76 57.09,-310.46 63.83,-312.33"/>
</a>
</g>
</g>
<!-- Node37&#45;&gt;Node36 -->
<g id="edge67_Node000037_Node000036" class="edge">
<title>Node37&#45;&gt;Node36</title>
<g id="a_edge67_Node000037_Node000036"><a xlink:title=" ">
<path fill="none" stroke="#63b8ff" d="M74.64,-335.59C96,-327.05 127.76,-314.35 151.92,-304.68"/>
<polygon fill="#63b8ff" stroke="#63b8ff" points="153.04,-308.01 161.02,-301.04 150.44,-301.51 153.04,-308.01"/>
</a>
</g>
</g>
</g>
</svg>
