<?xml version="1.0" encoding="UTF-8" standalone="no"?>
<!DOCTYPE svg PUBLIC "-//W3C//DTD SVG 1.1//EN"
 "http://www.w3.org/Graphics/SVG/1.1/DTD/svg11.dtd">
<!-- Generated by graphviz version 10.0.1 (0)
 -->
<!-- Title: src/bot_library/commands/profile/ProfileCommand.cpp Pages: 1 -->
<svg width="1935pt" height="376pt"
 viewBox="0.00 0.00 1935.00 376.00" xmlns="http://www.w3.org/2000/svg" xmlns:xlink="http://www.w3.org/1999/xlink">
<g id="graph0" class="graph" transform="scale(1 1) rotate(0) translate(4 372)">
<title>src/bot_library/commands/profile/ProfileCommand.cpp</title>
<!-- Node1 -->
<g id="Node000001" class="node">
<title>Node1</title>
<g id="a_Node000001"><a xlink:title=" ">
<polygon fill="#999999" stroke="#666666" points="1068.12,-368 928.38,-368 928.38,-336 1068.12,-336 1068.12,-368"/>
<text text-anchor="start" x="936.38" y="-354.5" font-family="Helvetica,sans-Serif" font-size="10.00">src/bot_library/commands</text>
<text text-anchor="middle" x="998.25" y="-342.5" font-family="Helvetica,sans-Serif" font-size="10.00">/profile/ProfileCommand.cpp</text>
</a>
</g>
</g>
<!-- Node2 -->
<g id="Node000002" class="node">
<title>Node2</title>
<g id="a_Node000002"><a xlink:href="ProfileCommand_8hpp.html" target="_top" xlink:title=" ">
<polygon fill="white" stroke="#666666" points="1093,-300 985.5,-300 985.5,-280 1093,-280 1093,-300"/>
<text text-anchor="middle" x="1039.25" y="-286.5" font-family="Helvetica,sans-Serif" font-size="10.00">ProfileCommand.hpp</text>
</a>
</g>
</g>
<!-- Node1&#45;&gt;Node2 -->
<g id="edge1_Node000001_Node000002" class="edge">
<title>Node1&#45;&gt;Node2</title>
<g id="a_edge1_Node000001_Node000002"><a xlink:title=" ">
<path fill="none" stroke="#63b8ff" d="M1008.81,-335.55C1014.21,-327.65 1020.82,-317.97 1026.5,-309.66"/>
<polygon fill="#63b8ff" stroke="#63b8ff" points="1029.22,-311.89 1031.97,-301.66 1023.44,-307.94 1029.22,-311.89"/>
</a>
</g>
</g>
<!-- Node10 -->
<g id="Node000010" class="node">
<title>Node10</title>
<g id="a_Node000010"><a xlink:title=" ">
<polygon fill="#e0e0e0" stroke="#999999" points="463.25,-76 423.25,-76 423.25,-56 463.25,-56 463.25,-76"/>
<text text-anchor="middle" x="443.25" y="-62.5" font-family="Helvetica,sans-Serif" font-size="10.00">string</text>
</a>
</g>
</g>
<!-- Node1&#45;&gt;Node10 -->
<g id="edge69_Node000001_Node000010" class="edge">
<title>Node1&#45;&gt;Node10</title>
<g id="a_edge69_Node000001_Node000010"><a xlink:title=" ">
<path fill="none" stroke="#63b8ff" d="M928.13,-346.65C751.12,-334.74 300.25,-298.19 300.25,-235 300.25,-235 300.25,-235 300.25,-177 300.25,-121.05 369.87,-89.63 411.96,-75.74"/>
<polygon fill="#63b8ff" stroke="#63b8ff" points="412.82,-79.14 421.32,-72.81 410.73,-72.46 412.82,-79.14"/>
</a>
</g>
</g>
<!-- Node12 -->
<g id="Node000012" class="node">
<title>Node12</title>
<g id="a_Node000012"><a xlink:title=" ">
<polygon fill="#e0e0e0" stroke="#999999" points="994.75,-76 951.75,-76 951.75,-56 994.75,-56 994.75,-76"/>
<text text-anchor="middle" x="973.25" y="-62.5" font-family="Helvetica,sans-Serif" font-size="10.00">vector</text>
</a>
</g>
</g>
<!-- Node1&#45;&gt;Node12 -->
<g id="edge70_Node000001_Node000012" class="edge">
<title>Node1&#45;&gt;Node12</title>
<g id="a_edge70_Node000001_Node000012"><a xlink:title=" ">
<path fill="none" stroke="#63b8ff" d="M986.36,-335.79C971.69,-315.98 947.56,-279.65 938.25,-244 923.45,-187.34 948.93,-119.04 963.76,-86.31"/>
<polygon fill="#63b8ff" stroke="#63b8ff" points="966.73,-88.21 967.83,-77.67 960.4,-85.23 966.73,-88.21"/>
</a>
</g>
</g>
<!-- Node26 -->
<g id="Node000026" class="node">
<title>Node26</title>
<g id="a_Node000026"><a xlink:title=" ">
<polygon fill="#e0e0e0" stroke="#999999" points="1161.5,-300 1111,-300 1111,-280 1161.5,-280 1161.5,-300"/>
<text text-anchor="middle" x="1136.25" y="-286.5" font-family="Helvetica,sans-Serif" font-size="10.00">colors.h</text>
</a>
</g>
</g>
<!-- Node1&#45;&gt;Node26 -->
<g id="edge48_Node000001_Node000026" class="edge">
<title>Node1&#45;&gt;Node26</title>
<g id="a_edge48_Node000001_Node000026"><a xlink:title=" ">
<path fill="none" stroke="#63b8ff" d="M1033.79,-335.55C1055.55,-326.09 1083.17,-314.08 1104.25,-304.91"/>
<polygon fill="#63b8ff" stroke="#63b8ff" points="1105.45,-308.21 1113.22,-301.01 1102.66,-301.79 1105.45,-308.21"/>
</a>
</g>
</g>
<!-- Node27 -->
<g id="Node000027" class="node">
<title>Node27</title>
<g id="a_Node000027"><a xlink:title=" ">
<polygon fill="#e0e0e0" stroke="#999999" points="1248.88,-300 1179.62,-300 1179.62,-280 1248.88,-280 1248.88,-300"/>
<text text-anchor="middle" x="1214.25" y="-286.5" font-family="Helvetica,sans-Serif" font-size="10.00">dispatcher.h</text>
</a>
</g>
</g>
<!-- Node1&#45;&gt;Node27 -->
<g id="edge49_Node000001_Node000027" class="edge">
<title>Node1&#45;&gt;Node27</title>
<g id="a_edge49_Node000001_Node000027"><a xlink:title=" ">
<path fill="none" stroke="#63b8ff" d="M1053.88,-335.55C1089.7,-325.6 1135.67,-312.83 1169.2,-303.51"/>
<polygon fill="#63b8ff" stroke="#63b8ff" points="1169.91,-306.95 1178.6,-300.9 1168.03,-300.21 1169.91,-306.95"/>
</a>
</g>
</g>
<!-- Node28 -->
<g id="Node000028" class="node">
<title>Node28</title>
<g id="a_Node000028"><a xlink:title=" ">
<polygon fill="#e0e0e0" stroke="#999999" points="1314,-300 1266.5,-300 1266.5,-280 1314,-280 1314,-300"/>
<text text-anchor="middle" x="1290.25" y="-286.5" font-family="Helvetica,sans-Serif" font-size="10.00">invite.h</text>
</a>
</g>
</g>
<!-- Node1&#45;&gt;Node28 -->
<g id="edge50_Node000001_Node000028" class="edge">
<title>Node1&#45;&gt;Node28</title>
<g id="a_edge50_Node000001_Node000028"><a xlink:title=" ">
<path fill="none" stroke="#63b8ff" d="M1068.38,-338.82C1118.23,-329.81 1186.97,-316.64 1255.24,-300.59"/>
<polygon fill="#63b8ff" stroke="#63b8ff" points="1255.8,-304.06 1264.72,-298.34 1254.18,-297.25 1255.8,-304.06"/>
</a>
</g>
</g>
<!-- Node29 -->
<g id="Node000029" class="node">
<title>Node29</title>
<g id="a_Node000029"><a xlink:title=" ">
<polygon fill="#e0e0e0" stroke="#999999" points="1396.25,-300 1332.25,-300 1332.25,-280 1396.25,-280 1396.25,-300"/>
<text text-anchor="middle" x="1364.25" y="-286.5" font-family="Helvetica,sans-Serif" font-size="10.00">message.h</text>
</a>
</g>
</g>
<!-- Node1&#45;&gt;Node29 -->
<g id="edge51_Node000001_Node000029" class="edge">
<title>Node1&#45;&gt;Node29</title>
<g id="a_edge51_Node000001_Node000029"><a xlink:title=" ">
<path fill="none" stroke="#63b8ff" d="M1068.51,-341.23C1131.9,-332.12 1227.96,-317.63 1320.76,-300.38"/>
<polygon fill="#63b8ff" stroke="#63b8ff" points="1321.39,-303.82 1330.57,-298.54 1320.1,-296.94 1321.39,-303.82"/>
</a>
</g>
</g>
<!-- Node30 -->
<g id="Node000030" class="node">
<title>Node30</title>
<g id="a_Node000030"><a xlink:title=" ">
<polygon fill="#e0e0e0" stroke="#999999" points="1486.38,-300 1414.12,-300 1414.12,-280 1486.38,-280 1486.38,-300"/>
<text text-anchor="middle" x="1450.25" y="-286.5" font-family="Helvetica,sans-Serif" font-size="10.00">misc&#45;enum.h</text>
</a>
</g>
</g>
<!-- Node1&#45;&gt;Node30 -->
<g id="edge52_Node000001_Node000030" class="edge">
<title>Node1&#45;&gt;Node30</title>
<g id="a_edge52_Node000001_Node000030"><a xlink:title=" ">
<path fill="none" stroke="#63b8ff" d="M1068.33,-343.79C1147.23,-335.31 1279.48,-320.05 1402.8,-300.3"/>
<polygon fill="#63b8ff" stroke="#63b8ff" points="1403.13,-303.79 1412.45,-298.74 1402.02,-296.88 1403.13,-303.79"/>
</a>
</g>
</g>
<!-- Node31 -->
<g id="Node000031" class="node">
<title>Node31</title>
<g id="a_Node000031"><a xlink:href="ChallengeBadgeDTO_8hpp.html" target="_top" xlink:title=" ">
<polygon fill="white" stroke="#666666" points="493.75,-132 366.75,-132 366.75,-112 493.75,-112 493.75,-132"/>
<text text-anchor="middle" x="430.25" y="-118.5" font-family="Helvetica,sans-Serif" font-size="10.00">ChallengeBadgeDTO.hpp</text>
</a>
</g>
</g>
<!-- Node1&#45;&gt;Node31 -->
<g id="edge53_Node000001_Node000031" class="edge">
<title>Node1&#45;&gt;Node31</title>
<g id="a_edge53_Node000001_Node000031"><a xlink:title=" ">
<path fill="none" stroke="#63b8ff" d="M954.24,-335.51C926.58,-325.64 890.2,-312.42 858.25,-300 709.21,-242.07 533.46,-167.33 462.42,-136.86"/>
<polygon fill="#63b8ff" stroke="#63b8ff" points="463.9,-133.68 453.33,-132.95 461.14,-140.12 463.9,-133.68"/>
</a>
</g>
</g>
<!-- Node32 -->
<g id="Node000032" class="node">
<title>Node32</title>
<g id="a_Node000032"><a xlink:href="ChallengeBadgeRepository_8hpp.html" target="_top" xlink:title=" ">
<polygon fill="white" stroke="#666666" points="152.5,-188 0,-188 0,-168 152.5,-168 152.5,-188"/>
<text text-anchor="middle" x="76.25" y="-174.5" font-family="Helvetica,sans-Serif" font-size="10.00">ChallengeBadgeRepository.hpp</text>
</a>
</g>
</g>
<!-- Node1&#45;&gt;Node32 -->
<g id="edge56_Node000001_Node000032" class="edge">
<title>Node1&#45;&gt;Node32</title>
<g id="a_edge56_Node000001_Node000032"><a xlink:title=" ">
<path fill="none" stroke="#63b8ff" d="M928.03,-350.64C768.57,-349.09 383.51,-341.08 261.25,-300 193.33,-277.18 126.09,-223.29 94.66,-195.79"/>
<polygon fill="#63b8ff" stroke="#63b8ff" points="97.02,-193.2 87.22,-189.17 92.36,-198.43 97.02,-193.2"/>
</a>
</g>
</g>
<!-- Node34 -->
<g id="Node000034" class="node">
<title>Node34</title>
<g id="a_Node000034"><a xlink:href="HasBadgeRepository_8hpp.html" target="_top" xlink:title=" ">
<polygon fill="white" stroke="#666666" points="1074.75,-244 947.75,-244 947.75,-224 1074.75,-224 1074.75,-244"/>
<text text-anchor="middle" x="1011.25" y="-230.5" font-family="Helvetica,sans-Serif" font-size="10.00">HasBadgeRepository.hpp</text>
</a>
</g>
</g>
<!-- Node1&#45;&gt;Node34 -->
<g id="edge60_Node000001_Node000034" class="edge">
<title>Node1&#45;&gt;Node34</title>
<g id="a_edge60_Node000001_Node000034"><a xlink:title=" ">
<path fill="none" stroke="#63b8ff" d="M987.81,-335.68C979.32,-321.24 969.72,-299.04 976.25,-280 979.72,-269.88 986.5,-260.29 993.17,-252.58"/>
<polygon fill="#63b8ff" stroke="#63b8ff" points="995.71,-254.99 1000,-245.3 990.6,-250.2 995.71,-254.99"/>
</a>
</g>
</g>
<!-- Node35 -->
<g id="Node000035" class="node">
<title>Node35</title>
<g id="a_Node000035"><a xlink:href="UserDTO_8hpp.html" target="_top" xlink:title=" ">
<polygon fill="white" stroke="#666666" points="588.62,-132 511.88,-132 511.88,-112 588.62,-112 588.62,-132"/>
<text text-anchor="middle" x="550.25" y="-118.5" font-family="Helvetica,sans-Serif" font-size="10.00">UserDTO.hpp</text>
</a>
</g>
</g>
<!-- Node1&#45;&gt;Node35 -->
<g id="edge62_Node000001_Node000035" class="edge">
<title>Node1&#45;&gt;Node35</title>
<g id="a_edge62_Node000001_Node000035"><a xlink:title=" ">
<path fill="none" stroke="#63b8ff" d="M967.81,-335.51C885.26,-293.49 657.99,-177.83 578.31,-137.28"/>
<polygon fill="#63b8ff" stroke="#63b8ff" points="580.34,-134.39 569.84,-132.97 577.16,-140.62 580.34,-134.39"/>
</a>
</g>
</g>
<!-- Node36 -->
<g id="Node000036" class="node">
<title>Node36</title>
<g id="a_Node000036"><a xlink:href="UserRepository_8hpp.html" target="_top" xlink:title=" ">
<polygon fill="white" stroke="#666666" points="272.38,-188 170.12,-188 170.12,-168 272.38,-168 272.38,-188"/>
<text text-anchor="middle" x="221.25" y="-174.5" font-family="Helvetica,sans-Serif" font-size="10.00">UserRepository.hpp</text>
</a>
</g>
</g>
<!-- Node1&#45;&gt;Node36 -->
<g id="edge65_Node000001_Node000036" class="edge">
<title>Node1&#45;&gt;Node36</title>
<g id="a_edge65_Node000001_Node000036"><a xlink:title=" ">
<path fill="none" stroke="#63b8ff" d="M928,-349.78C758.9,-346.31 339.24,-334.31 286.25,-300 250.51,-276.85 233,-227.12 225.68,-199.16"/>
<polygon fill="#63b8ff" stroke="#63b8ff" points="229.17,-198.7 223.43,-189.8 222.37,-200.34 229.17,-198.7"/>
</a>
</g>
</g>
<!-- Node37 -->
<g id="Node000037" class="node">
<title>Node37</title>
<g id="a_Node000037"><a xlink:title=" ">
<polygon fill="#e0e0e0" stroke="#999999" points="1548.12,-300 1504.38,-300 1504.38,-280 1548.12,-280 1548.12,-300"/>
<text text-anchor="middle" x="1526.25" y="-286.5" font-family="Helvetica,sans-Serif" font-size="10.00">format</text>
</a>
</g>
</g>
<!-- Node1&#45;&gt;Node37 -->
<g id="edge68_Node000001_Node000037" class="edge">
<title>Node1&#45;&gt;Node37</title>
<g id="a_edge68_Node000001_Node000037"><a xlink:title=" ">
<path fill="none" stroke="#63b8ff" d="M1068.39,-347.79C1162.9,-342.59 1336.4,-329.93 1492.79,-300.15"/>
<polygon fill="#63b8ff" stroke="#63b8ff" points="1493.38,-303.6 1502.53,-298.26 1492.05,-296.73 1493.38,-303.6"/>
</a>
</g>
</g>
<!-- Node3 -->
<g id="Node000003" class="node">
<title>Node3</title>
<g id="a_Node000003"><a xlink:href="Bot_8hpp.html" target="_top" xlink:title=" ">
<polygon fill="white" stroke="#666666" points="1339.12,-244 1289.38,-244 1289.38,-224 1339.12,-224 1339.12,-244"/>
<text text-anchor="middle" x="1314.25" y="-230.5" font-family="Helvetica,sans-Serif" font-size="10.00">Bot.hpp</text>
</a>
</g>
</g>
<!-- Node2&#45;&gt;Node3 -->
<g id="edge2_Node000002_Node000003" class="edge">
<title>Node2&#45;&gt;Node3</title>
<g id="a_edge2_Node000002_Node000003"><a xlink:title=" ">
<path fill="none" stroke="#63b8ff" d="M1087.47,-279.53C1141.83,-268.86 1228.99,-251.74 1277.91,-242.14"/>
<polygon fill="#63b8ff" stroke="#63b8ff" points="1278.57,-245.57 1287.71,-240.21 1277.22,-238.7 1278.57,-245.57"/>
</a>
</g>
</g>
<!-- Node4 -->
<g id="Node000004" class="node">
<title>Node4</title>
<g id="a_Node000004"><a xlink:href="Core_8hpp.html" target="_top" xlink:title=" ">
<polygon fill="white" stroke="#666666" points="1248.12,-188 1192.38,-188 1192.38,-168 1248.12,-168 1248.12,-188"/>
<text text-anchor="middle" x="1220.25" y="-174.5" font-family="Helvetica,sans-Serif" font-size="10.00">Core.hpp</text>
</a>
</g>
</g>
<!-- Node3&#45;&gt;Node4 -->
<g id="edge3_Node000003_Node000004" class="edge">
<title>Node3&#45;&gt;Node4</title>
<g id="a_edge3_Node000003_Node000004"><a xlink:title=" ">
<path fill="none" stroke="#63b8ff" d="M1297.88,-223.59C1283.68,-215.44 1262.87,-203.48 1246.37,-194"/>
<polygon fill="#63b8ff" stroke="#63b8ff" points="1248.48,-191.18 1238.06,-189.23 1244.99,-197.25 1248.48,-191.18"/>
</a>
</g>
</g>
<!-- Node3&#45;&gt;Node10 -->
<g id="edge46_Node000003_Node000010" class="edge">
<title>Node3&#45;&gt;Node10</title>
<g id="a_edge46_Node000003_Node000010"><a xlink:title=" ">
<path fill="none" stroke="#63b8ff" d="M1289.1,-231.29C1141.14,-221.12 389.49,-167.82 357.25,-132 336.31,-108.73 379.45,-88.12 411.87,-76.63"/>
<polygon fill="#63b8ff" stroke="#63b8ff" points="412.98,-79.95 421.34,-73.43 410.74,-73.31 412.98,-79.95"/>
</a>
</g>
</g>
<!-- Node3&#45;&gt;Node12 -->
<g id="edge47_Node000003_Node000012" class="edge">
<title>Node3&#45;&gt;Node12</title>
<g id="a_edge47_Node000003_Node000012"><a xlink:title=" ">
<path fill="none" stroke="#63b8ff" d="M1289.1,-229.22C1236.48,-220.27 1112.81,-193.74 1030.25,-132 1012.65,-118.83 996.53,-99.46 985.96,-85.29"/>
<polygon fill="#63b8ff" stroke="#63b8ff" points="988.87,-83.35 980.19,-77.28 983.2,-87.44 988.87,-83.35"/>
</a>
</g>
</g>
<!-- Node14 -->
<g id="Node000014" class="node">
<title>Node14</title>
<g id="a_Node000014"><a xlink:href="IButtonCommand_8hpp.html" target="_top" xlink:title=" ">
<polygon fill="white" stroke="#666666" points="1303.88,-132 1192.62,-132 1192.62,-112 1303.88,-112 1303.88,-132"/>
<text text-anchor="middle" x="1248.25" y="-118.5" font-family="Helvetica,sans-Serif" font-size="10.00">IButtonCommand.hpp</text>
</a>
</g>
</g>
<!-- Node3&#45;&gt;Node14 -->
<g id="edge35_Node000003_Node000014" class="edge">
<title>Node3&#45;&gt;Node14</title>
<g id="a_edge35_Node000003_Node000014"><a xlink:title=" ">
<path fill="none" stroke="#63b8ff" d="M1308.62,-223.62C1297.81,-205.6 1273.94,-165.81 1259.66,-142.02"/>
<polygon fill="#63b8ff" stroke="#63b8ff" points="1262.79,-140.43 1254.64,-133.65 1256.79,-144.03 1262.79,-140.43"/>
</a>
</g>
</g>
<!-- Node17 -->
<g id="Node000017" class="node">
<title>Node17</title>
<g id="a_Node000017"><a xlink:href="IFormCommand_8hpp.html" target="_top" xlink:title=" ">
<polygon fill="white" stroke="#666666" points="1426.88,-132 1321.62,-132 1321.62,-112 1426.88,-112 1426.88,-132"/>
<text text-anchor="middle" x="1374.25" y="-118.5" font-family="Helvetica,sans-Serif" font-size="10.00">IFormCommand.hpp</text>
</a>
</g>
</g>
<!-- Node3&#45;&gt;Node17 -->
<g id="edge36_Node000003_Node000017" class="edge">
<title>Node3&#45;&gt;Node17</title>
<g id="a_edge36_Node000003_Node000017"><a xlink:title=" ">
<path fill="none" stroke="#63b8ff" d="M1316.64,-223.77C1320.23,-210.79 1327.72,-186.64 1338.25,-168 1343.64,-158.46 1351,-148.85 1357.67,-140.98"/>
<polygon fill="#63b8ff" stroke="#63b8ff" points="1360.28,-143.3 1364.27,-133.49 1355.03,-138.67 1360.28,-143.3"/>
</a>
</g>
</g>
<!-- Node18 -->
<g id="Node000018" class="node">
<title>Node18</title>
<g id="a_Node000018"><a xlink:href="IGlobalSlashCommand_8hpp.html" target="_top" xlink:title=" ">
<polygon fill="white" stroke="#666666" points="1174.88,-132 1039.62,-132 1039.62,-112 1174.88,-112 1174.88,-132"/>
<text text-anchor="middle" x="1107.25" y="-118.5" font-family="Helvetica,sans-Serif" font-size="10.00">IGlobalSlashCommand.hpp</text>
</a>
</g>
</g>
<!-- Node3&#45;&gt;Node18 -->
<g id="edge37_Node000003_Node000018" class="edge">
<title>Node3&#45;&gt;Node18</title>
<g id="a_edge37_Node000003_Node000018"><a xlink:title=" ">
<path fill="none" stroke="#63b8ff" d="M1288.92,-227.32C1261.62,-220.53 1217.49,-207.57 1183.25,-188 1160.53,-175.02 1138.22,-154.79 1123.71,-140.35"/>
<polygon fill="#63b8ff" stroke="#63b8ff" points="1126.31,-138 1116.81,-133.3 1121.31,-142.9 1126.31,-138"/>
</a>
</g>
</g>
<!-- Node20 -->
<g id="Node000020" class="node">
<title>Node20</title>
<g id="a_Node000020"><a xlink:href="IMemberCommand_8hpp.html" target="_top" xlink:title=" ">
<polygon fill="white" stroke="#666666" points="1563.25,-132 1445.25,-132 1445.25,-112 1563.25,-112 1563.25,-132"/>
<text text-anchor="middle" x="1504.25" y="-118.5" font-family="Helvetica,sans-Serif" font-size="10.00">IMemberCommand.hpp</text>
</a>
</g>
</g>
<!-- Node3&#45;&gt;Node20 -->
<g id="edge38_Node000003_Node000020" class="edge">
<title>Node3&#45;&gt;Node20</title>
<g id="a_edge38_Node000003_Node000020"><a xlink:title=" ">
<path fill="none" stroke="#63b8ff" d="M1320.82,-223.71C1331.13,-209.76 1352.41,-183.4 1376.25,-168 1398.98,-153.31 1427.1,-142.75 1451.18,-135.56"/>
<polygon fill="#63b8ff" stroke="#63b8ff" points="1451.82,-139.02 1460.47,-132.91 1449.9,-132.28 1451.82,-139.02"/>
</a>
</g>
</g>
<!-- Node21 -->
<g id="Node000021" class="node">
<title>Node21</title>
<g id="a_Node000021"><a xlink:href="IMessageCommand_8hpp.html" target="_top" xlink:title=" ">
<polygon fill="white" stroke="#666666" points="1703.5,-132 1581,-132 1581,-112 1703.5,-112 1703.5,-132"/>
<text text-anchor="middle" x="1642.25" y="-118.5" font-family="Helvetica,sans-Serif" font-size="10.00">IMessageCommand.hpp</text>
</a>
</g>
</g>
<!-- Node3&#45;&gt;Node21 -->
<g id="edge39_Node000003_Node000021" class="edge">
<title>Node3&#45;&gt;Node21</title>
<g id="a_edge39_Node000003_Node000021"><a xlink:title=" ">
<path fill="none" stroke="#63b8ff" d="M1327.13,-223.74C1349.77,-207.62 1396.02,-175.4 1414.25,-168 1441.88,-156.78 1513.62,-143.52 1569.31,-134.31"/>
<polygon fill="#63b8ff" stroke="#63b8ff" points="1569.78,-137.78 1579.08,-132.71 1568.65,-130.87 1569.78,-137.78"/>
</a>
</g>
</g>
<!-- Node22 -->
<g id="Node000022" class="node">
<title>Node22</title>
<g id="a_Node000022"><a xlink:href="IReactionCommand_8hpp.html" target="_top" xlink:title=" ">
<polygon fill="white" stroke="#666666" points="1843.12,-132 1721.38,-132 1721.38,-112 1843.12,-112 1843.12,-132"/>
<text text-anchor="middle" x="1782.25" y="-118.5" font-family="Helvetica,sans-Serif" font-size="10.00">IReactionCommand.hpp</text>
</a>
</g>
</g>
<!-- Node3&#45;&gt;Node22 -->
<g id="edge40_Node000003_Node000022" class="edge">
<title>Node3&#45;&gt;Node22</title>
<g id="a_edge40_Node000003_Node000022"><a xlink:title=" ">
<path fill="none" stroke="#63b8ff" d="M1334.74,-223.63C1354.41,-214.61 1384.93,-200.52 1411.25,-188 1429.56,-179.29 1432.85,-173.89 1452.25,-168 1458.38,-166.14 1614.3,-145.27 1709.59,-132.62"/>
<polygon fill="#63b8ff" stroke="#63b8ff" points="1709.94,-136.1 1719.4,-131.32 1709.02,-129.16 1709.94,-136.1"/>
</a>
</g>
</g>
<!-- Node23 -->
<g id="Node000023" class="node">
<title>Node23</title>
<g id="a_Node000023"><a xlink:href="IReady_8hpp.html" target="_top" xlink:title=" ">
<polygon fill="white" stroke="#666666" points="1927,-132 1861.5,-132 1861.5,-112 1927,-112 1927,-132"/>
<text text-anchor="middle" x="1894.25" y="-118.5" font-family="Helvetica,sans-Serif" font-size="10.00">IReady.hpp</text>
</a>
</g>
</g>
<!-- Node3&#45;&gt;Node23 -->
<g id="edge41_Node000003_Node000023" class="edge">
<title>Node3&#45;&gt;Node23</title>
<g id="a_edge41_Node000003_Node000023"><a xlink:title=" ">
<path fill="none" stroke="#63b8ff" d="M1339.24,-225.5C1365.88,-217.26 1409.11,-203.17 1445.25,-188 1463.58,-180.31 1466.15,-173.51 1485.25,-168 1639.19,-123.61 1688.11,-155.7 1849.96,-132.14"/>
<polygon fill="#63b8ff" stroke="#63b8ff" points="1850.44,-135.61 1859.8,-130.66 1849.39,-128.69 1850.44,-135.61"/>
</a>
</g>
</g>
<!-- Node24 -->
<g id="Node000024" class="node">
<title>Node24</title>
<g id="a_Node000024"><a xlink:title=" ">
<polygon fill="#e0e0e0" stroke="#999999" points="1528.62,-188 1493.88,-188 1493.88,-168 1528.62,-168 1528.62,-188"/>
<text text-anchor="middle" x="1511.25" y="-174.5" font-family="Helvetica,sans-Serif" font-size="10.00">map</text>
</a>
</g>
</g>
<!-- Node3&#45;&gt;Node24 -->
<g id="edge44_Node000003_Node000024" class="edge">
<title>Node3&#45;&gt;Node24</title>
<g id="a_edge44_Node000003_Node000024"><a xlink:title=" ">
<path fill="none" stroke="#63b8ff" d="M1339.6,-226.28C1372.19,-217.6 1430.51,-201.96 1480.25,-188 1481.06,-187.77 1481.88,-187.54 1482.71,-187.31"/>
<polygon fill="#63b8ff" stroke="#63b8ff" points="1483.46,-190.73 1492.11,-184.61 1481.53,-184 1483.46,-190.73"/>
</a>
</g>
</g>
<!-- Node25 -->
<g id="Node000025" class="node">
<title>Node25</title>
<g id="a_Node000025"><a xlink:title=" ">
<polygon fill="#e0e0e0" stroke="#999999" points="1597.88,-188 1546.62,-188 1546.62,-168 1597.88,-168 1597.88,-188"/>
<text text-anchor="middle" x="1572.25" y="-174.5" font-family="Helvetica,sans-Serif" font-size="10.00">memory</text>
</a>
</g>
</g>
<!-- Node3&#45;&gt;Node25 -->
<g id="edge45_Node000003_Node000025" class="edge">
<title>Node3&#45;&gt;Node25</title>
<g id="a_edge45_Node000003_Node000025"><a xlink:title=" ">
<path fill="none" stroke="#63b8ff" d="M1339.42,-228.37C1378.97,-220.99 1458.29,-205.82 1535.43,-188.32"/>
<polygon fill="#63b8ff" stroke="#63b8ff" points="1535.85,-191.81 1544.82,-186.17 1534.29,-184.99 1535.85,-191.81"/>
</a>
</g>
</g>
<!-- Node5 -->
<g id="Node000005" class="node">
<title>Node5</title>
<g id="a_Node000005"><a xlink:title=" ">
<polygon fill="#e0e0e0" stroke="#999999" points="665.62,-132 606.88,-132 606.88,-112 665.62,-112 665.62,-132"/>
<text text-anchor="middle" x="636.25" y="-118.5" font-family="Helvetica,sans-Serif" font-size="10.00">dpp/dpp.h</text>
</a>
</g>
</g>
<!-- Node4&#45;&gt;Node5 -->
<g id="edge4_Node000004_Node000005" class="edge">
<title>Node4&#45;&gt;Node5</title>
<g id="a_edge4_Node000004_Node000005"><a xlink:title=" ">
<path fill="none" stroke="#63b8ff" d="M1191.94,-176.17C1112.3,-173.51 879.43,-163.56 677.17,-132.25"/>
<polygon fill="#63b8ff" stroke="#63b8ff" points="677.95,-128.83 667.53,-130.74 676.87,-135.75 677.95,-128.83"/>
</a>
</g>
</g>
<!-- Node6 -->
<g id="Node000006" class="node">
<title>Node6</title>
<g id="a_Node000006"><a xlink:title=" ">
<polygon fill="#e0e0e0" stroke="#999999" points="774.75,-132 683.75,-132 683.75,-112 774.75,-112 774.75,-132"/>
<text text-anchor="middle" x="729.25" y="-118.5" font-family="Helvetica,sans-Serif" font-size="10.00">dpp/misc&#45;enum.h</text>
</a>
</g>
</g>
<!-- Node4&#45;&gt;Node6 -->
<g id="edge5_Node000004_Node000006" class="edge">
<title>Node4&#45;&gt;Node6</title>
<g id="a_edge5_Node000004_Node000006"><a xlink:title=" ">
<path fill="none" stroke="#63b8ff" d="M1191.96,-174.49C1122.99,-168.27 940.75,-151.26 789.25,-132 788.24,-131.87 787.23,-131.74 786.21,-131.61"/>
<polygon fill="#63b8ff" stroke="#63b8ff" points="786.96,-128.18 776.58,-130.3 786.02,-135.11 786.96,-128.18"/>
</a>
</g>
</g>
<!-- Node7 -->
<g id="Node000007" class="node">
<title>Node7</title>
<g id="a_Node000007"><a xlink:href="Database_8hpp.html" target="_top" xlink:title=" ">
<polygon fill="white" stroke="#666666" points="907.62,-132 830.88,-132 830.88,-112 907.62,-112 907.62,-132"/>
<text text-anchor="middle" x="869.25" y="-118.5" font-family="Helvetica,sans-Serif" font-size="10.00">Database.hpp</text>
</a>
</g>
</g>
<!-- Node4&#45;&gt;Node7 -->
<g id="edge6_Node000004_Node000007" class="edge">
<title>Node4&#45;&gt;Node7</title>
<g id="a_edge6_Node000004_Node000007"><a xlink:title=" ">
<path fill="none" stroke="#63b8ff" d="M1192.12,-172.67C1132.7,-163.53 993.75,-142.15 918.97,-130.65"/>
<polygon fill="#63b8ff" stroke="#63b8ff" points="919.9,-127.25 909.48,-129.19 918.83,-134.17 919.9,-127.25"/>
</a>
</g>
</g>
<!-- Node4&#45;&gt;Node10 -->
<g id="edge34_Node000004_Node000010" class="edge">
<title>Node4&#45;&gt;Node10</title>
<g id="a_edge34_Node000004_Node000010"><a xlink:title=" ">
<path fill="none" stroke="#63b8ff" d="M1192.05,-177.26C1125.94,-177.12 956.39,-172.5 822.25,-132 803.6,-126.37 801.84,-117.81 783.25,-112 754.06,-102.88 552.73,-79.42 474.37,-70.5"/>
<polygon fill="#63b8ff" stroke="#63b8ff" points="475.15,-67.07 464.81,-69.42 474.36,-74.03 475.15,-67.07"/>
</a>
</g>
</g>
<!-- Node4&#45;&gt;Node14 -->
<g id="edge14_Node000004_Node000014" class="edge">
<title>Node4&#45;&gt;Node14</title>
<g id="a_edge14_Node000004_Node000014"><a xlink:title=" ">
<path fill="none" stroke="#63b8ff" d="M1225.13,-167.59C1228.74,-160.63 1233.79,-150.89 1238.25,-142.29"/>
<polygon fill="#63b8ff" stroke="#63b8ff" points="1241.24,-144.13 1242.73,-133.64 1235.02,-140.91 1241.24,-144.13"/>
</a>
</g>
</g>
<!-- Node4&#45;&gt;Node17 -->
<g id="edge17_Node000004_Node000017" class="edge">
<title>Node4&#45;&gt;Node17</title>
<g id="a_edge17_Node000004_Node000017"><a xlink:title=" ">
<path fill="none" stroke="#63b8ff" d="M1247.07,-167.59C1271.88,-158.9 1308.98,-145.89 1336.72,-136.16"/>
<polygon fill="#63b8ff" stroke="#63b8ff" points="1337.51,-139.59 1345.79,-132.98 1335.19,-132.99 1337.51,-139.59"/>
</a>
</g>
</g>
<!-- Node4&#45;&gt;Node18 -->
<g id="edge20_Node000004_Node000018" class="edge">
<title>Node4&#45;&gt;Node18</title>
<g id="a_edge20_Node000004_Node000018"><a xlink:title=" ">
<path fill="none" stroke="#63b8ff" d="M1200.57,-167.59C1183.09,-159.24 1157.3,-146.92 1137.25,-137.34"/>
<polygon fill="#63b8ff" stroke="#63b8ff" points="1138.98,-134.29 1128.45,-133.13 1135.97,-140.6 1138.98,-134.29"/>
</a>
</g>
</g>
<!-- Node4&#45;&gt;Node20 -->
<g id="edge25_Node000004_Node000020" class="edge">
<title>Node4&#45;&gt;Node20</title>
<g id="a_edge25_Node000004_Node000020"><a xlink:title=" ">
<path fill="none" stroke="#63b8ff" d="M1248.52,-171.62C1293.66,-163.04 1383.06,-146.04 1443.27,-134.6"/>
<polygon fill="#63b8ff" stroke="#63b8ff" points="1443.87,-138.04 1453.04,-132.74 1442.56,-131.17 1443.87,-138.04"/>
</a>
</g>
</g>
<!-- Node4&#45;&gt;Node21 -->
<g id="edge28_Node000004_Node000021" class="edge">
<title>Node4&#45;&gt;Node21</title>
<g id="a_edge28_Node000004_Node000021"><a xlink:title=" ">
<path fill="none" stroke="#63b8ff" d="M1248.54,-173.39C1306.56,-165.99 1443.53,-148.5 1569.42,-132.36"/>
<polygon fill="#63b8ff" stroke="#63b8ff" points="1569.82,-135.84 1579.29,-131.1 1568.93,-128.9 1569.82,-135.84"/>
</a>
</g>
</g>
<!-- Node4&#45;&gt;Node22 -->
<g id="edge31_Node000004_Node000022" class="edge">
<title>Node4&#45;&gt;Node22</title>
<g id="a_edge31_Node000004_Node000022"><a xlink:title=" ">
<path fill="none" stroke="#63b8ff" d="M1248.57,-174.78C1322.49,-168.89 1527.55,-152.07 1709.77,-132.24"/>
<polygon fill="#63b8ff" stroke="#63b8ff" points="1710.12,-135.72 1719.68,-131.15 1709.36,-128.76 1710.12,-135.72"/>
</a>
</g>
</g>
<!-- Node8 -->
<g id="Node000008" class="node">
<title>Node8</title>
<g id="a_Node000008"><a xlink:title=" ">
<polygon fill="#e0e0e0" stroke="#999999" points="332.38,-76 284.12,-76 284.12,-56 332.38,-56 332.38,-76"/>
<text text-anchor="middle" x="308.25" y="-62.5" font-family="Helvetica,sans-Serif" font-size="10.00">cstddef</text>
</a>
</g>
</g>
<!-- Node7&#45;&gt;Node8 -->
<g id="edge7_Node000007_Node000008" class="edge">
<title>Node7&#45;&gt;Node8</title>
<g id="a_edge7_Node000007_Node000008"><a xlink:title=" ">
<path fill="none" stroke="#63b8ff" d="M830.73,-116.89C815.89,-115.32 798.79,-113.55 783.25,-112 619.2,-95.65 423.12,-77.52 343.97,-70.26"/>
<polygon fill="#63b8ff" stroke="#63b8ff" points="344.52,-66.8 334.24,-69.37 343.88,-73.77 344.52,-66.8"/>
</a>
</g>
</g>
<!-- Node9 -->
<g id="Node000009" class="node">
<title>Node9</title>
<g id="a_Node000009"><a xlink:title=" ">
<polygon fill="#e0e0e0" stroke="#999999" points="712.75,-20 651.75,-20 651.75,0 712.75,0 712.75,-20"/>
<text text-anchor="middle" x="682.25" y="-6.5" font-family="Helvetica,sans-Serif" font-size="10.00">pqxx/pqxx</text>
</a>
</g>
</g>
<!-- Node7&#45;&gt;Node9 -->
<g id="edge8_Node000007_Node000009" class="edge">
<title>Node7&#45;&gt;Node9</title>
<g id="a_edge8_Node000007_Node000009"><a xlink:title=" ">
<path fill="none" stroke="#63b8ff" d="M853.31,-111.62C820.94,-92.58 747.3,-49.26 708.03,-26.16"/>
<polygon fill="#63b8ff" stroke="#63b8ff" points="709.85,-23.18 699.46,-21.12 706.3,-29.21 709.85,-23.18"/>
</a>
</g>
</g>
<!-- Node7&#45;&gt;Node10 -->
<g id="edge9_Node000007_Node000010" class="edge">
<title>Node7&#45;&gt;Node10</title>
<g id="a_edge9_Node000007_Node000010"><a xlink:title=" ">
<path fill="none" stroke="#63b8ff" d="M830.38,-114.05C825.96,-113.32 821.51,-112.62 817.25,-112 690.81,-93.46 539.49,-77.01 474.94,-70.25"/>
<polygon fill="#63b8ff" stroke="#63b8ff" points="475.38,-66.78 465.07,-69.23 474.66,-73.74 475.38,-66.78"/>
</a>
</g>
</g>
<!-- Node11 -->
<g id="Node000011" class="node">
<title>Node11</title>
<g id="a_Node000011"><a xlink:title=" ">
<polygon fill="#e0e0e0" stroke="#999999" points="891.88,-76 846.62,-76 846.62,-56 891.88,-56 891.88,-76"/>
<text text-anchor="middle" x="869.25" y="-62.5" font-family="Helvetica,sans-Serif" font-size="10.00">variant</text>
</a>
</g>
</g>
<!-- Node7&#45;&gt;Node11 -->
<g id="edge10_Node000007_Node000011" class="edge">
<title>Node7&#45;&gt;Node11</title>
<g id="a_edge10_Node000007_Node000011"><a xlink:title=" ">
<path fill="none" stroke="#63b8ff" d="M869.25,-111.59C869.25,-105.01 869.25,-95.96 869.25,-87.73"/>
<polygon fill="#63b8ff" stroke="#63b8ff" points="872.75,-87.81 869.25,-77.81 865.75,-87.81 872.75,-87.81"/>
</a>
</g>
</g>
<!-- Node7&#45;&gt;Node12 -->
<g id="edge11_Node000007_Node000012" class="edge">
<title>Node7&#45;&gt;Node12</title>
<g id="a_edge11_Node000007_Node000012"><a xlink:title=" ">
<path fill="none" stroke="#63b8ff" d="M887.37,-111.59C903.22,-103.36 926.53,-91.26 944.87,-81.74"/>
<polygon fill="#63b8ff" stroke="#63b8ff" points="946.39,-84.89 953.65,-77.18 943.16,-78.68 946.39,-84.89"/>
</a>
</g>
</g>
<!-- Node13 -->
<g id="Node000013" class="node">
<title>Node13</title>
<g id="a_Node000013"><a xlink:href="RowDTOAdapter_8hpp.html" target="_top" xlink:title=" ">
<polygon fill="white" stroke="#666666" points="649.12,-76 539.38,-76 539.38,-56 649.12,-56 649.12,-76"/>
<text text-anchor="middle" x="594.25" y="-62.5" font-family="Helvetica,sans-Serif" font-size="10.00">RowDTOAdapter.hpp</text>
</a>
</g>
</g>
<!-- Node7&#45;&gt;Node13 -->
<g id="edge12_Node000007_Node000013" class="edge">
<title>Node7&#45;&gt;Node13</title>
<g id="a_edge12_Node000007_Node000013"><a xlink:title=" ">
<path fill="none" stroke="#63b8ff" d="M830.43,-113.38C784.4,-104.34 707.19,-89.18 653.64,-78.66"/>
<polygon fill="#63b8ff" stroke="#63b8ff" points="654.56,-75.28 644.08,-76.78 653.21,-82.15 654.56,-75.28"/>
</a>
</g>
</g>
<!-- Node13&#45;&gt;Node9 -->
<g id="edge13_Node000013_Node000009" class="edge">
<title>Node13&#45;&gt;Node9</title>
<g id="a_edge13_Node000013_Node000009"><a xlink:title=" ">
<path fill="none" stroke="#63b8ff" d="M609.58,-55.59C622.75,-47.51 641.98,-35.71 657.36,-26.27"/>
<polygon fill="#63b8ff" stroke="#63b8ff" points="658.82,-29.48 665.51,-21.27 655.16,-23.52 658.82,-29.48"/>
</a>
</g>
</g>
<!-- Node15 -->
<g id="Node000015" class="node">
<title>Node15</title>
<g id="a_Node000015"><a xlink:title=" ">
<polygon fill="#e0e0e0" stroke="#999999" points="1491.38,-76 1419.12,-76 1419.12,-56 1491.38,-56 1491.38,-76"/>
<text text-anchor="middle" x="1455.25" y="-62.5" font-family="Helvetica,sans-Serif" font-size="10.00">dpp/cluster.h</text>
</a>
</g>
</g>
<!-- Node14&#45;&gt;Node15 -->
<g id="edge15_Node000014_Node000015" class="edge">
<title>Node14&#45;&gt;Node15</title>
<g id="a_edge15_Node000014_Node000015"><a xlink:title=" ">
<path fill="none" stroke="#63b8ff" d="M1284.31,-111.59C1318.68,-102.63 1370.62,-89.08 1408.23,-79.27"/>
<polygon fill="#63b8ff" stroke="#63b8ff" points="1408.65,-82.77 1417.45,-76.86 1406.89,-76 1408.65,-82.77"/>
</a>
</g>
</g>
<!-- Node16 -->
<g id="Node000016" class="node">
<title>Node16</title>
<g id="a_Node000016"><a xlink:title=" ">
<polygon fill="#e0e0e0" stroke="#999999" points="1597.25,-76 1509.25,-76 1509.25,-56 1597.25,-56 1597.25,-76"/>
<text text-anchor="middle" x="1553.25" y="-62.5" font-family="Helvetica,sans-Serif" font-size="10.00">dpp/dispatcher.h</text>
</a>
</g>
</g>
<!-- Node14&#45;&gt;Node16 -->
<g id="edge16_Node000014_Node000016" class="edge">
<title>Node14&#45;&gt;Node16</title>
<g id="a_edge16_Node000014_Node000016"><a xlink:title=" ">
<path fill="none" stroke="#63b8ff" d="M1301.73,-111.53C1356.71,-101.8 1441.95,-86.71 1497.68,-76.84"/>
<polygon fill="#63b8ff" stroke="#63b8ff" points="1498.04,-80.33 1507.27,-75.14 1496.82,-73.44 1498.04,-80.33"/>
</a>
</g>
</g>
<!-- Node17&#45;&gt;Node15 -->
<g id="edge18_Node000017_Node000015" class="edge">
<title>Node17&#45;&gt;Node15</title>
<g id="a_edge18_Node000017_Node000015"><a xlink:title=" ">
<path fill="none" stroke="#63b8ff" d="M1388.36,-111.59C1400.25,-103.67 1417.52,-92.16 1431.53,-82.82"/>
<polygon fill="#63b8ff" stroke="#63b8ff" points="1433.39,-85.78 1439.77,-77.32 1429.51,-79.95 1433.39,-85.78"/>
</a>
</g>
</g>
<!-- Node17&#45;&gt;Node16 -->
<g id="edge19_Node000017_Node000016" class="edge">
<title>Node17&#45;&gt;Node16</title>
<g id="a_edge19_Node000017_Node000016"><a xlink:title=" ">
<path fill="none" stroke="#63b8ff" d="M1405.43,-111.59C1434.64,-102.78 1478.53,-89.54 1510.9,-79.78"/>
<polygon fill="#63b8ff" stroke="#63b8ff" points="1511.82,-83.16 1520.38,-76.92 1509.79,-76.45 1511.82,-83.16"/>
</a>
</g>
</g>
<!-- Node18&#45;&gt;Node12 -->
<g id="edge24_Node000018_Node000012" class="edge">
<title>Node18&#45;&gt;Node12</title>
<g id="a_edge24_Node000018_Node000012"><a xlink:title=" ">
<path fill="none" stroke="#63b8ff" d="M1083.91,-111.59C1062.19,-102.84 1029.63,-89.72 1005.45,-79.97"/>
<polygon fill="#63b8ff" stroke="#63b8ff" points="1006.98,-76.82 996.4,-76.33 1004.36,-83.31 1006.98,-76.82"/>
</a>
</g>
</g>
<!-- Node18&#45;&gt;Node15 -->
<g id="edge22_Node000018_Node000015" class="edge">
<title>Node18&#45;&gt;Node15</title>
<g id="a_edge22_Node000018_Node000015"><a xlink:title=" ">
<path fill="none" stroke="#63b8ff" d="M1168.27,-111.53C1236.53,-100.94 1345.67,-84 1407.84,-74.36"/>
<polygon fill="#63b8ff" stroke="#63b8ff" points="1408.04,-77.87 1417.38,-72.88 1406.96,-70.95 1408.04,-77.87"/>
</a>
</g>
</g>
<!-- Node18&#45;&gt;Node16 -->
<g id="edge23_Node000018_Node000016" class="edge">
<title>Node18&#45;&gt;Node16</title>
<g id="a_edge23_Node000018_Node000016"><a xlink:title=" ">
<path fill="none" stroke="#63b8ff" d="M1175.2,-112.94C1177.92,-112.62 1180.61,-112.31 1183.25,-112 1320.52,-96.08 1357.97,-95.88 1497.88,-76.27"/>
<polygon fill="#63b8ff" stroke="#63b8ff" points="1498.12,-79.77 1507.53,-74.91 1497.14,-72.84 1498.12,-79.77"/>
</a>
</g>
</g>
<!-- Node19 -->
<g id="Node000019" class="node">
<title>Node19</title>
<g id="a_Node000019"><a xlink:title=" ">
<polygon fill="#e0e0e0" stroke="#999999" points="1148.62,-76 1065.88,-76 1065.88,-56 1148.62,-56 1148.62,-76"/>
<text text-anchor="middle" x="1107.25" y="-62.5" font-family="Helvetica,sans-Serif" font-size="10.00">appcommand.h</text>
</a>
</g>
</g>
<!-- Node18&#45;&gt;Node19 -->
<g id="edge21_Node000018_Node000019" class="edge">
<title>Node18&#45;&gt;Node19</title>
<g id="a_edge21_Node000018_Node000019"><a xlink:title=" ">
<path fill="none" stroke="#63b8ff" d="M1107.25,-111.59C1107.25,-105.01 1107.25,-95.96 1107.25,-87.73"/>
<polygon fill="#63b8ff" stroke="#63b8ff" points="1110.75,-87.81 1107.25,-77.81 1103.75,-87.81 1110.75,-87.81"/>
</a>
</g>
</g>
<!-- Node20&#45;&gt;Node15 -->
<g id="edge26_Node000020_Node000015" class="edge">
<title>Node20&#45;&gt;Node15</title>
<g id="a_edge26_Node000020_Node000015"><a xlink:title=" ">
<path fill="none" stroke="#63b8ff" d="M1495.71,-111.59C1488.97,-104.16 1479.36,-93.58 1471.21,-84.58"/>
<polygon fill="#63b8ff" stroke="#63b8ff" points="1474.02,-82.47 1464.7,-77.42 1468.83,-87.18 1474.02,-82.47"/>
</a>
</g>
</g>
<!-- Node20&#45;&gt;Node16 -->
<g id="edge27_Node000020_Node000016" class="edge">
<title>Node20&#45;&gt;Node16</title>
<g id="a_edge27_Node000020_Node000016"><a xlink:title=" ">
<path fill="none" stroke="#63b8ff" d="M1512.79,-111.59C1519.53,-104.16 1529.14,-93.58 1537.29,-84.58"/>
<polygon fill="#63b8ff" stroke="#63b8ff" points="1539.67,-87.18 1543.8,-77.42 1534.48,-82.47 1539.67,-87.18"/>
</a>
</g>
</g>
<!-- Node21&#45;&gt;Node15 -->
<g id="edge29_Node000021_Node000015" class="edge">
<title>Node21&#45;&gt;Node15</title>
<g id="a_edge29_Node000021_Node000015"><a xlink:title=" ">
<path fill="none" stroke="#63b8ff" d="M1609.68,-111.59C1579.03,-102.74 1532.91,-89.43 1499.05,-79.65"/>
<polygon fill="#63b8ff" stroke="#63b8ff" points="1500.11,-76.31 1489.53,-76.9 1498.17,-83.04 1500.11,-76.31"/>
</a>
</g>
</g>
<!-- Node21&#45;&gt;Node16 -->
<g id="edge30_Node000021_Node000016" class="edge">
<title>Node21&#45;&gt;Node16</title>
<g id="a_edge30_Node000021_Node000016"><a xlink:title=" ">
<path fill="none" stroke="#63b8ff" d="M1626.75,-111.59C1613.43,-103.51 1593.97,-91.71 1578.42,-82.27"/>
<polygon fill="#63b8ff" stroke="#63b8ff" points="1580.53,-79.46 1570.17,-77.26 1576.9,-85.44 1580.53,-79.46"/>
</a>
</g>
</g>
<!-- Node22&#45;&gt;Node15 -->
<g id="edge32_Node000022_Node000015" class="edge">
<title>Node22&#45;&gt;Node15</title>
<g id="a_edge32_Node000022_Node000015"><a xlink:title=" ">
<path fill="none" stroke="#63b8ff" d="M1721.07,-111.94C1666.33,-103.68 1583.61,-90.8 1502.49,-76.35"/>
<polygon fill="#63b8ff" stroke="#63b8ff" points="1503.53,-72.98 1493.07,-74.66 1502.29,-79.87 1503.53,-72.98"/>
</a>
</g>
</g>
<!-- Node22&#45;&gt;Node16 -->
<g id="edge33_Node000022_Node000016" class="edge">
<title>Node22&#45;&gt;Node16</title>
<g id="a_edge33_Node000022_Node000016"><a xlink:title=" ">
<path fill="none" stroke="#63b8ff" d="M1742.1,-111.53C1703.79,-102.5 1645.93,-88.85 1604.35,-79.05"/>
<polygon fill="#63b8ff" stroke="#63b8ff" points="1605.36,-75.69 1594.83,-76.8 1603.76,-82.51 1605.36,-75.69"/>
</a>
</g>
</g>
<!-- Node23&#45;&gt;Node15 -->
<g id="edge42_Node000023_Node000015" class="edge">
<title>Node23&#45;&gt;Node15</title>
<g id="a_edge42_Node000023_Node000015"><a xlink:title=" ">
<path fill="none" stroke="#63b8ff" d="M1861.3,-113.58C1858.25,-113 1855.2,-112.46 1852.25,-112 1700.55,-88.06 1657.74,-98.91 1502.89,-76.26"/>
<polygon fill="#63b8ff" stroke="#63b8ff" points="1503.45,-72.8 1493.04,-74.79 1502.42,-79.73 1503.45,-72.8"/>
</a>
</g>
</g>
<!-- Node23&#45;&gt;Node16 -->
<g id="edge43_Node000023_Node000016" class="edge">
<title>Node23&#45;&gt;Node16</title>
<g id="a_edge43_Node000023_Node000016"><a xlink:title=" ">
<path fill="none" stroke="#63b8ff" d="M1861.27,-113.73C1858.23,-113.12 1855.18,-112.53 1852.25,-112 1767.71,-96.6 1669.03,-82.49 1608.86,-74.32"/>
<polygon fill="#63b8ff" stroke="#63b8ff" points="1609.6,-70.89 1599.22,-73.02 1608.66,-77.83 1609.6,-70.89"/>
</a>
</g>
</g>
<!-- Node31&#45;&gt;Node10 -->
<g id="edge55_Node000031_Node000010" class="edge">
<title>Node31&#45;&gt;Node10</title>
<g id="a_edge55_Node000031_Node000010"><a xlink:title=" ">
<path fill="none" stroke="#63b8ff" d="M432.51,-111.59C434.12,-104.93 436.33,-95.75 438.33,-87.44"/>
<polygon fill="#63b8ff" stroke="#63b8ff" points="441.72,-88.31 440.66,-77.77 434.91,-86.67 441.72,-88.31"/>
</a>
</g>
</g>
<!-- Node31&#45;&gt;Node13 -->
<g id="edge54_Node000031_Node000013" class="edge">
<title>Node31&#45;&gt;Node13</title>
<g id="a_edge54_Node000031_Node000013"><a xlink:title=" ">
<path fill="none" stroke="#63b8ff" d="M458.82,-111.59C485.35,-102.86 525.09,-89.77 554.67,-80.03"/>
<polygon fill="#63b8ff" stroke="#63b8ff" points="555.62,-83.4 564.02,-76.95 553.43,-76.76 555.62,-83.4"/>
</a>
</g>
</g>
<!-- Node32&#45;&gt;Node31 -->
<g id="edge59_Node000032_Node000031" class="edge">
<title>Node32&#45;&gt;Node31</title>
<g id="a_edge59_Node000032_Node000031"><a xlink:title=" ">
<path fill="none" stroke="#63b8ff" d="M138.32,-167.53C199.3,-158.23 292.35,-144.04 356.94,-134.18"/>
<polygon fill="#63b8ff" stroke="#63b8ff" points="357.4,-137.65 366.76,-132.69 356.34,-130.73 357.4,-137.65"/>
</a>
</g>
</g>
<!-- Node33 -->
<g id="Node000033" class="node">
<title>Node33</title>
<g id="a_Node000033"><a xlink:href="IRepository_8hpp.html" target="_top" xlink:title=" ">
<polygon fill="white" stroke="#666666" points="263.38,-132 179.12,-132 179.12,-112 263.38,-112 263.38,-132"/>
<text text-anchor="middle" x="221.25" y="-118.5" font-family="Helvetica,sans-Serif" font-size="10.00">IRepository.hpp</text>
</a>
</g>
</g>
<!-- Node32&#45;&gt;Node33 -->
<g id="edge57_Node000032_Node000033" class="edge">
<title>Node32&#45;&gt;Node33</title>
<g id="a_edge57_Node000032_Node000033"><a xlink:title=" ">
<path fill="none" stroke="#63b8ff" d="M101.51,-167.59C124.65,-158.97 159.17,-146.12 185.21,-136.42"/>
<polygon fill="#63b8ff" stroke="#63b8ff" points="186.23,-139.78 194.38,-133.01 183.78,-133.22 186.23,-139.78"/>
</a>
</g>
</g>
<!-- Node33&#45;&gt;Node8 -->
<g id="edge58_Node000033_Node000008" class="edge">
<title>Node33&#45;&gt;Node8</title>
<g id="a_edge58_Node000033_Node000008"><a xlink:title=" ">
<path fill="none" stroke="#63b8ff" d="M236.4,-111.59C249.3,-103.59 268.08,-91.93 283.21,-82.54"/>
<polygon fill="#63b8ff" stroke="#63b8ff" points="285.04,-85.53 291.69,-77.28 281.35,-79.58 285.04,-85.53"/>
</a>
</g>
</g>
<!-- Node34&#45;&gt;Node12 -->
<g id="edge61_Node000034_Node000012" class="edge">
<title>Node34&#45;&gt;Node12</title>
<g id="a_edge61_Node000034_Node000012"><a xlink:title=" ">
<path fill="none" stroke="#63b8ff" d="M1009.1,-223.6C1003.12,-197.46 986.18,-123.48 977.91,-87.36"/>
<polygon fill="#63b8ff" stroke="#63b8ff" points="981.36,-86.74 975.72,-77.77 974.54,-88.3 981.36,-86.74"/>
</a>
</g>
</g>
<!-- Node35&#45;&gt;Node10 -->
<g id="edge64_Node000035_Node000010" class="edge">
<title>Node35&#45;&gt;Node10</title>
<g id="a_edge64_Node000035_Node000010"><a xlink:title=" ">
<path fill="none" stroke="#63b8ff" d="M531.61,-111.59C515.22,-103.32 491.09,-91.14 472.19,-81.6"/>
<polygon fill="#63b8ff" stroke="#63b8ff" points="473.89,-78.54 463.38,-77.16 470.74,-84.79 473.89,-78.54"/>
</a>
</g>
</g>
<!-- Node35&#45;&gt;Node13 -->
<g id="edge63_Node000035_Node000013" class="edge">
<title>Node35&#45;&gt;Node13</title>
<g id="a_edge63_Node000035_Node000013"><a xlink:title=" ">
<path fill="none" stroke="#63b8ff" d="M557.91,-111.59C563.84,-104.32 572.24,-94.02 579.46,-85.15"/>
<polygon fill="#63b8ff" stroke="#63b8ff" points="582.11,-87.43 585.72,-77.47 576.69,-83.01 582.11,-87.43"/>
</a>
</g>
</g>
<!-- Node36&#45;&gt;Node33 -->
<g id="edge66_Node000036_Node000033" class="edge">
<title>Node36&#45;&gt;Node33</title>
<g id="a_edge66_Node000036_Node000033"><a xlink:title=" ">
<path fill="none" stroke="#63b8ff" d="M221.25,-167.59C221.25,-161.01 221.25,-151.96 221.25,-143.73"/>
<polygon fill="#63b8ff" stroke="#63b8ff" points="224.75,-143.81 221.25,-133.81 217.75,-143.81 224.75,-143.81"/>
</a>
</g>
</g>
<!-- Node36&#45;&gt;Node35 -->
<g id="edge67_Node000036_Node000035" class="edge">
<title>Node36&#45;&gt;Node35</title>
<g id="a_edge67_Node000036_Node000035"><a xlink:title=" ">
<path fill="none" stroke="#63b8ff" d="M272.85,-169.16C326.9,-160.85 414.55,-147.11 500.24,-132.31"/>
<polygon fill="#63b8ff" stroke="#63b8ff" points="500.75,-135.77 510,-130.62 499.55,-128.88 500.75,-135.77"/>
</a>
</g>
</g>
</g>
</svg>
