<?xml version="1.0" encoding="UTF-8" standalone="no"?>
<!DOCTYPE svg PUBLIC "-//W3C//DTD SVG 1.1//EN"
 "http://www.w3.org/Graphics/SVG/1.1/DTD/svg11.dtd">
<!-- Generated by graphviz version 13.0.1 (0)
 -->
<!-- Title: src/bot_library/commands/reaction_roles/ReactionRoleRepository.cpp Pages: 1 -->
<svg width="429pt" height="320pt"
 viewBox="0.00 0.00 429.00 320.00" xmlns="http://www.w3.org/2000/svg" xmlns:xlink="http://www.w3.org/1999/xlink">
<g id="graph0" class="graph" transform="scale(1 1) rotate(0) translate(4 316)">
<title>src/bot_library/commands/reaction_roles/ReactionRoleRepository.cpp</title>
<!-- Node1 -->
<g id="Node000001" class="node">
<title>Node1</title>
<g id="a_Node000001"><a xlink:title=" ">
<polygon fill="#999999" stroke="#666666" points="308.75,-312 101.5,-312 101.5,-280 308.75,-280 308.75,-312"/>
<text xml:space="preserve" text-anchor="start" x="109.5" y="-298.5" font-family="Helvetica,sans-Serif" font-size="10.00">src/bot_library/commands</text>
<text xml:space="preserve" text-anchor="middle" x="205.12" y="-286.5" font-family="Helvetica,sans-Serif" font-size="10.00">/reaction_roles/ReactionRoleRepository.cpp</text>
</a>
</g>
</g>
<!-- Node2 -->
<g id="Node000002" class="node">
<title>Node2</title>
<g id="a_Node000002"><a xlink:href="ReactionRoleRepository_8hpp.html" target="_top" xlink:title=" ">
<polygon fill="white" stroke="#666666" points="177.38,-244 36.88,-244 36.88,-224 177.38,-224 177.38,-244"/>
<text xml:space="preserve" text-anchor="middle" x="107.12" y="-230.5" font-family="Helvetica,sans-Serif" font-size="10.00">ReactionRoleRepository.hpp</text>
</a>
</g>
</g>
<!-- Node1&#45;&gt;Node2 -->
<g id="edge1_Node000001_Node000002" class="edge">
<title>Node1&#45;&gt;Node2</title>
<g id="a_edge1_Node000001_Node000002"><a xlink:title=" ">
<path fill="none" stroke="#63b8ff" d="M179.89,-279.55C165.14,-270.52 146.61,-259.17 131.94,-250.19"/>
<polygon fill="#63b8ff" stroke="#63b8ff" points="134.14,-247.43 123.78,-245.2 130.48,-253.4 134.14,-247.43"/>
</a>
</g>
</g>
<!-- Node4 -->
<g id="Node000004" class="node">
<title>Node4</title>
<g id="a_Node000004"><a xlink:title=" ">
<polygon fill="#e0e0e0" stroke="#999999" points="48.25,-132 0,-132 0,-112 48.25,-112 48.25,-132"/>
<text xml:space="preserve" text-anchor="middle" x="24.12" y="-118.5" font-family="Helvetica,sans-Serif" font-size="10.00">cstddef</text>
</a>
</g>
</g>
<!-- Node1&#45;&gt;Node4 -->
<g id="edge15_Node000001_Node000004" class="edge">
<title>Node1&#45;&gt;Node4</title>
<g id="a_edge15_Node000001_Node000004"><a xlink:title=" ">
<path fill="none" stroke="#63b8ff" d="M101.46,-283.2C74.73,-275.68 47.94,-263.53 28.12,-244 3.48,-219.7 6.27,-202.27 11.12,-168 12.29,-159.76 14.6,-150.91 16.96,-143.26"/>
<polygon fill="#63b8ff" stroke="#63b8ff" points="20.23,-144.52 20.06,-133.92 13.59,-142.31 20.23,-144.52"/>
</a>
</g>
</g>
<!-- Node5 -->
<g id="Node000005" class="node">
<title>Node5</title>
<g id="a_Node000005"><a xlink:href="ReactionRoleDTO_8hpp.html" target="_top" xlink:title=" ">
<polygon fill="white" stroke="#666666" points="237.62,-188 122.62,-188 122.62,-168 237.62,-168 237.62,-188"/>
<text xml:space="preserve" text-anchor="middle" x="180.12" y="-174.5" font-family="Helvetica,sans-Serif" font-size="10.00">ReactionRoleDTO.hpp</text>
</a>
</g>
</g>
<!-- Node1&#45;&gt;Node5 -->
<g id="edge17_Node000001_Node000005" class="edge">
<title>Node1&#45;&gt;Node5</title>
<g id="a_edge17_Node000001_Node000005"><a xlink:title=" ">
<path fill="none" stroke="#63b8ff" d="M201.86,-279.84C197.43,-259.32 189.53,-222.63 184.57,-199.62"/>
<polygon fill="#63b8ff" stroke="#63b8ff" points="188.01,-198.96 182.48,-189.92 181.16,-200.43 188.01,-198.96"/>
</a>
</g>
</g>
<!-- Node10 -->
<g id="Node000010" class="node">
<title>Node10</title>
<g id="a_Node000010"><a xlink:href="Database_8hpp.html" target="_top" xlink:title=" ">
<polygon fill="white" stroke="#666666" points="332.5,-188 255.75,-188 255.75,-168 332.5,-168 332.5,-188"/>
<text xml:space="preserve" text-anchor="middle" x="294.12" y="-174.5" font-family="Helvetica,sans-Serif" font-size="10.00">Database.hpp</text>
</a>
</g>
</g>
<!-- Node1&#45;&gt;Node10 -->
<g id="edge9_Node000001_Node000010" class="edge">
<title>Node1&#45;&gt;Node10</title>
<g id="a_edge9_Node000001_Node000010"><a xlink:title=" ">
<path fill="none" stroke="#63b8ff" d="M216.76,-279.84C233.01,-258.65 262.48,-220.24 279.98,-197.43"/>
<polygon fill="#63b8ff" stroke="#63b8ff" points="282.65,-199.7 285.96,-189.64 277.1,-195.44 282.65,-199.7"/>
</a>
</g>
</g>
<!-- Node12 -->
<g id="Node000012" class="node">
<title>Node12</title>
<g id="a_Node000012"><a xlink:title=" ">
<polygon fill="#e0e0e0" stroke="#999999" points="420.62,-132 377.62,-132 377.62,-112 420.62,-112 420.62,-132"/>
<text xml:space="preserve" text-anchor="middle" x="399.12" y="-118.5" font-family="Helvetica,sans-Serif" font-size="10.00">vector</text>
</a>
</g>
</g>
<!-- Node1&#45;&gt;Node12 -->
<g id="edge16_Node000001_Node000012" class="edge">
<title>Node1&#45;&gt;Node12</title>
<g id="a_edge16_Node000001_Node000012"><a xlink:title=" ">
<path fill="none" stroke="#63b8ff" d="M226.8,-279.78C254.46,-259.95 303.25,-223.6 341.12,-188 356.91,-173.16 373.19,-154.58 384.47,-141.09"/>
<polygon fill="#63b8ff" stroke="#63b8ff" points="387.1,-143.4 390.75,-133.46 381.69,-138.95 387.1,-143.4"/>
</a>
</g>
</g>
<!-- Node3 -->
<g id="Node000003" class="node">
<title>Node3</title>
<g id="a_Node000003"><a xlink:href="IRepository_8hpp.html" target="_top" xlink:title=" ">
<polygon fill="white" stroke="#666666" points="104.25,-188 20,-188 20,-168 104.25,-168 104.25,-188"/>
<text xml:space="preserve" text-anchor="middle" x="62.12" y="-174.5" font-family="Helvetica,sans-Serif" font-size="10.00">IRepository.hpp</text>
</a>
</g>
</g>
<!-- Node2&#45;&gt;Node3 -->
<g id="edge2_Node000002_Node000003" class="edge">
<title>Node2&#45;&gt;Node3</title>
<g id="a_edge2_Node000002_Node000003"><a xlink:title=" ">
<path fill="none" stroke="#63b8ff" d="M99.29,-223.59C93.16,-216.24 84.45,-205.8 77.01,-196.87"/>
<polygon fill="#63b8ff" stroke="#63b8ff" points="79.93,-194.9 70.84,-189.46 74.56,-199.38 79.93,-194.9"/>
</a>
</g>
</g>
<!-- Node2&#45;&gt;Node5 -->
<g id="edge4_Node000002_Node000005" class="edge">
<title>Node2&#45;&gt;Node5</title>
<g id="a_edge4_Node000002_Node000005"><a xlink:title=" ">
<path fill="none" stroke="#63b8ff" d="M119.84,-223.59C130.52,-215.7 146,-204.24 158.61,-194.92"/>
<polygon fill="#63b8ff" stroke="#63b8ff" points="160.38,-197.96 166.34,-189.2 156.22,-192.33 160.38,-197.96"/>
</a>
</g>
</g>
<!-- Node3&#45;&gt;Node4 -->
<g id="edge3_Node000003_Node000004" class="edge">
<title>Node3&#45;&gt;Node4</title>
<g id="a_edge3_Node000003_Node000004"><a xlink:title=" ">
<path fill="none" stroke="#63b8ff" d="M55.51,-167.59C50.44,-160.39 43.29,-150.23 37.1,-141.43"/>
<polygon fill="#63b8ff" stroke="#63b8ff" points="40.16,-139.7 31.54,-133.54 34.43,-143.73 40.16,-139.7"/>
</a>
</g>
</g>
<!-- Node6 -->
<g id="Node000006" class="node">
<title>Node6</title>
<g id="a_Node000006"><a xlink:href="RowDTOAdapter_8hpp.html" target="_top" xlink:title=" ">
<polygon fill="white" stroke="#666666" points="250,-132 140.25,-132 140.25,-112 250,-112 250,-132"/>
<text xml:space="preserve" text-anchor="middle" x="195.12" y="-118.5" font-family="Helvetica,sans-Serif" font-size="10.00">RowDTOAdapter.hpp</text>
</a>
</g>
</g>
<!-- Node5&#45;&gt;Node6 -->
<g id="edge5_Node000005_Node000006" class="edge">
<title>Node5&#45;&gt;Node6</title>
<g id="a_edge5_Node000005_Node000006"><a xlink:title=" ">
<path fill="none" stroke="#63b8ff" d="M182.74,-167.59C184.61,-160.86 187.2,-151.53 189.53,-143.15"/>
<polygon fill="#63b8ff" stroke="#63b8ff" points="192.83,-144.33 192.14,-133.76 186.09,-142.46 192.83,-144.33"/>
</a>
</g>
</g>
<!-- Node9 -->
<g id="Node000009" class="node">
<title>Node9</title>
<g id="a_Node000009"><a xlink:title=" ">
<polygon fill="#e0e0e0" stroke="#999999" points="122.12,-132 82.12,-132 82.12,-112 122.12,-112 122.12,-132"/>
<text xml:space="preserve" text-anchor="middle" x="102.12" y="-118.5" font-family="Helvetica,sans-Serif" font-size="10.00">string</text>
</a>
</g>
</g>
<!-- Node5&#45;&gt;Node9 -->
<g id="edge8_Node000005_Node000009" class="edge">
<title>Node5&#45;&gt;Node9</title>
<g id="a_edge8_Node000005_Node000009"><a xlink:title=" ">
<path fill="none" stroke="#63b8ff" d="M166.54,-167.59C155.09,-159.67 138.46,-148.16 124.97,-138.82"/>
<polygon fill="#63b8ff" stroke="#63b8ff" points="127.28,-136.16 117.06,-133.34 123.29,-141.91 127.28,-136.16"/>
</a>
</g>
</g>
<!-- Node7 -->
<g id="Node000007" class="node">
<title>Node7</title>
<g id="a_Node000007"><a xlink:href="DatabaseBackend_8hpp.html" target="_top" xlink:title=" ">
<polygon fill="white" stroke="#666666" points="293.62,-76 178.62,-76 178.62,-56 293.62,-56 293.62,-76"/>
<text xml:space="preserve" text-anchor="middle" x="236.12" y="-62.5" font-family="Helvetica,sans-Serif" font-size="10.00">DatabaseBackend.hpp</text>
</a>
</g>
</g>
<!-- Node6&#45;&gt;Node7 -->
<g id="edge6_Node000006_Node000007" class="edge">
<title>Node6&#45;&gt;Node7</title>
<g id="a_edge6_Node000006_Node000007"><a xlink:title=" ">
<path fill="none" stroke="#63b8ff" d="M202.27,-111.59C207.73,-104.39 215.45,-94.23 222.13,-85.43"/>
<polygon fill="#63b8ff" stroke="#63b8ff" points="224.89,-87.58 228.15,-77.5 219.32,-83.35 224.89,-87.58"/>
</a>
</g>
</g>
<!-- Node8 -->
<g id="Node000008" class="node">
<title>Node8</title>
<g id="a_Node000008"><a xlink:title=" ">
<polygon fill="#e0e0e0" stroke="#999999" points="266.62,-20 205.62,-20 205.62,0 266.62,0 266.62,-20"/>
<text xml:space="preserve" text-anchor="middle" x="236.12" y="-6.5" font-family="Helvetica,sans-Serif" font-size="10.00">pqxx/pqxx</text>
</a>
</g>
</g>
<!-- Node7&#45;&gt;Node8 -->
<g id="edge7_Node000007_Node000008" class="edge">
<title>Node7&#45;&gt;Node8</title>
<g id="a_edge7_Node000007_Node000008"><a xlink:title=" ">
<path fill="none" stroke="#63b8ff" d="M236.12,-55.59C236.12,-49.01 236.12,-39.96 236.12,-31.73"/>
<polygon fill="#63b8ff" stroke="#63b8ff" points="239.63,-31.81 236.13,-21.81 232.63,-31.81 239.63,-31.81"/>
</a>
</g>
</g>
<!-- Node10&#45;&gt;Node6 -->
<g id="edge14_Node000010_Node000006" class="edge">
<title>Node10&#45;&gt;Node6</title>
<g id="a_edge14_Node000010_Node000006"><a xlink:title=" ">
<path fill="none" stroke="#63b8ff" d="M276.88,-167.59C261.78,-159.36 239.6,-147.26 222.14,-137.74"/>
<polygon fill="#63b8ff" stroke="#63b8ff" points="224.29,-134.92 213.83,-133.2 220.94,-141.07 224.29,-134.92"/>
</a>
</g>
</g>
<!-- Node10&#45;&gt;Node7 -->
<g id="edge13_Node000010_Node000007" class="edge">
<title>Node10&#45;&gt;Node7</title>
<g id="a_edge13_Node000010_Node000007"><a xlink:title=" ">
<path fill="none" stroke="#63b8ff" d="M289.18,-167.62C279.72,-149.68 258.89,-110.17 246.33,-86.35"/>
<polygon fill="#63b8ff" stroke="#63b8ff" points="249.52,-84.91 241.76,-77.69 243.33,-88.17 249.52,-84.91"/>
</a>
</g>
</g>
<!-- Node10&#45;&gt;Node9 -->
<g id="edge11_Node000010_Node000009" class="edge">
<title>Node10&#45;&gt;Node9</title>
<g id="a_edge11_Node000010_Node000009"><a xlink:title=" ">
<path fill="none" stroke="#63b8ff" d="M258.74,-167.58C227.92,-159.29 181.79,-146.71 133.13,-132.52"/>
<polygon fill="#63b8ff" stroke="#63b8ff" points="134.42,-129.25 123.83,-129.8 132.45,-135.97 134.42,-129.25"/>
</a>
</g>
</g>
<!-- Node11 -->
<g id="Node000011" class="node">
<title>Node11</title>
<g id="a_Node000011"><a xlink:title=" ">
<polygon fill="#e0e0e0" stroke="#999999" points="359.88,-132 306.38,-132 306.38,-112 359.88,-112 359.88,-132"/>
<text xml:space="preserve" text-anchor="middle" x="333.12" y="-118.5" font-family="Helvetica,sans-Serif" font-size="10.00">iostream</text>
</a>
</g>
</g>
<!-- Node10&#45;&gt;Node11 -->
<g id="edge10_Node000010_Node000011" class="edge">
<title>Node10&#45;&gt;Node11</title>
<g id="a_edge10_Node000010_Node000011"><a xlink:title=" ">
<path fill="none" stroke="#63b8ff" d="M300.92,-167.59C306.12,-160.39 313.46,-150.23 319.81,-141.43"/>
<polygon fill="#63b8ff" stroke="#63b8ff" points="322.51,-143.68 325.52,-133.53 316.83,-139.58 322.51,-143.68"/>
</a>
</g>
</g>
<!-- Node10&#45;&gt;Node12 -->
<g id="edge12_Node000010_Node000012" class="edge">
<title>Node10&#45;&gt;Node12</title>
<g id="a_edge12_Node000010_Node000012"><a xlink:title=" ">
<path fill="none" stroke="#63b8ff" d="M312.41,-167.59C328.43,-159.36 351.96,-147.26 370.47,-137.74"/>
<polygon fill="#63b8ff" stroke="#63b8ff" points="372.05,-140.86 379.35,-133.17 368.85,-134.63 372.05,-140.86"/>
</a>
</g>
</g>
</g>
</svg>
