<?xml version="1.0" encoding="UTF-8" standalone="no"?>
<!DOCTYPE svg PUBLIC "-//W3C//DTD SVG 1.1//EN"
 "http://www.w3.org/Graphics/SVG/1.1/DTD/svg11.dtd">
<!-- Generated by graphviz version 14.1.5 (0)
 -->
<!-- Title: src/bot_library/commands/reaction_roles/ReactionRoleRepository.cpp Pages: 1 -->
<svg width="631pt" height="320pt"
 viewBox="0.00 0.00 631.00 320.00" xmlns="http://www.w3.org/2000/svg" xmlns:xlink="http://www.w3.org/1999/xlink">
<g id="graph0" class="graph" transform="scale(1 1) rotate(0) translate(4 316)">
<title>src/bot_library/commands/reaction_roles/ReactionRoleRepository.cpp</title>
<!-- Node1 -->
<g id="Node000001" class="node">
<title>Node1</title>
<g id="a_Node000001"><a xlink:title=" ">
<polygon fill="#999999" stroke="#666666" points="257.75,-312 50.5,-312 50.5,-280 257.75,-280 257.75,-312"/>
<text xml:space="preserve" text-anchor="start" x="58.5" y="-298.5" font-family="Helvetica,sans-Serif" font-size="10.00">src/bot_library/commands</text>
<text xml:space="preserve" text-anchor="middle" x="154.12" y="-286.5" font-family="Helvetica,sans-Serif" font-size="10.00">/reaction_roles/ReactionRoleRepository.cpp</text>
</a>
</g>
</g>
<!-- Node2 -->
<g id="Node000002" class="node">
<title>Node2</title>
<g id="a_Node000002"><a xlink:href="ReactionRoleRepository_8hpp.html" target="_top" xlink:title=" ">
<polygon fill="white" stroke="#666666" points="175.38,-244 34.88,-244 34.88,-224 175.38,-224 175.38,-244"/>
<text xml:space="preserve" text-anchor="middle" x="105.12" y="-230.5" font-family="Helvetica,sans-Serif" font-size="10.00">ReactionRoleRepository.hpp</text>
</a>
</g>
</g>
<!-- Node1&#45;&gt;Node2 -->
<g id="edge1_Node000001_Node000002" class="edge">
<title>Node1&#45;&gt;Node2</title>
<g id="a_edge1_Node000001_Node000002"><a xlink:title=" ">
<path fill="none" stroke="#63b8ff" d="M141.51,-279.55C134.91,-271.48 126.81,-261.55 119.92,-253.12"/>
<polygon fill="#63b8ff" stroke="#63b8ff" points="122.8,-251.11 113.77,-245.58 117.38,-255.54 122.8,-251.11"/>
</a>
</g>
</g>
<!-- Node4 -->
<g id="Node000004" class="node">
<title>Node4</title>
<g id="a_Node000004"><a xlink:title=" ">
<polygon fill="#e0e0e0" stroke="#999999" points="48.25,-132 0,-132 0,-112 48.25,-112 48.25,-132"/>
<text xml:space="preserve" text-anchor="middle" x="24.12" y="-118.5" font-family="Helvetica,sans-Serif" font-size="10.00">cstddef</text>
</a>
</g>
</g>
<!-- Node1&#45;&gt;Node4 -->
<g id="edge17_Node000001_Node000004" class="edge">
<title>Node1&#45;&gt;Node4</title>
<g id="a_edge17_Node000001_Node000004"><a xlink:title=" ">
<path fill="none" stroke="#63b8ff" d="M74.55,-279.53C55.67,-271.98 37.67,-260.73 26.12,-244 5.41,-213.98 11.87,-169.04 18.17,-143.21"/>
<polygon fill="#63b8ff" stroke="#63b8ff" points="21.52,-144.25 20.74,-133.68 14.76,-142.42 21.52,-144.25"/>
</a>
</g>
</g>
<!-- Node5 -->
<g id="Node000005" class="node">
<title>Node5</title>
<g id="a_Node000005"><a xlink:href="ReactionRoleDTO_8hpp.html" target="_top" xlink:title=" ">
<polygon fill="white" stroke="#666666" points="252.62,-188 137.62,-188 137.62,-168 252.62,-168 252.62,-188"/>
<text xml:space="preserve" text-anchor="middle" x="195.12" y="-174.5" font-family="Helvetica,sans-Serif" font-size="10.00">ReactionRoleDTO.hpp</text>
</a>
</g>
</g>
<!-- Node1&#45;&gt;Node5 -->
<g id="edge18_Node000001_Node000005" class="edge">
<title>Node1&#45;&gt;Node5</title>
<g id="a_edge18_Node000001_Node000005"><a xlink:title=" ">
<path fill="none" stroke="#63b8ff" d="M165.15,-279.66C171.65,-269.9 179.48,-256.74 184.12,-244 189.36,-229.65 192.13,-212.59 193.58,-199.55"/>
<polygon fill="#63b8ff" stroke="#63b8ff" points="197.06,-199.88 194.49,-189.6 190.09,-199.24 197.06,-199.88"/>
</a>
</g>
</g>
<!-- Node10 -->
<g id="Node000010" class="node">
<title>Node10</title>
<g id="a_Node000010"><a xlink:href="DatabaseExecutor_8hpp.html" target="_top" xlink:title=" ">
<polygon fill="white" stroke="#666666" points="409,-188 293.25,-188 293.25,-168 409,-168 409,-188"/>
<text xml:space="preserve" text-anchor="middle" x="351.12" y="-174.5" font-family="Helvetica,sans-Serif" font-size="10.00">DatabaseExecutor.hpp</text>
</a>
</g>
</g>
<!-- Node1&#45;&gt;Node10 -->
<g id="edge9_Node000001_Node000010" class="edge">
<title>Node1&#45;&gt;Node10</title>
<g id="a_edge9_Node000001_Node000010"><a xlink:title=" ">
<path fill="none" stroke="#63b8ff" d="M180.29,-279.6C218.17,-257.29 287.87,-216.24 325.47,-194.1"/>
<polygon fill="#63b8ff" stroke="#63b8ff" points="327.03,-197.25 333.87,-189.16 323.48,-191.22 327.03,-197.25"/>
</a>
</g>
</g>
<!-- Node3 -->
<g id="Node000003" class="node">
<title>Node3</title>
<g id="a_Node000003"><a xlink:href="IRepository_8hpp.html" target="_top" xlink:title=" ">
<polygon fill="white" stroke="#666666" points="119.25,-188 35,-188 35,-168 119.25,-168 119.25,-188"/>
<text xml:space="preserve" text-anchor="middle" x="77.12" y="-174.5" font-family="Helvetica,sans-Serif" font-size="10.00">IRepository.hpp</text>
</a>
</g>
</g>
<!-- Node2&#45;&gt;Node3 -->
<g id="edge2_Node000002_Node000003" class="edge">
<title>Node2&#45;&gt;Node3</title>
<g id="a_edge2_Node000002_Node000003"><a xlink:title=" ">
<path fill="none" stroke="#63b8ff" d="M100.25,-223.59C96.63,-216.63 91.58,-206.89 87.13,-198.29"/>
<polygon fill="#63b8ff" stroke="#63b8ff" points="90.35,-196.91 82.64,-189.64 84.14,-200.13 90.35,-196.91"/>
</a>
</g>
</g>
<!-- Node2&#45;&gt;Node5 -->
<g id="edge4_Node000002_Node000005" class="edge">
<title>Node2&#45;&gt;Node5</title>
<g id="a_edge4_Node000002_Node000005"><a xlink:title=" ">
<path fill="none" stroke="#63b8ff" d="M120.8,-223.59C134.27,-215.51 153.94,-203.71 169.67,-194.27"/>
<polygon fill="#63b8ff" stroke="#63b8ff" points="171.25,-197.4 178.03,-189.26 167.65,-191.4 171.25,-197.4"/>
</a>
</g>
</g>
<!-- Node3&#45;&gt;Node4 -->
<g id="edge3_Node000003_Node000004" class="edge">
<title>Node3&#45;&gt;Node4</title>
<g id="a_edge3_Node000003_Node000004"><a xlink:title=" ">
<path fill="none" stroke="#63b8ff" d="M67.89,-167.59C60.52,-160.08 49.99,-149.35 41.11,-140.3"/>
<polygon fill="#63b8ff" stroke="#63b8ff" points="43.81,-138.06 34.31,-133.38 38.82,-142.97 43.81,-138.06"/>
</a>
</g>
</g>
<!-- Node6 -->
<g id="Node000006" class="node">
<title>Node6</title>
<g id="a_Node000006"><a xlink:href="RowDTOAdapter_8hpp.html" target="_top" xlink:title=" ">
<polygon fill="white" stroke="#666666" points="250,-132 140.25,-132 140.25,-112 250,-112 250,-132"/>
<text xml:space="preserve" text-anchor="middle" x="195.12" y="-118.5" font-family="Helvetica,sans-Serif" font-size="10.00">RowDTOAdapter.hpp</text>
</a>
</g>
</g>
<!-- Node5&#45;&gt;Node6 -->
<g id="edge5_Node000005_Node000006" class="edge">
<title>Node5&#45;&gt;Node6</title>
<g id="a_edge5_Node000005_Node000006"><a xlink:title=" ">
<path fill="none" stroke="#63b8ff" d="M195.12,-167.59C195.12,-161.01 195.12,-151.96 195.12,-143.73"/>
<polygon fill="#63b8ff" stroke="#63b8ff" points="198.63,-143.81 195.13,-133.81 191.63,-143.81 198.63,-143.81"/>
</a>
</g>
</g>
<!-- Node9 -->
<g id="Node000009" class="node">
<title>Node9</title>
<g id="a_Node000009"><a xlink:title=" ">
<polygon fill="#e0e0e0" stroke="#999999" points="122.12,-132 82.12,-132 82.12,-112 122.12,-112 122.12,-132"/>
<text xml:space="preserve" text-anchor="middle" x="102.12" y="-118.5" font-family="Helvetica,sans-Serif" font-size="10.00">string</text>
</a>
</g>
</g>
<!-- Node5&#45;&gt;Node9 -->
<g id="edge8_Node000005_Node000009" class="edge">
<title>Node5&#45;&gt;Node9</title>
<g id="a_edge8_Node000005_Node000009"><a xlink:title=" ">
<path fill="none" stroke="#63b8ff" d="M178.93,-167.59C164.88,-159.44 144.29,-147.48 127.97,-138"/>
<polygon fill="#63b8ff" stroke="#63b8ff" points="130.17,-135.23 119.76,-133.24 126.65,-141.29 130.17,-135.23"/>
</a>
</g>
</g>
<!-- Node7 -->
<g id="Node000007" class="node">
<title>Node7</title>
<g id="a_Node000007"><a xlink:href="DatabaseBackend_8hpp.html" target="_top" xlink:title=" ">
<polygon fill="white" stroke="#666666" points="330.62,-76 215.62,-76 215.62,-56 330.62,-56 330.62,-76"/>
<text xml:space="preserve" text-anchor="middle" x="273.12" y="-62.5" font-family="Helvetica,sans-Serif" font-size="10.00">DatabaseBackend.hpp</text>
</a>
</g>
</g>
<!-- Node6&#45;&gt;Node7 -->
<g id="edge6_Node000006_Node000007" class="edge">
<title>Node6&#45;&gt;Node7</title>
<g id="a_edge6_Node000006_Node000007"><a xlink:title=" ">
<path fill="none" stroke="#63b8ff" d="M208.71,-111.59C220.16,-103.67 236.79,-92.16 250.28,-82.82"/>
<polygon fill="#63b8ff" stroke="#63b8ff" points="251.96,-85.91 258.19,-77.34 247.97,-80.16 251.96,-85.91"/>
</a>
</g>
</g>
<!-- Node8 -->
<g id="Node000008" class="node">
<title>Node8</title>
<g id="a_Node000008"><a xlink:title=" ">
<polygon fill="#e0e0e0" stroke="#999999" points="303.62,-20 242.62,-20 242.62,0 303.62,0 303.62,-20"/>
<text xml:space="preserve" text-anchor="middle" x="273.12" y="-6.5" font-family="Helvetica,sans-Serif" font-size="10.00">pqxx/pqxx</text>
</a>
</g>
</g>
<!-- Node7&#45;&gt;Node8 -->
<g id="edge7_Node000007_Node000008" class="edge">
<title>Node7&#45;&gt;Node8</title>
<g id="a_edge7_Node000007_Node000008"><a xlink:title=" ">
<path fill="none" stroke="#63b8ff" d="M273.12,-55.59C273.12,-49.01 273.12,-39.96 273.12,-31.73"/>
<polygon fill="#63b8ff" stroke="#63b8ff" points="276.63,-31.81 273.13,-21.81 269.63,-31.81 276.63,-31.81"/>
</a>
</g>
</g>
<!-- Node10&#45;&gt;Node6 -->
<g id="edge16_Node000010_Node000006" class="edge">
<title>Node10&#45;&gt;Node6</title>
<g id="a_edge16_Node000010_Node000006"><a xlink:title=" ">
<path fill="none" stroke="#63b8ff" d="M323.95,-167.59C298.83,-158.9 261.24,-145.89 233.15,-136.16"/>
<polygon fill="#63b8ff" stroke="#63b8ff" points="234.54,-132.94 223.94,-132.97 232.25,-139.55 234.54,-132.94"/>
</a>
</g>
</g>
<!-- Node10&#45;&gt;Node9 -->
<g id="edge11_Node000010_Node000009" class="edge">
<title>Node10&#45;&gt;Node9</title>
<g id="a_edge11_Node000010_Node000009"><a xlink:title=" ">
<path fill="none" stroke="#63b8ff" d="M297.44,-167.56C255.22,-159.79 194.72,-147.89 133.39,-132.38"/>
<polygon fill="#63b8ff" stroke="#63b8ff" points="134.36,-129.02 123.8,-129.93 132.62,-135.8 134.36,-129.02"/>
</a>
</g>
</g>
<!-- Node11 -->
<g id="Node000011" class="node">
<title>Node11</title>
<g id="a_Node000011"><a xlink:title=" ">
<polygon fill="#e0e0e0" stroke="#999999" points="504.88,-132 451.38,-132 451.38,-112 504.88,-112 504.88,-132"/>
<text xml:space="preserve" text-anchor="middle" x="478.12" y="-118.5" font-family="Helvetica,sans-Serif" font-size="10.00">iostream</text>
</a>
</g>
</g>
<!-- Node10&#45;&gt;Node11 -->
<g id="edge10_Node000010_Node000011" class="edge">
<title>Node10&#45;&gt;Node11</title>
<g id="a_edge10_Node000010_Node000011"><a xlink:title=" ">
<path fill="none" stroke="#63b8ff" d="M373.25,-167.59C393.16,-159.13 422.68,-146.58 445.33,-136.94"/>
<polygon fill="#63b8ff" stroke="#63b8ff" points="446.6,-140.21 454.44,-133.07 443.87,-133.76 446.6,-140.21"/>
</a>
</g>
</g>
<!-- Node12 -->
<g id="Node000012" class="node">
<title>Node12</title>
<g id="a_Node000012"><a xlink:title=" ">
<polygon fill="#e0e0e0" stroke="#999999" points="561.75,-132 522.5,-132 522.5,-112 561.75,-112 561.75,-132"/>
<text xml:space="preserve" text-anchor="middle" x="542.12" y="-118.5" font-family="Helvetica,sans-Serif" font-size="10.00">utility</text>
</a>
</g>
</g>
<!-- Node10&#45;&gt;Node12 -->
<g id="edge12_Node000010_Node000012" class="edge">
<title>Node10&#45;&gt;Node12</title>
<g id="a_edge12_Node000010_Node000012"><a xlink:title=" ">
<path fill="none" stroke="#63b8ff" d="M387.18,-167.51C417.96,-159.3 463.67,-146.88 511.41,-132.73"/>
<polygon fill="#63b8ff" stroke="#63b8ff" points="512.24,-136.14 520.82,-129.93 510.24,-129.43 512.24,-136.14"/>
</a>
</g>
</g>
<!-- Node13 -->
<g id="Node000013" class="node">
<title>Node13</title>
<g id="a_Node000013"><a xlink:title=" ">
<polygon fill="#e0e0e0" stroke="#999999" points="622.62,-132 579.62,-132 579.62,-112 622.62,-112 622.62,-132"/>
<text xml:space="preserve" text-anchor="middle" x="601.12" y="-118.5" font-family="Helvetica,sans-Serif" font-size="10.00">vector</text>
</a>
</g>
</g>
<!-- Node10&#45;&gt;Node13 -->
<g id="edge13_Node000010_Node000013" class="edge">
<title>Node10&#45;&gt;Node13</title>
<g id="a_edge13_Node000010_Node000013"><a xlink:title=" ">
<path fill="none" stroke="#63b8ff" d="M404.33,-167.5C446.54,-159.66 507.25,-147.68 568.25,-132.57"/>
<polygon fill="#63b8ff" stroke="#63b8ff" points="568.92,-136.01 577.76,-130.18 567.21,-129.22 568.92,-136.01"/>
</a>
</g>
</g>
<!-- Node14 -->
<g id="Node000014" class="node">
<title>Node14</title>
<g id="a_Node000014"><a xlink:href="IDatabaseConnectionProvider_8hpp.html" target="_top" xlink:title=" ">
<polygon fill="white" stroke="#666666" points="433.75,-132 268.5,-132 268.5,-112 433.75,-112 433.75,-132"/>
<text xml:space="preserve" text-anchor="middle" x="351.12" y="-118.5" font-family="Helvetica,sans-Serif" font-size="10.00">IDatabaseConnectionProvider.hpp</text>
</a>
</g>
</g>
<!-- Node10&#45;&gt;Node14 -->
<g id="edge14_Node000010_Node000014" class="edge">
<title>Node10&#45;&gt;Node14</title>
<g id="a_edge14_Node000010_Node000014"><a xlink:title=" ">
<path fill="none" stroke="#63b8ff" d="M351.12,-167.59C351.12,-161.01 351.12,-151.96 351.12,-143.73"/>
<polygon fill="#63b8ff" stroke="#63b8ff" points="354.63,-143.81 351.13,-133.81 347.63,-143.81 354.63,-143.81"/>
</a>
</g>
</g>
<!-- Node14&#45;&gt;Node7 -->
<g id="edge15_Node000014_Node000007" class="edge">
<title>Node14&#45;&gt;Node7</title>
<g id="a_edge15_Node000014_Node000007"><a xlink:title=" ">
<path fill="none" stroke="#63b8ff" d="M337.54,-111.59C326.09,-103.67 309.46,-92.16 295.97,-82.82"/>
<polygon fill="#63b8ff" stroke="#63b8ff" points="298.28,-80.16 288.06,-77.34 294.29,-85.91 298.28,-80.16"/>
</a>
</g>
</g>
</g>
</svg>
