<?xml version="1.0" encoding="UTF-8" standalone="no"?>
<!DOCTYPE svg PUBLIC "-//W3C//DTD SVG 1.1//EN"
 "http://www.w3.org/Graphics/SVG/1.1/DTD/svg11.dtd">
<!-- Generated by graphviz version 9.0.0 (0)
 -->
<!-- Title: src/bot_library/commands/reaction_roles/ReactionRoles.cpp Pages: 1 -->
<svg width="1564pt" height="376pt"
 viewBox="0.00 0.00 1564.00 376.00" xmlns="http://www.w3.org/2000/svg" xmlns:xlink="http://www.w3.org/1999/xlink">
<g id="graph0" class="graph" transform="scale(1 1) rotate(0) translate(4 372)">
<title>src/bot_library/commands/reaction_roles/ReactionRoles.cpp</title>
<!-- Node1 -->
<g id="Node000001" class="node">
<title>Node1</title>
<g id="a_Node000001"><a xlink:title=" ">
<polygon fill="#999999" stroke="#666666" points="1283.88,-368 1117.88,-368 1117.88,-336 1283.88,-336 1283.88,-368"/>
<text text-anchor="start" x="1125.88" y="-354.5" font-family="Helvetica,sans-Serif" font-size="10.00">src/bot_library/commands</text>
<text text-anchor="middle" x="1200.88" y="-342.5" font-family="Helvetica,sans-Serif" font-size="10.00">/reaction_roles/ReactionRoles.cpp</text>
</a>
</g>
</g>
<!-- Node2 -->
<g id="Node000002" class="node">
<title>Node2</title>
<g id="a_Node000002"><a xlink:href="ReactionRoles_8hpp.html" target="_top" xlink:title=" ">
<polygon fill="white" stroke="#666666" points="1024.5,-300 925.25,-300 925.25,-280 1024.5,-280 1024.5,-300"/>
<text text-anchor="middle" x="974.88" y="-286.5" font-family="Helvetica,sans-Serif" font-size="10.00">ReactionRoles.hpp</text>
</a>
</g>
</g>
<!-- Node1&#45;&gt;Node2 -->
<g id="edge1_Node000001_Node000002" class="edge">
<title>Node1&#45;&gt;Node2</title>
<g id="a_edge1_Node000001_Node000002"><a xlink:title=" ">
<path fill="none" stroke="#63b8ff" d="M1142.67,-335.55C1105.03,-325.55 1056.67,-312.72 1021.55,-303.39"/>
<polygon fill="#63b8ff" stroke="#63b8ff" points="1022.67,-300.07 1012.11,-300.88 1020.87,-306.83 1022.67,-300.07"/>
</a>
</g>
</g>
<!-- Node18 -->
<g id="Node000018" class="node">
<title>Node18</title>
<g id="a_Node000018"><a xlink:title=" ">
<polygon fill="#e0e0e0" stroke="#999999" points="1054.25,-76 971.5,-76 971.5,-56 1054.25,-56 1054.25,-76"/>
<text text-anchor="middle" x="1012.88" y="-62.5" font-family="Helvetica,sans-Serif" font-size="10.00">appcommand.h</text>
</a>
</g>
</g>
<!-- Node1&#45;&gt;Node18 -->
<g id="edge47_Node000001_Node000018" class="edge">
<title>Node1&#45;&gt;Node18</title>
<g id="a_edge47_Node000001_Node000018"><a xlink:title=" ">
<path fill="none" stroke="#63b8ff" d="M1190.91,-335.64C1184.59,-325.65 1176.41,-312.25 1169.88,-300 1126.56,-218.76 1143.34,-181.43 1082.88,-112 1072.06,-99.58 1057.01,-89.31 1043.63,-81.72"/>
<polygon fill="#63b8ff" stroke="#63b8ff" points="1045.62,-78.82 1035.15,-77.17 1042.31,-84.99 1045.62,-78.82"/>
</a>
</g>
</g>
<!-- Node21 -->
<g id="Node000021" class="node">
<title>Node21</title>
<g id="a_Node000021"><a xlink:href="IReactionCommand_8hpp.html" target="_top" xlink:title=" ">
<polygon fill="white" stroke="#666666" points="121.75,-132 0,-132 0,-112 121.75,-112 121.75,-132"/>
<text text-anchor="middle" x="60.88" y="-118.5" font-family="Helvetica,sans-Serif" font-size="10.00">IReactionCommand.hpp</text>
</a>
</g>
</g>
<!-- Node1&#45;&gt;Node21 -->
<g id="edge50_Node000001_Node000021" class="edge">
<title>Node1&#45;&gt;Node21</title>
<g id="a_edge50_Node000001_Node000021"><a xlink:title=" ">
<path fill="none" stroke="#63b8ff" d="M1117.56,-339.38C955.48,-316.07 586.91,-259.68 281.88,-188 217.41,-172.85 143.88,-150.11 99.98,-135.93"/>
<polygon fill="#63b8ff" stroke="#63b8ff" points="101.25,-132.66 90.65,-132.9 99.08,-139.32 101.25,-132.66"/>
</a>
</g>
</g>
<!-- Node25 -->
<g id="Node000025" class="node">
<title>Node25</title>
<g id="a_Node000025"><a xlink:title=" ">
<polygon fill="#e0e0e0" stroke="#999999" points="1222.75,-300 1179,-300 1179,-280 1222.75,-280 1222.75,-300"/>
<text text-anchor="middle" x="1200.88" y="-286.5" font-family="Helvetica,sans-Serif" font-size="10.00">format</text>
</a>
</g>
</g>
<!-- Node1&#45;&gt;Node25 -->
<g id="edge48_Node000001_Node000025" class="edge">
<title>Node1&#45;&gt;Node25</title>
<g id="a_edge48_Node000001_Node000025"><a xlink:title=" ">
<path fill="none" stroke="#63b8ff" d="M1200.88,-335.55C1200.88,-328.34 1200.88,-319.66 1200.88,-311.88"/>
<polygon fill="#63b8ff" stroke="#63b8ff" points="1204.38,-311.92 1200.88,-301.92 1197.38,-311.92 1204.38,-311.92"/>
</a>
</g>
</g>
<!-- Node26 -->
<g id="Node000026" class="node">
<title>Node26</title>
<g id="a_Node000026"><a xlink:title=" ">
<polygon fill="#e0e0e0" stroke="#999999" points="1286.5,-300 1241.25,-300 1241.25,-280 1286.5,-280 1286.5,-300"/>
<text text-anchor="middle" x="1263.88" y="-286.5" font-family="Helvetica,sans-Serif" font-size="10.00">variant</text>
</a>
</g>
</g>
<!-- Node1&#45;&gt;Node26 -->
<g id="edge49_Node000001_Node000026" class="edge">
<title>Node1&#45;&gt;Node26</title>
<g id="a_edge49_Node000001_Node000026"><a xlink:title=" ">
<path fill="none" stroke="#63b8ff" d="M1217.1,-335.55C1225.85,-327.22 1236.67,-316.91 1245.71,-308.3"/>
<polygon fill="#63b8ff" stroke="#63b8ff" points="1248.07,-310.88 1252.9,-301.45 1243.25,-305.81 1248.07,-310.88"/>
</a>
</g>
</g>
<!-- Node27 -->
<g id="Node000027" class="node">
<title>Node27</title>
<g id="a_Node000027"><a xlink:href="ReactionRoleDTO_8hpp.html" target="_top" xlink:title=" ">
<polygon fill="white" stroke="#666666" points="1453.38,-132 1338.38,-132 1338.38,-112 1453.38,-112 1453.38,-132"/>
<text text-anchor="middle" x="1395.88" y="-118.5" font-family="Helvetica,sans-Serif" font-size="10.00">ReactionRoleDTO.hpp</text>
</a>
</g>
</g>
<!-- Node1&#45;&gt;Node27 -->
<g id="edge51_Node000001_Node000027" class="edge">
<title>Node1&#45;&gt;Node27</title>
<g id="a_edge51_Node000001_Node000027"><a xlink:title=" ">
<path fill="none" stroke="#63b8ff" d="M1246.19,-335.57C1263.93,-327.48 1283.06,-315.88 1295.88,-300 1334.22,-252.5 1298.82,-217.98 1333.88,-168 1342.41,-155.83 1355.3,-145.72 1367.12,-138.18"/>
<polygon fill="#63b8ff" stroke="#63b8ff" points="1368.6,-141.37 1375.38,-133.24 1365,-135.37 1368.6,-141.37"/>
</a>
</g>
</g>
<!-- Node28 -->
<g id="Node000028" class="node">
<title>Node28</title>
<g id="a_Node000028"><a xlink:href="ReactionRoleRepository_8hpp.html" target="_top" xlink:title=" ">
<polygon fill="white" stroke="#666666" points="1483.12,-188 1342.62,-188 1342.62,-168 1483.12,-168 1483.12,-188"/>
<text text-anchor="middle" x="1412.88" y="-174.5" font-family="Helvetica,sans-Serif" font-size="10.00">ReactionRoleRepository.hpp</text>
</a>
</g>
</g>
<!-- Node1&#45;&gt;Node28 -->
<g id="edge54_Node000001_Node000028" class="edge">
<title>Node1&#45;&gt;Node28</title>
<g id="a_edge54_Node000001_Node000028"><a xlink:title=" ">
<path fill="none" stroke="#63b8ff" d="M1259.8,-335.58C1282.95,-327.56 1308.74,-316 1328.88,-300 1364.28,-271.86 1390.85,-224.86 1403.9,-198.49"/>
<polygon fill="#63b8ff" stroke="#63b8ff" points="1406.98,-200.16 1408.14,-189.62 1400.67,-197.14 1406.98,-200.16"/>
</a>
</g>
</g>
<!-- Node3 -->
<g id="Node000003" class="node">
<title>Node3</title>
<g id="a_Node000003"><a xlink:href="Bot_8hpp.html" target="_top" xlink:title=" ">
<polygon fill="white" stroke="#666666" points="901.75,-244 852,-244 852,-224 901.75,-224 901.75,-244"/>
<text text-anchor="middle" x="876.88" y="-230.5" font-family="Helvetica,sans-Serif" font-size="10.00">Bot.hpp</text>
</a>
</g>
</g>
<!-- Node2&#45;&gt;Node3 -->
<g id="edge2_Node000002_Node000003" class="edge">
<title>Node2&#45;&gt;Node3</title>
<g id="a_edge2_Node000002_Node000003"><a xlink:title=" ">
<path fill="none" stroke="#63b8ff" d="M957.8,-279.59C943,-271.44 921.31,-259.48 904.11,-250"/>
<polygon fill="#63b8ff" stroke="#63b8ff" points="905.85,-246.97 895.4,-245.21 902.47,-253.1 905.85,-246.97"/>
</a>
</g>
</g>
<!-- Node4 -->
<g id="Node000004" class="node">
<title>Node4</title>
<g id="a_Node000004"><a xlink:href="Core_8hpp.html" target="_top" xlink:title=" ">
<polygon fill="white" stroke="#666666" points="712.75,-188 657,-188 657,-168 712.75,-168 712.75,-188"/>
<text text-anchor="middle" x="684.88" y="-174.5" font-family="Helvetica,sans-Serif" font-size="10.00">Core.hpp</text>
</a>
</g>
</g>
<!-- Node3&#45;&gt;Node4 -->
<g id="edge3_Node000003_Node000004" class="edge">
<title>Node3&#45;&gt;Node4</title>
<g id="a_edge3_Node000003_Node000004"><a xlink:title=" ">
<path fill="none" stroke="#63b8ff" d="M851.77,-225.94C819.21,-216.78 762.05,-200.71 723.83,-189.96"/>
<polygon fill="#63b8ff" stroke="#63b8ff" points="725.13,-186.69 714.56,-187.35 723.24,-193.43 725.13,-186.69"/>
</a>
</g>
</g>
<!-- Node10 -->
<g id="Node000010" class="node">
<title>Node10</title>
<g id="a_Node000010"><a xlink:title=" ">
<polygon fill="#e0e0e0" stroke="#999999" points="1311.88,-76 1271.88,-76 1271.88,-56 1311.88,-56 1311.88,-76"/>
<text text-anchor="middle" x="1291.88" y="-62.5" font-family="Helvetica,sans-Serif" font-size="10.00">string</text>
</a>
</g>
</g>
<!-- Node3&#45;&gt;Node10 -->
<g id="edge45_Node000003_Node000010" class="edge">
<title>Node3&#45;&gt;Node10</title>
<g id="a_edge45_Node000003_Node000010"><a xlink:title=" ">
<path fill="none" stroke="#63b8ff" d="M902.18,-230.86C984.56,-223.32 1242.56,-194.94 1290.88,-132 1300.55,-119.4 1299.89,-101 1297.33,-86.99"/>
<polygon fill="#63b8ff" stroke="#63b8ff" points="1300.81,-86.5 1295.15,-77.54 1293.99,-88.07 1300.81,-86.5"/>
</a>
</g>
</g>
<!-- Node11 -->
<g id="Node000011" class="node">
<title>Node11</title>
<g id="a_Node000011"><a xlink:title=" ">
<polygon fill="#e0e0e0" stroke="#999999" points="1123.38,-76 1080.38,-76 1080.38,-56 1123.38,-56 1123.38,-76"/>
<text text-anchor="middle" x="1101.88" y="-62.5" font-family="Helvetica,sans-Serif" font-size="10.00">vector</text>
</a>
</g>
</g>
<!-- Node3&#45;&gt;Node11 -->
<g id="edge46_Node000003_Node000011" class="edge">
<title>Node3&#45;&gt;Node11</title>
<g id="a_edge46_Node000003_Node000011"><a xlink:title=" ">
<path fill="none" stroke="#63b8ff" d="M889.51,-223.69C911.22,-207.79 954.93,-176.33 971.88,-168 1018.42,-145.12 1046.74,-169.2 1082.88,-132 1094.41,-120.13 1099,-101.66 1100.8,-87.44"/>
<polygon fill="#63b8ff" stroke="#63b8ff" points="1104.26,-88.08 1101.64,-77.81 1097.28,-87.47 1104.26,-88.08"/>
</a>
</g>
</g>
<!-- Node13 -->
<g id="Node000013" class="node">
<title>Node13</title>
<g id="a_Node000013"><a xlink:href="IButtonCommand_8hpp.html" target="_top" xlink:title=" ">
<polygon fill="white" stroke="#666666" points="391.5,-132 280.25,-132 280.25,-112 391.5,-112 391.5,-132"/>
<text text-anchor="middle" x="335.88" y="-118.5" font-family="Helvetica,sans-Serif" font-size="10.00">IButtonCommand.hpp</text>
</a>
</g>
</g>
<!-- Node3&#45;&gt;Node13 -->
<g id="edge34_Node000003_Node000013" class="edge">
<title>Node3&#45;&gt;Node13</title>
<g id="a_edge34_Node000003_Node000013"><a xlink:title=" ">
<path fill="none" stroke="#63b8ff" d="M851.72,-230.01C800.97,-223.77 682.82,-208.28 584.88,-188 511.82,-172.88 428.12,-149.82 378.75,-135.62"/>
<polygon fill="#63b8ff" stroke="#63b8ff" points="379.89,-132.31 369.31,-132.89 377.95,-139.04 379.89,-132.31"/>
</a>
</g>
</g>
<!-- Node16 -->
<g id="Node000016" class="node">
<title>Node16</title>
<g id="a_Node000016"><a xlink:href="IFormCommand_8hpp.html" target="_top" xlink:title=" ">
<polygon fill="white" stroke="#666666" points="837.5,-132 732.25,-132 732.25,-112 837.5,-112 837.5,-132"/>
<text text-anchor="middle" x="784.88" y="-118.5" font-family="Helvetica,sans-Serif" font-size="10.00">IFormCommand.hpp</text>
</a>
</g>
</g>
<!-- Node3&#45;&gt;Node16 -->
<g id="edge35_Node000003_Node000016" class="edge">
<title>Node3&#45;&gt;Node16</title>
<g id="a_edge35_Node000003_Node000016"><a xlink:title=" ">
<path fill="none" stroke="#63b8ff" d="M869.03,-223.62C853.75,-205.36 819.78,-164.73 799.99,-141.07"/>
<polygon fill="#63b8ff" stroke="#63b8ff" points="802.77,-138.94 793.67,-133.52 797.4,-143.43 802.77,-138.94"/>
</a>
</g>
</g>
<!-- Node17 -->
<g id="Node000017" class="node">
<title>Node17</title>
<g id="a_Node000017"><a xlink:href="IGlobalSlashCommand_8hpp.html" target="_top" xlink:title=" ">
<polygon fill="white" stroke="#666666" points="1073.5,-132 938.25,-132 938.25,-112 1073.5,-112 1073.5,-132"/>
<text text-anchor="middle" x="1005.88" y="-118.5" font-family="Helvetica,sans-Serif" font-size="10.00">IGlobalSlashCommand.hpp</text>
</a>
</g>
</g>
<!-- Node3&#45;&gt;Node17 -->
<g id="edge36_Node000003_Node000017" class="edge">
<title>Node3&#45;&gt;Node17</title>
<g id="a_edge36_Node000003_Node000017"><a xlink:title=" ">
<path fill="none" stroke="#63b8ff" d="M884.72,-223.56C895.97,-210.33 917.65,-185.89 938.88,-168 951.73,-157.17 967.24,-146.61 980.1,-138.45"/>
<polygon fill="#63b8ff" stroke="#63b8ff" points="981.82,-141.5 988.46,-133.25 978.12,-135.56 981.82,-141.5"/>
</a>
</g>
</g>
<!-- Node19 -->
<g id="Node000019" class="node">
<title>Node19</title>
<g id="a_Node000019"><a xlink:href="IMemberCommand_8hpp.html" target="_top" xlink:title=" ">
<polygon fill="white" stroke="#666666" points="527.88,-132 409.88,-132 409.88,-112 527.88,-112 527.88,-132"/>
<text text-anchor="middle" x="468.88" y="-118.5" font-family="Helvetica,sans-Serif" font-size="10.00">IMemberCommand.hpp</text>
</a>
</g>
</g>
<!-- Node3&#45;&gt;Node19 -->
<g id="edge37_Node000003_Node000019" class="edge">
<title>Node3&#45;&gt;Node19</title>
<g id="a_edge37_Node000003_Node000019"><a xlink:title=" ">
<path fill="none" stroke="#63b8ff" d="M851.5,-229.33C808.94,-222.87 720.68,-208.24 647.88,-188 595.77,-173.51 537.17,-151 501.65,-136.63"/>
<polygon fill="#63b8ff" stroke="#63b8ff" points="503.38,-133.56 492.8,-133.03 500.74,-140.04 503.38,-133.56"/>
</a>
</g>
</g>
<!-- Node20 -->
<g id="Node000020" class="node">
<title>Node20</title>
<g id="a_Node000020"><a xlink:href="IMessageCommand_8hpp.html" target="_top" xlink:title=" ">
<polygon fill="white" stroke="#666666" points="262.12,-132 139.62,-132 139.62,-112 262.12,-112 262.12,-132"/>
<text text-anchor="middle" x="200.88" y="-118.5" font-family="Helvetica,sans-Serif" font-size="10.00">IMessageCommand.hpp</text>
</a>
</g>
</g>
<!-- Node3&#45;&gt;Node20 -->
<g id="edge38_Node000003_Node000020" class="edge">
<title>Node3&#45;&gt;Node20</title>
<g id="a_edge38_Node000003_Node000020"><a xlink:title=" ">
<path fill="none" stroke="#63b8ff" d="M851.54,-230.83C790.55,-225.43 630.85,-210.2 498.88,-188 410.51,-173.14 308.76,-149.52 249.93,-135.22"/>
<polygon fill="#63b8ff" stroke="#63b8ff" points="250.77,-131.82 240.22,-132.85 249.1,-138.62 250.77,-131.82"/>
</a>
</g>
</g>
<!-- Node3&#45;&gt;Node21 -->
<g id="edge39_Node000003_Node000021" class="edge">
<title>Node3&#45;&gt;Node21</title>
<g id="a_edge39_Node000003_Node000021"><a xlink:title=" ">
<path fill="none" stroke="#63b8ff" d="M851.53,-231.5C779.88,-227.07 569.83,-212.78 396.88,-188 296.1,-173.56 179.71,-149.34 113.75,-134.89"/>
<polygon fill="#63b8ff" stroke="#63b8ff" points="114.82,-131.54 104.3,-132.81 113.31,-138.38 114.82,-131.54"/>
</a>
</g>
</g>
<!-- Node22 -->
<g id="Node000022" class="node">
<title>Node22</title>
<g id="a_Node000022"><a xlink:href="IReady_8hpp.html" target="_top" xlink:title=" ">
<polygon fill="white" stroke="#666666" points="920.62,-132 855.12,-132 855.12,-112 920.62,-112 920.62,-132"/>
<text text-anchor="middle" x="887.88" y="-118.5" font-family="Helvetica,sans-Serif" font-size="10.00">IReady.hpp</text>
</a>
</g>
</g>
<!-- Node3&#45;&gt;Node22 -->
<g id="edge40_Node000003_Node000022" class="edge">
<title>Node3&#45;&gt;Node22</title>
<g id="a_edge40_Node000003_Node000022"><a xlink:title=" ">
<path fill="none" stroke="#63b8ff" d="M877.81,-223.62C879.57,-206.01 883.42,-167.59 885.81,-143.65"/>
<polygon fill="#63b8ff" stroke="#63b8ff" points="889.28,-144.16 886.79,-133.86 882.31,-143.46 889.28,-144.16"/>
</a>
</g>
</g>
<!-- Node23 -->
<g id="Node000023" class="node">
<title>Node23</title>
<g id="a_Node000023"><a xlink:title=" ">
<polygon fill="#e0e0e0" stroke="#999999" points="1015.25,-188 980.5,-188 980.5,-168 1015.25,-168 1015.25,-188"/>
<text text-anchor="middle" x="997.88" y="-174.5" font-family="Helvetica,sans-Serif" font-size="10.00">map</text>
</a>
</g>
</g>
<!-- Node3&#45;&gt;Node23 -->
<g id="edge43_Node000003_Node000023" class="edge">
<title>Node3&#45;&gt;Node23</title>
<g id="a_edge43_Node000003_Node000023"><a xlink:title=" ">
<path fill="none" stroke="#63b8ff" d="M897.95,-223.59C917.88,-214.7 947.91,-201.3 969.85,-191.51"/>
<polygon fill="#63b8ff" stroke="#63b8ff" points="971.1,-194.78 978.8,-187.51 968.24,-188.39 971.1,-194.78"/>
</a>
</g>
</g>
<!-- Node24 -->
<g id="Node000024" class="node">
<title>Node24</title>
<g id="a_Node000024"><a xlink:title=" ">
<polygon fill="#e0e0e0" stroke="#999999" points="1084.5,-188 1033.25,-188 1033.25,-168 1084.5,-168 1084.5,-188"/>
<text text-anchor="middle" x="1058.88" y="-174.5" font-family="Helvetica,sans-Serif" font-size="10.00">memory</text>
</a>
</g>
</g>
<!-- Node3&#45;&gt;Node24 -->
<g id="edge44_Node000003_Node000024" class="edge">
<title>Node3&#45;&gt;Node24</title>
<g id="a_edge44_Node000003_Node000024"><a xlink:title=" ">
<path fill="none" stroke="#63b8ff" d="M902.18,-225.49C933.29,-216.26 986.34,-200.52 1021.99,-189.94"/>
<polygon fill="#63b8ff" stroke="#63b8ff" points="1022.86,-193.34 1031.45,-187.14 1020.87,-186.63 1022.86,-193.34"/>
</a>
</g>
</g>
<!-- Node5 -->
<g id="Node000005" class="node">
<title>Node5</title>
<g id="a_Node000005"><a xlink:title=" ">
<polygon fill="#e0e0e0" stroke="#999999" points="714.25,-132 655.5,-132 655.5,-112 714.25,-112 714.25,-132"/>
<text text-anchor="middle" x="684.88" y="-118.5" font-family="Helvetica,sans-Serif" font-size="10.00">dpp/dpp.h</text>
</a>
</g>
</g>
<!-- Node4&#45;&gt;Node5 -->
<g id="edge4_Node000004_Node000005" class="edge">
<title>Node4&#45;&gt;Node5</title>
<g id="a_edge4_Node000004_Node000005"><a xlink:title=" ">
<path fill="none" stroke="#63b8ff" d="M684.88,-167.59C684.88,-161.01 684.88,-151.96 684.88,-143.73"/>
<polygon fill="#63b8ff" stroke="#63b8ff" points="688.38,-143.81 684.88,-133.81 681.38,-143.81 688.38,-143.81"/>
</a>
</g>
</g>
<!-- Node6 -->
<g id="Node000006" class="node">
<title>Node6</title>
<g id="a_Node000006"><a xlink:title=" ">
<polygon fill="#e0e0e0" stroke="#999999" points="637.38,-132 546.38,-132 546.38,-112 637.38,-112 637.38,-132"/>
<text text-anchor="middle" x="591.88" y="-118.5" font-family="Helvetica,sans-Serif" font-size="10.00">dpp/misc&#45;enum.h</text>
</a>
</g>
</g>
<!-- Node4&#45;&gt;Node6 -->
<g id="edge5_Node000004_Node000006" class="edge">
<title>Node4&#45;&gt;Node6</title>
<g id="a_edge5_Node000004_Node000006"><a xlink:title=" ">
<path fill="none" stroke="#63b8ff" d="M668.68,-167.59C654.63,-159.44 634.04,-147.48 617.72,-138"/>
<polygon fill="#63b8ff" stroke="#63b8ff" points="619.92,-135.23 609.51,-133.24 616.4,-141.29 619.92,-135.23"/>
</a>
</g>
</g>
<!-- Node7 -->
<g id="Node000007" class="node">
<title>Node7</title>
<g id="a_Node000007"><a xlink:href="Database_8hpp.html" target="_top" xlink:title=" ">
<polygon fill="white" stroke="#666666" points="1282.25,-132 1205.5,-132 1205.5,-112 1282.25,-112 1282.25,-132"/>
<text text-anchor="middle" x="1243.88" y="-118.5" font-family="Helvetica,sans-Serif" font-size="10.00">Database.hpp</text>
</a>
</g>
</g>
<!-- Node4&#45;&gt;Node7 -->
<g id="edge6_Node000004_Node000007" class="edge">
<title>Node4&#45;&gt;Node7</title>
<g id="a_edge6_Node000004_Node000007"><a xlink:title=" ">
<path fill="none" stroke="#63b8ff" d="M712.99,-175.33C789.89,-170.57 1010.06,-155.76 1191.88,-132 1192.54,-131.91 1193.21,-131.82 1193.89,-131.73"/>
<polygon fill="#63b8ff" stroke="#63b8ff" points="1194.15,-135.23 1203.53,-130.31 1193.13,-128.31 1194.15,-135.23"/>
</a>
</g>
</g>
<!-- Node4&#45;&gt;Node10 -->
<g id="edge33_Node000004_Node000010" class="edge">
<title>Node4&#45;&gt;Node10</title>
<g id="a_edge33_Node000004_Node000010"><a xlink:title=" ">
<path fill="none" stroke="#63b8ff" d="M713.15,-175.64C778.75,-172.09 946.09,-160.73 1082.88,-132 1147.32,-118.46 1220.29,-93.47 1260.71,-78.73"/>
<polygon fill="#63b8ff" stroke="#63b8ff" points="1261.86,-82.04 1270.03,-75.3 1259.44,-75.47 1261.86,-82.04"/>
</a>
</g>
</g>
<!-- Node4&#45;&gt;Node13 -->
<g id="edge13_Node000004_Node000013" class="edge">
<title>Node4&#45;&gt;Node13</title>
<g id="a_edge13_Node000004_Node000013"><a xlink:title=" ">
<path fill="none" stroke="#63b8ff" d="M656.61,-172.63C601.78,-164.14 479.64,-145.24 402.9,-133.37"/>
<polygon fill="#63b8ff" stroke="#63b8ff" points="403.84,-129.97 393.42,-131.9 402.77,-136.89 403.84,-129.97"/>
</a>
</g>
</g>
<!-- Node4&#45;&gt;Node16 -->
<g id="edge16_Node000004_Node000016" class="edge">
<title>Node4&#45;&gt;Node16</title>
<g id="a_edge16_Node000004_Node000016"><a xlink:title=" ">
<path fill="none" stroke="#63b8ff" d="M702.29,-167.59C717.54,-159.36 739.95,-147.26 757.58,-137.74"/>
<polygon fill="#63b8ff" stroke="#63b8ff" points="758.85,-141.03 765.99,-133.2 755.53,-134.87 758.85,-141.03"/>
</a>
</g>
</g>
<!-- Node4&#45;&gt;Node17 -->
<g id="edge19_Node000004_Node000017" class="edge">
<title>Node4&#45;&gt;Node17</title>
<g id="a_edge19_Node000004_Node000017"><a xlink:title=" ">
<path fill="none" stroke="#63b8ff" d="M713.08,-172.26C763.08,-163.84 868.54,-146.1 938.29,-134.37"/>
<polygon fill="#63b8ff" stroke="#63b8ff" points="938.82,-137.83 948.1,-132.72 937.66,-130.93 938.82,-137.83"/>
</a>
</g>
</g>
<!-- Node4&#45;&gt;Node19 -->
<g id="edge24_Node000004_Node000019" class="edge">
<title>Node4&#45;&gt;Node19</title>
<g id="a_edge24_Node000004_Node000019"><a xlink:title=" ">
<path fill="none" stroke="#63b8ff" d="M656.64,-169.94C621.37,-161.12 560.45,-145.89 517.59,-135.18"/>
<polygon fill="#63b8ff" stroke="#63b8ff" points="518.58,-131.82 508.03,-132.79 516.88,-138.61 518.58,-131.82"/>
</a>
</g>
</g>
<!-- Node4&#45;&gt;Node20 -->
<g id="edge27_Node000004_Node000020" class="edge">
<title>Node4&#45;&gt;Node20</title>
<g id="a_edge27_Node000004_Node000020"><a xlink:title=" ">
<path fill="none" stroke="#63b8ff" d="M656.74,-174.13C591.46,-167.44 424.33,-150.08 273.61,-132.31"/>
<polygon fill="#63b8ff" stroke="#63b8ff" points="274.17,-128.85 263.83,-131.15 273.35,-135.8 274.17,-128.85"/>
</a>
</g>
</g>
<!-- Node4&#45;&gt;Node21 -->
<g id="edge30_Node000004_Node000021" class="edge">
<title>Node4&#45;&gt;Node21</title>
<g id="a_edge30_Node000004_Node000021"><a xlink:title=" ">
<path fill="none" stroke="#63b8ff" d="M656.58,-175.17C576.41,-169.89 340.66,-153.68 133.35,-132.21"/>
<polygon fill="#63b8ff" stroke="#63b8ff" points="133.75,-128.74 123.44,-131.18 133.03,-135.7 133.75,-128.74"/>
</a>
</g>
</g>
<!-- Node8 -->
<g id="Node000008" class="node">
<title>Node8</title>
<g id="a_Node000008"><a xlink:title=" ">
<polygon fill="#e0e0e0" stroke="#999999" points="1522,-76 1473.75,-76 1473.75,-56 1522,-56 1522,-76"/>
<text text-anchor="middle" x="1497.88" y="-62.5" font-family="Helvetica,sans-Serif" font-size="10.00">cstddef</text>
</a>
</g>
</g>
<!-- Node7&#45;&gt;Node8 -->
<g id="edge7_Node000007_Node000008" class="edge">
<title>Node7&#45;&gt;Node8</title>
<g id="a_edge7_Node000007_Node000008"><a xlink:title=" ">
<path fill="none" stroke="#63b8ff" d="M1282.73,-112.74C1331.67,-102.34 1415.07,-84.6 1462.37,-74.55"/>
<polygon fill="#63b8ff" stroke="#63b8ff" points="1463.04,-77.98 1472.09,-72.48 1461.59,-71.14 1463.04,-77.98"/>
</a>
</g>
</g>
<!-- Node9 -->
<g id="Node000009" class="node">
<title>Node9</title>
<g id="a_Node000009"><a xlink:title=" ">
<polygon fill="#e0e0e0" stroke="#999999" points="1344.38,-20 1283.38,-20 1283.38,0 1344.38,0 1344.38,-20"/>
<text text-anchor="middle" x="1313.88" y="-6.5" font-family="Helvetica,sans-Serif" font-size="10.00">pqxx/pqxx</text>
</a>
</g>
</g>
<!-- Node7&#45;&gt;Node9 -->
<g id="edge8_Node000007_Node000009" class="edge">
<title>Node7&#45;&gt;Node9</title>
<g id="a_edge8_Node000007_Node000009"><a xlink:title=" ">
<path fill="none" stroke="#63b8ff" d="M1244.9,-111.94C1246.74,-98.74 1251.52,-73.86 1262.88,-56 1269.98,-44.82 1280.65,-34.8 1290.39,-27.07"/>
<polygon fill="#63b8ff" stroke="#63b8ff" points="1292.19,-30.1 1298.1,-21.3 1287.99,-24.49 1292.19,-30.1"/>
</a>
</g>
</g>
<!-- Node7&#45;&gt;Node10 -->
<g id="edge9_Node000007_Node000010" class="edge">
<title>Node7&#45;&gt;Node10</title>
<g id="a_edge9_Node000007_Node000010"><a xlink:title=" ">
<path fill="none" stroke="#63b8ff" d="M1252.24,-111.59C1258.77,-104.24 1268.06,-93.8 1275.99,-84.87"/>
<polygon fill="#63b8ff" stroke="#63b8ff" points="1278.58,-87.23 1282.6,-77.43 1273.34,-82.58 1278.58,-87.23"/>
</a>
</g>
</g>
<!-- Node7&#45;&gt;Node11 -->
<g id="edge10_Node000007_Node000011" class="edge">
<title>Node7&#45;&gt;Node11</title>
<g id="a_edge10_Node000007_Node000011"><a xlink:title=" ">
<path fill="none" stroke="#63b8ff" d="M1219.14,-111.59C1195.61,-102.64 1160.06,-89.13 1134.27,-79.32"/>
<polygon fill="#63b8ff" stroke="#63b8ff" points="1135.54,-76.06 1124.95,-75.78 1133.06,-82.6 1135.54,-76.06"/>
</a>
</g>
</g>
<!-- Node12 -->
<g id="Node000012" class="node">
<title>Node12</title>
<g id="a_Node000012"><a xlink:href="RowDTOAdapter_8hpp.html" target="_top" xlink:title=" ">
<polygon fill="white" stroke="#666666" points="1439.75,-76 1330,-76 1330,-56 1439.75,-56 1439.75,-76"/>
<text text-anchor="middle" x="1384.88" y="-62.5" font-family="Helvetica,sans-Serif" font-size="10.00">RowDTOAdapter.hpp</text>
</a>
</g>
</g>
<!-- Node7&#45;&gt;Node12 -->
<g id="edge11_Node000007_Node000012" class="edge">
<title>Node7&#45;&gt;Node12</title>
<g id="a_edge11_Node000007_Node000012"><a xlink:title=" ">
<path fill="none" stroke="#63b8ff" d="M1268.44,-111.59C1290.84,-103.01 1324.21,-90.23 1349.49,-80.55"/>
<polygon fill="#63b8ff" stroke="#63b8ff" points="1350.62,-83.87 1358.71,-77.02 1348.12,-77.33 1350.62,-83.87"/>
</a>
</g>
</g>
<!-- Node12&#45;&gt;Node9 -->
<g id="edge12_Node000012_Node000009" class="edge">
<title>Node12&#45;&gt;Node9</title>
<g id="a_edge12_Node000012_Node000009"><a xlink:title=" ">
<path fill="none" stroke="#63b8ff" d="M1372.51,-55.59C1362.23,-47.77 1347.36,-36.46 1335.16,-27.19"/>
<polygon fill="#63b8ff" stroke="#63b8ff" points="1337.38,-24.48 1327.31,-21.21 1333.15,-30.05 1337.38,-24.48"/>
</a>
</g>
</g>
<!-- Node14 -->
<g id="Node000014" class="node">
<title>Node14</title>
<g id="a_Node000014"><a xlink:title=" ">
<polygon fill="#e0e0e0" stroke="#999999" points="456,-76 383.75,-76 383.75,-56 456,-56 456,-76"/>
<text text-anchor="middle" x="419.88" y="-62.5" font-family="Helvetica,sans-Serif" font-size="10.00">dpp/cluster.h</text>
</a>
</g>
</g>
<!-- Node13&#45;&gt;Node14 -->
<g id="edge14_Node000013_Node000014" class="edge">
<title>Node13&#45;&gt;Node14</title>
<g id="a_edge14_Node000013_Node000014"><a xlink:title=" ">
<path fill="none" stroke="#63b8ff" d="M350.51,-111.59C362.96,-103.59 381.09,-91.93 395.7,-82.54"/>
<polygon fill="#63b8ff" stroke="#63b8ff" points="397.34,-85.65 403.86,-77.3 393.55,-79.76 397.34,-85.65"/>
</a>
</g>
</g>
<!-- Node15 -->
<g id="Node000015" class="node">
<title>Node15</title>
<g id="a_Node000015"><a xlink:title=" ">
<polygon fill="#e0e0e0" stroke="#999999" points="561.88,-76 473.88,-76 473.88,-56 561.88,-56 561.88,-76"/>
<text text-anchor="middle" x="517.88" y="-62.5" font-family="Helvetica,sans-Serif" font-size="10.00">dpp/dispatcher.h</text>
</a>
</g>
</g>
<!-- Node13&#45;&gt;Node15 -->
<g id="edge15_Node000013_Node000015" class="edge">
<title>Node13&#45;&gt;Node15</title>
<g id="a_edge15_Node000013_Node000015"><a xlink:title=" ">
<path fill="none" stroke="#63b8ff" d="M367.58,-111.59C397.41,-102.74 442.29,-89.43 475.25,-79.65"/>
<polygon fill="#63b8ff" stroke="#63b8ff" points="475.88,-83.11 484.47,-76.91 473.89,-76.4 475.88,-83.11"/>
</a>
</g>
</g>
<!-- Node16&#45;&gt;Node14 -->
<g id="edge17_Node000016_Node000014" class="edge">
<title>Node16&#45;&gt;Node14</title>
<g id="a_edge17_Node000016_Node000014"><a xlink:title=" ">
<path fill="none" stroke="#63b8ff" d="M731.78,-113.27C728.77,-112.84 725.78,-112.41 722.88,-112 611.83,-96.19 580.93,-95.4 467.44,-76.35"/>
<polygon fill="#63b8ff" stroke="#63b8ff" points="468.13,-72.92 457.68,-74.71 466.96,-79.82 468.13,-72.92"/>
</a>
</g>
</g>
<!-- Node16&#45;&gt;Node15 -->
<g id="edge18_Node000016_Node000015" class="edge">
<title>Node16&#45;&gt;Node15</title>
<g id="a_edge18_Node000016_Node000015"><a xlink:title=" ">
<path fill="none" stroke="#63b8ff" d="M738.06,-111.53C692.09,-102.24 621.97,-88.05 573.25,-78.2"/>
<polygon fill="#63b8ff" stroke="#63b8ff" points="573.95,-74.77 563.46,-76.22 572.56,-81.63 573.95,-74.77"/>
</a>
</g>
</g>
<!-- Node17&#45;&gt;Node11 -->
<g id="edge23_Node000017_Node000011" class="edge">
<title>Node17&#45;&gt;Node11</title>
<g id="a_edge23_Node000017_Node000011"><a xlink:title=" ">
<path fill="none" stroke="#63b8ff" d="M1022.6,-111.59C1037.1,-103.44 1058.35,-91.48 1075.2,-82"/>
<polygon fill="#63b8ff" stroke="#63b8ff" points="1076.7,-85.17 1083.7,-77.22 1073.27,-79.07 1076.7,-85.17"/>
</a>
</g>
</g>
<!-- Node17&#45;&gt;Node14 -->
<g id="edge21_Node000017_Node000014" class="edge">
<title>Node17&#45;&gt;Node14</title>
<g id="a_edge21_Node000017_Node000014"><a xlink:title=" ">
<path fill="none" stroke="#63b8ff" d="M937.94,-112.82C935.22,-112.53 932.52,-112.26 929.88,-112 727.2,-92.16 672.13,-103.95 467.3,-76.18"/>
<polygon fill="#63b8ff" stroke="#63b8ff" points="468.04,-72.74 457.66,-74.85 467.09,-79.68 468.04,-72.74"/>
</a>
</g>
</g>
<!-- Node17&#45;&gt;Node15 -->
<g id="edge22_Node000017_Node000015" class="edge">
<title>Node17&#45;&gt;Node15</title>
<g id="a_edge22_Node000017_Node000015"><a xlink:title=" ">
<path fill="none" stroke="#63b8ff" d="M937.93,-112.92C935.21,-112.61 932.52,-112.3 929.88,-112 802.28,-97.48 652.35,-81.33 573.24,-72.89"/>
<polygon fill="#63b8ff" stroke="#63b8ff" points="573.91,-69.44 563.6,-71.86 573.17,-76.4 573.91,-69.44"/>
</a>
</g>
</g>
<!-- Node17&#45;&gt;Node18 -->
<g id="edge20_Node000017_Node000018" class="edge">
<title>Node17&#45;&gt;Node18</title>
<g id="a_edge20_Node000017_Node000018"><a xlink:title=" ">
<path fill="none" stroke="#63b8ff" d="M1007.09,-111.59C1007.96,-104.93 1009.15,-95.75 1010.23,-87.44"/>
<polygon fill="#63b8ff" stroke="#63b8ff" points="1013.66,-88.17 1011.48,-77.8 1006.72,-87.27 1013.66,-88.17"/>
</a>
</g>
</g>
<!-- Node19&#45;&gt;Node14 -->
<g id="edge25_Node000019_Node000014" class="edge">
<title>Node19&#45;&gt;Node14</title>
<g id="a_edge25_Node000019_Node000014"><a xlink:title=" ">
<path fill="none" stroke="#63b8ff" d="M460.34,-111.59C453.59,-104.16 443.99,-93.58 435.83,-84.58"/>
<polygon fill="#63b8ff" stroke="#63b8ff" points="438.64,-82.47 429.33,-77.42 433.46,-87.18 438.64,-82.47"/>
</a>
</g>
</g>
<!-- Node19&#45;&gt;Node15 -->
<g id="edge26_Node000019_Node000015" class="edge">
<title>Node19&#45;&gt;Node15</title>
<g id="a_edge26_Node000019_Node000015"><a xlink:title=" ">
<path fill="none" stroke="#63b8ff" d="M477.41,-111.59C484.16,-104.16 493.76,-93.58 501.92,-84.58"/>
<polygon fill="#63b8ff" stroke="#63b8ff" points="504.29,-87.18 508.42,-77.42 499.11,-82.47 504.29,-87.18"/>
</a>
</g>
</g>
<!-- Node20&#45;&gt;Node14 -->
<g id="edge28_Node000020_Node000014" class="edge">
<title>Node20&#45;&gt;Node14</title>
<g id="a_edge28_Node000020_Node000014"><a xlink:title=" ">
<path fill="none" stroke="#63b8ff" d="M239.27,-111.53C276.31,-102.4 332.46,-88.55 372.31,-78.73"/>
<polygon fill="#63b8ff" stroke="#63b8ff" points="373,-82.16 381.88,-76.37 371.33,-75.37 373,-82.16"/>
</a>
</g>
</g>
<!-- Node20&#45;&gt;Node15 -->
<g id="edge29_Node000020_Node000015" class="edge">
<title>Node20&#45;&gt;Node15</title>
<g id="a_edge29_Node000020_Node000015"><a xlink:title=" ">
<path fill="none" stroke="#63b8ff" d="M256.45,-111.53C314.39,-101.66 404.63,-86.29 462.49,-76.43"/>
<polygon fill="#63b8ff" stroke="#63b8ff" points="462.85,-79.92 472.12,-74.79 461.67,-73.02 462.85,-79.92"/>
</a>
</g>
</g>
<!-- Node21&#45;&gt;Node14 -->
<g id="edge31_Node000021_Node000014" class="edge">
<title>Node21&#45;&gt;Node14</title>
<g id="a_edge31_Node000021_Node000014"><a xlink:title=" ">
<path fill="none" stroke="#63b8ff" d="M122.18,-111.78C193.03,-101.12 308.09,-83.81 372.45,-74.13"/>
<polygon fill="#63b8ff" stroke="#63b8ff" points="372.6,-77.65 381.97,-72.7 371.56,-70.73 372.6,-77.65"/>
</a>
</g>
</g>
<!-- Node21&#45;&gt;Node15 -->
<g id="edge32_Node000021_Node000015" class="edge">
<title>Node21&#45;&gt;Node15</title>
<g id="a_edge32_Node000021_Node000015"><a xlink:title=" ">
<path fill="none" stroke="#63b8ff" d="M121.95,-113.07C124.97,-112.7 127.95,-112.35 130.88,-112 275.53,-94.91 315.07,-96.42 462.39,-76.27"/>
<polygon fill="#63b8ff" stroke="#63b8ff" points="462.73,-79.76 472.16,-74.92 461.78,-72.82 462.73,-79.76"/>
</a>
</g>
</g>
<!-- Node22&#45;&gt;Node14 -->
<g id="edge41_Node000022_Node000014" class="edge">
<title>Node22&#45;&gt;Node14</title>
<g id="a_edge41_Node000022_Node000014"><a xlink:title=" ">
<path fill="none" stroke="#63b8ff" d="M854.82,-113.38C852.14,-112.87 849.47,-112.41 846.88,-112 682.01,-86.24 635.58,-100.13 467.42,-76.22"/>
<polygon fill="#63b8ff" stroke="#63b8ff" points="468.06,-72.78 457.67,-74.81 467.06,-79.71 468.06,-72.78"/>
</a>
</g>
</g>
<!-- Node22&#45;&gt;Node15 -->
<g id="edge42_Node000022_Node000015" class="edge">
<title>Node22&#45;&gt;Node15</title>
<g id="a_edge42_Node000022_Node000015"><a xlink:title=" ">
<path fill="none" stroke="#63b8ff" d="M854.8,-113.5C852.13,-112.97 849.46,-112.46 846.88,-112 751.3,-95 639.11,-80.9 573.52,-73.23"/>
<polygon fill="#63b8ff" stroke="#63b8ff" points="574.06,-69.77 563.72,-72.1 573.25,-76.72 574.06,-69.77"/>
</a>
</g>
</g>
<!-- Node27&#45;&gt;Node10 -->
<g id="edge53_Node000027_Node000010" class="edge">
<title>Node27&#45;&gt;Node10</title>
<g id="a_edge53_Node000027_Node000010"><a xlink:title=" ">
<path fill="none" stroke="#63b8ff" d="M1377.76,-111.59C1361.9,-103.36 1338.59,-91.26 1320.26,-81.74"/>
<polygon fill="#63b8ff" stroke="#63b8ff" points="1321.96,-78.68 1311.48,-77.18 1318.74,-84.89 1321.96,-78.68"/>
</a>
</g>
</g>
<!-- Node27&#45;&gt;Node12 -->
<g id="edge52_Node000027_Node000012" class="edge">
<title>Node27&#45;&gt;Node12</title>
<g id="a_edge52_Node000027_Node000012"><a xlink:title=" ">
<path fill="none" stroke="#63b8ff" d="M1393.96,-111.59C1392.6,-104.93 1390.73,-95.75 1389.04,-87.44"/>
<polygon fill="#63b8ff" stroke="#63b8ff" points="1392.5,-86.88 1387.07,-77.78 1385.64,-88.28 1392.5,-86.88"/>
</a>
</g>
</g>
<!-- Node28&#45;&gt;Node27 -->
<g id="edge57_Node000028_Node000027" class="edge">
<title>Node28&#45;&gt;Node27</title>
<g id="a_edge57_Node000028_Node000027"><a xlink:title=" ">
<path fill="none" stroke="#63b8ff" d="M1409.91,-167.59C1407.79,-160.86 1404.86,-151.53 1402.22,-143.15"/>
<polygon fill="#63b8ff" stroke="#63b8ff" points="1405.6,-142.23 1399.26,-133.74 1398.92,-144.33 1405.6,-142.23"/>
</a>
</g>
</g>
<!-- Node29 -->
<g id="Node000029" class="node">
<title>Node29</title>
<g id="a_Node000029"><a xlink:href="IRepository_8hpp.html" target="_top" xlink:title=" ">
<polygon fill="white" stroke="#666666" points="1556,-132 1471.75,-132 1471.75,-112 1556,-112 1556,-132"/>
<text text-anchor="middle" x="1513.88" y="-118.5" font-family="Helvetica,sans-Serif" font-size="10.00">IRepository.hpp</text>
</a>
</g>
</g>
<!-- Node28&#45;&gt;Node29 -->
<g id="edge55_Node000028_Node000029" class="edge">
<title>Node28&#45;&gt;Node29</title>
<g id="a_edge55_Node000028_Node000029"><a xlink:title=" ">
<path fill="none" stroke="#63b8ff" d="M1430.47,-167.59C1445.8,-159.4 1468.29,-147.37 1486.06,-137.87"/>
<polygon fill="#63b8ff" stroke="#63b8ff" points="1487.64,-140.99 1494.81,-133.19 1484.34,-134.82 1487.64,-140.99"/>
</a>
</g>
</g>
<!-- Node29&#45;&gt;Node8 -->
<g id="edge56_Node000029_Node000008" class="edge">
<title>Node29&#45;&gt;Node8</title>
<g id="a_edge56_Node000029_Node000008"><a xlink:title=" ">
<path fill="none" stroke="#63b8ff" d="M1511.09,-111.59C1509.09,-104.86 1506.33,-95.53 1503.85,-87.15"/>
<polygon fill="#63b8ff" stroke="#63b8ff" points="1507.26,-86.34 1501.06,-77.75 1500.55,-88.33 1507.26,-86.34"/>
</a>
</g>
</g>
</g>
</svg>
