<?xml version="1.0" encoding="UTF-8" standalone="no"?>
<!DOCTYPE svg PUBLIC "-//W3C//DTD SVG 1.1//EN"
 "http://www.w3.org/Graphics/SVG/1.1/DTD/svg11.dtd">
<!-- Generated by graphviz version 13.0.1 (0)
 -->
<!-- Title: src/bot_library/commands/reaction_roles/ReactionRoles.cpp Pages: 1 -->
<svg width="1555pt" height="432pt"
 viewBox="0.00 0.00 1555.00 432.00" xmlns="http://www.w3.org/2000/svg" xmlns:xlink="http://www.w3.org/1999/xlink">
<g id="graph0" class="graph" transform="scale(1 1) rotate(0) translate(4 428)">
<title>src/bot_library/commands/reaction_roles/ReactionRoles.cpp</title>
<!-- Node1 -->
<g id="Node000001" class="node">
<title>Node1</title>
<g id="a_Node000001"><a xlink:title=" ">
<polygon fill="#999999" stroke="#666666" points="957.88,-424 791.88,-424 791.88,-392 957.88,-392 957.88,-424"/>
<text xml:space="preserve" text-anchor="start" x="799.88" y="-410.5" font-family="Helvetica,sans-Serif" font-size="10.00">src/bot_library/commands</text>
<text xml:space="preserve" text-anchor="middle" x="874.88" y="-398.5" font-family="Helvetica,sans-Serif" font-size="10.00">/reaction_roles/ReactionRoles.cpp</text>
</a>
</g>
</g>
<!-- Node2 -->
<g id="Node000002" class="node">
<title>Node2</title>
<g id="a_Node000002"><a xlink:href="ReactionRoles_8hpp.html" target="_top" xlink:title=" ">
<polygon fill="white" stroke="#666666" points="924.5,-356 825.25,-356 825.25,-336 924.5,-336 924.5,-356"/>
<text xml:space="preserve" text-anchor="middle" x="874.88" y="-342.5" font-family="Helvetica,sans-Serif" font-size="10.00">ReactionRoles.hpp</text>
</a>
</g>
</g>
<!-- Node1&#45;&gt;Node2 -->
<g id="edge1_Node000001_Node000002" class="edge">
<title>Node1&#45;&gt;Node2</title>
<g id="a_edge1_Node000001_Node000002"><a xlink:title=" ">
<path fill="none" stroke="#63b8ff" d="M874.88,-391.55C874.88,-384.34 874.88,-375.66 874.88,-367.88"/>
<polygon fill="#63b8ff" stroke="#63b8ff" points="878.38,-367.92 874.88,-357.92 871.38,-367.92 878.38,-367.92"/>
</a>
</g>
</g>
<!-- Node4 -->
<g id="Node000004" class="node">
<title>Node4</title>
<g id="a_Node000004"><a xlink:href="Core_8hpp.html" target="_top" xlink:title=" ">
<polygon fill="white" stroke="#666666" points="776.75,-244 721,-244 721,-224 776.75,-224 776.75,-244"/>
<text xml:space="preserve" text-anchor="middle" x="748.88" y="-230.5" font-family="Helvetica,sans-Serif" font-size="10.00">Core.hpp</text>
</a>
</g>
</g>
<!-- Node1&#45;&gt;Node4 -->
<g id="edge49_Node000001_Node000004" class="edge">
<title>Node1&#45;&gt;Node4</title>
<g id="a_edge49_Node000001_Node000004"><a xlink:title=" ">
<path fill="none" stroke="#63b8ff" d="M853.57,-391.59C841.55,-382.21 826.8,-369.46 815.88,-356 789.75,-323.81 768.39,-280 757.25,-254.89"/>
<polygon fill="#63b8ff" stroke="#63b8ff" points="760.53,-253.66 753.35,-245.87 754.11,-256.44 760.53,-253.66"/>
</a>
</g>
</g>
<!-- Node19 -->
<g id="Node000019" class="node">
<title>Node19</title>
<g id="a_Node000019"><a xlink:title=" ">
<polygon fill="#e0e0e0" stroke="#999999" points="1387.25,-132 1304.5,-132 1304.5,-112 1387.25,-112 1387.25,-132"/>
<text xml:space="preserve" text-anchor="middle" x="1345.88" y="-118.5" font-family="Helvetica,sans-Serif" font-size="10.00">appcommand.h</text>
</a>
</g>
</g>
<!-- Node1&#45;&gt;Node19 -->
<g id="edge47_Node000001_Node000019" class="edge">
<title>Node1&#45;&gt;Node19</title>
<g id="a_edge47_Node000001_Node000019"><a xlink:title=" ">
<path fill="none" stroke="#63b8ff" d="M958.3,-399.44C1123.17,-383.37 1474.88,-342.99 1474.88,-291 1474.88,-291 1474.88,-291 1474.88,-233 1474.88,-202.9 1476.02,-190.36 1455.88,-168 1440.89,-151.37 1418.85,-140.75 1398.42,-134.04"/>
<polygon fill="#63b8ff" stroke="#63b8ff" points="1399.65,-130.75 1389.06,-131.22 1397.63,-137.46 1399.65,-130.75"/>
</a>
</g>
</g>
<!-- Node22 -->
<g id="Node000022" class="node">
<title>Node22</title>
<g id="a_Node000022"><a xlink:href="IReactionCommand_8hpp.html" target="_top" xlink:title=" ">
<polygon fill="white" stroke="#666666" points="1446.75,-188 1325,-188 1325,-168 1446.75,-168 1446.75,-188"/>
<text xml:space="preserve" text-anchor="middle" x="1385.88" y="-174.5" font-family="Helvetica,sans-Serif" font-size="10.00">IReactionCommand.hpp</text>
</a>
</g>
</g>
<!-- Node1&#45;&gt;Node22 -->
<g id="edge50_Node000001_Node000022" class="edge">
<title>Node1&#45;&gt;Node22</title>
<g id="a_edge50_Node000001_Node000022"><a xlink:title=" ">
<path fill="none" stroke="#63b8ff" d="M909.6,-391.51C1003.94,-349.41 1263.97,-233.39 1354.4,-193.05"/>
<polygon fill="#63b8ff" stroke="#63b8ff" points="1355.71,-196.29 1363.42,-189.02 1352.86,-189.9 1355.71,-196.29"/>
</a>
</g>
</g>
<!-- Node25 -->
<g id="Node000025" class="node">
<title>Node25</title>
<g id="a_Node000025"><a xlink:title=" ">
<polygon fill="#e0e0e0" stroke="#999999" points="1546.75,-356 1503,-356 1503,-336 1546.75,-336 1546.75,-356"/>
<text xml:space="preserve" text-anchor="middle" x="1524.88" y="-342.5" font-family="Helvetica,sans-Serif" font-size="10.00">format</text>
</a>
</g>
</g>
<!-- Node1&#45;&gt;Node25 -->
<g id="edge48_Node000001_Node000025" class="edge">
<title>Node1&#45;&gt;Node25</title>
<g id="a_edge48_Node000001_Node000025"><a xlink:title=" ">
<path fill="none" stroke="#63b8ff" d="M958.33,-404.35C1076.94,-399.63 1300.77,-387.11 1488.88,-356 1489.71,-355.86 1490.55,-355.71 1491.4,-355.56"/>
<polygon fill="#63b8ff" stroke="#63b8ff" points="1492,-359.01 1501.04,-353.5 1490.53,-352.17 1492,-359.01"/>
</a>
</g>
</g>
<!-- Node26 -->
<g id="Node000026" class="node">
<title>Node26</title>
<g id="a_Node000026"><a xlink:href="ReactionRoleDTO_8hpp.html" target="_top" xlink:title=" ">
<polygon fill="white" stroke="#666666" points="222.38,-300 107.38,-300 107.38,-280 222.38,-280 222.38,-300"/>
<text xml:space="preserve" text-anchor="middle" x="164.88" y="-286.5" font-family="Helvetica,sans-Serif" font-size="10.00">ReactionRoleDTO.hpp</text>
</a>
</g>
</g>
<!-- Node1&#45;&gt;Node26 -->
<g id="edge51_Node000001_Node000026" class="edge">
<title>Node1&#45;&gt;Node26</title>
<g id="a_edge51_Node000001_Node000026"><a xlink:title=" ">
<path fill="none" stroke="#63b8ff" d="M791.54,-404.92C622.85,-400.1 252.77,-386.19 203.88,-356 187.44,-345.85 177.03,-325.98 171.14,-310.86"/>
<polygon fill="#63b8ff" stroke="#63b8ff" points="174.46,-309.75 167.86,-301.47 167.85,-312.06 174.46,-309.75"/>
</a>
</g>
</g>
<!-- Node27 -->
<g id="Node000027" class="node">
<title>Node27</title>
<g id="a_Node000027"><a xlink:href="ReactionRoleRepository_8hpp.html" target="_top" xlink:title=" ">
<polygon fill="white" stroke="#666666" points="353.12,-356 212.62,-356 212.62,-336 353.12,-336 353.12,-356"/>
<text xml:space="preserve" text-anchor="middle" x="282.88" y="-342.5" font-family="Helvetica,sans-Serif" font-size="10.00">ReactionRoleRepository.hpp</text>
</a>
</g>
</g>
<!-- Node1&#45;&gt;Node27 -->
<g id="edge54_Node000001_Node000027" class="edge">
<title>Node1&#45;&gt;Node27</title>
<g id="a_edge54_Node000001_Node000027"><a xlink:title=" ">
<path fill="none" stroke="#63b8ff" d="M791.62,-398.56C678.47,-387.09 477.37,-366.71 364.87,-355.31"/>
<polygon fill="#63b8ff" stroke="#63b8ff" points="365.41,-351.85 355.11,-354.32 364.71,-358.81 365.41,-351.85"/>
</a>
</g>
</g>
<!-- Node3 -->
<g id="Node000003" class="node">
<title>Node3</title>
<g id="a_Node000003"><a xlink:href="Bot_8hpp.html" target="_top" xlink:title=" ">
<polygon fill="white" stroke="#666666" points="899.75,-300 850,-300 850,-280 899.75,-280 899.75,-300"/>
<text xml:space="preserve" text-anchor="middle" x="874.88" y="-286.5" font-family="Helvetica,sans-Serif" font-size="10.00">Bot.hpp</text>
</a>
</g>
</g>
<!-- Node2&#45;&gt;Node3 -->
<g id="edge2_Node000002_Node000003" class="edge">
<title>Node2&#45;&gt;Node3</title>
<g id="a_edge2_Node000002_Node000003"><a xlink:title=" ">
<path fill="none" stroke="#63b8ff" d="M874.88,-335.59C874.88,-329.01 874.88,-319.96 874.88,-311.73"/>
<polygon fill="#63b8ff" stroke="#63b8ff" points="878.38,-311.81 874.88,-301.81 871.38,-311.81 878.38,-311.81"/>
</a>
</g>
</g>
<!-- Node3&#45;&gt;Node4 -->
<g id="edge3_Node000003_Node000004" class="edge">
<title>Node3&#45;&gt;Node4</title>
<g id="a_edge3_Node000003_Node000004"><a xlink:title=" ">
<path fill="none" stroke="#63b8ff" d="M852.93,-279.59C833.17,-271.13 803.88,-258.58 781.41,-248.94"/>
<polygon fill="#63b8ff" stroke="#63b8ff" points="782.96,-245.8 772.38,-245.08 780.2,-252.23 782.96,-245.8"/>
</a>
</g>
</g>
<!-- Node9 -->
<g id="Node000009" class="node">
<title>Node9</title>
<g id="a_Node000009"><a xlink:title=" ">
<polygon fill="#e0e0e0" stroke="#999999" points="277.88,-132 237.88,-132 237.88,-112 277.88,-112 277.88,-132"/>
<text xml:space="preserve" text-anchor="middle" x="257.88" y="-118.5" font-family="Helvetica,sans-Serif" font-size="10.00">string</text>
</a>
</g>
</g>
<!-- Node3&#45;&gt;Node9 -->
<g id="edge45_Node000003_Node000009" class="edge">
<title>Node3&#45;&gt;Node9</title>
<g id="a_edge45_Node000003_Node000009"><a xlink:title=" ">
<path fill="none" stroke="#63b8ff" d="M849.95,-289.15C784.52,-288.94 602.95,-284.46 458.88,-244 402.6,-228.2 389.55,-218.8 339.88,-188 316.77,-173.68 292.66,-153.89 276.62,-139.92"/>
<polygon fill="#63b8ff" stroke="#63b8ff" points="279.11,-137.46 269.3,-133.46 274.48,-142.7 279.11,-137.46"/>
</a>
</g>
</g>
<!-- Node10 -->
<g id="Node000010" class="node">
<title>Node10</title>
<g id="a_Node000010"><a xlink:title=" ">
<polygon fill="#e0e0e0" stroke="#999999" points="339.38,-132 296.38,-132 296.38,-112 339.38,-112 339.38,-132"/>
<text xml:space="preserve" text-anchor="middle" x="317.88" y="-118.5" font-family="Helvetica,sans-Serif" font-size="10.00">vector</text>
</a>
</g>
</g>
<!-- Node3&#45;&gt;Node10 -->
<g id="edge46_Node000003_Node000010" class="edge">
<title>Node3&#45;&gt;Node10</title>
<g id="a_edge46_Node000003_Node000010"><a xlink:title=" ">
<path fill="none" stroke="#63b8ff" d="M849.55,-286.56C758.07,-277.37 445.84,-242.55 363.88,-188 347,-176.77 334.37,-157.08 326.65,-142.31"/>
<polygon fill="#63b8ff" stroke="#63b8ff" points="329.91,-141.01 322.38,-133.55 323.62,-144.07 329.91,-141.01"/>
</a>
</g>
</g>
<!-- Node14 -->
<g id="Node000014" class="node">
<title>Node14</title>
<g id="a_Node000014"><a xlink:href="IButtonCommand_8hpp.html" target="_top" xlink:title=" ">
<polygon fill="white" stroke="#666666" points="823.5,-188 712.25,-188 712.25,-168 823.5,-168 823.5,-188"/>
<text xml:space="preserve" text-anchor="middle" x="767.88" y="-174.5" font-family="Helvetica,sans-Serif" font-size="10.00">IButtonCommand.hpp</text>
</a>
</g>
</g>
<!-- Node3&#45;&gt;Node14 -->
<g id="edge35_Node000003_Node000014" class="edge">
<title>Node3&#45;&gt;Node14</title>
<g id="a_edge35_Node000003_Node000014"><a xlink:title=" ">
<path fill="none" stroke="#63b8ff" d="M874.41,-279.53C873.28,-265.82 869.37,-240.3 855.88,-224 844.21,-209.9 826.99,-199.74 810.87,-192.68"/>
<polygon fill="#63b8ff" stroke="#63b8ff" points="812.49,-189.56 801.91,-189.05 809.87,-196.05 812.49,-189.56"/>
</a>
</g>
</g>
<!-- Node17 -->
<g id="Node000017" class="node">
<title>Node17</title>
<g id="a_Node000017"><a xlink:href="IFormCommand_8hpp.html" target="_top" xlink:title=" ">
<polygon fill="white" stroke="#666666" points="946.5,-188 841.25,-188 841.25,-168 946.5,-168 946.5,-188"/>
<text xml:space="preserve" text-anchor="middle" x="893.88" y="-174.5" font-family="Helvetica,sans-Serif" font-size="10.00">IFormCommand.hpp</text>
</a>
</g>
</g>
<!-- Node3&#45;&gt;Node17 -->
<g id="edge36_Node000003_Node000017" class="edge">
<title>Node3&#45;&gt;Node17</title>
<g id="a_edge36_Node000003_Node000017"><a xlink:title=" ">
<path fill="none" stroke="#63b8ff" d="M878.52,-279.5C881.8,-270.5 886.47,-256.54 888.88,-244 891.68,-229.33 892.93,-212.5 893.47,-199.65"/>
<polygon fill="#63b8ff" stroke="#63b8ff" points="896.96,-199.96 893.77,-189.86 889.97,-199.75 896.96,-199.96"/>
</a>
</g>
</g>
<!-- Node18 -->
<g id="Node000018" class="node">
<title>Node18</title>
<g id="a_Node000018"><a xlink:href="IGlobalSlashCommand_8hpp.html" target="_top" xlink:title=" ">
<polygon fill="white" stroke="#666666" points="508.5,-188 373.25,-188 373.25,-168 508.5,-168 508.5,-188"/>
<text xml:space="preserve" text-anchor="middle" x="440.88" y="-174.5" font-family="Helvetica,sans-Serif" font-size="10.00">IGlobalSlashCommand.hpp</text>
</a>
</g>
</g>
<!-- Node3&#45;&gt;Node18 -->
<g id="edge37_Node000003_Node000018" class="edge">
<title>Node3&#45;&gt;Node18</title>
<g id="a_edge37_Node000003_Node000018"><a xlink:title=" ">
<path fill="none" stroke="#63b8ff" d="M849.67,-282.61C779.59,-264.85 581.58,-214.66 489.31,-191.28"/>
<polygon fill="#63b8ff" stroke="#63b8ff" points="490.35,-187.93 479.8,-188.87 488.63,-194.72 490.35,-187.93"/>
</a>
</g>
</g>
<!-- Node20 -->
<g id="Node000020" class="node">
<title>Node20</title>
<g id="a_Node000020"><a xlink:href="IMemberCommand_8hpp.html" target="_top" xlink:title=" ">
<polygon fill="white" stroke="#666666" points="1082.88,-188 964.88,-188 964.88,-168 1082.88,-168 1082.88,-188"/>
<text xml:space="preserve" text-anchor="middle" x="1023.88" y="-174.5" font-family="Helvetica,sans-Serif" font-size="10.00">IMemberCommand.hpp</text>
</a>
</g>
</g>
<!-- Node3&#45;&gt;Node20 -->
<g id="edge38_Node000003_Node000020" class="edge">
<title>Node3&#45;&gt;Node20</title>
<g id="a_edge38_Node000003_Node000020"><a xlink:title=" ">
<path fill="none" stroke="#63b8ff" d="M887.58,-279.62C913.09,-260.79 970.8,-218.18 1002.32,-194.91"/>
<polygon fill="#63b8ff" stroke="#63b8ff" points="1004.02,-198.01 1009.99,-189.25 999.86,-192.38 1004.02,-198.01"/>
</a>
</g>
</g>
<!-- Node21 -->
<g id="Node000021" class="node">
<title>Node21</title>
<g id="a_Node000021"><a xlink:href="IMessageCommand_8hpp.html" target="_top" xlink:title=" ">
<polygon fill="white" stroke="#666666" points="1223.12,-188 1100.62,-188 1100.62,-168 1223.12,-168 1223.12,-188"/>
<text xml:space="preserve" text-anchor="middle" x="1161.88" y="-174.5" font-family="Helvetica,sans-Serif" font-size="10.00">IMessageCommand.hpp</text>
</a>
</g>
</g>
<!-- Node3&#45;&gt;Node21 -->
<g id="edge39_Node000003_Node000021" class="edge">
<title>Node3&#45;&gt;Node21</title>
<g id="a_edge39_Node000003_Node000021"><a xlink:title=" ">
<path fill="none" stroke="#63b8ff" d="M899.59,-279.53C950.56,-259.99 1067.48,-215.18 1126.47,-192.57"/>
<polygon fill="#63b8ff" stroke="#63b8ff" points="1127.62,-195.88 1135.7,-189.03 1125.11,-189.34 1127.62,-195.88"/>
</a>
</g>
</g>
<!-- Node3&#45;&gt;Node22 -->
<g id="edge40_Node000003_Node000022" class="edge">
<title>Node3&#45;&gt;Node22</title>
<g id="a_edge40_Node000003_Node000022"><a xlink:title=" ">
<path fill="none" stroke="#63b8ff" d="M899.93,-283.8C939.9,-275.49 1020.57,-258.66 1088.88,-244 1173.96,-225.74 1272.64,-204.04 1332.11,-190.9"/>
<polygon fill="#63b8ff" stroke="#63b8ff" points="1332.62,-194.38 1341.63,-188.8 1331.11,-187.54 1332.62,-194.38"/>
</a>
</g>
</g>
<!-- Node23 -->
<g id="Node000023" class="node">
<title>Node23</title>
<g id="a_Node000023"><a xlink:href="IReady_8hpp.html" target="_top" xlink:title=" ">
<polygon fill="white" stroke="#666666" points="1306.62,-188 1241.12,-188 1241.12,-168 1306.62,-168 1306.62,-188"/>
<text xml:space="preserve" text-anchor="middle" x="1273.88" y="-174.5" font-family="Helvetica,sans-Serif" font-size="10.00">IReady.hpp</text>
</a>
</g>
</g>
<!-- Node3&#45;&gt;Node23 -->
<g id="edge41_Node000003_Node000023" class="edge">
<title>Node3&#45;&gt;Node23</title>
<g id="a_edge41_Node000003_Node000023"><a xlink:title=" ">
<path fill="none" stroke="#63b8ff" d="M900.14,-282.04C966.47,-263.75 1146.22,-214.19 1229.91,-191.12"/>
<polygon fill="#63b8ff" stroke="#63b8ff" points="1230.65,-194.55 1239.36,-188.52 1228.79,-187.8 1230.65,-194.55"/>
</a>
</g>
</g>
<!-- Node24 -->
<g id="Node000024" class="node">
<title>Node24</title>
<g id="a_Node000024"><a xlink:title=" ">
<polygon fill="#e0e0e0" stroke="#999999" points="846.5,-244 795.25,-244 795.25,-224 846.5,-224 846.5,-244"/>
<text xml:space="preserve" text-anchor="middle" x="820.88" y="-230.5" font-family="Helvetica,sans-Serif" font-size="10.00">memory</text>
</a>
</g>
</g>
<!-- Node3&#45;&gt;Node24 -->
<g id="edge44_Node000003_Node000024" class="edge">
<title>Node3&#45;&gt;Node24</title>
<g id="a_edge44_Node000003_Node000024"><a xlink:title=" ">
<path fill="none" stroke="#63b8ff" d="M865.47,-279.59C857.96,-272.08 847.23,-261.35 838.18,-252.3"/>
<polygon fill="#63b8ff" stroke="#63b8ff" points="840.79,-249.96 831.24,-245.37 835.84,-254.91 840.79,-249.96"/>
</a>
</g>
</g>
<!-- Node5 -->
<g id="Node000005" class="node">
<title>Node5</title>
<g id="a_Node000005"><a xlink:title=" ">
<polygon fill="#e0e0e0" stroke="#999999" points="694.25,-188 635.5,-188 635.5,-168 694.25,-168 694.25,-188"/>
<text xml:space="preserve" text-anchor="middle" x="664.88" y="-174.5" font-family="Helvetica,sans-Serif" font-size="10.00">dpp/dpp.h</text>
</a>
</g>
</g>
<!-- Node4&#45;&gt;Node5 -->
<g id="edge4_Node000004_Node000005" class="edge">
<title>Node4&#45;&gt;Node5</title>
<g id="a_edge4_Node000004_Node000005"><a xlink:title=" ">
<path fill="none" stroke="#63b8ff" d="M734.24,-223.59C721.79,-215.59 703.66,-203.93 689.05,-194.54"/>
<polygon fill="#63b8ff" stroke="#63b8ff" points="691.2,-191.76 680.89,-189.3 687.41,-197.65 691.2,-191.76"/>
</a>
</g>
</g>
<!-- Node6 -->
<g id="Node000006" class="node">
<title>Node6</title>
<g id="a_Node000006"><a xlink:title=" ">
<polygon fill="#e0e0e0" stroke="#999999" points="617.38,-188 526.38,-188 526.38,-168 617.38,-168 617.38,-188"/>
<text xml:space="preserve" text-anchor="middle" x="571.88" y="-174.5" font-family="Helvetica,sans-Serif" font-size="10.00">dpp/misc&#45;enum.h</text>
</a>
</g>
</g>
<!-- Node4&#45;&gt;Node6 -->
<g id="edge5_Node000004_Node000006" class="edge">
<title>Node4&#45;&gt;Node6</title>
<g id="a_edge5_Node000004_Node000006"><a xlink:title=" ">
<path fill="none" stroke="#63b8ff" d="M720.83,-224.44C691.93,-215.63 646.55,-201.78 613.47,-191.69"/>
<polygon fill="#63b8ff" stroke="#63b8ff" points="614.8,-188.44 604.21,-188.87 612.76,-195.13 614.8,-188.44"/>
</a>
</g>
</g>
<!-- Node7 -->
<g id="Node000007" class="node">
<title>Node7</title>
<g id="a_Node000007"><a xlink:href="Database_8hpp.html" target="_top" xlink:title=" ">
<polygon fill="white" stroke="#666666" points="176.25,-188 99.5,-188 99.5,-168 176.25,-168 176.25,-188"/>
<text xml:space="preserve" text-anchor="middle" x="137.88" y="-174.5" font-family="Helvetica,sans-Serif" font-size="10.00">Database.hpp</text>
</a>
</g>
</g>
<!-- Node4&#45;&gt;Node7 -->
<g id="edge6_Node000004_Node000007" class="edge">
<title>Node4&#45;&gt;Node7</title>
<g id="a_edge6_Node000004_Node000007"><a xlink:title=" ">
<path fill="none" stroke="#63b8ff" d="M720.63,-230.5C624.68,-222.02 310.43,-194.25 187.65,-183.4"/>
<polygon fill="#63b8ff" stroke="#63b8ff" points="188.16,-179.93 177.89,-182.54 187.54,-186.9 188.16,-179.93"/>
</a>
</g>
</g>
<!-- Node4&#45;&gt;Node9 -->
<g id="edge34_Node000004_Node000009" class="edge">
<title>Node4&#45;&gt;Node9</title>
<g id="a_edge34_Node000004_Node000009"><a xlink:title=" ">
<path fill="none" stroke="#63b8ff" d="M720.9,-233.79C656.14,-234.75 491.7,-232.24 363.88,-188 331.62,-176.84 298.77,-154.66 278.36,-139.34"/>
<polygon fill="#63b8ff" stroke="#63b8ff" points="280.67,-136.7 270.61,-133.37 276.4,-142.24 280.67,-136.7"/>
</a>
</g>
</g>
<!-- Node4&#45;&gt;Node14 -->
<g id="edge14_Node000004_Node000014" class="edge">
<title>Node4&#45;&gt;Node14</title>
<g id="a_edge14_Node000004_Node000014"><a xlink:title=" ">
<path fill="none" stroke="#63b8ff" d="M752.18,-223.59C754.55,-216.86 757.84,-207.53 760.78,-199.15"/>
<polygon fill="#63b8ff" stroke="#63b8ff" points="764.08,-200.32 764.1,-189.73 757.48,-198 764.08,-200.32"/>
</a>
</g>
</g>
<!-- Node4&#45;&gt;Node17 -->
<g id="edge17_Node000004_Node000017" class="edge">
<title>Node4&#45;&gt;Node17</title>
<g id="a_edge17_Node000004_Node000017"><a xlink:title=" ">
<path fill="none" stroke="#63b8ff" d="M774.13,-223.59C797.28,-214.97 831.8,-202.12 857.84,-192.42"/>
<polygon fill="#63b8ff" stroke="#63b8ff" points="858.85,-195.78 867,-189.01 856.41,-189.22 858.85,-195.78"/>
</a>
</g>
</g>
<!-- Node4&#45;&gt;Node18 -->
<g id="edge20_Node000004_Node000018" class="edge">
<title>Node4&#45;&gt;Node18</title>
<g id="a_edge20_Node000004_Node000018"><a xlink:title=" ">
<path fill="none" stroke="#63b8ff" d="M720.73,-228.06C672.43,-219.6 572.6,-202.09 506.17,-190.45"/>
<polygon fill="#63b8ff" stroke="#63b8ff" points="506.94,-187.03 496.48,-188.75 505.73,-193.92 506.94,-187.03"/>
</a>
</g>
</g>
<!-- Node4&#45;&gt;Node20 -->
<g id="edge25_Node000004_Node000020" class="edge">
<title>Node4&#45;&gt;Node20</title>
<g id="a_edge25_Node000004_Node000020"><a xlink:title=" ">
<path fill="none" stroke="#63b8ff" d="M777.12,-225.97C780.07,-225.28 783.03,-224.61 785.88,-224 843.91,-211.46 910.32,-199.07 958.21,-190.47"/>
<polygon fill="#63b8ff" stroke="#63b8ff" points="958.64,-193.95 967.87,-188.75 957.41,-187.06 958.64,-193.95"/>
</a>
</g>
</g>
<!-- Node4&#45;&gt;Node21 -->
<g id="edge28_Node000004_Node000021" class="edge">
<title>Node4&#45;&gt;Node21</title>
<g id="a_edge28_Node000004_Node000021"><a xlink:title=" ">
<path fill="none" stroke="#63b8ff" d="M777.08,-225.77C780.04,-225.12 783.01,-224.51 785.88,-224 917.1,-200.41 954.03,-204.49 1089.22,-188.3"/>
<polygon fill="#63b8ff" stroke="#63b8ff" points="1089.41,-191.8 1098.92,-187.12 1088.57,-184.85 1089.41,-191.8"/>
</a>
</g>
</g>
<!-- Node4&#45;&gt;Node22 -->
<g id="edge31_Node000004_Node000022" class="edge">
<title>Node4&#45;&gt;Node22</title>
<g id="a_edge31_Node000004_Node000022"><a xlink:title=" ">
<path fill="none" stroke="#63b8ff" d="M777.06,-225.62C780.02,-225 783,-224.44 785.88,-224 1015.56,-188.53 1078.94,-210.36 1313.51,-188.16"/>
<polygon fill="#63b8ff" stroke="#63b8ff" points="1313.69,-191.66 1323.31,-187.22 1313.02,-184.69 1313.69,-191.66"/>
</a>
</g>
</g>
<!-- Node8 -->
<g id="Node000008" class="node">
<title>Node8</title>
<g id="a_Node000008"><a xlink:title=" ">
<polygon fill="#e0e0e0" stroke="#999999" points="219.62,-132 166.12,-132 166.12,-112 219.62,-112 219.62,-132"/>
<text xml:space="preserve" text-anchor="middle" x="192.88" y="-118.5" font-family="Helvetica,sans-Serif" font-size="10.00">iostream</text>
</a>
</g>
</g>
<!-- Node7&#45;&gt;Node8 -->
<g id="edge7_Node000007_Node000008" class="edge">
<title>Node7&#45;&gt;Node8</title>
<g id="a_edge7_Node000007_Node000008"><a xlink:title=" ">
<path fill="none" stroke="#63b8ff" d="M147.46,-167.59C155.11,-160.08 166.03,-149.35 175.25,-140.3"/>
<polygon fill="#63b8ff" stroke="#63b8ff" points="177.64,-142.86 182.32,-133.36 172.74,-137.87 177.64,-142.86"/>
</a>
</g>
</g>
<!-- Node7&#45;&gt;Node9 -->
<g id="edge8_Node000007_Node000009" class="edge">
<title>Node7&#45;&gt;Node9</title>
<g id="a_edge8_Node000007_Node000009"><a xlink:title=" ">
<path fill="none" stroke="#63b8ff" d="M158.78,-167.59C177.73,-159.06 205.91,-146.38 227.38,-136.72"/>
<polygon fill="#63b8ff" stroke="#63b8ff" points="228.55,-140.03 236.23,-132.74 225.68,-133.65 228.55,-140.03"/>
</a>
</g>
</g>
<!-- Node7&#45;&gt;Node10 -->
<g id="edge9_Node000007_Node000010" class="edge">
<title>Node7&#45;&gt;Node10</title>
<g id="a_edge9_Node000007_Node000010"><a xlink:title=" ">
<path fill="none" stroke="#63b8ff" d="M169.23,-167.59C201.67,-157.86 252.1,-142.73 285.07,-132.84"/>
<polygon fill="#63b8ff" stroke="#63b8ff" points="285.92,-136.24 294.49,-130.02 283.9,-129.54 285.92,-136.24"/>
</a>
</g>
</g>
<!-- Node11 -->
<g id="Node000011" class="node">
<title>Node11</title>
<g id="a_Node000011"><a xlink:href="DatabaseBackend_8hpp.html" target="_top" xlink:title=" ">
<polygon fill="white" stroke="#666666" points="153.38,-76 38.38,-76 38.38,-56 153.38,-56 153.38,-76"/>
<text xml:space="preserve" text-anchor="middle" x="95.88" y="-62.5" font-family="Helvetica,sans-Serif" font-size="10.00">DatabaseBackend.hpp</text>
</a>
</g>
</g>
<!-- Node7&#45;&gt;Node11 -->
<g id="edge10_Node000007_Node000011" class="edge">
<title>Node7&#45;&gt;Node11</title>
<g id="a_edge10_Node000007_Node000011"><a xlink:title=" ">
<path fill="none" stroke="#63b8ff" d="M135.71,-167.56C132.63,-154.74 126.52,-131.23 118.88,-112 115.44,-103.36 110.9,-94.15 106.77,-86.34"/>
<polygon fill="#63b8ff" stroke="#63b8ff" points="109.94,-84.84 102.07,-77.74 103.8,-88.19 109.94,-84.84"/>
</a>
</g>
</g>
<!-- Node13 -->
<g id="Node000013" class="node">
<title>Node13</title>
<g id="a_Node000013"><a xlink:href="RowDTOAdapter_8hpp.html" target="_top" xlink:title=" ">
<polygon fill="white" stroke="#666666" points="109.75,-132 0,-132 0,-112 109.75,-112 109.75,-132"/>
<text xml:space="preserve" text-anchor="middle" x="54.88" y="-118.5" font-family="Helvetica,sans-Serif" font-size="10.00">RowDTOAdapter.hpp</text>
</a>
</g>
</g>
<!-- Node7&#45;&gt;Node13 -->
<g id="edge12_Node000007_Node000013" class="edge">
<title>Node7&#45;&gt;Node13</title>
<g id="a_edge12_Node000007_Node000013"><a xlink:title=" ">
<path fill="none" stroke="#63b8ff" d="M123.42,-167.59C111.12,-159.59 93.2,-147.93 78.77,-138.54"/>
<polygon fill="#63b8ff" stroke="#63b8ff" points="81,-135.82 70.71,-133.3 77.19,-141.69 81,-135.82"/>
</a>
</g>
</g>
<!-- Node12 -->
<g id="Node000012" class="node">
<title>Node12</title>
<g id="a_Node000012"><a xlink:title=" ">
<polygon fill="#e0e0e0" stroke="#999999" points="126.38,-20 65.38,-20 65.38,0 126.38,0 126.38,-20"/>
<text xml:space="preserve" text-anchor="middle" x="95.88" y="-6.5" font-family="Helvetica,sans-Serif" font-size="10.00">pqxx/pqxx</text>
</a>
</g>
</g>
<!-- Node11&#45;&gt;Node12 -->
<g id="edge11_Node000011_Node000012" class="edge">
<title>Node11&#45;&gt;Node12</title>
<g id="a_edge11_Node000011_Node000012"><a xlink:title=" ">
<path fill="none" stroke="#63b8ff" d="M95.88,-55.59C95.88,-49.01 95.88,-39.96 95.88,-31.73"/>
<polygon fill="#63b8ff" stroke="#63b8ff" points="99.38,-31.81 95.88,-21.81 92.38,-31.81 99.38,-31.81"/>
</a>
</g>
</g>
<!-- Node13&#45;&gt;Node11 -->
<g id="edge13_Node000013_Node000011" class="edge">
<title>Node13&#45;&gt;Node11</title>
<g id="a_edge13_Node000013_Node000011"><a xlink:title=" ">
<path fill="none" stroke="#63b8ff" d="M62.02,-111.59C67.48,-104.39 75.2,-94.23 81.88,-85.43"/>
<polygon fill="#63b8ff" stroke="#63b8ff" points="84.64,-87.58 87.9,-77.5 79.07,-83.35 84.64,-87.58"/>
</a>
</g>
</g>
<!-- Node15 -->
<g id="Node000015" class="node">
<title>Node15</title>
<g id="a_Node000015"><a xlink:title=" ">
<polygon fill="#e0e0e0" stroke="#999999" points="1109,-132 1036.75,-132 1036.75,-112 1109,-112 1109,-132"/>
<text xml:space="preserve" text-anchor="middle" x="1072.88" y="-118.5" font-family="Helvetica,sans-Serif" font-size="10.00">dpp/cluster.h</text>
</a>
</g>
</g>
<!-- Node14&#45;&gt;Node15 -->
<g id="edge15_Node000014_Node000015" class="edge">
<title>Node14&#45;&gt;Node15</title>
<g id="a_edge15_Node000014_Node000015"><a xlink:title=" ">
<path fill="none" stroke="#63b8ff" d="M823.99,-167.72C874.23,-159.32 950.2,-146.37 1025.45,-132.42"/>
<polygon fill="#63b8ff" stroke="#63b8ff" points="1025.86,-135.9 1035.05,-130.63 1024.58,-129.02 1025.86,-135.9"/>
</a>
</g>
</g>
<!-- Node16 -->
<g id="Node000016" class="node">
<title>Node16</title>
<g id="a_Node000016"><a xlink:title=" ">
<polygon fill="#e0e0e0" stroke="#999999" points="1018.88,-132 930.88,-132 930.88,-112 1018.88,-112 1018.88,-132"/>
<text xml:space="preserve" text-anchor="middle" x="974.88" y="-118.5" font-family="Helvetica,sans-Serif" font-size="10.00">dpp/dispatcher.h</text>
</a>
</g>
</g>
<!-- Node14&#45;&gt;Node16 -->
<g id="edge16_Node000014_Node000016" class="edge">
<title>Node14&#45;&gt;Node16</title>
<g id="a_edge16_Node000014_Node000016"><a xlink:title=" ">
<path fill="none" stroke="#63b8ff" d="M803.93,-167.59C838.3,-158.63 890.24,-145.08 927.85,-135.27"/>
<polygon fill="#63b8ff" stroke="#63b8ff" points="928.28,-138.77 937.07,-132.86 926.51,-132 928.28,-138.77"/>
</a>
</g>
</g>
<!-- Node17&#45;&gt;Node15 -->
<g id="edge18_Node000017_Node000015" class="edge">
<title>Node17&#45;&gt;Node15</title>
<g id="a_edge18_Node000017_Node000015"><a xlink:title=" ">
<path fill="none" stroke="#63b8ff" d="M925.05,-167.59C954.26,-158.78 998.15,-145.54 1030.53,-135.78"/>
<polygon fill="#63b8ff" stroke="#63b8ff" points="1031.44,-139.16 1040,-132.92 1029.42,-132.45 1031.44,-139.16"/>
</a>
</g>
</g>
<!-- Node17&#45;&gt;Node16 -->
<g id="edge19_Node000017_Node000016" class="edge">
<title>Node17&#45;&gt;Node16</title>
<g id="a_edge19_Node000017_Node000016"><a xlink:title=" ">
<path fill="none" stroke="#63b8ff" d="M907.98,-167.59C919.87,-159.67 937.14,-148.16 951.15,-138.82"/>
<polygon fill="#63b8ff" stroke="#63b8ff" points="953.02,-141.78 959.4,-133.32 949.13,-135.95 953.02,-141.78"/>
</a>
</g>
</g>
<!-- Node18&#45;&gt;Node10 -->
<g id="edge24_Node000018_Node000010" class="edge">
<title>Node18&#45;&gt;Node10</title>
<g id="a_edge24_Node000018_Node000010"><a xlink:title=" ">
<path fill="none" stroke="#63b8ff" d="M419.45,-167.59C400.25,-159.17 371.83,-146.69 349.93,-137.07"/>
<polygon fill="#63b8ff" stroke="#63b8ff" points="351.42,-133.9 340.85,-133.09 348.6,-140.31 351.42,-133.9"/>
</a>
</g>
</g>
<!-- Node18&#45;&gt;Node15 -->
<g id="edge22_Node000018_Node000015" class="edge">
<title>Node18&#45;&gt;Node15</title>
<g id="a_edge22_Node000018_Node000015"><a xlink:title=" ">
<path fill="none" stroke="#63b8ff" d="M508.81,-168.79C511.53,-168.52 514.23,-168.25 516.88,-168 739.89,-146.95 800.3,-161.89 1025.4,-132.16"/>
<polygon fill="#63b8ff" stroke="#63b8ff" points="1025.64,-135.66 1035.09,-130.87 1024.72,-128.72 1025.64,-135.66"/>
</a>
</g>
</g>
<!-- Node18&#45;&gt;Node16 -->
<g id="edge23_Node000018_Node000016" class="edge">
<title>Node18&#45;&gt;Node16</title>
<g id="a_edge23_Node000018_Node000016"><a xlink:title=" ">
<path fill="none" stroke="#63b8ff" d="M508.82,-168.89C511.54,-168.58 514.23,-168.29 516.88,-168 661.92,-152.29 833.08,-136.09 919.29,-128.1"/>
<polygon fill="#63b8ff" stroke="#63b8ff" points="919.49,-131.6 929.12,-127.19 918.84,-124.63 919.49,-131.6"/>
</a>
</g>
</g>
<!-- Node18&#45;&gt;Node19 -->
<g id="edge21_Node000018_Node000019" class="edge">
<title>Node18&#45;&gt;Node19</title>
<g id="a_edge21_Node000018_Node000019"><a xlink:title=" ">
<path fill="none" stroke="#63b8ff" d="M508.81,-168.74C511.53,-168.48 514.23,-168.23 516.88,-168 668.62,-154.91 1134.79,-132.76 1292.83,-125.44"/>
<polygon fill="#63b8ff" stroke="#63b8ff" points="1292.77,-128.94 1302.6,-124.98 1292.45,-121.95 1292.77,-128.94"/>
</a>
</g>
</g>
<!-- Node20&#45;&gt;Node15 -->
<g id="edge26_Node000020_Node000015" class="edge">
<title>Node20&#45;&gt;Node15</title>
<g id="a_edge26_Node000020_Node000015"><a xlink:title=" ">
<path fill="none" stroke="#63b8ff" d="M1032.41,-167.59C1039.16,-160.16 1048.76,-149.58 1056.92,-140.58"/>
<polygon fill="#63b8ff" stroke="#63b8ff" points="1059.29,-143.18 1063.42,-133.42 1054.11,-138.47 1059.29,-143.18"/>
</a>
</g>
</g>
<!-- Node20&#45;&gt;Node16 -->
<g id="edge27_Node000020_Node000016" class="edge">
<title>Node20&#45;&gt;Node16</title>
<g id="a_edge27_Node000020_Node000016"><a xlink:title=" ">
<path fill="none" stroke="#63b8ff" d="M1015.34,-167.59C1008.59,-160.16 998.99,-149.58 990.83,-140.58"/>
<polygon fill="#63b8ff" stroke="#63b8ff" points="993.64,-138.47 984.33,-133.42 988.46,-143.18 993.64,-138.47"/>
</a>
</g>
</g>
<!-- Node21&#45;&gt;Node15 -->
<g id="edge29_Node000021_Node000015" class="edge">
<title>Node21&#45;&gt;Node15</title>
<g id="a_edge29_Node000021_Node000015"><a xlink:title=" ">
<path fill="none" stroke="#63b8ff" d="M1146.37,-167.59C1133.05,-159.51 1113.6,-147.71 1098.05,-138.27"/>
<polygon fill="#63b8ff" stroke="#63b8ff" points="1100.16,-135.46 1089.79,-133.26 1096.53,-141.44 1100.16,-135.46"/>
</a>
</g>
</g>
<!-- Node21&#45;&gt;Node16 -->
<g id="edge30_Node000021_Node000016" class="edge">
<title>Node21&#45;&gt;Node16</title>
<g id="a_edge30_Node000021_Node000016"><a xlink:title=" ">
<path fill="none" stroke="#63b8ff" d="M1129.3,-167.59C1098.65,-158.74 1052.53,-145.43 1018.67,-135.65"/>
<polygon fill="#63b8ff" stroke="#63b8ff" points="1019.73,-132.31 1009.16,-132.9 1017.79,-139.04 1019.73,-132.31"/>
</a>
</g>
</g>
<!-- Node22&#45;&gt;Node15 -->
<g id="edge32_Node000022_Node000015" class="edge">
<title>Node22&#45;&gt;Node15</title>
<g id="a_edge32_Node000022_Node000015"><a xlink:title=" ">
<path fill="none" stroke="#63b8ff" d="M1331,-167.53C1271.29,-157.23 1176.82,-140.93 1120.24,-131.17"/>
<polygon fill="#63b8ff" stroke="#63b8ff" points="1121.05,-127.76 1110.6,-129.51 1119.86,-134.66 1121.05,-127.76"/>
</a>
</g>
</g>
<!-- Node22&#45;&gt;Node16 -->
<g id="edge33_Node000022_Node000016" class="edge">
<title>Node22&#45;&gt;Node16</title>
<g id="a_edge33_Node000022_Node000016"><a xlink:title=" ">
<path fill="none" stroke="#63b8ff" d="M1324.79,-169.13C1321.78,-168.75 1318.79,-168.37 1315.88,-168 1191.53,-152.23 1157.41,-150.87 1030.44,-132.32"/>
<polygon fill="#63b8ff" stroke="#63b8ff" points="1031,-128.87 1020.6,-130.88 1029.98,-135.79 1031,-128.87"/>
</a>
</g>
</g>
<!-- Node23&#45;&gt;Node15 -->
<g id="edge42_Node000023_Node000015" class="edge">
<title>Node23&#45;&gt;Node15</title>
<g id="a_edge42_Node000023_Node000015"><a xlink:title=" ">
<path fill="none" stroke="#63b8ff" d="M1240.68,-168.08C1207.54,-159.18 1156.32,-145.42 1119.18,-135.44"/>
<polygon fill="#63b8ff" stroke="#63b8ff" points="1120.17,-132.08 1109.61,-132.87 1118.36,-138.84 1120.17,-132.08"/>
</a>
</g>
</g>
<!-- Node23&#45;&gt;Node16 -->
<g id="edge43_Node000023_Node000016" class="edge">
<title>Node23&#45;&gt;Node16</title>
<g id="a_edge43_Node000023_Node000016"><a xlink:title=" ">
<path fill="none" stroke="#63b8ff" d="M1240.88,-169.81C1237.84,-169.18 1234.8,-168.57 1231.88,-168 1194.23,-160.67 1093.94,-143.35 1030.35,-132.46"/>
<polygon fill="#63b8ff" stroke="#63b8ff" points="1031.26,-129.07 1020.81,-130.83 1030.08,-135.96 1031.26,-129.07"/>
</a>
</g>
</g>
<!-- Node26&#45;&gt;Node9 -->
<g id="edge53_Node000026_Node000009" class="edge">
<title>Node26&#45;&gt;Node9</title>
<g id="a_edge53_Node000026_Node000009"><a xlink:title=" ">
<path fill="none" stroke="#63b8ff" d="M166.51,-279.8C169.05,-266.86 174.62,-242.77 183.88,-224 199.51,-192.31 225.12,-160.15 241.74,-140.89"/>
<polygon fill="#63b8ff" stroke="#63b8ff" points="244.32,-143.25 248.3,-133.43 239.07,-138.63 244.32,-143.25"/>
</a>
</g>
</g>
<!-- Node26&#45;&gt;Node13 -->
<g id="edge52_Node000026_Node000013" class="edge">
<title>Node26&#45;&gt;Node13</title>
<g id="a_edge52_Node000026_Node000013"><a xlink:title=" ">
<path fill="none" stroke="#63b8ff" d="M157.31,-279.54C143.43,-261.98 113.25,-222.98 90.88,-188 81.41,-173.21 71.83,-155.77 64.94,-142.68"/>
<polygon fill="#63b8ff" stroke="#63b8ff" points="68.05,-141.08 60.34,-133.82 61.84,-144.3 68.05,-141.08"/>
</a>
</g>
</g>
<!-- Node27&#45;&gt;Node26 -->
<g id="edge57_Node000027_Node000026" class="edge">
<title>Node27&#45;&gt;Node26</title>
<g id="a_edge57_Node000027_Node000026"><a xlink:title=" ">
<path fill="none" stroke="#63b8ff" d="M262.32,-335.59C243.99,-327.21 216.89,-314.8 195.92,-305.21"/>
<polygon fill="#63b8ff" stroke="#63b8ff" points="197.52,-302.09 186.97,-301.11 194.6,-308.45 197.52,-302.09"/>
</a>
</g>
</g>
<!-- Node28 -->
<g id="Node000028" class="node">
<title>Node28</title>
<g id="a_Node000028"><a xlink:href="IRepository_8hpp.html" target="_top" xlink:title=" ">
<polygon fill="white" stroke="#666666" points="325,-300 240.75,-300 240.75,-280 325,-280 325,-300"/>
<text xml:space="preserve" text-anchor="middle" x="282.88" y="-286.5" font-family="Helvetica,sans-Serif" font-size="10.00">IRepository.hpp</text>
</a>
</g>
</g>
<!-- Node27&#45;&gt;Node28 -->
<g id="edge55_Node000027_Node000028" class="edge">
<title>Node27&#45;&gt;Node28</title>
<g id="a_edge55_Node000027_Node000028"><a xlink:title=" ">
<path fill="none" stroke="#63b8ff" d="M282.88,-335.59C282.88,-329.01 282.88,-319.96 282.88,-311.73"/>
<polygon fill="#63b8ff" stroke="#63b8ff" points="286.38,-311.81 282.88,-301.81 279.38,-311.81 286.38,-311.81"/>
</a>
</g>
</g>
<!-- Node29 -->
<g id="Node000029" class="node">
<title>Node29</title>
<g id="a_Node000029"><a xlink:title=" ">
<polygon fill="#e0e0e0" stroke="#999999" points="241,-244 192.75,-244 192.75,-224 241,-224 241,-244"/>
<text xml:space="preserve" text-anchor="middle" x="216.88" y="-230.5" font-family="Helvetica,sans-Serif" font-size="10.00">cstddef</text>
</a>
</g>
</g>
<!-- Node28&#45;&gt;Node29 -->
<g id="edge56_Node000028_Node000029" class="edge">
<title>Node28&#45;&gt;Node29</title>
<g id="a_edge56_Node000028_Node000029"><a xlink:title=" ">
<path fill="none" stroke="#63b8ff" d="M271.38,-279.59C261.91,-271.85 248.27,-260.69 237,-251.47"/>
<polygon fill="#63b8ff" stroke="#63b8ff" points="239.37,-248.88 229.41,-245.26 234.93,-254.3 239.37,-248.88"/>
</a>
</g>
</g>
</g>
</svg>
