<?xml version="1.0" encoding="UTF-8" standalone="no"?>
<!DOCTYPE svg PUBLIC "-//W3C//DTD SVG 1.1//EN"
 "http://www.w3.org/Graphics/SVG/1.1/DTD/svg11.dtd">
<!-- Generated by graphviz version 9.0.0 (0)
 -->
<!-- Title: src/bot_library/commands/reaction_roles/ReactionRoleDTO.hpp Pages: 1 -->
<svg width="550pt" height="176pt"
 viewBox="0.00 0.00 549.88 176.00" xmlns="http://www.w3.org/2000/svg" xmlns:xlink="http://www.w3.org/1999/xlink">
<g id="graph0" class="graph" transform="scale(1 1) rotate(0) translate(4 172)">
<title>src/bot_library/commands/reaction_roles/ReactionRoleDTO.hpp</title>
<!-- Node1 -->
<g id="Node000001" class="node">
<title>Node1</title>
<g id="a_Node000001"><a xlink:title=" ">
<polygon fill="#999999" stroke="#666666" points="366.75,-168 185,-168 185,-136 366.75,-136 366.75,-168"/>
<text text-anchor="start" x="193" y="-154.5" font-family="Helvetica,sans-Serif" font-size="10.00">src/bot_library/commands</text>
<text text-anchor="middle" x="275.88" y="-142.5" font-family="Helvetica,sans-Serif" font-size="10.00">/reaction_roles/ReactionRoleDTO.hpp</text>
</a>
</g>
</g>
<!-- Node2 -->
<g id="Node000002" class="node">
<title>Node2</title>
<g id="a_Node000002"><a xlink:href="ReactionRoleDTO_8cpp.html" target="_top" xlink:title=" ">
<polygon fill="white" stroke="#666666" points="181.75,-100 0,-100 0,-68 181.75,-68 181.75,-100"/>
<text text-anchor="start" x="8" y="-86.5" font-family="Helvetica,sans-Serif" font-size="10.00">src/bot_library/commands</text>
<text text-anchor="middle" x="90.88" y="-74.5" font-family="Helvetica,sans-Serif" font-size="10.00">/reaction_roles/ReactionRoleDTO.cpp</text>
</a>
</g>
</g>
<!-- Node1&#45;&gt;Node2 -->
<g id="edge1_Node000001_Node000002" class="edge">
<title>Node1&#45;&gt;Node2</title>
<g id="a_edge1_Node000001_Node000002"><a xlink:title=" ">
<path fill="none" stroke="#63b8ff" d="M221.74,-131.69C193.9,-121.76 160.42,-109.81 134.3,-100.49"/>
<polygon fill="#63b8ff" stroke="#63b8ff" points="220.48,-134.95 231.08,-135.02 222.83,-128.36 220.48,-134.95"/>
</a>
</g>
</g>
<!-- Node3 -->
<g id="Node000003" class="node">
<title>Node3</title>
<g id="a_Node000003"><a xlink:href="ReactionRoleRepository_8cpp.html" target="_top" xlink:title=" ">
<polygon fill="white" stroke="#666666" points="342.5,-32 135.25,-32 135.25,0 342.5,0 342.5,-32"/>
<text text-anchor="start" x="143.25" y="-18.5" font-family="Helvetica,sans-Serif" font-size="10.00">src/bot_library/commands</text>
<text text-anchor="middle" x="238.88" y="-6.5" font-family="Helvetica,sans-Serif" font-size="10.00">/reaction_roles/ReactionRoleRepository.cpp</text>
</a>
</g>
</g>
<!-- Node1&#45;&gt;Node3 -->
<g id="edge2_Node000001_Node000003" class="edge">
<title>Node1&#45;&gt;Node3</title>
<g id="a_edge2_Node000001_Node000003"><a xlink:title=" ">
<path fill="none" stroke="#63b8ff" d="M247.81,-127.87C240.19,-119.92 232.93,-110.38 228.88,-100 220.11,-77.56 226.92,-49.32 232.79,-32.24"/>
<polygon fill="#63b8ff" stroke="#63b8ff" points="245.37,-130.37 255,-134.79 250.23,-125.33 245.37,-130.37"/>
</a>
</g>
</g>
<!-- Node4 -->
<g id="Node000004" class="node">
<title>Node4</title>
<g id="a_Node000004"><a xlink:href="ReactionRoleRepository_8hpp.html" target="_top" xlink:title=" ">
<polygon fill="white" stroke="#666666" points="445.5,-100 238.25,-100 238.25,-68 445.5,-68 445.5,-100"/>
<text text-anchor="start" x="246.25" y="-86.5" font-family="Helvetica,sans-Serif" font-size="10.00">src/bot_library/commands</text>
<text text-anchor="middle" x="341.88" y="-74.5" font-family="Helvetica,sans-Serif" font-size="10.00">/reaction_roles/ReactionRoleRepository.hpp</text>
</a>
</g>
</g>
<!-- Node1&#45;&gt;Node4 -->
<g id="edge3_Node000001_Node000004" class="edge">
<title>Node1&#45;&gt;Node4</title>
<g id="a_edge3_Node000001_Node000004"><a xlink:title=" ">
<path fill="none" stroke="#63b8ff" d="M299.17,-127.71C308.29,-118.59 318.5,-108.37 326.65,-100.22"/>
<polygon fill="#63b8ff" stroke="#63b8ff" points="296.85,-125.08 292.25,-134.62 301.8,-130.03 296.85,-125.08"/>
</a>
</g>
</g>
<!-- Node5 -->
<g id="Node000005" class="node">
<title>Node5</title>
<g id="a_Node000005"><a xlink:href="ReactionRoles_8cpp.html" target="_top" xlink:title=" ">
<polygon fill="white" stroke="#666666" points="541.88,-32 375.88,-32 375.88,0 541.88,0 541.88,-32"/>
<text text-anchor="start" x="383.88" y="-18.5" font-family="Helvetica,sans-Serif" font-size="10.00">src/bot_library/commands</text>
<text text-anchor="middle" x="458.88" y="-6.5" font-family="Helvetica,sans-Serif" font-size="10.00">/reaction_roles/ReactionRoles.cpp</text>
</a>
</g>
</g>
<!-- Node1&#45;&gt;Node5 -->
<g id="edge6_Node000001_Node000005" class="edge">
<title>Node1&#45;&gt;Node5</title>
<g id="a_edge6_Node000001_Node000005"><a xlink:title=" ">
<path fill="none" stroke="#63b8ff" d="M376.34,-133.03C411.14,-124.66 444.14,-113.53 454.88,-100 470.12,-80.79 466.88,-50.49 462.98,-32.3"/>
<polygon fill="#63b8ff" stroke="#63b8ff" points="375.94,-129.53 366.99,-135.2 377.52,-136.35 375.94,-129.53"/>
</a>
</g>
</g>
<!-- Node4&#45;&gt;Node3 -->
<g id="edge4_Node000004_Node000003" class="edge">
<title>Node4&#45;&gt;Node3</title>
<g id="a_edge4_Node000004_Node000003"><a xlink:title=" ">
<path fill="none" stroke="#63b8ff" d="M308.36,-61.53C293.52,-52.02 276.41,-41.05 262.87,-32.38"/>
<polygon fill="#63b8ff" stroke="#63b8ff" points="306.14,-64.26 316.45,-66.71 309.92,-58.37 306.14,-64.26"/>
</a>
</g>
</g>
<!-- Node4&#45;&gt;Node5 -->
<g id="edge5_Node000004_Node000005" class="edge">
<title>Node4&#45;&gt;Node5</title>
<g id="a_edge5_Node000004_Node000005"><a xlink:title=" ">
<path fill="none" stroke="#63b8ff" d="M378.98,-62.07C396.06,-52.44 415.95,-41.21 431.62,-32.38"/>
<polygon fill="#63b8ff" stroke="#63b8ff" points="377.61,-58.82 370.62,-66.78 381.05,-64.92 377.61,-58.82"/>
</a>
</g>
</g>
</g>
</svg>
