<?xml version="1.0" encoding="UTF-8" standalone="no"?>
<!DOCTYPE svg PUBLIC "-//W3C//DTD SVG 1.1//EN"
 "http://www.w3.org/Graphics/SVG/1.1/DTD/svg11.dtd">
<!-- Generated by graphviz version 14.1.5 (0)
 -->
<!-- Title: src/bot_library/commands/registration/RegisterPortalAndNotificationCommands.cpp Pages: 1 -->
<svg width="1549pt" height="500pt"
 viewBox="0.00 0.00 1549.00 500.00" xmlns="http://www.w3.org/2000/svg" xmlns:xlink="http://www.w3.org/1999/xlink">
<g id="graph0" class="graph" transform="scale(1 1) rotate(0) translate(4 496)">
<title>src/bot_library/commands/registration/RegisterPortalAndNotificationCommands.cpp</title>
<!-- Node1 -->
<g id="Node000001" class="node">
<title>Node1</title>
<g id="a_Node000001"><a xlink:title=" ">
<polygon fill="#999999" stroke="#666666" points="1144.75,-492 995.25,-492 995.25,-448 1144.75,-448 1144.75,-492"/>
<text xml:space="preserve" text-anchor="start" x="1003.25" y="-478.5" font-family="Helvetica,sans-Serif" font-size="10.00">src/bot_library/commands</text>
<text xml:space="preserve" text-anchor="start" x="1003.25" y="-466.5" font-family="Helvetica,sans-Serif" font-size="10.00">/registration/RegisterPortalAnd</text>
<text xml:space="preserve" text-anchor="middle" x="1070" y="-454.5" font-family="Helvetica,sans-Serif" font-size="10.00">NotificationCommands.cpp</text>
</a>
</g>
</g>
<!-- Node2 -->
<g id="Node000002" class="node">
<title>Node2</title>
<g id="a_Node000002"><a xlink:href="BlacklistCommand_8hpp.html" target="_top" xlink:title=" ">
<polygon fill="white" stroke="#666666" points="1054.62,-412 937.38,-412 937.38,-392 1054.62,-392 1054.62,-412"/>
<text xml:space="preserve" text-anchor="middle" x="996" y="-398.5" font-family="Helvetica,sans-Serif" font-size="10.00">BlacklistCommand.hpp</text>
</a>
</g>
</g>
<!-- Node1&#45;&gt;Node2 -->
<g id="edge1_Node000001_Node000002" class="edge">
<title>Node1&#45;&gt;Node2</title>
<g id="a_edge1_Node000001_Node000002"><a xlink:title=" ">
<path fill="none" stroke="#63b8ff" d="M1046.18,-447.75C1036.06,-438.73 1024.43,-428.36 1014.92,-419.87"/>
<polygon fill="#63b8ff" stroke="#63b8ff" points="1017.48,-417.47 1007.69,-413.43 1012.82,-422.69 1017.48,-417.47"/>
</a>
</g>
</g>
<!-- Node3 -->
<g id="Node000003" class="node">
<title>Node3</title>
<g id="a_Node000003"><a xlink:href="Bot_8hpp.html" target="_top" xlink:title=" ">
<polygon fill="white" stroke="#666666" points="860.88,-356 811.12,-356 811.12,-336 860.88,-336 860.88,-356"/>
<text xml:space="preserve" text-anchor="middle" x="836" y="-342.5" font-family="Helvetica,sans-Serif" font-size="10.00">Bot.hpp</text>
</a>
</g>
</g>
<!-- Node1&#45;&gt;Node3 -->
<g id="edge56_Node000001_Node000003" class="edge">
<title>Node1&#45;&gt;Node3</title>
<g id="a_edge56_Node000001_Node000003"><a xlink:title=" ">
<path fill="none" stroke="#63b8ff" d="M994.98,-466.68C908.87,-462.26 775.42,-449.39 744,-412 723.51,-387.61 766.33,-367.95 800.2,-356.87"/>
<polygon fill="#63b8ff" stroke="#63b8ff" points="800.83,-360.33 809.34,-354.02 798.75,-353.65 800.83,-360.33"/>
</a>
</g>
</g>
<!-- Node27 -->
<g id="Node000027" class="node">
<title>Node27</title>
<g id="a_Node000027"><a xlink:title=" ">
<polygon fill="#e0e0e0" stroke="#999999" points="1126.62,-300 1075.38,-300 1075.38,-280 1126.62,-280 1126.62,-300"/>
<text xml:space="preserve" text-anchor="middle" x="1101" y="-286.5" font-family="Helvetica,sans-Serif" font-size="10.00">memory</text>
</a>
</g>
</g>
<!-- Node1&#45;&gt;Node27 -->
<g id="edge69_Node000001_Node000027" class="edge">
<title>Node1&#45;&gt;Node27</title>
<g id="a_edge69_Node000001_Node000027"><a xlink:title=" ">
<path fill="none" stroke="#63b8ff" d="M1144.96,-466.21C1228.51,-461.33 1355.88,-448.04 1386,-412 1456.84,-327.24 1230.32,-300.59 1138.18,-293.37"/>
<polygon fill="#63b8ff" stroke="#63b8ff" points="1138.61,-289.9 1128.38,-292.65 1138.09,-296.88 1138.61,-289.9"/>
</a>
</g>
</g>
<!-- Node28 -->
<g id="Node000028" class="node">
<title>Node28</title>
<g id="a_Node000028"><a xlink:href="RemoveNotificationCommand_8hpp.html" target="_top" xlink:title=" ">
<polygon fill="white" stroke="#666666" points="919,-412 753,-412 753,-392 919,-392 919,-412"/>
<text xml:space="preserve" text-anchor="middle" x="836" y="-398.5" font-family="Helvetica,sans-Serif" font-size="10.00">RemoveNotificationCommand.hpp</text>
</a>
</g>
</g>
<!-- Node1&#45;&gt;Node28 -->
<g id="edge57_Node000001_Node000028" class="edge">
<title>Node1&#45;&gt;Node28</title>
<g id="a_edge57_Node000001_Node000028"><a xlink:title=" ">
<path fill="none" stroke="#63b8ff" d="M995,-447.84C957.21,-437.19 912.68,-424.63 880.38,-415.52"/>
<polygon fill="#63b8ff" stroke="#63b8ff" points="881.52,-412.2 870.95,-412.86 879.62,-418.94 881.52,-412.2"/>
</a>
</g>
</g>
<!-- Node29 -->
<g id="Node000029" class="node">
<title>Node29</title>
<g id="a_Node000029"><a xlink:href="RemovePortalCommand_8hpp.html" target="_top" xlink:title=" ">
<polygon fill="white" stroke="#666666" points="1215,-412 1073,-412 1073,-392 1215,-392 1215,-412"/>
<text xml:space="preserve" text-anchor="middle" x="1144" y="-398.5" font-family="Helvetica,sans-Serif" font-size="10.00">RemovePortalCommand.hpp</text>
</a>
</g>
</g>
<!-- Node1&#45;&gt;Node29 -->
<g id="edge59_Node000001_Node000029" class="edge">
<title>Node1&#45;&gt;Node29</title>
<g id="a_edge59_Node000001_Node000029"><a xlink:title=" ">
<path fill="none" stroke="#63b8ff" d="M1093.82,-447.75C1103.94,-438.73 1115.57,-428.36 1125.08,-419.87"/>
<polygon fill="#63b8ff" stroke="#63b8ff" points="1127.18,-422.69 1132.31,-413.43 1122.52,-417.47 1127.18,-422.69"/>
</a>
</g>
</g>
<!-- Node30 -->
<g id="Node000030" class="node">
<title>Node30</title>
<g id="a_Node000030"><a xlink:href="SetNotificationCommand_8hpp.html" target="_top" xlink:title=" ">
<polygon fill="white" stroke="#666666" points="1377.12,-412 1232.88,-412 1232.88,-392 1377.12,-392 1377.12,-412"/>
<text xml:space="preserve" text-anchor="middle" x="1305" y="-398.5" font-family="Helvetica,sans-Serif" font-size="10.00">SetNotificationCommand.hpp</text>
</a>
</g>
</g>
<!-- Node1&#45;&gt;Node30 -->
<g id="edge62_Node000001_Node000030" class="edge">
<title>Node1&#45;&gt;Node30</title>
<g id="a_edge62_Node000001_Node000030"><a xlink:title=" ">
<path fill="none" stroke="#63b8ff" d="M1145,-447.94C1182.97,-437.27 1227.78,-424.69 1260.31,-415.55"/>
<polygon fill="#63b8ff" stroke="#63b8ff" points="1261.13,-418.96 1269.81,-412.88 1259.24,-412.22 1261.13,-418.96"/>
</a>
</g>
</g>
<!-- Node32 -->
<g id="Node000032" class="node">
<title>Node32</title>
<g id="a_Node000032"><a xlink:href="SetPortalCommand_8hpp.html" target="_top" xlink:title=" ">
<polygon fill="white" stroke="#666666" points="697.12,-412 576.88,-412 576.88,-392 697.12,-392 697.12,-412"/>
<text xml:space="preserve" text-anchor="middle" x="637" y="-398.5" font-family="Helvetica,sans-Serif" font-size="10.00">SetPortalCommand.hpp</text>
</a>
</g>
</g>
<!-- Node1&#45;&gt;Node32 -->
<g id="edge65_Node000001_Node000032" class="edge">
<title>Node1&#45;&gt;Node32</title>
<g id="a_edge65_Node000001_Node000032"><a xlink:title=" ">
<path fill="none" stroke="#63b8ff" d="M995.07,-457.58C914.67,-445.32 787.88,-426 708.74,-413.93"/>
<polygon fill="#63b8ff" stroke="#63b8ff" points="709.33,-410.48 698.91,-412.44 708.27,-417.4 709.33,-410.48"/>
</a>
</g>
</g>
<!-- Node33 -->
<g id="Node000033" class="node">
<title>Node33</title>
<g id="a_Node000033"><a xlink:href="RegisterModules_8hpp.html" target="_top" xlink:title=" ">
<polygon fill="white" stroke="#666666" points="1541.12,-412 1432.88,-412 1432.88,-392 1541.12,-392 1541.12,-412"/>
<text xml:space="preserve" text-anchor="middle" x="1487" y="-398.5" font-family="Helvetica,sans-Serif" font-size="10.00">RegisterModules.hpp</text>
</a>
</g>
</g>
<!-- Node1&#45;&gt;Node33 -->
<g id="edge70_Node000001_Node000033" class="edge">
<title>Node1&#45;&gt;Node33</title>
<g id="a_edge70_Node000001_Node000033"><a xlink:title=" ">
<path fill="none" stroke="#63b8ff" d="M1145.03,-457.12C1223.76,-444.66 1346.3,-425.27 1421.33,-413.39"/>
<polygon fill="#63b8ff" stroke="#63b8ff" points="1421.67,-416.88 1431,-411.86 1420.57,-409.97 1421.67,-416.88"/>
</a>
</g>
</g>
<!-- Node2&#45;&gt;Node3 -->
<g id="edge2_Node000002_Node000003" class="edge">
<title>Node2&#45;&gt;Node3</title>
<g id="a_edge2_Node000002_Node000003"><a xlink:title=" ">
<path fill="none" stroke="#63b8ff" d="M968.13,-391.59C941.38,-382.56 900.84,-368.88 871.73,-359.06"/>
<polygon fill="#63b8ff" stroke="#63b8ff" points="873.21,-355.86 862.62,-355.98 870.97,-362.5 873.21,-355.86"/>
</a>
</g>
</g>
<!-- Node24 -->
<g id="Node000024" class="node">
<title>Node24</title>
<g id="a_Node000024"><a xlink:href="IMessageCommand_8hpp.html" target="_top" xlink:title=" ">
<polygon fill="white" stroke="#666666" points="1216.25,-244 1093.75,-244 1093.75,-224 1216.25,-224 1216.25,-244"/>
<text xml:space="preserve" text-anchor="middle" x="1155" y="-230.5" font-family="Helvetica,sans-Serif" font-size="10.00">IMessageCommand.hpp</text>
</a>
</g>
</g>
<!-- Node2&#45;&gt;Node24 -->
<g id="edge55_Node000002_Node000024" class="edge">
<title>Node2&#45;&gt;Node24</title>
<g id="a_edge55_Node000002_Node000024"><a xlink:title=" ">
<path fill="none" stroke="#63b8ff" d="M1016.69,-391.6C1047.36,-376.63 1104.61,-344.43 1136,-300 1145.35,-286.77 1150.14,-268.94 1152.57,-255.31"/>
<polygon fill="#63b8ff" stroke="#63b8ff" points="1155.99,-256.12 1153.98,-245.71 1149.06,-255.1 1155.99,-256.12"/>
</a>
</g>
</g>
<!-- Node4 -->
<g id="Node000004" class="node">
<title>Node4</title>
<g id="a_Node000004"><a xlink:href="Core_8hpp.html" target="_top" xlink:title=" ">
<polygon fill="white" stroke="#666666" points="555.88,-300 500.12,-300 500.12,-280 555.88,-280 555.88,-300"/>
<text xml:space="preserve" text-anchor="middle" x="528" y="-286.5" font-family="Helvetica,sans-Serif" font-size="10.00">Core.hpp</text>
</a>
</g>
</g>
<!-- Node3&#45;&gt;Node4 -->
<g id="edge3_Node000003_Node000004" class="edge">
<title>Node3&#45;&gt;Node4</title>
<g id="a_edge3_Node000003_Node000004"><a xlink:title=" ">
<path fill="none" stroke="#63b8ff" d="M810.8,-340.58C757.24,-331.19 631.75,-309.19 567.47,-297.92"/>
<polygon fill="#63b8ff" stroke="#63b8ff" points="568.15,-294.49 557.7,-296.21 566.95,-301.38 568.15,-294.49"/>
</a>
</g>
</g>
<!-- Node8 -->
<g id="Node000008" class="node">
<title>Node8</title>
<g id="a_Node000008"><a xlink:title=" ">
<polygon fill="#e0e0e0" stroke="#999999" points="40,-132 0,-132 0,-112 40,-112 40,-132"/>
<text xml:space="preserve" text-anchor="middle" x="20" y="-118.5" font-family="Helvetica,sans-Serif" font-size="10.00">string</text>
</a>
</g>
</g>
<!-- Node3&#45;&gt;Node8 -->
<g id="edge53_Node000003_Node000008" class="edge">
<title>Node3&#45;&gt;Node8</title>
<g id="a_edge53_Node000003_Node000008"><a xlink:title=" ">
<path fill="none" stroke="#63b8ff" d="M810.95,-343.7C680.07,-336.65 78.61,-301.32 21,-244 -5.34,-217.79 4.24,-170.02 12.68,-143.01"/>
<polygon fill="#63b8ff" stroke="#63b8ff" points="15.96,-144.24 15.86,-133.64 9.33,-141.99 15.96,-144.24"/>
</a>
</g>
</g>
<!-- Node10 -->
<g id="Node000010" class="node">
<title>Node10</title>
<g id="a_Node000010"><a xlink:title=" ">
<polygon fill="#e0e0e0" stroke="#999999" points="614.5,-132 571.5,-132 571.5,-112 614.5,-112 614.5,-132"/>
<text xml:space="preserve" text-anchor="middle" x="593" y="-118.5" font-family="Helvetica,sans-Serif" font-size="10.00">vector</text>
</a>
</g>
</g>
<!-- Node3&#45;&gt;Node10 -->
<g id="edge54_Node000003_Node000010" class="edge">
<title>Node3&#45;&gt;Node10</title>
<g id="a_edge54_Node000003_Node000010"><a xlink:title=" ">
<path fill="none" stroke="#63b8ff" d="M861.27,-339.22C895.3,-331.26 957.65,-316.08 1010,-300 1035.26,-292.24 1040.62,-287.38 1066,-280 1135.58,-259.78 1179.78,-300.61 1225,-244 1230.55,-237.06 1230.19,-231.22 1225,-224 1154.27,-125.68 745.65,-121.57 625.95,-122.52"/>
<polygon fill="#63b8ff" stroke="#63b8ff" points="626.14,-119.01 616.17,-122.61 626.21,-126.01 626.14,-119.01"/>
</a>
</g>
</g>
<!-- Node17 -->
<g id="Node000017" class="node">
<title>Node17</title>
<g id="a_Node000017"><a xlink:href="IButtonCommand_8hpp.html" target="_top" xlink:title=" ">
<polygon fill="white" stroke="#666666" points="839.62,-244 728.38,-244 728.38,-224 839.62,-224 839.62,-244"/>
<text xml:space="preserve" text-anchor="middle" x="784" y="-230.5" font-family="Helvetica,sans-Serif" font-size="10.00">IButtonCommand.hpp</text>
</a>
</g>
</g>
<!-- Node3&#45;&gt;Node17 -->
<g id="edge43_Node000003_Node000017" class="edge">
<title>Node3&#45;&gt;Node17</title>
<g id="a_edge43_Node000003_Node000017"><a xlink:title=" ">
<path fill="none" stroke="#63b8ff" d="M831.57,-335.62C823.12,-317.76 804.58,-278.53 793.3,-254.67"/>
<polygon fill="#63b8ff" stroke="#63b8ff" points="796.51,-253.27 789.07,-245.72 790.18,-256.26 796.51,-253.27"/>
</a>
</g>
</g>
<!-- Node20 -->
<g id="Node000020" class="node">
<title>Node20</title>
<g id="a_Node000020"><a xlink:href="IFormCommand_8hpp.html" target="_top" xlink:title=" ">
<polygon fill="white" stroke="#666666" points="387.62,-244 282.38,-244 282.38,-224 387.62,-224 387.62,-244"/>
<text xml:space="preserve" text-anchor="middle" x="335" y="-230.5" font-family="Helvetica,sans-Serif" font-size="10.00">IFormCommand.hpp</text>
</a>
</g>
</g>
<!-- Node3&#45;&gt;Node20 -->
<g id="edge44_Node000003_Node000020" class="edge">
<title>Node3&#45;&gt;Node20</title>
<g id="a_edge44_Node000003_Node000020"><a xlink:title=" ">
<path fill="none" stroke="#63b8ff" d="M810.88,-344C753.34,-341.22 607.97,-331.4 491,-300 444.61,-287.55 393.76,-264.44 363.12,-249.4"/>
<polygon fill="#63b8ff" stroke="#63b8ff" points="365.04,-246.44 354.53,-245.12 361.92,-252.71 365.04,-246.44"/>
</a>
</g>
</g>
<!-- Node21 -->
<g id="Node000021" class="node">
<title>Node21</title>
<g id="a_Node000021"><a xlink:href="IGlobalSlashCommand_8hpp.html" target="_top" xlink:title=" ">
<polygon fill="white" stroke="#666666" points="1075.62,-244 940.38,-244 940.38,-224 1075.62,-224 1075.62,-244"/>
<text xml:space="preserve" text-anchor="middle" x="1008" y="-230.5" font-family="Helvetica,sans-Serif" font-size="10.00">IGlobalSlashCommand.hpp</text>
</a>
</g>
</g>
<!-- Node3&#45;&gt;Node21 -->
<g id="edge45_Node000003_Node000021" class="edge">
<title>Node3&#45;&gt;Node21</title>
<g id="a_edge45_Node000003_Node000021"><a xlink:title=" ">
<path fill="none" stroke="#63b8ff" d="M850.66,-335.62C880.37,-316.63 947.88,-273.45 984.06,-250.31"/>
<polygon fill="#63b8ff" stroke="#63b8ff" points="985.56,-253.51 992.1,-245.17 981.79,-247.61 985.56,-253.51"/>
</a>
</g>
</g>
<!-- Node23 -->
<g id="Node000023" class="node">
<title>Node23</title>
<g id="a_Node000023"><a xlink:href="IMemberCommand_8hpp.html" target="_top" xlink:title=" ">
<polygon fill="white" stroke="#666666" points="710,-244 592,-244 592,-224 710,-224 710,-244"/>
<text xml:space="preserve" text-anchor="middle" x="651" y="-230.5" font-family="Helvetica,sans-Serif" font-size="10.00">IMemberCommand.hpp</text>
</a>
</g>
</g>
<!-- Node3&#45;&gt;Node23 -->
<g id="edge46_Node000003_Node000023" class="edge">
<title>Node3&#45;&gt;Node23</title>
<g id="a_edge46_Node000003_Node000023"><a xlink:title=" ">
<path fill="none" stroke="#63b8ff" d="M820.23,-335.62C788.14,-316.54 715.04,-273.08 676.25,-250.02"/>
<polygon fill="#63b8ff" stroke="#63b8ff" points="678.42,-247.23 668.03,-245.13 674.84,-253.25 678.42,-247.23"/>
</a>
</g>
</g>
<!-- Node3&#45;&gt;Node24 -->
<g id="edge47_Node000003_Node000024" class="edge">
<title>Node3&#45;&gt;Node24</title>
<g id="a_edge47_Node000003_Node000024"><a xlink:title=" ">
<path fill="none" stroke="#63b8ff" d="M861.3,-336.28C917.16,-317.01 1051.3,-270.76 1117.18,-248.04"/>
<polygon fill="#63b8ff" stroke="#63b8ff" points="1118.16,-251.41 1126.47,-244.84 1115.88,-244.79 1118.16,-251.41"/>
</a>
</g>
</g>
<!-- Node25 -->
<g id="Node000025" class="node">
<title>Node25</title>
<g id="a_Node000025"><a xlink:href="IReactionCommand_8hpp.html" target="_top" xlink:title=" ">
<polygon fill="white" stroke="#666666" points="263.88,-244 142.12,-244 142.12,-224 263.88,-224 263.88,-244"/>
<text xml:space="preserve" text-anchor="middle" x="203" y="-230.5" font-family="Helvetica,sans-Serif" font-size="10.00">IReactionCommand.hpp</text>
</a>
</g>
</g>
<!-- Node3&#45;&gt;Node25 -->
<g id="edge48_Node000003_Node000025" class="edge">
<title>Node3&#45;&gt;Node25</title>
<g id="a_edge48_Node000003_Node000025"><a xlink:title=" ">
<path fill="none" stroke="#63b8ff" d="M811.06,-343.7C747.18,-340.06 572.64,-328.12 430,-300 362.33,-286.66 285.56,-262.78 240.88,-247.98"/>
<polygon fill="#63b8ff" stroke="#63b8ff" points="242.27,-244.75 231.68,-244.9 240.05,-251.39 242.27,-244.75"/>
</a>
</g>
</g>
<!-- Node26 -->
<g id="Node000026" class="node">
<title>Node26</title>
<g id="a_Node000026"><a xlink:href="IReady_8hpp.html" target="_top" xlink:title=" ">
<polygon fill="white" stroke="#666666" points="922.75,-244 857.25,-244 857.25,-224 922.75,-224 922.75,-244"/>
<text xml:space="preserve" text-anchor="middle" x="890" y="-230.5" font-family="Helvetica,sans-Serif" font-size="10.00">IReady.hpp</text>
</a>
</g>
</g>
<!-- Node3&#45;&gt;Node26 -->
<g id="edge49_Node000003_Node000026" class="edge">
<title>Node3&#45;&gt;Node26</title>
<g id="a_edge49_Node000003_Node000026"><a xlink:title=" ">
<path fill="none" stroke="#63b8ff" d="M840.6,-335.62C849.37,-317.76 868.63,-278.53 880.34,-254.67"/>
<polygon fill="#63b8ff" stroke="#63b8ff" points="883.48,-256.23 884.74,-245.71 877.19,-253.15 883.48,-256.23"/>
</a>
</g>
</g>
<!-- Node3&#45;&gt;Node27 -->
<g id="edge52_Node000003_Node000027" class="edge">
<title>Node3&#45;&gt;Node27</title>
<g id="a_edge52_Node000003_Node000027"><a xlink:title=" ">
<path fill="none" stroke="#63b8ff" d="M861.35,-340.14C903.05,-332.09 988.72,-315.36 1061,-300 1062.01,-299.79 1063.02,-299.57 1064.05,-299.35"/>
<polygon fill="#63b8ff" stroke="#63b8ff" points="1064.7,-302.79 1073.72,-297.22 1063.2,-295.95 1064.7,-302.79"/>
</a>
</g>
</g>
<!-- Node5 -->
<g id="Node000005" class="node">
<title>Node5</title>
<g id="a_Node000005"><a xlink:title=" ">
<polygon fill="#e0e0e0" stroke="#999999" points="464.38,-244 405.62,-244 405.62,-224 464.38,-224 464.38,-244"/>
<text xml:space="preserve" text-anchor="middle" x="435" y="-230.5" font-family="Helvetica,sans-Serif" font-size="10.00">dpp/dpp.h</text>
</a>
</g>
</g>
<!-- Node4&#45;&gt;Node5 -->
<g id="edge4_Node000004_Node000005" class="edge">
<title>Node4&#45;&gt;Node5</title>
<g id="a_edge4_Node000004_Node000005"><a xlink:title=" ">
<path fill="none" stroke="#63b8ff" d="M511.8,-279.59C497.75,-271.44 477.17,-259.48 460.84,-250"/>
<polygon fill="#63b8ff" stroke="#63b8ff" points="463.04,-247.23 452.63,-245.24 459.53,-253.29 463.04,-247.23"/>
</a>
</g>
</g>
<!-- Node6 -->
<g id="Node000006" class="node">
<title>Node6</title>
<g id="a_Node000006"><a xlink:title=" ">
<polygon fill="#e0e0e0" stroke="#999999" points="573.5,-244 482.5,-244 482.5,-224 573.5,-224 573.5,-244"/>
<text xml:space="preserve" text-anchor="middle" x="528" y="-230.5" font-family="Helvetica,sans-Serif" font-size="10.00">dpp/misc&#45;enum.h</text>
</a>
</g>
</g>
<!-- Node4&#45;&gt;Node6 -->
<g id="edge5_Node000004_Node000006" class="edge">
<title>Node4&#45;&gt;Node6</title>
<g id="a_edge5_Node000004_Node000006"><a xlink:title=" ">
<path fill="none" stroke="#63b8ff" d="M528,-279.59C528,-273.01 528,-263.96 528,-255.73"/>
<polygon fill="#63b8ff" stroke="#63b8ff" points="531.5,-255.81 528,-245.81 524.5,-255.81 531.5,-255.81"/>
</a>
</g>
</g>
<!-- Node7 -->
<g id="Node000007" class="node">
<title>Node7</title>
<g id="a_Node000007"><a xlink:href="Database_8hpp.html" target="_top" xlink:title=" ">
<polygon fill="white" stroke="#666666" points="124.38,-244 47.62,-244 47.62,-224 124.38,-224 124.38,-244"/>
<text xml:space="preserve" text-anchor="middle" x="86" y="-230.5" font-family="Helvetica,sans-Serif" font-size="10.00">Database.hpp</text>
</a>
</g>
</g>
<!-- Node4&#45;&gt;Node7 -->
<g id="edge6_Node000004_Node000007" class="edge">
<title>Node4&#45;&gt;Node7</title>
<g id="a_edge6_Node000004_Node000007"><a xlink:title=" ">
<path fill="none" stroke="#63b8ff" d="M499.64,-286.51C436.26,-280.8 278.11,-265.66 135.78,-244.33"/>
<polygon fill="#63b8ff" stroke="#63b8ff" points="136.6,-240.91 126.19,-242.88 135.55,-247.83 136.6,-240.91"/>
</a>
</g>
</g>
<!-- Node4&#45;&gt;Node8 -->
<g id="edge42_Node000004_Node000008" class="edge">
<title>Node4&#45;&gt;Node8</title>
<g id="a_edge42_Node000004_Node000008"><a xlink:title=" ">
<path fill="none" stroke="#63b8ff" d="M499.76,-288.39C400.64,-285.97 72.73,-275.64 39,-244 11.69,-218.38 12.96,-170.75 16.42,-143.51"/>
<polygon fill="#63b8ff" stroke="#63b8ff" points="19.85,-144.18 17.89,-133.77 12.93,-143.14 19.85,-144.18"/>
</a>
</g>
</g>
<!-- Node4&#45;&gt;Node17 -->
<g id="edge22_Node000004_Node000017" class="edge">
<title>Node4&#45;&gt;Node17</title>
<g id="a_edge22_Node000004_Node000017"><a xlink:title=" ">
<path fill="none" stroke="#63b8ff" d="M556.37,-283.01C597.61,-274.32 674.95,-258 727.93,-246.83"/>
<polygon fill="#63b8ff" stroke="#63b8ff" points="728.64,-250.26 737.7,-244.77 727.19,-243.41 728.64,-250.26"/>
</a>
</g>
</g>
<!-- Node4&#45;&gt;Node20 -->
<g id="edge25_Node000004_Node000020" class="edge">
<title>Node4&#45;&gt;Node20</title>
<g id="a_edge25_Node000004_Node000020"><a xlink:title=" ">
<path fill="none" stroke="#63b8ff" d="M499.94,-281.15C468.48,-272.35 417.04,-257.95 379.96,-247.58"/>
<polygon fill="#63b8ff" stroke="#63b8ff" points="380.98,-244.23 370.41,-244.91 379.1,-250.97 380.98,-244.23"/>
</a>
</g>
</g>
<!-- Node4&#45;&gt;Node21 -->
<g id="edge28_Node000004_Node000021" class="edge">
<title>Node4&#45;&gt;Node21</title>
<g id="a_edge28_Node000004_Node000021"><a xlink:title=" ">
<path fill="none" stroke="#63b8ff" d="M555.93,-285.96C619.89,-278.97 782.2,-261.17 928.64,-244.38"/>
<polygon fill="#63b8ff" stroke="#63b8ff" points="929.01,-247.86 938.55,-243.24 928.21,-240.91 929.01,-247.86"/>
</a>
</g>
</g>
<!-- Node4&#45;&gt;Node23 -->
<g id="edge33_Node000004_Node000023" class="edge">
<title>Node4&#45;&gt;Node23</title>
<g id="a_edge33_Node000004_Node000023"><a xlink:title=" ">
<path fill="none" stroke="#63b8ff" d="M549.42,-279.59C568.62,-271.17 597.04,-258.69 618.94,-249.07"/>
<polygon fill="#63b8ff" stroke="#63b8ff" points="620.27,-252.31 628.02,-245.09 617.46,-245.9 620.27,-252.31"/>
</a>
</g>
</g>
<!-- Node4&#45;&gt;Node24 -->
<g id="edge36_Node000004_Node000024" class="edge">
<title>Node4&#45;&gt;Node24</title>
<g id="a_edge36_Node000004_Node000024"><a xlink:title=" ">
<path fill="none" stroke="#63b8ff" d="M556.15,-287.2C636.51,-281.95 874.06,-265.76 1082.4,-244.23"/>
<polygon fill="#63b8ff" stroke="#63b8ff" points="1082.47,-247.74 1092.05,-243.22 1081.75,-240.78 1082.47,-247.74"/>
</a>
</g>
</g>
<!-- Node4&#45;&gt;Node25 -->
<g id="edge39_Node000004_Node000025" class="edge">
<title>Node4&#45;&gt;Node25</title>
<g id="a_edge39_Node000004_Node000025"><a xlink:title=" ">
<path fill="none" stroke="#63b8ff" d="M499.73,-284.3C449.15,-275.9 341.88,-258.08 271.13,-246.32"/>
<polygon fill="#63b8ff" stroke="#63b8ff" points="272.04,-242.92 261.6,-244.74 270.89,-249.83 272.04,-242.92"/>
</a>
</g>
</g>
<!-- Node7&#45;&gt;Node8 -->
<g id="edge7_Node000007_Node000008" class="edge">
<title>Node7&#45;&gt;Node8</title>
<g id="a_edge7_Node000007_Node000008"><a xlink:title=" ">
<path fill="none" stroke="#63b8ff" d="M80.37,-223.62C69.56,-205.6 45.69,-165.81 31.41,-142.02"/>
<polygon fill="#63b8ff" stroke="#63b8ff" points="34.54,-140.43 26.39,-133.65 28.54,-144.03 34.54,-140.43"/>
</a>
</g>
</g>
<!-- Node9 -->
<g id="Node000009" class="node">
<title>Node9</title>
<g id="a_Node000009"><a xlink:title=" ">
<polygon fill="#e0e0e0" stroke="#999999" points="97.62,-132 58.38,-132 58.38,-112 97.62,-112 97.62,-132"/>
<text xml:space="preserve" text-anchor="middle" x="78" y="-118.5" font-family="Helvetica,sans-Serif" font-size="10.00">utility</text>
</a>
</g>
</g>
<!-- Node7&#45;&gt;Node9 -->
<g id="edge8_Node000007_Node000009" class="edge">
<title>Node7&#45;&gt;Node9</title>
<g id="a_edge8_Node000007_Node000009"><a xlink:title=" ">
<path fill="none" stroke="#63b8ff" d="M85.32,-223.62C84.04,-206.01 81.24,-167.59 79.5,-143.65"/>
<polygon fill="#63b8ff" stroke="#63b8ff" points="83.01,-143.58 78.79,-133.86 76.02,-144.09 83.01,-143.58"/>
</a>
</g>
</g>
<!-- Node7&#45;&gt;Node10 -->
<g id="edge9_Node000007_Node000010" class="edge">
<title>Node7&#45;&gt;Node10</title>
<g id="a_edge9_Node000007_Node000010"><a xlink:title=" ">
<path fill="none" stroke="#63b8ff" d="M124.68,-225.29C127.49,-224.82 130.29,-224.38 133,-224 218.96,-211.82 442.62,-223.15 522,-188 545.54,-177.58 566.45,-156.17 579.38,-140.76"/>
<polygon fill="#63b8ff" stroke="#63b8ff" points="581.86,-143.26 585.4,-133.28 576.41,-138.88 581.86,-143.26"/>
</a>
</g>
</g>
<!-- Node11 -->
<g id="Node000011" class="node">
<title>Node11</title>
<g id="a_Node000011"><a xlink:href="DatabaseBackend_8hpp.html" target="_top" xlink:title=" ">
<polygon fill="white" stroke="#666666" points="482.5,-76 367.5,-76 367.5,-56 482.5,-56 482.5,-76"/>
<text xml:space="preserve" text-anchor="middle" x="425" y="-62.5" font-family="Helvetica,sans-Serif" font-size="10.00">DatabaseBackend.hpp</text>
</a>
</g>
</g>
<!-- Node7&#45;&gt;Node11 -->
<g id="edge10_Node000007_Node000011" class="edge">
<title>Node7&#45;&gt;Node11</title>
<g id="a_edge10_Node000007_Node000011"><a xlink:title=" ">
<path fill="none" stroke="#63b8ff" d="M124.5,-225.19C165.63,-216.69 232.66,-202.38 290,-188 379.12,-165.65 433.52,-205.24 489,-132 503.26,-113.17 479.18,-94.22 456.59,-81.68"/>
<polygon fill="#63b8ff" stroke="#63b8ff" points="458.29,-78.61 447.8,-77.09 455.05,-84.82 458.29,-78.61"/>
</a>
</g>
</g>
<!-- Node13 -->
<g id="Node000013" class="node">
<title>Node13</title>
<g id="a_Node000013"><a xlink:href="DatabaseExecutor_8hpp.html" target="_top" xlink:title=" ">
<polygon fill="white" stroke="#666666" points="239.88,-188 124.12,-188 124.12,-168 239.88,-168 239.88,-188"/>
<text xml:space="preserve" text-anchor="middle" x="182" y="-174.5" font-family="Helvetica,sans-Serif" font-size="10.00">DatabaseExecutor.hpp</text>
</a>
</g>
</g>
<!-- Node7&#45;&gt;Node13 -->
<g id="edge12_Node000007_Node000013" class="edge">
<title>Node7&#45;&gt;Node13</title>
<g id="a_edge12_Node000007_Node000013"><a xlink:title=" ">
<path fill="none" stroke="#63b8ff" d="M102.72,-223.59C117.22,-215.44 138.47,-203.48 155.32,-194"/>
<polygon fill="#63b8ff" stroke="#63b8ff" points="156.83,-197.17 163.83,-189.22 153.4,-191.07 156.83,-197.17"/>
</a>
</g>
</g>
<!-- Node16 -->
<g id="Node000016" class="node">
<title>Node16</title>
<g id="a_Node000016"><a xlink:href="RowDTOAdapter_8hpp.html" target="_top" xlink:title=" ">
<polygon fill="white" stroke="#666666" points="479.88,-132 370.12,-132 370.12,-112 479.88,-112 479.88,-132"/>
<text xml:space="preserve" text-anchor="middle" x="425" y="-118.5" font-family="Helvetica,sans-Serif" font-size="10.00">RowDTOAdapter.hpp</text>
</a>
</g>
</g>
<!-- Node7&#45;&gt;Node16 -->
<g id="edge21_Node000007_Node000016" class="edge">
<title>Node7&#45;&gt;Node16</title>
<g id="a_edge21_Node000007_Node000016"><a xlink:title=" ">
<path fill="none" stroke="#63b8ff" d="M123.82,-223.53C157.03,-214.98 206.53,-201.68 249,-188 298.8,-171.96 355.39,-150.46 390.65,-136.67"/>
<polygon fill="#63b8ff" stroke="#63b8ff" points="391.88,-139.95 399.9,-133.03 389.31,-133.43 391.88,-139.95"/>
</a>
</g>
</g>
<!-- Node12 -->
<g id="Node000012" class="node">
<title>Node12</title>
<g id="a_Node000012"><a xlink:title=" ">
<polygon fill="#e0e0e0" stroke="#999999" points="455.5,-20 394.5,-20 394.5,0 455.5,0 455.5,-20"/>
<text xml:space="preserve" text-anchor="middle" x="425" y="-6.5" font-family="Helvetica,sans-Serif" font-size="10.00">pqxx/pqxx</text>
</a>
</g>
</g>
<!-- Node11&#45;&gt;Node12 -->
<g id="edge11_Node000011_Node000012" class="edge">
<title>Node11&#45;&gt;Node12</title>
<g id="a_edge11_Node000011_Node000012"><a xlink:title=" ">
<path fill="none" stroke="#63b8ff" d="M425,-55.59C425,-49.01 425,-39.96 425,-31.73"/>
<polygon fill="#63b8ff" stroke="#63b8ff" points="428.5,-31.81 425,-21.81 421.5,-31.81 428.5,-31.81"/>
</a>
</g>
</g>
<!-- Node13&#45;&gt;Node8 -->
<g id="edge14_Node000013_Node000008" class="edge">
<title>Node13&#45;&gt;Node8</title>
<g id="a_edge14_Node000013_Node000008"><a xlink:title=" ">
<path fill="none" stroke="#63b8ff" d="M153.78,-167.59C125,-158 80.48,-143.16 50.8,-133.27"/>
<polygon fill="#63b8ff" stroke="#63b8ff" points="52.25,-130.06 41.66,-130.22 50.04,-136.7 52.25,-130.06"/>
</a>
</g>
</g>
<!-- Node13&#45;&gt;Node9 -->
<g id="edge15_Node000013_Node000009" class="edge">
<title>Node13&#45;&gt;Node9</title>
<g id="a_edge15_Node000013_Node000009"><a xlink:title=" ">
<path fill="none" stroke="#63b8ff" d="M163.88,-167.59C148.03,-159.36 124.72,-147.26 106.38,-137.74"/>
<polygon fill="#63b8ff" stroke="#63b8ff" points="108.09,-134.68 97.6,-133.18 104.86,-140.89 108.09,-134.68"/>
</a>
</g>
</g>
<!-- Node13&#45;&gt;Node10 -->
<g id="edge16_Node000013_Node000010" class="edge">
<title>Node13&#45;&gt;Node10</title>
<g id="a_edge16_Node000013_Node000010"><a xlink:title=" ">
<path fill="none" stroke="#63b8ff" d="M240.01,-169.38C327.45,-157.89 490.17,-136.51 559.89,-127.35"/>
<polygon fill="#63b8ff" stroke="#63b8ff" points="560.07,-130.86 569.53,-126.08 559.16,-123.92 560.07,-130.86"/>
</a>
</g>
</g>
<!-- Node14 -->
<g id="Node000014" class="node">
<title>Node14</title>
<g id="a_Node000014"><a xlink:title=" ">
<polygon fill="#e0e0e0" stroke="#999999" points="168.75,-132 115.25,-132 115.25,-112 168.75,-112 168.75,-132"/>
<text xml:space="preserve" text-anchor="middle" x="142" y="-118.5" font-family="Helvetica,sans-Serif" font-size="10.00">iostream</text>
</a>
</g>
</g>
<!-- Node13&#45;&gt;Node14 -->
<g id="edge13_Node000013_Node000014" class="edge">
<title>Node13&#45;&gt;Node14</title>
<g id="a_edge13_Node000013_Node000014"><a xlink:title=" ">
<path fill="none" stroke="#63b8ff" d="M175.03,-167.59C169.7,-160.39 162.17,-150.23 155.65,-141.43"/>
<polygon fill="#63b8ff" stroke="#63b8ff" points="158.55,-139.47 149.79,-133.51 152.93,-143.63 158.55,-139.47"/>
</a>
</g>
</g>
<!-- Node15 -->
<g id="Node000015" class="node">
<title>Node15</title>
<g id="a_Node000015"><a xlink:href="IDatabaseConnectionProvider_8hpp.html" target="_top" xlink:title=" ">
<polygon fill="white" stroke="#666666" points="351.62,-132 186.38,-132 186.38,-112 351.62,-112 351.62,-132"/>
<text xml:space="preserve" text-anchor="middle" x="269" y="-118.5" font-family="Helvetica,sans-Serif" font-size="10.00">IDatabaseConnectionProvider.hpp</text>
</a>
</g>
</g>
<!-- Node13&#45;&gt;Node15 -->
<g id="edge17_Node000013_Node000015" class="edge">
<title>Node13&#45;&gt;Node15</title>
<g id="a_edge17_Node000013_Node000015"><a xlink:title=" ">
<path fill="none" stroke="#63b8ff" d="M197.15,-167.59C210.05,-159.59 228.83,-147.93 243.96,-138.54"/>
<polygon fill="#63b8ff" stroke="#63b8ff" points="245.79,-141.53 252.44,-133.28 242.1,-135.58 245.79,-141.53"/>
</a>
</g>
</g>
<!-- Node13&#45;&gt;Node16 -->
<g id="edge19_Node000013_Node000016" class="edge">
<title>Node13&#45;&gt;Node16</title>
<g id="a_edge19_Node000013_Node000016"><a xlink:title=" ">
<path fill="none" stroke="#63b8ff" d="M224.61,-167.53C265.43,-158.46 327.18,-144.74 371.34,-134.93"/>
<polygon fill="#63b8ff" stroke="#63b8ff" points="371.96,-138.37 380.97,-132.79 370.44,-131.54 371.96,-138.37"/>
</a>
</g>
</g>
<!-- Node15&#45;&gt;Node11 -->
<g id="edge18_Node000015_Node000011" class="edge">
<title>Node15&#45;&gt;Node11</title>
<g id="a_edge18_Node000015_Node000011"><a xlink:title=" ">
<path fill="none" stroke="#63b8ff" d="M296.17,-111.59C321.3,-102.9 358.88,-89.89 386.98,-80.16"/>
<polygon fill="#63b8ff" stroke="#63b8ff" points="387.88,-83.55 396.18,-76.97 385.59,-76.94 387.88,-83.55"/>
</a>
</g>
</g>
<!-- Node16&#45;&gt;Node11 -->
<g id="edge20_Node000016_Node000011" class="edge">
<title>Node16&#45;&gt;Node11</title>
<g id="a_edge20_Node000016_Node000011"><a xlink:title=" ">
<path fill="none" stroke="#63b8ff" d="M425,-111.59C425,-105.01 425,-95.96 425,-87.73"/>
<polygon fill="#63b8ff" stroke="#63b8ff" points="428.5,-87.81 425,-77.81 421.5,-87.81 428.5,-87.81"/>
</a>
</g>
</g>
<!-- Node18 -->
<g id="Node000018" class="node">
<title>Node18</title>
<g id="a_Node000018"><a xlink:title=" ">
<polygon fill="#e0e0e0" stroke="#999999" points="743.12,-188 670.88,-188 670.88,-168 743.12,-168 743.12,-188"/>
<text xml:space="preserve" text-anchor="middle" x="707" y="-174.5" font-family="Helvetica,sans-Serif" font-size="10.00">dpp/cluster.h</text>
</a>
</g>
</g>
<!-- Node17&#45;&gt;Node18 -->
<g id="edge23_Node000017_Node000018" class="edge">
<title>Node17&#45;&gt;Node18</title>
<g id="a_edge23_Node000017_Node000018"><a xlink:title=" ">
<path fill="none" stroke="#63b8ff" d="M770.59,-223.59C759.39,-215.74 743.19,-204.38 729.94,-195.09"/>
<polygon fill="#63b8ff" stroke="#63b8ff" points="731.95,-192.22 721.76,-189.35 727.93,-197.96 731.95,-192.22"/>
</a>
</g>
</g>
<!-- Node19 -->
<g id="Node000019" class="node">
<title>Node19</title>
<g id="a_Node000019"><a xlink:title=" ">
<polygon fill="#e0e0e0" stroke="#999999" points="849,-188 761,-188 761,-168 849,-168 849,-188"/>
<text xml:space="preserve" text-anchor="middle" x="805" y="-174.5" font-family="Helvetica,sans-Serif" font-size="10.00">dpp/dispatcher.h</text>
</a>
</g>
</g>
<!-- Node17&#45;&gt;Node19 -->
<g id="edge24_Node000017_Node000019" class="edge">
<title>Node17&#45;&gt;Node19</title>
<g id="a_edge24_Node000017_Node000019"><a xlink:title=" ">
<path fill="none" stroke="#63b8ff" d="M787.66,-223.59C790.31,-216.78 793.99,-207.32 797.28,-198.86"/>
<polygon fill="#63b8ff" stroke="#63b8ff" points="800.47,-200.3 800.84,-189.71 793.95,-197.76 800.47,-200.3"/>
</a>
</g>
</g>
<!-- Node20&#45;&gt;Node18 -->
<g id="edge26_Node000020_Node000018" class="edge">
<title>Node20&#45;&gt;Node18</title>
<g id="a_edge26_Node000020_Node000018"><a xlink:title=" ">
<path fill="none" stroke="#63b8ff" d="M387.9,-225.32C460.49,-214.78 589.86,-196 659.5,-185.9"/>
<polygon fill="#63b8ff" stroke="#63b8ff" points="659.66,-189.41 669.05,-184.51 658.65,-182.48 659.66,-189.41"/>
</a>
</g>
</g>
<!-- Node20&#45;&gt;Node19 -->
<g id="edge27_Node000020_Node000019" class="edge">
<title>Node20&#45;&gt;Node19</title>
<g id="a_edge27_Node000020_Node000019"><a xlink:title=" ">
<path fill="none" stroke="#63b8ff" d="M388.08,-225.14C391.1,-224.74 394.09,-224.36 397,-224 550.86,-205.04 592.97,-209.09 749.52,-188.26"/>
<polygon fill="#63b8ff" stroke="#63b8ff" points="749.56,-191.78 759,-186.98 748.62,-184.85 749.56,-191.78"/>
</a>
</g>
</g>
<!-- Node21&#45;&gt;Node10 -->
<g id="edge32_Node000021_Node000010" class="edge">
<title>Node21&#45;&gt;Node10</title>
<g id="a_edge32_Node000021_Node000010"><a xlink:title=" ">
<path fill="none" stroke="#63b8ff" d="M990.06,-223.53C962.44,-209.35 907.52,-182.7 858,-168 776.41,-143.78 676.57,-131.23 625.9,-126.02"/>
<polygon fill="#63b8ff" stroke="#63b8ff" points="626.5,-122.56 616.2,-125.05 625.81,-129.52 626.5,-122.56"/>
</a>
</g>
</g>
<!-- Node21&#45;&gt;Node18 -->
<g id="edge30_Node000021_Node000018" class="edge">
<title>Node21&#45;&gt;Node18</title>
<g id="a_edge30_Node000021_Node000018"><a xlink:title=" ">
<path fill="none" stroke="#63b8ff" d="M951.75,-223.5C902.27,-215.06 828,-202.17 754.21,-188.38"/>
<polygon fill="#63b8ff" stroke="#63b8ff" points="755.3,-185.03 744.82,-186.62 754.01,-191.91 755.3,-185.03"/>
</a>
</g>
</g>
<!-- Node21&#45;&gt;Node19 -->
<g id="edge31_Node000021_Node000019" class="edge">
<title>Node21&#45;&gt;Node19</title>
<g id="a_edge31_Node000021_Node000019"><a xlink:title=" ">
<path fill="none" stroke="#63b8ff" d="M972.64,-223.59C939.08,-214.67 888.43,-201.19 851.59,-191.39"/>
<polygon fill="#63b8ff" stroke="#63b8ff" points="852.66,-188.06 842.1,-188.87 850.86,-194.82 852.66,-188.06"/>
</a>
</g>
</g>
<!-- Node22 -->
<g id="Node000022" class="node">
<title>Node22</title>
<g id="a_Node000022"><a xlink:title=" ">
<polygon fill="#e0e0e0" stroke="#999999" points="1049.38,-188 966.62,-188 966.62,-168 1049.38,-168 1049.38,-188"/>
<text xml:space="preserve" text-anchor="middle" x="1008" y="-174.5" font-family="Helvetica,sans-Serif" font-size="10.00">appcommand.h</text>
</a>
</g>
</g>
<!-- Node21&#45;&gt;Node22 -->
<g id="edge29_Node000021_Node000022" class="edge">
<title>Node21&#45;&gt;Node22</title>
<g id="a_edge29_Node000021_Node000022"><a xlink:title=" ">
<path fill="none" stroke="#63b8ff" d="M1008,-223.59C1008,-217.01 1008,-207.96 1008,-199.73"/>
<polygon fill="#63b8ff" stroke="#63b8ff" points="1011.5,-199.81 1008,-189.81 1004.5,-199.81 1011.5,-199.81"/>
</a>
</g>
</g>
<!-- Node23&#45;&gt;Node18 -->
<g id="edge34_Node000023_Node000018" class="edge">
<title>Node23&#45;&gt;Node18</title>
<g id="a_edge34_Node000023_Node000018"><a xlink:title=" ">
<path fill="none" stroke="#63b8ff" d="M660.75,-223.59C668.62,-216.01 679.9,-205.13 689.35,-196.02"/>
<polygon fill="#63b8ff" stroke="#63b8ff" points="691.5,-198.81 696.27,-189.35 686.64,-193.77 691.5,-198.81"/>
</a>
</g>
</g>
<!-- Node23&#45;&gt;Node19 -->
<g id="edge35_Node000023_Node000019" class="edge">
<title>Node23&#45;&gt;Node19</title>
<g id="a_edge35_Node000023_Node000019"><a xlink:title=" ">
<path fill="none" stroke="#63b8ff" d="M677.82,-223.59C702.63,-214.9 739.73,-201.89 767.47,-192.16"/>
<polygon fill="#63b8ff" stroke="#63b8ff" points="768.26,-195.59 776.54,-188.98 765.94,-188.99 768.26,-195.59"/>
</a>
</g>
</g>
<!-- Node24&#45;&gt;Node18 -->
<g id="edge37_Node000024_Node000018" class="edge">
<title>Node24&#45;&gt;Node18</title>
<g id="a_edge37_Node000024_Node000018"><a xlink:title=" ">
<path fill="none" stroke="#63b8ff" d="M1093.55,-225.03C1090.66,-224.68 1087.8,-224.33 1085,-224 940.78,-206.93 901.06,-210.43 754.51,-188.26"/>
<polygon fill="#63b8ff" stroke="#63b8ff" points="755.21,-184.83 744.8,-186.78 754.15,-191.75 755.21,-184.83"/>
</a>
</g>
</g>
<!-- Node24&#45;&gt;Node19 -->
<g id="edge38_Node000024_Node000019" class="edge">
<title>Node24&#45;&gt;Node19</title>
<g id="a_edge38_Node000024_Node000019"><a xlink:title=" ">
<path fill="none" stroke="#63b8ff" d="M1093.63,-223.53C1027.7,-213.36 923.85,-197.34 860.34,-187.54"/>
<polygon fill="#63b8ff" stroke="#63b8ff" points="861.27,-184.14 850.85,-186.07 860.2,-191.06 861.27,-184.14"/>
</a>
</g>
</g>
<!-- Node25&#45;&gt;Node18 -->
<g id="edge40_Node000025_Node000018" class="edge">
<title>Node25&#45;&gt;Node18</title>
<g id="a_edge40_Node000025_Node000018"><a xlink:title=" ">
<path fill="none" stroke="#63b8ff" d="M264.07,-225.06C267.09,-224.69 270.08,-224.34 273,-224 413.21,-207.72 579.24,-191.3 659.22,-183.57"/>
<polygon fill="#63b8ff" stroke="#63b8ff" points="659.26,-187.08 668.88,-182.64 658.59,-180.11 659.26,-187.08"/>
</a>
</g>
</g>
<!-- Node25&#45;&gt;Node19 -->
<g id="edge41_Node000025_Node000019" class="edge">
<title>Node25&#45;&gt;Node19</title>
<g id="a_edge41_Node000025_Node000019"><a xlink:title=" ">
<path fill="none" stroke="#63b8ff" d="M264.06,-224.96C267.08,-224.62 270.07,-224.3 273,-224 481.76,-202.75 538.17,-213.51 749.35,-188.22"/>
<polygon fill="#63b8ff" stroke="#63b8ff" points="749.5,-191.72 759.01,-187.05 748.66,-184.78 749.5,-191.72"/>
</a>
</g>
</g>
<!-- Node26&#45;&gt;Node18 -->
<g id="edge50_Node000026_Node000018" class="edge">
<title>Node26&#45;&gt;Node18</title>
<g id="a_edge50_Node000026_Node000018"><a xlink:title=" ">
<path fill="none" stroke="#63b8ff" d="M858.12,-223.59C828.13,-214.74 783,-201.43 749.86,-191.65"/>
<polygon fill="#63b8ff" stroke="#63b8ff" points="751.16,-188.38 740.58,-188.91 749.18,-195.09 751.16,-188.38"/>
</a>
</g>
</g>
<!-- Node26&#45;&gt;Node19 -->
<g id="edge51_Node000026_Node000019" class="edge">
<title>Node26&#45;&gt;Node19</title>
<g id="a_edge51_Node000026_Node000019"><a xlink:title=" ">
<path fill="none" stroke="#63b8ff" d="M875.19,-223.59C862.6,-215.59 844.25,-203.93 829.47,-194.54"/>
<polygon fill="#63b8ff" stroke="#63b8ff" points="831.52,-191.7 821.2,-189.29 827.76,-197.61 831.52,-191.7"/>
</a>
</g>
</g>
<!-- Node28&#45;&gt;Node3 -->
<g id="edge58_Node000028_Node000003" class="edge">
<title>Node28&#45;&gt;Node3</title>
<g id="a_edge58_Node000028_Node000003"><a xlink:title=" ">
<path fill="none" stroke="#63b8ff" d="M836,-391.59C836,-385.01 836,-375.96 836,-367.73"/>
<polygon fill="#63b8ff" stroke="#63b8ff" points="839.5,-367.81 836,-357.81 832.5,-367.81 839.5,-367.81"/>
</a>
</g>
</g>
<!-- Node29&#45;&gt;Node3 -->
<g id="edge60_Node000029_Node000003" class="edge">
<title>Node29&#45;&gt;Node3</title>
<g id="a_edge60_Node000029_Node000003"><a xlink:title=" ">
<path fill="none" stroke="#63b8ff" d="M1090,-391.53C1027.47,-380.57 926.2,-362.81 872.36,-353.38"/>
<polygon fill="#63b8ff" stroke="#63b8ff" points="873.26,-349.98 862.8,-351.7 872.05,-356.87 873.26,-349.98"/>
</a>
</g>
</g>
<!-- Node29&#45;&gt;Node24 -->
<g id="edge61_Node000029_Node000024" class="edge">
<title>Node29&#45;&gt;Node24</title>
<g id="a_edge61_Node000029_Node000024"><a xlink:title=" ">
<path fill="none" stroke="#63b8ff" d="M1151.1,-391.61C1157.2,-382.9 1165.55,-369.32 1169,-356 1177.47,-323.3 1174.07,-313.39 1169,-280 1167.74,-271.72 1165.25,-262.86 1162.71,-255.22"/>
<polygon fill="#63b8ff" stroke="#63b8ff" points="1166.04,-254.12 1159.37,-245.88 1159.45,-256.48 1166.04,-254.12"/>
</a>
</g>
</g>
<!-- Node30&#45;&gt;Node3 -->
<g id="edge64_Node000030_Node000003" class="edge">
<title>Node30&#45;&gt;Node3</title>
<g id="a_edge64_Node000030_Node000003"><a xlink:title=" ">
<path fill="none" stroke="#63b8ff" d="M1232.49,-392.65C1130.75,-380.94 949.46,-360.06 872.34,-351.18"/>
<polygon fill="#63b8ff" stroke="#63b8ff" points="873.15,-347.75 862.81,-350.09 872.35,-354.71 873.15,-347.75"/>
</a>
</g>
</g>
<!-- Node31 -->
<g id="Node000031" class="node">
<title>Node31</title>
<g id="a_Node000031"><a xlink:title=" ">
<polygon fill="#e0e0e0" stroke="#999999" points="1339.62,-356 1270.38,-356 1270.38,-336 1339.62,-336 1339.62,-356"/>
<text xml:space="preserve" text-anchor="middle" x="1305" y="-342.5" font-family="Helvetica,sans-Serif" font-size="10.00">dispatcher.h</text>
</a>
</g>
</g>
<!-- Node30&#45;&gt;Node31 -->
<g id="edge63_Node000030_Node000031" class="edge">
<title>Node30&#45;&gt;Node31</title>
<g id="a_edge63_Node000030_Node000031"><a xlink:title=" ">
<path fill="none" stroke="#63b8ff" d="M1305,-391.59C1305,-385.01 1305,-375.96 1305,-367.73"/>
<polygon fill="#63b8ff" stroke="#63b8ff" points="1308.5,-367.81 1305,-357.81 1301.5,-367.81 1308.5,-367.81"/>
</a>
</g>
</g>
<!-- Node32&#45;&gt;Node3 -->
<g id="edge66_Node000032_Node000003" class="edge">
<title>Node32&#45;&gt;Node3</title>
<g id="a_edge66_Node000032_Node000003"><a xlink:title=" ">
<path fill="none" stroke="#63b8ff" d="M671.66,-391.59C707.54,-381.86 763.32,-366.72 799.76,-356.83"/>
<polygon fill="#63b8ff" stroke="#63b8ff" points="800.67,-360.21 809.41,-354.22 798.84,-353.46 800.67,-360.21"/>
</a>
</g>
</g>
<!-- Node32&#45;&gt;Node24 -->
<g id="edge67_Node000032_Node000024" class="edge">
<title>Node32&#45;&gt;Node24</title>
<g id="a_edge67_Node000032_Node000024"><a xlink:title=" ">
<path fill="none" stroke="#63b8ff" d="M660.11,-391.55C691.92,-378.63 751.05,-354.89 802,-336 873.04,-309.67 890.24,-301.12 963,-280 1007.74,-267.02 1059.16,-255.12 1097.52,-246.83"/>
<polygon fill="#63b8ff" stroke="#63b8ff" points="1097.96,-250.31 1107,-244.79 1096.49,-243.47 1097.96,-250.31"/>
</a>
</g>
</g>
<!-- Node32&#45;&gt;Node25 -->
<g id="edge68_Node000032_Node000025" class="edge">
<title>Node32&#45;&gt;Node25</title>
<g id="a_edge68_Node000032_Node000025"><a xlink:title=" ">
<path fill="none" stroke="#63b8ff" d="M606.26,-391.52C552.49,-374.7 438.11,-337.8 344,-300 304.52,-284.14 260.13,-263.13 231.88,-249.35"/>
<polygon fill="#63b8ff" stroke="#63b8ff" points="233.77,-246.38 223.25,-245.11 230.69,-252.66 233.77,-246.38"/>
</a>
</g>
</g>
</g>
</svg>
