<?xml version="1.0" encoding="UTF-8" standalone="no"?>
<!DOCTYPE svg PUBLIC "-//W3C//DTD SVG 1.1//EN"
 "http://www.w3.org/Graphics/SVG/1.1/DTD/svg11.dtd">
<!-- Generated by graphviz version 12.2.1 (0)
 -->
<!-- Title: src/bot_library/restapi/RegistrationHandler.cpp Pages: 1 -->
<svg width="1270pt" height="152pt"
 viewBox="0.00 0.00 1270.25 152.00" xmlns="http://www.w3.org/2000/svg" xmlns:xlink="http://www.w3.org/1999/xlink">
<g id="graph0" class="graph" transform="scale(1 1) rotate(0) translate(4 148)">
<title>src/bot_library/restapi/RegistrationHandler.cpp</title>
<!-- Node1 -->
<g id="Node000001" class="node">
<title>Node1</title>
<g id="a_Node000001"><a xlink:title=" ">
<polygon fill="#999999" stroke="#666666" points="736.12,-144 612.12,-144 612.12,-112 736.12,-112 736.12,-144"/>
<text text-anchor="start" x="620.12" y="-130.5" font-family="Helvetica,sans-Serif" font-size="10.00">src/bot_library/restapi</text>
<text text-anchor="middle" x="674.12" y="-118.5" font-family="Helvetica,sans-Serif" font-size="10.00">/RegistrationHandler.cpp</text>
</a>
</g>
</g>
<!-- Node2 -->
<g id="Node000002" class="node">
<title>Node2</title>
<g id="a_Node000002"><a xlink:title=" ">
<polygon fill="#e0e0e0" stroke="#999999" points="108.25,-76 0,-76 0,-56 108.25,-56 108.25,-76"/>
<text text-anchor="middle" x="54.12" y="-62.5" font-family="Helvetica,sans-Serif" font-size="10.00">Poco/JSON/Object.h</text>
</a>
</g>
</g>
<!-- Node1&#45;&gt;Node2 -->
<g id="edge1_Node000001_Node000002" class="edge">
<title>Node1&#45;&gt;Node2</title>
<g id="a_edge1_Node000001_Node000002"><a xlink:title=" ">
<path fill="none" stroke="#63b8ff" d="M611.79,-122.33C510.76,-114.53 304.74,-97.68 120.03,-76.29"/>
<polygon fill="#63b8ff" stroke="#63b8ff" points="120.58,-72.83 110.24,-75.15 119.77,-79.78 120.58,-72.83"/>
</a>
</g>
</g>
<!-- Node3 -->
<g id="Node000003" class="node">
<title>Node3</title>
<g id="a_Node000003"><a xlink:title=" ">
<polygon fill="#e0e0e0" stroke="#999999" points="244.12,-76 126.12,-76 126.12,-56 244.12,-56 244.12,-76"/>
<text text-anchor="middle" x="185.12" y="-62.5" font-family="Helvetica,sans-Serif" font-size="10.00">Poco/Net/HTMLForm.h</text>
</a>
</g>
</g>
<!-- Node1&#45;&gt;Node3 -->
<g id="edge2_Node000001_Node000003" class="edge">
<title>Node1&#45;&gt;Node3</title>
<g id="a_edge2_Node000001_Node000003"><a xlink:title=" ">
<path fill="none" stroke="#63b8ff" d="M611.69,-119.65C531.71,-110.2 388.5,-93.1 255.64,-76.31"/>
<polygon fill="#63b8ff" stroke="#63b8ff" points="256.32,-72.87 245.96,-75.08 255.44,-79.81 256.32,-72.87"/>
</a>
</g>
</g>
<!-- Node4 -->
<g id="Node000004" class="node">
<title>Node4</title>
<g id="a_Node000004"><a xlink:title=" ">
<polygon fill="#e0e0e0" stroke="#999999" points="393.88,-76 262.38,-76 262.38,-56 393.88,-56 393.88,-76"/>
<text text-anchor="middle" x="328.12" y="-62.5" font-family="Helvetica,sans-Serif" font-size="10.00">Poco/Net/HTTPRequest.h</text>
</a>
</g>
</g>
<!-- Node1&#45;&gt;Node4 -->
<g id="edge3_Node000001_Node000004" class="edge">
<title>Node1&#45;&gt;Node4</title>
<g id="a_edge3_Node000001_Node000004"><a xlink:title=" ">
<path fill="none" stroke="#63b8ff" d="M611.87,-116.2C550.42,-105.55 456.81,-89.31 394.1,-78.44"/>
<polygon fill="#63b8ff" stroke="#63b8ff" points="394.71,-74.99 384.25,-76.73 393.51,-81.89 394.71,-74.99"/>
</a>
</g>
</g>
<!-- Node5 -->
<g id="Node000005" class="node">
<title>Node5</title>
<g id="a_Node000005"><a xlink:title=" ">
<polygon fill="#e0e0e0" stroke="#999999" points="572.12,-76 412.12,-76 412.12,-56 572.12,-56 572.12,-76"/>
<text text-anchor="middle" x="492.12" y="-62.5" font-family="Helvetica,sans-Serif" font-size="10.00">Poco/Net/HTTPServerRequest.h</text>
</a>
</g>
</g>
<!-- Node1&#45;&gt;Node5 -->
<g id="edge4_Node000001_Node000005" class="edge">
<title>Node1&#45;&gt;Node5</title>
<g id="a_edge4_Node000001_Node000005"><a xlink:title=" ">
<path fill="none" stroke="#63b8ff" d="M627.26,-111.55C597.59,-101.77 559.68,-89.27 531.57,-80"/>
<polygon fill="#63b8ff" stroke="#63b8ff" points="532.96,-76.78 522.37,-76.97 530.77,-83.43 532.96,-76.78"/>
</a>
</g>
</g>
<!-- Node6 -->
<g id="Node000006" class="node">
<title>Node6</title>
<g id="a_Node000006"><a xlink:title=" ">
<polygon fill="#e0e0e0" stroke="#999999" points="757.88,-76 590.38,-76 590.38,-56 757.88,-56 757.88,-76"/>
<text text-anchor="middle" x="674.12" y="-62.5" font-family="Helvetica,sans-Serif" font-size="10.00">Poco/Net/HTTPServerResponse.h</text>
</a>
</g>
</g>
<!-- Node1&#45;&gt;Node6 -->
<g id="edge5_Node000001_Node000006" class="edge">
<title>Node1&#45;&gt;Node6</title>
<g id="a_edge5_Node000001_Node000006"><a xlink:title=" ">
<path fill="none" stroke="#63b8ff" d="M674.12,-111.55C674.12,-104.34 674.12,-95.66 674.12,-87.88"/>
<polygon fill="#63b8ff" stroke="#63b8ff" points="677.63,-87.92 674.13,-77.92 670.63,-87.92 677.63,-87.92"/>
</a>
</g>
</g>
<!-- Node7 -->
<g id="Node000007" class="node">
<title>Node7</title>
<g id="a_Node000007"><a xlink:title=" ">
<polygon fill="#e0e0e0" stroke="#999999" points="886,-76 776.25,-76 776.25,-56 886,-56 886,-76"/>
<text text-anchor="middle" x="831.12" y="-62.5" font-family="Helvetica,sans-Serif" font-size="10.00">Poco/StreamCopier.h</text>
</a>
</g>
</g>
<!-- Node1&#45;&gt;Node7 -->
<g id="edge6_Node000001_Node000007" class="edge">
<title>Node1&#45;&gt;Node7</title>
<g id="a_edge6_Node000001_Node000007"><a xlink:title=" ">
<path fill="none" stroke="#63b8ff" d="M714.56,-111.55C739.77,-101.91 771.89,-89.64 796.03,-80.41"/>
<polygon fill="#63b8ff" stroke="#63b8ff" points="797,-83.79 805.09,-76.95 794.5,-77.25 797,-83.79"/>
</a>
</g>
</g>
<!-- Node8 -->
<g id="Node000008" class="node">
<title>Node8</title>
<g id="a_Node000008"><a xlink:href="RegistrationHandler_8hpp.html" target="_top" xlink:title=" ">
<polygon fill="white" stroke="#666666" points="1024.62,-76 903.62,-76 903.62,-56 1024.62,-56 1024.62,-76"/>
<text text-anchor="middle" x="964.12" y="-62.5" font-family="Helvetica,sans-Serif" font-size="10.00">RegistrationHandler.hpp</text>
</a>
</g>
</g>
<!-- Node1&#45;&gt;Node8 -->
<g id="edge7_Node000001_Node000008" class="edge">
<title>Node1&#45;&gt;Node8</title>
<g id="a_edge7_Node000001_Node000008"><a xlink:title=" ">
<path fill="none" stroke="#63b8ff" d="M736.34,-114.13C787.14,-103.62 858.32,-88.89 907.53,-78.71"/>
<polygon fill="#63b8ff" stroke="#63b8ff" points="908.05,-82.18 917.13,-76.72 906.63,-75.32 908.05,-82.18"/>
</a>
</g>
</g>
<!-- Node10 -->
<g id="Node000010" class="node">
<title>Node10</title>
<g id="a_Node000010"><a xlink:href="UserManager_8hpp.html" target="_top" xlink:title=" ">
<polygon fill="white" stroke="#666666" points="1135.75,-76 1042.5,-76 1042.5,-56 1135.75,-56 1135.75,-76"/>
<text text-anchor="middle" x="1089.12" y="-62.5" font-family="Helvetica,sans-Serif" font-size="10.00">UserManager.hpp</text>
</a>
</g>
</g>
<!-- Node1&#45;&gt;Node10 -->
<g id="edge9_Node000001_Node000010" class="edge">
<title>Node1&#45;&gt;Node10</title>
<g id="a_edge9_Node000001_Node000010"><a xlink:title=" ">
<path fill="none" stroke="#63b8ff" d="M736.62,-118.56C806.08,-109.09 921.9,-93.02 1030.83,-76.48"/>
<polygon fill="#63b8ff" stroke="#63b8ff" points="1031.18,-79.97 1040.53,-75 1030.12,-73.05 1031.18,-79.97"/>
</a>
</g>
</g>
<!-- Node13 -->
<g id="Node000013" class="node">
<title>Node13</title>
<g id="a_Node000013"><a xlink:title=" ">
<polygon fill="#e0e0e0" stroke="#999999" points="1262.25,-76 1154,-76 1154,-56 1262.25,-56 1262.25,-76"/>
<text text-anchor="middle" x="1208.12" y="-62.5" font-family="Helvetica,sans-Serif" font-size="10.00">Poco/JSON/Parser.h</text>
</a>
</g>
</g>
<!-- Node1&#45;&gt;Node13 -->
<g id="edge12_Node000001_Node000013" class="edge">
<title>Node1&#45;&gt;Node13</title>
<g id="a_edge12_Node000001_Node000013"><a xlink:title=" ">
<path fill="none" stroke="#63b8ff" d="M736.3,-120.95C824.29,-112.23 990.48,-95.22 1142.15,-76.34"/>
<polygon fill="#63b8ff" stroke="#63b8ff" points="1142.51,-79.82 1152,-75.11 1141.65,-72.88 1142.51,-79.82"/>
</a>
</g>
</g>
<!-- Node9 -->
<g id="Node000009" class="node">
<title>Node9</title>
<g id="a_Node000009"><a xlink:title=" ">
<polygon fill="#e0e0e0" stroke="#999999" points="1011.75,-20 846.5,-20 846.5,0 1011.75,0 1011.75,-20"/>
<text text-anchor="middle" x="929.12" y="-6.5" font-family="Helvetica,sans-Serif" font-size="10.00">Poco/Net/HTTPRequestHandler.h</text>
</a>
</g>
</g>
<!-- Node8&#45;&gt;Node9 -->
<g id="edge8_Node000008_Node000009" class="edge">
<title>Node8&#45;&gt;Node9</title>
<g id="a_edge8_Node000008_Node000009"><a xlink:title=" ">
<path fill="none" stroke="#63b8ff" d="M958.03,-55.59C953.41,-48.47 946.92,-38.45 941.26,-29.72"/>
<polygon fill="#63b8ff" stroke="#63b8ff" points="944.35,-28.06 935.97,-21.57 938.48,-31.86 944.35,-28.06"/>
</a>
</g>
</g>
<!-- Node11 -->
<g id="Node000011" class="node">
<title>Node11</title>
<g id="a_Node000011"><a xlink:title=" ">
<polygon fill="#e0e0e0" stroke="#999999" points="1148.5,-20 1029.75,-20 1029.75,0 1148.5,0 1148.5,-20"/>
<text text-anchor="middle" x="1089.12" y="-6.5" font-family="Helvetica,sans-Serif" font-size="10.00">Poco/SingletonHolder.h</text>
</a>
</g>
</g>
<!-- Node10&#45;&gt;Node11 -->
<g id="edge10_Node000010_Node000011" class="edge">
<title>Node10&#45;&gt;Node11</title>
<g id="a_edge10_Node000010_Node000011"><a xlink:title=" ">
<path fill="none" stroke="#63b8ff" d="M1089.12,-55.59C1089.12,-49.01 1089.12,-39.96 1089.12,-31.73"/>
<polygon fill="#63b8ff" stroke="#63b8ff" points="1092.63,-31.81 1089.13,-21.81 1085.63,-31.81 1092.63,-31.81"/>
</a>
</g>
</g>
<!-- Node12 -->
<g id="Node000012" class="node">
<title>Node12</title>
<g id="a_Node000012"><a xlink:title=" ">
<polygon fill="#e0e0e0" stroke="#999999" points="1206.12,-20 1166.12,-20 1166.12,0 1206.12,0 1206.12,-20"/>
<text text-anchor="middle" x="1186.12" y="-6.5" font-family="Helvetica,sans-Serif" font-size="10.00">string</text>
</a>
</g>
</g>
<!-- Node10&#45;&gt;Node12 -->
<g id="edge11_Node000010_Node000012" class="edge">
<title>Node10&#45;&gt;Node12</title>
<g id="a_edge11_Node000010_Node000012"><a xlink:title=" ">
<path fill="none" stroke="#63b8ff" d="M1106.02,-55.59C1120.67,-47.44 1142.15,-35.48 1159.17,-26"/>
<polygon fill="#63b8ff" stroke="#63b8ff" points="1160.74,-29.14 1167.77,-21.22 1157.33,-23.02 1160.74,-29.14"/>
</a>
</g>
</g>
</g>
</svg>
