<?xml version="1.0" encoding="UTF-8" standalone="no"?>
<!DOCTYPE svg PUBLIC "-//W3C//DTD SVG 1.1//EN"
 "http://www.w3.org/Graphics/SVG/1.1/DTD/svg11.dtd">
<!-- Generated by graphviz version 14.1.5 (0)
 -->
<!-- Title: src/bot_library/commands/reminder/ReminderCommand.cpp Pages: 1 -->
<svg width="1677pt" height="488pt"
 viewBox="0.00 0.00 1677.00 488.00" xmlns="http://www.w3.org/2000/svg" xmlns:xlink="http://www.w3.org/1999/xlink">
<g id="graph0" class="graph" transform="scale(1 1) rotate(0) translate(4 484)">
<title>src/bot_library/commands/reminder/ReminderCommand.cpp</title>
<!-- Node1 -->
<g id="Node000001" class="node">
<title>Node1</title>
<g id="a_Node000001"><a xlink:title=" ">
<polygon fill="#999999" stroke="#666666" points="1298.21,-480 1132.96,-480 1132.96,-448 1298.21,-448 1298.21,-480"/>
<text xml:space="preserve" text-anchor="start" x="1140.96" y="-466.5" font-family="Helvetica,sans-Serif" font-size="10.00">src/bot_library/commands</text>
<text xml:space="preserve" text-anchor="middle" x="1215.58" y="-454.5" font-family="Helvetica,sans-Serif" font-size="10.00">/reminder/ReminderCommand.cpp</text>
</a>
</g>
</g>
<!-- Node2 -->
<g id="Node000002" class="node">
<title>Node2</title>
<g id="a_Node000002"><a xlink:href="ReminderCommand_8hpp.html" target="_top" xlink:title=" ">
<polygon fill="white" stroke="#666666" points="687.46,-412 565.71,-412 565.71,-392 687.46,-392 687.46,-412"/>
<text xml:space="preserve" text-anchor="middle" x="626.58" y="-398.5" font-family="Helvetica,sans-Serif" font-size="10.00">ReminderCommand.hpp</text>
</a>
</g>
</g>
<!-- Node1&#45;&gt;Node2 -->
<g id="edge1_Node000001_Node000002" class="edge">
<title>Node1&#45;&gt;Node2</title>
<g id="a_edge1_Node000001_Node000002"><a xlink:title=" ">
<path fill="none" stroke="#63b8ff" d="M1132.75,-454.56C1017.08,-442.78 809.01,-421.58 699.13,-410.39"/>
<polygon fill="#63b8ff" stroke="#63b8ff" points="699.65,-406.92 689.34,-409.39 698.94,-413.89 699.65,-406.92"/>
</a>
</g>
</g>
<!-- Node3 -->
<g id="Node000003" class="node">
<title>Node3</title>
<g id="a_Node000003"><a xlink:title=" ">
<polygon fill="#e0e0e0" stroke="#999999" points="572.21,-356 502.96,-356 502.96,-336 572.21,-336 572.21,-356"/>
<text xml:space="preserve" text-anchor="middle" x="537.58" y="-342.5" font-family="Helvetica,sans-Serif" font-size="10.00">dispatcher.h</text>
</a>
</g>
</g>
<!-- Node1&#45;&gt;Node3 -->
<g id="edge58_Node000001_Node000003" class="edge">
<title>Node1&#45;&gt;Node3</title>
<g id="a_edge58_Node000001_Node000003"><a xlink:title=" ">
<path fill="none" stroke="#63b8ff" d="M1132.75,-461.78C965.66,-458.58 600.38,-447.55 556.58,-412 543.46,-401.35 539.08,-382.16 537.77,-367.39"/>
<polygon fill="#63b8ff" stroke="#63b8ff" points="541.29,-367.64 537.33,-357.81 534.29,-367.96 541.29,-367.64"/>
</a>
</g>
</g>
<!-- Node5 -->
<g id="Node000005" class="node">
<title>Node5</title>
<g id="a_Node000005"><a xlink:href="Core_8hpp.html" target="_top" xlink:title=" ">
<polygon fill="white" stroke="#666666" points="790.46,-300 734.71,-300 734.71,-280 790.46,-280 790.46,-300"/>
<text xml:space="preserve" text-anchor="middle" x="762.58" y="-286.5" font-family="Helvetica,sans-Serif" font-size="10.00">Core.hpp</text>
</a>
</g>
</g>
<!-- Node1&#45;&gt;Node5 -->
<g id="edge62_Node000001_Node000005" class="edge">
<title>Node1&#45;&gt;Node5</title>
<g id="a_edge62_Node000001_Node000005"><a xlink:title=" ">
<path fill="none" stroke="#63b8ff" d="M1174.98,-447.58C1087.26,-414.28 881.27,-336.06 798.22,-304.53"/>
<polygon fill="#63b8ff" stroke="#63b8ff" points="799.58,-301.3 788.99,-301.03 797.09,-307.85 799.58,-301.3"/>
</a>
</g>
</g>
<!-- Node23 -->
<g id="Node000023" class="node">
<title>Node23</title>
<g id="a_Node000023"><a xlink:title=" ">
<polygon fill="#e0e0e0" stroke="#999999" points="1069.96,-188 987.21,-188 987.21,-168 1069.96,-168 1069.96,-188"/>
<text xml:space="preserve" text-anchor="middle" x="1028.58" y="-174.5" font-family="Helvetica,sans-Serif" font-size="10.00">appcommand.h</text>
</a>
</g>
</g>
<!-- Node1&#45;&gt;Node23 -->
<g id="edge56_Node000001_Node000023" class="edge">
<title>Node1&#45;&gt;Node23</title>
<g id="a_edge56_Node000001_Node000023"><a xlink:title=" ">
<path fill="none" stroke="#63b8ff" d="M1203.29,-447.51C1187.63,-426.18 1162.58,-385.97 1162.58,-347 1162.58,-347 1162.58,-347 1162.58,-289 1162.58,-240.03 1108.46,-208.87 1069,-192.67"/>
<polygon fill="#63b8ff" stroke="#63b8ff" points="1070.32,-189.42 1059.73,-189.04 1067.77,-195.94 1070.32,-189.42"/>
</a>
</g>
</g>
<!-- Node29 -->
<g id="Node000029" class="node">
<title>Node29</title>
<g id="a_Node000029"><a xlink:title=" ">
<polygon fill="#e0e0e0" stroke="#999999" points="1240.83,-412 1190.33,-412 1190.33,-392 1240.83,-392 1240.83,-412"/>
<text xml:space="preserve" text-anchor="middle" x="1215.58" y="-398.5" font-family="Helvetica,sans-Serif" font-size="10.00">colors.h</text>
</a>
</g>
</g>
<!-- Node1&#45;&gt;Node29 -->
<g id="edge57_Node000001_Node000029" class="edge">
<title>Node1&#45;&gt;Node29</title>
<g id="a_edge57_Node000001_Node000029"><a xlink:title=" ">
<path fill="none" stroke="#63b8ff" d="M1215.58,-447.55C1215.58,-440.34 1215.58,-431.66 1215.58,-423.88"/>
<polygon fill="#63b8ff" stroke="#63b8ff" points="1219.08,-423.92 1215.58,-413.92 1212.08,-423.92 1219.08,-423.92"/>
</a>
</g>
</g>
<!-- Node30 -->
<g id="Node000030" class="node">
<title>Node30</title>
<g id="a_Node000030"><a xlink:title=" ">
<polygon fill="#e0e0e0" stroke="#999999" points="1322.58,-412 1258.58,-412 1258.58,-392 1322.58,-392 1322.58,-412"/>
<text xml:space="preserve" text-anchor="middle" x="1290.58" y="-398.5" font-family="Helvetica,sans-Serif" font-size="10.00">message.h</text>
</a>
</g>
</g>
<!-- Node1&#45;&gt;Node30 -->
<g id="edge59_Node000001_Node000030" class="edge">
<title>Node1&#45;&gt;Node30</title>
<g id="a_edge59_Node000001_Node000030"><a xlink:title=" ">
<path fill="none" stroke="#63b8ff" d="M1234.9,-447.55C1245.64,-438.95 1259.01,-428.26 1269.95,-419.5"/>
<polygon fill="#63b8ff" stroke="#63b8ff" points="1272.02,-422.33 1277.64,-413.35 1267.65,-416.87 1272.02,-422.33"/>
</a>
</g>
</g>
<!-- Node31 -->
<g id="Node000031" class="node">
<title>Node31</title>
<g id="a_Node000031"><a xlink:title=" ">
<polygon fill="#e0e0e0" stroke="#999999" points="1396.46,-412 1340.71,-412 1340.71,-392 1396.46,-392 1396.46,-412"/>
<text xml:space="preserve" text-anchor="middle" x="1368.58" y="-398.5" font-family="Helvetica,sans-Serif" font-size="10.00">queues.h</text>
</a>
</g>
</g>
<!-- Node1&#45;&gt;Node31 -->
<g id="edge60_Node000001_Node000031" class="edge">
<title>Node1&#45;&gt;Node31</title>
<g id="a_edge60_Node000001_Node000031"><a xlink:title=" ">
<path fill="none" stroke="#63b8ff" d="M1254.98,-447.55C1279.44,-437.96 1310.58,-425.75 1334.07,-416.54"/>
<polygon fill="#63b8ff" stroke="#63b8ff" points="1335.15,-419.87 1343.18,-412.96 1332.6,-413.35 1335.15,-419.87"/>
</a>
</g>
</g>
<!-- Node32 -->
<g id="Node000032" class="node">
<title>Node32</title>
<g id="a_Node000032"><a xlink:title=" ">
<polygon fill="#e0e0e0" stroke="#999999" points="1482.83,-412 1414.33,-412 1414.33,-392 1482.83,-392 1482.83,-412"/>
<text xml:space="preserve" text-anchor="middle" x="1448.58" y="-398.5" font-family="Helvetica,sans-Serif" font-size="10.00">snowflake.h</text>
</a>
</g>
</g>
<!-- Node1&#45;&gt;Node32 -->
<g id="edge61_Node000001_Node000032" class="edge">
<title>Node1&#45;&gt;Node32</title>
<g id="a_edge61_Node000001_Node000032"><a xlink:title=" ">
<path fill="none" stroke="#63b8ff" d="M1275.59,-447.55C1315.42,-437.29 1366.89,-424.04 1403.3,-414.66"/>
<polygon fill="#63b8ff" stroke="#63b8ff" points="1403.8,-418.15 1412.62,-412.26 1402.06,-411.37 1403.8,-418.15"/>
</a>
</g>
</g>
<!-- Node33 -->
<g id="Node000033" class="node">
<title>Node33</title>
<g id="a_Node000033"><a xlink:title=" ">
<polygon fill="#e0e0e0" stroke="#999999" points="1544.46,-412 1500.71,-412 1500.71,-392 1544.46,-392 1544.46,-412"/>
<text xml:space="preserve" text-anchor="middle" x="1522.58" y="-398.5" font-family="Helvetica,sans-Serif" font-size="10.00">format</text>
</a>
</g>
</g>
<!-- Node1&#45;&gt;Node33 -->
<g id="edge63_Node000001_Node000033" class="edge">
<title>Node1&#45;&gt;Node33</title>
<g id="a_edge63_Node000001_Node000033"><a xlink:title=" ">
<path fill="none" stroke="#63b8ff" d="M1298.46,-449.91C1350.71,-441.14 1419.78,-428.6 1489.17,-412.39"/>
<polygon fill="#63b8ff" stroke="#63b8ff" points="1489.9,-415.81 1498.83,-410.11 1488.29,-409 1489.9,-415.81"/>
</a>
</g>
</g>
<!-- Node2&#45;&gt;Node3 -->
<g id="edge2_Node000002_Node000003" class="edge">
<title>Node2&#45;&gt;Node3</title>
<g id="a_edge2_Node000002_Node000003"><a xlink:title=" ">
<path fill="none" stroke="#63b8ff" d="M611.08,-391.59C597.76,-383.51 578.31,-371.71 562.76,-362.27"/>
<polygon fill="#63b8ff" stroke="#63b8ff" points="564.87,-359.46 554.5,-357.26 561.23,-365.44 564.87,-359.46"/>
</a>
</g>
</g>
<!-- Node4 -->
<g id="Node000004" class="node">
<title>Node4</title>
<g id="a_Node000004"><a xlink:href="Bot_8hpp.html" target="_top" xlink:title=" ">
<polygon fill="white" stroke="#666666" points="640.46,-356 590.71,-356 590.71,-336 640.46,-336 640.46,-356"/>
<text xml:space="preserve" text-anchor="middle" x="615.58" y="-342.5" font-family="Helvetica,sans-Serif" font-size="10.00">Bot.hpp</text>
</a>
</g>
</g>
<!-- Node2&#45;&gt;Node4 -->
<g id="edge3_Node000002_Node000004" class="edge">
<title>Node2&#45;&gt;Node4</title>
<g id="a_edge3_Node000002_Node000004"><a xlink:title=" ">
<path fill="none" stroke="#63b8ff" d="M624.67,-391.59C623.31,-384.93 621.44,-375.75 619.75,-367.44"/>
<polygon fill="#63b8ff" stroke="#63b8ff" points="623.2,-366.88 617.78,-357.78 616.35,-368.28 623.2,-366.88"/>
</a>
</g>
</g>
<!-- Node4&#45;&gt;Node5 -->
<g id="edge4_Node000004_Node000005" class="edge">
<title>Node4&#45;&gt;Node5</title>
<g id="a_edge4_Node000004_Node000005"><a xlink:title=" ">
<path fill="none" stroke="#63b8ff" d="M640.85,-335.72C664.41,-327.06 699.81,-314.06 726.37,-304.3"/>
<polygon fill="#63b8ff" stroke="#63b8ff" points="727.55,-307.6 735.73,-300.86 725.14,-301.03 727.55,-307.6"/>
</a>
</g>
</g>
<!-- Node9 -->
<g id="Node000009" class="node">
<title>Node9</title>
<g id="a_Node000009"><a xlink:title=" ">
<polygon fill="#e0e0e0" stroke="#999999" points="1215.58,-132 1175.58,-132 1175.58,-112 1215.58,-112 1215.58,-132"/>
<text xml:space="preserve" text-anchor="middle" x="1195.58" y="-118.5" font-family="Helvetica,sans-Serif" font-size="10.00">string</text>
</a>
</g>
</g>
<!-- Node4&#45;&gt;Node9 -->
<g id="edge54_Node000004_Node000009" class="edge">
<title>Node4&#45;&gt;Node9</title>
<g id="a_edge54_Node000004_Node000009"><a xlink:title=" ">
<path fill="none" stroke="#63b8ff" d="M640.71,-345.66C719.15,-346.6 964.25,-341.12 1132.58,-244 1161.23,-227.47 1166.74,-217.55 1181.58,-188 1188.57,-174.09 1192.08,-156.79 1193.84,-143.54"/>
<polygon fill="#63b8ff" stroke="#63b8ff" points="1197.3,-144.13 1194.88,-133.82 1190.34,-143.39 1197.3,-144.13"/>
</a>
</g>
</g>
<!-- Node11 -->
<g id="Node000011" class="node">
<title>Node11</title>
<g id="a_Node000011"><a xlink:title=" ">
<polygon fill="#e0e0e0" stroke="#999999" points="1050.08,-132 1007.08,-132 1007.08,-112 1050.08,-112 1050.08,-132"/>
<text xml:space="preserve" text-anchor="middle" x="1028.58" y="-118.5" font-family="Helvetica,sans-Serif" font-size="10.00">vector</text>
</a>
</g>
</g>
<!-- Node4&#45;&gt;Node11 -->
<g id="edge55_Node000004_Node000011" class="edge">
<title>Node4&#45;&gt;Node11</title>
<g id="a_edge55_Node000004_Node000011"><a xlink:title=" ">
<path fill="none" stroke="#63b8ff" d="M590.43,-337.88C587.46,-337.18 584.47,-336.53 581.58,-336 431.26,-308.36 390.1,-326.52 239.58,-300 135.63,-281.68 -53.09,-305 14.58,-224 79.01,-146.89 827.64,-127.1 995.38,-123.62"/>
<polygon fill="#63b8ff" stroke="#63b8ff" points="995.2,-127.12 1005.13,-123.42 995.06,-120.13 995.2,-127.12"/>
</a>
</g>
</g>
<!-- Node18 -->
<g id="Node000018" class="node">
<title>Node18</title>
<g id="a_Node000018"><a xlink:href="IButtonCommand_8hpp.html" target="_top" xlink:title=" ">
<polygon fill="white" stroke="#666666" points="218.21,-244 106.96,-244 106.96,-224 218.21,-224 218.21,-244"/>
<text xml:space="preserve" text-anchor="middle" x="162.58" y="-230.5" font-family="Helvetica,sans-Serif" font-size="10.00">IButtonCommand.hpp</text>
</a>
</g>
</g>
<!-- Node4&#45;&gt;Node18 -->
<g id="edge44_Node000004_Node000018" class="edge">
<title>Node4&#45;&gt;Node18</title>
<g id="a_edge44_Node000004_Node000018"><a xlink:title=" ">
<path fill="none" stroke="#63b8ff" d="M590.36,-338.2C587.41,-337.44 584.43,-336.69 581.58,-336 509.49,-318.5 490.77,-317.13 418.58,-300 345.17,-282.58 260.36,-260.7 209.14,-247.29"/>
<polygon fill="#63b8ff" stroke="#63b8ff" points="210.14,-243.93 199.58,-244.78 208.36,-250.7 210.14,-243.93"/>
</a>
</g>
</g>
<!-- Node21 -->
<g id="Node000021" class="node">
<title>Node21</title>
<g id="a_Node000021"><a xlink:href="IFormCommand_8hpp.html" target="_top" xlink:title=" ">
<polygon fill="white" stroke="#666666" points="341.21,-244 235.96,-244 235.96,-224 341.21,-224 341.21,-244"/>
<text xml:space="preserve" text-anchor="middle" x="288.58" y="-230.5" font-family="Helvetica,sans-Serif" font-size="10.00">IFormCommand.hpp</text>
</a>
</g>
</g>
<!-- Node4&#45;&gt;Node21 -->
<g id="edge45_Node000004_Node000021" class="edge">
<title>Node4&#45;&gt;Node21</title>
<g id="a_edge45_Node000004_Node000021"><a xlink:title=" ">
<path fill="none" stroke="#63b8ff" d="M590.47,-336.55C533.66,-317.44 394.98,-270.79 327.18,-247.98"/>
<polygon fill="#63b8ff" stroke="#63b8ff" points="328.57,-244.76 317.98,-244.89 326.34,-251.39 328.57,-244.76"/>
</a>
</g>
</g>
<!-- Node22 -->
<g id="Node000022" class="node">
<title>Node22</title>
<g id="a_Node000022"><a xlink:href="IGlobalSlashCommand_8hpp.html" target="_top" xlink:title=" ">
<polygon fill="white" stroke="#666666" points="1096.21,-244 960.96,-244 960.96,-224 1096.21,-224 1096.21,-244"/>
<text xml:space="preserve" text-anchor="middle" x="1028.58" y="-230.5" font-family="Helvetica,sans-Serif" font-size="10.00">IGlobalSlashCommand.hpp</text>
</a>
</g>
</g>
<!-- Node4&#45;&gt;Node22 -->
<g id="edge46_Node000004_Node000022" class="edge">
<title>Node4&#45;&gt;Node22</title>
<g id="a_edge46_Node000004_Node000022"><a xlink:title=" ">
<path fill="none" stroke="#63b8ff" d="M640.96,-339.11C676.51,-330.77 743.15,-314.91 799.58,-300 864.78,-282.78 939.9,-261.1 985.81,-247.65"/>
<polygon fill="#63b8ff" stroke="#63b8ff" points="986.76,-251.02 995.37,-244.84 984.79,-244.3 986.76,-251.02"/>
</a>
</g>
</g>
<!-- Node24 -->
<g id="Node000024" class="node">
<title>Node24</title>
<g id="a_Node000024"><a xlink:href="IMemberCommand_8hpp.html" target="_top" xlink:title=" ">
<polygon fill="white" stroke="#666666" points="477.58,-244 359.58,-244 359.58,-224 477.58,-224 477.58,-244"/>
<text xml:space="preserve" text-anchor="middle" x="418.58" y="-230.5" font-family="Helvetica,sans-Serif" font-size="10.00">IMemberCommand.hpp</text>
</a>
</g>
</g>
<!-- Node4&#45;&gt;Node24 -->
<g id="edge47_Node000004_Node000024" class="edge">
<title>Node4&#45;&gt;Node24</title>
<g id="a_edge47_Node000004_Node000024"><a xlink:title=" ">
<path fill="none" stroke="#63b8ff" d="M598.79,-335.62C564.55,-316.5 486.45,-272.89 445.21,-249.87"/>
<polygon fill="#63b8ff" stroke="#63b8ff" points="447.1,-246.91 436.66,-245.09 443.68,-253.02 447.1,-246.91"/>
</a>
</g>
</g>
<!-- Node25 -->
<g id="Node000025" class="node">
<title>Node25</title>
<g id="a_Node000025"><a xlink:href="IMessageCommand_8hpp.html" target="_top" xlink:title=" ">
<polygon fill="white" stroke="#666666" points="617.83,-244 495.33,-244 495.33,-224 617.83,-224 617.83,-244"/>
<text xml:space="preserve" text-anchor="middle" x="556.58" y="-230.5" font-family="Helvetica,sans-Serif" font-size="10.00">IMessageCommand.hpp</text>
</a>
</g>
</g>
<!-- Node4&#45;&gt;Node25 -->
<g id="edge48_Node000004_Node000025" class="edge">
<title>Node4&#45;&gt;Node25</title>
<g id="a_edge48_Node000004_Node000025"><a xlink:title=" ">
<path fill="none" stroke="#63b8ff" d="M610.55,-335.62C600.93,-317.68 579.74,-278.17 566.96,-254.35"/>
<polygon fill="#63b8ff" stroke="#63b8ff" points="570.13,-252.85 562.32,-245.69 563.96,-256.16 570.13,-252.85"/>
</a>
</g>
</g>
<!-- Node26 -->
<g id="Node000026" class="node">
<title>Node26</title>
<g id="a_Node000026"><a xlink:href="IReactionCommand_8hpp.html" target="_top" xlink:title=" ">
<polygon fill="white" stroke="#666666" points="757.46,-244 635.71,-244 635.71,-224 757.46,-224 757.46,-244"/>
<text xml:space="preserve" text-anchor="middle" x="696.58" y="-230.5" font-family="Helvetica,sans-Serif" font-size="10.00">IReactionCommand.hpp</text>
</a>
</g>
</g>
<!-- Node4&#45;&gt;Node26 -->
<g id="edge49_Node000004_Node000026" class="edge">
<title>Node4&#45;&gt;Node26</title>
<g id="a_edge49_Node000004_Node000026"><a xlink:title=" ">
<path fill="none" stroke="#63b8ff" d="M616.39,-335.79C617.95,-322.41 622.4,-297.3 634.58,-280 643.14,-267.85 656.04,-257.74 667.85,-250.19"/>
<polygon fill="#63b8ff" stroke="#63b8ff" points="669.33,-253.39 676.11,-245.25 665.73,-247.38 669.33,-253.39"/>
</a>
</g>
</g>
<!-- Node27 -->
<g id="Node000027" class="node">
<title>Node27</title>
<g id="a_Node000027"><a xlink:href="IReady_8hpp.html" target="_top" xlink:title=" ">
<polygon fill="white" stroke="#666666" points="89.33,-244 23.83,-244 23.83,-224 89.33,-224 89.33,-244"/>
<text xml:space="preserve" text-anchor="middle" x="56.58" y="-230.5" font-family="Helvetica,sans-Serif" font-size="10.00">IReady.hpp</text>
</a>
</g>
</g>
<!-- Node4&#45;&gt;Node27 -->
<g id="edge50_Node000004_Node000027" class="edge">
<title>Node4&#45;&gt;Node27</title>
<g id="a_edge50_Node000004_Node000027"><a xlink:title=" ">
<path fill="none" stroke="#63b8ff" d="M590.41,-338C587.44,-337.27 584.45,-336.59 581.58,-336 473.77,-313.88 444.72,-320.46 336.58,-300 252.58,-284.11 155.62,-260.38 100.66,-246.42"/>
<polygon fill="#63b8ff" stroke="#63b8ff" points="101.61,-243.05 91.05,-243.96 99.88,-249.83 101.61,-243.05"/>
</a>
</g>
</g>
<!-- Node28 -->
<g id="Node000028" class="node">
<title>Node28</title>
<g id="a_Node000028"><a xlink:title=" ">
<polygon fill="#e0e0e0" stroke="#999999" points="695.21,-300 643.96,-300 643.96,-280 695.21,-280 695.21,-300"/>
<text xml:space="preserve" text-anchor="middle" x="669.58" y="-286.5" font-family="Helvetica,sans-Serif" font-size="10.00">memory</text>
</a>
</g>
</g>
<!-- Node4&#45;&gt;Node28 -->
<g id="edge53_Node000004_Node000028" class="edge">
<title>Node4&#45;&gt;Node28</title>
<g id="a_edge53_Node000004_Node000028"><a xlink:title=" ">
<path fill="none" stroke="#63b8ff" d="M624.99,-335.59C632.5,-328.08 643.23,-317.35 652.28,-308.3"/>
<polygon fill="#63b8ff" stroke="#63b8ff" points="654.62,-310.91 659.21,-301.37 649.67,-305.96 654.62,-310.91"/>
</a>
</g>
</g>
<!-- Node6 -->
<g id="Node000006" class="node">
<title>Node6</title>
<g id="a_Node000006"><a xlink:title=" ">
<polygon fill="#e0e0e0" stroke="#999999" points="833.96,-244 775.21,-244 775.21,-224 833.96,-224 833.96,-244"/>
<text xml:space="preserve" text-anchor="middle" x="804.58" y="-230.5" font-family="Helvetica,sans-Serif" font-size="10.00">dpp/dpp.h</text>
</a>
</g>
</g>
<!-- Node5&#45;&gt;Node6 -->
<g id="edge5_Node000005_Node000006" class="edge">
<title>Node5&#45;&gt;Node6</title>
<g id="a_edge5_Node000005_Node000006"><a xlink:title=" ">
<path fill="none" stroke="#63b8ff" d="M769.9,-279.59C775.56,-272.32 783.57,-262.02 790.47,-253.15"/>
<polygon fill="#63b8ff" stroke="#63b8ff" points="793.05,-255.54 796.42,-245.49 787.52,-251.24 793.05,-255.54"/>
</a>
</g>
</g>
<!-- Node7 -->
<g id="Node000007" class="node">
<title>Node7</title>
<g id="a_Node000007"><a xlink:title=" ">
<polygon fill="#e0e0e0" stroke="#999999" points="943.08,-244 852.08,-244 852.08,-224 943.08,-224 943.08,-244"/>
<text xml:space="preserve" text-anchor="middle" x="897.58" y="-230.5" font-family="Helvetica,sans-Serif" font-size="10.00">dpp/misc&#45;enum.h</text>
</a>
</g>
</g>
<!-- Node5&#45;&gt;Node7 -->
<g id="edge6_Node000005_Node000007" class="edge">
<title>Node5&#45;&gt;Node7</title>
<g id="a_edge6_Node000005_Node000007"><a xlink:title=" ">
<path fill="none" stroke="#63b8ff" d="M786.1,-279.59C807.45,-271.05 839.22,-258.35 863.38,-248.68"/>
<polygon fill="#63b8ff" stroke="#63b8ff" points="864.49,-252.01 872.48,-245.04 861.89,-245.51 864.49,-252.01"/>
</a>
</g>
</g>
<!-- Node8 -->
<g id="Node000008" class="node">
<title>Node8</title>
<g id="a_Node000008"><a xlink:href="Database_8hpp.html" target="_top" xlink:title=" ">
<polygon fill="white" stroke="#666666" points="1309.96,-244 1233.21,-244 1233.21,-224 1309.96,-224 1309.96,-244"/>
<text xml:space="preserve" text-anchor="middle" x="1271.58" y="-230.5" font-family="Helvetica,sans-Serif" font-size="10.00">Database.hpp</text>
</a>
</g>
</g>
<!-- Node5&#45;&gt;Node8 -->
<g id="edge7_Node000005_Node000008" class="edge">
<title>Node5&#45;&gt;Node8</title>
<g id="a_edge7_Node000005_Node000008"><a xlink:title=" ">
<path fill="none" stroke="#63b8ff" d="M790.67,-286.02C873.24,-277.26 1115.94,-251.51 1221.54,-240.31"/>
<polygon fill="#63b8ff" stroke="#63b8ff" points="1221.74,-243.81 1231.32,-239.27 1221.01,-236.85 1221.74,-243.81"/>
</a>
</g>
</g>
<!-- Node5&#45;&gt;Node9 -->
<g id="edge43_Node000005_Node000009" class="edge">
<title>Node5&#45;&gt;Node9</title>
<g id="a_edge43_Node000005_Node000009"><a xlink:title=" ">
<path fill="none" stroke="#63b8ff" d="M790.88,-288.09C863.1,-285.35 1052.3,-275.28 1105.58,-244 1146.08,-220.22 1174.01,-170.36 1187.11,-142.64"/>
<polygon fill="#63b8ff" stroke="#63b8ff" points="1190.25,-144.19 1191.18,-133.64 1183.87,-141.31 1190.25,-144.19"/>
</a>
</g>
</g>
<!-- Node5&#45;&gt;Node18 -->
<g id="edge23_Node000005_Node000018" class="edge">
<title>Node5&#45;&gt;Node18</title>
<g id="a_edge23_Node000005_Node000018"><a xlink:title=" ">
<path fill="none" stroke="#63b8ff" d="M734.32,-284.16C724.89,-282.66 714.3,-281.12 704.58,-280 496.55,-256.06 440.31,-266.47 229.54,-244.25"/>
<polygon fill="#63b8ff" stroke="#63b8ff" points="230.22,-240.81 219.91,-243.23 229.48,-247.77 230.22,-240.81"/>
</a>
</g>
</g>
<!-- Node5&#45;&gt;Node21 -->
<g id="edge26_Node000005_Node000021" class="edge">
<title>Node5&#45;&gt;Node21</title>
<g id="a_edge26_Node000005_Node000021"><a xlink:title=" ">
<path fill="none" stroke="#63b8ff" d="M734.31,-284.31C724.87,-282.82 714.29,-281.25 704.58,-280 551.25,-260.32 509.4,-263.22 352.65,-244.2"/>
<polygon fill="#63b8ff" stroke="#63b8ff" points="353.52,-240.78 343.17,-243.04 352.67,-247.73 353.52,-240.78"/>
</a>
</g>
</g>
<!-- Node5&#45;&gt;Node22 -->
<g id="edge29_Node000005_Node000022" class="edge">
<title>Node5&#45;&gt;Node22</title>
<g id="a_edge29_Node000005_Node000022"><a xlink:title=" ">
<path fill="none" stroke="#63b8ff" d="M790.55,-283.32C833.1,-274.68 915.04,-258.05 970.76,-246.74"/>
<polygon fill="#63b8ff" stroke="#63b8ff" points="971.3,-250.2 980.4,-244.78 969.9,-243.34 971.3,-250.2"/>
</a>
</g>
</g>
<!-- Node5&#45;&gt;Node24 -->
<g id="edge34_Node000005_Node000024" class="edge">
<title>Node5&#45;&gt;Node24</title>
<g id="a_edge34_Node000005_Node000024"><a xlink:title=" ">
<path fill="none" stroke="#63b8ff" d="M734.43,-284.58C681.32,-276.24 564.87,-257.96 489.17,-246.08"/>
<polygon fill="#63b8ff" stroke="#63b8ff" points="489.77,-242.63 479.35,-244.54 488.68,-249.55 489.77,-242.63"/>
</a>
</g>
</g>
<!-- Node5&#45;&gt;Node25 -->
<g id="edge37_Node000005_Node000025" class="edge">
<title>Node5&#45;&gt;Node25</title>
<g id="a_edge37_Node000005_Node000025"><a xlink:title=" ">
<path fill="none" stroke="#63b8ff" d="M734.37,-281.6C700.73,-272.79 644,-257.91 603.67,-247.34"/>
<polygon fill="#63b8ff" stroke="#63b8ff" points="604.79,-244.02 594.23,-244.87 603.01,-250.79 604.79,-244.02"/>
</a>
</g>
</g>
<!-- Node5&#45;&gt;Node26 -->
<g id="edge40_Node000005_Node000026" class="edge">
<title>Node5&#45;&gt;Node26</title>
<g id="a_edge40_Node000005_Node000026"><a xlink:title=" ">
<path fill="none" stroke="#63b8ff" d="M751.09,-279.59C741.62,-271.85 727.98,-260.69 716.71,-251.47"/>
<polygon fill="#63b8ff" stroke="#63b8ff" points="719.07,-248.88 709.12,-245.26 714.64,-254.3 719.07,-248.88"/>
</a>
</g>
</g>
<!-- Node8&#45;&gt;Node9 -->
<g id="edge8_Node000008_Node000009" class="edge">
<title>Node8&#45;&gt;Node9</title>
<g id="a_edge8_Node000008_Node000009"><a xlink:title=" ">
<path fill="none" stroke="#63b8ff" d="M1265.1,-223.62C1252.6,-205.52 1224.91,-165.45 1208.51,-141.7"/>
<polygon fill="#63b8ff" stroke="#63b8ff" points="1211.47,-139.84 1202.91,-133.6 1205.71,-143.82 1211.47,-139.84"/>
</a>
</g>
</g>
<!-- Node10 -->
<g id="Node000010" class="node">
<title>Node10</title>
<g id="a_Node000010"><a xlink:title=" ">
<polygon fill="#e0e0e0" stroke="#999999" points="1273.21,-132 1233.96,-132 1233.96,-112 1273.21,-112 1273.21,-132"/>
<text xml:space="preserve" text-anchor="middle" x="1253.58" y="-118.5" font-family="Helvetica,sans-Serif" font-size="10.00">utility</text>
</a>
</g>
</g>
<!-- Node8&#45;&gt;Node10 -->
<g id="edge9_Node000008_Node000010" class="edge">
<title>Node8&#45;&gt;Node10</title>
<g id="a_edge9_Node000008_Node000010"><a xlink:title=" ">
<path fill="none" stroke="#63b8ff" d="M1270.05,-223.62C1267.17,-206.01 1260.88,-167.59 1256.96,-143.65"/>
<polygon fill="#63b8ff" stroke="#63b8ff" points="1260.43,-143.15 1255.36,-133.85 1253.52,-144.28 1260.43,-143.15"/>
</a>
</g>
</g>
<!-- Node8&#45;&gt;Node11 -->
<g id="edge10_Node000008_Node000011" class="edge">
<title>Node8&#45;&gt;Node11</title>
<g id="a_edge10_Node000008_Node000011"><a xlink:title=" ">
<path fill="none" stroke="#63b8ff" d="M1250.87,-223.62C1208.09,-204.26 1109.83,-159.78 1059.51,-137"/>
<polygon fill="#63b8ff" stroke="#63b8ff" points="1061.18,-133.91 1050.63,-132.98 1058.29,-140.29 1061.18,-133.91"/>
</a>
</g>
</g>
<!-- Node12 -->
<g id="Node000012" class="node">
<title>Node12</title>
<g id="a_Node000012"><a xlink:href="DatabaseBackend_8hpp.html" target="_top" xlink:title=" ">
<polygon fill="white" stroke="#666666" points="1658.08,-76 1543.08,-76 1543.08,-56 1658.08,-56 1658.08,-76"/>
<text xml:space="preserve" text-anchor="middle" x="1600.58" y="-62.5" font-family="Helvetica,sans-Serif" font-size="10.00">DatabaseBackend.hpp</text>
</a>
</g>
</g>
<!-- Node8&#45;&gt;Node12 -->
<g id="edge11_Node000008_Node000012" class="edge">
<title>Node8&#45;&gt;Node12</title>
<g id="a_edge11_Node000008_Node000012"><a xlink:title=" ">
<path fill="none" stroke="#63b8ff" d="M1310.26,-229.06C1400.68,-218.96 1621.52,-188.86 1664.58,-132 1678.85,-113.17 1654.76,-94.22 1632.17,-81.68"/>
<polygon fill="#63b8ff" stroke="#63b8ff" points="1633.87,-78.61 1623.39,-77.09 1630.63,-84.82 1633.87,-78.61"/>
</a>
</g>
</g>
<!-- Node14 -->
<g id="Node000014" class="node">
<title>Node14</title>
<g id="a_Node000014"><a xlink:href="DatabaseExecutor_8hpp.html" target="_top" xlink:title=" ">
<polygon fill="white" stroke="#666666" points="1415.46,-188 1299.71,-188 1299.71,-168 1415.46,-168 1415.46,-188"/>
<text xml:space="preserve" text-anchor="middle" x="1357.58" y="-174.5" font-family="Helvetica,sans-Serif" font-size="10.00">DatabaseExecutor.hpp</text>
</a>
</g>
</g>
<!-- Node8&#45;&gt;Node14 -->
<g id="edge13_Node000008_Node000014" class="edge">
<title>Node8&#45;&gt;Node14</title>
<g id="a_edge13_Node000008_Node000014"><a xlink:title=" ">
<path fill="none" stroke="#63b8ff" d="M1286.56,-223.59C1299.31,-215.59 1317.88,-203.93 1332.83,-194.54"/>
<polygon fill="#63b8ff" stroke="#63b8ff" points="1334.6,-197.57 1341.2,-189.28 1330.87,-191.64 1334.6,-197.57"/>
</a>
</g>
</g>
<!-- Node17 -->
<g id="Node000017" class="node">
<title>Node17</title>
<g id="a_Node000017"><a xlink:href="RowDTOAdapter_8hpp.html" target="_top" xlink:title=" ">
<polygon fill="white" stroke="#666666" points="1655.46,-132 1545.71,-132 1545.71,-112 1655.46,-112 1655.46,-132"/>
<text xml:space="preserve" text-anchor="middle" x="1600.58" y="-118.5" font-family="Helvetica,sans-Serif" font-size="10.00">RowDTOAdapter.hpp</text>
</a>
</g>
</g>
<!-- Node8&#45;&gt;Node17 -->
<g id="edge22_Node000008_Node000017" class="edge">
<title>Node8&#45;&gt;Node17</title>
<g id="a_edge22_Node000008_Node000017"><a xlink:title=" ">
<path fill="none" stroke="#63b8ff" d="M1306.12,-223.56C1337.27,-214.88 1384.24,-201.37 1424.58,-188 1474.11,-171.59 1530.55,-150.27 1565.88,-136.61"/>
<polygon fill="#63b8ff" stroke="#63b8ff" points="1567.1,-139.89 1575.16,-133.01 1564.57,-133.36 1567.1,-139.89"/>
</a>
</g>
</g>
<!-- Node13 -->
<g id="Node000013" class="node">
<title>Node13</title>
<g id="a_Node000013"><a xlink:title=" ">
<polygon fill="#e0e0e0" stroke="#999999" points="1631.08,-20 1570.08,-20 1570.08,0 1631.08,0 1631.08,-20"/>
<text xml:space="preserve" text-anchor="middle" x="1600.58" y="-6.5" font-family="Helvetica,sans-Serif" font-size="10.00">pqxx/pqxx</text>
</a>
</g>
</g>
<!-- Node12&#45;&gt;Node13 -->
<g id="edge12_Node000012_Node000013" class="edge">
<title>Node12&#45;&gt;Node13</title>
<g id="a_edge12_Node000012_Node000013"><a xlink:title=" ">
<path fill="none" stroke="#63b8ff" d="M1600.58,-55.59C1600.58,-49.01 1600.58,-39.96 1600.58,-31.73"/>
<polygon fill="#63b8ff" stroke="#63b8ff" points="1604.08,-31.81 1600.58,-21.81 1597.08,-31.81 1604.08,-31.81"/>
</a>
</g>
</g>
<!-- Node14&#45;&gt;Node9 -->
<g id="edge15_Node000014_Node000009" class="edge">
<title>Node14&#45;&gt;Node9</title>
<g id="a_edge15_Node000014_Node000009"><a xlink:title=" ">
<path fill="none" stroke="#63b8ff" d="M1329.36,-167.59C1300.59,-158 1256.07,-143.16 1226.39,-133.27"/>
<polygon fill="#63b8ff" stroke="#63b8ff" points="1227.83,-130.06 1217.24,-130.22 1225.62,-136.7 1227.83,-130.06"/>
</a>
</g>
</g>
<!-- Node14&#45;&gt;Node10 -->
<g id="edge16_Node000014_Node000010" class="edge">
<title>Node14&#45;&gt;Node10</title>
<g id="a_edge16_Node000014_Node000010"><a xlink:title=" ">
<path fill="none" stroke="#63b8ff" d="M1339.47,-167.59C1323.61,-159.36 1300.3,-147.26 1281.97,-137.74"/>
<polygon fill="#63b8ff" stroke="#63b8ff" points="1283.67,-134.68 1273.18,-133.18 1280.45,-140.89 1283.67,-134.68"/>
</a>
</g>
</g>
<!-- Node14&#45;&gt;Node11 -->
<g id="edge17_Node000014_Node000011" class="edge">
<title>Node14&#45;&gt;Node11</title>
<g id="a_edge17_Node000014_Node000011"><a xlink:title=" ">
<path fill="none" stroke="#63b8ff" d="M1299.9,-167.53C1230.88,-156.2 1117.66,-137.62 1061.83,-128.46"/>
<polygon fill="#63b8ff" stroke="#63b8ff" points="1062.44,-125.01 1052.01,-126.84 1061.31,-131.92 1062.44,-125.01"/>
</a>
</g>
</g>
<!-- Node15 -->
<g id="Node000015" class="node">
<title>Node15</title>
<g id="a_Node000015"><a xlink:title=" ">
<polygon fill="#e0e0e0" stroke="#999999" points="1344.33,-132 1290.83,-132 1290.83,-112 1344.33,-112 1344.33,-132"/>
<text xml:space="preserve" text-anchor="middle" x="1317.58" y="-118.5" font-family="Helvetica,sans-Serif" font-size="10.00">iostream</text>
</a>
</g>
</g>
<!-- Node14&#45;&gt;Node15 -->
<g id="edge14_Node000014_Node000015" class="edge">
<title>Node14&#45;&gt;Node15</title>
<g id="a_edge14_Node000014_Node000015"><a xlink:title=" ">
<path fill="none" stroke="#63b8ff" d="M1350.62,-167.59C1345.28,-160.39 1337.76,-150.23 1331.24,-141.43"/>
<polygon fill="#63b8ff" stroke="#63b8ff" points="1334.14,-139.47 1325.37,-133.51 1328.51,-143.63 1334.14,-139.47"/>
</a>
</g>
</g>
<!-- Node16 -->
<g id="Node000016" class="node">
<title>Node16</title>
<g id="a_Node000016"><a xlink:href="IDatabaseConnectionProvider_8hpp.html" target="_top" xlink:title=" ">
<polygon fill="white" stroke="#666666" points="1527.21,-132 1361.96,-132 1361.96,-112 1527.21,-112 1527.21,-132"/>
<text xml:space="preserve" text-anchor="middle" x="1444.58" y="-118.5" font-family="Helvetica,sans-Serif" font-size="10.00">IDatabaseConnectionProvider.hpp</text>
</a>
</g>
</g>
<!-- Node14&#45;&gt;Node16 -->
<g id="edge18_Node000014_Node000016" class="edge">
<title>Node14&#45;&gt;Node16</title>
<g id="a_edge18_Node000014_Node000016"><a xlink:title=" ">
<path fill="none" stroke="#63b8ff" d="M1372.74,-167.59C1385.63,-159.59 1404.41,-147.93 1419.54,-138.54"/>
<polygon fill="#63b8ff" stroke="#63b8ff" points="1421.37,-141.53 1428.02,-133.28 1417.68,-135.58 1421.37,-141.53"/>
</a>
</g>
</g>
<!-- Node14&#45;&gt;Node17 -->
<g id="edge20_Node000014_Node000017" class="edge">
<title>Node14&#45;&gt;Node17</title>
<g id="a_edge20_Node000014_Node000017"><a xlink:title=" ">
<path fill="none" stroke="#63b8ff" d="M1400.19,-167.53C1441.01,-158.46 1502.76,-144.74 1546.92,-134.93"/>
<polygon fill="#63b8ff" stroke="#63b8ff" points="1547.55,-138.37 1556.55,-132.79 1546.03,-131.54 1547.55,-138.37"/>
</a>
</g>
</g>
<!-- Node16&#45;&gt;Node12 -->
<g id="edge19_Node000016_Node000012" class="edge">
<title>Node16&#45;&gt;Node12</title>
<g id="a_edge19_Node000016_Node000012"><a xlink:title=" ">
<path fill="none" stroke="#63b8ff" d="M1471.76,-111.59C1496.88,-102.9 1534.46,-89.89 1562.56,-80.16"/>
<polygon fill="#63b8ff" stroke="#63b8ff" points="1563.46,-83.55 1571.77,-76.97 1561.17,-76.94 1563.46,-83.55"/>
</a>
</g>
</g>
<!-- Node17&#45;&gt;Node12 -->
<g id="edge21_Node000017_Node000012" class="edge">
<title>Node17&#45;&gt;Node12</title>
<g id="a_edge21_Node000017_Node000012"><a xlink:title=" ">
<path fill="none" stroke="#63b8ff" d="M1600.58,-111.59C1600.58,-105.01 1600.58,-95.96 1600.58,-87.73"/>
<polygon fill="#63b8ff" stroke="#63b8ff" points="1604.08,-87.81 1600.58,-77.81 1597.08,-87.81 1604.08,-87.81"/>
</a>
</g>
</g>
<!-- Node19 -->
<g id="Node000019" class="node">
<title>Node19</title>
<g id="a_Node000019"><a xlink:title=" ">
<polygon fill="#e0e0e0" stroke="#999999" points="405.71,-188 333.46,-188 333.46,-168 405.71,-168 405.71,-188"/>
<text xml:space="preserve" text-anchor="middle" x="369.58" y="-174.5" font-family="Helvetica,sans-Serif" font-size="10.00">dpp/cluster.h</text>
</a>
</g>
</g>
<!-- Node18&#45;&gt;Node19 -->
<g id="edge24_Node000018_Node000019" class="edge">
<title>Node18&#45;&gt;Node19</title>
<g id="a_edge24_Node000018_Node000019"><a xlink:title=" ">
<path fill="none" stroke="#63b8ff" d="M198.64,-223.59C233.01,-214.63 284.95,-201.08 322.56,-191.27"/>
<polygon fill="#63b8ff" stroke="#63b8ff" points="322.99,-194.77 331.78,-188.86 321.22,-188 322.99,-194.77"/>
</a>
</g>
</g>
<!-- Node20 -->
<g id="Node000020" class="node">
<title>Node20</title>
<g id="a_Node000020"><a xlink:title=" ">
<polygon fill="#e0e0e0" stroke="#999999" points="511.58,-188 423.58,-188 423.58,-168 511.58,-168 511.58,-188"/>
<text xml:space="preserve" text-anchor="middle" x="467.58" y="-174.5" font-family="Helvetica,sans-Serif" font-size="10.00">dpp/dispatcher.h</text>
</a>
</g>
</g>
<!-- Node18&#45;&gt;Node20 -->
<g id="edge25_Node000018_Node000020" class="edge">
<title>Node18&#45;&gt;Node20</title>
<g id="a_edge25_Node000018_Node000020"><a xlink:title=" ">
<path fill="none" stroke="#63b8ff" d="M216.06,-223.53C271.04,-213.8 356.28,-198.71 412.02,-188.84"/>
<polygon fill="#63b8ff" stroke="#63b8ff" points="412.37,-192.33 421.61,-187.14 411.15,-185.44 412.37,-192.33"/>
</a>
</g>
</g>
<!-- Node21&#45;&gt;Node19 -->
<g id="edge27_Node000021_Node000019" class="edge">
<title>Node21&#45;&gt;Node19</title>
<g id="a_edge27_Node000021_Node000019"><a xlink:title=" ">
<path fill="none" stroke="#63b8ff" d="M302.69,-223.59C314.58,-215.67 331.85,-204.16 345.86,-194.82"/>
<polygon fill="#63b8ff" stroke="#63b8ff" points="347.73,-197.78 354.1,-189.32 343.84,-191.95 347.73,-197.78"/>
</a>
</g>
</g>
<!-- Node21&#45;&gt;Node20 -->
<g id="edge28_Node000021_Node000020" class="edge">
<title>Node21&#45;&gt;Node20</title>
<g id="a_edge28_Node000021_Node000020"><a xlink:title=" ">
<path fill="none" stroke="#63b8ff" d="M319.76,-223.59C348.97,-214.78 392.86,-201.54 425.23,-191.78"/>
<polygon fill="#63b8ff" stroke="#63b8ff" points="426.15,-195.16 434.71,-188.92 424.13,-188.45 426.15,-195.16"/>
</a>
</g>
</g>
<!-- Node22&#45;&gt;Node11 -->
<g id="edge33_Node000022_Node000011" class="edge">
<title>Node22&#45;&gt;Node11</title>
<g id="a_edge33_Node000022_Node000011"><a xlink:title=" ">
<path fill="none" stroke="#63b8ff" d="M1012.17,-223.52C1000.39,-215.68 985.42,-203.36 978.58,-188 970.3,-169.41 986.86,-151.31 1003.1,-138.96"/>
<polygon fill="#63b8ff" stroke="#63b8ff" points="1005.03,-141.87 1011.19,-133.26 1001,-136.15 1005.03,-141.87"/>
</a>
</g>
</g>
<!-- Node22&#45;&gt;Node19 -->
<g id="edge31_Node000022_Node000019" class="edge">
<title>Node22&#45;&gt;Node19</title>
<g id="a_edge31_Node000022_Node000019"><a xlink:title=" ">
<path fill="none" stroke="#63b8ff" d="M960.65,-224.78C957.93,-224.51 955.23,-224.25 952.58,-224 717.69,-202.25 654.12,-219.02 417.27,-188.18"/>
<polygon fill="#63b8ff" stroke="#63b8ff" points="417.74,-184.71 407.36,-186.88 416.82,-191.65 417.74,-184.71"/>
</a>
</g>
</g>
<!-- Node22&#45;&gt;Node20 -->
<g id="edge32_Node000022_Node000020" class="edge">
<title>Node22&#45;&gt;Node20</title>
<g id="a_edge32_Node000022_Node000020"><a xlink:title=" ">
<path fill="none" stroke="#63b8ff" d="M960.64,-224.87C957.92,-224.57 955.23,-224.28 952.58,-224 797.09,-207.58 613.21,-191.41 523.06,-183.69"/>
<polygon fill="#63b8ff" stroke="#63b8ff" points="523.53,-180.21 513.26,-182.85 522.93,-187.19 523.53,-180.21"/>
</a>
</g>
</g>
<!-- Node22&#45;&gt;Node23 -->
<g id="edge30_Node000022_Node000023" class="edge">
<title>Node22&#45;&gt;Node23</title>
<g id="a_edge30_Node000022_Node000023"><a xlink:title=" ">
<path fill="none" stroke="#63b8ff" d="M1028.58,-223.59C1028.58,-217.01 1028.58,-207.96 1028.58,-199.73"/>
<polygon fill="#63b8ff" stroke="#63b8ff" points="1032.08,-199.81 1028.58,-189.81 1025.08,-199.81 1032.08,-199.81"/>
</a>
</g>
</g>
<!-- Node24&#45;&gt;Node19 -->
<g id="edge35_Node000024_Node000019" class="edge">
<title>Node24&#45;&gt;Node19</title>
<g id="a_edge35_Node000024_Node000019"><a xlink:title=" ">
<path fill="none" stroke="#63b8ff" d="M410.05,-223.59C403.3,-216.16 393.7,-205.58 385.54,-196.58"/>
<polygon fill="#63b8ff" stroke="#63b8ff" points="388.35,-194.47 379.04,-189.42 383.17,-199.18 388.35,-194.47"/>
</a>
</g>
</g>
<!-- Node24&#45;&gt;Node20 -->
<g id="edge36_Node000024_Node000020" class="edge">
<title>Node24&#45;&gt;Node20</title>
<g id="a_edge36_Node000024_Node000020"><a xlink:title=" ">
<path fill="none" stroke="#63b8ff" d="M427.12,-223.59C433.86,-216.16 443.47,-205.58 451.63,-196.58"/>
<polygon fill="#63b8ff" stroke="#63b8ff" points="454,-199.18 458.13,-189.42 448.82,-194.47 454,-199.18"/>
</a>
</g>
</g>
<!-- Node25&#45;&gt;Node19 -->
<g id="edge38_Node000025_Node000019" class="edge">
<title>Node25&#45;&gt;Node19</title>
<g id="a_edge38_Node000025_Node000019"><a xlink:title=" ">
<path fill="none" stroke="#63b8ff" d="M524.01,-223.59C493.36,-214.74 447.24,-201.43 413.38,-191.65"/>
<polygon fill="#63b8ff" stroke="#63b8ff" points="414.44,-188.31 403.86,-188.9 412.5,-195.04 414.44,-188.31"/>
</a>
</g>
</g>
<!-- Node25&#45;&gt;Node20 -->
<g id="edge39_Node000025_Node000020" class="edge">
<title>Node25&#45;&gt;Node20</title>
<g id="a_edge39_Node000025_Node000020"><a xlink:title=" ">
<path fill="none" stroke="#63b8ff" d="M541.08,-223.59C527.76,-215.51 508.31,-203.71 492.76,-194.27"/>
<polygon fill="#63b8ff" stroke="#63b8ff" points="494.87,-191.46 484.5,-189.26 491.23,-197.44 494.87,-191.46"/>
</a>
</g>
</g>
<!-- Node26&#45;&gt;Node19 -->
<g id="edge41_Node000026_Node000019" class="edge">
<title>Node26&#45;&gt;Node19</title>
<g id="a_edge41_Node000026_Node000019"><a xlink:title=" ">
<path fill="none" stroke="#63b8ff" d="M635.41,-223.94C580.66,-215.68 497.95,-202.8 416.82,-188.35"/>
<polygon fill="#63b8ff" stroke="#63b8ff" points="417.86,-184.98 407.4,-186.66 416.62,-191.87 417.86,-184.98"/>
</a>
</g>
</g>
<!-- Node26&#45;&gt;Node20 -->
<g id="edge42_Node000026_Node000020" class="edge">
<title>Node26&#45;&gt;Node20</title>
<g id="a_edge42_Node000026_Node000020"><a xlink:title=" ">
<path fill="none" stroke="#63b8ff" d="M656.43,-223.53C618.13,-214.5 560.26,-200.85 518.69,-191.05"/>
<polygon fill="#63b8ff" stroke="#63b8ff" points="519.7,-187.69 509.16,-188.8 518.09,-194.51 519.7,-187.69"/>
</a>
</g>
</g>
<!-- Node27&#45;&gt;Node19 -->
<g id="edge51_Node000027_Node000019" class="edge">
<title>Node27&#45;&gt;Node19</title>
<g id="a_edge51_Node000027_Node000019"><a xlink:title=" ">
<path fill="none" stroke="#63b8ff" d="M89.67,-225.58C92.34,-225.03 95.01,-224.5 97.58,-224 175.75,-208.97 267.14,-194.47 321.59,-186.17"/>
<polygon fill="#63b8ff" stroke="#63b8ff" points="322.1,-189.63 331.46,-184.67 321.05,-182.71 322.1,-189.63"/>
</a>
</g>
</g>
<!-- Node27&#45;&gt;Node20 -->
<g id="edge52_Node000027_Node000020" class="edge">
<title>Node27&#45;&gt;Node20</title>
<g id="a_edge52_Node000027_Node000020"><a xlink:title=" ">
<path fill="none" stroke="#63b8ff" d="M89.64,-225.44C92.32,-224.92 95,-224.43 97.58,-224 233.91,-201.36 272.26,-207.54 412.22,-188.26"/>
<polygon fill="#63b8ff" stroke="#63b8ff" points="412.45,-191.76 421.87,-186.91 411.48,-184.83 412.45,-191.76"/>
</a>
</g>
</g>
</g>
</svg>
