<?xml version="1.0" encoding="UTF-8" standalone="no"?>
<!DOCTYPE svg PUBLIC "-//W3C//DTD SVG 1.1//EN"
 "http://www.w3.org/Graphics/SVG/1.1/DTD/svg11.dtd">
<!-- Generated by graphviz version 14.1.5 (0)
 -->
<!-- Title: src/bot_library/commands/portal/RemovePortalCommand.hpp Pages: 1 -->
<svg width="348pt" height="120pt"
 viewBox="0.00 0.00 348.00 120.00" xmlns="http://www.w3.org/2000/svg" xmlns:xlink="http://www.w3.org/1999/xlink">
<g id="graph0" class="graph" transform="scale(1 1) rotate(0) translate(4 116)">
<title>src/bot_library/commands/portal/RemovePortalCommand.hpp</title>
<!-- Node1 -->
<g id="Node000001" class="node">
<title>Node1</title>
<g id="a_Node000001"><a xlink:title=" ">
<polygon fill="#999999" stroke="#666666" points="261,-112 89,-112 89,-80 261,-80 261,-112"/>
<text xml:space="preserve" text-anchor="start" x="97" y="-98.5" font-family="Helvetica,sans-Serif" font-size="10.00">src/bot_library/commands</text>
<text xml:space="preserve" text-anchor="middle" x="175" y="-86.5" font-family="Helvetica,sans-Serif" font-size="10.00">/portal/RemovePortalCommand.hpp</text>
</a>
</g>
</g>
<!-- Node2 -->
<g id="Node000002" class="node">
<title>Node2</title>
<g id="a_Node000002"><a xlink:href="RemovePortalCommand_8cpp.html" target="_top" xlink:title=" ">
<polygon fill="white" stroke="#666666" points="172,-38 0,-38 0,-6 172,-6 172,-38"/>
<text xml:space="preserve" text-anchor="start" x="8" y="-24.5" font-family="Helvetica,sans-Serif" font-size="10.00">src/bot_library/commands</text>
<text xml:space="preserve" text-anchor="middle" x="86" y="-12.5" font-family="Helvetica,sans-Serif" font-size="10.00">/portal/RemovePortalCommand.cpp</text>
</a>
</g>
</g>
<!-- Node1&#45;&gt;Node2 -->
<g id="edge1_Node000001_Node000002" class="edge">
<title>Node1&#45;&gt;Node2</title>
<g id="a_edge1_Node000001_Node000002"><a xlink:title=" ">
<path fill="none" stroke="#63b8ff" d="M147.54,-72.78C133.8,-61.67 117.52,-48.5 105.15,-38.5"/>
<polygon fill="#63b8ff" stroke="#63b8ff" points="144.97,-75.21 154.95,-78.78 149.38,-69.77 144.97,-75.21"/>
</a>
</g>
</g>
<!-- Node3 -->
<g id="Node000003" class="node">
<title>Node3</title>
<g id="a_Node000003"><a xlink:href="RegisterPortalAndNotificationCommands_8cpp.html" target="_top" xlink:title=" ">
<polygon fill="white" stroke="#666666" points="339.75,-44 190.25,-44 190.25,0 339.75,0 339.75,-44"/>
<text xml:space="preserve" text-anchor="start" x="198.25" y="-30.5" font-family="Helvetica,sans-Serif" font-size="10.00">src/bot_library/commands</text>
<text xml:space="preserve" text-anchor="start" x="198.25" y="-18.5" font-family="Helvetica,sans-Serif" font-size="10.00">/registration/RegisterPortalAnd</text>
<text xml:space="preserve" text-anchor="middle" x="265" y="-6.5" font-family="Helvetica,sans-Serif" font-size="10.00">NotificationCommands.cpp</text>
</a>
</g>
</g>
<!-- Node1&#45;&gt;Node3 -->
<g id="edge2_Node000001_Node000003" class="edge">
<title>Node1&#45;&gt;Node3</title>
<g id="a_edge2_Node000001_Node000003"><a xlink:title=" ">
<path fill="none" stroke="#63b8ff" d="M202.76,-72.79C214.11,-63.71 227.2,-53.24 238.43,-44.26"/>
<polygon fill="#63b8ff" stroke="#63b8ff" points="200.89,-69.81 195.27,-78.79 205.26,-75.27 200.89,-69.81"/>
</a>
</g>
</g>
</g>
</svg>
