<?xml version="1.0" encoding="UTF-8" standalone="no"?>
<!DOCTYPE svg PUBLIC "-//W3C//DTD SVG 1.1//EN"
 "http://www.w3.org/Graphics/SVG/1.1/DTD/svg11.dtd">
<!-- Generated by graphviz version 16.1.0 (0)
 -->
<!-- Title: src/bot_library/commands/notification/RemoveNotificationCommand.hpp Pages: 1 -->
<svg width="244pt" height="164pt"
 viewBox="0.00 0.00 244.00 164.00" xmlns="http://www.w3.org/2000/svg" xmlns:xlink="http://www.w3.org/1999/xlink">
<g id="graph0" class="graph" transform="scale(1 1) rotate(0) translate(4 160)">
<title>src/bot_library/commands/notification/RemoveNotificationCommand.hpp</title>
<!-- Node1 -->
<g id="Node000001" class="node">
<title>Node1</title>
<g id="a_Node000001"><a xlink:title=" ">
<polygon fill="#999999" stroke="#666666" points="221.88,-156 66.38,-156 66.38,-112 221.88,-112 221.88,-156"/>
<text xml:space="preserve" text-anchor="start" x="74.38" y="-142.5" font-family="Helvetica,sans-Serif" font-size="10.00">src/bot_library/commands</text>
<text xml:space="preserve" text-anchor="start" x="74.38" y="-130.5" font-family="Helvetica,sans-Serif" font-size="10.00">/notification/RemoveNotification</text>
<text xml:space="preserve" text-anchor="middle" x="144.12" y="-118.5" font-family="Helvetica,sans-Serif" font-size="10.00">Command.hpp</text>
</a>
</g>
</g>
<!-- Node2 -->
<g id="Node000002" class="node">
<title>Node2</title>
<g id="a_Node000002"><a xlink:href="IGlobalSlashCommand_8hpp.html" target="_top" xlink:title=" ">
<polygon fill="white" stroke="#666666" points="152.75,-76 17.5,-76 17.5,-56 152.75,-56 152.75,-76"/>
<text xml:space="preserve" text-anchor="middle" x="85.12" y="-62.5" font-family="Helvetica,sans-Serif" font-size="10.00">IGlobalSlashCommand.hpp</text>
</a>
</g>
</g>
<!-- Node1&#45;&gt;Node2 -->
<g id="edge1_Node000001_Node000002" class="edge">
<title>Node1&#45;&gt;Node2</title>
<g id="a_edge1_Node000001_Node000002"><a xlink:title=" ">
<path fill="none" stroke="#63b8ff" d="M125.13,-111.75C117.4,-103.1 108.56,-93.21 101.15,-84.93"/>
<polygon fill="#63b8ff" stroke="#63b8ff" points="103.83,-82.67 94.55,-77.55 98.61,-87.34 103.83,-82.67"/>
</a>
</g>
</g>
<!-- Node5 -->
<g id="Node000005" class="node">
<title>Node5</title>
<g id="a_Node000005"><a xlink:title=" ">
<polygon fill="#e0e0e0" stroke="#999999" points="235.88,-76 170.38,-76 170.38,-56 235.88,-56 235.88,-76"/>
<text xml:space="preserve" text-anchor="middle" x="203.12" y="-62.5" font-family="Helvetica,sans-Serif" font-size="10.00">string_view</text>
</a>
</g>
</g>
<!-- Node1&#45;&gt;Node5 -->
<g id="edge4_Node000001_Node000005" class="edge">
<title>Node1&#45;&gt;Node5</title>
<g id="a_edge4_Node000001_Node000005"><a xlink:title=" ">
<path fill="none" stroke="#63b8ff" d="M163.12,-111.75C170.85,-103.1 179.69,-93.21 187.1,-84.93"/>
<polygon fill="#63b8ff" stroke="#63b8ff" points="189.64,-87.34 193.7,-77.55 184.42,-82.67 189.64,-87.34"/>
</a>
</g>
</g>
<!-- Node3 -->
<g id="Node000003" class="node">
<title>Node3</title>
<g id="a_Node000003"><a xlink:title=" ">
<polygon fill="#e0e0e0" stroke="#999999" points="72.25,-20 0,-20 0,0 72.25,0 72.25,-20"/>
<text xml:space="preserve" text-anchor="middle" x="36.12" y="-6.5" font-family="Helvetica,sans-Serif" font-size="10.00">dpp/cluster.h</text>
</a>
</g>
</g>
<!-- Node2&#45;&gt;Node3 -->
<g id="edge2_Node000002_Node000003" class="edge">
<title>Node2&#45;&gt;Node3</title>
<g id="a_edge2_Node000002_Node000003"><a xlink:title=" ">
<path fill="none" stroke="#63b8ff" d="M76.59,-55.59C69.84,-48.16 60.24,-37.58 52.08,-28.58"/>
<polygon fill="#63b8ff" stroke="#63b8ff" points="54.89,-26.47 45.58,-21.42 49.71,-31.18 54.89,-26.47"/>
</a>
</g>
</g>
<!-- Node4 -->
<g id="Node000004" class="node">
<title>Node4</title>
<g id="a_Node000004"><a xlink:title=" ">
<polygon fill="#e0e0e0" stroke="#999999" points="178.12,-20 90.12,-20 90.12,0 178.12,0 178.12,-20"/>
<text xml:space="preserve" text-anchor="middle" x="134.12" y="-6.5" font-family="Helvetica,sans-Serif" font-size="10.00">dpp/dispatcher.h</text>
</a>
</g>
</g>
<!-- Node2&#45;&gt;Node4 -->
<g id="edge3_Node000002_Node000004" class="edge">
<title>Node2&#45;&gt;Node4</title>
<g id="a_edge3_Node000002_Node000004"><a xlink:title=" ">
<path fill="none" stroke="#63b8ff" d="M93.66,-55.59C100.41,-48.16 110.01,-37.58 118.17,-28.58"/>
<polygon fill="#63b8ff" stroke="#63b8ff" points="120.54,-31.18 124.67,-21.42 115.36,-26.47 120.54,-31.18"/>
</a>
</g>
</g>
</g>
</svg>
