<?xml version="1.0" encoding="UTF-8" standalone="no"?>
<!DOCTYPE svg PUBLIC "-//W3C//DTD SVG 1.1//EN"
 "http://www.w3.org/Graphics/SVG/1.1/DTD/svg11.dtd">
<!-- Generated by graphviz version 13.0.1 (0)
 -->
<!-- Title: src/bot_library/commands/notification/RemoveNotificationCommand.cpp Pages: 1 -->
<svg width="1601pt" height="444pt"
 viewBox="0.00 0.00 1601.00 444.00" xmlns="http://www.w3.org/2000/svg" xmlns:xlink="http://www.w3.org/1999/xlink">
<g id="graph0" class="graph" transform="scale(1 1) rotate(0) translate(4 440)">
<title>src/bot_library/commands/notification/RemoveNotificationCommand.cpp</title>
<!-- Node1 -->
<g id="Node000001" class="node">
<title>Node1</title>
<g id="a_Node000001"><a xlink:title=" ">
<polygon fill="#999999" stroke="#666666" points="1244.5,-436 1089,-436 1089,-392 1244.5,-392 1244.5,-436"/>
<text xml:space="preserve" text-anchor="start" x="1097" y="-422.5" font-family="Helvetica,sans-Serif" font-size="10.00">src/bot_library/commands</text>
<text xml:space="preserve" text-anchor="start" x="1097" y="-410.5" font-family="Helvetica,sans-Serif" font-size="10.00">/notification/RemoveNotification</text>
<text xml:space="preserve" text-anchor="middle" x="1166.75" y="-398.5" font-family="Helvetica,sans-Serif" font-size="10.00">Command.cpp</text>
</a>
</g>
</g>
<!-- Node2 -->
<g id="Node000002" class="node">
<title>Node2</title>
<g id="a_Node000002"><a xlink:href="RemoveNotificationCommand_8hpp.html" target="_top" xlink:title=" ">
<polygon fill="white" stroke="#666666" points="743.75,-356 577.75,-356 577.75,-336 743.75,-336 743.75,-356"/>
<text xml:space="preserve" text-anchor="middle" x="660.75" y="-342.5" font-family="Helvetica,sans-Serif" font-size="10.00">RemoveNotificationCommand.hpp</text>
</a>
</g>
</g>
<!-- Node1&#45;&gt;Node2 -->
<g id="edge1_Node000001_Node000002" class="edge">
<title>Node1&#45;&gt;Node2</title>
<g id="a_edge1_Node000001_Node000002"><a xlink:title=" ">
<path fill="none" stroke="#63b8ff" d="M1088.52,-402.8C995.35,-390.64 840.35,-370.43 744.73,-357.95"/>
<polygon fill="#63b8ff" stroke="#63b8ff" points="745.24,-354.49 734.87,-356.67 744.33,-361.43 745.24,-354.49"/>
</a>
</g>
</g>
<!-- Node3 -->
<g id="Node000003" class="node">
<title>Node3</title>
<g id="a_Node000003"><a xlink:href="Bot_8hpp.html" target="_top" xlink:title=" ">
<polygon fill="white" stroke="#666666" points="685.62,-300 635.88,-300 635.88,-280 685.62,-280 685.62,-300"/>
<text xml:space="preserve" text-anchor="middle" x="660.75" y="-286.5" font-family="Helvetica,sans-Serif" font-size="10.00">Bot.hpp</text>
</a>
</g>
</g>
<!-- Node1&#45;&gt;Node3 -->
<g id="edge59_Node000001_Node000003" class="edge">
<title>Node1&#45;&gt;Node3</title>
<g id="a_edge59_Node000001_Node000003"><a xlink:title=" ">
<path fill="none" stroke="#63b8ff" d="M1088.52,-394.14C977.47,-367.36 778.57,-319.41 697.08,-299.76"/>
<polygon fill="#63b8ff" stroke="#63b8ff" points="697.95,-296.37 687.41,-297.43 696.31,-303.17 697.95,-296.37"/>
</a>
</g>
</g>
<!-- Node4 -->
<g id="Node000004" class="node">
<title>Node4</title>
<g id="a_Node000004"><a xlink:href="Core_8hpp.html" target="_top" xlink:title=" ">
<polygon fill="white" stroke="#666666" points="786.62,-244 730.88,-244 730.88,-224 786.62,-224 786.62,-244"/>
<text xml:space="preserve" text-anchor="middle" x="758.75" y="-230.5" font-family="Helvetica,sans-Serif" font-size="10.00">Core.hpp</text>
</a>
</g>
</g>
<!-- Node1&#45;&gt;Node4 -->
<g id="edge52_Node000001_Node000004" class="edge">
<title>Node1&#45;&gt;Node4</title>
<g id="a_edge52_Node000001_Node000004"><a xlink:title=" ">
<path fill="none" stroke="#63b8ff" d="M1117.54,-391.53C1032.84,-354.58 861.78,-279.95 790.78,-248.97"/>
<polygon fill="#63b8ff" stroke="#63b8ff" points="792.22,-245.78 781.65,-244.99 789.42,-252.2 792.22,-245.78"/>
</a>
</g>
</g>
<!-- Node19 -->
<g id="Node000019" class="node">
<title>Node19</title>
<g id="a_Node000019"><a xlink:title=" ">
<polygon fill="#e0e0e0" stroke="#999999" points="1054.12,-132 971.38,-132 971.38,-112 1054.12,-112 1054.12,-132"/>
<text xml:space="preserve" text-anchor="middle" x="1012.75" y="-118.5" font-family="Helvetica,sans-Serif" font-size="10.00">appcommand.h</text>
</a>
</g>
</g>
<!-- Node1&#45;&gt;Node19 -->
<g id="edge48_Node000001_Node000019" class="edge">
<title>Node1&#45;&gt;Node19</title>
<g id="a_edge48_Node000001_Node000019"><a xlink:title=" ">
<path fill="none" stroke="#63b8ff" d="M1159.37,-391.7C1151.68,-367.57 1140.75,-326.95 1140.75,-291 1140.75,-291 1140.75,-291 1140.75,-233 1140.75,-184.79 1087.88,-153.11 1050.1,-136.63"/>
<polygon fill="#63b8ff" stroke="#63b8ff" points="1051.87,-133.58 1041.29,-132.96 1049.18,-140.04 1051.87,-133.58"/>
</a>
</g>
</g>
<!-- Node25 -->
<g id="Node000025" class="node">
<title>Node25</title>
<g id="a_Node000025"><a xlink:title=" ">
<polygon fill="#e0e0e0" stroke="#999999" points="1219,-356 1168.5,-356 1168.5,-336 1219,-336 1219,-356"/>
<text xml:space="preserve" text-anchor="middle" x="1193.75" y="-342.5" font-family="Helvetica,sans-Serif" font-size="10.00">colors.h</text>
</a>
</g>
</g>
<!-- Node1&#45;&gt;Node25 -->
<g id="edge49_Node000001_Node000025" class="edge">
<title>Node1&#45;&gt;Node25</title>
<g id="a_edge49_Node000001_Node000025"><a xlink:title=" ">
<path fill="none" stroke="#63b8ff" d="M1175.44,-391.75C1178.71,-383.75 1182.42,-374.69 1185.64,-366.83"/>
<polygon fill="#63b8ff" stroke="#63b8ff" points="1188.78,-368.4 1189.32,-357.82 1182.3,-365.75 1188.78,-368.4"/>
</a>
</g>
</g>
<!-- Node26 -->
<g id="Node000026" class="node">
<title>Node26</title>
<g id="a_Node000026"><a xlink:title=" ">
<polygon fill="#e0e0e0" stroke="#999999" points="1300.75,-356 1236.75,-356 1236.75,-336 1300.75,-336 1300.75,-356"/>
<text xml:space="preserve" text-anchor="middle" x="1268.75" y="-342.5" font-family="Helvetica,sans-Serif" font-size="10.00">message.h</text>
</a>
</g>
</g>
<!-- Node1&#45;&gt;Node26 -->
<g id="edge50_Node000001_Node000026" class="edge">
<title>Node1&#45;&gt;Node26</title>
<g id="a_edge50_Node000001_Node000026"><a xlink:title=" ">
<path fill="none" stroke="#63b8ff" d="M1199.87,-391.57C1214.51,-382.09 1231.42,-371.16 1244.81,-362.49"/>
<polygon fill="#63b8ff" stroke="#63b8ff" points="1246.51,-365.56 1253.01,-357.19 1242.71,-359.68 1246.51,-365.56"/>
</a>
</g>
</g>
<!-- Node27 -->
<g id="Node000027" class="node">
<title>Node27</title>
<g id="a_Node000027"><a xlink:title=" ">
<polygon fill="#e0e0e0" stroke="#999999" points="1387,-356 1318.5,-356 1318.5,-336 1387,-336 1387,-356"/>
<text xml:space="preserve" text-anchor="middle" x="1352.75" y="-342.5" font-family="Helvetica,sans-Serif" font-size="10.00">snowflake.h</text>
</a>
</g>
</g>
<!-- Node1&#45;&gt;Node27 -->
<g id="edge51_Node000001_Node000027" class="edge">
<title>Node1&#45;&gt;Node27</title>
<g id="a_edge51_Node000001_Node000027"><a xlink:title=" ">
<path fill="none" stroke="#63b8ff" d="M1227.14,-391.57C1256.34,-381.21 1290.45,-369.11 1315.75,-360.13"/>
<polygon fill="#63b8ff" stroke="#63b8ff" points="1316.68,-363.51 1324.93,-356.87 1314.34,-356.92 1316.68,-363.51"/>
</a>
</g>
</g>
<!-- Node28 -->
<g id="Node000028" class="node">
<title>Node28</title>
<g id="a_Node000028"><a xlink:href="NotificationRepository_8hpp.html" target="_top" xlink:title=" ">
<polygon fill="white" stroke="#666666" points="1593.12,-244 1462.38,-244 1462.38,-224 1593.12,-224 1593.12,-244"/>
<text xml:space="preserve" text-anchor="middle" x="1527.75" y="-230.5" font-family="Helvetica,sans-Serif" font-size="10.00">NotificationRepository.hpp</text>
</a>
</g>
</g>
<!-- Node1&#45;&gt;Node28 -->
<g id="edge53_Node000001_Node000028" class="edge">
<title>Node1&#45;&gt;Node28</title>
<g id="a_edge53_Node000001_Node000028"><a xlink:title=" ">
<path fill="none" stroke="#63b8ff" d="M1245,-403.39C1290.96,-395.4 1349.01,-381.11 1395.75,-356 1445.51,-329.27 1491.13,-279.53 1513.42,-252.91"/>
<polygon fill="#63b8ff" stroke="#63b8ff" points="1515.94,-255.35 1519.58,-245.4 1510.53,-250.91 1515.94,-255.35"/>
</a>
</g>
</g>
<!-- Node2&#45;&gt;Node3 -->
<g id="edge2_Node000002_Node000003" class="edge">
<title>Node2&#45;&gt;Node3</title>
<g id="a_edge2_Node000002_Node000003"><a xlink:title=" ">
<path fill="none" stroke="#63b8ff" d="M660.75,-335.59C660.75,-329.01 660.75,-319.96 660.75,-311.73"/>
<polygon fill="#63b8ff" stroke="#63b8ff" points="664.25,-311.81 660.75,-301.81 657.25,-311.81 664.25,-311.81"/>
</a>
</g>
</g>
<!-- Node21 -->
<g id="Node000021" class="node">
<title>Node21</title>
<g id="a_Node000021"><a xlink:href="IMessageCommand_8hpp.html" target="_top" xlink:title=" ">
<polygon fill="white" stroke="#666666" points="206,-188 83.5,-188 83.5,-168 206,-168 206,-188"/>
<text xml:space="preserve" text-anchor="middle" x="144.75" y="-174.5" font-family="Helvetica,sans-Serif" font-size="10.00">IMessageCommand.hpp</text>
</a>
</g>
</g>
<!-- Node2&#45;&gt;Node21 -->
<g id="edge47_Node000002_Node000021" class="edge">
<title>Node2&#45;&gt;Node21</title>
<g id="a_edge47_Node000002_Node000021"><a xlink:title=" ">
<path fill="none" stroke="#63b8ff" d="M631.53,-335.6C544.18,-307.5 284.92,-224.09 184.82,-191.89"/>
<polygon fill="#63b8ff" stroke="#63b8ff" points="186,-188.59 175.41,-188.86 183.86,-195.26 186,-188.59"/>
</a>
</g>
</g>
<!-- Node3&#45;&gt;Node4 -->
<g id="edge3_Node000003_Node000004" class="edge">
<title>Node3&#45;&gt;Node4</title>
<g id="a_edge3_Node000003_Node000004"><a xlink:title=" ">
<path fill="none" stroke="#63b8ff" d="M677.82,-279.59C692.63,-271.44 714.32,-259.48 731.52,-250"/>
<polygon fill="#63b8ff" stroke="#63b8ff" points="733.15,-253.1 740.22,-245.21 729.77,-246.97 733.15,-253.1"/>
</a>
</g>
</g>
<!-- Node9 -->
<g id="Node000009" class="node">
<title>Node9</title>
<g id="a_Node000009"><a xlink:title=" ">
<polygon fill="#e0e0e0" stroke="#999999" points="1416.75,-132 1376.75,-132 1376.75,-112 1416.75,-112 1416.75,-132"/>
<text xml:space="preserve" text-anchor="middle" x="1396.75" y="-118.5" font-family="Helvetica,sans-Serif" font-size="10.00">string</text>
</a>
</g>
</g>
<!-- Node3&#45;&gt;Node9 -->
<g id="edge45_Node000003_Node000009" class="edge">
<title>Node3&#45;&gt;Node9</title>
<g id="a_edge45_Node000003_Node000009"><a xlink:title=" ">
<path fill="none" stroke="#63b8ff" d="M685.97,-287.49C809.95,-279.79 1350.65,-243.21 1398.75,-188 1409.3,-175.9 1407.51,-157.19 1403.84,-142.94"/>
<polygon fill="#63b8ff" stroke="#63b8ff" points="1407.28,-142.24 1400.99,-133.72 1400.59,-144.3 1407.28,-142.24"/>
</a>
</g>
</g>
<!-- Node10 -->
<g id="Node000010" class="node">
<title>Node10</title>
<g id="a_Node000010"><a xlink:title=" ">
<polygon fill="#e0e0e0" stroke="#999999" points="1121.25,-132 1078.25,-132 1078.25,-112 1121.25,-112 1121.25,-132"/>
<text xml:space="preserve" text-anchor="middle" x="1099.75" y="-118.5" font-family="Helvetica,sans-Serif" font-size="10.00">vector</text>
</a>
</g>
</g>
<!-- Node3&#45;&gt;Node10 -->
<g id="edge46_Node000003_Node000010" class="edge">
<title>Node3&#45;&gt;Node10</title>
<g id="a_edge46_Node000003_Node000010"><a xlink:title=" ">
<path fill="none" stroke="#63b8ff" d="M685.96,-286.4C768.15,-277.41 1026.29,-245.06 1083.75,-188 1095.36,-176.47 1099.04,-157.97 1100,-143.65"/>
<polygon fill="#63b8ff" stroke="#63b8ff" points="1103.49,-144.01 1100.24,-133.93 1096.49,-143.84 1103.49,-144.01"/>
</a>
</g>
</g>
<!-- Node14 -->
<g id="Node000014" class="node">
<title>Node14</title>
<g id="a_Node000014"><a xlink:href="IButtonCommand_8hpp.html" target="_top" xlink:title=" ">
<polygon fill="white" stroke="#666666" points="735.38,-188 624.12,-188 624.12,-168 735.38,-168 735.38,-188"/>
<text xml:space="preserve" text-anchor="middle" x="679.75" y="-174.5" font-family="Helvetica,sans-Serif" font-size="10.00">IButtonCommand.hpp</text>
</a>
</g>
</g>
<!-- Node3&#45;&gt;Node14 -->
<g id="edge35_Node000003_Node000014" class="edge">
<title>Node3&#45;&gt;Node14</title>
<g id="a_edge35_Node000003_Node000014"><a xlink:title=" ">
<path fill="none" stroke="#63b8ff" d="M662.37,-279.62C665.41,-262.01 672.05,-223.59 676.18,-199.65"/>
<polygon fill="#63b8ff" stroke="#63b8ff" points="679.62,-200.3 677.88,-189.85 672.73,-199.1 679.62,-200.3"/>
</a>
</g>
</g>
<!-- Node17 -->
<g id="Node000017" class="node">
<title>Node17</title>
<g id="a_Node000017"><a xlink:href="IFormCommand_8hpp.html" target="_top" xlink:title=" ">
<polygon fill="white" stroke="#666666" points="465.38,-188 360.12,-188 360.12,-168 465.38,-168 465.38,-188"/>
<text xml:space="preserve" text-anchor="middle" x="412.75" y="-174.5" font-family="Helvetica,sans-Serif" font-size="10.00">IFormCommand.hpp</text>
</a>
</g>
</g>
<!-- Node3&#45;&gt;Node17 -->
<g id="edge36_Node000003_Node000017" class="edge">
<title>Node3&#45;&gt;Node17</title>
<g id="a_edge36_Node000003_Node000017"><a xlink:title=" ">
<path fill="none" stroke="#63b8ff" d="M651.69,-279.57C637.61,-265.44 609.01,-238.85 579.75,-224 547.54,-207.65 508.71,-196.73 476.61,-189.74"/>
<polygon fill="#63b8ff" stroke="#63b8ff" points="477.55,-186.36 467.04,-187.74 476.11,-193.21 477.55,-186.36"/>
</a>
</g>
</g>
<!-- Node18 -->
<g id="Node000018" class="node">
<title>Node18</title>
<g id="a_Node000018"><a xlink:href="IGlobalSlashCommand_8hpp.html" target="_top" xlink:title=" ">
<polygon fill="white" stroke="#666666" points="1074.38,-188 939.12,-188 939.12,-168 1074.38,-168 1074.38,-188"/>
<text xml:space="preserve" text-anchor="middle" x="1006.75" y="-174.5" font-family="Helvetica,sans-Serif" font-size="10.00">IGlobalSlashCommand.hpp</text>
</a>
</g>
</g>
<!-- Node3&#45;&gt;Node18 -->
<g id="edge37_Node000003_Node000018" class="edge">
<title>Node3&#45;&gt;Node18</title>
<g id="a_edge37_Node000003_Node000018"><a xlink:title=" ">
<path fill="none" stroke="#63b8ff" d="M685.91,-281C745.18,-262.16 893.98,-214.85 966.19,-191.9"/>
<polygon fill="#63b8ff" stroke="#63b8ff" points="967.18,-195.25 975.65,-188.89 965.06,-188.58 967.18,-195.25"/>
</a>
</g>
</g>
<!-- Node20 -->
<g id="Node000020" class="node">
<title>Node20</title>
<g id="a_Node000020"><a xlink:href="IMemberCommand_8hpp.html" target="_top" xlink:title=" ">
<polygon fill="white" stroke="#666666" points="341.75,-188 223.75,-188 223.75,-168 341.75,-168 341.75,-188"/>
<text xml:space="preserve" text-anchor="middle" x="282.75" y="-174.5" font-family="Helvetica,sans-Serif" font-size="10.00">IMemberCommand.hpp</text>
</a>
</g>
</g>
<!-- Node3&#45;&gt;Node20 -->
<g id="edge38_Node000003_Node000020" class="edge">
<title>Node3&#45;&gt;Node20</title>
<g id="a_edge38_Node000003_Node000020"><a xlink:title=" ">
<path fill="none" stroke="#63b8ff" d="M643.26,-279.53C626.78,-270.55 601.45,-256.6 579.75,-244 564.92,-235.39 562.82,-229.99 546.75,-224 528.86,-217.33 425.3,-200.7 353.33,-189.63"/>
<polygon fill="#63b8ff" stroke="#63b8ff" points="353.98,-186.19 343.56,-188.14 352.92,-193.11 353.98,-186.19"/>
</a>
</g>
</g>
<!-- Node3&#45;&gt;Node21 -->
<g id="edge39_Node000003_Node000021" class="edge">
<title>Node3&#45;&gt;Node21</title>
<g id="a_edge39_Node000003_Node000021"><a xlink:title=" ">
<path fill="none" stroke="#63b8ff" d="M635.51,-283.62C556.27,-266.73 311.11,-214.46 200.22,-190.83"/>
<polygon fill="#63b8ff" stroke="#63b8ff" points="200.96,-187.4 190.45,-188.74 199.5,-194.25 200.96,-187.4"/>
</a>
</g>
</g>
<!-- Node22 -->
<g id="Node000022" class="node">
<title>Node22</title>
<g id="a_Node000022"><a xlink:href="IReactionCommand_8hpp.html" target="_top" xlink:title=" ">
<polygon fill="white" stroke="#666666" points="605.62,-188 483.88,-188 483.88,-168 605.62,-168 605.62,-188"/>
<text xml:space="preserve" text-anchor="middle" x="544.75" y="-174.5" font-family="Helvetica,sans-Serif" font-size="10.00">IReactionCommand.hpp</text>
</a>
</g>
</g>
<!-- Node3&#45;&gt;Node22 -->
<g id="edge40_Node000003_Node000022" class="edge">
<title>Node3&#45;&gt;Node22</title>
<g id="a_edge40_Node000003_Node000022"><a xlink:title=" ">
<path fill="none" stroke="#63b8ff" d="M656.26,-279.7C649.4,-266.2 635.25,-240.94 617.75,-224 605.31,-211.95 589.1,-201.56 575.11,-193.81"/>
<polygon fill="#63b8ff" stroke="#63b8ff" points="576.76,-190.72 566.29,-189.12 573.48,-196.9 576.76,-190.72"/>
</a>
</g>
</g>
<!-- Node23 -->
<g id="Node000023" class="node">
<title>Node23</title>
<g id="a_Node000023"><a xlink:href="IReady_8hpp.html" target="_top" xlink:title=" ">
<polygon fill="white" stroke="#666666" points="65.5,-188 0,-188 0,-168 65.5,-168 65.5,-188"/>
<text xml:space="preserve" text-anchor="middle" x="32.75" y="-174.5" font-family="Helvetica,sans-Serif" font-size="10.00">IReady.hpp</text>
</a>
</g>
</g>
<!-- Node3&#45;&gt;Node23 -->
<g id="edge41_Node000003_Node000023" class="edge">
<title>Node3&#45;&gt;Node23</title>
<g id="a_edge41_Node000003_Node000023"><a xlink:title=" ">
<path fill="none" stroke="#63b8ff" d="M635.52,-285.78C582.85,-278.96 457.37,-262.17 352.75,-244 232.09,-223.05 199.95,-214.16 76.76,-188.41"/>
<polygon fill="#63b8ff" stroke="#63b8ff" points="77.74,-185.04 67.24,-186.42 76.31,-191.89 77.74,-185.04"/>
</a>
</g>
</g>
<!-- Node24 -->
<g id="Node000024" class="node">
<title>Node24</title>
<g id="a_Node000024"><a xlink:title=" ">
<polygon fill="#e0e0e0" stroke="#999999" points="537.38,-244 486.12,-244 486.12,-224 537.38,-224 537.38,-244"/>
<text xml:space="preserve" text-anchor="middle" x="511.75" y="-230.5" font-family="Helvetica,sans-Serif" font-size="10.00">memory</text>
</a>
</g>
</g>
<!-- Node3&#45;&gt;Node24 -->
<g id="edge44_Node000003_Node000024" class="edge">
<title>Node3&#45;&gt;Node24</title>
<g id="a_edge44_Node000003_Node000024"><a xlink:title=" ">
<path fill="none" stroke="#63b8ff" d="M635.47,-279.84C611.54,-271.17 575.33,-258.04 548.26,-248.23"/>
<polygon fill="#63b8ff" stroke="#63b8ff" points="549.67,-245.02 539.07,-244.9 547.28,-251.6 549.67,-245.02"/>
</a>
</g>
</g>
<!-- Node5 -->
<g id="Node000005" class="node">
<title>Node5</title>
<g id="a_Node000005"><a xlink:title=" ">
<polygon fill="#e0e0e0" stroke="#999999" points="812.12,-188 753.38,-188 753.38,-168 812.12,-168 812.12,-188"/>
<text xml:space="preserve" text-anchor="middle" x="782.75" y="-174.5" font-family="Helvetica,sans-Serif" font-size="10.00">dpp/dpp.h</text>
</a>
</g>
</g>
<!-- Node4&#45;&gt;Node5 -->
<g id="edge4_Node000004_Node000005" class="edge">
<title>Node4&#45;&gt;Node5</title>
<g id="a_edge4_Node000004_Node000005"><a xlink:title=" ">
<path fill="none" stroke="#63b8ff" d="M762.93,-223.59C765.99,-216.7 770.26,-207.1 774.05,-198.57"/>
<polygon fill="#63b8ff" stroke="#63b8ff" points="777.14,-200.24 778,-189.68 770.74,-197.4 777.14,-200.24"/>
</a>
</g>
</g>
<!-- Node6 -->
<g id="Node000006" class="node">
<title>Node6</title>
<g id="a_Node000006"><a xlink:title=" ">
<polygon fill="#e0e0e0" stroke="#999999" points="921.25,-188 830.25,-188 830.25,-168 921.25,-168 921.25,-188"/>
<text xml:space="preserve" text-anchor="middle" x="875.75" y="-174.5" font-family="Helvetica,sans-Serif" font-size="10.00">dpp/misc&#45;enum.h</text>
</a>
</g>
</g>
<!-- Node4&#45;&gt;Node6 -->
<g id="edge5_Node000004_Node000006" class="edge">
<title>Node4&#45;&gt;Node6</title>
<g id="a_edge5_Node000004_Node000006"><a xlink:title=" ">
<path fill="none" stroke="#63b8ff" d="M779.13,-223.59C797.31,-215.21 824.18,-202.8 844.97,-193.21"/>
<polygon fill="#63b8ff" stroke="#63b8ff" points="846.22,-196.48 853.84,-189.11 843.29,-190.13 846.22,-196.48"/>
</a>
</g>
</g>
<!-- Node7 -->
<g id="Node000007" class="node">
<title>Node7</title>
<g id="a_Node000007"><a xlink:href="Database_8hpp.html" target="_top" xlink:title=" ">
<polygon fill="white" stroke="#666666" points="1245.12,-188 1168.38,-188 1168.38,-168 1245.12,-168 1245.12,-188"/>
<text xml:space="preserve" text-anchor="middle" x="1206.75" y="-174.5" font-family="Helvetica,sans-Serif" font-size="10.00">Database.hpp</text>
</a>
</g>
</g>
<!-- Node4&#45;&gt;Node7 -->
<g id="edge6_Node000004_Node000007" class="edge">
<title>Node4&#45;&gt;Node7</title>
<g id="a_edge6_Node000004_Node000007"><a xlink:title=" ">
<path fill="none" stroke="#63b8ff" d="M787.11,-229.58C861.43,-220.62 1062.57,-196.38 1156.79,-185.02"/>
<polygon fill="#63b8ff" stroke="#63b8ff" points="1156.99,-188.52 1166.5,-183.85 1156.15,-181.57 1156.99,-188.52"/>
</a>
</g>
</g>
<!-- Node4&#45;&gt;Node9 -->
<g id="edge34_Node000004_Node000009" class="edge">
<title>Node4&#45;&gt;Node9</title>
<g id="a_edge34_Node000004_Node000009"><a xlink:title=" ">
<path fill="none" stroke="#63b8ff" d="M786.92,-232.81C901.84,-231.79 1331.34,-225.49 1377.75,-188 1390.9,-177.38 1395.27,-158.19 1396.58,-143.41"/>
<polygon fill="#63b8ff" stroke="#63b8ff" points="1400.06,-143.97 1397.01,-133.82 1393.06,-143.65 1400.06,-143.97"/>
</a>
</g>
</g>
<!-- Node4&#45;&gt;Node14 -->
<g id="edge14_Node000004_Node000014" class="edge">
<title>Node4&#45;&gt;Node14</title>
<g id="a_edge14_Node000004_Node000014"><a xlink:title=" ">
<path fill="none" stroke="#63b8ff" d="M744.99,-223.59C733.39,-215.67 716.55,-204.16 702.89,-194.82"/>
<polygon fill="#63b8ff" stroke="#63b8ff" points="705.1,-192.09 694.87,-189.33 701.15,-197.87 705.1,-192.09"/>
</a>
</g>
</g>
<!-- Node4&#45;&gt;Node17 -->
<g id="edge17_Node000004_Node000017" class="edge">
<title>Node4&#45;&gt;Node17</title>
<g id="a_edge17_Node000004_Node000017"><a xlink:title=" ">
<path fill="none" stroke="#63b8ff" d="M730.44,-228.58C675.4,-219.99 552.76,-200.85 476.97,-189.02"/>
<polygon fill="#63b8ff" stroke="#63b8ff" points="477.61,-185.58 467.19,-187.5 476.53,-192.5 477.61,-185.58"/>
</a>
</g>
</g>
<!-- Node4&#45;&gt;Node18 -->
<g id="edge20_Node000004_Node000018" class="edge">
<title>Node4&#45;&gt;Node18</title>
<g id="a_edge20_Node000004_Node000018"><a xlink:title=" ">
<path fill="none" stroke="#63b8ff" d="M786.72,-226.91C826.76,-218.19 901.22,-201.98 952.35,-190.85"/>
<polygon fill="#63b8ff" stroke="#63b8ff" points="953.02,-194.28 962.04,-188.73 951.53,-187.44 953.02,-194.28"/>
</a>
</g>
</g>
<!-- Node4&#45;&gt;Node20 -->
<g id="edge25_Node000004_Node000020" class="edge">
<title>Node4&#45;&gt;Node20</title>
<g id="a_edge25_Node000004_Node000020"><a xlink:title=" ">
<path fill="none" stroke="#63b8ff" d="M730.53,-230.1C665.84,-223.41 501.58,-206.16 353.19,-188.27"/>
<polygon fill="#63b8ff" stroke="#63b8ff" points="353.93,-184.84 343.58,-187.11 353.09,-191.79 353.93,-184.84"/>
</a>
</g>
</g>
<!-- Node4&#45;&gt;Node21 -->
<g id="edge28_Node000004_Node000021" class="edge">
<title>Node4&#45;&gt;Node21</title>
<g id="a_edge28_Node000004_Node000021"><a xlink:title=" ">
<path fill="none" stroke="#63b8ff" d="M730.39,-231.11C651.12,-225.73 420.26,-209.4 217.36,-188.23"/>
<polygon fill="#63b8ff" stroke="#63b8ff" points="218.01,-184.78 207.7,-187.22 217.28,-191.74 218.01,-184.78"/>
</a>
</g>
</g>
<!-- Node4&#45;&gt;Node22 -->
<g id="edge31_Node000004_Node000022" class="edge">
<title>Node4&#45;&gt;Node22</title>
<g id="a_edge31_Node000004_Node000022"><a xlink:title=" ">
<path fill="none" stroke="#63b8ff" d="M730.77,-225.94C695.83,-217.12 635.48,-201.89 593.01,-191.18"/>
<polygon fill="#63b8ff" stroke="#63b8ff" points="594.11,-187.84 583.55,-188.79 592.39,-194.63 594.11,-187.84"/>
</a>
</g>
</g>
<!-- Node8 -->
<g id="Node000008" class="node">
<title>Node8</title>
<g id="a_Node000008"><a xlink:title=" ">
<polygon fill="#e0e0e0" stroke="#999999" points="1192.5,-132 1139,-132 1139,-112 1192.5,-112 1192.5,-132"/>
<text xml:space="preserve" text-anchor="middle" x="1165.75" y="-118.5" font-family="Helvetica,sans-Serif" font-size="10.00">iostream</text>
</a>
</g>
</g>
<!-- Node7&#45;&gt;Node8 -->
<g id="edge7_Node000007_Node000008" class="edge">
<title>Node7&#45;&gt;Node8</title>
<g id="a_edge7_Node000007_Node000008"><a xlink:title=" ">
<path fill="none" stroke="#63b8ff" d="M1199.61,-167.59C1194.14,-160.39 1186.43,-150.23 1179.74,-141.43"/>
<polygon fill="#63b8ff" stroke="#63b8ff" points="1182.56,-139.35 1173.73,-133.5 1176.98,-143.58 1182.56,-139.35"/>
</a>
</g>
</g>
<!-- Node7&#45;&gt;Node9 -->
<g id="edge8_Node000007_Node000009" class="edge">
<title>Node7&#45;&gt;Node9</title>
<g id="a_edge8_Node000007_Node000009"><a xlink:title=" ">
<path fill="none" stroke="#63b8ff" d="M1241.69,-167.54C1272.06,-159.25 1317.5,-146.69 1365.55,-132.59"/>
<polygon fill="#63b8ff" stroke="#63b8ff" points="1366.44,-135.98 1375.04,-129.8 1364.46,-129.26 1366.44,-135.98"/>
</a>
</g>
</g>
<!-- Node7&#45;&gt;Node10 -->
<g id="edge9_Node000007_Node000010" class="edge">
<title>Node7&#45;&gt;Node10</title>
<g id="a_edge9_Node000007_Node000010"><a xlink:title=" ">
<path fill="none" stroke="#63b8ff" d="M1188.11,-167.59C1171.72,-159.32 1147.59,-147.14 1128.69,-137.6"/>
<polygon fill="#63b8ff" stroke="#63b8ff" points="1130.39,-134.54 1119.88,-133.16 1127.24,-140.79 1130.39,-134.54"/>
</a>
</g>
</g>
<!-- Node11 -->
<g id="Node000011" class="node">
<title>Node11</title>
<g id="a_Node000011"><a xlink:href="DatabaseBackend_8hpp.html" target="_top" xlink:title=" ">
<polygon fill="white" stroke="#666666" points="1319.25,-76 1204.25,-76 1204.25,-56 1319.25,-56 1319.25,-76"/>
<text xml:space="preserve" text-anchor="middle" x="1261.75" y="-62.5" font-family="Helvetica,sans-Serif" font-size="10.00">DatabaseBackend.hpp</text>
</a>
</g>
</g>
<!-- Node7&#45;&gt;Node11 -->
<g id="edge10_Node000007_Node000011" class="edge">
<title>Node7&#45;&gt;Node11</title>
<g id="a_edge10_Node000007_Node000011"><a xlink:title=" ">
<path fill="none" stroke="#63b8ff" d="M1211.44,-167.62C1220.41,-149.68 1240.16,-110.17 1252.08,-86.35"/>
<polygon fill="#63b8ff" stroke="#63b8ff" points="1255.05,-88.22 1256.4,-77.71 1248.79,-85.09 1255.05,-88.22"/>
</a>
</g>
</g>
<!-- Node13 -->
<g id="Node000013" class="node">
<title>Node13</title>
<g id="a_Node000013"><a xlink:href="RowDTOAdapter_8hpp.html" target="_top" xlink:title=" ">
<polygon fill="white" stroke="#666666" points="1358.62,-132 1248.88,-132 1248.88,-112 1358.62,-112 1358.62,-132"/>
<text xml:space="preserve" text-anchor="middle" x="1303.75" y="-118.5" font-family="Helvetica,sans-Serif" font-size="10.00">RowDTOAdapter.hpp</text>
</a>
</g>
</g>
<!-- Node7&#45;&gt;Node13 -->
<g id="edge12_Node000007_Node000013" class="edge">
<title>Node7&#45;&gt;Node13</title>
<g id="a_edge12_Node000007_Node000013"><a xlink:title=" ">
<path fill="none" stroke="#63b8ff" d="M1223.65,-167.59C1238.3,-159.44 1259.77,-147.48 1276.8,-138"/>
<polygon fill="#63b8ff" stroke="#63b8ff" points="1278.36,-141.14 1285.4,-133.22 1274.96,-135.02 1278.36,-141.14"/>
</a>
</g>
</g>
<!-- Node12 -->
<g id="Node000012" class="node">
<title>Node12</title>
<g id="a_Node000012"><a xlink:title=" ">
<polygon fill="#e0e0e0" stroke="#999999" points="1292.25,-20 1231.25,-20 1231.25,0 1292.25,0 1292.25,-20"/>
<text xml:space="preserve" text-anchor="middle" x="1261.75" y="-6.5" font-family="Helvetica,sans-Serif" font-size="10.00">pqxx/pqxx</text>
</a>
</g>
</g>
<!-- Node11&#45;&gt;Node12 -->
<g id="edge11_Node000011_Node000012" class="edge">
<title>Node11&#45;&gt;Node12</title>
<g id="a_edge11_Node000011_Node000012"><a xlink:title=" ">
<path fill="none" stroke="#63b8ff" d="M1261.75,-55.59C1261.75,-49.01 1261.75,-39.96 1261.75,-31.73"/>
<polygon fill="#63b8ff" stroke="#63b8ff" points="1265.25,-31.81 1261.75,-21.81 1258.25,-31.81 1265.25,-31.81"/>
</a>
</g>
</g>
<!-- Node13&#45;&gt;Node11 -->
<g id="edge13_Node000013_Node000011" class="edge">
<title>Node13&#45;&gt;Node11</title>
<g id="a_edge13_Node000013_Node000011"><a xlink:title=" ">
<path fill="none" stroke="#63b8ff" d="M1296.43,-111.59C1290.77,-104.32 1282.76,-94.02 1275.86,-85.15"/>
<polygon fill="#63b8ff" stroke="#63b8ff" points="1278.81,-83.24 1269.91,-77.49 1273.29,-87.54 1278.81,-83.24"/>
</a>
</g>
</g>
<!-- Node15 -->
<g id="Node000015" class="node">
<title>Node15</title>
<g id="a_Node000015"><a xlink:title=" ">
<polygon fill="#e0e0e0" stroke="#999999" points="399.88,-132 327.62,-132 327.62,-112 399.88,-112 399.88,-132"/>
<text xml:space="preserve" text-anchor="middle" x="363.75" y="-118.5" font-family="Helvetica,sans-Serif" font-size="10.00">dpp/cluster.h</text>
</a>
</g>
</g>
<!-- Node14&#45;&gt;Node15 -->
<g id="edge15_Node000014_Node000015" class="edge">
<title>Node14&#45;&gt;Node15</title>
<g id="a_edge15_Node000014_Node000015"><a xlink:title=" ">
<path fill="none" stroke="#63b8ff" d="M623.86,-168.27C571.47,-159.96 490.66,-146.83 411.27,-132.41"/>
<polygon fill="#63b8ff" stroke="#63b8ff" points="412.03,-129 401.57,-130.64 410.78,-135.88 412.03,-129"/>
</a>
</g>
</g>
<!-- Node16 -->
<g id="Node000016" class="node">
<title>Node16</title>
<g id="a_Node000016"><a xlink:title=" ">
<polygon fill="#e0e0e0" stroke="#999999" points="505.75,-132 417.75,-132 417.75,-112 505.75,-112 505.75,-132"/>
<text xml:space="preserve" text-anchor="middle" x="461.75" y="-118.5" font-family="Helvetica,sans-Serif" font-size="10.00">dpp/dispatcher.h</text>
</a>
</g>
</g>
<!-- Node14&#45;&gt;Node16 -->
<g id="edge16_Node000014_Node000016" class="edge">
<title>Node14&#45;&gt;Node16</title>
<g id="a_edge16_Node000014_Node000016"><a xlink:title=" ">
<path fill="none" stroke="#63b8ff" d="M641.53,-167.53C605.22,-158.54 550.45,-144.97 510.9,-135.18"/>
<polygon fill="#63b8ff" stroke="#63b8ff" points="511.95,-131.83 501.4,-132.82 510.26,-138.62 511.95,-131.83"/>
</a>
</g>
</g>
<!-- Node17&#45;&gt;Node15 -->
<g id="edge18_Node000017_Node000015" class="edge">
<title>Node17&#45;&gt;Node15</title>
<g id="a_edge18_Node000017_Node000015"><a xlink:title=" ">
<path fill="none" stroke="#63b8ff" d="M404.21,-167.59C397.47,-160.16 387.86,-149.58 379.71,-140.58"/>
<polygon fill="#63b8ff" stroke="#63b8ff" points="382.52,-138.47 373.2,-133.42 377.33,-143.18 382.52,-138.47"/>
</a>
</g>
</g>
<!-- Node17&#45;&gt;Node16 -->
<g id="edge19_Node000017_Node000016" class="edge">
<title>Node17&#45;&gt;Node16</title>
<g id="a_edge19_Node000017_Node000016"><a xlink:title=" ">
<path fill="none" stroke="#63b8ff" d="M421.29,-167.59C428.03,-160.16 437.64,-149.58 445.79,-140.58"/>
<polygon fill="#63b8ff" stroke="#63b8ff" points="448.17,-143.18 452.3,-133.42 442.98,-138.47 448.17,-143.18"/>
</a>
</g>
</g>
<!-- Node18&#45;&gt;Node10 -->
<g id="edge24_Node000018_Node000010" class="edge">
<title>Node18&#45;&gt;Node10</title>
<g id="a_edge24_Node000018_Node000010"><a xlink:title=" ">
<path fill="none" stroke="#63b8ff" d="M1022.95,-167.59C1037,-159.44 1057.58,-147.48 1073.91,-138"/>
<polygon fill="#63b8ff" stroke="#63b8ff" points="1075.22,-141.29 1082.12,-133.24 1071.71,-135.23 1075.22,-141.29"/>
</a>
</g>
</g>
<!-- Node18&#45;&gt;Node15 -->
<g id="edge22_Node000018_Node000015" class="edge">
<title>Node18&#45;&gt;Node15</title>
<g id="a_edge22_Node000018_Node000015"><a xlink:title=" ">
<path fill="none" stroke="#63b8ff" d="M938.81,-168.79C936.09,-168.51 933.4,-168.25 930.75,-168 702.83,-146.66 641.16,-162.36 411.12,-132.15"/>
<polygon fill="#63b8ff" stroke="#63b8ff" points="411.91,-128.72 401.53,-130.87 410.98,-135.66 411.91,-128.72"/>
</a>
</g>
</g>
<!-- Node18&#45;&gt;Node16 -->
<g id="edge23_Node000018_Node000016" class="edge">
<title>Node18&#45;&gt;Node16</title>
<g id="a_edge23_Node000018_Node000016"><a xlink:title=" ">
<path fill="none" stroke="#63b8ff" d="M938.81,-168.88C936.09,-168.58 933.39,-168.28 930.75,-168 781.5,-152 605.23,-135.82 517.37,-127.93"/>
<polygon fill="#63b8ff" stroke="#63b8ff" points="517.86,-124.46 507.58,-127.06 517.23,-131.44 517.86,-124.46"/>
</a>
</g>
</g>
<!-- Node18&#45;&gt;Node19 -->
<g id="edge21_Node000018_Node000019" class="edge">
<title>Node18&#45;&gt;Node19</title>
<g id="a_edge21_Node000018_Node000019"><a xlink:title=" ">
<path fill="none" stroke="#63b8ff" d="M1007.8,-167.59C1008.53,-161.01 1009.53,-151.96 1010.45,-143.73"/>
<polygon fill="#63b8ff" stroke="#63b8ff" points="1013.92,-144.13 1011.55,-133.8 1006.97,-143.35 1013.92,-144.13"/>
</a>
</g>
</g>
<!-- Node20&#45;&gt;Node15 -->
<g id="edge26_Node000020_Node000015" class="edge">
<title>Node20&#45;&gt;Node15</title>
<g id="a_edge26_Node000020_Node000015"><a xlink:title=" ">
<path fill="none" stroke="#63b8ff" d="M296.86,-167.59C308.75,-159.67 326.02,-148.16 340.03,-138.82"/>
<polygon fill="#63b8ff" stroke="#63b8ff" points="341.89,-141.78 348.27,-133.32 338.01,-135.95 341.89,-141.78"/>
</a>
</g>
</g>
<!-- Node20&#45;&gt;Node16 -->
<g id="edge27_Node000020_Node000016" class="edge">
<title>Node20&#45;&gt;Node16</title>
<g id="a_edge27_Node000020_Node000016"><a xlink:title=" ">
<path fill="none" stroke="#63b8ff" d="M313.93,-167.59C343.14,-158.78 387.03,-145.54 419.4,-135.78"/>
<polygon fill="#63b8ff" stroke="#63b8ff" points="420.32,-139.16 428.88,-132.92 418.29,-132.45 420.32,-139.16"/>
</a>
</g>
</g>
<!-- Node21&#45;&gt;Node15 -->
<g id="edge29_Node000021_Node000015" class="edge">
<title>Node21&#45;&gt;Node15</title>
<g id="a_edge29_Node000021_Node000015"><a xlink:title=" ">
<path fill="none" stroke="#63b8ff" d="M183.15,-167.53C220.18,-158.4 276.34,-144.55 316.19,-134.73"/>
<polygon fill="#63b8ff" stroke="#63b8ff" points="316.88,-138.16 325.75,-132.37 315.2,-131.37 316.88,-138.16"/>
</a>
</g>
</g>
<!-- Node21&#45;&gt;Node16 -->
<g id="edge30_Node000021_Node000016" class="edge">
<title>Node21&#45;&gt;Node16</title>
<g id="a_edge30_Node000021_Node000016"><a xlink:title=" ">
<path fill="none" stroke="#63b8ff" d="M200.33,-167.53C258.26,-157.66 348.51,-142.29 406.37,-132.43"/>
<polygon fill="#63b8ff" stroke="#63b8ff" points="406.73,-135.92 416,-130.79 405.55,-129.02 406.73,-135.92"/>
</a>
</g>
</g>
<!-- Node22&#45;&gt;Node15 -->
<g id="edge32_Node000022_Node000015" class="edge">
<title>Node22&#45;&gt;Node15</title>
<g id="a_edge32_Node000022_Node000015"><a xlink:title=" ">
<path fill="none" stroke="#63b8ff" d="M513.22,-167.59C483.56,-158.74 438.92,-145.43 406.14,-135.65"/>
<polygon fill="#63b8ff" stroke="#63b8ff" points="407.56,-132.42 396.97,-132.91 405.56,-139.13 407.56,-132.42"/>
</a>
</g>
</g>
<!-- Node22&#45;&gt;Node16 -->
<g id="edge33_Node000022_Node000016" class="edge">
<title>Node22&#45;&gt;Node16</title>
<g id="a_edge33_Node000022_Node000016"><a xlink:title=" ">
<path fill="none" stroke="#63b8ff" d="M530.29,-167.59C517.99,-159.59 500.07,-147.93 485.64,-138.54"/>
<polygon fill="#63b8ff" stroke="#63b8ff" points="487.88,-135.82 477.59,-133.3 484.06,-141.69 487.88,-135.82"/>
</a>
</g>
</g>
<!-- Node23&#45;&gt;Node15 -->
<g id="edge42_Node000023_Node000015" class="edge">
<title>Node23&#45;&gt;Node15</title>
<g id="a_edge42_Node000023_Node000015"><a xlink:title=" ">
<path fill="none" stroke="#63b8ff" d="M65.73,-169.75C68.77,-169.13 71.82,-168.54 74.75,-168 159.3,-152.37 258.44,-137.73 315.88,-129.61"/>
<polygon fill="#63b8ff" stroke="#63b8ff" points="316.23,-133.09 325.64,-128.23 315.25,-126.16 316.23,-133.09"/>
</a>
</g>
</g>
<!-- Node23&#45;&gt;Node16 -->
<g id="edge43_Node000023_Node000016" class="edge">
<title>Node23&#45;&gt;Node16</title>
<g id="a_edge43_Node000023_Node000016"><a xlink:title=" ">
<path fill="none" stroke="#63b8ff" d="M65.7,-169.6C68.75,-169.02 71.8,-168.47 74.75,-168 218.57,-144.9 258.91,-152.13 406.27,-132.26"/>
<polygon fill="#63b8ff" stroke="#63b8ff" points="406.6,-135.75 416.04,-130.92 405.65,-128.81 406.6,-135.75"/>
</a>
</g>
</g>
<!-- Node29 -->
<g id="Node000029" class="node">
<title>Node29</title>
<g id="a_Node000029"><a xlink:href="IRepository_8hpp.html" target="_top" xlink:title=" ">
<polygon fill="white" stroke="#666666" points="1569.88,-188 1485.62,-188 1485.62,-168 1569.88,-168 1569.88,-188"/>
<text xml:space="preserve" text-anchor="middle" x="1527.75" y="-174.5" font-family="Helvetica,sans-Serif" font-size="10.00">IRepository.hpp</text>
</a>
</g>
</g>
<!-- Node28&#45;&gt;Node29 -->
<g id="edge54_Node000028_Node000029" class="edge">
<title>Node28&#45;&gt;Node29</title>
<g id="a_edge54_Node000028_Node000029"><a xlink:title=" ">
<path fill="none" stroke="#63b8ff" d="M1527.75,-223.59C1527.75,-217.01 1527.75,-207.96 1527.75,-199.73"/>
<polygon fill="#63b8ff" stroke="#63b8ff" points="1531.25,-199.81 1527.75,-189.81 1524.25,-199.81 1531.25,-199.81"/>
</a>
</g>
</g>
<!-- Node31 -->
<g id="Node000031" class="node">
<title>Node31</title>
<g id="a_Node000031"><a xlink:href="NotificationDTO_8hpp.html" target="_top" xlink:title=" ">
<polygon fill="white" stroke="#666666" points="1368.38,-188 1263.12,-188 1263.12,-168 1368.38,-168 1368.38,-188"/>
<text xml:space="preserve" text-anchor="middle" x="1315.75" y="-174.5" font-family="Helvetica,sans-Serif" font-size="10.00">NotificationDTO.hpp</text>
</a>
</g>
</g>
<!-- Node28&#45;&gt;Node31 -->
<g id="edge56_Node000028_Node000031" class="edge">
<title>Node28&#45;&gt;Node31</title>
<g id="a_edge56_Node000028_Node000031"><a xlink:title=" ">
<path fill="none" stroke="#63b8ff" d="M1490.82,-223.59C1455.62,-214.63 1402.43,-201.08 1363.91,-191.27"/>
<polygon fill="#63b8ff" stroke="#63b8ff" points="1364.99,-187.93 1354.43,-188.85 1363.26,-194.71 1364.99,-187.93"/>
</a>
</g>
</g>
<!-- Node30 -->
<g id="Node000030" class="node">
<title>Node30</title>
<g id="a_Node000030"><a xlink:title=" ">
<polygon fill="#e0e0e0" stroke="#999999" points="1551.88,-132 1503.62,-132 1503.62,-112 1551.88,-112 1551.88,-132"/>
<text xml:space="preserve" text-anchor="middle" x="1527.75" y="-118.5" font-family="Helvetica,sans-Serif" font-size="10.00">cstddef</text>
</a>
</g>
</g>
<!-- Node29&#45;&gt;Node30 -->
<g id="edge55_Node000029_Node000030" class="edge">
<title>Node29&#45;&gt;Node30</title>
<g id="a_edge55_Node000029_Node000030"><a xlink:title=" ">
<path fill="none" stroke="#63b8ff" d="M1527.75,-167.59C1527.75,-161.01 1527.75,-151.96 1527.75,-143.73"/>
<polygon fill="#63b8ff" stroke="#63b8ff" points="1531.25,-143.81 1527.75,-133.81 1524.25,-143.81 1531.25,-143.81"/>
</a>
</g>
</g>
<!-- Node31&#45;&gt;Node9 -->
<g id="edge58_Node000031_Node000009" class="edge">
<title>Node31&#45;&gt;Node9</title>
<g id="a_edge58_Node000031_Node000009"><a xlink:title=" ">
<path fill="none" stroke="#63b8ff" d="M1329.86,-167.59C1341.75,-159.67 1359.02,-148.16 1373.03,-138.82"/>
<polygon fill="#63b8ff" stroke="#63b8ff" points="1374.89,-141.78 1381.27,-133.32 1371.01,-135.95 1374.89,-141.78"/>
</a>
</g>
</g>
<!-- Node31&#45;&gt;Node13 -->
<g id="edge57_Node000031_Node000013" class="edge">
<title>Node31&#45;&gt;Node13</title>
<g id="a_edge57_Node000031_Node000013"><a xlink:title=" ">
<path fill="none" stroke="#63b8ff" d="M1313.66,-167.59C1312.18,-160.93 1310.14,-151.75 1308.29,-143.44"/>
<polygon fill="#63b8ff" stroke="#63b8ff" points="1311.73,-142.78 1306.14,-133.78 1304.9,-144.3 1311.73,-142.78"/>
</a>
</g>
</g>
</g>
</svg>
