<?xml version="1.0" encoding="UTF-8" standalone="no"?>
<!DOCTYPE svg PUBLIC "-//W3C//DTD SVG 1.1//EN"
 "http://www.w3.org/Graphics/SVG/1.1/DTD/svg11.dtd">
<!-- Generated by graphviz version 12.2.1 (0)
 -->
<!-- Title: src/bot_library/commands/notification/RemoveNotificationCommand.cpp Pages: 1 -->
<svg width="1594pt" height="388pt"
 viewBox="0.00 0.00 1594.12 388.00" xmlns="http://www.w3.org/2000/svg" xmlns:xlink="http://www.w3.org/1999/xlink">
<g id="graph0" class="graph" transform="scale(1 1) rotate(0) translate(4 384)">
<title>src/bot_library/commands/notification/RemoveNotificationCommand.cpp</title>
<!-- Node1 -->
<g id="Node000001" class="node">
<title>Node1</title>
<g id="a_Node000001"><a xlink:title=" ">
<polygon fill="#999999" stroke="#666666" points="1205.5,-380 1050,-380 1050,-336 1205.5,-336 1205.5,-380"/>
<text text-anchor="start" x="1058" y="-366.5" font-family="Helvetica,sans-Serif" font-size="10.00">src/bot_library/commands</text>
<text text-anchor="start" x="1058" y="-354.5" font-family="Helvetica,sans-Serif" font-size="10.00">/notification/RemoveNotification</text>
<text text-anchor="middle" x="1127.75" y="-342.5" font-family="Helvetica,sans-Serif" font-size="10.00">Command.cpp</text>
</a>
</g>
</g>
<!-- Node2 -->
<g id="Node000002" class="node">
<title>Node2</title>
<g id="a_Node000002"><a xlink:href="RemoveNotificationCommand_8hpp.html" target="_top" xlink:title=" ">
<polygon fill="white" stroke="#666666" points="723.75,-300 557.75,-300 557.75,-280 723.75,-280 723.75,-300"/>
<text text-anchor="middle" x="640.75" y="-286.5" font-family="Helvetica,sans-Serif" font-size="10.00">RemoveNotificationCommand.hpp</text>
</a>
</g>
</g>
<!-- Node1&#45;&gt;Node2 -->
<g id="edge1_Node000001_Node000002" class="edge">
<title>Node1&#45;&gt;Node2</title>
<g id="a_edge1_Node000001_Node000002"><a xlink:title=" ">
<path fill="none" stroke="#63b8ff" d="M1049.51,-346.4C959.65,-334.22 812.94,-314.34 721.88,-302"/>
<polygon fill="#63b8ff" stroke="#63b8ff" points="722.39,-298.53 712.01,-300.66 721.45,-305.47 722.39,-298.53"/>
</a>
</g>
</g>
<!-- Node3 -->
<g id="Node000003" class="node">
<title>Node3</title>
<g id="a_Node000003"><a xlink:href="Bot_8hpp.html" target="_top" xlink:title=" ">
<polygon fill="white" stroke="#666666" points="665.62,-244 615.88,-244 615.88,-224 665.62,-224 665.62,-244"/>
<text text-anchor="middle" x="640.75" y="-230.5" font-family="Helvetica,sans-Serif" font-size="10.00">Bot.hpp</text>
</a>
</g>
</g>
<!-- Node1&#45;&gt;Node3 -->
<g id="edge60_Node000001_Node000003" class="edge">
<title>Node1&#45;&gt;Node3</title>
<g id="a_edge60_Node000001_Node000003"><a xlink:title=" ">
<path fill="none" stroke="#63b8ff" d="M1049.51,-337.4C942.51,-310.6 754.92,-263.6 676.64,-243.99"/>
<polygon fill="#63b8ff" stroke="#63b8ff" points="677.93,-240.71 667.38,-241.67 676.23,-247.5 677.93,-240.71"/>
</a>
</g>
</g>
<!-- Node4 -->
<g id="Node000004" class="node">
<title>Node4</title>
<g id="a_Node000004"><a xlink:href="Core_8hpp.html" target="_top" xlink:title=" ">
<polygon fill="white" stroke="#666666" points="794.62,-188 738.88,-188 738.88,-168 794.62,-168 794.62,-188"/>
<text text-anchor="middle" x="766.75" y="-174.5" font-family="Helvetica,sans-Serif" font-size="10.00">Core.hpp</text>
</a>
</g>
</g>
<!-- Node1&#45;&gt;Node4 -->
<g id="edge53_Node000001_Node000004" class="edge">
<title>Node1&#45;&gt;Node4</title>
<g id="a_edge53_Node000001_Node000004"><a xlink:title=" ">
<path fill="none" stroke="#63b8ff" d="M1084.2,-335.53C1009.57,-298.73 859.16,-224.56 795.87,-193.36"/>
<polygon fill="#63b8ff" stroke="#63b8ff" points="797.66,-190.34 787.15,-189.06 794.57,-196.62 797.66,-190.34"/>
</a>
</g>
</g>
<!-- Node19 -->
<g id="Node000019" class="node">
<title>Node19</title>
<g id="a_Node000019"><a xlink:title=" ">
<polygon fill="#e0e0e0" stroke="#999999" points="1057.12,-76 974.38,-76 974.38,-56 1057.12,-56 1057.12,-76"/>
<text text-anchor="middle" x="1015.75" y="-62.5" font-family="Helvetica,sans-Serif" font-size="10.00">appcommand.h</text>
</a>
</g>
</g>
<!-- Node1&#45;&gt;Node19 -->
<g id="edge49_Node000001_Node000019" class="edge">
<title>Node1&#45;&gt;Node19</title>
<g id="a_edge49_Node000001_Node000019"><a xlink:title=" ">
<path fill="none" stroke="#63b8ff" d="M1120.37,-335.7C1112.68,-311.57 1101.75,-270.95 1101.75,-235 1101.75,-235 1101.75,-235 1101.75,-177 1101.75,-146.9 1100.53,-136.29 1082.75,-112 1073.54,-99.42 1059.68,-89.28 1046.95,-81.83"/>
<polygon fill="#63b8ff" stroke="#63b8ff" points="1048.88,-78.89 1038.43,-77.16 1045.52,-85.03 1048.88,-78.89"/>
</a>
</g>
</g>
<!-- Node26 -->
<g id="Node000026" class="node">
<title>Node26</title>
<g id="a_Node000026"><a xlink:title=" ">
<polygon fill="#e0e0e0" stroke="#999999" points="1180,-300 1129.5,-300 1129.5,-280 1180,-280 1180,-300"/>
<text text-anchor="middle" x="1154.75" y="-286.5" font-family="Helvetica,sans-Serif" font-size="10.00">colors.h</text>
</a>
</g>
</g>
<!-- Node1&#45;&gt;Node26 -->
<g id="edge50_Node000001_Node000026" class="edge">
<title>Node1&#45;&gt;Node26</title>
<g id="a_edge50_Node000001_Node000026"><a xlink:title=" ">
<path fill="none" stroke="#63b8ff" d="M1136.44,-335.75C1139.71,-327.75 1143.42,-318.69 1146.64,-310.83"/>
<polygon fill="#63b8ff" stroke="#63b8ff" points="1149.78,-312.4 1150.32,-301.82 1143.3,-309.75 1149.78,-312.4"/>
</a>
</g>
</g>
<!-- Node27 -->
<g id="Node000027" class="node">
<title>Node27</title>
<g id="a_Node000027"><a xlink:title=" ">
<polygon fill="#e0e0e0" stroke="#999999" points="1261.75,-300 1197.75,-300 1197.75,-280 1261.75,-280 1261.75,-300"/>
<text text-anchor="middle" x="1229.75" y="-286.5" font-family="Helvetica,sans-Serif" font-size="10.00">message.h</text>
</a>
</g>
</g>
<!-- Node1&#45;&gt;Node27 -->
<g id="edge51_Node000001_Node000027" class="edge">
<title>Node1&#45;&gt;Node27</title>
<g id="a_edge51_Node000001_Node000027"><a xlink:title=" ">
<path fill="none" stroke="#63b8ff" d="M1160.87,-335.57C1175.51,-326.09 1192.42,-315.16 1205.81,-306.49"/>
<polygon fill="#63b8ff" stroke="#63b8ff" points="1207.51,-309.56 1214.01,-301.19 1203.71,-303.68 1207.51,-309.56"/>
</a>
</g>
</g>
<!-- Node28 -->
<g id="Node000028" class="node">
<title>Node28</title>
<g id="a_Node000028"><a xlink:title=" ">
<polygon fill="#e0e0e0" stroke="#999999" points="1348,-300 1279.5,-300 1279.5,-280 1348,-280 1348,-300"/>
<text text-anchor="middle" x="1313.75" y="-286.5" font-family="Helvetica,sans-Serif" font-size="10.00">snowflake.h</text>
</a>
</g>
</g>
<!-- Node1&#45;&gt;Node28 -->
<g id="edge52_Node000001_Node000028" class="edge">
<title>Node1&#45;&gt;Node28</title>
<g id="a_edge52_Node000001_Node000028"><a xlink:title=" ">
<path fill="none" stroke="#63b8ff" d="M1188.14,-335.57C1217.34,-325.21 1251.45,-313.11 1276.75,-304.13"/>
<polygon fill="#63b8ff" stroke="#63b8ff" points="1277.68,-307.51 1285.93,-300.87 1275.34,-300.92 1277.68,-307.51"/>
</a>
</g>
</g>
<!-- Node29 -->
<g id="Node000029" class="node">
<title>Node29</title>
<g id="a_Node000029"><a xlink:href="NotificationRepository_8hpp.html" target="_top" xlink:title=" ">
<polygon fill="white" stroke="#666666" points="1586.12,-188 1455.38,-188 1455.38,-168 1586.12,-168 1586.12,-188"/>
<text text-anchor="middle" x="1520.75" y="-174.5" font-family="Helvetica,sans-Serif" font-size="10.00">NotificationRepository.hpp</text>
</a>
</g>
</g>
<!-- Node1&#45;&gt;Node29 -->
<g id="edge54_Node000001_Node000029" class="edge">
<title>Node1&#45;&gt;Node29</title>
<g id="a_edge54_Node000001_Node000029"><a xlink:title=" ">
<path fill="none" stroke="#63b8ff" d="M1205.87,-345.4C1251.38,-336.74 1309.02,-322.46 1356.75,-300 1415.4,-272.41 1474.08,-222.35 1502.72,-196.11"/>
<polygon fill="#63b8ff" stroke="#63b8ff" points="1504.88,-198.88 1509.82,-189.51 1500.11,-193.75 1504.88,-198.88"/>
</a>
</g>
</g>
<!-- Node2&#45;&gt;Node3 -->
<g id="edge2_Node000002_Node000003" class="edge">
<title>Node2&#45;&gt;Node3</title>
<g id="a_edge2_Node000002_Node000003"><a xlink:title=" ">
<path fill="none" stroke="#63b8ff" d="M640.75,-279.59C640.75,-273.01 640.75,-263.96 640.75,-255.73"/>
<polygon fill="#63b8ff" stroke="#63b8ff" points="644.25,-255.81 640.75,-245.81 637.25,-255.81 644.25,-255.81"/>
</a>
</g>
</g>
<!-- Node21 -->
<g id="Node000021" class="node">
<title>Node21</title>
<g id="a_Node000021"><a xlink:href="IMessageCommand_8hpp.html" target="_top" xlink:title=" ">
<polygon fill="white" stroke="#666666" points="206,-132 83.5,-132 83.5,-112 206,-112 206,-132"/>
<text text-anchor="middle" x="144.75" y="-118.5" font-family="Helvetica,sans-Serif" font-size="10.00">IMessageCommand.hpp</text>
</a>
</g>
</g>
<!-- Node2&#45;&gt;Node21 -->
<g id="edge48_Node000002_Node000021" class="edge">
<title>Node2&#45;&gt;Node21</title>
<g id="a_edge48_Node000002_Node000021"><a xlink:title=" ">
<path fill="none" stroke="#63b8ff" d="M612.13,-279.61C558.08,-261.86 437.28,-222.09 335.75,-188 282.71,-170.19 221.5,-149.3 182.96,-136.11"/>
<polygon fill="#63b8ff" stroke="#63b8ff" points="184.27,-132.86 173.68,-132.93 182,-139.48 184.27,-132.86"/>
</a>
</g>
</g>
<!-- Node3&#45;&gt;Node4 -->
<g id="edge3_Node000003_Node000004" class="edge">
<title>Node3&#45;&gt;Node4</title>
<g id="a_edge3_Node000003_Node000004"><a xlink:title=" ">
<path fill="none" stroke="#63b8ff" d="M662.7,-223.59C682.45,-215.13 711.74,-202.58 734.22,-192.94"/>
<polygon fill="#63b8ff" stroke="#63b8ff" points="735.43,-196.23 743.24,-189.08 732.67,-189.8 735.43,-196.23"/>
</a>
</g>
</g>
<!-- Node10 -->
<g id="Node000010" class="node">
<title>Node10</title>
<g id="a_Node000010"><a xlink:title=" ">
<polygon fill="#e0e0e0" stroke="#999999" points="1415.75,-76 1375.75,-76 1375.75,-56 1415.75,-56 1415.75,-76"/>
<text text-anchor="middle" x="1395.75" y="-62.5" font-family="Helvetica,sans-Serif" font-size="10.00">string</text>
</a>
</g>
</g>
<!-- Node3&#45;&gt;Node10 -->
<g id="edge46_Node000003_Node000010" class="edge">
<title>Node3&#45;&gt;Node10</title>
<g id="a_edge46_Node000003_Node000010"><a xlink:title=" ">
<path fill="none" stroke="#63b8ff" d="M665.79,-231.59C791.33,-224.26 1348.27,-188.68 1397.75,-132 1408.31,-119.91 1406.52,-101.2 1402.84,-86.95"/>
<polygon fill="#63b8ff" stroke="#63b8ff" points="1406.29,-86.24 1399.99,-77.72 1399.6,-88.31 1406.29,-86.24"/>
</a>
</g>
</g>
<!-- Node12 -->
<g id="Node000012" class="node">
<title>Node12</title>
<g id="a_Node000012"><a xlink:title=" ">
<polygon fill="#e0e0e0" stroke="#999999" points="1128.25,-76 1085.25,-76 1085.25,-56 1128.25,-56 1128.25,-76"/>
<text text-anchor="middle" x="1106.75" y="-62.5" font-family="Helvetica,sans-Serif" font-size="10.00">vector</text>
</a>
</g>
</g>
<!-- Node3&#45;&gt;Node12 -->
<g id="edge47_Node000003_Node000012" class="edge">
<title>Node3&#45;&gt;Node12</title>
<g id="a_edge47_Node000003_Node000012"><a xlink:title=" ">
<path fill="none" stroke="#63b8ff" d="M665.97,-230.41C750.1,-221.31 1019.4,-188.24 1082.75,-132 1095.55,-120.63 1101.54,-101.82 1104.33,-87.35"/>
<polygon fill="#63b8ff" stroke="#63b8ff" points="1107.78,-87.95 1105.82,-77.54 1100.86,-86.9 1107.78,-87.95"/>
</a>
</g>
</g>
<!-- Node14 -->
<g id="Node000014" class="node">
<title>Node14</title>
<g id="a_Node000014"><a xlink:href="IButtonCommand_8hpp.html" target="_top" xlink:title=" ">
<polygon fill="white" stroke="#666666" points="734.38,-132 623.12,-132 623.12,-112 734.38,-112 734.38,-132"/>
<text text-anchor="middle" x="678.75" y="-118.5" font-family="Helvetica,sans-Serif" font-size="10.00">IButtonCommand.hpp</text>
</a>
</g>
</g>
<!-- Node3&#45;&gt;Node14 -->
<g id="edge35_Node000003_Node000014" class="edge">
<title>Node3&#45;&gt;Node14</title>
<g id="a_edge35_Node000003_Node000014"><a xlink:title=" ">
<path fill="none" stroke="#63b8ff" d="M643.99,-223.62C650.13,-205.84 663.59,-166.88 671.84,-143"/>
<polygon fill="#63b8ff" stroke="#63b8ff" points="675.07,-144.38 675.02,-133.79 668.45,-142.09 675.07,-144.38"/>
</a>
</g>
</g>
<!-- Node17 -->
<g id="Node000017" class="node">
<title>Node17</title>
<g id="a_Node000017"><a xlink:href="IFormCommand_8hpp.html" target="_top" xlink:title=" ">
<polygon fill="white" stroke="#666666" points="605.38,-132 500.12,-132 500.12,-112 605.38,-112 605.38,-132"/>
<text text-anchor="middle" x="552.75" y="-118.5" font-family="Helvetica,sans-Serif" font-size="10.00">IFormCommand.hpp</text>
</a>
</g>
</g>
<!-- Node3&#45;&gt;Node17 -->
<g id="edge36_Node000003_Node000017" class="edge">
<title>Node3&#45;&gt;Node17</title>
<g id="a_edge36_Node000003_Node000017"><a xlink:title=" ">
<path fill="none" stroke="#63b8ff" d="M639.15,-223.75C636.46,-210.32 629.95,-185.16 616.75,-168 607.43,-155.89 593.94,-145.73 581.75,-138.15"/>
<polygon fill="#63b8ff" stroke="#63b8ff" points="583.64,-135.2 573.24,-133.17 580.1,-141.24 583.64,-135.2"/>
</a>
</g>
</g>
<!-- Node18 -->
<g id="Node000018" class="node">
<title>Node18</title>
<g id="a_Node000018"><a xlink:href="IGlobalSlashCommand_8hpp.html" target="_top" xlink:title=" ">
<polygon fill="white" stroke="#666666" points="1073.38,-132 938.12,-132 938.12,-112 1073.38,-112 1073.38,-132"/>
<text text-anchor="middle" x="1005.75" y="-118.5" font-family="Helvetica,sans-Serif" font-size="10.00">IGlobalSlashCommand.hpp</text>
</a>
</g>
</g>
<!-- Node3&#45;&gt;Node18 -->
<g id="edge37_Node000003_Node000018" class="edge">
<title>Node3&#45;&gt;Node18</title>
<g id="a_edge37_Node000003_Node000018"><a xlink:title=" ">
<path fill="none" stroke="#63b8ff" d="M665.97,-226.39C698.09,-217.89 755.23,-202.5 803.75,-188 860.86,-170.94 926.46,-149.48 967.02,-136"/>
<polygon fill="#63b8ff" stroke="#63b8ff" points="967.95,-139.38 976.33,-132.89 965.73,-132.74 967.95,-139.38"/>
</a>
</g>
</g>
<!-- Node20 -->
<g id="Node000020" class="node">
<title>Node20</title>
<g id="a_Node000020"><a xlink:href="IMemberCommand_8hpp.html" target="_top" xlink:title=" ">
<polygon fill="white" stroke="#666666" points="481.75,-132 363.75,-132 363.75,-112 481.75,-112 481.75,-132"/>
<text text-anchor="middle" x="422.75" y="-118.5" font-family="Helvetica,sans-Serif" font-size="10.00">IMemberCommand.hpp</text>
</a>
</g>
</g>
<!-- Node3&#45;&gt;Node20 -->
<g id="edge38_Node000003_Node000020" class="edge">
<title>Node3&#45;&gt;Node20</title>
<g id="a_edge38_Node000003_Node000020"><a xlink:title=" ">
<path fill="none" stroke="#63b8ff" d="M634.29,-223.53C624.12,-209.36 603.02,-182.71 578.75,-168 552.79,-152.26 521.06,-141.8 493.01,-134.96"/>
<polygon fill="#63b8ff" stroke="#63b8ff" points="494.06,-131.62 483.53,-132.77 492.49,-138.44 494.06,-131.62"/>
</a>
</g>
</g>
<!-- Node3&#45;&gt;Node21 -->
<g id="edge39_Node000003_Node000021" class="edge">
<title>Node3&#45;&gt;Node21</title>
<g id="a_edge39_Node000003_Node000021"><a xlink:title=" ">
<path fill="none" stroke="#63b8ff" d="M615.65,-228C575.19,-219.9 493.08,-203.26 423.75,-188 343.55,-170.34 250.73,-148.42 194.94,-135.08"/>
<polygon fill="#63b8ff" stroke="#63b8ff" points="195.97,-131.73 185.43,-132.8 194.34,-138.54 195.97,-131.73"/>
</a>
</g>
</g>
<!-- Node22 -->
<g id="Node000022" class="node">
<title>Node22</title>
<g id="a_Node000022"><a xlink:href="IReactionCommand_8hpp.html" target="_top" xlink:title=" ">
<polygon fill="white" stroke="#666666" points="345.62,-132 223.88,-132 223.88,-112 345.62,-112 345.62,-132"/>
<text text-anchor="middle" x="284.75" y="-118.5" font-family="Helvetica,sans-Serif" font-size="10.00">IReactionCommand.hpp</text>
</a>
</g>
</g>
<!-- Node3&#45;&gt;Node22 -->
<g id="edge40_Node000003_Node000022" class="edge">
<title>Node3&#45;&gt;Node22</title>
<g id="a_edge40_Node000003_Node000022"><a xlink:title=" ">
<path fill="none" stroke="#63b8ff" d="M627.57,-223.52C603.63,-206.37 554.64,-171.61 545.75,-168 528.46,-160.99 428.17,-144.78 357.08,-133.85"/>
<polygon fill="#63b8ff" stroke="#63b8ff" points="357.85,-130.43 347.44,-132.37 356.79,-137.35 357.85,-130.43"/>
</a>
</g>
</g>
<!-- Node23 -->
<g id="Node000023" class="node">
<title>Node23</title>
<g id="a_Node000023"><a xlink:href="IReady_8hpp.html" target="_top" xlink:title=" ">
<polygon fill="white" stroke="#666666" points="65.5,-132 0,-132 0,-112 65.5,-112 65.5,-132"/>
<text text-anchor="middle" x="32.75" y="-118.5" font-family="Helvetica,sans-Serif" font-size="10.00">IReady.hpp</text>
</a>
</g>
</g>
<!-- Node3&#45;&gt;Node23 -->
<g id="edge41_Node000003_Node000023" class="edge">
<title>Node3&#45;&gt;Node23</title>
<g id="a_edge41_Node000003_Node000023"><a xlink:title=" ">
<path fill="none" stroke="#63b8ff" d="M615.75,-229.87C563.56,-223.21 439.25,-206.72 335.75,-188 243.18,-171.26 135.72,-147.07 76.89,-133.41"/>
<polygon fill="#63b8ff" stroke="#63b8ff" points="77.8,-130.03 67.26,-131.17 76.21,-136.84 77.8,-130.03"/>
</a>
</g>
</g>
<!-- Node24 -->
<g id="Node000024" class="node">
<title>Node24</title>
<g id="a_Node000024"><a xlink:title=" ">
<polygon fill="#e0e0e0" stroke="#999999" points="467.12,-188 432.38,-188 432.38,-168 467.12,-168 467.12,-188"/>
<text text-anchor="middle" x="449.75" y="-174.5" font-family="Helvetica,sans-Serif" font-size="10.00">map</text>
</a>
</g>
</g>
<!-- Node3&#45;&gt;Node24 -->
<g id="edge44_Node000003_Node000024" class="edge">
<title>Node3&#45;&gt;Node24</title>
<g id="a_edge44_Node000003_Node000024"><a xlink:title=" ">
<path fill="none" stroke="#63b8ff" d="M615.44,-226.66C584.96,-218.9 531.99,-205.04 478.33,-188.66"/>
<polygon fill="#63b8ff" stroke="#63b8ff" points="479.63,-185.4 469.05,-185.8 477.57,-192.09 479.63,-185.4"/>
</a>
</g>
</g>
<!-- Node25 -->
<g id="Node000025" class="node">
<title>Node25</title>
<g id="a_Node000025"><a xlink:title=" ">
<polygon fill="#e0e0e0" stroke="#999999" points="536.38,-188 485.12,-188 485.12,-168 536.38,-168 536.38,-188"/>
<text text-anchor="middle" x="510.75" y="-174.5" font-family="Helvetica,sans-Serif" font-size="10.00">memory</text>
</a>
</g>
</g>
<!-- Node3&#45;&gt;Node25 -->
<g id="edge45_Node000003_Node000025" class="edge">
<title>Node3&#45;&gt;Node25</title>
<g id="a_edge45_Node000003_Node000025"><a xlink:title=" ">
<path fill="none" stroke="#63b8ff" d="M618.11,-223.59C597.63,-215.09 567.23,-202.46 544,-192.81"/>
<polygon fill="#63b8ff" stroke="#63b8ff" points="545.55,-189.66 534.97,-189.06 542.86,-196.13 545.55,-189.66"/>
</a>
</g>
</g>
<!-- Node5 -->
<g id="Node000005" class="node">
<title>Node5</title>
<g id="a_Node000005"><a xlink:title=" ">
<polygon fill="#e0e0e0" stroke="#999999" points="920.12,-132 861.38,-132 861.38,-112 920.12,-112 920.12,-132"/>
<text text-anchor="middle" x="890.75" y="-118.5" font-family="Helvetica,sans-Serif" font-size="10.00">dpp/dpp.h</text>
</a>
</g>
</g>
<!-- Node4&#45;&gt;Node5 -->
<g id="edge4_Node000004_Node000005" class="edge">
<title>Node4&#45;&gt;Node5</title>
<g id="a_edge4_Node000004_Node000005"><a xlink:title=" ">
<path fill="none" stroke="#63b8ff" d="M788.35,-167.59C807.7,-159.17 836.35,-146.69 858.43,-137.07"/>
<polygon fill="#63b8ff" stroke="#63b8ff" points="859.82,-140.29 867.59,-133.08 857.03,-133.87 859.82,-140.29"/>
</a>
</g>
</g>
<!-- Node6 -->
<g id="Node000006" class="node">
<title>Node6</title>
<g id="a_Node000006"><a xlink:title=" ">
<polygon fill="#e0e0e0" stroke="#999999" points="843.25,-132 752.25,-132 752.25,-112 843.25,-112 843.25,-132"/>
<text text-anchor="middle" x="797.75" y="-118.5" font-family="Helvetica,sans-Serif" font-size="10.00">dpp/misc&#45;enum.h</text>
</a>
</g>
</g>
<!-- Node4&#45;&gt;Node6 -->
<g id="edge5_Node000004_Node000006" class="edge">
<title>Node4&#45;&gt;Node6</title>
<g id="a_edge5_Node000004_Node000006"><a xlink:title=" ">
<path fill="none" stroke="#63b8ff" d="M772.15,-167.59C776.19,-160.55 781.87,-150.67 786.84,-142"/>
<polygon fill="#63b8ff" stroke="#63b8ff" points="789.72,-144.03 791.66,-133.61 783.64,-140.54 789.72,-144.03"/>
</a>
</g>
</g>
<!-- Node7 -->
<g id="Node000007" class="node">
<title>Node7</title>
<g id="a_Node000007"><a xlink:href="Database_8hpp.html" target="_top" xlink:title=" ">
<polygon fill="white" stroke="#666666" points="1244.12,-132 1167.38,-132 1167.38,-112 1244.12,-112 1244.12,-132"/>
<text text-anchor="middle" x="1205.75" y="-118.5" font-family="Helvetica,sans-Serif" font-size="10.00">Database.hpp</text>
</a>
</g>
</g>
<!-- Node4&#45;&gt;Node7 -->
<g id="edge6_Node000004_Node000007" class="edge">
<title>Node4&#45;&gt;Node7</title>
<g id="a_edge6_Node000004_Node000007"><a xlink:title=" ">
<path fill="none" stroke="#63b8ff" d="M794.88,-173.54C867.65,-164.59 1062.89,-140.57 1155.58,-129.17"/>
<polygon fill="#63b8ff" stroke="#63b8ff" points="1155.89,-132.66 1165.39,-127.96 1155.03,-125.71 1155.89,-132.66"/>
</a>
</g>
</g>
<!-- Node4&#45;&gt;Node10 -->
<g id="edge34_Node000004_Node000010" class="edge">
<title>Node4&#45;&gt;Node10</title>
<g id="a_edge34_Node000004_Node000010"><a xlink:title=" ">
<path fill="none" stroke="#63b8ff" d="M794.89,-176.78C908.72,-175.64 1331.08,-168.93 1376.75,-132 1389.89,-121.37 1394.27,-102.19 1395.57,-87.4"/>
<polygon fill="#63b8ff" stroke="#63b8ff" points="1399.05,-87.97 1396.01,-77.82 1392.06,-87.65 1399.05,-87.97"/>
</a>
</g>
</g>
<!-- Node4&#45;&gt;Node14 -->
<g id="edge14_Node000004_Node000014" class="edge">
<title>Node4&#45;&gt;Node14</title>
<g id="a_edge14_Node000004_Node000014"><a xlink:title=" ">
<path fill="none" stroke="#63b8ff" d="M751.42,-167.59C738.25,-159.51 719.02,-147.71 703.64,-138.27"/>
<polygon fill="#63b8ff" stroke="#63b8ff" points="705.84,-135.52 695.49,-133.27 702.18,-141.48 705.84,-135.52"/>
</a>
</g>
</g>
<!-- Node4&#45;&gt;Node17 -->
<g id="edge17_Node000004_Node000017" class="edge">
<title>Node4&#45;&gt;Node17</title>
<g id="a_edge17_Node000004_Node000017"><a xlink:title=" ">
<path fill="none" stroke="#63b8ff" d="M738.77,-169.94C703.83,-161.12 643.48,-145.89 601.01,-135.18"/>
<polygon fill="#63b8ff" stroke="#63b8ff" points="602.11,-131.84 591.55,-132.79 600.39,-138.63 602.11,-131.84"/>
</a>
</g>
</g>
<!-- Node4&#45;&gt;Node18 -->
<g id="edge20_Node000004_Node000018" class="edge">
<title>Node4&#45;&gt;Node18</title>
<g id="a_edge20_Node000004_Node000018"><a xlink:title=" ">
<path fill="none" stroke="#63b8ff" d="M795.1,-170.59C833.88,-161.83 904.17,-145.95 952.83,-134.96"/>
<polygon fill="#63b8ff" stroke="#63b8ff" points="953.32,-138.43 962.31,-132.82 951.78,-131.61 953.32,-138.43"/>
</a>
</g>
</g>
<!-- Node4&#45;&gt;Node20 -->
<g id="edge25_Node000004_Node000020" class="edge">
<title>Node4&#45;&gt;Node20</title>
<g id="a_edge25_Node000004_Node000020"><a xlink:title=" ">
<path fill="none" stroke="#63b8ff" d="M738.6,-172.58C685.48,-164.24 569.03,-145.96 493.34,-134.08"/>
<polygon fill="#63b8ff" stroke="#63b8ff" points="493.94,-130.63 483.52,-132.54 492.85,-137.55 493.94,-130.63"/>
</a>
</g>
</g>
<!-- Node4&#45;&gt;Node21 -->
<g id="edge28_Node000004_Node000021" class="edge">
<title>Node4&#45;&gt;Node21</title>
<g id="a_edge28_Node000004_Node000021"><a xlink:title=" ">
<path fill="none" stroke="#63b8ff" d="M738.56,-175.17C658.68,-169.88 423.78,-153.63 217.54,-132.25"/>
<polygon fill="#63b8ff" stroke="#63b8ff" points="218.01,-128.78 207.7,-131.22 217.28,-135.74 218.01,-128.78"/>
</a>
</g>
</g>
<!-- Node4&#45;&gt;Node22 -->
<g id="edge31_Node000004_Node000022" class="edge">
<title>Node4&#45;&gt;Node22</title>
<g id="a_edge31_Node000004_Node000022"><a xlink:title=" ">
<path fill="none" stroke="#63b8ff" d="M738.51,-174.1C673.36,-167.38 507.28,-150.01 357.07,-132.26"/>
<polygon fill="#63b8ff" stroke="#63b8ff" points="357.67,-128.8 347.33,-131.1 356.85,-135.75 357.67,-128.8"/>
</a>
</g>
</g>
<!-- Node8 -->
<g id="Node000008" class="node">
<title>Node8</title>
<g id="a_Node000008"><a xlink:title=" ">
<polygon fill="#e0e0e0" stroke="#999999" points="1504.88,-76 1456.62,-76 1456.62,-56 1504.88,-56 1504.88,-76"/>
<text text-anchor="middle" x="1480.75" y="-62.5" font-family="Helvetica,sans-Serif" font-size="10.00">cstddef</text>
</a>
</g>
</g>
<!-- Node7&#45;&gt;Node8 -->
<g id="edge7_Node000007_Node000008" class="edge">
<title>Node7&#45;&gt;Node8</title>
<g id="a_edge7_Node000007_Node000008"><a xlink:title=" ">
<path fill="none" stroke="#63b8ff" d="M1244.57,-113.38C1298,-102.89 1393.45,-84.14 1445.14,-73.99"/>
<polygon fill="#63b8ff" stroke="#63b8ff" points="1445.76,-77.44 1454.89,-72.08 1444.41,-70.57 1445.76,-77.44"/>
</a>
</g>
</g>
<!-- Node9 -->
<g id="Node000009" class="node">
<title>Node9</title>
<g id="a_Node000009"><a xlink:title=" ">
<polygon fill="#e0e0e0" stroke="#999999" points="1291.25,-20 1230.25,-20 1230.25,0 1291.25,0 1291.25,-20"/>
<text text-anchor="middle" x="1260.75" y="-6.5" font-family="Helvetica,sans-Serif" font-size="10.00">pqxx/pqxx</text>
</a>
</g>
</g>
<!-- Node7&#45;&gt;Node9 -->
<g id="edge8_Node000007_Node000009" class="edge">
<title>Node7&#45;&gt;Node9</title>
<g id="a_edge8_Node000007_Node000009"><a xlink:title=" ">
<path fill="none" stroke="#63b8ff" d="M1210.44,-111.62C1219.41,-93.68 1239.16,-54.17 1251.08,-30.35"/>
<polygon fill="#63b8ff" stroke="#63b8ff" points="1254.05,-32.22 1255.4,-21.71 1247.79,-29.09 1254.05,-32.22"/>
</a>
</g>
</g>
<!-- Node7&#45;&gt;Node10 -->
<g id="edge9_Node000007_Node000010" class="edge">
<title>Node7&#45;&gt;Node10</title>
<g id="a_edge9_Node000007_Node000010"><a xlink:title=" ">
<path fill="none" stroke="#63b8ff" d="M1240.69,-111.54C1271.06,-103.25 1316.5,-90.69 1364.55,-76.59"/>
<polygon fill="#63b8ff" stroke="#63b8ff" points="1365.44,-79.98 1374.04,-73.8 1363.46,-73.26 1365.44,-79.98"/>
</a>
</g>
</g>
<!-- Node11 -->
<g id="Node000011" class="node">
<title>Node11</title>
<g id="a_Node000011"><a xlink:title=" ">
<polygon fill="#e0e0e0" stroke="#999999" points="1191.38,-76 1146.12,-76 1146.12,-56 1191.38,-56 1191.38,-76"/>
<text text-anchor="middle" x="1168.75" y="-62.5" font-family="Helvetica,sans-Serif" font-size="10.00">variant</text>
</a>
</g>
</g>
<!-- Node7&#45;&gt;Node11 -->
<g id="edge10_Node000007_Node000011" class="edge">
<title>Node7&#45;&gt;Node11</title>
<g id="a_edge10_Node000007_Node000011"><a xlink:title=" ">
<path fill="none" stroke="#63b8ff" d="M1199.31,-111.59C1194.42,-104.47 1187.56,-94.45 1181.57,-85.72"/>
<polygon fill="#63b8ff" stroke="#63b8ff" points="1184.52,-83.82 1175.98,-77.55 1178.74,-87.77 1184.52,-83.82"/>
</a>
</g>
</g>
<!-- Node7&#45;&gt;Node12 -->
<g id="edge11_Node000007_Node000012" class="edge">
<title>Node7&#45;&gt;Node12</title>
<g id="a_edge11_Node000007_Node000012"><a xlink:title=" ">
<path fill="none" stroke="#63b8ff" d="M1188.51,-111.59C1173.41,-103.36 1151.22,-91.26 1133.77,-81.74"/>
<polygon fill="#63b8ff" stroke="#63b8ff" points="1135.91,-78.92 1125.46,-77.2 1132.56,-85.07 1135.91,-78.92"/>
</a>
</g>
</g>
<!-- Node13 -->
<g id="Node000013" class="node">
<title>Node13</title>
<g id="a_Node000013"><a xlink:href="RowDTOAdapter_8hpp.html" target="_top" xlink:title=" ">
<polygon fill="white" stroke="#666666" points="1357.62,-76 1247.88,-76 1247.88,-56 1357.62,-56 1357.62,-76"/>
<text text-anchor="middle" x="1302.75" y="-62.5" font-family="Helvetica,sans-Serif" font-size="10.00">RowDTOAdapter.hpp</text>
</a>
</g>
</g>
<!-- Node7&#45;&gt;Node13 -->
<g id="edge12_Node000007_Node000013" class="edge">
<title>Node7&#45;&gt;Node13</title>
<g id="a_edge12_Node000007_Node000013"><a xlink:title=" ">
<path fill="none" stroke="#63b8ff" d="M1222.65,-111.59C1237.3,-103.44 1258.77,-91.48 1275.8,-82"/>
<polygon fill="#63b8ff" stroke="#63b8ff" points="1277.36,-85.14 1284.4,-77.22 1273.96,-79.02 1277.36,-85.14"/>
</a>
</g>
</g>
<!-- Node13&#45;&gt;Node9 -->
<g id="edge13_Node000013_Node000009" class="edge">
<title>Node13&#45;&gt;Node9</title>
<g id="a_edge13_Node000013_Node000009"><a xlink:title=" ">
<path fill="none" stroke="#63b8ff" d="M1295.43,-55.59C1289.77,-48.32 1281.76,-38.02 1274.86,-29.15"/>
<polygon fill="#63b8ff" stroke="#63b8ff" points="1277.81,-27.24 1268.91,-21.49 1272.29,-31.54 1277.81,-27.24"/>
</a>
</g>
</g>
<!-- Node15 -->
<g id="Node000015" class="node">
<title>Node15</title>
<g id="a_Node000015"><a xlink:title=" ">
<polygon fill="#e0e0e0" stroke="#999999" points="409.88,-76 337.62,-76 337.62,-56 409.88,-56 409.88,-76"/>
<text text-anchor="middle" x="373.75" y="-62.5" font-family="Helvetica,sans-Serif" font-size="10.00">dpp/cluster.h</text>
</a>
</g>
</g>
<!-- Node14&#45;&gt;Node15 -->
<g id="edge15_Node000014_Node000015" class="edge">
<title>Node14&#45;&gt;Node15</title>
<g id="a_edge15_Node000014_Node000015"><a xlink:title=" ">
<path fill="none" stroke="#63b8ff" d="M622.63,-111.72C572.39,-103.32 496.42,-90.37 421.18,-76.42"/>
<polygon fill="#63b8ff" stroke="#63b8ff" points="422.04,-73.02 411.57,-74.63 420.76,-79.9 422.04,-73.02"/>
</a>
</g>
</g>
<!-- Node16 -->
<g id="Node000016" class="node">
<title>Node16</title>
<g id="a_Node000016"><a xlink:title=" ">
<polygon fill="#e0e0e0" stroke="#999999" points="515.75,-76 427.75,-76 427.75,-56 515.75,-56 515.75,-76"/>
<text text-anchor="middle" x="471.75" y="-62.5" font-family="Helvetica,sans-Serif" font-size="10.00">dpp/dispatcher.h</text>
</a>
</g>
</g>
<!-- Node14&#45;&gt;Node16 -->
<g id="edge16_Node000014_Node000016" class="edge">
<title>Node14&#45;&gt;Node16</title>
<g id="a_edge16_Node000014_Node000016"><a xlink:title=" ">
<path fill="none" stroke="#63b8ff" d="M642.69,-111.59C608.32,-102.63 556.38,-89.08 518.77,-79.27"/>
<polygon fill="#63b8ff" stroke="#63b8ff" points="520.11,-76 509.55,-76.86 518.35,-82.77 520.11,-76"/>
</a>
</g>
</g>
<!-- Node17&#45;&gt;Node15 -->
<g id="edge18_Node000017_Node000015" class="edge">
<title>Node17&#45;&gt;Node15</title>
<g id="a_edge18_Node000017_Node000015"><a xlink:title=" ">
<path fill="none" stroke="#63b8ff" d="M521.57,-111.59C492.36,-102.78 448.47,-89.54 416.1,-79.78"/>
<polygon fill="#63b8ff" stroke="#63b8ff" points="417.21,-76.45 406.62,-76.92 415.18,-83.16 417.21,-76.45"/>
</a>
</g>
</g>
<!-- Node17&#45;&gt;Node16 -->
<g id="edge19_Node000017_Node000016" class="edge">
<title>Node17&#45;&gt;Node16</title>
<g id="a_edge19_Node000017_Node000016"><a xlink:title=" ">
<path fill="none" stroke="#63b8ff" d="M538.64,-111.59C526.75,-103.67 509.48,-92.16 495.47,-82.82"/>
<polygon fill="#63b8ff" stroke="#63b8ff" points="497.49,-79.95 487.23,-77.32 493.61,-85.78 497.49,-79.95"/>
</a>
</g>
</g>
<!-- Node18&#45;&gt;Node12 -->
<g id="edge24_Node000018_Node000012" class="edge">
<title>Node18&#45;&gt;Node12</title>
<g id="a_edge24_Node000018_Node000012"><a xlink:title=" ">
<path fill="none" stroke="#63b8ff" d="M1023.34,-111.59C1038.67,-103.4 1061.17,-91.37 1078.94,-81.87"/>
<polygon fill="#63b8ff" stroke="#63b8ff" points="1080.52,-84.99 1087.69,-77.19 1077.22,-78.82 1080.52,-84.99"/>
</a>
</g>
</g>
<!-- Node18&#45;&gt;Node15 -->
<g id="edge22_Node000018_Node000015" class="edge">
<title>Node18&#45;&gt;Node15</title>
<g id="a_edge22_Node000018_Node000015"><a xlink:title=" ">
<path fill="none" stroke="#63b8ff" d="M937.75,-112.88C934.71,-112.57 931.7,-112.28 928.75,-112 706.16,-91.15 645.88,-105.85 421.2,-76.16"/>
<polygon fill="#63b8ff" stroke="#63b8ff" points="421.91,-72.73 411.53,-74.87 420.98,-79.66 421.91,-72.73"/>
</a>
</g>
</g>
<!-- Node18&#45;&gt;Node16 -->
<g id="edge23_Node000018_Node000016" class="edge">
<title>Node18&#45;&gt;Node16</title>
<g id="a_edge23_Node000018_Node000016"><a xlink:title=" ">
<path fill="none" stroke="#63b8ff" d="M937.74,-112.98C934.7,-112.65 931.69,-112.32 928.75,-112 784.19,-96.44 613.68,-80.21 527.55,-72.16"/>
<polygon fill="#63b8ff" stroke="#63b8ff" points="528,-68.69 517.72,-71.25 527.35,-75.66 528,-68.69"/>
</a>
</g>
</g>
<!-- Node18&#45;&gt;Node19 -->
<g id="edge21_Node000018_Node000019" class="edge">
<title>Node18&#45;&gt;Node19</title>
<g id="a_edge21_Node000018_Node000019"><a xlink:title=" ">
<path fill="none" stroke="#63b8ff" d="M1007.49,-111.59C1008.73,-104.93 1010.43,-95.75 1011.96,-87.44"/>
<polygon fill="#63b8ff" stroke="#63b8ff" points="1015.37,-88.26 1013.75,-77.79 1008.49,-86.98 1015.37,-88.26"/>
</a>
</g>
</g>
<!-- Node20&#45;&gt;Node15 -->
<g id="edge26_Node000020_Node000015" class="edge">
<title>Node20&#45;&gt;Node15</title>
<g id="a_edge26_Node000020_Node000015"><a xlink:title=" ">
<path fill="none" stroke="#63b8ff" d="M414.21,-111.59C407.47,-104.16 397.86,-93.58 389.71,-84.58"/>
<polygon fill="#63b8ff" stroke="#63b8ff" points="392.52,-82.47 383.2,-77.42 387.33,-87.18 392.52,-82.47"/>
</a>
</g>
</g>
<!-- Node20&#45;&gt;Node16 -->
<g id="edge27_Node000020_Node000016" class="edge">
<title>Node20&#45;&gt;Node16</title>
<g id="a_edge27_Node000020_Node000016"><a xlink:title=" ">
<path fill="none" stroke="#63b8ff" d="M431.29,-111.59C438.03,-104.16 447.64,-93.58 455.79,-84.58"/>
<polygon fill="#63b8ff" stroke="#63b8ff" points="458.17,-87.18 462.3,-77.42 452.98,-82.47 458.17,-87.18"/>
</a>
</g>
</g>
<!-- Node21&#45;&gt;Node15 -->
<g id="edge29_Node000021_Node000015" class="edge">
<title>Node21&#45;&gt;Node15</title>
<g id="a_edge29_Node000021_Node000015"><a xlink:title=" ">
<path fill="none" stroke="#63b8ff" d="M184.9,-111.53C224.38,-102.22 284.64,-88.01 326.43,-78.16"/>
<polygon fill="#63b8ff" stroke="#63b8ff" points="327.02,-81.61 335.95,-75.91 325.42,-74.8 327.02,-81.61"/>
</a>
</g>
</g>
<!-- Node21&#45;&gt;Node16 -->
<g id="edge30_Node000021_Node000016" class="edge">
<title>Node21&#45;&gt;Node16</title>
<g id="a_edge30_Node000021_Node000016"><a xlink:title=" ">
<path fill="none" stroke="#63b8ff" d="M203.03,-111.52C256.01,-102.89 336.69,-89.68 416.29,-76.4"/>
<polygon fill="#63b8ff" stroke="#63b8ff" points="416.73,-79.88 426.01,-74.78 415.57,-72.98 416.73,-79.88"/>
</a>
</g>
</g>
<!-- Node22&#45;&gt;Node15 -->
<g id="edge32_Node000022_Node000015" class="edge">
<title>Node22&#45;&gt;Node15</title>
<g id="a_edge32_Node000022_Node000015"><a xlink:title=" ">
<path fill="none" stroke="#63b8ff" d="M300.25,-111.59C313.57,-103.51 333.03,-91.71 348.58,-82.27"/>
<polygon fill="#63b8ff" stroke="#63b8ff" points="350.1,-85.44 356.83,-77.26 346.47,-79.46 350.1,-85.44"/>
</a>
</g>
</g>
<!-- Node22&#45;&gt;Node16 -->
<g id="edge33_Node000022_Node000016" class="edge">
<title>Node22&#45;&gt;Node16</title>
<g id="a_edge33_Node000022_Node000016"><a xlink:title=" ">
<path fill="none" stroke="#63b8ff" d="M317.32,-111.59C347.97,-102.74 394.09,-89.43 427.95,-79.65"/>
<polygon fill="#63b8ff" stroke="#63b8ff" points="428.83,-83.04 437.47,-76.9 426.89,-76.31 428.83,-83.04"/>
</a>
</g>
</g>
<!-- Node23&#45;&gt;Node15 -->
<g id="edge42_Node000023_Node000015" class="edge">
<title>Node23&#45;&gt;Node15</title>
<g id="a_edge42_Node000023_Node000015"><a xlink:title=" ">
<path fill="none" stroke="#63b8ff" d="M65.73,-113.73C68.77,-113.12 71.82,-112.53 74.75,-112 163.11,-95.9 266.92,-81.22 326.05,-73.25"/>
<polygon fill="#63b8ff" stroke="#63b8ff" points="326.32,-76.75 335.77,-71.95 325.39,-69.81 326.32,-76.75"/>
</a>
</g>
</g>
<!-- Node23&#45;&gt;Node16 -->
<g id="edge43_Node000023_Node000016" class="edge">
<title>Node23&#45;&gt;Node16</title>
<g id="a_edge43_Node000023_Node000016"><a xlink:title=" ">
<path fill="none" stroke="#63b8ff" d="M65.7,-113.59C68.75,-113.01 71.8,-112.47 74.75,-112 223.01,-88.43 264.52,-96.47 416.41,-76.23"/>
<polygon fill="#63b8ff" stroke="#63b8ff" points="416.6,-79.74 426.04,-74.93 415.66,-72.8 416.6,-79.74"/>
</a>
</g>
</g>
<!-- Node30 -->
<g id="Node000030" class="node">
<title>Node30</title>
<g id="a_Node000030"><a xlink:href="IRepository_8hpp.html" target="_top" xlink:title=" ">
<polygon fill="white" stroke="#666666" points="1556.88,-132 1472.62,-132 1472.62,-112 1556.88,-112 1556.88,-132"/>
<text text-anchor="middle" x="1514.75" y="-118.5" font-family="Helvetica,sans-Serif" font-size="10.00">IRepository.hpp</text>
</a>
</g>
</g>
<!-- Node29&#45;&gt;Node30 -->
<g id="edge55_Node000029_Node000030" class="edge">
<title>Node29&#45;&gt;Node30</title>
<g id="a_edge55_Node000029_Node000030"><a xlink:title=" ">
<path fill="none" stroke="#63b8ff" d="M1519.7,-167.59C1518.97,-161.01 1517.97,-151.96 1517.05,-143.73"/>
<polygon fill="#63b8ff" stroke="#63b8ff" points="1520.53,-143.35 1515.95,-133.8 1513.58,-144.13 1520.53,-143.35"/>
</a>
</g>
</g>
<!-- Node31 -->
<g id="Node000031" class="node">
<title>Node31</title>
<g id="a_Node000031"><a xlink:href="NotificationDTO_8hpp.html" target="_top" xlink:title=" ">
<polygon fill="white" stroke="#666666" points="1367.38,-132 1262.12,-132 1262.12,-112 1367.38,-112 1367.38,-132"/>
<text text-anchor="middle" x="1314.75" y="-118.5" font-family="Helvetica,sans-Serif" font-size="10.00">NotificationDTO.hpp</text>
</a>
</g>
</g>
<!-- Node29&#45;&gt;Node31 -->
<g id="edge57_Node000029_Node000031" class="edge">
<title>Node29&#45;&gt;Node31</title>
<g id="a_edge57_Node000029_Node000031"><a xlink:title=" ">
<path fill="none" stroke="#63b8ff" d="M1484.87,-167.59C1450.81,-158.67 1399.42,-145.19 1362.03,-135.39"/>
<polygon fill="#63b8ff" stroke="#63b8ff" points="1362.94,-132.01 1352.38,-132.86 1361.16,-138.78 1362.94,-132.01"/>
</a>
</g>
</g>
<!-- Node30&#45;&gt;Node8 -->
<g id="edge56_Node000030_Node000008" class="edge">
<title>Node30&#45;&gt;Node8</title>
<g id="a_edge56_Node000030_Node000008"><a xlink:title=" ">
<path fill="none" stroke="#63b8ff" d="M1508.83,-111.59C1504.39,-104.55 1498.17,-94.67 1492.71,-86"/>
<polygon fill="#63b8ff" stroke="#63b8ff" points="1495.7,-84.18 1487.41,-77.58 1489.78,-87.91 1495.7,-84.18"/>
</a>
</g>
</g>
<!-- Node31&#45;&gt;Node10 -->
<g id="edge59_Node000031_Node000010" class="edge">
<title>Node31&#45;&gt;Node10</title>
<g id="a_edge59_Node000031_Node000010"><a xlink:title=" ">
<path fill="none" stroke="#63b8ff" d="M1328.86,-111.59C1340.75,-103.67 1358.02,-92.16 1372.03,-82.82"/>
<polygon fill="#63b8ff" stroke="#63b8ff" points="1373.89,-85.78 1380.27,-77.32 1370.01,-79.95 1373.89,-85.78"/>
</a>
</g>
</g>
<!-- Node31&#45;&gt;Node13 -->
<g id="edge58_Node000031_Node000013" class="edge">
<title>Node31&#45;&gt;Node13</title>
<g id="a_edge58_Node000031_Node000013"><a xlink:title=" ">
<path fill="none" stroke="#63b8ff" d="M1312.66,-111.59C1311.18,-104.93 1309.14,-95.75 1307.29,-87.44"/>
<polygon fill="#63b8ff" stroke="#63b8ff" points="1310.73,-86.78 1305.14,-77.78 1303.9,-88.3 1310.73,-86.78"/>
</a>
</g>
</g>
</g>
</svg>
