<?xml version="1.0" encoding="UTF-8" standalone="no"?>
<!DOCTYPE svg PUBLIC "-//W3C//DTD SVG 1.1//EN"
 "http://www.w3.org/Graphics/SVG/1.1/DTD/svg11.dtd">
<!-- Generated by graphviz version 14.1.5 (0)
 -->
<!-- Title: src/bot_library/commands/notification/RemoveNotificationCommand.cpp Pages: 1 -->
<svg width="1731pt" height="500pt"
 viewBox="0.00 0.00 1731.00 500.00" xmlns="http://www.w3.org/2000/svg" xmlns:xlink="http://www.w3.org/1999/xlink">
<g id="graph0" class="graph" transform="scale(1 1) rotate(0) translate(4 496)">
<title>src/bot_library/commands/notification/RemoveNotificationCommand.cpp</title>
<!-- Node1 -->
<g id="Node000001" class="node">
<title>Node1</title>
<g id="a_Node000001"><a xlink:title=" ">
<polygon fill="#999999" stroke="#666666" points="1433.12,-492 1277.62,-492 1277.62,-448 1433.12,-448 1433.12,-492"/>
<text xml:space="preserve" text-anchor="start" x="1285.62" y="-478.5" font-family="Helvetica,sans-Serif" font-size="10.00">src/bot_library/commands</text>
<text xml:space="preserve" text-anchor="start" x="1285.62" y="-466.5" font-family="Helvetica,sans-Serif" font-size="10.00">/notification/RemoveNotification</text>
<text xml:space="preserve" text-anchor="middle" x="1355.38" y="-454.5" font-family="Helvetica,sans-Serif" font-size="10.00">Command.cpp</text>
</a>
</g>
</g>
<!-- Node2 -->
<g id="Node000002" class="node">
<title>Node2</title>
<g id="a_Node000002"><a xlink:href="RemoveNotificationCommand_8hpp.html" target="_top" xlink:title=" ">
<polygon fill="white" stroke="#666666" points="1383.38,-412 1217.38,-412 1217.38,-392 1383.38,-392 1383.38,-412"/>
<text xml:space="preserve" text-anchor="middle" x="1300.38" y="-398.5" font-family="Helvetica,sans-Serif" font-size="10.00">RemoveNotificationCommand.hpp</text>
</a>
</g>
</g>
<!-- Node1&#45;&gt;Node2 -->
<g id="edge1_Node000001_Node000002" class="edge">
<title>Node1&#45;&gt;Node2</title>
<g id="a_edge1_Node000001_Node000002"><a xlink:title=" ">
<path fill="none" stroke="#63b8ff" d="M1337.67,-447.75C1330.54,-439.2 1322.39,-429.42 1315.54,-421.2"/>
<polygon fill="#63b8ff" stroke="#63b8ff" points="1318.28,-419.02 1309.19,-413.58 1312.91,-423.5 1318.28,-419.02"/>
</a>
</g>
</g>
<!-- Node3 -->
<g id="Node000003" class="node">
<title>Node3</title>
<g id="a_Node000003"><a xlink:href="Bot_8hpp.html" target="_top" xlink:title=" ">
<polygon fill="white" stroke="#666666" points="1053.25,-356 1003.5,-356 1003.5,-336 1053.25,-336 1053.25,-356"/>
<text xml:space="preserve" text-anchor="middle" x="1028.38" y="-342.5" font-family="Helvetica,sans-Serif" font-size="10.00">Bot.hpp</text>
</a>
</g>
</g>
<!-- Node1&#45;&gt;Node3 -->
<g id="edge66_Node000001_Node000003" class="edge">
<title>Node1&#45;&gt;Node3</title>
<g id="a_edge66_Node000001_Node000003"><a xlink:title=" ">
<path fill="none" stroke="#63b8ff" d="M1298.04,-447.61C1230.56,-422.43 1120.55,-381.39 1064.17,-360.36"/>
<polygon fill="#63b8ff" stroke="#63b8ff" points="1065.65,-357.17 1055.06,-356.96 1063.2,-363.73 1065.65,-357.17"/>
</a>
</g>
</g>
<!-- Node4 -->
<g id="Node000004" class="node">
<title>Node4</title>
<g id="a_Node000004"><a xlink:href="Core_8hpp.html" target="_top" xlink:title=" ">
<polygon fill="white" stroke="#666666" points="783.25,-300 727.5,-300 727.5,-280 783.25,-280 783.25,-300"/>
<text xml:space="preserve" text-anchor="middle" x="755.38" y="-286.5" font-family="Helvetica,sans-Serif" font-size="10.00">Core.hpp</text>
</a>
</g>
</g>
<!-- Node1&#45;&gt;Node4 -->
<g id="edge59_Node000001_Node000004" class="edge">
<title>Node1&#45;&gt;Node4</title>
<g id="a_edge59_Node000001_Node000004"><a xlink:title=" ">
<path fill="none" stroke="#63b8ff" d="M1277.46,-447.99C1238.86,-437.45 1191.59,-424.32 1149.38,-412 1018.64,-373.85 864.53,-325.55 794.06,-303.27"/>
<polygon fill="#63b8ff" stroke="#63b8ff" points="795.51,-300.06 784.92,-300.38 793.4,-306.74 795.51,-300.06"/>
</a>
</g>
</g>
<!-- Node22 -->
<g id="Node000022" class="node">
<title>Node22</title>
<g id="a_Node000022"><a xlink:title=" ">
<polygon fill="#e0e0e0" stroke="#999999" points="1414.75,-188 1332,-188 1332,-168 1414.75,-168 1414.75,-188"/>
<text xml:space="preserve" text-anchor="middle" x="1373.38" y="-174.5" font-family="Helvetica,sans-Serif" font-size="10.00">appcommand.h</text>
</a>
</g>
</g>
<!-- Node1&#45;&gt;Node22 -->
<g id="edge55_Node000001_Node000022" class="edge">
<title>Node1&#45;&gt;Node22</title>
<g id="a_edge55_Node000001_Node000022"><a xlink:title=" ">
<path fill="none" stroke="#63b8ff" d="M1371.51,-447.74C1378.73,-437.4 1386.85,-424.52 1392.38,-412 1423.56,-341.4 1426.52,-320.55 1436.38,-244 1437.51,-235.18 1440.44,-231.9 1436.38,-224 1429.74,-211.11 1417.52,-201.1 1405.6,-193.83"/>
<polygon fill="#63b8ff" stroke="#63b8ff" points="1407.54,-190.9 1397.1,-189.09 1404.14,-197.02 1407.54,-190.9"/>
</a>
</g>
</g>
<!-- Node28 -->
<g id="Node000028" class="node">
<title>Node28</title>
<g id="a_Node000028"><a xlink:title=" ">
<polygon fill="#e0e0e0" stroke="#999999" points="1554.62,-412 1504.12,-412 1504.12,-392 1554.62,-392 1554.62,-412"/>
<text xml:space="preserve" text-anchor="middle" x="1529.38" y="-398.5" font-family="Helvetica,sans-Serif" font-size="10.00">colors.h</text>
</a>
</g>
</g>
<!-- Node1&#45;&gt;Node28 -->
<g id="edge56_Node000001_Node000028" class="edge">
<title>Node1&#45;&gt;Node28</title>
<g id="a_edge56_Node000001_Node000028"><a xlink:title=" ">
<path fill="none" stroke="#63b8ff" d="M1411.87,-447.57C1438.94,-437.3 1470.52,-425.32 1494.12,-416.37"/>
<polygon fill="#63b8ff" stroke="#63b8ff" points="1495.16,-419.72 1503.27,-412.9 1492.68,-413.18 1495.16,-419.72"/>
</a>
</g>
</g>
<!-- Node29 -->
<g id="Node000029" class="node">
<title>Node29</title>
<g id="a_Node000029"><a xlink:title=" ">
<polygon fill="#e0e0e0" stroke="#999999" points="1636.38,-412 1572.38,-412 1572.38,-392 1636.38,-392 1636.38,-412"/>
<text xml:space="preserve" text-anchor="middle" x="1604.38" y="-398.5" font-family="Helvetica,sans-Serif" font-size="10.00">message.h</text>
</a>
</g>
</g>
<!-- Node1&#45;&gt;Node29 -->
<g id="edge57_Node000001_Node000029" class="edge">
<title>Node1&#45;&gt;Node29</title>
<g id="a_edge57_Node000001_Node000029"><a xlink:title=" ">
<path fill="none" stroke="#63b8ff" d="M1433.48,-448.3C1475.69,-437.11 1526.21,-423.72 1561.32,-414.41"/>
<polygon fill="#63b8ff" stroke="#63b8ff" points="1561.92,-417.87 1570.69,-411.93 1560.12,-411.11 1561.92,-417.87"/>
</a>
</g>
</g>
<!-- Node30 -->
<g id="Node000030" class="node">
<title>Node30</title>
<g id="a_Node000030"><a xlink:title=" ">
<polygon fill="#e0e0e0" stroke="#999999" points="1722.62,-412 1654.12,-412 1654.12,-392 1722.62,-392 1722.62,-412"/>
<text xml:space="preserve" text-anchor="middle" x="1688.38" y="-398.5" font-family="Helvetica,sans-Serif" font-size="10.00">snowflake.h</text>
</a>
</g>
</g>
<!-- Node1&#45;&gt;Node30 -->
<g id="edge58_Node000001_Node000030" class="edge">
<title>Node1&#45;&gt;Node30</title>
<g id="a_edge58_Node000001_Node000030"><a xlink:title=" ">
<path fill="none" stroke="#63b8ff" d="M1433.59,-453.9C1489.24,-443.09 1566.11,-428.03 1642.4,-412.59"/>
<polygon fill="#63b8ff" stroke="#63b8ff" points="1643.06,-416.02 1652.17,-410.61 1641.67,-409.16 1643.06,-416.02"/>
</a>
</g>
</g>
<!-- Node31 -->
<g id="Node000031" class="node">
<title>Node31</title>
<g id="a_Node000031"><a xlink:href="NotificationRepository_8hpp.html" target="_top" xlink:title=" ">
<polygon fill="white" stroke="#666666" points="130.75,-244 0,-244 0,-224 130.75,-224 130.75,-244"/>
<text xml:space="preserve" text-anchor="middle" x="65.38" y="-230.5" font-family="Helvetica,sans-Serif" font-size="10.00">NotificationRepository.hpp</text>
</a>
</g>
</g>
<!-- Node1&#45;&gt;Node31 -->
<g id="edge60_Node000001_Node000031" class="edge">
<title>Node1&#45;&gt;Node31</title>
<g id="a_edge60_Node000001_Node000031"><a xlink:title=" ">
<path fill="none" stroke="#63b8ff" d="M1277.33,-457.11C1109.11,-431.17 699.99,-366.51 359.38,-300 273.76,-283.28 174.84,-260.74 116.33,-247.07"/>
<polygon fill="#63b8ff" stroke="#63b8ff" points="117.2,-243.68 106.66,-244.8 115.6,-250.49 117.2,-243.68"/>
</a>
</g>
</g>
<!-- Node2&#45;&gt;Node3 -->
<g id="edge2_Node000002_Node000003" class="edge">
<title>Node2&#45;&gt;Node3</title>
<g id="a_edge2_Node000002_Node000003"><a xlink:title=" ">
<path fill="none" stroke="#63b8ff" d="M1252.68,-391.53C1199.06,-380.89 1113.15,-363.83 1064.7,-354.21"/>
<polygon fill="#63b8ff" stroke="#63b8ff" points="1065.49,-350.8 1055,-352.29 1064.12,-357.67 1065.49,-350.8"/>
</a>
</g>
</g>
<!-- Node3&#45;&gt;Node4 -->
<g id="edge3_Node000003_Node000004" class="edge">
<title>Node3&#45;&gt;Node4</title>
<g id="a_edge3_Node000003_Node000004"><a xlink:title=" ">
<path fill="none" stroke="#63b8ff" d="M1003.18,-340.02C955.39,-330.56 851.27,-309.97 794.39,-298.72"/>
<polygon fill="#63b8ff" stroke="#63b8ff" points="795.31,-295.33 784.82,-296.83 793.96,-302.2 795.31,-295.33"/>
</a>
</g>
</g>
<!-- Node8 -->
<g id="Node000008" class="node">
<title>Node8</title>
<g id="a_Node000008"><a xlink:title=" ">
<polygon fill="#e0e0e0" stroke="#999999" points="297.38,-132 257.38,-132 257.38,-112 297.38,-112 297.38,-132"/>
<text xml:space="preserve" text-anchor="middle" x="277.38" y="-118.5" font-family="Helvetica,sans-Serif" font-size="10.00">string</text>
</a>
</g>
</g>
<!-- Node3&#45;&gt;Node8 -->
<g id="edge53_Node000003_Node000008" class="edge">
<title>Node3&#45;&gt;Node8</title>
<g id="a_edge53_Node000003_Node000008"><a xlink:title=" ">
<path fill="none" stroke="#63b8ff" d="M1003.1,-343.66C875.09,-336.65 302.27,-302.15 251.38,-244 245.52,-237.31 246.42,-231.38 251.38,-224 274.93,-188.92 315.82,-223.08 339.38,-188 352.28,-168.77 329.36,-149.98 307.83,-137.59"/>
<polygon fill="#63b8ff" stroke="#63b8ff" points="309.64,-134.6 299.18,-132.93 306.32,-140.76 309.64,-134.6"/>
</a>
</g>
</g>
<!-- Node10 -->
<g id="Node000010" class="node">
<title>Node10</title>
<g id="a_Node000010"><a xlink:title=" ">
<polygon fill="#e0e0e0" stroke="#999999" points="1026.88,-132 983.88,-132 983.88,-112 1026.88,-112 1026.88,-132"/>
<text xml:space="preserve" text-anchor="middle" x="1005.38" y="-118.5" font-family="Helvetica,sans-Serif" font-size="10.00">vector</text>
</a>
</g>
</g>
<!-- Node3&#45;&gt;Node10 -->
<g id="edge54_Node000003_Node000010" class="edge">
<title>Node3&#45;&gt;Node10</title>
<g id="a_edge54_Node000003_Node000010"><a xlink:title=" ">
<path fill="none" stroke="#63b8ff" d="M1053.55,-342.73C1134.89,-334.82 1388.2,-305.56 1436.38,-244 1441.85,-237 1437.39,-232.83 1436.38,-224 1433.47,-198.62 1442.5,-184.94 1423.38,-168 1394.72,-142.61 1132.28,-128.61 1038.5,-124.39"/>
<polygon fill="#63b8ff" stroke="#63b8ff" points="1038.83,-120.9 1028.68,-123.95 1038.52,-127.89 1038.83,-120.9"/>
</a>
</g>
</g>
<!-- Node17 -->
<g id="Node000017" class="node">
<title>Node17</title>
<g id="a_Node000017"><a xlink:href="IButtonCommand_8hpp.html" target="_top" xlink:title=" ">
<polygon fill="white" stroke="#666666" points="1068,-244 956.75,-244 956.75,-224 1068,-224 1068,-244"/>
<text xml:space="preserve" text-anchor="middle" x="1012.38" y="-230.5" font-family="Helvetica,sans-Serif" font-size="10.00">IButtonCommand.hpp</text>
</a>
</g>
</g>
<!-- Node3&#45;&gt;Node17 -->
<g id="edge43_Node000003_Node000017" class="edge">
<title>Node3&#45;&gt;Node17</title>
<g id="a_edge43_Node000003_Node000017"><a xlink:title=" ">
<path fill="none" stroke="#63b8ff" d="M1027.01,-335.62C1024.45,-318.01 1018.86,-279.59 1015.38,-255.65"/>
<polygon fill="#63b8ff" stroke="#63b8ff" points="1018.86,-255.24 1013.95,-245.85 1011.93,-256.25 1018.86,-255.24"/>
</a>
</g>
</g>
<!-- Node20 -->
<g id="Node000020" class="node">
<title>Node20</title>
<g id="a_Node000020"><a xlink:href="IFormCommand_8hpp.html" target="_top" xlink:title=" ">
<polygon fill="white" stroke="#666666" points="1191,-244 1085.75,-244 1085.75,-224 1191,-224 1191,-244"/>
<text xml:space="preserve" text-anchor="middle" x="1138.38" y="-230.5" font-family="Helvetica,sans-Serif" font-size="10.00">IFormCommand.hpp</text>
</a>
</g>
</g>
<!-- Node3&#45;&gt;Node20 -->
<g id="edge44_Node000003_Node000020" class="edge">
<title>Node3&#45;&gt;Node20</title>
<g id="a_edge44_Node000003_Node000020"><a xlink:title=" ">
<path fill="none" stroke="#63b8ff" d="M1037.75,-335.62C1056.18,-317.19 1097.37,-276.01 1120.93,-252.44"/>
<polygon fill="#63b8ff" stroke="#63b8ff" points="1123.35,-254.97 1127.95,-245.43 1118.4,-250.02 1123.35,-254.97"/>
</a>
</g>
</g>
<!-- Node21 -->
<g id="Node000021" class="node">
<title>Node21</title>
<g id="a_Node000021"><a xlink:href="IGlobalSlashCommand_8hpp.html" target="_top" xlink:title=" ">
<polygon fill="white" stroke="#666666" points="1427,-244 1291.75,-244 1291.75,-224 1427,-224 1427,-244"/>
<text xml:space="preserve" text-anchor="middle" x="1359.38" y="-230.5" font-family="Helvetica,sans-Serif" font-size="10.00">IGlobalSlashCommand.hpp</text>
</a>
</g>
</g>
<!-- Node3&#45;&gt;Node21 -->
<g id="edge45_Node000003_Node000021" class="edge">
<title>Node3&#45;&gt;Node21</title>
<g id="a_edge45_Node000003_Node000021"><a xlink:title=" ">
<path fill="none" stroke="#63b8ff" d="M1053.53,-336.64C1110.83,-317.6 1251.45,-270.87 1320.22,-248.01"/>
<polygon fill="#63b8ff" stroke="#63b8ff" points="1321.19,-251.38 1329.58,-244.9 1318.98,-244.74 1321.19,-251.38"/>
</a>
</g>
</g>
<!-- Node23 -->
<g id="Node000023" class="node">
<title>Node23</title>
<g id="a_Node000023"><a xlink:href="IMemberCommand_8hpp.html" target="_top" xlink:title=" ">
<polygon fill="white" stroke="#666666" points="658.38,-244 540.38,-244 540.38,-224 658.38,-224 658.38,-244"/>
<text xml:space="preserve" text-anchor="middle" x="599.38" y="-230.5" font-family="Helvetica,sans-Serif" font-size="10.00">IMemberCommand.hpp</text>
</a>
</g>
</g>
<!-- Node3&#45;&gt;Node23 -->
<g id="edge46_Node000003_Node000023" class="edge">
<title>Node3&#45;&gt;Node23</title>
<g id="a_edge46_Node000003_Node000023"><a xlink:title=" ">
<path fill="none" stroke="#63b8ff" d="M1003.17,-344.35C949.45,-342.32 820.26,-334 718.38,-300 682.74,-288.11 645.3,-265.79 622.14,-250.66"/>
<polygon fill="#63b8ff" stroke="#63b8ff" points="624.09,-247.75 613.83,-245.12 620.21,-253.58 624.09,-247.75"/>
</a>
</g>
</g>
<!-- Node24 -->
<g id="Node000024" class="node">
<title>Node24</title>
<g id="a_Node000024"><a xlink:href="IMessageCommand_8hpp.html" target="_top" xlink:title=" ">
<polygon fill="white" stroke="#666666" points="798.62,-244 676.12,-244 676.12,-224 798.62,-224 798.62,-244"/>
<text xml:space="preserve" text-anchor="middle" x="737.38" y="-230.5" font-family="Helvetica,sans-Serif" font-size="10.00">IMessageCommand.hpp</text>
</a>
</g>
</g>
<!-- Node3&#45;&gt;Node24 -->
<g id="edge47_Node000003_Node000024" class="edge">
<title>Node3&#45;&gt;Node24</title>
<g id="a_edge47_Node000003_Node000024"><a xlink:title=" ">
<path fill="none" stroke="#63b8ff" d="M1003.45,-336.47C977.78,-327.62 936.64,-313.23 901.38,-300 855.9,-282.94 803.84,-262.07 770.8,-248.66"/>
<polygon fill="#63b8ff" stroke="#63b8ff" points="772.34,-245.51 761.76,-244.99 769.7,-252 772.34,-245.51"/>
</a>
</g>
</g>
<!-- Node25 -->
<g id="Node000025" class="node">
<title>Node25</title>
<g id="a_Node000025"><a xlink:href="IReactionCommand_8hpp.html" target="_top" xlink:title=" ">
<polygon fill="white" stroke="#666666" points="938.25,-244 816.5,-244 816.5,-224 938.25,-224 938.25,-244"/>
<text xml:space="preserve" text-anchor="middle" x="877.38" y="-230.5" font-family="Helvetica,sans-Serif" font-size="10.00">IReactionCommand.hpp</text>
</a>
</g>
</g>
<!-- Node3&#45;&gt;Node25 -->
<g id="edge48_Node000003_Node000025" class="edge">
<title>Node3&#45;&gt;Node25</title>
<g id="a_edge48_Node000003_Node000025"><a xlink:title=" ">
<path fill="none" stroke="#63b8ff" d="M1021.98,-335.53C1012.34,-321.83 992.9,-296.32 971.38,-280 954.22,-266.99 932.71,-256.36 914.59,-248.7"/>
<polygon fill="#63b8ff" stroke="#63b8ff" points="916.08,-245.53 905.5,-245 913.44,-252.01 916.08,-245.53"/>
</a>
</g>
</g>
<!-- Node26 -->
<g id="Node000026" class="node">
<title>Node26</title>
<g id="a_Node000026"><a xlink:href="IReady_8hpp.html" target="_top" xlink:title=" ">
<polygon fill="white" stroke="#666666" points="1274.12,-244 1208.62,-244 1208.62,-224 1274.12,-224 1274.12,-244"/>
<text xml:space="preserve" text-anchor="middle" x="1241.38" y="-230.5" font-family="Helvetica,sans-Serif" font-size="10.00">IReady.hpp</text>
</a>
</g>
</g>
<!-- Node3&#45;&gt;Node26 -->
<g id="edge49_Node000003_Node000026" class="edge">
<title>Node3&#45;&gt;Node26</title>
<g id="a_edge49_Node000003_Node000026"><a xlink:title=" ">
<path fill="none" stroke="#63b8ff" d="M1046.54,-335.62C1083.71,-316.42 1168.72,-272.52 1213.15,-249.58"/>
<polygon fill="#63b8ff" stroke="#63b8ff" points="1214.64,-252.75 1221.92,-245.05 1211.42,-246.53 1214.64,-252.75"/>
</a>
</g>
</g>
<!-- Node27 -->
<g id="Node000027" class="node">
<title>Node27</title>
<g id="a_Node000027"><a xlink:title=" ">
<polygon fill="#e0e0e0" stroke="#999999" points="962,-300 910.75,-300 910.75,-280 962,-280 962,-300"/>
<text xml:space="preserve" text-anchor="middle" x="936.38" y="-286.5" font-family="Helvetica,sans-Serif" font-size="10.00">memory</text>
</a>
</g>
</g>
<!-- Node3&#45;&gt;Node27 -->
<g id="edge52_Node000003_Node000027" class="edge">
<title>Node3&#45;&gt;Node27</title>
<g id="a_edge52_Node000003_Node000027"><a xlink:title=" ">
<path fill="none" stroke="#63b8ff" d="M1012.35,-335.59C998.58,-327.51 978.47,-315.71 962.4,-306.27"/>
<polygon fill="#63b8ff" stroke="#63b8ff" points="964.23,-303.29 953.83,-301.25 960.68,-309.33 964.23,-303.29"/>
</a>
</g>
</g>
<!-- Node5 -->
<g id="Node000005" class="node">
<title>Node5</title>
<g id="a_Node000005"><a xlink:title=" ">
<polygon fill="#e0e0e0" stroke="#999999" points="318.75,-244 260,-244 260,-224 318.75,-224 318.75,-244"/>
<text xml:space="preserve" text-anchor="middle" x="289.38" y="-230.5" font-family="Helvetica,sans-Serif" font-size="10.00">dpp/dpp.h</text>
</a>
</g>
</g>
<!-- Node4&#45;&gt;Node5 -->
<g id="edge4_Node000004_Node000005" class="edge">
<title>Node4&#45;&gt;Node5</title>
<g id="a_edge4_Node000004_Node000005"><a xlink:title=" ">
<path fill="none" stroke="#63b8ff" d="M727.16,-287.29C660.02,-282.94 485.34,-270.08 330.3,-244.31"/>
<polygon fill="#63b8ff" stroke="#63b8ff" points="331.11,-240.9 320.66,-242.69 329.94,-247.8 331.11,-240.9"/>
</a>
</g>
</g>
<!-- Node6 -->
<g id="Node000006" class="node">
<title>Node6</title>
<g id="a_Node000006"><a xlink:title=" ">
<polygon fill="#e0e0e0" stroke="#999999" points="427.88,-244 336.88,-244 336.88,-224 427.88,-224 427.88,-244"/>
<text xml:space="preserve" text-anchor="middle" x="382.38" y="-230.5" font-family="Helvetica,sans-Serif" font-size="10.00">dpp/misc&#45;enum.h</text>
</a>
</g>
</g>
<!-- Node4&#45;&gt;Node6 -->
<g id="edge5_Node000004_Node000006" class="edge">
<title>Node4&#45;&gt;Node6</title>
<g id="a_edge5_Node000004_Node000006"><a xlink:title=" ">
<path fill="none" stroke="#63b8ff" d="M727.27,-285.23C673.58,-277.99 552.45,-261.43 439.53,-244.3"/>
<polygon fill="#63b8ff" stroke="#63b8ff" points="440.19,-240.86 429.78,-242.82 439.14,-247.78 440.19,-240.86"/>
</a>
</g>
</g>
<!-- Node7 -->
<g id="Node000007" class="node">
<title>Node7</title>
<g id="a_Node000007"><a xlink:href="Database_8hpp.html" target="_top" xlink:title=" ">
<polygon fill="white" stroke="#666666" points="522.75,-244 446,-244 446,-224 522.75,-224 522.75,-244"/>
<text xml:space="preserve" text-anchor="middle" x="484.38" y="-230.5" font-family="Helvetica,sans-Serif" font-size="10.00">Database.hpp</text>
</a>
</g>
</g>
<!-- Node4&#45;&gt;Node7 -->
<g id="edge6_Node000004_Node000007" class="edge">
<title>Node4&#45;&gt;Node7</title>
<g id="a_edge6_Node000004_Node000007"><a xlink:title=" ">
<path fill="none" stroke="#63b8ff" d="M727.14,-283.37C681.48,-274.28 590.85,-256.22 534.16,-244.92"/>
<polygon fill="#63b8ff" stroke="#63b8ff" points="534.93,-241.51 524.44,-242.98 533.56,-248.37 534.93,-241.51"/>
</a>
</g>
</g>
<!-- Node4&#45;&gt;Node8 -->
<g id="edge42_Node000004_Node000008" class="edge">
<title>Node4&#45;&gt;Node8</title>
<g id="a_edge42_Node000004_Node000008"><a xlink:title=" ">
<path fill="none" stroke="#63b8ff" d="M727.03,-287.92C626.7,-283.89 292.19,-268.7 251.38,-244 219.4,-224.65 198.4,-201.3 215.38,-168 222.17,-154.67 234.97,-144.37 247.18,-137"/>
<polygon fill="#63b8ff" stroke="#63b8ff" points="248.76,-140.13 255.83,-132.24 245.38,-134 248.76,-140.13"/>
</a>
</g>
</g>
<!-- Node4&#45;&gt;Node17 -->
<g id="edge22_Node000004_Node000017" class="edge">
<title>Node4&#45;&gt;Node17</title>
<g id="a_edge22_Node000004_Node000017"><a xlink:title=" ">
<path fill="none" stroke="#63b8ff" d="M783.37,-283.12C824.66,-274.44 902.78,-258.03 956.18,-246.81"/>
<polygon fill="#63b8ff" stroke="#63b8ff" points="956.63,-250.29 965.7,-244.81 955.19,-243.44 956.63,-250.29"/>
</a>
</g>
</g>
<!-- Node4&#45;&gt;Node20 -->
<g id="edge25_Node000004_Node000020" class="edge">
<title>Node4&#45;&gt;Node20</title>
<g id="a_edge25_Node000004_Node000020"><a xlink:title=" ">
<path fill="none" stroke="#63b8ff" d="M783.38,-285.16C837.49,-277.72 960.44,-260.75 1074.15,-244.46"/>
<polygon fill="#63b8ff" stroke="#63b8ff" points="1074.58,-247.93 1083.98,-243.04 1073.58,-241 1074.58,-247.93"/>
</a>
</g>
</g>
<!-- Node4&#45;&gt;Node21 -->
<g id="edge28_Node000004_Node000021" class="edge">
<title>Node4&#45;&gt;Node21</title>
<g id="a_edge28_Node000004_Node000021"><a xlink:title=" ">
<path fill="none" stroke="#63b8ff" d="M783.74,-286.91C861.36,-281.13 1084.07,-264.07 1280.05,-244.31"/>
<polygon fill="#63b8ff" stroke="#63b8ff" points="1280.33,-247.8 1289.93,-243.31 1279.63,-240.84 1280.33,-247.8"/>
</a>
</g>
</g>
<!-- Node4&#45;&gt;Node23 -->
<g id="edge33_Node000004_Node000023" class="edge">
<title>Node4&#45;&gt;Node23</title>
<g id="a_edge33_Node000004_Node000023"><a xlink:title=" ">
<path fill="none" stroke="#63b8ff" d="M728.2,-279.59C703.08,-270.9 665.49,-257.89 637.4,-248.16"/>
<polygon fill="#63b8ff" stroke="#63b8ff" points="638.79,-244.94 628.19,-244.97 636.5,-251.55 638.79,-244.94"/>
</a>
</g>
</g>
<!-- Node4&#45;&gt;Node24 -->
<g id="edge36_Node000004_Node000024" class="edge">
<title>Node4&#45;&gt;Node24</title>
<g id="a_edge36_Node000004_Node000024"><a xlink:title=" ">
<path fill="none" stroke="#63b8ff" d="M752.24,-279.59C749.99,-272.86 746.89,-263.53 744.09,-255.15"/>
<polygon fill="#63b8ff" stroke="#63b8ff" points="747.44,-254.11 740.95,-245.73 740.8,-256.33 747.44,-254.11"/>
</a>
</g>
</g>
<!-- Node4&#45;&gt;Node25 -->
<g id="edge39_Node000004_Node000025" class="edge">
<title>Node4&#45;&gt;Node25</title>
<g id="a_edge39_Node000004_Node000025"><a xlink:title=" ">
<path fill="none" stroke="#63b8ff" d="M776.63,-279.59C795.66,-271.17 823.85,-258.69 845.58,-249.07"/>
<polygon fill="#63b8ff" stroke="#63b8ff" points="846.85,-252.34 854.57,-245.09 844.01,-245.94 846.85,-252.34"/>
</a>
</g>
</g>
<!-- Node7&#45;&gt;Node8 -->
<g id="edge7_Node000007_Node000008" class="edge">
<title>Node7&#45;&gt;Node8</title>
<g id="a_edge7_Node000007_Node000008"><a xlink:title=" ">
<path fill="none" stroke="#63b8ff" d="M469.02,-223.54C447.65,-210.5 407.6,-186.52 372.38,-168 351.18,-156.85 326.74,-145.31 307.97,-136.7"/>
<polygon fill="#63b8ff" stroke="#63b8ff" points="309.56,-133.58 299.01,-132.63 306.66,-139.95 309.56,-133.58"/>
</a>
</g>
</g>
<!-- Node9 -->
<g id="Node000009" class="node">
<title>Node9</title>
<g id="a_Node000009"><a xlink:title=" ">
<polygon fill="#e0e0e0" stroke="#999999" points="737,-132 697.75,-132 697.75,-112 737,-112 737,-132"/>
<text xml:space="preserve" text-anchor="middle" x="717.38" y="-118.5" font-family="Helvetica,sans-Serif" font-size="10.00">utility</text>
</a>
</g>
</g>
<!-- Node7&#45;&gt;Node9 -->
<g id="edge8_Node000007_Node000009" class="edge">
<title>Node7&#45;&gt;Node9</title>
<g id="a_edge8_Node000007_Node000009"><a xlink:title=" ">
<path fill="none" stroke="#63b8ff" d="M507.03,-223.5C528,-214.61 559.98,-200.82 587.38,-188 622.93,-171.36 663.28,-150.94 689.46,-137.48"/>
<polygon fill="#63b8ff" stroke="#63b8ff" points="690.8,-140.73 698.09,-133.03 687.6,-134.51 690.8,-140.73"/>
</a>
</g>
</g>
<!-- Node7&#45;&gt;Node10 -->
<g id="edge9_Node000007_Node000010" class="edge">
<title>Node7&#45;&gt;Node10</title>
<g id="a_edge9_Node000007_Node000010"><a xlink:title=" ">
<path fill="none" stroke="#63b8ff" d="M523.11,-224.82C621.61,-204.02 880.36,-149.39 972.34,-129.97"/>
<polygon fill="#63b8ff" stroke="#63b8ff" points="972.91,-133.43 981.97,-127.94 971.46,-126.58 972.91,-133.43"/>
</a>
</g>
</g>
<!-- Node11 -->
<g id="Node000011" class="node">
<title>Node11</title>
<g id="a_Node000011"><a xlink:href="DatabaseBackend_8hpp.html" target="_top" xlink:title=" ">
<polygon fill="white" stroke="#666666" points="427.88,-76 312.88,-76 312.88,-56 427.88,-56 427.88,-76"/>
<text xml:space="preserve" text-anchor="middle" x="370.38" y="-62.5" font-family="Helvetica,sans-Serif" font-size="10.00">DatabaseBackend.hpp</text>
</a>
</g>
</g>
<!-- Node7&#45;&gt;Node11 -->
<g id="edge10_Node000007_Node000011" class="edge">
<title>Node7&#45;&gt;Node11</title>
<g id="a_edge10_Node000007_Node000011"><a xlink:title=" ">
<path fill="none" stroke="#63b8ff" d="M445.62,-225.65C442.49,-225.08 439.38,-224.53 436.38,-224 387.36,-215.41 247.61,-225.91 215.38,-188 194.15,-163.04 227.9,-129.1 248.38,-112 266.53,-96.83 290.27,-86.54 311.97,-79.68"/>
<polygon fill="#63b8ff" stroke="#63b8ff" points="312.72,-83.11 321.31,-76.92 310.73,-76.4 312.72,-83.11"/>
</a>
</g>
</g>
<!-- Node13 -->
<g id="Node000013" class="node">
<title>Node13</title>
<g id="a_Node000013"><a xlink:href="DatabaseExecutor_8hpp.html" target="_top" xlink:title=" ">
<polygon fill="white" stroke="#666666" points="578.25,-188 462.5,-188 462.5,-168 578.25,-168 578.25,-188"/>
<text xml:space="preserve" text-anchor="middle" x="520.38" y="-174.5" font-family="Helvetica,sans-Serif" font-size="10.00">DatabaseExecutor.hpp</text>
</a>
</g>
</g>
<!-- Node7&#45;&gt;Node13 -->
<g id="edge12_Node000007_Node000013" class="edge">
<title>Node7&#45;&gt;Node13</title>
<g id="a_edge12_Node000007_Node000013"><a xlink:title=" ">
<path fill="none" stroke="#63b8ff" d="M490.65,-223.59C495.39,-216.47 502.07,-206.45 507.9,-197.72"/>
<polygon fill="#63b8ff" stroke="#63b8ff" points="510.7,-199.82 513.34,-189.56 504.88,-195.94 510.7,-199.82"/>
</a>
</g>
</g>
<!-- Node16 -->
<g id="Node000016" class="node">
<title>Node16</title>
<g id="a_Node000016"><a xlink:href="RowDTOAdapter_8hpp.html" target="_top" xlink:title=" ">
<polygon fill="white" stroke="#666666" points="425.25,-132 315.5,-132 315.5,-112 425.25,-112 425.25,-132"/>
<text xml:space="preserve" text-anchor="middle" x="370.38" y="-118.5" font-family="Helvetica,sans-Serif" font-size="10.00">RowDTOAdapter.hpp</text>
</a>
</g>
</g>
<!-- Node7&#45;&gt;Node16 -->
<g id="edge21_Node000007_Node000016" class="edge">
<title>Node7&#45;&gt;Node16</title>
<g id="a_edge21_Node000007_Node000016"><a xlink:title=" ">
<path fill="none" stroke="#63b8ff" d="M474.66,-223.62C455.47,-205.11 412.5,-163.65 388.13,-140.13"/>
<polygon fill="#63b8ff" stroke="#63b8ff" points="390.79,-137.83 381.16,-133.41 385.93,-142.87 390.79,-137.83"/>
</a>
</g>
</g>
<!-- Node12 -->
<g id="Node000012" class="node">
<title>Node12</title>
<g id="a_Node000012"><a xlink:title=" ">
<polygon fill="#e0e0e0" stroke="#999999" points="400.88,-20 339.88,-20 339.88,0 400.88,0 400.88,-20"/>
<text xml:space="preserve" text-anchor="middle" x="370.38" y="-6.5" font-family="Helvetica,sans-Serif" font-size="10.00">pqxx/pqxx</text>
</a>
</g>
</g>
<!-- Node11&#45;&gt;Node12 -->
<g id="edge11_Node000011_Node000012" class="edge">
<title>Node11&#45;&gt;Node12</title>
<g id="a_edge11_Node000011_Node000012"><a xlink:title=" ">
<path fill="none" stroke="#63b8ff" d="M370.38,-55.59C370.38,-49.01 370.38,-39.96 370.38,-31.73"/>
<polygon fill="#63b8ff" stroke="#63b8ff" points="373.88,-31.81 370.38,-21.81 366.88,-31.81 373.88,-31.81"/>
</a>
</g>
</g>
<!-- Node13&#45;&gt;Node8 -->
<g id="edge14_Node000013_Node000008" class="edge">
<title>Node13&#45;&gt;Node8</title>
<g id="a_edge14_Node000013_Node000008"><a xlink:title=" ">
<path fill="none" stroke="#63b8ff" d="M468.6,-167.52C427.53,-159.69 368.47,-147.72 308.41,-132.34"/>
<polygon fill="#63b8ff" stroke="#63b8ff" points="309.61,-129.04 299.05,-129.92 307.85,-135.81 309.61,-129.04"/>
</a>
</g>
</g>
<!-- Node13&#45;&gt;Node9 -->
<g id="edge15_Node000013_Node000009" class="edge">
<title>Node13&#45;&gt;Node9</title>
<g id="a_edge15_Node000013_Node000009"><a xlink:title=" ">
<path fill="none" stroke="#63b8ff" d="M558.12,-167.54C590.12,-159.38 637.48,-147.01 686.67,-132.7"/>
<polygon fill="#63b8ff" stroke="#63b8ff" points="687.46,-136.11 696.08,-129.94 685.5,-129.4 687.46,-136.11"/>
</a>
</g>
</g>
<!-- Node13&#45;&gt;Node10 -->
<g id="edge16_Node000013_Node000010" class="edge">
<title>Node13&#45;&gt;Node10</title>
<g id="a_edge16_Node000013_Node000010"><a xlink:title=" ">
<path fill="none" stroke="#63b8ff" d="M578.4,-170.54C681.1,-159.1 891.69,-135.66 972.66,-126.64"/>
<polygon fill="#63b8ff" stroke="#63b8ff" points="972.8,-130.15 982.35,-125.56 972.02,-123.19 972.8,-130.15"/>
</a>
</g>
</g>
<!-- Node14 -->
<g id="Node000014" class="node">
<title>Node14</title>
<g id="a_Node000014"><a xlink:title=" ">
<polygon fill="#e0e0e0" stroke="#999999" points="497.12,-132 443.62,-132 443.62,-112 497.12,-112 497.12,-132"/>
<text xml:space="preserve" text-anchor="middle" x="470.38" y="-118.5" font-family="Helvetica,sans-Serif" font-size="10.00">iostream</text>
</a>
</g>
</g>
<!-- Node13&#45;&gt;Node14 -->
<g id="edge13_Node000013_Node000014" class="edge">
<title>Node13&#45;&gt;Node14</title>
<g id="a_edge13_Node000013_Node000014"><a xlink:title=" ">
<path fill="none" stroke="#63b8ff" d="M511.67,-167.59C504.78,-160.16 494.98,-149.58 486.66,-140.58"/>
<polygon fill="#63b8ff" stroke="#63b8ff" points="489.38,-138.37 480.01,-133.41 484.24,-143.12 489.38,-138.37"/>
</a>
</g>
</g>
<!-- Node15 -->
<g id="Node000015" class="node">
<title>Node15</title>
<g id="a_Node000015"><a xlink:href="IDatabaseConnectionProvider_8hpp.html" target="_top" xlink:title=" ">
<polygon fill="white" stroke="#666666" points="680,-132 514.75,-132 514.75,-112 680,-112 680,-132"/>
<text xml:space="preserve" text-anchor="middle" x="597.38" y="-118.5" font-family="Helvetica,sans-Serif" font-size="10.00">IDatabaseConnectionProvider.hpp</text>
</a>
</g>
</g>
<!-- Node13&#45;&gt;Node15 -->
<g id="edge17_Node000013_Node000015" class="edge">
<title>Node13&#45;&gt;Node15</title>
<g id="a_edge17_Node000013_Node000015"><a xlink:title=" ">
<path fill="none" stroke="#63b8ff" d="M533.79,-167.59C544.98,-159.74 561.19,-148.38 574.43,-139.09"/>
<polygon fill="#63b8ff" stroke="#63b8ff" points="576.44,-141.96 582.62,-133.35 572.42,-136.22 576.44,-141.96"/>
</a>
</g>
</g>
<!-- Node13&#45;&gt;Node16 -->
<g id="edge19_Node000013_Node000016" class="edge">
<title>Node13&#45;&gt;Node16</title>
<g id="a_edge19_Node000013_Node000016"><a xlink:title=" ">
<path fill="none" stroke="#63b8ff" d="M494.25,-167.59C470.2,-158.94 434.27,-146 407.29,-136.29"/>
<polygon fill="#63b8ff" stroke="#63b8ff" points="408.73,-133.09 398.13,-132.99 406.35,-139.67 408.73,-133.09"/>
</a>
</g>
</g>
<!-- Node15&#45;&gt;Node11 -->
<g id="edge18_Node000015_Node000011" class="edge">
<title>Node15&#45;&gt;Node11</title>
<g id="a_edge18_Node000015_Node000011"><a xlink:title=" ">
<path fill="none" stroke="#63b8ff" d="M557.57,-111.53C519.69,-102.52 462.49,-88.91 421.29,-79.11"/>
<polygon fill="#63b8ff" stroke="#63b8ff" points="422.14,-75.72 411.6,-76.81 420.52,-82.53 422.14,-75.72"/>
</a>
</g>
</g>
<!-- Node16&#45;&gt;Node11 -->
<g id="edge20_Node000016_Node000011" class="edge">
<title>Node16&#45;&gt;Node11</title>
<g id="a_edge20_Node000016_Node000011"><a xlink:title=" ">
<path fill="none" stroke="#63b8ff" d="M370.38,-111.59C370.38,-105.01 370.38,-95.96 370.38,-87.73"/>
<polygon fill="#63b8ff" stroke="#63b8ff" points="373.88,-87.81 370.38,-77.81 366.88,-87.81 373.88,-87.81"/>
</a>
</g>
</g>
<!-- Node18 -->
<g id="Node000018" class="node">
<title>Node18</title>
<g id="a_Node000018"><a xlink:title=" ">
<polygon fill="#e0e0e0" stroke="#999999" points="999.5,-188 927.25,-188 927.25,-168 999.5,-168 999.5,-188"/>
<text xml:space="preserve" text-anchor="middle" x="963.38" y="-174.5" font-family="Helvetica,sans-Serif" font-size="10.00">dpp/cluster.h</text>
</a>
</g>
</g>
<!-- Node17&#45;&gt;Node18 -->
<g id="edge23_Node000017_Node000018" class="edge">
<title>Node17&#45;&gt;Node18</title>
<g id="a_edge23_Node000017_Node000018"><a xlink:title=" ">
<path fill="none" stroke="#63b8ff" d="M1003.84,-223.59C997.09,-216.16 987.49,-205.58 979.33,-196.58"/>
<polygon fill="#63b8ff" stroke="#63b8ff" points="982.14,-194.47 972.83,-189.42 976.96,-199.18 982.14,-194.47"/>
</a>
</g>
</g>
<!-- Node19 -->
<g id="Node000019" class="node">
<title>Node19</title>
<g id="a_Node000019"><a xlink:title=" ">
<polygon fill="#e0e0e0" stroke="#999999" points="1105.38,-188 1017.38,-188 1017.38,-168 1105.38,-168 1105.38,-188"/>
<text xml:space="preserve" text-anchor="middle" x="1061.38" y="-174.5" font-family="Helvetica,sans-Serif" font-size="10.00">dpp/dispatcher.h</text>
</a>
</g>
</g>
<!-- Node17&#45;&gt;Node19 -->
<g id="edge24_Node000017_Node000019" class="edge">
<title>Node17&#45;&gt;Node19</title>
<g id="a_edge24_Node000017_Node000019"><a xlink:title=" ">
<path fill="none" stroke="#63b8ff" d="M1020.91,-223.59C1027.66,-216.16 1037.26,-205.58 1045.42,-196.58"/>
<polygon fill="#63b8ff" stroke="#63b8ff" points="1047.79,-199.18 1051.92,-189.42 1042.61,-194.47 1047.79,-199.18"/>
</a>
</g>
</g>
<!-- Node20&#45;&gt;Node18 -->
<g id="edge26_Node000020_Node000018" class="edge">
<title>Node20&#45;&gt;Node18</title>
<g id="a_edge26_Node000020_Node000018"><a xlink:title=" ">
<path fill="none" stroke="#63b8ff" d="M1107.89,-223.59C1079.34,-214.78 1036.43,-201.54 1004.78,-191.78"/>
<polygon fill="#63b8ff" stroke="#63b8ff" points="1006.13,-188.53 995.54,-188.93 1004.07,-195.22 1006.13,-188.53"/>
</a>
</g>
</g>
<!-- Node20&#45;&gt;Node19 -->
<g id="edge27_Node000020_Node000019" class="edge">
<title>Node20&#45;&gt;Node19</title>
<g id="a_edge27_Node000020_Node000019"><a xlink:title=" ">
<path fill="none" stroke="#63b8ff" d="M1124.96,-223.59C1113.77,-215.74 1097.56,-204.38 1084.32,-195.09"/>
<polygon fill="#63b8ff" stroke="#63b8ff" points="1086.33,-192.22 1076.13,-189.35 1082.31,-197.96 1086.33,-192.22"/>
</a>
</g>
</g>
<!-- Node21&#45;&gt;Node10 -->
<g id="edge32_Node000021_Node000010" class="edge">
<title>Node21&#45;&gt;Node10</title>
<g id="a_edge32_Node000021_Node000010"><a xlink:title=" ">
<path fill="none" stroke="#63b8ff" d="M1328.89,-223.53C1262.62,-202.93 1105.95,-154.25 1037.88,-133.1"/>
<polygon fill="#63b8ff" stroke="#63b8ff" points="1039.03,-129.79 1028.44,-130.17 1036.95,-136.48 1039.03,-129.79"/>
</a>
</g>
</g>
<!-- Node21&#45;&gt;Node18 -->
<g id="edge30_Node000021_Node000018" class="edge">
<title>Node21&#45;&gt;Node18</title>
<g id="a_edge30_Node000021_Node000018"><a xlink:title=" ">
<path fill="none" stroke="#63b8ff" d="M1291.39,-224.86C1210.03,-215.02 1077.39,-198.66 1010.92,-188.29"/>
<polygon fill="#63b8ff" stroke="#63b8ff" points="1011.61,-184.85 1001.18,-186.73 1010.5,-191.77 1011.61,-184.85"/>
</a>
</g>
</g>
<!-- Node21&#45;&gt;Node19 -->
<g id="edge31_Node000021_Node000019" class="edge">
<title>Node21&#45;&gt;Node19</title>
<g id="a_edge31_Node000021_Node000019"><a xlink:title=" ">
<path fill="none" stroke="#63b8ff" d="M1307.13,-223.53C1253.83,-213.87 1171.44,-198.94 1116.96,-189.07"/>
<polygon fill="#63b8ff" stroke="#63b8ff" points="1117.73,-185.66 1107.27,-187.32 1116.49,-192.54 1117.73,-185.66"/>
</a>
</g>
</g>
<!-- Node21&#45;&gt;Node22 -->
<g id="edge29_Node000021_Node000022" class="edge">
<title>Node21&#45;&gt;Node22</title>
<g id="a_edge29_Node000021_Node000022"><a xlink:title=" ">
<path fill="none" stroke="#63b8ff" d="M1361.81,-223.59C1363.54,-216.93 1365.92,-207.75 1368.08,-199.44"/>
<polygon fill="#63b8ff" stroke="#63b8ff" points="1371.46,-200.32 1370.58,-189.76 1364.69,-198.56 1371.46,-200.32"/>
</a>
</g>
</g>
<!-- Node23&#45;&gt;Node18 -->
<g id="edge34_Node000023_Node000018" class="edge">
<title>Node23&#45;&gt;Node18</title>
<g id="a_edge34_Node000023_Node000018"><a xlink:title=" ">
<path fill="none" stroke="#63b8ff" d="M658.67,-224.2C730.31,-213.57 849.45,-195.9 915.53,-186.1"/>
<polygon fill="#63b8ff" stroke="#63b8ff" points="915.96,-189.57 925.34,-184.64 914.93,-182.65 915.96,-189.57"/>
</a>
</g>
</g>
<!-- Node23&#45;&gt;Node19 -->
<g id="edge35_Node000023_Node000019" class="edge">
<title>Node23&#45;&gt;Node19</title>
<g id="a_edge35_Node000023_Node000019"><a xlink:title=" ">
<path fill="none" stroke="#63b8ff" d="M658.7,-225.05C661.63,-224.69 664.54,-224.34 667.38,-224 815.16,-206.42 855.52,-208.65 1006.12,-188.23"/>
<polygon fill="#63b8ff" stroke="#63b8ff" points="1006.23,-191.75 1015.66,-186.93 1005.28,-184.82 1006.23,-191.75"/>
</a>
</g>
</g>
<!-- Node24&#45;&gt;Node18 -->
<g id="edge37_Node000024_Node000018" class="edge">
<title>Node24&#45;&gt;Node18</title>
<g id="a_edge37_Node000024_Node000018"><a xlink:title=" ">
<path fill="none" stroke="#63b8ff" d="M777,-223.53C815.65,-214.3 874.47,-200.24 915.67,-190.4"/>
<polygon fill="#63b8ff" stroke="#63b8ff" points="916.41,-193.82 925.32,-188.09 914.78,-187.01 916.41,-193.82"/>
</a>
</g>
</g>
<!-- Node24&#45;&gt;Node19 -->
<g id="edge38_Node000024_Node000019" class="edge">
<title>Node24&#45;&gt;Node19</title>
<g id="a_edge38_Node000024_Node000019"><a xlink:title=" ">
<path fill="none" stroke="#63b8ff" d="M794.75,-223.54C847.14,-214.88 927.07,-201.64 1006,-188.39"/>
<polygon fill="#63b8ff" stroke="#63b8ff" points="1006.36,-191.88 1015.64,-186.78 1005.2,-184.98 1006.36,-191.88"/>
</a>
</g>
</g>
<!-- Node25&#45;&gt;Node18 -->
<g id="edge40_Node000025_Node000018" class="edge">
<title>Node25&#45;&gt;Node18</title>
<g id="a_edge40_Node000025_Node000018"><a xlink:title=" ">
<path fill="none" stroke="#63b8ff" d="M892.36,-223.59C905.1,-215.59 923.67,-203.93 938.62,-194.54"/>
<polygon fill="#63b8ff" stroke="#63b8ff" points="940.39,-197.57 947,-189.28 936.67,-191.64 940.39,-197.57"/>
</a>
</g>
</g>
<!-- Node25&#45;&gt;Node19 -->
<g id="edge41_Node000025_Node000019" class="edge">
<title>Node25&#45;&gt;Node19</title>
<g id="a_edge41_Node000025_Node000019"><a xlink:title=" ">
<path fill="none" stroke="#63b8ff" d="M909.43,-223.59C939.58,-214.74 984.96,-201.43 1018.28,-191.65"/>
<polygon fill="#63b8ff" stroke="#63b8ff" points="1019.01,-195.08 1027.62,-188.91 1017.04,-188.36 1019.01,-195.08"/>
</a>
</g>
</g>
<!-- Node26&#45;&gt;Node18 -->
<g id="edge50_Node000026_Node000018" class="edge">
<title>Node26&#45;&gt;Node18</title>
<g id="a_edge50_Node000026_Node000018"><a xlink:title=" ">
<path fill="none" stroke="#63b8ff" d="M1208.28,-225.64C1205.6,-225.08 1202.95,-224.52 1200.38,-224 1118.79,-207.4 1095.5,-204.72 1010.92,-188.47"/>
<polygon fill="#63b8ff" stroke="#63b8ff" points="1011.69,-185.05 1001.2,-186.59 1010.36,-191.93 1011.69,-185.05"/>
</a>
</g>
</g>
<!-- Node26&#45;&gt;Node19 -->
<g id="edge51_Node000026_Node000019" class="edge">
<title>Node26&#45;&gt;Node19</title>
<g id="a_edge51_Node000026_Node000019"><a xlink:title=" ">
<path fill="none" stroke="#63b8ff" d="M1210.02,-223.59C1180.65,-214.78 1136.51,-201.54 1103.96,-191.78"/>
<polygon fill="#63b8ff" stroke="#63b8ff" points="1105.01,-188.44 1094.42,-188.91 1103,-195.14 1105.01,-188.44"/>
</a>
</g>
</g>
<!-- Node32 -->
<g id="Node000032" class="node">
<title>Node32</title>
<g id="a_Node000032"><a xlink:href="IRepository_8hpp.html" target="_top" xlink:title=" ">
<polygon fill="white" stroke="#666666" points="107.5,-188 23.25,-188 23.25,-168 107.5,-168 107.5,-188"/>
<text xml:space="preserve" text-anchor="middle" x="65.38" y="-174.5" font-family="Helvetica,sans-Serif" font-size="10.00">IRepository.hpp</text>
</a>
</g>
</g>
<!-- Node31&#45;&gt;Node32 -->
<g id="edge61_Node000031_Node000032" class="edge">
<title>Node31&#45;&gt;Node32</title>
<g id="a_edge61_Node000031_Node000032"><a xlink:title=" ">
<path fill="none" stroke="#63b8ff" d="M65.38,-223.59C65.38,-217.01 65.38,-207.96 65.38,-199.73"/>
<polygon fill="#63b8ff" stroke="#63b8ff" points="68.88,-199.81 65.38,-189.81 61.88,-199.81 68.88,-199.81"/>
</a>
</g>
</g>
<!-- Node34 -->
<g id="Node000034" class="node">
<title>Node34</title>
<g id="a_Node000034"><a xlink:href="NotificationDTO_8hpp.html" target="_top" xlink:title=" ">
<polygon fill="white" stroke="#666666" points="330,-188 224.75,-188 224.75,-168 330,-168 330,-188"/>
<text xml:space="preserve" text-anchor="middle" x="277.38" y="-174.5" font-family="Helvetica,sans-Serif" font-size="10.00">NotificationDTO.hpp</text>
</a>
</g>
</g>
<!-- Node31&#45;&gt;Node34 -->
<g id="edge63_Node000031_Node000034" class="edge">
<title>Node31&#45;&gt;Node34</title>
<g id="a_edge63_Node000031_Node000034"><a xlink:title=" ">
<path fill="none" stroke="#63b8ff" d="M102.3,-223.59C137.5,-214.63 190.7,-201.08 229.21,-191.27"/>
<polygon fill="#63b8ff" stroke="#63b8ff" points="229.87,-194.71 238.69,-188.85 228.14,-187.93 229.87,-194.71"/>
</a>
</g>
</g>
<!-- Node33 -->
<g id="Node000033" class="node">
<title>Node33</title>
<g id="a_Node000033"><a xlink:title=" ">
<polygon fill="#e0e0e0" stroke="#999999" points="89.5,-132 41.25,-132 41.25,-112 89.5,-112 89.5,-132"/>
<text xml:space="preserve" text-anchor="middle" x="65.38" y="-118.5" font-family="Helvetica,sans-Serif" font-size="10.00">cstddef</text>
</a>
</g>
</g>
<!-- Node32&#45;&gt;Node33 -->
<g id="edge62_Node000032_Node000033" class="edge">
<title>Node32&#45;&gt;Node33</title>
<g id="a_edge62_Node000032_Node000033"><a xlink:title=" ">
<path fill="none" stroke="#63b8ff" d="M65.38,-167.59C65.38,-161.01 65.38,-151.96 65.38,-143.73"/>
<polygon fill="#63b8ff" stroke="#63b8ff" points="68.88,-143.81 65.38,-133.81 61.88,-143.81 68.88,-143.81"/>
</a>
</g>
</g>
<!-- Node34&#45;&gt;Node8 -->
<g id="edge65_Node000034_Node000008" class="edge">
<title>Node34&#45;&gt;Node8</title>
<g id="a_edge65_Node000034_Node000008"><a xlink:title=" ">
<path fill="none" stroke="#63b8ff" d="M277.38,-167.59C277.38,-161.01 277.38,-151.96 277.38,-143.73"/>
<polygon fill="#63b8ff" stroke="#63b8ff" points="280.88,-143.81 277.38,-133.81 273.88,-143.81 280.88,-143.81"/>
</a>
</g>
</g>
<!-- Node34&#45;&gt;Node16 -->
<g id="edge64_Node000034_Node000016" class="edge">
<title>Node34&#45;&gt;Node16</title>
<g id="a_edge64_Node000034_Node000016"><a xlink:title=" ">
<path fill="none" stroke="#63b8ff" d="M293.57,-167.59C307.62,-159.44 328.21,-147.48 344.53,-138"/>
<polygon fill="#63b8ff" stroke="#63b8ff" points="345.85,-141.29 352.74,-133.24 342.33,-135.23 345.85,-141.29"/>
</a>
</g>
</g>
</g>
</svg>
