<?xml version="1.0" encoding="UTF-8" standalone="no"?>
<!DOCTYPE svg PUBLIC "-//W3C//DTD SVG 1.1//EN"
 "http://www.w3.org/Graphics/SVG/1.1/DTD/svg11.dtd">
<!-- Generated by graphviz version 10.0.1 (0)
 -->
<!-- Title: src/bot_library/commands/resources/ResourcesCommand.cpp Pages: 1 -->
<svg width="1562pt" height="376pt"
 viewBox="0.00 0.00 1562.12 376.00" xmlns="http://www.w3.org/2000/svg" xmlns:xlink="http://www.w3.org/1999/xlink">
<g id="graph0" class="graph" transform="scale(1 1) rotate(0) translate(4 372)">
<title>src/bot_library/commands/resources/ResourcesCommand.cpp</title>
<!-- Node1 -->
<g id="Node000001" class="node">
<title>Node1</title>
<g id="a_Node000001"><a xlink:title=" ">
<polygon fill="#999999" stroke="#666666" points="1072,-368 896.25,-368 896.25,-336 1072,-336 1072,-368"/>
<text text-anchor="start" x="904.25" y="-354.5" font-family="Helvetica,sans-Serif" font-size="10.00">src/bot_library/commands</text>
<text text-anchor="middle" x="984.12" y="-342.5" font-family="Helvetica,sans-Serif" font-size="10.00">/resources/ResourcesCommand.cpp</text>
</a>
</g>
</g>
<!-- Node2 -->
<g id="Node000002" class="node">
<title>Node2</title>
<g id="a_Node000002"><a xlink:href="ResourcesCommand_8hpp.html" target="_top" xlink:title=" ">
<polygon fill="white" stroke="#666666" points="994.62,-300 867.62,-300 867.62,-280 994.62,-280 994.62,-300"/>
<text text-anchor="middle" x="931.12" y="-286.5" font-family="Helvetica,sans-Serif" font-size="10.00">ResourcesCommand.hpp</text>
</a>
</g>
</g>
<!-- Node1&#45;&gt;Node2 -->
<g id="edge1_Node000001_Node000002" class="edge">
<title>Node1&#45;&gt;Node2</title>
<g id="a_edge1_Node000001_Node000002"><a xlink:title=" ">
<path fill="none" stroke="#63b8ff" d="M970.48,-335.55C963.27,-327.39 954.39,-317.33 946.89,-308.84"/>
<polygon fill="#63b8ff" stroke="#63b8ff" points="949.68,-306.72 940.44,-301.54 944.43,-311.35 949.68,-306.72"/>
</a>
</g>
</g>
<!-- Node4 -->
<g id="Node000004" class="node">
<title>Node4</title>
<g id="a_Node000004"><a xlink:href="Core_8hpp.html" target="_top" xlink:title=" ">
<polygon fill="white" stroke="#666666" points="792,-188 736.25,-188 736.25,-168 792,-168 792,-188"/>
<text text-anchor="middle" x="764.12" y="-174.5" font-family="Helvetica,sans-Serif" font-size="10.00">Core.hpp</text>
</a>
</g>
</g>
<!-- Node1&#45;&gt;Node4 -->
<g id="edge51_Node000001_Node000004" class="edge">
<title>Node1&#45;&gt;Node4</title>
<g id="a_edge51_Node000001_Node000004"><a xlink:title=" ">
<path fill="none" stroke="#63b8ff" d="M929.24,-335.53C906.15,-327.34 879.89,-315.67 859.12,-300 821.25,-271.43 790.2,-224.25 774.74,-198.05"/>
<polygon fill="#63b8ff" stroke="#63b8ff" points="777.86,-196.45 769.84,-189.53 771.79,-199.94 777.86,-196.45"/>
</a>
</g>
</g>
<!-- Node19 -->
<g id="Node000019" class="node">
<title>Node19</title>
<g id="a_Node000019"><a xlink:title=" ">
<polygon fill="#e0e0e0" stroke="#999999" points="1542.5,-76 1459.75,-76 1459.75,-56 1542.5,-56 1542.5,-76"/>
<text text-anchor="middle" x="1501.12" y="-62.5" font-family="Helvetica,sans-Serif" font-size="10.00">appcommand.h</text>
</a>
</g>
</g>
<!-- Node1&#45;&gt;Node19 -->
<g id="edge48_Node000001_Node000019" class="edge">
<title>Node1&#45;&gt;Node19</title>
<g id="a_edge48_Node000001_Node000019"><a xlink:title=" ">
<path fill="none" stroke="#63b8ff" d="M1072.25,-351.07C1232.25,-348.79 1554.12,-332.14 1554.12,-235 1554.12,-235 1554.12,-235 1554.12,-177 1554.12,-141.84 1531.88,-106.07 1516.21,-85.23"/>
<polygon fill="#63b8ff" stroke="#63b8ff" points="1519.04,-83.17 1510.11,-77.46 1513.53,-87.49 1519.04,-83.17"/>
</a>
</g>
</g>
<!-- Node26 -->
<g id="Node000026" class="node">
<title>Node26</title>
<g id="a_Node000026"><a xlink:title=" ">
<polygon fill="#e0e0e0" stroke="#999999" points="1063.38,-300 1012.88,-300 1012.88,-280 1063.38,-280 1063.38,-300"/>
<text text-anchor="middle" x="1038.12" y="-286.5" font-family="Helvetica,sans-Serif" font-size="10.00">colors.h</text>
</a>
</g>
</g>
<!-- Node1&#45;&gt;Node26 -->
<g id="edge49_Node000001_Node000026" class="edge">
<title>Node1&#45;&gt;Node26</title>
<g id="a_edge49_Node000001_Node000026"><a xlink:title=" ">
<path fill="none" stroke="#63b8ff" d="M998.03,-335.55C1005.38,-327.39 1014.42,-317.33 1022.07,-308.84"/>
<polygon fill="#63b8ff" stroke="#63b8ff" points="1024.56,-311.31 1028.65,-301.53 1019.35,-306.62 1024.56,-311.31"/>
</a>
</g>
</g>
<!-- Node27 -->
<g id="Node000027" class="node">
<title>Node27</title>
<g id="a_Node000027"><a xlink:title=" ">
<polygon fill="#e0e0e0" stroke="#999999" points="1150.75,-300 1081.5,-300 1081.5,-280 1150.75,-280 1150.75,-300"/>
<text text-anchor="middle" x="1116.12" y="-286.5" font-family="Helvetica,sans-Serif" font-size="10.00">dispatcher.h</text>
</a>
</g>
</g>
<!-- Node1&#45;&gt;Node27 -->
<g id="edge50_Node000001_Node000027" class="edge">
<title>Node1&#45;&gt;Node27</title>
<g id="a_edge50_Node000001_Node000027"><a xlink:title=" ">
<path fill="none" stroke="#63b8ff" d="M1018.12,-335.55C1038.74,-326.17 1064.87,-314.3 1084.96,-305.17"/>
<polygon fill="#63b8ff" stroke="#63b8ff" points="1086.39,-308.36 1094.05,-301.03 1083.5,-301.99 1086.39,-308.36"/>
</a>
</g>
</g>
<!-- Node28 -->
<g id="Node000028" class="node">
<title>Node28</title>
<g id="a_Node000028"><a xlink:href="ResourceRepository_8hpp.html" target="_top" xlink:title=" ">
<polygon fill="white" stroke="#666666" points="212.75,-188 89.5,-188 89.5,-168 212.75,-168 212.75,-188"/>
<text text-anchor="middle" x="151.12" y="-174.5" font-family="Helvetica,sans-Serif" font-size="10.00">ResourceRepository.hpp</text>
</a>
</g>
</g>
<!-- Node1&#45;&gt;Node28 -->
<g id="edge52_Node000001_Node000028" class="edge">
<title>Node1&#45;&gt;Node28</title>
<g id="a_edge52_Node000001_Node000028"><a xlink:title=" ">
<path fill="none" stroke="#63b8ff" d="M909.1,-335.51C744.43,-301.51 354.36,-220.97 207.96,-190.74"/>
<polygon fill="#63b8ff" stroke="#63b8ff" points="209.01,-187.38 198.5,-188.78 207.59,-194.23 209.01,-187.38"/>
</a>
</g>
</g>
<!-- Node3 -->
<g id="Node000003" class="node">
<title>Node3</title>
<g id="a_Node000003"><a xlink:href="Bot_8hpp.html" target="_top" xlink:title=" ">
<polygon fill="white" stroke="#666666" points="962,-244 912.25,-244 912.25,-224 962,-224 962,-244"/>
<text text-anchor="middle" x="937.12" y="-230.5" font-family="Helvetica,sans-Serif" font-size="10.00">Bot.hpp</text>
</a>
</g>
</g>
<!-- Node2&#45;&gt;Node3 -->
<g id="edge2_Node000002_Node000003" class="edge">
<title>Node2&#45;&gt;Node3</title>
<g id="a_edge2_Node000002_Node000003"><a xlink:title=" ">
<path fill="none" stroke="#63b8ff" d="M932.17,-279.59C932.9,-273.01 933.91,-263.96 934.82,-255.73"/>
<polygon fill="#63b8ff" stroke="#63b8ff" points="938.3,-256.13 935.92,-245.8 931.34,-255.35 938.3,-256.13"/>
</a>
</g>
</g>
<!-- Node3&#45;&gt;Node4 -->
<g id="edge3_Node000003_Node000004" class="edge">
<title>Node3&#45;&gt;Node4</title>
<g id="a_edge3_Node000003_Node000004"><a xlink:title=" ">
<path fill="none" stroke="#63b8ff" d="M911.97,-225.15C883.43,-216.24 836.53,-201.6 803.21,-191.2"/>
<polygon fill="#63b8ff" stroke="#63b8ff" points="804.51,-187.94 793.92,-188.3 802.42,-194.62 804.51,-187.94"/>
</a>
</g>
</g>
<!-- Node10 -->
<g id="Node000010" class="node">
<title>Node10</title>
<g id="a_Node000010"><a xlink:title=" ">
<polygon fill="#e0e0e0" stroke="#999999" points="360.12,-76 320.12,-76 320.12,-56 360.12,-56 360.12,-76"/>
<text text-anchor="middle" x="340.12" y="-62.5" font-family="Helvetica,sans-Serif" font-size="10.00">string</text>
</a>
</g>
</g>
<!-- Node3&#45;&gt;Node10 -->
<g id="edge46_Node000003_Node000010" class="edge">
<title>Node3&#45;&gt;Node10</title>
<g id="a_edge46_Node000003_Node000010"><a xlink:title=" ">
<path fill="none" stroke="#63b8ff" d="M911.83,-232.18C811,-228.41 439.22,-209.38 357.12,-132 345.05,-120.61 341.14,-101.8 340.06,-87.34"/>
<polygon fill="#63b8ff" stroke="#63b8ff" points="343.56,-87.43 339.75,-77.55 336.57,-87.66 343.56,-87.43"/>
</a>
</g>
</g>
<!-- Node12 -->
<g id="Node000012" class="node">
<title>Node12</title>
<g id="a_Node000012"><a xlink:title=" ">
<polygon fill="#e0e0e0" stroke="#999999" points="1415.62,-76 1372.62,-76 1372.62,-56 1415.62,-56 1415.62,-76"/>
<text text-anchor="middle" x="1394.12" y="-62.5" font-family="Helvetica,sans-Serif" font-size="10.00">vector</text>
</a>
</g>
</g>
<!-- Node3&#45;&gt;Node12 -->
<g id="edge47_Node000003_Node000012" class="edge">
<title>Node3&#45;&gt;Node12</title>
<g id="a_edge47_Node000003_Node000012"><a xlink:title=" ">
<path fill="none" stroke="#63b8ff" d="M962.24,-232.3C1058.94,-229.05 1405.08,-211.91 1471.12,-132 1488.91,-110.48 1454.59,-90.52 1426.22,-78.55"/>
<polygon fill="#63b8ff" stroke="#63b8ff" points="1427.75,-75.39 1417.16,-74.93 1425.15,-81.89 1427.75,-75.39"/>
</a>
</g>
</g>
<!-- Node14 -->
<g id="Node000014" class="node">
<title>Node14</title>
<g id="a_Node000014"><a xlink:href="IButtonCommand_8hpp.html" target="_top" xlink:title=" ">
<polygon fill="white" stroke="#666666" points="499.75,-132 388.5,-132 388.5,-112 499.75,-112 499.75,-132"/>
<text text-anchor="middle" x="444.12" y="-118.5" font-family="Helvetica,sans-Serif" font-size="10.00">IButtonCommand.hpp</text>
</a>
</g>
</g>
<!-- Node3&#45;&gt;Node14 -->
<g id="edge35_Node000003_Node000014" class="edge">
<title>Node3&#45;&gt;Node14</title>
<g id="a_edge35_Node000003_Node000014"><a xlink:title=" ">
<path fill="none" stroke="#63b8ff" d="M911.89,-227.72C872.43,-219.43 793.74,-202.79 727.12,-188 646.09,-170.01 552.22,-148.27 495.55,-135.05"/>
<polygon fill="#63b8ff" stroke="#63b8ff" points="496.39,-131.65 485.86,-132.79 494.8,-138.47 496.39,-131.65"/>
</a>
</g>
</g>
<!-- Node17 -->
<g id="Node000017" class="node">
<title>Node17</title>
<g id="a_Node000017"><a xlink:href="IFormCommand_8hpp.html" target="_top" xlink:title=" ">
<polygon fill="white" stroke="#666666" points="808.75,-132 703.5,-132 703.5,-112 808.75,-112 808.75,-132"/>
<text text-anchor="middle" x="756.12" y="-118.5" font-family="Helvetica,sans-Serif" font-size="10.00">IFormCommand.hpp</text>
</a>
</g>
</g>
<!-- Node3&#45;&gt;Node17 -->
<g id="edge36_Node000003_Node000017" class="edge">
<title>Node3&#45;&gt;Node17</title>
<g id="a_edge36_Node000003_Node000017"><a xlink:title=" ">
<path fill="none" stroke="#63b8ff" d="M931.24,-223.71C921.97,-209.76 902.68,-183.41 880.12,-168 858.58,-153.28 831.64,-142.74 808.39,-135.59"/>
<polygon fill="#63b8ff" stroke="#63b8ff" points="809.69,-132.32 799.1,-132.87 807.72,-139.04 809.69,-132.32"/>
</a>
</g>
</g>
<!-- Node18 -->
<g id="Node000018" class="node">
<title>Node18</title>
<g id="a_Node000018"><a xlink:href="IGlobalSlashCommand_8hpp.html" target="_top" xlink:title=" ">
<polygon fill="white" stroke="#666666" points="1461.75,-132 1326.5,-132 1326.5,-112 1461.75,-112 1461.75,-132"/>
<text text-anchor="middle" x="1394.12" y="-118.5" font-family="Helvetica,sans-Serif" font-size="10.00">IGlobalSlashCommand.hpp</text>
</a>
</g>
</g>
<!-- Node3&#45;&gt;Node18 -->
<g id="edge37_Node000003_Node000018" class="edge">
<title>Node3&#45;&gt;Node18</title>
<g id="a_edge37_Node000003_Node000018"><a xlink:title=" ">
<path fill="none" stroke="#63b8ff" d="M962.35,-226.93C1035.06,-209.43 1246.14,-158.62 1343.65,-135.15"/>
<polygon fill="#63b8ff" stroke="#63b8ff" points="1344.31,-138.59 1353.21,-132.85 1342.67,-131.78 1344.31,-138.59"/>
</a>
</g>
</g>
<!-- Node20 -->
<g id="Node000020" class="node">
<title>Node20</title>
<g id="a_Node000020"><a xlink:href="IMemberCommand_8hpp.html" target="_top" xlink:title=" ">
<polygon fill="white" stroke="#666666" points="945.12,-132 827.12,-132 827.12,-112 945.12,-112 945.12,-132"/>
<text text-anchor="middle" x="886.12" y="-118.5" font-family="Helvetica,sans-Serif" font-size="10.00">IMemberCommand.hpp</text>
</a>
</g>
</g>
<!-- Node3&#45;&gt;Node20 -->
<g id="edge38_Node000003_Node000020" class="edge">
<title>Node3&#45;&gt;Node20</title>
<g id="a_edge38_Node000003_Node000020"><a xlink:title=" ">
<path fill="none" stroke="#63b8ff" d="M934.24,-223.52C930.19,-210.65 922.28,-187.09 913.12,-168 908.9,-159.19 903.48,-149.86 898.6,-142"/>
<polygon fill="#63b8ff" stroke="#63b8ff" points="901.6,-140.19 893.27,-133.64 895.7,-143.96 901.6,-140.19"/>
</a>
</g>
</g>
<!-- Node21 -->
<g id="Node000021" class="node">
<title>Node21</title>
<g id="a_Node000021"><a xlink:href="IMessageCommand_8hpp.html" target="_top" xlink:title=" ">
<polygon fill="white" stroke="#666666" points="1085.38,-132 962.88,-132 962.88,-112 1085.38,-112 1085.38,-132"/>
<text text-anchor="middle" x="1024.12" y="-118.5" font-family="Helvetica,sans-Serif" font-size="10.00">IMessageCommand.hpp</text>
</a>
</g>
</g>
<!-- Node3&#45;&gt;Node21 -->
<g id="edge39_Node000003_Node000021" class="edge">
<title>Node3&#45;&gt;Node21</title>
<g id="a_edge39_Node000003_Node000021"><a xlink:title=" ">
<path fill="none" stroke="#63b8ff" d="M944.54,-223.62C958.92,-205.44 990.83,-165.09 1009.58,-141.38"/>
<polygon fill="#63b8ff" stroke="#63b8ff" points="1012.33,-143.56 1015.79,-133.54 1006.84,-139.21 1012.33,-143.56"/>
</a>
</g>
</g>
<!-- Node22 -->
<g id="Node000022" class="node">
<title>Node22</title>
<g id="a_Node000022"><a xlink:href="IReactionCommand_8hpp.html" target="_top" xlink:title=" ">
<polygon fill="white" stroke="#666666" points="1225,-132 1103.25,-132 1103.25,-112 1225,-112 1225,-132"/>
<text text-anchor="middle" x="1164.12" y="-118.5" font-family="Helvetica,sans-Serif" font-size="10.00">IReactionCommand.hpp</text>
</a>
</g>
</g>
<!-- Node3&#45;&gt;Node22 -->
<g id="edge40_Node000003_Node000022" class="edge">
<title>Node3&#45;&gt;Node22</title>
<g id="a_edge40_Node000003_Node000022"><a xlink:title=" ">
<path fill="none" stroke="#63b8ff" d="M956.48,-223.62C996.27,-204.34 1087.46,-160.15 1134.64,-137.29"/>
<polygon fill="#63b8ff" stroke="#63b8ff" points="1135.99,-140.53 1143.46,-133.01 1132.93,-134.23 1135.99,-140.53"/>
</a>
</g>
</g>
<!-- Node23 -->
<g id="Node000023" class="node">
<title>Node23</title>
<g id="a_Node000023"><a xlink:href="IReady_8hpp.html" target="_top" xlink:title=" ">
<polygon fill="white" stroke="#666666" points="1308.88,-132 1243.38,-132 1243.38,-112 1308.88,-112 1308.88,-132"/>
<text text-anchor="middle" x="1276.12" y="-118.5" font-family="Helvetica,sans-Serif" font-size="10.00">IReady.hpp</text>
</a>
</g>
</g>
<!-- Node3&#45;&gt;Node23 -->
<g id="edge41_Node000003_Node000023" class="edge">
<title>Node3&#45;&gt;Node23</title>
<g id="a_edge41_Node000003_Node000023"><a xlink:title=" ">
<path fill="none" stroke="#63b8ff" d="M962.33,-224.82C1020.74,-205.87 1165.73,-158.82 1236.29,-135.93"/>
<polygon fill="#63b8ff" stroke="#63b8ff" points="1237.08,-139.35 1245.51,-132.93 1234.92,-132.69 1237.08,-139.35"/>
</a>
</g>
</g>
<!-- Node24 -->
<g id="Node000024" class="node">
<title>Node24</title>
<g id="a_Node000024"><a xlink:title=" ">
<polygon fill="#e0e0e0" stroke="#999999" points="1526.5,-188 1491.75,-188 1491.75,-168 1526.5,-168 1526.5,-188"/>
<text text-anchor="middle" x="1509.12" y="-174.5" font-family="Helvetica,sans-Serif" font-size="10.00">map</text>
</a>
</g>
</g>
<!-- Node3&#45;&gt;Node24 -->
<g id="edge44_Node000003_Node000024" class="edge">
<title>Node3&#45;&gt;Node24</title>
<g id="a_edge44_Node000003_Node000024"><a xlink:title=" ">
<path fill="none" stroke="#63b8ff" d="M962.44,-232.68C1040.14,-231.33 1281.88,-224.27 1478.12,-188 1478.95,-187.85 1479.79,-187.68 1480.63,-187.5"/>
<polygon fill="#63b8ff" stroke="#63b8ff" points="1481.25,-190.96 1490.1,-185.13 1479.55,-184.17 1481.25,-190.96"/>
</a>
</g>
</g>
<!-- Node25 -->
<g id="Node000025" class="node">
<title>Node25</title>
<g id="a_Node000025"><a xlink:title=" ">
<polygon fill="#e0e0e0" stroke="#999999" points="870.75,-188 819.5,-188 819.5,-168 870.75,-168 870.75,-188"/>
<text text-anchor="middle" x="845.12" y="-174.5" font-family="Helvetica,sans-Serif" font-size="10.00">memory</text>
</a>
</g>
</g>
<!-- Node3&#45;&gt;Node25 -->
<g id="edge45_Node000003_Node000025" class="edge">
<title>Node3&#45;&gt;Node25</title>
<g id="a_edge45_Node000003_Node000025"><a xlink:title=" ">
<path fill="none" stroke="#63b8ff" d="M921.1,-223.59C907.33,-215.51 887.22,-203.71 871.15,-194.27"/>
<polygon fill="#63b8ff" stroke="#63b8ff" points="872.98,-191.29 862.58,-189.25 869.43,-197.33 872.98,-191.29"/>
</a>
</g>
</g>
<!-- Node5 -->
<g id="Node000005" class="node">
<title>Node5</title>
<g id="a_Node000005"><a xlink:title=" ">
<polygon fill="#e0e0e0" stroke="#999999" points="576.5,-132 517.75,-132 517.75,-112 576.5,-112 576.5,-132"/>
<text text-anchor="middle" x="547.12" y="-118.5" font-family="Helvetica,sans-Serif" font-size="10.00">dpp/dpp.h</text>
</a>
</g>
</g>
<!-- Node4&#45;&gt;Node5 -->
<g id="edge4_Node000004_Node000005" class="edge">
<title>Node4&#45;&gt;Node5</title>
<g id="a_edge4_Node000004_Node000005"><a xlink:title=" ">
<path fill="none" stroke="#63b8ff" d="M735.76,-169.94C698,-160.55 631,-143.87 587.85,-133.13"/>
<polygon fill="#63b8ff" stroke="#63b8ff" points="588.91,-129.79 578.36,-130.77 587.22,-136.58 588.91,-129.79"/>
</a>
</g>
</g>
<!-- Node6 -->
<g id="Node000006" class="node">
<title>Node6</title>
<g id="a_Node000006"><a xlink:title=" ">
<polygon fill="#e0e0e0" stroke="#999999" points="685.62,-132 594.62,-132 594.62,-112 685.62,-112 685.62,-132"/>
<text text-anchor="middle" x="640.12" y="-118.5" font-family="Helvetica,sans-Serif" font-size="10.00">dpp/misc&#45;enum.h</text>
</a>
</g>
</g>
<!-- Node4&#45;&gt;Node6 -->
<g id="edge5_Node000004_Node000006" class="edge">
<title>Node4&#45;&gt;Node6</title>
<g id="a_edge5_Node000004_Node000006"><a xlink:title=" ">
<path fill="none" stroke="#63b8ff" d="M742.53,-167.59C723.17,-159.17 694.52,-146.69 672.44,-137.07"/>
<polygon fill="#63b8ff" stroke="#63b8ff" points="673.85,-133.87 663.28,-133.08 671.05,-140.29 673.85,-133.87"/>
</a>
</g>
</g>
<!-- Node7 -->
<g id="Node000007" class="node">
<title>Node7</title>
<g id="a_Node000007"><a xlink:href="Database_8hpp.html" target="_top" xlink:title=" ">
<polygon fill="white" stroke="#666666" points="294.5,-132 217.75,-132 217.75,-112 294.5,-112 294.5,-132"/>
<text text-anchor="middle" x="256.12" y="-118.5" font-family="Helvetica,sans-Serif" font-size="10.00">Database.hpp</text>
</a>
</g>
</g>
<!-- Node4&#45;&gt;Node7 -->
<g id="edge6_Node000004_Node000007" class="edge">
<title>Node4&#45;&gt;Node7</title>
<g id="a_edge6_Node000004_Node000007"><a xlink:title=" ">
<path fill="none" stroke="#63b8ff" d="M736.09,-174.02C653.69,-165.26 411.47,-139.51 306.07,-128.31"/>
<polygon fill="#63b8ff" stroke="#63b8ff" points="306.63,-124.85 296.31,-127.27 305.89,-131.81 306.63,-124.85"/>
</a>
</g>
</g>
<!-- Node4&#45;&gt;Node10 -->
<g id="edge34_Node000004_Node000010" class="edge">
<title>Node4&#45;&gt;Node10</title>
<g id="a_edge34_Node000004_Node000010"><a xlink:title=" ">
<path fill="none" stroke="#63b8ff" d="M735.93,-176.86C657.43,-176 438.2,-170.15 379.12,-132 363.07,-121.64 352.68,-102.12 346.7,-87.17"/>
<polygon fill="#63b8ff" stroke="#63b8ff" points="350.02,-86.06 343.33,-77.84 343.43,-88.43 350.02,-86.06"/>
</a>
</g>
</g>
<!-- Node4&#45;&gt;Node14 -->
<g id="edge14_Node000004_Node000014" class="edge">
<title>Node4&#45;&gt;Node14</title>
<g id="a_edge14_Node000004_Node000014"><a xlink:title=" ">
<path fill="none" stroke="#63b8ff" d="M736.01,-172.26C686.17,-163.84 581.03,-146.1 511.5,-134.37"/>
<polygon fill="#63b8ff" stroke="#63b8ff" points="512.17,-130.93 501.73,-132.72 511,-137.84 512.17,-130.93"/>
</a>
</g>
</g>
<!-- Node4&#45;&gt;Node17 -->
<g id="edge17_Node000004_Node000017" class="edge">
<title>Node4&#45;&gt;Node17</title>
<g id="a_edge17_Node000004_Node000017"><a xlink:title=" ">
<path fill="none" stroke="#63b8ff" d="M762.73,-167.59C761.74,-160.93 760.38,-151.75 759.15,-143.44"/>
<polygon fill="#63b8ff" stroke="#63b8ff" points="762.65,-143.17 757.72,-133.8 755.73,-144.2 762.65,-143.17"/>
</a>
</g>
</g>
<!-- Node4&#45;&gt;Node18 -->
<g id="edge20_Node000004_Node000018" class="edge">
<title>Node4&#45;&gt;Node18</title>
<g id="a_edge20_Node000004_Node000018"><a xlink:title=" ">
<path fill="none" stroke="#63b8ff" d="M792.25,-170.93C798.14,-169.82 804.32,-168.77 810.12,-168 1030.89,-138.69 1090.87,-152.84 1315.04,-132.25"/>
<polygon fill="#63b8ff" stroke="#63b8ff" points="1315.05,-135.76 1324.68,-131.35 1314.4,-128.79 1315.05,-135.76"/>
</a>
</g>
</g>
<!-- Node4&#45;&gt;Node20 -->
<g id="edge25_Node000004_Node000020" class="edge">
<title>Node4&#45;&gt;Node20</title>
<g id="a_edge25_Node000004_Node000020"><a xlink:title=" ">
<path fill="none" stroke="#63b8ff" d="M785.38,-167.59C804.41,-159.17 832.6,-146.69 854.33,-137.07"/>
<polygon fill="#63b8ff" stroke="#63b8ff" points="855.6,-140.34 863.32,-133.09 852.76,-133.94 855.6,-140.34"/>
</a>
</g>
</g>
<!-- Node4&#45;&gt;Node21 -->
<g id="edge28_Node000004_Node000021" class="edge">
<title>Node4&#45;&gt;Node21</title>
<g id="a_edge28_Node000004_Node000021"><a xlink:title=" ">
<path fill="none" stroke="#63b8ff" d="M792.44,-171.12C834.22,-162.44 913.25,-146.03 967.28,-134.81"/>
<polygon fill="#63b8ff" stroke="#63b8ff" points="967.84,-138.26 976.92,-132.8 966.42,-131.41 967.84,-138.26"/>
</a>
</g>
</g>
<!-- Node4&#45;&gt;Node22 -->
<g id="edge31_Node000004_Node000022" class="edge">
<title>Node4&#45;&gt;Node22</title>
<g id="a_edge31_Node000004_Node000022"><a xlink:title=" ">
<path fill="none" stroke="#63b8ff" d="M792.29,-171.18C798.17,-170.05 804.34,-168.93 810.12,-168 932.18,-148.35 966.02,-148.11 1091.81,-132.28"/>
<polygon fill="#63b8ff" stroke="#63b8ff" points="1092.06,-135.78 1101.54,-131.05 1091.18,-128.84 1092.06,-135.78"/>
</a>
</g>
</g>
<!-- Node8 -->
<g id="Node000008" class="node">
<title>Node8</title>
<g id="a_Node000008"><a xlink:title=" ">
<polygon fill="#e0e0e0" stroke="#999999" points="69.25,-76 21,-76 21,-56 69.25,-56 69.25,-76"/>
<text text-anchor="middle" x="45.12" y="-62.5" font-family="Helvetica,sans-Serif" font-size="10.00">cstddef</text>
</a>
</g>
</g>
<!-- Node7&#45;&gt;Node8 -->
<g id="edge7_Node000007_Node000008" class="edge">
<title>Node7&#45;&gt;Node8</title>
<g id="a_edge7_Node000007_Node000008"><a xlink:title=" ">
<path fill="none" stroke="#63b8ff" d="M219.37,-111.59C180.25,-101.58 118.8,-85.86 80.3,-76"/>
<polygon fill="#63b8ff" stroke="#63b8ff" points="81.63,-72.73 71.08,-73.64 79.9,-79.51 81.63,-72.73"/>
</a>
</g>
</g>
<!-- Node9 -->
<g id="Node000009" class="node">
<title>Node9</title>
<g id="a_Node000009"><a xlink:title=" ">
<polygon fill="#e0e0e0" stroke="#999999" points="216.62,-20 155.62,-20 155.62,0 216.62,0 216.62,-20"/>
<text text-anchor="middle" x="186.12" y="-6.5" font-family="Helvetica,sans-Serif" font-size="10.00">pqxx/pqxx</text>
</a>
</g>
</g>
<!-- Node7&#45;&gt;Node9 -->
<g id="edge8_Node000007_Node000009" class="edge">
<title>Node7&#45;&gt;Node9</title>
<g id="a_edge8_Node000007_Node000009"><a xlink:title=" ">
<path fill="none" stroke="#63b8ff" d="M250.16,-111.62C238.69,-93.6 213.37,-53.81 198.23,-30.02"/>
<polygon fill="#63b8ff" stroke="#63b8ff" points="201.21,-28.19 192.89,-21.63 195.31,-31.95 201.21,-28.19"/>
</a>
</g>
</g>
<!-- Node7&#45;&gt;Node10 -->
<g id="edge9_Node000007_Node000010" class="edge">
<title>Node7&#45;&gt;Node10</title>
<g id="a_edge9_Node000007_Node000010"><a xlink:title=" ">
<path fill="none" stroke="#63b8ff" d="M270.76,-111.59C283.21,-103.59 301.34,-91.93 315.95,-82.54"/>
<polygon fill="#63b8ff" stroke="#63b8ff" points="317.59,-85.65 324.11,-77.3 313.8,-79.76 317.59,-85.65"/>
</a>
</g>
</g>
<!-- Node11 -->
<g id="Node000011" class="node">
<title>Node11</title>
<g id="a_Node000011"><a xlink:title=" ">
<polygon fill="#e0e0e0" stroke="#999999" points="301.75,-76 256.5,-76 256.5,-56 301.75,-56 301.75,-76"/>
<text text-anchor="middle" x="279.12" y="-62.5" font-family="Helvetica,sans-Serif" font-size="10.00">variant</text>
</a>
</g>
</g>
<!-- Node7&#45;&gt;Node11 -->
<g id="edge10_Node000007_Node000011" class="edge">
<title>Node7&#45;&gt;Node11</title>
<g id="a_edge10_Node000007_Node000011"><a xlink:title=" ">
<path fill="none" stroke="#63b8ff" d="M260.13,-111.59C263.03,-104.78 267.06,-95.32 270.67,-86.86"/>
<polygon fill="#63b8ff" stroke="#63b8ff" points="273.87,-88.26 274.57,-77.69 267.43,-85.52 273.87,-88.26"/>
</a>
</g>
</g>
<!-- Node7&#45;&gt;Node12 -->
<g id="edge11_Node000007_Node000012" class="edge">
<title>Node7&#45;&gt;Node12</title>
<g id="a_edge11_Node000007_Node000012"><a xlink:title=" ">
<path fill="none" stroke="#63b8ff" d="M294.88,-117.88C319.09,-116 350.91,-113.66 379.12,-112 765.07,-89.33 1234.17,-72.49 1361.13,-68.12"/>
<polygon fill="#63b8ff" stroke="#63b8ff" points="1360.94,-71.63 1370.82,-67.79 1360.7,-64.63 1360.94,-71.63"/>
</a>
</g>
</g>
<!-- Node13 -->
<g id="Node000013" class="node">
<title>Node13</title>
<g id="a_Node000013"><a xlink:href="RowDTOAdapter_8hpp.html" target="_top" xlink:title=" ">
<polygon fill="white" stroke="#666666" points="200,-76 90.25,-76 90.25,-56 200,-56 200,-76"/>
<text text-anchor="middle" x="145.12" y="-62.5" font-family="Helvetica,sans-Serif" font-size="10.00">RowDTOAdapter.hpp</text>
</a>
</g>
</g>
<!-- Node7&#45;&gt;Node13 -->
<g id="edge12_Node000007_Node000013" class="edge">
<title>Node7&#45;&gt;Node13</title>
<g id="a_edge12_Node000007_Node000013"><a xlink:title=" ">
<path fill="none" stroke="#63b8ff" d="M236.79,-111.59C219.71,-103.28 194.52,-91.03 174.87,-81.47"/>
<polygon fill="#63b8ff" stroke="#63b8ff" points="176.5,-78.37 165.97,-77.14 173.43,-84.66 176.5,-78.37"/>
</a>
</g>
</g>
<!-- Node13&#45;&gt;Node9 -->
<g id="edge13_Node000013_Node000009" class="edge">
<title>Node13&#45;&gt;Node9</title>
<g id="a_edge13_Node000013_Node000009"><a xlink:title=" ">
<path fill="none" stroke="#63b8ff" d="M152.27,-55.59C157.73,-48.39 165.45,-38.23 172.13,-29.43"/>
<polygon fill="#63b8ff" stroke="#63b8ff" points="174.89,-31.58 178.15,-21.5 169.32,-27.35 174.89,-31.58"/>
</a>
</g>
</g>
<!-- Node15 -->
<g id="Node000015" class="node">
<title>Node15</title>
<g id="a_Node000015"><a xlink:title=" ">
<polygon fill="#e0e0e0" stroke="#999999" points="1109.25,-76 1037,-76 1037,-56 1109.25,-56 1109.25,-76"/>
<text text-anchor="middle" x="1073.12" y="-62.5" font-family="Helvetica,sans-Serif" font-size="10.00">dpp/cluster.h</text>
</a>
</g>
</g>
<!-- Node14&#45;&gt;Node15 -->
<g id="edge15_Node000014_Node000015" class="edge">
<title>Node14&#45;&gt;Node15</title>
<g id="a_edge15_Node000014_Node000015"><a xlink:title=" ">
<path fill="none" stroke="#63b8ff" d="M500.12,-113C503.16,-112.64 506.18,-112.31 509.12,-112 735.4,-88.51 796.98,-106.15 1025.48,-76.18"/>
<polygon fill="#63b8ff" stroke="#63b8ff" points="1025.89,-79.66 1035.34,-74.87 1024.97,-72.72 1025.89,-79.66"/>
</a>
</g>
</g>
<!-- Node16 -->
<g id="Node000016" class="node">
<title>Node16</title>
<g id="a_Node000016"><a xlink:title=" ">
<polygon fill="#e0e0e0" stroke="#999999" points="1019.12,-76 931.12,-76 931.12,-56 1019.12,-56 1019.12,-76"/>
<text text-anchor="middle" x="975.12" y="-62.5" font-family="Helvetica,sans-Serif" font-size="10.00">dpp/dispatcher.h</text>
</a>
</g>
</g>
<!-- Node14&#45;&gt;Node16 -->
<g id="edge16_Node000014_Node000016" class="edge">
<title>Node14&#45;&gt;Node16</title>
<g id="a_edge16_Node000014_Node000016"><a xlink:title=" ">
<path fill="none" stroke="#63b8ff" d="M500.13,-113.1C503.17,-112.71 506.18,-112.35 509.12,-112 657.07,-94.62 832.02,-79.06 919.48,-71.62"/>
<polygon fill="#63b8ff" stroke="#63b8ff" points="919.55,-75.13 929.22,-70.8 918.96,-68.16 919.55,-75.13"/>
</a>
</g>
</g>
<!-- Node17&#45;&gt;Node15 -->
<g id="edge18_Node000017_Node000015" class="edge">
<title>Node17&#45;&gt;Node15</title>
<g id="a_edge18_Node000017_Node000015"><a xlink:title=" ">
<path fill="none" stroke="#63b8ff" d="M809.12,-112.77C861.65,-104.49 944.68,-91.08 1025.87,-76.36"/>
<polygon fill="#63b8ff" stroke="#63b8ff" points="1026.1,-79.88 1035.31,-74.65 1024.84,-72.99 1026.1,-79.88"/>
</a>
</g>
</g>
<!-- Node17&#45;&gt;Node16 -->
<g id="edge19_Node000017_Node000016" class="edge">
<title>Node17&#45;&gt;Node16</title>
<g id="a_edge19_Node000017_Node000016"><a xlink:title=" ">
<path fill="none" stroke="#63b8ff" d="M794.52,-111.53C831,-102.54 886.02,-88.97 925.74,-79.18"/>
<polygon fill="#63b8ff" stroke="#63b8ff" points="926.43,-82.61 935.3,-76.82 924.75,-75.82 926.43,-82.61"/>
</a>
</g>
</g>
<!-- Node18&#45;&gt;Node12 -->
<g id="edge24_Node000018_Node000012" class="edge">
<title>Node18&#45;&gt;Node12</title>
<g id="a_edge24_Node000018_Node000012"><a xlink:title=" ">
<path fill="none" stroke="#63b8ff" d="M1394.12,-111.59C1394.12,-105.01 1394.12,-95.96 1394.12,-87.73"/>
<polygon fill="#63b8ff" stroke="#63b8ff" points="1397.63,-87.81 1394.13,-77.81 1390.63,-87.81 1397.63,-87.81"/>
</a>
</g>
</g>
<!-- Node18&#45;&gt;Node15 -->
<g id="edge22_Node000018_Node000015" class="edge">
<title>Node18&#45;&gt;Node15</title>
<g id="a_edge22_Node000018_Node000015"><a xlink:title=" ">
<path fill="none" stroke="#63b8ff" d="M1337.84,-111.53C1276.15,-101.15 1178.25,-84.69 1120.39,-74.95"/>
<polygon fill="#63b8ff" stroke="#63b8ff" points="1121.31,-71.56 1110.86,-73.35 1120.14,-78.46 1121.31,-71.56"/>
</a>
</g>
</g>
<!-- Node18&#45;&gt;Node16 -->
<g id="edge23_Node000018_Node000016" class="edge">
<title>Node18&#45;&gt;Node16</title>
<g id="a_edge23_Node000018_Node000016"><a xlink:title=" ">
<path fill="none" stroke="#63b8ff" d="M1326.08,-112.8C1235.99,-101.93 1083.18,-83.4 1030.49,-76.23"/>
<polygon fill="#63b8ff" stroke="#63b8ff" points="1031.24,-72.8 1020.85,-74.88 1030.26,-79.73 1031.24,-72.8"/>
</a>
</g>
</g>
<!-- Node18&#45;&gt;Node19 -->
<g id="edge21_Node000018_Node000019" class="edge">
<title>Node18&#45;&gt;Node19</title>
<g id="a_edge21_Node000018_Node000019"><a xlink:title=" ">
<path fill="none" stroke="#63b8ff" d="M1412.76,-111.59C1429.16,-103.32 1453.28,-91.14 1472.19,-81.6"/>
<polygon fill="#63b8ff" stroke="#63b8ff" points="1473.64,-84.79 1480.99,-77.16 1470.49,-78.54 1473.64,-84.79"/>
</a>
</g>
</g>
<!-- Node20&#45;&gt;Node15 -->
<g id="edge26_Node000020_Node000015" class="edge">
<title>Node20&#45;&gt;Node15</title>
<g id="a_edge26_Node000020_Node000015"><a xlink:title=" ">
<path fill="none" stroke="#63b8ff" d="M918.7,-111.59C949.35,-102.74 995.47,-89.43 1029.33,-79.65"/>
<polygon fill="#63b8ff" stroke="#63b8ff" points="1030.21,-83.04 1038.84,-76.9 1028.27,-76.31 1030.21,-83.04"/>
</a>
</g>
</g>
<!-- Node20&#45;&gt;Node16 -->
<g id="edge27_Node000020_Node000016" class="edge">
<title>Node20&#45;&gt;Node16</title>
<g id="a_edge27_Node000020_Node000016"><a xlink:title=" ">
<path fill="none" stroke="#63b8ff" d="M901.63,-111.59C914.95,-103.51 934.4,-91.71 949.95,-82.27"/>
<polygon fill="#63b8ff" stroke="#63b8ff" points="951.47,-85.44 958.21,-77.26 947.84,-79.46 951.47,-85.44"/>
</a>
</g>
</g>
<!-- Node21&#45;&gt;Node15 -->
<g id="edge29_Node000021_Node000015" class="edge">
<title>Node21&#45;&gt;Node15</title>
<g id="a_edge29_Node000021_Node000015"><a xlink:title=" ">
<path fill="none" stroke="#63b8ff" d="M1032.66,-111.59C1039.41,-104.16 1049.01,-93.58 1057.17,-84.58"/>
<polygon fill="#63b8ff" stroke="#63b8ff" points="1059.54,-87.18 1063.67,-77.42 1054.36,-82.47 1059.54,-87.18"/>
</a>
</g>
</g>
<!-- Node21&#45;&gt;Node16 -->
<g id="edge30_Node000021_Node000016" class="edge">
<title>Node21&#45;&gt;Node16</title>
<g id="a_edge30_Node000021_Node000016"><a xlink:title=" ">
<path fill="none" stroke="#63b8ff" d="M1015.59,-111.59C1008.84,-104.16 999.24,-93.58 991.08,-84.58"/>
<polygon fill="#63b8ff" stroke="#63b8ff" points="993.89,-82.47 984.58,-77.42 988.71,-87.18 993.89,-82.47"/>
</a>
</g>
</g>
<!-- Node22&#45;&gt;Node15 -->
<g id="edge32_Node000022_Node000015" class="edge">
<title>Node22&#45;&gt;Node15</title>
<g id="a_edge32_Node000022_Node000015"><a xlink:title=" ">
<path fill="none" stroke="#63b8ff" d="M1148.27,-111.59C1134.66,-103.51 1114.76,-91.71 1098.86,-82.27"/>
<polygon fill="#63b8ff" stroke="#63b8ff" points="1100.79,-79.35 1090.4,-77.25 1097.22,-85.37 1100.79,-79.35"/>
</a>
</g>
</g>
<!-- Node22&#45;&gt;Node16 -->
<g id="edge33_Node000022_Node000016" class="edge">
<title>Node22&#45;&gt;Node16</title>
<g id="a_edge33_Node000022_Node000016"><a xlink:title=" ">
<path fill="none" stroke="#63b8ff" d="M1131.2,-111.59C1100.09,-102.71 1053.21,-89.31 1018.95,-79.52"/>
<polygon fill="#63b8ff" stroke="#63b8ff" points="1020.34,-76.28 1009.76,-76.9 1018.41,-83.01 1020.34,-76.28"/>
</a>
</g>
</g>
<!-- Node23&#45;&gt;Node15 -->
<g id="edge42_Node000023_Node000015" class="edge">
<title>Node23&#45;&gt;Node15</title>
<g id="a_edge42_Node000023_Node000015"><a xlink:title=" ">
<path fill="none" stroke="#63b8ff" d="M1243.06,-112.2C1209.42,-103.25 1157,-89.31 1119.28,-79.28"/>
<polygon fill="#63b8ff" stroke="#63b8ff" points="1120.59,-76.01 1110.03,-76.82 1118.79,-82.77 1120.59,-76.01"/>
</a>
</g>
</g>
<!-- Node23&#45;&gt;Node16 -->
<g id="edge43_Node000023_Node000016" class="edge">
<title>Node23&#45;&gt;Node16</title>
<g id="a_edge43_Node000023_Node000016"><a xlink:title=" ">
<path fill="none" stroke="#63b8ff" d="M1243.13,-113.8C1240.09,-113.18 1237.05,-112.57 1234.12,-112 1214.55,-108.2 1100.99,-88.62 1030.89,-76.57"/>
<polygon fill="#63b8ff" stroke="#63b8ff" points="1031.55,-73.13 1021.11,-74.89 1030.37,-80.03 1031.55,-73.13"/>
</a>
</g>
</g>
<!-- Node29 -->
<g id="Node000029" class="node">
<title>Node29</title>
<g id="a_Node000029"><a xlink:href="IRepository_8hpp.html" target="_top" xlink:title=" ">
<polygon fill="white" stroke="#666666" points="84.25,-132 0,-132 0,-112 84.25,-112 84.25,-132"/>
<text text-anchor="middle" x="42.12" y="-118.5" font-family="Helvetica,sans-Serif" font-size="10.00">IRepository.hpp</text>
</a>
</g>
</g>
<!-- Node28&#45;&gt;Node29 -->
<g id="edge53_Node000028_Node000029" class="edge">
<title>Node28&#45;&gt;Node29</title>
<g id="a_edge53_Node000028_Node000029"><a xlink:title=" ">
<path fill="none" stroke="#63b8ff" d="M132.14,-167.59C115.36,-159.28 90.63,-147.03 71.34,-137.47"/>
<polygon fill="#63b8ff" stroke="#63b8ff" points="73.13,-134.45 62.62,-133.15 70.02,-140.73 73.13,-134.45"/>
</a>
</g>
</g>
<!-- Node30 -->
<g id="Node000030" class="node">
<title>Node30</title>
<g id="a_Node000030"><a xlink:href="ResourceDTO_8hpp.html" target="_top" xlink:title=" ">
<polygon fill="white" stroke="#666666" points="200,-132 102.25,-132 102.25,-112 200,-112 200,-132"/>
<text text-anchor="middle" x="151.12" y="-118.5" font-family="Helvetica,sans-Serif" font-size="10.00">ResourceDTO.hpp</text>
</a>
</g>
</g>
<!-- Node28&#45;&gt;Node30 -->
<g id="edge55_Node000028_Node000030" class="edge">
<title>Node28&#45;&gt;Node30</title>
<g id="a_edge55_Node000028_Node000030"><a xlink:title=" ">
<path fill="none" stroke="#63b8ff" d="M151.12,-167.59C151.12,-161.01 151.12,-151.96 151.12,-143.73"/>
<polygon fill="#63b8ff" stroke="#63b8ff" points="154.63,-143.81 151.13,-133.81 147.63,-143.81 154.63,-143.81"/>
</a>
</g>
</g>
<!-- Node29&#45;&gt;Node8 -->
<g id="edge54_Node000029_Node000008" class="edge">
<title>Node29&#45;&gt;Node8</title>
<g id="a_edge54_Node000029_Node000008"><a xlink:title=" ">
<path fill="none" stroke="#63b8ff" d="M42.65,-111.59C43.01,-105.01 43.52,-95.96 43.97,-87.73"/>
<polygon fill="#63b8ff" stroke="#63b8ff" points="47.46,-87.99 44.52,-77.81 40.48,-87.6 47.46,-87.99"/>
</a>
</g>
</g>
<!-- Node30&#45;&gt;Node10 -->
<g id="edge57_Node000030_Node000010" class="edge">
<title>Node30&#45;&gt;Node10</title>
<g id="a_edge57_Node000030_Node000010"><a xlink:title=" ">
<path fill="none" stroke="#63b8ff" d="M185.85,-111.52C216.02,-103.22 261.18,-90.65 308.98,-76.58"/>
<polygon fill="#63b8ff" stroke="#63b8ff" points="309.82,-79.98 318.41,-73.79 307.83,-73.27 309.82,-79.98"/>
</a>
</g>
</g>
<!-- Node30&#45;&gt;Node13 -->
<g id="edge56_Node000030_Node000013" class="edge">
<title>Node30&#45;&gt;Node13</title>
<g id="a_edge56_Node000030_Node000013"><a xlink:title=" ">
<path fill="none" stroke="#63b8ff" d="M150.08,-111.59C149.35,-105.01 148.34,-95.96 147.43,-87.73"/>
<polygon fill="#63b8ff" stroke="#63b8ff" points="150.91,-87.35 146.33,-77.8 143.95,-88.13 150.91,-87.35"/>
</a>
</g>
</g>
</g>
</svg>
