<?xml version="1.0" encoding="UTF-8" standalone="no"?>
<!DOCTYPE svg PUBLIC "-//W3C//DTD SVG 1.1//EN"
 "http://www.w3.org/Graphics/SVG/1.1/DTD/svg11.dtd">
<!-- Generated by graphviz version 12.2.1 (0)
 -->
<!-- Title: src/bot_library/commands/resources/repositories/ResourceRepository.hpp Pages: 1 -->
<svg width="690pt" height="132pt"
 viewBox="0.00 0.00 690.38 132.00" xmlns="http://www.w3.org/2000/svg" xmlns:xlink="http://www.w3.org/1999/xlink">
<g id="graph0" class="graph" transform="scale(1 1) rotate(0) translate(4 128)">
<title>src/bot_library/commands/resources/repositories/ResourceRepository.hpp</title>
<!-- Node1 -->
<g id="Node000001" class="node">
<title>Node1</title>
<g id="a_Node000001"><a xlink:title=" ">
<polygon fill="#999999" stroke="#666666" points="459.75,-124 331.25,-124 331.25,-80 459.75,-80 459.75,-124"/>
<text text-anchor="start" x="339.25" y="-110.5" font-family="Helvetica,sans-Serif" font-size="10.00">src/bot_library/commands</text>
<text text-anchor="start" x="339.25" y="-98.5" font-family="Helvetica,sans-Serif" font-size="10.00">/resources/repositories</text>
<text text-anchor="middle" x="395.5" y="-86.5" font-family="Helvetica,sans-Serif" font-size="10.00">/ResourceRepository.hpp</text>
</a>
</g>
</g>
<!-- Node2 -->
<g id="Node000002" class="node">
<title>Node2</title>
<g id="a_Node000002"><a xlink:href="AddResourcesCommand_8cpp.html" target="_top" xlink:title=" ">
<polygon fill="white" stroke="#666666" points="193,-38 0,-38 0,-6 193,-6 193,-38"/>
<text text-anchor="start" x="8" y="-24.5" font-family="Helvetica,sans-Serif" font-size="10.00">src/bot_library/commands</text>
<text text-anchor="middle" x="96.5" y="-12.5" font-family="Helvetica,sans-Serif" font-size="10.00">/resources/AddResourcesCommand.cpp</text>
</a>
</g>
</g>
<!-- Node1&#45;&gt;Node2 -->
<g id="edge1_Node000001_Node000002" class="edge">
<title>Node1&#45;&gt;Node2</title>
<g id="a_edge1_Node000001_Node000002"><a xlink:title=" ">
<path fill="none" stroke="#63b8ff" d="M320.05,-81.32C269.15,-68.04 202.94,-50.77 155.82,-38.47"/>
<polygon fill="#63b8ff" stroke="#63b8ff" points="318.97,-84.65 329.53,-83.79 320.73,-77.88 318.97,-84.65"/>
</a>
</g>
</g>
<!-- Node3 -->
<g id="Node000003" class="node">
<title>Node3</title>
<g id="a_Node000003"><a xlink:href="GetResourcesCommand_8cpp.html" target="_top" xlink:title=" ">
<polygon fill="white" stroke="#666666" points="402.25,-38 210.75,-38 210.75,-6 402.25,-6 402.25,-38"/>
<text text-anchor="start" x="218.75" y="-24.5" font-family="Helvetica,sans-Serif" font-size="10.00">src/bot_library/commands</text>
<text text-anchor="middle" x="306.5" y="-12.5" font-family="Helvetica,sans-Serif" font-size="10.00">/resources/GetResourcesCommand.cpp</text>
</a>
</g>
</g>
<!-- Node1&#45;&gt;Node3 -->
<g id="edge2_Node000001_Node000003" class="edge">
<title>Node1&#45;&gt;Node3</title>
<g id="a_edge2_Node000001_Node000003"><a xlink:title=" ">
<path fill="none" stroke="#63b8ff" d="M362.82,-72.36C349.68,-60.84 335.07,-48.04 324.02,-38.35"/>
<polygon fill="#63b8ff" stroke="#63b8ff" points="360.21,-74.73 370.04,-78.69 364.83,-69.47 360.21,-74.73"/>
</a>
</g>
</g>
<!-- Node4 -->
<g id="Node000004" class="node">
<title>Node4</title>
<g id="a_Node000004"><a xlink:href="ResourceRepository_8cpp.html" target="_top" xlink:title=" ">
<polygon fill="white" stroke="#666666" points="548.75,-44 420.25,-44 420.25,0 548.75,0 548.75,-44"/>
<text text-anchor="start" x="428.25" y="-30.5" font-family="Helvetica,sans-Serif" font-size="10.00">src/bot_library/commands</text>
<text text-anchor="start" x="428.25" y="-18.5" font-family="Helvetica,sans-Serif" font-size="10.00">/resources/repositories</text>
<text text-anchor="middle" x="484.5" y="-6.5" font-family="Helvetica,sans-Serif" font-size="10.00">/ResourceRepository.cpp</text>
</a>
</g>
</g>
<!-- Node1&#45;&gt;Node4 -->
<g id="edge3_Node000001_Node000004" class="edge">
<title>Node1&#45;&gt;Node4</title>
<g id="a_edge3_Node000001_Node000004"><a xlink:title=" ">
<path fill="none" stroke="#63b8ff" d="M428.39,-72.17C438.93,-62.94 450.4,-52.88 460.21,-44.29"/>
<polygon fill="#63b8ff" stroke="#63b8ff" points="426.17,-69.47 420.96,-78.69 430.79,-74.73 426.17,-69.47"/>
</a>
</g>
</g>
<!-- Node5 -->
<g id="Node000005" class="node">
<title>Node5</title>
<g id="a_Node000005"><a xlink:href="ResQueryHandler_8cpp.html" target="_top" xlink:title=" ">
<polygon fill="white" stroke="#666666" points="682.38,-38 566.62,-38 566.62,-6 682.38,-6 682.38,-38"/>
<text text-anchor="start" x="574.62" y="-24.5" font-family="Helvetica,sans-Serif" font-size="10.00">src/bot_library/restapi</text>
<text text-anchor="middle" x="624.5" y="-12.5" font-family="Helvetica,sans-Serif" font-size="10.00">/ResQueryHandler.cpp</text>
</a>
</g>
</g>
<!-- Node1&#45;&gt;Node5 -->
<g id="edge4_Node000001_Node000005" class="edge">
<title>Node1&#45;&gt;Node5</title>
<g id="a_edge4_Node000001_Node000005"><a xlink:title=" ">
<path fill="none" stroke="#63b8ff" d="M468.91,-76C505.16,-63.65 547.74,-49.14 579.19,-38.43"/>
<polygon fill="#63b8ff" stroke="#63b8ff" points="468.15,-72.56 459.81,-79.09 470.41,-79.18 468.15,-72.56"/>
</a>
</g>
</g>
</g>
</svg>
