<?xml version="1.0" encoding="UTF-8" standalone="no"?>
<!DOCTYPE svg PUBLIC "-//W3C//DTD SVG 1.1//EN"
 "http://www.w3.org/Graphics/SVG/1.1/DTD/svg11.dtd">
<!-- Generated by graphviz version 9.0.0 (0)
 -->
<!-- Title: src/bot_library/commands/resources/ResourcesCommand.cpp Pages: 1 -->
<svg width="1790pt" height="376pt"
 viewBox="0.00 0.00 1789.75 376.00" xmlns="http://www.w3.org/2000/svg" xmlns:xlink="http://www.w3.org/1999/xlink">
<g id="graph0" class="graph" transform="scale(1 1) rotate(0) translate(4 372)">
<title>src/bot_library/commands/resources/ResourcesCommand.cpp</title>
<!-- Node1 -->
<g id="Node000001" class="node">
<title>Node1</title>
<g id="a_Node000001"><a xlink:title=" ">
<polygon fill="#999999" stroke="#666666" points="1212,-368 1036.25,-368 1036.25,-336 1212,-336 1212,-368"/>
<text text-anchor="start" x="1044.25" y="-354.5" font-family="Helvetica,sans-Serif" font-size="10.00">src/bot_library/commands</text>
<text text-anchor="middle" x="1124.12" y="-342.5" font-family="Helvetica,sans-Serif" font-size="10.00">/resources/ResourcesCommand.cpp</text>
</a>
</g>
</g>
<!-- Node2 -->
<g id="Node000002" class="node">
<title>Node2</title>
<g id="a_Node000002"><a xlink:href="ResourcesCommand_8hpp.html" target="_top" xlink:title=" ">
<polygon fill="white" stroke="#666666" points="1187.62,-300 1060.62,-300 1060.62,-280 1187.62,-280 1187.62,-300"/>
<text text-anchor="middle" x="1124.12" y="-286.5" font-family="Helvetica,sans-Serif" font-size="10.00">ResourcesCommand.hpp</text>
</a>
</g>
</g>
<!-- Node1&#45;&gt;Node2 -->
<g id="edge1_Node000001_Node000002" class="edge">
<title>Node1&#45;&gt;Node2</title>
<g id="a_edge1_Node000001_Node000002"><a xlink:title=" ">
<path fill="none" stroke="#63b8ff" d="M1124.12,-335.55C1124.12,-328.34 1124.12,-319.66 1124.12,-311.88"/>
<polygon fill="#63b8ff" stroke="#63b8ff" points="1127.63,-311.92 1124.13,-301.92 1120.63,-311.92 1127.63,-311.92"/>
</a>
</g>
</g>
<!-- Node4 -->
<g id="Node000004" class="node">
<title>Node4</title>
<g id="a_Node000004"><a xlink:href="Core_8hpp.html" target="_top" xlink:title=" ">
<polygon fill="white" stroke="#666666" points="896,-188 840.25,-188 840.25,-168 896,-168 896,-188"/>
<text text-anchor="middle" x="868.12" y="-174.5" font-family="Helvetica,sans-Serif" font-size="10.00">Core.hpp</text>
</a>
</g>
</g>
<!-- Node1&#45;&gt;Node4 -->
<g id="edge54_Node000001_Node000004" class="edge">
<title>Node1&#45;&gt;Node4</title>
<g id="a_edge54_Node000001_Node000004"><a xlink:title=" ">
<path fill="none" stroke="#63b8ff" d="M1101.41,-335.74C1053.08,-303.27 940.52,-227.64 891.56,-194.75"/>
<polygon fill="#63b8ff" stroke="#63b8ff" points="893.64,-191.92 883.39,-189.25 889.73,-197.74 893.64,-191.92"/>
</a>
</g>
</g>
<!-- Node7 -->
<g id="Node000007" class="node">
<title>Node7</title>
<g id="a_Node000007"><a xlink:title=" ">
<polygon fill="#e0e0e0" stroke="#999999" points="195.25,-132 135,-132 135,-112 195.25,-112 195.25,-132"/>
<text text-anchor="middle" x="165.12" y="-118.5" font-family="Helvetica,sans-Serif" font-size="10.00">fmt/core.h</text>
</a>
</g>
</g>
<!-- Node1&#45;&gt;Node7 -->
<g id="edge53_Node000001_Node000007" class="edge">
<title>Node1&#45;&gt;Node7</title>
<g id="a_edge53_Node000001_Node000007"><a xlink:title=" ">
<path fill="none" stroke="#63b8ff" d="M1064.26,-335.6C937.72,-303.22 633.63,-226.25 377.12,-168 304.38,-151.48 283.32,-148.79 206.86,-132.34"/>
<polygon fill="#63b8ff" stroke="#63b8ff" points="207.68,-128.94 197.17,-130.25 206.2,-135.78 207.68,-128.94"/>
</a>
</g>
</g>
<!-- Node22 -->
<g id="Node000022" class="node">
<title>Node22</title>
<g id="a_Node000022"><a xlink:title=" ">
<polygon fill="#e0e0e0" stroke="#999999" points="1654.5,-76 1571.75,-76 1571.75,-56 1654.5,-56 1654.5,-76"/>
<text text-anchor="middle" x="1613.12" y="-62.5" font-family="Helvetica,sans-Serif" font-size="10.00">appcommand.h</text>
</a>
</g>
</g>
<!-- Node1&#45;&gt;Node22 -->
<g id="edge51_Node000001_Node000022" class="edge">
<title>Node1&#45;&gt;Node22</title>
<g id="a_edge51_Node000001_Node000022"><a xlink:title=" ">
<path fill="none" stroke="#63b8ff" d="M1212.24,-349.13C1359.62,-343.59 1640.12,-321.65 1640.12,-235 1640.12,-235 1640.12,-235 1640.12,-177 1640.12,-144.65 1628.97,-108.44 1621,-86.7"/>
<polygon fill="#63b8ff" stroke="#63b8ff" points="1624.38,-85.73 1617.53,-77.64 1617.84,-88.23 1624.38,-85.73"/>
</a>
</g>
</g>
<!-- Node29 -->
<g id="Node000029" class="node">
<title>Node29</title>
<g id="a_Node000029"><a xlink:title=" ">
<polygon fill="#e0e0e0" stroke="#999999" points="1718.38,-300 1667.88,-300 1667.88,-280 1718.38,-280 1718.38,-300"/>
<text text-anchor="middle" x="1693.12" y="-286.5" font-family="Helvetica,sans-Serif" font-size="10.00">colors.h</text>
</a>
</g>
</g>
<!-- Node1&#45;&gt;Node29 -->
<g id="edge52_Node000001_Node000029" class="edge">
<title>Node1&#45;&gt;Node29</title>
<g id="a_edge52_Node000001_Node000029"><a xlink:title=" ">
<path fill="none" stroke="#63b8ff" d="M1212.26,-346.06C1317.81,-339.33 1499.7,-325.14 1654.12,-300 1654.95,-299.87 1655.78,-299.72 1656.62,-299.58"/>
<polygon fill="#63b8ff" stroke="#63b8ff" points="1657.02,-303.07 1666.14,-297.68 1655.65,-296.2 1657.02,-303.07"/>
</a>
</g>
</g>
<!-- Node30 -->
<g id="Node000030" class="node">
<title>Node30</title>
<g id="a_Node000030"><a xlink:href="ResourceRepository_8hpp.html" target="_top" xlink:title=" ">
<polygon fill="white" stroke="#666666" points="367.75,-188 244.5,-188 244.5,-168 367.75,-168 367.75,-188"/>
<text text-anchor="middle" x="306.12" y="-174.5" font-family="Helvetica,sans-Serif" font-size="10.00">ResourceRepository.hpp</text>
</a>
</g>
</g>
<!-- Node1&#45;&gt;Node30 -->
<g id="edge55_Node000001_Node000030" class="edge">
<title>Node1&#45;&gt;Node30</title>
<g id="a_edge55_Node000001_Node000030"><a xlink:title=" ">
<path fill="none" stroke="#63b8ff" d="M1035.92,-349.39C851.37,-345.4 437,-332.84 382.12,-300 344.11,-277.25 322.15,-227.36 312.34,-199.27"/>
<polygon fill="#63b8ff" stroke="#63b8ff" points="315.69,-198.23 309.25,-189.82 309.04,-200.41 315.69,-198.23"/>
</a>
</g>
</g>
<!-- Node33 -->
<g id="Node000033" class="node">
<title>Node33</title>
<g id="a_Node000033"><a xlink:title=" ">
<polygon fill="#e0e0e0" stroke="#999999" points="1781.75,-300 1736.5,-300 1736.5,-280 1781.75,-280 1781.75,-300"/>
<text text-anchor="middle" x="1759.12" y="-286.5" font-family="Helvetica,sans-Serif" font-size="10.00">variant</text>
</a>
</g>
</g>
<!-- Node1&#45;&gt;Node33 -->
<g id="edge61_Node000001_Node000033" class="edge">
<title>Node1&#45;&gt;Node33</title>
<g id="a_edge61_Node000001_Node000033"><a xlink:title=" ">
<path fill="none" stroke="#63b8ff" d="M1212.44,-348.77C1328.25,-344.68 1537.7,-333.27 1725.01,-300.03"/>
<polygon fill="#63b8ff" stroke="#63b8ff" points="1725.46,-303.5 1734.69,-298.29 1724.22,-296.61 1725.46,-303.5"/>
</a>
</g>
</g>
<!-- Node3 -->
<g id="Node000003" class="node">
<title>Node3</title>
<g id="a_Node000003"><a xlink:href="Bot_8hpp.html" target="_top" xlink:title=" ">
<polygon fill="white" stroke="#666666" points="1149,-244 1099.25,-244 1099.25,-224 1149,-224 1149,-244"/>
<text text-anchor="middle" x="1124.12" y="-230.5" font-family="Helvetica,sans-Serif" font-size="10.00">Bot.hpp</text>
</a>
</g>
</g>
<!-- Node2&#45;&gt;Node3 -->
<g id="edge2_Node000002_Node000003" class="edge">
<title>Node2&#45;&gt;Node3</title>
<g id="a_edge2_Node000002_Node000003"><a xlink:title=" ">
<path fill="none" stroke="#63b8ff" d="M1124.12,-279.59C1124.12,-273.01 1124.12,-263.96 1124.12,-255.73"/>
<polygon fill="#63b8ff" stroke="#63b8ff" points="1127.63,-255.81 1124.13,-245.81 1120.63,-255.81 1127.63,-255.81"/>
</a>
</g>
</g>
<!-- Node3&#45;&gt;Node4 -->
<g id="edge3_Node000003_Node000004" class="edge">
<title>Node3&#45;&gt;Node4</title>
<g id="a_edge3_Node000003_Node000004"><a xlink:title=" ">
<path fill="none" stroke="#63b8ff" d="M1099.11,-227.72C1054.45,-218.3 960.7,-198.53 907.38,-187.28"/>
<polygon fill="#63b8ff" stroke="#63b8ff" points="908.33,-183.9 897.82,-185.26 906.88,-190.75 908.33,-183.9"/>
</a>
</g>
</g>
<!-- Node13 -->
<g id="Node000013" class="node">
<title>Node13</title>
<g id="a_Node000013"><a xlink:title=" ">
<polygon fill="#e0e0e0" stroke="#999999" points="488.12,-76 448.12,-76 448.12,-56 488.12,-56 488.12,-76"/>
<text text-anchor="middle" x="468.12" y="-62.5" font-family="Helvetica,sans-Serif" font-size="10.00">string</text>
</a>
</g>
</g>
<!-- Node3&#45;&gt;Node13 -->
<g id="edge49_Node000003_Node000013" class="edge">
<title>Node3&#45;&gt;Node13</title>
<g id="a_edge49_Node000003_Node000013"><a xlink:title=" ">
<path fill="none" stroke="#63b8ff" d="M1098.95,-233.35C987.38,-234.32 539.1,-231.89 453.12,-132 442.17,-119.27 448.44,-100.1 455.94,-85.88"/>
<polygon fill="#63b8ff" stroke="#63b8ff" points="458.84,-87.85 460.88,-77.45 452.8,-84.31 458.84,-87.85"/>
</a>
</g>
</g>
<!-- Node15 -->
<g id="Node000015" class="node">
<title>Node15</title>
<g id="a_Node000015"><a xlink:title=" ">
<polygon fill="#e0e0e0" stroke="#999999" points="1527.62,-76 1484.62,-76 1484.62,-56 1527.62,-56 1527.62,-76"/>
<text text-anchor="middle" x="1506.12" y="-62.5" font-family="Helvetica,sans-Serif" font-size="10.00">vector</text>
</a>
</g>
</g>
<!-- Node3&#45;&gt;Node15 -->
<g id="edge50_Node000003_Node000015" class="edge">
<title>Node3&#45;&gt;Node15</title>
<g id="a_edge50_Node000003_Node000015"><a xlink:title=" ">
<path fill="none" stroke="#63b8ff" d="M1149.31,-231.49C1237.23,-225.64 1528.16,-201.27 1583.12,-132 1600.39,-110.25 1566.64,-90.48 1538.51,-78.6"/>
<polygon fill="#63b8ff" stroke="#63b8ff" points="1540.11,-75.47 1529.52,-75.01 1537.51,-81.97 1540.11,-75.47"/>
</a>
</g>
</g>
<!-- Node17 -->
<g id="Node000017" class="node">
<title>Node17</title>
<g id="a_Node000017"><a xlink:href="IButtonCommand_8hpp.html" target="_top" xlink:title=" ">
<polygon fill="white" stroke="#666666" points="797.75,-132 686.5,-132 686.5,-112 797.75,-112 797.75,-132"/>
<text text-anchor="middle" x="742.12" y="-118.5" font-family="Helvetica,sans-Serif" font-size="10.00">IButtonCommand.hpp</text>
</a>
</g>
</g>
<!-- Node3&#45;&gt;Node17 -->
<g id="edge38_Node000003_Node000017" class="edge">
<title>Node3&#45;&gt;Node17</title>
<g id="a_edge38_Node000003_Node000017"><a xlink:title=" ">
<path fill="none" stroke="#63b8ff" d="M1098.84,-225.83C1068.12,-217.08 1014.73,-201.75 969.12,-188 940.59,-179.4 933.71,-176.41 905.12,-168 866.08,-156.51 821.51,-144.27 788.86,-135.46"/>
<polygon fill="#63b8ff" stroke="#63b8ff" points="789.86,-132.1 779.3,-132.88 788.04,-138.86 789.86,-132.1"/>
</a>
</g>
</g>
<!-- Node20 -->
<g id="Node000020" class="node">
<title>Node20</title>
<g id="a_Node000020"><a xlink:href="IFormCommand_8hpp.html" target="_top" xlink:title=" ">
<polygon fill="white" stroke="#666666" points="920.75,-132 815.5,-132 815.5,-112 920.75,-112 920.75,-132"/>
<text text-anchor="middle" x="868.12" y="-118.5" font-family="Helvetica,sans-Serif" font-size="10.00">IFormCommand.hpp</text>
</a>
</g>
</g>
<!-- Node3&#45;&gt;Node20 -->
<g id="edge39_Node000003_Node000020" class="edge">
<title>Node3&#45;&gt;Node20</title>
<g id="a_edge39_Node000003_Node000020"><a xlink:title=" ">
<path fill="none" stroke="#63b8ff" d="M1102.3,-223.62C1057.14,-204.22 953.28,-159.59 900.37,-136.86"/>
<polygon fill="#63b8ff" stroke="#63b8ff" points="901.86,-133.68 891.29,-132.95 899.09,-140.12 901.86,-133.68"/>
</a>
</g>
</g>
<!-- Node21 -->
<g id="Node000021" class="node">
<title>Node21</title>
<g id="a_Node000021"><a xlink:href="IGlobalSlashCommand_8hpp.html" target="_top" xlink:title=" ">
<polygon fill="white" stroke="#666666" points="1573.75,-132 1438.5,-132 1438.5,-112 1573.75,-112 1573.75,-132"/>
<text text-anchor="middle" x="1506.12" y="-118.5" font-family="Helvetica,sans-Serif" font-size="10.00">IGlobalSlashCommand.hpp</text>
</a>
</g>
</g>
<!-- Node3&#45;&gt;Node21 -->
<g id="edge40_Node000003_Node000021" class="edge">
<title>Node3&#45;&gt;Node21</title>
<g id="a_edge40_Node000003_Node000021"><a xlink:title=" ">
<path fill="none" stroke="#63b8ff" d="M1149.3,-226.91C1183.23,-218.6 1245.47,-203.03 1298.12,-188 1357.11,-171.17 1424.81,-149.58 1466.53,-136.02"/>
<polygon fill="#63b8ff" stroke="#63b8ff" points="1467.46,-139.4 1475.88,-132.97 1465.29,-132.74 1467.46,-139.4"/>
</a>
</g>
</g>
<!-- Node23 -->
<g id="Node000023" class="node">
<title>Node23</title>
<g id="a_Node000023"><a xlink:href="IMemberCommand_8hpp.html" target="_top" xlink:title=" ">
<polygon fill="white" stroke="#666666" points="1057.12,-132 939.12,-132 939.12,-112 1057.12,-112 1057.12,-132"/>
<text text-anchor="middle" x="998.12" y="-118.5" font-family="Helvetica,sans-Serif" font-size="10.00">IMemberCommand.hpp</text>
</a>
</g>
</g>
<!-- Node3&#45;&gt;Node23 -->
<g id="edge41_Node000003_Node000023" class="edge">
<title>Node3&#45;&gt;Node23</title>
<g id="a_edge41_Node000003_Node000023"><a xlink:title=" ">
<path fill="none" stroke="#63b8ff" d="M1113.38,-223.62C1092.09,-205.03 1044.27,-163.28 1017.39,-139.82"/>
<polygon fill="#63b8ff" stroke="#63b8ff" points="1019.82,-137.29 1009.98,-133.35 1015.21,-142.56 1019.82,-137.29"/>
</a>
</g>
</g>
<!-- Node24 -->
<g id="Node000024" class="node">
<title>Node24</title>
<g id="a_Node000024"><a xlink:href="IMessageCommand_8hpp.html" target="_top" xlink:title=" ">
<polygon fill="white" stroke="#666666" points="1197.38,-132 1074.88,-132 1074.88,-112 1197.38,-112 1197.38,-132"/>
<text text-anchor="middle" x="1136.12" y="-118.5" font-family="Helvetica,sans-Serif" font-size="10.00">IMessageCommand.hpp</text>
</a>
</g>
</g>
<!-- Node3&#45;&gt;Node24 -->
<g id="edge42_Node000003_Node000024" class="edge">
<title>Node3&#45;&gt;Node24</title>
<g id="a_edge42_Node000003_Node000024"><a xlink:title=" ">
<path fill="none" stroke="#63b8ff" d="M1122.21,-223.67C1119.9,-210.98 1116.74,-187.61 1120.12,-168 1121.59,-159.54 1124.48,-150.55 1127.42,-142.86"/>
<polygon fill="#63b8ff" stroke="#63b8ff" points="1130.58,-144.38 1131.14,-133.8 1124.1,-141.72 1130.58,-144.38"/>
</a>
</g>
</g>
<!-- Node25 -->
<g id="Node000025" class="node">
<title>Node25</title>
<g id="a_Node000025"><a xlink:href="IReactionCommand_8hpp.html" target="_top" xlink:title=" ">
<polygon fill="white" stroke="#666666" points="1337,-132 1215.25,-132 1215.25,-112 1337,-112 1337,-132"/>
<text text-anchor="middle" x="1276.12" y="-118.5" font-family="Helvetica,sans-Serif" font-size="10.00">IReactionCommand.hpp</text>
</a>
</g>
</g>
<!-- Node3&#45;&gt;Node25 -->
<g id="edge43_Node000003_Node000025" class="edge">
<title>Node3&#45;&gt;Node25</title>
<g id="a_edge43_Node000003_Node000025"><a xlink:title=" ">
<path fill="none" stroke="#63b8ff" d="M1149.43,-228.8C1175.38,-223.35 1215.58,-211.6 1242.12,-188 1255.66,-175.97 1264.65,-157.25 1269.97,-142.99"/>
<polygon fill="#63b8ff" stroke="#63b8ff" points="1273.21,-144.32 1273.1,-133.73 1266.58,-142.08 1273.21,-144.32"/>
</a>
</g>
</g>
<!-- Node26 -->
<g id="Node000026" class="node">
<title>Node26</title>
<g id="a_Node000026"><a xlink:href="IReady_8hpp.html" target="_top" xlink:title=" ">
<polygon fill="white" stroke="#666666" points="1420.88,-132 1355.38,-132 1355.38,-112 1420.88,-112 1420.88,-132"/>
<text text-anchor="middle" x="1388.12" y="-118.5" font-family="Helvetica,sans-Serif" font-size="10.00">IReady.hpp</text>
</a>
</g>
</g>
<!-- Node3&#45;&gt;Node26 -->
<g id="edge44_Node000003_Node000026" class="edge">
<title>Node3&#45;&gt;Node26</title>
<g id="a_edge44_Node000003_Node000026"><a xlink:title=" ">
<path fill="none" stroke="#63b8ff" d="M1149.44,-226.18C1177.65,-218.26 1224.4,-204.2 1263.12,-188 1298.66,-173.13 1337.79,-151.95 1362.63,-137.86"/>
<polygon fill="#63b8ff" stroke="#63b8ff" points="1364.1,-141.05 1371.04,-133.04 1360.62,-134.98 1364.1,-141.05"/>
</a>
</g>
</g>
<!-- Node27 -->
<g id="Node000027" class="node">
<title>Node27</title>
<g id="a_Node000027"><a xlink:title=" ">
<polygon fill="#e0e0e0" stroke="#999999" points="1163.5,-188 1128.75,-188 1128.75,-168 1163.5,-168 1163.5,-188"/>
<text text-anchor="middle" x="1146.12" y="-174.5" font-family="Helvetica,sans-Serif" font-size="10.00">map</text>
</a>
</g>
</g>
<!-- Node3&#45;&gt;Node27 -->
<g id="edge47_Node000003_Node000027" class="edge">
<title>Node3&#45;&gt;Node27</title>
<g id="a_edge47_Node000003_Node000027"><a xlink:title=" ">
<path fill="none" stroke="#63b8ff" d="M1127.96,-223.59C1130.73,-216.78 1134.59,-207.32 1138.03,-198.86"/>
<polygon fill="#63b8ff" stroke="#63b8ff" points="1141.23,-200.28 1141.77,-189.7 1134.75,-197.64 1141.23,-200.28"/>
</a>
</g>
</g>
<!-- Node28 -->
<g id="Node000028" class="node">
<title>Node28</title>
<g id="a_Node000028"><a xlink:title=" ">
<polygon fill="#e0e0e0" stroke="#999999" points="1232.75,-188 1181.5,-188 1181.5,-168 1232.75,-168 1232.75,-188"/>
<text text-anchor="middle" x="1207.12" y="-174.5" font-family="Helvetica,sans-Serif" font-size="10.00">memory</text>
</a>
</g>
</g>
<!-- Node3&#45;&gt;Node28 -->
<g id="edge48_Node000003_Node000028" class="edge">
<title>Node3&#45;&gt;Node28</title>
<g id="a_edge48_Node000003_Node000028"><a xlink:title=" ">
<path fill="none" stroke="#63b8ff" d="M1138.58,-223.59C1150.88,-215.59 1168.8,-203.93 1183.23,-194.54"/>
<polygon fill="#63b8ff" stroke="#63b8ff" points="1184.81,-197.69 1191.29,-189.3 1181,-191.82 1184.81,-197.69"/>
</a>
</g>
</g>
<!-- Node5 -->
<g id="Node000005" class="node">
<title>Node5</title>
<g id="a_Node000005"><a xlink:title=" ">
<polygon fill="#e0e0e0" stroke="#999999" points="520.5,-132 461.75,-132 461.75,-112 520.5,-112 520.5,-132"/>
<text text-anchor="middle" x="491.12" y="-118.5" font-family="Helvetica,sans-Serif" font-size="10.00">dpp/dpp.h</text>
</a>
</g>
</g>
<!-- Node4&#45;&gt;Node5 -->
<g id="edge4_Node000004_Node000005" class="edge">
<title>Node4&#45;&gt;Node5</title>
<g id="a_edge4_Node000004_Node000005"><a xlink:title=" ">
<path fill="none" stroke="#63b8ff" d="M839.85,-174.22C783.25,-168.45 651.84,-154 532.11,-132.4"/>
<polygon fill="#63b8ff" stroke="#63b8ff" points="532.89,-128.99 522.42,-130.63 531.63,-135.87 532.89,-128.99"/>
</a>
</g>
</g>
<!-- Node6 -->
<g id="Node000006" class="node">
<title>Node6</title>
<g id="a_Node000006"><a xlink:title=" ">
<polygon fill="#e0e0e0" stroke="#999999" points="629.62,-132 538.62,-132 538.62,-112 629.62,-112 629.62,-132"/>
<text text-anchor="middle" x="584.12" y="-118.5" font-family="Helvetica,sans-Serif" font-size="10.00">dpp/misc&#45;enum.h</text>
</a>
</g>
</g>
<!-- Node4&#45;&gt;Node6 -->
<g id="edge5_Node000004_Node000006" class="edge">
<title>Node4&#45;&gt;Node6</title>
<g id="a_edge5_Node000004_Node000006"><a xlink:title=" ">
<path fill="none" stroke="#63b8ff" d="M839.86,-171.62C793.72,-162.85 701.37,-145.29 641.19,-133.85"/>
<polygon fill="#63b8ff" stroke="#63b8ff" points="641.95,-130.43 631.47,-132 640.64,-137.31 641.95,-130.43"/>
</a>
</g>
</g>
<!-- Node4&#45;&gt;Node7 -->
<g id="edge6_Node000004_Node000007" class="edge">
<title>Node4&#45;&gt;Node7</title>
<g id="a_edge6_Node000004_Node000007"><a xlink:title=" ">
<path fill="none" stroke="#63b8ff" d="M839.85,-176.63C749.24,-175.12 457.86,-167.74 206.78,-131.98"/>
<polygon fill="#63b8ff" stroke="#63b8ff" points="207.51,-128.55 197.11,-130.58 206.5,-135.48 207.51,-128.55"/>
</a>
</g>
</g>
<!-- Node8 -->
<g id="Node000008" class="node">
<title>Node8</title>
<g id="a_Node000008"><a xlink:href="Database_8hpp.html" target="_top" xlink:title=" ">
<polygon fill="white" stroke="#666666" points="290.5,-132 213.75,-132 213.75,-112 290.5,-112 290.5,-132"/>
<text text-anchor="middle" x="252.12" y="-118.5" font-family="Helvetica,sans-Serif" font-size="10.00">Database.hpp</text>
</a>
</g>
</g>
<!-- Node4&#45;&gt;Node8 -->
<g id="edge7_Node000004_Node000008" class="edge">
<title>Node4&#45;&gt;Node8</title>
<g id="a_edge7_Node000004_Node000008"><a xlink:title=" ">
<path fill="none" stroke="#63b8ff" d="M839.89,-175.87C758.18,-172.37 514.38,-160.28 302.16,-132.27"/>
<polygon fill="#63b8ff" stroke="#63b8ff" points="302.67,-128.81 292.3,-130.96 301.75,-135.75 302.67,-128.81"/>
</a>
</g>
</g>
<!-- Node4&#45;&gt;Node13 -->
<g id="edge37_Node000004_Node000013" class="edge">
<title>Node4&#45;&gt;Node13</title>
<g id="a_edge37_Node000004_Node000013"><a xlink:title=" ">
<path fill="none" stroke="#63b8ff" d="M839.99,-172.57C802.18,-166.13 733.23,-152.65 677.12,-132 658.84,-125.27 656.31,-118.98 638.12,-112 591.21,-94 534.35,-80.54 499.72,-73.23"/>
<polygon fill="#63b8ff" stroke="#63b8ff" points="500.44,-69.8 489.94,-71.21 499.02,-76.66 500.44,-69.8"/>
</a>
</g>
</g>
<!-- Node4&#45;&gt;Node17 -->
<g id="edge17_Node000004_Node000017" class="edge">
<title>Node4&#45;&gt;Node17</title>
<g id="a_edge17_Node000004_Node000017"><a xlink:title=" ">
<path fill="none" stroke="#63b8ff" d="M846.18,-167.59C826.42,-159.13 797.13,-146.58 774.66,-136.94"/>
<polygon fill="#63b8ff" stroke="#63b8ff" points="776.21,-133.8 765.63,-133.08 773.45,-140.23 776.21,-133.8"/>
</a>
</g>
</g>
<!-- Node4&#45;&gt;Node20 -->
<g id="edge20_Node000004_Node000020" class="edge">
<title>Node4&#45;&gt;Node20</title>
<g id="a_edge20_Node000004_Node000020"><a xlink:title=" ">
<path fill="none" stroke="#63b8ff" d="M868.12,-167.59C868.12,-161.01 868.12,-151.96 868.12,-143.73"/>
<polygon fill="#63b8ff" stroke="#63b8ff" points="871.63,-143.81 868.13,-133.81 864.63,-143.81 871.63,-143.81"/>
</a>
</g>
</g>
<!-- Node4&#45;&gt;Node21 -->
<g id="edge23_Node000004_Node000021" class="edge">
<title>Node4&#45;&gt;Node21</title>
<g id="a_edge23_Node000004_Node000021"><a xlink:title=" ">
<path fill="none" stroke="#63b8ff" d="M896.23,-175.13C976.99,-169.67 1216.94,-152.9 1426.94,-132.28"/>
<polygon fill="#63b8ff" stroke="#63b8ff" points="1427.07,-135.79 1436.68,-131.32 1426.38,-128.82 1427.07,-135.79"/>
</a>
</g>
</g>
<!-- Node4&#45;&gt;Node23 -->
<g id="edge28_Node000004_Node000023" class="edge">
<title>Node4&#45;&gt;Node23</title>
<g id="a_edge28_Node000004_Node000023"><a xlink:title=" ">
<path fill="none" stroke="#63b8ff" d="M890.77,-167.59C911.24,-159.09 941.64,-146.46 964.87,-136.81"/>
<polygon fill="#63b8ff" stroke="#63b8ff" points="966.01,-140.13 973.91,-133.06 963.33,-133.66 966.01,-140.13"/>
</a>
</g>
</g>
<!-- Node4&#45;&gt;Node24 -->
<g id="edge31_Node000004_Node000024" class="edge">
<title>Node4&#45;&gt;Node24</title>
<g id="a_edge31_Node000004_Node000024"><a xlink:title=" ">
<path fill="none" stroke="#63b8ff" d="M896.3,-171.32C939.17,-162.68 1021.73,-146.05 1077.87,-134.74"/>
<polygon fill="#63b8ff" stroke="#63b8ff" points="1078.48,-138.19 1087.59,-132.78 1077.1,-131.32 1078.48,-138.19"/>
</a>
</g>
</g>
<!-- Node4&#45;&gt;Node25 -->
<g id="edge34_Node000004_Node000025" class="edge">
<title>Node4&#45;&gt;Node25</title>
<g id="a_edge34_Node000004_Node000025"><a xlink:title=" ">
<path fill="none" stroke="#63b8ff" d="M896.49,-173.25C959.4,-164.92 1112.26,-144.69 1203.67,-132.59"/>
<polygon fill="#63b8ff" stroke="#63b8ff" points="1204.1,-136.06 1213.55,-131.28 1203.18,-129.12 1204.1,-136.06"/>
</a>
</g>
</g>
<!-- Node9 -->
<g id="Node000009" class="node">
<title>Node9</title>
<g id="a_Node000009"><a xlink:title=" ">
<polygon fill="#e0e0e0" stroke="#999999" points="48.25,-76 0,-76 0,-56 48.25,-56 48.25,-76"/>
<text text-anchor="middle" x="24.12" y="-62.5" font-family="Helvetica,sans-Serif" font-size="10.00">cstddef</text>
</a>
</g>
</g>
<!-- Node8&#45;&gt;Node9 -->
<g id="edge8_Node000008_Node000009" class="edge">
<title>Node8&#45;&gt;Node9</title>
<g id="a_edge8_Node000008_Node000009"><a xlink:title=" ">
<path fill="none" stroke="#63b8ff" d="M213.54,-112.57C176.43,-104.35 118.5,-91.26 59.61,-76.55"/>
<polygon fill="#63b8ff" stroke="#63b8ff" points="60.62,-73.2 50.07,-74.16 58.92,-79.99 60.62,-73.2"/>
</a>
</g>
</g>
<!-- Node10 -->
<g id="Node000010" class="node">
<title>Node10</title>
<g id="a_Node000010"><a xlink:title=" ">
<polygon fill="#e0e0e0" stroke="#999999" points="119.88,-76 66.38,-76 66.38,-56 119.88,-56 119.88,-76"/>
<text text-anchor="middle" x="93.12" y="-62.5" font-family="Helvetica,sans-Serif" font-size="10.00">iostream</text>
</a>
</g>
</g>
<!-- Node8&#45;&gt;Node10 -->
<g id="edge9_Node000008_Node000010" class="edge">
<title>Node8&#45;&gt;Node10</title>
<g id="a_edge9_Node000008_Node000010"><a xlink:title=" ">
<path fill="none" stroke="#63b8ff" d="M224.43,-111.59C198.59,-102.82 159.81,-89.65 131.09,-79.89"/>
<polygon fill="#63b8ff" stroke="#63b8ff" points="132.27,-76.6 121.67,-76.69 130.01,-83.22 132.27,-76.6"/>
</a>
</g>
</g>
<!-- Node11 -->
<g id="Node000011" class="node">
<title>Node11</title>
<g id="a_Node000011"><a xlink:title=" ">
<polygon fill="#e0e0e0" stroke="#999999" points="188,-76 138.25,-76 138.25,-56 188,-56 188,-76"/>
<text text-anchor="middle" x="163.12" y="-62.5" font-family="Helvetica,sans-Serif" font-size="10.00">optional</text>
</a>
</g>
</g>
<!-- Node8&#45;&gt;Node11 -->
<g id="edge10_Node000008_Node000011" class="edge">
<title>Node8&#45;&gt;Node11</title>
<g id="a_edge10_Node000008_Node000011"><a xlink:title=" ">
<path fill="none" stroke="#63b8ff" d="M236.62,-111.59C223.3,-103.51 203.85,-91.71 188.3,-82.27"/>
<polygon fill="#63b8ff" stroke="#63b8ff" points="190.41,-79.46 180.04,-77.26 186.78,-85.44 190.41,-79.46"/>
</a>
</g>
</g>
<!-- Node12 -->
<g id="Node000012" class="node">
<title>Node12</title>
<g id="a_Node000012"><a xlink:title=" ">
<polygon fill="#e0e0e0" stroke="#999999" points="363.62,-20 302.62,-20 302.62,0 363.62,0 363.62,-20"/>
<text text-anchor="middle" x="333.12" y="-6.5" font-family="Helvetica,sans-Serif" font-size="10.00">pqxx/pqxx</text>
</a>
</g>
</g>
<!-- Node8&#45;&gt;Node12 -->
<g id="edge11_Node000008_Node000012" class="edge">
<title>Node8&#45;&gt;Node12</title>
<g id="a_edge11_Node000008_Node000012"><a xlink:title=" ">
<path fill="none" stroke="#63b8ff" d="M259.03,-111.62C272.42,-93.44 302.13,-53.09 319.59,-29.38"/>
<polygon fill="#63b8ff" stroke="#63b8ff" points="322.23,-31.7 325.34,-21.57 316.59,-27.55 322.23,-31.7"/>
</a>
</g>
</g>
<!-- Node8&#45;&gt;Node13 -->
<g id="edge12_Node000008_Node000013" class="edge">
<title>Node8&#45;&gt;Node13</title>
<g id="a_edge12_Node000008_Node000013"><a xlink:title=" ">
<path fill="none" stroke="#63b8ff" d="M290.99,-112.42C326.65,-104.38 381.15,-91.66 437.07,-76.44"/>
<polygon fill="#63b8ff" stroke="#63b8ff" points="437.72,-79.89 446.43,-73.86 435.86,-73.14 437.72,-79.89"/>
</a>
</g>
</g>
<!-- Node14 -->
<g id="Node000014" class="node">
<title>Node14</title>
<g id="a_Node000014"><a xlink:title=" ">
<polygon fill="#e0e0e0" stroke="#999999" points="264.12,-76 206.12,-76 206.12,-56 264.12,-56 264.12,-76"/>
<text text-anchor="middle" x="235.12" y="-62.5" font-family="Helvetica,sans-Serif" font-size="10.00">typeindex</text>
</a>
</g>
</g>
<!-- Node8&#45;&gt;Node14 -->
<g id="edge13_Node000008_Node000014" class="edge">
<title>Node8&#45;&gt;Node14</title>
<g id="a_edge13_Node000008_Node000014"><a xlink:title=" ">
<path fill="none" stroke="#63b8ff" d="M249.16,-111.59C247.04,-104.86 244.11,-95.53 241.47,-87.15"/>
<polygon fill="#63b8ff" stroke="#63b8ff" points="244.85,-86.23 238.51,-77.74 238.17,-88.33 244.85,-86.23"/>
</a>
</g>
</g>
<!-- Node8&#45;&gt;Node15 -->
<g id="edge14_Node000008_Node000015" class="edge">
<title>Node8&#45;&gt;Node15</title>
<g id="a_edge14_Node000008_Node000015"><a xlink:title=" ">
<path fill="none" stroke="#63b8ff" d="M290.78,-113.12C293.6,-112.69 296.4,-112.31 299.12,-112 359.01,-105.19 1285.18,-74.31 1473.04,-68.09"/>
<polygon fill="#63b8ff" stroke="#63b8ff" points="1472.94,-71.6 1482.81,-67.77 1472.7,-64.6 1472.94,-71.6"/>
</a>
</g>
</g>
<!-- Node16 -->
<g id="Node000016" class="node">
<title>Node16</title>
<g id="a_Node000016"><a xlink:href="RowDTOAdapter_8hpp.html" target="_top" xlink:title=" ">
<polygon fill="white" stroke="#666666" points="430,-76 320.25,-76 320.25,-56 430,-56 430,-76"/>
<text text-anchor="middle" x="375.12" y="-62.5" font-family="Helvetica,sans-Serif" font-size="10.00">RowDTOAdapter.hpp</text>
</a>
</g>
</g>
<!-- Node8&#45;&gt;Node16 -->
<g id="edge15_Node000008_Node000016" class="edge">
<title>Node8&#45;&gt;Node16</title>
<g id="a_edge15_Node000008_Node000016"><a xlink:title=" ">
<path fill="none" stroke="#63b8ff" d="M273.55,-111.59C292.75,-103.17 321.17,-90.69 343.07,-81.07"/>
<polygon fill="#63b8ff" stroke="#63b8ff" points="344.4,-84.31 352.15,-77.09 341.58,-77.9 344.4,-84.31"/>
</a>
</g>
</g>
<!-- Node16&#45;&gt;Node12 -->
<g id="edge16_Node000016_Node000012" class="edge">
<title>Node16&#45;&gt;Node12</title>
<g id="a_edge16_Node000016_Node000012"><a xlink:title=" ">
<path fill="none" stroke="#63b8ff" d="M367.81,-55.59C362.15,-48.32 354.14,-38.02 347.24,-29.15"/>
<polygon fill="#63b8ff" stroke="#63b8ff" points="350.19,-27.24 341.29,-21.49 344.66,-31.54 350.19,-27.24"/>
</a>
</g>
</g>
<!-- Node18 -->
<g id="Node000018" class="node">
<title>Node18</title>
<g id="a_Node000018"><a xlink:title=" ">
<polygon fill="#e0e0e0" stroke="#999999" points="1221.25,-76 1149,-76 1149,-56 1221.25,-56 1221.25,-76"/>
<text text-anchor="middle" x="1185.12" y="-62.5" font-family="Helvetica,sans-Serif" font-size="10.00">dpp/cluster.h</text>
</a>
</g>
</g>
<!-- Node17&#45;&gt;Node18 -->
<g id="edge18_Node000017_Node000018" class="edge">
<title>Node17&#45;&gt;Node18</title>
<g id="a_edge18_Node000017_Node000018"><a xlink:title=" ">
<path fill="none" stroke="#63b8ff" d="M797.96,-113.04C800.72,-112.68 803.45,-112.33 806.12,-112 950.67,-94.05 990.62,-98.43 1137.59,-76.27"/>
<polygon fill="#63b8ff" stroke="#63b8ff" points="1137.97,-79.75 1147.33,-74.78 1136.92,-72.83 1137.97,-79.75"/>
</a>
</g>
</g>
<!-- Node19 -->
<g id="Node000019" class="node">
<title>Node19</title>
<g id="a_Node000019"><a xlink:title=" ">
<polygon fill="#e0e0e0" stroke="#999999" points="1131.12,-76 1043.12,-76 1043.12,-56 1131.12,-56 1131.12,-76"/>
<text text-anchor="middle" x="1087.12" y="-62.5" font-family="Helvetica,sans-Serif" font-size="10.00">dpp/dispatcher.h</text>
</a>
</g>
</g>
<!-- Node17&#45;&gt;Node19 -->
<g id="edge19_Node000017_Node000019" class="edge">
<title>Node17&#45;&gt;Node19</title>
<g id="a_edge19_Node000017_Node000019"><a xlink:title=" ">
<path fill="none" stroke="#63b8ff" d="M797.94,-112.26C862.26,-102.2 967.31,-85.75 1031.54,-75.7"/>
<polygon fill="#63b8ff" stroke="#63b8ff" points="1031.81,-79.2 1041.15,-74.2 1030.73,-72.28 1031.81,-79.2"/>
</a>
</g>
</g>
<!-- Node20&#45;&gt;Node18 -->
<g id="edge21_Node000020_Node000018" class="edge">
<title>Node20&#45;&gt;Node18</title>
<g id="a_edge21_Node000020_Node000018"><a xlink:title=" ">
<path fill="none" stroke="#63b8ff" d="M921.12,-112.77C973.65,-104.49 1056.68,-91.08 1137.87,-76.36"/>
<polygon fill="#63b8ff" stroke="#63b8ff" points="1138.1,-79.88 1147.31,-74.65 1136.84,-72.99 1138.1,-79.88"/>
</a>
</g>
</g>
<!-- Node20&#45;&gt;Node19 -->
<g id="edge22_Node000020_Node000019" class="edge">
<title>Node20&#45;&gt;Node19</title>
<g id="a_edge22_Node000020_Node000019"><a xlink:title=" ">
<path fill="none" stroke="#63b8ff" d="M906.52,-111.53C943,-102.54 998.02,-88.97 1037.74,-79.18"/>
<polygon fill="#63b8ff" stroke="#63b8ff" points="1038.43,-82.61 1047.3,-76.82 1036.75,-75.82 1038.43,-82.61"/>
</a>
</g>
</g>
<!-- Node21&#45;&gt;Node15 -->
<g id="edge27_Node000021_Node000015" class="edge">
<title>Node21&#45;&gt;Node15</title>
<g id="a_edge27_Node000021_Node000015"><a xlink:title=" ">
<path fill="none" stroke="#63b8ff" d="M1506.12,-111.59C1506.12,-105.01 1506.12,-95.96 1506.12,-87.73"/>
<polygon fill="#63b8ff" stroke="#63b8ff" points="1509.63,-87.81 1506.13,-77.81 1502.63,-87.81 1509.63,-87.81"/>
</a>
</g>
</g>
<!-- Node21&#45;&gt;Node18 -->
<g id="edge25_Node000021_Node000018" class="edge">
<title>Node21&#45;&gt;Node18</title>
<g id="a_edge25_Node000021_Node000018"><a xlink:title=" ">
<path fill="none" stroke="#63b8ff" d="M1449.84,-111.53C1388.15,-101.15 1290.25,-84.69 1232.39,-74.95"/>
<polygon fill="#63b8ff" stroke="#63b8ff" points="1233.31,-71.56 1222.86,-73.35 1232.14,-78.46 1233.31,-71.56"/>
</a>
</g>
</g>
<!-- Node21&#45;&gt;Node19 -->
<g id="edge26_Node000021_Node000019" class="edge">
<title>Node21&#45;&gt;Node19</title>
<g id="a_edge26_Node000021_Node000019"><a xlink:title=" ">
<path fill="none" stroke="#63b8ff" d="M1438.08,-112.8C1347.99,-101.93 1195.18,-83.4 1142.49,-76.23"/>
<polygon fill="#63b8ff" stroke="#63b8ff" points="1143.24,-72.8 1132.85,-74.88 1142.26,-79.73 1143.24,-72.8"/>
</a>
</g>
</g>
<!-- Node21&#45;&gt;Node22 -->
<g id="edge24_Node000021_Node000022" class="edge">
<title>Node21&#45;&gt;Node22</title>
<g id="a_edge24_Node000021_Node000022"><a xlink:title=" ">
<path fill="none" stroke="#63b8ff" d="M1524.76,-111.59C1541.16,-103.32 1565.28,-91.14 1584.19,-81.6"/>
<polygon fill="#63b8ff" stroke="#63b8ff" points="1585.64,-84.79 1592.99,-77.16 1582.49,-78.54 1585.64,-84.79"/>
</a>
</g>
</g>
<!-- Node23&#45;&gt;Node18 -->
<g id="edge29_Node000023_Node000018" class="edge">
<title>Node23&#45;&gt;Node18</title>
<g id="a_edge29_Node000023_Node000018"><a xlink:title=" ">
<path fill="none" stroke="#63b8ff" d="M1030.7,-111.59C1061.35,-102.74 1107.47,-89.43 1141.33,-79.65"/>
<polygon fill="#63b8ff" stroke="#63b8ff" points="1142.21,-83.04 1150.84,-76.9 1140.27,-76.31 1142.21,-83.04"/>
</a>
</g>
</g>
<!-- Node23&#45;&gt;Node19 -->
<g id="edge30_Node000023_Node000019" class="edge">
<title>Node23&#45;&gt;Node19</title>
<g id="a_edge30_Node000023_Node000019"><a xlink:title=" ">
<path fill="none" stroke="#63b8ff" d="M1013.63,-111.59C1026.95,-103.51 1046.4,-91.71 1061.95,-82.27"/>
<polygon fill="#63b8ff" stroke="#63b8ff" points="1063.47,-85.44 1070.21,-77.26 1059.84,-79.46 1063.47,-85.44"/>
</a>
</g>
</g>
<!-- Node24&#45;&gt;Node18 -->
<g id="edge32_Node000024_Node000018" class="edge">
<title>Node24&#45;&gt;Node18</title>
<g id="a_edge32_Node000024_Node000018"><a xlink:title=" ">
<path fill="none" stroke="#63b8ff" d="M1144.66,-111.59C1151.41,-104.16 1161.01,-93.58 1169.17,-84.58"/>
<polygon fill="#63b8ff" stroke="#63b8ff" points="1171.54,-87.18 1175.67,-77.42 1166.36,-82.47 1171.54,-87.18"/>
</a>
</g>
</g>
<!-- Node24&#45;&gt;Node19 -->
<g id="edge33_Node000024_Node000019" class="edge">
<title>Node24&#45;&gt;Node19</title>
<g id="a_edge33_Node000024_Node000019"><a xlink:title=" ">
<path fill="none" stroke="#63b8ff" d="M1127.59,-111.59C1120.84,-104.16 1111.24,-93.58 1103.08,-84.58"/>
<polygon fill="#63b8ff" stroke="#63b8ff" points="1105.89,-82.47 1096.58,-77.42 1100.71,-87.18 1105.89,-82.47"/>
</a>
</g>
</g>
<!-- Node25&#45;&gt;Node18 -->
<g id="edge35_Node000025_Node000018" class="edge">
<title>Node25&#45;&gt;Node18</title>
<g id="a_edge35_Node000025_Node000018"><a xlink:title=" ">
<path fill="none" stroke="#63b8ff" d="M1260.27,-111.59C1246.66,-103.51 1226.76,-91.71 1210.86,-82.27"/>
<polygon fill="#63b8ff" stroke="#63b8ff" points="1212.79,-79.35 1202.4,-77.25 1209.22,-85.37 1212.79,-79.35"/>
</a>
</g>
</g>
<!-- Node25&#45;&gt;Node19 -->
<g id="edge36_Node000025_Node000019" class="edge">
<title>Node25&#45;&gt;Node19</title>
<g id="a_edge36_Node000025_Node000019"><a xlink:title=" ">
<path fill="none" stroke="#63b8ff" d="M1243.2,-111.59C1212.09,-102.71 1165.21,-89.31 1130.95,-79.52"/>
<polygon fill="#63b8ff" stroke="#63b8ff" points="1132.34,-76.28 1121.76,-76.9 1130.41,-83.01 1132.34,-76.28"/>
</a>
</g>
</g>
<!-- Node26&#45;&gt;Node18 -->
<g id="edge45_Node000026_Node000018" class="edge">
<title>Node26&#45;&gt;Node18</title>
<g id="a_edge45_Node000026_Node000018"><a xlink:title=" ">
<path fill="none" stroke="#63b8ff" d="M1355.06,-112.2C1321.42,-103.25 1269,-89.31 1231.28,-79.28"/>
<polygon fill="#63b8ff" stroke="#63b8ff" points="1232.59,-76.01 1222.03,-76.82 1230.79,-82.77 1232.59,-76.01"/>
</a>
</g>
</g>
<!-- Node26&#45;&gt;Node19 -->
<g id="edge46_Node000026_Node000019" class="edge">
<title>Node26&#45;&gt;Node19</title>
<g id="a_edge46_Node000026_Node000019"><a xlink:title=" ">
<path fill="none" stroke="#63b8ff" d="M1355.13,-113.8C1352.09,-113.18 1349.05,-112.57 1346.12,-112 1326.55,-108.2 1212.99,-88.62 1142.89,-76.57"/>
<polygon fill="#63b8ff" stroke="#63b8ff" points="1143.55,-73.13 1133.11,-74.89 1142.37,-80.03 1143.55,-73.13"/>
</a>
</g>
</g>
<!-- Node31 -->
<g id="Node000031" class="node">
<title>Node31</title>
<g id="a_Node000031"><a xlink:href="IRepository_8hpp.html" target="_top" xlink:title=" ">
<polygon fill="white" stroke="#666666" points="100.25,-132 16,-132 16,-112 100.25,-112 100.25,-132"/>
<text text-anchor="middle" x="58.12" y="-118.5" font-family="Helvetica,sans-Serif" font-size="10.00">IRepository.hpp</text>
</a>
</g>
</g>
<!-- Node30&#45;&gt;Node31 -->
<g id="edge56_Node000030_Node000031" class="edge">
<title>Node30&#45;&gt;Node31</title>
<g id="a_edge56_Node000030_Node000031"><a xlink:title=" ">
<path fill="none" stroke="#63b8ff" d="M262.64,-167.53C220.64,-158.39 156.92,-144.51 111.78,-134.68"/>
<polygon fill="#63b8ff" stroke="#63b8ff" points="112.72,-131.31 102.21,-132.6 111.23,-138.15 112.72,-131.31"/>
</a>
</g>
</g>
<!-- Node32 -->
<g id="Node000032" class="node">
<title>Node32</title>
<g id="a_Node000032"><a xlink:href="ResourceDTO_8hpp.html" target="_top" xlink:title=" ">
<polygon fill="white" stroke="#666666" points="406,-132 308.25,-132 308.25,-112 406,-112 406,-132"/>
<text text-anchor="middle" x="357.12" y="-118.5" font-family="Helvetica,sans-Serif" font-size="10.00">ResourceDTO.hpp</text>
</a>
</g>
</g>
<!-- Node30&#45;&gt;Node32 -->
<g id="edge58_Node000030_Node000032" class="edge">
<title>Node30&#45;&gt;Node32</title>
<g id="a_edge58_Node000030_Node000032"><a xlink:title=" ">
<path fill="none" stroke="#63b8ff" d="M315.01,-167.59C322.03,-160.16 332.03,-149.58 340.52,-140.58"/>
<polygon fill="#63b8ff" stroke="#63b8ff" points="342.98,-143.07 347.3,-133.4 337.89,-138.27 342.98,-143.07"/>
</a>
</g>
</g>
<!-- Node31&#45;&gt;Node9 -->
<g id="edge57_Node000031_Node000009" class="edge">
<title>Node31&#45;&gt;Node9</title>
<g id="a_edge57_Node000031_Node000009"><a xlink:title=" ">
<path fill="none" stroke="#63b8ff" d="M52.2,-111.59C47.77,-104.55 41.55,-94.67 36.09,-86"/>
<polygon fill="#63b8ff" stroke="#63b8ff" points="39.08,-84.18 30.79,-77.58 33.15,-87.91 39.08,-84.18"/>
</a>
</g>
</g>
<!-- Node32&#45;&gt;Node13 -->
<g id="edge60_Node000032_Node000013" class="edge">
<title>Node32&#45;&gt;Node13</title>
<g id="a_edge60_Node000032_Node000013"><a xlink:title=" ">
<path fill="none" stroke="#63b8ff" d="M376.46,-111.59C393.54,-103.28 418.73,-91.03 438.38,-81.47"/>
<polygon fill="#63b8ff" stroke="#63b8ff" points="439.82,-84.66 447.28,-77.14 436.75,-78.37 439.82,-84.66"/>
</a>
</g>
</g>
<!-- Node32&#45;&gt;Node16 -->
<g id="edge59_Node000032_Node000016" class="edge">
<title>Node32&#45;&gt;Node16</title>
<g id="a_edge59_Node000032_Node000016"><a xlink:title=" ">
<path fill="none" stroke="#63b8ff" d="M360.26,-111.59C362.51,-104.86 365.61,-95.53 368.41,-87.15"/>
<polygon fill="#63b8ff" stroke="#63b8ff" points="371.7,-88.33 371.55,-77.73 365.06,-86.11 371.7,-88.33"/>
</a>
</g>
</g>
</g>
</svg>
