<?xml version="1.0" encoding="UTF-8" standalone="no"?>
<!DOCTYPE svg PUBLIC "-//W3C//DTD SVG 1.1//EN"
 "http://www.w3.org/Graphics/SVG/1.1/DTD/svg11.dtd">
<!-- Generated by graphviz version 9.0.0 (0)
 -->
<!-- Title: src/bot_library/commands/resources/repositories/ResourceRepository.cpp Pages: 1 -->
<svg width="370pt" height="276pt"
 viewBox="0.00 0.00 369.78 276.00" xmlns="http://www.w3.org/2000/svg" xmlns:xlink="http://www.w3.org/1999/xlink">
<g id="graph0" class="graph" transform="scale(1 1) rotate(0) translate(4 272)">
<title>src/bot_library/commands/resources/repositories/ResourceRepository.cpp</title>
<!-- Node1 -->
<g id="Node000001" class="node">
<title>Node1</title>
<g id="a_Node000001"><a xlink:title=" ">
<polygon fill="#999999" stroke="#666666" points="279.53,-268 151.03,-268 151.03,-224 279.53,-224 279.53,-268"/>
<text text-anchor="start" x="159.03" y="-254.5" font-family="Helvetica,sans-Serif" font-size="10.00">src/bot_library/commands</text>
<text text-anchor="start" x="159.03" y="-242.5" font-family="Helvetica,sans-Serif" font-size="10.00">/resources/repositories</text>
<text text-anchor="middle" x="215.28" y="-230.5" font-family="Helvetica,sans-Serif" font-size="10.00">/ResourceRepository.cpp</text>
</a>
</g>
</g>
<!-- Node2 -->
<g id="Node000002" class="node">
<title>Node2</title>
<g id="a_Node000002"><a xlink:href="ResourceRepository_8hpp.html" target="_top" xlink:title=" ">
<polygon fill="white" stroke="#666666" points="224.9,-188 101.65,-188 101.65,-168 224.9,-168 224.9,-188"/>
<text text-anchor="middle" x="163.28" y="-174.5" font-family="Helvetica,sans-Serif" font-size="10.00">ResourceRepository.hpp</text>
</a>
</g>
</g>
<!-- Node1&#45;&gt;Node2 -->
<g id="edge1_Node000001_Node000002" class="edge">
<title>Node1&#45;&gt;Node2</title>
<g id="a_edge1_Node000001_Node000002"><a xlink:title=" ">
<path fill="none" stroke="#63b8ff" d="M198.54,-223.75C191.8,-215.2 184.1,-205.42 177.62,-197.2"/>
<polygon fill="#63b8ff" stroke="#63b8ff" points="180.58,-195.3 171.64,-189.61 175.08,-199.63 180.58,-195.3"/>
</a>
</g>
</g>
<!-- Node4 -->
<g id="Node000004" class="node">
<title>Node4</title>
<g id="a_Node000004"><a xlink:title=" ">
<polygon fill="#e0e0e0" stroke="#999999" points="76.4,-76 28.15,-76 28.15,-56 76.4,-56 76.4,-76"/>
<text text-anchor="middle" x="52.28" y="-62.5" font-family="Helvetica,sans-Serif" font-size="10.00">cstddef</text>
</a>
</g>
</g>
<!-- Node1&#45;&gt;Node4 -->
<g id="edge14_Node000001_Node000004" class="edge">
<title>Node1&#45;&gt;Node4</title>
<g id="a_edge14_Node000001_Node000004"><a xlink:title=" ">
<path fill="none" stroke="#63b8ff" d="M150.62,-230.71C99.99,-215.66 33.27,-186.31 3.28,-132 -6.69,-113.94 10.64,-95.34 27.38,-82.69"/>
<polygon fill="#63b8ff" stroke="#63b8ff" points="29.04,-85.81 35.2,-77.19 25.01,-80.08 29.04,-85.81"/>
</a>
</g>
</g>
<!-- Node9 -->
<g id="Node000009" class="node">
<title>Node9</title>
<g id="a_Node000009"><a xlink:href="Database_8hpp.html" target="_top" xlink:title=" ">
<polygon fill="white" stroke="#666666" points="306.65,-132 229.9,-132 229.9,-112 306.65,-112 306.65,-132"/>
<text text-anchor="middle" x="268.28" y="-118.5" font-family="Helvetica,sans-Serif" font-size="10.00">Database.hpp</text>
</a>
</g>
</g>
<!-- Node1&#45;&gt;Node9 -->
<g id="edge8_Node000001_Node000009" class="edge">
<title>Node1&#45;&gt;Node9</title>
<g id="a_edge8_Node000001_Node000009"><a xlink:title=" ">
<path fill="none" stroke="#63b8ff" d="M224.51,-223.75C234.42,-200.95 250.02,-165.03 259.68,-142.8"/>
<polygon fill="#63b8ff" stroke="#63b8ff" points="262.86,-144.26 263.64,-133.69 256.44,-141.47 262.86,-144.26"/>
</a>
</g>
</g>
<!-- Node10 -->
<g id="Node000010" class="node">
<title>Node10</title>
<g id="a_Node000010"><a xlink:title=" ">
<polygon fill="#e0e0e0" stroke="#999999" points="361.78,-76 318.78,-76 318.78,-56 361.78,-56 361.78,-76"/>
<text text-anchor="middle" x="340.28" y="-62.5" font-family="Helvetica,sans-Serif" font-size="10.00">vector</text>
</a>
</g>
</g>
<!-- Node1&#45;&gt;Node10 -->
<g id="edge15_Node000001_Node000010" class="edge">
<title>Node1&#45;&gt;Node10</title>
<g id="a_edge15_Node000001_Node000010"><a xlink:title=" ">
<path fill="none" stroke="#63b8ff" d="M238.58,-223.55C260.74,-202.13 293.79,-167.38 315.28,-132 323.83,-117.92 330.36,-100.41 334.6,-87.11"/>
<polygon fill="#63b8ff" stroke="#63b8ff" points="337.89,-88.34 337.41,-77.75 331.18,-86.33 337.89,-88.34"/>
</a>
</g>
</g>
<!-- Node3 -->
<g id="Node000003" class="node">
<title>Node3</title>
<g id="a_Node000003"><a xlink:href="IRepository_8hpp.html" target="_top" xlink:title=" ">
<polygon fill="white" stroke="#666666" points="96.4,-132 12.15,-132 12.15,-112 96.4,-112 96.4,-132"/>
<text text-anchor="middle" x="54.28" y="-118.5" font-family="Helvetica,sans-Serif" font-size="10.00">IRepository.hpp</text>
</a>
</g>
</g>
<!-- Node2&#45;&gt;Node3 -->
<g id="edge2_Node000002_Node000003" class="edge">
<title>Node2&#45;&gt;Node3</title>
<g id="a_edge2_Node000002_Node000003"><a xlink:title=" ">
<path fill="none" stroke="#63b8ff" d="M144.29,-167.59C127.52,-159.28 102.79,-147.03 83.49,-137.47"/>
<polygon fill="#63b8ff" stroke="#63b8ff" points="85.29,-134.45 74.77,-133.15 82.18,-140.73 85.29,-134.45"/>
</a>
</g>
</g>
<!-- Node5 -->
<g id="Node000005" class="node">
<title>Node5</title>
<g id="a_Node000005"><a xlink:href="ResourceDTO_8hpp.html" target="_top" xlink:title=" ">
<polygon fill="white" stroke="#666666" points="212.15,-132 114.4,-132 114.4,-112 212.15,-112 212.15,-132"/>
<text text-anchor="middle" x="163.28" y="-118.5" font-family="Helvetica,sans-Serif" font-size="10.00">ResourceDTO.hpp</text>
</a>
</g>
</g>
<!-- Node2&#45;&gt;Node5 -->
<g id="edge4_Node000002_Node000005" class="edge">
<title>Node2&#45;&gt;Node5</title>
<g id="a_edge4_Node000002_Node000005"><a xlink:title=" ">
<path fill="none" stroke="#63b8ff" d="M163.28,-167.59C163.28,-161.01 163.28,-151.96 163.28,-143.73"/>
<polygon fill="#63b8ff" stroke="#63b8ff" points="166.78,-143.81 163.28,-133.81 159.78,-143.81 166.78,-143.81"/>
</a>
</g>
</g>
<!-- Node3&#45;&gt;Node4 -->
<g id="edge3_Node000003_Node000004" class="edge">
<title>Node3&#45;&gt;Node4</title>
<g id="a_edge3_Node000003_Node000004"><a xlink:title=" ">
<path fill="none" stroke="#63b8ff" d="M53.93,-111.59C53.69,-105.01 53.35,-95.96 53.05,-87.73"/>
<polygon fill="#63b8ff" stroke="#63b8ff" points="56.55,-87.67 52.68,-77.81 49.55,-87.93 56.55,-87.67"/>
</a>
</g>
</g>
<!-- Node6 -->
<g id="Node000006" class="node">
<title>Node6</title>
<g id="a_Node000006"><a xlink:href="RowDTOAdapter_8hpp.html" target="_top" xlink:title=" ">
<polygon fill="white" stroke="#666666" points="262.15,-76 152.4,-76 152.4,-56 262.15,-56 262.15,-76"/>
<text text-anchor="middle" x="207.28" y="-62.5" font-family="Helvetica,sans-Serif" font-size="10.00">RowDTOAdapter.hpp</text>
</a>
</g>
</g>
<!-- Node5&#45;&gt;Node6 -->
<g id="edge5_Node000005_Node000006" class="edge">
<title>Node5&#45;&gt;Node6</title>
<g id="a_edge5_Node000005_Node000006"><a xlink:title=" ">
<path fill="none" stroke="#63b8ff" d="M170.94,-111.59C176.87,-104.32 185.27,-94.02 192.49,-85.15"/>
<polygon fill="#63b8ff" stroke="#63b8ff" points="195.14,-87.43 198.75,-77.47 189.72,-83.01 195.14,-87.43"/>
</a>
</g>
</g>
<!-- Node8 -->
<g id="Node000008" class="node">
<title>Node8</title>
<g id="a_Node000008"><a xlink:title=" ">
<polygon fill="#e0e0e0" stroke="#999999" points="134.28,-76 94.28,-76 94.28,-56 134.28,-56 134.28,-76"/>
<text text-anchor="middle" x="114.28" y="-62.5" font-family="Helvetica,sans-Serif" font-size="10.00">string</text>
</a>
</g>
</g>
<!-- Node5&#45;&gt;Node8 -->
<g id="edge7_Node000005_Node000008" class="edge">
<title>Node5&#45;&gt;Node8</title>
<g id="a_edge7_Node000005_Node000008"><a xlink:title=" ">
<path fill="none" stroke="#63b8ff" d="M154.74,-111.59C148,-104.16 138.39,-93.58 130.24,-84.58"/>
<polygon fill="#63b8ff" stroke="#63b8ff" points="133.05,-82.47 123.73,-77.42 127.86,-87.18 133.05,-82.47"/>
</a>
</g>
</g>
<!-- Node7 -->
<g id="Node000007" class="node">
<title>Node7</title>
<g id="a_Node000007"><a xlink:title=" ">
<polygon fill="#e0e0e0" stroke="#999999" points="278.78,-20 217.78,-20 217.78,0 278.78,0 278.78,-20"/>
<text text-anchor="middle" x="248.28" y="-6.5" font-family="Helvetica,sans-Serif" font-size="10.00">pqxx/pqxx</text>
</a>
</g>
</g>
<!-- Node6&#45;&gt;Node7 -->
<g id="edge6_Node000006_Node000007" class="edge">
<title>Node6&#45;&gt;Node7</title>
<g id="a_edge6_Node000006_Node000007"><a xlink:title=" ">
<path fill="none" stroke="#63b8ff" d="M214.42,-55.59C219.89,-48.39 227.6,-38.23 234.29,-29.43"/>
<polygon fill="#63b8ff" stroke="#63b8ff" points="237.05,-31.58 240.3,-21.5 231.47,-27.35 237.05,-31.58"/>
</a>
</g>
</g>
<!-- Node9&#45;&gt;Node4 -->
<g id="edge9_Node000009_Node000004" class="edge">
<title>Node9&#45;&gt;Node4</title>
<g id="a_edge9_Node000009_Node000004"><a xlink:title=" ">
<path fill="none" stroke="#63b8ff" d="M229.65,-111.8C194.88,-103.45 142.12,-90.62 87.68,-76.58"/>
<polygon fill="#63b8ff" stroke="#63b8ff" points="88.79,-73.25 78.24,-74.13 87.04,-80.03 88.79,-73.25"/>
</a>
</g>
</g>
<!-- Node9&#45;&gt;Node6 -->
<g id="edge13_Node000009_Node000006" class="edge">
<title>Node9&#45;&gt;Node6</title>
<g id="a_edge13_Node000009_Node000006"><a xlink:title=" ">
<path fill="none" stroke="#63b8ff" d="M257.65,-111.59C248.99,-103.93 236.55,-92.91 226.2,-83.75"/>
<polygon fill="#63b8ff" stroke="#63b8ff" points="228.72,-81.31 218.92,-77.3 224.08,-86.55 228.72,-81.31"/>
</a>
</g>
</g>
<!-- Node9&#45;&gt;Node7 -->
<g id="edge10_Node000009_Node000007" class="edge">
<title>Node9&#45;&gt;Node7</title>
<g id="a_edge10_Node000009_Node000007"><a xlink:title=" ">
<path fill="none" stroke="#63b8ff" d="M270.34,-111.59C272.77,-98.8 275.93,-75.33 271.28,-56 269.13,-47.07 264.89,-37.92 260.64,-30.22"/>
<polygon fill="#63b8ff" stroke="#63b8ff" points="263.73,-28.57 255.59,-21.78 257.72,-32.16 263.73,-28.57"/>
</a>
</g>
</g>
<!-- Node9&#45;&gt;Node8 -->
<g id="edge11_Node000009_Node000008" class="edge">
<title>Node9&#45;&gt;Node8</title>
<g id="a_edge11_Node000009_Node000008"><a xlink:title=" ">
<path fill="none" stroke="#63b8ff" d="M241.46,-111.59C214.64,-102.19 173.45,-87.75 145.26,-77.86"/>
<polygon fill="#63b8ff" stroke="#63b8ff" points="146.45,-74.57 135.85,-74.56 144.13,-81.18 146.45,-74.57"/>
</a>
</g>
</g>
<!-- Node9&#45;&gt;Node10 -->
<g id="edge12_Node000009_Node000010" class="edge">
<title>Node9&#45;&gt;Node10</title>
<g id="a_edge12_Node000009_Node000010"><a xlink:title=" ">
<path fill="none" stroke="#63b8ff" d="M280.82,-111.59C291.25,-103.77 306.33,-92.46 318.69,-83.19"/>
<polygon fill="#63b8ff" stroke="#63b8ff" points="320.77,-86.01 326.67,-77.21 316.57,-80.41 320.77,-86.01"/>
</a>
</g>
</g>
</g>
</svg>
