<?xml version="1.0" encoding="UTF-8" standalone="no"?>
<!DOCTYPE svg PUBLIC "-//W3C//DTD SVG 1.1//EN"
 "http://www.w3.org/Graphics/SVG/1.1/DTD/svg11.dtd">
<!-- Generated by graphviz version 12.2.1 (0)
 -->
<!-- Title: src/bot_library/commands/resources/repositories/ResourceRepository.cpp Pages: 1 -->
<svg width="413pt" height="276pt"
 viewBox="0.00 0.00 412.81 276.00" xmlns="http://www.w3.org/2000/svg" xmlns:xlink="http://www.w3.org/1999/xlink">
<g id="graph0" class="graph" transform="scale(1 1) rotate(0) translate(4 272)">
<title>src/bot_library/commands/resources/repositories/ResourceRepository.cpp</title>
<!-- Node1 -->
<g id="Node000001" class="node">
<title>Node1</title>
<g id="a_Node000001"><a xlink:title=" ">
<polygon fill="#999999" stroke="#666666" points="247.56,-268 119.06,-268 119.06,-224 247.56,-224 247.56,-268"/>
<text text-anchor="start" x="127.06" y="-254.5" font-family="Helvetica,sans-Serif" font-size="10.00">src/bot_library/commands</text>
<text text-anchor="start" x="127.06" y="-242.5" font-family="Helvetica,sans-Serif" font-size="10.00">/resources/repositories</text>
<text text-anchor="middle" x="183.31" y="-230.5" font-family="Helvetica,sans-Serif" font-size="10.00">/ResourceRepository.cpp</text>
</a>
</g>
</g>
<!-- Node2 -->
<g id="Node000002" class="node">
<title>Node2</title>
<g id="a_Node000002"><a xlink:href="ResourceRepository_8hpp.html" target="_top" xlink:title=" ">
<polygon fill="white" stroke="#666666" points="154.94,-188 31.69,-188 31.69,-168 154.94,-168 154.94,-188"/>
<text text-anchor="middle" x="93.31" y="-174.5" font-family="Helvetica,sans-Serif" font-size="10.00">ResourceRepository.hpp</text>
</a>
</g>
</g>
<!-- Node1&#45;&gt;Node2 -->
<g id="edge1_Node000001_Node000002" class="edge">
<title>Node1&#45;&gt;Node2</title>
<g id="a_edge1_Node000001_Node000002"><a xlink:title=" ">
<path fill="none" stroke="#63b8ff" d="M154.34,-223.75C141.65,-214.45 127.01,-203.71 115.25,-195.09"/>
<polygon fill="#63b8ff" stroke="#63b8ff" points="117.51,-192.41 107.38,-189.31 113.37,-198.05 117.51,-192.41"/>
</a>
</g>
</g>
<!-- Node4 -->
<g id="Node000004" class="node">
<title>Node4</title>
<g id="a_Node000004"><a xlink:title=" ">
<polygon fill="#e0e0e0" stroke="#999999" points="56.44,-76 8.19,-76 8.19,-56 56.44,-56 56.44,-76"/>
<text text-anchor="middle" x="32.31" y="-62.5" font-family="Helvetica,sans-Serif" font-size="10.00">cstddef</text>
</a>
</g>
</g>
<!-- Node1&#45;&gt;Node4 -->
<g id="edge15_Node000001_Node000004" class="edge">
<title>Node1&#45;&gt;Node4</title>
<g id="a_edge15_Node000001_Node000004"><a xlink:title=" ">
<path fill="none" stroke="#63b8ff" d="M118.9,-236.28C85.97,-228.67 47.61,-214.48 22.31,-188 -1.6,-162.97 -3.93,-145.36 5.31,-112 7.89,-102.7 12.95,-93.4 18,-85.68"/>
<polygon fill="#63b8ff" stroke="#63b8ff" points="20.85,-87.72 23.78,-77.53 15.14,-83.67 20.85,-87.72"/>
</a>
</g>
</g>
<!-- Node5 -->
<g id="Node000005" class="node">
<title>Node5</title>
<g id="a_Node000005"><a xlink:href="ResourceDTO_8hpp.html" target="_top" xlink:title=" ">
<polygon fill="white" stroke="#666666" points="214.19,-132 116.44,-132 116.44,-112 214.19,-112 214.19,-132"/>
<text text-anchor="middle" x="165.31" y="-118.5" font-family="Helvetica,sans-Serif" font-size="10.00">ResourceDTO.hpp</text>
</a>
</g>
</g>
<!-- Node1&#45;&gt;Node5 -->
<g id="edge17_Node000001_Node000005" class="edge">
<title>Node1&#45;&gt;Node5</title>
<g id="a_edge17_Node000001_Node000005"><a xlink:title=" ">
<path fill="none" stroke="#63b8ff" d="M180.18,-223.75C176.84,-201.16 171.61,-165.69 168.32,-143.42"/>
<polygon fill="#63b8ff" stroke="#63b8ff" points="171.83,-143.18 166.9,-133.8 164.9,-144.2 171.83,-143.18"/>
</a>
</g>
</g>
<!-- Node9 -->
<g id="Node000009" class="node">
<title>Node9</title>
<g id="a_Node000009"><a xlink:href="Database_8hpp.html" target="_top" xlink:title=" ">
<polygon fill="white" stroke="#666666" points="308.69,-132 231.94,-132 231.94,-112 308.69,-112 308.69,-132"/>
<text text-anchor="middle" x="270.31" y="-118.5" font-family="Helvetica,sans-Serif" font-size="10.00">Database.hpp</text>
</a>
</g>
</g>
<!-- Node1&#45;&gt;Node9 -->
<g id="edge8_Node000001_Node000009" class="edge">
<title>Node1&#45;&gt;Node9</title>
<g id="a_edge8_Node000001_Node000009"><a xlink:title=" ">
<path fill="none" stroke="#63b8ff" d="M198.47,-223.75C215.02,-200.53 241.29,-163.7 257.06,-141.59"/>
<polygon fill="#63b8ff" stroke="#63b8ff" points="259.84,-143.71 262.8,-133.53 254.14,-139.64 259.84,-143.71"/>
</a>
</g>
</g>
<!-- Node11 -->
<g id="Node000011" class="node">
<title>Node11</title>
<g id="a_Node000011"><a xlink:title=" ">
<polygon fill="#e0e0e0" stroke="#999999" points="404.81,-76 361.81,-76 361.81,-56 404.81,-56 404.81,-76"/>
<text text-anchor="middle" x="383.31" y="-62.5" font-family="Helvetica,sans-Serif" font-size="10.00">vector</text>
</a>
</g>
</g>
<!-- Node1&#45;&gt;Node11 -->
<g id="edge16_Node000001_Node000011" class="edge">
<title>Node1&#45;&gt;Node11</title>
<g id="a_edge16_Node000001_Node000011"><a xlink:title=" ">
<path fill="none" stroke="#63b8ff" d="M210.02,-223.5C237.44,-201.19 281.1,-165.01 317.31,-132 334.47,-116.36 353.27,-97.69 366.4,-84.38"/>
<polygon fill="#63b8ff" stroke="#63b8ff" points="368.57,-87.16 373.07,-77.57 363.57,-82.26 368.57,-87.16"/>
</a>
</g>
</g>
<!-- Node3 -->
<g id="Node000003" class="node">
<title>Node3</title>
<g id="a_Node000003"><a xlink:href="IRepository_8hpp.html" target="_top" xlink:title=" ">
<polygon fill="white" stroke="#666666" points="98.44,-132 14.19,-132 14.19,-112 98.44,-112 98.44,-132"/>
<text text-anchor="middle" x="56.31" y="-118.5" font-family="Helvetica,sans-Serif" font-size="10.00">IRepository.hpp</text>
</a>
</g>
</g>
<!-- Node2&#45;&gt;Node3 -->
<g id="edge2_Node000002_Node000003" class="edge">
<title>Node2&#45;&gt;Node3</title>
<g id="a_edge2_Node000002_Node000003"><a xlink:title=" ">
<path fill="none" stroke="#63b8ff" d="M86.87,-167.59C81.99,-160.47 75.12,-150.45 69.14,-141.72"/>
<polygon fill="#63b8ff" stroke="#63b8ff" points="72.08,-139.82 63.54,-133.55 66.3,-143.77 72.08,-139.82"/>
</a>
</g>
</g>
<!-- Node2&#45;&gt;Node5 -->
<g id="edge4_Node000002_Node000005" class="edge">
<title>Node2&#45;&gt;Node5</title>
<g id="a_edge4_Node000002_Node000005"><a xlink:title=" ">
<path fill="none" stroke="#63b8ff" d="M105.85,-167.59C116.28,-159.77 131.36,-148.46 143.72,-139.19"/>
<polygon fill="#63b8ff" stroke="#63b8ff" points="145.8,-142.01 151.7,-133.21 141.6,-136.41 145.8,-142.01"/>
</a>
</g>
</g>
<!-- Node3&#45;&gt;Node4 -->
<g id="edge3_Node000003_Node000004" class="edge">
<title>Node3&#45;&gt;Node4</title>
<g id="a_edge3_Node000003_Node000004"><a xlink:title=" ">
<path fill="none" stroke="#63b8ff" d="M52.13,-111.59C49.07,-104.7 44.8,-95.1 41.01,-86.57"/>
<polygon fill="#63b8ff" stroke="#63b8ff" points="44.32,-85.4 37.06,-77.68 37.92,-88.24 44.32,-85.4"/>
</a>
</g>
</g>
<!-- Node6 -->
<g id="Node000006" class="node">
<title>Node6</title>
<g id="a_Node000006"><a xlink:href="RowDTOAdapter_8hpp.html" target="_top" xlink:title=" ">
<polygon fill="white" stroke="#666666" points="242.19,-76 132.44,-76 132.44,-56 242.19,-56 242.19,-76"/>
<text text-anchor="middle" x="187.31" y="-62.5" font-family="Helvetica,sans-Serif" font-size="10.00">RowDTOAdapter.hpp</text>
</a>
</g>
</g>
<!-- Node5&#45;&gt;Node6 -->
<g id="edge5_Node000005_Node000006" class="edge">
<title>Node5&#45;&gt;Node6</title>
<g id="a_edge5_Node000005_Node000006"><a xlink:title=" ">
<path fill="none" stroke="#63b8ff" d="M169.14,-111.59C171.92,-104.78 175.77,-95.32 179.22,-86.86"/>
<polygon fill="#63b8ff" stroke="#63b8ff" points="182.42,-88.28 182.95,-77.7 175.94,-85.64 182.42,-88.28"/>
</a>
</g>
</g>
<!-- Node8 -->
<g id="Node000008" class="node">
<title>Node8</title>
<g id="a_Node000008"><a xlink:title=" ">
<polygon fill="#e0e0e0" stroke="#999999" points="114.31,-76 74.31,-76 74.31,-56 114.31,-56 114.31,-76"/>
<text text-anchor="middle" x="94.31" y="-62.5" font-family="Helvetica,sans-Serif" font-size="10.00">string</text>
</a>
</g>
</g>
<!-- Node5&#45;&gt;Node8 -->
<g id="edge7_Node000005_Node000008" class="edge">
<title>Node5&#45;&gt;Node8</title>
<g id="a_edge7_Node000005_Node000008"><a xlink:title=" ">
<path fill="none" stroke="#63b8ff" d="M152.94,-111.59C142.66,-103.77 127.79,-92.46 115.6,-83.19"/>
<polygon fill="#63b8ff" stroke="#63b8ff" points="117.82,-80.48 107.74,-77.21 113.58,-86.05 117.82,-80.48"/>
</a>
</g>
</g>
<!-- Node7 -->
<g id="Node000007" class="node">
<title>Node7</title>
<g id="a_Node000007"><a xlink:title=" ">
<polygon fill="#e0e0e0" stroke="#999999" points="258.81,-20 197.81,-20 197.81,0 258.81,0 258.81,-20"/>
<text text-anchor="middle" x="228.31" y="-6.5" font-family="Helvetica,sans-Serif" font-size="10.00">pqxx/pqxx</text>
</a>
</g>
</g>
<!-- Node6&#45;&gt;Node7 -->
<g id="edge6_Node000006_Node000007" class="edge">
<title>Node6&#45;&gt;Node7</title>
<g id="a_edge6_Node000006_Node000007"><a xlink:title=" ">
<path fill="none" stroke="#63b8ff" d="M194.45,-55.59C199.92,-48.39 207.63,-38.23 214.32,-29.43"/>
<polygon fill="#63b8ff" stroke="#63b8ff" points="217.08,-31.58 220.34,-21.5 211.5,-27.35 217.08,-31.58"/>
</a>
</g>
</g>
<!-- Node9&#45;&gt;Node4 -->
<g id="edge9_Node000009_Node000004" class="edge">
<title>Node9&#45;&gt;Node4</title>
<g id="a_edge9_Node000009_Node000004"><a xlink:title=" ">
<path fill="none" stroke="#63b8ff" d="M231.64,-113.11C192.58,-105.02 130.27,-91.74 67.65,-76.49"/>
<polygon fill="#63b8ff" stroke="#63b8ff" points="68.8,-73.17 58.25,-74.18 67.13,-79.96 68.8,-73.17"/>
</a>
</g>
</g>
<!-- Node9&#45;&gt;Node6 -->
<g id="edge14_Node000009_Node000006" class="edge">
<title>Node9&#45;&gt;Node6</title>
<g id="a_edge14_Node000009_Node000006"><a xlink:title=" ">
<path fill="none" stroke="#63b8ff" d="M255.85,-111.59C243.55,-103.59 225.63,-91.93 211.2,-82.54"/>
<polygon fill="#63b8ff" stroke="#63b8ff" points="213.44,-79.82 203.15,-77.3 209.62,-85.69 213.44,-79.82"/>
</a>
</g>
</g>
<!-- Node9&#45;&gt;Node7 -->
<g id="edge10_Node000009_Node000007" class="edge">
<title>Node9&#45;&gt;Node7</title>
<g id="a_edge10_Node000009_Node000007"><a xlink:title=" ">
<path fill="none" stroke="#63b8ff" d="M268.14,-111.56C265.07,-98.74 258.96,-75.23 251.31,-56 247.87,-47.36 243.34,-38.15 239.2,-30.34"/>
<polygon fill="#63b8ff" stroke="#63b8ff" points="242.37,-28.84 234.51,-21.74 236.23,-32.19 242.37,-28.84"/>
</a>
</g>
</g>
<!-- Node9&#45;&gt;Node8 -->
<g id="edge11_Node000009_Node000008" class="edge">
<title>Node9&#45;&gt;Node8</title>
<g id="a_edge11_Node000009_Node000008"><a xlink:title=" ">
<path fill="none" stroke="#63b8ff" d="M239.33,-111.55C211.78,-103.15 170.13,-90.41 125.4,-76.64"/>
<polygon fill="#63b8ff" stroke="#63b8ff" points="126.62,-73.35 116.04,-73.75 124.56,-80.04 126.62,-73.35"/>
</a>
</g>
</g>
<!-- Node10 -->
<g id="Node000010" class="node">
<title>Node10</title>
<g id="a_Node000010"><a xlink:title=" ">
<polygon fill="#e0e0e0" stroke="#999999" points="343.94,-76 298.69,-76 298.69,-56 343.94,-56 343.94,-76"/>
<text text-anchor="middle" x="321.31" y="-62.5" font-family="Helvetica,sans-Serif" font-size="10.00">variant</text>
</a>
</g>
</g>
<!-- Node9&#45;&gt;Node10 -->
<g id="edge12_Node000009_Node000010" class="edge">
<title>Node9&#45;&gt;Node10</title>
<g id="a_edge12_Node000009_Node000010"><a xlink:title=" ">
<path fill="none" stroke="#63b8ff" d="M279.19,-111.59C286.22,-104.16 296.21,-93.58 304.7,-84.58"/>
<polygon fill="#63b8ff" stroke="#63b8ff" points="307.17,-87.07 311.49,-77.4 302.08,-82.27 307.17,-87.07"/>
</a>
</g>
</g>
<!-- Node9&#45;&gt;Node11 -->
<g id="edge13_Node000009_Node000011" class="edge">
<title>Node9&#45;&gt;Node11</title>
<g id="a_edge13_Node000009_Node000011"><a xlink:title=" ">
<path fill="none" stroke="#63b8ff" d="M289.99,-111.59C307.47,-103.24 333.26,-90.92 353.31,-81.34"/>
<polygon fill="#63b8ff" stroke="#63b8ff" points="354.6,-84.6 362.11,-77.13 351.58,-78.29 354.6,-84.6"/>
</a>
</g>
</g>
</g>
</svg>
