<?xml version="1.0" encoding="UTF-8" standalone="no"?>
<!DOCTYPE svg PUBLIC "-//W3C//DTD SVG 1.1//EN"
 "http://www.w3.org/Graphics/SVG/1.1/DTD/svg11.dtd">
<!-- Generated by graphviz version 14.1.5 (0)
 -->
<!-- Title: src/bot_library/restapi/include/RestApiServerApplication.hpp Pages: 1 -->
<svg width="240pt" height="152pt"
 viewBox="0.00 0.00 240.00 152.00" xmlns="http://www.w3.org/2000/svg" xmlns:xlink="http://www.w3.org/1999/xlink">
<g id="graph0" class="graph" transform="scale(1 1) rotate(0) translate(4 148)">
<title>src/bot_library/restapi/include/RestApiServerApplication.hpp</title>
<!-- Node1 -->
<g id="Node000001" class="node">
<title>Node1</title>
<g id="a_Node000001"><a xlink:title=" ">
<polygon fill="#999999" stroke="#666666" points="225.75,-144 42.5,-144 42.5,-112 225.75,-112 225.75,-144"/>
<text xml:space="preserve" text-anchor="start" x="50.5" y="-130.5" font-family="Helvetica,sans-Serif" font-size="10.00">src/bot_library/restapi</text>
<text xml:space="preserve" text-anchor="middle" x="134.12" y="-118.5" font-family="Helvetica,sans-Serif" font-size="10.00">/include/RestApiServerApplication.hpp</text>
</a>
</g>
</g>
<!-- Node2 -->
<g id="Node000002" class="node">
<title>Node2</title>
<g id="a_Node000002"><a xlink:title=" ">
<polygon fill="#e0e0e0" stroke="#999999" points="144.25,-76 0,-76 0,-56 144.25,-56 144.25,-76"/>
<text xml:space="preserve" text-anchor="middle" x="72.12" y="-62.5" font-family="Helvetica,sans-Serif" font-size="10.00">Poco/Util/ServerApplication.h</text>
</a>
</g>
</g>
<!-- Node1&#45;&gt;Node2 -->
<g id="edge1_Node000001_Node000002" class="edge">
<title>Node1&#45;&gt;Node2</title>
<g id="a_edge1_Node000001_Node000002"><a xlink:title=" ">
<path fill="none" stroke="#63b8ff" d="M118.16,-111.55C109.55,-103.22 98.89,-92.91 90.01,-84.3"/>
<polygon fill="#63b8ff" stroke="#63b8ff" points="92.55,-81.9 82.93,-77.46 87.69,-86.93 92.55,-81.9"/>
</a>
</g>
</g>
<!-- Node3 -->
<g id="Node000003" class="node">
<title>Node3</title>
<g id="a_Node000003"><a xlink:href="RestApi_8hpp.html" target="_top" xlink:title=" ">
<polygon fill="white" stroke="#666666" points="232.12,-76 162.12,-76 162.12,-56 232.12,-56 232.12,-76"/>
<text xml:space="preserve" text-anchor="middle" x="197.12" y="-62.5" font-family="Helvetica,sans-Serif" font-size="10.00">RestApi.hpp</text>
</a>
</g>
</g>
<!-- Node1&#45;&gt;Node3 -->
<g id="edge2_Node000001_Node000003" class="edge">
<title>Node1&#45;&gt;Node3</title>
<g id="a_edge2_Node000001_Node000003"><a xlink:title=" ">
<path fill="none" stroke="#63b8ff" d="M150.35,-111.55C159.1,-103.22 169.92,-92.91 178.96,-84.3"/>
<polygon fill="#63b8ff" stroke="#63b8ff" points="181.32,-86.88 186.15,-77.45 176.5,-81.81 181.32,-86.88"/>
</a>
</g>
</g>
<!-- Node4 -->
<g id="Node000004" class="node">
<title>Node4</title>
<g id="a_Node000004"><a xlink:title=" ">
<polygon fill="#e0e0e0" stroke="#999999" points="217.12,-20 177.12,-20 177.12,0 217.12,0 217.12,-20"/>
<text xml:space="preserve" text-anchor="middle" x="197.12" y="-6.5" font-family="Helvetica,sans-Serif" font-size="10.00">string</text>
</a>
</g>
</g>
<!-- Node3&#45;&gt;Node4 -->
<g id="edge3_Node000003_Node000004" class="edge">
<title>Node3&#45;&gt;Node4</title>
<g id="a_edge3_Node000003_Node000004"><a xlink:title=" ">
<path fill="none" stroke="#63b8ff" d="M197.12,-55.59C197.12,-49.01 197.12,-39.96 197.12,-31.73"/>
<polygon fill="#63b8ff" stroke="#63b8ff" points="200.63,-31.81 197.13,-21.81 193.63,-31.81 200.63,-31.81"/>
</a>
</g>
</g>
</g>
</svg>
