<?xml version="1.0" encoding="UTF-8" standalone="no"?>
<!DOCTYPE svg PUBLIC "-//W3C//DTD SVG 1.1//EN"
 "http://www.w3.org/Graphics/SVG/1.1/DTD/svg11.dtd">
<!-- Generated by graphviz version 14.1.5 (0)
 -->
<!-- Title: src/bot_library/restapi/RestApiServerApplication.cpp Pages: 1 -->
<svg width="1459pt" height="220pt"
 viewBox="0.00 0.00 1459.00 220.00" xmlns="http://www.w3.org/2000/svg" xmlns:xlink="http://www.w3.org/1999/xlink">
<g id="graph0" class="graph" transform="scale(1 1) rotate(0) translate(4 216)">
<title>src/bot_library/restapi/RestApiServerApplication.cpp</title>
<!-- Node1 -->
<g id="Node000001" class="node">
<title>Node1</title>
<g id="a_Node000001"><a xlink:title=" ">
<polygon fill="#999999" stroke="#666666" points="711.88,-212 562.38,-212 562.38,-180 711.88,-180 711.88,-212"/>
<text xml:space="preserve" text-anchor="start" x="570.38" y="-198.5" font-family="Helvetica,sans-Serif" font-size="10.00">src/bot_library/restapi</text>
<text xml:space="preserve" text-anchor="middle" x="637.12" y="-186.5" font-family="Helvetica,sans-Serif" font-size="10.00">/RestApiServerApplication.cpp</text>
</a>
</g>
</g>
<!-- Node2 -->
<g id="Node000002" class="node">
<title>Node2</title>
<g id="a_Node000002"><a xlink:href="RestApiServerApplication_8hpp.html" target="_top" xlink:title=" ">
<polygon fill="white" stroke="#666666" points="207.38,-144 60.88,-144 60.88,-124 207.38,-124 207.38,-144"/>
<text xml:space="preserve" text-anchor="middle" x="134.12" y="-130.5" font-family="Helvetica,sans-Serif" font-size="10.00">RestApiServerApplication.hpp</text>
</a>
</g>
</g>
<!-- Node1&#45;&gt;Node2 -->
<g id="edge1_Node000001_Node000002" class="edge">
<title>Node1&#45;&gt;Node2</title>
<g id="a_edge1_Node000001_Node000002"><a xlink:title=" ">
<path fill="none" stroke="#63b8ff" d="M562.09,-186.05C470.25,-175.09 315.1,-156.59 218.99,-145.12"/>
<polygon fill="#63b8ff" stroke="#63b8ff" points="219.42,-141.65 209.07,-143.94 218.59,-148.6 219.42,-141.65"/>
</a>
</g>
</g>
<!-- Node6 -->
<g id="Node000006" class="node">
<title>Node6</title>
<g id="a_Node000006"><a xlink:title=" ">
<polygon fill="#e0e0e0" stroke="#999999" points="286.62,-144 225.62,-144 225.62,-124 286.62,-124 286.62,-144"/>
<text xml:space="preserve" text-anchor="middle" x="256.12" y="-130.5" font-family="Helvetica,sans-Serif" font-size="10.00">filesystem</text>
</a>
</g>
</g>
<!-- Node1&#45;&gt;Node6 -->
<g id="edge5_Node000001_Node000006" class="edge">
<title>Node1&#45;&gt;Node6</title>
<g id="a_edge5_Node000001_Node000006"><a xlink:title=" ">
<path fill="none" stroke="#63b8ff" d="M562.12,-185.54C495.21,-176.72 394.37,-162.44 297.87,-144.41"/>
<polygon fill="#63b8ff" stroke="#63b8ff" points="298.7,-141 288.22,-142.58 297.4,-147.88 298.7,-141"/>
</a>
</g>
</g>
<!-- Node7 -->
<g id="Node000007" class="node">
<title>Node7</title>
<g id="a_Node000007"><a xlink:title=" ">
<polygon fill="#e0e0e0" stroke="#999999" points="357.88,-144 304.38,-144 304.38,-124 357.88,-124 357.88,-144"/>
<text xml:space="preserve" text-anchor="middle" x="331.12" y="-130.5" font-family="Helvetica,sans-Serif" font-size="10.00">iostream</text>
</a>
</g>
</g>
<!-- Node1&#45;&gt;Node7 -->
<g id="edge6_Node000001_Node000007" class="edge">
<title>Node1&#45;&gt;Node7</title>
<g id="a_edge6_Node000001_Node000007"><a xlink:title=" ">
<path fill="none" stroke="#63b8ff" d="M562.09,-182.24C510.2,-173.11 439.34,-160.01 369.04,-144.55"/>
<polygon fill="#63b8ff" stroke="#63b8ff" points="370.21,-141.23 359.69,-142.48 368.7,-148.06 370.21,-141.23"/>
</a>
</g>
</g>
<!-- Node8 -->
<g id="Node000008" class="node">
<title>Node8</title>
<g id="a_Node000008"><a xlink:title=" ">
<polygon fill="#e0e0e0" stroke="#999999" points="478.62,-144 375.62,-144 375.62,-124 478.62,-124 478.62,-144"/>
<text xml:space="preserve" text-anchor="middle" x="427.12" y="-130.5" font-family="Helvetica,sans-Serif" font-size="10.00">Poco/Net/Context.h</text>
</a>
</g>
</g>
<!-- Node1&#45;&gt;Node8 -->
<g id="edge7_Node000001_Node000008" class="edge">
<title>Node1&#45;&gt;Node8</title>
<g id="a_edge7_Node000001_Node000008"><a xlink:title=" ">
<path fill="none" stroke="#63b8ff" d="M583.04,-179.55C548.37,-169.64 503.91,-156.94 471.35,-147.64"/>
<polygon fill="#63b8ff" stroke="#63b8ff" points="472.39,-144.29 461.82,-144.91 470.47,-151.02 472.39,-144.29"/>
</a>
</g>
</g>
<!-- Node9 -->
<g id="Node000009" class="node">
<title>Node9</title>
<g id="a_Node000009"><a xlink:title=" ">
<polygon fill="#e0e0e0" stroke="#999999" points="619.75,-144 496.5,-144 496.5,-124 619.75,-124 619.75,-144"/>
<text xml:space="preserve" text-anchor="middle" x="558.12" y="-130.5" font-family="Helvetica,sans-Serif" font-size="10.00">Poco/Net/HTTPServer.h</text>
</a>
</g>
</g>
<!-- Node1&#45;&gt;Node9 -->
<g id="edge8_Node000001_Node000009" class="edge">
<title>Node1&#45;&gt;Node9</title>
<g id="a_edge8_Node000001_Node000009"><a xlink:title=" ">
<path fill="none" stroke="#63b8ff" d="M616.78,-179.55C605.35,-170.87 591.1,-160.04 579.51,-151.24"/>
<polygon fill="#63b8ff" stroke="#63b8ff" points="581.8,-148.58 571.72,-145.32 577.56,-154.16 581.8,-148.58"/>
</a>
</g>
</g>
<!-- Node10 -->
<g id="Node000010" class="node">
<title>Node10</title>
<g id="a_Node000010"><a xlink:title=" ">
<polygon fill="#e0e0e0" stroke="#999999" points="794.62,-144 637.62,-144 637.62,-124 794.62,-124 794.62,-144"/>
<text xml:space="preserve" text-anchor="middle" x="716.12" y="-130.5" font-family="Helvetica,sans-Serif" font-size="10.00">Poco/Net/HTTPServerParams.h</text>
</a>
</g>
</g>
<!-- Node1&#45;&gt;Node10 -->
<g id="edge9_Node000001_Node000010" class="edge">
<title>Node1&#45;&gt;Node10</title>
<g id="a_edge9_Node000001_Node000010"><a xlink:title=" ">
<path fill="none" stroke="#63b8ff" d="M657.47,-179.55C668.9,-170.87 683.15,-160.04 694.74,-151.24"/>
<polygon fill="#63b8ff" stroke="#63b8ff" points="696.69,-154.16 702.53,-145.32 692.45,-148.58 696.69,-154.16"/>
</a>
</g>
</g>
<!-- Node11 -->
<g id="Node000011" class="node">
<title>Node11</title>
<g id="a_Node000011"><a xlink:title=" ">
<polygon fill="#e0e0e0" stroke="#999999" points="937.5,-144 812.75,-144 812.75,-124 937.5,-124 937.5,-144"/>
<text xml:space="preserve" text-anchor="middle" x="875.12" y="-130.5" font-family="Helvetica,sans-Serif" font-size="10.00">Poco/Net/SSLManager.h</text>
</a>
</g>
</g>
<!-- Node1&#45;&gt;Node11 -->
<g id="edge10_Node000001_Node000011" class="edge">
<title>Node1&#45;&gt;Node11</title>
<g id="a_edge10_Node000001_Node000011"><a xlink:title=" ">
<path fill="none" stroke="#63b8ff" d="M698.42,-179.55C738.23,-169.51 789.42,-156.61 826.45,-147.27"/>
<polygon fill="#63b8ff" stroke="#63b8ff" points="827.15,-150.7 835.99,-144.87 825.44,-143.92 827.15,-150.7"/>
</a>
</g>
</g>
<!-- Node12 -->
<g id="Node000012" class="node">
<title>Node12</title>
<g id="a_Node000012"><a xlink:title=" ">
<polygon fill="#e0e0e0" stroke="#999999" points="1114.38,-144 955.88,-144 955.88,-124 1114.38,-124 1114.38,-144"/>
<text xml:space="preserve" text-anchor="middle" x="1035.12" y="-130.5" font-family="Helvetica,sans-Serif" font-size="10.00">Poco/Net/SecureServerSocket.h</text>
</a>
</g>
</g>
<!-- Node1&#45;&gt;Node12 -->
<g id="edge11_Node000001_Node000012" class="edge">
<title>Node1&#45;&gt;Node12</title>
<g id="a_edge11_Node000001_Node000012"><a xlink:title=" ">
<path fill="none" stroke="#63b8ff" d="M711.99,-183.71C783.38,-172.95 890.26,-156.84 961.3,-146.13"/>
<polygon fill="#63b8ff" stroke="#63b8ff" points="961.52,-149.64 970.89,-144.68 960.48,-142.71 961.52,-149.64"/>
</a>
</g>
</g>
<!-- Node13 -->
<g id="Node000013" class="node">
<title>Node13</title>
<g id="a_Node000013"><a xlink:title=" ">
<polygon fill="#e0e0e0" stroke="#999999" points="1260,-144 1132.25,-144 1132.25,-124 1260,-124 1260,-144"/>
<text xml:space="preserve" text-anchor="middle" x="1196.12" y="-130.5" font-family="Helvetica,sans-Serif" font-size="10.00">Poco/Net/ServerSocket.h</text>
</a>
</g>
</g>
<!-- Node1&#45;&gt;Node13 -->
<g id="edge12_Node000001_Node000013" class="edge">
<title>Node1&#45;&gt;Node13</title>
<g id="a_edge12_Node000001_Node000013"><a xlink:title=" ">
<path fill="none" stroke="#63b8ff" d="M712.1,-187.56C805.28,-178.21 969.46,-161.44 1120.71,-144.26"/>
<polygon fill="#63b8ff" stroke="#63b8ff" points="1121,-147.75 1130.53,-143.14 1120.2,-140.79 1121,-147.75"/>
</a>
</g>
</g>
<!-- Node14 -->
<g id="Node000014" class="node">
<title>Node14</title>
<g id="a_Node000014"><a xlink:href="RestApiRequestHandlerFactory_8hpp.html" target="_top" xlink:title=" ">
<polygon fill="white" stroke="#666666" points="1450.5,-144 1277.75,-144 1277.75,-124 1450.5,-124 1450.5,-144"/>
<text xml:space="preserve" text-anchor="middle" x="1364.12" y="-130.5" font-family="Helvetica,sans-Serif" font-size="10.00">RestApiRequestHandlerFactory.hpp</text>
</a>
</g>
</g>
<!-- Node1&#45;&gt;Node14 -->
<g id="edge13_Node000001_Node000014" class="edge">
<title>Node1&#45;&gt;Node14</title>
<g id="a_edge13_Node000001_Node000014"><a xlink:title=" ">
<path fill="none" stroke="#63b8ff" d="M712.06,-189.29C828.29,-180.36 1059.36,-162.32 1266.03,-144.26"/>
<polygon fill="#63b8ff" stroke="#63b8ff" points="1266.24,-147.76 1275.9,-143.4 1265.63,-140.78 1266.24,-147.76"/>
</a>
</g>
</g>
<!-- Node3 -->
<g id="Node000003" class="node">
<title>Node3</title>
<g id="a_Node000003"><a xlink:title=" ">
<polygon fill="#e0e0e0" stroke="#999999" points="144.25,-82 0,-82 0,-62 144.25,-62 144.25,-82"/>
<text xml:space="preserve" text-anchor="middle" x="72.12" y="-68.5" font-family="Helvetica,sans-Serif" font-size="10.00">Poco/Util/ServerApplication.h</text>
</a>
</g>
</g>
<!-- Node2&#45;&gt;Node3 -->
<g id="edge2_Node000002_Node000003" class="edge">
<title>Node2&#45;&gt;Node3</title>
<g id="a_edge2_Node000002_Node000003"><a xlink:title=" ">
<path fill="none" stroke="#63b8ff" d="M124.44,-123.62C115.19,-114.68 101.05,-100.99 89.8,-90.1"/>
<polygon fill="#63b8ff" stroke="#63b8ff" points="92.25,-87.6 82.63,-83.17 87.38,-92.63 92.25,-87.6"/>
</a>
</g>
</g>
<!-- Node4 -->
<g id="Node000004" class="node">
<title>Node4</title>
<g id="a_Node000004"><a xlink:href="RestApi_8hpp.html" target="_top" xlink:title=" ">
<polygon fill="white" stroke="#666666" points="232.12,-82 162.12,-82 162.12,-62 232.12,-62 232.12,-82"/>
<text xml:space="preserve" text-anchor="middle" x="197.12" y="-68.5" font-family="Helvetica,sans-Serif" font-size="10.00">RestApi.hpp</text>
</a>
</g>
</g>
<!-- Node2&#45;&gt;Node4 -->
<g id="edge3_Node000002_Node000004" class="edge">
<title>Node2&#45;&gt;Node4</title>
<g id="a_edge3_Node000002_Node000004"><a xlink:title=" ">
<path fill="none" stroke="#63b8ff" d="M143.97,-123.62C153.46,-114.59 168.02,-100.72 179.51,-89.78"/>
<polygon fill="#63b8ff" stroke="#63b8ff" points="181.63,-92.59 186.46,-83.16 176.81,-87.52 181.63,-92.59"/>
</a>
</g>
</g>
<!-- Node5 -->
<g id="Node000005" class="node">
<title>Node5</title>
<g id="a_Node000005"><a xlink:title=" ">
<polygon fill="#e0e0e0" stroke="#999999" points="217.12,-20 177.12,-20 177.12,0 217.12,0 217.12,-20"/>
<text xml:space="preserve" text-anchor="middle" x="197.12" y="-6.5" font-family="Helvetica,sans-Serif" font-size="10.00">string</text>
</a>
</g>
</g>
<!-- Node4&#45;&gt;Node5 -->
<g id="edge4_Node000004_Node000005" class="edge">
<title>Node4&#45;&gt;Node5</title>
<g id="a_edge4_Node000004_Node000005"><a xlink:title=" ">
<path fill="none" stroke="#63b8ff" d="M197.12,-61.62C197.12,-53.56 197.12,-41.65 197.12,-31.41"/>
<polygon fill="#63b8ff" stroke="#63b8ff" points="200.63,-31.63 197.13,-21.63 193.63,-31.63 200.63,-31.63"/>
</a>
</g>
</g>
<!-- Node15 -->
<g id="Node000015" class="node">
<title>Node15</title>
<g id="a_Node000015"><a xlink:title=" ">
<polygon fill="#e0e0e0" stroke="#999999" points="1442.62,-88 1285.62,-88 1285.62,-56 1442.62,-56 1442.62,-88"/>
<text xml:space="preserve" text-anchor="start" x="1293.62" y="-74.5" font-family="Helvetica,sans-Serif" font-size="10.00">Poco/Net/HTTPRequestHandler</text>
<text xml:space="preserve" text-anchor="middle" x="1364.12" y="-62.5" font-family="Helvetica,sans-Serif" font-size="10.00">Factory.h</text>
</a>
</g>
</g>
<!-- Node14&#45;&gt;Node15 -->
<g id="edge14_Node000014_Node000015" class="edge">
<title>Node14&#45;&gt;Node15</title>
<g id="a_edge14_Node000014_Node000015"><a xlink:title=" ">
<path fill="none" stroke="#63b8ff" d="M1364.12,-123.62C1364.12,-117.1 1364.12,-108.05 1364.12,-99.4"/>
<polygon fill="#63b8ff" stroke="#63b8ff" points="1367.63,-99.65 1364.13,-89.65 1360.63,-99.65 1367.63,-99.65"/>
</a>
</g>
</g>
</g>
</svg>
