<?xml version="1.0" encoding="UTF-8" standalone="no"?>
<!DOCTYPE svg PUBLIC "-//W3C//DTD SVG 1.1//EN"
 "http://www.w3.org/Graphics/SVG/1.1/DTD/svg11.dtd">
<!-- Generated by graphviz version 14.1.5 (0)
 -->
<!-- Title: src/bot_library/restapi/include/RestApi.hpp Pages: 1 -->
<svg width="401pt" height="176pt"
 viewBox="0.00 0.00 401.00 176.00" xmlns="http://www.w3.org/2000/svg" xmlns:xlink="http://www.w3.org/1999/xlink">
<g id="graph0" class="graph" transform="scale(1 1) rotate(0) translate(4 172)">
<title>src/bot_library/restapi/include/RestApi.hpp</title>
<!-- Node1 -->
<g id="Node000001" class="node">
<title>Node1</title>
<g id="a_Node000001"><a xlink:title=" ">
<polygon fill="#999999" stroke="#666666" points="225.25,-168 115.5,-168 115.5,-136 225.25,-136 225.25,-168"/>
<text xml:space="preserve" text-anchor="start" x="123.5" y="-154.5" font-family="Helvetica,sans-Serif" font-size="10.00">src/bot_library/restapi</text>
<text xml:space="preserve" text-anchor="middle" x="170.38" y="-142.5" font-family="Helvetica,sans-Serif" font-size="10.00">/include/RestApi.hpp</text>
</a>
</g>
</g>
<!-- Node2 -->
<g id="Node000002" class="node">
<title>Node2</title>
<g id="a_Node000002"><a xlink:href="BotLibrary_8cpp.html" target="_top" xlink:title=" ">
<polygon fill="white" stroke="#666666" points="142.75,-94 0,-94 0,-74 142.75,-74 142.75,-94"/>
<text xml:space="preserve" text-anchor="middle" x="71.38" y="-80.5" font-family="Helvetica,sans-Serif" font-size="10.00">src/bot_library/BotLibrary.cpp</text>
</a>
</g>
</g>
<!-- Node1&#45;&gt;Node2 -->
<g id="edge1_Node000001_Node000002" class="edge">
<title>Node1&#45;&gt;Node2</title>
<g id="a_edge1_Node000001_Node000002"><a xlink:title=" ">
<path fill="none" stroke="#63b8ff" d="M137.75,-129.25C120.07,-117.46 99.13,-103.5 85.57,-94.46"/>
<polygon fill="#63b8ff" stroke="#63b8ff" points="135.64,-132.05 145.9,-134.69 139.53,-126.23 135.64,-132.05"/>
</a>
</g>
</g>
<!-- Node3 -->
<g id="Node000003" class="node">
<title>Node3</title>
<g id="a_Node000003"><a xlink:href="RestApi_8cpp.html" target="_top" xlink:title=" ">
<polygon fill="white" stroke="#666666" points="225.25,-32 115.5,-32 115.5,0 225.25,0 225.25,-32"/>
<text xml:space="preserve" text-anchor="start" x="123.5" y="-18.5" font-family="Helvetica,sans-Serif" font-size="10.00">src/bot_library/restapi</text>
<text xml:space="preserve" text-anchor="middle" x="170.38" y="-6.5" font-family="Helvetica,sans-Serif" font-size="10.00">/RestApi.cpp</text>
</a>
</g>
</g>
<!-- Node1&#45;&gt;Node3 -->
<g id="edge2_Node000001_Node000003" class="edge">
<title>Node1&#45;&gt;Node3</title>
<g id="a_edge2_Node000001_Node000003"><a xlink:title=" ">
<path fill="none" stroke="#63b8ff" d="M170.38,-124.45C170.38,-96.84 170.38,-54.6 170.38,-32.19"/>
<polygon fill="#63b8ff" stroke="#63b8ff" points="166.88,-124.11 170.38,-134.11 173.88,-124.11 166.88,-124.11"/>
</a>
</g>
</g>
<!-- Node4 -->
<g id="Node000004" class="node">
<title>Node4</title>
<g id="a_Node000004"><a xlink:href="RestApiServerApplication_8hpp.html" target="_top" xlink:title=" ">
<polygon fill="white" stroke="#666666" points="382,-100 198.75,-100 198.75,-68 382,-68 382,-100"/>
<text xml:space="preserve" text-anchor="start" x="206.75" y="-86.5" font-family="Helvetica,sans-Serif" font-size="10.00">src/bot_library/restapi</text>
<text xml:space="preserve" text-anchor="middle" x="290.38" y="-74.5" font-family="Helvetica,sans-Serif" font-size="10.00">/include/RestApiServerApplication.hpp</text>
</a>
</g>
</g>
<!-- Node1&#45;&gt;Node4 -->
<g id="edge3_Node000001_Node000004" class="edge">
<title>Node1&#45;&gt;Node4</title>
<g id="a_edge3_Node000001_Node000004"><a xlink:title=" ">
<path fill="none" stroke="#63b8ff" d="M208.43,-130.07C225.94,-120.44 246.35,-109.21 262.42,-100.38"/>
<polygon fill="#63b8ff" stroke="#63b8ff" points="206.91,-126.91 199.84,-134.8 210.28,-133.04 206.91,-126.91"/>
</a>
</g>
</g>
<!-- Node4&#45;&gt;Node3 -->
<g id="edge4_Node000004_Node000003" class="edge">
<title>Node4&#45;&gt;Node3</title>
<g id="a_edge4_Node000004_Node000003"><a xlink:title=" ">
<path fill="none" stroke="#63b8ff" d="M252.32,-62.07C234.81,-52.44 214.4,-41.21 198.33,-32.38"/>
<polygon fill="#63b8ff" stroke="#63b8ff" points="250.47,-65.04 260.91,-66.8 253.84,-58.91 250.47,-65.04"/>
</a>
</g>
</g>
<!-- Node5 -->
<g id="Node000005" class="node">
<title>Node5</title>
<g id="a_Node000005"><a xlink:href="RestApiServerApplication_8cpp.html" target="_top" xlink:title=" ">
<polygon fill="white" stroke="#666666" points="393.12,-32 243.62,-32 243.62,0 393.12,0 393.12,-32"/>
<text xml:space="preserve" text-anchor="start" x="251.62" y="-18.5" font-family="Helvetica,sans-Serif" font-size="10.00">src/bot_library/restapi</text>
<text xml:space="preserve" text-anchor="middle" x="318.38" y="-6.5" font-family="Helvetica,sans-Serif" font-size="10.00">/RestApiServerApplication.cpp</text>
</a>
</g>
</g>
<!-- Node4&#45;&gt;Node5 -->
<g id="edge5_Node000004_Node000005" class="edge">
<title>Node4&#45;&gt;Node5</title>
<g id="a_edge5_Node000004_Node000005"><a xlink:title=" ">
<path fill="none" stroke="#63b8ff" d="M301.33,-57.17C304.92,-48.73 308.78,-39.63 311.92,-32.22"/>
<polygon fill="#63b8ff" stroke="#63b8ff" points="298.14,-55.73 297.46,-66.3 304.59,-58.46 298.14,-55.73"/>
</a>
</g>
</g>
</g>
</svg>
