<?xml version="1.0" encoding="UTF-8" standalone="no"?>
<!DOCTYPE svg PUBLIC "-//W3C//DTD SVG 1.1//EN"
 "http://www.w3.org/Graphics/SVG/1.1/DTD/svg11.dtd">
<!-- Generated by graphviz version 9.0.0 (0)
 -->
<!-- Title: src/bot_library/commands/roles/roles.hpp Pages: 1 -->
<svg width="1446pt" height="264pt"
 viewBox="0.00 0.00 1446.25 264.00" xmlns="http://www.w3.org/2000/svg" xmlns:xlink="http://www.w3.org/1999/xlink">
<g id="graph0" class="graph" transform="scale(1 1) rotate(0) translate(4 260)">
<title>src/bot_library/commands/roles/roles.hpp</title>
<!-- Node1 -->
<g id="Node000001" class="node">
<title>Node1</title>
<g id="a_Node000001"><a xlink:title=" ">
<polygon fill="#999999" stroke="#666666" points="406.88,-256 278.38,-256 278.38,-224 406.88,-224 406.88,-256"/>
<text text-anchor="start" x="286.38" y="-242.5" font-family="Helvetica,sans-Serif" font-size="10.00">src/bot_library/commands</text>
<text text-anchor="middle" x="342.62" y="-230.5" font-family="Helvetica,sans-Serif" font-size="10.00">/roles/roles.hpp</text>
</a>
</g>
</g>
<!-- Node2 -->
<g id="Node000002" class="node">
<title>Node2</title>
<g id="a_Node000002"><a xlink:title=" ">
<polygon fill="#e0e0e0" stroke="#999999" points="69.25,-188 0,-188 0,-168 69.25,-168 69.25,-188"/>
<text text-anchor="middle" x="34.62" y="-174.5" font-family="Helvetica,sans-Serif" font-size="10.00">dpp/colors.h</text>
</a>
</g>
</g>
<!-- Node1&#45;&gt;Node2 -->
<g id="edge1_Node000001_Node000002" class="edge">
<title>Node1&#45;&gt;Node2</title>
<g id="a_edge1_Node000001_Node000002"><a xlink:title=" ">
<path fill="none" stroke="#63b8ff" d="M278.03,-226.73C227.17,-217.01 154.17,-202.97 80.96,-188.45"/>
<polygon fill="#63b8ff" stroke="#63b8ff" points="81.66,-185.02 71.17,-186.5 80.29,-191.88 81.66,-185.02"/>
</a>
</g>
</g>
<!-- Node3 -->
<g id="Node000003" class="node">
<title>Node3</title>
<g id="a_Node000003"><a xlink:title=" ">
<polygon fill="#e0e0e0" stroke="#999999" points="170,-188 87.25,-188 87.25,-168 170,-168 170,-188"/>
<text text-anchor="middle" x="128.62" y="-174.5" font-family="Helvetica,sans-Serif" font-size="10.00">dpp/message.h</text>
</a>
</g>
</g>
<!-- Node1&#45;&gt;Node3 -->
<g id="edge2_Node000001_Node000003" class="edge">
<title>Node1&#45;&gt;Node3</title>
<g id="a_edge2_Node000001_Node000003"><a xlink:title=" ">
<path fill="none" stroke="#63b8ff" d="M287.51,-223.55C252.02,-213.6 206.48,-200.83 173.26,-191.51"/>
<polygon fill="#63b8ff" stroke="#63b8ff" points="174.53,-188.23 163.95,-188.9 172.64,-194.97 174.53,-188.23"/>
</a>
</g>
</g>
<!-- Node4 -->
<g id="Node000004" class="node">
<title>Node4</title>
<g id="a_Node000004"><a xlink:title=" ">
<polygon fill="#e0e0e0" stroke="#999999" points="277,-188 188.25,-188 188.25,-168 277,-168 277,-188"/>
<text text-anchor="middle" x="232.62" y="-174.5" font-family="Helvetica,sans-Serif" font-size="10.00">dpp/restresults.h</text>
</a>
</g>
</g>
<!-- Node1&#45;&gt;Node4 -->
<g id="edge3_Node000001_Node000004" class="edge">
<title>Node1&#45;&gt;Node4</title>
<g id="a_edge3_Node000001_Node000004"><a xlink:title=" ">
<path fill="none" stroke="#63b8ff" d="M314.3,-223.55C297.43,-214.35 276.14,-202.74 259.53,-193.68"/>
<polygon fill="#63b8ff" stroke="#63b8ff" points="261.66,-190.85 251.2,-189.13 258.3,-196.99 261.66,-190.85"/>
</a>
</g>
</g>
<!-- Node5 -->
<g id="Node000005" class="node">
<title>Node5</title>
<g id="a_Node000005"><a xlink:title=" ">
<polygon fill="#e0e0e0" stroke="#999999" points="257.75,-132 197.5,-132 197.5,-112 257.75,-112 257.75,-132"/>
<text text-anchor="middle" x="227.62" y="-118.5" font-family="Helvetica,sans-Serif" font-size="10.00">fmt/core.h</text>
</a>
</g>
</g>
<!-- Node1&#45;&gt;Node5 -->
<g id="edge4_Node000001_Node000005" class="edge">
<title>Node1&#45;&gt;Node5</title>
<g id="a_edge4_Node000001_Node000005"><a xlink:title=" ">
<path fill="none" stroke="#63b8ff" d="M331.99,-223.74C321.19,-208.74 303.54,-185.62 285.62,-168 274.8,-157.36 261.49,-146.87 250.36,-138.71"/>
<polygon fill="#63b8ff" stroke="#63b8ff" points="252.64,-136.04 242.48,-133.07 248.57,-141.73 252.64,-136.04"/>
</a>
</g>
</g>
<!-- Node6 -->
<g id="Node000006" class="node">
<title>Node6</title>
<g id="a_Node000006"><a xlink:href="Core_8hpp.html" target="_top" xlink:title=" ">
<polygon fill="white" stroke="#666666" points="595.5,-188 539.75,-188 539.75,-168 595.5,-168 595.5,-188"/>
<text text-anchor="middle" x="567.62" y="-174.5" font-family="Helvetica,sans-Serif" font-size="10.00">Core.hpp</text>
</a>
</g>
</g>
<!-- Node1&#45;&gt;Node6 -->
<g id="edge5_Node000001_Node000006" class="edge">
<title>Node1&#45;&gt;Node6</title>
<g id="a_edge5_Node000001_Node000006"><a xlink:title=" ">
<path fill="none" stroke="#63b8ff" d="M400.57,-223.55C440.75,-212.83 493.18,-198.85 528.5,-189.43"/>
<polygon fill="#63b8ff" stroke="#63b8ff" points="529.11,-192.89 537.87,-186.93 527.3,-186.13 529.11,-192.89"/>
</a>
</g>
</g>
<!-- Node9 -->
<g id="Node000009" class="node">
<title>Node9</title>
<g id="a_Node000009"><a xlink:href="Database_8hpp.html" target="_top" xlink:title=" ">
<polygon fill="white" stroke="#666666" points="353,-132 276.25,-132 276.25,-112 353,-112 353,-132"/>
<text text-anchor="middle" x="314.62" y="-118.5" font-family="Helvetica,sans-Serif" font-size="10.00">Database.hpp</text>
</a>
</g>
</g>
<!-- Node1&#45;&gt;Node9 -->
<g id="edge40_Node000001_Node000009" class="edge">
<title>Node1&#45;&gt;Node9</title>
<g id="a_edge40_Node000001_Node000009"><a xlink:title=" ">
<path fill="none" stroke="#63b8ff" d="M338.96,-223.84C334.01,-203.32 325.16,-166.63 319.6,-143.62"/>
<polygon fill="#63b8ff" stroke="#63b8ff" points="323.01,-142.81 317.26,-133.91 316.2,-144.45 323.01,-142.81"/>
</a>
</g>
</g>
<!-- Node14 -->
<g id="Node000014" class="node">
<title>Node14</title>
<g id="a_Node000014"><a xlink:title=" ">
<polygon fill="#e0e0e0" stroke="#999999" points="536.62,-76 496.62,-76 496.62,-56 536.62,-56 536.62,-76"/>
<text text-anchor="middle" x="516.62" y="-62.5" font-family="Helvetica,sans-Serif" font-size="10.00">string</text>
</a>
</g>
</g>
<!-- Node1&#45;&gt;Node14 -->
<g id="edge43_Node000001_Node000014" class="edge">
<title>Node1&#45;&gt;Node14</title>
<g id="a_edge43_Node000001_Node000014"><a xlink:title=" ">
<path fill="none" stroke="#63b8ff" d="M345.48,-223.91C351.19,-197.66 366.46,-143.4 399.62,-112 406.16,-105.81 453.14,-88.82 485.54,-77.58"/>
<polygon fill="#63b8ff" stroke="#63b8ff" points="486.56,-80.93 494.87,-74.36 484.28,-74.31 486.56,-80.93"/>
</a>
</g>
</g>
<!-- Node27 -->
<g id="Node000027" class="node">
<title>Node27</title>
<g id="a_Node000027"><a xlink:title=" ">
<polygon fill="#e0e0e0" stroke="#999999" points="653.62,-188 613.62,-188 613.62,-168 653.62,-168 653.62,-188"/>
<text text-anchor="middle" x="633.62" y="-174.5" font-family="Helvetica,sans-Serif" font-size="10.00">stack</text>
</a>
</g>
</g>
<!-- Node1&#45;&gt;Node27 -->
<g id="edge41_Node000001_Node000027" class="edge">
<title>Node1&#45;&gt;Node27</title>
<g id="a_edge41_Node000001_Node000027"><a xlink:title=" ">
<path fill="none" stroke="#63b8ff" d="M407.12,-228.46C457.82,-219.72 530.38,-206.2 602.35,-188.36"/>
<polygon fill="#63b8ff" stroke="#63b8ff" points="603.11,-191.78 611.95,-185.95 601.4,-184.99 603.11,-191.78"/>
</a>
</g>
</g>
<!-- Node28 -->
<g id="Node000028" class="node">
<title>Node28</title>
<g id="a_Node000028"><a xlink:title=" ">
<polygon fill="#e0e0e0" stroke="#999999" points="730,-188 671.25,-188 671.25,-168 730,-168 730,-188"/>
<text text-anchor="middle" x="700.62" y="-174.5" font-family="Helvetica,sans-Serif" font-size="10.00">stdexcept</text>
</a>
</g>
</g>
<!-- Node1&#45;&gt;Node28 -->
<g id="edge42_Node000001_Node000028" class="edge">
<title>Node1&#45;&gt;Node28</title>
<g id="a_edge42_Node000001_Node000028"><a xlink:title=" ">
<path fill="none" stroke="#63b8ff" d="M407.23,-230.15C469.58,-221.28 566.84,-206.59 659.78,-188.46"/>
<polygon fill="#63b8ff" stroke="#63b8ff" points="660.18,-191.94 669.32,-186.58 658.83,-185.08 660.18,-191.94"/>
</a>
</g>
</g>
<!-- Node6&#45;&gt;Node5 -->
<g id="edge8_Node000006_Node000005" class="edge">
<title>Node6&#45;&gt;Node5</title>
<g id="a_edge8_Node000006_Node000005"><a xlink:title=" ">
<path fill="none" stroke="#63b8ff" d="M539.39,-173.46C487.89,-166.85 375.08,-151.69 269.35,-132.19"/>
<polygon fill="#63b8ff" stroke="#63b8ff" points="270.11,-128.78 259.64,-130.39 268.83,-135.66 270.11,-128.78"/>
</a>
</g>
</g>
<!-- Node7 -->
<g id="Node000007" class="node">
<title>Node7</title>
<g id="a_Node000007"><a xlink:title=" ">
<polygon fill="#e0e0e0" stroke="#999999" points="467,-132 408.25,-132 408.25,-112 467,-112 467,-132"/>
<text text-anchor="middle" x="437.62" y="-118.5" font-family="Helvetica,sans-Serif" font-size="10.00">dpp/dpp.h</text>
</a>
</g>
</g>
<!-- Node6&#45;&gt;Node7 -->
<g id="edge6_Node000006_Node000007" class="edge">
<title>Node6&#45;&gt;Node7</title>
<g id="a_edge6_Node000006_Node000007"><a xlink:title=" ">
<path fill="none" stroke="#63b8ff" d="M544.98,-167.59C524.51,-159.09 494.11,-146.46 470.88,-136.81"/>
<polygon fill="#63b8ff" stroke="#63b8ff" points="472.42,-133.66 461.84,-133.06 469.74,-140.13 472.42,-133.66"/>
</a>
</g>
</g>
<!-- Node8 -->
<g id="Node000008" class="node">
<title>Node8</title>
<g id="a_Node000008"><a xlink:title=" ">
<polygon fill="#e0e0e0" stroke="#999999" points="576.12,-132 485.12,-132 485.12,-112 576.12,-112 576.12,-132"/>
<text text-anchor="middle" x="530.62" y="-118.5" font-family="Helvetica,sans-Serif" font-size="10.00">dpp/misc&#45;enum.h</text>
</a>
</g>
</g>
<!-- Node6&#45;&gt;Node8 -->
<g id="edge7_Node000006_Node000008" class="edge">
<title>Node6&#45;&gt;Node8</title>
<g id="a_edge7_Node000006_Node000008"><a xlink:title=" ">
<path fill="none" stroke="#63b8ff" d="M561.18,-167.59C556.3,-160.47 549.43,-150.45 543.45,-141.72"/>
<polygon fill="#63b8ff" stroke="#63b8ff" points="546.39,-139.82 537.85,-133.55 540.62,-143.77 546.39,-139.82"/>
</a>
</g>
</g>
<!-- Node6&#45;&gt;Node9 -->
<g id="edge9_Node000006_Node000009" class="edge">
<title>Node6&#45;&gt;Node9</title>
<g id="a_edge9_Node000006_Node000009"><a xlink:title=" ">
<path fill="none" stroke="#63b8ff" d="M539.58,-171.01C497.27,-161.98 416.5,-144.74 364.14,-133.57"/>
<polygon fill="#63b8ff" stroke="#63b8ff" points="365.09,-130.19 354.58,-131.53 363.62,-137.04 365.09,-130.19"/>
</a>
</g>
</g>
<!-- Node6&#45;&gt;Node14 -->
<g id="edge39_Node000006_Node000014" class="edge">
<title>Node6&#45;&gt;Node14</title>
<g id="a_edge39_Node000006_Node000014"><a xlink:title=" ">
<path fill="none" stroke="#63b8ff" d="M574.13,-167.67C582.4,-154.57 594.45,-130.29 584.62,-112 576.67,-97.19 561.46,-86.44 547.45,-79.17"/>
<polygon fill="#63b8ff" stroke="#63b8ff" points="549,-76.03 538.47,-74.92 546.01,-82.36 549,-76.03"/>
</a>
</g>
</g>
<!-- Node18 -->
<g id="Node000018" class="node">
<title>Node18</title>
<g id="a_Node000018"><a xlink:href="IButtonCommand_8hpp.html" target="_top" xlink:title=" ">
<polygon fill="white" stroke="#666666" points="1438.25,-132 1327,-132 1327,-112 1438.25,-112 1438.25,-132"/>
<text text-anchor="middle" x="1382.62" y="-118.5" font-family="Helvetica,sans-Serif" font-size="10.00">IButtonCommand.hpp</text>
</a>
</g>
</g>
<!-- Node6&#45;&gt;Node18 -->
<g id="edge19_Node000006_Node000018" class="edge">
<title>Node6&#45;&gt;Node18</title>
<g id="a_edge19_Node000006_Node000018"><a xlink:title=" ">
<path fill="none" stroke="#63b8ff" d="M595.8,-169.57C598.76,-168.96 601.75,-168.42 604.62,-168 914.93,-122.84 999.75,-160.87 1315.32,-132.12"/>
<polygon fill="#63b8ff" stroke="#63b8ff" points="1315.5,-135.62 1325.13,-131.21 1314.85,-128.65 1315.5,-135.62"/>
</a>
</g>
</g>
<!-- Node21 -->
<g id="Node000021" class="node">
<title>Node21</title>
<g id="a_Node000021"><a xlink:href="IFormCommand_8hpp.html" target="_top" xlink:title=" ">
<polygon fill="white" stroke="#666666" points="1028.25,-132 923,-132 923,-112 1028.25,-112 1028.25,-132"/>
<text text-anchor="middle" x="975.62" y="-118.5" font-family="Helvetica,sans-Serif" font-size="10.00">IFormCommand.hpp</text>
</a>
</g>
</g>
<!-- Node6&#45;&gt;Node21 -->
<g id="edge22_Node000006_Node000021" class="edge">
<title>Node6&#45;&gt;Node21</title>
<g id="a_edge22_Node000006_Node000021"><a xlink:title=" ">
<path fill="none" stroke="#63b8ff" d="M595.83,-169.76C598.79,-169.12 601.76,-168.51 604.62,-168 737.13,-144.26 774.57,-149.62 911.22,-132.27"/>
<polygon fill="#63b8ff" stroke="#63b8ff" points="911.57,-135.75 921.04,-131 910.67,-128.81 911.57,-135.75"/>
</a>
</g>
</g>
<!-- Node22 -->
<g id="Node000022" class="node">
<title>Node22</title>
<g id="a_Node000022"><a xlink:href="IGlobalSlashCommand_8hpp.html" target="_top" xlink:title=" ">
<polygon fill="white" stroke="#666666" points="768.25,-132 633,-132 633,-112 768.25,-112 768.25,-132"/>
<text text-anchor="middle" x="700.62" y="-118.5" font-family="Helvetica,sans-Serif" font-size="10.00">IGlobalSlashCommand.hpp</text>
</a>
</g>
</g>
<!-- Node6&#45;&gt;Node22 -->
<g id="edge25_Node000006_Node000022" class="edge">
<title>Node6&#45;&gt;Node22</title>
<g id="a_edge25_Node000006_Node000022"><a xlink:title=" ">
<path fill="none" stroke="#63b8ff" d="M590.79,-167.59C611.83,-159.05 643.12,-146.35 666.93,-136.68"/>
<polygon fill="#63b8ff" stroke="#63b8ff" points="667.93,-140.05 675.88,-133.05 665.29,-133.57 667.93,-140.05"/>
</a>
</g>
</g>
<!-- Node24 -->
<g id="Node000024" class="node">
<title>Node24</title>
<g id="a_Node000024"><a xlink:href="IMemberCommand_8hpp.html" target="_top" xlink:title=" ">
<polygon fill="white" stroke="#666666" points="904.62,-132 786.62,-132 786.62,-112 904.62,-112 904.62,-132"/>
<text text-anchor="middle" x="845.62" y="-118.5" font-family="Helvetica,sans-Serif" font-size="10.00">IMemberCommand.hpp</text>
</a>
</g>
</g>
<!-- Node6&#45;&gt;Node24 -->
<g id="edge30_Node000006_Node000024" class="edge">
<title>Node6&#45;&gt;Node24</title>
<g id="a_edge30_Node000006_Node000024"><a xlink:title=" ">
<path fill="none" stroke="#63b8ff" d="M595.87,-169.96C598.82,-169.28 601.78,-168.61 604.62,-168 663.38,-155.38 730.62,-142.99 779.13,-134.42"/>
<polygon fill="#63b8ff" stroke="#63b8ff" points="779.69,-137.88 788.93,-132.7 778.47,-130.98 779.69,-137.88"/>
</a>
</g>
</g>
<!-- Node25 -->
<g id="Node000025" class="node">
<title>Node25</title>
<g id="a_Node000025"><a xlink:href="IMessageCommand_8hpp.html" target="_top" xlink:title=" ">
<polygon fill="white" stroke="#666666" points="1308.88,-132 1186.38,-132 1186.38,-112 1308.88,-112 1308.88,-132"/>
<text text-anchor="middle" x="1247.62" y="-118.5" font-family="Helvetica,sans-Serif" font-size="10.00">IMessageCommand.hpp</text>
</a>
</g>
</g>
<!-- Node6&#45;&gt;Node25 -->
<g id="edge33_Node000006_Node000025" class="edge">
<title>Node6&#45;&gt;Node25</title>
<g id="a_edge33_Node000006_Node000025"><a xlink:title=" ">
<path fill="none" stroke="#63b8ff" d="M595.8,-169.6C598.77,-168.99 601.75,-168.44 604.62,-168 853.21,-130.26 921.62,-155.52 1174.78,-132.2"/>
<polygon fill="#63b8ff" stroke="#63b8ff" points="1175.05,-135.69 1184.68,-131.27 1174.4,-128.72 1175.05,-135.69"/>
</a>
</g>
</g>
<!-- Node26 -->
<g id="Node000026" class="node">
<title>Node26</title>
<g id="a_Node000026"><a xlink:href="IReactionCommand_8hpp.html" target="_top" xlink:title=" ">
<polygon fill="white" stroke="#666666" points="1168.5,-132 1046.75,-132 1046.75,-112 1168.5,-112 1168.5,-132"/>
<text text-anchor="middle" x="1107.62" y="-118.5" font-family="Helvetica,sans-Serif" font-size="10.00">IReactionCommand.hpp</text>
</a>
</g>
</g>
<!-- Node6&#45;&gt;Node26 -->
<g id="edge36_Node000006_Node000026" class="edge">
<title>Node6&#45;&gt;Node26</title>
<g id="a_edge36_Node000006_Node000026"><a xlink:title=" ">
<path fill="none" stroke="#63b8ff" d="M595.81,-169.66C598.78,-169.04 601.75,-168.47 604.62,-168 791.61,-137.67 843.62,-151.75 1035.24,-132.19"/>
<polygon fill="#63b8ff" stroke="#63b8ff" points="1035.47,-135.69 1045.06,-131.17 1034.75,-128.73 1035.47,-135.69"/>
</a>
</g>
</g>
<!-- Node10 -->
<g id="Node000010" class="node">
<title>Node10</title>
<g id="a_Node000010"><a xlink:title=" ">
<polygon fill="#e0e0e0" stroke="#999999" points="338.75,-76 290.5,-76 290.5,-56 338.75,-56 338.75,-76"/>
<text text-anchor="middle" x="314.62" y="-62.5" font-family="Helvetica,sans-Serif" font-size="10.00">cstddef</text>
</a>
</g>
</g>
<!-- Node9&#45;&gt;Node10 -->
<g id="edge10_Node000009_Node000010" class="edge">
<title>Node9&#45;&gt;Node10</title>
<g id="a_edge10_Node000009_Node000010"><a xlink:title=" ">
<path fill="none" stroke="#63b8ff" d="M314.62,-111.59C314.62,-105.01 314.62,-95.96 314.62,-87.73"/>
<polygon fill="#63b8ff" stroke="#63b8ff" points="318.13,-87.81 314.63,-77.81 311.13,-87.81 318.13,-87.81"/>
</a>
</g>
</g>
<!-- Node11 -->
<g id="Node000011" class="node">
<title>Node11</title>
<g id="a_Node000011"><a xlink:title=" ">
<polygon fill="#e0e0e0" stroke="#999999" points="410.38,-76 356.88,-76 356.88,-56 410.38,-56 410.38,-76"/>
<text text-anchor="middle" x="383.62" y="-62.5" font-family="Helvetica,sans-Serif" font-size="10.00">iostream</text>
</a>
</g>
</g>
<!-- Node9&#45;&gt;Node11 -->
<g id="edge11_Node000009_Node000011" class="edge">
<title>Node9&#45;&gt;Node11</title>
<g id="a_edge11_Node000009_Node000011"><a xlink:title=" ">
<path fill="none" stroke="#63b8ff" d="M326.64,-111.59C336.64,-103.77 351.09,-92.46 362.93,-83.19"/>
<polygon fill="#63b8ff" stroke="#63b8ff" points="364.83,-86.15 370.55,-77.23 360.52,-80.64 364.83,-86.15"/>
</a>
</g>
</g>
<!-- Node12 -->
<g id="Node000012" class="node">
<title>Node12</title>
<g id="a_Node000012"><a xlink:title=" ">
<polygon fill="#e0e0e0" stroke="#999999" points="478.5,-76 428.75,-76 428.75,-56 478.5,-56 478.5,-76"/>
<text text-anchor="middle" x="453.62" y="-62.5" font-family="Helvetica,sans-Serif" font-size="10.00">optional</text>
</a>
</g>
</g>
<!-- Node9&#45;&gt;Node12 -->
<g id="edge12_Node000009_Node000012" class="edge">
<title>Node9&#45;&gt;Node12</title>
<g id="a_edge12_Node000009_Node000012"><a xlink:title=" ">
<path fill="none" stroke="#63b8ff" d="M338.84,-111.59C360.93,-103.01 393.82,-90.23 418.75,-80.55"/>
<polygon fill="#63b8ff" stroke="#63b8ff" points="419.76,-83.91 427.81,-77.03 417.22,-77.39 419.76,-83.91"/>
</a>
</g>
</g>
<!-- Node13 -->
<g id="Node000013" class="node">
<title>Node13</title>
<g id="a_Node000013"><a xlink:title=" ">
<polygon fill="#e0e0e0" stroke="#999999" points="175.12,-20 114.12,-20 114.12,0 175.12,0 175.12,-20"/>
<text text-anchor="middle" x="144.62" y="-6.5" font-family="Helvetica,sans-Serif" font-size="10.00">pqxx/pqxx</text>
</a>
</g>
</g>
<!-- Node9&#45;&gt;Node13 -->
<g id="edge13_Node000009_Node000013" class="edge">
<title>Node9&#45;&gt;Node13</title>
<g id="a_edge13_Node000009_Node000013"><a xlink:title=" ">
<path fill="none" stroke="#63b8ff" d="M281.81,-111.53C259.16,-104.05 229.04,-92.17 205.62,-76 186.79,-63 169.36,-43.33 158,-29.03"/>
<polygon fill="#63b8ff" stroke="#63b8ff" points="160.95,-27.13 152.08,-21.34 155.41,-31.4 160.95,-27.13"/>
</a>
</g>
</g>
<!-- Node9&#45;&gt;Node14 -->
<g id="edge14_Node000009_Node000014" class="edge">
<title>Node9&#45;&gt;Node14</title>
<g id="a_edge14_Node000009_Node000014"><a xlink:title=" ">
<path fill="none" stroke="#63b8ff" d="M353.24,-111.5C386.06,-103.31 434.67,-90.89 485.5,-76.51"/>
<polygon fill="#63b8ff" stroke="#63b8ff" points="486.26,-79.93 494.92,-73.83 484.35,-73.2 486.26,-79.93"/>
</a>
</g>
</g>
<!-- Node15 -->
<g id="Node000015" class="node">
<title>Node15</title>
<g id="a_Node000015"><a xlink:title=" ">
<polygon fill="#e0e0e0" stroke="#999999" points="272.62,-76 214.62,-76 214.62,-56 272.62,-56 272.62,-76"/>
<text text-anchor="middle" x="243.62" y="-62.5" font-family="Helvetica,sans-Serif" font-size="10.00">typeindex</text>
</a>
</g>
</g>
<!-- Node9&#45;&gt;Node15 -->
<g id="edge15_Node000009_Node000015" class="edge">
<title>Node9&#45;&gt;Node15</title>
<g id="a_edge15_Node000009_Node000015"><a xlink:title=" ">
<path fill="none" stroke="#63b8ff" d="M302.26,-111.59C291.98,-103.77 277.11,-92.46 264.91,-83.19"/>
<polygon fill="#63b8ff" stroke="#63b8ff" points="267.13,-80.48 257.06,-77.21 262.9,-86.05 267.13,-80.48"/>
</a>
</g>
</g>
<!-- Node16 -->
<g id="Node000016" class="node">
<title>Node16</title>
<g id="a_Node000016"><a xlink:title=" ">
<polygon fill="#e0e0e0" stroke="#999999" points="620.12,-76 577.12,-76 577.12,-56 620.12,-56 620.12,-76"/>
<text text-anchor="middle" x="598.62" y="-62.5" font-family="Helvetica,sans-Serif" font-size="10.00">vector</text>
</a>
</g>
</g>
<!-- Node9&#45;&gt;Node16 -->
<g id="edge16_Node000009_Node000016" class="edge">
<title>Node9&#45;&gt;Node16</title>
<g id="a_edge16_Node000009_Node000016"><a xlink:title=" ">
<path fill="none" stroke="#63b8ff" d="M353.22,-113.66C409.48,-102.96 513.03,-83.27 565.82,-73.24"/>
<polygon fill="#63b8ff" stroke="#63b8ff" points="566.23,-76.72 575.4,-71.42 564.92,-69.85 566.23,-76.72"/>
</a>
</g>
</g>
<!-- Node17 -->
<g id="Node000017" class="node">
<title>Node17</title>
<g id="a_Node000017"><a xlink:href="RowDTOAdapter_8hpp.html" target="_top" xlink:title=" ">
<polygon fill="white" stroke="#666666" points="158.5,-76 48.75,-76 48.75,-56 158.5,-56 158.5,-76"/>
<text text-anchor="middle" x="103.62" y="-62.5" font-family="Helvetica,sans-Serif" font-size="10.00">RowDTOAdapter.hpp</text>
</a>
</g>
</g>
<!-- Node9&#45;&gt;Node17 -->
<g id="edge17_Node000009_Node000017" class="edge">
<title>Node9&#45;&gt;Node17</title>
<g id="a_edge17_Node000009_Node000017"><a xlink:title=" ">
<path fill="none" stroke="#63b8ff" d="M277.87,-111.59C242.84,-102.63 189.89,-89.08 151.56,-79.27"/>
<polygon fill="#63b8ff" stroke="#63b8ff" points="152.69,-75.94 142.13,-76.85 150.95,-82.72 152.69,-75.94"/>
</a>
</g>
</g>
<!-- Node17&#45;&gt;Node13 -->
<g id="edge18_Node000017_Node000013" class="edge">
<title>Node17&#45;&gt;Node13</title>
<g id="a_edge18_Node000017_Node000013"><a xlink:title=" ">
<path fill="none" stroke="#63b8ff" d="M110.77,-55.59C116.23,-48.39 123.95,-38.23 130.63,-29.43"/>
<polygon fill="#63b8ff" stroke="#63b8ff" points="133.39,-31.58 136.65,-21.5 127.82,-27.35 133.39,-31.58"/>
</a>
</g>
</g>
<!-- Node19 -->
<g id="Node000019" class="node">
<title>Node19</title>
<g id="a_Node000019"><a xlink:title=" ">
<polygon fill="#e0e0e0" stroke="#999999" points="1019.75,-76 947.5,-76 947.5,-56 1019.75,-56 1019.75,-76"/>
<text text-anchor="middle" x="983.62" y="-62.5" font-family="Helvetica,sans-Serif" font-size="10.00">dpp/cluster.h</text>
</a>
</g>
</g>
<!-- Node18&#45;&gt;Node19 -->
<g id="edge20_Node000018_Node000019" class="edge">
<title>Node18&#45;&gt;Node19</title>
<g id="a_edge20_Node000018_Node000019"><a xlink:title=" ">
<path fill="none" stroke="#63b8ff" d="M1326.61,-113.22C1323.57,-112.81 1320.56,-112.4 1317.62,-112 1196.78,-95.64 1166.41,-92.76 1045.62,-76 1040.96,-75.35 1036.1,-74.67 1031.24,-73.97"/>
<polygon fill="#63b8ff" stroke="#63b8ff" points="1031.9,-70.53 1021.5,-72.57 1030.9,-77.46 1031.9,-70.53"/>
</a>
</g>
</g>
<!-- Node20 -->
<g id="Node000020" class="node">
<title>Node20</title>
<g id="a_Node000020"><a xlink:title=" ">
<polygon fill="#e0e0e0" stroke="#999999" points="1142.62,-76 1054.62,-76 1054.62,-56 1142.62,-56 1142.62,-76"/>
<text text-anchor="middle" x="1098.62" y="-62.5" font-family="Helvetica,sans-Serif" font-size="10.00">dpp/dispatcher.h</text>
</a>
</g>
</g>
<!-- Node18&#45;&gt;Node20 -->
<g id="edge21_Node000018_Node000020" class="edge">
<title>Node18&#45;&gt;Node20</title>
<g id="a_edge21_Node000018_Node000020"><a xlink:title=" ">
<path fill="none" stroke="#63b8ff" d="M1332.83,-111.53C1282.74,-102.01 1205.67,-87.35 1153.76,-77.48"/>
<polygon fill="#63b8ff" stroke="#63b8ff" points="1154.72,-74.1 1144.24,-75.67 1153.41,-80.98 1154.72,-74.1"/>
</a>
</g>
</g>
<!-- Node21&#45;&gt;Node19 -->
<g id="edge23_Node000021_Node000019" class="edge">
<title>Node21&#45;&gt;Node19</title>
<g id="a_edge23_Node000021_Node000019"><a xlink:title=" ">
<path fill="none" stroke="#63b8ff" d="M977.02,-111.59C978.01,-104.93 979.37,-95.75 980.6,-87.44"/>
<polygon fill="#63b8ff" stroke="#63b8ff" points="984.02,-88.2 982.03,-77.8 977.1,-87.17 984.02,-88.2"/>
</a>
</g>
</g>
<!-- Node21&#45;&gt;Node20 -->
<g id="edge24_Node000021_Node000020" class="edge">
<title>Node21&#45;&gt;Node20</title>
<g id="a_edge24_Node000021_Node000020"><a xlink:title=" ">
<path fill="none" stroke="#63b8ff" d="M997.05,-111.59C1016.25,-103.17 1044.67,-90.69 1066.57,-81.07"/>
<polygon fill="#63b8ff" stroke="#63b8ff" points="1067.9,-84.31 1075.65,-77.09 1065.08,-77.9 1067.9,-84.31"/>
</a>
</g>
</g>
<!-- Node22&#45;&gt;Node16 -->
<g id="edge29_Node000022_Node000016" class="edge">
<title>Node22&#45;&gt;Node16</title>
<g id="a_edge29_Node000022_Node000016"><a xlink:title=" ">
<path fill="none" stroke="#63b8ff" d="M682.86,-111.59C667.3,-103.36 644.44,-91.26 626.46,-81.74"/>
<polygon fill="#63b8ff" stroke="#63b8ff" points="628.34,-78.77 617.87,-77.19 625.07,-84.96 628.34,-78.77"/>
</a>
</g>
</g>
<!-- Node22&#45;&gt;Node19 -->
<g id="edge27_Node000022_Node000019" class="edge">
<title>Node22&#45;&gt;Node19</title>
<g id="a_edge27_Node000022_Node000019"><a xlink:title=" ">
<path fill="none" stroke="#63b8ff" d="M750.24,-111.53C802.56,-101.55 884.41,-85.93 935.97,-76.09"/>
<polygon fill="#63b8ff" stroke="#63b8ff" points="936.47,-79.56 945.64,-74.25 935.16,-72.68 936.47,-79.56"/>
</a>
</g>
</g>
<!-- Node22&#45;&gt;Node20 -->
<g id="edge28_Node000022_Node000020" class="edge">
<title>Node22&#45;&gt;Node20</title>
<g id="a_edge28_Node000022_Node000020"><a xlink:title=" ">
<path fill="none" stroke="#63b8ff" d="M768.59,-111.78C846.15,-101.26 971.5,-84.25 1043.33,-74.5"/>
<polygon fill="#63b8ff" stroke="#63b8ff" points="1043.44,-78.02 1052.88,-73.21 1042.5,-71.08 1043.44,-78.02"/>
</a>
</g>
</g>
<!-- Node23 -->
<g id="Node000023" class="node">
<title>Node23</title>
<g id="a_Node000023"><a xlink:title=" ">
<polygon fill="#e0e0e0" stroke="#999999" points="742,-76 659.25,-76 659.25,-56 742,-56 742,-76"/>
<text text-anchor="middle" x="700.62" y="-62.5" font-family="Helvetica,sans-Serif" font-size="10.00">appcommand.h</text>
</a>
</g>
</g>
<!-- Node22&#45;&gt;Node23 -->
<g id="edge26_Node000022_Node000023" class="edge">
<title>Node22&#45;&gt;Node23</title>
<g id="a_edge26_Node000022_Node000023"><a xlink:title=" ">
<path fill="none" stroke="#63b8ff" d="M700.62,-111.59C700.62,-105.01 700.62,-95.96 700.62,-87.73"/>
<polygon fill="#63b8ff" stroke="#63b8ff" points="704.13,-87.81 700.63,-77.81 697.13,-87.81 704.13,-87.81"/>
</a>
</g>
</g>
<!-- Node24&#45;&gt;Node19 -->
<g id="edge31_Node000024_Node000019" class="edge">
<title>Node24&#45;&gt;Node19</title>
<g id="a_edge31_Node000024_Node000019"><a xlink:title=" ">
<path fill="none" stroke="#63b8ff" d="M869.66,-111.59C891.59,-103.01 924.25,-90.23 949,-80.55"/>
<polygon fill="#63b8ff" stroke="#63b8ff" points="949.95,-83.93 957.99,-77.03 947.4,-77.42 949.95,-83.93"/>
</a>
</g>
</g>
<!-- Node24&#45;&gt;Node20 -->
<g id="edge32_Node000024_Node000020" class="edge">
<title>Node24&#45;&gt;Node20</title>
<g id="a_edge32_Node000024_Node000020"><a xlink:title=" ">
<path fill="none" stroke="#63b8ff" d="M889.98,-111.53C932.66,-102.42 997.32,-88.62 1043.34,-78.8"/>
<polygon fill="#63b8ff" stroke="#63b8ff" points="1043.79,-82.28 1052.84,-76.77 1042.33,-75.44 1043.79,-82.28"/>
</a>
</g>
</g>
<!-- Node25&#45;&gt;Node19 -->
<g id="edge34_Node000025_Node000019" class="edge">
<title>Node25&#45;&gt;Node19</title>
<g id="a_edge34_Node000025_Node000019"><a xlink:title=" ">
<path fill="none" stroke="#63b8ff" d="M1201.34,-111.53C1153.56,-101.76 1079.38,-86.59 1031.15,-76.72"/>
<polygon fill="#63b8ff" stroke="#63b8ff" points="1032.06,-73.34 1021.56,-74.76 1030.66,-80.19 1032.06,-73.34"/>
</a>
</g>
</g>
<!-- Node25&#45;&gt;Node20 -->
<g id="edge35_Node000025_Node000020" class="edge">
<title>Node25&#45;&gt;Node20</title>
<g id="a_edge35_Node000025_Node000020"><a xlink:title=" ">
<path fill="none" stroke="#63b8ff" d="M1221.67,-111.59C1197.78,-102.94 1162.1,-90 1135.3,-80.29"/>
<polygon fill="#63b8ff" stroke="#63b8ff" points="1136.8,-77.11 1126.2,-77 1134.41,-83.69 1136.8,-77.11"/>
</a>
</g>
</g>
<!-- Node26&#45;&gt;Node19 -->
<g id="edge37_Node000026_Node000019" class="edge">
<title>Node26&#45;&gt;Node19</title>
<g id="a_edge37_Node000026_Node000019"><a xlink:title=" ">
<path fill="none" stroke="#63b8ff" d="M1086.03,-111.59C1066.67,-103.17 1038.02,-90.69 1015.94,-81.07"/>
<polygon fill="#63b8ff" stroke="#63b8ff" points="1017.35,-77.87 1006.78,-77.08 1014.55,-84.29 1017.35,-77.87"/>
</a>
</g>
</g>
<!-- Node26&#45;&gt;Node20 -->
<g id="edge38_Node000026_Node000020" class="edge">
<title>Node26&#45;&gt;Node20</title>
<g id="a_edge38_Node000026_Node000020"><a xlink:title=" ">
<path fill="none" stroke="#63b8ff" d="M1106.06,-111.59C1104.95,-104.93 1103.42,-95.75 1102.03,-87.44"/>
<polygon fill="#63b8ff" stroke="#63b8ff" points="1105.52,-87.08 1100.42,-77.79 1098.62,-88.23 1105.52,-87.08"/>
</a>
</g>
</g>
</g>
</svg>
