<?xml version="1.0" encoding="UTF-8" standalone="no"?>
<!DOCTYPE svg PUBLIC "-//W3C//DTD SVG 1.1//EN"
 "http://www.w3.org/Graphics/SVG/1.1/DTD/svg11.dtd">
<!-- Generated by graphviz version 9.0.0 (0)
 -->
<!-- Title: src/bot_library/commands/roll/RollCommand.cpp Pages: 1 -->
<svg width="1525pt" height="376pt"
 viewBox="0.00 0.00 1524.88 376.00" xmlns="http://www.w3.org/2000/svg" xmlns:xlink="http://www.w3.org/1999/xlink">
<g id="graph0" class="graph" transform="scale(1 1) rotate(0) translate(4 372)">
<title>src/bot_library/commands/roll/RollCommand.cpp</title>
<!-- Node1 -->
<g id="Node000001" class="node">
<title>Node1</title>
<g id="a_Node000001"><a xlink:title=" ">
<polygon fill="#999999" stroke="#666666" points="1300,-368 1171.5,-368 1171.5,-336 1300,-336 1300,-368"/>
<text text-anchor="start" x="1179.5" y="-354.5" font-family="Helvetica,sans-Serif" font-size="10.00">src/bot_library/commands</text>
<text text-anchor="middle" x="1235.75" y="-342.5" font-family="Helvetica,sans-Serif" font-size="10.00">/roll/RollCommand.cpp</text>
</a>
</g>
</g>
<!-- Node2 -->
<g id="Node000002" class="node">
<title>Node2</title>
<g id="a_Node000002"><a xlink:href="RollCommand_8hpp.html" target="_top" xlink:title=" ">
<polygon fill="white" stroke="#666666" points="945.25,-300 848.25,-300 848.25,-280 945.25,-280 945.25,-300"/>
<text text-anchor="middle" x="896.75" y="-286.5" font-family="Helvetica,sans-Serif" font-size="10.00">RollCommand.hpp</text>
</a>
</g>
</g>
<!-- Node1&#45;&gt;Node2 -->
<g id="edge1_Node000001_Node000002" class="edge">
<title>Node1&#45;&gt;Node2</title>
<g id="a_edge1_Node000001_Node000002"><a xlink:title=" ">
<path fill="none" stroke="#63b8ff" d="M1171.19,-339.57C1109.47,-328.65 1017.14,-312.31 956.92,-301.65"/>
<polygon fill="#63b8ff" stroke="#63b8ff" points="957.64,-298.22 947.19,-299.93 956.42,-305.12 957.64,-298.22"/>
</a>
</g>
</g>
<!-- Node18 -->
<g id="Node000018" class="node">
<title>Node18</title>
<g id="a_Node000018"><a xlink:title=" ">
<polygon fill="#e0e0e0" stroke="#999999" points="1092.12,-76 1009.38,-76 1009.38,-56 1092.12,-56 1092.12,-76"/>
<text text-anchor="middle" x="1050.75" y="-62.5" font-family="Helvetica,sans-Serif" font-size="10.00">appcommand.h</text>
</a>
</g>
</g>
<!-- Node1&#45;&gt;Node18 -->
<g id="edge47_Node000001_Node000018" class="edge">
<title>Node1&#45;&gt;Node18</title>
<g id="a_edge47_Node000001_Node000018"><a xlink:title=" ">
<path fill="none" stroke="#63b8ff" d="M1208.1,-335.67C1193.97,-326.73 1177.36,-314.4 1165.75,-300 1108.43,-228.89 1127.89,-191.4 1082.75,-112 1077.55,-102.86 1070.93,-93.29 1065.07,-85.34"/>
<polygon fill="#63b8ff" stroke="#63b8ff" points="1067.95,-83.34 1059.12,-77.49 1062.37,-87.57 1067.95,-83.34"/>
</a>
</g>
</g>
<!-- Node25 -->
<g id="Node000025" class="node">
<title>Node25</title>
<g id="a_Node000025"><a xlink:title=" ">
<polygon fill="#e0e0e0" stroke="#999999" points="1222.5,-300 1175,-300 1175,-280 1222.5,-280 1222.5,-300"/>
<text text-anchor="middle" x="1198.75" y="-286.5" font-family="Helvetica,sans-Serif" font-size="10.00">invite.h</text>
</a>
</g>
</g>
<!-- Node1&#45;&gt;Node25 -->
<g id="edge48_Node000001_Node000025" class="edge">
<title>Node1&#45;&gt;Node25</title>
<g id="a_edge48_Node000001_Node000025"><a xlink:title=" ">
<path fill="none" stroke="#63b8ff" d="M1226.22,-335.55C1221.4,-327.74 1215.52,-318.19 1210.43,-309.94"/>
<polygon fill="#63b8ff" stroke="#63b8ff" points="1213.57,-308.37 1205.35,-301.7 1207.62,-312.05 1213.57,-308.37"/>
</a>
</g>
</g>
<!-- Node26 -->
<g id="Node000026" class="node">
<title>Node26</title>
<g id="a_Node000026"><a xlink:title=" ">
<polygon fill="#e0e0e0" stroke="#999999" points="1304.75,-300 1240.75,-300 1240.75,-280 1304.75,-280 1304.75,-300"/>
<text text-anchor="middle" x="1272.75" y="-286.5" font-family="Helvetica,sans-Serif" font-size="10.00">message.h</text>
</a>
</g>
</g>
<!-- Node1&#45;&gt;Node26 -->
<g id="edge49_Node000001_Node000026" class="edge">
<title>Node1&#45;&gt;Node26</title>
<g id="a_edge49_Node000001_Node000026"><a xlink:title=" ">
<path fill="none" stroke="#63b8ff" d="M1245.28,-335.55C1250.1,-327.74 1255.98,-318.19 1261.07,-309.94"/>
<polygon fill="#63b8ff" stroke="#63b8ff" points="1263.88,-312.05 1266.15,-301.7 1257.93,-308.37 1263.88,-312.05"/>
</a>
</g>
</g>
<!-- Node27 -->
<g id="Node000027" class="node">
<title>Node27</title>
<g id="a_Node000027"><a xlink:href="UserDTO_8hpp.html" target="_top" xlink:title=" ">
<polygon fill="white" stroke="#666666" points="1414.12,-132 1337.38,-132 1337.38,-112 1414.12,-112 1414.12,-132"/>
<text text-anchor="middle" x="1375.75" y="-118.5" font-family="Helvetica,sans-Serif" font-size="10.00">UserDTO.hpp</text>
</a>
</g>
</g>
<!-- Node1&#45;&gt;Node27 -->
<g id="edge50_Node000001_Node000027" class="edge">
<title>Node1&#45;&gt;Node27</title>
<g id="a_edge50_Node000001_Node000027"><a xlink:title=" ">
<path fill="none" stroke="#63b8ff" d="M1269.05,-335.62C1284.49,-327.04 1301.98,-315.03 1313.75,-300 1333.49,-274.79 1359.49,-183.86 1370.48,-143.06"/>
<polygon fill="#63b8ff" stroke="#63b8ff" points="1373.81,-144.16 1373,-133.6 1367.05,-142.36 1373.81,-144.16"/>
</a>
</g>
</g>
<!-- Node28 -->
<g id="Node000028" class="node">
<title>Node28</title>
<g id="a_Node000028"><a xlink:href="UserRepository_8hpp.html" target="_top" xlink:title=" ">
<polygon fill="white" stroke="#666666" points="1477.88,-188 1375.62,-188 1375.62,-168 1477.88,-168 1477.88,-188"/>
<text text-anchor="middle" x="1426.75" y="-174.5" font-family="Helvetica,sans-Serif" font-size="10.00">UserRepository.hpp</text>
</a>
</g>
</g>
<!-- Node1&#45;&gt;Node28 -->
<g id="edge53_Node000001_Node000028" class="edge">
<title>Node1&#45;&gt;Node28</title>
<g id="a_edge53_Node000001_Node000028"><a xlink:title=" ">
<path fill="none" stroke="#63b8ff" d="M1297.58,-335.52C1319.73,-327.66 1343.66,-316.23 1361.75,-300 1392.86,-272.09 1411.83,-225.69 1420.71,-199.19"/>
<polygon fill="#63b8ff" stroke="#63b8ff" points="1424.04,-200.29 1423.72,-189.7 1417.36,-198.17 1424.04,-200.29"/>
</a>
</g>
</g>
<!-- Node3 -->
<g id="Node000003" class="node">
<title>Node3</title>
<g id="a_Node000003"><a xlink:href="Bot_8hpp.html" target="_top" xlink:title=" ">
<polygon fill="white" stroke="#666666" points="755.62,-244 705.88,-244 705.88,-224 755.62,-224 755.62,-244"/>
<text text-anchor="middle" x="730.75" y="-230.5" font-family="Helvetica,sans-Serif" font-size="10.00">Bot.hpp</text>
</a>
</g>
</g>
<!-- Node2&#45;&gt;Node3 -->
<g id="edge2_Node000002_Node000003" class="edge">
<title>Node2&#45;&gt;Node3</title>
<g id="a_edge2_Node000002_Node000003"><a xlink:title=" ">
<path fill="none" stroke="#63b8ff" d="M867.84,-279.59C839.83,-270.48 797.27,-256.64 767.01,-246.8"/>
<polygon fill="#63b8ff" stroke="#63b8ff" points="768.11,-243.47 757.51,-243.71 765.94,-250.13 768.11,-243.47"/>
</a>
</g>
</g>
<!-- Node4 -->
<g id="Node000004" class="node">
<title>Node4</title>
<g id="a_Node000004"><a xlink:href="Core_8hpp.html" target="_top" xlink:title=" ">
<polygon fill="white" stroke="#666666" points="758.62,-188 702.88,-188 702.88,-168 758.62,-168 758.62,-188"/>
<text text-anchor="middle" x="730.75" y="-174.5" font-family="Helvetica,sans-Serif" font-size="10.00">Core.hpp</text>
</a>
</g>
</g>
<!-- Node3&#45;&gt;Node4 -->
<g id="edge3_Node000003_Node000004" class="edge">
<title>Node3&#45;&gt;Node4</title>
<g id="a_edge3_Node000003_Node000004"><a xlink:title=" ">
<path fill="none" stroke="#63b8ff" d="M730.75,-223.59C730.75,-217.01 730.75,-207.96 730.75,-199.73"/>
<polygon fill="#63b8ff" stroke="#63b8ff" points="734.25,-199.81 730.75,-189.81 727.25,-199.81 734.25,-199.81"/>
</a>
</g>
</g>
<!-- Node10 -->
<g id="Node000010" class="node">
<title>Node10</title>
<g id="a_Node000010"><a xlink:title=" ">
<polygon fill="#e0e0e0" stroke="#999999" points="1302.75,-76 1262.75,-76 1262.75,-56 1302.75,-56 1302.75,-76"/>
<text text-anchor="middle" x="1282.75" y="-62.5" font-family="Helvetica,sans-Serif" font-size="10.00">string</text>
</a>
</g>
</g>
<!-- Node3&#45;&gt;Node10 -->
<g id="edge45_Node000003_Node000010" class="edge">
<title>Node3&#45;&gt;Node10</title>
<g id="a_edge45_Node000003_Node000010"><a xlink:title=" ">
<path fill="none" stroke="#63b8ff" d="M756.04,-232.54C855.95,-230.13 1220.99,-215.64 1290.75,-132 1301.21,-119.46 1297.42,-100.54 1292.07,-86.33"/>
<polygon fill="#63b8ff" stroke="#63b8ff" points="1295.46,-85.36 1288.29,-77.56 1289.03,-88.13 1295.46,-85.36"/>
</a>
</g>
</g>
<!-- Node11 -->
<g id="Node000011" class="node">
<title>Node11</title>
<g id="a_Node000011"><a xlink:title=" ">
<polygon fill="#e0e0e0" stroke="#999999" points="1199.25,-76 1156.25,-76 1156.25,-56 1199.25,-56 1199.25,-76"/>
<text text-anchor="middle" x="1177.75" y="-62.5" font-family="Helvetica,sans-Serif" font-size="10.00">vector</text>
</a>
</g>
</g>
<!-- Node3&#45;&gt;Node11 -->
<g id="edge46_Node000003_Node000011" class="edge">
<title>Node3&#45;&gt;Node11</title>
<g id="a_edge46_Node000003_Node000011"><a xlink:title=" ">
<path fill="none" stroke="#63b8ff" d="M755.83,-229.15C815.24,-219.34 968.15,-189.97 1082.75,-132 1109.96,-118.24 1138.48,-97.79 1157.08,-83.51"/>
<polygon fill="#63b8ff" stroke="#63b8ff" points="1159.16,-86.33 1164.9,-77.42 1154.86,-80.81 1159.16,-86.33"/>
</a>
</g>
</g>
<!-- Node13 -->
<g id="Node000013" class="node">
<title>Node13</title>
<g id="a_Node000013"><a xlink:href="IButtonCommand_8hpp.html" target="_top" xlink:title=" ">
<polygon fill="white" stroke="#666666" points="611.38,-132 500.12,-132 500.12,-112 611.38,-112 611.38,-132"/>
<text text-anchor="middle" x="555.75" y="-118.5" font-family="Helvetica,sans-Serif" font-size="10.00">IButtonCommand.hpp</text>
</a>
</g>
</g>
<!-- Node3&#45;&gt;Node13 -->
<g id="edge34_Node000003_Node000013" class="edge">
<title>Node3&#45;&gt;Node13</title>
<g id="a_edge34_Node000003_Node000013"><a xlink:title=" ">
<path fill="none" stroke="#63b8ff" d="M715.83,-223.62C685.61,-204.63 616.92,-161.45 580.11,-138.31"/>
<polygon fill="#63b8ff" stroke="#63b8ff" points="582.24,-135.52 571.91,-133.16 578.52,-141.45 582.24,-135.52"/>
</a>
</g>
</g>
<!-- Node16 -->
<g id="Node000016" class="node">
<title>Node16</title>
<g id="a_Node000016"><a xlink:href="IFormCommand_8hpp.html" target="_top" xlink:title=" ">
<polygon fill="white" stroke="#666666" points="734.38,-132 629.12,-132 629.12,-112 734.38,-112 734.38,-132"/>
<text text-anchor="middle" x="681.75" y="-118.5" font-family="Helvetica,sans-Serif" font-size="10.00">IFormCommand.hpp</text>
</a>
</g>
</g>
<!-- Node3&#45;&gt;Node16 -->
<g id="edge35_Node000003_Node000016" class="edge">
<title>Node3&#45;&gt;Node16</title>
<g id="a_edge35_Node000003_Node000016"><a xlink:title=" ">
<path fill="none" stroke="#63b8ff" d="M720.6,-223.66C712.06,-215.19 700.23,-201.94 693.75,-188 687.22,-173.96 684.24,-156.67 682.88,-143.45"/>
<polygon fill="#63b8ff" stroke="#63b8ff" points="686.4,-143.48 682.13,-133.78 679.42,-144.02 686.4,-143.48"/>
</a>
</g>
</g>
<!-- Node17 -->
<g id="Node000017" class="node">
<title>Node17</title>
<g id="a_Node000017"><a xlink:href="IGlobalSlashCommand_8hpp.html" target="_top" xlink:title=" ">
<polygon fill="white" stroke="#666666" points="1073.38,-132 938.12,-132 938.12,-112 1073.38,-112 1073.38,-132"/>
<text text-anchor="middle" x="1005.75" y="-118.5" font-family="Helvetica,sans-Serif" font-size="10.00">IGlobalSlashCommand.hpp</text>
</a>
</g>
</g>
<!-- Node3&#45;&gt;Node17 -->
<g id="edge36_Node000003_Node000017" class="edge">
<title>Node3&#45;&gt;Node17</title>
<g id="a_edge36_Node000003_Node000017"><a xlink:title=" ">
<path fill="none" stroke="#63b8ff" d="M755.87,-227.81C787.74,-220.8 844.04,-206.96 889.75,-188 923.22,-174.11 959.25,-152.82 982.13,-138.42"/>
<polygon fill="#63b8ff" stroke="#63b8ff" points="983.83,-141.49 990.38,-133.16 980.06,-135.59 983.83,-141.49"/>
</a>
</g>
</g>
<!-- Node19 -->
<g id="Node000019" class="node">
<title>Node19</title>
<g id="a_Node000019"><a xlink:href="IMemberCommand_8hpp.html" target="_top" xlink:title=" ">
<polygon fill="white" stroke="#666666" points="201.75,-132 83.75,-132 83.75,-112 201.75,-112 201.75,-132"/>
<text text-anchor="middle" x="142.75" y="-118.5" font-family="Helvetica,sans-Serif" font-size="10.00">IMemberCommand.hpp</text>
</a>
</g>
</g>
<!-- Node3&#45;&gt;Node19 -->
<g id="edge37_Node000003_Node000019" class="edge">
<title>Node3&#45;&gt;Node19</title>
<g id="a_edge37_Node000003_Node000019"><a xlink:title=" ">
<path fill="none" stroke="#63b8ff" d="M705.48,-229.08C657.76,-221.6 551.14,-204.58 461.75,-188 368.83,-170.77 261.2,-148.31 197.72,-134.81"/>
<polygon fill="#63b8ff" stroke="#63b8ff" points="198.76,-131.46 188.25,-132.8 197.31,-138.3 198.76,-131.46"/>
</a>
</g>
</g>
<!-- Node20 -->
<g id="Node000020" class="node">
<title>Node20</title>
<g id="a_Node000020"><a xlink:href="IMessageCommand_8hpp.html" target="_top" xlink:title=" ">
<polygon fill="white" stroke="#666666" points="342,-132 219.5,-132 219.5,-112 342,-112 342,-132"/>
<text text-anchor="middle" x="280.75" y="-118.5" font-family="Helvetica,sans-Serif" font-size="10.00">IMessageCommand.hpp</text>
</a>
</g>
</g>
<!-- Node3&#45;&gt;Node20 -->
<g id="edge38_Node000003_Node000020" class="edge">
<title>Node3&#45;&gt;Node20</title>
<g id="a_edge38_Node000003_Node000020"><a xlink:title=" ">
<path fill="none" stroke="#63b8ff" d="M705.47,-226.92C669.68,-218.3 602.2,-202.02 544.75,-188 469.77,-169.7 382.88,-148.26 329.88,-135.16"/>
<polygon fill="#63b8ff" stroke="#63b8ff" points="330.79,-131.78 320.24,-132.78 329.11,-138.57 330.79,-131.78"/>
</a>
</g>
</g>
<!-- Node21 -->
<g id="Node000021" class="node">
<title>Node21</title>
<g id="a_Node000021"><a xlink:href="IReactionCommand_8hpp.html" target="_top" xlink:title=" ">
<polygon fill="white" stroke="#666666" points="481.62,-132 359.88,-132 359.88,-112 481.62,-112 481.62,-132"/>
<text text-anchor="middle" x="420.75" y="-118.5" font-family="Helvetica,sans-Serif" font-size="10.00">IReactionCommand.hpp</text>
</a>
</g>
</g>
<!-- Node3&#45;&gt;Node21 -->
<g id="edge39_Node000003_Node000021" class="edge">
<title>Node3&#45;&gt;Node21</title>
<g id="a_edge39_Node000003_Node000021"><a xlink:title=" ">
<path fill="none" stroke="#63b8ff" d="M705.38,-224C650.82,-204.64 522.08,-158.95 458.13,-136.27"/>
<polygon fill="#63b8ff" stroke="#63b8ff" points="459.37,-132.99 448.77,-132.94 457.03,-139.59 459.37,-132.99"/>
</a>
</g>
</g>
<!-- Node22 -->
<g id="Node000022" class="node">
<title>Node22</title>
<g id="a_Node000022"><a xlink:href="IReady_8hpp.html" target="_top" xlink:title=" ">
<polygon fill="white" stroke="#666666" points="65.5,-132 0,-132 0,-112 65.5,-112 65.5,-132"/>
<text text-anchor="middle" x="32.75" y="-118.5" font-family="Helvetica,sans-Serif" font-size="10.00">IReady.hpp</text>
</a>
</g>
</g>
<!-- Node3&#45;&gt;Node22 -->
<g id="edge40_Node000003_Node000022" class="edge">
<title>Node3&#45;&gt;Node22</title>
<g id="a_edge40_Node000003_Node000022"><a xlink:title=" ">
<path fill="none" stroke="#63b8ff" d="M705.61,-230.56C645.82,-224.62 490.51,-208.39 361.75,-188 236.9,-168.23 203.86,-158.59 76.7,-132.38"/>
<polygon fill="#63b8ff" stroke="#63b8ff" points="77.74,-129.02 67.24,-130.44 76.33,-135.88 77.74,-129.02"/>
</a>
</g>
</g>
<!-- Node23 -->
<g id="Node000023" class="node">
<title>Node23</title>
<g id="a_Node000023"><a xlink:title=" ">
<polygon fill="#e0e0e0" stroke="#999999" points="811.12,-188 776.38,-188 776.38,-168 811.12,-168 811.12,-188"/>
<text text-anchor="middle" x="793.75" y="-174.5" font-family="Helvetica,sans-Serif" font-size="10.00">map</text>
</a>
</g>
</g>
<!-- Node3&#45;&gt;Node23 -->
<g id="edge43_Node000003_Node000023" class="edge">
<title>Node3&#45;&gt;Node23</title>
<g id="a_edge43_Node000003_Node000023"><a xlink:title=" ">
<path fill="none" stroke="#63b8ff" d="M741.72,-223.59C750.67,-215.93 763.52,-204.91 774.21,-195.75"/>
<polygon fill="#63b8ff" stroke="#63b8ff" points="776.44,-198.45 781.75,-189.28 771.88,-193.13 776.44,-198.45"/>
</a>
</g>
</g>
<!-- Node24 -->
<g id="Node000024" class="node">
<title>Node24</title>
<g id="a_Node000024"><a xlink:title=" ">
<polygon fill="#e0e0e0" stroke="#999999" points="880.38,-188 829.12,-188 829.12,-168 880.38,-168 880.38,-188"/>
<text text-anchor="middle" x="854.75" y="-174.5" font-family="Helvetica,sans-Serif" font-size="10.00">memory</text>
</a>
</g>
</g>
<!-- Node3&#45;&gt;Node24 -->
<g id="edge44_Node000003_Node000024" class="edge">
<title>Node3&#45;&gt;Node24</title>
<g id="a_edge44_Node000003_Node000024"><a xlink:title=" ">
<path fill="none" stroke="#63b8ff" d="M752.35,-223.59C771.7,-215.17 800.35,-202.69 822.43,-193.07"/>
<polygon fill="#63b8ff" stroke="#63b8ff" points="823.82,-196.29 831.59,-189.08 821.03,-189.87 823.82,-196.29"/>
</a>
</g>
</g>
<!-- Node5 -->
<g id="Node000005" class="node">
<title>Node5</title>
<g id="a_Node000005"><a xlink:title=" ">
<polygon fill="#e0e0e0" stroke="#999999" points="811.12,-132 752.38,-132 752.38,-112 811.12,-112 811.12,-132"/>
<text text-anchor="middle" x="781.75" y="-118.5" font-family="Helvetica,sans-Serif" font-size="10.00">dpp/dpp.h</text>
</a>
</g>
</g>
<!-- Node4&#45;&gt;Node5 -->
<g id="edge4_Node000004_Node000005" class="edge">
<title>Node4&#45;&gt;Node5</title>
<g id="a_edge4_Node000004_Node000005"><a xlink:title=" ">
<path fill="none" stroke="#63b8ff" d="M739.63,-167.59C746.65,-160.16 756.65,-149.58 765.14,-140.58"/>
<polygon fill="#63b8ff" stroke="#63b8ff" points="767.61,-143.07 771.93,-133.4 762.52,-138.27 767.61,-143.07"/>
</a>
</g>
</g>
<!-- Node6 -->
<g id="Node000006" class="node">
<title>Node6</title>
<g id="a_Node000006"><a xlink:title=" ">
<polygon fill="#e0e0e0" stroke="#999999" points="920.25,-132 829.25,-132 829.25,-112 920.25,-112 920.25,-132"/>
<text text-anchor="middle" x="874.75" y="-118.5" font-family="Helvetica,sans-Serif" font-size="10.00">dpp/misc&#45;enum.h</text>
</a>
</g>
</g>
<!-- Node4&#45;&gt;Node6 -->
<g id="edge5_Node000004_Node000006" class="edge">
<title>Node4&#45;&gt;Node6</title>
<g id="a_edge5_Node000004_Node000006"><a xlink:title=" ">
<path fill="none" stroke="#63b8ff" d="M755.83,-167.59C778.82,-158.97 813.1,-146.12 838.96,-136.42"/>
<polygon fill="#63b8ff" stroke="#63b8ff" points="839.92,-139.8 848.05,-133.01 837.46,-133.25 839.92,-139.8"/>
</a>
</g>
</g>
<!-- Node7 -->
<g id="Node000007" class="node">
<title>Node7</title>
<g id="a_Node000007"><a xlink:href="Database_8hpp.html" target="_top" xlink:title=" ">
<polygon fill="white" stroke="#666666" points="1282.12,-132 1205.38,-132 1205.38,-112 1282.12,-112 1282.12,-132"/>
<text text-anchor="middle" x="1243.75" y="-118.5" font-family="Helvetica,sans-Serif" font-size="10.00">Database.hpp</text>
</a>
</g>
</g>
<!-- Node4&#45;&gt;Node7 -->
<g id="edge6_Node000004_Node000007" class="edge">
<title>Node4&#45;&gt;Node7</title>
<g id="a_edge6_Node000004_Node000007"><a xlink:title=" ">
<path fill="none" stroke="#63b8ff" d="M758.94,-169.69C761.91,-169.06 764.88,-168.48 767.75,-168 937.69,-139.56 982.25,-148.57 1153.75,-132 1166.81,-130.74 1180.92,-129.34 1194.02,-128.03"/>
<polygon fill="#63b8ff" stroke="#63b8ff" points="1194.11,-131.54 1203.71,-127.06 1193.41,-124.58 1194.11,-131.54"/>
</a>
</g>
</g>
<!-- Node4&#45;&gt;Node10 -->
<g id="edge33_Node000004_Node000010" class="edge">
<title>Node4&#45;&gt;Node10</title>
<g id="a_edge33_Node000004_Node000010"><a xlink:title=" ">
<path fill="none" stroke="#63b8ff" d="M758.95,-169.76C761.91,-169.11 764.89,-168.51 767.75,-168 906.48,-143.3 945.05,-161.93 1082.75,-132 1143.96,-118.7 1212.95,-94.03 1251.81,-79.21"/>
<polygon fill="#63b8ff" stroke="#63b8ff" points="1252.91,-82.53 1260.98,-75.67 1250.39,-76 1252.91,-82.53"/>
</a>
</g>
</g>
<!-- Node4&#45;&gt;Node13 -->
<g id="edge13_Node000004_Node000013" class="edge">
<title>Node4&#45;&gt;Node13</title>
<g id="a_edge13_Node000004_Node000013"><a xlink:title=" ">
<path fill="none" stroke="#63b8ff" d="M702.63,-168.32C674.2,-159.55 629.92,-145.89 597.41,-135.86"/>
<polygon fill="#63b8ff" stroke="#63b8ff" points="598.48,-132.52 587.89,-132.92 596.42,-139.21 598.48,-132.52"/>
</a>
</g>
</g>
<!-- Node4&#45;&gt;Node16 -->
<g id="edge16_Node000004_Node000016" class="edge">
<title>Node4&#45;&gt;Node16</title>
<g id="a_edge16_Node000004_Node000016"><a xlink:title=" ">
<path fill="none" stroke="#63b8ff" d="M722.21,-167.59C715.47,-160.16 705.86,-149.58 697.71,-140.58"/>
<polygon fill="#63b8ff" stroke="#63b8ff" points="700.52,-138.47 691.2,-133.42 695.33,-143.18 700.52,-138.47"/>
</a>
</g>
</g>
<!-- Node4&#45;&gt;Node17 -->
<g id="edge19_Node000004_Node000017" class="edge">
<title>Node4&#45;&gt;Node17</title>
<g id="a_edge19_Node000004_Node000017"><a xlink:title=" ">
<path fill="none" stroke="#63b8ff" d="M759,-169.97C761.95,-169.28 764.91,-168.61 767.75,-168 825.78,-155.46 892.19,-143.07 940.09,-134.47"/>
<polygon fill="#63b8ff" stroke="#63b8ff" points="940.52,-137.95 949.75,-132.75 939.29,-131.06 940.52,-137.95"/>
</a>
</g>
</g>
<!-- Node4&#45;&gt;Node19 -->
<g id="edge24_Node000004_Node000019" class="edge">
<title>Node4&#45;&gt;Node19</title>
<g id="a_edge24_Node000004_Node000019"><a xlink:title=" ">
<path fill="none" stroke="#63b8ff" d="M702.52,-175.01C625.78,-169.5 406.67,-153.13 213.3,-132.23"/>
<polygon fill="#63b8ff" stroke="#63b8ff" points="213.89,-128.78 203.57,-131.18 213.14,-135.74 213.89,-128.78"/>
</a>
</g>
</g>
<!-- Node4&#45;&gt;Node20 -->
<g id="edge27_Node000004_Node000020" class="edge">
<title>Node4&#45;&gt;Node20</title>
<g id="a_edge27_Node000004_Node000020"><a xlink:title=" ">
<path fill="none" stroke="#63b8ff" d="M702.61,-173.77C641.25,-166.69 490.51,-149.2 353.32,-132.31"/>
<polygon fill="#63b8ff" stroke="#63b8ff" points="354.06,-128.87 343.71,-131.12 353.2,-135.82 354.06,-128.87"/>
</a>
</g>
</g>
<!-- Node4&#45;&gt;Node21 -->
<g id="edge30_Node000004_Node000021" class="edge">
<title>Node4&#45;&gt;Node21</title>
<g id="a_edge30_Node000004_Node000021"><a xlink:title=" ">
<path fill="none" stroke="#63b8ff" d="M702.42,-172.06C653.81,-163.6 553.33,-146.09 486.47,-134.45"/>
<polygon fill="#63b8ff" stroke="#63b8ff" points="487.16,-131.02 476.71,-132.75 485.96,-137.91 487.16,-131.02"/>
</a>
</g>
</g>
<!-- Node8 -->
<g id="Node000008" class="node">
<title>Node8</title>
<g id="a_Node000008"><a xlink:title=" ">
<polygon fill="#e0e0e0" stroke="#999999" points="1497.88,-76 1449.62,-76 1449.62,-56 1497.88,-56 1497.88,-76"/>
<text text-anchor="middle" x="1473.75" y="-62.5" font-family="Helvetica,sans-Serif" font-size="10.00">cstddef</text>
</a>
</g>
</g>
<!-- Node7&#45;&gt;Node8 -->
<g id="edge7_Node000007_Node000008" class="edge">
<title>Node7&#45;&gt;Node8</title>
<g id="a_edge7_Node000007_Node000008"><a xlink:title=" ">
<path fill="none" stroke="#63b8ff" d="M1282.52,-112.5C1319.88,-104.21 1378.26,-91.04 1438.41,-76.26"/>
<polygon fill="#63b8ff" stroke="#63b8ff" points="1438.92,-79.74 1447.79,-73.95 1437.24,-72.95 1438.92,-79.74"/>
</a>
</g>
</g>
<!-- Node9 -->
<g id="Node000009" class="node">
<title>Node9</title>
<g id="a_Node000009"><a xlink:title=" ">
<polygon fill="#e0e0e0" stroke="#999999" points="1335.25,-20 1274.25,-20 1274.25,0 1335.25,0 1335.25,-20"/>
<text text-anchor="middle" x="1304.75" y="-6.5" font-family="Helvetica,sans-Serif" font-size="10.00">pqxx/pqxx</text>
</a>
</g>
</g>
<!-- Node7&#45;&gt;Node9 -->
<g id="edge8_Node000007_Node000009" class="edge">
<title>Node7&#45;&gt;Node9</title>
<g id="a_edge8_Node000007_Node000009"><a xlink:title=" ">
<path fill="none" stroke="#63b8ff" d="M1243.25,-111.54C1242.98,-98.29 1244,-73.83 1253.75,-56 1260.02,-44.54 1270.39,-34.58 1280.16,-26.96"/>
<polygon fill="#63b8ff" stroke="#63b8ff" points="1281.92,-30.01 1287.95,-21.3 1277.8,-24.34 1281.92,-30.01"/>
</a>
</g>
</g>
<!-- Node7&#45;&gt;Node10 -->
<g id="edge9_Node000007_Node000010" class="edge">
<title>Node7&#45;&gt;Node10</title>
<g id="a_edge9_Node000007_Node000010"><a xlink:title=" ">
<path fill="none" stroke="#63b8ff" d="M1250.54,-111.59C1255.74,-104.39 1263.08,-94.23 1269.44,-85.43"/>
<polygon fill="#63b8ff" stroke="#63b8ff" points="1272.13,-87.68 1275.15,-77.53 1266.46,-83.58 1272.13,-87.68"/>
</a>
</g>
</g>
<!-- Node7&#45;&gt;Node11 -->
<g id="edge10_Node000007_Node000011" class="edge">
<title>Node7&#45;&gt;Node11</title>
<g id="a_edge10_Node000007_Node000011"><a xlink:title=" ">
<path fill="none" stroke="#63b8ff" d="M1232.25,-111.59C1222.79,-103.85 1209.15,-92.69 1197.88,-83.47"/>
<polygon fill="#63b8ff" stroke="#63b8ff" points="1200.24,-80.88 1190.29,-77.26 1195.81,-86.3 1200.24,-80.88"/>
</a>
</g>
</g>
<!-- Node12 -->
<g id="Node000012" class="node">
<title>Node12</title>
<g id="a_Node000012"><a xlink:href="RowDTOAdapter_8hpp.html" target="_top" xlink:title=" ">
<polygon fill="white" stroke="#666666" points="1430.62,-76 1320.88,-76 1320.88,-56 1430.62,-56 1430.62,-76"/>
<text text-anchor="middle" x="1375.75" y="-62.5" font-family="Helvetica,sans-Serif" font-size="10.00">RowDTOAdapter.hpp</text>
</a>
</g>
</g>
<!-- Node7&#45;&gt;Node12 -->
<g id="edge11_Node000007_Node000012" class="edge">
<title>Node7&#45;&gt;Node12</title>
<g id="a_edge11_Node000007_Node000012"><a xlink:title=" ">
<path fill="none" stroke="#63b8ff" d="M1266.74,-111.59C1287.53,-103.09 1318.4,-90.46 1341.99,-80.81"/>
<polygon fill="#63b8ff" stroke="#63b8ff" points="1343.25,-84.08 1351.18,-77.05 1340.6,-77.6 1343.25,-84.08"/>
</a>
</g>
</g>
<!-- Node12&#45;&gt;Node9 -->
<g id="edge12_Node000012_Node000009" class="edge">
<title>Node12&#45;&gt;Node9</title>
<g id="a_edge12_Node000012_Node000009"><a xlink:title=" ">
<path fill="none" stroke="#63b8ff" d="M1363.38,-55.59C1353.1,-47.77 1338.23,-36.46 1326.04,-27.19"/>
<polygon fill="#63b8ff" stroke="#63b8ff" points="1328.26,-24.48 1318.18,-21.21 1324.02,-30.05 1328.26,-24.48"/>
</a>
</g>
</g>
<!-- Node14 -->
<g id="Node000014" class="node">
<title>Node14</title>
<g id="a_Node000014"><a xlink:title=" ">
<polygon fill="#e0e0e0" stroke="#999999" points="505.88,-76 433.62,-76 433.62,-56 505.88,-56 505.88,-76"/>
<text text-anchor="middle" x="469.75" y="-62.5" font-family="Helvetica,sans-Serif" font-size="10.00">dpp/cluster.h</text>
</a>
</g>
</g>
<!-- Node13&#45;&gt;Node14 -->
<g id="edge14_Node000013_Node000014" class="edge">
<title>Node13&#45;&gt;Node14</title>
<g id="a_edge14_Node000013_Node000014"><a xlink:title=" ">
<path fill="none" stroke="#63b8ff" d="M540.77,-111.59C528.02,-103.59 509.46,-91.93 494.51,-82.54"/>
<polygon fill="#63b8ff" stroke="#63b8ff" points="496.46,-79.64 486.13,-77.28 492.74,-85.57 496.46,-79.64"/>
</a>
</g>
</g>
<!-- Node15 -->
<g id="Node000015" class="node">
<title>Node15</title>
<g id="a_Node000015"><a xlink:title=" ">
<polygon fill="#e0e0e0" stroke="#999999" points="415.75,-76 327.75,-76 327.75,-56 415.75,-56 415.75,-76"/>
<text text-anchor="middle" x="371.75" y="-62.5" font-family="Helvetica,sans-Serif" font-size="10.00">dpp/dispatcher.h</text>
</a>
</g>
</g>
<!-- Node13&#45;&gt;Node15 -->
<g id="edge15_Node000013_Node000015" class="edge">
<title>Node13&#45;&gt;Node15</title>
<g id="a_edge15_Node000013_Node000015"><a xlink:title=" ">
<path fill="none" stroke="#63b8ff" d="M523.7,-111.59C493.54,-102.74 448.16,-89.43 414.85,-79.65"/>
<polygon fill="#63b8ff" stroke="#63b8ff" points="416.08,-76.36 405.5,-76.91 414.11,-83.08 416.08,-76.36"/>
</a>
</g>
</g>
<!-- Node16&#45;&gt;Node14 -->
<g id="edge17_Node000016_Node000014" class="edge">
<title>Node16&#45;&gt;Node14</title>
<g id="a_edge17_Node000016_Node000014"><a xlink:title=" ">
<path fill="none" stroke="#63b8ff" d="M644.82,-111.59C609.41,-102.57 555.77,-88.91 517.2,-79.09"/>
<polygon fill="#63b8ff" stroke="#63b8ff" points="518.28,-75.75 507.72,-76.67 516.55,-82.53 518.28,-75.75"/>
</a>
</g>
</g>
<!-- Node16&#45;&gt;Node15 -->
<g id="edge18_Node000016_Node000015" class="edge">
<title>Node16&#45;&gt;Node15</title>
<g id="a_edge18_Node000016_Node000015"><a xlink:title=" ">
<path fill="none" stroke="#63b8ff" d="M628.81,-111.78C572.67,-102 484.38,-86.62 427.28,-76.67"/>
<polygon fill="#63b8ff" stroke="#63b8ff" points="427.88,-73.23 417.43,-74.96 426.68,-80.12 427.88,-73.23"/>
</a>
</g>
</g>
<!-- Node17&#45;&gt;Node11 -->
<g id="edge23_Node000017_Node000011" class="edge">
<title>Node17&#45;&gt;Node11</title>
<g id="a_edge23_Node000017_Node000011"><a xlink:title=" ">
<path fill="none" stroke="#63b8ff" d="M1035.71,-111.59C1066.23,-102.01 1113.42,-87.2 1144.93,-77.3"/>
<polygon fill="#63b8ff" stroke="#63b8ff" points="1145.83,-80.69 1154.33,-74.35 1143.74,-74.01 1145.83,-80.69"/>
</a>
</g>
</g>
<!-- Node17&#45;&gt;Node14 -->
<g id="edge21_Node000017_Node000014" class="edge">
<title>Node17&#45;&gt;Node14</title>
<g id="a_edge21_Node000017_Node000014"><a xlink:title=" ">
<path fill="none" stroke="#63b8ff" d="M937.8,-112.88C935.08,-112.58 932.39,-112.29 929.75,-112 779.42,-95.75 601.17,-79.04 517.55,-71.35"/>
<polygon fill="#63b8ff" stroke="#63b8ff" points="517.94,-67.87 507.66,-70.45 517.3,-74.84 517.94,-67.87"/>
</a>
</g>
</g>
<!-- Node17&#45;&gt;Node15 -->
<g id="edge22_Node000017_Node000015" class="edge">
<title>Node17&#45;&gt;Node15</title>
<g id="a_edge22_Node000017_Node000015"><a xlink:title=" ">
<path fill="none" stroke="#63b8ff" d="M937.81,-112.8C935.09,-112.52 932.4,-112.25 929.75,-112 709.46,-91.12 650.11,-102.47 427.65,-76.24"/>
<polygon fill="#63b8ff" stroke="#63b8ff" points="428.08,-72.77 417.74,-75.06 427.26,-79.72 428.08,-72.77"/>
</a>
</g>
</g>
<!-- Node17&#45;&gt;Node18 -->
<g id="edge20_Node000017_Node000018" class="edge">
<title>Node17&#45;&gt;Node18</title>
<g id="a_edge20_Node000017_Node000018"><a xlink:title=" ">
<path fill="none" stroke="#63b8ff" d="M1013.59,-111.59C1019.72,-104.24 1028.42,-93.8 1035.86,-84.87"/>
<polygon fill="#63b8ff" stroke="#63b8ff" points="1038.32,-87.38 1042.03,-77.46 1032.94,-82.9 1038.32,-87.38"/>
</a>
</g>
</g>
<!-- Node19&#45;&gt;Node14 -->
<g id="edge25_Node000019_Node000014" class="edge">
<title>Node19&#45;&gt;Node14</title>
<g id="a_edge25_Node000019_Node000014"><a xlink:title=" ">
<path fill="none" stroke="#63b8ff" d="M202.01,-112.23C256.64,-104 340.27,-91 422.15,-76.41"/>
<polygon fill="#63b8ff" stroke="#63b8ff" points="422.71,-79.87 431.93,-74.66 421.47,-72.98 422.71,-79.87"/>
</a>
</g>
</g>
<!-- Node19&#45;&gt;Node15 -->
<g id="edge26_Node000019_Node000015" class="edge">
<title>Node19&#45;&gt;Node15</title>
<g id="a_edge26_Node000019_Node000015"><a xlink:title=" ">
<path fill="none" stroke="#63b8ff" d="M182.9,-111.53C221.21,-102.5 279.07,-88.85 320.65,-79.05"/>
<polygon fill="#63b8ff" stroke="#63b8ff" points="321.24,-82.51 330.17,-76.8 319.64,-75.69 321.24,-82.51"/>
</a>
</g>
</g>
<!-- Node20&#45;&gt;Node14 -->
<g id="edge28_Node000020_Node000014" class="edge">
<title>Node20&#45;&gt;Node14</title>
<g id="a_edge28_Node000020_Node000014"><a xlink:title=" ">
<path fill="none" stroke="#63b8ff" d="M313.67,-111.59C344.78,-102.71 391.67,-89.31 425.93,-79.52"/>
<polygon fill="#63b8ff" stroke="#63b8ff" points="426.46,-83.01 435.12,-76.9 424.54,-76.28 426.46,-83.01"/>
</a>
</g>
</g>
<!-- Node20&#45;&gt;Node15 -->
<g id="edge29_Node000020_Node000015" class="edge">
<title>Node20&#45;&gt;Node15</title>
<g id="a_edge29_Node000020_Node000015"><a xlink:title=" ">
<path fill="none" stroke="#63b8ff" d="M296.6,-111.59C310.22,-103.51 330.11,-91.71 346.01,-82.27"/>
<polygon fill="#63b8ff" stroke="#63b8ff" points="347.66,-85.37 354.47,-77.25 344.09,-79.35 347.66,-85.37"/>
</a>
</g>
</g>
<!-- Node21&#45;&gt;Node14 -->
<g id="edge31_Node000021_Node000014" class="edge">
<title>Node21&#45;&gt;Node14</title>
<g id="a_edge31_Node000021_Node000014"><a xlink:title=" ">
<path fill="none" stroke="#63b8ff" d="M429.29,-111.59C436.03,-104.16 445.64,-93.58 453.79,-84.58"/>
<polygon fill="#63b8ff" stroke="#63b8ff" points="456.17,-87.18 460.3,-77.42 450.98,-82.47 456.17,-87.18"/>
</a>
</g>
</g>
<!-- Node21&#45;&gt;Node15 -->
<g id="edge32_Node000021_Node000015" class="edge">
<title>Node21&#45;&gt;Node15</title>
<g id="a_edge32_Node000021_Node000015"><a xlink:title=" ">
<path fill="none" stroke="#63b8ff" d="M412.21,-111.59C405.47,-104.16 395.86,-93.58 387.71,-84.58"/>
<polygon fill="#63b8ff" stroke="#63b8ff" points="390.52,-82.47 381.2,-77.42 385.33,-87.18 390.52,-82.47"/>
</a>
</g>
</g>
<!-- Node22&#45;&gt;Node14 -->
<g id="edge41_Node000022_Node000014" class="edge">
<title>Node22&#45;&gt;Node14</title>
<g id="a_edge41_Node000022_Node000014"><a xlink:title=" ">
<path fill="none" stroke="#63b8ff" d="M65.7,-113.59C68.75,-113.01 71.8,-112.47 74.75,-112 225.59,-88.15 268.15,-98.83 422.17,-76.25"/>
<polygon fill="#63b8ff" stroke="#63b8ff" points="422.58,-79.73 431.96,-74.79 421.55,-72.8 422.58,-79.73"/>
</a>
</g>
</g>
<!-- Node22&#45;&gt;Node15 -->
<g id="edge42_Node000022_Node000015" class="edge">
<title>Node22&#45;&gt;Node15</title>
<g id="a_edge42_Node000022_Node000015"><a xlink:title=" ">
<path fill="none" stroke="#63b8ff" d="M65.73,-113.74C68.77,-113.12 71.82,-112.54 74.75,-112 158.61,-96.68 256.47,-82.57 316.26,-74.38"/>
<polygon fill="#63b8ff" stroke="#63b8ff" points="316.39,-77.9 325.83,-73.08 315.45,-70.96 316.39,-77.9"/>
</a>
</g>
</g>
<!-- Node27&#45;&gt;Node10 -->
<g id="edge52_Node000027_Node000010" class="edge">
<title>Node27&#45;&gt;Node10</title>
<g id="a_edge52_Node000027_Node000010"><a xlink:title=" ">
<path fill="none" stroke="#63b8ff" d="M1359.55,-111.59C1345.5,-103.44 1324.92,-91.48 1308.59,-82"/>
<polygon fill="#63b8ff" stroke="#63b8ff" points="1310.79,-79.23 1300.38,-77.24 1307.28,-85.29 1310.79,-79.23"/>
</a>
</g>
</g>
<!-- Node27&#45;&gt;Node12 -->
<g id="edge51_Node000027_Node000012" class="edge">
<title>Node27&#45;&gt;Node12</title>
<g id="a_edge51_Node000027_Node000012"><a xlink:title=" ">
<path fill="none" stroke="#63b8ff" d="M1375.75,-111.59C1375.75,-105.01 1375.75,-95.96 1375.75,-87.73"/>
<polygon fill="#63b8ff" stroke="#63b8ff" points="1379.25,-87.81 1375.75,-77.81 1372.25,-87.81 1379.25,-87.81"/>
</a>
</g>
</g>
<!-- Node28&#45;&gt;Node27 -->
<g id="edge56_Node000028_Node000027" class="edge">
<title>Node28&#45;&gt;Node27</title>
<g id="a_edge56_Node000028_Node000027"><a xlink:title=" ">
<path fill="none" stroke="#63b8ff" d="M1417.87,-167.59C1410.85,-160.16 1400.85,-149.58 1392.36,-140.58"/>
<polygon fill="#63b8ff" stroke="#63b8ff" points="1394.98,-138.27 1385.57,-133.4 1389.89,-143.07 1394.98,-138.27"/>
</a>
</g>
</g>
<!-- Node29 -->
<g id="Node000029" class="node">
<title>Node29</title>
<g id="a_Node000029"><a xlink:href="IRepository_8hpp.html" target="_top" xlink:title=" ">
<polygon fill="white" stroke="#666666" points="1516.88,-132 1432.62,-132 1432.62,-112 1516.88,-112 1516.88,-132"/>
<text text-anchor="middle" x="1474.75" y="-118.5" font-family="Helvetica,sans-Serif" font-size="10.00">IRepository.hpp</text>
</a>
</g>
</g>
<!-- Node28&#45;&gt;Node29 -->
<g id="edge54_Node000028_Node000029" class="edge">
<title>Node28&#45;&gt;Node29</title>
<g id="a_edge54_Node000028_Node000029"><a xlink:title=" ">
<path fill="none" stroke="#63b8ff" d="M1435.11,-167.59C1441.65,-160.24 1450.93,-149.8 1458.87,-140.87"/>
<polygon fill="#63b8ff" stroke="#63b8ff" points="1461.45,-143.23 1465.48,-133.43 1456.22,-138.58 1461.45,-143.23"/>
</a>
</g>
</g>
<!-- Node29&#45;&gt;Node8 -->
<g id="edge55_Node000029_Node000008" class="edge">
<title>Node29&#45;&gt;Node8</title>
<g id="a_edge55_Node000029_Node000008"><a xlink:title=" ">
<path fill="none" stroke="#63b8ff" d="M1474.58,-111.59C1474.45,-105.01 1474.29,-95.96 1474.13,-87.73"/>
<polygon fill="#63b8ff" stroke="#63b8ff" points="1477.63,-87.75 1473.95,-77.81 1470.64,-87.87 1477.63,-87.75"/>
</a>
</g>
</g>
</g>
</svg>
