<?xml version="1.0" encoding="UTF-8" standalone="no"?>
<!DOCTYPE svg PUBLIC "-//W3C//DTD SVG 1.1//EN"
 "http://www.w3.org/Graphics/SVG/1.1/DTD/svg11.dtd">
<!-- Generated by graphviz version 14.1.5 (0)
 -->
<!-- Title: src/bot_library/commands/roll/RollCommand.cpp Pages: 1 -->
<svg width="1410pt" height="488pt"
 viewBox="0.00 0.00 1410.00 488.00" xmlns="http://www.w3.org/2000/svg" xmlns:xlink="http://www.w3.org/1999/xlink">
<g id="graph0" class="graph" transform="scale(1 1) rotate(0) translate(4 484)">
<title>src/bot_library/commands/roll/RollCommand.cpp</title>
<!-- Node1 -->
<g id="Node000001" class="node">
<title>Node1</title>
<g id="a_Node000001"><a xlink:title=" ">
<polygon fill="#999999" stroke="#666666" points="1268.29,-480 1139.79,-480 1139.79,-448 1268.29,-448 1268.29,-480"/>
<text xml:space="preserve" text-anchor="start" x="1147.79" y="-466.5" font-family="Helvetica,sans-Serif" font-size="10.00">src/bot_library/commands</text>
<text xml:space="preserve" text-anchor="middle" x="1204.04" y="-454.5" font-family="Helvetica,sans-Serif" font-size="10.00">/roll/RollCommand.cpp</text>
</a>
</g>
</g>
<!-- Node2 -->
<g id="Node000002" class="node">
<title>Node2</title>
<g id="a_Node000002"><a xlink:href="RollCommand_8hpp.html" target="_top" xlink:title=" ">
<polygon fill="white" stroke="#666666" points="889.54,-412 792.54,-412 792.54,-392 889.54,-392 889.54,-412"/>
<text xml:space="preserve" text-anchor="middle" x="841.04" y="-398.5" font-family="Helvetica,sans-Serif" font-size="10.00">RollCommand.hpp</text>
</a>
</g>
</g>
<!-- Node1&#45;&gt;Node2 -->
<g id="edge1_Node000001_Node000002" class="edge">
<title>Node1&#45;&gt;Node2</title>
<g id="a_edge1_Node000001_Node000002"><a xlink:title=" ">
<path fill="none" stroke="#63b8ff" d="M1139.56,-452.34C1071.96,-441.17 966.61,-423.75 900.82,-412.88"/>
<polygon fill="#63b8ff" stroke="#63b8ff" points="901.75,-409.49 891.31,-411.31 900.61,-416.39 901.75,-409.49"/>
</a>
</g>
</g>
<!-- Node22 -->
<g id="Node000022" class="node">
<title>Node22</title>
<g id="a_Node000022"><a xlink:title=" ">
<polygon fill="#e0e0e0" stroke="#999999" points="106.42,-188 23.67,-188 23.67,-168 106.42,-168 106.42,-188"/>
<text xml:space="preserve" text-anchor="middle" x="65.04" y="-174.5" font-family="Helvetica,sans-Serif" font-size="10.00">appcommand.h</text>
</a>
</g>
</g>
<!-- Node1&#45;&gt;Node22 -->
<g id="edge55_Node000001_Node000022" class="edge">
<title>Node1&#45;&gt;Node22</title>
<g id="a_edge55_Node000001_Node000022"><a xlink:title=" ">
<path fill="none" stroke="#63b8ff" d="M1139.36,-463.61C889.49,-465.13 1.04,-462.4 1.04,-347 1.04,-347 1.04,-347 1.04,-289 1.04,-258.9 4.7,-249.89 20.04,-224 26.31,-213.42 35.64,-203.53 44.18,-195.73"/>
<polygon fill="#63b8ff" stroke="#63b8ff" points="46.21,-198.6 51.49,-189.41 41.63,-193.31 46.21,-198.6"/>
</a>
</g>
</g>
<!-- Node28 -->
<g id="Node000028" class="node">
<title>Node28</title>
<g id="a_Node000028"><a xlink:title=" ">
<polygon fill="#e0e0e0" stroke="#999999" points="1319.79,-412 1272.29,-412 1272.29,-392 1319.79,-392 1319.79,-412"/>
<text xml:space="preserve" text-anchor="middle" x="1296.04" y="-398.5" font-family="Helvetica,sans-Serif" font-size="10.00">invite.h</text>
</a>
</g>
</g>
<!-- Node1&#45;&gt;Node28 -->
<g id="edge56_Node000001_Node000028" class="edge">
<title>Node1&#45;&gt;Node28</title>
<g id="a_edge56_Node000001_Node000028"><a xlink:title=" ">
<path fill="none" stroke="#63b8ff" d="M1227.73,-447.55C1241.44,-438.61 1258.64,-427.39 1272.35,-418.45"/>
<polygon fill="#63b8ff" stroke="#63b8ff" points="1273.88,-421.63 1280.35,-413.23 1270.06,-415.77 1273.88,-421.63"/>
</a>
</g>
</g>
<!-- Node29 -->
<g id="Node000029" class="node">
<title>Node29</title>
<g id="a_Node000029"><a xlink:title=" ">
<polygon fill="#e0e0e0" stroke="#999999" points="1402.04,-412 1338.04,-412 1338.04,-392 1402.04,-392 1402.04,-412"/>
<text xml:space="preserve" text-anchor="middle" x="1370.04" y="-398.5" font-family="Helvetica,sans-Serif" font-size="10.00">message.h</text>
</a>
</g>
</g>
<!-- Node1&#45;&gt;Node29 -->
<g id="edge57_Node000001_Node000029" class="edge">
<title>Node1&#45;&gt;Node29</title>
<g id="a_edge57_Node000001_Node000029"><a xlink:title=" ">
<path fill="none" stroke="#63b8ff" d="M1246.79,-447.55C1273.57,-437.87 1307.72,-425.53 1333.28,-416.29"/>
<polygon fill="#63b8ff" stroke="#63b8ff" points="1334.37,-419.61 1342.59,-412.92 1331.99,-413.03 1334.37,-419.61"/>
</a>
</g>
</g>
<!-- Node30 -->
<g id="Node000030" class="node">
<title>Node30</title>
<g id="a_Node000030"><a xlink:href="UserDTO_8hpp.html" target="_top" xlink:title=" ">
<polygon fill="white" stroke="#666666" points="1302.42,-356 1225.67,-356 1225.67,-336 1302.42,-336 1302.42,-356"/>
<text xml:space="preserve" text-anchor="middle" x="1264.04" y="-342.5" font-family="Helvetica,sans-Serif" font-size="10.00">UserDTO.hpp</text>
</a>
</g>
</g>
<!-- Node1&#45;&gt;Node30 -->
<g id="edge58_Node000001_Node000030" class="edge">
<title>Node1&#45;&gt;Node30</title>
<g id="a_edge58_Node000001_Node000030"><a xlink:title=" ">
<path fill="none" stroke="#63b8ff" d="M1211.89,-447.84C1222.7,-426.94 1242.18,-389.27 1254.03,-366.36"/>
<polygon fill="#63b8ff" stroke="#63b8ff" points="1256.98,-368.27 1258.46,-357.78 1250.76,-365.06 1256.98,-368.27"/>
</a>
</g>
</g>
<!-- Node31 -->
<g id="Node000031" class="node">
<title>Node31</title>
<g id="a_Node000031"><a xlink:href="UserRepository_8hpp.html" target="_top" xlink:title=" ">
<polygon fill="white" stroke="#666666" points="1216.17,-412 1113.92,-412 1113.92,-392 1216.17,-392 1216.17,-412"/>
<text xml:space="preserve" text-anchor="middle" x="1165.04" y="-398.5" font-family="Helvetica,sans-Serif" font-size="10.00">UserRepository.hpp</text>
</a>
</g>
</g>
<!-- Node1&#45;&gt;Node31 -->
<g id="edge61_Node000001_Node000031" class="edge">
<title>Node1&#45;&gt;Node31</title>
<g id="a_edge61_Node000001_Node000031"><a xlink:title=" ">
<path fill="none" stroke="#63b8ff" d="M1194,-447.55C1188.92,-439.74 1182.71,-430.19 1177.35,-421.94"/>
<polygon fill="#63b8ff" stroke="#63b8ff" points="1180.37,-420.15 1171.98,-413.68 1174.5,-423.97 1180.37,-420.15"/>
</a>
</g>
</g>
<!-- Node3 -->
<g id="Node000003" class="node">
<title>Node3</title>
<g id="a_Node000003"><a xlink:href="Bot_8hpp.html" target="_top" xlink:title=" ">
<polygon fill="white" stroke="#666666" points="624.92,-356 575.17,-356 575.17,-336 624.92,-336 624.92,-356"/>
<text xml:space="preserve" text-anchor="middle" x="600.04" y="-342.5" font-family="Helvetica,sans-Serif" font-size="10.00">Bot.hpp</text>
</a>
</g>
</g>
<!-- Node2&#45;&gt;Node3 -->
<g id="edge2_Node000002_Node000003" class="edge">
<title>Node2&#45;&gt;Node3</title>
<g id="a_edge2_Node000002_Node000003"><a xlink:title=" ">
<path fill="none" stroke="#63b8ff" d="M798.79,-391.53C752.79,-381.22 679.98,-364.91 636.43,-355.15"/>
<polygon fill="#63b8ff" stroke="#63b8ff" points="637.23,-351.75 626.71,-352.97 635.7,-358.58 637.23,-351.75"/>
</a>
</g>
</g>
<!-- Node4 -->
<g id="Node000004" class="node">
<title>Node4</title>
<g id="a_Node000004"><a xlink:href="Core_8hpp.html" target="_top" xlink:title=" ">
<polygon fill="white" stroke="#666666" points="772.92,-300 717.17,-300 717.17,-280 772.92,-280 772.92,-300"/>
<text xml:space="preserve" text-anchor="middle" x="745.04" y="-286.5" font-family="Helvetica,sans-Serif" font-size="10.00">Core.hpp</text>
</a>
</g>
</g>
<!-- Node3&#45;&gt;Node4 -->
<g id="edge3_Node000003_Node000004" class="edge">
<title>Node3&#45;&gt;Node4</title>
<g id="a_edge3_Node000003_Node000004"><a xlink:title=" ">
<path fill="none" stroke="#63b8ff" d="M625.3,-335.59C648.44,-326.97 682.97,-314.12 709,-304.42"/>
<polygon fill="#63b8ff" stroke="#63b8ff" points="710.02,-307.78 718.17,-301.01 707.58,-301.22 710.02,-307.78"/>
</a>
</g>
</g>
<!-- Node8 -->
<g id="Node000008" class="node">
<title>Node8</title>
<g id="a_Node000008"><a xlink:title=" ">
<polygon fill="#e0e0e0" stroke="#999999" points="1284.04,-132 1244.04,-132 1244.04,-112 1284.04,-112 1284.04,-132"/>
<text xml:space="preserve" text-anchor="middle" x="1264.04" y="-118.5" font-family="Helvetica,sans-Serif" font-size="10.00">string</text>
</a>
</g>
</g>
<!-- Node3&#45;&gt;Node8 -->
<g id="edge53_Node000003_Node000008" class="edge">
<title>Node3&#45;&gt;Node8</title>
<g id="a_edge53_Node000003_Node000008"><a xlink:title=" ">
<path fill="none" stroke="#63b8ff" d="M625.07,-343.76C729.37,-338.2 1128.85,-312.71 1231.04,-244 1255.2,-227.75 1257.2,-216.04 1265.04,-188 1267.44,-179.44 1265.14,-176.89 1265.04,-168 1264.95,-160.09 1264.78,-151.4 1264.6,-143.78"/>
<polygon fill="#63b8ff" stroke="#63b8ff" points="1268.1,-143.73 1264.35,-133.82 1261.1,-143.91 1268.1,-143.73"/>
</a>
</g>
</g>
<!-- Node10 -->
<g id="Node000010" class="node">
<title>Node10</title>
<g id="a_Node000010"><a xlink:title=" ">
<polygon fill="#e0e0e0" stroke="#999999" points="467.54,-132 424.54,-132 424.54,-112 467.54,-112 467.54,-132"/>
<text xml:space="preserve" text-anchor="middle" x="446.04" y="-118.5" font-family="Helvetica,sans-Serif" font-size="10.00">vector</text>
</a>
</g>
</g>
<!-- Node3&#45;&gt;Node10 -->
<g id="edge54_Node000003_Node000010" class="edge">
<title>Node3&#45;&gt;Node10</title>
<g id="a_edge54_Node000003_Node000010"><a xlink:title=" ">
<path fill="none" stroke="#63b8ff" d="M574.67,-344.6C472.73,-342.42 94.81,-328.65 20.04,-244 -2.37,-218.63 -7.62,-193.15 15.04,-168 41.57,-138.55 316.49,-127.09 412.87,-123.96"/>
<polygon fill="#63b8ff" stroke="#63b8ff" points="412.83,-127.46 422.71,-123.65 412.61,-120.47 412.83,-127.46"/>
</a>
</g>
</g>
<!-- Node17 -->
<g id="Node000017" class="node">
<title>Node17</title>
<g id="a_Node000017"><a xlink:href="IButtonCommand_8hpp.html" target="_top" xlink:title=" ">
<polygon fill="white" stroke="#666666" points="517.67,-244 406.42,-244 406.42,-224 517.67,-224 517.67,-244"/>
<text xml:space="preserve" text-anchor="middle" x="462.04" y="-230.5" font-family="Helvetica,sans-Serif" font-size="10.00">IButtonCommand.hpp</text>
</a>
</g>
</g>
<!-- Node3&#45;&gt;Node17 -->
<g id="edge43_Node000003_Node000017" class="edge">
<title>Node3&#45;&gt;Node17</title>
<g id="a_edge43_Node000003_Node000017"><a xlink:title=" ">
<path fill="none" stroke="#63b8ff" d="M588.28,-335.62C564.85,-316.95 512.12,-274.92 482.76,-251.52"/>
<polygon fill="#63b8ff" stroke="#63b8ff" points="484.96,-248.79 474.96,-245.3 480.6,-254.27 484.96,-248.79"/>
</a>
</g>
</g>
<!-- Node20 -->
<g id="Node000020" class="node">
<title>Node20</title>
<g id="a_Node000020"><a xlink:href="IFormCommand_8hpp.html" target="_top" xlink:title=" ">
<polygon fill="white" stroke="#666666" points="781.67,-244 676.42,-244 676.42,-224 781.67,-224 781.67,-244"/>
<text xml:space="preserve" text-anchor="middle" x="729.04" y="-230.5" font-family="Helvetica,sans-Serif" font-size="10.00">IFormCommand.hpp</text>
</a>
</g>
</g>
<!-- Node3&#45;&gt;Node20 -->
<g id="edge44_Node000003_Node000020" class="edge">
<title>Node3&#45;&gt;Node20</title>
<g id="a_edge44_Node000003_Node000020"><a xlink:title=" ">
<path fill="none" stroke="#63b8ff" d="M603.37,-335.91C608.78,-322.23 620.64,-296.23 638.04,-280 652.66,-266.36 672.2,-255.97 689.42,-248.63"/>
<polygon fill="#63b8ff" stroke="#63b8ff" points="690.41,-252.01 698.38,-245.02 687.79,-245.52 690.41,-252.01"/>
</a>
</g>
</g>
<!-- Node21 -->
<g id="Node000021" class="node">
<title>Node21</title>
<g id="a_Node000021"><a xlink:href="IGlobalSlashCommand_8hpp.html" target="_top" xlink:title=" ">
<polygon fill="white" stroke="#666666" points="164.67,-244 29.42,-244 29.42,-224 164.67,-224 164.67,-244"/>
<text xml:space="preserve" text-anchor="middle" x="97.04" y="-230.5" font-family="Helvetica,sans-Serif" font-size="10.00">IGlobalSlashCommand.hpp</text>
</a>
</g>
</g>
<!-- Node3&#45;&gt;Node21 -->
<g id="edge45_Node000003_Node000021" class="edge">
<title>Node3&#45;&gt;Node21</title>
<g id="a_edge45_Node000003_Node000021"><a xlink:title=" ">
<path fill="none" stroke="#63b8ff" d="M574.81,-340.62C531.54,-333.01 440.47,-316.58 364.04,-300 286.72,-283.23 197.54,-260.91 144.3,-247.27"/>
<polygon fill="#63b8ff" stroke="#63b8ff" points="145.21,-243.89 134.65,-244.79 143.46,-250.67 145.21,-243.89"/>
</a>
</g>
</g>
<!-- Node23 -->
<g id="Node000023" class="node">
<title>Node23</title>
<g id="a_Node000023"><a xlink:href="IMemberCommand_8hpp.html" target="_top" xlink:title=" ">
<polygon fill="white" stroke="#666666" points="1104.04,-244 986.04,-244 986.04,-224 1104.04,-224 1104.04,-244"/>
<text xml:space="preserve" text-anchor="middle" x="1045.04" y="-230.5" font-family="Helvetica,sans-Serif" font-size="10.00">IMemberCommand.hpp</text>
</a>
</g>
</g>
<!-- Node3&#45;&gt;Node23 -->
<g id="edge46_Node000003_Node000023" class="edge">
<title>Node3&#45;&gt;Node23</title>
<g id="a_edge46_Node000003_Node000023"><a xlink:title=" ">
<path fill="none" stroke="#63b8ff" d="M625.24,-338.77C696.62,-321.13 901.11,-270.58 995.81,-247.17"/>
<polygon fill="#63b8ff" stroke="#63b8ff" points="996.46,-250.61 1005.33,-244.82 994.78,-243.82 996.46,-250.61"/>
</a>
</g>
</g>
<!-- Node24 -->
<g id="Node000024" class="node">
<title>Node24</title>
<g id="a_Node000024"><a xlink:href="IMessageCommand_8hpp.html" target="_top" xlink:title=" ">
<polygon fill="white" stroke="#666666" points="658.29,-244 535.79,-244 535.79,-224 658.29,-224 658.29,-244"/>
<text xml:space="preserve" text-anchor="middle" x="597.04" y="-230.5" font-family="Helvetica,sans-Serif" font-size="10.00">IMessageCommand.hpp</text>
</a>
</g>
</g>
<!-- Node3&#45;&gt;Node24 -->
<g id="edge47_Node000003_Node000024" class="edge">
<title>Node3&#45;&gt;Node24</title>
<g id="a_edge47_Node000003_Node000024"><a xlink:title=" ">
<path fill="none" stroke="#63b8ff" d="M599.79,-335.62C599.3,-318.01 598.26,-279.59 597.6,-255.65"/>
<polygon fill="#63b8ff" stroke="#63b8ff" points="601.11,-255.77 597.34,-245.87 594.11,-255.96 601.11,-255.77"/>
</a>
</g>
</g>
<!-- Node25 -->
<g id="Node000025" class="node">
<title>Node25</title>
<g id="a_Node000025"><a xlink:href="IReactionCommand_8hpp.html" target="_top" xlink:title=" ">
<polygon fill="white" stroke="#666666" points="387.92,-244 266.17,-244 266.17,-224 387.92,-224 387.92,-244"/>
<text xml:space="preserve" text-anchor="middle" x="327.04" y="-230.5" font-family="Helvetica,sans-Serif" font-size="10.00">IReactionCommand.hpp</text>
</a>
</g>
</g>
<!-- Node3&#45;&gt;Node25 -->
<g id="edge48_Node000003_Node000025" class="edge">
<title>Node3&#45;&gt;Node25</title>
<g id="a_edge48_Node000003_Node000025"><a xlink:title=" ">
<path fill="none" stroke="#63b8ff" d="M576.77,-335.62C528.41,-316.14 416.93,-271.22 360.73,-248.57"/>
<polygon fill="#63b8ff" stroke="#63b8ff" points="362.25,-245.41 351.66,-244.92 359.63,-251.9 362.25,-245.41"/>
</a>
</g>
</g>
<!-- Node26 -->
<g id="Node000026" class="node">
<title>Node26</title>
<g id="a_Node000026"><a xlink:href="IReady_8hpp.html" target="_top" xlink:title=" ">
<polygon fill="white" stroke="#666666" points="247.79,-244 182.29,-244 182.29,-224 247.79,-224 247.79,-244"/>
<text xml:space="preserve" text-anchor="middle" x="215.04" y="-230.5" font-family="Helvetica,sans-Serif" font-size="10.00">IReady.hpp</text>
</a>
</g>
</g>
<!-- Node3&#45;&gt;Node26 -->
<g id="edge49_Node000003_Node000026" class="edge">
<title>Node3&#45;&gt;Node26</title>
<g id="a_edge49_Node000003_Node000026"><a xlink:title=" ">
<path fill="none" stroke="#63b8ff" d="M574.84,-338.3C542.43,-329.65 484.45,-314.04 435.04,-300 373.01,-282.38 301.45,-261.05 257.22,-247.75"/>
<polygon fill="#63b8ff" stroke="#63b8ff" points="258.35,-244.43 247.76,-244.9 256.33,-251.14 258.35,-244.43"/>
</a>
</g>
</g>
<!-- Node27 -->
<g id="Node000027" class="node">
<title>Node27</title>
<g id="a_Node000027"><a xlink:title=" ">
<polygon fill="#e0e0e0" stroke="#999999" points="698.67,-300 647.42,-300 647.42,-280 698.67,-280 698.67,-300"/>
<text xml:space="preserve" text-anchor="middle" x="673.04" y="-286.5" font-family="Helvetica,sans-Serif" font-size="10.00">memory</text>
</a>
</g>
</g>
<!-- Node3&#45;&gt;Node27 -->
<g id="edge52_Node000003_Node000027" class="edge">
<title>Node3&#45;&gt;Node27</title>
<g id="a_edge52_Node000003_Node000027"><a xlink:title=" ">
<path fill="none" stroke="#63b8ff" d="M612.76,-335.59C623.43,-327.7 638.92,-316.24 651.52,-306.92"/>
<polygon fill="#63b8ff" stroke="#63b8ff" points="653.3,-309.96 659.25,-301.2 649.13,-304.33 653.3,-309.96"/>
</a>
</g>
</g>
<!-- Node5 -->
<g id="Node000005" class="node">
<title>Node5</title>
<g id="a_Node000005"><a xlink:title=" ">
<polygon fill="#e0e0e0" stroke="#999999" points="858.42,-244 799.67,-244 799.67,-224 858.42,-224 858.42,-244"/>
<text xml:space="preserve" text-anchor="middle" x="829.04" y="-230.5" font-family="Helvetica,sans-Serif" font-size="10.00">dpp/dpp.h</text>
</a>
</g>
</g>
<!-- Node4&#45;&gt;Node5 -->
<g id="edge4_Node000004_Node000005" class="edge">
<title>Node4&#45;&gt;Node5</title>
<g id="a_edge4_Node000004_Node000005"><a xlink:title=" ">
<path fill="none" stroke="#63b8ff" d="M759.67,-279.59C772.12,-271.59 790.26,-259.93 804.86,-250.54"/>
<polygon fill="#63b8ff" stroke="#63b8ff" points="806.5,-253.65 813.02,-245.3 802.72,-247.76 806.5,-253.65"/>
</a>
</g>
</g>
<!-- Node6 -->
<g id="Node000006" class="node">
<title>Node6</title>
<g id="a_Node000006"><a xlink:title=" ">
<polygon fill="#e0e0e0" stroke="#999999" points="967.54,-244 876.54,-244 876.54,-224 967.54,-224 967.54,-244"/>
<text xml:space="preserve" text-anchor="middle" x="922.04" y="-230.5" font-family="Helvetica,sans-Serif" font-size="10.00">dpp/misc&#45;enum.h</text>
</a>
</g>
</g>
<!-- Node4&#45;&gt;Node6 -->
<g id="edge5_Node000004_Node000006" class="edge">
<title>Node4&#45;&gt;Node6</title>
<g id="a_edge5_Node000004_Node000006"><a xlink:title=" ">
<path fill="none" stroke="#63b8ff" d="M773.09,-280.44C801.99,-271.63 847.37,-257.78 880.45,-247.69"/>
<polygon fill="#63b8ff" stroke="#63b8ff" points="881.16,-251.13 889.7,-244.87 879.12,-244.44 881.16,-251.13"/>
</a>
</g>
</g>
<!-- Node7 -->
<g id="Node000007" class="node">
<title>Node7</title>
<g id="a_Node000007"><a xlink:href="Database_8hpp.html" target="_top" xlink:title=" ">
<polygon fill="white" stroke="#666666" points="1198.42,-244 1121.67,-244 1121.67,-224 1198.42,-224 1198.42,-244"/>
<text xml:space="preserve" text-anchor="middle" x="1160.04" y="-230.5" font-family="Helvetica,sans-Serif" font-size="10.00">Database.hpp</text>
</a>
</g>
</g>
<!-- Node4&#45;&gt;Node7 -->
<g id="edge6_Node000004_Node000007" class="edge">
<title>Node4&#45;&gt;Node7</title>
<g id="a_edge6_Node000004_Node000007"><a xlink:title=" ">
<path fill="none" stroke="#63b8ff" d="M773.29,-286.2C833.4,-280.11 978.59,-264.66 1110.28,-244.35"/>
<polygon fill="#63b8ff" stroke="#63b8ff" points="1110.51,-247.85 1119.85,-242.86 1109.43,-240.94 1110.51,-247.85"/>
</a>
</g>
</g>
<!-- Node4&#45;&gt;Node8 -->
<g id="edge42_Node000004_Node000008" class="edge">
<title>Node4&#45;&gt;Node8</title>
<g id="a_edge42_Node000004_Node000008"><a xlink:title=" ">
<path fill="none" stroke="#63b8ff" d="M773.41,-287.86C868.43,-283.8 1171.55,-269.01 1207.04,-244 1240.79,-220.22 1255.15,-171.12 1260.78,-143.33"/>
<polygon fill="#63b8ff" stroke="#63b8ff" points="1264.18,-144.18 1262.52,-133.72 1257.29,-142.93 1264.18,-144.18"/>
</a>
</g>
</g>
<!-- Node4&#45;&gt;Node17 -->
<g id="edge22_Node000004_Node000017" class="edge">
<title>Node4&#45;&gt;Node17</title>
<g id="a_edge22_Node000004_Node000017"><a xlink:title=" ">
<path fill="none" stroke="#63b8ff" d="M716.8,-281.95C713.85,-281.27 710.89,-280.61 708.04,-280 647.76,-267.17 578.7,-254.73 529.13,-246.2"/>
<polygon fill="#63b8ff" stroke="#63b8ff" points="529.85,-242.77 519.4,-244.53 528.67,-249.67 529.85,-242.77"/>
</a>
</g>
</g>
<!-- Node4&#45;&gt;Node20 -->
<g id="edge25_Node000004_Node000020" class="edge">
<title>Node4&#45;&gt;Node20</title>
<g id="a_edge25_Node000004_Node000020"><a xlink:title=" ">
<path fill="none" stroke="#63b8ff" d="M742.25,-279.59C740.26,-272.86 737.5,-263.53 735.01,-255.15"/>
<polygon fill="#63b8ff" stroke="#63b8ff" points="738.42,-254.34 732.23,-245.75 731.71,-256.33 738.42,-254.34"/>
</a>
</g>
</g>
<!-- Node4&#45;&gt;Node21 -->
<g id="edge28_Node000004_Node000021" class="edge">
<title>Node4&#45;&gt;Node21</title>
<g id="a_edge28_Node000004_Node000021"><a xlink:title=" ">
<path fill="none" stroke="#63b8ff" d="M716.86,-281.62C713.9,-281 710.92,-280.44 708.04,-280 476.19,-244.27 412.32,-265.34 176.34,-244.25"/>
<polygon fill="#63b8ff" stroke="#63b8ff" points="176.76,-240.78 166.48,-243.36 176.12,-247.75 176.76,-240.78"/>
</a>
</g>
</g>
<!-- Node4&#45;&gt;Node23 -->
<g id="edge33_Node000004_Node000023" class="edge">
<title>Node4&#45;&gt;Node23</title>
<g id="a_edge33_Node000004_Node000023"><a xlink:title=" ">
<path fill="none" stroke="#63b8ff" d="M773.26,-283.92C820.53,-275.41 916.83,-258.08 981.16,-246.5"/>
<polygon fill="#63b8ff" stroke="#63b8ff" points="981.68,-249.96 990.9,-244.75 980.44,-243.07 981.68,-249.96"/>
</a>
</g>
</g>
<!-- Node4&#45;&gt;Node24 -->
<g id="edge36_Node000004_Node000024" class="edge">
<title>Node4&#45;&gt;Node24</title>
<g id="a_edge36_Node000004_Node000024"><a xlink:title=" ">
<path fill="none" stroke="#63b8ff" d="M719.26,-279.59C695.64,-270.97 660.4,-258.12 633.82,-248.42"/>
<polygon fill="#63b8ff" stroke="#63b8ff" points="635.04,-245.14 624.44,-245 632.64,-251.71 635.04,-245.14"/>
</a>
</g>
</g>
<!-- Node4&#45;&gt;Node25 -->
<g id="edge39_Node000004_Node000025" class="edge">
<title>Node4&#45;&gt;Node25</title>
<g id="a_edge39_Node000004_Node000025"><a xlink:title=" ">
<path fill="none" stroke="#63b8ff" d="M716.84,-281.76C713.88,-281.11 710.9,-280.51 708.04,-280 574.68,-256.16 537.12,-260.61 399.52,-244.27"/>
<polygon fill="#63b8ff" stroke="#63b8ff" points="399.97,-240.8 389.62,-243.08 399.13,-247.75 399.97,-240.8"/>
</a>
</g>
</g>
<!-- Node7&#45;&gt;Node8 -->
<g id="edge7_Node000007_Node000008" class="edge">
<title>Node7&#45;&gt;Node8</title>
<g id="a_edge7_Node000007_Node000008"><a xlink:title=" ">
<path fill="none" stroke="#63b8ff" d="M1168.91,-223.62C1186.33,-205.19 1225.27,-164.01 1247.55,-140.44"/>
<polygon fill="#63b8ff" stroke="#63b8ff" points="1249.83,-143.13 1254.16,-133.45 1244.74,-138.32 1249.83,-143.13"/>
</a>
</g>
</g>
<!-- Node9 -->
<g id="Node000009" class="node">
<title>Node9</title>
<g id="a_Node000009"><a xlink:title=" ">
<polygon fill="#e0e0e0" stroke="#999999" points="995.67,-132 956.42,-132 956.42,-112 995.67,-112 995.67,-132"/>
<text xml:space="preserve" text-anchor="middle" x="976.04" y="-118.5" font-family="Helvetica,sans-Serif" font-size="10.00">utility</text>
</a>
</g>
</g>
<!-- Node7&#45;&gt;Node9 -->
<g id="edge8_Node000007_Node000009" class="edge">
<title>Node7&#45;&gt;Node9</title>
<g id="a_edge8_Node000007_Node000009"><a xlink:title=" ">
<path fill="none" stroke="#63b8ff" d="M1144.35,-223.62C1112.44,-204.54 1039.74,-161.08 1001.16,-138.02"/>
<polygon fill="#63b8ff" stroke="#63b8ff" points="1003.37,-135.26 992.99,-133.13 999.78,-141.27 1003.37,-135.26"/>
</a>
</g>
</g>
<!-- Node7&#45;&gt;Node10 -->
<g id="edge9_Node000007_Node000010" class="edge">
<title>Node7&#45;&gt;Node10</title>
<g id="a_edge9_Node000007_Node000010"><a xlink:title=" ">
<path fill="none" stroke="#63b8ff" d="M1121.33,-225.46C1118.53,-224.96 1115.74,-224.46 1113.04,-224 870.36,-182.41 576.44,-141.01 479.11,-127.54"/>
<polygon fill="#63b8ff" stroke="#63b8ff" points="479.85,-124.11 469.47,-126.21 478.9,-131.05 479.85,-124.11"/>
</a>
</g>
</g>
<!-- Node11 -->
<g id="Node000011" class="node">
<title>Node11</title>
<g id="a_Node000011"><a xlink:href="DatabaseBackend_8hpp.html" target="_top" xlink:title=" ">
<polygon fill="white" stroke="#666666" points="1126.54,-76 1011.54,-76 1011.54,-56 1126.54,-56 1126.54,-76"/>
<text xml:space="preserve" text-anchor="middle" x="1069.04" y="-62.5" font-family="Helvetica,sans-Serif" font-size="10.00">DatabaseBackend.hpp</text>
</a>
</g>
</g>
<!-- Node7&#45;&gt;Node11 -->
<g id="edge10_Node000007_Node000011" class="edge">
<title>Node7&#45;&gt;Node11</title>
<g id="a_edge10_Node000007_Node000011"><a xlink:title=" ">
<path fill="none" stroke="#63b8ff" d="M1160.16,-223.63C1160.01,-202.05 1157.07,-147.98 1133.04,-112 1124.73,-99.56 1111.72,-89.49 1099.6,-82.06"/>
<polygon fill="#63b8ff" stroke="#63b8ff" points="1101.48,-79.1 1091.06,-77.19 1098.01,-85.18 1101.48,-79.1"/>
</a>
</g>
</g>
<!-- Node13 -->
<g id="Node000013" class="node">
<title>Node13</title>
<g id="a_Node000013"><a xlink:href="DatabaseExecutor_8hpp.html" target="_top" xlink:title=" ">
<polygon fill="white" stroke="#666666" points="1033.92,-188 918.17,-188 918.17,-168 1033.92,-168 1033.92,-188"/>
<text xml:space="preserve" text-anchor="middle" x="976.04" y="-174.5" font-family="Helvetica,sans-Serif" font-size="10.00">DatabaseExecutor.hpp</text>
</a>
</g>
</g>
<!-- Node7&#45;&gt;Node13 -->
<g id="edge12_Node000007_Node000013" class="edge">
<title>Node7&#45;&gt;Node13</title>
<g id="a_edge12_Node000007_Node000013"><a xlink:title=" ">
<path fill="none" stroke="#63b8ff" d="M1127.99,-223.59C1097.83,-214.74 1052.45,-201.43 1019.14,-191.65"/>
<polygon fill="#63b8ff" stroke="#63b8ff" points="1020.37,-188.36 1009.79,-188.91 1018.4,-195.08 1020.37,-188.36"/>
</a>
</g>
</g>
<!-- Node16 -->
<g id="Node000016" class="node">
<title>Node16</title>
<g id="a_Node000016"><a xlink:href="RowDTOAdapter_8hpp.html" target="_top" xlink:title=" ">
<polygon fill="white" stroke="#666666" points="1123.92,-132 1014.17,-132 1014.17,-112 1123.92,-112 1123.92,-132"/>
<text xml:space="preserve" text-anchor="middle" x="1069.04" y="-118.5" font-family="Helvetica,sans-Serif" font-size="10.00">RowDTOAdapter.hpp</text>
</a>
</g>
</g>
<!-- Node7&#45;&gt;Node16 -->
<g id="edge21_Node000007_Node000016" class="edge">
<title>Node7&#45;&gt;Node16</title>
<g id="a_edge21_Node000007_Node000016"><a xlink:title=" ">
<path fill="none" stroke="#63b8ff" d="M1152.28,-223.62C1137.17,-205.36 1103.57,-164.73 1083.99,-141.07"/>
<polygon fill="#63b8ff" stroke="#63b8ff" points="1086.82,-139 1077.74,-133.52 1081.42,-143.46 1086.82,-139"/>
</a>
</g>
</g>
<!-- Node12 -->
<g id="Node000012" class="node">
<title>Node12</title>
<g id="a_Node000012"><a xlink:title=" ">
<polygon fill="#e0e0e0" stroke="#999999" points="1099.54,-20 1038.54,-20 1038.54,0 1099.54,0 1099.54,-20"/>
<text xml:space="preserve" text-anchor="middle" x="1069.04" y="-6.5" font-family="Helvetica,sans-Serif" font-size="10.00">pqxx/pqxx</text>
</a>
</g>
</g>
<!-- Node11&#45;&gt;Node12 -->
<g id="edge11_Node000011_Node000012" class="edge">
<title>Node11&#45;&gt;Node12</title>
<g id="a_edge11_Node000011_Node000012"><a xlink:title=" ">
<path fill="none" stroke="#63b8ff" d="M1069.04,-55.59C1069.04,-49.01 1069.04,-39.96 1069.04,-31.73"/>
<polygon fill="#63b8ff" stroke="#63b8ff" points="1072.54,-31.81 1069.04,-21.81 1065.54,-31.81 1072.54,-31.81"/>
</a>
</g>
</g>
<!-- Node13&#45;&gt;Node8 -->
<g id="edge14_Node000013_Node000008" class="edge">
<title>Node13&#45;&gt;Node8</title>
<g id="a_edge14_Node000013_Node000008"><a xlink:title=" ">
<path fill="none" stroke="#63b8ff" d="M1026.54,-167.53C1086,-156.38 1182.94,-138.21 1232.58,-128.9"/>
<polygon fill="#63b8ff" stroke="#63b8ff" points="1233.18,-132.35 1242.36,-127.07 1231.89,-125.47 1233.18,-132.35"/>
</a>
</g>
</g>
<!-- Node13&#45;&gt;Node9 -->
<g id="edge15_Node000013_Node000009" class="edge">
<title>Node13&#45;&gt;Node9</title>
<g id="a_edge15_Node000013_Node000009"><a xlink:title=" ">
<path fill="none" stroke="#63b8ff" d="M976.04,-167.59C976.04,-161.01 976.04,-151.96 976.04,-143.73"/>
<polygon fill="#63b8ff" stroke="#63b8ff" points="979.54,-143.81 976.04,-133.81 972.54,-143.81 979.54,-143.81"/>
</a>
</g>
</g>
<!-- Node13&#45;&gt;Node10 -->
<g id="edge16_Node000013_Node000010" class="edge">
<title>Node13&#45;&gt;Node10</title>
<g id="a_edge16_Node000013_Node000010"><a xlink:title=" ">
<path fill="none" stroke="#63b8ff" d="M917.81,-171.07C806.6,-159.74 567.26,-135.35 479.33,-126.39"/>
<polygon fill="#63b8ff" stroke="#63b8ff" points="479.76,-122.92 469.46,-125.39 479.05,-129.88 479.76,-122.92"/>
</a>
</g>
</g>
<!-- Node14 -->
<g id="Node000014" class="node">
<title>Node14</title>
<g id="a_Node000014"><a xlink:title=" ">
<polygon fill="#e0e0e0" stroke="#999999" points="755.79,-132 702.29,-132 702.29,-112 755.79,-112 755.79,-132"/>
<text xml:space="preserve" text-anchor="middle" x="729.04" y="-118.5" font-family="Helvetica,sans-Serif" font-size="10.00">iostream</text>
</a>
</g>
</g>
<!-- Node13&#45;&gt;Node14 -->
<g id="edge13_Node000013_Node000014" class="edge">
<title>Node13&#45;&gt;Node14</title>
<g id="a_edge13_Node000013_Node000014"><a xlink:title=" ">
<path fill="none" stroke="#63b8ff" d="M928.76,-167.56C888.15,-159.32 827.77,-146.76 767.08,-132.65"/>
<polygon fill="#63b8ff" stroke="#63b8ff" points="768.15,-129.31 757.62,-130.44 766.56,-136.12 768.15,-129.31"/>
</a>
</g>
</g>
<!-- Node15 -->
<g id="Node000015" class="node">
<title>Node15</title>
<g id="a_Node000015"><a xlink:href="IDatabaseConnectionProvider_8hpp.html" target="_top" xlink:title=" ">
<polygon fill="white" stroke="#666666" points="938.67,-132 773.42,-132 773.42,-112 938.67,-112 938.67,-132"/>
<text xml:space="preserve" text-anchor="middle" x="856.04" y="-118.5" font-family="Helvetica,sans-Serif" font-size="10.00">IDatabaseConnectionProvider.hpp</text>
</a>
</g>
</g>
<!-- Node13&#45;&gt;Node15 -->
<g id="edge17_Node000013_Node000015" class="edge">
<title>Node13&#45;&gt;Node15</title>
<g id="a_edge17_Node000013_Node000015"><a xlink:title=" ">
<path fill="none" stroke="#63b8ff" d="M955.14,-167.59C936.41,-159.17 908.68,-146.69 887.32,-137.07"/>
<polygon fill="#63b8ff" stroke="#63b8ff" points="889.04,-134.01 878.49,-133.1 886.17,-140.4 889.04,-134.01"/>
</a>
</g>
</g>
<!-- Node13&#45;&gt;Node16 -->
<g id="edge19_Node000013_Node000016" class="edge">
<title>Node13&#45;&gt;Node16</title>
<g id="a_edge19_Node000013_Node000016"><a xlink:title=" ">
<path fill="none" stroke="#63b8ff" d="M992.24,-167.59C1006.29,-159.44 1026.88,-147.48 1043.2,-138"/>
<polygon fill="#63b8ff" stroke="#63b8ff" points="1044.52,-141.29 1051.41,-133.24 1041,-135.23 1044.52,-141.29"/>
</a>
</g>
</g>
<!-- Node15&#45;&gt;Node11 -->
<g id="edge18_Node000015_Node000011" class="edge">
<title>Node15&#45;&gt;Node11</title>
<g id="a_edge18_Node000015_Node000011"><a xlink:title=" ">
<path fill="none" stroke="#63b8ff" d="M893.14,-111.59C928.51,-102.63 981.96,-89.08 1020.65,-79.27"/>
<polygon fill="#63b8ff" stroke="#63b8ff" points="1021.35,-82.7 1030.18,-76.85 1019.63,-75.92 1021.35,-82.7"/>
</a>
</g>
</g>
<!-- Node16&#45;&gt;Node11 -->
<g id="edge20_Node000016_Node000011" class="edge">
<title>Node16&#45;&gt;Node11</title>
<g id="a_edge20_Node000016_Node000011"><a xlink:title=" ">
<path fill="none" stroke="#63b8ff" d="M1069.04,-111.59C1069.04,-105.01 1069.04,-95.96 1069.04,-87.73"/>
<polygon fill="#63b8ff" stroke="#63b8ff" points="1072.54,-87.81 1069.04,-77.81 1065.54,-87.81 1072.54,-87.81"/>
</a>
</g>
</g>
<!-- Node18 -->
<g id="Node000018" class="node">
<title>Node18</title>
<g id="a_Node000018"><a xlink:title=" ">
<polygon fill="#e0e0e0" stroke="#999999" points="547.17,-188 474.92,-188 474.92,-168 547.17,-168 547.17,-188"/>
<text xml:space="preserve" text-anchor="middle" x="511.04" y="-174.5" font-family="Helvetica,sans-Serif" font-size="10.00">dpp/cluster.h</text>
</a>
</g>
</g>
<!-- Node17&#45;&gt;Node18 -->
<g id="edge23_Node000017_Node000018" class="edge">
<title>Node17&#45;&gt;Node18</title>
<g id="a_edge23_Node000017_Node000018"><a xlink:title=" ">
<path fill="none" stroke="#63b8ff" d="M470.58,-223.59C477.32,-216.16 486.93,-205.58 495.09,-196.58"/>
<polygon fill="#63b8ff" stroke="#63b8ff" points="497.46,-199.18 501.59,-189.42 492.27,-194.47 497.46,-199.18"/>
</a>
</g>
</g>
<!-- Node19 -->
<g id="Node000019" class="node">
<title>Node19</title>
<g id="a_Node000019"><a xlink:title=" ">
<polygon fill="#e0e0e0" stroke="#999999" points="457.04,-188 369.04,-188 369.04,-168 457.04,-168 457.04,-188"/>
<text xml:space="preserve" text-anchor="middle" x="413.04" y="-174.5" font-family="Helvetica,sans-Serif" font-size="10.00">dpp/dispatcher.h</text>
</a>
</g>
</g>
<!-- Node17&#45;&gt;Node19 -->
<g id="edge24_Node000017_Node000019" class="edge">
<title>Node17&#45;&gt;Node19</title>
<g id="a_edge24_Node000017_Node000019"><a xlink:title=" ">
<path fill="none" stroke="#63b8ff" d="M453.51,-223.59C446.76,-216.16 437.16,-205.58 429,-196.58"/>
<polygon fill="#63b8ff" stroke="#63b8ff" points="431.81,-194.47 422.5,-189.42 426.62,-199.18 431.81,-194.47"/>
</a>
</g>
</g>
<!-- Node20&#45;&gt;Node18 -->
<g id="edge26_Node000020_Node000018" class="edge">
<title>Node20&#45;&gt;Node18</title>
<g id="a_edge26_Node000020_Node000018"><a xlink:title=" ">
<path fill="none" stroke="#63b8ff" d="M690.82,-223.53C653.95,-214.4 598.05,-200.55 558.39,-190.73"/>
<polygon fill="#63b8ff" stroke="#63b8ff" points="559.42,-187.38 548.87,-188.37 557.74,-194.17 559.42,-187.38"/>
</a>
</g>
</g>
<!-- Node20&#45;&gt;Node19 -->
<g id="edge27_Node000020_Node000019" class="edge">
<title>Node20&#45;&gt;Node19</title>
<g id="a_edge27_Node000020_Node000019"><a xlink:title=" ">
<path fill="none" stroke="#63b8ff" d="M676.15,-223.96C618.66,-214.14 527.2,-198.51 468.67,-188.51"/>
<polygon fill="#63b8ff" stroke="#63b8ff" points="469.36,-185.07 458.91,-186.84 468.18,-191.97 469.36,-185.07"/>
</a>
</g>
</g>
<!-- Node21&#45;&gt;Node10 -->
<g id="edge32_Node000021_Node000010" class="edge">
<title>Node21&#45;&gt;Node10</title>
<g id="a_edge32_Node000021_Node000010"><a xlink:title=" ">
<path fill="none" stroke="#63b8ff" d="M127.1,-223.53C192.28,-202.98 346.15,-154.48 413.51,-133.25"/>
<polygon fill="#63b8ff" stroke="#63b8ff" points="414.37,-136.65 422.85,-130.31 412.26,-129.98 414.37,-136.65"/>
</a>
</g>
</g>
<!-- Node21&#45;&gt;Node18 -->
<g id="edge30_Node000021_Node000018" class="edge">
<title>Node21&#45;&gt;Node18</title>
<g id="a_edge30_Node000021_Node000018"><a xlink:title=" ">
<path fill="none" stroke="#63b8ff" d="M165.13,-224.83C257.66,-213.71 416.29,-194.59 463.54,-188.13"/>
<polygon fill="#63b8ff" stroke="#63b8ff" points="463.84,-191.62 473.24,-186.72 462.84,-184.7 463.84,-191.62"/>
</a>
</g>
</g>
<!-- Node21&#45;&gt;Node19 -->
<g id="edge31_Node000021_Node000019" class="edge">
<title>Node21&#45;&gt;Node19</title>
<g id="a_edge31_Node000021_Node000019"><a xlink:title=" ">
<path fill="none" stroke="#63b8ff" d="M152.45,-223.53C210.19,-213.66 300.16,-198.29 357.83,-188.43"/>
<polygon fill="#63b8ff" stroke="#63b8ff" points="358.16,-191.93 367.43,-186.79 356.98,-185.03 358.16,-191.93"/>
</a>
</g>
</g>
<!-- Node21&#45;&gt;Node22 -->
<g id="edge29_Node000021_Node000022" class="edge">
<title>Node21&#45;&gt;Node22</title>
<g id="a_edge29_Node000021_Node000022"><a xlink:title=" ">
<path fill="none" stroke="#63b8ff" d="M91.47,-223.59C87.29,-216.55 81.44,-206.67 76.3,-198"/>
<polygon fill="#63b8ff" stroke="#63b8ff" points="79.43,-196.42 71.32,-189.6 73.41,-199.99 79.43,-196.42"/>
</a>
</g>
</g>
<!-- Node23&#45;&gt;Node18 -->
<g id="edge34_Node000023_Node000018" class="edge">
<title>Node23&#45;&gt;Node18</title>
<g id="a_edge34_Node000023_Node000018"><a xlink:title=" ">
<path fill="none" stroke="#63b8ff" d="M985.59,-225.12C982.36,-224.73 979.16,-224.35 976.04,-224 823.84,-206.71 643.12,-190.44 558.8,-183.09"/>
<polygon fill="#63b8ff" stroke="#63b8ff" points="559.33,-179.63 549.07,-182.25 558.72,-186.6 559.33,-179.63"/>
</a>
</g>
</g>
<!-- Node23&#45;&gt;Node19 -->
<g id="edge35_Node000023_Node000019" class="edge">
<title>Node23&#45;&gt;Node19</title>
<g id="a_edge35_Node000023_Node000019"><a xlink:title=" ">
<path fill="none" stroke="#63b8ff" d="M985.6,-225.02C982.37,-224.66 979.17,-224.31 976.04,-224 753.59,-201.66 693.58,-214.62 468.71,-188.21"/>
<polygon fill="#63b8ff" stroke="#63b8ff" points="469.37,-184.76 459.03,-187.06 468.55,-191.71 469.37,-184.76"/>
</a>
</g>
</g>
<!-- Node24&#45;&gt;Node18 -->
<g id="edge37_Node000024_Node000018" class="edge">
<title>Node24&#45;&gt;Node18</title>
<g id="a_edge37_Node000024_Node000018"><a xlink:title=" ">
<path fill="none" stroke="#63b8ff" d="M582.06,-223.59C569.31,-215.59 550.75,-203.93 535.8,-194.54"/>
<polygon fill="#63b8ff" stroke="#63b8ff" points="537.75,-191.64 527.42,-189.28 534.03,-197.57 537.75,-191.64"/>
</a>
</g>
</g>
<!-- Node24&#45;&gt;Node19 -->
<g id="edge38_Node000024_Node000019" class="edge">
<title>Node24&#45;&gt;Node19</title>
<g id="a_edge38_Node000024_Node000019"><a xlink:title=" ">
<path fill="none" stroke="#63b8ff" d="M564.99,-223.59C534.83,-214.74 489.45,-201.43 456.14,-191.65"/>
<polygon fill="#63b8ff" stroke="#63b8ff" points="457.37,-188.36 446.79,-188.91 455.4,-195.08 457.37,-188.36"/>
</a>
</g>
</g>
<!-- Node25&#45;&gt;Node18 -->
<g id="edge40_Node000025_Node000018" class="edge">
<title>Node25&#45;&gt;Node18</title>
<g id="a_edge40_Node000025_Node000018"><a xlink:title=" ">
<path fill="none" stroke="#63b8ff" d="M359.09,-223.59C389.25,-214.74 434.63,-201.43 467.94,-191.65"/>
<polygon fill="#63b8ff" stroke="#63b8ff" points="468.68,-195.08 477.29,-188.91 466.71,-188.36 468.68,-195.08"/>
</a>
</g>
</g>
<!-- Node25&#45;&gt;Node19 -->
<g id="edge41_Node000025_Node000019" class="edge">
<title>Node25&#45;&gt;Node19</title>
<g id="a_edge41_Node000025_Node000019"><a xlink:title=" ">
<path fill="none" stroke="#63b8ff" d="M342.02,-223.59C354.77,-215.59 373.33,-203.93 388.29,-194.54"/>
<polygon fill="#63b8ff" stroke="#63b8ff" points="390.05,-197.57 396.66,-189.28 386.33,-191.64 390.05,-197.57"/>
</a>
</g>
</g>
<!-- Node26&#45;&gt;Node18 -->
<g id="edge50_Node000026_Node000018" class="edge">
<title>Node26&#45;&gt;Node18</title>
<g id="a_edge50_Node000026_Node000018"><a xlink:title=" ">
<path fill="none" stroke="#63b8ff" d="M248.03,-225.8C251.07,-225.17 254.11,-224.57 257.04,-224 346.06,-206.8 371.46,-205.34 463.46,-188.44"/>
<polygon fill="#63b8ff" stroke="#63b8ff" points="464.02,-191.89 473.22,-186.63 462.75,-185.01 464.02,-191.89"/>
</a>
</g>
</g>
<!-- Node26&#45;&gt;Node19 -->
<g id="edge51_Node000026_Node000019" class="edge">
<title>Node26&#45;&gt;Node19</title>
<g id="a_edge51_Node000026_Node000019"><a xlink:title=" ">
<path fill="none" stroke="#63b8ff" d="M248.18,-223.96C280.91,-215.04 331.2,-201.32 367.63,-191.38"/>
<polygon fill="#63b8ff" stroke="#63b8ff" points="368.27,-194.84 377,-188.83 366.43,-188.08 368.27,-194.84"/>
</a>
</g>
</g>
<!-- Node30&#45;&gt;Node8 -->
<g id="edge60_Node000030_Node000008" class="edge">
<title>Node30&#45;&gt;Node8</title>
<g id="a_edge60_Node000030_Node000008"><a xlink:title=" ">
<path fill="none" stroke="#63b8ff" d="M1270.87,-335.58C1282.85,-318.41 1307.22,-280.42 1316.04,-244 1324,-211.17 1330.08,-198.72 1316.04,-168 1310.66,-156.23 1300.52,-146.36 1290.61,-138.9"/>
<polygon fill="#63b8ff" stroke="#63b8ff" points="1292.8,-136.16 1282.59,-133.35 1288.82,-141.91 1292.8,-136.16"/>
</a>
</g>
</g>
<!-- Node30&#45;&gt;Node16 -->
<g id="edge59_Node000030_Node000016" class="edge">
<title>Node30&#45;&gt;Node16</title>
<g id="a_edge59_Node000030_Node000016"><a xlink:title=" ">
<path fill="none" stroke="#63b8ff" d="M1262.31,-335.85C1259.66,-322.96 1253.96,-298.93 1245.04,-280 1232.22,-252.79 1227.93,-245.64 1207.04,-224 1172.55,-188.26 1124.22,-156.11 1094.85,-138.11"/>
<polygon fill="#63b8ff" stroke="#63b8ff" points="1096.98,-135.3 1086.61,-133.13 1093.36,-141.3 1096.98,-135.3"/>
</a>
</g>
</g>
<!-- Node31&#45;&gt;Node30 -->
<g id="edge64_Node000031_Node000030" class="edge">
<title>Node31&#45;&gt;Node30</title>
<g id="a_edge64_Node000031_Node000030"><a xlink:title=" ">
<path fill="none" stroke="#63b8ff" d="M1182.29,-391.59C1197.38,-383.36 1219.57,-371.26 1237.02,-361.74"/>
<polygon fill="#63b8ff" stroke="#63b8ff" points="1238.23,-365.07 1245.33,-357.2 1234.88,-358.92 1238.23,-365.07"/>
</a>
</g>
</g>
<!-- Node32 -->
<g id="Node000032" class="node">
<title>Node32</title>
<g id="a_Node000032"><a xlink:href="IRepository_8hpp.html" target="_top" xlink:title=" ">
<polygon fill="white" stroke="#666666" points="1207.17,-356 1122.92,-356 1122.92,-336 1207.17,-336 1207.17,-356"/>
<text xml:space="preserve" text-anchor="middle" x="1165.04" y="-342.5" font-family="Helvetica,sans-Serif" font-size="10.00">IRepository.hpp</text>
</a>
</g>
</g>
<!-- Node31&#45;&gt;Node32 -->
<g id="edge62_Node000031_Node000032" class="edge">
<title>Node31&#45;&gt;Node32</title>
<g id="a_edge62_Node000031_Node000032"><a xlink:title=" ">
<path fill="none" stroke="#63b8ff" d="M1165.04,-391.59C1165.04,-385.01 1165.04,-375.96 1165.04,-367.73"/>
<polygon fill="#63b8ff" stroke="#63b8ff" points="1168.54,-367.81 1165.04,-357.81 1161.54,-367.81 1168.54,-367.81"/>
</a>
</g>
</g>
<!-- Node33 -->
<g id="Node000033" class="node">
<title>Node33</title>
<g id="a_Node000033"><a xlink:title=" ">
<polygon fill="#e0e0e0" stroke="#999999" points="1236.17,-300 1187.92,-300 1187.92,-280 1236.17,-280 1236.17,-300"/>
<text xml:space="preserve" text-anchor="middle" x="1212.04" y="-286.5" font-family="Helvetica,sans-Serif" font-size="10.00">cstddef</text>
</a>
</g>
</g>
<!-- Node32&#45;&gt;Node33 -->
<g id="edge63_Node000032_Node000033" class="edge">
<title>Node32&#45;&gt;Node33</title>
<g id="a_edge63_Node000032_Node000033"><a xlink:title=" ">
<path fill="none" stroke="#63b8ff" d="M1173.23,-335.59C1179.63,-328.24 1188.72,-317.8 1196.49,-308.87"/>
<polygon fill="#63b8ff" stroke="#63b8ff" points="1199.03,-311.28 1202.95,-301.44 1193.75,-306.69 1199.03,-311.28"/>
</a>
</g>
</g>
</g>
</svg>
