<?xml version="1.0" encoding="UTF-8" standalone="no"?>
<!DOCTYPE svg PUBLIC "-//W3C//DTD SVG 1.1//EN"
 "http://www.w3.org/Graphics/SVG/1.1/DTD/svg11.dtd">
<!-- Generated by graphviz version 9.0.0 (0)
 -->
<!-- Title: src/core/database/RowDTOAdapter.hpp Pages: 1 -->
<svg width="1453pt" height="288pt"
 viewBox="0.00 0.00 1452.50 288.00" xmlns="http://www.w3.org/2000/svg" xmlns:xlink="http://www.w3.org/1999/xlink">
<g id="graph0" class="graph" transform="scale(1 1) rotate(0) translate(4 284)">
<title>src/core/database/RowDTOAdapter.hpp</title>
<!-- Node1 -->
<g id="Node000001" class="node">
<title>Node1</title>
<g id="a_Node000001"><a xlink:title=" ">
<polygon fill="#999999" stroke="#666666" points="608.88,-280 418.12,-280 418.12,-260 608.88,-260 608.88,-280"/>
<text text-anchor="middle" x="513.5" y="-266.5" font-family="Helvetica,sans-Serif" font-size="10.00">src/core/database/RowDTOAdapter.hpp</text>
</a>
</g>
</g>
<!-- Node2 -->
<g id="Node000002" class="node">
<title>Node2</title>
<g id="a_Node000002"><a xlink:href="ChallengeRoleDTO_8hpp.html" target="_top" xlink:title=" ">
<polygon fill="white" stroke="#666666" points="382.25,-168 238.75,-168 238.75,-136 382.25,-136 382.25,-168"/>
<text text-anchor="start" x="246.75" y="-154.5" font-family="Helvetica,sans-Serif" font-size="10.00">src/commands/challenge</text>
<text text-anchor="middle" x="310.5" y="-142.5" font-family="Helvetica,sans-Serif" font-size="10.00">_role/ChallengeRoleDTO.hpp</text>
</a>
</g>
</g>
<!-- Node1&#45;&gt;Node2 -->
<g id="edge1_Node000001_Node000002" class="edge">
<title>Node1&#45;&gt;Node2</title>
<g id="a_edge1_Node000001_Node000002"><a xlink:title=" ">
<path fill="none" stroke="#63b8ff" d="M487.37,-254.07C448.7,-231.97 376.62,-190.78 337.47,-168.41"/>
<polygon fill="#63b8ff" stroke="#63b8ff" points="485.15,-256.83 495.57,-258.76 488.63,-250.76 485.15,-256.83"/>
</a>
</g>
</g>
<!-- Node7 -->
<g id="Node000007" class="node">
<title>Node7</title>
<g id="a_Node000007"><a xlink:href="Database_8hpp.html" target="_top" xlink:title=" ">
<polygon fill="white" stroke="#666666" points="796.38,-224 638.62,-224 638.62,-204 796.38,-204 796.38,-224"/>
<text text-anchor="middle" x="717.5" y="-210.5" font-family="Helvetica,sans-Serif" font-size="10.00">src/core/database/Database.hpp</text>
</a>
</g>
</g>
<!-- Node1&#45;&gt;Node7 -->
<g id="edge8_Node000001_Node000007" class="edge">
<title>Node1&#45;&gt;Node7</title>
<g id="a_edge8_Node000001_Node000007"><a xlink:title=" ">
<path fill="none" stroke="#63b8ff" d="M560.02,-256.69C596.96,-246.91 647.87,-233.43 681.69,-224.48"/>
<polygon fill="#63b8ff" stroke="#63b8ff" points="559.27,-253.26 550.5,-259.21 561.06,-260.03 559.27,-253.26"/>
</a>
</g>
</g>
<!-- Node3 -->
<g id="Node000003" class="node">
<title>Node3</title>
<g id="a_Node000003"><a xlink:href="ChallengeRoleCommand_8cpp.html" target="_top" xlink:title=" ">
<polygon fill="white" stroke="#666666" points="401.25,-32 233.75,-32 233.75,0 401.25,0 401.25,-32"/>
<text text-anchor="start" x="241.75" y="-18.5" font-family="Helvetica,sans-Serif" font-size="10.00">src/commands/challenge</text>
<text text-anchor="middle" x="317.5" y="-6.5" font-family="Helvetica,sans-Serif" font-size="10.00">_role/ChallengeRoleCommand.cpp</text>
</a>
</g>
</g>
<!-- Node2&#45;&gt;Node3 -->
<g id="edge2_Node000002_Node000003" class="edge">
<title>Node2&#45;&gt;Node3</title>
<g id="a_edge2_Node000002_Node000003"><a xlink:title=" ">
<path fill="none" stroke="#63b8ff" d="M311.89,-124.45C313.33,-96.84 315.54,-54.6 316.71,-32.19"/>
<polygon fill="#63b8ff" stroke="#63b8ff" points="308.41,-123.95 311.38,-134.12 315.4,-124.31 308.41,-123.95"/>
</a>
</g>
</g>
<!-- Node4 -->
<g id="Node000004" class="node">
<title>Node4</title>
<g id="a_Node000004"><a xlink:href="ChallengeRoleDTO_8cpp.html" target="_top" xlink:title=" ">
<polygon fill="white" stroke="#666666" points="567.25,-32 423.75,-32 423.75,0 567.25,0 567.25,-32"/>
<text text-anchor="start" x="431.75" y="-18.5" font-family="Helvetica,sans-Serif" font-size="10.00">src/commands/challenge</text>
<text text-anchor="middle" x="495.5" y="-6.5" font-family="Helvetica,sans-Serif" font-size="10.00">_role/ChallengeRoleDTO.cpp</text>
</a>
</g>
</g>
<!-- Node2&#45;&gt;Node4 -->
<g id="edge3_Node000002_Node000004" class="edge">
<title>Node2&#45;&gt;Node4</title>
<g id="a_edge3_Node000002_Node000004"><a xlink:title=" ">
<path fill="none" stroke="#63b8ff" d="M334.3,-127.78C352.87,-110.28 379.74,-86.26 405.5,-68 424.4,-54.6 447.1,-41.75 464.98,-32.31"/>
<polygon fill="#63b8ff" stroke="#63b8ff" points="332.07,-125.07 327.24,-134.51 336.89,-130.14 332.07,-125.07"/>
</a>
</g>
</g>
<!-- Node5 -->
<g id="Node000005" class="node">
<title>Node5</title>
<g id="a_Node000005"><a xlink:href="ChallengeRoleRepository_8cpp.html" target="_top" xlink:title=" ">
<polygon fill="white" stroke="#666666" points="169,-32 0,-32 0,0 169,0 169,-32"/>
<text text-anchor="start" x="8" y="-18.5" font-family="Helvetica,sans-Serif" font-size="10.00">src/commands/challenge</text>
<text text-anchor="middle" x="84.5" y="-6.5" font-family="Helvetica,sans-Serif" font-size="10.00">_role/ChallengeRoleRepository.cpp</text>
</a>
</g>
</g>
<!-- Node2&#45;&gt;Node5 -->
<g id="edge4_Node000002_Node000005" class="edge">
<title>Node2&#45;&gt;Node5</title>
<g id="a_edge4_Node000002_Node000005"><a xlink:title=" ">
<path fill="none" stroke="#63b8ff" d="M227.26,-139.53C177.66,-131.03 121.02,-117.82 103.5,-100 85.77,-81.98 83.25,-51 83.53,-32.41"/>
<polygon fill="#63b8ff" stroke="#63b8ff" points="226.45,-142.95 236.89,-141.13 227.6,-136.04 226.45,-142.95"/>
</a>
</g>
</g>
<!-- Node6 -->
<g id="Node000006" class="node">
<title>Node6</title>
<g id="a_Node000006"><a xlink:href="ChallengeRoleRepository_8hpp.html" target="_top" xlink:title=" ">
<polygon fill="white" stroke="#666666" points="282,-100 113,-100 113,-68 282,-68 282,-100"/>
<text text-anchor="start" x="121" y="-86.5" font-family="Helvetica,sans-Serif" font-size="10.00">src/commands/challenge</text>
<text text-anchor="middle" x="197.5" y="-74.5" font-family="Helvetica,sans-Serif" font-size="10.00">_role/ChallengeRoleRepository.hpp</text>
</a>
</g>
</g>
<!-- Node2&#45;&gt;Node6 -->
<g id="edge5_Node000002_Node000006" class="edge">
<title>Node2&#45;&gt;Node6</title>
<g id="a_edge5_Node000002_Node000006"><a xlink:title=" ">
<path fill="none" stroke="#63b8ff" d="M274.2,-129.8C257.81,-120.23 238.82,-109.13 223.83,-100.38"/>
<polygon fill="#63b8ff" stroke="#63b8ff" points="272.3,-132.74 282.7,-134.76 275.83,-126.7 272.3,-132.74"/>
</a>
</g>
</g>
<!-- Node6&#45;&gt;Node3 -->
<g id="edge6_Node000006_Node000003" class="edge">
<title>Node6&#45;&gt;Node3</title>
<g id="a_edge6_Node000006_Node000003"><a xlink:title=" ">
<path fill="none" stroke="#63b8ff" d="M235.56,-62.07C253.07,-52.44 273.47,-41.21 289.54,-32.38"/>
<polygon fill="#63b8ff" stroke="#63b8ff" points="234.04,-58.91 226.96,-66.8 237.41,-65.04 234.04,-58.91"/>
</a>
</g>
</g>
<!-- Node6&#45;&gt;Node5 -->
<g id="edge7_Node000006_Node000005" class="edge">
<title>Node6&#45;&gt;Node5</title>
<g id="a_edge7_Node000006_Node000005"><a xlink:title=" ">
<path fill="none" stroke="#63b8ff" d="M161.2,-61.8C144.81,-52.23 125.82,-41.13 110.83,-32.38"/>
<polygon fill="#63b8ff" stroke="#63b8ff" points="159.3,-64.74 169.7,-66.76 162.83,-58.7 159.3,-64.74"/>
</a>
</g>
</g>
<!-- Node7&#45;&gt;Node5 -->
<g id="edge15_Node000007_Node000005" class="edge">
<title>Node7&#45;&gt;Node5</title>
<g id="a_edge15_Node000007_Node000005"><a xlink:title=" ">
<path fill="none" stroke="#63b8ff" d="M627.11,-208.4C507.16,-201.66 302.08,-187.72 229.5,-168 160.81,-149.34 122.68,-160.07 84.5,-100 71.52,-79.57 75.57,-50.21 79.9,-32.44"/>
<polygon fill="#63b8ff" stroke="#63b8ff" points="626.76,-211.89 636.94,-208.95 627.15,-204.9 626.76,-211.89"/>
</a>
</g>
</g>
<!-- Node8 -->
<g id="Node000008" class="node">
<title>Node8</title>
<g id="a_Node000008"><a xlink:href="bot_8cpp.html" target="_top" xlink:title=" ">
<polygon fill="white" stroke="#666666" points="780.88,-26 716.12,-26 716.12,-6 780.88,-6 780.88,-26"/>
<text text-anchor="middle" x="748.5" y="-12.5" font-family="Helvetica,sans-Serif" font-size="10.00">src/bot.cpp</text>
</a>
</g>
</g>
<!-- Node7&#45;&gt;Node8 -->
<g id="edge9_Node000007_Node000008" class="edge">
<title>Node7&#45;&gt;Node8</title>
<g id="a_edge9_Node000007_Node000008"><a xlink:title=" ">
<path fill="none" stroke="#63b8ff" d="M668.86,-199.36C653.57,-192.53 638.38,-182.51 629.5,-168 606.31,-130.09 605.03,-105.1 629.5,-68 648.49,-39.2 687.49,-26.6 715.68,-21.13"/>
<polygon fill="#63b8ff" stroke="#63b8ff" points="667.4,-202.54 677.98,-203.03 670.01,-196.05 667.4,-202.54"/>
</a>
</g>
</g>
<!-- Node9 -->
<g id="Node000009" class="node">
<title>Node9</title>
<g id="a_Node000009"><a xlink:href="ChallengeRoleCommand_8hpp.html" target="_top" xlink:title=" ">
<polygon fill="white" stroke="#666666" points="582.25,-100 414.75,-100 414.75,-68 582.25,-68 582.25,-100"/>
<text text-anchor="start" x="422.75" y="-86.5" font-family="Helvetica,sans-Serif" font-size="10.00">src/commands/challenge</text>
<text text-anchor="middle" x="498.5" y="-74.5" font-family="Helvetica,sans-Serif" font-size="10.00">_role/ChallengeRoleCommand.hpp</text>
</a>
</g>
</g>
<!-- Node7&#45;&gt;Node9 -->
<g id="edge10_Node000007_Node000009" class="edge">
<title>Node7&#45;&gt;Node9</title>
<g id="a_edge10_Node000007_Node000009"><a xlink:title=" ">
<path fill="none" stroke="#63b8ff" d="M671.99,-200.22C648.56,-192.63 620.05,-181.78 596.5,-168 563.78,-148.86 531.3,-118.54 513.17,-100.33"/>
<polygon fill="#63b8ff" stroke="#63b8ff" points="670.66,-203.47 681.25,-203.12 672.76,-196.79 670.66,-203.47"/>
</a>
</g>
</g>
<!-- Node11 -->
<g id="Node000011" class="node">
<title>Node11</title>
<g id="a_Node000011"><a xlink:href="roles_8hpp.html" target="_top" xlink:title=" ">
<polygon fill="white" stroke="#666666" points="742.75,-100 638.25,-100 638.25,-68 742.75,-68 742.75,-100"/>
<text text-anchor="start" x="646.25" y="-86.5" font-family="Helvetica,sans-Serif" font-size="10.00">src/commands/roles</text>
<text text-anchor="middle" x="690.5" y="-74.5" font-family="Helvetica,sans-Serif" font-size="10.00">/roles.hpp</text>
</a>
</g>
</g>
<!-- Node7&#45;&gt;Node11 -->
<g id="edge16_Node000007_Node000011" class="edge">
<title>Node7&#45;&gt;Node11</title>
<g id="a_edge16_Node000007_Node000011"><a xlink:title=" ">
<path fill="none" stroke="#63b8ff" d="M766.14,-199.36C781.43,-192.53 796.62,-182.51 805.5,-168 812.92,-155.87 813.25,-147.92 805.5,-136 797.55,-123.78 766.62,-110.44 738.84,-100.46"/>
<polygon fill="#63b8ff" stroke="#63b8ff" points="764.99,-196.05 757.02,-203.03 767.6,-202.54 764.99,-196.05"/>
</a>
</g>
</g>
<!-- Node12 -->
<g id="Node000012" class="node">
<title>Node12</title>
<g id="a_Node000012"><a xlink:href="SetChannelCommand_8hpp.html" target="_top" xlink:title=" ">
<polygon fill="white" stroke="#666666" points="1396.5,-100 1260.5,-100 1260.5,-68 1396.5,-68 1396.5,-100"/>
<text text-anchor="start" x="1268.5" y="-86.5" font-family="Helvetica,sans-Serif" font-size="10.00">src/commands/set_channel</text>
<text text-anchor="middle" x="1328.5" y="-74.5" font-family="Helvetica,sans-Serif" font-size="10.00">/SetChannelCommand.hpp</text>
</a>
</g>
</g>
<!-- Node7&#45;&gt;Node12 -->
<g id="edge18_Node000007_Node000012" class="edge">
<title>Node7&#45;&gt;Node12</title>
<g id="a_edge18_Node000007_Node000012"><a xlink:title=" ">
<path fill="none" stroke="#63b8ff" d="M807.78,-209.07C924.25,-203.19 1120.01,-190.33 1188.5,-168 1235.24,-152.76 1283.12,-119.89 1309,-100.4"/>
<polygon fill="#63b8ff" stroke="#63b8ff" points="807.74,-205.57 797.93,-209.56 808.09,-212.56 807.74,-205.57"/>
</a>
</g>
</g>
<!-- Node14 -->
<g id="Node000014" class="node">
<title>Node14</title>
<g id="a_Node000014"><a xlink:href="user__man_8hpp.html" target="_top" xlink:title=" ">
<polygon fill="white" stroke="#666666" points="1179.25,-168 1071.75,-168 1071.75,-136 1179.25,-136 1179.25,-168"/>
<text text-anchor="start" x="1079.75" y="-154.5" font-family="Helvetica,sans-Serif" font-size="10.00">src/commands/users</text>
<text text-anchor="middle" x="1125.5" y="-142.5" font-family="Helvetica,sans-Serif" font-size="10.00">/user_man.hpp</text>
</a>
</g>
</g>
<!-- Node7&#45;&gt;Node14 -->
<g id="edge21_Node000007_Node000014" class="edge">
<title>Node7&#45;&gt;Node14</title>
<g id="a_edge21_Node000007_Node000014"><a xlink:title=" ">
<path fill="none" stroke="#63b8ff" d="M792.79,-201.93C873.6,-190.04 999.96,-171.46 1071.45,-160.95"/>
<polygon fill="#63b8ff" stroke="#63b8ff" points="792.58,-198.42 783.2,-203.34 793.6,-205.35 792.58,-198.42"/>
</a>
</g>
</g>
<!-- Node15 -->
<g id="Node000015" class="node">
<title>Node15</title>
<g id="a_Node000015"><a xlink:href="Core_8hpp.html" target="_top" xlink:title=" ">
<polygon fill="white" stroke="#666666" points="946.5,-162 852.5,-162 852.5,-142 946.5,-142 946.5,-162"/>
<text text-anchor="middle" x="899.5" y="-148.5" font-family="Helvetica,sans-Serif" font-size="10.00">src/core/Core.hpp</text>
</a>
</g>
</g>
<!-- Node7&#45;&gt;Node15 -->
<g id="edge23_Node000007_Node000015" class="edge">
<title>Node7&#45;&gt;Node15</title>
<g id="a_edge23_Node000007_Node000015"><a xlink:title=" ">
<path fill="none" stroke="#63b8ff" d="M756.53,-200.13C790.91,-188.8 840.16,-172.56 870.96,-162.41"/>
<polygon fill="#63b8ff" stroke="#63b8ff" points="755.78,-196.7 747.37,-203.15 757.97,-203.34 755.78,-196.7"/>
</a>
</g>
</g>
<!-- Node19 -->
<g id="Node000019" class="node">
<title>Node19</title>
<g id="a_Node000019"><a xlink:href="Database_8cpp.html" target="_top" xlink:title=" ">
<polygon fill="white" stroke="#666666" points="796.38,-162 638.62,-162 638.62,-142 796.38,-142 796.38,-162"/>
<text text-anchor="middle" x="717.5" y="-148.5" font-family="Helvetica,sans-Serif" font-size="10.00">src/core/database/Database.cpp</text>
</a>
</g>
</g>
<!-- Node7&#45;&gt;Node19 -->
<g id="edge34_Node000007_Node000019" class="edge">
<title>Node7&#45;&gt;Node19</title>
<g id="a_edge34_Node000007_Node000019"><a xlink:title=" ">
<path fill="none" stroke="#63b8ff" d="M717.5,-192.25C717.5,-181.97 717.5,-170.09 717.5,-162.11"/>
<polygon fill="#63b8ff" stroke="#63b8ff" points="714,-192.11 717.5,-202.11 721,-192.11 714,-192.11"/>
</a>
</g>
</g>
<!-- Node9&#45;&gt;Node3 -->
<g id="edge13_Node000009_Node000003" class="edge">
<title>Node9&#45;&gt;Node3</title>
<g id="a_edge13_Node000009_Node000003"><a xlink:title=" ">
<path fill="none" stroke="#63b8ff" d="M445.54,-63.69C418.3,-53.76 385.54,-41.81 359.98,-32.49"/>
<polygon fill="#63b8ff" stroke="#63b8ff" points="444.05,-66.87 454.64,-67.01 446.45,-60.29 444.05,-66.87"/>
</a>
</g>
</g>
<!-- Node9&#45;&gt;Node4 -->
<g id="edge14_Node000009_Node000004" class="edge">
<title>Node9&#45;&gt;Node4</title>
<g id="a_edge14_Node000009_Node000004"><a xlink:title=" ">
<path fill="none" stroke="#63b8ff" d="M497.29,-56.31C496.91,-48.12 496.52,-39.38 496.19,-32.22"/>
<polygon fill="#63b8ff" stroke="#63b8ff" points="493.78,-56.35 497.74,-66.18 500.78,-56.03 493.78,-56.35"/>
</a>
</g>
</g>
<!-- Node9&#45;&gt;Node8 -->
<g id="edge11_Node000009_Node000008" class="edge">
<title>Node9&#45;&gt;Node8</title>
<g id="a_edge11_Node000009_Node000008"><a xlink:title=" ">
<path fill="none" stroke="#63b8ff" d="M568.13,-64.62C616.45,-51.86 678.59,-35.46 715.89,-25.61"/>
<polygon fill="#63b8ff" stroke="#63b8ff" points="567.35,-61.2 558.58,-67.14 569.14,-67.97 567.35,-61.2"/>
</a>
</g>
</g>
<!-- Node10 -->
<g id="Node000010" class="node">
<title>Node10</title>
<g id="a_Node000010"><a xlink:href="CommandRegister_8cpp.html" target="_top" xlink:title=" ">
<polygon fill="white" stroke="#666666" points="1131.5,-26 947.5,-26 947.5,-6 1131.5,-6 1131.5,-26"/>
<text text-anchor="middle" x="1039.5" y="-12.5" font-family="Helvetica,sans-Serif" font-size="10.00">src/commands/CommandRegister.cpp</text>
</a>
</g>
</g>
<!-- Node9&#45;&gt;Node10 -->
<g id="edge12_Node000009_Node000010" class="edge">
<title>Node9&#45;&gt;Node10</title>
<g id="a_edge12_Node000009_Node000010"><a xlink:title=" ">
<path fill="none" stroke="#63b8ff" d="M593.94,-71.36C698.74,-58.57 864.99,-38.29 962.04,-26.45"/>
<polygon fill="#63b8ff" stroke="#63b8ff" points="593.74,-67.86 584.24,-72.54 594.59,-74.8 593.74,-67.86"/>
</a>
</g>
</g>
<!-- Node11&#45;&gt;Node8 -->
<g id="edge17_Node000011_Node000008" class="edge">
<title>Node11&#45;&gt;Node8</title>
<g id="a_edge17_Node000011_Node000008"><a xlink:title=" ">
<path fill="none" stroke="#63b8ff" d="M711.26,-59.37C721.31,-47.95 732.79,-34.88 740.31,-26.32"/>
<polygon fill="#63b8ff" stroke="#63b8ff" points="708.92,-56.73 704.95,-66.56 714.18,-61.35 708.92,-56.73"/>
</a>
</g>
</g>
<!-- Node12&#45;&gt;Node10 -->
<g id="edge19_Node000012_Node000010" class="edge">
<title>Node12&#45;&gt;Node10</title>
<g id="a_edge19_Node000012_Node000010"><a xlink:title=" ">
<path fill="none" stroke="#63b8ff" d="M1249.71,-65.01C1195.2,-52.56 1124.82,-36.49 1080.92,-26.46"/>
<polygon fill="#63b8ff" stroke="#63b8ff" points="1248.74,-68.37 1259.27,-67.19 1250.3,-61.55 1248.74,-68.37"/>
</a>
</g>
</g>
<!-- Node13 -->
<g id="Node000013" class="node">
<title>Node13</title>
<g id="a_Node000013"><a xlink:href="SetChannelCommand_8cpp.html" target="_top" xlink:title=" ">
<polygon fill="white" stroke="#666666" points="1444.5,-32 1308.5,-32 1308.5,0 1444.5,0 1444.5,-32"/>
<text text-anchor="start" x="1316.5" y="-18.5" font-family="Helvetica,sans-Serif" font-size="10.00">src/commands/set_channel</text>
<text text-anchor="middle" x="1376.5" y="-6.5" font-family="Helvetica,sans-Serif" font-size="10.00">/SetChannelCommand.cpp</text>
</a>
</g>
</g>
<!-- Node12&#45;&gt;Node13 -->
<g id="edge20_Node000012_Node000013" class="edge">
<title>Node12&#45;&gt;Node13</title>
<g id="a_edge20_Node000012_Node000013"><a xlink:title=" ">
<path fill="none" stroke="#63b8ff" d="M1346.26,-58.59C1352.68,-49.75 1359.74,-40.04 1365.43,-32.22"/>
<polygon fill="#63b8ff" stroke="#63b8ff" points="1343.57,-56.32 1340.52,-66.47 1349.24,-60.44 1343.57,-56.32"/>
</a>
</g>
</g>
<!-- Node14&#45;&gt;Node8 -->
<g id="edge22_Node000014_Node000008" class="edge">
<title>Node14&#45;&gt;Node8</title>
<g id="a_edge22_Node000014_Node000008"><a xlink:title=" ">
<path fill="none" stroke="#63b8ff" d="M1181.05,-130.4C1193.94,-122.87 1206.05,-112.92 1213.5,-100 1220.6,-87.68 1222.99,-78.59 1213.5,-68 1199.02,-51.84 884.54,-27.11 781.13,-19.39"/>
<polygon fill="#63b8ff" stroke="#63b8ff" points="1179.62,-127.19 1172.44,-134.98 1182.91,-133.37 1179.62,-127.19"/>
</a>
</g>
</g>
<!-- Node15&#45;&gt;Node3 -->
<g id="edge24_Node000015_Node000003" class="edge">
<title>Node15&#45;&gt;Node3</title>
<g id="a_edge24_Node000015_Node000003"><a xlink:title=" ">
<path fill="none" stroke="#63b8ff" d="M841.16,-141.05C829.38,-139.22 817.06,-137.44 805.5,-136 716.94,-124.96 486.88,-136.63 405.5,-100 372.18,-85 343.5,-52.05 328.55,-32.48"/>
<polygon fill="#63b8ff" stroke="#63b8ff" points="840.33,-144.47 850.76,-142.58 841.43,-137.55 840.33,-144.47"/>
</a>
</g>
</g>
<!-- Node15&#45;&gt;Node9 -->
<g id="edge25_Node000015_Node000009" class="edge">
<title>Node15&#45;&gt;Node9</title>
<g id="a_edge25_Node000015_Node000009"><a xlink:title=" ">
<path fill="none" stroke="#63b8ff" d="M840.97,-141.37C772.88,-130.16 659.94,-111.57 582.5,-98.83"/>
<polygon fill="#63b8ff" stroke="#63b8ff" points="840.39,-144.82 850.83,-142.99 841.53,-137.91 840.39,-144.82"/>
</a>
</g>
</g>
<!-- Node15&#45;&gt;Node11 -->
<g id="edge29_Node000015_Node000011" class="edge">
<title>Node15&#45;&gt;Node11</title>
<g id="a_edge29_Node000015_Node000011"><a xlink:title=" ">
<path fill="none" stroke="#63b8ff" d="M859.01,-138.21C824.81,-127.41 775.73,-111.92 739.35,-100.43"/>
<polygon fill="#63b8ff" stroke="#63b8ff" points="857.52,-141.41 868.11,-141.09 859.63,-134.74 857.52,-141.41"/>
</a>
</g>
</g>
<!-- Node15&#45;&gt;Node12 -->
<g id="edge31_Node000015_Node000012" class="edge">
<title>Node15&#45;&gt;Node12</title>
<g id="a_edge31_Node000015_Node000012"><a xlink:title=" ">
<path fill="none" stroke="#63b8ff" d="M957.79,-142.03C1036.51,-129.92 1176.54,-108.38 1260.13,-95.52"/>
<polygon fill="#63b8ff" stroke="#63b8ff" points="957.49,-138.54 948.13,-143.52 958.55,-145.46 957.49,-138.54"/>
</a>
</g>
</g>
<!-- Node15&#45;&gt;Node13 -->
<g id="edge30_Node000015_Node000013" class="edge">
<title>Node15&#45;&gt;Node13</title>
<g id="a_edge30_Node000015_Node000013"><a xlink:title=" ">
<path fill="none" stroke="#63b8ff" d="M957.78,-145.63C1090.04,-133.39 1401.77,-104.13 1405.5,-100 1422.9,-80.75 1404.41,-50.47 1390.01,-32.29"/>
<polygon fill="#63b8ff" stroke="#63b8ff" points="957.83,-142.11 948.2,-146.52 958.48,-149.08 957.83,-142.11"/>
</a>
</g>
</g>
<!-- Node16 -->
<g id="Node000016" class="node">
<title>Node16</title>
<g id="a_Node000016"><a xlink:href="HelpCommand_8cpp.html" target="_top" xlink:title=" ">
<polygon fill="white" stroke="#666666" points="1060.75,-94 872.25,-94 872.25,-74 1060.75,-74 1060.75,-94"/>
<text text-anchor="middle" x="966.5" y="-80.5" font-family="Helvetica,sans-Serif" font-size="10.00">src/commands/help/HelpCommand.cpp</text>
</a>
</g>
</g>
<!-- Node15&#45;&gt;Node16 -->
<g id="edge26_Node000015_Node000016" class="edge">
<title>Node15&#45;&gt;Node16</title>
<g id="a_edge26_Node000015_Node000016"><a xlink:title=" ">
<path fill="none" stroke="#63b8ff" d="M917.15,-133.61C929.88,-121.07 946.58,-104.63 956.92,-94.44"/>
<polygon fill="#63b8ff" stroke="#63b8ff" points="914.85,-130.97 910.18,-140.48 919.76,-135.96 914.85,-130.97"/>
</a>
</g>
</g>
<!-- Node17 -->
<g id="Node000017" class="node">
<title>Node17</title>
<g id="a_Node000017"><a xlink:href="resource__man_8hpp.html" target="_top" xlink:title=" ">
<polygon fill="white" stroke="#666666" points="1204.62,-100 1078.38,-100 1078.38,-68 1204.62,-68 1204.62,-100"/>
<text text-anchor="start" x="1086.38" y="-86.5" font-family="Helvetica,sans-Serif" font-size="10.00">src/commands/resources</text>
<text text-anchor="middle" x="1141.5" y="-74.5" font-family="Helvetica,sans-Serif" font-size="10.00">/resource_man.hpp</text>
</a>
</g>
</g>
<!-- Node15&#45;&gt;Node17 -->
<g id="edge27_Node000015_Node000017" class="edge">
<title>Node15&#45;&gt;Node17</title>
<g id="a_edge27_Node000015_Node000017"><a xlink:title=" ">
<path fill="none" stroke="#63b8ff" d="M945.1,-138.56C984.75,-127.75 1042.35,-112.04 1084.93,-100.43"/>
<polygon fill="#63b8ff" stroke="#63b8ff" points="944.36,-135.14 935.63,-141.15 946.2,-141.89 944.36,-135.14"/>
</a>
</g>
</g>
<!-- Node18 -->
<g id="Node000018" class="node">
<title>Node18</title>
<g id="a_Node000018"><a xlink:href="Core_8cpp.html" target="_top" xlink:title=" ">
<polygon fill="white" stroke="#666666" points="854.5,-94 760.5,-94 760.5,-74 854.5,-74 854.5,-94"/>
<text text-anchor="middle" x="807.5" y="-80.5" font-family="Helvetica,sans-Serif" font-size="10.00">src/core/Core.cpp</text>
</a>
</g>
</g>
<!-- Node15&#45;&gt;Node18 -->
<g id="edge32_Node000015_Node000018" class="edge">
<title>Node15&#45;&gt;Node18</title>
<g id="a_edge32_Node000015_Node000018"><a xlink:title=" ">
<path fill="none" stroke="#63b8ff" d="M877.25,-135.04C859.56,-122.35 835.4,-105.02 820.66,-94.44"/>
<polygon fill="#63b8ff" stroke="#63b8ff" points="874.92,-137.68 885.09,-140.66 879,-131.99 874.92,-137.68"/>
</a>
</g>
</g>
<!-- Node17&#45;&gt;Node8 -->
<g id="edge28_Node000017_Node000008" class="edge">
<title>Node17&#45;&gt;Node8</title>
<g id="a_edge28_Node000017_Node000008"><a xlink:title=" ">
<path fill="none" stroke="#63b8ff" d="M1066.91,-67.57C956.31,-47.51 837.1,-29.76 780.94,-21.63"/>
<polygon fill="#63b8ff" stroke="#63b8ff" points="1065.97,-70.96 1076.44,-69.31 1067.23,-64.07 1065.97,-70.96"/>
</a>
</g>
</g>
<!-- Node18&#45;&gt;Node8 -->
<g id="edge33_Node000018_Node000008" class="edge">
<title>Node18&#45;&gt;Node8</title>
<g id="a_edge33_Node000018_Node000008"><a xlink:title=" ">
<path fill="none" stroke="#63b8ff" d="M791.63,-65.25C780.46,-52.76 765.96,-36.53 756.94,-26.44"/>
<polygon fill="#63b8ff" stroke="#63b8ff" points="788.76,-67.29 798.04,-72.42 793.98,-62.63 788.76,-67.29"/>
</a>
</g>
</g>
</g>
</svg>
