<?xml version="1.0" encoding="UTF-8" standalone="no"?>
<!DOCTYPE svg PUBLIC "-//W3C//DTD SVG 1.1//EN"
 "http://www.w3.org/Graphics/SVG/1.1/DTD/svg11.dtd">
<!-- Generated by graphviz version 9.0.0 (0)
 -->
<!-- Title: src/bot_library/bot/core/database/include/RowDTOAdapter.hpp Pages: 1 -->
<svg width="1664pt" height="404pt"
 viewBox="0.00 0.00 1664.25 404.00" xmlns="http://www.w3.org/2000/svg" xmlns:xlink="http://www.w3.org/1999/xlink">
<g id="graph0" class="graph" transform="scale(1 1) rotate(0) translate(4 400)">
<title>src/bot_library/bot/core/database/include/RowDTOAdapter.hpp</title>
<!-- Node1 -->
<g id="Node000001" class="node">
<title>Node1</title>
<g id="a_Node000001"><a xlink:title=" ">
<polygon fill="#999999" stroke="#666666" points="724.75,-396 610.5,-396 610.5,-352 724.75,-352 724.75,-396"/>
<text text-anchor="start" x="618.5" y="-382.5" font-family="Helvetica,sans-Serif" font-size="10.00">src/bot_library/bot</text>
<text text-anchor="start" x="618.5" y="-370.5" font-family="Helvetica,sans-Serif" font-size="10.00">/core/database/include</text>
<text text-anchor="middle" x="667.62" y="-358.5" font-family="Helvetica,sans-Serif" font-size="10.00">/RowDTOAdapter.hpp</text>
</a>
</g>
</g>
<!-- Node2 -->
<g id="Node000002" class="node">
<title>Node2</title>
<g id="a_Node000002"><a xlink:href="Database_8hpp.html" target="_top" xlink:title=" ">
<polygon fill="white" stroke="#666666" points="1016.75,-316 902.5,-316 902.5,-272 1016.75,-272 1016.75,-316"/>
<text text-anchor="start" x="910.5" y="-302.5" font-family="Helvetica,sans-Serif" font-size="10.00">src/bot_library/bot</text>
<text text-anchor="start" x="910.5" y="-290.5" font-family="Helvetica,sans-Serif" font-size="10.00">/core/database/include</text>
<text text-anchor="middle" x="959.62" y="-278.5" font-family="Helvetica,sans-Serif" font-size="10.00">/Database.hpp</text>
</a>
</g>
</g>
<!-- Node1&#45;&gt;Node2 -->
<g id="edge1_Node000001_Node000002" class="edge">
<title>Node1&#45;&gt;Node2</title>
<g id="a_edge1_Node000001_Node000002"><a xlink:title=" ">
<path fill="none" stroke="#63b8ff" d="M735.81,-354.79C786.41,-341.27 854.64,-323.04 902.41,-310.28"/>
<polygon fill="#63b8ff" stroke="#63b8ff" points="735.19,-351.33 726.43,-357.29 736.99,-358.09 735.19,-351.33"/>
</a>
</g>
</g>
<!-- Node23 -->
<g id="Node000023" class="node">
<title>Node23</title>
<g id="a_Node000023"><a xlink:href="ChallengeRoleDTO_8hpp.html" target="_top" xlink:title=" ">
<polygon fill="white" stroke="#666666" points="470.5,-236 282.75,-236 282.75,-204 470.5,-204 470.5,-236"/>
<text text-anchor="start" x="290.75" y="-222.5" font-family="Helvetica,sans-Serif" font-size="10.00">src/bot_library/commands</text>
<text text-anchor="middle" x="376.62" y="-210.5" font-family="Helvetica,sans-Serif" font-size="10.00">/challenge_role/ChallengeRoleDTO.hpp</text>
</a>
</g>
</g>
<!-- Node1&#45;&gt;Node23 -->
<g id="edge30_Node000001_Node000023" class="edge">
<title>Node1&#45;&gt;Node23</title>
<g id="a_edge30_Node000001_Node000023"><a xlink:title=" ">
<path fill="none" stroke="#63b8ff" d="M616.36,-346.22C555.28,-314.32 455.33,-262.11 406.02,-236.36"/>
<polygon fill="#63b8ff" stroke="#63b8ff" points="614.72,-349.32 625.21,-350.84 617.96,-343.11 614.72,-349.32"/>
</a>
</g>
</g>
<!-- Node3 -->
<g id="Node000003" class="node">
<title>Node3</title>
<g id="a_Node000003"><a xlink:href="BotLibrary_8cpp.html" target="_top" xlink:title=" ">
<polygon fill="white" stroke="#666666" points="939,-26 796.25,-26 796.25,-6 939,-6 939,-26"/>
<text text-anchor="middle" x="867.62" y="-12.5" font-family="Helvetica,sans-Serif" font-size="10.00">src/bot_library/BotLibrary.cpp</text>
</a>
</g>
</g>
<!-- Node2&#45;&gt;Node3 -->
<g id="edge2_Node000002_Node000003" class="edge">
<title>Node2&#45;&gt;Node3</title>
<g id="a_edge2_Node000002_Node000003"><a xlink:title=" ">
<path fill="none" stroke="#63b8ff" d="M891.4,-274.6C839.65,-256.66 772.06,-223.74 739.62,-168 704.79,-108.15 804.1,-48.97 847.96,-26.48"/>
<polygon fill="#63b8ff" stroke="#63b8ff" points="890.15,-277.87 900.75,-277.72 892.37,-271.23 890.15,-277.87"/>
</a>
</g>
</g>
<!-- Node4 -->
<g id="Node000004" class="node">
<title>Node4</title>
<g id="a_Node000004"><a xlink:href="Database_8cpp.html" target="_top" xlink:title=" ">
<polygon fill="white" stroke="#666666" points="1178.75,-236 1034.5,-236 1034.5,-204 1178.75,-204 1178.75,-236"/>
<text text-anchor="start" x="1042.5" y="-222.5" font-family="Helvetica,sans-Serif" font-size="10.00">src/bot_library/bot</text>
<text text-anchor="middle" x="1106.62" y="-210.5" font-family="Helvetica,sans-Serif" font-size="10.00">/core/database/Database.cpp</text>
</a>
</g>
</g>
<!-- Node2&#45;&gt;Node4 -->
<g id="edge3_Node000002_Node000004" class="edge">
<title>Node2&#45;&gt;Node4</title>
<g id="a_edge3_Node000002_Node000004"><a xlink:title=" ">
<path fill="none" stroke="#63b8ff" d="M1013.57,-266.58C1034.22,-256.46 1057.09,-245.26 1074.99,-236.5"/>
<polygon fill="#63b8ff" stroke="#63b8ff" points="1012.13,-263.38 1004.69,-270.93 1015.21,-269.67 1012.13,-263.38"/>
</a>
</g>
</g>
<!-- Node5 -->
<g id="Node000005" class="node">
<title>Node5</title>
<g id="a_Node000005"><a xlink:href="Core_8hpp.html" target="_top" xlink:title=" ">
<polygon fill="white" stroke="#666666" points="1016.75,-236 902.5,-236 902.5,-204 1016.75,-204 1016.75,-236"/>
<text text-anchor="start" x="910.5" y="-222.5" font-family="Helvetica,sans-Serif" font-size="10.00">src/bot_library/bot</text>
<text text-anchor="middle" x="959.62" y="-210.5" font-family="Helvetica,sans-Serif" font-size="10.00">/core/include/Core.hpp</text>
</a>
</g>
</g>
<!-- Node2&#45;&gt;Node5 -->
<g id="edge4_Node000002_Node000005" class="edge">
<title>Node2&#45;&gt;Node5</title>
<g id="a_edge4_Node000002_Node000005"><a xlink:title=" ">
<path fill="none" stroke="#63b8ff" d="M959.62,-260.53C959.62,-252.02 959.62,-243.24 959.62,-236.13"/>
<polygon fill="#63b8ff" stroke="#63b8ff" points="956.13,-260.27 959.63,-270.27 963.13,-260.27 956.13,-260.27"/>
</a>
</g>
</g>
<!-- Node14 -->
<g id="Node000014" class="node">
<title>Node14</title>
<g id="a_Node000014"><a xlink:href="ChallengeRoleCommand_8hpp.html" target="_top" xlink:title=" ">
<polygon fill="white" stroke="#666666" points="692.5,-168 480.75,-168 480.75,-136 692.5,-136 692.5,-168"/>
<text text-anchor="start" x="488.75" y="-154.5" font-family="Helvetica,sans-Serif" font-size="10.00">src/bot_library/commands</text>
<text text-anchor="middle" x="586.62" y="-142.5" font-family="Helvetica,sans-Serif" font-size="10.00">/challenge_role/ChallengeRoleCommand.hpp</text>
</a>
</g>
</g>
<!-- Node2&#45;&gt;Node14 -->
<g id="edge25_Node000002_Node000014" class="edge">
<title>Node2&#45;&gt;Node14</title>
<g id="a_edge25_Node000002_Node000014"><a xlink:title=" ">
<path fill="none" stroke="#63b8ff" d="M891,-284.8C838.8,-276.86 766.07,-262.07 706.62,-236 666.72,-218.5 626.27,-187.05 604.02,-168.29"/>
<polygon fill="#63b8ff" stroke="#63b8ff" points="890.25,-288.23 900.65,-286.22 891.26,-281.3 890.25,-288.23"/>
</a>
</g>
</g>
<!-- Node18 -->
<g id="Node000018" class="node">
<title>Node18</title>
<g id="a_Node000018"><a xlink:href="roles_8hpp.html" target="_top" xlink:title=" ">
<polygon fill="white" stroke="#666666" points="1448.88,-168 1320.38,-168 1320.38,-136 1448.88,-136 1448.88,-168"/>
<text text-anchor="start" x="1328.38" y="-154.5" font-family="Helvetica,sans-Serif" font-size="10.00">src/bot_library/commands</text>
<text text-anchor="middle" x="1384.62" y="-142.5" font-family="Helvetica,sans-Serif" font-size="10.00">/roles/roles.hpp</text>
</a>
</g>
</g>
<!-- Node2&#45;&gt;Node18 -->
<g id="edge27_Node000002_Node000018" class="edge">
<title>Node2&#45;&gt;Node18</title>
<g id="a_edge27_Node000002_Node000018"><a xlink:title=" ">
<path fill="none" stroke="#63b8ff" d="M1028.56,-289.38C1122.55,-283.3 1284.82,-268.36 1333.62,-236 1358.01,-219.83 1372.73,-187.61 1379.71,-168.42"/>
<polygon fill="#63b8ff" stroke="#63b8ff" points="1028.44,-285.88 1018.68,-290 1028.88,-292.87 1028.44,-285.88"/>
</a>
</g>
</g>
<!-- Node20 -->
<g id="Node000020" class="node">
<title>Node20</title>
<g id="a_Node000020"><a xlink:href="SetChannelCommand_8hpp.html" target="_top" xlink:title=" ">
<polygon fill="white" stroke="#666666" points="1656.25,-168 1467,-168 1467,-136 1656.25,-136 1656.25,-168"/>
<text text-anchor="start" x="1475" y="-154.5" font-family="Helvetica,sans-Serif" font-size="10.00">src/bot_library/commands</text>
<text text-anchor="middle" x="1561.62" y="-142.5" font-family="Helvetica,sans-Serif" font-size="10.00">/set_channel/SetChannelCommand.hpp</text>
</a>
</g>
</g>
<!-- Node2&#45;&gt;Node20 -->
<g id="edge28_Node000002_Node000020" class="edge">
<title>Node2&#45;&gt;Node20</title>
<g id="a_edge28_Node000002_Node000020"><a xlink:title=" ">
<path fill="none" stroke="#63b8ff" d="M1027.99,-288.65C1109.03,-282.29 1247.59,-267.57 1362.62,-236 1424.71,-218.96 1493.2,-187.35 1531.46,-168.44"/>
<polygon fill="#63b8ff" stroke="#63b8ff" points="1028.16,-285.13 1018.46,-289.38 1028.7,-292.11 1028.16,-285.13"/>
</a>
</g>
</g>
<!-- Node21 -->
<g id="Node000021" class="node">
<title>Node21</title>
<g id="a_Node000021"><a xlink:href="ChallengeRoleRepository_8cpp.html" target="_top" xlink:title=" ">
<polygon fill="white" stroke="#666666" points="213.25,-100 0,-100 0,-68 213.25,-68 213.25,-100"/>
<text text-anchor="start" x="8" y="-86.5" font-family="Helvetica,sans-Serif" font-size="10.00">src/bot_library/commands</text>
<text text-anchor="middle" x="106.62" y="-74.5" font-family="Helvetica,sans-Serif" font-size="10.00">/challenge_role/ChallengeRoleRepository.cpp</text>
</a>
</g>
</g>
<!-- Node2&#45;&gt;Node21 -->
<g id="edge26_Node000002_Node000021" class="edge">
<title>Node2&#45;&gt;Node21</title>
<g id="a_edge26_Node000002_Node000021"><a xlink:title=" ">
<path fill="none" stroke="#63b8ff" d="M890.92,-289.92C741.17,-282.79 389.55,-263.6 273.62,-236 195.26,-217.34 150.65,-234.79 105.62,-168 92.01,-147.81 96.81,-118.1 101.64,-100.25"/>
<polygon fill="#63b8ff" stroke="#63b8ff" points="890.54,-293.41 900.69,-290.39 890.87,-286.42 890.54,-293.41"/>
</a>
</g>
</g>
<!-- Node22 -->
<g id="Node000022" class="node">
<title>Node22</title>
<g id="a_Node000022"><a xlink:href="user__man_8hpp.html" target="_top" xlink:title=" ">
<polygon fill="white" stroke="#666666" points="1324.88,-236 1196.38,-236 1196.38,-204 1324.88,-204 1324.88,-236"/>
<text text-anchor="start" x="1204.38" y="-222.5" font-family="Helvetica,sans-Serif" font-size="10.00">src/bot_library/commands</text>
<text text-anchor="middle" x="1260.62" y="-210.5" font-family="Helvetica,sans-Serif" font-size="10.00">/users/user_man.hpp</text>
</a>
</g>
</g>
<!-- Node2&#45;&gt;Node22 -->
<g id="edge29_Node000002_Node000022" class="edge">
<title>Node2&#45;&gt;Node22</title>
<g id="a_edge29_Node000002_Node000022"><a xlink:title=" ">
<path fill="none" stroke="#63b8ff" d="M1028.06,-276.63C1078.43,-264.58 1146.48,-248.3 1195.94,-236.47"/>
<polygon fill="#63b8ff" stroke="#63b8ff" points="1027.33,-273.21 1018.42,-278.94 1028.96,-280.01 1027.33,-273.21"/>
</a>
</g>
</g>
<!-- Node6 -->
<g id="Node000006" class="node">
<title>Node6</title>
<g id="a_Node000006"><a xlink:href="Core_8cpp.html" target="_top" xlink:title=" ">
<polygon fill="white" stroke="#666666" points="1006.62,-168 912.62,-168 912.62,-136 1006.62,-136 1006.62,-168"/>
<text text-anchor="start" x="920.62" y="-154.5" font-family="Helvetica,sans-Serif" font-size="10.00">src/bot_library/bot</text>
<text text-anchor="middle" x="959.62" y="-142.5" font-family="Helvetica,sans-Serif" font-size="10.00">/core/Core.cpp</text>
</a>
</g>
</g>
<!-- Node5&#45;&gt;Node6 -->
<g id="edge5_Node000005_Node000006" class="edge">
<title>Node5&#45;&gt;Node6</title>
<g id="a_edge5_Node000005_Node000006"><a xlink:title=" ">
<path fill="none" stroke="#63b8ff" d="M959.62,-192.31C959.62,-184.12 959.62,-175.38 959.62,-168.22"/>
<polygon fill="#63b8ff" stroke="#63b8ff" points="956.13,-192.18 959.63,-202.18 963.13,-192.18 956.13,-192.18"/>
</a>
</g>
</g>
<!-- Node7 -->
<g id="Node000007" class="node">
<title>Node7</title>
<g id="a_Node000007"><a xlink:href="Bot_8hpp.html" target="_top" xlink:title=" ">
<polygon fill="white" stroke="#666666" points="1118.62,-168 1024.62,-168 1024.62,-136 1118.62,-136 1118.62,-168"/>
<text text-anchor="start" x="1032.62" y="-154.5" font-family="Helvetica,sans-Serif" font-size="10.00">src/bot_library/bot</text>
<text text-anchor="middle" x="1071.62" y="-142.5" font-family="Helvetica,sans-Serif" font-size="10.00">/include/Bot.hpp</text>
</a>
</g>
</g>
<!-- Node5&#45;&gt;Node7 -->
<g id="edge6_Node000005_Node000007" class="edge">
<title>Node5&#45;&gt;Node7</title>
<g id="a_edge6_Node000005_Node000007"><a xlink:title=" ">
<path fill="none" stroke="#63b8ff" d="M995.6,-197.8C1011.85,-188.23 1030.67,-177.13 1045.53,-168.38"/>
<polygon fill="#63b8ff" stroke="#63b8ff" points="994.03,-194.67 987.19,-202.76 997.58,-200.7 994.03,-194.67"/>
</a>
</g>
</g>
<!-- Node13 -->
<g id="Node000013" class="node">
<title>Node13</title>
<g id="a_Node000013"><a xlink:href="ChallengeRoleCommand_8cpp.html" target="_top" xlink:title=" ">
<polygon fill="white" stroke="#666666" points="478.5,-100 266.75,-100 266.75,-68 478.5,-68 478.5,-100"/>
<text text-anchor="start" x="274.75" y="-86.5" font-family="Helvetica,sans-Serif" font-size="10.00">src/bot_library/commands</text>
<text text-anchor="middle" x="372.62" y="-74.5" font-family="Helvetica,sans-Serif" font-size="10.00">/challenge_role/ChallengeRoleCommand.cpp</text>
</a>
</g>
</g>
<!-- Node5&#45;&gt;Node13 -->
<g id="edge15_Node000005_Node000013" class="edge">
<title>Node5&#45;&gt;Node13</title>
<g id="a_edge15_Node000005_Node000013"><a xlink:title=" ">
<path fill="none" stroke="#63b8ff" d="M891.1,-216.77C775.13,-212.17 545.53,-199.33 471.62,-168 435.69,-152.77 402.87,-119.9 385.53,-100.4"/>
<polygon fill="#63b8ff" stroke="#63b8ff" points="890.66,-220.25 900.79,-217.14 890.93,-213.26 890.66,-220.25"/>
</a>
</g>
</g>
<!-- Node5&#45;&gt;Node14 -->
<g id="edge16_Node000005_Node000014" class="edge">
<title>Node5&#45;&gt;Node14</title>
<g id="a_edge16_Node000005_Node000014"><a xlink:title=" ">
<path fill="none" stroke="#63b8ff" d="M891.1,-206.87C830,-196.06 740.24,-180.18 674,-168.46"/>
<polygon fill="#63b8ff" stroke="#63b8ff" points="890.21,-210.27 900.67,-208.57 891.43,-203.38 890.21,-210.27"/>
</a>
</g>
</g>
<!-- Node16 -->
<g id="Node000016" class="node">
<title>Node16</title>
<g id="a_Node000016"><a xlink:href="HelpCommand_8cpp.html" target="_top" xlink:title=" ">
<polygon fill="white" stroke="#666666" points="1264.88,-168 1136.38,-168 1136.38,-136 1264.88,-136 1264.88,-168"/>
<text text-anchor="start" x="1144.38" y="-154.5" font-family="Helvetica,sans-Serif" font-size="10.00">src/bot_library/commands</text>
<text text-anchor="middle" x="1200.62" y="-142.5" font-family="Helvetica,sans-Serif" font-size="10.00">/help/HelpCommand.cpp</text>
</a>
</g>
</g>
<!-- Node5&#45;&gt;Node16 -->
<g id="edge19_Node000005_Node000016" class="edge">
<title>Node5&#45;&gt;Node16</title>
<g id="a_edge19_Node000005_Node000016"><a xlink:title=" ">
<path fill="none" stroke="#63b8ff" d="M1026.8,-200.6C1063.7,-190.5 1108.97,-178.1 1144.06,-168.49"/>
<polygon fill="#63b8ff" stroke="#63b8ff" points="1026.31,-197.11 1017.59,-203.13 1028.16,-203.86 1026.31,-197.11"/>
</a>
</g>
</g>
<!-- Node17 -->
<g id="Node000017" class="node">
<title>Node17</title>
<g id="a_Node000017"><a xlink:href="resource__man_8hpp.html" target="_top" xlink:title=" ">
<polygon fill="white" stroke="#666666" points="894.12,-168 749.12,-168 749.12,-136 894.12,-136 894.12,-168"/>
<text text-anchor="start" x="757.12" y="-154.5" font-family="Helvetica,sans-Serif" font-size="10.00">src/bot_library/commands</text>
<text text-anchor="middle" x="821.62" y="-142.5" font-family="Helvetica,sans-Serif" font-size="10.00">/resources/resource_man.hpp</text>
</a>
</g>
</g>
<!-- Node5&#45;&gt;Node17 -->
<g id="edge20_Node000005_Node000017" class="edge">
<title>Node5&#45;&gt;Node17</title>
<g id="a_edge20_Node000005_Node000017"><a xlink:title=" ">
<path fill="none" stroke="#63b8ff" d="M916.99,-198.61C896.6,-188.86 872.6,-177.38 853.78,-168.38"/>
<polygon fill="#63b8ff" stroke="#63b8ff" points="915.37,-201.72 925.9,-202.87 918.39,-195.4 915.37,-201.72"/>
</a>
</g>
</g>
<!-- Node5&#45;&gt;Node18 -->
<g id="edge21_Node000005_Node000018" class="edge">
<title>Node5&#45;&gt;Node18</title>
<g id="a_edge21_Node000005_Node000018"><a xlink:title=" ">
<path fill="none" stroke="#63b8ff" d="M1028.17,-203.65C1151.53,-182.33 1185.82,-187.34 1306.62,-168 1310.98,-167.3 1315.47,-166.55 1319.98,-165.75"/>
<polygon fill="#63b8ff" stroke="#63b8ff" points="1027.89,-200.15 1018.64,-205.32 1029.1,-207.04 1027.89,-200.15"/>
</a>
</g>
</g>
<!-- Node19 -->
<g id="Node000019" class="node">
<title>Node19</title>
<g id="a_Node000019"><a xlink:href="SetChannelCommand_8cpp.html" target="_top" xlink:title=" ">
<polygon fill="white" stroke="#666666" points="1573.25,-100 1384,-100 1384,-68 1573.25,-68 1573.25,-100"/>
<text text-anchor="start" x="1392" y="-86.5" font-family="Helvetica,sans-Serif" font-size="10.00">src/bot_library/commands</text>
<text text-anchor="middle" x="1478.62" y="-74.5" font-family="Helvetica,sans-Serif" font-size="10.00">/set_channel/SetChannelCommand.cpp</text>
</a>
</g>
</g>
<!-- Node5&#45;&gt;Node19 -->
<g id="edge22_Node000005_Node000019" class="edge">
<title>Node5&#45;&gt;Node19</title>
<g id="a_edge22_Node000005_Node000019"><a xlink:title=" ">
<path fill="none" stroke="#63b8ff" d="M1028.32,-203.67C1137.57,-185.5 1175.29,-212.15 1273.62,-168 1293.77,-158.96 1292.23,-146.55 1311.62,-136 1340.79,-120.14 1375.55,-108.52 1405.8,-100.41"/>
<polygon fill="#63b8ff" stroke="#63b8ff" points="1027.89,-200.19 1018.65,-205.38 1029.11,-207.09 1027.89,-200.19"/>
</a>
</g>
</g>
<!-- Node5&#45;&gt;Node20 -->
<g id="edge23_Node000005_Node000020" class="edge">
<title>Node5&#45;&gt;Node20</title>
<g id="a_edge23_Node000005_Node000020"><a xlink:title=" ">
<path fill="none" stroke="#63b8ff" d="M1028.33,-203.72C1217.99,-175.14 1269.84,-189.35 1457.62,-168 1460.62,-167.66 1463.65,-167.3 1466.72,-166.93"/>
<polygon fill="#63b8ff" stroke="#63b8ff" points="1027.98,-200.23 1018.62,-205.2 1029.04,-207.15 1027.98,-200.23"/>
</a>
</g>
</g>
<!-- Node7&#45;&gt;Node3 -->
<g id="edge7_Node000007_Node000003" class="edge">
<title>Node7&#45;&gt;Node3</title>
<g id="a_edge7_Node000007_Node000003"><a xlink:title=" ">
<path fill="none" stroke="#63b8ff" d="M1013.55,-135.37C959.74,-120.82 887.78,-101.2 886.62,-100 867.1,-79.6 866.14,-43.44 866.9,-26.39"/>
<polygon fill="#63b8ff" stroke="#63b8ff" points="1012.36,-138.67 1022.93,-137.9 1014.19,-131.91 1012.36,-138.67"/>
</a>
</g>
</g>
<!-- Node8 -->
<g id="Node000008" class="node">
<title>Node8</title>
<g id="a_Node000008"><a xlink:href="Bot_8cpp.html" target="_top" xlink:title=" ">
<polygon fill="white" stroke="#666666" points="989.62,-100 895.62,-100 895.62,-68 989.62,-68 989.62,-100"/>
<text text-anchor="start" x="903.62" y="-86.5" font-family="Helvetica,sans-Serif" font-size="10.00">src/bot_library/bot</text>
<text text-anchor="middle" x="942.62" y="-74.5" font-family="Helvetica,sans-Serif" font-size="10.00">/Bot.cpp</text>
</a>
</g>
</g>
<!-- Node7&#45;&gt;Node8 -->
<g id="edge8_Node000007_Node000008" class="edge">
<title>Node7&#45;&gt;Node8</title>
<g id="a_edge8_Node000007_Node000008"><a xlink:title=" ">
<path fill="none" stroke="#63b8ff" d="M1031.24,-130.34C1012.3,-120.65 990.11,-109.3 972.68,-100.38"/>
<polygon fill="#63b8ff" stroke="#63b8ff" points="1029.54,-133.4 1040.03,-134.84 1032.72,-127.17 1029.54,-133.4"/>
</a>
</g>
</g>
<!-- Node9 -->
<g id="Node000009" class="node">
<title>Node9</title>
<g id="a_Node000009"><a xlink:href="Commands_8hpp.html" target="_top" xlink:title=" ">
<polygon fill="white" stroke="#666666" points="1135.88,-100 1007.38,-100 1007.38,-68 1135.88,-68 1135.88,-100"/>
<text text-anchor="start" x="1015.38" y="-86.5" font-family="Helvetica,sans-Serif" font-size="10.00">src/bot_library/commands</text>
<text text-anchor="middle" x="1071.62" y="-74.5" font-family="Helvetica,sans-Serif" font-size="10.00">/include/Commands.hpp</text>
</a>
</g>
</g>
<!-- Node7&#45;&gt;Node9 -->
<g id="edge9_Node000007_Node000009" class="edge">
<title>Node7&#45;&gt;Node9</title>
<g id="a_edge9_Node000007_Node000009"><a xlink:title=" ">
<path fill="none" stroke="#63b8ff" d="M1071.62,-124.31C1071.62,-116.12 1071.62,-107.38 1071.62,-100.22"/>
<polygon fill="#63b8ff" stroke="#63b8ff" points="1068.13,-124.18 1071.63,-134.18 1075.13,-124.18 1068.13,-124.18"/>
</a>
</g>
</g>
<!-- Node11 -->
<g id="Node000011" class="node">
<title>Node11</title>
<g id="a_Node000011"><a xlink:href="PongCommand_8hpp.html" target="_top" xlink:title=" ">
<polygon fill="white" stroke="#666666" points="1283.25,-100 1154,-100 1154,-68 1283.25,-68 1283.25,-100"/>
<text text-anchor="start" x="1162" y="-86.5" font-family="Helvetica,sans-Serif" font-size="10.00">src/bot_library/commands</text>
<text text-anchor="middle" x="1218.62" y="-74.5" font-family="Helvetica,sans-Serif" font-size="10.00">/pong/PongCommand.hpp</text>
</a>
</g>
</g>
<!-- Node7&#45;&gt;Node11 -->
<g id="edge12_Node000007_Node000011" class="edge">
<title>Node7&#45;&gt;Node11</title>
<g id="a_edge12_Node000007_Node000011"><a xlink:title=" ">
<path fill="none" stroke="#63b8ff" d="M1116.41,-130.89C1138.17,-121.12 1163.91,-109.56 1184.12,-100.49"/>
<polygon fill="#63b8ff" stroke="#63b8ff" points="1115.16,-127.62 1107.47,-134.91 1118.03,-134 1115.16,-127.62"/>
</a>
</g>
</g>
<!-- Node9&#45;&gt;Node3 -->
<g id="edge10_Node000009_Node000003" class="edge">
<title>Node9&#45;&gt;Node3</title>
<g id="a_edge10_Node000009_Node000003"><a xlink:title=" ">
<path fill="none" stroke="#63b8ff" d="M1012.85,-63.99C974.85,-51.69 927.01,-36.21 896.87,-26.46"/>
<polygon fill="#63b8ff" stroke="#63b8ff" points="1011.76,-67.31 1022.36,-67.06 1013.92,-60.65 1011.76,-67.31"/>
</a>
</g>
</g>
<!-- Node10 -->
<g id="Node000010" class="node">
<title>Node10</title>
<g id="a_Node000010"><a xlink:href="Commands_8cpp.html" target="_top" xlink:title=" ">
<polygon fill="white" stroke="#666666" points="1135.88,-32 1007.38,-32 1007.38,0 1135.88,0 1135.88,-32"/>
<text text-anchor="start" x="1015.38" y="-18.5" font-family="Helvetica,sans-Serif" font-size="10.00">src/bot_library/commands</text>
<text text-anchor="middle" x="1071.62" y="-6.5" font-family="Helvetica,sans-Serif" font-size="10.00">/Commands.cpp</text>
</a>
</g>
</g>
<!-- Node9&#45;&gt;Node10 -->
<g id="edge11_Node000009_Node000010" class="edge">
<title>Node9&#45;&gt;Node10</title>
<g id="a_edge11_Node000009_Node000010"><a xlink:title=" ">
<path fill="none" stroke="#63b8ff" d="M1071.62,-56.31C1071.62,-48.12 1071.62,-39.38 1071.62,-32.22"/>
<polygon fill="#63b8ff" stroke="#63b8ff" points="1068.13,-56.18 1071.63,-66.18 1075.13,-56.18 1068.13,-56.18"/>
</a>
</g>
</g>
<!-- Node11&#45;&gt;Node10 -->
<g id="edge13_Node000011_Node000010" class="edge">
<title>Node11&#45;&gt;Node10</title>
<g id="a_edge13_Node000011_Node000010"><a xlink:title=" ">
<path fill="none" stroke="#63b8ff" d="M1173.84,-62.89C1152.08,-53.12 1126.34,-41.56 1106.13,-32.49"/>
<polygon fill="#63b8ff" stroke="#63b8ff" points="1172.22,-66 1182.78,-66.91 1175.09,-59.62 1172.22,-66"/>
</a>
</g>
</g>
<!-- Node12 -->
<g id="Node000012" class="node">
<title>Node12</title>
<g id="a_Node000012"><a xlink:href="PongCommand_8cpp.html" target="_top" xlink:title=" ">
<polygon fill="white" stroke="#666666" points="1283.25,-32 1154,-32 1154,0 1283.25,0 1283.25,-32"/>
<text text-anchor="start" x="1162" y="-18.5" font-family="Helvetica,sans-Serif" font-size="10.00">src/bot_library/commands</text>
<text text-anchor="middle" x="1218.62" y="-6.5" font-family="Helvetica,sans-Serif" font-size="10.00">/pong/PongCommand.cpp</text>
</a>
</g>
</g>
<!-- Node11&#45;&gt;Node12 -->
<g id="edge14_Node000011_Node000012" class="edge">
<title>Node11&#45;&gt;Node12</title>
<g id="a_edge14_Node000011_Node000012"><a xlink:title=" ">
<path fill="none" stroke="#63b8ff" d="M1218.62,-56.31C1218.62,-48.12 1218.62,-39.38 1218.62,-32.22"/>
<polygon fill="#63b8ff" stroke="#63b8ff" points="1215.13,-56.18 1218.63,-66.18 1222.13,-56.18 1215.13,-56.18"/>
</a>
</g>
</g>
<!-- Node14&#45;&gt;Node13 -->
<g id="edge17_Node000014_Node000013" class="edge">
<title>Node14&#45;&gt;Node13</title>
<g id="a_edge17_Node000014_Node000013"><a xlink:title=" ">
<path fill="none" stroke="#63b8ff" d="M525.71,-132.21C493.17,-122.18 453.61,-109.98 422.85,-100.49"/>
<polygon fill="#63b8ff" stroke="#63b8ff" points="524.42,-135.48 535.01,-135.08 526.48,-128.79 524.42,-135.48"/>
</a>
</g>
</g>
<!-- Node15 -->
<g id="Node000015" class="node">
<title>Node15</title>
<g id="a_Node000015"><a xlink:href="ChallengeRoleDTO_8cpp.html" target="_top" xlink:title=" ">
<polygon fill="white" stroke="#666666" points="684.5,-100 496.75,-100 496.75,-68 684.5,-68 684.5,-100"/>
<text text-anchor="start" x="504.75" y="-86.5" font-family="Helvetica,sans-Serif" font-size="10.00">src/bot_library/commands</text>
<text text-anchor="middle" x="590.62" y="-74.5" font-family="Helvetica,sans-Serif" font-size="10.00">/challenge_role/ChallengeRoleDTO.cpp</text>
</a>
</g>
</g>
<!-- Node14&#45;&gt;Node15 -->
<g id="edge18_Node000014_Node000015" class="edge">
<title>Node14&#45;&gt;Node15</title>
<g id="a_edge18_Node000014_Node000015"><a xlink:title=" ">
<path fill="none" stroke="#63b8ff" d="M588.24,-124.31C588.74,-116.12 589.27,-107.38 589.7,-100.22"/>
<polygon fill="#63b8ff" stroke="#63b8ff" points="584.76,-123.99 587.64,-134.18 591.74,-124.41 584.76,-123.99"/>
</a>
</g>
</g>
<!-- Node20&#45;&gt;Node19 -->
<g id="edge24_Node000020_Node000019" class="edge">
<title>Node20&#45;&gt;Node19</title>
<g id="a_edge24_Node000020_Node000019"><a xlink:title=" ">
<path fill="none" stroke="#63b8ff" d="M1533.45,-128.6C1521.81,-119.34 1508.59,-108.83 1498.06,-100.45"/>
<polygon fill="#63b8ff" stroke="#63b8ff" points="1531.18,-131.27 1541.19,-134.75 1535.54,-125.79 1531.18,-131.27"/>
</a>
</g>
</g>
<!-- Node23&#45;&gt;Node13 -->
<g id="edge31_Node000023_Node000013" class="edge">
<title>Node23&#45;&gt;Node13</title>
<g id="a_edge31_Node000023_Node000013"><a xlink:title=" ">
<path fill="none" stroke="#63b8ff" d="M375.83,-192.45C375.01,-164.84 373.75,-122.6 373.08,-100.19"/>
<polygon fill="#63b8ff" stroke="#63b8ff" points="372.32,-192.22 376.12,-202.12 379.32,-192.02 372.32,-192.22"/>
</a>
</g>
</g>
<!-- Node23&#45;&gt;Node15 -->
<g id="edge32_Node000023_Node000015" class="edge">
<title>Node23&#45;&gt;Node15</title>
<g id="a_edge32_Node000023_Node000015"><a xlink:title=" ">
<path fill="none" stroke="#63b8ff" d="M398.97,-195.83C417.26,-177.81 444.46,-153.09 471.62,-136 494.74,-121.46 522.72,-109.23 545.74,-100.4"/>
<polygon fill="#63b8ff" stroke="#63b8ff" points="396.89,-192.97 392.3,-202.51 401.84,-197.91 396.89,-192.97"/>
</a>
</g>
</g>
<!-- Node23&#45;&gt;Node21 -->
<g id="edge33_Node000023_Node000021" class="edge">
<title>Node23&#45;&gt;Node21</title>
<g id="a_edge33_Node000023_Node000021"><a xlink:title=" ">
<path fill="none" stroke="#63b8ff" d="M271.15,-209.04C212.23,-201.32 146.55,-188.42 125.62,-168 107.43,-150.24 105.11,-118.88 105.54,-100.21"/>
<polygon fill="#63b8ff" stroke="#63b8ff" points="270.58,-212.49 280.94,-210.28 271.46,-205.55 270.58,-212.49"/>
</a>
</g>
</g>
<!-- Node24 -->
<g id="Node000024" class="node">
<title>Node24</title>
<g id="a_Node000024"><a xlink:href="ChallengeRoleRepository_8hpp.html" target="_top" xlink:title=" ">
<polygon fill="white" stroke="#666666" points="348.25,-168 135,-168 135,-136 348.25,-136 348.25,-168"/>
<text text-anchor="start" x="143" y="-154.5" font-family="Helvetica,sans-Serif" font-size="10.00">src/bot_library/commands</text>
<text text-anchor="middle" x="241.62" y="-142.5" font-family="Helvetica,sans-Serif" font-size="10.00">/challenge_role/ChallengeRoleRepository.hpp</text>
</a>
</g>
</g>
<!-- Node23&#45;&gt;Node24 -->
<g id="edge34_Node000023_Node000024" class="edge">
<title>Node23&#45;&gt;Node24</title>
<g id="a_edge34_Node000023_Node000024"><a xlink:title=" ">
<path fill="none" stroke="#63b8ff" d="M334.64,-198.47C314.75,-188.75 291.41,-177.34 273.08,-168.38"/>
<polygon fill="#63b8ff" stroke="#63b8ff" points="333.09,-201.61 343.61,-202.86 336.17,-195.32 333.09,-201.61"/>
</a>
</g>
</g>
<!-- Node24&#45;&gt;Node13 -->
<g id="edge35_Node000024_Node000013" class="edge">
<title>Node24&#45;&gt;Node13</title>
<g id="a_edge35_Node000024_Node000013"><a xlink:title=" ">
<path fill="none" stroke="#63b8ff" d="M282.37,-130.47C301.66,-120.75 324.32,-109.34 342.1,-100.38"/>
<polygon fill="#63b8ff" stroke="#63b8ff" points="281.05,-127.22 273.69,-134.84 284.2,-133.47 281.05,-127.22"/>
</a>
</g>
</g>
<!-- Node24&#45;&gt;Node21 -->
<g id="edge36_Node000024_Node000021" class="edge">
<title>Node24&#45;&gt;Node21</title>
<g id="a_edge36_Node000024_Node000021"><a xlink:title=" ">
<path fill="none" stroke="#63b8ff" d="M199.64,-130.47C179.75,-120.75 156.41,-109.34 138.08,-100.38"/>
<polygon fill="#63b8ff" stroke="#63b8ff" points="198.09,-133.61 208.61,-134.86 201.17,-127.32 198.09,-133.61"/>
</a>
</g>
</g>
</g>
</svg>
