<?xml version="1.0" encoding="UTF-8" standalone="no"?>
<!DOCTYPE svg PUBLIC "-//W3C//DTD SVG 1.1//EN"
 "http://www.w3.org/Graphics/SVG/1.1/DTD/svg11.dtd">
<!-- Generated by graphviz version 12.2.1 (0)
 -->
<!-- Title: src/bot_library/bot/secrets/include/Secrets.hpp Pages: 1 -->
<svg width="370pt" height="108pt"
 viewBox="0.00 0.00 370.25 108.00" xmlns="http://www.w3.org/2000/svg" xmlns:xlink="http://www.w3.org/1999/xlink">
<g id="graph0" class="graph" transform="scale(1 1) rotate(0) translate(4 104)">
<title>src/bot_library/bot/secrets/include/Secrets.hpp</title>
<!-- Node1 -->
<g id="Node000001" class="node">
<title>Node1</title>
<g id="a_Node000001"><a xlink:title=" ">
<polygon fill="#999999" stroke="#666666" points="249.62,-100 109.12,-100 109.12,-68 249.62,-68 249.62,-100"/>
<text text-anchor="start" x="117.12" y="-86.5" font-family="Helvetica,sans-Serif" font-size="10.00">src/bot_library/bot</text>
<text text-anchor="middle" x="179.38" y="-74.5" font-family="Helvetica,sans-Serif" font-size="10.00">/secrets/include/Secrets.hpp</text>
</a>
</g>
</g>
<!-- Node2 -->
<g id="Node000002" class="node">
<title>Node2</title>
<g id="a_Node000002"><a xlink:href="Secrets_8cpp.html" target="_top" xlink:title=" ">
<polygon fill="white" stroke="#666666" points="106.75,-32 0,-32 0,0 106.75,0 106.75,-32"/>
<text text-anchor="start" x="8" y="-18.5" font-family="Helvetica,sans-Serif" font-size="10.00">src/bot_library/bot</text>
<text text-anchor="middle" x="53.38" y="-6.5" font-family="Helvetica,sans-Serif" font-size="10.00">/secrets/Secrets.cpp</text>
</a>
</g>
</g>
<!-- Node1&#45;&gt;Node2 -->
<g id="edge1_Node000001_Node000002" class="edge">
<title>Node1&#45;&gt;Node2</title>
<g id="a_edge1_Node000001_Node000002"><a xlink:title=" ">
<path fill="none" stroke="#63b8ff" d="M139.67,-62.2C121.23,-52.54 99.68,-41.26 82.73,-32.38"/>
<polygon fill="#63b8ff" stroke="#63b8ff" points="138.01,-65.28 148.49,-66.82 141.26,-59.08 138.01,-65.28"/>
</a>
</g>
</g>
<!-- Node3 -->
<g id="Node000003" class="node">
<title>Node3</title>
<g id="a_Node000003"><a xlink:href="AuthHandler_8cpp.html" target="_top" xlink:title=" ">
<polygon fill="white" stroke="#666666" points="234.25,-32 124.5,-32 124.5,0 234.25,0 234.25,-32"/>
<text text-anchor="start" x="132.5" y="-18.5" font-family="Helvetica,sans-Serif" font-size="10.00">src/bot_library/restapi</text>
<text text-anchor="middle" x="179.38" y="-6.5" font-family="Helvetica,sans-Serif" font-size="10.00">/AuthHandler.cpp</text>
</a>
</g>
</g>
<!-- Node1&#45;&gt;Node3 -->
<g id="edge2_Node000001_Node000003" class="edge">
<title>Node1&#45;&gt;Node3</title>
<g id="a_edge2_Node000001_Node000003"><a xlink:title=" ">
<path fill="none" stroke="#63b8ff" d="M179.38,-56.31C179.38,-48.12 179.38,-39.38 179.38,-32.22"/>
<polygon fill="#63b8ff" stroke="#63b8ff" points="175.88,-56.18 179.38,-66.18 182.88,-56.18 175.88,-56.18"/>
</a>
</g>
</g>
<!-- Node4 -->
<g id="Node000004" class="node">
<title>Node4</title>
<g id="a_Node000004"><a xlink:href="RestApi_8cpp.html" target="_top" xlink:title=" ">
<polygon fill="white" stroke="#666666" points="362.25,-32 252.5,-32 252.5,0 362.25,0 362.25,-32"/>
<text text-anchor="start" x="260.5" y="-18.5" font-family="Helvetica,sans-Serif" font-size="10.00">src/bot_library/restapi</text>
<text text-anchor="middle" x="307.38" y="-6.5" font-family="Helvetica,sans-Serif" font-size="10.00">/RestApi.cpp</text>
</a>
</g>
</g>
<!-- Node1&#45;&gt;Node4 -->
<g id="edge3_Node000001_Node000004" class="edge">
<title>Node1&#45;&gt;Node4</title>
<g id="a_edge3_Node000001_Node000004"><a xlink:title=" ">
<path fill="none" stroke="#63b8ff" d="M219.45,-62.34C238.24,-52.65 260.25,-41.3 277.55,-32.38"/>
<polygon fill="#63b8ff" stroke="#63b8ff" points="218.01,-59.14 210.73,-66.83 221.22,-65.36 218.01,-59.14"/>
</a>
</g>
</g>
</g>
</svg>
