<?xml version="1.0" encoding="UTF-8" standalone="no"?>
<!DOCTYPE svg PUBLIC "-//W3C//DTD SVG 1.1//EN"
 "http://www.w3.org/Graphics/SVG/1.1/DTD/svg11.dtd">
<!-- Generated by graphviz version 9.0.0 (0)
 -->
<!-- Title: src/bot_library/commands/server_details/ServerDetails.hpp Pages: 1 -->
<svg width="316pt" height="108pt"
 viewBox="0.00 0.00 315.62 108.00" xmlns="http://www.w3.org/2000/svg" xmlns:xlink="http://www.w3.org/1999/xlink">
<g id="graph0" class="graph" transform="scale(1 1) rotate(0) translate(4 104)">
<title>src/bot_library/commands/server_details/ServerDetails.hpp</title>
<!-- Node1 -->
<g id="Node000001" class="node">
<title>Node1</title>
<g id="a_Node000001"><a xlink:title=" ">
<polygon fill="#999999" stroke="#666666" points="225.62,-100 64.88,-100 64.88,-68 225.62,-68 225.62,-100"/>
<text text-anchor="start" x="72.88" y="-86.5" font-family="Helvetica,sans-Serif" font-size="10.00">src/bot_library/commands</text>
<text text-anchor="middle" x="145.25" y="-74.5" font-family="Helvetica,sans-Serif" font-size="10.00">/server_details/ServerDetails.hpp</text>
</a>
</g>
</g>
<!-- Node2 -->
<g id="Node000002" class="node">
<title>Node2</title>
<g id="a_Node000002"><a xlink:href="Commands_8cpp.html" target="_top" xlink:title=" ">
<polygon fill="white" stroke="#666666" points="128.5,-32 0,-32 0,0 128.5,0 128.5,-32"/>
<text text-anchor="start" x="8" y="-18.5" font-family="Helvetica,sans-Serif" font-size="10.00">src/bot_library/commands</text>
<text text-anchor="middle" x="64.25" y="-6.5" font-family="Helvetica,sans-Serif" font-size="10.00">/Commands.cpp</text>
</a>
</g>
</g>
<!-- Node1&#45;&gt;Node2 -->
<g id="edge1_Node000001_Node000002" class="edge">
<title>Node1&#45;&gt;Node2</title>
<g id="a_edge1_Node000001_Node000002"><a xlink:title=" ">
<path fill="none" stroke="#63b8ff" d="M117.76,-60.6C106.39,-51.34 93.5,-40.83 83.22,-32.45"/>
<polygon fill="#63b8ff" stroke="#63b8ff" points="115.33,-63.13 125.29,-66.74 119.75,-57.71 115.33,-63.13"/>
</a>
</g>
</g>
<!-- Node3 -->
<g id="Node000003" class="node">
<title>Node3</title>
<g id="a_Node000003"><a xlink:href="ServerDetails_8cpp.html" target="_top" xlink:title=" ">
<polygon fill="white" stroke="#666666" points="307.62,-32 146.88,-32 146.88,0 307.62,0 307.62,-32"/>
<text text-anchor="start" x="154.88" y="-18.5" font-family="Helvetica,sans-Serif" font-size="10.00">src/bot_library/commands</text>
<text text-anchor="middle" x="227.25" y="-6.5" font-family="Helvetica,sans-Serif" font-size="10.00">/server_details/ServerDetails.cpp</text>
</a>
</g>
</g>
<!-- Node1&#45;&gt;Node3 -->
<g id="edge2_Node000001_Node000003" class="edge">
<title>Node1&#45;&gt;Node3</title>
<g id="a_edge2_Node000001_Node000003"><a xlink:title=" ">
<path fill="none" stroke="#63b8ff" d="M173.08,-60.6C184.59,-51.34 197.64,-40.83 208.05,-32.45"/>
<polygon fill="#63b8ff" stroke="#63b8ff" points="171.04,-57.75 165.45,-66.74 175.43,-63.2 171.04,-57.75"/>
</a>
</g>
</g>
</g>
</svg>
