<?xml version="1.0" encoding="UTF-8" standalone="no"?>
<!DOCTYPE svg PUBLIC "-//W3C//DTD SVG 1.1//EN"
 "http://www.w3.org/Graphics/SVG/1.1/DTD/svg11.dtd">
<!-- Generated by graphviz version 9.0.0 (0)
 -->
<!-- Title: src/bot_library/commands/server_details/set_channel/repositories/WelcomeChannelRepository.hpp Pages: 1 -->
<svg width="276pt" height="220pt"
 viewBox="0.00 0.00 276.00 220.00" xmlns="http://www.w3.org/2000/svg" xmlns:xlink="http://www.w3.org/1999/xlink">
<g id="graph0" class="graph" transform="scale(1 1) rotate(0) translate(4 216)">
<title>src/bot_library/commands/server_details/set_channel/repositories/WelcomeChannelRepository.hpp</title>
<!-- Node1 -->
<g id="Node000001" class="node">
<title>Node1</title>
<g id="a_Node000001"><a xlink:title=" ">
<polygon fill="#999999" stroke="#666666" points="214,-212 0,-212 0,-168 214,-168 214,-212"/>
<text text-anchor="start" x="8" y="-198.5" font-family="Helvetica,sans-Serif" font-size="10.00">src/bot_library/commands</text>
<text text-anchor="start" x="8" y="-186.5" font-family="Helvetica,sans-Serif" font-size="10.00">/server_details/set_channel</text>
<text text-anchor="middle" x="107" y="-174.5" font-family="Helvetica,sans-Serif" font-size="10.00">/repositories/WelcomeChannelRepository.hpp</text>
</a>
</g>
</g>
<!-- Node2 -->
<g id="Node000002" class="node">
<title>Node2</title>
<g id="a_Node000002"><a xlink:href="IRepository_8hpp.html" target="_top" xlink:title=" ">
<polygon fill="white" stroke="#666666" points="86.12,-132 1.88,-132 1.88,-112 86.12,-112 86.12,-132"/>
<text text-anchor="middle" x="44" y="-118.5" font-family="Helvetica,sans-Serif" font-size="10.00">IRepository.hpp</text>
</a>
</g>
</g>
<!-- Node1&#45;&gt;Node2 -->
<g id="edge1_Node000001_Node000002" class="edge">
<title>Node1&#45;&gt;Node2</title>
<g id="a_edge1_Node000001_Node000002"><a xlink:title=" ">
<path fill="none" stroke="#63b8ff" d="M86.72,-167.75C78.37,-159.01 68.82,-149 60.86,-140.66"/>
<polygon fill="#63b8ff" stroke="#63b8ff" points="63.47,-138.33 54.04,-133.51 58.41,-143.16 63.47,-138.33"/>
</a>
</g>
</g>
<!-- Node4 -->
<g id="Node000004" class="node">
<title>Node4</title>
<g id="a_Node000004"><a xlink:href="server__details_2set__channel_2repositories_2WelcomeChannelDTO_8hpp.html" target="_top" xlink:title=" ">
<polygon fill="white" stroke="#666666" points="236.12,-132 103.88,-132 103.88,-112 236.12,-112 236.12,-132"/>
<text text-anchor="middle" x="170" y="-118.5" font-family="Helvetica,sans-Serif" font-size="10.00">WelcomeChannelDTO.hpp</text>
</a>
</g>
</g>
<!-- Node1&#45;&gt;Node4 -->
<g id="edge3_Node000001_Node000004" class="edge">
<title>Node1&#45;&gt;Node4</title>
<g id="a_edge3_Node000001_Node000004"><a xlink:title=" ">
<path fill="none" stroke="#63b8ff" d="M127.28,-167.75C135.63,-159.01 145.18,-149 153.14,-140.66"/>
<polygon fill="#63b8ff" stroke="#63b8ff" points="155.59,-143.16 159.96,-133.51 150.53,-138.33 155.59,-143.16"/>
</a>
</g>
</g>
<!-- Node3 -->
<g id="Node000003" class="node">
<title>Node3</title>
<g id="a_Node000003"><a xlink:title=" ">
<polygon fill="#e0e0e0" stroke="#999999" points="68.12,-76 19.88,-76 19.88,-56 68.12,-56 68.12,-76"/>
<text text-anchor="middle" x="44" y="-62.5" font-family="Helvetica,sans-Serif" font-size="10.00">cstddef</text>
</a>
</g>
</g>
<!-- Node2&#45;&gt;Node3 -->
<g id="edge2_Node000002_Node000003" class="edge">
<title>Node2&#45;&gt;Node3</title>
<g id="a_edge2_Node000002_Node000003"><a xlink:title=" ">
<path fill="none" stroke="#63b8ff" d="M44,-111.59C44,-105.01 44,-95.96 44,-87.73"/>
<polygon fill="#63b8ff" stroke="#63b8ff" points="47.5,-87.81 44,-77.81 40.5,-87.81 47.5,-87.81"/>
</a>
</g>
</g>
<!-- Node5 -->
<g id="Node000005" class="node">
<title>Node5</title>
<g id="a_Node000005"><a xlink:href="RowDTOAdapter_8hpp.html" target="_top" xlink:title=" ">
<polygon fill="white" stroke="#666666" points="209.88,-76 100.12,-76 100.12,-56 209.88,-56 209.88,-76"/>
<text text-anchor="middle" x="155" y="-62.5" font-family="Helvetica,sans-Serif" font-size="10.00">RowDTOAdapter.hpp</text>
</a>
</g>
</g>
<!-- Node4&#45;&gt;Node5 -->
<g id="edge4_Node000004_Node000005" class="edge">
<title>Node4&#45;&gt;Node5</title>
<g id="a_edge4_Node000004_Node000005"><a xlink:title=" ">
<path fill="none" stroke="#63b8ff" d="M167.39,-111.59C165.52,-104.86 162.93,-95.53 160.6,-87.15"/>
<polygon fill="#63b8ff" stroke="#63b8ff" points="164.04,-86.46 157.99,-77.76 157.29,-88.33 164.04,-86.46"/>
</a>
</g>
</g>
<!-- Node7 -->
<g id="Node000007" class="node">
<title>Node7</title>
<g id="a_Node000007"><a xlink:title=" ">
<polygon fill="#e0e0e0" stroke="#999999" points="268,-76 228,-76 228,-56 268,-56 268,-76"/>
<text text-anchor="middle" x="248" y="-62.5" font-family="Helvetica,sans-Serif" font-size="10.00">string</text>
</a>
</g>
</g>
<!-- Node4&#45;&gt;Node7 -->
<g id="edge6_Node000004_Node000007" class="edge">
<title>Node4&#45;&gt;Node7</title>
<g id="a_edge6_Node000004_Node000007"><a xlink:title=" ">
<path fill="none" stroke="#63b8ff" d="M183.59,-111.59C195.04,-103.67 211.66,-92.16 225.16,-82.82"/>
<polygon fill="#63b8ff" stroke="#63b8ff" points="226.83,-85.91 233.06,-77.34 222.85,-80.16 226.83,-85.91"/>
</a>
</g>
</g>
<!-- Node6 -->
<g id="Node000006" class="node">
<title>Node6</title>
<g id="a_Node000006"><a xlink:title=" ">
<polygon fill="#e0e0e0" stroke="#999999" points="185.5,-20 124.5,-20 124.5,0 185.5,0 185.5,-20"/>
<text text-anchor="middle" x="155" y="-6.5" font-family="Helvetica,sans-Serif" font-size="10.00">pqxx/pqxx</text>
</a>
</g>
</g>
<!-- Node5&#45;&gt;Node6 -->
<g id="edge5_Node000005_Node000006" class="edge">
<title>Node5&#45;&gt;Node6</title>
<g id="a_edge5_Node000005_Node000006"><a xlink:title=" ">
<path fill="none" stroke="#63b8ff" d="M155,-55.59C155,-49.01 155,-39.96 155,-31.73"/>
<polygon fill="#63b8ff" stroke="#63b8ff" points="158.5,-31.81 155,-21.81 151.5,-31.81 158.5,-31.81"/>
</a>
</g>
</g>
</g>
</svg>
