<?xml version="1.0" encoding="UTF-8" standalone="no"?>
<!DOCTYPE svg PUBLIC "-//W3C//DTD SVG 1.1//EN"
 "http://www.w3.org/Graphics/SVG/1.1/DTD/svg11.dtd">
<!-- Generated by graphviz version 9.0.0 (0)
 -->
<!-- Title: src/bot_library/commands/set_channel/SetChannelCommand.cpp Pages: 1 -->
<svg width="1997pt" height="376pt"
 viewBox="0.00 0.00 1996.75 376.00" xmlns="http://www.w3.org/2000/svg" xmlns:xlink="http://www.w3.org/1999/xlink">
<g id="graph0" class="graph" transform="scale(1 1) rotate(0) translate(4 372)">
<title>src/bot_library/commands/set_channel/SetChannelCommand.cpp</title>
<!-- Node1 -->
<g id="Node000001" class="node">
<title>Node1</title>
<g id="a_Node000001"><a xlink:title=" ">
<polygon fill="#999999" stroke="#666666" points="705.75,-368 516.5,-368 516.5,-336 705.75,-336 705.75,-368"/>
<text text-anchor="start" x="524.5" y="-354.5" font-family="Helvetica,sans-Serif" font-size="10.00">src/bot_library/commands</text>
<text text-anchor="middle" x="611.12" y="-342.5" font-family="Helvetica,sans-Serif" font-size="10.00">/set_channel/SetChannelCommand.cpp</text>
</a>
</g>
</g>
<!-- Node2 -->
<g id="Node000002" class="node">
<title>Node2</title>
<g id="a_Node000002"><a xlink:href="SetChannelCommand_8hpp.html" target="_top" xlink:title=" ">
<polygon fill="white" stroke="#666666" points="1281.5,-300 1150.75,-300 1150.75,-280 1281.5,-280 1281.5,-300"/>
<text text-anchor="middle" x="1216.12" y="-286.5" font-family="Helvetica,sans-Serif" font-size="10.00">SetChannelCommand.hpp</text>
</a>
</g>
</g>
<!-- Node1&#45;&gt;Node2 -->
<g id="edge1_Node000001_Node000002" class="edge">
<title>Node1&#45;&gt;Node2</title>
<g id="a_edge1_Node000001_Node000002"><a xlink:title=" ">
<path fill="none" stroke="#63b8ff" d="M705.99,-341.59C825.47,-329.74 1028.47,-309.61 1138.93,-298.66"/>
<polygon fill="#63b8ff" stroke="#63b8ff" points="1139.19,-302.15 1148.8,-297.68 1138.5,-295.18 1139.19,-302.15"/>
</a>
</g>
</g>
<!-- Node4 -->
<g id="Node000004" class="node">
<title>Node4</title>
<g id="a_Node000004"><a xlink:href="Core_8hpp.html" target="_top" xlink:title=" ">
<polygon fill="white" stroke="#666666" points="943,-188 887.25,-188 887.25,-168 943,-168 943,-188"/>
<text text-anchor="middle" x="915.12" y="-174.5" font-family="Helvetica,sans-Serif" font-size="10.00">Core.hpp</text>
</a>
</g>
</g>
<!-- Node1&#45;&gt;Node4 -->
<g id="edge54_Node000001_Node000004" class="edge">
<title>Node1&#45;&gt;Node4</title>
<g id="a_edge54_Node000001_Node000004"><a xlink:title=" ">
<path fill="none" stroke="#63b8ff" d="M638.37,-335.58C696.4,-302.75 831.58,-226.27 888.79,-193.9"/>
<polygon fill="#63b8ff" stroke="#63b8ff" points="890.24,-197.1 897.22,-189.13 886.79,-191.01 890.24,-197.1"/>
</a>
</g>
</g>
<!-- Node7 -->
<g id="Node000007" class="node">
<title>Node7</title>
<g id="a_Node000007"><a xlink:title=" ">
<polygon fill="#e0e0e0" stroke="#999999" points="625.25,-132 565,-132 565,-112 625.25,-112 625.25,-132"/>
<text text-anchor="middle" x="595.12" y="-118.5" font-family="Helvetica,sans-Serif" font-size="10.00">fmt/core.h</text>
</a>
</g>
</g>
<!-- Node1&#45;&gt;Node7 -->
<g id="edge53_Node000001_Node000007" class="edge">
<title>Node1&#45;&gt;Node7</title>
<g id="a_edge53_Node000001_Node000007"><a xlink:title=" ">
<path fill="none" stroke="#63b8ff" d="M610.05,-335.69C607.25,-295.8 599.73,-188.67 596.56,-143.51"/>
<polygon fill="#63b8ff" stroke="#63b8ff" points="600.08,-143.54 595.88,-133.81 593.09,-144.03 600.08,-143.54"/>
</a>
</g>
</g>
<!-- Node22 -->
<g id="Node000022" class="node">
<title>Node22</title>
<g id="a_Node000022"><a xlink:title=" ">
<polygon fill="#e0e0e0" stroke="#999999" points="1843.5,-76 1760.75,-76 1760.75,-56 1843.5,-56 1843.5,-76"/>
<text text-anchor="middle" x="1802.12" y="-62.5" font-family="Helvetica,sans-Serif" font-size="10.00">appcommand.h</text>
</a>
</g>
</g>
<!-- Node1&#45;&gt;Node22 -->
<g id="edge52_Node000001_Node000022" class="edge">
<title>Node1&#45;&gt;Node22</title>
<g id="a_edge52_Node000001_Node000022"><a xlink:title=" ">
<path fill="none" stroke="#63b8ff" d="M706.22,-347.52C1006.56,-335.89 1915.12,-295.71 1915.12,-235 1915.12,-235 1915.12,-235 1915.12,-177 1915.12,-146.9 1915.61,-134.94 1896.12,-112 1883.8,-97.5 1865.74,-87.32 1848.73,-80.35"/>
<polygon fill="#63b8ff" stroke="#63b8ff" points="1850.35,-77.22 1839.76,-76.96 1847.87,-83.77 1850.35,-77.22"/>
</a>
</g>
</g>
<!-- Node29 -->
<g id="Node000029" class="node">
<title>Node29</title>
<g id="a_Node000029"><a xlink:href="GoodbyeChannelRepository_8hpp.html" target="_top" xlink:title=" ">
<polygon fill="white" stroke="#666666" points="545.25,-188 389,-188 389,-168 545.25,-168 545.25,-188"/>
<text text-anchor="middle" x="467.12" y="-174.5" font-family="Helvetica,sans-Serif" font-size="10.00">GoodbyeChannelRepository.hpp</text>
</a>
</g>
</g>
<!-- Node1&#45;&gt;Node29 -->
<g id="edge55_Node000001_Node000029" class="edge">
<title>Node1&#45;&gt;Node29</title>
<g id="a_edge55_Node000001_Node000029"><a xlink:title=" ">
<path fill="none" stroke="#63b8ff" d="M598.35,-335.74C571.67,-303.87 510.19,-230.44 481.88,-196.63"/>
<polygon fill="#63b8ff" stroke="#63b8ff" points="484.91,-194.79 475.81,-189.37 479.54,-199.28 484.91,-194.79"/>
</a>
</g>
</g>
<!-- Node32 -->
<g id="Node000032" class="node">
<title>Node32</title>
<g id="a_Node000032"><a xlink:href="LogChannelRepository_8hpp.html" target="_top" xlink:title=" ">
<polygon fill="white" stroke="#666666" points="370.62,-188 237.62,-188 237.62,-168 370.62,-168 370.62,-188"/>
<text text-anchor="middle" x="304.12" y="-174.5" font-family="Helvetica,sans-Serif" font-size="10.00">LogChannelRepository.hpp</text>
</a>
</g>
</g>
<!-- Node1&#45;&gt;Node32 -->
<g id="edge61_Node000001_Node000032" class="edge">
<title>Node1&#45;&gt;Node32</title>
<g id="a_edge61_Node000001_Node000032"><a xlink:title=" ">
<path fill="none" stroke="#63b8ff" d="M583.61,-335.58C525,-302.75 388.5,-226.27 330.72,-193.9"/>
<polygon fill="#63b8ff" stroke="#63b8ff" points="332.64,-190.96 322.2,-189.13 329.21,-197.07 332.64,-190.96"/>
</a>
</g>
</g>
<!-- Node34 -->
<g id="Node000034" class="node">
<title>Node34</title>
<g id="a_Node000034"><a xlink:href="WelcomeChannelRepository_8hpp.html" target="_top" xlink:title=" ">
<polygon fill="white" stroke="#666666" points="220,-188 62.25,-188 62.25,-168 220,-168 220,-188"/>
<text text-anchor="middle" x="141.12" y="-174.5" font-family="Helvetica,sans-Serif" font-size="10.00">WelcomeChannelRepository.hpp</text>
</a>
</g>
</g>
<!-- Node1&#45;&gt;Node34 -->
<g id="edge66_Node000001_Node000034" class="edge">
<title>Node1&#45;&gt;Node34</title>
<g id="a_edge66_Node000001_Node000034"><a xlink:title=" ">
<path fill="none" stroke="#63b8ff" d="M569,-335.58C477.9,-302.24 263.83,-223.9 177.84,-192.43"/>
<polygon fill="#63b8ff" stroke="#63b8ff" points="179.07,-189.16 168.47,-189.01 176.66,-195.73 179.07,-189.16"/>
</a>
</g>
</g>
<!-- Node35 -->
<g id="Node000035" class="node">
<title>Node35</title>
<g id="a_Node000035"><a xlink:href="WelcomeChannelDTO_8hpp.html" target="_top" xlink:title=" ">
<polygon fill="white" stroke="#666666" points="132.25,-132 0,-132 0,-112 132.25,-112 132.25,-132"/>
<text text-anchor="middle" x="66.12" y="-118.5" font-family="Helvetica,sans-Serif" font-size="10.00">WelcomeChannelDTO.hpp</text>
</a>
</g>
</g>
<!-- Node1&#45;&gt;Node35 -->
<g id="edge72_Node000001_Node000035" class="edge">
<title>Node1&#45;&gt;Node35</title>
<g id="a_edge72_Node000001_Node000035"><a xlink:title=" ">
<path fill="none" stroke="#63b8ff" d="M552.57,-335.58C515.41,-325.69 466.36,-312.4 423.12,-300 257.98,-252.61 155.51,-325.97 53.12,-188 43.38,-174.87 48.45,-156.31 54.9,-142.37"/>
<polygon fill="#63b8ff" stroke="#63b8ff" points="57.89,-144.21 59.4,-133.73 51.68,-140.98 57.89,-144.21"/>
</a>
</g>
</g>
<!-- Node36 -->
<g id="Node000036" class="node">
<title>Node36</title>
<g id="a_Node000036"><a xlink:title=" ">
<polygon fill="#e0e0e0" stroke="#999999" points="1988.75,-300 1943.5,-300 1943.5,-280 1988.75,-280 1988.75,-300"/>
<text text-anchor="middle" x="1966.12" y="-286.5" font-family="Helvetica,sans-Serif" font-size="10.00">variant</text>
</a>
</g>
</g>
<!-- Node1&#45;&gt;Node36 -->
<g id="edge71_Node000001_Node000036" class="edge">
<title>Node1&#45;&gt;Node36</title>
<g id="a_edge71_Node000001_Node000036"><a xlink:title=" ">
<path fill="none" stroke="#63b8ff" d="M705.99,-349.79C967.11,-346.07 1692.69,-332.99 1929.12,-300 1930.13,-299.86 1931.14,-299.7 1932.16,-299.54"/>
<polygon fill="#63b8ff" stroke="#63b8ff" points="1932.57,-303.03 1941.69,-297.63 1931.19,-296.16 1932.57,-303.03"/>
</a>
</g>
</g>
<!-- Node3 -->
<g id="Node000003" class="node">
<title>Node3</title>
<g id="a_Node000003"><a xlink:href="Bot_8hpp.html" target="_top" xlink:title=" ">
<polygon fill="white" stroke="#666666" points="1241,-244 1191.25,-244 1191.25,-224 1241,-224 1241,-244"/>
<text text-anchor="middle" x="1216.12" y="-230.5" font-family="Helvetica,sans-Serif" font-size="10.00">Bot.hpp</text>
</a>
</g>
</g>
<!-- Node2&#45;&gt;Node3 -->
<g id="edge2_Node000002_Node000003" class="edge">
<title>Node2&#45;&gt;Node3</title>
<g id="a_edge2_Node000002_Node000003"><a xlink:title=" ">
<path fill="none" stroke="#63b8ff" d="M1216.12,-279.59C1216.12,-273.01 1216.12,-263.96 1216.12,-255.73"/>
<polygon fill="#63b8ff" stroke="#63b8ff" points="1219.63,-255.81 1216.13,-245.81 1212.63,-255.81 1219.63,-255.81"/>
</a>
</g>
</g>
<!-- Node23 -->
<g id="Node000023" class="node">
<title>Node23</title>
<g id="a_Node000023"><a xlink:href="IMemberCommand_8hpp.html" target="_top" xlink:title=" ">
<polygon fill="white" stroke="#666666" points="1803.12,-132 1685.12,-132 1685.12,-112 1803.12,-112 1803.12,-132"/>
<text text-anchor="middle" x="1744.12" y="-118.5" font-family="Helvetica,sans-Serif" font-size="10.00">IMemberCommand.hpp</text>
</a>
</g>
</g>
<!-- Node2&#45;&gt;Node23 -->
<g id="edge51_Node000002_Node000023" class="edge">
<title>Node2&#45;&gt;Node23</title>
<g id="a_edge51_Node000002_Node000023"><a xlink:title=" ">
<path fill="none" stroke="#63b8ff" d="M1246.03,-279.6C1335.5,-251.47 1601.23,-167.92 1703.44,-135.79"/>
<polygon fill="#63b8ff" stroke="#63b8ff" points="1704.29,-139.19 1712.78,-132.85 1702.19,-132.51 1704.29,-139.19"/>
</a>
</g>
</g>
<!-- Node3&#45;&gt;Node4 -->
<g id="edge3_Node000003_Node000004" class="edge">
<title>Node3&#45;&gt;Node4</title>
<g id="a_edge3_Node000003_Node000004"><a xlink:title=" ">
<path fill="none" stroke="#63b8ff" d="M1191.06,-228.98C1144.76,-221.48 1042.7,-204.6 957.12,-188 956.13,-187.81 955.13,-187.61 954.11,-187.41"/>
<polygon fill="#63b8ff" stroke="#63b8ff" points="955.09,-184.04 944.59,-185.46 953.69,-190.89 955.09,-184.04"/>
</a>
</g>
</g>
<!-- Node13 -->
<g id="Node000013" class="node">
<title>Node13</title>
<g id="a_Node000013"><a xlink:title=" ">
<polygon fill="#e0e0e0" stroke="#999999" points="506.12,-76 466.12,-76 466.12,-56 506.12,-56 506.12,-76"/>
<text text-anchor="middle" x="486.12" y="-62.5" font-family="Helvetica,sans-Serif" font-size="10.00">string</text>
</a>
</g>
</g>
<!-- Node3&#45;&gt;Node13 -->
<g id="edge49_Node000003_Node000013" class="edge">
<title>Node3&#45;&gt;Node13</title>
<g id="a_edge49_Node000003_Node000013"><a xlink:title=" ">
<path fill="none" stroke="#63b8ff" d="M1190.75,-231.18C1084,-223.21 671.53,-189.22 556.12,-132 533.48,-120.77 513,-99.88 500.12,-84.81"/>
<polygon fill="#63b8ff" stroke="#63b8ff" points="503.15,-82.99 494.1,-77.49 497.74,-87.43 503.15,-82.99"/>
</a>
</g>
</g>
<!-- Node15 -->
<g id="Node000015" class="node">
<title>Node15</title>
<g id="a_Node000015"><a xlink:title=" ">
<polygon fill="#e0e0e0" stroke="#999999" points="1026.62,-76 983.62,-76 983.62,-56 1026.62,-56 1026.62,-76"/>
<text text-anchor="middle" x="1005.12" y="-62.5" font-family="Helvetica,sans-Serif" font-size="10.00">vector</text>
</a>
</g>
</g>
<!-- Node3&#45;&gt;Node15 -->
<g id="edge50_Node000003_Node000015" class="edge">
<title>Node3&#45;&gt;Node15</title>
<g id="a_edge50_Node000003_Node000015"><a xlink:title=" ">
<path fill="none" stroke="#63b8ff" d="M1191.06,-231.05C1141.21,-225.62 1030.93,-205.45 990.12,-132 982.3,-117.92 987.41,-99.96 993.7,-86.48"/>
<polygon fill="#63b8ff" stroke="#63b8ff" points="996.74,-88.22 998.3,-77.75 990.54,-84.96 996.74,-88.22"/>
</a>
</g>
</g>
<!-- Node17 -->
<g id="Node000017" class="node">
<title>Node17</title>
<g id="a_Node000017"><a xlink:href="IButtonCommand_8hpp.html" target="_top" xlink:title=" ">
<polygon fill="white" stroke="#666666" points="1543.75,-132 1432.5,-132 1432.5,-112 1543.75,-112 1543.75,-132"/>
<text text-anchor="middle" x="1488.12" y="-118.5" font-family="Helvetica,sans-Serif" font-size="10.00">IButtonCommand.hpp</text>
</a>
</g>
</g>
<!-- Node3&#45;&gt;Node17 -->
<g id="edge38_Node000003_Node000017" class="edge">
<title>Node3&#45;&gt;Node17</title>
<g id="a_edge38_Node000003_Node000017"><a xlink:title=" ">
<path fill="none" stroke="#63b8ff" d="M1239.32,-223.62C1287.49,-204.14 1398.57,-159.22 1454.56,-136.57"/>
<polygon fill="#63b8ff" stroke="#63b8ff" points="1455.63,-139.92 1463.59,-132.92 1453.01,-133.43 1455.63,-139.92"/>
</a>
</g>
</g>
<!-- Node20 -->
<g id="Node000020" class="node">
<title>Node20</title>
<g id="a_Node000020"><a xlink:href="IFormCommand_8hpp.html" target="_top" xlink:title=" ">
<polygon fill="white" stroke="#666666" points="1666.75,-132 1561.5,-132 1561.5,-112 1666.75,-112 1666.75,-132"/>
<text text-anchor="middle" x="1614.12" y="-118.5" font-family="Helvetica,sans-Serif" font-size="10.00">IFormCommand.hpp</text>
</a>
</g>
</g>
<!-- Node3&#45;&gt;Node20 -->
<g id="edge39_Node000003_Node000020" class="edge">
<title>Node3&#45;&gt;Node20</title>
<g id="a_edge39_Node000003_Node000020"><a xlink:title=" ">
<path fill="none" stroke="#63b8ff" d="M1241.32,-226.04C1307.16,-207.84 1485.02,-158.68 1569.02,-135.46"/>
<polygon fill="#63b8ff" stroke="#63b8ff" points="1569.83,-138.87 1578.53,-132.84 1567.96,-132.13 1569.83,-138.87"/>
</a>
</g>
</g>
<!-- Node21 -->
<g id="Node000021" class="node">
<title>Node21</title>
<g id="a_Node000021"><a xlink:href="IGlobalSlashCommand_8hpp.html" target="_top" xlink:title=" ">
<polygon fill="white" stroke="#666666" points="1414.75,-132 1279.5,-132 1279.5,-112 1414.75,-112 1414.75,-132"/>
<text text-anchor="middle" x="1347.12" y="-118.5" font-family="Helvetica,sans-Serif" font-size="10.00">IGlobalSlashCommand.hpp</text>
</a>
</g>
</g>
<!-- Node3&#45;&gt;Node21 -->
<g id="edge40_Node000003_Node000021" class="edge">
<title>Node3&#45;&gt;Node21</title>
<g id="a_edge40_Node000003_Node000021"><a xlink:title=" ">
<path fill="none" stroke="#63b8ff" d="M1227.29,-223.62C1249.53,-204.95 1299.59,-162.92 1327.46,-139.52"/>
<polygon fill="#63b8ff" stroke="#63b8ff" points="1329.42,-142.44 1334.83,-133.33 1324.92,-137.08 1329.42,-142.44"/>
</a>
</g>
</g>
<!-- Node3&#45;&gt;Node23 -->
<g id="edge41_Node000003_Node000023" class="edge">
<title>Node3&#45;&gt;Node23</title>
<g id="a_edge41_Node000003_Node000023"><a xlink:title=" ">
<path fill="none" stroke="#63b8ff" d="M1241.24,-227.77C1321.58,-211.03 1573.73,-158.5 1687.47,-134.8"/>
<polygon fill="#63b8ff" stroke="#63b8ff" points="1688.13,-138.24 1697.21,-132.77 1686.7,-131.39 1688.13,-138.24"/>
</a>
</g>
</g>
<!-- Node24 -->
<g id="Node000024" class="node">
<title>Node24</title>
<g id="a_Node000024"><a xlink:href="IMessageCommand_8hpp.html" target="_top" xlink:title=" ">
<polygon fill="white" stroke="#666666" points="1121.38,-132 998.88,-132 998.88,-112 1121.38,-112 1121.38,-132"/>
<text text-anchor="middle" x="1060.12" y="-118.5" font-family="Helvetica,sans-Serif" font-size="10.00">IMessageCommand.hpp</text>
</a>
</g>
</g>
<!-- Node3&#45;&gt;Node24 -->
<g id="edge42_Node000003_Node000024" class="edge">
<title>Node3&#45;&gt;Node24</title>
<g id="a_edge42_Node000003_Node000024"><a xlink:title=" ">
<path fill="none" stroke="#63b8ff" d="M1191.16,-227.87C1166.4,-221.76 1128.46,-209.58 1102.12,-188 1087.2,-175.77 1075.8,-156.81 1068.67,-142.51"/>
<polygon fill="#63b8ff" stroke="#63b8ff" points="1071.93,-141.22 1064.52,-133.64 1065.59,-144.18 1071.93,-141.22"/>
</a>
</g>
</g>
<!-- Node25 -->
<g id="Node000025" class="node">
<title>Node25</title>
<g id="a_Node000025"><a xlink:href="IReactionCommand_8hpp.html" target="_top" xlink:title=" ">
<polygon fill="white" stroke="#666666" points="1261,-132 1139.25,-132 1139.25,-112 1261,-112 1261,-132"/>
<text text-anchor="middle" x="1200.12" y="-118.5" font-family="Helvetica,sans-Serif" font-size="10.00">IReactionCommand.hpp</text>
</a>
</g>
</g>
<!-- Node3&#45;&gt;Node25 -->
<g id="edge43_Node000003_Node000025" class="edge">
<title>Node3&#45;&gt;Node25</title>
<g id="a_edge43_Node000003_Node000025"><a xlink:title=" ">
<path fill="none" stroke="#63b8ff" d="M1219.4,-223.61C1223.38,-210.86 1228.98,-187.41 1224.12,-168 1221.88,-159.01 1217.46,-149.85 1213.01,-142.16"/>
<polygon fill="#63b8ff" stroke="#63b8ff" points="1216.01,-140.35 1207.75,-133.72 1210.07,-144.06 1216.01,-140.35"/>
</a>
</g>
</g>
<!-- Node26 -->
<g id="Node000026" class="node">
<title>Node26</title>
<g id="a_Node000026"><a xlink:href="IReady_8hpp.html" target="_top" xlink:title=" ">
<polygon fill="white" stroke="#666666" points="1886.88,-132 1821.38,-132 1821.38,-112 1886.88,-112 1886.88,-132"/>
<text text-anchor="middle" x="1854.12" y="-118.5" font-family="Helvetica,sans-Serif" font-size="10.00">IReady.hpp</text>
</a>
</g>
</g>
<!-- Node3&#45;&gt;Node26 -->
<g id="edge44_Node000003_Node000026" class="edge">
<title>Node3&#45;&gt;Node26</title>
<g id="a_edge44_Node000003_Node000026"><a xlink:title=" ">
<path fill="none" stroke="#63b8ff" d="M1241.48,-229.17C1322.61,-216.8 1583.36,-176.3 1810.03,-132.35"/>
<polygon fill="#63b8ff" stroke="#63b8ff" points="1810.5,-135.82 1819.65,-130.48 1809.16,-128.95 1810.5,-135.82"/>
</a>
</g>
</g>
<!-- Node27 -->
<g id="Node000027" class="node">
<title>Node27</title>
<g id="a_Node000027"><a xlink:title=" ">
<polygon fill="#e0e0e0" stroke="#999999" points="1145.5,-188 1110.75,-188 1110.75,-168 1145.5,-168 1145.5,-188"/>
<text text-anchor="middle" x="1128.12" y="-174.5" font-family="Helvetica,sans-Serif" font-size="10.00">map</text>
</a>
</g>
</g>
<!-- Node3&#45;&gt;Node27 -->
<g id="edge47_Node000003_Node000027" class="edge">
<title>Node3&#45;&gt;Node27</title>
<g id="a_edge47_Node000003_Node000027"><a xlink:title=" ">
<path fill="none" stroke="#63b8ff" d="M1200.8,-223.59C1187.63,-215.51 1168.39,-203.71 1153.02,-194.27"/>
<polygon fill="#63b8ff" stroke="#63b8ff" points="1155.22,-191.52 1144.86,-189.27 1151.56,-197.48 1155.22,-191.52"/>
</a>
</g>
</g>
<!-- Node28 -->
<g id="Node000028" class="node">
<title>Node28</title>
<g id="a_Node000028"><a xlink:title=" ">
<polygon fill="#e0e0e0" stroke="#999999" points="1214.75,-188 1163.5,-188 1163.5,-168 1214.75,-168 1214.75,-188"/>
<text text-anchor="middle" x="1189.12" y="-174.5" font-family="Helvetica,sans-Serif" font-size="10.00">memory</text>
</a>
</g>
</g>
<!-- Node3&#45;&gt;Node28 -->
<g id="edge48_Node000003_Node000028" class="edge">
<title>Node3&#45;&gt;Node28</title>
<g id="a_edge48_Node000003_Node000028"><a xlink:title=" ">
<path fill="none" stroke="#63b8ff" d="M1211.42,-223.59C1207.98,-216.7 1203.18,-207.1 1198.91,-198.57"/>
<polygon fill="#63b8ff" stroke="#63b8ff" points="1202.05,-197.03 1194.45,-189.65 1195.79,-200.16 1202.05,-197.03"/>
</a>
</g>
</g>
<!-- Node5 -->
<g id="Node000005" class="node">
<title>Node5</title>
<g id="a_Node000005"><a xlink:title=" ">
<polygon fill="#e0e0e0" stroke="#999999" points="739.5,-132 680.75,-132 680.75,-112 739.5,-112 739.5,-132"/>
<text text-anchor="middle" x="710.12" y="-118.5" font-family="Helvetica,sans-Serif" font-size="10.00">dpp/dpp.h</text>
</a>
</g>
</g>
<!-- Node4&#45;&gt;Node5 -->
<g id="edge4_Node000004_Node000005" class="edge">
<title>Node4&#45;&gt;Node5</title>
<g id="a_edge4_Node000004_Node000005"><a xlink:title=" ">
<path fill="none" stroke="#63b8ff" d="M887.05,-169.6C851.84,-160.33 791.22,-144.36 750.9,-133.74"/>
<polygon fill="#63b8ff" stroke="#63b8ff" points="751.88,-130.38 741.32,-131.22 750.09,-137.15 751.88,-130.38"/>
</a>
</g>
</g>
<!-- Node6 -->
<g id="Node000006" class="node">
<title>Node6</title>
<g id="a_Node000006"><a xlink:title=" ">
<polygon fill="#e0e0e0" stroke="#999999" points="848.62,-132 757.62,-132 757.62,-112 848.62,-112 848.62,-132"/>
<text text-anchor="middle" x="803.12" y="-118.5" font-family="Helvetica,sans-Serif" font-size="10.00">dpp/misc&#45;enum.h</text>
</a>
</g>
</g>
<!-- Node4&#45;&gt;Node6 -->
<g id="edge5_Node000004_Node000006" class="edge">
<title>Node4&#45;&gt;Node6</title>
<g id="a_edge5_Node000004_Node000006"><a xlink:title=" ">
<path fill="none" stroke="#63b8ff" d="M895.62,-167.59C878.38,-159.28 852.97,-147.03 833.14,-137.47"/>
<polygon fill="#63b8ff" stroke="#63b8ff" points="834.68,-134.33 824.15,-133.14 831.64,-140.63 834.68,-134.33"/>
</a>
</g>
</g>
<!-- Node4&#45;&gt;Node7 -->
<g id="edge6_Node000004_Node000007" class="edge">
<title>Node4&#45;&gt;Node7</title>
<g id="a_edge6_Node000004_Node000007"><a xlink:title=" ">
<path fill="none" stroke="#63b8ff" d="M886.85,-172.77C836.8,-165.21 729.37,-148.58 639.12,-132 638.29,-131.85 637.45,-131.69 636.6,-131.53"/>
<polygon fill="#63b8ff" stroke="#63b8ff" points="637.36,-128.11 626.88,-129.65 636.03,-134.99 637.36,-128.11"/>
</a>
</g>
</g>
<!-- Node8 -->
<g id="Node000008" class="node">
<title>Node8</title>
<g id="a_Node000008"><a xlink:href="Database_8hpp.html" target="_top" xlink:title=" ">
<polygon fill="white" stroke="#666666" points="943.5,-132 866.75,-132 866.75,-112 943.5,-112 943.5,-132"/>
<text text-anchor="middle" x="905.12" y="-118.5" font-family="Helvetica,sans-Serif" font-size="10.00">Database.hpp</text>
</a>
</g>
</g>
<!-- Node4&#45;&gt;Node8 -->
<g id="edge7_Node000004_Node000008" class="edge">
<title>Node4&#45;&gt;Node8</title>
<g id="a_edge7_Node000004_Node000008"><a xlink:title=" ">
<path fill="none" stroke="#63b8ff" d="M913.38,-167.59C912.15,-160.93 910.45,-151.75 908.91,-143.44"/>
<polygon fill="#63b8ff" stroke="#63b8ff" points="912.38,-142.98 907.12,-133.79 905.5,-144.26 912.38,-142.98"/>
</a>
</g>
</g>
<!-- Node4&#45;&gt;Node13 -->
<g id="edge37_Node000004_Node000013" class="edge">
<title>Node4&#45;&gt;Node13</title>
<g id="a_edge37_Node000004_Node000013"><a xlink:title=" ">
<path fill="none" stroke="#63b8ff" d="M887.1,-174.57C841.13,-169.99 747.32,-158.08 672.12,-132 654.09,-125.75 651.78,-119.25 634.12,-112 594.87,-95.87 547.68,-82.51 517.32,-74.64"/>
<polygon fill="#63b8ff" stroke="#63b8ff" points="518.19,-71.25 507.64,-72.18 516.47,-78.04 518.19,-71.25"/>
</a>
</g>
</g>
<!-- Node4&#45;&gt;Node17 -->
<g id="edge17_Node000004_Node000017" class="edge">
<title>Node4&#45;&gt;Node17</title>
<g id="a_edge17_Node000004_Node000017"><a xlink:title=" ">
<path fill="none" stroke="#63b8ff" d="M943.32,-175.02C1018.92,-169.6 1232.67,-153.57 1421.07,-132.3"/>
<polygon fill="#63b8ff" stroke="#63b8ff" points="1421.25,-135.8 1430.8,-131.19 1420.46,-128.85 1421.25,-135.8"/>
</a>
</g>
</g>
<!-- Node4&#45;&gt;Node20 -->
<g id="edge20_Node000004_Node000020" class="edge">
<title>Node4&#45;&gt;Node20</title>
<g id="a_edge20_Node000004_Node000020"><a xlink:title=" ">
<path fill="none" stroke="#63b8ff" d="M943.49,-175.77C1031.74,-171.78 1309.41,-158.01 1549.84,-132.29"/>
<polygon fill="#63b8ff" stroke="#63b8ff" points="1550.18,-135.77 1559.75,-131.21 1549.43,-128.81 1550.18,-135.77"/>
</a>
</g>
</g>
<!-- Node4&#45;&gt;Node21 -->
<g id="edge23_Node000004_Node000021" class="edge">
<title>Node4&#45;&gt;Node21</title>
<g id="a_edge23_Node000004_Node000021"><a xlink:title=" ">
<path fill="none" stroke="#63b8ff" d="M943.47,-173.46C1008.47,-165.33 1170.2,-145.12 1268.07,-132.88"/>
<polygon fill="#63b8ff" stroke="#63b8ff" points="1268.4,-136.37 1277.89,-131.65 1267.53,-129.42 1268.4,-136.37"/>
</a>
</g>
</g>
<!-- Node4&#45;&gt;Node23 -->
<g id="edge28_Node000004_Node000023" class="edge">
<title>Node4&#45;&gt;Node23</title>
<g id="a_edge28_Node000004_Node000023"><a xlink:title=" ">
<path fill="none" stroke="#63b8ff" d="M943.28,-175.61C1060.1,-169.8 1507.87,-147.11 1673.39,-132.17"/>
<polygon fill="#63b8ff" stroke="#63b8ff" points="1673.68,-135.66 1683.31,-131.25 1673.03,-128.69 1673.68,-135.66"/>
</a>
</g>
</g>
<!-- Node4&#45;&gt;Node24 -->
<g id="edge31_Node000004_Node000024" class="edge">
<title>Node4&#45;&gt;Node24</title>
<g id="a_edge31_Node000004_Node000024"><a xlink:title=" ">
<path fill="none" stroke="#63b8ff" d="M940.38,-167.59C963.53,-158.97 998.05,-146.12 1024.09,-136.42"/>
<polygon fill="#63b8ff" stroke="#63b8ff" points="1025.1,-139.78 1033.25,-133.01 1022.66,-133.22 1025.1,-139.78"/>
</a>
</g>
</g>
<!-- Node4&#45;&gt;Node25 -->
<g id="edge34_Node000004_Node000025" class="edge">
<title>Node4&#45;&gt;Node25</title>
<g id="a_edge34_Node000004_Node000025"><a xlink:title=" ">
<path fill="none" stroke="#63b8ff" d="M943.49,-171.62C988.8,-163.04 1078.51,-146.04 1138.93,-134.6"/>
<polygon fill="#63b8ff" stroke="#63b8ff" points="1139.56,-138.04 1148.74,-132.74 1138.26,-131.16 1139.56,-138.04"/>
</a>
</g>
</g>
<!-- Node9 -->
<g id="Node000009" class="node">
<title>Node9</title>
<g id="a_Node000009"><a xlink:title=" ">
<polygon fill="#e0e0e0" stroke="#999999" points="671.25,-76 623,-76 623,-56 671.25,-56 671.25,-76"/>
<text text-anchor="middle" x="647.12" y="-62.5" font-family="Helvetica,sans-Serif" font-size="10.00">cstddef</text>
</a>
</g>
</g>
<!-- Node8&#45;&gt;Node9 -->
<g id="edge8_Node000008_Node000009" class="edge">
<title>Node8&#45;&gt;Node9</title>
<g id="a_edge8_Node000008_Node000009"><a xlink:title=" ">
<path fill="none" stroke="#63b8ff" d="M866.5,-112.92C816.76,-102.51 731,-84.56 682.76,-74.46"/>
<polygon fill="#63b8ff" stroke="#63b8ff" points="683.62,-71.06 673.11,-72.44 682.18,-77.91 683.62,-71.06"/>
</a>
</g>
</g>
<!-- Node10 -->
<g id="Node000010" class="node">
<title>Node10</title>
<g id="a_Node000010"><a xlink:title=" ">
<polygon fill="#e0e0e0" stroke="#999999" points="897.88,-76 844.38,-76 844.38,-56 897.88,-56 897.88,-76"/>
<text text-anchor="middle" x="871.12" y="-62.5" font-family="Helvetica,sans-Serif" font-size="10.00">iostream</text>
</a>
</g>
</g>
<!-- Node8&#45;&gt;Node10 -->
<g id="edge9_Node000008_Node000010" class="edge">
<title>Node8&#45;&gt;Node10</title>
<g id="a_edge9_Node000008_Node000010"><a xlink:title=" ">
<path fill="none" stroke="#63b8ff" d="M899.2,-111.59C894.77,-104.55 888.55,-94.67 883.09,-86"/>
<polygon fill="#63b8ff" stroke="#63b8ff" points="886.08,-84.18 877.79,-77.58 880.15,-87.91 886.08,-84.18"/>
</a>
</g>
</g>
<!-- Node11 -->
<g id="Node000011" class="node">
<title>Node11</title>
<g id="a_Node000011"><a xlink:title=" ">
<polygon fill="#e0e0e0" stroke="#999999" points="966,-76 916.25,-76 916.25,-56 966,-56 966,-76"/>
<text text-anchor="middle" x="941.12" y="-62.5" font-family="Helvetica,sans-Serif" font-size="10.00">optional</text>
</a>
</g>
</g>
<!-- Node8&#45;&gt;Node11 -->
<g id="edge10_Node000008_Node000011" class="edge">
<title>Node8&#45;&gt;Node11</title>
<g id="a_edge10_Node000008_Node000011"><a xlink:title=" ">
<path fill="none" stroke="#63b8ff" d="M911.4,-111.59C916.14,-104.47 922.82,-94.45 928.65,-85.72"/>
<polygon fill="#63b8ff" stroke="#63b8ff" points="931.45,-87.82 934.09,-77.56 925.63,-83.94 931.45,-87.82"/>
</a>
</g>
</g>
<!-- Node12 -->
<g id="Node000012" class="node">
<title>Node12</title>
<g id="a_Node000012"><a xlink:title=" ">
<polygon fill="#e0e0e0" stroke="#999999" points="553.62,-20 492.62,-20 492.62,0 553.62,0 553.62,-20"/>
<text text-anchor="middle" x="523.12" y="-6.5" font-family="Helvetica,sans-Serif" font-size="10.00">pqxx/pqxx</text>
</a>
</g>
</g>
<!-- Node8&#45;&gt;Node12 -->
<g id="edge11_Node000008_Node000012" class="edge">
<title>Node8&#45;&gt;Node12</title>
<g id="a_edge11_Node000008_Node000012"><a xlink:title=" ">
<path fill="none" stroke="#63b8ff" d="M872.34,-111.51C828.54,-98.83 748.5,-75.68 680.12,-56 641.17,-44.79 596.77,-32.07 565.15,-23.02"/>
<polygon fill="#63b8ff" stroke="#63b8ff" points="566.14,-19.66 555.57,-20.28 564.22,-26.39 566.14,-19.66"/>
</a>
</g>
</g>
<!-- Node8&#45;&gt;Node13 -->
<g id="edge12_Node000008_Node000013" class="edge">
<title>Node8&#45;&gt;Node13</title>
<g id="a_edge12_Node000008_Node000013"><a xlink:title=" ">
<path fill="none" stroke="#63b8ff" d="M866.43,-113.37C863.63,-112.89 860.83,-112.42 858.12,-112 732.53,-92.4 581.93,-76.5 517.67,-70.08"/>
<polygon fill="#63b8ff" stroke="#63b8ff" points="518.16,-66.61 507.86,-69.1 517.47,-73.57 518.16,-66.61"/>
</a>
</g>
</g>
<!-- Node14 -->
<g id="Node000014" class="node">
<title>Node14</title>
<g id="a_Node000014"><a xlink:title=" ">
<polygon fill="#e0e0e0" stroke="#999999" points="826.12,-76 768.12,-76 768.12,-56 826.12,-56 826.12,-76"/>
<text text-anchor="middle" x="797.12" y="-62.5" font-family="Helvetica,sans-Serif" font-size="10.00">typeindex</text>
</a>
</g>
</g>
<!-- Node8&#45;&gt;Node14 -->
<g id="edge13_Node000008_Node000014" class="edge">
<title>Node8&#45;&gt;Node14</title>
<g id="a_edge13_Node000008_Node000014"><a xlink:title=" ">
<path fill="none" stroke="#63b8ff" d="M886.31,-111.59C869.77,-103.32 845.41,-91.14 826.33,-81.6"/>
<polygon fill="#63b8ff" stroke="#63b8ff" points="827.95,-78.5 817.44,-77.16 824.82,-84.76 827.95,-78.5"/>
</a>
</g>
</g>
<!-- Node8&#45;&gt;Node15 -->
<g id="edge14_Node000008_Node000015" class="edge">
<title>Node8&#45;&gt;Node15</title>
<g id="a_edge14_Node000008_Node000015"><a xlink:title=" ">
<path fill="none" stroke="#63b8ff" d="M922.54,-111.59C937.79,-103.36 960.2,-91.26 977.83,-81.74"/>
<polygon fill="#63b8ff" stroke="#63b8ff" points="979.1,-85.03 986.24,-77.2 975.78,-78.87 979.1,-85.03"/>
</a>
</g>
</g>
<!-- Node16 -->
<g id="Node000016" class="node">
<title>Node16</title>
<g id="a_Node000016"><a xlink:href="RowDTOAdapter_8hpp.html" target="_top" xlink:title=" ">
<polygon fill="white" stroke="#666666" points="396,-76 286.25,-76 286.25,-56 396,-56 396,-76"/>
<text text-anchor="middle" x="341.12" y="-62.5" font-family="Helvetica,sans-Serif" font-size="10.00">RowDTOAdapter.hpp</text>
</a>
</g>
</g>
<!-- Node8&#45;&gt;Node16 -->
<g id="edge15_Node000008_Node000016" class="edge">
<title>Node8&#45;&gt;Node16</title>
<g id="a_edge15_Node000008_Node000016"><a xlink:title=" ">
<path fill="none" stroke="#63b8ff" d="M866.45,-113.27C863.64,-112.81 860.84,-112.38 858.12,-112 814.6,-105.95 537.1,-82.98 407.57,-72.4"/>
<polygon fill="#63b8ff" stroke="#63b8ff" points="408.01,-68.92 397.76,-71.6 407.44,-75.9 408.01,-68.92"/>
</a>
</g>
</g>
<!-- Node16&#45;&gt;Node12 -->
<g id="edge16_Node000016_Node000012" class="edge">
<title>Node16&#45;&gt;Node12</title>
<g id="a_edge16_Node000016_Node000012"><a xlink:title=" ">
<path fill="none" stroke="#63b8ff" d="M372.83,-55.59C403.02,-46.63 448.65,-33.1 481.7,-23.29"/>
<polygon fill="#63b8ff" stroke="#63b8ff" points="482.35,-26.75 490.94,-20.55 480.36,-20.04 482.35,-26.75"/>
</a>
</g>
</g>
<!-- Node18 -->
<g id="Node000018" class="node">
<title>Node18</title>
<g id="a_Node000018"><a xlink:title=" ">
<polygon fill="#e0e0e0" stroke="#999999" points="1475.25,-76 1403,-76 1403,-56 1475.25,-56 1475.25,-76"/>
<text text-anchor="middle" x="1439.12" y="-62.5" font-family="Helvetica,sans-Serif" font-size="10.00">dpp/cluster.h</text>
</a>
</g>
</g>
<!-- Node17&#45;&gt;Node18 -->
<g id="edge18_Node000017_Node000018" class="edge">
<title>Node17&#45;&gt;Node18</title>
<g id="a_edge18_Node000017_Node000018"><a xlink:title=" ">
<path fill="none" stroke="#63b8ff" d="M1479.59,-111.59C1472.84,-104.16 1463.24,-93.58 1455.08,-84.58"/>
<polygon fill="#63b8ff" stroke="#63b8ff" points="1457.89,-82.47 1448.58,-77.42 1452.71,-87.18 1457.89,-82.47"/>
</a>
</g>
</g>
<!-- Node19 -->
<g id="Node000019" class="node">
<title>Node19</title>
<g id="a_Node000019"><a xlink:title=" ">
<polygon fill="#e0e0e0" stroke="#999999" points="1581.12,-76 1493.12,-76 1493.12,-56 1581.12,-56 1581.12,-76"/>
<text text-anchor="middle" x="1537.12" y="-62.5" font-family="Helvetica,sans-Serif" font-size="10.00">dpp/dispatcher.h</text>
</a>
</g>
</g>
<!-- Node17&#45;&gt;Node19 -->
<g id="edge19_Node000017_Node000019" class="edge">
<title>Node17&#45;&gt;Node19</title>
<g id="a_edge19_Node000017_Node000019"><a xlink:title=" ">
<path fill="none" stroke="#63b8ff" d="M1496.66,-111.59C1503.41,-104.16 1513.01,-93.58 1521.17,-84.58"/>
<polygon fill="#63b8ff" stroke="#63b8ff" points="1523.54,-87.18 1527.67,-77.42 1518.36,-82.47 1523.54,-87.18"/>
</a>
</g>
</g>
<!-- Node20&#45;&gt;Node18 -->
<g id="edge21_Node000020_Node000018" class="edge">
<title>Node20&#45;&gt;Node18</title>
<g id="a_edge21_Node000020_Node000018"><a xlink:title=" ">
<path fill="none" stroke="#63b8ff" d="M1583.64,-111.59C1555.09,-102.78 1512.18,-89.54 1480.53,-79.78"/>
<polygon fill="#63b8ff" stroke="#63b8ff" points="1481.88,-76.53 1471.29,-76.93 1479.82,-83.22 1481.88,-76.53"/>
</a>
</g>
</g>
<!-- Node20&#45;&gt;Node19 -->
<g id="edge22_Node000020_Node000019" class="edge">
<title>Node20&#45;&gt;Node19</title>
<g id="a_edge22_Node000020_Node000019"><a xlink:title=" ">
<path fill="none" stroke="#63b8ff" d="M1600.71,-111.59C1589.52,-103.74 1573.31,-92.38 1560.07,-83.09"/>
<polygon fill="#63b8ff" stroke="#63b8ff" points="1562.08,-80.22 1551.88,-77.35 1558.06,-85.96 1562.08,-80.22"/>
</a>
</g>
</g>
<!-- Node21&#45;&gt;Node15 -->
<g id="edge27_Node000021_Node000015" class="edge">
<title>Node21&#45;&gt;Node15</title>
<g id="a_edge27_Node000021_Node000015"><a xlink:title=" ">
<path fill="none" stroke="#63b8ff" d="M1287.16,-111.53C1214.73,-100.1 1095.46,-81.26 1038.04,-72.2"/>
<polygon fill="#63b8ff" stroke="#63b8ff" points="1038.68,-68.76 1028.26,-70.65 1037.59,-75.67 1038.68,-68.76"/>
</a>
</g>
</g>
<!-- Node21&#45;&gt;Node18 -->
<g id="edge25_Node000021_Node000018" class="edge">
<title>Node21&#45;&gt;Node18</title>
<g id="a_edge25_Node000021_Node000018"><a xlink:title=" ">
<path fill="none" stroke="#63b8ff" d="M1363.15,-111.59C1376.92,-103.51 1397.03,-91.71 1413.1,-82.27"/>
<polygon fill="#63b8ff" stroke="#63b8ff" points="1414.82,-85.33 1421.67,-77.25 1411.27,-79.29 1414.82,-85.33"/>
</a>
</g>
</g>
<!-- Node21&#45;&gt;Node19 -->
<g id="edge26_Node000021_Node000019" class="edge">
<title>Node21&#45;&gt;Node19</title>
<g id="a_edge26_Node000021_Node000019"><a xlink:title=" ">
<path fill="none" stroke="#63b8ff" d="M1380.22,-111.59C1411.5,-102.71 1458.63,-89.31 1493.07,-79.52"/>
<polygon fill="#63b8ff" stroke="#63b8ff" points="1493.65,-82.99 1502.32,-76.89 1491.74,-76.26 1493.65,-82.99"/>
</a>
</g>
</g>
<!-- Node21&#45;&gt;Node22 -->
<g id="edge24_Node000021_Node000022" class="edge">
<title>Node21&#45;&gt;Node22</title>
<g id="a_edge24_Node000021_Node000022"><a xlink:title=" ">
<path fill="none" stroke="#63b8ff" d="M1415.24,-112.92C1506.43,-102.09 1666.26,-83.13 1749.05,-73.3"/>
<polygon fill="#63b8ff" stroke="#63b8ff" points="1749.43,-76.78 1758.94,-72.12 1748.6,-69.83 1749.43,-76.78"/>
</a>
</g>
</g>
<!-- Node23&#45;&gt;Node18 -->
<g id="edge29_Node000023_Node000018" class="edge">
<title>Node23&#45;&gt;Node18</title>
<g id="a_edge29_Node000023_Node000018"><a xlink:title=" ">
<path fill="none" stroke="#63b8ff" d="M1686.73,-111.51C1636.47,-103.09 1561.17,-90.25 1486.47,-76.4"/>
<polygon fill="#63b8ff" stroke="#63b8ff" points="1487.42,-73.02 1476.95,-74.63 1486.14,-79.9 1487.42,-73.02"/>
</a>
</g>
</g>
<!-- Node23&#45;&gt;Node19 -->
<g id="edge30_Node000023_Node000019" class="edge">
<title>Node23&#45;&gt;Node19</title>
<g id="a_edge30_Node000023_Node000019"><a xlink:title=" ">
<path fill="none" stroke="#63b8ff" d="M1708.07,-111.59C1673.7,-102.63 1621.76,-89.08 1584.15,-79.27"/>
<polygon fill="#63b8ff" stroke="#63b8ff" points="1585.49,-76 1574.93,-76.86 1583.72,-82.77 1585.49,-76"/>
</a>
</g>
</g>
<!-- Node24&#45;&gt;Node18 -->
<g id="edge32_Node000024_Node000018" class="edge">
<title>Node24&#45;&gt;Node18</title>
<g id="a_edge32_Node000024_Node000018"><a xlink:title=" ">
<path fill="none" stroke="#63b8ff" d="M1121.86,-112.2C1197.21,-101.47 1323,-83.55 1391.36,-73.81"/>
<polygon fill="#63b8ff" stroke="#63b8ff" points="1391.72,-77.29 1401.13,-72.41 1390.74,-70.36 1391.72,-77.29"/>
</a>
</g>
</g>
<!-- Node24&#45;&gt;Node19 -->
<g id="edge33_Node000024_Node000019" class="edge">
<title>Node24&#45;&gt;Node19</title>
<g id="a_edge33_Node000024_Node000019"><a xlink:title=" ">
<path fill="none" stroke="#63b8ff" d="M1121.57,-113.01C1124.46,-112.66 1127.33,-112.32 1130.12,-112 1283.7,-94.32 1325.55,-97.11 1481.68,-76.25"/>
<polygon fill="#63b8ff" stroke="#63b8ff" points="1481.68,-79.79 1491.13,-74.98 1480.75,-72.85 1481.68,-79.79"/>
</a>
</g>
</g>
<!-- Node25&#45;&gt;Node18 -->
<g id="edge35_Node000025_Node000018" class="edge">
<title>Node25&#45;&gt;Node18</title>
<g id="a_edge35_Node000025_Node000018"><a xlink:title=" ">
<path fill="none" stroke="#63b8ff" d="M1242.03,-111.53C1283.81,-102.09 1347.9,-87.61 1391.56,-77.75"/>
<polygon fill="#63b8ff" stroke="#63b8ff" points="1392.29,-81.17 1401.27,-75.55 1390.75,-74.34 1392.29,-81.17"/>
</a>
</g>
</g>
<!-- Node25&#45;&gt;Node19 -->
<g id="edge36_Node000025_Node000019" class="edge">
<title>Node25&#45;&gt;Node19</title>
<g id="a_edge36_Node000025_Node000019"><a xlink:title=" ">
<path fill="none" stroke="#63b8ff" d="M1261.1,-111.54C1316.1,-102.96 1399.55,-89.83 1481.58,-76.4"/>
<polygon fill="#63b8ff" stroke="#63b8ff" points="1482.09,-79.87 1491.39,-74.8 1480.96,-72.96 1482.09,-79.87"/>
</a>
</g>
</g>
<!-- Node26&#45;&gt;Node18 -->
<g id="edge45_Node000026_Node000018" class="edge">
<title>Node26&#45;&gt;Node18</title>
<g id="a_edge45_Node000026_Node000018"><a xlink:title=" ">
<path fill="none" stroke="#63b8ff" d="M1821.17,-113.61C1818.12,-113.02 1815.07,-112.48 1812.12,-112 1670.88,-89.18 1630.99,-97.94 1486.47,-76.23"/>
<polygon fill="#63b8ff" stroke="#63b8ff" points="1487.34,-72.82 1476.92,-74.77 1486.28,-79.74 1487.34,-72.82"/>
</a>
</g>
</g>
<!-- Node26&#45;&gt;Node19 -->
<g id="edge46_Node000026_Node000019" class="edge">
<title>Node26&#45;&gt;Node19</title>
<g id="a_edge46_Node000026_Node000019"><a xlink:title=" ">
<path fill="none" stroke="#63b8ff" d="M1821.14,-113.77C1818.1,-113.15 1815.06,-112.55 1812.12,-112 1736.46,-97.71 1648.57,-83.79 1592.91,-75.31"/>
<polygon fill="#63b8ff" stroke="#63b8ff" points="1593.45,-71.85 1583.03,-73.81 1592.4,-78.77 1593.45,-71.85"/>
</a>
</g>
</g>
<!-- Node30 -->
<g id="Node000030" class="node">
<title>Node30</title>
<g id="a_Node000030"><a xlink:href="IRepository_8hpp.html" target="_top" xlink:title=" ">
<polygon fill="white" stroke="#666666" points="509.25,-132 425,-132 425,-112 509.25,-112 509.25,-132"/>
<text text-anchor="middle" x="467.12" y="-118.5" font-family="Helvetica,sans-Serif" font-size="10.00">IRepository.hpp</text>
</a>
</g>
</g>
<!-- Node29&#45;&gt;Node30 -->
<g id="edge56_Node000029_Node000030" class="edge">
<title>Node29&#45;&gt;Node30</title>
<g id="a_edge56_Node000029_Node000030"><a xlink:title=" ">
<path fill="none" stroke="#63b8ff" d="M467.12,-167.59C467.12,-161.01 467.12,-151.96 467.12,-143.73"/>
<polygon fill="#63b8ff" stroke="#63b8ff" points="470.63,-143.81 467.13,-133.81 463.63,-143.81 470.63,-143.81"/>
</a>
</g>
</g>
<!-- Node31 -->
<g id="Node000031" class="node">
<title>Node31</title>
<g id="a_Node000031"><a xlink:href="GoodbyeChannelDTO_8hpp.html" target="_top" xlink:title=" ">
<polygon fill="white" stroke="#666666" points="406.5,-132 275.75,-132 275.75,-112 406.5,-112 406.5,-132"/>
<text text-anchor="middle" x="341.12" y="-118.5" font-family="Helvetica,sans-Serif" font-size="10.00">GoodbyeChannelDTO.hpp</text>
</a>
</g>
</g>
<!-- Node29&#45;&gt;Node31 -->
<g id="edge58_Node000029_Node000031" class="edge">
<title>Node29&#45;&gt;Node31</title>
<g id="a_edge58_Node000029_Node000031"><a xlink:title=" ">
<path fill="none" stroke="#63b8ff" d="M445.18,-167.59C425.42,-159.13 396.13,-146.58 373.66,-136.94"/>
<polygon fill="#63b8ff" stroke="#63b8ff" points="375.21,-133.8 364.63,-133.08 372.45,-140.23 375.21,-133.8"/>
</a>
</g>
</g>
<!-- Node30&#45;&gt;Node9 -->
<g id="edge57_Node000030_Node000009" class="edge">
<title>Node30&#45;&gt;Node9</title>
<g id="a_edge57_Node000030_Node000009"><a xlink:title=" ">
<path fill="none" stroke="#63b8ff" d="M498.48,-111.59C530.1,-102.11 578.84,-87.48 611.81,-77.59"/>
<polygon fill="#63b8ff" stroke="#63b8ff" points="612.74,-80.97 621.31,-74.74 610.73,-74.27 612.74,-80.97"/>
</a>
</g>
</g>
<!-- Node31&#45;&gt;Node13 -->
<g id="edge60_Node000031_Node000013" class="edge">
<title>Node31&#45;&gt;Node13</title>
<g id="a_edge60_Node000031_Node000013"><a xlink:title=" ">
<path fill="none" stroke="#63b8ff" d="M366.38,-111.59C391.09,-102.39 428.76,-88.36 455.24,-78.5"/>
<polygon fill="#63b8ff" stroke="#63b8ff" points="456.26,-81.86 464.41,-75.09 453.82,-75.3 456.26,-81.86"/>
</a>
</g>
</g>
<!-- Node31&#45;&gt;Node16 -->
<g id="edge59_Node000031_Node000016" class="edge">
<title>Node31&#45;&gt;Node16</title>
<g id="a_edge59_Node000031_Node000016"><a xlink:title=" ">
<path fill="none" stroke="#63b8ff" d="M341.12,-111.59C341.12,-105.01 341.12,-95.96 341.12,-87.73"/>
<polygon fill="#63b8ff" stroke="#63b8ff" points="344.63,-87.81 341.13,-77.81 337.63,-87.81 344.63,-87.81"/>
</a>
</g>
</g>
<!-- Node32&#45;&gt;Node30 -->
<g id="edge62_Node000032_Node000030" class="edge">
<title>Node32&#45;&gt;Node30</title>
<g id="a_edge62_Node000032_Node000030"><a xlink:title=" ">
<path fill="none" stroke="#63b8ff" d="M332.52,-167.59C358.88,-158.86 398.39,-145.77 427.79,-136.03"/>
<polygon fill="#63b8ff" stroke="#63b8ff" points="428.68,-139.42 437.07,-132.96 426.48,-132.78 428.68,-139.42"/>
</a>
</g>
</g>
<!-- Node33 -->
<g id="Node000033" class="node">
<title>Node33</title>
<g id="a_Node000033"><a xlink:href="LogChannelDTO_8hpp.html" target="_top" xlink:title=" ">
<polygon fill="white" stroke="#666666" points="257.88,-132 150.38,-132 150.38,-112 257.88,-112 257.88,-132"/>
<text text-anchor="middle" x="204.12" y="-118.5" font-family="Helvetica,sans-Serif" font-size="10.00">LogChannelDTO.hpp</text>
</a>
</g>
</g>
<!-- Node32&#45;&gt;Node33 -->
<g id="edge63_Node000032_Node000033" class="edge">
<title>Node32&#45;&gt;Node33</title>
<g id="a_edge63_Node000032_Node000033"><a xlink:title=" ">
<path fill="none" stroke="#63b8ff" d="M286.71,-167.59C271.46,-159.36 249.05,-147.26 231.42,-137.74"/>
<polygon fill="#63b8ff" stroke="#63b8ff" points="233.47,-134.87 223.01,-133.2 230.15,-141.03 233.47,-134.87"/>
</a>
</g>
</g>
<!-- Node33&#45;&gt;Node13 -->
<g id="edge65_Node000033_Node000013" class="edge">
<title>Node33&#45;&gt;Node13</title>
<g id="a_edge65_Node000033_Node000013"><a xlink:title=" ">
<path fill="none" stroke="#63b8ff" d="M253.57,-111.53C311.5,-100.44 405.77,-82.39 454.59,-73.04"/>
<polygon fill="#63b8ff" stroke="#63b8ff" points="455.04,-76.52 464.2,-71.2 453.72,-69.64 455.04,-76.52"/>
</a>
</g>
</g>
<!-- Node33&#45;&gt;Node16 -->
<g id="edge64_Node000033_Node000016" class="edge">
<title>Node33&#45;&gt;Node16</title>
<g id="a_edge64_Node000033_Node000016"><a xlink:title=" ">
<path fill="none" stroke="#63b8ff" d="M227.99,-111.59C249.66,-103.05 281.89,-90.35 306.42,-80.68"/>
<polygon fill="#63b8ff" stroke="#63b8ff" points="307.65,-83.96 315.67,-77.03 305.08,-77.45 307.65,-83.96"/>
</a>
</g>
</g>
<!-- Node34&#45;&gt;Node30 -->
<g id="edge67_Node000034_Node000030" class="edge">
<title>Node34&#45;&gt;Node30</title>
<g id="a_edge67_Node000034_Node000030"><a xlink:title=" ">
<path fill="none" stroke="#63b8ff" d="M199.68,-167.53C252.68,-158.93 333.21,-145.77 413.27,-132.3"/>
<polygon fill="#63b8ff" stroke="#63b8ff" points="413.79,-135.76 423.07,-130.65 412.63,-128.86 413.79,-135.76"/>
</a>
</g>
</g>
<!-- Node34&#45;&gt;Node35 -->
<g id="edge68_Node000034_Node000035" class="edge">
<title>Node34&#45;&gt;Node35</title>
<g id="a_edge68_Node000034_Node000035"><a xlink:title=" ">
<path fill="none" stroke="#63b8ff" d="M128.06,-167.59C117.16,-159.74 101.37,-148.38 88.47,-139.09"/>
<polygon fill="#63b8ff" stroke="#63b8ff" points="90.68,-136.37 80.52,-133.36 86.59,-142.05 90.68,-136.37"/>
</a>
</g>
</g>
<!-- Node35&#45;&gt;Node13 -->
<g id="edge70_Node000035_Node000013" class="edge">
<title>Node35&#45;&gt;Node13</title>
<g id="a_edge70_Node000035_Node000013"><a xlink:title=" ">
<path fill="none" stroke="#63b8ff" d="M132.68,-112.44C224.54,-100.63 386.56,-79.8 454.62,-71.05"/>
<polygon fill="#63b8ff" stroke="#63b8ff" points="454.85,-74.55 464.33,-69.8 453.96,-67.61 454.85,-74.55"/>
</a>
</g>
</g>
<!-- Node35&#45;&gt;Node16 -->
<g id="edge69_Node000035_Node000016" class="edge">
<title>Node35&#45;&gt;Node16</title>
<g id="a_edge69_Node000035_Node000016"><a xlink:title=" ">
<path fill="none" stroke="#63b8ff" d="M114.34,-111.53C161.03,-102.36 231.91,-88.45 281.98,-78.61"/>
<polygon fill="#63b8ff" stroke="#63b8ff" points="282.34,-82.11 291.48,-76.75 280.99,-75.24 282.34,-82.11"/>
</a>
</g>
</g>
</g>
</svg>
