<?xml version="1.0" encoding="UTF-8" standalone="no"?>
<!DOCTYPE svg PUBLIC "-//W3C//DTD SVG 1.1//EN"
 "http://www.w3.org/Graphics/SVG/1.1/DTD/svg11.dtd">
<!-- Generated by graphviz version 9.0.0 (0)
 -->
<!-- Title: src/bot_library/commands/set_channel/SetChannelCommand.cpp Pages: 1 -->
<svg width="1998pt" height="376pt"
 viewBox="0.00 0.00 1997.75 376.00" xmlns="http://www.w3.org/2000/svg" xmlns:xlink="http://www.w3.org/1999/xlink">
<g id="graph0" class="graph" transform="scale(1 1) rotate(0) translate(4 372)">
<title>src/bot_library/commands/set_channel/SetChannelCommand.cpp</title>
<!-- Node1 -->
<g id="Node000001" class="node">
<title>Node1</title>
<g id="a_Node000001"><a xlink:title=" ">
<polygon fill="#999999" stroke="#666666" points="672.75,-368 483.5,-368 483.5,-336 672.75,-336 672.75,-368"/>
<text text-anchor="start" x="491.5" y="-354.5" font-family="Helvetica,sans-Serif" font-size="10.00">src/bot_library/commands</text>
<text text-anchor="middle" x="578.12" y="-342.5" font-family="Helvetica,sans-Serif" font-size="10.00">/set_channel/SetChannelCommand.cpp</text>
</a>
</g>
</g>
<!-- Node2 -->
<g id="Node000002" class="node">
<title>Node2</title>
<g id="a_Node000002"><a xlink:href="SetChannelCommand_8hpp.html" target="_top" xlink:title=" ">
<polygon fill="white" stroke="#666666" points="1328.5,-300 1197.75,-300 1197.75,-280 1328.5,-280 1328.5,-300"/>
<text text-anchor="middle" x="1263.12" y="-286.5" font-family="Helvetica,sans-Serif" font-size="10.00">SetChannelCommand.hpp</text>
</a>
</g>
</g>
<!-- Node1&#45;&gt;Node2 -->
<g id="edge1_Node000001_Node000002" class="edge">
<title>Node1&#45;&gt;Node2</title>
<g id="a_edge1_Node000001_Node000002"><a xlink:title=" ">
<path fill="none" stroke="#63b8ff" d="M673.01,-342.69C809.79,-330.71 1059.76,-308.81 1185.92,-297.76"/>
<polygon fill="#63b8ff" stroke="#63b8ff" points="1186.2,-301.25 1195.86,-296.89 1185.59,-294.28 1186.2,-301.25"/>
</a>
</g>
</g>
<!-- Node4 -->
<g id="Node000004" class="node">
<title>Node4</title>
<g id="a_Node000004"><a xlink:href="Core_8hpp.html" target="_top" xlink:title=" ">
<polygon fill="white" stroke="#666666" points="1089,-188 1033.25,-188 1033.25,-168 1089,-168 1089,-188"/>
<text text-anchor="middle" x="1061.12" y="-174.5" font-family="Helvetica,sans-Serif" font-size="10.00">Core.hpp</text>
</a>
</g>
</g>
<!-- Node1&#45;&gt;Node4 -->
<g id="edge54_Node000001_Node000004" class="edge">
<title>Node1&#45;&gt;Node4</title>
<g id="a_edge54_Node000001_Node000004"><a xlink:title=" ">
<path fill="none" stroke="#63b8ff" d="M621.41,-335.58C715.13,-302.21 935.48,-223.74 1023.67,-192.34"/>
<polygon fill="#63b8ff" stroke="#63b8ff" points="1024.81,-195.65 1033.06,-189 1022.46,-189.05 1024.81,-195.65"/>
</a>
</g>
</g>
<!-- Node7 -->
<g id="Node000007" class="node">
<title>Node7</title>
<g id="a_Node000007"><a xlink:title=" ">
<polygon fill="#e0e0e0" stroke="#999999" points="588.25,-132 528,-132 528,-112 588.25,-112 588.25,-132"/>
<text text-anchor="middle" x="558.12" y="-118.5" font-family="Helvetica,sans-Serif" font-size="10.00">fmt/core.h</text>
</a>
</g>
</g>
<!-- Node1&#45;&gt;Node7 -->
<g id="edge53_Node000001_Node000007" class="edge">
<title>Node1&#45;&gt;Node7</title>
<g id="a_edge53_Node000001_Node000007"><a xlink:title=" ">
<path fill="none" stroke="#63b8ff" d="M576.78,-335.69C573.28,-295.8 563.89,-188.67 559.92,-143.51"/>
<polygon fill="#63b8ff" stroke="#63b8ff" points="563.43,-143.47 559.07,-133.81 556.46,-144.08 563.43,-143.47"/>
</a>
</g>
</g>
<!-- Node22 -->
<g id="Node000022" class="node">
<title>Node22</title>
<g id="a_Node000022"><a xlink:title=" ">
<polygon fill="#e0e0e0" stroke="#999999" points="1844.5,-76 1761.75,-76 1761.75,-56 1844.5,-56 1844.5,-76"/>
<text text-anchor="middle" x="1803.12" y="-62.5" font-family="Helvetica,sans-Serif" font-size="10.00">appcommand.h</text>
</a>
</g>
</g>
<!-- Node1&#45;&gt;Node22 -->
<g id="edge52_Node000001_Node000022" class="edge">
<title>Node1&#45;&gt;Node22</title>
<g id="a_edge52_Node000001_Node000022"><a xlink:title=" ">
<path fill="none" stroke="#63b8ff" d="M673.01,-347.74C978.41,-336.64 1916.12,-297.46 1916.12,-235 1916.12,-235 1916.12,-235 1916.12,-177 1916.12,-146.9 1916.61,-134.94 1897.12,-112 1884.8,-97.5 1866.74,-87.32 1849.73,-80.35"/>
<polygon fill="#63b8ff" stroke="#63b8ff" points="1851.35,-77.22 1840.76,-76.96 1848.87,-83.77 1851.35,-77.22"/>
</a>
</g>
</g>
<!-- Node29 -->
<g id="Node000029" class="node">
<title>Node29</title>
<g id="a_Node000029"><a xlink:title=" ">
<polygon fill="#e0e0e0" stroke="#999999" points="1989.75,-300 1944.5,-300 1944.5,-280 1989.75,-280 1989.75,-300"/>
<text text-anchor="middle" x="1967.12" y="-286.5" font-family="Helvetica,sans-Serif" font-size="10.00">variant</text>
</a>
</g>
</g>
<!-- Node1&#45;&gt;Node29 -->
<g id="edge55_Node000001_Node000029" class="edge">
<title>Node1&#45;&gt;Node29</title>
<g id="a_edge55_Node000001_Node000029"><a xlink:title=" ">
<path fill="none" stroke="#63b8ff" d="M673.04,-349.9C938.83,-346.42 1686.86,-333.82 1930.12,-300 1931.13,-299.86 1932.14,-299.71 1933.17,-299.54"/>
<polygon fill="#63b8ff" stroke="#63b8ff" points="1933.57,-303.03 1942.69,-297.64 1932.19,-296.16 1933.57,-303.03"/>
</a>
</g>
</g>
<!-- Node30 -->
<g id="Node000030" class="node">
<title>Node30</title>
<g id="a_Node000030"><a xlink:href="WelcomeChannelRepository_8hpp.html" target="_top" xlink:title=" ">
<polygon fill="white" stroke="#666666" points="225,-188 67.25,-188 67.25,-168 225,-168 225,-188"/>
<text text-anchor="middle" x="146.12" y="-174.5" font-family="Helvetica,sans-Serif" font-size="10.00">WelcomeChannelRepository.hpp</text>
</a>
</g>
</g>
<!-- Node1&#45;&gt;Node30 -->
<g id="edge56_Node000001_Node000030" class="edge">
<title>Node1&#45;&gt;Node30</title>
<g id="a_edge56_Node000001_Node000030"><a xlink:title=" ">
<path fill="none" stroke="#63b8ff" d="M539.41,-335.58C455.84,-302.31 259.71,-224.22 180.35,-192.63"/>
<polygon fill="#63b8ff" stroke="#63b8ff" points="181.95,-189.5 171.36,-189.05 179.36,-196 181.95,-189.5"/>
</a>
</g>
</g>
<!-- Node32 -->
<g id="Node000032" class="node">
<title>Node32</title>
<g id="a_Node000032"><a xlink:href="WelcomeChannelDTO_8hpp.html" target="_top" xlink:title=" ">
<polygon fill="white" stroke="#666666" points="132.25,-132 0,-132 0,-112 132.25,-112 132.25,-132"/>
<text text-anchor="middle" x="66.12" y="-118.5" font-family="Helvetica,sans-Serif" font-size="10.00">WelcomeChannelDTO.hpp</text>
</a>
</g>
</g>
<!-- Node1&#45;&gt;Node32 -->
<g id="edge72_Node000001_Node000032" class="edge">
<title>Node1&#45;&gt;Node32</title>
<g id="a_edge72_Node000001_Node000032"><a xlink:title=" ">
<path fill="none" stroke="#63b8ff" d="M523.93,-335.54C489.54,-325.62 444.13,-312.34 404.12,-300 249.67,-252.38 153.2,-318.71 58.12,-188 48.72,-175.07 52.06,-156.73 56.98,-142.83"/>
<polygon fill="#63b8ff" stroke="#63b8ff" points="60.13,-144.39 60.67,-133.81 53.65,-141.74 60.13,-144.39"/>
</a>
</g>
</g>
<!-- Node33 -->
<g id="Node000033" class="node">
<title>Node33</title>
<g id="a_Node000033"><a xlink:href="GoodbyeChannelRepository_8hpp.html" target="_top" xlink:title=" ">
<polygon fill="white" stroke="#666666" points="550.25,-188 394,-188 394,-168 550.25,-168 550.25,-188"/>
<text text-anchor="middle" x="472.12" y="-174.5" font-family="Helvetica,sans-Serif" font-size="10.00">GoodbyeChannelRepository.hpp</text>
</a>
</g>
</g>
<!-- Node1&#45;&gt;Node33 -->
<g id="edge62_Node000001_Node000033" class="edge">
<title>Node1&#45;&gt;Node33</title>
<g id="a_edge62_Node000001_Node000033"><a xlink:title=" ">
<path fill="none" stroke="#63b8ff" d="M568.72,-335.74C549.33,-304.28 504.98,-232.32 483.8,-197.95"/>
<polygon fill="#63b8ff" stroke="#63b8ff" points="486.82,-196.17 478.59,-189.5 480.86,-199.85 486.82,-196.17"/>
</a>
</g>
</g>
<!-- Node35 -->
<g id="Node000035" class="node">
<title>Node35</title>
<g id="a_Node000035"><a xlink:href="LogChannelRepository_8hpp.html" target="_top" xlink:title=" ">
<polygon fill="white" stroke="#666666" points="375.62,-188 242.62,-188 242.62,-168 375.62,-168 375.62,-188"/>
<text text-anchor="middle" x="309.12" y="-174.5" font-family="Helvetica,sans-Serif" font-size="10.00">LogChannelRepository.hpp</text>
</a>
</g>
</g>
<!-- Node1&#45;&gt;Node35 -->
<g id="edge67_Node000001_Node000035" class="edge">
<title>Node1&#45;&gt;Node35</title>
<g id="a_edge67_Node000001_Node000035"><a xlink:title=" ">
<path fill="none" stroke="#63b8ff" d="M554.25,-335.74C503.37,-303.2 384.7,-227.32 333.43,-194.54"/>
<polygon fill="#63b8ff" stroke="#63b8ff" points="335.43,-191.66 325.12,-189.22 331.65,-197.56 335.43,-191.66"/>
</a>
</g>
</g>
<!-- Node3 -->
<g id="Node000003" class="node">
<title>Node3</title>
<g id="a_Node000003"><a xlink:href="Bot_8hpp.html" target="_top" xlink:title=" ">
<polygon fill="white" stroke="#666666" points="1288,-244 1238.25,-244 1238.25,-224 1288,-224 1288,-244"/>
<text text-anchor="middle" x="1263.12" y="-230.5" font-family="Helvetica,sans-Serif" font-size="10.00">Bot.hpp</text>
</a>
</g>
</g>
<!-- Node2&#45;&gt;Node3 -->
<g id="edge2_Node000002_Node000003" class="edge">
<title>Node2&#45;&gt;Node3</title>
<g id="a_edge2_Node000002_Node000003"><a xlink:title=" ">
<path fill="none" stroke="#63b8ff" d="M1263.12,-279.59C1263.12,-273.01 1263.12,-263.96 1263.12,-255.73"/>
<polygon fill="#63b8ff" stroke="#63b8ff" points="1266.63,-255.81 1263.13,-245.81 1259.63,-255.81 1266.63,-255.81"/>
</a>
</g>
</g>
<!-- Node23 -->
<g id="Node000023" class="node">
<title>Node23</title>
<g id="a_Node000023"><a xlink:href="IMemberCommand_8hpp.html" target="_top" xlink:title=" ">
<polygon fill="white" stroke="#666666" points="1804.12,-132 1686.12,-132 1686.12,-112 1804.12,-112 1804.12,-132"/>
<text text-anchor="middle" x="1745.12" y="-118.5" font-family="Helvetica,sans-Serif" font-size="10.00">IMemberCommand.hpp</text>
</a>
</g>
</g>
<!-- Node2&#45;&gt;Node23 -->
<g id="edge51_Node000002_Node000023" class="edge">
<title>Node2&#45;&gt;Node23</title>
<g id="a_edge51_Node000002_Node000023"><a xlink:title=" ">
<path fill="none" stroke="#63b8ff" d="M1290.42,-279.6C1371.85,-251.56 1613.21,-168.43 1707.13,-136.09"/>
<polygon fill="#63b8ff" stroke="#63b8ff" points="1708.08,-139.46 1716.4,-132.89 1705.81,-132.84 1708.08,-139.46"/>
</a>
</g>
</g>
<!-- Node3&#45;&gt;Node4 -->
<g id="edge3_Node000003_Node000004" class="edge">
<title>Node3&#45;&gt;Node4</title>
<g id="a_edge3_Node000003_Node000004"><a xlink:title=" ">
<path fill="none" stroke="#63b8ff" d="M1237.95,-226.27C1203.42,-217.04 1141.01,-200.35 1100.33,-189.48"/>
<polygon fill="#63b8ff" stroke="#63b8ff" points="1101.24,-186.1 1090.68,-186.9 1099.44,-192.86 1101.24,-186.1"/>
</a>
</g>
</g>
<!-- Node13 -->
<g id="Node000013" class="node">
<title>Node13</title>
<g id="a_Node000013"><a xlink:title=" ">
<polygon fill="#e0e0e0" stroke="#999999" points="598.12,-76 558.12,-76 558.12,-56 598.12,-56 598.12,-76"/>
<text text-anchor="middle" x="578.12" y="-62.5" font-family="Helvetica,sans-Serif" font-size="10.00">string</text>
</a>
</g>
</g>
<!-- Node3&#45;&gt;Node13 -->
<g id="edge49_Node000003_Node000013" class="edge">
<title>Node3&#45;&gt;Node13</title>
<g id="a_edge49_Node000003_Node000013"><a xlink:title=" ">
<path fill="none" stroke="#63b8ff" d="M1238.06,-231.3C1134.45,-223.93 740.09,-192.36 633.12,-132 614.06,-121.24 598.65,-101.19 589.05,-86.18"/>
<polygon fill="#63b8ff" stroke="#63b8ff" points="592.06,-84.4 583.89,-77.66 586.07,-88.02 592.06,-84.4"/>
</a>
</g>
</g>
<!-- Node15 -->
<g id="Node000015" class="node">
<title>Node15</title>
<g id="a_Node000015"><a xlink:title=" ">
<polygon fill="#e0e0e0" stroke="#999999" points="1027.62,-76 984.62,-76 984.62,-56 1027.62,-56 1027.62,-76"/>
<text text-anchor="middle" x="1006.12" y="-62.5" font-family="Helvetica,sans-Serif" font-size="10.00">vector</text>
</a>
</g>
</g>
<!-- Node3&#45;&gt;Node15 -->
<g id="edge50_Node000003_Node000015" class="edge">
<title>Node3&#45;&gt;Node15</title>
<g id="a_edge50_Node000003_Node000015"><a xlink:title=" ">
<path fill="none" stroke="#63b8ff" d="M1237.97,-230.89C1183.85,-225.94 1058.51,-212.14 1024.12,-188 993.99,-166.84 985.23,-148.35 991.12,-112 992.48,-103.68 995.14,-94.82 997.86,-87.18"/>
<polygon fill="#63b8ff" stroke="#63b8ff" points="1001.13,-88.43 1001.45,-77.84 994.59,-85.92 1001.13,-88.43"/>
</a>
</g>
</g>
<!-- Node17 -->
<g id="Node000017" class="node">
<title>Node17</title>
<g id="a_Node000017"><a xlink:href="IButtonCommand_8hpp.html" target="_top" xlink:title=" ">
<polygon fill="white" stroke="#666666" points="1544.75,-132 1433.5,-132 1433.5,-112 1544.75,-112 1544.75,-132"/>
<text text-anchor="middle" x="1489.12" y="-118.5" font-family="Helvetica,sans-Serif" font-size="10.00">IButtonCommand.hpp</text>
</a>
</g>
</g>
<!-- Node3&#45;&gt;Node17 -->
<g id="edge38_Node000003_Node000017" class="edge">
<title>Node3&#45;&gt;Node17</title>
<g id="a_edge38_Node000003_Node000017"><a xlink:title=" ">
<path fill="none" stroke="#63b8ff" d="M1282.39,-223.62C1322.01,-204.34 1412.8,-160.15 1459.77,-137.29"/>
<polygon fill="#63b8ff" stroke="#63b8ff" points="1461.08,-140.54 1468.54,-133.02 1458.02,-134.25 1461.08,-140.54"/>
</a>
</g>
</g>
<!-- Node20 -->
<g id="Node000020" class="node">
<title>Node20</title>
<g id="a_Node000020"><a xlink:href="IFormCommand_8hpp.html" target="_top" xlink:title=" ">
<polygon fill="white" stroke="#666666" points="1667.75,-132 1562.5,-132 1562.5,-112 1667.75,-112 1667.75,-132"/>
<text text-anchor="middle" x="1615.12" y="-118.5" font-family="Helvetica,sans-Serif" font-size="10.00">IFormCommand.hpp</text>
</a>
</g>
</g>
<!-- Node3&#45;&gt;Node20 -->
<g id="edge39_Node000003_Node000020" class="edge">
<title>Node3&#45;&gt;Node20</title>
<g id="a_edge39_Node000003_Node000020"><a xlink:title=" ">
<path fill="none" stroke="#63b8ff" d="M1288.44,-225.09C1348.64,-206.28 1500.79,-158.73 1574.22,-135.78"/>
<polygon fill="#63b8ff" stroke="#63b8ff" points="1574.94,-139.22 1583.44,-132.9 1572.85,-132.54 1574.94,-139.22"/>
</a>
</g>
</g>
<!-- Node21 -->
<g id="Node000021" class="node">
<title>Node21</title>
<g id="a_Node000021"><a xlink:href="IGlobalSlashCommand_8hpp.html" target="_top" xlink:title=" ">
<polygon fill="white" stroke="#666666" points="1415.75,-132 1280.5,-132 1280.5,-112 1415.75,-112 1415.75,-132"/>
<text text-anchor="middle" x="1348.12" y="-118.5" font-family="Helvetica,sans-Serif" font-size="10.00">IGlobalSlashCommand.hpp</text>
</a>
</g>
</g>
<!-- Node3&#45;&gt;Node21 -->
<g id="edge40_Node000003_Node000021" class="edge">
<title>Node3&#45;&gt;Node21</title>
<g id="a_edge40_Node000003_Node000021"><a xlink:title=" ">
<path fill="none" stroke="#63b8ff" d="M1270.37,-223.62C1284.42,-205.44 1315.6,-165.09 1333.92,-141.38"/>
<polygon fill="#63b8ff" stroke="#63b8ff" points="1336.63,-143.61 1339.97,-133.55 1331.09,-139.33 1336.63,-143.61"/>
</a>
</g>
</g>
<!-- Node3&#45;&gt;Node23 -->
<g id="edge41_Node000003_Node000023" class="edge">
<title>Node3&#45;&gt;Node23</title>
<g id="a_edge41_Node000003_Node000023"><a xlink:title=" ">
<path fill="none" stroke="#63b8ff" d="M1288.36,-227.24C1363.88,-210.01 1589.25,-158.57 1692.46,-135.02"/>
<polygon fill="#63b8ff" stroke="#63b8ff" points="1693.09,-138.47 1702.06,-132.83 1691.53,-131.64 1693.09,-138.47"/>
</a>
</g>
</g>
<!-- Node24 -->
<g id="Node000024" class="node">
<title>Node24</title>
<g id="a_Node000024"><a xlink:href="IMessageCommand_8hpp.html" target="_top" xlink:title=" ">
<polygon fill="white" stroke="#666666" points="1122.38,-132 999.88,-132 999.88,-112 1122.38,-112 1122.38,-132"/>
<text text-anchor="middle" x="1061.12" y="-118.5" font-family="Helvetica,sans-Serif" font-size="10.00">IMessageCommand.hpp</text>
</a>
</g>
</g>
<!-- Node3&#45;&gt;Node24 -->
<g id="edge42_Node000003_Node000024" class="edge">
<title>Node3&#45;&gt;Node24</title>
<g id="a_edge42_Node000003_Node000024"><a xlink:title=" ">
<path fill="none" stroke="#63b8ff" d="M1237.82,-225.13C1214.14,-217.28 1178.16,-204.09 1149.12,-188 1123.89,-174.02 1097.63,-153.75 1080.44,-139.57"/>
<polygon fill="#63b8ff" stroke="#63b8ff" points="1082.95,-137.12 1073.04,-133.38 1078.46,-142.48 1082.95,-137.12"/>
</a>
</g>
</g>
<!-- Node25 -->
<g id="Node000025" class="node">
<title>Node25</title>
<g id="a_Node000025"><a xlink:href="IReactionCommand_8hpp.html" target="_top" xlink:title=" ">
<polygon fill="white" stroke="#666666" points="1262,-132 1140.25,-132 1140.25,-112 1262,-112 1262,-132"/>
<text text-anchor="middle" x="1201.12" y="-118.5" font-family="Helvetica,sans-Serif" font-size="10.00">IReactionCommand.hpp</text>
</a>
</g>
</g>
<!-- Node3&#45;&gt;Node25 -->
<g id="edge43_Node000003_Node000025" class="edge">
<title>Node3&#45;&gt;Node25</title>
<g id="a_edge43_Node000003_Node000025"><a xlink:title=" ">
<path fill="none" stroke="#63b8ff" d="M1267.6,-223.52C1273.17,-210.25 1280.82,-185.76 1271.12,-168 1263.81,-154.59 1250.59,-144.58 1237.6,-137.45"/>
<polygon fill="#63b8ff" stroke="#63b8ff" points="1239.21,-134.35 1228.7,-133.02 1236.09,-140.61 1239.21,-134.35"/>
</a>
</g>
</g>
<!-- Node26 -->
<g id="Node000026" class="node">
<title>Node26</title>
<g id="a_Node000026"><a xlink:href="IReady_8hpp.html" target="_top" xlink:title=" ">
<polygon fill="white" stroke="#666666" points="1887.88,-132 1822.38,-132 1822.38,-112 1887.88,-112 1887.88,-132"/>
<text text-anchor="middle" x="1855.12" y="-118.5" font-family="Helvetica,sans-Serif" font-size="10.00">IReady.hpp</text>
</a>
</g>
</g>
<!-- Node3&#45;&gt;Node26 -->
<g id="edge44_Node000003_Node000026" class="edge">
<title>Node3&#45;&gt;Node26</title>
<g id="a_edge44_Node000003_Node000026"><a xlink:title=" ">
<path fill="none" stroke="#63b8ff" d="M1288.4,-228.69C1365.22,-215.51 1602.83,-174.24 1810.98,-132.39"/>
<polygon fill="#63b8ff" stroke="#63b8ff" points="1811.53,-135.85 1820.64,-130.45 1810.15,-128.99 1811.53,-135.85"/>
</a>
</g>
</g>
<!-- Node27 -->
<g id="Node000027" class="node">
<title>Node27</title>
<g id="a_Node000027"><a xlink:title=" ">
<polygon fill="#e0e0e0" stroke="#999999" points="1192.5,-188 1157.75,-188 1157.75,-168 1192.5,-168 1192.5,-188"/>
<text text-anchor="middle" x="1175.12" y="-174.5" font-family="Helvetica,sans-Serif" font-size="10.00">map</text>
</a>
</g>
</g>
<!-- Node3&#45;&gt;Node27 -->
<g id="edge47_Node000003_Node000027" class="edge">
<title>Node3&#45;&gt;Node27</title>
<g id="a_edge47_Node000003_Node000027"><a xlink:title=" ">
<path fill="none" stroke="#63b8ff" d="M1247.8,-223.59C1234.63,-215.51 1215.39,-203.71 1200.02,-194.27"/>
<polygon fill="#63b8ff" stroke="#63b8ff" points="1202.22,-191.52 1191.86,-189.27 1198.56,-197.48 1202.22,-191.52"/>
</a>
</g>
</g>
<!-- Node28 -->
<g id="Node000028" class="node">
<title>Node28</title>
<g id="a_Node000028"><a xlink:title=" ">
<polygon fill="#e0e0e0" stroke="#999999" points="1261.75,-188 1210.5,-188 1210.5,-168 1261.75,-168 1261.75,-188"/>
<text text-anchor="middle" x="1236.12" y="-174.5" font-family="Helvetica,sans-Serif" font-size="10.00">memory</text>
</a>
</g>
</g>
<!-- Node3&#45;&gt;Node28 -->
<g id="edge48_Node000003_Node000028" class="edge">
<title>Node3&#45;&gt;Node28</title>
<g id="a_edge48_Node000003_Node000028"><a xlink:title=" ">
<path fill="none" stroke="#63b8ff" d="M1258.42,-223.59C1254.98,-216.7 1250.18,-207.1 1245.91,-198.57"/>
<polygon fill="#63b8ff" stroke="#63b8ff" points="1249.05,-197.03 1241.45,-189.65 1242.79,-200.16 1249.05,-197.03"/>
</a>
</g>
</g>
<!-- Node5 -->
<g id="Node000005" class="node">
<title>Node5</title>
<g id="a_Node000005"><a xlink:title=" ">
<polygon fill="#e0e0e0" stroke="#999999" points="740.5,-132 681.75,-132 681.75,-112 740.5,-112 740.5,-132"/>
<text text-anchor="middle" x="711.12" y="-118.5" font-family="Helvetica,sans-Serif" font-size="10.00">dpp/dpp.h</text>
</a>
</g>
</g>
<!-- Node4&#45;&gt;Node5 -->
<g id="edge4_Node000004_Node000005" class="edge">
<title>Node4&#45;&gt;Node5</title>
<g id="a_edge4_Node000004_Node000005"><a xlink:title=" ">
<path fill="none" stroke="#63b8ff" d="M1033.02,-173.8C980,-167.58 861.38,-152.81 752.16,-132.45"/>
<polygon fill="#63b8ff" stroke="#63b8ff" points="752.9,-129.02 742.43,-130.61 751.61,-135.9 752.9,-129.02"/>
</a>
</g>
</g>
<!-- Node6 -->
<g id="Node000006" class="node">
<title>Node6</title>
<g id="a_Node000006"><a xlink:title=" ">
<polygon fill="#e0e0e0" stroke="#999999" points="849.62,-132 758.62,-132 758.62,-112 849.62,-112 849.62,-132"/>
<text text-anchor="middle" x="804.12" y="-118.5" font-family="Helvetica,sans-Serif" font-size="10.00">dpp/misc&#45;enum.h</text>
</a>
</g>
</g>
<!-- Node4&#45;&gt;Node6 -->
<g id="edge5_Node000004_Node000006" class="edge">
<title>Node4&#45;&gt;Node6</title>
<g id="a_edge5_Node000004_Node000006"><a xlink:title=" ">
<path fill="none" stroke="#63b8ff" d="M1033.13,-171.12C991.84,-162.44 913.72,-146.03 860.32,-134.81"/>
<polygon fill="#63b8ff" stroke="#63b8ff" points="861.31,-131.44 850.8,-132.81 859.87,-138.29 861.31,-131.44"/>
</a>
</g>
</g>
<!-- Node4&#45;&gt;Node7 -->
<g id="edge6_Node000004_Node000007" class="edge">
<title>Node4&#45;&gt;Node7</title>
<g id="a_edge6_Node000004_Node000007"><a xlink:title=" ">
<path fill="none" stroke="#63b8ff" d="M1033.04,-174.03C965.4,-166.86 788.11,-148.03 640.12,-132 627.04,-130.58 612.79,-129.02 599.89,-127.61"/>
<polygon fill="#63b8ff" stroke="#63b8ff" points="600.32,-124.13 590,-126.52 599.56,-131.09 600.32,-124.13"/>
</a>
</g>
</g>
<!-- Node8 -->
<g id="Node000008" class="node">
<title>Node8</title>
<g id="a_Node000008"><a xlink:href="Database_8hpp.html" target="_top" xlink:title=" ">
<polygon fill="white" stroke="#666666" points="944.5,-132 867.75,-132 867.75,-112 944.5,-112 944.5,-132"/>
<text text-anchor="middle" x="906.12" y="-118.5" font-family="Helvetica,sans-Serif" font-size="10.00">Database.hpp</text>
</a>
</g>
</g>
<!-- Node4&#45;&gt;Node8 -->
<g id="edge7_Node000004_Node000008" class="edge">
<title>Node4&#45;&gt;Node8</title>
<g id="a_edge7_Node000004_Node000008"><a xlink:title=" ">
<path fill="none" stroke="#63b8ff" d="M1034.13,-167.59C1009.16,-158.9 971.82,-145.89 943.9,-136.16"/>
<polygon fill="#63b8ff" stroke="#63b8ff" points="945.36,-132.96 934.76,-132.98 943.06,-139.57 945.36,-132.96"/>
</a>
</g>
</g>
<!-- Node4&#45;&gt;Node13 -->
<g id="edge37_Node000004_Node000013" class="edge">
<title>Node4&#45;&gt;Node13</title>
<g id="a_edge37_Node000004_Node000013"><a xlink:title=" ">
<path fill="none" stroke="#63b8ff" d="M1032.85,-175.48C955.07,-171.04 739.34,-156.76 673.12,-132 643.79,-121.04 614.78,-99.14 596.68,-83.81"/>
<polygon fill="#63b8ff" stroke="#63b8ff" points="599.25,-81.4 589.41,-77.47 594.65,-86.68 599.25,-81.4"/>
</a>
</g>
</g>
<!-- Node4&#45;&gt;Node17 -->
<g id="edge17_Node000004_Node000017" class="edge">
<title>Node4&#45;&gt;Node17</title>
<g id="a_edge17_Node000004_Node000017"><a xlink:title=" ">
<path fill="none" stroke="#63b8ff" d="M1089.46,-173.66C1149.01,-166.61 1291.74,-149.52 1421.94,-132.4"/>
<polygon fill="#63b8ff" stroke="#63b8ff" points="1422.33,-135.88 1431.78,-131.11 1421.41,-128.94 1422.33,-135.88"/>
</a>
</g>
</g>
<!-- Node4&#45;&gt;Node20 -->
<g id="edge20_Node000004_Node000020" class="edge">
<title>Node4&#45;&gt;Node20</title>
<g id="a_edge20_Node000004_Node000020"><a xlink:title=" ">
<path fill="none" stroke="#63b8ff" d="M1089.25,-174.03C1106.52,-172.23 1129.1,-169.91 1149.12,-168 1325.33,-151.16 1372.73,-153.11 1550.88,-132.33"/>
<polygon fill="#63b8ff" stroke="#63b8ff" points="1551.22,-135.81 1560.75,-131.17 1550.41,-128.86 1551.22,-135.81"/>
</a>
</g>
</g>
<!-- Node4&#45;&gt;Node21 -->
<g id="edge23_Node000004_Node000021" class="edge">
<title>Node4&#45;&gt;Node21</title>
<g id="a_edge23_Node000004_Node000021"><a xlink:title=" ">
<path fill="none" stroke="#63b8ff" d="M1089.43,-171.67C1135.03,-163.1 1225.79,-146.02 1286.75,-134.55"/>
<polygon fill="#63b8ff" stroke="#63b8ff" points="1287.1,-138.04 1296.28,-132.76 1285.8,-131.16 1287.1,-138.04"/>
</a>
</g>
</g>
<!-- Node4&#45;&gt;Node23 -->
<g id="edge28_Node000004_Node000023" class="edge">
<title>Node4&#45;&gt;Node23</title>
<g id="a_edge28_Node000004_Node000023"><a xlink:title=" ">
<path fill="none" stroke="#63b8ff" d="M1089.24,-173.88C1106.51,-172.02 1129.08,-169.71 1149.12,-168 1379.83,-148.34 1441.18,-155.22 1674.57,-132.19"/>
<polygon fill="#63b8ff" stroke="#63b8ff" points="1674.7,-135.7 1684.31,-131.23 1674.01,-128.73 1674.7,-135.7"/>
</a>
</g>
</g>
<!-- Node4&#45;&gt;Node24 -->
<g id="edge31_Node000004_Node000024" class="edge">
<title>Node4&#45;&gt;Node24</title>
<g id="a_edge31_Node000004_Node000024"><a xlink:title=" ">
<path fill="none" stroke="#63b8ff" d="M1061.12,-167.59C1061.12,-161.01 1061.12,-151.96 1061.12,-143.73"/>
<polygon fill="#63b8ff" stroke="#63b8ff" points="1064.63,-143.81 1061.13,-133.81 1057.63,-143.81 1064.63,-143.81"/>
</a>
</g>
</g>
<!-- Node4&#45;&gt;Node25 -->
<g id="edge34_Node000004_Node000025" class="edge">
<title>Node4&#45;&gt;Node25</title>
<g id="a_edge34_Node000004_Node000025"><a xlink:title=" ">
<path fill="none" stroke="#63b8ff" d="M1085.51,-167.59C1107.76,-159.01 1140.89,-146.23 1165.99,-136.55"/>
<polygon fill="#63b8ff" stroke="#63b8ff" points="1167.07,-139.89 1175.14,-133.02 1164.55,-133.36 1167.07,-139.89"/>
</a>
</g>
</g>
<!-- Node9 -->
<g id="Node000009" class="node">
<title>Node9</title>
<g id="a_Node000009"><a xlink:title=" ">
<polygon fill="#e0e0e0" stroke="#999999" points="692.25,-76 644,-76 644,-56 692.25,-56 692.25,-76"/>
<text text-anchor="middle" x="668.12" y="-62.5" font-family="Helvetica,sans-Serif" font-size="10.00">cstddef</text>
</a>
</g>
</g>
<!-- Node8&#45;&gt;Node9 -->
<g id="edge8_Node000008_Node000009" class="edge">
<title>Node8&#45;&gt;Node9</title>
<g id="a_edge8_Node000008_Node000009"><a xlink:title=" ">
<path fill="none" stroke="#63b8ff" d="M867.36,-112.2C822.01,-101.92 747.58,-85.03 703.67,-75.07"/>
<polygon fill="#63b8ff" stroke="#63b8ff" points="704.68,-71.7 694.15,-72.91 703.13,-78.53 704.68,-71.7"/>
</a>
</g>
</g>
<!-- Node10 -->
<g id="Node000010" class="node">
<title>Node10</title>
<g id="a_Node000010"><a xlink:title=" ">
<polygon fill="#e0e0e0" stroke="#999999" points="898.88,-76 845.38,-76 845.38,-56 898.88,-56 898.88,-76"/>
<text text-anchor="middle" x="872.12" y="-62.5" font-family="Helvetica,sans-Serif" font-size="10.00">iostream</text>
</a>
</g>
</g>
<!-- Node8&#45;&gt;Node10 -->
<g id="edge9_Node000008_Node000010" class="edge">
<title>Node8&#45;&gt;Node10</title>
<g id="a_edge9_Node000008_Node000010"><a xlink:title=" ">
<path fill="none" stroke="#63b8ff" d="M900.2,-111.59C895.77,-104.55 889.55,-94.67 884.09,-86"/>
<polygon fill="#63b8ff" stroke="#63b8ff" points="887.08,-84.18 878.79,-77.58 881.15,-87.91 887.08,-84.18"/>
</a>
</g>
</g>
<!-- Node11 -->
<g id="Node000011" class="node">
<title>Node11</title>
<g id="a_Node000011"><a xlink:title=" ">
<polygon fill="#e0e0e0" stroke="#999999" points="967,-76 917.25,-76 917.25,-56 967,-56 967,-76"/>
<text text-anchor="middle" x="942.12" y="-62.5" font-family="Helvetica,sans-Serif" font-size="10.00">optional</text>
</a>
</g>
</g>
<!-- Node8&#45;&gt;Node11 -->
<g id="edge10_Node000008_Node000011" class="edge">
<title>Node8&#45;&gt;Node11</title>
<g id="a_edge10_Node000008_Node000011"><a xlink:title=" ">
<path fill="none" stroke="#63b8ff" d="M912.4,-111.59C917.14,-104.47 923.82,-94.45 929.65,-85.72"/>
<polygon fill="#63b8ff" stroke="#63b8ff" points="932.45,-87.82 935.09,-77.56 926.63,-83.94 932.45,-87.82"/>
</a>
</g>
</g>
<!-- Node12 -->
<g id="Node000012" class="node">
<title>Node12</title>
<g id="a_Node000012"><a xlink:title=" ">
<polygon fill="#e0e0e0" stroke="#999999" points="605.62,-20 544.62,-20 544.62,0 605.62,0 605.62,-20"/>
<text text-anchor="middle" x="575.12" y="-6.5" font-family="Helvetica,sans-Serif" font-size="10.00">pqxx/pqxx</text>
</a>
</g>
</g>
<!-- Node8&#45;&gt;Node12 -->
<g id="edge11_Node000008_Node000012" class="edge">
<title>Node8&#45;&gt;Node12</title>
<g id="a_edge11_Node000008_Node000012"><a xlink:title=" ">
<path fill="none" stroke="#63b8ff" d="M874.11,-111.52C844.46,-102.65 799.17,-88.87 760.12,-76 708.41,-58.95 649.1,-37.83 611.87,-24.38"/>
<polygon fill="#63b8ff" stroke="#63b8ff" points="613.08,-21.1 602.48,-20.99 610.69,-27.68 613.08,-21.1"/>
</a>
</g>
</g>
<!-- Node8&#45;&gt;Node13 -->
<g id="edge12_Node000008_Node000013" class="edge">
<title>Node8&#45;&gt;Node13</title>
<g id="a_edge12_Node000008_Node000013"><a xlink:title=" ">
<path fill="none" stroke="#63b8ff" d="M867.41,-113.49C864.61,-112.98 861.83,-112.47 859.12,-112 834.85,-107.73 677.73,-82.78 609.58,-71.98"/>
<polygon fill="#63b8ff" stroke="#63b8ff" points="610.23,-68.54 599.81,-70.43 609.14,-75.46 610.23,-68.54"/>
</a>
</g>
</g>
<!-- Node14 -->
<g id="Node000014" class="node">
<title>Node14</title>
<g id="a_Node000014"><a xlink:title=" ">
<polygon fill="#e0e0e0" stroke="#999999" points="827.12,-76 769.12,-76 769.12,-56 827.12,-56 827.12,-76"/>
<text text-anchor="middle" x="798.12" y="-62.5" font-family="Helvetica,sans-Serif" font-size="10.00">typeindex</text>
</a>
</g>
</g>
<!-- Node8&#45;&gt;Node14 -->
<g id="edge13_Node000008_Node000014" class="edge">
<title>Node8&#45;&gt;Node14</title>
<g id="a_edge13_Node000008_Node000014"><a xlink:title=" ">
<path fill="none" stroke="#63b8ff" d="M887.31,-111.59C870.77,-103.32 846.41,-91.14 827.33,-81.6"/>
<polygon fill="#63b8ff" stroke="#63b8ff" points="828.95,-78.5 818.44,-77.16 825.82,-84.76 828.95,-78.5"/>
</a>
</g>
</g>
<!-- Node8&#45;&gt;Node15 -->
<g id="edge14_Node000008_Node000015" class="edge">
<title>Node8&#45;&gt;Node15</title>
<g id="a_edge14_Node000008_Node000015"><a xlink:title=" ">
<path fill="none" stroke="#63b8ff" d="M923.54,-111.59C938.79,-103.36 961.2,-91.26 978.83,-81.74"/>
<polygon fill="#63b8ff" stroke="#63b8ff" points="980.1,-85.03 987.24,-77.2 976.78,-78.87 980.1,-85.03"/>
</a>
</g>
</g>
<!-- Node16 -->
<g id="Node000016" class="node">
<title>Node16</title>
<g id="a_Node000016"><a xlink:href="RowDTOAdapter_8hpp.html" target="_top" xlink:title=" ">
<polygon fill="white" stroke="#666666" points="499,-76 389.25,-76 389.25,-56 499,-56 499,-76"/>
<text text-anchor="middle" x="444.12" y="-62.5" font-family="Helvetica,sans-Serif" font-size="10.00">RowDTOAdapter.hpp</text>
</a>
</g>
</g>
<!-- Node8&#45;&gt;Node16 -->
<g id="edge15_Node000008_Node000016" class="edge">
<title>Node8&#45;&gt;Node16</title>
<g id="a_edge15_Node000008_Node000016"><a xlink:title=" ">
<path fill="none" stroke="#63b8ff" d="M867.44,-113.33C864.63,-112.86 861.84,-112.41 859.12,-112 736.72,-93.67 592.94,-79.77 510.77,-72.55"/>
<polygon fill="#63b8ff" stroke="#63b8ff" points="511.13,-69.07 500.86,-71.68 510.52,-76.04 511.13,-69.07"/>
</a>
</g>
</g>
<!-- Node16&#45;&gt;Node12 -->
<g id="edge16_Node000016_Node000012" class="edge">
<title>Node16&#45;&gt;Node12</title>
<g id="a_edge16_Node000016_Node000012"><a xlink:title=" ">
<path fill="none" stroke="#63b8ff" d="M466.94,-55.59C487.57,-47.09 518.21,-34.46 541.62,-24.81"/>
<polygon fill="#63b8ff" stroke="#63b8ff" points="542.82,-28.1 550.73,-21.06 540.15,-21.63 542.82,-28.1"/>
</a>
</g>
</g>
<!-- Node18 -->
<g id="Node000018" class="node">
<title>Node18</title>
<g id="a_Node000018"><a xlink:title=" ">
<polygon fill="#e0e0e0" stroke="#999999" points="1476.25,-76 1404,-76 1404,-56 1476.25,-56 1476.25,-76"/>
<text text-anchor="middle" x="1440.12" y="-62.5" font-family="Helvetica,sans-Serif" font-size="10.00">dpp/cluster.h</text>
</a>
</g>
</g>
<!-- Node17&#45;&gt;Node18 -->
<g id="edge18_Node000017_Node000018" class="edge">
<title>Node17&#45;&gt;Node18</title>
<g id="a_edge18_Node000017_Node000018"><a xlink:title=" ">
<path fill="none" stroke="#63b8ff" d="M1480.59,-111.59C1473.84,-104.16 1464.24,-93.58 1456.08,-84.58"/>
<polygon fill="#63b8ff" stroke="#63b8ff" points="1458.89,-82.47 1449.58,-77.42 1453.71,-87.18 1458.89,-82.47"/>
</a>
</g>
</g>
<!-- Node19 -->
<g id="Node000019" class="node">
<title>Node19</title>
<g id="a_Node000019"><a xlink:title=" ">
<polygon fill="#e0e0e0" stroke="#999999" points="1582.12,-76 1494.12,-76 1494.12,-56 1582.12,-56 1582.12,-76"/>
<text text-anchor="middle" x="1538.12" y="-62.5" font-family="Helvetica,sans-Serif" font-size="10.00">dpp/dispatcher.h</text>
</a>
</g>
</g>
<!-- Node17&#45;&gt;Node19 -->
<g id="edge19_Node000017_Node000019" class="edge">
<title>Node17&#45;&gt;Node19</title>
<g id="a_edge19_Node000017_Node000019"><a xlink:title=" ">
<path fill="none" stroke="#63b8ff" d="M1497.66,-111.59C1504.41,-104.16 1514.01,-93.58 1522.17,-84.58"/>
<polygon fill="#63b8ff" stroke="#63b8ff" points="1524.54,-87.18 1528.67,-77.42 1519.36,-82.47 1524.54,-87.18"/>
</a>
</g>
</g>
<!-- Node20&#45;&gt;Node18 -->
<g id="edge21_Node000020_Node000018" class="edge">
<title>Node20&#45;&gt;Node18</title>
<g id="a_edge21_Node000020_Node000018"><a xlink:title=" ">
<path fill="none" stroke="#63b8ff" d="M1584.64,-111.59C1556.09,-102.78 1513.18,-89.54 1481.53,-79.78"/>
<polygon fill="#63b8ff" stroke="#63b8ff" points="1482.88,-76.53 1472.29,-76.93 1480.82,-83.22 1482.88,-76.53"/>
</a>
</g>
</g>
<!-- Node20&#45;&gt;Node19 -->
<g id="edge22_Node000020_Node000019" class="edge">
<title>Node20&#45;&gt;Node19</title>
<g id="a_edge22_Node000020_Node000019"><a xlink:title=" ">
<path fill="none" stroke="#63b8ff" d="M1601.71,-111.59C1590.52,-103.74 1574.31,-92.38 1561.07,-83.09"/>
<polygon fill="#63b8ff" stroke="#63b8ff" points="1563.08,-80.22 1552.88,-77.35 1559.06,-85.96 1563.08,-80.22"/>
</a>
</g>
</g>
<!-- Node21&#45;&gt;Node15 -->
<g id="edge27_Node000021_Node000015" class="edge">
<title>Node21&#45;&gt;Node15</title>
<g id="a_edge27_Node000021_Node000015"><a xlink:title=" ">
<path fill="none" stroke="#63b8ff" d="M1288.16,-111.53C1215.73,-100.1 1096.46,-81.26 1039.04,-72.2"/>
<polygon fill="#63b8ff" stroke="#63b8ff" points="1039.68,-68.76 1029.26,-70.65 1038.59,-75.67 1039.68,-68.76"/>
</a>
</g>
</g>
<!-- Node21&#45;&gt;Node18 -->
<g id="edge25_Node000021_Node000018" class="edge">
<title>Node21&#45;&gt;Node18</title>
<g id="a_edge25_Node000021_Node000018"><a xlink:title=" ">
<path fill="none" stroke="#63b8ff" d="M1364.15,-111.59C1377.92,-103.51 1398.03,-91.71 1414.1,-82.27"/>
<polygon fill="#63b8ff" stroke="#63b8ff" points="1415.82,-85.33 1422.67,-77.25 1412.27,-79.29 1415.82,-85.33"/>
</a>
</g>
</g>
<!-- Node21&#45;&gt;Node19 -->
<g id="edge26_Node000021_Node000019" class="edge">
<title>Node21&#45;&gt;Node19</title>
<g id="a_edge26_Node000021_Node000019"><a xlink:title=" ">
<path fill="none" stroke="#63b8ff" d="M1381.22,-111.59C1412.5,-102.71 1459.63,-89.31 1494.07,-79.52"/>
<polygon fill="#63b8ff" stroke="#63b8ff" points="1494.65,-82.99 1503.32,-76.89 1492.74,-76.26 1494.65,-82.99"/>
</a>
</g>
</g>
<!-- Node21&#45;&gt;Node22 -->
<g id="edge24_Node000021_Node000022" class="edge">
<title>Node21&#45;&gt;Node22</title>
<g id="a_edge24_Node000021_Node000022"><a xlink:title=" ">
<path fill="none" stroke="#63b8ff" d="M1416.24,-112.92C1507.43,-102.09 1667.26,-83.13 1750.05,-73.3"/>
<polygon fill="#63b8ff" stroke="#63b8ff" points="1750.43,-76.78 1759.94,-72.12 1749.6,-69.83 1750.43,-76.78"/>
</a>
</g>
</g>
<!-- Node23&#45;&gt;Node18 -->
<g id="edge29_Node000023_Node000018" class="edge">
<title>Node23&#45;&gt;Node18</title>
<g id="a_edge29_Node000023_Node000018"><a xlink:title=" ">
<path fill="none" stroke="#63b8ff" d="M1687.73,-111.51C1637.47,-103.09 1562.17,-90.25 1487.47,-76.4"/>
<polygon fill="#63b8ff" stroke="#63b8ff" points="1488.42,-73.02 1477.95,-74.63 1487.14,-79.9 1488.42,-73.02"/>
</a>
</g>
</g>
<!-- Node23&#45;&gt;Node19 -->
<g id="edge30_Node000023_Node000019" class="edge">
<title>Node23&#45;&gt;Node19</title>
<g id="a_edge30_Node000023_Node000019"><a xlink:title=" ">
<path fill="none" stroke="#63b8ff" d="M1709.07,-111.59C1674.7,-102.63 1622.76,-89.08 1585.15,-79.27"/>
<polygon fill="#63b8ff" stroke="#63b8ff" points="1586.49,-76 1575.93,-76.86 1584.72,-82.77 1586.49,-76"/>
</a>
</g>
</g>
<!-- Node24&#45;&gt;Node18 -->
<g id="edge32_Node000024_Node000018" class="edge">
<title>Node24&#45;&gt;Node18</title>
<g id="a_edge32_Node000024_Node000018"><a xlink:title=" ">
<path fill="none" stroke="#63b8ff" d="M1122.86,-112.2C1198.21,-101.47 1324,-83.55 1392.36,-73.81"/>
<polygon fill="#63b8ff" stroke="#63b8ff" points="1392.72,-77.29 1402.13,-72.41 1391.74,-70.36 1392.72,-77.29"/>
</a>
</g>
</g>
<!-- Node24&#45;&gt;Node19 -->
<g id="edge33_Node000024_Node000019" class="edge">
<title>Node24&#45;&gt;Node19</title>
<g id="a_edge33_Node000024_Node000019"><a xlink:title=" ">
<path fill="none" stroke="#63b8ff" d="M1122.57,-113.01C1125.46,-112.66 1128.33,-112.32 1131.12,-112 1284.7,-94.32 1326.55,-97.11 1482.68,-76.25"/>
<polygon fill="#63b8ff" stroke="#63b8ff" points="1482.68,-79.79 1492.13,-74.98 1481.75,-72.85 1482.68,-79.79"/>
</a>
</g>
</g>
<!-- Node25&#45;&gt;Node18 -->
<g id="edge35_Node000025_Node000018" class="edge">
<title>Node25&#45;&gt;Node18</title>
<g id="a_edge35_Node000025_Node000018"><a xlink:title=" ">
<path fill="none" stroke="#63b8ff" d="M1243.03,-111.53C1284.81,-102.09 1348.9,-87.61 1392.56,-77.75"/>
<polygon fill="#63b8ff" stroke="#63b8ff" points="1393.29,-81.17 1402.27,-75.55 1391.75,-74.34 1393.29,-81.17"/>
</a>
</g>
</g>
<!-- Node25&#45;&gt;Node19 -->
<g id="edge36_Node000025_Node000019" class="edge">
<title>Node25&#45;&gt;Node19</title>
<g id="a_edge36_Node000025_Node000019"><a xlink:title=" ">
<path fill="none" stroke="#63b8ff" d="M1262.1,-111.54C1317.1,-102.96 1400.55,-89.83 1482.58,-76.4"/>
<polygon fill="#63b8ff" stroke="#63b8ff" points="1483.09,-79.87 1492.39,-74.8 1481.96,-72.96 1483.09,-79.87"/>
</a>
</g>
</g>
<!-- Node26&#45;&gt;Node18 -->
<g id="edge45_Node000026_Node000018" class="edge">
<title>Node26&#45;&gt;Node18</title>
<g id="a_edge45_Node000026_Node000018"><a xlink:title=" ">
<path fill="none" stroke="#63b8ff" d="M1822.17,-113.61C1819.12,-113.02 1816.07,-112.48 1813.12,-112 1671.88,-89.18 1631.99,-97.94 1487.47,-76.23"/>
<polygon fill="#63b8ff" stroke="#63b8ff" points="1488.34,-72.82 1477.92,-74.77 1487.28,-79.74 1488.34,-72.82"/>
</a>
</g>
</g>
<!-- Node26&#45;&gt;Node19 -->
<g id="edge46_Node000026_Node000019" class="edge">
<title>Node26&#45;&gt;Node19</title>
<g id="a_edge46_Node000026_Node000019"><a xlink:title=" ">
<path fill="none" stroke="#63b8ff" d="M1822.14,-113.77C1819.1,-113.15 1816.06,-112.55 1813.12,-112 1737.46,-97.71 1649.57,-83.79 1593.91,-75.31"/>
<polygon fill="#63b8ff" stroke="#63b8ff" points="1594.45,-71.85 1584.03,-73.81 1593.4,-78.77 1594.45,-71.85"/>
</a>
</g>
</g>
<!-- Node31 -->
<g id="Node000031" class="node">
<title>Node31</title>
<g id="a_Node000031"><a xlink:href="IRepository_8hpp.html" target="_top" xlink:title=" ">
<polygon fill="white" stroke="#666666" points="360.25,-132 276,-132 276,-112 360.25,-112 360.25,-132"/>
<text text-anchor="middle" x="318.12" y="-118.5" font-family="Helvetica,sans-Serif" font-size="10.00">IRepository.hpp</text>
</a>
</g>
</g>
<!-- Node30&#45;&gt;Node31 -->
<g id="edge57_Node000030_Node000031" class="edge">
<title>Node30&#45;&gt;Node31</title>
<g id="a_edge57_Node000030_Node000031"><a xlink:title=" ">
<path fill="none" stroke="#63b8ff" d="M176.09,-167.59C204.03,-158.82 245.96,-145.66 277.02,-135.9"/>
<polygon fill="#63b8ff" stroke="#63b8ff" points="277.99,-139.27 286.49,-132.93 275.9,-132.59 277.99,-139.27"/>
</a>
</g>
</g>
<!-- Node30&#45;&gt;Node32 -->
<g id="edge59_Node000030_Node000032" class="edge">
<title>Node30&#45;&gt;Node32</title>
<g id="a_edge59_Node000030_Node000032"><a xlink:title=" ">
<path fill="none" stroke="#63b8ff" d="M132.19,-167.59C120.45,-159.67 103.39,-148.16 89.56,-138.82"/>
<polygon fill="#63b8ff" stroke="#63b8ff" points="91.67,-136.02 81.42,-133.33 87.75,-141.82 91.67,-136.02"/>
</a>
</g>
</g>
<!-- Node31&#45;&gt;Node9 -->
<g id="edge58_Node000031_Node000009" class="edge">
<title>Node31&#45;&gt;Node9</title>
<g id="a_edge58_Node000031_Node000009"><a xlink:title=" ">
<path fill="none" stroke="#63b8ff" d="M360.68,-113.56C363.87,-113.02 367.05,-112.5 370.12,-112 420.07,-103.91 564.61,-82.36 632.33,-72.31"/>
<polygon fill="#63b8ff" stroke="#63b8ff" points="632.78,-75.78 642.16,-70.85 631.76,-68.85 632.78,-75.78"/>
</a>
</g>
</g>
<!-- Node32&#45;&gt;Node13 -->
<g id="edge61_Node000032_Node000013" class="edge">
<title>Node32&#45;&gt;Node13</title>
<g id="a_edge61_Node000032_Node000013"><a xlink:title=" ">
<path fill="none" stroke="#63b8ff" d="M132.37,-112.97C135.33,-112.64 138.26,-112.31 141.12,-112 304.05,-94.24 345.27,-94.45 508.12,-76 520.73,-74.57 534.58,-72.83 546.61,-71.26"/>
<polygon fill="#63b8ff" stroke="#63b8ff" points="546.97,-74.74 556.43,-69.96 546.05,-67.8 546.97,-74.74"/>
</a>
</g>
</g>
<!-- Node32&#45;&gt;Node16 -->
<g id="edge60_Node000032_Node000016" class="edge">
<title>Node32&#45;&gt;Node16</title>
<g id="a_edge60_Node000032_Node000016"><a xlink:title=" ">
<path fill="none" stroke="#63b8ff" d="M132.4,-111.53C201.4,-101.68 308.84,-86.33 377.84,-76.47"/>
<polygon fill="#63b8ff" stroke="#63b8ff" points="378.09,-79.97 387.49,-75.09 377.1,-73.04 378.09,-79.97"/>
</a>
</g>
</g>
<!-- Node33&#45;&gt;Node31 -->
<g id="edge63_Node000033_Node000031" class="edge">
<title>Node33&#45;&gt;Node31</title>
<g id="a_edge63_Node000033_Node000031"><a xlink:title=" ">
<path fill="none" stroke="#63b8ff" d="M445.3,-167.59C420.5,-158.9 383.4,-145.89 355.66,-136.16"/>
<polygon fill="#63b8ff" stroke="#63b8ff" points="357.18,-132.99 346.59,-132.98 354.87,-139.59 357.18,-132.99"/>
</a>
</g>
</g>
<!-- Node34 -->
<g id="Node000034" class="node">
<title>Node34</title>
<g id="a_Node000034"><a xlink:href="GoodbyeChannelDTO_8hpp.html" target="_top" xlink:title=" ">
<polygon fill="white" stroke="#666666" points="509.5,-132 378.75,-132 378.75,-112 509.5,-112 509.5,-132"/>
<text text-anchor="middle" x="444.12" y="-118.5" font-family="Helvetica,sans-Serif" font-size="10.00">GoodbyeChannelDTO.hpp</text>
</a>
</g>
</g>
<!-- Node33&#45;&gt;Node34 -->
<g id="edge64_Node000033_Node000034" class="edge">
<title>Node33&#45;&gt;Node34</title>
<g id="a_edge64_Node000033_Node000034"><a xlink:title=" ">
<path fill="none" stroke="#63b8ff" d="M467.25,-167.59C463.63,-160.63 458.58,-150.89 454.13,-142.29"/>
<polygon fill="#63b8ff" stroke="#63b8ff" points="457.35,-140.91 449.64,-133.64 451.14,-144.13 457.35,-140.91"/>
</a>
</g>
</g>
<!-- Node34&#45;&gt;Node13 -->
<g id="edge66_Node000034_Node000013" class="edge">
<title>Node34&#45;&gt;Node13</title>
<g id="a_edge66_Node000034_Node000013"><a xlink:title=" ">
<path fill="none" stroke="#63b8ff" d="M467.47,-111.59C489.57,-102.68 522.92,-89.25 547.22,-79.45"/>
<polygon fill="#63b8ff" stroke="#63b8ff" points="548.31,-82.79 556.28,-75.8 545.69,-76.3 548.31,-82.79"/>
</a>
</g>
</g>
<!-- Node34&#45;&gt;Node16 -->
<g id="edge65_Node000034_Node000016" class="edge">
<title>Node34&#45;&gt;Node16</title>
<g id="a_edge65_Node000034_Node000016"><a xlink:title=" ">
<path fill="none" stroke="#63b8ff" d="M444.12,-111.59C444.12,-105.01 444.12,-95.96 444.12,-87.73"/>
<polygon fill="#63b8ff" stroke="#63b8ff" points="447.63,-87.81 444.13,-77.81 440.63,-87.81 447.63,-87.81"/>
</a>
</g>
</g>
<!-- Node35&#45;&gt;Node31 -->
<g id="edge68_Node000035_Node000031" class="edge">
<title>Node35&#45;&gt;Node31</title>
<g id="a_edge68_Node000035_Node000031"><a xlink:title=" ">
<path fill="none" stroke="#63b8ff" d="M310.69,-167.59C311.8,-160.93 313.33,-151.75 314.72,-143.44"/>
<polygon fill="#63b8ff" stroke="#63b8ff" points="318.13,-144.23 316.33,-133.79 311.23,-143.08 318.13,-144.23"/>
</a>
</g>
</g>
<!-- Node36 -->
<g id="Node000036" class="node">
<title>Node36</title>
<g id="a_Node000036"><a xlink:href="LogChannelDTO_8hpp.html" target="_top" xlink:title=" ">
<polygon fill="white" stroke="#666666" points="257.88,-132 150.38,-132 150.38,-112 257.88,-112 257.88,-132"/>
<text text-anchor="middle" x="204.12" y="-118.5" font-family="Helvetica,sans-Serif" font-size="10.00">LogChannelDTO.hpp</text>
</a>
</g>
</g>
<!-- Node35&#45;&gt;Node36 -->
<g id="edge69_Node000035_Node000036" class="edge">
<title>Node35&#45;&gt;Node36</title>
<g id="a_edge69_Node000035_Node000036"><a xlink:title=" ">
<path fill="none" stroke="#63b8ff" d="M290.84,-167.59C274.82,-159.36 251.29,-147.26 232.78,-137.74"/>
<polygon fill="#63b8ff" stroke="#63b8ff" points="234.4,-134.63 223.9,-133.17 231.2,-140.86 234.4,-134.63"/>
</a>
</g>
</g>
<!-- Node36&#45;&gt;Node13 -->
<g id="edge71_Node000036_Node000013" class="edge">
<title>Node36&#45;&gt;Node13</title>
<g id="a_edge71_Node000036_Node000013"><a xlink:title=" ">
<path fill="none" stroke="#63b8ff" d="M258.11,-113.21C337.36,-101.76 482.68,-80.78 546.57,-71.56"/>
<polygon fill="#63b8ff" stroke="#63b8ff" points="546.98,-75.03 556.38,-70.14 545.98,-68.11 546.98,-75.03"/>
</a>
</g>
</g>
<!-- Node36&#45;&gt;Node16 -->
<g id="edge70_Node000036_Node000016" class="edge">
<title>Node36&#45;&gt;Node16</title>
<g id="a_edge70_Node000036_Node000016"><a xlink:title=" ">
<path fill="none" stroke="#63b8ff" d="M246.2,-111.53C286.52,-102.46 347.51,-88.74 391.12,-78.93"/>
<polygon fill="#63b8ff" stroke="#63b8ff" points="391.63,-82.4 400.62,-76.79 390.09,-75.57 391.63,-82.4"/>
</a>
</g>
</g>
</g>
</svg>
