<?xml version="1.0" encoding="UTF-8" standalone="no"?>
<!DOCTYPE svg PUBLIC "-//W3C//DTD SVG 1.1//EN"
 "http://www.w3.org/Graphics/SVG/1.1/DTD/svg11.dtd">
<!-- Generated by graphviz version 9.0.0 (0)
 -->
<!-- Title: src/commands/set_channel/SetChannelCommand.cpp Pages: 1 -->
<svg width="744pt" height="320pt"
 viewBox="0.00 0.00 744.06 320.00" xmlns="http://www.w3.org/2000/svg" xmlns:xlink="http://www.w3.org/1999/xlink">
<g id="graph0" class="graph" transform="scale(1 1) rotate(0) translate(4 316)">
<title>src/commands/set_channel/SetChannelCommand.cpp</title>
<!-- Node1 -->
<g id="Node000001" class="node">
<title>Node1</title>
<g id="a_Node000001"><a xlink:title=" ">
<polygon fill="#999999" stroke="#666666" points="573.31,-312 437.31,-312 437.31,-280 573.31,-280 573.31,-312"/>
<text text-anchor="start" x="445.31" y="-298.5" font-family="Helvetica,sans-Serif" font-size="10.00">src/commands/set_channel</text>
<text text-anchor="middle" x="505.31" y="-286.5" font-family="Helvetica,sans-Serif" font-size="10.00">/SetChannelCommand.cpp</text>
</a>
</g>
</g>
<!-- Node2 -->
<g id="Node000002" class="node">
<title>Node2</title>
<g id="a_Node000002"><a xlink:href="SetChannelCommand_8hpp.html" target="_top" xlink:title=" ">
<polygon fill="white" stroke="#666666" points="398.69,-244 267.94,-244 267.94,-224 398.69,-224 398.69,-244"/>
<text text-anchor="middle" x="333.31" y="-230.5" font-family="Helvetica,sans-Serif" font-size="10.00">SetChannelCommand.hpp</text>
</a>
</g>
</g>
<!-- Node1&#45;&gt;Node2 -->
<g id="edge1_Node000001_Node000002" class="edge">
<title>Node1&#45;&gt;Node2</title>
<g id="a_edge1_Node000001_Node000002"><a xlink:title=" ">
<path fill="none" stroke="#63b8ff" d="M461.02,-279.55C433.24,-269.86 397.79,-257.49 371.3,-248.25"/>
<polygon fill="#63b8ff" stroke="#63b8ff" points="372.56,-244.98 361.97,-244.99 370.25,-251.59 372.56,-244.98"/>
</a>
</g>
</g>
<!-- Node6 -->
<g id="Node000006" class="node">
<title>Node6</title>
<g id="a_Node000006"><a xlink:title=" ">
<polygon fill="#e0e0e0" stroke="#999999" points="329.44,-132 269.19,-132 269.19,-112 329.44,-112 329.44,-132"/>
<text text-anchor="middle" x="299.31" y="-118.5" font-family="Helvetica,sans-Serif" font-size="10.00">fmt/core.h</text>
</a>
</g>
</g>
<!-- Node1&#45;&gt;Node6 -->
<g id="edge24_Node000001_Node000006" class="edge">
<title>Node1&#45;&gt;Node6</title>
<g id="a_edge24_Node000001_Node000006"><a xlink:title=" ">
<path fill="none" stroke="#63b8ff" d="M437.24,-290.62C314.09,-281.12 62.11,-253.93 9.31,-188 3.76,-181.06 3.53,-174.75 9.31,-168 40.75,-131.3 184.83,-124.28 257.35,-123.11"/>
<polygon fill="#63b8ff" stroke="#63b8ff" points="257.3,-126.61 267.25,-122.98 257.21,-119.61 257.3,-126.61"/>
</a>
</g>
</g>
<!-- Node7 -->
<g id="Node000007" class="node">
<title>Node7</title>
<g id="a_Node000007"><a xlink:href="Core_8hpp.html" target="_top" xlink:title=" ">
<polygon fill="white" stroke="#666666" points="579.19,-188 523.44,-188 523.44,-168 579.19,-168 579.19,-188"/>
<text text-anchor="middle" x="551.31" y="-174.5" font-family="Helvetica,sans-Serif" font-size="10.00">Core.hpp</text>
</a>
</g>
</g>
<!-- Node1&#45;&gt;Node7 -->
<g id="edge29_Node000001_Node000007" class="edge">
<title>Node1&#45;&gt;Node7</title>
<g id="a_edge29_Node000001_Node000007"><a xlink:title=" ">
<path fill="none" stroke="#63b8ff" d="M509.9,-279.56C514.37,-265.03 521.59,-242.77 529.31,-224 532.78,-215.57 537.1,-206.5 540.99,-198.73"/>
<polygon fill="#63b8ff" stroke="#63b8ff" points="544.1,-200.34 545.54,-189.84 537.86,-197.14 544.1,-200.34"/>
</a>
</g>
</g>
<!-- Node21 -->
<g id="Node000021" class="node">
<title>Node21</title>
<g id="a_Node000021"><a xlink:href="Commands_8hpp.html" target="_top" xlink:title=" ">
<polygon fill="white" stroke="#666666" points="707.81,-188 622.81,-188 622.81,-168 707.81,-168 707.81,-188"/>
<text text-anchor="middle" x="665.31" y="-174.5" font-family="Helvetica,sans-Serif" font-size="10.00">Commands.hpp</text>
</a>
</g>
</g>
<!-- Node1&#45;&gt;Node21 -->
<g id="edge25_Node000001_Node000021" class="edge">
<title>Node1&#45;&gt;Node21</title>
<g id="a_edge25_Node000001_Node000021"><a xlink:title=" ">
<path fill="none" stroke="#63b8ff" d="M514.5,-279.61C524.55,-263.86 541.98,-239.56 562.31,-224 580.28,-210.26 603.09,-199.73 622.67,-192.33"/>
<polygon fill="#63b8ff" stroke="#63b8ff" points="623.83,-195.64 632.04,-188.95 621.45,-189.05 623.83,-195.64"/>
</a>
</g>
</g>
<!-- Node22 -->
<g id="Node000022" class="node">
<title>Node22</title>
<g id="a_Node000022"><a xlink:title=" ">
<polygon fill="#e0e0e0" stroke="#999999" points="616.94,-244 571.69,-244 571.69,-224 616.94,-224 616.94,-244"/>
<text text-anchor="middle" x="594.31" y="-230.5" font-family="Helvetica,sans-Serif" font-size="10.00">variant</text>
</a>
</g>
</g>
<!-- Node1&#45;&gt;Node22 -->
<g id="edge30_Node000001_Node000022" class="edge">
<title>Node1&#45;&gt;Node22</title>
<g id="a_edge30_Node000001_Node000022"><a xlink:title=" ">
<path fill="none" stroke="#63b8ff" d="M528.23,-279.55C541.37,-270.69 557.81,-259.61 571.01,-250.71"/>
<polygon fill="#63b8ff" stroke="#63b8ff" points="572.77,-253.75 579.1,-245.25 568.86,-247.94 572.77,-253.75"/>
</a>
</g>
</g>
<!-- Node3 -->
<g id="Node000003" class="node">
<title>Node3</title>
<g id="a_Node000003"><a xlink:title=" ">
<polygon fill="#e0e0e0" stroke="#999999" points="270.94,-188 201.69,-188 201.69,-168 270.94,-168 270.94,-188"/>
<text text-anchor="middle" x="236.31" y="-174.5" font-family="Helvetica,sans-Serif" font-size="10.00">dpp/colors.h</text>
</a>
</g>
</g>
<!-- Node2&#45;&gt;Node3 -->
<g id="edge2_Node000002_Node000003" class="edge">
<title>Node2&#45;&gt;Node3</title>
<g id="a_edge2_Node000002_Node000003"><a xlink:title=" ">
<path fill="none" stroke="#63b8ff" d="M316.42,-223.59C301.76,-215.44 280.29,-203.48 263.27,-194"/>
<polygon fill="#63b8ff" stroke="#63b8ff" points="265.1,-191.02 254.66,-189.22 261.7,-197.14 265.1,-191.02"/>
</a>
</g>
</g>
<!-- Node4 -->
<g id="Node000004" class="node">
<title>Node4</title>
<g id="a_Node000004"><a xlink:title=" ">
<polygon fill="#e0e0e0" stroke="#999999" points="409.69,-188 326.94,-188 326.94,-168 409.69,-168 409.69,-188"/>
<text text-anchor="middle" x="368.31" y="-174.5" font-family="Helvetica,sans-Serif" font-size="10.00">dpp/message.h</text>
</a>
</g>
</g>
<!-- Node2&#45;&gt;Node4 -->
<g id="edge3_Node000002_Node000004" class="edge">
<title>Node2&#45;&gt;Node4</title>
<g id="a_edge3_Node000002_Node000004"><a xlink:title=" ">
<path fill="none" stroke="#63b8ff" d="M339.41,-223.59C344.03,-216.47 350.52,-206.45 356.18,-197.72"/>
<polygon fill="#63b8ff" stroke="#63b8ff" points="358.96,-199.86 361.46,-189.57 353.09,-196.06 358.96,-199.86"/>
</a>
</g>
</g>
<!-- Node5 -->
<g id="Node000005" class="node">
<title>Node5</title>
<g id="a_Node000005"><a xlink:title=" ">
<polygon fill="#e0e0e0" stroke="#999999" points="183.69,-188 94.94,-188 94.94,-168 183.69,-168 183.69,-188"/>
<text text-anchor="middle" x="139.31" y="-174.5" font-family="Helvetica,sans-Serif" font-size="10.00">dpp/restresults.h</text>
</a>
</g>
</g>
<!-- Node2&#45;&gt;Node5 -->
<g id="edge4_Node000002_Node000005" class="edge">
<title>Node2&#45;&gt;Node5</title>
<g id="a_edge4_Node000002_Node000005"><a xlink:title=" ">
<path fill="none" stroke="#63b8ff" d="M299.52,-223.59C267.59,-214.71 219.46,-201.31 184.3,-191.52"/>
<polygon fill="#63b8ff" stroke="#63b8ff" points="185.4,-188.2 174.83,-188.89 183.52,-194.94 185.4,-188.2"/>
</a>
</g>
</g>
<!-- Node2&#45;&gt;Node6 -->
<g id="edge5_Node000002_Node000006" class="edge">
<title>Node2&#45;&gt;Node6</title>
<g id="a_edge5_Node000002_Node000006"><a xlink:title=" ">
<path fill="none" stroke="#63b8ff" d="M330.11,-223.72C327,-214.65 322.2,-200.42 318.31,-188 313.63,-173.03 308.67,-156.02 304.99,-143.15"/>
<polygon fill="#63b8ff" stroke="#63b8ff" points="308.42,-142.41 302.32,-133.75 301.69,-144.32 308.42,-142.41"/>
</a>
</g>
</g>
<!-- Node2&#45;&gt;Node7 -->
<g id="edge6_Node000002_Node000007" class="edge">
<title>Node2&#45;&gt;Node7</title>
<g id="a_edge6_Node000002_Node000007"><a xlink:title=" ">
<path fill="none" stroke="#63b8ff" d="M371.54,-223.53C410.99,-213.76 472.24,-198.59 512.07,-188.72"/>
<polygon fill="#63b8ff" stroke="#63b8ff" points="512.86,-192.13 521.73,-186.33 511.18,-185.34 512.86,-192.13"/>
</a>
</g>
</g>
<!-- Node10 -->
<g id="Node000010" class="node">
<title>Node10</title>
<g id="a_Node000010"><a xlink:href="Database_8hpp.html" target="_top" xlink:title=" ">
<polygon fill="white" stroke="#666666" points="477.06,-132 357.56,-132 357.56,-112 477.06,-112 477.06,-132"/>
<text text-anchor="middle" x="417.31" y="-118.5" font-family="Helvetica,sans-Serif" font-size="10.00">database/Database.hpp</text>
</a>
</g>
</g>
<!-- Node2&#45;&gt;Node10 -->
<g id="edge20_Node000002_Node000010" class="edge">
<title>Node2&#45;&gt;Node10</title>
<g id="a_edge20_Node000002_Node000010"><a xlink:title=" ">
<path fill="none" stroke="#63b8ff" d="M369.29,-223.59C387.36,-216.85 407.63,-205.74 418.31,-188 426.34,-174.68 425.43,-156.86 422.89,-143.25"/>
<polygon fill="#63b8ff" stroke="#63b8ff" points="426.33,-142.6 420.64,-133.66 419.51,-144.19 426.33,-142.6"/>
</a>
</g>
</g>
<!-- Node15 -->
<g id="Node000015" class="node">
<title>Node15</title>
<g id="a_Node000015"><a xlink:title=" ">
<polygon fill="#e0e0e0" stroke="#999999" points="96.31,-76 56.31,-76 56.31,-56 96.31,-56 96.31,-76"/>
<text text-anchor="middle" x="76.31" y="-62.5" font-family="Helvetica,sans-Serif" font-size="10.00">string</text>
</a>
</g>
</g>
<!-- Node2&#45;&gt;Node15 -->
<g id="edge23_Node000002_Node000015" class="edge">
<title>Node2&#45;&gt;Node15</title>
<g id="a_edge23_Node000002_Node000015"><a xlink:title=" ">
<path fill="none" stroke="#63b8ff" d="M267.78,-233.61C182.97,-232.83 42.13,-225.69 9.31,-188 -19.29,-155.15 26.27,-108.11 55.26,-83.48"/>
<polygon fill="#63b8ff" stroke="#63b8ff" points="57.3,-86.33 62.81,-77.28 52.86,-80.92 57.3,-86.33"/>
</a>
</g>
</g>
<!-- Node19 -->
<g id="Node000019" class="node">
<title>Node19</title>
<g id="a_Node000019"><a xlink:title=" ">
<polygon fill="#e0e0e0" stroke="#999999" points="505.31,-188 465.31,-188 465.31,-168 505.31,-168 505.31,-188"/>
<text text-anchor="middle" x="485.31" y="-174.5" font-family="Helvetica,sans-Serif" font-size="10.00">stack</text>
</a>
</g>
</g>
<!-- Node2&#45;&gt;Node19 -->
<g id="edge21_Node000002_Node000019" class="edge">
<title>Node2&#45;&gt;Node19</title>
<g id="a_edge21_Node000002_Node000019"><a xlink:title=" ">
<path fill="none" stroke="#63b8ff" d="M359.79,-223.59C386.1,-214.25 426.45,-199.91 454.26,-190.03"/>
<polygon fill="#63b8ff" stroke="#63b8ff" points="455.29,-193.38 463.55,-186.73 452.95,-186.78 455.29,-193.38"/>
</a>
</g>
</g>
<!-- Node20 -->
<g id="Node000020" class="node">
<title>Node20</title>
<g id="a_Node000020"><a xlink:title=" ">
<polygon fill="#e0e0e0" stroke="#999999" points="76.69,-188 17.94,-188 17.94,-168 76.69,-168 76.69,-188"/>
<text text-anchor="middle" x="47.31" y="-174.5" font-family="Helvetica,sans-Serif" font-size="10.00">stdexcept</text>
</a>
</g>
</g>
<!-- Node2&#45;&gt;Node20 -->
<g id="edge22_Node000002_Node000020" class="edge">
<title>Node2&#45;&gt;Node20</title>
<g id="a_edge22_Node000002_Node000020"><a xlink:title=" ">
<path fill="none" stroke="#63b8ff" d="M277.25,-223.55C229.55,-215.34 158.94,-202.78 88.01,-188.27"/>
<polygon fill="#63b8ff" stroke="#63b8ff" points="89.08,-184.92 78.58,-186.33 87.66,-191.77 89.08,-184.92"/>
</a>
</g>
</g>
<!-- Node7&#45;&gt;Node6 -->
<g id="edge9_Node000007_Node000006" class="edge">
<title>Node7&#45;&gt;Node6</title>
<g id="a_edge9_Node000007_Node000006"><a xlink:title=" ">
<path fill="none" stroke="#63b8ff" d="M523.05,-170.03C520.11,-169.33 517.15,-168.64 514.31,-168 454.18,-154.4 384.25,-140.03 340.88,-131.29"/>
<polygon fill="#63b8ff" stroke="#63b8ff" points="341.62,-127.87 331.13,-129.33 340.24,-134.73 341.62,-127.87"/>
</a>
</g>
</g>
<!-- Node8 -->
<g id="Node000008" class="node">
<title>Node8</title>
<g id="a_Node000008"><a xlink:title=" ">
<polygon fill="#e0e0e0" stroke="#999999" points="662.69,-132 603.94,-132 603.94,-112 662.69,-112 662.69,-132"/>
<text text-anchor="middle" x="633.31" y="-118.5" font-family="Helvetica,sans-Serif" font-size="10.00">dpp/dpp.h</text>
</a>
</g>
</g>
<!-- Node7&#45;&gt;Node8 -->
<g id="edge7_Node000007_Node000008" class="edge">
<title>Node7&#45;&gt;Node8</title>
<g id="a_edge7_Node000007_Node000008"><a xlink:title=" ">
<path fill="none" stroke="#63b8ff" d="M565.6,-167.59C577.75,-159.59 595.45,-147.93 609.71,-138.54"/>
<polygon fill="#63b8ff" stroke="#63b8ff" points="611.23,-141.73 617.66,-133.31 607.38,-135.89 611.23,-141.73"/>
</a>
</g>
</g>
<!-- Node9 -->
<g id="Node000009" class="node">
<title>Node9</title>
<g id="a_Node000009"><a xlink:title=" ">
<polygon fill="#e0e0e0" stroke="#999999" points="585.81,-132 494.81,-132 494.81,-112 585.81,-112 585.81,-132"/>
<text text-anchor="middle" x="540.31" y="-118.5" font-family="Helvetica,sans-Serif" font-size="10.00">dpp/misc&#45;enum.h</text>
</a>
</g>
</g>
<!-- Node7&#45;&gt;Node9 -->
<g id="edge8_Node000007_Node000009" class="edge">
<title>Node7&#45;&gt;Node9</title>
<g id="a_edge8_Node000007_Node000009"><a xlink:title=" ">
<path fill="none" stroke="#63b8ff" d="M549.4,-167.59C548.04,-160.93 546.17,-151.75 544.48,-143.44"/>
<polygon fill="#63b8ff" stroke="#63b8ff" points="547.94,-142.88 542.51,-133.78 541.08,-144.28 547.94,-142.88"/>
</a>
</g>
</g>
<!-- Node7&#45;&gt;Node10 -->
<g id="edge10_Node000007_Node000010" class="edge">
<title>Node7&#45;&gt;Node10</title>
<g id="a_edge10_Node000007_Node000010"><a xlink:title=" ">
<path fill="none" stroke="#63b8ff" d="M527.97,-167.59C506.77,-159.05 475.25,-146.35 451.26,-136.68"/>
<polygon fill="#63b8ff" stroke="#63b8ff" points="452.82,-133.54 442.24,-133.05 450.21,-140.03 452.82,-133.54"/>
</a>
</g>
</g>
<!-- Node11 -->
<g id="Node000011" class="node">
<title>Node11</title>
<g id="a_Node000011"><a xlink:title=" ">
<polygon fill="#e0e0e0" stroke="#999999" points="441.44,-76 393.19,-76 393.19,-56 441.44,-56 441.44,-76"/>
<text text-anchor="middle" x="417.31" y="-62.5" font-family="Helvetica,sans-Serif" font-size="10.00">cstddef</text>
</a>
</g>
</g>
<!-- Node10&#45;&gt;Node11 -->
<g id="edge11_Node000010_Node000011" class="edge">
<title>Node10&#45;&gt;Node11</title>
<g id="a_edge11_Node000010_Node000011"><a xlink:title=" ">
<path fill="none" stroke="#63b8ff" d="M417.31,-111.59C417.31,-105.01 417.31,-95.96 417.31,-87.73"/>
<polygon fill="#63b8ff" stroke="#63b8ff" points="420.81,-87.81 417.31,-77.81 413.81,-87.81 420.81,-87.81"/>
</a>
</g>
</g>
<!-- Node12 -->
<g id="Node000012" class="node">
<title>Node12</title>
<g id="a_Node000012"><a xlink:title=" ">
<polygon fill="#e0e0e0" stroke="#999999" points="736.06,-76 682.56,-76 682.56,-56 736.06,-56 736.06,-76"/>
<text text-anchor="middle" x="709.31" y="-62.5" font-family="Helvetica,sans-Serif" font-size="10.00">iostream</text>
</a>
</g>
</g>
<!-- Node10&#45;&gt;Node12 -->
<g id="edge12_Node000010_Node000012" class="edge">
<title>Node10&#45;&gt;Node12</title>
<g id="a_edge12_Node000010_Node000012"><a xlink:title=" ">
<path fill="none" stroke="#63b8ff" d="M468.51,-111.53C526.45,-100.82 619.47,-83.61 671.31,-74.03"/>
<polygon fill="#63b8ff" stroke="#63b8ff" points="671.64,-77.53 680.84,-72.27 670.37,-70.64 671.64,-77.53"/>
</a>
</g>
</g>
<!-- Node13 -->
<g id="Node000013" class="node">
<title>Node13</title>
<g id="a_Node000013"><a xlink:title=" ">
<polygon fill="#e0e0e0" stroke="#999999" points="509.19,-76 459.44,-76 459.44,-56 509.19,-56 509.19,-76"/>
<text text-anchor="middle" x="484.31" y="-62.5" font-family="Helvetica,sans-Serif" font-size="10.00">optional</text>
</a>
</g>
</g>
<!-- Node10&#45;&gt;Node13 -->
<g id="edge13_Node000010_Node000013" class="edge">
<title>Node10&#45;&gt;Node13</title>
<g id="a_edge13_Node000010_Node000013"><a xlink:title=" ">
<path fill="none" stroke="#63b8ff" d="M428.98,-111.59C438.59,-103.85 452.44,-92.69 463.88,-83.47"/>
<polygon fill="#63b8ff" stroke="#63b8ff" points="466.01,-86.25 471.6,-77.25 461.62,-80.8 466.01,-86.25"/>
</a>
</g>
</g>
<!-- Node14 -->
<g id="Node000014" class="node">
<title>Node14</title>
<g id="a_Node000014"><a xlink:title=" ">
<polygon fill="#e0e0e0" stroke="#999999" points="420.81,-20 359.81,-20 359.81,0 420.81,0 420.81,-20"/>
<text text-anchor="middle" x="390.31" y="-6.5" font-family="Helvetica,sans-Serif" font-size="10.00">pqxx/pqxx</text>
</a>
</g>
</g>
<!-- Node10&#45;&gt;Node14 -->
<g id="edge14_Node000010_Node000014" class="edge">
<title>Node10&#45;&gt;Node14</title>
<g id="a_edge14_Node000010_Node000014"><a xlink:title=" ">
<path fill="none" stroke="#63b8ff" d="M458.76,-111.54C494.42,-101.34 537.36,-82.88 518.31,-56 498.96,-28.68 461.64,-17.83 432.27,-13.57"/>
<polygon fill="#63b8ff" stroke="#63b8ff" points="432.91,-10.13 422.56,-12.39 432.06,-17.07 432.91,-10.13"/>
</a>
</g>
</g>
<!-- Node10&#45;&gt;Node15 -->
<g id="edge15_Node000010_Node000015" class="edge">
<title>Node10&#45;&gt;Node15</title>
<g id="a_edge15_Node000010_Node000015"><a xlink:title=" ">
<path fill="none" stroke="#63b8ff" d="M357.53,-111.53C284.77,-100.01 164.62,-80.98 107.87,-72"/>
<polygon fill="#63b8ff" stroke="#63b8ff" points="108.68,-68.58 98.26,-70.47 107.59,-75.5 108.68,-68.58"/>
</a>
</g>
</g>
<!-- Node16 -->
<g id="Node000016" class="node">
<title>Node16</title>
<g id="a_Node000016"><a xlink:title=" ">
<polygon fill="#e0e0e0" stroke="#999999" points="375.31,-76 317.31,-76 317.31,-56 375.31,-56 375.31,-76"/>
<text text-anchor="middle" x="346.31" y="-62.5" font-family="Helvetica,sans-Serif" font-size="10.00">typeindex</text>
</a>
</g>
</g>
<!-- Node10&#45;&gt;Node16 -->
<g id="edge16_Node000010_Node000016" class="edge">
<title>Node10&#45;&gt;Node16</title>
<g id="a_edge16_Node000010_Node000016"><a xlink:title=" ">
<path fill="none" stroke="#63b8ff" d="M404.95,-111.59C394.66,-103.77 379.79,-92.46 367.6,-83.19"/>
<polygon fill="#63b8ff" stroke="#63b8ff" points="369.82,-80.48 359.74,-77.21 365.58,-86.05 369.82,-80.48"/>
</a>
</g>
</g>
<!-- Node17 -->
<g id="Node000017" class="node">
<title>Node17</title>
<g id="a_Node000017"><a xlink:title=" ">
<polygon fill="#e0e0e0" stroke="#999999" points="627.81,-76 584.81,-76 584.81,-56 627.81,-56 627.81,-76"/>
<text text-anchor="middle" x="606.31" y="-62.5" font-family="Helvetica,sans-Serif" font-size="10.00">vector</text>
</a>
</g>
</g>
<!-- Node10&#45;&gt;Node17 -->
<g id="edge17_Node000010_Node000017" class="edge">
<title>Node10&#45;&gt;Node17</title>
<g id="a_edge17_Node000010_Node000017"><a xlink:title=" ">
<path fill="none" stroke="#63b8ff" d="M450.24,-111.59C484.82,-101.71 538.9,-86.26 573.46,-76.39"/>
<polygon fill="#63b8ff" stroke="#63b8ff" points="574.27,-79.8 582.92,-73.68 572.35,-73.06 574.27,-79.8"/>
</a>
</g>
</g>
<!-- Node18 -->
<g id="Node000018" class="node">
<title>Node18</title>
<g id="a_Node000018"><a xlink:href="RowDTOAdapter_8hpp.html" target="_top" xlink:title=" ">
<polygon fill="white" stroke="#666666" points="299.19,-76 189.44,-76 189.44,-56 299.19,-56 299.19,-76"/>
<text text-anchor="middle" x="244.31" y="-62.5" font-family="Helvetica,sans-Serif" font-size="10.00">RowDTOAdapter.hpp</text>
</a>
</g>
</g>
<!-- Node10&#45;&gt;Node18 -->
<g id="edge18_Node000010_Node000018" class="edge">
<title>Node10&#45;&gt;Node18</title>
<g id="a_edge18_Node000010_Node000018"><a xlink:title=" ">
<path fill="none" stroke="#63b8ff" d="M387.18,-111.59C359.07,-102.82 316.9,-89.66 285.65,-79.9"/>
<polygon fill="#63b8ff" stroke="#63b8ff" points="286.72,-76.57 276.13,-76.93 284.63,-83.25 286.72,-76.57"/>
</a>
</g>
</g>
<!-- Node18&#45;&gt;Node14 -->
<g id="edge19_Node000018_Node000014" class="edge">
<title>Node18&#45;&gt;Node14</title>
<g id="a_edge19_Node000018_Node000014"><a xlink:title=" ">
<path fill="none" stroke="#63b8ff" d="M269.75,-55.59C293.05,-46.97 327.81,-34.12 354.03,-24.42"/>
<polygon fill="#63b8ff" stroke="#63b8ff" points="355.1,-27.76 363.26,-21 352.67,-21.19 355.1,-27.76"/>
</a>
</g>
</g>
<!-- Node21&#45;&gt;Node8 -->
<g id="edge26_Node000021_Node000008" class="edge">
<title>Node21&#45;&gt;Node8</title>
<g id="a_edge26_Node000021_Node000008"><a xlink:title=" ">
<path fill="none" stroke="#63b8ff" d="M659.74,-167.59C655.56,-160.55 649.71,-150.67 644.57,-142"/>
<polygon fill="#63b8ff" stroke="#63b8ff" points="647.7,-140.42 639.6,-133.6 641.68,-143.99 647.7,-140.42"/>
</a>
</g>
</g>
<!-- Node21&#45;&gt;Node12 -->
<g id="edge27_Node000021_Node000012" class="edge">
<title>Node21&#45;&gt;Node12</title>
<g id="a_edge27_Node000021_Node000012"><a xlink:title=" ">
<path fill="none" stroke="#63b8ff" d="M676.76,-167.6C685.98,-159.3 698.34,-146.31 704.31,-132 710.19,-117.91 711.27,-100.62 710.96,-87.42"/>
<polygon fill="#63b8ff" stroke="#63b8ff" points="714.48,-87.56 710.45,-77.76 707.49,-87.93 714.48,-87.56"/>
</a>
</g>
</g>
<!-- Node21&#45;&gt;Node17 -->
<g id="edge28_Node000021_Node000017" class="edge">
<title>Node21&#45;&gt;Node17</title>
<g id="a_edge28_Node000021_Node000017"><a xlink:title=" ">
<path fill="none" stroke="#63b8ff" d="M669.25,-167.55C674.12,-154.31 680.68,-129.87 671.31,-112 664.18,-98.38 650.84,-88.06 638.09,-80.76"/>
<polygon fill="#63b8ff" stroke="#63b8ff" points="639.95,-77.79 629.46,-76.25 636.7,-83.99 639.95,-77.79"/>
</a>
</g>
</g>
</g>
</svg>
