<?xml version="1.0" encoding="UTF-8" standalone="no"?>
<!DOCTYPE svg PUBLIC "-//W3C//DTD SVG 1.1//EN"
 "http://www.w3.org/Graphics/SVG/1.1/DTD/svg11.dtd">
<!-- Generated by graphviz version 9.0.0 (0)
 -->
<!-- Title: src/bot_library/commands/set_channel/SetChannelCommand.cpp Pages: 1 -->
<svg width="1964pt" height="376pt"
 viewBox="0.00 0.00 1963.62 376.00" xmlns="http://www.w3.org/2000/svg" xmlns:xlink="http://www.w3.org/1999/xlink">
<g id="graph0" class="graph" transform="scale(1 1) rotate(0) translate(4 372)">
<title>src/bot_library/commands/set_channel/SetChannelCommand.cpp</title>
<!-- Node1 -->
<g id="Node000001" class="node">
<title>Node1</title>
<g id="a_Node000001"><a xlink:title=" ">
<polygon fill="#999999" stroke="#666666" points="1580.62,-368 1391.38,-368 1391.38,-336 1580.62,-336 1580.62,-368"/>
<text text-anchor="start" x="1399.38" y="-354.5" font-family="Helvetica,sans-Serif" font-size="10.00">src/bot_library/commands</text>
<text text-anchor="middle" x="1486" y="-342.5" font-family="Helvetica,sans-Serif" font-size="10.00">/set_channel/SetChannelCommand.cpp</text>
</a>
</g>
</g>
<!-- Node2 -->
<g id="Node000002" class="node">
<title>Node2</title>
<g id="a_Node000002"><a xlink:href="SetChannelCommand_8hpp.html" target="_top" xlink:title=" ">
<polygon fill="white" stroke="#666666" points="572.38,-300 441.62,-300 441.62,-280 572.38,-280 572.38,-300"/>
<text text-anchor="middle" x="507" y="-286.5" font-family="Helvetica,sans-Serif" font-size="10.00">SetChannelCommand.hpp</text>
</a>
</g>
</g>
<!-- Node1&#45;&gt;Node2 -->
<g id="edge1_Node000001_Node000002" class="edge">
<title>Node1&#45;&gt;Node2</title>
<g id="a_edge1_Node000001_Node000002"><a xlink:title=" ">
<path fill="none" stroke="#63b8ff" d="M1391.24,-345.19C1197.9,-333.34 761.29,-306.58 584,-295.72"/>
<polygon fill="#63b8ff" stroke="#63b8ff" points="584.41,-292.24 574.21,-295.12 583.98,-299.22 584.41,-292.24"/>
</a>
</g>
</g>
<!-- Node5 -->
<g id="Node000005" class="node">
<title>Node5</title>
<g id="a_Node000005"><a xlink:href="Core_8hpp.html" target="_top" xlink:title=" ">
<polygon fill="white" stroke="#666666" points="847.88,-188 792.12,-188 792.12,-168 847.88,-168 847.88,-188"/>
<text text-anchor="middle" x="820" y="-174.5" font-family="Helvetica,sans-Serif" font-size="10.00">Core.hpp</text>
</a>
</g>
</g>
<!-- Node1&#45;&gt;Node5 -->
<g id="edge56_Node000001_Node000005" class="edge">
<title>Node1&#45;&gt;Node5</title>
<g id="a_edge56_Node000001_Node000005"><a xlink:title=" ">
<path fill="none" stroke="#63b8ff" d="M1402.4,-335.51C1354.14,-326.15 1292.41,-313.45 1238,-300 1097.08,-265.17 932.23,-214.46 858.75,-191.33"/>
<polygon fill="#63b8ff" stroke="#63b8ff" points="860.21,-188.12 849.62,-188.45 858.1,-194.8 860.21,-188.12"/>
</a>
</g>
</g>
<!-- Node8 -->
<g id="Node000008" class="node">
<title>Node8</title>
<g id="a_Node000008"><a xlink:title=" ">
<polygon fill="#e0e0e0" stroke="#999999" points="1360.12,-132 1299.88,-132 1299.88,-112 1360.12,-112 1360.12,-132"/>
<text text-anchor="middle" x="1330" y="-118.5" font-family="Helvetica,sans-Serif" font-size="10.00">fmt/core.h</text>
</a>
</g>
</g>
<!-- Node1&#45;&gt;Node8 -->
<g id="edge55_Node000001_Node000008" class="edge">
<title>Node1&#45;&gt;Node8</title>
<g id="a_edge55_Node000001_Node000008"><a xlink:title=" ">
<path fill="none" stroke="#63b8ff" d="M1451.8,-335.53C1434.7,-326.71 1414.42,-314.53 1399,-300 1355.39,-258.93 1341.42,-245.32 1324,-188 1319.61,-173.54 1321.42,-156.5 1324.16,-143.5"/>
<polygon fill="#63b8ff" stroke="#63b8ff" points="1327.52,-144.5 1326.54,-133.95 1320.73,-142.81 1327.52,-144.5"/>
</a>
</g>
</g>
<!-- Node23 -->
<g id="Node000023" class="node">
<title>Node23</title>
<g id="a_Node000023"><a xlink:title=" ">
<polygon fill="#e0e0e0" stroke="#999999" points="942.38,-76 859.62,-76 859.62,-56 942.38,-56 942.38,-76"/>
<text text-anchor="middle" x="901" y="-62.5" font-family="Helvetica,sans-Serif" font-size="10.00">appcommand.h</text>
</a>
</g>
</g>
<!-- Node1&#45;&gt;Node23 -->
<g id="edge53_Node000001_Node000023" class="edge">
<title>Node1&#45;&gt;Node23</title>
<g id="a_edge53_Node000001_Node000023"><a xlink:title=" ">
<path fill="none" stroke="#63b8ff" d="M1448.52,-335.55C1426.44,-326.05 1398.19,-313.21 1374,-300 1238.52,-226.05 1223.69,-173.22 1082,-112 1040.65,-94.13 990.79,-82.4 953.89,-75.4"/>
<polygon fill="#63b8ff" stroke="#63b8ff" points="954.83,-72.02 944.36,-73.66 953.56,-78.9 954.83,-72.02"/>
</a>
</g>
</g>
<!-- Node30 -->
<g id="Node000030" class="node">
<title>Node30</title>
<g id="a_Node000030"><a xlink:title=" ">
<polygon fill="#e0e0e0" stroke="#999999" points="1458.25,-300 1407.75,-300 1407.75,-280 1458.25,-280 1458.25,-300"/>
<text text-anchor="middle" x="1433" y="-286.5" font-family="Helvetica,sans-Serif" font-size="10.00">colors.h</text>
</a>
</g>
</g>
<!-- Node1&#45;&gt;Node30 -->
<g id="edge54_Node000001_Node000030" class="edge">
<title>Node1&#45;&gt;Node30</title>
<g id="a_edge54_Node000001_Node000030"><a xlink:title=" ">
<path fill="none" stroke="#63b8ff" d="M1472.35,-335.55C1465.14,-327.39 1456.26,-317.33 1448.76,-308.84"/>
<polygon fill="#63b8ff" stroke="#63b8ff" points="1451.56,-306.72 1442.31,-301.54 1446.31,-311.35 1451.56,-306.72"/>
</a>
</g>
</g>
<!-- Node31 -->
<g id="Node000031" class="node">
<title>Node31</title>
<g id="a_Node000031"><a xlink:href="GoodbyeChannelRepository_8hpp.html" target="_top" xlink:title=" ">
<polygon fill="white" stroke="#666666" points="1640.12,-188 1483.88,-188 1483.88,-168 1640.12,-168 1640.12,-188"/>
<text text-anchor="middle" x="1562" y="-174.5" font-family="Helvetica,sans-Serif" font-size="10.00">GoodbyeChannelRepository.hpp</text>
</a>
</g>
</g>
<!-- Node1&#45;&gt;Node31 -->
<g id="edge57_Node000001_Node000031" class="edge">
<title>Node1&#45;&gt;Node31</title>
<g id="a_edge57_Node000001_Node000031"><a xlink:title=" ">
<path fill="none" stroke="#63b8ff" d="M1492.74,-335.74C1506.58,-304.42 1538.17,-232.94 1553.43,-198.4"/>
<polygon fill="#63b8ff" stroke="#63b8ff" points="1556.48,-200.16 1557.32,-189.59 1550.08,-197.33 1556.48,-200.16"/>
</a>
</g>
</g>
<!-- Node33 -->
<g id="Node000033" class="node">
<title>Node33</title>
<g id="a_Node000033"><a xlink:href="GoodbyeChannelDTO_8hpp.html" target="_top" xlink:title=" ">
<polygon fill="white" stroke="#666666" points="1775.38,-132 1644.62,-132 1644.62,-112 1775.38,-112 1775.38,-132"/>
<text text-anchor="middle" x="1710" y="-118.5" font-family="Helvetica,sans-Serif" font-size="10.00">GoodbyeChannelDTO.hpp</text>
</a>
</g>
</g>
<!-- Node1&#45;&gt;Node33 -->
<g id="edge74_Node000001_Node000033" class="edge">
<title>Node1&#45;&gt;Node33</title>
<g id="a_edge74_Node000001_Node000033"><a xlink:title=" ">
<path fill="none" stroke="#63b8ff" d="M1574.78,-335.57C1655.65,-316.31 1770.51,-274.66 1825,-188 1841.48,-161.78 1808.58,-145.14 1773.81,-135.26"/>
<polygon fill="#63b8ff" stroke="#63b8ff" points="1775.03,-131.97 1764.47,-132.8 1773.25,-138.74 1775.03,-131.97"/>
</a>
</g>
</g>
<!-- Node34 -->
<g id="Node000034" class="node">
<title>Node34</title>
<g id="a_Node000034"><a xlink:href="LogChannelRepository_8hpp.html" target="_top" xlink:title=" ">
<polygon fill="white" stroke="#666666" points="1465.5,-188 1332.5,-188 1332.5,-168 1465.5,-168 1465.5,-188"/>
<text text-anchor="middle" x="1399" y="-174.5" font-family="Helvetica,sans-Serif" font-size="10.00">LogChannelRepository.hpp</text>
</a>
</g>
</g>
<!-- Node1&#45;&gt;Node34 -->
<g id="edge63_Node000001_Node000034" class="edge">
<title>Node1&#45;&gt;Node34</title>
<g id="a_edge63_Node000001_Node000034"><a xlink:title=" ">
<path fill="none" stroke="#63b8ff" d="M1483.4,-335.54C1480.56,-320.81 1475.3,-298.23 1467,-280 1452.84,-248.87 1429.41,-216.74 1414.09,-197.32"/>
<polygon fill="#63b8ff" stroke="#63b8ff" points="1416.85,-195.17 1407.86,-189.57 1411.4,-199.55 1416.85,-195.17"/>
</a>
</g>
</g>
<!-- Node36 -->
<g id="Node000036" class="node">
<title>Node36</title>
<g id="a_Node000036"><a xlink:href="WelcomeChannelRepository_8hpp.html" target="_top" xlink:title=" ">
<polygon fill="white" stroke="#666666" points="1815.88,-188 1658.12,-188 1658.12,-168 1815.88,-168 1815.88,-188"/>
<text text-anchor="middle" x="1737" y="-174.5" font-family="Helvetica,sans-Serif" font-size="10.00">WelcomeChannelRepository.hpp</text>
</a>
</g>
</g>
<!-- Node1&#45;&gt;Node36 -->
<g id="edge68_Node000001_Node000036" class="edge">
<title>Node1&#45;&gt;Node36</title>
<g id="a_edge68_Node000001_Node000036"><a xlink:title=" ">
<path fill="none" stroke="#63b8ff" d="M1508.27,-335.74C1555.66,-303.27 1666.02,-227.64 1714.02,-194.75"/>
<polygon fill="#63b8ff" stroke="#63b8ff" points="1715.75,-197.8 1722.02,-189.26 1711.79,-192.03 1715.75,-197.8"/>
</a>
</g>
</g>
<!-- Node37 -->
<g id="Node000037" class="node">
<title>Node37</title>
<g id="a_Node000037"><a xlink:href="WelcomeChannelDTO_8hpp.html" target="_top" xlink:title=" ">
<polygon fill="white" stroke="#666666" points="1926.12,-132 1793.88,-132 1793.88,-112 1926.12,-112 1926.12,-132"/>
<text text-anchor="middle" x="1860" y="-118.5" font-family="Helvetica,sans-Serif" font-size="10.00">WelcomeChannelDTO.hpp</text>
</a>
</g>
</g>
<!-- Node1&#45;&gt;Node37 -->
<g id="edge75_Node000001_Node000037" class="edge">
<title>Node1&#45;&gt;Node37</title>
<g id="a_edge75_Node000001_Node000037"><a xlink:title=" ">
<path fill="none" stroke="#63b8ff" d="M1580.89,-338.71C1623.95,-330.99 1674.8,-318.81 1718,-300 1785.79,-270.49 1807.92,-254.12 1841,-188 1848.1,-173.82 1852.99,-156.53 1856.03,-143.36"/>
<polygon fill="#63b8ff" stroke="#63b8ff" points="1859.43,-144.2 1858.08,-133.69 1852.58,-142.75 1859.43,-144.2"/>
</a>
</g>
</g>
<!-- Node38 -->
<g id="Node000038" class="node">
<title>Node38</title>
<g id="a_Node000038"><a xlink:title=" ">
<polygon fill="#e0e0e0" stroke="#999999" points="1955.62,-300 1910.38,-300 1910.38,-280 1955.62,-280 1955.62,-300"/>
<text text-anchor="middle" x="1933" y="-286.5" font-family="Helvetica,sans-Serif" font-size="10.00">variant</text>
</a>
</g>
</g>
<!-- Node1&#45;&gt;Node38 -->
<g id="edge73_Node000001_Node000038" class="edge">
<title>Node1&#45;&gt;Node38</title>
<g id="a_edge73_Node000001_Node000038"><a xlink:title=" ">
<path fill="none" stroke="#63b8ff" d="M1580.92,-342.31C1664.32,-333.94 1788.76,-319.65 1896,-300 1897,-299.82 1898,-299.62 1899.02,-299.42"/>
<polygon fill="#63b8ff" stroke="#63b8ff" points="1899.49,-302.9 1908.52,-297.35 1898,-296.06 1899.49,-302.9"/>
</a>
</g>
</g>
<!-- Node3 -->
<g id="Node000003" class="node">
<title>Node3</title>
<g id="a_Node000003"><a xlink:title=" ">
<polygon fill="#e0e0e0" stroke="#999999" points="502.25,-244 433.75,-244 433.75,-224 502.25,-224 502.25,-244"/>
<text text-anchor="middle" x="468" y="-230.5" font-family="Helvetica,sans-Serif" font-size="10.00">snowflake.h</text>
</a>
</g>
</g>
<!-- Node2&#45;&gt;Node3 -->
<g id="edge2_Node000002_Node000003" class="edge">
<title>Node2&#45;&gt;Node3</title>
<g id="a_edge2_Node000002_Node000003"><a xlink:title=" ">
<path fill="none" stroke="#63b8ff" d="M500.21,-279.59C495.01,-272.39 487.67,-262.23 481.31,-253.43"/>
<polygon fill="#63b8ff" stroke="#63b8ff" points="484.29,-251.58 475.6,-245.53 478.62,-255.68 484.29,-251.58"/>
</a>
</g>
</g>
<!-- Node4 -->
<g id="Node000004" class="node">
<title>Node4</title>
<g id="a_Node000004"><a xlink:href="Bot_8hpp.html" target="_top" xlink:title=" ">
<polygon fill="white" stroke="#666666" points="569.88,-244 520.12,-244 520.12,-224 569.88,-224 569.88,-244"/>
<text text-anchor="middle" x="545" y="-230.5" font-family="Helvetica,sans-Serif" font-size="10.00">Bot.hpp</text>
</a>
</g>
</g>
<!-- Node2&#45;&gt;Node4 -->
<g id="edge3_Node000002_Node000004" class="edge">
<title>Node2&#45;&gt;Node4</title>
<g id="a_edge3_Node000002_Node000004"><a xlink:title=" ">
<path fill="none" stroke="#63b8ff" d="M513.62,-279.59C518.69,-272.39 525.84,-262.23 532.03,-253.43"/>
<polygon fill="#63b8ff" stroke="#63b8ff" points="534.69,-255.73 537.59,-245.54 528.97,-251.7 534.69,-255.73"/>
</a>
</g>
</g>
<!-- Node24 -->
<g id="Node000024" class="node">
<title>Node24</title>
<g id="a_Node000024"><a xlink:href="IMemberCommand_8hpp.html" target="_top" xlink:title=" ">
<polygon fill="white" stroke="#666666" points="118,-132 0,-132 0,-112 118,-112 118,-132"/>
<text text-anchor="middle" x="59" y="-118.5" font-family="Helvetica,sans-Serif" font-size="10.00">IMemberCommand.hpp</text>
</a>
</g>
</g>
<!-- Node2&#45;&gt;Node24 -->
<g id="edge52_Node000002_Node000024" class="edge">
<title>Node2&#45;&gt;Node24</title>
<g id="a_edge52_Node000002_Node000024"><a xlink:title=" ">
<path fill="none" stroke="#63b8ff" d="M479.47,-279.57C428.6,-262.08 316.56,-223.17 223,-188 177.54,-170.91 125.47,-150.05 92.43,-136.65"/>
<polygon fill="#63b8ff" stroke="#63b8ff" points="93.97,-133.5 83.39,-132.98 91.33,-139.99 93.97,-133.5"/>
</a>
</g>
</g>
<!-- Node4&#45;&gt;Node5 -->
<g id="edge4_Node000004_Node000005" class="edge">
<title>Node4&#45;&gt;Node5</title>
<g id="a_edge4_Node000004_Node000005"><a xlink:title=" ">
<path fill="none" stroke="#63b8ff" d="M569.89,-228.11C617.76,-218.71 722.99,-198.05 780.53,-186.75"/>
<polygon fill="#63b8ff" stroke="#63b8ff" points="781.08,-190.21 790.22,-184.85 779.73,-183.34 781.08,-190.21"/>
</a>
</g>
</g>
<!-- Node14 -->
<g id="Node000014" class="node">
<title>Node14</title>
<g id="a_Node000014"><a xlink:title=" ">
<polygon fill="#e0e0e0" stroke="#999999" points="1463,-76 1423,-76 1423,-56 1463,-56 1463,-76"/>
<text text-anchor="middle" x="1443" y="-62.5" font-family="Helvetica,sans-Serif" font-size="10.00">string</text>
</a>
</g>
</g>
<!-- Node4&#45;&gt;Node14 -->
<g id="edge50_Node000004_Node000014" class="edge">
<title>Node4&#45;&gt;Node14</title>
<g id="a_edge50_Node000004_Node000014"><a xlink:title=" ">
<path fill="none" stroke="#63b8ff" d="M570.22,-232.01C692.24,-226.9 1221.51,-201.07 1369,-132 1392.6,-120.95 1414.32,-100.03 1428.04,-84.9"/>
<polygon fill="#63b8ff" stroke="#63b8ff" points="1430.55,-87.34 1434.5,-77.51 1425.28,-82.73 1430.55,-87.34"/>
</a>
</g>
</g>
<!-- Node16 -->
<g id="Node000016" class="node">
<title>Node16</title>
<g id="a_Node000016"><a xlink:title=" ">
<polygon fill="#e0e0e0" stroke="#999999" points="1084.5,-76 1041.5,-76 1041.5,-56 1084.5,-56 1084.5,-76"/>
<text text-anchor="middle" x="1063" y="-62.5" font-family="Helvetica,sans-Serif" font-size="10.00">vector</text>
</a>
</g>
</g>
<!-- Node4&#45;&gt;Node16 -->
<g id="edge51_Node000004_Node000016" class="edge">
<title>Node4&#45;&gt;Node16</title>
<g id="a_edge51_Node000004_Node000016"><a xlink:title=" ">
<path fill="none" stroke="#63b8ff" d="M570.06,-232.45C667.34,-229.71 1017.74,-214.22 1082,-132 1092.39,-118.71 1085.17,-99.91 1076.81,-85.94"/>
<polygon fill="#63b8ff" stroke="#63b8ff" points="1079.75,-84.04 1071.31,-77.64 1073.92,-87.91 1079.75,-84.04"/>
</a>
</g>
</g>
<!-- Node18 -->
<g id="Node000018" class="node">
<title>Node18</title>
<g id="a_Node000018"><a xlink:href="IButtonCommand_8hpp.html" target="_top" xlink:title=" ">
<polygon fill="white" stroke="#666666" points="453.62,-132 342.38,-132 342.38,-112 453.62,-112 453.62,-132"/>
<text text-anchor="middle" x="398" y="-118.5" font-family="Helvetica,sans-Serif" font-size="10.00">IButtonCommand.hpp</text>
</a>
</g>
</g>
<!-- Node4&#45;&gt;Node18 -->
<g id="edge39_Node000004_Node000018" class="edge">
<title>Node4&#45;&gt;Node18</title>
<g id="a_edge39_Node000004_Node000018"><a xlink:title=" ">
<path fill="none" stroke="#63b8ff" d="M541.03,-223.81C534.65,-210 520.88,-183.81 502,-168 485.03,-153.78 462.88,-143.37 443.39,-136.16"/>
<polygon fill="#63b8ff" stroke="#63b8ff" points="444.6,-132.88 434.01,-132.88 442.29,-139.49 444.6,-132.88"/>
</a>
</g>
</g>
<!-- Node21 -->
<g id="Node000021" class="node">
<title>Node21</title>
<g id="a_Node000021"><a xlink:href="IFormCommand_8hpp.html" target="_top" xlink:title=" ">
<polygon fill="white" stroke="#666666" points="324.62,-132 219.38,-132 219.38,-112 324.62,-112 324.62,-132"/>
<text text-anchor="middle" x="272" y="-118.5" font-family="Helvetica,sans-Serif" font-size="10.00">IFormCommand.hpp</text>
</a>
</g>
</g>
<!-- Node4&#45;&gt;Node21 -->
<g id="edge40_Node000004_Node000021" class="edge">
<title>Node4&#45;&gt;Node21</title>
<g id="a_edge40_Node000004_Node000021"><a xlink:title=" ">
<path fill="none" stroke="#63b8ff" d="M536.46,-223.91C522.62,-209.75 493.83,-182.53 464,-168 441.42,-157 381.64,-143.83 334.73,-134.58"/>
<polygon fill="#63b8ff" stroke="#63b8ff" points="335.69,-131.21 325.21,-132.73 334.35,-138.08 335.69,-131.21"/>
</a>
</g>
</g>
<!-- Node22 -->
<g id="Node000022" class="node">
<title>Node22</title>
<g id="a_Node000022"><a xlink:href="IGlobalSlashCommand_8hpp.html" target="_top" xlink:title=" ">
<polygon fill="white" stroke="#666666" points="887.62,-132 752.38,-132 752.38,-112 887.62,-112 887.62,-132"/>
<text text-anchor="middle" x="820" y="-118.5" font-family="Helvetica,sans-Serif" font-size="10.00">IGlobalSlashCommand.hpp</text>
</a>
</g>
</g>
<!-- Node4&#45;&gt;Node22 -->
<g id="edge41_Node000004_Node000022" class="edge">
<title>Node4&#45;&gt;Node22</title>
<g id="a_edge41_Node000004_Node000022"><a xlink:title=" ">
<path fill="none" stroke="#63b8ff" d="M568.45,-223.62C617.15,-204.14 729.46,-159.22 786.07,-136.57"/>
<polygon fill="#63b8ff" stroke="#63b8ff" points="787.22,-139.88 795.21,-132.92 784.62,-133.38 787.22,-139.88"/>
</a>
</g>
</g>
<!-- Node4&#45;&gt;Node24 -->
<g id="edge42_Node000004_Node000024" class="edge">
<title>Node4&#45;&gt;Node24</title>
<g id="a_edge42_Node000004_Node000024"><a xlink:title=" ">
<path fill="none" stroke="#63b8ff" d="M519.81,-226.08C516.85,-225.34 513.86,-224.63 511,-224 421.96,-204.32 398.09,-207.49 309,-188 236.25,-172.08 152.68,-149.47 102.95,-135.54"/>
<polygon fill="#63b8ff" stroke="#63b8ff" points="103.99,-132.2 93.42,-132.86 102.1,-138.93 103.99,-132.2"/>
</a>
</g>
</g>
<!-- Node25 -->
<g id="Node000025" class="node">
<title>Node25</title>
<g id="a_Node000025"><a xlink:href="IMessageCommand_8hpp.html" target="_top" xlink:title=" ">
<polygon fill="white" stroke="#666666" points="594.25,-132 471.75,-132 471.75,-112 594.25,-112 594.25,-132"/>
<text text-anchor="middle" x="533" y="-118.5" font-family="Helvetica,sans-Serif" font-size="10.00">IMessageCommand.hpp</text>
</a>
</g>
</g>
<!-- Node4&#45;&gt;Node25 -->
<g id="edge43_Node000004_Node000025" class="edge">
<title>Node4&#45;&gt;Node25</title>
<g id="a_edge43_Node000004_Node000025"><a xlink:title=" ">
<path fill="none" stroke="#63b8ff" d="M544.51,-223.72C543.8,-211.09 542.3,-187.79 540,-168 539.07,-159.95 537.76,-151.14 536.53,-143.46"/>
<polygon fill="#63b8ff" stroke="#63b8ff" points="540.01,-143.06 534.91,-133.77 533.1,-144.21 540.01,-143.06"/>
</a>
</g>
</g>
<!-- Node26 -->
<g id="Node000026" class="node">
<title>Node26</title>
<g id="a_Node000026"><a xlink:href="IReactionCommand_8hpp.html" target="_top" xlink:title=" ">
<polygon fill="white" stroke="#666666" points="733.88,-132 612.12,-132 612.12,-112 733.88,-112 733.88,-132"/>
<text text-anchor="middle" x="673" y="-118.5" font-family="Helvetica,sans-Serif" font-size="10.00">IReactionCommand.hpp</text>
</a>
</g>
</g>
<!-- Node4&#45;&gt;Node26 -->
<g id="edge44_Node000004_Node000026" class="edge">
<title>Node4&#45;&gt;Node26</title>
<g id="a_edge44_Node000004_Node000026"><a xlink:title=" ">
<path fill="none" stroke="#63b8ff" d="M555.91,-223.62C577.55,-205.03 626.13,-163.28 653.43,-139.82"/>
<polygon fill="#63b8ff" stroke="#63b8ff" points="655.66,-142.51 660.97,-133.34 651.1,-137.2 655.66,-142.51"/>
</a>
</g>
</g>
<!-- Node27 -->
<g id="Node000027" class="node">
<title>Node27</title>
<g id="a_Node000027"><a xlink:href="IReady_8hpp.html" target="_top" xlink:title=" ">
<polygon fill="white" stroke="#666666" points="201.75,-132 136.25,-132 136.25,-112 201.75,-112 201.75,-132"/>
<text text-anchor="middle" x="169" y="-118.5" font-family="Helvetica,sans-Serif" font-size="10.00">IReady.hpp</text>
</a>
</g>
</g>
<!-- Node4&#45;&gt;Node27 -->
<g id="edge45_Node000004_Node000027" class="edge">
<title>Node4&#45;&gt;Node27</title>
<g id="a_edge45_Node000004_Node000027"><a xlink:title=" ">
<path fill="none" stroke="#63b8ff" d="M527.51,-223.53C511.03,-214.55 485.7,-200.6 464,-188 449.17,-179.39 447.09,-173.93 431,-168 341,-134.82 309.99,-149.51 213.25,-132.48"/>
<polygon fill="#63b8ff" stroke="#63b8ff" points="214.04,-129.07 203.57,-130.7 212.78,-135.95 214.04,-129.07"/>
</a>
</g>
</g>
<!-- Node28 -->
<g id="Node000028" class="node">
<title>Node28</title>
<g id="a_Node000028"><a xlink:title=" ">
<polygon fill="#e0e0e0" stroke="#999999" points="352.38,-188 317.62,-188 317.62,-168 352.38,-168 352.38,-188"/>
<text text-anchor="middle" x="335" y="-174.5" font-family="Helvetica,sans-Serif" font-size="10.00">map</text>
</a>
</g>
</g>
<!-- Node4&#45;&gt;Node28 -->
<g id="edge48_Node000004_Node000028" class="edge">
<title>Node4&#45;&gt;Node28</title>
<g id="a_edge48_Node000004_Node000028"><a xlink:title=" ">
<path fill="none" stroke="#63b8ff" d="M519.77,-226.25C516.81,-225.48 513.84,-224.72 511,-224 447.9,-208.08 428.73,-207.28 363.68,-188.59"/>
<polygon fill="#63b8ff" stroke="#63b8ff" points="364.86,-185.29 354.28,-185.85 362.9,-192.01 364.86,-185.29"/>
</a>
</g>
</g>
<!-- Node29 -->
<g id="Node000029" class="node">
<title>Node29</title>
<g id="a_Node000029"><a xlink:title=" ">
<polygon fill="#e0e0e0" stroke="#999999" points="421.62,-188 370.38,-188 370.38,-168 421.62,-168 421.62,-188"/>
<text text-anchor="middle" x="396" y="-174.5" font-family="Helvetica,sans-Serif" font-size="10.00">memory</text>
</a>
</g>
</g>
<!-- Node4&#45;&gt;Node29 -->
<g id="edge49_Node000004_Node000029" class="edge">
<title>Node4&#45;&gt;Node29</title>
<g id="a_edge49_Node000004_Node000029"><a xlink:title=" ">
<path fill="none" stroke="#63b8ff" d="M519.72,-223.84C495.79,-215.17 459.58,-202.04 432.51,-192.23"/>
<polygon fill="#63b8ff" stroke="#63b8ff" points="433.92,-189.02 423.32,-188.9 431.53,-195.6 433.92,-189.02"/>
</a>
</g>
</g>
<!-- Node6 -->
<g id="Node000006" class="node">
<title>Node6</title>
<g id="a_Node000006"><a xlink:title=" ">
<polygon fill="#e0e0e0" stroke="#999999" points="964.38,-132 905.62,-132 905.62,-112 964.38,-112 964.38,-132"/>
<text text-anchor="middle" x="935" y="-118.5" font-family="Helvetica,sans-Serif" font-size="10.00">dpp/dpp.h</text>
</a>
</g>
</g>
<!-- Node5&#45;&gt;Node6 -->
<g id="edge5_Node000005_Node000006" class="edge">
<title>Node5&#45;&gt;Node6</title>
<g id="a_edge5_Node000005_Node000006"><a xlink:title=" ">
<path fill="none" stroke="#63b8ff" d="M840.03,-167.59C857.81,-159.24 884.07,-146.92 904.46,-137.34"/>
<polygon fill="#63b8ff" stroke="#63b8ff" points="905.88,-140.54 913.44,-133.12 902.9,-134.21 905.88,-140.54"/>
</a>
</g>
</g>
<!-- Node7 -->
<g id="Node000007" class="node">
<title>Node7</title>
<g id="a_Node000007"><a xlink:title=" ">
<polygon fill="#e0e0e0" stroke="#999999" points="1073.5,-132 982.5,-132 982.5,-112 1073.5,-112 1073.5,-132"/>
<text text-anchor="middle" x="1028" y="-118.5" font-family="Helvetica,sans-Serif" font-size="10.00">dpp/misc&#45;enum.h</text>
</a>
</g>
</g>
<!-- Node5&#45;&gt;Node7 -->
<g id="edge6_Node000005_Node000007" class="edge">
<title>Node5&#45;&gt;Node7</title>
<g id="a_edge6_Node000005_Node000007"><a xlink:title=" ">
<path fill="none" stroke="#63b8ff" d="M848.05,-169.72C882.01,-160.9 939.71,-145.92 980.61,-135.3"/>
<polygon fill="#63b8ff" stroke="#63b8ff" points="981.41,-138.71 990.21,-132.81 979.65,-131.94 981.41,-138.71"/>
</a>
</g>
</g>
<!-- Node5&#45;&gt;Node8 -->
<g id="edge7_Node000005_Node000008" class="edge">
<title>Node5&#45;&gt;Node8</title>
<g id="a_edge7_Node000005_Node000008"><a xlink:title=" ">
<path fill="none" stroke="#63b8ff" d="M848.23,-175.32C921.04,-170.75 1121.02,-156.77 1286,-132 1286.84,-131.87 1287.69,-131.74 1288.54,-131.61"/>
<polygon fill="#63b8ff" stroke="#63b8ff" points="1289.05,-135.07 1298.29,-129.88 1287.83,-128.18 1289.05,-135.07"/>
</a>
</g>
</g>
<!-- Node9 -->
<g id="Node000009" class="node">
<title>Node9</title>
<g id="a_Node000009"><a xlink:href="Database_8hpp.html" target="_top" xlink:title=" ">
<polygon fill="white" stroke="#666666" points="1244.38,-132 1167.62,-132 1167.62,-112 1244.38,-112 1244.38,-132"/>
<text text-anchor="middle" x="1206" y="-118.5" font-family="Helvetica,sans-Serif" font-size="10.00">Database.hpp</text>
</a>
</g>
</g>
<!-- Node5&#45;&gt;Node9 -->
<g id="edge8_Node000005_Node000009" class="edge">
<title>Node5&#45;&gt;Node9</title>
<g id="a_edge8_Node000005_Node000009"><a xlink:title=" ">
<path fill="none" stroke="#63b8ff" d="M848.07,-173.07C912.87,-164.01 1073.63,-141.52 1155.84,-130.02"/>
<polygon fill="#63b8ff" stroke="#63b8ff" points="1156.22,-133.5 1165.64,-128.65 1155.25,-126.57 1156.22,-133.5"/>
</a>
</g>
</g>
<!-- Node5&#45;&gt;Node14 -->
<g id="edge38_Node000005_Node000014" class="edge">
<title>Node5&#45;&gt;Node14</title>
<g id="a_edge38_Node000005_Node000014"><a xlink:title=" ">
<path fill="none" stroke="#63b8ff" d="M848.33,-177.72C918.55,-178.72 1105.62,-176.63 1253,-132 1271.27,-126.47 1273.31,-119.16 1291,-112 1340.6,-91.92 1357.43,-92.31 1411.74,-76.59"/>
<polygon fill="#63b8ff" stroke="#63b8ff" points="1412.68,-79.96 1421.28,-73.77 1410.7,-73.25 1412.68,-79.96"/>
</a>
</g>
</g>
<!-- Node5&#45;&gt;Node18 -->
<g id="edge18_Node000005_Node000018" class="edge">
<title>Node5&#45;&gt;Node18</title>
<g id="a_edge18_Node000005_Node000018"><a xlink:title=" ">
<path fill="none" stroke="#63b8ff" d="M791.75,-173.56C733.09,-166.39 593.52,-149.19 465.2,-132.28"/>
<polygon fill="#63b8ff" stroke="#63b8ff" points="465.89,-128.84 455.51,-131 464.97,-135.78 465.89,-128.84"/>
</a>
</g>
</g>
<!-- Node5&#45;&gt;Node21 -->
<g id="edge21_Node000005_Node000021" class="edge">
<title>Node5&#45;&gt;Node21</title>
<g id="a_edge21_Node000005_Node000021"><a xlink:title=" ">
<path fill="none" stroke="#63b8ff" d="M791.67,-174.92C718.23,-169.43 515.43,-153.52 336.11,-132.32"/>
<polygon fill="#63b8ff" stroke="#63b8ff" points="336.72,-128.87 326.38,-131.16 335.9,-135.82 336.72,-128.87"/>
</a>
</g>
</g>
<!-- Node5&#45;&gt;Node22 -->
<g id="edge24_Node000005_Node000022" class="edge">
<title>Node5&#45;&gt;Node22</title>
<g id="a_edge24_Node000005_Node000022"><a xlink:title=" ">
<path fill="none" stroke="#63b8ff" d="M820,-167.59C820,-161.01 820,-151.96 820,-143.73"/>
<polygon fill="#63b8ff" stroke="#63b8ff" points="823.5,-143.81 820,-133.81 816.5,-143.81 823.5,-143.81"/>
</a>
</g>
</g>
<!-- Node5&#45;&gt;Node24 -->
<g id="edge29_Node000005_Node000024" class="edge">
<title>Node5&#45;&gt;Node24</title>
<g id="a_edge29_Node000005_Node000024"><a xlink:title=" ">
<path fill="none" stroke="#63b8ff" d="M791.89,-175.85C699.03,-171.9 393.49,-157.8 129.65,-132.2"/>
<polygon fill="#63b8ff" stroke="#63b8ff" points="130.11,-128.73 119.82,-131.23 129.43,-135.69 130.11,-128.73"/>
</a>
</g>
</g>
<!-- Node5&#45;&gt;Node25 -->
<g id="edge32_Node000005_Node000025" class="edge">
<title>Node5&#45;&gt;Node25</title>
<g id="a_edge32_Node000005_Node000025"><a xlink:title=" ">
<path fill="none" stroke="#63b8ff" d="M791.7,-171.67C746.1,-163.1 655.34,-146.02 594.38,-134.55"/>
<polygon fill="#63b8ff" stroke="#63b8ff" points="595.32,-131.16 584.85,-132.76 594.03,-138.04 595.32,-131.16"/>
</a>
</g>
</g>
<!-- Node5&#45;&gt;Node26 -->
<g id="edge35_Node000005_Node000026" class="edge">
<title>Node5&#45;&gt;Node26</title>
<g id="a_edge35_Node000005_Node000026"><a xlink:title=" ">
<path fill="none" stroke="#63b8ff" d="M794.39,-167.59C770.93,-158.97 735.93,-146.12 709.53,-136.42"/>
<polygon fill="#63b8ff" stroke="#63b8ff" points="710.82,-133.16 700.23,-133 708.41,-139.73 710.82,-133.16"/>
</a>
</g>
</g>
<!-- Node10 -->
<g id="Node000010" class="node">
<title>Node10</title>
<g id="a_Node000010"><a xlink:title=" ">
<polygon fill="#e0e0e0" stroke="#999999" points="1405.12,-76 1356.88,-76 1356.88,-56 1405.12,-56 1405.12,-76"/>
<text text-anchor="middle" x="1381" y="-62.5" font-family="Helvetica,sans-Serif" font-size="10.00">cstddef</text>
</a>
</g>
</g>
<!-- Node9&#45;&gt;Node10 -->
<g id="edge9_Node000009_Node000010" class="edge">
<title>Node9&#45;&gt;Node10</title>
<g id="a_edge9_Node000009_Node000010"><a xlink:title=" ">
<path fill="none" stroke="#63b8ff" d="M1236.48,-111.59C1266.97,-102.19 1313.81,-87.73 1345.84,-77.85"/>
<polygon fill="#63b8ff" stroke="#63b8ff" points="1346.54,-81.3 1355.06,-75 1344.47,-74.61 1346.54,-81.3"/>
</a>
</g>
</g>
<!-- Node11 -->
<g id="Node000011" class="node">
<title>Node11</title>
<g id="a_Node000011"><a xlink:title=" ">
<polygon fill="#e0e0e0" stroke="#999999" points="1232.75,-76 1179.25,-76 1179.25,-56 1232.75,-56 1232.75,-76"/>
<text text-anchor="middle" x="1206" y="-62.5" font-family="Helvetica,sans-Serif" font-size="10.00">iostream</text>
</a>
</g>
</g>
<!-- Node9&#45;&gt;Node11 -->
<g id="edge10_Node000009_Node000011" class="edge">
<title>Node9&#45;&gt;Node11</title>
<g id="a_edge10_Node000009_Node000011"><a xlink:title=" ">
<path fill="none" stroke="#63b8ff" d="M1206,-111.59C1206,-105.01 1206,-95.96 1206,-87.73"/>
<polygon fill="#63b8ff" stroke="#63b8ff" points="1209.5,-87.81 1206,-77.81 1202.5,-87.81 1209.5,-87.81"/>
</a>
</g>
</g>
<!-- Node12 -->
<g id="Node000012" class="node">
<title>Node12</title>
<g id="a_Node000012"><a xlink:title=" ">
<polygon fill="#e0e0e0" stroke="#999999" points="1300.88,-76 1251.12,-76 1251.12,-56 1300.88,-56 1300.88,-76"/>
<text text-anchor="middle" x="1276" y="-62.5" font-family="Helvetica,sans-Serif" font-size="10.00">optional</text>
</a>
</g>
</g>
<!-- Node9&#45;&gt;Node12 -->
<g id="edge11_Node000009_Node000012" class="edge">
<title>Node9&#45;&gt;Node12</title>
<g id="a_edge11_Node000009_Node000012"><a xlink:title=" ">
<path fill="none" stroke="#63b8ff" d="M1218.19,-111.59C1228.33,-103.77 1242.99,-92.46 1255.01,-83.19"/>
<polygon fill="#63b8ff" stroke="#63b8ff" points="1256.97,-86.1 1262.75,-77.22 1252.69,-80.56 1256.97,-86.1"/>
</a>
</g>
</g>
<!-- Node13 -->
<g id="Node000013" class="node">
<title>Node13</title>
<g id="a_Node000013"><a xlink:title=" ">
<polygon fill="#e0e0e0" stroke="#999999" points="1462.5,-20 1401.5,-20 1401.5,0 1462.5,0 1462.5,-20"/>
<text text-anchor="middle" x="1432" y="-6.5" font-family="Helvetica,sans-Serif" font-size="10.00">pqxx/pqxx</text>
</a>
</g>
</g>
<!-- Node9&#45;&gt;Node13 -->
<g id="edge12_Node000009_Node000013" class="edge">
<title>Node9&#45;&gt;Node13</title>
<g id="a_edge12_Node000009_Node000013"><a xlink:title=" ">
<path fill="none" stroke="#63b8ff" d="M1229.37,-111.52C1250.61,-102.76 1282.71,-89.15 1310,-76 1314.73,-73.72 1369.94,-44.22 1404.45,-25.75"/>
<polygon fill="#63b8ff" stroke="#63b8ff" points="1405.92,-28.93 1413.08,-21.13 1402.62,-22.76 1405.92,-28.93"/>
</a>
</g>
</g>
<!-- Node9&#45;&gt;Node14 -->
<g id="edge13_Node000009_Node000014" class="edge">
<title>Node9&#45;&gt;Node14</title>
<g id="a_edge13_Node000009_Node000014"><a xlink:title=" ">
<path fill="none" stroke="#63b8ff" d="M1244.58,-113.71C1284.22,-105.98 1347.94,-92.93 1411.72,-76.42"/>
<polygon fill="#63b8ff" stroke="#63b8ff" points="1412.53,-79.83 1421.32,-73.91 1410.76,-73.06 1412.53,-79.83"/>
</a>
</g>
</g>
<!-- Node15 -->
<g id="Node000015" class="node">
<title>Node15</title>
<g id="a_Node000015"><a xlink:title=" ">
<polygon fill="#e0e0e0" stroke="#999999" points="1161,-76 1103,-76 1103,-56 1161,-56 1161,-76"/>
<text text-anchor="middle" x="1132" y="-62.5" font-family="Helvetica,sans-Serif" font-size="10.00">typeindex</text>
</a>
</g>
</g>
<!-- Node9&#45;&gt;Node15 -->
<g id="edge14_Node000009_Node000015" class="edge">
<title>Node9&#45;&gt;Node15</title>
<g id="a_edge14_Node000009_Node000015"><a xlink:title=" ">
<path fill="none" stroke="#63b8ff" d="M1193.11,-111.59C1182.29,-103.7 1166.59,-92.24 1153.81,-82.92"/>
<polygon fill="#63b8ff" stroke="#63b8ff" points="1156.11,-80.26 1145.96,-77.19 1151.98,-85.91 1156.11,-80.26"/>
</a>
</g>
</g>
<!-- Node9&#45;&gt;Node16 -->
<g id="edge15_Node000009_Node000016" class="edge">
<title>Node9&#45;&gt;Node16</title>
<g id="a_edge15_Node000009_Node000016"><a xlink:title=" ">
<path fill="none" stroke="#63b8ff" d="M1181.09,-111.59C1157.29,-102.6 1121.27,-89.01 1095.28,-79.19"/>
<polygon fill="#63b8ff" stroke="#63b8ff" points="1096.82,-76.03 1086.23,-75.77 1094.35,-82.58 1096.82,-76.03"/>
</a>
</g>
</g>
<!-- Node17 -->
<g id="Node000017" class="node">
<title>Node17</title>
<g id="a_Node000017"><a xlink:href="RowDTOAdapter_8hpp.html" target="_top" xlink:title=" ">
<polygon fill="white" stroke="#666666" points="1590.88,-76 1481.12,-76 1481.12,-56 1590.88,-56 1590.88,-76"/>
<text text-anchor="middle" x="1536" y="-62.5" font-family="Helvetica,sans-Serif" font-size="10.00">RowDTOAdapter.hpp</text>
</a>
</g>
</g>
<!-- Node9&#45;&gt;Node17 -->
<g id="edge16_Node000009_Node000017" class="edge">
<title>Node9&#45;&gt;Node17</title>
<g id="a_edge16_Node000009_Node000017"><a xlink:title=" ">
<path fill="none" stroke="#63b8ff" d="M1244.83,-114.65C1300.07,-105.61 1402.12,-88.91 1469.54,-77.88"/>
<polygon fill="#63b8ff" stroke="#63b8ff" points="1470.07,-81.33 1479.38,-76.27 1468.94,-74.43 1470.07,-81.33"/>
</a>
</g>
</g>
<!-- Node17&#45;&gt;Node13 -->
<g id="edge17_Node000017_Node000013" class="edge">
<title>Node17&#45;&gt;Node13</title>
<g id="a_edge17_Node000017_Node000013"><a xlink:title=" ">
<path fill="none" stroke="#63b8ff" d="M1517.88,-55.59C1502.03,-47.36 1478.72,-35.26 1460.38,-25.74"/>
<polygon fill="#63b8ff" stroke="#63b8ff" points="1462.09,-22.68 1451.6,-21.18 1458.86,-28.89 1462.09,-22.68"/>
</a>
</g>
</g>
<!-- Node19 -->
<g id="Node000019" class="node">
<title>Node19</title>
<g id="a_Node000019"><a xlink:title=" ">
<polygon fill="#e0e0e0" stroke="#999999" points="483.12,-76 410.88,-76 410.88,-56 483.12,-56 483.12,-76"/>
<text text-anchor="middle" x="447" y="-62.5" font-family="Helvetica,sans-Serif" font-size="10.00">dpp/cluster.h</text>
</a>
</g>
</g>
<!-- Node18&#45;&gt;Node19 -->
<g id="edge19_Node000018_Node000019" class="edge">
<title>Node18&#45;&gt;Node19</title>
<g id="a_edge19_Node000018_Node000019"><a xlink:title=" ">
<path fill="none" stroke="#63b8ff" d="M406.54,-111.59C413.28,-104.16 422.89,-93.58 431.04,-84.58"/>
<polygon fill="#63b8ff" stroke="#63b8ff" points="433.42,-87.18 437.55,-77.42 428.23,-82.47 433.42,-87.18"/>
</a>
</g>
</g>
<!-- Node20 -->
<g id="Node000020" class="node">
<title>Node20</title>
<g id="a_Node000020"><a xlink:title=" ">
<polygon fill="#e0e0e0" stroke="#999999" points="393,-76 305,-76 305,-56 393,-56 393,-76"/>
<text text-anchor="middle" x="349" y="-62.5" font-family="Helvetica,sans-Serif" font-size="10.00">dpp/dispatcher.h</text>
</a>
</g>
</g>
<!-- Node18&#45;&gt;Node20 -->
<g id="edge20_Node000018_Node000020" class="edge">
<title>Node18&#45;&gt;Node20</title>
<g id="a_edge20_Node000018_Node000020"><a xlink:title=" ">
<path fill="none" stroke="#63b8ff" d="M389.46,-111.59C382.72,-104.16 373.11,-93.58 364.96,-84.58"/>
<polygon fill="#63b8ff" stroke="#63b8ff" points="367.77,-82.47 358.45,-77.42 362.58,-87.18 367.77,-82.47"/>
</a>
</g>
</g>
<!-- Node21&#45;&gt;Node19 -->
<g id="edge22_Node000021_Node000019" class="edge">
<title>Node21&#45;&gt;Node19</title>
<g id="a_edge22_Node000021_Node000019"><a xlink:title=" ">
<path fill="none" stroke="#63b8ff" d="M302.48,-111.59C331.04,-102.78 373.95,-89.54 405.6,-79.78"/>
<polygon fill="#63b8ff" stroke="#63b8ff" points="406.31,-83.22 414.83,-76.93 404.25,-76.53 406.31,-83.22"/>
</a>
</g>
</g>
<!-- Node21&#45;&gt;Node20 -->
<g id="edge23_Node000021_Node000020" class="edge">
<title>Node21&#45;&gt;Node20</title>
<g id="a_edge23_Node000021_Node000020"><a xlink:title=" ">
<path fill="none" stroke="#63b8ff" d="M285.41,-111.59C296.61,-103.74 312.81,-92.38 326.06,-83.09"/>
<polygon fill="#63b8ff" stroke="#63b8ff" points="328.07,-85.96 334.24,-77.35 324.05,-80.22 328.07,-85.96"/>
</a>
</g>
</g>
<!-- Node22&#45;&gt;Node16 -->
<g id="edge28_Node000022_Node000016" class="edge">
<title>Node22&#45;&gt;Node16</title>
<g id="a_edge28_Node000022_Node000016"><a xlink:title=" ">
<path fill="none" stroke="#63b8ff" d="M862.61,-111.53C910.36,-100.92 986.76,-83.94 1030.13,-74.31"/>
<polygon fill="#63b8ff" stroke="#63b8ff" points="1030.69,-77.76 1039.7,-72.18 1029.18,-70.93 1030.69,-77.76"/>
</a>
</g>
</g>
<!-- Node22&#45;&gt;Node19 -->
<g id="edge26_Node000022_Node000019" class="edge">
<title>Node22&#45;&gt;Node19</title>
<g id="a_edge26_Node000022_Node000019"><a xlink:title=" ">
<path fill="none" stroke="#63b8ff" d="M754.6,-111.53C680.29,-100.77 560.8,-83.48 494.75,-73.91"/>
<polygon fill="#63b8ff" stroke="#63b8ff" points="495.35,-70.46 484.95,-72.49 494.34,-77.39 495.35,-70.46"/>
</a>
</g>
</g>
<!-- Node22&#45;&gt;Node20 -->
<g id="edge27_Node000022_Node000020" class="edge">
<title>Node22&#45;&gt;Node20</title>
<g id="a_edge27_Node000022_Node000020"><a xlink:title=" ">
<path fill="none" stroke="#63b8ff" d="M751.98,-113.01C748.95,-112.66 745.94,-112.33 743,-112 595.09,-95.55 554.85,-96.7 404.25,-76.23"/>
<polygon fill="#63b8ff" stroke="#63b8ff" points="405.1,-72.82 394.71,-74.93 404.15,-79.75 405.1,-72.82"/>
</a>
</g>
</g>
<!-- Node22&#45;&gt;Node23 -->
<g id="edge25_Node000022_Node000023" class="edge">
<title>Node22&#45;&gt;Node23</title>
<g id="a_edge25_Node000022_Node000023"><a xlink:title=" ">
<path fill="none" stroke="#63b8ff" d="M834.11,-111.59C846,-103.67 863.27,-92.16 877.28,-82.82"/>
<polygon fill="#63b8ff" stroke="#63b8ff" points="879.14,-85.78 885.52,-77.32 875.26,-79.95 879.14,-85.78"/>
</a>
</g>
</g>
<!-- Node24&#45;&gt;Node19 -->
<g id="edge30_Node000024_Node000019" class="edge">
<title>Node24&#45;&gt;Node19</title>
<g id="a_edge30_Node000024_Node000019"><a xlink:title=" ">
<path fill="none" stroke="#63b8ff" d="M118.34,-113.14C121.27,-112.76 124.17,-112.37 127,-112 245.63,-96.38 278.48,-96.1 399.49,-76.32"/>
<polygon fill="#63b8ff" stroke="#63b8ff" points="399.9,-79.8 409.2,-74.73 398.76,-72.9 399.9,-79.8"/>
</a>
</g>
</g>
<!-- Node24&#45;&gt;Node20 -->
<g id="edge31_Node000024_Node000020" class="edge">
<title>Node24&#45;&gt;Node20</title>
<g id="a_edge31_Node000024_Node000020"><a xlink:title=" ">
<path fill="none" stroke="#63b8ff" d="M109.85,-111.53C161.3,-101.95 240.63,-87.18 293.64,-77.31"/>
<polygon fill="#63b8ff" stroke="#63b8ff" points="294.19,-80.77 303.38,-75.5 292.9,-73.89 294.19,-80.77"/>
</a>
</g>
</g>
<!-- Node25&#45;&gt;Node19 -->
<g id="edge33_Node000025_Node000019" class="edge">
<title>Node25&#45;&gt;Node19</title>
<g id="a_edge33_Node000025_Node000019"><a xlink:title=" ">
<path fill="none" stroke="#63b8ff" d="M518.02,-111.59C505.27,-103.59 486.71,-91.93 471.76,-82.54"/>
<polygon fill="#63b8ff" stroke="#63b8ff" points="473.71,-79.64 463.38,-77.28 469.99,-85.57 473.71,-79.64"/>
</a>
</g>
</g>
<!-- Node25&#45;&gt;Node20 -->
<g id="edge34_Node000025_Node000020" class="edge">
<title>Node25&#45;&gt;Node20</title>
<g id="a_edge34_Node000025_Node000020"><a xlink:title=" ">
<path fill="none" stroke="#63b8ff" d="M500.95,-111.59C470.79,-102.74 425.41,-89.43 392.1,-79.65"/>
<polygon fill="#63b8ff" stroke="#63b8ff" points="393.33,-76.36 382.75,-76.91 391.36,-83.08 393.33,-76.36"/>
</a>
</g>
</g>
<!-- Node26&#45;&gt;Node19 -->
<g id="edge36_Node000026_Node000019" class="edge">
<title>Node26&#45;&gt;Node19</title>
<g id="a_edge36_Node000026_Node000019"><a xlink:title=" ">
<path fill="none" stroke="#63b8ff" d="M633.38,-111.53C594.73,-102.3 535.9,-88.24 494.71,-78.4"/>
<polygon fill="#63b8ff" stroke="#63b8ff" points="495.6,-75.01 485.06,-76.09 493.97,-81.82 495.6,-75.01"/>
</a>
</g>
</g>
<!-- Node26&#45;&gt;Node20 -->
<g id="edge37_Node000026_Node000020" class="edge">
<title>Node26&#45;&gt;Node20</title>
<g id="a_edge37_Node000026_Node000020"><a xlink:title=" ">
<path fill="none" stroke="#63b8ff" d="M615.63,-111.54C563.23,-102.88 483.31,-89.64 404.37,-76.39"/>
<polygon fill="#63b8ff" stroke="#63b8ff" points="405.18,-72.98 394.74,-74.78 404.02,-79.88 405.18,-72.98"/>
</a>
</g>
</g>
<!-- Node27&#45;&gt;Node19 -->
<g id="edge46_Node000027_Node000019" class="edge">
<title>Node27&#45;&gt;Node19</title>
<g id="a_edge46_Node000027_Node000019"><a xlink:title=" ">
<path fill="none" stroke="#63b8ff" d="M202.1,-113.64C204.77,-113.08 207.43,-112.52 210,-112 291.59,-95.4 314.88,-92.72 399.46,-76.47"/>
<polygon fill="#63b8ff" stroke="#63b8ff" points="400.02,-79.93 409.17,-74.59 398.69,-73.05 400.02,-79.93"/>
</a>
</g>
</g>
<!-- Node27&#45;&gt;Node20 -->
<g id="edge47_Node000027_Node000020" class="edge">
<title>Node27&#45;&gt;Node20</title>
<g id="a_edge47_Node000027_Node000020"><a xlink:title=" ">
<path fill="none" stroke="#63b8ff" d="M200.35,-111.59C229.73,-102.78 273.86,-89.54 306.41,-79.78"/>
<polygon fill="#63b8ff" stroke="#63b8ff" points="307.38,-83.14 315.95,-76.91 305.37,-76.44 307.38,-83.14"/>
</a>
</g>
</g>
<!-- Node32 -->
<g id="Node000032" class="node">
<title>Node32</title>
<g id="a_Node000032"><a xlink:href="IRepository_8hpp.html" target="_top" xlink:title=" ">
<polygon fill="white" stroke="#666666" points="1626.12,-132 1541.88,-132 1541.88,-112 1626.12,-112 1626.12,-132"/>
<text text-anchor="middle" x="1584" y="-118.5" font-family="Helvetica,sans-Serif" font-size="10.00">IRepository.hpp</text>
</a>
</g>
</g>
<!-- Node31&#45;&gt;Node32 -->
<g id="edge58_Node000031_Node000032" class="edge">
<title>Node31&#45;&gt;Node32</title>
<g id="a_edge58_Node000031_Node000032"><a xlink:title=" ">
<path fill="none" stroke="#63b8ff" d="M1565.83,-167.59C1568.61,-160.78 1572.46,-151.32 1575.91,-142.86"/>
<polygon fill="#63b8ff" stroke="#63b8ff" points="1579.11,-144.28 1579.64,-133.7 1572.63,-141.64 1579.11,-144.28"/>
</a>
</g>
</g>
<!-- Node31&#45;&gt;Node33 -->
<g id="edge60_Node000031_Node000033" class="edge">
<title>Node31&#45;&gt;Node33</title>
<g id="a_edge60_Node000031_Node000033"><a xlink:title=" ">
<path fill="none" stroke="#63b8ff" d="M1587.78,-167.59C1611.4,-158.97 1646.64,-146.12 1673.22,-136.42"/>
<polygon fill="#63b8ff" stroke="#63b8ff" points="1674.4,-139.71 1682.6,-133 1672,-133.14 1674.4,-139.71"/>
</a>
</g>
</g>
<!-- Node32&#45;&gt;Node10 -->
<g id="edge59_Node000032_Node000010" class="edge">
<title>Node32&#45;&gt;Node10</title>
<g id="a_edge59_Node000032_Node000010"><a xlink:title=" ">
<path fill="none" stroke="#63b8ff" d="M1547.83,-111.51C1515.69,-103.06 1467.13,-90.24 1416.36,-76.62"/>
<polygon fill="#63b8ff" stroke="#63b8ff" points="1417.53,-73.31 1406.96,-74.1 1415.71,-80.07 1417.53,-73.31"/>
</a>
</g>
</g>
<!-- Node33&#45;&gt;Node14 -->
<g id="edge62_Node000033_Node000014" class="edge">
<title>Node33&#45;&gt;Node14</title>
<g id="a_edge62_Node000033_Node000014"><a xlink:title=" ">
<path fill="none" stroke="#63b8ff" d="M1649.43,-111.51C1603.63,-103.89 1539.03,-92.19 1474.05,-76.29"/>
<polygon fill="#63b8ff" stroke="#63b8ff" points="1475.22,-72.97 1464.67,-73.96 1473.53,-79.76 1475.22,-72.97"/>
</a>
</g>
</g>
<!-- Node33&#45;&gt;Node17 -->
<g id="edge61_Node000033_Node000017" class="edge">
<title>Node33&#45;&gt;Node17</title>
<g id="a_edge61_Node000033_Node000017"><a xlink:title=" ">
<path fill="none" stroke="#63b8ff" d="M1679.69,-111.59C1651.3,-102.78 1608.63,-89.54 1577.17,-79.78"/>
<polygon fill="#63b8ff" stroke="#63b8ff" points="1578.58,-76.55 1567.99,-76.93 1576.5,-83.23 1578.58,-76.55"/>
</a>
</g>
</g>
<!-- Node34&#45;&gt;Node32 -->
<g id="edge64_Node000034_Node000032" class="edge">
<title>Node34&#45;&gt;Node32</title>
<g id="a_edge64_Node000034_Node000032"><a xlink:title=" ">
<path fill="none" stroke="#63b8ff" d="M1431.22,-167.59C1461.55,-158.74 1507.17,-145.43 1540.67,-135.65"/>
<polygon fill="#63b8ff" stroke="#63b8ff" points="1541.45,-139.07 1550.07,-132.9 1539.49,-132.35 1541.45,-139.07"/>
</a>
</g>
</g>
<!-- Node35 -->
<g id="Node000035" class="node">
<title>Node35</title>
<g id="a_Node000035"><a xlink:href="LogChannelDTO_8hpp.html" target="_top" xlink:title=" ">
<polygon fill="white" stroke="#666666" points="1523.75,-132 1416.25,-132 1416.25,-112 1523.75,-112 1523.75,-132"/>
<text text-anchor="middle" x="1470" y="-118.5" font-family="Helvetica,sans-Serif" font-size="10.00">LogChannelDTO.hpp</text>
</a>
</g>
</g>
<!-- Node34&#45;&gt;Node35 -->
<g id="edge65_Node000034_Node000035" class="edge">
<title>Node34&#45;&gt;Node35</title>
<g id="a_edge65_Node000034_Node000035"><a xlink:title=" ">
<path fill="none" stroke="#63b8ff" d="M1411.37,-167.59C1421.65,-159.77 1436.52,-148.46 1448.71,-139.19"/>
<polygon fill="#63b8ff" stroke="#63b8ff" points="1450.73,-142.05 1456.57,-133.21 1446.49,-136.48 1450.73,-142.05"/>
</a>
</g>
</g>
<!-- Node35&#45;&gt;Node14 -->
<g id="edge67_Node000035_Node000014" class="edge">
<title>Node35&#45;&gt;Node14</title>
<g id="a_edge67_Node000035_Node000014"><a xlink:title=" ">
<path fill="none" stroke="#63b8ff" d="M1465.3,-111.59C1461.85,-104.7 1457.05,-95.1 1452.79,-86.57"/>
<polygon fill="#63b8ff" stroke="#63b8ff" points="1455.93,-85.03 1448.33,-77.65 1449.67,-88.16 1455.93,-85.03"/>
</a>
</g>
</g>
<!-- Node35&#45;&gt;Node17 -->
<g id="edge66_Node000035_Node000017" class="edge">
<title>Node35&#45;&gt;Node17</title>
<g id="a_edge66_Node000035_Node000017"><a xlink:title=" ">
<path fill="none" stroke="#63b8ff" d="M1481.5,-111.59C1490.96,-103.85 1504.6,-92.69 1515.87,-83.47"/>
<polygon fill="#63b8ff" stroke="#63b8ff" points="1517.94,-86.3 1523.46,-77.26 1513.51,-80.88 1517.94,-86.3"/>
</a>
</g>
</g>
<!-- Node36&#45;&gt;Node32 -->
<g id="edge69_Node000036_Node000032" class="edge">
<title>Node36&#45;&gt;Node32</title>
<g id="a_edge69_Node000036_Node000032"><a xlink:title=" ">
<path fill="none" stroke="#63b8ff" d="M1710.35,-167.59C1685.82,-158.94 1649.17,-146 1621.66,-136.29"/>
<polygon fill="#63b8ff" stroke="#63b8ff" points="1622.88,-133.01 1612.29,-132.98 1620.55,-139.61 1622.88,-133.01"/>
</a>
</g>
</g>
<!-- Node36&#45;&gt;Node37 -->
<g id="edge70_Node000036_Node000037" class="edge">
<title>Node36&#45;&gt;Node37</title>
<g id="a_edge70_Node000036_Node000037"><a xlink:title=" ">
<path fill="none" stroke="#63b8ff" d="M1758.42,-167.59C1777.62,-159.17 1806.04,-146.69 1827.94,-137.07"/>
<polygon fill="#63b8ff" stroke="#63b8ff" points="1829.27,-140.31 1837.02,-133.09 1826.46,-133.9 1829.27,-140.31"/>
</a>
</g>
</g>
<!-- Node37&#45;&gt;Node14 -->
<g id="edge72_Node000037_Node000014" class="edge">
<title>Node37&#45;&gt;Node14</title>
<g id="a_edge72_Node000037_Node000014"><a xlink:title=" ">
<path fill="none" stroke="#63b8ff" d="M1793.68,-113.13C1790.41,-112.75 1787.17,-112.37 1784,-112 1649.01,-96.22 1610.59,-104.35 1474.73,-76.24"/>
<polygon fill="#63b8ff" stroke="#63b8ff" points="1475.46,-72.81 1464.95,-74.18 1474.02,-79.66 1475.46,-72.81"/>
</a>
</g>
</g>
<!-- Node37&#45;&gt;Node17 -->
<g id="edge71_Node000037_Node000017" class="edge">
<title>Node37&#45;&gt;Node17</title>
<g id="a_edge71_Node000037_Node000017"><a xlink:title=" ">
<path fill="none" stroke="#63b8ff" d="M1803.19,-111.53C1747.1,-102.18 1661.36,-87.89 1602.21,-78.03"/>
<polygon fill="#63b8ff" stroke="#63b8ff" points="1603.05,-74.63 1592.61,-76.44 1601.9,-81.53 1603.05,-74.63"/>
</a>
</g>
</g>
</g>
</svg>
