<?xml version="1.0" encoding="UTF-8" standalone="no"?>
<!DOCTYPE svg PUBLIC "-//W3C//DTD SVG 1.1//EN"
 "http://www.w3.org/Graphics/SVG/1.1/DTD/svg11.dtd">
<!-- Generated by graphviz version 13.0.1 (0)
 -->
<!-- Title: src/bot_library/commands/notification/SetNotificationCommand.hpp Pages: 1 -->
<svg width="1361pt" height="376pt"
 viewBox="0.00 0.00 1361.00 376.00" xmlns="http://www.w3.org/2000/svg" xmlns:xlink="http://www.w3.org/1999/xlink">
<g id="graph0" class="graph" transform="scale(1 1) rotate(0) translate(4 372)">
<title>src/bot_library/commands/notification/SetNotificationCommand.hpp</title>
<!-- Node1 -->
<g id="Node000001" class="node">
<title>Node1</title>
<g id="a_Node000001"><a xlink:title=" ">
<polygon fill="#999999" stroke="#666666" points="866.75,-368 669.25,-368 669.25,-336 866.75,-336 866.75,-368"/>
<text xml:space="preserve" text-anchor="start" x="677.25" y="-354.5" font-family="Helvetica,sans-Serif" font-size="10.00">src/bot_library/commands</text>
<text xml:space="preserve" text-anchor="middle" x="768" y="-342.5" font-family="Helvetica,sans-Serif" font-size="10.00">/notification/SetNotificationCommand.hpp</text>
</a>
</g>
</g>
<!-- Node2 -->
<g id="Node000002" class="node">
<title>Node2</title>
<g id="a_Node000002"><a xlink:title=" ">
<polygon fill="#e0e0e0" stroke="#999999" points="763.62,-300 694.38,-300 694.38,-280 763.62,-280 763.62,-300"/>
<text xml:space="preserve" text-anchor="middle" x="729" y="-286.5" font-family="Helvetica,sans-Serif" font-size="10.00">dispatcher.h</text>
</a>
</g>
</g>
<!-- Node1&#45;&gt;Node2 -->
<g id="edge1_Node000001_Node000002" class="edge">
<title>Node1&#45;&gt;Node2</title>
<g id="a_edge1_Node000001_Node000002"><a xlink:title=" ">
<path fill="none" stroke="#63b8ff" d="M757.96,-335.55C752.88,-327.74 746.67,-318.19 741.31,-309.94"/>
<polygon fill="#63b8ff" stroke="#63b8ff" points="744.32,-308.15 735.94,-301.68 738.46,-311.97 744.32,-308.15"/>
</a>
</g>
</g>
<!-- Node3 -->
<g id="Node000003" class="node">
<title>Node3</title>
<g id="a_Node000003"><a xlink:href="Bot_8hpp.html" target="_top" xlink:title=" ">
<polygon fill="white" stroke="#666666" points="831.88,-300 782.12,-300 782.12,-280 831.88,-280 831.88,-300"/>
<text xml:space="preserve" text-anchor="middle" x="807" y="-286.5" font-family="Helvetica,sans-Serif" font-size="10.00">Bot.hpp</text>
</a>
</g>
</g>
<!-- Node1&#45;&gt;Node3 -->
<g id="edge2_Node000001_Node000003" class="edge">
<title>Node1&#45;&gt;Node3</title>
<g id="a_edge2_Node000001_Node000003"><a xlink:title=" ">
<path fill="none" stroke="#63b8ff" d="M778.04,-335.55C783.12,-327.74 789.33,-318.19 794.69,-309.94"/>
<polygon fill="#63b8ff" stroke="#63b8ff" points="797.54,-311.97 800.06,-301.68 791.68,-308.15 797.54,-311.97"/>
</a>
</g>
</g>
<!-- Node4 -->
<g id="Node000004" class="node">
<title>Node4</title>
<g id="a_Node000004"><a xlink:href="Core_8hpp.html" target="_top" xlink:title=" ">
<polygon fill="white" stroke="#666666" points="706.88,-244 651.12,-244 651.12,-224 706.88,-224 706.88,-244"/>
<text xml:space="preserve" text-anchor="middle" x="679" y="-230.5" font-family="Helvetica,sans-Serif" font-size="10.00">Core.hpp</text>
</a>
</g>
</g>
<!-- Node3&#45;&gt;Node4 -->
<g id="edge3_Node000003_Node000004" class="edge">
<title>Node3&#45;&gt;Node4</title>
<g id="a_edge3_Node000003_Node000004"><a xlink:title=" ">
<path fill="none" stroke="#63b8ff" d="M784.7,-279.59C764.64,-271.13 734.88,-258.58 712.05,-248.94"/>
<polygon fill="#63b8ff" stroke="#63b8ff" points="713.44,-245.73 702.86,-245.07 710.72,-252.18 713.44,-245.73"/>
</a>
</g>
</g>
<!-- Node9 -->
<g id="Node000009" class="node">
<title>Node9</title>
<g id="a_Node000009"><a xlink:title=" ">
<polygon fill="#e0e0e0" stroke="#999999" points="40,-132 0,-132 0,-112 40,-112 40,-132"/>
<text xml:space="preserve" text-anchor="middle" x="20" y="-118.5" font-family="Helvetica,sans-Serif" font-size="10.00">string</text>
</a>
</g>
</g>
<!-- Node3&#45;&gt;Node9 -->
<g id="edge45_Node000003_Node000009" class="edge">
<title>Node3&#45;&gt;Node9</title>
<g id="a_edge45_Node000003_Node000009"><a xlink:title=" ">
<path fill="none" stroke="#63b8ff" d="M781.86,-281.81C778.89,-281.12 775.89,-280.49 773,-280 469.34,-228.12 355.55,-337.14 86,-188 64.76,-176.25 45.62,-155.76 33.49,-140.92"/>
<polygon fill="#63b8ff" stroke="#63b8ff" points="36.45,-139.02 27.52,-133.32 30.95,-143.35 36.45,-139.02"/>
</a>
</g>
</g>
<!-- Node10 -->
<g id="Node000010" class="node">
<title>Node10</title>
<g id="a_Node000010"><a xlink:title=" ">
<polygon fill="#e0e0e0" stroke="#999999" points="339.5,-132 296.5,-132 296.5,-112 339.5,-112 339.5,-132"/>
<text xml:space="preserve" text-anchor="middle" x="318" y="-118.5" font-family="Helvetica,sans-Serif" font-size="10.00">vector</text>
</a>
</g>
</g>
<!-- Node3&#45;&gt;Node10 -->
<g id="edge46_Node000003_Node000010" class="edge">
<title>Node3&#45;&gt;Node10</title>
<g id="a_edge46_Node000003_Node000010"><a xlink:title=" ">
<path fill="none" stroke="#63b8ff" d="M781.82,-282.03C778.85,-281.3 775.87,-280.61 773,-280 661.62,-256.41 341.15,-276.07 269,-188 255.58,-171.62 274.67,-152.14 292.8,-138.8"/>
<polygon fill="#63b8ff" stroke="#63b8ff" points="294.53,-141.86 300.77,-133.3 290.55,-136.1 294.53,-141.86"/>
</a>
</g>
</g>
<!-- Node14 -->
<g id="Node000014" class="node">
<title>Node14</title>
<g id="a_Node000014"><a xlink:href="IButtonCommand_8hpp.html" target="_top" xlink:title=" ">
<polygon fill="white" stroke="#666666" points="1009.62,-188 898.38,-188 898.38,-168 1009.62,-168 1009.62,-188"/>
<text xml:space="preserve" text-anchor="middle" x="954" y="-174.5" font-family="Helvetica,sans-Serif" font-size="10.00">IButtonCommand.hpp</text>
</a>
</g>
</g>
<!-- Node3&#45;&gt;Node14 -->
<g id="edge35_Node000003_Node000014" class="edge">
<title>Node3&#45;&gt;Node14</title>
<g id="a_edge35_Node000003_Node000014"><a xlink:title=" ">
<path fill="none" stroke="#63b8ff" d="M814.23,-279.69C825.06,-266.19 846.62,-240.94 869,-224 885.05,-211.85 904.84,-201.16 921.29,-193.25"/>
<polygon fill="#63b8ff" stroke="#63b8ff" points="922.58,-196.51 930.17,-189.11 919.62,-190.17 922.58,-196.51"/>
</a>
</g>
</g>
<!-- Node17 -->
<g id="Node000017" class="node">
<title>Node17</title>
<g id="a_Node000017"><a xlink:href="IFormCommand_8hpp.html" target="_top" xlink:title=" ">
<polygon fill="white" stroke="#666666" points="1132.62,-188 1027.38,-188 1027.38,-168 1132.62,-168 1132.62,-188"/>
<text xml:space="preserve" text-anchor="middle" x="1080" y="-174.5" font-family="Helvetica,sans-Serif" font-size="10.00">IFormCommand.hpp</text>
</a>
</g>
</g>
<!-- Node3&#45;&gt;Node17 -->
<g id="edge36_Node000003_Node000017" class="edge">
<title>Node3&#45;&gt;Node17</title>
<g id="a_edge36_Node000003_Node000017"><a xlink:title=" ">
<path fill="none" stroke="#63b8ff" d="M818.59,-279.66C836.52,-265.65 872.52,-239.21 907,-224 941.69,-208.7 982.68,-197.75 1016.05,-190.49"/>
<polygon fill="#63b8ff" stroke="#63b8ff" points="1016.51,-193.97 1025.57,-188.48 1015.07,-187.12 1016.51,-193.97"/>
</a>
</g>
</g>
<!-- Node18 -->
<g id="Node000018" class="node">
<title>Node18</title>
<g id="a_Node000018"><a xlink:href="IGlobalSlashCommand_8hpp.html" target="_top" xlink:title=" ">
<polygon fill="white" stroke="#666666" points="413.62,-188 278.38,-188 278.38,-168 413.62,-168 413.62,-188"/>
<text xml:space="preserve" text-anchor="middle" x="346" y="-174.5" font-family="Helvetica,sans-Serif" font-size="10.00">IGlobalSlashCommand.hpp</text>
</a>
</g>
</g>
<!-- Node3&#45;&gt;Node18 -->
<g id="edge37_Node000003_Node000018" class="edge">
<title>Node3&#45;&gt;Node18</title>
<g id="a_edge37_Node000003_Node000018"><a xlink:title=" ">
<path fill="none" stroke="#63b8ff" d="M781.77,-282.24C778.82,-281.47 775.84,-280.71 773,-280 638.38,-246.27 479.11,-209.4 398.46,-190.94"/>
<polygon fill="#63b8ff" stroke="#63b8ff" points="399.61,-187.61 389.08,-188.79 398.05,-194.43 399.61,-187.61"/>
</a>
</g>
</g>
<!-- Node20 -->
<g id="Node000020" class="node">
<title>Node20</title>
<g id="a_Node000020"><a xlink:href="IMemberCommand_8hpp.html" target="_top" xlink:title=" ">
<polygon fill="white" stroke="#666666" points="1269,-188 1151,-188 1151,-168 1269,-168 1269,-188"/>
<text xml:space="preserve" text-anchor="middle" x="1210" y="-174.5" font-family="Helvetica,sans-Serif" font-size="10.00">IMemberCommand.hpp</text>
</a>
</g>
</g>
<!-- Node3&#45;&gt;Node20 -->
<g id="edge38_Node000003_Node000020" class="edge">
<title>Node3&#45;&gt;Node20</title>
<g id="a_edge38_Node000003_Node000020"><a xlink:title=" ">
<path fill="none" stroke="#63b8ff" d="M827.49,-279.63C847.16,-270.61 877.68,-256.52 904,-244 922.31,-235.29 925.7,-230.2 945,-224 980.22,-212.68 1073.49,-198.11 1139.38,-188.67"/>
<polygon fill="#63b8ff" stroke="#63b8ff" points="1139.62,-192.17 1149.02,-187.3 1138.63,-185.24 1139.62,-192.17"/>
</a>
</g>
</g>
<!-- Node21 -->
<g id="Node000021" class="node">
<title>Node21</title>
<g id="a_Node000021"><a xlink:href="IMessageCommand_8hpp.html" target="_top" xlink:title=" ">
<polygon fill="white" stroke="#666666" points="740.25,-188 617.75,-188 617.75,-168 740.25,-168 740.25,-188"/>
<text xml:space="preserve" text-anchor="middle" x="679" y="-174.5" font-family="Helvetica,sans-Serif" font-size="10.00">IMessageCommand.hpp</text>
</a>
</g>
</g>
<!-- Node3&#45;&gt;Node21 -->
<g id="edge39_Node000003_Node000021" class="edge">
<title>Node3&#45;&gt;Node21</title>
<g id="a_edge39_Node000003_Node000021"><a xlink:title=" ">
<path fill="none" stroke="#63b8ff" d="M796.09,-279.62C774.45,-261.03 725.87,-219.28 698.57,-195.82"/>
<polygon fill="#63b8ff" stroke="#63b8ff" points="700.9,-193.2 691.03,-189.34 696.34,-198.51 700.9,-193.2"/>
</a>
</g>
</g>
<!-- Node22 -->
<g id="Node000022" class="node">
<title>Node22</title>
<g id="a_Node000022"><a xlink:href="IReactionCommand_8hpp.html" target="_top" xlink:title=" ">
<polygon fill="white" stroke="#666666" points="879.88,-188 758.12,-188 758.12,-168 879.88,-168 879.88,-188"/>
<text xml:space="preserve" text-anchor="middle" x="819" y="-174.5" font-family="Helvetica,sans-Serif" font-size="10.00">IReactionCommand.hpp</text>
</a>
</g>
</g>
<!-- Node3&#45;&gt;Node22 -->
<g id="edge40_Node000003_Node000022" class="edge">
<title>Node3&#45;&gt;Node22</title>
<g id="a_edge40_Node000003_Node000022"><a xlink:title=" ">
<path fill="none" stroke="#63b8ff" d="M808.02,-279.62C809.94,-262.01 814.14,-223.59 816.75,-199.65"/>
<polygon fill="#63b8ff" stroke="#63b8ff" points="820.21,-200.18 817.82,-189.86 813.25,-199.42 820.21,-200.18"/>
</a>
</g>
</g>
<!-- Node23 -->
<g id="Node000023" class="node">
<title>Node23</title>
<g id="a_Node000023"><a xlink:href="IReady_8hpp.html" target="_top" xlink:title=" ">
<polygon fill="white" stroke="#666666" points="1352.75,-188 1287.25,-188 1287.25,-168 1352.75,-168 1352.75,-188"/>
<text xml:space="preserve" text-anchor="middle" x="1320" y="-174.5" font-family="Helvetica,sans-Serif" font-size="10.00">IReady.hpp</text>
</a>
</g>
</g>
<!-- Node3&#45;&gt;Node23 -->
<g id="edge41_Node000003_Node000023" class="edge">
<title>Node3&#45;&gt;Node23</title>
<g id="a_edge41_Node000003_Node000023"><a xlink:title=" ">
<path fill="none" stroke="#63b8ff" d="M832.22,-281.6C859.09,-273.44 902.67,-259.41 939,-244 956.93,-236.39 959.37,-229.69 978,-224 1103.04,-185.78 1143.41,-208.8 1276.06,-188.14"/>
<polygon fill="#63b8ff" stroke="#63b8ff" points="1276.23,-191.66 1285.55,-186.6 1275.11,-184.75 1276.23,-191.66"/>
</a>
</g>
</g>
<!-- Node24 -->
<g id="Node000024" class="node">
<title>Node24</title>
<g id="a_Node000024"><a xlink:title=" ">
<polygon fill="#e0e0e0" stroke="#999999" points="1038.62,-244 987.38,-244 987.38,-224 1038.62,-224 1038.62,-244"/>
<text xml:space="preserve" text-anchor="middle" x="1013" y="-230.5" font-family="Helvetica,sans-Serif" font-size="10.00">memory</text>
</a>
</g>
</g>
<!-- Node3&#45;&gt;Node24 -->
<g id="edge44_Node000003_Node000024" class="edge">
<title>Node3&#45;&gt;Node24</title>
<g id="a_edge44_Node000003_Node000024"><a xlink:title=" ">
<path fill="none" stroke="#63b8ff" d="M832.26,-282.38C868.2,-272.96 934.34,-255.62 975.87,-244.73"/>
<polygon fill="#63b8ff" stroke="#63b8ff" points="976.63,-248.15 985.42,-242.23 974.86,-241.38 976.63,-248.15"/>
</a>
</g>
</g>
<!-- Node5 -->
<g id="Node000005" class="node">
<title>Node5</title>
<g id="a_Node000005"><a xlink:title=" ">
<polygon fill="#e0e0e0" stroke="#999999" points="599.38,-188 540.62,-188 540.62,-168 599.38,-168 599.38,-188"/>
<text xml:space="preserve" text-anchor="middle" x="570" y="-174.5" font-family="Helvetica,sans-Serif" font-size="10.00">dpp/dpp.h</text>
</a>
</g>
</g>
<!-- Node4&#45;&gt;Node5 -->
<g id="edge4_Node000004_Node000005" class="edge">
<title>Node4&#45;&gt;Node5</title>
<g id="a_edge4_Node000004_Node000005"><a xlink:title=" ">
<path fill="none" stroke="#63b8ff" d="M660.01,-223.59C643.24,-215.28 618.51,-203.03 599.21,-193.47"/>
<polygon fill="#63b8ff" stroke="#63b8ff" points="601.01,-190.45 590.49,-189.15 597.9,-196.73 601.01,-190.45"/>
</a>
</g>
</g>
<!-- Node6 -->
<g id="Node000006" class="node">
<title>Node6</title>
<g id="a_Node000006"><a xlink:title=" ">
<polygon fill="#e0e0e0" stroke="#999999" points="522.5,-188 431.5,-188 431.5,-168 522.5,-168 522.5,-188"/>
<text xml:space="preserve" text-anchor="middle" x="477" y="-174.5" font-family="Helvetica,sans-Serif" font-size="10.00">dpp/misc&#45;enum.h</text>
</a>
</g>
</g>
<!-- Node4&#45;&gt;Node6 -->
<g id="edge5_Node000004_Node000006" class="edge">
<title>Node4&#45;&gt;Node6</title>
<g id="a_edge5_Node000004_Node000006"><a xlink:title=" ">
<path fill="none" stroke="#63b8ff" d="M650.91,-225.49C617.89,-216.66 562.59,-201.88 523.22,-191.36"/>
<polygon fill="#63b8ff" stroke="#63b8ff" points="524.34,-188.03 513.78,-188.83 522.53,-194.8 524.34,-188.03"/>
</a>
</g>
</g>
<!-- Node7 -->
<g id="Node000007" class="node">
<title>Node7</title>
<g id="a_Node000007"><a xlink:href="Database_8hpp.html" target="_top" xlink:title=" ">
<polygon fill="white" stroke="#666666" points="222.38,-188 145.62,-188 145.62,-168 222.38,-168 222.38,-188"/>
<text xml:space="preserve" text-anchor="middle" x="184" y="-174.5" font-family="Helvetica,sans-Serif" font-size="10.00">Database.hpp</text>
</a>
</g>
</g>
<!-- Node4&#45;&gt;Node7 -->
<g id="edge6_Node000004_Node000007" class="edge">
<title>Node4&#45;&gt;Node7</title>
<g id="a_edge6_Node000004_Node000007"><a xlink:title=" ">
<path fill="none" stroke="#63b8ff" d="M650.97,-229.94C570.33,-221.14 336.94,-195.68 233.9,-184.44"/>
<polygon fill="#63b8ff" stroke="#63b8ff" points="234.41,-180.98 224.09,-183.37 233.65,-187.94 234.41,-180.98"/>
</a>
</g>
</g>
<!-- Node4&#45;&gt;Node9 -->
<g id="edge34_Node000004_Node000009" class="edge">
<title>Node4&#45;&gt;Node9</title>
<g id="a_edge34_Node000004_Node000009"><a xlink:title=" ">
<path fill="none" stroke="#63b8ff" d="M650.92,-232.23C554.09,-229.33 234.68,-217.68 137,-188 101.33,-177.16 64.42,-154.38 41.83,-138.88"/>
<polygon fill="#63b8ff" stroke="#63b8ff" points="43.95,-136.09 33.75,-133.21 39.93,-141.82 43.95,-136.09"/>
</a>
</g>
</g>
<!-- Node4&#45;&gt;Node14 -->
<g id="edge14_Node000004_Node000014" class="edge">
<title>Node4&#45;&gt;Node14</title>
<g id="a_edge14_Node000004_Node000014"><a xlink:title=" ">
<path fill="none" stroke="#63b8ff" d="M707.14,-227.47C750.96,-218.87 836.51,-202.07 894.46,-190.69"/>
<polygon fill="#63b8ff" stroke="#63b8ff" points="895.03,-194.15 904.17,-188.78 893.69,-187.28 895.03,-194.15"/>
</a>
</g>
</g>
<!-- Node4&#45;&gt;Node17 -->
<g id="edge17_Node000004_Node000017" class="edge">
<title>Node4&#45;&gt;Node17</title>
<g id="a_edge17_Node000004_Node000017"><a xlink:title=" ">
<path fill="none" stroke="#63b8ff" d="M707.23,-229.41C763.76,-222.19 895.15,-205.24 1015.84,-188.43"/>
<polygon fill="#63b8ff" stroke="#63b8ff" points="1016.19,-191.91 1025.61,-187.06 1015.22,-184.98 1016.19,-191.91"/>
</a>
</g>
</g>
<!-- Node4&#45;&gt;Node18 -->
<g id="edge20_Node000004_Node000018" class="edge">
<title>Node4&#45;&gt;Node18</title>
<g id="a_edge20_Node000004_Node000018"><a xlink:title=" ">
<path fill="none" stroke="#63b8ff" d="M650.9,-228.44C599.47,-220.1 488.83,-202.16 415.93,-190.34"/>
<polygon fill="#63b8ff" stroke="#63b8ff" points="416.5,-186.89 406.07,-188.74 415.38,-193.8 416.5,-186.89"/>
</a>
</g>
</g>
<!-- Node4&#45;&gt;Node20 -->
<g id="edge25_Node000004_Node000020" class="edge">
<title>Node4&#45;&gt;Node20</title>
<g id="a_edge25_Node000004_Node000020"><a xlink:title=" ">
<path fill="none" stroke="#63b8ff" d="M707.22,-230.6C778.01,-224.51 969.07,-207.62 1139.48,-188.25"/>
<polygon fill="#63b8ff" stroke="#63b8ff" points="1139.64,-191.76 1149.17,-187.15 1138.84,-184.8 1139.64,-191.76"/>
</a>
</g>
</g>
<!-- Node4&#45;&gt;Node21 -->
<g id="edge28_Node000004_Node000021" class="edge">
<title>Node4&#45;&gt;Node21</title>
<g id="a_edge28_Node000004_Node000021"><a xlink:title=" ">
<path fill="none" stroke="#63b8ff" d="M679,-223.59C679,-217.01 679,-207.96 679,-199.73"/>
<polygon fill="#63b8ff" stroke="#63b8ff" points="682.5,-199.81 679,-189.81 675.5,-199.81 682.5,-199.81"/>
</a>
</g>
</g>
<!-- Node4&#45;&gt;Node22 -->
<g id="edge31_Node000004_Node000022" class="edge">
<title>Node4&#45;&gt;Node22</title>
<g id="a_edge31_Node000004_Node000022"><a xlink:title=" ">
<path fill="none" stroke="#63b8ff" d="M703.39,-223.59C725.63,-215.01 758.77,-202.23 783.87,-192.55"/>
<polygon fill="#63b8ff" stroke="#63b8ff" points="784.94,-195.89 793.01,-189.02 782.42,-189.36 784.94,-195.89"/>
</a>
</g>
</g>
<!-- Node8 -->
<g id="Node000008" class="node">
<title>Node8</title>
<g id="a_Node000008"><a xlink:title=" ">
<polygon fill="#e0e0e0" stroke="#999999" points="239.75,-132 186.25,-132 186.25,-112 239.75,-112 239.75,-132"/>
<text xml:space="preserve" text-anchor="middle" x="213" y="-118.5" font-family="Helvetica,sans-Serif" font-size="10.00">iostream</text>
</a>
</g>
</g>
<!-- Node7&#45;&gt;Node8 -->
<g id="edge7_Node000007_Node000008" class="edge">
<title>Node7&#45;&gt;Node8</title>
<g id="a_edge7_Node000007_Node000008"><a xlink:title=" ">
<path fill="none" stroke="#63b8ff" d="M189.05,-167.59C192.79,-160.63 198.02,-150.89 202.64,-142.29"/>
<polygon fill="#63b8ff" stroke="#63b8ff" points="205.64,-144.1 207.29,-133.63 199.48,-140.79 205.64,-144.1"/>
</a>
</g>
</g>
<!-- Node7&#45;&gt;Node9 -->
<g id="edge8_Node000007_Node000009" class="edge">
<title>Node7&#45;&gt;Node9</title>
<g id="a_edge8_Node000007_Node000009"><a xlink:title=" ">
<path fill="none" stroke="#63b8ff" d="M155.43,-167.59C126.3,-158 81.23,-143.16 51.19,-133.27"/>
<polygon fill="#63b8ff" stroke="#63b8ff" points="52.5,-130.02 41.91,-130.21 50.31,-136.67 52.5,-130.02"/>
</a>
</g>
</g>
<!-- Node7&#45;&gt;Node10 -->
<g id="edge9_Node000007_Node000010" class="edge">
<title>Node7&#45;&gt;Node10</title>
<g id="a_edge9_Node000007_Node000010"><a xlink:title=" ">
<path fill="none" stroke="#63b8ff" d="M207.34,-167.59C229.06,-158.84 261.62,-145.72 285.8,-135.97"/>
<polygon fill="#63b8ff" stroke="#63b8ff" points="286.89,-139.31 294.85,-132.33 284.27,-132.82 286.89,-139.31"/>
</a>
</g>
</g>
<!-- Node11 -->
<g id="Node000011" class="node">
<title>Node11</title>
<g id="a_Node000011"><a xlink:href="DatabaseBackend_8hpp.html" target="_top" xlink:title=" ">
<polygon fill="white" stroke="#666666" points="247.5,-76 132.5,-76 132.5,-56 247.5,-56 247.5,-76"/>
<text xml:space="preserve" text-anchor="middle" x="190" y="-62.5" font-family="Helvetica,sans-Serif" font-size="10.00">DatabaseBackend.hpp</text>
</a>
</g>
</g>
<!-- Node7&#45;&gt;Node11 -->
<g id="edge10_Node000007_Node000011" class="edge">
<title>Node7&#45;&gt;Node11</title>
<g id="a_edge10_Node000007_Node000011"><a xlink:title=" ">
<path fill="none" stroke="#63b8ff" d="M207.75,-167.51C222.53,-160.2 240.34,-148.53 249,-132 259.29,-112.37 238.85,-94.06 219.27,-81.92"/>
<polygon fill="#63b8ff" stroke="#63b8ff" points="221.29,-79.04 210.88,-77.07 217.79,-85.1 221.29,-79.04"/>
</a>
</g>
</g>
<!-- Node13 -->
<g id="Node000013" class="node">
<title>Node13</title>
<g id="a_Node000013"><a xlink:href="RowDTOAdapter_8hpp.html" target="_top" xlink:title=" ">
<polygon fill="white" stroke="#666666" points="167.88,-132 58.13,-132 58.13,-112 167.88,-112 167.88,-132"/>
<text xml:space="preserve" text-anchor="middle" x="113" y="-118.5" font-family="Helvetica,sans-Serif" font-size="10.00">RowDTOAdapter.hpp</text>
</a>
</g>
</g>
<!-- Node7&#45;&gt;Node13 -->
<g id="edge12_Node000007_Node000013" class="edge">
<title>Node7&#45;&gt;Node13</title>
<g id="a_edge12_Node000007_Node000013"><a xlink:title=" ">
<path fill="none" stroke="#63b8ff" d="M171.63,-167.59C161.35,-159.77 146.48,-148.46 134.29,-139.19"/>
<polygon fill="#63b8ff" stroke="#63b8ff" points="136.51,-136.48 126.43,-133.21 132.27,-142.05 136.51,-136.48"/>
</a>
</g>
</g>
<!-- Node12 -->
<g id="Node000012" class="node">
<title>Node12</title>
<g id="a_Node000012"><a xlink:title=" ">
<polygon fill="#e0e0e0" stroke="#999999" points="220.5,-20 159.5,-20 159.5,0 220.5,0 220.5,-20"/>
<text xml:space="preserve" text-anchor="middle" x="190" y="-6.5" font-family="Helvetica,sans-Serif" font-size="10.00">pqxx/pqxx</text>
</a>
</g>
</g>
<!-- Node11&#45;&gt;Node12 -->
<g id="edge11_Node000011_Node000012" class="edge">
<title>Node11&#45;&gt;Node12</title>
<g id="a_edge11_Node000011_Node000012"><a xlink:title=" ">
<path fill="none" stroke="#63b8ff" d="M190,-55.59C190,-49.01 190,-39.96 190,-31.73"/>
<polygon fill="#63b8ff" stroke="#63b8ff" points="193.5,-31.81 190,-21.81 186.5,-31.81 193.5,-31.81"/>
</a>
</g>
</g>
<!-- Node13&#45;&gt;Node11 -->
<g id="edge13_Node000013_Node000011" class="edge">
<title>Node13&#45;&gt;Node11</title>
<g id="a_edge13_Node000013_Node000011"><a xlink:title=" ">
<path fill="none" stroke="#63b8ff" d="M126.41,-111.59C137.61,-103.74 153.81,-92.38 167.06,-83.09"/>
<polygon fill="#63b8ff" stroke="#63b8ff" points="169.07,-85.96 175.24,-77.35 165.05,-80.22 169.07,-85.96"/>
</a>
</g>
</g>
<!-- Node15 -->
<g id="Node000015" class="node">
<title>Node15</title>
<g id="a_Node000015"><a xlink:title=" ">
<polygon fill="#e0e0e0" stroke="#999999" points="1039.12,-132 966.88,-132 966.88,-112 1039.12,-112 1039.12,-132"/>
<text xml:space="preserve" text-anchor="middle" x="1003" y="-118.5" font-family="Helvetica,sans-Serif" font-size="10.00">dpp/cluster.h</text>
</a>
</g>
</g>
<!-- Node14&#45;&gt;Node15 -->
<g id="edge15_Node000014_Node000015" class="edge">
<title>Node14&#45;&gt;Node15</title>
<g id="a_edge15_Node000014_Node000015"><a xlink:title=" ">
<path fill="none" stroke="#63b8ff" d="M962.54,-167.59C969.28,-160.16 978.89,-149.58 987.04,-140.58"/>
<polygon fill="#63b8ff" stroke="#63b8ff" points="989.42,-143.18 993.55,-133.42 984.23,-138.47 989.42,-143.18"/>
</a>
</g>
</g>
<!-- Node16 -->
<g id="Node000016" class="node">
<title>Node16</title>
<g id="a_Node000016"><a xlink:title=" ">
<polygon fill="#e0e0e0" stroke="#999999" points="949,-132 861,-132 861,-112 949,-112 949,-132"/>
<text xml:space="preserve" text-anchor="middle" x="905" y="-118.5" font-family="Helvetica,sans-Serif" font-size="10.00">dpp/dispatcher.h</text>
</a>
</g>
</g>
<!-- Node14&#45;&gt;Node16 -->
<g id="edge16_Node000014_Node000016" class="edge">
<title>Node14&#45;&gt;Node16</title>
<g id="a_edge16_Node000014_Node000016"><a xlink:title=" ">
<path fill="none" stroke="#63b8ff" d="M945.46,-167.59C938.72,-160.16 929.11,-149.58 920.96,-140.58"/>
<polygon fill="#63b8ff" stroke="#63b8ff" points="923.77,-138.47 914.45,-133.42 918.58,-143.18 923.77,-138.47"/>
</a>
</g>
</g>
<!-- Node17&#45;&gt;Node15 -->
<g id="edge18_Node000017_Node000015" class="edge">
<title>Node17&#45;&gt;Node15</title>
<g id="a_edge18_Node000017_Node000015"><a xlink:title=" ">
<path fill="none" stroke="#63b8ff" d="M1066.59,-167.59C1055.39,-159.74 1039.19,-148.38 1025.94,-139.09"/>
<polygon fill="#63b8ff" stroke="#63b8ff" points="1027.95,-136.22 1017.76,-133.35 1023.93,-141.96 1027.95,-136.22"/>
</a>
</g>
</g>
<!-- Node17&#45;&gt;Node16 -->
<g id="edge19_Node000017_Node000016" class="edge">
<title>Node17&#45;&gt;Node16</title>
<g id="a_edge19_Node000017_Node000016"><a xlink:title=" ">
<path fill="none" stroke="#63b8ff" d="M1049.52,-167.59C1020.96,-158.78 978.05,-145.54 946.4,-135.78"/>
<polygon fill="#63b8ff" stroke="#63b8ff" points="947.75,-132.53 937.17,-132.93 945.69,-139.22 947.75,-132.53"/>
</a>
</g>
</g>
<!-- Node18&#45;&gt;Node10 -->
<g id="edge24_Node000018_Node000010" class="edge">
<title>Node18&#45;&gt;Node10</title>
<g id="a_edge24_Node000018_Node000010"><a xlink:title=" ">
<path fill="none" stroke="#63b8ff" d="M341.12,-167.59C337.51,-160.63 332.46,-150.89 328,-142.29"/>
<polygon fill="#63b8ff" stroke="#63b8ff" points="331.23,-140.91 323.52,-133.64 325.01,-144.13 331.23,-140.91"/>
</a>
</g>
</g>
<!-- Node18&#45;&gt;Node15 -->
<g id="edge22_Node000018_Node000015" class="edge">
<title>Node18&#45;&gt;Node15</title>
<g id="a_edge22_Node000018_Node000015"><a xlink:title=" ">
<path fill="none" stroke="#63b8ff" d="M414,-168.87C417.04,-168.56 420.05,-168.27 423,-168 656.6,-146.5 719.8,-162.91 955.37,-132.18"/>
<polygon fill="#63b8ff" stroke="#63b8ff" points="955.76,-135.66 965.22,-130.88 954.85,-128.72 955.76,-135.66"/>
</a>
</g>
</g>
<!-- Node18&#45;&gt;Node16 -->
<g id="edge23_Node000018_Node000016" class="edge">
<title>Node18&#45;&gt;Node16</title>
<g id="a_edge23_Node000018_Node000016"><a xlink:title=" ">
<path fill="none" stroke="#63b8ff" d="M414.01,-168.96C417.05,-168.63 420.06,-168.31 423,-168 577.34,-151.78 759.81,-135.54 849.52,-127.76"/>
<polygon fill="#63b8ff" stroke="#63b8ff" points="849.61,-131.26 859.27,-126.91 849,-124.29 849.61,-131.26"/>
</a>
</g>
</g>
<!-- Node19 -->
<g id="Node000019" class="node">
<title>Node19</title>
<g id="a_Node000019"><a xlink:title=" ">
<polygon fill="#e0e0e0" stroke="#999999" points="440.38,-132 357.62,-132 357.62,-112 440.38,-112 440.38,-132"/>
<text xml:space="preserve" text-anchor="middle" x="399" y="-118.5" font-family="Helvetica,sans-Serif" font-size="10.00">appcommand.h</text>
</a>
</g>
</g>
<!-- Node18&#45;&gt;Node19 -->
<g id="edge21_Node000018_Node000019" class="edge">
<title>Node18&#45;&gt;Node19</title>
<g id="a_edge21_Node000018_Node000019"><a xlink:title=" ">
<path fill="none" stroke="#63b8ff" d="M355.23,-167.59C362.6,-160.08 373.13,-149.35 382.02,-140.3"/>
<polygon fill="#63b8ff" stroke="#63b8ff" points="384.31,-142.97 388.81,-133.38 379.31,-138.06 384.31,-142.97"/>
</a>
</g>
</g>
<!-- Node20&#45;&gt;Node15 -->
<g id="edge26_Node000020_Node000015" class="edge">
<title>Node20&#45;&gt;Node15</title>
<g id="a_edge26_Node000020_Node000015"><a xlink:title=" ">
<path fill="none" stroke="#63b8ff" d="M1173.94,-167.59C1139.57,-158.63 1087.63,-145.08 1050.02,-135.27"/>
<polygon fill="#63b8ff" stroke="#63b8ff" points="1051.36,-132 1040.8,-132.86 1049.6,-138.77 1051.36,-132"/>
</a>
</g>
</g>
<!-- Node20&#45;&gt;Node16 -->
<g id="edge27_Node000020_Node000016" class="edge">
<title>Node20&#45;&gt;Node16</title>
<g id="a_edge27_Node000020_Node000016"><a xlink:title=" ">
<path fill="none" stroke="#63b8ff" d="M1156.52,-167.53C1101.54,-157.8 1016.3,-142.71 960.57,-132.84"/>
<polygon fill="#63b8ff" stroke="#63b8ff" points="961.43,-129.44 950.98,-131.14 960.21,-136.33 961.43,-129.44"/>
</a>
</g>
</g>
<!-- Node21&#45;&gt;Node15 -->
<g id="edge29_Node000021_Node000015" class="edge">
<title>Node21&#45;&gt;Node15</title>
<g id="a_edge29_Node000021_Node000015"><a xlink:title=" ">
<path fill="none" stroke="#63b8ff" d="M740.62,-167.74C794.68,-159.46 875.72,-146.68 955.44,-132.41"/>
<polygon fill="#63b8ff" stroke="#63b8ff" points="955.96,-135.87 965.18,-130.66 954.72,-128.98 955.96,-135.87"/>
</a>
</g>
</g>
<!-- Node21&#45;&gt;Node16 -->
<g id="edge30_Node000021_Node000016" class="edge">
<title>Node21&#45;&gt;Node16</title>
<g id="a_edge30_Node000021_Node000016"><a xlink:title=" ">
<path fill="none" stroke="#63b8ff" d="M718.62,-167.53C756.35,-158.52 813.29,-144.91 854.3,-135.11"/>
<polygon fill="#63b8ff" stroke="#63b8ff" points="855.04,-138.54 863.95,-132.81 853.41,-131.73 855.04,-138.54"/>
</a>
</g>
</g>
<!-- Node22&#45;&gt;Node15 -->
<g id="edge32_Node000022_Node000015" class="edge">
<title>Node22&#45;&gt;Node15</title>
<g id="a_edge32_Node000022_Node000015"><a xlink:title=" ">
<path fill="none" stroke="#63b8ff" d="M851.05,-167.59C881.21,-158.74 926.59,-145.43 959.9,-135.65"/>
<polygon fill="#63b8ff" stroke="#63b8ff" points="960.64,-139.08 969.25,-132.91 958.67,-132.36 960.64,-139.08"/>
</a>
</g>
</g>
<!-- Node22&#45;&gt;Node16 -->
<g id="edge33_Node000022_Node000016" class="edge">
<title>Node22&#45;&gt;Node16</title>
<g id="a_edge33_Node000022_Node000016"><a xlink:title=" ">
<path fill="none" stroke="#63b8ff" d="M833.98,-167.59C846.73,-159.59 865.29,-147.93 880.24,-138.54"/>
<polygon fill="#63b8ff" stroke="#63b8ff" points="882.01,-141.57 888.62,-133.28 878.29,-135.64 882.01,-141.57"/>
</a>
</g>
</g>
<!-- Node23&#45;&gt;Node15 -->
<g id="edge42_Node000023_Node000015" class="edge">
<title>Node23&#45;&gt;Node15</title>
<g id="a_edge42_Node000023_Node000015"><a xlink:title=" ">
<path fill="none" stroke="#63b8ff" d="M1287.02,-169.77C1283.97,-169.15 1280.93,-168.55 1278,-168 1198.56,-153 1105.65,-138.41 1050.71,-130.08"/>
<polygon fill="#63b8ff" stroke="#63b8ff" points="1051.48,-126.66 1041.07,-128.63 1050.44,-133.58 1051.48,-126.66"/>
</a>
</g>
</g>
<!-- Node23&#45;&gt;Node16 -->
<g id="edge43_Node000023_Node000016" class="edge">
<title>Node23&#45;&gt;Node16</title>
<g id="a_edge43_Node000023_Node000016"><a xlink:title=" ">
<path fill="none" stroke="#63b8ff" d="M1287.04,-169.62C1283.99,-169.03 1280.94,-168.48 1278,-168 1140.33,-145.56 1101.66,-151.65 960.47,-132.27"/>
<polygon fill="#63b8ff" stroke="#63b8ff" points="961.1,-128.82 950.72,-130.91 960.14,-135.76 961.1,-128.82"/>
</a>
</g>
</g>
</g>
</svg>
