<?xml version="1.0" encoding="UTF-8" standalone="no"?>
<!DOCTYPE svg PUBLIC "-//W3C//DTD SVG 1.1//EN"
 "http://www.w3.org/Graphics/SVG/1.1/DTD/svg11.dtd">
<!-- Generated by graphviz version 12.1.2 (0)
 -->
<!-- Title: src/bot_library/commands/notification/SetNotificationCommand.cpp Pages: 1 -->
<svg width="1781pt" height="376pt"
 viewBox="0.00 0.00 1780.62 376.00" xmlns="http://www.w3.org/2000/svg" xmlns:xlink="http://www.w3.org/1999/xlink">
<g id="graph0" class="graph" transform="scale(1 1) rotate(0) translate(4 372)">
<title>src/bot_library/commands/notification/SetNotificationCommand.cpp</title>
<!-- Node1 -->
<g id="Node000001" class="node">
<title>Node1</title>
<g id="a_Node000001"><a xlink:title=" ">
<polygon fill="#999999" stroke="#666666" points="1399.5,-368 1202,-368 1202,-336 1399.5,-336 1399.5,-368"/>
<text text-anchor="start" x="1210" y="-354.5" font-family="Helvetica,sans-Serif" font-size="10.00">src/bot_library/commands</text>
<text text-anchor="middle" x="1300.75" y="-342.5" font-family="Helvetica,sans-Serif" font-size="10.00">/notification/SetNotificationCommand.cpp</text>
</a>
</g>
</g>
<!-- Node2 -->
<g id="Node000002" class="node">
<title>Node2</title>
<g id="a_Node000002"><a xlink:href="SetNotificationCommand_8hpp.html" target="_top" xlink:title=" ">
<polygon fill="white" stroke="#666666" points="846.88,-300 702.62,-300 702.62,-280 846.88,-280 846.88,-300"/>
<text text-anchor="middle" x="774.75" y="-286.5" font-family="Helvetica,sans-Serif" font-size="10.00">SetNotificationCommand.hpp</text>
</a>
</g>
</g>
<!-- Node1&#45;&gt;Node2 -->
<g id="edge1_Node000001_Node000002" class="edge">
<title>Node1&#45;&gt;Node2</title>
<g id="a_edge1_Node000001_Node000002"><a xlink:title=" ">
<path fill="none" stroke="#63b8ff" d="M1201.5,-339.68C1102.48,-328.38 952,-311.22 858.72,-300.58"/>
<polygon fill="#63b8ff" stroke="#63b8ff" points="859.19,-297.11 848.86,-299.45 858.4,-304.06 859.19,-297.11"/>
</a>
</g>
</g>
<!-- Node3 -->
<g id="Node000003" class="node">
<title>Node3</title>
<g id="a_Node000003"><a xlink:title=" ">
<polygon fill="#e0e0e0" stroke="#999999" points="709.38,-244 640.12,-244 640.12,-224 709.38,-224 709.38,-244"/>
<text text-anchor="middle" x="674.75" y="-230.5" font-family="Helvetica,sans-Serif" font-size="10.00">dispatcher.h</text>
</a>
</g>
</g>
<!-- Node1&#45;&gt;Node3 -->
<g id="edge51_Node000001_Node000003" class="edge">
<title>Node1&#45;&gt;Node3</title>
<g id="a_edge51_Node000001_Node000003"><a xlink:title=" ">
<path fill="none" stroke="#63b8ff" d="M1201.55,-348.73C1039.5,-344.13 732.11,-331.35 693.75,-300 680.66,-289.31 676.28,-270.13 674.96,-255.36"/>
<polygon fill="#63b8ff" stroke="#63b8ff" points="678.47,-255.62 674.51,-245.8 671.48,-255.95 678.47,-255.62"/>
</a>
</g>
</g>
<!-- Node5 -->
<g id="Node000005" class="node">
<title>Node5</title>
<g id="a_Node000005"><a xlink:href="Core_8hpp.html" target="_top" xlink:title=" ">
<polygon fill="white" stroke="#666666" points="808.62,-188 752.88,-188 752.88,-168 808.62,-168 808.62,-188"/>
<text text-anchor="middle" x="780.75" y="-174.5" font-family="Helvetica,sans-Serif" font-size="10.00">Core.hpp</text>
</a>
</g>
</g>
<!-- Node1&#45;&gt;Node5 -->
<g id="edge55_Node000001_Node000005" class="edge">
<title>Node1&#45;&gt;Node5</title>
<g id="a_edge55_Node000001_Node000005"><a xlink:title=" ">
<path fill="none" stroke="#63b8ff" d="M1244.63,-335.6C1209.94,-325.87 1164.59,-312.77 1124.75,-300 1011.29,-263.64 878.73,-215.34 816.48,-192.31"/>
<polygon fill="#63b8ff" stroke="#63b8ff" points="818.06,-189.17 807.47,-188.97 815.63,-195.73 818.06,-189.17"/>
</a>
</g>
</g>
<!-- Node20 -->
<g id="Node000020" class="node">
<title>Node20</title>
<g id="a_Node000020"><a xlink:title=" ">
<polygon fill="#e0e0e0" stroke="#999999" points="1051.12,-76 968.38,-76 968.38,-56 1051.12,-56 1051.12,-76"/>
<text text-anchor="middle" x="1009.75" y="-62.5" font-family="Helvetica,sans-Serif" font-size="10.00">appcommand.h</text>
</a>
</g>
</g>
<!-- Node1&#45;&gt;Node20 -->
<g id="edge49_Node000001_Node000020" class="edge">
<title>Node1&#45;&gt;Node20</title>
<g id="a_edge49_Node000001_Node000020"><a xlink:title=" ">
<path fill="none" stroke="#63b8ff" d="M1243.63,-335.64C1196.99,-319.23 1138.75,-288.1 1138.75,-235 1138.75,-235 1138.75,-235 1138.75,-177 1138.75,-128.71 1085.76,-97.13 1047.7,-80.68"/>
<polygon fill="#63b8ff" stroke="#63b8ff" points="1049.4,-77.6 1038.82,-77.02 1046.73,-84.07 1049.4,-77.6"/>
</a>
</g>
</g>
<!-- Node27 -->
<g id="Node000027" class="node">
<title>Node27</title>
<g id="a_Node000027"><a xlink:title=" ">
<polygon fill="#e0e0e0" stroke="#999999" points="1353,-300 1302.5,-300 1302.5,-280 1353,-280 1353,-300"/>
<text text-anchor="middle" x="1327.75" y="-286.5" font-family="Helvetica,sans-Serif" font-size="10.00">colors.h</text>
</a>
</g>
</g>
<!-- Node1&#45;&gt;Node27 -->
<g id="edge50_Node000001_Node000027" class="edge">
<title>Node1&#45;&gt;Node27</title>
<g id="a_edge50_Node000001_Node000027"><a xlink:title=" ">
<path fill="none" stroke="#63b8ff" d="M1307.7,-335.55C1311.1,-328 1315.23,-318.82 1318.86,-310.77"/>
<polygon fill="#63b8ff" stroke="#63b8ff" points="1321.98,-312.34 1322.9,-301.79 1315.6,-309.47 1321.98,-312.34"/>
</a>
</g>
</g>
<!-- Node28 -->
<g id="Node000028" class="node">
<title>Node28</title>
<g id="a_Node000028"><a xlink:title=" ">
<polygon fill="#e0e0e0" stroke="#999999" points="1434.75,-300 1370.75,-300 1370.75,-280 1434.75,-280 1434.75,-300"/>
<text text-anchor="middle" x="1402.75" y="-286.5" font-family="Helvetica,sans-Serif" font-size="10.00">message.h</text>
</a>
</g>
</g>
<!-- Node1&#45;&gt;Node28 -->
<g id="edge52_Node000001_Node000028" class="edge">
<title>Node1&#45;&gt;Node28</title>
<g id="a_edge52_Node000001_Node000028"><a xlink:title=" ">
<path fill="none" stroke="#63b8ff" d="M1327.02,-335.55C1342.36,-326.52 1361.65,-315.17 1376.92,-306.19"/>
<polygon fill="#63b8ff" stroke="#63b8ff" points="1378.61,-309.26 1385.45,-301.18 1375.06,-303.23 1378.61,-309.26"/>
</a>
</g>
</g>
<!-- Node29 -->
<g id="Node000029" class="node">
<title>Node29</title>
<g id="a_Node000029"><a xlink:title=" ">
<polygon fill="#e0e0e0" stroke="#999999" points="1508.62,-300 1452.88,-300 1452.88,-280 1508.62,-280 1508.62,-300"/>
<text text-anchor="middle" x="1480.75" y="-286.5" font-family="Helvetica,sans-Serif" font-size="10.00">queues.h</text>
</a>
</g>
</g>
<!-- Node1&#45;&gt;Node29 -->
<g id="edge53_Node000001_Node000029" class="edge">
<title>Node1&#45;&gt;Node29</title>
<g id="a_edge53_Node000001_Node000029"><a xlink:title=" ">
<path fill="none" stroke="#63b8ff" d="M1347.1,-335.55C1376.4,-325.78 1413.84,-313.3 1441.63,-304.04"/>
<polygon fill="#63b8ff" stroke="#63b8ff" points="1442.71,-307.37 1451.09,-300.89 1440.5,-300.73 1442.71,-307.37"/>
</a>
</g>
</g>
<!-- Node30 -->
<g id="Node000030" class="node">
<title>Node30</title>
<g id="a_Node000030"><a xlink:title=" ">
<polygon fill="#e0e0e0" stroke="#999999" points="1595,-300 1526.5,-300 1526.5,-280 1595,-280 1595,-300"/>
<text text-anchor="middle" x="1560.75" y="-286.5" font-family="Helvetica,sans-Serif" font-size="10.00">snowflake.h</text>
</a>
</g>
</g>
<!-- Node1&#45;&gt;Node30 -->
<g id="edge54_Node000001_Node000030" class="edge">
<title>Node1&#45;&gt;Node30</title>
<g id="a_edge54_Node000001_Node000030"><a xlink:title=" ">
<path fill="none" stroke="#63b8ff" d="M1367.71,-335.55C1414.05,-324.85 1474.51,-310.9 1515.32,-301.48"/>
<polygon fill="#63b8ff" stroke="#63b8ff" points="1515.85,-304.95 1524.81,-299.29 1514.27,-298.13 1515.85,-304.95"/>
</a>
</g>
</g>
<!-- Node31 -->
<g id="Node000031" class="node">
<title>Node31</title>
<g id="a_Node000031"><a xlink:href="NotificationRepository_8hpp.html" target="_top" xlink:title=" ">
<polygon fill="white" stroke="#666666" points="1623.12,-188 1492.38,-188 1492.38,-168 1623.12,-168 1623.12,-188"/>
<text text-anchor="middle" x="1557.75" y="-174.5" font-family="Helvetica,sans-Serif" font-size="10.00">NotificationRepository.hpp</text>
</a>
</g>
</g>
<!-- Node1&#45;&gt;Node31 -->
<g id="edge56_Node000001_Node000031" class="edge">
<title>Node1&#45;&gt;Node31</title>
<g id="a_edge56_Node000001_Node000031"><a xlink:title=" ">
<path fill="none" stroke="#63b8ff" d="M1293.9,-335.71C1288.13,-320.27 1282.45,-296.43 1293.75,-280 1335.45,-219.39 1418.85,-195.13 1480.81,-185.43"/>
<polygon fill="#63b8ff" stroke="#63b8ff" points="1481.22,-188.91 1490.61,-184.01 1480.21,-181.98 1481.22,-188.91"/>
</a>
</g>
</g>
<!-- Node34 -->
<g id="Node000034" class="node">
<title>Node34</title>
<g id="a_Node000034"><a xlink:title=" ">
<polygon fill="#e0e0e0" stroke="#999999" points="1656.62,-300 1612.88,-300 1612.88,-280 1656.62,-280 1656.62,-300"/>
<text text-anchor="middle" x="1634.75" y="-286.5" font-family="Helvetica,sans-Serif" font-size="10.00">format</text>
</a>
</g>
</g>
<!-- Node1&#45;&gt;Node34 -->
<g id="edge62_Node000001_Node000034" class="edge">
<title>Node1&#45;&gt;Node34</title>
<g id="a_edge62_Node000001_Node000034"><a xlink:title=" ">
<path fill="none" stroke="#63b8ff" d="M1399.91,-337.27C1456.46,-328.75 1528.81,-316.67 1601.31,-300.35"/>
<polygon fill="#63b8ff" stroke="#63b8ff" points="1602.03,-303.77 1611,-298.14 1600.48,-296.95 1602.03,-303.77"/>
</a>
</g>
</g>
<!-- Node35 -->
<g id="Node000035" class="node">
<title>Node35</title>
<g id="a_Node000035"><a xlink:title=" ">
<polygon fill="#e0e0e0" stroke="#999999" points="1772.62,-300 1674.88,-300 1674.88,-280 1772.62,-280 1772.62,-300"/>
<text text-anchor="middle" x="1723.75" y="-286.5" font-family="Helvetica,sans-Serif" font-size="10.00">nlohmann/json.hpp</text>
</a>
</g>
</g>
<!-- Node1&#45;&gt;Node35 -->
<g id="edge63_Node000001_Node000035" class="edge">
<title>Node1&#45;&gt;Node35</title>
<g id="a_edge63_Node000001_Node000035"><a xlink:title=" ">
<path fill="none" stroke="#63b8ff" d="M1399.95,-337.55C1470.6,-327.88 1568.1,-314.33 1663.12,-300.37"/>
<polygon fill="#63b8ff" stroke="#63b8ff" points="1663.52,-303.85 1672.9,-298.93 1662.5,-296.92 1663.52,-303.85"/>
</a>
</g>
</g>
<!-- Node36 -->
<g id="Node000036" class="node">
<title>Node36</title>
<g id="a_Node000036"><a xlink:href="LatestEventsRepository_8hpp.html" target="_top" xlink:title=" ">
<polygon fill="white" stroke="#666666" points="1306.25,-244 1167.25,-244 1167.25,-224 1306.25,-224 1306.25,-244"/>
<text text-anchor="middle" x="1236.75" y="-230.5" font-family="Helvetica,sans-Serif" font-size="10.00">LatestEventsRepository.hpp</text>
</a>
</g>
</g>
<!-- Node1&#45;&gt;Node36 -->
<g id="edge64_Node000001_Node000036" class="edge">
<title>Node1&#45;&gt;Node36</title>
<g id="a_edge64_Node000001_Node000036"><a xlink:title=" ">
<path fill="none" stroke="#63b8ff" d="M1286.79,-335.82C1278.4,-326.12 1267.99,-312.97 1260.75,-300 1252.76,-285.69 1246.47,-268.19 1242.34,-254.96"/>
<polygon fill="#63b8ff" stroke="#63b8ff" points="1245.79,-254.27 1239.6,-245.67 1239.07,-256.25 1245.79,-254.27"/>
</a>
</g>
</g>
<!-- Node2&#45;&gt;Node3 -->
<g id="edge2_Node000002_Node000003" class="edge">
<title>Node2&#45;&gt;Node3</title>
<g id="a_edge2_Node000002_Node000003"><a xlink:title=" ">
<path fill="none" stroke="#63b8ff" d="M757.33,-279.59C742.08,-271.36 719.67,-259.26 702.04,-249.74"/>
<polygon fill="#63b8ff" stroke="#63b8ff" points="704.1,-246.87 693.64,-245.2 700.77,-253.03 704.1,-246.87"/>
</a>
</g>
</g>
<!-- Node4 -->
<g id="Node000004" class="node">
<title>Node4</title>
<g id="a_Node000004"><a xlink:href="Bot_8hpp.html" target="_top" xlink:title=" ">
<polygon fill="white" stroke="#666666" points="777.62,-244 727.88,-244 727.88,-224 777.62,-224 777.62,-244"/>
<text text-anchor="middle" x="752.75" y="-230.5" font-family="Helvetica,sans-Serif" font-size="10.00">Bot.hpp</text>
</a>
</g>
</g>
<!-- Node2&#45;&gt;Node4 -->
<g id="edge3_Node000002_Node000004" class="edge">
<title>Node2&#45;&gt;Node4</title>
<g id="a_edge3_Node000002_Node000004"><a xlink:title=" ">
<path fill="none" stroke="#63b8ff" d="M770.92,-279.59C768.14,-272.78 764.29,-263.32 760.84,-254.86"/>
<polygon fill="#63b8ff" stroke="#63b8ff" points="764.12,-253.64 757.11,-245.7 757.64,-256.28 764.12,-253.64"/>
</a>
</g>
</g>
<!-- Node4&#45;&gt;Node5 -->
<g id="edge4_Node000004_Node000005" class="edge">
<title>Node4&#45;&gt;Node5</title>
<g id="a_edge4_Node000004_Node000005"><a xlink:title=" ">
<path fill="none" stroke="#63b8ff" d="M757.63,-223.59C761.24,-216.63 766.29,-206.89 770.75,-198.29"/>
<polygon fill="#63b8ff" stroke="#63b8ff" points="773.74,-200.13 775.23,-189.64 767.52,-196.91 773.74,-200.13"/>
</a>
</g>
</g>
<!-- Node11 -->
<g id="Node000011" class="node">
<title>Node11</title>
<g id="a_Node000011"><a xlink:title=" ">
<polygon fill="#e0e0e0" stroke="#999999" points="1404.75,-76 1364.75,-76 1364.75,-56 1404.75,-56 1404.75,-76"/>
<text text-anchor="middle" x="1384.75" y="-62.5" font-family="Helvetica,sans-Serif" font-size="10.00">string</text>
</a>
</g>
</g>
<!-- Node4&#45;&gt;Node11 -->
<g id="edge47_Node000004_Node000011" class="edge">
<title>Node4&#45;&gt;Node11</title>
<g id="a_edge47_Node000004_Node000011"><a xlink:title=" ">
<path fill="none" stroke="#63b8ff" d="M778,-231.99C856.45,-228.08 1101.68,-209.97 1285.75,-132 1315.09,-119.57 1345.19,-98.37 1364.38,-83.57"/>
<polygon fill="#63b8ff" stroke="#63b8ff" points="1366.48,-86.37 1372.16,-77.43 1362.14,-80.87 1366.48,-86.37"/>
</a>
</g>
</g>
<!-- Node13 -->
<g id="Node000013" class="node">
<title>Node13</title>
<g id="a_Node000013"><a xlink:title=" ">
<polygon fill="#e0e0e0" stroke="#999999" points="1117.25,-76 1074.25,-76 1074.25,-56 1117.25,-56 1117.25,-76"/>
<text text-anchor="middle" x="1095.75" y="-62.5" font-family="Helvetica,sans-Serif" font-size="10.00">vector</text>
</a>
</g>
</g>
<!-- Node4&#45;&gt;Node13 -->
<g id="edge48_Node000004_Node000013" class="edge">
<title>Node4&#45;&gt;Node13</title>
<g id="a_edge48_Node000004_Node000013"><a xlink:title=" ">
<path fill="none" stroke="#63b8ff" d="M777.76,-233.31C839.35,-232.62 999.33,-221.8 1081.75,-132 1092.74,-120.03 1095.87,-101.57 1096.47,-87.38"/>
<polygon fill="#63b8ff" stroke="#63b8ff" points="1099.97,-87.79 1096.48,-77.79 1092.97,-87.79 1099.97,-87.79"/>
</a>
</g>
</g>
<!-- Node15 -->
<g id="Node000015" class="node">
<title>Node15</title>
<g id="a_Node000015"><a xlink:href="IButtonCommand_8hpp.html" target="_top" xlink:title=" ">
<polygon fill="white" stroke="#666666" points="194.38,-132 83.12,-132 83.12,-112 194.38,-112 194.38,-132"/>
<text text-anchor="middle" x="138.75" y="-118.5" font-family="Helvetica,sans-Serif" font-size="10.00">IButtonCommand.hpp</text>
</a>
</g>
</g>
<!-- Node4&#45;&gt;Node15 -->
<g id="edge36_Node000004_Node000015" class="edge">
<title>Node4&#45;&gt;Node15</title>
<g id="a_edge36_Node000004_Node000015"><a xlink:title=" ">
<path fill="none" stroke="#63b8ff" d="M727.71,-226.37C682.99,-214.5 593.4,-190.62 586.75,-188 568.99,-181.02 567.02,-173.53 548.75,-168 404.25,-124.24 358.36,-149.51 205.76,-132.29"/>
<polygon fill="#63b8ff" stroke="#63b8ff" points="206.43,-128.84 196.09,-131.15 205.61,-135.79 206.43,-128.84"/>
</a>
</g>
</g>
<!-- Node18 -->
<g id="Node000018" class="node">
<title>Node18</title>
<g id="a_Node000018"><a xlink:href="IFormCommand_8hpp.html" target="_top" xlink:title=" ">
<polygon fill="white" stroke="#666666" points="317.38,-132 212.12,-132 212.12,-112 317.38,-112 317.38,-132"/>
<text text-anchor="middle" x="264.75" y="-118.5" font-family="Helvetica,sans-Serif" font-size="10.00">IFormCommand.hpp</text>
</a>
</g>
</g>
<!-- Node4&#45;&gt;Node18 -->
<g id="edge37_Node000004_Node000018" class="edge">
<title>Node4&#45;&gt;Node18</title>
<g id="a_edge37_Node000004_Node000018"><a xlink:title=" ">
<path fill="none" stroke="#63b8ff" d="M727.8,-225.42C701.69,-217.22 659.73,-203.26 624.75,-188 607.26,-180.37 604.92,-173.84 586.75,-168 479.16,-133.41 444.42,-147.42 329.25,-132.29"/>
<polygon fill="#63b8ff" stroke="#63b8ff" points="329.73,-128.82 319.35,-130.94 328.78,-135.76 329.73,-128.82"/>
</a>
</g>
</g>
<!-- Node19 -->
<g id="Node000019" class="node">
<title>Node19</title>
<g id="a_Node000019"><a xlink:href="IGlobalSlashCommand_8hpp.html" target="_top" xlink:title=" ">
<polygon fill="white" stroke="#666666" points="1072.38,-132 937.12,-132 937.12,-112 1072.38,-112 1072.38,-132"/>
<text text-anchor="middle" x="1004.75" y="-118.5" font-family="Helvetica,sans-Serif" font-size="10.00">IGlobalSlashCommand.hpp</text>
</a>
</g>
</g>
<!-- Node4&#45;&gt;Node19 -->
<g id="edge38_Node000004_Node000019" class="edge">
<title>Node4&#45;&gt;Node19</title>
<g id="a_edge38_Node000004_Node000019"><a xlink:title=" ">
<path fill="none" stroke="#63b8ff" d="M774.24,-223.62C818.68,-204.22 920.92,-159.59 973.01,-136.86"/>
<polygon fill="#63b8ff" stroke="#63b8ff" points="974.17,-140.17 981.93,-132.96 971.37,-133.75 974.17,-140.17"/>
</a>
</g>
</g>
<!-- Node21 -->
<g id="Node000021" class="node">
<title>Node21</title>
<g id="a_Node000021"><a xlink:href="IMemberCommand_8hpp.html" target="_top" xlink:title=" ">
<polygon fill="white" stroke="#666666" points="733.75,-132 615.75,-132 615.75,-112 733.75,-112 733.75,-132"/>
<text text-anchor="middle" x="674.75" y="-118.5" font-family="Helvetica,sans-Serif" font-size="10.00">IMemberCommand.hpp</text>
</a>
</g>
</g>
<!-- Node4&#45;&gt;Node21 -->
<g id="edge39_Node000004_Node000021" class="edge">
<title>Node4&#45;&gt;Node21</title>
<g id="a_edge39_Node000004_Node000021"><a xlink:title=" ">
<path fill="none" stroke="#63b8ff" d="M746.1,-223.62C733.26,-205.52 704.85,-165.45 688.01,-141.7"/>
<polygon fill="#63b8ff" stroke="#63b8ff" points="690.9,-139.72 682.26,-133.59 685.19,-143.77 690.9,-139.72"/>
</a>
</g>
</g>
<!-- Node22 -->
<g id="Node000022" class="node">
<title>Node22</title>
<g id="a_Node000022"><a xlink:href="IMessageCommand_8hpp.html" target="_top" xlink:title=" ">
<polygon fill="white" stroke="#666666" points="458,-132 335.5,-132 335.5,-112 458,-112 458,-132"/>
<text text-anchor="middle" x="396.75" y="-118.5" font-family="Helvetica,sans-Serif" font-size="10.00">IMessageCommand.hpp</text>
</a>
</g>
</g>
<!-- Node4&#45;&gt;Node22 -->
<g id="edge40_Node000004_Node000022" class="edge">
<title>Node4&#45;&gt;Node22</title>
<g id="a_edge40_Node000004_Node000022"><a xlink:title=" ">
<path fill="none" stroke="#63b8ff" d="M733.73,-223.63C715.47,-214.61 687.15,-200.52 662.75,-188 645.77,-179.29 642.74,-174.36 624.75,-168 596.06,-157.86 522.01,-144.04 466.02,-134.41"/>
<polygon fill="#63b8ff" stroke="#63b8ff" points="466.66,-130.97 456.22,-132.73 465.48,-137.87 466.66,-130.97"/>
</a>
</g>
</g>
<!-- Node23 -->
<g id="Node000023" class="node">
<title>Node23</title>
<g id="a_Node000023"><a xlink:href="IReactionCommand_8hpp.html" target="_top" xlink:title=" ">
<polygon fill="white" stroke="#666666" points="597.62,-132 475.88,-132 475.88,-112 597.62,-112 597.62,-132"/>
<text text-anchor="middle" x="536.75" y="-118.5" font-family="Helvetica,sans-Serif" font-size="10.00">IReactionCommand.hpp</text>
</a>
</g>
</g>
<!-- Node4&#45;&gt;Node23 -->
<g id="edge41_Node000004_Node000023" class="edge">
<title>Node4&#45;&gt;Node23</title>
<g id="a_edge41_Node000004_Node000023"><a xlink:title=" ">
<path fill="none" stroke="#63b8ff" d="M742.05,-223.71C725.83,-210.01 693.62,-184.24 662.75,-168 637.17,-154.54 606.68,-143.54 582.11,-135.78"/>
<polygon fill="#63b8ff" stroke="#63b8ff" points="583.31,-132.48 572.72,-132.89 581.25,-139.17 583.31,-132.48"/>
</a>
</g>
</g>
<!-- Node24 -->
<g id="Node000024" class="node">
<title>Node24</title>
<g id="a_Node000024"><a xlink:href="IReady_8hpp.html" target="_top" xlink:title=" ">
<polygon fill="white" stroke="#666666" points="65.5,-132 0,-132 0,-112 65.5,-112 65.5,-132"/>
<text text-anchor="middle" x="32.75" y="-118.5" font-family="Helvetica,sans-Serif" font-size="10.00">IReady.hpp</text>
</a>
</g>
</g>
<!-- Node4&#45;&gt;Node24 -->
<g id="edge42_Node000004_Node000024" class="edge">
<title>Node4&#45;&gt;Node24</title>
<g id="a_edge42_Node000004_Node000024"><a xlink:title=" ">
<path fill="none" stroke="#63b8ff" d="M727.53,-226.17C724.58,-225.42 721.6,-224.68 718.75,-224 643.62,-206.11 620.56,-216.41 548.75,-188 532.8,-181.69 532.07,-173.28 515.75,-168 331.71,-108.43 270.93,-159.23 76.94,-132.27"/>
<polygon fill="#63b8ff" stroke="#63b8ff" points="77.69,-128.84 67.3,-130.87 76.69,-135.77 77.69,-128.84"/>
</a>
</g>
</g>
<!-- Node25 -->
<g id="Node000025" class="node">
<title>Node25</title>
<g id="a_Node000025"><a xlink:title=" ">
<polygon fill="#e0e0e0" stroke="#999999" points="1371.12,-188 1336.38,-188 1336.38,-168 1371.12,-168 1371.12,-188"/>
<text text-anchor="middle" x="1353.75" y="-174.5" font-family="Helvetica,sans-Serif" font-size="10.00">map</text>
</a>
</g>
</g>
<!-- Node4&#45;&gt;Node25 -->
<g id="edge45_Node000004_Node000025" class="edge">
<title>Node4&#45;&gt;Node25</title>
<g id="a_edge45_Node000004_Node000025"><a xlink:title=" ">
<path fill="none" stroke="#63b8ff" d="M777.99,-232.83C858.28,-231.92 1114.75,-225.99 1322.75,-188 1323.58,-187.85 1324.41,-187.68 1325.26,-187.51"/>
<polygon fill="#63b8ff" stroke="#63b8ff" points="1325.88,-190.96 1334.73,-185.14 1324.17,-184.17 1325.88,-190.96"/>
</a>
</g>
</g>
<!-- Node26 -->
<g id="Node000026" class="node">
<title>Node26</title>
<g id="a_Node000026"><a xlink:title=" ">
<polygon fill="#e0e0e0" stroke="#999999" points="506.38,-188 455.12,-188 455.12,-168 506.38,-168 506.38,-188"/>
<text text-anchor="middle" x="480.75" y="-174.5" font-family="Helvetica,sans-Serif" font-size="10.00">memory</text>
</a>
</g>
</g>
<!-- Node4&#45;&gt;Node26 -->
<g id="edge46_Node000004_Node000026" class="edge">
<title>Node4&#45;&gt;Node26</title>
<g id="a_edge46_Node000004_Node000026"><a xlink:title=" ">
<path fill="none" stroke="#63b8ff" d="M727.55,-226.09C724.59,-225.35 721.61,-224.64 718.75,-224 631.45,-204.54 608.4,-205.82 520.75,-188 519.74,-187.8 518.72,-187.58 517.69,-187.37"/>
<polygon fill="#63b8ff" stroke="#63b8ff" points="518.53,-183.97 508.02,-185.29 517.06,-190.81 518.53,-183.97"/>
</a>
</g>
</g>
<!-- Node6 -->
<g id="Node000006" class="node">
<title>Node6</title>
<g id="a_Node000006"><a xlink:title=" ">
<polygon fill="#e0e0e0" stroke="#999999" points="810.12,-132 751.38,-132 751.38,-112 810.12,-112 810.12,-132"/>
<text text-anchor="middle" x="780.75" y="-118.5" font-family="Helvetica,sans-Serif" font-size="10.00">dpp/dpp.h</text>
</a>
</g>
</g>
<!-- Node5&#45;&gt;Node6 -->
<g id="edge5_Node000005_Node000006" class="edge">
<title>Node5&#45;&gt;Node6</title>
<g id="a_edge5_Node000005_Node000006"><a xlink:title=" ">
<path fill="none" stroke="#63b8ff" d="M780.75,-167.59C780.75,-161.01 780.75,-151.96 780.75,-143.73"/>
<polygon fill="#63b8ff" stroke="#63b8ff" points="784.25,-143.81 780.75,-133.81 777.25,-143.81 784.25,-143.81"/>
</a>
</g>
</g>
<!-- Node7 -->
<g id="Node000007" class="node">
<title>Node7</title>
<g id="a_Node000007"><a xlink:title=" ">
<polygon fill="#e0e0e0" stroke="#999999" points="919.25,-132 828.25,-132 828.25,-112 919.25,-112 919.25,-132"/>
<text text-anchor="middle" x="873.75" y="-118.5" font-family="Helvetica,sans-Serif" font-size="10.00">dpp/misc&#45;enum.h</text>
</a>
</g>
</g>
<!-- Node5&#45;&gt;Node7 -->
<g id="edge6_Node000005_Node000007" class="edge">
<title>Node5&#45;&gt;Node7</title>
<g id="a_edge6_Node000005_Node000007"><a xlink:title=" ">
<path fill="none" stroke="#63b8ff" d="M796.95,-167.59C811,-159.44 831.58,-147.48 847.91,-138"/>
<polygon fill="#63b8ff" stroke="#63b8ff" points="849.22,-141.29 856.12,-133.24 845.71,-135.23 849.22,-141.29"/>
</a>
</g>
</g>
<!-- Node8 -->
<g id="Node000008" class="node">
<title>Node8</title>
<g id="a_Node000008"><a xlink:href="Database_8hpp.html" target="_top" xlink:title=" ">
<polygon fill="white" stroke="#666666" points="1243.12,-132 1166.38,-132 1166.38,-112 1243.12,-112 1243.12,-132"/>
<text text-anchor="middle" x="1204.75" y="-118.5" font-family="Helvetica,sans-Serif" font-size="10.00">Database.hpp</text>
</a>
</g>
</g>
<!-- Node5&#45;&gt;Node8 -->
<g id="edge7_Node000005_Node000008" class="edge">
<title>Node5&#45;&gt;Node8</title>
<g id="a_edge7_Node000005_Node000008"><a xlink:title=" ">
<path fill="none" stroke="#63b8ff" d="M808.9,-173.42C879.51,-164.42 1064.9,-140.81 1154.65,-129.38"/>
<polygon fill="#63b8ff" stroke="#63b8ff" points="1154.9,-132.88 1164.38,-128.14 1154.02,-125.93 1154.9,-132.88"/>
</a>
</g>
</g>
<!-- Node5&#45;&gt;Node11 -->
<g id="edge35_Node000005_Node000011" class="edge">
<title>Node5&#45;&gt;Node11</title>
<g id="a_edge35_Node000005_Node000011"><a xlink:title=" ">
<path fill="none" stroke="#63b8ff" d="M809.03,-175.63C897.4,-171.13 1167.55,-155.75 1251.75,-132 1257.22,-130.46 1318.62,-100.02 1356.05,-81.35"/>
<polygon fill="#63b8ff" stroke="#63b8ff" points="1357.17,-84.7 1364.55,-77.11 1354.04,-78.44 1357.17,-84.7"/>
</a>
</g>
</g>
<!-- Node5&#45;&gt;Node15 -->
<g id="edge15_Node000005_Node000015" class="edge">
<title>Node5&#45;&gt;Node15</title>
<g id="a_edge15_Node000005_Node000015"><a xlink:title=" ">
<path fill="none" stroke="#63b8ff" d="M752.42,-175.42C669.85,-170.68 422.04,-155.52 205.82,-132.28"/>
<polygon fill="#63b8ff" stroke="#63b8ff" points="206.4,-128.82 196.08,-131.22 205.64,-135.78 206.4,-128.82"/>
</a>
</g>
</g>
<!-- Node5&#45;&gt;Node18 -->
<g id="edge18_Node000005_Node000018" class="edge">
<title>Node5&#45;&gt;Node18</title>
<g id="a_edge18_Node000005_Node000018"><a xlink:title=" ">
<path fill="none" stroke="#63b8ff" d="M752.54,-174.65C682.72,-168.75 495.98,-152.37 329.05,-132.23"/>
<polygon fill="#63b8ff" stroke="#63b8ff" points="329.68,-128.78 319.33,-131.05 328.84,-135.73 329.68,-128.78"/>
</a>
</g>
</g>
<!-- Node5&#45;&gt;Node19 -->
<g id="edge21_Node000005_Node000019" class="edge">
<title>Node5&#45;&gt;Node19</title>
<g id="a_edge21_Node000005_Node000019"><a xlink:title=" ">
<path fill="none" stroke="#63b8ff" d="M809.12,-170.16C845.69,-161.34 909.91,-145.86 954.76,-135.05"/>
<polygon fill="#63b8ff" stroke="#63b8ff" points="955.34,-138.51 964.24,-132.77 953.7,-131.71 955.34,-138.51"/>
</a>
</g>
</g>
<!-- Node5&#45;&gt;Node21 -->
<g id="edge26_Node000005_Node000021" class="edge">
<title>Node5&#45;&gt;Node21</title>
<g id="a_edge26_Node000005_Node000021"><a xlink:title=" ">
<path fill="none" stroke="#63b8ff" d="M762.29,-167.59C746.05,-159.32 722.14,-147.14 703.42,-137.6"/>
<polygon fill="#63b8ff" stroke="#63b8ff" points="705.21,-134.59 694.71,-133.17 702.03,-140.82 705.21,-134.59"/>
</a>
</g>
</g>
<!-- Node5&#45;&gt;Node22 -->
<g id="edge29_Node000005_Node000022" class="edge">
<title>Node5&#45;&gt;Node22</title>
<g id="a_edge29_Node000005_Node000022"><a xlink:title=" ">
<path fill="none" stroke="#63b8ff" d="M752.51,-173.03C693.42,-164.72 555.11,-145.27 469.39,-133.22"/>
<polygon fill="#63b8ff" stroke="#63b8ff" points="470.07,-129.78 459.68,-131.85 469.09,-136.71 470.07,-129.78"/>
</a>
</g>
</g>
<!-- Node5&#45;&gt;Node23 -->
<g id="edge32_Node000005_Node000023" class="edge">
<title>Node5&#45;&gt;Node23</title>
<g id="a_edge32_Node000005_Node000023"><a xlink:title=" ">
<path fill="none" stroke="#63b8ff" d="M752.76,-170.81C713.31,-162.07 640.58,-145.98 590.49,-134.89"/>
<polygon fill="#63b8ff" stroke="#63b8ff" points="591.53,-131.54 581.01,-132.8 590.02,-138.37 591.53,-131.54"/>
</a>
</g>
</g>
<!-- Node9 -->
<g id="Node000009" class="node">
<title>Node9</title>
<g id="a_Node000009"><a xlink:title=" ">
<polygon fill="#e0e0e0" stroke="#999999" points="1519.88,-76 1471.62,-76 1471.62,-56 1519.88,-56 1519.88,-76"/>
<text text-anchor="middle" x="1495.75" y="-62.5" font-family="Helvetica,sans-Serif" font-size="10.00">cstddef</text>
</a>
</g>
</g>
<!-- Node8&#45;&gt;Node9 -->
<g id="edge8_Node000008_Node000009" class="edge">
<title>Node8&#45;&gt;Node9</title>
<g id="a_edge8_Node000008_Node000009"><a xlink:title=" ">
<path fill="none" stroke="#63b8ff" d="M1243.39,-113.83C1300.14,-103.3 1405.23,-83.8 1460.18,-73.6"/>
<polygon fill="#63b8ff" stroke="#63b8ff" points="1460.74,-77.06 1469.93,-71.79 1459.46,-70.17 1460.74,-77.06"/>
</a>
</g>
</g>
<!-- Node10 -->
<g id="Node000010" class="node">
<title>Node10</title>
<g id="a_Node000010"><a xlink:title=" ">
<polygon fill="#e0e0e0" stroke="#999999" points="1280.25,-20 1219.25,-20 1219.25,0 1280.25,0 1280.25,-20"/>
<text text-anchor="middle" x="1249.75" y="-6.5" font-family="Helvetica,sans-Serif" font-size="10.00">pqxx/pqxx</text>
</a>
</g>
</g>
<!-- Node8&#45;&gt;Node10 -->
<g id="edge9_Node000008_Node000010" class="edge">
<title>Node8&#45;&gt;Node10</title>
<g id="a_edge9_Node000008_Node000010"><a xlink:title=" ">
<path fill="none" stroke="#63b8ff" d="M1207.7,-111.62C1211.78,-98.86 1219.6,-75.43 1227.75,-56 1231.36,-47.39 1235.82,-38.08 1239.77,-30.18"/>
<polygon fill="#63b8ff" stroke="#63b8ff" points="1242.77,-32.01 1244.2,-21.51 1236.53,-28.83 1242.77,-32.01"/>
</a>
</g>
</g>
<!-- Node8&#45;&gt;Node11 -->
<g id="edge10_Node000008_Node000011" class="edge">
<title>Node8&#45;&gt;Node11</title>
<g id="a_edge10_Node000008_Node000011"><a xlink:title=" ">
<path fill="none" stroke="#63b8ff" d="M1236.89,-111.54C1265.27,-103.15 1308.04,-90.46 1353.75,-76.59"/>
<polygon fill="#63b8ff" stroke="#63b8ff" points="1354.48,-80.02 1363.03,-73.76 1352.44,-73.32 1354.48,-80.02"/>
</a>
</g>
</g>
<!-- Node12 -->
<g id="Node000012" class="node">
<title>Node12</title>
<g id="a_Node000012"><a xlink:title=" ">
<polygon fill="#e0e0e0" stroke="#999999" points="1180.38,-76 1135.12,-76 1135.12,-56 1180.38,-56 1180.38,-76"/>
<text text-anchor="middle" x="1157.75" y="-62.5" font-family="Helvetica,sans-Serif" font-size="10.00">variant</text>
</a>
</g>
</g>
<!-- Node8&#45;&gt;Node12 -->
<g id="edge11_Node000008_Node000012" class="edge">
<title>Node8&#45;&gt;Node12</title>
<g id="a_edge11_Node000008_Node000012"><a xlink:title=" ">
<path fill="none" stroke="#63b8ff" d="M1196.56,-111.59C1190.16,-104.24 1181.07,-93.8 1173.3,-84.87"/>
<polygon fill="#63b8ff" stroke="#63b8ff" points="1176.04,-82.69 1166.84,-77.44 1170.76,-87.28 1176.04,-82.69"/>
</a>
</g>
</g>
<!-- Node8&#45;&gt;Node13 -->
<g id="edge12_Node000008_Node000013" class="edge">
<title>Node8&#45;&gt;Node13</title>
<g id="a_edge12_Node000008_Node000013"><a xlink:title=" ">
<path fill="none" stroke="#63b8ff" d="M1185.76,-111.59C1168.99,-103.28 1144.26,-91.03 1124.96,-81.47"/>
<polygon fill="#63b8ff" stroke="#63b8ff" points="1126.76,-78.45 1116.24,-77.15 1123.65,-84.73 1126.76,-78.45"/>
</a>
</g>
</g>
<!-- Node14 -->
<g id="Node000014" class="node">
<title>Node14</title>
<g id="a_Node000014"><a xlink:href="RowDTOAdapter_8hpp.html" target="_top" xlink:title=" ">
<polygon fill="white" stroke="#666666" points="1346.62,-76 1236.88,-76 1236.88,-56 1346.62,-56 1346.62,-76"/>
<text text-anchor="middle" x="1291.75" y="-62.5" font-family="Helvetica,sans-Serif" font-size="10.00">RowDTOAdapter.hpp</text>
</a>
</g>
</g>
<!-- Node8&#45;&gt;Node14 -->
<g id="edge13_Node000008_Node000014" class="edge">
<title>Node8&#45;&gt;Node14</title>
<g id="a_edge13_Node000008_Node000014"><a xlink:title=" ">
<path fill="none" stroke="#63b8ff" d="M1219.9,-111.59C1232.8,-103.59 1251.58,-91.93 1266.71,-82.54"/>
<polygon fill="#63b8ff" stroke="#63b8ff" points="1268.54,-85.53 1275.19,-77.28 1264.85,-79.58 1268.54,-85.53"/>
</a>
</g>
</g>
<!-- Node14&#45;&gt;Node10 -->
<g id="edge14_Node000014_Node000010" class="edge">
<title>Node14&#45;&gt;Node10</title>
<g id="a_edge14_Node000014_Node000010"><a xlink:title=" ">
<path fill="none" stroke="#63b8ff" d="M1284.43,-55.59C1278.77,-48.32 1270.76,-38.02 1263.86,-29.15"/>
<polygon fill="#63b8ff" stroke="#63b8ff" points="1266.81,-27.24 1257.91,-21.49 1261.29,-31.54 1266.81,-27.24"/>
</a>
</g>
</g>
<!-- Node16 -->
<g id="Node000016" class="node">
<title>Node16</title>
<g id="a_Node000016"><a xlink:title=" ">
<polygon fill="#e0e0e0" stroke="#999999" points="383.88,-76 311.62,-76 311.62,-56 383.88,-56 383.88,-76"/>
<text text-anchor="middle" x="347.75" y="-62.5" font-family="Helvetica,sans-Serif" font-size="10.00">dpp/cluster.h</text>
</a>
</g>
</g>
<!-- Node15&#45;&gt;Node16 -->
<g id="edge16_Node000015_Node000016" class="edge">
<title>Node15&#45;&gt;Node16</title>
<g id="a_edge16_Node000015_Node000016"><a xlink:title=" ">
<path fill="none" stroke="#63b8ff" d="M175.16,-111.59C209.96,-102.6 262.62,-88.99 300.62,-79.18"/>
<polygon fill="#63b8ff" stroke="#63b8ff" points="301.14,-82.66 309.95,-76.77 299.39,-75.88 301.14,-82.66"/>
</a>
</g>
</g>
<!-- Node17 -->
<g id="Node000017" class="node">
<title>Node17</title>
<g id="a_Node000017"><a xlink:title=" ">
<polygon fill="#e0e0e0" stroke="#999999" points="489.75,-76 401.75,-76 401.75,-56 489.75,-56 489.75,-76"/>
<text text-anchor="middle" x="445.75" y="-62.5" font-family="Helvetica,sans-Serif" font-size="10.00">dpp/dispatcher.h</text>
</a>
</g>
</g>
<!-- Node15&#45;&gt;Node17 -->
<g id="edge17_Node000015_Node000017" class="edge">
<title>Node15&#45;&gt;Node17</title>
<g id="a_edge17_Node000015_Node000017"><a xlink:title=" ">
<path fill="none" stroke="#63b8ff" d="M192.58,-111.53C248.08,-101.77 334.22,-86.62 390.31,-76.75"/>
<polygon fill="#63b8ff" stroke="#63b8ff" points="390.72,-80.23 399.96,-75.05 389.51,-73.34 390.72,-80.23"/>
</a>
</g>
</g>
<!-- Node18&#45;&gt;Node16 -->
<g id="edge19_Node000018_Node000016" class="edge">
<title>Node18&#45;&gt;Node16</title>
<g id="a_edge19_Node000018_Node000016"><a xlink:title=" ">
<path fill="none" stroke="#63b8ff" d="M279.21,-111.59C291.51,-103.59 309.43,-91.93 323.86,-82.54"/>
<polygon fill="#63b8ff" stroke="#63b8ff" points="325.44,-85.69 331.91,-77.3 321.62,-79.82 325.44,-85.69"/>
</a>
</g>
</g>
<!-- Node18&#45;&gt;Node17 -->
<g id="edge20_Node000018_Node000017" class="edge">
<title>Node18&#45;&gt;Node17</title>
<g id="a_edge20_Node000018_Node000017"><a xlink:title=" ">
<path fill="none" stroke="#63b8ff" d="M296.28,-111.59C325.94,-102.74 370.58,-89.43 403.36,-79.65"/>
<polygon fill="#63b8ff" stroke="#63b8ff" points="403.94,-83.13 412.53,-76.91 401.94,-76.42 403.94,-83.13"/>
</a>
</g>
</g>
<!-- Node19&#45;&gt;Node13 -->
<g id="edge25_Node000019_Node000013" class="edge">
<title>Node19&#45;&gt;Node13</title>
<g id="a_edge25_Node000019_Node000013"><a xlink:title=" ">
<path fill="none" stroke="#63b8ff" d="M1020.6,-111.59C1034.22,-103.51 1054.11,-91.71 1070.01,-82.27"/>
<polygon fill="#63b8ff" stroke="#63b8ff" points="1071.66,-85.37 1078.47,-77.25 1068.09,-79.35 1071.66,-85.37"/>
</a>
</g>
</g>
<!-- Node19&#45;&gt;Node16 -->
<g id="edge23_Node000019_Node000016" class="edge">
<title>Node19&#45;&gt;Node16</title>
<g id="a_edge23_Node000019_Node000016"><a xlink:title=" ">
<path fill="none" stroke="#63b8ff" d="M936.82,-112.78C934.09,-112.51 931.4,-112.25 928.75,-112 694.73,-90.3 631.39,-106.94 395.4,-76.18"/>
<polygon fill="#63b8ff" stroke="#63b8ff" points="395.9,-72.72 385.53,-74.88 394.99,-79.66 395.9,-72.72"/>
</a>
</g>
</g>
<!-- Node19&#45;&gt;Node17 -->
<g id="edge24_Node000019_Node000017" class="edge">
<title>Node19&#45;&gt;Node17</title>
<g id="a_edge24_Node000019_Node000017"><a xlink:title=" ">
<path fill="none" stroke="#63b8ff" d="M936.81,-112.87C934.09,-112.57 931.39,-112.28 928.75,-112 774.1,-95.64 591.25,-79.47 501.35,-71.73"/>
<polygon fill="#63b8ff" stroke="#63b8ff" points="501.84,-68.26 491.58,-70.89 501.24,-75.23 501.84,-68.26"/>
</a>
</g>
</g>
<!-- Node19&#45;&gt;Node20 -->
<g id="edge22_Node000019_Node000020" class="edge">
<title>Node19&#45;&gt;Node20</title>
<g id="a_edge22_Node000019_Node000020"><a xlink:title=" ">
<path fill="none" stroke="#63b8ff" d="M1005.62,-111.59C1006.23,-105.01 1007.07,-95.96 1007.83,-87.73"/>
<polygon fill="#63b8ff" stroke="#63b8ff" points="1011.31,-88.09 1008.75,-77.81 1004.34,-87.44 1011.31,-88.09"/>
</a>
</g>
</g>
<!-- Node21&#45;&gt;Node16 -->
<g id="edge27_Node000021_Node000016" class="edge">
<title>Node21&#45;&gt;Node16</title>
<g id="a_edge27_Node000021_Node000016"><a xlink:title=" ">
<path fill="none" stroke="#63b8ff" d="M615.49,-112.23C560.86,-104 477.23,-91 395.35,-76.41"/>
<polygon fill="#63b8ff" stroke="#63b8ff" points="396.03,-72.98 385.57,-74.66 394.79,-79.87 396.03,-72.98"/>
</a>
</g>
</g>
<!-- Node21&#45;&gt;Node17 -->
<g id="edge28_Node000021_Node000017" class="edge">
<title>Node21&#45;&gt;Node17</title>
<g id="a_edge28_Node000021_Node000017"><a xlink:title=" ">
<path fill="none" stroke="#63b8ff" d="M634.6,-111.53C596.29,-102.5 538.43,-88.85 496.85,-79.05"/>
<polygon fill="#63b8ff" stroke="#63b8ff" points="497.86,-75.69 487.33,-76.8 496.26,-82.51 497.86,-75.69"/>
</a>
</g>
</g>
<!-- Node22&#45;&gt;Node16 -->
<g id="edge30_Node000022_Node000016" class="edge">
<title>Node22&#45;&gt;Node16</title>
<g id="a_edge30_Node000022_Node000016"><a xlink:title=" ">
<path fill="none" stroke="#63b8ff" d="M388.21,-111.59C381.47,-104.16 371.86,-93.58 363.71,-84.58"/>
<polygon fill="#63b8ff" stroke="#63b8ff" points="366.52,-82.47 357.2,-77.42 361.33,-87.18 366.52,-82.47"/>
</a>
</g>
</g>
<!-- Node22&#45;&gt;Node17 -->
<g id="edge31_Node000022_Node000017" class="edge">
<title>Node22&#45;&gt;Node17</title>
<g id="a_edge31_Node000022_Node000017"><a xlink:title=" ">
<path fill="none" stroke="#63b8ff" d="M405.29,-111.59C412.03,-104.16 421.64,-93.58 429.79,-84.58"/>
<polygon fill="#63b8ff" stroke="#63b8ff" points="432.17,-87.18 436.3,-77.42 426.98,-82.47 432.17,-87.18"/>
</a>
</g>
</g>
<!-- Node23&#45;&gt;Node16 -->
<g id="edge33_Node000023_Node000016" class="edge">
<title>Node23&#45;&gt;Node16</title>
<g id="a_edge33_Node000023_Node000016"><a xlink:title=" ">
<path fill="none" stroke="#63b8ff" d="M503.83,-111.59C472.72,-102.71 425.83,-89.31 391.57,-79.52"/>
<polygon fill="#63b8ff" stroke="#63b8ff" points="392.96,-76.28 382.38,-76.9 391.04,-83.01 392.96,-76.28"/>
</a>
</g>
</g>
<!-- Node23&#45;&gt;Node17 -->
<g id="edge34_Node000023_Node000017" class="edge">
<title>Node23&#45;&gt;Node17</title>
<g id="a_edge34_Node000023_Node000017"><a xlink:title=" ">
<path fill="none" stroke="#63b8ff" d="M520.9,-111.59C507.28,-103.51 487.39,-91.71 471.49,-82.27"/>
<polygon fill="#63b8ff" stroke="#63b8ff" points="473.41,-79.35 463.03,-77.25 469.84,-85.37 473.41,-79.35"/>
</a>
</g>
</g>
<!-- Node24&#45;&gt;Node16 -->
<g id="edge43_Node000024_Node000016" class="edge">
<title>Node24&#45;&gt;Node16</title>
<g id="a_edge43_Node000024_Node000016"><a xlink:title=" ">
<path fill="none" stroke="#63b8ff" d="M65.84,-113.58C68.51,-113.03 71.17,-112.49 73.75,-112 152.87,-96.83 245.45,-82.29 300.21,-74.02"/>
<polygon fill="#63b8ff" stroke="#63b8ff" points="300.43,-77.53 309.8,-72.58 299.39,-70.6 300.43,-77.53"/>
</a>
</g>
</g>
<!-- Node24&#45;&gt;Node17 -->
<g id="edge44_Node000024_Node000017" class="edge">
<title>Node24&#45;&gt;Node17</title>
<g id="a_edge44_Node000024_Node000017"><a xlink:title=" ">
<path fill="none" stroke="#63b8ff" d="M65.81,-113.43C68.49,-112.92 71.16,-112.43 73.75,-112 210.93,-89.27 249.53,-95.6 390.32,-76.26"/>
<polygon fill="#63b8ff" stroke="#63b8ff" points="390.61,-79.76 400.03,-74.91 389.65,-72.82 390.61,-79.76"/>
</a>
</g>
</g>
<!-- Node32 -->
<g id="Node000032" class="node">
<title>Node32</title>
<g id="a_Node000032"><a xlink:href="IRepository_8hpp.html" target="_top" xlink:title=" ">
<polygon fill="white" stroke="#666666" points="1593.88,-132 1509.62,-132 1509.62,-112 1593.88,-112 1593.88,-132"/>
<text text-anchor="middle" x="1551.75" y="-118.5" font-family="Helvetica,sans-Serif" font-size="10.00">IRepository.hpp</text>
</a>
</g>
</g>
<!-- Node31&#45;&gt;Node32 -->
<g id="edge57_Node000031_Node000032" class="edge">
<title>Node31&#45;&gt;Node32</title>
<g id="a_edge57_Node000031_Node000032"><a xlink:title=" ">
<path fill="none" stroke="#63b8ff" d="M1556.7,-167.59C1555.97,-161.01 1554.97,-151.96 1554.05,-143.73"/>
<polygon fill="#63b8ff" stroke="#63b8ff" points="1557.53,-143.35 1552.95,-133.8 1550.58,-144.13 1557.53,-143.35"/>
</a>
</g>
</g>
<!-- Node33 -->
<g id="Node000033" class="node">
<title>Node33</title>
<g id="a_Node000033"><a xlink:href="NotificationDTO_8hpp.html" target="_top" xlink:title=" ">
<polygon fill="white" stroke="#666666" points="1442.38,-132 1337.12,-132 1337.12,-112 1442.38,-112 1442.38,-132"/>
<text text-anchor="middle" x="1389.75" y="-118.5" font-family="Helvetica,sans-Serif" font-size="10.00">NotificationDTO.hpp</text>
</a>
</g>
</g>
<!-- Node31&#45;&gt;Node33 -->
<g id="edge59_Node000031_Node000033" class="edge">
<title>Node31&#45;&gt;Node33</title>
<g id="a_edge59_Node000031_Node000033"><a xlink:title=" ">
<path fill="none" stroke="#63b8ff" d="M1528.49,-167.59C1501.19,-158.82 1460.24,-145.66 1429.9,-135.9"/>
<polygon fill="#63b8ff" stroke="#63b8ff" points="1431.27,-132.67 1420.68,-132.94 1429.13,-139.33 1431.27,-132.67"/>
</a>
</g>
</g>
<!-- Node32&#45;&gt;Node9 -->
<g id="edge58_Node000032_Node000009" class="edge">
<title>Node32&#45;&gt;Node9</title>
<g id="a_edge58_Node000032_Node000009"><a xlink:title=" ">
<path fill="none" stroke="#63b8ff" d="M1542,-111.59C1534.13,-104.01 1522.85,-93.13 1513.4,-84.02"/>
<polygon fill="#63b8ff" stroke="#63b8ff" points="1516.11,-81.77 1506.48,-77.35 1511.25,-86.81 1516.11,-81.77"/>
</a>
</g>
</g>
<!-- Node33&#45;&gt;Node11 -->
<g id="edge61_Node000033_Node000011" class="edge">
<title>Node33&#45;&gt;Node11</title>
<g id="a_edge61_Node000033_Node000011"><a xlink:title=" ">
<path fill="none" stroke="#63b8ff" d="M1388.88,-111.59C1388.27,-105.01 1387.43,-95.96 1386.67,-87.73"/>
<polygon fill="#63b8ff" stroke="#63b8ff" points="1390.16,-87.44 1385.75,-77.81 1383.19,-88.09 1390.16,-87.44"/>
</a>
</g>
</g>
<!-- Node33&#45;&gt;Node14 -->
<g id="edge60_Node000033_Node000014" class="edge">
<title>Node33&#45;&gt;Node14</title>
<g id="a_edge60_Node000033_Node000014"><a xlink:title=" ">
<path fill="none" stroke="#63b8ff" d="M1372.68,-111.59C1357.87,-103.44 1336.18,-91.48 1318.98,-82"/>
<polygon fill="#63b8ff" stroke="#63b8ff" points="1320.73,-78.97 1310.28,-77.21 1317.35,-85.1 1320.73,-78.97"/>
</a>
</g>
</g>
<!-- Node36&#45;&gt;Node11 -->
<g id="edge66_Node000036_Node000011" class="edge">
<title>Node36&#45;&gt;Node11</title>
<g id="a_edge66_Node000036_Node000011"><a xlink:title=" ">
<path fill="none" stroke="#63b8ff" d="M1304.94,-223.51C1357.27,-212.02 1424.93,-186.83 1451.75,-132 1462.38,-110.26 1437.81,-91.76 1415.48,-80.12"/>
<polygon fill="#63b8ff" stroke="#63b8ff" points="1417.08,-77.01 1406.56,-75.79 1414.02,-83.3 1417.08,-77.01"/>
</a>
</g>
</g>
<!-- Node36&#45;&gt;Node25 -->
<g id="edge65_Node000036_Node000025" class="edge">
<title>Node36&#45;&gt;Node25</title>
<g id="a_edge65_Node000036_Node000025"><a xlink:title=" ">
<path fill="none" stroke="#63b8ff" d="M1257.13,-223.59C1276.09,-214.85 1304.5,-201.73 1325.61,-191.99"/>
<polygon fill="#63b8ff" stroke="#63b8ff" points="1326.91,-195.24 1334.53,-187.87 1323.98,-188.89 1326.91,-195.24"/>
</a>
</g>
</g>
</g>
</svg>
