<?xml version="1.0" encoding="UTF-8" standalone="no"?>
<!DOCTYPE svg PUBLIC "-//W3C//DTD SVG 1.1//EN"
 "http://www.w3.org/Graphics/SVG/1.1/DTD/svg11.dtd">
<!-- Generated by graphviz version 13.0.1 (0)
 -->
<!-- Title: src/bot_library/commands/portal/SetPortalCommand.cpp Pages: 1 -->
<svg width="1689pt" height="432pt"
 viewBox="0.00 0.00 1689.00 432.00" xmlns="http://www.w3.org/2000/svg" xmlns:xlink="http://www.w3.org/1999/xlink">
<g id="graph0" class="graph" transform="scale(1 1) rotate(0) translate(4 428)">
<title>src/bot_library/commands/portal/SetPortalCommand.cpp</title>
<!-- Node1 -->
<g id="Node000001" class="node">
<title>Node1</title>
<g id="a_Node000001"><a xlink:title=" ">
<polygon fill="#999999" stroke="#666666" points="1343,-424 1192.75,-424 1192.75,-392 1343,-392 1343,-424"/>
<text xml:space="preserve" text-anchor="start" x="1200.75" y="-410.5" font-family="Helvetica,sans-Serif" font-size="10.00">src/bot_library/commands</text>
<text xml:space="preserve" text-anchor="middle" x="1267.88" y="-398.5" font-family="Helvetica,sans-Serif" font-size="10.00">/portal/SetPortalCommand.cpp</text>
</a>
</g>
</g>
<!-- Node2 -->
<g id="Node000002" class="node">
<title>Node2</title>
<g id="a_Node000002"><a xlink:href="SetPortalCommand_8hpp.html" target="_top" xlink:title=" ">
<polygon fill="white" stroke="#666666" points="261,-356 140.75,-356 140.75,-336 261,-336 261,-356"/>
<text xml:space="preserve" text-anchor="middle" x="200.88" y="-342.5" font-family="Helvetica,sans-Serif" font-size="10.00">SetPortalCommand.hpp</text>
</a>
</g>
</g>
<!-- Node1&#45;&gt;Node2 -->
<g id="edge1_Node000001_Node000002" class="edge">
<title>Node1&#45;&gt;Node2</title>
<g id="a_edge1_Node000001_Node000002"><a xlink:title=" ">
<path fill="none" stroke="#63b8ff" d="M1192.39,-404.92C1026.28,-399.95 616.69,-385.53 274.88,-356 274.19,-355.94 273.5,-355.88 272.81,-355.82"/>
<polygon fill="#63b8ff" stroke="#63b8ff" points="273.21,-352.34 262.92,-354.86 272.54,-359.31 273.21,-352.34"/>
</a>
</g>
</g>
<!-- Node4 -->
<g id="Node000004" class="node">
<title>Node4</title>
<g id="a_Node000004"><a xlink:href="Core_8hpp.html" target="_top" xlink:title=" ">
<polygon fill="white" stroke="#666666" points="743.75,-244 688,-244 688,-224 743.75,-224 743.75,-244"/>
<text xml:space="preserve" text-anchor="middle" x="715.88" y="-230.5" font-family="Helvetica,sans-Serif" font-size="10.00">Core.hpp</text>
</a>
</g>
</g>
<!-- Node1&#45;&gt;Node4 -->
<g id="edge53_Node000001_Node000004" class="edge">
<title>Node1&#45;&gt;Node4</title>
<g id="a_edge53_Node000001_Node000004"><a xlink:title=" ">
<path fill="none" stroke="#63b8ff" d="M1218.4,-391.58C1109.97,-357.8 853.21,-277.79 755,-247.19"/>
<polygon fill="#63b8ff" stroke="#63b8ff" points="756.14,-243.88 745.55,-244.25 754.06,-250.56 756.14,-243.88"/>
</a>
</g>
</g>
<!-- Node19 -->
<g id="Node000019" class="node">
<title>Node19</title>
<g id="a_Node000019"><a xlink:title=" ">
<polygon fill="#e0e0e0" stroke="#999999" points="1088.25,-132 1005.5,-132 1005.5,-112 1088.25,-112 1088.25,-132"/>
<text xml:space="preserve" text-anchor="middle" x="1046.88" y="-118.5" font-family="Helvetica,sans-Serif" font-size="10.00">appcommand.h</text>
</a>
</g>
</g>
<!-- Node1&#45;&gt;Node19 -->
<g id="edge49_Node000001_Node000019" class="edge">
<title>Node1&#45;&gt;Node19</title>
<g id="a_edge49_Node000001_Node000019"><a xlink:title=" ">
<path fill="none" stroke="#63b8ff" d="M1212.34,-391.52C1193.07,-383.67 1172.81,-372.26 1158.88,-356 1139.28,-333.15 1139.88,-321.1 1139.88,-291 1139.88,-291 1139.88,-291 1139.88,-233 1139.88,-191.35 1100.51,-157.34 1073,-138.65"/>
<polygon fill="#63b8ff" stroke="#63b8ff" points="1075.06,-135.81 1064.77,-133.3 1071.25,-141.68 1075.06,-135.81"/>
</a>
</g>
</g>
<!-- Node21 -->
<g id="Node000021" class="node">
<title>Node21</title>
<g id="a_Node000021"><a xlink:href="IMessageCommand_8hpp.html" target="_top" xlink:title=" ">
<polygon fill="white" stroke="#666666" points="262.12,-188 139.62,-188 139.62,-168 262.12,-168 262.12,-188"/>
<text xml:space="preserve" text-anchor="middle" x="200.88" y="-174.5" font-family="Helvetica,sans-Serif" font-size="10.00">IMessageCommand.hpp</text>
</a>
</g>
</g>
<!-- Node1&#45;&gt;Node21 -->
<g id="edge62_Node000001_Node000021" class="edge">
<title>Node1&#45;&gt;Node21</title>
<g id="a_edge62_Node000001_Node000021"><a xlink:title=" ">
<path fill="none" stroke="#63b8ff" d="M1192.36,-402.15C1051.87,-391.92 741.6,-363.63 487.88,-300 387.95,-274.94 277.8,-220.16 227.99,-193.78"/>
<polygon fill="#63b8ff" stroke="#63b8ff" points="229.83,-190.8 219.36,-189.17 226.53,-196.97 229.83,-190.8"/>
</a>
</g>
</g>
<!-- Node22 -->
<g id="Node000022" class="node">
<title>Node22</title>
<g id="a_Node000022"><a xlink:href="IReactionCommand_8hpp.html" target="_top" xlink:title=" ">
<polygon fill="white" stroke="#666666" points="121.75,-188 0,-188 0,-168 121.75,-168 121.75,-188"/>
<text xml:space="preserve" text-anchor="middle" x="60.88" y="-174.5" font-family="Helvetica,sans-Serif" font-size="10.00">IReactionCommand.hpp</text>
</a>
</g>
</g>
<!-- Node1&#45;&gt;Node22 -->
<g id="edge63_Node000001_Node000022" class="edge">
<title>Node1&#45;&gt;Node22</title>
<g id="a_edge63_Node000001_Node000022"><a xlink:title=" ">
<path fill="none" stroke="#63b8ff" d="M1192.26,-405.84C945.2,-401.77 175.1,-386.67 131.88,-356 80.07,-319.24 66.04,-238.17 62.26,-199.85"/>
<polygon fill="#63b8ff" stroke="#63b8ff" points="65.75,-199.61 61.44,-189.93 58.77,-200.18 65.75,-199.61"/>
</a>
</g>
</g>
<!-- Node25 -->
<g id="Node000025" class="node">
<title>Node25</title>
<g id="a_Node000025"><a xlink:title=" ">
<polygon fill="#e0e0e0" stroke="#999999" points="1218.12,-356 1167.62,-356 1167.62,-336 1218.12,-336 1218.12,-356"/>
<text xml:space="preserve" text-anchor="middle" x="1192.88" y="-342.5" font-family="Helvetica,sans-Serif" font-size="10.00">colors.h</text>
</a>
</g>
</g>
<!-- Node1&#45;&gt;Node25 -->
<g id="edge50_Node000001_Node000025" class="edge">
<title>Node1&#45;&gt;Node25</title>
<g id="a_edge50_Node000001_Node000025"><a xlink:title=" ">
<path fill="none" stroke="#63b8ff" d="M1248.56,-391.55C1237.82,-382.95 1224.45,-372.26 1213.5,-363.5"/>
<polygon fill="#63b8ff" stroke="#63b8ff" points="1215.81,-360.87 1205.82,-357.35 1211.44,-366.33 1215.81,-360.87"/>
</a>
</g>
</g>
<!-- Node26 -->
<g id="Node000026" class="node">
<title>Node26</title>
<g id="a_Node000026"><a xlink:title=" ">
<polygon fill="#e0e0e0" stroke="#999999" points="1299.88,-356 1235.88,-356 1235.88,-336 1299.88,-336 1299.88,-356"/>
<text xml:space="preserve" text-anchor="middle" x="1267.88" y="-342.5" font-family="Helvetica,sans-Serif" font-size="10.00">message.h</text>
</a>
</g>
</g>
<!-- Node1&#45;&gt;Node26 -->
<g id="edge51_Node000001_Node000026" class="edge">
<title>Node1&#45;&gt;Node26</title>
<g id="a_edge51_Node000001_Node000026"><a xlink:title=" ">
<path fill="none" stroke="#63b8ff" d="M1267.88,-391.55C1267.88,-384.34 1267.88,-375.66 1267.88,-367.88"/>
<polygon fill="#63b8ff" stroke="#63b8ff" points="1271.38,-367.92 1267.88,-357.92 1264.38,-367.92 1271.38,-367.92"/>
</a>
</g>
</g>
<!-- Node27 -->
<g id="Node000027" class="node">
<title>Node27</title>
<g id="a_Node000027"><a xlink:title=" ">
<polygon fill="#e0e0e0" stroke="#999999" points="1386.12,-356 1317.62,-356 1317.62,-336 1386.12,-336 1386.12,-356"/>
<text xml:space="preserve" text-anchor="middle" x="1351.88" y="-342.5" font-family="Helvetica,sans-Serif" font-size="10.00">snowflake.h</text>
</a>
</g>
</g>
<!-- Node1&#45;&gt;Node27 -->
<g id="edge52_Node000001_Node000027" class="edge">
<title>Node1&#45;&gt;Node27</title>
<g id="a_edge52_Node000001_Node000027"><a xlink:title=" ">
<path fill="none" stroke="#63b8ff" d="M1289.51,-391.55C1301.78,-382.78 1317.12,-371.83 1329.51,-362.97"/>
<polygon fill="#63b8ff" stroke="#63b8ff" points="1331.37,-365.95 1337.47,-357.29 1327.3,-360.25 1331.37,-365.95"/>
</a>
</g>
</g>
<!-- Node28 -->
<g id="Node000028" class="node">
<title>Node28</title>
<g id="a_Node000028"><a xlink:href="PortalRepository_8hpp.html" target="_top" xlink:title=" ">
<polygon fill="white" stroke="#666666" points="1681.25,-244 1574.5,-244 1574.5,-224 1681.25,-224 1681.25,-244"/>
<text xml:space="preserve" text-anchor="middle" x="1627.88" y="-230.5" font-family="Helvetica,sans-Serif" font-size="10.00">PortalRepository.hpp</text>
</a>
</g>
</g>
<!-- Node1&#45;&gt;Node28 -->
<g id="edge54_Node000001_Node000028" class="edge">
<title>Node1&#45;&gt;Node28</title>
<g id="a_edge54_Node000001_Node000028"><a xlink:title=" ">
<path fill="none" stroke="#63b8ff" d="M1343.29,-405.81C1432.2,-402.73 1572.5,-392.11 1608.88,-356 1635.45,-329.62 1634.45,-282.27 1631.24,-255.29"/>
<polygon fill="#63b8ff" stroke="#63b8ff" points="1634.75,-255.07 1629.87,-245.66 1627.82,-256.06 1634.75,-255.07"/>
</a>
</g>
</g>
<!-- Node31 -->
<g id="Node000031" class="node">
<title>Node31</title>
<g id="a_Node000031"><a xlink:href="PortalDTO_8hpp.html" target="_top" xlink:title=" ">
<polygon fill="white" stroke="#666666" points="1568.5,-188 1487.25,-188 1487.25,-168 1568.5,-168 1568.5,-188"/>
<text xml:space="preserve" text-anchor="middle" x="1527.88" y="-174.5" font-family="Helvetica,sans-Serif" font-size="10.00">PortalDTO.hpp</text>
</a>
</g>
</g>
<!-- Node1&#45;&gt;Node31 -->
<g id="edge70_Node000001_Node000031" class="edge">
<title>Node1&#45;&gt;Node31</title>
<g id="a_edge70_Node000001_Node000031"><a xlink:title=" ">
<path fill="none" stroke="#63b8ff" d="M1340.79,-391.53C1365.45,-383.77 1392,-372.41 1412.88,-356 1468,-312.65 1504.97,-235.2 1520.13,-198.86"/>
<polygon fill="#63b8ff" stroke="#63b8ff" points="1523.36,-200.21 1523.86,-189.62 1516.87,-197.58 1523.36,-200.21"/>
</a>
</g>
</g>
<!-- Node32 -->
<g id="Node000032" class="node">
<title>Node32</title>
<g id="a_Node000032"><a xlink:title=" ">
<polygon fill="#e0e0e0" stroke="#999999" points="1535.75,-356 1480,-356 1480,-336 1535.75,-336 1535.75,-356"/>
<text xml:space="preserve" text-anchor="middle" x="1507.88" y="-342.5" font-family="Helvetica,sans-Serif" font-size="10.00">algorithm</text>
</a>
</g>
</g>
<!-- Node1&#45;&gt;Node32 -->
<g id="edge60_Node000001_Node000032" class="edge">
<title>Node1&#45;&gt;Node32</title>
<g id="a_edge60_Node000001_Node000032"><a xlink:title=" ">
<path fill="none" stroke="#63b8ff" d="M1329.68,-391.55C1373.48,-380.6 1430.93,-366.24 1468.6,-356.82"/>
<polygon fill="#63b8ff" stroke="#63b8ff" points="1469.3,-360.25 1478.15,-354.43 1467.6,-353.46 1469.3,-360.25"/>
</a>
</g>
</g>
<!-- Node33 -->
<g id="Node000033" class="node">
<title>Node33</title>
<g id="a_Node000033"><a xlink:title=" ">
<polygon fill="#e0e0e0" stroke="#999999" points="1599.88,-356 1553.88,-356 1553.88,-336 1599.88,-336 1599.88,-356"/>
<text xml:space="preserve" text-anchor="middle" x="1576.88" y="-342.5" font-family="Helvetica,sans-Serif" font-size="10.00">iterator</text>
</a>
</g>
</g>
<!-- Node1&#45;&gt;Node33 -->
<g id="edge61_Node000001_Node000033" class="edge">
<title>Node1&#45;&gt;Node33</title>
<g id="a_edge61_Node000001_Node000033"><a xlink:title=" ">
<path fill="none" stroke="#63b8ff" d="M1343.21,-395.06C1396.4,-386.18 1469.56,-373.09 1542.32,-356.43"/>
<polygon fill="#63b8ff" stroke="#63b8ff" points="1543.09,-359.84 1552.05,-354.18 1541.51,-353.02 1543.09,-359.84"/>
</a>
</g>
</g>
<!-- Node34 -->
<g id="Node000034" class="node">
<title>Node34</title>
<g id="a_Node000034"><a xlink:href="BlacklistRepository_8hpp.html" target="_top" xlink:title=" ">
<polygon fill="white" stroke="#666666" points="1423.88,-244 1251.88,-244 1251.88,-224 1423.88,-224 1423.88,-244"/>
<text xml:space="preserve" text-anchor="middle" x="1337.88" y="-230.5" font-family="Helvetica,sans-Serif" font-size="10.00">repositories/BlacklistRepository.hpp</text>
</a>
</g>
</g>
<!-- Node1&#45;&gt;Node34 -->
<g id="edge64_Node000001_Node000034" class="edge">
<title>Node1&#45;&gt;Node34</title>
<g id="a_edge64_Node000001_Node000034"><a xlink:title=" ">
<path fill="none" stroke="#63b8ff" d="M1343.38,-392.95C1363.43,-385.41 1382.83,-373.81 1394.88,-356 1418.04,-321.73 1381.37,-276.57 1356.92,-252.27"/>
<polygon fill="#63b8ff" stroke="#63b8ff" points="1359.34,-249.74 1349.69,-245.36 1354.5,-254.8 1359.34,-249.74"/>
</a>
</g>
</g>
<!-- Node3 -->
<g id="Node000003" class="node">
<title>Node3</title>
<g id="a_Node000003"><a xlink:href="Bot_8hpp.html" target="_top" xlink:title=" ">
<polygon fill="white" stroke="#666666" points="546.75,-300 497,-300 497,-280 546.75,-280 546.75,-300"/>
<text xml:space="preserve" text-anchor="middle" x="521.88" y="-286.5" font-family="Helvetica,sans-Serif" font-size="10.00">Bot.hpp</text>
</a>
</g>
</g>
<!-- Node2&#45;&gt;Node3 -->
<g id="edge2_Node000002_Node000003" class="edge">
<title>Node2&#45;&gt;Node3</title>
<g id="a_edge2_Node000002_Node000003"><a xlink:title=" ">
<path fill="none" stroke="#63b8ff" d="M257.16,-335.53C322.96,-324.46 429.94,-306.47 485.61,-297.1"/>
<polygon fill="#63b8ff" stroke="#63b8ff" points="485.91,-300.6 495.19,-295.49 484.75,-293.7 485.91,-300.6"/>
</a>
</g>
</g>
<!-- Node2&#45;&gt;Node21 -->
<g id="edge47_Node000002_Node000021" class="edge">
<title>Node2&#45;&gt;Node21</title>
<g id="a_edge47_Node000002_Node000021"><a xlink:title=" ">
<path fill="none" stroke="#63b8ff" d="M200.88,-335.6C200.88,-309.46 200.88,-235.48 200.88,-199.36"/>
<polygon fill="#63b8ff" stroke="#63b8ff" points="204.38,-199.81 200.88,-189.81 197.38,-199.81 204.38,-199.81"/>
</a>
</g>
</g>
<!-- Node2&#45;&gt;Node22 -->
<g id="edge48_Node000002_Node000022" class="edge">
<title>Node2&#45;&gt;Node22</title>
<g id="a_edge48_Node000002_Node000022"><a xlink:title=" ">
<path fill="none" stroke="#63b8ff" d="M193.46,-335.8C177.02,-315.45 136.17,-265.18 100.88,-224 93.07,-214.89 84.22,-204.9 76.83,-196.65"/>
<polygon fill="#63b8ff" stroke="#63b8ff" points="79.55,-194.44 70.26,-189.35 74.34,-199.12 79.55,-194.44"/>
</a>
</g>
</g>
<!-- Node3&#45;&gt;Node4 -->
<g id="edge3_Node000003_Node000004" class="edge">
<title>Node3&#45;&gt;Node4</title>
<g id="a_edge3_Node000003_Node000004"><a xlink:title=" ">
<path fill="none" stroke="#63b8ff" d="M547.24,-281.94C580.24,-272.76 638.22,-256.61 676.85,-245.86"/>
<polygon fill="#63b8ff" stroke="#63b8ff" points="677.52,-249.31 686.22,-243.26 675.65,-242.57 677.52,-249.31"/>
</a>
</g>
</g>
<!-- Node9 -->
<g id="Node000009" class="node">
<title>Node9</title>
<g id="a_Node000009"><a xlink:title=" ">
<polygon fill="#e0e0e0" stroke="#999999" points="1357.88,-132 1317.88,-132 1317.88,-112 1357.88,-112 1357.88,-132"/>
<text xml:space="preserve" text-anchor="middle" x="1337.88" y="-118.5" font-family="Helvetica,sans-Serif" font-size="10.00">string</text>
</a>
</g>
</g>
<!-- Node3&#45;&gt;Node9 -->
<g id="edge45_Node000003_Node000009" class="edge">
<title>Node3&#45;&gt;Node9</title>
<g id="a_edge45_Node000003_Node000009"><a xlink:title=" ">
<path fill="none" stroke="#63b8ff" d="M546.95,-287.41C675.34,-279.07 1255.3,-238.76 1315.88,-188 1328.87,-177.11 1334.22,-158.24 1336.4,-143.63"/>
<polygon fill="#63b8ff" stroke="#63b8ff" points="1339.88,-144.01 1337.46,-133.7 1332.92,-143.27 1339.88,-144.01"/>
</a>
</g>
</g>
<!-- Node10 -->
<g id="Node000010" class="node">
<title>Node10</title>
<g id="a_Node000010"><a xlink:title=" ">
<polygon fill="#e0e0e0" stroke="#999999" points="1156.38,-132 1113.38,-132 1113.38,-112 1156.38,-112 1156.38,-132"/>
<text xml:space="preserve" text-anchor="middle" x="1134.88" y="-118.5" font-family="Helvetica,sans-Serif" font-size="10.00">vector</text>
</a>
</g>
</g>
<!-- Node3&#45;&gt;Node10 -->
<g id="edge46_Node000003_Node000010" class="edge">
<title>Node3&#45;&gt;Node10</title>
<g id="a_edge46_Node000003_Node000010"><a xlink:title=" ">
<path fill="none" stroke="#63b8ff" d="M547.18,-286.87C644,-278.37 990.14,-244.53 1082.88,-188 1101.15,-176.86 1115.68,-156.87 1124.68,-141.98"/>
<polygon fill="#63b8ff" stroke="#63b8ff" points="1127.57,-143.98 1129.49,-133.56 1121.49,-140.51 1127.57,-143.98"/>
</a>
</g>
</g>
<!-- Node14 -->
<g id="Node000014" class="node">
<title>Node14</title>
<g id="a_Node000014"><a xlink:href="IButtonCommand_8hpp.html" target="_top" xlink:title=" ">
<polygon fill="white" stroke="#666666" points="734.5,-188 623.25,-188 623.25,-168 734.5,-168 734.5,-188"/>
<text xml:space="preserve" text-anchor="middle" x="678.88" y="-174.5" font-family="Helvetica,sans-Serif" font-size="10.00">IButtonCommand.hpp</text>
</a>
</g>
</g>
<!-- Node3&#45;&gt;Node14 -->
<g id="edge35_Node000003_Node000014" class="edge">
<title>Node3&#45;&gt;Node14</title>
<g id="a_edge35_Node000003_Node000014"><a xlink:title=" ">
<path fill="none" stroke="#63b8ff" d="M535.26,-279.62C562.14,-260.79 622.95,-218.18 656.17,-194.91"/>
<polygon fill="#63b8ff" stroke="#63b8ff" points="658.1,-197.83 664.28,-189.22 654.09,-192.09 658.1,-197.83"/>
</a>
</g>
</g>
<!-- Node17 -->
<g id="Node000017" class="node">
<title>Node17</title>
<g id="a_Node000017"><a xlink:href="IFormCommand_8hpp.html" target="_top" xlink:title=" ">
<polygon fill="white" stroke="#666666" points="468.5,-188 363.25,-188 363.25,-168 468.5,-168 468.5,-188"/>
<text xml:space="preserve" text-anchor="middle" x="415.88" y="-174.5" font-family="Helvetica,sans-Serif" font-size="10.00">IFormCommand.hpp</text>
</a>
</g>
</g>
<!-- Node3&#45;&gt;Node17 -->
<g id="edge36_Node000003_Node000017" class="edge">
<title>Node3&#45;&gt;Node17</title>
<g id="a_edge36_Node000003_Node000017"><a xlink:title=" ">
<path fill="none" stroke="#63b8ff" d="M505.92,-279.62C492.65,-271.32 473.75,-258.34 459.88,-244 446.42,-230.09 434.35,-211.61 426.27,-197.91"/>
<polygon fill="#63b8ff" stroke="#63b8ff" points="429.44,-196.4 421.45,-189.44 423.35,-199.86 429.44,-196.4"/>
</a>
</g>
</g>
<!-- Node18 -->
<g id="Node000018" class="node">
<title>Node18</title>
<g id="a_Node000018"><a xlink:href="IGlobalSlashCommand_8hpp.html" target="_top" xlink:title=" ">
<polygon fill="white" stroke="#666666" points="1073.5,-188 938.25,-188 938.25,-168 1073.5,-168 1073.5,-188"/>
<text xml:space="preserve" text-anchor="middle" x="1005.88" y="-174.5" font-family="Helvetica,sans-Serif" font-size="10.00">IGlobalSlashCommand.hpp</text>
</a>
</g>
</g>
<!-- Node3&#45;&gt;Node18 -->
<g id="edge37_Node000003_Node000018" class="edge">
<title>Node3&#45;&gt;Node18</title>
<g id="a_edge37_Node000003_Node000018"><a xlink:title=" ">
<path fill="none" stroke="#63b8ff" d="M546.93,-284.62C589.44,-277.08 678.34,-260.82 752.88,-244 826.08,-227.48 910.36,-205.16 960.81,-191.44"/>
<polygon fill="#63b8ff" stroke="#63b8ff" points="961.47,-194.88 970.2,-188.88 959.63,-188.13 961.47,-194.88"/>
</a>
</g>
</g>
<!-- Node20 -->
<g id="Node000020" class="node">
<title>Node20</title>
<g id="a_Node000020"><a xlink:href="IMemberCommand_8hpp.html" target="_top" xlink:title=" ">
<polygon fill="white" stroke="#666666" points="604.88,-188 486.88,-188 486.88,-168 604.88,-168 604.88,-188"/>
<text xml:space="preserve" text-anchor="middle" x="545.88" y="-174.5" font-family="Helvetica,sans-Serif" font-size="10.00">IMemberCommand.hpp</text>
</a>
</g>
</g>
<!-- Node3&#45;&gt;Node20 -->
<g id="edge38_Node000003_Node000020" class="edge">
<title>Node3&#45;&gt;Node20</title>
<g id="a_edge38_Node000003_Node000020"><a xlink:title=" ">
<path fill="none" stroke="#63b8ff" d="M523.92,-279.62C527.78,-261.92 536.22,-223.24 541.44,-199.32"/>
<polygon fill="#63b8ff" stroke="#63b8ff" points="544.8,-200.35 543.51,-189.83 537.96,-198.86 544.8,-200.35"/>
</a>
</g>
</g>
<!-- Node3&#45;&gt;Node21 -->
<g id="edge39_Node000003_Node000021" class="edge">
<title>Node3&#45;&gt;Node21</title>
<g id="a_edge39_Node000003_Node000021"><a xlink:title=" ">
<path fill="none" stroke="#63b8ff" d="M496.54,-280.14C470.88,-271.14 430.06,-256.75 394.88,-244 370.81,-235.28 365.06,-232.36 340.88,-224 308,-212.64 270.47,-200.62 242.55,-191.87"/>
<polygon fill="#63b8ff" stroke="#63b8ff" points="243.62,-188.54 233.04,-188.9 241.54,-195.22 243.62,-188.54"/>
</a>
</g>
</g>
<!-- Node3&#45;&gt;Node22 -->
<g id="edge40_Node000003_Node000022" class="edge">
<title>Node3&#45;&gt;Node22</title>
<g id="a_edge40_Node000003_Node000022"><a xlink:title=" ">
<path fill="none" stroke="#63b8ff" d="M496.76,-283.01C423.65,-265.56 209.93,-214.57 111.53,-191.09"/>
<polygon fill="#63b8ff" stroke="#63b8ff" points="112.41,-187.7 101.87,-188.78 110.79,-194.51 112.41,-187.7"/>
</a>
</g>
</g>
<!-- Node23 -->
<g id="Node000023" class="node">
<title>Node23</title>
<g id="a_Node000023"><a xlink:href="IReady_8hpp.html" target="_top" xlink:title=" ">
<polygon fill="white" stroke="#666666" points="345.62,-188 280.12,-188 280.12,-168 345.62,-168 345.62,-188"/>
<text xml:space="preserve" text-anchor="middle" x="312.88" y="-174.5" font-family="Helvetica,sans-Serif" font-size="10.00">IReady.hpp</text>
</a>
</g>
</g>
<!-- Node3&#45;&gt;Node23 -->
<g id="edge41_Node000003_Node000023" class="edge">
<title>Node3&#45;&gt;Node23</title>
<g id="a_edge41_Node000003_Node000023"><a xlink:title=" ">
<path fill="none" stroke="#63b8ff" d="M504.06,-279.62C467.58,-260.42 384.17,-216.52 340.57,-193.58"/>
<polygon fill="#63b8ff" stroke="#63b8ff" points="342.47,-190.62 331.99,-189.06 339.21,-196.81 342.47,-190.62"/>
</a>
</g>
</g>
<!-- Node24 -->
<g id="Node000024" class="node">
<title>Node24</title>
<g id="a_Node000024"><a xlink:title=" ">
<polygon fill="#e0e0e0" stroke="#999999" points="520.5,-244 469.25,-244 469.25,-224 520.5,-224 520.5,-244"/>
<text xml:space="preserve" text-anchor="middle" x="494.88" y="-230.5" font-family="Helvetica,sans-Serif" font-size="10.00">memory</text>
</a>
</g>
</g>
<!-- Node3&#45;&gt;Node24 -->
<g id="edge44_Node000003_Node000024" class="edge">
<title>Node3&#45;&gt;Node24</title>
<g id="a_edge44_Node000003_Node000024"><a xlink:title=" ">
<path fill="none" stroke="#63b8ff" d="M517.17,-279.59C513.73,-272.7 508.93,-263.1 504.66,-254.57"/>
<polygon fill="#63b8ff" stroke="#63b8ff" points="507.8,-253.03 500.2,-245.65 501.54,-256.16 507.8,-253.03"/>
</a>
</g>
</g>
<!-- Node5 -->
<g id="Node000005" class="node">
<title>Node5</title>
<g id="a_Node000005"><a xlink:title=" ">
<polygon fill="#e0e0e0" stroke="#999999" points="811.25,-188 752.5,-188 752.5,-168 811.25,-168 811.25,-188"/>
<text xml:space="preserve" text-anchor="middle" x="781.88" y="-174.5" font-family="Helvetica,sans-Serif" font-size="10.00">dpp/dpp.h</text>
</a>
</g>
</g>
<!-- Node4&#45;&gt;Node5 -->
<g id="edge4_Node000004_Node000005" class="edge">
<title>Node4&#45;&gt;Node5</title>
<g id="a_edge4_Node000004_Node000005"><a xlink:title=" ">
<path fill="none" stroke="#63b8ff" d="M727.37,-223.59C736.84,-215.85 750.48,-204.69 761.75,-195.47"/>
<polygon fill="#63b8ff" stroke="#63b8ff" points="763.82,-198.3 769.34,-189.26 759.38,-192.88 763.82,-198.3"/>
</a>
</g>
</g>
<!-- Node6 -->
<g id="Node000006" class="node">
<title>Node6</title>
<g id="a_Node000006"><a xlink:title=" ">
<polygon fill="#e0e0e0" stroke="#999999" points="920.38,-188 829.38,-188 829.38,-168 920.38,-168 920.38,-188"/>
<text xml:space="preserve" text-anchor="middle" x="874.88" y="-174.5" font-family="Helvetica,sans-Serif" font-size="10.00">dpp/misc&#45;enum.h</text>
</a>
</g>
</g>
<!-- Node4&#45;&gt;Node6 -->
<g id="edge5_Node000004_Node000006" class="edge">
<title>Node4&#45;&gt;Node6</title>
<g id="a_edge5_Node000004_Node000006"><a xlink:title=" ">
<path fill="none" stroke="#63b8ff" d="M743.57,-223.59C769.18,-214.9 807.48,-201.89 836.12,-192.16"/>
<polygon fill="#63b8ff" stroke="#63b8ff" points="837.19,-195.5 845.53,-188.97 834.94,-188.87 837.19,-195.5"/>
</a>
</g>
</g>
<!-- Node7 -->
<g id="Node000007" class="node">
<title>Node7</title>
<g id="a_Node000007"><a xlink:href="Database_8hpp.html" target="_top" xlink:title=" ">
<polygon fill="white" stroke="#666666" points="1282.25,-188 1205.5,-188 1205.5,-168 1282.25,-168 1282.25,-188"/>
<text xml:space="preserve" text-anchor="middle" x="1243.88" y="-174.5" font-family="Helvetica,sans-Serif" font-size="10.00">Database.hpp</text>
</a>
</g>
</g>
<!-- Node4&#45;&gt;Node7 -->
<g id="edge6_Node000004_Node000007" class="edge">
<title>Node4&#45;&gt;Node7</title>
<g id="a_edge6_Node000004_Node000007"><a xlink:title=" ">
<path fill="none" stroke="#63b8ff" d="M743.89,-230.13C828.95,-221.44 1085.03,-195.25 1193.96,-184.1"/>
<polygon fill="#63b8ff" stroke="#63b8ff" points="1194.17,-187.6 1203.76,-183.1 1193.46,-180.64 1194.17,-187.6"/>
</a>
</g>
</g>
<!-- Node4&#45;&gt;Node9 -->
<g id="edge34_Node000004_Node000009" class="edge">
<title>Node4&#45;&gt;Node9</title>
<g id="a_edge34_Node000004_Node000009"><a xlink:title=" ">
<path fill="none" stroke="#63b8ff" d="M743.94,-232.18C852.72,-228.81 1242.85,-214.95 1290.88,-188 1308.87,-177.9 1321.79,-157.7 1329.47,-142.49"/>
<polygon fill="#63b8ff" stroke="#63b8ff" points="1332.63,-143.99 1333.68,-133.45 1326.29,-141.04 1332.63,-143.99"/>
</a>
</g>
</g>
<!-- Node4&#45;&gt;Node14 -->
<g id="edge14_Node000004_Node000014" class="edge">
<title>Node4&#45;&gt;Node14</title>
<g id="a_edge14_Node000004_Node000014"><a xlink:title=" ">
<path fill="none" stroke="#63b8ff" d="M709.43,-223.59C704.55,-216.47 697.68,-206.45 691.7,-197.72"/>
<polygon fill="#63b8ff" stroke="#63b8ff" points="694.64,-195.82 686.1,-189.55 688.87,-199.77 694.64,-195.82"/>
</a>
</g>
</g>
<!-- Node4&#45;&gt;Node17 -->
<g id="edge17_Node000004_Node000017" class="edge">
<title>Node4&#45;&gt;Node17</title>
<g id="a_edge17_Node000004_Node000017"><a xlink:title=" ">
<path fill="none" stroke="#63b8ff" d="M687.65,-227.92C640.39,-219.41 544.09,-202.08 479.75,-190.5"/>
<polygon fill="#63b8ff" stroke="#63b8ff" points="480.48,-187.07 470.02,-188.75 479.24,-193.96 480.48,-187.07"/>
</a>
</g>
</g>
<!-- Node4&#45;&gt;Node18 -->
<g id="edge20_Node000004_Node000018" class="edge">
<title>Node4&#45;&gt;Node18</title>
<g id="a_edge20_Node000004_Node000018"><a xlink:title=" ">
<path fill="none" stroke="#63b8ff" d="M744.21,-227.72C790.16,-219.17 882.01,-202.06 943.72,-190.57"/>
<polygon fill="#63b8ff" stroke="#63b8ff" points="944.2,-194.04 953.39,-188.77 942.92,-187.16 944.2,-194.04"/>
</a>
</g>
</g>
<!-- Node4&#45;&gt;Node20 -->
<g id="edge25_Node000004_Node000020" class="edge">
<title>Node4&#45;&gt;Node20</title>
<g id="a_edge25_Node000004_Node000020"><a xlink:title=" ">
<path fill="none" stroke="#63b8ff" d="M687.8,-224.08C660.25,-215.33 617.94,-201.89 586.68,-191.96"/>
<polygon fill="#63b8ff" stroke="#63b8ff" points="587.74,-188.63 577.15,-188.93 585.62,-195.3 587.74,-188.63"/>
</a>
</g>
</g>
<!-- Node4&#45;&gt;Node21 -->
<g id="edge28_Node000004_Node000021" class="edge">
<title>Node4&#45;&gt;Node21</title>
<g id="a_edge28_Node000004_Node000021"><a xlink:title=" ">
<path fill="none" stroke="#63b8ff" d="M687.73,-230.42C618.97,-224.06 436.69,-206.87 273.54,-188.28"/>
<polygon fill="#63b8ff" stroke="#63b8ff" points="274.16,-184.83 263.83,-187.17 273.36,-191.78 274.16,-184.83"/>
</a>
</g>
</g>
<!-- Node4&#45;&gt;Node22 -->
<g id="edge31_Node000004_Node000022" class="edge">
<title>Node4&#45;&gt;Node22</title>
<g id="a_edge31_Node000004_Node000022"><a xlink:title=" ">
<path fill="none" stroke="#63b8ff" d="M687.52,-231.33C604.29,-226.34 353.21,-210.48 133.37,-188.21"/>
<polygon fill="#63b8ff" stroke="#63b8ff" points="133.75,-184.73 123.44,-187.19 133.04,-191.69 133.75,-184.73"/>
</a>
</g>
</g>
<!-- Node8 -->
<g id="Node000008" class="node">
<title>Node8</title>
<g id="a_Node000008"><a xlink:title=" ">
<polygon fill="#e0e0e0" stroke="#999999" points="1261.62,-132 1208.12,-132 1208.12,-112 1261.62,-112 1261.62,-132"/>
<text xml:space="preserve" text-anchor="middle" x="1234.88" y="-118.5" font-family="Helvetica,sans-Serif" font-size="10.00">iostream</text>
</a>
</g>
</g>
<!-- Node7&#45;&gt;Node8 -->
<g id="edge7_Node000007_Node000008" class="edge">
<title>Node7&#45;&gt;Node8</title>
<g id="a_edge7_Node000007_Node000008"><a xlink:title=" ">
<path fill="none" stroke="#63b8ff" d="M1242.31,-167.59C1241.2,-160.93 1239.67,-151.75 1238.28,-143.44"/>
<polygon fill="#63b8ff" stroke="#63b8ff" points="1241.77,-143.08 1236.67,-133.79 1234.87,-144.23 1241.77,-143.08"/>
</a>
</g>
</g>
<!-- Node7&#45;&gt;Node9 -->
<g id="edge8_Node000007_Node000009" class="edge">
<title>Node7&#45;&gt;Node9</title>
<g id="a_edge8_Node000007_Node000009"><a xlink:title=" ">
<path fill="none" stroke="#63b8ff" d="M1260.25,-167.59C1274.45,-159.44 1295.26,-147.48 1311.76,-138"/>
<polygon fill="#63b8ff" stroke="#63b8ff" points="1313.13,-141.25 1320.06,-133.23 1309.65,-135.18 1313.13,-141.25"/>
</a>
</g>
</g>
<!-- Node7&#45;&gt;Node10 -->
<g id="edge9_Node000007_Node000010" class="edge">
<title>Node7&#45;&gt;Node10</title>
<g id="a_edge9_Node000007_Node000010"><a xlink:title=" ">
<path fill="none" stroke="#63b8ff" d="M1224.89,-167.59C1208.11,-159.28 1183.38,-147.03 1164.09,-137.47"/>
<polygon fill="#63b8ff" stroke="#63b8ff" points="1165.88,-134.45 1155.37,-133.15 1162.77,-140.73 1165.88,-134.45"/>
</a>
</g>
</g>
<!-- Node11 -->
<g id="Node000011" class="node">
<title>Node11</title>
<g id="a_Node000011"><a xlink:href="DatabaseBackend_8hpp.html" target="_top" xlink:title=" ">
<polygon fill="white" stroke="#666666" points="1417.38,-76 1302.38,-76 1302.38,-56 1417.38,-56 1417.38,-76"/>
<text xml:space="preserve" text-anchor="middle" x="1359.88" y="-62.5" font-family="Helvetica,sans-Serif" font-size="10.00">DatabaseBackend.hpp</text>
</a>
</g>
</g>
<!-- Node7&#45;&gt;Node11 -->
<g id="edge10_Node000007_Node000011" class="edge">
<title>Node7&#45;&gt;Node11</title>
<g id="a_edge10_Node000007_Node000011"><a xlink:title=" ">
<path fill="none" stroke="#63b8ff" d="M1252.95,-167.56C1265.36,-154.74 1288.4,-131.23 1308.88,-112 1319.05,-102.44 1330.7,-92.12 1340.3,-83.77"/>
<polygon fill="#63b8ff" stroke="#63b8ff" points="1342.33,-86.64 1347.61,-77.45 1337.75,-81.34 1342.33,-86.64"/>
</a>
</g>
</g>
<!-- Node13 -->
<g id="Node000013" class="node">
<title>Node13</title>
<g id="a_Node000013"><a xlink:href="RowDTOAdapter_8hpp.html" target="_top" xlink:title=" ">
<polygon fill="white" stroke="#666666" points="1485.75,-132 1376,-132 1376,-112 1485.75,-112 1485.75,-132"/>
<text xml:space="preserve" text-anchor="middle" x="1430.88" y="-118.5" font-family="Helvetica,sans-Serif" font-size="10.00">RowDTOAdapter.hpp</text>
</a>
</g>
</g>
<!-- Node7&#45;&gt;Node13 -->
<g id="edge12_Node000007_Node000013" class="edge">
<title>Node7&#45;&gt;Node13</title>
<g id="a_edge12_Node000007_Node000013"><a xlink:title=" ">
<path fill="none" stroke="#63b8ff" d="M1276.45,-167.59C1307.1,-158.74 1353.22,-145.43 1387.08,-135.65"/>
<polygon fill="#63b8ff" stroke="#63b8ff" points="1387.96,-139.04 1396.59,-132.9 1386.02,-132.31 1387.96,-139.04"/>
</a>
</g>
</g>
<!-- Node12 -->
<g id="Node000012" class="node">
<title>Node12</title>
<g id="a_Node000012"><a xlink:title=" ">
<polygon fill="#e0e0e0" stroke="#999999" points="1390.38,-20 1329.38,-20 1329.38,0 1390.38,0 1390.38,-20"/>
<text xml:space="preserve" text-anchor="middle" x="1359.88" y="-6.5" font-family="Helvetica,sans-Serif" font-size="10.00">pqxx/pqxx</text>
</a>
</g>
</g>
<!-- Node11&#45;&gt;Node12 -->
<g id="edge11_Node000011_Node000012" class="edge">
<title>Node11&#45;&gt;Node12</title>
<g id="a_edge11_Node000011_Node000012"><a xlink:title=" ">
<path fill="none" stroke="#63b8ff" d="M1359.88,-55.59C1359.88,-49.01 1359.88,-39.96 1359.88,-31.73"/>
<polygon fill="#63b8ff" stroke="#63b8ff" points="1363.38,-31.81 1359.88,-21.81 1356.38,-31.81 1363.38,-31.81"/>
</a>
</g>
</g>
<!-- Node13&#45;&gt;Node11 -->
<g id="edge13_Node000013_Node000011" class="edge">
<title>Node13&#45;&gt;Node11</title>
<g id="a_edge13_Node000013_Node000011"><a xlink:title=" ">
<path fill="none" stroke="#63b8ff" d="M1418.51,-111.59C1408.23,-103.77 1393.36,-92.46 1381.16,-83.19"/>
<polygon fill="#63b8ff" stroke="#63b8ff" points="1383.38,-80.48 1373.31,-77.21 1379.15,-86.05 1383.38,-80.48"/>
</a>
</g>
</g>
<!-- Node15 -->
<g id="Node000015" class="node">
<title>Node15</title>
<g id="a_Node000015"><a xlink:title=" ">
<polygon fill="#e0e0e0" stroke="#999999" points="501,-132 428.75,-132 428.75,-112 501,-112 501,-132"/>
<text xml:space="preserve" text-anchor="middle" x="464.88" y="-118.5" font-family="Helvetica,sans-Serif" font-size="10.00">dpp/cluster.h</text>
</a>
</g>
</g>
<!-- Node14&#45;&gt;Node15 -->
<g id="edge15_Node000014_Node000015" class="edge">
<title>Node14&#45;&gt;Node15</title>
<g id="a_edge15_Node000014_Node000015"><a xlink:title=" ">
<path fill="none" stroke="#63b8ff" d="M641.6,-167.59C605.74,-158.55 551.38,-144.83 512.42,-135"/>
<polygon fill="#63b8ff" stroke="#63b8ff" points="513.39,-131.63 502.83,-132.58 511.67,-138.42 513.39,-131.63"/>
</a>
</g>
</g>
<!-- Node16 -->
<g id="Node000016" class="node">
<title>Node16</title>
<g id="a_Node000016"><a xlink:title=" ">
<polygon fill="#e0e0e0" stroke="#999999" points="410.88,-132 322.88,-132 322.88,-112 410.88,-112 410.88,-132"/>
<text xml:space="preserve" text-anchor="middle" x="366.88" y="-118.5" font-family="Helvetica,sans-Serif" font-size="10.00">dpp/dispatcher.h</text>
</a>
</g>
</g>
<!-- Node14&#45;&gt;Node16 -->
<g id="edge16_Node000014_Node000016" class="edge">
<title>Node14&#45;&gt;Node16</title>
<g id="a_edge16_Node000014_Node000016"><a xlink:title=" ">
<path fill="none" stroke="#63b8ff" d="M624.17,-167.53C567.44,-157.71 479.21,-142.44 422.23,-132.58"/>
<polygon fill="#63b8ff" stroke="#63b8ff" points="422.86,-129.14 412.41,-130.88 421.67,-136.04 422.86,-129.14"/>
</a>
</g>
</g>
<!-- Node17&#45;&gt;Node15 -->
<g id="edge18_Node000017_Node000015" class="edge">
<title>Node17&#45;&gt;Node15</title>
<g id="a_edge18_Node000017_Node000015"><a xlink:title=" ">
<path fill="none" stroke="#63b8ff" d="M424.41,-167.59C431.16,-160.16 440.76,-149.58 448.92,-140.58"/>
<polygon fill="#63b8ff" stroke="#63b8ff" points="451.29,-143.18 455.42,-133.42 446.11,-138.47 451.29,-143.18"/>
</a>
</g>
</g>
<!-- Node17&#45;&gt;Node16 -->
<g id="edge19_Node000017_Node000016" class="edge">
<title>Node17&#45;&gt;Node16</title>
<g id="a_edge19_Node000017_Node000016"><a xlink:title=" ">
<path fill="none" stroke="#63b8ff" d="M407.34,-167.59C400.59,-160.16 390.99,-149.58 382.83,-140.58"/>
<polygon fill="#63b8ff" stroke="#63b8ff" points="385.64,-138.47 376.33,-133.42 380.46,-143.18 385.64,-138.47"/>
</a>
</g>
</g>
<!-- Node18&#45;&gt;Node10 -->
<g id="edge24_Node000018_Node000010" class="edge">
<title>Node18&#45;&gt;Node10</title>
<g id="a_edge24_Node000018_Node000010"><a xlink:title=" ">
<path fill="none" stroke="#63b8ff" d="M1028.35,-167.59C1048.91,-158.99 1079.57,-146.15 1102.73,-136.46"/>
<polygon fill="#63b8ff" stroke="#63b8ff" points="1103.82,-139.79 1111.7,-132.7 1101.12,-133.34 1103.82,-139.79"/>
</a>
</g>
</g>
<!-- Node18&#45;&gt;Node15 -->
<g id="edge22_Node000018_Node000015" class="edge">
<title>Node18&#45;&gt;Node15</title>
<g id="a_edge22_Node000018_Node000015"><a xlink:title=" ">
<path fill="none" stroke="#63b8ff" d="M937.93,-168.88C935.21,-168.58 932.52,-168.28 929.88,-168 777.57,-151.61 596.9,-134.91 512.62,-127.28"/>
<polygon fill="#63b8ff" stroke="#63b8ff" points="513.16,-123.82 502.88,-126.4 512.53,-130.79 513.16,-123.82"/>
</a>
</g>
</g>
<!-- Node18&#45;&gt;Node16 -->
<g id="edge23_Node000018_Node000016" class="edge">
<title>Node18&#45;&gt;Node16</title>
<g id="a_edge23_Node000018_Node000016"><a xlink:title=" ">
<path fill="none" stroke="#63b8ff" d="M937.94,-168.79C935.22,-168.52 932.52,-168.25 929.88,-168 707.3,-146.98 647.41,-158.66 422.54,-132.21"/>
<polygon fill="#63b8ff" stroke="#63b8ff" points="423.21,-128.76 412.87,-131.06 422.38,-135.71 423.21,-128.76"/>
</a>
</g>
</g>
<!-- Node18&#45;&gt;Node19 -->
<g id="edge21_Node000018_Node000019" class="edge">
<title>Node18&#45;&gt;Node19</title>
<g id="a_edge21_Node000018_Node000019"><a xlink:title=" ">
<path fill="none" stroke="#63b8ff" d="M1013.02,-167.59C1018.48,-160.39 1026.2,-150.23 1032.88,-141.43"/>
<polygon fill="#63b8ff" stroke="#63b8ff" points="1035.64,-143.58 1038.9,-133.5 1030.07,-139.35 1035.64,-143.58"/>
</a>
</g>
</g>
<!-- Node20&#45;&gt;Node15 -->
<g id="edge26_Node000020_Node000015" class="edge">
<title>Node20&#45;&gt;Node15</title>
<g id="a_edge26_Node000020_Node000015"><a xlink:title=" ">
<path fill="none" stroke="#63b8ff" d="M531.77,-167.59C519.88,-159.67 502.61,-148.16 488.6,-138.82"/>
<polygon fill="#63b8ff" stroke="#63b8ff" points="490.62,-135.95 480.35,-133.32 486.73,-141.78 490.62,-135.95"/>
</a>
</g>
</g>
<!-- Node20&#45;&gt;Node16 -->
<g id="edge27_Node000020_Node000016" class="edge">
<title>Node20&#45;&gt;Node16</title>
<g id="a_edge27_Node000020_Node000016"><a xlink:title=" ">
<path fill="none" stroke="#63b8ff" d="M514.7,-167.59C485.49,-158.78 441.6,-145.54 409.22,-135.78"/>
<polygon fill="#63b8ff" stroke="#63b8ff" points="410.33,-132.45 399.75,-132.92 408.31,-139.16 410.33,-132.45"/>
</a>
</g>
</g>
<!-- Node21&#45;&gt;Node15 -->
<g id="edge29_Node000021_Node000015" class="edge">
<title>Node21&#45;&gt;Node15</title>
<g id="a_edge29_Node000021_Node000015"><a xlink:title=" ">
<path fill="none" stroke="#63b8ff" d="M247.16,-167.53C294.94,-157.76 369.12,-142.59 417.35,-132.72"/>
<polygon fill="#63b8ff" stroke="#63b8ff" points="417.84,-136.19 426.94,-130.76 416.44,-129.34 417.84,-136.19"/>
</a>
</g>
</g>
<!-- Node21&#45;&gt;Node16 -->
<g id="edge30_Node000021_Node000016" class="edge">
<title>Node21&#45;&gt;Node16</title>
<g id="a_edge30_Node000021_Node000016"><a xlink:title=" ">
<path fill="none" stroke="#63b8ff" d="M229.79,-167.59C256.64,-158.86 296.87,-145.77 326.81,-136.03"/>
<polygon fill="#63b8ff" stroke="#63b8ff" points="327.87,-139.37 336.3,-132.95 325.7,-132.71 327.87,-139.37"/>
</a>
</g>
</g>
<!-- Node22&#45;&gt;Node15 -->
<g id="edge32_Node000022_Node000015" class="edge">
<title>Node22&#45;&gt;Node15</title>
<g id="a_edge32_Node000022_Node000015"><a xlink:title=" ">
<path fill="none" stroke="#63b8ff" d="M121.96,-169.13C124.97,-168.75 127.96,-168.37 130.88,-168 255.65,-152.21 290.17,-152.67 417.22,-132.33"/>
<polygon fill="#63b8ff" stroke="#63b8ff" points="417.76,-135.79 427.07,-130.74 416.64,-128.88 417.76,-135.79"/>
</a>
</g>
</g>
<!-- Node22&#45;&gt;Node16 -->
<g id="edge33_Node000022_Node000016" class="edge">
<title>Node22&#45;&gt;Node16</title>
<g id="a_edge33_Node000022_Node000016"><a xlink:title=" ">
<path fill="none" stroke="#63b8ff" d="M114.53,-167.53C169.85,-157.77 255.71,-142.62 311.61,-132.75"/>
<polygon fill="#63b8ff" stroke="#63b8ff" points="311.99,-136.24 321.23,-131.05 310.77,-129.35 311.99,-136.24"/>
</a>
</g>
</g>
<!-- Node23&#45;&gt;Node15 -->
<g id="edge42_Node000023_Node000015" class="edge">
<title>Node23&#45;&gt;Node15</title>
<g id="a_edge42_Node000023_Node000015"><a xlink:title=" ">
<path fill="none" stroke="#63b8ff" d="M339.35,-167.59C363.72,-158.94 400.13,-146 427.46,-136.29"/>
<polygon fill="#63b8ff" stroke="#63b8ff" points="428.51,-139.63 436.77,-132.99 426.17,-133.04 428.51,-139.63"/>
</a>
</g>
</g>
<!-- Node23&#45;&gt;Node16 -->
<g id="edge43_Node000023_Node000016" class="edge">
<title>Node23&#45;&gt;Node16</title>
<g id="a_edge43_Node000023_Node000016"><a xlink:title=" ">
<path fill="none" stroke="#63b8ff" d="M322.28,-167.59C329.79,-160.08 340.52,-149.35 349.57,-140.3"/>
<polygon fill="#63b8ff" stroke="#63b8ff" points="351.91,-142.91 356.51,-133.37 346.96,-137.96 351.91,-142.91"/>
</a>
</g>
</g>
<!-- Node29 -->
<g id="Node000029" class="node">
<title>Node29</title>
<g id="a_Node000029"><a xlink:href="IRepository_8hpp.html" target="_top" xlink:title=" ">
<polygon fill="white" stroke="#666666" points="1671,-188 1586.75,-188 1586.75,-168 1671,-168 1671,-188"/>
<text xml:space="preserve" text-anchor="middle" x="1628.88" y="-174.5" font-family="Helvetica,sans-Serif" font-size="10.00">IRepository.hpp</text>
</a>
</g>
</g>
<!-- Node28&#45;&gt;Node29 -->
<g id="edge55_Node000028_Node000029" class="edge">
<title>Node28&#45;&gt;Node29</title>
<g id="a_edge55_Node000028_Node000029"><a xlink:title=" ">
<path fill="none" stroke="#63b8ff" d="M1628.05,-223.59C1628.17,-217.01 1628.34,-207.96 1628.49,-199.73"/>
<polygon fill="#63b8ff" stroke="#63b8ff" points="1631.99,-199.87 1628.67,-189.81 1624.99,-199.75 1631.99,-199.87"/>
</a>
</g>
</g>
<!-- Node28&#45;&gt;Node31 -->
<g id="edge57_Node000028_Node000031" class="edge">
<title>Node28&#45;&gt;Node31</title>
<g id="a_edge57_Node000028_Node000031"><a xlink:title=" ">
<path fill="none" stroke="#63b8ff" d="M1610.46,-223.59C1595.21,-215.36 1572.8,-203.26 1555.17,-193.74"/>
<polygon fill="#63b8ff" stroke="#63b8ff" points="1557.22,-190.87 1546.76,-189.2 1553.9,-197.03 1557.22,-190.87"/>
</a>
</g>
</g>
<!-- Node30 -->
<g id="Node000030" class="node">
<title>Node30</title>
<g id="a_Node000030"><a xlink:title=" ">
<polygon fill="#e0e0e0" stroke="#999999" points="1653,-132 1604.75,-132 1604.75,-112 1653,-112 1653,-132"/>
<text xml:space="preserve" text-anchor="middle" x="1628.88" y="-118.5" font-family="Helvetica,sans-Serif" font-size="10.00">cstddef</text>
</a>
</g>
</g>
<!-- Node29&#45;&gt;Node30 -->
<g id="edge56_Node000029_Node000030" class="edge">
<title>Node29&#45;&gt;Node30</title>
<g id="a_edge56_Node000029_Node000030"><a xlink:title=" ">
<path fill="none" stroke="#63b8ff" d="M1628.88,-167.59C1628.88,-161.01 1628.88,-151.96 1628.88,-143.73"/>
<polygon fill="#63b8ff" stroke="#63b8ff" points="1632.38,-143.81 1628.88,-133.81 1625.38,-143.81 1632.38,-143.81"/>
</a>
</g>
</g>
<!-- Node31&#45;&gt;Node9 -->
<g id="edge59_Node000031_Node000009" class="edge">
<title>Node31&#45;&gt;Node9</title>
<g id="a_edge59_Node000031_Node000009"><a xlink:title=" ">
<path fill="none" stroke="#63b8ff" d="M1492.93,-167.54C1462.56,-159.25 1417.12,-146.69 1369.08,-132.59"/>
<polygon fill="#63b8ff" stroke="#63b8ff" points="1370.17,-129.26 1359.59,-129.8 1368.19,-135.98 1370.17,-129.26"/>
</a>
</g>
</g>
<!-- Node31&#45;&gt;Node13 -->
<g id="edge58_Node000031_Node000013" class="edge">
<title>Node31&#45;&gt;Node13</title>
<g id="a_edge58_Node000031_Node000013"><a xlink:title=" ">
<path fill="none" stroke="#63b8ff" d="M1510.98,-167.59C1496.33,-159.44 1474.85,-147.48 1457.83,-138"/>
<polygon fill="#63b8ff" stroke="#63b8ff" points="1459.67,-135.02 1449.23,-133.22 1456.26,-141.14 1459.67,-135.02"/>
</a>
</g>
</g>
<!-- Node34&#45;&gt;Node10 -->
<g id="edge65_Node000034_Node000010" class="edge">
<title>Node34&#45;&gt;Node10</title>
<g id="a_edge65_Node000034_Node000010"><a xlink:title=" ">
<path fill="none" stroke="#63b8ff" d="M1287.96,-223.5C1259.73,-216.6 1224.65,-205.37 1196.88,-188 1177.32,-175.77 1159.67,-155.98 1148.25,-141.45"/>
<polygon fill="#63b8ff" stroke="#63b8ff" points="1151.13,-139.45 1142.3,-133.59 1145.55,-143.67 1151.13,-139.45"/>
</a>
</g>
</g>
<!-- Node34&#45;&gt;Node29 -->
<g id="edge69_Node000034_Node000029" class="edge">
<title>Node34&#45;&gt;Node29</title>
<g id="a_edge69_Node000034_Node000029"><a xlink:title=" ">
<path fill="none" stroke="#63b8ff" d="M1388.9,-223.53C1441.14,-213.84 1522,-198.83 1575.19,-188.96"/>
<polygon fill="#63b8ff" stroke="#63b8ff" points="1575.75,-192.42 1584.94,-187.15 1574.47,-185.54 1575.75,-192.42"/>
</a>
</g>
</g>
<!-- Node35 -->
<g id="Node000035" class="node">
<title>Node35</title>
<g id="a_Node000035"><a xlink:href="BlacklistDTO_8hpp.html" target="_top" xlink:title=" ">
<polygon fill="white" stroke="#666666" points="1469.5,-188 1376.25,-188 1376.25,-168 1469.5,-168 1469.5,-188"/>
<text xml:space="preserve" text-anchor="middle" x="1422.88" y="-174.5" font-family="Helvetica,sans-Serif" font-size="10.00">BlacklistDTO.hpp</text>
</a>
</g>
</g>
<!-- Node34&#45;&gt;Node35 -->
<g id="edge66_Node000034_Node000035" class="edge">
<title>Node34&#45;&gt;Node35</title>
<g id="a_edge66_Node000034_Node000035"><a xlink:title=" ">
<path fill="none" stroke="#63b8ff" d="M1352.68,-223.59C1365.28,-215.59 1383.63,-203.93 1398.41,-194.54"/>
<polygon fill="#63b8ff" stroke="#63b8ff" points="1400.11,-197.61 1406.68,-189.29 1396.36,-191.7 1400.11,-197.61"/>
</a>
</g>
</g>
<!-- Node35&#45;&gt;Node9 -->
<g id="edge68_Node000035_Node000009" class="edge">
<title>Node35&#45;&gt;Node9</title>
<g id="a_edge68_Node000035_Node000009"><a xlink:title=" ">
<path fill="none" stroke="#63b8ff" d="M1408.07,-167.59C1395.47,-159.59 1377.12,-147.93 1362.34,-138.54"/>
<polygon fill="#63b8ff" stroke="#63b8ff" points="1364.39,-135.7 1354.07,-133.29 1360.64,-141.61 1364.39,-135.7"/>
</a>
</g>
</g>
<!-- Node35&#45;&gt;Node13 -->
<g id="edge67_Node000035_Node000013" class="edge">
<title>Node35&#45;&gt;Node13</title>
<g id="a_edge67_Node000035_Node000013"><a xlink:title=" ">
<path fill="none" stroke="#63b8ff" d="M1424.27,-167.59C1425.26,-160.93 1426.62,-151.75 1427.85,-143.44"/>
<polygon fill="#63b8ff" stroke="#63b8ff" points="1431.27,-144.2 1429.28,-133.8 1424.35,-143.17 1431.27,-144.2"/>
</a>
</g>
</g>
</g>
</svg>
