<?xml version="1.0" encoding="UTF-8" standalone="no"?>
<!DOCTYPE svg PUBLIC "-//W3C//DTD SVG 1.1//EN"
 "http://www.w3.org/Graphics/SVG/1.1/DTD/svg11.dtd">
<!-- Generated by graphviz version 12.2.1 (0)
 -->
<!-- Title: src/bot_library/commands/portal/SetPortalCommand.cpp Pages: 1 -->
<svg width="1833pt" height="376pt"
 viewBox="0.00 0.00 1832.88 376.00" xmlns="http://www.w3.org/2000/svg" xmlns:xlink="http://www.w3.org/1999/xlink">
<g id="graph0" class="graph" transform="scale(1 1) rotate(0) translate(4 372)">
<title>src/bot_library/commands/portal/SetPortalCommand.cpp</title>
<!-- Node1 -->
<g id="Node000001" class="node">
<title>Node1</title>
<g id="a_Node000001"><a xlink:title=" ">
<polygon fill="#999999" stroke="#666666" points="1564.75,-368 1414.5,-368 1414.5,-336 1564.75,-336 1564.75,-368"/>
<text text-anchor="start" x="1422.5" y="-354.5" font-family="Helvetica,sans-Serif" font-size="10.00">src/bot_library/commands</text>
<text text-anchor="middle" x="1489.62" y="-342.5" font-family="Helvetica,sans-Serif" font-size="10.00">/portal/SetPortalCommand.cpp</text>
</a>
</g>
</g>
<!-- Node2 -->
<g id="Node000002" class="node">
<title>Node2</title>
<g id="a_Node000002"><a xlink:href="SetPortalCommand_8hpp.html" target="_top" xlink:title=" ">
<polygon fill="white" stroke="#666666" points="1505.75,-300 1385.5,-300 1385.5,-280 1505.75,-280 1505.75,-300"/>
<text text-anchor="middle" x="1445.62" y="-286.5" font-family="Helvetica,sans-Serif" font-size="10.00">SetPortalCommand.hpp</text>
</a>
</g>
</g>
<!-- Node1&#45;&gt;Node2 -->
<g id="edge1_Node000001_Node000002" class="edge">
<title>Node1&#45;&gt;Node2</title>
<g id="a_edge1_Node000001_Node000002"><a xlink:title=" ">
<path fill="none" stroke="#63b8ff" d="M1478.29,-335.55C1472.5,-327.65 1465.41,-317.97 1459.31,-309.66"/>
<polygon fill="#63b8ff" stroke="#63b8ff" points="1462.16,-307.62 1453.42,-301.63 1456.51,-311.76 1462.16,-307.62"/>
</a>
</g>
</g>
<!-- Node4 -->
<g id="Node000004" class="node">
<title>Node4</title>
<g id="a_Node000004"><a xlink:href="Core_8hpp.html" target="_top" xlink:title=" ">
<polygon fill="white" stroke="#666666" points="917.5,-188 861.75,-188 861.75,-168 917.5,-168 917.5,-188"/>
<text text-anchor="middle" x="889.62" y="-174.5" font-family="Helvetica,sans-Serif" font-size="10.00">Core.hpp</text>
</a>
</g>
</g>
<!-- Node1&#45;&gt;Node4 -->
<g id="edge54_Node000001_Node000004" class="edge">
<title>Node1&#45;&gt;Node4</title>
<g id="a_edge54_Node000001_Node000004"><a xlink:title=" ">
<path fill="none" stroke="#63b8ff" d="M1415.07,-335.54C1328.33,-316.86 1181.22,-283.04 1057.62,-244 1009.53,-228.81 955.36,-206.96 921.86,-192.87"/>
<polygon fill="#63b8ff" stroke="#63b8ff" points="923.29,-189.68 912.72,-189 920.56,-196.13 923.29,-189.68"/>
</a>
</g>
</g>
<!-- Node20 -->
<g id="Node000020" class="node">
<title>Node20</title>
<g id="a_Node000020"><a xlink:title=" ">
<polygon fill="#e0e0e0" stroke="#999999" points="1537,-76 1454.25,-76 1454.25,-56 1537,-56 1537,-76"/>
<text text-anchor="middle" x="1495.62" y="-62.5" font-family="Helvetica,sans-Serif" font-size="10.00">appcommand.h</text>
</a>
</g>
</g>
<!-- Node1&#45;&gt;Node20 -->
<g id="edge50_Node000001_Node000020" class="edge">
<title>Node1&#45;&gt;Node20</title>
<g id="a_edge50_Node000001_Node000020"><a xlink:title=" ">
<path fill="none" stroke="#63b8ff" d="M1503.71,-335.73C1512.21,-325.99 1522.87,-312.83 1530.62,-300 1572.73,-230.32 1587.06,-211.71 1603.62,-132 1605.43,-123.3 1608.56,-119.4 1603.62,-112 1591.16,-93.3 1569.3,-82.36 1548.5,-75.97"/>
<polygon fill="#63b8ff" stroke="#63b8ff" points="1549.47,-72.6 1538.9,-73.34 1547.62,-79.36 1549.47,-72.6"/>
</a>
</g>
</g>
<!-- Node22 -->
<g id="Node000022" class="node">
<title>Node22</title>
<g id="a_Node000022"><a xlink:href="IMessageCommand_8hpp.html" target="_top" xlink:title=" ">
<polygon fill="white" stroke="#666666" points="1594.88,-132 1472.38,-132 1472.38,-112 1594.88,-112 1594.88,-132"/>
<text text-anchor="middle" x="1533.62" y="-118.5" font-family="Helvetica,sans-Serif" font-size="10.00">IMessageCommand.hpp</text>
</a>
</g>
</g>
<!-- Node1&#45;&gt;Node22 -->
<g id="edge61_Node000001_Node000022" class="edge">
<title>Node1&#45;&gt;Node22</title>
<g id="a_edge61_Node000001_Node000022"><a xlink:title=" ">
<path fill="none" stroke="#63b8ff" d="M1498.75,-335.94C1504.28,-326.07 1510.96,-312.69 1514.62,-300 1530.46,-245.22 1533.34,-177.46 1533.71,-143.89"/>
<polygon fill="#63b8ff" stroke="#63b8ff" points="1537.21,-143.96 1533.75,-133.95 1530.21,-143.93 1537.21,-143.96"/>
</a>
</g>
</g>
<!-- Node27 -->
<g id="Node000027" class="node">
<title>Node27</title>
<g id="a_Node000027"><a xlink:title=" ">
<polygon fill="#e0e0e0" stroke="#999999" points="1656.88,-300 1606.38,-300 1606.38,-280 1656.88,-280 1656.88,-300"/>
<text text-anchor="middle" x="1631.62" y="-286.5" font-family="Helvetica,sans-Serif" font-size="10.00">colors.h</text>
</a>
</g>
</g>
<!-- Node1&#45;&gt;Node27 -->
<g id="edge51_Node000001_Node000027" class="edge">
<title>Node1&#45;&gt;Node27</title>
<g id="a_edge51_Node000001_Node000027"><a xlink:title=" ">
<path fill="none" stroke="#63b8ff" d="M1526.19,-335.55C1548.69,-326.04 1577.27,-313.97 1599,-304.79"/>
<polygon fill="#63b8ff" stroke="#63b8ff" points="1600.12,-308.11 1607.97,-301 1597.39,-301.67 1600.12,-308.11"/>
</a>
</g>
</g>
<!-- Node28 -->
<g id="Node000028" class="node">
<title>Node28</title>
<g id="a_Node000028"><a xlink:title=" ">
<polygon fill="#e0e0e0" stroke="#999999" points="1738.62,-300 1674.62,-300 1674.62,-280 1738.62,-280 1738.62,-300"/>
<text text-anchor="middle" x="1706.62" y="-286.5" font-family="Helvetica,sans-Serif" font-size="10.00">message.h</text>
</a>
</g>
</g>
<!-- Node1&#45;&gt;Node28 -->
<g id="edge52_Node000001_Node000028" class="edge">
<title>Node1&#45;&gt;Node28</title>
<g id="a_edge52_Node000001_Node000028"><a xlink:title=" ">
<path fill="none" stroke="#63b8ff" d="M1545.51,-335.55C1582.18,-325.41 1629.42,-312.35 1663.26,-302.99"/>
<polygon fill="#63b8ff" stroke="#63b8ff" points="1664.02,-306.41 1672.72,-300.37 1662.15,-299.67 1664.02,-306.41"/>
</a>
</g>
</g>
<!-- Node29 -->
<g id="Node000029" class="node">
<title>Node29</title>
<g id="a_Node000029"><a xlink:title=" ">
<polygon fill="#e0e0e0" stroke="#999999" points="1824.88,-300 1756.38,-300 1756.38,-280 1824.88,-280 1824.88,-300"/>
<text text-anchor="middle" x="1790.62" y="-286.5" font-family="Helvetica,sans-Serif" font-size="10.00">snowflake.h</text>
</a>
</g>
</g>
<!-- Node1&#45;&gt;Node29 -->
<g id="edge53_Node000001_Node000029" class="edge">
<title>Node1&#45;&gt;Node29</title>
<g id="a_edge53_Node000001_Node000029"><a xlink:title=" ">
<path fill="none" stroke="#63b8ff" d="M1565.03,-336.33C1613.78,-326.78 1678.91,-313.94 1744.88,-300.54"/>
<polygon fill="#63b8ff" stroke="#63b8ff" points="1745.31,-304.03 1754.41,-298.6 1743.92,-297.17 1745.31,-304.03"/>
</a>
</g>
</g>
<!-- Node30 -->
<g id="Node000030" class="node">
<title>Node30</title>
<g id="a_Node000030"><a xlink:href="PortalRepository_8hpp.html" target="_top" xlink:title=" ">
<polygon fill="white" stroke="#666666" points="149,-188 42.25,-188 42.25,-168 149,-168 149,-188"/>
<text text-anchor="middle" x="95.62" y="-174.5" font-family="Helvetica,sans-Serif" font-size="10.00">PortalRepository.hpp</text>
</a>
</g>
</g>
<!-- Node1&#45;&gt;Node30 -->
<g id="edge55_Node000001_Node000030" class="edge">
<title>Node1&#45;&gt;Node30</title>
<g id="a_edge55_Node000001_Node000030"><a xlink:title=" ">
<path fill="none" stroke="#63b8ff" d="M1414.27,-343.85C1317.83,-334.55 1145.65,-317.42 998.62,-300 627.92,-256.07 532.99,-240.29 160.76,-188.43"/>
<polygon fill="#63b8ff" stroke="#63b8ff" points="161.27,-184.97 150.89,-187.05 160.31,-191.9 161.27,-184.97"/>
</a>
</g>
</g>
<!-- Node32 -->
<g id="Node000032" class="node">
<title>Node32</title>
<g id="a_Node000032"><a xlink:href="PortalDTO_8hpp.html" target="_top" xlink:title=" ">
<polygon fill="white" stroke="#666666" points="81.25,-132 0,-132 0,-112 81.25,-112 81.25,-132"/>
<text text-anchor="middle" x="40.62" y="-118.5" font-family="Helvetica,sans-Serif" font-size="10.00">PortalDTO.hpp</text>
</a>
</g>
</g>
<!-- Node1&#45;&gt;Node32 -->
<g id="edge67_Node000001_Node000032" class="edge">
<title>Node1&#45;&gt;Node32</title>
<g id="a_edge67_Node000001_Node000032"><a xlink:title=" ">
<path fill="none" stroke="#63b8ff" d="M1414.09,-346.46C1292.34,-338.84 1045.26,-322.11 836.62,-300 650.23,-280.25 604.26,-269.93 418.62,-244 247.38,-220.08 146.75,-318.77 33.62,-188 23.07,-175.79 26.4,-157.1 31.44,-142.88"/>
<polygon fill="#63b8ff" stroke="#63b8ff" points="34.68,-144.22 35.25,-133.64 28.21,-141.55 34.68,-144.22"/>
</a>
</g>
</g>
<!-- Node33 -->
<g id="Node000033" class="node">
<title>Node33</title>
<g id="a_Node000033"><a xlink:href="BlacklistRepository_8hpp.html" target="_top" xlink:title=" ">
<polygon fill="white" stroke="#666666" points="338.62,-188 166.62,-188 166.62,-168 338.62,-168 338.62,-188"/>
<text text-anchor="middle" x="252.62" y="-174.5" font-family="Helvetica,sans-Serif" font-size="10.00">repositories/BlacklistRepository.hpp</text>
</a>
</g>
</g>
<!-- Node1&#45;&gt;Node33 -->
<g id="edge62_Node000001_Node000033" class="edge">
<title>Node1&#45;&gt;Node33</title>
<g id="a_edge62_Node000001_Node000033"><a xlink:title=" ">
<path fill="none" stroke="#63b8ff" d="M1414.11,-340.5C1194.34,-309.94 556.51,-221.25 331.97,-190.03"/>
<polygon fill="#63b8ff" stroke="#63b8ff" points="332.52,-186.58 322.13,-188.66 331.56,-193.51 332.52,-186.58"/>
</a>
</g>
</g>
<!-- Node3 -->
<g id="Node000003" class="node">
<title>Node3</title>
<g id="a_Node000003"><a xlink:href="Bot_8hpp.html" target="_top" xlink:title=" ">
<polygon fill="white" stroke="#666666" points="1116.5,-244 1066.75,-244 1066.75,-224 1116.5,-224 1116.5,-244"/>
<text text-anchor="middle" x="1091.62" y="-230.5" font-family="Helvetica,sans-Serif" font-size="10.00">Bot.hpp</text>
</a>
</g>
</g>
<!-- Node2&#45;&gt;Node3 -->
<g id="edge2_Node000002_Node000003" class="edge">
<title>Node2&#45;&gt;Node3</title>
<g id="a_edge2_Node000002_Node000003"><a xlink:title=" ">
<path fill="none" stroke="#63b8ff" d="M1385.17,-279.78C1311.3,-268.51 1188.69,-249.81 1127.98,-240.55"/>
<polygon fill="#63b8ff" stroke="#63b8ff" points="1128.61,-237.1 1118.19,-239.05 1127.55,-244.02 1128.61,-237.1"/>
</a>
</g>
</g>
<!-- Node2&#45;&gt;Node22 -->
<g id="edge49_Node000002_Node000022" class="edge">
<title>Node2&#45;&gt;Node22</title>
<g id="a_edge49_Node000002_Node000022"><a xlink:title=" ">
<path fill="none" stroke="#63b8ff" d="M1450.61,-279.6C1464.58,-253.23 1504.37,-178.19 1523.33,-142.42"/>
<polygon fill="#63b8ff" stroke="#63b8ff" points="1526.4,-144.11 1527.99,-133.63 1520.21,-140.83 1526.4,-144.11"/>
</a>
</g>
</g>
<!-- Node3&#45;&gt;Node4 -->
<g id="edge3_Node000003_Node000004" class="edge">
<title>Node3&#45;&gt;Node4</title>
<g id="a_edge3_Node000003_Node000004"><a xlink:title=" ">
<path fill="none" stroke="#63b8ff" d="M1066.45,-226.27C1031.92,-217.04 969.51,-200.35 928.83,-189.48"/>
<polygon fill="#63b8ff" stroke="#63b8ff" points="929.74,-186.1 919.18,-186.9 927.94,-192.86 929.74,-186.1"/>
</a>
</g>
</g>
<!-- Node11 -->
<g id="Node000011" class="node">
<title>Node11</title>
<g id="a_Node000011"><a xlink:title=" ">
<polygon fill="#e0e0e0" stroke="#999999" points="342.62,-76 302.62,-76 302.62,-56 342.62,-56 342.62,-76"/>
<text text-anchor="middle" x="322.62" y="-62.5" font-family="Helvetica,sans-Serif" font-size="10.00">string</text>
</a>
</g>
</g>
<!-- Node3&#45;&gt;Node11 -->
<g id="edge47_Node000003_Node000011" class="edge">
<title>Node3&#45;&gt;Node11</title>
<g id="a_edge47_Node000003_Node000011"><a xlink:title=" ">
<path fill="none" stroke="#63b8ff" d="M1066.45,-232.76C950.45,-231.19 468.2,-219.41 351.62,-132 337.41,-121.34 330.02,-102.16 326.27,-87.39"/>
<polygon fill="#63b8ff" stroke="#63b8ff" points="329.72,-86.83 324.22,-77.78 322.88,-88.29 329.72,-86.83"/>
</a>
</g>
</g>
<!-- Node13 -->
<g id="Node000013" class="node">
<title>Node13</title>
<g id="a_Node000013"><a xlink:title=" ">
<polygon fill="#e0e0e0" stroke="#999999" points="700.12,-76 657.12,-76 657.12,-56 700.12,-56 700.12,-76"/>
<text text-anchor="middle" x="678.62" y="-62.5" font-family="Helvetica,sans-Serif" font-size="10.00">vector</text>
</a>
</g>
</g>
<!-- Node3&#45;&gt;Node13 -->
<g id="edge48_Node000003_Node000013" class="edge">
<title>Node3&#45;&gt;Node13</title>
<g id="a_edge48_Node000003_Node000013"><a xlink:title=" ">
<path fill="none" stroke="#63b8ff" d="M1066.37,-230.05C987.68,-220.33 749.12,-186.81 697.62,-132 686.29,-119.94 681.68,-101.49 679.82,-87.32"/>
<polygon fill="#63b8ff" stroke="#63b8ff" points="683.34,-87.39 678.94,-77.75 676.37,-88.03 683.34,-87.39"/>
</a>
</g>
</g>
<!-- Node15 -->
<g id="Node000015" class="node">
<title>Node15</title>
<g id="a_Node000015"><a xlink:href="IButtonCommand_8hpp.html" target="_top" xlink:title=" ">
<polygon fill="white" stroke="#666666" points="1371.25,-132 1260,-132 1260,-112 1371.25,-112 1371.25,-132"/>
<text text-anchor="middle" x="1315.62" y="-118.5" font-family="Helvetica,sans-Serif" font-size="10.00">IButtonCommand.hpp</text>
</a>
</g>
</g>
<!-- Node3&#45;&gt;Node15 -->
<g id="edge36_Node000003_Node000015" class="edge">
<title>Node3&#45;&gt;Node15</title>
<g id="a_edge36_Node000003_Node000015"><a xlink:title=" ">
<path fill="none" stroke="#63b8ff" d="M1103.28,-223.5C1120.6,-209.77 1154.52,-184.22 1186.62,-168 1213.18,-154.58 1244.68,-143.51 1269.91,-135.71"/>
<polygon fill="#63b8ff" stroke="#63b8ff" points="1270.65,-139.14 1279.21,-132.9 1268.63,-132.44 1270.65,-139.14"/>
</a>
</g>
</g>
<!-- Node18 -->
<g id="Node000018" class="node">
<title>Node18</title>
<g id="a_Node000018"><a xlink:href="IFormCommand_8hpp.html" target="_top" xlink:title=" ">
<polygon fill="white" stroke="#666666" points="812.25,-132 707,-132 707,-112 812.25,-112 812.25,-132"/>
<text text-anchor="middle" x="759.62" y="-118.5" font-family="Helvetica,sans-Serif" font-size="10.00">IFormCommand.hpp</text>
</a>
</g>
</g>
<!-- Node3&#45;&gt;Node18 -->
<g id="edge37_Node000003_Node000018" class="edge">
<title>Node3&#45;&gt;Node18</title>
<g id="a_edge37_Node000003_Node000018"><a xlink:title=" ">
<path fill="none" stroke="#63b8ff" d="M1078.44,-223.53C1054.49,-206.4 1005.48,-171.68 996.62,-168 980.82,-161.43 888.6,-144.91 823.97,-133.82"/>
<polygon fill="#63b8ff" stroke="#63b8ff" points="824.59,-130.37 814.15,-132.14 823.41,-137.27 824.59,-130.37"/>
</a>
</g>
</g>
<!-- Node19 -->
<g id="Node000019" class="node">
<title>Node19</title>
<g id="a_Node000019"><a xlink:href="IGlobalSlashCommand_8hpp.html" target="_top" xlink:title=" ">
<polygon fill="white" stroke="#666666" points="1242.25,-132 1107,-132 1107,-112 1242.25,-112 1242.25,-132"/>
<text text-anchor="middle" x="1174.62" y="-118.5" font-family="Helvetica,sans-Serif" font-size="10.00">IGlobalSlashCommand.hpp</text>
</a>
</g>
</g>
<!-- Node3&#45;&gt;Node19 -->
<g id="edge38_Node000003_Node000019" class="edge">
<title>Node3&#45;&gt;Node19</title>
<g id="a_edge38_Node000003_Node000019"><a xlink:title=" ">
<path fill="none" stroke="#63b8ff" d="M1098.7,-223.62C1112.42,-205.44 1142.86,-165.09 1160.75,-141.38"/>
<polygon fill="#63b8ff" stroke="#63b8ff" points="1163.43,-143.65 1166.65,-133.56 1157.84,-139.44 1163.43,-143.65"/>
</a>
</g>
</g>
<!-- Node21 -->
<g id="Node000021" class="node">
<title>Node21</title>
<g id="a_Node000021"><a xlink:href="IMemberCommand_8hpp.html" target="_top" xlink:title=" ">
<polygon fill="white" stroke="#666666" points="948.62,-132 830.62,-132 830.62,-112 948.62,-112 948.62,-132"/>
<text text-anchor="middle" x="889.62" y="-118.5" font-family="Helvetica,sans-Serif" font-size="10.00">IMemberCommand.hpp</text>
</a>
</g>
</g>
<!-- Node3&#45;&gt;Node21 -->
<g id="edge39_Node000003_Node000021" class="edge">
<title>Node3&#45;&gt;Node21</title>
<g id="a_edge39_Node000003_Node000021"><a xlink:title=" ">
<path fill="none" stroke="#63b8ff" d="M1085.11,-223.63C1074.86,-209.57 1053.67,-183.08 1029.62,-168 1005.4,-152.81 975.57,-142.3 949.69,-135.28"/>
<polygon fill="#63b8ff" stroke="#63b8ff" points="950.88,-131.97 940.33,-132.86 949.13,-138.75 950.88,-131.97"/>
</a>
</g>
</g>
<!-- Node3&#45;&gt;Node22 -->
<g id="edge40_Node000003_Node000022" class="edge">
<title>Node3&#45;&gt;Node22</title>
<g id="a_edge40_Node000003_Node000022"><a xlink:title=" ">
<path fill="none" stroke="#63b8ff" d="M1116.73,-227.17C1152.97,-218.73 1222.02,-202.5 1280.62,-188 1352.66,-170.17 1435.97,-148.58 1486.71,-135.32"/>
<polygon fill="#63b8ff" stroke="#63b8ff" points="1487.39,-138.76 1496.18,-132.84 1485.62,-131.99 1487.39,-138.76"/>
</a>
</g>
</g>
<!-- Node23 -->
<g id="Node000023" class="node">
<title>Node23</title>
<g id="a_Node000023"><a xlink:href="IReactionCommand_8hpp.html" target="_top" xlink:title=" ">
<polygon fill="white" stroke="#666666" points="1088.5,-132 966.75,-132 966.75,-112 1088.5,-112 1088.5,-132"/>
<text text-anchor="middle" x="1027.62" y="-118.5" font-family="Helvetica,sans-Serif" font-size="10.00">IReactionCommand.hpp</text>
</a>
</g>
</g>
<!-- Node3&#45;&gt;Node23 -->
<g id="edge41_Node000003_Node000023" class="edge">
<title>Node3&#45;&gt;Node23</title>
<g id="a_edge41_Node000003_Node000023"><a xlink:title=" ">
<path fill="none" stroke="#63b8ff" d="M1089.37,-223.69C1085.94,-210.62 1078.64,-186.36 1067.62,-168 1061.69,-158.1 1053.43,-148.37 1045.96,-140.5"/>
<polygon fill="#63b8ff" stroke="#63b8ff" points="1048.61,-138.21 1039.09,-133.57 1043.64,-143.14 1048.61,-138.21"/>
</a>
</g>
</g>
<!-- Node24 -->
<g id="Node000024" class="node">
<title>Node24</title>
<g id="a_Node000024"><a xlink:href="IReady_8hpp.html" target="_top" xlink:title=" ">
<polygon fill="white" stroke="#666666" points="1454.38,-132 1388.88,-132 1388.88,-112 1454.38,-112 1454.38,-132"/>
<text text-anchor="middle" x="1421.62" y="-118.5" font-family="Helvetica,sans-Serif" font-size="10.00">IReady.hpp</text>
</a>
</g>
</g>
<!-- Node3&#45;&gt;Node24 -->
<g id="edge42_Node000003_Node000024" class="edge">
<title>Node3&#45;&gt;Node24</title>
<g id="a_edge42_Node000003_Node000024"><a xlink:title=" ">
<path fill="none" stroke="#63b8ff" d="M1116.96,-225.61C1146.35,-216.96 1196.18,-202.03 1238.62,-188 1289.98,-171.03 1348.82,-149.81 1385.61,-136.32"/>
<polygon fill="#63b8ff" stroke="#63b8ff" points="1386.69,-139.66 1394.87,-132.92 1384.27,-133.09 1386.69,-139.66"/>
</a>
</g>
</g>
<!-- Node25 -->
<g id="Node000025" class="node">
<title>Node25</title>
<g id="a_Node000025"><a xlink:title=" ">
<polygon fill="#e0e0e0" stroke="#999999" points="1230,-188 1195.25,-188 1195.25,-168 1230,-168 1230,-188"/>
<text text-anchor="middle" x="1212.62" y="-174.5" font-family="Helvetica,sans-Serif" font-size="10.00">map</text>
</a>
</g>
</g>
<!-- Node3&#45;&gt;Node25 -->
<g id="edge45_Node000003_Node000025" class="edge">
<title>Node3&#45;&gt;Node25</title>
<g id="a_edge45_Node000003_Node000025"><a xlink:title=" ">
<path fill="none" stroke="#63b8ff" d="M1112.7,-223.59C1132.63,-214.7 1162.66,-201.3 1184.6,-191.51"/>
<polygon fill="#63b8ff" stroke="#63b8ff" points="1185.85,-194.78 1193.55,-187.51 1182.99,-188.39 1185.85,-194.78"/>
</a>
</g>
</g>
<!-- Node26 -->
<g id="Node000026" class="node">
<title>Node26</title>
<g id="a_Node000026"><a xlink:title=" ">
<polygon fill="#e0e0e0" stroke="#999999" points="987.25,-188 936,-188 936,-168 987.25,-168 987.25,-188"/>
<text text-anchor="middle" x="961.62" y="-174.5" font-family="Helvetica,sans-Serif" font-size="10.00">memory</text>
</a>
</g>
</g>
<!-- Node3&#45;&gt;Node26 -->
<g id="edge46_Node000003_Node000026" class="edge">
<title>Node3&#45;&gt;Node26</title>
<g id="a_edge46_Node000003_Node000026"><a xlink:title=" ">
<path fill="none" stroke="#63b8ff" d="M1068.98,-223.59C1048.51,-215.09 1018.11,-202.46 994.88,-192.81"/>
<polygon fill="#63b8ff" stroke="#63b8ff" points="996.42,-189.66 985.84,-189.06 993.74,-196.13 996.42,-189.66"/>
</a>
</g>
</g>
<!-- Node5 -->
<g id="Node000005" class="node">
<title>Node5</title>
<g id="a_Node000005"><a xlink:title=" ">
<polygon fill="#e0e0e0" stroke="#999999" points="447,-132 388.25,-132 388.25,-112 447,-112 447,-132"/>
<text text-anchor="middle" x="417.62" y="-118.5" font-family="Helvetica,sans-Serif" font-size="10.00">dpp/dpp.h</text>
</a>
</g>
</g>
<!-- Node4&#45;&gt;Node5 -->
<g id="edge4_Node000004_Node000005" class="edge">
<title>Node4&#45;&gt;Node5</title>
<g id="a_edge4_Node000004_Node000005"><a xlink:title=" ">
<path fill="none" stroke="#63b8ff" d="M861.27,-175.33C793.38,-171.07 616,-158.35 458.71,-132.34"/>
<polygon fill="#63b8ff" stroke="#63b8ff" points="459.36,-128.9 448.91,-130.69 458.2,-135.8 459.36,-128.9"/>
</a>
</g>
</g>
<!-- Node6 -->
<g id="Node000006" class="node">
<title>Node6</title>
<g id="a_Node000006"><a xlink:title=" ">
<polygon fill="#e0e0e0" stroke="#999999" points="556.12,-132 465.12,-132 465.12,-112 556.12,-112 556.12,-132"/>
<text text-anchor="middle" x="510.62" y="-118.5" font-family="Helvetica,sans-Serif" font-size="10.00">dpp/misc&#45;enum.h</text>
</a>
</g>
</g>
<!-- Node4&#45;&gt;Node6 -->
<g id="edge5_Node000004_Node000006" class="edge">
<title>Node4&#45;&gt;Node6</title>
<g id="a_edge5_Node000004_Node000006"><a xlink:title=" ">
<path fill="none" stroke="#63b8ff" d="M861.42,-173.32C806.89,-166.14 682.91,-149.59 567.65,-132.27"/>
<polygon fill="#63b8ff" stroke="#63b8ff" points="568.43,-128.85 558.02,-130.82 567.39,-135.78 568.43,-128.85"/>
</a>
</g>
</g>
<!-- Node7 -->
<g id="Node000007" class="node">
<title>Node7</title>
<g id="a_Node000007"><a xlink:href="Database_8hpp.html" target="_top" xlink:title=" ">
<polygon fill="white" stroke="#666666" points="651,-132 574.25,-132 574.25,-112 651,-112 651,-132"/>
<text text-anchor="middle" x="612.62" y="-118.5" font-family="Helvetica,sans-Serif" font-size="10.00">Database.hpp</text>
</a>
</g>
</g>
<!-- Node4&#45;&gt;Node7 -->
<g id="edge6_Node000004_Node000007" class="edge">
<title>Node4&#45;&gt;Node7</title>
<g id="a_edge6_Node000004_Node000007"><a xlink:title=" ">
<path fill="none" stroke="#63b8ff" d="M861.28,-171.47C814.49,-162.35 720.48,-144.03 662.41,-132.7"/>
<polygon fill="#63b8ff" stroke="#63b8ff" points="663.26,-129.31 652.78,-130.83 661.93,-136.18 663.26,-129.31"/>
</a>
</g>
</g>
<!-- Node4&#45;&gt;Node11 -->
<g id="edge35_Node000004_Node000011" class="edge">
<title>Node4&#45;&gt;Node11</title>
<g id="a_edge35_Node000004_Node000011"><a xlink:title=" ">
<path fill="none" stroke="#63b8ff" d="M861.46,-177.23C767.34,-177.59 464.94,-175.28 379.62,-132 359.4,-121.74 343.19,-100.94 333.3,-85.62"/>
<polygon fill="#63b8ff" stroke="#63b8ff" points="336.47,-84.1 328.28,-77.38 330.49,-87.74 336.47,-84.1"/>
</a>
</g>
</g>
<!-- Node4&#45;&gt;Node15 -->
<g id="edge15_Node000004_Node000015" class="edge">
<title>Node4&#45;&gt;Node15</title>
<g id="a_edge15_Node000004_Node000015"><a xlink:title=" ">
<path fill="none" stroke="#63b8ff" d="M917.83,-169.75C920.79,-169.1 923.76,-168.5 926.62,-168 1066.11,-143.41 1105.45,-149.77 1248.4,-132.36"/>
<polygon fill="#63b8ff" stroke="#63b8ff" points="1248.79,-135.84 1258.29,-131.14 1247.93,-128.89 1248.79,-135.84"/>
</a>
</g>
</g>
<!-- Node4&#45;&gt;Node18 -->
<g id="edge18_Node000004_Node000018" class="edge">
<title>Node4&#45;&gt;Node18</title>
<g id="a_edge18_Node000004_Node000018"><a xlink:title=" ">
<path fill="none" stroke="#63b8ff" d="M866.98,-167.59C846.51,-159.09 816.11,-146.46 792.88,-136.81"/>
<polygon fill="#63b8ff" stroke="#63b8ff" points="794.42,-133.66 783.84,-133.06 791.74,-140.13 794.42,-133.66"/>
</a>
</g>
</g>
<!-- Node4&#45;&gt;Node19 -->
<g id="edge21_Node000004_Node000019" class="edge">
<title>Node4&#45;&gt;Node19</title>
<g id="a_edge21_Node000004_Node000019"><a xlink:title=" ">
<path fill="none" stroke="#63b8ff" d="M917.87,-169.95C920.82,-169.27 923.78,-168.6 926.62,-168 986.79,-155.24 1055.65,-142.92 1105.51,-134.41"/>
<polygon fill="#63b8ff" stroke="#63b8ff" points="1106.04,-137.87 1115.32,-132.75 1104.87,-130.97 1106.04,-137.87"/>
</a>
</g>
</g>
<!-- Node4&#45;&gt;Node21 -->
<g id="edge26_Node000004_Node000021" class="edge">
<title>Node4&#45;&gt;Node21</title>
<g id="a_edge26_Node000004_Node000021"><a xlink:title=" ">
<path fill="none" stroke="#63b8ff" d="M889.62,-167.59C889.62,-161.01 889.62,-151.96 889.62,-143.73"/>
<polygon fill="#63b8ff" stroke="#63b8ff" points="893.13,-143.81 889.63,-133.81 886.13,-143.81 893.13,-143.81"/>
</a>
</g>
</g>
<!-- Node4&#45;&gt;Node22 -->
<g id="edge29_Node000004_Node000022" class="edge">
<title>Node4&#45;&gt;Node22</title>
<g id="a_edge29_Node000004_Node000022"><a xlink:title=" ">
<path fill="none" stroke="#63b8ff" d="M917.81,-169.62C920.77,-169 923.75,-168.44 926.62,-168 1159.35,-132.17 1223.56,-154.54 1460.76,-132.21"/>
<polygon fill="#63b8ff" stroke="#63b8ff" points="1461.06,-135.7 1470.68,-131.26 1460.39,-128.73 1461.06,-135.7"/>
</a>
</g>
</g>
<!-- Node4&#45;&gt;Node23 -->
<g id="edge32_Node000004_Node000023" class="edge">
<title>Node4&#45;&gt;Node23</title>
<g id="a_edge32_Node000004_Node000023"><a xlink:title=" ">
<path fill="none" stroke="#63b8ff" d="M913.66,-167.59C935.59,-159.01 968.25,-146.23 993,-136.55"/>
<polygon fill="#63b8ff" stroke="#63b8ff" points="993.95,-139.93 1001.99,-133.03 991.4,-133.42 993.95,-139.93"/>
</a>
</g>
</g>
<!-- Node8 -->
<g id="Node000008" class="node">
<title>Node8</title>
<g id="a_Node000008"><a xlink:title=" ">
<polygon fill="#e0e0e0" stroke="#999999" points="424.75,-76 376.5,-76 376.5,-56 424.75,-56 424.75,-76"/>
<text text-anchor="middle" x="400.62" y="-62.5" font-family="Helvetica,sans-Serif" font-size="10.00">cstddef</text>
</a>
</g>
</g>
<!-- Node7&#45;&gt;Node8 -->
<g id="edge7_Node000007_Node000008" class="edge">
<title>Node7&#45;&gt;Node8</title>
<g id="a_edge7_Node000007_Node000008"><a xlink:title=" ">
<path fill="none" stroke="#63b8ff" d="M575.7,-111.59C536.4,-101.58 474.65,-85.86 435.97,-76"/>
<polygon fill="#63b8ff" stroke="#63b8ff" points="437.25,-72.72 426.7,-73.64 435.52,-79.5 437.25,-72.72"/>
</a>
</g>
</g>
<!-- Node9 -->
<g id="Node000009" class="node">
<title>Node9</title>
<g id="a_Node000009"><a xlink:title=" ">
<polygon fill="#e0e0e0" stroke="#999999" points="574.38,-76 520.88,-76 520.88,-56 574.38,-56 574.38,-76"/>
<text text-anchor="middle" x="547.62" y="-62.5" font-family="Helvetica,sans-Serif" font-size="10.00">iostream</text>
</a>
</g>
</g>
<!-- Node7&#45;&gt;Node9 -->
<g id="edge8_Node000007_Node000009" class="edge">
<title>Node7&#45;&gt;Node9</title>
<g id="a_edge8_Node000007_Node000009"><a xlink:title=" ">
<path fill="none" stroke="#63b8ff" d="M601.3,-111.59C591.98,-103.85 578.55,-92.69 567.45,-83.47"/>
<polygon fill="#63b8ff" stroke="#63b8ff" points="569.91,-80.96 559.98,-77.27 565.44,-86.35 569.91,-80.96"/>
</a>
</g>
</g>
<!-- Node10 -->
<g id="Node000010" class="node">
<title>Node10</title>
<g id="a_Node000010"><a xlink:title=" ">
<polygon fill="#e0e0e0" stroke="#999999" points="348.12,-20 287.12,-20 287.12,0 348.12,0 348.12,-20"/>
<text text-anchor="middle" x="317.62" y="-6.5" font-family="Helvetica,sans-Serif" font-size="10.00">pqxx/pqxx</text>
</a>
</g>
</g>
<!-- Node7&#45;&gt;Node10 -->
<g id="edge9_Node000007_Node000010" class="edge">
<title>Node7&#45;&gt;Node10</title>
<g id="a_edge9_Node000007_Node000010"><a xlink:title=" ">
<path fill="none" stroke="#63b8ff" d="M587.22,-111.53C534.72,-91.95 414.15,-46.99 353.64,-24.43"/>
<polygon fill="#63b8ff" stroke="#63b8ff" points="355.09,-21.23 344.49,-21.02 352.64,-27.79 355.09,-21.23"/>
</a>
</g>
</g>
<!-- Node7&#45;&gt;Node11 -->
<g id="edge10_Node000007_Node000011" class="edge">
<title>Node7&#45;&gt;Node11</title>
<g id="a_edge10_Node000007_Node000011"><a xlink:title=" ">
<path fill="none" stroke="#63b8ff" d="M573.86,-113.71C570.73,-113.13 567.63,-112.56 564.62,-112 477.11,-95.8 455.04,-92.73 367.62,-76 363.17,-75.15 358.48,-74.23 353.87,-73.32"/>
<polygon fill="#63b8ff" stroke="#63b8ff" points="354.75,-69.93 344.26,-71.4 353.38,-76.79 354.75,-69.93"/>
</a>
</g>
</g>
<!-- Node12 -->
<g id="Node000012" class="node">
<title>Node12</title>
<g id="a_Node000012"><a xlink:title=" ">
<polygon fill="#e0e0e0" stroke="#999999" points="637.25,-76 592,-76 592,-56 637.25,-56 637.25,-76"/>
<text text-anchor="middle" x="614.62" y="-62.5" font-family="Helvetica,sans-Serif" font-size="10.00">variant</text>
</a>
</g>
</g>
<!-- Node7&#45;&gt;Node12 -->
<g id="edge11_Node000007_Node000012" class="edge">
<title>Node7&#45;&gt;Node12</title>
<g id="a_edge11_Node000007_Node000012"><a xlink:title=" ">
<path fill="none" stroke="#63b8ff" d="M612.97,-111.59C613.22,-105.01 613.55,-95.96 613.86,-87.73"/>
<polygon fill="#63b8ff" stroke="#63b8ff" points="617.35,-87.93 614.22,-77.81 610.36,-87.67 617.35,-87.93"/>
</a>
</g>
</g>
<!-- Node7&#45;&gt;Node13 -->
<g id="edge12_Node000007_Node000013" class="edge">
<title>Node7&#45;&gt;Node13</title>
<g id="a_edge12_Node000007_Node000013"><a xlink:title=" ">
<path fill="none" stroke="#63b8ff" d="M624.12,-111.59C633.59,-103.85 647.23,-92.69 658.5,-83.47"/>
<polygon fill="#63b8ff" stroke="#63b8ff" points="660.57,-86.3 666.09,-77.26 656.13,-80.88 660.57,-86.3"/>
</a>
</g>
</g>
<!-- Node14 -->
<g id="Node000014" class="node">
<title>Node14</title>
<g id="a_Node000014"><a xlink:href="RowDTOAdapter_8hpp.html" target="_top" xlink:title=" ">
<polygon fill="white" stroke="#666666" points="242.5,-76 132.75,-76 132.75,-56 242.5,-56 242.5,-76"/>
<text text-anchor="middle" x="187.62" y="-62.5" font-family="Helvetica,sans-Serif" font-size="10.00">RowDTOAdapter.hpp</text>
</a>
</g>
</g>
<!-- Node7&#45;&gt;Node14 -->
<g id="edge13_Node000007_Node000014" class="edge">
<title>Node7&#45;&gt;Node14</title>
<g id="a_edge13_Node000007_Node000014"><a xlink:title=" ">
<path fill="none" stroke="#63b8ff" d="M573.89,-113.51C570.76,-112.97 567.64,-112.46 564.62,-112 456.17,-95.38 329.37,-81.35 253.93,-73.56"/>
<polygon fill="#63b8ff" stroke="#63b8ff" points="254.53,-70.11 244.23,-72.57 253.82,-77.07 254.53,-70.11"/>
</a>
</g>
</g>
<!-- Node14&#45;&gt;Node10 -->
<g id="edge14_Node000014_Node000010" class="edge">
<title>Node14&#45;&gt;Node10</title>
<g id="a_edge14_Node000014_Node000010"><a xlink:title=" ">
<path fill="none" stroke="#63b8ff" d="M210.27,-55.59C230.74,-47.09 261.14,-34.46 284.37,-24.81"/>
<polygon fill="#63b8ff" stroke="#63b8ff" points="285.51,-28.13 293.41,-21.06 282.83,-21.66 285.51,-28.13"/>
</a>
</g>
</g>
<!-- Node16 -->
<g id="Node000016" class="node">
<title>Node16</title>
<g id="a_Node000016"><a xlink:title=" ">
<polygon fill="#e0e0e0" stroke="#999999" points="1259.75,-76 1187.5,-76 1187.5,-56 1259.75,-56 1259.75,-76"/>
<text text-anchor="middle" x="1223.62" y="-62.5" font-family="Helvetica,sans-Serif" font-size="10.00">dpp/cluster.h</text>
</a>
</g>
</g>
<!-- Node15&#45;&gt;Node16 -->
<g id="edge16_Node000015_Node000016" class="edge">
<title>Node15&#45;&gt;Node16</title>
<g id="a_edge16_Node000015_Node000016"><a xlink:title=" ">
<path fill="none" stroke="#63b8ff" d="M1299.6,-111.59C1285.83,-103.51 1265.72,-91.71 1249.65,-82.27"/>
<polygon fill="#63b8ff" stroke="#63b8ff" points="1251.48,-79.29 1241.08,-77.25 1247.93,-85.33 1251.48,-79.29"/>
</a>
</g>
</g>
<!-- Node17 -->
<g id="Node000017" class="node">
<title>Node17</title>
<g id="a_Node000017"><a xlink:title=" ">
<polygon fill="#e0e0e0" stroke="#999999" points="1169.62,-76 1081.62,-76 1081.62,-56 1169.62,-56 1169.62,-76"/>
<text text-anchor="middle" x="1125.62" y="-62.5" font-family="Helvetica,sans-Serif" font-size="10.00">dpp/dispatcher.h</text>
</a>
</g>
</g>
<!-- Node15&#45;&gt;Node17 -->
<g id="edge17_Node000015_Node000017" class="edge">
<title>Node15&#45;&gt;Node17</title>
<g id="a_edge17_Node000015_Node000017"><a xlink:title=" ">
<path fill="none" stroke="#63b8ff" d="M1282.53,-111.59C1251.25,-102.71 1204.12,-89.31 1169.68,-79.52"/>
<polygon fill="#63b8ff" stroke="#63b8ff" points="1171.01,-76.26 1160.43,-76.89 1169.1,-82.99 1171.01,-76.26"/>
</a>
</g>
</g>
<!-- Node18&#45;&gt;Node16 -->
<g id="edge19_Node000018_Node000016" class="edge">
<title>Node18&#45;&gt;Node16</title>
<g id="a_edge19_Node000018_Node000016"><a xlink:title=" ">
<path fill="none" stroke="#63b8ff" d="M812.7,-113.14C815.72,-112.74 818.71,-112.36 821.62,-112 976.35,-92.98 1019.02,-99.36 1176.3,-76.22"/>
<polygon fill="#63b8ff" stroke="#63b8ff" points="1176.46,-79.73 1185.83,-74.8 1175.43,-72.81 1176.46,-79.73"/>
</a>
</g>
</g>
<!-- Node18&#45;&gt;Node17 -->
<g id="edge20_Node000018_Node000017" class="edge">
<title>Node18&#45;&gt;Node17</title>
<g id="a_edge20_Node000018_Node000017"><a xlink:title=" ">
<path fill="none" stroke="#63b8ff" d="M812.45,-113.21C880.99,-103.09 1000.04,-85.53 1069.95,-75.21"/>
<polygon fill="#63b8ff" stroke="#63b8ff" points="1070.27,-78.71 1079.65,-73.78 1069.25,-71.78 1070.27,-78.71"/>
</a>
</g>
</g>
<!-- Node19&#45;&gt;Node13 -->
<g id="edge25_Node000019_Node000013" class="edge">
<title>Node19&#45;&gt;Node13</title>
<g id="a_edge25_Node000019_Node000013"><a xlink:title=" ">
<path fill="none" stroke="#63b8ff" d="M1106.61,-113.02C1103.57,-112.67 1100.57,-112.33 1097.62,-112 953.98,-95.89 782.49,-77.84 711.69,-70.45"/>
<polygon fill="#63b8ff" stroke="#63b8ff" points="712.26,-66.99 701.95,-69.43 711.53,-73.95 712.26,-66.99"/>
</a>
</g>
</g>
<!-- Node19&#45;&gt;Node16 -->
<g id="edge23_Node000019_Node000016" class="edge">
<title>Node19&#45;&gt;Node16</title>
<g id="a_edge23_Node000019_Node000016"><a xlink:title=" ">
<path fill="none" stroke="#63b8ff" d="M1183.16,-111.59C1189.91,-104.16 1199.51,-93.58 1207.67,-84.58"/>
<polygon fill="#63b8ff" stroke="#63b8ff" points="1210.04,-87.18 1214.17,-77.42 1204.86,-82.47 1210.04,-87.18"/>
</a>
</g>
</g>
<!-- Node19&#45;&gt;Node17 -->
<g id="edge24_Node000019_Node000017" class="edge">
<title>Node19&#45;&gt;Node17</title>
<g id="a_edge24_Node000019_Node000017"><a xlink:title=" ">
<path fill="none" stroke="#63b8ff" d="M1166.09,-111.59C1159.34,-104.16 1149.74,-93.58 1141.58,-84.58"/>
<polygon fill="#63b8ff" stroke="#63b8ff" points="1144.39,-82.47 1135.08,-77.42 1139.21,-87.18 1144.39,-82.47"/>
</a>
</g>
</g>
<!-- Node19&#45;&gt;Node20 -->
<g id="edge22_Node000019_Node000020" class="edge">
<title>Node19&#45;&gt;Node20</title>
<g id="a_edge22_Node000019_Node000020"><a xlink:title=" ">
<path fill="none" stroke="#63b8ff" d="M1230.91,-111.53C1290.75,-101.47 1384.64,-85.67 1443.04,-75.85"/>
<polygon fill="#63b8ff" stroke="#63b8ff" points="1443.45,-79.33 1452.73,-74.22 1442.29,-72.42 1443.45,-79.33"/>
</a>
</g>
</g>
<!-- Node21&#45;&gt;Node16 -->
<g id="edge27_Node000021_Node000016" class="edge">
<title>Node21&#45;&gt;Node16</title>
<g id="a_edge27_Node000021_Node000016"><a xlink:title=" ">
<path fill="none" stroke="#63b8ff" d="M948.97,-112.52C1005.02,-104.34 1091.72,-91.24 1176.21,-76.37"/>
<polygon fill="#63b8ff" stroke="#63b8ff" points="1176.57,-79.86 1185.81,-74.67 1175.35,-72.97 1176.57,-79.86"/>
</a>
</g>
</g>
<!-- Node21&#45;&gt;Node17 -->
<g id="edge28_Node000021_Node000017" class="edge">
<title>Node21&#45;&gt;Node17</title>
<g id="a_edge28_Node000021_Node000017"><a xlink:title=" ">
<path fill="none" stroke="#63b8ff" d="M931,-111.53C970.56,-102.48 1030.37,-88.8 1073.23,-78.99"/>
<polygon fill="#63b8ff" stroke="#63b8ff" points="1073.85,-82.44 1082.82,-76.79 1072.29,-75.61 1073.85,-82.44"/>
</a>
</g>
</g>
<!-- Node22&#45;&gt;Node16 -->
<g id="edge30_Node000022_Node000016" class="edge">
<title>Node22&#45;&gt;Node16</title>
<g id="a_edge30_Node000022_Node000016"><a xlink:title=" ">
<path fill="none" stroke="#63b8ff" d="M1479.27,-111.53C1420.3,-101.26 1327.09,-85.02 1271,-75.25"/>
<polygon fill="#63b8ff" stroke="#63b8ff" points="1271.9,-71.86 1261.45,-73.59 1270.7,-78.75 1271.9,-71.86"/>
</a>
</g>
</g>
<!-- Node22&#45;&gt;Node17 -->
<g id="edge31_Node000022_Node000017" class="edge">
<title>Node22&#45;&gt;Node17</title>
<g id="a_edge31_Node000022_Node000017"><a xlink:title=" ">
<path fill="none" stroke="#63b8ff" d="M1472.17,-113.09C1469.28,-112.72 1466.42,-112.36 1463.62,-112 1340.56,-96.32 1306.81,-94.77 1181.08,-76.31"/>
<polygon fill="#63b8ff" stroke="#63b8ff" points="1181.75,-72.87 1171.35,-74.88 1180.73,-79.8 1181.75,-72.87"/>
</a>
</g>
</g>
<!-- Node23&#45;&gt;Node16 -->
<g id="edge33_Node000023_Node000016" class="edge">
<title>Node23&#45;&gt;Node16</title>
<g id="a_edge33_Node000023_Node000016"><a xlink:title=" ">
<path fill="none" stroke="#63b8ff" d="M1061.77,-111.59C1094.03,-102.71 1142.65,-89.31 1178.18,-79.52"/>
<polygon fill="#63b8ff" stroke="#63b8ff" points="1179.05,-82.91 1187.76,-76.88 1177.19,-76.16 1179.05,-82.91"/>
</a>
</g>
</g>
<!-- Node23&#45;&gt;Node17 -->
<g id="edge34_Node000023_Node000017" class="edge">
<title>Node23&#45;&gt;Node17</title>
<g id="a_edge34_Node000023_Node000017"><a xlink:title=" ">
<path fill="none" stroke="#63b8ff" d="M1044.7,-111.59C1059.5,-103.44 1081.19,-91.48 1098.39,-82"/>
<polygon fill="#63b8ff" stroke="#63b8ff" points="1100.03,-85.1 1107.1,-77.21 1096.65,-78.97 1100.03,-85.1"/>
</a>
</g>
</g>
<!-- Node24&#45;&gt;Node16 -->
<g id="edge43_Node000024_Node000016" class="edge">
<title>Node24&#45;&gt;Node16</title>
<g id="a_edge43_Node000024_Node000016"><a xlink:title=" ">
<path fill="none" stroke="#63b8ff" d="M1388.48,-111.96C1355.76,-103.04 1305.47,-89.32 1269.03,-79.38"/>
<polygon fill="#63b8ff" stroke="#63b8ff" points="1270.23,-76.08 1259.67,-76.83 1268.39,-82.84 1270.23,-76.08"/>
</a>
</g>
</g>
<!-- Node24&#45;&gt;Node17 -->
<g id="edge44_Node000024_Node000017" class="edge">
<title>Node24&#45;&gt;Node17</title>
<g id="a_edge44_Node000024_Node000017"><a xlink:title=" ">
<path fill="none" stroke="#63b8ff" d="M1388.53,-113.61C1385.86,-113.05 1383.2,-112.51 1380.62,-112 1343.34,-104.62 1244.05,-87.36 1180.94,-76.49"/>
<polygon fill="#63b8ff" stroke="#63b8ff" points="1181.92,-73.1 1171.48,-74.86 1180.74,-80 1181.92,-73.1"/>
</a>
</g>
</g>
<!-- Node31 -->
<g id="Node000031" class="node">
<title>Node31</title>
<g id="a_Node000031"><a xlink:href="IRepository_8hpp.html" target="_top" xlink:title=" ">
<polygon fill="white" stroke="#666666" points="294.75,-132 210.5,-132 210.5,-112 294.75,-112 294.75,-132"/>
<text text-anchor="middle" x="252.62" y="-118.5" font-family="Helvetica,sans-Serif" font-size="10.00">IRepository.hpp</text>
</a>
</g>
</g>
<!-- Node30&#45;&gt;Node31 -->
<g id="edge56_Node000030_Node000031" class="edge">
<title>Node30&#45;&gt;Node31</title>
<g id="a_edge56_Node000030_Node000031"><a xlink:title=" ">
<path fill="none" stroke="#63b8ff" d="M122.97,-167.59C148.26,-158.9 186.08,-145.89 214.36,-136.16"/>
<polygon fill="#63b8ff" stroke="#63b8ff" points="215.32,-139.53 223.63,-132.97 213.04,-132.91 215.32,-139.53"/>
</a>
</g>
</g>
<!-- Node30&#45;&gt;Node32 -->
<g id="edge58_Node000030_Node000032" class="edge">
<title>Node30&#45;&gt;Node32</title>
<g id="a_edge58_Node000030_Node000032"><a xlink:title=" ">
<path fill="none" stroke="#63b8ff" d="M86.04,-167.59C78.39,-160.08 67.47,-149.35 58.25,-140.3"/>
<polygon fill="#63b8ff" stroke="#63b8ff" points="60.76,-137.87 51.18,-133.36 55.86,-142.86 60.76,-137.87"/>
</a>
</g>
</g>
<!-- Node31&#45;&gt;Node8 -->
<g id="edge57_Node000031_Node000008" class="edge">
<title>Node31&#45;&gt;Node8</title>
<g id="a_edge57_Node000031_Node000008"><a xlink:title=" ">
<path fill="none" stroke="#63b8ff" d="M278.4,-111.59C302.57,-102.78 338.89,-89.53 365.66,-79.76"/>
<polygon fill="#63b8ff" stroke="#63b8ff" points="366.51,-83.17 374.7,-76.46 364.11,-76.6 366.51,-83.17"/>
</a>
</g>
</g>
<!-- Node32&#45;&gt;Node11 -->
<g id="edge60_Node000032_Node000011" class="edge">
<title>Node32&#45;&gt;Node11</title>
<g id="a_edge60_Node000032_Node000011"><a xlink:title=" ">
<path fill="none" stroke="#63b8ff" d="M81.63,-113.15C138.46,-102.27 239.94,-82.83 291.18,-73.02"/>
<polygon fill="#63b8ff" stroke="#63b8ff" points="291.54,-76.52 300.71,-71.2 290.23,-69.64 291.54,-76.52"/>
</a>
</g>
</g>
<!-- Node32&#45;&gt;Node14 -->
<g id="edge59_Node000032_Node000014" class="edge">
<title>Node32&#45;&gt;Node14</title>
<g id="a_edge59_Node000032_Node000014"><a xlink:title=" ">
<path fill="none" stroke="#63b8ff" d="M66.23,-111.59C89.69,-102.97 124.69,-90.12 151.09,-80.42"/>
<polygon fill="#63b8ff" stroke="#63b8ff" points="152.22,-83.73 160.4,-77 149.81,-77.16 152.22,-83.73"/>
</a>
</g>
</g>
<!-- Node33&#45;&gt;Node31 -->
<g id="edge66_Node000033_Node000031" class="edge">
<title>Node33&#45;&gt;Node31</title>
<g id="a_edge66_Node000033_Node000031"><a xlink:title=" ">
<path fill="none" stroke="#63b8ff" d="M252.62,-167.59C252.62,-161.01 252.62,-151.96 252.62,-143.73"/>
<polygon fill="#63b8ff" stroke="#63b8ff" points="256.13,-143.81 252.63,-133.81 249.13,-143.81 256.13,-143.81"/>
</a>
</g>
</g>
<!-- Node34 -->
<g id="Node000034" class="node">
<title>Node34</title>
<g id="a_Node000034"><a xlink:href="BlacklistDTO_8hpp.html" target="_top" xlink:title=" ">
<polygon fill="white" stroke="#666666" points="192.25,-132 99,-132 99,-112 192.25,-112 192.25,-132"/>
<text text-anchor="middle" x="145.62" y="-118.5" font-family="Helvetica,sans-Serif" font-size="10.00">BlacklistDTO.hpp</text>
</a>
</g>
</g>
<!-- Node33&#45;&gt;Node34 -->
<g id="edge63_Node000033_Node000034" class="edge">
<title>Node33&#45;&gt;Node34</title>
<g id="a_edge63_Node000033_Node000034"><a xlink:title=" ">
<path fill="none" stroke="#63b8ff" d="M233.99,-167.59C217.59,-159.32 193.47,-147.14 174.56,-137.6"/>
<polygon fill="#63b8ff" stroke="#63b8ff" points="176.26,-134.54 165.76,-133.16 173.11,-140.79 176.26,-134.54"/>
</a>
</g>
</g>
<!-- Node34&#45;&gt;Node11 -->
<g id="edge65_Node000034_Node000011" class="edge">
<title>Node34&#45;&gt;Node11</title>
<g id="a_edge65_Node000034_Node000011"><a xlink:title=" ">
<path fill="none" stroke="#63b8ff" d="M176.46,-111.59C208.8,-101.73 259.33,-86.31 291.7,-76.43"/>
<polygon fill="#63b8ff" stroke="#63b8ff" points="292.35,-79.9 300.89,-73.63 290.3,-73.2 292.35,-79.9"/>
</a>
</g>
</g>
<!-- Node34&#45;&gt;Node14 -->
<g id="edge64_Node000034_Node000014" class="edge">
<title>Node34&#45;&gt;Node14</title>
<g id="a_edge64_Node000034_Node000014"><a xlink:title=" ">
<path fill="none" stroke="#63b8ff" d="M152.94,-111.59C158.6,-104.32 166.61,-94.02 173.51,-85.15"/>
<polygon fill="#63b8ff" stroke="#63b8ff" points="176.09,-87.54 179.46,-77.49 170.56,-83.24 176.09,-87.54"/>
</a>
</g>
</g>
</g>
</svg>
