<?xml version="1.0" encoding="UTF-8" standalone="no"?>
<!DOCTYPE svg PUBLIC "-//W3C//DTD SVG 1.1//EN"
 "http://www.w3.org/Graphics/SVG/1.1/DTD/svg11.dtd">
<!-- Generated by graphviz version 14.1.5 (0)
 -->
<!-- Title: src/bot_library/commands/portal/SetPortalCommand.hpp Pages: 1 -->
<svg width="1246pt" height="432pt"
 viewBox="0.00 0.00 1246.00 432.00" xmlns="http://www.w3.org/2000/svg" xmlns:xlink="http://www.w3.org/1999/xlink">
<g id="graph0" class="graph" transform="scale(1 1) rotate(0) translate(4 428)">
<title>src/bot_library/commands/portal/SetPortalCommand.hpp</title>
<!-- Node1 -->
<g id="Node000001" class="node">
<title>Node1</title>
<g id="a_Node000001"><a xlink:title=" ">
<polygon fill="#999999" stroke="#666666" points="895.47,-424 745.22,-424 745.22,-392 895.47,-392 895.47,-424"/>
<text xml:space="preserve" text-anchor="start" x="753.22" y="-410.5" font-family="Helvetica,sans-Serif" font-size="10.00">src/bot_library/commands</text>
<text xml:space="preserve" text-anchor="middle" x="820.35" y="-398.5" font-family="Helvetica,sans-Serif" font-size="10.00">/portal/SetPortalCommand.hpp</text>
</a>
</g>
</g>
<!-- Node2 -->
<g id="Node000002" class="node">
<title>Node2</title>
<g id="a_Node000002"><a xlink:href="Bot_8hpp.html" target="_top" xlink:title=" ">
<polygon fill="white" stroke="#666666" points="591.22,-356 541.47,-356 541.47,-336 591.22,-336 591.22,-356"/>
<text xml:space="preserve" text-anchor="middle" x="566.35" y="-342.5" font-family="Helvetica,sans-Serif" font-size="10.00">Bot.hpp</text>
</a>
</g>
</g>
<!-- Node1&#45;&gt;Node2 -->
<g id="edge1_Node000001_Node000002" class="edge">
<title>Node1&#45;&gt;Node2</title>
<g id="a_edge1_Node000001_Node000002"><a xlink:title=" ">
<path fill="none" stroke="#63b8ff" d="M754.94,-391.55C706.51,-380.11 642.31,-364.94 602.7,-355.59"/>
<polygon fill="#63b8ff" stroke="#63b8ff" points="603.73,-352.23 593.2,-353.34 602.12,-359.05 603.73,-352.23"/>
</a>
</g>
</g>
<!-- Node23 -->
<g id="Node000023" class="node">
<title>Node23</title>
<g id="a_Node000023"><a xlink:href="IMessageCommand_8hpp.html" target="_top" xlink:title=" ">
<polygon fill="white" stroke="#666666" points="881.6,-244 759.1,-244 759.1,-224 881.6,-224 881.6,-244"/>
<text xml:space="preserve" text-anchor="middle" x="820.35" y="-230.5" font-family="Helvetica,sans-Serif" font-size="10.00">IMessageCommand.hpp</text>
</a>
</g>
</g>
<!-- Node1&#45;&gt;Node23 -->
<g id="edge54_Node000001_Node000023" class="edge">
<title>Node1&#45;&gt;Node23</title>
<g id="a_edge54_Node000001_Node000023"><a xlink:title=" ">
<path fill="none" stroke="#63b8ff" d="M820.35,-391.74C820.35,-360.69 820.35,-290.18 820.35,-255.31"/>
<polygon fill="#63b8ff" stroke="#63b8ff" points="823.85,-255.72 820.35,-245.72 816.85,-255.72 823.85,-255.72"/>
</a>
</g>
</g>
<!-- Node24 -->
<g id="Node000024" class="node">
<title>Node24</title>
<g id="a_Node000024"><a xlink:href="IReactionCommand_8hpp.html" target="_top" xlink:title=" ">
<polygon fill="white" stroke="#666666" points="1021.22,-244 899.47,-244 899.47,-224 1021.22,-224 1021.22,-244"/>
<text xml:space="preserve" text-anchor="middle" x="960.35" y="-230.5" font-family="Helvetica,sans-Serif" font-size="10.00">IReactionCommand.hpp</text>
</a>
</g>
</g>
<!-- Node1&#45;&gt;Node24 -->
<g id="edge55_Node000001_Node000024" class="edge">
<title>Node1&#45;&gt;Node24</title>
<g id="a_edge55_Node000001_Node000024"><a xlink:title=" ">
<path fill="none" stroke="#63b8ff" d="M832.77,-391.74C858.6,-360.01 917.97,-287.07 945.65,-253.06"/>
<polygon fill="#63b8ff" stroke="#63b8ff" points="948.3,-255.35 951.9,-245.38 942.87,-250.93 948.3,-255.35"/>
</a>
</g>
</g>
<!-- Node3 -->
<g id="Node000003" class="node">
<title>Node3</title>
<g id="a_Node000003"><a xlink:href="Core_8hpp.html" target="_top" xlink:title=" ">
<polygon fill="white" stroke="#666666" points="739.22,-300 683.47,-300 683.47,-280 739.22,-280 739.22,-300"/>
<text xml:space="preserve" text-anchor="middle" x="711.35" y="-286.5" font-family="Helvetica,sans-Serif" font-size="10.00">Core.hpp</text>
</a>
</g>
</g>
<!-- Node2&#45;&gt;Node3 -->
<g id="edge2_Node000002_Node000003" class="edge">
<title>Node2&#45;&gt;Node3</title>
<g id="a_edge2_Node000002_Node000003"><a xlink:title=" ">
<path fill="none" stroke="#63b8ff" d="M591.61,-335.59C614.75,-326.97 649.27,-314.12 675.31,-304.42"/>
<polygon fill="#63b8ff" stroke="#63b8ff" points="676.33,-307.78 684.48,-301.01 673.88,-301.22 676.33,-307.78"/>
</a>
</g>
</g>
<!-- Node7 -->
<g id="Node000007" class="node">
<title>Node7</title>
<g id="a_Node000007"><a xlink:title=" ">
<polygon fill="#e0e0e0" stroke="#999999" points="1219.35,-132 1179.35,-132 1179.35,-112 1219.35,-112 1219.35,-132"/>
<text xml:space="preserve" text-anchor="middle" x="1199.35" y="-118.5" font-family="Helvetica,sans-Serif" font-size="10.00">string</text>
</a>
</g>
</g>
<!-- Node2&#45;&gt;Node7 -->
<g id="edge52_Node000002_Node000007" class="edge">
<title>Node2&#45;&gt;Node7</title>
<g id="a_edge52_Node000002_Node000007"><a xlink:title=" ">
<path fill="none" stroke="#63b8ff" d="M591.7,-344.95C701.07,-344.16 1131.14,-335.22 1221.35,-244 1245.23,-219.85 1239.19,-200.51 1229.35,-168 1226.47,-158.5 1220.86,-149.18 1215.26,-141.5"/>
<polygon fill="#63b8ff" stroke="#63b8ff" points="1218.02,-139.35 1209.07,-133.67 1212.52,-143.69 1218.02,-139.35"/>
</a>
</g>
</g>
<!-- Node9 -->
<g id="Node000009" class="node">
<title>Node9</title>
<g id="a_Node000009"><a xlink:title=" ">
<polygon fill="#e0e0e0" stroke="#999999" points="387.85,-132 344.85,-132 344.85,-112 387.85,-112 387.85,-132"/>
<text xml:space="preserve" text-anchor="middle" x="366.35" y="-118.5" font-family="Helvetica,sans-Serif" font-size="10.00">vector</text>
</a>
</g>
</g>
<!-- Node2&#45;&gt;Node9 -->
<g id="edge53_Node000002_Node000009" class="edge">
<title>Node2&#45;&gt;Node9</title>
<g id="a_edge53_Node000002_Node000009"><a xlink:title=" ">
<path fill="none" stroke="#63b8ff" d="M541.03,-344.53C441.91,-342.1 82.33,-327.57 15.35,-244 -70.64,-136.72 230.35,-124.21 333.14,-123.02"/>
<polygon fill="#63b8ff" stroke="#63b8ff" points="332.9,-126.52 342.87,-122.94 332.84,-119.52 332.9,-126.52"/>
</a>
</g>
</g>
<!-- Node16 -->
<g id="Node000016" class="node">
<title>Node16</title>
<g id="a_Node000016"><a xlink:href="IButtonCommand_8hpp.html" target="_top" xlink:title=" ">
<polygon fill="white" stroke="#666666" points="631.97,-244 520.72,-244 520.72,-224 631.97,-224 631.97,-244"/>
<text xml:space="preserve" text-anchor="middle" x="576.35" y="-230.5" font-family="Helvetica,sans-Serif" font-size="10.00">IButtonCommand.hpp</text>
</a>
</g>
</g>
<!-- Node2&#45;&gt;Node16 -->
<g id="edge42_Node000002_Node000016" class="edge">
<title>Node2&#45;&gt;Node16</title>
<g id="a_edge42_Node000002_Node000016"><a xlink:title=" ">
<path fill="none" stroke="#63b8ff" d="M566.96,-335.73C567.82,-323.12 569.48,-299.83 571.35,-280 572.1,-271.98 573.05,-263.17 573.92,-255.49"/>
<polygon fill="#63b8ff" stroke="#63b8ff" points="577.37,-256.14 575.05,-245.8 570.42,-255.33 577.37,-256.14"/>
</a>
</g>
</g>
<!-- Node19 -->
<g id="Node000019" class="node">
<title>Node19</title>
<g id="a_Node000019"><a xlink:href="IFormCommand_8hpp.html" target="_top" xlink:title=" ">
<polygon fill="white" stroke="#666666" points="365.97,-244 260.72,-244 260.72,-224 365.97,-224 365.97,-244"/>
<text xml:space="preserve" text-anchor="middle" x="313.35" y="-230.5" font-family="Helvetica,sans-Serif" font-size="10.00">IFormCommand.hpp</text>
</a>
</g>
</g>
<!-- Node2&#45;&gt;Node19 -->
<g id="edge43_Node000002_Node000019" class="edge">
<title>Node2&#45;&gt;Node19</title>
<g id="a_edge43_Node000002_Node000019"><a xlink:title=" ">
<path fill="none" stroke="#63b8ff" d="M544.78,-335.62C500.15,-316.22 397.51,-271.59 345.22,-248.86"/>
<polygon fill="#63b8ff" stroke="#63b8ff" points="346.82,-245.74 336.25,-244.96 344.03,-252.16 346.82,-245.74"/>
</a>
</g>
</g>
<!-- Node20 -->
<g id="Node000020" class="node">
<title>Node20</title>
<g id="a_Node000020"><a xlink:href="IGlobalSlashCommand_8hpp.html" target="_top" xlink:title=" ">
<polygon fill="white" stroke="#666666" points="159.97,-244 24.72,-244 24.72,-224 159.97,-224 159.97,-244"/>
<text xml:space="preserve" text-anchor="middle" x="92.35" y="-230.5" font-family="Helvetica,sans-Serif" font-size="10.00">IGlobalSlashCommand.hpp</text>
</a>
</g>
</g>
<!-- Node2&#45;&gt;Node20 -->
<g id="edge44_Node000002_Node000020" class="edge">
<title>Node2&#45;&gt;Node20</title>
<g id="a_edge44_Node000002_Node000020"><a xlink:title=" ">
<path fill="none" stroke="#63b8ff" d="M541.31,-340.25C500.53,-332.43 417.33,-316.1 347.35,-300 273.88,-283.1 189.17,-260.98 138.24,-247.39"/>
<polygon fill="#63b8ff" stroke="#63b8ff" points="139.31,-244.05 128.75,-244.85 137.5,-250.81 139.31,-244.05"/>
</a>
</g>
</g>
<!-- Node22 -->
<g id="Node000022" class="node">
<title>Node22</title>
<g id="a_Node000022"><a xlink:href="IMemberCommand_8hpp.html" target="_top" xlink:title=" ">
<polygon fill="white" stroke="#666666" points="502.35,-244 384.35,-244 384.35,-224 502.35,-224 502.35,-244"/>
<text xml:space="preserve" text-anchor="middle" x="443.35" y="-230.5" font-family="Helvetica,sans-Serif" font-size="10.00">IMemberCommand.hpp</text>
</a>
</g>
</g>
<!-- Node2&#45;&gt;Node22 -->
<g id="edge45_Node000002_Node000022" class="edge">
<title>Node2&#45;&gt;Node22</title>
<g id="a_edge45_Node000002_Node000022"><a xlink:title=" ">
<path fill="none" stroke="#63b8ff" d="M555.86,-335.62C535.07,-317.03 488.39,-275.28 462.16,-251.82"/>
<polygon fill="#63b8ff" stroke="#63b8ff" points="464.72,-249.42 454.94,-245.36 460.06,-254.64 464.72,-249.42"/>
</a>
</g>
</g>
<!-- Node2&#45;&gt;Node23 -->
<g id="edge46_Node000002_Node000023" class="edge">
<title>Node2&#45;&gt;Node23</title>
<g id="a_edge46_Node000002_Node000023"><a xlink:title=" ">
<path fill="none" stroke="#63b8ff" d="M569.04,-335.8C573.74,-321.48 584.82,-294.04 604.35,-280 616.42,-271.32 693.28,-256.62 751.92,-246.39"/>
<polygon fill="#63b8ff" stroke="#63b8ff" points="752.26,-249.88 761.51,-244.73 751.06,-242.99 752.26,-249.88"/>
</a>
</g>
</g>
<!-- Node2&#45;&gt;Node24 -->
<g id="edge47_Node000002_Node000024" class="edge">
<title>Node2&#45;&gt;Node24</title>
<g id="a_edge47_Node000002_Node000024"><a xlink:title=" ">
<path fill="none" stroke="#63b8ff" d="M591.49,-339.25C626.7,-331.08 692.67,-315.41 748.35,-300 808.8,-283.27 878.18,-261.51 920.64,-247.89"/>
<polygon fill="#63b8ff" stroke="#63b8ff" points="921.46,-251.3 929.91,-244.91 919.32,-244.64 921.46,-251.3"/>
</a>
</g>
</g>
<!-- Node25 -->
<g id="Node000025" class="node">
<title>Node25</title>
<g id="a_Node000025"><a xlink:href="IReady_8hpp.html" target="_top" xlink:title=" ">
<polygon fill="white" stroke="#666666" points="243.1,-244 177.6,-244 177.6,-224 243.1,-224 243.1,-244"/>
<text xml:space="preserve" text-anchor="middle" x="210.35" y="-230.5" font-family="Helvetica,sans-Serif" font-size="10.00">IReady.hpp</text>
</a>
</g>
</g>
<!-- Node2&#45;&gt;Node25 -->
<g id="edge48_Node000002_Node000025" class="edge">
<title>Node2&#45;&gt;Node25</title>
<g id="a_edge48_Node000002_Node000025"><a xlink:title=" ">
<path fill="none" stroke="#63b8ff" d="M541.12,-337.78C510.74,-329.04 458.21,-313.78 413.35,-300 356.44,-282.52 290.89,-261.34 250.03,-248.02"/>
<polygon fill="#63b8ff" stroke="#63b8ff" points="251.22,-244.72 240.63,-244.94 249.05,-251.38 251.22,-244.72"/>
</a>
</g>
</g>
<!-- Node26 -->
<g id="Node000026" class="node">
<title>Node26</title>
<g id="a_Node000026"><a xlink:title=" ">
<polygon fill="#e0e0e0" stroke="#999999" points="664.97,-300 613.72,-300 613.72,-280 664.97,-280 664.97,-300"/>
<text xml:space="preserve" text-anchor="middle" x="639.35" y="-286.5" font-family="Helvetica,sans-Serif" font-size="10.00">memory</text>
</a>
</g>
</g>
<!-- Node2&#45;&gt;Node26 -->
<g id="edge51_Node000002_Node000026" class="edge">
<title>Node2&#45;&gt;Node26</title>
<g id="a_edge51_Node000002_Node000026"><a xlink:title=" ">
<path fill="none" stroke="#63b8ff" d="M579.06,-335.59C589.74,-327.7 605.23,-316.24 617.83,-306.92"/>
<polygon fill="#63b8ff" stroke="#63b8ff" points="619.6,-309.96 625.56,-301.2 615.44,-304.33 619.6,-309.96"/>
</a>
</g>
</g>
<!-- Node4 -->
<g id="Node000004" class="node">
<title>Node4</title>
<g id="a_Node000004"><a xlink:title=" ">
<polygon fill="#e0e0e0" stroke="#999999" points="1192.72,-244 1133.97,-244 1133.97,-224 1192.72,-224 1192.72,-244"/>
<text xml:space="preserve" text-anchor="middle" x="1163.35" y="-230.5" font-family="Helvetica,sans-Serif" font-size="10.00">dpp/dpp.h</text>
</a>
</g>
</g>
<!-- Node3&#45;&gt;Node4 -->
<g id="edge3_Node000003_Node000004" class="edge">
<title>Node3&#45;&gt;Node4</title>
<g id="a_edge3_Node000003_Node000004"><a xlink:title=" ">
<path fill="none" stroke="#63b8ff" d="M739.55,-287.08C804.97,-282.39 972.26,-268.99 1122.38,-244.13"/>
<polygon fill="#63b8ff" stroke="#63b8ff" points="1122.84,-247.6 1132.12,-242.49 1121.68,-240.7 1122.84,-247.6"/>
</a>
</g>
</g>
<!-- Node5 -->
<g id="Node000005" class="node">
<title>Node5</title>
<g id="a_Node000005"><a xlink:title=" ">
<polygon fill="#e0e0e0" stroke="#999999" points="740.85,-244 649.85,-244 649.85,-224 740.85,-224 740.85,-244"/>
<text xml:space="preserve" text-anchor="middle" x="695.35" y="-230.5" font-family="Helvetica,sans-Serif" font-size="10.00">dpp/misc&#45;enum.h</text>
</a>
</g>
</g>
<!-- Node3&#45;&gt;Node5 -->
<g id="edge4_Node000003_Node000005" class="edge">
<title>Node3&#45;&gt;Node5</title>
<g id="a_edge4_Node000003_Node000005"><a xlink:title=" ">
<path fill="none" stroke="#63b8ff" d="M708.56,-279.59C706.57,-272.86 703.8,-263.53 701.32,-255.15"/>
<polygon fill="#63b8ff" stroke="#63b8ff" points="704.73,-254.34 698.53,-245.75 698.02,-256.33 704.73,-254.34"/>
</a>
</g>
</g>
<!-- Node6 -->
<g id="Node000006" class="node">
<title>Node6</title>
<g id="a_Node000006"><a xlink:href="Database_8hpp.html" target="_top" xlink:title=" ">
<polygon fill="white" stroke="#666666" points="1115.72,-244 1038.97,-244 1038.97,-224 1115.72,-224 1115.72,-244"/>
<text xml:space="preserve" text-anchor="middle" x="1077.35" y="-230.5" font-family="Helvetica,sans-Serif" font-size="10.00">Database.hpp</text>
</a>
</g>
</g>
<!-- Node3&#45;&gt;Node6 -->
<g id="edge5_Node000003_Node000006" class="edge">
<title>Node3&#45;&gt;Node6</title>
<g id="a_edge5_Node000003_Node000006"><a xlink:title=" ">
<path fill="none" stroke="#63b8ff" d="M739.58,-285.49C793.51,-278.68 915.14,-262.85 1027.46,-244.42"/>
<polygon fill="#63b8ff" stroke="#63b8ff" points="1027.86,-247.9 1037.15,-242.81 1026.72,-240.99 1027.86,-247.9"/>
</a>
</g>
</g>
<!-- Node3&#45;&gt;Node7 -->
<g id="edge41_Node000003_Node000007" class="edge">
<title>Node3&#45;&gt;Node7</title>
<g id="a_edge41_Node000003_Node000007"><a xlink:title=" ">
<path fill="none" stroke="#63b8ff" d="M739.48,-288.57C838.99,-286.78 1170.08,-278.28 1201.35,-244 1226.28,-216.68 1215.98,-169.72 1207.11,-143.04"/>
<polygon fill="#63b8ff" stroke="#63b8ff" points="1210.46,-142.01 1203.78,-133.78 1203.87,-144.38 1210.46,-142.01"/>
</a>
</g>
</g>
<!-- Node3&#45;&gt;Node16 -->
<g id="edge21_Node000003_Node000016" class="edge">
<title>Node3&#45;&gt;Node16</title>
<g id="a_edge21_Node000003_Node000016"><a xlink:title=" ">
<path fill="none" stroke="#63b8ff" d="M687.83,-279.59C666.48,-271.05 634.72,-258.35 610.55,-248.68"/>
<polygon fill="#63b8ff" stroke="#63b8ff" points="612.04,-245.51 601.45,-245.04 609.44,-252.01 612.04,-245.51"/>
</a>
</g>
</g>
<!-- Node3&#45;&gt;Node19 -->
<g id="edge24_Node000003_Node000019" class="edge">
<title>Node3&#45;&gt;Node19</title>
<g id="a_edge24_Node000003_Node000019"><a xlink:title=" ">
<path fill="none" stroke="#63b8ff" d="M683.14,-281.77C680.18,-281.12 677.21,-280.52 674.35,-280 546.25,-256.79 510,-261.34 377.82,-244.28"/>
<polygon fill="#63b8ff" stroke="#63b8ff" points="378.31,-240.82 367.94,-242.99 377.4,-247.76 378.31,-240.82"/>
</a>
</g>
</g>
<!-- Node3&#45;&gt;Node20 -->
<g id="edge27_Node000003_Node000020" class="edge">
<title>Node3&#45;&gt;Node20</title>
<g id="a_edge27_Node000003_Node000020"><a xlink:title=" ">
<path fill="none" stroke="#63b8ff" d="M683.17,-281.63C680.2,-281.01 677.22,-280.45 674.35,-280 455.29,-245.81 394.8,-264.61 171.72,-244.27"/>
<polygon fill="#63b8ff" stroke="#63b8ff" points="172.07,-240.79 161.79,-243.35 171.42,-247.76 172.07,-240.79"/>
</a>
</g>
</g>
<!-- Node3&#45;&gt;Node22 -->
<g id="edge32_Node000003_Node000022" class="edge">
<title>Node3&#45;&gt;Node22</title>
<g id="a_edge32_Node000003_Node000022"><a xlink:title=" ">
<path fill="none" stroke="#63b8ff" d="M683.1,-281.99C680.15,-281.3 677.19,-280.62 674.35,-280 617.75,-267.61 552.97,-255.14 506.45,-246.48"/>
<polygon fill="#63b8ff" stroke="#63b8ff" points="507.28,-243.07 496.81,-244.69 506.01,-249.96 507.28,-243.07"/>
</a>
</g>
</g>
<!-- Node3&#45;&gt;Node23 -->
<g id="edge35_Node000003_Node000023" class="edge">
<title>Node3&#45;&gt;Node23</title>
<g id="a_edge35_Node000003_Node000023"><a xlink:title=" ">
<path fill="none" stroke="#63b8ff" d="M730.34,-279.59C747.11,-271.28 771.84,-259.03 791.14,-249.47"/>
<polygon fill="#63b8ff" stroke="#63b8ff" points="792.45,-252.73 799.86,-245.15 789.34,-246.45 792.45,-252.73"/>
</a>
</g>
</g>
<!-- Node3&#45;&gt;Node24 -->
<g id="edge38_Node000003_Node000024" class="edge">
<title>Node3&#45;&gt;Node24</title>
<g id="a_edge38_Node000003_Node000024"><a xlink:title=" ">
<path fill="none" stroke="#63b8ff" d="M739.43,-282.91C779.63,-274.19 854.4,-257.98 905.73,-246.85"/>
<polygon fill="#63b8ff" stroke="#63b8ff" points="906.44,-250.27 915.47,-244.73 904.95,-243.43 906.44,-250.27"/>
</a>
</g>
</g>
<!-- Node6&#45;&gt;Node7 -->
<g id="edge6_Node000006_Node000007" class="edge">
<title>Node6&#45;&gt;Node7</title>
<g id="a_edge6_Node000006_Node000007"><a xlink:title=" ">
<path fill="none" stroke="#63b8ff" d="M1092.82,-223.55C1106.26,-215.02 1125.93,-201.73 1141.35,-188 1157.53,-173.59 1173.76,-154.96 1184.92,-141.34"/>
<polygon fill="#63b8ff" stroke="#63b8ff" points="1187.59,-143.61 1191.13,-133.62 1182.13,-139.22 1187.59,-143.61"/>
</a>
</g>
</g>
<!-- Node8 -->
<g id="Node000008" class="node">
<title>Node8</title>
<g id="a_Node000008"><a xlink:title=" ">
<polygon fill="#e0e0e0" stroke="#999999" points="1098.97,-132 1059.72,-132 1059.72,-112 1098.97,-112 1098.97,-132"/>
<text xml:space="preserve" text-anchor="middle" x="1079.35" y="-118.5" font-family="Helvetica,sans-Serif" font-size="10.00">utility</text>
</a>
</g>
</g>
<!-- Node6&#45;&gt;Node8 -->
<g id="edge7_Node000006_Node000008" class="edge">
<title>Node6&#45;&gt;Node8</title>
<g id="a_edge7_Node000006_Node000008"><a xlink:title=" ">
<path fill="none" stroke="#63b8ff" d="M1077.52,-223.62C1077.84,-206.01 1078.54,-167.59 1078.97,-143.65"/>
<polygon fill="#63b8ff" stroke="#63b8ff" points="1082.47,-143.93 1079.15,-133.87 1075.47,-143.8 1082.47,-143.93"/>
</a>
</g>
</g>
<!-- Node6&#45;&gt;Node9 -->
<g id="edge8_Node000006_Node000009" class="edge">
<title>Node6&#45;&gt;Node9</title>
<g id="a_edge8_Node000006_Node000009"><a xlink:title=" ">
<path fill="none" stroke="#63b8ff" d="M1038.64,-225.47C1035.84,-224.96 1033.05,-224.46 1030.35,-224 788.99,-182.55 496.76,-141.13 399.56,-127.59"/>
<polygon fill="#63b8ff" stroke="#63b8ff" points="400.06,-124.13 389.68,-126.22 399.1,-131.06 400.06,-124.13"/>
</a>
</g>
</g>
<!-- Node10 -->
<g id="Node000010" class="node">
<title>Node10</title>
<g id="a_Node000010"><a xlink:href="DatabaseBackend_8hpp.html" target="_top" xlink:title=" ">
<polygon fill="white" stroke="#666666" points="1043.85,-76 928.85,-76 928.85,-56 1043.85,-56 1043.85,-76"/>
<text xml:space="preserve" text-anchor="middle" x="986.35" y="-62.5" font-family="Helvetica,sans-Serif" font-size="10.00">DatabaseBackend.hpp</text>
</a>
</g>
</g>
<!-- Node6&#45;&gt;Node10 -->
<g id="edge9_Node000006_Node000010" class="edge">
<title>Node6&#45;&gt;Node10</title>
<g id="a_edge9_Node000006_Node000010"><a xlink:title=" ">
<path fill="none" stroke="#63b8ff" d="M1084.48,-223.6C1099.95,-201.96 1133.27,-147.76 1108.35,-112 1095.93,-94.18 1075.61,-83.4 1055.09,-76.88"/>
<polygon fill="#63b8ff" stroke="#63b8ff" points="1056.08,-73.53 1045.51,-74.18 1054.18,-80.26 1056.08,-73.53"/>
</a>
</g>
</g>
<!-- Node12 -->
<g id="Node000012" class="node">
<title>Node12</title>
<g id="a_Node000012"><a xlink:href="DatabaseExecutor_8hpp.html" target="_top" xlink:title=" ">
<polygon fill="white" stroke="#666666" points="1013.22,-188 897.47,-188 897.47,-168 1013.22,-168 1013.22,-188"/>
<text xml:space="preserve" text-anchor="middle" x="955.35" y="-174.5" font-family="Helvetica,sans-Serif" font-size="10.00">DatabaseExecutor.hpp</text>
</a>
</g>
</g>
<!-- Node6&#45;&gt;Node12 -->
<g id="edge11_Node000006_Node000012" class="edge">
<title>Node6&#45;&gt;Node12</title>
<g id="a_edge11_Node000006_Node000012"><a xlink:title=" ">
<path fill="none" stroke="#63b8ff" d="M1056.1,-223.59C1037.06,-215.17 1008.87,-202.69 987.15,-193.07"/>
<polygon fill="#63b8ff" stroke="#63b8ff" points="988.71,-189.94 978.15,-189.09 985.88,-196.34 988.71,-189.94"/>
</a>
</g>
</g>
<!-- Node15 -->
<g id="Node000015" class="node">
<title>Node15</title>
<g id="a_Node000015"><a xlink:href="RowDTOAdapter_8hpp.html" target="_top" xlink:title=" ">
<polygon fill="white" stroke="#666666" points="1041.22,-132 931.47,-132 931.47,-112 1041.22,-112 1041.22,-132"/>
<text xml:space="preserve" text-anchor="middle" x="986.35" y="-118.5" font-family="Helvetica,sans-Serif" font-size="10.00">RowDTOAdapter.hpp</text>
</a>
</g>
</g>
<!-- Node6&#45;&gt;Node15 -->
<g id="edge20_Node000006_Node000015" class="edge">
<title>Node6&#45;&gt;Node15</title>
<g id="a_edge20_Node000006_Node000015"><a xlink:title=" ">
<path fill="none" stroke="#63b8ff" d="M1069.59,-223.62C1054.48,-205.36 1020.87,-164.73 1001.3,-141.07"/>
<polygon fill="#63b8ff" stroke="#63b8ff" points="1004.12,-139 995.05,-133.52 998.73,-143.46 1004.12,-139"/>
</a>
</g>
</g>
<!-- Node11 -->
<g id="Node000011" class="node">
<title>Node11</title>
<g id="a_Node000011"><a xlink:title=" ">
<polygon fill="#e0e0e0" stroke="#999999" points="1016.85,-20 955.85,-20 955.85,0 1016.85,0 1016.85,-20"/>
<text xml:space="preserve" text-anchor="middle" x="986.35" y="-6.5" font-family="Helvetica,sans-Serif" font-size="10.00">pqxx/pqxx</text>
</a>
</g>
</g>
<!-- Node10&#45;&gt;Node11 -->
<g id="edge10_Node000010_Node000011" class="edge">
<title>Node10&#45;&gt;Node11</title>
<g id="a_edge10_Node000010_Node000011"><a xlink:title=" ">
<path fill="none" stroke="#63b8ff" d="M986.35,-55.59C986.35,-49.01 986.35,-39.96 986.35,-31.73"/>
<polygon fill="#63b8ff" stroke="#63b8ff" points="989.85,-31.81 986.35,-21.81 982.85,-31.81 989.85,-31.81"/>
</a>
</g>
</g>
<!-- Node12&#45;&gt;Node7 -->
<g id="edge13_Node000012_Node000007" class="edge">
<title>Node12&#45;&gt;Node7</title>
<g id="a_edge13_Node000012_Node000007"><a xlink:title=" ">
<path fill="none" stroke="#63b8ff" d="M998.13,-167.53C1046.6,-156.8 1124.47,-139.57 1167.75,-129.99"/>
<polygon fill="#63b8ff" stroke="#63b8ff" points="1168.5,-133.41 1177.51,-127.83 1166.99,-126.58 1168.5,-133.41"/>
</a>
</g>
</g>
<!-- Node12&#45;&gt;Node8 -->
<g id="edge14_Node000012_Node000008" class="edge">
<title>Node12&#45;&gt;Node8</title>
<g id="a_edge14_Node000012_Node000008"><a xlink:title=" ">
<path fill="none" stroke="#63b8ff" d="M976.95,-167.59C996.86,-158.92 1026.63,-145.96 1048.95,-136.24"/>
<polygon fill="#63b8ff" stroke="#63b8ff" points="1050.07,-139.57 1057.84,-132.37 1047.27,-133.15 1050.07,-139.57"/>
</a>
</g>
</g>
<!-- Node12&#45;&gt;Node9 -->
<g id="edge15_Node000012_Node000009" class="edge">
<title>Node12&#45;&gt;Node9</title>
<g id="a_edge15_Node000012_Node000009"><a xlink:title=" ">
<path fill="none" stroke="#63b8ff" d="M896.99,-171.65C774.79,-160.45 495.37,-134.83 399.42,-126.03"/>
<polygon fill="#63b8ff" stroke="#63b8ff" points="399.92,-122.56 389.64,-125.14 399.28,-129.53 399.92,-122.56"/>
</a>
</g>
</g>
<!-- Node13 -->
<g id="Node000013" class="node">
<title>Node13</title>
<g id="a_Node000013"><a xlink:title=" ">
<polygon fill="#e0e0e0" stroke="#999999" points="913.1,-132 859.6,-132 859.6,-112 913.1,-112 913.1,-132"/>
<text xml:space="preserve" text-anchor="middle" x="886.35" y="-118.5" font-family="Helvetica,sans-Serif" font-size="10.00">iostream</text>
</a>
</g>
</g>
<!-- Node12&#45;&gt;Node13 -->
<g id="edge12_Node000012_Node000013" class="edge">
<title>Node12&#45;&gt;Node13</title>
<g id="a_edge12_Node000012_Node000013"><a xlink:title=" ">
<path fill="none" stroke="#63b8ff" d="M943.33,-167.59C933.34,-159.77 918.89,-148.46 907.04,-139.19"/>
<polygon fill="#63b8ff" stroke="#63b8ff" points="909.45,-136.64 899.42,-133.23 905.14,-142.15 909.45,-136.64"/>
</a>
</g>
</g>
<!-- Node14 -->
<g id="Node000014" class="node">
<title>Node14</title>
<g id="a_Node000014"><a xlink:href="IDatabaseConnectionProvider_8hpp.html" target="_top" xlink:title=" ">
<polygon fill="white" stroke="#666666" points="841.97,-132 676.72,-132 676.72,-112 841.97,-112 841.97,-132"/>
<text xml:space="preserve" text-anchor="middle" x="759.35" y="-118.5" font-family="Helvetica,sans-Serif" font-size="10.00">IDatabaseConnectionProvider.hpp</text>
</a>
</g>
</g>
<!-- Node12&#45;&gt;Node14 -->
<g id="edge16_Node000012_Node000014" class="edge">
<title>Node12&#45;&gt;Node14</title>
<g id="a_edge16_Node000012_Node000014"><a xlink:title=" ">
<path fill="none" stroke="#63b8ff" d="M921.21,-167.59C888.94,-158.71 840.33,-145.31 804.79,-135.52"/>
<polygon fill="#63b8ff" stroke="#63b8ff" points="805.79,-132.16 795.22,-132.88 803.93,-138.91 805.79,-132.16"/>
</a>
</g>
</g>
<!-- Node12&#45;&gt;Node15 -->
<g id="edge18_Node000012_Node000015" class="edge">
<title>Node12&#45;&gt;Node15</title>
<g id="a_edge18_Node000012_Node000015"><a xlink:title=" ">
<path fill="none" stroke="#63b8ff" d="M960.75,-167.59C964.79,-160.55 970.46,-150.67 975.44,-142"/>
<polygon fill="#63b8ff" stroke="#63b8ff" points="978.31,-144.03 980.26,-133.61 972.24,-140.54 978.31,-144.03"/>
</a>
</g>
</g>
<!-- Node14&#45;&gt;Node10 -->
<g id="edge17_Node000014_Node000010" class="edge">
<title>Node14&#45;&gt;Node10</title>
<g id="a_edge17_Node000014_Node000010"><a xlink:title=" ">
<path fill="none" stroke="#63b8ff" d="M799.15,-111.53C837.04,-102.52 894.23,-88.91 935.43,-79.11"/>
<polygon fill="#63b8ff" stroke="#63b8ff" points="936.2,-82.53 945.12,-76.81 934.58,-75.72 936.2,-82.53"/>
</a>
</g>
</g>
<!-- Node15&#45;&gt;Node10 -->
<g id="edge19_Node000015_Node000010" class="edge">
<title>Node15&#45;&gt;Node10</title>
<g id="a_edge19_Node000015_Node000010"><a xlink:title=" ">
<path fill="none" stroke="#63b8ff" d="M986.35,-111.59C986.35,-105.01 986.35,-95.96 986.35,-87.73"/>
<polygon fill="#63b8ff" stroke="#63b8ff" points="989.85,-87.81 986.35,-77.81 982.85,-87.81 989.85,-87.81"/>
</a>
</g>
</g>
<!-- Node17 -->
<g id="Node000017" class="node">
<title>Node17</title>
<g id="a_Node000017"><a xlink:title=" ">
<polygon fill="#e0e0e0" stroke="#999999" points="430.47,-188 358.22,-188 358.22,-168 430.47,-168 430.47,-188"/>
<text xml:space="preserve" text-anchor="middle" x="394.35" y="-174.5" font-family="Helvetica,sans-Serif" font-size="10.00">dpp/cluster.h</text>
</a>
</g>
</g>
<!-- Node16&#45;&gt;Node17 -->
<g id="edge22_Node000016_Node000017" class="edge">
<title>Node16&#45;&gt;Node17</title>
<g id="a_edge22_Node000016_Node000017"><a xlink:title=" ">
<path fill="none" stroke="#63b8ff" d="M544.65,-223.59C514.82,-214.74 469.93,-201.43 436.98,-191.65"/>
<polygon fill="#63b8ff" stroke="#63b8ff" points="438.33,-188.4 427.75,-188.91 436.34,-195.11 438.33,-188.4"/>
</a>
</g>
</g>
<!-- Node18 -->
<g id="Node000018" class="node">
<title>Node18</title>
<g id="a_Node000018"><a xlink:title=" ">
<polygon fill="#e0e0e0" stroke="#999999" points="536.35,-188 448.35,-188 448.35,-168 536.35,-168 536.35,-188"/>
<text xml:space="preserve" text-anchor="middle" x="492.35" y="-174.5" font-family="Helvetica,sans-Serif" font-size="10.00">dpp/dispatcher.h</text>
</a>
</g>
</g>
<!-- Node16&#45;&gt;Node18 -->
<g id="edge23_Node000016_Node000018" class="edge">
<title>Node16&#45;&gt;Node18</title>
<g id="a_edge23_Node000016_Node000018"><a xlink:title=" ">
<path fill="none" stroke="#63b8ff" d="M561.72,-223.59C549.27,-215.59 531.13,-203.93 516.53,-194.54"/>
<polygon fill="#63b8ff" stroke="#63b8ff" points="518.67,-191.76 508.37,-189.3 514.89,-197.65 518.67,-191.76"/>
</a>
</g>
</g>
<!-- Node19&#45;&gt;Node17 -->
<g id="edge25_Node000019_Node000017" class="edge">
<title>Node19&#45;&gt;Node17</title>
<g id="a_edge25_Node000019_Node000017"><a xlink:title=" ">
<path fill="none" stroke="#63b8ff" d="M327.46,-223.59C339.35,-215.67 356.61,-204.16 370.63,-194.82"/>
<polygon fill="#63b8ff" stroke="#63b8ff" points="372.49,-197.78 378.87,-189.32 368.61,-191.95 372.49,-197.78"/>
</a>
</g>
</g>
<!-- Node19&#45;&gt;Node18 -->
<g id="edge26_Node000019_Node000018" class="edge">
<title>Node19&#45;&gt;Node18</title>
<g id="a_edge26_Node000019_Node000018"><a xlink:title=" ">
<path fill="none" stroke="#63b8ff" d="M344.53,-223.59C373.74,-214.78 417.63,-201.54 450,-191.78"/>
<polygon fill="#63b8ff" stroke="#63b8ff" points="450.91,-195.16 459.48,-188.92 448.89,-188.45 450.91,-195.16"/>
</a>
</g>
</g>
<!-- Node20&#45;&gt;Node9 -->
<g id="edge31_Node000020_Node000009" class="edge">
<title>Node20&#45;&gt;Node9</title>
<g id="a_edge31_Node000020_Node000009"><a xlink:title=" ">
<path fill="none" stroke="#63b8ff" d="M92.19,-223.89C92.47,-209.7 95.24,-182.43 111.35,-168 143.6,-139.1 271.73,-128.21 333.16,-124.59"/>
<polygon fill="#63b8ff" stroke="#63b8ff" points="333.21,-128.1 343,-124.05 332.82,-121.11 333.21,-128.1"/>
</a>
</g>
</g>
<!-- Node20&#45;&gt;Node17 -->
<g id="edge29_Node000020_Node000017" class="edge">
<title>Node20&#45;&gt;Node17</title>
<g id="a_edge29_Node000020_Node000017"><a xlink:title=" ">
<path fill="none" stroke="#63b8ff" d="M145.3,-223.53C202.31,-213.34 292.18,-197.27 346.95,-187.48"/>
<polygon fill="#63b8ff" stroke="#63b8ff" points="347.36,-190.96 356.59,-185.75 346.13,-184.07 347.36,-190.96"/>
</a>
</g>
</g>
<!-- Node20&#45;&gt;Node18 -->
<g id="edge30_Node000020_Node000018" class="edge">
<title>Node20&#45;&gt;Node18</title>
<g id="a_edge30_Node000020_Node000018"><a xlink:title=" ">
<path fill="none" stroke="#63b8ff" d="M160.26,-224.51C240.73,-214.41 371.23,-197.84 437,-188.29"/>
<polygon fill="#63b8ff" stroke="#63b8ff" points="437.24,-191.79 446.63,-186.86 436.22,-184.86 437.24,-191.79"/>
</a>
</g>
</g>
<!-- Node21 -->
<g id="Node000021" class="node">
<title>Node21</title>
<g id="a_Node000021"><a xlink:title=" ">
<polygon fill="#e0e0e0" stroke="#999999" points="202.72,-188 119.97,-188 119.97,-168 202.72,-168 202.72,-188"/>
<text xml:space="preserve" text-anchor="middle" x="161.35" y="-174.5" font-family="Helvetica,sans-Serif" font-size="10.00">appcommand.h</text>
</a>
</g>
</g>
<!-- Node20&#45;&gt;Node21 -->
<g id="edge28_Node000020_Node000021" class="edge">
<title>Node20&#45;&gt;Node21</title>
<g id="a_edge28_Node000020_Node000021"><a xlink:title=" ">
<path fill="none" stroke="#63b8ff" d="M104.37,-223.59C114.36,-215.77 128.81,-204.46 140.66,-195.19"/>
<polygon fill="#63b8ff" stroke="#63b8ff" points="142.56,-198.15 148.28,-189.23 138.24,-192.64 142.56,-198.15"/>
</a>
</g>
</g>
<!-- Node22&#45;&gt;Node17 -->
<g id="edge33_Node000022_Node000017" class="edge">
<title>Node22&#45;&gt;Node17</title>
<g id="a_edge33_Node000022_Node000017"><a xlink:title=" ">
<path fill="none" stroke="#63b8ff" d="M434.81,-223.59C428.07,-216.16 418.46,-205.58 410.3,-196.58"/>
<polygon fill="#63b8ff" stroke="#63b8ff" points="413.12,-194.47 403.8,-189.42 407.93,-199.18 413.12,-194.47"/>
</a>
</g>
</g>
<!-- Node22&#45;&gt;Node18 -->
<g id="edge34_Node000022_Node000018" class="edge">
<title>Node22&#45;&gt;Node18</title>
<g id="a_edge34_Node000022_Node000018"><a xlink:title=" ">
<path fill="none" stroke="#63b8ff" d="M451.88,-223.59C458.63,-216.16 468.23,-205.58 476.39,-196.58"/>
<polygon fill="#63b8ff" stroke="#63b8ff" points="478.77,-199.18 482.89,-189.42 473.58,-194.47 478.77,-199.18"/>
</a>
</g>
</g>
<!-- Node23&#45;&gt;Node17 -->
<g id="edge36_Node000023_Node000017" class="edge">
<title>Node23&#45;&gt;Node17</title>
<g id="a_edge36_Node000023_Node000017"><a xlink:title=" ">
<path fill="none" stroke="#63b8ff" d="M758.89,-225.05C756.01,-224.69 753.15,-224.34 750.35,-224 615.87,-207.57 578.74,-209.54 441.99,-188.3"/>
<polygon fill="#63b8ff" stroke="#63b8ff" points="442.57,-184.85 432.15,-186.76 441.48,-191.77 442.57,-184.85"/>
</a>
</g>
</g>
<!-- Node23&#45;&gt;Node18 -->
<g id="edge37_Node000023_Node000018" class="edge">
<title>Node23&#45;&gt;Node18</title>
<g id="a_edge37_Node000023_Node000018"><a xlink:title=" ">
<path fill="none" stroke="#63b8ff" d="M762.84,-223.53C702.26,-213.56 607.51,-197.96 547.74,-188.12"/>
<polygon fill="#63b8ff" stroke="#63b8ff" points="548.57,-184.71 538.13,-186.54 547.43,-191.62 548.57,-184.71"/>
</a>
</g>
</g>
<!-- Node24&#45;&gt;Node17 -->
<g id="edge39_Node000024_Node000017" class="edge">
<title>Node24&#45;&gt;Node17</title>
<g id="a_edge39_Node000024_Node000017"><a xlink:title=" ">
<path fill="none" stroke="#63b8ff" d="M899.29,-224.97C896.27,-224.63 893.27,-224.3 890.35,-224 693.96,-203.55 640.43,-215.32 441.75,-188.18"/>
<polygon fill="#63b8ff" stroke="#63b8ff" points="442.52,-184.75 432.14,-186.85 441.56,-191.68 442.52,-184.75"/>
</a>
</g>
</g>
<!-- Node24&#45;&gt;Node18 -->
<g id="edge40_Node000024_Node000018" class="edge">
<title>Node24&#45;&gt;Node18</title>
<g id="a_edge40_Node000024_Node000018"><a xlink:title=" ">
<path fill="none" stroke="#63b8ff" d="M899.27,-225.09C896.26,-224.72 893.27,-224.35 890.35,-224 768.38,-209.26 625.19,-193.43 548.17,-185.04"/>
<polygon fill="#63b8ff" stroke="#63b8ff" points="548.67,-181.57 538.35,-183.97 547.91,-188.53 548.67,-181.57"/>
</a>
</g>
</g>
<!-- Node25&#45;&gt;Node17 -->
<g id="edge49_Node000025_Node000017" class="edge">
<title>Node25&#45;&gt;Node17</title>
<g id="a_edge49_Node000025_Node000017"><a xlink:title=" ">
<path fill="none" stroke="#63b8ff" d="M242.4,-223.59C272.56,-214.74 317.94,-201.43 351.25,-191.65"/>
<polygon fill="#63b8ff" stroke="#63b8ff" points="351.99,-195.08 360.6,-188.91 350.02,-188.36 351.99,-195.08"/>
</a>
</g>
</g>
<!-- Node25&#45;&gt;Node18 -->
<g id="edge50_Node000025_Node000018" class="edge">
<title>Node25&#45;&gt;Node18</title>
<g id="a_edge50_Node000025_Node000018"><a xlink:title=" ">
<path fill="none" stroke="#63b8ff" d="M243.45,-225.64C246.12,-225.08 248.78,-224.52 251.35,-224 314.68,-211.14 387.66,-197.71 436.57,-188.9"/>
<polygon fill="#63b8ff" stroke="#63b8ff" points="437.14,-192.36 446.36,-187.14 435.9,-185.47 437.14,-192.36"/>
</a>
</g>
</g>
</g>
</svg>
