<?xml version="1.0" encoding="UTF-8" standalone="no"?>
<!DOCTYPE svg PUBLIC "-//W3C//DTD SVG 1.1//EN"
 "http://www.w3.org/Graphics/SVG/1.1/DTD/svg11.dtd">
<!-- Generated by graphviz version 12.2.1 (0)
 -->
<!-- Title: src/bot_library/commands/portal/SetPortalCommand.hpp Pages: 1 -->
<svg width="1520pt" height="320pt"
 viewBox="0.00 0.00 1520.38 320.00" xmlns="http://www.w3.org/2000/svg" xmlns:xlink="http://www.w3.org/1999/xlink">
<g id="graph0" class="graph" transform="scale(1 1) rotate(0) translate(4 316)">
<title>src/bot_library/commands/portal/SetPortalCommand.hpp</title>
<!-- Node1 -->
<g id="Node000001" class="node">
<title>Node1</title>
<g id="a_Node000001"><a xlink:title=" ">
<polygon fill="#999999" stroke="#666666" points="1302.75,-312 1152.5,-312 1152.5,-280 1302.75,-280 1302.75,-312"/>
<text text-anchor="start" x="1160.5" y="-298.5" font-family="Helvetica,sans-Serif" font-size="10.00">src/bot_library/commands</text>
<text text-anchor="middle" x="1227.62" y="-286.5" font-family="Helvetica,sans-Serif" font-size="10.00">/portal/SetPortalCommand.hpp</text>
</a>
</g>
</g>
<!-- Node2 -->
<g id="Node000002" class="node">
<title>Node2</title>
<g id="a_Node000002"><a xlink:href="Bot_8hpp.html" target="_top" xlink:title=" ">
<polygon fill="white" stroke="#666666" points="919.5,-244 869.75,-244 869.75,-224 919.5,-224 919.5,-244"/>
<text text-anchor="middle" x="894.62" y="-230.5" font-family="Helvetica,sans-Serif" font-size="10.00">Bot.hpp</text>
</a>
</g>
</g>
<!-- Node1&#45;&gt;Node2 -->
<g id="edge1_Node000001_Node000002" class="edge">
<title>Node1&#45;&gt;Node2</title>
<g id="a_edge1_Node000001_Node000002"><a xlink:title=" ">
<path fill="none" stroke="#63b8ff" d="M1152.06,-281.39C1083.02,-268.95 983.89,-251.08 931.05,-241.56"/>
<polygon fill="#63b8ff" stroke="#63b8ff" points="931.84,-238.15 921.38,-239.82 930.6,-245.04 931.84,-238.15"/>
</a>
</g>
</g>
<!-- Node21 -->
<g id="Node000021" class="node">
<title>Node21</title>
<g id="a_Node000021"><a xlink:href="IMessageCommand_8hpp.html" target="_top" xlink:title=" ">
<polygon fill="white" stroke="#666666" points="1288.88,-132 1166.38,-132 1166.38,-112 1288.88,-112 1288.88,-132"/>
<text text-anchor="middle" x="1227.62" y="-118.5" font-family="Helvetica,sans-Serif" font-size="10.00">IMessageCommand.hpp</text>
</a>
</g>
</g>
<!-- Node1&#45;&gt;Node21 -->
<g id="edge48_Node000001_Node000021" class="edge">
<title>Node1&#45;&gt;Node21</title>
<g id="a_edge48_Node000001_Node000021"><a xlink:title=" ">
<path fill="none" stroke="#63b8ff" d="M1227.62,-279.74C1227.62,-248.69 1227.62,-178.18 1227.62,-143.31"/>
<polygon fill="#63b8ff" stroke="#63b8ff" points="1231.13,-143.72 1227.63,-133.72 1224.13,-143.72 1231.13,-143.72"/>
</a>
</g>
</g>
<!-- Node22 -->
<g id="Node000022" class="node">
<title>Node22</title>
<g id="a_Node000022"><a xlink:href="IReactionCommand_8hpp.html" target="_top" xlink:title=" ">
<polygon fill="white" stroke="#666666" points="1428.5,-132 1306.75,-132 1306.75,-112 1428.5,-112 1428.5,-132"/>
<text text-anchor="middle" x="1367.62" y="-118.5" font-family="Helvetica,sans-Serif" font-size="10.00">IReactionCommand.hpp</text>
</a>
</g>
</g>
<!-- Node1&#45;&gt;Node22 -->
<g id="edge49_Node000001_Node000022" class="edge">
<title>Node1&#45;&gt;Node22</title>
<g id="a_edge49_Node000001_Node000022"><a xlink:title=" ">
<path fill="none" stroke="#63b8ff" d="M1240.05,-279.74C1265.87,-248.01 1325.24,-175.07 1352.92,-141.06"/>
<polygon fill="#63b8ff" stroke="#63b8ff" points="1355.58,-143.35 1359.17,-133.38 1350.15,-138.93 1355.58,-143.35"/>
</a>
</g>
</g>
<!-- Node3 -->
<g id="Node000003" class="node">
<title>Node3</title>
<g id="a_Node000003"><a xlink:href="Core_8hpp.html" target="_top" xlink:title=" ">
<polygon fill="white" stroke="#666666" points="866.5,-188 810.75,-188 810.75,-168 866.5,-168 866.5,-188"/>
<text text-anchor="middle" x="838.62" y="-174.5" font-family="Helvetica,sans-Serif" font-size="10.00">Core.hpp</text>
</a>
</g>
</g>
<!-- Node2&#45;&gt;Node3 -->
<g id="edge2_Node000002_Node000003" class="edge">
<title>Node2&#45;&gt;Node3</title>
<g id="a_edge2_Node000002_Node000003"><a xlink:title=" ">
<path fill="none" stroke="#63b8ff" d="M884.87,-223.59C877,-216.01 865.73,-205.13 856.28,-196.02"/>
<polygon fill="#63b8ff" stroke="#63b8ff" points="858.99,-193.77 849.36,-189.35 854.13,-198.81 858.99,-193.77"/>
</a>
</g>
</g>
<!-- Node10 -->
<g id="Node000010" class="node">
<title>Node10</title>
<g id="a_Node000010"><a xlink:title=" ">
<polygon fill="#e0e0e0" stroke="#999999" points="407.62,-76 367.62,-76 367.62,-56 407.62,-56 407.62,-76"/>
<text text-anchor="middle" x="387.62" y="-62.5" font-family="Helvetica,sans-Serif" font-size="10.00">string</text>
</a>
</g>
</g>
<!-- Node2&#45;&gt;Node10 -->
<g id="edge46_Node000002_Node000010" class="edge">
<title>Node2&#45;&gt;Node10</title>
<g id="a_edge46_Node000002_Node000010"><a xlink:title=" ">
<path fill="none" stroke="#63b8ff" d="M869.38,-232.21C791.1,-229.46 553.53,-218.71 483.62,-188 449.02,-172.8 442.64,-161.98 419.62,-132 409.08,-118.26 400.62,-100.5 395.06,-87.02"/>
<polygon fill="#63b8ff" stroke="#63b8ff" points="398.39,-85.92 391.48,-77.89 391.87,-88.48 398.39,-85.92"/>
</a>
</g>
</g>
<!-- Node12 -->
<g id="Node000012" class="node">
<title>Node12</title>
<g id="a_Node000012"><a xlink:title=" ">
<polygon fill="#e0e0e0" stroke="#999999" points="469.12,-76 426.12,-76 426.12,-56 469.12,-56 469.12,-76"/>
<text text-anchor="middle" x="447.62" y="-62.5" font-family="Helvetica,sans-Serif" font-size="10.00">vector</text>
</a>
</g>
</g>
<!-- Node2&#45;&gt;Node12 -->
<g id="edge47_Node000002_Node000012" class="edge">
<title>Node2&#45;&gt;Node12</title>
<g id="a_edge47_Node000002_Node000012"><a xlink:title=" ">
<path fill="none" stroke="#63b8ff" d="M869.29,-231.63C780.17,-226.24 483.47,-203.13 428.62,-132 418.33,-118.65 425.53,-99.85 433.86,-85.9"/>
<polygon fill="#63b8ff" stroke="#63b8ff" points="436.75,-87.89 439.34,-77.62 430.91,-84.03 436.75,-87.89"/>
</a>
</g>
</g>
<!-- Node14 -->
<g id="Node000014" class="node">
<title>Node14</title>
<g id="a_Node000014"><a xlink:href="IButtonCommand_8hpp.html" target="_top" xlink:title=" ">
<polygon fill="white" stroke="#666666" points="1148.25,-132 1037,-132 1037,-112 1148.25,-112 1148.25,-132"/>
<text text-anchor="middle" x="1092.62" y="-118.5" font-family="Helvetica,sans-Serif" font-size="10.00">IButtonCommand.hpp</text>
</a>
</g>
</g>
<!-- Node2&#45;&gt;Node14 -->
<g id="edge35_Node000002_Node000014" class="edge">
<title>Node2&#45;&gt;Node14</title>
<g id="a_edge35_Node000002_Node000014"><a xlink:title=" ">
<path fill="none" stroke="#63b8ff" d="M911.51,-223.62C945.92,-204.5 1024.42,-160.89 1065.86,-137.87"/>
<polygon fill="#63b8ff" stroke="#63b8ff" points="1067.42,-141.01 1074.46,-133.09 1064.02,-134.89 1067.42,-141.01"/>
</a>
</g>
</g>
<!-- Node17 -->
<g id="Node000017" class="node">
<title>Node17</title>
<g id="a_Node000017"><a xlink:href="IFormCommand_8hpp.html" target="_top" xlink:title=" ">
<polygon fill="white" stroke="#666666" points="882.25,-132 777,-132 777,-112 882.25,-112 882.25,-132"/>
<text text-anchor="middle" x="829.62" y="-118.5" font-family="Helvetica,sans-Serif" font-size="10.00">IFormCommand.hpp</text>
</a>
</g>
</g>
<!-- Node2&#45;&gt;Node17 -->
<g id="edge36_Node000002_Node000017" class="edge">
<title>Node2&#45;&gt;Node17</title>
<g id="a_edge36_Node000002_Node000017"><a xlink:title=" ">
<path fill="none" stroke="#63b8ff" d="M893.41,-223.57C891.37,-210.36 886.39,-185.95 875.62,-168 869.23,-157.33 859.69,-147.44 850.96,-139.65"/>
<polygon fill="#63b8ff" stroke="#63b8ff" points="853.38,-137.11 843.48,-133.34 848.87,-142.46 853.38,-137.11"/>
</a>
</g>
</g>
<!-- Node18 -->
<g id="Node000018" class="node">
<title>Node18</title>
<g id="a_Node000018"><a xlink:href="IGlobalSlashCommand_8hpp.html" target="_top" xlink:title=" ">
<polygon fill="white" stroke="#666666" points="573.25,-132 438,-132 438,-112 573.25,-112 573.25,-132"/>
<text text-anchor="middle" x="505.62" y="-118.5" font-family="Helvetica,sans-Serif" font-size="10.00">IGlobalSlashCommand.hpp</text>
</a>
</g>
</g>
<!-- Node2&#45;&gt;Node18 -->
<g id="edge37_Node000002_Node000018" class="edge">
<title>Node2&#45;&gt;Node18</title>
<g id="a_edge37_Node000002_Node000018"><a xlink:title=" ">
<path fill="none" stroke="#63b8ff" d="M874.57,-223.54C855.67,-214.56 826.6,-200.61 801.62,-188 784.59,-179.4 781.69,-174.16 763.62,-168 731.3,-156.98 648.06,-143.4 584.8,-134.05"/>
<polygon fill="#63b8ff" stroke="#63b8ff" points="585.54,-130.62 575.14,-132.64 584.52,-137.55 585.54,-130.62"/>
</a>
</g>
</g>
<!-- Node20 -->
<g id="Node000020" class="node">
<title>Node20</title>
<g id="a_Node000020"><a xlink:href="IMemberCommand_8hpp.html" target="_top" xlink:title=" ">
<polygon fill="white" stroke="#666666" points="1018.62,-132 900.62,-132 900.62,-112 1018.62,-112 1018.62,-132"/>
<text text-anchor="middle" x="959.62" y="-118.5" font-family="Helvetica,sans-Serif" font-size="10.00">IMemberCommand.hpp</text>
</a>
</g>
</g>
<!-- Node2&#45;&gt;Node20 -->
<g id="edge38_Node000002_Node000020" class="edge">
<title>Node2&#45;&gt;Node20</title>
<g id="a_edge38_Node000002_Node000020"><a xlink:title=" ">
<path fill="none" stroke="#63b8ff" d="M900.17,-223.62C910.82,-205.6 934.33,-165.81 948.38,-142.02"/>
<polygon fill="#63b8ff" stroke="#63b8ff" points="951.25,-144.05 953.33,-133.66 945.23,-140.49 951.25,-144.05"/>
</a>
</g>
</g>
<!-- Node2&#45;&gt;Node21 -->
<g id="edge39_Node000002_Node000021" class="edge">
<title>Node2&#45;&gt;Node21</title>
<g id="a_edge39_Node000002_Node000021"><a xlink:title=" ">
<path fill="none" stroke="#63b8ff" d="M919.93,-224.64C977.58,-205.6 1119.05,-158.87 1188.24,-136.01"/>
<polygon fill="#63b8ff" stroke="#63b8ff" points="1189.26,-139.36 1197.65,-132.9 1187.06,-132.71 1189.26,-139.36"/>
</a>
</g>
</g>
<!-- Node2&#45;&gt;Node22 -->
<g id="edge40_Node000002_Node000022" class="edge">
<title>Node2&#45;&gt;Node22</title>
<g id="a_edge40_Node000002_Node000022"><a xlink:title=" ">
<path fill="none" stroke="#63b8ff" d="M919.72,-227.16C994.11,-209.86 1214.52,-158.61 1315.74,-135.07"/>
<polygon fill="#63b8ff" stroke="#63b8ff" points="1316.48,-138.49 1325.42,-132.81 1314.89,-131.67 1316.48,-138.49"/>
</a>
</g>
</g>
<!-- Node23 -->
<g id="Node000023" class="node">
<title>Node23</title>
<g id="a_Node000023"><a xlink:href="IReady_8hpp.html" target="_top" xlink:title=" ">
<polygon fill="white" stroke="#666666" points="1512.38,-132 1446.88,-132 1446.88,-112 1512.38,-112 1512.38,-132"/>
<text text-anchor="middle" x="1479.62" y="-118.5" font-family="Helvetica,sans-Serif" font-size="10.00">IReady.hpp</text>
</a>
</g>
</g>
<!-- Node2&#45;&gt;Node23 -->
<g id="edge41_Node000002_Node000023" class="edge">
<title>Node2&#45;&gt;Node23</title>
<g id="a_edge41_Node000002_Node000023"><a xlink:title=" ">
<path fill="none" stroke="#63b8ff" d="M919.85,-228.61C995.97,-215.3 1230.21,-173.89 1435.63,-132.37"/>
<polygon fill="#63b8ff" stroke="#63b8ff" points="1436.03,-135.86 1445.14,-130.44 1434.64,-129 1436.03,-135.86"/>
</a>
</g>
</g>
<!-- Node24 -->
<g id="Node000024" class="node">
<title>Node24</title>
<g id="a_Node000024"><a xlink:title=" ">
<polygon fill="#e0e0e0" stroke="#999999" points="685,-188 650.25,-188 650.25,-168 685,-168 685,-188"/>
<text text-anchor="middle" x="667.62" y="-174.5" font-family="Helvetica,sans-Serif" font-size="10.00">map</text>
</a>
</g>
</g>
<!-- Node2&#45;&gt;Node24 -->
<g id="edge44_Node000002_Node000024" class="edge">
<title>Node2&#45;&gt;Node24</title>
<g id="a_edge44_Node000002_Node000024"><a xlink:title=" ">
<path fill="none" stroke="#63b8ff" d="M869.33,-228.29C832.94,-221.31 763.58,-207.26 696.23,-188.51"/>
<polygon fill="#63b8ff" stroke="#63b8ff" points="697.47,-185.23 686.9,-185.88 695.57,-191.96 697.47,-185.23"/>
</a>
</g>
</g>
<!-- Node25 -->
<g id="Node000025" class="node">
<title>Node25</title>
<g id="a_Node000025"><a xlink:title=" ">
<polygon fill="#e0e0e0" stroke="#999999" points="754.25,-188 703,-188 703,-168 754.25,-168 754.25,-188"/>
<text text-anchor="middle" x="728.62" y="-174.5" font-family="Helvetica,sans-Serif" font-size="10.00">memory</text>
</a>
</g>
</g>
<!-- Node2&#45;&gt;Node25 -->
<g id="edge45_Node000002_Node000025" class="edge">
<title>Node2&#45;&gt;Node25</title>
<g id="a_edge45_Node000002_Node000025"><a xlink:title=" ">
<path fill="none" stroke="#63b8ff" d="M869.41,-224.8C841.67,-215.77 796.81,-201.18 765.2,-190.9"/>
<polygon fill="#63b8ff" stroke="#63b8ff" points="766.65,-187.69 756.06,-187.93 764.49,-194.35 766.65,-187.69"/>
</a>
</g>
</g>
<!-- Node4 -->
<g id="Node000004" class="node">
<title>Node4</title>
<g id="a_Node000004"><a xlink:title=" ">
<polygon fill="#e0e0e0" stroke="#999999" points="650,-132 591.25,-132 591.25,-112 650,-112 650,-132"/>
<text text-anchor="middle" x="620.62" y="-118.5" font-family="Helvetica,sans-Serif" font-size="10.00">dpp/dpp.h</text>
</a>
</g>
</g>
<!-- Node3&#45;&gt;Node4 -->
<g id="edge3_Node000003_Node000004" class="edge">
<title>Node3&#45;&gt;Node4</title>
<g id="a_edge3_Node000003_Node000004"><a xlink:title=" ">
<path fill="none" stroke="#63b8ff" d="M810.57,-170.05C772.67,-160.66 704.87,-143.87 661.36,-133.09"/>
<polygon fill="#63b8ff" stroke="#63b8ff" points="662.33,-129.73 651.78,-130.72 660.65,-136.52 662.33,-129.73"/>
</a>
</g>
</g>
<!-- Node5 -->
<g id="Node000005" class="node">
<title>Node5</title>
<g id="a_Node000005"><a xlink:title=" ">
<polygon fill="#e0e0e0" stroke="#999999" points="759.12,-132 668.12,-132 668.12,-112 759.12,-112 759.12,-132"/>
<text text-anchor="middle" x="713.62" y="-118.5" font-family="Helvetica,sans-Serif" font-size="10.00">dpp/misc&#45;enum.h</text>
</a>
</g>
</g>
<!-- Node3&#45;&gt;Node5 -->
<g id="edge4_Node000003_Node000005" class="edge">
<title>Node3&#45;&gt;Node5</title>
<g id="a_edge4_Node000003_Node000005"><a xlink:title=" ">
<path fill="none" stroke="#63b8ff" d="M816.85,-167.59C797.26,-159.13 768.2,-146.58 745.9,-136.94"/>
<polygon fill="#63b8ff" stroke="#63b8ff" points="747.53,-133.83 736.96,-133.08 744.75,-140.26 747.53,-133.83"/>
</a>
</g>
</g>
<!-- Node6 -->
<g id="Node000006" class="node">
<title>Node6</title>
<g id="a_Node000006"><a xlink:href="Database_8hpp.html" target="_top" xlink:title=" ">
<polygon fill="white" stroke="#666666" points="289,-132 212.25,-132 212.25,-112 289,-112 289,-132"/>
<text text-anchor="middle" x="250.62" y="-118.5" font-family="Helvetica,sans-Serif" font-size="10.00">Database.hpp</text>
</a>
</g>
</g>
<!-- Node3&#45;&gt;Node6 -->
<g id="edge5_Node000003_Node000006" class="edge">
<title>Node3&#45;&gt;Node6</title>
<g id="a_edge5_Node000003_Node000006"><a xlink:title=" ">
<path fill="none" stroke="#63b8ff" d="M810.51,-173.41C796.44,-171.67 779.15,-169.61 763.62,-168 594.09,-150.4 392.56,-134.06 300.71,-126.86"/>
<polygon fill="#63b8ff" stroke="#63b8ff" points="301.03,-123.37 290.79,-126.08 300.48,-130.35 301.03,-123.37"/>
</a>
</g>
</g>
<!-- Node3&#45;&gt;Node10 -->
<g id="edge34_Node000003_Node000010" class="edge">
<title>Node3&#45;&gt;Node10</title>
<g id="a_edge34_Node000003_Node000010"><a xlink:title=" ">
<path fill="none" stroke="#63b8ff" d="M810.5,-173.54C796.43,-171.83 779.13,-169.76 763.62,-168 689.23,-159.54 492.16,-171.62 428.62,-132 412.02,-121.65 400.99,-101.83 394.59,-86.79"/>
<polygon fill="#63b8ff" stroke="#63b8ff" points="398.01,-85.92 391.13,-77.86 391.48,-88.45 398.01,-85.92"/>
</a>
</g>
</g>
<!-- Node3&#45;&gt;Node14 -->
<g id="edge14_Node000003_Node000014" class="edge">
<title>Node3&#45;&gt;Node14</title>
<g id="a_edge14_Node000003_Node000014"><a xlink:title=" ">
<path fill="none" stroke="#63b8ff" d="M866.78,-171.01C907.69,-162.32 984.42,-146 1037,-134.83"/>
<polygon fill="#63b8ff" stroke="#63b8ff" points="1037.62,-138.27 1046.67,-132.77 1036.16,-131.43 1037.62,-138.27"/>
</a>
</g>
</g>
<!-- Node3&#45;&gt;Node17 -->
<g id="edge17_Node000003_Node000017" class="edge">
<title>Node3&#45;&gt;Node17</title>
<g id="a_edge17_Node000003_Node000017"><a xlink:title=" ">
<path fill="none" stroke="#63b8ff" d="M837.06,-167.59C835.95,-160.93 834.42,-151.75 833.03,-143.44"/>
<polygon fill="#63b8ff" stroke="#63b8ff" points="836.52,-143.08 831.42,-133.79 829.62,-144.23 836.52,-143.08"/>
</a>
</g>
</g>
<!-- Node3&#45;&gt;Node18 -->
<g id="edge20_Node000003_Node000018" class="edge">
<title>Node3&#45;&gt;Node18</title>
<g id="a_edge20_Node000003_Node000018"><a xlink:title=" ">
<path fill="none" stroke="#63b8ff" d="M810.66,-170.77C805.98,-169.8 801.17,-168.84 796.62,-168 725.19,-154.83 643.4,-142.42 584.76,-133.98"/>
<polygon fill="#63b8ff" stroke="#63b8ff" points="585.62,-130.57 575.22,-132.61 584.62,-137.5 585.62,-130.57"/>
</a>
</g>
</g>
<!-- Node3&#45;&gt;Node20 -->
<g id="edge25_Node000003_Node000020" class="edge">
<title>Node3&#45;&gt;Node20</title>
<g id="a_edge25_Node000003_Node000020"><a xlink:title=" ">
<path fill="none" stroke="#63b8ff" d="M859.7,-167.59C878.58,-159.17 906.54,-146.69 928.09,-137.07"/>
<polygon fill="#63b8ff" stroke="#63b8ff" points="929.3,-140.37 937,-133.1 926.44,-133.98 929.3,-140.37"/>
</a>
</g>
</g>
<!-- Node3&#45;&gt;Node21 -->
<g id="edge28_Node000003_Node000021" class="edge">
<title>Node3&#45;&gt;Node21</title>
<g id="a_edge28_Node000003_Node000021"><a xlink:title=" ">
<path fill="none" stroke="#63b8ff" d="M866.91,-173.07C926.73,-164.77 1067.68,-145.2 1154.61,-133.14"/>
<polygon fill="#63b8ff" stroke="#63b8ff" points="1155.06,-136.61 1164.49,-131.76 1154.1,-129.67 1155.06,-136.61"/>
</a>
</g>
</g>
<!-- Node3&#45;&gt;Node22 -->
<g id="edge31_Node000003_Node000022" class="edge">
<title>Node3&#45;&gt;Node22</title>
<g id="a_edge31_Node000003_Node000022"><a xlink:title=" ">
<path fill="none" stroke="#63b8ff" d="M866.86,-174.53C937.2,-168.31 1126.17,-151.23 1295.19,-132.24"/>
<polygon fill="#63b8ff" stroke="#63b8ff" points="1295.51,-135.73 1305.05,-131.13 1294.72,-128.78 1295.51,-135.73"/>
</a>
</g>
</g>
<!-- Node7 -->
<g id="Node000007" class="node">
<title>Node7</title>
<g id="a_Node000007"><a xlink:title=" ">
<polygon fill="#e0e0e0" stroke="#999999" points="111.75,-76 63.5,-76 63.5,-56 111.75,-56 111.75,-76"/>
<text text-anchor="middle" x="87.62" y="-62.5" font-family="Helvetica,sans-Serif" font-size="10.00">cstddef</text>
</a>
</g>
</g>
<!-- Node6&#45;&gt;Node7 -->
<g id="edge6_Node000006_Node000007" class="edge">
<title>Node6&#45;&gt;Node7</title>
<g id="a_edge6_Node000006_Node000007"><a xlink:title=" ">
<path fill="none" stroke="#63b8ff" d="M222.23,-111.59C194.65,-102.46 152.7,-88.56 122.97,-78.71"/>
<polygon fill="#63b8ff" stroke="#63b8ff" points="124.26,-75.45 113.67,-75.63 122.06,-82.1 124.26,-75.45"/>
</a>
</g>
</g>
<!-- Node8 -->
<g id="Node000008" class="node">
<title>Node8</title>
<g id="a_Node000008"><a xlink:title=" ">
<polygon fill="#e0e0e0" stroke="#999999" points="183.38,-76 129.88,-76 129.88,-56 183.38,-56 183.38,-76"/>
<text text-anchor="middle" x="156.62" y="-62.5" font-family="Helvetica,sans-Serif" font-size="10.00">iostream</text>
</a>
</g>
</g>
<!-- Node6&#45;&gt;Node8 -->
<g id="edge7_Node000006_Node000008" class="edge">
<title>Node6&#45;&gt;Node8</title>
<g id="a_edge7_Node000006_Node000008"><a xlink:title=" ">
<path fill="none" stroke="#63b8ff" d="M234.25,-111.59C220.05,-103.44 199.24,-91.48 182.74,-82"/>
<polygon fill="#63b8ff" stroke="#63b8ff" points="184.85,-79.18 174.44,-77.23 181.37,-85.25 184.85,-79.18"/>
</a>
</g>
</g>
<!-- Node9 -->
<g id="Node000009" class="node">
<title>Node9</title>
<g id="a_Node000009"><a xlink:title=" ">
<polygon fill="#e0e0e0" stroke="#999999" points="283.12,-20 222.12,-20 222.12,0 283.12,0 283.12,-20"/>
<text text-anchor="middle" x="252.62" y="-6.5" font-family="Helvetica,sans-Serif" font-size="10.00">pqxx/pqxx</text>
</a>
</g>
</g>
<!-- Node6&#45;&gt;Node9 -->
<g id="edge8_Node000006_Node000009" class="edge">
<title>Node6&#45;&gt;Node9</title>
<g id="a_edge8_Node000006_Node000009"><a xlink:title=" ">
<path fill="none" stroke="#63b8ff" d="M244.61,-111.86C237.15,-99.38 225.94,-76.25 230.62,-56 232.7,-47.02 236.83,-37.76 240.96,-29.99"/>
<polygon fill="#63b8ff" stroke="#63b8ff" points="243.89,-31.91 245.82,-21.5 237.82,-28.43 243.89,-31.91"/>
</a>
</g>
</g>
<!-- Node6&#45;&gt;Node10 -->
<g id="edge9_Node000006_Node000010" class="edge">
<title>Node6&#45;&gt;Node10</title>
<g id="a_edge9_Node000006_Node000010"><a xlink:title=" ">
<path fill="none" stroke="#63b8ff" d="M274.49,-111.59C297.23,-102.63 331.58,-89.09 356.47,-79.28"/>
<polygon fill="#63b8ff" stroke="#63b8ff" points="357.73,-82.54 365.75,-75.62 355.17,-76.03 357.73,-82.54"/>
</a>
</g>
</g>
<!-- Node11 -->
<g id="Node000011" class="node">
<title>Node11</title>
<g id="a_Node000011"><a xlink:title=" ">
<polygon fill="#e0e0e0" stroke="#999999" points="45.25,-76 0,-76 0,-56 45.25,-56 45.25,-76"/>
<text text-anchor="middle" x="22.62" y="-62.5" font-family="Helvetica,sans-Serif" font-size="10.00">variant</text>
</a>
</g>
</g>
<!-- Node6&#45;&gt;Node11 -->
<g id="edge10_Node000006_Node000011" class="edge">
<title>Node6&#45;&gt;Node11</title>
<g id="a_edge10_Node000006_Node000011"><a xlink:title=" ">
<path fill="none" stroke="#63b8ff" d="M211.81,-112.67C174.5,-104.53 116.25,-91.5 56.78,-76.45"/>
<polygon fill="#63b8ff" stroke="#63b8ff" points="57.68,-73.07 47.13,-74 55.95,-79.86 57.68,-73.07"/>
</a>
</g>
</g>
<!-- Node6&#45;&gt;Node12 -->
<g id="edge11_Node000006_Node000012" class="edge">
<title>Node6&#45;&gt;Node12</title>
<g id="a_edge11_Node000006_Node000012"><a xlink:title=" ">
<path fill="none" stroke="#63b8ff" d="M286.3,-111.53C317.65,-103.16 364.78,-90.47 414.89,-76.45"/>
<polygon fill="#63b8ff" stroke="#63b8ff" points="415.82,-79.82 424.5,-73.75 413.93,-73.08 415.82,-79.82"/>
</a>
</g>
</g>
<!-- Node13 -->
<g id="Node000013" class="node">
<title>Node13</title>
<g id="a_Node000013"><a xlink:href="RowDTOAdapter_8hpp.html" target="_top" xlink:title=" ">
<polygon fill="white" stroke="#666666" points="349.5,-76 239.75,-76 239.75,-56 349.5,-56 349.5,-76"/>
<text text-anchor="middle" x="294.62" y="-62.5" font-family="Helvetica,sans-Serif" font-size="10.00">RowDTOAdapter.hpp</text>
</a>
</g>
</g>
<!-- Node6&#45;&gt;Node13 -->
<g id="edge12_Node000006_Node000013" class="edge">
<title>Node6&#45;&gt;Node13</title>
<g id="a_edge12_Node000006_Node000013"><a xlink:title=" ">
<path fill="none" stroke="#63b8ff" d="M258.29,-111.59C264.22,-104.32 272.61,-94.02 279.84,-85.15"/>
<polygon fill="#63b8ff" stroke="#63b8ff" points="282.49,-87.43 286.09,-77.47 277.06,-83.01 282.49,-87.43"/>
</a>
</g>
</g>
<!-- Node13&#45;&gt;Node9 -->
<g id="edge13_Node000013_Node000009" class="edge">
<title>Node13&#45;&gt;Node9</title>
<g id="a_edge13_Node000013_Node000009"><a xlink:title=" ">
<path fill="none" stroke="#63b8ff" d="M287.31,-55.59C281.65,-48.32 273.64,-38.02 266.74,-29.15"/>
<polygon fill="#63b8ff" stroke="#63b8ff" points="269.69,-27.24 260.79,-21.49 264.16,-31.54 269.69,-27.24"/>
</a>
</g>
</g>
<!-- Node15 -->
<g id="Node000015" class="node">
<title>Node15</title>
<g id="a_Node000015"><a xlink:title=" ">
<polygon fill="#e0e0e0" stroke="#999999" points="1177.75,-76 1105.5,-76 1105.5,-56 1177.75,-56 1177.75,-76"/>
<text text-anchor="middle" x="1141.62" y="-62.5" font-family="Helvetica,sans-Serif" font-size="10.00">dpp/cluster.h</text>
</a>
</g>
</g>
<!-- Node14&#45;&gt;Node15 -->
<g id="edge15_Node000014_Node000015" class="edge">
<title>Node14&#45;&gt;Node15</title>
<g id="a_edge15_Node000014_Node000015"><a xlink:title=" ">
<path fill="none" stroke="#63b8ff" d="M1101.16,-111.59C1107.91,-104.16 1117.51,-93.58 1125.67,-84.58"/>
<polygon fill="#63b8ff" stroke="#63b8ff" points="1128.04,-87.18 1132.17,-77.42 1122.86,-82.47 1128.04,-87.18"/>
</a>
</g>
</g>
<!-- Node16 -->
<g id="Node000016" class="node">
<title>Node16</title>
<g id="a_Node000016"><a xlink:title=" ">
<polygon fill="#e0e0e0" stroke="#999999" points="1087.62,-76 999.62,-76 999.62,-56 1087.62,-56 1087.62,-76"/>
<text text-anchor="middle" x="1043.62" y="-62.5" font-family="Helvetica,sans-Serif" font-size="10.00">dpp/dispatcher.h</text>
</a>
</g>
</g>
<!-- Node14&#45;&gt;Node16 -->
<g id="edge16_Node000014_Node000016" class="edge">
<title>Node14&#45;&gt;Node16</title>
<g id="a_edge16_Node000014_Node000016"><a xlink:title=" ">
<path fill="none" stroke="#63b8ff" d="M1084.09,-111.59C1077.34,-104.16 1067.74,-93.58 1059.58,-84.58"/>
<polygon fill="#63b8ff" stroke="#63b8ff" points="1062.39,-82.47 1053.08,-77.42 1057.21,-87.18 1062.39,-82.47"/>
</a>
</g>
</g>
<!-- Node17&#45;&gt;Node15 -->
<g id="edge18_Node000017_Node000015" class="edge">
<title>Node17&#45;&gt;Node15</title>
<g id="a_edge18_Node000017_Node000015"><a xlink:title=" ">
<path fill="none" stroke="#63b8ff" d="M882.65,-112.55C934.16,-104.23 1014.88,-90.91 1094.13,-76.42"/>
<polygon fill="#63b8ff" stroke="#63b8ff" points="1094.6,-79.89 1103.81,-74.64 1093.34,-73 1094.6,-79.89"/>
</a>
</g>
</g>
<!-- Node17&#45;&gt;Node16 -->
<g id="edge19_Node000017_Node000016" class="edge">
<title>Node17&#45;&gt;Node16</title>
<g id="a_edge19_Node000017_Node000016"><a xlink:title=" ">
<path fill="none" stroke="#63b8ff" d="M866.9,-111.59C902.43,-102.63 956.13,-89.08 995.01,-79.27"/>
<polygon fill="#63b8ff" stroke="#63b8ff" points="995.75,-82.69 1004.59,-76.85 994.04,-75.9 995.75,-82.69"/>
</a>
</g>
</g>
<!-- Node18&#45;&gt;Node12 -->
<g id="edge24_Node000018_Node000012" class="edge">
<title>Node18&#45;&gt;Node12</title>
<g id="a_edge24_Node000018_Node000012"><a xlink:title=" ">
<path fill="none" stroke="#63b8ff" d="M495.52,-111.59C487.37,-104.01 475.69,-93.13 465.91,-84.02"/>
<polygon fill="#63b8ff" stroke="#63b8ff" points="468.42,-81.58 458.72,-77.33 463.65,-86.71 468.42,-81.58"/>
</a>
</g>
</g>
<!-- Node18&#45;&gt;Node15 -->
<g id="edge22_Node000018_Node000015" class="edge">
<title>Node18&#45;&gt;Node15</title>
<g id="a_edge22_Node000018_Node000015"><a xlink:title=" ">
<path fill="none" stroke="#63b8ff" d="M573.63,-112.88C576.67,-112.57 579.68,-112.28 582.62,-112 806.96,-91.04 867.72,-106.02 1094.09,-76.17"/>
<polygon fill="#63b8ff" stroke="#63b8ff" points="1094.39,-79.66 1103.84,-74.87 1093.47,-72.72 1094.39,-79.66"/>
</a>
</g>
</g>
<!-- Node18&#45;&gt;Node16 -->
<g id="edge23_Node000018_Node000016" class="edge">
<title>Node18&#45;&gt;Node16</title>
<g id="a_edge23_Node000018_Node000016"><a xlink:title=" ">
<path fill="none" stroke="#63b8ff" d="M573.64,-112.98C576.67,-112.64 579.68,-112.32 582.62,-112 728.82,-96.32 901.35,-80.08 988.02,-72.08"/>
<polygon fill="#63b8ff" stroke="#63b8ff" points="988.27,-75.57 997.91,-71.17 987.63,-68.6 988.27,-75.57"/>
</a>
</g>
</g>
<!-- Node19 -->
<g id="Node000019" class="node">
<title>Node19</title>
<g id="a_Node000019"><a xlink:title=" ">
<polygon fill="#e0e0e0" stroke="#999999" points="570,-76 487.25,-76 487.25,-56 570,-56 570,-76"/>
<text text-anchor="middle" x="528.62" y="-62.5" font-family="Helvetica,sans-Serif" font-size="10.00">appcommand.h</text>
</a>
</g>
</g>
<!-- Node18&#45;&gt;Node19 -->
<g id="edge21_Node000018_Node000019" class="edge">
<title>Node18&#45;&gt;Node19</title>
<g id="a_edge21_Node000018_Node000019"><a xlink:title=" ">
<path fill="none" stroke="#63b8ff" d="M509.63,-111.59C512.53,-104.78 516.56,-95.32 520.17,-86.86"/>
<polygon fill="#63b8ff" stroke="#63b8ff" points="523.37,-88.26 524.07,-77.69 516.93,-85.52 523.37,-88.26"/>
</a>
</g>
</g>
<!-- Node20&#45;&gt;Node15 -->
<g id="edge26_Node000020_Node000015" class="edge">
<title>Node20&#45;&gt;Node15</title>
<g id="a_edge26_Node000020_Node000015"><a xlink:title=" ">
<path fill="none" stroke="#63b8ff" d="M991.33,-111.59C1021.16,-102.74 1066.04,-89.43 1099,-79.65"/>
<polygon fill="#63b8ff" stroke="#63b8ff" points="1099.63,-83.11 1108.22,-76.91 1097.64,-76.4 1099.63,-83.11"/>
</a>
</g>
</g>
<!-- Node20&#45;&gt;Node16 -->
<g id="edge27_Node000020_Node000016" class="edge">
<title>Node20&#45;&gt;Node16</title>
<g id="a_edge27_Node000020_Node000016"><a xlink:title=" ">
<path fill="none" stroke="#63b8ff" d="M974.26,-111.59C986.71,-103.59 1004.84,-91.93 1019.45,-82.54"/>
<polygon fill="#63b8ff" stroke="#63b8ff" points="1021.09,-85.65 1027.61,-77.3 1017.3,-79.76 1021.09,-85.65"/>
</a>
</g>
</g>
<!-- Node21&#45;&gt;Node15 -->
<g id="edge29_Node000021_Node000015" class="edge">
<title>Node21&#45;&gt;Node15</title>
<g id="a_edge29_Node000021_Node000015"><a xlink:title=" ">
<path fill="none" stroke="#63b8ff" d="M1212.64,-111.59C1199.9,-103.59 1181.33,-91.93 1166.38,-82.54"/>
<polygon fill="#63b8ff" stroke="#63b8ff" points="1168.33,-79.64 1158,-77.28 1164.61,-85.57 1168.33,-79.64"/>
</a>
</g>
</g>
<!-- Node21&#45;&gt;Node16 -->
<g id="edge30_Node000021_Node000016" class="edge">
<title>Node21&#45;&gt;Node16</title>
<g id="a_edge30_Node000021_Node000016"><a xlink:title=" ">
<path fill="none" stroke="#63b8ff" d="M1195.57,-111.59C1165.42,-102.74 1120.04,-89.43 1086.72,-79.65"/>
<polygon fill="#63b8ff" stroke="#63b8ff" points="1087.96,-76.36 1077.38,-76.91 1085.99,-83.08 1087.96,-76.36"/>
</a>
</g>
</g>
<!-- Node22&#45;&gt;Node15 -->
<g id="edge32_Node000022_Node000015" class="edge">
<title>Node22&#45;&gt;Node15</title>
<g id="a_edge32_Node000022_Node000015"><a xlink:title=" ">
<path fill="none" stroke="#63b8ff" d="M1328,-111.53C1289.35,-102.3 1230.53,-88.24 1189.33,-78.4"/>
<polygon fill="#63b8ff" stroke="#63b8ff" points="1190.22,-75.01 1179.68,-76.09 1188.59,-81.82 1190.22,-75.01"/>
</a>
</g>
</g>
<!-- Node22&#45;&gt;Node16 -->
<g id="edge33_Node000022_Node000016" class="edge">
<title>Node22&#45;&gt;Node16</title>
<g id="a_edge33_Node000022_Node000016"><a xlink:title=" ">
<path fill="none" stroke="#63b8ff" d="M1310.25,-111.54C1257.86,-102.88 1177.93,-89.64 1099,-76.39"/>
<polygon fill="#63b8ff" stroke="#63b8ff" points="1099.8,-72.98 1089.36,-74.78 1098.64,-79.88 1099.8,-72.98"/>
</a>
</g>
</g>
<!-- Node23&#45;&gt;Node15 -->
<g id="edge42_Node000023_Node000015" class="edge">
<title>Node23&#45;&gt;Node15</title>
<g id="a_edge42_Node000023_Node000015"><a xlink:title=" ">
<path fill="none" stroke="#63b8ff" d="M1446.65,-113.74C1443.6,-113.13 1440.56,-112.54 1437.62,-112 1350.38,-96.04 1247.94,-81.36 1189.32,-73.35"/>
<polygon fill="#63b8ff" stroke="#63b8ff" points="1190.08,-69.92 1179.7,-72.04 1189.14,-76.86 1190.08,-69.92"/>
</a>
</g>
</g>
<!-- Node23&#45;&gt;Node16 -->
<g id="edge43_Node000023_Node000016" class="edge">
<title>Node23&#45;&gt;Node16</title>
<g id="a_edge43_Node000023_Node000016"><a xlink:title=" ">
<path fill="none" stroke="#63b8ff" d="M1446.67,-113.59C1443.62,-113.01 1440.57,-112.47 1437.62,-112 1290.66,-88.56 1249.52,-96.37 1098.88,-76.22"/>
<polygon fill="#63b8ff" stroke="#63b8ff" points="1099.72,-72.8 1089.34,-74.93 1098.78,-79.74 1099.72,-72.8"/>
</a>
</g>
</g>
</g>
</svg>
