<?xml version="1.0" encoding="UTF-8" standalone="no"?>
<!DOCTYPE svg PUBLIC "-//W3C//DTD SVG 1.1//EN"
 "http://www.w3.org/Graphics/SVG/1.1/DTD/svg11.dtd">
<!-- Generated by graphviz version 10.0.1 (0)
 -->
<!-- Title: src/bot_library/commands/portal/SetPortalCommand.hpp Pages: 1 -->
<svg width="304pt" height="108pt"
 viewBox="0.00 0.00 304.38 108.00" xmlns="http://www.w3.org/2000/svg" xmlns:xlink="http://www.w3.org/1999/xlink">
<g id="graph0" class="graph" transform="scale(1 1) rotate(0) translate(4 104)">
<title>src/bot_library/commands/portal/SetPortalCommand.hpp</title>
<!-- Node1 -->
<g id="Node000001" class="node">
<title>Node1</title>
<g id="a_Node000001"><a xlink:title=" ">
<polygon fill="#999999" stroke="#666666" points="217.38,-100 67.12,-100 67.12,-68 217.38,-68 217.38,-100"/>
<text text-anchor="start" x="75.12" y="-86.5" font-family="Helvetica,sans-Serif" font-size="10.00">src/bot_library/commands</text>
<text text-anchor="middle" x="142.25" y="-74.5" font-family="Helvetica,sans-Serif" font-size="10.00">/portal/SetPortalCommand.hpp</text>
</a>
</g>
</g>
<!-- Node2 -->
<g id="Node000002" class="node">
<title>Node2</title>
<g id="a_Node000002"><a xlink:href="Commands_8cpp.html" target="_top" xlink:title=" ">
<polygon fill="white" stroke="#666666" points="128.5,-32 0,-32 0,0 128.5,0 128.5,-32"/>
<text text-anchor="start" x="8" y="-18.5" font-family="Helvetica,sans-Serif" font-size="10.00">src/bot_library/commands</text>
<text text-anchor="middle" x="64.25" y="-6.5" font-family="Helvetica,sans-Serif" font-size="10.00">/Commands.cpp</text>
</a>
</g>
</g>
<!-- Node1&#45;&gt;Node2 -->
<g id="edge1_Node000001_Node000002" class="edge">
<title>Node1&#45;&gt;Node2</title>
<g id="a_edge1_Node000001_Node000002"><a xlink:title=" ">
<path fill="none" stroke="#63b8ff" d="M115.45,-60.32C104.58,-51.13 92.32,-40.75 82.51,-32.45"/>
<polygon fill="#63b8ff" stroke="#63b8ff" points="113.11,-62.93 123,-66.71 117.63,-57.58 113.11,-62.93"/>
</a>
</g>
</g>
<!-- Node3 -->
<g id="Node000003" class="node">
<title>Node3</title>
<g id="a_Node000003"><a xlink:href="SetPortalCommand_8cpp.html" target="_top" xlink:title=" ">
<polygon fill="white" stroke="#666666" points="296.38,-32 146.12,-32 146.12,0 296.38,0 296.38,-32"/>
<text text-anchor="start" x="154.12" y="-18.5" font-family="Helvetica,sans-Serif" font-size="10.00">src/bot_library/commands</text>
<text text-anchor="middle" x="221.25" y="-6.5" font-family="Helvetica,sans-Serif" font-size="10.00">/portal/SetPortalCommand.cpp</text>
</a>
</g>
</g>
<!-- Node1&#45;&gt;Node3 -->
<g id="edge2_Node000001_Node000003" class="edge">
<title>Node1&#45;&gt;Node3</title>
<g id="a_edge2_Node000001_Node000003"><a xlink:title=" ">
<path fill="none" stroke="#63b8ff" d="M169.39,-60.32C180.4,-51.13 192.82,-40.75 202.75,-32.45"/>
<polygon fill="#63b8ff" stroke="#63b8ff" points="167.16,-57.62 161.73,-66.72 171.65,-63 167.16,-57.62"/>
</a>
</g>
</g>
</g>
</svg>
