<?xml version="1.0" encoding="UTF-8" standalone="no"?>
<!DOCTYPE svg PUBLIC "-//W3C//DTD SVG 1.1//EN"
 "http://www.w3.org/Graphics/SVG/1.1/DTD/svg11.dtd">
<!-- Generated by graphviz version 14.1.5 (0)
 -->
<!-- Title: src/bot_library/restapi/include/StatusHandler.hpp Pages: 1 -->
<svg width="312pt" height="108pt"
 viewBox="0.00 0.00 312.00 108.00" xmlns="http://www.w3.org/2000/svg" xmlns:xlink="http://www.w3.org/1999/xlink">
<g id="graph0" class="graph" transform="scale(1 1) rotate(0) translate(4 104)">
<title>src/bot_library/restapi/include/StatusHandler.hpp</title>
<!-- Node1 -->
<g id="Node000001" class="node">
<title>Node1</title>
<g id="a_Node000001"><a xlink:title=" ">
<polygon fill="#999999" stroke="#666666" points="234.75,-100 101,-100 101,-68 234.75,-68 234.75,-100"/>
<text xml:space="preserve" text-anchor="start" x="109" y="-86.5" font-family="Helvetica,sans-Serif" font-size="10.00">src/bot_library/restapi</text>
<text xml:space="preserve" text-anchor="middle" x="167.88" y="-74.5" font-family="Helvetica,sans-Serif" font-size="10.00">/include/StatusHandler.hpp</text>
</a>
</g>
</g>
<!-- Node2 -->
<g id="Node000002" class="node">
<title>Node2</title>
<g id="a_Node000002"><a xlink:href="RestApiRequestHandlerFactory_8cpp.html" target="_top" xlink:title=" ">
<polygon fill="white" stroke="#666666" points="175.75,-32 0,-32 0,0 175.75,0 175.75,-32"/>
<text xml:space="preserve" text-anchor="start" x="8" y="-18.5" font-family="Helvetica,sans-Serif" font-size="10.00">src/bot_library/restapi</text>
<text xml:space="preserve" text-anchor="middle" x="87.88" y="-6.5" font-family="Helvetica,sans-Serif" font-size="10.00">/RestApiRequestHandlerFactory.cpp</text>
</a>
</g>
</g>
<!-- Node1&#45;&gt;Node2 -->
<g id="edge1_Node000001_Node000002" class="edge">
<title>Node1&#45;&gt;Node2</title>
<g id="a_edge1_Node000001_Node000002"><a xlink:title=" ">
<path fill="none" stroke="#63b8ff" d="M140.72,-60.6C129.5,-51.34 116.76,-40.83 106.61,-32.45"/>
<polygon fill="#63b8ff" stroke="#63b8ff" points="138.21,-63.07 148.15,-66.73 142.67,-57.67 138.21,-63.07"/>
</a>
</g>
</g>
<!-- Node3 -->
<g id="Node000003" class="node">
<title>Node3</title>
<g id="a_Node000003"><a xlink:href="StatusHandler_8cpp.html" target="_top" xlink:title=" ">
<polygon fill="white" stroke="#666666" points="303.75,-32 194,-32 194,0 303.75,0 303.75,-32"/>
<text xml:space="preserve" text-anchor="start" x="202" y="-18.5" font-family="Helvetica,sans-Serif" font-size="10.00">src/bot_library/restapi</text>
<text xml:space="preserve" text-anchor="middle" x="248.88" y="-6.5" font-family="Helvetica,sans-Serif" font-size="10.00">/StatusHandler.cpp</text>
</a>
</g>
</g>
<!-- Node1&#45;&gt;Node3 -->
<g id="edge2_Node000001_Node000003" class="edge">
<title>Node1&#45;&gt;Node3</title>
<g id="a_edge2_Node000001_Node000003"><a xlink:title=" ">
<path fill="none" stroke="#63b8ff" d="M195.37,-60.6C206.73,-51.34 219.63,-40.83 229.91,-32.45"/>
<polygon fill="#63b8ff" stroke="#63b8ff" points="193.38,-57.71 187.83,-66.74 197.8,-63.13 193.38,-57.71"/>
</a>
</g>
</g>
</g>
</svg>
