<?xml version="1.0" encoding="UTF-8" standalone="no"?>
<!DOCTYPE svg PUBLIC "-//W3C//DTD SVG 1.1//EN"
 "http://www.w3.org/Graphics/SVG/1.1/DTD/svg11.dtd">
<!-- Generated by graphviz version 10.0.1 (0)
 -->
<!-- Title: src/bot_library/commands/texts/TextsCommand.cpp Pages: 1 -->
<svg width="1539pt" height="376pt"
 viewBox="0.00 0.00 1539.12 376.00" xmlns="http://www.w3.org/2000/svg" xmlns:xlink="http://www.w3.org/1999/xlink">
<g id="graph0" class="graph" transform="scale(1 1) rotate(0) translate(4 372)">
<title>src/bot_library/commands/texts/TextsCommand.cpp</title>
<!-- Node1 -->
<g id="Node000001" class="node">
<title>Node1</title>
<g id="a_Node000001"><a xlink:title=" ">
<polygon fill="#999999" stroke="#666666" points="1017.88,-368 886.38,-368 886.38,-336 1017.88,-336 1017.88,-368"/>
<text text-anchor="start" x="894.38" y="-354.5" font-family="Helvetica,sans-Serif" font-size="10.00">src/bot_library/commands</text>
<text text-anchor="middle" x="952.12" y="-342.5" font-family="Helvetica,sans-Serif" font-size="10.00">/texts/TextsCommand.cpp</text>
</a>
</g>
</g>
<!-- Node2 -->
<g id="Node000002" class="node">
<title>Node2</title>
<g id="a_Node000002"><a xlink:href="TextsCommand_8hpp.html" target="_top" xlink:title=" ">
<polygon fill="white" stroke="#666666" points="957,-300 853.25,-300 853.25,-280 957,-280 957,-300"/>
<text text-anchor="middle" x="905.12" y="-286.5" font-family="Helvetica,sans-Serif" font-size="10.00">TextsCommand.hpp</text>
</a>
</g>
</g>
<!-- Node1&#45;&gt;Node2 -->
<g id="edge1_Node000001_Node000002" class="edge">
<title>Node1&#45;&gt;Node2</title>
<g id="a_edge1_Node000001_Node000002"><a xlink:title=" ">
<path fill="none" stroke="#63b8ff" d="M940.02,-335.55C933.77,-327.56 926.09,-317.76 919.53,-309.39"/>
<polygon fill="#63b8ff" stroke="#63b8ff" points="922.35,-307.31 913.43,-301.6 916.84,-311.63 922.35,-307.31"/>
</a>
</g>
</g>
<!-- Node4 -->
<g id="Node000004" class="node">
<title>Node4</title>
<g id="a_Node000004"><a xlink:href="Core_8hpp.html" target="_top" xlink:title=" ">
<polygon fill="white" stroke="#666666" points="769,-188 713.25,-188 713.25,-168 769,-168 769,-188"/>
<text text-anchor="middle" x="741.12" y="-174.5" font-family="Helvetica,sans-Serif" font-size="10.00">Core.hpp</text>
</a>
</g>
</g>
<!-- Node1&#45;&gt;Node4 -->
<g id="edge51_Node000001_Node000004" class="edge">
<title>Node1&#45;&gt;Node4</title>
<g id="a_edge51_Node000001_Node000004"><a xlink:title=" ">
<path fill="none" stroke="#63b8ff" d="M909.01,-335.59C888.22,-326.97 863.64,-314.94 844.12,-300 805.23,-270.23 770.75,-223.55 753.26,-197.74"/>
<polygon fill="#63b8ff" stroke="#63b8ff" points="756.32,-196.02 747.87,-189.62 750.48,-199.89 756.32,-196.02"/>
</a>
</g>
</g>
<!-- Node19 -->
<g id="Node000019" class="node">
<title>Node19</title>
<g id="a_Node000019"><a xlink:title=" ">
<polygon fill="#e0e0e0" stroke="#999999" points="1519.5,-76 1436.75,-76 1436.75,-56 1519.5,-56 1519.5,-76"/>
<text text-anchor="middle" x="1478.12" y="-62.5" font-family="Helvetica,sans-Serif" font-size="10.00">appcommand.h</text>
</a>
</g>
</g>
<!-- Node1&#45;&gt;Node19 -->
<g id="edge48_Node000001_Node000019" class="edge">
<title>Node1&#45;&gt;Node19</title>
<g id="a_edge48_Node000001_Node000019"><a xlink:title=" ">
<path fill="none" stroke="#63b8ff" d="M1018.26,-351.52C1170.18,-350.92 1531.12,-338.61 1531.12,-235 1531.12,-235 1531.12,-235 1531.12,-177 1531.12,-141.84 1508.88,-106.07 1493.21,-85.23"/>
<polygon fill="#63b8ff" stroke="#63b8ff" points="1496.04,-83.17 1487.11,-77.46 1490.53,-87.49 1496.04,-83.17"/>
</a>
</g>
</g>
<!-- Node26 -->
<g id="Node000026" class="node">
<title>Node26</title>
<g id="a_Node000026"><a xlink:title=" ">
<polygon fill="#e0e0e0" stroke="#999999" points="1025.38,-300 974.88,-300 974.88,-280 1025.38,-280 1025.38,-300"/>
<text text-anchor="middle" x="1000.12" y="-286.5" font-family="Helvetica,sans-Serif" font-size="10.00">colors.h</text>
</a>
</g>
</g>
<!-- Node1&#45;&gt;Node26 -->
<g id="edge49_Node000001_Node000026" class="edge">
<title>Node1&#45;&gt;Node26</title>
<g id="a_edge49_Node000001_Node000026"><a xlink:title=" ">
<path fill="none" stroke="#63b8ff" d="M964.49,-335.55C970.88,-327.56 978.72,-317.76 985.41,-309.39"/>
<polygon fill="#63b8ff" stroke="#63b8ff" points="988.14,-311.59 991.65,-301.59 982.67,-307.21 988.14,-311.59"/>
</a>
</g>
</g>
<!-- Node27 -->
<g id="Node000027" class="node">
<title>Node27</title>
<g id="a_Node000027"><a xlink:title=" ">
<polygon fill="#e0e0e0" stroke="#999999" points="1112.75,-300 1043.5,-300 1043.5,-280 1112.75,-280 1112.75,-300"/>
<text text-anchor="middle" x="1078.12" y="-286.5" font-family="Helvetica,sans-Serif" font-size="10.00">dispatcher.h</text>
</a>
</g>
</g>
<!-- Node1&#45;&gt;Node27 -->
<g id="edge50_Node000001_Node000027" class="edge">
<title>Node1&#45;&gt;Node27</title>
<g id="a_edge50_Node000001_Node000027"><a xlink:title=" ">
<path fill="none" stroke="#63b8ff" d="M984.57,-335.55C1004.17,-326.22 1028.97,-314.41 1048.11,-305.29"/>
<polygon fill="#63b8ff" stroke="#63b8ff" points="1049.48,-308.52 1057,-301.06 1046.47,-302.2 1049.48,-308.52"/>
</a>
</g>
</g>
<!-- Node28 -->
<g id="Node000028" class="node">
<title>Node28</title>
<g id="a_Node000028"><a xlink:href="TextRepository_8hpp.html" target="_top" xlink:title=" ">
<polygon fill="white" stroke="#666666" points="189.12,-188 89.12,-188 89.12,-168 189.12,-168 189.12,-188"/>
<text text-anchor="middle" x="139.12" y="-174.5" font-family="Helvetica,sans-Serif" font-size="10.00">TextRepository.hpp</text>
</a>
</g>
</g>
<!-- Node1&#45;&gt;Node28 -->
<g id="edge52_Node000001_Node000028" class="edge">
<title>Node1&#45;&gt;Node28</title>
<g id="a_edge52_Node000001_Node000028"><a xlink:title=" ">
<path fill="none" stroke="#63b8ff" d="M885.94,-337C729.66,-303.93 340.01,-221.5 194.82,-190.78"/>
<polygon fill="#63b8ff" stroke="#63b8ff" points="195.97,-187.45 185.46,-188.8 194.52,-194.3 195.97,-187.45"/>
</a>
</g>
</g>
<!-- Node3 -->
<g id="Node000003" class="node">
<title>Node3</title>
<g id="a_Node000003"><a xlink:href="Bot_8hpp.html" target="_top" xlink:title=" ">
<polygon fill="white" stroke="#666666" points="939,-244 889.25,-244 889.25,-224 939,-224 939,-244"/>
<text text-anchor="middle" x="914.12" y="-230.5" font-family="Helvetica,sans-Serif" font-size="10.00">Bot.hpp</text>
</a>
</g>
</g>
<!-- Node2&#45;&gt;Node3 -->
<g id="edge2_Node000002_Node000003" class="edge">
<title>Node2&#45;&gt;Node3</title>
<g id="a_edge2_Node000002_Node000003"><a xlink:title=" ">
<path fill="none" stroke="#63b8ff" d="M906.69,-279.59C907.8,-272.93 909.33,-263.75 910.72,-255.44"/>
<polygon fill="#63b8ff" stroke="#63b8ff" points="914.13,-256.23 912.33,-245.79 907.23,-255.08 914.13,-256.23"/>
</a>
</g>
</g>
<!-- Node3&#45;&gt;Node4 -->
<g id="edge3_Node000003_Node000004" class="edge">
<title>Node3&#45;&gt;Node4</title>
<g id="a_edge3_Node000003_Node000004"><a xlink:title=" ">
<path fill="none" stroke="#63b8ff" d="M888.97,-225.15C860.43,-216.24 813.53,-201.6 780.21,-191.2"/>
<polygon fill="#63b8ff" stroke="#63b8ff" points="781.51,-187.94 770.92,-188.3 779.42,-194.62 781.51,-187.94"/>
</a>
</g>
</g>
<!-- Node10 -->
<g id="Node000010" class="node">
<title>Node10</title>
<g id="a_Node000010"><a xlink:title=" ">
<polygon fill="#e0e0e0" stroke="#999999" points="354.12,-76 314.12,-76 314.12,-56 354.12,-56 354.12,-76"/>
<text text-anchor="middle" x="334.12" y="-62.5" font-family="Helvetica,sans-Serif" font-size="10.00">string</text>
</a>
</g>
</g>
<!-- Node3&#45;&gt;Node10 -->
<g id="edge46_Node000003_Node000010" class="edge">
<title>Node3&#45;&gt;Node10</title>
<g id="a_edge46_Node000003_Node000010"><a xlink:title=" ">
<path fill="none" stroke="#63b8ff" d="M888.98,-232.56C787.92,-230.22 413.28,-215.93 339.12,-132 328.58,-120.06 328.12,-101.6 329.84,-87.4"/>
<polygon fill="#63b8ff" stroke="#63b8ff" points="333.25,-88.22 331.47,-77.78 326.35,-87.05 333.25,-88.22"/>
</a>
</g>
</g>
<!-- Node12 -->
<g id="Node000012" class="node">
<title>Node12</title>
<g id="a_Node000012"><a xlink:title=" ">
<polygon fill="#e0e0e0" stroke="#999999" points="1392.62,-76 1349.62,-76 1349.62,-56 1392.62,-56 1392.62,-76"/>
<text text-anchor="middle" x="1371.12" y="-62.5" font-family="Helvetica,sans-Serif" font-size="10.00">vector</text>
</a>
</g>
</g>
<!-- Node3&#45;&gt;Node12 -->
<g id="edge47_Node000003_Node000012" class="edge">
<title>Node3&#45;&gt;Node12</title>
<g id="a_edge47_Node000003_Node000012"><a xlink:title=" ">
<path fill="none" stroke="#63b8ff" d="M939.24,-232.3C1035.94,-229.05 1382.08,-211.91 1448.12,-132 1465.91,-110.48 1431.59,-90.52 1403.22,-78.55"/>
<polygon fill="#63b8ff" stroke="#63b8ff" points="1404.75,-75.39 1394.16,-74.93 1402.15,-81.89 1404.75,-75.39"/>
</a>
</g>
</g>
<!-- Node14 -->
<g id="Node000014" class="node">
<title>Node14</title>
<g id="a_Node000014"><a xlink:href="IButtonCommand_8hpp.html" target="_top" xlink:title=" ">
<polygon fill="white" stroke="#666666" points="476.75,-132 365.5,-132 365.5,-112 476.75,-112 476.75,-132"/>
<text text-anchor="middle" x="421.12" y="-118.5" font-family="Helvetica,sans-Serif" font-size="10.00">IButtonCommand.hpp</text>
</a>
</g>
</g>
<!-- Node3&#45;&gt;Node14 -->
<g id="edge35_Node000003_Node000014" class="edge">
<title>Node3&#45;&gt;Node14</title>
<g id="a_edge35_Node000003_Node000014"><a xlink:title=" ">
<path fill="none" stroke="#63b8ff" d="M888.89,-227.72C849.43,-219.43 770.74,-202.79 704.12,-188 623.09,-170.01 529.22,-148.27 472.55,-135.05"/>
<polygon fill="#63b8ff" stroke="#63b8ff" points="473.39,-131.65 462.86,-132.79 471.8,-138.47 473.39,-131.65"/>
</a>
</g>
</g>
<!-- Node17 -->
<g id="Node000017" class="node">
<title>Node17</title>
<g id="a_Node000017"><a xlink:href="IFormCommand_8hpp.html" target="_top" xlink:title=" ">
<polygon fill="white" stroke="#666666" points="785.75,-132 680.5,-132 680.5,-112 785.75,-112 785.75,-132"/>
<text text-anchor="middle" x="733.12" y="-118.5" font-family="Helvetica,sans-Serif" font-size="10.00">IFormCommand.hpp</text>
</a>
</g>
</g>
<!-- Node3&#45;&gt;Node17 -->
<g id="edge36_Node000003_Node000017" class="edge">
<title>Node3&#45;&gt;Node17</title>
<g id="a_edge36_Node000003_Node000017"><a xlink:title=" ">
<path fill="none" stroke="#63b8ff" d="M908.24,-223.71C898.97,-209.76 879.68,-183.41 857.12,-168 835.58,-153.28 808.64,-142.74 785.39,-135.59"/>
<polygon fill="#63b8ff" stroke="#63b8ff" points="786.69,-132.32 776.1,-132.87 784.72,-139.04 786.69,-132.32"/>
</a>
</g>
</g>
<!-- Node18 -->
<g id="Node000018" class="node">
<title>Node18</title>
<g id="a_Node000018"><a xlink:href="IGlobalSlashCommand_8hpp.html" target="_top" xlink:title=" ">
<polygon fill="white" stroke="#666666" points="1438.75,-132 1303.5,-132 1303.5,-112 1438.75,-112 1438.75,-132"/>
<text text-anchor="middle" x="1371.12" y="-118.5" font-family="Helvetica,sans-Serif" font-size="10.00">IGlobalSlashCommand.hpp</text>
</a>
</g>
</g>
<!-- Node3&#45;&gt;Node18 -->
<g id="edge37_Node000003_Node000018" class="edge">
<title>Node3&#45;&gt;Node18</title>
<g id="a_edge37_Node000003_Node000018"><a xlink:title=" ">
<path fill="none" stroke="#63b8ff" d="M939.35,-226.93C1012.06,-209.43 1223.14,-158.62 1320.65,-135.15"/>
<polygon fill="#63b8ff" stroke="#63b8ff" points="1321.31,-138.59 1330.21,-132.85 1319.67,-131.78 1321.31,-138.59"/>
</a>
</g>
</g>
<!-- Node20 -->
<g id="Node000020" class="node">
<title>Node20</title>
<g id="a_Node000020"><a xlink:href="IMemberCommand_8hpp.html" target="_top" xlink:title=" ">
<polygon fill="white" stroke="#666666" points="922.12,-132 804.12,-132 804.12,-112 922.12,-112 922.12,-132"/>
<text text-anchor="middle" x="863.12" y="-118.5" font-family="Helvetica,sans-Serif" font-size="10.00">IMemberCommand.hpp</text>
</a>
</g>
</g>
<!-- Node3&#45;&gt;Node20 -->
<g id="edge38_Node000003_Node000020" class="edge">
<title>Node3&#45;&gt;Node20</title>
<g id="a_edge38_Node000003_Node000020"><a xlink:title=" ">
<path fill="none" stroke="#63b8ff" d="M911.24,-223.52C907.19,-210.65 899.28,-187.09 890.12,-168 885.9,-159.19 880.48,-149.86 875.6,-142"/>
<polygon fill="#63b8ff" stroke="#63b8ff" points="878.6,-140.19 870.27,-133.64 872.7,-143.96 878.6,-140.19"/>
</a>
</g>
</g>
<!-- Node21 -->
<g id="Node000021" class="node">
<title>Node21</title>
<g id="a_Node000021"><a xlink:href="IMessageCommand_8hpp.html" target="_top" xlink:title=" ">
<polygon fill="white" stroke="#666666" points="1062.38,-132 939.88,-132 939.88,-112 1062.38,-112 1062.38,-132"/>
<text text-anchor="middle" x="1001.12" y="-118.5" font-family="Helvetica,sans-Serif" font-size="10.00">IMessageCommand.hpp</text>
</a>
</g>
</g>
<!-- Node3&#45;&gt;Node21 -->
<g id="edge39_Node000003_Node000021" class="edge">
<title>Node3&#45;&gt;Node21</title>
<g id="a_edge39_Node000003_Node000021"><a xlink:title=" ">
<path fill="none" stroke="#63b8ff" d="M921.54,-223.62C935.92,-205.44 967.83,-165.09 986.58,-141.38"/>
<polygon fill="#63b8ff" stroke="#63b8ff" points="989.33,-143.56 992.79,-133.54 983.84,-139.21 989.33,-143.56"/>
</a>
</g>
</g>
<!-- Node22 -->
<g id="Node000022" class="node">
<title>Node22</title>
<g id="a_Node000022"><a xlink:href="IReactionCommand_8hpp.html" target="_top" xlink:title=" ">
<polygon fill="white" stroke="#666666" points="1202,-132 1080.25,-132 1080.25,-112 1202,-112 1202,-132"/>
<text text-anchor="middle" x="1141.12" y="-118.5" font-family="Helvetica,sans-Serif" font-size="10.00">IReactionCommand.hpp</text>
</a>
</g>
</g>
<!-- Node3&#45;&gt;Node22 -->
<g id="edge40_Node000003_Node000022" class="edge">
<title>Node3&#45;&gt;Node22</title>
<g id="a_edge40_Node000003_Node000022"><a xlink:title=" ">
<path fill="none" stroke="#63b8ff" d="M933.48,-223.62C973.27,-204.34 1064.46,-160.15 1111.64,-137.29"/>
<polygon fill="#63b8ff" stroke="#63b8ff" points="1112.99,-140.53 1120.46,-133.01 1109.93,-134.23 1112.99,-140.53"/>
</a>
</g>
</g>
<!-- Node23 -->
<g id="Node000023" class="node">
<title>Node23</title>
<g id="a_Node000023"><a xlink:href="IReady_8hpp.html" target="_top" xlink:title=" ">
<polygon fill="white" stroke="#666666" points="1285.88,-132 1220.38,-132 1220.38,-112 1285.88,-112 1285.88,-132"/>
<text text-anchor="middle" x="1253.12" y="-118.5" font-family="Helvetica,sans-Serif" font-size="10.00">IReady.hpp</text>
</a>
</g>
</g>
<!-- Node3&#45;&gt;Node23 -->
<g id="edge41_Node000003_Node000023" class="edge">
<title>Node3&#45;&gt;Node23</title>
<g id="a_edge41_Node000003_Node000023"><a xlink:title=" ">
<path fill="none" stroke="#63b8ff" d="M939.33,-224.82C997.74,-205.87 1142.73,-158.82 1213.29,-135.93"/>
<polygon fill="#63b8ff" stroke="#63b8ff" points="1214.08,-139.35 1222.51,-132.93 1211.92,-132.69 1214.08,-139.35"/>
</a>
</g>
</g>
<!-- Node24 -->
<g id="Node000024" class="node">
<title>Node24</title>
<g id="a_Node000024"><a xlink:title=" ">
<polygon fill="#e0e0e0" stroke="#999999" points="1503.5,-188 1468.75,-188 1468.75,-168 1503.5,-168 1503.5,-188"/>
<text text-anchor="middle" x="1486.12" y="-174.5" font-family="Helvetica,sans-Serif" font-size="10.00">map</text>
</a>
</g>
</g>
<!-- Node3&#45;&gt;Node24 -->
<g id="edge44_Node000003_Node000024" class="edge">
<title>Node3&#45;&gt;Node24</title>
<g id="a_edge44_Node000003_Node000024"><a xlink:title=" ">
<path fill="none" stroke="#63b8ff" d="M939.44,-232.68C1017.14,-231.33 1258.88,-224.27 1455.12,-188 1455.95,-187.85 1456.79,-187.68 1457.63,-187.5"/>
<polygon fill="#63b8ff" stroke="#63b8ff" points="1458.25,-190.96 1467.1,-185.13 1456.55,-184.17 1458.25,-190.96"/>
</a>
</g>
</g>
<!-- Node25 -->
<g id="Node000025" class="node">
<title>Node25</title>
<g id="a_Node000025"><a xlink:title=" ">
<polygon fill="#e0e0e0" stroke="#999999" points="847.75,-188 796.5,-188 796.5,-168 847.75,-168 847.75,-188"/>
<text text-anchor="middle" x="822.12" y="-174.5" font-family="Helvetica,sans-Serif" font-size="10.00">memory</text>
</a>
</g>
</g>
<!-- Node3&#45;&gt;Node25 -->
<g id="edge45_Node000003_Node000025" class="edge">
<title>Node3&#45;&gt;Node25</title>
<g id="a_edge45_Node000003_Node000025"><a xlink:title=" ">
<path fill="none" stroke="#63b8ff" d="M898.1,-223.59C884.33,-215.51 864.22,-203.71 848.15,-194.27"/>
<polygon fill="#63b8ff" stroke="#63b8ff" points="849.98,-191.29 839.58,-189.25 846.43,-197.33 849.98,-191.29"/>
</a>
</g>
</g>
<!-- Node5 -->
<g id="Node000005" class="node">
<title>Node5</title>
<g id="a_Node000005"><a xlink:title=" ">
<polygon fill="#e0e0e0" stroke="#999999" points="553.5,-132 494.75,-132 494.75,-112 553.5,-112 553.5,-132"/>
<text text-anchor="middle" x="524.12" y="-118.5" font-family="Helvetica,sans-Serif" font-size="10.00">dpp/dpp.h</text>
</a>
</g>
</g>
<!-- Node4&#45;&gt;Node5 -->
<g id="edge4_Node000004_Node000005" class="edge">
<title>Node4&#45;&gt;Node5</title>
<g id="a_edge4_Node000004_Node000005"><a xlink:title=" ">
<path fill="none" stroke="#63b8ff" d="M712.76,-169.94C675,-160.55 608,-143.87 564.85,-133.13"/>
<polygon fill="#63b8ff" stroke="#63b8ff" points="565.91,-129.79 555.36,-130.77 564.22,-136.58 565.91,-129.79"/>
</a>
</g>
</g>
<!-- Node6 -->
<g id="Node000006" class="node">
<title>Node6</title>
<g id="a_Node000006"><a xlink:title=" ">
<polygon fill="#e0e0e0" stroke="#999999" points="662.62,-132 571.62,-132 571.62,-112 662.62,-112 662.62,-132"/>
<text text-anchor="middle" x="617.12" y="-118.5" font-family="Helvetica,sans-Serif" font-size="10.00">dpp/misc&#45;enum.h</text>
</a>
</g>
</g>
<!-- Node4&#45;&gt;Node6 -->
<g id="edge5_Node000004_Node000006" class="edge">
<title>Node4&#45;&gt;Node6</title>
<g id="a_edge5_Node000004_Node000006"><a xlink:title=" ">
<path fill="none" stroke="#63b8ff" d="M719.53,-167.59C700.17,-159.17 671.52,-146.69 649.44,-137.07"/>
<polygon fill="#63b8ff" stroke="#63b8ff" points="650.85,-133.87 640.28,-133.08 648.05,-140.29 650.85,-133.87"/>
</a>
</g>
</g>
<!-- Node7 -->
<g id="Node000007" class="node">
<title>Node7</title>
<g id="a_Node000007"><a xlink:href="Database_8hpp.html" target="_top" xlink:title=" ">
<polygon fill="white" stroke="#666666" points="271.5,-132 194.75,-132 194.75,-112 271.5,-112 271.5,-132"/>
<text text-anchor="middle" x="233.12" y="-118.5" font-family="Helvetica,sans-Serif" font-size="10.00">Database.hpp</text>
</a>
</g>
</g>
<!-- Node4&#45;&gt;Node7 -->
<g id="edge6_Node000004_Node000007" class="edge">
<title>Node4&#45;&gt;Node7</title>
<g id="a_edge6_Node000004_Node000007"><a xlink:title=" ">
<path fill="none" stroke="#63b8ff" d="M713.09,-174.02C630.69,-165.26 388.47,-139.51 283.07,-128.31"/>
<polygon fill="#63b8ff" stroke="#63b8ff" points="283.63,-124.85 273.31,-127.27 282.89,-131.81 283.63,-124.85"/>
</a>
</g>
</g>
<!-- Node4&#45;&gt;Node10 -->
<g id="edge34_Node000004_Node000010" class="edge">
<title>Node4&#45;&gt;Node10</title>
<g id="a_edge34_Node000004_Node000010"><a xlink:title=" ">
<path fill="none" stroke="#63b8ff" d="M712.77,-177.48C633.34,-178.24 410.85,-176.29 356.12,-132 342.81,-121.23 337.51,-102.06 335.43,-87.32"/>
<polygon fill="#63b8ff" stroke="#63b8ff" points="338.95,-87.37 334.47,-77.77 331.98,-88.06 338.95,-87.37"/>
</a>
</g>
</g>
<!-- Node4&#45;&gt;Node14 -->
<g id="edge14_Node000004_Node000014" class="edge">
<title>Node4&#45;&gt;Node14</title>
<g id="a_edge14_Node000004_Node000014"><a xlink:title=" ">
<path fill="none" stroke="#63b8ff" d="M713.01,-172.26C663.17,-163.84 558.03,-146.1 488.5,-134.37"/>
<polygon fill="#63b8ff" stroke="#63b8ff" points="489.17,-130.93 478.73,-132.72 488,-137.84 489.17,-130.93"/>
</a>
</g>
</g>
<!-- Node4&#45;&gt;Node17 -->
<g id="edge17_Node000004_Node000017" class="edge">
<title>Node4&#45;&gt;Node17</title>
<g id="a_edge17_Node000004_Node000017"><a xlink:title=" ">
<path fill="none" stroke="#63b8ff" d="M739.73,-167.59C738.74,-160.93 737.38,-151.75 736.15,-143.44"/>
<polygon fill="#63b8ff" stroke="#63b8ff" points="739.65,-143.17 734.72,-133.8 732.73,-144.2 739.65,-143.17"/>
</a>
</g>
</g>
<!-- Node4&#45;&gt;Node18 -->
<g id="edge20_Node000004_Node000018" class="edge">
<title>Node4&#45;&gt;Node18</title>
<g id="a_edge20_Node000004_Node000018"><a xlink:title=" ">
<path fill="none" stroke="#63b8ff" d="M769.25,-170.93C775.14,-169.82 781.32,-168.77 787.12,-168 1007.89,-138.69 1067.87,-152.84 1292.04,-132.25"/>
<polygon fill="#63b8ff" stroke="#63b8ff" points="1292.05,-135.76 1301.68,-131.35 1291.4,-128.79 1292.05,-135.76"/>
</a>
</g>
</g>
<!-- Node4&#45;&gt;Node20 -->
<g id="edge25_Node000004_Node000020" class="edge">
<title>Node4&#45;&gt;Node20</title>
<g id="a_edge25_Node000004_Node000020"><a xlink:title=" ">
<path fill="none" stroke="#63b8ff" d="M762.38,-167.59C781.41,-159.17 809.6,-146.69 831.33,-137.07"/>
<polygon fill="#63b8ff" stroke="#63b8ff" points="832.6,-140.34 840.32,-133.09 829.76,-133.94 832.6,-140.34"/>
</a>
</g>
</g>
<!-- Node4&#45;&gt;Node21 -->
<g id="edge28_Node000004_Node000021" class="edge">
<title>Node4&#45;&gt;Node21</title>
<g id="a_edge28_Node000004_Node000021"><a xlink:title=" ">
<path fill="none" stroke="#63b8ff" d="M769.44,-171.12C811.22,-162.44 890.25,-146.03 944.28,-134.81"/>
<polygon fill="#63b8ff" stroke="#63b8ff" points="944.84,-138.26 953.92,-132.8 943.42,-131.41 944.84,-138.26"/>
</a>
</g>
</g>
<!-- Node4&#45;&gt;Node22 -->
<g id="edge31_Node000004_Node000022" class="edge">
<title>Node4&#45;&gt;Node22</title>
<g id="a_edge31_Node000004_Node000022"><a xlink:title=" ">
<path fill="none" stroke="#63b8ff" d="M769.29,-171.18C775.17,-170.05 781.34,-168.93 787.12,-168 909.18,-148.35 943.02,-148.11 1068.81,-132.28"/>
<polygon fill="#63b8ff" stroke="#63b8ff" points="1069.06,-135.78 1078.54,-131.05 1068.18,-128.84 1069.06,-135.78"/>
</a>
</g>
</g>
<!-- Node8 -->
<g id="Node000008" class="node">
<title>Node8</title>
<g id="a_Node000008"><a xlink:title=" ">
<polygon fill="#e0e0e0" stroke="#999999" points="66.25,-76 18,-76 18,-56 66.25,-56 66.25,-76"/>
<text text-anchor="middle" x="42.12" y="-62.5" font-family="Helvetica,sans-Serif" font-size="10.00">cstddef</text>
</a>
</g>
</g>
<!-- Node7&#45;&gt;Node8 -->
<g id="edge7_Node000007_Node000008" class="edge">
<title>Node7&#45;&gt;Node8</title>
<g id="a_edge7_Node000007_Node000008"><a xlink:title=" ">
<path fill="none" stroke="#63b8ff" d="M199.86,-111.59C165.52,-101.89 112.18,-86.81 77.2,-76.92"/>
<polygon fill="#63b8ff" stroke="#63b8ff" points="78.57,-73.67 67.99,-74.31 76.66,-80.4 78.57,-73.67"/>
</a>
</g>
</g>
<!-- Node9 -->
<g id="Node000009" class="node">
<title>Node9</title>
<g id="a_Node000009"><a xlink:title=" ">
<polygon fill="#e0e0e0" stroke="#999999" points="210.62,-20 149.62,-20 149.62,0 210.62,0 210.62,-20"/>
<text text-anchor="middle" x="180.12" y="-6.5" font-family="Helvetica,sans-Serif" font-size="10.00">pqxx/pqxx</text>
</a>
</g>
</g>
<!-- Node7&#45;&gt;Node9 -->
<g id="edge8_Node000007_Node000009" class="edge">
<title>Node7&#45;&gt;Node9</title>
<g id="a_edge8_Node000007_Node000009"><a xlink:title=" ">
<path fill="none" stroke="#63b8ff" d="M228.97,-111.69C223.28,-99.02 212.69,-75.67 203.12,-56 199.01,-47.53 194.3,-38.24 190.21,-30.32"/>
<polygon fill="#63b8ff" stroke="#63b8ff" points="193.4,-28.86 185.69,-21.6 187.19,-32.09 193.4,-28.86"/>
</a>
</g>
</g>
<!-- Node7&#45;&gt;Node10 -->
<g id="edge9_Node000007_Node000010" class="edge">
<title>Node7&#45;&gt;Node10</title>
<g id="a_edge9_Node000007_Node000010"><a xlink:title=" ">
<path fill="none" stroke="#63b8ff" d="M250.72,-111.59C266.05,-103.4 288.54,-91.37 306.31,-81.87"/>
<polygon fill="#63b8ff" stroke="#63b8ff" points="307.89,-84.99 315.06,-77.19 304.59,-78.82 307.89,-84.99"/>
</a>
</g>
</g>
<!-- Node11 -->
<g id="Node000011" class="node">
<title>Node11</title>
<g id="a_Node000011"><a xlink:title=" ">
<polygon fill="#e0e0e0" stroke="#999999" points="295.75,-76 250.5,-76 250.5,-56 295.75,-56 295.75,-76"/>
<text text-anchor="middle" x="273.12" y="-62.5" font-family="Helvetica,sans-Serif" font-size="10.00">variant</text>
</a>
</g>
</g>
<!-- Node7&#45;&gt;Node11 -->
<g id="edge10_Node000007_Node000011" class="edge">
<title>Node7&#45;&gt;Node11</title>
<g id="a_edge10_Node000007_Node000011"><a xlink:title=" ">
<path fill="none" stroke="#63b8ff" d="M240.09,-111.59C245.43,-104.39 252.95,-94.23 259.47,-85.43"/>
<polygon fill="#63b8ff" stroke="#63b8ff" points="262.2,-87.63 265.34,-77.51 256.57,-83.47 262.2,-87.63"/>
</a>
</g>
</g>
<!-- Node7&#45;&gt;Node12 -->
<g id="edge11_Node000007_Node000012" class="edge">
<title>Node7&#45;&gt;Node12</title>
<g id="a_edge11_Node000007_Node000012"><a xlink:title=" ">
<path fill="none" stroke="#63b8ff" d="M271.88,-117.88C296.09,-116 327.91,-113.66 356.12,-112 742.07,-89.33 1211.17,-72.49 1338.13,-68.12"/>
<polygon fill="#63b8ff" stroke="#63b8ff" points="1337.94,-71.63 1347.82,-67.79 1337.7,-64.63 1337.94,-71.63"/>
</a>
</g>
</g>
<!-- Node13 -->
<g id="Node000013" class="node">
<title>Node13</title>
<g id="a_Node000013"><a xlink:href="RowDTOAdapter_8hpp.html" target="_top" xlink:title=" ">
<polygon fill="white" stroke="#666666" points="194,-76 84.25,-76 84.25,-56 194,-56 194,-76"/>
<text text-anchor="middle" x="139.12" y="-62.5" font-family="Helvetica,sans-Serif" font-size="10.00">RowDTOAdapter.hpp</text>
</a>
</g>
</g>
<!-- Node7&#45;&gt;Node13 -->
<g id="edge12_Node000007_Node000013" class="edge">
<title>Node7&#45;&gt;Node13</title>
<g id="a_edge12_Node000007_Node000013"><a xlink:title=" ">
<path fill="none" stroke="#63b8ff" d="M216.75,-111.59C202.55,-103.44 181.74,-91.48 165.24,-82"/>
<polygon fill="#63b8ff" stroke="#63b8ff" points="167.35,-79.18 156.94,-77.23 163.87,-85.25 167.35,-79.18"/>
</a>
</g>
</g>
<!-- Node13&#45;&gt;Node9 -->
<g id="edge13_Node000013_Node000009" class="edge">
<title>Node13&#45;&gt;Node9</title>
<g id="a_edge13_Node000013_Node000009"><a xlink:title=" ">
<path fill="none" stroke="#63b8ff" d="M146.27,-55.59C151.73,-48.39 159.45,-38.23 166.13,-29.43"/>
<polygon fill="#63b8ff" stroke="#63b8ff" points="168.89,-31.58 172.15,-21.5 163.32,-27.35 168.89,-31.58"/>
</a>
</g>
</g>
<!-- Node15 -->
<g id="Node000015" class="node">
<title>Node15</title>
<g id="a_Node000015"><a xlink:title=" ">
<polygon fill="#e0e0e0" stroke="#999999" points="1086.25,-76 1014,-76 1014,-56 1086.25,-56 1086.25,-76"/>
<text text-anchor="middle" x="1050.12" y="-62.5" font-family="Helvetica,sans-Serif" font-size="10.00">dpp/cluster.h</text>
</a>
</g>
</g>
<!-- Node14&#45;&gt;Node15 -->
<g id="edge15_Node000014_Node000015" class="edge">
<title>Node14&#45;&gt;Node15</title>
<g id="a_edge15_Node000014_Node000015"><a xlink:title=" ">
<path fill="none" stroke="#63b8ff" d="M477.12,-113C480.16,-112.64 483.18,-112.31 486.12,-112 712.4,-88.51 773.98,-106.15 1002.48,-76.18"/>
<polygon fill="#63b8ff" stroke="#63b8ff" points="1002.89,-79.66 1012.34,-74.87 1001.97,-72.72 1002.89,-79.66"/>
</a>
</g>
</g>
<!-- Node16 -->
<g id="Node000016" class="node">
<title>Node16</title>
<g id="a_Node000016"><a xlink:title=" ">
<polygon fill="#e0e0e0" stroke="#999999" points="996.12,-76 908.12,-76 908.12,-56 996.12,-56 996.12,-76"/>
<text text-anchor="middle" x="952.12" y="-62.5" font-family="Helvetica,sans-Serif" font-size="10.00">dpp/dispatcher.h</text>
</a>
</g>
</g>
<!-- Node14&#45;&gt;Node16 -->
<g id="edge16_Node000014_Node000016" class="edge">
<title>Node14&#45;&gt;Node16</title>
<g id="a_edge16_Node000014_Node000016"><a xlink:title=" ">
<path fill="none" stroke="#63b8ff" d="M477.13,-113.1C480.17,-112.71 483.18,-112.35 486.12,-112 634.07,-94.62 809.02,-79.06 896.48,-71.62"/>
<polygon fill="#63b8ff" stroke="#63b8ff" points="896.55,-75.13 906.22,-70.8 895.96,-68.16 896.55,-75.13"/>
</a>
</g>
</g>
<!-- Node17&#45;&gt;Node15 -->
<g id="edge18_Node000017_Node000015" class="edge">
<title>Node17&#45;&gt;Node15</title>
<g id="a_edge18_Node000017_Node000015"><a xlink:title=" ">
<path fill="none" stroke="#63b8ff" d="M786.12,-112.77C838.65,-104.49 921.68,-91.08 1002.87,-76.36"/>
<polygon fill="#63b8ff" stroke="#63b8ff" points="1003.1,-79.88 1012.31,-74.65 1001.84,-72.99 1003.1,-79.88"/>
</a>
</g>
</g>
<!-- Node17&#45;&gt;Node16 -->
<g id="edge19_Node000017_Node000016" class="edge">
<title>Node17&#45;&gt;Node16</title>
<g id="a_edge19_Node000017_Node000016"><a xlink:title=" ">
<path fill="none" stroke="#63b8ff" d="M771.52,-111.53C808,-102.54 863.02,-88.97 902.74,-79.18"/>
<polygon fill="#63b8ff" stroke="#63b8ff" points="903.43,-82.61 912.3,-76.82 901.75,-75.82 903.43,-82.61"/>
</a>
</g>
</g>
<!-- Node18&#45;&gt;Node12 -->
<g id="edge24_Node000018_Node000012" class="edge">
<title>Node18&#45;&gt;Node12</title>
<g id="a_edge24_Node000018_Node000012"><a xlink:title=" ">
<path fill="none" stroke="#63b8ff" d="M1371.12,-111.59C1371.12,-105.01 1371.12,-95.96 1371.12,-87.73"/>
<polygon fill="#63b8ff" stroke="#63b8ff" points="1374.63,-87.81 1371.13,-77.81 1367.63,-87.81 1374.63,-87.81"/>
</a>
</g>
</g>
<!-- Node18&#45;&gt;Node15 -->
<g id="edge22_Node000018_Node000015" class="edge">
<title>Node18&#45;&gt;Node15</title>
<g id="a_edge22_Node000018_Node000015"><a xlink:title=" ">
<path fill="none" stroke="#63b8ff" d="M1314.84,-111.53C1253.15,-101.15 1155.25,-84.69 1097.39,-74.95"/>
<polygon fill="#63b8ff" stroke="#63b8ff" points="1098.31,-71.56 1087.86,-73.35 1097.14,-78.46 1098.31,-71.56"/>
</a>
</g>
</g>
<!-- Node18&#45;&gt;Node16 -->
<g id="edge23_Node000018_Node000016" class="edge">
<title>Node18&#45;&gt;Node16</title>
<g id="a_edge23_Node000018_Node000016"><a xlink:title=" ">
<path fill="none" stroke="#63b8ff" d="M1303.08,-112.8C1212.99,-101.93 1060.18,-83.4 1007.49,-76.23"/>
<polygon fill="#63b8ff" stroke="#63b8ff" points="1008.24,-72.8 997.85,-74.88 1007.26,-79.73 1008.24,-72.8"/>
</a>
</g>
</g>
<!-- Node18&#45;&gt;Node19 -->
<g id="edge21_Node000018_Node000019" class="edge">
<title>Node18&#45;&gt;Node19</title>
<g id="a_edge21_Node000018_Node000019"><a xlink:title=" ">
<path fill="none" stroke="#63b8ff" d="M1389.76,-111.59C1406.16,-103.32 1430.28,-91.14 1449.19,-81.6"/>
<polygon fill="#63b8ff" stroke="#63b8ff" points="1450.64,-84.79 1457.99,-77.16 1447.49,-78.54 1450.64,-84.79"/>
</a>
</g>
</g>
<!-- Node20&#45;&gt;Node15 -->
<g id="edge26_Node000020_Node000015" class="edge">
<title>Node20&#45;&gt;Node15</title>
<g id="a_edge26_Node000020_Node000015"><a xlink:title=" ">
<path fill="none" stroke="#63b8ff" d="M895.7,-111.59C926.35,-102.74 972.47,-89.43 1006.33,-79.65"/>
<polygon fill="#63b8ff" stroke="#63b8ff" points="1007.21,-83.04 1015.84,-76.9 1005.27,-76.31 1007.21,-83.04"/>
</a>
</g>
</g>
<!-- Node20&#45;&gt;Node16 -->
<g id="edge27_Node000020_Node000016" class="edge">
<title>Node20&#45;&gt;Node16</title>
<g id="a_edge27_Node000020_Node000016"><a xlink:title=" ">
<path fill="none" stroke="#63b8ff" d="M878.63,-111.59C891.95,-103.51 911.4,-91.71 926.95,-82.27"/>
<polygon fill="#63b8ff" stroke="#63b8ff" points="928.47,-85.44 935.21,-77.26 924.84,-79.46 928.47,-85.44"/>
</a>
</g>
</g>
<!-- Node21&#45;&gt;Node15 -->
<g id="edge29_Node000021_Node000015" class="edge">
<title>Node21&#45;&gt;Node15</title>
<g id="a_edge29_Node000021_Node000015"><a xlink:title=" ">
<path fill="none" stroke="#63b8ff" d="M1009.66,-111.59C1016.41,-104.16 1026.01,-93.58 1034.17,-84.58"/>
<polygon fill="#63b8ff" stroke="#63b8ff" points="1036.54,-87.18 1040.67,-77.42 1031.36,-82.47 1036.54,-87.18"/>
</a>
</g>
</g>
<!-- Node21&#45;&gt;Node16 -->
<g id="edge30_Node000021_Node000016" class="edge">
<title>Node21&#45;&gt;Node16</title>
<g id="a_edge30_Node000021_Node000016"><a xlink:title=" ">
<path fill="none" stroke="#63b8ff" d="M992.59,-111.59C985.84,-104.16 976.24,-93.58 968.08,-84.58"/>
<polygon fill="#63b8ff" stroke="#63b8ff" points="970.89,-82.47 961.58,-77.42 965.71,-87.18 970.89,-82.47"/>
</a>
</g>
</g>
<!-- Node22&#45;&gt;Node15 -->
<g id="edge32_Node000022_Node000015" class="edge">
<title>Node22&#45;&gt;Node15</title>
<g id="a_edge32_Node000022_Node000015"><a xlink:title=" ">
<path fill="none" stroke="#63b8ff" d="M1125.27,-111.59C1111.66,-103.51 1091.76,-91.71 1075.86,-82.27"/>
<polygon fill="#63b8ff" stroke="#63b8ff" points="1077.79,-79.35 1067.4,-77.25 1074.22,-85.37 1077.79,-79.35"/>
</a>
</g>
</g>
<!-- Node22&#45;&gt;Node16 -->
<g id="edge33_Node000022_Node000016" class="edge">
<title>Node22&#45;&gt;Node16</title>
<g id="a_edge33_Node000022_Node000016"><a xlink:title=" ">
<path fill="none" stroke="#63b8ff" d="M1108.2,-111.59C1077.09,-102.71 1030.21,-89.31 995.95,-79.52"/>
<polygon fill="#63b8ff" stroke="#63b8ff" points="997.34,-76.28 986.76,-76.9 995.41,-83.01 997.34,-76.28"/>
</a>
</g>
</g>
<!-- Node23&#45;&gt;Node15 -->
<g id="edge42_Node000023_Node000015" class="edge">
<title>Node23&#45;&gt;Node15</title>
<g id="a_edge42_Node000023_Node000015"><a xlink:title=" ">
<path fill="none" stroke="#63b8ff" d="M1220.06,-112.2C1186.42,-103.25 1134,-89.31 1096.28,-79.28"/>
<polygon fill="#63b8ff" stroke="#63b8ff" points="1097.59,-76.01 1087.03,-76.82 1095.79,-82.77 1097.59,-76.01"/>
</a>
</g>
</g>
<!-- Node23&#45;&gt;Node16 -->
<g id="edge43_Node000023_Node000016" class="edge">
<title>Node23&#45;&gt;Node16</title>
<g id="a_edge43_Node000023_Node000016"><a xlink:title=" ">
<path fill="none" stroke="#63b8ff" d="M1220.13,-113.8C1217.09,-113.18 1214.05,-112.57 1211.12,-112 1191.55,-108.2 1077.99,-88.62 1007.89,-76.57"/>
<polygon fill="#63b8ff" stroke="#63b8ff" points="1008.55,-73.13 998.11,-74.89 1007.37,-80.03 1008.55,-73.13"/>
</a>
</g>
</g>
<!-- Node29 -->
<g id="Node000029" class="node">
<title>Node29</title>
<g id="a_Node000029"><a xlink:href="IRepository_8hpp.html" target="_top" xlink:title=" ">
<polygon fill="white" stroke="#666666" points="84.25,-132 0,-132 0,-112 84.25,-112 84.25,-132"/>
<text text-anchor="middle" x="42.12" y="-118.5" font-family="Helvetica,sans-Serif" font-size="10.00">IRepository.hpp</text>
</a>
</g>
</g>
<!-- Node28&#45;&gt;Node29 -->
<g id="edge53_Node000028_Node000029" class="edge">
<title>Node28&#45;&gt;Node29</title>
<g id="a_edge53_Node000028_Node000029"><a xlink:title=" ">
<path fill="none" stroke="#63b8ff" d="M122.23,-167.59C107.58,-159.44 86.1,-147.48 69.08,-138"/>
<polygon fill="#63b8ff" stroke="#63b8ff" points="70.92,-135.02 60.48,-133.22 67.51,-141.14 70.92,-135.02"/>
</a>
</g>
</g>
<!-- Node30 -->
<g id="Node000030" class="node">
<title>Node30</title>
<g id="a_Node000030"><a xlink:href="TextDTO_8hpp.html" target="_top" xlink:title=" ">
<polygon fill="white" stroke="#666666" points="176.38,-132 101.88,-132 101.88,-112 176.38,-112 176.38,-132"/>
<text text-anchor="middle" x="139.12" y="-118.5" font-family="Helvetica,sans-Serif" font-size="10.00">TextDTO.hpp</text>
</a>
</g>
</g>
<!-- Node28&#45;&gt;Node30 -->
<g id="edge55_Node000028_Node000030" class="edge">
<title>Node28&#45;&gt;Node30</title>
<g id="a_edge55_Node000028_Node000030"><a xlink:title=" ">
<path fill="none" stroke="#63b8ff" d="M139.12,-167.59C139.12,-161.01 139.12,-151.96 139.12,-143.73"/>
<polygon fill="#63b8ff" stroke="#63b8ff" points="142.63,-143.81 139.13,-133.81 135.63,-143.81 142.63,-143.81"/>
</a>
</g>
</g>
<!-- Node29&#45;&gt;Node8 -->
<g id="edge54_Node000029_Node000008" class="edge">
<title>Node29&#45;&gt;Node8</title>
<g id="a_edge54_Node000029_Node000008"><a xlink:title=" ">
<path fill="none" stroke="#63b8ff" d="M42.12,-111.59C42.12,-105.01 42.12,-95.96 42.12,-87.73"/>
<polygon fill="#63b8ff" stroke="#63b8ff" points="45.63,-87.81 42.13,-77.81 38.63,-87.81 45.63,-87.81"/>
</a>
</g>
</g>
<!-- Node30&#45;&gt;Node10 -->
<g id="edge57_Node000030_Node000010" class="edge">
<title>Node30&#45;&gt;Node10</title>
<g id="a_edge57_Node000030_Node000010"><a xlink:title=" ">
<path fill="none" stroke="#63b8ff" d="M175.5,-111.54C206.9,-103.29 253.73,-90.78 302.99,-76.55"/>
<polygon fill="#63b8ff" stroke="#63b8ff" points="303.79,-79.96 312.42,-73.81 301.84,-73.24 303.79,-79.96"/>
</a>
</g>
</g>
<!-- Node30&#45;&gt;Node13 -->
<g id="edge56_Node000030_Node000013" class="edge">
<title>Node30&#45;&gt;Node13</title>
<g id="a_edge56_Node000030_Node000013"><a xlink:title=" ">
<path fill="none" stroke="#63b8ff" d="M139.12,-111.59C139.12,-105.01 139.12,-95.96 139.12,-87.73"/>
<polygon fill="#63b8ff" stroke="#63b8ff" points="142.63,-87.81 139.13,-77.81 135.63,-87.81 142.63,-87.81"/>
</a>
</g>
</g>
</g>
</svg>
