<?xml version="1.0" encoding="UTF-8" standalone="no"?>
<!DOCTYPE svg PUBLIC "-//W3C//DTD SVG 1.1//EN"
 "http://www.w3.org/Graphics/SVG/1.1/DTD/svg11.dtd">
<!-- Generated by graphviz version 16.1.0 (0)
 -->
<!-- Title: src/bot_library/persistence/UserDTO.hpp Pages: 1 -->
<svg width="1123pt" height="188pt"
 viewBox="0.00 0.00 1123.00 188.00" xmlns="http://www.w3.org/2000/svg" xmlns:xlink="http://www.w3.org/1999/xlink">
<g id="graph0" class="graph" transform="scale(1 1) rotate(0) translate(4 184)">
<title>src/bot_library/persistence/UserDTO.hpp</title>
<!-- Node1 -->
<g id="Node000001" class="node">
<title>Node1</title>
<g id="a_Node000001"><a xlink:title=" ">
<polygon fill="#999999" stroke="#666666" points="711.38,-180 580.62,-180 580.62,-148 711.38,-148 711.38,-180"/>
<text xml:space="preserve" text-anchor="start" x="588.62" y="-166.5" font-family="Helvetica,sans-Serif" font-size="10.00">src/bot_library/persistence</text>
<text xml:space="preserve" text-anchor="middle" x="646" y="-154.5" font-family="Helvetica,sans-Serif" font-size="10.00">/UserDTO.hpp</text>
</a>
</g>
</g>
<!-- Node2 -->
<g id="Node000002" class="node">
<title>Node2</title>
<g id="a_Node000002"><a xlink:href="ChallengeBadgeCommand_8cpp.html" target="_top" xlink:title=" ">
<polygon fill="white" stroke="#666666" points="166,-44 0,-44 0,0 166,0 166,-44"/>
<text xml:space="preserve" text-anchor="start" x="8" y="-30.5" font-family="Helvetica,sans-Serif" font-size="10.00">src/bot_library/commands</text>
<text xml:space="preserve" text-anchor="start" x="8" y="-18.5" font-family="Helvetica,sans-Serif" font-size="10.00">/challenge_badge/ChallengeBadge</text>
<text xml:space="preserve" text-anchor="middle" x="83" y="-6.5" font-family="Helvetica,sans-Serif" font-size="10.00">Command.cpp</text>
</a>
</g>
</g>
<!-- Node1&#45;&gt;Node2 -->
<g id="edge1_Node000001_Node000002" class="edge">
<title>Node1&#45;&gt;Node2</title>
<g id="a_edge1_Node000001_Node000002"><a xlink:title=" ">
<path fill="none" stroke="#63b8ff" d="M569.03,-149.16C518.72,-139.69 451.68,-126.31 393,-112 309.36,-91.6 214.37,-63.6 151.83,-44.49"/>
<polygon fill="#63b8ff" stroke="#63b8ff" points="568.19,-152.56 578.67,-150.96 569.48,-145.68 568.19,-152.56"/>
</a>
</g>
</g>
<!-- Node3 -->
<g id="Node000003" class="node">
<title>Node3</title>
<g id="a_Node000003"><a xlink:href="FlipCommand_8cpp.html" target="_top" xlink:title=" ">
<polygon fill="white" stroke="#666666" points="312.25,-38 183.75,-38 183.75,-6 312.25,-6 312.25,-38"/>
<text xml:space="preserve" text-anchor="start" x="191.75" y="-24.5" font-family="Helvetica,sans-Serif" font-size="10.00">src/bot_library/commands</text>
<text xml:space="preserve" text-anchor="middle" x="248" y="-12.5" font-family="Helvetica,sans-Serif" font-size="10.00">/flip/FlipCommand.cpp</text>
</a>
</g>
</g>
<!-- Node1&#45;&gt;Node3 -->
<g id="edge2_Node000001_Node000003" class="edge">
<title>Node1&#45;&gt;Node3</title>
<g id="a_edge2_Node000001_Node000003"><a xlink:title=" ">
<path fill="none" stroke="#63b8ff" d="M581.96,-144.27C551.27,-135.02 514.07,-123.41 481,-112 411.62,-88.05 331.97,-56.8 286.06,-38.42"/>
<polygon fill="#63b8ff" stroke="#63b8ff" points="580.92,-147.61 591.51,-147.13 582.93,-140.9 580.92,-147.61"/>
</a>
</g>
</g>
<!-- Node4 -->
<g id="Node000004" class="node">
<title>Node4</title>
<g id="a_Node000004"><a xlink:href="LeaderboardCommand_8cpp.html" target="_top" xlink:title=" ">
<polygon fill="white" stroke="#666666" points="519.62,-38 330.38,-38 330.38,-6 519.62,-6 519.62,-38"/>
<text xml:space="preserve" text-anchor="start" x="338.38" y="-24.5" font-family="Helvetica,sans-Serif" font-size="10.00">src/bot_library/commands</text>
<text xml:space="preserve" text-anchor="middle" x="425" y="-12.5" font-family="Helvetica,sans-Serif" font-size="10.00">/leaderboard/LeaderboardCommand.cpp</text>
</a>
</g>
</g>
<!-- Node1&#45;&gt;Node4 -->
<g id="edge3_Node000001_Node000004" class="edge">
<title>Node1&#45;&gt;Node4</title>
<g id="a_edge3_Node000001_Node000004"><a xlink:title=" ">
<path fill="none" stroke="#63b8ff" d="M589.81,-143.45C569.03,-135.12 545.74,-124.43 526,-112 491.79,-90.45 457.69,-57.38 439.18,-38.2"/>
<polygon fill="#63b8ff" stroke="#63b8ff" points="588.42,-146.66 599.01,-147.04 590.96,-140.14 588.42,-146.66"/>
</a>
</g>
</g>
<!-- Node5 -->
<g id="Node000005" class="node">
<title>Node5</title>
<g id="a_Node000005"><a xlink:href="ProfileCommand_8cpp.html" target="_top" xlink:title=" ">
<polygon fill="white" stroke="#666666" points="819.88,-38 680.12,-38 680.12,-6 819.88,-6 819.88,-38"/>
<text xml:space="preserve" text-anchor="start" x="688.12" y="-24.5" font-family="Helvetica,sans-Serif" font-size="10.00">src/bot_library/commands</text>
<text xml:space="preserve" text-anchor="middle" x="750" y="-12.5" font-family="Helvetica,sans-Serif" font-size="10.00">/profile/ProfileCommand.cpp</text>
</a>
</g>
</g>
<!-- Node1&#45;&gt;Node5 -->
<g id="edge4_Node000001_Node000005" class="edge">
<title>Node1&#45;&gt;Node5</title>
<g id="a_edge4_Node000001_Node000005"><a xlink:title=" ">
<path fill="none" stroke="#63b8ff" d="M664.04,-138.72C685.51,-109.81 720.72,-62.41 738.69,-38.23"/>
<polygon fill="#63b8ff" stroke="#63b8ff" points="661.38,-136.42 658.23,-146.54 667,-140.6 661.38,-136.42"/>
</a>
</g>
</g>
<!-- Node6 -->
<g id="Node000006" class="node">
<title>Node6</title>
<g id="a_Node000006"><a xlink:href="RollCommand_8cpp.html" target="_top" xlink:title=" ">
<polygon fill="white" stroke="#666666" points="966.25,-38 837.75,-38 837.75,-6 966.25,-6 966.25,-38"/>
<text xml:space="preserve" text-anchor="start" x="845.75" y="-24.5" font-family="Helvetica,sans-Serif" font-size="10.00">src/bot_library/commands</text>
<text xml:space="preserve" text-anchor="middle" x="902" y="-12.5" font-family="Helvetica,sans-Serif" font-size="10.00">/roll/RollCommand.cpp</text>
</a>
</g>
</g>
<!-- Node1&#45;&gt;Node6 -->
<g id="edge5_Node000001_Node000006" class="edge">
<title>Node1&#45;&gt;Node6</title>
<g id="a_edge5_Node000001_Node000006"><a xlink:title=" ">
<path fill="none" stroke="#63b8ff" d="M674.7,-140.49C704.03,-117.58 746.48,-84.77 755,-80 785.81,-62.75 822.9,-48.41 852.11,-38.43"/>
<polygon fill="#63b8ff" stroke="#63b8ff" points="672.6,-137.68 666.88,-146.6 676.92,-143.19 672.6,-137.68"/>
</a>
</g>
</g>
<!-- Node7 -->
<g id="Node000007" class="node">
<title>Node7</title>
<g id="a_Node000007"><a xlink:href="UserDTO_8cpp.html" target="_top" xlink:title=" ">
<polygon fill="white" stroke="#666666" points="927.38,-112 796.62,-112 796.62,-80 927.38,-80 927.38,-112"/>
<text xml:space="preserve" text-anchor="start" x="804.62" y="-98.5" font-family="Helvetica,sans-Serif" font-size="10.00">src/bot_library/persistence</text>
<text xml:space="preserve" text-anchor="middle" x="862" y="-86.5" font-family="Helvetica,sans-Serif" font-size="10.00">/UserDTO.cpp</text>
</a>
</g>
</g>
<!-- Node1&#45;&gt;Node7 -->
<g id="edge6_Node000001_Node000007" class="edge">
<title>Node1&#45;&gt;Node7</title>
<g id="a_edge6_Node000001_Node000007"><a xlink:title=" ">
<path fill="none" stroke="#63b8ff" d="M707.48,-144.21C740.32,-134.18 780.26,-121.98 811.3,-112.49"/>
<polygon fill="#63b8ff" stroke="#63b8ff" points="706.63,-140.81 698.09,-147.08 708.68,-147.51 706.63,-140.81"/>
</a>
</g>
</g>
<!-- Node8 -->
<g id="Node000008" class="node">
<title>Node8</title>
<g id="a_Node000008"><a xlink:href="UserRepository_8cpp.html" target="_top" xlink:title=" ">
<polygon fill="white" stroke="#666666" points="1115.38,-38 984.62,-38 984.62,-6 1115.38,-6 1115.38,-38"/>
<text xml:space="preserve" text-anchor="start" x="992.62" y="-24.5" font-family="Helvetica,sans-Serif" font-size="10.00">src/bot_library/persistence</text>
<text xml:space="preserve" text-anchor="middle" x="1050" y="-12.5" font-family="Helvetica,sans-Serif" font-size="10.00">/UserRepository.cpp</text>
</a>
</g>
</g>
<!-- Node1&#45;&gt;Node8 -->
<g id="edge7_Node000001_Node000008" class="edge">
<title>Node1&#45;&gt;Node8</title>
<g id="a_edge7_Node000001_Node000008"><a xlink:title=" ">
<path fill="none" stroke="#63b8ff" d="M691.73,-142.68C709.73,-134.03 730.3,-123.33 748,-112 767.18,-99.73 767.33,-89.54 788,-80 864.85,-44.53 892.62,-63.43 975,-44 982.11,-42.32 989.55,-40.42 996.88,-38.46"/>
<polygon fill="#63b8ff" stroke="#63b8ff" points="690.38,-139.45 682.83,-146.88 693.37,-145.78 690.38,-139.45"/>
</a>
</g>
</g>
<!-- Node9 -->
<g id="Node000009" class="node">
<title>Node9</title>
<g id="a_Node000009"><a xlink:href="UserRepository_8hpp.html" target="_top" xlink:title=" ">
<polygon fill="white" stroke="#666666" points="665.38,-112 534.62,-112 534.62,-80 665.38,-80 665.38,-112"/>
<text xml:space="preserve" text-anchor="start" x="542.62" y="-98.5" font-family="Helvetica,sans-Serif" font-size="10.00">src/bot_library/persistence</text>
<text xml:space="preserve" text-anchor="middle" x="600" y="-86.5" font-family="Helvetica,sans-Serif" font-size="10.00">/UserRepository.hpp</text>
</a>
</g>
</g>
<!-- Node1&#45;&gt;Node9 -->
<g id="edge8_Node000001_Node000009" class="edge">
<title>Node1&#45;&gt;Node9</title>
<g id="a_edge8_Node000001_Node000009"><a xlink:title=" ">
<path fill="none" stroke="#63b8ff" d="M628.79,-138.3C622.69,-129.55 616,-119.96 610.61,-112.22"/>
<polygon fill="#63b8ff" stroke="#63b8ff" points="625.88,-140.25 634.47,-146.45 631.62,-136.25 625.88,-140.25"/>
</a>
</g>
</g>
<!-- Node9&#45;&gt;Node2 -->
<g id="edge9_Node000009_Node000002" class="edge">
<title>Node9&#45;&gt;Node2</title>
<g id="a_edge9_Node000009_Node000002"><a xlink:title=" ">
<path fill="none" stroke="#63b8ff" d="M522.74,-88.19C437.3,-80.09 295.75,-64.97 175,-44 172.09,-43.5 169.14,-42.96 166.17,-42.4"/>
<polygon fill="#63b8ff" stroke="#63b8ff" points="522.37,-91.67 532.66,-89.12 523.03,-84.7 522.37,-91.67"/>
</a>
</g>
</g>
<!-- Node9&#45;&gt;Node3 -->
<g id="edge10_Node000009_Node000003" class="edge">
<title>Node9&#45;&gt;Node3</title>
<g id="a_edge10_Node000009_Node000003"><a xlink:title=" ">
<path fill="none" stroke="#63b8ff" d="M522.92,-83.02C466.66,-73.77 388.72,-59.89 321,-44 313.94,-42.34 306.54,-40.43 299.28,-38.44"/>
<polygon fill="#63b8ff" stroke="#63b8ff" points="522.3,-86.47 532.73,-84.63 523.43,-79.56 522.3,-86.47"/>
</a>
</g>
</g>
<!-- Node9&#45;&gt;Node4 -->
<g id="edge11_Node000009_Node000004" class="edge">
<title>Node9&#45;&gt;Node4</title>
<g id="a_edge11_Node000009_Node000004"><a xlink:title=" ">
<path fill="none" stroke="#63b8ff" d="M552.02,-75.26C523.8,-63.65 488.65,-49.19 462.48,-38.42"/>
<polygon fill="#63b8ff" stroke="#63b8ff" points="550.48,-78.41 561.06,-78.98 553.14,-71.94 550.48,-78.41"/>
</a>
</g>
</g>
<!-- Node9&#45;&gt;Node5 -->
<g id="edge12_Node000009_Node000005" class="edge">
<title>Node9&#45;&gt;Node5</title>
<g id="a_edge12_Node000009_Node000005"><a xlink:title=" ">
<path fill="none" stroke="#63b8ff" d="M642.41,-74.64C666.37,-63.14 695.84,-49 717.87,-38.42"/>
<polygon fill="#63b8ff" stroke="#63b8ff" points="641.04,-71.42 633.54,-78.9 644.07,-77.73 641.04,-71.42"/>
</a>
</g>
</g>
<!-- Node9&#45;&gt;Node6 -->
<g id="edge13_Node000009_Node000006" class="edge">
<title>Node9&#45;&gt;Node6</title>
<g id="a_edge13_Node000009_Node000006"><a xlink:title=" ">
<path fill="none" stroke="#63b8ff" d="M676.46,-79.19C721.1,-69.66 778.42,-56.89 829,-44 835.77,-42.27 842.87,-40.36 849.87,-38.42"/>
<polygon fill="#63b8ff" stroke="#63b8ff" points="675.93,-75.73 666.88,-81.23 677.39,-82.57 675.93,-75.73"/>
</a>
</g>
</g>
<!-- Node9&#45;&gt;Node8 -->
<g id="edge14_Node000009_Node000008" class="edge">
<title>Node9&#45;&gt;Node8</title>
<g id="a_edge14_Node000009_Node000008"><a xlink:title=" ">
<path fill="none" stroke="#63b8ff" d="M677.22,-87.64C753.41,-79.65 872.95,-65.12 975,-44 982.68,-42.41 990.73,-40.46 998.59,-38.4"/>
<polygon fill="#63b8ff" stroke="#63b8ff" points="676.93,-84.15 667.34,-88.67 677.65,-91.12 676.93,-84.15"/>
</a>
</g>
</g>
<!-- Node10 -->
<g id="Node000010" class="node">
<title>Node10</title>
<g id="a_Node000010"><a xlink:href="LeaderboardHandler_8cpp.html" target="_top" xlink:title=" ">
<polygon fill="white" stroke="#666666" points="662.38,-38 537.62,-38 537.62,-6 662.38,-6 662.38,-38"/>
<text xml:space="preserve" text-anchor="start" x="545.62" y="-24.5" font-family="Helvetica,sans-Serif" font-size="10.00">src/bot_library/restapi</text>
<text xml:space="preserve" text-anchor="middle" x="600" y="-12.5" font-family="Helvetica,sans-Serif" font-size="10.00">/LeaderboardHandler.cpp</text>
</a>
</g>
</g>
<!-- Node9&#45;&gt;Node10 -->
<g id="edge15_Node000009_Node000010" class="edge">
<title>Node9&#45;&gt;Node10</title>
<g id="a_edge15_Node000009_Node000010"><a xlink:title=" ">
<path fill="none" stroke="#63b8ff" d="M600,-68.49C600,-58.3 600,-47.03 600,-38.25"/>
<polygon fill="#63b8ff" stroke="#63b8ff" points="596.5,-68.22 600,-78.22 603.5,-68.22 596.5,-68.22"/>
</a>
</g>
</g>
</g>
</svg>
