<?xml version="1.0" encoding="UTF-8" standalone="no"?>
<!DOCTYPE svg PUBLIC "-//W3C//DTD SVG 1.1//EN"
 "http://www.w3.org/Graphics/SVG/1.1/DTD/svg11.dtd">
<!-- Generated by graphviz version 13.0.1 (0)
 -->
<!-- Title: src/bot_library/commands/challenge_badge/UserRepository.cpp Pages: 1 -->
<svg width="426pt" height="320pt"
 viewBox="0.00 0.00 426.00 320.00" xmlns="http://www.w3.org/2000/svg" xmlns:xlink="http://www.w3.org/1999/xlink">
<g id="graph0" class="graph" transform="scale(1 1) rotate(0) translate(4 316)">
<title>src/bot_library/commands/challenge_badge/UserRepository.cpp</title>
<!-- Node1 -->
<g id="Node000001" class="node">
<title>Node1</title>
<g id="a_Node000001"><a xlink:title=" ">
<polygon fill="#999999" stroke="#666666" points="230.62,-312 49.62,-312 49.62,-280 230.62,-280 230.62,-312"/>
<text xml:space="preserve" text-anchor="start" x="57.62" y="-298.5" font-family="Helvetica,sans-Serif" font-size="10.00">src/bot_library/commands</text>
<text xml:space="preserve" text-anchor="middle" x="140.12" y="-286.5" font-family="Helvetica,sans-Serif" font-size="10.00">/challenge_badge/UserRepository.cpp</text>
</a>
</g>
</g>
<!-- Node2 -->
<g id="Node000002" class="node">
<title>Node2</title>
<g id="a_Node000002"><a xlink:href="UserRepository_8hpp.html" target="_top" xlink:title=" ">
<polygon fill="white" stroke="#666666" points="152.25,-244 50,-244 50,-224 152.25,-224 152.25,-244"/>
<text xml:space="preserve" text-anchor="middle" x="101.12" y="-230.5" font-family="Helvetica,sans-Serif" font-size="10.00">UserRepository.hpp</text>
</a>
</g>
</g>
<!-- Node1&#45;&gt;Node2 -->
<g id="edge1_Node000001_Node000002" class="edge">
<title>Node1&#45;&gt;Node2</title>
<g id="a_edge1_Node000001_Node000002"><a xlink:title=" ">
<path fill="none" stroke="#63b8ff" d="M130.08,-279.55C125,-271.74 118.8,-262.19 113.43,-253.94"/>
<polygon fill="#63b8ff" stroke="#63b8ff" points="116.45,-252.15 108.07,-245.68 110.58,-255.97 116.45,-252.15"/>
</a>
</g>
</g>
<!-- Node4 -->
<g id="Node000004" class="node">
<title>Node4</title>
<g id="a_Node000004"><a xlink:title=" ">
<polygon fill="#e0e0e0" stroke="#999999" points="48.25,-132 0,-132 0,-112 48.25,-112 48.25,-132"/>
<text xml:space="preserve" text-anchor="middle" x="24.12" y="-118.5" font-family="Helvetica,sans-Serif" font-size="10.00">cstddef</text>
</a>
</g>
</g>
<!-- Node1&#45;&gt;Node4 -->
<g id="edge15_Node000001_Node000004" class="edge">
<title>Node1&#45;&gt;Node4</title>
<g id="a_edge15_Node000001_Node000004"><a xlink:title=" ">
<path fill="none" stroke="#63b8ff" d="M89.9,-279.53C71.99,-271.61 53.26,-260.15 41.12,-244 19.1,-214.7 19.06,-169.82 21.37,-143.75"/>
<polygon fill="#63b8ff" stroke="#63b8ff" points="24.84,-144.14 22.47,-133.81 17.89,-143.36 24.84,-144.14"/>
</a>
</g>
</g>
<!-- Node5 -->
<g id="Node000005" class="node">
<title>Node5</title>
<g id="a_Node000005"><a xlink:href="UserDTO_8hpp.html" target="_top" xlink:title=" ">
<polygon fill="white" stroke="#666666" points="218.5,-188 141.75,-188 141.75,-168 218.5,-168 218.5,-188"/>
<text xml:space="preserve" text-anchor="middle" x="180.12" y="-174.5" font-family="Helvetica,sans-Serif" font-size="10.00">UserDTO.hpp</text>
</a>
</g>
</g>
<!-- Node1&#45;&gt;Node5 -->
<g id="edge16_Node000001_Node000005" class="edge">
<title>Node1&#45;&gt;Node5</title>
<g id="a_edge16_Node000001_Node000005"><a xlink:title=" ">
<path fill="none" stroke="#63b8ff" d="M146.99,-279.54C151.32,-269.51 156.88,-256.11 161.12,-244 166.32,-229.2 171.26,-212.18 174.8,-199.27"/>
<polygon fill="#63b8ff" stroke="#63b8ff" points="178.12,-200.38 177.33,-189.82 171.36,-198.57 178.12,-200.38"/>
</a>
</g>
</g>
<!-- Node10 -->
<g id="Node000010" class="node">
<title>Node10</title>
<g id="a_Node000010"><a xlink:href="Database_8hpp.html" target="_top" xlink:title=" ">
<polygon fill="white" stroke="#666666" points="313.5,-188 236.75,-188 236.75,-168 313.5,-168 313.5,-188"/>
<text xml:space="preserve" text-anchor="middle" x="275.12" y="-174.5" font-family="Helvetica,sans-Serif" font-size="10.00">Database.hpp</text>
</a>
</g>
</g>
<!-- Node1&#45;&gt;Node10 -->
<g id="edge9_Node000001_Node000010" class="edge">
<title>Node1&#45;&gt;Node10</title>
<g id="a_edge9_Node000001_Node000010"><a xlink:title=" ">
<path fill="none" stroke="#63b8ff" d="M158.05,-279.6C183.35,-257.86 229.35,-218.34 255.52,-195.84"/>
<polygon fill="#63b8ff" stroke="#63b8ff" points="257.74,-198.55 263.05,-189.38 253.18,-193.24 257.74,-198.55"/>
</a>
</g>
</g>
<!-- Node3 -->
<g id="Node000003" class="node">
<title>Node3</title>
<g id="a_Node000003"><a xlink:href="IRepository_8hpp.html" target="_top" xlink:title=" ">
<polygon fill="white" stroke="#666666" points="123.25,-188 39,-188 39,-168 123.25,-168 123.25,-188"/>
<text xml:space="preserve" text-anchor="middle" x="81.12" y="-174.5" font-family="Helvetica,sans-Serif" font-size="10.00">IRepository.hpp</text>
</a>
</g>
</g>
<!-- Node2&#45;&gt;Node3 -->
<g id="edge2_Node000002_Node000003" class="edge">
<title>Node2&#45;&gt;Node3</title>
<g id="a_edge2_Node000002_Node000003"><a xlink:title=" ">
<path fill="none" stroke="#63b8ff" d="M97.64,-223.59C95.12,-216.78 91.61,-207.32 88.48,-198.86"/>
<polygon fill="#63b8ff" stroke="#63b8ff" points="91.85,-197.88 85.09,-189.72 85.29,-200.31 91.85,-197.88"/>
</a>
</g>
</g>
<!-- Node2&#45;&gt;Node5 -->
<g id="edge4_Node000002_Node000005" class="edge">
<title>Node2&#45;&gt;Node5</title>
<g id="a_edge4_Node000002_Node000005"><a xlink:title=" ">
<path fill="none" stroke="#63b8ff" d="M114.89,-223.59C126.48,-215.67 143.32,-204.16 156.99,-194.82"/>
<polygon fill="#63b8ff" stroke="#63b8ff" points="158.73,-197.87 165.01,-189.33 154.78,-192.09 158.73,-197.87"/>
</a>
</g>
</g>
<!-- Node3&#45;&gt;Node4 -->
<g id="edge3_Node000003_Node000004" class="edge">
<title>Node3&#45;&gt;Node4</title>
<g id="a_edge3_Node000003_Node000004"><a xlink:title=" ">
<path fill="none" stroke="#63b8ff" d="M71.2,-167.59C63.19,-160.01 51.71,-149.13 42.09,-140.02"/>
<polygon fill="#63b8ff" stroke="#63b8ff" points="44.71,-137.68 35.04,-133.34 39.89,-142.76 44.71,-137.68"/>
</a>
</g>
</g>
<!-- Node6 -->
<g id="Node000006" class="node">
<title>Node6</title>
<g id="a_Node000006"><a xlink:href="RowDTOAdapter_8hpp.html" target="_top" xlink:title=" ">
<polygon fill="white" stroke="#666666" points="189,-132 79.25,-132 79.25,-112 189,-112 189,-132"/>
<text xml:space="preserve" text-anchor="middle" x="134.12" y="-118.5" font-family="Helvetica,sans-Serif" font-size="10.00">RowDTOAdapter.hpp</text>
</a>
</g>
</g>
<!-- Node5&#45;&gt;Node6 -->
<g id="edge5_Node000005_Node000006" class="edge">
<title>Node5&#45;&gt;Node6</title>
<g id="a_edge5_Node000005_Node000006"><a xlink:title=" ">
<path fill="none" stroke="#63b8ff" d="M172.11,-167.59C165.85,-160.24 156.95,-149.8 149.34,-140.87"/>
<polygon fill="#63b8ff" stroke="#63b8ff" points="152.18,-138.79 143.03,-133.45 146.85,-143.33 152.18,-138.79"/>
</a>
</g>
</g>
<!-- Node9 -->
<g id="Node000009" class="node">
<title>Node9</title>
<g id="a_Node000009"><a xlink:title=" ">
<polygon fill="#e0e0e0" stroke="#999999" points="247.12,-132 207.12,-132 207.12,-112 247.12,-112 247.12,-132"/>
<text xml:space="preserve" text-anchor="middle" x="227.12" y="-118.5" font-family="Helvetica,sans-Serif" font-size="10.00">string</text>
</a>
</g>
</g>
<!-- Node5&#45;&gt;Node9 -->
<g id="edge8_Node000005_Node000009" class="edge">
<title>Node5&#45;&gt;Node9</title>
<g id="a_edge8_Node000005_Node000009"><a xlink:title=" ">
<path fill="none" stroke="#63b8ff" d="M188.31,-167.59C194.71,-160.24 203.8,-149.8 211.58,-140.87"/>
<polygon fill="#63b8ff" stroke="#63b8ff" points="214.11,-143.28 218.04,-133.44 208.83,-138.69 214.11,-143.28"/>
</a>
</g>
</g>
<!-- Node7 -->
<g id="Node000007" class="node">
<title>Node7</title>
<g id="a_Node000007"><a xlink:href="DatabaseBackend_8hpp.html" target="_top" xlink:title=" ">
<polygon fill="white" stroke="#666666" points="261.62,-76 146.62,-76 146.62,-56 261.62,-56 261.62,-76"/>
<text xml:space="preserve" text-anchor="middle" x="204.12" y="-62.5" font-family="Helvetica,sans-Serif" font-size="10.00">DatabaseBackend.hpp</text>
</a>
</g>
</g>
<!-- Node6&#45;&gt;Node7 -->
<g id="edge6_Node000006_Node000007" class="edge">
<title>Node6&#45;&gt;Node7</title>
<g id="a_edge6_Node000006_Node000007"><a xlink:title=" ">
<path fill="none" stroke="#63b8ff" d="M146.32,-111.59C156.46,-103.77 171.12,-92.46 183.14,-83.19"/>
<polygon fill="#63b8ff" stroke="#63b8ff" points="185.09,-86.1 190.87,-77.22 180.82,-80.56 185.09,-86.1"/>
</a>
</g>
</g>
<!-- Node8 -->
<g id="Node000008" class="node">
<title>Node8</title>
<g id="a_Node000008"><a xlink:title=" ">
<polygon fill="#e0e0e0" stroke="#999999" points="234.62,-20 173.62,-20 173.62,0 234.62,0 234.62,-20"/>
<text xml:space="preserve" text-anchor="middle" x="204.12" y="-6.5" font-family="Helvetica,sans-Serif" font-size="10.00">pqxx/pqxx</text>
</a>
</g>
</g>
<!-- Node7&#45;&gt;Node8 -->
<g id="edge7_Node000007_Node000008" class="edge">
<title>Node7&#45;&gt;Node8</title>
<g id="a_edge7_Node000007_Node000008"><a xlink:title=" ">
<path fill="none" stroke="#63b8ff" d="M204.12,-55.59C204.12,-49.01 204.12,-39.96 204.12,-31.73"/>
<polygon fill="#63b8ff" stroke="#63b8ff" points="207.63,-31.81 204.13,-21.81 200.63,-31.81 207.63,-31.81"/>
</a>
</g>
</g>
<!-- Node10&#45;&gt;Node6 -->
<g id="edge14_Node000010_Node000006" class="edge">
<title>Node10&#45;&gt;Node6</title>
<g id="a_edge14_Node000010_Node000006"><a xlink:title=" ">
<path fill="none" stroke="#63b8ff" d="M250.56,-167.59C228.16,-159.01 194.79,-146.23 169.51,-136.55"/>
<polygon fill="#63b8ff" stroke="#63b8ff" points="170.88,-133.33 160.29,-133.02 168.38,-139.87 170.88,-133.33"/>
</a>
</g>
</g>
<!-- Node10&#45;&gt;Node7 -->
<g id="edge13_Node000010_Node000007" class="edge">
<title>Node10&#45;&gt;Node7</title>
<g id="a_edge13_Node000010_Node000007"><a xlink:title=" ">
<path fill="none" stroke="#63b8ff" d="M274.12,-167.92C272.31,-154.71 267.56,-129.81 256.12,-112 248.89,-100.73 238.01,-90.7 228.07,-82.98"/>
<polygon fill="#63b8ff" stroke="#63b8ff" points="230.34,-80.31 220.2,-77.23 226.21,-85.96 230.34,-80.31"/>
</a>
</g>
</g>
<!-- Node10&#45;&gt;Node9 -->
<g id="edge11_Node000010_Node000009" class="edge">
<title>Node10&#45;&gt;Node9</title>
<g id="a_edge11_Node000010_Node000009"><a xlink:title=" ">
<path fill="none" stroke="#63b8ff" d="M266.76,-167.59C260.23,-160.24 250.94,-149.8 243.01,-140.87"/>
<polygon fill="#63b8ff" stroke="#63b8ff" points="245.66,-138.58 236.4,-133.43 240.42,-143.23 245.66,-138.58"/>
</a>
</g>
</g>
<!-- Node11 -->
<g id="Node000011" class="node">
<title>Node11</title>
<g id="a_Node000011"><a xlink:title=" ">
<polygon fill="#e0e0e0" stroke="#999999" points="356.88,-132 303.38,-132 303.38,-112 356.88,-112 356.88,-132"/>
<text xml:space="preserve" text-anchor="middle" x="330.12" y="-118.5" font-family="Helvetica,sans-Serif" font-size="10.00">iostream</text>
</a>
</g>
</g>
<!-- Node10&#45;&gt;Node11 -->
<g id="edge10_Node000010_Node000011" class="edge">
<title>Node10&#45;&gt;Node11</title>
<g id="a_edge10_Node000010_Node000011"><a xlink:title=" ">
<path fill="none" stroke="#63b8ff" d="M284.71,-167.59C292.36,-160.08 303.28,-149.35 312.5,-140.3"/>
<polygon fill="#63b8ff" stroke="#63b8ff" points="314.89,-142.86 319.57,-133.36 309.99,-137.87 314.89,-142.86"/>
</a>
</g>
</g>
<!-- Node12 -->
<g id="Node000012" class="node">
<title>Node12</title>
<g id="a_Node000012"><a xlink:title=" ">
<polygon fill="#e0e0e0" stroke="#999999" points="417.62,-132 374.62,-132 374.62,-112 417.62,-112 417.62,-132"/>
<text xml:space="preserve" text-anchor="middle" x="396.12" y="-118.5" font-family="Helvetica,sans-Serif" font-size="10.00">vector</text>
</a>
</g>
</g>
<!-- Node10&#45;&gt;Node12 -->
<g id="edge12_Node000010_Node000012" class="edge">
<title>Node10&#45;&gt;Node12</title>
<g id="a_edge12_Node000010_Node000012"><a xlink:title=" ">
<path fill="none" stroke="#63b8ff" d="M296.2,-167.59C315.08,-159.17 343.04,-146.69 364.59,-137.07"/>
<polygon fill="#63b8ff" stroke="#63b8ff" points="365.8,-140.37 373.5,-133.1 362.94,-133.98 365.8,-140.37"/>
</a>
</g>
</g>
</g>
</svg>
