<?xml version="1.0" encoding="UTF-8" standalone="no"?>
<!DOCTYPE svg PUBLIC "-//W3C//DTD SVG 1.1//EN"
 "http://www.w3.org/Graphics/SVG/1.1/DTD/svg11.dtd">
<!-- Generated by graphviz version 12.2.1 (0)
 -->
<!-- Title: src/bot_library/commands/challenge_badge/UserRepository.hpp Pages: 1 -->
<svg width="1303pt" height="120pt"
 viewBox="0.00 0.00 1302.88 120.00" xmlns="http://www.w3.org/2000/svg" xmlns:xlink="http://www.w3.org/1999/xlink">
<g id="graph0" class="graph" transform="scale(1 1) rotate(0) translate(4 116)">
<title>src/bot_library/commands/challenge_badge/UserRepository.hpp</title>
<!-- Node1 -->
<g id="Node000001" class="node">
<title>Node1</title>
<g id="a_Node000001"><a xlink:title=" ">
<polygon fill="#999999" stroke="#666666" points="806.5,-112 625.5,-112 625.5,-80 806.5,-80 806.5,-112"/>
<text text-anchor="start" x="633.5" y="-98.5" font-family="Helvetica,sans-Serif" font-size="10.00">src/bot_library/commands</text>
<text text-anchor="middle" x="716" y="-86.5" font-family="Helvetica,sans-Serif" font-size="10.00">/challenge_badge/UserRepository.hpp</text>
</a>
</g>
</g>
<!-- Node2 -->
<g id="Node000002" class="node">
<title>Node2</title>
<g id="a_Node000002"><a xlink:href="ChallengeBadgeCommand_8cpp.html" target="_top" xlink:title=" ">
<polygon fill="white" stroke="#666666" points="166,-44 0,-44 0,0 166,0 166,-44"/>
<text text-anchor="start" x="8" y="-30.5" font-family="Helvetica,sans-Serif" font-size="10.00">src/bot_library/commands</text>
<text text-anchor="start" x="8" y="-18.5" font-family="Helvetica,sans-Serif" font-size="10.00">/challenge_badge/ChallengeBadge</text>
<text text-anchor="middle" x="83" y="-6.5" font-family="Helvetica,sans-Serif" font-size="10.00">Command.cpp</text>
</a>
</g>
</g>
<!-- Node1&#45;&gt;Node2 -->
<g id="edge1_Node000001_Node000002" class="edge">
<title>Node1&#45;&gt;Node2</title>
<g id="a_edge1_Node000001_Node000002"><a xlink:title=" ">
<path fill="none" stroke="#63b8ff" d="M613.76,-89.35C504.6,-82.39 326.81,-68.38 175,-44 172.09,-43.53 169.13,-43.03 166.15,-42.49"/>
<polygon fill="#63b8ff" stroke="#63b8ff" points="613.37,-92.83 623.58,-89.97 613.81,-85.84 613.37,-92.83"/>
</a>
</g>
</g>
<!-- Node3 -->
<g id="Node000003" class="node">
<title>Node3</title>
<g id="a_Node000003"><a xlink:href="UserRepository_8cpp.html" target="_top" xlink:title=" ">
<polygon fill="white" stroke="#666666" points="365.5,-38 184.5,-38 184.5,-6 365.5,-6 365.5,-38"/>
<text text-anchor="start" x="192.5" y="-24.5" font-family="Helvetica,sans-Serif" font-size="10.00">src/bot_library/commands</text>
<text text-anchor="middle" x="275" y="-12.5" font-family="Helvetica,sans-Serif" font-size="10.00">/challenge_badge/UserRepository.cpp</text>
</a>
</g>
</g>
<!-- Node1&#45;&gt;Node3 -->
<g id="edge2_Node000001_Node000003" class="edge">
<title>Node1&#45;&gt;Node3</title>
<g id="a_edge2_Node000001_Node000003"><a xlink:title=" ">
<path fill="none" stroke="#63b8ff" d="M614.18,-81.36C546.27,-71.87 455.09,-58.39 375,-44 365.66,-42.32 355.85,-40.43 346.19,-38.48"/>
<polygon fill="#63b8ff" stroke="#63b8ff" points="613.41,-84.79 623.8,-82.7 614.38,-77.85 613.41,-84.79"/>
</a>
</g>
</g>
<!-- Node4 -->
<g id="Node000004" class="node">
<title>Node4</title>
<g id="a_Node000004"><a xlink:href="FlipCommand_8cpp.html" target="_top" xlink:title=" ">
<polygon fill="white" stroke="#666666" points="512.25,-38 383.75,-38 383.75,-6 512.25,-6 512.25,-38"/>
<text text-anchor="start" x="391.75" y="-24.5" font-family="Helvetica,sans-Serif" font-size="10.00">src/bot_library/commands</text>
<text text-anchor="middle" x="448" y="-12.5" font-family="Helvetica,sans-Serif" font-size="10.00">/flip/FlipCommand.cpp</text>
</a>
</g>
</g>
<!-- Node1&#45;&gt;Node4 -->
<g id="edge3_Node000001_Node000004" class="edge">
<title>Node1&#45;&gt;Node4</title>
<g id="a_edge3_Node000001_Node000004"><a xlink:title=" ">
<path fill="none" stroke="#63b8ff" d="M644.14,-76.65C607.27,-67.12 561.67,-55.17 521,-44 514.51,-42.22 507.72,-40.31 500.99,-38.41"/>
<polygon fill="#63b8ff" stroke="#63b8ff" points="643.27,-80.04 653.83,-79.15 645.02,-73.26 643.27,-80.04"/>
</a>
</g>
</g>
<!-- Node5 -->
<g id="Node000005" class="node">
<title>Node5</title>
<g id="a_Node000005"><a xlink:href="LeaderboardCommand_8cpp.html" target="_top" xlink:title=" ">
<polygon fill="white" stroke="#666666" points="719.62,-38 530.38,-38 530.38,-6 719.62,-6 719.62,-38"/>
<text text-anchor="start" x="538.38" y="-24.5" font-family="Helvetica,sans-Serif" font-size="10.00">src/bot_library/commands</text>
<text text-anchor="middle" x="625" y="-12.5" font-family="Helvetica,sans-Serif" font-size="10.00">/leaderboard/LeaderboardCommand.cpp</text>
</a>
</g>
</g>
<!-- Node1&#45;&gt;Node5 -->
<g id="edge4_Node000001_Node000005" class="edge">
<title>Node1&#45;&gt;Node5</title>
<g id="a_edge4_Node000001_Node000005"><a xlink:title=" ">
<path fill="none" stroke="#63b8ff" d="M687.92,-72.78C673.88,-61.67 657.23,-48.5 644.58,-38.5"/>
<polygon fill="#63b8ff" stroke="#63b8ff" points="685.5,-75.33 695.51,-78.79 689.84,-69.84 685.5,-75.33"/>
</a>
</g>
</g>
<!-- Node6 -->
<g id="Node000006" class="node">
<title>Node6</title>
<g id="a_Node000006"><a xlink:href="ProfileCommand_8cpp.html" target="_top" xlink:title=" ">
<polygon fill="white" stroke="#666666" points="877.88,-38 738.12,-38 738.12,-6 877.88,-6 877.88,-38"/>
<text text-anchor="start" x="746.12" y="-24.5" font-family="Helvetica,sans-Serif" font-size="10.00">src/bot_library/commands</text>
<text text-anchor="middle" x="808" y="-12.5" font-family="Helvetica,sans-Serif" font-size="10.00">/profile/ProfileCommand.cpp</text>
</a>
</g>
</g>
<!-- Node1&#45;&gt;Node6 -->
<g id="edge5_Node000001_Node000006" class="edge">
<title>Node1&#45;&gt;Node6</title>
<g id="a_edge5_Node000001_Node000006"><a xlink:title=" ">
<path fill="none" stroke="#63b8ff" d="M744.39,-72.78C758.59,-61.67 775.42,-48.5 788.2,-38.5"/>
<polygon fill="#63b8ff" stroke="#63b8ff" points="742.42,-69.88 736.7,-78.8 746.73,-75.39 742.42,-69.88"/>
</a>
</g>
</g>
<!-- Node7 -->
<g id="Node000007" class="node">
<title>Node7</title>
<g id="a_Node000007"><a xlink:href="RollCommand_8cpp.html" target="_top" xlink:title=" ">
<polygon fill="white" stroke="#666666" points="1024.25,-38 895.75,-38 895.75,-6 1024.25,-6 1024.25,-38"/>
<text text-anchor="start" x="903.75" y="-24.5" font-family="Helvetica,sans-Serif" font-size="10.00">src/bot_library/commands</text>
<text text-anchor="middle" x="960" y="-12.5" font-family="Helvetica,sans-Serif" font-size="10.00">/roll/RollCommand.cpp</text>
</a>
</g>
</g>
<!-- Node1&#45;&gt;Node7 -->
<g id="edge6_Node000001_Node000007" class="edge">
<title>Node1&#45;&gt;Node7</title>
<g id="a_edge6_Node000001_Node000007"><a xlink:title=" ">
<path fill="none" stroke="#63b8ff" d="M779.29,-76.32C819.21,-64.55 870.13,-49.52 907.74,-38.42"/>
<polygon fill="#63b8ff" stroke="#63b8ff" points="778.4,-72.94 769.8,-79.13 780.38,-79.65 778.4,-72.94"/>
</a>
</g>
</g>
<!-- Node8 -->
<g id="Node000008" class="node">
<title>Node8</title>
<g id="a_Node000008"><a xlink:href="LeaderboardHandler_8cpp.html" target="_top" xlink:title=" ">
<polygon fill="white" stroke="#666666" points="1167.38,-38 1042.62,-38 1042.62,-6 1167.38,-6 1167.38,-38"/>
<text text-anchor="start" x="1050.62" y="-24.5" font-family="Helvetica,sans-Serif" font-size="10.00">src/bot_library/restapi</text>
<text text-anchor="middle" x="1105" y="-12.5" font-family="Helvetica,sans-Serif" font-size="10.00">/LeaderboardHandler.cpp</text>
</a>
</g>
</g>
<!-- Node1&#45;&gt;Node8 -->
<g id="edge7_Node000001_Node000008" class="edge">
<title>Node1&#45;&gt;Node8</title>
<g id="a_edge7_Node000001_Node000008"><a xlink:title=" ">
<path fill="none" stroke="#63b8ff" d="M817.8,-81.9C880.27,-73.06 961.69,-60.07 1033,-44 1040.11,-42.4 1047.56,-40.49 1054.85,-38.49"/>
<polygon fill="#63b8ff" stroke="#63b8ff" points="817.67,-78.39 808.25,-83.24 818.64,-85.32 817.67,-78.39"/>
</a>
</g>
</g>
<!-- Node9 -->
<g id="Node000009" class="node">
<title>Node9</title>
<g id="a_Node000009"><a xlink:href="RestApi_8cpp.html" target="_top" xlink:title=" ">
<polygon fill="white" stroke="#666666" points="1294.88,-38 1185.12,-38 1185.12,-6 1294.88,-6 1294.88,-38"/>
<text text-anchor="start" x="1193.12" y="-24.5" font-family="Helvetica,sans-Serif" font-size="10.00">src/bot_library/restapi</text>
<text text-anchor="middle" x="1240" y="-12.5" font-family="Helvetica,sans-Serif" font-size="10.00">/RestApi.cpp</text>
</a>
</g>
</g>
<!-- Node1&#45;&gt;Node9 -->
<g id="edge8_Node000001_Node000009" class="edge">
<title>Node1&#45;&gt;Node9</title>
<g id="a_edge8_Node000001_Node000009"><a xlink:title=" ">
<path fill="none" stroke="#63b8ff" d="M818.28,-89.73C912.15,-83.47 1054.64,-70.34 1176,-44 1182.86,-42.51 1190.01,-40.57 1196.96,-38.46"/>
<polygon fill="#63b8ff" stroke="#63b8ff" points="818.06,-86.24 808.31,-90.38 818.51,-93.22 818.06,-86.24"/>
</a>
</g>
</g>
</g>
</svg>
