<?xml version="1.0" encoding="UTF-8" standalone="no"?>
<!DOCTYPE svg PUBLIC "-//W3C//DTD SVG 1.1//EN"
 "http://www.w3.org/Graphics/SVG/1.1/DTD/svg11.dtd">
<!-- Generated by graphviz version 12.2.1 (0)
 -->
<!-- Title: src/bot_library/commands/challenge_badge/UserDTO.hpp Pages: 1 -->
<svg width="1302pt" height="188pt"
 viewBox="0.00 0.00 1302.25 188.00" xmlns="http://www.w3.org/2000/svg" xmlns:xlink="http://www.w3.org/1999/xlink">
<g id="graph0" class="graph" transform="scale(1 1) rotate(0) translate(4 184)">
<title>src/bot_library/commands/challenge_badge/UserDTO.hpp</title>
<!-- Node1 -->
<g id="Node000001" class="node">
<title>Node1</title>
<g id="a_Node000001"><a xlink:title=" ">
<polygon fill="#999999" stroke="#666666" points="702.75,-180 547.25,-180 547.25,-148 702.75,-148 702.75,-180"/>
<text text-anchor="start" x="555.25" y="-166.5" font-family="Helvetica,sans-Serif" font-size="10.00">src/bot_library/commands</text>
<text text-anchor="middle" x="625" y="-154.5" font-family="Helvetica,sans-Serif" font-size="10.00">/challenge_badge/UserDTO.hpp</text>
</a>
</g>
</g>
<!-- Node2 -->
<g id="Node000002" class="node">
<title>Node2</title>
<g id="a_Node000002"><a xlink:href="ChallengeBadgeCommand_8cpp.html" target="_top" xlink:title=" ">
<polygon fill="white" stroke="#666666" points="166,-44 0,-44 0,0 166,0 166,-44"/>
<text text-anchor="start" x="8" y="-30.5" font-family="Helvetica,sans-Serif" font-size="10.00">src/bot_library/commands</text>
<text text-anchor="start" x="8" y="-18.5" font-family="Helvetica,sans-Serif" font-size="10.00">/challenge_badge/ChallengeBadge</text>
<text text-anchor="middle" x="83" y="-6.5" font-family="Helvetica,sans-Serif" font-size="10.00">Command.cpp</text>
</a>
</g>
</g>
<!-- Node1&#45;&gt;Node2 -->
<g id="edge1_Node000001_Node000002" class="edge">
<title>Node1&#45;&gt;Node2</title>
<g id="a_edge1_Node000001_Node000002"><a xlink:title=" ">
<path fill="none" stroke="#63b8ff" d="M545.38,-145.02C504.27,-135.55 453.35,-123.53 408,-112 322.11,-90.15 224.05,-62.99 158.31,-44.46"/>
<polygon fill="#63b8ff" stroke="#63b8ff" points="544.43,-148.39 554.96,-147.22 545.99,-141.57 544.43,-148.39"/>
</a>
</g>
</g>
<!-- Node3 -->
<g id="Node000003" class="node">
<title>Node3</title>
<g id="a_Node000003"><a xlink:href="UserDTO_8cpp.html" target="_top" xlink:title=" ">
<polygon fill="white" stroke="#666666" points="965.75,-112 810.25,-112 810.25,-80 965.75,-80 965.75,-112"/>
<text text-anchor="start" x="818.25" y="-98.5" font-family="Helvetica,sans-Serif" font-size="10.00">src/bot_library/commands</text>
<text text-anchor="middle" x="888" y="-86.5" font-family="Helvetica,sans-Serif" font-size="10.00">/challenge_badge/UserDTO.cpp</text>
</a>
</g>
</g>
<!-- Node1&#45;&gt;Node3 -->
<g id="edge2_Node000001_Node000003" class="edge">
<title>Node1&#45;&gt;Node3</title>
<g id="a_edge2_Node000001_Node000003"><a xlink:title=" ">
<path fill="none" stroke="#63b8ff" d="M697.78,-144.73C738.15,-134.6 787.81,-122.14 826.27,-112.49"/>
<polygon fill="#63b8ff" stroke="#63b8ff" points="696.98,-141.33 688.13,-147.16 698.68,-148.12 696.98,-141.33"/>
</a>
</g>
</g>
<!-- Node4 -->
<g id="Node000004" class="node">
<title>Node4</title>
<g id="a_Node000004"><a xlink:href="UserRepository_8cpp.html" target="_top" xlink:title=" ">
<polygon fill="white" stroke="#666666" points="365.5,-38 184.5,-38 184.5,-6 365.5,-6 365.5,-38"/>
<text text-anchor="start" x="192.5" y="-24.5" font-family="Helvetica,sans-Serif" font-size="10.00">src/bot_library/commands</text>
<text text-anchor="middle" x="275" y="-12.5" font-family="Helvetica,sans-Serif" font-size="10.00">/challenge_badge/UserRepository.cpp</text>
</a>
</g>
</g>
<!-- Node1&#45;&gt;Node4 -->
<g id="edge3_Node000001_Node000004" class="edge">
<title>Node1&#45;&gt;Node4</title>
<g id="a_edge3_Node000001_Node000004"><a xlink:title=" ">
<path fill="none" stroke="#63b8ff" d="M572.12,-143.66C546.87,-134.31 516.29,-122.79 489,-112 425.95,-87.08 353.19,-56.4 310.81,-38.35"/>
<polygon fill="#63b8ff" stroke="#63b8ff" points="570.57,-146.82 581.16,-147.01 573,-140.26 570.57,-146.82"/>
</a>
</g>
</g>
<!-- Node5 -->
<g id="Node000005" class="node">
<title>Node5</title>
<g id="a_Node000005"><a xlink:href="UserRepository_8hpp.html" target="_top" xlink:title=" ">
<polygon fill="white" stroke="#666666" points="715.5,-112 534.5,-112 534.5,-80 715.5,-80 715.5,-112"/>
<text text-anchor="start" x="542.5" y="-98.5" font-family="Helvetica,sans-Serif" font-size="10.00">src/bot_library/commands</text>
<text text-anchor="middle" x="625" y="-86.5" font-family="Helvetica,sans-Serif" font-size="10.00">/challenge_badge/UserRepository.hpp</text>
</a>
</g>
</g>
<!-- Node1&#45;&gt;Node5 -->
<g id="edge4_Node000001_Node000005" class="edge">
<title>Node1&#45;&gt;Node5</title>
<g id="a_edge4_Node000001_Node000005"><a xlink:title=" ">
<path fill="none" stroke="#63b8ff" d="M625,-136.31C625,-128.12 625,-119.38 625,-112.22"/>
<polygon fill="#63b8ff" stroke="#63b8ff" points="621.5,-136.18 625,-146.18 628.5,-136.18 621.5,-136.18"/>
</a>
</g>
</g>
<!-- Node6 -->
<g id="Node000006" class="node">
<title>Node6</title>
<g id="a_Node000006"><a xlink:href="FlipCommand_8cpp.html" target="_top" xlink:title=" ">
<polygon fill="white" stroke="#666666" points="512.25,-38 383.75,-38 383.75,-6 512.25,-6 512.25,-38"/>
<text text-anchor="start" x="391.75" y="-24.5" font-family="Helvetica,sans-Serif" font-size="10.00">src/bot_library/commands</text>
<text text-anchor="middle" x="448" y="-12.5" font-family="Helvetica,sans-Serif" font-size="10.00">/flip/FlipCommand.cpp</text>
</a>
</g>
</g>
<!-- Node1&#45;&gt;Node6 -->
<g id="edge13_Node000001_Node000006" class="edge">
<title>Node1&#45;&gt;Node6</title>
<g id="a_edge13_Node000001_Node000006"><a xlink:title=" ">
<path fill="none" stroke="#63b8ff" d="M577.01,-142.78C560.05,-134.51 541.39,-124.03 526,-112 498.16,-90.24 472.52,-57.54 458.69,-38.43"/>
<polygon fill="#63b8ff" stroke="#63b8ff" points="575.39,-145.89 585.93,-147 578.38,-139.56 575.39,-145.89"/>
</a>
</g>
</g>
<!-- Node8 -->
<g id="Node000008" class="node">
<title>Node8</title>
<g id="a_Node000008"><a xlink:href="ProfileCommand_8cpp.html" target="_top" xlink:title=" ">
<polygon fill="white" stroke="#666666" points="1147.88,-38 1008.12,-38 1008.12,-6 1147.88,-6 1147.88,-38"/>
<text text-anchor="start" x="1016.12" y="-24.5" font-family="Helvetica,sans-Serif" font-size="10.00">src/bot_library/commands</text>
<text text-anchor="middle" x="1078" y="-12.5" font-family="Helvetica,sans-Serif" font-size="10.00">/profile/ProfileCommand.cpp</text>
</a>
</g>
</g>
<!-- Node1&#45;&gt;Node8 -->
<g id="edge14_Node000001_Node000008" class="edge">
<title>Node1&#45;&gt;Node8</title>
<g id="a_edge14_Node000001_Node000008"><a xlink:title=" ">
<path fill="none" stroke="#63b8ff" d="M668.78,-142.67C686.59,-133.88 707.15,-123.09 725,-112 745.24,-99.43 746.03,-89.22 768,-80 863.82,-39.81 897.32,-65.38 999,-44 1006.78,-42.37 1014.93,-40.44 1022.93,-38.43"/>
<polygon fill="#63b8ff" stroke="#63b8ff" points="667.47,-139.41 660.01,-146.93 670.53,-145.7 667.47,-139.41"/>
</a>
</g>
</g>
<!-- Node9 -->
<g id="Node000009" class="node">
<title>Node9</title>
<g id="a_Node000009"><a xlink:href="RollCommand_8cpp.html" target="_top" xlink:title=" ">
<polygon fill="white" stroke="#666666" points="1294.25,-38 1165.75,-38 1165.75,-6 1294.25,-6 1294.25,-38"/>
<text text-anchor="start" x="1173.75" y="-24.5" font-family="Helvetica,sans-Serif" font-size="10.00">src/bot_library/commands</text>
<text text-anchor="middle" x="1230" y="-12.5" font-family="Helvetica,sans-Serif" font-size="10.00">/roll/RollCommand.cpp</text>
</a>
</g>
</g>
<!-- Node1&#45;&gt;Node9 -->
<g id="edge15_Node000001_Node000009" class="edge">
<title>Node1&#45;&gt;Node9</title>
<g id="a_edge15_Node000001_Node000009"><a xlink:title=" ">
<path fill="none" stroke="#63b8ff" d="M688.34,-143.92C711.89,-135.64 738.38,-124.86 761,-112 780.79,-100.75 779.92,-88.61 801,-80 948.22,-19.87 1000.85,-74.1 1157,-44 1164.77,-42.5 1172.91,-40.55 1180.81,-38.45"/>
<polygon fill="#63b8ff" stroke="#63b8ff" points="687.5,-140.51 679.18,-147.06 689.77,-147.13 687.5,-140.51"/>
</a>
</g>
</g>
<!-- Node5&#45;&gt;Node2 -->
<g id="edge5_Node000005_Node000002" class="edge">
<title>Node5&#45;&gt;Node2</title>
<g id="a_edge5_Node000005_Node000002"><a xlink:title=" ">
<path fill="none" stroke="#63b8ff" d="M522.88,-86.7C431.37,-78.48 293.68,-64.21 175,-44 172.09,-43.51 169.14,-42.98 166.16,-42.42"/>
<polygon fill="#63b8ff" stroke="#63b8ff" points="522.3,-90.16 532.57,-87.56 522.92,-83.19 522.3,-90.16"/>
</a>
</g>
</g>
<!-- Node5&#45;&gt;Node4 -->
<g id="edge6_Node000005_Node000004" class="edge">
<title>Node5&#45;&gt;Node4</title>
<g id="a_edge6_Node000005_Node000004"><a xlink:title=" ">
<path fill="none" stroke="#63b8ff" d="M537.68,-77.31C489.66,-67.56 429.03,-55.18 375,-44 366.4,-42.22 357.39,-40.34 348.44,-38.47"/>
<polygon fill="#63b8ff" stroke="#63b8ff" points="536.68,-80.68 547.18,-79.24 538.08,-73.82 536.68,-80.68"/>
</a>
</g>
</g>
<!-- Node5&#45;&gt;Node6 -->
<g id="edge7_Node000005_Node000006" class="edge">
<title>Node5&#45;&gt;Node6</title>
<g id="a_edge7_Node000005_Node000006"><a xlink:title=" ">
<path fill="none" stroke="#63b8ff" d="M576.47,-75.26C547.93,-63.65 512.37,-49.19 485.91,-38.42"/>
<polygon fill="#63b8ff" stroke="#63b8ff" points="575.05,-78.46 585.63,-78.98 577.68,-71.97 575.05,-78.46"/>
</a>
</g>
</g>
<!-- Node7 -->
<g id="Node000007" class="node">
<title>Node7</title>
<g id="a_Node000007"><a xlink:href="LeaderboardCommand_8cpp.html" target="_top" xlink:title=" ">
<polygon fill="white" stroke="#666666" points="719.62,-38 530.38,-38 530.38,-6 719.62,-6 719.62,-38"/>
<text text-anchor="start" x="538.38" y="-24.5" font-family="Helvetica,sans-Serif" font-size="10.00">src/bot_library/commands</text>
<text text-anchor="middle" x="625" y="-12.5" font-family="Helvetica,sans-Serif" font-size="10.00">/leaderboard/LeaderboardCommand.cpp</text>
</a>
</g>
</g>
<!-- Node5&#45;&gt;Node7 -->
<g id="edge8_Node000005_Node000007" class="edge">
<title>Node5&#45;&gt;Node7</title>
<g id="a_edge8_Node000005_Node000007"><a xlink:title=" ">
<path fill="none" stroke="#63b8ff" d="M625,-68.49C625,-58.3 625,-47.03 625,-38.25"/>
<polygon fill="#63b8ff" stroke="#63b8ff" points="621.5,-68.22 625,-78.22 628.5,-68.22 621.5,-68.22"/>
</a>
</g>
</g>
<!-- Node5&#45;&gt;Node8 -->
<g id="edge9_Node000005_Node000008" class="edge">
<title>Node5&#45;&gt;Node8</title>
<g id="a_edge9_Node000005_Node000008"><a xlink:title=" ">
<path fill="none" stroke="#63b8ff" d="M726.93,-80.43C727.96,-80.28 728.98,-80.14 730,-80 849.48,-63.47 880.7,-67.54 999,-44 1006.93,-42.42 1015.25,-40.5 1023.39,-38.48"/>
<polygon fill="#63b8ff" stroke="#63b8ff" points="726.69,-76.92 717.27,-81.77 727.66,-83.86 726.69,-76.92"/>
</a>
</g>
</g>
<!-- Node5&#45;&gt;Node9 -->
<g id="edge10_Node000005_Node000009" class="edge">
<title>Node5&#45;&gt;Node9</title>
<g id="a_edge10_Node000005_Node000009"><a xlink:title=" ">
<path fill="none" stroke="#63b8ff" d="M726.81,-84.17C740.65,-82.74 754.67,-81.32 768,-80 940.79,-62.94 986.37,-76.14 1157,-44 1164.91,-42.51 1173.19,-40.54 1181.22,-38.4"/>
<polygon fill="#63b8ff" stroke="#63b8ff" points="726.85,-80.64 717.27,-85.15 727.57,-87.61 726.85,-80.64"/>
</a>
</g>
</g>
<!-- Node10 -->
<g id="Node000010" class="node">
<title>Node10</title>
<g id="a_Node000010"><a xlink:href="LeaderboardHandler_8cpp.html" target="_top" xlink:title=" ">
<polygon fill="white" stroke="#666666" points="862.38,-38 737.62,-38 737.62,-6 862.38,-6 862.38,-38"/>
<text text-anchor="start" x="745.62" y="-24.5" font-family="Helvetica,sans-Serif" font-size="10.00">src/bot_library/restapi</text>
<text text-anchor="middle" x="800" y="-12.5" font-family="Helvetica,sans-Serif" font-size="10.00">/LeaderboardHandler.cpp</text>
</a>
</g>
</g>
<!-- Node5&#45;&gt;Node10 -->
<g id="edge11_Node000005_Node000010" class="edge">
<title>Node5&#45;&gt;Node10</title>
<g id="a_edge11_Node000005_Node000010"><a xlink:title=" ">
<path fill="none" stroke="#63b8ff" d="M672.98,-75.26C701.2,-63.65 736.35,-49.19 762.52,-38.42"/>
<polygon fill="#63b8ff" stroke="#63b8ff" points="671.86,-71.94 663.94,-78.98 674.52,-78.41 671.86,-71.94"/>
</a>
</g>
</g>
<!-- Node11 -->
<g id="Node000011" class="node">
<title>Node11</title>
<g id="a_Node000011"><a xlink:href="RestApi_8cpp.html" target="_top" xlink:title=" ">
<polygon fill="white" stroke="#666666" points="989.88,-38 880.12,-38 880.12,-6 989.88,-6 989.88,-38"/>
<text text-anchor="start" x="888.12" y="-24.5" font-family="Helvetica,sans-Serif" font-size="10.00">src/bot_library/restapi</text>
<text text-anchor="middle" x="935" y="-12.5" font-family="Helvetica,sans-Serif" font-size="10.00">/RestApi.cpp</text>
</a>
</g>
</g>
<!-- Node5&#45;&gt;Node11 -->
<g id="edge12_Node000005_Node000011" class="edge">
<title>Node5&#45;&gt;Node11</title>
<g id="a_edge12_Node000005_Node000011"><a xlink:title=" ">
<path fill="none" stroke="#63b8ff" d="M722.55,-77.4C767.96,-68.54 822.53,-56.93 871,-44 877.21,-42.34 883.71,-40.43 890.09,-38.44"/>
<polygon fill="#63b8ff" stroke="#63b8ff" points="722.15,-73.91 713,-79.25 723.48,-80.78 722.15,-73.91"/>
</a>
</g>
</g>
</g>
</svg>
