<?xml version="1.0" encoding="UTF-8" standalone="no"?>
<!DOCTYPE svg PUBLIC "-//W3C//DTD SVG 1.1//EN"
 "http://www.w3.org/Graphics/SVG/1.1/DTD/svg11.dtd">
<!-- Generated by graphviz version 14.1.5 (0)
 -->
<!-- Title: src/bot_library/restapi/UserManager.cpp Pages: 1 -->
<svg width="1421pt" height="320pt"
 viewBox="0.00 0.00 1421.00 320.00" xmlns="http://www.w3.org/2000/svg" xmlns:xlink="http://www.w3.org/1999/xlink">
<g id="graph0" class="graph" transform="scale(1 1) rotate(0) translate(4 316)">
<title>src/bot_library/restapi/UserManager.cpp</title>
<!-- Node1 -->
<g id="Node000001" class="node">
<title>Node1</title>
<g id="a_Node000001"><a xlink:title=" ">
<polygon fill="#999999" stroke="#666666" points="1009.62,-312 899.88,-312 899.88,-280 1009.62,-280 1009.62,-312"/>
<text xml:space="preserve" text-anchor="start" x="907.88" y="-298.5" font-family="Helvetica,sans-Serif" font-size="10.00">src/bot_library/restapi</text>
<text xml:space="preserve" text-anchor="middle" x="954.75" y="-286.5" font-family="Helvetica,sans-Serif" font-size="10.00">/UserManager.cpp</text>
</a>
</g>
</g>
<!-- Node2 -->
<g id="Node000002" class="node">
<title>Node2</title>
<g id="a_Node000002"><a xlink:title=" ">
<polygon fill="#e0e0e0" stroke="#999999" points="488.25,-244 409.25,-244 409.25,-224 488.25,-224 488.25,-244"/>
<text xml:space="preserve" text-anchor="middle" x="448.75" y="-230.5" font-family="Helvetica,sans-Serif" font-size="10.00">Poco/Logger.h</text>
</a>
</g>
</g>
<!-- Node1&#45;&gt;Node2 -->
<g id="edge1_Node000001_Node000002" class="edge">
<title>Node1&#45;&gt;Node2</title>
<g id="a_edge1_Node000001_Node000002"><a xlink:title=" ">
<path fill="none" stroke="#63b8ff" d="M899.59,-290.19C815.48,-282.57 649.9,-266.42 499.76,-244.36"/>
<polygon fill="#63b8ff" stroke="#63b8ff" points="500.43,-240.92 490.02,-242.92 499.4,-247.85 500.43,-240.92"/>
</a>
</g>
</g>
<!-- Node3 -->
<g id="Node000003" class="node">
<title>Node3</title>
<g id="a_Node000003"><a xlink:href="AuthUtils_8hpp.html" target="_top" xlink:title=" ">
<polygon fill="white" stroke="#666666" points="581.38,-244 506.12,-244 506.12,-224 581.38,-224 581.38,-244"/>
<text xml:space="preserve" text-anchor="middle" x="543.75" y="-230.5" font-family="Helvetica,sans-Serif" font-size="10.00">AuthUtils.hpp</text>
</a>
</g>
</g>
<!-- Node1&#45;&gt;Node3 -->
<g id="edge2_Node000001_Node000003" class="edge">
<title>Node1&#45;&gt;Node3</title>
<g id="a_edge2_Node000001_Node000003"><a xlink:title=" ">
<path fill="none" stroke="#63b8ff" d="M899.75,-286.97C819.12,-275.2 670.09,-253.44 592.92,-242.18"/>
<polygon fill="#63b8ff" stroke="#63b8ff" points="593.52,-238.73 583.12,-240.75 592.51,-245.66 593.52,-238.73"/>
</a>
</g>
</g>
<!-- Node9 -->
<g id="Node000009" class="node">
<title>Node9</title>
<g id="a_Node000009"><a xlink:href="Secrets_8hpp.html" target="_top" xlink:title=" ">
<polygon fill="white" stroke="#666666" points="758,-188 689.5,-188 689.5,-168 758,-168 758,-188"/>
<text xml:space="preserve" text-anchor="middle" x="723.75" y="-174.5" font-family="Helvetica,sans-Serif" font-size="10.00">Secrets.hpp</text>
</a>
</g>
</g>
<!-- Node1&#45;&gt;Node9 -->
<g id="edge31_Node000001_Node000009" class="edge">
<title>Node1&#45;&gt;Node9</title>
<g id="a_edge31_Node000001_Node000009"><a xlink:title=" ">
<path fill="none" stroke="#63b8ff" d="M899.72,-283.72C867.67,-275.65 827.3,-262.85 794.75,-244 772.95,-231.38 752.21,-211.09 738.84,-196.53"/>
<polygon fill="#63b8ff" stroke="#63b8ff" points="741.8,-194.59 732.53,-189.46 736.57,-199.25 741.8,-194.59"/>
</a>
</g>
</g>
<!-- Node13 -->
<g id="Node000013" class="node">
<title>Node13</title>
<g id="a_Node000013"><a xlink:href="EmailClient_8hpp.html" target="_top" xlink:title=" ">
<polygon fill="white" stroke="#666666" points="888.25,-244 803.25,-244 803.25,-224 888.25,-224 888.25,-244"/>
<text xml:space="preserve" text-anchor="middle" x="845.75" y="-230.5" font-family="Helvetica,sans-Serif" font-size="10.00">EmailClient.hpp</text>
</a>
</g>
</g>
<!-- Node1&#45;&gt;Node13 -->
<g id="edge12_Node000001_Node000013" class="edge">
<title>Node1&#45;&gt;Node13</title>
<g id="a_edge12_Node000001_Node000013"><a xlink:title=" ">
<path fill="none" stroke="#63b8ff" d="M926.68,-279.55C910.12,-270.43 889.27,-258.96 872.88,-249.93"/>
<polygon fill="#63b8ff" stroke="#63b8ff" points="874.62,-246.89 864.17,-245.14 871.24,-253.03 874.62,-246.89"/>
</a>
</g>
</g>
<!-- Node16 -->
<g id="Node000016" class="node">
<title>Node16</title>
<g id="a_Node000016"><a xlink:href="UserManager_8hpp.html" target="_top" xlink:title=" ">
<polygon fill="white" stroke="#666666" points="1001.38,-244 908.12,-244 908.12,-224 1001.38,-224 1001.38,-244"/>
<text xml:space="preserve" text-anchor="middle" x="954.75" y="-230.5" font-family="Helvetica,sans-Serif" font-size="10.00">UserManager.hpp</text>
</a>
</g>
</g>
<!-- Node1&#45;&gt;Node16 -->
<g id="edge16_Node000001_Node000016" class="edge">
<title>Node1&#45;&gt;Node16</title>
<g id="a_edge16_Node000001_Node000016"><a xlink:title=" ">
<path fill="none" stroke="#63b8ff" d="M954.75,-279.55C954.75,-272.34 954.75,-263.66 954.75,-255.88"/>
<polygon fill="#63b8ff" stroke="#63b8ff" points="958.25,-255.92 954.75,-245.92 951.25,-255.92 958.25,-255.92"/>
</a>
</g>
</g>
<!-- Node18 -->
<g id="Node000018" class="node">
<title>Node18</title>
<g id="a_Node000018"><a xlink:href="WebUserDTO_8hpp.html" target="_top" xlink:title=" ">
<polygon fill="white" stroke="#666666" points="1209.88,-188 1113.62,-188 1113.62,-168 1209.88,-168 1209.88,-188"/>
<text xml:space="preserve" text-anchor="middle" x="1161.75" y="-174.5" font-family="Helvetica,sans-Serif" font-size="10.00">WebUserDTO.hpp</text>
</a>
</g>
</g>
<!-- Node1&#45;&gt;Node18 -->
<g id="edge19_Node000001_Node000018" class="edge">
<title>Node1&#45;&gt;Node18</title>
<g id="a_edge19_Node000001_Node000018"><a xlink:title=" ">
<path fill="none" stroke="#63b8ff" d="M982.24,-279.6C1022.13,-257.24 1095.6,-216.07 1135.05,-193.96"/>
<polygon fill="#63b8ff" stroke="#63b8ff" points="1136.66,-197.07 1143.67,-189.13 1133.23,-190.97 1136.66,-197.07"/>
</a>
</g>
</g>
<!-- Node22 -->
<g id="Node000022" class="node">
<title>Node22</title>
<g id="a_Node000022"><a xlink:href="WebUserRepository_8hpp.html" target="_top" xlink:title=" ">
<polygon fill="white" stroke="#666666" points="1215.62,-244 1093.88,-244 1093.88,-224 1215.62,-224 1215.62,-244"/>
<text xml:space="preserve" text-anchor="middle" x="1154.75" y="-230.5" font-family="Helvetica,sans-Serif" font-size="10.00">WebUserRepository.hpp</text>
</a>
</g>
</g>
<!-- Node1&#45;&gt;Node22 -->
<g id="edge24_Node000001_Node000022" class="edge">
<title>Node1&#45;&gt;Node22</title>
<g id="a_edge24_Node000001_Node000022"><a xlink:title=" ">
<path fill="none" stroke="#63b8ff" d="M1006.25,-279.55C1039.14,-269.68 1081.25,-257.05 1112.23,-247.76"/>
<polygon fill="#63b8ff" stroke="#63b8ff" points="1113.07,-251.16 1121.65,-244.93 1111.06,-244.45 1113.07,-251.16"/>
</a>
</g>
</g>
<!-- Node25 -->
<g id="Node000025" class="node">
<title>Node25</title>
<g id="a_Node000025"><a xlink:title=" ">
<polygon fill="#e0e0e0" stroke="#999999" points="1276.25,-244 1233.25,-244 1233.25,-224 1276.25,-224 1276.25,-244"/>
<text xml:space="preserve" text-anchor="middle" x="1254.75" y="-230.5" font-family="Helvetica,sans-Serif" font-size="10.00">mutex</text>
</a>
</g>
</g>
<!-- Node1&#45;&gt;Node25 -->
<g id="edge29_Node000001_Node000025" class="edge">
<title>Node1&#45;&gt;Node25</title>
<g id="a_edge29_Node000001_Node000025"><a xlink:title=" ">
<path fill="none" stroke="#63b8ff" d="M1009.93,-286.32C1062.29,-277.69 1143.37,-263.33 1221.82,-244.53"/>
<polygon fill="#63b8ff" stroke="#63b8ff" points="1222.5,-247.97 1231.4,-242.21 1220.85,-241.17 1222.5,-247.97"/>
</a>
</g>
</g>
<!-- Node26 -->
<g id="Node000026" class="node">
<title>Node26</title>
<g id="a_Node000026"><a xlink:title=" ">
<polygon fill="#e0e0e0" stroke="#999999" points="1412.75,-244 1294.75,-244 1294.75,-224 1412.75,-224 1412.75,-244"/>
<text xml:space="preserve" text-anchor="middle" x="1353.75" y="-230.5" font-family="Helvetica,sans-Serif" font-size="10.00">Poco/UUIDGenerator.h</text>
</a>
</g>
</g>
<!-- Node1&#45;&gt;Node26 -->
<g id="edge30_Node000001_Node000026" class="edge">
<title>Node1&#45;&gt;Node26</title>
<g id="a_edge30_Node000001_Node000026"><a xlink:title=" ">
<path fill="none" stroke="#63b8ff" d="M1009.81,-286.72C1081.02,-276.01 1205.16,-257.34 1283.21,-245.61"/>
<polygon fill="#63b8ff" stroke="#63b8ff" points="1283.52,-249.1 1292.89,-244.15 1282.48,-242.18 1283.52,-249.1"/>
</a>
</g>
</g>
<!-- Node4 -->
<g id="Node000004" class="node">
<title>Node4</title>
<g id="a_Node000004"><a xlink:title=" ">
<polygon fill="#e0e0e0" stroke="#999999" points="131.5,-188 0,-188 0,-168 131.5,-168 131.5,-188"/>
<text xml:space="preserve" text-anchor="middle" x="65.75" y="-174.5" font-family="Helvetica,sans-Serif" font-size="10.00">Poco/HexBinaryEncoder.h</text>
</a>
</g>
</g>
<!-- Node3&#45;&gt;Node4 -->
<g id="edge3_Node000003_Node000004" class="edge">
<title>Node3&#45;&gt;Node4</title>
<g id="a_edge3_Node000003_Node000004"><a xlink:title=" ">
<path fill="none" stroke="#63b8ff" d="M505.83,-225.44C502.77,-224.92 499.71,-224.43 496.75,-224 342.92,-201.54 300.7,-205.29 143.05,-188.23"/>
<polygon fill="#63b8ff" stroke="#63b8ff" points="143.82,-184.79 133.5,-187.18 143.06,-191.75 143.82,-184.79"/>
</a>
</g>
</g>
<!-- Node5 -->
<g id="Node000005" class="node">
<title>Node5</title>
<g id="a_Node000005"><a xlink:title=" ">
<polygon fill="#e0e0e0" stroke="#999999" points="251.5,-188 150,-188 150,-168 251.5,-168 251.5,-188"/>
<text xml:space="preserve" text-anchor="middle" x="200.75" y="-174.5" font-family="Helvetica,sans-Serif" font-size="10.00">Poco/JWT/Signer.h</text>
</a>
</g>
</g>
<!-- Node3&#45;&gt;Node5 -->
<g id="edge4_Node000003_Node000005" class="edge">
<title>Node3&#45;&gt;Node5</title>
<g id="a_edge4_Node000003_Node000005"><a xlink:title=" ">
<path fill="none" stroke="#63b8ff" d="M505.81,-225.61C502.75,-225.05 499.7,-224.51 496.75,-224 474.21,-220.13 342.8,-200.32 262.84,-188.31"/>
<polygon fill="#63b8ff" stroke="#63b8ff" points="263.82,-184.92 253.41,-186.89 262.78,-191.84 263.82,-184.92"/>
</a>
</g>
</g>
<!-- Node6 -->
<g id="Node000006" class="node">
<title>Node6</title>
<g id="a_Node000006"><a xlink:title=" ">
<polygon fill="#e0e0e0" stroke="#999999" points="369.75,-188 269.75,-188 269.75,-168 369.75,-168 369.75,-188"/>
<text xml:space="preserve" text-anchor="middle" x="319.75" y="-174.5" font-family="Helvetica,sans-Serif" font-size="10.00">Poco/JWT/Token.h</text>
</a>
</g>
</g>
<!-- Node3&#45;&gt;Node6 -->
<g id="edge5_Node000003_Node000006" class="edge">
<title>Node3&#45;&gt;Node6</title>
<g id="a_edge5_Node000003_Node000006"><a xlink:title=" ">
<path fill="none" stroke="#63b8ff" d="M505.75,-223.84C468.44,-214.85 411.3,-201.07 370.2,-191.16"/>
<polygon fill="#63b8ff" stroke="#63b8ff" points="371.08,-187.77 360.54,-188.83 369.44,-194.58 371.08,-187.77"/>
</a>
</g>
</g>
<!-- Node7 -->
<g id="Node000007" class="node">
<title>Node7</title>
<g id="a_Node000007"><a xlink:title=" ">
<polygon fill="#e0e0e0" stroke="#999999" points="547.75,-188 387.75,-188 387.75,-168 547.75,-168 547.75,-188"/>
<text xml:space="preserve" text-anchor="middle" x="467.75" y="-174.5" font-family="Helvetica,sans-Serif" font-size="10.00">Poco/Net/HTTPServerRequest.h</text>
</a>
</g>
</g>
<!-- Node3&#45;&gt;Node7 -->
<g id="edge6_Node000003_Node000007" class="edge">
<title>Node3&#45;&gt;Node7</title>
<g id="a_edge6_Node000003_Node000007"><a xlink:title=" ">
<path fill="none" stroke="#63b8ff" d="M530.51,-223.59C519.46,-215.74 503.47,-204.38 490.39,-195.09"/>
<polygon fill="#63b8ff" stroke="#63b8ff" points="492.5,-192.3 482.33,-189.36 488.45,-198 492.5,-192.3"/>
</a>
</g>
</g>
<!-- Node8 -->
<g id="Node000008" class="node">
<title>Node8</title>
<g id="a_Node000008"><a xlink:title=" ">
<polygon fill="#e0e0e0" stroke="#999999" points="671.75,-188 565.75,-188 565.75,-168 671.75,-168 671.75,-188"/>
<text xml:space="preserve" text-anchor="middle" x="618.75" y="-174.5" font-family="Helvetica,sans-Serif" font-size="10.00">Poco/SHA2Engine.h</text>
</a>
</g>
</g>
<!-- Node3&#45;&gt;Node8 -->
<g id="edge7_Node000003_Node000008" class="edge">
<title>Node3&#45;&gt;Node8</title>
<g id="a_edge7_Node000003_Node000008"><a xlink:title=" ">
<path fill="none" stroke="#63b8ff" d="M556.81,-223.59C567.72,-215.74 583.5,-204.38 596.41,-195.09"/>
<polygon fill="#63b8ff" stroke="#63b8ff" points="598.29,-198.05 604.36,-189.36 594.2,-192.37 598.29,-198.05"/>
</a>
</g>
</g>
<!-- Node3&#45;&gt;Node9 -->
<g id="edge8_Node000003_Node000009" class="edge">
<title>Node3&#45;&gt;Node9</title>
<g id="a_edge8_Node000003_Node000009"><a xlink:title=" ">
<path fill="none" stroke="#63b8ff" d="M575.1,-223.59C604.48,-214.78 648.61,-201.54 681.16,-191.78"/>
<polygon fill="#63b8ff" stroke="#63b8ff" points="682.13,-195.14 690.7,-188.91 680.12,-188.44 682.13,-195.14"/>
</a>
</g>
</g>
<!-- Node10 -->
<g id="Node000010" class="node">
<title>Node10</title>
<g id="a_Node000010"><a xlink:title=" ">
<polygon fill="#e0e0e0" stroke="#999999" points="684.88,-132 576.62,-132 576.62,-112 684.88,-112 684.88,-132"/>
<text xml:space="preserve" text-anchor="middle" x="630.75" y="-118.5" font-family="Helvetica,sans-Serif" font-size="10.00">Poco/JSON/Object.h</text>
</a>
</g>
</g>
<!-- Node9&#45;&gt;Node10 -->
<g id="edge9_Node000009_Node000010" class="edge">
<title>Node9&#45;&gt;Node10</title>
<g id="a_edge9_Node000009_Node000010"><a xlink:title=" ">
<path fill="none" stroke="#63b8ff" d="M707.55,-167.59C693.5,-159.44 672.92,-147.48 656.59,-138"/>
<polygon fill="#63b8ff" stroke="#63b8ff" points="658.79,-135.23 648.38,-133.24 655.28,-141.29 658.79,-135.23"/>
</a>
</g>
</g>
<!-- Node11 -->
<g id="Node000011" class="node">
<title>Node11</title>
<g id="a_Node000011"><a xlink:title=" ">
<polygon fill="#e0e0e0" stroke="#999999" points="810.88,-132 702.62,-132 702.62,-112 810.88,-112 810.88,-132"/>
<text xml:space="preserve" text-anchor="middle" x="756.75" y="-118.5" font-family="Helvetica,sans-Serif" font-size="10.00">Poco/JSON/Parser.h</text>
</a>
</g>
</g>
<!-- Node9&#45;&gt;Node11 -->
<g id="edge10_Node000009_Node000011" class="edge">
<title>Node9&#45;&gt;Node11</title>
<g id="a_edge10_Node000009_Node000011"><a xlink:title=" ">
<path fill="none" stroke="#63b8ff" d="M729.5,-167.59C733.8,-160.55 739.84,-150.67 745.14,-142"/>
<polygon fill="#63b8ff" stroke="#63b8ff" points="748.05,-143.95 750.28,-133.59 742.08,-140.3 748.05,-143.95"/>
</a>
</g>
</g>
<!-- Node12 -->
<g id="Node000012" class="node">
<title>Node12</title>
<g id="a_Node000012"><a xlink:title=" ">
<polygon fill="#e0e0e0" stroke="#999999" points="902.75,-132 862.75,-132 862.75,-112 902.75,-112 902.75,-132"/>
<text xml:space="preserve" text-anchor="middle" x="882.75" y="-118.5" font-family="Helvetica,sans-Serif" font-size="10.00">string</text>
</a>
</g>
</g>
<!-- Node9&#45;&gt;Node12 -->
<g id="edge11_Node000009_Node000012" class="edge">
<title>Node9&#45;&gt;Node12</title>
<g id="a_edge11_Node000009_Node000012"><a xlink:title=" ">
<path fill="none" stroke="#63b8ff" d="M751.45,-167.59C779.41,-158.1 822.52,-143.46 851.64,-133.57"/>
<polygon fill="#63b8ff" stroke="#63b8ff" points="852.65,-136.92 861,-130.39 850.4,-130.29 852.65,-136.92"/>
</a>
</g>
</g>
<!-- Node13&#45;&gt;Node12 -->
<g id="edge14_Node000013_Node000012" class="edge">
<title>Node13&#45;&gt;Node12</title>
<g id="a_edge14_Node000013_Node000012"><a xlink:title=" ">
<path fill="none" stroke="#63b8ff" d="M832.53,-223.67C816.52,-211.17 793.07,-188.22 804.75,-168 814.82,-150.56 834.5,-139.28 851.57,-132.38"/>
<polygon fill="#63b8ff" stroke="#63b8ff" points="852.68,-135.7 860.86,-128.97 850.27,-129.13 852.68,-135.7"/>
</a>
</g>
</g>
<!-- Node14 -->
<g id="Node000014" class="node">
<title>Node14</title>
<g id="a_Node000014"><a xlink:title=" ">
<polygon fill="#e0e0e0" stroke="#999999" points="859.38,-188 814.12,-188 814.12,-168 859.38,-168 859.38,-188"/>
<text xml:space="preserve" text-anchor="middle" x="836.75" y="-174.5" font-family="Helvetica,sans-Serif" font-size="10.00">cstdint</text>
</a>
</g>
</g>
<!-- Node13&#45;&gt;Node14 -->
<g id="edge13_Node000013_Node000014" class="edge">
<title>Node13&#45;&gt;Node14</title>
<g id="a_edge13_Node000013_Node000014"><a xlink:title=" ">
<path fill="none" stroke="#63b8ff" d="M844.18,-223.59C843.07,-216.93 841.54,-207.75 840.16,-199.44"/>
<polygon fill="#63b8ff" stroke="#63b8ff" points="843.64,-199.08 838.55,-189.79 836.74,-200.23 843.64,-199.08"/>
</a>
</g>
</g>
<!-- Node15 -->
<g id="Node000015" class="node">
<title>Node15</title>
<g id="a_Node000015"><a xlink:title=" ">
<polygon fill="#e0e0e0" stroke="#999999" points="920.25,-188 877.25,-188 877.25,-168 920.25,-168 920.25,-188"/>
<text xml:space="preserve" text-anchor="middle" x="898.75" y="-174.5" font-family="Helvetica,sans-Serif" font-size="10.00">vector</text>
</a>
</g>
</g>
<!-- Node13&#45;&gt;Node15 -->
<g id="edge15_Node000013_Node000015" class="edge">
<title>Node13&#45;&gt;Node15</title>
<g id="a_edge15_Node000013_Node000015"><a xlink:title=" ">
<path fill="none" stroke="#63b8ff" d="M854.98,-223.59C862.35,-216.08 872.88,-205.35 881.77,-196.3"/>
<polygon fill="#63b8ff" stroke="#63b8ff" points="884.06,-198.97 888.56,-189.38 879.06,-194.06 884.06,-198.97"/>
</a>
</g>
</g>
<!-- Node16&#45;&gt;Node12 -->
<g id="edge18_Node000016_Node000012" class="edge">
<title>Node16&#45;&gt;Node12</title>
<g id="a_edge18_Node000016_Node000012"><a xlink:title=" ">
<path fill="none" stroke="#63b8ff" d="M952.52,-223.56C949.1,-210.34 941.67,-185.92 929.75,-168 922.69,-157.39 912.73,-147.39 903.79,-139.53"/>
<polygon fill="#63b8ff" stroke="#63b8ff" points="906.08,-136.88 896.17,-133.14 901.58,-142.25 906.08,-136.88"/>
</a>
</g>
</g>
<!-- Node17 -->
<g id="Node000017" class="node">
<title>Node17</title>
<g id="a_Node000017"><a xlink:title=" ">
<polygon fill="#e0e0e0" stroke="#999999" points="1095.12,-188 976.38,-188 976.38,-168 1095.12,-168 1095.12,-188"/>
<text xml:space="preserve" text-anchor="middle" x="1035.75" y="-174.5" font-family="Helvetica,sans-Serif" font-size="10.00">Poco/SingletonHolder.h</text>
</a>
</g>
</g>
<!-- Node16&#45;&gt;Node17 -->
<g id="edge17_Node000016_Node000017" class="edge">
<title>Node16&#45;&gt;Node17</title>
<g id="a_edge17_Node000016_Node000017"><a xlink:title=" ">
<path fill="none" stroke="#63b8ff" d="M968.86,-223.59C980.75,-215.67 998.02,-204.16 1012.03,-194.82"/>
<polygon fill="#63b8ff" stroke="#63b8ff" points="1013.89,-197.78 1020.27,-189.32 1010.01,-191.95 1013.89,-197.78"/>
</a>
</g>
</g>
<!-- Node18&#45;&gt;Node12 -->
<g id="edge23_Node000018_Node000012" class="edge">
<title>Node18&#45;&gt;Node12</title>
<g id="a_edge23_Node000018_Node000012"><a xlink:title=" ">
<path fill="none" stroke="#63b8ff" d="M1113.15,-167.59C1055.89,-156.51 962.44,-138.42 914.03,-129.05"/>
<polygon fill="#63b8ff" stroke="#63b8ff" points="914.99,-125.67 904.5,-127.21 913.66,-132.55 914.99,-125.67"/>
</a>
</g>
</g>
<!-- Node19 -->
<g id="Node000019" class="node">
<title>Node19</title>
<g id="a_Node000019"><a xlink:href="RowDTOAdapter_8hpp.html" target="_top" xlink:title=" ">
<polygon fill="white" stroke="#666666" points="1216.62,-132 1106.88,-132 1106.88,-112 1216.62,-112 1216.62,-132"/>
<text xml:space="preserve" text-anchor="middle" x="1161.75" y="-118.5" font-family="Helvetica,sans-Serif" font-size="10.00">RowDTOAdapter.hpp</text>
</a>
</g>
</g>
<!-- Node18&#45;&gt;Node19 -->
<g id="edge20_Node000018_Node000019" class="edge">
<title>Node18&#45;&gt;Node19</title>
<g id="a_edge20_Node000018_Node000019"><a xlink:title=" ">
<path fill="none" stroke="#63b8ff" d="M1161.75,-167.59C1161.75,-161.01 1161.75,-151.96 1161.75,-143.73"/>
<polygon fill="#63b8ff" stroke="#63b8ff" points="1165.25,-143.81 1161.75,-133.81 1158.25,-143.81 1165.25,-143.81"/>
</a>
</g>
</g>
<!-- Node20 -->
<g id="Node000020" class="node">
<title>Node20</title>
<g id="a_Node000020"><a xlink:href="DatabaseBackend_8hpp.html" target="_top" xlink:title=" ">
<polygon fill="white" stroke="#666666" points="1219.25,-76 1104.25,-76 1104.25,-56 1219.25,-56 1219.25,-76"/>
<text xml:space="preserve" text-anchor="middle" x="1161.75" y="-62.5" font-family="Helvetica,sans-Serif" font-size="10.00">DatabaseBackend.hpp</text>
</a>
</g>
</g>
<!-- Node19&#45;&gt;Node20 -->
<g id="edge21_Node000019_Node000020" class="edge">
<title>Node19&#45;&gt;Node20</title>
<g id="a_edge21_Node000019_Node000020"><a xlink:title=" ">
<path fill="none" stroke="#63b8ff" d="M1161.75,-111.59C1161.75,-105.01 1161.75,-95.96 1161.75,-87.73"/>
<polygon fill="#63b8ff" stroke="#63b8ff" points="1165.25,-87.81 1161.75,-77.81 1158.25,-87.81 1165.25,-87.81"/>
</a>
</g>
</g>
<!-- Node21 -->
<g id="Node000021" class="node">
<title>Node21</title>
<g id="a_Node000021"><a xlink:title=" ">
<polygon fill="#e0e0e0" stroke="#999999" points="1192.25,-20 1131.25,-20 1131.25,0 1192.25,0 1192.25,-20"/>
<text xml:space="preserve" text-anchor="middle" x="1161.75" y="-6.5" font-family="Helvetica,sans-Serif" font-size="10.00">pqxx/pqxx</text>
</a>
</g>
</g>
<!-- Node20&#45;&gt;Node21 -->
<g id="edge22_Node000020_Node000021" class="edge">
<title>Node20&#45;&gt;Node21</title>
<g id="a_edge22_Node000020_Node000021"><a xlink:title=" ">
<path fill="none" stroke="#63b8ff" d="M1161.75,-55.59C1161.75,-49.01 1161.75,-39.96 1161.75,-31.73"/>
<polygon fill="#63b8ff" stroke="#63b8ff" points="1165.25,-31.81 1161.75,-21.81 1158.25,-31.81 1165.25,-31.81"/>
</a>
</g>
</g>
<!-- Node22&#45;&gt;Node18 -->
<g id="edge28_Node000022_Node000018" class="edge">
<title>Node22&#45;&gt;Node18</title>
<g id="a_edge28_Node000022_Node000018"><a xlink:title=" ">
<path fill="none" stroke="#63b8ff" d="M1155.97,-223.59C1156.83,-216.93 1158.02,-207.75 1159.1,-199.44"/>
<polygon fill="#63b8ff" stroke="#63b8ff" points="1162.54,-200.17 1160.35,-189.8 1155.59,-199.27 1162.54,-200.17"/>
</a>
</g>
</g>
<!-- Node23 -->
<g id="Node000023" class="node">
<title>Node23</title>
<g id="a_Node000023"><a xlink:href="IRepository_8hpp.html" target="_top" xlink:title=" ">
<polygon fill="white" stroke="#666666" points="1311.88,-188 1227.62,-188 1227.62,-168 1311.88,-168 1311.88,-188"/>
<text xml:space="preserve" text-anchor="middle" x="1269.75" y="-174.5" font-family="Helvetica,sans-Serif" font-size="10.00">IRepository.hpp</text>
</a>
</g>
</g>
<!-- Node22&#45;&gt;Node23 -->
<g id="edge25_Node000022_Node000023" class="edge">
<title>Node22&#45;&gt;Node23</title>
<g id="a_edge25_Node000022_Node000023"><a xlink:title=" ">
<path fill="none" stroke="#63b8ff" d="M1174.78,-223.59C1192.56,-215.24 1218.82,-202.92 1239.21,-193.34"/>
<polygon fill="#63b8ff" stroke="#63b8ff" points="1240.63,-196.54 1248.19,-189.12 1237.65,-190.21 1240.63,-196.54"/>
</a>
</g>
</g>
<!-- Node24 -->
<g id="Node000024" class="node">
<title>Node24</title>
<g id="a_Node000024"><a xlink:title=" ">
<polygon fill="#e0e0e0" stroke="#999999" points="1328.88,-132 1280.62,-132 1280.62,-112 1328.88,-112 1328.88,-132"/>
<text xml:space="preserve" text-anchor="middle" x="1304.75" y="-118.5" font-family="Helvetica,sans-Serif" font-size="10.00">cstddef</text>
</a>
</g>
</g>
<!-- Node22&#45;&gt;Node24 -->
<g id="edge27_Node000022_Node000024" class="edge">
<title>Node22&#45;&gt;Node24</title>
<g id="a_edge27_Node000022_Node000024"><a xlink:title=" ">
<path fill="none" stroke="#63b8ff" d="M1216.08,-224.27C1257.85,-216.93 1307.82,-204.9 1320.75,-188 1330.88,-174.76 1324.63,-155.95 1317.18,-141.97"/>
<polygon fill="#63b8ff" stroke="#63b8ff" points="1320.39,-140.51 1312.28,-133.69 1314.37,-144.08 1320.39,-140.51"/>
</a>
</g>
</g>
<!-- Node23&#45;&gt;Node24 -->
<g id="edge26_Node000023_Node000024" class="edge">
<title>Node23&#45;&gt;Node24</title>
<g id="a_edge26_Node000023_Node000024"><a xlink:title=" ">
<path fill="none" stroke="#63b8ff" d="M1275.85,-167.59C1280.46,-160.47 1286.96,-150.45 1292.62,-141.72"/>
<polygon fill="#63b8ff" stroke="#63b8ff" points="1295.4,-143.86 1297.9,-133.57 1289.52,-140.06 1295.4,-143.86"/>
</a>
</g>
</g>
</g>
</svg>
