<?xml version="1.0" encoding="UTF-8" standalone="no"?>
<!DOCTYPE svg PUBLIC "-//W3C//DTD SVG 1.1//EN"
 "http://www.w3.org/Graphics/SVG/1.1/DTD/svg11.dtd">
<!-- Generated by graphviz version 12.2.1 (0)
 -->
<!-- Title: src/bot_library/restapi/UserManager.cpp Pages: 1 -->
<svg width="1570pt" height="264pt"
 viewBox="0.00 0.00 1569.75 264.00" xmlns="http://www.w3.org/2000/svg" xmlns:xlink="http://www.w3.org/1999/xlink">
<g id="graph0" class="graph" transform="scale(1 1) rotate(0) translate(4 260)">
<title>src/bot_library/restapi/UserManager.cpp</title>
<!-- Node1 -->
<g id="Node000001" class="node">
<title>Node1</title>
<g id="a_Node000001"><a xlink:title=" ">
<polygon fill="#999999" stroke="#666666" points="1102.62,-256 992.88,-256 992.88,-224 1102.62,-224 1102.62,-256"/>
<text text-anchor="start" x="1000.88" y="-242.5" font-family="Helvetica,sans-Serif" font-size="10.00">src/bot_library/restapi</text>
<text text-anchor="middle" x="1047.75" y="-230.5" font-family="Helvetica,sans-Serif" font-size="10.00">/UserManager.cpp</text>
</a>
</g>
</g>
<!-- Node2 -->
<g id="Node000002" class="node">
<title>Node2</title>
<g id="a_Node000002"><a xlink:title=" ">
<polygon fill="#e0e0e0" stroke="#999999" points="413.25,-188 334.25,-188 334.25,-168 413.25,-168 413.25,-188"/>
<text text-anchor="middle" x="373.75" y="-174.5" font-family="Helvetica,sans-Serif" font-size="10.00">Poco/Logger.h</text>
</a>
</g>
</g>
<!-- Node1&#45;&gt;Node2 -->
<g id="edge1_Node000001_Node000002" class="edge">
<title>Node1&#45;&gt;Node2</title>
<g id="a_edge1_Node000001_Node000002"><a xlink:title=" ">
<path fill="none" stroke="#63b8ff" d="M992.7,-236.44C885.32,-231.04 640.25,-216.66 424.73,-188.28"/>
<polygon fill="#63b8ff" stroke="#63b8ff" points="425.39,-184.84 415.01,-186.98 424.46,-191.77 425.39,-184.84"/>
</a>
</g>
</g>
<!-- Node3 -->
<g id="Node000003" class="node">
<title>Node3</title>
<g id="a_Node000003"><a xlink:href="AuthUtils_8hpp.html" target="_top" xlink:title=" ">
<polygon fill="white" stroke="#666666" points="506.38,-188 431.12,-188 431.12,-168 506.38,-168 506.38,-188"/>
<text text-anchor="middle" x="468.75" y="-174.5" font-family="Helvetica,sans-Serif" font-size="10.00">AuthUtils.hpp</text>
</a>
</g>
</g>
<!-- Node1&#45;&gt;Node3 -->
<g id="edge2_Node000001_Node000003" class="edge">
<title>Node1&#45;&gt;Node3</title>
<g id="a_edge2_Node000001_Node000003"><a xlink:title=" ">
<path fill="none" stroke="#63b8ff" d="M992.5,-233.27C879.86,-221.6 625.3,-195.22 517.96,-184.1"/>
<polygon fill="#63b8ff" stroke="#63b8ff" points="518.64,-180.65 508.33,-183.1 517.92,-187.61 518.64,-180.65"/>
</a>
</g>
</g>
<!-- Node9 -->
<g id="Node000009" class="node">
<title>Node9</title>
<g id="a_Node000009"><a xlink:href="EmailClient_8hpp.html" target="_top" xlink:title=" ">
<polygon fill="white" stroke="#666666" points="823.25,-188 738.25,-188 738.25,-168 823.25,-168 823.25,-188"/>
<text text-anchor="middle" x="780.75" y="-174.5" font-family="Helvetica,sans-Serif" font-size="10.00">EmailClient.hpp</text>
</a>
</g>
</g>
<!-- Node1&#45;&gt;Node9 -->
<g id="edge8_Node000001_Node000009" class="edge">
<title>Node1&#45;&gt;Node9</title>
<g id="a_edge8_Node000001_Node000009"><a xlink:title=" ">
<path fill="none" stroke="#63b8ff" d="M992.43,-226.57C945.96,-216.13 879.98,-201.3 834.08,-190.98"/>
<polygon fill="#63b8ff" stroke="#63b8ff" points="834.87,-187.57 824.34,-188.8 833.33,-194.4 834.87,-187.57"/>
</a>
</g>
</g>
<!-- Node13 -->
<g id="Node000013" class="node">
<title>Node13</title>
<g id="a_Node000013"><a xlink:href="UserManager_8hpp.html" target="_top" xlink:title=" ">
<polygon fill="white" stroke="#666666" points="1045.38,-188 952.12,-188 952.12,-168 1045.38,-168 1045.38,-188"/>
<text text-anchor="middle" x="998.75" y="-174.5" font-family="Helvetica,sans-Serif" font-size="10.00">UserManager.hpp</text>
</a>
</g>
</g>
<!-- Node1&#45;&gt;Node13 -->
<g id="edge12_Node000001_Node000013" class="edge">
<title>Node1&#45;&gt;Node13</title>
<g id="a_edge12_Node000001_Node000013"><a xlink:title=" ">
<path fill="none" stroke="#63b8ff" d="M1035.13,-223.55C1028.54,-215.48 1020.43,-205.55 1013.54,-197.12"/>
<polygon fill="#63b8ff" stroke="#63b8ff" points="1016.43,-195.11 1007.39,-189.58 1011.01,-199.54 1016.43,-195.11"/>
</a>
</g>
</g>
<!-- Node15 -->
<g id="Node000015" class="node">
<title>Node15</title>
<g id="a_Node000015"><a xlink:href="WebUserDTO_8hpp.html" target="_top" xlink:title=" ">
<polygon fill="white" stroke="#666666" points="1412.88,-132 1316.62,-132 1316.62,-112 1412.88,-112 1412.88,-132"/>
<text text-anchor="middle" x="1364.75" y="-118.5" font-family="Helvetica,sans-Serif" font-size="10.00">WebUserDTO.hpp</text>
</a>
</g>
</g>
<!-- Node1&#45;&gt;Node15 -->
<g id="edge15_Node000001_Node000015" class="edge">
<title>Node1&#45;&gt;Node15</title>
<g id="a_edge15_Node000001_Node000015"><a xlink:title=" ">
<path fill="none" stroke="#63b8ff" d="M1089.85,-223.6C1152.5,-200.67 1269.24,-157.95 1328.39,-136.3"/>
<polygon fill="#63b8ff" stroke="#63b8ff" points="1329.47,-139.64 1337.66,-132.91 1327.07,-133.06 1329.47,-139.64"/>
</a>
</g>
</g>
<!-- Node18 -->
<g id="Node000018" class="node">
<title>Node18</title>
<g id="a_Node000018"><a xlink:href="WebUserRepository_8hpp.html" target="_top" xlink:title=" ">
<polygon fill="white" stroke="#666666" points="1425.62,-188 1303.88,-188 1303.88,-168 1425.62,-168 1425.62,-188"/>
<text text-anchor="middle" x="1364.75" y="-174.5" font-family="Helvetica,sans-Serif" font-size="10.00">WebUserRepository.hpp</text>
</a>
</g>
</g>
<!-- Node1&#45;&gt;Node18 -->
<g id="edge19_Node000001_Node000018" class="edge">
<title>Node1&#45;&gt;Node18</title>
<g id="a_edge19_Node000001_Node000018"><a xlink:title=" ">
<path fill="none" stroke="#63b8ff" d="M1102.97,-228.55C1158.93,-217.96 1245.31,-201.61 1303.38,-190.62"/>
<polygon fill="#63b8ff" stroke="#63b8ff" points="1303.94,-194.07 1313.12,-188.77 1302.64,-187.19 1303.94,-194.07"/>
</a>
</g>
</g>
<!-- Node21 -->
<g id="Node000021" class="node">
<title>Node21</title>
<g id="a_Node000021"><a xlink:title=" ">
<polygon fill="#e0e0e0" stroke="#999999" points="1561.75,-188 1443.75,-188 1443.75,-168 1561.75,-168 1561.75,-188"/>
<text text-anchor="middle" x="1502.75" y="-174.5" font-family="Helvetica,sans-Serif" font-size="10.00">Poco/UUIDGenerator.h</text>
</a>
</g>
</g>
<!-- Node1&#45;&gt;Node21 -->
<g id="edge24_Node000001_Node000021" class="edge">
<title>Node1&#45;&gt;Node21</title>
<g id="a_edge24_Node000001_Node000021"><a xlink:title=" ">
<path fill="none" stroke="#63b8ff" d="M1102.87,-231.75C1175.73,-222.16 1308.44,-204.68 1432.23,-188.33"/>
<polygon fill="#63b8ff" stroke="#63b8ff" points="1432.46,-191.83 1441.91,-187.05 1431.54,-184.89 1432.46,-191.83"/>
</a>
</g>
</g>
<!-- Node22 -->
<g id="Node000022" class="node">
<title>Node22</title>
<g id="a_Node000022"><a xlink:href="Secrets_8hpp.html" target="_top" xlink:title=" ">
<polygon fill="white" stroke="#666666" points="1142,-188 1073.5,-188 1073.5,-168 1142,-168 1142,-188"/>
<text text-anchor="middle" x="1107.75" y="-174.5" font-family="Helvetica,sans-Serif" font-size="10.00">Secrets.hpp</text>
</a>
</g>
</g>
<!-- Node1&#45;&gt;Node22 -->
<g id="edge25_Node000001_Node000022" class="edge">
<title>Node1&#45;&gt;Node22</title>
<g id="a_edge25_Node000001_Node000022"><a xlink:title=" ">
<path fill="none" stroke="#63b8ff" d="M1063.2,-223.55C1071.53,-215.22 1081.84,-204.91 1090.45,-196.3"/>
<polygon fill="#63b8ff" stroke="#63b8ff" points="1092.68,-199.02 1097.27,-189.48 1087.73,-194.07 1092.68,-199.02"/>
</a>
</g>
</g>
<!-- Node4 -->
<g id="Node000004" class="node">
<title>Node4</title>
<g id="a_Node000004"><a xlink:title=" ">
<polygon fill="#e0e0e0" stroke="#999999" points="671.5,-132 540,-132 540,-112 671.5,-112 671.5,-132"/>
<text text-anchor="middle" x="605.75" y="-118.5" font-family="Helvetica,sans-Serif" font-size="10.00">Poco/HexBinaryEncoder.h</text>
</a>
</g>
</g>
<!-- Node3&#45;&gt;Node4 -->
<g id="edge3_Node000003_Node000004" class="edge">
<title>Node3&#45;&gt;Node4</title>
<g id="a_edge3_Node000003_Node000004"><a xlink:title=" ">
<path fill="none" stroke="#63b8ff" d="M492.61,-167.59C514.29,-159.05 546.52,-146.35 571.04,-136.68"/>
<polygon fill="#63b8ff" stroke="#63b8ff" points="572.27,-139.96 580.29,-133.03 569.71,-133.45 572.27,-139.96"/>
</a>
</g>
</g>
<!-- Node5 -->
<g id="Node000005" class="node">
<title>Node5</title>
<g id="a_Node000005"><a xlink:title=" ">
<polygon fill="#e0e0e0" stroke="#999999" points="101.5,-132 0,-132 0,-112 101.5,-112 101.5,-132"/>
<text text-anchor="middle" x="50.75" y="-118.5" font-family="Helvetica,sans-Serif" font-size="10.00">Poco/JWT/Signer.h</text>
</a>
</g>
</g>
<!-- Node3&#45;&gt;Node5 -->
<g id="edge4_Node000003_Node000005" class="edge">
<title>Node3&#45;&gt;Node5</title>
<g id="a_edge4_Node000003_Node000005"><a xlink:title=" ">
<path fill="none" stroke="#63b8ff" d="M430.83,-169.49C427.76,-168.96 424.71,-168.45 421.75,-168 287.84,-147.46 250.63,-150.16 113.19,-132.28"/>
<polygon fill="#63b8ff" stroke="#63b8ff" points="113.67,-128.81 103.3,-130.97 112.75,-135.75 113.67,-128.81"/>
</a>
</g>
</g>
<!-- Node6 -->
<g id="Node000006" class="node">
<title>Node6</title>
<g id="a_Node000006"><a xlink:title=" ">
<polygon fill="#e0e0e0" stroke="#999999" points="219.75,-132 119.75,-132 119.75,-112 219.75,-112 219.75,-132"/>
<text text-anchor="middle" x="169.75" y="-118.5" font-family="Helvetica,sans-Serif" font-size="10.00">Poco/JWT/Token.h</text>
</a>
</g>
</g>
<!-- Node3&#45;&gt;Node6 -->
<g id="edge5_Node000003_Node000006" class="edge">
<title>Node3&#45;&gt;Node6</title>
<g id="a_edge5_Node000003_Node000006"><a xlink:title=" ">
<path fill="none" stroke="#63b8ff" d="M430.79,-169.69C427.73,-169.11 424.69,-168.54 421.75,-168 356.75,-155.97 282.2,-142.73 231.15,-133.74"/>
<polygon fill="#63b8ff" stroke="#63b8ff" points="231.93,-130.33 221.48,-132.04 230.72,-137.22 231.93,-130.33"/>
</a>
</g>
</g>
<!-- Node7 -->
<g id="Node000007" class="node">
<title>Node7</title>
<g id="a_Node000007"><a xlink:title=" ">
<polygon fill="#e0e0e0" stroke="#999999" points="397.75,-132 237.75,-132 237.75,-112 397.75,-112 397.75,-132"/>
<text text-anchor="middle" x="317.75" y="-118.5" font-family="Helvetica,sans-Serif" font-size="10.00">Poco/Net/HTTPServerRequest.h</text>
</a>
</g>
</g>
<!-- Node3&#45;&gt;Node7 -->
<g id="edge6_Node000003_Node000007" class="edge">
<title>Node3&#45;&gt;Node7</title>
<g id="a_edge6_Node000003_Node000007"><a xlink:title=" ">
<path fill="none" stroke="#63b8ff" d="M442.45,-167.59C418.24,-158.94 382.07,-146 354.91,-136.29"/>
<polygon fill="#63b8ff" stroke="#63b8ff" points="356.28,-133.06 345.68,-132.99 353.92,-139.65 356.28,-133.06"/>
</a>
</g>
</g>
<!-- Node8 -->
<g id="Node000008" class="node">
<title>Node8</title>
<g id="a_Node000008"><a xlink:title=" ">
<polygon fill="#e0e0e0" stroke="#999999" points="521.75,-132 415.75,-132 415.75,-112 521.75,-112 521.75,-132"/>
<text text-anchor="middle" x="468.75" y="-118.5" font-family="Helvetica,sans-Serif" font-size="10.00">Poco/SHA2Engine.h</text>
</a>
</g>
</g>
<!-- Node3&#45;&gt;Node8 -->
<g id="edge7_Node000003_Node000008" class="edge">
<title>Node3&#45;&gt;Node8</title>
<g id="a_edge7_Node000003_Node000008"><a xlink:title=" ">
<path fill="none" stroke="#63b8ff" d="M468.75,-167.59C468.75,-161.01 468.75,-151.96 468.75,-143.73"/>
<polygon fill="#63b8ff" stroke="#63b8ff" points="472.25,-143.81 468.75,-133.81 465.25,-143.81 472.25,-143.81"/>
</a>
</g>
</g>
<!-- Node10 -->
<g id="Node000010" class="node">
<title>Node10</title>
<g id="a_Node000010"><a xlink:title=" ">
<polygon fill="#e0e0e0" stroke="#999999" points="834.38,-132 789.12,-132 789.12,-112 834.38,-112 834.38,-132"/>
<text text-anchor="middle" x="811.75" y="-118.5" font-family="Helvetica,sans-Serif" font-size="10.00">cstdint</text>
</a>
</g>
</g>
<!-- Node9&#45;&gt;Node10 -->
<g id="edge9_Node000009_Node000010" class="edge">
<title>Node9&#45;&gt;Node10</title>
<g id="a_edge9_Node000009_Node000010"><a xlink:title=" ">
<path fill="none" stroke="#63b8ff" d="M786.15,-167.59C790.19,-160.55 795.87,-150.67 800.84,-142"/>
<polygon fill="#63b8ff" stroke="#63b8ff" points="803.72,-144.03 805.66,-133.61 797.64,-140.54 803.72,-144.03"/>
</a>
</g>
</g>
<!-- Node11 -->
<g id="Node000011" class="node">
<title>Node11</title>
<g id="a_Node000011"><a xlink:title=" ">
<polygon fill="#e0e0e0" stroke="#999999" points="1037.75,-76 997.75,-76 997.75,-56 1037.75,-56 1037.75,-76"/>
<text text-anchor="middle" x="1017.75" y="-62.5" font-family="Helvetica,sans-Serif" font-size="10.00">string</text>
</a>
</g>
</g>
<!-- Node9&#45;&gt;Node11 -->
<g id="edge10_Node000009_Node000011" class="edge">
<title>Node9&#45;&gt;Node11</title>
<g id="a_edge10_Node000009_Node000011"><a xlink:title=" ">
<path fill="none" stroke="#63b8ff" d="M760.58,-167.55C736.68,-155.11 702.19,-132.41 719.75,-112 753.87,-72.34 916.55,-67.18 986.1,-66.82"/>
<polygon fill="#63b8ff" stroke="#63b8ff" points="986.06,-70.32 996.06,-66.81 986.05,-63.32 986.06,-70.32"/>
</a>
</g>
</g>
<!-- Node12 -->
<g id="Node000012" class="node">
<title>Node12</title>
<g id="a_Node000012"><a xlink:title=" ">
<polygon fill="#e0e0e0" stroke="#999999" points="771.25,-132 728.25,-132 728.25,-112 771.25,-112 771.25,-132"/>
<text text-anchor="middle" x="749.75" y="-118.5" font-family="Helvetica,sans-Serif" font-size="10.00">vector</text>
</a>
</g>
</g>
<!-- Node9&#45;&gt;Node12 -->
<g id="edge11_Node000009_Node000012" class="edge">
<title>Node9&#45;&gt;Node12</title>
<g id="a_edge11_Node000009_Node000012"><a xlink:title=" ">
<path fill="none" stroke="#63b8ff" d="M775.35,-167.59C771.31,-160.55 765.63,-150.67 760.66,-142"/>
<polygon fill="#63b8ff" stroke="#63b8ff" points="763.86,-140.54 755.84,-133.61 757.78,-144.03 763.86,-140.54"/>
</a>
</g>
</g>
<!-- Node13&#45;&gt;Node11 -->
<g id="edge14_Node000013_Node000011" class="edge">
<title>Node13&#45;&gt;Node11</title>
<g id="a_edge14_Node000013_Node000011"><a xlink:title=" ">
<path fill="none" stroke="#63b8ff" d="M1000.37,-167.62C1003.41,-150.01 1010.05,-111.59 1014.18,-87.65"/>
<polygon fill="#63b8ff" stroke="#63b8ff" points="1017.62,-88.3 1015.88,-77.85 1010.73,-87.1 1017.62,-88.3"/>
</a>
</g>
</g>
<!-- Node14 -->
<g id="Node000014" class="node">
<title>Node14</title>
<g id="a_Node000014"><a xlink:title=" ">
<polygon fill="#e0e0e0" stroke="#999999" points="971.12,-132 852.38,-132 852.38,-112 971.12,-112 971.12,-132"/>
<text text-anchor="middle" x="911.75" y="-118.5" font-family="Helvetica,sans-Serif" font-size="10.00">Poco/SingletonHolder.h</text>
</a>
</g>
</g>
<!-- Node13&#45;&gt;Node14 -->
<g id="edge13_Node000013_Node000014" class="edge">
<title>Node13&#45;&gt;Node14</title>
<g id="a_edge13_Node000013_Node000014"><a xlink:title=" ">
<path fill="none" stroke="#63b8ff" d="M983.6,-167.59C970.7,-159.59 951.92,-147.93 936.79,-138.54"/>
<polygon fill="#63b8ff" stroke="#63b8ff" points="938.65,-135.58 928.31,-133.28 934.96,-141.53 938.65,-135.58"/>
</a>
</g>
</g>
<!-- Node15&#45;&gt;Node11 -->
<g id="edge18_Node000015_Node000011" class="edge">
<title>Node15&#45;&gt;Node11</title>
<g id="a_edge18_Node000015_Node000011"><a xlink:title=" ">
<path fill="none" stroke="#63b8ff" d="M1316.24,-113.33C1313.37,-112.88 1310.52,-112.43 1307.75,-112 1213.69,-97.28 1102.43,-80.07 1049.19,-71.85"/>
<polygon fill="#63b8ff" stroke="#63b8ff" points="1050.06,-68.44 1039.64,-70.38 1048.99,-75.36 1050.06,-68.44"/>
</a>
</g>
</g>
<!-- Node16 -->
<g id="Node000016" class="node">
<title>Node16</title>
<g id="a_Node000016"><a xlink:href="RowDTOAdapter_8hpp.html" target="_top" xlink:title=" ">
<polygon fill="white" stroke="#666666" points="1419.62,-76 1309.88,-76 1309.88,-56 1419.62,-56 1419.62,-76"/>
<text text-anchor="middle" x="1364.75" y="-62.5" font-family="Helvetica,sans-Serif" font-size="10.00">RowDTOAdapter.hpp</text>
</a>
</g>
</g>
<!-- Node15&#45;&gt;Node16 -->
<g id="edge16_Node000015_Node000016" class="edge">
<title>Node15&#45;&gt;Node16</title>
<g id="a_edge16_Node000015_Node000016"><a xlink:title=" ">
<path fill="none" stroke="#63b8ff" d="M1364.75,-111.59C1364.75,-105.01 1364.75,-95.96 1364.75,-87.73"/>
<polygon fill="#63b8ff" stroke="#63b8ff" points="1368.25,-87.81 1364.75,-77.81 1361.25,-87.81 1368.25,-87.81"/>
</a>
</g>
</g>
<!-- Node17 -->
<g id="Node000017" class="node">
<title>Node17</title>
<g id="a_Node000017"><a xlink:title=" ">
<polygon fill="#e0e0e0" stroke="#999999" points="1395.25,-20 1334.25,-20 1334.25,0 1395.25,0 1395.25,-20"/>
<text text-anchor="middle" x="1364.75" y="-6.5" font-family="Helvetica,sans-Serif" font-size="10.00">pqxx/pqxx</text>
</a>
</g>
</g>
<!-- Node16&#45;&gt;Node17 -->
<g id="edge17_Node000016_Node000017" class="edge">
<title>Node16&#45;&gt;Node17</title>
<g id="a_edge17_Node000016_Node000017"><a xlink:title=" ">
<path fill="none" stroke="#63b8ff" d="M1364.75,-55.59C1364.75,-49.01 1364.75,-39.96 1364.75,-31.73"/>
<polygon fill="#63b8ff" stroke="#63b8ff" points="1368.25,-31.81 1364.75,-21.81 1361.25,-31.81 1368.25,-31.81"/>
</a>
</g>
</g>
<!-- Node18&#45;&gt;Node15 -->
<g id="edge23_Node000018_Node000015" class="edge">
<title>Node18&#45;&gt;Node15</title>
<g id="a_edge23_Node000018_Node000015"><a xlink:title=" ">
<path fill="none" stroke="#63b8ff" d="M1364.75,-167.59C1364.75,-161.01 1364.75,-151.96 1364.75,-143.73"/>
<polygon fill="#63b8ff" stroke="#63b8ff" points="1368.25,-143.81 1364.75,-133.81 1361.25,-143.81 1368.25,-143.81"/>
</a>
</g>
</g>
<!-- Node19 -->
<g id="Node000019" class="node">
<title>Node19</title>
<g id="a_Node000019"><a xlink:href="IRepository_8hpp.html" target="_top" xlink:title=" ">
<polygon fill="white" stroke="#666666" points="1514.88,-132 1430.62,-132 1430.62,-112 1514.88,-112 1514.88,-132"/>
<text text-anchor="middle" x="1472.75" y="-118.5" font-family="Helvetica,sans-Serif" font-size="10.00">IRepository.hpp</text>
</a>
</g>
</g>
<!-- Node18&#45;&gt;Node19 -->
<g id="edge20_Node000018_Node000019" class="edge">
<title>Node18&#45;&gt;Node19</title>
<g id="a_edge20_Node000018_Node000019"><a xlink:title=" ">
<path fill="none" stroke="#63b8ff" d="M1383.56,-167.59C1400.11,-159.32 1424.46,-147.14 1443.54,-137.6"/>
<polygon fill="#63b8ff" stroke="#63b8ff" points="1445.06,-140.76 1452.44,-133.16 1441.93,-134.5 1445.06,-140.76"/>
</a>
</g>
</g>
<!-- Node20 -->
<g id="Node000020" class="node">
<title>Node20</title>
<g id="a_Node000020"><a xlink:title=" ">
<polygon fill="#e0e0e0" stroke="#999999" points="1531.88,-76 1483.62,-76 1483.62,-56 1531.88,-56 1531.88,-76"/>
<text text-anchor="middle" x="1507.75" y="-62.5" font-family="Helvetica,sans-Serif" font-size="10.00">cstddef</text>
</a>
</g>
</g>
<!-- Node18&#45;&gt;Node20 -->
<g id="edge22_Node000018_Node000020" class="edge">
<title>Node18&#45;&gt;Node20</title>
<g id="a_edge22_Node000018_Node000020"><a xlink:title=" ">
<path fill="none" stroke="#63b8ff" d="M1425.64,-167.52C1465.22,-159.97 1511.64,-148.02 1523.75,-132 1533.81,-118.7 1527.57,-99.9 1520.14,-85.94"/>
<polygon fill="#63b8ff" stroke="#63b8ff" points="1523.36,-84.5 1515.25,-77.68 1517.33,-88.06 1523.36,-84.5"/>
</a>
</g>
</g>
<!-- Node19&#45;&gt;Node20 -->
<g id="edge21_Node000019_Node000020" class="edge">
<title>Node19&#45;&gt;Node20</title>
<g id="a_edge21_Node000019_Node000020"><a xlink:title=" ">
<path fill="none" stroke="#63b8ff" d="M1478.85,-111.59C1483.46,-104.47 1489.96,-94.45 1495.62,-85.72"/>
<polygon fill="#63b8ff" stroke="#63b8ff" points="1498.4,-87.86 1500.9,-77.57 1492.52,-84.06 1498.4,-87.86"/>
</a>
</g>
</g>
<!-- Node22&#45;&gt;Node11 -->
<g id="edge28_Node000022_Node000011" class="edge">
<title>Node22&#45;&gt;Node11</title>
<g id="a_edge28_Node000022_Node000011"><a xlink:title=" ">
<path fill="none" stroke="#63b8ff" d="M1094.72,-167.67C1083.5,-159.21 1067.35,-145.96 1055.75,-132 1044.13,-118.02 1033.92,-100.05 1027.02,-86.54"/>
<polygon fill="#63b8ff" stroke="#63b8ff" points="1030.27,-85.22 1022.71,-77.8 1023.99,-88.32 1030.27,-85.22"/>
</a>
</g>
</g>
<!-- Node23 -->
<g id="Node000023" class="node">
<title>Node23</title>
<g id="a_Node000023"><a xlink:title=" ">
<polygon fill="#e0e0e0" stroke="#999999" points="1172.88,-132 1064.62,-132 1064.62,-112 1172.88,-112 1172.88,-132"/>
<text text-anchor="middle" x="1118.75" y="-118.5" font-family="Helvetica,sans-Serif" font-size="10.00">Poco/JSON/Object.h</text>
</a>
</g>
</g>
<!-- Node22&#45;&gt;Node23 -->
<g id="edge26_Node000022_Node000023" class="edge">
<title>Node22&#45;&gt;Node23</title>
<g id="a_edge26_Node000022_Node000023"><a xlink:title=" ">
<path fill="none" stroke="#63b8ff" d="M1109.67,-167.59C1111.02,-160.93 1112.89,-151.75 1114.59,-143.44"/>
<polygon fill="#63b8ff" stroke="#63b8ff" points="1117.99,-144.28 1116.55,-133.78 1111.13,-142.88 1117.99,-144.28"/>
</a>
</g>
</g>
<!-- Node24 -->
<g id="Node000024" class="node">
<title>Node24</title>
<g id="a_Node000024"><a xlink:title=" ">
<polygon fill="#e0e0e0" stroke="#999999" points="1298.88,-132 1190.62,-132 1190.62,-112 1298.88,-112 1298.88,-132"/>
<text text-anchor="middle" x="1244.75" y="-118.5" font-family="Helvetica,sans-Serif" font-size="10.00">Poco/JSON/Parser.h</text>
</a>
</g>
</g>
<!-- Node22&#45;&gt;Node24 -->
<g id="edge27_Node000022_Node000024" class="edge">
<title>Node22&#45;&gt;Node24</title>
<g id="a_edge27_Node000022_Node000024"><a xlink:title=" ">
<path fill="none" stroke="#63b8ff" d="M1131.61,-167.59C1153.29,-159.05 1185.52,-146.35 1210.04,-136.68"/>
<polygon fill="#63b8ff" stroke="#63b8ff" points="1211.27,-139.96 1219.29,-133.03 1208.71,-133.45 1211.27,-139.96"/>
</a>
</g>
</g>
</g>
</svg>
