<?xml version="1.0" encoding="UTF-8" standalone="no"?>
<!DOCTYPE svg PUBLIC "-//W3C//DTD SVG 1.1//EN"
 "http://www.w3.org/Graphics/SVG/1.1/DTD/svg11.dtd">
<!-- Generated by graphviz version 9.0.0 (0)
 -->
<!-- Title: src/bot_library/commands/challenge_badge/UserDTO.hpp Pages: 1 -->
<svg width="401pt" height="176pt"
 viewBox="0.00 0.00 401.25 176.00" xmlns="http://www.w3.org/2000/svg" xmlns:xlink="http://www.w3.org/1999/xlink">
<g id="graph0" class="graph" transform="scale(1 1) rotate(0) translate(4 172)">
<title>src/bot_library/commands/challenge_badge/UserDTO.hpp</title>
<!-- Node1 -->
<g id="Node000001" class="node">
<title>Node1</title>
<g id="a_Node000001"><a xlink:title=" ">
<polygon fill="#999999" stroke="#666666" points="261.5,-168 106,-168 106,-136 261.5,-136 261.5,-168"/>
<text text-anchor="start" x="114" y="-154.5" font-family="Helvetica,sans-Serif" font-size="10.00">src/bot_library/commands</text>
<text text-anchor="middle" x="183.75" y="-142.5" font-family="Helvetica,sans-Serif" font-size="10.00">/challenge_badge/UserDTO.hpp</text>
</a>
</g>
</g>
<!-- Node2 -->
<g id="Node000002" class="node">
<title>Node2</title>
<g id="a_Node000002"><a xlink:href="UserDTO_8cpp.html" target="_top" xlink:title=" ">
<polygon fill="white" stroke="#666666" points="155.5,-100 0,-100 0,-68 155.5,-68 155.5,-100"/>
<text text-anchor="start" x="8" y="-86.5" font-family="Helvetica,sans-Serif" font-size="10.00">src/bot_library/commands</text>
<text text-anchor="middle" x="77.75" y="-74.5" font-family="Helvetica,sans-Serif" font-size="10.00">/challenge_badge/UserDTO.cpp</text>
</a>
</g>
</g>
<!-- Node1&#45;&gt;Node2 -->
<g id="edge1_Node000001_Node000002" class="edge">
<title>Node1&#45;&gt;Node2</title>
<g id="a_edge1_Node000001_Node000002"><a xlink:title=" ">
<path fill="none" stroke="#63b8ff" d="M149.26,-129.53C133.99,-120.02 116.37,-109.05 102.45,-100.38"/>
<polygon fill="#63b8ff" stroke="#63b8ff" points="147.27,-132.41 157.61,-134.73 150.97,-126.47 147.27,-132.41"/>
</a>
</g>
</g>
<!-- Node3 -->
<g id="Node000003" class="node">
<title>Node3</title>
<g id="a_Node000003"><a xlink:href="UserRepository_8cpp.html" target="_top" xlink:title=" ">
<polygon fill="white" stroke="#666666" points="333.25,-32 152.25,-32 152.25,0 333.25,0 333.25,-32"/>
<text text-anchor="start" x="160.25" y="-18.5" font-family="Helvetica,sans-Serif" font-size="10.00">src/bot_library/commands</text>
<text text-anchor="middle" x="242.75" y="-6.5" font-family="Helvetica,sans-Serif" font-size="10.00">/challenge_badge/UserRepository.cpp</text>
</a>
</g>
</g>
<!-- Node1&#45;&gt;Node3 -->
<g id="edge2_Node000001_Node000003" class="edge">
<title>Node1&#45;&gt;Node3</title>
<g id="a_edge2_Node000001_Node000003"><a xlink:title=" ">
<path fill="none" stroke="#63b8ff" d="M187.25,-124.47C190.16,-107.69 195.23,-85.87 203.75,-68 209.98,-54.92 219.94,-41.97 228.24,-32.4"/>
<polygon fill="#63b8ff" stroke="#63b8ff" points="183.82,-123.76 185.74,-134.18 190.74,-124.84 183.82,-123.76"/>
</a>
</g>
</g>
<!-- Node4 -->
<g id="Node000004" class="node">
<title>Node4</title>
<g id="a_Node000004"><a xlink:href="UserRepository_8hpp.html" target="_top" xlink:title=" ">
<polygon fill="white" stroke="#666666" points="393.25,-100 212.25,-100 212.25,-68 393.25,-68 393.25,-100"/>
<text text-anchor="start" x="220.25" y="-86.5" font-family="Helvetica,sans-Serif" font-size="10.00">src/bot_library/commands</text>
<text text-anchor="middle" x="302.75" y="-74.5" font-family="Helvetica,sans-Serif" font-size="10.00">/challenge_badge/UserRepository.hpp</text>
</a>
</g>
</g>
<!-- Node1&#45;&gt;Node4 -->
<g id="edge3_Node000001_Node000004" class="edge">
<title>Node1&#45;&gt;Node4</title>
<g id="a_edge3_Node000001_Node000004"><a xlink:title=" ">
<path fill="none" stroke="#63b8ff" d="M221.49,-130.07C238.86,-120.44 259.09,-109.21 275.02,-100.38"/>
<polygon fill="#63b8ff" stroke="#63b8ff" points="220.02,-126.88 212.97,-134.79 223.42,-133 220.02,-126.88"/>
</a>
</g>
</g>
<!-- Node4&#45;&gt;Node3 -->
<g id="edge4_Node000004_Node000003" class="edge">
<title>Node4&#45;&gt;Node3</title>
<g id="a_edge4_Node000004_Node000003"><a xlink:title=" ">
<path fill="none" stroke="#63b8ff" d="M281.32,-59.43C273.09,-50.38 263.92,-40.29 256.59,-32.22"/>
<polygon fill="#63b8ff" stroke="#63b8ff" points="278.5,-61.53 287.82,-66.57 283.68,-56.82 278.5,-61.53"/>
</a>
</g>
</g>
</g>
</svg>
