<?xml version="1.0" encoding="UTF-8" standalone="no"?>
<!DOCTYPE svg PUBLIC "-//W3C//DTD SVG 1.1//EN"
 "http://www.w3.org/Graphics/SVG/1.1/DTD/svg11.dtd">
<!-- Generated by graphviz version 13.0.1 (0)
 -->
<!-- Title: src/bot_library/commands/auth/WebUserDTO.hpp Pages: 1 -->
<svg width="179pt" height="208pt"
 viewBox="0.00 0.00 179.00 208.00" xmlns="http://www.w3.org/2000/svg" xmlns:xlink="http://www.w3.org/1999/xlink">
<g id="graph0" class="graph" transform="scale(1 1) rotate(0) translate(4 204)">
<title>src/bot_library/commands/auth/WebUserDTO.hpp</title>
<!-- Node1 -->
<g id="Node000001" class="node">
<title>Node1</title>
<g id="a_Node000001"><a xlink:title=" ">
<polygon fill="#999999" stroke="#666666" points="167.75,-200 39.25,-200 39.25,-168 167.75,-168 167.75,-200"/>
<text xml:space="preserve" text-anchor="start" x="47.25" y="-186.5" font-family="Helvetica,sans-Serif" font-size="10.00">src/bot_library/commands</text>
<text xml:space="preserve" text-anchor="middle" x="103.5" y="-174.5" font-family="Helvetica,sans-Serif" font-size="10.00">/auth/WebUserDTO.hpp</text>
</a>
</g>
</g>
<!-- Node2 -->
<g id="Node000002" class="node">
<title>Node2</title>
<g id="a_Node000002"><a xlink:href="RowDTOAdapter_8hpp.html" target="_top" xlink:title=" ">
<polygon fill="white" stroke="#666666" points="112.38,-132 2.63,-132 2.63,-112 112.38,-112 112.38,-132"/>
<text xml:space="preserve" text-anchor="middle" x="57.5" y="-118.5" font-family="Helvetica,sans-Serif" font-size="10.00">RowDTOAdapter.hpp</text>
</a>
</g>
</g>
<!-- Node1&#45;&gt;Node2 -->
<g id="edge1_Node000001_Node000002" class="edge">
<title>Node1&#45;&gt;Node2</title>
<g id="a_edge1_Node000001_Node000002"><a xlink:title=" ">
<path fill="none" stroke="#63b8ff" d="M91.65,-167.55C85.53,-159.56 78.02,-149.76 71.6,-141.39"/>
<polygon fill="#63b8ff" stroke="#63b8ff" points="74.5,-139.42 65.63,-133.61 68.94,-143.67 74.5,-139.42"/>
</a>
</g>
</g>
<!-- Node5 -->
<g id="Node000005" class="node">
<title>Node5</title>
<g id="a_Node000005"><a xlink:title=" ">
<polygon fill="#e0e0e0" stroke="#999999" points="170.5,-132 130.5,-132 130.5,-112 170.5,-112 170.5,-132"/>
<text xml:space="preserve" text-anchor="middle" x="150.5" y="-118.5" font-family="Helvetica,sans-Serif" font-size="10.00">string</text>
</a>
</g>
</g>
<!-- Node1&#45;&gt;Node5 -->
<g id="edge4_Node000001_Node000005" class="edge">
<title>Node1&#45;&gt;Node5</title>
<g id="a_edge4_Node000001_Node000005"><a xlink:title=" ">
<path fill="none" stroke="#63b8ff" d="M115.6,-167.55C121.86,-159.56 129.54,-149.76 136.1,-141.39"/>
<polygon fill="#63b8ff" stroke="#63b8ff" points="138.79,-143.63 142.2,-133.6 133.28,-139.31 138.79,-143.63"/>
</a>
</g>
</g>
<!-- Node3 -->
<g id="Node000003" class="node">
<title>Node3</title>
<g id="a_Node000003"><a xlink:href="DatabaseBackend_8hpp.html" target="_top" xlink:title=" ">
<polygon fill="white" stroke="#666666" points="115,-76 0,-76 0,-56 115,-56 115,-76"/>
<text xml:space="preserve" text-anchor="middle" x="57.5" y="-62.5" font-family="Helvetica,sans-Serif" font-size="10.00">DatabaseBackend.hpp</text>
</a>
</g>
</g>
<!-- Node2&#45;&gt;Node3 -->
<g id="edge2_Node000002_Node000003" class="edge">
<title>Node2&#45;&gt;Node3</title>
<g id="a_edge2_Node000002_Node000003"><a xlink:title=" ">
<path fill="none" stroke="#63b8ff" d="M57.5,-111.59C57.5,-105.01 57.5,-95.96 57.5,-87.73"/>
<polygon fill="#63b8ff" stroke="#63b8ff" points="61,-87.81 57.5,-77.81 54,-87.81 61,-87.81"/>
</a>
</g>
</g>
<!-- Node4 -->
<g id="Node000004" class="node">
<title>Node4</title>
<g id="a_Node000004"><a xlink:title=" ">
<polygon fill="#e0e0e0" stroke="#999999" points="88,-20 27,-20 27,0 88,0 88,-20"/>
<text xml:space="preserve" text-anchor="middle" x="57.5" y="-6.5" font-family="Helvetica,sans-Serif" font-size="10.00">pqxx/pqxx</text>
</a>
</g>
</g>
<!-- Node3&#45;&gt;Node4 -->
<g id="edge3_Node000003_Node000004" class="edge">
<title>Node3&#45;&gt;Node4</title>
<g id="a_edge3_Node000003_Node000004"><a xlink:title=" ">
<path fill="none" stroke="#63b8ff" d="M57.5,-55.59C57.5,-49.01 57.5,-39.96 57.5,-31.73"/>
<polygon fill="#63b8ff" stroke="#63b8ff" points="61,-31.81 57.5,-21.81 54,-31.81 61,-31.81"/>
</a>
</g>
</g>
</g>
</svg>
