<?xml version="1.0" encoding="UTF-8" standalone="no"?>
<!DOCTYPE svg PUBLIC "-//W3C//DTD SVG 1.1//EN"
 "http://www.w3.org/Graphics/SVG/1.1/DTD/svg11.dtd">
<!-- Generated by graphviz version 16.1.0 (0)
 -->
<!-- Title: src/bot_library/commands/notification/YoutubeNotificationService.hpp Pages: 1 -->
<svg width="503pt" height="164pt"
 viewBox="0.00 0.00 503.00 164.00" xmlns="http://www.w3.org/2000/svg" xmlns:xlink="http://www.w3.org/1999/xlink">
<g id="graph0" class="graph" transform="scale(1 1) rotate(0) translate(4 160)">
<title>src/bot_library/commands/notification/YoutubeNotificationService.hpp</title>
<!-- Node1 -->
<g id="Node000001" class="node">
<title>Node1</title>
<g id="a_Node000001"><a xlink:title=" ">
<polygon fill="#999999" stroke="#666666" points="298.12,-156 144.12,-156 144.12,-112 298.12,-112 298.12,-156"/>
<text xml:space="preserve" text-anchor="start" x="152.12" y="-142.5" font-family="Helvetica,sans-Serif" font-size="10.00">src/bot_library/commands</text>
<text xml:space="preserve" text-anchor="start" x="152.12" y="-130.5" font-family="Helvetica,sans-Serif" font-size="10.00">/notification/YoutubeNotification</text>
<text xml:space="preserve" text-anchor="middle" x="221.12" y="-118.5" font-family="Helvetica,sans-Serif" font-size="10.00">Service.hpp</text>
</a>
</g>
</g>
<!-- Node2 -->
<g id="Node000002" class="node">
<title>Node2</title>
<g id="a_Node000002"><a xlink:title=" ">
<polygon fill="#e0e0e0" stroke="#999999" points="72.25,-76 0,-76 0,-56 72.25,-56 72.25,-76"/>
<text xml:space="preserve" text-anchor="middle" x="36.12" y="-62.5" font-family="Helvetica,sans-Serif" font-size="10.00">dpp/cluster.h</text>
</a>
</g>
</g>
<!-- Node1&#45;&gt;Node2 -->
<g id="edge1_Node000001_Node000002" class="edge">
<title>Node1&#45;&gt;Node2</title>
<g id="a_edge1_Node000001_Node000002"><a xlink:title=" ">
<path fill="none" stroke="#63b8ff" d="M161.06,-111.57C132.02,-101.21 98.09,-89.11 72.93,-80.13"/>
<polygon fill="#63b8ff" stroke="#63b8ff" points="74.4,-76.94 63.8,-76.87 72.04,-83.53 74.4,-76.94"/>
</a>
</g>
</g>
<!-- Node3 -->
<g id="Node000003" class="node">
<title>Node3</title>
<g id="a_Node000003"><a xlink:title=" ">
<polygon fill="#e0e0e0" stroke="#999999" points="155.5,-76 90.75,-76 90.75,-56 155.5,-56 155.5,-76"/>
<text xml:space="preserve" text-anchor="middle" x="123.12" y="-62.5" font-family="Helvetica,sans-Serif" font-size="10.00">dpp/timer.h</text>
</a>
</g>
</g>
<!-- Node1&#45;&gt;Node3 -->
<g id="edge2_Node000001_Node000003" class="edge">
<title>Node1&#45;&gt;Node3</title>
<g id="a_edge2_Node000001_Node000003"><a xlink:title=" ">
<path fill="none" stroke="#63b8ff" d="M189.31,-111.57C175.37,-102.19 159.31,-91.37 146.5,-82.75"/>
<polygon fill="#63b8ff" stroke="#63b8ff" points="148.54,-79.89 138.29,-77.21 144.63,-85.7 148.54,-79.89"/>
</a>
</g>
</g>
<!-- Node4 -->
<g id="Node000004" class="node">
<title>Node4</title>
<g id="a_Node000004"><a xlink:title=" ">
<polygon fill="#e0e0e0" stroke="#999999" points="203.62,-20 160.62,-20 160.62,0 203.62,0 203.62,-20"/>
<text xml:space="preserve" text-anchor="middle" x="182.12" y="-6.5" font-family="Helvetica,sans-Serif" font-size="10.00">mutex</text>
</a>
</g>
</g>
<!-- Node1&#45;&gt;Node4 -->
<g id="edge3_Node000001_Node000004" class="edge">
<title>Node1&#45;&gt;Node4</title>
<g id="a_edge3_Node000001_Node000004"><a xlink:title=" ">
<path fill="none" stroke="#63b8ff" d="M214.33,-111.75C207.08,-89.05 195.67,-53.36 188.55,-31.11"/>
<polygon fill="#63b8ff" stroke="#63b8ff" points="191.94,-30.2 185.56,-21.74 185.27,-32.33 191.94,-30.2"/>
</a>
</g>
</g>
<!-- Node5 -->
<g id="Node000005" class="node">
<title>Node5</title>
<g id="a_Node000005"><a xlink:title=" ">
<polygon fill="#e0e0e0" stroke="#999999" points="495,-76 445.25,-76 445.25,-56 495,-56 495,-76"/>
<text xml:space="preserve" text-anchor="middle" x="470.12" y="-62.5" font-family="Helvetica,sans-Serif" font-size="10.00">optional</text>
</a>
</g>
</g>
<!-- Node1&#45;&gt;Node5 -->
<g id="edge4_Node000001_Node000005" class="edge">
<title>Node1&#45;&gt;Node5</title>
<g id="a_edge4_Node000001_Node000005"><a xlink:title=" ">
<path fill="none" stroke="#63b8ff" d="M298.55,-112.48C343.76,-100.49 398.69,-85.93 434.02,-76.57"/>
<polygon fill="#63b8ff" stroke="#63b8ff" points="434.53,-80.06 443.3,-74.11 432.74,-73.29 434.53,-80.06"/>
</a>
</g>
</g>
<!-- Node6 -->
<g id="Node000006" class="node">
<title>Node6</title>
<g id="a_Node000006"><a xlink:title=" ">
<polygon fill="#e0e0e0" stroke="#999999" points="262.12,-20 222.12,-20 222.12,0 262.12,0 262.12,-20"/>
<text xml:space="preserve" text-anchor="middle" x="242.12" y="-6.5" font-family="Helvetica,sans-Serif" font-size="10.00">string</text>
</a>
</g>
</g>
<!-- Node1&#45;&gt;Node6 -->
<g id="edge5_Node000001_Node000006" class="edge">
<title>Node1&#45;&gt;Node6</title>
<g id="a_edge5_Node000001_Node000006"><a xlink:title=" ">
<path fill="none" stroke="#63b8ff" d="M224.78,-111.75C228.67,-89.16 234.78,-53.69 238.61,-31.42"/>
<polygon fill="#63b8ff" stroke="#63b8ff" points="242.02,-32.24 240.27,-21.79 235.12,-31.05 242.02,-32.24"/>
</a>
</g>
</g>
<!-- Node7 -->
<g id="Node000007" class="node">
<title>Node7</title>
<g id="a_Node000007"><a xlink:title=" ">
<polygon fill="#e0e0e0" stroke="#999999" points="458.5,-20 375.75,-20 375.75,0 458.5,0 458.5,-20"/>
<text xml:space="preserve" text-anchor="middle" x="417.12" y="-6.5" font-family="Helvetica,sans-Serif" font-size="10.00">unordered_map</text>
</a>
</g>
</g>
<!-- Node1&#45;&gt;Node7 -->
<g id="edge6_Node000001_Node000007" class="edge">
<title>Node1&#45;&gt;Node7</title>
<g id="a_edge6_Node000001_Node000007"><a xlink:title=" ">
<path fill="none" stroke="#63b8ff" d="M298.6,-124.58C333.22,-117.06 372.01,-102.84 398.12,-76 409.67,-64.14 414.26,-45.67 416.06,-31.44"/>
<polygon fill="#63b8ff" stroke="#63b8ff" points="419.52,-32.08 416.89,-21.82 412.54,-31.48 419.52,-32.08"/>
</a>
</g>
</g>
<!-- Node8 -->
<g id="Node000008" class="node">
<title>Node8</title>
<g id="a_Node000008"><a xlink:href="LatestEventsRepository_8hpp.html" target="_top" xlink:title=" ">
<polygon fill="white" stroke="#666666" points="388.62,-76 249.62,-76 249.62,-56 388.62,-56 388.62,-76"/>
<text xml:space="preserve" text-anchor="middle" x="319.12" y="-62.5" font-family="Helvetica,sans-Serif" font-size="10.00">LatestEventsRepository.hpp</text>
</a>
</g>
</g>
<!-- Node1&#45;&gt;Node8 -->
<g id="edge7_Node000001_Node000008" class="edge">
<title>Node1&#45;&gt;Node8</title>
<g id="a_edge7_Node000001_Node000008"><a xlink:title=" ">
<path fill="none" stroke="#63b8ff" d="M252.94,-111.57C266.88,-102.19 282.94,-91.37 295.75,-82.75"/>
<polygon fill="#63b8ff" stroke="#63b8ff" points="297.62,-85.7 303.96,-77.21 293.71,-79.89 297.62,-85.7"/>
</a>
</g>
</g>
<!-- Node8&#45;&gt;Node4 -->
<g id="edge8_Node000008_Node000004" class="edge">
<title>Node8&#45;&gt;Node4</title>
<g id="a_edge8_Node000008_Node000004"><a xlink:title=" ">
<path fill="none" stroke="#63b8ff" d="M295.26,-55.59C272.92,-46.79 239.37,-33.56 214.6,-23.8"/>
<polygon fill="#63b8ff" stroke="#63b8ff" points="215.9,-20.55 205.32,-20.14 213.34,-27.06 215.9,-20.55"/>
</a>
</g>
</g>
<!-- Node8&#45;&gt;Node6 -->
<g id="edge9_Node000008_Node000006" class="edge">
<title>Node8&#45;&gt;Node6</title>
<g id="a_edge9_Node000008_Node000006"><a xlink:title=" ">
<path fill="none" stroke="#63b8ff" d="M305.71,-55.59C294.52,-47.74 278.31,-36.38 265.07,-27.09"/>
<polygon fill="#63b8ff" stroke="#63b8ff" points="267.08,-24.22 256.88,-21.35 263.06,-29.96 267.08,-24.22"/>
</a>
</g>
</g>
<!-- Node8&#45;&gt;Node7 -->
<g id="edge10_Node000008_Node000007" class="edge">
<title>Node8&#45;&gt;Node7</title>
<g id="a_edge10_Node000008_Node000007"><a xlink:title=" ">
<path fill="none" stroke="#63b8ff" d="M336.2,-55.59C351,-47.44 372.69,-35.48 389.89,-26"/>
<polygon fill="#63b8ff" stroke="#63b8ff" points="391.53,-29.1 398.6,-21.21 388.15,-22.97 391.53,-29.1"/>
</a>
</g>
</g>
<!-- Node9 -->
<g id="Node000009" class="node">
<title>Node9</title>
<g id="a_Node000009"><a xlink:title=" ">
<polygon fill="#e0e0e0" stroke="#999999" points="357.88,-20 280.38,-20 280.38,0 357.88,0 357.88,-20"/>
<text xml:space="preserve" text-anchor="middle" x="319.12" y="-6.5" font-family="Helvetica,sans-Serif" font-size="10.00">unordered_set</text>
</a>
</g>
</g>
<!-- Node8&#45;&gt;Node9 -->
<g id="edge11_Node000008_Node000009" class="edge">
<title>Node8&#45;&gt;Node9</title>
<g id="a_edge11_Node000008_Node000009"><a xlink:title=" ">
<path fill="none" stroke="#63b8ff" d="M319.12,-55.59C319.12,-49.01 319.12,-39.96 319.12,-31.73"/>
<polygon fill="#63b8ff" stroke="#63b8ff" points="322.63,-31.81 319.13,-21.81 315.63,-31.81 322.63,-31.81"/>
</a>
</g>
</g>
</g>
</svg>
