<?xml version="1.0" encoding="UTF-8" standalone="no"?>
<!DOCTYPE svg PUBLIC "-//W3C//DTD SVG 1.1//EN"
 "http://www.w3.org/Graphics/SVG/1.1/DTD/svg11.dtd">
<!-- Generated by graphviz version 9.0.0 (0)
 -->
<!-- Title: ChallengeRoleRepository Pages: 1 -->
<svg width="180pt" height="405pt"
 viewBox="0.00 0.00 180.25 405.00" xmlns="http://www.w3.org/2000/svg" xmlns:xlink="http://www.w3.org/1999/xlink">
<g id="graph0" class="graph" transform="scale(1 1) rotate(0) translate(4 401)">
<title>ChallengeRoleRepository</title>
<!-- Node1 -->
<g id="Node000001" class="node">
<title>Node1</title>
<g id="a_Node000001"><a xlink:title=" ">
<polygon fill="#999999" stroke="none" points="127,-100 6,-100 6,0 127,0 127,-100"/>
<text text-anchor="start" x="11" y="-86.5" font-family="Helvetica,sans-Serif" font-size="10.00">ChallengeRoleRepository</text>
<text text-anchor="start" x="65" y="-70.5" font-family="Helvetica,sans-Serif" font-size="10.00"> </text>
<text text-anchor="start" x="26" y="-54.5" font-family="Helvetica,sans-Serif" font-size="10.00">+</text>
<text text-anchor="start" x="52" y="-54.5" font-family="Helvetica,sans-Serif" font-size="10.00">create()</text>
<text text-anchor="start" x="26" y="-38.5" font-family="Helvetica,sans-Serif" font-size="10.00">+</text>
<text text-anchor="start" x="52" y="-38.5" font-family="Helvetica,sans-Serif" font-size="10.00">remove()</text>
<text text-anchor="start" x="26" y="-22.5" font-family="Helvetica,sans-Serif" font-size="10.00">+</text>
<text text-anchor="start" x="52" y="-22.5" font-family="Helvetica,sans-Serif" font-size="10.00">get()</text>
<text text-anchor="start" x="26" y="-6.5" font-family="Helvetica,sans-Serif" font-size="10.00">+</text>
<text text-anchor="start" x="52" y="-6.5" font-family="Helvetica,sans-Serif" font-size="10.00">update()</text>
<polygon fill="#666666" stroke="#666666" points="6,-82 6,-82 127,-82 127,-82 6,-82"/>
<polygon fill="#666666" stroke="#666666" points="6,-66 6,-66 127,-66 127,-66 6,-66"/>
<polygon fill="none" stroke="#666666" points="6,0 6,-100 127,-100 127,0 6,0"/>
</a>
</g>
</g>
<!-- Node2 -->
<g id="Node000002" class="node">
<title>Node2</title>
<g id="a_Node000002"><a xlink:href="classIRepository.html" target="_top" xlink:title=" ">
<polygon fill="white" stroke="none" points="133,-249 0,-249 0,-137 133,-137 133,-249"/>
<text text-anchor="start" x="5" y="-235.5" font-family="Helvetica,sans-Serif" font-size="10.00">IRepository&lt; ChallengeRole</text>
<text text-anchor="start" x="51.5" y="-223.5" font-family="Helvetica,sans-Serif" font-size="10.00">DTO &gt;</text>
<text text-anchor="start" x="65" y="-207.5" font-family="Helvetica,sans-Serif" font-size="10.00"> </text>
<text text-anchor="start" x="23" y="-191.5" font-family="Helvetica,sans-Serif" font-size="10.00">+</text>
<text text-anchor="start" x="52" y="-191.5" font-family="Helvetica,sans-Serif" font-size="10.00">create()</text>
<text text-anchor="start" x="23" y="-175.5" font-family="Helvetica,sans-Serif" font-size="10.00">+</text>
<text text-anchor="start" x="52" y="-175.5" font-family="Helvetica,sans-Serif" font-size="10.00">remove()</text>
<text text-anchor="start" x="23" y="-159.5" font-family="Helvetica,sans-Serif" font-size="10.00">+</text>
<text text-anchor="start" x="52" y="-159.5" font-family="Helvetica,sans-Serif" font-size="10.00">get()</text>
<text text-anchor="start" x="23" y="-143.5" font-family="Helvetica,sans-Serif" font-size="10.00">+</text>
<text text-anchor="start" x="52" y="-143.5" font-family="Helvetica,sans-Serif" font-size="10.00">update()</text>
<polygon fill="#666666" stroke="#666666" points="0,-219 0,-219 133,-219 133,-219 0,-219"/>
<polygon fill="#666666" stroke="#666666" points="0,-203 0,-203 133,-203 133,-203 0,-203"/>
<polygon fill="none" stroke="#666666" points="0,-137 0,-249 133,-249 133,-137 0,-137"/>
</a>
</g>
</g>
<!-- Node2&#45;&gt;Node1 -->
<g id="edge1_Node000001_Node000002" class="edge">
<title>Node2&#45;&gt;Node1</title>
<g id="a_edge1_Node000001_Node000002"><a xlink:title=" ">
<path fill="none" stroke="#63b8ff" d="M66.5,-125.63C66.5,-116.85 66.5,-107.98 66.5,-99.57"/>
<polygon fill="none" stroke="#63b8ff" points="63,-125.57 66.5,-135.57 70,-125.57 63,-125.57"/>
</a>
</g>
</g>
<!-- Node3 -->
<g id="Node000003" class="node">
<title>Node3</title>
<g id="a_Node000003"><a xlink:href="classIRepository.html" target="_top" xlink:title=" ">
<polygon fill="white" stroke="none" points="116,-397 17,-397 17,-297 116,-297 116,-397"/>
<text text-anchor="start" x="21.88" y="-383.5" font-family="Helvetica,sans-Serif" font-size="10.00">IRepository&lt; DTO &gt;</text>
<text text-anchor="start" x="65" y="-367.5" font-family="Helvetica,sans-Serif" font-size="10.00"> </text>
<text text-anchor="start" x="31.5" y="-351.5" font-family="Helvetica,sans-Serif" font-size="10.00">+</text>
<text text-anchor="start" x="52" y="-351.5" font-family="Helvetica,sans-Serif" font-size="10.00">create()</text>
<text text-anchor="start" x="31.5" y="-335.5" font-family="Helvetica,sans-Serif" font-size="10.00">+</text>
<text text-anchor="start" x="52" y="-335.5" font-family="Helvetica,sans-Serif" font-size="10.00">remove()</text>
<text text-anchor="start" x="31.5" y="-319.5" font-family="Helvetica,sans-Serif" font-size="10.00">+</text>
<text text-anchor="start" x="52" y="-319.5" font-family="Helvetica,sans-Serif" font-size="10.00">get()</text>
<text text-anchor="start" x="31.5" y="-303.5" font-family="Helvetica,sans-Serif" font-size="10.00">+</text>
<text text-anchor="start" x="52" y="-303.5" font-family="Helvetica,sans-Serif" font-size="10.00">update()</text>
<polygon fill="#666666" stroke="#666666" points="17,-379 17,-379 116,-379 116,-379 17,-379"/>
<polygon fill="#666666" stroke="#666666" points="17,-363 17,-363 116,-363 116,-363 17,-363"/>
<polygon fill="none" stroke="#666666" points="17,-297 17,-397 116,-397 116,-297 17,-297"/>
</a>
</g>
</g>
<!-- Node3&#45;&gt;Node2 -->
<g id="edge2_Node000002_Node000003" class="edge">
<title>Node3&#45;&gt;Node2</title>
<g id="a_edge2_Node000002_Node000003"><a xlink:title=" ">
<path fill="none" stroke="orange" d="M66.5,-285.65C66.5,-273.52 66.5,-260.84 66.5,-248.9"/>
<polygon fill="orange" stroke="orange" points="63,-285.56 66.5,-295.56 70,-285.56 63,-285.56"/>
</a>
</g>
<text text-anchor="middle" x="119.38" y="-269.5" font-family="Helvetica,sans-Serif" font-size="10.00" fill="grey"> &lt; ChallengeRoleDTO &gt;</text>
</g>
</g>
</svg>
