<?xml version="1.0" encoding="UTF-8" standalone="no"?>
<!DOCTYPE svg PUBLIC "-//W3C//DTD SVG 1.1//EN"
 "http://www.w3.org/Graphics/SVG/1.1/DTD/svg11.dtd">
<!-- Generated by graphviz version 9.0.0 (0)
 -->
<!-- Title: src/core/interfaces/IRepository.hpp Pages: 1 -->
<svg width="362pt" height="176pt"
 viewBox="0.00 0.00 362.25 176.00" xmlns="http://www.w3.org/2000/svg" xmlns:xlink="http://www.w3.org/1999/xlink">
<g id="graph0" class="graph" transform="scale(1 1) rotate(0) translate(4 172)">
<title>src/core/interfaces/IRepository.hpp</title>
<!-- Node1 -->
<g id="Node000001" class="node">
<title>Node1</title>
<g id="a_Node000001"><a xlink:title=" ">
<polygon fill="#999999" stroke="#666666" points="225.25,-168 128.25,-168 128.25,-136 225.25,-136 225.25,-168"/>
<text text-anchor="start" x="136.25" y="-154.5" font-family="Helvetica,sans-Serif" font-size="10.00">src/core/interfaces</text>
<text text-anchor="middle" x="176.75" y="-142.5" font-family="Helvetica,sans-Serif" font-size="10.00">/IRepository.hpp</text>
</a>
</g>
</g>
<!-- Node2 -->
<g id="Node000002" class="node">
<title>Node2</title>
<g id="a_Node000002"><a xlink:href="ChallengeRoleRepository_8hpp.html" target="_top" xlink:title=" ">
<polygon fill="white" stroke="#666666" points="261.25,-100 92.25,-100 92.25,-68 261.25,-68 261.25,-100"/>
<text text-anchor="start" x="100.25" y="-86.5" font-family="Helvetica,sans-Serif" font-size="10.00">src/commands/challenge</text>
<text text-anchor="middle" x="176.75" y="-74.5" font-family="Helvetica,sans-Serif" font-size="10.00">_role/ChallengeRoleRepository.hpp</text>
</a>
</g>
</g>
<!-- Node1&#45;&gt;Node2 -->
<g id="edge1_Node000001_Node000002" class="edge">
<title>Node1&#45;&gt;Node2</title>
<g id="a_edge1_Node000001_Node000002"><a xlink:title=" ">
<path fill="none" stroke="#63b8ff" d="M176.75,-124.31C176.75,-116.12 176.75,-107.38 176.75,-100.22"/>
<polygon fill="#63b8ff" stroke="#63b8ff" points="173.25,-124.18 176.75,-134.18 180.25,-124.18 173.25,-124.18"/>
</a>
</g>
</g>
<!-- Node3 -->
<g id="Node000003" class="node">
<title>Node3</title>
<g id="a_Node000003"><a xlink:href="ChallengeRoleCommand_8cpp.html" target="_top" xlink:title=" ">
<polygon fill="white" stroke="#666666" points="167.5,-32 0,-32 0,0 167.5,0 167.5,-32"/>
<text text-anchor="start" x="8" y="-18.5" font-family="Helvetica,sans-Serif" font-size="10.00">src/commands/challenge</text>
<text text-anchor="middle" x="83.75" y="-6.5" font-family="Helvetica,sans-Serif" font-size="10.00">_role/ChallengeRoleCommand.cpp</text>
</a>
</g>
</g>
<!-- Node2&#45;&gt;Node3 -->
<g id="edge2_Node000002_Node000003" class="edge">
<title>Node2&#45;&gt;Node3</title>
<g id="a_edge2_Node000002_Node000003"><a xlink:title=" ">
<path fill="none" stroke="#63b8ff" d="M145.96,-61.15C132.72,-51.75 117.56,-41 105.53,-32.45"/>
<polygon fill="#63b8ff" stroke="#63b8ff" points="143.77,-63.88 153.95,-66.82 147.82,-58.17 143.77,-63.88"/>
</a>
</g>
</g>
<!-- Node4 -->
<g id="Node000004" class="node">
<title>Node4</title>
<g id="a_Node000004"><a xlink:href="ChallengeRoleRepository_8cpp.html" target="_top" xlink:title=" ">
<polygon fill="white" stroke="#666666" points="354.25,-32 185.25,-32 185.25,0 354.25,0 354.25,-32"/>
<text text-anchor="start" x="193.25" y="-18.5" font-family="Helvetica,sans-Serif" font-size="10.00">src/commands/challenge</text>
<text text-anchor="middle" x="269.75" y="-6.5" font-family="Helvetica,sans-Serif" font-size="10.00">_role/ChallengeRoleRepository.cpp</text>
</a>
</g>
</g>
<!-- Node2&#45;&gt;Node4 -->
<g id="edge3_Node000002_Node000004" class="edge">
<title>Node2&#45;&gt;Node4</title>
<g id="a_edge3_Node000002_Node000004"><a xlink:title=" ">
<path fill="none" stroke="#63b8ff" d="M207.54,-61.15C220.78,-51.75 235.94,-41 247.97,-32.45"/>
<polygon fill="#63b8ff" stroke="#63b8ff" points="205.68,-58.17 199.55,-66.82 209.73,-63.88 205.68,-58.17"/>
</a>
</g>
</g>
</g>
</svg>
