<?xml version="1.0" encoding="UTF-8" standalone="no"?>
<!DOCTYPE svg PUBLIC "-//W3C//DTD SVG 1.1//EN"
 "http://www.w3.org/Graphics/SVG/1.1/DTD/svg11.dtd">
<!-- Generated by graphviz version 9.0.0 (0)
 -->
<!-- Title: src/commands/set_channel/SetChannelCommand.hpp Pages: 1 -->
<svg width="346pt" height="108pt"
 viewBox="0.00 0.00 346.00 108.00" xmlns="http://www.w3.org/2000/svg" xmlns:xlink="http://www.w3.org/1999/xlink">
<g id="graph0" class="graph" transform="scale(1 1) rotate(0) translate(4 104)">
<title>src/commands/set_channel/SetChannelCommand.hpp</title>
<!-- Node1 -->
<g id="Node000001" class="node">
<title>Node1</title>
<g id="a_Node000001"><a xlink:title=" ">
<polygon fill="#999999" stroke="#666666" points="249,-100 113,-100 113,-68 249,-68 249,-100"/>
<text text-anchor="start" x="121" y="-86.5" font-family="Helvetica,sans-Serif" font-size="10.00">src/commands/set_channel</text>
<text text-anchor="middle" x="181" y="-74.5" font-family="Helvetica,sans-Serif" font-size="10.00">/SetChannelCommand.hpp</text>
</a>
</g>
</g>
<!-- Node2 -->
<g id="Node000002" class="node">
<title>Node2</title>
<g id="a_Node000002"><a xlink:href="CommandRegister_8cpp.html" target="_top" xlink:title=" ">
<polygon fill="white" stroke="#666666" points="184,-26 0,-26 0,-6 184,-6 184,-26"/>
<text text-anchor="middle" x="92" y="-12.5" font-family="Helvetica,sans-Serif" font-size="10.00">src/commands/CommandRegister.cpp</text>
</a>
</g>
</g>
<!-- Node1&#45;&gt;Node2 -->
<g id="edge1_Node000001_Node000002" class="edge">
<title>Node1&#45;&gt;Node2</title>
<g id="a_edge1_Node000001_Node000002"><a xlink:title=" ">
<path fill="none" stroke="#63b8ff" d="M151.39,-61.04C135.47,-49.24 116.68,-35.3 104.56,-26.32"/>
<polygon fill="#63b8ff" stroke="#63b8ff" points="149.02,-63.65 159.14,-66.79 153.19,-58.02 149.02,-63.65"/>
</a>
</g>
</g>
<!-- Node3 -->
<g id="Node000003" class="node">
<title>Node3</title>
<g id="a_Node000003"><a xlink:href="SetChannelCommand_8cpp.html" target="_top" xlink:title=" ">
<polygon fill="white" stroke="#666666" points="338,-32 202,-32 202,0 338,0 338,-32"/>
<text text-anchor="start" x="210" y="-18.5" font-family="Helvetica,sans-Serif" font-size="10.00">src/commands/set_channel</text>
<text text-anchor="middle" x="270" y="-6.5" font-family="Helvetica,sans-Serif" font-size="10.00">/SetChannelCommand.cpp</text>
</a>
</g>
</g>
<!-- Node1&#45;&gt;Node3 -->
<g id="edge2_Node000001_Node000003" class="edge">
<title>Node1&#45;&gt;Node3</title>
<g id="a_edge2_Node000001_Node000003"><a xlink:title=" ">
<path fill="none" stroke="#63b8ff" d="M210.84,-60.87C223.42,-51.55 237.75,-40.91 249.16,-32.45"/>
<polygon fill="#63b8ff" stroke="#63b8ff" points="208.81,-58.02 202.86,-66.79 212.98,-63.65 208.81,-58.02"/>
</a>
</g>
</g>
</g>
</svg>
